<?xml version="1.0" encoding="utf-8"?>
<!-- Generator: Adobe Illustrator 24.1.2, SVG Export Plug-In . SVG Version: 6.00 Build 0)  -->
<svg version="1.1" id="Layer_1" xmlns="http://www.w3.org/2000/svg" xmlns:xlink="http://www.w3.org/1999/xlink" x="0px" y="0px"
	 viewBox="0 0 500 500" style="enable-background:new 0 0 500 500;" xml:space="preserve">
<style type="text/css">
	.st0{fill:#E5752B;}
	.st1{fill:none;stroke:#9D9C9E;stroke-width:0.5;}
</style>
<path class="st0" d="M56.5,326c0.7-3.4,2.4-6.7,4.8-9.2c-0.2,0.9-0.2,1.9-0.4,2.8c1-1.8,2.3-3.4,3.9-4.7c0,0.7-0.2,1.3-0.4,1.9
	c1.7-2.1,3.9-4,6.3-5.2c-0.9,2.7-2.6,5.1-4.5,7.1c0.4-0.3,0.9-0.3,1.3-0.2c-0.8,1.8-2.3,3.3-4.1,4.1c0.7,0,1.4-0.1,2.1-0.4
	c-0.5,0.9-1.9,1.6-2.8,2.1C60.8,325.1,58.6,326,56.5,326z"/>
<path class="st0" d="M51.9,325c-2.9-2.3-6.4-6-8.5-9.1c-2.5-2.9-5.7-6.9-7.9-10.1c-1.1-1.9-3.4-5.5-4.7-7.2c1.8,0.4,3.6,1.1,5,2.3
	c-1.1-1.7-2.7-4.1-3.8-5.7c-1.8-3.2-3.2-7.1-3.5-10.8c1.3,0.9,2.6,1.9,4,2.7c-1.1-2.3-2.9-7-3.6-9.5c0,0-0.9-5-0.9-5
	c-1-7.8-0.4-16.6-1-24.4c3.5,5.7,6.1,12.7,8.7,18.8c1.1,3.5,2.7,8.2,4.4,11.4c-0.2-1.7-0.1-3.6,0.5-5.2c0.8,1.9,1.8,4.1,2.8,5.9
	c1.1,1.6,2.2,3.6,3.2,5.3c-0.2-1.3-0.4-3,0.6-4.1l2,5.6l2.1,5.7l2.3,5l1.2,5.8l0.3,5.8l-0.6,6l-0.7,5.9l-1.9,5.3L51.9,325z"/>
<path class="st0" d="M106.7,186c4.6,0.7,9.9,2.3,14.2,3.9c4.1,2,8.7,4.9,12.1,7.9c-2.5-0.1-5.2-0.5-7.7-0.8
	c4.9,2.5,9.3,6.2,12.8,10.3c-1.8,0-3.6-0.2-5.3-0.8c6.1,4.5,10.6,10.3,13.3,17.5c-7-2.7-13.3-7.4-18.4-12.8c0.7,1.1,0.8,2.5,0.4,3.7
	c-2.1-1.2-4.6-2.9-6.4-4.5c-1.8-1.6-3.5-4.1-4.6-6.2c0,1.8,0.3,3.7,0.9,5.5c0,0-1.8-1.2-1.8-1.2l-1.9-2.4c-2-3-3.7-7.6-4.8-11
	C108.5,192.3,107.2,188.6,106.7,186z"/>
<path class="st0" d="M199.7,151.8c2.1-2.9,5.1-5.3,8.4-6.8c-0.5,0.8-1,1.7-1.5,2.4c1.7-1.2,3.5-2.3,5.4-3.1
	c-0.2,0.7-0.6,1.4-1.1,1.9c0.8-0.5,1.9-1.2,2.8-1.5c1.6-0.4,3.4-0.6,5-0.6c-1.9,2-4.4,3.5-6.9,4.6c0.5-0.1,1,0.1,1.3,0.4
	c-1.5,1.3-3.5,2-5.4,2.1c0.6,0.3,1.3,0.5,2,0.5c-1.3,0.9-3.4,0.7-4.9,0.7C203.1,152.3,201.2,152.2,199.7,151.8z"/>
<path class="st0" d="M203.4,238.4c-3.2,5-8.3,8.8-13.6,11.5c0.3-0.9,0.7-1.8,1.3-2.5c-2.7,1.6-5.7,3.1-8.8,3.7
	c0.4-0.7,0.9-1.5,1.3-2.2c-3,1.4-6.5,3.1-9.7,4c-1.3,0.4-3.9,1-5.2,1.3c-1.3,0.1-3.9,0.3-5.2,0.4c1.7-1.1,4.1-2.3,5.8-3.4
	c3-2,6.4-4.1,9.5-5.9c-0.9,0.2-1.9,0.2-2.8-0.2c2-1.1,4.1-2.4,6.1-3.6c-0.8,0.2-1.7,0.3-2.3-0.2c1.4-0.9,4-2.1,5.6-2.6
	c1.5-0.4,4.6-1,6.2-1.2c3.8-0.5,8.4-0.1,12.2,0.9L203.4,238.4z"/>
<path class="st0" d="M144,269.2c6.2-6.2,14.3-11.7,23.3-12.7c-0.6,0.3-1.1,1.1-1.6,1.6c-0.9,1.1-2,2.3-2.9,3.3
	c4.6-2.4,9.7-4.2,14.5-6c-0.3,0.8-0.7,1.7-1.1,2.4c-0.5,0.7-1.1,1.4-1.7,1.9c3-1.3,6.6-3.1,9.7-4.2c3.2-1.2,7.1-2.1,10.5-2.5
	c-5,5.5-10.9,11.5-18.4,13.2c1.2-0.1,2.6,0.4,3.4,1.3c-2.8,1.6-6,3.1-9.2,3.8c-1.8,0.3-4.3,0.3-6.1,0.2c1.6,1,3.4,1.6,5.3,1.9
	c0,0-2.2,0.8-2.2,0.8l-3.1,0.3l-3.6-0.2l-4.1-0.9C152.7,272.4,147.7,271.1,144,269.2z"/>
<path class="st0" d="M54.8,296.8c1.9-2.7,4.9-4.8,7.9-6.2c-0.5,0.8-1,1.5-1.5,2.3c1.6-1.3,3.4-2.2,5.3-2.9c-0.2,0.6-0.6,1.2-1,1.6
	c2.3-1.2,4.8-2.5,7.4-3c-1.7,2.3-3.9,4.3-6.6,5.3c0.4-0.1,0.9,0,1.3,0.3c-1.5,1.2-3.5,2-5.4,2.2c0.6,0.3,1.3,0.4,1.9,0.4
	c-0.8,0.6-2.2,0.8-3.1,0.9C58.9,297.9,56.6,297.7,54.8,296.8z"/>
<path class="st0" d="M69.2,364.3c-0.8,0.5-2.4,1.3-3.2,1.7c-0.9,0.3-2.8,0.7-3.8,0.8c-2.4,0.1-5.1,0.8-7.5,0.9
	c0.5-0.6,1.1-1.1,1.8-1.5c-2.6,0.3-5.4,0.5-8.1,0.4c0.5-0.5,1.1-1,1.6-1.5c-2.7,0.7-5.9,1-8.6,1.4c-2.7,0.1-5.9,0.4-8.6,0.7
	c2-1.3,4.6-2.6,6.8-3.7c2.2-1.2,5-2.1,7.5-2.6c-0.8-0.1-1.6-0.3-2.3-0.9c2-0.4,4.1-0.8,6.2-1.2c-0.7-0.1-1.5-0.2-1.9-0.8l2.8-0.4
	l2.8,0.1c1.4,0.3,4.2,1,5.5,1.5c1.3,0.3,3.8,1.3,5,2c1.1,0.7,3.2,2.3,4.2,3.1L69.2,364.3z"/>
<path class="st0" d="M365.5,268.6c-1.6-0.2-4.7-0.8-6.2-1.1c-2.4-0.8-5.6-2.2-7.9-3.2c-0.8-1.2-2.3-3.5-3.1-4.7c0,0-0.7-2-0.7-2
	l-0.3-2.4c-0.2-1-0.4-3-0.3-4c0.4-2.4,0.9-5.1,1.2-7.4c5-3.1,10.2-6.3,15.3-9.2c2.2-1.5,4.9-3.3,6.8-5.2c0,0,1.5-1.4,1.5-1.4
	l1.3-1.9c0.4-1,1.2-2.9,1.6-3.9c-0.2,1.5-0.4,3.5-1,5c-0.8,1.4-1.8,3.3-2.8,4.5c-1.5,1.6-3.3,3.6-5,5.1c-2.7,2.1-5.7,4.3-8.5,6.3
	c1.6,0.2,3,0.5,4.5,0.9c0.8,0.1,1.7,0.1,2.4,0.3l0,0.1c-0.7,0.3-1.6,0.7-2.4,1c-0.8,0.2-1.8,0.3-2.6,0.4c-1.6,0.2-3.2,0.5-4.7,0.9
	c0.2,1.4,0.5,2.8,0.9,4.2c0.3,1.7,0.5,3.5,0.7,5.3c-0.4-0.5-0.9-1.1-1.3-1.6c-1.1-0.9-2.2-1.9-3.3-2.8c-0.2,1.3-0.8,2.9-1.1,4.2
	c0,0,0.2,1.6,0.2,1.6c0.3,1.4,0.7,3.2,1.3,4.5c0,0,1.2,1,1.2,1c2.7,1.6,5.6,3.5,8.5,4.7C362.8,267.9,364.6,268.4,365.5,268.6z"/>
<path class="st0" d="M265.1,360c6.2,1.6,13.2,3,18.5,6.9c-5-0.8-12.1-0.6-17.1-0.5c-7,0.2-15.5,0.1-22.2,1.9
	c-0.3-9.9-1.3-21.6-2-31.6c-0.2-3.6-1-10.9-1.7-14.4c0,0-1.8-3.7-1.8-3.7c1.6,0.9,3.6,2.4,4.8,3.8c2.4,3.4,4.3,7.7,5.2,11.8
	c0.3-0.6,0.8-1.3,1.2-1.9c0.2-0.3,0.5-0.6,0.6-0.9c1.4,2.8,1.4,6.5,1.3,9.5c0.1,3.1-0.3,6.8-0.7,9.9c1.6-1.6,3.4-3.4,5.9-3
	c-0.2,1.4-0.9,2.7-1.4,4.1c-0.4,0.8-1.2,2.4-1.6,3.2c-0.5,0.7-1.5,2.2-2,2.9c0.1,0,0.1,0,0.2,0c1.9-0.9,4.3-1.2,6.3-1.5
	c2.1-0.3,4.5,0.1,6.5,0.5c-1.2,0.5-2.3,1.4-3.3,2.2L265.1,360z"/>
<path class="st0" d="M181.1,184.2c-2.9,1.8-6.4,3.1-9.8,3.2c0.7-0.5,1.4-1,2.1-1.6c-1.9,0.5-3.9,0.7-5.9,0.8c0.5-0.5,1-0.9,1.6-1.2
	c-2.5,0.6-5.3,0.3-7.7-0.6c2.3-1.2,5.1-1.7,7.7-1.7c-0.4-0.1-0.8-0.4-1-0.8c1.8-0.5,3.8-0.4,5.6,0.1c-0.5-0.4-1.1-0.8-1.7-1
	c1.5-0.3,3.2,0.3,4.6,0.8C178.1,182.7,179.8,183.4,181.1,184.2z"/>
<path class="st0" d="M270.1,231.7l2.1-3c1.7-1.5,5.4-4.2,7.3-5.4c5.2-4.5,11.8-8.9,18.4-11.1c-0.6,1.7-1.6,3.3-2.7,4.7l2.1-1
	c1.1-0.3,3.1-1,4.1-1.5c3.4-1.7,7.4-3.3,11.3-3.7c-1,1.3-1.6,2.9-2.5,4.3c2.4-1.1,7-3.5,9.2-4.9c2.3-1.3,7.1-3.6,9.5-4.7
	c4.3-1.9,10.1-4.8,14.2-7.1c0,0,4.1-3.4,4.1-3.4l-2,4.7l-2.9,3.9c-5.7,7.6-14.1,13.4-22,18.6c1.7-0.6,3.7-0.8,5.5-0.3
	c-2,1.2-4,3-5.9,4.3c-1.9,1.4-4.4,2.6-6.4,3.8c1.6-0.3,3.6-0.6,5,0.5l-5.9,2.9l-6.4,2.1l-6.4,1.2l-6.6,0.6l-6.5-0.3l-6.4-1l-5.8-2.1
	L270.1,231.7z"/>
<path class="st0" d="M101.9,270.7c4.1-1.6,8.7-2.5,13.1-2.4c4.6,0.4,10.1,1.2,14.5,2.8c-2.5,0.6-5,1.6-7.5,2.3
	c1.8,0.1,4.3,0.5,6.2,0.8c3.2,0.9,6.7,2.3,9.7,3.8c-1.7,0.7-3.5,1.2-5.3,1.2c3.4,1,7.3,2.4,10.4,4.1c3.1,1.8,6.4,4.5,8.9,7.1
	c-1.4-0.1-4.3-0.4-5.7-0.6c-2.5-0.2-6-0.6-8.5-1.2c-1.4-0.3-4.1-1-5.4-1.5c0,0-2.7-1.4-2.7-1.4c1,0.9,1.7,2.2,1.8,3.5
	c-1-0.2-3-0.8-3.9-1.1c-1.7-0.2-4.1-0.8-5.7-1.5c-1.6-0.9-3.5-2.5-4.9-3.5c0.9,1.7,1.8,3.5,3,4.9c-2.6-0.6-5.8-2.8-8-4.3
	c-1.6-1.3-4.5-4.2-5.8-5.7C104.5,276.1,102.5,273.3,101.9,270.7z"/>
<path class="st0" d="M324.4,255.1c-1.7,0.6-3.7,1.1-5.5,1.3c-1.7,0.2-3.8,0.3-5.4-0.3c0.9-0.3,1.7-0.7,2.6-1.1
	c-1.9,0.1-3.9-0.3-5.6-1.1c0.5-0.3,1.1-0.5,1.7-0.6c-2.5-0.6-5.2-1.5-7.4-2.9c2.7-0.6,5.6-0.3,8.2,0.5c-0.4-0.2-0.7-0.6-0.8-1.1
	c1.9-0.1,3.9,0.5,5.5,1.5c-0.3-0.6-0.8-1.1-1.3-1.5c1.5,0.1,3,1.2,4.2,2.1C321.7,252.9,323.3,254,324.4,255.1z"/>
<path class="st0" d="M57,316c0.1-1.2,0.4-3.5,0.6-4.6c0.3-1,1-3.1,1.4-4.2c0.8-2.6,2.7-5.2,4.5-7.3c0.1,0.9,0.1,1.8-0.2,2.6
	c0.9-1.1,1.9-2.5,2.9-3.5c1.1-1,2.6-2.1,3.8-3c-0.2,0.8-0.3,1.6-0.5,2.3c3.1-3.7,7-7.1,11-9.8c1.1-0.5,3.5-1.5,4.6-2
	c-1.2,1.4-2.9,3.2-4,4.7c-1.7,2.9-3.9,5.9-6.2,8.3c0.8-0.5,1.7-0.8,2.6-0.8c-0.7,0.8-1.6,1.7-2.3,2.4c-0.6,0.8-1.3,1.8-2,2.6
	c0.6-0.4,1.3-0.9,2.1-0.6c-2.7,3.8-7,6.8-11.1,9c-2.3,1-5.3,2.8-7.6,3.9L57,316z"/>
<path class="st0" d="M191.5,276.1c5.1-3.1,11.5-5.2,17.4-5.9c3.3-0.4,7.9-0.3,11.2-0.6c-0.8,0.7-2.1,1.5-3,1.9
	c-1.3,0.7-2.8,1.6-4.2,2.3c5.4-0.7,11.2-0.5,16.4,1.3c-1.5,0.9-3.3,1.6-5,2.1c8.5,0.4,13.4,3.5,19.6,9c-3.4,0.1-7.4,0-10.7-0.3
	c-3.3-0.4-7.2-1.3-10.5-1.9c1.1,0.5,2,1.6,2.3,2.8c-3,0.3-6.4,0.4-9.4-0.3c-1.6-0.5-3.7-1.5-5.2-2.4c1,1.5,2.3,3,3.7,4.1
	c-2.7,0.1-5.9-1.6-8.2-2.8C201,282.9,195.7,279.5,191.5,276.1z"/>
<path class="st0" d="M134.5,224.5c-3.6,0.2-7.6-0.4-10.7-2.2c0.9-0.1,1.9-0.2,2.8-0.3c-2-0.5-4-1.5-5.7-2.6c0.7-0.2,1.4-0.2,2.1-0.1
	c-0.9-0.4-2.1-1-2.8-1.5c-1.3-1.1-2.6-2.5-3.5-3.9c2.8,0.5,5.3,2,7.8,3.3c-0.3-0.3-0.5-0.8-0.5-1.3c1.9,0.4,3.7,1.6,5,3
	c-0.2-0.7-0.5-1.3-0.9-1.9c1.5,0.5,2.7,2.1,3.7,3.3C132.7,221.5,133.8,223.1,134.5,224.5z"/>
<path class="st0" d="M142.6,189.9c-5.6-2.5-10.4-6.9-14.4-11.4c1,0.1,1.9,0.3,2.8,0.8c-1.1-1.1-2.2-2.5-3-3.8
	c-0.8-1.3-1.4-3-2.2-4.3c0.8,0.3,1.6,0.5,2.4,0.8c-1.5-1.8-3.5-4.2-4.8-6.2c-2.9-3.2-5.6-7-7.5-10.8c2.4,1.6,5.1,3.7,7.6,5.2
	c2.5,1.5,5.1,3.9,7,6.2c-0.4-0.9-0.6-1.9-0.5-2.9c1.6,1.8,3.3,3.7,4.8,5.5c-0.3-0.7-0.7-1.6-0.2-2.4c5.6,6.4,8,15.3,8.2,23.7
	L142.6,189.9z"/>
<path class="st0" d="M94.4,212.1c-4.3-0.6-9.1-1.8-13.3-3.2c-1.9-0.9-4.6-2.1-6.5-3.2c-1.5-1.1-3.6-2.5-4.9-3.8
	c-1.5-1.9-3.1-4-4.6-5.9c0.5-3.5,1.2-7.4,2.2-10.7c1-1.8,2.2-4.3,3.6-5.9c2.6-2.4,5.4-5.3,7.9-7.7c1.3-1.6,3.4-3.4,4.9-4.7
	c-1.4,1.7-3,3.7-4,5.6c-1,1.8-2.5,3.8-3.7,5.5c-1.5,2.1-3.1,4.4-4.3,6.7c-0.5,1.3-0.8,3.2-1,4.5c1.3-0.7,2.7-1.4,3.8-2.3
	c0.6-0.6,1.2-1.4,2-1.9l0,0.1c-0.3,0.8-0.7,1.8-1,2.6c-0.7,1.2-1.7,2.4-2.5,3.5c-0.6,0.7-1.1,1.5-1.6,2.3c1.1,0.8,2.4,1.5,3.6,2.1
	c1.4,0.9,2.8,1.9,4.2,2.8c-2.1-0.1-3.9,0.3-6,0.5c0.8,1.1,1.9,2.6,2.8,3.6c1.1,0.9,2.7,2,3.8,2.7C84.2,208.1,89.3,210.3,94.4,212.1z
	"/>
<path class="st0" d="M207.3,237.7c-3.2-3.4-7.1-7.4-10.2-11c-1.6-1.8-3.7-4.3-4.7-6.4c7.8,4.6,17.4,10,24.8,15.3
	c4.6,3.5,10.2,8.9,14.6,12.6c-1,1-4.9,4.9-6,6c0,0-7.2,5.6-7.2,5.6l-9.5,5.1l-10.2,3.9l-9.5,3.4c-2.9,0.6-9.8,2-12.7,2.1
	c1.9-2.2,5-3.9,7.3-5.5c3.1-2,6.8-4.4,10-6.2c-0.8-0.2-1.8-0.4-2.6-0.7c-0.5-0.1-1.1-0.3-1.5-0.7c3-1.7,6.6-3.6,9.9-4.7
	c3.3-0.9,7.3-1.8,10.6-2.8c-1.6-0.6-3.3-1.3-4.7-2.3c-1-0.5-2-1.2-2.5-2.3c4.3-1.8,9.1,0.5,13.5-0.2c0-0.2-1.5-1-1.6-1.1
	c0,0-1.2-1.2-1.2-1.2l-1.7-0.8c-2.9-0.8-5.4-2.8-7.7-4.8c1.7-0.2,3.4-0.3,5.1-0.5L207.3,237.7z"/>
<path class="st0" d="M241.8,242.9c-3.3,0.9-7.2,1.2-10.4,0c0.9-0.2,1.8-0.6,2.7-0.9c-2-0.1-4-0.7-5.8-1.6c0.6-0.3,1.2-0.5,1.9-0.5
	c-2.6-0.6-5.1-2.1-7.2-3.8c2.8-0.2,5.6,0.4,8.2,1.4c-0.4-0.3-0.7-0.7-0.7-1.2c1.9,0,3.9,0.8,5.4,2c-0.3-0.6-0.7-1.2-1.2-1.7
	c1,0.1,2.2,1,3,1.6C239.2,239.5,240.9,241.1,241.8,242.9z"/>
<path class="st0" d="M28.7,218.6c-0.5-2-0.5-6-0.6-8c0,0,0.3-4.4,0.3-4.4c-0.3-3.7-0.4-8.9-0.2-12.7c0.2-2.2,0.5-6.6,0.6-8.8
	c1.2,1.5,2.2,3.3,2.7,5.3c0.2-2.1,0.4-5,0.8-7c1-3.8,2.8-7.9,5.5-10.9c0.3,1.6,0.3,3.3,0.7,4.9l2.1-5.2l2.7-4.6l3.4-4.1
	c6-5.7,14.3-9.7,21.1-14.2c-3.1,5.8-7.9,11.5-11.5,17c-1.3,1.5-3.7,4.7-4.7,6.4c0,0-1.6,3.9-1.6,3.9c1.1-1.4,2.5-2.6,4.1-3.3
	c-0.9,1.9-1.9,4.1-2.4,6.1c-0.2,1.9-0.4,4.1-0.9,5.9c0.4-0.6,0.9-1.2,1.4-1.6c0.4-0.4,1-0.7,1.5-0.7l-0.9,5.2l-2,5.1l-2.1,5.4
	l-2.7,5.3l-3.4,4.8l-4.3,4.2l-4.5,3.8l-4.9,2.8L28.7,218.6z"/>
<path class="st0" d="M114.4,262.9c2.7-4,6.8-7.9,10.7-10.7c3.9-2.7,8.9-5.5,13.4-6.8c-1.6,2.1-3.2,4.3-4.7,6.5
	c1.6-1,3.9-2.3,5.6-3.1c3.2-1.3,6.9-2.3,10.3-3.1c-0.7,1.7-2.1,3.2-3.4,4.5c3.3-1.4,7.4-2.8,11-3.4c3.6-0.4,7.9-0.5,11.5-0.3
	c-2.8,2.4-6.5,4.9-9.7,6.8c-3.3,1.7-7.4,3.3-11,4.1c1.3,0,2.7,0.6,3.6,1.6c-2.2,1.3-5,2.6-7.5,3.4c-2.5,0.7-5.5,1-8.1,0.9
	c1.6,1,3.5,1.7,5.4,2l-2.1,1c-3.4,0.6-8,0.3-11.4-0.2C123.7,265.3,118.4,264.4,114.4,262.9z"/>
<path class="st0" d="M138.5,190c2.5,2.4,4.6,5.6,5.2,9c-0.7-0.7-1.5-1.3-2.2-1.9c0.4,0.9,0.9,1.9,1.2,2.8c0.2,0.9,0.4,2,0.5,3
	c-0.5-0.4-1-0.8-1.4-1.4c0.7,2.6,1.2,5.4,1.1,8.1c-1.9-2.2-3.2-4.9-3.8-7.8c0,0.5-0.3,0.9-0.7,1.2c-1-1.7-1.7-3.8-1.2-5.7
	c-0.4,0.5-0.8,1.2-1,1.9c-0.7-1.5,0.1-3.5,0.5-4.9C137.2,192.9,137.7,191.1,138.5,190z"/>
<path class="st0" d="M276.4,220.8c-2,0.8-4.8,1.7-6.9,1.9c-3.9,0.3-8.2,0.3-12.1,0c0.8-0.6,1.8-1.1,2.8-1.3c-3.3,0-6.5-1.3-9.3-2.9
	c0.8-0.2,1.6-0.5,2.4-0.7c-3.2-0.9-6.9-2.1-9.9-3.4c-2.9-1.4-6.4-3.2-9.2-4.7c5.9,0,12,0.6,17.7,2.1c-0.8-0.5-1.6-1.2-2-2.1
	c2.2,0.6,4.6,1.2,6.9,1.6c-0.7-0.4-1.5-0.9-1.6-1.8c7.9,1.8,15.9,5.5,21.5,11.4L276.4,220.8z"/>
<path class="st0" d="M57.3,175.7c0.2-1.4,0.9-4.3,1.3-5.6c1.1-2.7,2.6-5.1,4.4-7.3c1-1.3,3.2-3.6,4.4-4.6c0,0,2.7-1.6,2.7-1.6
	c-0.6,0.6-0.8,1.4-1,2.2c-0.4,1.2-0.9,2.6-1.3,3.8c1-1.2,2.6-2.8,3.7-3.8c2.3-1.8,5.2-3.4,7.7-4.9c-0.2,1.5-0.9,3-1.8,4.2
	c1.8-1.3,4.2-3.1,6-4.3c3.4-1.9,7.5-3.1,11.3-3.2c-1.7,2.4-4.1,5-6.4,6.9c-2.3,2.1-5.1,4.4-7.9,5.6c1.1-0.3,2.4-0.1,3.3,0.5
	c-1.6,1.4-3.6,3-5.3,4.3c-1.7,1.2-4.1,2.1-6,2.8c1.5,0.2,3.2,0.3,4.7,0c-2.4,2.4-6.4,3.9-9.7,4.8C64.2,176.3,60.6,176.2,57.3,175.7z
	"/>
<path class="st0" d="M397.3,196.2c1.1-2.8,3.3-5.1,5.6-7c-0.2,0.8-0.5,1.6-0.7,2.4c0.6-0.6,1.2-1.4,1.8-2c0.6-0.5,1.4-1.1,2.1-1.5
	c0,0.5-0.2,1.1-0.5,1.5c1.7-1.5,3.6-3,5.8-3.9c-0.9,2.3-2.5,4.3-4.5,5.8c0.4-0.2,0.8-0.2,1.2,0c-1,1.4-2.4,2.8-4.2,3.2
	c0.6,0.1,1.2,0.2,1.8,0c-0.5,0.7-1.8,1-2.6,1.2C401.3,196.2,399.2,196.4,397.3,196.2z"/>
<path class="st0" d="M253.9,344.4c0.3-1.1,1.1-3,1.5-4c0,0,1.1-1.6,1.1-1.6c0.6-0.9,1.9-2.6,2.6-3.4c1.3-1.2,3.2-2.5,4.8-3.4
	c-0.1,0.8-0.4,1.5-0.8,2.2c2.3-1.4,4.5-3.5,7.1-4.3c-0.3,0.7-0.5,1.4-0.8,2c2.3-1.6,5.2-3,7.3-4.8c0.9-0.6,2.7-1.7,3.6-2.3
	c0.9-0.8,2.7-2.3,3.6-3c-1.3,3-3.4,6-5.4,8.6c-1.1,1.4-2.9,2.9-4.2,4.1c0.8-0.3,1.7-0.4,2.5-0.2c-1.5,1.3-3.2,2.7-4.8,3.8
	c0.7-0.2,1.5-0.4,2.2,0c-1.1,0.8-3.4,2.2-4.7,2.8c-1.3,0.5-4,1.3-5.3,1.6c-1.3,0.3-4,0.7-5.4,0.8c-1.2,0.4-3.7,1.2-4.9,1.6
	L253.9,344.4z"/>
<path class="st0" d="M133.4,138.4c-1.3,0.2-3.8,0.6-5,0.8c0,0-2.4,0.9-2.4,0.9c-1.4,1.4-3.8,2.9-5.4,4c-1.9,1.3-4.1,3-6.1,4.3
	c-2.2,1.4-4.8,2.6-7.1,3.8c-2.3-1.1-5-2.1-7.4-3c-3.4-1.4-7.2-2.6-10.8-3.7c0,0-2.1,0.3-2.1,0.3l-1.6,0.9c-2.2,1.2-4.5,3.2-6.5,4.7
	c1.9-2.5,4.3-5,6.7-7.1c1.5-0.5,3.7-1,5.3-1.4c3.7,0.4,7.5,1.3,11.1,2.4c-0.7-1.3-1.3-2.7-2.1-3.9c-0.5-0.6-1.1-1.2-1.4-1.9l0.1,0
	c1,0.5,2.1,0.9,2.9,1.6c1.5,1.3,3.1,2.6,4.5,4c2.1-2.3,4.4-4.4,6.7-6.5c-0.6,2-1,4.1-1.4,6.2c1.1-0.4,2.7-1,3.8-1.4
	c1.6-0.8,3.4-2,5-2.8c1.7-0.7,4-1.2,5.5-2.2C128.1,138.4,130.9,138.3,133.4,138.4z"/>
<path class="st0" d="M86.9,183.7c-1.8,3.6-3.2,8.2-4.2,12.1c-0.3,2-0.8,4.9-1.7,6.8c-0.6-2.7-1.2-8.7-1.3-11.5c0,0,0.6-7.5,0.6-7.5
	l2.1-7.2c2-4.8,4.4-11.3,6.2-16.1c6.6,3,15,7.7,21.4,11.2c0,0,8.3,4.9,8.3,4.9l7.4,5.3l5.2,5.2c0,0,2.6,3.3,2.6,3.3
	c-1.7-0.3-4-1.2-5.5-2c-3.8-1.6-7.9-3.6-11.8-5.1c0.3,0.7,0.6,1.4,0.9,2.1c0.1,0.3,0.3,0.8,0.3,1.2c-5.9-2.5-11.7-6.1-16.5-10.5
	c0.4,1.4,0.7,3,0.7,4.5c0.2,1,0.4,2.1-0.1,3.1c-1.4-0.9-2.7-2.7-3.6-4.1c-1.3-2-2.7-4.4-3.9-6.5c-0.2,0.1-0.2,1.6-0.2,1.7
	c-0.8,3.8-2.2,7.6-4,11c0-0.6-0.1-1.3-0.1-1.9c-0.2-0.9-0.5-1.8-0.8-2.7L86.9,183.7z"/>
<path class="st0" d="M303.7,271.7c2.9-1.3,6.2-1.6,9.3-1.2c-0.8,0.3-1.5,0.8-2.2,1.2c1.8-0.3,3.8-0.2,5.6,0.3
	c-0.5,0.3-1.1,0.6-1.6,0.7c2.4,0.1,5,0.6,7.3,1.6c-2.4,0.8-5.1,0.9-7.6,0.6c0.4,0.1,0.7,0.5,0.9,0.9c-1.8,0.3-3.7,0.1-5.3-0.7
	c0.4,0.5,0.8,0.9,1.4,1.2c-0.9,0.1-2.1-0.5-2.9-0.9C306.7,274.5,304.9,273.2,303.7,271.7z"/>
<path class="st0" d="M151.4,172.8l2.9-2.9l3.6-2.8c2-1.1,5.9-3.4,7.8-4.7c1.8-1.3,5.6-3.6,7.6-4.6c2.1-0.8,6.1-2.7,8.1-3.8
	c-0.6,1.8-1.6,3.7-3,5.1c2-1,4.7-2.4,6.7-3.2c4-1.3,8.6-2,12.8-1.7c-1.1,1.4-2.7,2.4-3.9,3.7l5.6-1.2c2.8-0.3,8.3-0.5,11.1-0.4
	c0,0,5.4,0.8,5.4,0.8l5.4,1.5l5.4,1.8c0,0,4.9,2.3,4.9,2.3l4.3,3.2c0,0-4.3-0.7-4.3-0.7l-4.4,0c-3.8,0-8.9,0.2-12.7,0.8
	c-3.9,0.1-9.2,0.4-13,1.5c1.9,0.1,3.8,0.7,5.4,1.7c-2.1,0.4-4.7,1-6.8,1.6c-0.8,0.3-2.3,1-3,1.4c-0.8,0.3-2.3,0.9-3.1,1.2
	c0.7,0,1.6,0.1,2.3,0.2c0.6,0.1,1.2,0.4,1.6,0.9l-5.3,2.2c-2.9,0.8-8.9,1.8-11.9,2.1c0,0-6.3,0.2-6.3,0.2l-6.5-0.3l-6.2-1.1
	c0,0-5.9-1.8-5.9-1.8L151.4,172.8z"/>
<path class="st0" d="M320.6,242.1c-0.1-1.5-0.1-3.7,0.5-5.1c0.7-1.5,2.4-4.4,3.4-5.8c2.6-3.3,6.1-6.9,9.8-8.9
	c-0.4,0.5-0.7,1.5-0.9,2.1c-0.5,1.3-1,2.8-1.5,4.1c1.6-1.8,3.6-3.9,5.5-5.4c1.9-1.5,4.3-2.9,6.2-4.3c-0.1,0.8-0.2,1.7-0.4,2.5
	c-0.3,0.7-0.7,1.6-1.1,2.2c2.5-2,5.5-4.5,8.1-6.3c2.8-1.7,6.3-3.5,9.2-4.9c-1.3,3.2-3.5,6.7-5.8,9.3c-2.2,2.7-5.1,5.6-8.2,7.3
	c1.1-0.4,2.5-0.3,3.5,0.3c-2,2.2-4.4,4.5-7,5.9c-1.5,0.8-3.6,1.5-5.2,2c1.7,0.3,3.5,0.4,5.2,0.1c-2.7,2.6-7.3,3.9-10.8,4.8
	C327.6,242.8,324.3,242.6,320.6,242.1z"/>
<path class="st0" d="M258.6,231.2c-3.5,0.9-7.5,1-10.9-0.1c0.9-0.3,1.8-0.6,2.7-0.9c-2-0.1-4.1-0.5-5.9-1.4c0.6-0.3,1.2-0.5,1.9-0.6
	c-2.6-0.6-5.3-1.6-7.6-3.2c2.8-0.5,5.8-0.2,8.5,0.7c-0.4-0.2-0.7-0.7-0.8-1.2c2,0,4.1,0.6,5.6,1.9c-0.3-0.6-0.7-1.3-1.2-1.7
	c1.6,0.2,3,1.6,4.1,2.6C256.1,228.6,257.6,229.9,258.6,231.2z"/>
<path class="st0" d="M247.7,191.9c-2.6,1.1-5.7,2.3-8.3,3.4c-2.7,1-6.1,1.6-9,1.8c0.6-0.7,1.4-1.4,2.2-1.9c-3.2,0.4-6.5,1-9.7,0.5
	c0.7-0.6,1.4-1.1,2.1-1.7c-3.3,0.4-7.2,0.8-10.5,0.7c-1.3-0.1-3.9-0.4-5.2-0.6c-1.3-0.3-4-1.1-5.3-1.4c1.9-0.4,4.6-0.7,6.5-1.1
	c3.5-1.1,7.4-2.2,11-2.6c-1-0.1-1.9-0.5-2.6-1.2c1.1-0.1,2.4-0.3,3.5-0.4c1.1-0.2,2.4-0.6,3.6-0.8c-0.8-0.1-1.7-0.2-2.2-0.9l3.2-0.6
	l3.2-0.1l3.2,0.4c5.2,0.9,10.5,3.3,14.6,6.6L247.7,191.9z"/>
<path class="st0" d="M342.1,196.1c-5.5,0.8-11.6-0.3-16.7-2.3c-3-1.2-6.8-3.3-9.7-4.7c1-0.2,2.3-0.2,3.3-0.2c1.5,0,3.2,0,4.7,0
	c-4.9-1.8-9.7-4.7-13.1-8.8c1.7,0,3.4,0.2,5.1,0.6c-2.8-1.7-5.7-4.6-7.7-7.2c-0.8-1-2.2-3.2-2.8-4.2c-0.6-1.2-1.5-3.6-1.9-4.8
	c3,1.2,6.3,2.9,8.9,4.8c2.6,1.9,5.6,4.5,8,6.7c-0.7-1-0.9-2.3-0.6-3.5c2,1,4.4,2.4,6.3,3.6c1.8,1.3,3.6,3.4,4.9,5.2
	c-0.3-1.7-0.7-3.4-1.5-4.9c3.4,1.5,6,5.6,8,8.7C339.2,188.3,341.5,192.4,342.1,196.1z"/>
<path class="st0" d="M126.9,143.7c1.2-1.5,2.8-3,4.4-4.1c0.9-0.6,2.1-1.3,3.1-1.5c-0.5,0.6-1,1.2-1.4,1.9c1.4-1.1,3.3-1.6,5-1.9
	c-0.3,0.5-0.8,0.9-1.2,1.2c2.2-0.9,4.6-1.2,6.9-1.1c-1.9,1.5-4.2,2.4-6.4,3.1c0.4,0,0.8,0.1,1.1,0.4c-1.4,0.9-3.1,1.3-4.7,1.4
	c0.5,0.2,1.1,0.3,1.7,0.4c-1.2,0.7-2.8,0.7-4.1,0.7C129.8,144.1,128.2,144,126.9,143.7z"/>
<path class="st0" d="M371,208.6c5.9,1.5,11.8,3.7,17,6.7c-1,0.2-2,0.3-3,0.1c2.9,1.4,5.6,3.5,7.7,6c-0.9-0.1-1.7-0.1-2.6-0.2
	c2.7,1.9,5.8,4.3,8,6.7c2.1,2.5,4.5,5.6,6.3,8.2c-1.8-0.8-4.1-2.1-5.8-3.1c-3.2-1.6-6.7-3.6-9.6-5.8c0.6,0.8,1,1.7,1.1,2.7
	c-0.9-0.7-1.9-1.5-2.8-2.1c-0.9-0.6-2.1-1.2-3.1-1.7c0.5,0.6,1.1,1.3,0.9,2.1c-1.4-0.7-3.9-2.5-5.1-3.6c-1.1-1.1-3.1-3.5-4-4.7
	c-1-1.2-2.8-3.9-3.6-5.3c-0.6-1.5-1.5-4.6-1.8-6.2L371,208.6z"/>
<path class="st0" d="M339.1,177.5c2.4,1.3,5.6,3.1,7.7,4.8c1,0.9,3,2.8,4,3.8c1.4,1.8,3.3,4.3,4.5,6.3c0.7,1.8,1.8,4.3,2.2,6.2
	c0.4,2.6,0.9,5.4,1,8c-2,2.2-4.7,4.4-7.1,6.1c-3,2.2-7.2,4.1-10.8,5c-2.8,0.8-6.1,1.6-8.9,2.3c0,0-2.1,1-2.1,1
	c-0.9,0.6-2.7,1.9-3.6,2.5c1.1-1.2,2.5-2.8,3.8-3.8c1.4-0.8,3.3-2,4.7-2.6c3.6-1.7,7.4-3.4,10.9-5.3c1.3-0.8,2.8-2.2,4-3.1
	c-1.6-0.2-3.2-0.5-4.8-0.5c-0.9,0.1-1.9,0.3-2.8,0.2l0-0.1c0.8-0.5,1.8-1,2.6-1.4c2.4-0.8,5-1,7.4-2c-0.4-1.4-1.3-2.7-2-3.9
	c-0.8-1.5-1.6-3.2-2.4-4.7c1.8,1.1,3.8,2,5.8,2.9c-0.2-1.4-0.3-3.3-0.5-4.7c-0.5-1.4-1.5-3.1-2.2-4.4c-1.2-2.4-3.1-4.9-4.7-7
	C343.6,181.3,341.3,179.3,339.1,177.5z"/>
<path class="st0" d="M29.4,233.8c1.5,0.6,4.4,1.5,5.9,1.8c1.5,0.2,4.5,0.8,6,1.1c2,0.1,4.8,0.4,6.7,1c-2.6,0.6-8.3,1.7-11,2.2
	c0,0-7.3,0.3-7.3,0.3c-3.2-0.6-9.8-2.1-12.8-3.1c-2.4-0.8-6.4-3-8.4-4.3c2.1-6.5,3.5-14,5.6-20.5c1.5-4.1,5-12.2,6.9-16.2
	c0,0,3.3-6.2,3.3-6.2s1.4-4,1.4-4c1.2,6.2-0.3,12.7-1.6,18.8c0.9-0.7,2-1.3,3-1.8c-0.9,6.1-4.2,11.8-6.9,17.3c1.2-0.6,2.6-1.2,4-1.6
	c0.8-0.5,1.7-1.1,2.7-1c-0.3,1.7-1.4,3.5-2.6,4.7c-1.6,1.8-3.5,3.9-5.4,5.4c0.1,0.2,1.5,0,1.7,0c0,0,1.5,0,1.5,0l1.6,0.4
	c2.5,1,5.3,2,7.7,3.3c-0.8,0-1.7-0.1-2.5,0.1c-0.6,0.2-1.3,0.5-2,0.7L29.4,233.8z"/>
<path class="st0" d="M223.2,201.1c3.4-1.2,7.2-1.6,10.8-0.9c-0.8,0.4-1.7,0.8-2.6,1.2c2-0.1,4.1,0,6.1,0.5c-0.6,0.4-1.2,0.7-1.9,0.9
	c0.9,0,2.2,0.1,3.1,0.4c1.6,0.5,3.2,1.4,4.6,2.3c-2.7,0.6-5.6,0.2-8.4-0.2c0.4,0.2,0.8,0.6,0.9,1c-1.9,0.2-4-0.2-5.7-1.2
	c0.4,0.6,0.8,1.1,1.4,1.5c-1.6,0-3.2-1.3-4.5-2.2C225.9,203.5,224.3,202.3,223.2,201.1z"/>
<path class="st0" d="M362.2,263.1c6.4-3.8,14-6.9,20.9-9.5c3.8-1.4,9.2-2.8,13-4c-1,1.7-2.4,3.3-4,4.5c6-2,12.7-2.7,19-2.2
	c-1.4,1-2.4,2.5-3.7,3.6c4.5-0.8,10.6-1.4,15-2.5c4.3-1,10-2.8,14-4.7c0,0,4.5-2.6,4.5-2.6l4.2-3.2c0,0-2.1,4.4-2.1,4.4l-2.6,4.1
	l-3.2,3.7l-3.8,3.2l-4.3,2.8c-3.8,2-9.2,4-13.5,4.8c2,0.1,4,0.8,5.6,2c-2.9,0.7-6.2,1.3-9.1,1.9c-1.6,0.4-3.9,0.9-5.6,1.3
	c1.6,0.2,3.6,0.3,4.7,1.7l-6.5,1.3c0,0-6.6,0.7-6.6,0.7s-6.5-0.1-6.5-0.1l-6.5-0.8l-6.4-1.7c-3.1-1.1-9.1-3.6-12-5.2
	c0,0-5.5-3.7-5.5-3.7L362.2,263.1z"/>
<path class="st0" d="M278.7,273c-2.9-2.9-5.9-7-8.1-10.5c-1.8-3.7-3.7-8.2-4.4-12.3c1.6,1.3,3.3,2.8,4.9,4.2
	c-0.9-1.5-1.9-3.7-2.6-5.3c-0.9-1.4-2-3.5-2.8-5c-0.5-0.8-1.5-2.5-1.9-3.4c0.8,0.4,1.8,0.5,2.6,0.8c0.7,0.4,1.5,1,2.1,1.5
	c-0.6-1.2-2.1-3.3-3-4.3c-0.7-1.1-2-3.5-2.6-4.6c-0.6-1.2-1.6-3.8-2-5.1c-0.6-1.1-1.8-3.2-2.3-4.2c1.4,0.5,4,1.8,5.3,2.5
	c1.1,1,3.1,3,4,4c1.1,1,3.1,3.3,4.1,4.4c0,0,1.6,2.4,1.6,2.4l1.2,2.6c-0.2-1.2,0.1-2.5,0.9-3.4c2.2,2.4,3.8,5.8,4.6,8.9
	c0.4,1.8,0.5,4.3,0.5,6.2c0.9-1.7,1.4-3.6,1.6-5.4l0.9,2.2c0.3,1.7,0.5,5.1,0.4,6.8c-0.3,2.1-1.2,6.2-1.8,8.3
	C281.3,267.1,280.2,270.8,278.7,273z"/>
<path class="st0" d="M179.2,216c3.4,1,6.7,3,8.9,5.8c-0.9-0.2-1.9-0.5-2.8-0.7c1.6,1.2,3.1,2.7,4.2,4.4c-0.7,0-1.3-0.2-1.9-0.5
	c1.9,1.9,3.7,4.1,4.8,6.6c-2.7-0.9-5.2-2.6-6.9-4.9c0.2,0.4,0.2,1,0,1.4c-1.7-1.1-3-2.8-3.6-4.7c-0.1,0.7-0.1,1.4,0.1,2.1
	c-1.2-1-1.6-3-2-4.5C179.7,219.5,179.2,217.6,179.2,216z"/>
<path class="st0" d="M254.6,235.1c2.3,1.7,4.7,4,6.2,6.5c1.4,2.5,3.4,5.3,4.8,7.8c-0.9-0.3-1.8-0.8-2.5-1.4c0.8,1.3,1.5,3,1.8,4.5
	c0.3,1.6,0.2,3.5,0.5,5c-0.6-0.5-1.3-1-1.9-1.6c0.8,2.1,1.9,5.1,2.4,7.3c0.8,2.1,1.9,5.1,2.6,7.2c0.5,1.2,1.5,3.6,1.9,4.8
	c-3.5-2.9-6.8-6.6-9.1-10.5c-0.5-1-1.4-3.2-1.8-4.3c0.1,1-0.1,2-0.5,2.9c-0.9-2.2-1.7-4.6-2.4-6.9c0,0.8,0,1.8-0.6,2.4
	c-2.3-7.7-4.1-16.4-1.4-24.2L254.6,235.1z"/>
<path class="st0" d="M67.8,252.1c2.4-3.4,6-6.7,9.3-9.2c2.3-1.9,5.8-4.2,8.6-5.4c0,0,3.2-0.4,3.2-0.4l-0.6-0.2
	c-1,1.7-2.1,3.5-3.2,5.2c2-1.5,4.5-3,6.6-4.2c2.2-1.1,4.7-2.4,6.7-3.8c-0.1,0.9-0.3,1.8-0.6,2.6c-0.3,0.7-0.9,1.5-1.4,2.2
	c2.8-1.7,5.8-4.3,8.6-6.1c1.1-0.8,3.5-2.2,4.7-2.9c1-0.7,3.2-2.1,4.2-2.8c-0.4,1.4-1.5,4.2-2.2,5.6c-0.7,1.3-2.4,3.8-3.2,5
	c-0.9,1.1-3,3.3-4.1,4.2c0,0-2.3,1.7-2.3,1.7l-2.7,1.3c1.2-0.3,2.6-0.1,3.6,0.7c-4,3.5-9.1,6.2-14.6,6.3c1.7,0.8,3.7,1.1,5.6,1.2
	c0,0-2,1.1-2,1.1l-3.1,0.6l-3.8,0.2C79.4,255.1,73.2,254,67.8,252.1z"/>
<path class="st0" d="M233.8,155.8c-3.2,1.2-6.9,1.2-10.2,0.6c0.8-0.4,1.7-0.7,2.5-1.1c-2,0.1-4-0.1-5.9-0.6c0.5-0.4,1.1-0.7,1.7-0.9
	c-0.9,0-2.1-0.2-3-0.3c-1.6-0.1-3.3-0.4-4.8-0.9c1.6-0.7,3.4-1.3,5.2-1.6c0.9-0.1,2.2,0.1,3.1,0.3c-0.4-0.2-0.8-0.6-0.9-1
	c2-0.2,4.1,0.3,5.7,1.3c-0.4-0.6-0.9-1.1-1.4-1.5c1,0,2.3,0.7,3.1,1.2C230.6,152.6,232.5,154,233.8,155.8z"/>
<path class="st0" d="M269.3,184.3c-6.2-0.8-12.4-2.8-18-5.4c1-0.3,2.1-0.4,3.1-0.3c-3.1-1.2-5.8-3.4-7.9-6c0.8,0.1,1.7,0.2,2.5,0.2
	c-1.9-1.4-4.4-3.5-6.2-5.1c-2.9-3.1-5.7-6.9-7.7-10.7c5,3,10,6.4,14.7,9.7c-0.6-0.8-1-1.7-1.1-2.7c1.8,1.4,3.8,2.8,5.7,4
	c-0.5-0.6-1-1.4-0.8-2.2c6.8,4.6,13.4,10.7,15.8,18.8L269.3,184.3z"/>
<path class="st0" d="M449,299.2c-6,5.2-12.3,10.5-18.7,15.1c-1.7,1.2-3.9,2.9-5.6,4.1c-2.5,1.3-5.2,3-7.8,4
	c-3.7-1.6-7.5-4.2-10.7-6.6c-0.9-1-2.8-3-3.7-4c-4.4-6-7.8-13.1-10.1-20.1c2.9,4.7,6.1,9.5,9.8,13.7c1.4,1.8,3.3,3.8,4.9,5.5
	c1.2,1,3.1,2.1,4.5,2.9c-0.3-1.7-0.5-3.4-1.1-5c-0.4-0.9-1-1.9-1.2-2.9l0.1,0c0.8,0.6,1.6,1.5,2.4,2.1c1.7,2.1,2.9,4.7,4.7,6.7
	c1.3-0.9,2.3-2.3,3.4-3.5c1.3-1.5,2.6-3,3.8-4.4c-0.3,2.4-0.7,4.8-1,7.3c3.8-1.9,7.8-3.9,11.5-5.8
	C439.1,305.1,444.2,302.2,449,299.2z"/>
<path class="st0" d="M332,250.9c1-1.5,3.3-4.5,4.4-5.9c1.3-1.1,3.9-3.3,5.2-4.4c1.5-1.4,3.7-3.3,5.5-4.3c-2.6,4.5-6.1,10.8-8.2,15.6
	c0,0-2,6.4-2,6.4c-0.8,4.7-1.5,11.1-2.9,15.6c-1.3-0.5-5.8-1-7.3-1.1c-4.4-0.9-12.8-3.6-17.1-5.2c0,0-8.5-5.5-8.5-5.5l-6.9-6.4
	l-4.3-6.3l-1.9-3.8c2.4,1,4.6,3.1,6.8,4.4c2.5,2,6.1,3.6,8.8,5.3c-0.3-1.1-0.6-2.2-0.8-3.3l0.2-0.3c2.7,1.3,5.3,3.7,7.5,5.8
	c2.5,1.7,5.5,3.7,8.1,5.2c-0.6-1.3-1.3-4.5-1.4-5.7c1.5,0.6,2.3,0.9,3.8,1.8c0.8,0.5,2.3,1.5,3,2.1c0.6,0.7,1.8,2.1,2.4,2.8
	c0-0.1,0-0.1,0.1-0.2c-0.2-2.2,0-4.8,0.3-6.9c0.3-2.2,1.2-4.7,2-6.8c0.5,1.4,1.1,2.9,1.6,4.3L332,250.9z"/>
<path class="st0" d="M62.6,205.1c3.3-0.3,6.7,0.5,9.6,1.8c-0.9,0.1-1.8,0.2-2.6,0.4c1.9,0.4,3.8,1.1,5.5,2.1
	c-0.6,0.2-1.2,0.3-1.9,0.3c2.4,0.9,4.9,1.8,7,3.2c-2.8,0.4-5.7,0.3-8.2-1.2c0.3,0.3,0.6,0.7,0.6,1.2c-1.9-0.3-3.7-1.3-5.1-2.6
	c0.2,0.6,0.5,1.2,0.9,1.7c-0.9-0.2-1.9-1.1-2.6-1.8C64.5,208.8,63.2,207,62.6,205.1z"/>
<path class="st0" d="M163.8,191.3c4-0.9,9.6-1.4,13.7-1.6c2.2-0.3,6.7-0.5,8.9-0.4c4,0.2,9.2,1.4,13.1,1.9c-1.6,1.1-3.4,2-5.3,2.5
	c6.3,0.9,12.9,2.7,18.5,5.8c-1.7,0.5-3.4,1.1-5.1,1.7c2.7,0.6,8,2,10.6,3c2.6,1.1,7.4,3.6,9.7,5.1c5.6,3.6,11.8,8.6,17.8,11.4
	c-5.9,0.3-12.7-1.1-18.3-2.6c-5.3-1.7-11.7-3.8-17.2-4.7c1.6,0.9,3.2,2.1,4.1,3.7c-4.5-1.1-9.4-1.2-13.9-2.2
	c1.3,0.8,2.9,1.7,3.1,3.3c0,0-6-1.1-6-1.1c-5.4-1.8-12.3-5-17.1-8.1c-6.4-4.6-12.7-11.5-17.2-17.9L163.8,191.3z"/>
<path class="st0" d="M93,181.6c3.2,2.2,6.4,5.4,8.7,8.5c2.5,3,5.3,6.9,6.7,10.6c-0.5-0.4-1.3-0.7-1.9-1c-1.2-0.6-2.6-1.3-3.8-1.8
	c3.2,3.7,6.3,7.8,9.1,11.8c-0.8-0.1-1.8-0.2-2.5-0.4c-0.8-0.3-1.6-0.7-2.3-1.1c2.1,2.4,4.5,5.3,6.4,7.8c0.8,1.1,2.3,3.2,3,4.4
	c0.8,0.9,2.4,2.7,3.3,3.5c-1.5-0.2-4.3-0.9-5.7-1.3c-1.3-0.7-3.7-2.2-4.9-3c-2.9-2.1-6-5-7.8-8.2c0.4,1.1,0.3,2.4-0.4,3.4
	c-3.9-3.4-6.8-8.3-7.5-13.4c-0.7,1.7-0.8,3.6-0.6,5.4l-1.3-1.8c0,0-0.9-2.9-0.9-2.9l-0.5-3.7c-0.1-2,0.1-6.1,0.4-8.2
	C91.2,187.6,92.2,184,93,181.6z"/>
<path class="st0" d="M342,273.1c-1.8-3-2.5-6.7-2.5-10.1c0.6,0.8,1.2,1.6,1.7,2.4c-0.5-2-0.8-4.1-0.6-6.1c0.5,0.4,0.9,1,1.2,1.6
	c-0.4-2.7,0.1-5.6,1.1-8.1c1.1,2.6,1.4,5.5,1.5,8.3c0.1-0.5,0.4-0.9,0.8-1.1c0.6,1.9,0.7,4.1-0.1,6c0.5-0.5,1-1,1.3-1.7
	c0.3,1.1-0.3,2.5-0.7,3.4C344.7,269.6,343.6,271.7,342,273.1z"/>
<path class="st0" d="M277.9,178c6.1-0.5,12.7,0.2,18.4,2.8c-0.9,0.4-1.9,0.6-2.8,0.6c1.4,0.5,3.2,1.2,4.5,2c1.3,0.8,2.7,2,4,2.9
	c-0.8,0.1-1.7,0.2-2.5,0.3c3.9,1.6,8,3.8,11.7,5.9c2,1.3,4.9,2.5,6.9,3.6c-6.1,0.2-12.6-0.7-18.2-3.4c0.8,0.6,1.4,1.5,1.7,2.4
	c-2.2-1-4.5-2-6.7-2.9c0.6,0.5,1.4,1.2,1.4,2c-7.9-3-14.2-9.5-18.6-16.5L277.9,178z"/>
<path class="st0" d="M50.9,288.5c0.1-1.6,0.9-4.2,1.4-5.5c0.7-1.3,1.5-2.6,2.5-3.8c0.9-1.2,2.9-3.5,4-4.6c1.2-0.8,3.6-2.5,4.8-3.3
	c-0.7,1.8-1.4,3.8-2.1,5.7c1.4-1.6,3.2-3.3,4.9-4.6c1.7-1.3,3.9-2.6,5.7-3.7c-0.2,1.5-0.7,2.9-1.5,4.2c2.2-1.8,5-3.8,7.5-5.4
	c2.7-1.5,6.1-2.5,9.1-3c-1.4,1.6-3.6,3.5-4.8,5.3c-2.3,3-5.4,6.1-8.8,8c1-0.3,2.2-0.2,3.1,0.4c-1.3,1.6-3.1,3.2-4.9,4.4
	c-1.7,1.1-4,2-6,2.4c1.5,0.4,3.1,0.6,4.7,0.4l-1.4,1.2c-1.3,0.6-4,1.4-5.4,1.7C59.5,289.1,55.3,289.4,50.9,288.5z"/>
<path class="st0" d="M6.8,249.7c-0.7-1.6-1-3.6-1.1-5.4c0-1,0.1-2.4,0.1-3.4c0.4,0.7,1,1.3,1.3,2.1c0-0.6-0.2-1.4-0.3-2
	c-0.1-1-0.1-2.2-0.1-3.2c0.4,0.4,0.7,0.9,1,1.4c-0.1-2.3-0.5-4.3-0.1-6.6c1.3,2.2,2.5,4.2,2.3,6.8c0.1-0.4,0.4-0.7,0.7-0.9
	c0.4,1.6,0.6,3.6-0.3,5c0.5-0.3,1-0.8,1.3-1.3c0.2,0.9-0.6,2-1,2.8C9.5,246.6,8.2,248.4,6.8,249.7z"/>
<path class="st0" d="M348.9,239.4c0.1-1.8,0.4-4.3,1.1-6c0.9-3.2,2.5-6.5,4.5-9.1c0.2,0.8,0.2,1.6,0.1,2.4c0.8-1.1,1.6-2.6,2.4-3.7
	c0.8-1.1,1.9-2.2,2.7-3.3c0,0.7,0.1,1.5,0.1,2.2c0.9-1.8,2.3-4.2,3.4-5.8c0.8-1.9,1.8-4.4,2.7-6.3c0.3-1.1,1.1-3.3,1.4-4.4
	c0.3,1.9,0.6,4.4,0.5,6.3c-0.1,1.1-0.3,3.3-0.5,4.4c-0.3,1.9-1.4,4.2-2.2,5.9c0.6-0.7,1.4-1.2,2.2-1.4c-0.9,2-2,4-3,5.9
	c0.5-0.5,1.2-1.1,1.9-1c-3.5,6.9-11,10.9-17.7,14.1L348.9,239.4z"/>
<path class="st0" d="M73.4,368.9c-0.3-1.1-0.9-3.4-1.2-4.5c0,0-1.2-2.2-1.2-2.2c-0.9-0.7-2.5-2.2-3.2-3c-1.5-0.8-3.6-1.9-5.2-2.5
	c-1.4-0.2-3.4-0.5-4.8-0.8c-2-1-4.6-1.8-6.3-3.4c-0.1-1-0.3-3-0.3-4c0.2-1.1,0.5-3.2,0.7-4.3c0.3-1.9,1.4-4.2,2.1-6
	c0.5-0.8,1.6-2.5,2.2-3.3c1.3-2.1,3.3-4.1,5-5.8c1.1-1.5,3.1-2.9,4.5-4c-0.9,1-2.3,2.3-3,3.4c-1,2.2-2.3,4.3-3.3,6.4
	c-0.9,2.1-2.3,4.2-3.3,6.2c-0.4,1.2-0.5,2.9-0.7,4.1c0.5-0.4,1.1-0.8,1.7-1.1c0.5-0.2,1.1-0.5,1.5-0.9c0.5-0.6,1-1.4,1.6-1.8
	c-0.1,0.8-0.5,1.8-0.7,2.7c-1,1.7-2.7,3.1-3.2,5c0.5,0.2,1.1,0.4,1.6,0.5c0.7-0.1,1.5-0.2,2.2-0.3c1.5-0.2,3.1-0.4,4.7-0.6
	c-1.6,1.4-3.4,2.4-5.1,3.6c1.2,0.4,2.9,0.9,4.1,1.3c0.6,0.3,1.8,1,2.4,1.5c0.6,0.4,1.7,1.2,2.3,1.6c0,0,0.9,1.2,0.9,1.2
	c0.8,1.1,1.7,2.7,2.6,3.7c0.4,1.4,1,3.3,1.2,4.7C73.4,367,73.4,368.3,73.4,368.9z"/>
<path class="st0" d="M44.5,262.8c0.9,3.8,2.6,8.1,4.1,11.7c1,1.7,2.1,4.2,2.6,6.2c-1.9-1.8-5.9-5.9-7.7-7.9c-6-8-9.7-18.6-13.8-27.6
	c6.9-2,16.2-4.2,23.4-5.2c4.3-0.3,12.8-1.4,17-2.3c2.4-0.7,7.9-2.4,10.2-3.4c-1.3,2.3-3.5,4.6-5.6,6.1c-2.7,2-6.3,4-9.6,4.9
	c1,0.4,1.9,1,2.8,1.5l0.3,0l-2.3,1.1c-1.2,0.4-3.6,0.8-4.8,1c-3.9,0.4-8.3,0.1-12.2-0.1c1.2,0.9,2.3,2,3.3,3.1
	c0.7,0.6,1.4,1.4,1.5,2.3c-2.3,0.4-4.7-0.7-6.7-1.7c-1.4-0.7-3.4-1.5-4.9-2c-0.1,0.1,0.9,1.3,0.9,1.4c0.3,0.7,1.1,2,1.5,2.7
	c1.6,1.9,2.6,4.6,3.3,7c-1.2-0.7-2.6-1.3-3.9-1.9L44.5,262.8z"/>
<path class="st0" d="M395.7,240.3c-1.3,3.2-3.7,6.1-6.5,8.1c0.3-0.9,0.6-1.8,0.9-2.7c-1.3,1.6-2.9,2.9-4.7,3.9
	c0.1-0.6,0.4-1.3,0.7-1.8c-2.1,1.8-4.7,3.1-7.4,3.8c1.5-2.4,3.7-4.4,6-6c-0.4,0.2-1,0.1-1.4-0.1c1.2-1.6,3-2.9,4.9-3.3
	c-0.7-0.2-1.4-0.2-2.1-0.1c0.7-0.8,2.1-1.1,3-1.4C391.2,240.2,393.6,239.9,395.7,240.3z"/>
<path class="st0" d="M347.5,268.6c7.6,0.6,15.9,2.3,23.1,5c4.1,1.6,9.2,4.6,12.7,7.2c-1.9,0.3-4,0.3-5.9-0.2c2,1.2,4.5,3.1,6.2,4.7
	c2.8,3,5.7,6.7,7.3,10.5c-1.6-0.4-3.2-0.8-4.7-1.3l3.7,4.2l3.1,4.6c1.5,2.1,4.4,6.4,5.7,8.6c1.2,2.1,4.1,6.1,5.7,8
	c0,0,3.7,3.7,3.7,3.7l4.4,2.6l-4.9-0.1c-2.3-0.8-6.7-2.7-8.8-3.8c0,0-4.1-2.5-4.1-2.5l-3.6-2.9c-2.8-2.9-6.3-7.1-8.9-10.2
	c0.8,1.9,1.2,4,1.1,6.1c-1.8-2.2-3.9-4.7-5.8-6.9c-1.2-0.9-2.7-2.4-3.8-3.5c0.6,1.3,1.5,3,0.9,4.4l-4.4-4c-1.9-2.2-5.7-6.7-7.6-8.9
	c-3.7-4-8.3-9.9-10.9-14.7c0,0-2.8-5.5-2.8-5.5s-1.7-5.7-1.7-5.7L347.5,268.6z"/>
<path class="st0" d="M37.1,342.2c-1-0.8-2.8-2.7-3.6-3.7c-1.2-2.2-2.4-5.5-3-7.9c-0.5-2.4-1.3-5.7-1.9-8c0.7,0.1,1.1,0.8,1.6,1.2
	c0.9,0.9,1.8,1.9,2.7,2.7c-1.8-4.1-3.3-8.5-4.5-12.7l0.4,0.4c0.5,0.2,1.2,0.5,1.7,0.7c0.6,0.4,1.2,1.1,1.6,1.6
	c-0.4-1.1-1.3-3.2-1.8-4.2c-0.3-1.1-1-3.4-1.3-4.5c-0.5-3-0.7-6.6-0.7-9.7c1.8,2.5,3.8,5.7,5.4,8.3c1.7,2.7,3.6,6,4.1,9.1
	c0-1,0.4-2.1,1.3-2.8c1.2,2.5,2.6,5.4,3.1,8.1c0.1,1.5,0.1,3.7-0.3,5.2c1-1.2,1.7-2.8,2.1-4.3l0.6,1.9l-0.1,2.7l-0.7,3.3
	c-0.5,1.7-1.9,4.9-2.7,6.4C40,337.8,38.3,340.5,37.1,342.2z"/>
<path class="st0" d="M250.6,266c-2.2-2.5-4.2-5.6-4.4-9c0.5,0.7,1.3,1.3,1.9,2c-0.8-1.8-1.1-3.8-1-5.8c0.5,0.4,0.9,1,1.2,1.6
	c-0.1-0.9-0.3-2.1-0.2-3c0.2-1.6,0.8-3.4,1.4-4.9c0.6,1.5,0.9,3.2,1,4.8c0.1,0.9,0.3,2.1,0.4,3c0.1-0.4,0.4-0.8,0.8-1.1
	c0.8,1.7,0.9,3.6,0.5,5.4c0.4-0.5,0.7-1.1,1-1.7c0.5,1.4-0.1,3.3-0.4,4.7C252.1,263.4,251.5,265,250.6,266z"/>
<path class="st0" d="M314.8,165.7c3.5-1.3,7.5-2.3,11.2-2.7c2-0.3,4.8-0.7,6.8-0.9c-0.7,0.7-1.5,1.3-2.4,1.7c1.9-0.2,4.1-0.2,6.1,0
	c1.1,0.1,2.5,0.5,3.6,0.6c-0.7,0.5-1.4,1-2.2,1.4c5.2-0.4,10.8-0.2,15.9,0.8c1.2,0.6,3.6,1.9,4.8,2.6c-2,0-4.6-0.3-6.6,0
	c-3.5,1-7.5,1.8-11.2,1.9c1,0.2,1.9,0.7,2.6,1.4c-2.4,0.1-4.9,0.3-7.3,0.4c0.8,0.2,1.7,0.4,2.1,1.2c-1.6,0.1-4.8,0.1-6.4-0.2
	c-1.6-0.3-4.7-1.2-6.2-1.8c-1.6-0.5-4.6-1.8-6-2.6c-1.4-0.9-3.9-3-5.1-4.1L314.8,165.7z"/>
<path class="st0" d="M269.1,301.7c1.5-6,5.5-10.9,10.2-14.7c1.3-0.8,3.9-2.5,5-3.5c0,0.9-0.4,1.6-0.8,2.4c-0.5,1.2-1.2,2.5-1.7,3.7
	c3.4-3.3,7.3-6.5,11.4-8.9c-0.1,1.6-0.8,3.2-1.6,4.6c4.8-4.2,10.6-7.7,17-8.6c-0.7,1-2.2,2.9-3,3.8c-0.7,1-2.1,3.1-2.9,4
	c-2.1,2.3-5.1,4.7-7.9,6.2c1.1-0.3,2.4-0.2,3.3,0.5c-3.2,3.4-7.5,6.3-12.2,7.2c1.6,0.5,3.3,0.6,5,0.4l-1.6,1.3
	c-1.5,0.7-4.2,1.5-5.8,1.8c-1.8,0.4-5.4,0.8-7.2,0.9C274.3,302.6,271.3,302.1,269.1,301.7z"/>
<path class="st0" d="M291.5,242c3.3-1.3,7.1-1.8,10.6-1.1c-0.9,0.4-1.7,0.9-2.6,1.2c2-0.1,4.1,0,6.1,0.6c-0.6,0.4-1.2,0.7-1.9,0.8
	c0.9,0.1,2.2,0.2,3.1,0.5c1.6,0.6,3.2,1.6,4.6,2.6c-2.7,0.4-5.6-0.2-8.3-0.6c0.4,0.2,0.7,0.6,0.8,1.1c-1.9,0.3-4-0.1-5.6-1.2
	c0.3,0.6,0.8,1.2,1.4,1.6c-1.6,0-3.2-1.4-4.5-2.2C294,244.3,292.5,243.2,291.5,242z"/>
<path class="st0" d="M204.6,221c5.9-1.9,12.5-2.2,18.6-0.8c-0.8,0.5-1.7,0.9-2.7,1.1c3.2,0.5,6.5,1.4,9.2,3
	c-0.8,0.2-1.6,0.4-2.4,0.7c2.2,0.7,5.2,1.8,7.4,2.7c3.7,1.9,7.7,4.3,11,6.9c-5.8-0.6-11.6-2.2-17.2-3.6c0.8,0.5,1.5,1.3,1.9,2.1
	c-2.2-0.7-4.5-1.2-6.7-1.6c0.7,0.4,1.4,0.9,1.5,1.7c-1.5-0.3-4.4-1.1-5.9-1.7c-1.4-0.7-4-2.1-5.3-2.9c-3.3-2-7-4.8-9.7-7.5
	L204.6,221z"/>
<path class="st0" d="M283.9,241.8c1.7,4.2,3.9,8.8,5.3,13.1c0.4,1.2,1.3,3.6,1.7,4.8c0.5,1.9,1.1,4.5,1.5,6.4c0.6,3,0.6,6.5,0.7,9.5
	c-2.5,2.5-5.8,4.6-8.8,6.4c-1.2,0.4-3.5,1-4.7,1.4c-1.2,0.3-3.3,0.4-4.5,0.3c-1.2,0-3.3-0.1-4.4-0.4c-1.1-0.5-3.3-1.5-4.3-2.1
	c-1.6-1.3-2.9-3.2-4.3-4.8c1.2,1,2.3,2.1,3.6,2.8c1.3,0.7,3.1,1.6,4.5,1.9c2,0,4.3-0.1,6.3-0.4c1.3-0.4,3-0.9,4.3-1.3
	c1.3-0.5,2.7-1.8,3.7-2.6c-1.1-0.3-2.3-0.6-3.5-0.7c-1.1-0.1-2.4,0.3-3.5,0.1l0-0.1c0.8-0.4,1.7-0.9,2.5-1.3c1.3-0.4,2.8-0.7,4.1-1
	c0.9-0.1,1.8-0.4,2.7-0.6c-0.3-1.4-1-2.7-1.6-3.9c-0.6-1.5-1.3-3.1-1.9-4.7c1.7,1.2,3.4,2.2,5.1,3.3c0-5.4-1-10.9-1.9-16.3
	C285.8,248.4,284.6,245,283.9,241.8z"/>
<path class="st0" d="M118.8,249.1c-2,3.8-4.8,8.2-7.4,11.6c-1.2,1.7-3,4-4.6,5.4c2.5-7.3,4.8-16.4,6.4-24c1.2-4.8,2.6-11.4,2.6-16.4
	c10.4,1.9,22.8,4.3,32.8,8c0,0,8.3,3.5,8.3,3.5c2.3,1.3,7.8,4.4,10,5.8c-1.8,0.3-4.3,0.2-6.1-0.1c-4.1-0.2-8.7-1.2-12.8-1.8
	c0.7,1,1.5,2,2,3.1c-2.9-0.6-6.8-1.3-9.6-2.2c-2.8-1.3-6-3.1-8.8-4.3c0.7,1.3,1.3,2.8,1.7,4.2c0.4,0.9,0.6,2,0.3,2.9
	c-1.6-0.4-3.1-1.7-4.2-2.8c-1.8-1.6-3.6-3.6-5.1-5.4c0,0.1,0,0.1-0.1,0.2c0.3,2.1-0.1,4.7-0.1,6.9c-0.2,2.2-1.1,4.6-1.9,6.6
	c-0.4-1.4-1.1-2.8-1.7-4.2L118.8,249.1z"/>
<path class="st0" d="M301.4,277.7c-2.7-2-4.7-4.9-6-8c0.8,0.5,1.6,0.9,2.3,1.5c-0.5-0.8-1.2-1.7-1.6-2.5c-0.4-0.8-0.8-1.9-1-2.7
	c0.6,0.2,1.1,0.6,1.5,1c-0.4-0.8-0.8-1.9-1.2-2.7c-0.7-1.4-1.4-3.1-1.7-4.7c1.4,1,2.8,2.4,3.9,3.8c0.5,0.8,1,1.9,1.4,2.8
	c-0.1-0.4,0.1-0.9,0.4-1.3c1.2,1.4,2.2,3.4,2.1,5.3c0.3-0.6,0.6-1.3,0.6-2c0.6,0.8,0.5,2.3,0.5,3.3
	C302.5,273.5,302.2,275.9,301.4,277.7z"/>
<path class="st0" d="M174.3,245c-5-3-10.1-7.6-14.4-11.3c-4.2-4-8.4-9.6-11.3-14.6c1.9,0.4,3.8,1.3,5.4,2.4
	c-4-5.4-6.8-12.1-7.1-18.9c1.4,1,2.8,2,4.1,3l-1.9-5.2c0,0-1.2-5.4-1.2-5.4c-0.6-2.6-1.6-7.7-2-10.3c-0.5-4.6-1.8-10.6-3.5-14.9
	c0,0-2.8-4.5-2.8-4.5l4.3,2.4c1.7,1.7,4.9,5.3,6.3,7.3c1.3,1.9,3.7,5.9,4.6,8c1.5,3.7,3.2,9,4.5,12.8c-0.1-2.1,0.4-4.2,1.3-6
	c0.7,2.2,1.2,4.9,2,7.1c0.4,0.8,1.2,2.2,1.8,2.9c0.4,0.8,1.2,2.3,1.6,3.1c-0.1-0.8-0.1-1.7-0.1-2.5c0-0.6,0.2-1.3,0.6-1.7l3,5.1
	c2,5.1,4.4,12.2,5.5,17.5c0.9,5.5,1.4,13,0.9,18.5c0,0-1.5,5.8-1.5,5.8L174.3,245z"/>
<path class="st0" d="M32.5,364.4c-0.9-5.8-0.7-12.2,1.2-17.8c0,0,1.2-2.7,1.2-2.7l1.6-1.7c0.2,1.7,0.4,3.6,0.6,5.3
	c0.4-1.4,1.1-3.3,1.8-4.7c1.4-2.4,3.3-5,4.7-7.4c0.1,0.7,0.4,1.5,0.5,2.2c0,0.7-0.1,1.5-0.3,2.2c1.1-1.8,2.2-4.3,3.2-6.2
	c1.9-3.1,4.7-6,7.8-7.9c-0.3,2.8-1.1,6.1-2.1,8.7c-0.9,2.9-2.4,6.2-4.4,8.5c0.8-0.7,2-1.1,3.1-1c-0.4,0.8-1.1,2.3-1.6,3.1
	c-0.2,0.8-0.9,2.2-1.2,2.9c-0.9,1.8-2.5,3.6-3.9,4.9c1.4-0.3,2.9-1,4.1-1.8l-0.6,1.7c-0.8,1.2-2.6,3.1-3.7,4.1
	C40.8,359.5,36.3,362.1,32.5,364.4z"/>
<path class="st0" d="M81.9,232c2.7-2.2,6.2-3.5,9.6-4c-0.7,0.7-1.4,1.3-2.1,1.9c1.9-0.7,3.9-1.3,5.9-1.4c-0.4,0.5-0.8,1-1.4,1.4
	c2.5-0.7,5.3-1.1,8-0.8c-2.2,1.7-5,3-7.8,3.3c0.5,0,0.9,0.3,1.2,0.7c-1.8,0.8-4,1.2-5.9,0.7c0.5,0.4,1.1,0.8,1.8,1
	c-0.9,0.4-2.3,0.1-3.3-0.1C85.8,233.9,83.6,233.1,81.9,232z"/>
<path class="st0" d="M222,269.8c1.5-5.7,4.7-11.1,8.2-15.8c0.1,0.9,0.1,1.9-0.2,2.8c1.8-2.6,3.9-5.2,6.4-7.1
	c-0.1,0.8-0.2,1.7-0.3,2.5c1.5-1.7,3.6-4,5.1-5.7c2.6-3.2,5.6-6.7,8.5-9.6c-1.5,5.8-4,11.7-7.8,16.5c0.7-0.6,1.7-1,2.7-1.1
	c-1.4,1.9-2.8,3.9-4.1,5.7c0.6-0.4,1.4-0.9,2.2-0.7c-0.9,1.3-2.9,3.6-4.1,4.6c-1.3,1-3.9,2.9-5.3,3.8c-1.3,0.9-4,2.4-5.4,3
	c-1.5,0.5-4.7,1.1-6.3,1.2L222,269.8z"/>
<path class="st0" d="M353,180.5c7.2-0.3,15.1,1.2,21.3,5.1c0,0,2.7,2.2,2.7,2.2l3.1,1.8l-1.2,0.3c-0.5,0-1.4-0.1-1.8-0.2
	c-1.5-0.1-3.1-0.3-4.6-0.5c4.9,2.4,9.7,5.4,13.5,9.3c-1.7,0.2-3.7,0-5.4-0.3c1.2,0.7,3.4,2.3,4.4,3.2c2,1.5,4.4,3.8,5.9,5.8
	c0,0,1.6,2.3,1.6,2.3c0.6,1.3,1.5,4,1.8,5.4c-1.1-0.7-3.3-2.2-4.4-2.9c-1.2-0.5-3.7-1.7-4.8-2.3c-3.1-1.6-6.5-4-9.1-6.3
	c0.7,1,1,2.4,0.7,3.6c-4.7-1.9-8.9-5.5-11.5-9.9c0,1.8,0.5,3.6,1.3,5.2l-1.9-1c-2.2-2.3-4.2-6.2-5.7-9
	C357,188.5,354.7,184.1,353,180.5z"/>
<path class="st0" d="M308.7,237.3c3.3,0.2,7,1,9.6,3.1c-0.9-0.1-1.8-0.1-2.7-0.1c1.9,0.7,3.6,2,5,3.4c-0.6,0-1.3-0.1-1.9-0.3
	c2.1,1.6,4.3,3.3,5.8,5.4c-1.6-0.3-3.4-0.9-4.8-1.6c-0.8-0.5-1.8-1.2-2.6-1.8c0.3,0.4,0.4,0.9,0.3,1.3c-1.8-0.6-3.3-2-4.4-3.5
	c0.1,0.7,0.3,1.3,0.6,1.9c-1.4-0.7-2.3-2.4-3.1-3.6C309.8,240.2,309,238.7,308.7,237.3z"/>
<path class="st0" d="M171.5,290.5c-3.7,0.1-8-0.1-11.7-0.5c-2-0.4-4.7-1.2-6.7-1.9c0.9-0.4,1.9-0.6,2.8-0.7
	c-1.5-0.5-3.2-1.1-4.5-1.9c-1.3-0.9-2.7-2.1-4-3.1c0.8,0,1.7-0.1,2.5-0.1c-3-1.4-6.4-3.3-9.1-5.2c-1-0.8-3.1-2.4-4.1-3.2
	c-1.1-0.6-3.4-1.9-4.5-2.5c3,0.1,6.2,0.5,9,1.4c2.8,0.8,5.9,2.1,8.4,3.5c-0.7-0.7-1.3-1.6-1.6-2.5c1,0.6,2.2,1.2,3.2,1.8
	c1,0.4,2.2,0.9,3.2,1.3c-0.6-0.5-1.3-1.1-1.3-1.9c7.6,3,14.3,8.8,18.6,15.8L171.5,290.5z"/>
<path class="st0" d="M461.6,287.5c-2.3,1.2-5.5,2.8-8,3.7c-3.6,1.4-7.8,2.9-10.9,5.2c-1.6,1.7-3.5,3.7-5.2,5.3
	c-1.3,1.2-2.9,2.5-3.9,4c-3.4,0.3-7.2,0-10.7-0.2c-1.1-0.1-3.3-0.4-4.4-0.6c-2-0.4-4.7-1.2-6.7-1.8c-2.7-0.8-5.8-2.4-8.3-3.9
	c-0.9-0.8-2.7-2.4-3.6-3.2c1.4,0.8,3.2,2,4.6,2.6c1.5,0.4,3.5,1,5,1.4c1.5,0.2,3.4,0.4,4.9,0.5c2.1,0.3,4.6,0.5,6.7,0.6
	c1.5,0,3.5-0.2,5-0.4c-0.9-0.9-1.7-1.8-2.7-2.5c-0.8-0.7-2-1.2-2.7-2l0.1,0c1.8,0.3,3.6,0.7,5.3,1.2c1.5,0.4,2.9,1,4.3,1.6
	c1.4-3.1,3.2-5.9,4.9-8.9c0.2,2.2,0.3,4.4,0.5,6.7c1.2-1,3-2.3,4.3-3.2c2.5-1.3,5.4-2.6,8.2-3.1c2.7-0.6,5.7-1.2,8.4-1.6
	C458.2,288.7,460.2,288,461.6,287.5z"/>
<path class="st0" d="M278.4,149.7c2.3-2.2,5.7-5.2,8.3-7.1c2.7-2.2,6.2-4.5,9.6-5.5l-3.1,3.9l-3.5,5.7c-5.8,9.1-11.4,19.8-16.4,29.3
	c-6.4-4.9-15.1-11.2-21.8-15.9c-8.6-5.1-19.4-11.2-28.7-14.9c2-0.5,4.8-0.7,6.8-0.6c4.9-0.1,10.3,0.8,14.9,2.4
	c-0.6-1.1-1.1-2.2-1.5-3.3l-0.3-0.1l2.9,0.5c1.3,0.5,4,1.7,5.2,2.3c4.2,2.2,8.1,5.8,11.1,9.4c-0.3-1.5-0.4-3.2-0.4-4.7
	c0-1.4,0.2-2.9,1.2-3.9c1.8,2,2.8,4.9,3.8,7.3c0.7,1.9,1.9,4.4,2.7,6.2c0-0.1,0.1-0.1,0.1-0.2c0.2-1.6,0.8-3.8,1.4-5.3
	c1.1-2.8,2.8-5.7,4.5-8.2c0.2,1.8,0.5,3.6,0.8,5.4L278.4,149.7z"/>
<path class="st0" d="M5.3,266.1c-0.6-2.3-0.7-4.9-0.6-7.2c0.1-1.2,0.3-2.9,0.9-4c0.3,0.9,0.3,1.9,0.7,2.7c0-1,0.4-2,0.7-3
	c0.2-1,0.6-2.1,1-3.1c0.3,0.7,0.6,1.4,0.7,2.1c0.2-0.9,0.5-2.2,0.9-3.1c1-1.4,2.2-2.8,3.6-3.9c0,1.7-0.4,3.5-1,5
	c-0.2,0.9-0.6,2.2-1.1,3c0.3-0.4,0.8-0.6,1.2-0.7c-0.1,0.9-0.5,1.9-0.9,2.7c-0.5,0.8-1.1,1.7-1.6,2.5c0.6-0.3,1.1-0.8,1.6-1.2
	c-0.3,1.5-1.4,3.1-2.4,4.4C7.9,263.7,6.6,265.1,5.3,266.1z"/>
<path class="st0" d="M119.7,153.4c1.8-1.3,5.6-3.5,7.6-4.5c2.1-0.8,6.3-2.5,8.3-3.4c4.9-2.4,10.6-5.6,15.9-7c-0.8,1.7-2,3.2-3.3,4.5
	c1.1-0.5,3.2-1.2,4.4-1.4c0,0,2.3-0.9,2.3-0.9c3.8-0.8,8.1-1.4,12-0.9c-1.3,1.1-2.4,2.4-3.6,3.5c2.7-0.7,8-1.7,10.8-1.9
	c0,0,5.4-0.1,5.4-0.1c8.2,0.5,17.3,2.6,25.6,1.8c-4.9,3.1-11.3,5.3-16.9,6.6c-5.4,1.1-11.9,1.4-17.2,2.9c1.8,0.1,3.7,0.6,5.3,1.5
	c-2.2,0.4-4.7,1.1-6.8,1.7c-2,0.7-4.3,1.7-6.3,2.3c0.7,0,1.6,0.2,2.4,0.3c0.6,0.1,1.3,0.5,1.6,1c0,0-5.6,1.9-5.6,1.9l-6,1.1
	c0,0-6.3,0.4-6.3,0.4l-6.5-0.3l-6.5-1.1c-3.1-1-9-3.4-11.9-4.8c0,0-5.2-3.5-5.2-3.5L119.7,153.4z"/>
<path class="st0" d="M76.8,285.2c0.3-1.4,1.1-4.1,1.6-5.4c0.6-1.3,2.2-3.9,3.1-5c2-3,4.6-6.5,7.1-9.1c0.1,0.6-0.2,1.4-0.3,2
	c-0.2,1.2-0.5,2.5-0.7,3.6c0.8-1.3,2-2.9,2.9-4.1c1.3-2.3,3.2-4.6,4.8-6.7c0.1,0.7,0.2,1.6,0.3,2.3c0,0.7-0.2,1.6-0.4,2.3
	c1.6-2.4,3.4-5.2,5.1-7.5c1.8-2.2,4.2-4.7,6.3-6.6c-0.8,6.5-2.9,13.5-7.5,18.3c0.8-0.6,2-0.9,3-0.5c-1.3,2.4-3,5.1-4.9,7
	c-1.2,1-3,2-4.5,2.6c1.6,0.1,3.3-0.1,4.8-0.7l-1.2,1.4c-1.4,0.9-4.1,2.1-5.6,2.7c-1.5,0.8-4.6,2-6.2,2.5
	C82.1,284.5,79,285,76.8,285.2z"/>
<path class="st0" d="M365.4,175.6c-2.9,1.7-6.4,2.3-9.7,2.5c0.7-0.5,1.5-1,2.2-1.5c-1.9,0.4-3.9,0.7-5.8,0.7c0.4-0.5,1-0.9,1.5-1.2
	c-2.4,0.6-5.1,0.4-7.5-0.4c2.3-1.2,5-1.9,7.6-1.9c-0.4-0.1-0.8-0.4-1-0.7c1.8-0.5,3.8-0.6,5.6,0.1c-0.4-0.5-0.9-0.9-1.5-1.1
	c1.4-0.3,3.1,0.6,4.4,1.2C362.5,173.9,364.2,174.7,365.4,175.6z"/>
<path class="st0" d="M96.5,153.2c5.2,0.1,10.5,1.8,15.2,4c-0.8,0.2-1.7,0.3-2.6,0.3c1.2,0.5,2.6,1.2,3.6,2.1c1,0.9,2,2.1,2.9,3.1
	c-0.7-0.1-1.4-0.2-2.1-0.3c1.6,1.2,3.7,3,5.2,4.4c2.4,2.7,4.6,6.1,5.9,9.5c-1.3-1-3.1-2.5-4.4-3.5c-2.4-1.7-5.2-3.6-7.5-5.4
	c0.5,0.7,0.8,1.5,0.9,2.3c-1.5-1.2-3.1-2.4-4.8-3.4c0.4,0.5,0.9,1.1,0.7,1.8c-5.5-3.7-11.3-8.5-13.3-15.2L96.5,153.2z"/>
<path class="st0" d="M286.5,213.9c-1.8,0-5.3-0.3-7-0.5c-3.3-0.8-7.6-2.4-10.7-3.8c-2.9-1.4-6.5-4-9.1-6c0.8-0.1,1.9,0.1,2.7,0.1
	c1.5,0.1,3.3,0.3,4.8,0.4c-5-2.5-10-5.5-14.2-9.2c0.9,0,1.9-0.3,2.8-0.3c0.9,0,1.9,0.1,2.7,0.3c-6.5-3.6-12.4-8.9-17.1-14.7
	c3.8,0.3,8.1,1.6,11.5,3.1c3.5,1.5,7.5,3.6,10.3,6.1c-0.8-1-1.1-2.4-0.8-3.7c3,1.3,6.3,3.2,8.7,5.5c1.3,1.3,2.8,3.4,3.7,4.9
	c-0.1-1.9-0.6-3.9-1.4-5.6l1.9,1.3c1.2,1.3,3.3,4.2,4.2,5.7C282.4,202.5,285.5,208.3,286.5,213.9z"/>
<path class="st0" d="M309.1,185.6c-3.4-1.1-6.8-3.1-9.2-5.8c0.9,0.2,1.8,0.5,2.7,0.7c-1.6-1.1-3.3-2.8-4.6-4.3
	c0.7,0,1.5,0.2,2.2,0.4c-0.8-0.6-1.7-1.5-2.3-2.2c-0.9-1.3-1.6-3-2.1-4.5c2.5,1.1,4.8,3,6.5,5.2c-0.2-0.4-0.2-1,0-1.4
	c1.6,1.1,2.8,2.8,3.6,4.6c0.1-0.7,0-1.4-0.2-2.1c1.2,1,1.8,2.9,2.3,4.4C308.5,182.2,309,184,309.1,185.6z"/>
<path class="st0" d="M256.7,345.5c5.6-0.9,11-0.4,16.4,1.5c-0.8,0.4-1.8,0.6-2.7,0.7c2.8,0.7,5.7,2.1,7.7,4.2c-0.8,0-1.6,0-2.4,0
	c1.8,1.2,4.2,2.9,6,4.1c0,0,1.4,1.7,1.4,1.7c0.7,1,2.1,3.1,2.8,4.1c0.3,1.2,0.9,3.5,1.2,4.7c-1.1-1.3-2.4-3.2-3.7-4.3
	c-1.4-0.9-3.1-2.3-4.5-3.2c-0.9-0.4-2.6-1.3-3.4-1.7c0.6,0.6,1,1.4,1.2,2.2c-1.7-0.9-3.6-1.8-5.4-2.5c0.5,0.5,1.1,1.1,1,1.8
	c-6.5-2.7-11.9-7.8-16.2-13.3L256.7,345.5z"/>
<path class="st0" d="M334.3,198.7c-2.7,1-6.3,2.2-9,3.1c-3.1,1.3-6.9,2.7-10.1,3.9c-5.2,2-10.8,3.6-16.1,5.4
	c-3.5-1.8-7-4.5-10.1-6.9c-2.7-3.1-5.4-6.8-7.5-10.3c-1.7-2.6-4-5.6-5.6-8.3c-0.6-1.1-1.7-3.4-2.3-4.5c3,4.2,6.9,7.6,10.3,11.3
	c2.1,2.2,4.3,4.7,6.4,6.9c1.2,1.1,3.1,2.1,4.4,2.9c-0.2-1.3-0.3-2.8-0.7-4.1c-0.3-1.2-1.1-2.3-1.3-3.5l0.1,0
	c0.9,0.9,2.1,1.8,2.8,2.9c0.7,1,1.5,2.2,2.2,3.1c0.5,0.9,1.1,1.9,1.7,2.7c3-2,5.9-4.1,8.9-6.1c-0.8,2.2-1.8,4.5-2.7,6.7
	c5.8-1.1,11.8-2.5,17.7-3.4c1.6-0.4,3.8-0.6,5.4-0.7C330.4,199.5,332.7,199.1,334.3,198.7z"/>
<path class="st0" d="M296.4,163.3c-1.2,1.4-3.7,4.2-5.1,5.6c-1.3,1.1-4.1,3.1-5.6,4c-2.1,0.8-5.1,1.8-7.3,2.1l4-3.1l3.9-4.6l3.2-5.7
	l2.5-6.3c1.5-4.8,3.7-11.1,4.5-16c9.9,3.7,22,6.9,31.8,11.1c0,0,8.2,4.3,8.2,4.3l6.2,4c0,0,4,1.9,4,1.9c-6.6,1.1-13.2-1.8-19.6-3
	c0.7,1.1,1.5,2.2,1.9,3.4c-3-0.9-6.7-1.7-9.6-2.8c-2.7-1.4-5.9-3.3-8.6-4.9c0.6,1.4,1,2.9,1.3,4.4c0.4,1,0.8,2.1,0.5,3.1
	c-1.6-0.6-3.2-2.1-4.4-3.4c-0.7-0.7-2.1-2.3-2.8-3c-0.5-0.8-1.5-2.3-2.1-3.1c0,0.1-0.1,0.1-0.1,0.2c0.1,2.2-0.5,4.7-1,6.9
	c-0.6,2.2-1.7,4.5-2.7,6.5c-0.4-1.5-0.8-3-1.2-4.5L296.4,163.3z"/>
<path class="st0" d="M409.4,248.5c-3.4-0.3-7.1-1.3-9.8-3.6c0.9,0.1,1.9,0,2.8,0.1c-0.9-0.4-1.9-0.9-2.7-1.4c-0.7-0.6-1.5-1.3-2.2-2
	c0.6-0.1,1.3,0,1.9,0.2c-2.1-1.6-4.3-3.5-5.9-5.7c2.8,0.5,5.5,1.9,7.7,3.7c-0.3-0.4-0.4-0.9-0.2-1.4c1.8,0.7,3.5,2,4.4,3.7
	c0-0.7-0.1-1.4-0.4-2c1.4,0.7,2.1,2.6,2.8,4C408.3,245.4,409.1,247,409.4,248.5z"/>
<path class="st0" d="M24.6,224.2c3.4-2.2,7.8-4.5,11.6-6.1c5.9-3.5,13.3-6.1,20.2-6.8c-0.9,1.5-2.3,2.8-3.7,3.8
	c2-0.5,4.7-0.7,6.7-0.9c3.8-0.5,8.2-0.7,11.9,0.6c-0.4,0.1-0.9,0.6-1.2,0.8c-0.8,0.7-1.7,1.4-2.5,2.1c8.5-0.8,18.2-2,26.7-0.3
	c0,0,5.4,1.3,5.4,1.3l4.9,2.1l4.6,2.7c-5.4-0.5-11.8,0.4-17.1,1c-5.4,0.9-11.8,2.5-17.3,3.4c1.9,0.2,3.8,1,5.3,2.2
	c-2.2,0.4-4.8,0.7-7,1.1c-2.1,0.4-4.7,1-6.8,1.3c1.4,0.3,3.3,0.6,4.1,1.9l-5.9,1c-5.5,0.2-12.9-0.1-18.3-1.3c0,0-6-1.6-6-1.6
	l-5.8-2.1c-2.7-1.3-7.9-3.9-10.5-5.5L24.6,224.2z"/>
<path class="st0" d="M237.1,263.4c1.6,0.1,4.6,0.6,6.1,0.9c1.6,0.6,4.7,2,6.2,2.9c1.6,0.8,4.8,2.6,6.3,3.6c1.3,1.2,4.1,3.5,5.6,4.6
	c-2.6-0.2-5.2-1-7.8-1.5c4.4,2.8,8.3,6.8,10.9,11.3c-1.7-0.3-3.4-0.9-4.9-1.7c5.5,5.6,8.2,11.1,7.5,19.1c-0.8-0.9-2.3-2.9-3.1-3.9
	c-1-0.8-2.8-2.5-3.7-3.3c-2.2-2.3-4.1-5.5-6.2-7.9c0.5,1.1,0.3,2.4-0.2,3.5c-4.2-2.3-6.8-6.8-8.7-11.1c0,1.7-0.1,3.4,0.3,5
	c-2.8-2.4-4.8-6.7-6.1-10.1C238.2,271.6,237,267.1,237.1,263.4z"/>
<path class="st0" d="M385,195.1c2.9-1,6.4-1.8,9.4-0.6c-0.8,0.3-1.6,0.6-2.4,1c0.9,0,1.9,0.1,2.8,0.3c0.7,0.3,1.6,0.6,2.3,1
	c-0.4,0.3-0.9,0.5-1.4,0.5c0.7,0.2,1.7,0.6,2.4,0.8c1.5,0.3,3.1,0.8,4.4,1.4c-1.4,0.5-3.2,0.9-4.7,0.9c-0.8-0.1-2-0.4-2.8-0.7
	c0.4,0.2,0.7,0.7,0.7,1.1c-1.8,0-3.8-0.5-5.2-1.8c0.2,0.6,0.6,1.2,1.1,1.7l-0.8-0.1l-0.9-0.5c-1-0.8-2.1-2-2.9-2.9
	C386.4,196.6,385.5,195.7,385,195.1z"/>
<path class="st0" d="M59.1,211c-0.7-0.8-2.1-2.4-2.7-3.3c-0.8-1.6-1.8-3.9-2.3-5.6c-0.5-1.7-0.8-4-0.9-5.8c0.6,0.5,1.2,1.1,1.6,1.9
	c-0.2-1.3-0.3-2.8-0.2-4.2c0.2-1.3,0.6-2.9,0.8-4.2c0.4,0.6,0.7,1.2,1.1,1.8c-0.1-2-0.1-4.7,0.1-6.7c-0.5-3.7-1.2-7.4-1.2-11.1
	c1.3,3.1,3.2,6,4.6,9.1c0.7,1.7,0.8,4.1,0.9,5.9c0.2-0.9,0.6-1.7,1.2-2.3c0.2,2,0.3,4.2,0.2,6.2c0.2-0.7,0.5-1.5,1.2-1.8
	c-0.1,3.4-0.2,7.4-0.9,10.7c-0.4,1.3-1.3,3.8-1.8,5c-0.3,1.2-1.1,3.6-1.5,4.8L59.1,211z"/>
<path class="st0" d="M263.2,331.1c-1.4-0.4-4-1.5-5.3-2.2c-2.4-1.6-5.3-4.1-7.2-6.3c0,0-2-2.6-2-2.6l-1.5-2.7l-0.9-3.1l0,0.7
	c1.7,0.8,3.5,1.7,5.2,2.6c-1.6-1.7-3.4-3.9-4.6-5.9c-1.2-2-2.6-4.4-4-6.2c0.8,0.1,1.7,0.2,2.4,0.4c0.7,0.3,1.4,0.8,2,1.2
	c-1.2-1.9-3.3-4.1-4.7-5.8c-2.4-3.2-4.7-7-6.6-10.5c4.2,1.3,8.4,3.8,11.6,6.8c1,0.9,2.9,2.9,3.7,4.1c0,0,1.2,2.5,1.2,2.5
	c-0.3-1.1-0.2-2.5,0.5-3.5c1.8,2.4,4,5,5.4,7.7c0.7,1.5,1.3,3.8,1.7,5.4c0.5-1.6,0.6-3.4,0.4-5.1c1.6,1.9,2.6,5.2,3.2,7.6
	c0.2,1.8,0.4,5.4,0.4,7.3C264.3,325.7,264.3,329.1,263.2,331.1z"/>
<path class="st0" d="M68.4,155.5c0.7-2.9,2-6,4.3-8c-0.2,0.8-0.2,1.6-0.4,2.4c0.4-0.7,1-1.5,1.5-2.1c0.6-0.6,1.4-1.1,2.1-1.6
	c-0.1,0.5-0.2,1.1-0.5,1.6c1.7-1.7,4-2.8,6.3-3.4c-1.2,2-3.2,3.5-4.8,5.2c0.3-0.2,0.8-0.2,1.2,0c-0.7,1.5-2.1,2.6-3.6,3.2
	c0.6,0.1,1.2,0,1.8-0.2c-0.8,1.1-2.5,1.6-3.8,2.1C71.2,155,69.7,155.5,68.4,155.5z"/>
<path class="st0" d="M387,231.5c-1,3.4-2.7,7.1-4.9,10c-1.1,1.8-2.6,4.2-3.9,5.9c-0.1-1,0-2,0.2-3c-1.7,2.7-4.2,5-6.9,6.8
	c0.2-0.8,0.3-1.7,0.5-2.6c-1.6,1.8-3.8,4.1-5.6,5.6c-1.8,1.5-4.5,3.2-6.6,4.4c-1.2,0.4-3.7,1.3-4.9,1.7c1.3-1.4,3.2-3.2,4.4-4.7
	c2-2.9,4.3-6.1,6.8-8.6c-0.8,0.5-1.8,0.8-2.8,0.8c0.8-0.8,1.7-1.7,2.5-2.5c0.7-0.9,1.5-2,2.2-2.9c-0.6,0.4-1.4,1-2.2,0.7
	c0.9-1.3,3-3.6,4.2-4.7c1.3-1,3.9-2.8,5.3-3.6c1.3-0.8,4.2-2.2,5.7-2.7c1.5-0.4,4.6-0.8,6.2-0.8L387,231.5z"/>
<path class="st0" d="M299.9,291.8c-1.1,2.5-2.9,5.9-4.8,7.9c-1.1,2.1-2.7,4.9-3.9,6.9c-0.6,1-1.9,3-2.7,3.9c-1.5,1.1-3.4,2.8-5,3.6
	c-2.3,0.8-5.1,1.2-7.2,2.4c-1.8-0.6-4.3-1.5-6-2.5c-1-0.5-3-1.6-3.9-2.2c0,0-1.7-1.7-1.7-1.7c-2.1-2-4.2-4.7-5.9-7.1
	c-2.7-3.4-5.7-6.9-8.7-10.1c3.8,2.5,7.4,5.5,10.6,8.6c1.9,1.9,4.2,3.9,6.3,5.7c1.1,0.9,2.9,1.7,4.2,2.3c-0.2-0.7-0.4-1.6-0.5-2.3
	c-0.5-1.5-1.2-3-1.4-4.5l0.3,0.1c1.2,1.5,2.4,2.9,3.8,4.3c0.8,0.9,1.5,2,2.4,2.8c0.4-0.4,1-0.8,1.5-1.2c0.6-0.6,1.2-1.2,1.8-1.8
	c1.4-1.1,2.8-2.1,4.2-3.1c-0.2,0.5-0.5,1.1-0.7,1.7c-0.3,1.4-0.6,2.9-0.9,4.3c1.1-0.5,2.8-0.9,3.9-1.2c2.4-2,4.4-4.8,6.5-7.2
	c0.6-0.6,1.6-1.9,2.1-2.6c0.7-0.6,2-1.7,2.7-2.2c0,0,1.3-1.3,1.3-1.3C298.6,294.4,299.5,292.6,299.9,291.8z"/>
<path class="st0" d="M468.1,273.8c1.1-0.9,3.3-2.6,4.4-3.5c2.7-2.7,5.5-6.1,8.7-8.3c-1.1,2.3-3.5,7-4.7,9.3c0,0-4,5.8-4,5.8
	l-5.3,4.9l-5.8,2.5c-2.6,0.2-7.2,0.6-9.8,0.9c-0.2-1-1-5.5-1.2-6.6c0,0,2.6-7.4,2.6-7.4l6-6.6c3.6-2.2,11-6.4,14.8-8.3
	c2-1.2,6.7-4,8.8-5c-2.2,5.1-6.4,9.5-10.9,12.7c1.2,0.1,2.5,0.3,3.7,0.5c-2.1,1.8-4.8,3.6-7.4,4.6c-2.6,1-5.5,2.1-7.8,3.6
	c1.5,0.1,3,0.4,4.4,0.7c0.8,0.1,1.7,0.4,2.2,1c-1.7,1.8-4.4,1.7-6.7,2.2c-0.5,0-1.2,0.2-1.7,0.5c0.1,0,1.3,0.2,1.5,0.2l1.3,0.4
	l0.9-1l0.7-1.8l0.8-1.5c0.8-0.9,2.2-2,3.2-2.7c-0.2,0.5-0.4,1.1-0.5,1.6c-0.2,0.9-0.2,1.9-0.3,2.8L468.1,273.8z"/>
<path class="st0" d="M242.8,197.9c3.5-0.4,7.3,0.1,10.4,1.7c-0.9,0.1-1.9,0.4-2.8,0.5c2,0.4,4,1.2,5.8,2.3c-0.7,0.2-1.4,0.3-2.1,0.2
	c2.7,0.9,5,2.7,6.7,4.9c-2.8-0.2-5.5-1.4-8-2.6c0.4,0.3,0.6,0.8,0.5,1.3c-1.9-0.2-3.8-1.2-5.1-2.7c0.2,0.7,0.5,1.3,1,1.9
	c-1-0.2-2.1-1.3-2.8-2.1C245.1,201.7,243.6,199.8,242.8,197.9z"/>
<path class="st0" d="M386.1,284.1c1.5-1,4.8-2.7,6.5-3.4c0,0,3.7-1.1,3.7-1.1c5.7-2.2,12.2-3.8,18.1-5.5c-0.9,1.5-2.1,2.8-3.5,3.8
	c1-0.3,3-0.8,4-1c0.9,0,2.6-0.4,3.4-0.7c2.4-0.8,5.3-0.7,7.7-0.4c-1.2,0.8-1.8,2.1-2.7,3.1l3.8-0.7c2-0.7,5.9-2.1,7.9-2.7
	c3.5-1.1,8.1-2.8,11.4-4.4c1.9-1.2,5.7-3.6,7.6-4.8c-2,2.9-4.4,7.2-6.7,9.9c-4.3,4.9-10.8,8.6-17,10.6c1.6-0.1,3.4,0.2,4.8,1
	c-2.4,0.8-5.1,1.8-7.4,2.7c-1.4,0.3-3.3,0.9-4.7,1.3c1.4,0.1,3.2,0.2,4.1,1.4c-2.8,0.7-8.5,1.7-11.3,2c0,0-5.6-0.3-5.6-0.3l-5.5-0.9
	l-5.4-1.7l-5.1-2.3l-4.7-2.7l-3.9-3.4L386.1,284.1z"/>
<path class="st0" d="M189.1,184.8c3.8-4.3,9-8.2,14-11.1c2.9-1.6,6.9-3.5,9.8-4.9c-1.3,2.2-3.2,4.3-4.7,6.4c4.6-2.9,9.9-5,15.3-5.6
	c-0.9,1.5-2.1,2.9-3.4,4c6.8-2.8,14.1-3.2,21.2-1.3c-2.8,1.9-6.3,3.8-9.4,5.1c-3.2,1.3-7.1,2.2-10.5,2.9c1.2,0,2.5,0.7,3.3,1.7
	c-2.7,1.5-5.9,2.8-8.9,3.3c-1.7,0.3-4.1,0.1-5.8,0.1c1.6,0.8,3.3,1.6,5.1,2C207.4,190.2,196.4,187.7,189.1,184.8z"/>
<path class="st0" d="M283.8,317.8c-1.8,2.6-4.4,4.8-7.2,6.2c0.3-0.7,0.7-1.4,1.1-2.1c-1.4,1-2.9,2.1-4.4,2.9
	c0.1-0.6,0.4-1.2,0.7-1.7c-1.7,1.5-4,2.5-6.2,2.9c1.3-2,3.1-3.9,5.3-4.9c-0.4,0.1-0.8,0-1.2-0.2c1.3-1.2,3-1.9,4.7-2
	c-0.6-0.2-1.2-0.3-1.9-0.3c1.2-0.8,3-0.8,4.4-0.8C280.6,317.7,282.4,317.6,283.8,317.8z"/>
<path class="st0" d="M165.4,277.7c5.8-1.4,12.1-1.2,18-0.2c-0.8,0.5-1.7,0.9-2.6,1.2c3.1,0.4,6.2,1.4,9,2.9
	c-0.8,0.3-1.6,0.5-2.4,0.8c3.1,0.7,6.6,2,9.7,2.9c3,1.2,6.5,2.6,9.4,3.8c-1.9,0.1-4.6,0.2-6.6,0.1c-3.6,0.2-7.7,0.1-11.2-0.9
	c0.8,0.5,1.6,1.2,2,2c-2.2-0.6-4.6-1.1-6.8-1.4c0.7,0.4,1.5,0.8,1.6,1.7c-8.2-1.2-15.2-6.8-20.4-12.9L165.4,277.7z"/>
<path class="st0" d="M45.6,262.3c1-1,3.2-2.8,4.4-3.7c1.4-0.8,4.2-2.1,5.7-2.6c2.6-1.1,6.4-2.2,9.2-2.5c0,0,2.9,0.4,2.9,0.4
	l-0.5-0.1c-1.5,1.2-3,2.4-4.5,3.6c1.5-0.5,3.6-1,5.2-1.2c2.9-0.3,6.1-0.1,9-0.3c-0.5,0.5-1,1.2-1.6,1.7c-0.6,0.4-1.4,0.8-2,1.1
	c3.1-0.2,6.7-0.8,9.7-0.9c3.1,0.1,6.8,0.3,9.9,0.4c-1,0.8-3.2,2.3-4.4,2.9c-1.2,0.5-3.7,1.4-4.9,1.8c-3.1,1.1-7,2.1-10.4,1.7
	c1.1,0.3,2.2,1,2.7,2.1c-2.2,0.4-4.7,0.9-6.9,1.1c-2.1,0.1-4.6-0.1-6.7-0.7c1.2,1,2.6,2,4.1,2.5l-1.7,0.5c-1.5,0-4.6-0.6-6.1-1
	C54,267.8,49.1,265.4,45.6,262.3z"/>
<path class="st0" d="M243.7,319.6c-2.3-2-4.2-4.6-5.1-7.5c0.6,0.5,1.3,1,2,1.5c-0.9-1.5-1.7-3.2-2.2-4.9c0.5,0.2,1,0.6,1.4,1
	c-1-2.1-1.9-4.4-2.2-6.8c1.9,1.6,3.6,3.8,4.3,6.2c0-0.4,0.1-0.8,0.4-1.1c1,1.4,1.6,3.3,1.5,5c0.3-0.5,0.5-1.2,0.5-1.8
	c0.7,1.3,0.4,3.1,0.3,4.4C244.4,316.9,244.2,318.4,243.7,319.6z"/>
<polygon class="st1" points="197.8,142.4 221.5,144.3 247.1,143.6 257.9,142.2 270.5,140.2 283.2,138.5 294,138.1 326.1,147.3 
	354.4,165.4 374.6,183.8 382.7,194 389.3,193.5 396.3,191.9 403.8,189.2 411.9,185.3 407.3,193.6 402.5,200.5 397.4,206.1 
	391.6,210.7 396.4,220.4 402.5,232.3 408.8,244.3 414.1,254 421.6,252.7 429.2,250.5 437.1,247 445.7,241.8 441.9,251.4 
	436.6,261.1 431.3,269.7 427.1,275.9 432.4,275.3 437.6,273.9 442.7,272.1 447.7,269.9 460.7,263.4 473.2,256.2 485.3,248.3 
	497,239.7 474,275.3 447.6,302.1 423.8,320 408.9,328.8 387.1,317.2 367.9,301.3 353,284.5 343.8,270.2 338.6,271.5 328.7,273.3 
	317.5,275.1 308.3,276.6 298.3,294.5 286.9,315.6 276.9,334.3 271.5,345.1 277.5,348.6 282.3,353.9 285.6,360.4 287,367.3 
	276.3,367.1 265.6,367.1 254.9,367.2 244,367.3 242.4,347.8 240.5,328.3 238.1,308.1 235.2,286.6 194.6,290.3 153.6,291.2 
	117.4,287.7 91.4,278.1 79.6,295.3 69.8,313.8 62.3,331.1 57.5,345.1 63.5,348.7 67.7,353.3 71,359.3 73.8,367.3 61.6,367.3 
	47.9,367.3 36.8,367.3 32.2,367.3 31.1,349.6 28.8,308.4 26.8,261.5 26.8,226.7 19.7,240.1 13.8,252.4 8.5,264.4 3,276.4 5.8,240.3 
	13.9,210 26.9,184.8 44.4,163.9 66.6,149.2 92.6,141.5 120.5,138.6 148.4,138.3 174,139.8 "/>
</svg>
