<?xml version="1.0" standalone="no" ?>
<!DOCTYPE svg PUBLIC "-//W3C//DTD SVG 1.1//EN" "http://www.w3.org/Graphics/SVG/1.1/DTD/svg11.dtd">
<svg width="500px" height="500px" xmlns="http://www.w3.org/2000/svg" version="1.1" >
	<polygon points="480.823,30.6021 480.788,30.659 480.496,31.287 480.32,31.8114 480.269,32.0487 480.384,33.5678 480.763,35.4038 480.823,35.6182 480.823,77.5791 479.824,79.9437 478.667,81.8575 473.352,88.3294 471.894,89.7004 465.393,94.3996 466.145,94.4099 468.631,94.9204 470,95.3355 472.096,96.1875 473.511,96.9409 475.234,98.0999 476.518,99.1811 477.887,100.613 478.882,101.899 479.915,103.568 480.569,104.889 480.823,105.555 480.823,121.995 480.037,123.769 480.823,124.416 480.823,189.573 478.578,192.171 476.999,193.245 473.31,194.565 473.098,194.549 473.551,194.925 474.36,195.703 478.362,200.145 479.225,201.302 480.823,203.92 480.823,244.682 478.778,248.164 478.392,248.758 475.117,253.325 476.282,253.447 478.09,253.857 479.349,254.305 480.823,255.06 480.823,281.286 480.162,293.059 479.451,294.164 478.958,294.846 476.38,298.035 475.75,298.725 472.792,301.6 472.43,301.806 472.653,302.098 473.368,303.222 475.284,306.889 475.742,307.953 477.187,312.133 477.369,312.807 473.11,329.62 467.07,347.047 459.27,364.67 455.837,370.959 454.636,371.656 450.719,371.725 449.037,370.827 449.117,371.233 449.821,378.795 449.756,380.755 449.466,382.559 438.331,399.399 425.161,415.952 410.17,431.593 401.866,438.727 401.516,438.668 399.479,438.029 397.986,437.323 396.626,436.502 396.092,436.1 396.183,437.296 396.088,439.232 395.167,444.481 393.345,446.047 374.668,459.037 354.126,470.285 331.702,479.516 324.101,481.684 322.44,481.212 320.989,480.638 318.326,479.261 316.99,478.387 314.791,476.601 313.667,475.48 311.942,473.366 311.083,472.07 309.84,469.711 309.265,468.303 308.512,465.78 308.223,464.304 308.213,464.197 308.158,464.297 305.392,468.369 304.532,469.283 304.806,469.305 306.342,469.585 307.011,469.778 308.814,470.554 309.308,470.845 311.016,472.208 311.361,472.573 312.564,474.241 312.786,474.655 313.41,476.19 313.536,476.629 313.776,477.791 313.832,478.23 313.892,478.978 313.905,479.393 313.639,481.671 313.241,483.143 312.277,485.056 307.382,486.452 281.151,490.817 267.2,491.568 266.702,491.225 264.876,489.734 263.941,488.831 263.774,488.64 262.65,489.213 262.212,489.419 258.047,491.225 257.592,491.405 255.376,492.205 252.993,492.333 225.548,490.902 199.887,486.773 181.617,481.738 179.179,480.006 175.221,477.225 172.199,475.526 170.33,474.987 167.346,474.692 163.213,474.463 162.739,474.422 160.971,474.215 153.907,471.407 133.585,460.665 133.163,460.381 129.785,457.107 127.747,453.761 127.655,451.415 127.531,451.427 125.991,451.412 118.614,450.612 115.039,448.212 98.2672,434.295 83.2685,419.161 70.8878,404.089 70.5167,401.118 70.4813,399.53 70.6667,397.208 68.3692,397.133 64.98,395.087 63.7564,393.828 58.5824,386.23 48.8916,368.927 40.9666,351.394 34.8057,333.879 34.3554,332.113 34.4152,331.548 34.7226,330.056 37.6909,320.496 38.1351,319.378 40.9453,313.64 37.6535,313.573 35.6844,312.953 32.5105,311.029 30.692,309.21 29.3801,307.467 28.7976,306.413 27.7694,299.888 26.8905,283.906 26.8905,238.448 27.2073,237.364 27.542,236.44 29.2037,232.622 30.1089,231.063 31.3552,229.396 30.4034,229.015 28.4971,227.916 26.8905,226.658 26.8905,166.494 27.6345,163.356 27.8822,162.521 29.4543,158.139 29.9542,157.027 32.3807,152.594 33.2185,151.36 35.8508,148.186 34.1137,147.679 32.7069,147.115 30.4207,145.928 29.131,145.088 27.1453,143.494 26.8905,143.243 26.8905,111.785 27.6915,110.985 28.6025,110.206 30.5219,108.804 31.0395,108.482 29.9737,107.959 29.4889,107.659 28.1108,106.575 27.7157,106.185 26.8905,105.144 26.8905,91.7773 27.4312,90.657 29.5552,87.4465 27.1655,86.6475 26.8905,86.5008 26.8905,42.0424 27.4651,41.5551 31.3558,38.7059 31.735,38.445 36.1951,35.567 36.2983,35.5015 36.9071,35.122 34.6469,34.5495 34.2186,34.4278 30.4681,33.2462 29.2921,32.7674 26.8905,31.553 26.8905,19.5757 38.3822,19.4875 49.8739,19.3993 61.3656,19.3111 72.8572,19.223 84.3489,19.1348 95.8406,19.0466 107.332,18.9584 115.701,18.8942 116.345,19.6114 116.53,19.826 117.719,21.2514 118.254,21.7506 118.284,21.766 118.805,21.841 119.284,21.7724 119.393,21.718 120.023,21.1646 121.298,19.7577 121.499,19.5442 122.183,18.8445 130.316,18.7821 141.807,18.6939 153.299,18.6057 156.462,18.5815 157.476,21.9316 159.429,20.5228 160.803,19.7305 163.488,18.5275 164.791,18.5175 176.282,18.4294 187.774,18.3412 210.757,18.1648 210.736,28.732 210.136,29.3907 210.735,29.5737 210.732,31.0636 210.706,43.9624 210.681,56.8612 210.681,57.1156 209.25,57.6598 208.234,57.8408 208.089,57.8436 210.407,60.5011 210.673,60.8509 210.656,69.76 210.63,82.6588 210.626,84.944 209.889,85.3383 209.019,85.7021 207.744,86.1106 206.741,86.3393 205.554,86.5152 204.426,86.5946 203.088,86.5738 201.449,86.4069 204.087,88.4552 204.294,88.6215 208.589,92.1968 208.853,92.4265 210.608,94.0256 210.579,108.456 210.554,121.355 210.548,124.168 209.522,124.841 209.795,125.085 210.545,125.931 210.503,147.153 210.478,160.052 210.452,172.95 210.447,175.547 210.325,175.823 208.937,178.371 208.194,179.492 206.413,181.734 205.43,182.763 203.288,184.629 202.052,185.51 201.337,185.921 201.653,186.059 202.929,186.768 205.328,188.412 206.533,189.431 208.505,191.477 209.536,192.807 210.41,194.229 210.401,198.748 210.376,211.647 210.366,216.718 210.212,217.034 210.022,217.398 209.259,218.77 209.071,219.09 208.246,220.422 206.3,222.279 206.343,222.315 209.079,224.846 209.644,225.426 210.363,226.245 210.438,235.84 210.602,246.657 210.899,256.963 211.177,262.569 210.601,263.32 210.427,263.538 208.232,266.193 206.686,268.249 206.095,269.356 206.075,269.457 206.089,269.53 206.401,270.036 207.679,271.328 209.877,273.18 210.012,273.296 212.047,275.091 212.112,275.909 213.138,284.482 214.519,292.41 216.308,299.661 218.563,306.2 221.336,311.994 224.685,317.011 228.665,321.215 233.33,324.575 238.737,327.056 244.939,328.626 249.195,329.002 249.856,330.084 251.366,333.209 251.853,334.497 252.413,336.497 254.594,332.406 255.408,331.177 257.26,328.881 259.171,328.749 265.518,327.271 271.013,324.853 275.719,321.532 279.698,317.343 283.01,312.324 285.72,306.511 287.888,299.942 289.576,292.653 290.848,284.68 291.763,276.06 292.22,269.297 292.292,269.206 293.156,268.345 294.61,267.206 295.621,266.591 297.15,265.891 294.003,263.19 292.597,261.557 292.778,257.028 293,246.688 293.115,235.848 293.178,225.702 294.589,222.971 294.472,222.875 293.439,221.841 293.179,221.527 293.159,211.647 293.133,198.748 293.132,198.245 293.436,197.877 294.467,196.844 295.945,195.618 297.166,194.786 297.877,194.395 297.625,194.09 296.789,192.856 296.142,191.669 295.546,190.263 295.136,188.954 294.821,187.416 294.678,186.013 294.678,184.43 294.821,183.029 295.137,181.49 295.547,180.182 296.143,178.776 296.791,177.59 297.626,176.356 298.482,175.321 298.533,175.27 297.893,174.997 295.639,173.536 294.227,172.224 293.098,170.914 293.077,170.884 293.056,160.052 293.004,134.254 292.994,129.044 294.446,127.7 294.423,127.62 294.337,127.293 294.157,126.548 294.081,126.198 293.935,125.436 293.872,125.057 293.762,124.284 293.715,123.873 293.646,123.091 293.619,122.644 293.596,121.858 293.62,120.961 293.87,118.017 294.09,116.727 294.859,113.751 295.316,112.462 296.63,109.585 297.372,108.3 299.258,105.652 299.657,105.2 299.383,105.287 296.955,105.656 296.718,105.655 296.285,105.64 296.094,105.628 294.931,105.466 294.78,105.433 292.945,104.74 292.905,85.0064 293.672,83.6079 294.37,82.3292 293.526,82.1835 292.899,82.0041 292.875,69.76 292.859,62.0155 293.567,61.5302 293.43,61.4625 292.857,61.1553 292.819,41.8642 293.056,41.7302 293.281,41.6074 294.374,41.0355 294.261,40.8608 292.813,38.7385 292.797,31.0636 292.771,18.1648 304.063,18.0923 305.575,18.8711 305.734,18.9553 308.307,20.357 308.31,20.3369 308.427,19.6267 308.6,18.8198 308.806,18.0618 316.278,18.0137 328.031,17.9382 339.784,17.8626 351.538,17.787 363.291,17.7115 375.044,17.6359 377.084,17.6228 379.05,18.5248 380.412,19.3263 386.182,23.5619 386.187,23.4484 387.741,20.6121 388.367,19.884 390.954,17.9153 391.774,17.5284 410.304,17.4092 422.057,17.3337 433.81,17.2581 441.349,17.2097 441.449,17.2635 443.005,18.3695 445.031,20.2212 445.534,20.8555 445.65,20.6283 446.539,19.2683 447.981,17.4969 448.316,17.1649 457.317,17.107 469.07,17.0314 480.823,16.9559 " fill="none" stroke-width="0.5" stroke="rgb(0,0,0)" />
	<polygon points="192.415,443.711 192.793,444.823 193.319,446.865 194.384,447.099 195.914,447.345 197.391,447.499 198.583,447.545 200.177,447.458 201.659,447.197 202.948,446.775 203.975,446.231 204.763,445.582 205.413,444.74 205.991,443.471 206.097,442.981 202.901,443.219 201.709,443.217 195.491,442.728 194.171,442.509 191.625,441.859 " fill="none" stroke-width="0.5" stroke="rgb(0,0,0)" />
	<polygon points="158.854,437.569 157.748,438.924 154.236,442.357 154.767,442.14 156.842,440.741 158.336,439.134 159.419,437.211 159.704,436.249 " fill="none" stroke-width="0.5" stroke="rgb(0,0,0)" />
	<polygon points="316.607,420.573 315.243,420.863 315.434,421.214 315.928,422.511 316.245,423.556 316.575,425.009 316.637,425.31 316.885,426.639 316.897,426.689 317.637,427.223 318.127,427.606 318.994,428.341 319.866,429.209 320.599,430.063 320.799,430.364 321.078,430.069 321.359,429.786 322.074,429.101 322.468,428.749 323.176,428.157 323.736,427.731 324.436,427.246 325.238,426.759 325.928,426.395 326.961,425.952 326.545,425.163 326.196,423.921 325.904,421.809 325.904,417.508 " fill="none" stroke-width="0.5" stroke="rgb(0,0,0)" />
	<polygon points="166.409,413.51 166.414,414.647 166.094,419.331 166.079,419.439 166.661,419.185 170.109,419.698 170.087,419.032 170.119,418.664 170.419,417.104 170.515,416.785 171.244,415.105 171.401,414.835 172.524,413.361 172.092,413.159 169.456,411.778 168.846,411.422 166.419,409.855 166.107,409.632 " fill="none" stroke-width="0.5" stroke="rgb(0,0,0)" />
	<polygon points="379.243,416.983 379.246,416.983 379.243,416.981 " fill="none" stroke-width="0.5" stroke="rgb(0,0,0)" />
	<polygon points="259.335,403.384 259.059,404.315 258.479,405.739 258.11,406.439 258.63,406.67 261.49,408.097 261.997,408.374 264.779,410.03 265.202,410.301 267.82,412.097 268.207,412.38 270.571,414.226 270.965,414.555 272.988,416.36 273.211,416.576 273.984,416.443 274.308,416.394 275.642,416.221 275.95,416.188 276.836,416.109 268.943,411.437 267.624,410.456 260.523,403.9 259.498,402.746 259.467,402.703 " fill="none" stroke-width="0.5" stroke="rgb(0,0,0)" />
	<polygon points="350.275,395.67 349.555,396.871 348.726,398.01 352.856,397.779 353.573,397.772 353.755,397.779 353.587,397.63 352.608,396.511 351.802,395.409 351.023,394.119 " fill="none" stroke-width="0.5" stroke="rgb(0,0,0)" />
	<polygon points="309.103,394.564 308.521,394.735 305.776,395.427 307.52,395.355 309.681,395.07 309.412,394.696 309.347,394.482 " fill="none" stroke-width="0.5" stroke="rgb(0,0,0)" />
	<polygon points="203.789,391.615 204.271,392.689 204.837,394.256 205.785,392.855 207.583,390.972 209.506,389.538 207.204,389.742 205.658,389.726 202.58,389.386 " fill="none" stroke-width="0.5" stroke="rgb(0,0,0)" />
	<polygon points="243.171,374.708 243.647,375.027 244.927,376.099 245.67,376.871 245.773,377 246.261,377.013 246.816,377.069 246.279,375.087 246.038,373.743 245.807,371.164 " fill="none" stroke-width="0.5" stroke="rgb(0,0,0)" />
	<polygon points="83.6137,367.58 82.7722,367.691 81.8344,367.758 80.1456,367.776 80.7836,369.389 81.4278,373.643 83.3192,371.958 84.3311,371.195 86.0729,370.091 85.3411,369.467 84.3171,368.413 83.6443,367.575 " fill="none" stroke-width="0.5" stroke="rgb(0,0,0)" />
	<polygon points="357.561,370.533 357.503,371.097 358.647,370.706 359.057,370.583 358.424,370.171 357.173,369.163 " fill="none" stroke-width="0.5" stroke="rgb(0,0,0)" />
	<polygon points="324.526,368.604 326.067,368.504 325.02,367.82 " fill="none" stroke-width="0.5" stroke="rgb(0,0,0)" />
	<polygon points="117.762,357.985 117.35,360.175 116.902,361.691 116.868,361.775 120.548,361.442 120.648,361.443 119.748,360.44 119.081,359.47 118.092,357.467 117.867,356.777 " fill="none" stroke-width="0.5" stroke="rgb(0,0,0)" />
	<polygon points="294.282,359.074 293.696,359.259 294.64,359.959 294.811,360.09 295.722,360.805 295.698,359.765 295.75,358.658 295.772,358.401 " fill="none" stroke-width="0.5" stroke="rgb(0,0,0)" />
	<polygon points="394.092,342.413 393.406,342.906 392.384,343.559 390.401,344.464 389.566,344.712 387.859,344.852 388.731,347.322 389.125,349.031 392.877,345.887 394.748,344.725 396.861,343.796 396.215,343.019 396.039,342.798 395.111,341.594 " fill="none" stroke-width="0.5" stroke="rgb(0,0,0)" />
	<polygon points="59.0648,341.892 61.5512,345.891 62.0065,343.783 62.5217,342.22 63.4502,340.164 63.4927,340.09 62.4918,339.875 61.4396,339.57 58.9709,338.664 58.6524,338.512 " fill="none" stroke-width="0.5" stroke="rgb(0,0,0)" />
	<polygon points="165.44,323.472 165.207,324.79 164.457,327.605 164.002,328.866 162.764,331.546 162.062,332.765 160.348,335.202 159.358,336.352 157.177,338.437 155.877,339.44 153.882,340.669 155.878,341.878 156.81,342.541 159.159,344.487 159.777,345.072 159.747,344.321 159.805,342.537 159.841,342.005 160.02,340.24 160.107,339.628 160.413,337.951 160.591,337.19 161.03,335.667 161.397,334.66 161.975,333.358 162.756,331.991 163.48,330.977 165.144,329.274 166.019,328.616 168.48,327.478 166.593,324.621 165.828,323.14 165.536,322.387 " fill="none" stroke-width="0.5" stroke="rgb(0,0,0)" />
	<polygon points="415.615,333.555 413.945,333.736 413.994,334.012 414.015,334.134 414.239,335.503 414.281,335.796 414.44,337.066 414.489,337.617 414.549,338.745 414.556,339.385 414.547,339.718 414.51,340.287 414.477,340.606 418.164,340.92 418.643,341.002 417.143,338.082 416.078,333.467 " fill="none" stroke-width="0.5" stroke="rgb(0,0,0)" />
	<polygon points="128.335,338.83 128.723,338.673 128.34,338.331 " fill="none" stroke-width="0.5" stroke="rgb(0,0,0)" />
	<polygon points="75.5592,312.198 74.6634,315.633 74.3727,318.325 74.3995,319.275 74.5161,320.38 74.7233,321.358 74.9496,322.015 75.4258,321.24 76.3357,320.037 77.7534,318.498 78.8776,317.493 80.5787,316.246 81.8587,315.484 82.0003,315.417 80.9605,314.877 79.6884,314.05 78.2593,312.909 77.145,311.82 76.1313,310.609 " fill="none" stroke-width="0.5" stroke="rgb(0,0,0)" />
	<polygon points="384.449,314.678 383.87,316.265 383.693,317.181 383.498,319.301 383.345,321.905 383.558,321.362 384.407,318.752 384.944,316.338 385.145,313.921 385.132,313.205 " fill="none" stroke-width="0.5" stroke="rgb(0,0,0)" />
	<polygon points="350.73,321.407 350.87,321.119 351.045,320.793 350.155,320.54 349.637,320.349 " fill="none" stroke-width="0.5" stroke="rgb(0,0,0)" />
	<polygon points="343.197,314.737 342.814,315.127 343.988,315.927 343.432,314.426 " fill="none" stroke-width="0.5" stroke="rgb(0,0,0)" />
	<polygon points="133.023,307.028 133.021,307.398 134.033,307.284 134.213,307.301 134.715,307.417 134.556,307.086 132.763,304.082 " fill="none" stroke-width="0.5" stroke="rgb(0,0,0)" />
	<polygon points="162.553,298.679 161.025,299.041 159.842,299.197 158.186,299.238 158.863,300.278 159.3,301.041 162.237,306.904 162.366,304.479 162.455,303.652 162.947,300.605 163.121,299.802 163.516,298.346 " fill="none" stroke-width="0.5" stroke="rgb(0,0,0)" />
	<polygon points="434.234,295.771 434.612,295.975 434.459,295.47 " fill="none" stroke-width="0.5" stroke="rgb(0,0,0)" />
	<polygon points="458.654,289.759 457.824,290.447 456.689,291.818 459.665,292.297 459.661,292.224 459.484,291.012 459.204,289.932 459.058,289.572 " fill="none" stroke-width="0.5" stroke="rgb(0,0,0)" />
	<polygon points="86.3241,288.762 86.2474,288.91 87.1104,289.363 87.632,289.778 87.9181,290.038 88.1285,289.015 88.4357,285.791 88.4779,284.615 " fill="none" stroke-width="0.5" stroke="rgb(0,0,0)" />
	<polygon points="157.083,228.317 156.815,228.868 157.728,229.899 158.571,233.769 158.511,235.196 158.488,235.545 158.329,237.367 158.313,237.53 158.089,239.602 158.08,239.677 157.822,241.854 157.82,241.871 157.565,243.986 157.35,245.849 157.215,247.225 157.187,247.764 158.167,248.329 160.197,251.744 160.663,253.368 160.81,253.974 161.176,255.784 161.242,256.161 161.534,258.089 161.562,258.299 161.807,260.277 161.815,260.349 162.035,262.276 162.247,264.002 162.268,264.138 162.625,264.252 162.937,264.63 163.018,261.699 164.159,257.726 165.648,254.906 167.641,252.498 166.371,252.775 162.62,251.645 159.891,248.834 159.044,243.358 159.281,242.241 159.484,241.191 159.661,240.149 159.811,239.112 159.932,238.082 160.02,237.058 160.075,236.038 160.091,235.139 160.001,233.292 159.729,231.578 159.238,229.862 158.474,228.094 157.83,227.017 " fill="none" stroke-width="0.5" stroke="rgb(0,0,0)" />
	<polygon points="131.15,252.501 131.989,251.559 131.717,250.434 131.084,248.386 130.276,245.959 130.258,245.902 130.208,245.749 " fill="none" stroke-width="0.5" stroke="rgb(0,0,0)" />
	<polygon points="382.067,247.943 381.242,248.936 380.117,250.042 379.112,250.847 378.578,251.193 378.827,251.498 379.485,250.877 380.351,250.171 381.477,249.379 383.797,248.267 384.349,248.108 382.942,246.639 " fill="none" stroke-width="0.5" stroke="rgb(0,0,0)" />
	<polygon points="327.671,236.313 326.094,236.312 325.102,236.211 326.969,238.321 329.14,241.946 329.806,241.614 330.765,241.244 330.433,240.635 329.838,239.228 329.134,236.968 328.973,236.181 " fill="none" stroke-width="0.5" stroke="rgb(0,0,0)" />
	<polygon points="312.653,226.456 310.795,227.044 310.043,227.2 310.815,228.07 312.885,229.301 314.942,230.194 314.269,229.198 313.623,228.012 313.028,226.606 312.943,226.332 " fill="none" stroke-width="0.5" stroke="rgb(0,0,0)" />
	<polygon points="464.534,227.239 464.539,227.217 464.541,227.198 " fill="none" stroke-width="0.5" stroke="rgb(0,0,0)" />
	<polygon points="87.6359,214.226 88.0987,214.808 88.9222,216.079 89.2784,216.767 89.7634,217.922 90.0152,218.69 90.2774,219.724 90.4269,220.545 90.5299,221.405 90.6801,221.331 92.846,220.63 93.575,220.508 95.9535,220.477 96.5973,220.567 98.691,221.169 99.3027,221.442 99.7059,221.69 99.801,220.409 99.9736,219.257 100.776,215.729 97.9871,216.036 96.2683,216.034 93.0791,215.678 91.3296,215.275 88.4654,214.256 86.8848,213.48 " fill="none" stroke-width="0.5" stroke="rgb(0,0,0)" />
	<polygon points="438.499,213.265 437.895,213.436 432.775,214.666 432.068,214.802 427.671,215.437 428.023,215.664 431.716,218.728 432.93,219.99 433.621,220.893 433.781,220.522 434.528,219.17 437.051,215.516 437.792,214.6 439.295,213.004 " fill="none" stroke-width="0.5" stroke="rgb(0,0,0)" />
	<polygon points="65.6692,216.283 66.0446,216.531 66.5615,216.998 67.8812,218.552 68.2466,219.118 69.2075,217.483 68.138,217.203 66.7975,216.717 65.7153,216.209 " fill="none" stroke-width="0.5" stroke="rgb(0,0,0)" />
	<polygon points="190.007,214.069 191.216,216.47 191.305,216.71 193.422,216.187 193.141,215.651 192.617,215.048 191.796,214.449 190.457,213.831 189.71,213.624 " fill="none" stroke-width="0.5" stroke="rgb(0,0,0)" />
	<polygon points="381.904,201.938 381.223,203.185 380.387,204.417 379.869,205.043 380.472,205.54 380.933,206.001 382.86,203.601 383.768,203.232 381.976,201.77 " fill="none" stroke-width="0.5" stroke="rgb(0,0,0)" />
	<polygon points="367.821,177.651 368.051,179.89 368.051,180.259 368.741,180.259 367.619,176.671 " fill="none" stroke-width="0.5" stroke="rgb(0,0,0)" />
	<polygon points="146.705,175.963 145.671,176.237 145.45,176.279 146.845,177.614 147.455,175.709 " fill="none" stroke-width="0.5" stroke="rgb(0,0,0)" />
	<polygon points="108.092,164.197 107.057,165.053 105.821,165.889 104.635,166.536 103.229,167.133 101.921,167.542 101.666,167.595 104.677,169.64 105.477,170.263 108.476,172.93 109.274,173.752 111.863,176.845 111.996,177.035 112.692,175.753 113.787,174.216 115.174,172.699 116.01,172 115.689,171.765 112.795,169.121 111.71,167.897 109.488,164.786 108.761,163.527 " fill="none" stroke-width="0.5" stroke="rgb(0,0,0)" />
	<polygon points="365.514,171.272 366.246,172.61 366.635,173.522 366.271,172.359 366.039,171.413 365.96,170.972 " fill="none" stroke-width="0.5" stroke="rgb(0,0,0)" />
	<polygon points="424.143,143.592 422.701,145.316 419.96,147.768 418.617,148.734 416.799,149.768 417.241,149.808 418.752,150.096 425.172,151.993 426.612,152.58 432.297,155.592 432.341,155.62 430.875,150.508 430.799,147.521 429.986,147.237 428.307,146.499 426.923,145.714 425.563,144.746 424.205,143.491 " fill="none" stroke-width="0.5" stroke="rgb(0,0,0)" />
	<polygon points="355.61,144.914 356.886,144.786 358.448,144.786 359.788,144.921 361.316,145.232 362.1,145.475 358.051,141.932 357.108,140.949 356.105,139.702 " fill="none" stroke-width="0.5" stroke="rgb(0,0,0)" />
	<polygon points="127.041,138.177 127.449,139.395 127.927,141.688 127.928,141.696 128.159,140.897 128.417,139.858 128.628,138.84 128.792,137.857 128.867,137.246 " fill="none" stroke-width="0.5" stroke="rgb(0,0,0)" />
	<polygon points="314.003,125.534 312.958,126.021 312.058,126.641 311.319,127.349 310.768,128.078 310.427,128.729 310.05,129.92 309.231,131.224 310.056,131.558 310.886,131.789 311.763,131.93 312.826,131.983 313.064,131.976 313.509,131.942 314.067,131.88 314.708,131.798 315.389,131.706 315.453,131.697 315.599,131.679 315.346,131.27 315.161,130.915 314.711,129.867 314.582,129.493 314.301,128.451 314.225,128.064 314.094,127.053 314.07,126.66 314.093,125.509 " fill="none" stroke-width="0.5" stroke="rgb(0,0,0)" />
	<polygon points="185.721,111.46 185.47,112.533 185.24,113.277 184.706,114.576 184.37,115.222 183.396,116.668 182.946,117.199 181.458,118.55 180.885,118.949 179.051,119.893 178.347,120.145 176.528,120.558 175.684,120.645 175.123,120.601 175.268,120.898 176.798,124.87 179.481,123.004 180.435,122.436 183.555,120.87 184.774,120.382 187.996,119.397 189.473,119.098 192.019,118.834 187.852,113.913 187.597,113.596 185.764,111.187 " fill="none" stroke-width="0.5" stroke="rgb(0,0,0)" />
	<polygon points="92.8286,115.291 92.3146,115.729 90.0514,117.491 88.9287,118.22 86.5906,119.467 84.4275,120.238 82.0262,120.711 81.379,120.739 81.5033,122.923 81.514,123.54 81.4846,124.863 82.638,124.233 84.0456,123.636 85.3545,123.226 86.8939,122.91 88.297,122.767 89.8775,122.767 91.2826,122.91 92.82,123.225 94.1308,123.635 94.4561,123.773 93.8507,119.246 93.83,119.077 93.353,114.804 " fill="none" stroke-width="0.5" stroke="rgb(0,0,0)" />
	<polygon points="125.424,112.473 124.729,115.254 125.417,114.446 126.313,113.551 126.437,113.446 126.252,113.278 125.443,112.404 " fill="none" stroke-width="0.5" stroke="rgb(0,0,0)" />
	<polygon points="416.472,106.227 416.453,105.119 416.742,104.577 416.312,104.572 416.16,104.569 414.616,104.524 " fill="none" stroke-width="0.5" stroke="rgb(0,0,0)" />
	<polygon points="393.812,102.961 394.622,103.99 395.25,104.942 396.487,104.537 398.082,103.936 399.318,103.457 398.635,103.386 398.49,103.369 395.063,102.945 394.917,102.925 393.603,102.737 " fill="none" stroke-width="0.5" stroke="rgb(0,0,0)" />
	<polygon points="146.362,104.449 148.668,104.28 146.678,102.68 " fill="none" stroke-width="0.5" stroke="rgb(0,0,0)" />
	<polygon points="383.516,98.2822 384.594,98.3469 384.199,97.771 " fill="none" stroke-width="0.5" stroke="rgb(0,0,0)" />
	<polygon points="66.7272,96.3482 68.7212,97.2677 68.946,97.4125 69.033,96.7438 69.0344,96.7326 69.2602,95.015 " fill="none" stroke-width="0.5" stroke="rgb(0,0,0)" />
	<polygon points="127.296,64.0176 126.568,67.4708 126.461,67.913 125.614,71.0201 125.338,71.7254 125.777,72.0097 126.069,70.8977 126.33,70.1397 127.188,68.3958 127.557,67.8343 129.212,66.1269 127.652,63.9546 127.393,63.6122 " fill="none" stroke-width="0.5" stroke="rgb(0,0,0)" />
	<polygon points="103.787,62.7038 101.948,64.2785 101.754,64.4394 99.9725,65.8673 99.2244,66.3978 97.7696,67.306 97.8301,67.5167 98.0574,68.585 98.1651,69.3515 98.2144,69.9013 100.023,68.8335 102.081,68.1201 105.267,67.8652 105.145,66.4036 105.124,66.0772 104.983,62.6636 104.9,61.7978 " fill="none" stroke-width="0.5" stroke="rgb(0,0,0)" />
	<polygon points="410.76,62.6965 411.206,63.0979 412.826,64.6731 414.539,66.2806 416.222,67.6322 417.836,68.6123 419.347,69.1808 421.217,69.4168 421.274,69.4142 421.733,69.3444 422.035,69.2562 422.041,69.2378 422.059,69.0743 421.783,68.1584 420.469,66.8014 417.093,64.804 412.416,62.8664 410.003,62.0666 " fill="none" stroke-width="0.5" stroke="rgb(0,0,0)" />
	<polygon points="401.775,59.4626 401.824,59.4533 401.775,59.4353 " fill="none" stroke-width="0.5" stroke="rgb(0,0,0)" />
	<polygon points="163.437,48.6122 163.981,48.797 163.565,48.3839 " fill="none" stroke-width="0.5" stroke="rgb(0,0,0)" />
	<polygon points="397.674,39.0524 398.313,40.5873 398.602,41.561 399.522,41.0991 400.475,40.6973 403.447,39.6708 403.957,39.5138 406.803,38.7442 406.404,38.5333 402.177,36.9309 398.241,35.8112 395.526,35.1317 " fill="none" stroke-width="0.5" stroke="rgb(0,0,0)" />
	<polygon points="152.218,30.6326 152.418,30.7577 152.398,30.5282 " fill="none" stroke-width="0.5" stroke="rgb(0,0,0)" />
</svg>
