<?xml version="1.0" standalone="no" ?>
<!DOCTYPE svg PUBLIC "-//W3C//DTD SVG 1.1//EN" "http://www.w3.org/Graphics/SVG/1.1/DTD/svg11.dtd">
<svg width="500px" height="500px" xmlns="http://www.w3.org/2000/svg" version="1.1" >
	<polygon points="465.723,280.862 464.938,294.854 462.599,309.625 458.631,325.285 453.008,341.509 445.715,357.986 436.747,374.418 426.101,390.517 413.778,406.006 399.775,420.616 384.09,434.091 366.708,446.18 347.605,456.64 326.741,465.229 304.061,471.697 279.5,475.784 252.98,477.212 227.146,475.865 203.102,471.996 180.816,465.854 160.243,457.676 141.343,447.686 124.092,436.102 108.475,423.144 94.4895,409.032 82.1398,393.997 71.4346,378.276 62.3836,362.115 54.9948,345.769 49.2723,329.5 45.2134,313.581 42.8046,298.294 41.9905,283.491 41.9905,34.5602 49.9898,34.4989 61.4814,34.4107 72.9731,34.3225 84.4648,34.2343 95.9565,34.1462 95.9565,34.1462 107.448,34.058 118.94,33.9698 141.923,33.7935 153.415,33.7053 164.907,33.6171 176.398,33.5289 187.89,33.4408 195.627,33.3814 195.607,43.9327 195.581,56.8315 195.556,69.7303 195.556,69.7303 195.53,82.6291 195.479,108.427 195.479,108.427 195.454,121.325 195.403,147.123 195.378,160.022 195.352,172.921 195.352,172.921 195.327,185.819 195.301,198.718 195.276,211.617 195.276,211.617 195.25,224.516 195.251,224.662 195.338,235.957 195.339,236.07 195.504,246.887 195.508,247.092 195.805,257.398 195.818,257.712 196.302,267.474 196.331,267.918 197.059,277.102 197.119,277.704 198.146,286.277 198.262,287.072 199.643,295.001 199.859,296.029 201.648,303.279 202.033,304.582 204.287,311.121 204.943,312.72 207.717,318.514 208.778,320.379 212.127,325.395 213.719,327.39 217.698,331.595 219.841,333.468 224.506,336.828 227.032,338.298 232.438,340.78 235.032,341.695 241.235,343.264 243.608,343.667 250.663,344.291 251.947,329.779 252.949,344.314 260.21,343.813 262.595,343.456 268.942,341.978 271.6,341.093 277.095,338.674 279.721,337.189 284.427,333.868 286.668,331.93 290.646,327.742 292.3,325.661 295.613,320.642 296.697,318.703 299.406,312.891 300.059,311.244 302.227,304.674 302.598,303.35 304.287,296.06 304.488,295.03 305.759,287.057 305.863,286.275 306.779,277.656 306.829,277.077 307.452,267.847 307.474,267.433 307.866,257.63 307.874,257.352 308.096,247.012 308.099,246.848 308.214,236.009 308.215,235.942 308.285,224.639 308.285,224.515 308.259,211.617 308.207,185.819 308.182,172.92 308.182,172.92 308.156,160.021 308.104,134.224 308.104,134.224 308.078,121.325 308.001,82.6286 308.001,82.6285 307.975,69.7298 307.901,33.1679 316.375,33.1134 328.128,33.0379 339.881,32.9623 351.635,32.8867 363.388,32.8112 375.141,32.7356 386.894,32.66 410.401,32.5089 422.154,32.4334 433.907,32.3578 445.661,32.2822 457.414,32.2067 465.723,32.1533 " fill="none" stroke-width="0.5" stroke="rgb(0,0,0)" />
</svg>
