<?xml version="1.0" standalone="no" ?>
<!DOCTYPE svg PUBLIC "-//W3C//DTD SVG 1.1//EN" "http://www.w3.org/Graphics/SVG/1.1/DTD/svg11.dtd">
<svg width="500px" height="500px" xmlns="http://www.w3.org/2000/svg" version="1.1" >
	<polygon points="480.823,79.8909 480.653,80.2941 479.363,82.4286 474.047,88.9006 472.421,90.4297 467.734,93.8174 468.812,94.0388 470.339,94.5017 472.435,95.3538 474.013,96.1941 475.736,97.3532 477.168,98.559 478.537,99.9905 479.647,101.425 480.681,103.094 480.823,103.383 480.823,190.903 479.084,192.915 477.505,193.99 474.888,194.966 475.029,195.101 479.031,199.542 479.993,200.833 480.823,202.193 480.823,246.459 479.554,248.619 479.123,249.282 476.722,252.631 478.391,253.009 479.651,253.457 480.823,254.058 480.823,281.286 480.062,294.853 479.658,295.412 477.08,298.6 476.377,299.371 473.66,302.011 474.166,302.805 476.082,306.472 476.593,307.659 477.694,310.844 477.405,312.666 473.11,329.62 467.07,347.047 459.27,364.67 455.018,372.461 450.97,372.698 450.122,372.316 450.717,378.712 450.66,380.446 449.695,382.213 438.331,399.399 425.161,415.952 410.17,431.593 401.026,439.449 399.095,438.843 397.602,438.137 397.052,437.805 396.974,439.387 396.243,443.557 393.345,446.047 374.668,459.037 354.126,470.285 331.702,479.516 322.457,482.153 322.194,482.078 320.576,481.437 317.913,480.06 316.423,479.085 314.665,477.657 314.669,477.676 314.725,478.115 314.791,478.95 314.804,479.365 314.507,481.905 314.11,483.378 313.429,484.728 307.382,486.452 281.151,490.817 265.792,491.644 264.306,490.431 263.594,489.742 263.059,490.015 262.57,490.245 258.428,492.041 252.993,492.333 225.548,490.902 199.887,486.773 179.078,481.038 178.659,480.741 174.74,477.988 171.849,476.361 170.16,475.875 167.277,475.589 163.966,475.406 153.907,471.407 133.585,460.665 129.093,457.649 126.957,454.246 126.802,452.316 125.894,452.307 120.222,451.692 115.039,448.212 98.2672,434.295 83.2685,419.161 70.0408,403.057 69.8095,402.718 69.6236,401.23 69.5841,399.459 69.6897,398.137 68.801,398.168 65.4628,396.334 58.5824,386.23 48.8916,368.927 40.9666,351.394 34.8057,333.879 33.8184,330.006 33.8631,329.79 36.8314,320.229 37.3268,318.982 39.5341,314.475 37.3833,314.431 35.4142,313.812 31.8742,311.665 30.0556,309.847 29.1488,308.642 27.7694,299.888 26.8905,283.906 26.8905,235.681 28.3785,232.262 29.3881,230.524 29.9452,229.779 27.9422,228.625 26.8905,227.802 26.8905,162.704 27.035,162.217 28.6071,157.835 29.1647,156.595 31.5913,152.162 32.5257,150.786 34.2837,148.666 33.8614,148.543 32.2923,147.913 30.0061,146.727 28.5676,145.789 26.8905,144.443 26.8905,110.513 27.0556,110.348 28.0717,109.479 29.2859,108.592 29.0155,108.425 27.4784,107.216 27.0833,106.826 26.8905,106.582 26.8905,89.8431 28.1646,87.9173 26.8905,87.4913 26.8905,40.8653 26.9334,40.829 30.8241,37.9798 31.247,37.6888 34.6658,35.4827 34.4259,35.4219 33.9482,35.2862 30.1976,34.1046 28.886,33.5706 26.8905,32.5615 26.8905,19.5757 38.3822,19.4875 49.8739,19.3993 61.3656,19.3111 72.8572,19.223 84.3489,19.1348 95.8406,19.0466 107.332,18.9584 116.902,18.885 117.014,19.01 117.221,19.2494 118.375,20.6318 118.676,20.9131 118.805,20.9318 118.948,20.9114 119.39,20.5223 120.631,19.1533 120.856,18.9151 120.915,18.8542 130.316,18.7821 141.807,18.6939 153.299,18.6057 157.381,18.5744 157.979,20.4587 158.902,19.7929 160.435,18.9092 161.248,18.5447 164.791,18.5175 176.282,18.4294 187.774,18.3412 210.757,18.1648 210.732,31.0636 210.706,43.9624 210.681,56.8612 210.679,58.0624 209.774,58.4065 210.676,59.4402 210.656,69.76 210.63,82.6588 210.624,85.9612 210.236,86.1687 209.366,86.5325 207.944,86.988 206.941,87.2168 205.617,87.413 204.489,87.4924 204.311,87.4896 204.639,87.7443 204.87,87.9298 209.165,91.5051 209.459,91.7613 210.61,92.8101 210.579,108.456 210.554,121.355 210.503,147.153 210.478,160.052 210.452,172.95 210.443,177.487 209.727,178.801 208.899,180.052 207.118,182.294 206.021,183.442 203.879,185.307 203.119,185.849 203.438,186.026 205.837,187.67 207.18,188.807 209.153,190.852 210.303,192.336 210.414,192.516 210.401,198.748 210.376,211.647 210.362,218.638 210.046,219.207 209.836,219.564 209.011,220.896 207.614,222.265 209.69,224.186 210.32,224.832 210.353,224.869 210.438,235.84 210.602,246.657 210.899,256.963 211.246,263.953 211.121,264.111 208.939,266.75 207.447,268.735 207.08,269.422 207.113,269.477 208.29,270.666 210.457,272.491 210.607,272.621 211.945,273.801 212.112,275.909 213.138,284.482 214.519,292.41 216.308,299.661 218.563,306.2 221.336,311.994 224.685,317.011 228.665,321.215 233.33,324.575 238.737,327.056 244.939,328.626 250.305,329.101 250.667,329.693 252.176,332.817 252.665,334.111 253.8,331.983 254.707,330.611 256.036,328.966 259.171,328.749 265.518,327.271 271.013,324.853 275.719,321.532 279.698,317.343 283.01,312.324 285.72,306.511 287.888,299.942 289.576,292.653 290.848,284.68 291.763,276.06 292.313,267.915 292.521,267.708 294.142,266.437 295.154,265.822 295.502,265.662 293.417,263.873 292.545,262.86 292.778,257.028 293,246.688 293.115,235.848 293.185,224.546 293.183,223.731 293.483,223.152 293.182,222.851 293.159,211.647 293.133,198.748 293.13,196.916 293.892,196.152 295.37,194.925 296.56,194.115 295.999,193.287 295.352,192.1 294.687,190.532 294.277,189.222 293.926,187.507 293.783,186.104 293.783,184.339 293.926,182.938 294.278,181.221 294.688,179.913 295.353,178.345 296,177.159 296.933,175.783 297.122,175.554 295.027,174.195 293.614,172.884 293.08,172.264 293.056,160.052 293.004,134.254 292.991,127.833 293.438,127.408 293.282,126.759 293.198,126.368 293.051,125.606 292.986,125.216 292.978,121.355 292.971,117.967 292.974,117.941 293.219,116.502 293.988,113.526 294.497,112.089 295.811,109.211 296.639,107.778 297.577,106.461 296.948,106.556 296.712,106.555 296.229,106.538 296.037,106.526 294.74,106.345 294.589,106.313 292.947,105.692 292.902,83.1404 292.998,82.9632 292.901,82.9353 292.901,82.6588 292.875,69.76 292.817,40.8356 292.864,40.8099 293.065,40.7049 292.816,40.34 292.797,31.0636 292.771,18.1648 304.525,18.0893 306.003,18.0798 306.164,18.1649 307.647,18.9725 307.72,18.6318 307.873,18.0678 316.278,18.0137 328.031,17.9382 339.784,17.8626 351.538,17.787 363.291,17.7115 375.044,17.6359 379.212,17.6091 379.425,17.7068 380.945,18.6008 385.917,22.2504 387.059,20.0252 387.685,19.2972 389.994,17.5398 410.304,17.4092 422.057,17.3337 433.81,17.2581 442.901,17.1997 443.612,17.7052 445.415,19.3529 445.841,18.7001 447.085,17.1728 457.317,17.107 469.07,17.0314 480.823,16.9559 " fill="none" stroke-width="0.5" stroke="rgb(0,0,0)" />
	<polygon points="306.28,468.664 306.591,468.72 307.26,468.913 308.821,469.585 308.403,468.561 307.776,466.461 " fill="none" stroke-width="0.5" stroke="rgb(0,0,0)" />
	<polygon points="193.243,443.359 193.664,444.599 194.052,446.105 194.552,446.215 196.032,446.453 197.455,446.6 198.576,446.644 200.074,446.562 201.44,446.322 202.594,445.944 203.473,445.478 204.112,444.952 204.637,444.273 204.769,443.982 202.968,444.117 201.638,444.114 195.42,443.625 193.948,443.381 193.167,443.182 " fill="none" stroke-width="0.5" stroke="rgb(0,0,0)" />
	<polygon points="316.889,421.427 316.51,421.508 316.77,422.191 317.122,423.357 317.453,424.809 317.522,425.145 317.713,426.168 318.163,426.492 318.709,426.92 319.576,427.655 320.549,428.623 320.875,429.003 321.451,428.451 321.891,428.058 322.6,427.466 323.223,426.991 323.923,426.506 324.818,425.963 325.508,425.599 325.73,425.504 325.679,425.406 325.33,424.165 325.004,421.809 325.004,418.753 " fill="none" stroke-width="0.5" stroke="rgb(0,0,0)" />
	<polygon points="167.306,413.44 167.312,414.708 167.048,418.566 169.204,418.798 169.223,418.585 169.557,416.845 169.653,416.525 170.466,414.653 170.624,414.382 171.155,413.684 169.038,412.575 168.358,412.178 167.147,411.396 " fill="none" stroke-width="0.5" stroke="rgb(0,0,0)" />
	<polygon points="273.502,415.613 273.831,415.556 274.073,415.52 272.067,414.332 " fill="none" stroke-width="0.5" stroke="rgb(0,0,0)" />
	<polygon points="259.922,404.571 259.334,406.015 261.892,407.292 262.457,407.6 264.561,408.853 259.922,404.571 " fill="none" stroke-width="0.5" stroke="rgb(0,0,0)" />
	<polygon points="351.085,396.061 350.518,397.008 351.808,396.936 351.119,395.992 " fill="none" stroke-width="0.5" stroke="rgb(0,0,0)" />
	<polygon points="204.58,391.185 205.083,392.305 206.68,390.632 205.56,390.62 204.192,390.469 " fill="none" stroke-width="0.5" stroke="rgb(0,0,0)" />
	<polygon points="244.433,374.518 245.415,375.34 245.41,375.323 245.142,373.824 245.121,373.594 " fill="none" stroke-width="0.5" stroke="rgb(0,0,0)" />
	<polygon points="82.89,368.583 81.844,368.658 81.4391,368.662 81.6735,369.255 82.069,371.867 82.7206,371.286 83.8492,370.435 84.5811,369.971 83.6153,368.977 83.2603,368.534 " fill="none" stroke-width="0.5" stroke="rgb(0,0,0)" />
	<polygon points="118.235,360.341 118.111,360.759 118.83,360.694 118.339,359.98 118.313,359.926 " fill="none" stroke-width="0.5" stroke="rgb(0,0,0)" />
	<polygon points="394.656,343.114 393.89,343.664 392.869,344.317 390.657,345.327 389.821,345.575 389.09,345.635 389.58,347.022 389.667,347.402 392.299,345.197 394.386,343.901 395.409,343.451 395.326,343.348 394.959,342.871 " fill="none" stroke-width="0.5" stroke="rgb(0,0,0)" />
	<polygon points="59.9341,341.586 61.1459,343.535 61.7015,341.85 62.2082,340.727 61.1294,340.415 59.7285,339.901 " fill="none" stroke-width="0.5" stroke="rgb(0,0,0)" />
	<polygon points="157.799,339.087 156.349,340.206 155.608,340.663 156.344,341.109 157.384,341.848 158.887,343.093 158.906,342.508 158.945,341.914 159.124,340.149 159.221,339.467 159.527,337.789 159.634,337.333 " fill="none" stroke-width="0.5" stroke="rgb(0,0,0)" />
	<polygon points="414.991,334.528 415.127,335.358 415.174,335.685 415.333,336.954 415.387,337.569 415.447,338.698 415.456,339.411 415.446,339.744 415.444,339.785 417.11,339.927 416.267,338.284 415.389,334.485 " fill="none" stroke-width="0.5" stroke="rgb(0,0,0)" />
	<polygon points="165.327,327.837 165.24,328.076 165.479,327.896 167.163,327.117 165.991,325.343 " fill="none" stroke-width="0.5" stroke="rgb(0,0,0)" />
	<polygon points="76.4198,312.465 75.5511,315.796 75.2741,318.361 75.2982,319.215 75.3637,319.837 75.6738,319.427 77.0915,317.888 78.3455,316.767 80.0465,315.52 80.1821,315.439 79.1268,314.753 77.6978,313.612 76.4549,312.398 76.4471,312.389 " fill="none" stroke-width="0.5" stroke="rgb(0,0,0)" />
	<polygon points="161.143,299.933 159.96,300.09 159.793,300.094 160.105,300.638 161.562,303.547 161.566,303.508 162.059,300.461 162.228,299.676 " fill="none" stroke-width="0.5" stroke="rgb(0,0,0)" />
	<polygon points="458.463,291.086 458.385,291.179 458.604,291.215 458.6,291.19 458.554,291.011 " fill="none" stroke-width="0.5" stroke="rgb(0,0,0)" />
	<polygon points="161.063,251.496 161.528,253.12 161.693,253.796 162.058,255.607 162.132,256.026 162.423,257.955 162.456,258.188 162.646,259.733 163.294,257.477 164.954,254.332 165.683,253.452 162.561,252.648 160.795,251.059 " fill="none" stroke-width="0.5" stroke="rgb(0,0,0)" />
	<polygon points="158.118,247.24 158.596,247.507 158.197,246.438 " fill="none" stroke-width="0.5" stroke="rgb(0,0,0)" />
	<polygon points="327.762,237.208 327.165,237.208 327.741,237.859 329.486,240.773 329.514,240.762 328.979,239.496 328.275,237.236 328.259,237.158 " fill="none" stroke-width="0.5" stroke="rgb(0,0,0)" />
	<polygon points="311.868,227.649 312.709,228.149 312.423,227.473 " fill="none" stroke-width="0.5" stroke="rgb(0,0,0)" />
	<polygon points="89.7214,215.665 90.0777,216.353 90.6186,217.642 90.8704,218.41 91.1628,219.562 91.2791,220.201 92.697,219.743 93.426,219.62 96.079,219.585 96.7228,219.676 98.9091,220.305 99.096,219.058 99.6179,216.762 98.0856,216.93 96.1684,216.929 92.9792,216.573 91.0278,216.123 89.7156,215.656 " fill="none" stroke-width="0.5" stroke="rgb(0,0,0)" />
	<polygon points="432.985,215.541 432.197,215.693 429.872,216.029 432.291,218.035 433.46,219.251 433.787,218.659 436.31,215.005 436.574,214.679 " fill="none" stroke-width="0.5" stroke="rgb(0,0,0)" />
	<polygon points="191.832,215.692 191.928,215.659 191.75,215.529 " fill="none" stroke-width="0.5" stroke="rgb(0,0,0)" />
	<polygon points="107.631,165.746 106.252,166.679 105.066,167.326 103.716,167.899 105.183,168.896 106.075,169.591 109.074,172.257 109.964,173.174 111.847,175.424 111.901,175.323 113.123,173.609 114.509,172.092 114.615,172.003 112.188,169.785 110.978,168.42 108.756,165.309 108.563,164.975 " fill="none" stroke-width="0.5" stroke="rgb(0,0,0)" />
	<polygon points="423.301,145.987 420.56,148.439 419.325,149.327 425.427,151.13 427.033,151.785 430.891,153.828 430.01,150.756 429.909,148.161 429.624,148.061 427.944,147.323 426.401,146.447 425.041,145.48 424.299,144.794 " fill="none" stroke-width="0.5" stroke="rgb(0,0,0)" />
	<polygon points="356.61,143.909 356.796,143.89 358.538,143.891 358.973,143.934 357.459,142.61 356.798,141.921 " fill="none" stroke-width="0.5" stroke="rgb(0,0,0)" />
	<polygon points="312.628,127.341 311.994,127.949 311.531,128.562 311.261,129.076 310.908,130.192 310.559,130.764 311.079,130.909 311.857,131.033 312.835,131.083 313.015,131.077 313.425,131.045 313.96,130.987 314.202,130.955 313.861,130.161 313.732,129.787 313.418,128.624 313.342,128.238 313.196,127.11 313.187,126.956 " fill="none" stroke-width="0.5" stroke="rgb(0,0,0)" />
	<polygon points="186.1,113.543 185.504,114.992 185.168,115.638 184.082,117.251 183.632,117.782 181.973,119.288 181.399,119.688 179.354,120.741 178.649,120.993 176.621,121.453 176.453,121.471 177.225,123.476 178.967,122.265 180.031,121.632 183.151,120.066 184.511,119.521 187.733,118.536 189.381,118.202 190.23,118.114 187.165,114.495 186.881,114.141 186.194,113.238 " fill="none" stroke-width="0.5" stroke="rgb(0,0,0)" />
	<polygon points="90.6045,118.201 89.3522,119.015 87.0141,120.261 84.6014,121.121 82.3277,121.569 82.4018,122.872 82.4102,123.357 83.7767,122.777 85.0856,122.367 86.8027,122.014 88.2058,121.871 89.9686,121.871 91.3737,122.014 93.0885,122.366 93.3717,122.454 92.9586,119.365 92.9355,119.177 92.6488,116.609 " fill="none" stroke-width="0.5" stroke="rgb(0,0,0)" />
	<polygon points="415.129,65.6007 416.739,66.8935 418.231,67.7995 419.565,68.3012 420.822,68.4598 419.906,67.5144 416.689,65.6111 413.917,64.4627 " fill="none" stroke-width="0.5" stroke="rgb(0,0,0)" />
	<polygon points="102.533,64.9622 102.317,65.1416 100.535,66.5695 99.701,67.1613 98.793,67.7281 98.9455,68.4452 99.7281,67.9832 101.786,67.2697 104.294,67.0348 104.248,66.4786 104.225,66.1145 104.121,63.603 " fill="none" stroke-width="0.5" stroke="rgb(0,0,0)" />
	<polygon points="127.712,66.4042 128.052,66.0539 127.846,65.768 " fill="none" stroke-width="0.5" stroke="rgb(0,0,0)" />
	<polygon points="398.464,38.6198 399.155,40.2793 400.181,39.8466 403.153,38.8201 403.722,38.645 403.978,38.576 401.894,37.786 398.008,36.6808 397.304,36.5046 " fill="none" stroke-width="0.5" stroke="rgb(0,0,0)" />
</svg>
