<?xml version="1.0" standalone="no" ?>
<!DOCTYPE svg PUBLIC "-//W3C//DTD SVG 1.1//EN" "http://www.w3.org/Graphics/SVG/1.1/DTD/svg11.dtd">
<svg width="500px" height="500px" xmlns="http://www.w3.org/2000/svg" version="1.1" >
	<polygon points="470.873,93.0908 470.608,93.2826 470.81,93.3438 470.873,93.3695 470.873,281.007 470.065,295.403 467.649,310.662 463.569,326.763 457.804,343.398 450.338,360.266 441.163,377.077 430.272,393.546 417.66,409.398 403.321,424.36 387.246,438.169 369.423,450.565 349.829,461.294 328.433,470.102 305.194,476.73 280.063,480.911 252.984,482.369 226.601,480.993 202.005,477.035 179.176,470.744 158.082,462.359 138.697,452.113 121.004,440.232 104.994,426.947 90.6625,412.487 78.0133,397.087 67.0512,380.989 57.782,364.439 50.2103,347.687 44.3383,330.993 40.1636,314.62 37.6767,298.837 36.8405,283.632 36.8405,29.4496 38.4586,29.4372 49.9502,29.349 61.4419,29.2608 72.9336,29.1727 84.4253,29.0845 95.9169,28.9963 107.409,28.9081 118.9,28.82 141.884,28.6436 153.375,28.5554 164.867,28.4673 176.359,28.3791 187.85,28.2909 187.85,28.2909 200.788,28.1916 200.782,31.044 200.782,31.044 200.757,43.9428 200.731,56.8416 200.706,69.7404 200.706,69.7404 200.68,82.6392 200.629,108.437 200.629,108.437 200.604,121.336 200.553,147.133 200.553,147.133 200.528,160.032 200.502,172.931 200.502,172.931 200.477,185.83 200.451,198.728 200.426,211.627 200.426,211.627 200.4,224.526 200.401,224.622 200.488,235.917 200.489,235.991 200.653,246.808 200.656,246.944 200.953,257.25 200.961,257.457 201.446,267.219 201.465,267.511 202.193,276.695 202.232,277.092 203.259,285.665 203.336,286.189 204.716,294.117 204.859,294.795 206.648,302.045 206.902,302.903 209.156,309.443 209.588,310.496 212.362,316.291 213.061,317.519 216.41,322.535 217.459,323.85 221.438,328.055 222.85,329.289 227.515,332.649 229.18,333.618 234.586,336.099 236.296,336.702 242.499,338.272 244.062,338.537 251.117,339.161 251.947,329.779 252.595,339.176 259.856,338.676 261.427,338.44 267.774,336.962 269.526,336.379 275.021,333.961 276.751,332.982 281.457,329.66 282.934,328.384 286.912,324.195 288.002,322.824 291.315,317.805 292.029,316.528 294.738,310.715 295.169,309.63 297.336,303.06 297.581,302.188 299.27,294.898 299.402,294.219 300.673,286.246 300.742,285.731 301.658,277.112 301.691,276.73 302.314,267.5 302.328,267.228 302.72,257.425 302.725,257.241 302.948,246.902 302.949,246.794 303.064,235.954 303.065,235.91 303.135,224.607 303.135,224.526 303.109,211.627 303.083,198.728 303.057,185.829 303.032,172.93 303.032,172.93 303.006,160.032 302.954,134.234 302.954,134.234 302.928,121.335 302.851,82.6389 302.851,82.6389 302.825,69.7401 302.747,31.0437 302.747,31.0437 302.741,28.051 304.589,28.0391 316.342,27.9635 339.848,27.8124 351.602,27.7368 363.355,27.6613 375.108,27.5857 386.861,27.5102 410.368,27.359 422.121,27.2835 433.874,27.2079 445.628,27.1324 457.381,27.0568 469.134,26.9812 469.134,26.9812 470.873,26.97 " fill="none" stroke-width="0.5" stroke="rgb(0,0,0)" />
	<polygon points="195.066,445.032 196.195,445.213 197.544,445.353 198.566,445.393 199.931,445.318 200.262,445.26 195.322,444.871 195.012,444.82 " fill="none" stroke-width="0.5" stroke="rgb(0,0,0)" />
	<polygon points="318.117,422.339 318.341,423.079 318.672,424.532 318.751,424.916 318.85,425.446 318.894,425.478 319.518,425.967 320.385,426.702 320.928,427.243 321.09,427.098 321.798,426.507 322.512,425.964 323.212,425.479 324.227,424.862 324.126,424.503 323.754,421.809 323.754,420.481 " fill="none" stroke-width="0.5" stroke="rgb(0,0,0)" />
	<polygon points="168.559,414.793 168.467,416.14 169.335,414.142 168.554,413.732 " fill="none" stroke-width="0.5" stroke="rgb(0,0,0)" />
	<polygon points="76.784,316.022 76.7275,316.545 77.6063,315.759 78.0113,315.462 77.1162,314.748 " fill="none" stroke-width="0.5" stroke="rgb(0,0,0)" />
	<polygon points="163.213,255.01 163.613,254.252 163.036,254.132 " fill="none" stroke-width="0.5" stroke="rgb(0,0,0)" />
	<polygon points="92.0582,218.021 92.2057,218.602 92.4901,218.51 93.219,218.388 96.2533,218.348 96.897,218.438 97.89,218.724 98.0153,218.173 96.0297,218.171 92.8405,217.815 91.9213,217.603 " fill="none" stroke-width="0.5" stroke="rgb(0,0,0)" />
	<polygon points="433.277,216.757 432.814,216.845 433.089,217.073 433.248,217.239 433.642,216.669 " fill="none" stroke-width="0.5" stroke="rgb(0,0,0)" />
	<polygon points="106.851,167.777 106.219,168.122 106.906,168.657 109.904,171.323 110.922,172.372 111.764,173.378 112.2,172.766 112.836,172.07 111.345,170.708 109.961,169.147 108.288,166.804 " fill="none" stroke-width="0.5" stroke="rgb(0,0,0)" />
	<polygon points="424.134,146.919 422.011,148.817 425.781,149.931 427.618,150.68 428.88,151.349 428.809,151.101 428.695,149.018 427.441,148.468 425.677,147.466 424.423,146.574 " fill="none" stroke-width="0.5" stroke="rgb(0,0,0)" />
	<polygon points="312.341,129.806 312.447,129.811 312.397,129.629 " fill="none" stroke-width="0.5" stroke="rgb(0,0,0)" />
	<polygon points="91.3726,119.188 89.9404,120.117 88.9834,120.628 90.0952,120.628 91.5002,120.771 91.8963,120.852 91.7196,119.531 91.6932,119.316 91.6544,118.968 " fill="none" stroke-width="0.5" stroke="rgb(0,0,0)" />
	<polygon points="186.277,116.215 185.04,118.052 187.367,117.341 187.854,117.242 186.546,115.698 " fill="none" stroke-width="0.5" stroke="rgb(0,0,0)" />
	<polygon points="399.822,38.6483 400.063,38.5649 399.75,38.4758 " fill="none" stroke-width="0.5" stroke="rgb(0,0,0)" />
</svg>
