<?xml version="1.0" standalone="no" ?>
<!DOCTYPE svg PUBLIC "-//W3C//DTD SVG 1.1//EN" "http://www.w3.org/Graphics/SVG/1.1/DTD/svg11.dtd">
<svg width="500px" height="500px" xmlns="http://www.w3.org/2000/svg" version="1.1" >
	<polygon points="480.823,28.555 480.783,28.5936 480.2,29.3227 479.729,30.0906 479.38,30.841 479.161,31.4923 479.068,31.9235 479.062,32.0022 479.193,33.7351 479.596,35.6888 480.274,38.0816 480.823,39.9087 480.823,74.4967 478.719,79.4765 477.74,81.0959 472.424,87.5678 471.191,88.7278 464.157,93.8122 462.974,94.493 458.261,96.591 459.352,97.0426 460.15,97.4839 461.13,96.4215 465.904,95.5854 468.39,96.0958 469.548,96.4471 471.644,97.2991 472.841,97.9366 474.564,99.0956 475.651,100.01 477.02,101.442 477.862,102.53 478.895,104.2 479.448,105.317 480.164,107.19 480.465,108.228 480.823,109.985 480.823,116.368 480.321,119.607 479.832,121.27 478.516,124.237 479.229,124.633 480.823,125.945 480.823,187.172 480.128,188.604 477.903,191.179 476.324,192.253 472.909,193.389 471.037,193.205 469.002,192.705 472.784,195.848 473.469,196.506 477.471,200.948 478.201,201.927 480.823,206.223 480.823,242.313 477.744,247.556 477.416,248.059 473.232,253.894 473.151,254.005 472.713,254.59 474.689,254.487 476.157,254.64 477.687,254.987 478.946,255.436 480.48,256.221 480.823,256.457 480.823,281.286 480.299,290.63 478.442,293.515 478.025,294.092 475.447,297.28 474.914,297.865 471.956,300.739 470.645,301.446 471.699,302.826 472.305,303.777 474.22,307.445 474.608,308.345 476.052,312.525 476.288,313.392 476.698,315.457 473.11,329.62 467.07,347.047 459.27,364.67 456.916,368.984 454.03,370.572 450.436,370.395 447.468,368.359 446.529,366.324 447.661,370.025 447.922,371.344 448.626,378.906 448.571,380.565 447.861,384.987 438.331,399.399 425.161,415.952 410.17,431.593 403.051,437.709 401.716,437.485 399.992,436.944 398.499,436.238 397.348,435.543 395.933,434.478 395.141,433.775 394.593,433.204 394.738,434.109 394.986,437.387 394.906,439.025 393.792,445.378 393.661,445.776 393.345,446.047 374.668,459.037 354.126,470.285 331.702,479.516 326.378,481.034 325.886,480.944 322.768,480.058 321.54,479.572 318.877,478.195 317.747,477.455 315.548,475.669 314.597,474.72 312.871,472.607 312.145,471.511 310.901,469.151 310.415,467.96 309.662,465.437 309.418,464.188 309.165,461.583 309.148,460.514 309.239,459.119 307.764,462.532 307.166,463.622 304.399,467.695 302.975,469.209 301.264,470.532 301.724,470.481 302.219,470.445 303.083,470.415 303.839,470.432 304.71,470.502 306.01,470.738 306.679,470.931 308.205,471.588 308.698,471.879 310.144,473.032 310.489,473.397 311.507,474.808 311.729,475.223 312.257,476.522 312.383,476.96 312.586,477.943 312.642,478.382 312.693,479.016 312.705,479.43 312.48,481.358 312.082,482.83 310.885,485.205 310.632,485.525 307.382,486.452 281.151,490.817 269.303,491.455 268.35,490.908 267.461,490.296 265.635,488.805 264.844,488.04 264.062,487.147 262.106,488.144 261.735,488.318 257.57,490.124 257.185,490.277 252.76,491.873 252.348,492.007 251.488,492.255 225.548,490.902 199.887,486.773 185.056,482.686 184.979,482.638 184.63,482.406 179.871,479.026 175.861,476.209 172.666,474.411 170.557,473.804 167.438,473.495 163.279,473.264 162.878,473.23 158.126,472.674 157.256,472.513 155.663,472.105 153.907,471.407 137.091,462.518 130.62,456.246 128.817,453.131 128.9,450.098 127.423,450.231 126.12,450.219 116.47,449.173 115.039,448.212 98.2672,434.295 83.2685,419.161 72.3141,405.825 71.7074,400.97 71.6775,399.626 71.9697,395.965 71.4435,396.193 67.8821,395.677 65.8405,394.251 64.0606,392.42 61.6615,390.752 58.5824,386.23 48.8916,368.927 40.9666,351.394 35.2435,335.123 35.6085,331.675 35.8686,330.412 38.837,320.852 39.2128,319.906 43.0089,312.154 41.7179,312.504 38.0137,312.428 36.0446,311.808 33.359,310.18 31.5405,308.362 30.4304,306.886 28.7969,303.93 28.3453,302.922 28.1676,302.415 27.7694,299.888 26.8905,283.906 26.8905,242.74 26.9129,242.649 28.3591,237.701 28.6424,236.919 30.304,233.1 31.0699,231.782 32.9084,229.323 33.453,228.89 33.0818,228.796 30.8499,227.901 29.2369,226.972 27.3199,225.471 26.8905,225.033 26.8905,196.873 27.0523,196.835 26.8905,196.114 26.8905,185.922 27.1173,185.447 26.8905,185.133 26.8905,172.914 27.1169,171.723 27.7474,168.131 27.826,167.75 28.8021,163.632 29.0117,162.926 30.5838,158.544 31.0068,157.603 33.4334,153.17 34.1422,152.126 37.6816,147.858 38.0736,147.475 36.9855,147.267 34.45,146.527 33.2597,146.049 30.9735,144.863 29.8822,144.152 27.8965,142.558 26.9556,141.633 26.8905,141.555 26.8905,113.489 26.9432,113.428 28.5394,111.834 29.3102,111.175 31.2296,109.773 32.0696,109.251 34.1639,108.159 33.9919,108.137 33.3584,108.011 32.3232,107.717 31.7589,107.505 30.6049,106.939 30.12,106.639 28.954,105.722 28.5589,105.331 27.5653,104.078 27.2703,103.595 26.8905,102.765 26.8905,95.2827 27.6607,92.9174 28.432,91.3192 31.7343,86.3276 30.417,86.3804 29.8182,86.2868 27.7304,85.5888 27.2372,85.3256 26.8905,85.0651 26.8905,62.4255 27.1756,62.0672 27.879,61.3286 28.3414,60.9172 26.8905,60.1116 26.8905,43.6858 27.4571,43.1313 28.1741,42.5233 32.0648,39.6741 32.3857,39.4533 36.8457,36.5753 36.9331,36.5198 39.9366,34.6477 39.2761,34.4842 39.241,34.4754 34.9416,33.3862 34.5792,33.2833 30.8287,32.1017 29.8336,31.6965 27.1808,30.3551 26.8905,30.0931 26.8905,19.5757 38.3822,19.4875 49.8739,19.3993 61.3656,19.3111 72.8572,19.223 78.7396,19.1778 80.6245,21.1017 80.7026,21.2442 81.1225,19.7212 81.4101,19.1573 84.3489,19.1348 95.8406,19.0466 107.332,18.9584 114.099,18.9065 115.452,20.4131 115.609,20.5947 116.846,22.0775 117.557,22.7413 117.914,22.9251 118.805,23.0533 119.647,22.9328 120.069,22.7221 120.866,22.021 122.187,20.5636 122.357,20.383 123.874,18.8315 130.316,18.7821 141.807,18.6939 153.299,18.6057 155.146,18.5916 155.357,18.9375 156.322,22.4043 155.743,25.0759 155.482,25.6572 157.217,23.5981 160.131,21.496 161.293,20.8257 165.702,18.8504 166.384,18.5892 166.652,18.5033 176.282,18.4294 187.774,18.3412 210.757,18.1648 210.74,26.9983 209.132,28.7627 207.217,30.0464 207.314,30.0529 208.111,30.1546 209.283,30.3772 210.653,30.7961 210.732,30.8301 210.732,31.0636 210.706,43.9624 210.683,55.8532 209.04,56.4784 208.023,56.6594 205.956,56.6985 205.435,56.626 209.503,61.2898 210.037,61.9921 210.669,62.9497 210.656,69.76 210.63,82.6588 210.628,83.5754 210.533,83.639 209.426,84.2312 208.556,84.595 207.477,84.9406 206.474,85.1693 205.47,85.3182 204.342,85.3976 203.21,85.3799 199.228,84.9746 198.43,84.8436 196.929,84.5016 198.362,85.535 198.548,85.6743 203.351,89.4031 203.526,89.5438 207.822,93.1191 208.045,93.3135 210.605,95.6462 210.579,108.456 210.554,121.355 210.551,122.603 209.943,123.129 208.779,123.894 207.274,124.524 207.726,124.839 208.897,125.88 210.541,127.737 210.503,147.153 210.478,160.052 210.454,172.104 209.714,174.246 209.271,175.249 207.883,177.797 207.255,178.746 205.474,180.987 204.641,181.858 202.5,183.724 201.454,184.469 198.986,185.888 198.633,186.045 201.171,187.158 202.251,187.758 204.65,189.402 205.669,190.265 207.642,192.31 208.514,193.436 209.999,195.853 210.405,196.716 210.401,198.748 210.376,211.647 210.372,213.809 209.979,214.75 209.818,215.106 209.133,216.507 208.973,216.815 208.211,218.187 208.051,218.458 207.226,219.79 204.568,222.216 204.343,222.258 205.03,222.778 205.528,223.196 208.264,225.727 208.742,226.217 210.378,228.08 210.438,235.84 210.602,246.657 210.899,256.963 211.085,260.718 209.649,262.589 209.502,262.773 207.29,265.45 205.672,267.602 204.952,268.948 204.852,269.456 204.953,269.974 205.451,270.783 206.864,272.211 209.104,274.098 209.218,274.196 211.687,276.374 212.233,276.924 213.138,284.482 214.519,292.41 216.106,298.841 215.799,299.594 215.898,299.579 216.346,299.769 218.563,306.2 221.336,311.994 224.685,317.011 228.665,321.215 233.33,324.575 238.737,327.056 244.939,328.626 247.618,328.863 248.097,329.496 248.776,330.606 250.285,333.731 250.697,334.821 251.611,338.081 251.797,338.987 251.927,339.959 255.653,332.971 256.341,331.93 258.893,328.768 259.171,328.749 265.518,327.271 271.013,324.853 275.719,321.532 279.698,317.343 283.01,312.324 283.973,310.259 285.118,309.898 284.919,309.747 284.599,308.916 285.72,306.511 287.888,299.942 288.274,298.275 288.57,297.901 289.17,296.947 289.651,295.914 290.031,294.698 290.295,293.187 290.401,291.208 290.376,290.285 290.298,289.247 290.226,288.58 290.848,284.68 291.763,276.06 292.076,271.431 292.22,271.203 293.139,270.056 294.003,269.195 295.233,268.231 296.245,267.616 297.646,266.975 298.789,266.606 299.732,266.41 298.872,265.787 294.785,262.279 293.495,260.782 292.68,259.484 292.778,257.028 293,246.688 293.115,235.848 293.16,228.534 293.943,226.848 294.066,226.598 295.699,223.437 296.282,222.815 295.238,221.95 294.363,221.076 293.175,219.64 293.159,211.647 293.136,200.124 293.137,200.122 294.361,198.641 295.233,197.768 296.711,196.541 297.745,195.838 299.435,194.908 299.797,194.753 299.405,194.362 298.55,193.326 297.843,192.282 297.196,191.095 296.691,189.905 296.282,188.595 296.015,187.294 295.872,185.891 295.872,184.552 296.015,183.151 296.282,181.848 296.692,180.54 297.197,179.351 297.844,178.165 298.551,177.121 299.407,176.086 300.29,175.203 301.033,174.589 299.848,174.525 298.363,173.893 296.456,172.656 295.043,171.345 294.088,170.236 293.073,168.753 293.056,160.052 293.004,134.254 292.998,131.089 293.734,129.941 295.812,128.102 295.784,128.014 295.576,127.289 295.503,127.013 295.324,126.268 295.26,125.971 295.113,125.21 295.06,124.889 294.95,124.115 294.91,123.767 294.841,122.986 294.819,122.607 294.795,121.822 294.816,121.062 295.066,118.119 295.252,117.027 296.021,114.052 296.407,112.961 297.721,110.084 298.349,108.996 300.235,106.348 301.141,105.322 303.626,103.034 304.795,102.174 307.906,100.378 309.241,99.7931 310.301,99.4622 310.253,99.2444 310.122,98.5432 310.061,98.1545 309.895,96.8391 309.578,97.1197 309.535,97.1568 307.133,99.2433 306.926,99.4162 304.649,101.236 304.117,101.619 302.131,102.907 300.548,103.656 299.018,104.144 296.963,104.457 296.727,104.455 296.361,104.442 296.169,104.43 295.185,104.293 295.034,104.26 293.216,103.573 293.102,103.51 292.942,103.372 292.91,87.5142 293.044,87.2553 293.123,87.1066 294.724,84.1839 296.241,81.408 296.05,81.3875 295.633,81.3293 293.73,81.0009 292.897,80.7624 292.875,69.76 292.862,63.4746 293.022,63.3589 295.157,61.8948 295.973,61.3136 294.407,60.6072 293.997,60.4053 292.855,59.7917 292.822,43.2414 293.647,42.7746 293.837,42.6707 295.735,41.6777 296.095,41.4808 295.26,40.1956 293.315,37.3459 293.291,37.3102 292.808,36.5929 292.797,31.0636 292.771,18.1648 301.447,18.1091 301.74,18.2454 305.025,19.9379 305.16,20.0091 308.605,21.8855 309.337,22.2718 309.349,21.9466 309.39,21.4133 309.501,20.4784 309.601,19.8775 309.773,19.0706 309.964,18.3696 310.069,18.0536 316.278,18.0137 327.2,17.9435 327.71,18.4579 327.734,18.4784 328.844,18.1573 329.491,17.9288 339.784,17.8626 351.538,17.787 363.291,17.7115 374.246,17.6411 378.549,19.6155 379.702,20.2937 385.912,24.852 386.961,25.8126 387.226,26.1132 387.53,23.2402 388.651,21.3945 389.277,20.6664 391.466,19.0006 393.226,18.17 394.027,17.8542 395.111,17.5069 410.304,17.4092 422.057,17.3337 433.81,17.2581 438.854,17.2257 440.879,18.3193 442.195,19.2552 444.221,21.1069 445.526,22.7525 445.725,23.1085 446.718,21.1766 447.47,20.0258 448.912,18.2545 449.899,17.2744 450.049,17.1537 457.317,17.107 469.07,17.0314 480.823,16.9559 " fill="none" stroke-width="0.5" stroke="rgb(0,0,0)" />
	<polygon points="191.311,444.182 191.63,445.123 192.333,447.85 192.689,447.955 194.159,448.279 195.756,448.535 197.305,448.696 198.592,448.747 200.314,448.652 201.951,448.364 203.419,447.883 204.644,447.234 205.63,446.422 206.447,445.364 207.136,443.852 207.61,441.664 202.812,442.023 201.803,442.021 195.585,441.532 194.468,441.347 189.569,440.095 " fill="none" stroke-width="0.5" stroke="rgb(0,0,0)" />
	<polygon points="161.432,431.117 160.844,432.262 157.845,436.919 156.91,438.066 152.715,442.166 151.455,443.131 147.727,445.329 148.372,445.288 152.28,444.451 155.336,443.205 157.628,441.659 159.312,439.846 160.531,437.681 161.321,435.016 161.632,431.516 161.63,431.331 161.613,430.864 161.603,430.686 " fill="none" stroke-width="0.5" stroke="rgb(0,0,0)" />
	<polygon points="327.05,415.701 325.736,416.3 316.232,419.433 314.836,419.73 313.319,419.885 313.455,420.07 314.313,421.641 314.807,422.938 315.075,423.823 315.405,425.275 315.458,425.53 315.711,426.887 315.833,427.403 315.995,427.519 316.029,427.543 316.936,428.196 317.35,428.521 318.217,429.256 318.955,429.99 319.688,430.845 320.577,432.18 320.646,432.318 321.061,431.843 321.232,431.655 321.951,430.892 322.189,430.652 322.903,429.968 323.237,429.67 323.946,429.078 324.419,428.718 325.119,428.233 325.798,427.821 326.488,427.457 327.456,427.042 328.134,426.813 328.675,426.69 327.7,424.838 327.351,423.596 327.104,421.809 327.104,415.669 " fill="none" stroke-width="0.5" stroke="rgb(0,0,0)" />
	<polygon points="378.043,417.615 378.041,417.77 378.025,418.466 379.552,418.055 381.122,418.238 382.512,418.556 384.145,419.121 385.381,419.697 386.992,420.663 388.071,421.47 389.419,422.712 389.388,422.472 389.347,421.216 389.376,420.743 389.511,419.766 389.611,419.302 388.946,419.231 387.755,418.991 384.194,417.927 383.262,417.569 379.923,415.99 379.166,415.568 378.043,414.843 " fill="none" stroke-width="0.5" stroke="rgb(0,0,0)" />
	<polygon points="244.141,411.816 243.363,416.792 242.8,418.611 241.476,421.391 242.38,420.165 244.484,415.894 245.724,411.531 245.171,411.451 244.182,411.18 " fill="none" stroke-width="0.5" stroke="rgb(0,0,0)" />
	<polygon points="165.212,413.603 165.217,414.565 164.897,419.249 164.765,420.183 164.53,421.279 167.726,420.29 170.772,420.953 171.42,421.268 171.337,420.746 171.282,419.137 171.314,418.769 171.568,417.449 171.664,417.13 172.281,415.709 172.439,415.439 173.427,414.141 173.644,413.919 174.777,413.006 173.19,412.349 172.649,412.096 170.013,410.715 169.497,410.414 167.07,408.847 166.552,408.476 164.699,407.009 " fill="none" stroke-width="0.5" stroke="rgb(0,0,0)" />
	<polygon points="258.537,399.704 258.523,400.777 258.427,401.789 258.185,403.043 257.909,403.974 257.418,405.179 256.978,406.012 256.311,407.02 257.54,407.498 258.095,407.743 260.954,409.171 261.383,409.405 264.166,411.061 264.524,411.29 267.141,413.086 267.468,413.326 269.832,415.172 270.166,415.45 272.188,417.255 272.576,417.631 272.801,417.867 272.902,417.847 274.187,417.626 274.462,417.584 275.796,417.412 276.056,417.383 277.44,417.26 277.685,417.242 279.117,417.168 279.348,417.16 280.83,417.136 281.094,417.137 282.786,417.176 279.469,416.091 278.16,415.498 269.554,410.405 268.438,409.574 261.337,403.019 260.47,402.042 258.512,399.34 " fill="none" stroke-width="0.5" stroke="rgb(0,0,0)" />
	<polygon points="363.181,399.921 365.028,400.316 365.785,400.526 367.185,401.005 367.339,398.99 " fill="none" stroke-width="0.5" stroke="rgb(0,0,0)" />
	<polygon points="349.194,395.149 348.585,396.165 346.092,399.588 347.653,399.317 348.416,399.229 352.923,398.977 353.53,398.971 357.323,399.108 357.848,399.148 357.897,399.154 356.815,398.681 355.738,397.946 354.49,396.84 353.511,395.721 352.83,394.788 351.973,393.371 351.57,392.591 351.029,391.347 " fill="none" stroke-width="0.5" stroke="rgb(0,0,0)" />
	<polygon points="207.098,388.547 205.79,388.533 200.333,387.931 200.4,388.021 200.897,388.802 202.735,392.187 203.143,393.096 204.284,396.261 204.459,396.957 206.779,393.527 208.3,391.934 212.255,388.984 214.778,387.865 " fill="none" stroke-width="0.5" stroke="rgb(0,0,0)" />
	<polygon points="308.721,393.427 308.227,393.572 305.015,394.381 304.41,394.504 300.702,395.076 300.033,395.145 295.791,395.362 294.992,395.354 294.754,395.338 297.579,396.102 304.337,396.687 307.623,396.551 310.586,396.161 311.679,395.902 310.56,394.344 310.304,393.512 310.268,392.906 " fill="none" stroke-width="0.5" stroke="rgb(0,0,0)" />
	<polygon points="220.787,386.67 222.391,386.576 223.436,386.656 224.201,386.76 225.191,386.954 225.176,386.856 225.093,385.836 225.093,385.404 " fill="none" stroke-width="0.5" stroke="rgb(0,0,0)" />
	<polygon points="246.147,368.697 242.08,374.163 241.289,375.021 242.095,375.432 242.979,376.024 244.063,376.931 244.806,377.703 245.187,378.181 246.14,378.207 247.386,378.332 248.463,378.557 247.437,374.773 247.234,373.636 246.707,367.765 " fill="none" stroke-width="0.5" stroke="rgb(0,0,0)" />
	<polygon points="83.7367,366.347 83.4567,366.39 82.6151,366.501 81.8216,366.558 79.5082,366.582 78.2718,366.472 78.5086,366.816 79.5971,369.569 80.5994,376.188 80.926,375.795 81.6089,375.089 84.1174,372.854 84.9736,372.209 87.4528,370.637 88.2227,370.25 87.605,369.82 86.1193,368.554 85.2528,367.662 84.1403,366.276 " fill="none" stroke-width="0.5" stroke="rgb(0,0,0)" />
	<polygon points="151.119,375.735 150.96,375.489 149.22,373.583 147.289,372.039 " fill="none" stroke-width="0.5" stroke="rgb(0,0,0)" />
	<polygon points="171.96,373.618 172.222,374.285 172.247,374.288 172.531,374.312 172.835,374.321 173.282,374.315 173.794,374.299 173.814,374.298 173.362,373.826 171.246,371.191 " fill="none" stroke-width="0.5" stroke="rgb(0,0,0)" />
	<polygon points="353.623,364.589 355.525,366.445 356.367,370.41 356.103,372.978 356.784,372.656 357.467,372.378 359.035,371.841 359.551,371.687 361.238,371.259 362.195,370.941 362.165,370.93 360.29,369.961 359.177,369.237 357.586,367.955 356.637,367.017 355.356,365.466 354.618,364.363 354.357,363.871 " fill="none" stroke-width="0.5" stroke="rgb(0,0,0)" />
	<polygon points="323.988,367.217 323.31,368.292 322.345,369.539 321.994,369.909 323.489,369.874 327.04,369.643 330.387,369.283 329.428,368.907 326.812,367.565 325.654,366.809 324.619,365.965 " fill="none" stroke-width="0.5" stroke="rgb(0,0,0)" />
	<polygon points="276.374,367.293 277.111,367.123 277.332,365.997 277.54,365.226 " fill="none" stroke-width="0.5" stroke="rgb(0,0,0)" />
	<polygon points="441.23,355.687 442.07,356.855 445.118,362.246 445.684,363.563 445.827,364.031 444.967,359.067 442.971,355.915 439.738,353.398 438.701,352.878 " fill="none" stroke-width="0.5" stroke="rgb(0,0,0)" />
	<polygon points="295.337,357.29 293.921,357.929 290.869,358.893 292.057,359.537 293.925,360.923 294.07,361.033 296.389,362.855 297.285,363.466 297.062,362.287 296.918,360.75 296.896,359.821 296.949,358.715 296.994,358.196 297.132,357.106 297.187,356.754 297.305,356.106 " fill="none" stroke-width="0.5" stroke="rgb(0,0,0)" />
	<polygon points="117.61,354.361 116.675,354.798 116.695,356.465 116.582,357.763 116.171,359.953 115.792,361.236 114.975,363.228 114.926,363.321 115.233,363.236 116.405,363.022 120.656,362.637 121.975,362.65 124.383,362.916 123.977,362.682 122.971,361.969 121.873,361.026 120.737,359.76 120.069,358.79 119.233,357.095 118.901,356.079 118.599,354.578 118.537,353.825 " fill="none" stroke-width="0.5" stroke="rgb(0,0,0)" />
	<polygon points="394.686,340.389 394.488,340.555 393.34,341.478 392.76,341.895 391.738,342.547 390.06,343.314 389.225,343.562 386.529,343.783 386.342,343.759 386.07,343.69 386.47,344.522 387.6,347.721 387.934,349.173 388.199,351.508 388.284,351.411 389.036,350.671 393.647,346.807 395.23,345.823 398.833,344.24 398.415,343.79 397.139,342.252 396.989,342.066 395.642,340.317 395.289,339.865 " fill="none" stroke-width="0.5" stroke="rgb(0,0,0)" />
	<polygon points="57.9057,342.301 61.2349,347.655 62.5519,348.958 62.5397,347.773 62.6881,346.312 63.1795,344.036 63.6154,342.714 64.5439,340.657 65.1831,339.545 65.3807,339.267 62.7436,338.702 61.8532,338.444 59.3845,337.537 58.2663,337.003 57.1801,336.352 " fill="none" stroke-width="0.5" stroke="rgb(0,0,0)" />
	<polygon points="164.356,296.704 163.431,297.106 162.16,297.545 160.868,297.851 159.685,298.008 158.271,298.042 157.915,298.012 156.801,297.823 156.395,297.717 155.572,297.423 157.857,300.932 158.227,301.578 162.285,309.681 162.842,311.275 164.381,318.58 164.497,320.525 164.244,323.366 164.048,324.481 163.297,327.296 162.912,328.363 161.675,331.043 161.081,332.074 159.366,334.511 158.529,335.484 156.348,337.569 155.248,338.418 152.611,340.042 151.286,340.667 151.238,340.684 151.917,340.967 152.796,341.414 155.256,342.905 156.045,343.466 158.394,345.411 159.032,346.016 161.291,348.461 161.351,348.534 160.985,345.322 160.946,344.36 161.005,342.576 161.035,342.126 161.214,340.361 161.287,339.844 161.593,338.166 161.744,337.522 162.183,335.999 162.493,335.148 163.072,333.845 163.733,332.688 164.457,331.675 165.864,330.233 166.74,329.576 169.245,328.417 170.278,328.182 170.379,328.176 167.594,323.959 166.947,322.707 164.647,316.772 164.256,315.23 163.44,308.896 163.396,307.701 163.564,304.543 163.64,303.843 164.132,300.796 164.278,300.117 165.074,297.193 165.286,296.547 165.448,296.127 " fill="none" stroke-width="0.5" stroke="rgb(0,0,0)" />
	<polygon points="317.31,342.089 316.271,342.59 315.259,342.98 315.181,343.003 315.957,343.433 317.036,344.163 317.064,343.986 317.538,341.949 " fill="none" stroke-width="0.5" stroke="rgb(0,0,0)" />
	<polygon points="416.528,332.163 415.486,332.362 413.699,332.555 413.468,332.576 412.529,332.645 412.558,332.804 412.813,334.225 412.831,334.328 413.055,335.697 413.09,335.945 413.249,337.214 413.29,337.681 413.35,338.809 413.357,339.35 413.347,339.684 413.316,340.165 413.282,340.499 413.178,341.172 413.111,341.494 413.055,341.689 418.062,342.116 419.173,342.307 421.827,343.002 419.79,340.688 418.313,337.812 417.072,332.439 417.043,332.021 " fill="none" stroke-width="0.5" stroke="rgb(0,0,0)" />
	<polygon points="127.003,336.216 127.146,337.647 127.126,339.885 127.032,340.756 128.36,340.111 129.193,339.774 131.247,339.103 131.15,339.047 130.059,338.257 128.153,336.556 127.291,335.623 126.716,334.866 " fill="none" stroke-width="0.5" stroke="rgb(0,0,0)" />
	<polygon points="379.44,335.568 379.769,335.803 379.932,335.944 379.962,335.149 380.019,334.791 " fill="none" stroke-width="0.5" stroke="rgb(0,0,0)" />
	<polygon points="385.203,310.605 384.215,312.33 383.339,314.219 382.71,315.943 382.503,317.011 382.302,319.211 382.127,322.166 381.939,325.35 381.926,325.535 381.664,328.54 381.606,329.01 381.538,329.432 382.43,327.281 382.454,327.223 383.607,324.517 384.688,321.767 385.566,319.068 386.133,316.519 386.346,313.96 386.322,312.665 386.215,310.941 386.028,309.438 " fill="none" stroke-width="0.5" stroke="rgb(0,0,0)" />
	<polygon points="322.099,325.738 321.343,326.253 321.636,326.684 322.153,327.688 322.195,327.502 322.366,325.541 322.361,325.399 " fill="none" stroke-width="0.5" stroke="rgb(0,0,0)" />
	<polygon points="121.736,324.592 120.85,325.007 121.066,325.187 122.609,326.741 123.007,327.224 122.987,327.158 122.752,325.95 122.566,324.091 " fill="none" stroke-width="0.5" stroke="rgb(0,0,0)" />
	<polygon points="74.4118,311.843 73.4799,315.416 73.1709,318.277 73.2013,319.355 73.3292,320.568 73.5647,321.679 73.9426,322.776 74.5314,323.958 74.9183,324.535 75.344,323.665 76.4484,321.868 77.2183,320.85 78.636,319.311 79.5872,318.461 81.2883,317.213 82.3713,316.569 84.3256,315.645 85.1146,315.359 84.2761,315.111 83.1075,314.639 81.5135,313.812 80.4371,313.112 79.008,311.971 78.0652,311.05 76.8565,309.606 76.1034,308.494 75.8127,307.952 " fill="none" stroke-width="0.5" stroke="rgb(0,0,0)" />
	<polygon points="343.922,311.564 343.379,312.522 342.342,313.895 341.553,314.697 340.799,315.294 341.553,315.72 346.412,319.032 347.284,319.742 351.127,323.46 351.7,322.154 351.928,321.686 352.74,320.171 352.818,320.033 352.613,319.984 352.332,319.911 350.483,319.385 349.553,319.044 348.246,318.448 345.565,316.213 345.069,315.501 343.895,312.099 344.057,311.242 " fill="none" stroke-width="0.5" stroke="rgb(0,0,0)" />
	<polygon points="96.7665,314.725 96.0662,314.942 96.2139,314.978 98.2561,315.704 98.2584,315.705 98.0692,315.155 97.8409,314.256 " fill="none" stroke-width="0.5" stroke="rgb(0,0,0)" />
	<polygon points="428.463,312.802 428.456,313.016 428.437,313.383 428.675,313.284 429.908,312.91 429.648,312.886 429.586,312.88 428.653,312.784 428.464,312.765 " fill="none" stroke-width="0.5" stroke="rgb(0,0,0)" />
	<polygon points="403.617,305.78 404.915,307.733 406.514,309.66 408.314,311.45 408.892,311.926 408.266,310.91 405.91,307.788 403.441,305.405 403.425,305.396 " fill="none" stroke-width="0.5" stroke="rgb(0,0,0)" />
	<polygon points="131.164,300.281 131.302,301.162 131.827,307.133 131.822,308.345 131.786,308.72 133.918,308.478 134.098,308.496 135.781,308.884 135.931,308.94 137.112,309.626 135.614,306.517 131.051,298.872 130.721,298.33 " fill="none" stroke-width="0.5" stroke="rgb(0,0,0)" />
	<polygon points="345.858,306.257 345.162,306.248 345.176,306.49 345.075,307.735 344.998,308.159 346.602,306.208 " fill="none" stroke-width="0.5" stroke="rgb(0,0,0)" />
	<polygon points="312.082,304.392 308.822,306.582 311.015,306.866 311.62,306.974 313.697,307.442 313.344,306.661 312.827,304.891 312.684,303.907 " fill="none" stroke-width="0.5" stroke="rgb(0,0,0)" />
	<polygon points="108.721,299.96 108.898,300.025 109.181,300.182 109.329,300.33 109.165,297.94 " fill="none" stroke-width="0.5" stroke="rgb(0,0,0)" />
	<polygon points="434.588,293.231 433.637,294.563 433.55,294.682 432.486,296.103 432.445,296.159 432.8,296.361 434.711,297.392 434.865,297.478 436.57,298.458 436.627,298.495 435.34,294.237 434.854,292.826 " fill="none" stroke-width="0.5" stroke="rgb(0,0,0)" />
	<polygon points="458.885,288.33 458.009,288.735 456.971,289.595 455.711,291.117 454.532,292.939 454.635,292.929 456.353,292.979 459.542,293.493 460.925,293.936 460.927,293.741 460.927,293.538 460.857,292.108 460.662,290.774 460.346,289.554 459.967,288.621 459.713,288.214 " fill="none" stroke-width="0.5" stroke="rgb(0,0,0)" />
	<polygon points="87.6698,283.565 87.6137,283.676 85.2589,288.209 84.6428,289.398 86.3637,290.303 86.8852,290.717 87.5255,291.299 88.0901,291.883 88.4689,292.275 88.5072,292.27 88.8617,291.407 89.3169,289.194 89.6337,285.87 89.7876,281.581 89.8041,279.26 " fill="none" stroke-width="0.5" stroke="rgb(0,0,0)" />
	<polygon points="55.5689,277.693 56.2746,279.202 56.5473,279.633 57.015,280.355 57.0585,280.423 57.5036,281.128 57.6389,281.353 58.0304,282.032 58.2496,282.445 58.5753,283.116 58.8407,283.742 59.0884,284.423 59.3292,285.249 59.4868,285.958 59.5546,286.421 59.8928,285.798 60.59,282.763 60.5758,282.709 60.5436,282.628 60.4891,282.527 60.3792,282.372 60.175,282.141 59.6282,281.635 59.6128,281.621 57.6908,279.83 57.2998,279.434 55.7858,277.764 55.5422,277.479 55.5174,277.448 " fill="none" stroke-width="0.5" stroke="rgb(0,0,0)" />
	<polygon points="412.243,285.553 410.728,285.922 413.322,285.444 414.353,285.146 " fill="none" stroke-width="0.5" stroke="rgb(0,0,0)" />
	<polygon points="166.28,272.594 166.869,273.851 167.46,274.939 168.023,275.794 168.501,276.367 169.276,277.05 169.515,277.257 169.981,277.701 170.251,277.985 170.624,278.413 170.886,278.741 171.217,279.193 171.46,279.556 171.772,280.073 171.982,280.46 172.284,281.092 172.45,281.494 172.725,282.305 172.833,282.71 172.991,283.582 174.429,282.053 174.775,281.845 174.267,281.449 170.152,277.805 169.11,276.632 166.246,272.513 " fill="none" stroke-width="0.5" stroke="rgb(0,0,0)" />
	<polygon points="427.762,278.677 427.295,279.548 426.368,280.475 426.631,280.393 427.872,280.123 429.8,279.997 428.376,276.993 428.185,276.657 " fill="none" stroke-width="0.5" stroke="rgb(0,0,0)" />
	<polygon points="340.078,273.858 339.287,274.711 339.058,275.615 339.101,275.645 339.646,275.882 340.483,276.104 340.491,276.105 340.48,276 340.468,275.854 340.428,275.309 340.414,275.031 340.399,274.541 340.424,273.727 340.43,273.661 " fill="none" stroke-width="0.5" stroke="rgb(0,0,0)" />
	<polygon points="157.033,225.996 156.022,227.755 155.399,229.035 156.902,230.978 157.372,233.719 157.312,235.145 157.293,235.44 157.134,237.262 157.12,237.4 156.896,239.472 156.888,239.536 156.631,241.713 156.629,241.727 156.373,243.845 156.157,245.722 156.018,247.135 155.98,247.849 156,248.467 157.531,249.395 159.044,252.074 159.509,253.699 159.634,254.211 159.999,256.022 160.055,256.34 160.347,258.269 160.371,258.446 160.616,260.424 160.623,260.485 160.844,262.417 161.058,264.165 161.196,265.074 162.229,265.429 164.604,268.434 165.054,269.578 164.081,265.325 164.171,262.031 165.313,258.057 166.572,255.671 169.581,252.035 170.508,251.118 172.762,249.29 172.733,249.306 172.553,249.401 169.656,250.868 166.124,251.558 162.756,250.293 160.551,247.448 160.217,243.608 160.457,242.479 160.664,241.406 160.847,240.335 161.001,239.268 161.126,238.203 161.217,237.141 161.274,236.081 161.292,235.121 161.196,233.168 160.902,231.317 160.37,229.457 159.544,227.546 158.346,225.543 157.749,224.782 " fill="none" stroke-width="0.5" stroke="rgb(0,0,0)" />
	<polygon points="420.6,267.448 420.5,267.666 420.5,267.666 422.078,268.091 422.992,268.411 423.057,268.439 422.481,267.61 421.185,266.108 " fill="none" stroke-width="0.5" stroke="rgb(0,0,0)" />
	<polygon points="129.112,238.259 128.873,240.385 128.744,242.363 128.715,243.73 130.079,253.509 131.872,258.267 131.653,256.417 132.221,252.864 133.254,251.755 133.24,251.63 132.874,250.116 132.227,248.02 131.415,245.58 131.399,245.532 130.563,242.957 130.494,242.729 129.765,240.171 129.653,239.717 129.215,237.633 " fill="none" stroke-width="0.5" stroke="rgb(0,0,0)" />
	<polygon points="405.514,256.661 405.754,256.973 406.404,257.874 406.627,257.703 407.89,256.686 407.997,256.602 406.924,256.19 404.596,255.537 " fill="none" stroke-width="0.5" stroke="rgb(0,0,0)" />
	<polygon points="447.457,253.267 447.46,253.274 448.813,256.639 448.841,256.708 449.848,254.923 449.908,254.819 450.207,254.31 447.206,252.644 " fill="none" stroke-width="0.5" stroke="rgb(0,0,0)" />
	<polygon points="382.51,244.901 381.891,246.064 381.144,247.177 380.319,248.17 379.367,249.105 378.362,249.91 377.259,250.625 376.754,250.885 376.917,251.055 378.035,252.426 378.308,252.784 378.684,253.315 378.868,253.121 379.121,252.87 380.309,251.75 381.041,251.153 382.167,250.361 384.13,249.42 385.169,249.12 387.343,248.906 385.501,247.608 383.749,245.778 382.774,244.259 " fill="none" stroke-width="0.5" stroke="rgb(0,0,0)" />
	<polygon points="393.728,252.839 394.413,252.52 393.254,252.065 " fill="none" stroke-width="0.5" stroke="rgb(0,0,0)" />
	<polygon points="359.337,247.309 358.29,248.016 357.722,248.324 358.213,248.365 361.583,249.63 363.141,251.64 363.269,251.329 363.423,251.04 363.746,250.619 363.669,250.578 362.617,249.878 361.628,249.073 360.722,248.178 359.894,247.185 359.748,246.97 " fill="none" stroke-width="0.5" stroke="rgb(0,0,0)" />
	<polygon points="313.474,224.806 312.291,225.312 310.433,225.9 309.123,226.172 308.427,226.244 308.907,227.729 310.042,229.006 312.337,230.371 315.842,231.894 316.086,232.005 319.885,233.842 321.071,234.579 324.335,237.125 325.939,238.938 328.224,242.753 328.547,243.649 329.112,243.296 330.237,242.734 331.405,242.283 332.42,241.983 332.521,241.962 331.487,240.062 330.984,238.871 330.279,236.611 330.014,235.313 329.959,234.772 328.956,234.977 327.551,235.119 326.215,235.118 324.821,234.976 323.519,234.709 322.216,234.301 321.026,233.796 319.844,233.15 318.799,232.443 317.767,231.589 316.883,230.704 316.029,229.67 315.323,228.624 314.677,227.438 314.174,226.249 313.765,224.939 313.711,224.676 " fill="none" stroke-width="0.5" stroke="rgb(0,0,0)" />
	<polygon points="189.322,234.584 188.626,235.888 186.624,238.8 187.97,237.591 189.811,234.991 190.437,232.34 190.387,231.902 " fill="none" stroke-width="0.5" stroke="rgb(0,0,0)" />
	<polygon points="464.534,220.15 464.497,220.412 464.021,223.353 463.999,223.479 463.453,226.48 463.45,226.496 462.914,229.407 462.467,232.056 462.177,234.273 462.088,235.827 462.107,236.071 462.507,235.497 463.877,232.991 464.997,230.233 465.725,227.424 465.972,224.771 465.426,219.876 464.781,218.11 " fill="none" stroke-width="0.5" stroke="rgb(0,0,0)" />
	<polygon points="378.881,228.958 379.348,229.329 379.402,229.381 379.405,229.356 379.571,228.389 " fill="none" stroke-width="0.5" stroke="rgb(0,0,0)" />
	<polygon points="45.9965,228.008 46.2734,228.229 46.5563,228.522 46.7062,228.721 47.0317,227.627 " fill="none" stroke-width="0.5" stroke="rgb(0,0,0)" />
	<polygon points="85.2754,213.631 85.6067,213.891 86.697,214.974 87.1598,215.555 87.8565,216.63 88.2128,217.318 88.6231,218.296 88.875,219.064 89.0968,219.939 89.2463,220.76 89.3419,221.558 89.3913,222.406 89.3582,223.49 90.4752,222.771 91.212,222.407 93.0447,221.814 93.7736,221.692 95.7863,221.665 96.43,221.755 98.2016,222.265 98.8133,222.538 100.285,223.443 100.751,223.822 100.998,220.497 101.144,219.523 101.985,215.823 102.265,214.905 102.582,214.085 102.379,214.158 100.854,214.513 97.8559,214.843 96.4015,214.842 93.2122,214.486 91.7319,214.144 88.8677,213.125 87.5173,212.463 86.6381,211.899 " fill="none" stroke-width="0.5" stroke="rgb(0,0,0)" />
	<polygon points="442.797,210.583 442.436,210.713 438.126,212.124 437.615,212.269 432.494,213.499 431.896,213.614 425.874,214.485 425.24,214.545 423.643,214.62 425.928,215.731 427.256,216.587 430.95,219.651 431.977,220.72 433.914,223.25 434.883,220.995 435.515,219.852 438.038,216.198 438.665,215.423 441.65,212.254 442.234,211.705 444.287,209.998 " fill="none" stroke-width="0.5" stroke="rgb(0,0,0)" />
	<polygon points="133.586,218.654 130.642,219.585 132.296,221.126 132.831,223.071 132.992,222.164 133.09,221.711 133.747,219.099 133.899,218.593 " fill="none" stroke-width="0.5" stroke="rgb(0,0,0)" />
	<polygon points="64.2931,216.338 63.9848,216.593 65.2394,217.42 65.7563,217.888 66.8729,219.203 67.2727,219.822 67.8755,221.001 68.159,221.727 68.4421,221.154 71.0714,216.68 70.5135,216.584 68.4418,216.042 67.3076,215.631 65.4761,214.771 " fill="none" stroke-width="0.5" stroke="rgb(0,0,0)" />
	<polygon points="188.039,213.267 188.935,214.609 190.144,217.01 190.656,218.394 190.722,218.659 192.291,217.494 195.029,217.257 194.684,216.009 194.139,214.97 193.434,214.159 192.407,213.409 190.871,212.7 188.722,212.106 186.802,211.832 " fill="none" stroke-width="0.5" stroke="rgb(0,0,0)" />
	<polygon points="381.357,200.173 380.851,201.362 380.17,202.609 379.463,203.652 378.561,204.741 378.101,205.201 378.493,205.465 379.709,206.467 380.601,207.358 381.366,208.285 381.766,206.624 384.317,204.086 386.179,203.649 382.646,200.768 381.551,199.632 381.534,199.609 " fill="none" stroke-width="0.5" stroke="rgb(0,0,0)" />
	<polygon points="55.8299,205.142 55.2821,205.542 55.2208,205.582 56.1694,205.376 57.5732,205.057 57.3366,204.309 57.268,203.974 " fill="none" stroke-width="0.5" stroke="rgb(0,0,0)" />
	<polygon points="366.563,168.979 365.579,169.789 364.527,170.497 363.862,170.857 364.154,171.288 365.193,173.186 365.7,174.375 366.358,176.468 366.628,177.774 366.857,180.013 366.857,181.363 366.84,181.533 367.611,181.453 368.961,181.452 370.433,181.603 370.487,181.614 370.183,180.849 367.416,172.001 367.22,171.201 366.781,168.761 " fill="none" stroke-width="0.5" stroke="rgb(0,0,0)" />
	<polygon points="146.319,174.827 145.444,175.059 142.887,175.551 143.335,175.917 146.729,179.163 147.256,179.729 147.524,180.054 147.639,179.328 147.872,178.342 148.831,175.346 149.584,173.759 149.618,173.707 " fill="none" stroke-width="0.5" stroke="rgb(0,0,0)" />
	<polygon points="109.067,161.35 108.212,162.387 107.327,163.272 106.292,164.128 105.247,164.836 104.061,165.483 102.87,165.988 101.562,166.397 100.261,166.664 98.8593,166.807 97.7201,166.807 100.056,168.01 100.742,168.418 104.003,170.633 104.68,171.16 107.678,173.827 108.354,174.522 110.942,177.615 111.587,178.534 112.17,179.536 112.203,179.43 112.704,178.244 113.747,176.326 114.673,175.026 116.059,173.508 117.417,172.374 118.07,171.963 117.674,171.737 116.498,170.88 113.605,168.235 112.687,167.199 110.465,164.088 109.827,162.983 109.078,161.334 " fill="none" stroke-width="0.5" stroke="rgb(0,0,0)" />
	<polygon points="309.715,170.384 308.887,171.672 310.088,171.671 311.495,171.814 312.792,172.079 313.364,172.257 313.623,171.422 313.942,170.666 312.45,170.362 311.997,170.253 310.149,169.739 310.042,169.706 " fill="none" stroke-width="0.5" stroke="rgb(0,0,0)" />
	<polygon points="161.487,167.025 162.173,167.033 163.901,167.372 164.288,167.502 163.494,165.41 " fill="none" stroke-width="0.5" stroke="rgb(0,0,0)" />
	<polygon points="90.6709,164.712 90.9384,164.712 90.7269,164.569 " fill="none" stroke-width="0.5" stroke="rgb(0,0,0)" />
	<polygon points="344.524,163.324 344.094,163.682 344.878,163.436 345.129,163.384 344.968,162.866 " fill="none" stroke-width="0.5" stroke="rgb(0,0,0)" />
	<polygon points="423.121,142.963 421.901,144.422 419.16,146.874 418.023,147.691 414.408,149.748 413.466,150.189 412.428,150.58 417.133,151.003 418.412,151.247 424.831,153.144 426.05,153.641 431.736,156.652 432.706,157.28 435.02,159.085 434.382,157.877 433.875,156.615 432.029,150.177 432.018,146.63 431.447,146.48 430.468,146.139 428.789,145.401 427.619,144.736 426.259,143.769 425.025,142.629 424.046,141.46 " fill="none" stroke-width="0.5" stroke="rgb(0,0,0)" />
	<polygon points="354.886,136.467 354.928,136.949 354.985,138.069 354.964,139.026 354.337,145.627 354.172,146.439 354.372,146.377 355.665,146.115 357.006,145.98 358.328,145.98 359.668,146.115 360.961,146.378 362.209,146.765 363.4,147.267 364.53,147.879 365.582,148.589 366.566,149.4 366.962,149.796 367.433,149.221 367.491,149.167 368.59,148.42 365.187,146.425 364.178,145.698 358.841,141.029 358.043,140.197 354.857,136.234 " fill="none" stroke-width="0.5" stroke="rgb(0,0,0)" />
	<polygon points="129.975,135.105 129.446,135.441 129.112,135.688 128.765,135.995 125.523,137.557 125.491,137.553 125.783,138.173 126.274,139.64 126.752,141.933 126.803,142.207 127.198,144.602 127.432,145.581 127.625,145.346 128.143,144.492 128.706,143.204 129.003,142.299 129.318,141.208 129.587,140.125 129.808,139.061 129.98,138.029 130.102,137.041 130.173,136.111 130.196,135.261 130.188,134.99 " fill="none" stroke-width="0.5" stroke="rgb(0,0,0)" />
	<polygon points="102.506,139.594 102.351,140.352 102.87,140.514 104.059,141.018 105.245,141.665 106.29,142.372 107.165,143.095 107.17,143.072 107.628,141.306 107.746,140.938 104.884,140.213 102.567,138.993 " fill="none" stroke-width="0.5" stroke="rgb(0,0,0)" />
	<polygon points="327.363,141.859 327.33,142.185 328.202,141.969 327.36,141.131 " fill="none" stroke-width="0.5" stroke="rgb(0,0,0)" />
	<polygon points="314.994,124.023 313.59,124.402 312.36,124.976 311.297,125.707 310.419,126.55 309.751,127.434 309.315,128.265 308.906,129.558 307.521,131.659 307.644,131.74 308.69,132.299 309.668,132.696 310.629,132.964 311.638,133.125 312.813,133.184 313.129,133.175 313.621,133.136 314.209,133.072 314.865,132.987 315.55,132.895 315.604,132.888 316.259,132.805 316.434,132.785 317.023,132.726 317.387,132.7 317.851,132.68 317.183,131.902 316.941,131.572 316.411,130.717 316.226,130.362 315.846,129.475 315.716,129.101 315.479,128.219 315.403,127.833 315.292,126.977 315.267,126.585 315.289,125.485 315.367,124.742 315.517,123.978 " fill="none" stroke-width="0.5" stroke="rgb(0,0,0)" />
	<polygon points="118.158,132.566 118.17,132.567 118.165,132.554 " fill="none" stroke-width="0.5" stroke="rgb(0,0,0)" />
	<polygon points="94.1888,112.391 92.0121,114.412 91.5772,114.782 89.314,116.545 88.364,117.162 86.0259,118.408 84.1956,119.06 81.7943,119.533 80.1088,119.608 80.1165,119.676 80.3052,122.991 80.3143,123.513 80.2825,124.94 80.27,125.225 80.179,126.614 80.1556,126.884 80.1036,127.369 80.981,126.643 82.0269,125.934 83.213,125.287 84.4041,124.781 85.713,124.371 87.0156,124.104 88.4187,123.961 89.756,123.961 91.1611,124.104 92.462,124.37 93.7728,124.78 94.9628,125.285 95.9931,125.846 95.937,125.597 95.8338,125.021 95.0401,119.087 95.0226,118.944 94.3737,113.131 94.254,112.329 " fill="none" stroke-width="0.5" stroke="rgb(0,0,0)" />
	<polygon points="184.785,108.824 184.743,109.715 184.668,110.444 184.536,111.27 184.324,112.178 184.094,112.922 183.642,114.022 183.306,114.667 182.482,115.891 182.031,116.422 180.773,117.565 180.199,117.964 178.648,118.763 177.943,119.015 176.404,119.364 175.56,119.452 173.169,119.262 172.987,119.213 173.634,120.28 174.148,121.329 175.835,125.71 176.13,126.701 176.172,126.897 176.548,126.562 177.166,126.075 180.166,123.989 180.973,123.509 184.094,121.943 185.125,121.529 188.347,120.545 189.597,120.291 192.901,119.949 194.312,119.955 194.866,120.017 193.414,118.584 193.012,118.15 188.768,113.138 188.552,112.869 184.741,107.86 " fill="none" stroke-width="0.5" stroke="rgb(0,0,0)" />
	<polygon points="424.822,124.314 425.002,124.922 425.16,125.563 425.466,125.232 425.818,124.922 424.977,124.206 424.673,123.888 " fill="none" stroke-width="0.5" stroke="rgb(0,0,0)" />
	<polygon points="124.263,112.168 122.68,118.503 122.65,118.617 122.074,120.758 122.934,119.343 123.547,118.494 126.331,115.223 127.089,114.466 128.278,113.458 127.995,113.244 127.133,112.463 125.631,110.84 125.34,110.504 124.881,109.936 " fill="none" stroke-width="0.5" stroke="rgb(0,0,0)" />
	<polygon points="409.32,103.163 411.362,103.884 413.626,105.244 415.769,107.21 416.638,108.182 418.768,111.098 419.196,111.765 420.168,113.501 420.138,113.357 419.896,112.424 419.726,111.971 419.342,111.582 417.606,108.43 417.782,104.836 418.769,103.397 416.324,103.372 416.196,103.37 412.863,103.272 412.737,103.267 409.368,103.103 409.244,103.096 407.918,103.007 " fill="none" stroke-width="0.5" stroke="rgb(0,0,0)" />
	<polygon points="39.1694,107.824 40.6151,108.347 40.8127,107.672 40.8779,107.508 " fill="none" stroke-width="0.5" stroke="rgb(0,0,0)" />
	<polygon points="349.132,107.682 349.327,108.275 349.399,108.203 349.575,108.046 350.013,107.69 350.201,107.549 350.432,107.385 350.6,107.271 348.881,107.142 " fill="none" stroke-width="0.5" stroke="rgb(0,0,0)" />
	<polygon points="379.176,100.03 378.76,100.283 379.065,100.184 379.642,100.017 380.042,99.9149 380.611,99.7881 381.016,99.7111 381.574,99.6229 381.984,99.5712 382.53,99.5196 382.943,99.4936 383.475,99.4768 384.679,99.5492 386.645,99.8493 388.865,100.611 390.282,101.402 391.89,102.661 392.935,103.78 393.621,104.651 394.466,105.933 394.515,106.008 394.708,106.31 395.492,106.125 396.885,105.669 398.51,105.057 400.223,104.394 400.391,104.331 402.042,103.743 402.514,103.595 404.034,103.179 405.008,102.99 405.978,102.876 405.847,102.867 405.724,102.858 402.309,102.563 402.186,102.552 398.76,102.192 398.638,102.178 395.211,101.754 395.087,101.737 391.668,101.247 391.578,101.234 391.103,101.159 390.551,101.048 390.166,100.953 389.332,100.688 389.028,100.569 387.877,99.9806 387.646,99.8327 386.34,98.7323 386.175,98.5517 385.134,97.033 385.025,96.8154 384.699,95.8985 " fill="none" stroke-width="0.5" stroke="rgb(0,0,0)" />
	<polygon points="145.595,101.919 145.019,105.142 144.903,105.666 144.869,105.793 145.276,105.732 149.405,105.43 150.63,105.454 152.104,105.621 149.78,103.634 145.923,100.533 145.858,100.49 " fill="none" stroke-width="0.5" stroke="rgb(0,0,0)" />
	<polygon points="70.4179,93.0497 65.4031,95.689 63.8936,96.5218 64.8362,96.7977 68.2187,98.3574 69.767,99.3543 69.894,99.464 69.9229,99.2121 69.9349,99.1138 70.2229,96.8985 70.2242,96.889 70.5068,94.7393 70.7237,92.9135 " fill="none" stroke-width="0.5" stroke="rgb(0,0,0)" />
	<polygon points="396.309,80.4859 395.402,82.0896 395.779,81.6603 396.356,80.454 396.373,80.3379 " fill="none" stroke-width="0.5" stroke="rgb(0,0,0)" />
	<polygon points="126.125,63.7534 125.393,67.2233 125.303,67.5975 124.456,70.7046 123.941,72.0196 123.866,72.1634 126.322,73.7538 126.667,74.115 126.697,73.7829 126.778,73.1916 126.95,72.2533 127.203,71.2891 127.464,70.5311 128.19,69.0554 128.56,68.494 130.275,66.7243 130.771,66.3755 130.876,66.3312 130.524,65.8848 130.347,65.6497 128.618,63.2428 126.987,61.0825 126.813,60.893 " fill="none" stroke-width="0.5" stroke="rgb(0,0,0)" />
	<polygon points="104.758,60.3652 103.018,61.7827 101.168,63.3669 101.003,63.503 99.2219,64.931 98.589,65.3799 96.971,66.3899 96.2895,66.6866 96.4874,67.1888 96.6767,67.848 96.8691,68.7519 96.9768,69.5185 97.0359,70.1781 97.07,71.0481 97.0614,71.7308 97.0233,72.3232 98.1617,71.2983 100.416,69.9673 102.474,69.2539 106.067,69.0468 106.59,69.2868 106.341,66.3037 106.323,66.0275 106.18,62.5814 105.903,59.6902 105.877,59.5951 " fill="none" stroke-width="0.5" stroke="rgb(0,0,0)" />
	<polygon points="400.581,59.176 400.577,60.4062 400.517,61.0264 400.968,60.8529 401.222,60.7811 402.407,60.5603 402.67,60.5359 405.691,60.9635 406.801,61.3989 408.613,62.4709 409.992,63.6187 410.369,63.9583 411.997,65.5408 413.751,67.1872 415.532,68.6171 417.309,69.6961 419.056,70.3537 421.17,70.6204 421.392,70.6099 421.993,70.5188 422.511,70.3672 422.829,70.2097 422.956,70.1066 423.047,69.9815 423.219,69.5119 423.277,68.9597 422.848,67.5331 421.218,65.8508 417.63,63.728 412.835,61.7411 407.682,60.0326 402.998,58.5935 402.688,58.4897 400.445,57.6771 " fill="none" stroke-width="0.5" stroke="rgb(0,0,0)" />
	<polygon points="162.803,47.2079 162.67,47.5503 161.776,49.1465 161.674,49.2803 164.362,50.1942 164.543,50.2587 168.075,51.5753 168.08,51.5771 168.66,51.7937 166.013,49.125 163.056,46.1856 " fill="none" stroke-width="0.5" stroke="rgb(0,0,0)" />
	<polygon points="145.028,51.5066 145.449,50.9423 145.651,50.729 145.518,50.6934 144.642,50.4903 " fill="none" stroke-width="0.5" stroke="rgb(0,0,0)" />
	<polygon points="88.9964,48.5934 89.1338,49.0454 89.5702,48.4977 " fill="none" stroke-width="0.5" stroke="rgb(0,0,0)" />
	<polygon points="444.571,45.6343 444.478,47.1303 444.676,46.1212 444.834,44.4965 444.845,44.1021 " fill="none" stroke-width="0.5" stroke="rgb(0,0,0)" />
	<polygon points="396.622,39.6291 397.163,40.9279 397.873,43.3288 398.066,43.1728 400.06,42.1715 400.867,41.8315 403.839,40.805 404.271,40.6722 407.932,39.6821 408.239,39.6068 410.193,39.1778 406.899,37.4375 402.554,35.7907 398.551,34.6518 395.176,33.8071 394.683,33.6632 393.053,33.1177 " fill="none" stroke-width="0.5" stroke="rgb(0,0,0)" />
	<polygon points="69.9526,40.2685 69.9426,40.2747 68.7862,40.9955 70.8619,41.212 71.2172,41.246 71.6052,39.2343 " fill="none" stroke-width="0.5" stroke="rgb(0,0,0)" />
	<polygon points="153.151,28.591 152.182,29.2726 151.166,29.8599 149.796,30.4964 149.764,30.5107 149.799,30.5369 152.388,32.1539 153.816,33.0172 154.094,28.2133 155.007,26.3419 " fill="none" stroke-width="0.5" stroke="rgb(0,0,0)" />
	<polygon points="81.9937,28.3447 81.1897,30.5072 80.5363,31.5358 80.6376,31.4942 80.8499,31.4114 83.9955,30.2464 85.245,29.7395 85.1514,29.6987 84.2217,29.1974 82.2318,27.1903 " fill="none" stroke-width="0.5" stroke="rgb(0,0,0)" />
</svg>
