<?xml version="1.0" standalone="no" ?>
<!DOCTYPE svg PUBLIC "-//W3C//DTD SVG 1.1//EN" "http://www.w3.org/Graphics/SVG/1.1/DTD/svg11.dtd">
<svg width="500px" height="500px" xmlns="http://www.w3.org/2000/svg" version="1.1" >
	<polygon points="464.423,280.826 463.644,294.716 461.324,309.363 457.384,324.912 451.797,341.032 444.548,357.411 435.632,373.747 425.049,389.752 412.798,405.149 398.88,419.671 383.293,433.061 366.023,445.073 347.044,455.465 326.314,463.999 303.776,470.427 279.358,474.49 252.979,475.91 227.283,474.57 203.379,470.724 181.23,464.62 160.788,456.494 142.011,446.569 124.871,435.06 109.354,422.184 95.4556,408.16 83.1815,393.217 72.5411,377.592 63.5451,361.529 56.2025,345.285 50.5177,329.123 46.4881,313.318 44.099,298.157 43.2905,283.455 43.2905,35.8503 49.9997,35.7988 61.4914,35.7107 72.9831,35.6225 84.4748,35.5343 95.9664,35.4461 95.9664,35.4461 118.95,35.2698 130.441,35.1816 141.933,35.0934 153.425,35.0052 164.916,34.9171 176.408,34.8289 187.9,34.7407 194.325,34.6914 194.307,43.9301 194.281,56.8289 194.256,69.7277 194.256,69.7277 194.23,82.6265 194.179,108.424 194.179,108.424 194.154,121.323 194.103,147.12 194.103,147.12 194.078,160.019 194.052,172.918 194.052,172.918 194.027,185.817 194.001,198.716 193.976,211.614 193.976,211.614 193.95,224.513 193.951,224.672 194.038,235.967 194.039,236.089 194.204,246.906 194.209,247.13 194.506,257.436 194.519,257.777 195.004,267.539 195.035,268.021 195.763,277.205 195.828,277.859 196.855,286.432 196.982,287.295 198.362,295.224 198.597,296.34 200.386,303.591 200.804,305.005 203.058,311.545 203.77,313.281 206.544,319.076 207.697,321.101 211.046,326.117 212.774,328.284 216.754,332.488 219.081,334.523 223.746,337.883 226.489,339.48 231.896,341.961 234.714,342.955 240.916,344.525 243.493,344.962 250.548,345.586 251.947,329.779 253.039,345.611 260.3,345.11 262.89,344.722 269.237,343.244 272.123,342.282 277.619,339.864 280.471,338.252 285.177,334.93 287.611,332.826 291.589,328.637 293.385,326.377 296.698,321.358 297.875,319.253 300.584,313.44 301.294,311.651 303.462,305.082 303.865,303.643 305.553,296.354 305.772,295.235 307.043,287.262 307.156,286.413 308.072,277.793 308.126,277.164 308.749,267.934 308.773,267.485 309.165,257.682 309.174,257.38 309.396,247.04 309.399,246.862 309.514,236.023 309.515,235.95 309.585,224.647 309.585,224.513 309.559,211.614 309.507,185.816 309.482,172.918 309.482,172.917 309.456,160.019 309.404,134.221 309.404,134.221 309.378,121.322 309.301,82.626 309.301,82.6259 309.275,69.7271 309.204,34.4595 316.383,34.4134 328.137,34.3378 339.89,34.2623 351.643,34.1867 363.396,34.1111 375.15,34.0356 386.903,33.96 410.409,33.8089 433.916,33.6578 445.669,33.5822 457.422,33.5067 464.423,33.4616 " fill="none" stroke-width="0.5" stroke="rgb(0,0,0)" />
</svg>
