<?xml version="1.0" standalone="no" ?>
<!DOCTYPE svg PUBLIC "-//W3C//DTD SVG 1.1//EN" "http://www.w3.org/Graphics/SVG/1.1/DTD/svg11.dtd">
<svg width="500px" height="500px" xmlns="http://www.w3.org/2000/svg" version="1.1" >
	<polygon points="467.073,280.9 466.282,294.998 463.922,309.896 459.925,325.673 454.265,342.004 446.927,358.584 437.905,375.115 427.195,391.311 414.795,406.895 400.705,421.598 384.917,435.16 367.42,447.329 348.188,457.86 327.185,466.506 304.358,473.016 279.648,477.128 252.981,478.564 227.003,477.209 202.814,473.317 180.386,467.136 159.676,458.904 140.65,448.846 123.283,437.185 107.562,424.141 93.4863,409.938 81.0581,394.807 70.2856,378.988 61.1773,362.724 53.7406,346.272 47.9789,329.891 43.8897,313.853 41.4604,298.436 40.6405,283.528 40.6405,33.2206 49.9794,33.1489 61.4711,33.0607 72.9627,32.9725 95.9461,32.7962 107.438,32.708 118.929,32.6199 130.421,32.5317 141.913,32.4435 153.404,32.3553 164.896,32.2671 176.388,32.179 187.88,32.0908 196.98,32.021 196.956,43.9353 196.931,56.8341 196.906,69.7329 196.906,69.7329 196.88,82.6317 196.829,108.429 196.829,108.429 196.804,121.328 196.753,147.126 196.753,147.126 196.728,160.024 196.702,172.923 196.702,172.923 196.677,185.822 196.651,198.721 196.626,211.62 196.626,211.62 196.6,224.518 196.601,224.652 196.688,235.946 196.689,236.049 196.854,246.866 196.858,247.053 197.155,257.359 197.166,257.645 197.651,267.407 197.677,267.812 198.405,276.996 198.459,277.544 199.486,286.117 199.592,286.841 200.973,294.769 201.169,295.705 202.959,302.956 203.309,304.142 205.563,310.681 206.16,312.137 208.934,317.931 209.901,319.629 213.25,324.645 214.699,326.462 218.678,330.667 220.63,332.373 225.295,335.733 227.595,337.072 233.001,339.553 235.364,340.386 241.566,341.956 243.727,342.322 250.782,342.946 251.947,329.779 252.857,342.967 260.117,342.467 262.289,342.141 268.636,340.663 271.056,339.857 276.551,337.439 278.943,336.087 283.649,332.765 285.689,331.001 289.667,326.812 291.173,324.917 294.486,319.898 295.473,318.133 298.182,312.321 298.777,310.821 300.945,304.251 301.283,303.045 302.972,295.756 303.155,294.818 304.426,286.845 304.521,286.133 305.436,277.513 305.482,276.986 306.105,267.756 306.125,267.379 306.517,257.576 306.524,257.323 306.747,246.983 306.749,246.834 306.864,235.994 306.865,235.934 306.935,224.631 306.935,224.518 306.909,211.619 306.857,185.822 306.832,172.923 306.832,172.923 306.806,160.024 306.754,134.226 306.754,134.226 306.728,121.328 306.651,82.6313 306.651,82.6312 306.625,69.7324 306.549,31.8266 316.366,31.7634 328.119,31.6879 339.873,31.6123 351.626,31.5368 363.379,31.4612 375.132,31.3856 386.886,31.3101 410.392,31.159 422.145,31.0834 433.899,31.0078 445.652,30.9323 457.405,30.8567 467.073,30.7946 " fill="none" stroke-width="0.5" stroke="rgb(0,0,0)" />
</svg>
