<?xml version="1.0" standalone="no" ?>
<!DOCTYPE svg PUBLIC "-//W3C//DTD SVG 1.1//EN" "http://www.w3.org/Graphics/SVG/1.1/DTD/svg11.dtd">
<svg width="500px" height="500px" xmlns="http://www.w3.org/2000/svg" version="1.1" >
	<polygon points="470.623,281 469.816,295.376 467.403,310.612 463.329,326.692 457.571,343.306 450.114,360.155 440.949,376.948 430.07,393.399 417.471,409.233 403.149,424.178 387.093,437.971 369.291,450.352 349.721,461.068 328.351,469.865 305.139,476.485 280.036,480.662 252.984,482.119 226.627,480.744 202.059,476.791 179.256,470.507 158.187,462.132 138.826,451.898 121.154,440.032 105.163,426.762 90.8483,412.319 78.2136,396.937 67.264,380.857 58.0054,364.326 50.4426,347.594 44.5778,330.921 40.4088,314.569 37.9256,298.811 37.0905,283.625 37.0905,29.6977 38.4605,29.6872 49.9522,29.599 61.4438,29.5108 72.9355,29.4227 95.9189,29.2463 107.411,29.1581 118.902,29.07 130.394,28.9818 141.886,28.8936 153.377,28.8054 164.869,28.7172 176.361,28.6291 187.852,28.5409 200.537,28.4436 200.532,31.0435 200.532,31.0435 200.506,43.9423 200.481,56.8411 200.456,69.7399 200.456,69.7399 200.43,82.6387 200.379,108.436 200.379,108.436 200.354,121.335 200.303,147.133 200.278,160.031 200.252,172.93 200.227,185.829 200.201,198.728 200.176,211.627 200.176,211.627 200.15,224.525 200.151,224.624 200.238,235.919 200.239,235.995 200.403,246.812 200.406,246.951 200.703,257.257 200.712,257.469 201.196,267.231 201.216,267.531 201.944,276.715 201.984,277.122 203.011,285.695 203.09,286.232 204.47,294.16 204.616,294.855 206.406,302.105 206.665,302.985 208.919,309.524 209.362,310.604 212.136,316.399 212.853,317.658 216.202,322.674 217.277,324.022 221.257,328.227 222.704,329.492 227.369,332.852 229.075,333.845 234.482,336.326 236.234,336.944 242.437,338.514 244.04,338.786 251.095,339.41 251.947,329.779 252.612,339.426 259.873,338.925 261.484,338.684 267.831,337.206 269.626,336.608 275.122,334.189 276.896,333.186 281.601,329.865 283.115,328.556 287.093,324.367 288.21,322.962 291.523,317.943 292.255,316.633 294.965,310.821 295.406,309.708 297.574,303.139 297.825,302.244 299.513,294.955 299.649,294.259 300.92,286.286 300.99,285.758 301.906,277.138 301.94,276.747 302.563,267.517 302.578,267.237 302.969,257.435 302.975,257.247 303.198,246.907 303.199,246.796 303.314,235.957 303.315,235.912 303.385,224.609 303.385,224.525 303.359,211.626 303.333,198.728 303.307,185.829 303.282,172.93 303.282,172.93 303.256,160.031 303.204,134.234 303.204,134.234 303.178,121.335 303.101,82.6384 303.101,82.6384 303.075,69.7396 302.997,31.0432 302.997,31.0432 302.992,28.2994 304.59,28.2891 316.343,28.2135 316.343,28.2135 328.097,28.138 339.85,28.0624 351.603,27.9868 363.356,27.9113 375.11,27.8357 386.863,27.7602 410.369,27.609 422.123,27.5335 433.876,27.4579 445.629,27.3823 457.382,27.3068 469.136,27.2312 470.623,27.2217 " fill="none" stroke-width="0.5" stroke="rgb(0,0,0)" />
	<polygon points="318.426,422.5 318.585,423.024 318.915,424.476 318.997,424.87 319.078,425.305 319.68,425.776 320.547,426.511 320.937,426.9 321.638,426.315 322.369,425.758 323.07,425.273 323.935,424.748 323.886,424.571 323.504,421.809 323.504,420.826 " fill="none" stroke-width="0.5" stroke="rgb(0,0,0)" />
	<polygon points="168.808,414.731 169.014,414.256 168.805,414.146 " fill="none" stroke-width="0.5" stroke="rgb(0,0,0)" />
	<polygon points="77.0736,315.902 77.4585,315.557 77.6,315.454 77.261,315.183 " fill="none" stroke-width="0.5" stroke="rgb(0,0,0)" />
	<polygon points="92.3826,218.285 92.4487,218.264 93.1776,218.141 93.4739,218.137 92.8127,218.063 92.2962,217.944 " fill="none" stroke-width="0.5" stroke="rgb(0,0,0)" />
	<polygon points="106.971,167.996 106.673,168.159 107.072,168.47 110.071,171.136 111.114,172.212 111.749,172.971 112.015,172.597 112.482,172.086 111.176,170.893 109.757,169.292 108.225,167.147 " fill="none" stroke-width="0.5" stroke="rgb(0,0,0)" />
	<polygon points="424.301,147.105 422.512,148.705 425.852,149.692 427.735,150.46 428.552,150.892 428.454,149.186 427.341,148.696 425.532,147.67 424.464,146.91 " fill="none" stroke-width="0.5" stroke="rgb(0,0,0)" />
	<polygon points="90.0581,120.338 89.9811,120.379 90.1205,120.379 91.5256,120.522 91.602,120.538 91.4718,119.564 91.4555,119.431 " fill="none" stroke-width="0.5" stroke="rgb(0,0,0)" />
	<polygon points="186.498,116.331 185.639,117.608 187.294,117.102 187.391,117.082 186.596,116.143 " fill="none" stroke-width="0.5" stroke="rgb(0,0,0)" />
</svg>
