<?xml version="1.0" standalone="no" ?>
<!DOCTYPE svg PUBLIC "-//W3C//DTD SVG 1.1//EN" "http://www.w3.org/Graphics/SVG/1.1/DTD/svg11.dtd">
<svg width="500px" height="500px" xmlns="http://www.w3.org/2000/svg" version="1.1" >
	<polygon points="480.823,82.4991 480.367,83.2537 475.052,89.7256 473.182,91.4833 470.719,93.2641 470.829,93.2975 472.924,94.1495 474.739,95.1154 476.462,96.2745 478.108,97.6605 479.477,99.092 480.753,100.741 480.823,100.855 480.823,192.824 479.815,193.99 478.236,195.064 477.135,195.496 479.997,198.672 480.823,199.781 480.823,249.026 480.675,249.278 480.18,250.04 478.908,251.813 480.087,252.233 480.823,252.61 480.823,281.286 479.971,296.463 479.847,297.245 478.091,299.418 477.283,300.303 475.321,302.209 477.234,305.87 477.822,307.234 478.126,308.115 477.405,312.666 473.11,329.62 467.07,347.047 459.27,364.67 454.31,373.758 451.589,374.05 451.962,378.06 449.695,382.213 438.331,399.399 425.161,415.952 410.17,431.593 399.875,440.437 398.539,440.018 398.211,439.863 397.797,442.222 393.345,446.047 374.668,459.037 354.126,470.285 331.702,479.516 320.372,482.748 319.979,482.592 317.316,481.215 315.985,480.344 315.762,482.245 315.365,483.717 315.095,484.253 307.382,486.452 281.151,490.817 263.863,491.748 263.484,491.438 263.354,491.312 263.087,491.438 262.16,491.84 252.993,492.333 225.548,490.902 199.887,486.773 176.007,480.192 175.108,479.835 174.046,479.089 171.344,477.569 169.914,477.157 167.86,476.953 153.907,471.407 133.585,460.665 126.403,455.842 125.83,454.962 125.652,453.589 122.545,453.252 115.039,448.212 98.2672,434.295 83.2685,419.161 70.0408,403.057 68.3143,400.522 68.2882,399.355 68.3022,399.181 67.1249,398.775 58.5824,386.23 48.8916,368.927 40.9666,351.394 34.8057,333.879 33.1944,327.559 35.5899,319.844 36.1593,318.411 37.4957,315.682 36.9931,315.671 35.024,315.052 30.955,312.584 29.5485,311.178 27.7694,299.888 26.8905,283.906 26.8905,232.424 27.1864,231.744 28.0868,230.194 27.1408,229.649 26.8905,229.453 26.8905,158.77 27.3835,157.396 28.0244,155.971 30.4509,151.538 31.525,149.956 32.1202,149.238 31.6935,149.067 29.4073,147.881 27.7538,146.803 26.8905,146.11 26.8905,108.783 27.1259,108.582 26.8905,108.397 26.8905,39.2491 30.056,36.931 30.5422,36.5965 31.6046,35.9109 29.807,35.3446 28.2994,34.7307 26.8905,34.0183 26.8905,19.5757 38.3822,19.4875 49.8739,19.3993 61.3656,19.3111 72.8572,19.223 84.3489,19.1348 95.8406,19.0466 107.332,18.9584 118.599,18.872 118.855,19.1778 119.136,18.8679 130.316,18.7821 141.807,18.6939 153.299,18.6057 164.791,18.5175 176.282,18.4294 187.774,18.3412 210.757,18.1648 210.732,31.0636 210.706,43.9624 210.681,56.8612 210.656,69.76 210.63,82.6588 210.621,87.4168 209.867,87.7318 208.233,88.2555 207.495,88.4237 209.997,90.5059 210.335,90.8005 210.614,91.0544 210.579,108.456 210.554,121.355 210.503,147.153 210.478,160.052 210.452,172.95 210.438,180.074 209.917,180.861 208.136,183.103 206.875,184.422 205.343,185.756 206.572,186.598 208.116,187.904 210.089,189.95 210.418,190.374 210.401,198.748 210.376,211.647 210.357,221.192 210.116,221.581 209.482,222.222 210.353,223.028 210.35,224.546 210.438,235.84 210.602,246.657 210.899,256.963 211.342,265.884 209.96,267.555 208.7,269.232 209.173,269.71 211.294,271.497 211.467,271.646 211.797,271.937 212.112,275.909 213.138,284.482 214.519,292.41 216.308,299.661 218.563,306.2 221.336,311.994 224.685,317.011 228.665,321.215 233.33,324.575 238.737,327.056 244.939,328.626 251.892,329.241 252.808,331.137 253.696,329.795 254.266,329.087 259.171,328.749 265.518,327.271 271.013,324.853 275.719,321.532 279.698,317.343 283.01,312.324 285.72,306.511 287.888,299.942 289.576,292.653 290.848,284.68 291.763,276.06 292.386,266.831 292.413,266.152 293.283,265.47 292.57,264.859 292.47,264.742 292.778,257.028 293,246.688 293.115,235.848 293.185,224.546 293.159,211.647 293.133,198.748 293.126,195.098 294.54,193.925 294.778,193.763 294.211,192.722 293.446,190.92 293.116,189.863 293.107,185.849 293.097,180.642 293.447,179.524 294.212,177.722 294.859,176.536 295.294,175.895 294.142,175.148 293.084,174.165 293.082,172.95 293.056,160.052 293.004,134.254 292.978,121.355 292.961,112.548 293.315,111.549 294.629,108.671 295.181,107.715 294.464,107.616 294.314,107.583 292.95,107.068 292.901,82.6588 292.875,69.76 292.797,31.0636 292.771,18.1648 304.525,18.0893 316.278,18.0137 328.031,17.9382 339.784,17.8626 351.538,17.787 363.291,17.7115 375.044,17.6359 381.768,17.5927 385.52,20.3468 386.073,19.1776 386.699,18.4495 387.877,17.5534 410.304,17.4092 422.057,17.3337 433.81,17.2581 444.971,17.1864 445.216,17.4096 445.4,17.1836 445.564,17.1826 457.317,17.107 469.07,17.0314 480.823,16.9559 " fill="none" stroke-width="0.5" stroke="rgb(0,0,0)" />
	<polygon points="195.107,444.987 196.202,445.163 197.548,445.303 198.566,445.343 199.812,445.275 195.318,444.921 195.079,444.882 " fill="none" stroke-width="0.5" stroke="rgb(0,0,0)" />
	<polygon points="318.179,422.371 318.39,423.068 318.72,424.521 318.8,424.907 318.895,425.417 318.923,425.437 319.551,425.928 320.417,426.664 320.93,427.174 321.058,427.06 321.766,426.468 322.483,425.923 323.183,425.438 324.169,424.839 324.078,424.517 323.704,421.809 323.704,420.55 " fill="none" stroke-width="0.5" stroke="rgb(0,0,0)" />
	<polygon points="168.609,414.797 168.537,415.855 169.271,414.164 168.604,413.815 " fill="none" stroke-width="0.5" stroke="rgb(0,0,0)" />
	<polygon points="76.8333,316.031 76.7911,316.421 77.5768,315.719 77.929,315.46 77.1452,314.835 " fill="none" stroke-width="0.5" stroke="rgb(0,0,0)" />
	<polygon points="163.234,254.865 163.538,254.29 163.1,254.2 " fill="none" stroke-width="0.5" stroke="rgb(0,0,0)" />
	<polygon points="92.1057,218.005 92.2411,218.539 92.4818,218.461 93.2108,218.338 96.2602,218.298 96.904,218.389 97.8529,218.662 97.9527,218.222 96.0241,218.221 92.8349,217.865 91.9963,217.671 " fill="none" stroke-width="0.5" stroke="rgb(0,0,0)" />
	<polygon points="433.289,216.805 432.928,216.875 433.121,217.035 433.242,217.161 433.527,216.748 " fill="none" stroke-width="0.5" stroke="rgb(0,0,0)" />
	<polygon points="106.875,167.821 106.31,168.129 106.939,168.619 109.938,171.286 110.961,172.34 111.761,173.296 112.163,172.732 112.765,172.074 111.311,170.745 109.92,169.176 108.275,166.873 " fill="none" stroke-width="0.5" stroke="rgb(0,0,0)" />
	<polygon points="424.168,146.956 422.112,148.795 425.795,149.883 427.641,150.636 428.799,151.25 428.761,151.115 428.647,149.052 427.421,148.513 425.648,147.507 424.431,146.641 " fill="none" stroke-width="0.5" stroke="rgb(0,0,0)" />
	<polygon points="91.4034,119.227 89.9639,120.162 89.1829,120.578 90.1002,120.578 91.5053,120.721 91.8374,120.789 91.6701,119.538 91.6435,119.321 91.6146,119.062 " fill="none" stroke-width="0.5" stroke="rgb(0,0,0)" />
	<polygon points="186.321,116.238 185.16,117.963 187.353,117.293 187.761,117.21 186.556,115.787 " fill="none" stroke-width="0.5" stroke="rgb(0,0,0)" />
	<polygon points="399.85,38.5858 399.897,38.5695 399.836,38.5521 " fill="none" stroke-width="0.5" stroke="rgb(0,0,0)" />
</svg>
