<?xml version="1.0" standalone="no" ?>
<!DOCTYPE svg PUBLIC "-//W3C//DTD SVG 1.1//EN" "http://www.w3.org/Graphics/SVG/1.1/DTD/svg11.dtd">
<svg width="500px" height="500px" xmlns="http://www.w3.org/2000/svg" version="1.1" >
	<polygon points="472.873,88.9834 471.981,89.8219 465.84,94.2616 466.176,94.263 468.661,94.7734 470.057,95.1965 472.152,96.0485 472.873,96.4325 472.873,281.063 472.056,295.616 469.61,311.065 465.487,327.338 459.666,344.131 452.133,361.151 442.878,378.109 431.892,394.723 419.168,410.715 404.698,425.814 388.472,439.752 370.477,452.268 350.693,463.101 329.09,471.994 314.215,476.236 313.551,475.574 313.093,475.013 313.554,476.149 313.628,476.404 305.634,478.684 280.282,482.902 252.986,484.372 226.389,482.985 201.58,478.993 178.539,472.643 157.243,464.178 137.669,453.832 119.805,441.836 103.642,428.424 89.1762,413.828 76.4108,398.287 65.349,382.043 55.995,365.341 48.3523,348.432 42.4222,331.573 38.8524,317.572 40.7101,313.779 37.9978,313.724 35.6853,299.049 34.8405,283.687 34.8405,149.169 35.5896,148.266 34.8405,148.047 34.8405,36.2625 36.1138,35.4409 36.219,35.3742 36.5289,35.181 34.8405,34.7533 34.8405,27.4649 38.4432,27.4373 49.9349,27.3491 61.4266,27.2609 72.9183,27.1727 84.4099,27.0845 95.9016,26.9964 95.9016,26.9964 107.393,26.9082 118.885,26.82 130.377,26.7318 141.868,26.6437 153.36,26.5555 164.852,26.4673 176.343,26.3791 187.835,26.291 202.792,26.1762 202.782,31.048 202.782,31.048 202.756,43.9468 202.731,56.8456 202.706,69.7443 202.706,69.7444 202.68,82.6431 202.672,86.6822 201.954,86.6091 202.671,87.1661 202.629,108.441 202.629,108.441 202.604,121.34 202.553,147.137 202.528,160.036 202.502,172.935 202.478,185.39 202.127,185.64 201.669,185.903 201.713,185.922 202.476,186.345 202.451,198.732 202.426,211.631 202.4,224.53 202.401,224.607 202.488,235.902 202.488,235.961 202.653,246.778 202.655,246.886 202.952,257.192 202.959,257.358 203.444,267.119 203.459,267.353 204.187,276.537 204.218,276.854 205.245,285.427 205.306,285.846 206.687,293.774 206.801,294.316 208.59,301.566 208.792,302.252 211.047,308.791 211.392,309.633 214.166,315.427 214.725,316.409 218.074,321.425 218.911,322.475 222.891,326.68 224.019,327.666 228.684,331.026 230.014,331.8 235.42,334.281 236.786,334.763 242.989,336.333 244.238,336.545 251.293,337.169 251.621,333.462 251.997,334.457 252.358,335.746 252.457,337.181 259.718,336.68 260.974,336.492 267.321,335.014 268.72,334.548 274.215,332.13 275.598,331.348 280.304,328.026 281.484,327.006 285.462,322.818 286.333,321.722 289.645,316.703 290.216,315.683 292.925,309.87 293.269,309.003 295.437,302.434 295.633,301.736 297.321,294.447 297.427,293.904 298.698,285.932 298.753,285.52 299.669,276.9 299.695,276.595 300.318,267.366 300.33,267.148 300.721,257.345 300.726,257.198 300.948,246.859 300.949,246.772 301.065,235.933 301.065,235.898 301.135,224.595 301.135,224.53 301.109,211.631 301.057,185.833 301.032,172.934 301.032,172.934 301.006,160.036 300.954,134.238 300.954,134.238 300.928,121.339 300.851,82.6429 300.851,82.6429 300.825,69.7441 300.747,31.0477 300.747,31.0477 300.737,26.0638 304.576,26.0391 316.329,25.9636 328.082,25.888 339.835,25.8124 351.589,25.7369 363.342,25.6613 375.095,25.5858 386.848,25.5102 410.355,25.3591 422.108,25.2835 433.861,25.208 445.615,25.1324 457.368,25.0568 469.121,24.9813 472.873,24.9571 " fill="none" stroke-width="0.5" stroke="rgb(0,0,0)" />
	<polygon points="305.516,468.454 304.85,469.162 306.384,469.441 307.053,469.634 308.89,470.425 309.384,470.716 310.792,471.839 309.707,469.781 309.121,468.346 308.369,465.823 308.13,464.605 " fill="none" stroke-width="0.5" stroke="rgb(0,0,0)" />
	<polygon points="192.553,443.653 192.938,444.786 193.441,446.738 194.412,446.952 195.933,447.197 197.401,447.349 198.582,447.395 200.16,447.309 201.623,447.051 202.889,446.637 203.891,446.105 204.654,445.477 205.283,444.662 205.848,443.424 205.908,443.145 202.913,443.369 201.697,443.367 195.479,442.878 194.134,442.655 191.882,442.079 " fill="none" stroke-width="0.5" stroke="rgb(0,0,0)" />
	<polygon points="158.98,437.65 157.853,439.031 155.058,441.764 156.744,440.626 158.214,439.045 159.132,437.415 " fill="none" stroke-width="0.5" stroke="rgb(0,0,0)" />
	<polygon points="316.654,420.715 315.469,420.968 315.575,421.16 316.069,422.458 316.391,423.523 316.721,424.975 316.785,425.282 317.031,426.601 317.725,427.101 318.224,427.491 319.091,428.227 319.98,429.111 320.713,429.966 320.819,430.125 320.969,429.966 321.255,429.677 321.97,428.993 322.372,428.634 323.08,428.042 323.65,427.608 324.35,427.123 325.168,426.627 325.858,426.263 326.756,425.878 326.401,425.203 326.052,423.962 325.754,421.809 325.754,417.716 " fill="none" stroke-width="0.5" stroke="rgb(0,0,0)" />
	<polygon points="166.558,413.498 166.564,414.657 166.255,419.177 166.523,419.055 169.955,419.54 169.937,419.019 169.97,418.651 170.275,417.061 170.371,416.741 171.114,415.03 171.272,414.759 172.293,413.419 172.022,413.292 169.386,411.911 168.765,411.548 166.337,409.981 166.282,409.941 " fill="none" stroke-width="0.5" stroke="rgb(0,0,0)" />
	<polygon points="259.479,403.427 259.203,404.358 258.612,405.809 258.318,406.367 258.697,406.535 261.557,407.963 262.074,408.245 264.856,409.901 265.287,410.177 267.905,411.973 268.299,412.262 270.663,414.107 271.065,414.443 273.087,416.248 273.26,416.415 273.958,416.295 274.289,416.245 275.623,416.073 275.936,416.038 276.359,416.001 268.866,411.566 267.523,410.566 260.421,404.011 259.555,403.035 " fill="none" stroke-width="0.5" stroke="rgb(0,0,0)" />
	<polygon points="350.41,395.735 349.677,396.96 349.034,397.843 352.848,397.629 353.383,397.624 352.495,396.61 351.674,395.486 351.038,394.434 " fill="none" stroke-width="0.5" stroke="rgb(0,0,0)" />
	<polygon points="309.151,394.706 308.557,394.881 307.224,395.217 307.507,395.205 309.422,394.952 309.269,394.74 309.249,394.674 " fill="none" stroke-width="0.5" stroke="rgb(0,0,0)" />
	<polygon points="203.921,391.543 204.412,392.638 204.878,393.928 205.661,392.771 207.493,390.852 208.992,389.734 207.217,389.892 205.642,389.875 202.848,389.567 " fill="none" stroke-width="0.5" stroke="rgb(0,0,0)" />
	<polygon points="243.385,374.671 243.73,374.902 245.035,375.995 245.778,376.767 245.847,376.852 246.276,376.864 246.614,376.898 246.134,375.126 245.889,373.757 245.693,371.569 " fill="none" stroke-width="0.5" stroke="rgb(0,0,0)" />
	<polygon points="82.7918,367.84 81.836,367.908 80.3612,367.923 80.9319,369.367 81.5347,373.347 83.2194,371.846 84.2507,371.068 85.8207,370.073 85.2438,369.582 84.2002,368.507 83.5807,367.736 " fill="none" stroke-width="0.5" stroke="rgb(0,0,0)" />
	<polygon points="357.71,370.548 357.676,370.88 358.598,370.564 358.705,370.532 358.33,370.288 357.685,369.768 " fill="none" stroke-width="0.5" stroke="rgb(0,0,0)" />
	<polygon points="324.809,368.435 325.61,368.383 325.066,368.028 " fill="none" stroke-width="0.5" stroke="rgb(0,0,0)" />
	<polygon points="117.909,358.013 117.497,360.202 117.083,361.605 120.33,361.311 119.624,360.525 118.957,359.555 117.952,357.519 " fill="none" stroke-width="0.5" stroke="rgb(0,0,0)" />
	<polygon points="294.327,359.217 294.021,359.313 294.729,359.839 294.904,359.972 295.565,360.491 295.548,359.758 295.6,358.651 295.601,358.642 " fill="none" stroke-width="0.5" stroke="rgb(0,0,0)" />
	<polygon points="394.186,342.53 393.487,343.032 392.465,343.685 390.443,344.608 389.608,344.856 388.064,344.983 388.873,347.272 389.215,348.759 392.78,345.772 394.687,344.587 396.618,343.739 396.1,343.114 395.92,342.89 395.085,341.807 " fill="none" stroke-width="0.5" stroke="rgb(0,0,0)" />
	<polygon points="59.2097,341.841 61.4829,345.497 61.8599,343.751 62.385,342.158 63.2712,340.195 62.4604,340.021 61.3879,339.711 58.9192,338.805 58.8343,338.764 " fill="none" stroke-width="0.5" stroke="rgb(0,0,0)" />
	<polygon points="160.47,335.288 159.462,336.46 157.281,338.545 155.956,339.568 154.17,340.668 155.955,341.75 156.906,342.426 159.255,344.372 159.613,344.711 159.597,344.316 159.655,342.532 159.692,341.989 159.871,340.225 159.959,339.601 160.265,337.924 160.447,337.149 160.886,335.625 161.26,334.599 161.782,333.424 " fill="none" stroke-width="0.5" stroke="rgb(0,0,0)" />
	<polygon points="415.631,333.704 414.121,333.868 414.142,333.986 414.163,334.11 414.387,335.479 414.43,335.778 414.588,337.047 414.638,337.609 414.698,338.737 414.706,339.389 414.697,339.723 414.659,340.302 414.642,340.469 418.177,340.77 418.378,340.805 416.997,338.115 415.964,333.641 " fill="none" stroke-width="0.5" stroke="rgb(0,0,0)" />
	<polygon points="165.589,323.485 165.352,324.829 164.602,327.644 164.138,328.929 163.002,331.388 163.358,330.89 165.054,329.154 165.929,328.496 168.26,327.418 166.467,324.703 165.688,323.194 165.628,323.041 " fill="none" stroke-width="0.5" stroke="rgb(0,0,0)" />
	<polygon points="75.7026,312.243 74.8114,315.66 74.5229,318.331 74.5493,319.265 74.6644,320.357 74.8681,321.318 74.988,321.666 75.298,321.161 76.2254,319.935 77.6431,318.396 78.7889,317.372 80.49,316.125 81.6771,315.418 80.8914,315.01 79.5948,314.167 78.1657,313.026 77.03,311.917 76.184,310.906 " fill="none" stroke-width="0.5" stroke="rgb(0,0,0)" />
	<polygon points="350.686,321.155 350.738,321.048 350.825,320.886 350.234,320.718 " fill="none" stroke-width="0.5" stroke="rgb(0,0,0)" />
	<polygon points="384.588,314.735 384.015,316.305 383.841,317.202 383.648,319.312 383.555,320.887 384.262,318.712 384.795,316.316 384.995,313.916 384.994,313.859 " fill="none" stroke-width="0.5" stroke="rgb(0,0,0)" />
	<polygon points="343.304,314.842 343.047,315.104 343.688,315.542 343.387,314.733 " fill="none" stroke-width="0.5" stroke="rgb(0,0,0)" />
	<polygon points="133.172,307.015 133.171,307.234 134.047,307.135 134.227,307.152 134.445,307.202 134.424,307.157 132.97,304.722 " fill="none" stroke-width="0.5" stroke="rgb(0,0,0)" />
	<polygon points="162.602,298.821 161.045,299.19 159.862,299.346 158.458,299.38 158.989,300.196 159.435,300.974 162.117,306.331 162.216,304.471 162.307,303.628 162.799,300.581 162.976,299.763 163.297,298.581 " fill="none" stroke-width="0.5" stroke="rgb(0,0,0)" />
	<polygon points="458.735,289.887 457.93,290.553 456.972,291.711 459.494,292.118 459.336,291.042 459.061,289.979 458.978,289.774 " fill="none" stroke-width="0.5" stroke="rgb(0,0,0)" />
	<polygon points="86.4572,288.831 86.448,288.849 87.2038,289.246 87.7253,289.661 87.8241,289.75 87.9799,288.993 88.286,285.781 88.3041,285.275 " fill="none" stroke-width="0.5" stroke="rgb(0,0,0)" />
	<polygon points="157.216,228.387 156.996,228.839 157.826,229.762 158.721,233.776 158.661,235.202 158.638,235.558 158.479,237.38 158.463,237.546 158.238,239.618 158.229,239.695 157.971,241.871 157.969,241.889 157.714,244.003 157.499,245.865 157.365,247.237 157.341,247.677 158.245,248.195 160.342,251.702 160.807,253.327 160.957,253.944 161.323,255.755 161.39,256.138 161.682,258.067 161.711,258.28 161.956,260.258 161.964,260.332 162.184,262.258 162.395,263.981 162.401,264.019 162.672,264.105 162.802,264.261 162.874,261.658 164.015,257.684 165.532,254.81 167.245,252.74 166.404,252.926 162.608,251.813 159.818,249.008 158.897,243.327 159.134,242.211 159.336,241.165 159.513,240.125 159.662,239.093 159.782,238.067 159.871,237.047 159.925,236.033 159.941,235.141 159.851,233.308 159.582,231.61 159.096,229.913 158.34,228.162 157.832,227.314 " fill="none" stroke-width="0.5" stroke="rgb(0,0,0)" />
	<polygon points="131.257,252.185 131.829,251.539 131.572,250.474 130.942,248.432 130.584,247.357 " fill="none" stroke-width="0.5" stroke="rgb(0,0,0)" />
	<polygon points="378.799,251.227 378.841,251.279 379.108,251.027 " fill="none" stroke-width="0.5" stroke="rgb(0,0,0)" />
	<polygon points="382.182,248.039 381.358,249.032 380.47,249.904 381.391,249.257 383.755,248.123 384.072,248.031 382.964,246.875 " fill="none" stroke-width="0.5" stroke="rgb(0,0,0)" />
	<polygon points="327.686,236.462 326.078,236.461 325.465,236.399 327.097,238.244 329.198,241.751 329.752,241.474 330.551,241.166 330.301,240.707 329.695,239.273 328.991,237.012 328.854,236.344 " fill="none" stroke-width="0.5" stroke="rgb(0,0,0)" />
	<polygon points="312.699,226.599 310.84,227.187 310.326,227.294 310.912,227.952 312.954,229.167 314.531,229.852 314.137,229.27 313.492,228.084 312.885,226.651 312.849,226.535 " fill="none" stroke-width="0.5" stroke="rgb(0,0,0)" />
	<polygon points="87.7533,214.133 88.2161,214.714 89.0554,216.01 89.4116,216.698 89.9059,217.876 90.1578,218.644 90.4249,219.697 90.5745,220.518 90.6541,221.183 92.8212,220.482 93.5501,220.36 95.9745,220.328 96.6182,220.419 98.7522,221.032 99.3639,221.305 99.5744,221.435 99.6514,220.398 99.8274,219.224 100.583,215.901 98.0035,216.185 96.2516,216.183 93.0624,215.827 91.2793,215.416 88.4151,214.397 87.6329,214.013 " fill="none" stroke-width="0.5" stroke="rgb(0,0,0)" />
	<polygon points="438.546,213.407 437.93,213.581 432.81,214.812 432.089,214.95 428.088,215.529 428.118,215.548 431.812,218.612 433.049,219.899 433.584,220.599 433.643,220.462 434.404,219.085 436.927,215.431 437.682,214.497 438.782,213.33 " fill="none" stroke-width="0.5" stroke="rgb(0,0,0)" />
	<polygon points="66.6622,216.887 68.0072,218.47 68.2406,218.832 68.9777,217.578 68.1,217.348 66.7338,216.853 66.5069,216.747 " fill="none" stroke-width="0.5" stroke="rgb(0,0,0)" />
	<polygon points="190.141,214.002 191.35,216.402 191.406,216.554 193.196,216.08 193.016,215.737 192.515,215.159 191.72,214.579 190.405,213.972 190.057,213.876 " fill="none" stroke-width="0.5" stroke="rgb(0,0,0)" />
	<polygon points="381.354,203.257 380.503,204.513 380.08,205.023 380.567,205.425 380.928,205.785 382.679,203.55 383.495,203.202 382.035,202.012 " fill="none" stroke-width="0.5" stroke="rgb(0,0,0)" />
	<polygon points="368.2,179.875 368.2,180.11 368.537,180.109 368.072,178.622 " fill="none" stroke-width="0.5" stroke="rgb(0,0,0)" />
	<polygon points="146.753,176.105 145.76,176.368 146.776,177.339 147.221,175.946 " fill="none" stroke-width="0.5" stroke="rgb(0,0,0)" />
	<polygon points="108.188,164.312 107.153,165.168 105.893,166.021 104.707,166.668 103.273,167.276 102.034,167.664 104.761,169.516 105.577,170.151 108.575,172.818 109.389,173.656 111.978,176.749 111.979,176.751 112.56,175.681 113.676,174.115 115.063,172.598 115.769,172.008 115.588,171.876 112.694,169.232 111.588,167.984 109.366,164.873 108.73,163.77 " fill="none" stroke-width="0.5" stroke="rgb(0,0,0)" />
	<polygon points="365.711,171.32 365.985,171.82 365.891,171.44 365.853,171.224 " fill="none" stroke-width="0.5" stroke="rgb(0,0,0)" />
	<polygon points="422.801,145.428 420.06,147.88 418.691,148.864 417.285,149.664 418.795,149.952 425.214,151.849 426.682,152.448 432.098,155.316 430.731,150.55 430.65,147.627 429.925,147.375 428.246,146.637 426.836,145.836 425.476,144.869 424.231,143.718 " fill="none" stroke-width="0.5" stroke="rgb(0,0,0)" />
	<polygon points="355.777,144.747 356.871,144.637 358.463,144.637 359.803,144.772 361.361,145.088 361.469,145.122 357.952,142.045 356.991,141.043 356.22,140.083 " fill="none" stroke-width="0.5" stroke="rgb(0,0,0)" />
	<polygon points="127.224,138.254 127.596,139.364 127.952,141.073 128.014,140.858 128.27,139.824 128.481,138.812 128.644,137.835 128.684,137.505 " fill="none" stroke-width="0.5" stroke="rgb(0,0,0)" />
	<polygon points="313.033,126.152 312.153,126.757 311.431,127.449 310.895,128.159 310.566,128.787 310.193,129.965 309.452,131.152 310.104,131.416 310.918,131.643 311.779,131.78 312.827,131.833 313.056,131.826 313.495,131.792 314.049,131.731 314.689,131.649 315.35,131.56 315.213,131.339 315.028,130.984 314.569,129.916 314.44,129.542 314.154,128.48 314.078,128.093 313.945,127.063 313.92,126.67 313.939,125.729 " fill="none" stroke-width="0.5" stroke="rgb(0,0,0)" />
	<polygon points="185.614,112.577 185.384,113.321 184.839,114.646 184.503,115.291 183.511,116.765 183.06,117.296 181.544,118.673 180.97,119.072 179.102,120.035 178.397,120.286 176.544,120.707 175.7,120.795 175.371,120.769 175.408,120.844 176.869,124.638 179.395,122.881 180.368,122.302 183.488,120.736 184.73,120.238 187.952,119.253 189.458,118.948 191.721,118.714 187.738,114.01 187.478,113.687 185.853,111.551 " fill="none" stroke-width="0.5" stroke="rgb(0,0,0)" />
	<polygon points="92.9307,115.401 92.4068,115.847 90.1436,117.61 88.9993,118.353 86.6612,119.6 84.4565,120.385 82.0551,120.858 81.5373,120.881 81.6531,122.914 81.6639,123.543 81.6403,124.607 82.5661,124.102 84.0008,123.492 85.3097,123.083 86.8787,122.761 88.2818,122.618 89.8927,122.618 91.2978,122.76 92.8647,123.082 94.1756,123.491 94.2726,123.533 93.702,119.266 93.6809,119.094 93.2369,115.117 " fill="none" stroke-width="0.5" stroke="rgb(0,0,0)" />
	<polygon points="125.03,114.669 125.303,114.348 126.211,113.442 126.142,113.38 125.52,112.708 " fill="none" stroke-width="0.5" stroke="rgb(0,0,0)" />
	<polygon points="416.307,105.872 416.289,105.159 416.514,104.724 416.311,104.722 416.156,104.719 415.014,104.686 " fill="none" stroke-width="0.5" stroke="rgb(0,0,0)" />
	<polygon points="394.748,103.908 395.312,104.763 396.437,104.395 398.029,103.796 398.684,103.542 398.62,103.535 398.472,103.518 395.045,103.093 394.895,103.073 393.988,102.943 " fill="none" stroke-width="0.5" stroke="rgb(0,0,0)" />
	<polygon points="146.543,104.286 148.277,104.159 146.781,102.956 " fill="none" stroke-width="0.5" stroke="rgb(0,0,0)" />
	<polygon points="383.933,98.1576 384.299,98.1796 384.165,97.9839 " fill="none" stroke-width="0.5" stroke="rgb(0,0,0)" />
	<polygon points="67.0661,96.3393 68.784,97.1315 68.8276,97.1596 68.8842,96.7244 68.8857,96.713 69.0738,95.2827 " fill="none" stroke-width="0.5" stroke="rgb(0,0,0)" />
	<polygon points="127.442,64.0507 126.714,67.5017 126.606,67.9525 125.759,71.0596 125.52,71.6694 125.684,71.7755 125.927,70.8488 126.188,70.0908 127.063,68.3133 127.432,67.7518 129.019,66.1147 127.531,64.0435 127.465,63.9558 " fill="none" stroke-width="0.5" stroke="rgb(0,0,0)" />
	<polygon points="103.883,62.819 102.046,64.3924 101.848,64.5564 100.066,65.9843 99.3038,66.5251 97.945,67.3734 97.9743,67.4753 98.2059,68.5641 98.3136,69.3306 98.3427,69.6548 99.9737,68.6918 102.032,67.9783 105.105,67.725 104.995,66.4161 104.974,66.0834 104.833,62.6739 104.777,62.0911 " fill="none" stroke-width="0.5" stroke="rgb(0,0,0)" />
	<polygon points="410.856,62.5812 411.31,62.9903 412.93,64.5646 414.637,66.1673 416.308,67.5091 417.902,68.4769 419.383,69.0342 421.223,69.2664 421.259,69.2647 421.701,69.1976 421.901,69.139 421.906,69.0887 421.65,68.2366 420.375,66.9203 417.025,64.9386 412.363,63.0071 410.708,62.4584 " fill="none" stroke-width="0.5" stroke="rgb(0,0,0)" />
	<polygon points="397.806,38.9803 398.457,40.5448 398.695,41.3465 399.454,40.965 400.426,40.5555 403.398,39.529 403.918,39.369 406.396,38.6988 406.342,38.6702 402.13,37.0734 398.202,35.9562 395.822,35.3605 " fill="none" stroke-width="0.5" stroke="rgb(0,0,0)" />
</svg>
