<?xml version="1.0" standalone="no" ?>
<!DOCTYPE svg PUBLIC "-//W3C//DTD SVG 1.1//EN" "http://www.w3.org/Graphics/SVG/1.1/DTD/svg11.dtd">
<svg width="500px" height="500px" xmlns="http://www.w3.org/2000/svg" version="1.1" >
	<polygon points="480.823,83.073 480.599,83.4441 475.284,89.916 473.358,91.7264 471.343,93.1828 473.037,93.8716 474.906,94.8665 476.629,96.0256 478.325,97.4532 479.694,98.8847 480.823,100.344 480.823,193.267 479.984,194.238 478.405,195.312 477.644,195.613 480.22,198.472 480.823,199.281 480.823,249.6 480.423,250.215 479.384,251.664 480.187,251.95 480.823,252.276 480.823,281.286 479.971,296.463 479.753,297.839 478.325,299.606 477.492,300.518 475.691,302.268 477.5,305.732 478.105,307.136 478.226,307.485 477.405,312.666 473.11,329.62 467.07,347.047 459.27,364.67 454.138,374.073 451.916,374.334 452.22,377.588 449.695,382.213 438.331,399.399 425.161,415.952 410.17,431.593 399.61,440.665 398.439,440.298 398.156,441.914 393.345,446.047 374.668,459.037 354.126,470.285 331.702,479.516 319.9,482.882 319.841,482.859 317.178,481.482 316.223,480.857 316.052,482.323 315.654,483.795 315.479,484.143 307.382,486.452 281.151,490.817 263.419,491.772 263.295,491.671 263.207,491.713 263.021,491.793 252.993,492.333 225.548,490.902 199.887,486.773 176.007,480.192 173.905,479.357 173.886,479.343 171.227,477.847 169.857,477.453 168.869,477.355 153.907,471.407 133.585,460.665 125.754,455.407 125.572,455.129 125.396,453.863 123.081,453.611 115.039,448.212 98.2672,434.295 83.2685,419.161 70.0408,403.057 68.0057,400.069 67.9902,399.376 67.4072,399.19 58.5824,386.23 48.8916,368.927 40.9666,351.394 34.8057,333.879 33.0527,327.004 35.3034,319.755 35.8899,318.279 37.0254,315.96 36.9031,315.957 34.934,315.338 30.7428,312.796 29.6278,311.681 27.7694,299.888 26.8905,283.906 26.8905,231.672 26.9114,231.624 27.6794,230.302 26.9558,229.885 26.8905,229.834 26.8905,157.881 27.1011,157.294 27.7613,155.827 30.1878,151.394 31.2941,149.765 31.6276,149.363 31.5553,149.334 29.2691,148.147 27.566,147.037 26.8905,146.495 26.8905,38.8772 29.8787,36.6889 30.3795,36.3444 30.9053,36.0051 29.7168,35.6307 28.164,34.9984 26.8905,34.3545 26.8905,19.5757 38.3822,19.4875 49.8739,19.3993 61.3656,19.3111 72.8572,19.223 84.3489,19.1348 95.8406,19.0466 107.332,18.9584 118.824,18.8703 130.316,18.7821 141.807,18.6939 153.299,18.6057 164.791,18.5175 176.282,18.4294 187.774,18.3412 210.757,18.1648 210.732,31.0636 210.706,43.9624 210.681,56.8612 210.656,69.76 210.63,82.6588 210.62,87.7422 209.983,88.0086 208.3,88.548 208.154,88.5813 210.189,90.2753 210.537,90.5787 210.614,90.6493 210.579,108.456 210.554,121.355 210.503,147.153 210.478,160.052 210.452,172.95 210.437,180.617 210.152,181.047 208.371,183.289 207.072,184.648 205.833,185.727 206.741,186.35 208.332,187.696 210.305,189.742 210.419,189.888 210.401,198.748 210.376,211.647 210.356,221.754 209.91,222.209 210.354,222.62 210.35,224.546 210.438,235.84 210.602,246.657 210.899,256.963 211.364,266.328 210.196,267.741 209.095,269.205 209.376,269.489 211.487,271.268 211.665,271.421 211.763,271.507 212.112,275.909 213.138,284.482 214.519,292.41 216.308,299.661 218.563,306.2 221.336,311.994 224.685,317.011 228.665,321.215 233.33,324.575 238.737,327.056 244.939,328.626 251.957,329.247 252.22,329.229 252.849,330.533 253.462,329.606 253.858,329.116 259.171,328.749 265.518,327.271 271.013,324.853 275.719,321.532 279.698,317.343 283.01,312.324 285.72,306.511 287.888,299.942 289.576,292.653 290.848,284.68 291.763,276.06 292.386,266.831 292.429,265.761 292.811,265.461 292.453,265.154 292.778,257.028 293,246.688 293.115,235.848 293.185,224.546 293.159,211.647 293.133,198.748 293.125,194.709 294.349,193.694 294.385,193.669 293.947,192.866 293.16,191.009 293.118,190.874 293.107,185.849 293.095,179.645 293.161,179.435 293.949,177.579 294.596,176.393 294.877,175.977 293.938,175.368 293.085,174.575 293.082,172.95 293.056,160.052 293.004,134.254 292.978,121.355 292.959,111.658 293.042,111.424 294.356,108.547 294.7,107.951 294.401,107.909 294.25,107.876 292.95,107.385 292.901,82.6588 292.875,69.76 292.797,31.0636 292.771,18.1648 304.525,18.0893 316.278,18.0137 328.031,17.9382 339.784,17.8626 351.538,17.787 363.291,17.7115 375.044,17.6359 382.271,17.5895 385.419,19.9003 385.846,18.982 386.472,18.2539 387.388,17.5566 410.304,17.4092 422.057,17.3337 433.81,17.2581 445.564,17.1826 457.317,17.107 469.07,17.0314 480.823,16.9559 " fill="none" stroke-width="0.5" stroke="rgb(0,0,0)" />
	<polygon points="318.55,422.565 318.682,423.002 319.013,424.454 319.095,424.852 319.169,425.249 319.745,425.7 320.611,426.435 320.943,426.765 321.574,426.238 322.312,425.676 323.013,425.191 323.819,424.702 323.789,424.598 323.404,421.809 323.404,420.965 " fill="none" stroke-width="0.5" stroke="rgb(0,0,0)" />
	<polygon points="77.2538,315.607 77.3994,315.477 77.4355,315.45 77.3189,315.357 " fill="none" stroke-width="0.5" stroke="rgb(0,0,0)" />
	<polygon points="92.4541,218.161 92.6512,218.128 92.433,218.078 " fill="none" stroke-width="0.5" stroke="rgb(0,0,0)" />
	<polygon points="107.018,168.084 106.854,168.174 107.139,168.395 110.137,171.062 111.191,172.147 111.744,172.808 111.942,172.53 112.341,172.093 111.109,170.966 109.676,169.35 108.2,167.284 " fill="none" stroke-width="0.5" stroke="rgb(0,0,0)" />
	<polygon points="424.368,147.179 422.713,148.66 425.88,149.596 427.782,150.371 428.444,150.722 428.358,149.253 427.301,148.788 425.474,147.751 424.481,147.044 " fill="none" stroke-width="0.5" stroke="rgb(0,0,0)" />
	<polygon points="90.3039,120.297 91.4851,120.417 91.3759,119.601 " fill="none" stroke-width="0.5" stroke="rgb(0,0,0)" />
	<polygon points="186.587,116.377 185.878,117.43 187.21,117.023 186.616,116.322 " fill="none" stroke-width="0.5" stroke="rgb(0,0,0)" />
</svg>
