<?xml version="1.0" standalone="no" ?>
<!DOCTYPE svg PUBLIC "-//W3C//DTD SVG 1.1//EN" "http://www.w3.org/Graphics/SVG/1.1/DTD/svg11.dtd">
<svg width="500px" height="500px" xmlns="http://www.w3.org/2000/svg" version="1.1" >
	<polygon points="461.323,280.739 460.557,294.386 458.284,308.738 454.412,324.022 448.91,339.896 441.766,356.039 432.974,372.146 422.538,387.929 410.461,403.108 396.746,417.418 381.393,430.607 364.389,442.433 345.706,452.664 325.296,461.066 303.094,467.398 279.019,471.403 252.976,472.806 227.611,471.483 204.039,467.69 182.217,461.677 162.089,453.675 143.604,443.904 126.73,432.574 111.45,419.894 97.7592,406.081 85.6654,391.357 75.1797,375.959 66.315,360.131 59.0824,344.13 53.4877,328.224 49.5278,312.693 47.1857,297.829 46.3905,283.37 46.3905,38.9266 50.0235,38.8987 61.5152,38.8106 73.0069,38.7224 84.4985,38.6342 95.9902,38.546 107.482,38.4579 118.974,38.3697 130.465,38.2815 141.957,38.1933 153.449,38.1052 176.432,37.9288 187.924,37.8406 191.219,37.8153 191.207,43.924 191.181,56.8228 191.156,69.7216 191.156,69.7216 191.13,82.6204 191.079,108.418 191.079,108.418 191.054,121.317 191.003,147.114 191.003,147.114 190.978,160.013 190.952,172.912 190.952,172.912 190.927,185.811 190.901,198.71 190.876,211.608 190.876,211.608 190.85,224.507 190.851,224.696 190.938,235.991 190.94,236.137 191.104,246.954 191.11,247.219 191.407,257.525 191.423,257.931 191.908,267.692 191.945,268.266 192.673,277.45 192.75,278.228 193.777,286.801 193.927,287.827 195.308,295.755 195.587,297.083 197.377,304.334 197.873,306.016 200.127,312.555 200.974,314.62 203.748,320.414 205.119,322.822 208.468,327.838 210.523,330.415 214.502,334.619 217.269,337.039 221.935,340.399 225.196,342.297 230.603,344.779 233.953,345.96 240.156,347.53 243.22,348.05 250.275,348.674 251.947,329.779 253.252,348.704 260.513,348.203 263.593,347.741 269.94,346.263 273.372,345.12 278.867,342.702 282.259,340.784 286.965,337.462 289.858,334.961 293.837,330.772 295.972,328.085 299.285,323.066 300.685,320.562 303.394,314.75 304.237,312.622 306.405,306.053 306.885,304.343 308.573,297.053 308.833,295.723 310.104,287.75 310.238,286.74 311.154,278.121 311.219,277.373 311.842,268.143 311.871,267.609 312.262,257.806 312.273,257.447 312.495,247.107 312.499,246.895 312.614,236.056 312.615,235.969 312.685,224.666 312.685,224.506 312.659,211.608 312.633,198.709 312.607,185.81 312.582,172.911 312.582,172.911 312.556,160.013 312.504,134.215 312.504,134.215 312.478,121.316 312.401,82.6198 312.401,82.6197 312.375,69.721 312.31,37.5396 316.403,37.5133 328.156,37.4378 339.91,37.3622 351.663,37.2866 363.416,37.2111 375.169,37.1355 386.923,37.06 410.429,36.9088 422.182,36.8333 433.936,36.7577 445.689,36.6822 457.442,36.6066 461.323,36.5816 " fill="none" stroke-width="0.5" stroke="rgb(0,0,0)" />
</svg>
