<?xml version="1.0" standalone="no" ?>
<!DOCTYPE svg PUBLIC "-//W3C//DTD SVG 1.1//EN" "http://www.w3.org/Graphics/SVG/1.1/DTD/svg11.dtd">
<svg width="500px" height="500px" xmlns="http://www.w3.org/2000/svg" version="1.1" >
	<polygon points="462.573,280.774 461.802,294.519 459.51,308.99 455.61,324.381 450.074,340.354 442.888,356.592 434.046,372.792 423.55,388.664 411.403,403.931 397.607,418.326 382.159,431.596 365.048,443.498 346.245,453.793 325.707,462.248 303.369,468.619 279.156,472.648 252.977,474.058 227.479,472.728 203.772,468.913 181.819,462.863 161.564,454.812 142.962,444.979 125.981,433.576 110.605,420.817 96.8303,406.919 84.6638,392.107 74.1157,376.617 65.1981,360.694 57.9212,344.595 52.2901,328.586 48.3021,312.945 45.9411,297.961 45.1405,283.404 45.1405,37.6862 50.0139,37.6488 61.5056,37.5606 72.9973,37.4724 84.4889,37.3842 95.9806,37.2961 95.9806,37.2961 118.964,37.1197 130.456,37.0315 141.947,36.9434 153.439,36.8552 164.931,36.767 176.422,36.6788 187.914,36.5907 192.471,36.5557 192.456,43.9264 192.431,56.8252 192.406,69.724 192.406,69.7241 192.38,82.6228 192.329,108.42 192.329,108.42 192.304,121.319 192.253,147.117 192.253,147.117 192.228,160.016 192.202,172.914 192.202,172.914 192.177,185.813 192.151,198.712 192.126,211.611 192.1,224.51 192.101,224.686 192.188,235.981 192.19,236.118 192.354,246.935 192.36,247.183 192.657,257.489 192.671,257.869 193.156,267.63 193.191,268.167 193.919,277.351 193.991,278.079 195.018,286.652 195.159,287.612 196.539,295.541 196.801,296.784 198.59,304.034 199.055,305.608 201.309,312.147 202.102,314.08 204.875,319.875 206.158,322.128 209.507,327.144 211.431,329.555 215.41,333.76 218,336.025 222.665,339.384 225.718,341.161 231.124,343.643 234.26,344.749 240.463,346.318 243.33,346.805 250.385,347.429 251.947,329.779 253.166,347.457 260.427,346.956 263.31,346.524 269.657,345.046 272.868,343.976 278.364,341.558 281.538,339.763 286.244,336.441 288.952,334.1 292.93,329.911 294.929,327.396 298.242,322.377 299.552,320.034 302.261,314.222 303.05,312.231 305.218,305.661 305.667,304.061 307.355,296.771 307.599,295.526 308.87,287.553 308.995,286.608 309.911,277.989 309.972,277.289 310.595,268.059 310.622,267.559 311.013,257.756 311.023,257.42 311.246,247.08 311.249,246.882 311.364,236.042 311.365,235.961 311.435,224.659 311.435,224.509 311.409,211.61 311.383,198.711 311.357,185.813 311.332,172.914 311.332,172.914 311.306,160.015 311.254,134.217 311.254,134.217 311.228,121.319 311.151,82.6223 311.151,82.6222 311.125,69.7234 311.058,36.2977 316.395,36.2633 316.395,36.2633 328.148,36.1878 339.902,36.1122 351.655,36.0367 363.408,35.9611 375.161,35.8855 386.915,35.81 410.421,35.6589 422.174,35.5833 433.928,35.5077 445.681,35.4322 457.434,35.3566 462.573,35.3236 " fill="none" stroke-width="0.5" stroke="rgb(0,0,0)" />
</svg>
