<?xml version="1.0" standalone="no" ?>
<!DOCTYPE svg PUBLIC "-//W3C//DTD SVG 1.1//EN" "http://www.w3.org/Graphics/SVG/1.1/DTD/svg11.dtd">
<svg width="500px" height="500px" xmlns="http://www.w3.org/2000/svg" version="1.1" >
	<polygon points="468.523,280.941 467.725,295.153 465.344,310.189 461.316,326.089 455.615,342.536 448.229,359.226 439.148,375.863 428.369,392.164 415.888,407.85 401.703,422.652 385.806,436.308 368.184,448.564 348.814,459.17 327.661,467.878 304.677,474.433 279.806,478.572 252.982,480.016 226.849,478.653 202.506,474.736 179.924,468.513 159.068,460.222 139.905,450.093 122.413,438.348 106.582,425.211 92.4088,410.91 79.8963,395.677 69.0514,379.751 59.8817,363.378 52.3935,346.812 46.5897,330.312 42.4679,314.146 40.0166,298.589 39.1905,283.568 39.1905,31.7816 49.9683,31.6989 61.4599,31.6108 61.4599,31.6108 72.9516,31.5226 84.4433,31.4344 95.935,31.3462 107.427,31.2581 118.918,31.1699 130.41,31.0817 153.393,30.9054 164.885,30.8172 187.868,30.6408 198.433,30.5598 198.432,31.0394 198.432,31.0394 198.406,43.9382 198.381,56.837 198.356,69.7358 198.356,69.7358 198.33,82.6346 198.279,108.432 198.279,108.432 198.254,121.331 198.203,147.129 198.203,147.129 198.178,160.027 198.152,172.926 198.152,172.926 198.127,185.825 198.101,198.724 198.076,211.623 198.076,211.623 198.05,224.521 198.051,224.641 198.138,235.935 198.139,236.027 198.303,246.844 198.307,247.011 198.604,257.318 198.614,257.573 199.099,267.335 199.122,267.697 199.85,276.881 199.899,277.372 200.926,285.944 201.021,286.592 202.401,294.52 202.577,295.358 204.367,302.608 204.68,303.669 206.934,310.208 207.468,311.511 210.242,317.305 211.107,318.824 214.456,323.84 215.752,325.465 219.732,329.67 221.477,331.196 226.142,334.556 228.199,335.754 233.606,338.235 235.719,338.98 241.922,340.55 243.855,340.878 250.909,341.502 251.947,329.779 252.757,341.521 260.017,341.02 261.96,340.729 268.307,339.251 270.472,338.53 275.967,336.112 278.107,334.902 282.813,331.58 284.638,330.002 288.616,325.813 289.963,324.119 293.276,319.1 294.159,317.521 296.868,311.708 297.4,310.366 299.568,303.797 299.87,302.718 301.559,295.428 301.723,294.589 302.994,286.617 303.079,285.98 303.995,277.36 304.036,276.888 304.658,267.658 304.676,267.321 305.068,257.518 305.075,257.292 305.297,246.952 305.299,246.819 305.414,235.979 305.415,235.925 305.485,224.622 305.485,224.521 305.459,211.622 305.433,198.723 305.407,185.825 305.382,172.926 305.382,172.926 305.356,160.027 305.304,134.229 305.304,134.229 305.278,121.331 305.201,82.6342 305.201,82.6342 305.175,69.7354 305.097,31.039 305.097,31.039 305.096,30.3859 316.357,30.3135 316.357,30.3135 328.11,30.2379 339.863,30.1624 351.617,30.0868 363.37,30.0112 375.123,29.9357 386.876,29.8601 410.383,29.709 422.136,29.6334 433.889,29.5579 445.643,29.4823 457.396,29.4067 468.523,29.3352 " fill="none" stroke-width="0.5" stroke="rgb(0,0,0)" />
	<polygon points="320.934,423.885 320.963,424.01 320.989,424.136 321.013,424.154 321.174,424.032 321.664,423.692 321.658,423.646 " fill="none" stroke-width="0.5" stroke="rgb(0,0,0)" />
</svg>
