<?xml version="1.0" standalone="no" ?>
<!DOCTYPE svg PUBLIC "-//W3C//DTD SVG 1.1//EN" "http://www.w3.org/Graphics/SVG/1.1/DTD/svg11.dtd">
<svg width="500px" height="500px" xmlns="http://www.w3.org/2000/svg" version="1.1" >
	<polygon points="472.023,90.8405 467.977,93.7652 468.832,93.9408 470.377,94.4091 472.023,95.0786 472.023,281.039 471.21,295.525 468.776,310.894 464.672,327.094 458.875,343.82 451.37,360.775 442.149,377.67 431.204,394.223 418.527,410.155 404.112,425.196 387.951,439.079 370.029,451.544 350.326,462.333 328.811,471.19 305.447,477.853 280.189,482.056 252.985,483.521 226.479,482.139 201.761,478.161 178.81,471.836 157.599,463.405 138.106,453.101 120.315,441.154 104.216,427.796 89.8079,413.258 77.0919,397.777 66.0724,381.595 56.7545,364.957 49.1419,348.116 43.2366,331.327 39.1052,315.123 39.3773,314.568 38.99,314.56 36.5317,298.959 35.6905,283.664 35.6905,28.3084 38.4497,28.2872 49.9414,28.199 61.4331,28.1109 72.9248,28.0227 84.4164,27.9345 95.9081,27.8463 107.4,27.7582 118.891,27.67 141.875,27.4936 153.366,27.4055 164.858,27.3173 176.35,27.2291 187.842,27.1409 201.94,27.0328 201.932,31.0463 201.932,31.0463 201.906,43.9451 201.881,56.8439 201.856,69.7427 201.856,69.7427 201.83,82.6415 201.779,108.439 201.779,108.439 201.754,121.338 201.703,147.135 201.678,160.034 201.652,172.933 201.627,185.832 201.601,198.731 201.576,211.629 201.55,224.528 201.551,224.614 201.638,235.908 201.639,235.974 201.803,246.791 201.806,246.911 202.103,257.217 202.11,257.4 202.595,267.162 202.611,267.42 203.339,276.605 203.374,276.955 204.401,285.528 204.469,285.991 205.849,293.92 205.975,294.519 207.765,301.77 207.989,302.529 210.243,309.068 210.625,310 213.399,315.794 214.018,316.881 217.367,321.897 218.294,323.06 222.274,327.264 223.522,328.356 228.188,331.716 229.659,332.573 235.066,335.054 236.578,335.587 242.781,337.157 244.163,337.391 251.218,338.016 251.772,331.752 252.135,332.502 252.516,338.029 259.777,337.528 261.167,337.32 267.514,335.842 269.062,335.326 274.558,332.908 276.088,332.043 280.794,328.721 282.1,327.592 286.078,323.403 287.042,322.191 290.355,317.172 290.986,316.042 293.696,310.229 294.076,309.269 296.244,302.7 296.461,301.928 298.149,294.639 298.267,294.038 299.538,286.065 299.598,285.61 300.514,276.99 300.544,276.653 301.166,267.423 301.179,267.182 301.571,257.379 301.576,257.217 301.798,246.877 301.799,246.781 301.915,235.942 301.915,235.903 301.985,224.6 301.985,224.528 301.959,211.629 301.933,198.73 301.907,185.832 301.882,172.933 301.882,172.933 301.856,160.034 301.804,134.236 301.804,134.236 301.778,121.338 301.701,82.6412 301.701,82.6412 301.675,69.7424 301.597,31.046 301.597,31.046 301.589,26.9083 304.581,26.8891 316.334,26.8135 328.088,26.738 339.841,26.6624 351.594,26.5869 363.347,26.5113 375.101,26.4357 386.854,26.3602 410.36,26.2091 422.114,26.1335 433.867,26.0579 445.62,25.9824 457.373,25.9068 469.127,25.8313 472.023,25.8126 " fill="none" stroke-width="0.5" stroke="rgb(0,0,0)" />
	<polygon points="306.449,468.593 306.619,468.624 307.288,468.817 308.637,469.398 308.307,468.589 307.741,466.691 " fill="none" stroke-width="0.5" stroke="rgb(0,0,0)" />
	<polygon points="193.761,444.574 194.134,446.02 194.571,446.117 196.045,446.354 197.462,446.501 198.575,446.544 200.063,446.463 201.416,446.224 202.555,445.851 203.417,445.395 204.04,444.882 204.551,444.221 204.608,444.095 202.976,444.217 201.63,444.214 195.412,443.725 193.923,443.478 193.338,443.328 " fill="none" stroke-width="0.5" stroke="rgb(0,0,0)" />
	<polygon points="316.92,421.522 316.644,421.581 316.863,422.155 317.22,423.334 317.55,424.787 317.62,425.127 317.804,426.11 318.222,426.411 318.774,426.843 319.641,427.579 320.625,428.558 320.882,428.857 321.382,428.379 321.827,427.981 322.535,427.389 323.166,426.909 323.867,426.424 324.772,425.875 325.462,425.511 325.594,425.454 325.583,425.433 325.233,424.192 324.904,421.809 324.904,418.891 " fill="none" stroke-width="0.5" stroke="rgb(0,0,0)" />
	<polygon points="167.406,413.432 167.412,414.715 167.153,418.502 169.112,418.704 169.123,418.576 169.461,416.816 169.557,416.497 170.38,414.602 170.537,414.332 171.005,413.718 168.992,412.663 168.303,412.262 167.262,411.59 " fill="none" stroke-width="0.5" stroke="rgb(0,0,0)" />
	<polygon points="273.533,415.506 273.782,415.463 272.9,414.941 " fill="none" stroke-width="0.5" stroke="rgb(0,0,0)" />
	<polygon points="259.461,405.967 261.937,407.202 262.508,407.514 263.791,408.278 259.96,404.742 " fill="none" stroke-width="0.5" stroke="rgb(0,0,0)" />
	<polygon points="350.7,396.898 351.62,396.847 351.131,396.179 " fill="none" stroke-width="0.5" stroke="rgb(0,0,0)" />
	<polygon points="204.668,391.137 205.113,392.13 206.451,390.729 205.549,390.72 204.371,390.59 " fill="none" stroke-width="0.5" stroke="rgb(0,0,0)" />
	<polygon points="244.57,374.503 245.267,375.087 245.047,373.861 " fill="none" stroke-width="0.5" stroke="rgb(0,0,0)" />
	<polygon points="82.9031,368.682 81.8451,368.758 81.5828,368.76 81.7723,369.24 82.1403,371.669 82.654,371.212 83.7956,370.35 84.424,369.952 83.5374,369.039 83.2175,368.641 " fill="none" stroke-width="0.5" stroke="rgb(0,0,0)" />
	<polygon points="118.333,360.359 118.248,360.646 118.651,360.609 118.364,360.193 " fill="none" stroke-width="0.5" stroke="rgb(0,0,0)" />
	<polygon points="394.718,343.192 393.944,343.748 392.923,344.401 390.685,345.423 389.85,345.671 389.227,345.722 389.674,346.989 389.728,347.221 392.234,345.12 394.345,343.809 395.249,343.412 395.247,343.409 394.942,343.013 " fill="none" stroke-width="0.5" stroke="rgb(0,0,0)" />
	<polygon points="60.0307,341.552 61.1183,343.301 61.6103,341.809 62.0697,340.791 61.0949,340.509 59.8476,340.051 " fill="none" stroke-width="0.5" stroke="rgb(0,0,0)" />
	<polygon points="157.868,339.159 156.402,340.291 155.8,340.662 156.396,341.023 157.448,341.771 158.793,342.886 158.806,342.504 158.846,341.904 159.025,340.139 159.123,339.449 159.429,337.771 159.46,337.638 " fill="none" stroke-width="0.5" stroke="rgb(0,0,0)" />
	<polygon points="415.107,334.616 415.226,335.342 415.274,335.672 415.432,336.942 415.487,337.564 415.547,338.692 415.556,339.414 415.548,339.693 416.942,339.812 416.169,338.307 415.312,334.594 " fill="none" stroke-width="0.5" stroke="rgb(0,0,0)" />
	<polygon points="165.438,327.808 167.017,327.077 166.03,325.584 " fill="none" stroke-width="0.5" stroke="rgb(0,0,0)" />
	<polygon points="75.6497,315.814 75.3742,318.365 75.398,319.209 75.4367,319.575 75.6003,319.359 77.018,317.82 78.2863,316.686 79.9874,315.439 79.9938,315.435 79.0644,314.831 77.6354,313.69 76.4942,312.576 " fill="none" stroke-width="0.5" stroke="rgb(0,0,0)" />
	<polygon points="161.156,300.032 159.973,300.189 159.963,300.189 160.195,300.593 161.511,303.222 161.96,300.445 162.097,299.81 " fill="none" stroke-width="0.5" stroke="rgb(0,0,0)" />
	<polygon points="161.624,253.093 161.791,253.776 162.156,255.587 162.231,256.011 162.522,257.94 162.555,258.176 162.686,259.234 163.198,257.45 164.877,254.268 165.508,253.506 162.557,252.759 161.178,251.536 " fill="none" stroke-width="0.5" stroke="rgb(0,0,0)" />
	<polygon points="158.224,247.182 158.396,247.277 158.252,246.903 " fill="none" stroke-width="0.5" stroke="rgb(0,0,0)" />
	<polygon points="327.772,237.308 327.384,237.308 327.826,237.808 328.95,239.684 328.883,239.526 328.179,237.267 " fill="none" stroke-width="0.5" stroke="rgb(0,0,0)" />
	<polygon points="312.111,227.677 312.498,227.907 312.366,227.596 " fill="none" stroke-width="0.5" stroke="rgb(0,0,0)" />
	<polygon points="90.1665,216.307 90.7136,217.611 90.9654,218.379 91.2612,219.545 91.3573,220.072 92.6805,219.644 93.4094,219.522 96.0929,219.486 96.7367,219.577 98.8272,220.178 98.9985,219.035 99.4893,216.877 98.0965,217.03 96.1573,217.028 92.9681,216.672 90.9943,216.217 89.9224,215.836 " fill="none" stroke-width="0.5" stroke="rgb(0,0,0)" />
	<polygon points="433.008,215.638 432.211,215.792 430.109,216.095 432.354,217.958 433.438,219.085 433.705,218.602 436.228,214.948 436.311,214.845 " fill="none" stroke-width="0.5" stroke="rgb(0,0,0)" />
	<polygon points="107.694,165.823 106.3,166.767 105.114,167.414 103.923,167.919 105.239,168.813 106.142,169.516 109.14,172.183 110.041,173.11 111.832,175.25 113.049,173.542 114.435,172.024 114.464,172.001 112.121,169.859 110.897,168.478 108.674,165.367 108.536,165.127 " fill="none" stroke-width="0.5" stroke="rgb(0,0,0)" />
	<polygon points="423.368,146.061 420.626,148.513 419.548,149.289 425.455,151.034 427.08,151.697 430.73,153.63 429.914,150.784 429.811,148.232 429.583,148.153 427.904,147.415 426.343,146.529 424.983,145.561 424.308,144.937 " fill="none" stroke-width="0.5" stroke="rgb(0,0,0)" />
	<polygon points="356.721,143.797 356.786,143.791 358.548,143.791 358.671,143.803 357.393,142.685 356.877,142.148 " fill="none" stroke-width="0.5" stroke="rgb(0,0,0)" />
	<polygon points="312.692,127.418 312.069,128.016 311.616,128.616 311.354,129.115 311.003,130.222 310.711,130.703 311.1,130.811 311.868,130.934 312.836,130.983 313.01,130.977 313.416,130.946 313.948,130.887 314.058,130.873 313.766,130.193 313.637,129.82 313.32,128.644 313.244,128.257 313.099,127.138 " fill="none" stroke-width="0.5" stroke="rgb(0,0,0)" />
	<polygon points="186.196,113.572 185.593,115.038 185.257,115.684 184.159,117.316 183.708,117.846 182.03,119.371 181.456,119.77 179.388,120.835 178.683,121.087 176.631,121.553 176.594,121.557 177.273,123.321 178.91,122.183 179.986,121.543 183.107,119.976 184.482,119.425 187.704,118.441 189.37,118.103 190.031,118.035 187.089,114.56 186.802,114.201 186.232,113.453 " fill="none" stroke-width="0.5" stroke="rgb(0,0,0)" />
	<polygon points="90.6659,118.28 89.3993,119.103 87.0611,120.35 84.6207,121.219 82.4324,121.65 82.5017,122.866 82.5076,123.208 83.7469,122.681 85.0558,122.272 86.7926,121.915 88.1956,121.772 89.9787,121.772 91.3838,121.915 93.1183,122.27 93.2518,122.312 92.8595,119.379 92.8361,119.188 92.5693,116.798 " fill="none" stroke-width="0.5" stroke="rgb(0,0,0)" />
	<polygon points="415.195,65.5251 416.797,66.8115 418.275,67.7092 419.589,68.2034 420.552,68.325 419.844,67.5937 416.644,65.7008 414.385,64.7648 " fill="none" stroke-width="0.5" stroke="rgb(0,0,0)" />
	<polygon points="102.598,65.0381 102.379,65.2196 100.598,66.6476 99.754,67.2461 98.9051,67.776 99.0146,68.2906 99.6953,67.8887 101.753,67.1752 104.186,66.944 104.148,66.487 104.125,66.1186 104.03,63.8129 " fill="none" stroke-width="0.5" stroke="rgb(0,0,0)" />
	<polygon points="127.881,66.0891 127.923,66.0458 127.897,66.0105 " fill="none" stroke-width="0.5" stroke="rgb(0,0,0)" />
	<polygon points="398.551,38.5718 399.208,40.1486 400.148,39.7521 403.12,38.7256 403.656,38.5609 401.862,37.8811 397.983,36.7774 397.502,36.6572 " fill="none" stroke-width="0.5" stroke="rgb(0,0,0)" />
</svg>
