<?xml version="1.0" standalone="no" ?>
<!DOCTYPE svg PUBLIC "-//W3C//DTD SVG 1.1//EN" "http://www.w3.org/Graphics/SVG/1.1/DTD/svg11.dtd">
<svg width="500px" height="500px" xmlns="http://www.w3.org/2000/svg" version="1.1" >
	<polygon points="480.823,29.584 480.733,29.6968 480.303,30.3985 479.985,31.0826 479.789,31.6651 479.714,32.0108 479.838,33.6444 480.228,35.5344 480.823,37.6351 480.823,76.1664 479.317,79.7296 478.242,81.5084 472.927,87.9803 471.571,89.2546 464.538,94.339 463.317,95.0416 463.859,94.836 466.035,94.9487 468.521,95.4591 469.793,95.8449 471.888,96.697 473.204,97.3973 474.927,98.5563 476.12,99.5612 477.489,100.993 478.415,102.188 479.448,103.858 480.055,105.086 480.771,106.958 480.823,107.139 480.823,120.182 480.426,121.534 479.351,123.957 479.545,124.065 480.823,125.117 480.823,188.661 480.713,188.888 478.269,191.717 476.69,192.791 473.123,194.028 471.437,193.884 473.199,195.348 473.952,196.071 477.954,200.513 478.755,201.588 480.823,204.975 480.823,243.596 478.304,247.885 477.945,248.438 474.044,253.878 474.756,253.841 476.225,253.994 477.905,254.375 479.164,254.823 480.823,255.672 480.823,281.286 480.225,291.946 478.988,293.867 478.53,294.5 475.953,297.689 475.367,298.331 472.408,301.205 471.616,301.646 472.216,302.432 472.881,303.476 474.796,307.144 475.223,308.132 476.667,312.312 476.925,313.266 477.069,313.991 473.11,329.62 467.07,347.047 459.27,364.67 456.342,370.035 454.356,371.161 450.581,371.12 448.251,369.731 448.283,369.835 448.569,371.284 449.274,378.846 449.213,380.668 448.731,383.672 438.331,399.399 425.161,415.952 410.17,431.593 402.409,438.26 401.608,438.126 399.714,437.531 398.221,436.826 396.957,436.062 395.542,434.997 395.451,434.916 395.634,437.337 395.546,439.137 394.51,445.046 393.345,446.047 374.668,459.037 354.126,470.285 331.702,479.516 325.105,481.398 322.59,480.683 321.242,480.149 318.578,478.772 317.337,477.96 315.138,476.174 314.093,475.132 312.368,473.018 311.57,471.814 310.326,469.455 309.792,468.146 309.04,465.623 308.771,464.251 308.58,462.284 308.361,462.79 307.703,463.988 304.937,468.06 303.373,469.723 303.311,469.771 303.891,469.784 304.762,469.854 306.19,470.114 306.859,470.306 308.535,471.028 309.029,471.319 310.616,472.585 310.961,472.95 312.079,474.501 312.302,474.915 312.882,476.342 313.008,476.781 313.231,477.861 313.287,478.3 313.342,478.995 313.355,479.41 313.108,481.527 312.71,483 311.572,485.257 307.382,486.452 281.151,490.817 268.109,491.519 268.026,491.472 267.05,490.799 265.223,489.308 264.355,488.469 263.906,487.956 262.401,488.723 261.993,488.915 257.828,490.72 257.406,490.888 253.472,492.308 252.993,492.333 225.548,490.902 199.887,486.773 183.169,482.166 179.496,479.556 175.514,476.759 172.413,475.015 170.434,474.445 167.388,474.143 163.243,473.913 162.803,473.875 158.997,473.431 153.907,471.407 135.037,461.433 130.168,456.712 128.235,453.47 128.206,450.814 127.482,450.879 126.05,450.866 117.632,449.953 115.039,448.212 98.2672,434.295 83.2685,419.161 71.5415,404.884 71.0625,401.05 71.0295,399.574 71.2568,396.728 68.1314,396.477 65.3744,394.704 63.6382,392.918 62.6851,392.255 58.5824,386.23 48.8916,368.927 40.9666,351.394 34.8057,333.879 34.7462,333.646 34.9621,331.606 35.2479,330.22 38.2162,320.659 38.629,319.62 41.8077,313.129 37.8186,313.048 35.8495,312.428 32.8994,310.64 31.0809,308.821 29.8615,307.201 28.5469,304.822 27.7694,299.888 26.8905,283.906 26.8905,240.409 27.7352,237.519 28.0464,236.659 29.708,232.841 30.5494,231.393 32.2245,229.152 30.6081,228.504 28.8362,227.483 26.9192,225.982 26.8905,225.953 26.8905,169.253 27.1072,168.019 27.1935,167.6 28.1696,163.482 28.3999,162.707 29.972,158.324 30.4367,157.291 32.8632,152.858 33.6419,151.712 36.8089,147.892 36.8033,147.891 34.2678,147.151 32.9603,146.626 30.674,145.44 29.4753,144.659 27.4896,143.065 26.8905,142.476 26.8905,112.562 28.0801,111.374 28.9268,110.65 30.8463,109.248 31.769,108.675 32.3177,108.389 32.095,108.325 31.5307,108.114 30.263,107.491 29.7781,107.192 28.4972,106.184 28.1022,105.794 27.0107,104.417 26.8905,104.22 26.8905,93.1833 27.0426,92.7161 27.8899,90.9605 30.5,87.0153 30.3166,87.0226 29.7178,86.929 27.4244,86.1623 26.9312,85.8991 26.8905,85.8686 26.8905,61.424 27.2655,61.0304 26.8905,60.8222 26.8905,42.7763 27.0025,42.6668 27.7901,41.9989 31.6808,39.1497 32.0332,38.9072 36.4933,36.0291 36.5893,35.9682 38.2936,34.9059 34.782,34.0163 34.3839,33.9033 30.6333,32.7216 29.5403,32.2766 26.8905,30.9367 26.8905,19.5757 38.3822,19.4875 49.8739,19.3993 61.3656,19.3111 72.8572,19.223 79.6092,19.1712 80.399,19.9773 80.5435,19.4258 80.6776,19.163 84.3489,19.1348 95.8406,19.0466 107.332,18.9584 114.966,18.8999 115.935,19.9788 116.108,20.1783 117.319,21.63 117.935,22.2047 118.114,22.2972 118.805,22.3966 119.451,22.3042 119.703,22.1782 120.41,21.5571 121.706,20.1271 121.893,19.9287 122.958,18.8385 130.316,18.7821 141.807,18.6939 153.299,18.6057 155.903,18.5857 155.912,18.5991 156.97,22.2226 156.785,23.1314 156.836,23.071 159.751,20.9689 161.028,20.2325 164.857,18.517 176.282,18.4294 187.774,18.3412 210.757,18.1648 210.738,27.9374 209.494,29.3026 208.967,29.6556 209.404,29.7387 210.734,30.1451 210.732,31.0636 210.706,43.9624 210.682,56.537 209.154,57.1183 208.137,57.2994 206.905,57.3227 209.993,60.8626 210.579,61.634 210.671,61.7733 210.656,69.76 210.63,82.6588 210.627,84.3224 209.676,84.8309 208.806,85.1947 207.622,85.5743 206.618,85.8031 205.516,85.9666 204.387,86.046 203.144,86.0266 199.597,85.6655 203.75,88.8896 203.942,89.0442 208.237,92.6195 208.483,92.8331 210.606,94.7683 210.579,108.456 210.554,121.355 210.55,123.457 210.3,123.673 209.135,124.437 208.531,124.69 209.384,125.449 210.543,126.759 210.503,147.153 210.478,160.052 210.452,172.95 210.45,174.106 210.328,174.459 209.842,175.559 208.454,178.108 207.764,179.15 205.983,181.392 205.068,182.348 202.927,184.214 201.778,185.033 200.118,185.987 201.432,186.563 202.618,187.222 205.017,188.866 206.137,189.813 208.11,191.859 209.068,193.095 210.408,195.276 210.401,198.748 210.376,211.647 210.368,215.46 209.717,216.792 209.541,217.131 208.779,218.502 208.604,218.8 207.778,220.132 205.466,222.297 205.969,222.719 208.706,225.25 209.23,225.789 210.37,227.086 210.438,235.84 210.602,246.657 210.899,256.963 211.135,261.72 210.165,262.984 210.003,263.187 207.8,265.852 206.221,267.953 205.571,269.169 205.514,269.457 205.568,269.733 205.966,270.378 207.305,271.733 209.522,273.6 209.648,273.708 212.11,275.88 212.112,275.909 213.138,284.482 214.519,292.41 216.308,299.661 218.563,306.2 221.336,311.994 224.685,317.011 228.665,321.215 233.33,324.575 238.737,327.056 244.939,328.626 248.492,328.94 248.616,329.104 249.361,330.323 250.87,333.448 251.323,334.645 252.237,337.906 252.25,337.971 255.079,332.665 255.835,331.522 258.009,328.829 259.171,328.749 265.518,327.271 271.013,324.853 275.719,321.532 279.698,317.343 283.01,312.324 285.72,306.511 287.888,299.942 288.709,296.398 289.043,295.679 289.398,294.545 289.648,293.113 289.722,291.741 290.848,284.68 291.763,276.06 292.155,270.251 292.68,269.596 293.545,268.735 294.895,267.676 295.907,267.061 297.446,266.356 298.239,266.1 294.362,262.772 292.945,261.128 292.634,260.633 292.778,257.028 293,246.688 293.115,235.848 293.17,226.97 293.354,226.575 293.488,226.3 295.122,223.139 295.35,222.888 294.823,222.451 293.863,221.49 293.177,220.662 293.159,211.647 293.134,199.106 293.86,198.227 294.818,197.268 296.296,196.041 297.431,195.268 298.724,194.557 298.049,193.74 297.272,192.593 296.625,191.406 296.071,190.099 295.661,188.79 295.368,187.36 295.225,185.957 295.225,184.486 295.368,183.085 295.662,181.654 296.072,180.346 296.626,179.04 297.273,177.854 298.05,176.706 298.906,175.671 299.496,175.082 298.108,174.491 296.014,173.133 294.601,171.821 293.552,170.603 293.076,169.907 293.056,160.052 293.004,134.254 292.995,129.889 293.187,129.59 295.07,127.881 294.951,127.468 294.871,127.165 294.692,126.42 294.621,126.094 294.475,125.332 294.416,124.98 294.306,124.207 294.262,123.824 294.194,123.043 294.169,122.627 294.145,121.841 294.168,121.007 294.418,118.064 294.623,116.865 295.392,113.889 295.816,112.691 297.13,109.814 297.82,108.619 299.706,105.971 300.701,104.843 301.923,103.718 300.746,104.275 299.216,104.763 296.959,105.106 296.722,105.105 296.32,105.091 296.129,105.079 295.047,104.928 294.897,104.896 292.944,104.158 292.908,86.1467 294.154,83.8719 295.222,81.9179 293.619,81.6415 292.898,81.435 292.875,69.76 292.861,62.6815 294.671,61.4396 294.14,61.1997 293.69,60.9779 292.856,60.5303 292.82,42.4954 293.326,42.2089 293.536,42.0947 295.165,41.2427 294.719,40.5559 292.811,37.7598 292.797,31.0636 292.771,18.1648 302.877,18.0999 305.323,19.3601 305.471,19.4383 308.758,21.2285 308.856,20.4017 308.965,19.7416 309.138,18.9348 309.347,18.1647 309.382,18.0581 316.278,18.0137 328.031,17.9382 339.784,17.8626 351.538,17.787 363.291,17.7115 375.044,17.6359 375.783,17.6312 378.82,19.0247 380.087,19.7697 386.297,24.328 386.706,24.7032 386.798,23.3446 388.158,20.9707 388.785,20.2426 391.188,18.4127 392.949,17.5821 393.107,17.5198 410.304,17.4092 422.057,17.3337 433.81,17.2581 440.206,17.217 441.188,17.7474 442.634,18.7754 444.66,20.6271 445.637,21.8591 446.14,20.8796 446.966,19.6155 448.408,17.8441 449.097,17.1598 457.317,17.107 469.07,17.0314 480.823,16.9559 " fill="none" stroke-width="0.5" stroke="rgb(0,0,0)" />
	<polygon points="191.909,443.927 192.26,444.961 192.87,447.329 194.281,447.64 195.842,447.891 197.352,448.047 198.587,448.096 200.24,448.005 201.793,447.732 203.164,447.283 204.281,446.691 205.16,445.967 205.887,445.026 206.516,443.646 206.791,442.377 202.86,442.671 201.752,442.669 195.534,442.18 194.307,441.976 190.683,441.05 " fill="none" stroke-width="0.5" stroke="rgb(0,0,0)" />
	<polygon points="158.392,437.271 157.364,438.531 153.169,442.631 151.785,443.691 151.248,444.007 152.088,443.828 155.028,442.628 157.202,441.162 158.784,439.46 159.929,437.426 160.68,434.894 160.801,433.53 " fill="none" stroke-width="0.5" stroke="rgb(0,0,0)" />
	<polygon points="325.94,416.918 316.435,420.05 314.902,420.377 314.386,420.43 314.92,421.409 315.414,422.707 315.708,423.678 316.039,425.131 316.097,425.411 316.347,426.753 316.409,427.016 317.316,427.669 317.771,428.025 318.638,428.76 319.448,429.567 320.182,430.421 320.728,431.242 320.759,431.209 321.478,430.446 321.739,430.183 322.454,429.498 322.82,429.171 323.529,428.579 324.049,428.183 324.749,427.698 325.495,427.246 326.185,426.882 327.248,426.426 327.732,426.262 327.075,425.014 326.725,423.772 326.454,421.809 326.454,416.683 " fill="none" stroke-width="0.5" stroke="rgb(0,0,0)" />
	<polygon points="385.715,419.14 387.327,420.106 388.511,420.991 388.699,421.164 388.727,420.702 388.842,419.87 387.568,419.614 385.24,418.918 " fill="none" stroke-width="0.5" stroke="rgb(0,0,0)" />
	<polygon points="165.86,413.552 165.865,414.609 165.545,419.293 165.401,420.32 165.395,420.346 167.157,419.675 170.676,420.301 170.634,419.08 170.667,418.712 170.946,417.262 171.042,416.943 171.719,415.382 171.877,415.112 172.963,413.686 173.18,413.465 173.521,413.19 172.941,412.95 172.347,412.672 169.711,411.291 169.144,410.96 166.717,409.393 166.148,408.985 165.463,408.443 " fill="none" stroke-width="0.5" stroke="rgb(0,0,0)" />
	<polygon points="378.693,417.615 378.693,417.661 379.628,417.409 381.198,417.593 382.346,417.855 379.645,416.577 378.813,416.114 378.693,416.037 " fill="none" stroke-width="0.5" stroke="rgb(0,0,0)" />
	<polygon points="259.074,401.85 258.808,403.228 258.532,404.159 257.993,405.482 257.553,406.316 257.295,406.705 257.776,406.892 258.385,407.162 261.244,408.589 261.715,408.846 264.498,410.503 264.891,410.754 267.509,412.55 267.868,412.814 270.232,414.659 270.599,414.965 272.621,416.77 273.029,417.166 274.077,416.985 274.379,416.94 275.713,416.767 275.999,416.736 277.382,416.612 277.651,416.593 278.873,416.53 277.829,416.057 269.223,410.964 267.997,410.052 260.896,403.496 259.943,402.423 259.127,401.296 " fill="none" stroke-width="0.5" stroke="rgb(0,0,0)" />
	<polygon points="244.593,413.132 244.902,412.046 244.769,412.009 " fill="none" stroke-width="0.5" stroke="rgb(0,0,0)" />
	<polygon points="366.076,399.938 366.634,400.129 366.658,399.808 " fill="none" stroke-width="0.5" stroke="rgb(0,0,0)" />
	<polygon points="349.779,395.431 349.111,396.548 347.562,398.674 348.379,398.58 352.887,398.328 353.553,398.322 355.259,398.383 354.001,397.268 353.022,396.149 352.273,395.124 351.417,393.707 351,392.901 " fill="none" stroke-width="0.5" stroke="rgb(0,0,0)" />
	<polygon points="308.928,394.043 308.386,394.202 305.174,395.011 304.509,395.146 300.801,395.718 300.748,395.724 304.351,396.036 307.567,395.903 310.469,395.52 310.621,395.484 309.938,394.534 309.707,393.781 " fill="none" stroke-width="0.5" stroke="rgb(0,0,0)" />
	<polygon points="203.306,391.877 203.754,392.876 204.686,395.46 206.24,393.163 207.911,391.413 211.39,388.818 207.155,389.194 205.719,389.179 201.594,388.724 " fill="none" stroke-width="0.5" stroke="rgb(0,0,0)" />
	<polygon points="242.602,374.551 242.341,374.833 242.456,374.892 243.341,375.484 244.531,376.481 245.274,377.252 245.505,377.541 246.206,377.56 247.451,377.686 247.559,377.708 246.81,374.943 246.586,373.694 246.226,369.679 " fill="none" stroke-width="0.5" stroke="rgb(0,0,0)" />
	<polygon points="83.8493,366.987 83.5418,367.035 82.7002,367.146 81.8286,367.208 79.5151,367.232 79.3485,367.217 80.2398,369.472 81.0386,374.746 81.1765,374.604 83.685,372.369 84.6255,371.66 86.9974,370.156 85.6978,369.049 84.746,368.069 83.8742,366.983 " fill="none" stroke-width="0.5" stroke="rgb(0,0,0)" />
	<polygon points="357.014,370.476 356.865,371.922 357.256,371.763 358.825,371.226 359.391,371.057 360.467,370.784 359.991,370.539 358.769,369.743 357.179,368.462 356.28,367.574 " fill="none" stroke-width="0.5" stroke="rgb(0,0,0)" />
	<polygon points="324.569,367.509 323.824,368.69 323.409,369.226 323.46,369.225 326.984,368.996 327.97,368.889 326.515,368.143 325.244,367.312 324.835,366.98 " fill="none" stroke-width="0.5" stroke="rgb(0,0,0)" />
	<polygon points="117.886,354.949 117.33,355.209 117.345,356.457 117.221,357.883 116.81,360.073 116.393,361.483 116.002,362.437 116.347,362.374 120.598,361.99 122.013,362.004 121.45,361.519 120.201,360.128 119.534,359.158 118.615,357.297 118.283,356.28 118.002,354.882 " fill="none" stroke-width="0.5" stroke="rgb(0,0,0)" />
	<polygon points="295.672,357.847 294.116,358.549 292.503,359.059 294.312,360.401 294.471,360.522 296.384,362.025 296.27,360.811 296.247,359.791 296.299,358.684 296.349,358.114 296.442,357.384 " fill="none" stroke-width="0.5" stroke="rgb(0,0,0)" />
	<polygon points="444.414,359.679 444.349,359.306 442.985,357.151 " fill="none" stroke-width="0.5" stroke="rgb(0,0,0)" />
	<polygon points="395.113,340.879 394.895,341.061 393.747,341.984 393.11,342.442 392.088,343.095 390.245,343.937 389.409,344.185 387.107,344.374 388.213,347.505 388.58,349.099 388.694,350.109 393.23,346.308 394.969,345.228 397.75,344.006 396.638,342.667 396.474,342.462 395.198,340.806 " fill="none" stroke-width="0.5" stroke="rgb(0,0,0)" />
	<polygon points="58.5335,342.08 61.7465,347.247 61.9258,347.424 62.0527,346.175 62.5441,343.899 63.023,342.446 63.9514,340.39 64.3425,339.709 62.6072,339.337 61.6292,339.054 59.1604,338.148 57.9854,337.586 " fill="none" stroke-width="0.5" stroke="rgb(0,0,0)" />
	<polygon points="165.144,320.583 164.892,323.423 164.676,324.649 163.926,327.463 163.502,328.635 162.265,331.316 161.612,332.448 159.898,334.885 158.978,335.954 156.797,338.039 155.589,338.972 152.952,340.596 152.778,340.678 153.133,340.858 155.593,342.349 156.459,342.965 158.808,344.911 159.51,345.575 160.479,346.624 160.339,345.396 160.297,344.339 160.355,342.555 160.388,342.06 160.567,340.296 160.648,339.727 160.954,338.049 161.12,337.342 161.559,335.819 161.899,334.884 162.478,333.581 163.204,332.311 163.928,331.297 165.474,329.713 166.35,329.056 169.101,327.783 169.309,327.735 167.052,324.318 166.341,322.941 165.093,319.721 " fill="none" stroke-width="0.5" stroke="rgb(0,0,0)" />
	<polygon points="415.556,333.008 413.769,333.202 413.515,333.225 413.297,333.241 413.453,334.11 413.472,334.223 413.696,335.592 413.735,335.864 413.894,337.134 413.939,337.646 413.999,338.775 414.007,339.369 413.997,339.702 413.962,340.231 413.928,340.566 413.845,341.104 418.117,341.468 419.338,341.678 419.932,341.834 419.302,341.117 417.679,337.958 416.495,332.829 " fill="none" stroke-width="0.5" stroke="rgb(0,0,0)" />
	<polygon points="127.796,337.653 127.778,339.671 128.076,339.526 128.991,339.157 129.823,338.885 129.626,338.742 127.736,337.056 " fill="none" stroke-width="0.5" stroke="rgb(0,0,0)" />
	<polygon points="121.984,325.19 122.027,325.232 122.021,325.172 " fill="none" stroke-width="0.5" stroke="rgb(0,0,0)" />
	<polygon points="384.793,312.629 383.94,314.467 383.339,316.117 383.148,317.103 382.95,319.26 382.776,322.204 382.598,325.227 383.005,324.27 384.076,321.548 384.938,318.897 385.489,316.421 385.696,313.938 385.673,312.691 385.583,311.25 " fill="none" stroke-width="0.5" stroke="rgb(0,0,0)" />
	<polygon points="75.0333,312.035 74.121,315.533 73.8219,318.303 73.8503,319.312 73.9721,320.466 74.1923,321.505 74.5433,322.524 74.8742,323.188 75.8945,321.527 76.7402,320.409 78.1579,318.871 79.2029,317.936 80.9039,316.689 82.0937,315.981 83.2956,315.413 82.808,315.216 81.214,314.389 80.0315,313.62 78.6025,312.479 77.5668,311.467 76.3581,310.023 75.9662,309.444 " fill="none" stroke-width="0.5" stroke="rgb(0,0,0)" />
	<polygon points="342.805,314.351 342.016,315.153 341.951,315.205 346.778,318.495 347.736,319.275 350.907,322.343 351.105,321.892 351.355,321.379 351.853,320.45 350.306,320.011 349.284,319.635 347.977,319.04 345.031,316.585 344.535,315.872 343.607,313.289 " fill="none" stroke-width="0.5" stroke="rgb(0,0,0)" />
	<polygon points="163.643,297.72 162.373,298.16 160.953,298.496 159.77,298.652 158.217,298.69 157.861,298.66 157.065,298.525 158.402,300.578 158.809,301.287 162.843,309.343 162.796,308.979 162.747,307.667 162.915,304.509 162.998,303.739 163.49,300.692 163.651,299.946 164.339,297.418 " fill="none" stroke-width="0.5" stroke="rgb(0,0,0)" />
	<polygon points="132.475,307.076 132.471,308.002 133.98,307.831 134.16,307.849 135.706,308.205 135.041,306.825 132.005,301.738 " fill="none" stroke-width="0.5" stroke="rgb(0,0,0)" />
	<polygon points="310.617,306.159 311.099,306.222 311.763,306.34 312.637,306.537 312.213,305.087 " fill="none" stroke-width="0.5" stroke="rgb(0,0,0)" />
	<polygon points="434.166,294.941 434.07,295.072 433.411,295.952 435.02,296.82 435.189,296.914 435.529,297.11 434.721,294.437 434.658,294.252 " fill="none" stroke-width="0.5" stroke="rgb(0,0,0)" />
	<polygon points="459.071,288.96 458.358,289.29 457.433,290.056 456.236,291.502 455.71,292.315 456.456,292.337 459.645,292.851 460.252,293.045 460.209,292.171 460.024,290.903 459.727,289.759 459.386,288.918 459.385,288.916 " fill="none" stroke-width="0.5" stroke="rgb(0,0,0)" />
	<polygon points="88.2522,283.854 88.1905,283.975 85.8358,288.509 85.512,289.134 86.7682,289.794 87.2897,290.208 87.9931,290.847 88.257,291.12 88.6732,289.097 88.9848,285.827 89.1183,282.107 " fill="none" stroke-width="0.5" stroke="rgb(0,0,0)" />
	<polygon points="58.5935,281.707 58.8343,282.161 59.16,282.832 59.4515,283.52 59.6339,284.021 59.9074,282.831 59.8689,282.776 59.7098,282.596 59.1866,282.112 59.1697,282.096 58.4101,281.389 " fill="none" stroke-width="0.5" stroke="rgb(0,0,0)" />
	<polygon points="173.05,281.245 173.352,282.136 173.376,282.224 173.732,281.844 173.047,281.237 " fill="none" stroke-width="0.5" stroke="rgb(0,0,0)" />
	<polygon points="428.335,278.984 428.077,279.466 428.806,279.418 428.413,278.588 " fill="none" stroke-width="0.5" stroke="rgb(0,0,0)" />
	<polygon points="157.595,226.323 156.597,228.059 156.158,228.961 157.358,230.397 158.022,233.746 157.961,235.173 157.94,235.497 157.781,237.319 157.767,237.47 157.542,239.542 157.534,239.613 157.276,241.789 157.274,241.805 157.019,243.921 156.803,245.791 156.666,247.184 156.631,247.856 156.638,248.088 157.879,248.819 159.669,251.895 160.134,253.52 160.271,254.082 160.636,255.893 160.698,256.243 160.99,258.171 161.016,258.366 161.261,260.344 161.269,260.411 161.489,262.34 161.702,264.077 161.777,264.571 162.447,264.792 163.624,266.242 163.447,265.47 163.546,261.851 164.688,257.878 166.071,255.256 169.072,251.631 166.255,252.219 162.673,251.027 160.175,248.197 159.582,243.473 159.82,242.35 160.025,241.29 160.204,240.234 160.357,239.184 160.479,238.138 160.569,237.096 160.625,236.058 160.642,235.131 160.549,233.236 160.267,231.458 159.757,229.676 158.964,227.843 157.823,225.935 " fill="none" stroke-width="0.5" stroke="rgb(0,0,0)" />
	<polygon points="406.534,256.943 406.706,256.804 406.365,256.708 " fill="none" stroke-width="0.5" stroke="rgb(0,0,0)" />
	<polygon points="448.939,255.21 449.282,254.603 449.309,254.556 448.494,254.103 " fill="none" stroke-width="0.5" stroke="rgb(0,0,0)" />
	<polygon points="129.394,242.391 129.366,243.692 130.713,253.348 131.257,254.793 131.555,252.759 132.574,251.638 132.247,250.288 131.608,248.218 130.798,245.785 130.781,245.732 129.945,243.158 129.869,242.907 129.455,241.455 " fill="none" stroke-width="0.5" stroke="rgb(0,0,0)" />
	<polygon points="382.464,246.37 381.644,247.592 380.819,248.585 379.773,249.613 378.768,250.417 377.765,251.068 378.539,252.015 378.765,252.312 379.863,251.277 380.667,250.621 381.794,249.829 383.95,248.796 384.988,248.495 385.553,248.44 385.127,248.14 383.202,246.13 382.869,245.611 " fill="none" stroke-width="0.5" stroke="rgb(0,0,0)" />
	<polygon points="359.324,248.099 360.018,248.349 359.634,247.889 " fill="none" stroke-width="0.5" stroke="rgb(0,0,0)" />
	<polygon points="324.735,236.612 326.497,238.604 328.782,242.419 328.879,242.689 330.003,242.127 331.172,241.677 331.563,241.561 330.916,240.372 330.363,239.065 329.659,236.804 329.402,235.546 329.021,235.623 327.616,235.766 326.149,235.765 324.755,235.623 323.324,235.329 322.931,235.206 " fill="none" stroke-width="0.5" stroke="rgb(0,0,0)" />
	<polygon points="464.662,223.457 464.638,223.595 464.093,226.596 464.09,226.613 463.554,229.52 463.11,232.152 462.957,233.318 463.289,232.712 464.379,230.028 465.083,227.312 465.319,224.777 464.964,221.593 " fill="none" stroke-width="0.5" stroke="rgb(0,0,0)" />
	<polygon points="312.487,225.932 310.629,226.52 309.289,226.798 309.484,227.399 310.461,228.499 312.634,229.792 316.101,231.297 316.369,231.42 316.978,231.715 316.382,231.118 315.528,230.083 314.752,228.935 314.106,227.749 313.553,226.443 313.287,225.59 " fill="none" stroke-width="0.5" stroke="rgb(0,0,0)" />
	<polygon points="86.122,213.493 87.2056,214.569 87.6684,215.15 88.4337,216.332 88.79,217.02 89.2408,218.094 89.4926,218.862 89.7363,219.822 89.8858,220.643 89.9908,221.521 90.0354,222.286 90.187,222.188 90.9239,221.824 92.9371,221.173 93.666,221.05 95.8769,221.021 96.5207,221.112 98.4667,221.671 99.0784,221.945 100.188,222.627 100.349,220.449 100.51,219.379 101.351,215.679 101.554,215.013 100.925,215.159 97.927,215.489 96.3293,215.488 93.1401,215.132 91.514,214.757 88.6498,213.738 87.1663,213.01 86.7038,212.713 " fill="none" stroke-width="0.5" stroke="rgb(0,0,0)" />
	<polygon points="438.328,212.742 437.767,212.901 432.646,214.131 431.989,214.257 426.126,215.105 426.213,215.147 427.671,216.087 431.365,219.151 432.493,220.325 433.755,221.974 434.286,220.739 434.98,219.483 437.503,215.829 438.192,214.977 441.175,211.81 " fill="none" stroke-width="0.5" stroke="rgb(0,0,0)" />
	<polygon points="131.963,219.849 132.546,220.327 132.679,220.681 132.968,219.531 " fill="none" stroke-width="0.5" stroke="rgb(0,0,0)" />
	<polygon points="64.9598,216.466 65.6756,216.938 66.1925,217.406 67.4191,218.85 67.8188,219.469 68.2185,220.251 70.05,217.135 68.2772,216.671 67.0313,216.22 65.587,215.541 " fill="none" stroke-width="0.5" stroke="rgb(0,0,0)" />
	<polygon points="188.531,212.842 189.516,214.316 190.725,216.717 191.03,217.543 191.55,217.103 194.183,216.635 194.076,216.25 193.598,215.339 192.992,214.64 192.076,213.972 190.647,213.313 188.589,212.744 188.426,212.72 " fill="none" stroke-width="0.5" stroke="rgb(0,0,0)" />
	<polygon points="381.422,201.674 380.74,202.921 379.964,204.066 379.094,205.117 380.122,205.965 380.987,206.829 381.026,206.632 383.527,203.805 384.817,203.377 382.235,201.272 381.789,200.809 " fill="none" stroke-width="0.5" stroke="rgb(0,0,0)" />
	<polygon points="365.992,170.291 364.837,171.068 364.789,171.094 365.764,172.874 366.32,174.18 366.978,176.273 367.274,177.707 367.504,179.947 367.504,180.811 367.544,180.806 369.027,180.805 369.503,180.854 366.796,172.195 366.58,171.316 366.344,170.001 " fill="none" stroke-width="0.5" stroke="rgb(0,0,0)" />
	<polygon points="146.528,175.442 145.567,175.697 144.3,175.941 147.133,178.65 147.253,178.144 148.212,175.148 148.369,174.817 " fill="none" stroke-width="0.5" stroke="rgb(0,0,0)" />
	<polygon points="108.713,162.8 107.742,163.773 106.707,164.629 105.558,165.406 104.372,166.053 103.065,166.608 101.756,167.017 100.327,167.311 100.152,167.328 100.353,167.432 101.107,167.88 104.368,170.095 105.112,170.674 108.11,173.341 108.852,174.105 111.441,177.198 112.067,178.09 112.133,177.934 113.175,176.016 114.193,174.587 115.58,173.07 116.897,171.969 116.06,171.359 113.167,168.715 112.158,167.577 109.936,164.466 109.235,163.252 108.917,162.553 " fill="none" stroke-width="0.5" stroke="rgb(0,0,0)" />
	<polygon points="310.3,170.666 310.07,171.025 310.154,171.025 311.561,171.168 312.934,171.448 313.002,171.23 313.038,171.145 312.321,170.999 311.823,170.88 310.39,170.481 " fill="none" stroke-width="0.5" stroke="rgb(0,0,0)" />
	<polygon points="163.109,166.554 163.243,166.58 163.204,166.478 " fill="none" stroke-width="0.5" stroke="rgb(0,0,0)" />
	<polygon points="423.675,143.303 422.334,144.906 419.593,147.358 418.345,148.256 415.001,150.158 417.191,150.355 418.596,150.624 425.016,152.521 426.354,153.066 432.04,156.078 433.105,156.768 433.3,156.92 433.25,156.794 431.404,150.357 431.353,147.127 431.282,147.109 430.207,146.734 428.528,145.996 427.242,145.266 425.882,144.298 424.527,143.046 424.127,142.569 " fill="none" stroke-width="0.5" stroke="rgb(0,0,0)" />
	<polygon points="355.611,139.087 354.994,145.591 355.6,145.468 356.941,145.333 358.393,145.333 359.733,145.468 361.153,145.757 362.401,146.144 363.71,146.695 364.84,147.308 365.996,148.087 366.911,148.842 366.988,148.747 367.046,148.693 367.382,148.465 364.858,146.986 363.75,146.187 358.413,141.518 357.537,140.605 355.63,138.233 " fill="none" stroke-width="0.5" stroke="rgb(0,0,0)" />
	<polygon points="129.196,136.481 126.368,137.889 126.371,137.896 126.91,139.507 127.388,141.801 127.444,142.101 127.727,143.819 128.098,142.972 128.382,142.107 128.69,141.039 128.953,139.98 129.169,138.941 129.337,137.936 129.455,136.976 129.515,136.199 " fill="none" stroke-width="0.5" stroke="rgb(0,0,0)" />
	<polygon points="105.556,141.094 106.704,141.871 106.791,141.943 106.944,141.355 105.32,140.965 " fill="none" stroke-width="0.5" stroke="rgb(0,0,0)" />
	<polygon points="313.814,125.015 312.684,125.542 311.709,126.213 310.906,126.983 310.302,127.783 309.917,128.516 309.526,129.754 308.449,131.434 308.966,131.71 309.878,132.079 310.768,132.328 311.706,132.477 312.82,132.534 313.094,132.526 313.561,132.489 314.132,132.426 314.78,132.343 315.463,132.251 315.522,132.243 316.177,132.16 316.369,132.138 316.538,132.121 316.417,131.956 315.834,131.016 315.65,130.661 315.231,129.687 315.102,129.314 314.841,128.345 314.765,127.958 314.643,127.019 314.618,126.626 314.643,125.418 314.71,124.773 " fill="none" stroke-width="0.5" stroke="rgb(0,0,0)" />
	<polygon points="92.4544,114.888 91.9767,115.295 89.7135,117.058 88.6699,117.735 86.3318,118.982 84.3212,119.698 81.9199,120.171 80.7986,120.221 80.9542,122.954 80.9641,123.527 80.9324,124.954 80.9186,125.268 80.875,125.933 81.7154,125.364 82.9015,124.716 84.2099,124.16 85.5188,123.751 86.9497,123.457 88.3528,123.314 89.8218,123.314 91.2269,123.457 92.6559,123.75 93.9667,124.16 95.1286,124.652 94.3958,119.173 94.3766,119.016 93.7785,113.659 " fill="none" stroke-width="0.5" stroke="rgb(0,0,0)" />
	<polygon points="185.31,110.547 185.178,111.373 184.945,112.37 184.715,113.114 184.218,114.322 183.882,114.968 182.977,116.312 182.527,116.843 181.144,118.098 180.57,118.498 178.866,119.376 178.162,119.627 176.471,120.011 175.627,120.098 174.211,119.986 174.755,121.095 176.442,125.477 176.525,125.755 176.795,125.542 179.795,123.455 180.682,122.928 183.802,121.362 184.935,120.908 188.157,119.923 189.53,119.645 192.834,119.303 193.219,119.304 192.957,119.046 192.516,118.57 188.272,113.558 188.035,113.263 185.388,109.784 " fill="none" stroke-width="0.5" stroke="rgb(0,0,0)" />
	<polygon points="124.892,112.333 123.626,117.399 125.836,114.802 126.669,113.97 127.27,113.461 126.656,112.904 125.176,111.306 " fill="none" stroke-width="0.5" stroke="rgb(0,0,0)" />
	<polygon points="414.065,104.765 416.209,106.731 417.028,107.648 417.057,104.981 417.621,104.035 416.318,104.022 416.176,104.02 412.844,103.921 412.706,103.916 412.647,103.913 " fill="none" stroke-width="0.5" stroke="rgb(0,0,0)" />
	<polygon points="392.365,102.217 393.41,103.336 394.163,104.293 395.006,105.572 395.316,105.499 396.669,105.056 398.278,104.45 399.988,103.788 400.173,103.719 401.745,103.159 398.693,102.839 398.558,102.823 395.131,102.399 394.995,102.38 392.032,101.956 " fill="none" stroke-width="0.5" stroke="rgb(0,0,0)" />
	<polygon points="146.235,102.035 145.696,105.049 149.358,104.781 150.139,104.797 149.365,104.135 146.302,101.672 " fill="none" stroke-width="0.5" stroke="rgb(0,0,0)" />
	<polygon points="307.56,99.734 307.332,99.9239 307.174,100.05 307.581,99.8153 309.047,99.1726 309.549,99.016 309.483,98.6628 309.416,98.2358 309.403,98.1326 " fill="none" stroke-width="0.5" stroke="rgb(0,0,0)" />
	<polygon points="381.702,98.9519 381.923,98.9241 382.469,98.8725 382.922,98.844 383.454,98.8272 384.778,98.9066 385.755,99.0559 385.695,98.9905 384.551,97.3222 384.443,97.1046 384.386,96.9441 " fill="none" stroke-width="0.5" stroke="rgb(0,0,0)" />
	<polygon points="65.7115,96.2613 65.4901,96.3834 68.4909,97.7672 69.3801,98.3397 69.5784,96.8147 69.5797,96.8042 69.8618,94.6585 69.9355,94.0381 " fill="none" stroke-width="0.5" stroke="rgb(0,0,0)" />
	<polygon points="459.87,96.5863 459.957,96.6343 460.067,96.4988 " fill="none" stroke-width="0.5" stroke="rgb(0,0,0)" />
	<polygon points="126.759,63.8965 126.03,67.3574 125.93,67.7684 125.083,70.8755 124.67,71.9305 126.17,72.9023 126.311,72.1363 126.589,71.0771 126.85,70.3191 127.647,68.6981 128.017,68.1366 129.901,66.1927 129.928,66.1737 129.819,66.0289 128.095,63.6283 127.131,62.352 " fill="none" stroke-width="0.5" stroke="rgb(0,0,0)" />
	<polygon points="105.149,60.8858 103.435,62.2817 101.59,63.8607 101.41,64.0102 99.6285,65.4381 98.9332,65.9313 97.3153,66.9413 97.1173,67.0275 97.3015,67.6686 97.5127,68.6615 97.6204,69.428 97.6854,70.1526 97.7119,70.8286 97.7268,70.8152 100.203,69.3532 102.261,68.6397 105.862,68.386 105.693,66.3578 105.674,66.0544 105.532,62.626 105.351,60.7462 " fill="none" stroke-width="0.5" stroke="rgb(0,0,0)" />
	<polygon points="401.228,59.1174 401.225,60.1221 402.347,59.9131 402.61,59.8887 405.929,60.3584 407.038,60.7938 409.029,61.9714 410.408,63.1192 410.823,63.4923 412.446,65.0708 414.178,66.6962 415.905,68.0836 417.594,69.109 419.214,69.7184 421.195,69.9685 421.328,69.9622 421.852,69.8827 422.273,69.7594 422.472,69.6613 422.581,69.3635 422.617,69.0218 422.271,67.8718 420.812,66.3657 417.339,64.3108 412.608,62.3507 407.484,60.6518 402.807,59.2148 402.466,59.1008 401.184,58.6364 " fill="none" stroke-width="0.5" stroke="rgb(0,0,0)" />
	<polygon points="163.276,47.7862 162.639,48.9219 164.572,49.5788 164.771,49.6496 166.115,50.1509 165.553,49.5844 163.406,47.4506 " fill="none" stroke-width="0.5" stroke="rgb(0,0,0)" />
	<polygon points="397.192,39.3167 397.786,40.7434 398.261,42.3475 399.769,41.5906 400.654,41.2172 403.626,40.1906 404.101,40.0447 407.762,39.0546 408.1,38.9719 408.32,38.9235 406.631,38.031 402.35,36.4083 398.383,35.2798 395.018,34.4376 394.476,34.2795 394.421,34.2611 " fill="none" stroke-width="0.5" stroke="rgb(0,0,0)" />
	<polygon points="152.556,29.8042 151.44,30.4494 151.122,30.5969 152.728,31.6001 153.057,31.7988 152.903,29.7521 152.986,29.5021 " fill="none" stroke-width="0.5" stroke="rgb(0,0,0)" />
	<polygon points="82.603,28.5712 81.9572,30.3082 83.7604,29.6403 83.778,29.6332 82.6229,28.4681 " fill="none" stroke-width="0.5" stroke="rgb(0,0,0)" />
</svg>
