<?xml version="1.0" standalone="no" ?>
<!DOCTYPE svg PUBLIC "-//W3C//DTD SVG 1.1//EN" "http://www.w3.org/Graphics/SVG/1.1/DTD/svg11.dtd">
<svg width="500px" height="500px" xmlns="http://www.w3.org/2000/svg" version="1.1" >
	<polygon points="464.973,280.841 464.191,294.774 461.863,309.473 457.912,325.07 452.309,341.234 445.042,357.654 436.104,374.031 425.494,390.076 413.212,405.512 399.259,420.071 383.63,433.497 366.313,445.541 347.282,455.962 326.495,464.519 303.897,470.964 279.418,475.037 252.979,476.461 227.225,475.118 203.262,471.262 181.055,465.142 160.557,456.994 141.729,447.041 124.542,435.501 108.982,422.59 95.0469,408.529 82.7408,393.547 72.073,377.881 63.0537,361.777 55.6915,345.489 49.9908,329.282 45.9488,313.429 43.5514,298.215 42.7405,283.47 42.7405,35.3045 49.9955,35.2488 61.4872,35.1607 72.9789,35.0725 84.4705,34.9843 95.9622,34.8961 107.454,34.808 118.946,34.7198 130.437,34.6316 130.437,34.6316 141.929,34.5434 153.421,34.4553 153.421,34.4553 164.912,34.3671 176.404,34.2789 187.896,34.1907 187.896,34.1907 194.876,34.1372 194.856,43.9312 194.831,56.83 194.806,69.7288 194.806,69.7288 194.78,82.6276 194.729,108.425 194.729,108.425 194.704,121.324 194.653,147.122 194.653,147.122 194.628,160.02 194.602,172.919 194.602,172.919 194.577,185.818 194.551,198.717 194.526,211.616 194.526,211.616 194.5,224.514 194.501,224.668 194.588,235.962 194.589,236.081 194.754,246.898 194.759,247.114 195.056,257.42 195.068,257.75 195.553,267.511 195.583,267.978 196.311,277.162 196.374,277.794 197.401,286.367 197.523,287.201 198.904,295.129 199.131,296.209 200.92,303.459 201.324,304.826 203.578,311.365 204.266,313.044 207.04,318.838 208.154,320.795 211.503,325.811 213.174,327.906 217.153,332.11 219.402,334.077 224.068,337.437 226.719,338.98 232.125,341.461 234.848,342.422 241.051,343.991 243.542,344.414 250.596,345.038 251.947,329.779 253.001,345.062 260.262,344.562 262.765,344.186 269.112,342.709 271.902,341.779 277.397,339.361 280.154,337.802 284.86,334.48 287.212,332.447 291.19,328.258 292.926,326.074 296.239,321.055 297.376,319.02 300.086,313.208 300.771,311.479 302.939,304.909 303.329,303.519 305.017,296.23 305.229,295.148 306.5,287.175 306.609,286.355 307.525,277.735 307.578,277.127 308.2,267.897 308.224,267.463 308.615,257.66 308.624,257.368 308.846,247.029 308.849,246.856 308.964,236.017 308.965,235.947 309.035,224.644 309.035,224.514 309.009,211.615 308.983,198.716 308.957,185.817 308.932,172.919 308.932,172.919 308.906,160.02 308.854,134.222 308.854,134.222 308.828,121.323 308.751,82.6271 308.751,82.627 308.725,69.7283 308.653,33.9131 316.38,33.8634 328.133,33.7878 339.886,33.7123 351.639,33.6367 363.393,33.5612 375.146,33.4856 386.899,33.41 410.406,33.2589 433.912,33.1078 445.665,33.0322 457.419,32.9567 457.419,32.9567 464.973,32.9081 " fill="none" stroke-width="0.5" stroke="rgb(0,0,0)" />
</svg>
