<?xml version="1.0" standalone="no" ?>
<!DOCTYPE svg PUBLIC "-//W3C//DTD SVG 1.1//EN" "http://www.w3.org/Graphics/SVG/1.1/DTD/svg11.dtd">
<svg width="500px" height="500px" xmlns="http://www.w3.org/2000/svg" version="1.1" >
	<polygon points="464.773,280.836 463.992,294.753 461.667,309.433 457.72,325.012 452.123,341.161 444.863,357.566 435.933,373.928 425.332,389.958 413.061,405.38 399.121,419.926 383.508,433.338 366.208,445.371 347.195,455.782 326.429,464.33 303.853,470.769 279.396,474.838 252.979,476.261 227.246,474.919 203.304,471.066 181.119,464.952 160.641,456.812 141.831,446.869 124.662,435.34 109.117,422.442 95.1955,408.395 82.901,393.427 72.2432,377.776 63.2324,361.687 55.8773,345.415 50.1824,329.224 46.1449,313.389 43.7505,298.194 42.9405,283.465 42.9405,35.503 49.997,35.4488 61.4887,35.3607 72.9804,35.2725 84.4721,35.1843 95.9637,35.0961 107.455,35.008 118.947,34.9198 130.439,34.8316 130.439,34.8316 141.93,34.7434 153.422,34.6553 153.422,34.6553 164.914,34.5671 176.405,34.4789 187.897,34.3907 187.897,34.3907 194.675,34.3387 194.657,43.9308 194.631,56.8296 194.606,69.7284 194.606,69.7284 194.58,82.6272 194.529,108.425 194.529,108.425 194.504,121.324 194.453,147.121 194.453,147.121 194.428,160.02 194.402,172.919 194.377,185.818 194.326,211.615 194.326,211.615 194.3,224.514 194.301,224.669 194.388,235.964 194.389,236.084 194.554,246.901 194.559,247.119 194.856,257.426 194.869,257.759 195.354,267.521 195.384,267.993 196.112,277.177 196.176,277.817 197.202,286.39 197.326,287.235 198.707,295.163 198.937,296.257 200.726,303.507 201.135,304.891 203.389,311.43 204.086,313.13 206.86,318.925 207.988,320.906 211.337,325.922 213.029,328.043 217.008,332.248 219.286,334.239 223.951,337.599 226.635,339.162 232.042,341.643 234.799,342.616 241.002,344.185 243.524,344.613 250.579,345.238 251.947,329.779 253.015,345.262 260.275,344.761 262.811,344.381 269.158,342.903 271.982,341.962 277.478,339.544 280.269,337.966 284.975,334.644 287.357,332.585 291.335,328.396 293.093,326.184 296.406,321.165 297.558,319.105 300.267,313.292 300.961,311.541 303.129,304.972 303.524,303.564 305.212,296.275 305.426,295.18 306.697,287.207 306.808,286.376 307.724,277.756 307.777,277.141 308.4,267.911 308.423,267.471 308.815,257.668 308.824,257.372 309.046,247.033 309.049,246.858 309.164,236.019 309.165,235.948 309.235,224.645 309.235,224.513 309.209,211.615 309.183,198.716 309.132,172.918 309.132,172.918 309.106,160.019 309.054,134.222 309.054,134.222 309.028,121.323 308.951,82.6267 308.951,82.6266 308.925,69.7278 308.853,34.1118 316.381,34.0634 328.134,33.9878 339.887,33.9123 351.641,33.8367 363.394,33.7612 375.147,33.6856 386.901,33.61 410.407,33.4589 422.16,33.3833 433.914,33.3078 445.667,33.2322 457.42,33.1567 464.773,33.1094 " fill="none" stroke-width="0.5" stroke="rgb(0,0,0)" />
</svg>
