<?xml version="1.0" standalone="no" ?>
<!DOCTYPE svg PUBLIC "-//W3C//DTD SVG 1.1//EN" "http://www.w3.org/Graphics/SVG/1.1/DTD/svg11.dtd">
<svg width="500px" height="500px" xmlns="http://www.w3.org/2000/svg" version="1.1" >
	<polygon points="469.873,280.979 469.07,295.296 466.668,310.46 462.61,326.476 456.872,343.031 449.441,359.823 440.306,376.56 429.462,392.958 416.906,408.739 402.632,423.633 386.633,437.377 368.896,449.713 349.397,460.39 328.105,469.155 304.974,475.752 279.954,479.916 252.983,481.368 226.707,479.998 202.218,476.057 179.494,469.795 158.501,461.45 139.211,451.253 121.604,439.43 105.67,426.208 91.4056,411.816 78.8146,396.487 67.9024,380.462 58.6755,363.987 51.1393,347.315 45.2964,330.703 41.1442,314.418 38.6724,298.732 37.8405,283.605 37.8405,30.442 38.4662,30.4372 49.9579,30.349 61.4496,30.2608 72.9413,30.1726 84.4329,30.0845 95.9246,29.9963 107.416,29.9081 118.908,29.8199 130.4,29.7318 141.891,29.6436 153.383,29.5554 164.875,29.4672 176.366,29.379 187.858,29.2909 199.786,29.1994 199.782,31.042 199.782,31.0421 199.757,43.9408 199.731,56.8396 199.706,69.7384 199.706,69.7384 199.68,82.6372 199.629,108.435 199.629,108.435 199.604,121.334 199.553,147.131 199.528,160.03 199.502,172.929 199.502,172.929 199.477,185.828 199.451,198.726 199.426,211.625 199.426,211.625 199.4,224.524 199.401,224.63 199.488,235.925 199.489,236.007 199.653,246.824 199.657,246.973 199.954,257.279 199.962,257.506 200.447,267.268 200.468,267.59 201.196,276.774 201.24,277.211 202.266,285.784 202.351,286.36 203.731,294.289 203.888,295.034 205.678,302.285 205.956,303.229 208.21,309.768 208.686,310.928 211.46,316.722 212.23,318.074 215.579,323.091 216.733,324.538 220.712,328.742 222.266,330.101 226.931,333.46 228.763,334.527 234.169,337.008 236.05,337.672 242.253,339.241 243.974,339.533 251.028,340.157 251.947,329.779 252.664,340.174 259.925,339.673 261.654,339.414 268.001,337.936 269.928,337.294 275.424,334.876 277.328,333.799 282.034,330.477 283.659,329.072 287.637,324.884 288.836,323.375 292.149,318.356 292.935,316.95 295.645,311.138 296.118,309.943 298.286,303.374 298.555,302.413 300.244,295.124 300.39,294.377 301.661,286.404 301.736,285.837 302.652,277.217 302.689,276.797 303.311,267.568 303.327,267.267 303.719,257.464 303.725,257.263 303.947,246.923 303.949,246.804 304.064,235.965 304.065,235.916 304.135,224.613 304.135,224.524 304.109,211.625 304.083,198.726 304.032,172.928 304.032,172.928 304.006,160.03 303.954,134.232 303.954,134.232 303.928,121.333 303.851,82.6369 303.851,82.6369 303.825,69.7381 303.747,31.0417 303.747,31.0417 303.743,29.0445 304.595,29.0391 316.348,28.9635 328.101,28.8879 339.855,28.8124 351.608,28.7368 363.361,28.6613 375.114,28.5857 386.868,28.5101 410.374,28.359 422.127,28.2835 433.881,28.2079 445.634,28.1323 457.387,28.0568 469.141,27.9812 469.873,27.9765 " fill="none" stroke-width="0.5" stroke="rgb(0,0,0)" />
	<polygon points="319.346,422.987 319.647,424.31 319.734,424.733 319.763,424.889 320.165,425.204 320.975,425.891 321.157,425.739 321.942,425.142 322.643,424.657 323.108,424.374 322.762,421.861 " fill="none" stroke-width="0.5" stroke="rgb(0,0,0)" />
	<polygon points="107.942,168.24 108.332,168.587 108.038,168.175 " fill="none" stroke-width="0.5" stroke="rgb(0,0,0)" />
	<polygon points="424.015,148.367 426.064,148.972 426.957,149.336 425.097,148.281 424.548,147.89 " fill="none" stroke-width="0.5" stroke="rgb(0,0,0)" />
</svg>
