<?xml version="1.0" standalone="no" ?>
<!DOCTYPE svg PUBLIC "-//W3C//DTD SVG 1.1//EN" "http://www.w3.org/Graphics/SVG/1.1/DTD/svg11.dtd">
<svg width="500px" height="500px" xmlns="http://www.w3.org/2000/svg" version="1.1" >
	<polygon points="480.823,80.1478 480.745,80.333 479.44,82.4921 474.125,88.964 472.479,90.5108 467.977,93.7652 468.832,93.9408 470.377,94.4091 472.472,95.2611 474.069,96.1111 475.792,97.2702 477.241,98.4899 478.61,99.9214 479.733,101.373 480.766,103.042 480.823,103.158 480.823,191.051 479.14,192.998 477.561,194.072 475.073,195.004 475.103,195.034 479.105,199.476 480.078,200.78 480.823,202.001 480.823,246.657 479.64,248.67 479.204,249.341 476.891,252.567 478.425,252.915 479.684,253.363 480.823,253.946 480.823,281.286 480.051,295.038 479.736,295.475 477.158,298.663 476.447,299.442 473.788,302.026 474.255,302.759 476.17,306.426 476.688,307.626 477.727,310.634 477.405,312.666 473.11,329.62 467.07,347.047 459.27,364.67 454.966,372.557 450.999,372.805 450.236,372.468 450.817,378.702 450.765,380.252 449.695,382.213 438.331,399.399 425.161,415.952 410.17,431.593 400.937,439.525 399.052,438.933 397.559,438.228 397.143,437.976 397.073,439.405 396.363,443.454 393.345,446.047 374.668,459.037 354.126,470.285 331.702,479.516 322.275,482.205 322.166,482.174 320.53,481.526 317.867,480.149 316.36,479.163 314.798,477.894 314.824,478.103 314.891,478.947 314.904,479.362 314.604,481.932 314.206,483.404 313.557,484.691 307.382,486.452 281.151,490.817 265.643,491.652 264.243,490.509 263.576,489.864 263.104,490.104 262.61,490.337 258.715,492.025 252.993,492.333 225.548,490.902 199.887,486.773 178.796,480.961 178.602,480.822 174.687,478.072 171.81,476.454 170.141,475.973 167.269,475.689 164.259,475.522 153.907,471.407 133.585,460.665 128.894,457.515 126.869,454.301 126.71,452.414 125.883,452.407 120.401,451.812 115.039,448.212 98.2672,434.295 83.2685,419.161 70.0408,403.057 69.6861,402.536 69.5244,401.242 69.4844,399.451 69.5803,398.25 68.8518,398.281 65.5739,396.498 58.5824,386.23 48.8916,368.927 40.9666,351.394 34.8057,333.879 33.7622,329.786 33.7676,329.76 36.7359,320.199 37.237,318.938 39.3773,314.568 37.3533,314.527 35.3842,313.907 31.8035,311.736 29.9849,309.917 29.1816,308.85 27.7694,299.888 26.8905,283.906 26.8905,235.431 28.2868,232.223 29.308,230.465 29.7983,229.809 27.8806,228.704 26.8905,227.929 26.8905,162.353 26.9409,162.183 28.513,157.801 29.077,156.547 31.5036,152.114 32.4487,150.722 34.1095,148.719 33.8334,148.639 32.2463,148.002 29.96,146.816 28.505,145.867 26.8905,144.571 26.8905,110.371 26.9849,110.277 28.0127,109.398 29.1069,108.599 28.9629,108.51 27.4081,107.287 27.0131,106.897 26.8905,106.742 26.8905,89.6619 28.0101,87.9696 26.8905,87.5953 26.8905,40.7364 30.765,37.8991 31.1928,37.6048 34.4186,35.5232 34.4014,35.5188 33.9181,35.3816 30.1676,34.2 28.8409,33.6598 26.8905,32.6736 26.8905,19.5757 38.3822,19.4875 49.8739,19.3993 61.3656,19.3111 72.8572,19.223 84.3489,19.1348 95.8406,19.0466 107.332,18.9584 117.035,18.884 117.089,18.9432 117.298,19.1854 118.447,20.5629 118.721,20.8186 118.806,20.8307 118.904,20.8166 119.32,20.4509 120.557,19.0861 120.775,18.8553 130.316,18.7821 141.807,18.6939 153.299,18.6057 157.484,18.5736 158.033,20.2963 158.844,19.7118 160.394,18.8179 161,18.5466 164.791,18.5175 176.282,18.4294 187.774,18.3412 210.757,18.1648 210.732,31.0636 210.706,43.9624 210.681,56.8612 210.678,58.1676 209.943,58.4475 210.676,59.2884 210.656,69.76 210.63,82.6588 210.623,86.0742 210.274,86.2609 209.404,86.6247 207.966,87.0855 206.963,87.3143 205.624,87.5128 204.597,87.5851 204.7,87.6653 204.934,87.8529 209.229,91.4282 209.527,91.6874 210.61,92.675 210.579,108.456 210.554,121.355 210.503,147.153 210.478,160.052 210.452,172.95 210.443,177.697 209.815,178.849 208.977,180.114 207.196,182.356 206.086,183.517 203.945,185.383 203.306,185.838 203.495,185.944 205.893,187.587 207.252,188.737 209.225,190.783 210.388,192.284 210.414,192.326 210.401,198.748 210.376,211.647 210.362,218.845 210.134,219.255 209.921,219.617 209.096,220.949 207.759,222.263 209.758,224.112 210.352,224.721 210.438,235.84 210.602,246.657 210.899,256.963 211.254,264.105 211.198,264.175 209.018,266.812 207.532,268.789 207.196,269.418 208.358,270.593 210.521,272.415 210.673,272.546 211.933,273.658 212.112,275.909 213.138,284.482 214.519,292.41 216.308,299.661 218.563,306.2 221.336,311.994 224.685,317.011 228.665,321.215 233.33,324.575 238.737,327.056 244.939,328.626 250.428,329.111 250.757,329.649 252.266,332.774 252.681,333.87 253.712,331.935 254.629,330.548 255.899,328.975 259.171,328.749 265.518,327.271 271.013,324.853 275.719,321.532 279.698,317.343 283.01,312.324 285.72,306.511 287.888,299.942 289.576,292.653 290.848,284.68 291.763,276.06 292.323,267.764 292.45,267.637 294.09,266.351 295.102,265.736 295.319,265.637 293.352,263.949 292.539,263.005 292.778,257.028 293,246.688 293.115,235.848 293.185,224.546 293.183,223.514 293.36,223.171 293.182,222.992 293.159,211.647 293.133,198.748 293.129,196.775 293.828,196.075 295.306,194.848 296.422,194.089 295.911,193.335 295.264,192.148 294.591,190.562 294.182,189.252 293.826,187.517 293.683,186.114 293.683,184.329 293.826,182.927 294.183,181.191 294.592,179.883 295.266,178.297 295.913,177.111 296.855,175.719 296.974,175.575 294.959,174.269 293.546,172.957 293.081,172.416 293.056,160.052 293.004,134.254 292.991,127.696 293.328,127.375 293.185,126.782 293.099,126.387 292.987,125.803 292.978,121.355 292.97,117.368 293.122,116.477 293.891,113.501 294.406,112.047 295.72,109.17 296.557,107.72 297.359,106.594 296.947,106.656 296.711,106.655 296.223,106.638 296.031,106.626 294.719,106.443 294.568,106.41 292.947,105.798 292.901,82.6588 292.875,69.76 292.817,40.7219 292.818,40.7213 292.919,40.6684 292.816,40.5178 292.797,31.0636 292.771,18.1648 304.525,18.0893 306.214,18.0784 307.577,18.8206 307.622,18.6109 307.769,18.0684 316.278,18.0137 328.031,17.9382 339.784,17.8626 351.538,17.787 363.291,17.7115 375.044,17.6359 379.449,17.6076 379.467,17.6159 381.004,18.5202 385.889,22.106 386.983,19.96 387.609,19.232 389.831,17.5409 410.304,17.4092 422.057,17.3337 433.81,17.2581 443.071,17.1986 443.68,17.6314 445.396,19.2001 445.764,18.637 446.955,17.1736 457.317,17.107 469.07,17.0314 480.823,16.9559 " fill="none" stroke-width="0.5" stroke="rgb(0,0,0)" />
	<polygon points="306.449,468.593 306.619,468.624 307.288,468.817 308.637,469.398 308.307,468.589 307.741,466.691 " fill="none" stroke-width="0.5" stroke="rgb(0,0,0)" />
	<polygon points="193.761,444.574 194.134,446.02 194.571,446.117 196.045,446.354 197.462,446.501 198.575,446.544 200.063,446.463 201.416,446.224 202.555,445.851 203.417,445.395 204.04,444.882 204.551,444.221 204.608,444.095 202.976,444.217 201.63,444.214 195.412,443.725 193.923,443.478 193.338,443.328 " fill="none" stroke-width="0.5" stroke="rgb(0,0,0)" />
	<polygon points="316.92,421.522 316.644,421.581 316.863,422.155 317.22,423.334 317.55,424.787 317.62,425.127 317.804,426.11 318.222,426.411 318.774,426.843 319.641,427.579 320.625,428.558 320.882,428.857 321.382,428.379 321.827,427.981 322.535,427.389 323.166,426.909 323.867,426.424 324.772,425.875 325.462,425.511 325.594,425.454 325.583,425.433 325.233,424.192 324.904,421.809 324.904,418.891 " fill="none" stroke-width="0.5" stroke="rgb(0,0,0)" />
	<polygon points="167.406,413.432 167.412,414.715 167.153,418.502 169.112,418.704 169.123,418.576 169.461,416.816 169.557,416.497 170.38,414.602 170.537,414.332 171.005,413.718 168.992,412.663 168.303,412.262 167.262,411.59 " fill="none" stroke-width="0.5" stroke="rgb(0,0,0)" />
	<polygon points="273.533,415.506 273.782,415.463 272.9,414.941 " fill="none" stroke-width="0.5" stroke="rgb(0,0,0)" />
	<polygon points="259.461,405.967 261.937,407.202 262.508,407.514 263.791,408.278 259.96,404.742 " fill="none" stroke-width="0.5" stroke="rgb(0,0,0)" />
	<polygon points="350.7,396.898 351.62,396.847 351.131,396.179 " fill="none" stroke-width="0.5" stroke="rgb(0,0,0)" />
	<polygon points="204.668,391.137 205.113,392.13 206.451,390.729 205.549,390.72 204.371,390.59 " fill="none" stroke-width="0.5" stroke="rgb(0,0,0)" />
	<polygon points="244.57,374.503 245.267,375.087 245.047,373.861 " fill="none" stroke-width="0.5" stroke="rgb(0,0,0)" />
	<polygon points="82.9031,368.682 81.8451,368.758 81.5828,368.76 81.7723,369.24 82.1403,371.669 82.654,371.212 83.7956,370.35 84.424,369.952 83.5374,369.039 83.2175,368.641 " fill="none" stroke-width="0.5" stroke="rgb(0,0,0)" />
	<polygon points="118.333,360.359 118.248,360.646 118.651,360.609 118.364,360.193 " fill="none" stroke-width="0.5" stroke="rgb(0,0,0)" />
	<polygon points="394.718,343.192 393.944,343.748 392.923,344.401 390.685,345.423 389.85,345.671 389.227,345.722 389.674,346.989 389.728,347.221 392.234,345.12 394.345,343.809 395.249,343.412 395.247,343.409 394.942,343.013 " fill="none" stroke-width="0.5" stroke="rgb(0,0,0)" />
	<polygon points="60.0307,341.552 61.1183,343.301 61.6103,341.809 62.0697,340.791 61.0949,340.509 59.8476,340.051 " fill="none" stroke-width="0.5" stroke="rgb(0,0,0)" />
	<polygon points="157.868,339.159 156.402,340.291 155.8,340.662 156.396,341.023 157.448,341.771 158.793,342.886 158.806,342.504 158.846,341.904 159.025,340.139 159.123,339.449 159.429,337.771 159.46,337.638 " fill="none" stroke-width="0.5" stroke="rgb(0,0,0)" />
	<polygon points="415.107,334.616 415.226,335.342 415.274,335.672 415.432,336.942 415.487,337.564 415.547,338.692 415.556,339.414 415.548,339.693 416.942,339.812 416.169,338.307 415.312,334.594 " fill="none" stroke-width="0.5" stroke="rgb(0,0,0)" />
	<polygon points="165.438,327.808 167.017,327.077 166.03,325.584 " fill="none" stroke-width="0.5" stroke="rgb(0,0,0)" />
	<polygon points="75.6497,315.814 75.3742,318.365 75.398,319.209 75.4367,319.575 75.6003,319.359 77.018,317.82 78.2863,316.686 79.9874,315.439 79.9938,315.435 79.0644,314.831 77.6354,313.69 76.4942,312.576 " fill="none" stroke-width="0.5" stroke="rgb(0,0,0)" />
	<polygon points="161.156,300.032 159.973,300.189 159.963,300.189 160.195,300.593 161.511,303.222 161.96,300.445 162.097,299.81 " fill="none" stroke-width="0.5" stroke="rgb(0,0,0)" />
	<polygon points="161.624,253.093 161.791,253.776 162.156,255.587 162.231,256.011 162.522,257.94 162.555,258.176 162.686,259.234 163.198,257.45 164.877,254.268 165.508,253.506 162.557,252.759 161.178,251.536 " fill="none" stroke-width="0.5" stroke="rgb(0,0,0)" />
	<polygon points="158.224,247.182 158.396,247.277 158.252,246.903 " fill="none" stroke-width="0.5" stroke="rgb(0,0,0)" />
	<polygon points="327.772,237.308 327.384,237.308 327.826,237.808 328.95,239.684 328.883,239.526 328.179,237.267 " fill="none" stroke-width="0.5" stroke="rgb(0,0,0)" />
	<polygon points="312.111,227.677 312.498,227.907 312.366,227.596 " fill="none" stroke-width="0.5" stroke="rgb(0,0,0)" />
	<polygon points="90.1665,216.307 90.7136,217.611 90.9654,218.379 91.2612,219.545 91.3573,220.072 92.6805,219.644 93.4094,219.522 96.0929,219.486 96.7367,219.577 98.8272,220.178 98.9985,219.035 99.4893,216.877 98.0965,217.03 96.1573,217.028 92.9681,216.672 90.9943,216.217 89.9224,215.836 " fill="none" stroke-width="0.5" stroke="rgb(0,0,0)" />
	<polygon points="433.008,215.638 432.211,215.792 430.109,216.095 432.354,217.958 433.438,219.085 433.705,218.602 436.228,214.948 436.311,214.845 " fill="none" stroke-width="0.5" stroke="rgb(0,0,0)" />
	<polygon points="107.694,165.823 106.3,166.767 105.114,167.414 103.923,167.919 105.239,168.813 106.142,169.516 109.14,172.183 110.041,173.11 111.832,175.25 113.049,173.542 114.435,172.024 114.464,172.001 112.121,169.859 110.897,168.478 108.674,165.367 108.536,165.127 " fill="none" stroke-width="0.5" stroke="rgb(0,0,0)" />
	<polygon points="423.368,146.061 420.626,148.513 419.548,149.289 425.455,151.034 427.08,151.697 430.73,153.63 429.914,150.784 429.811,148.232 429.583,148.153 427.904,147.415 426.343,146.529 424.983,145.561 424.308,144.937 " fill="none" stroke-width="0.5" stroke="rgb(0,0,0)" />
	<polygon points="356.721,143.797 356.786,143.791 358.548,143.791 358.671,143.803 357.393,142.685 356.877,142.148 " fill="none" stroke-width="0.5" stroke="rgb(0,0,0)" />
	<polygon points="312.692,127.418 312.069,128.016 311.616,128.616 311.354,129.115 311.003,130.222 310.711,130.703 311.1,130.811 311.868,130.934 312.836,130.983 313.01,130.977 313.416,130.946 313.948,130.887 314.058,130.873 313.766,130.193 313.637,129.82 313.32,128.644 313.244,128.257 313.099,127.138 " fill="none" stroke-width="0.5" stroke="rgb(0,0,0)" />
	<polygon points="186.196,113.572 185.593,115.038 185.257,115.684 184.159,117.316 183.708,117.846 182.03,119.371 181.456,119.77 179.388,120.835 178.683,121.087 176.631,121.553 176.594,121.557 177.273,123.321 178.91,122.183 179.986,121.543 183.107,119.976 184.482,119.425 187.704,118.441 189.37,118.103 190.031,118.035 187.089,114.56 186.802,114.201 186.232,113.453 " fill="none" stroke-width="0.5" stroke="rgb(0,0,0)" />
	<polygon points="90.6659,118.28 89.3993,119.103 87.0611,120.35 84.6207,121.219 82.4324,121.65 82.5017,122.866 82.5076,123.208 83.7469,122.681 85.0558,122.272 86.7926,121.915 88.1956,121.772 89.9787,121.772 91.3838,121.915 93.1183,122.27 93.2518,122.312 92.8595,119.379 92.8361,119.188 92.5693,116.798 " fill="none" stroke-width="0.5" stroke="rgb(0,0,0)" />
	<polygon points="415.195,65.5251 416.797,66.8115 418.275,67.7092 419.589,68.2034 420.552,68.325 419.844,67.5937 416.644,65.7008 414.385,64.7648 " fill="none" stroke-width="0.5" stroke="rgb(0,0,0)" />
	<polygon points="102.598,65.0381 102.379,65.2196 100.598,66.6476 99.754,67.2461 98.9051,67.776 99.0146,68.2906 99.6953,67.8887 101.753,67.1752 104.186,66.944 104.148,66.487 104.125,66.1186 104.03,63.8129 " fill="none" stroke-width="0.5" stroke="rgb(0,0,0)" />
	<polygon points="127.881,66.0891 127.923,66.0458 127.897,66.0105 " fill="none" stroke-width="0.5" stroke="rgb(0,0,0)" />
	<polygon points="398.551,38.5718 399.208,40.1486 400.148,39.7521 403.12,38.7256 403.656,38.5609 401.862,37.8811 397.983,36.7774 397.502,36.6572 " fill="none" stroke-width="0.5" stroke="rgb(0,0,0)" />
</svg>
