<?xml version="1.0" standalone="no" ?>
<!DOCTYPE svg PUBLIC "-//W3C//DTD SVG 1.1//EN" "http://www.w3.org/Graphics/SVG/1.1/DTD/svg11.dtd">
<svg width="500px" height="500px" xmlns="http://www.w3.org/2000/svg" version="1.1" >
	<polygon points="472.923,88.8684 471.952,89.7814 465.689,94.3085 466.165,94.312 468.651,94.8224 470.038,95.2428 472.133,96.0949 472.923,96.5154 472.923,281.064 472.106,295.621 469.659,311.075 465.535,327.352 459.713,344.15 452.178,361.173 442.921,378.135 431.933,394.752 419.205,410.748 404.732,425.85 388.503,439.792 370.504,452.31 350.714,463.146 329.107,472.041 314.31,476.261 313.59,475.543 312.922,474.724 313.506,476.163 313.593,476.466 305.645,478.733 280.287,482.952 252.986,484.422 226.384,483.035 201.569,479.042 178.523,472.691 157.222,464.223 137.644,453.874 119.775,441.876 103.608,428.461 89.1391,413.862 76.3707,398.317 65.3064,382.069 55.9503,365.363 48.3058,348.451 42.3743,331.588 38.8376,317.716 40.7885,313.733 37.9394,313.675 35.6355,299.054 34.7905,283.689 34.7905,149.308 35.6767,148.239 34.7905,147.981 34.7905,36.3543 36.1409,35.4829 36.2454,35.4166 36.655,35.1613 34.7905,34.689 34.7905,27.4153 38.4428,27.3873 49.9345,27.2991 61.4262,27.2109 72.9179,27.1227 84.4095,27.0345 95.9012,26.9464 107.393,26.8582 118.885,26.77 130.376,26.6818 141.868,26.5937 153.36,26.5055 164.851,26.4173 176.343,26.3291 187.835,26.241 202.842,26.1258 202.832,31.0481 202.832,31.0481 202.806,43.9469 202.781,56.8456 202.756,69.7444 202.756,69.7445 202.73,82.6432 202.722,86.637 201.785,86.5417 202.721,87.2681 202.679,108.441 202.679,108.441 202.654,121.34 202.603,147.137 202.603,147.137 202.578,160.036 202.552,172.935 202.552,172.935 202.528,185.293 202.102,185.596 201.559,185.909 201.693,185.968 202.526,186.43 202.501,198.732 202.476,211.631 202.476,211.631 202.45,224.53 202.451,224.607 202.538,235.901 202.538,235.96 202.703,246.777 202.705,246.885 203.002,257.191 203.009,257.355 203.494,267.117 203.509,267.349 204.237,276.533 204.268,276.848 205.294,285.421 205.356,285.837 206.736,293.766 206.849,294.304 208.639,301.554 208.84,302.235 211.094,308.774 211.437,309.611 214.211,315.405 214.766,316.381 218.115,321.397 218.948,322.441 222.927,326.646 224.048,327.626 228.713,330.985 230.035,331.755 235.441,334.236 236.799,334.715 243.001,336.284 244.243,336.495 251.297,337.119 251.611,333.576 251.949,334.47 252.375,335.992 252.454,337.131 259.715,336.631 260.963,336.443 267.31,334.966 268.7,334.502 274.195,332.084 275.569,331.307 280.275,327.986 281.447,326.972 285.426,322.783 286.291,321.695 289.604,316.676 290.171,315.662 292.88,309.849 293.222,308.987 295.39,302.418 295.584,301.725 297.272,294.435 297.378,293.897 298.649,285.924 298.703,285.515 299.619,276.895 299.646,276.592 300.268,267.362 300.28,267.146 300.671,257.343 300.676,257.197 300.898,246.858 300.899,246.772 301.015,235.932 301.015,235.897 301.085,224.594 301.085,224.53 301.059,211.631 301.033,198.732 301.007,185.833 300.982,172.935 300.956,160.036 300.904,134.238 300.904,134.238 300.878,121.339 300.801,82.643 300.801,82.643 300.775,69.7442 300.697,31.0478 300.697,31.0478 300.687,26.0141 304.575,25.9891 316.329,25.9136 328.082,25.838 339.835,25.7624 351.588,25.6869 363.342,25.6113 375.095,25.5358 386.848,25.4602 410.355,25.3091 422.108,25.2335 433.861,25.158 445.614,25.0824 457.368,25.0068 469.121,24.9313 472.923,24.9068 " fill="none" stroke-width="0.5" stroke="rgb(0,0,0)" />
	<polygon points="305.474,468.426 304.746,469.2 304.814,469.206 306.37,469.489 307.039,469.682 308.865,470.468 309.359,470.759 310.947,472.026 309.751,469.758 309.169,468.332 308.417,465.809 308.156,464.478 " fill="none" stroke-width="0.5" stroke="rgb(0,0,0)" />
	<polygon points="192.507,443.672 192.889,444.798 193.4,446.78 194.402,447.001 195.927,447.246 197.398,447.399 198.582,447.445 200.166,447.358 201.635,447.1 202.909,446.683 203.919,446.147 204.691,445.512 205.326,444.688 205.895,443.44 205.971,443.09 202.909,443.319 201.701,443.317 195.483,442.828 194.146,442.606 191.796,442.006 " fill="none" stroke-width="0.5" stroke="rgb(0,0,0)" />
	<polygon points="158.938,437.623 157.818,438.996 154.671,442.072 154.72,442.052 156.777,440.665 158.255,439.074 159.326,437.171 159.409,436.892 " fill="none" stroke-width="0.5" stroke="rgb(0,0,0)" />
	<polygon points="316.639,420.668 315.394,420.933 315.528,421.178 316.022,422.476 316.342,423.534 316.673,424.987 316.736,425.292 316.983,426.618 316.986,426.63 317.696,427.141 318.192,427.529 319.058,428.265 319.942,429.144 320.675,429.998 320.812,430.204 321.005,430 321.29,429.713 322.004,429.029 322.404,428.672 323.112,428.08 323.679,427.649 324.379,427.164 325.191,426.671 325.882,426.307 326.824,425.903 326.449,425.19 326.1,423.948 325.804,421.809 325.804,417.647 " fill="none" stroke-width="0.5" stroke="rgb(0,0,0)" />
	<polygon points="166.508,413.502 166.514,414.654 166.199,419.264 166.569,419.098 170.007,419.592 169.987,419.023 170.019,418.655 170.323,417.075 170.419,416.756 171.158,415.055 171.315,414.785 172.37,413.4 172.046,413.248 169.41,411.866 168.792,411.506 166.364,409.939 166.223,409.838 " fill="none" stroke-width="0.5" stroke="rgb(0,0,0)" />
	<polygon points="259.431,403.413 259.155,404.343 258.568,405.786 258.248,406.391 258.675,406.58 261.535,408.007 262.048,408.288 264.831,409.944 265.259,410.218 267.877,412.014 268.268,412.301 270.632,414.147 271.031,414.48 273.054,416.285 273.244,416.469 273.967,416.344 274.295,416.295 275.629,416.122 275.941,416.088 276.518,416.037 268.892,411.523 267.556,410.529 260.455,403.974 259.525,402.926 " fill="none" stroke-width="0.5" stroke="rgb(0,0,0)" />
	<polygon points="350.365,395.714 349.636,396.93 348.931,397.898 352.851,397.679 353.492,397.673 352.533,396.577 351.717,395.46 351.033,394.329 " fill="none" stroke-width="0.5" stroke="rgb(0,0,0)" />
	<polygon points="309.135,394.659 308.545,394.832 306.741,395.287 307.511,395.255 309.508,394.991 309.317,394.725 309.281,394.61 " fill="none" stroke-width="0.5" stroke="rgb(0,0,0)" />
	<polygon points="203.877,391.567 204.365,392.655 204.864,394.037 205.702,392.799 207.523,390.892 209.163,389.669 207.213,389.842 205.647,389.825 202.759,389.506 " fill="none" stroke-width="0.5" stroke="rgb(0,0,0)" />
	<polygon points="243.314,374.684 243.702,374.944 244.999,376.03 245.742,376.801 245.822,376.901 246.271,376.914 246.681,376.955 246.182,375.113 245.939,373.752 245.731,371.434 " fill="none" stroke-width="0.5" stroke="rgb(0,0,0)" />
	<polygon points="82.7853,367.79 81.8355,367.858 80.2893,367.874 80.8825,369.374 81.499,373.446 83.2527,371.884 84.2775,371.111 85.9048,370.079 85.2763,369.544 84.2392,368.476 83.6021,367.682 " fill="none" stroke-width="0.5" stroke="rgb(0,0,0)" />
	<polygon points="357.66,370.543 357.618,370.952 358.614,370.611 358.822,370.549 358.362,370.249 357.635,369.664 " fill="none" stroke-width="0.5" stroke="rgb(0,0,0)" />
	<polygon points="324.714,368.492 325.762,368.424 325.051,367.959 " fill="none" stroke-width="0.5" stroke="rgb(0,0,0)" />
	<polygon points="117.86,358.004 117.448,360.193 117.015,361.661 120.433,361.352 119.665,360.497 118.998,359.526 117.997,357.498 117.923,357.274 " fill="none" stroke-width="0.5" stroke="rgb(0,0,0)" />
	<polygon points="294.312,359.169 293.913,359.295 294.7,359.879 294.873,360.011 295.617,360.595 295.598,359.76 295.65,358.653 295.658,358.562 " fill="none" stroke-width="0.5" stroke="rgb(0,0,0)" />
	<polygon points="394.154,342.491 393.46,342.99 392.438,343.643 390.429,344.56 389.594,344.808 387.996,344.939 388.826,347.289 389.185,348.85 392.812,345.81 394.707,344.633 396.699,343.758 396.138,343.083 395.96,342.859 395.094,341.736 " fill="none" stroke-width="0.5" stroke="rgb(0,0,0)" />
	<polygon points="59.1614,341.858 61.5056,345.629 61.9088,343.762 62.4306,342.179 63.3423,340.16 62.4709,339.973 61.4051,339.664 58.9364,338.758 58.7737,338.68 " fill="none" stroke-width="0.5" stroke="rgb(0,0,0)" />
	<polygon points="165.539,323.481 165.304,324.816 164.554,327.631 164.092,328.908 162.855,331.588 162.144,332.822 160.429,335.259 159.427,336.424 157.246,338.509 155.93,339.525 154.074,340.668 155.93,341.793 156.874,342.464 159.223,344.41 159.668,344.831 159.647,344.317 159.705,342.534 159.741,341.994 159.92,340.23 160.008,339.61 160.314,337.933 160.495,337.162 160.934,335.639 161.305,334.62 161.884,333.318 162.675,331.933 163.399,330.919 165.084,329.194 165.959,328.536 168.333,327.438 166.509,324.676 165.735,323.176 165.598,322.823 " fill="none" stroke-width="0.5" stroke="rgb(0,0,0)" />
	<polygon points="415.626,333.654 414.062,333.824 414.093,333.995 414.114,334.118 414.338,335.487 414.38,335.784 414.539,337.053 414.588,337.611 414.648,338.74 414.656,339.388 414.647,339.721 414.609,340.297 414.587,340.515 418.173,340.82 418.467,340.871 417.046,338.104 416.002,333.583 " fill="none" stroke-width="0.5" stroke="rgb(0,0,0)" />
	<polygon points="128.437,338.681 128.536,338.641 128.438,338.553 " fill="none" stroke-width="0.5" stroke="rgb(0,0,0)" />
	<polygon points="75.6548,312.228 74.7621,315.651 74.4728,318.329 74.4993,319.269 74.615,320.364 74.8199,321.331 74.9752,321.782 75.3406,321.187 76.2622,319.969 77.6799,318.43 78.8185,317.412 80.5195,316.165 81.7796,315.415 80.9144,314.965 79.626,314.128 78.1969,312.987 77.0684,311.884 76.1664,310.807 " fill="none" stroke-width="0.5" stroke="rgb(0,0,0)" />
	<polygon points="384.542,314.716 383.967,316.291 383.792,317.195 383.598,319.309 383.482,321.273 384.31,318.726 384.845,316.323 385.045,313.917 385.04,313.641 " fill="none" stroke-width="0.5" stroke="rgb(0,0,0)" />
	<polygon points="350.701,321.239 350.782,321.072 350.898,320.855 350.128,320.636 350.046,320.606 " fill="none" stroke-width="0.5" stroke="rgb(0,0,0)" />
	<polygon points="343.269,314.807 342.969,315.112 343.789,315.67 343.402,314.631 " fill="none" stroke-width="0.5" stroke="rgb(0,0,0)" />
	<polygon points="133.122,307.019 133.121,307.289 134.042,307.184 134.222,307.202 134.535,307.274 134.468,307.134 132.901,304.509 " fill="none" stroke-width="0.5" stroke="rgb(0,0,0)" />
	<polygon points="162.585,298.774 161.038,299.14 159.855,299.297 158.367,299.333 158.947,300.223 159.39,300.996 162.157,306.522 162.266,304.474 162.356,303.636 162.848,300.589 163.024,299.776 163.37,298.502 " fill="none" stroke-width="0.5" stroke="rgb(0,0,0)" />
	<polygon points="434.383,295.738 434.446,295.772 434.421,295.688 " fill="none" stroke-width="0.5" stroke="rgb(0,0,0)" />
	<polygon points="458.708,289.844 457.895,290.518 456.877,291.747 459.554,292.178 459.385,291.032 459.109,289.964 459.005,289.707 " fill="none" stroke-width="0.5" stroke="rgb(0,0,0)" />
	<polygon points="86.4128,288.808 86.3812,288.869 87.1727,289.285 87.6942,289.7 87.8555,289.846 88.0294,289 88.3359,285.785 88.3621,285.055 " fill="none" stroke-width="0.5" stroke="rgb(0,0,0)" />
	<polygon points="157.172,228.364 156.935,228.849 157.794,229.808 158.671,233.774 158.611,235.2 158.588,235.553 158.429,237.375 158.413,237.541 158.188,239.612 158.179,239.689 157.922,241.865 157.92,241.883 157.665,243.997 157.45,245.86 157.315,247.233 157.29,247.706 158.219,248.24 160.294,251.716 160.759,253.341 160.908,253.954 161.274,255.765 161.341,256.146 161.632,258.074 161.662,258.287 161.906,260.264 161.915,260.337 162.135,262.264 162.346,263.988 162.357,264.059 162.656,264.154 162.847,264.384 162.922,261.672 164.063,257.698 165.571,254.842 167.378,252.659 166.393,252.876 162.612,251.757 159.842,248.95 158.946,243.338 159.183,242.221 159.385,241.173 159.562,240.133 159.712,239.099 159.832,238.072 159.92,237.051 159.975,236.035 159.991,235.141 159.901,233.303 159.631,231.599 159.143,229.896 158.384,228.14 157.832,227.215 " fill="none" stroke-width="0.5" stroke="rgb(0,0,0)" />
	<polygon points="131.221,252.29 131.883,251.546 131.62,250.461 130.989,248.417 130.459,246.823 " fill="none" stroke-width="0.5" stroke="rgb(0,0,0)" />
	<polygon points="382.144,248.007 381.319,249 380.179,250.12 379.174,250.925 378.725,251.216 378.836,251.352 379.417,250.804 380.293,250.089 381.42,249.297 383.769,248.171 384.164,248.057 382.957,246.796 " fill="none" stroke-width="0.5" stroke="rgb(0,0,0)" />
	<polygon points="327.681,236.412 326.083,236.412 325.344,236.336 327.054,238.27 329.178,241.816 329.77,241.521 330.622,241.192 330.345,240.683 329.743,239.258 329.038,236.997 328.894,236.29 " fill="none" stroke-width="0.5" stroke="rgb(0,0,0)" />
	<polygon points="312.683,226.552 310.825,227.139 310.232,227.263 310.88,227.992 312.931,229.212 314.668,229.966 314.181,229.246 313.535,228.06 312.933,226.636 312.88,226.467 " fill="none" stroke-width="0.5" stroke="rgb(0,0,0)" />
	<polygon points="87.7142,214.164 88.177,214.746 89.011,216.033 89.3672,216.721 89.8584,217.891 90.1102,218.659 90.3757,219.706 90.5253,220.527 90.6122,221.253 90.6358,221.241 92.8295,220.532 93.5584,220.409 95.9675,220.378 96.6113,220.468 98.7318,221.078 99.3435,221.351 99.6182,221.52 99.7013,220.401 99.8761,219.235 100.647,215.844 97.9981,216.135 96.2572,216.134 93.068,215.778 91.2961,215.369 88.4318,214.35 87.3835,213.836 " fill="none" stroke-width="0.5" stroke="rgb(0,0,0)" />
	<polygon points="438.53,213.36 437.919,213.533 432.798,214.763 432.082,214.901 427.949,215.498 428.086,215.587 431.78,218.651 433.009,219.929 433.596,220.697 433.689,220.482 434.445,219.114 436.968,215.46 437.719,214.531 438.953,213.221 " fill="none" stroke-width="0.5" stroke="rgb(0,0,0)" />
	<polygon points="66.6286,216.924 67.9652,218.498 68.2426,218.927 69.0543,217.546 68.1127,217.3 66.755,216.808 66.2252,216.559 " fill="none" stroke-width="0.5" stroke="rgb(0,0,0)" />
	<polygon points="190.097,214.024 191.305,216.425 191.373,216.607 193.271,216.115 193.058,215.708 192.549,215.122 191.745,214.535 190.423,213.925 189.942,213.792 " fill="none" stroke-width="0.5" stroke="rgb(0,0,0)" />
	<polygon points="381.992,201.985 381.31,203.233 380.464,204.481 380.01,205.03 380.536,205.463 380.93,205.857 382.739,203.567 383.585,203.212 382.015,201.931 " fill="none" stroke-width="0.5" stroke="rgb(0,0,0)" />
	<polygon points="368.151,179.88 368.151,180.159 368.605,180.159 367.971,178.133 " fill="none" stroke-width="0.5" stroke="rgb(0,0,0)" />
	<polygon points="146.737,176.058 145.69,176.335 145.659,176.341 146.799,177.431 147.299,175.867 " fill="none" stroke-width="0.5" stroke="rgb(0,0,0)" />
	<polygon points="108.156,164.274 107.121,165.13 105.869,165.977 104.683,166.624 103.259,167.228 101.95,167.638 101.917,167.645 104.733,169.557 105.544,170.189 108.542,172.855 109.35,173.688 111.939,176.781 111.985,176.846 112.604,175.705 113.713,174.149 115.1,172.631 115.849,172.005 115.621,171.839 112.728,169.195 111.629,167.955 109.407,164.844 108.74,163.689 " fill="none" stroke-width="0.5" stroke="rgb(0,0,0)" />
	<polygon points="365.645,171.304 366.124,172.179 365.941,171.431 365.888,171.14 " fill="none" stroke-width="0.5" stroke="rgb(0,0,0)" />
	<polygon points="422.768,145.391 420.026,147.843 418.666,148.821 417.126,149.697 417.249,149.708 418.78,150 425.2,151.897 426.658,152.492 432.178,155.415 430.779,150.536 430.7,147.592 429.945,147.329 428.266,146.591 426.865,145.795 425.505,144.828 424.226,143.646 " fill="none" stroke-width="0.5" stroke="rgb(0,0,0)" />
	<polygon points="355.721,144.803 356.876,144.686 358.458,144.686 359.798,144.821 361.346,145.136 361.68,145.239 357.985,142.007 357.03,141.012 356.181,139.956 " fill="none" stroke-width="0.5" stroke="rgb(0,0,0)" />
	<polygon points="127.163,138.228 127.547,139.374 127.944,141.281 128.062,140.871 128.319,139.835 128.53,138.822 128.693,137.842 128.745,137.419 " fill="none" stroke-width="0.5" stroke="rgb(0,0,0)" />
	<polygon points="313.008,126.108 312.121,126.719 311.394,127.416 310.853,128.132 310.52,128.767 310.145,129.95 309.379,131.176 310.088,131.463 310.907,131.692 311.774,131.83 312.827,131.883 313.059,131.876 313.5,131.842 314.055,131.781 314.695,131.698 315.376,131.606 315.433,131.599 315.257,131.316 315.073,130.961 314.617,129.9 314.488,129.526 314.203,128.47 314.127,128.084 313.995,127.06 313.97,126.667 313.99,125.65 " fill="none" stroke-width="0.5" stroke="rgb(0,0,0)" />
	<polygon points="185.82,111.475 185.566,112.562 185.336,113.306 184.795,114.623 184.458,115.268 183.473,116.733 183.022,117.264 181.515,118.632 180.942,119.031 179.085,119.988 178.38,120.239 176.538,120.657 175.694,120.745 175.289,120.713 175.362,120.862 176.845,124.715 179.424,122.922 180.39,122.347 183.51,120.781 184.745,120.286 187.967,119.301 189.463,118.998 191.82,118.754 187.776,113.978 187.518,113.656 185.826,111.433 " fill="none" stroke-width="0.5" stroke="rgb(0,0,0)" />
	<polygon points="92.8967,115.364 92.3761,115.807 90.1129,117.57 88.9757,118.309 86.6376,119.556 84.4468,120.336 82.0455,120.809 81.4845,120.834 81.6031,122.917 81.614,123.542 81.5884,124.692 82.5901,124.146 84.0157,123.54 85.3246,123.13 86.8838,122.81 88.2869,122.667 89.8876,122.667 91.2927,122.81 92.8498,123.129 94.1607,123.539 94.3338,123.613 93.7515,119.259 93.7306,119.088 93.2756,115.013 " fill="none" stroke-width="0.5" stroke="rgb(0,0,0)" />
	<polygon points="124.929,114.864 125.341,114.381 126.249,113.475 126.286,113.443 126.179,113.346 125.494,112.606 " fill="none" stroke-width="0.5" stroke="rgb(0,0,0)" />
	<polygon points="416.363,105.991 416.344,105.146 416.59,104.675 416.311,104.672 416.157,104.669 414.881,104.632 " fill="none" stroke-width="0.5" stroke="rgb(0,0,0)" />
	<polygon points="393.885,102.892 394.706,103.935 395.291,104.823 396.454,104.442 398.046,103.842 398.895,103.514 398.625,103.485 398.478,103.468 395.051,103.044 394.902,103.024 393.869,102.876 " fill="none" stroke-width="0.5" stroke="rgb(0,0,0)" />
	<polygon points="146.483,104.34 148.408,104.199 146.747,102.864 " fill="none" stroke-width="0.5" stroke="rgb(0,0,0)" />
	<polygon points="383.794,98.1991 384.397,98.2353 384.176,97.913 " fill="none" stroke-width="0.5" stroke="rgb(0,0,0)" />
	<polygon points="66.9531,96.3423 68.7631,97.1769 68.8671,97.2439 68.9338,96.7309 68.9353,96.7195 69.1359,95.1935 " fill="none" stroke-width="0.5" stroke="rgb(0,0,0)" />
	<polygon points="127.393,64.0397 126.666,67.4914 126.557,67.9393 125.711,71.0464 125.459,71.6881 125.715,71.8535 125.974,70.8651 126.236,70.1071 127.104,68.3408 127.474,67.7793 129.084,66.1188 127.571,64.0139 127.441,63.8413 " fill="none" stroke-width="0.5" stroke="rgb(0,0,0)" />
	<polygon points="103.851,62.7806 102.013,64.3545 101.816,64.5174 100.035,65.9453 99.2774,66.4827 97.8865,67.3509 97.9262,67.4891 98.1564,68.571 98.2641,69.3376 98.2999,69.737 99.9901,68.7391 102.048,68.0256 105.159,67.7716 105.045,66.412 105.024,66.0813 104.883,62.6705 104.818,61.9933 " fill="none" stroke-width="0.5" stroke="rgb(0,0,0)" />
	<polygon points="410.824,62.6197 411.276,63.0262 412.895,64.6007 414.604,66.2051 416.279,67.5501 417.88,68.522 419.371,69.0831 421.221,69.3165 421.264,69.3145 421.711,69.2466 421.947,69.1776 421.957,69.0839 421.694,68.2105 420.406,66.8807 417.048,64.8937 412.381,62.9602 410.473,62.3278 " fill="none" stroke-width="0.5" stroke="rgb(0,0,0)" />
	<polygon points="163.582,48.5559 163.604,48.5632 163.587,48.5469 " fill="none" stroke-width="0.5" stroke="rgb(0,0,0)" />
	<polygon points="397.762,39.0043 398.409,40.5589 398.664,41.418 399.477,41.0097 400.442,40.6028 403.414,39.5762 403.931,39.4173 406.532,38.7139 406.363,38.6246 402.145,37.0259 398.215,35.9078 395.723,35.2842 " fill="none" stroke-width="0.5" stroke="rgb(0,0,0)" />
</svg>
