<?xml version="1.0" standalone="no" ?>
<!DOCTYPE svg PUBLIC "-//W3C//DTD SVG 1.1//EN" "http://www.w3.org/Graphics/SVG/1.1/DTD/svg11.dtd">
<svg width="500px" height="500px" xmlns="http://www.w3.org/2000/svg" version="1.1" >
	<polygon points="475.673,81.3272 471.304,86.6475 470.341,87.5527 463.308,92.6371 462.385,93.1683 453.868,96.9591 453.095,97.2318 452.739,97.3262 453.235,97.2748 454.198,97.2654 455.506,97.3754 456.496,97.5572 457.578,97.868 458.65,98.3115 459.523,98.7942 460.288,99.3465 460.374,99.074 462.913,97.1765 465.612,97.0058 468.098,97.5162 469.002,97.7903 471.097,98.6423 472.032,99.1397 473.755,100.299 474.603,101.013 475.673,102.132 475.673,190.942 475.508,191.054 471.383,191.797 468.049,190.978 466.709,190.44 462.139,187.81 461.563,187.425 456.24,183.32 455.863,182.999 450.27,177.755 449.945,177.422 449.152,176.531 451.807,180.171 451.865,180.253 455.935,186.069 458.359,187.496 458.371,187.503 462.433,189.91 462.682,190.068 467.071,193.02 467.488,193.332 471.857,196.963 472.392,197.477 475.673,201.119 475.673,248.001 472.054,253.049 471.99,253.136 469.103,256.991 470.011,256.63 472.942,256.012 474.538,255.93 475.673,256.048 475.673,281.142 474.856,295.706 474.32,296.369 473.903,296.825 470.945,299.699 468.432,300.938 470.547,303.706 471.019,304.448 472.917,308.082 472.355,311.629 468.171,328.141 462.274,345.158 454.647,362.391 451.109,368.873 450.202,368.728 447.47,365.02 446.347,358.535 444.061,354.926 440.516,352.166 435.755,349.779 430.551,347.463 430.041,347.201 425.411,344.487 424.15,343.447 420.878,339.73 419.726,337.486 418.485,332.112 418.374,330.49 418.443,329.727 417.407,330.417 416.143,330.765 415.33,330.92 413.543,331.114 413.362,331.13 411.396,331.273 410.83,331.333 410.883,331.67 411.13,333.059 411.386,334.481 411.4,334.562 411.624,335.931 411.652,336.124 411.81,337.394 411.842,337.758 411.902,338.886 411.908,339.308 411.898,339.642 411.873,340.017 411.839,340.352 411.758,340.877 411.691,341.199 411.486,341.918 411.378,342.213 410.923,343.151 410.893,343.2 411.545,343.122 412.591,343.104 417.939,343.56 418.806,343.71 424.1,345.096 424.969,345.409 430.007,347.755 430.864,348.26 435.442,351.592 436.238,352.31 440.152,356.657 440.808,357.569 443.856,362.959 444.297,363.987 446.275,370.449 446.478,371.479 446.946,376.501 445.279,379.555 434.16,396.37 421.278,412.559 406.625,427.849 398.688,434.668 398.22,434.385 396.805,433.319 396.187,432.771 394.906,431.436 394.444,430.882 393.351,429.367 392.976,428.762 392.127,427.156 391.807,426.418 391.257,424.812 391.022,423.802 390.826,422.286 390.794,421.307 390.823,420.833 390.928,420.071 391.036,419.571 391.308,418.694 391.522,418.173 391.585,418.054 389.1,417.789 388.17,417.602 384.61,416.538 383.882,416.259 380.544,414.679 379.953,414.35 376.955,412.414 376.436,412.031 376.376,411.98 376.499,412.616 376.593,413.597 376.593,417.615 376.592,417.736 376.575,418.459 376.56,418.746 376.503,419.461 376.462,419.822 376.389,420.302 379.384,419.495 380.954,419.678 382.038,419.926 383.671,420.491 384.635,420.941 386.247,421.907 387.088,422.536 388.595,423.924 389.285,424.702 390.602,426.531 391.109,427.405 392.154,429.696 392.467,430.593 393.155,433.367 393.292,434.219 393.54,437.496 393.478,438.774 393.401,439.209 390.188,441.969 371.953,454.652 351.902,465.632 330.01,474.643 320.443,477.372 319.543,476.907 318.661,476.33 316.462,474.544 315.72,473.803 313.994,471.69 313.428,470.834 312.184,468.475 311.805,467.546 311.052,465.023 310.861,464.048 310.608,461.443 310.595,460.609 310.836,456.924 310.914,456.307 311.586,452.743 311.715,452.214 312.738,448.809 312.895,448.361 313.591,446.64 313.496,446.671 312.745,446.855 311.953,446.985 311.61,447.015 311.36,447.74 310.207,451.841 310.158,452.002 308.649,456.765 308.467,457.252 306.433,461.957 305.966,462.808 303.2,466.88 302.089,468.062 298.381,470.927 296.352,471.879 293.327,472.553 295.369,472.531 297.273,472.458 298.593,472.36 299.501,472.255 300.233,472.143 300.928,472.033 301.167,472.001 301.883,471.922 302.27,471.894 303.134,471.864 303.724,471.877 304.594,471.947 305.609,472.132 306.278,472.324 307.468,472.837 307.962,473.128 309.09,474.028 309.435,474.393 310.229,475.494 310.451,475.908 310.863,476.922 310.989,477.361 311.148,478.128 311.204,478.567 311.243,479.061 311.256,479.476 311.194,480.01 306.249,481.42 280.588,485.69 265.428,486.506 264.457,485.398 264.415,485.34 261.735,486.705 252.988,487.176 226.093,485.773 200.983,481.733 177.647,475.302 176.146,474.705 173.229,473.065 170.831,472.374 170.098,472.301 156.068,466.724 136.231,456.238 130.175,452.172 130.578,449.264 131.387,448.419 127.293,448.787 126.277,448.778 124.898,448.628 118.126,444.082 101.749,430.492 87.0955,415.706 74.1673,399.967 73.2163,398.571 73.5323,394.613 73.664,393.797 73.7034,393.636 73.5277,393.869 70.6226,394.762 62.9658,383.518 53.4931,366.604 45.751,349.476 39.7397,332.385 38.4026,327.141 40.2218,321.282 40.515,320.544 44.7116,311.974 44.9749,311.501 46.8341,308.539 45.066,309.778 43.4558,310.531 41.3394,311.104 38.4489,311.045 36.4798,310.425 34.4494,309.194 32.8973,299.344 32.0405,283.764 32.0405,232.978 32.2312,232.65 34.0697,230.191 36.1186,228.562 37.2661,228.057 34.9398,227.785 33.6213,227.45 32.0405,226.816 32.0405,158.829 32.2787,158.299 34.7053,153.867 35.2584,153.052 38.7978,148.784 39.5648,148.034 41.7267,146.322 41.0897,146.315 38.3563,146.059 37.3919,145.875 34.8565,145.135 33.9276,144.762 32.0405,143.783 32.0405,110.976 32.0848,110.944 32.7402,110.537 34.9931,109.361 38.1187,108.832 40.9625,110.233 41.4072,111.072 41.5559,110.296 42.2044,108.079 42.5683,107.167 43.6062,105.151 43.6697,105.052 41.8663,105.757 40.9267,106.025 36.9016,106.768 35.6593,106.844 34.967,106.803 34.2736,106.714 33.6401,106.589 32.8323,106.359 32.268,106.147 32.0405,106.036 32.0405,88.4926 33.0249,87.0048 33.3318,86.588 35.3235,84.1502 34.7627,84.3581 32.6372,84.8677 32.0405,84.8917 32.0405,41.4891 32.9215,40.8439 33.1719,40.6717 37.6319,37.7936 37.7001,37.7504 42.1084,35.0026 43.5584,34.0504 39.6245,33.0767 39.5971,33.0698 35.2977,31.9806 35.0149,31.9003 32.0405,30.9632 32.0405,24.6863 38.4217,24.6373 49.9134,24.5492 61.4051,24.461 61.4051,24.461 72.8968,24.3728 80.3778,24.3154 80.6346,27.8393 79.8306,30.0019 78.6795,31.814 76.5598,33.9744 75.8915,34.5481 72.8946,36.7043 72.6188,36.8895 69.1834,39.0393 69.1756,39.0442 65.8728,41.1028 64.7284,41.9165 66.1292,42.1763 70.7176,42.6548 72.6552,42.8404 72.5267,42.4337 72.4635,42.008 73.1102,38.6543 73.8686,37.3555 75.6782,35.5291 77.6777,34.3368 78.3611,33.9952 81.1879,32.8358 81.3535,32.7711 84.52,31.5984 87.4409,30.4136 89.0177,29.5756 87.9555,29.2181 87.9373,29.212 86.6231,28.7643 85.8395,28.4224 84.9099,27.9211 82.8004,25.7935 82.4478,25.1259 82.3035,24.3006 84.3884,24.2846 95.8801,24.1965 95.8801,24.1965 107.372,24.1083 116.902,24.0352 117.466,24.3256 118.804,24.5181 120.085,24.3349 120.744,24.0057 130.355,23.9319 141.847,23.8438 153.338,23.7556 154.608,23.7458 154.42,24.4822 154.053,25.3012 152.317,27.405 151.348,28.0866 150.555,28.5449 149.185,29.1814 149.07,29.233 147.67,29.8424 146.966,30.2111 147.052,30.3045 148.982,31.7361 151.629,33.3893 154.449,35.0945 154.659,35.2282 156.724,36.6171 156.083,35.4196 155.167,32.8188 155.397,28.8493 156.449,26.692 158.065,24.7741 159.543,23.708 164.83,23.6674 176.322,23.5792 187.814,23.491 205.597,23.3546 205.585,29.3516 205.253,29.5373 201.844,31.1013 201.563,31.2202 200.825,31.5071 201.206,31.4723 201.509,31.4535 203.728,31.3818 203.952,31.3794 205.551,31.3972 205.581,31.3984 205.556,43.9523 205.534,55.1758 204.008,54.9633 203.125,54.7597 200.965,54.0567 203.657,56.8064 203.858,57.0242 205.527,58.9375 205.506,69.7499 205.506,69.7499 205.48,82.6487 205.478,83.8555 205.368,83.8718 204.24,83.9512 203.357,83.9374 199.375,83.5321 198.752,83.4298 194.063,82.3612 193.75,82.2794 189.177,80.9302 192.428,83.0496 192.629,83.187 197.514,86.711 197.659,86.8197 202.462,90.5484 202.599,90.6583 205.46,93.0397 205.429,108.446 205.429,108.446 205.404,121.345 205.399,123.592 204.973,123.684 202.639,123.336 202.858,123.417 204.009,124.019 205.397,124.984 205.353,147.143 205.328,160.041 205.302,172.94 205.29,178.887 204.338,180.085 203.689,180.765 201.547,182.63 200.731,183.212 198.263,184.631 197.296,185.062 194.533,185.965 193.534,186.177 193.916,186.238 196.98,186.988 197.826,187.274 200.589,188.486 201.431,188.954 203.83,190.598 204.625,191.271 205.265,191.934 205.251,198.738 205.226,211.637 205.21,219.69 203.575,221.076 200.631,221.304 200.671,221.329 201.087,221.612 204.154,223.934 204.543,224.26 205.203,224.87 205.288,235.88 205.288,235.918 205.453,246.735 205.454,246.806 205.751,257.112 205.755,257.219 206.121,264.591 204.446,266.82 203.571,268.455 203.374,269.455 203.58,270.51 204.304,271.685 205.879,273.277 206.798,274.052 206.978,276.316 206.998,276.521 208.025,285.094 208.065,285.365 209.445,293.294 209.519,293.645 211.309,300.895 211.44,301.339 213.694,307.878 213.917,308.424 216.691,314.218 217.053,314.854 220.402,319.87 220.945,320.551 224.925,324.755 225.655,325.394 230.321,328.754 231.182,329.255 236.588,331.737 237.473,332.049 243.676,333.618 244.485,333.756 248.875,334.144 248.979,334.361 249.301,335.212 250.215,338.473 250.36,339.179 250.811,342.547 250.853,343.05 250.97,346.387 251.948,343.202 252.327,342.292 256.704,334.082 259.525,333.887 260.339,333.765 266.686,332.287 267.592,331.985 273.088,329.567 273.983,329.061 278.689,325.739 279.453,325.078 283.432,320.889 283.996,320.18 287.309,315.161 287.678,314.5 290.388,308.687 290.61,308.125 292.778,301.556 292.905,301.104 294.593,293.815 294.662,293.464 295.933,285.491 295.969,285.224 296.885,276.604 296.902,276.407 297.424,268.66 298.091,268.355 299.234,267.986 300.315,267.761 301.574,267.638 302.945,267.688 305.221,268.078 305.385,268.132 305.371,268.125 305.19,268.02 300.505,265.185 299.817,264.687 297.698,262.869 297.924,257.233 297.926,257.138 298.149,246.799 298.15,246.743 298.265,235.903 298.265,235.88 298.335,224.577 298.335,224.535 298.331,222.77 298.479,222.624 298.448,222.607 298.331,222.527 298.309,211.636 298.28,197.219 298.444,197.108 300.134,196.178 301.059,195.782 302.672,195.27 302.248,194.983 301.213,194.127 300.523,193.438 299.667,192.402 299.116,191.587 298.469,190.4 298.266,189.921 298.257,185.839 298.247,180.57 298.47,180.045 299.117,178.859 299.668,178.045 300.524,177.01 301.214,176.321 302.249,175.465 303.063,174.914 304.249,174.268 305.177,173.874 306.484,173.465 307.5,173.257 308.9,173.114 309.942,173.114 311.349,173.257 312.361,173.464 313.674,173.873 314.408,174.183 314.416,174.107 314.621,173.097 315.008,171.852 315.399,170.924 316.01,169.798 316.171,169.557 315.34,169.455 314.944,169.39 312.74,168.942 312.386,168.856 310.538,168.342 310.252,168.254 309.244,167.909 309.054,168.388 308.908,168.72 308.409,169.754 307.733,170.805 307.144,171.515 304.678,173.152 303.929,173.38 300.416,173.191 298.931,172.559 298.23,172.105 298.206,160.041 298.154,134.244 298.154,134.244 298.128,121.345 298.111,112.722 299.04,110.686 299.53,109.837 301.416,107.19 302.123,106.388 304.608,104.101 305.52,103.43 308.631,101.634 309.673,101.177 312.075,100.428 312.057,100.38 311.888,99.8431 311.75,99.3023 311.678,98.9776 311.547,98.2763 311.5,97.973 311.297,96.3652 311.077,94.673 310.965,93.9595 310.935,93.9845 308.617,96.0332 308.584,96.0622 306.182,98.1487 306.021,98.2836 303.743,100.104 303.329,100.403 301.342,101.69 300.107,102.275 298.577,102.763 298.091,102.837 298.051,82.6485 298.051,82.6485 298.047,81.0641 298.492,80.1935 298.35,80.1761 298.046,80.1434 298.025,69.7497 298.008,61.6366 298.742,61.0119 298.007,60.6628 297.969,42.1065 298.151,42.0069 298.067,41.8553 297.969,41.7035 297.947,31.0533 297.947,31.0533 297.932,23.2818 304.558,23.2392 308.021,23.2169 310.737,24.6507 310.751,24.072 310.755,23.225 310.755,23.1993 316.311,23.1636 339.817,23.0125 351.571,22.9369 363.324,22.8614 375.077,22.7858 380.598,22.7503 385.054,26.0208 385.873,26.7705 390.929,32.5165 391.578,33.4434 395.35,40.326 395.772,41.3394 397.089,45.7886 398.716,44.4686 400.711,43.4674 401.34,43.2021 404.312,42.1755 404.649,42.0719 408.31,41.0818 408.55,41.023 412.613,40.1309 412.828,40.0885 413.933,39.8947 412.182,38.5885 407.497,36.1135 403.011,34.4129 398.925,33.2508 395.528,32.4005 395.143,32.2882 392.848,31.52 390.621,30.0435 389.793,29.1049 388.53,26.1976 389.639,22.6922 410.337,22.5591 422.09,22.4836 433.843,22.408 443.377,22.3467 444.261,23.4612 445.557,25.7754 445.973,26.9664 446.559,24.8838 446.936,23.9259 447.761,22.3185 457.35,22.2569 469.103,22.1813 475.673,22.1391 " fill="none" stroke-width="0.5" stroke="rgb(0,0,0)" />
	<polygon points="258.31,447.601 257.953,447.644 257.779,447.688 257.619,447.756 257.317,447.938 256.797,448.344 256.042,449.049 255.898,449.202 256.211,449.148 256.537,449.153 256.909,449.173 257.337,449.211 257.918,449.297 258.423,449.401 259.149,449.607 259.704,449.809 260.511,450.186 260.656,450.269 260.541,450.024 260.496,449.922 260.104,449.03 259.803,448.526 259.492,448.13 259.2,447.846 258.963,447.674 258.821,447.601 258.808,447.597 258.728,447.589 " fill="none" stroke-width="0.5" stroke="rgb(0,0,0)" />
	<polygon points="187.665,439.454 187.991,440.092 189.977,444.751 190.226,445.485 191.134,449.008 192.327,449.36 193.888,449.704 195.566,449.974 197.202,450.143 198.604,450.198 200.48,450.095 202.304,449.774 203.988,449.223 205.452,448.447 206.678,447.438 207.697,446.118 208.52,444.311 209.164,441.34 209.946,439.995 209.388,440.077 202.704,440.577 201.917,440.575 195.698,440.086 194.827,439.942 189.63,438.614 188.744,438.298 186.284,437.161 " fill="none" stroke-width="0.5" stroke="rgb(0,0,0)" />
	<polygon points="162.894,403.38 163.028,404.212 163.767,413.715 163.77,414.466 163.45,419.15 163.347,419.879 162.285,424.829 162.039,425.643 160.084,430.583 159.625,431.477 156.626,436.134 155.896,437.029 151.702,441.129 150.718,441.882 145.177,445.15 144.072,445.637 139.873,446.927 140.719,446.981 141.71,447.023 142.681,447.048 143.464,447.054 148.571,446.728 152.709,445.842 156.022,444.491 158.576,442.768 160.491,440.708 161.875,438.25 162.753,435.289 163.083,431.57 163.08,431.295 163.061,430.797 163.032,430.273 162.992,429.731 162.944,429.173 162.889,428.607 162.829,428.034 162.765,427.453 163.404,424.348 165.741,422.205 170.137,422.257 172.24,423.28 172.783,423.586 173.591,424.108 173.402,423.648 173.082,422.503 172.769,420.52 172.726,419.265 172.759,418.897 172.957,417.867 173.053,417.547 173.534,416.439 173.692,416.168 174.463,415.156 174.68,414.934 175.619,414.177 175.893,414.005 176.83,413.541 177.16,413.418 177.987,413.185 178.371,413.111 179.055,413.026 179.241,413.015 176.991,412.327 176.528,412.161 173.744,411.009 173.322,410.812 170.686,409.431 170.283,409.196 167.856,407.628 167.452,407.339 165.295,405.631 164.871,405.255 163.046,403.45 162.86,403.243 " fill="none" stroke-width="0.5" stroke="rgb(0,0,0)" />
	<polygon points="326.307,414.456 325.283,414.923 315.778,418.056 314.689,418.288 310.257,418.741 311.516,419.884 312.288,420.931 312.958,422.157 313.452,423.454 313.661,424.144 313.991,425.597 314.032,425.795 314.292,427.186 314.526,428.178 314.567,428.283 315.155,428.701 315.181,428.72 316.089,429.373 316.412,429.626 317.279,430.361 317.855,430.934 318.588,431.789 319.281,432.831 319.789,433.841 320.211,435.156 321.273,433.814 321.431,433.623 322.153,432.796 322.286,432.649 323.006,431.887 323.191,431.7 323.906,431.015 324.166,430.783 324.875,430.191 325.244,429.91 325.944,429.425 326.474,429.103 327.164,428.74 327.92,428.415 328.598,428.186 329.633,427.953 330.297,427.873 331.496,427.916 331.098,427.549 330.097,426.347 329.096,424.445 328.747,423.203 328.554,421.809 328.554,413.773 328.66,413.053 " fill="none" stroke-width="0.5" stroke="rgb(0,0,0)" />
	<polygon points="242.728,409.503 242.744,409.79 242.769,410.649 242.709,411.592 241.93,416.568 241.491,417.987 239.285,422.617 238.615,423.671 235.176,427.858 234.448,428.583 229.971,432.228 229.252,432.719 225.7,434.725 226.73,434.416 232.119,431.874 236.744,428.721 240.584,425.044 243.623,420.921 245.843,416.417 247.345,411.132 248.011,410.137 247.539,410.182 246.316,410.152 245.379,410.016 244.15,409.679 243.284,409.321 242.687,409.016 " fill="none" stroke-width="0.5" stroke="rgb(0,0,0)" />
	<polygon points="255.785,393.56 255.565,394.221 255.444,394.525 255.514,394.625 255.89,395.261 256.249,395.997 256.522,396.692 256.758,397.467 256.925,398.225 257.033,398.98 257.09,399.803 257.079,400.641 256.984,401.653 256.794,402.631 256.519,403.562 256.136,404.502 255.696,405.336 255.13,406.19 254.543,406.909 253.817,407.636 253.769,407.675 254.166,407.741 257.014,408.849 257.447,409.041 260.307,410.468 260.641,410.651 263.424,412.307 263.703,412.486 266.321,414.282 266.576,414.469 268.94,416.315 269.2,416.532 271.223,418.337 271.526,418.63 272.309,419.454 272.923,419.32 273.149,419.276 274.434,419.054 274.648,419.022 275.982,418.85 276.185,418.827 277.569,418.704 277.76,418.691 279.192,418.616 279.373,418.61 280.854,418.585 281.06,418.586 283.191,418.636 283.422,418.646 285.624,418.796 285.841,418.816 288.122,419.069 288.324,419.095 290.689,419.452 290.876,419.484 293.33,419.948 293.502,419.983 296.052,420.556 296.208,420.593 297.005,420.798 297.129,420.59 297.635,419.913 298.535,418.999 291.085,418.241 290.004,418.012 279.92,414.713 278.898,414.25 270.292,409.157 269.422,408.509 262.321,401.953 261.644,401.191 256.074,393.505 255.884,393.184 " fill="none" stroke-width="0.5" stroke="rgb(0,0,0)" />
	<polygon points="197.365,411.926 195.687,412.725 194.879,413.029 192.951,413.575 192.296,413.716 190.215,414.022 191.057,414.036 195.543,413.211 197.593,411.786 " fill="none" stroke-width="0.5" stroke="rgb(0,0,0)" />
	<polygon points="347.888,394.518 347.413,395.311 342.711,401.768 343.359,401.573 343.962,401.43 347.902,400.745 348.497,400.677 353.004,400.425 353.477,400.42 357.27,400.557 357.681,400.588 361.151,400.993 361.633,401.072 364.725,401.734 365.315,401.897 367.971,402.807 368.715,403.129 369.148,403.358 368.995,402.997 368.547,401.227 368.796,397.962 369.25,396.884 368.006,397.354 362.81,398.518 360.532,398.512 359.382,398.248 357.632,397.483 356.555,396.748 355.581,395.885 354.602,394.766 354.071,394.038 353.214,392.621 352.9,392.013 352.191,390.383 351.988,389.835 351.451,388.08 351.316,387.532 351.3,387.449 " fill="none" stroke-width="0.5" stroke="rgb(0,0,0)" />
	<polygon points="226.051,383.611 217.783,386.042 216.785,386.231 206.969,387.103 205.949,387.092 197.752,386.187 197.135,386.05 199.235,388.885 199.623,389.493 201.46,392.879 201.779,393.588 202.92,396.753 203.172,397.756 203.564,400.442 203.583,401.679 204.778,399.176 205.159,398.509 207.98,394.339 209.167,393.096 213.122,390.147 215.206,389.222 220.891,388.103 222.28,388.021 223.325,388.102 223.922,388.183 225.17,388.427 225.647,388.545 227.022,388.953 227.1,388.98 227.065,388.872 226.944,388.421 226.726,387.433 226.621,386.739 226.538,385.719 226.539,384.878 226.627,383.811 226.709,383.338 " fill="none" stroke-width="0.5" stroke="rgb(0,0,0)" />
	<polygon points="311.27,391.031 311.014,391.125 308.258,392.053 307.873,392.166 304.661,392.975 304.189,393.071 300.481,393.643 299.958,393.697 295.717,393.914 295.093,393.908 291.58,393.661 290.881,393.564 287.491,392.852 286.806,392.658 283.645,391.52 282.945,391.208 282.873,391.169 285.916,393.363 291.22,395.884 297.325,397.535 304.304,398.14 307.748,397.997 310.849,397.588 313.43,396.977 314.072,396.74 313.868,396.594 311.946,393.919 311.691,393.087 311.559,390.917 " fill="none" stroke-width="0.5" stroke="rgb(0,0,0)" />
	<polygon points="119.555,351.348 117.772,352.598 116.996,353.047 115.201,353.886 115.217,354.128 115.245,356.482 115.157,357.496 114.746,359.685 114.45,360.686 113.634,362.679 113.14,363.602 111.955,365.363 111.644,365.738 115.621,364.633 116.536,364.466 120.787,364.081 121.816,364.091 129.492,364.939 130.616,365.192 137.699,367.652 138.726,368.141 145.084,372.087 145.945,372.757 151.445,378.064 152.11,378.848 155.504,383.774 155.16,381.789 154.513,379.098 153.527,376.789 152.112,374.6 150.214,372.522 147.767,370.564 144.71,368.765 140.996,367.172 136.423,365.789 132.734,364.786 132.472,364.707 129.52,363.733 129.132,363.588 126.892,362.643 126.322,362.36 124.701,361.426 123.916,360.869 122.819,359.927 121.931,358.939 121.264,357.968 120.611,356.646 120.28,355.63 120.044,354.459 119.955,353.377 120.013,352.072 120.239,350.771 " fill="none" stroke-width="0.5" stroke="rgb(0,0,0)" />
	<polygon points="245.504,366.965 244.983,367.832 240.917,373.298 240.18,374.096 238.522,375.55 239.179,375.706 240.207,376.086 241.288,376.637 242.173,377.229 243.018,377.937 243.761,378.709 244.356,379.453 244.5,379.672 244.684,379.654 245.251,379.629 245.995,379.65 247.241,379.775 248.302,379.996 249.408,380.352 250.415,380.8 250.602,380.908 248.837,374.394 248.678,373.507 247.863,364.42 247.869,363.442 248.056,361.587 " fill="none" stroke-width="0.5" stroke="rgb(0,0,0)" />
	<polygon points="77.3141,367.638 78.1635,369.786 79.4177,378.068 79.2217,380.195 79.6524,379.592 82.0405,376.723 82.5733,376.172 85.0819,373.937 85.7499,373.433 88.2292,371.861 89.1448,371.402 91.4451,370.521 91.667,370.509 91.0798,370.25 89.3625,369.285 88.5453,368.716 87.0596,367.45 86.3835,366.754 85.1487,365.216 84.7877,364.673 84.5312,364.73 84.3052,364.775 83.4854,364.919 83.2669,364.953 82.4254,365.064 81.8062,365.108 79.4927,365.132 78.4698,365.041 76.2715,364.62 75.3112,364.337 74.9397,364.187 " fill="none" stroke-width="0.5" stroke="rgb(0,0,0)" />
	<polygon points="101.055,371.594 100.196,371.708 97.8994,371.817 96.9876,371.779 96.7803,371.752 97.2749,372.071 98.3837,376.068 98.3722,376.148 98.8306,375.366 99.4526,374.518 102.18,371.501 102.402,371.298 " fill="none" stroke-width="0.5" stroke="rgb(0,0,0)" />
	<polygon points="167.912,364.542 167.977,364.755 168.964,368.274 168.981,368.336 169.837,371.54 170.587,374.088 171.145,375.511 171.165,375.539 171.383,375.604 171.715,375.676 172.082,375.73 172.45,375.76 172.823,375.771 173.315,375.765 173.852,375.747 174.399,375.721 174.955,375.69 175.509,375.657 175.535,375.655 176.069,375.626 176.14,375.623 176.645,375.602 176.769,375.599 177.244,375.591 177.45,375.603 175.125,373.577 174.493,372.919 169.867,367.156 169.366,366.407 167.267,362.575 " fill="none" stroke-width="0.5" stroke="rgb(0,0,0)" />
	<polygon points="354.237,361.812 353.574,362.608 351.38,364.757 351.082,364.991 352.894,365.615 354.72,368.206 354.925,370.261 354.362,375.72 354.521,375.588 355.478,374.943 356.156,374.557 357.404,373.966 357.937,373.75 359.505,373.212 359.908,373.093 361.646,372.652 367.126,370.83 366.866,370.807 365.908,370.628 363.773,370.016 362.83,369.641 360.955,368.673 360.087,368.108 358.496,366.826 357.755,366.094 356.474,364.543 355.899,363.682 354.953,361.904 354.659,361.188 " fill="none" stroke-width="0.5" stroke="rgb(0,0,0)" />
	<polygon points="323.761,364.24 323.408,365.144 322.693,366.565 322.164,367.404 321.198,368.651 320.497,369.391 319.301,370.425 318.444,371.027 318.072,371.234 320.56,371.393 323.553,371.323 327.165,371.088 331.061,370.668 335.009,370.046 338.525,369.268 338.154,369.272 334.933,368.99 333.989,368.818 331.048,367.992 330.09,367.616 327.473,366.275 326.57,365.685 324.326,363.856 323.972,363.499 " fill="none" stroke-width="0.5" stroke="rgb(0,0,0)" />
	<polygon points="297.776,354.13 294.589,356.048 293.484,356.547 288.979,357.969 288.907,357.991 284.055,359.445 279.816,361.328 276.6,363.941 274.365,367.904 274.034,370.161 274.631,369.652 274.93,369.452 276.055,368.887 276.395,368.766 277.569,368.496 277.944,368.455 278.397,368.447 278.446,367.968 278.515,367.5 278.755,366.275 278.945,365.571 279.34,364.436 279.84,363.394 280.429,362.454 281.627,361.127 282.449,360.486 284.525,359.515 285.619,359.279 288.5,359.484 289.917,360.01 291.193,360.702 293.061,362.087 293.174,362.174 295.532,364.026 298.441,366.008 300.239,366.954 300.127,366.777 299.455,365.446 299.103,364.55 298.684,363.097 298.505,362.152 298.361,360.615 298.345,359.89 298.397,358.784 298.432,358.379 298.571,357.289 298.613,357.014 298.809,355.94 298.837,355.795 299.062,354.737 299.065,354.721 299.277,353.739 299.436,352.906 299.527,352.245 299.537,352.056 " fill="none" stroke-width="0.5" stroke="rgb(0,0,0)" />
	<polygon points="150.814,292.776 150.906,292.912 156.642,301.724 156.931,302.227 160.988,310.33 161.423,311.574 162.962,318.879 163.052,320.397 162.8,323.237 162.647,324.108 161.896,326.923 161.596,327.755 160.358,330.435 159.895,331.24 158.18,333.677 157.527,334.436 155.346,336.521 154.488,337.184 151.851,338.807 150.817,339.295 147.735,340.349 146.615,340.597 146.581,340.601 148.086,340.994 148.767,341.224 151.358,342.305 152.044,342.654 154.504,344.145 155.12,344.582 157.469,346.528 157.967,347 160.226,349.445 160.599,349.897 162.788,352.887 163.124,353.411 164.334,355.569 163.393,352.707 163.168,351.681 162.426,345.158 162.395,344.407 162.454,342.624 162.477,342.272 162.656,340.508 162.714,340.104 163.02,338.426 163.137,337.924 163.577,336.4 163.818,335.736 164.397,334.434 164.913,333.531 165.637,332.518 166.735,331.393 167.611,330.735 169.565,329.831 170.599,329.597 172.267,329.497 173.175,329.591 173.268,329.611 172.981,329.317 172.369,328.557 168.804,323.16 168.299,322.183 165.999,316.248 165.694,315.045 164.879,308.711 164.844,307.779 165.012,304.621 165.071,304.074 165.563,301.027 165.678,300.497 166.473,297.573 166.638,297.069 167.716,294.28 167.926,293.808 169.265,291.166 169.514,290.73 169.653,290.511 168.929,291.449 168.385,292.05 167.306,293.067 166.766,293.512 165.548,294.382 164.96,294.745 163.679,295.422 162.956,295.736 161.686,296.175 160.678,296.414 159.495,296.57 158.392,296.597 158.035,296.567 157.166,296.419 156.76,296.314 155.895,296.004 155.448,295.797 154.669,295.351 154.19,295.018 153.551,294.493 153.051,294.009 152.564,293.468 152.051,292.808 151.7,292.295 151.184,291.434 150.938,290.974 150.581,290.214 150.31,289.8 149.519,288.968 148.12,287.687 146.437,286.206 146.379,286.154 145.886,285.706 " fill="none" stroke-width="0.5" stroke="rgb(0,0,0)" />
	<polygon points="386.155,307.063 385.089,308.255 383.979,309.825 382.926,311.664 381.998,313.664 381.309,315.554 381.066,316.806 380.856,319.102 380.68,322.08 380.492,325.265 380.481,325.409 380.219,328.414 380.174,328.781 379.77,331.302 379.541,332.203 378.928,333.939 377.446,335.925 378.926,336.983 379.659,337.619 382.145,340.229 382.788,341.058 384.618,343.996 385.103,345.004 386.232,348.204 386.493,349.337 386.879,352.734 386.892,353.776 386.745,355.404 389.38,352.36 389.967,351.782 394.579,347.918 395.814,347.151 401.478,344.661 401.049,344.371 399.92,343.283 399.531,342.864 398.254,341.326 398.138,341.18 396.788,339.429 395.499,337.777 395.492,337.769 394.944,338.243 393.734,339.295 393.58,339.425 392.432,340.347 391.979,340.673 390.957,341.326 389.648,341.924 388.812,342.171 386.709,342.344 386.522,342.32 385.279,342.004 385.11,341.938 384.058,341.376 383.909,341.273 383.1,340.577 382.974,340.444 382.387,339.694 382.285,339.536 381.879,338.771 381.804,338.595 381.542,337.811 381.496,337.624 381.362,336.81 381.346,336.616 381.394,335.378 381.672,333.643 381.883,332.795 382.616,330.646 382.733,330.337 383.769,327.837 383.788,327.791 384.949,325.066 386.054,322.257 386.966,319.451 387.57,316.738 387.797,314.006 387.771,312.606 387.659,310.807 387.433,308.985 387.087,307.368 386.791,306.536 " fill="none" stroke-width="0.5" stroke="rgb(0,0,0)" />
	<polygon points="55.6497,335.781 56.5052,342.794 60.0937,348.566 64.518,352.944 64.1451,351.319 64.0149,350.22 63.9896,347.758 64.1054,346.618 64.5968,344.343 64.937,343.311 65.8654,341.254 66.3642,340.386 67.6501,338.58 67.9969,338.176 66.37,337.976 65.9181,337.9 63.0478,337.284 62.353,337.083 59.8843,336.176 59.0118,335.759 56.871,334.476 56.2256,333.992 " fill="none" stroke-width="0.5" stroke="rgb(0,0,0)" />
	<polygon points="320.784,336.517 320.074,337.748 319.389,338.627 318.473,339.54 317.59,340.221 316.68,340.783 315.641,341.284 314.851,341.588 313.699,341.926 313.044,342.072 311.822,342.263 311.275,342.318 310.026,342.378 309.662,342.382 310.613,342.62 311.447,342.907 314.342,344.189 315.144,344.634 317.606,346.301 318.205,346.795 318.363,345.023 318.477,344.314 319.126,341.521 319.246,341.09 320.164,338.275 320.233,338.077 321.141,335.633 " fill="none" stroke-width="0.5" stroke="rgb(0,0,0)" />
	<polygon points="123.721,321.588 122.916,322.187 120.987,323.35 120.018,323.805 117.883,324.546 117.8,324.565 119.296,325.591 120.037,326.209 121.58,327.763 122.19,328.504 123.436,330.343 123.905,331.201 124.797,333.28 125.101,334.241 125.584,336.517 125.696,337.633 125.676,339.872 125.569,340.87 125.132,342.977 124.875,343.8 126.3,342.798 127.013,342.378 128.993,341.415 129.643,341.153 131.822,340.44 132.445,340.279 134.734,339.836 135.373,339.754 135.689,339.733 135.18,339.569 134.184,339.126 131.876,337.791 131.025,337.176 129.119,335.474 128.446,334.746 126.949,332.775 126.451,331.976 125.372,329.831 125.032,328.97 124.378,326.749 124.195,325.807 123.975,323.605 123.967,322.668 124.084,321.258 " fill="none" stroke-width="0.5" stroke="rgb(0,0,0)" />
	<polygon points="219.379,340.272 220.136,339.587 220.216,339.462 220.186,339.351 219.69,338.776 " fill="none" stroke-width="0.5" stroke="rgb(0,0,0)" />
	<polygon points="321.283,324.539 319.983,325.425 319.151,325.823 319.831,326.61 320.438,327.5 321.018,328.629 321.346,329.524 321.628,330.72 321.727,331.594 321.723,332.777 321.566,334.099 321.241,335.365 321.284,335.25 322.297,332.518 323.112,329.997 323.631,327.728 323.819,325.577 323.796,324.992 323.715,324.303 323.576,323.632 323.375,322.964 323.1,322.285 323.068,322.223 " fill="none" stroke-width="0.5" stroke="rgb(0,0,0)" />
	<polygon points="355.858,333.215 356.133,332.571 355.717,332.459 355.598,332.418 355.431,332.345 " fill="none" stroke-width="0.5" stroke="rgb(0,0,0)" />
	<polygon points="203.999,321.264 204.198,323.501 204.792,325.651 205.74,327.599 207.022,329.33 208.626,330.82 209.192,331.179 208.328,330.372 207.425,329.254 205.584,326.18 204.932,324.432 204.233,320.487 204.196,319.738 " fill="none" stroke-width="0.5" stroke="rgb(0,0,0)" />
	<polygon points="365.089,329.698 363.666,330.551 363.613,330.582 365.666,330.864 366.25,330.989 366.23,330.917 365.834,329.261 " fill="none" stroke-width="0.5" stroke="rgb(0,0,0)" />
	<polygon points="74.5991,307.043 73.0253,311.413 72.0498,315.154 71.7187,318.22 71.7534,319.452 71.8951,320.795 72.1647,322.066 72.6025,323.338 73.275,324.688 74.2731,326.177 75.3558,327.444 75.3861,327.333 76.147,325.308 76.5795,324.424 77.6839,322.626 78.2846,321.832 79.7024,320.294 80.4446,319.63 82.1457,318.383 82.9908,317.88 84.9451,316.956 85.8472,316.629 88.0246,316.062 88.9836,315.907 91.4174,315.746 92.4643,315.784 94.7114,316.096 95.7282,316.344 97.7705,317.07 98.6775,317.496 100.497,318.578 101.254,319.126 102.546,320.255 101.903,319.486 100.892,317.99 100.443,317.176 99.7508,315.601 99.4746,314.798 99.0775,313.235 98.9384,312.413 98.9032,312.008 97.3833,312.883 96.3373,313.34 93.8228,314.119 92.788,314.326 90.1003,314.583 89.114,314.582 87.356,314.412 86.3913,314.224 84.6876,313.72 83.7757,313.353 82.1817,312.525 81.3418,311.979 79.9127,310.838 79.177,310.119 77.9683,308.675 77.3807,307.807 76.4477,306.071 76.049,305.105 75.7935,304.248 " fill="none" stroke-width="0.5" stroke="rgb(0,0,0)" />
	<polygon points="369.8,299.372 366.4,300.728 365.966,300.879 361.896,302.095 361.608,302.172 357.268,303.2 357.034,303.249 352.822,304.042 352.576,304.082 348.892,304.592 348.522,304.63 345.763,304.81 344.961,304.8 344.368,304.746 343.578,304.589 343.652,304.971 343.73,306.373 343.629,307.618 343.45,308.609 343.136,309.715 342.661,310.849 342.118,311.807 341.309,312.878 340.519,313.68 339.52,314.471 338.468,315.109 337.729,315.458 339.983,316.492 340.736,316.918 345.596,320.23 346.275,320.784 350.293,324.67 350.873,325.337 351.89,326.732 351.923,325.989 352.141,325.003 352.453,324.046 353.028,322.736 353.206,322.371 354.018,320.856 354.105,320.7 355.037,319.098 355.052,319.073 355.039,319.07 352.947,318.573 352.728,318.516 350.88,317.991 350.154,317.724 348.847,317.129 346.755,315.385 346.259,314.672 345.336,311.64 345.804,309.583 346.007,309.139 347.677,307.108 348.249,306.695 349.21,306.149 350.094,305.765 350.603,305.576 351.741,305.219 352.038,305.135 353.372,304.803 353.556,304.761 355.029,304.451 355.146,304.428 356.701,304.138 356.77,304.125 358.202,303.879 361.31,303.154 364.529,302.067 367.729,300.631 370.368,299.085 " fill="none" stroke-width="0.5" stroke="rgb(0,0,0)" />
	<polygon points="103.435,321.129 104.754,322.747 104.82,322.843 105.21,322.728 105.417,322.674 104.828,322.312 103.926,321.609 103.43,321.124 " fill="none" stroke-width="0.5" stroke="rgb(0,0,0)" />
	<polygon points="128.254,294.086 128.364,294.494 129.75,300.602 129.857,301.29 130.383,307.26 130.379,308.206 130.149,310.588 130.091,310.891 131.185,310.32 131.664,310.161 133.78,309.922 133.96,309.939 135.273,310.242 135.423,310.298 136.914,311.164 137.035,311.265 138.111,312.5 138.205,312.652 138.717,313.738 138.787,313.947 138.977,314.698 139.025,314.971 139.085,315.45 139.112,315.792 139.127,316.093 139.132,316.318 139.16,316.606 139.181,316.683 139.231,316.785 139.291,316.866 139.346,316.916 139.417,316.957 139.577,317.009 139.954,317.046 140.292,317.015 140.512,316.952 140.633,316.889 140.702,316.833 140.754,316.769 140.805,316.672 140.84,316.552 139.869,312.008 136.892,305.83 132.293,298.123 126.885,289.252 126.771,289.056 126.532,288.623 " fill="none" stroke-width="0.5" stroke="rgb(0,0,0)" />
	<polygon points="400.759,302.639 401.347,304.478 402.359,306.508 403.751,308.6 405.442,310.639 407.34,312.526 409.336,314.171 411.465,315.598 412.456,316.205 413.375,316.714 411.616,313.582 409.465,310.092 406.999,306.823 404.32,304.239 401.59,302.658 400.743,302.498 " fill="none" stroke-width="0.5" stroke="rgb(0,0,0)" />
	<polygon points="438.413,309.625 437.416,310.456 437.227,310.576 436.342,311.027 436.104,311.121 435.424,311.335 435.137,311.405 434.641,311.499 434.304,311.545 433.949,311.582 433.564,311.609 433.309,311.62 432.875,311.628 432.626,311.627 431.856,311.605 431.647,311.594 430.801,311.535 430.685,311.525 429.782,311.442 429.734,311.437 428.799,311.342 427.879,311.249 427.042,311.175 427.013,312.776 427.008,312.943 426.917,314.745 426.868,315.24 426.785,315.801 428.15,315.066 429.097,314.671 431.254,314.016 432.25,313.818 434.554,313.593 435.24,313.573 437.282,313.646 437.684,313.677 438.364,313.755 438.303,312.509 438.314,311.85 438.497,309.535 " fill="none" stroke-width="0.5" stroke="rgb(0,0,0)" />
	<polygon points="311.965,302.631 311.273,303.189 306.683,306.272 305.744,306.771 302.781,307.971 304.196,307.828 304.933,307.806 307.746,307.925 308.19,307.963 310.829,308.304 311.301,308.388 313.704,308.93 314.238,309.081 316.343,309.801 316.979,310.069 316.185,309.06 315.539,307.996 314.665,306.064 314.262,304.683 313.946,302.508 313.928,301.162 313.983,300.697 " fill="none" stroke-width="0.5" stroke="rgb(0,0,0)" />
	<polygon points="434.813,289.785 434.308,290.919 433.636,292.042 433.408,292.389 432.457,293.72 432.389,293.813 431.319,295.242 430.326,296.607 430.317,296.62 430.327,296.626 432.098,297.63 434.022,298.668 434.142,298.735 435.847,299.715 436.331,300.03 437.515,300.901 438.969,302.552 439.376,303.287 439.702,304.947 440.471,303.211 440.712,302.78 439.794,302.251 438.683,300.286 436.72,293.79 435.061,288.979 " fill="none" stroke-width="0.5" stroke="rgb(0,0,0)" />
	<polygon points="108.217,291.993 108.206,292.331 107.929,296.538 107.82,297.306 107.027,300.907 106.936,301.196 108.192,301.291 108.476,301.449 110.461,303.427 110.608,303.69 110.633,303.603 110.784,302.527 110.838,301.149 110.518,296.478 109.668,292.028 108.414,287.557 108.217,286.955 " fill="none" stroke-width="0.5" stroke="rgb(0,0,0)" />
	<polygon points="458.472,286.924 457.229,287.498 455.941,288.565 454.54,290.258 453.063,292.541 451.848,294.695 452.074,294.647 454.782,294.371 456.122,294.411 459.311,294.924 460.778,295.394 462.482,296.238 462.318,294.984 462.318,294.984 462.318,294.982 462.314,294.955 462.34,294.833 462.342,294.816 462.352,294.724 462.362,294.566 462.37,294.346 462.375,294.071 462.377,293.746 462.377,293.504 462.302,291.967 462.085,290.486 461.725,289.098 461.263,287.96 460.792,287.204 460.448,286.861 460.272,286.767 459.953,286.716 " fill="none" stroke-width="0.5" stroke="rgb(0,0,0)" />
	<polygon points="337.59,293.822 338.676,295.311 338.757,295.07 339.093,294.323 339.256,293.993 339.584,293.385 338.871,293.335 337.257,293.303 " fill="none" stroke-width="0.5" stroke="rgb(0,0,0)" />
	<polygon points="89.3528,276.901 89.2843,277.044 86.3707,282.921 86.3269,283.007 83.9717,287.542 82.4866,290.408 83.2423,290.386 83.7583,290.543 85.4614,291.438 85.9829,291.852 86.4825,292.306 87.0475,292.891 87.5416,293.402 87.8436,293.664 87.9781,293.749 88.0295,293.768 88.1539,293.782 89.1541,293.644 89.4106,293.507 89.7214,293.13 90.2546,291.832 90.7529,289.409 91.0812,285.964 91.2374,281.613 91.2744,276.403 91.2816,276.164 91.4924,272.228 " fill="none" stroke-width="0.5" stroke="rgb(0,0,0)" />
	<polygon points="375.594,293.611 375.715,293.385 376.018,291.672 375.842,290.236 " fill="none" stroke-width="0.5" stroke="rgb(0,0,0)" />
	<polygon points="54.156,274.165 53.8959,275.37 53.8833,276.726 54.1846,278.156 55.0002,279.9 55.3263,280.415 55.7981,281.143 55.8321,281.196 56.2772,281.902 56.3828,282.077 56.7743,282.756 56.9453,283.078 57.271,283.749 57.4781,284.238 57.7258,284.919 57.9137,285.563 58.0713,286.273 58.1802,287.014 58.2354,287.771 58.1869,288.944 57.8457,291.12 57.6177,292.026 57.2174,293.168 58.7576,290.925 61.2616,286.316 62.0682,282.804 62.0264,282.523 61.9555,282.255 61.8594,282.012 61.7225,281.76 61.5176,281.47 61.2129,281.126 60.6132,280.571 60.6012,280.56 58.6792,278.769 58.3741,278.46 56.8601,276.79 56.67,276.568 55.4472,275.054 55.4202,275.021 54.4782,273.835 54.3582,273.703 " fill="none" stroke-width="0.5" stroke="rgb(0,0,0)" />
	<polygon points="157.076,223.059 156.979,223.232 155.78,225.267 154.741,227.075 154.014,228.566 153.747,229.372 154.134,229.534 155.924,233.657 155.863,235.084 155.848,235.314 155.689,237.136 155.679,237.244 155.454,239.316 155.448,239.366 155.191,241.542 155.189,241.553 154.933,243.675 154.715,245.568 154.572,247.026 154.529,247.833 154.565,248.991 154.599,249.276 156.717,250.67 157.65,252.473 158.115,254.098 158.213,254.498 158.578,256.308 158.622,256.557 158.913,258.485 158.932,258.624 159.177,260.602 159.182,260.649 159.404,262.587 159.621,264.362 159.848,265.85 159.913,266.156 161.704,266.847 163.255,268.964 163.796,270.341 164.364,271.778 164.955,273.183 165.574,274.505 166.215,275.685 166.857,276.661 167.459,277.381 168.322,278.142 168.567,278.354 168.93,278.7 169.2,278.984 169.491,279.318 169.754,279.646 170.012,279.999 170.254,280.362 170.498,280.765 170.708,281.152 170.944,281.646 171.109,282.047 171.324,282.68 171.432,283.085 171.584,283.917 171.623,284.316 171.57,285.704 171.362,286.893 170.918,288.262 170.378,289.371 171.093,288.247 171.375,287.848 173.175,285.536 173.485,285.174 175.485,283.046 177.482,281.945 175.75,280.77 175.228,280.364 171.114,276.719 170.3,275.804 167.39,271.618 166.598,269.827 165.494,265.001 165.565,262.431 166.706,258.457 167.689,256.595 170.698,252.96 171.421,252.244 175.676,248.793 175.963,248.576 180.805,245.18 185.432,241.819 189.06,238.562 191.157,235.599 191.904,232.434 191.903,232.399 191.819,231.663 191.667,230.778 191.45,229.809 191.172,228.807 190.842,227.821 190.473,226.899 190.065,226.053 189.645,229.398 189.322,230.655 187.974,234.049 187.431,235.067 185.396,238.027 184.808,238.737 182.257,241.308 181.741,241.762 178.845,243.99 178.447,244.268 175.379,246.197 175.106,246.357 172.038,248.033 171.897,248.107 169.001,249.575 165.869,250.068 163.042,248.633 161.591,245.815 161.636,243.91 161.879,242.767 162.091,241.665 162.279,240.561 162.439,239.456 162.568,238.35 162.664,237.243 162.724,236.133 162.743,235.098 162.64,233.019 162.321,231.003 161.738,228.968 160.837,226.883 159.544,224.72 157.771,222.462 157.529,222.219 " fill="none" stroke-width="0.5" stroke="rgb(0,0,0)" />
	<polygon points="420.526,263.657 420.07,264.993 419.916,265.392 419.272,266.867 419.194,267.037 418.455,268.574 418.445,268.594 418.404,268.678 419.845,268.997 420.076,269.053 421.7,269.491 422.414,269.741 423.563,270.24 425.667,271.924 426.103,272.52 427.095,275.531 426.484,277.992 426.017,278.863 423.909,280.97 422.635,281.652 421.645,282.057 419.754,282.608 419.351,282.708 417.033,283.185 416.908,283.209 414.383,283.664 411.934,284.136 409.851,284.643 408.198,285.23 406.844,285.859 405.662,286.516 404.756,287.135 404.228,287.595 405.253,287.675 406.653,287.704 410.343,287.467 413.655,286.857 416.71,285.975 419.49,284.936 421.991,283.853 424.164,282.866 424.345,282.788 426.085,282.076 426.94,281.81 428.18,281.54 429.707,281.44 429.894,281.456 430.813,281.618 430.982,281.664 431.937,282.028 432.085,282.102 432.481,282.356 432.254,281.788 429.663,276.323 426.797,271.285 423.629,266.721 420.628,263.242 " fill="none" stroke-width="0.5" stroke="rgb(0,0,0)" />
	<polygon points="391.579,268.859 391.578,268.864 390.984,271.362 390.495,273.688 390.175,275.794 390.061,277.707 390.11,278.872 390.262,280.022 390.5,280.993 390.668,281.419 391,280.939 391.515,279.866 391.948,278.525 392.235,277.006 392.344,275.28 392.298,273.045 392.169,270.833 391.985,268.752 391.864,267.657 " fill="none" stroke-width="0.5" stroke="rgb(0,0,0)" />
	<polygon points="341.934,271.16 339.171,272.704 337.972,273.996 337.54,275.699 337.587,276.056 337.72,276.353 337.93,276.597 338.391,276.918 339.168,277.256 340.194,277.528 341.338,277.691 342.109,277.725 342.108,277.709 342.048,277.106 341.984,276.491 341.98,276.452 341.924,275.862 341.914,275.748 341.874,275.203 341.863,274.986 341.848,274.497 341.868,273.861 341.892,273.598 342.064,272.673 342.136,272.419 342.474,271.541 342.591,271.304 342.917,270.775 " fill="none" stroke-width="0.5" stroke="rgb(0,0,0)" />
	<polygon points="133.228,217.246 129.105,218.551 126.981,219.509 129.647,220.357 131.532,222.905 131.231,226.899 130.095,229.111 129.255,231.237 128.576,233.481 128.053,235.778 127.675,238.06 127.428,240.257 127.295,242.3 127.262,243.815 128.665,253.869 132.39,263.752 137.849,273.658 140.137,277.125 139.988,275.471 140.689,274.079 140.698,274.047 140.697,274.044 140.687,274.041 140.693,274.022 140.594,273.46 140.109,272.372 139.089,270.671 137.731,268.586 137.658,268.471 136.248,266.175 136.037,265.795 134.807,263.352 134.522,262.666 133.652,260.059 133.423,259.034 133.093,256.247 133.708,253.137 134.749,252.099 134.672,251.381 134.273,249.731 133.608,247.577 132.79,245.121 132.778,245.084 131.943,242.51 131.888,242.331 131.159,239.774 131.072,239.419 130.556,236.961 130.465,236.344 130.27,234.067 130.984,230.979 133.372,228.893 133.525,228.86 133.596,227.961 133.618,227.745 133.918,225.278 133.96,224.997 134.42,222.419 134.496,222.065 135.153,219.453 135.284,219.017 136.094,216.689 " fill="none" stroke-width="0.5" stroke="rgb(0,0,0)" />
	<polygon points="311.835,272.012 313.487,273.679 313.605,273.802 314.965,275.268 314.827,274.723 313.188,272.833 311.453,271.668 " fill="none" stroke-width="0.5" stroke="rgb(0,0,0)" />
	<polygon points="350.867,267.745 350.431,267.93 350.077,268.061 351.96,268.625 352.945,269.036 353.086,269.113 353.188,266.632 " fill="none" stroke-width="0.5" stroke="rgb(0,0,0)" />
	<polygon points="358.415,246.19 357.598,246.742 355.547,247.856 354.619,248.248 352.462,248.92 352.553,248.955 354.978,249.551 358.093,249.81 361.018,251.032 362.673,253.736 362.298,257.194 360.555,260.781 359.983,261.505 360.766,261.424 361.024,261.404 362.007,261.352 362.171,261.346 363.08,261.327 363.17,261.326 363.847,261.323 363.846,261.301 363.845,261.287 363.78,260.305 363.777,260.257 363.721,259.261 363.717,259.179 363.677,258.194 363.673,258.068 363.658,257.122 363.658,256.969 363.667,256.331 363.672,256.15 363.701,255.557 363.721,255.295 363.775,254.76 363.828,254.374 363.911,253.908 364.052,253.318 364.168,252.935 364.55,252.009 364.703,251.72 365.737,250.372 365.933,250.189 366.036,250.132 365.471,249.897 364.353,249.299 363.532,248.753 362.543,247.948 361.836,247.25 361.008,246.257 360.44,245.421 360.102,244.799 " fill="none" stroke-width="0.5" stroke="rgb(0,0,0)" />
	<polygon points="444.936,250.894 446.112,253.81 446.115,253.815 447.468,257.18 447.495,257.247 448.614,260.149 449.365,258.734 449.429,258.617 451.111,255.635 451.157,255.554 452.229,253.733 451.485,253.357 451.309,253.264 447.854,251.346 447.551,251.164 444.211,248.998 " fill="none" stroke-width="0.5" stroke="rgb(0,0,0)" />
	<polygon points="382.203,240.964 382.013,241.949 381.623,243.263 381.231,244.219 380.611,245.382 380.028,246.25 379.204,247.243 378.46,247.973 377.455,248.778 376.595,249.336 375.434,249.934 374.502,250.304 374.134,250.41 374.137,250.412 375.227,251.381 375.793,251.972 376.912,253.343 377.125,253.623 378.237,255.194 378.289,255.267 378.513,255.597 378.703,255.399 379.919,254.121 380.116,253.925 381.303,252.805 381.875,252.339 383.001,251.547 384.533,250.813 385.572,250.513 387.442,250.329 387.742,250.355 388.867,250.579 389.122,250.66 390.445,251.303 390.656,251.446 391.787,252.489 391.955,252.699 392.631,253.802 392.759,254.086 393.066,254.975 393.096,255.095 393.121,255.068 394.092,254.29 394.3,254.161 395.412,253.643 395.644,253.568 396.739,253.337 396.991,253.312 399.303,253.614 400.28,253.98 401.886,254.946 402.853,255.801 403.429,256.4 404.391,257.579 404.578,257.822 405.531,259.142 406.099,259.917 406.329,259.763 407.524,258.842 408.799,257.815 408.899,257.737 410.107,256.813 410.513,256.532 411.027,256.212 407.38,254.813 401.996,253.301 396.607,251.796 396.109,251.629 391.297,249.738 390.214,249.155 386.336,246.423 384.969,244.995 382.382,240.965 382.238,240.59 " fill="none" stroke-width="0.5" stroke="rgb(0,0,0)" />
	<polygon points="314.468,222.608 312.777,223.535 311.854,223.93 309.996,224.518 308.973,224.73 306.992,224.935 306.48,224.935 307.621,228.465 309.107,230.137 311.675,231.665 315.265,233.224 315.455,233.311 319.254,235.148 320.179,235.723 323.444,238.268 324.695,239.683 326.98,243.498 327.653,245.368 327.756,246.043 327.868,245.933 328.764,245.223 329.881,244.525 330.758,244.087 331.927,243.637 332.719,243.402 333.867,243.161 334.577,243.063 335.083,243.028 334.428,242.235 333.875,241.417 332.761,239.369 332.368,238.44 331.664,236.179 331.457,235.167 331.225,232.881 331.132,232.92 329.821,233.328 328.81,233.534 327.404,233.676 326.363,233.676 324.968,233.534 323.952,233.325 322.649,232.917 321.721,232.523 320.539,231.878 319.723,231.325 318.691,230.471 318.001,229.781 317.148,228.747 316.597,227.931 315.951,226.745 315.558,225.817 315.149,224.507 314.942,223.494 314.827,222.364 " fill="none" stroke-width="0.5" stroke="rgb(0,0,0)" />
	<polygon points="103.334,233.89 103.317,234.639 102.926,238.735 102.833,239.337 102.672,240.078 102.957,239.676 106.281,235.593 104.012,234.309 103.278,232.792 " fill="none" stroke-width="0.5" stroke="rgb(0,0,0)" />
	<polygon points="409.906,231.851 412.568,235.443 415.002,237.773 417.108,239.47 415.588,237.691 409.596,230.83 409.438,230.641 409.054,230.156 " fill="none" stroke-width="0.5" stroke="rgb(0,0,0)" />
	<polygon points="463.56,212.826 463.577,213.139 463.595,213.942 463.589,214.316 463.461,216.837 463.431,217.195 463.094,219.976 463.065,220.18 462.589,223.121 462.572,223.22 462.027,226.22 462.024,226.233 461.486,229.155 461.032,231.841 460.732,234.138 460.635,235.842 460.72,236.94 460.956,237.983 461.319,238.953 461.486,239.265 462.218,238.446 463.742,236.262 465.189,233.613 466.377,230.689 467.158,227.675 467.43,224.758 466.848,219.542 465.361,215.473 463.555,212.765 " fill="none" stroke-width="0.5" stroke="rgb(0,0,0)" />
	<polygon points="380.615,197.346 380.405,198.364 379.974,199.739 379.579,200.667 378.897,201.914 378.346,202.727 377.444,203.817 376.756,204.504 375.666,205.405 375.634,205.426 376.749,206.03 377.571,206.584 378.787,207.586 379.483,208.281 380.486,209.496 381.04,210.318 381.797,211.712 382.189,212.642 382.667,214.183 382.873,215.193 383.039,216.848 383.04,217.878 382.873,219.538 382.669,220.546 382.191,222.091 381.799,223.021 381.042,224.418 380.488,225.241 379.486,226.457 378.789,227.154 377.573,228.157 376.751,228.712 376.29,228.962 376.621,229.134 377.442,229.667 378.446,230.465 379.154,231.146 379.978,232.108 380.552,232.927 380.689,233.17 380.637,232.039 380.773,230.111 380.834,229.601 381.192,227.518 381.248,227.235 381.753,225.039 381.782,224.92 382.359,222.658 382.917,220.438 383.373,218.367 383.668,216.513 383.774,214.826 383.766,214.477 383.735,214.083 383.688,213.754 383.631,213.491 383.571,213.291 383.512,213.147 383.458,213.046 383.247,212.733 382.372,209.686 383.448,206.703 386.066,204.916 389.772,205.225 391.345,205.99 383.563,199.645 382.708,198.758 380.737,196.149 " fill="none" stroke-width="0.5" stroke="rgb(0,0,0)" />
	<polygon points="47.3807,225.928 46.925,226.121 44.3975,227.051 43.8105,227.228 42.362,227.572 42.671,227.667 43.8271,228.185 44.1896,228.405 45.2295,229.235 45.5124,229.529 46.2542,230.51 46.4636,230.869 46.8894,231.802 47.0313,232.219 47.1158,232.55 47.1469,232.396 47.2587,231.948 48.9911,226.126 49.4432,225.062 49.5413,224.888 " fill="none" stroke-width="0.5" stroke="rgb(0,0,0)" />
	<polygon points="85.758,211.085 84.0787,212.924 83.5136,213.3 83.0556,213.571 82.6777,213.769 82.9673,213.892 84.1402,214.583 84.7116,215.031 85.5624,215.876 86.0252,216.458 86.5689,217.297 86.9251,217.985 87.2453,218.748 87.4971,219.516 87.6702,220.198 87.8198,221.02 87.8944,221.643 87.9437,222.491 87.9159,223.403 87.4582,227.221 87.3741,227.682 87.6531,227.265 88.0526,226.742 88.7808,225.906 89.4042,225.302 90.1407,224.7 91.1178,224.071 91.8547,223.706 93.2847,223.244 94.0137,223.122 95.5842,223.101 96.2279,223.191 97.6103,223.589 98.222,223.862 99.3706,224.568 99.9337,225.026 100.76,225.873 101.258,226.518 101.79,227.365 102.206,228.198 102.294,228.417 102.286,228.337 102.276,228.231 102.218,227.519 102.21,227.408 102.169,226.712 102.163,226.594 102.139,225.915 102.136,225.791 102.127,225.127 102.141,224.682 102.444,220.605 102.558,219.845 103.399,216.144 103.618,215.428 104.897,212.121 105.192,211.492 104.464,211.861 101.885,212.795 100.695,213.072 97.6973,213.402 96.5624,213.401 93.3732,213.045 92.218,212.778 89.3538,211.759 88.3001,211.242 86.0019,209.768 " fill="none" stroke-width="0.5" stroke="rgb(0,0,0)" />
	<polygon points="63.3683,215.221 61.2003,217.016 62.3148,217.338 62.9591,217.633 64.2665,218.495 64.7833,218.963 65.6547,219.989 66.0544,220.608 66.5248,221.528 66.8178,222.279 67.0413,223.006 67.2378,223.866 67.3326,224.419 67.4429,225.37 67.4743,225.789 67.5088,226.81 67.5057,227.127 69.3607,222.56 69.6922,221.888 72.3568,217.354 74.0205,215.626 74.1828,215.522 73.9882,215.517 71.7582,215.332 70.8807,215.182 68.809,214.639 67.924,214.319 66.0535,213.44 65.1953,212.93 64.7383,212.595 " fill="none" stroke-width="0.5" stroke="rgb(0,0,0)" />
	<polygon points="450.655,205.932 448.792,206.603 445.95,207.785 445.855,207.823 442.267,209.234 441.985,209.335 437.675,210.746 437.276,210.859 432.155,212.089 431.689,212.179 425.667,213.049 425.172,213.097 418.159,213.427 417.264,213.391 414.223,213.003 414.485,213.058 419.943,214.535 420.85,214.874 425.294,217.035 426.331,217.703 430.024,220.767 430.825,221.601 434.029,225.787 434.304,226.212 434.47,225.628 436.215,221.568 436.708,220.676 439.231,217.022 439.72,216.417 442.705,213.248 443.161,212.82 446.292,210.216 446.744,209.881 449.705,207.922 450.249,207.608 452.725,206.375 453.352,206.141 452.656,205.942 451.442,205.8 " fill="none" stroke-width="0.5" stroke="rgb(0,0,0)" />
	<polygon points="184.104,211.129 184.968,211.926 186.941,214.214 187.64,215.261 188.849,217.662 189.249,218.742 189.855,221.197 189.978,221.979 191.055,219.96 193.902,218.567 197.325,219.275 197.585,219.435 196.652,217.686 196.04,215.473 195.344,214.147 194.422,213.084 193.146,212.153 191.371,211.334 189.019,210.684 186.075,210.264 182.728,210.125 " fill="none" stroke-width="0.5" stroke="rgb(0,0,0)" />
	<polygon points="337.579,212.065 335.765,213.041 335.57,213.122 335.795,213.347 336.652,214.382 337.206,215.199 337.854,216.386 338.248,217.316 338.515,218.169 339.199,217.706 341.248,216.592 341.547,216.465 340.884,215.803 340.028,214.767 339.476,213.949 338.829,212.761 338.436,211.833 338.348,211.55 " fill="none" stroke-width="0.5" stroke="rgb(0,0,0)" />
	<polygon points="396.096,208.459 399.729,211.444 400.631,212.403 402.168,214.527 402.681,213.462 405.469,211.953 405.944,211.945 404.499,211.761 403.112,211.381 395.603,208.142 " fill="none" stroke-width="0.5" stroke="rgb(0,0,0)" />
	<polygon points="57.0598,202.246 56.696,202.571 54.9158,204.017 54.4884,204.329 52.7015,205.497 52.2038,205.785 50.4251,206.683 49.8527,206.93 48.0972,207.563 47.4489,207.751 45.7316,208.126 45.0132,208.231 43.349,208.355 42.4488,208.343 40.3577,208.132 39.2797,207.904 37.6763,207.382 38.7203,207.913 40.0927,208.365 41.6038,208.632 43.3799,208.726 44.8438,208.687 46.469,208.564 48.2073,208.359 50.0691,208.076 52.0635,207.718 54.1991,207.288 56.484,206.792 58.9409,206.233 59.5313,206.286 59.3565,205.887 58.7191,203.872 58.5044,202.825 58.3244,201.003 " fill="none" stroke-width="0.5" stroke="rgb(0,0,0)" />
	<polygon points="361.865,206.573 362.325,206.262 361.805,205.976 " fill="none" stroke-width="0.5" stroke="rgb(0,0,0)" />
	<polygon points="113.99,199.997 113.762,200.769 113.551,201.318 114.043,200.938 114.69,200.511 115.851,199.865 114.478,199.321 114.225,198.895 " fill="none" stroke-width="0.5" stroke="rgb(0,0,0)" />
	<polygon points="124.145,196.351 123.526,196.445 123.09,196.566 122.842,196.676 122.75,196.737 122.749,196.738 122.532,197.277 122.205,197.667 122.528,197.608 122.8,197.565 123.984,197.412 124.217,197.388 125.439,197.286 125.635,197.273 126.895,197.217 127.057,197.212 128.352,197.195 128.554,197.196 129.495,197.22 129.17,197.089 126.925,196.515 124.8,196.321 " fill="none" stroke-width="0.5" stroke="rgb(0,0,0)" />
	<polygon points="354.968,195.887 353.953,196.205 354.05,196.235 354.978,196.629 355.996,197.183 355.862,195.874 355.862,195.507 " fill="none" stroke-width="0.5" stroke="rgb(0,0,0)" />
	<polygon points="344.794,196.553 345.028,196.454 344.777,196.375 " fill="none" stroke-width="0.5" stroke="rgb(0,0,0)" />
	<polygon points="59.8706,190.205 59.5517,190.273 59.3234,190.315 60.4646,191.429 61.4847,189.805 " fill="none" stroke-width="0.5" stroke="rgb(0,0,0)" />
	<polygon points="178.569,183.438 178.863,184.1 179.901,186.96 179.906,187.093 180.096,187.035 180.638,186.902 184.489,186.177 185.113,186.098 186.148,186.032 183.823,185.685 182.332,185.224 178.538,183.38 " fill="none" stroke-width="0.5" stroke="rgb(0,0,0)" />
	<polygon points="367.148,166.184 366.336,167.166 365.641,167.859 364.657,168.669 363.837,169.222 362.707,169.834 361.779,170.225 361.594,170.282 362.331,171.171 362.882,171.984 363.922,173.883 364.317,174.81 364.975,176.903 365.185,177.922 365.415,180.161 365.415,181.214 365.202,183.283 365.283,183.258 366.305,183.046 367.76,182.895 368.813,182.895 370.286,183.045 371.301,183.254 372.677,183.685 373.209,183.91 371.855,181.142 371.566,180.417 368.8,171.569 368.647,170.944 367.656,165.434 " fill="none" stroke-width="0.5" stroke="rgb(0,0,0)" />
	<polygon points="163.603,163.444 163.321,163.688 159.733,166.575 159.328,166.87 155.541,169.352 155.009,169.657 150.936,171.679 150.301,171.943 145.853,173.454 145.17,173.635 140.258,174.58 139.593,174.664 139.173,174.689 141.717,176.462 142.333,176.965 145.727,180.211 146.138,180.652 148.458,183.461 148.464,183.408 149.071,179.553 149.253,178.784 150.212,175.788 150.8,174.549 152.191,172.411 153.63,170.948 155.533,169.666 157.542,168.861 160.036,168.434 161.895,168.456 163.622,168.795 164.893,169.221 166.853,170.178 167.177,170.371 166.41,168.903 166.162,168.349 164.358,163.602 164.212,163.158 164.15,162.935 " fill="none" stroke-width="0.5" stroke="rgb(0,0,0)" />
	<polygon points="109.146,158.424 108.5,159.611 107.948,160.428 107.093,161.464 106.403,162.154 105.368,163.01 104.552,163.563 103.366,164.21 102.438,164.604 101.129,165.013 100.114,165.221 98.7123,165.364 97.6705,165.364 96.2634,165.222 95.2507,165.015 93.938,164.605 93.0103,164.213 91.8206,163.566 91.0042,163.015 90.0336,162.214 89.9282,162.577 89.7776,163.019 88.5332,166.191 88.8844,165.954 92.1028,166.072 95.4456,167.309 96.0161,167.56 99.3916,169.299 99.9272,169.617 103.188,171.832 103.716,172.244 106.715,174.91 107.242,175.453 109.83,178.546 110.333,179.263 112.365,182.757 112.629,183.334 112.695,182.909 112.868,182.166 113.587,179.862 113.978,178.937 115.021,177.018 115.744,176.004 117.13,174.486 118.189,173.602 119.94,172.5 121.039,171.991 118.394,170.478 117.477,169.809 114.583,167.165 113.867,166.357 111.645,163.246 111.147,162.383 109.58,158.934 109.285,158.095 " fill="none" stroke-width="0.5" stroke="rgb(0,0,0)" />
	<polygon points="78.0733,180.994 78.8175,181.517 78.9682,180.981 79.1111,180.548 79.4028,179.78 " fill="none" stroke-width="0.5" stroke="rgb(0,0,0)" />
	<polygon points="343.482,162.316 342.629,163.025 338.523,165.748 337.65,166.213 334.292,167.606 334.676,167.99 335.487,168.971 336.042,169.791 336.424,170.494 337.236,169.514 337.923,168.828 339.582,167.457 340.394,166.907 342.294,165.869 343.22,165.476 345.312,164.819 346.33,164.609 347.172,164.523 347.016,164.235 346.623,163.304 346.236,162.06 346.029,161.048 345.905,159.814 " fill="none" stroke-width="0.5" stroke="rgb(0,0,0)" />
	<polygon points="423.625,139.378 421.886,142.202 420.934,143.341 418.193,145.793 417.306,146.431 413.691,148.487 412.956,148.832 408.595,150.471 407.989,150.657 403.01,151.856 402.491,151.953 400.237,152.256 402.602,152.036 402.767,152.023 405.698,151.844 405.902,151.836 409.099,151.768 409.67,151.787 417.003,152.447 418.001,152.637 424.421,154.535 425.371,154.922 431.057,157.933 431.814,158.424 436.946,162.426 437.462,162.888 441.111,166.622 439.545,164.446 439.172,163.843 435.665,157.2 435.269,156.215 433.423,149.778 433.529,146.609 434.245,145.686 433.783,145.594 431.815,145.077 431.052,144.811 429.373,144.073 428.459,143.555 427.099,142.587 426.137,141.698 425.127,140.492 424.349,139.232 423.998,138.42 " fill="none" stroke-width="0.5" stroke="rgb(0,0,0)" />
	<polygon points="377.106,150.89 378.329,151.513 379.977,152.152 382.167,152.736 385.002,153.169 388.617,153.342 390.57,153.284 392.641,153.121 394.849,152.88 395.828,152.762 390.728,152.981 389.952,152.955 381.684,152.059 380.595,151.819 376.22,150.345 " fill="none" stroke-width="0.5" stroke="rgb(0,0,0)" />
	<polygon points="348.322,116.868 348.274,117.344 347.809,120.502 347.723,120.949 347.31,122.68 349.405,124.448 350.154,125.621 350.457,126.167 351.118,127.548 351.294,127.96 351.864,129.477 351.975,129.806 352.451,131.388 352.528,131.672 352.904,133.246 352.961,133.516 353.235,135.01 353.28,135.303 353.447,136.646 353.48,137.022 353.537,138.142 353.52,138.889 352.894,145.49 352.676,146.56 351.928,148.918 352.622,148.541 353.553,148.149 354.801,147.762 355.81,147.557 357.151,147.423 358.183,147.423 359.522,147.558 360.532,147.763 361.779,148.15 362.709,148.541 363.838,149.154 364.66,149.708 365.644,150.519 366.339,151.214 367.138,152.181 367.518,151.406 367.569,151.324 368.424,150.279 368.482,150.225 369.805,149.326 369.867,149.297 371.368,148.851 371.433,148.842 372.433,148.972 372.289,148.907 365.92,145.174 365.133,144.607 359.796,139.938 359.173,139.289 354.926,134.005 354.439,133.283 351.336,127.706 350.964,126.873 349.061,121.325 348.822,120.29 348.344,116.447 " fill="none" stroke-width="0.5" stroke="rgb(0,0,0)" />
	<polygon points="131.386,132.89 130.697,133.132 129.955,133.466 129.24,133.855 128.626,134.244 128.198,134.56 127.804,134.909 124.899,136.179 122.122,135.577 123.707,137.169 124.472,138.791 124.854,139.936 125.332,142.229 125.372,142.443 125.775,144.89 126.241,146.835 126.665,147.744 126.666,147.745 126.983,147.818 127.223,147.707 127.676,147.405 128.215,146.914 128.812,146.185 129.432,145.161 130.062,143.722 130.389,142.726 130.719,141.583 131.001,140.447 131.234,139.328 131.415,138.237 131.545,137.185 131.622,136.186 131.647,135.258 131.606,133.925 131.494,132.909 131.484,132.867 " fill="none" stroke-width="0.5" stroke="rgb(0,0,0)" />
	<polygon points="101.206,137 101.206,138.042 101.064,139.447 100.856,140.461 100.571,141.374 101.129,141.489 102.437,141.898 103.365,142.291 104.551,142.938 105.366,143.49 106.401,144.345 107.091,145.035 107.946,146.07 108.097,146.292 108.133,145.95 108.18,145.611 108.484,143.851 108.574,143.436 109.031,141.67 109.214,141.102 109.844,139.476 110.129,138.9 107.523,139.505 105.56,138.93 102.923,137.541 101.066,135.624 " fill="none" stroke-width="0.5" stroke="rgb(0,0,0)" />
	<polygon points="314.741,122.59 313.091,123.035 311.637,123.713 310.378,124.58 309.332,125.583 308.523,126.655 307.972,127.705 307.523,129.12 305.683,131.701 305.255,131.846 305.647,132.155 306.9,132.987 308.075,133.615 309.2,134.07 310.319,134.382 311.486,134.569 312.799,134.635 313.207,134.623 313.757,134.58 314.381,134.512 315.055,134.425 315.744,134.332 315.786,134.326 316.441,134.243 316.577,134.228 317.166,134.169 317.451,134.149 317.957,134.127 318.476,134.13 319.041,134.162 319.696,134.242 320.204,134.337 320.959,134.539 321.405,134.695 322.251,135.081 322.63,135.297 323.516,135.935 323.821,136.208 324.633,137.132 324.858,137.46 325.448,138.606 325.587,138.988 325.869,140.189 325.917,140.622 325.921,141.712 325.842,142.486 325.697,143.278 325.526,143.927 326.709,143.832 329.611,143.114 331.777,142.152 329.296,141.349 327.752,139.569 327.259,138.63 326.763,137.849 326.159,137.055 325.448,136.266 324.625,135.499 323.686,134.768 322.625,134.086 321.23,133.36 320.812,133.145 320.151,132.738 319.789,132.475 319.178,131.956 318.877,131.656 318.353,131.046 318.112,130.716 317.698,130.049 317.513,129.694 317.216,129.002 317.087,128.628 316.901,127.94 316.826,127.553 316.739,126.886 316.714,126.493 316.732,125.635 316.809,124.892 316.988,123.981 317.212,123.212 317.476,122.505 317.482,122.491 317.144,122.444 316.692,122.419 " fill="none" stroke-width="0.5" stroke="rgb(0,0,0)" />
	<polygon points="58.0699,137.529 57.5539,138.493 60.039,138.011 60.391,137.956 62.7936,137.661 62.9851,137.643 62.1014,137.484 61.4321,137.316 57.661,136.098 " fill="none" stroke-width="0.5" stroke="rgb(0,0,0)" />
	<polygon points="93.2883,111.246 93.2022,111.328 91.0256,113.349 90.6862,113.638 88.423,115.401 87.6817,115.882 85.3436,117.129 83.9154,117.638 81.514,118.111 79.9712,118.179 78.7745,118.051 78.3958,117.961 78.6044,119.189 78.6689,119.759 78.8576,123.074 78.8646,123.481 78.8329,124.908 78.8231,125.13 78.7321,126.519 78.7138,126.73 78.5696,128.077 78.5442,128.277 78.353,129.578 78.3215,129.768 78.0896,131.019 78.053,131.199 77.7865,132.398 77.7457,132.567 77.4508,133.71 77.4064,133.871 77.0893,134.953 75.3046,137.573 74.4095,137.85 74.5093,137.86 74.5358,137.863 75.5278,137.964 75.6367,137.976 76.5311,138.087 76.756,138.12 76.9918,138.16 76.9799,138.042 76.9799,137.001 77.1224,135.598 77.3295,134.585 77.7381,133.275 78.1301,132.348 78.776,131.16 79.3267,130.344 80.1813,129.308 80.8709,128.617 81.9056,127.76 82.7218,127.207 83.9079,126.559 84.8373,126.165 86.1462,125.755 87.1626,125.546 88.5657,125.403 89.6092,125.403 91.0143,125.546 92.0294,125.754 93.3402,126.164 94.2687,126.558 95.4567,127.205 96.2727,127.757 97.309,128.614 97.9991,129.304 98.3562,129.737 97.3515,125.279 97.271,124.829 96.4773,118.895 96.4636,118.783 95.8118,112.944 95.2707,109.319 " fill="none" stroke-width="0.5" stroke="rgb(0,0,0)" />
	<polygon points="122.861,111.798 121.273,118.151 121.25,118.24 119.524,124.656 119.423,124.986 117.506,130.582 117.148,131.393 115.74,133.957 116.428,133.773 119.97,134.099 120.959,134.57 119.683,133.149 119.633,129.077 121.477,124.646 121.831,123.949 124.173,120.097 124.651,119.434 127.435,116.163 128.027,115.572 130.637,113.359 130.387,113.235 128.87,112.087 128.197,111.478 126.695,109.855 126.468,109.593 124.975,107.744 124.234,106.837 " fill="none" stroke-width="0.5" stroke="rgb(0,0,0)" />
	<polygon points="182.56,103.028 182.738,103.828 183.293,107.799 183.337,108.755 183.295,109.646 183.236,110.216 183.104,111.041 182.939,111.75 182.709,112.494 182.356,113.352 182.02,113.997 181.377,114.952 180.926,115.483 179.944,116.375 179.37,116.774 178.16,117.398 177.455,117.65 176.255,117.922 175.411,118.01 173.545,117.861 170.186,116.96 169.763,116.782 170.049,117.162 172.394,121.031 172.795,121.85 174.482,126.231 174.712,127.005 175.275,129.635 177.512,127.646 177.994,127.266 180.994,125.179 181.624,124.805 184.744,123.238 185.549,122.916 188.771,121.931 189.746,121.734 193.05,121.392 194.152,121.396 198.184,121.846 199.404,122.136 199.887,122.315 199.057,121.852 197.948,121.02 194.432,117.551 194.119,117.213 189.875,112.201 189.706,111.991 185.197,106.064 185.064,105.882 182.144,101.674 " fill="none" stroke-width="0.5" stroke="rgb(0,0,0)" />
	<polygon points="385.253,93.5408 384.485,94.2477 378.308,98.8691 377.46,99.3838 370.512,102.736 369.627,103.067 362.128,105.108 361.227,105.269 353.397,105.959 352.559,105.964 347.264,105.566 346.537,105.459 345.84,105.305 346.904,106.483 347.245,107.037 347.754,108.134 347.983,108.831 348.163,109.552 348.302,110.348 348.361,110.802 348.432,111.652 348.447,111.925 348.46,112.33 348.616,111.835 348.72,111.58 349.127,110.791 349.262,110.576 349.746,109.927 349.905,109.746 350.361,109.287 350.538,109.13 350.879,108.853 351.068,108.712 351.247,108.584 351.441,108.453 352.676,107.836 353.857,107.434 354.994,107.185 356.835,106.997 357.105,106.977 359.505,106.858 362.313,106.671 365.457,106.288 368.938,105.582 372.742,104.42 376.962,102.616 377.399,102.394 377.691,102.257 378.278,102.004 378.578,101.886 379.161,101.677 379.468,101.577 380.045,101.41 380.357,101.33 380.926,101.203 381.242,101.143 381.801,101.055 382.12,101.015 382.667,100.963 382.988,100.943 383.521,100.926 384.461,100.983 386.426,101.283 388.158,101.877 389.576,102.668 390.83,103.65 391.875,104.769 392.41,105.449 393.255,106.731 393.293,106.79 393.912,107.757 394.006,107.865 394.02,107.868 394.683,107.806 395.885,107.522 397.366,107.037 399.028,106.411 400.746,105.746 400.878,105.697 402.528,105.109 402.897,104.993 404.416,104.577 405.177,104.43 406.523,104.272 408.837,104.531 410.879,105.252 412.646,106.313 414.789,108.279 415.467,109.037 417.597,111.953 417.931,112.474 419.931,116.045 420.14,116.462 421.897,120.394 422.056,120.795 423.453,124.793 423.594,125.267 424.479,128.882 424.966,128.086 425.704,127.099 426.424,126.32 427.433,125.432 428.287,124.831 427.832,124.579 426.839,123.897 426.026,123.206 425.119,122.254 424.477,121.428 423.686,120.161 423.272,119.344 422.768,118.083 422.576,117.506 422.204,116.119 422.138,115.842 421.832,114.386 421.83,114.374 421.55,113.027 421.281,111.986 421.034,111.331 420.888,111.084 420.373,110.563 418.947,107.732 419.45,104.602 421.69,102.359 425.314,101.954 426.281,102.202 427.12,102.363 427.998,102.483 428.903,102.568 429.825,102.622 430.754,102.65 431.682,102.661 432.395,102.663 434.786,102.473 437.118,101.977 439.595,101.215 442.181,100.275 443.502,99.7776 443.33,99.8231 442.713,99.9471 431.935,101.433 431.443,101.477 419.888,101.951 419.626,101.955 416.339,101.923 416.238,101.921 412.906,101.822 412.807,101.819 409.438,101.655 409.342,101.649 405.944,101.42 405.849,101.413 402.433,101.119 402.337,101.11 398.912,100.75 398.816,100.739 395.389,100.315 395.292,100.302 391.874,99.812 391.804,99.8014 391.329,99.7266 390.898,99.6398 390.512,99.5449 389.862,99.3382 389.558,99.2189 388.66,98.76 388.429,98.6122 387.41,97.7535 387.245,97.5729 386.432,96.3879 386.324,96.1703 385.915,95.0226 385.856,94.7638 385.736,93.922 385.718,93.6179 385.944,92.761 " fill="none" stroke-width="0.5" stroke="rgb(0,0,0)" />
	<polygon points="144.719,98.6694 144.168,101.66 143.591,104.887 143.501,105.296 142.868,107.69 144.616,107.292 145.382,107.178 149.511,106.876 150.467,106.895 155.343,107.447 156.547,107.733 157.064,107.924 155.186,106.347 155.151,106.318 150.705,102.518 146.778,99.3602 144.878,98.1071 " fill="none" stroke-width="0.5" stroke="rgb(0,0,0)" />
	<polygon points="326.19,98.5213 325.237,99.8983 327.599,100.382 328.253,100.562 330.994,101.513 331.555,101.746 333.8,102.836 334.222,103.066 336.019,104.157 336.248,104.305 337.022,104.832 337.317,104.678 337.506,104.584 338.101,104.303 338.606,104.097 339.176,103.899 339.806,103.747 336.996,102.753 336.538,102.566 332.889,100.865 332.593,100.715 329.485,99.0145 329.383,98.957 326.919,97.535 326.888,97.519 " fill="none" stroke-width="0.5" stroke="rgb(0,0,0)" />
	<polygon points="69.7846,91.7444 64.7151,94.4126 59.5767,97.2474 62.7773,97.6896 64.229,98.1144 67.6115,99.6742 68.8196,100.452 71.0422,102.37 71.0968,101.722 71.1122,101.567 71.3635,99.3774 71.3729,99.3007 71.6608,97.0854 71.6618,97.078 71.9456,94.9193 72.1842,92.9108 72.3433,91.1305 72.3632,90.5961 " fill="none" stroke-width="0.5" stroke="rgb(0,0,0)" />
	<polygon points="395.48,78.7693 395.046,79.7725 391.126,86.7081 392.34,86.0888 394.23,85.0086 395.828,83.8029 397.001,82.4665 397.76,80.879 398.117,78.373 398.08,77.3692 397.95,76.0726 397.756,74.7732 397.522,73.5006 397.364,72.718 " fill="none" stroke-width="0.5" stroke="rgb(0,0,0)" />
	<polygon points="111.822,78.0128 111.99,78.935 112.111,80.2828 112.254,79.8131 112.574,79.013 113.683,76.7948 112.662,76.4257 111.237,75.5774 111.093,75.3947 " fill="none" stroke-width="0.5" stroke="rgb(0,0,0)" />
	<polygon points="172.092,77.046 173.321,79.9432 173.65,79.3191 173.751,79.1598 174.337,78.4075 174.464,78.2727 175.275,77.5721 175.425,77.4681 176.482,76.9025 176.652,76.8355 176.692,76.8253 173.474,75.8026 171.468,75.2766 " fill="none" stroke-width="0.5" stroke="rgb(0,0,0)" />
	<polygon points="125.476,60.2518 124.71,63.4341 123.975,66.9242 123.904,67.2162 123.057,70.3233 122.655,71.3494 121.823,72.9459 123.279,73.4642 125.274,74.7561 126.656,76.2007 127.298,77.026 127.962,78.0853 127.962,78.0719 127.974,76.6898 127.977,76.5404 128.024,75.29 128.041,75.0166 128.141,73.9141 128.205,73.4527 128.376,72.5144 128.574,71.762 128.835,71.004 129.402,69.8525 129.771,69.2911 131.11,67.9102 131.605,67.5614 133.172,66.9008 131.663,64.9871 131.525,64.8036 129.786,62.3828 128.103,60.1543 126.644,58.5592 126.226,58.2544 " fill="none" stroke-width="0.5" stroke="rgb(0,0,0)" />
	<polygon points="106.581,57.5847 105.46,58.1218 103.888,59.204 102.089,60.6697 100.225,62.2655 100.096,62.3717 98.315,63.7996 97.8211,64.1499 96.2032,65.1599 94.816,65.7638 94.3031,65.9021 94.4541,66.1259 94.7332,66.674 95.0937,67.5891 95.2831,68.2483 95.4332,68.9536 95.5408,69.7202 95.587,70.2349 95.6211,71.1049 95.6144,71.6376 95.4872,73.6136 95.4396,74.0549 95.1041,76.2666 95.0624,76.5042 95.0211,76.7104 96.436,74.9062 97.0426,74.2569 99.1319,72.3759 100.891,71.3374 102.949,70.6239 106.118,70.5578 107.718,71.364 108.796,72.169 108.26,70.4324 108.05,69.3447 107.786,66.1829 107.772,65.9673 107.627,62.4821 107.335,59.4298 106.851,57.6405 106.782,57.5482 " fill="none" stroke-width="0.5" stroke="rgb(0,0,0)" />
	<polygon points="146.07,68.6111 145.374,69.3502 145.089,69.5985 144.244,70.197 143.918,70.3818 143.877,70.3997 147.295,73.1894 147.475,73.344 148.524,74.2838 147.779,72.5487 147.695,72.3409 146.212,68.4264 " fill="none" stroke-width="0.5" stroke="rgb(0,0,0)" />
	<polygon points="399.137,59.3067 399.134,60.2667 398.796,63.7541 399.212,63.3709 399.424,63.2107 400.248,62.7029 400.485,62.5858 401.363,62.2482 401.617,62.1764 402.542,62.0041 402.804,61.9797 405.162,62.3134 406.271,62.7487 407.686,63.5852 409.064,64.733 409.359,64.998 410.996,66.5894 412.8,68.2828 414.698,69.8072 416.672,71.0056 418.706,71.7709 421.113,72.0747 421.535,72.0548 422.307,71.9377 423.04,71.7232 423.617,71.4374 424.019,71.1113 424.339,70.6691 424.642,69.8431 424.75,68.8212 424.135,66.7775 422.124,64.702 418.28,62.4277 413.341,60.3814 408.123,58.6512 403.424,57.2074 403.182,57.1265 399.819,55.9081 398.774,55.3024 " fill="none" stroke-width="0.5" stroke="rgb(0,0,0)" />
	<polygon points="84.537,60.2935 84.1415,60.7836 81.3891,63.7965 83.638,62.9884 84.5538,62.7516 85.803,62.5487 85.6253,62.2103 85.5149,61.9096 85.2285,60.6858 85.1894,60.3237 85.2731,59.2579 " fill="none" stroke-width="0.5" stroke="rgb(0,0,0)" />
	<polygon points="54.159,62.6479 55.175,61.2972 53.3866,61.1751 " fill="none" stroke-width="0.5" stroke="rgb(0,0,0)" />
	<polygon points="161.818,44.9714 161.771,45.3896 161.452,46.6815 161.319,47.0239 160.621,48.2695 160.414,48.5422 159.478,49.4897 159.21,49.6989 158.802,49.9511 160.18,50.3166 160.517,50.4185 163.896,51.567 164.037,51.6174 167.569,52.9339 167.573,52.9353 171.029,54.227 173.715,55.1471 170.846,51.9389 167.039,48.1002 163.139,44.2243 163.01,44.0914 161.453,42.4288 " fill="none" stroke-width="0.5" stroke="rgb(0,0,0)" />
	<polygon points="142.61,48.8339 143.031,50.3335 143.748,52.2203 144.655,54.3202 144.868,54.8011 144.962,54.5212 145.379,53.6005 145.775,52.9134 146.501,51.9404 147.028,51.3849 148.056,50.5492 148.722,50.1374 148.832,50.087 147.456,49.7094 145.868,49.2863 144.412,48.9486 143.171,48.7398 142.595,48.7011 " fill="none" stroke-width="0.5" stroke="rgb(0,0,0)" />
	<polygon points="92.1402,46.6333 90.389,46.8911 88.5226,47.2024 86.719,47.5072 87.6471,48.9513 88.1392,52.7232 89.1588,51.3461 89.27,51.2013 90.9893,49.0435 92.623,46.9546 92.905,46.5507 " fill="none" stroke-width="0.5" stroke="rgb(0,0,0)" />
	<polygon points="445.849,36.1659 445.261,37.9901 445.217,38.1213 444.558,39.9918 443.944,41.8393 443.454,43.6464 443.129,45.4609 443.011,47.3542 443.057,48.0606 443.168,48.5795 443.293,48.8847 443.381,49.0163 443.446,49.0764 443.603,49.1643 444.03,49.288 444.703,49.3454 445.143,49.2836 445.221,49.2058 445.496,48.7307 445.833,47.7509 446.112,46.3319 446.282,44.5869 446.337,42.6197 446.304,40.998 446.215,39.4442 446.087,37.9664 445.935,36.5576 445.878,36.0645 " fill="none" stroke-width="0.5" stroke="rgb(0,0,0)" />
	<polygon points="186.06,37.7641 186.137,37.9717 186.306,37.5784 " fill="none" stroke-width="0.5" stroke="rgb(0,0,0)" />
</svg>
