<?xml version="1.0" standalone="no" ?>
<!DOCTYPE svg PUBLIC "-//W3C//DTD SVG 1.1//EN" "http://www.w3.org/Graphics/SVG/1.1/DTD/svg11.dtd">
<svg width="500px" height="500px" xmlns="http://www.w3.org/2000/svg" version="1.1" >
	<polygon points="480.823,82.5948 480.406,83.2854 475.091,89.7574 473.212,91.5238 470.83,93.2457 470.848,93.2512 472.943,94.1032 474.767,95.0739 476.49,96.233 478.144,97.626 479.513,99.0575 480.795,100.715 480.823,100.76 480.823,192.898 479.843,194.032 478.264,195.106 477.22,195.515 480.034,198.639 480.823,199.697 480.823,249.124 480.718,249.303 480.22,250.069 478.988,251.788 480.103,252.186 480.823,252.554 480.823,281.286 479.971,296.463 479.832,297.344 478.13,299.449 477.318,300.339 475.383,302.219 477.278,305.847 477.869,307.218 478.143,308.01 477.405,312.666 473.11,329.62 467.07,347.047 459.27,364.67 454.282,373.81 451.643,374.098 452.005,377.981 449.695,382.213 438.331,399.399 425.161,415.952 410.17,431.593 399.831,440.475 398.518,440.063 398.249,439.936 397.857,442.171 393.345,446.047 374.668,459.037 354.126,470.285 331.702,479.516 320.293,482.77 319.956,482.637 317.293,481.26 316.024,480.429 315.811,482.258 315.413,483.73 315.159,484.234 307.382,486.452 281.151,490.817 263.789,491.752 263.452,491.477 263.344,491.372 263.107,491.484 262.304,491.832 252.993,492.333 225.548,490.902 199.887,486.773 176.007,480.192 174.907,479.755 174.019,479.131 171.324,477.615 169.904,477.206 168.028,477.02 153.907,471.407 133.585,460.665 126.296,455.77 125.787,454.99 125.609,453.634 122.634,453.312 115.039,448.212 98.2672,434.295 83.2685,419.161 70.0408,403.057 68.2628,400.446 68.2384,399.351 68.2495,399.212 67.1728,398.846 58.5824,386.23 48.8916,368.927 40.9666,351.394 34.8057,333.879 33.1708,327.466 35.5421,319.829 36.1144,318.389 37.4173,315.728 36.9781,315.719 35.009,315.099 30.9196,312.62 29.5617,311.262 27.7694,299.888 26.8905,283.906 26.8905,232.298 27.1406,231.724 28.0189,230.212 27.11,229.688 26.8905,229.516 26.8905,158.622 27.3364,157.379 27.9806,155.947 30.4071,151.514 31.4865,149.924 32.0381,149.259 31.6705,149.112 29.3842,147.925 27.7225,146.842 26.8905,146.174 26.8905,108.718 27.0475,108.584 26.8905,108.46 26.8905,39.1871 30.0264,36.8906 30.5151,36.5545 31.4881,35.9266 29.792,35.3922 28.2768,34.7753 26.8905,34.0743 26.8905,19.5757 38.3822,19.4875 49.8739,19.3993 61.3656,19.3111 72.8572,19.223 84.3489,19.1348 95.8406,19.0466 107.332,18.9584 118.664,18.8715 118.856,19.1016 119.068,18.8684 130.316,18.7821 141.807,18.6939 153.299,18.6057 164.791,18.5175 176.282,18.4294 187.774,18.3412 210.757,18.1648 210.732,31.0636 210.706,43.9624 210.681,56.8612 210.656,69.76 210.63,82.6588 210.621,87.471 209.886,87.778 208.244,88.3043 207.605,88.45 210.029,90.4675 210.369,90.7635 210.614,90.9869 210.579,108.456 210.554,121.355 210.503,147.153 210.478,160.052 210.452,172.95 210.438,180.164 209.956,180.892 208.175,183.134 206.908,184.46 205.425,185.751 206.6,186.556 208.152,187.87 210.125,189.915 210.418,190.293 210.401,198.748 210.376,211.647 210.357,221.287 210.158,221.607 209.554,222.22 210.353,222.96 210.35,224.546 210.438,235.84 210.602,246.657 210.899,256.963 211.346,265.958 210,267.586 208.766,269.228 209.207,269.673 211.326,271.459 211.5,271.609 211.791,271.865 212.112,275.909 213.138,284.482 214.519,292.41 216.308,299.661 218.563,306.2 221.336,311.994 224.685,317.011 228.665,321.215 233.33,324.575 238.737,327.056 244.939,328.626 251.95,329.246 252.815,331.036 253.657,329.763 254.198,329.092 259.171,328.749 265.518,327.271 271.013,324.853 275.719,321.532 279.698,317.343 283.01,312.324 285.72,306.511 287.888,299.942 289.576,292.653 290.848,284.68 291.763,276.06 292.386,266.831 292.416,266.087 293.204,265.469 292.538,264.897 292.467,264.814 292.778,257.028 293,246.688 293.115,235.848 293.185,224.546 293.159,211.647 293.133,198.748 293.126,195.033 294.508,193.886 294.713,193.747 294.167,192.746 293.398,190.935 293.116,190.031 293.107,185.849 293.097,180.476 293.399,179.509 294.168,177.698 294.815,176.512 295.224,175.908 294.108,175.185 293.084,174.233 293.082,172.95 293.056,160.052 293.004,134.254 292.978,121.355 292.96,112.4 293.269,111.528 294.583,108.65 295.1,107.755 294.454,107.665 294.303,107.632 292.95,107.12 292.901,82.6588 292.875,69.76 292.797,31.0636 292.771,18.1648 304.525,18.0893 316.278,18.0137 328.031,17.9382 339.784,17.8626 351.538,17.787 363.291,17.7115 375.044,17.6359 381.852,17.5922 385.504,20.2726 386.035,19.145 386.662,18.4169 387.795,17.5539 410.304,17.4092 422.057,17.3337 433.81,17.2581 445.045,17.1859 445.21,17.3369 445.335,17.184 445.564,17.1826 457.317,17.107 469.07,17.0314 480.823,16.9559 " fill="none" stroke-width="0.5" stroke="rgb(0,0,0)" />
	<polygon points="196.209,445.114 197.551,445.253 198.566,445.293 199.061,445.266 195.326,444.972 " fill="none" stroke-width="0.5" stroke="rgb(0,0,0)" />
	<polygon points="318.241,422.403 318.439,423.057 318.769,424.51 318.849,424.898 318.941,425.388 318.952,425.397 319.583,425.89 320.45,426.626 320.932,427.105 321.026,427.022 321.734,426.43 322.455,425.881 323.155,425.396 324.111,424.817 324.03,424.53 323.654,421.809 323.654,420.619 " fill="none" stroke-width="0.5" stroke="rgb(0,0,0)" />
	<polygon points="168.659,414.8 168.606,415.57 169.207,414.187 168.655,413.898 " fill="none" stroke-width="0.5" stroke="rgb(0,0,0)" />
	<polygon points="76.8826,316.04 76.8547,316.297 77.5472,315.678 77.8468,315.459 77.1741,314.922 " fill="none" stroke-width="0.5" stroke="rgb(0,0,0)" />
	<polygon points="163.256,254.719 163.462,254.327 163.165,254.267 " fill="none" stroke-width="0.5" stroke="rgb(0,0,0)" />
	<polygon points="96.911,218.339 97.8158,218.599 97.8902,218.272 96.4254,218.271 " fill="none" stroke-width="0.5" stroke="rgb(0,0,0)" />
	<polygon points="92.1532,217.989 92.2765,218.475 92.4735,218.411 93.2025,218.289 95.8692,218.254 92.8294,217.914 92.0713,217.74 " fill="none" stroke-width="0.5" stroke="rgb(0,0,0)" />
	<polygon points="433.3,216.854 433.041,216.904 433.152,216.996 433.235,217.082 433.411,216.827 " fill="none" stroke-width="0.5" stroke="rgb(0,0,0)" />
	<polygon points="106.899,167.865 106.4,168.136 106.972,168.582 109.971,171.248 110.999,172.308 111.758,173.215 112.126,172.699 112.694,172.077 111.278,170.782 109.879,169.205 108.263,166.941 " fill="none" stroke-width="0.5" stroke="rgb(0,0,0)" />
	<polygon points="424.201,146.993 422.212,148.772 425.809,149.835 427.665,150.592 428.719,151.15 428.712,151.128 428.598,149.085 427.401,148.559 425.619,147.547 424.439,146.708 " fill="none" stroke-width="0.5" stroke="rgb(0,0,0)" />
	<polygon points="91.4341,119.266 89.9875,120.206 89.3825,120.528 90.1053,120.528 91.5104,120.671 91.7786,120.726 91.6205,119.544 91.5938,119.327 91.5749,119.157 " fill="none" stroke-width="0.5" stroke="rgb(0,0,0)" />
	<polygon points="186.365,116.261 185.28,117.874 187.338,117.245 187.669,117.178 186.566,115.876 " fill="none" stroke-width="0.5" stroke="rgb(0,0,0)" />
</svg>
