<?xml version="1.0" standalone="no" ?>
<!DOCTYPE svg PUBLIC "-//W3C//DTD SVG 1.1//EN" "http://www.w3.org/Graphics/SVG/1.1/DTD/svg11.dtd">
<svg width="500px" height="500px" xmlns="http://www.w3.org/2000/svg" version="1.1" >
	<polygon points="469.623,280.972 468.821,295.27 466.423,310.41 462.37,326.405 456.639,342.939 449.216,359.712 440.091,376.431 429.26,392.811 416.718,408.575 402.46,423.451 386.48,437.179 368.764,449.5 349.289,460.164 328.023,468.919 304.919,475.508 279.927,479.667 252.983,481.118 226.733,479.749 202.271,475.812 179.574,469.558 158.606,461.223 139.339,451.038 121.754,439.23 105.839,426.024 91.5914,411.648 79.0149,396.337 68.1152,380.331 58.8989,363.875 51.3716,347.222 45.5359,330.631 41.3893,314.368 38.9213,298.706 38.0905,283.598 38.0905,30.6901 38.4682,30.6872 61.4515,30.5108 72.9432,30.4226 84.4349,30.3345 95.9265,30.2463 95.9265,30.2463 118.91,30.0699 130.402,29.9818 141.893,29.8936 164.877,29.7172 176.368,29.629 187.86,29.5409 199.535,29.4513 199.532,31.0416 199.532,31.0416 199.506,43.9404 199.481,56.8391 199.456,69.7379 199.456,69.738 199.43,82.6367 199.379,108.434 199.379,108.434 199.354,121.333 199.303,147.131 199.303,147.131 199.278,160.03 199.252,172.928 199.252,172.928 199.227,185.827 199.201,198.726 199.176,211.625 199.176,211.625 199.15,224.523 199.151,224.632 199.238,235.927 199.239,236.01 199.403,246.827 199.407,246.98 199.704,257.286 199.713,257.519 200.198,267.281 200.219,267.61 200.947,276.794 200.991,277.241 202.018,285.814 202.104,286.403 203.485,294.332 203.645,295.094 205.435,302.345 205.72,303.311 207.974,309.85 208.46,311.036 211.234,316.83 212.022,318.213 215.371,323.229 216.551,324.709 220.531,328.914 222.12,330.304 226.785,333.663 228.658,334.754 234.065,337.235 235.989,337.914 242.192,339.483 243.952,339.782 251.006,340.406 251.947,329.779 252.681,340.423 259.942,339.923 261.711,339.657 268.058,338.18 270.029,337.523 275.524,335.105 277.472,334.003 282.178,330.682 283.84,329.245 287.818,325.056 289.045,323.513 292.358,318.494 293.162,317.056 295.871,311.243 296.356,310.021 298.524,303.452 298.799,302.47 300.487,295.18 300.637,294.416 301.908,286.443 301.985,285.863 302.901,277.244 302.938,276.814 303.561,267.584 303.577,267.277 303.969,257.474 303.975,257.268 304.197,246.929 304.199,246.807 304.314,235.967 304.315,235.918 304.385,224.615 304.385,224.523 304.359,211.624 304.333,198.726 304.307,185.827 304.282,172.928 304.282,172.928 304.256,160.029 304.204,134.232 304.204,134.232 304.178,121.333 304.101,82.6364 304.101,82.6364 304.075,69.7376 303.997,31.0412 303.997,31.0412 303.994,29.2929 304.597,29.2891 316.35,29.2135 328.103,29.1379 339.856,29.0624 351.61,28.9868 363.363,28.9113 375.116,28.8357 386.869,28.7601 410.376,28.609 422.129,28.5334 433.882,28.4579 445.636,28.3823 457.389,28.3068 469.142,28.2312 469.623,28.2281 " fill="none" stroke-width="0.5" stroke="rgb(0,0,0)" />
	<polygon points="319.64,423.153 319.89,424.254 319.98,424.687 319.992,424.751 320.327,425.014 320.976,425.564 320.997,425.547 321.8,424.936 322.5,424.451 322.841,424.244 322.557,422.191 " fill="none" stroke-width="0.5" stroke="rgb(0,0,0)" />
	<polygon points="424.516,148.254 424.708,148.311 424.566,148.21 " fill="none" stroke-width="0.5" stroke="rgb(0,0,0)" />
</svg>
