<?xml version="1.0" standalone="no" ?>
<!DOCTYPE svg PUBLIC "-//W3C//DTD SVG 1.1//EN" "http://www.w3.org/Graphics/SVG/1.1/DTD/svg11.dtd">
<svg width="500px" height="500px" xmlns="http://www.w3.org/2000/svg" version="1.1" >
	<polygon points="467.223,280.904 466.431,295.014 464.069,309.927 460.069,325.716 454.405,342.059 447.062,358.65 438.033,375.192 427.316,391.399 414.908,406.994 400.808,421.707 385.009,435.278 367.499,447.457 348.253,457.996 327.234,466.648 304.391,473.163 279.664,477.277 252.981,478.714 226.987,477.359 202.782,473.464 180.338,467.279 159.613,459.04 140.573,448.975 123.193,437.305 107.461,424.251 93.3748,410.038 80.9379,394.897 70.1579,379.067 61.0433,362.792 53.6012,346.328 47.8352,329.935 43.7426,313.883 41.311,298.452 40.4905,283.532 40.4905,33.0717 49.9782,32.9989 61.4699,32.9107 61.4699,32.9107 72.9616,32.8226 84.4533,32.7344 95.9449,32.6462 95.945,32.6462 107.437,32.558 118.928,32.4699 130.42,32.3817 141.912,32.2935 153.403,32.2053 164.895,32.1171 187.878,31.9408 197.13,31.8698 197.106,43.9356 197.081,56.8344 197.056,69.7332 197.056,69.7332 197.03,82.632 196.979,108.43 196.979,108.43 196.954,121.328 196.903,147.126 196.903,147.126 196.878,160.025 196.852,172.924 196.852,172.924 196.827,185.822 196.801,198.721 196.776,211.62 196.776,211.62 196.75,224.519 196.751,224.651 196.838,235.945 196.839,236.047 197.004,246.864 197.008,247.049 197.305,257.355 197.316,257.638 197.801,267.4 197.826,267.8 198.554,276.984 198.608,277.526 199.635,286.099 199.74,286.815 201.12,294.743 201.315,295.669 203.105,302.92 203.451,304.093 205.705,310.632 206.296,312.072 209.07,317.867 210.026,319.546 213.375,324.562 214.808,326.359 218.787,330.564 220.717,332.251 225.382,335.611 227.657,336.935 233.064,339.416 235.4,340.241 241.603,341.81 243.74,342.173 250.795,342.797 251.947,329.779 252.846,342.818 260.107,342.317 262.255,341.995 268.602,340.517 270.996,339.72 276.491,337.301 278.856,335.964 283.562,332.642 285.58,330.897 289.559,326.709 291.048,324.835 294.361,319.816 295.337,318.07 298.046,312.257 298.635,310.774 300.803,304.204 301.137,303.011 302.825,295.722 303.007,294.794 304.278,286.821 304.371,286.117 305.287,277.497 305.333,276.976 305.955,267.746 305.975,267.373 306.367,257.57 306.374,257.32 306.597,246.98 306.599,246.832 306.714,235.993 306.715,235.933 306.785,224.63 306.785,224.518 306.759,211.62 306.707,185.822 306.682,172.923 306.682,172.923 306.656,160.024 306.604,134.227 306.604,134.227 306.578,121.328 306.501,82.6316 306.501,82.6315 306.475,69.7328 306.398,31.6775 316.365,31.6134 328.118,31.5379 339.872,31.4623 351.625,31.3868 363.378,31.3112 375.132,31.2356 386.885,31.1601 410.391,31.009 422.144,30.9334 433.898,30.8578 445.651,30.7823 457.404,30.7067 467.223,30.6436 " fill="none" stroke-width="0.5" stroke="rgb(0,0,0)" />
</svg>
