<?xml version="1.0" standalone="no" ?>
<!DOCTYPE svg PUBLIC "-//W3C//DTD SVG 1.1//EN" "http://www.w3.org/Graphics/SVG/1.1/DTD/svg11.dtd">
<svg width="500px" height="500px" xmlns="http://www.w3.org/2000/svg" version="1.1" >
	<polygon points="472.823,89.0985 472.011,89.8624 465.991,94.2138 466.186,94.214 468.671,94.7245 470.076,95.1502 472.171,96.0022 472.823,96.3495 472.823,281.062 472.007,295.611 469.561,311.055 465.439,327.323 459.62,344.113 452.089,361.129 442.835,378.083 431.852,394.693 419.13,410.682 404.663,425.777 388.441,439.713 370.451,452.225 350.671,463.056 329.074,471.947 314.12,476.212 313.513,475.606 313.263,475.301 313.603,476.135 313.662,476.342 305.623,478.635 280.276,482.852 252.986,484.322 226.394,482.935 201.59,478.944 178.555,472.596 157.264,464.132 137.695,453.789 119.835,441.796 103.675,428.387 89.2134,413.795 76.4509,398.257 65.3915,382.016 56.0396,365.318 48.3987,348.414 42.4701,331.559 38.8673,317.428 40.6317,313.825 38.0561,313.773 35.7351,299.043 34.8905,283.686 34.8905,149.031 35.5026,148.293 34.8905,148.114 34.8905,36.1708 36.0866,35.3989 36.1925,35.3317 36.4029,35.2006 34.8905,34.8175 34.8905,27.5145 38.4436,27.4872 49.9353,27.3991 61.427,27.3109 72.9186,27.2227 84.4103,27.1345 95.902,27.0464 118.885,26.87 130.377,26.7818 141.869,26.6937 153.36,26.6055 164.852,26.5173 176.344,26.4291 187.835,26.341 202.741,26.2266 202.732,31.0479 202.732,31.0479 202.706,43.9467 202.681,56.8455 202.656,69.7442 202.656,69.7443 202.63,82.643 202.622,86.7274 202.122,86.6765 202.621,87.0641 202.579,108.441 202.579,108.441 202.554,121.339 202.503,147.137 202.503,147.137 202.478,160.036 202.452,172.935 202.452,172.935 202.427,185.487 202.152,185.683 201.775,185.899 202.426,186.261 202.401,198.732 202.376,211.631 202.376,211.631 202.35,224.53 202.351,224.607 202.438,235.902 202.438,235.962 202.603,246.779 202.605,246.888 202.902,257.194 202.909,257.36 203.394,267.122 203.409,267.357 204.137,276.541 204.169,276.86 205.195,285.433 205.257,285.854 206.637,293.783 206.752,294.327 208.542,301.578 208.745,302.268 210.999,308.807 211.347,309.654 214.121,315.449 214.683,316.436 218.032,321.453 218.875,322.51 222.855,326.714 223.99,327.707 228.655,331.067 229.993,331.846 235.4,334.327 236.774,334.812 242.977,336.381 244.234,336.594 251.288,337.219 251.631,333.347 252.045,334.443 252.341,335.5 252.461,337.231 259.722,336.73 260.985,336.541 267.332,335.063 268.74,334.594 274.236,332.176 275.627,331.389 280.333,328.067 281.52,327.041 285.498,322.852 286.374,321.75 289.687,316.731 290.261,315.704 292.971,309.891 293.317,309.019 295.485,302.449 295.681,301.747 297.37,294.458 297.477,293.912 298.748,285.939 298.803,285.525 299.719,276.906 299.745,276.599 300.368,267.369 300.38,267.15 300.771,257.347 300.776,257.199 300.998,246.86 300.999,246.773 301.115,235.933 301.115,235.898 301.185,224.595 301.185,224.53 301.159,211.631 301.133,198.732 301.107,185.833 301.082,172.934 301.082,172.934 301.056,160.036 301.004,134.238 301.004,134.238 300.978,121.339 300.901,82.6428 300.901,82.6428 300.875,69.744 300.797,31.0476 300.797,31.0476 300.787,26.1135 304.576,26.0891 316.329,26.0136 328.082,25.938 339.836,25.8624 351.589,25.7869 363.342,25.7113 375.096,25.6358 386.849,25.5602 410.355,25.4091 422.108,25.3335 433.862,25.258 445.615,25.1824 457.368,25.1068 469.122,25.0313 472.823,25.0075 " fill="none" stroke-width="0.5" stroke="rgb(0,0,0)" />
	<polygon points="305.557,468.482 304.948,469.129 306.397,469.393 307.066,469.586 308.916,470.382 309.409,470.673 310.637,471.652 309.663,469.804 309.074,468.361 308.321,465.838 308.104,464.732 " fill="none" stroke-width="0.5" stroke="rgb(0,0,0)" />
	<polygon points="192.599,443.633 192.986,444.773 193.482,446.696 194.421,446.903 195.94,447.147 197.405,447.299 198.582,447.345 200.154,447.259 201.61,447.002 202.869,446.59 203.863,446.064 204.618,445.442 205.24,444.636 205.8,443.408 205.845,443.2 202.916,443.419 201.693,443.416 195.475,442.927 194.121,442.703 191.968,442.153 " fill="none" stroke-width="0.5" stroke="rgb(0,0,0)" />
	<polygon points="157.888,439.067 155.488,441.414 156.712,440.588 158.174,439.015 158.714,438.055 " fill="none" stroke-width="0.5" stroke="rgb(0,0,0)" />
	<polygon points="316.67,420.763 315.545,421.002 315.621,421.142 316.115,422.44 316.44,423.512 316.77,424.964 316.834,425.273 317.076,426.572 317.754,427.06 318.256,427.453 319.123,428.189 320.018,429.078 320.751,429.933 320.825,430.045 320.932,429.931 321.22,429.641 321.935,428.957 322.34,428.595 323.048,428.003 323.622,427.567 324.322,427.082 325.145,426.582 325.835,426.219 326.687,425.853 326.353,425.217 326.003,423.975 325.704,421.809 325.704,417.785 " fill="none" stroke-width="0.5" stroke="rgb(0,0,0)" />
	<polygon points="166.608,413.494 166.614,414.66 166.311,419.089 166.477,419.013 169.904,419.489 169.887,419.014 169.92,418.646 170.227,417.046 170.323,416.727 171.071,415.005 171.229,414.734 172.216,413.438 171.999,413.336 169.363,411.955 168.737,411.59 166.34,410.042 " fill="none" stroke-width="0.5" stroke="rgb(0,0,0)" />
	<polygon points="259.527,403.441 259.251,404.372 258.656,405.832 258.387,406.343 258.72,406.491 261.579,407.918 262.099,408.202 264.882,409.858 265.316,410.136 267.933,411.932 268.33,412.223 270.694,414.068 271.098,414.406 273.121,416.211 273.277,416.362 273.95,416.246 274.282,416.196 275.617,416.023 275.932,415.989 276.2,415.965 268.841,411.609 267.489,410.603 260.388,404.047 259.585,403.143 " fill="none" stroke-width="0.5" stroke="rgb(0,0,0)" />
	<polygon points="350.455,395.757 349.717,396.989 349.136,397.787 352.845,397.579 353.273,397.575 352.457,396.643 351.631,395.512 351.043,394.539 " fill="none" stroke-width="0.5" stroke="rgb(0,0,0)" />
	<polygon points="309.167,394.754 308.569,394.929 307.861,395.108 309.335,394.913 309.221,394.754 309.216,394.737 " fill="none" stroke-width="0.5" stroke="rgb(0,0,0)" />
	<polygon points="203.965,391.519 204.46,392.621 204.891,393.819 205.619,392.743 207.463,390.812 208.82,389.8 207.221,389.941 205.637,389.925 202.938,389.627 " fill="none" stroke-width="0.5" stroke="rgb(0,0,0)" />
	<polygon points="243.456,374.659 243.758,374.861 245.071,375.96 245.814,376.732 245.871,376.803 246.281,376.814 246.547,376.841 246.086,375.139 245.839,373.761 245.655,371.704 " fill="none" stroke-width="0.5" stroke="rgb(0,0,0)" />
	<polygon points="82.7984,367.889 81.8365,367.958 80.433,367.973 80.9813,369.359 81.5703,373.249 83.1862,371.809 84.224,371.026 85.7367,370.067 85.2114,369.62 84.1612,368.538 83.5594,367.789 " fill="none" stroke-width="0.5" stroke="rgb(0,0,0)" />
	<polygon points="357.76,370.553 357.734,370.807 358.582,370.516 358.587,370.515 358.299,370.327 357.736,369.874 " fill="none" stroke-width="0.5" stroke="rgb(0,0,0)" />
	<polygon points="324.903,368.379 325.457,368.343 325.081,368.097 " fill="none" stroke-width="0.5" stroke="rgb(0,0,0)" />
	<polygon points="117.958,358.022 117.547,360.212 117.152,361.548 120.226,361.27 119.583,360.553 118.916,359.583 117.986,357.7 " fill="none" stroke-width="0.5" stroke="rgb(0,0,0)" />
	<polygon points="294.342,359.264 294.13,359.331 294.759,359.798 294.935,359.932 295.512,360.386 295.498,359.755 295.547,358.721 " fill="none" stroke-width="0.5" stroke="rgb(0,0,0)" />
	<polygon points="394.217,342.569 393.513,343.074 392.492,343.727 390.458,344.656 389.622,344.904 388.133,345.026 388.92,347.255 389.245,348.669 392.748,345.733 394.667,344.542 396.537,343.72 396.061,343.146 395.88,342.92 395.077,341.878 " fill="none" stroke-width="0.5" stroke="rgb(0,0,0)" />
	<polygon points="59.2579,341.824 61.4601,345.366 61.811,343.741 62.3394,342.138 63.2002,340.231 62.4499,340.07 61.3707,339.758 58.9019,338.852 58.8949,338.848 " fill="none" stroke-width="0.5" stroke="rgb(0,0,0)" />
	<polygon points="160.511,335.317 159.496,336.496 157.315,338.581 155.982,339.61 154.266,340.667 155.981,341.707 156.938,342.387 159.287,344.333 159.558,344.59 159.547,344.314 159.605,342.531 159.642,341.984 159.821,340.22 159.91,339.592 160.216,337.915 160.399,337.135 160.838,335.611 161.214,334.579 161.529,333.871 " fill="none" stroke-width="0.5" stroke="rgb(0,0,0)" />
	<polygon points="415.637,333.754 414.179,333.912 414.191,333.977 414.212,334.102 414.436,335.471 414.48,335.771 414.638,337.041 414.688,337.606 414.748,338.735 414.756,339.391 414.747,339.724 414.709,340.307 414.697,340.424 418.181,340.721 418.29,340.739 416.949,338.127 415.926,333.699 " fill="none" stroke-width="0.5" stroke="rgb(0,0,0)" />
	<polygon points="165.639,323.49 165.4,324.842 164.65,327.657 164.183,328.95 163.27,330.927 163.317,330.861 165.024,329.114 165.899,328.456 168.187,327.398 166.426,324.731 165.66,323.249 " fill="none" stroke-width="0.5" stroke="rgb(0,0,0)" />
	<polygon points="75.7504,312.257 74.8607,315.669 74.573,318.333 74.5992,319.262 74.7139,320.349 74.9164,321.304 75.0008,321.549 75.2554,321.135 76.1886,319.901 77.6063,318.362 78.7594,317.332 80.4604,316.084 81.5746,315.421 80.8683,315.054 79.5636,314.206 78.1345,313.065 76.9917,311.949 76.2015,311.005 " fill="none" stroke-width="0.5" stroke="rgb(0,0,0)" />
	<polygon points="350.671,321.071 350.694,321.025 350.752,320.917 350.412,320.82 " fill="none" stroke-width="0.5" stroke="rgb(0,0,0)" />
	<polygon points="384.634,314.754 384.064,316.318 383.891,317.209 383.698,319.316 383.628,320.501 384.214,318.699 384.746,316.308 384.928,314.121 " fill="none" stroke-width="0.5" stroke="rgb(0,0,0)" />
	<polygon points="343.34,314.877 343.124,315.097 343.588,315.412 343.372,314.835 " fill="none" stroke-width="0.5" stroke="rgb(0,0,0)" />
	<polygon points="133.222,307.01 133.221,307.179 134.052,307.085 134.232,307.102 134.349,307.129 133.039,304.935 " fill="none" stroke-width="0.5" stroke="rgb(0,0,0)" />
	<polygon points="162.618,298.868 161.052,299.239 159.868,299.396 158.548,299.428 159.031,300.169 159.479,300.951 162.077,306.139 162.166,304.469 162.257,303.62 162.75,300.573 162.928,299.749 163.224,298.659 " fill="none" stroke-width="0.5" stroke="rgb(0,0,0)" />
	<polygon points="458.762,289.93 457.966,290.589 457.066,291.676 459.435,292.058 459.287,291.051 459.014,289.995 458.951,289.842 " fill="none" stroke-width="0.5" stroke="rgb(0,0,0)" />
	<polygon points="86.5149,288.828 87.2349,289.207 87.7564,289.621 87.7928,289.654 87.9304,288.986 88.2361,285.778 88.2462,285.495 " fill="none" stroke-width="0.5" stroke="rgb(0,0,0)" />
	<polygon points="157.26,228.411 157.056,228.829 157.859,229.717 158.771,233.778 158.711,235.204 158.688,235.562 158.529,237.384 158.512,237.551 158.288,239.623 158.279,239.701 158.021,241.877 158.019,241.895 157.764,244.009 157.549,245.87 157.414,247.24 157.393,247.648 158.271,248.151 160.39,251.688 160.855,253.313 161.006,253.934 161.372,255.745 161.44,256.131 161.731,258.059 161.761,258.274 162.005,260.252 162.014,260.326 162.234,262.252 162.445,263.974 162.446,263.979 162.688,264.056 162.757,264.139 162.826,261.644 163.967,257.671 165.494,254.778 167.113,252.822 166.415,252.977 162.604,251.869 159.794,249.066 158.848,243.317 159.085,242.201 159.287,241.156 159.464,240.117 159.613,239.086 159.733,238.062 159.821,237.044 159.875,236.031 159.891,235.142 159.801,233.313 159.533,231.621 159.049,229.929 158.295,228.185 157.833,227.413 " fill="none" stroke-width="0.5" stroke="rgb(0,0,0)" />
	<polygon points="131.293,252.079 131.776,251.533 131.524,250.487 130.894,248.447 130.708,247.89 " fill="none" stroke-width="0.5" stroke="rgb(0,0,0)" />
	<polygon points="382.221,248.071 381.396,249.064 380.939,249.513 381.362,249.216 383.741,248.075 383.98,248.006 382.971,246.953 " fill="none" stroke-width="0.5" stroke="rgb(0,0,0)" />
	<polygon points="327.692,236.512 326.073,236.511 325.586,236.462 327.14,238.219 329.217,241.686 329.734,241.427 330.48,241.14 330.257,240.731 329.647,239.288 328.943,237.027 328.814,236.398 " fill="none" stroke-width="0.5" stroke="rgb(0,0,0)" />
	<polygon points="312.714,226.647 310.855,227.235 310.421,227.325 310.944,227.913 312.977,229.123 314.394,229.738 314.093,229.294 313.448,228.107 312.837,226.666 312.818,226.602 " fill="none" stroke-width="0.5" stroke="rgb(0,0,0)" />
	<polygon points="88.2552,214.683 89.0998,215.987 89.456,216.675 89.9534,217.86 90.2053,218.628 90.4741,219.688 90.6237,220.509 90.6965,221.118 92.8129,220.433 93.5419,220.311 95.9814,220.279 96.6252,220.369 98.7726,220.987 99.3842,221.26 99.5306,221.35 99.6016,220.394 99.7786,219.213 100.518,215.958 98.009,216.235 96.2461,216.233 93.0569,215.877 91.2625,215.463 88.3983,214.444 87.8514,214.176 " fill="none" stroke-width="0.5" stroke="rgb(0,0,0)" />
	<polygon points="438.562,213.455 437.942,213.63 432.821,214.861 432.096,215 428.212,215.561 431.844,218.574 433.088,219.869 433.572,220.5 433.597,220.443 434.363,219.057 436.886,215.403 437.646,214.463 438.611,213.438 " fill="none" stroke-width="0.5" stroke="rgb(0,0,0)" />
	<polygon points="68.0492,218.443 68.2386,218.737 68.9012,217.609 68.0873,217.396 66.7476,216.911 " fill="none" stroke-width="0.5" stroke="rgb(0,0,0)" />
	<polygon points="190.186,213.979 191.395,216.38 191.439,216.501 193.122,216.045 192.975,215.765 192.481,215.196 191.695,214.622 190.388,214.019 190.173,213.96 " fill="none" stroke-width="0.5" stroke="rgb(0,0,0)" />
	<polygon points="381.398,203.281 380.541,204.544 380.151,205.017 380.599,205.386 380.925,205.712 382.618,203.534 383.405,203.193 382.05,202.088 " fill="none" stroke-width="0.5" stroke="rgb(0,0,0)" />
	<polygon points="368.25,179.87 368.25,180.06 368.469,180.06 368.172,179.11 " fill="none" stroke-width="0.5" stroke="rgb(0,0,0)" />
	<polygon points="146.769,176.153 145.859,176.394 146.752,177.248 147.144,176.026 " fill="none" stroke-width="0.5" stroke="rgb(0,0,0)" />
	<polygon points="108.22,164.351 107.185,165.207 105.917,166.065 104.731,166.712 103.288,167.324 102.148,167.681 104.789,169.475 105.61,170.114 108.609,172.78 109.427,173.624 111.97,176.662 112.516,175.658 113.64,174.081 115.026,172.564 115.688,172.011 115.554,171.913 112.661,169.269 111.548,168.013 109.325,164.902 108.719,163.851 " fill="none" stroke-width="0.5" stroke="rgb(0,0,0)" />
	<polygon points="365.776,171.336 365.845,171.462 365.842,171.449 365.817,171.308 " fill="none" stroke-width="0.5" stroke="rgb(0,0,0)" />
	<polygon points="422.834,145.465 420.093,147.917 418.716,148.908 417.427,149.641 418.809,149.904 425.228,151.801 426.705,152.404 432.017,155.217 430.683,150.563 430.6,147.663 429.905,147.42 428.226,146.682 426.807,145.877 425.447,144.909 424.235,143.79 " fill="none" stroke-width="0.5" stroke="rgb(0,0,0)" />
	<polygon points="355.832,144.691 356.866,144.587 358.468,144.587 359.808,144.722 361.278,145.021 357.919,142.083 356.952,141.075 356.258,140.21 " fill="none" stroke-width="0.5" stroke="rgb(0,0,0)" />
	<polygon points="127.285,138.28 127.644,139.354 127.959,140.865 127.965,140.845 128.222,139.813 128.432,138.803 128.594,137.828 128.623,137.592 " fill="none" stroke-width="0.5" stroke="rgb(0,0,0)" />
	<polygon points="313.057,126.195 312.185,126.796 311.469,127.483 310.938,128.186 310.612,128.806 310.241,129.981 309.526,131.127 310.12,131.368 310.929,131.594 311.784,131.73 312.828,131.783 313.053,131.776 313.49,131.742 314.043,131.682 314.682,131.599 315.267,131.52 315.168,131.362 314.984,131.007 314.522,129.932 314.393,129.559 314.105,128.489 314.029,128.103 313.895,127.066 313.87,126.673 313.887,125.808 " fill="none" stroke-width="0.5" stroke="rgb(0,0,0)" />
	<polygon points="185.661,112.592 185.431,113.336 184.883,114.669 184.547,115.314 183.549,116.798 183.098,117.328 181.573,118.714 180.999,119.113 179.119,120.082 178.414,120.333 176.549,120.757 175.705,120.844 175.454,120.825 175.455,120.826 176.893,124.56 179.367,122.84 180.345,122.258 183.465,120.691 184.716,120.19 187.937,119.206 189.453,118.899 191.621,118.674 187.7,114.043 187.438,113.717 185.878,111.666 " fill="none" stroke-width="0.5" stroke="rgb(0,0,0)" />
	<polygon points="92.9647,115.438 92.4375,115.886 90.1743,117.649 89.0228,118.397 86.6847,119.644 84.4661,120.434 82.0648,120.907 81.59,120.928 81.703,122.912 81.7139,123.544 81.6922,124.522 82.5421,124.058 83.9859,123.445 85.2948,123.035 86.8737,122.711 88.2767,122.568 89.8978,122.568 91.3028,122.711 92.8796,123.034 94.1905,123.444 94.2115,123.453 93.6524,119.273 93.6312,119.1 93.1983,115.221 " fill="none" stroke-width="0.5" stroke="rgb(0,0,0)" />
	<polygon points="125.13,114.474 125.264,114.316 126.138,113.444 126.105,113.414 125.546,112.81 " fill="none" stroke-width="0.5" stroke="rgb(0,0,0)" />
	<polygon points="416.251,105.752 416.235,105.172 416.439,104.774 416.31,104.772 416.154,104.769 415.147,104.74 " fill="none" stroke-width="0.5" stroke="rgb(0,0,0)" />
	<polygon points="394.789,103.88 395.332,104.704 396.42,104.348 398.011,103.749 398.476,103.569 398.465,103.568 395.039,103.143 394.888,103.123 394.105,103.011 " fill="none" stroke-width="0.5" stroke="rgb(0,0,0)" />
	<polygon points="146.604,104.231 148.147,104.118 146.816,103.047 " fill="none" stroke-width="0.5" stroke="rgb(0,0,0)" />
	<polygon points="384.072,98.116 384.201,98.1238 384.153,98.0549 " fill="none" stroke-width="0.5" stroke="rgb(0,0,0)" />
	<polygon points="67.1791,96.3364 68.7878,97.0782 68.8346,96.718 68.8361,96.7065 69.0116,95.3719 " fill="none" stroke-width="0.5" stroke="rgb(0,0,0)" />
	<polygon points="126.763,67.5121 126.654,67.9656 125.807,71.0727 125.581,71.6508 125.653,71.6974 125.88,70.8325 126.141,70.0745 127.021,68.2858 127.39,67.7244 128.955,66.1107 127.491,64.0732 127.489,64.0707 " fill="none" stroke-width="0.5" stroke="rgb(0,0,0)" />
	<polygon points="103.915,62.8574 102.078,64.4304 101.879,64.5954 100.098,66.0233 99.3303,66.5675 98.0034,67.3958 98.0223,67.4615 98.2554,68.5571 98.3631,69.3237 98.3854,69.5727 99.9573,68.6446 102.015,67.9311 105.051,67.6785 104.945,66.4203 104.925,66.0855 104.783,62.6773 104.736,62.1889 " fill="none" stroke-width="0.5" stroke="rgb(0,0,0)" />
	<polygon points="411.345,62.9545 412.964,64.5284 414.67,66.1295 416.337,67.4681 417.924,68.4317 419.395,68.9853 421.225,69.2162 421.254,69.2149 421.69,69.1487 421.855,69.1005 421.855,69.0934 421.605,68.2626 420.344,66.9599 417.003,64.9834 412.346,63.054 410.937,62.5868 " fill="none" stroke-width="0.5" stroke="rgb(0,0,0)" />
	<polygon points="397.85,38.9562 398.505,40.5306 398.726,41.275 399.432,40.9203 400.41,40.5083 403.382,39.4817 403.905,39.3208 406.247,38.6875 402.114,37.1209 398.189,36.0045 395.921,35.4368 " fill="none" stroke-width="0.5" stroke="rgb(0,0,0)" />
</svg>
