<?xml version="1.0" standalone="no" ?>
<!DOCTYPE svg PUBLIC "-//W3C//DTD SVG 1.1//EN" "http://www.w3.org/Graphics/SVG/1.1/DTD/svg11.dtd">
<svg width="500px" height="500px" xmlns="http://www.w3.org/2000/svg" version="1.1" >
	<polygon points="480.823,79.5055 480.515,80.2357 479.247,82.3335 473.931,88.8054 472.333,90.3082 467.37,93.8957 468.782,94.1857 470.283,94.6407 472.378,95.4927 473.93,96.3186 475.653,97.4776 477.06,98.6627 478.429,100.094 479.52,101.504 480.553,103.173 480.823,103.72 480.823,190.681 479,192.791 477.421,193.865 474.611,194.907 474.917,195.201 478.92,199.643 479.865,200.911 480.823,202.481 480.823,246.163 479.425,248.544 479.001,249.195 476.469,252.726 478.341,253.15 479.6,253.599 480.823,254.225 480.823,281.286 480.077,294.576 479.541,295.318 476.964,298.506 476.273,299.263 473.469,301.988 474.033,302.874 475.949,306.542 476.451,307.708 477.644,311.159 477.405,312.666 473.11,329.62 467.07,347.047 459.27,364.67 455.125,372.264 455.025,372.323 450.926,372.537 449.949,372.085 450.568,378.726 450.501,380.737 449.695,382.213 438.331,399.399 425.161,415.952 410.17,431.593 401.159,439.334 399.159,438.707 397.666,438.002 396.916,437.548 396.827,439.362 396.064,443.711 393.345,446.047 374.668,459.037 354.126,470.285 331.702,479.516 322.731,482.075 322.235,481.934 320.645,481.304 317.981,479.927 316.518,478.969 314.433,477.276 314.52,477.696 314.576,478.135 314.642,478.955 314.654,479.37 314.363,481.866 313.965,483.339 313.237,484.782 307.382,486.452 281.151,490.817 266.014,491.632 264.401,490.315 263.62,489.56 262.991,489.881 262.51,490.107 258.345,491.913 257.96,492.066 252.993,492.333 225.548,490.902 199.887,486.773 179.502,481.155 178.746,480.618 174.82,477.861 171.908,476.222 170.188,475.727 167.288,475.44 163.527,475.231 153.907,471.407 133.585,460.665 129.657,458.027 129.263,457.646 127.088,454.165 126.94,452.168 125.91,452.158 119.954,451.512 115.039,448.212 98.2672,434.295 83.2685,419.161 70.0408,403.057 69.9947,402.99 69.7725,401.211 69.7336,399.471 69.8534,397.971 68.7258,397.999 65.2925,396.084 58.5824,386.23 48.8916,368.927 40.9666,351.394 34.8057,333.879 33.9027,330.337 34.0063,329.834 36.9747,320.274 37.4615,319.048 39.7693,314.336 37.4284,314.288 35.4593,313.669 31.9802,311.559 30.1617,309.74 29.0996,308.329 27.7694,299.888 26.8905,283.906 26.8905,236.057 28.516,232.322 29.5082,230.614 30.1699,229.729 30.1243,229.711 28.0347,228.507 26.8905,227.611 26.8905,163.242 26.9047,163.183 27.1762,162.268 28.7483,157.885 29.2963,156.667 31.7229,152.234 32.6412,150.882 34.5449,148.586 33.9035,148.399 32.3614,147.78 30.0752,146.594 28.6615,145.672 26.8905,144.251 26.8905,110.725 27.1616,110.454 28.1601,109.6 29.5543,108.582 29.0944,108.297 27.5838,107.109 27.1887,106.719 26.8905,106.343 26.8905,90.115 28.3964,87.8388 26.8905,87.3353 26.8905,41.0615 27.022,40.95 30.9127,38.1008 31.3284,37.8149 35.0367,35.4219 34.4627,35.2765 33.9932,35.1432 30.2427,33.9616 28.9537,33.4367 26.8905,32.3934 26.8905,19.5757 38.3822,19.4875 49.8739,19.3993 61.3656,19.3111 72.8572,19.223 84.3489,19.1348 95.8406,19.0466 107.332,18.9584 116.702,18.8865 116.903,19.1103 117.106,19.3455 118.265,20.735 118.608,21.0549 118.805,21.0833 119.013,21.0535 119.496,20.6293 120.743,19.254 120.963,19.02 121.126,18.8526 130.316,18.7821 141.807,18.6939 153.299,18.6057 157.227,18.5756 157.897,20.7027 158.99,19.9145 160.496,19.0461 161.622,18.5419 164.791,18.5175 176.282,18.4294 187.774,18.3412 210.757,18.1648 210.732,31.0636 210.706,43.9624 210.681,56.8612 210.679,57.9046 209.522,58.345 210.676,59.6679 210.656,69.76 210.63,82.6588 210.624,85.7916 210.178,86.0303 209.308,86.3941 207.911,86.8418 206.907,87.0705 205.607,87.2634 204.478,87.3428 203.865,87.3332 204.547,87.8628 204.774,88.0451 209.069,91.6204 209.358,91.8722 210.61,93.0127 210.579,108.456 210.554,121.355 210.503,147.153 210.478,160.052 210.452,172.95 210.444,177.173 209.596,178.73 208.782,179.959 207,182.201 205.922,183.329 203.781,185.194 202.84,185.865 203.353,186.15 205.752,187.794 207.072,188.911 209.045,190.956 210.175,192.415 210.413,192.801 210.401,198.748 210.376,211.647 210.363,218.328 209.915,219.134 209.709,219.485 208.883,220.817 207.397,222.268 209.588,224.296 210.207,224.931 210.355,225.099 210.438,235.84 210.602,246.657 210.899,256.963 211.235,263.725 211.196,263.776 211.005,264.016 208.822,266.657 207.321,268.654 206.907,269.428 206.995,269.57 208.188,270.777 210.36,272.606 210.508,272.734 211.962,274.016 212.112,275.909 213.138,284.482 214.519,292.41 216.308,299.661 218.563,306.2 221.336,311.994 224.685,317.011 228.665,321.215 233.33,324.575 238.737,327.056 244.939,328.626 250.12,329.084 250.532,329.758 252.041,332.883 252.575,334.295 252.631,334.494 253.932,332.053 254.824,330.705 256.24,328.951 259.171,328.749 265.518,327.271 271.013,324.853 275.719,321.532 279.698,317.343 283.01,312.324 285.72,306.511 287.888,299.942 289.576,292.653 290.848,284.68 291.763,276.06 292.298,268.142 292.627,267.814 294.22,266.565 295.232,265.95 295.777,265.7 293.515,263.759 292.553,262.643 292.778,257.028 293,246.688 293.115,235.848 293.185,224.546 293.184,224.056 293.666,223.124 293.181,222.639 293.159,211.647 293.133,198.748 293.13,197.127 293.988,196.267 295.466,195.041 296.767,194.155 296.131,193.215 295.484,192.028 294.83,190.487 294.42,189.178 294.075,187.492 293.932,186.089 293.932,184.354 294.075,182.953 294.421,181.266 294.831,179.957 295.485,178.417 296.132,177.231 297.048,175.878 297.343,175.521 295.129,174.085 293.717,172.774 293.08,172.035 293.056,160.052 293.004,134.254 292.992,128.037 293.604,127.457 293.428,126.724 293.345,126.339 293.198,125.578 293.129,125.163 293.019,124.389 292.984,124.079 292.978,121.355 292.975,119.697 293.123,117.954 293.364,116.54 294.133,113.564 294.634,112.151 295.948,109.274 296.761,107.865 297.903,106.261 296.949,106.406 296.713,106.405 296.238,106.388 296.047,106.376 294.772,106.199 294.621,106.166 292.946,105.533 292.902,83.4514 293.014,83.2478 293.219,82.8714 292.901,82.7801 292.901,82.6588 292.875,69.76 292.817,41.0062 292.934,40.9428 293.284,40.7596 292.815,40.073 292.797,31.0636 292.771,18.1648 304.525,18.0893 305.68,18.0819 305.918,18.2044 306.092,18.2967 307.752,19.2003 307.866,18.6631 308.029,18.0668 316.278,18.0137 328.031,17.9382 339.784,17.8626 351.538,17.787 363.291,17.7115 375.044,17.6359 378.857,17.6114 379.362,17.8431 380.856,18.7217 385.957,22.4663 387.173,20.123 387.799,19.395 390.238,17.5382 410.304,17.4092 422.057,17.3337 433.81,17.2581 442.646,17.2013 443.511,17.8159 445.443,19.5821 445.958,18.7948 447.279,17.1715 457.317,17.107 469.07,17.0314 480.823,16.9559 " fill="none" stroke-width="0.5" stroke="rgb(0,0,0)" />
	<polygon points="306.027,468.769 306.55,468.864 307.219,469.057 309.097,469.866 308.547,468.518 307.83,466.115 " fill="none" stroke-width="0.5" stroke="rgb(0,0,0)" />
	<polygon points="193.105,443.417 193.519,444.636 193.93,446.231 194.524,446.362 196.012,446.601 197.444,446.75 198.577,446.794 200.091,446.712 201.476,446.468 202.653,446.082 203.556,445.604 204.221,445.057 204.766,444.351 205.011,443.814 202.957,443.967 201.65,443.965 195.432,443.476 193.985,443.236 192.91,442.961 " fill="none" stroke-width="0.5" stroke="rgb(0,0,0)" />
	<polygon points="316.842,421.285 316.307,421.399 316.629,422.244 316.976,423.39 317.306,424.842 317.375,425.172 317.576,426.254 318.076,426.614 318.612,427.034 319.479,427.769 320.435,428.72 320.864,429.221 321.555,428.559 321.987,428.173 322.696,427.581 323.309,427.115 324.009,426.63 324.888,426.096 325.578,425.732 325.935,425.579 325.823,425.366 325.474,424.124 325.154,421.809 325.154,418.545 " fill="none" stroke-width="0.5" stroke="rgb(0,0,0)" />
	<polygon points="167.156,413.452 167.162,414.698 166.891,418.661 169.342,418.94 169.372,418.598 169.701,416.888 169.797,416.569 170.596,414.728 170.753,414.458 171.381,413.633 169.108,412.442 168.439,412.052 166.974,411.106 " fill="none" stroke-width="0.5" stroke="rgb(0,0,0)" />
	<polygon points="271.032,413.635 271.464,413.995 273.456,415.773 273.856,415.704 274.212,415.65 274.521,415.61 270.561,413.267 " fill="none" stroke-width="0.5" stroke="rgb(0,0,0)" />
	<polygon points="259.778,404.528 259.143,406.087 261.825,407.426 262.38,407.729 265.163,409.386 265.627,409.682 265.837,409.827 260.014,404.451 259.855,404.271 " fill="none" stroke-width="0.5" stroke="rgb(0,0,0)" />
	<polygon points="350.95,395.996 350.245,397.174 352.101,397.07 352.043,397.005 351.161,395.797 351.097,395.692 " fill="none" stroke-width="0.5" stroke="rgb(0,0,0)" />
	<polygon points="204.448,391.257 204.977,392.435 205.042,392.615 205.164,392.434 207.024,390.487 205.576,390.471 203.923,390.289 " fill="none" stroke-width="0.5" stroke="rgb(0,0,0)" />
	<polygon points="244.229,374.542 245.468,375.579 245.701,375.821 245.555,375.283 245.291,373.81 245.236,373.189 " fill="none" stroke-width="0.5" stroke="rgb(0,0,0)" />
	<polygon points="82.8703,368.435 81.8424,368.508 81.2235,368.514 81.5251,369.277 81.9621,372.163 82.8203,371.398 83.9295,370.562 84.8167,369.999 83.7323,368.883 83.3244,368.375 " fill="none" stroke-width="0.5" stroke="rgb(0,0,0)" />
	<polygon points="118.087,360.313 117.906,360.928 119.099,360.82 118.463,359.895 118.248,359.459 " fill="none" stroke-width="0.5" stroke="rgb(0,0,0)" />
	<polygon points="394.562,342.998 393.81,343.538 392.788,344.19 390.614,345.184 389.779,345.431 388.885,345.504 389.438,347.072 389.577,347.673 392.395,345.312 394.446,344.038 395.648,343.51 395.638,343.498 395.445,343.256 394.984,342.658 " fill="none" stroke-width="0.5" stroke="rgb(0,0,0)" />
	<polygon points="59.7892,341.637 61.2094,343.921 61.2734,343.625 61.8382,341.911 62.4185,340.626 62.3345,340.608 61.1811,340.274 59.5499,339.675 " fill="none" stroke-width="0.5" stroke="rgb(0,0,0)" />
	<polygon points="159.876,336.894 157.695,338.979 156.271,340.079 155.321,340.664 156.266,341.237 157.288,341.964 159.026,343.403 159.056,342.513 159.095,341.929 159.274,340.165 159.369,339.494 159.675,337.816 159.87,336.982 159.906,336.86 " fill="none" stroke-width="0.5" stroke="rgb(0,0,0)" />
	<polygon points="414.818,334.396 414.979,335.382 415.025,335.703 415.184,336.973 415.238,337.577 415.298,338.706 415.306,339.406 415.297,339.74 415.285,339.922 417.362,340.099 416.413,338.25 415.505,334.321 " fill="none" stroke-width="0.5" stroke="rgb(0,0,0)" />
	<polygon points="165.932,324.983 165.182,327.798 164.93,328.497 165.569,328.016 167.382,327.177 165.967,325.034 165.934,324.971 " fill="none" stroke-width="0.5" stroke="rgb(0,0,0)" />
	<polygon points="76.2764,312.42 75.4032,315.768 75.1238,318.355 75.1484,319.225 75.2543,320.229 75.7841,319.529 77.2019,317.99 78.4342,316.888 80.1352,315.641 80.4646,315.445 79.2204,314.636 77.7914,313.495 76.57,312.302 76.3945,312.092 " fill="none" stroke-width="0.5" stroke="rgb(0,0,0)" />
	<polygon points="161.124,299.784 159.941,299.941 159.539,299.951 159.971,300.705 161.657,304.071 161.714,303.532 162.207,300.485 162.397,299.605 162.432,299.475 " fill="none" stroke-width="0.5" stroke="rgb(0,0,0)" />
	<polygon points="458.356,290.979 458.103,291.286 458.782,291.395 458.747,291.161 458.64,290.745 " fill="none" stroke-width="0.5" stroke="rgb(0,0,0)" />
	<polygon points="87.2509,288.605 87.4064,288.687 87.4509,288.22 " fill="none" stroke-width="0.5" stroke="rgb(0,0,0)" />
	<polygon points="160.918,251.537 161.384,253.162 161.546,253.825 161.911,255.636 161.984,256.049 162.275,257.977 162.307,258.207 162.551,260.185 162.56,260.263 162.586,260.487 163.439,257.519 165.07,254.427 165.943,253.373 162.569,252.482 160.124,250.236 " fill="none" stroke-width="0.5" stroke="rgb(0,0,0)" />
	<polygon points="158.096,245.929 157.963,247.282 157.961,247.327 158.552,247.659 159.188,248.701 158.166,245.838 158.22,244.857 " fill="none" stroke-width="0.5" stroke="rgb(0,0,0)" />
	<polygon points="159.26,235.228 159.236,235.61 159.077,237.432 159.059,237.611 158.834,239.682 158.825,239.766 158.567,241.942 158.565,241.961 158.554,242.051 158.746,241.057 158.92,240.032 159.067,239.015 159.185,238.006 159.272,237.005 159.325,236.011 159.341,235.151 159.299,234.302 " fill="none" stroke-width="0.5" stroke="rgb(0,0,0)" />
	<polygon points="327.747,237.059 326.836,237.059 327.612,237.936 329.428,240.968 329.536,240.914 329.712,240.846 329.122,239.451 328.418,237.191 328.378,236.995 " fill="none" stroke-width="0.5" stroke="rgb(0,0,0)" />
	<polygon points="159.263,233.564 159.254,233.37 158.995,231.74 158.53,230.115 158.3,229.581 " fill="none" stroke-width="0.5" stroke="rgb(0,0,0)" />
	<polygon points="157.746,228.668 157.728,228.706 158.082,229.078 157.837,228.511 " fill="none" stroke-width="0.5" stroke="rgb(0,0,0)" />
	<polygon points="311.504,227.607 313.049,228.526 312.965,228.37 312.507,227.289 " fill="none" stroke-width="0.5" stroke="rgb(0,0,0)" />
	<polygon points="89.5882,215.734 89.9445,216.422 90.476,217.689 90.7279,218.457 91.0152,219.589 91.162,220.395 92.7218,219.891 93.4508,219.768 96.0581,219.734 96.7019,219.825 98.9969,220.484 99.0418,220.504 99.0531,220.353 99.2423,219.091 99.8109,216.59 98.0692,216.781 96.1851,216.78 92.9958,216.424 91.0781,215.982 89.3503,215.367 " fill="none" stroke-width="0.5" stroke="rgb(0,0,0)" />
	<polygon points="432.95,215.395 432.175,215.544 429.516,215.928 432.195,218.151 433.492,219.5 433.91,218.744 436.433,215.09 436.967,214.43 " fill="none" stroke-width="0.5" stroke="rgb(0,0,0)" />
	<polygon points="191.756,215.875 192.21,215.723 192.106,215.604 191.414,215.099 191.35,215.069 " fill="none" stroke-width="0.5" stroke="rgb(0,0,0)" />
	<polygon points="381.988,203.349 382.444,203.119 382.215,202.933 " fill="none" stroke-width="0.5" stroke="rgb(0,0,0)" />
	<polygon points="108.57,164.775 107.535,165.631 106.18,166.548 104.994,167.195 103.453,167.849 103.399,167.866 105.098,169.02 105.976,169.703 108.974,172.369 109.849,173.271 111.873,175.689 112.033,175.395 113.234,173.71 114.62,172.193 114.842,172.007 112.29,169.675 111.1,168.333 108.878,165.222 108.602,164.743 " fill="none" stroke-width="0.5" stroke="rgb(0,0,0)" />
	<polygon points="423.201,145.875 420.46,148.327 418.99,149.384 425.384,151.274 426.963,151.918 431.132,154.126 430.154,150.715 430.056,148.054 429.684,147.924 428.005,147.186 426.488,146.325 425.128,145.358 424.285,144.578 " fill="none" stroke-width="0.5" stroke="rgb(0,0,0)" />
	<polygon points="356.443,144.077 356.811,144.04 358.523,144.04 359.425,144.131 357.557,142.497 356.68,141.582 " fill="none" stroke-width="0.5" stroke="rgb(0,0,0)" />
	<polygon points="312.533,127.224 311.881,127.849 311.404,128.481 311.122,129.018 310.765,130.147 310.331,130.856 311.047,131.056 311.841,131.183 312.833,131.233 313.023,131.227 313.439,131.195 313.978,131.135 314.418,131.079 314.002,130.112 313.873,129.738 313.565,128.595 313.489,128.209 313.346,127.101 313.321,126.708 313.322,126.681 " fill="none" stroke-width="0.5" stroke="rgb(0,0,0)" />
	<polygon points="185.957,113.498 185.371,114.923 185.035,115.568 183.968,117.154 183.517,117.685 181.887,119.165 181.313,119.565 179.304,120.6 178.599,120.851 176.605,121.304 176.243,121.342 177.154,123.708 179.053,122.388 180.099,121.766 183.219,120.2 184.555,119.665 187.777,118.68 189.396,118.352 190.528,118.234 187.28,114.398 187.001,114.05 186.137,112.915 " fill="none" stroke-width="0.5" stroke="rgb(0,0,0)" />
	<polygon points="90.5123,118.083 89.2816,118.882 86.9435,120.129 84.5724,120.974 82.1711,121.447 82.1705,121.447 82.2521,122.88 82.2638,123.556 82.2632,123.583 82.2786,123.575 83.8215,122.92 85.1305,122.51 86.8179,122.164 88.221,122.021 89.9534,122.021 91.3585,122.164 93.0437,122.509 93.5516,122.668 93.1073,119.346 93.0846,119.161 92.7682,116.326 " fill="none" stroke-width="0.5" stroke="rgb(0,0,0)" />
	<polygon points="395.56,104.051 396.201,103.841 395.353,103.736 " fill="none" stroke-width="0.5" stroke="rgb(0,0,0)" />
	<polygon points="102.436,64.8482 102.223,65.0246 100.442,66.4525 99.6216,67.034 98.6247,67.6563 98.8001,68.4806 98.8288,68.6849 99.7772,68.1249 101.835,67.4115 104.456,67.1715 104.397,66.4661 104.375,66.1083 104.258,63.2882 " fill="none" stroke-width="0.5" stroke="rgb(0,0,0)" />
	<polygon points="413.344,64.1307 415.031,65.714 416.653,67.0167 418.165,67.935 419.528,68.4478 421.148,68.6522 421.117,68.5492 420,67.3956 416.756,65.4766 413.223,64.0127 " fill="none" stroke-width="0.5" stroke="rgb(0,0,0)" />
	<polygon points="127.459,66.8768 128.245,66.0661 127.77,65.4043 " fill="none" stroke-width="0.5" stroke="rgb(0,0,0)" />
	<polygon points="398.332,38.6919 399.033,40.3745 399.066,40.4885 399.185,40.4288 400.23,39.9884 403.202,38.9618 403.761,38.7898 404.464,38.5999 401.941,37.6435 398.047,36.5359 397.008,36.2758 " fill="none" stroke-width="0.5" stroke="rgb(0,0,0)" />
</svg>
