<?xml version="1.0" standalone="no" ?>
<!DOCTYPE svg PUBLIC "-//W3C//DTD SVG 1.1//EN" "http://www.w3.org/Graphics/SVG/1.1/DTD/svg11.dtd">
<svg width="500px" height="500px" xmlns="http://www.w3.org/2000/svg" version="1.1" >
	<polygon points="469.473,280.968 468.671,295.254 466.276,310.38 462.226,326.362 456.5,342.884 449.081,359.646 439.963,376.354 429.138,392.723 416.605,408.476 402.357,423.342 386.388,437.06 368.685,449.373 349.225,460.029 327.973,468.777 304.886,475.362 279.91,479.517 252.983,480.967 226.749,479.599 202.303,475.665 179.622,469.415 158.669,461.086 139.416,450.909 121.844,439.11 105.94,425.913 91.7028,411.548 79.1351,396.247 68.2428,380.252 59.0329,363.807 51.5109,347.166 45.6796,330.587 41.5364,314.337 39.0707,298.69 38.2405,283.594 38.2405,30.8389 38.4693,30.8372 49.961,30.749 61.4527,30.6608 72.9443,30.5726 118.911,30.2199 130.403,30.1317 141.894,30.0436 153.386,29.9554 164.878,29.8672 176.369,29.779 187.861,29.6909 199.385,29.6024 199.382,31.0413 199.382,31.0413 199.356,43.94 199.331,56.8388 199.306,69.7376 199.306,69.7377 199.28,82.6364 199.229,108.434 199.229,108.434 199.204,121.333 199.153,147.13 199.153,147.13 199.128,160.029 199.102,172.928 199.102,172.928 199.077,185.827 199.051,198.726 199.026,211.624 199.026,211.624 199,224.523 199.001,224.633 199.088,235.928 199.089,236.013 199.253,246.83 199.257,246.984 199.554,257.29 199.563,257.526 200.048,267.288 200.069,267.622 200.797,276.806 200.842,277.259 201.869,285.832 201.957,286.429 203.337,294.357 203.5,295.13 205.289,302.381 205.578,303.36 207.832,309.899 208.325,311.101 211.099,316.895 211.897,318.297 215.246,323.313 216.442,324.812 220.422,329.017 222.032,330.425 226.697,333.785 228.596,334.89 234.002,337.372 235.952,338.059 242.155,339.629 243.939,339.931 250.993,340.556 251.947,329.779 252.691,340.573 259.952,340.072 261.745,339.804 268.092,338.326 270.089,337.66 275.585,335.242 277.559,334.126 282.265,330.804 283.949,329.348 287.927,325.159 289.17,323.595 292.483,318.576 293.298,317.119 296.007,311.307 296.498,310.068 298.666,303.499 298.945,302.503 300.634,295.214 300.785,294.44 302.056,286.467 302.134,285.879 303.05,277.26 303.088,276.824 303.71,267.595 303.727,267.283 304.119,257.48 304.125,257.271 304.347,246.932 304.349,246.809 304.464,235.969 304.465,235.919 304.535,224.616 304.535,224.523 304.509,211.624 304.483,198.725 304.457,185.826 304.432,172.928 304.432,172.928 304.406,160.029 304.354,134.231 304.354,134.231 304.328,121.332 304.251,82.6361 304.251,82.6361 304.225,69.7373 304.147,31.0409 304.147,31.0409 304.144,29.442 304.598,29.4391 316.351,29.3635 316.351,29.3635 328.104,29.2879 339.857,29.2124 351.611,29.1368 363.364,29.0612 375.117,28.9857 386.87,28.9101 410.377,28.759 422.13,28.6834 433.883,28.6079 445.637,28.5323 457.39,28.4568 469.143,28.3812 469.473,28.3791 " fill="none" stroke-width="0.5" stroke="rgb(0,0,0)" />
	<polygon points="319.816,423.253 320.037,424.221 320.127,424.659 320.129,424.668 320.424,424.899 320.981,425.371 321.714,424.813 322.415,424.328 322.68,424.167 322.435,422.39 " fill="none" stroke-width="0.5" stroke="rgb(0,0,0)" />
</svg>
