<?xml version="1.0" standalone="no" ?>
<!DOCTYPE svg PUBLIC "-//W3C//DTD SVG 1.1//EN" "http://www.w3.org/Graphics/SVG/1.1/DTD/svg11.dtd">
<svg width="500px" height="500px" xmlns="http://www.w3.org/2000/svg" version="1.1" >
	<polygon points="473.423,87.6121 473.043,88.0755 471.659,89.3762 464.626,94.4605 464.168,94.724 466.065,94.8017 468.551,95.3122 469.85,95.706 471.945,96.558 473.288,97.2728 473.423,97.364 473.423,194.087 473.174,194.175 471.895,194.069 473.295,195.233 473.423,195.356 473.423,281.078 472.604,295.674 470.149,311.176 466.014,327.496 460.178,344.333 452.627,361.395 443.35,378.393 432.337,395.046 419.582,411.077 405.076,426.214 388.809,440.188 370.767,452.736 350.93,463.598 329.271,472.514 315.301,476.499 315.044,476.29 313.977,475.227 312.252,473.113 311.437,471.884 310.194,469.525 309.648,468.189 308.896,465.666 308.622,464.266 308.486,462.872 307.827,464.072 305.061,468.145 303.665,469.629 303.903,469.634 304.774,469.704 306.231,469.97 306.9,470.162 308.611,470.899 309.105,471.19 310.725,472.482 311.07,472.847 312.212,474.43 312.434,474.844 313.026,476.301 313.152,476.74 313.224,477.091 305.755,479.221 280.342,483.45 252.986,484.923 226.331,483.533 201.462,479.531 178.364,473.166 157.012,464.678 137.387,454.304 119.475,442.277 103.27,428.83 88.7675,414.197 75.9701,398.617 64.8808,382.332 55.5035,365.589 47.8413,348.637 41.8953,331.733 38.6888,319.157 41.5725,313.269 37.7736,313.191 37.3353,313.053 35.1377,299.107 34.2905,283.702 34.2905,150.694 36.5474,147.973 34.2905,147.314 34.2905,37.272 36.412,35.9031 36.5099,35.8409 37.9154,34.9648 34.7452,34.1617 34.3388,34.0463 34.2905,34.0311 34.2905,26.9191 38.439,26.8873 49.9307,26.7991 61.4224,26.7109 72.914,26.6227 84.4057,26.5346 95.8974,26.4464 107.389,26.3582 118.881,26.27 130.372,26.1819 141.864,26.0937 153.356,26.0055 176.339,25.8292 187.831,25.741 203.343,25.622 203.332,31.049 203.332,31.0491 203.306,43.9478 203.281,56.8466 203.256,69.7454 203.256,69.7454 203.23,82.6442 203.223,86.1773 203.129,86.1758 200.102,85.8677 203.219,88.2876 203.179,108.442 203.179,108.442 203.154,121.341 203.103,147.138 203.103,147.138 203.078,160.037 203.052,172.936 203.052,172.936 203.03,184.323 203.025,184.327 201.853,185.163 200.451,185.969 201.492,186.426 202.703,187.098 203.024,187.318 203.001,198.733 202.976,211.632 202.976,211.632 202.95,224.531 202.951,224.603 203.038,235.897 203.038,235.953 203.203,246.77 203.205,246.87 203.502,257.176 203.508,257.33 203.993,267.092 204.007,267.31 204.735,276.494 204.764,276.789 205.791,285.362 205.848,285.751 207.229,293.68 207.334,294.184 209.124,301.434 209.312,302.072 211.567,308.612 211.888,309.395 214.662,315.19 215.182,316.103 218.531,321.119 219.311,322.097 223.29,326.302 224.34,327.22 229.006,330.58 230.243,331.3 235.65,333.782 236.921,334.23 243.124,335.8 244.287,335.997 251.341,336.621 251.507,334.746 252.297,337.565 252.808,336.606 259.68,336.132 260.849,335.956 267.196,334.479 268.498,334.045 273.994,331.627 275.281,330.899 279.987,327.577 281.085,326.628 285.063,322.439 285.874,321.419 289.186,316.4 289.718,315.45 292.427,309.638 292.747,308.831 294.915,302.261 295.097,301.612 296.785,294.323 296.884,293.818 298.155,285.845 298.206,285.462 299.122,276.842 299.147,276.558 299.769,267.329 299.78,267.126 300.172,257.323 300.176,257.187 300.398,246.847 300.399,246.767 300.515,235.927 300.515,235.894 300.585,224.591 300.585,224.531 300.533,198.733 300.507,185.834 300.482,172.936 300.482,172.936 300.456,160.037 300.404,134.239 300.404,134.239 300.378,121.34 300.345,105.021 300.599,104.733 301.1,104.272 300.791,104.418 300.344,104.561 300.301,82.644 300.301,82.644 300.275,69.7452 300.197,31.0488 300.197,31.0488 300.186,25.5173 304.572,25.4891 316.325,25.4136 328.079,25.338 339.832,25.2625 351.585,25.1869 363.338,25.1113 375.092,25.0358 386.845,24.9602 410.351,24.8091 422.105,24.7335 433.858,24.658 445.611,24.5824 457.364,24.5068 469.118,24.4313 473.423,24.4036 " fill="none" stroke-width="0.5" stroke="rgb(0,0,0)" />
	<polygon points="192.047,443.868 192.405,444.923 192.993,447.203 194.309,447.493 195.861,447.742 197.362,447.898 198.586,447.946 200.223,447.856 201.757,447.586 203.105,447.145 204.198,446.565 205.052,445.862 205.757,444.948 206.373,443.598 206.602,442.542 202.872,442.82 201.74,442.818 195.522,442.329 194.27,442.122 190.94,441.271 " fill="none" stroke-width="0.5" stroke="rgb(0,0,0)" />
	<polygon points="158.518,437.352 157.469,438.638 153.274,442.738 152.038,443.685 152.044,443.684 154.957,442.495 157.104,441.047 158.662,439.371 159.79,437.368 160.532,434.865 160.598,434.123 " fill="none" stroke-width="0.5" stroke="rgb(0,0,0)" />
	<polygon points="325.987,417.06 316.482,420.193 314.918,420.526 314.624,420.556 315.061,421.356 315.555,422.654 315.855,423.645 316.185,425.097 316.244,425.383 316.494,426.722 316.542,426.927 317.404,427.547 317.868,427.911 318.735,428.646 319.562,429.469 320.295,430.324 320.747,431.002 321.369,430.343 321.635,430.074 322.35,429.39 322.724,429.056 323.433,428.464 323.963,428.06 324.664,427.575 325.425,427.113 326.115,426.749 327.2,426.283 327.52,426.175 326.93,425.054 326.581,423.813 326.304,421.809 326.304,416.915 " fill="none" stroke-width="0.5" stroke="rgb(0,0,0)" />
	<polygon points="387.404,419.977 388.568,420.848 388.578,420.693 388.675,419.989 387.525,419.758 386.553,419.467 " fill="none" stroke-width="0.5" stroke="rgb(0,0,0)" />
	<polygon points="166.01,413.541 166.015,414.619 165.695,419.304 165.581,420.11 167.023,419.538 170.522,420.132 170.485,419.067 170.517,418.699 170.802,417.219 170.898,416.9 171.59,415.307 171.747,415.036 172.856,413.581 173.073,413.36 173.231,413.232 172.884,413.088 172.278,412.805 169.642,411.423 169.063,411.086 166.636,409.519 166.055,409.103 165.639,408.773 " fill="none" stroke-width="0.5" stroke="rgb(0,0,0)" />
	<polygon points="378.843,417.476 379.645,417.26 381.097,417.43 379.581,416.713 378.843,416.302 " fill="none" stroke-width="0.5" stroke="rgb(0,0,0)" />
	<polygon points="259.224,401.864 258.952,403.27 258.676,404.201 258.126,405.552 257.686,406.386 257.522,406.632 257.83,406.752 258.452,407.028 261.311,408.455 261.792,408.717 264.575,410.374 264.976,410.631 267.594,412.427 267.961,412.695 270.325,414.541 270.699,414.853 272.721,416.658 273.079,417.005 274.052,416.837 274.359,416.791 275.694,416.618 275.985,416.586 277.369,416.463 277.644,416.444 278.251,416.412 277.752,416.186 269.146,411.093 267.896,410.162 260.794,403.606 259.822,402.511 259.239,401.706 " fill="none" stroke-width="0.5" stroke="rgb(0,0,0)" />
	<polygon points="349.915,395.496 349.232,396.636 347.885,398.486 348.371,398.43 352.879,398.179 353.558,398.172 354.849,398.218 353.888,397.366 352.909,396.247 352.145,395.202 351.288,393.785 351.005,393.237 " fill="none" stroke-width="0.5" stroke="rgb(0,0,0)" />
	<polygon points="308.976,394.185 308.423,394.348 305.21,395.157 304.532,395.294 302.013,395.683 304.355,395.886 307.554,395.753 310.372,395.382 309.795,394.578 309.609,393.972 " fill="none" stroke-width="0.5" stroke="rgb(0,0,0)" />
	<polygon points="203.438,391.805 203.895,392.825 204.727,395.132 206.116,393.079 207.822,391.293 210.876,389.015 207.168,389.344 205.702,389.328 201.863,388.904 " fill="none" stroke-width="0.5" stroke="rgb(0,0,0)" />
	<polygon points="242.722,374.641 242.58,374.795 243.424,375.359 244.639,376.376 245.382,377.148 245.578,377.393 246.221,377.411 247.354,377.525 246.665,374.983 246.437,373.708 246.112,370.084 " fill="none" stroke-width="0.5" stroke="rgb(0,0,0)" />
	<polygon points="83.5614,367.183 82.7198,367.294 81.8302,367.358 79.5707,367.382 80.3881,369.449 81.1428,374.433 83.5853,372.257 84.5452,371.533 86.7453,370.138 85.6005,369.163 84.629,368.163 83.8118,367.145 " fill="none" stroke-width="0.5" stroke="rgb(0,0,0)" />
	<polygon points="357.163,370.492 357.04,371.69 357.207,371.621 358.776,371.084 359.355,370.912 360.047,370.736 359.923,370.672 358.675,369.86 357.084,368.578 356.516,368.017 " fill="none" stroke-width="0.5" stroke="rgb(0,0,0)" />
	<polygon points="324.703,367.577 323.943,368.782 323.73,369.057 326.971,368.846 327.455,368.794 326.447,368.277 325.149,367.429 324.885,367.214 " fill="none" stroke-width="0.5" stroke="rgb(0,0,0)" />
	<polygon points="117.481,355.304 117.495,356.455 117.369,357.911 116.957,360.101 116.532,361.539 116.244,362.241 116.333,362.225 120.584,361.84 121.605,361.85 121.352,361.633 120.077,360.213 119.41,359.243 118.472,357.343 118.141,356.327 117.896,355.11 " fill="none" stroke-width="0.5" stroke="rgb(0,0,0)" />
	<polygon points="295.75,357.976 294.161,358.692 292.828,359.113 294.402,360.28 294.564,360.404 296.202,361.691 296.121,360.825 296.097,359.784 296.15,358.677 296.2,358.096 296.254,357.672 " fill="none" stroke-width="0.5" stroke="rgb(0,0,0)" />
	<polygon points="394.989,341.178 393.841,342.101 393.19,342.569 392.169,343.221 390.287,344.081 389.452,344.329 387.312,344.504 388.354,347.455 388.729,349.083 388.812,349.814 393.134,346.193 394.909,345.091 397.507,343.949 396.523,342.763 396.356,342.554 395.175,341.023 " fill="none" stroke-width="0.5" stroke="rgb(0,0,0)" />
	<polygon points="58.6784,342.029 61.8121,347.068 61.9061,346.143 62.3975,343.868 62.8863,342.385 63.8147,340.328 64.1107,339.813 62.5758,339.484 61.5775,339.195 59.1087,338.288 58.1673,337.838 " fill="none" stroke-width="0.5" stroke="rgb(0,0,0)" />
	<polygon points="165.041,323.436 164.821,324.687 164.07,327.502 163.639,328.698 162.401,331.379 161.735,332.535 160.021,334.971 159.082,336.063 156.901,338.147 155.668,339.099 153.107,340.677 153.21,340.729 155.67,342.22 156.555,342.85 158.904,344.795 159.62,345.473 160.278,346.186 160.19,345.413 160.147,344.334 160.205,342.55 160.239,342.045 160.418,340.281 160.5,339.7 160.806,338.022 160.975,337.301 161.415,335.777 161.762,334.823 162.341,333.521 163.082,332.223 163.806,331.21 165.384,329.594 166.26,328.936 169.065,327.638 166.926,324.4 166.201,322.996 165.289,320.643 " fill="none" stroke-width="0.5" stroke="rgb(0,0,0)" />
	<polygon points="415.572,333.157 413.785,333.351 413.526,333.374 413.474,333.378 413.601,334.083 413.62,334.199 413.844,335.568 413.884,335.846 414.043,337.115 414.089,337.638 414.149,338.767 414.157,339.373 414.147,339.707 414.112,340.246 414.077,340.581 414.018,340.968 418.13,341.318 419.376,341.533 419.495,341.564 419.189,341.217 417.533,337.992 416.381,333.003 " fill="none" stroke-width="0.5" stroke="rgb(0,0,0)" />
	<polygon points="127.946,337.654 127.93,339.431 128.01,339.392 128.944,339.014 129.501,338.832 127.923,337.423 " fill="none" stroke-width="0.5" stroke="rgb(0,0,0)" />
	<polygon points="384.926,312.698 384.079,314.525 383.484,316.157 383.296,317.124 383.099,319.271 382.926,322.213 382.798,324.373 382.866,324.213 383.935,321.497 384.793,318.857 385.34,316.399 385.545,313.934 385.523,312.697 385.464,311.759 " fill="none" stroke-width="0.5" stroke="rgb(0,0,0)" />
	<polygon points="75.1767,312.08 74.2689,315.56 73.9721,318.309 74.0001,319.302 74.1204,320.443 74.3371,321.465 74.6819,322.466 74.8879,322.88 75.7667,321.449 76.6299,320.308 78.0476,318.769 79.1142,317.815 80.8152,316.568 82.0296,315.845 82.9223,315.423 82.7389,315.349 81.1448,314.522 79.9379,313.737 78.5089,312.596 77.4518,311.564 76.2431,310.12 76.0077,309.772 " fill="none" stroke-width="0.5" stroke="rgb(0,0,0)" />
	<polygon points="342.912,314.457 342.193,315.188 346.863,318.371 347.84,319.167 350.857,322.086 350.968,321.832 351.223,321.308 351.633,320.544 350.265,320.155 349.222,319.772 347.914,319.176 344.908,316.67 344.412,315.958 343.558,313.601 " fill="none" stroke-width="0.5" stroke="rgb(0,0,0)" />
	<polygon points="163.692,297.862 162.422,298.301 160.973,298.644 159.79,298.801 158.205,298.839 157.849,298.81 157.378,298.729 158.528,300.496 158.943,301.22 162.632,308.586 162.597,307.659 162.766,304.501 162.85,303.715 163.342,300.669 163.507,299.907 164.112,297.68 " fill="none" stroke-width="0.5" stroke="rgb(0,0,0)" />
	<polygon points="132.624,307.063 132.621,307.837 133.994,307.682 134.175,307.699 135.436,307.99 134.909,306.897 132.212,302.377 " fill="none" stroke-width="0.5" stroke="rgb(0,0,0)" />
	<polygon points="311.031,306.062 311.118,306.073 311.796,306.193 312.423,306.335 312.128,305.325 " fill="none" stroke-width="0.5" stroke="rgb(0,0,0)" />
	<polygon points="434.288,295.028 434.19,295.162 433.635,295.902 435.091,296.688 435.263,296.784 435.277,296.792 434.608,294.58 " fill="none" stroke-width="0.5" stroke="rgb(0,0,0)" />
	<polygon points="459.114,289.106 458.439,289.418 457.54,290.163 456.357,291.591 455.98,292.175 456.48,292.189 459.669,292.703 460.092,292.838 460.06,292.185 459.876,290.932 459.585,289.806 459.29,289.081 " fill="none" stroke-width="0.5" stroke="rgb(0,0,0)" />
	<polygon points="88.3866,283.921 88.3237,284.044 85.969,288.578 85.7126,289.073 86.8615,289.676 87.3831,290.091 88.101,290.743 88.1673,290.812 88.5246,289.075 88.835,285.817 88.9434,282.797 " fill="none" stroke-width="0.5" stroke="rgb(0,0,0)" />
	<polygon points="59.295,282.766 59.5925,283.469 59.6014,283.493 59.746,282.864 59.6024,282.701 59.0847,282.222 59.0675,282.206 58.9863,282.131 " fill="none" stroke-width="0.5" stroke="rgb(0,0,0)" />
	<polygon points="173.442,281.934 173.517,281.854 173.371,281.724 " fill="none" stroke-width="0.5" stroke="rgb(0,0,0)" />
	<polygon points="428.467,279.055 428.336,279.3 428.577,279.284 428.467,279.053 " fill="none" stroke-width="0.5" stroke="rgb(0,0,0)" />
	<polygon points="157.724,226.398 156.73,228.129 156.336,228.938 157.461,230.261 158.172,233.752 158.111,235.179 158.09,235.51 157.931,237.332 157.916,237.487 157.691,239.558 157.683,239.63 157.425,241.807 157.423,241.823 157.168,243.939 156.953,245.807 156.816,247.195 156.781,247.858 156.785,247.999 157.958,248.686 159.813,251.854 160.278,253.478 160.418,254.053 160.784,255.864 160.846,256.22 161.138,258.149 161.165,258.348 161.41,260.326 161.418,260.394 161.638,262.323 161.85,264.056 161.911,264.453 162.496,264.645 163.342,265.681 163.301,265.503 163.402,261.81 164.544,257.836 165.956,255.161 168.685,251.864 166.286,252.371 162.657,251.196 160.095,248.37 159.435,243.442 159.673,242.32 159.877,241.263 160.056,240.211 160.208,239.164 160.33,238.122 160.419,237.086 160.475,236.053 160.492,235.133 160.399,233.251 160.12,231.491 159.615,229.727 158.83,227.911 157.824,226.229 " fill="none" stroke-width="0.5" stroke="rgb(0,0,0)" />
	<polygon points="448.962,254.865 449.104,254.613 448.791,254.439 " fill="none" stroke-width="0.5" stroke="rgb(0,0,0)" />
	<polygon points="129.544,242.398 129.516,243.683 130.859,253.31 131.192,254.195 131.402,252.736 132.414,251.616 132.102,250.328 131.465,248.264 130.656,245.832 130.638,245.779 129.802,243.204 129.724,242.948 129.548,242.33 " fill="none" stroke-width="0.5" stroke="rgb(0,0,0)" />
	<polygon points="382.597,246.44 381.759,247.688 380.934,248.681 379.867,249.73 378.862,250.534 377.987,251.102 378.655,251.92 378.783,252.089 379.76,251.168 380.581,250.498 381.707,249.706 383.908,248.651 384.947,248.351 385.14,248.332 385.04,248.262 383.076,246.211 382.881,245.907 " fill="none" stroke-width="0.5" stroke="rgb(0,0,0)" />
	<polygon points="324.827,236.494 326.625,238.527 328.91,242.342 328.961,242.481 329.95,241.987 331.118,241.537 331.343,241.47 330.785,240.444 330.22,239.109 329.516,236.849 329.285,235.722 329.036,235.773 327.631,235.915 326.134,235.914 324.74,235.772 323.602,235.538 " fill="none" stroke-width="0.5" stroke="rgb(0,0,0)" />
	<polygon points="464.81,223.481 464.786,223.622 464.24,226.623 464.237,226.641 463.702,229.546 463.258,232.174 463.217,232.491 464.236,229.981 464.935,227.286 465.168,224.779 464.936,222.701 " fill="none" stroke-width="0.5" stroke="rgb(0,0,0)" />
	<polygon points="312.533,226.075 310.674,226.663 309.483,226.91 309.617,227.323 310.557,228.382 312.703,229.658 316.161,231.16 316.259,231.205 315.412,230.179 314.62,229.007 313.975,227.821 313.41,226.487 313.193,225.792 " fill="none" stroke-width="0.5" stroke="rgb(0,0,0)" />
	<polygon points="86.3068,213.466 87.323,214.475 87.7858,215.057 88.567,216.263 88.9232,216.951 89.3833,218.047 89.6351,218.815 89.8838,219.795 90.0334,220.617 90.1406,221.512 90.1707,222.029 90.8574,221.689 92.9122,221.025 93.6412,220.903 95.8978,220.873 96.5416,220.963 98.5279,221.534 99.1396,221.808 100.056,222.371 100.2,220.438 100.364,219.346 101.205,215.645 101.336,215.217 100.941,215.308 97.9434,215.638 96.3127,215.637 93.1235,215.281 91.4637,214.898 88.5995,213.879 87.0854,213.136 86.7223,212.903 " fill="none" stroke-width="0.5" stroke="rgb(0,0,0)" />
	<polygon points="438.375,212.884 437.802,213.047 432.681,214.277 432.011,214.406 426.56,215.194 427.767,215.972 431.46,219.036 432.612,220.233 433.718,221.679 434.148,220.68 434.857,219.398 437.38,215.744 438.083,214.874 440.662,212.136 " fill="none" stroke-width="0.5" stroke="rgb(0,0,0)" />
	<polygon points="132.295,219.901 132.598,220.142 132.636,220.238 132.757,219.755 " fill="none" stroke-width="0.5" stroke="rgb(0,0,0)" />
	<polygon points="65.1575,216.419 65.7762,216.827 66.2931,217.295 67.5451,218.769 67.9449,219.388 68.2272,219.94 69.8202,217.23 68.2393,216.816 66.9676,216.355 65.6192,215.722 " fill="none" stroke-width="0.5" stroke="rgb(0,0,0)" />
	<polygon points="189.65,214.249 190.859,216.65 191.088,217.271 191.378,217.019 193.991,216.504 193.936,216.305 193.474,215.424 192.89,214.751 192,214.102 190.595,213.454 188.784,212.953 " fill="none" stroke-width="0.5" stroke="rgb(0,0,0)" />
	<polygon points="381.553,201.746 380.872,202.993 380.079,204.162 379.305,205.097 380.218,205.849 380.926,206.557 383.345,203.746 384.523,203.331 382.141,201.388 381.839,201.075 " fill="none" stroke-width="0.5" stroke="rgb(0,0,0)" />
	<polygon points="366.087,170.406 364.989,171.146 365.895,172.802 366.463,174.135 367.121,176.228 367.423,177.692 367.653,179.931 367.653,180.657 369.042,180.656 369.292,180.682 366.653,172.24 366.433,171.343 366.241,170.279 " fill="none" stroke-width="0.5" stroke="rgb(0,0,0)" />
	<polygon points="146.576,175.585 145.595,175.844 144.614,176.033 147.048,178.361 147.11,178.098 148.069,175.102 148.083,175.073 " fill="none" stroke-width="0.5" stroke="rgb(0,0,0)" />
	<polygon points="108.829,162.896 107.837,163.888 106.802,164.744 105.63,165.538 104.444,166.185 103.109,166.751 101.801,167.16 100.603,167.406 101.191,167.756 104.452,169.971 105.211,170.562 108.21,173.229 108.967,174.009 111.556,177.102 112.04,177.791 113.044,175.944 114.082,174.486 115.469,172.969 116.655,171.978 115.959,171.47 113.065,168.826 112.036,167.664 109.814,164.553 109.098,163.314 108.88,162.833 " fill="none" stroke-width="0.5" stroke="rgb(0,0,0)" />
	<polygon points="310.435,170.732 310.332,170.892 311.576,171.018 312.831,171.275 312.836,171.257 312.291,171.146 311.783,171.024 310.47,170.659 " fill="none" stroke-width="0.5" stroke="rgb(0,0,0)" />
	<polygon points="423.802,143.382 422.434,145.018 419.693,147.47 418.419,148.386 415.491,150.052 417.205,150.206 418.639,150.48 425.058,152.377 426.424,152.934 432.11,155.945 433.019,156.534 431.26,150.398 431.201,147.239 430.147,146.871 428.467,146.133 427.155,145.388 425.795,144.421 424.412,143.142 424.146,142.824 " fill="none" stroke-width="0.5" stroke="rgb(0,0,0)" />
	<polygon points="366.091,147.972 366.892,148.632 366.944,148.584 367.103,148.475 365.077,147.288 " fill="none" stroke-width="0.5" stroke="rgb(0,0,0)" />
	<polygon points="355.76,139.101 355.162,145.405 355.585,145.319 356.926,145.184 358.408,145.184 359.748,145.319 361.198,145.614 362.446,146.001 363.782,146.563 364.732,147.079 363.651,146.3 358.315,141.631 357.42,140.699 355.77,138.647 " fill="none" stroke-width="0.5" stroke="rgb(0,0,0)" />
	<polygon points="129.296,136.593 126.552,137.968 127.057,139.477 127.535,141.77 127.592,142.077 127.793,143.295 127.958,142.918 128.239,142.063 128.545,141 128.807,139.947 129.022,138.914 129.188,137.914 129.305,136.961 129.337,136.557 " fill="none" stroke-width="0.5" stroke="rgb(0,0,0)" />
	<polygon points="106.702,141.689 106.763,141.454 106.135,141.306 " fill="none" stroke-width="0.5" stroke="rgb(0,0,0)" />
	<polygon points="313.865,125.156 312.759,125.673 311.804,126.33 311.019,127.083 310.429,127.864 310.057,128.574 309.669,129.799 308.663,131.378 309.03,131.574 309.927,131.937 310.801,132.181 311.721,132.328 312.821,132.384 313.085,132.376 313.547,132.34 314.114,132.277 314.761,132.194 315.443,132.102 315.503,132.094 316.158,132.011 316.267,131.999 315.701,131.086 315.516,130.73 315.089,129.736 314.96,129.363 314.694,128.374 314.618,127.987 314.494,127.028 314.469,126.635 314.494,125.402 314.538,124.975 " fill="none" stroke-width="0.5" stroke="rgb(0,0,0)" />
	<polygon points="92.5565,114.998 92.0688,115.413 89.8056,117.176 88.7405,117.867 86.4024,119.114 84.3502,119.845 81.9489,120.318 80.9569,120.362 81.1039,122.946 81.1141,123.531 81.0824,124.958 81.0683,125.277 81.0447,125.638 81.6435,125.232 82.8297,124.584 84.1651,124.017 85.474,123.608 86.9345,123.308 88.3376,123.165 89.837,123.165 91.2421,123.308 92.7006,123.607 94.0115,124.016 94.9452,124.412 94.2471,119.193 94.2275,119.033 93.6625,113.971 " fill="none" stroke-width="0.5" stroke="rgb(0,0,0)" />
	<polygon points="185.458,110.571 185.326,111.396 185.088,112.415 184.858,113.159 184.351,114.392 184.015,115.037 183.092,116.409 182.641,116.94 181.23,118.222 180.656,118.621 178.917,119.517 178.212,119.768 176.487,120.16 175.643,120.248 174.459,120.154 174.895,121.041 176.582,125.423 176.605,125.501 176.709,125.419 179.709,123.332 180.615,122.794 183.735,121.228 184.891,120.764 188.113,119.779 189.515,119.495 192.819,119.154 192.852,119.154 192.852,119.153 192.401,118.667 188.158,113.655 187.916,113.354 185.498,110.176 " fill="none" stroke-width="0.5" stroke="rgb(0,0,0)" />
	<polygon points="125.037,112.371 123.926,116.814 125.721,114.705 126.572,113.856 127.043,113.457 126.546,113.006 125.249,111.605 " fill="none" stroke-width="0.5" stroke="rgb(0,0,0)" />
	<polygon points="414.167,104.655 416.31,106.621 416.886,107.264 416.891,105.017 417.374,104.183 416.316,104.172 416.172,104.17 413.214,104.082 " fill="none" stroke-width="0.5" stroke="rgb(0,0,0)" />
	<polygon points="393.519,103.234 394.289,104.211 395.074,105.402 395.275,105.354 396.62,104.914 398.225,104.309 399.934,103.648 400.123,103.577 401.072,103.239 398.677,102.988 398.539,102.972 395.113,102.548 394.973,102.529 392.535,102.18 " fill="none" stroke-width="0.5" stroke="rgb(0,0,0)" />
	<polygon points="146.382,102.062 145.877,104.886 149.347,104.632 149.724,104.639 149.269,104.25 146.404,101.946 " fill="none" stroke-width="0.5" stroke="rgb(0,0,0)" />
	<polygon points="308.189,99.3858 309.002,99.0294 309.377,98.9125 309.336,98.6905 309.294,98.4259 " fill="none" stroke-width="0.5" stroke="rgb(0,0,0)" />
	<polygon points="382.23,98.7444 382.455,98.7232 382.917,98.694 383.45,98.6772 384.8,98.7583 385.421,98.8532 384.417,97.389 384.315,97.1843 " fill="none" stroke-width="0.5" stroke="rgb(0,0,0)" />
	<polygon points="65.8233,96.3719 68.5537,97.631 69.2617,98.0868 69.4296,96.7953 69.431,96.7847 69.713,94.6399 69.7529,94.3037 " fill="none" stroke-width="0.5" stroke="rgb(0,0,0)" />
	<polygon points="126.905,63.9296 126.176,67.3883 126.075,67.8079 125.228,70.9149 124.852,71.8746 126.062,72.6585 126.163,72.1093 126.447,71.0281 126.708,70.2701 127.522,68.6157 127.892,68.0542 129.729,66.1585 129.697,66.1165 127.974,63.7173 127.202,62.6957 " fill="none" stroke-width="0.5" stroke="rgb(0,0,0)" />
	<polygon points="103.531,62.3968 101.688,63.9746 101.504,64.1273 99.7223,65.5552 99.0126,66.0585 97.3947,67.0685 97.2974,67.1109 97.4456,67.6272 97.6613,68.6406 97.769,69.4072 97.8353,70.1468 97.8519,70.5706 100.154,69.2115 102.212,68.498 105.7,68.2428 105.543,66.3703 105.524,66.0606 105.382,62.6362 105.227,61.0157 " fill="none" stroke-width="0.5" stroke="rgb(0,0,0)" />
	<polygon points="409.125,61.8561 410.504,63.0039 410.927,63.3847 412.55,64.9623 414.276,66.5828 415.992,67.9605 417.66,68.9736 419.25,69.5718 421.201,69.818 421.313,69.8128 421.82,69.7359 422.219,69.6191 422.352,69.5534 422.434,69.3292 422.465,69.0361 422.138,67.95 420.719,66.4846 417.272,64.4454 412.555,62.4913 407.438,60.7947 407.215,60.726 " fill="none" stroke-width="0.5" stroke="rgb(0,0,0)" />
	<polygon points="401.377,59.1039 401.375,59.9423 402.333,59.7637 402.596,59.7393 405.205,60.1087 402.763,59.3582 402.415,59.2419 401.355,58.8578 " fill="none" stroke-width="0.5" stroke="rgb(0,0,0)" />
	<polygon points="163.415,47.8407 162.857,48.8375 164.62,49.4368 164.823,49.5091 165.528,49.772 165.447,49.6904 163.463,47.7184 " fill="none" stroke-width="0.5" stroke="rgb(0,0,0)" />
	<polygon points="397.324,39.2446 397.93,40.7008 398.354,42.133 399.701,41.4565 400.605,41.0754 403.578,40.0488 404.062,39.8999 407.723,38.9098 407.894,38.868 406.569,38.168 402.303,36.5508 398.344,35.4247 394.981,34.5832 394.728,34.5092 " fill="none" stroke-width="0.5" stroke="rgb(0,0,0)" />
	<polygon points="152.643,29.9269 151.503,30.5855 151.437,30.6163 152.807,31.4723 152.885,31.5197 152.755,29.8482 " fill="none" stroke-width="0.5" stroke="rgb(0,0,0)" />
	<polygon points="82.2117,30.0539 83.5147,29.5714 82.6976,28.7472 " fill="none" stroke-width="0.5" stroke="rgb(0,0,0)" />
</svg>
