<?xml version="1.0" standalone="no" ?>
<!DOCTYPE svg PUBLIC "-//W3C//DTD SVG 1.1//EN" "http://www.w3.org/Graphics/SVG/1.1/DTD/svg11.dtd">
<svg width="500px" height="500px" xmlns="http://www.w3.org/2000/svg" version="1.1" >
	<polygon points="465.423,280.854 464.639,294.822 462.304,309.564 458.343,325.199 452.728,341.399 445.446,357.853 436.49,374.263 425.858,390.341 413.552,405.808 399.569,420.398 383.906,433.853 366.55,445.924 347.476,456.369 326.643,464.945 303.995,471.404 279.467,475.485 252.979,476.912 227.177,475.566 203.166,471.702 180.912,465.57 160.368,457.403 141.497,447.428 124.272,435.862 108.678,422.922 94.7125,408.831 82.3802,393.817 71.69,378.118 62.6516,361.98 55.2735,345.657 49.5597,329.413 45.5076,313.52 43.1033,298.262 42.2905,283.483 42.2905,34.8579 49.9921,34.7989 61.4837,34.7107 72.9754,34.6225 84.4671,34.5343 95.9588,34.4462 107.45,34.358 118.942,34.2698 130.434,34.1816 141.925,34.0934 153.417,34.0053 164.909,33.9171 176.4,33.8289 187.892,33.7407 195.327,33.6837 195.307,43.9321 195.281,56.8309 195.256,69.7297 195.256,69.7297 195.23,82.6284 195.179,108.426 195.179,108.426 195.154,121.325 195.103,147.122 195.103,147.122 195.078,160.021 195.052,172.92 195.052,172.92 195.027,185.819 195.001,198.718 194.976,211.616 194.976,211.616 194.95,224.515 194.951,224.664 195.038,235.959 195.039,236.074 195.204,246.891 195.208,247.101 195.505,257.407 195.518,257.727 196.003,267.489 196.032,267.942 196.76,277.126 196.821,277.74 197.848,286.313 197.967,287.124 199.347,295.052 199.568,296.101 201.357,303.351 201.749,304.68 204.003,311.219 204.672,312.85 207.446,318.644 208.529,320.545 211.878,325.562 213.501,327.596 217.48,331.801 219.665,333.712 224.331,337.072 226.906,338.571 232.313,341.052 234.959,341.986 241.162,343.555 243.582,343.966 250.636,344.59 251.947,329.779 252.97,344.613 260.231,344.113 262.663,343.748 269.01,342.27 271.721,341.367 277.216,338.949 279.894,337.435 284.6,334.113 286.885,332.137 290.864,327.948 292.55,325.826 295.863,320.807 296.969,318.83 299.678,313.018 300.344,311.338 302.512,304.768 302.89,303.417 304.579,296.128 304.784,295.078 306.055,287.105 306.161,286.307 307.077,277.688 307.129,277.097 307.751,267.867 307.774,267.445 308.165,257.642 308.174,257.358 308.396,247.019 308.399,246.852 308.514,236.012 308.515,235.944 308.585,224.641 308.585,224.515 308.559,211.616 308.533,198.717 308.507,185.818 308.482,172.92 308.482,172.919 308.456,160.021 308.404,134.223 308.404,134.223 308.378,121.324 308.301,82.628 308.301,82.6279 308.275,69.7291 308.202,33.466 316.377,33.4134 328.13,33.3378 339.883,33.2623 351.637,33.1867 363.39,33.1112 375.143,33.0356 386.896,32.96 410.403,32.8089 422.156,32.7334 433.909,32.6578 445.663,32.5822 457.416,32.5067 465.423,32.4552 " fill="none" stroke-width="0.5" stroke="rgb(0,0,0)" />
</svg>
