<?xml version="1.0" standalone="no" ?>
<!DOCTYPE svg PUBLIC "-//W3C//DTD SVG 1.1//EN" "http://www.w3.org/Graphics/SVG/1.1/DTD/svg11.dtd">
<svg width="500px" height="500px" xmlns="http://www.w3.org/2000/svg" version="1.1" >
	<polygon points="474.473,84.6792 472.231,87.4091 471.044,88.5252 464.011,93.6096 462.873,94.2646 457.581,96.6201 457.91,96.7145 459.231,97.2614 460.104,97.7441 460.193,97.8084 461.439,96.5298 465.854,95.8303 468.34,96.3407 469.454,96.6787 471.549,97.5307 472.702,98.144 474.425,99.3031 474.473,99.3439 474.473,192.354 471.096,192.963 467.966,192.193 468.255,192.41 472.624,196.04 473.283,196.674 474.473,197.995 474.473,251.734 473.029,253.749 472.951,253.855 472.124,254.959 472.695,254.838 474.473,254.746 474.473,281.108 473.649,295.786 473.096,299.283 471.781,300.56 470.269,301.365 471.501,302.978 472.083,303.893 472.3,304.308 471.179,311.387 467.021,327.797 461.156,344.718 453.57,361.859 449.44,369.426 447.531,368.039 446.288,365.225 445.205,358.976 443.159,355.745 439.872,353.185 437.628,352.061 441.044,355.854 441.853,356.978 444.9,362.369 445.445,363.636 447.422,370.098 447.673,371.367 447.776,372.475 444.25,378.935 433.188,395.664 420.374,411.769 405.799,426.977 396.732,434.766 396.083,434.278 395.321,433.602 394.146,432.377 394.32,433.078 394.489,434.128 394.671,436.536 389.453,441.019 371.321,453.63 351.384,464.547 329.616,473.508 317.528,476.955 315.706,475.475 314.791,474.562 313.065,472.449 312.366,471.394 311.122,469.035 310.655,467.889 309.902,465.366 309.667,464.164 309.414,461.559 309.398,460.53 309.584,457.687 309.568,457.728 307.535,462.433 306.959,463.482 304.192,467.555 302.822,469.011 300.37,470.907 300.74,470.848 301.035,470.809 301.751,470.729 302.228,470.695 303.092,470.665 303.819,470.681 304.69,470.751 305.941,470.979 306.61,471.171 308.078,471.803 308.571,472.094 309.962,473.203 310.307,473.568 311.286,474.927 311.509,475.341 312.017,476.591 312.143,477.029 312.338,477.975 312.394,478.414 312.395,478.419 305.986,480.247 280.457,484.495 252.987,485.974 226.22,484.578 201.239,480.559 178.029,474.163 156.571,465.633 136.847,455.207 129.172,450.053 129.182,449.822 128.87,449.85 118.846,443.119 102.56,429.605 87.9873,414.902 75.1288,399.247 63.9871,382.885 54.5654,366.063 46.8658,349.029 40.8893,332.037 38.516,322.729 39.0757,320.926 39.4373,320.016 43.476,311.769 41.6527,312.262 38.0887,312.19 36.1196,311.57 36.0301,311.516 34.0922,299.217 33.2405,283.731 33.2405,229.368 33.9911,228.771 33.2405,228.58 33.2405,154.043 33.6526,153.29 34.3347,152.286 37.8741,148.018 38.6191,147.289 38.2447,147.254 37.0556,147.027 34.5201,146.287 33.3749,145.828 33.2405,145.758 33.2405,108.922 34.4381,108.298 35.7516,108.032 35.5877,108.042 34.8954,108.001 34.0404,107.891 33.407,107.766 33.2405,107.719 33.2405,39.1992 36.9813,36.7853 37.0653,36.732 40.5707,34.5471 39.3361,34.2415 39.3024,34.2331 35.003,33.1439 34.6543,33.0449 33.2405,32.5994 33.2405,25.8771 38.4309,25.8373 49.9226,25.7491 61.4143,25.6609 61.4143,25.6609 72.906,25.5728 84.3976,25.4846 95.8893,25.3964 95.8893,25.3964 107.381,25.3082 118.873,25.2201 130.364,25.1319 141.856,25.0437 153.348,24.9555 155.523,24.9388 155.515,24.9735 155.148,25.7925 153.008,28.3865 152.039,29.0681 151.061,29.6332 149.691,30.2696 149.549,30.3333 149.269,30.455 149.659,30.7437 152.257,32.3669 154.136,33.5028 154.035,33.2174 154.318,28.3229 155.371,26.1657 156.41,24.932 164.839,24.8674 176.331,24.7792 187.823,24.691 204.395,24.5639 204.382,31.0511 204.382,31.0511 204.356,43.9499 204.331,56.8487 204.306,69.7475 204.306,69.7475 204.28,82.6463 204.275,85.1475 203.235,85.1312 199.254,84.7259 198.486,84.5998 195.785,83.9844 198.216,85.7378 198.395,85.8718 203.198,89.6006 203.366,89.736 204.265,90.4837 204.229,108.444 204.229,108.444 204.204,121.343 204.153,147.14 204.153,147.14 204.128,160.039 204.102,172.938 204.102,172.938 204.084,182.012 202.336,183.535 201.329,184.252 198.861,185.672 197.979,186.064 198.308,186.175 201.071,187.387 202.11,187.964 204.07,189.308 204.051,198.735 204.026,211.634 204.026,211.634 204.005,222.09 203.762,222.132 204.005,222.316 204,224.533 204.001,224.595 204.088,235.889 204.088,235.937 204.253,246.754 204.255,246.84 204.552,257.146 204.557,257.278 205.042,267.04 205.054,267.227 205.123,268.098 204.714,268.863 204.597,269.456 204.716,270.066 205.254,270.938 205.356,271.042 205.782,276.411 205.807,276.664 206.833,285.237 206.883,285.571 208.263,293.5 208.354,293.932 210.143,301.183 210.305,301.73 212.559,308.269 212.835,308.942 215.609,314.736 216.055,315.52 219.404,320.536 220.074,321.375 224.053,325.58 224.954,326.368 229.619,329.728 230.681,330.346 236.088,332.827 237.179,333.212 243.382,334.782 244.379,334.951 250.629,335.504 251.37,338.149 251.549,339.02 251.782,340.762 254.626,335.428 259.608,335.084 260.611,334.934 266.958,333.456 268.076,333.084 273.571,330.666 274.675,330.041 279.381,326.719 280.324,325.905 284.302,321.716 284.997,320.841 288.31,315.822 288.766,315.007 291.475,309.194 291.75,308.501 293.918,301.932 294.074,301.375 295.762,294.086 295.847,293.653 297.118,285.68 297.162,285.351 298.078,276.731 298.099,276.488 298.722,267.258 298.731,267.084 298.739,266.885 298.866,266.844 300.199,266.567 300.432,266.544 299.884,266.212 299.035,265.598 298.799,265.395 299.123,257.281 299.126,257.164 299.348,246.824 299.35,246.755 299.465,235.916 299.465,235.888 299.535,224.585 299.535,224.533 299.509,211.634 299.483,198.735 299.476,195.17 299.555,195.127 300.232,194.837 299.598,194.202 299.474,194.052 299.457,185.836 299.439,176.439 299.599,176.245 300.449,175.395 301.485,174.54 301.707,174.39 299.946,174.295 299.434,174.077 299.432,172.938 299.432,172.938 299.406,160.039 299.354,134.241 299.354,134.241 299.328,121.342 299.302,108.09 300.439,106.493 301.31,105.506 303.795,103.218 304.92,102.391 308.031,100.595 309.315,100.032 310.596,99.6322 310.587,99.5989 310.499,99.1984 310.368,98.4972 310.309,98.1232 310.107,96.5176 310.083,96.3391 309.412,96.9323 309.371,96.9681 306.969,99.0546 306.77,99.2209 304.493,101.041 303.981,101.41 301.995,102.697 300.472,103.418 299.293,103.794 299.251,82.6461 299.251,82.6461 299.225,69.7473 299.147,31.0509 299.147,31.0509 299.134,24.4741 304.565,24.4392 316.319,24.3636 328.072,24.288 339.825,24.2125 351.578,24.1369 363.332,24.0613 375.085,23.9858 384.229,23.927 385.764,25.0535 386.774,25.9778 387.39,26.6782 387.729,23.9045 410.345,23.7591 422.098,23.6835 433.851,23.608 445.604,23.5324 445.676,23.532 445.753,23.6699 445.808,23.5311 457.358,23.4569 469.111,23.3813 474.473,23.3468 " fill="none" stroke-width="0.5" stroke="rgb(0,0,0)" />
	<polygon points="191.081,444.28 191.388,445.185 192.127,448.05 192.627,448.197 194.112,448.524 195.724,448.783 197.287,448.946 198.594,448.997 200.343,448.901 202.012,448.607 203.517,448.114 204.783,447.443 205.811,446.598 206.663,445.494 207.375,443.931 207.925,441.39 202.793,441.773 201.822,441.771 195.604,441.282 194.53,441.104 189.333,439.776 189.131,439.704 " fill="none" stroke-width="0.5" stroke="rgb(0,0,0)" />
	<polygon points="161.2,431.025 160.634,432.127 157.635,436.784 156.735,437.887 152.54,441.987 151.327,442.916 146.699,445.645 148.406,445.536 152.354,444.691 155.454,443.426 157.791,441.85 159.515,439.995 160.763,437.78 161.568,435.063 161.883,431.525 161.88,431.325 161.863,430.853 161.834,430.351 161.796,429.826 161.774,429.573 " fill="none" stroke-width="0.5" stroke="rgb(0,0,0)" />
	<polygon points="326.922,415.487 325.658,416.063 316.153,419.195 314.811,419.482 312.858,419.681 313.254,420.218 314.079,421.73 314.573,423.027 314.831,423.878 315.161,425.33 315.212,425.576 315.466,426.938 315.611,427.553 315.85,427.723 315.883,427.746 316.79,428.399 317.189,428.711 318.055,429.447 318.765,430.153 319.499,431.007 320.354,432.292 320.59,432.763 321.249,432.007 321.413,431.826 322.133,431.063 322.361,430.833 323.076,430.149 323.397,429.862 324.106,429.27 324.561,428.923 325.261,428.438 325.914,428.042 326.605,427.678 327.536,427.278 328.214,427.05 329.042,426.862 327.941,424.77 327.592,423.528 327.354,421.809 327.354,415.229 " fill="none" stroke-width="0.5" stroke="rgb(0,0,0)" />
	<polygon points="243.894,411.777 243.116,416.754 242.575,418.503 240.368,423.134 239.628,424.298 239.68,424.249 242.594,420.295 244.718,415.984 246.043,411.324 245.207,411.203 243.953,410.859 " fill="none" stroke-width="0.5" stroke="rgb(0,0,0)" />
	<polygon points="377.793,417.615 377.792,417.764 377.775,418.487 377.76,418.778 379.523,418.303 381.093,418.487 382.431,418.792 384.063,419.357 385.252,419.912 386.864,420.878 387.901,421.653 389.408,423.041 389.766,423.445 389.636,422.44 389.596,421.232 389.626,420.758 389.755,419.819 389.863,419.319 389.935,419.085 388.973,418.982 387.826,418.752 384.266,417.687 383.369,417.343 380.03,415.764 379.302,415.358 377.793,414.384 " fill="none" stroke-width="0.5" stroke="rgb(0,0,0)" />
	<polygon points="164.963,413.622 164.967,414.548 164.647,419.232 164.521,420.131 164.132,421.942 164.54,421.49 167.938,420.538 170.662,421.178 171.741,421.703 171.584,420.707 171.531,419.159 171.563,418.791 171.808,417.521 171.904,417.202 172.497,415.835 172.655,415.564 173.606,414.316 173.823,414.094 174.98,413.161 175.255,412.989 175.316,412.959 173.285,412.118 172.765,411.875 170.129,410.493 169.632,410.204 167.205,408.637 166.707,408.28 164.55,406.571 164.405,406.443 " fill="none" stroke-width="0.5" stroke="rgb(0,0,0)" />
	<polygon points="258.231,398.898 258.287,399.721 258.274,400.754 258.178,401.765 257.945,402.972 257.669,403.903 257.197,405.062 256.757,405.896 256.059,406.949 255.91,407.132 257.449,407.731 257.983,407.967 260.843,409.394 261.255,409.62 264.038,411.276 264.382,411.497 267,413.293 267.314,413.523 269.679,415.369 269.999,415.637 272.022,417.442 272.395,417.803 272.714,418.139 272.945,418.093 274.23,417.872 274.494,417.832 275.828,417.66 276.079,417.632 277.462,417.509 277.698,417.492 279.13,417.418 279.353,417.41 280.834,417.386 281.088,417.386 283.219,417.436 283.503,417.449 284.667,417.528 279.547,415.853 278.287,415.283 269.681,410.189 268.608,409.39 261.507,402.835 260.672,401.895 258.164,398.434 " fill="none" stroke-width="0.5" stroke="rgb(0,0,0)" />
	<polygon points="363.072,399.689 360.266,399.682 361.29,399.801 361.884,399.899 364.976,400.56 365.704,400.762 367.397,401.342 367.6,398.675 " fill="none" stroke-width="0.5" stroke="rgb(0,0,0)" />
	<polygon points="348.969,395.04 348.383,396.018 345.527,399.94 347.696,399.563 348.43,399.479 352.937,399.227 353.521,399.221 357.314,399.358 357.819,399.397 360.262,399.681 359.114,399.417 356.956,398.474 355.879,397.74 354.678,396.675 353.699,395.556 353.043,394.659 352.187,393.242 351.799,392.492 351.09,390.862 351.045,390.739 " fill="none" stroke-width="0.5" stroke="rgb(0,0,0)" />
	<polygon points="218.122,387.193 216.892,387.427 207.076,388.298 205.818,388.285 199.791,387.619 200.199,388.17 200.677,388.921 202.515,392.306 202.907,393.181 204.049,396.346 204.353,397.559 206.986,393.667 208.449,392.134 212.405,389.185 214.975,388.045 220.66,386.926 222.372,386.825 223.417,386.905 224.153,387.005 225.401,387.25 225.491,387.272 225.425,386.836 225.342,385.816 225.343,385.07 " fill="none" stroke-width="0.5" stroke="rgb(0,0,0)" />
	<polygon points="308.641,393.19 308.166,393.329 304.954,394.139 304.372,394.257 300.664,394.829 300.02,394.895 295.778,395.112 295.009,395.105 292.21,394.909 297.535,396.349 304.331,396.938 307.645,396.801 310.632,396.407 312.086,396.062 310.799,394.271 310.543,393.438 310.491,392.567 " fill="none" stroke-width="0.5" stroke="rgb(0,0,0)" />
	<polygon points="246.588,367.48 245.946,368.548 241.88,374.014 240.971,374.998 240.871,375.087 241.956,375.64 242.84,376.232 243.883,377.105 244.626,377.876 245.073,378.436 245.197,378.43 246.115,378.456 247.361,378.581 248.669,378.854 248.815,378.901 247.678,374.708 247.483,373.614 246.878,366.869 " fill="none" stroke-width="0.5" stroke="rgb(0,0,0)" />
	<polygon points="145.717,371.067 146.778,371.893 152.278,377.201 152.519,377.485 152.463,377.354 151.159,375.336 149.391,373.4 147.084,371.555 144.166,369.837 142.77,369.238 " fill="none" stroke-width="0.5" stroke="rgb(0,0,0)" />
	<polygon points="83.6934,366.101 83.424,366.142 82.5824,366.253 81.819,366.308 79.5055,366.332 78.2443,366.22 77.7266,366.12 78.3027,366.958 79.3499,369.607 80.4356,376.775 81.1182,375.955 81.7752,375.276 84.2837,373.041 85.1074,372.42 87.5867,370.848 88.7078,370.285 87.7671,369.629 86.2814,368.364 85.4478,367.505 84.2426,366.004 " fill="none" stroke-width="0.5" stroke="rgb(0,0,0)" />
	<polygon points="170.993,371.216 171.723,373.699 172.042,374.511 172.219,374.537 172.517,374.562 172.833,374.571 173.288,374.565 173.804,374.548 174.336,374.523 174.381,374.52 174.337,374.482 173.557,373.67 170.697,370.107 " fill="none" stroke-width="0.5" stroke="rgb(0,0,0)" />
	<polygon points="354.414,363.465 353.289,364.567 355.408,366.75 356.118,370.384 355.808,373.394 356.891,372.882 357.548,372.615 359.116,372.077 359.613,371.93 361.308,371.499 362.923,370.963 362.28,370.708 360.404,369.739 359.334,369.042 357.743,367.761 356.83,366.858 355.549,365.307 354.839,364.246 354.42,363.458 " fill="none" stroke-width="0.5" stroke="rgb(0,0,0)" />
	<polygon points="98.9715,372.967 99.0755,373.145 99.2483,372.954 " fill="none" stroke-width="0.5" stroke="rgb(0,0,0)" />
	<polygon points="324.48,365.684 323.765,367.105 323.113,368.139 322.147,369.385 321.401,370.173 323.5,370.124 327.062,369.892 330.904,369.478 331.543,369.378 330.723,369.147 329.542,368.684 326.926,367.343 325.812,366.615 324.526,365.567 " fill="none" stroke-width="0.5" stroke="rgb(0,0,0)" />
	<polygon points="277.533,364.729 275.869,367.679 275.991,367.635 277.329,367.328 277.338,367.27 277.577,366.045 277.812,365.176 278.139,364.237 " fill="none" stroke-width="0.5" stroke="rgb(0,0,0)" />
	<polygon points="295.208,357.076 293.845,357.691 290.211,358.839 290.334,358.885 291.908,359.738 293.776,361.124 293.915,361.23 296.241,363.057 297.713,364.06 297.531,363.43 297.311,362.264 297.167,360.727 297.146,359.833 297.198,358.727 297.242,358.228 297.38,357.138 297.433,356.799 297.628,355.725 297.652,355.605 " fill="none" stroke-width="0.5" stroke="rgb(0,0,0)" />
	<polygon points="118.461,353.581 117.505,354.134 116.423,354.639 116.445,356.468 116.337,357.717 115.925,359.907 115.56,361.141 114.744,363.134 114.432,363.718 115.3,363.477 116.428,363.271 120.679,362.886 121.948,362.898 125.542,363.295 124.102,362.465 123.134,361.78 122.036,360.837 120.943,359.618 120.275,358.648 119.47,357.018 119.139,356.001 118.848,354.558 118.759,353.476 118.764,353.369 " fill="none" stroke-width="0.5" stroke="rgb(0,0,0)" />
	<polygon points="394.522,340.2 394.332,340.36 393.183,341.283 392.625,341.684 391.603,342.337 389.989,343.074 389.153,343.322 386.56,343.535 386.373,343.511 385.608,343.317 385.636,343.361 386.234,344.605 387.364,347.805 387.685,349.201 388.015,352.103 388.473,351.574 389.196,350.862 393.808,346.998 395.331,346.052 399.268,344.322 399.087,344.147 398.608,343.631 397.331,342.092 397.187,341.913 395.839,340.164 395.324,339.503 " fill="none" stroke-width="0.5" stroke="rgb(0,0,0)" />
	<polygon points="56.8728,335.897 57.6642,342.386 61.0381,347.812 62.8081,349.564 62.7897,347.77 62.9325,346.365 63.4238,344.089 63.8433,342.817 64.7717,340.76 65.3867,339.69 65.809,339.097 65.6664,339.073 62.796,338.457 61.9394,338.209 59.4707,337.303 58.3949,336.788 56.8785,335.88 " fill="none" stroke-width="0.5" stroke="rgb(0,0,0)" />
	<polygon points="165.521,295.806 164.239,296.483 163.349,296.87 162.079,297.309 160.835,297.603 159.652,297.76 158.292,297.793 157.936,297.763 156.864,297.581 156.458,297.475 155.392,297.093 154.944,296.887 154.914,296.869 157.648,301.069 158.004,301.69 162.061,309.793 162.597,311.327 164.136,318.632 164.248,320.503 163.995,323.344 163.806,324.417 163.056,327.232 162.685,328.258 161.448,330.938 160.876,331.93 159.162,334.367 158.356,335.304 156.175,337.388 155.117,338.205 152.48,339.829 151.205,340.431 150.533,340.66 151.82,341.198 152.666,341.627 155.126,343.118 155.885,343.658 158.234,345.604 158.848,346.185 161.107,348.631 161.567,349.189 161.697,349.367 161.233,345.294 161.196,344.368 161.254,342.584 161.283,342.151 161.462,340.387 161.533,339.888 161.839,338.211 161.984,337.592 162.423,336.068 162.722,335.249 163.3,333.947 163.936,332.834 164.66,331.82 166.014,330.433 166.89,329.776 169.3,328.66 170.334,328.426 170.824,328.397 167.802,323.822 167.18,322.616 164.881,316.682 164.503,315.198 163.688,308.864 163.645,307.715 163.814,304.557 163.886,303.883 164.378,300.836 164.52,300.182 165.315,297.259 165.519,296.637 165.94,295.547 " fill="none" stroke-width="0.5" stroke="rgb(0,0,0)" />
	<polygon points="317.202,341.864 316.162,342.365 315.189,342.74 314.493,342.944 314.828,343.092 315.817,343.64 317.22,344.59 317.308,344.042 317.916,341.422 " fill="none" stroke-width="0.5" stroke="rgb(0,0,0)" />
	<polygon points="416.462,331.922 415.459,332.113 413.672,332.307 413.449,332.327 412.235,332.416 412.312,332.848 412.567,334.269 412.584,334.368 412.808,335.737 412.842,335.976 413.001,337.245 413.041,337.694 413.101,338.822 413.107,339.343 413.097,339.676 413.067,340.139 413.033,340.474 412.933,341.121 412.866,341.444 412.732,341.912 418.041,342.365 419.11,342.549 422.555,343.451 419.977,340.523 418.556,337.755 417.316,332.382 417.269,331.7 " fill="none" stroke-width="0.5" stroke="rgb(0,0,0)" />
	<polygon points="126.275,333.992 126.758,336.267 126.896,337.645 126.876,339.883 126.744,341.114 126.73,341.181 128.469,340.336 129.27,340.012 131.449,339.3 131.889,339.186 131.275,338.83 130.226,338.071 128.32,336.37 127.49,335.472 126.21,333.785 " fill="none" stroke-width="0.5" stroke="rgb(0,0,0)" />
	<polygon points="386.029,309.004 384.992,310.471 383.993,312.215 383.108,314.123 382.469,315.876 382.255,316.976 382.052,319.192 381.878,322.151 381.69,325.335 381.677,325.513 381.415,328.518 381.359,328.97 380.955,331.492 380.673,332.603 380.06,334.338 379.096,335.629 379.623,336.006 380.16,336.472 380.209,335.189 380.487,333.453 380.747,332.407 381.48,330.258 381.624,329.877 382.661,327.377 382.684,327.321 383.838,324.611 384.924,321.852 385.807,319.134 386.381,316.557 386.596,313.968 386.572,312.655 386.464,310.918 386.249,309.185 386.175,308.841 " fill="none" stroke-width="0.5" stroke="rgb(0,0,0)" />
	<polygon points="121.607,324.378 120.411,324.938 120.388,324.946 120.888,325.363 122.432,326.917 123.184,327.831 123.647,328.515 123.227,327.087 123,325.926 122.781,323.725 122.78,323.67 " fill="none" stroke-width="0.5" stroke="rgb(0,0,0)" />
	<polygon points="321.959,325.531 320.995,326.187 321.43,326.825 322.145,328.216 322.233,328.457 322.443,327.541 322.617,325.547 322.599,325.085 322.559,324.751 " fill="none" stroke-width="0.5" stroke="rgb(0,0,0)" />
	<polygon points="75.7162,307.482 74.1727,311.769 73.2333,315.371 72.9205,318.267 72.9516,319.372 73.082,320.607 73.3233,321.746 73.7115,322.873 74.3148,324.084 74.9621,325.05 75.0237,324.886 75.557,323.796 76.6614,321.998 77.4021,321.019 78.8198,319.48 79.735,318.662 81.4361,317.415 82.4781,316.795 84.4324,315.871 85.5447,315.468 85.98,315.354 84.347,314.871 83.2227,314.418 81.6287,313.59 80.593,312.917 79.164,311.776 78.2569,310.89 77.0482,309.446 76.3236,308.375 75.7728,307.35 " fill="none" stroke-width="0.5" stroke="rgb(0,0,0)" />
	<polygon points="345.841,306.007 344.9,305.996 344.926,306.47 344.825,307.715 344.605,308.937 344.29,310.043 343.705,311.441 343.162,312.399 342.164,313.72 341.375,314.522 340.344,315.337 340.484,315.402 341.412,315.926 346.271,319.239 347.11,319.922 351.127,323.808 351.235,323.932 351.355,323.564 351.929,322.254 352.148,321.804 352.961,320.289 353.068,320.097 353.202,319.867 352.67,319.741 352.4,319.67 350.552,319.145 349.657,318.816 348.349,318.221 345.77,316.07 345.274,315.358 344.141,312.016 344.713,309.082 344.916,308.639 346.975,306.134 347.282,305.913 " fill="none" stroke-width="0.5" stroke="rgb(0,0,0)" />
	<polygon points="97.9823,313.923 96.6925,314.486 95.1321,314.97 96.1301,315.213 98.1724,315.939 98.6969,316.186 98.6521,316.084 98.3115,315.094 98.0102,313.907 " fill="none" stroke-width="0.5" stroke="rgb(0,0,0)" />
	<polygon points="428.213,312.798 428.206,313.003 428.168,313.765 428.748,313.523 430.905,312.868 431.362,312.777 430.717,312.732 430.574,312.72 429.671,312.637 429.612,312.631 428.678,312.535 428.219,312.489 " fill="none" stroke-width="0.5" stroke="rgb(0,0,0)" />
	<polygon points="403.4,305.906 404.715,307.883 406.329,309.829 408.146,311.635 409.895,313.077 408.473,310.769 406.098,307.621 403.593,305.204 402.829,304.762 " fill="none" stroke-width="0.5" stroke="rgb(0,0,0)" />
	<polygon points="436.781,312.144 436.543,312.238 436.028,312.4 437.107,312.439 437.114,311.975 " fill="none" stroke-width="0.5" stroke="rgb(0,0,0)" />
	<polygon points="130.92,300.336 131.053,301.184 131.578,307.155 131.573,308.321 131.508,308.997 133.894,308.727 134.074,308.745 135.693,309.118 135.843,309.174 137.682,310.242 137.689,310.249 135.834,306.399 131.265,298.743 130.139,296.896 " fill="none" stroke-width="0.5" stroke="rgb(0,0,0)" />
	<polygon points="312.796,303.497 311.942,304.185 308.119,306.753 308.344,306.773 310.983,307.114 311.565,307.217 313.968,307.76 314.137,307.807 313.572,306.558 313.074,304.856 312.867,303.429 " fill="none" stroke-width="0.5" stroke="rgb(0,0,0)" />
	<polygon points="109.127,296.616 108.992,297.564 108.431,300.114 108.776,300.243 109.059,300.401 109.623,300.962 109.326,296.632 109.177,295.851 " fill="none" stroke-width="0.5" stroke="rgb(0,0,0)" />
	<polygon points="434.665,292.658 434.385,293.086 433.434,294.417 433.35,294.532 432.285,295.955 432.078,296.239 432.679,296.579 434.592,297.612 434.74,297.695 436.445,298.675 437.042,299.063 437.065,299.081 435.578,294.16 434.916,292.24 " fill="none" stroke-width="0.5" stroke="rgb(0,0,0)" />
	<polygon points="458.814,288.087 457.874,288.522 456.794,289.417 455.509,290.969 454.091,293.162 454.047,293.24 454.66,293.178 456.313,293.226 459.502,293.74 461.171,294.274 461.175,294.056 461.177,293.742 461.177,293.532 461.106,292.083 460.907,290.724 460.583,289.475 460.19,288.507 459.847,287.956 459.835,287.944 " fill="none" stroke-width="0.5" stroke="rgb(0,0,0)" />
	<polygon points="87.4458,283.454 87.3919,283.561 85.0369,288.094 84.3085,289.5 86.2081,290.498 86.7297,290.913 87.3457,291.472 87.9103,292.057 88.3681,292.53 88.3788,292.54 88.6837,292.498 89.1019,291.48 89.5645,289.231 89.8832,285.886 90.0376,281.587 90.0618,278.178 " fill="none" stroke-width="0.5" stroke="rgb(0,0,0)" />
	<polygon points="55.0845,276.606 55.3303,277.773 56.0549,279.322 56.3368,279.768 56.8052,280.49 56.847,280.556 57.2921,281.262 57.4223,281.477 57.8139,282.156 58.0247,282.554 58.3504,283.225 58.6057,283.828 58.8535,284.509 59.0852,285.303 59.2428,286.013 59.377,286.927 59.3991,287.23 60.1288,285.887 60.8475,282.758 60.8137,282.631 60.7705,282.522 60.7017,282.395 60.5755,282.217 60.354,281.966 59.798,281.452 59.7832,281.438 57.8612,279.647 57.4851,279.266 55.971,277.596 55.7366,277.322 55.0853,276.516 " fill="none" stroke-width="0.5" stroke="rgb(0,0,0)" />
	<polygon points="417.275,284.36 417.121,284.39 414.603,284.844 412.189,285.308 410.194,285.795 408.652,286.342 408.574,286.378 410.195,286.274 413.38,285.687 416.333,284.835 418.008,284.209 " fill="none" stroke-width="0.5" stroke="rgb(0,0,0)" />
	<polygon points="156.817,225.87 155.801,227.637 155.128,229.02 155.116,229.055 156.72,231.2 157.123,233.708 157.062,235.135 157.044,235.419 156.885,237.241 156.872,237.373 156.647,239.445 156.64,239.507 156.383,241.683 156.381,241.697 156.125,243.816 155.908,245.695 155.769,247.116 155.73,247.846 155.754,248.609 157.394,249.616 158.803,252.143 159.269,253.767 159.389,254.26 159.754,256.071 159.808,256.377 160.1,258.306 160.123,258.477 160.368,260.455 160.375,260.513 160.595,262.446 160.81,264.199 160.972,265.264 162.143,265.674 164.371,268.525 164.912,269.901 165.475,271.324 166.052,272.696 166.645,273.963 167.245,275.067 167.822,275.944 168.322,276.542 169.111,277.238 169.352,277.446 169.8,277.873 170.069,278.157 170.428,278.569 170.691,278.897 171.009,279.332 171.252,279.695 171.552,280.192 171.763,280.579 172.053,281.188 172.219,281.589 172.483,282.369 172.592,282.774 172.778,283.801 172.811,284.139 174.611,282.224 175.222,281.862 175.076,281.762 174.433,281.262 170.318,277.618 169.315,276.489 166.405,272.303 165.428,270.095 164.325,265.269 164.411,262.1 165.553,258.126 166.765,255.83 169.774,252.195 170.665,251.312 174.92,247.861 175.088,247.735 172.613,249.086 172.44,249.178 169.543,250.645 166.077,251.303 162.794,250.009 160.709,247.162 160.462,243.66 160.702,242.529 160.91,241.45 161.094,240.374 161.249,239.3 161.374,238.229 161.467,237.159 161.524,236.09 161.542,235.117 161.445,233.143 161.147,231.263 160.606,229.373 159.767,227.431 158.553,225.401 157.719,224.339 " fill="none" stroke-width="0.5" stroke="rgb(0,0,0)" />
	<polygon points="427.542,278.559 427.075,279.43 425.476,281.028 425.631,280.965 426.685,280.637 427.925,280.367 429.807,280.244 429.994,280.26 430.22,280.3 428.598,276.877 428.094,275.991 " fill="none" stroke-width="0.5" stroke="rgb(0,0,0)" />
	<polygon points="339.921,273.659 339.06,274.587 338.773,275.722 338.979,275.865 339.564,276.119 340.433,276.35 340.77,276.398 340.729,275.976 340.717,275.835 340.678,275.291 340.664,275.023 340.648,274.534 340.673,273.75 340.697,273.487 340.752,273.195 " fill="none" stroke-width="0.5" stroke="rgb(0,0,0)" />
	<polygon points="138.877,273.037 139.456,273.914 139.438,273.814 139.043,272.927 138.071,271.308 137.113,269.837 " fill="none" stroke-width="0.5" stroke="rgb(0,0,0)" />
	<polygon points="421.016,265.872 420.371,267.348 420.275,267.557 420.142,267.834 420.388,267.894 422.013,268.332 422.892,268.64 423.763,269.019 422.679,267.457 421.108,265.635 " fill="none" stroke-width="0.5" stroke="rgb(0,0,0)" />
	<polygon points="129.231,236.01 128.864,238.225 128.624,240.363 128.494,242.352 128.464,243.745 129.835,253.571 133.209,262.523 132.514,260.438 132.231,259.175 131.902,256.388 132.477,252.907 133.511,251.809 133.487,251.587 133.115,250.05 132.465,247.943 131.652,245.501 131.637,245.455 130.801,242.88 130.734,242.66 130.005,240.103 129.897,239.666 129.382,237.207 129.27,236.447 129.232,236.005 " fill="none" stroke-width="0.5" stroke="rgb(0,0,0)" />
	<polygon points="362.198,260.145 362.568,260.137 362.53,259.462 " fill="none" stroke-width="0.5" stroke="rgb(0,0,0)" />
	<polygon points="404.359,255.641 405.321,256.819 405.551,257.119 406.353,258.23 406.781,257.899 408.046,256.881 408.169,256.784 408.503,256.529 407.003,255.953 403.791,255.051 " fill="none" stroke-width="0.5" stroke="rgb(0,0,0)" />
	<polygon points="447.225,253.361 447.228,253.367 448.581,256.732 448.614,256.815 448.798,257.292 450.066,255.045 450.123,254.946 450.552,254.216 447.271,252.395 446.898,252.171 446.691,252.036 " fill="none" stroke-width="0.5" stroke="rgb(0,0,0)" />
	<polygon points="382.29,244.784 381.67,245.946 380.951,247.017 380.127,248.01 379.21,248.91 378.205,249.715 377.144,250.403 376.342,250.816 376.723,251.214 377.842,252.584 378.104,252.929 378.655,253.708 379.05,253.294 379.293,253.052 380.48,251.932 381.185,251.357 382.311,250.565 384.199,249.66 385.238,249.36 387.544,249.133 387.845,249.159 388.251,249.24 385.645,247.404 383.959,245.643 382.725,243.721 " fill="none" stroke-width="0.5" stroke="rgb(0,0,0)" />
	<polygon points="392.723,251.738 392.892,251.949 393.635,253.161 393.668,253.141 395.039,252.503 395.046,252.501 392.439,251.476 " fill="none" stroke-width="0.5" stroke="rgb(0,0,0)" />
	<polygon points="359.178,247.116 358.171,247.796 356.868,248.504 358.193,248.614 361.489,249.872 363.199,252.152 363.49,251.446 363.643,251.157 364.12,250.536 363.787,250.357 362.775,249.684 361.785,248.879 360.914,248.018 360.086,247.025 359.8,246.603 " fill="none" stroke-width="0.5" stroke="rgb(0,0,0)" />
	<polygon points="313.354,224.587 312.216,225.074 310.358,225.662 309.097,225.924 308.094,226.027 308.685,227.856 309.881,229.201 312.223,230.594 315.743,232.123 315.977,232.23 319.776,234.067 320.917,234.777 324.182,237.322 325.725,239.067 328.01,242.881 328.42,244.023 329.245,243.508 330.327,242.967 331.495,242.517 332.472,242.228 332.918,242.134 332.821,241.99 331.707,239.942 331.222,238.797 330.518,236.536 330.263,235.288 330.18,234.473 330.177,234.474 328.931,234.728 327.525,234.87 326.241,234.87 324.846,234.727 323.593,234.47 322.29,234.062 321.146,233.576 319.964,232.931 318.959,232.25 317.926,231.396 317.076,230.545 316.222,229.511 315.543,228.505 314.897,227.319 314.412,226.174 314.004,224.865 313.887,224.295 " fill="none" stroke-width="0.5" stroke="rgb(0,0,0)" />
	<polygon points="190.437,231.098 189.09,234.492 188.42,235.747 186.385,238.707 185.66,239.582 183.568,241.69 184.677,240.884 188.158,237.759 190.043,235.096 190.69,232.355 190.63,231.832 190.49,231.012 190.475,230.948 " fill="none" stroke-width="0.5" stroke="rgb(0,0,0)" />
	<polygon points="464.622,217.339 464.285,220.12 464.25,220.372 463.774,223.313 463.753,223.434 463.207,226.435 463.205,226.45 462.668,229.364 462.219,232.019 461.928,234.25 461.838,235.83 461.91,236.761 461.915,236.783 462.72,235.629 464.103,233.098 465.235,230.311 465.972,227.467 466.224,224.769 465.672,219.819 464.649,217.022 " fill="none" stroke-width="0.5" stroke="rgb(0,0,0)" />
	<polygon points="379.553,228.08 378.483,228.962 379.193,229.525 379.59,229.908 379.652,229.398 379.945,227.687 " fill="none" stroke-width="0.5" stroke="rgb(0,0,0)" />
	<polygon points="47.3392,227.247 45.4962,227.925 46.0934,228.402 46.3763,228.696 46.8055,229.263 47.415,227.215 " fill="none" stroke-width="0.5" stroke="rgb(0,0,0)" />
	<polygon points="132.299,227.448 131.642,228.726 132.189,228.149 132.382,228.095 132.4,227.866 132.426,227.6 132.566,226.453 " fill="none" stroke-width="0.5" stroke="rgb(0,0,0)" />
	<polygon points="84.9366,213.683 85.4524,214.087 86.5014,215.129 86.9642,215.711 87.6345,216.745 87.9908,217.433 88.3856,218.374 88.6374,219.142 88.8508,219.983 89.0004,220.805 89.0923,221.573 89.1417,222.421 89.1073,223.546 89.0476,224.044 89.3812,223.771 90.586,222.995 91.3228,222.631 93.0861,222.06 93.815,221.938 95.7514,221.912 96.3952,222.003 98.0997,222.493 98.7114,222.766 100.128,223.637 100.691,224.095 100.961,224.372 101.247,220.516 101.388,219.579 102.229,215.878 102.498,214.995 103.014,213.663 102.294,213.923 100.826,214.265 97.8285,214.594 96.4292,214.593 93.24,214.237 91.8157,213.909 88.9515,212.89 87.6522,212.252 86.62,211.59 " fill="none" stroke-width="0.5" stroke="rgb(0,0,0)" />
	<polygon points="133.524,218.411 130.187,219.467 132.186,221.434 132.863,224.317 133.238,222.208 133.332,221.772 133.99,219.16 134.151,218.622 134.275,218.265 " fill="none" stroke-width="0.5" stroke="rgb(0,0,0)" />
	<polygon points="442.706,210.351 442.358,210.476 438.048,211.886 437.557,212.026 432.436,213.256 431.86,213.367 425.838,214.237 425.228,214.295 422.653,214.417 425.819,215.956 427.097,216.78 430.79,219.844 431.778,220.872 433.975,223.741 435.113,221.094 435.721,219.994 438.244,216.34 438.847,215.594 441.832,212.426 442.394,211.897 445.525,209.294 445.671,209.185 " fill="none" stroke-width="0.5" stroke="rgb(0,0,0)" />
	<polygon points="64.1337,216.145 63.5676,216.614 65.0717,217.606 65.5885,218.073 66.6629,219.338 67.0627,219.958 67.6426,221.092 67.9356,221.842 68.1171,222.433 68.2489,222.108 68.6577,221.28 71.3223,216.746 71.5507,216.509 70.5768,216.342 68.5051,215.8 67.4139,215.405 65.5434,214.527 65.4539,214.473 " fill="none" stroke-width="0.5" stroke="rgb(0,0,0)" />
	<polygon points="187.85,213.43 188.712,214.721 189.921,217.122 190.414,218.454 190.565,219.066 192.574,217.658 195.362,217.522 194.918,215.917 194.347,214.828 193.605,213.973 192.535,213.193 190.957,212.465 188.773,211.861 186.177,211.491 " fill="none" stroke-width="0.5" stroke="rgb(0,0,0)" />
	<polygon points="337.469,213.487 337.577,213.617 338.259,214.624 338.907,215.812 339.144,216.37 339.594,216.125 339.103,215.531 338.422,214.523 337.775,213.335 337.771,213.325 " fill="none" stroke-width="0.5" stroke="rgb(0,0,0)" />
	<polygon points="402.214,212.544 402.418,212.389 401.958,212.19 " fill="none" stroke-width="0.5" stroke="rgb(0,0,0)" />
	<polygon points="381.119,200.098 380.632,201.242 379.95,202.49 379.27,203.492 378.369,204.582 377.712,205.238 378.334,205.658 379.55,206.659 380.409,207.517 381.411,208.732 381.483,208.838 382.052,206.627 384.62,204.207 386.75,203.792 382.804,200.575 381.75,199.481 381.441,199.071 " fill="none" stroke-width="0.5" stroke="rgb(0,0,0)" />
	<polygon points="55.6723,204.948 55.1452,205.333 53.9522,206.113 53.9534,206.113 56.2237,205.62 57.8934,205.241 57.575,204.233 57.4289,203.522 " fill="none" stroke-width="0.5" stroke="rgb(0,0,0)" />
	<polygon points="366.404,168.786 365.42,169.596 364.408,170.277 363.501,170.768 363.935,171.408 364.974,173.306 365.461,174.45 366.12,176.543 366.379,177.799 366.609,180.039 366.608,181.337 366.559,181.813 367.637,181.702 368.935,181.701 370.408,181.851 370.917,181.956 370.777,181.67 370.421,180.775 367.655,171.927 367.466,171.157 366.943,168.248 " fill="none" stroke-width="0.5" stroke="rgb(0,0,0)" />
	<polygon points="146.239,174.59 145.397,174.813 142.305,175.408 142.403,175.477 143.162,176.098 146.556,179.343 147.063,179.888 147.685,180.641 147.885,179.366 148.11,178.418 149.069,175.422 149.794,173.895 150.222,173.238 " fill="none" stroke-width="0.5" stroke="rgb(0,0,0)" />
	<polygon points="108.874,161.191 108.019,162.228 107.168,163.079 106.133,163.935 105.127,164.616 103.941,165.263 102.796,165.749 101.488,166.158 100.235,166.415 98.8339,166.558 97.5493,166.558 96.4623,166.448 96.5656,166.493 99.9411,168.232 100.601,168.625 103.862,170.84 104.514,171.347 107.512,174.013 108.162,174.683 110.751,177.776 111.371,178.66 112.239,180.153 112.441,179.504 112.924,178.364 113.966,176.445 114.858,175.194 116.244,173.677 117.55,172.586 118.555,171.953 117.798,171.52 116.667,170.695 113.774,168.051 112.89,167.054 110.668,163.943 110.054,162.879 109.121,160.826 " fill="none" stroke-width="0.5" stroke="rgb(0,0,0)" />
	<polygon points="309.49,170.275 308.656,171.572 308.328,171.966 308.778,171.921 310.063,171.92 311.47,172.063 312.718,172.318 313.528,172.57 313.862,171.496 314.289,170.482 312.5,170.117 312.064,170.013 310.216,169.498 309.91,169.404 " fill="none" stroke-width="0.5" stroke="rgb(0,0,0)" />
	<polygon points="336.301,168.072 336.412,168.207 336.59,168.47 337.158,167.903 337.613,167.527 " fill="none" stroke-width="0.5" stroke="rgb(0,0,0)" />
	<polygon points="160.793,167.263 162.125,167.279 163.853,167.617 164.709,167.904 163.605,165 " fill="none" stroke-width="0.5" stroke="rgb(0,0,0)" />
	<polygon points="90.3151,164.935 91.84,164.943 91.2473,164.62 90.6077,164.189 " fill="none" stroke-width="0.5" stroke="rgb(0,0,0)" />
	<polygon points="344.344,163.15 343.292,164.025 342.778,164.366 342.861,164.331 344.953,163.674 345.449,163.572 345.09,162.416 345.084,162.387 " fill="none" stroke-width="0.5" stroke="rgb(0,0,0)" />
	<polygon points="422.908,142.831 421.734,144.235 418.993,146.687 417.9,147.474 414.284,149.53 413.378,149.955 411.315,150.73 417.111,151.252 418.341,151.487 424.761,153.384 425.933,153.862 431.619,156.873 432.552,157.477 435.785,159.999 434.604,157.76 434.115,156.546 432.269,150.109 432.277,146.58 432.354,146.46 431.511,146.238 430.569,145.91 428.89,145.172 427.764,144.533 426.404,143.565 425.217,142.468 424.207,141.263 424.04,140.993 " fill="none" stroke-width="0.5" stroke="rgb(0,0,0)" />
	<polygon points="354.638,136.498 354.679,136.961 354.735,138.081 354.715,139.002 354.088,145.603 353.844,146.803 354.446,146.616 355.69,146.364 357.031,146.229 358.303,146.229 359.643,146.364 360.887,146.617 362.135,147.003 363.281,147.486 364.41,148.099 365.423,148.782 366.407,149.593 366.98,150.165 367.604,149.404 367.662,149.35 369.055,148.402 365.313,146.209 364.343,145.51 359.006,140.841 358.238,140.041 354.5,135.392 " fill="none" stroke-width="0.5" stroke="rgb(0,0,0)" />
	<polygon points="129.848,134.89 129.305,135.235 128.954,135.493 128.599,135.808 125.412,137.322 125.087,137.283 125.557,138.28 126.029,139.691 126.507,141.984 126.556,142.248 126.952,144.652 127.304,146.121 127.342,146.086 127.829,145.49 128.365,144.607 128.94,143.293 129.242,142.372 129.559,141.272 129.831,140.18 130.054,139.107 130.227,138.065 130.35,137.066 130.423,136.124 130.446,135.261 130.425,134.577 " fill="none" stroke-width="0.5" stroke="rgb(0,0,0)" />
	<polygon points="102.257,139.569 102.062,140.523 102.795,140.753 103.939,141.238 105.126,141.884 106.131,142.565 107.166,143.42 107.318,143.572 107.412,143.134 107.87,141.369 108.095,140.668 108.104,140.646 107.819,140.722 105.001,139.992 102.364,138.603 102.356,138.595 " fill="none" stroke-width="0.5" stroke="rgb(0,0,0)" />
	<polygon points="327.115,141.834 327.045,142.513 328.646,142.116 327.109,140.554 " fill="none" stroke-width="0.5" stroke="rgb(0,0,0)" />
	<polygon points="314.951,123.776 313.504,124.166 312.235,124.758 311.139,125.513 310.232,126.383 309.54,127.299 309.084,128.169 308.668,129.482 307.171,131.726 307.516,131.955 308.584,132.526 309.587,132.933 310.576,133.208 311.612,133.374 312.811,133.434 313.142,133.424 313.645,133.385 314.239,133.32 314.898,133.235 315.583,133.143 315.635,133.136 316.29,133.053 316.458,133.034 317.047,132.975 317.398,132.95 317.905,132.928 318.479,132.932 318.332,132.806 318.031,132.507 317.385,131.755 317.143,131.424 316.633,130.602 316.448,130.247 316.082,129.394 315.953,129.02 315.724,128.171 315.648,127.785 315.542,126.962 315.517,126.569 315.538,125.511 315.615,124.768 315.825,123.7 " fill="none" stroke-width="0.5" stroke="rgb(0,0,0)" />
	<polygon points="118.2,131.971 117.763,132.765 118.552,132.838 118.234,131.894 " fill="none" stroke-width="0.5" stroke="rgb(0,0,0)" />
	<polygon points="94.1248,112.107 94.0186,112.208 91.842,114.229 91.4236,114.585 89.1604,116.348 88.2464,116.941 85.9082,118.188 84.1473,118.815 81.7459,119.288 79.8437,119.372 79.8307,119.37 79.8669,119.69 80.0556,123.005 80.0643,123.507 80.0326,124.934 80.0206,125.209 79.9295,126.597 79.907,126.858 79.783,128.016 80.1057,127.692 81.1404,126.836 82.1467,126.154 83.3328,125.506 84.4788,125.019 85.7877,124.61 87.0409,124.352 88.444,124.209 89.7307,124.209 91.1358,124.352 92.3874,124.609 93.6982,125.019 94.8431,125.504 96.031,126.152 96.3698,126.381 96.1808,125.542 96.0816,124.988 95.2879,119.054 95.271,118.916 94.6216,113.099 94.4294,111.811 " fill="none" stroke-width="0.5" stroke="rgb(0,0,0)" />
	<polygon points="184.481,107.632 184.535,108.812 184.493,109.703 184.421,110.405 184.289,111.231 184.085,112.105 183.855,112.848 183.42,113.906 183.084,114.552 182.291,115.729 181.841,116.26 180.63,117.36 180.056,117.759 178.564,118.528 177.859,118.78 176.378,119.116 175.534,119.203 173.234,119.02 172.451,118.81 173.42,120.409 173.915,121.419 175.602,125.8 175.886,126.754 176.017,127.369 176.714,126.749 177.309,126.281 180.309,124.194 181.086,123.732 184.206,122.166 185.198,121.768 188.42,120.784 189.623,120.54 192.927,120.198 194.285,120.203 195.555,120.345 193.589,118.406 193.203,117.989 188.959,112.976 188.751,112.718 184.391,106.987 " fill="none" stroke-width="0.5" stroke="rgb(0,0,0)" />
	<polygon points="424.586,124.397 424.76,124.982 425.027,126.073 425.631,125.419 426.203,124.916 426.16,124.887 425.158,124.034 424.25,123.082 424.026,122.793 " fill="none" stroke-width="0.5" stroke="rgb(0,0,0)" />
	<polygon points="124.022,112.104 122.437,118.442 122.409,118.552 121.377,122.385 123.147,119.473 123.738,118.656 126.521,115.385 127.251,114.657 128.678,113.447 128.146,113.044 127.316,112.293 125.814,110.67 125.535,110.347 124.77,109.4 " fill="none" stroke-width="0.5" stroke="rgb(0,0,0)" />
	<polygon points="379.026,99.8299 377.982,100.465 371.766,103.463 372.329,103.291 376.454,101.528 376.855,101.324 377.216,101.155 377.802,100.902 378.173,100.756 378.756,100.547 379.134,100.424 379.711,100.257 380.096,100.159 380.665,100.032 381.055,99.9581 381.613,99.8698 382.007,99.8201 382.554,99.7685 382.951,99.7435 383.483,99.7267 384.642,99.7963 386.607,100.096 388.743,100.829 390.161,101.62 391.708,102.832 392.752,103.95 393.412,104.789 394.257,106.071 394.304,106.143 394.593,106.594 395.56,106.366 396.968,105.905 398.599,105.29 400.313,104.627 400.475,104.567 402.126,103.979 402.58,103.836 404.1,103.42 405.037,103.238 406.384,103.08 409.237,103.399 411.278,104.12 413.457,105.428 415.6,107.395 416.436,108.329 418.566,111.246 418.977,111.887 420.743,115.04 420.658,114.632 420.655,114.618 420.381,113.3 420.135,112.348 419.948,111.852 419.931,111.823 419.52,111.406 417.834,108.306 418.064,104.785 419.251,103.152 416.327,103.123 416.203,103.12 412.87,103.022 412.749,103.017 409.38,102.854 409.261,102.847 405.864,102.618 405.746,102.609 402.33,102.314 402.212,102.303 398.787,101.944 398.668,101.93 395.242,101.506 395.122,101.49 391.704,101 391.617,100.987 391.142,100.912 390.611,100.805 390.225,100.71 389.424,100.455 389.12,100.336 388.012,99.7701 387.781,99.6223 386.525,98.5636 386.359,98.3829 385.358,96.9218 385.249,96.7042 384.819,95.4964 " fill="none" stroke-width="0.5" stroke="rgb(0,0,0)" />
	<polygon points="348.895,107.76 349.123,108.457 349.199,108.758 349.565,108.39 349.741,108.233 350.163,107.89 350.351,107.75 350.573,107.592 350.766,107.46 351.511,107.089 348.477,106.861 " fill="none" stroke-width="0.5" stroke="rgb(0,0,0)" />
	<polygon points="41.1446,107.205 38.2603,107.737 40.774,108.695 41.0527,107.742 41.2828,107.165 " fill="none" stroke-width="0.5" stroke="rgb(0,0,0)" />
	<polygon points="145.349,101.875 144.773,105.098 144.661,105.602 144.531,106.095 145.294,105.981 149.424,105.679 150.602,105.702 152.887,105.961 149.939,103.442 146.07,100.331 145.681,100.074 " fill="none" stroke-width="0.5" stroke="rgb(0,0,0)" />
	<polygon points="70.3087,92.8246 65.2845,95.469 63.2503,96.5912 64.7315,97.0247 68.114,98.5845 69.6037,99.5436 70.0885,99.962 70.1713,99.2406 70.1829,99.146 70.4709,96.9307 70.472,96.9216 70.7549,94.7703 70.9905,92.7866 71.0153,92.51 " fill="none" stroke-width="0.5" stroke="rgb(0,0,0)" />
	<polygon points="396.626,79.126 396.091,80.3629 394.378,83.3934 395.007,82.919 395.99,81.7993 396.598,80.5273 396.914,78.3101 396.91,78.2115 " fill="none" stroke-width="0.5" stroke="rgb(0,0,0)" />
	<polygon points="173.574,77.467 173.589,77.451 173.888,77.1932 173.391,77.0353 " fill="none" stroke-width="0.5" stroke="rgb(0,0,0)" />
	<polygon points="126.626,60.6044 125.881,63.6984 125.149,67.1717 125.062,67.5317 124.215,70.6388 123.72,71.904 123.525,72.2778 123.682,72.3337 126.141,73.9267 126.867,74.685 126.946,73.8056 127.024,73.2366 127.196,72.2983 127.439,71.3706 127.701,70.6126 128.399,69.1929 128.769,68.6314 130.419,66.9288 130.915,66.58 131.272,66.4294 130.721,65.7301 130.55,65.5038 128.819,63.0945 127.179,60.9224 126.702,60.4009 " fill="none" stroke-width="0.5" stroke="rgb(0,0,0)" />
	<polygon points="104.608,60.165 102.858,61.5908 101.005,63.177 100.847,63.308 99.0656,64.7359 98.4566,65.1678 96.8387,66.1778 95.9705,66.5558 96.2471,67.2578 96.4365,67.917 96.6215,68.7867 96.7292,69.5532 96.7861,70.1879 96.8202,71.0579 96.8119,71.7147 96.7343,72.9198 98.3289,71.4841 100.498,70.2036 102.556,69.4901 106.08,69.3061 106.901,69.6884 106.854,69.4446 106.59,66.2829 106.573,66.0171 106.43,62.5643 106.15,59.6453 106.027,59.189 " fill="none" stroke-width="0.5" stroke="rgb(0,0,0)" />
	<polygon points="400.332,59.1985 400.328,60.3822 400.229,61.4037 401.036,61.0935 401.29,61.0217 402.43,60.8092 402.693,60.7848 405.6,61.1963 406.71,61.6316 408.454,62.663 409.832,63.8108 410.195,64.1376 411.825,65.7216 413.587,67.3761 415.388,68.8223 417.199,69.9219 418.996,70.598 421.16,70.8711 421.417,70.859 422.047,70.7634 422.602,70.601 422.965,70.4213 423.139,70.2798 423.269,70.1 423.465,69.569 423.531,68.9359 423.07,67.4029 421.375,65.6527 417.743,63.5038 412.922,61.5067 407.758,59.7944 403.071,58.3545 402.773,58.2547 400.161,57.3081 " fill="none" stroke-width="0.5" stroke="rgb(0,0,0)" />
	<polygon points="162.57,47.1171 162.437,47.4595 161.577,48.9953 161.37,49.268 161.242,49.3974 164.282,50.4309 164.456,50.4929 167.988,51.8095 167.993,51.8113 169.64,52.4268 166.19,48.9483 162.92,45.6988 " fill="none" stroke-width="0.5" stroke="rgb(0,0,0)" />
	<polygon points="144.86,51.7692 144.963,52.0082 145.63,51.1144 146.122,50.5958 145.578,50.4508 144.242,50.1409 " fill="none" stroke-width="0.5" stroke="rgb(0,0,0)" />
	<polygon points="88.7212,48.3859 88.6834,48.3923 89.0347,49.571 90.0474,48.3 90.1691,48.1444 " fill="none" stroke-width="0.5" stroke="rgb(0,0,0)" />
	<polygon points="445.093,42.1861 444.626,43.9096 444.323,45.6044 444.213,47.3528 444.248,47.8946 444.294,48.1061 444.438,48.1184 444.672,47.4385 444.924,46.1576 445.084,44.5121 445.136,42.6153 445.126,42.0895 " fill="none" stroke-width="0.5" stroke="rgb(0,0,0)" />
	<polygon points="392.631,32.8666 396.403,39.7492 396.923,40.9988 397.738,43.7529 398.178,43.3962 400.172,42.3949 400.948,42.0678 403.92,41.0413 404.336,40.9135 407.997,39.9234 408.293,39.851 410.913,39.2756 407.002,37.2092 402.633,35.5531 398.615,34.4102 395.236,33.5646 394.762,33.4261 392.49,32.6653 " fill="none" stroke-width="0.5" stroke="rgb(0,0,0)" />
	<polygon points="69.82,40.0566 69.8104,40.0626 68.0359,41.1686 70.8371,41.4607 71.4055,41.5152 71.943,38.728 " fill="none" stroke-width="0.5" stroke="rgb(0,0,0)" />
	<polygon points="81.7594,28.2575 80.9554,30.4201 79.9125,32.0619 80.7325,31.7255 80.9368,31.6458 84.086,30.4795 85.8883,29.7484 85.27,29.4786 84.3404,28.9774 82.0882,26.7058 " fill="none" stroke-width="0.5" stroke="rgb(0,0,0)" />
</svg>
