<?xml version="1.0" standalone="no" ?>
<!DOCTYPE svg PUBLIC "-//W3C//DTD SVG 1.1//EN" "http://www.w3.org/Graphics/SVG/1.1/DTD/svg11.dtd">
<svg width="500px" height="500px" xmlns="http://www.w3.org/2000/svg" version="1.1" >
	<polygon points="462.373,280.768 461.603,294.498 459.314,308.95 455.419,324.323 449.888,340.281 442.708,356.503 433.875,372.689 423.388,388.546 411.252,403.799 397.469,418.181 382.037,431.438 364.942,443.327 346.159,453.613 325.641,462.059 303.325,468.424 279.134,472.449 252.977,473.857 227.5,472.529 203.815,468.717 181.883,462.674 161.648,454.63 143.064,444.807 126.1,433.416 110.74,420.67 96.979,406.785 84.8241,391.987 74.286,376.512 65.3768,360.604 58.107,344.521 52.4818,328.528 48.4982,312.905 46.1402,297.94 45.3405,283.399 45.3405,37.8846 50.0155,37.8488 61.5071,37.7606 72.9988,37.6724 84.4905,37.5842 95.9822,37.4961 95.9822,37.4961 107.474,37.4079 118.965,37.3197 130.457,37.2315 130.457,37.2315 141.949,37.1434 153.441,37.0552 153.441,37.0552 164.932,36.967 176.424,36.8788 187.916,36.7907 187.916,36.7907 192.271,36.7572 192.257,43.926 192.231,56.8248 192.206,69.7236 192.206,69.7237 192.18,82.6224 192.129,108.42 192.129,108.42 192.104,121.319 192.053,147.116 192.028,160.015 192.002,172.914 191.977,185.813 191.951,198.712 191.926,211.61 191.926,211.61 191.9,224.509 191.901,224.688 191.988,235.983 191.99,236.121 192.154,246.938 192.16,247.189 192.457,257.495 192.472,257.879 192.957,267.64 192.992,268.183 193.72,277.367 193.793,278.103 194.819,286.676 194.962,287.647 196.342,295.575 196.606,296.832 198.396,304.082 198.866,305.674 201.12,312.213 201.921,314.167 204.695,319.961 205.992,322.239 209.341,327.255 211.285,329.693 215.265,333.898 217.883,336.187 222.548,339.547 225.634,341.343 231.041,343.824 234.211,344.942 240.413,346.512 243.313,347.004 250.367,347.628 251.947,329.779 253.18,347.656 260.441,347.156 263.355,346.719 269.702,345.241 272.949,344.159 278.444,341.741 281.653,339.926 286.359,336.605 289.097,334.237 293.075,330.049 295.096,327.507 298.409,322.488 299.733,320.119 302.442,314.306 303.24,312.293 305.408,305.724 305.862,304.106 307.55,296.816 307.796,295.558 309.067,287.585 309.194,286.629 310.11,278.01 310.172,277.302 310.794,268.072 310.821,267.567 311.213,257.764 311.223,257.424 311.446,247.084 311.449,246.884 311.564,236.044 311.565,235.963 311.635,224.66 311.635,224.509 311.609,211.61 311.583,198.711 311.557,185.812 311.532,172.913 311.532,172.913 311.506,160.015 311.454,134.217 311.454,134.217 311.428,121.318 311.351,82.6219 311.351,82.6218 311.325,69.7231 311.258,36.4964 316.396,36.4633 316.396,36.4633 339.903,36.3122 351.656,36.2367 363.409,36.1611 375.163,36.0855 386.916,36.01 410.422,35.8589 422.176,35.7833 433.929,35.7077 457.435,35.5566 462.373,35.5249 " fill="none" stroke-width="0.5" stroke="rgb(0,0,0)" />
</svg>
