<?xml version="1.0" standalone="no" ?>
<!DOCTYPE svg PUBLIC "-//W3C//DTD SVG 1.1//EN" "http://www.w3.org/Graphics/SVG/1.1/DTD/svg11.dtd">
<svg width="500px" height="500px" xmlns="http://www.w3.org/2000/svg" version="1.1" >
	<polygon points="469.273,280.962 468.472,295.232 466.08,310.34 462.035,326.304 456.314,342.811 448.902,359.558 439.791,376.251 428.976,392.605 416.454,408.344 402.219,423.197 386.266,436.902 368.58,449.202 349.138,459.848 327.908,468.588 304.842,475.166 279.888,479.318 252.983,480.767 226.77,479.4 202.346,475.47 179.686,469.225 158.753,460.904 139.519,450.737 121.964,438.949 106.075,425.765 91.8515,411.413 79.2953,396.127 68.4131,380.146 59.2116,363.717 51.6967,347.091 45.8712,330.529 41.7325,314.297 39.2698,298.669 38.4405,283.588 38.4405,31.0374 38.4708,31.0371 49.9625,30.949 61.4542,30.8608 61.4542,30.8608 72.9459,30.7726 84.4375,30.6844 95.9292,30.5963 95.9292,30.5963 107.421,30.5081 118.913,30.4199 130.404,30.3317 141.896,30.2436 153.388,30.1554 164.879,30.0672 176.371,29.979 187.863,29.8909 199.184,29.804 199.182,31.0409 199.182,31.0409 199.156,43.9397 199.131,56.8385 199.106,69.7373 199.106,69.7373 199.08,82.636 199.029,108.434 199.029,108.434 199.004,121.332 198.953,147.13 198.953,147.13 198.928,160.029 198.902,172.928 198.902,172.928 198.877,185.826 198.851,198.725 198.826,211.624 198.826,211.624 198.8,224.523 198.801,224.635 198.888,235.929 198.889,236.016 199.053,246.833 199.057,246.99 199.354,257.296 199.363,257.536 199.848,267.298 199.87,267.638 200.598,276.822 200.644,277.282 201.67,285.855 201.76,286.463 203.14,294.392 203.305,295.178 205.095,302.429 205.389,303.425 207.643,309.964 208.145,311.187 210.919,316.982 211.731,318.408 215.08,323.424 216.297,324.95 220.276,329.155 221.915,330.588 226.58,333.947 228.512,335.072 233.919,337.553 235.903,338.253 242.106,339.823 243.921,340.131 250.976,340.755 251.947,329.779 252.705,340.773 259.966,340.272 261.79,339.998 268.137,338.521 270.17,337.843 275.665,335.425 277.674,334.289 282.38,330.967 284.094,329.486 288.072,325.297 289.337,323.706 292.65,318.687 293.479,317.204 296.188,311.391 296.688,310.131 298.856,303.562 299.14,302.549 300.828,295.259 300.982,294.471 302.253,286.498 302.333,285.9 303.249,277.281 303.287,276.838 303.91,267.608 303.927,267.291 304.318,257.488 304.325,257.276 304.547,246.936 304.549,246.811 304.664,235.971 304.665,235.92 304.735,224.617 304.735,224.522 304.709,211.624 304.683,198.725 304.632,172.927 304.632,172.927 304.606,160.028 304.554,134.231 304.554,134.231 304.528,121.332 304.451,82.6357 304.451,82.6357 304.425,69.7369 304.347,31.0405 304.347,31.0405 304.344,29.6407 304.599,29.639 316.352,29.5635 316.352,29.5635 328.105,29.4879 339.859,29.4124 351.612,29.3368 351.612,29.3368 363.365,29.2612 375.118,29.1857 386.872,29.1101 386.872,29.1101 410.378,28.959 422.131,28.8834 422.131,28.8834 433.885,28.8079 445.638,28.7323 457.391,28.6568 469.144,28.5812 469.273,28.5804 " fill="none" stroke-width="0.5" stroke="rgb(0,0,0)" />
	<polygon points="320.052,423.386 320.232,424.177 320.31,424.556 320.554,424.747 320.988,425.115 321.601,424.648 322.301,424.163 322.466,424.063 322.271,422.654 " fill="none" stroke-width="0.5" stroke="rgb(0,0,0)" />
</svg>
