<?xml version="1.0" standalone="no" ?>
<!DOCTYPE svg PUBLIC "-//W3C//DTD SVG 1.1//EN" "http://www.w3.org/Graphics/SVG/1.1/DTD/svg11.dtd">
<svg width="500px" height="500px" xmlns="http://www.w3.org/2000/svg" version="1.1" >
	<polygon points="473.973,86.0758 472.618,87.7264 471.337,88.9304 464.303,94.0148 463.076,94.7214 458.892,96.5836 459.473,96.8239 460.085,97.1622 460.822,96.3208 465.954,95.3405 468.44,95.851 469.642,96.2155 471.738,97.0675 472.981,97.7292 473.973,98.3969 473.973,193.303 472.991,193.636 470.977,193.448 469.997,193.207 472.944,195.656 473.655,196.339 473.973,196.693 473.973,253.29 473.435,254.04 473.351,254.155 473.231,254.316 473.973,254.277 473.973,281.094 473.151,295.733 472.367,300.688 472.13,300.918 471.02,301.525 471.898,302.674 472.021,302.868 470.688,311.286 466.541,327.653 460.69,344.535 453.121,361.638 448.79,369.573 447.535,368.758 447.9,369.952 448.082,370.871 443.821,378.677 432.783,395.37 419.997,411.44 405.455,426.613 395.934,434.792 395.783,434.677 394.965,433.952 394.987,434.09 395.095,435.513 389.146,440.623 371.057,453.204 351.168,464.095 329.452,473.035 316.467,476.738 315.39,475.863 314.403,474.879 312.678,472.765 311.924,471.627 310.68,469.268 310.176,468.032 309.423,465.509 309.169,464.212 308.916,461.607 308.899,460.537 307.994,462.632 307.372,463.763 304.606,467.836 303.128,469.407 302.098,470.203 302.211,470.195 303.075,470.165 303.859,470.183 304.73,470.252 306.079,470.498 306.748,470.691 308.332,471.372 308.825,471.664 310.326,472.86 310.67,473.225 311.727,474.69 311.949,475.104 312.497,476.452 312.623,476.891 312.807,477.782 305.876,479.759 280.402,483.997 252.987,485.474 226.273,484.081 201.345,480.069 178.189,473.688 156.781,465.178 137.104,454.777 119.146,442.718 102.898,429.236 88.3588,414.566 75.5294,398.947 64.4127,382.622 55.0121,365.837 47.3304,348.842 41.3684,331.892 38.5632,320.89 38.5982,320.778 38.9883,319.796 42.5418,312.54 41.7832,312.745 37.9386,312.667 36.6539,312.262 34.59,299.165 33.7405,283.718 33.7405,152.275 33.9498,151.967 37.4892,147.699 37.5592,147.63 36.9154,147.507 34.38,146.767 33.7405,146.51 33.7405,38.2815 36.7102,36.3652 36.8009,36.3077 39.3026,34.7483 39.216,34.7269 39.1796,34.7177 34.8802,33.6286 34.5041,33.5217 33.7405,33.2812 33.7405,26.3733 38.4348,26.3373 49.9265,26.2491 61.4181,26.1609 72.9098,26.0728 84.4015,25.9846 95.8932,25.8964 107.385,25.8082 118.876,25.7201 130.368,25.6319 141.86,25.5437 153.352,25.4555 164.843,25.3673 187.827,25.191 203.894,25.0677 203.882,31.0501 203.882,31.0501 203.856,43.9489 203.831,56.8477 203.806,69.7465 203.806,69.7465 203.78,82.6453 203.774,85.6379 203.184,85.6287 199.203,85.2233 198.375,85.0873 198.074,85.0187 198.508,85.3323 198.701,85.4768 203.505,89.2056 203.686,89.3517 203.767,89.4187 203.729,108.443 203.729,108.443 203.704,121.342 203.653,147.139 203.628,160.038 203.602,172.937 203.602,172.937 203.582,183.113 202.664,183.912 201.579,184.686 199.232,186.035 201.272,186.929 202.392,187.552 203.572,188.36 203.551,198.734 203.526,211.633 203.526,211.633 203.5,224.532 203.501,224.598 203.588,235.893 203.588,235.944 203.753,246.761 203.755,246.854 204.052,257.161 204.057,257.303 204.542,267.065 204.555,267.266 205.283,276.45 205.31,276.724 206.337,285.296 206.39,285.657 207.77,293.585 207.868,294.052 209.658,301.302 209.832,301.893 212.086,308.432 212.384,309.158 215.158,314.952 215.639,315.798 218.988,320.814 219.71,321.719 223.69,325.924 224.662,326.774 229.327,330.133 230.473,330.8 235.879,333.282 237.056,333.697 243.259,335.266 244.335,335.449 251.306,336.066 251.852,338.014 252.045,338.954 252.072,339.156 253.761,335.989 259.642,335.583 260.724,335.421 267.071,333.943 268.277,333.541 273.772,331.123 274.964,330.45 279.67,327.128 280.686,326.249 284.664,322.06 285.414,321.116 288.727,316.097 289.219,315.218 291.928,309.405 292.225,308.658 294.393,302.089 294.561,301.488 296.25,294.199 296.341,293.731 297.612,285.758 297.659,285.404 298.575,276.784 298.598,276.521 299.221,267.292 299.231,267.104 299.622,257.301 299.626,257.175 299.848,246.835 299.849,246.761 299.965,235.921 299.965,235.891 300.035,224.588 300.035,224.532 300.009,211.633 299.983,198.734 299.957,185.835 299.936,175.205 300.131,175.01 300.397,174.79 299.935,174.765 299.932,172.937 299.932,172.937 299.906,160.038 299.854,134.24 299.854,134.24 299.828,121.341 299.798,106.531 300.032,106.203 300.972,105.138 303.456,102.85 304.67,101.958 307.781,100.162 309.166,99.5544 310.008,99.2919 310.007,99.2905 309.876,98.5892 309.813,98.1858 309.706,97.3394 309.699,97.3456 307.297,99.4321 307.082,99.6115 304.805,101.432 304.253,101.829 302.267,103.117 300.624,103.894 299.794,104.159 299.751,82.6451 299.751,82.6451 299.725,69.7463 299.647,31.0499 299.647,31.0499 299.635,24.9709 304.569,24.9391 316.322,24.8636 328.075,24.788 339.828,24.7125 351.582,24.6369 363.335,24.5613 375.088,24.4858 385.742,24.4173 386.06,24.6504 387.042,25.5493 387.145,24.4083 410.348,24.2591 422.101,24.1835 433.854,24.108 445.608,24.0324 457.361,23.9569 469.114,23.8813 473.973,23.8501 " fill="none" stroke-width="0.5" stroke="rgb(0,0,0)" />
	<polygon points="191.541,444.084 191.873,445.06 192.54,447.65 192.751,447.712 194.206,448.033 195.789,448.288 197.323,448.447 198.59,448.496 200.286,448.403 201.89,448.121 203.321,447.653 204.504,447.025 205.449,446.247 206.232,445.234 206.898,443.772 207.295,441.938 202.831,442.272 201.783,442.27 195.565,441.781 194.406,441.589 189.997,440.462 " fill="none" stroke-width="0.5" stroke="rgb(0,0,0)" />
	<polygon points="161.054,432.397 158.055,437.055 157.084,438.245 152.89,442.345 151.581,443.346 148.923,444.915 152.206,444.211 155.217,442.983 157.464,441.468 159.109,439.698 160.299,437.583 161.075,434.969 161.355,431.812 " fill="none" stroke-width="0.5" stroke="rgb(0,0,0)" />
	<polygon points="325.815,416.538 316.31,419.67 314.862,419.979 313.75,420.093 314.547,421.552 315.041,422.849 315.318,423.767 315.649,425.219 315.703,425.484 315.955,426.835 316.054,427.254 316.14,427.315 316.175,427.34 317.082,427.993 317.512,428.33 318.379,429.065 319.145,429.827 319.878,430.682 320.685,431.894 320.872,431.679 321.05,431.483 321.769,430.72 322.016,430.472 322.731,429.787 323.077,429.478 323.785,428.886 324.276,428.512 324.977,428.027 325.681,427.6 326.371,427.236 327.376,426.805 328.054,426.576 328.309,426.518 327.46,424.905 327.11,423.664 326.854,421.809 326.854,416.064 " fill="none" stroke-width="0.5" stroke="rgb(0,0,0)" />
	<polygon points="378.293,417.615 378.291,417.776 378.282,418.156 379.581,417.806 381.151,417.99 382.594,418.32 384.227,418.884 385.509,419.483 387.121,420.449 388.24,421.286 389.127,422.103 389.097,421.201 389.127,420.727 389.266,419.714 389.308,419.521 388.92,419.479 387.683,419.231 384.123,418.166 383.155,417.795 379.817,416.216 379.03,415.778 378.293,415.302 " fill="none" stroke-width="0.5" stroke="rgb(0,0,0)" />
	<polygon points="165.462,413.583 165.466,414.582 165.146,419.266 165.009,420.236 164.857,420.944 167.51,420.048 170.881,420.728 171.098,420.834 171.09,420.785 171.033,419.115 171.065,418.747 171.329,417.377 171.425,417.058 172.065,415.583 172.222,415.313 173.249,413.966 173.466,413.745 174.294,413.077 173.094,412.58 172.533,412.318 169.897,410.936 169.361,410.624 166.934,409.057 166.396,408.672 164.993,407.56 " fill="none" stroke-width="0.5" stroke="rgb(0,0,0)" />
	<polygon points="258.772,400.801 258.676,401.813 258.424,403.114 258.148,404.045 257.639,405.296 257.199,406.129 256.69,406.899 257.631,407.265 258.206,407.52 261.066,408.947 261.511,409.19 264.294,410.847 264.665,411.084 267.283,412.88 267.622,413.129 269.986,414.975 270.332,415.264 272.355,417.069 272.758,417.459 272.888,417.596 274.145,417.379 274.43,417.336 275.764,417.164 276.034,417.134 277.417,417.011 277.672,416.993 279.105,416.919 279.344,416.91 280.826,416.886 281.098,416.887 279.391,416.328 278.032,415.713 269.426,410.62 268.269,409.758 261.168,403.202 260.267,402.189 258.78,400.136 " fill="none" stroke-width="0.5" stroke="rgb(0,0,0)" />
	<polygon points="244.388,411.855 243.61,416.831 243.384,417.56 244.249,415.803 245.406,411.737 245.135,411.698 244.411,411.5 " fill="none" stroke-width="0.5" stroke="rgb(0,0,0)" />
	<polygon points="364.35,399.915 365.081,400.072 365.866,400.289 366.973,400.668 367.077,399.304 " fill="none" stroke-width="0.5" stroke="rgb(0,0,0)" />
	<polygon points="349.419,395.257 348.787,396.312 346.658,399.236 347.61,399.07 348.402,398.98 352.909,398.728 353.539,398.721 356.593,398.832 355.597,398.153 354.302,397.004 353.323,395.885 352.616,394.917 351.759,393.5 351.341,392.691 351.017,391.947 " fill="none" stroke-width="0.5" stroke="rgb(0,0,0)" />
	<polygon points="308.8,393.664 308.289,393.814 305.076,394.623 304.448,394.751 300.74,395.323 300.045,395.394 296.578,395.572 297.623,395.855 304.342,396.437 307.602,396.302 310.541,395.914 311.272,395.741 310.321,394.417 310.065,393.585 310.045,393.245 " fill="none" stroke-width="0.5" stroke="rgb(0,0,0)" />
	<polygon points="201.117,388.682 202.954,392.068 203.378,393.011 204.519,396.176 204.564,396.355 206.572,393.387 208.151,391.734 212.106,388.784 213.319,388.246 207.12,388.796 205.763,388.781 200.833,388.237 " fill="none" stroke-width="0.5" stroke="rgb(0,0,0)" />
	<polygon points="222.753,386.353 223.456,386.407 224.249,386.514 224.908,386.644 224.844,385.856 224.844,385.738 " fill="none" stroke-width="0.5" stroke="rgb(0,0,0)" />
	<polygon points="246.347,368.846 242.281,374.312 241.694,374.949 242.234,375.225 243.118,375.816 244.243,376.758 244.986,377.53 245.309,377.935 246.165,377.958 247.411,378.084 248.115,378.23 247.196,374.839 246.985,373.658 246.526,368.548 " fill="none" stroke-width="0.5" stroke="rgb(0,0,0)" />
	<polygon points="83.78,366.593 83.4894,366.638 82.6478,366.749 81.8243,366.808 79.5108,366.832 78.7502,366.764 79.8443,369.532 80.7639,375.604 81.4426,374.902 83.9511,372.668 84.8397,371.997 87.319,370.426 87.7377,370.215 87.4429,370.01 85.9572,368.744 85.0579,367.818 84.0379,366.548 " fill="none" stroke-width="0.5" stroke="rgb(0,0,0)" />
	<polygon points="172.197,373.537 172.398,374.05 172.545,374.062 172.837,374.071 173.246,374.066 173.167,373.983 171.843,372.333 " fill="none" stroke-width="0.5" stroke="rgb(0,0,0)" />
	<polygon points="356.616,370.435 356.397,372.562 356.677,372.43 357.386,372.142 358.954,371.604 359.49,371.445 361.168,371.019 361.548,370.893 360.175,370.183 359.02,369.431 357.43,368.15 356.444,367.177 355.651,366.216 " fill="none" stroke-width="0.5" stroke="rgb(0,0,0)" />
	<polygon points="324.212,367.329 323.508,368.445 322.578,369.645 323.478,369.624 327.019,369.394 329.349,369.143 329.314,369.129 326.698,367.787 325.496,367.002 324.702,366.355 " fill="none" stroke-width="0.5" stroke="rgb(0,0,0)" />
	<polygon points="276.869,366.924 276.897,366.918 276.91,366.852 " fill="none" stroke-width="0.5" stroke="rgb(0,0,0)" />
	<polygon points="353.971,364.598 355.439,365.959 355.163,365.625 354.398,364.48 354.293,364.283 " fill="none" stroke-width="0.5" stroke="rgb(0,0,0)" />
	<polygon points="117.716,354.587 116.927,354.956 116.945,356.462 116.828,357.81 116.416,359.999 116.023,361.331 115.355,362.96 116.383,362.773 120.634,362.388 122.003,362.401 123.362,362.552 122.808,362.159 121.711,361.216 120.531,359.902 119.863,358.932 118.995,357.173 118.664,356.156 118.35,354.599 118.32,354.238 " fill="none" stroke-width="0.5" stroke="rgb(0,0,0)" />
	<polygon points="295.466,357.504 293.996,358.168 291.503,358.955 292.206,359.336 294.074,360.722 294.224,360.837 296.537,362.653 296.928,362.92 296.813,362.311 296.669,360.774 296.647,359.81 296.699,358.703 296.746,358.165 296.884,357.075 296.941,356.71 296.96,356.605 " fill="none" stroke-width="0.5" stroke="rgb(0,0,0)" />
	<polygon points="441.416,355.52 442.288,356.732 445.202,361.886 444.729,359.159 442.783,356.086 439.914,353.852 " fill="none" stroke-width="0.5" stroke="rgb(0,0,0)" />
	<polygon points="394.85,340.578 394.645,340.75 393.497,341.672 392.894,342.105 391.873,342.758 390.131,343.554 389.296,343.801 386.509,344.03 386.706,344.438 387.835,347.638 388.182,349.145 388.388,350.958 388.875,350.479 393.487,346.615 395.13,345.594 398.411,344.152 398.223,343.95 396.946,342.412 396.791,342.218 395.444,340.471 395.254,340.227 " fill="none" stroke-width="0.5" stroke="rgb(0,0,0)" />
	<polygon points="58.1472,342.216 61.4317,347.498 62.2957,348.353 62.2897,347.775 62.4437,346.259 62.9351,343.984 63.3876,342.611 64.316,340.555 64.9605,339.433 62.6911,338.946 61.767,338.679 59.2983,337.772 58.1378,337.217 57.4901,336.829 " fill="none" stroke-width="0.5" stroke="rgb(0,0,0)" />
	<polygon points="164.473,296.925 163.512,297.342 162.242,297.782 160.901,298.099 159.718,298.256 158.251,298.291 157.894,298.262 156.738,298.065 156.332,297.959 156.186,297.907 158.067,300.796 158.451,301.466 162.508,309.569 163.086,311.224 164.625,318.529 164.746,320.547 164.493,323.388 164.289,324.546 163.539,327.36 163.139,328.468 161.902,331.148 161.285,332.218 159.571,334.655 158.702,335.665 156.521,337.75 155.379,338.631 152.743,340.255 151.859,340.672 152.013,340.736 152.925,341.2 155.385,342.691 156.204,343.273 158.553,345.219 159.216,345.846 161.015,347.794 160.737,345.35 160.696,344.352 160.755,342.568 160.786,342.1 160.965,340.336 161.041,339.799 161.347,338.121 161.504,337.453 161.943,335.93 162.265,335.046 162.843,333.744 163.529,332.543 164.253,331.53 165.714,330.033 166.59,329.376 169.19,328.173 169.962,327.998 167.385,324.097 166.714,322.797 164.414,316.863 164.008,315.262 163.192,308.927 163.146,307.688 163.315,304.53 163.393,303.803 163.885,300.756 164.037,300.051 164.832,297.127 164.988,296.653 " fill="none" stroke-width="0.5" stroke="rgb(0,0,0)" />
	<polygon points="316.38,342.816 315.776,343.048 316.097,343.226 316.863,343.745 317.168,342.436 " fill="none" stroke-width="0.5" stroke="rgb(0,0,0)" />
	<polygon points="416.595,332.404 415.513,332.611 413.726,332.804 413.486,332.826 412.824,332.874 413.059,334.18 413.078,334.287 413.301,335.656 413.339,335.914 413.497,337.183 413.54,337.667 413.6,338.796 413.607,339.357 413.597,339.691 413.565,340.19 413.53,340.525 413.422,341.223 413.372,341.465 418.083,341.866 419.237,342.065 421.098,342.553 419.602,340.853 418.069,337.868 416.828,332.495 416.818,332.343 " fill="none" stroke-width="0.5" stroke="rgb(0,0,0)" />
	<polygon points="127.247,336.164 127.396,337.649 127.376,339.887 127.328,340.335 128.25,339.886 129.115,339.537 130.691,339.022 129.893,338.444 127.987,336.743 127.186,335.876 " fill="none" stroke-width="0.5" stroke="rgb(0,0,0)" />
	<polygon points="385.414,310.74 384.437,312.445 383.57,314.314 382.952,316.01 382.751,317.046 382.551,319.23 382.377,322.18 382.189,325.365 382.175,325.557 381.989,327.693 382.199,327.186 382.224,327.126 383.375,324.422 384.453,321.683 385.324,319.003 385.885,316.481 386.096,313.951 386.072,312.675 385.966,310.964 385.86,310.11 " fill="none" stroke-width="0.5" stroke="rgb(0,0,0)" />
	<polygon points="321.69,326.319 321.843,326.543 322.001,326.851 322.07,326.06 " fill="none" stroke-width="0.5" stroke="rgb(0,0,0)" />
	<polygon points="121.865,324.806 121.302,325.07 122.577,326.354 122.503,325.975 122.357,324.51 " fill="none" stroke-width="0.5" stroke="rgb(0,0,0)" />
	<polygon points="74.6508,311.917 73.7265,315.461 73.4212,318.287 73.4509,319.339 73.5765,320.529 73.8061,321.612 74.1736,322.679 74.748,323.832 74.8852,324.037 75.131,323.535 76.2353,321.737 77.0344,320.68 78.4521,319.142 79.4394,318.259 81.1404,317.012 82.2645,316.342 84.2188,315.419 84.3169,315.383 84.2052,315.35 82.9923,314.861 81.3983,314.034 80.2811,313.307 78.8521,312.167 77.8735,311.21 76.6648,309.767 75.8832,308.612 75.8579,308.565 " fill="none" stroke-width="0.5" stroke="rgb(0,0,0)" />
	<polygon points="343.596,312.646 342.52,314.071 341.731,314.873 341.243,315.259 341.694,315.513 346.553,318.826 347.457,319.562 351.043,323.031 351.471,322.053 351.707,321.568 352.442,320.198 352.263,320.151 350.415,319.626 349.45,319.271 348.142,318.676 345.359,316.356 344.864,315.644 343.73,312.411 " fill="none" stroke-width="0.5" stroke="rgb(0,0,0)" />
	<polygon points="96.8762,314.948 97.8541,315.296 97.8269,315.217 97.6706,314.601 " fill="none" stroke-width="0.5" stroke="rgb(0,0,0)" />
	<polygon points="405.116,307.584 406.699,309.491 407.433,310.221 405.723,307.954 404.718,306.984 " fill="none" stroke-width="0.5" stroke="rgb(0,0,0)" />
	<polygon points="131.407,300.226 131.551,301.141 132.076,307.111 132.071,308.369 132.064,308.442 133.942,308.23 134.122,308.247 135.869,308.65 136.018,308.706 136.536,309.007 135.393,306.636 131.309,299.791 " fill="none" stroke-width="0.5" stroke="rgb(0,0,0)" />
	<polygon points="345.874,306.506 345.424,306.501 345.425,306.51 345.357,307.341 346.053,306.495 " fill="none" stroke-width="0.5" stroke="rgb(0,0,0)" />
	<polygon points="312.221,304.6 309.512,306.42 311.047,306.618 311.675,306.73 313.263,307.088 313.116,306.764 312.579,304.927 312.499,304.376 " fill="none" stroke-width="0.5" stroke="rgb(0,0,0)" />
	<polygon points="109.011,299.803 109.019,299.806 109.043,299.82 109.035,299.695 " fill="none" stroke-width="0.5" stroke="rgb(0,0,0)" />
	<polygon points="433.841,294.708 433.75,294.832 432.814,296.081 432.921,296.142 434.83,297.172 434.989,297.261 436.204,297.959 435.102,294.313 434.783,293.389 " fill="none" stroke-width="0.5" stroke="rgb(0,0,0)" />
	<polygon points="458.957,288.572 458.143,288.949 457.149,289.772 455.913,291.265 454.991,292.691 456.393,292.732 459.582,293.246 460.677,293.597 460.677,293.544 460.608,292.132 460.416,290.823 460.108,289.633 459.743,288.735 459.587,288.484 " fill="none" stroke-width="0.5" stroke="rgb(0,0,0)" />
	<polygon points="87.8938,283.676 87.8356,283.791 85.4808,288.325 84.9771,289.297 86.5193,290.107 87.0408,290.522 87.7053,291.125 88.2699,291.71 88.4082,291.853 88.6216,291.333 89.0693,289.156 89.3841,285.853 89.5376,281.576 89.5464,280.343 " fill="none" stroke-width="0.5" stroke="rgb(0,0,0)" />
	<polygon points="56.4943,279.082 56.7578,279.498 57.2248,280.219 57.27,280.289 57.7151,280.995 57.8555,281.228 58.247,281.907 58.4745,282.336 58.8002,283.006 59.0756,283.657 59.3234,284.338 59.5733,285.195 59.6724,285.641 60.3315,282.771 60.3168,282.734 60.2764,282.66 60.1829,282.527 59.9961,282.316 59.4584,281.819 59.4424,281.804 57.5204,280.013 57.1146,279.602 56.3357,278.743 " fill="none" stroke-width="0.5" stroke="rgb(0,0,0)" />
	<polygon points="171.992,279.953 172.202,280.34 172.515,280.997 172.681,281.398 172.966,282.24 173.075,282.645 173.148,283.05 174.246,281.881 174.342,281.824 174.101,281.636 171.751,279.554 " fill="none" stroke-width="0.5" stroke="rgb(0,0,0)" />
	<polygon points="427.982,278.795 427.516,279.666 427.159,280.022 427.819,279.879 429.418,279.774 428.275,277.363 " fill="none" stroke-width="0.5" stroke="rgb(0,0,0)" />
	<polygon points="339.513,274.834 339.35,275.481 339.728,275.646 340.212,275.774 340.179,275.327 340.164,275.038 340.149,274.549 340.162,274.136 " fill="none" stroke-width="0.5" stroke="rgb(0,0,0)" />
	<polygon points="420.85,267.501 422.143,267.849 422.407,267.942 422.283,267.763 421.256,266.572 " fill="none" stroke-width="0.5" stroke="rgb(0,0,0)" />
	<polygon points="157.249,226.122 156.244,227.872 155.688,229.012 157.08,230.755 157.622,233.729 157.562,235.156 157.542,235.462 157.383,237.284 157.369,237.427 157.144,239.499 157.137,239.566 156.879,241.742 156.877,241.757 156.622,243.874 156.406,245.748 156.267,247.154 156.231,247.852 156.245,248.322 157.666,249.174 159.284,252.005 159.75,253.63 159.879,254.162 160.244,255.972 160.303,256.303 160.594,258.231 160.62,258.415 160.864,260.393 160.871,260.456 161.092,262.387 161.305,264.131 161.42,264.881 162.314,265.184 164.385,267.777 163.837,265.381 163.931,261.962 165.072,257.988 166.379,255.511 169.389,251.876 170.35,250.924 170.768,250.585 169.769,251.091 166.173,251.813 162.721,250.576 160.401,247.735 159.973,243.556 160.212,242.429 160.418,241.361 160.6,240.296 160.753,239.235 160.877,238.178 160.968,237.124 161.024,236.072 161.042,235.125 160.947,233.194 160.658,231.372 160.134,229.541 159.321,227.66 158.14,225.685 157.778,225.224 " fill="none" stroke-width="0.5" stroke="rgb(0,0,0)" />
	<polygon points="405.708,256.503 405.956,256.826 406.456,257.519 406.472,257.506 407.5,256.679 406.845,256.428 405.29,255.991 " fill="none" stroke-width="0.5" stroke="rgb(0,0,0)" />
	<polygon points="129.122,240.407 128.994,242.374 128.965,243.715 130.323,253.447 131.419,256.356 131.965,252.822 132.997,251.703 132.994,251.673 132.633,250.182 131.989,248.096 131.177,245.659 131.161,245.609 130.326,243.034 130.253,242.797 129.524,240.24 129.408,239.768 129.269,239.104 " fill="none" stroke-width="0.5" stroke="rgb(0,0,0)" />
	<polygon points="448.879,256.132 449.63,254.8 449.692,254.692 449.862,254.404 447.702,253.206 " fill="none" stroke-width="0.5" stroke="rgb(0,0,0)" />
	<polygon points="382.731,245.019 382.111,246.182 381.336,247.336 380.511,248.329 379.523,249.3 378.518,250.105 377.373,250.848 377.159,250.958 378.229,252.268 378.512,252.64 378.713,252.924 378.95,252.688 380.137,251.568 380.897,250.948 382.024,250.156 384.061,249.18 385.1,248.879 386.655,248.727 385.357,247.813 383.538,245.913 382.822,244.797 " fill="none" stroke-width="0.5" stroke="rgb(0,0,0)" />
	<polygon points="363.083,251.147 363.202,250.923 363.383,250.686 362.459,250.072 361.781,249.52 " fill="none" stroke-width="0.5" stroke="rgb(0,0,0)" />
	<polygon points="359.496,247.502 358.462,248.2 361.57,249.349 361.47,249.267 360.53,248.338 359.702,247.345 359.696,247.337 " fill="none" stroke-width="0.5" stroke="rgb(0,0,0)" />
	<polygon points="312.367,225.55 310.509,226.138 309.149,226.421 308.76,226.461 309.129,227.602 310.203,228.811 312.452,230.148 315.942,231.664 316.195,231.78 319.994,233.617 321.224,234.382 324.489,236.928 326.154,238.81 328.439,242.624 328.673,243.275 328.98,243.084 330.147,242.5 331.315,242.05 332.15,241.803 331.268,240.181 330.745,238.946 330.041,236.685 329.766,235.338 329.738,235.071 328.981,235.225 327.576,235.368 326.19,235.367 324.796,235.225 323.444,234.947 322.141,234.539 320.906,234.015 319.724,233.37 318.64,232.635 317.607,231.781 316.69,230.863 315.837,229.829 315.103,228.744 314.458,227.558 313.935,226.323 313.538,225.05 " fill="none" stroke-width="0.5" stroke="rgb(0,0,0)" />
	<polygon points="189.554,234.676 189.024,235.669 189.579,234.887 189.737,234.216 " fill="none" stroke-width="0.5" stroke="rgb(0,0,0)" />
	<polygon points="464.782,220.181 464.743,220.452 464.267,223.393 464.245,223.524 463.699,226.525 463.696,226.541 463.16,229.451 462.714,232.093 462.426,234.297 462.373,235.221 463.651,232.883 464.759,230.154 465.478,227.381 465.721,224.774 465.181,219.934 464.904,219.174 " fill="none" stroke-width="0.5" stroke="rgb(0,0,0)" />
	<polygon points="46.4894,228.093 46.5985,228.206 46.6498,228.034 " fill="none" stroke-width="0.5" stroke="rgb(0,0,0)" />
	<polygon points="85.609,213.575 85.761,213.694 86.8926,214.818 87.3554,215.399 88.0785,216.515 88.4348,217.204 88.8607,218.218 89.1125,218.986 89.3427,219.894 89.4923,220.715 89.5915,221.544 89.6409,222.392 89.6215,223.025 90.3643,222.547 91.1012,222.182 93.0033,221.567 93.7322,221.445 95.8211,221.417 96.4649,221.508 98.3036,222.037 98.9153,222.31 100.443,223.249 100.537,223.326 100.748,220.479 100.9,219.468 101.741,215.767 102.032,214.814 102.168,214.462 100.881,214.762 97.8832,215.091 96.3737,215.09 93.1845,214.734 91.6481,214.38 88.7839,213.361 87.3823,212.673 86.6603,212.21 " fill="none" stroke-width="0.5" stroke="rgb(0,0,0)" />
	<polygon points="442.889,210.816 442.514,210.951 438.204,212.362 437.673,212.512 432.553,213.742 431.932,213.862 425.91,214.732 425.252,214.795 424.634,214.824 426.038,215.506 427.416,216.395 431.109,219.459 432.175,220.568 433.853,222.759 434.653,220.897 435.309,219.71 437.832,216.056 438.483,215.251 441.468,212.083 442.074,211.513 442.933,210.799 " fill="none" stroke-width="0.5" stroke="rgb(0,0,0)" />
	<polygon points="131.127,219.694 132.398,220.818 132.771,222.006 132.847,221.65 133.505,219.038 133.537,218.931 " fill="none" stroke-width="0.5" stroke="rgb(0,0,0)" />
	<polygon points="64.4526,216.53 64.4019,216.572 65.4072,217.235 65.924,217.703 67.083,219.067 67.4827,219.686 68.1084,220.91 68.1861,221.109 68.2266,221.027 70.673,216.864 70.4502,216.826 68.3785,216.284 67.2013,215.858 65.5129,215.065 " fill="none" stroke-width="0.5" stroke="rgb(0,0,0)" />
	<polygon points="188.228,213.103 189.159,214.496 190.368,216.897 190.862,218.234 192.007,217.338 194.701,217.007 194.45,216.102 193.931,215.112 193.264,214.344 192.28,213.626 190.785,212.936 188.671,212.351 187.427,212.174 " fill="none" stroke-width="0.5" stroke="rgb(0,0,0)" />
	<polygon points="381.596,200.248 381.071,201.482 380.389,202.729 379.655,203.811 378.754,204.9 378.491,205.163 378.652,205.272 379.868,206.274 380.794,207.199 381.232,207.73 381.48,206.624 384.013,203.972 385.636,203.529 382.488,200.962 381.646,200.088 " fill="none" stroke-width="0.5" stroke="rgb(0,0,0)" />
	<polygon points="56.2866,205.093 57.253,204.873 57.1108,204.424 " fill="none" stroke-width="0.5" stroke="rgb(0,0,0)" />
	<polygon points="365.737,169.982 364.646,170.717 364.223,170.946 364.373,171.168 365.413,173.066 365.938,174.3 366.596,176.393 366.876,177.748 367.106,179.987 367.106,181.254 367.585,181.204 368.986,181.203 370.1,181.317 369.944,180.924 367.178,172.076 366.974,171.245 366.617,169.258 " fill="none" stroke-width="0.5" stroke="rgb(0,0,0)" />
	<polygon points="146.399,175.064 145.491,175.304 143.458,175.696 143.508,175.736 146.902,178.982 147.362,179.477 147.392,179.289 147.634,178.266 148.593,175.27 149.131,174.136 " fill="none" stroke-width="0.5" stroke="rgb(0,0,0)" />
	<polygon points="108.404,162.546 107.487,163.465 106.452,164.32 105.366,165.055 104.18,165.702 102.945,166.226 101.637,166.636 100.286,166.913 98.8846,167.055 98.7486,167.055 100.17,167.788 100.882,168.211 104.143,170.426 104.846,170.973 107.844,173.64 108.545,174.362 111.134,177.455 111.803,178.408 112.128,178.967 112.484,178.125 113.527,176.207 114.489,174.857 115.875,173.34 117.283,172.163 117.584,171.973 117.549,171.954 116.33,171.064 113.436,168.42 112.483,167.345 110.261,164.234 109.599,163.086 109.016,161.804 " fill="none" stroke-width="0.5" stroke="rgb(0,0,0)" />
	<polygon points="309.94,170.493 309.342,171.423 310.114,171.423 311.521,171.565 312.867,171.841 313.199,171.944 313.384,171.348 313.594,170.85 312.4,170.607 311.93,170.494 310.175,170.006 " fill="none" stroke-width="0.5" stroke="rgb(0,0,0)" />
	<polygon points="162.181,166.788 162.221,166.788 163.873,167.111 163.382,165.821 " fill="none" stroke-width="0.5" stroke="rgb(0,0,0)" />
	<polygon points="423.334,143.094 422.068,144.608 419.326,147.06 418.147,147.908 414.531,149.965 413.554,150.423 413.54,150.429 417.155,150.754 418.483,151.007 424.902,152.904 426.167,153.42 431.853,156.431 432.859,157.083 434.255,158.172 434.161,157.994 433.634,156.684 431.789,150.246 431.76,146.821 431.384,146.722 430.368,146.367 428.689,145.63 427.474,144.94 426.114,143.972 424.834,142.789 424.077,141.886 " fill="none" stroke-width="0.5" stroke="rgb(0,0,0)" />
	<polygon points="355.235,138.056 355.213,139.049 354.586,145.65 354.495,146.099 355.64,145.866 356.981,145.731 358.353,145.731 359.693,145.866 361.035,146.139 362.283,146.526 363.52,147.047 364.649,147.659 365.741,148.396 366.725,149.207 366.945,149.426 367.262,149.039 367.32,148.985 368.126,148.437 365.06,146.64 364.013,145.886 358.677,141.217 357.849,140.354 355.183,137.039 " fill="none" stroke-width="0.5" stroke="rgb(0,0,0)" />
	<polygon points="129.587,135.647 129.269,135.882 128.931,136.182 125.834,137.694 126.009,138.067 126.519,139.589 126.997,141.882 127.05,142.166 127.443,144.553 127.548,144.991 127.92,144.376 128.472,143.115 128.764,142.225 129.076,141.143 129.343,140.069 129.562,139.015 129.732,137.993 129.853,137.016 129.924,136.098 129.942,135.423 " fill="none" stroke-width="0.5" stroke="rgb(0,0,0)" />
	<polygon points="102.755,139.619 102.64,140.18 102.944,140.275 104.179,140.799 105.365,141.445 106.449,142.179 107.021,142.651 107.386,141.244 107.434,141.095 104.768,140.434 102.779,139.387 " fill="none" stroke-width="0.5" stroke="rgb(0,0,0)" />
	<polygon points="327.612,141.857 327.749,141.823 327.611,141.689 " fill="none" stroke-width="0.5" stroke="rgb(0,0,0)" />
	<polygon points="315.038,124.27 313.676,124.638 312.484,125.194 311.456,125.902 310.606,126.716 309.963,127.568 309.547,128.362 309.144,129.633 307.875,131.58 308.796,132.073 309.749,132.459 310.683,132.719 311.664,132.876 312.816,132.934 313.115,132.925 313.598,132.888 314.179,132.824 314.833,132.739 315.517,132.647 315.573,132.64 316.227,132.557 316.409,132.536 316.998,132.478 317.328,132.454 316.981,132.05 316.739,131.72 316.189,130.832 316.005,130.477 315.609,129.557 315.48,129.183 315.233,128.268 315.157,127.881 315.043,126.993 315.018,126.6 315.041,125.459 315.118,124.716 315.208,124.255 " fill="none" stroke-width="0.5" stroke="rgb(0,0,0)" />
	<polygon points="92.1822,114.595 91.7309,114.979 89.4677,116.742 88.4817,117.382 86.1435,118.629 84.2439,119.306 81.8426,119.779 80.3764,119.843 80.5548,122.977 80.5642,123.519 80.5325,124.945 80.5195,125.241 80.4284,126.63 80.4148,126.787 80.8215,126.45 81.9071,125.715 83.0932,125.067 84.3294,124.542 85.6383,124.132 86.9902,123.855 88.3933,123.712 89.7813,123.712 91.1864,123.855 92.5365,124.132 93.8474,124.541 95.0824,125.065 95.6426,125.37 95.586,125.054 94.7923,119.12 94.7741,118.972 94.1258,113.164 94.0769,112.836 " fill="none" stroke-width="0.5" stroke="rgb(0,0,0)" />
	<polygon points="185.035,108.835 184.993,109.727 184.915,110.484 184.783,111.31 184.563,112.252 184.333,112.996 183.863,114.137 183.527,114.783 182.672,116.053 182.222,116.584 180.915,117.77 180.342,118.17 178.732,118.999 178.027,119.25 176.43,119.613 175.586,119.701 173.473,119.533 173.848,120.15 174.382,121.239 176.069,125.62 176.312,126.438 176.382,126.376 177.023,125.87 180.023,123.784 180.861,123.285 183.981,121.719 185.052,121.29 188.274,120.305 189.571,120.043 192.875,119.701 194.195,119.706 193.238,118.762 192.821,118.312 188.577,113.299 188.353,113.021 185.026,108.648 " fill="none" stroke-width="0.5" stroke="rgb(0,0,0)" />
	<polygon points="425.245,124.863 425.292,125.054 425.301,125.044 425.437,124.924 425.205,124.727 " fill="none" stroke-width="0.5" stroke="rgb(0,0,0)" />
	<polygon points="124.505,112.231 122.922,118.563 122.891,118.682 122.765,119.151 123.357,118.332 126.14,115.061 126.928,114.276 127.879,113.469 127.844,113.443 126.949,112.633 125.447,111.01 125.146,110.661 124.992,110.471 " fill="none" stroke-width="0.5" stroke="rgb(0,0,0)" />
	<polygon points="411.445,103.649 413.795,105.06 415.938,107.026 416.84,108.034 417.891,109.474 417.379,108.554 417.502,104.889 418.311,103.642 416.322,103.622 416.188,103.62 412.855,103.522 412.725,103.517 410.807,103.423 " fill="none" stroke-width="0.5" stroke="rgb(0,0,0)" />
	<polygon points="40.1382,107.899 40.4539,108.008 40.5056,107.831 " fill="none" stroke-width="0.5" stroke="rgb(0,0,0)" />
	<polygon points="349.37,107.604 349.444,107.831 349.864,107.489 349.892,107.468 349.286,107.423 " fill="none" stroke-width="0.5" stroke="rgb(0,0,0)" />
	<polygon points="392.073,102.49 393.117,103.609 393.829,104.513 394.675,105.796 394.725,105.874 394.823,106.026 395.424,105.884 396.802,105.433 398.421,104.823 400.132,104.161 400.307,104.096 401.958,103.508 402.448,103.354 403.913,102.953 402.287,102.813 402.16,102.8 398.734,102.441 398.607,102.426 395.18,102.002 395.051,101.984 391.633,101.495 391.539,101.481 391.064,101.406 390.558,101.304 " fill="none" stroke-width="0.5" stroke="rgb(0,0,0)" />
	<polygon points="145.841,101.964 145.265,105.186 145.197,105.492 145.258,105.483 149.387,105.18 150.658,105.206 151.321,105.281 149.62,103.827 146.03,100.94 " fill="none" stroke-width="0.5" stroke="rgb(0,0,0)" />
	<polygon points="380.11,99.6435 380.556,99.5441 380.977,99.4642 381.535,99.3759 381.96,99.3223 382.507,99.2707 382.935,99.2438 383.467,99.227 384.717,99.302 386.682,99.6021 387.198,99.7789 386.156,98.9011 385.99,98.7205 384.91,97.1442 384.802,96.9266 384.578,96.3007 " fill="none" stroke-width="0.5" stroke="rgb(0,0,0)" />
	<polygon points="65.5217,95.9091 64.5369,96.4524 64.9409,96.5706 68.3234,98.1304 69.6958,99.0141 69.975,96.8662 69.9763,96.8564 70.2587,94.7082 70.4225,93.3297 " fill="none" stroke-width="0.5" stroke="rgb(0,0,0)" />
	<polygon points="126.369,63.8085 125.638,67.2748 125.544,67.6632 124.697,70.7703 124.185,72.0798 126.475,73.5635 126.532,73.1466 126.704,72.2083 126.967,71.2075 127.228,70.4495 127.981,68.918 128.351,68.3565 130.131,66.5198 130.501,66.2596 130.328,66.0396 130.144,65.7955 128.417,63.3911 126.94,61.4355 " fill="none" stroke-width="0.5" stroke="rgb(0,0,0)" />
	<polygon points="104.908,60.5655 103.178,61.9746 101.33,63.5568 101.16,63.6981 99.3783,65.126 98.7214,65.592 97.1034,66.602 96.6085,66.8174 96.7277,67.1197 96.917,67.779 97.1166,68.7171 97.2243,69.4837 97.2857,70.1683 97.3198,71.0383 97.3111,71.7277 97.9944,71.1125 100.334,69.7311 102.392,69.0177 106.052,68.7879 106.307,68.9031 106.091,66.3245 106.074,66.0378 105.931,62.5986 105.685,60.0312 " fill="none" stroke-width="0.5" stroke="rgb(0,0,0)" />
	<polygon points="400.83,59.1534 400.826,60.4303 400.805,60.6491 400.9,60.6123 401.154,60.5405 402.384,60.3114 402.647,60.287 405.783,60.7308 406.892,61.1662 408.773,62.2788 410.152,63.4266 410.544,63.7791 412.17,65.36 413.915,66.9984 415.675,68.4119 417.419,69.4703 419.117,70.1093 421.18,70.3696 421.367,70.3608 421.939,70.2741 422.419,70.1335 422.693,69.998 422.773,69.9333 422.824,69.8629 422.974,69.4548 423.023,68.9836 422.626,67.6634 421.062,66.0488 417.518,63.9521 412.747,61.9756 407.606,60.2707 402.924,58.8325 402.602,58.7248 400.729,58.0461 " fill="none" stroke-width="0.5" stroke="rgb(0,0,0)" />
	<polygon points="163.036,47.2986 162.903,47.641 162.059,49.1472 164.443,49.9575 164.631,50.0244 167.681,51.1614 165.836,49.3017 163.191,46.6725 " fill="none" stroke-width="0.5" stroke="rgb(0,0,0)" />
	<polygon points="145.101,50.994 145.19,50.8741 145.042,50.8398 " fill="none" stroke-width="0.5" stroke="rgb(0,0,0)" />
	<polygon points="396.841,39.5089 397.403,40.8569 398.013,42.9195 399.948,41.9481 400.785,41.5952 403.757,40.5687 404.205,40.4309 407.867,39.4407 408.186,39.3626 409.473,39.08 406.796,37.6658 402.476,36.0282 398.486,34.8933 395.115,34.0496 394.603,33.9002 393.58,33.5574 " fill="none" stroke-width="0.5" stroke="rgb(0,0,0)" />
	<polygon points="70.0852,40.4804 70.0749,40.4869 69.5366,40.8224 70.8868,40.9632 71.0289,40.9768 71.2673,39.7407 " fill="none" stroke-width="0.5" stroke="rgb(0,0,0)" />
	<polygon points="153.295,28.7954 152.326,29.477 151.271,30.0867 150.284,30.5451 152.519,31.9409 153.609,32.6 153.869,28.1036 153.873,28.0952 " fill="none" stroke-width="0.5" stroke="rgb(0,0,0)" />
	<polygon points="82.2281,28.4318 81.424,30.5943 81.1434,31.0361 83.9051,30.0133 84.6487,29.7117 84.1031,29.4175 82.3793,27.6789 " fill="none" stroke-width="0.5" stroke="rgb(0,0,0)" />
</svg>
