<?xml version="1.0" standalone="no" ?>
<!DOCTYPE svg PUBLIC "-//W3C//DTD SVG 1.1//EN" "http://www.w3.org/Graphics/SVG/1.1/DTD/svg11.dtd">
<svg width="500px" height="500px" xmlns="http://www.w3.org/2000/svg" version="1.1" >
	<polygon points="463.773,280.808 462.996,294.647 460.687,309.232 456.761,324.725 451.192,340.794 443.965,357.123 435.075,373.411 424.522,389.37 412.308,404.721 398.433,419.199 382.895,432.547 365.68,444.519 346.763,454.878 326.101,463.384 303.633,469.792 279.287,473.843 252.978,475.259 227.352,473.923 203.517,470.087 181.437,464.003 161.061,455.903 142.345,446.01 125.261,434.538 109.793,421.703 95.9386,407.724 83.7023,392.827 73.0944,377.249 64.1259,361.236 56.8064,345.042 51.1405,328.934 47.1255,313.187 44.7462,298.088 43.9405,283.437 43.9405,36.4953 50.0047,36.4488 61.4964,36.3606 72.9881,36.2725 84.4797,36.1843 95.9714,36.0961 107.463,36.0079 118.955,35.9198 130.446,35.8316 141.938,35.7434 153.43,35.6552 164.921,35.567 187.905,35.3907 193.673,35.3464 193.657,43.9288 193.631,56.8276 193.606,69.7264 193.606,69.7264 193.58,82.6252 193.529,108.423 193.529,108.423 193.504,121.322 193.453,147.119 193.453,147.119 193.428,160.018 193.402,172.917 193.402,172.917 193.377,185.816 193.351,198.714 193.326,211.613 193.326,211.613 193.3,224.512 193.301,224.677 193.388,235.972 193.39,236.099 193.554,246.916 193.559,247.148 193.856,257.454 193.87,257.809 194.355,267.571 194.387,268.072 195.115,277.257 195.183,277.936 196.209,286.509 196.341,287.407 197.722,295.335 197.966,296.496 199.755,303.747 200.189,305.217 202.443,311.756 203.184,313.562 205.958,319.356 207.156,321.462 210.505,326.478 212.302,328.731 216.282,332.935 218.701,335.051 223.366,338.41 226.218,340.071 231.625,342.552 234.554,343.585 240.757,345.155 243.436,345.609 250.491,346.234 251.947,329.779 253.084,346.26 260.344,345.759 263.037,345.355 269.384,343.877 272.385,342.877 277.88,340.459 280.846,338.783 285.552,335.461 288.082,333.273 292.06,329.085 293.927,326.735 297.24,321.716 298.464,319.527 301.173,313.715 301.911,311.855 304.079,305.285 304.498,303.79 306.186,296.5 306.414,295.337 307.685,287.364 307.802,286.481 308.718,277.862 308.775,277.208 309.397,267.978 309.423,267.511 309.814,257.708 309.824,257.394 310.046,247.054 310.049,246.869 310.164,236.03 310.165,235.954 310.235,224.651 310.235,224.511 310.209,211.613 310.157,185.815 310.132,172.916 310.132,172.916 310.106,160.017 310.054,134.22 310.054,134.22 310.028,121.321 309.951,82.6247 309.951,82.6246 309.925,69.7259 309.855,35.1054 316.387,35.0634 328.141,34.9878 339.894,34.9123 363.4,34.7611 375.154,34.6856 386.907,34.61 410.413,34.4589 422.167,34.3833 433.92,34.3078 445.673,34.2322 457.426,34.1566 463.773,34.1158 " fill="none" stroke-width="0.5" stroke="rgb(0,0,0)" />
</svg>
