<?xml version="1.0" standalone="no" ?>
<!DOCTYPE svg PUBLIC "-//W3C//DTD SVG 1.1//EN" "http://www.w3.org/Graphics/SVG/1.1/DTD/svg11.dtd">
<svg width="500px" height="500px" xmlns="http://www.w3.org/2000/svg" version="1.1" >
	<polygon points="466.323,280.879 465.535,294.918 463.187,309.745 459.206,325.457 453.566,341.729 446.254,358.252 437.262,374.728 426.587,390.87 414.23,406.401 400.188,421.052 384.458,434.566 367.025,446.691 347.865,457.182 326.939,465.796 304.193,472.283 279.566,476.381 252.98,477.813 227.082,476.462 202.974,472.583 180.625,466.424 159.991,458.222 141.035,448.202 123.732,436.583 108.069,423.587 94.0436,409.435 81.6591,394.357 70.9239,378.592 61.8475,362.386 54.4374,345.992 48.6974,329.674 44.6251,313.702 42.2072,298.357 41.3905,283.507 41.3905,33.9648 49.9852,33.8989 61.4768,33.8107 72.9685,33.7225 84.4602,33.6344 95.9519,33.5462 107.444,33.458 118.935,33.3698 130.427,33.2817 153.41,33.1053 164.902,33.0171 176.394,32.9289 187.885,32.8408 196.229,32.7768 196.206,43.9338 196.181,56.8326 196.156,69.7314 196.156,69.7314 196.13,82.6302 196.079,108.428 196.079,108.428 196.054,121.327 196.003,147.124 196.003,147.124 195.978,160.023 195.952,172.922 195.952,172.922 195.927,185.821 195.901,198.719 195.876,211.618 195.876,211.618 195.85,224.517 195.851,224.658 195.938,235.952 195.939,236.061 196.104,246.878 196.108,247.075 196.405,257.381 196.417,257.683 196.902,267.444 196.929,267.871 197.657,277.055 197.715,277.633 198.741,286.206 198.853,286.969 200.234,294.898 200.441,295.885 202.231,303.136 202.6,304.386 204.854,310.925 205.484,312.461 208.258,318.255 209.277,320.046 212.626,325.062 214.154,326.978 218.134,331.182 220.191,332.982 224.857,336.341 227.282,337.753 232.688,340.234 235.18,341.113 241.382,342.683 243.661,343.069 250.715,343.694 251.947,329.779 252.908,343.716 260.169,343.215 262.459,342.871 268.806,341.394 271.358,340.543 276.853,338.125 279.375,336.699 284.081,333.378 286.233,331.517 290.211,327.329 291.799,325.331 295.112,320.312 296.153,318.45 298.862,312.637 299.489,311.056 301.657,304.486 302.014,303.214 303.702,295.925 303.895,294.936 305.167,286.963 305.266,286.212 306.182,277.592 306.231,277.036 306.853,267.807 306.875,267.409 307.266,257.606 307.274,257.339 307.497,247 307.499,246.842 307.614,236.002 307.615,235.938 307.685,224.635 307.685,224.516 307.659,211.618 307.607,185.82 307.582,172.921 307.582,172.921 307.556,160.023 307.504,134.225 307.504,134.225 307.478,121.326 307.401,82.6298 307.401,82.6297 307.375,69.7309 307.3,32.5717 316.371,32.5134 328.124,32.4379 339.878,32.3623 351.631,32.2867 363.384,32.2112 375.137,32.1356 386.891,32.0601 410.397,31.9089 422.15,31.8334 433.904,31.7578 445.657,31.6823 457.41,31.6067 466.323,31.5494 " fill="none" stroke-width="0.5" stroke="rgb(0,0,0)" />
</svg>
