<?xml version="1.0" standalone="no" ?>
<!DOCTYPE svg PUBLIC "-//W3C//DTD SVG 1.1//EN" "http://www.w3.org/Graphics/SVG/1.1/DTD/svg11.dtd">
<svg width="500px" height="500px" xmlns="http://www.w3.org/2000/svg" version="1.1" >
	<polygon points="470.373,280.993 469.567,295.35 467.158,310.561 463.089,326.62 457.338,343.214 449.889,360.044 440.735,376.819 429.867,393.252 417.283,409.069 402.977,423.996 386.94,437.773 369.159,450.139 349.613,460.842 328.269,469.629 305.084,476.241 280.008,480.413 252.984,481.869 226.654,480.495 202.112,476.546 179.335,470.27 158.292,461.905 138.954,451.683 121.304,439.831 105.332,426.578 91.034,412.151 78.414,396.787 67.4768,380.726 58.2287,364.213 50.6748,347.501 44.8173,330.848 40.6539,314.519 38.1746,298.785 37.3405,283.619 37.3405,29.9458 38.4624,29.9372 49.9541,29.849 61.4458,29.7608 72.9374,29.6726 84.4291,29.5845 95.9208,29.4963 95.9208,29.4963 107.412,29.4081 118.904,29.3199 130.396,29.2318 141.887,29.1436 153.379,29.0554 164.871,28.9672 187.854,28.7909 200.287,28.6955 200.282,31.043 200.282,31.043 200.257,43.9418 200.231,56.8406 200.206,69.7394 200.206,69.7394 200.18,82.6382 200.129,108.436 200.129,108.436 200.104,121.335 200.053,147.132 200.053,147.132 200.028,160.031 200.002,172.93 200.002,172.93 199.977,185.829 199.951,198.727 199.926,211.626 199.926,211.626 199.9,224.525 199.901,224.626 199.988,235.921 199.989,235.999 200.153,246.816 200.156,246.958 200.453,257.264 200.462,257.482 200.947,267.243 200.967,267.551 201.695,276.735 201.736,277.152 202.763,285.725 202.843,286.275 204.224,294.203 204.373,294.915 206.163,302.165 206.429,303.066 208.683,309.605 209.137,310.712 211.911,316.507 212.645,317.797 215.994,322.813 217.096,324.194 221.075,328.398 222.558,329.695 227.223,333.055 228.971,334.072 234.378,336.554 236.173,337.187 242.376,338.756 244.018,339.035 251.072,339.659 251.947,329.779 252.629,339.675 259.89,339.174 261.541,338.927 267.888,337.449 269.727,336.836 275.222,334.418 277.04,333.391 281.746,330.069 283.296,328.728 287.275,324.539 288.419,323.1 291.732,318.081 292.482,316.739 295.191,310.926 295.643,309.786 297.811,303.217 298.068,302.3 299.757,295.011 299.896,294.298 301.167,286.325 301.239,285.784 302.155,277.164 302.19,276.764 302.812,267.534 302.828,267.247 303.219,257.444 303.225,257.252 303.447,246.912 303.449,246.799 303.564,235.959 303.565,235.913 303.635,224.61 303.635,224.525 303.609,211.626 303.583,198.727 303.557,185.828 303.532,172.929 303.506,160.031 303.454,134.233 303.454,134.233 303.428,121.334 303.351,82.6379 303.351,82.6379 303.325,69.7391 303.247,31.0427 303.247,31.0427 303.242,28.5477 304.592,28.5391 316.345,28.4635 328.098,28.3879 339.851,28.3124 351.605,28.2368 363.358,28.1613 375.111,28.0857 386.865,28.0101 410.371,27.859 422.124,27.7835 433.878,27.7079 457.384,27.5568 469.137,27.4812 470.373,27.4733 " fill="none" stroke-width="0.5" stroke="rgb(0,0,0)" />
	<polygon points="318.736,422.661 318.829,422.968 319.159,424.421 319.242,424.824 319.306,425.166 319.842,425.585 320.708,426.321 320.951,426.562 321.478,426.123 322.227,425.553 322.927,425.068 323.644,424.633 323.254,421.809 323.254,421.172 " fill="none" stroke-width="0.5" stroke="rgb(0,0,0)" />
	<polygon points="107.123,168.193 107.238,168.283 110.237,170.95 111.306,172.051 111.735,172.564 111.831,172.429 112.129,172.102 111.008,171.077 109.554,169.437 108.163,167.49 " fill="none" stroke-width="0.5" stroke="rgb(0,0,0)" />
	<polygon points="424.468,147.291 423.013,148.592 425.923,149.452 427.852,150.239 428.282,150.466 428.215,149.353 427.24,148.925 425.387,147.873 424.505,147.246 " fill="none" stroke-width="0.5" stroke="rgb(0,0,0)" />
	<polygon points="90.7419,120.191 91.3112,120.249 91.2586,119.856 " fill="none" stroke-width="0.5" stroke="rgb(0,0,0)" />
	<polygon points="186.237,117.163 186.948,116.946 186.633,116.575 " fill="none" stroke-width="0.5" stroke="rgb(0,0,0)" />
</svg>
