<?xml version="1.0" standalone="no" ?>
<!DOCTYPE svg PUBLIC "-//W3C//DTD SVG 1.1//EN" "http://www.w3.org/Graphics/SVG/1.1/DTD/svg11.dtd">
<svg width="500px" height="500px" xmlns="http://www.w3.org/2000/svg" version="1.1" >
	<polygon points="461.623,280.747 460.856,294.418 458.578,308.799 454.699,324.108 449.189,340.006 442.035,356.171 433.232,372.301 422.781,388.105 410.687,403.305 396.953,417.636 381.577,430.844 364.547,442.689 345.835,452.935 325.395,461.349 303.16,467.691 279.052,471.702 252.976,473.106 227.579,471.782 203.975,467.983 182.122,461.961 161.963,453.948 143.45,444.162 126.55,432.814 111.247,420.116 97.5363,406.282 85.425,391.537 74.9243,376.117 66.047,360.266 58.8037,344.241 53.2003,328.311 49.2336,312.753 46.887,297.861 46.0905,283.378 46.0905,38.6289 50.0212,38.5987 61.5129,38.5106 73.0046,38.4224 84.4962,38.3342 95.9879,38.246 107.48,38.1579 118.971,38.0697 130.463,37.9815 130.463,37.9815 141.955,37.8933 153.446,37.8052 153.446,37.8052 164.938,37.717 176.43,37.6288 187.921,37.5406 187.921,37.5406 191.519,37.513 191.507,43.9246 191.481,56.8234 191.456,69.7222 191.456,69.7222 191.43,82.621 191.379,108.419 191.379,108.419 191.354,121.317 191.303,147.115 191.278,160.014 191.252,172.913 191.252,172.913 191.227,185.811 191.201,198.71 191.176,211.609 191.176,211.609 191.15,224.508 191.151,224.694 191.238,235.988 191.24,236.132 191.404,246.949 191.41,247.21 191.707,257.516 191.723,257.916 192.207,267.677 192.244,268.242 192.972,277.426 193.048,278.192 194.075,286.765 194.223,287.775 195.603,295.704 195.878,297.011 197.668,304.262 198.157,305.918 200.411,312.457 201.245,314.49 204.019,320.285 205.368,322.655 208.717,327.672 210.741,330.208 214.72,334.413 217.445,336.796 222.11,340.155 225.321,342.025 230.728,344.506 234.027,345.669 240.229,347.239 243.247,347.751 250.301,348.375 251.947,329.779 253.232,348.405 260.492,347.904 263.525,347.449 269.872,345.971 273.251,344.845 278.746,342.427 282.086,340.539 286.792,337.217 289.641,334.754 293.619,330.565 295.722,327.92 299.034,322.901 300.413,320.436 303.122,314.623 303.953,312.528 306.121,305.959 306.592,304.275 308.281,296.986 308.537,295.676 309.808,287.703 309.94,286.709 310.856,278.089 310.92,277.353 311.543,268.123 311.571,267.597 311.962,257.794 311.973,257.44 312.195,247.1 312.199,246.892 312.314,236.052 312.315,235.967 312.385,224.664 312.385,224.507 312.359,211.608 312.333,198.71 312.307,185.811 312.282,172.912 312.282,172.912 312.256,160.013 312.204,134.216 312.204,134.215 312.178,121.317 312.101,82.6204 312.101,82.6203 312.075,69.7215 312.01,37.2416 316.401,37.2133 316.401,37.2133 328.155,37.1378 339.908,37.0622 351.661,36.9866 363.414,36.9111 375.168,36.8355 386.921,36.76 410.427,36.6088 422.181,36.5333 433.934,36.4577 457.44,36.3066 461.623,36.2797 " fill="none" stroke-width="0.5" stroke="rgb(0,0,0)" />
</svg>
