<?xml version="1.0" standalone="no" ?>
<!DOCTYPE svg PUBLIC "-//W3C//DTD SVG 1.1//EN" "http://www.w3.org/Graphics/SVG/1.1/DTD/svg11.dtd">
<svg width="500px" height="500px" xmlns="http://www.w3.org/2000/svg" version="1.1" >
	<polygon points="463.673,280.805 462.897,294.636 460.588,309.212 456.665,324.697 451.099,340.757 443.875,357.079 434.989,373.36 424.441,389.311 412.232,404.655 398.364,419.126 382.833,432.467 365.628,444.434 346.72,454.788 326.068,463.289 303.611,469.694 279.276,473.743 252.978,475.159 227.362,473.823 203.538,469.99 181.469,463.908 161.103,455.812 142.397,445.924 125.321,434.458 109.861,421.63 96.0129,407.657 83.7824,392.767 73.1795,377.197 64.2153,361.191 56.8993,345.005 51.2363,328.905 47.2235,313.167 44.8458,298.078 44.0405,283.435 44.0405,36.5946 50.0055,36.5488 61.4972,36.4606 72.9888,36.3725 84.4805,36.2843 95.9722,36.1961 95.9722,36.1961 107.464,36.1079 118.956,36.0197 130.447,35.9316 130.447,35.9316 141.939,35.8434 153.431,35.7552 164.922,35.667 176.414,35.5789 187.906,35.4907 187.906,35.4907 193.573,35.4472 193.557,43.9286 193.531,56.8274 193.506,69.7262 193.506,69.7262 193.48,82.625 193.429,108.423 193.429,108.423 193.404,121.321 193.353,147.119 193.353,147.119 193.328,160.018 193.302,172.917 193.302,172.917 193.251,198.714 193.226,211.613 193.226,211.613 193.2,224.512 193.201,224.678 193.288,235.973 193.29,236.101 193.454,246.918 193.459,247.151 193.756,257.457 193.77,257.814 194.255,267.576 194.287,268.08 195.016,277.264 195.084,277.948 196.11,286.521 196.243,287.424 197.623,295.352 197.869,296.52 199.658,303.771 200.095,305.25 202.349,311.789 203.094,313.605 205.868,319.4 207.073,321.517 210.422,326.533 212.23,328.799 216.209,333.004 218.643,335.132 223.308,338.492 226.176,340.162 231.583,342.643 234.53,343.682 240.732,345.252 243.427,345.709 250.482,346.333 251.947,329.779 253.09,346.359 260.351,345.859 263.06,345.452 269.407,343.975 272.425,342.969 277.921,340.551 280.904,338.864 285.609,335.542 288.154,333.342 292.133,329.154 294.011,326.79 297.324,321.771 298.555,319.57 301.264,313.757 302.006,311.886 304.174,305.317 304.595,303.812 306.284,296.523 306.512,295.353 307.784,287.38 307.902,286.492 308.817,277.872 308.875,277.215 309.497,267.985 309.523,267.515 309.914,257.712 309.924,257.396 310.146,247.056 310.149,246.87 310.264,236.031 310.265,235.955 310.335,224.652 310.335,224.511 310.309,211.612 310.283,198.714 310.257,185.815 310.232,172.916 310.232,172.916 310.206,160.017 310.154,134.22 310.154,134.22 310.128,121.321 310.051,82.6245 310.051,82.6244 310.025,69.7256 309.956,35.2047 316.388,35.1634 339.895,35.0122 351.648,34.9367 363.401,34.8611 375.154,34.7856 386.908,34.71 410.414,34.5589 433.921,34.4078 445.674,34.3322 457.427,34.2566 463.673,34.2165 " fill="none" stroke-width="0.5" stroke="rgb(0,0,0)" />
</svg>
