<?xml version="1.0" standalone="no" ?>
<!DOCTYPE svg PUBLIC "-//W3C//DTD SVG 1.1//EN" "http://www.w3.org/Graphics/SVG/1.1/DTD/svg11.dtd">
<svg width="500px" height="500px" xmlns="http://www.w3.org/2000/svg" version="1.1" >
	<polygon points="480.823,83.9588 475.67,90.2334 473.651,92.1317 472.368,93.0595 473.226,93.4085 475.185,94.4516 476.908,95.6107 478.686,97.1076 480.055,98.5391 480.823,99.5319 480.823,194.006 480.265,194.652 478.686,195.726 478.49,195.805 480.591,198.137 480.823,198.448 480.823,250.515 480.177,251.416 480.355,251.479 480.823,251.719 480.823,281.286 479.971,296.463 479.597,298.828 478.714,299.921 477.841,300.877 476.307,302.367 477.943,305.5 478.38,306.513 477.405,312.666 473.11,329.62 467.07,347.047 459.27,364.67 453.844,374.611 452.462,374.796 452.648,376.802 449.695,382.213 438.331,399.399 425.161,415.952 410.17,431.593 399.167,441.045 398.834,440.941 398.753,441.401 393.345,446.047 374.668,459.037 354.126,470.285 331.702,479.516 319.19,483.085 316.948,481.926 316.621,481.712 316.535,482.453 316.137,483.926 316.119,483.96 307.382,486.452 281.151,490.817 252.993,492.333 225.548,490.902 199.887,486.773 176.007,480.192 153.907,471.407 133.585,460.665 125.073,454.949 124.975,454.32 123.974,454.211 115.039,448.212 98.2672,434.295 83.2685,419.161 70.0408,403.057 58.5824,386.23 48.8916,368.927 40.9666,351.394 34.8057,333.879 32.8167,326.078 34.8259,319.606 35.4408,318.059 36.3053,316.294 34.7839,315.815 30.3893,313.15 29.7601,312.521 27.7694,299.888 26.8905,283.906 26.8905,230.671 27.0005,230.482 26.8905,230.418 26.8905,156.547 27.3227,155.586 29.7492,151.154 30.8509,149.531 29.0387,148.591 27.253,147.427 26.8905,147.136 26.8905,38.2575 29.5833,36.2855 29.7555,36.1671 29.5666,36.1076 27.9384,35.4446 26.8905,34.9147 26.8905,19.5757 38.3822,19.4875 49.8739,19.3993 61.3656,19.3111 72.8572,19.223 84.3489,19.1348 95.8406,19.0466 107.332,18.9584 118.824,18.8703 130.316,18.7821 141.807,18.6939 153.299,18.6057 164.791,18.5175 176.282,18.4294 187.774,18.3412 210.757,18.1648 210.732,31.0636 210.706,43.9624 210.681,56.8612 210.656,69.76 210.63,82.6588 210.619,88.2846 210.176,88.4699 209.183,88.7879 210.509,89.891 210.616,89.9844 210.579,108.456 210.554,121.355 210.503,147.153 210.478,160.052 210.452,172.95 210.435,181.494 208.762,183.6 207.4,185.025 206.648,185.68 207.024,185.938 208.692,187.349 210.42,189.141 210.401,198.748 210.376,211.647 210.35,224.546 210.438,235.84 210.602,246.657 210.899,256.963 211.384,266.725 211.41,267.057 210.589,268.051 209.757,269.157 211.707,270.799 212.112,275.909 213.138,284.482 214.519,292.41 216.308,299.661 218.563,306.2 221.336,311.994 224.685,317.011 228.665,321.215 233.33,324.575 238.737,327.056 244.939,328.626 251.957,329.247 252.757,329.192 252.918,329.526 253.073,329.292 253.178,329.163 259.171,328.749 265.518,327.271 271.013,324.853 275.719,321.532 279.698,317.343 283.01,312.324 285.72,306.511 287.888,299.942 289.576,292.653 290.848,284.68 291.763,276.06 292.386,266.831 292.778,257.028 293,246.688 293.115,235.848 293.185,224.546 293.159,211.647 293.133,198.748 293.124,194.06 293.747,193.543 293.508,193.105 293.12,192.19 293.107,185.849 293.092,178.323 293.51,177.339 294.157,176.153 294.184,176.114 293.598,175.734 293.086,175.259 293.082,172.95 293.056,160.052 293.004,134.254 292.978,121.355 292.956,110.408 293.901,108.339 293.932,108.285 292.951,107.914 292.901,82.6588 292.875,69.76 292.797,31.0636 292.771,18.1648 304.525,18.0893 316.278,18.0137 328.031,17.9382 339.784,17.8626 351.538,17.787 363.291,17.7115 375.044,17.6359 383.109,17.5841 385.243,19.1508 385.467,18.656 386.093,17.9279 386.574,17.5618 386.797,17.5604 410.304,17.4092 422.057,17.3337 433.81,17.2581 445.564,17.1826 457.317,17.107 469.07,17.0314 480.823,16.9559 " fill="none" stroke-width="0.5" stroke="rgb(0,0,0)" />
	<polygon points="319.169,422.887 319.17,422.891 319.5,424.343 319.587,424.76 319.626,424.972 320.068,425.318 320.935,426.054 320.971,426.09 321.253,425.854 322.028,425.265 322.728,424.78 323.269,424.451 322.904,421.809 322.904,421.656 " fill="none" stroke-width="0.5" stroke="rgb(0,0,0)" />
	<polygon points="107.699,168.224 109.23,169.586 108.075,167.969 " fill="none" stroke-width="0.5" stroke="rgb(0,0,0)" />
	<polygon points="423.715,148.434 426.022,149.116 427.899,149.882 427.88,149.589 427.099,149.246 425.184,148.158 424.537,147.698 " fill="none" stroke-width="0.5" stroke="rgb(0,0,0)" />
</svg>
