<?xml version="1.0" standalone="no" ?>
<!DOCTYPE svg PUBLIC "-//W3C//DTD SVG 1.1//EN" "http://www.w3.org/Graphics/SVG/1.1/DTD/svg11.dtd">
<svg width="500px" height="500px" xmlns="http://www.w3.org/2000/svg" version="1.1" >
	<polygon points="463.473,280.799 462.698,294.615 460.392,309.171 456.473,324.639 450.912,340.684 443.696,356.99 434.818,373.256 424.279,389.194 412.082,404.524 398.227,418.981 382.711,432.309 365.522,444.264 346.634,454.607 326.002,463.1 303.567,469.499 279.254,473.544 252.978,474.959 227.384,473.624 203.581,469.794 181.533,463.718 161.187,455.63 142.499,445.752 125.441,434.298 109.996,421.482 96.1615,407.523 83.9427,392.647 73.3497,377.091 64.394,361.1 57.0851,344.931 51.4279,328.847 47.4196,313.127 45.0449,298.056 44.2405,283.429 44.2405,36.793 50.007,36.7488 61.4987,36.6606 72.9904,36.5724 84.482,36.4843 95.9737,36.3961 95.9737,36.3961 107.465,36.3079 118.957,36.2197 130.449,36.1316 141.94,36.0434 153.432,35.9552 153.432,35.9552 164.924,35.867 176.415,35.7789 187.907,35.6907 193.373,35.6488 193.357,43.9282 193.331,56.827 193.306,69.7258 193.306,69.7258 193.28,82.6246 193.229,108.422 193.229,108.422 193.204,121.321 193.153,147.119 193.153,147.119 193.128,160.017 193.102,172.916 193.102,172.916 193.077,185.815 193.051,198.714 193.026,211.613 193.026,211.613 193,224.511 193.001,224.68 193.088,235.974 193.09,236.104 193.254,246.921 193.259,247.157 193.556,257.463 193.57,257.824 194.055,267.586 194.088,268.096 194.816,277.28 194.885,277.972 195.912,286.545 196.046,287.458 197.426,295.386 197.674,296.568 199.464,303.819 199.906,305.315 202.16,311.854 202.913,313.692 205.687,319.486 206.907,321.628 210.256,326.644 212.084,328.937 216.064,333.141 218.526,335.294 223.191,338.654 226.093,340.343 231.499,342.825 234.481,343.876 240.683,345.446 243.41,345.908 250.464,346.532 251.947,329.779 253.104,346.559 260.365,346.058 263.105,345.647 269.452,344.169 272.506,343.152 278.001,340.734 281.019,339.028 285.725,335.706 288.299,333.48 292.278,329.291 294.178,326.901 297.49,321.882 298.736,319.654 301.445,313.842 302.196,311.949 304.364,305.379 304.79,303.858 306.479,296.568 306.71,295.385 307.981,287.412 308.1,286.513 309.016,277.894 309.074,277.228 309.697,267.998 309.722,267.523 310.114,257.72 310.124,257.4 310.346,247.061 310.349,246.872 310.464,236.033 310.465,235.956 310.535,224.653 310.535,224.511 310.509,211.612 310.483,198.713 310.457,185.814 310.432,172.916 310.432,172.916 310.406,160.017 310.354,134.219 310.354,134.219 310.328,121.32 310.251,82.6241 310.251,82.624 310.225,69.7252 310.156,35.4034 316.389,35.3634 328.143,35.2878 339.896,35.2122 351.649,35.1367 363.402,35.0611 375.156,34.9856 386.909,34.91 410.415,34.7589 422.169,34.6833 433.922,34.6078 445.675,34.5322 457.428,34.4566 463.473,34.4178 " fill="none" stroke-width="0.5" stroke="rgb(0,0,0)" />
</svg>
