<?xml version="1.0" standalone="no" ?>
<!DOCTYPE svg PUBLIC "-//W3C//DTD SVG 1.1//EN" "http://www.w3.org/Graphics/SVG/1.1/DTD/svg11.dtd">
<svg width="500px" height="500px" xmlns="http://www.w3.org/2000/svg" version="1.1" >
	<polygon points="461.773,280.752 461.005,294.434 458.725,308.829 454.843,324.151 449.329,340.061 442.17,356.238 433.36,372.379 422.902,388.194 410.8,403.404 397.056,417.745 381.669,430.963 364.626,442.816 345.9,453.071 325.444,461.491 303.193,467.837 279.069,471.851 252.976,473.257 227.563,471.931 203.943,468.13 182.074,462.104 161.9,454.084 143.373,444.291 126.46,432.935 111.145,420.227 97.4248,406.383 85.3048,391.627 74.7966,376.196 65.9129,360.334 58.6644,344.297 53.0566,328.354 49.0865,312.783 46.7376,297.877 45.9405,283.382 45.9405,38.4801 50.0201,38.4487 61.5117,38.3606 61.5117,38.3606 73.0034,38.2724 84.4951,38.1842 95.9868,38.096 95.9868,38.096 107.478,38.0079 118.97,37.9197 130.462,37.8315 141.953,37.7433 153.445,37.6552 164.937,37.567 176.428,37.4788 187.92,37.3906 187.92,37.3906 191.669,37.3619 191.657,43.9249 191.631,56.8237 191.606,69.7225 191.606,69.7225 191.58,82.6212 191.529,108.419 191.529,108.419 191.504,121.318 191.453,147.115 191.453,147.115 191.428,160.014 191.402,172.913 191.402,172.913 191.351,198.71 191.326,211.609 191.326,211.609 191.3,224.508 191.301,224.693 191.388,235.987 191.39,236.13 191.554,246.947 191.56,247.206 191.857,257.512 191.872,257.908 192.357,267.67 192.393,268.23 193.121,277.415 193.197,278.174 194.224,286.747 194.371,287.75 195.751,295.678 196.024,296.975 197.814,304.226 198.298,305.869 200.553,312.408 201.38,314.426 204.154,320.22 205.493,322.572 208.842,327.588 210.85,330.105 214.829,334.31 217.532,336.674 222.198,340.033 225.384,341.888 230.79,344.37 234.064,345.524 240.266,347.094 243.26,347.601 250.314,348.226 251.947,329.779 253.221,348.255 260.482,347.754 263.491,347.303 269.838,345.825 273.191,344.708 278.686,342.29 281.999,340.417 286.705,337.095 289.532,334.651 293.51,330.462 295.596,327.837 298.909,322.818 300.277,320.372 302.986,314.56 303.81,312.481 305.978,305.912 306.446,304.241 308.135,296.952 308.389,295.652 309.66,287.679 309.791,286.693 310.707,278.073 310.77,277.342 311.393,268.113 311.421,267.591 311.812,257.788 311.823,257.437 312.045,247.097 312.049,246.89 312.164,236.051 312.165,235.966 312.235,224.664 312.235,224.507 312.209,211.609 312.183,198.71 312.157,185.811 312.132,172.912 312.132,172.912 312.106,160.013 312.054,134.216 312.054,134.216 312.028,121.317 311.951,82.6207 311.951,82.6206 311.925,69.7219 311.859,37.0925 316.4,37.0633 339.907,36.9122 351.66,36.8366 363.413,36.7611 375.167,36.6855 386.92,36.61 410.426,36.4588 422.18,36.3833 433.933,36.3077 445.686,36.2322 457.439,36.1566 461.773,36.1287 " fill="none" stroke-width="0.5" stroke="rgb(0,0,0)" />
</svg>
