<?xml version="1.0" standalone="no" ?>
<!DOCTYPE svg PUBLIC "-//W3C//DTD SVG 1.1//EN" "http://www.w3.org/Graphics/SVG/1.1/DTD/svg11.dtd">
<svg width="500px" height="500px" xmlns="http://www.w3.org/2000/svg" version="1.1" >
	<polygon points="480.823,83.8012 475.593,90.1699 473.593,92.0506 472.163,93.0842 473.188,93.5011 475.13,94.5346 476.853,95.6937 478.614,97.1767 479.983,98.6082 480.823,99.6944 480.823,193.858 480.209,194.569 478.63,195.643 478.321,195.767 480.517,198.204 480.823,198.615 480.823,250.333 480.748,250.448 480.019,251.465 480.322,251.573 480.823,251.83 480.823,281.286 479.971,296.463 479.628,298.63 478.636,299.858 477.771,300.805 476.183,302.348 477.854,305.546 478.35,306.697 477.405,312.666 473.11,329.62 467.07,347.047 459.27,364.67 453.904,374.502 452.353,374.704 452.563,376.959 449.695,382.213 438.331,399.399 425.161,415.952 410.17,431.593 399.256,440.969 398.755,440.812 398.634,441.503 393.345,446.047 374.668,459.037 354.126,470.285 331.702,479.516 319.33,483.045 316.994,481.837 316.542,481.541 316.438,482.427 316.04,483.9 315.991,483.997 307.382,486.452 281.151,490.817 252.993,492.333 225.548,490.902 199.887,486.773 176.007,480.192 171.141,478.258 171.072,478.219 170.967,478.189 153.907,471.407 133.585,460.665 125.179,455.02 125.058,454.228 123.795,454.091 115.039,448.212 98.2672,434.295 83.2685,419.161 70.0408,403.057 58.5824,386.23 48.8916,368.927 40.9666,351.394 34.8057,333.879 32.8639,326.263 34.9214,319.636 35.5306,318.103 36.4462,316.233 34.8139,315.719 30.46,313.079 29.7336,312.353 27.7694,299.888 26.8905,283.906 26.8905,230.869 27.1363,230.446 26.8905,230.304 26.8905,156.79 27.4104,155.634 29.8369,151.202 30.9862,149.509 30.9981,149.495 29.0848,148.502 27.3156,147.349 26.8905,147.008 26.8905,38.3814 29.6424,36.3662 29.981,36.1333 29.5967,36.0122 27.9835,35.3554 26.8905,34.8027 26.8905,19.5757 38.3822,19.4875 49.8739,19.3993 61.3656,19.3111 72.8572,19.223 84.3489,19.1348 95.8406,19.0466 107.332,18.9584 118.824,18.8703 130.316,18.7821 141.807,18.6939 153.299,18.6057 164.791,18.5175 176.282,18.4294 187.774,18.3412 210.757,18.1648 210.732,31.0636 210.706,43.9624 210.681,56.8612 210.656,69.76 210.63,82.6588 210.619,88.1761 210.137,88.3777 208.98,88.7486 210.445,89.9679 210.615,90.1167 210.579,108.456 210.554,121.355 210.503,147.153 210.478,160.052 210.452,172.95 210.436,181.333 208.684,183.538 207.334,184.95 206.485,185.69 206.967,186.02 208.62,187.418 210.42,189.285 210.401,198.748 210.376,211.647 210.35,224.546 210.438,235.84 210.602,246.657 210.899,256.963 211.384,266.725 211.399,266.914 210.51,267.989 209.623,269.17 209.648,269.195 211.718,270.939 212.112,275.909 213.138,284.482 214.519,292.41 216.308,299.661 218.563,306.2 221.336,311.994 224.685,317.011 228.665,321.215 233.33,324.575 238.737,327.056 244.939,328.626 251.957,329.247 252.649,329.199 252.905,329.727 253.151,329.355 253.314,329.153 259.171,328.749 265.518,327.271 271.013,324.853 275.719,321.532 279.698,317.343 283.01,312.324 285.72,306.511 287.888,299.942 289.576,292.653 290.848,284.68 291.763,276.06 292.386,266.831 292.778,257.028 293,246.688 293.115,235.848 293.185,224.546 293.159,211.647 293.133,198.748 293.124,194.19 293.874,193.568 293.596,193.057 293.12,191.934 293.107,185.849 293.093,178.576 293.598,177.387 294.245,176.201 294.322,176.087 293.666,175.661 293.086,175.122 293.082,172.95 293.056,160.052 293.004,134.254 292.978,121.355 292.957,110.647 293.992,108.38 294.077,108.234 292.951,107.808 292.901,82.6588 292.875,69.76 292.797,31.0636 292.771,18.1648 304.525,18.0893 316.278,18.0137 328.031,17.9382 339.784,17.8626 351.538,17.787 363.291,17.7115 375.044,17.6359 382.941,17.5852 385.279,19.3012 385.543,18.7212 386.169,17.9931 386.737,17.5608 386.797,17.5604 410.304,17.4092 422.057,17.3337 433.81,17.2581 445.564,17.1826 457.317,17.107 469.07,17.0314 480.823,16.9559 " fill="none" stroke-width="0.5" stroke="rgb(0,0,0)" />
	<polygon points="319.045,422.823 319.072,422.913 319.403,424.365 319.488,424.778 319.535,425.028 320.004,425.395 320.87,426.13 320.965,426.225 321.318,425.931 322.085,425.347 322.785,424.862 323.376,424.503 323.004,421.809 323.004,421.518 " fill="none" stroke-width="0.5" stroke="rgb(0,0,0)" />
	<polygon points="111.498,171.891 111.73,172.168 111.776,172.118 111.264,171.65 " fill="none" stroke-width="0.5" stroke="rgb(0,0,0)" />
	<polygon points="107.537,168.214 110.374,170.737 109.351,169.583 108.1,167.832 " fill="none" stroke-width="0.5" stroke="rgb(0,0,0)" />
	<polygon points="423.514,148.479 425.993,149.212 427.969,150.018 428.008,150.038 427.976,149.522 427.14,149.154 425.242,148.077 424.53,147.571 " fill="none" stroke-width="0.5" stroke="rgb(0,0,0)" />
</svg>
