<?xml version="1.0" standalone="no" ?>
<!DOCTYPE svg PUBLIC "-//W3C//DTD SVG 1.1//EN" "http://www.w3.org/Graphics/SVG/1.1/DTD/svg11.dtd">
<svg width="500px" height="500px" xmlns="http://www.w3.org/2000/svg" version="1.1" >
	<polygon points="480.823,17.3656 480.823,26.3769 480.424,26.6577 479.564,27.4757 478.847,28.3728 478.273,29.309 477.846,30.2278 477.568,31.0537 477.432,31.6814 477.406,31.9975 477.556,33.9651 477.992,36.0808 478.69,38.5441 479.548,41.3979 479.59,41.5445 480.458,44.7958 480.528,45.0944 480.823,46.5554 480.823,69.8969 480.56,70.8806 477.199,78.8342 476.465,80.0487 471.149,86.5206 470.224,87.3906 463.19,92.475 462.303,92.9856 453.787,96.7764 453.043,97.0385 443.279,99.6298 442.685,99.749 431.908,101.235 431.435,101.277 419.88,101.751 419.628,101.755 416.341,101.723 416.244,101.721 412.911,101.622 412.817,101.619 409.448,101.455 409.355,101.45 405.958,101.221 405.866,101.214 402.45,100.92 402.358,100.911 398.933,100.551 398.841,100.541 395.414,100.116 395.321,100.104 391.902,99.614 391.835,99.6038 391.36,99.5291 390.946,99.4456 390.56,99.3507 389.935,99.152 389.631,99.0327 388.768,98.5917 388.537,98.4438 387.558,97.6185 387.392,97.4379 386.611,96.2989 386.503,96.0813 386.11,94.9781 386.051,94.7194 385.936,93.9103 385.918,93.6062 386.337,92.0164 385.103,93.4081 384.365,94.0876 378.188,98.7089 377.373,99.2037 370.425,102.556 369.575,102.874 362.076,104.915 361.21,105.07 353.379,105.76 352.574,105.765 347.279,105.367 346.58,105.264 345.119,104.94 345.532,105.257 346.734,106.588 347.075,107.142 347.564,108.196 347.793,108.894 347.966,109.587 348.105,110.383 348.161,110.819 348.233,111.668 348.248,111.931 348.274,112.789 348.276,112.918 348.28,113.74 348.273,114.025 348.122,116.858 348.076,117.315 347.612,120.473 347.529,120.903 347.093,122.726 347.159,122.734 349.237,124.556 349.985,125.728 350.277,126.253 350.938,127.634 351.107,128.03 351.677,129.547 351.784,129.864 352.259,131.445 352.333,131.718 352.71,133.292 352.764,133.552 353.038,135.046 353.082,135.327 353.249,136.671 353.28,137.032 353.337,138.152 353.321,138.87 352.695,145.471 352.485,146.499 351.587,149.33 351.588,149.33 352.717,148.717 353.612,148.34 354.86,147.953 355.83,147.756 357.171,147.622 358.163,147.622 359.502,147.757 360.472,147.954 361.72,148.341 362.614,148.717 363.743,149.33 364.533,149.862 365.516,150.673 366.185,151.341 366.997,152.325 367.185,152.604 367.213,152.507 367.257,152.391 367.688,151.512 367.739,151.429 368.561,150.425 368.619,150.371 369.89,149.507 369.952,149.478 371.395,149.049 371.46,149.04 373.923,149.36 373.313,149.154 372.39,148.734 366.021,145.001 365.264,144.456 359.928,139.787 359.329,139.163 355.081,133.88 354.614,133.185 351.511,127.609 351.154,126.808 349.251,121.26 349.021,120.265 348.374,115.067 348.348,114.108 348.374,113.747 348.482,113.011 348.55,112.707 348.801,111.911 348.905,111.656 349.296,110.897 349.431,110.683 349.897,110.059 350.056,109.878 350.494,109.437 350.67,109.28 350.999,109.013 351.187,108.873 351.36,108.75 351.554,108.618 352.741,108.026 353.921,107.623 355.015,107.384 356.855,107.196 357.115,107.177 359.517,107.058 362.332,106.871 365.489,106.486 368.988,105.776 372.81,104.608 377.047,102.797 377.489,102.573 377.77,102.441 378.357,102.188 378.646,102.074 379.228,101.865 379.524,101.769 380.1,101.602 380.401,101.525 380.97,101.399 381.273,101.341 381.832,101.253 382.139,101.214 382.685,101.162 382.995,101.143 383.527,101.126 384.43,101.18 386.396,101.48 388.061,102.051 389.478,102.842 390.684,103.787 391.728,104.905 392.243,105.559 393.088,106.841 393.125,106.898 393.751,107.877 393.902,108.051 394.013,108.069 394.715,108.004 395.939,107.715 397.433,107.226 399.099,106.598 400.818,105.932 400.945,105.885 402.596,105.297 402.95,105.186 404.469,104.77 405.2,104.628 406.547,104.471 408.77,104.719 410.812,105.44 412.511,106.46 414.654,108.426 415.305,109.155 417.435,112.071 417.756,112.571 419.757,116.143 419.958,116.543 421.714,120.475 421.867,120.861 423.265,124.859 423.4,125.315 424.323,129.083 424.395,129.503 424.638,129.005 425.126,128.206 425.864,127.219 426.556,126.47 427.566,125.582 428.446,124.963 428.691,124.828 427.946,124.414 426.952,123.732 426.171,123.067 425.263,122.116 424.647,121.322 423.856,120.055 423.458,119.27 422.953,118.009 422.769,117.454 422.397,116.067 422.333,115.801 422.028,114.345 422.026,114.334 421.745,112.982 421.472,111.925 421.215,111.244 421.048,110.961 420.515,110.422 419.136,107.639 419.686,104.582 421.95,102.455 425.265,102.148 426.238,102.397 427.088,102.56 427.975,102.682 428.888,102.768 429.816,102.822 430.75,102.85 431.681,102.861 432.403,102.863 434.815,102.671 437.168,102.171 439.658,101.405 442.251,100.463 444.861,99.4789 444.998,99.4297 447.521,98.5623 447.9,98.4487 450.292,97.8352 451.012,97.7064 453.256,97.4737 454.181,97.4647 455.49,97.5747 456.441,97.7494 457.523,98.0602 458.553,98.4865 459.426,98.9692 460.386,99.6622 460.411,99.685 460.61,99.0886 463.156,97.3086 465.572,97.2017 468.058,97.7121 468.927,97.9755 471.022,98.8276 471.92,99.3057 473.643,100.465 474.458,101.151 475.827,102.582 476.459,103.399 477.492,105.068 477.907,105.906 478.622,107.779 478.848,108.557 479.264,110.598 479.355,111.281 479.489,113.456 479.44,114.521 478.69,119.354 478.324,120.601 476.319,125.121 476.774,125.156 478.427,126.075 479.799,127.203 480.823,128.415 480.823,182.298 480.303,184.258 479.972,185.148 478.644,187.883 476.975,189.815 475.396,190.889 471.431,191.603 468.097,190.784 466.809,190.267 462.239,187.637 461.685,187.266 456.362,183.161 456,182.853 450.406,177.609 450.094,177.289 445.963,172.647 446.94,173.848 447.098,174.054 451.645,180.289 451.701,180.367 455.796,186.219 458.257,187.668 458.269,187.675 462.331,190.082 462.571,190.234 466.959,193.186 467.36,193.486 471.729,197.117 472.243,197.611 476.245,202.053 476.792,202.787 480.081,208.173 480.535,209.139 480.823,209.974 480.823,238.343 480.198,239.984 479.84,240.729 476.321,246.72 476.076,247.097 471.891,252.933 471.83,253.016 468.521,257.433 470.053,256.826 472.984,256.208 474.518,256.128 475.986,256.282 477.133,256.542 478.393,256.99 479.543,257.579 480.597,258.306 480.823,258.509 480.823,281.286 480.514,286.79 479.492,288.79 479.247,289.216 477.054,292.622 476.742,293.054 474.164,296.243 473.764,296.681 470.806,299.556 468.12,300.859 470.388,303.828 470.842,304.541 472.758,308.208 473.049,308.884 474.493,313.063 474.669,313.714 475.581,318.296 475.665,318.94 475.696,319.412 473.11,329.62 467.07,347.047 459.438,364.29 456.023,367.663 453.24,369.042 450.182,368.491 447.667,364.986 446.537,358.462 444.212,354.79 440.623,351.996 435.841,349.598 430.633,347.28 430.142,347.028 425.512,344.314 424.3,343.315 421.028,339.598 419.92,337.441 418.68,332.067 418.573,330.508 418.678,329.341 417.354,330.224 416.09,330.573 415.308,330.722 413.521,330.915 413.348,330.931 411.378,331.074 410.6,331.156 410.686,331.703 410.933,333.095 411.189,334.517 411.202,334.594 411.426,335.963 411.453,336.149 411.612,337.418 411.643,337.768 411.703,338.897 411.708,339.303 411.698,339.636 411.674,339.997 411.64,340.332 411.562,340.836 411.495,341.158 411.298,341.849 411.19,342.144 410.753,343.046 410.596,343.3 410.472,343.451 411.568,343.321 412.574,343.304 417.922,343.76 418.755,343.903 424.05,345.29 424.885,345.591 429.922,347.936 430.746,348.421 435.324,351.754 436.089,352.444 440.004,356.791 440.634,357.667 443.682,363.058 444.106,364.045 446.084,370.508 446.279,371.497 446.983,379.059 446.942,380.303 445.654,388.324 438.331,399.399 425.161,415.952 410.17,431.593 405.13,435.923 403.505,436.113 401.989,435.858 400.697,435.452 399.204,434.747 398.34,434.225 396.926,433.16 396.332,432.633 395.05,431.297 394.607,430.765 393.514,429.25 393.153,428.668 392.304,427.063 391.997,426.353 391.447,424.747 391.22,423.776 391.024,422.261 390.993,421.319 391.023,420.845 391.124,420.113 391.231,419.613 391.493,418.77 391.707,418.249 391.898,417.886 389.121,417.59 388.227,417.411 384.667,416.346 383.968,416.078 380.629,414.498 380.061,414.182 377.063,412.246 376.564,411.878 376.072,411.464 376.303,412.655 376.393,413.597 376.393,417.615 376.392,417.731 376.375,418.454 376.361,418.73 376.304,419.445 376.264,419.792 376.159,420.49 376.145,420.56 379.36,419.693 380.93,419.877 381.973,420.115 383.606,420.68 384.533,421.112 386.144,422.078 386.953,422.683 388.459,424.071 389.122,424.819 390.44,426.648 390.927,427.488 391.972,429.779 392.273,430.641 392.961,433.415 393.093,434.234 393.341,437.511 393.281,438.74 392.167,445.093 391.718,446.453 391.161,447.565 374.668,459.037 354.126,470.285 331.702,479.516 330.628,479.823 327.256,479.526 326.337,479.357 323.219,478.471 322.298,478.106 319.635,476.729 318.787,476.174 316.588,474.388 315.875,473.677 314.149,471.564 313.605,470.741 312.361,468.382 311.996,467.489 311.244,464.966 311.06,464.029 310.807,461.424 310.795,460.622 311.036,456.937 311.111,456.344 311.782,452.78 311.906,452.272 312.929,448.866 313.08,448.436 313.938,446.315 313.449,446.477 312.697,446.661 311.936,446.786 311.463,446.826 311.169,447.68 310.014,451.787 309.968,451.942 308.458,456.704 308.283,457.173 306.25,461.878 305.801,462.695 303.034,466.768 301.966,467.903 298.259,470.769 296.309,471.684 291.737,472.703 292.841,472.758 295.374,472.731 297.284,472.658 298.612,472.56 299.527,472.454 300.264,472.341 300.959,472.231 301.189,472.2 301.905,472.121 302.277,472.094 303.141,472.064 303.708,472.077 304.578,472.146 305.553,472.324 306.222,472.517 307.367,473.009 307.86,473.3 308.944,474.165 309.289,474.53 310.053,475.589 310.275,476.003 310.671,476.977 310.797,477.416 310.949,478.153 311.006,478.592 311.043,479.067 311.056,479.482 310.887,480.927 310.489,482.4 309.592,484.181 308.413,485.67 307.7,486.362 307.382,486.452 281.151,490.817 272.627,491.276 272.052,491.058 271.341,490.722 269.171,489.477 268.504,489.018 266.678,487.527 266.085,486.953 264.607,485.266 264.474,485.085 261.357,486.673 261.079,486.804 256.914,488.61 256.625,488.725 252.2,490.321 251.891,490.422 247.26,491.756 246.922,491.841 246.26,491.982 225.548,490.902 199.887,486.773 190.708,484.243 185.847,481.235 185.585,481.061 180.823,477.678 176.742,474.811 173.307,472.879 170.869,472.177 167.565,471.849 163.37,471.617 163.07,471.591 158.317,471.035 157.665,470.914 152.454,469.581 151.639,469.294 145.961,466.721 145.18,466.278 139.027,462.006 138.405,461.494 131.769,455.061 130.329,452.308 130.814,449.24 131.902,448.172 127.275,448.588 126.298,448.579 115.533,447.411 114.487,447.182 113.327,446.791 98.2672,434.295 83.2685,419.161 74.3746,408.333 74.1922,407.547 73.3447,400.765 73.3222,399.757 73.7317,394.629 73.8583,393.845 74.1298,392.737 73.3615,393.741 70.3754,394.597 67.0237,393.101 65.133,391.156 61.7348,388.793 59.0706,386.947 58.5824,386.23 48.8916,368.927 40.9666,351.394 36.5189,338.749 37.2493,331.848 37.4444,330.902 40.4128,321.341 40.6946,320.632 44.8912,312.062 45.1443,311.608 47.6058,307.686 47.1649,308.064 44.9513,309.614 43.4036,310.338 41.2872,310.911 38.509,310.854 36.5399,310.235 34.5257,309.013 32.7072,307.195 31.8746,306.088 30.2411,303.132 29.9024,302.376 28.4886,298.343 28.3355,297.813 27.4412,293.92 26.8905,283.906 26.8905,251.572 27.1522,249.674 27.2055,249.362 28.3976,243.512 28.4967,243.112 29.9428,238.164 30.1553,237.577 31.8169,233.759 32.3914,232.77 34.2299,230.311 36.1992,228.745 38.1356,227.892 37.4993,227.883 34.963,227.586 33.6957,227.264 31.4639,226.37 30.2541,225.672 28.3372,224.171 27.4336,223.25 26.8905,222.529 26.8905,198.695 28.3728,198.672 29.8419,199.742 29.0423,197.824 28.7811,197.003 28.2085,194.451 28.0998,193.705 27.9013,190.799 27.8898,190.456 27.8901,190.13 27.8902,190.1 27.8926,189.774 27.8934,189.713 27.8997,189.387 27.9023,189.296 27.9146,188.969 27.9206,188.849 27.941,188.521 27.9525,188.372 27.9828,188.044 28.0023,187.868 28.0447,187.539 28.0749,187.337 28.1313,187.008 29.0662,185.249 28.6574,184.771 28.1842,184.116 27.8459,183.557 27.444,182.726 27.2244,182.138 26.9539,181.052 26.8905,180.571 26.8905,178.831 26.8958,178.78 26.9414,178.45 26.9852,178.196 27.0521,177.873 27.1122,177.624 27.2005,177.307 27.2761,177.065 27.387,176.75 27.4774,176.518 27.6131,176.202 27.7175,175.981 27.7824,175.856 28.2616,174.537 28.7401,172.02 29.3726,168.416 29.4315,168.13 30.4076,164.013 30.5648,163.483 32.1369,159.101 32.4542,158.395 34.8807,153.963 35.4124,153.18 38.9517,148.911 39.689,148.191 42.3353,146.095 41.9236,146.124 41.1083,146.116 38.375,145.86 37.448,145.683 34.9125,144.943 34.0198,144.585 31.7335,143.398 30.9151,142.865 28.9294,141.271 28.2237,140.578 26.8905,138.976 26.8905,116.159 27.6136,115.173 28.109,114.595 29.7052,113.002 30.2833,112.507 32.2028,111.105 32.8327,110.714 35.0856,109.539 38.1516,109.039 40.9117,110.464 41.482,112.214 41.5708,111.275 41.7479,110.352 42.3964,108.135 42.7461,107.259 43.7841,105.242 44.1704,104.642 41.7935,105.571 40.8903,105.828 36.8653,106.571 35.6712,106.645 34.9789,106.604 34.3124,106.518 33.6789,106.393 32.9026,106.172 32.3382,105.96 31.4727,105.535 30.9879,105.235 30.1133,104.548 29.7182,104.157 28.9731,103.217 28.6781,102.735 28.1867,101.661 28.0022,101.084 27.7889,100.043 27.7251,99.3694 27.9462,97.3699 29.2296,93.4282 29.8081,92.2296 33.1917,87.1151 33.4867,86.7145 35.9659,83.6801 35.8245,83.7527 34.7161,84.1636 32.5906,84.6732 30.6719,84.7502 30.073,84.6566 28.5072,84.1331 28.014,83.8699 26.8905,83.0256 26.8905,65.3675 27.1672,64.8871 27.8233,63.8927 28.3704,63.2052 29.0739,62.4666 29.6841,61.9236 30.664,61.1869 31.3317,60.764 32.5326,60.1315 28.7251,59.3264 26.8905,58.3077 26.8905,45.9946 28.6113,44.3105 29.149,43.8545 33.0397,41.0053 33.2803,40.8397 37.7404,37.9617 37.8059,37.9201 42.2162,35.1711 44.0416,33.9723 43.8656,33.9204 39.6725,32.8825 39.6462,32.8759 35.3468,31.7867 35.075,31.7096 31.3245,30.5279 30.5782,30.2241 27.9254,28.8826 26.8905,27.9485 26.8905,19.5757 38.3822,19.4875 49.8739,19.3993 61.3656,19.3111 72.8572,19.223 75.9417,19.1993 77.3051,19.9835 79.1776,21.8949 80.148,23.6652 80.4472,27.7697 79.6431,29.9322 78.5368,31.6739 76.417,33.8344 75.7747,34.3857 72.7778,36.5419 72.5127,36.72 69.0773,38.8698 69.0698,38.8745 65.7619,40.9363 64.2278,42.027 66.1006,42.3744 70.6977,42.8538 72.9343,43.068 72.7245,42.4043 72.6613,41.9786 73.2829,38.7551 74.0413,37.4563 75.7807,35.7009 77.7801,34.5085 78.437,34.1803 81.2637,33.0208 81.423,32.9587 84.5923,31.7849 87.5257,30.595 89.4952,29.5483 89.2938,29.4575 88.0193,29.0286 88.0018,29.0227 86.6876,28.575 85.9345,28.2464 85.0049,27.7451 82.9773,25.7 82.6246,25.0325 82.1089,21.9691 82.5923,20.471 82.8833,19.9005 83.573,19.1407 84.3489,19.1348 95.8406,19.0466 107.332,18.9584 111.717,18.9248 111.958,19.1119 112.609,19.717 114.224,21.5155 114.342,21.6517 115.645,23.2135 116.598,24.1035 117.405,24.5188 118.804,24.7202 120.145,24.5283 120.997,24.1027 122.026,23.1985 123.41,21.6718 123.537,21.5363 125.233,19.8014 125.871,19.2514 126.479,18.8115 130.316,18.7821 141.807,18.6939 152.876,18.609 153.709,19.4045 153.948,19.7966 154.651,22.8223 154.238,24.4004 153.87,25.2193 152.202,27.2414 151.233,27.923 150.471,28.3635 149.101,29 148.99,29.0496 147.583,29.6619 146.643,30.1547 146.917,30.4538 148.869,31.9015 151.524,33.5597 154.346,35.2657 154.547,35.3942 157.035,37.0677 157.619,37.5297 156.982,36.6808 156.272,35.3532 155.356,32.7523 155.576,28.937 156.629,26.7798 158.182,24.9363 161.096,22.8342 161.968,22.3315 166.377,20.3562 166.888,20.1603 172.184,18.4608 176.282,18.4294 187.774,18.3412 210.124,18.1697 210.755,19.3604 210.747,23.5259 210.681,24.0337 209.806,25.6448 208.213,27.3921 205.863,28.9679 205.17,29.3555 201.761,30.9195 201.491,31.0338 199.428,31.8357 201.224,31.6714 201.515,31.6534 203.734,31.5817 203.949,31.5794 205.549,31.5972 205.82,31.6077 207.205,31.6993 207.803,31.7756 208.975,31.9982 210.002,32.3124 210.729,32.6241 210.706,43.9624 210.687,54.0677 210.474,54.198 208.751,54.8539 207.734,55.035 206.183,55.0643 204.036,54.7652 203.186,54.5695 200.681,53.7541 200.209,53.571 203.514,56.9463 203.707,57.1556 208.259,62.3744 208.66,62.9011 210.663,65.9358 210.656,69.76 210.632,81.5459 210.349,81.7802 209.619,82.2648 208.789,82.7089 207.919,83.0727 207.11,83.3319 206.107,83.5606 205.354,83.6723 204.226,83.7517 203.377,83.7384 199.395,83.3331 198.797,83.2348 194.107,82.1662 193.806,82.0876 188.686,80.5768 188.543,80.5321 187.853,80.3056 192.319,83.2172 192.512,83.3493 197.397,86.8732 197.536,86.9777 202.339,90.7064 202.471,90.812 206.766,94.3873 206.933,94.5331 210.295,97.5965 210.6,97.9013 210.579,108.456 210.556,120.297 210.025,120.896 209.038,121.75 207.873,122.515 206.199,123.216 204.931,123.489 201.479,122.973 199.154,121.677 198.088,120.877 194.573,117.409 194.271,117.084 190.027,112.072 189.866,111.87 185.356,105.943 185.229,105.768 181.575,100.503 182.369,103.087 182.54,103.855 183.095,107.826 183.137,108.746 183.095,109.637 183.038,110.184 182.906,111.01 182.748,111.691 182.518,112.435 182.178,113.26 181.842,113.905 181.225,114.823 180.774,115.354 179.83,116.211 179.256,116.61 178.093,117.21 177.388,117.461 176.234,117.723 175.39,117.811 173.597,117.668 170.238,116.767 169.117,116.296 169.276,116.467 169.878,117.266 172.223,121.135 172.609,121.922 174.296,126.303 174.517,127.047 175.151,130.013 177.645,127.795 178.108,127.43 181.108,125.343 181.714,124.983 184.834,123.417 185.608,123.107 188.829,122.122 189.767,121.932 193.071,121.591 194.129,121.595 198.162,122.045 199.335,122.323 202.789,123.605 203.895,124.183 206.784,126.193 207.662,126.974 209.997,129.611 210.536,130.365 210.503,147.153 210.478,160.052 210.471,163.162 209.308,164.008 209.174,164.061 209.505,164.441 209.82,167.186 209.317,170.138 209.116,170.923 208.154,173.708 207.822,174.459 206.434,177.008 205.963,177.719 204.182,179.961 203.558,180.614 201.416,182.48 200.632,183.039 198.163,184.458 197.234,184.872 194.471,185.774 193.449,185.992 191.569,186.189 193.075,186.306 193.868,186.433 196.933,187.182 197.746,187.457 200.508,188.669 201.318,189.119 203.717,190.763 204.481,191.41 206.454,193.456 207.108,194.3 208.594,196.717 209.064,197.717 210,200.475 210.235,201.544 210.393,203.025 210.384,207.698 210.216,208.73 210.126,209.164 209.761,210.589 209.652,210.956 209.166,212.384 209.048,212.696 208.456,214.115 208.335,214.382 207.651,215.782 207.53,216.014 206.768,217.385 206.649,217.589 205.823,218.92 203.441,220.914 200.34,221.095 197.741,219.393 196.845,217.633 196.227,215.399 195.511,214.034 194.558,212.936 193.248,211.98 191.44,211.146 189.06,210.488 186.093,210.065 182.527,209.916 182.116,209.926 183.986,211.291 184.817,212.056 186.789,214.344 187.462,215.351 188.67,217.752 189.055,218.79 189.661,221.245 189.795,222.097 189.83,222.624 191.284,220.018 194.117,218.742 197.22,219.446 200.567,221.499 200.966,221.772 204.034,224.094 204.407,224.407 207.144,226.938 207.502,227.306 209.856,229.987 210.205,230.434 210.398,230.712 210.438,235.84 210.602,246.657 210.899,256.963 210.957,258.127 210.955,258.131 210.649,258.577 208.34,261.584 208.23,261.722 205.994,264.428 204.277,266.712 203.381,268.387 203.171,269.455 203.391,270.584 204.146,271.809 205.744,273.425 208.041,275.36 208.126,275.433 210.596,277.612 211.054,278.073 212.581,279.825 213.138,284.482 214.519,292.41 215.435,296.123 214.166,299.227 213.907,299.765 212.611,302.088 213.419,301.462 216.524,301.395 217.03,301.753 218.563,306.2 221.336,311.994 224.685,317.011 228.665,321.215 233.33,324.575 238.737,327.056 244.939,328.626 245.402,328.667 246.781,330.491 247.29,331.324 248.799,334.448 249.109,335.266 250.022,338.527 250.162,339.206 250.612,342.574 250.653,343.057 250.774,346.505 250.758,347.11 250.679,348.015 252.139,343.261 252.503,342.386 257.109,333.747 257.625,332.967 261.459,328.216 265.518,327.271 271.013,324.853 275.719,321.532 279.698,317.343 283.01,312.324 283.027,312.287 289.093,310.376 287.996,310.219 285.788,308.034 285.595,306.779 285.72,306.511 287.304,301.712 288.044,301.014 289.064,299.934 289.919,298.856 290.622,297.737 291.193,296.511 291.638,295.088 291.937,293.374 292.052,291.229 292.024,290.2 291.941,289.096 291.816,287.938 291.662,286.704 291.661,286.696 291.502,285.406 291.492,285.316 291.354,283.99 291.339,283.825 291.241,282.443 291.23,282.219 291.207,281.297 291.76,276.09 291.957,275.414 292.477,274.062 292.914,273.192 293.615,272.085 294.304,271.225 295.168,270.364 296.09,269.641 297.102,269.026 298.153,268.545 299.296,268.176 300.335,267.96 301.593,267.837 302.911,267.885 305.188,268.275 306.6,268.744 308.617,269.773 309.47,270.325 311.279,271.779 311.693,272.153 313.345,273.82 313.458,273.938 314.92,275.514 315.336,275.919 315.009,274.628 313.321,272.682 309.962,270.425 305.468,267.949 305.294,267.849 300.609,265.014 299.947,264.535 295.86,261.027 294.892,259.904 292.788,256.555 293,246.688 293.115,235.848 293.134,232.778 293.976,230.709 294.071,230.49 295.44,227.543 295.532,227.356 297.165,224.194 298.814,222.58 298.544,222.431 297.768,221.904 296.29,220.68 295.634,220.024 294.411,218.545 293.884,217.77 293.169,216.466 293.159,211.647 293.142,203.299 293.884,201.947 294.409,201.173 295.633,199.693 296.287,199.038 297.765,197.811 298.54,197.283 300.23,196.354 301.12,195.972 302.979,195.383 303.143,195.348 302.375,194.829 301.34,193.973 300.677,193.311 299.822,192.275 299.292,191.492 298.644,190.305 298.266,189.412 297.856,188.103 297.656,187.127 297.513,185.724 297.513,184.72 297.656,183.318 297.857,182.341 298.266,181.033 298.645,180.141 299.292,178.955 299.823,178.172 300.678,177.137 301.341,176.475 302.376,175.62 303.159,175.09 304.345,174.443 305.237,174.065 306.544,173.656 307.52,173.456 308.92,173.313 309.922,173.313 311.329,173.456 312.302,173.655 313.614,174.064 314.505,174.44 314.579,174.48 314.615,174.127 314.812,173.156 315.199,171.911 315.575,171.02 316.185,169.893 316.518,169.399 315.365,169.256 314.984,169.194 312.779,168.746 312.44,168.664 310.591,168.15 310.317,168.065 309.129,167.658 308.868,168.314 308.727,168.633 308.229,169.667 307.579,170.678 306.99,171.387 304.62,172.961 303.871,173.189 300.494,173.007 299.009,172.375 297.579,171.447 296.166,170.136 295.45,169.304 294.148,167.403 293.77,166.747 293.066,165.28 293.056,160.052 293.005,134.49 293.786,132.96 294.027,132.54 295.123,130.832 297.536,128.875 297.813,128.863 297.729,128.639 297.663,128.454 297.43,127.754 297.37,127.559 297.162,126.834 297.107,126.627 296.928,125.882 296.88,125.659 296.733,124.898 296.693,124.657 296.584,123.884 296.554,123.623 296.485,122.841 296.468,122.557 296.444,121.772 296.46,121.202 296.71,118.259 296.85,117.44 297.618,114.464 297.908,113.646 299.222,110.769 299.693,109.954 301.579,107.306 302.258,106.536 304.743,104.248 305.62,103.603 308.731,101.807 309.732,101.368 312.336,100.556 312.244,100.31 312.082,99.7937 311.944,99.2529 311.875,98.9408 311.744,98.2395 311.698,97.948 311.495,96.3398 311.275,94.6446 311.108,93.5772 310.805,93.8332 308.485,95.8833 308.453,95.9112 306.051,97.9977 305.896,98.1273 303.619,99.9475 303.22,100.235 301.234,101.522 300.046,102.084 298.516,102.572 296.975,102.807 296.739,102.805 296.464,102.795 296.273,102.783 295.535,102.681 295.384,102.648 294.02,102.132 293.906,102.069 292.938,101.237 292.918,91.1465 292.965,91.0371 293.112,90.7258 294.51,88.011 294.57,87.8995 296.172,84.976 297.741,82.105 298.8,80.0297 298.373,79.9774 296.227,79.747 295.914,79.7033 294.01,79.3749 292.982,79.0806 292.893,79.0443 292.875,69.76 292.866,65.5413 293.756,64.8637 293.955,64.7196 296.102,63.2473 298.074,61.8431 299.089,60.9796 298.918,60.8741 297.125,60.0231 295.085,59.103 294.778,58.9516 292.959,57.9751 292.851,57.9009 292.825,45.1351 294.459,44.2107 294.602,44.1327 296.515,43.1322 298.261,42.1745 298.416,42.0735 298.239,41.7524 296.633,39.281 294.678,36.4159 294.66,36.3891 292.802,33.6283 292.797,31.0636 292.771,18.1648 296.962,18.1379 297.872,18.3922 300.629,19.5469 300.984,19.7122 304.27,21.4047 304.37,21.4582 307.825,23.3397 310.929,24.9782 310.951,24.0749 310.955,23.226 310.958,23.0651 310.998,22.0078 311.029,21.6079 311.14,20.6729 311.214,20.2222 311.387,19.4154 311.53,18.8896 311.753,18.2165 311.825,18.0424 316.278,18.0137 324.909,17.9582 325.477,18.5493 326.579,19.6606 327.284,20.2782 327.587,20.2385 329.348,19.7291 331.821,18.8563 334.506,17.8965 339.784,17.8626 351.538,17.787 363.291,17.7115 370.259,17.6667 370.627,17.7958 377.861,21.1151 378.726,21.6238 384.936,26.1821 385.723,26.9026 390.778,32.6486 391.403,33.5395 395.175,40.4221 395.581,41.3962 396.998,46.1845 397.156,45.9859 398.806,44.6474 400.801,43.6461 401.405,43.3911 404.377,42.3646 404.701,42.265 408.363,41.2748 408.593,41.2184 412.656,40.3263 412.863,40.2855 414.424,40.0116 412.289,38.4189 407.579,35.9309 403.073,34.2229 398.977,33.0575 395.576,32.2065 395.207,32.0985 392.912,31.3303 390.771,29.9112 389.943,28.9726 388.723,26.1159 389.902,22.4703 390.528,21.7423 392.17,20.4929 393.93,19.6623 394.531,19.4255 397.25,18.5538 397.592,18.4577 401.092,17.6066 401.35,17.551 401.816,17.4638 410.304,17.4092 422.057,17.3337 433.81,17.2581 434.403,17.2543 436.654,17.9992 437.451,18.3432 440.095,19.7711 441.082,20.473 443.108,22.3247 444.086,23.5589 445.383,25.8732 445.951,27.4998 445.997,27.7859 446.084,27.3115 446.752,24.938 447.114,24.0173 448.185,21.9306 448.75,21.0675 450.192,19.2961 450.932,18.5611 452.706,17.1366 457.317,17.107 469.07,17.0314 479.743,16.9628 " fill="none" stroke-width="0.5" stroke="rgb(0,0,0)" />
	<polygon points="258.295,447.402 257.917,447.447 257.715,447.498 257.528,447.577 257.204,447.773 256.666,448.192 255.901,448.907 255.345,449.496 256.207,449.348 256.533,449.353 256.891,449.372 257.319,449.411 257.878,449.493 258.382,449.597 259.08,449.795 259.635,449.997 260.411,450.359 260.99,450.693 261.114,450.781 260.723,449.939 260.679,449.842 260.282,448.938 259.969,448.413 259.641,447.996 259.329,447.693 259.068,447.503 258.896,447.415 258.848,447.4 258.736,447.389 " fill="none" stroke-width="0.5" stroke="rgb(0,0,0)" />
	<polygon points="187.494,439.558 187.807,440.17 189.793,444.829 190.033,445.535 190.968,449.164 191,449.177 192.278,449.554 193.85,449.9 195.54,450.172 197.188,450.343 198.605,450.398 200.503,450.294 202.353,449.969 204.067,449.408 205.564,448.614 206.822,447.578 207.87,446.222 208.711,444.374 209.36,441.383 210.342,439.715 210.082,439.773 209.373,439.878 202.689,440.377 201.932,440.376 195.714,439.887 194.876,439.748 189.68,438.42 188.827,438.117 185.777,436.706 " fill="none" stroke-width="0.5" stroke="rgb(0,0,0)" />
	<polygon points="162.699,403.427 162.828,404.228 163.567,413.731 163.571,414.452 163.25,419.136 163.152,419.837 162.09,424.787 161.853,425.569 159.898,430.51 159.457,431.369 156.458,436.026 155.756,436.886 151.562,440.986 150.616,441.71 145.075,444.978 144.014,445.446 138.822,447.04 139.716,447.118 140.709,447.18 141.704,447.223 142.677,447.248 143.47,447.254 148.598,446.927 152.769,446.034 156.117,444.668 158.707,442.921 160.654,440.826 162.06,438.329 162.95,435.327 163.283,431.578 163.28,431.29 163.261,430.787 163.231,430.26 163.192,429.715 163.143,429.155 163.088,428.587 163.028,428.013 162.964,427.431 163.609,424.392 165.938,422.337 170.05,422.437 172.152,423.46 172.675,423.754 174.017,424.622 173.587,423.572 173.28,422.471 172.967,420.489 172.926,419.282 172.958,418.914 173.148,417.924 173.244,417.605 173.707,416.539 173.864,416.269 174.606,415.296 174.823,415.074 175.725,414.347 176,414.174 176.9,413.729 177.23,413.605 178.025,413.382 178.408,413.308 179.066,413.226 179.501,413.201 180.001,413.198 180.941,413.239 180.428,413.14 179.919,413.014 177.049,412.136 176.604,411.976 173.82,410.825 173.415,410.635 170.779,409.253 170.392,409.028 167.965,407.46 167.576,407.182 165.419,405.474 165.012,405.113 163.187,403.308 162.801,402.879 162.459,402.451 " fill="none" stroke-width="0.5" stroke="rgb(0,0,0)" />
	<polygon points="326.205,414.284 325.22,414.733 315.715,417.866 314.669,418.089 309.742,418.592 309.918,418.697 311.355,420.003 312.128,421.05 312.771,422.228 313.265,423.525 313.466,424.189 313.796,425.641 313.836,425.832 314.096,427.228 314.334,428.238 314.402,428.411 315.039,428.864 315.065,428.882 315.972,429.535 316.283,429.778 317.149,430.514 317.703,431.065 318.436,431.919 319.103,432.921 319.61,433.931 320.076,435.382 320.111,435.604 321.429,433.939 321.582,433.755 322.304,432.928 322.432,432.787 323.151,432.024 323.33,431.844 324.044,431.16 324.295,430.936 325.003,430.344 325.358,430.074 326.058,429.589 326.567,429.28 327.258,428.916 327.984,428.605 328.662,428.376 329.657,428.151 330.321,428.072 331.848,428.127 332.059,428.168 331.252,427.421 330.251,426.219 329.289,424.391 328.939,423.149 328.754,421.809 328.754,413.773 328.917,412.667 " fill="none" stroke-width="0.5" stroke="rgb(0,0,0)" />
	<polygon points="242.529,409.52 242.544,409.795 242.569,410.655 242.511,411.561 241.732,416.537 241.311,417.901 239.105,422.531 238.461,423.544 235.022,427.731 234.322,428.428 229.845,432.073 229.154,432.544 224.046,435.43 226.802,434.604 232.219,432.048 236.87,428.877 240.735,425.177 243.795,421.026 246.03,416.489 247.538,411.187 248.412,409.898 247.52,409.983 246.345,409.954 245.407,409.818 244.226,409.494 243.36,409.136 242.654,408.776 242.455,408.654 " fill="none" stroke-width="0.5" stroke="rgb(0,0,0)" />
	<polygon points="255.751,392.906 255.595,393.497 255.375,394.158 255.219,394.55 255.342,394.727 255.718,395.363 256.062,396.07 256.336,396.766 256.563,397.51 256.73,398.268 256.834,398.994 256.89,399.817 256.88,400.622 256.785,401.634 256.603,402.574 256.327,403.505 255.959,404.409 255.519,405.243 254.975,406.063 254.388,406.783 253.69,407.482 253.315,407.788 254.094,407.927 256.942,409.035 257.358,409.22 260.217,410.647 260.539,410.823 263.322,412.479 263.59,412.651 266.208,414.447 266.453,414.627 268.817,416.472 269.067,416.681 271.09,418.486 271.381,418.768 272.242,419.674 272.966,419.516 273.183,419.473 274.468,419.252 274.674,419.221 276.008,419.048 276.203,419.027 277.586,418.903 277.77,418.89 279.203,418.816 279.376,418.81 280.858,418.785 281.056,418.786 283.187,418.836 283.408,418.846 285.611,418.996 285.819,419.015 288.1,419.267 288.294,419.293 290.659,419.65 290.839,419.681 293.293,420.144 293.458,420.178 296.008,420.751 296.159,420.787 297.099,421.029 297.289,420.71 297.795,420.032 298.74,419.073 299.032,418.848 291.105,418.042 290.067,417.822 279.982,414.523 279,414.078 270.394,408.985 269.557,408.362 262.456,401.806 261.806,401.074 256.236,393.388 255.802,392.653 " fill="none" stroke-width="0.5" stroke="rgb(0,0,0)" />
	<polygon points="198.179,411.193 197.279,411.746 195.601,412.544 194.824,412.836 192.896,413.383 192.267,413.518 190.134,413.832 189.629,413.88 187.336,413.98 186.78,413.974 184.983,413.85 185.646,413.948 187.072,414.094 188.976,414.201 191.074,414.236 195.622,413.4 198.286,411.548 198.991,410.565 " fill="none" stroke-width="0.5" stroke="rgb(0,0,0)" />
	<polygon points="351.316,386.957 347.708,394.431 347.252,395.194 342.199,402.131 343.417,401.764 343.996,401.627 347.936,400.942 348.508,400.877 353.015,400.625 353.47,400.62 357.263,400.757 357.657,400.787 361.128,401.191 361.591,401.268 364.683,401.929 365.25,402.087 367.906,402.996 368.622,403.306 369.547,403.797 369.189,402.948 368.741,401.178 368.98,398.04 369.648,396.456 369.261,396.669 367.962,397.159 362.766,398.323 360.577,398.317 359.427,398.053 357.745,397.318 356.668,396.583 355.732,395.753 354.753,394.634 354.242,393.935 353.385,392.518 353.083,391.933 352.374,390.304 352.18,389.777 351.642,388.021 351.513,387.495 351.379,386.791 " fill="none" stroke-width="0.5" stroke="rgb(0,0,0)" />
	<polygon points="225.995,383.419 217.727,385.85 216.768,386.032 206.952,386.903 205.971,386.893 197.774,385.988 196.729,385.757 196.648,385.729 199.074,389.004 199.447,389.589 201.284,392.974 201.59,393.656 202.732,396.821 202.974,397.785 203.366,400.471 203.385,401.753 203.264,402.812 204.958,399.262 205.325,398.621 208.146,394.451 209.286,393.257 213.241,390.307 215.245,389.418 220.93,388.299 222.265,388.221 223.31,388.301 223.883,388.379 225.132,388.624 225.59,388.736 226.965,389.145 227.4,389.297 227.412,389.302 227.256,388.811 227.139,388.378 226.921,387.39 226.82,386.722 226.738,385.703 226.738,384.895 226.826,383.828 226.967,383.015 " fill="none" stroke-width="0.5" stroke="rgb(0,0,0)" />
	<polygon points="281.339,390.31 285.814,393.536 291.15,396.072 297.29,397.733 304.299,398.34 307.766,398.197 310.885,397.785 313.487,397.169 314.494,396.797 313.985,396.431 312.137,393.86 311.882,393.028 311.741,390.708 311.756,390.623 311.196,390.845 310.95,390.935 308.194,391.863 307.824,391.972 304.612,392.781 304.158,392.873 300.45,393.445 299.948,393.497 295.706,393.714 295.107,393.708 291.594,393.462 290.922,393.368 287.532,392.656 286.873,392.47 283.712,391.332 283.04,391.032 280.959,389.911 " fill="none" stroke-width="0.5" stroke="rgb(0,0,0)" />
	<polygon points="116.562,388.482 116.432,389.668 116.49,390.223 116.485,390.107 116.589,388.917 116.756,388.002 116.868,387.605 " fill="none" stroke-width="0.5" stroke="rgb(0,0,0)" />
	<polygon points="120.122,350.609 119.441,351.184 117.657,352.435 116.912,352.866 114.993,353.763 115.017,354.131 115.046,356.485 114.961,357.459 114.549,359.648 114.265,360.611 113.449,362.603 112.975,363.49 111.789,365.252 111.157,366.013 110.965,366.203 111.645,365.945 115.675,364.825 116.554,364.665 120.805,364.28 121.794,364.29 129.47,365.137 130.55,365.381 137.634,367.841 138.62,368.311 144.979,372.257 145.806,372.901 151.306,378.208 151.945,378.961 155.857,384.638 155.356,381.748 154.703,379.035 153.704,376.695 152.271,374.478 150.351,372.375 147.88,370.399 144.8,368.586 141.065,366.984 136.479,365.597 132.787,364.593 132.535,364.517 129.583,363.543 129.21,363.403 126.97,362.459 126.422,362.187 124.801,361.252 124.046,360.718 122.949,359.775 122.096,358.825 121.429,357.855 120.801,356.584 120.47,355.568 120.244,354.442 120.154,353.361 120.21,352.106 120.515,350.347 120.588,350.136 " fill="none" stroke-width="0.5" stroke="rgb(0,0,0)" />
	<polygon points="77.1494,367.751 77.9657,369.816 79.2199,378.098 79.0021,380.462 78.619,381.566 79.3837,380.311 79.8062,379.72 82.1942,376.851 82.7064,376.321 85.2149,374.087 85.857,373.602 88.3363,372.03 89.2163,371.588 91.5166,370.707 92.6406,370.655 92.0543,370.462 91.1777,370.076 89.4605,369.111 88.675,368.564 87.1893,367.298 86.5395,366.629 85.3046,365.091 84.8775,364.448 84.4877,364.535 84.2706,364.578 83.4508,364.722 83.2407,364.754 82.3992,364.866 81.8041,364.908 79.4906,364.932 78.5074,364.845 76.3091,364.424 75.3861,364.152 74.398,363.753 " fill="none" stroke-width="0.5" stroke="rgb(0,0,0)" />
	<polygon points="248.137,360.95 245.324,366.88 244.823,367.712 240.757,373.178 240.048,373.946 238.1,375.654 239.11,375.894 240.138,376.273 241.177,376.804 242.062,377.396 242.874,378.076 243.617,378.847 244.189,379.563 244.398,379.882 244.693,379.854 245.26,379.829 245.975,379.849 247.221,379.974 248.241,380.187 249.347,380.542 250.315,380.973 250.922,381.325 249.03,374.342 248.877,373.489 248.062,364.402 248.068,363.462 248.391,360.257 " fill="none" stroke-width="0.5" stroke="rgb(0,0,0)" />
	<polygon points="101.012,371.399 100.186,371.508 97.8899,371.617 97.0135,371.581 95.9228,371.439 97.1979,372.296 98.1858,376.04 98.0277,377.131 99.0031,375.467 99.601,374.652 102.328,371.635 103.042,370.985 103.103,370.94 " fill="none" stroke-width="0.5" stroke="rgb(0,0,0)" />
	<polygon points="354.071,361.7 353.434,362.465 351.24,364.614 350.684,365.051 352.873,365.851 354.582,368.445 354.726,370.24 354.113,376.185 354.633,375.754 355.589,375.109 356.242,374.737 357.489,374.147 358.002,373.939 359.57,373.402 359.957,373.287 361.702,372.844 368.1,370.717 366.884,370.608 365.964,370.436 363.828,369.823 362.922,369.464 361.047,368.495 360.212,367.952 358.621,366.67 357.909,365.967 356.628,364.415 356.075,363.588 355.129,361.81 354.756,360.901 354.712,360.753 " fill="none" stroke-width="0.5" stroke="rgb(0,0,0)" />
	<polygon points="166.415,360.664 166.546,361.017 167.722,364.604 167.784,364.809 168.772,368.328 168.788,368.388 169.645,371.594 170.397,374.153 170.968,375.606 171.039,375.709 171.051,375.713 171.333,375.798 171.679,375.873 172.059,375.928 172.439,375.96 172.821,375.971 173.319,375.965 173.86,375.947 174.409,375.921 174.966,375.889 175.521,375.856 175.545,375.855 176.08,375.826 176.148,375.823 176.653,375.802 176.773,375.799 177.247,375.791 178.001,375.836 178.025,375.84 175.256,373.427 174.649,372.794 170.023,367.031 169.542,366.311 166.312,360.415 " fill="none" stroke-width="0.5" stroke="rgb(0,0,0)" />
	<polygon points="323.569,364.186 323.23,365.054 322.515,366.475 322.006,367.282 321.04,368.528 320.366,369.24 319.171,370.274 318.346,370.852 317.382,371.39 320.556,371.593 323.561,371.523 327.182,371.288 331.088,370.867 335.047,370.243 338.821,369.407 340.35,368.933 339.126,369.063 338.171,369.072 334.95,368.791 334.043,368.625 331.102,367.799 330.181,367.438 327.565,366.097 326.697,365.529 324.452,363.701 323.873,363.116 " fill="none" stroke-width="0.5" stroke="rgb(0,0,0)" />
	<polygon points="299.718,351.549 297.673,353.959 294.486,355.877 293.424,356.356 288.919,357.778 288.849,357.8 283.986,359.257 279.71,361.156 276.444,363.81 274.172,367.838 273.756,370.682 273.852,370.578 274.742,369.818 275.041,369.619 276.123,369.075 276.462,368.954 277.591,368.695 277.966,368.654 278.578,368.643 278.645,367.988 278.712,367.538 278.951,366.314 279.134,365.636 279.529,364.502 280.009,363.5 280.598,362.56 281.75,361.285 282.572,360.644 284.567,359.711 285.661,359.474 288.431,359.671 289.847,360.197 291.074,360.862 292.942,362.248 293.051,362.331 295.414,364.187 298.337,366.18 300.804,367.478 300.306,366.687 299.633,365.356 299.295,364.495 298.876,363.042 298.705,362.133 298.56,360.596 298.544,359.9 298.597,358.793 298.631,358.404 298.769,357.314 298.81,357.05 299.006,355.976 299.033,355.836 299.257,354.779 299.261,354.763 299.473,353.779 299.633,352.938 299.726,352.264 299.755,351.709 299.747,351.5 299.745,351.483 " fill="none" stroke-width="0.5" stroke="rgb(0,0,0)" />
	<polygon points="156.9,222.965 156.806,223.131 155.607,225.166 154.564,226.981 153.828,228.491 153.497,229.49 154.051,229.727 155.724,233.649 155.663,235.076 155.649,235.297 155.49,237.119 155.48,237.222 155.255,239.294 155.25,239.342 154.992,241.519 154.991,241.53 154.735,243.652 154.516,245.546 154.372,247.01 154.329,247.831 154.366,249.006 154.41,249.383 156.599,250.844 157.458,252.528 157.923,254.153 158.017,254.537 158.382,256.348 158.424,256.587 158.716,258.515 158.734,258.648 158.978,260.626 158.984,260.672 159.205,262.61 159.423,264.39 159.651,265.886 159.74,266.301 161.626,267.042 163.068,269.037 163.61,270.415 164.179,271.853 164.772,273.264 165.395,274.595 166.043,275.787 166.696,276.78 167.316,277.521 168.19,278.293 168.436,278.505 168.785,278.838 169.055,279.122 169.335,279.443 169.597,279.771 169.845,280.11 170.088,280.473 170.322,280.861 170.533,281.248 170.759,281.722 170.925,282.123 171.131,282.732 171.239,283.137 171.385,283.937 171.423,284.336 171.373,285.669 171.165,286.859 170.739,288.175 170.165,289.352 169.635,290.207 168.771,291.327 168.248,291.904 167.169,292.922 166.65,293.349 165.432,294.219 164.867,294.568 163.585,295.245 162.891,295.547 161.621,295.986 160.651,296.216 159.468,296.372 158.408,296.398 158.052,296.368 157.217,296.226 156.81,296.12 155.979,295.823 155.532,295.616 154.783,295.187 154.304,294.854 153.69,294.349 153.19,293.865 152.722,293.345 152.209,292.685 151.872,292.193 151.355,291.332 151.119,290.889 150.757,290.117 150.468,289.675 149.659,288.825 148.254,287.538 146.57,286.056 146.513,286.006 144.819,284.469 144.698,284.353 150.65,292.891 150.738,293.021 156.474,301.833 156.752,302.317 160.81,310.419 161.227,311.615 162.766,318.921 162.853,320.379 162.601,323.22 162.453,324.056 161.703,326.871 161.414,327.671 160.177,330.352 159.731,331.125 158.017,333.562 157.389,334.292 155.208,336.376 154.383,337.013 151.746,338.637 150.752,339.106 147.67,340.16 146.594,340.398 145.473,340.518 148.035,341.187 148.69,341.409 151.281,342.49 151.941,342.825 154.401,344.316 154.992,344.736 157.341,346.682 157.82,347.135 160.079,349.581 160.437,350.016 162.626,353.006 162.95,353.509 164.723,356.671 164.978,357.196 165.471,358.387 163.583,352.645 163.367,351.658 162.624,345.136 162.595,344.414 162.654,342.63 162.676,342.292 162.855,340.528 162.91,340.14 163.216,338.462 163.33,337.979 163.769,336.456 164.001,335.817 164.58,334.515 165.075,333.647 165.799,332.634 166.855,331.553 167.731,330.895 169.609,330.026 170.643,329.792 172.246,329.696 173.154,329.789 173.877,329.948 173.124,329.177 172.536,328.447 168.971,323.05 168.485,322.11 166.186,316.176 165.892,315.019 165.077,308.685 165.043,307.789 165.212,304.631 165.268,304.106 165.761,301.059 165.871,300.55 166.666,297.626 166.825,297.141 167.902,294.352 168.104,293.898 169.443,291.257 169.682,290.837 171.262,288.354 171.533,287.97 173.333,285.659 173.631,285.311 175.631,283.182 177.87,281.967 175.863,280.604 175.361,280.214 171.247,276.57 170.465,275.69 167.554,271.504 166.793,269.782 165.689,264.957 165.757,262.486 166.899,258.513 167.843,256.723 170.853,253.087 171.547,252.4 175.802,248.948 176.078,248.74 180.922,245.343 185.558,241.974 189.21,238.695 191.343,235.683 192.105,232.453 192.102,232.383 192.017,231.634 191.863,230.74 191.644,229.76 191.363,228.749 191.03,227.752 190.656,226.818 190.171,225.812 189.911,223.809 189.961,224.547 189.933,225.5 189.446,229.373 189.136,230.581 187.788,233.975 187.266,234.954 185.231,237.914 184.666,238.596 182.115,241.167 181.619,241.604 178.723,243.832 178.34,244.099 175.272,246.028 175.01,246.182 171.942,247.857 171.807,247.929 168.91,249.396 165.839,249.86 163.096,248.402 161.761,245.597 161.831,243.951 162.075,242.807 162.288,241.7 162.477,240.592 162.637,239.482 162.767,238.37 162.864,237.257 162.923,236.141 162.943,235.095 162.84,232.998 162.516,230.96 161.927,228.9 161.016,226.792 159.709,224.606 157.921,222.329 157.481,221.887 " fill="none" stroke-width="0.5" stroke="rgb(0,0,0)" />
	<polygon points="386.016,306.919 384.932,308.13 383.811,309.717 382.748,311.572 381.813,313.588 381.115,315.5 380.868,316.778 380.656,319.087 380.48,322.068 380.292,325.253 380.282,325.392 380.02,328.397 379.977,328.749 379.573,331.271 379.353,332.137 378.74,333.872 377.171,335.974 378.809,337.145 379.514,337.757 382,340.367 382.618,341.164 384.448,344.102 384.914,345.071 386.044,348.271 386.294,349.359 386.681,352.756 386.693,353.758 386.491,356.004 389.531,352.491 390.095,351.935 394.707,348.071 395.894,347.334 401.887,344.7 401.188,344.227 400.059,343.139 399.685,342.736 398.408,341.198 398.296,341.058 396.946,339.306 395.654,337.65 395.513,337.486 394.813,338.092 393.603,339.144 393.455,339.269 392.306,340.192 391.871,340.504 390.85,341.157 389.591,341.732 388.756,341.98 386.734,342.145 386.547,342.122 385.352,341.818 385.183,341.752 384.172,341.212 384.023,341.109 383.245,340.44 383.119,340.307 382.555,339.586 382.453,339.428 382.063,338.692 381.988,338.517 381.736,337.763 381.69,337.576 381.562,336.793 381.546,336.6 381.591,335.41 381.869,333.674 382.072,332.859 382.805,330.711 382.918,330.413 383.954,327.913 383.972,327.87 385.134,325.142 386.242,322.325 387.159,319.504 387.768,316.768 387.997,314.013 387.971,312.598 387.858,310.788 387.631,308.952 387.28,307.314 386.884,306.199 " fill="none" stroke-width="0.5" stroke="rgb(0,0,0)" />
	<polygon points="55.4458,335.761 56.312,342.863 59.9362,348.691 64.8889,353.592 64.8363,353.437 64.3401,351.275 64.2149,350.218 64.1896,347.756 64.3009,346.66 64.7923,344.385 65.1192,343.393 66.0477,341.336 66.5271,340.502 67.813,338.696 68.3905,338.023 66.3944,337.777 65.96,337.704 63.0897,337.088 62.4219,336.895 59.9532,335.989 59.1146,335.588 56.9738,334.305 56.1566,333.692 56.1224,333.66 " fill="none" stroke-width="0.5" stroke="rgb(0,0,0)" />
	<polygon points="323.052,321.931 321.171,324.374 319.87,325.26 318.815,325.764 318.926,325.866 319.666,326.722 320.273,327.613 320.83,328.697 321.158,329.593 321.43,330.742 321.528,331.616 321.525,332.754 321.368,334.076 321.041,335.35 320.599,336.442 319.916,337.626 319.232,338.504 318.351,339.381 317.467,340.063 316.593,340.603 315.554,341.104 314.795,341.396 313.643,341.734 313.013,341.875 311.791,342.065 311.266,342.118 310.016,342.178 309.66,342.182 308.729,342.16 308.545,342.152 307.717,342.101 310.564,342.814 311.366,343.09 314.261,344.372 315.032,344.799 317.494,346.467 318.211,347.057 318.369,347.214 318.562,345.041 318.671,344.359 319.32,341.566 319.436,341.151 320.354,338.337 320.42,338.146 321.471,335.32 322.486,332.583 323.305,330.05 323.829,327.759 324.019,325.582 323.996,324.976 323.912,324.271 323.77,323.582 323.563,322.897 323.282,322.202 323.089,321.827 " fill="none" stroke-width="0.5" stroke="rgb(0,0,0)" />
	<polygon points="123.586,321.44 122.813,322.016 120.884,323.179 119.952,323.616 117.818,324.357 117.296,324.475 117.396,324.53 119.183,325.756 119.895,326.35 121.439,327.904 122.025,328.616 123.27,330.455 123.721,331.28 124.613,333.359 124.906,334.283 125.389,336.558 125.496,337.632 125.476,339.87 125.373,340.829 124.936,342.936 124.648,343.859 124.409,344.423 124.721,344.153 126.415,342.961 127.1,342.558 129.081,341.595 129.705,341.343 131.884,340.63 132.483,340.475 134.772,340.033 135.386,339.954 136.746,339.864 135.242,339.379 134.284,338.953 131.976,337.618 131.158,337.026 129.252,335.325 128.605,334.625 127.109,332.654 126.629,331.886 125.55,329.741 125.223,328.913 124.57,326.692 124.394,325.787 124.174,323.586 124.167,322.685 124.304,321.032 124.35,320.746 " fill="none" stroke-width="0.5" stroke="rgb(0,0,0)" />
	<polygon points="300.459,341.698 299.929,341.753 300.184,342.233 300.525,341.936 302.165,341.674 301.595,341.662 " fill="none" stroke-width="0.5" stroke="rgb(0,0,0)" />
	<polygon points="188.713,340.91 189.351,341.158 187.318,340.162 " fill="none" stroke-width="0.5" stroke="rgb(0,0,0)" />
	<polygon points="219.042,340.738 219.403,340.521 220.29,339.717 220.432,339.496 220.368,339.255 219.655,338.43 219.606,338.395 " fill="none" stroke-width="0.5" stroke="rgb(0,0,0)" />
	<polygon points="355.868,333.69 356.427,332.443 355.782,332.27 355.663,332.229 355.011,331.944 " fill="none" stroke-width="0.5" stroke="rgb(0,0,0)" />
	<polygon points="204.212,318.038 203.798,321.261 204,323.536 204.604,325.722 205.568,327.704 206.872,329.464 208.504,330.979 210.458,332.219 210.707,332.32 208.465,330.226 207.597,329.152 205.756,326.077 205.129,324.397 204.43,320.452 204.368,319.223 204.458,318.012 204.536,317.433 204.678,316.701 " fill="none" stroke-width="0.5" stroke="rgb(0,0,0)" />
	<polygon points="364.987,329.526 363.563,330.379 363.455,330.442 363,330.7 365.639,331.063 366.361,331.217 366.536,331.269 366.502,331.156 366.424,330.87 366,329.094 365.963,328.953 " fill="none" stroke-width="0.5" stroke="rgb(0,0,0)" />
	<polygon points="74.4129,306.97 72.834,311.354 71.8525,315.117 71.5184,318.212 71.5537,319.465 71.6973,320.826 71.9716,322.12 72.4176,323.416 73.1018,324.788 74.1134,326.298 75.4486,327.861 75.5734,327.403 76.3342,325.378 76.75,324.529 77.8543,322.731 78.4317,321.968 79.8494,320.429 80.5629,319.791 82.2639,318.544 83.0762,318.06 85.0305,317.137 85.8976,316.822 88.075,316.255 88.9968,316.106 91.4306,315.946 92.4368,315.982 94.6839,316.294 95.6613,316.533 97.7035,317.259 98.5753,317.668 100.395,318.749 101.122,319.277 102.7,320.656 103.28,321.256 104.599,322.874 104.738,323.075 105.266,322.919 105.585,322.837 105.936,322.758 104.933,322.141 104.066,321.466 102.711,320.142 102.069,319.374 101.057,317.878 100.626,317.096 99.9339,315.521 99.6685,314.749 99.2714,313.186 99.1377,312.396 99.0752,311.678 97.2835,312.71 96.2781,313.149 93.7636,313.928 92.769,314.127 90.0813,314.384 89.1333,314.383 87.3753,314.213 86.448,314.033 84.7443,313.529 83.8679,313.175 82.2739,312.347 81.4665,311.823 80.0375,310.682 79.3304,309.991 78.1217,308.547 77.5569,307.713 76.6239,305.976 76.2407,305.048 75.827,303.661 " fill="none" stroke-width="0.5" stroke="rgb(0,0,0)" />
	<polygon points="371.94,283.763 374.126,286.472 374.876,287.756 375.693,289.816 375.376,294.12 374.509,295.617 372.839,297.342 370.506,298.792 369.726,299.186 366.326,300.543 365.908,300.688 361.839,301.904 361.562,301.977 357.222,303.005 356.997,303.053 352.785,303.845 352.549,303.884 348.864,304.394 348.509,304.43 345.75,304.61 344.979,304.601 344.386,304.547 343.359,304.342 343.324,304.331 343.456,305.009 343.531,306.357 343.43,307.602 343.258,308.554 342.944,309.66 342.487,310.75 341.944,311.708 341.166,312.738 340.377,313.54 339.416,314.3 338.364,314.938 337.433,315.377 337.229,315.449 339.9,316.674 340.623,317.083 345.483,320.396 346.136,320.928 350.154,324.814 350.711,325.455 352.062,327.307 352.118,326.033 352.336,325.047 352.637,324.127 353.211,322.816 353.382,322.466 354.195,320.95 354.278,320.801 355.21,319.199 355.232,319.161 355.361,318.944 355.086,318.875 352.994,318.379 352.783,318.324 350.935,317.798 350.237,317.542 348.93,316.947 346.919,315.27 346.423,314.558 345.537,311.581 345.985,309.666 346.189,309.222 347.794,307.27 348.366,306.858 349.29,306.332 350.174,305.949 350.663,305.766 351.801,305.41 352.086,305.329 353.42,304.997 353.597,304.957 355.071,304.647 355.182,304.624 356.738,304.334 356.804,304.322 358.242,304.075 361.365,303.347 364.602,302.253 367.821,300.809 370.771,299.081 373.215,297.172 374.952,295.235 375.906,293.451 376.22,291.678 375.952,289.491 375.185,287.526 373.94,285.694 372.202,283.918 371.762,283.568 " fill="none" stroke-width="0.5" stroke="rgb(0,0,0)" />
	<polygon points="420.735,322.201 420.759,322.249 420.789,322.191 " fill="none" stroke-width="0.5" stroke="rgb(0,0,0)" />
	<polygon points="126.045,287.755 126.104,287.93 128.063,294.146 128.169,294.538 129.554,300.646 129.658,301.307 130.184,307.278 130.18,308.187 129.95,310.569 129.816,311.265 129.851,311.238 131.248,310.51 131.727,310.351 133.761,310.121 133.941,310.138 135.203,310.429 135.352,310.485 136.786,311.318 136.907,311.419 137.941,312.606 138.035,312.758 138.527,313.802 138.597,314.011 138.78,314.733 138.828,315.005 138.886,315.466 138.913,315.808 138.927,316.097 138.932,316.329 138.962,316.643 138.994,316.754 139.06,316.889 139.142,317 139.227,317.078 139.335,317.141 139.536,317.206 139.953,317.247 140.329,317.213 140.587,317.139 140.743,317.057 140.844,316.975 140.922,316.879 140.991,316.747 141.046,316.559 140.06,311.943 137.068,305.735 132.464,298.02 127.055,289.148 126.946,288.96 125.61,286.533 " fill="none" stroke-width="0.5" stroke="rgb(0,0,0)" />
	<polygon points="400.563,302.681 401.161,304.554 402.186,306.608 403.59,308.719 405.295,310.774 407.205,312.674 409.216,314.332 411.357,315.767 412.355,316.377 413.5,317.011 413.917,317.232 413.682,316.845 413.594,316.695 411.788,313.48 409.63,309.979 407.15,306.69 404.442,304.078 401.661,302.468 400.513,302.251 " fill="none" stroke-width="0.5" stroke="rgb(0,0,0)" />
	<polygon points="438.406,309.34 438.267,309.489 437.308,310.287 437.12,310.407 436.269,310.841 436.031,310.935 435.377,311.141 435.09,311.21 434.613,311.3 434.277,311.347 433.935,311.383 433.55,311.409 433.305,311.42 432.871,311.428 432.632,311.427 431.862,311.405 431.661,311.395 430.815,311.335 430.703,311.326 429.8,311.243 429.754,311.238 428.819,311.143 427.898,311.05 427.036,310.974 426.845,310.962 426.813,312.773 426.808,312.933 426.718,314.735 426.671,315.211 426.529,316.166 428.245,315.242 429.155,314.863 431.312,314.208 432.27,314.017 434.574,313.793 435.233,313.772 437.275,313.846 437.661,313.875 438.576,313.98 438.503,312.499 438.513,311.866 438.708,309.407 438.816,308.747 " fill="none" stroke-width="0.5" stroke="rgb(0,0,0)" />
	<polygon points="311.827,302.487 311.161,303.023 306.571,306.106 305.669,306.586 301.408,308.311 304.217,308.027 304.925,308.006 307.738,308.125 308.164,308.161 310.803,308.503 311.257,308.583 313.66,309.125 314.173,309.27 316.278,309.991 316.897,310.25 317.704,310.656 317.661,310.611 316.342,308.936 315.721,307.913 314.848,305.981 314.46,304.654 314.144,302.48 314.126,301.186 314.247,300.166 " fill="none" stroke-width="0.5" stroke="rgb(0,0,0)" />
	<polygon points="434.877,288.896 434.622,289.726 434.137,290.816 433.464,291.939 433.246,292.272 432.294,293.604 432.229,293.693 431.159,295.123 430.161,296.493 430.041,296.676 430.222,296.797 432.002,297.805 433.927,298.844 434.042,298.908 435.748,299.888 436.212,300.192 437.397,301.062 438.794,302.649 439.201,303.384 439.63,305.647 439.697,305.453 440.653,303.292 440.986,302.698 439.819,301.976 438.874,300.228 436.91,293.729 434.964,288.086 " fill="none" stroke-width="0.5" stroke="rgb(0,0,0)" />
	<polygon points="108.017,291.993 108.006,292.318 107.73,296.525 107.625,297.263 106.832,300.864 106.676,301.359 108.095,301.466 108.378,301.624 110.286,303.525 110.52,303.941 110.663,304.232 110.829,303.644 110.983,302.545 111.039,301.146 110.717,296.453 109.863,291.982 108.605,287.499 108.017,285.699 " fill="none" stroke-width="0.5" stroke="rgb(0,0,0)" />
	<polygon points="458.415,286.73 457.121,287.328 455.799,288.423 454.378,290.139 452.892,292.437 451.456,294.982 452.094,294.846 454.802,294.57 456.091,294.608 459.279,295.122 460.69,295.573 462.684,296.562 462.51,294.996 462.537,294.868 462.541,294.84 462.551,294.741 462.561,294.576 462.57,294.351 462.575,294.073 462.577,293.747 462.577,293.499 462.501,291.947 462.281,290.446 461.916,289.035 461.442,287.869 460.95,287.079 460.568,286.698 460.337,286.575 459.955,286.514 " fill="none" stroke-width="0.5" stroke="rgb(0,0,0)" />
	<polygon points="337.424,293.935 338.742,295.74 338.939,295.152 339.276,294.405 339.432,294.088 339.907,293.207 338.879,293.136 336.887,293.096 " fill="none" stroke-width="0.5" stroke="rgb(0,0,0)" />
	<polygon points="53.9648,274.103 53.6961,275.348 53.6832,276.746 53.9936,278.22 54.8244,279.996 55.1579,280.523 55.6303,281.252 55.6629,281.303 56.108,282.008 56.2095,282.177 56.601,282.856 56.7654,283.166 57.0911,283.836 57.2901,284.306 57.5379,284.987 57.7185,285.607 57.8761,286.316 57.9807,287.029 58.0359,287.786 57.9893,288.913 57.6482,291.089 57.429,291.96 56.531,294.521 58.9284,291.03 61.4504,286.387 62.2715,282.812 62.2226,282.482 62.1458,282.192 62.0409,281.928 61.8926,281.655 61.6746,281.346 61.3561,280.986 60.7491,280.424 60.7375,280.414 58.8155,278.623 58.5223,278.326 57.0083,276.656 56.8256,276.442 55.6028,274.929 55.5768,274.896 54.6307,273.705 54.2986,273.34 " fill="none" stroke-width="0.5" stroke="rgb(0,0,0)" />
	<polygon points="89.1709,276.818 89.1051,276.955 86.1915,282.832 86.1494,282.915 83.7942,287.45 82.158,290.608 83.184,290.577 83.7,290.734 85.3369,291.594 85.8585,292.009 86.3387,292.445 86.9037,293.03 87.4038,293.547 87.7241,293.826 87.8897,293.929 87.9832,293.964 88.1562,293.983 89.217,293.838 89.5399,293.664 89.8949,293.234 90.4467,291.891 90.951,289.439 91.2809,285.978 91.4374,281.617 91.4744,276.405 91.4813,276.175 91.7483,271.188 " fill="none" stroke-width="0.5" stroke="rgb(0,0,0)" />
	<polygon points="420.337,263.593 419.881,264.929 419.733,265.312 419.088,266.787 419.013,266.951 418.275,268.487 418.265,268.506 418.113,268.819 419.802,269.192 420.024,269.246 421.648,269.684 422.334,269.924 423.483,270.424 425.505,272.042 425.941,272.638 426.895,275.595 426.308,277.898 425.841,278.769 423.815,280.794 422.541,281.476 421.589,281.865 419.698,282.416 419.311,282.512 416.993,282.989 416.873,283.012 414.346,283.467 411.891,283.94 409.793,284.451 408.122,285.045 406.753,285.681 405.557,286.346 404.634,286.977 403.991,287.535 403.81,287.746 403.992,287.777 405.243,287.875 406.658,287.904 410.367,287.666 413.701,287.052 416.772,286.165 419.565,285.122 422.072,284.036 424.247,283.048 424.421,282.973 426.161,282.261 426.982,282.005 428.223,281.735 429.69,281.639 429.877,281.655 430.76,281.811 430.929,281.857 431.847,282.207 431.996,282.281 432.875,282.844 432.9,282.864 432.437,281.708 429.841,276.23 426.966,271.178 423.787,266.598 420.527,262.819 " fill="none" stroke-width="0.5" stroke="rgb(0,0,0)" />
	<polygon points="391.385,268.813 391.384,268.817 390.789,271.319 390.298,273.653 389.976,275.773 389.861,277.705 389.91,278.889 390.065,280.058 390.309,281.054 390.591,281.768 390.623,281.819 390.657,281.786 391.174,281.04 391.702,279.94 392.142,278.574 392.434,277.031 392.544,275.284 392.497,273.037 392.369,270.818 392.184,268.732 391.969,266.784 391.934,266.497 " fill="none" stroke-width="0.5" stroke="rgb(0,0,0)" />
	<polygon points="341.848,270.978 339.046,272.545 337.791,273.897 337.337,275.687 337.392,276.111 337.549,276.461 337.795,276.747 338.293,277.093 339.103,277.445 340.154,277.724 341.32,277.89 342.328,277.935 342.307,277.691 342.247,277.086 342.183,276.47 342.179,276.433 342.123,275.843 342.114,275.733 342.074,275.188 342.063,274.98 342.048,274.49 342.067,273.879 342.091,273.617 342.257,272.727 342.329,272.474 342.653,271.63 342.77,271.393 343.258,270.602 343.418,270.389 343.454,270.351 " fill="none" stroke-width="0.5" stroke="rgb(0,0,0)" />
	<polygon points="133.179,217.052 129.034,218.364 125.337,220.031 126.689,219.596 129.631,220.593 131.399,223.148 131.053,226.808 129.912,229.029 129.066,231.171 128.382,233.43 127.856,235.74 127.477,238.032 127.229,240.239 127.095,242.291 127.062,243.827 128.47,253.919 132.208,263.836 137.678,273.762 140.401,277.888 140.197,275.454 140.884,274.113 140.875,274.109 140.9,274.041 140.787,273.401 140.287,272.279 139.258,270.565 137.899,268.477 137.828,268.366 136.419,266.07 136.215,265.705 134.986,263.262 134.712,262.603 133.842,259.995 133.622,259.011 133.292,256.223 133.913,253.18 134.956,252.153 134.869,251.347 134.466,249.678 133.798,247.516 132.98,245.058 132.968,245.022 132.133,242.448 132.081,242.277 131.352,239.719 131.267,239.378 130.752,236.92 130.665,236.327 130.469,234.05 131.188,231.028 133.566,229.029 133.714,228.999 133.795,227.977 133.816,227.77 134.117,225.302 134.157,225.032 134.617,222.454 134.69,222.114 135.347,219.501 135.473,219.083 136.368,216.511 136.403,216.425 " fill="none" stroke-width="0.5" stroke="rgb(0,0,0)" />
	<polygon points="350.781,267.564 350.361,267.742 349.284,268.141 349.82,268.193 351.903,268.817 352.849,269.212 353.312,269.464 353.267,269.316 353.39,266.314 " fill="none" stroke-width="0.5" stroke="rgb(0,0,0)" />
	<polygon points="360.076,244.561 358.288,246.036 357.502,246.566 355.452,247.68 354.56,248.057 352.297,248.762 351.774,248.869 352.493,249.146 354.945,249.749 358.077,250.01 360.935,251.225 362.507,253.905 362.119,257.106 360.375,260.694 359.529,261.765 359.808,261.725 360.787,261.623 361.035,261.604 362.018,261.552 362.175,261.546 363.084,261.527 363.171,261.526 363.908,261.523 364.061,261.521 364.045,261.288 364.044,261.274 363.979,260.292 363.977,260.246 363.92,259.25 363.916,259.171 363.877,258.186 363.873,258.065 363.858,257.118 363.858,256.972 363.867,256.334 363.872,256.159 363.901,255.567 363.92,255.315 363.974,254.78 364.025,254.409 364.108,253.943 364.243,253.376 364.359,252.993 364.726,252.103 364.88,251.814 365.874,250.518 366.069,250.336 366.493,250.102 366.447,250.088 365.565,249.721 364.447,249.123 363.658,248.598 362.669,247.793 361.989,247.122 361.162,246.129 360.616,245.325 360.157,244.48 " fill="none" stroke-width="0.5" stroke="rgb(0,0,0)" />
	<polygon points="443.863,248.648 444.75,250.967 445.927,253.885 445.929,253.89 447.282,257.254 447.308,257.319 448.586,260.63 449.541,258.828 449.603,258.715 451.285,255.733 451.33,255.656 452.509,253.651 451.576,253.179 451.406,253.089 447.951,251.171 447.66,250.996 444.183,248.741 443.792,248.458 " fill="none" stroke-width="0.5" stroke="rgb(0,0,0)" />
	<polygon points="382.004,240.945 381.821,241.892 381.431,243.206 381.054,244.125 380.435,245.288 379.874,246.123 379.05,247.116 378.335,247.817 377.33,248.622 376.503,249.158 375.342,249.756 374.447,250.112 373.639,250.345 374.004,250.561 375.094,251.53 375.638,252.099 376.757,253.469 376.961,253.738 378.074,255.309 378.123,255.38 378.487,255.913 378.848,255.537 380.064,254.259 380.253,254.07 381.441,252.951 381.99,252.503 383.116,251.711 384.588,251.005 385.627,250.705 387.424,250.528 387.725,250.554 388.806,250.77 389.061,250.851 390.333,251.469 390.544,251.611 391.631,252.614 391.799,252.824 392.449,253.884 392.577,254.168 392.872,255.023 392.961,255.386 392.985,255.52 393.085,255.392 393.265,255.208 394.198,254.46 394.405,254.331 395.474,253.833 395.706,253.758 396.759,253.536 397.011,253.511 399.233,253.802 400.21,254.167 401.754,255.096 402.72,255.95 403.274,256.527 404.236,257.705 404.416,257.939 405.37,259.26 406.051,260.19 406.446,259.926 407.648,258.999 408.924,257.971 409.02,257.896 410.229,256.971 410.619,256.702 411.474,256.169 407.443,254.622 402.05,253.108 396.661,251.603 396.183,251.443 391.37,249.552 390.329,248.991 386.452,246.259 385.137,244.887 382.55,240.857 382.118,239.729 " fill="none" stroke-width="0.5" stroke="rgb(0,0,0)" />
	<polygon points="314.372,222.432 312.681,223.36 311.794,223.739 309.935,224.327 308.953,224.531 306.971,224.736 306.151,224.737 306.273,224.944 307.444,228.567 308.979,230.293 311.584,231.843 315.185,233.407 315.368,233.491 319.167,235.328 320.056,235.881 323.321,238.426 324.524,239.786 326.809,243.601 327.456,245.398 327.618,246.462 328.008,246.075 328.87,245.393 329.987,244.695 330.83,244.273 331.999,243.823 332.76,243.598 333.908,243.357 334.591,243.262 335.485,243.201 334.582,242.107 334.051,241.321 332.937,239.273 332.559,238.38 331.855,236.12 331.656,235.147 331.41,232.723 331.41,232.586 331.073,232.729 329.761,233.137 328.79,233.335 327.384,233.477 326.383,233.477 324.988,233.335 324.012,233.134 322.709,232.726 321.817,232.347 320.635,231.702 319.851,231.171 318.818,230.317 318.156,229.654 317.302,228.619 316.772,227.835 316.126,226.649 315.749,225.757 315.34,224.448 315.141,223.473 314.998,222.069 314.998,222.008 " fill="none" stroke-width="0.5" stroke="rgb(0,0,0)" />
	<polygon points="103.002,231.925 103.063,232.489 103.134,233.9 103.118,234.62 102.727,238.716 102.637,239.294 102.235,241.15 102.727,240.345 103.112,239.802 106.558,235.569 104.035,234.033 102.966,231.711 " fill="none" stroke-width="0.5" stroke="rgb(0,0,0)" />
	<polygon points="409.735,231.956 412.418,235.576 414.87,237.924 418.462,240.818 418.47,240.824 418.659,240.978 415.74,237.56 409.746,230.699 409.595,230.516 407.999,228.502 " fill="none" stroke-width="0.5" stroke="rgb(0,0,0)" />
	<polygon points="463.303,212.14 463.361,212.842 463.377,213.144 463.395,213.947 463.389,214.306 463.262,216.827 463.232,217.171 462.896,219.952 462.868,220.148 462.392,223.089 462.376,223.184 461.83,226.185 461.828,226.196 461.289,229.12 460.835,231.812 460.533,234.119 460.435,235.844 460.522,236.97 460.764,238.04 461.136,239.036 461.445,239.61 462.375,238.571 463.912,236.367 465.37,233.699 466.567,230.752 467.356,227.71 467.631,224.756 467.044,219.496 465.54,215.382 463.373,212.131 463.291,212.052 " fill="none" stroke-width="0.5" stroke="rgb(0,0,0)" />
	<polygon points="380.567,195.853 380.416,197.325 380.215,198.304 379.783,199.679 379.404,200.571 378.722,201.818 378.192,202.6 377.29,203.689 376.629,204.35 375.539,205.25 375.249,205.446 375.258,205.45 376.654,206.206 377.444,206.738 378.66,207.74 379.329,208.409 380.331,209.623 380.865,210.413 381.621,211.807 381.998,212.702 382.476,214.242 382.674,215.213 382.84,216.868 382.841,217.858 382.674,219.518 382.478,220.487 382,222.032 381.623,222.926 380.867,224.323 380.334,225.114 379.331,226.33 378.662,227 377.446,228.003 376.655,228.536 375.864,228.965 376.528,229.311 377.317,229.824 378.322,230.621 379.002,231.276 379.826,232.238 380.378,233.025 380.997,234.122 381.065,234.277 380.889,233.195 380.837,232.053 380.972,230.125 381.031,229.635 381.389,227.552 381.443,227.28 381.948,225.083 381.976,224.969 382.553,222.707 383.112,220.484 383.57,218.404 383.867,216.535 383.974,214.83 383.966,214.467 383.934,214.061 383.885,213.719 383.825,213.441 383.759,213.224 383.693,213.063 383.63,212.943 383.413,212.621 382.575,209.63 383.683,206.728 386.303,205.058 389.684,205.405 394.991,207.986 395.969,208.613 399.602,211.598 400.469,212.52 402.203,214.916 402.913,213.511 407.143,212.122 413.876,213.134 414.433,213.251 419.891,214.728 420.762,215.054 425.207,217.215 426.203,217.857 429.896,220.921 430.666,221.722 433.87,225.908 434.298,226.57 434.37,226.705 434.654,225.707 436.399,221.647 436.873,220.79 439.396,217.136 439.866,216.554 442.851,213.385 443.289,212.973 446.42,210.37 446.854,210.047 449.815,208.089 450.338,207.787 452.814,206.554 453.793,206.189 454.032,206.128 452.695,205.745 451.437,205.598 450.605,205.737 448.719,206.416 445.873,207.601 445.782,207.637 442.194,209.048 441.923,209.145 437.613,210.556 437.23,210.664 432.109,211.895 431.66,211.981 425.638,212.852 425.163,212.897 418.149,213.227 417.289,213.193 404.524,211.562 403.191,211.197 392.904,206.76 391.737,206.052 383.689,199.49 382.867,198.637 380.567,195.591 " fill="none" stroke-width="0.5" stroke="rgb(0,0,0)" />
	<polygon points="49.9829,224.454 47.2939,225.748 46.8559,225.934 44.3284,226.863 43.7643,227.033 41.4552,227.582 42.164,227.721 42.6123,227.858 43.7235,228.356 44.086,228.576 45.0855,229.374 45.3684,229.668 46.0814,230.61 46.2908,230.97 46.7001,231.867 46.842,232.284 47.0338,233.036 47.1145,233.502 47.1191,233.543 47.3429,232.436 47.4504,232.005 49.1828,226.183 49.6174,225.16 50.0308,224.428 " fill="none" stroke-width="0.5" stroke="rgb(0,0,0)" />
	<polygon points="85.5213,211.099 83.968,212.758 83.403,213.133 82.9627,213.394 82.316,213.733 82.2023,213.786 82.2071,213.787 82.8894,214.076 84.0167,214.74 84.5882,215.189 85.4059,216.001 85.8687,216.583 86.3912,217.389 86.7475,218.077 87.0553,218.811 87.3071,219.579 87.4735,220.234 87.623,221.055 87.6947,221.654 87.7441,222.502 87.7173,223.379 87.2597,227.197 87.1516,227.79 86.9102,228.772 87.1078,228.441 87.8195,227.376 88.2034,226.874 88.9316,226.038 89.5307,225.457 90.2673,224.855 91.2065,224.25 91.9433,223.886 93.3178,223.441 94.0468,223.319 95.5563,223.299 96.2,223.389 97.5287,223.771 98.1404,224.045 99.2444,224.724 99.8075,225.181 100.602,225.996 101.1,226.64 101.611,227.455 102.027,228.287 102.326,229.032 102.644,230.056 102.742,230.467 102.673,229.978 102.66,229.886 102.57,229.142 102.559,229.045 102.485,228.317 102.475,228.215 102.417,227.503 102.41,227.396 102.369,226.7 102.363,226.587 102.338,225.907 102.336,225.789 102.327,225.125 102.341,224.697 102.643,220.62 102.753,219.889 103.594,216.189 103.804,215.5 105.083,212.193 105.378,211.566 105.713,210.965 105.469,211.129 104.396,211.673 101.817,212.607 100.673,212.873 97.6754,213.203 96.5846,213.202 93.3954,212.846 92.2851,212.59 89.4209,211.571 88.4081,211.074 85.8998,209.465 85.8622,209.435 " fill="none" stroke-width="0.5" stroke="rgb(0,0,0)" />
	<polygon points="63.2407,215.067 60.7784,217.106 60.8135,217.111 62.2313,217.519 62.8757,217.815 64.1323,218.644 64.6491,219.111 65.4866,220.097 65.8864,220.717 66.3385,221.601 66.6315,222.351 66.8463,223.05 67.0428,223.911 67.1339,224.442 67.2442,225.393 67.2744,225.796 67.3089,226.817 67.3047,227.247 67.2491,228.29 69.546,222.635 69.8646,221.99 72.5292,217.456 74.1283,215.795 74.8637,215.324 74.5552,215.333 74.0048,215.318 71.7747,215.132 70.9313,214.988 68.8597,214.446 68.009,214.138 66.1385,213.259 65.3137,212.769 64.7295,212.34 " fill="none" stroke-width="0.5" stroke="rgb(0,0,0)" />
	<polygon points="338.282,211.355 337.485,211.889 335.67,212.865 335.219,213.053 335.641,213.474 336.498,214.51 337.03,215.295 337.678,216.482 338.057,217.376 338.408,218.496 338.508,218.413 339.295,217.882 341.344,216.767 341.923,216.522 341.703,216.341 341.038,215.676 340.183,214.639 339.652,213.854 339.005,212.666 338.627,211.773 338.453,211.214 " fill="none" stroke-width="0.5" stroke="rgb(0,0,0)" />
	<polygon points="356.581,217.381 356.583,217.382 356.583,217.379 " fill="none" stroke-width="0.5" stroke="rgb(0,0,0)" />
	<polygon points="56.9196,202.103 56.5699,202.416 54.7897,203.861 54.3789,204.161 52.592,205.33 52.1136,205.606 50.335,206.504 49.7848,206.742 48.0293,207.375 47.4062,207.555 45.6889,207.931 44.9983,208.032 43.3341,208.155 42.469,208.144 40.3778,207.933 39.3417,207.714 37.4172,207.087 36.4065,206.626 35.5852,206.134 35.8718,206.402 37.2811,207.405 38.6432,208.098 40.0437,208.559 41.581,208.832 43.3773,208.926 44.854,208.886 46.4883,208.763 48.234,208.558 50.1018,208.274 52.101,207.914 54.24,207.483 56.5274,206.987 58.9853,206.428 59.847,206.51 59.5471,205.827 58.9098,203.811 58.7034,202.805 58.4824,200.567 " fill="none" stroke-width="0.5" stroke="rgb(0,0,0)" />
	<polygon points="361.573,205.68 361.704,206.963 361.971,206.742 362.708,206.244 361.849,205.772 361.551,205.569 " fill="none" stroke-width="0.5" stroke="rgb(0,0,0)" />
	<polygon points="113.795,199.955 113.575,200.697 113.109,201.913 114.165,201.096 114.787,200.686 116.304,199.842 114.463,199.045 114.117,198.438 " fill="none" stroke-width="0.5" stroke="rgb(0,0,0)" />
	<polygon points="124.126,196.152 123.484,196.249 123.023,196.377 122.745,196.5 122.623,196.581 122.592,196.612 122.573,196.641 122.346,197.202 121.701,197.964 122.564,197.805 122.826,197.764 124.009,197.611 124.233,197.587 125.456,197.485 125.644,197.473 126.904,197.417 127.06,197.412 128.355,197.395 128.549,197.396 130.596,197.448 129.232,196.898 126.959,196.317 124.805,196.121 " fill="none" stroke-width="0.5" stroke="rgb(0,0,0)" />
	<polygon points="355.798,195.318 354.908,195.696 353.284,196.206 353.991,196.426 354.883,196.804 356.07,197.451 356.265,197.583 356.212,197.326 356.061,195.853 356.061,195.174 " fill="none" stroke-width="0.5" stroke="rgb(0,0,0)" />
	<polygon points="313.616,196.386 313.06,196.559 313.724,196.924 313.784,196.315 " fill="none" stroke-width="0.5" stroke="rgb(0,0,0)" />
	<polygon points="344.623,196.853 344.716,196.802 345.608,196.425 345.654,196.411 345.371,196.353 344.547,196.094 " fill="none" stroke-width="0.5" stroke="rgb(0,0,0)" />
	<polygon points="61.8729,189.494 61.5966,189.571 59.8225,190.011 59.516,190.076 58.3426,190.289 59.1862,190.42 60.5116,191.764 60.5887,191.607 61.9266,189.478 " fill="none" stroke-width="0.5" stroke="rgb(0,0,0)" />
	<polygon points="41.0538,188.369 42.7328,189.121 44.5672,189.694 46.5263,190.093 48.5698,190.323 49.4936,190.355 48.3293,190.184 47.9691,190.117 45.8464,189.642 45.6157,189.585 43.6343,189.04 43.5541,189.017 41.7444,188.487 40.8537,188.245 " fill="none" stroke-width="0.5" stroke="rgb(0,0,0)" />
	<polygon points="178.392,183.532 178.675,184.168 179.713,187.028 179.723,187.357 180.154,187.226 180.675,187.099 184.526,186.373 185.126,186.298 188.036,186.111 183.853,185.488 182.419,185.044 178.073,182.932 " fill="none" stroke-width="0.5" stroke="rgb(0,0,0)" />
	<polygon points="367.527,165.268 366.994,166.057 366.182,167.038 365.514,167.705 364.53,168.515 363.741,169.046 362.612,169.658 361.719,170.034 361.249,170.179 362.177,171.299 362.707,172.08 363.746,173.979 364.126,174.87 364.784,176.963 364.986,177.942 365.216,180.181 365.216,181.194 364.986,183.428 364.956,183.571 365.343,183.448 366.326,183.245 367.781,183.094 368.793,183.094 370.266,183.244 371.242,183.445 372.617,183.875 373.507,184.253 373.632,184.321 372.035,181.055 371.757,180.357 368.991,171.509 368.844,170.909 367.754,164.851 " fill="none" stroke-width="0.5" stroke="rgb(0,0,0)" />
	<polygon points="108.971,158.328 108.324,159.516 107.794,160.3 106.939,161.336 106.276,162 105.241,162.856 104.457,163.387 103.271,164.034 102.378,164.413 101.07,164.822 100.094,165.022 98.692,165.165 97.6907,165.165 96.2836,165.023 95.3102,164.824 93.9975,164.414 93.1058,164.037 91.9161,163.39 91.1314,162.861 90.0935,162.005 89.933,161.844 89.7362,162.521 89.5914,162.946 88.3401,166.136 88.1606,166.54 88.0489,166.763 89.0001,166.129 92.0333,166.259 95.3762,167.496 95.9245,167.738 99.3,169.477 99.8148,169.783 103.076,171.998 103.583,172.393 106.582,175.06 107.088,175.581 109.677,178.674 110.161,179.363 112.192,182.858 112.595,183.74 112.714,184.087 112.893,182.939 113.059,182.226 113.778,179.921 114.154,179.032 115.196,177.114 115.891,176.139 117.278,174.621 118.295,173.771 120.046,172.669 121.198,172.136 121.519,172.035 118.493,170.304 117.612,169.662 114.718,167.017 114.03,166.24 111.807,163.129 111.329,162.3 109.762,158.851 109.47,158.021 109.332,157.475 " fill="none" stroke-width="0.5" stroke="rgb(0,0,0)" />
	<polygon points="163.466,163.298 163.196,163.532 159.608,166.419 159.218,166.703 155.432,169.184 154.92,169.478 150.847,171.5 150.237,171.754 145.788,173.265 145.132,173.438 140.221,174.384 139.581,174.464 138.586,174.524 141.603,176.626 142.195,177.11 145.589,180.355 145.984,180.78 148.607,183.955 148.614,183.859 148.662,183.439 149.268,179.584 149.444,178.845 150.403,175.849 150.968,174.658 152.358,172.52 153.742,171.114 155.645,169.832 157.576,169.058 160.07,168.631 161.856,168.653 163.584,168.991 164.805,169.401 166.765,170.358 167.474,170.78 167.701,170.942 166.588,168.81 166.349,168.278 164.545,163.531 164.404,163.104 164.254,162.564 " fill="none" stroke-width="0.5" stroke="rgb(0,0,0)" />
	<polygon points="79.8438,179.106 77.7683,181.002 78.9311,181.852 79.1607,181.035 79.2981,180.619 79.8919,179.055 " fill="none" stroke-width="0.5" stroke="rgb(0,0,0)" />
	<polygon points="343.339,162.176 342.519,162.858 338.412,165.581 337.574,166.028 333.94,167.536 334.522,168.117 335.333,169.099 335.866,169.887 336.39,170.85 337.39,169.642 338.05,168.982 339.71,167.611 340.49,167.082 342.39,166.045 343.28,165.667 345.372,165.01 346.35,164.808 347.491,164.691 347.191,164.139 346.814,163.245 346.427,162 346.228,161.028 346.094,159.692 346.093,159.332 " fill="none" stroke-width="0.5" stroke="rgb(0,0,0)" />
	<polygon points="423.455,139.273 421.716,142.098 420.801,143.192 418.06,145.644 417.207,146.257 413.592,148.314 412.886,148.645 408.525,150.284 407.942,150.463 402.963,151.662 402.464,151.755 396.997,152.491 396.549,152.531 390.72,152.781 389.974,152.757 381.706,151.86 380.659,151.63 374.319,149.493 374.502,149.57 375.292,149.985 376.039,150.469 377.008,151.064 378.248,151.696 379.915,152.343 382.126,152.932 384.982,153.368 388.615,153.542 390.581,153.484 392.66,153.32 394.872,153.079 397.246,152.792 397.276,152.788 399.809,152.498 399.912,152.488 402.621,152.235 402.779,152.223 405.71,152.044 405.907,152.036 409.104,151.968 409.652,151.986 416.985,152.646 417.944,152.829 424.364,154.726 425.278,155.099 430.963,158.11 431.691,158.581 436.823,162.583 437.319,163.028 442.077,167.897 442.377,168.234 443.593,169.73 439.708,164.33 439.349,163.75 435.842,157.107 435.461,156.16 433.615,149.723 433.739,146.619 434.606,145.543 434.421,145.518 433.833,145.401 431.866,144.884 431.132,144.628 429.453,143.89 428.575,143.392 427.215,142.424 426.29,141.569 425.28,140.364 424.533,139.152 423.989,137.897 " fill="none" stroke-width="0.5" stroke="rgb(0,0,0)" />
	<polygon points="201.872,162.581 201.957,162.543 201.84,162.38 " fill="none" stroke-width="0.5" stroke="rgb(0,0,0)" />
	<polygon points="85.8492,149.03 86.44,149.458 86.8076,149.713 86.9523,149.251 86.206,149.098 85.7712,148.962 " fill="none" stroke-width="0.5" stroke="rgb(0,0,0)" />
	<polygon points="124.13,106.463 122.668,111.747 121.079,118.103 121.057,118.188 119.33,124.604 119.234,124.921 117.317,130.518 116.973,131.297 115.339,134.271 116.479,133.966 119.884,134.28 121.176,134.895 123.526,137.254 124.291,138.877 124.659,139.976 125.137,142.27 125.175,142.475 125.579,144.929 126.052,146.901 126.5,147.864 126.569,147.928 127.005,148.028 127.321,147.882 127.799,147.563 128.361,147.052 128.976,146.3 129.61,145.253 130.249,143.794 130.58,142.785 130.912,141.635 131.196,140.492 131.43,139.365 131.613,138.265 131.744,137.205 131.822,136.197 131.847,135.258 131.805,133.911 131.691,132.876 131.635,132.627 131.33,132.698 130.623,132.946 129.867,133.287 129.139,133.682 128.513,134.079 128.072,134.404 127.671,134.76 124.817,135.986 121.794,135.271 119.793,132.895 119.818,129.153 121.661,124.723 122.002,124.053 124.344,120.2 124.804,119.564 127.587,116.293 128.156,115.725 130.996,113.318 130.508,113.076 128.991,111.928 128.344,111.342 126.842,109.719 126.624,109.467 125.13,107.618 124.149,106.416 " fill="none" stroke-width="0.5" stroke="rgb(0,0,0)" />
	<polygon points="100.865,135.617 101.007,137.021 101.007,138.022 100.865,139.427 100.665,140.402 100.315,141.525 101.069,141.68 102.377,142.089 103.269,142.467 104.455,143.114 105.239,143.644 106.274,144.499 106.937,145.162 107.792,146.197 108.239,146.857 108.332,145.971 108.377,145.645 108.681,143.886 108.767,143.486 109.225,141.72 109.401,141.174 110.031,139.548 110.425,138.753 110.507,138.617 107.478,139.3 105.653,138.753 103.016,137.364 100.872,135.15 100.694,134.785 " fill="none" stroke-width="0.5" stroke="rgb(0,0,0)" />
	<polygon points="314.706,122.392 313.022,122.846 311.538,123.539 310.252,124.424 309.182,125.45 308.353,126.547 307.786,127.628 307.333,129.06 305.513,131.577 304.855,131.786 305.53,132.317 306.797,133.159 307.99,133.796 309.135,134.26 310.276,134.578 311.465,134.768 312.796,134.836 313.217,134.823 313.775,134.779 314.405,134.71 315.081,134.623 315.771,134.53 315.811,134.525 316.466,134.442 316.597,134.427 317.186,134.368 317.459,134.349 317.966,134.326 318.465,134.33 319.029,134.362 319.659,134.439 320.168,134.534 320.893,134.728 321.339,134.884 322.152,135.255 322.531,135.47 323.383,136.084 323.688,136.357 324.468,137.245 324.693,137.573 325.26,138.675 325.4,139.056 325.67,140.211 325.718,140.644 325.722,141.691 325.643,142.466 325.504,143.227 325.277,144.085 325.256,144.149 326.741,144.03 329.676,143.304 332.424,142.083 332.46,142.058 332.25,142.124 329.313,141.113 327.929,139.476 327.433,138.53 326.927,137.735 326.313,136.927 325.59,136.126 324.754,135.347 323.802,134.605 322.725,133.913 321.322,133.183 320.904,132.967 320.269,132.576 319.906,132.314 319.319,131.814 319.018,131.514 318.515,130.928 318.273,130.598 317.875,129.956 317.691,129.601 317.405,128.936 317.276,128.563 317.098,127.901 317.022,127.515 316.939,126.873 316.914,126.48 316.931,125.655 317.008,124.912 317.18,124.037 317.404,123.268 317.658,122.588 317.777,122.33 317.164,122.245 316.689,122.219 " fill="none" stroke-width="0.5" stroke="rgb(0,0,0)" />
	<polygon points="57.8641,137.647 57.2443,138.77 57.5818,138.691 60.077,138.208 60.4154,138.154 62.818,137.859 63.106,137.832 64.6255,137.735 62.1369,137.287 61.4936,137.126 57.3727,135.794 " fill="none" stroke-width="0.5" stroke="rgb(0,0,0)" />
	<polygon points="95.1544,109.153 93.1489,111.103 93.0661,111.182 90.8895,113.203 90.5633,113.48 88.3001,115.243 87.5876,115.706 85.2495,116.953 83.8767,117.442 81.4754,117.915 79.9925,117.98 78.7958,117.852 78.1482,117.698 78.4073,119.222 78.4692,119.77 78.6579,123.085 78.6647,123.476 78.633,124.903 78.6236,125.117 78.5325,126.506 78.515,126.709 78.3707,128.055 78.3463,128.248 78.1551,129.549 78.1249,129.731 77.8929,130.983 77.8578,131.155 77.5913,132.354 77.5521,132.517 77.2572,133.66 77.2145,133.814 76.8974,134.896 75.1323,137.453 73.4619,137.959 74.49,138.059 74.5155,138.062 75.5075,138.163 75.6122,138.175 76.5065,138.286 76.7227,138.317 77.2173,138.401 77.1788,138.022 77.1788,137.021 77.3214,135.618 77.5204,134.645 77.929,133.334 78.3059,132.443 78.9517,131.256 79.481,130.471 80.3356,129.435 80.9985,128.771 82.0332,127.914 82.8176,127.382 84.0037,126.735 84.897,126.355 86.2059,125.946 87.1829,125.745 88.586,125.602 89.589,125.602 90.994,125.745 91.9697,125.945 93.2805,126.355 94.173,126.733 95.3609,127.381 96.1453,127.912 97.1816,128.768 97.8449,129.432 98.7008,130.468 98.768,130.568 98.7132,130.411 97.5466,125.235 97.4692,124.803 96.6755,118.868 96.6624,118.761 96.0101,112.918 95.4136,108.921 " fill="none" stroke-width="0.5" stroke="rgb(0,0,0)" />
	<polygon points="45.2143,126.735 45.8345,127.416 44.9045,126.245 " fill="none" stroke-width="0.5" stroke="rgb(0,0,0)" />
	<polygon points="42.9665,122.375 43.9172,124.683 44.2184,125.159 44.0671,124.905 42.9403,122.261 " fill="none" stroke-width="0.5" stroke="rgb(0,0,0)" />
	<polygon points="144.524,98.624 143.972,101.625 143.394,104.852 143.308,105.245 142.591,107.958 144.66,107.488 145.396,107.377 149.526,107.075 150.444,107.093 155.32,107.646 156.478,107.92 158.073,108.509 155.314,106.194 155.281,106.166 150.833,102.364 146.896,99.1984 144.76,97.7896 " fill="none" stroke-width="0.5" stroke="rgb(0,0,0)" />
	<polygon points="326.026,98.4072 325.009,99.8761 324.895,100.032 327.559,100.578 328.188,100.751 330.928,101.702 331.468,101.926 333.713,103.016 334.119,103.237 335.915,104.328 336.136,104.47 337.008,105.065 337.409,104.855 337.592,104.764 338.186,104.484 338.671,104.286 339.242,104.088 340.187,103.86 340.574,103.806 337.063,102.564 336.623,102.384 332.974,100.684 332.689,100.54 329.581,98.839 329.483,98.7838 327.015,97.3594 326.824,97.261 " fill="none" stroke-width="0.5" stroke="rgb(0,0,0)" />
	<polygon points="69.6973,91.5643 64.6203,94.2365 58.953,97.3631 62.7499,97.8877 64.1453,98.296 67.5277,99.8558 68.689,100.603 71.2086,102.778 71.2961,101.739 71.3109,101.589 71.5622,99.4002 71.5712,99.3265 71.8592,97.1112 71.8601,97.1041 72.1441,94.9441 72.3832,92.9315 72.543,91.1431 72.575,90.2829 " fill="none" stroke-width="0.5" stroke="rgb(0,0,0)" />
	<polygon points="395.289,78.7099 394.872,79.6741 390.895,86.7102 390.511,87.2484 390.55,87.2266 392.435,86.2648 394.34,85.1759 395.965,83.9502 397.169,82.5777 397.954,80.9376 398.318,78.3835 398.28,77.3555 398.148,76.0479 397.953,74.7404 397.719,73.4627 397.47,72.235 397.47,72.2331 397.405,71.913 " fill="none" stroke-width="0.5" stroke="rgb(0,0,0)" />
	<polygon points="106.519,57.3927 105.36,57.9482 103.768,59.0438 101.96,60.5161 100.095,62.1135 99.9713,62.2156 98.1899,63.6435 97.7152,63.9802 96.0973,64.9902 94.764,65.5707 93.9822,65.7814 94.2758,66.2167 94.5549,66.7648 94.9015,67.6443 95.0909,68.3035 95.2351,68.9815 95.3428,69.748 95.3871,70.2428 95.4212,71.1127 95.4148,71.6247 95.2876,73.6007 95.2418,74.0249 94.9064,76.2367 94.8663,76.465 94.6604,77.4945 96.5934,75.0296 97.1765,74.4055 99.2657,72.5246 100.956,71.5263 103.014,70.8129 106.121,70.7677 107.598,71.5242 109.035,72.5979 110.842,75.2359 111.63,78.0664 111.791,78.9528 112.003,81.3214 112.446,79.8715 112.753,79.1024 113.957,76.6937 112.765,76.2538 111.339,75.4056 109.141,72.6099 108.451,70.3735 108.249,69.328 107.985,66.1662 107.972,65.9591 107.827,62.4684 107.532,59.3939 107.034,57.5513 106.901,57.3744 106.795,57.3424 " fill="none" stroke-width="0.5" stroke="rgb(0,0,0)" />
	<polygon points="171.906,77.1184 173.319,80.4503 173.355,80.341 173.43,80.1635 173.818,79.4269 173.92,79.2676 174.483,78.5444 174.61,78.4097 175.389,77.7363 175.539,77.6323 176.555,77.0886 176.725,77.0216 177.415,76.8456 173.53,75.6104 171.154,74.9874 " fill="none" stroke-width="0.5" stroke="rgb(0,0,0)" />
	<polygon points="126.088,58.055 125.285,60.193 124.515,63.3901 123.779,66.8829 123.711,67.1636 122.864,70.2707 122.478,71.2569 121.505,73.1233 121.673,73.1047 123.212,73.6526 125.129,74.8944 126.511,76.339 127.129,77.1322 128.162,78.781 128.162,78.1149 128.162,78.0736 128.174,76.6915 128.177,76.5479 128.224,75.2975 128.241,75.0347 128.341,73.9322 128.401,73.4887 128.573,72.5504 128.763,71.8272 129.024,71.0692 129.569,69.9625 129.938,69.401 131.225,68.0738 131.72,67.725 133.488,66.9794 131.82,64.8633 131.687,64.6869 129.947,62.2642 128.257,60.0263 126.778,58.4095 126.161,57.9591 " fill="none" stroke-width="0.5" stroke="rgb(0,0,0)" />
	<polygon points="146.147,68.1832 145.911,68.4891 145.242,69.1994 144.958,69.4478 144.146,70.023 143.819,70.2078 143.481,70.3563 143.742,70.5475 147.168,73.3444 147.342,73.4929 149.066,75.0377 147.963,72.4698 147.882,72.27 146.286,68.059 146.265,67.9943 " fill="none" stroke-width="0.5" stroke="rgb(0,0,0)" />
	<polygon points="398.937,59.3248 398.935,60.2474 398.546,64.2708 398.619,64.1888 399.332,63.5305 399.545,63.3703 400.336,62.8822 400.573,62.7652 401.417,62.4406 401.671,62.3688 402.56,62.2032 402.823,62.1788 405.089,62.4995 406.198,62.9349 407.558,63.7389 408.936,64.8867 409.219,65.1414 410.858,66.734 412.669,68.4339 414.583,69.9713 416.584,71.1862 418.657,71.9664 421.105,72.2753 421.555,72.2541 422.35,72.1335 423.113,71.9102 423.726,71.6067 424.166,71.2499 424.517,70.764 424.839,69.8888 424.953,68.8021 424.312,66.6733 422.249,64.5436 418.37,62.2484 413.411,60.1938 408.184,58.4607 403.482,57.0162 403.25,56.9384 399.887,55.72 398.54,54.9394 " fill="none" stroke-width="0.5" stroke="rgb(0,0,0)" />
	<polygon points="84.374,60.1777 83.9938,60.6487 80.944,63.9872 80.7657,64.1725 80.6447,64.2919 80.9521,64.1661 83.7056,63.1766 84.5858,62.949 86.1074,62.7019 85.8131,62.1413 85.7026,61.8407 85.4273,60.6643 85.3883,60.3022 85.5252,58.5579 " fill="none" stroke-width="0.5" stroke="rgb(0,0,0)" />
	<polygon points="54.0905,62.9368 54.1165,63.0371 55.5565,61.1228 53.0495,60.9516 " fill="none" stroke-width="0.5" stroke="rgb(0,0,0)" />
	<polygon points="161.265,42.4774 161.619,44.949 161.572,45.3672 161.266,46.6089 161.132,46.9513 160.462,48.1485 160.255,48.4212 159.355,49.3319 159.087,49.5411 158.303,50.0258 160.129,50.5099 160.453,50.6079 163.831,51.7564 163.967,51.8048 167.499,53.1213 167.503,53.1227 170.962,54.4154 174.093,55.4877 174.283,55.5391 174.112,55.2908 170.992,51.8017 167.181,47.9589 163.28,44.0824 163.156,43.9547 160.852,41.4937 " fill="none" stroke-width="0.5" stroke="rgb(0,0,0)" />
	<polygon points="142.414,48.8727 142.841,50.3962 143.563,52.2955 144.471,54.4004 144.893,55.3511 145.152,54.5854 145.552,53.7003 145.948,53.0133 146.646,52.0781 147.173,51.5226 148.161,50.7193 148.827,50.3075 149.42,50.0361 149.22,49.9851 149.128,49.961 147.508,49.5163 145.917,49.0922 144.452,48.7524 143.194,48.541 142.369,48.4854 " fill="none" stroke-width="0.5" stroke="rgb(0,0,0)" />
	<polygon points="92.1149,46.4349 90.3579,46.6935 88.4894,47.0052 86.5988,47.3247 86.5234,47.3368 86.3854,47.3579 87.4789,49.0595 88.0215,53.2184 89.3195,51.4651 89.4265,51.3259 91.1463,49.1674 92.7838,47.0736 93.3208,46.3046 " fill="none" stroke-width="0.5" stroke="rgb(0,0,0)" />
	<polygon points="445.765,35.7249 445.659,36.1046 445.071,37.9287 445.029,38.0548 444.369,39.927 443.753,41.7815 443.258,43.6025 442.931,45.437 442.81,47.3545 442.858,48.0882 442.976,48.6387 443.115,48.9792 443.228,49.1471 443.327,49.2394 443.526,49.35 443.993,49.4855 444.709,49.5466 445.207,49.4764 445.257,49.4518 445.381,49.3291 445.679,48.8141 446.027,47.8029 446.311,46.3609 446.482,44.5994 446.537,42.6204 446.504,40.9903 446.414,39.4299 446.286,37.9471 446.134,36.5353 445.977,35.1951 445.974,35.1721 445.949,34.9456 " fill="none" stroke-width="0.5" stroke="rgb(0,0,0)" />
	<polygon points="186.405,37.2538 185.82,37.6941 186.006,38.1935 186.23,38.4889 186.237,38.2445 186.564,37.4847 186.962,36.9738 " fill="none" stroke-width="0.5" stroke="rgb(0,0,0)" />
</svg>
