<?xml version="1.0" standalone="no" ?>
<!DOCTYPE svg PUBLIC "-//W3C//DTD SVG 1.1//EN" "http://www.w3.org/Graphics/SVG/1.1/DTD/svg11.dtd">
<svg width="500px" height="500px" xmlns="http://www.w3.org/2000/svg" version="1.1" >
	<polygon points="465.473,280.855 464.689,294.828 462.353,309.574 458.391,325.213 452.775,341.418 445.491,357.875 436.533,374.289 425.899,390.37 413.589,405.841 399.603,420.435 383.937,433.893 366.577,445.967 347.497,456.414 326.659,464.992 304.006,471.453 279.473,475.535 252.98,476.962 227.172,475.616 203.155,471.751 180.896,465.617 160.347,457.449 141.472,447.471 124.242,435.902 108.644,422.959 94.6753,408.864 82.3401,393.847 71.6474,378.145 62.607,362.003 55.227,345.676 49.5118,329.427 45.4585,313.53 43.0535,298.268 42.2405,283.484 42.2405,34.8083 49.9917,34.7489 61.4833,34.6607 61.4834,34.6607 72.975,34.5725 84.4667,34.4843 95.9584,34.3962 95.9584,34.3962 107.45,34.308 118.942,34.2198 130.433,34.1316 153.417,33.9553 164.908,33.8671 176.4,33.7789 187.892,33.6907 187.892,33.6907 195.377,33.6333 195.356,43.9322 195.331,56.831 195.306,69.7298 195.306,69.7298 195.28,82.6285 195.229,108.426 195.229,108.426 195.204,121.325 195.153,147.123 195.153,147.123 195.128,160.021 195.102,172.92 195.102,172.92 195.077,185.819 195.051,198.718 195.026,211.617 195.026,211.617 195,224.515 195.001,224.664 195.088,235.959 195.089,236.073 195.254,246.89 195.258,247.099 195.555,257.405 195.568,257.725 196.053,267.487 196.082,267.938 196.81,277.122 196.871,277.734 197.897,286.307 198.016,287.115 199.396,295.043 199.616,296.089 201.406,303.339 201.796,304.663 204.051,311.202 204.717,312.828 207.491,318.622 208.57,320.518 211.919,325.534 213.537,327.562 217.516,331.767 219.695,333.671 224.36,337.031 226.927,338.526 232.334,341.007 234.971,341.937 241.174,343.507 243.586,343.916 250.64,344.54 251.947,329.779 252.967,344.564 260.227,344.063 262.652,343.699 268.999,342.222 271.7,341.321 277.196,338.903 279.866,337.394 284.571,334.072 286.849,332.103 290.828,327.914 292.508,325.799 295.821,320.78 296.923,318.809 299.633,312.997 300.297,311.322 302.464,304.753 302.842,303.406 304.53,296.117 304.735,295.07 306.006,287.097 306.112,286.302 307.028,277.682 307.079,277.093 307.701,267.864 307.724,267.443 308.115,257.64 308.124,257.357 308.346,247.018 308.349,246.851 308.464,236.011 308.465,235.943 308.535,224.641 308.535,224.515 308.509,211.616 308.483,198.717 308.457,185.818 308.432,172.92 308.432,172.92 308.406,160.021 308.354,134.223 308.354,134.223 308.328,121.324 308.251,82.6281 308.251,82.628 308.225,69.7292 308.152,33.4163 316.376,33.3634 328.13,33.2878 339.883,33.2123 351.636,33.1367 363.389,33.0612 375.143,32.9856 386.896,32.91 410.402,32.7589 422.156,32.6834 433.909,32.6078 445.662,32.5322 457.415,32.4567 465.473,32.4049 " fill="none" stroke-width="0.5" stroke="rgb(0,0,0)" />
</svg>
