<?xml version="1.0" standalone="no" ?>
<!DOCTYPE svg PUBLIC "-//W3C//DTD SVG 1.1//EN" "http://www.w3.org/Graphics/SVG/1.1/DTD/svg11.dtd">
<svg width="500px" height="500px" xmlns="http://www.w3.org/2000/svg" version="1.1" >
	<polygon points="463.923,280.812 463.146,294.663 460.834,309.262 456.905,324.768 451.331,340.849 444.1,357.189 435.204,373.489 424.644,389.458 412.421,404.82 398.536,419.308 382.987,432.665 365.759,444.647 346.828,455.013 326.15,463.526 303.666,469.938 279.304,473.992 252.978,475.41 227.336,474.072 203.485,470.234 181.389,464.145 160.998,456.039 142.268,446.139 125.171,434.659 109.692,421.814 95.8271,407.825 83.5821,392.917 72.9667,377.328 63.9919,361.303 56.667,345.098 50.9968,328.978 46.9784,313.217 44.5969,298.104 43.7905,283.441 43.7905,36.3465 50.0036,36.2988 61.4952,36.2106 72.9869,36.1225 84.4786,36.0343 95.9703,35.9461 107.462,35.8579 118.954,35.7698 130.445,35.6816 153.429,35.5052 164.92,35.417 187.904,35.2407 193.824,35.1953 193.807,43.9291 193.781,56.8279 193.756,69.7267 193.756,69.7267 193.73,82.6255 193.679,108.423 193.679,108.423 193.654,121.322 193.603,147.119 193.603,147.119 193.578,160.018 193.552,172.917 193.552,172.917 193.527,185.816 193.501,198.715 193.476,211.613 193.476,211.613 193.45,224.512 193.451,224.676 193.538,235.971 193.54,236.097 193.704,246.914 193.709,247.144 194.006,257.45 194.02,257.802 194.505,267.563 194.537,268.061 195.265,277.245 195.332,277.919 196.358,286.491 196.489,287.381 197.869,295.309 198.111,296.46 199.901,303.711 200.331,305.168 202.585,311.707 203.319,313.497 206.093,319.292 207.281,321.378 210.63,326.394 212.411,328.627 216.391,332.832 218.789,334.929 223.454,338.289 226.281,339.934 231.687,342.416 234.591,343.44 240.794,345.009 243.449,345.46 250.504,346.084 251.947,329.779 253.073,346.11 260.334,345.609 263.003,345.209 269.35,343.731 272.325,342.74 277.82,340.322 280.759,338.66 285.465,335.338 287.973,333.17 291.951,328.981 293.802,326.653 297.115,321.634 298.328,319.464 301.037,313.651 301.768,311.808 303.936,305.238 304.352,303.756 306.04,296.467 306.265,295.314 307.537,287.341 307.653,286.466 308.569,277.846 308.625,277.198 309.248,267.968 309.273,267.505 309.664,257.702 309.674,257.391 309.896,247.051 309.899,246.867 310.014,236.028 310.015,235.953 310.085,224.65 310.085,224.512 310.059,211.613 310.033,198.714 310.007,185.815 309.982,172.917 309.982,172.917 309.956,160.018 309.904,134.22 309.904,134.22 309.878,121.321 309.801,82.625 309.801,82.6249 309.775,69.7262 309.705,34.9563 316.386,34.9134 316.386,34.9134 328.14,34.8378 339.893,34.7623 351.646,34.6867 351.646,34.6867 363.399,34.6111 375.153,34.5356 386.906,34.46 386.906,34.46 410.412,34.3089 422.166,34.2333 422.166,34.2333 433.919,34.1578 445.672,34.0822 457.425,34.0066 463.923,33.9649 " fill="none" stroke-width="0.5" stroke="rgb(0,0,0)" />
</svg>
