<?xml version="1.0" standalone="no" ?>
<!DOCTYPE svg PUBLIC "-//W3C//DTD SVG 1.1//EN" "http://www.w3.org/Graphics/SVG/1.1/DTD/svg11.dtd">
<svg width="500px" height="500px" xmlns="http://www.w3.org/2000/svg" version="1.1" >
	<polygon points="469.723,280.975 468.92,295.28 466.521,310.43 462.466,326.433 456.733,342.976 449.306,359.757 440.177,376.483 429.341,392.87 416.793,408.64 402.529,423.524 386.542,437.258 368.817,449.586 349.333,460.255 328.055,469.014 304.941,475.606 279.937,479.766 252.983,481.218 226.722,479.848 202.25,475.91 179.542,469.652 158.564,461.314 139.288,451.124 121.694,439.31 105.771,426.098 91.5171,411.715 78.9348,396.397 68.0301,380.383 58.8095,363.92 51.2787,347.259 45.4401,330.66 41.2912,314.388 38.8218,298.716 37.9905,283.601 37.9905,30.5908 38.4674,30.5872 61.4507,30.4108 72.9424,30.3226 84.4341,30.2345 95.9258,30.1463 95.9258,30.1463 107.417,30.0581 118.909,29.9699 130.401,29.8818 153.384,29.7054 164.876,29.6172 187.859,29.4409 199.635,29.3505 199.632,31.0417 199.632,31.0418 199.606,43.9406 199.581,56.8393 199.556,69.7381 199.556,69.7382 199.53,82.6369 199.479,108.435 199.479,108.435 199.454,121.333 199.403,147.131 199.403,147.131 199.352,172.929 199.327,185.827 199.276,211.625 199.276,211.625 199.25,224.524 199.251,224.631 199.338,235.926 199.339,236.009 199.503,246.826 199.507,246.977 199.804,257.283 199.813,257.514 200.298,267.276 200.319,267.602 201.047,276.786 201.091,277.229 202.117,285.802 202.203,286.386 203.583,294.314 203.742,295.07 205.532,302.321 205.814,303.278 208.068,309.817 208.551,310.993 211.325,316.787 212.105,318.158 215.454,323.174 216.624,324.641 220.603,328.845 222.178,330.223 226.843,333.582 228.7,334.663 234.106,337.144 236.014,337.817 242.216,339.386 243.961,339.682 251.015,340.307 251.947,329.779 252.674,340.324 259.935,339.823 261.688,339.56 268.035,338.082 269.989,337.431 275.484,335.013 277.415,333.922 282.121,330.6 283.768,329.176 287.746,324.987 288.961,323.458 292.274,318.439 293.071,317.014 295.78,311.201 296.261,309.99 298.429,303.421 298.701,302.447 300.39,295.158 300.538,294.4 301.809,286.428 301.885,285.853 302.801,277.233 302.838,276.807 303.461,267.578 303.477,267.273 303.869,257.47 303.875,257.266 304.097,246.926 304.099,246.806 304.214,235.966 304.215,235.917 304.285,224.614 304.285,224.523 304.259,211.625 304.233,198.726 304.207,185.827 304.182,172.928 304.182,172.928 304.156,160.029 304.104,134.232 304.104,134.232 304.078,121.333 304.001,82.6366 304.001,82.6366 303.975,69.7378 303.897,31.0414 303.897,31.0414 303.893,29.1936 304.596,29.1891 316.349,29.1135 328.102,29.0379 339.856,28.9624 351.609,28.8868 363.362,28.8113 375.115,28.7357 386.869,28.6601 410.375,28.509 422.128,28.4334 433.882,28.3579 445.635,28.2823 457.388,28.2068 469.141,28.1312 469.723,28.1275 " fill="none" stroke-width="0.5" stroke="rgb(0,0,0)" />
	<polygon points="319.522,423.087 319.793,424.277 319.882,424.705 319.9,424.806 320.263,425.09 320.976,425.695 321.061,425.624 321.857,425.018 322.557,424.533 322.948,424.296 322.639,422.059 " fill="none" stroke-width="0.5" stroke="rgb(0,0,0)" />
	<polygon points="424.316,148.299 425.383,148.615 425.01,148.403 424.559,148.082 " fill="none" stroke-width="0.5" stroke="rgb(0,0,0)" />
</svg>
