<?xml version="1.0" standalone="no" ?>
<!DOCTYPE svg PUBLIC "-//W3C//DTD SVG 1.1//EN" "http://www.w3.org/Graphics/SVG/1.1/DTD/svg11.dtd">
<svg width="500px" height="500px" xmlns="http://www.w3.org/2000/svg" version="1.1" >
	<polygon points="476.373,79.2431 476.078,79.7313 470.763,86.2033 469.931,86.9854 462.897,92.0698 462.1,92.5288 453.583,96.3196 452.915,96.5553 443.151,99.1465 442.617,99.2537 431.84,100.74 431.414,100.777 419.86,101.252 419.633,101.255 416.346,101.223 416.259,101.221 412.926,101.123 412.841,101.119 409.472,100.956 409.389,100.951 405.992,100.722 405.909,100.716 402.493,100.421 402.411,100.413 398.985,100.054 398.902,100.045 395.475,99.6199 395.392,99.6087 391.973,99.119 391.912,99.1099 391.438,99.0352 391.065,98.9601 390.68,98.8652 390.118,98.6866 389.814,98.5673 389.038,98.1708 388.807,98.0229 387.926,97.281 387.761,97.1004 387.059,96.0764 386.951,95.8588 386.597,94.8671 386.538,94.6084 386.435,93.881 386.417,93.5769 387.123,90.8985 387.657,90.0736 389.081,88.689 390.488,87.8334 390.778,87.6719 392.673,86.7048 394.616,85.5942 396.307,84.3185 397.591,82.8556 398.438,81.0841 398.819,78.4097 398.779,77.3212 398.645,75.9859 398.446,74.6583 398.21,73.3679 397.96,72.1357 397.96,72.134 397.735,71.022 397.711,70.8955 397.552,69.9721 397.509,69.6345 397.359,70.3796 394.812,78.5613 394.437,79.4281 390.46,86.4642 389.916,87.227 384.729,93.0764 384.065,93.6872 377.888,98.3086 377.156,98.7533 370.208,102.105 369.443,102.391 361.944,104.433 361.166,104.572 353.335,105.261 352.611,105.266 347.316,104.868 346.688,104.776 341.946,103.726 341.423,103.577 337.23,102.093 336.834,101.931 333.185,100.231 332.929,100.101 329.821,98.4004 329.733,98.3508 327.255,96.9204 326.673,96.6205 326.568,96.7544 325.615,98.122 324.598,99.5916 324.469,99.7683 324.005,100.372 324.175,100.395 327.458,101.068 328.024,101.223 330.764,102.175 331.249,102.376 333.494,103.466 333.859,103.665 335.655,104.755 335.854,104.883 336.973,105.646 337.047,105.609 337.641,105.298 337.805,105.217 338.399,104.936 338.836,104.758 339.406,104.56 340.255,104.355 340.797,104.28 342.315,104.331 342.949,104.463 344.751,105.289 345.228,105.654 346.308,106.85 346.649,107.404 347.089,108.352 347.318,109.05 347.474,109.673 347.612,110.469 347.663,110.861 347.734,111.71 347.748,111.946 347.774,112.804 347.776,112.92 347.78,113.742 347.774,113.999 347.623,116.831 347.582,117.242 347.117,120.4 347.042,120.787 346.461,123.22 347.362,123.408 348.815,124.825 349.563,125.997 349.826,126.469 350.487,127.85 350.639,128.206 351.209,129.723 351.305,130.008 351.781,131.589 351.847,131.835 352.223,133.409 352.273,133.642 352.547,135.137 352.585,135.389 352.753,136.732 352.781,137.057 352.838,138.177 352.823,138.823 352.197,145.423 352.009,146.348 350.65,150.633 351.116,150.248 351.826,149.769 352.956,149.157 353.76,148.818 355.008,148.431 355.88,148.254 357.221,148.119 358.113,148.119 359.452,148.254 360.324,148.431 361.572,148.818 362.375,149.157 363.505,149.769 364.214,150.248 365.198,151.059 365.799,151.66 366.611,152.643 367.09,153.353 367.394,153.913 367.395,153.905 367.47,153.446 367.503,153.293 367.682,152.681 367.725,152.566 368.113,151.775 368.164,151.692 368.903,150.79 368.961,150.736 370.103,149.959 370.166,149.93 371.463,149.545 371.528,149.536 373.84,149.836 374.31,150.031 375.02,150.404 375.773,150.892 376.763,151.501 378.043,152.153 379.76,152.819 382.024,153.422 384.932,153.867 388.611,154.043 390.608,153.983 392.706,153.818 394.929,153.575 397.306,153.288 397.333,153.285 399.866,152.995 399.958,152.986 402.667,152.733 402.81,152.722 405.74,152.543 405.917,152.535 409.114,152.468 409.607,152.484 416.94,153.144 417.803,153.309 424.222,155.206 425.044,155.541 430.729,158.552 431.383,158.976 436.515,162.978 436.962,163.377 441.719,168.247 441.989,168.55 446.552,174.164 446.694,174.348 451.241,180.583 451.292,180.654 455.449,186.595 458.004,188.099 458.014,188.105 462.076,190.512 462.292,190.648 466.68,193.601 467.041,193.871 471.41,197.502 471.871,197.945 475.874,202.387 476.366,203.047 476.373,203.06 476.373,245.644 475.89,246.467 475.669,246.806 471.485,252.642 471.43,252.716 467.068,258.54 466.646,259.157 468.757,257.87 470.156,257.315 473.087,256.697 474.466,256.626 475.934,256.779 476.373,256.878 476.373,281.161 475.676,293.577 473.775,295.929 473.416,296.323 470.457,299.197 467.789,300.434 466.764,300.184 467.038,300.421 467.665,301.087 469.991,304.131 470.399,304.772 472.314,308.44 472.576,309.047 473.191,310.827 473.042,311.77 468.843,328.342 462.925,345.415 455.275,362.7 452.181,368.37 450.151,367.893 448.16,364.901 447.013,358.279 444.587,354.449 440.891,351.571 436.055,349.146 430.836,346.824 430.395,346.597 425.765,343.883 424.676,342.984 421.403,339.267 420.408,337.328 419.167,331.955 419.071,330.553 419.268,328.378 417.221,329.742 415.957,330.091 415.254,330.224 413.468,330.418 413.311,330.432 411.334,330.576 410.024,330.713 410.193,331.785 410.441,333.183 410.697,334.605 410.709,334.675 410.933,336.044 410.957,336.211 411.115,337.48 411.143,337.795 411.203,338.923 411.208,339.288 411.198,339.622 411.177,339.946 411.143,340.281 411.073,340.734 411.006,341.057 410.829,341.677 410.721,341.973 410.328,342.783 410.171,343.037 409.415,343.958 409.264,344.099 411.628,343.817 412.532,343.802 417.879,344.258 418.629,344.387 423.923,345.773 424.674,346.044 429.711,348.389 430.452,348.826 435.03,352.158 435.718,352.778 439.632,357.126 440.199,357.913 443.246,363.304 443.628,364.192 445.606,370.654 445.781,371.544 446.462,378.849 445.879,379.916 434.727,396.782 421.806,413.02 407.107,428.358 399.92,434.532 399.417,434.294 398.641,433.826 397.226,432.76 396.692,432.287 395.411,430.951 395.012,430.473 393.919,428.957 393.595,428.435 392.746,426.829 392.47,426.191 391.92,424.585 391.716,423.712 391.52,422.197 391.492,421.35 391.522,420.876 391.613,420.218 391.72,419.718 391.955,418.961 392.17,418.439 392.559,417.7 392.709,417.469 389.174,417.093 388.37,416.932 384.81,415.867 384.181,415.626 380.843,414.046 380.332,413.762 377.335,411.826 376.886,411.495 375.075,409.973 375.462,410.948 375.812,412.75 375.893,413.597 375.893,417.615 375.892,417.719 375.875,418.442 375.862,418.69 375.806,419.405 375.77,419.717 375.664,420.416 375.589,420.798 375.426,421.471 375.39,421.593 376.116,421.049 379.302,420.19 380.872,420.374 381.81,420.588 383.442,421.153 384.275,421.541 385.887,422.507 386.614,423.051 388.12,424.439 388.717,425.111 390.034,426.941 390.472,427.695 391.517,429.987 391.787,430.761 392.476,433.536 392.594,434.272 392.842,437.549 392.788,438.653 392.374,441.014 390.617,442.523 372.322,455.248 352.204,466.264 330.24,475.306 322.332,477.561 319.864,476.285 319.102,475.786 316.904,474 316.262,473.361 314.536,471.247 314.047,470.508 312.803,468.149 312.475,467.346 311.723,464.823 311.558,463.98 311.305,461.375 311.294,460.655 311.535,456.97 311.602,456.437 312.274,452.872 312.385,452.416 313.408,449.01 313.544,448.623 314.84,445.415 314.846,445.403 314.755,445.451 313.994,445.771 313.329,445.991 312.578,446.176 311.894,446.288 311.197,446.347 311.099,446.35 310.692,447.531 309.533,451.651 309.491,451.791 307.982,456.553 307.824,456.974 305.791,461.679 305.387,462.414 302.621,466.487 301.661,467.508 297.953,470.373 296.2,471.195 291.342,472.278 289.927,472.363 285.917,471.958 285.085,471.793 281.211,470.63 280.499,470.348 276.818,468.506 276.229,468.153 272.794,465.709 272.313,465.314 269.181,462.347 268.788,461.923 266.013,458.51 265.743,458.132 266.924,460.332 270.103,464.293 273.662,467.382 277.494,469.718 281.476,471.394 285.461,472.488 289.281,473.079 292.831,473.259 295.387,473.231 297.312,473.157 298.659,473.058 299.594,472.949 300.341,472.835 301.037,472.725 301.244,472.697 301.96,472.618 302.294,472.594 303.158,472.564 303.668,472.575 304.538,472.645 305.415,472.804 306.084,472.997 307.113,473.44 307.606,473.731 308.581,474.508 308.926,474.873 309.612,475.825 309.834,476.239 310.19,477.115 310.317,477.554 310.453,478.217 310.51,478.656 310.544,479.083 310.556,479.497 310.405,480.797 310.356,480.977 306.403,482.104 280.664,486.387 266.978,487.124 266.461,486.624 264.984,484.937 264.624,484.448 261.13,486.228 260.88,486.346 257.965,487.609 252.989,487.877 226.019,486.471 200.834,482.418 180.44,476.798 177.009,474.388 173.501,472.414 170.964,471.684 167.604,471.351 165.522,471.235 155.774,467.361 135.871,456.84 131.828,454.125 130.8,452.072 131.412,449.195 133.436,447.532 127.231,448.09 126.352,448.082 122.15,447.626 117.707,444.643 101.275,431.008 86.5753,416.176 73.8402,400.672 73.8206,399.797 74.2301,394.669 74.3439,393.964 75.4726,389.358 75.6901,388.698 77.3883,384.644 77.6927,384.047 79.8107,380.571 80.1905,380.04 82.5785,377.171 83.039,376.694 85.5475,374.46 86.1247,374.024 88.604,372.453 89.3951,372.055 91.6954,371.174 94.6353,371.089 96.9862,372.857 97.691,375.968 97.1461,379.729 97.3545,379.268 99.4344,375.72 99.9719,374.987 102.699,371.97 103.341,371.386 106.375,369.124 106.06,369.292 103.978,370.162 103.215,370.403 100.905,370.91 100.163,371.009 97.8661,371.118 97.0782,371.085 94.9555,370.808 94.1403,370.622 92.2107,369.987 91.4226,369.64 89.7054,368.675 88.9992,368.183 87.5135,366.917 86.9294,366.316 85.6945,364.778 85.2513,364.111 85.1265,363.88 84.3791,364.047 84.1839,364.085 83.3641,364.23 83.1753,364.259 82.3337,364.37 81.7987,364.408 79.4853,364.432 78.6014,364.353 76.4031,363.933 75.5733,363.688 73.5383,362.867 72.9826,362.578 76.7374,368.035 77.4714,369.891 78.7256,378.173 78.5297,380.298 74.7772,391.11 72.9488,393.414 70.0828,394.074 68.9196,393.505 62.37,383.886 52.8677,366.92 45.1007,349.736 39.069,332.588 38.3364,329.715 40.8903,321.489 41.1437,320.852 45.3403,312.282 45.5678,311.874 50.3785,304.209 50.5068,304.016 55.3036,297.192 59.3553,291.291 61.9224,286.566 62.7758,282.85 62.7727,282.783 62.7131,282.382 62.6215,282.036 62.4946,281.715 62.3179,281.39 62.0672,281.035 61.714,280.636 61.0888,280.057 61.0784,280.048 59.1563,278.257 58.8928,277.99 57.3787,276.32 57.2145,276.128 55.9917,274.615 55.9683,274.585 55.0119,273.381 54.3724,272.677 54.2031,272.545 53.9461,272.898 53.4866,273.949 53.1966,275.292 53.1827,276.796 53.5163,278.379 54.385,280.237 54.7369,280.792 55.2107,281.524 55.24,281.57 55.6851,282.275 55.7763,282.426 56.1678,283.105 56.3156,283.384 56.6414,284.055 56.8203,284.477 57.068,285.158 57.2304,285.715 57.388,286.425 57.482,287.065 57.5373,287.822 57.4954,288.835 57.1542,291.011 56.9572,291.795 56.0116,294.491 55.8193,294.954 54.3863,297.92 54.1889,298.285 52.3853,301.272 52.1429,301.633 50.0857,304.391 49.7248,304.816 47.531,307.095 46.878,307.654 44.6644,309.205 43.273,309.856 41.1566,310.428 38.659,310.377 36.69,309.758 34.8792,308.66 33.4279,307.208 32.2003,299.418 31.3405,283.783 31.3405,236.106 32.2754,233.958 32.7918,233.069 34.6303,230.611 36.4007,229.203 38.3774,228.332 40.5621,227.972 41.1024,228.02 42.0172,228.199 42.4656,228.336 43.4645,228.784 43.827,229.003 44.7256,229.721 45.0085,230.015 45.6495,230.862 45.8588,231.221 46.2267,232.028 46.3687,232.445 46.5411,233.121 46.6218,233.588 46.6813,234.123 46.7068,234.631 46.7103,234.992 46.6805,235.952 46.6728,236.109 46.5943,237.292 46.5904,237.345 46.4796,238.757 46.4161,239.584 46.4631,239.318 46.4837,239.209 47.833,232.535 47.9296,232.148 49.662,226.326 50.0527,225.406 51.3602,223.092 50.0738,223.84 49.7661,224.003 47.0771,225.298 46.6833,225.464 44.1558,226.394 43.6487,226.547 41.2889,227.108 40.641,227.212 38.4551,227.4 37.5574,227.386 35.021,227.09 33.8818,226.8 31.6499,225.905 31.3405,225.727 31.3405,201.979 32.3583,203.415 34.0052,205.342 35.5548,206.79 37.0214,207.834 38.4505,208.561 39.9212,209.045 41.524,209.329 43.3709,209.426 44.8796,209.386 46.5363,209.26 48.3008,209.053 50.1837,208.767 52.1946,208.405 54.3424,207.973 56.6359,207.475 59.0962,206.915 60.7229,207.1 60.4058,206.547 60.0239,205.676 59.3865,203.661 59.201,202.756 58.979,200.508 58.9886,199.546 59.0268,199.225 58.5933,199.733 58.3277,200.018 56.5691,201.746 56.2547,202.027 54.4745,203.473 54.1052,203.743 52.3183,204.912 51.8882,205.16 50.1096,206.058 49.615,206.271 47.8595,206.905 47.2993,207.067 45.582,207.442 44.9612,207.533 43.297,207.657 42.5192,207.647 40.4281,207.435 39.4966,207.239 37.5721,206.611 36.6636,206.197 34.9403,205.165 34.1461,204.558 32.6586,203.13 32.0457,202.4 31.3405,201.35 31.3405,162.802 32.6075,159.27 32.8928,158.635 35.3193,154.203 35.7972,153.499 39.3366,149.231 39.9994,148.583 43.9172,145.48 41.8878,145.626 41.1548,145.618 38.4215,145.363 37.5881,145.203 35.0527,144.463 34.2501,144.141 31.9639,142.955 31.3405,142.548 31.3405,112.354 32.4976,111.509 33.064,111.157 35.3169,109.982 38.2275,109.56 40.7658,111.046 41.7784,114.57 41.7323,114.886 41.7055,115.123 41.6856,115.362 41.6714,115.615 41.662,115.889 41.6567,116.192 41.6546,116.529 41.6544,116.743 41.8769,119.858 42.4884,122.527 43.4714,124.914 44.815,127.039 46.5304,128.923 48.6448,130.571 51.1893,131.966 51.3559,132.028 48.5347,129.816 47.7952,129.081 45.136,125.732 44.5271,124.709 42.7979,120.651 42.4781,119.474 41.8612,114.676 41.8446,113.69 42.0686,111.323 42.2278,110.493 42.8763,108.275 43.1907,107.488 44.2286,105.471 44.6917,104.751 45.6614,103.522 41.6115,105.105 40.7995,105.336 36.7745,106.08 35.701,106.146 35.0087,106.104 34.4096,106.028 33.7761,105.902 33.0781,105.704 32.5138,105.492 31.7357,105.11 31.3405,104.866 31.3405,90.8194 33.6087,87.391 33.8739,87.0309 37.8705,82.1392 35.596,83.308 34.5995,83.6774 32.474,84.187 31.3405,84.2325 31.3405,61.3484 31.5647,61.2064 32.7749,60.569 33.2422,60.3564 34.6137,59.8255 33.3457,59.7448 32.7078,59.6575 31.3405,59.3684 31.3405,42.8693 33.3351,41.4087 33.5514,41.2599 38.0115,38.3818 38.0704,38.3444 42.4857,35.5923 45.2178,33.798 43.9964,33.4377 39.7926,32.3972 39.769,32.3912 35.4696,31.302 35.2253,31.2327 31.4747,30.0511 31.3405,29.9964 31.3405,23.9916 38.4164,23.9374 49.908,23.8492 61.3997,23.761 72.8914,23.6728 79.554,23.6217 79.7096,23.9056 79.9785,27.5954 79.1745,29.758 78.1798,31.3238 76.0601,33.4842 75.4826,33.9799 72.4858,36.1361 72.2475,36.2961 68.8121,38.4459 68.8053,38.4501 65.4845,40.52 62.9762,42.3034 66.0289,42.8696 70.648,43.3513 73.632,43.6371 73.2191,42.3309 73.1559,41.9051 73.7147,39.0072 74.4731,37.7084 76.0368,36.1303 78.0362,34.938 78.6267,34.6429 81.4535,33.4834 81.5967,33.4276 84.7732,32.2511 87.7375,31.0486 89.8989,29.9 90.4235,29.4372 90.3564,29.388 89.4767,28.9915 88.1787,28.5547 88.1631,28.5494 86.8488,28.1017 86.1718,27.8063 85.2422,27.305 83.4194,25.4665 83.0668,24.7989 83.0582,23.5948 84.3831,23.5846 95.8747,23.4965 107.366,23.4083 115.107,23.3489 115.281,23.5577 116.308,24.5163 117.25,25.0017 118.804,25.2253 120.296,25.0118 121.279,24.521 122.377,23.5553 122.617,23.2913 130.35,23.2319 141.841,23.1438 153.333,23.0556 153.71,23.0527 153.782,24.1957 153.414,25.0146 151.914,26.8324 150.945,27.514 150.26,27.9101 148.89,28.5465 148.791,28.5911 147.367,29.2106 146.281,29.7799 145.893,30.0781 146.581,30.8271 148.588,32.315 151.262,33.9857 154.087,35.6935 154.268,35.8091 156.756,37.4826 157.295,37.909 159.055,39.5377 160.136,41.081 160.804,42.671 161.123,44.8929 161.075,45.3111 160.8,46.4274 160.667,46.7698 160.064,47.8461 159.857,48.1188 159.048,48.9375 158.779,49.1467 157.965,49.6504 157.648,49.8024 156.946,50.0681 156.706,50.1365 156.938,50.1808 160.001,50.9932 160.292,51.0813 163.67,52.2298 163.792,52.2733 167.324,53.5898 167.328,53.5911 170.793,54.8861 173.946,55.9662 175.467,56.3753 174.506,54.981 171.356,51.4588 167.534,47.6055 163.632,43.7278 163.521,43.6129 160.107,39.967 159.797,39.5971 157.382,36.3806 156.743,35.1871 155.827,32.5863 156.026,29.1563 157.079,26.9991 158.474,25.3418 161.389,23.2397 161.821,22.9905 164.825,22.9674 176.316,22.8792 187.808,22.7911 206.298,22.6492 206.288,28.0809 205.584,28.5526 204.962,28.9011 201.552,30.465 201.309,30.5678 197.257,32.1436 197.212,32.1608 194.563,33.158 196.27,32.7885 196.552,32.7369 198.753,32.407 199.007,32.3763 201.27,32.1694 201.531,32.1532 203.75,32.0815 203.944,32.0794 205.543,32.0972 205.787,32.1066 206.28,32.1392 206.256,43.9537 206.236,54.5667 204.105,54.2699 203.341,54.094 200.836,53.2786 200.375,53.0996 197.988,52.0172 203.157,57.2961 203.331,57.4843 206.223,60.8008 206.206,69.7513 206.18,82.65 206.179,83.0313 205.996,83.0731 205.319,83.1735 204.191,83.2529 203.428,83.241 199.446,82.8357 198.908,82.7473 194.219,81.6787 193.948,81.608 188.828,80.0972 188.699,80.057 183.424,78.3251 183.395,78.3152 178.278,76.595 173.669,75.13 170.368,74.2647 171.439,77.2994 173.439,82.0135 173.444,82.0247 173.545,81.3998 173.592,81.2103 173.816,80.5359 173.891,80.3584 174.239,79.6962 174.341,79.5369 174.847,78.8868 174.974,78.752 175.675,78.1467 175.825,78.0427 176.738,77.5539 176.908,77.4869 177.983,77.2127 178.173,77.189 179.984,77.3359 182.561,78.0953 183.419,78.4493 187.191,80.4885 187.505,80.6753 192.046,83.636 192.219,83.7548 197.104,87.2787 197.23,87.3726 202.033,91.1014 202.151,91.1963 206.157,94.5306 206.129,108.448 206.104,121.346 206.101,122.724 206.093,122.727 204.826,123 201.722,122.536 199.398,121.241 198.439,120.522 194.924,117.053 194.653,116.761 190.409,111.749 190.264,111.568 185.754,105.64 185.64,105.483 181.327,99.2686 181.204,99.0821 179.779,96.7922 180.313,98.1462 180.427,98.471 181.891,103.234 182.044,103.925 182.6,107.896 182.638,108.722 182.595,109.613 182.545,110.105 182.413,110.931 182.27,111.543 182.04,112.287 181.735,113.029 181.399,113.674 180.844,114.499 180.393,115.03 179.544,115.801 178.97,116.2 177.925,116.739 177.22,116.99 176.182,117.226 175.338,117.313 173.726,117.185 170.367,116.284 169.254,115.816 166.459,114.162 168.909,116.807 169.45,117.525 171.795,121.394 172.142,122.101 173.829,126.483 174.028,127.151 174.846,130.979 175.116,130.714 177.977,128.169 178.394,127.84 181.394,125.754 181.938,125.43 185.058,123.864 185.754,123.585 188.975,122.601 189.818,122.43 193.122,122.088 194.074,122.092 198.106,122.542 199.161,122.792 202.615,124.073 203.609,124.593 206.094,126.322 206.053,147.144 206.053,147.144 206.028,160.043 206.002,172.942 205.995,176.769 205.571,177.408 203.79,179.65 203.229,180.237 201.088,182.103 200.383,182.605 197.914,184.024 197.078,184.396 194.316,185.299 193.397,185.495 190.373,185.812 189.254,185.787 183.927,184.993 182.638,184.594 178.146,182.411 177.153,181.751 176.636,181.297 177.951,183.767 178.205,184.339 179.243,187.198 179.253,188.022 180.3,187.705 180.767,187.59 184.619,186.865 185.158,186.797 189.102,186.544 189.731,186.548 193.037,186.804 193.749,186.918 196.814,187.668 197.545,187.915 200.307,189.127 201.036,189.532 203.434,191.176 204.121,191.757 205.961,193.665 205.951,198.739 205.926,211.638 205.926,211.638 205.914,217.826 205.398,218.657 203.11,220.504 200.169,220.521 197.327,217.499 196.695,215.214 195.926,213.75 194.898,212.566 193.502,211.546 191.613,210.675 189.162,209.997 186.139,209.566 182.532,209.416 180.593,209.46 180.793,209.579 183.691,211.695 184.438,212.383 186.411,214.671 187.015,215.576 188.224,217.976 188.569,218.91 189.176,221.365 189.296,222.131 189.462,224.58 189.437,225.437 188.95,229.31 188.671,230.397 187.324,233.791 186.854,234.67 184.819,237.63 184.311,238.244 181.76,240.815 181.314,241.208 178.419,243.435 178.074,243.675 175.006,245.604 174.771,245.743 171.703,247.419 171.581,247.483 168.684,248.95 165.769,249.338 163.248,247.823 162.32,244.055 162.565,242.906 162.78,241.79 162.971,240.67 163.133,239.547 163.265,238.421 163.362,237.292 163.423,236.159 163.443,235.088 163.338,232.947 163.005,230.852 162.399,228.732 161.462,226.563 160.122,224.322 158.296,221.997 157.36,221.057 156.46,222.727 156.376,222.877 155.175,224.914 154.122,226.747 153.364,228.302 152.944,229.571 152.917,229.796 153.836,230.207 155.224,233.628 155.164,235.055 155.151,235.253 154.992,237.075 154.983,237.169 154.758,239.24 154.753,239.284 154.496,241.46 154.495,241.47 154.238,243.593 154.019,245.493 153.874,246.973 153.829,247.825 153.866,249.043 153.937,249.639 156.3,251.277 156.977,252.666 157.442,254.291 157.527,254.636 157.892,256.447 157.93,256.661 158.221,258.59 158.238,258.71 158.482,260.688 158.487,260.729 158.708,262.669 158.928,264.458 159.159,265.977 159.304,266.651 161.425,267.529 162.603,269.22 163.145,270.598 163.716,272.042 164.315,273.467 164.949,274.821 165.614,276.045 166.294,277.079 166.956,277.871 167.861,278.669 168.109,278.883 168.423,279.183 168.693,279.467 168.944,279.755 169.207,280.083 169.43,280.388 169.672,280.751 169.883,281.099 170.093,281.487 170.297,281.913 170.462,282.314 170.648,282.861 170.756,283.266 170.887,283.985 170.926,284.384 170.88,285.583 170.672,286.773 170.289,287.956 169.715,289.133 169.239,289.901 168.375,291.022 167.905,291.541 166.826,292.558 166.359,292.942 165.141,293.812 164.633,294.126 163.351,294.803 162.728,295.074 161.457,295.514 160.586,295.72 159.403,295.876 158.45,295.9 158.093,295.87 157.342,295.742 156.936,295.636 156.189,295.369 155.742,295.162 155.069,294.776 154.59,294.444 154.038,293.99 153.537,293.506 153.117,293.038 152.604,292.378 152.3,291.935 151.784,291.074 151.572,290.676 151.194,289.872 150.861,289.363 150.01,288.468 148.588,287.166 146.9,285.681 146.849,285.636 145.155,284.098 144.982,283.933 143.493,282.428 143.148,282.035 142.043,280.619 141.458,279.625 140.916,278.354 140.723,275.419 141.374,274.201 141.381,274.181 141.37,274.176 141.407,274.099 141.413,274.07 141.268,273.253 140.731,272.048 139.682,270.3 138.318,268.204 138.254,268.104 136.845,265.808 136.662,265.48 135.432,263.037 135.186,262.445 134.316,259.837 134.118,258.952 133.788,256.165 134.427,253.294 135.467,252.306 135.464,252.304 135.474,252.292 135.363,251.261 134.948,249.546 134.275,247.363 133.455,244.9 133.444,244.868 132.608,242.294 132.561,242.139 131.833,239.582 131.757,239.276 131.241,236.817 131.163,236.285 130.967,234.008 131.698,231.159 134.151,229.815 134.294,228.016 134.312,227.83 134.613,225.362 134.649,225.12 135.109,222.542 135.175,222.236 135.832,219.624 135.945,219.247 136.84,216.676 137.027,216.221 137.24,215.776 137.061,215.788 133.055,216.566 128.855,217.896 124.678,219.78 120.724,222.209 117.177,225.169 114.889,227.832 115.677,227.089 116.106,226.733 124.027,220.951 126.842,220.1 129.573,221.19 131.028,223.746 130.609,226.579 129.456,228.822 128.593,231.006 127.899,233.302 127.365,235.643 126.981,237.964 126.731,240.195 126.596,242.27 126.561,243.856 127.982,254.043 131.753,264.046 137.249,274.02 143.696,283.79 150.24,293.176 150.319,293.294 156.055,302.105 156.305,302.541 160.362,310.643 160.738,311.718 162.277,319.024 162.355,320.335 162.103,323.175 161.97,323.928 161.22,326.742 160.96,327.462 159.723,330.142 159.322,330.837 157.608,333.274 157.043,333.93 154.862,336.015 154.121,336.588 151.484,338.211 150.59,338.633 147.508,339.687 146.541,339.901 143.023,340.277 142.103,340.279 139.016,339.967 138.097,339.775 135.395,338.903 134.534,338.52 132.226,337.185 131.491,336.653 129.585,334.952 129.003,334.323 127.507,332.352 127.076,331.661 125.997,329.517 125.703,328.772 125.05,326.551 124.891,325.737 124.672,323.536 124.665,322.726 124.802,321.073 124.913,320.39 125.187,319.262 124.929,319.545 123.25,321.07 122.555,321.588 120.626,322.751 119.788,323.143 117.654,323.885 116.695,324.102 115.651,324.221 116.36,324.527 117.113,324.943 118.9,326.168 119.54,326.702 121.084,328.256 121.611,328.897 122.856,330.736 123.261,331.477 124.153,333.556 124.417,334.386 124.9,336.662 124.996,337.627 124.976,339.865 124.883,340.728 124.446,342.835 124.187,343.664 123.366,345.606 122.959,346.357 121.785,348.102 121.26,348.744 119.766,350.258 119.154,350.775 117.37,352.025 116.7,352.413 114.66,353.366 114.459,353.44 114.485,353.652 114.517,354.137 114.546,356.491 114.469,357.366 114.058,359.556 113.802,360.421 112.986,362.413 112.56,363.211 111.374,364.973 110.806,365.657 109.286,367.155 108.614,367.699 107.533,368.413 111.022,366.714 111.779,366.427 115.809,365.307 116.599,365.163 120.85,364.778 121.739,364.787 129.415,365.634 130.386,365.854 137.47,368.313 138.356,368.736 144.715,372.682 145.458,373.26 150.959,378.568 151.533,379.245 156.043,385.789 156.448,386.514 156.972,387.699 156.385,384.747 156.364,384.638 155.846,381.647 155.18,378.877 154.147,376.459 152.669,374.172 150.694,372.009 148.165,369.987 145.026,368.139 141.236,366.513 136.617,365.116 132.918,364.111 132.691,364.042 129.739,363.068 129.404,362.943 127.164,361.998 126.672,361.753 125.05,360.819 124.372,360.339 123.275,359.396 122.508,358.542 121.841,357.572 121.277,356.429 120.946,355.413 120.742,354.401 120.652,353.319 120.703,352.192 121.008,350.433 121.475,349.083 122.331,347.493 123.009,346.552 124.329,345.151 125.008,344.562 126.703,343.37 127.318,343.007 129.299,342.045 129.861,341.818 132.04,341.106 132.578,340.966 134.866,340.524 135.419,340.452 137.729,340.301 138.196,340.294 141.302,340.417 141.728,340.454 144.642,340.851 145.166,340.955 147.909,341.671 148.498,341.87 151.089,342.951 151.681,343.252 154.141,344.743 154.673,345.122 157.023,347.067 157.453,347.475 159.712,349.92 160.034,350.311 162.223,353.301 162.514,353.754 164.287,356.916 164.516,357.388 165.953,360.855 166.071,361.173 167.247,364.76 167.303,364.944 168.29,368.463 168.305,368.517 169.163,371.729 169.924,374.315 170.524,375.844 170.714,376.116 170.884,376.185 171.207,376.283 171.591,376.365 172.002,376.425 172.411,376.46 172.818,376.471 173.33,376.465 173.88,376.447 174.435,376.42 174.995,376.389 175.551,376.356 175.573,376.354 176.107,376.325 176.168,376.322 176.673,376.302 176.781,376.299 177.255,376.291 177.933,376.332 179.615,376.563 175.585,373.05 175.038,372.481 170.413,366.718 169.98,366.071 166.534,359.78 166.21,359.032 164.058,352.488 163.864,351.602 163.121,345.079 163.095,344.43 163.153,342.647 163.174,342.343 163.353,340.579 163.402,340.229 163.708,338.552 163.81,338.118 164.249,336.594 164.458,336.02 165.037,334.718 165.482,333.938 166.206,332.924 167.155,331.952 168.031,331.295 169.72,330.513 170.753,330.279 172.195,330.193 173.102,330.287 174.081,330.502 174.86,330.767 175.722,331.169 175.833,331.235 173.482,328.828 172.953,328.172 169.388,322.774 168.952,321.93 166.652,315.995 166.388,314.956 165.573,308.621 165.543,307.816 165.711,304.658 165.762,304.186 166.254,301.139 166.353,300.681 167.148,297.757 167.291,297.321 168.368,294.533 168.55,294.124 169.889,291.483 170.104,291.105 171.684,288.623 171.927,288.278 173.728,285.966 173.995,285.653 175.995,283.525 178.604,282.167 179.369,282.381 176.143,280.191 175.692,279.84 171.578,276.195 170.875,275.405 167.965,271.219 167.281,269.671 166.177,264.845 166.238,262.624 167.379,258.651 168.228,257.042 171.238,253.406 171.862,252.788 176.117,249.337 176.365,249.149 181.212,245.75 185.873,242.364 189.586,239.03 191.807,235.892 192.608,232.501 192.601,232.344 192.512,231.564 192.354,230.643 192.129,229.639 191.841,228.602 191.499,227.58 191.114,226.617 190.622,225.595 190.294,222.672 191.861,220.183 194.638,219.215 196.959,219.872 200.305,221.925 200.664,222.17 203.732,224.493 204.068,224.774 205.915,226.483 205.988,235.874 205.988,235.908 206.153,246.725 206.154,246.785 206.451,257.091 206.454,257.184 206.731,262.751 205.601,264.118 203.854,266.442 202.905,268.217 202.661,269.454 202.917,270.769 203.75,272.12 205.404,273.792 207.629,275.666 207.676,276.261 207.693,276.438 208.72,285.011 208.754,285.245 210.135,293.174 210.199,293.477 211.988,300.727 212.101,301.111 212.286,301.645 211.427,303.184 211.326,303.356 209,307.117 206.755,310.866 204.918,314.492 203.723,317.923 203.295,321.251 203.506,323.626 204.134,325.899 205.139,327.964 206.498,329.798 208.197,331.376 210.228,332.665 212.59,333.625 213.606,333.843 211.956,332.728 211.409,332.292 208.806,329.86 208.026,328.895 206.185,325.82 205.621,324.31 204.923,320.365 204.867,319.26 204.957,318.049 205.026,317.528 205.296,316.142 205.392,315.745 205.842,314.205 205.949,313.886 206.579,312.21 206.69,311.941 207.501,310.15 207.616,309.915 208.607,308.03 208.727,307.816 209.9,305.857 210.025,305.659 211.379,303.645 212.648,302.696 214.355,307.65 214.549,308.121 217.323,313.916 217.635,314.465 220.984,319.481 221.453,320.069 225.433,324.274 226.064,324.826 230.73,328.186 231.474,328.619 236.88,331.1 237.645,331.37 243.848,332.94 244.547,333.058 247.708,333.338 248.349,334.666 248.627,335.401 249.541,338.661 249.666,339.272 250.117,342.64 250.153,343.075 250.274,346.522 250.26,347.066 249.768,352.681 252.617,343.408 252.944,342.621 257.55,333.982 258.008,333.29 259.477,333.189 260.18,333.083 266.527,331.606 267.31,331.345 272.806,328.926 273.58,328.489 278.286,325.167 278.946,324.596 282.924,320.407 283.411,319.794 286.724,314.775 287.044,314.204 288.496,311.088 292.003,309.983 290.983,310.166 289.069,309.858 289.753,308.392 289.946,307.906 292.114,301.337 292.223,300.946 293.911,293.657 293.971,293.353 295.242,285.38 295.273,285.15 296.189,276.53 296.203,276.36 296.64,269.892 297.362,269.453 298.306,269.021 299.449,268.652 300.384,268.458 301.642,268.335 302.827,268.377 305.103,268.768 306.373,269.19 308.39,270.218 309.157,270.714 310.965,272.169 311.338,272.505 312.99,274.172 313.091,274.278 314.562,275.863 315.705,276.977 315.997,277.179 316.066,277.049 316.105,276.922 315.465,274.39 313.655,272.304 310.223,269.997 305.709,267.511 305.553,267.421 300.867,264.586 300.272,264.156 297.057,261.396 297.224,257.205 297.227,257.123 297.449,246.784 297.45,246.735 297.565,235.896 297.565,235.876 297.635,224.573 297.635,224.537 297.635,224.4 299.668,222.478 298.785,221.993 298.087,221.519 297.628,221.139 297.609,211.638 297.583,198.739 297.583,198.612 298.084,198.196 298.781,197.721 300.471,196.792 301.271,196.449 303.13,195.859 304.016,195.675 304.677,195.606 304.584,195.567 303.398,194.92 302.694,194.443 301.659,193.588 301.063,192.992 300.207,191.956 299.731,191.252 299.083,190.065 298.743,189.263 298.334,187.954 298.154,187.076 298.011,185.673 298.011,184.77 298.154,183.369 298.334,182.491 298.744,181.183 299.084,180.381 299.731,179.195 300.208,178.491 301.064,177.456 301.659,176.86 302.695,176.005 303.399,175.529 304.584,174.882 305.386,174.543 306.693,174.133 307.571,173.953 308.971,173.811 309.871,173.81 311.278,173.953 312.153,174.132 313.466,174.541 314.267,174.88 315.001,175.279 315.112,174.177 315.29,173.304 315.676,172.06 316.014,171.258 316.625,170.131 317.101,169.424 317.443,169.009 315.426,168.76 315.083,168.704 312.879,168.256 312.574,168.182 310.726,167.668 310.479,167.591 308.975,167.077 308.842,167.029 308.403,168.129 308.277,168.416 307.778,169.449 307.194,170.358 306.605,171.068 304.475,172.483 303.726,172.71 300.69,172.547 299.205,171.915 297.919,171.081 297.527,170.717 297.506,160.043 297.454,134.245 297.454,134.245 297.445,129.615 297.86,129.29 298.557,129.297 298.45,129.134 298.196,128.463 298.138,128.296 297.905,127.596 297.851,127.421 297.643,126.696 297.594,126.51 297.437,125.86 297.428,121.346 297.42,117.232 298.103,114.589 298.363,113.854 299.677,110.977 300.1,110.244 301.987,107.596 302.597,106.903 305.082,104.616 305.871,104.036 308.981,102.24 309.881,101.846 313.022,100.866 312.863,100.535 312.712,100.134 312.566,99.6701 312.428,99.1293 312.366,98.8487 312.235,98.1475 312.194,97.8854 311.991,96.2762 311.77,94.5737 311.513,92.937 311.45,92.6333 310.478,93.4549 308.154,95.5087 308.125,95.5337 305.723,97.6202 305.583,97.7368 303.306,99.5569 302.948,99.8153 300.962,101.103 299.894,101.608 298.364,102.096 297.39,102.244 297.353,83.8571 298.183,82.3385 299.48,79.7975 299.556,79.6184 298.43,79.4807 297.344,79.3641 297.325,69.7511 297.311,63.0003 298.382,62.2378 299.808,61.0241 299.907,60.8982 299.158,60.4343 297.335,59.5693 297.304,59.5553 297.272,43.2874 298.518,42.6037 299.078,42.2384 298.668,41.495 297.264,39.3341 297.247,31.0547 297.247,31.0547 297.23,22.5863 304.553,22.5392 305.301,22.5344 307.589,23.7803 310.792,25.4716 311.389,25.7418 311.425,25.131 311.451,24.0822 311.455,23.2283 311.458,23.0836 311.48,22.4947 316.306,22.4636 328.06,22.3881 339.813,22.3125 351.566,22.237 363.319,22.1614 375.073,22.0858 378.48,22.0639 384.64,26.5851 385.347,27.2329 390.403,32.9789 390.965,33.7798 394.737,40.6624 395.101,41.5381 396.801,47.2819 396.818,47.2119 397.547,46.2975 399.03,45.0942 401.025,44.0929 401.569,43.8637 404.541,42.8372 404.832,42.7477 408.493,41.7575 408.7,41.7067 412.763,40.8146 412.949,40.778 415.652,40.3039 412.557,37.9949 407.786,35.4743 403.231,33.7478 399.106,32.5744 395.698,31.7214 395.365,31.6244 393.071,30.8562 391.146,29.5804 390.318,28.6418 389.211,25.9173 390.281,22.7963 390.907,22.0683 391.019,21.9833 410.332,21.8591 422.086,21.7836 441.637,21.6579 442.77,22.6938 443.65,23.8033 444.947,26.1176 445.457,27.5799 445.914,30.3956 445.953,31.5149 445.795,33.2337 445.694,33.8507 445.278,35.6099 445.183,35.9512 444.595,37.7754 444.557,37.8887 443.896,39.7651 443.274,41.6371 442.77,43.4929 442.433,45.3772 442.309,47.3551 442.362,48.1574 442.497,48.7866 442.671,49.2155 442.845,49.4743 443.031,49.6468 443.332,49.8144 443.901,49.9795 444.723,50.0496 445.357,49.9603 445.552,49.8638 445.78,49.6373 446.136,49.0227 446.511,47.9331 446.806,46.4336 446.981,44.6305 447.037,42.6222 447.003,40.9709 446.913,39.394 446.784,37.8988 446.631,36.4795 446.474,35.1369 446.471,35.1163 446.332,33.8772 446.322,33.7727 446.223,32.6603 446.209,32.4368 446.172,31.4532 446.185,30.8965 446.415,28.2649 446.565,27.4469 447.233,25.0735 447.558,24.2458 448.63,22.1591 448.989,21.6106 457.345,21.5569 469.099,21.4813 476.373,21.4346 " fill="none" stroke-width="0.5" stroke="rgb(0,0,0)" />
	<polygon points="258.258,446.903 257.825,446.955 257.556,447.023 257.301,447.13 256.92,447.36 256.341,447.812 255.548,448.552 254.476,449.687 254.37,449.795 253.71,450.448 254.571,450.127 256.199,449.848 256.525,449.853 256.847,449.87 257.275,449.909 257.777,449.982 258.282,450.086 258.909,450.264 259.464,450.467 260.161,450.792 260.74,451.126 261.425,451.612 262.002,452.11 262.551,452.684 261.176,449.728 261.137,449.641 260.727,448.709 260.382,448.129 260.014,447.661 259.652,447.309 259.33,447.075 259.085,446.95 258.949,446.908 258.754,446.888 " fill="none" stroke-width="0.5" stroke="rgb(0,0,0)" />
	<polygon points="184.626,435.764 187.066,439.816 187.347,440.367 189.333,445.025 189.549,445.659 190.546,449.532 190.834,449.649 192.153,450.038 193.757,450.392 195.475,450.668 197.152,450.842 198.609,450.899 200.56,450.792 202.475,450.455 204.263,449.869 205.842,449.032 207.184,447.928 208.301,446.482 209.189,444.533 209.848,441.488 211.386,438.981 211.439,438.958 209.973,439.285 209.336,439.379 202.652,439.879 201.971,439.877 195.753,439.388 195,439.263 189.804,437.936 189.037,437.663 184.803,435.705 184.438,435.493 " fill="none" stroke-width="0.5" stroke="rgb(0,0,0)" />
	<polygon points="226.734,382.574 225.854,382.939 217.586,385.371 216.724,385.534 206.908,386.405 206.026,386.396 197.829,385.491 196.89,385.283 194.918,384.616 195.754,385.447 196.192,385.953 198.672,389.301 199.007,389.827 200.845,393.213 201.12,393.826 202.262,396.99 202.479,397.857 202.871,400.543 202.889,401.695 202.659,403.69 202.377,404.817 201.718,406.484 201.108,407.559 200.065,408.918 199.257,409.728 197.873,410.797 197.064,411.294 195.386,412.092 194.688,412.355 192.76,412.902 192.194,413.023 190.061,413.337 189.608,413.38 187.314,413.481 186.814,413.475 183.956,413.278 183.417,413.208 180.523,412.649 180.065,412.535 177.195,411.658 176.795,411.514 174.012,410.363 173.647,410.192 171.011,408.81 170.663,408.607 168.236,407.04 167.887,406.79 165.73,405.082 165.363,404.757 163.538,402.952 163.192,402.567 162.019,401.1 161.655,400.571 161.354,400.057 162.214,403.547 162.33,404.266 163.069,413.77 163.072,414.418 162.752,419.102 162.663,419.732 161.601,424.682 161.388,425.385 159.433,430.326 159.037,431.098 156.038,435.755 155.407,436.528 151.212,440.628 150.362,441.279 144.821,444.547 143.867,444.968 136.827,447.13 136.43,447.208 136.911,447.299 137.767,447.426 138.698,447.532 139.679,447.616 140.682,447.68 141.686,447.723 142.669,447.748 143.484,447.754 148.667,447.424 152.916,446.514 156.353,445.112 159.035,443.304 161.061,441.123 162.523,438.525 163.444,435.421 163.784,431.597 163.779,431.277 163.761,430.764 163.73,430.228 163.69,429.675 163.641,429.11 163.586,428.536 163.525,427.959 163.461,427.376 164.123,424.51 166.427,422.683 169.831,422.887 171.934,423.91 172.403,424.174 174.921,425.803 175.116,425.944 175.029,425.777 174.05,423.383 173.774,422.393 173.461,420.411 173.424,419.326 173.456,418.958 173.627,418.068 173.723,417.749 174.139,416.791 174.297,416.52 174.963,415.646 175.18,415.424 175.991,414.77 176.266,414.598 177.075,414.197 177.405,414.074 178.12,413.873 178.503,413.798 179.095,413.725 179.53,413.7 179.979,413.697 181.002,413.742 181.375,413.775 182.299,413.894 182.517,413.927 183.454,414.096 183.462,414.097 184.455,414.277 185.584,414.445 187.033,414.593 188.958,414.701 191.115,414.737 195.819,413.872 198.642,411.909 200.971,408.664 203.136,404.239 205.409,399.478 205.739,398.902 208.56,394.731 209.585,393.657 213.54,390.708 215.341,389.909 221.027,388.79 222.227,388.719 223.272,388.8 223.787,388.87 225.035,389.114 225.448,389.216 226.823,389.624 227.214,389.761 228.235,390.171 228.103,389.811 228.041,389.628 227.732,388.659 227.627,388.27 227.409,387.282 227.319,386.682 227.236,385.662 227.237,384.936 227.325,383.869 227.459,383.091 227.714,382.134 227.759,382.013 " fill="none" stroke-width="0.5" stroke="rgb(0,0,0)" />
	<polygon points="241.93,408.452 241.957,408.69 242.03,409.562 242.044,409.81 242.069,410.669 242.017,411.484 241.239,416.46 240.859,417.686 238.653,422.316 238.074,423.227 234.635,427.414 234.006,428.04 229.529,431.685 228.908,432.109 223.587,435.115 222.979,435.4 217.724,437.397 220.756,436.938 226.982,435.072 232.468,432.484 237.186,429.267 241.112,425.508 244.224,421.286 246.498,416.669 248.019,411.323 249.541,409.164 249.336,409.225 248.488,409.389 247.473,409.485 246.417,409.459 245.479,409.323 244.417,409.032 243.551,408.674 242.916,408.35 242.095,407.844 241.823,407.662 241.82,407.661 " fill="none" stroke-width="0.5" stroke="rgb(0,0,0)" />
	<polygon points="325.949,413.854 325.063,414.258 315.559,417.391 314.618,417.592 308.04,418.264 308.495,418.428 309.661,419.126 310.953,420.3 311.725,421.347 312.304,422.406 312.798,423.703 312.978,424.3 313.309,425.752 313.344,425.924 313.606,427.331 313.856,428.388 313.988,428.723 314.043,428.769 314.75,429.271 314.772,429.288 315.68,429.941 315.959,430.16 316.826,430.895 317.323,431.39 318.057,432.245 318.656,433.145 319.163,434.156 319.583,435.46 319.772,436.664 319.778,436.896 320.047,436.507 320.218,436.275 321.822,434.249 321.959,434.084 322.681,433.257 322.796,433.13 323.515,432.367 323.675,432.205 324.39,431.521 324.615,431.32 325.324,430.728 325.643,430.485 326.343,430 326.801,429.723 327.491,429.359 328.144,429.079 328.822,428.85 329.716,428.648 330.38,428.568 331.753,428.618 332.414,428.745 333.053,428.919 334.005,429.256 334.081,429.284 335.283,429.734 335.794,429.906 334.713,429.387 334.064,429.005 332.48,427.882 331.636,427.1 330.635,425.899 329.77,424.255 329.421,423.014 329.254,421.809 329.254,413.773 329.443,412.492 329.707,411.615 " fill="none" stroke-width="0.5" stroke="rgb(0,0,0)" />
	<polygon points="255.475,391.545 255.399,392.119 255.261,392.808 255.12,393.34 254.901,394 254.707,394.485 254.65,394.607 254.912,394.981 255.287,395.617 255.597,396.253 255.87,396.948 256.074,397.618 256.241,398.376 256.335,399.028 256.392,399.851 256.382,400.575 256.287,401.587 256.123,402.432 255.847,403.363 255.517,404.176 255.077,405.009 254.588,405.747 254,406.467 253.373,407.095 252.654,407.683 251.916,408.174 251.082,408.615 250.614,408.806 253.912,408.393 256.76,409.501 257.134,409.667 259.994,411.094 260.283,411.252 263.066,412.909 263.307,413.063 265.925,414.859 266.145,415.021 268.509,416.866 268.734,417.054 270.757,418.859 271.018,419.113 272.074,420.223 273.073,420.004 273.268,419.966 274.553,419.744 274.738,419.716 276.072,419.544 276.247,419.525 277.631,419.401 277.796,419.39 279.229,419.315 279.384,419.31 280.866,419.285 281.044,419.286 283.175,419.336 283.374,419.345 285.577,419.495 285.764,419.512 288.045,419.764 288.22,419.787 290.584,420.144 290.746,420.172 293.2,420.636 293.349,420.666 295.899,421.239 296.034,421.271 297.335,421.606 297.689,421.009 298.195,420.331 299.045,419.469 299.736,418.937 300.522,418.497 291.155,417.544 290.222,417.347 280.138,414.047 279.255,413.648 270.649,408.554 269.897,407.994 262.796,401.439 262.211,400.78 256.641,393.094 256.221,392.385 255.518,390.897 " fill="none" stroke-width="0.5" stroke="rgb(0,0,0)" />
	<polygon points="351.137,386.026 350.866,386.74 347.258,394.214 346.847,394.899 341.792,401.841 341.219,402.485 340.479,403.171 343.561,402.243 344.082,402.12 348.022,401.435 348.536,401.376 353.043,401.124 353.452,401.12 357.245,401.257 357.6,401.284 361.07,401.688 361.487,401.757 364.578,402.418 365.088,402.56 367.744,403.469 368.387,403.747 370.551,404.895 370.821,405.077 370.199,404.069 369.673,402.825 369.226,401.055 369.44,398.234 370.658,395.349 370.676,395.322 369.02,396.23 367.853,396.671 362.657,397.835 360.689,397.83 359.539,397.566 358.027,396.905 356.95,396.17 356.108,395.424 355.129,394.305 354.67,393.676 353.813,392.259 353.542,391.733 352.833,390.104 352.658,389.63 352.121,387.875 352.004,387.402 351.663,385.607 351.596,385.08 351.559,384.546 " fill="none" stroke-width="0.5" stroke="rgb(0,0,0)" />
	<polygon points="117.993,385.342 117.091,386.254 116.46,387.256 116.072,388.372 115.93,389.666 116.218,392.478 117.018,394.935 118.252,397.061 119.871,398.866 121.822,400.331 124.037,401.42 126.434,402.095 127.198,402.165 125.532,401.537 124.922,401.253 123.011,400.178 122.398,399.763 120.823,398.493 120.206,397.888 119.018,396.471 118.441,395.588 117.69,394.074 117.289,392.833 117.027,391.271 116.983,390.151 117.087,388.961 117.237,388.138 117.537,387.076 117.869,386.236 118.349,385.31 118.593,384.942 " fill="none" stroke-width="0.5" stroke="rgb(0,0,0)" />
	<polygon points="277.396,386.896 281.009,390.688 285.558,393.968 290.976,396.543 297.203,398.227 304.288,398.841 307.809,398.695 310.976,398.278 313.632,397.648 315.713,396.88 315.722,396.875 314.949,396.508 314.276,396.025 312.615,393.714 312.36,392.881 312.234,390.796 312.324,390.291 312.464,389.805 311.012,390.381 310.791,390.462 308.035,391.389 307.702,391.487 304.49,392.296 304.082,392.379 300.374,392.951 299.923,392.997 295.681,393.215 295.142,393.21 291.629,392.963 291.025,392.879 287.635,392.167 287.043,391.999 283.882,390.862 283.277,390.592 280.452,389.07 279.819,388.655 277.436,386.788 277.154,386.516 " fill="none" stroke-width="0.5" stroke="rgb(0,0,0)" />
	<polygon points="247.964,359.977 247.685,360.736 244.872,366.665 244.422,367.414 240.355,372.88 239.719,373.57 236.939,376.007 237.9,376.117 238.937,376.363 239.965,376.743 240.899,377.219 241.784,377.811 242.514,378.423 243.257,379.194 243.771,379.837 244.149,380.414 244.269,380.396 244.715,380.354 245.282,380.328 245.925,380.346 247.171,380.472 248.088,380.663 249.194,381.018 250.064,381.405 251.023,381.961 251.758,382.497 249.512,374.211 249.375,373.444 248.56,364.357 248.565,363.513 249.505,354.206 " fill="none" stroke-width="0.5" stroke="rgb(0,0,0)" />
	<polygon points="353.657,361.421 353.084,362.108 350.89,364.257 350.13,364.854 348.89,365.627 350.096,365.293 352.802,366.446 354.229,370.189 353.473,377.522 353.542,377.433 354.235,376.731 354.913,376.168 355.869,375.523 356.455,375.189 357.703,374.599 358.164,374.412 359.732,373.875 360.08,373.771 361.842,373.324 370.902,370.313 371.043,370.228 370.146,370.319 369.299,370.323 366.929,370.11 366.101,369.955 363.966,369.343 363.152,369.019 361.276,368.051 360.526,367.562 358.935,366.281 358.295,365.649 357.014,364.097 356.517,363.353 355.571,361.575 355.235,360.758 354.889,359.598 " fill="none" stroke-width="0.5" stroke="rgb(0,0,0)" />
	<polygon points="299.254,351.364 297.415,353.53 294.228,355.448 293.273,355.879 288.768,357.302 288.706,357.321 283.812,358.787 279.446,360.726 276.055,363.482 273.691,367.673 272.931,372.864 273.194,372.305 273.399,371.956 273.965,371.192 274.219,370.917 275.019,370.234 275.318,370.035 276.291,369.546 276.63,369.425 277.645,369.192 278.02,369.151 278.83,369.137 279.029,369.151 279.142,368.038 279.202,367.634 279.442,366.409 279.606,365.801 280.001,364.666 280.433,363.766 281.022,362.826 282.058,361.679 282.879,361.039 284.673,360.199 285.767,359.963 288.257,360.14 289.673,360.666 290.776,361.264 292.644,362.65 292.742,362.724 295.118,364.591 298.079,366.609 301.854,368.595 302.591,368.861 302.108,368.348 301.202,367.175 300.752,366.461 300.08,365.13 299.776,364.356 299.357,362.903 299.202,362.087 299.058,360.55 299.044,359.923 299.096,358.817 299.127,358.467 299.265,357.377 299.302,357.14 299.497,356.066 299.522,355.94 299.747,354.882 299.75,354.868 299.963,353.878 300.127,353.019 300.224,352.311 300.256,351.713 300.246,351.458 300.214,351.21 300.164,350.991 300.092,350.78 299.988,350.557 299.834,350.301 299.731,350.165 " fill="none" stroke-width="0.5" stroke="rgb(0,0,0)" />
	<polygon points="323.532,362.49 323.088,364.049 322.783,364.829 322.068,366.251 321.611,366.976 320.645,368.222 320.039,368.862 318.843,369.896 318.102,370.415 316.698,371.2 315.855,371.563 315.241,371.755 320.546,372.093 323.583,372.022 327.225,371.786 331.153,371.362 335.14,370.734 338.95,369.891 342.333,368.842 345.014,367.642 345.505,367.3 343.52,367.981 342.547,368.197 339.073,368.566 338.215,368.574 334.994,368.293 334.179,368.144 331.237,367.318 330.409,366.993 327.793,365.652 327.012,365.142 324.768,363.313 324.101,362.64 323.617,362.033 " fill="none" stroke-width="0.5" stroke="rgb(0,0,0)" />
	<polygon points="386.634,305.757 385.668,306.558 384.54,307.819 383.389,309.448 382.303,311.342 381.35,313.397 380.632,315.366 380.372,316.708 380.157,319.049 379.981,322.039 379.793,325.224 379.784,325.348 379.522,328.353 379.483,328.67 379.079,331.192 378.881,331.97 378.268,333.706 376.686,335.825 376.397,336.035 378.518,337.552 379.152,338.102 381.638,340.712 382.194,341.429 384.024,344.366 384.443,345.237 385.572,348.437 385.798,349.416 386.184,352.813 386.194,353.713 385.97,356.213 385.825,357.009 385.605,357.797 385.877,357.478 385.901,357.45 389.909,352.818 390.417,352.319 395.028,348.455 396.096,347.792 402.119,345.144 403.126,344.869 402.793,344.719 401.535,343.867 400.406,342.779 400.07,342.417 398.793,340.879 398.692,340.753 397.341,339 396.041,337.333 395.565,336.781 394.485,337.714 393.275,338.767 393.141,338.879 391.993,339.802 391.602,340.083 390.58,340.736 389.449,341.253 388.613,341.5 386.796,341.649 386.609,341.626 385.535,341.353 385.366,341.286 384.457,340.801 384.308,340.698 383.609,340.097 383.483,339.963 382.975,339.315 382.874,339.158 382.523,338.496 382.448,338.32 382.222,337.643 382.175,337.455 382.06,336.752 382.044,336.559 382.085,335.489 382.363,333.754 382.546,333.021 383.279,330.872 383.379,330.605 384.416,328.105 384.432,328.066 385.597,325.331 386.713,322.494 387.642,319.636 388.263,316.843 388.498,314.029 388.471,312.578 388.356,310.742 388.124,308.869 387.762,307.177 387.314,305.918 387.074,305.526 " fill="none" stroke-width="0.5" stroke="rgb(0,0,0)" />
	<polygon points="54.9362,335.713 55.829,343.033 59.5427,349.005 65.3528,354.755 66.274,355.634 65.6089,354.169 65.3236,353.325 64.8274,351.163 64.7149,350.213 64.6896,347.751 64.7896,346.766 65.281,344.49 65.575,343.599 66.5034,341.542 66.9344,340.792 68.2203,338.986 68.7402,338.38 69.4859,337.653 66.4554,337.281 66.0649,337.215 63.1946,336.599 62.5943,336.426 60.1256,335.519 59.3717,335.159 57.2308,333.876 56.4962,333.325 55.8867,332.761 " fill="none" stroke-width="0.5" stroke="rgb(0,0,0)" />
	<polygon points="322.581,321.764 320.889,323.961 319.589,324.846 318.374,325.427 317.874,325.578 318.587,326.234 319.253,327.004 319.86,327.895 320.361,328.869 320.689,329.765 320.933,330.798 321.031,331.672 321.028,332.695 320.871,334.017 320.577,335.162 320.135,336.254 319.521,337.318 318.837,338.197 318.045,338.986 317.162,339.667 316.376,340.153 315.337,340.654 314.655,340.916 313.502,341.254 312.936,341.38 311.714,341.571 311.242,341.619 309.992,341.679 309.672,341.682 308.741,341.66 308.575,341.653 307.613,341.594 307.511,341.586 306.519,341.502 306.476,341.499 305.462,341.403 304.452,341.31 303.467,341.233 302.508,341.181 301.592,341.162 300.425,341.198 299.351,341.31 299.078,341.364 299.429,341.869 299.923,342.8 300.025,343.063 301.161,342.239 302.792,342.066 306.429,342.357 307.156,342.476 310.442,343.299 311.163,343.547 314.059,344.829 314.752,345.213 317.214,346.881 317.858,347.412 318.813,348.362 318.814,347.852 319.06,345.085 319.158,344.473 319.807,341.679 319.911,341.307 320.829,338.492 320.889,338.321 321.94,335.494 322.959,332.747 323.787,330.183 324.324,327.837 324.52,325.594 324.495,324.937 324.406,324.191 324.255,323.459 324.035,322.731 323.737,321.993 323.346,321.234 322.975,320.648 " fill="none" stroke-width="0.5" stroke="rgb(0,0,0)" />
	<polygon points="179.897,335.039 180.441,335.617 183.101,338.01 185.757,339.891 188.503,341.365 191.42,342.497 194.586,343.33 198.07,343.894 201.92,344.213 206.103,344.311 206.564,344.288 205.906,344.302 205.37,344.282 198.761,343.625 197.955,343.469 191.517,341.59 190.806,341.314 184.758,338.35 184.118,337.967 179.648,334.752 " fill="none" stroke-width="0.5" stroke="rgb(0,0,0)" />
	<polygon points="213.308,343.477 213.231,343.492 212.115,343.7 212.015,343.718 210.913,343.897 210.789,343.915 209.696,344.062 209.55,344.079 208.458,344.189 208.304,344.201 209.751,344.129 212.979,343.625 214.164,343.302 " fill="none" stroke-width="0.5" stroke="rgb(0,0,0)" />
	<polygon points="219.165,338.577 218.227,341.364 215.991,342.772 218.043,341.924 219.702,340.924 220.675,340.043 220.972,339.581 220.821,339.015 219.995,338.058 218.616,337.07 " fill="none" stroke-width="0.5" stroke="rgb(0,0,0)" />
	<polygon points="367.798,280.398 368.031,280.609 371.19,283.682 371.551,284.077 373.737,286.786 374.411,287.941 375.228,290.001 374.943,293.869 374.077,295.366 372.575,296.917 370.242,298.367 369.541,298.722 366.14,300.078 365.765,300.209 361.695,301.424 361.447,301.491 357.107,302.518 356.905,302.561 352.693,303.354 352.48,303.389 348.796,303.898 348.476,303.931 345.717,304.112 345.024,304.103 344.431,304.049 343.508,303.865 343.034,303.717 342.662,303.55 342.965,305.105 343.033,306.316 342.932,307.562 342.777,308.418 342.463,309.523 342.053,310.503 341.509,311.461 340.81,312.387 340.021,313.189 339.157,313.872 338.105,314.51 337.267,314.905 335.937,315.371 335.889,315.384 339.691,317.129 340.342,317.496 345.201,320.809 345.789,321.287 349.806,325.174 350.307,325.75 353.464,330.079 353.863,330.74 355.923,334.936 355.878,334.715 357.221,332.098 357.33,332.063 357.246,332.057 356.677,331.985 356.55,331.96 355.945,331.798 355.826,331.757 355.17,331.469 355.063,331.412 354.355,330.938 354.265,330.864 353.562,330.142 353.492,330.052 352.912,329.059 352.868,328.953 352.554,327.796 352.539,327.674 352.607,326.141 352.825,325.154 353.095,324.328 353.669,323.017 353.823,322.702 354.635,321.186 354.71,321.052 355.642,319.45 355.662,319.416 356.134,318.621 355.204,318.389 353.109,317.892 352.92,317.843 351.071,317.317 350.444,317.087 349.137,316.492 347.329,314.985 346.833,314.272 346.044,311.439 346.44,309.874 346.643,309.431 348.086,307.676 348.659,307.263 349.489,306.791 350.373,306.408 350.813,306.243 351.951,305.887 352.207,305.815 353.541,305.482 353.7,305.446 355.174,305.136 355.274,305.116 356.829,304.826 356.889,304.815 358.341,304.565 361.502,303.828 364.785,302.719 368.05,301.254 371.052,299.495 373.557,297.538 375.365,295.524 376.384,293.617 376.725,291.691 376.441,289.368 375.63,287.291 374.328,285.376 372.538,283.546 370.331,281.794 367.835,280.117 366.444,279.256 " fill="none" stroke-width="0.5" stroke="rgb(0,0,0)" />
	<polygon points="366.104,328.291 364.732,329.096 363.306,329.951 363.209,330.007 361.875,330.762 361.562,330.923 361.422,330.988 365.571,331.558 366.22,331.697 367.283,332.009 366.98,331.011 366.911,330.754 366.485,328.972 366.282,328.197 " fill="none" stroke-width="0.5" stroke="rgb(0,0,0)" />
	<polygon points="73.9474,306.787 72.3559,311.206 71.3594,315.027 71.0176,318.192 71.0545,319.498 71.2028,320.905 71.4888,322.254 71.9555,323.609 72.6685,325.04 73.7143,326.601 75.1862,328.323 75.7407,328.852 75.8232,328.379 76.0414,327.579 76.8023,325.554 77.176,324.791 78.2803,322.993 78.7995,322.307 80.2172,320.768 80.8585,320.195 82.5596,318.947 83.2898,318.512 85.2441,317.589 86.0236,317.306 88.201,316.739 89.0297,316.605 91.4635,316.445 92.3681,316.477 94.6151,316.789 95.4938,317.004 97.536,317.73 98.3198,318.098 100.139,319.179 100.793,319.653 102.371,321.032 102.892,321.572 104.211,323.19 104.535,323.659 104.614,323.633 105.408,323.399 105.694,323.325 106.516,323.141 106.805,323.086 107.391,322.995 106.918,322.775 105.194,321.715 104.415,321.108 103.06,319.785 102.483,319.094 101.472,317.598 101.084,316.895 100.392,315.32 100.153,314.626 99.756,313.062 99.6358,312.352 99.5089,310.893 99.5076,310.821 99.3182,310.961 97.034,312.277 96.1301,312.671 93.6156,313.45 92.7214,313.63 90.0338,313.886 89.1815,313.886 87.4235,313.715 86.5899,313.553 84.8862,313.049 84.0983,312.731 82.5043,311.904 81.7785,311.432 80.3495,310.291 79.7138,309.67 78.5051,308.226 77.9973,307.476 77.0643,305.74 76.7198,304.905 76.1179,302.886 75.9605,302.076 " fill="none" stroke-width="0.5" stroke="rgb(0,0,0)" />
	<polygon points="419.826,321.834 420.286,322.422 420.503,322.857 420.602,323.646 421.541,321.821 421.734,321.525 " fill="none" stroke-width="0.5" stroke="rgb(0,0,0)" />
	<polygon points="400.072,302.787 400.696,304.742 401.752,306.859 403.188,309.018 404.925,311.112 406.869,313.045 408.917,314.733 411.087,316.188 412.103,316.81 413.262,317.451 414.527,318.119 415.287,318.519 414.109,316.585 414.03,316.45 412.219,313.227 410.043,309.696 407.525,306.358 404.745,303.676 401.838,301.993 399.939,301.634 " fill="none" stroke-width="0.5" stroke="rgb(0,0,0)" />
	<polygon points="123.331,281.634 125.575,287.923 125.627,288.081 127.586,294.296 127.682,294.649 129.067,300.757 129.16,301.351 129.685,307.322 129.682,308.139 129.452,310.521 129.295,311.341 128.908,312.664 128.962,312.608 129.535,312.097 130.15,311.639 131.406,310.984 131.885,310.825 133.713,310.619 133.893,310.636 135.028,310.898 135.177,310.954 136.466,311.702 136.587,311.803 137.516,312.87 137.611,313.022 138.053,313.961 138.123,314.17 138.287,314.819 138.335,315.091 138.387,315.505 138.415,315.848 138.427,316.107 138.433,316.358 138.469,316.735 138.525,316.933 138.63,317.15 138.769,317.337 138.93,317.483 139.13,317.6 139.434,317.698 139.951,317.749 140.422,317.707 140.773,317.605 141.02,317.477 141.2,317.33 141.342,317.155 141.457,316.934 141.542,316.645 141.552,316.535 140.536,311.78 137.509,305.498 132.892,297.761 127.482,288.888 127.384,288.718 123.06,280.868 " fill="none" stroke-width="0.5" stroke="rgb(0,0,0)" />
	<polygon points="420.05,262.674 419.864,263.431 419.408,264.767 419.274,265.112 418.63,266.587 418.563,266.734 417.824,268.271 417.816,268.288 417.388,269.169 417.841,269.271 419.695,269.68 419.894,269.729 421.518,270.167 422.135,270.383 423.284,270.882 425.102,272.337 425.537,272.933 426.391,275.748 425.867,277.661 425.4,278.532 423.579,280.353 422.305,281.035 421.449,281.385 419.558,281.936 419.21,282.022 416.892,282.499 416.784,282.52 414.255,282.976 411.785,283.451 409.65,283.972 407.933,284.581 406.526,285.235 405.294,285.92 404.328,286.58 403.635,287.182 403.202,287.685 402.976,288.069 402.963,288.107 402.987,288.115 403.931,288.273 405.218,288.374 406.669,288.404 410.429,288.163 413.816,287.539 416.929,286.64 419.752,285.586 422.275,284.493 424.454,283.503 424.61,283.435 426.35,282.723 427.089,282.494 428.329,282.224 429.648,282.138 429.835,282.153 430.629,282.293 430.798,282.339 431.623,282.654 431.772,282.728 432.562,283.234 432.688,283.335 433.369,284.013 433.471,284.139 433.981,284.93 434.056,285.079 434.375,285.908 434.422,286.078 434.564,286.879 434.58,287.068 434.399,288.749 434.144,289.579 433.708,290.559 433.035,291.682 432.839,291.982 431.888,293.313 431.829,293.393 430.756,294.826 429.749,296.209 429.351,296.818 429.96,297.223 431.76,298.242 433.69,299.284 433.793,299.342 435.498,300.322 435.916,300.594 437.101,301.465 438.357,302.892 438.764,303.627 438.862,307.758 438.773,307.938 438.04,308.999 437.901,309.148 437.039,309.866 436.851,309.986 436.086,310.376 435.848,310.47 435.26,310.655 434.973,310.724 434.544,310.805 434.208,310.852 433.901,310.884 433.516,310.91 433.296,310.92 432.862,310.928 432.646,310.927 431.877,310.905 431.696,310.896 430.85,310.837 430.749,310.828 429.846,310.745 429.805,310.741 428.87,310.645 427.945,310.552 427.074,310.476 426.362,310.43 426.346,310.928 426.313,312.764 426.309,312.908 426.218,314.71 426.176,315.138 425.949,316.674 425.795,317.23 426.521,316.738 428.482,315.682 429.3,315.341 431.457,314.686 432.318,314.515 434.622,314.29 435.215,314.272 437.256,314.346 437.604,314.372 439.138,314.548 439.118,314.413 439.076,313.985 439.003,312.475 439.011,311.905 439.207,309.447 439.323,308.729 439.904,306.386 440.154,305.655 441.111,303.494 441.52,302.764 441.719,302.477 439.353,300.083 437.386,293.575 435.252,287.385 432.895,281.508 430.285,275.999 427.39,270.911 424.183,266.291 420.635,262.178 420.189,261.772 " fill="none" stroke-width="0.5" stroke="rgb(0,0,0)" />
	<polygon points="311.481,302.126 310.883,302.608 306.293,305.691 305.482,306.122 299.515,308.539 298.63,308.794 294.764,309.488 304.267,308.524 304.904,308.505 307.717,308.624 308.1,308.657 310.739,308.999 311.147,309.071 313.55,309.613 314.011,309.743 316.116,310.464 316.672,310.697 318.417,311.573 319.12,312.012 320.443,313.022 321.306,313.892 321.947,314.748 322.257,313.93 322.561,313.75 320.924,312.774 320.322,312.344 318.67,310.941 318.054,310.302 316.735,308.627 316.176,307.707 315.303,305.775 314.954,304.582 314.638,302.408 314.623,301.245 314.84,299.414 314.978,298.773 " fill="none" stroke-width="0.5" stroke="rgb(0,0,0)" />
	<polygon points="107.517,291.993 107.508,292.285 107.231,296.492 107.136,297.156 106.344,300.757 106.107,301.509 106.001,301.763 107.852,301.903 108.135,302.061 109.85,303.77 110.084,304.186 110.3,304.627 110.447,304.972 110.749,304.943 110.892,304.895 110.936,304.842 111.107,304.497 111.319,303.748 111.482,302.59 111.539,301.138 111.214,296.388 110.35,291.867 109.084,287.354 107.575,282.737 107.572,282.73 107.517,282.56 " fill="none" stroke-width="0.5" stroke="rgb(0,0,0)" />
	<polygon points="458.272,286.245 456.853,286.901 455.444,288.068 453.974,289.843 452.464,292.178 450.904,294.942 450.438,295.796 451.202,295.544 452.145,295.343 454.853,295.068 456.011,295.102 459.2,295.615 460.468,296.021 463.13,297.341 463,295.098 463.029,294.956 463.037,294.902 463.049,294.781 463.061,294.601 463.069,294.365 463.075,294.079 463.077,293.749 463.077,293.487 463,291.899 462.772,290.347 462.391,288.877 461.889,287.641 461.343,286.765 460.869,286.292 460.499,286.095 459.96,286.008 " fill="none" stroke-width="0.5" stroke="rgb(0,0,0)" />
	<polygon points="335.988,292.603 336.016,292.663 337.012,294.217 338.34,296.037 338.974,296.899 338.984,296.77 339.112,296.204 339.395,295.358 339.732,294.61 339.872,294.325 340.348,293.443 340.386,293.374 340.728,292.766 340.678,292.759 338.902,292.636 336.67,292.591 " fill="none" stroke-width="0.5" stroke="rgb(0,0,0)" />
	<polygon points="91.6668,270.161 91.6141,270.281 88.7163,276.609 88.6572,276.733 85.7436,282.61 85.7057,282.685 83.3504,287.219 81.3366,291.106 83.0382,291.055 83.5542,291.212 85.0258,291.986 85.5473,292.4 85.979,292.792 86.5441,293.377 87.0594,293.91 87.4254,294.228 87.6687,294.381 87.8674,294.454 88.1619,294.487 89.3742,294.321 89.8631,294.058 90.3288,293.493 90.927,292.037 91.4462,289.513 91.78,286.01 91.9373,281.628 91.9744,276.408 91.9806,276.202 92.3333,269.614 92.388,269.118 92.5716,268.021 " fill="none" stroke-width="0.5" stroke="rgb(0,0,0)" />
	<polygon points="392.067,263.445 391.535,266.003 391.508,266.125 390.898,268.698 390.897,268.702 390.301,271.209 389.806,273.564 389.478,275.721 389.361,277.701 389.412,278.933 389.573,280.151 389.831,281.206 390.143,281.994 390.422,282.439 390.549,282.563 390.609,282.529 391.041,282.111 391.607,281.292 392.167,280.126 392.628,278.698 392.931,277.094 393.044,275.295 392.997,273.018 392.867,270.782 392.682,268.683 392.466,266.726 392.245,264.918 392.244,264.91 392.067,263.443 " fill="none" stroke-width="0.5" stroke="rgb(0,0,0)" />
	<polygon points="350.565,267.113 350.188,267.273 345.715,268.93 341.634,270.525 338.733,272.147 337.337,273.65 336.829,275.657 336.906,276.248 337.122,276.732 337.458,277.121 338.048,277.532 338.938,277.919 340.054,278.215 341.273,278.388 342.499,278.444 342.866,278.435 342.854,278.222 342.805,277.645 342.744,277.036 342.681,276.419 342.677,276.385 342.621,275.795 342.612,275.697 342.572,275.152 342.563,274.964 342.548,274.475 342.565,273.926 342.589,273.663 342.738,272.864 342.81,272.61 343.101,271.851 343.218,271.614 343.657,270.903 343.817,270.691 344.409,270.049 344.611,269.869 345.352,269.335 345.592,269.197 346.451,268.817 346.728,268.728 347.641,268.538 347.952,268.507 349.677,268.672 351.759,269.296 352.61,269.651 354.391,270.621 353.909,269.71 353.745,269.17 353.866,266.236 354.05,265.773 354.47,265.242 " fill="none" stroke-width="0.5" stroke="rgb(0,0,0)" />
	<polygon points="359.758,244.175 357.969,245.65 357.263,246.127 355.213,247.241 354.411,247.58 352.148,248.285 351.274,248.463 349.77,248.616 349.943,248.699 352.343,249.624 354.864,250.244 358.035,250.508 360.721,251.706 362.073,254.318 361.669,256.888 359.925,260.475 358.743,261.973 357.963,262.611 357.995,262.6 358.606,262.441 359.503,262.274 359.86,262.222 360.838,262.12 361.061,262.103 362.044,262.051 362.186,262.046 363.095,262.027 363.173,262.026 363.912,262.023 364.596,262.015 364.544,261.253 364.543,261.241 364.478,260.259 364.476,260.218 364.419,259.222 364.416,259.15 364.376,258.166 364.373,258.057 364.358,257.11 364.358,256.979 364.367,256.341 364.371,256.184 364.4,255.591 364.417,255.365 364.471,254.83 364.517,254.496 364.6,254.031 364.722,253.521 364.838,253.138 365.168,252.338 365.321,252.049 366.215,250.884 366.41,250.701 367.748,249.964 366.594,249.61 365.801,249.28 364.683,248.682 363.973,248.21 362.984,247.405 362.373,246.802 361.546,245.809 361.055,245.086 360.423,243.923 360.301,243.633 " fill="none" stroke-width="0.5" stroke="rgb(0,0,0)" />
	<polygon points="443.395,248.825 444.284,251.15 445.463,254.072 445.465,254.076 446.819,257.441 446.842,257.499 448.229,261.095 448.271,261.208 448.501,261.856 449.983,259.062 450.039,258.961 451.721,255.979 451.761,255.909 453.211,253.445 451.801,252.732 451.649,252.652 448.193,250.734 447.932,250.576 444.455,248.322 444.075,248.046 442.685,246.92 " fill="none" stroke-width="0.5" stroke="rgb(0,0,0)" />
	<polygon points="380.069,194.894 380.069,195.802 379.919,197.274 379.737,198.154 379.306,199.529 378.965,200.331 378.283,201.578 377.806,202.281 376.905,203.37 376.31,203.964 375.22,204.865 374.518,205.34 374.162,205.534 374.216,205.551 375.02,205.889 376.416,206.646 377.126,207.124 378.342,208.126 378.943,208.727 379.946,209.941 380.425,210.651 381.182,212.045 381.521,212.85 381.999,214.391 382.176,215.263 382.343,216.918 382.343,217.808 382.176,219.468 382,220.339 381.522,221.884 381.184,222.688 380.427,224.085 379.948,224.796 378.945,226.012 378.344,226.614 377.128,227.617 376.417,228.096 375.021,228.853 374.72,228.98 375.136,229.149 376.297,229.755 377.006,230.215 378.011,231.013 378.622,231.602 379.446,232.563 379.943,233.271 380.561,234.367 380.92,235.184 381.309,236.387 381.501,237.29 381.636,238.569 381.642,239.452 381.506,240.898 381.342,241.75 380.952,243.063 380.613,243.89 379.993,245.053 379.49,245.803 378.665,246.796 378.023,247.427 377.018,248.232 376.274,248.714 375.114,249.312 374.308,249.631 373.017,250.004 372.323,250.134 373.672,250.934 374.761,251.904 375.251,252.415 376.37,253.786 376.553,254.027 377.666,255.598 377.71,255.662 378.422,256.704 379.209,255.882 380.426,254.604 380.596,254.434 381.784,253.315 382.277,252.912 383.404,252.12 384.727,251.485 385.766,251.185 387.382,251.026 387.682,251.052 388.654,251.246 388.909,251.327 390.053,251.883 390.264,252.025 391.24,252.927 391.409,253.137 391.993,254.09 392.121,254.374 392.386,255.142 392.476,255.505 392.574,256.052 392.627,256.501 392.651,256.834 392.681,256.773 392.828,256.532 393.443,255.741 393.622,255.557 394.461,254.885 394.669,254.756 395.63,254.309 395.862,254.233 396.808,254.034 397.06,254.009 399.057,254.27 400.034,254.636 401.422,255.47 402.389,256.325 402.887,256.843 403.849,258.021 404.01,258.231 404.965,259.554 405.829,260.733 405.942,260.864 406.738,260.332 407.957,259.392 409.238,258.361 409.324,258.293 410.532,257.369 410.883,257.126 411.932,256.472 412.679,256.136 412.506,256.029 407.601,254.147 402.185,252.627 396.796,251.122 396.365,250.978 391.553,249.087 390.617,248.583 386.74,245.851 385.558,244.617 382.971,240.587 382.324,238.898 381.382,233.114 381.336,232.088 381.471,230.16 381.524,229.719 381.882,227.637 381.931,227.392 382.436,225.195 382.46,225.093 383.038,222.83 383.599,220.599 384.061,218.497 384.365,216.59 384.475,214.839 384.465,214.441 384.431,214.007 384.378,213.631 384.309,213.315 384.231,213.057 384.147,212.851 384.06,212.686 383.828,212.342 383.084,209.496 384.277,206.808 386.887,205.452 389.466,205.855 394.773,208.435 395.652,208.999 399.284,211.984 400.064,212.813 402.247,215.83 403.496,213.652 407.069,212.616 413.801,213.628 414.303,213.733 419.76,215.21 420.544,215.504 424.988,217.665 425.884,218.242 429.577,221.306 430.269,222.026 433.473,226.212 433.858,226.807 434.619,228.221 434.799,227.008 435.113,225.904 436.858,221.845 437.284,221.074 439.807,217.42 440.23,216.897 443.215,213.728 443.609,213.358 446.739,210.755 447.13,210.465 450.091,208.506 450.561,208.235 453.037,207.001 453.917,206.674 455.591,206.245 455.84,206.228 455.224,205.95 452.794,205.253 451.424,205.093 450.477,205.252 448.539,205.95 445.681,207.139 445.599,207.172 442.011,208.582 441.767,208.67 437.457,210.081 437.113,210.178 431.992,211.409 431.589,211.486 425.566,212.357 425.139,212.397 418.126,212.728 417.353,212.697 404.588,211.066 403.389,210.738 393.102,206.301 392.053,205.664 384.005,199.102 383.266,198.336 379.975,193.979 " fill="none" stroke-width="0.5" stroke="rgb(0,0,0)" />
	<polygon points="314.827,221.522 314.132,221.994 312.44,222.921 311.643,223.262 309.785,223.85 308.901,224.034 306.92,224.239 306.003,224.239 304.748,224.109 305.797,225.098 307,228.82 308.656,230.683 311.356,232.289 314.986,233.866 315.15,233.941 318.949,235.778 319.749,236.275 323.013,238.82 324.095,240.043 326.38,243.858 326.961,245.474 327.275,247.531 327.367,247.415 328.36,246.43 329.135,245.817 330.252,245.119 331.01,244.74 332.178,244.29 332.863,244.087 334.011,243.846 334.625,243.761 335.681,243.689 336.515,243.711 336.587,243.719 336.442,243.575 334.968,241.789 334.49,241.082 333.376,239.034 333.036,238.232 332.332,235.971 332.153,235.096 331.908,232.672 331.908,231.814 331.725,231.913 330.924,232.251 329.613,232.659 328.739,232.838 327.334,232.98 326.434,232.98 325.039,232.837 324.161,232.657 322.858,232.249 322.056,231.908 320.874,231.263 320.17,230.786 319.137,229.932 318.541,229.336 317.688,228.301 317.211,227.596 316.566,226.41 316.226,225.608 315.817,224.299 315.638,223.423 315.495,222.018 315.495,221.118 315.512,220.956 " fill="none" stroke-width="0.5" stroke="rgb(0,0,0)" />
	<polygon points="407.474,228.571 409.308,232.22 412.041,235.908 414.54,238.299 418.148,241.207 418.155,241.213 422.536,244.759 422.577,244.794 416.118,237.234 410.123,230.37 409.987,230.206 406.408,225.689 " fill="none" stroke-width="0.5" stroke="rgb(0,0,0)" />
	<polygon points="84.9221,211.117 83.6913,212.341 83.1262,212.717 82.7304,212.951 82.0838,213.29 81.7049,213.467 80.9764,213.765 80.6189,213.894 80.5986,213.901 80.8456,213.933 82.0123,214.248 82.6946,214.536 83.7081,215.134 84.2795,215.582 85.0146,216.312 85.4775,216.894 85.9472,217.619 86.3035,218.307 86.5802,218.966 86.832,219.734 86.9816,220.324 87.1311,221.145 87.1955,221.683 87.2449,222.531 87.2208,223.32 86.7632,227.138 86.666,227.671 85.4596,232.576 85.3957,232.809 83.7634,238.173 83.7767,238.139 85.0465,234.32 85.0752,234.236 85.6886,232.507 85.7985,232.227 86.4528,230.715 86.6086,230.391 87.2956,229.1 87.5235,228.719 88.2352,227.654 88.5804,227.202 89.3086,226.366 89.8472,225.844 90.5838,225.242 91.4281,224.698 92.1649,224.334 93.4006,223.934 94.1296,223.812 95.4866,223.794 96.1303,223.885 97.3248,224.228 97.9365,224.501 98.929,225.111 99.4921,225.569 100.206,226.301 100.704,226.946 101.164,227.678 101.58,228.511 101.849,229.18 102.166,230.204 102.306,230.791 102.508,232.007 102.563,232.514 102.635,233.925 102.62,234.572 102.229,238.669 102.149,239.188 101.121,243.931 103.154,240.606 103.5,240.118 107.638,235.035 106.499,235.079 104.131,233.335 103.41,231.525 103.287,230.747 103.275,230.669 103.168,229.908 103.157,229.825 103.066,229.081 103.056,228.994 102.982,228.266 102.974,228.174 102.916,227.463 102.909,227.366 102.868,226.67 102.863,226.569 102.838,225.889 102.836,225.782 102.827,225.118 102.839,224.734 103.142,220.657 103.24,220 104.081,216.299 104.27,215.68 105.55,212.373 105.814,211.81 107.166,209.387 105.19,210.714 104.225,211.203 101.647,212.137 100.618,212.376 97.6207,212.706 96.6401,212.705 93.4508,212.349 92.4527,212.119 89.5885,211.1 88.678,210.653 86.1697,209.044 85.5848,208.573 " fill="none" stroke-width="0.5" stroke="rgb(0,0,0)" />
	<polygon points="462.642,211.164 462.75,211.765 462.804,212.181 462.863,212.884 462.877,213.155 462.895,213.958 462.89,214.281 462.762,216.801 462.736,217.111 462.399,219.892 462.374,220.068 461.898,223.009 461.884,223.094 461.338,226.095 461.336,226.106 460.797,229.033 460.34,231.738 460.035,234.073 459.934,235.849 460.026,237.045 460.283,238.183 460.68,239.243 461.161,240.137 461.381,240.432 462.768,238.882 464.338,236.631 465.823,233.914 467.042,230.91 467.85,227.796 468.133,224.752 467.535,219.381 465.99,215.155 463.759,211.809 462.496,210.59 " fill="none" stroke-width="0.5" stroke="rgb(0,0,0)" />
	<polygon points="64.42,212.253 62.9218,214.682 59.6487,217.392 59.488,217.519 59.379,217.602 59.9661,217.503 60.7481,217.606 62.0228,217.974 62.6671,218.27 63.7968,219.014 64.3136,219.482 65.0665,220.368 65.4663,220.988 65.8727,221.783 66.1657,222.533 66.3588,223.161 66.5553,224.022 66.6373,224.5 66.7476,225.451 66.7747,225.813 66.8092,226.834 66.8054,227.221 66.6325,230.463 66.6015,230.801 66.4388,232.048 67.3165,229.472 67.4058,229.233 70.0093,222.823 70.2957,222.243 72.9603,217.709 74.3979,216.216 76.7441,214.714 75.9487,214.785 75.6803,214.801 74.541,214.833 74.0462,214.82 71.8162,214.634 71.058,214.504 68.9863,213.962 68.2215,213.685 66.351,212.807 65.6095,212.366 64.3282,211.426 " fill="none" stroke-width="0.5" stroke="rgb(0,0,0)" />
	<polygon points="364.654,229.35 364.697,229.768 365.555,229.303 365.192,229.19 364.567,228.926 " fill="none" stroke-width="0.5" stroke="rgb(0,0,0)" />
	<polygon points="337.964,210.969 337.248,211.449 335.434,212.424 334.629,212.76 334.264,212.872 334.659,213.197 335.256,213.793 336.113,214.829 336.591,215.535 337.239,216.722 337.58,217.525 337.99,218.835 338.105,219.395 338.827,218.799 339.534,218.321 341.583,217.207 342.386,216.867 342.923,216.7 342.022,215.955 341.424,215.357 340.568,214.321 340.091,213.615 339.444,212.427 339.105,211.624 338.71,210.357 " fill="none" stroke-width="0.5" stroke="rgb(0,0,0)" />
	<polygon points="356.537,216.81 355.831,217.287 355.597,217.415 357.124,218.245 357.081,217.809 357.081,216.918 357.142,216.309 " fill="none" stroke-width="0.5" stroke="rgb(0,0,0)" />
	<polygon points="320.679,212.002 320.872,211.871 321.367,211.6 321.08,211.445 320.759,211.229 " fill="none" stroke-width="0.5" stroke="rgb(0,0,0)" />
	<polygon points="360.896,204.854 361.076,205.731 361.219,207.133 361.219,208.012 362.29,207.127 362.998,206.649 363.796,206.215 363.329,206.015 362.089,205.334 361.39,204.858 360.725,204.306 " fill="none" stroke-width="0.5" stroke="rgb(0,0,0)" />
	<polygon points="113.306,199.851 113.108,200.518 112.146,203.027 111.877,203.578 111.989,203.463 112.442,203.061 114.471,201.492 115.03,201.123 116.996,200.029 117.451,199.809 118.037,199.565 117.047,199.742 114.462,198.341 113.875,197.172 " fill="none" stroke-width="0.5" stroke="rgb(0,0,0)" />
	<polygon points="355.558,194.879 354.759,195.219 352.665,195.876 351.786,196.057 350.457,196.193 351.656,196.315 352.532,196.494 353.842,196.904 354.643,197.243 355.83,197.89 356.535,198.366 357.105,198.837 356.89,198.154 356.709,197.275 356.559,195.802 356.559,194.894 356.62,194.3 " fill="none" stroke-width="0.5" stroke="rgb(0,0,0)" />
	<polygon points="124.077,195.654 123.38,195.759 122.854,195.905 122.504,196.06 122.306,196.191 122.204,196.292 122.128,196.406 121.883,197.015 120.32,198.795 121.243,198.565 121.513,198.507 122.655,198.296 122.89,198.26 124.073,198.107 124.275,198.085 125.497,197.983 125.667,197.973 126.927,197.916 127.066,197.912 128.362,197.894 128.536,197.896 130.679,197.951 130.874,197.96 133.106,198.116 133.157,198.12 131.888,197.43 129.388,196.422 127.044,195.823 124.816,195.62 " fill="none" stroke-width="0.5" stroke="rgb(0,0,0)" />
	<polygon points="314.269,195.57 313.467,195.908 312.154,196.318 311.593,196.432 311.646,196.449 312.444,196.791 314.135,197.721 314.146,197.728 314.311,196.071 314.429,195.483 " fill="none" stroke-width="0.5" stroke="rgb(0,0,0)" />
	<polygon points="344.043,196.07 344.2,197.652 344.955,197.242 345.757,196.903 347.07,196.494 347.945,196.315 348.433,196.265 346.401,196.057 345.521,195.876 343.901,195.367 " fill="none" stroke-width="0.5" stroke="rgb(0,0,0)" />
	<polygon points="39.2509,187.84 40.8189,188.812 42.5555,189.589 44.4425,190.179 46.4484,190.587 48.533,190.822 50.7,190.898 51.3471,190.892 52.0616,190.87 52.7804,190.833 53.4948,190.782 54.1962,190.717 54.876,190.639 55.5247,190.549 56.1987,190.437 59.0966,190.939 60.6247,192.662 61.0121,191.873 62.504,189.499 62.9783,188.874 63.2887,188.532 61.7248,189.017 61.4765,189.086 59.7023,189.525 59.4268,189.584 57.737,189.891 57.4357,189.935 55.8243,190.114 55.5007,190.139 53.9618,190.197 53.5625,190.194 51.1024,190.067 50.6844,190.025 48.4021,189.689 48.0783,189.629 45.9556,189.154 45.7482,189.102 43.7668,188.558 43.6947,188.537 41.8801,188.006 40.3117,187.581 39.0486,187.326 38.6026,187.29 " fill="none" stroke-width="0.5" stroke="rgb(0,0,0)" />
	<polygon points="109.28,155.976 108.871,157.287 108.531,158.089 107.885,159.277 107.409,159.982 106.553,161.018 105.957,161.615 104.922,162.471 104.217,162.948 103.031,163.595 102.229,163.936 100.92,164.345 100.043,164.525 98.6414,164.668 97.7411,164.668 96.3341,164.525 95.459,164.346 94.1463,163.937 93.3447,163.598 92.155,162.951 91.4495,162.475 90.4116,161.619 89.8142,161.022 89.6937,160.877 89.2561,162.381 89.126,162.763 87.8746,165.953 87.7132,166.316 86.7628,168.22 86.8093,168.16 89.2847,166.572 91.8598,166.728 95.2026,167.965 95.6955,168.183 99.0711,169.921 99.5339,170.196 102.795,172.411 103.251,172.767 106.25,175.433 106.705,175.902 109.294,178.995 109.728,179.615 111.76,183.109 112.122,183.902 112.92,186.228 112.922,186.18 112.97,185.693 113.387,183.016 113.536,182.375 114.255,180.07 114.593,179.271 115.636,177.353 116.26,176.476 117.647,174.959 118.562,174.194 120.313,173.092 121.348,172.613 122.84,172.144 122.322,171.919 118.741,169.87 117.949,169.293 115.055,166.648 114.436,165.95 112.214,162.839 111.784,162.093 110.217,158.645 109.955,157.898 109.363,155.568 " fill="none" stroke-width="0.5" stroke="rgb(0,0,0)" />
	<polygon points="320.813,186.088 321.079,185.908 321.116,185.888 320.848,185.742 " fill="none" stroke-width="0.5" stroke="rgb(0,0,0)" />
	<polygon points="367.701,163.903 367.088,165.029 366.608,165.738 365.797,166.72 365.196,167.319 364.212,168.129 363.503,168.606 362.374,169.218 361.571,169.556 360.383,169.924 360.418,169.959 361.792,171.618 362.268,172.32 363.307,174.219 363.649,175.02 364.307,177.113 364.489,177.993 364.719,180.232 364.718,181.143 364.488,183.377 364.306,184.259 364.291,184.305 365.494,183.925 366.377,183.742 367.832,183.592 368.742,183.591 370.215,183.741 371.092,183.922 372.468,184.353 373.268,184.692 374.516,185.372 374.795,185.561 372.484,180.835 372.235,180.208 369.469,171.36 369.336,170.82 367.975,163.255 " fill="none" stroke-width="0.5" stroke="rgb(0,0,0)" />
	<polygon points="163.126,162.932 162.882,163.143 159.294,166.03 158.944,166.285 155.158,168.766 154.698,169.03 150.624,171.052 150.076,171.28 145.628,172.791 145.038,172.947 140.126,173.893 139.551,173.965 136.983,174.119 137.702,174.517 141.317,177.036 141.849,177.471 145.243,180.717 145.598,181.098 148.747,184.909 148.991,185.233 149.015,185.269 149.113,183.894 149.156,183.517 149.762,179.662 149.92,178.997 150.879,176.001 151.387,174.931 152.777,172.793 154.022,171.528 155.924,170.247 157.66,169.551 160.155,169.124 161.76,169.143 163.488,169.482 164.586,169.85 166.546,170.807 167.183,171.187 169.113,172.568 167.031,168.579 166.816,168.1 165.012,163.354 164.886,162.969 164.515,161.638 " fill="none" stroke-width="0.5" stroke="rgb(0,0,0)" />
	<polygon points="333.543,184.095 333.398,184.215 333.927,184.377 333.889,184.258 333.802,183.836 " fill="none" stroke-width="0.5" stroke="rgb(0,0,0)" />
	<polygon points="79.9542,178.263 79.5065,178.737 76.8021,181.208 77.3312,181.213 79.2014,182.737 79.642,181.171 79.7655,180.796 80.7818,178.12 80.9218,177.791 81.735,176.078 " fill="none" stroke-width="0.5" stroke="rgb(0,0,0)" />
	<polygon points="346.481,158.213 342.98,161.829 342.242,162.441 338.136,165.165 337.382,165.566 332.992,167.388 333.536,167.836 334.136,168.436 334.948,169.417 335.427,170.126 336.04,171.252 336.274,171.807 336.402,171.619 337.775,169.96 338.369,169.368 340.028,167.996 340.73,167.521 342.629,166.484 343.43,166.144 345.522,165.487 346.401,165.306 348.3,165.111 348.243,165.027 347.631,163.901 347.291,163.097 346.904,161.852 346.726,160.978 346.591,159.642 346.591,158.75 346.669,157.967 " fill="none" stroke-width="0.5" stroke="rgb(0,0,0)" />
	<polygon points="201.21,161.005 201.309,162.219 201.473,163.257 201.521,163.434 201.652,163.332 201.935,163.073 202.818,162.695 202.349,162.247 201.386,160.898 201.198,160.492 " fill="none" stroke-width="0.5" stroke="rgb(0,0,0)" />
	<polygon points="84.2883,147.938 84.6462,148.511 85.0777,149.017 85.5365,149.421 86.1508,149.866 86.869,150.364 87.0789,150.523 87.0806,150.515 87.4899,149.207 87.6446,148.843 87.2335,148.801 86.3553,148.62 85.0464,148.211 84.2616,147.877 " fill="none" stroke-width="0.5" stroke="rgb(0,0,0)" />
	<polygon points="94.8132,108.787 92.8003,110.745 92.7259,110.815 90.5493,112.836 90.256,113.086 87.9928,114.849 87.3523,115.264 85.0142,116.511 83.7801,116.951 81.3788,117.424 80.0457,117.483 78.8489,117.355 77.75,117.093 77.5238,117.008 77.9143,119.306 77.97,119.798 78.1587,123.113 78.1648,123.465 78.1331,124.892 78.1246,125.084 78.0336,126.473 78.0178,126.655 77.8736,128.002 77.8516,128.175 77.6604,129.476 77.6332,129.64 77.4013,130.892 77.3697,131.047 77.1032,132.246 77.0679,132.392 76.773,133.535 76.7347,133.674 76.4176,134.756 74.7041,137.146 71.888,137.946 67.3126,137.679 66.7822,137.616 62.2256,136.795 61.6473,136.65 57.2916,135.243 56.6397,134.973 56.6375,134.972 56.7324,135.051 57.3353,137.929 56.3793,139.526 57.3408,139.261 57.6769,139.182 60.1722,138.699 60.4763,138.651 62.8789,138.356 63.1379,138.331 65.4451,138.184 65.6478,138.176 67.8568,138.136 67.9627,138.135 68.4863,138.138 68.5363,138.139 69.0558,138.148 69.1058,138.149 69.6171,138.163 69.6686,138.165 70.1678,138.185 70.2221,138.187 70.705,138.212 70.7635,138.216 71.2261,138.246 71.2913,138.251 71.7295,138.286 71.8041,138.292 72.2139,138.332 72.2467,138.335 73.3807,138.454 74.4417,138.557 74.4646,138.559 75.4566,138.66 75.5507,138.671 76.445,138.782 76.6394,138.81 77.4237,138.943 77.7695,139.015 77.7826,139.019 77.6763,137.971 77.6763,137.072 77.8188,135.668 77.9978,134.793 78.4063,133.483 78.7451,132.682 79.391,131.494 79.8668,130.789 80.7214,129.753 81.3173,129.156 82.352,128.299 83.0572,127.821 84.2433,127.174 85.0464,126.833 86.3553,126.423 87.2336,126.243 88.6367,126.1 89.5383,126.1 90.9434,126.243 91.8205,126.422 93.1314,126.832 93.9337,127.172 95.1216,127.82 95.8267,128.297 96.863,129.154 97.4593,129.75 98.3153,130.787 98.7919,131.492 99.4388,132.68 99.7785,133.481 100.188,134.791 100.367,135.668 100.51,137.071 100.51,137.972 100.367,139.377 100.188,140.253 99.7787,141.564 99.6217,141.934 100.043,141.977 100.92,142.157 102.228,142.566 103.03,142.906 104.216,143.553 104.921,144.029 105.956,144.884 106.552,145.48 107.407,146.515 107.883,147.22 108.53,148.406 108.613,148.601 108.64,147.92 108.66,147.632 108.829,146.023 108.87,145.73 109.174,143.971 109.251,143.611 109.709,141.846 109.867,141.355 110.497,139.729 110.851,139.014 111.672,137.673 112.243,136.992 110.251,138.188 107.371,138.785 105.886,138.311 103.249,136.922 101.321,134.931 99.5403,131.27 99.2009,130.301 98.0344,125.125 97.9648,124.736 97.1711,118.802 97.1593,118.706 96.506,112.853 95.7948,108.088 95.7515,107.947 " fill="none" stroke-width="0.5" stroke="rgb(0,0,0)" />
	<polygon points="123.655,106.304 122.184,111.62 120.594,117.981 120.574,118.058 118.848,124.474 118.76,124.759 116.844,130.356 116.534,131.056 114.36,135.015 113.76,135.639 115.35,134.785 116.608,134.449 119.669,134.731 120.962,135.346 123.074,137.467 123.838,139.09 124.169,140.078 124.647,142.372 124.682,142.557 125.089,145.028 125.577,147.066 126.088,148.164 126.326,148.385 127.033,148.548 127.136,148.519 127.567,148.319 128.108,147.958 128.724,147.397 129.385,146.59 130.055,145.484 130.716,143.972 131.058,142.932 131.395,141.765 131.683,140.603 131.922,139.457 132.108,138.337 132.242,137.255 132.321,136.223 132.347,135.257 132.305,133.876 132.185,132.793 132.022,132.072 132.015,132.053 131.817,132.071 131.19,132.217 130.437,132.481 129.644,132.839 128.886,133.251 128.231,133.666 127.758,134.015 127.339,134.386 124.617,135.499 121.795,134.671 120.106,132.264 120.28,129.346 122.123,124.915 122.429,124.313 124.771,120.46 125.185,119.888 127.968,116.617 128.479,116.106 131.647,113.421 131.918,113.227 130.81,112.677 129.292,111.529 128.711,111.003 127.209,109.38 127.013,109.153 125.518,107.302 124.117,105.587 123.99,105.455 " fill="none" stroke-width="0.5" stroke="rgb(0,0,0)" />
	<polygon points="314.618,121.898 312.85,122.375 311.288,123.103 309.935,124.035 308.807,125.117 307.929,126.279 307.323,127.435 306.856,128.909 305.092,131.262 303.81,131.594 303.848,131.628 305.236,132.723 306.54,133.588 307.777,134.249 308.974,134.734 310.169,135.067 311.413,135.266 312.791,135.336 313.244,135.322 313.822,135.277 314.464,135.207 315.147,135.119 315.838,135.025 315.874,135.021 316.529,134.938 316.647,134.924 317.236,134.866 317.481,134.848 317.988,134.826 318.437,134.829 319.001,134.861 319.567,134.93 320.076,135.025 320.727,135.2 321.174,135.356 321.905,135.689 322.283,135.905 323.049,136.456 323.354,136.729 324.056,137.528 324.281,137.856 324.79,138.846 324.93,139.228 325.173,140.266 325.221,140.699 325.224,141.64 325.145,142.415 325.021,143.099 324.794,143.957 324.634,144.446 324.531,144.709 326.822,144.525 329.839,143.778 332.671,142.521 335.198,140.749 335.672,140.237 334.919,140.781 332.099,141.62 329.373,140.517 328.372,139.243 327.866,138.279 327.338,137.449 326.699,136.608 325.947,135.775 325.079,134.966 324.091,134.196 322.977,133.48 321.552,132.739 321.133,132.523 320.562,132.171 320.2,131.909 319.672,131.459 319.371,131.16 318.918,130.633 318.677,130.303 318.319,129.726 318.135,129.371 317.878,128.773 317.749,128.4 317.588,127.805 317.512,127.418 317.438,126.842 317.413,126.449 317.428,125.707 317.505,124.964 317.66,124.178 317.884,123.408 318.112,122.797 318.468,122.024 318.504,121.956 318.089,121.869 317.212,121.747 316.681,121.718 " fill="none" stroke-width="0.5" stroke="rgb(0,0,0)" />
	<polygon points="144.037,98.5106 143.48,101.535 142.902,104.764 142.824,105.117 142.077,107.943 141.794,108.652 144.771,107.975 145.433,107.876 149.562,107.574 150.388,107.59 155.264,108.142 156.304,108.389 160.563,109.961 160.707,110.035 160.393,109.797 160.223,109.661 155.636,105.811 155.606,105.785 151.152,101.979 147.191,98.794 144.464,96.9958 " fill="none" stroke-width="0.5" stroke="rgb(0,0,0)" />
	<polygon points="69.4789,91.1143 64.383,93.7963 58.6648,96.951 58.6302,96.9699 56.9945,97.8535 57.5446,97.7986 58.5956,97.8184 62.6815,98.383 63.9359,98.7501 67.3184,100.31 68.3623,100.982 71.0902,103.336 71.6156,103.91 71.6166,103.893 71.7943,101.781 71.8077,101.646 72.0589,99.4573 72.067,99.391 72.355,97.1756 72.3558,97.1692 72.6402,95.0062 72.8805,92.9832 73.0422,91.1747 73.1011,89.5912 73.1,89.5018 " fill="none" stroke-width="0.5" stroke="rgb(0,0,0)" />
	<polygon points="106.363,56.9128 105.109,57.5142 103.468,58.6434 101.64,60.1323 99.7694,61.7337 99.6586,61.8255 97.8772,63.2534 97.4504,63.5561 95.8325,64.5661 94.6339,65.088 93.2123,65.4711 93.1647,65.4761 93.2216,65.5414 93.8303,66.4436 94.1094,66.9916 94.4209,67.7823 94.6103,68.4416 94.74,69.051 94.8477,69.8176 94.8875,70.2623 94.9216,71.1323 94.9159,71.5926 94.7886,73.5686 94.7475,73.9499 94.412,76.1617 94.376,76.367 93.9017,78.7387 93.8829,78.8279 93.6633,79.8197 94.7085,78.263 94.9014,77.9975 96.9868,75.3382 97.511,74.7771 99.6002,72.8961 101.12,71.9987 103.178,71.2853 107.299,71.9248 108.736,72.9984 110.36,75.37 111.148,78.2005 111.293,78.9974 111.651,82.9992 111.667,83.2529 111.694,84.1143 111.747,83.8983 111.814,83.6543 112.924,80.0174 113.2,79.326 114.486,76.7536 115.259,75.9006 113.02,75.8242 111.595,74.9759 109.619,72.4626 108.929,70.2263 108.747,69.2863 108.483,66.1246 108.471,65.9383 108.326,62.4342 108.026,59.3041 107.491,57.3283 107.203,56.9434 106.825,56.8289 " fill="none" stroke-width="0.5" stroke="rgb(0,0,0)" />
	<polygon points="125.645,57.8101 124.806,60.0461 124.027,63.28 123.29,66.7798 123.229,67.0321 122.382,70.1392 122.035,71.0258 120.889,73.2235 120.41,73.6972 121.505,73.5758 123.045,74.1237 124.768,75.24 126.15,76.6846 126.705,77.3977 127.985,79.44 128.151,79.729 128.662,80.6986 128.662,78.1149 128.662,78.0778 128.674,76.6956 128.677,76.5666 128.723,75.3161 128.738,75.0799 128.839,73.9774 128.893,73.5787 129.065,72.6404 129.235,71.9903 129.497,71.2323 129.986,70.2373 130.356,69.6759 131.512,68.4827 132.008,68.1339 133.75,67.3994 134.39,67.2795 134.452,67.2833 134.374,67.2112 133.912,66.7089 132.213,64.5538 132.093,64.3952 130.349,61.9676 128.642,59.7062 127.113,58.035 126.068,57.2723 126.058,57.2698 " fill="none" stroke-width="0.5" stroke="rgb(0,0,0)" />
	<polygon points="146.386,66.7914 146.207,67.1488 145.751,67.8781 145.515,68.1839 144.914,68.8225 144.629,69.0709 143.899,69.588 143.573,69.7728 142.739,70.1385 142.413,70.243 143.047,70.6574 143.426,70.9348 146.852,73.7317 147.008,73.8652 150.43,76.9322 150.278,76.5923 150.251,76.5304 148.422,72.2725 148.349,72.0928 146.754,67.8819 146.637,67.5292 146.409,66.7314 " fill="none" stroke-width="0.5" stroke="rgb(0,0,0)" />
	<polygon points="398.439,59.3698 398.437,60.1993 397.839,66.3859 398.14,65.7039 398.278,65.4638 398.813,64.7225 398.992,64.5213 399.634,63.9296 399.846,63.7694 400.557,63.3306 400.795,63.2135 401.553,62.9217 401.807,62.8499 402.606,62.7011 402.869,62.6767 404.906,62.965 406.016,63.4004 407.238,64.1231 408.616,65.2709 408.871,65.4999 410.512,67.0956 412.34,68.8116 414.295,70.3817 416.364,71.6378 418.536,72.4551 421.085,72.7767 421.604,72.7523 422.458,72.6228 423.295,72.3778 423.998,72.0301 424.532,71.5964 424.962,71.0011 425.329,70.003 425.461,68.7544 424.756,66.4128 422.562,64.1475 418.594,61.8 413.585,59.7249 408.336,57.9844 403.629,56.5383 403.42,56.4683 400.058,55.2499 398.697,54.4613 397.937,53.8172 " fill="none" stroke-width="0.5" stroke="rgb(0,0,0)" />
	<polygon points="93.6543,45.7656 92.0516,45.9388 90.2804,46.1995 88.4067,46.5121 86.5155,46.8316 86.4477,46.8426 85.2448,47.0268 85.9316,47.5767 87.0582,49.3298 87.5502,53.1005 86.7319,55.6397 86.1236,56.8528 83.9665,59.888 83.6247,60.3115 80.5749,63.65 80.4146,63.8165 78.27,65.9322 80.7634,64.783 81.1212,64.6366 83.8747,63.6472 84.666,63.4426 86.882,63.0826 86.8242,63.0007 86.2824,61.9688 86.1719,61.6682 85.9244,60.6107 85.8854,60.2486 86.0141,58.609 86.4199,57.109 86.8805,56.0137 87.9503,54.1962 88.2089,53.8055 89.7214,51.7627 89.8175,51.6375 91.5388,49.4772 93.186,47.3709 94.3276,45.7362 " fill="none" stroke-width="0.5" stroke="rgb(0,0,0)" />
	<polygon points="52.3134,60.8591 52.6636,61.2638 53.6064,63.0618 53.7314,63.5453 53.7,64.2953 54.3953,63.4981 56.5102,60.6868 51.7258,60.36 " fill="none" stroke-width="0.5" stroke="rgb(0,0,0)" />
	<polygon points="141.811,47.9989 141.809,47.9993 141.921,48.9696 142.366,50.5528 143.099,52.4835 144.013,54.6008 144.967,56.7517 145.013,56.8597 145.055,56.9616 145.183,56.2209 145.353,55.5521 145.625,54.7456 145.985,53.95 146.381,53.263 147.009,52.4222 147.536,51.8667 148.424,51.1446 149.09,50.7328 150.094,50.2733 150.907,50.0173 151.193,49.96 151.119,49.9454 150.886,49.8927 149.343,49.5005 149.261,49.4789 147.639,49.0336 146.038,48.6069 144.55,48.2619 143.253,48.0438 142.205,47.9732 " fill="none" stroke-width="0.5" stroke="rgb(0,0,0)" />
	<polygon points="189.114,35.3322 186.14,36.8272 185.221,37.5191 185.563,38.4371 186.655,39.8763 186.697,38.442 187.023,37.6822 188.403,35.9094 189.202,35.2964 " fill="none" stroke-width="0.5" stroke="rgb(0,0,0)" />
	<polygon points="465.471,97.6914 467.957,98.2019 468.738,98.4387 470.834,99.2907 471.641,99.7206 473.364,100.88 474.097,101.496 475.466,102.928 476.034,103.662 476.373,104.211 476.373,123.765 475.735,125.205 475.564,125.502 476.373,125.578 476.373,189.619 475.115,190.475 471.55,191.117 468.216,190.298 467.058,189.834 462.488,187.203 461.99,186.87 456.667,182.765 456.341,182.488 450.748,177.244 450.468,176.956 445.087,170.91 444.799,170.55 440.114,164.038 439.791,163.516 436.284,156.873 435.941,156.022 434.096,149.585 434.265,146.649 435.589,145.172 434.489,145.022 433.961,144.917 431.993,144.4 431.333,144.17 429.654,143.432 428.865,142.984 427.505,142.017 426.674,141.248 425.664,140.043 424.992,138.953 424.363,137.502 424.032,136.293 423.957,135.705 423.61,137.515 423.029,139.011 421.29,141.835 420.468,142.819 417.726,145.271 416.96,145.822 413.345,147.879 412.71,148.177 408.349,149.816 407.825,149.977 402.846,151.175 402.398,151.259 396.93,151.995 396.527,152.031 390.698,152.281 390.028,152.259 381.76,151.363 380.819,151.156 373.472,148.68 372.643,148.303 366.274,144.57 365.594,144.08 360.257,139.411 359.719,138.85 355.471,133.567 355.051,132.942 351.947,127.366 351.627,126.646 349.724,121.098 349.517,120.203 348.87,115.005 348.847,114.143 348.873,113.782 348.97,113.12 349.038,112.816 349.263,112.101 349.368,111.846 349.719,111.164 349.854,110.949 350.273,110.389 350.432,110.207 350.825,109.811 351.002,109.654 351.297,109.414 351.486,109.274 351.641,109.163 351.835,109.031 352.902,108.499 354.083,108.097 355.065,107.882 356.906,107.694 357.139,107.676 359.546,107.557 362.379,107.369 365.569,106.98 369.111,106.261 372.982,105.078 377.259,103.251 377.716,103.018 377.968,102.9 378.555,102.647 378.814,102.544 379.397,102.335 379.663,102.249 380.239,102.082 380.509,102.013 381.078,101.887 381.351,101.835 381.91,101.747 382.186,101.712 382.732,101.66 383.011,101.643 383.543,101.626 384.355,101.675 386.32,101.975 387.817,102.488 389.235,103.279 390.319,104.128 391.363,105.247 391.826,105.834 392.671,107.117 392.704,107.167 393.35,108.177 393.642,108.514 393.995,108.573 394.796,108.498 396.074,108.196 397.599,107.698 399.277,107.065 400.999,106.399 401.113,106.356 402.763,105.769 403.082,105.668 404.601,105.253 405.258,105.125 406.605,104.967 408.604,105.191 410.646,105.912 412.173,106.829 414.316,108.795 414.902,109.45 417.031,112.366 417.32,112.816 419.32,116.388 419.501,116.747 421.258,120.679 421.395,121.026 422.793,125.024 422.914,125.433 423.837,129.202 423.941,129.805 424.128,131.622 424.314,130.97 424.593,130.239 425.088,129.224 425.526,128.505 426.265,127.519 426.887,126.845 427.896,125.957 428.687,125.401 429.813,124.78 428.968,124.412 428.228,124.002 427.235,123.32 426.533,122.722 425.625,121.771 425.071,121.057 424.28,119.791 423.922,119.085 423.418,117.823 423.252,117.324 422.88,115.938 422.823,115.699 422.517,114.242 422.515,114.232 422.232,112.868 421.949,111.774 421.668,111.027 421.447,110.654 420.871,110.071 419.611,107.413 420.285,104.55 422.597,102.733 425.141,102.632 426.129,102.885 427.006,103.054 427.917,103.179 428.85,103.266 429.794,103.321 430.739,103.35 431.678,103.361 432.423,103.363 434.887,103.167 437.294,102.655 439.817,101.879 442.424,100.932 445.038,99.9468 445.161,99.9025 447.684,99.0352 448.025,98.933 450.417,98.3195 451.063,98.2037 453.308,97.971 454.139,97.9629 455.448,98.0729 456.303,98.23 457.385,98.5408 458.311,98.924 459.184,99.4067 460.047,100.03 460.642,100.578 461.207,99.1433 463.757,97.6767 " fill="none" stroke-width="0.5" stroke="rgb(0,0,0)" />
</svg>
