<?xml version="1.0" standalone="no" ?>
<!DOCTYPE svg PUBLIC "-//W3C//DTD SVG 1.1//EN" "http://www.w3.org/Graphics/SVG/1.1/DTD/svg11.dtd">
<svg width="500px" height="500px" xmlns="http://www.w3.org/2000/svg" version="1.1" >
	<polygon points="464.873,280.839 464.092,294.764 461.765,309.453 457.816,325.041 452.216,341.197 444.952,357.61 436.018,373.979 425.413,390.017 413.137,405.446 399.19,419.998 383.569,433.418 366.26,445.456 347.238,455.872 326.462,464.425 303.875,470.867 279.407,474.938 252.979,476.361 227.235,475.018 203.283,471.164 181.087,465.047 160.599,456.903 141.78,446.955 124.602,435.421 109.05,422.516 95.1212,408.462 82.8209,393.487 72.1581,377.829 63.1431,361.732 55.7844,345.452 50.0866,329.253 46.0469,313.409 43.651,298.204 42.8405,283.468 42.8405,35.4037 49.9963,35.3488 61.488,35.2607 72.9796,35.1725 95.963,34.9961 95.963,34.9961 107.455,34.908 118.946,34.8198 130.438,34.7316 141.93,34.6434 153.421,34.5553 164.913,34.4671 176.405,34.3789 187.896,34.2907 194.776,34.2379 194.757,43.931 194.731,56.8298 194.706,69.7286 194.706,69.7286 194.68,82.6274 194.629,108.425 194.629,108.425 194.604,121.324 194.553,147.121 194.528,160.02 194.502,172.919 194.477,185.818 194.451,198.717 194.426,211.615 194.426,211.615 194.4,224.514 194.401,224.669 194.488,235.963 194.489,236.083 194.654,246.9 194.659,247.117 194.956,257.423 194.969,257.754 195.453,267.516 195.484,267.986 196.212,277.17 196.275,277.806 197.302,286.378 197.425,287.218 198.805,295.146 199.034,296.233 200.823,303.483 201.229,304.859 203.483,311.398 204.176,313.087 206.95,318.881 208.071,320.851 211.42,325.867 213.101,327.974 217.081,332.179 219.344,334.158 224.009,337.518 226.677,339.071 232.083,341.552 234.824,342.519 241.027,344.088 243.533,344.514 250.588,345.138 251.947,329.779 253.008,345.162 260.269,344.661 262.788,344.284 269.135,342.806 271.942,341.871 277.437,339.452 280.212,337.884 284.917,334.562 287.284,332.516 291.263,328.327 293.009,326.129 296.322,321.11 297.467,319.063 300.176,313.25 300.866,311.51 303.034,304.941 303.426,303.542 305.115,296.252 305.327,295.164 306.599,287.191 306.708,286.365 307.624,277.746 307.677,277.134 308.3,267.904 308.323,267.467 308.715,257.664 308.724,257.37 308.946,247.031 308.949,246.857 309.064,236.018 309.065,235.947 309.135,224.644 309.135,224.514 309.109,211.615 309.083,198.716 309.057,185.817 309.032,172.918 309.032,172.918 309.006,160.02 308.954,134.222 308.954,134.222 308.928,121.323 308.851,82.6269 308.851,82.6268 308.825,69.728 308.753,34.0124 316.38,33.9634 316.38,33.9634 328.134,33.8878 339.887,33.8123 351.64,33.7367 363.393,33.6612 375.147,33.5856 386.9,33.51 410.406,33.3589 422.16,33.2833 433.913,33.2078 445.666,33.1322 457.419,33.0567 464.873,33.0087 " fill="none" stroke-width="0.5" stroke="rgb(0,0,0)" />
</svg>
