<?xml version="1.0" standalone="no" ?>
<!DOCTYPE svg PUBLIC "-//W3C//DTD SVG 1.1//EN" "http://www.w3.org/Graphics/SVG/1.1/DTD/svg11.dtd">
<svg width="500px" height="500px" xmlns="http://www.w3.org/2000/svg" version="1.1" >
	<polygon points="474.973,83.2826 471.845,87.0918 470.751,88.12 463.718,93.2044 462.669,93.8078 456.03,96.7632 456.689,96.8844 457.772,97.1951 458.989,97.6989 459.862,98.1817 460.222,98.4418 462.055,96.7718 465.753,96.3201 468.239,96.8305 469.266,97.1418 471.361,97.9939 472.423,98.5589 474.146,99.718 474.973,100.415 474.973,191.8 471.216,192.477 467.882,191.658 466.36,191.047 461.79,188.417 461.135,187.979 455.813,183.874 455.384,183.509 454.264,182.459 456.422,185.543 458.714,186.892 458.728,186.901 462.79,189.308 463.073,189.487 467.462,192.439 467.935,192.794 472.304,196.425 472.912,197.008 474.973,199.297 474.973,250.179 472.623,253.457 472.55,253.556 470.928,255.722 472.798,255.328 474.611,255.233 474.973,255.271 474.973,281.122 474.147,295.84 473.824,297.878 471.433,300.201 469.51,301.196 471.103,303.282 471.64,304.124 472.557,305.88 471.669,311.488 467.5,327.94 461.622,344.901 454.019,362.081 450.055,369.343 447.682,367.394 446.78,365.14 445.681,358.792 443.535,355.404 440.14,352.761 435.456,350.412 434.309,349.902 435.854,351.026 436.758,351.841 440.672,356.189 441.417,357.224 444.465,362.615 444.967,363.782 446.944,370.244 447.175,371.414 447.43,374.152 444.679,379.193 433.593,395.958 420.751,412.098 406.143,427.34 397.529,434.741 396.384,433.879 395.682,433.256 394.401,431.92 393.877,431.292 393.048,430.143 393.146,430.424 393.835,433.198 393.99,434.166 394.238,437.443 394.232,437.573 389.759,441.415 371.584,454.056 351.6,464.999 329.78,473.981 318.651,477.155 318.22,476.873 316.021,475.087 315.178,474.246 313.452,472.133 312.808,471.161 311.565,468.802 311.134,467.746 310.381,465.223 310.164,464.116 309.911,461.51 309.897,460.563 310.138,456.878 310.226,456.178 310.898,452.613 311.044,452.013 312.067,448.607 312.246,448.099 312.443,447.612 312.127,447.664 312.028,447.949 310.88,452.03 310.826,452.214 309.316,456.976 309.109,457.53 307.076,462.235 306.545,463.201 303.779,467.274 302.517,468.616 298.809,471.481 298.4,471.673 298.527,471.663 299.407,471.562 300.125,471.452 300.818,471.342 301.09,471.306 301.806,471.226 302.245,471.194 303.109,471.164 303.779,471.18 304.65,471.249 305.802,471.459 306.471,471.652 307.824,472.234 308.318,472.525 309.599,473.547 309.943,473.912 310.846,475.163 311.068,475.577 311.536,476.729 311.662,477.168 311.842,478.039 311.898,478.478 311.943,479.039 311.944,479.068 306.096,480.736 280.511,484.993 252.988,486.475 226.167,485.076 201.132,481.048 177.87,474.637 156.361,466.088 136.59,455.637 129.639,450.969 129.766,449.377 129.858,449.259 127.42,449.479 118.546,443.52 102.222,429.975 87.6157,415.237 74.7281,399.547 72.6767,396.535 72.8159,394.791 71.7579,395.185 63.5616,383.149 54.1186,366.288 46.4013,349.215 40.4103,332.182 38.4687,324.567 39.5532,321.074 39.8863,320.236 44.083,311.666 44.382,311.129 44.6219,310.747 43.6386,311.207 41.5221,311.78 38.2388,311.713 36.2697,311.093 35.3715,310.548 33.5943,299.27 32.7405,283.745 32.7405,230.8 33.5091,229.772 35.0986,228.508 34.8585,228.48 33.3608,228.1 32.7405,227.851 32.7405,155.998 34.0912,153.53 34.7196,152.605 38.2589,148.337 39.1303,147.485 39.8646,146.903 38.2912,146.756 37.1957,146.547 34.6603,145.807 33.6052,145.384 32.7405,144.935 32.7405,109.747 34.6694,108.741 37.9939,108.11 41.0843,109.415 41.5326,107.882 41.9459,106.847 42.184,106.384 42.1211,106.409 41.0538,106.713 37.0287,107.456 35.6176,107.543 34.9252,107.502 34.1376,107.401 33.5041,107.275 32.7405,107.058 32.7405,86.2119 32.7897,86.1451 33.3934,85.4063 32.8004,85.5484 32.7405,85.5508 32.7405,40.1191 32.7923,40.0835 37.2524,37.2054 37.3298,37.1563 41.7311,34.4129 41.8347,34.3449 39.4563,33.7561 39.4252,33.7484 35.1258,32.6592 34.8046,32.568 32.7405,31.9177 32.7405,25.3809 38.4271,25.3373 49.9188,25.2491 61.4105,25.161 72.9021,25.0728 81.0668,25.0101 81.2907,28.0833 80.4867,30.2459 79.1792,32.3042 78.196,33.3063 80.9222,32.1881 81.1104,32.1147 84.2668,30.9457 87.1443,29.7785 87.2557,29.7193 86.3973,29.4269 85.5073,29.0385 84.5777,28.5373 82.1815,26.1204 81.8288,25.4528 81.7415,25.005 84.3938,24.9846 95.8855,24.8964 107.377,24.8083 118.869,24.7201 130.361,24.6319 130.361,24.6319 153.344,24.4556 155.136,24.4418 155.059,24.7688 154.691,25.5878 152.72,27.9775 151.751,28.6591 150.85,29.1797 149.48,29.8162 149.35,29.8748 148.277,30.3416 149.377,31.1572 151.995,32.7929 154.811,34.4955 155.049,34.6474 155.075,34.6647 154.507,33.0513 154.768,28.5423 155.82,26.385 157.472,24.4239 164.836,24.3674 176.327,24.2792 187.819,24.191 187.819,24.191 204.896,24.06 204.883,30.4774 204.431,30.6847 204.883,30.6898 204.882,31.0521 204.882,31.0521 204.856,43.9509 204.833,55.7849 203.911,55.6566 203.394,55.5373 204.157,56.3167 204.386,56.5641 204.831,57.0742 204.806,69.7485 204.806,69.7485 204.78,82.6473 204.776,84.6152 204.289,84.6495 203.286,84.6338 199.304,84.2285 198.597,84.1123 193.908,83.0437 193.552,82.9508 193.46,82.9237 197.923,86.1433 198.088,86.2667 202.891,89.9955 203.047,90.1203 204.763,91.5487 204.729,108.445 204.729,108.445 204.704,121.344 204.653,147.141 204.628,160.04 204.602,172.939 204.587,180.835 204.149,181.293 202.007,183.158 201.08,183.819 198.612,185.238 197.513,185.727 196.34,186.111 197.147,186.308 198.107,186.633 200.87,187.845 201.827,188.377 204.226,190.021 204.568,190.31 204.551,198.736 204.526,211.635 204.507,221.23 204.05,221.632 202.545,221.838 204.503,223.32 204.5,224.534 204.501,224.591 204.588,235.885 204.588,235.929 204.753,246.746 204.754,246.826 205.051,257.132 205.056,257.253 205.518,266.558 205.038,267.198 204.238,268.693 204.088,269.455 204.243,270.251 204.858,271.249 205.963,272.366 206.28,276.371 206.303,276.605 207.33,285.178 207.375,285.485 208.756,293.414 208.839,293.812 210.629,301.063 210.778,301.567 213.032,308.106 213.286,308.726 216.06,314.52 216.471,315.243 219.82,320.259 220.437,321.032 224.416,325.236 225.246,325.962 229.911,329.322 230.89,329.892 236.296,332.373 237.301,332.727 243.504,334.297 244.424,334.453 249.944,334.941 249.975,335.023 250.889,338.284 251.054,339.086 251.504,342.454 251.709,341.962 255.492,334.867 259.574,334.585 260.498,334.447 266.845,332.969 267.874,332.626 273.37,330.208 274.387,329.633 279.093,326.311 279.961,325.56 283.939,321.372 284.58,320.566 287.893,315.547 288.313,314.795 291.022,308.983 291.275,308.345 293.443,301.775 293.587,301.262 295.275,293.973 295.353,293.574 296.625,285.601 296.665,285.298 297.581,276.678 297.6,276.454 298.199,267.584 299.019,267.319 300.247,267.064 301.506,266.941 302.09,266.962 300.143,265.784 299.361,265.218 298.34,264.342 298.623,257.261 298.626,257.153 298.849,246.814 298.85,246.75 298.965,235.911 298.965,235.885 299.035,224.582 299.035,224.534 299.009,211.635 298.983,198.736 298.978,196.015 299.796,195.565 300.848,195.114 301.18,195.009 300.767,194.667 299.984,193.884 299.128,192.848 298.971,192.616 298.941,177.875 299.129,177.599 299.985,176.564 300.768,175.781 301.803,174.926 302.728,174.3 303.272,174.003 300.142,173.835 298.932,173.32 298.932,172.939 298.932,172.939 298.906,160.04 298.854,134.242 298.854,134.242 298.828,121.343 298.805,109.7 298.96,109.431 300.846,106.783 301.649,105.873 304.134,103.586 305.17,102.824 308.281,101.028 309.464,100.509 311.198,99.9683 311.072,99.4753 310.99,99.1064 310.859,98.4052 310.805,98.0606 310.602,96.4541 310.458,95.3409 309.081,96.5577 309.043,96.5906 306.641,98.6771 306.458,98.8303 304.18,100.651 303.709,100.99 301.723,102.278 300.32,102.941 298.792,103.429 298.751,82.6471 298.751,82.6471 298.725,69.7483 298.647,31.0519 298.647,31.0519 298.633,23.9773 304.562,23.9392 316.315,23.8636 328.069,23.788 339.822,23.7125 351.575,23.6369 363.328,23.5614 375.082,23.4858 382.716,23.4367 385.468,25.4566 386.398,26.3081 391.454,32.0541 392.192,33.1069 395.964,39.9895 396.444,41.1408 397.468,44.6011 398.402,43.8431 400.397,42.8418 401.112,42.5404 404.084,41.5139 404.466,41.3962 408.128,40.4061 408.4,40.3393 412.231,39.4983 411.807,39.1821 407.208,36.7527 402.79,35.078 398.744,33.9271 395.358,33.0795 394.921,32.9519 392.626,32.1837 390.097,30.5066 389.269,29.568 387.859,26.4916 388.773,23.3978 410.341,23.2591 422.095,23.1836 433.848,23.108 444.807,23.0375 444.872,23.119 445.841,24.8502 445.885,24.6942 446.313,23.606 446.611,23.0259 457.354,22.9569 469.108,22.8813 474.973,22.8436 " fill="none" stroke-width="0.5" stroke="rgb(0,0,0)" />
	<polygon points="188.265,439.093 188.635,439.818 190.621,444.476 190.904,445.31 191.713,448.449 192.502,448.682 194.019,449.016 195.658,449.279 197.252,449.445 198.598,449.497 200.4,449.399 202.134,449.093 203.713,448.576 205.062,447.862 206.172,446.948 207.094,445.754 207.852,444.089 208.48,441.192 208.68,440.832 202.756,441.275 201.862,441.273 195.643,440.784 194.654,440.62 189.457,439.292 188.45,438.934 188.061,438.754 " fill="none" stroke-width="0.5" stroke="rgb(0,0,0)" />
	<polygon points="258.363,448.3 258.082,448.334 258.002,448.354 257.937,448.381 257.715,448.516 257.666,448.553 258.059,448.611 258.564,448.715 259.204,448.897 258.97,448.599 258.748,448.383 258.623,448.292 " fill="none" stroke-width="0.5" stroke="rgb(0,0,0)" />
	<polygon points="160.735,430.841 160.214,431.856 157.215,436.513 156.385,437.53 152.191,441.63 151.074,442.485 145.532,445.753 144.293,446.3 148.475,446.033 152.502,445.171 155.691,443.87 158.118,442.233 159.922,440.292 161.226,437.976 162.062,435.157 162.383,431.544 162.38,431.312 162.362,430.829 162.333,430.319 162.295,429.786 162.247,429.237 162.193,428.677 162.133,428.109 162.069,427.53 162.091,427.413 " fill="none" stroke-width="0.5" stroke="rgb(0,0,0)" />
	<polygon points="326.666,415.057 325.502,415.588 315.997,418.721 314.76,418.984 311.871,419.279 312.079,419.469 312.852,420.515 313.612,421.908 314.106,423.205 314.343,423.989 314.674,425.441 314.72,425.667 314.977,427.042 315.168,427.851 315.561,428.13 315.59,428.152 316.498,428.805 316.865,429.092 317.732,429.828 318.386,430.478 319.119,431.333 319.907,432.517 320.414,433.527 320.47,433.7 320.724,433.38 320.904,433.163 321.626,432.336 321.777,432.169 322.496,431.406 322.707,431.194 323.422,430.51 323.718,430.245 324.426,429.654 324.846,429.334 325.546,428.849 326.148,428.484 326.838,428.12 327.696,427.752 328.374,427.523 329.55,427.258 329.909,427.215 329.559,426.795 328.422,424.634 328.073,423.393 327.854,421.809 327.854,414.349 " fill="none" stroke-width="0.5" stroke="rgb(0,0,0)" />
	<polygon points="243.468,410.629 243.4,411.7 242.622,416.676 242.123,418.288 239.917,422.919 239.156,424.115 235.717,428.302 234.89,429.126 234.802,429.197 236.301,428.175 240.056,424.58 243.023,420.556 245.187,416.164 246.672,410.941 246.726,410.857 246.216,410.844 245.278,410.709 243.883,410.326 243.455,410.149 " fill="none" stroke-width="0.5" stroke="rgb(0,0,0)" />
	<polygon points="377.293,413.597 377.293,417.615 377.292,417.752 377.275,418.475 377.258,418.801 377.21,419.407 379.465,418.799 381.035,418.983 382.267,419.265 383.9,419.83 384.995,420.341 386.607,421.307 387.562,422.021 389.069,423.409 389.853,424.293 390.781,425.582 390.595,425.039 390.327,423.892 390.132,422.376 390.095,421.263 390.125,420.789 390.244,419.924 390.352,419.424 390.591,418.652 389.026,418.485 387.969,418.273 384.409,417.208 383.583,416.891 380.244,415.312 379.573,414.938 377.28,413.457 " fill="none" stroke-width="0.5" stroke="rgb(0,0,0)" />
	<polygon points="164.465,413.661 164.469,414.514 164.148,419.198 164.032,420.026 163.263,423.609 165.043,421.774 168.35,421.057 170.443,421.628 172.385,422.572 172.078,420.629 172.029,419.203 172.061,418.835 172.286,417.665 172.382,417.346 172.929,416.086 173.087,415.816 173.963,414.666 174.18,414.444 175.246,413.585 175.521,413.412 176.54,412.908 176.26,412.808 173.476,411.656 172.997,411.432 170.361,410.051 169.904,409.784 167.476,408.217 167.017,407.888 164.861,406.179 164.379,405.753 163.805,405.186 " fill="none" stroke-width="0.5" stroke="rgb(0,0,0)" />
	<polygon points="293.46,419.26 293.655,419.3 296.205,419.873 296.383,419.915 296.698,419.997 297.032,419.549 292.613,419.1 " fill="none" stroke-width="0.5" stroke="rgb(0,0,0)" />
	<polygon points="257.173,396.436 257.441,397.317 257.609,398.075 257.732,398.932 257.788,399.755 257.776,400.707 257.681,401.718 257.466,402.83 257.19,403.761 256.755,404.829 256.315,405.663 255.672,406.633 255.088,407.348 257.268,408.197 257.76,408.414 260.619,409.842 260.999,410.049 263.782,411.706 264.099,411.909 266.717,413.705 267.007,413.917 269.371,415.763 269.666,416.01 271.689,417.815 272.033,418.148 272.545,418.686 272.773,418.636 273.03,418.586 274.315,418.365 274.558,418.328 275.892,418.155 276.123,418.13 277.506,418.007 277.724,417.991 279.156,417.917 279.361,417.91 280.843,417.886 281.077,417.886 283.207,417.936 283.469,417.948 285.672,418.098 285.918,418.12 288.199,418.373 288.429,418.403 289.394,418.549 279.702,415.378 278.542,414.852 269.936,409.759 268.947,409.023 261.846,402.468 261.077,401.602 256.983,395.952 " fill="none" stroke-width="0.5" stroke="rgb(0,0,0)" />
	<polygon points="348.519,394.823 347.979,395.723 344.395,400.644 347.782,400.055 348.458,399.978 352.965,399.726 353.502,399.721 357.296,399.858 357.762,399.893 361.232,400.297 361.78,400.388 364.871,401.049 365.542,401.235 368.044,402.092 367.869,401.398 368.124,398.045 362.963,399.201 360.376,399.194 359.226,398.93 357.238,398.061 356.161,397.327 355.055,396.346 354.076,395.227 353.471,394.4 352.615,392.983 352.258,392.292 351.549,390.663 351.319,390.04 351.128,389.416 " fill="none" stroke-width="0.5" stroke="rgb(0,0,0)" />
	<polygon points="217.98,386.714 216.847,386.928 207.031,387.8 205.872,387.788 198.707,386.997 199.797,388.468 200.238,389.16 202.075,392.545 202.437,393.351 203.579,396.515 203.864,397.655 204.067,399.041 204.146,398.875 204.579,398.117 207.4,393.947 208.748,392.535 212.703,389.586 215.071,388.535 220.756,387.416 222.334,387.323 223.379,387.404 224.056,387.496 225.305,387.74 225.846,387.874 226.124,387.956 226.042,387.584 225.923,386.795 225.841,385.775 225.841,384.821 225.877,384.392 " fill="none" stroke-width="0.5" stroke="rgb(0,0,0)" />
	<polygon points="308.481,392.716 308.044,392.844 304.832,393.654 304.295,393.762 300.588,394.335 299.994,394.396 295.752,394.613 295.044,394.606 291.531,394.36 290.737,394.249 288.36,393.75 291.463,395.225 297.448,396.843 304.32,397.439 307.688,397.299 310.722,396.899 312.9,396.383 311.277,394.124 311.021,393.292 310.937,391.89 " fill="none" stroke-width="0.5" stroke="rgb(0,0,0)" />
	<polygon points="137.929,366.99 139.095,367.546 145.453,371.492 146.431,372.253 151.931,377.56 152.686,378.451 154.147,380.571 153.846,379.319 152.907,377.119 151.556,375.029 149.734,373.034 147.369,371.142 144.393,369.39 140.756,367.831 137.596,366.875 " fill="none" stroke-width="0.5" stroke="rgb(0,0,0)" />
	<polygon points="246.137,367.265 245.545,368.249 241.479,373.716 240.642,374.622 239.937,375.24 240.45,375.429 241.678,376.056 242.562,376.648 243.523,377.452 244.266,378.223 244.843,378.947 245.22,378.93 246.065,378.953 247.311,379.079 248.516,379.33 249.538,379.659 248.161,374.577 247.981,373.569 247.212,364.998 " fill="none" stroke-width="0.5" stroke="rgb(0,0,0)" />
	<polygon points="77.8908,367.241 78.8556,369.681 80.1078,377.951 81.5025,376.275 82.1077,375.649 84.6162,373.415 85.3752,372.842 87.8544,371.27 88.8944,370.748 89.8709,370.374 89.0196,369.896 88.0913,369.249 86.6057,367.983 85.8377,367.192 84.6029,365.654 84.4707,365.455 84.4265,365.464 83.6067,365.608 83.3585,365.647 82.517,365.758 81.8136,365.808 79.5002,365.832 78.3382,365.728 76.6242,365.4 " fill="none" stroke-width="0.5" stroke="rgb(0,0,0)" />
	<polygon points="169.638,368.085 169.658,368.155 170.511,371.351 171.25,373.861 171.678,374.952 171.839,374.987 172.162,375.034 172.489,375.061 172.829,375.071 173.299,375.065 173.824,375.048 174.362,375.022 174.914,374.991 175.468,374.958 175.496,374.956 175.633,374.949 174.665,374.105 173.947,373.357 169.597,367.939 " fill="none" stroke-width="0.5" stroke="rgb(0,0,0)" />
	<polygon points="354.064,363.108 352.474,364.665 352.94,364.796 355.149,367.36 355.621,370.333 355.213,374.29 355.857,373.924 357.105,373.334 357.71,373.088 359.279,372.55 359.736,372.414 361.449,371.979 364.521,370.958 363.58,370.688 362.509,370.263 360.634,369.295 359.648,368.653 358.057,367.371 357.215,366.54 355.934,364.988 355.281,364.011 354.513,362.569 " fill="none" stroke-width="0.5" stroke="rgb(0,0,0)" />
	<polygon points="100.229,372.407 98.134,372.507 98.9232,374.062 98.9333,374.048 100.442,372.379 " fill="none" stroke-width="0.5" stroke="rgb(0,0,0)" />
	<polygon points="324.034,365.459 323.318,366.88 322.717,367.833 321.752,369.079 320.955,369.921 320.098,370.662 320.574,370.692 323.522,370.624 327.105,370.391 330.969,369.974 333.906,369.511 333.8,369.492 330.858,368.666 329.77,368.239 327.154,366.898 326.128,366.227 324.311,364.747 " fill="none" stroke-width="0.5" stroke="rgb(0,0,0)" />
	<polygon points="277.144,364.401 275.038,368.134 274.961,368.659 275.82,368.227 276.159,368.106 277.493,367.8 277.768,367.77 277.828,367.366 278.068,366.141 278.284,365.341 278.679,364.206 279.247,363.022 279.668,362.35 " fill="none" stroke-width="0.5" stroke="rgb(0,0,0)" />
	<polygon points="298.137,354.73 294.95,356.648 293.695,357.214 289.19,358.637 289.108,358.662 288.591,358.817 288.744,358.828 290.16,359.353 291.61,360.139 293.478,361.525 293.607,361.623 295.946,363.461 298.65,365.304 298.43,364.744 298.012,363.291 297.808,362.217 297.664,360.68 297.645,359.857 297.698,358.751 297.738,358.291 297.876,357.201 297.924,356.889 298.12,355.815 298.153,355.65 298.377,354.592 298.381,354.574 298.419,354.397 " fill="none" stroke-width="0.5" stroke="rgb(0,0,0)" />
	<polygon points="118.174,353.172 117.293,353.681 115.919,354.323 115.945,356.474 115.845,357.625 115.434,359.815 115.098,360.952 114.281,362.944 113.721,363.993 113.356,364.536 115.434,363.958 116.473,363.768 120.724,363.384 121.893,363.395 128.642,364.141 126.62,363.288 125.973,362.966 124.351,362.032 123.459,361.4 122.362,360.458 121.355,359.335 120.687,358.365 119.946,356.863 119.615,355.846 119.347,354.516 119.257,353.435 119.304,352.379 " fill="none" stroke-width="0.5" stroke="rgb(0,0,0)" />
	<polygon points="394.194,339.823 394.018,339.97 392.87,340.893 392.356,341.263 391.334,341.915 389.847,342.595 389.011,342.842 386.622,343.038 386.435,343.015 385.024,342.656 384.855,342.589 384.423,342.359 385.212,343.626 385.763,344.771 386.892,347.971 387.189,349.258 387.575,352.654 387.583,353.366 388.851,351.902 389.517,351.246 394.129,347.381 395.532,346.51 400.153,344.479 399.434,343.787 398.993,343.311 397.716,341.773 397.583,341.608 396.235,339.858 395.393,338.779 " fill="none" stroke-width="0.5" stroke="rgb(0,0,0)" />
	<polygon points="165.955,294.952 165.287,295.364 164.006,296.041 163.185,296.397 161.915,296.837 160.77,297.108 159.586,297.264 158.334,297.295 157.977,297.265 156.99,297.097 156.584,296.991 155.601,296.64 155.154,296.433 154.269,295.926 153.791,295.593 153.136,295.055 157.229,301.342 157.557,301.914 161.614,310.017 162.108,311.43 163.647,318.735 163.75,320.459 163.497,323.299 163.323,324.288 162.573,327.103 162.231,328.049 160.994,330.729 160.467,331.643 158.753,334.08 158.011,334.942 155.83,337.027 154.855,337.78 152.218,339.403 151.043,339.958 149.123,340.614 151.628,341.659 152.407,342.055 154.867,343.546 155.566,344.043 157.915,345.989 158.481,346.525 160.74,348.97 161.163,349.484 162.407,351.183 161.73,345.237 161.696,344.384 161.754,342.601 161.781,342.201 161.96,340.437 162.025,339.978 162.331,338.301 162.465,337.73 162.904,336.207 163.179,335.452 163.757,334.15 164.343,333.124 165.067,332.111 166.315,330.833 167.19,330.175 169.411,329.148 170.444,328.914 171.715,328.838 168.22,323.546 167.646,322.436 165.347,316.501 164.999,315.134 164.184,308.8 164.145,307.741 164.313,304.583 164.38,303.963 164.872,300.916 165.002,300.314 165.797,297.39 165.985,296.817 166.992,294.211 " fill="none" stroke-width="0.5" stroke="rgb(0,0,0)" />
	<polygon points="56.3631,335.849 57.1813,342.556 60.6446,348.126 63.3876,350.841 63.3149,350.227 63.2897,347.765 63.4212,346.47 63.9126,344.195 64.299,343.022 65.2274,340.966 65.794,339.98 66.6909,338.72 66.2846,338.67 65.7712,338.584 62.9009,337.968 62.1117,337.74 59.643,336.833 58.6519,336.36 56.5956,335.127 " fill="none" stroke-width="0.5" stroke="rgb(0,0,0)" />
	<polygon points="318.017,340.776 316.984,341.414 315.945,341.915 315.048,342.26 313.896,342.598 313.152,342.764 312.93,342.798 314.625,343.549 315.537,344.054 317.621,345.466 317.666,344.961 317.795,344.156 318.444,341.362 318.58,340.872 318.812,340.162 " fill="none" stroke-width="0.5" stroke="rgb(0,0,0)" />
	<polygon points="417.593,331.092 416.329,331.44 415.405,331.616 413.618,331.81 413.413,331.828 411.645,331.957 411.819,332.936 412.075,334.357 412.091,334.449 412.315,335.818 412.346,336.038 412.505,337.307 412.541,337.72 412.601,338.849 412.607,339.329 412.598,339.662 412.57,340.088 412.535,340.423 412.443,341.02 412.376,341.342 412.144,342.158 412.049,342.417 412.651,342.407 417.998,342.863 418.983,343.033 424.227,344.406 423.625,343.909 420.353,340.192 419.043,337.643 417.803,332.27 417.716,331.01 " fill="none" stroke-width="0.5" stroke="rgb(0,0,0)" />
	<polygon points="121.349,323.95 120.247,324.466 119.348,324.778 119.692,325.014 120.534,325.715 122.077,327.27 122.77,328.112 124.015,329.95 124.548,330.925 125.44,333.004 125.786,334.096 126.269,336.371 126.396,337.64 126.376,339.878 126.254,341.012 126.017,342.155 126.707,341.748 128.687,340.786 129.426,340.487 131.604,339.775 132.312,339.592 133.27,339.406 131.525,338.397 130.559,337.698 128.652,335.997 127.888,335.169 126.392,333.198 125.825,332.29 124.746,330.146 124.36,329.167 123.707,326.946 123.498,325.876 123.278,323.675 123.271,322.791 " fill="none" stroke-width="0.5" stroke="rgb(0,0,0)" />
	<polygon points="385.637,308.692 384.57,310.202 383.548,311.985 382.645,313.932 381.985,315.742 381.76,316.905 381.554,319.155 381.378,322.121 381.191,325.306 381.179,325.47 380.917,328.475 380.865,328.891 380.462,331.413 380.201,332.437 379.588,334.172 378.408,335.752 379.333,336.413 380.166,337.137 380.825,337.829 380.816,337.792 380.665,336.867 380.649,336.674 380.703,335.268 380.981,333.532 381.221,332.568 381.954,330.42 382.086,330.069 383.123,327.568 383.144,327.517 384.301,324.801 385.395,322.021 386.29,319.266 386.876,316.632 387.097,313.984 387.072,312.635 386.962,310.872 386.742,309.102 386.458,307.774 " fill="none" stroke-width="0.5" stroke="rgb(0,0,0)" />
	<polygon points="321.677,325.118 320.377,326.003 320.27,326.054 320.41,326.215 321.017,327.106 321.675,328.388 322.003,329.283 322.258,330.362 322.436,329.811 322.938,327.619 323.117,325.56 323.098,325.046 323.023,324.415 322.897,323.804 322.838,323.61 " fill="none" stroke-width="0.5" stroke="rgb(0,0,0)" />
	<polygon points="75.2507,307.299 73.6946,311.621 72.7402,315.28 72.4197,318.247 72.4524,319.405 72.5874,320.685 72.8405,321.879 73.2494,323.067 73.8816,324.335 74.8318,325.754 75.1096,326.079 75.4918,325.062 75.9831,324.058 77.0874,322.26 77.7698,321.358 79.1875,319.819 80.0307,319.065 81.7317,317.818 82.6917,317.247 84.646,316.323 85.6708,315.951 87.8482,315.384 88.7034,315.246 87.2885,315.109 86.1926,314.896 84.4889,314.392 83.4531,313.974 81.8591,313.146 80.905,312.526 79.476,311.385 78.6403,310.569 77.4316,309.125 76.7641,308.139 75.8311,306.402 75.7343,306.168 " fill="none" stroke-width="0.5" stroke="rgb(0,0,0)" />
	<polygon points="348.988,305.285 348.567,305.328 345.809,305.509 344.897,305.497 344.373,305.449 344.428,306.429 344.327,307.675 344.124,308.8 343.81,309.906 343.27,311.194 342.727,312.152 341.808,313.369 341.018,314.171 339.883,315.069 339.313,315.415 340.275,315.856 341.13,316.339 345.99,319.652 346.762,320.281 350.779,324.167 351.439,324.925 351.441,324.928 351.458,324.852 351.812,323.765 352.387,322.455 352.589,322.041 353.401,320.525 353.5,320.349 353.973,319.536 352.786,319.254 352.537,319.189 350.689,318.664 349.864,318.361 348.557,317.766 346.18,315.785 345.684,315.072 344.636,311.855 345.167,309.291 345.371,308.847 347.268,306.54 347.84,306.127 348.932,305.507 349.655,305.193 " fill="none" stroke-width="0.5" stroke="rgb(0,0,0)" />
	<polygon points="97.7327,313.49 96.5445,314.008 94.03,314.788 92.8545,315.023 92.2637,315.08 92.5605,315.09 94.8076,315.402 95.9627,315.685 98.0049,316.411 99.0352,316.894 99.7376,317.312 99.1099,315.883 98.7962,314.97 98.3991,313.407 98.3526,313.133 " fill="none" stroke-width="0.5" stroke="rgb(0,0,0)" />
	<polygon points="129.047,294.339 130.432,300.447 130.555,301.228 131.08,307.199 131.076,308.273 130.941,309.668 130.965,309.656 131.443,309.497 133.846,309.225 134.027,309.242 135.518,309.586 135.668,309.642 137.362,310.627 137.483,310.727 138.705,312.13 138.799,312.282 139.381,313.516 139.451,313.725 139.667,314.578 139.714,314.851 139.783,315.395 139.81,315.737 139.827,316.078 139.831,316.277 139.836,316.331 139.957,316.343 140.077,316.332 139.202,312.236 136.275,306.161 131.694,298.484 128.952,293.987 " fill="none" stroke-width="0.5" stroke="rgb(0,0,0)" />
	<polygon points="401.997,304.214 402.966,306.157 404.313,308.181 405.96,310.166 407.81,312.006 409.754,313.609 411.477,314.764 411.013,313.937 408.886,310.487 406.474,307.289 403.896,304.802 401.797,303.587 " fill="none" stroke-width="0.5" stroke="rgb(0,0,0)" />
	<polygon points="437.604,311.166 436.598,311.679 436.36,311.772 435.588,312.016 435.301,312.085 434.737,312.192 434.401,312.239 433.997,312.281 433.612,312.307 433.322,312.32 432.889,312.328 432.605,312.327 431.836,312.304 431.598,312.292 430.752,312.233 430.62,312.223 429.717,312.139 429.663,312.133 428.728,312.038 427.814,311.946 427.728,311.939 427.713,312.789 427.707,312.978 427.628,314.552 427.818,314.449 428.893,314.002 431.05,313.346 432.182,313.122 434.486,312.897 435.266,312.873 437.307,312.947 437.625,312.971 437.604,312.543 437.616,311.794 437.669,311.125 " fill="none" stroke-width="0.5" stroke="rgb(0,0,0)" />
	<polygon points="312.45,303.136 311.663,303.77 307.073,306.853 306.476,307.171 307.776,307.225 308.28,307.269 310.919,307.61 311.455,307.705 313.858,308.247 314.464,308.419 315.119,308.643 314.901,308.284 314.028,306.352 313.569,304.784 313.253,302.609 313.25,302.369 " fill="none" stroke-width="0.5" stroke="rgb(0,0,0)" />
	<polygon points="108.917,291.993 108.904,292.377 108.628,296.584 108.503,297.457 107.806,300.625 108.533,300.68 108.816,300.838 110.099,302.116 110.137,301.159 109.823,296.568 108.986,292.188 108.917,291.942 " fill="none" stroke-width="0.5" stroke="rgb(0,0,0)" />
	<polygon points="434.909,291.279 434.236,292.401 433.978,292.795 433.027,294.127 432.949,294.233 431.883,295.658 431.344,296.398 432.437,297.017 434.355,298.052 434.491,298.128 436.196,299.108 436.746,299.466 437.93,300.337 437.987,300.401 436.054,294.006 435.024,291.02 " fill="none" stroke-width="0.5" stroke="rgb(0,0,0)" />
	<polygon points="458.671,287.602 457.605,288.095 456.439,289.062 455.105,290.673 453.663,292.903 453.137,293.835 454.711,293.675 456.234,293.719 459.422,294.233 461.089,294.767 461.676,295.058 461.643,294.884 461.625,294.882 461.633,294.831 461.629,294.813 461.649,294.719 461.654,294.667 461.662,294.531 461.67,294.327 461.675,294.062 461.677,293.744 461.677,293.52 461.604,292.035 461.398,290.625 461.059,289.318 460.637,288.279 460.241,287.643 460.036,287.438 459.946,287.424 " fill="none" stroke-width="0.5" stroke="rgb(0,0,0)" />
	<polygon points="89.9892,277.192 89.9115,277.355 86.9979,283.232 86.9481,283.33 84.5931,287.864 83.6081,289.765 83.9624,289.873 85.897,290.89 86.4185,291.304 86.986,291.82 87.5508,292.404 88.0237,292.893 88.222,293.066 88.9341,292.968 88.9582,292.955 89.1141,292.766 89.5822,291.627 90.0597,289.305 90.3824,285.919 90.5375,281.598 90.5744,276.398 90.5826,276.127 90.5966,275.866 " fill="none" stroke-width="0.5" stroke="rgb(0,0,0)" />
	<polygon points="54.5952,275.448 54.584,276.656 54.8529,277.933 55.6154,279.563 55.9158,280.037 56.3856,280.762 56.4241,280.823 56.8692,281.528 56.9892,281.727 57.3807,282.406 57.575,282.773 57.9007,283.443 58.1359,283.999 58.3836,284.68 58.5971,285.411 58.7547,286.121 58.8783,286.963 58.9335,287.72 58.8785,289.052 58.8379,289.311 60.6008,286.066 61.3564,282.776 61.3397,282.664 61.2894,282.474 61.2242,282.31 61.127,282.131 60.968,281.906 60.7119,281.616 60.1377,281.085 60.124,281.072 58.202,279.281 57.8555,278.93 56.3415,277.26 56.1255,277.008 54.9028,275.494 54.872,275.456 54.653,275.18 " fill="none" stroke-width="0.5" stroke="rgb(0,0,0)" />
	<polygon points="427.789,275.3 427.101,278.323 426.634,279.194 424.24,281.587 422.966,282.27 421.841,282.729 419.95,283.28 419.492,283.393 417.174,283.87 417.032,283.898 414.511,284.352 412.083,284.82 410.051,285.315 408.463,285.879 407.162,286.483 406.241,286.995 406.638,287.004 410.257,286.771 413.494,286.175 416.49,285.31 419.228,284.287 421.707,283.213 423.875,282.228 424.08,282.14 425.82,281.428 426.791,281.126 428.032,280.856 429.765,280.742 429.953,280.758 430.996,280.942 431.09,280.968 429.042,276.646 427.004,273.063 " fill="none" stroke-width="0.5" stroke="rgb(0,0,0)" />
	<polygon points="157.582,223.588 156.385,225.619 155.359,227.403 154.664,228.831 154.577,229.092 156.344,231.638 156.623,233.687 156.563,235.114 156.546,235.375 156.387,237.197 156.375,237.319 156.15,239.391 156.144,239.448 155.886,241.624 155.884,241.637 155.629,243.757 155.411,245.642 155.27,247.078 155.23,247.841 155.262,248.887 157.117,250.057 158.323,252.28 158.788,253.905 158.899,254.359 159.264,256.17 159.314,256.452 159.605,258.381 159.627,258.538 159.871,260.516 159.878,260.57 160.099,262.505 160.315,264.267 160.524,265.639 161.965,266.163 163.906,268.708 164.447,270.084 165.012,271.513 165.595,272.899 166.199,274.189 166.816,275.324 167.42,276.242 167.962,276.891 168.782,277.615 169.025,277.824 169.437,278.218 169.707,278.502 170.038,278.881 170.3,279.209 170.594,279.61 170.836,279.973 171.113,280.431 171.324,280.818 171.591,281.379 171.756,281.78 172,282.499 172.109,282.904 172.28,283.849 172.319,284.248 172.269,285.56 172.623,285.106 172.975,284.695 174.975,282.566 176.151,281.888 175.357,281.349 174.764,280.888 170.65,277.243 169.726,276.204 166.815,272.018 165.916,269.983 164.812,265.158 164.892,262.238 166.034,258.264 167.15,256.149 170.159,252.514 170.98,251.701 175.235,248.249 175.561,248.003 180.399,244.611 184.992,241.274 188.534,238.093 190.507,235.306 191.197,232.385 191.126,231.762 190.98,230.914 190.77,229.98 190.502,229.012 190.427,228.788 190.339,229.485 189.972,230.913 188.625,234.307 188.008,235.463 185.973,238.424 185.305,239.23 182.753,241.801 182.168,242.317 179.272,244.545 178.819,244.86 175.752,246.79 175.442,246.971 172.374,248.647 172.214,248.732 169.317,250.199 165.985,250.79 162.884,249.438 161.05,246.594 160.951,243.764 161.193,242.628 161.402,241.54 161.588,240.452 161.745,239.365 161.872,238.279 161.966,237.194 162.024,236.108 162.042,235.109 161.943,233.091 161.636,231.155 161.078,229.204 160.213,227.203 158.966,225.117 157.658,223.452 " fill="none" stroke-width="0.5" stroke="rgb(0,0,0)" />
	<polygon points="391.184,273.813 390.872,275.868 390.762,277.713 390.808,278.811 390.899,279.497 391.269,278.352 391.539,276.919 391.643,275.265 391.598,273.073 391.542,272.109 " fill="none" stroke-width="0.5" stroke="rgb(0,0,0)" />
	<polygon points="339.609,273.261 338.607,274.341 338.252,275.742 338.268,275.864 338.317,275.974 338.403,276.073 338.734,276.304 339.399,276.593 340.333,276.84 341.331,276.983 341.288,276.563 341.283,276.518 341.227,275.929 341.216,275.799 341.176,275.254 341.163,275.008 341.148,274.518 341.171,273.796 341.195,273.533 341.391,272.482 341.463,272.229 341.464,272.224 " fill="none" stroke-width="0.5" stroke="rgb(0,0,0)" />
	<polygon points="133.401,217.925 129.356,219.206 129.001,219.366 129.674,219.537 131.941,222.049 132.438,225.396 131.854,227.219 130.733,229.401 129.916,231.467 129.253,233.66 128.74,235.913 128.369,238.156 128.126,240.319 127.995,242.331 127.963,243.774 129.348,253.696 133.027,263.458 138.449,273.296 139.541,274.951 139.984,274.029 139.92,273.666 139.487,272.696 138.495,271.043 137.144,268.968 137.061,268.837 135.652,266.541 135.411,266.11 134.182,263.666 133.858,262.888 132.988,260.28 132.728,259.117 132.398,256.329 132.989,252.997 134.026,251.923 133.981,251.502 133.598,249.917 132.941,247.791 132.126,245.343 132.112,245.3 131.277,242.726 131.215,242.523 130.486,239.966 130.387,239.563 129.871,237.105 129.768,236.404 129.572,234.127 130.27,230.816 132.685,228.446 132.859,228.401 132.898,227.906 132.923,227.661 133.223,225.193 133.271,224.874 133.731,222.296 133.817,221.894 134.475,219.282 134.623,218.787 135.033,217.608 " fill="none" stroke-width="0.5" stroke="rgb(0,0,0)" />
	<polygon points="420.733,265.219 420.557,265.672 419.913,267.147 419.824,267.341 419.418,268.185 419.996,268.313 420.258,268.377 421.882,268.815 422.693,269.099 423.842,269.598 425.939,271.277 423.075,267.15 420.925,264.657 " fill="none" stroke-width="0.5" stroke="rgb(0,0,0)" />
	<polygon points="352.092,267.934 352.161,267.955 352.467,268.083 352.481,267.747 " fill="none" stroke-width="0.5" stroke="rgb(0,0,0)" />
	<polygon points="362.928,257.5 361.38,260.684 361.97,260.653 362.156,260.646 363.066,260.627 363.1,260.626 363.081,260.351 363.078,260.297 363.022,259.301 363.017,259.207 362.977,258.223 362.973,258.079 362.958,257.133 362.958,257.067 " fill="none" stroke-width="0.5" stroke="rgb(0,0,0)" />
	<polygon points="402.35,254.421 403.316,255.276 403.971,255.958 404.934,257.136 405.146,257.412 406.098,258.73 406.251,258.94 407.091,258.292 408.36,257.27 408.473,257.181 409.518,256.382 407.16,255.478 401.808,253.975 401.433,253.87 " fill="none" stroke-width="0.5" stroke="rgb(0,0,0)" />
	<polygon points="446.762,253.548 446.764,253.554 448.117,256.918 448.148,256.995 448.715,258.465 448.746,258.406 448.819,258.273 450.501,255.291 450.554,255.199 451.247,254.021 451.17,253.982 450.969,253.876 447.514,251.958 447.17,251.751 445.635,250.756 " fill="none" stroke-width="0.5" stroke="rgb(0,0,0)" />
	<polygon points="382.294,243.462 381.848,244.549 381.229,245.711 380.567,246.698 379.742,247.691 378.898,248.52 377.893,249.324 376.915,249.959 375.755,250.556 375.477,250.667 375.692,250.858 376.335,251.53 377.454,252.9 377.696,253.218 378.599,254.493 379.412,253.639 379.636,253.415 380.823,252.296 381.472,251.766 382.599,250.975 384.338,250.141 385.377,249.84 387.501,249.631 387.802,249.657 389.079,249.912 389.334,249.993 390.838,250.723 391.049,250.866 392.333,252.051 392.501,252.261 393.269,253.514 393.397,253.798 393.44,253.922 393.723,253.695 393.931,253.566 395.194,252.978 395.426,252.902 396.671,252.64 396.922,252.616 396.956,252.62 396.419,252.47 395.853,252.281 391.041,250.39 389.811,249.727 385.933,246.995 384.38,245.373 382.565,242.547 " fill="none" stroke-width="0.5" stroke="rgb(0,0,0)" />
	<polygon points="358.86,246.73 357.932,247.357 355.881,248.471 355.012,248.839 355.091,248.858 358.151,249.113 361.298,250.356 363.23,253.134 363.162,254.123 363.222,253.786 363.382,253.116 363.498,252.733 363.931,251.681 364.085,251.392 364.869,250.369 364.023,249.917 363.09,249.296 362.101,248.492 361.298,247.698 360.471,246.705 359.903,245.87 " fill="none" stroke-width="0.5" stroke="rgb(0,0,0)" />
	<polygon points="313.113,224.149 312.065,224.597 310.207,225.185 309.046,225.426 307.429,225.594 308.242,228.11 309.559,229.591 311.995,231.04 315.544,232.582 315.759,232.681 319.559,234.517 320.61,235.171 323.874,237.716 325.296,239.324 327.581,243.138 328.179,244.799 328.393,244.629 329.51,243.931 330.507,243.433 331.675,242.983 332.575,242.717 333.723,242.476 333.747,242.472 333.26,241.751 332.146,239.703 331.7,238.648 330.995,236.388 330.76,235.237 330.616,233.813 330.029,233.996 328.88,234.23 327.475,234.373 326.292,234.372 324.897,234.23 323.743,233.993 322.44,233.585 321.386,233.137 320.203,232.492 319.277,231.865 318.245,231.011 317.462,230.227 316.608,229.192 315.982,228.266 315.336,227.08 314.89,226.025 314.481,224.716 314.245,223.564 314.242,223.53 " fill="none" stroke-width="0.5" stroke="rgb(0,0,0)" />
	<polygon points="464.161,216.872 464.126,217.279 463.789,220.06 463.756,220.292 463.28,223.233 463.261,223.345 462.715,226.346 462.713,226.36 462.175,229.277 461.725,231.945 461.43,234.203 461.337,235.835 461.414,236.836 461.628,237.782 461.698,237.969 463.146,235.892 464.556,233.313 465.711,230.469 466.466,227.554 466.726,224.764 466.162,219.704 464.732,215.792 464.252,215.072 " fill="none" stroke-width="0.5" stroke="rgb(0,0,0)" />
	<polygon points="103.737,237.609 105.209,235.8 103.987,235.257 103.965,235.219 " fill="none" stroke-width="0.5" stroke="rgb(0,0,0)" />
	<polygon points="380.026,226.902 379.235,227.694 378.019,228.697 377.631,228.959 377.877,229.119 378.882,229.917 379.685,230.691 380.004,231.063 380.075,230.062 380.144,229.483 380.502,227.4 380.566,227.078 380.831,225.925 " fill="none" stroke-width="0.5" stroke="rgb(0,0,0)" />
	<polygon points="47.6843,226.559 47.1666,226.778 44.6391,227.708 44.4732,227.758 44.5522,227.806 45.7335,228.749 46.0163,229.043 46.859,230.157 46.9929,230.387 48.2068,226.308 " fill="none" stroke-width="0.5" stroke="rgb(0,0,0)" />
	<polygon points="86.5746,211.01 84.4661,213.507 84.0972,213.752 84.5722,214.032 85.1437,214.481 86.1101,215.441 86.5729,216.022 87.1905,216.975 87.5467,217.663 87.9105,218.53 88.1623,219.298 88.3589,220.073 88.5085,220.894 88.5932,221.602 88.6426,222.45 88.6109,223.486 88.3921,225.312 88.9611,224.76 89.6977,224.158 90.8076,223.443 91.5444,223.079 93.1688,222.554 93.8978,222.431 95.6817,222.408 96.3255,222.498 97.8958,222.95 98.5074,223.223 99.8122,224.025 100.375,224.483 101.314,225.445 101.433,225.6 101.427,225.136 101.443,224.63 101.746,220.553 101.875,219.689 102.716,215.989 102.965,215.175 103.876,212.818 102.123,213.453 100.772,213.768 97.7738,214.097 96.4847,214.096 93.2955,213.74 91.9834,213.438 89.1191,212.419 87.9222,211.831 86.5796,210.97 " fill="none" stroke-width="0.5" stroke="rgb(0,0,0)" />
	<polygon points="449.045,207.256 446.218,208.432 446.111,208.475 442.523,209.885 442.202,210.001 437.893,211.411 437.44,211.54 432.319,212.77 431.789,212.872 425.767,213.742 425.205,213.796 420.543,214.015 421.156,214.245 425.6,216.406 426.777,217.165 430.471,220.229 431.381,221.175 434.097,224.723 435.572,221.292 436.132,220.278 438.655,216.624 439.211,215.937 442.196,212.768 442.714,212.281 445.844,209.678 446.358,209.297 449.319,207.338 449.937,206.982 450.281,206.811 " fill="none" stroke-width="0.5" stroke="rgb(0,0,0)" />
	<polygon points="65.0623,214.326 63.8147,215.76 62.6526,216.723 63.2511,216.997 64.7362,217.976 65.2531,218.444 66.2428,219.609 66.6426,220.229 67.1769,221.274 67.4698,222.024 67.7237,222.85 67.9202,223.711 67.9848,224.087 68.7122,222.296 69.0887,221.534 71.7533,217 72.6144,216.105 71.7002,216.029 70.7034,215.859 68.6318,215.317 67.6264,214.952 65.7559,214.074 65.2145,213.752 " fill="none" stroke-width="0.5" stroke="rgb(0,0,0)" />
	<polygon points="185.498,211.469 187.471,213.756 188.266,214.946 189.474,217.347 189.928,218.574 190.237,219.822 190.253,219.785 193.134,218.01 196.35,218.482 195.978,217.873 195.386,215.732 194.762,214.545 193.945,213.603 192.789,212.759 191.13,211.994 188.876,211.37 186.011,210.962 184.898,210.916 " fill="none" stroke-width="0.5" stroke="rgb(0,0,0)" />
	<polygon points="337.911,212.682 336.695,213.336 337.192,213.936 337.82,214.864 338.468,216.051 338.901,217.071 340.369,216.273 340.344,216.249 339.489,215.212 338.861,214.284 338.215,213.096 338.011,212.615 " fill="none" stroke-width="0.5" stroke="rgb(0,0,0)" />
	<polygon points="400.173,210.903 401.198,211.992 402.065,213.191 403.518,212.211 402.834,212.024 400.104,210.846 " fill="none" stroke-width="0.5" stroke="rgb(0,0,0)" />
	<polygon points="381.073,198.573 380.642,199.948 380.193,201.002 379.511,202.25 378.885,203.174 377.984,204.263 377.202,205.044 376.884,205.307 377.083,205.415 378.016,206.044 379.232,207.045 380.023,207.836 381.025,209.05 381.656,209.984 381.755,210.166 381.67,209.89 382.63,206.645 385.226,204.475 388.478,204.556 383.12,200.187 382.149,199.18 381.206,197.93 " fill="none" stroke-width="0.5" stroke="rgb(0,0,0)" />
	<polygon points="57.5506,202.745 57.1373,203.114 55.3571,204.56 54.8715,204.914 53.0846,206.083 52.5193,206.41 50.9356,207.209 51.9325,207.03 54.0558,206.602 56.3321,206.109 58.5339,205.608 58.0517,204.083 57.8078,202.894 57.7716,202.528 " fill="none" stroke-width="0.5" stroke="rgb(0,0,0)" />
	<polygon points="180.386,186.244 180.508,186.214 182.177,185.9 182.026,185.853 179.863,184.802 " fill="none" stroke-width="0.5" stroke="rgb(0,0,0)" />
	<polygon points="366.875,167.612 366.086,168.4 365.102,169.21 364.17,169.837 363.041,170.449 362.745,170.574 362.87,170.725 363.496,171.648 364.536,173.546 364.984,174.6 365.643,176.693 365.881,177.85 366.111,180.09 366.111,181.286 365.997,182.398 366.233,182.349 367.688,182.199 368.884,182.198 370.357,182.349 371.511,182.586 371.831,182.686 371.227,181.45 370.898,180.626 368.132,171.777 367.958,171.068 367.254,167.154 " fill="none" stroke-width="0.5" stroke="rgb(0,0,0)" />
	<polygon points="151.247,172.306 150.526,172.606 146.078,174.117 145.302,174.322 141.047,175.141 142.118,175.887 142.817,176.459 146.211,179.705 146.678,180.207 148.006,181.815 148.379,179.444 148.587,178.57 149.545,175.574 150.213,174.168 151.508,172.177 " fill="none" stroke-width="0.5" stroke="rgb(0,0,0)" />
	<polygon points="109.115,159.946 108.488,160.873 107.633,161.909 106.849,162.694 105.814,163.55 104.887,164.177 103.701,164.824 102.647,165.272 101.338,165.681 100.185,165.918 98.7832,166.061 97.5998,166.061 96.1927,165.918 95.0424,165.683 93.7296,165.274 92.6759,164.828 91.4862,164.181 90.5588,163.555 90.3777,163.406 89.6079,165.368 92.3457,165.415 95.6886,166.652 96.3366,166.938 99.7121,168.677 100.321,169.038 103.581,171.253 104.181,171.721 107.18,174.387 107.778,175.004 110.367,178.097 110.939,178.911 112.378,181.386 112.919,179.653 113.363,178.602 114.406,176.684 115.227,175.532 116.613,174.014 117.816,173.009 119.527,171.933 118.046,171.086 117.004,170.326 114.111,167.682 113.297,166.764 111.075,163.652 110.509,162.672 109.2,159.79 " fill="none" stroke-width="0.5" stroke="rgb(0,0,0)" />
	<polygon points="309.538,169.024 309.039,170.058 308.271,171.253 307.682,171.962 306.491,172.753 307.429,172.561 308.829,172.418 310.013,172.418 311.42,172.56 312.569,172.795 313.882,173.204 313.888,173.207 313.953,172.889 314.339,171.645 314.783,170.591 315.041,170.115 314.804,170.076 312.6,169.627 312.198,169.531 310.35,169.017 310.026,168.916 309.643,168.785 " fill="none" stroke-width="0.5" stroke="rgb(0,0,0)" />
	<polygon points="343.985,162.803 343.016,163.608 338.909,166.331 337.919,166.859 335.485,167.869 336.027,168.525 336.53,169.269 336.697,169.068 337.477,168.288 339.137,166.917 340.059,166.293 341.958,165.255 343.01,164.808 345.102,164.151 346.134,163.939 345.954,163.512 345.567,162.268 345.382,161.36 " fill="none" stroke-width="0.5" stroke="rgb(0,0,0)" />
	<polygon points="163.76,164.234 160.172,167.12 159.711,167.456 159.042,167.894 159.918,167.744 162.029,167.769 163.757,168.108 165.2,168.592 165.59,168.782 165.507,168.598 163.827,164.175 " fill="none" stroke-width="0.5" stroke="rgb(0,0,0)" />
	<polygon points="422.482,142.569 421.401,143.863 418.66,146.315 417.652,147.039 414.037,149.096 413.202,149.487 408.991,151.07 409.085,151.068 409.733,151.09 417.066,151.75 418.199,151.966 424.619,153.863 425.699,154.304 431.385,157.315 432.244,157.872 437.315,161.826 435.046,157.527 434.596,156.408 432.75,149.971 432.798,146.587 433.104,146.14 431.638,145.754 430.77,145.452 429.091,144.714 428.053,144.125 426.694,143.158 425.6,142.147 424.59,140.942 424.037,140.045 " fill="none" stroke-width="0.5" stroke="rgb(0,0,0)" />
	<polygon points="353.65,133.39 353.924,134.884 353.975,135.216 354.142,136.559 354.179,136.987 354.236,138.107 354.217,138.955 353.591,145.556 353.343,146.772 353.083,147.591 353.345,147.481 354.594,147.094 355.74,146.861 357.081,146.726 358.253,146.726 359.592,146.861 360.739,147.094 361.987,147.481 363.043,147.926 364.172,148.538 365.105,149.167 366.089,149.979 366.879,150.768 367.003,150.919 367.946,149.769 368.004,149.715 369.506,148.693 369.568,148.664 370.18,148.482 365.566,145.778 364.672,145.133 359.335,140.465 358.628,139.727 354.38,134.444 353.827,133.623 353.621,133.251 " fill="none" stroke-width="0.5" stroke="rgb(0,0,0)" />
	<polygon points="130.267,134.094 129.595,134.458 129.022,134.822 128.639,135.104 128.268,135.433 125.194,136.849 124.157,136.687 124.34,136.871 125.105,138.493 125.54,139.793 126.018,142.086 126.063,142.329 126.462,144.751 126.906,146.603 127.074,146.965 127.244,146.852 127.706,146.431 128.239,145.78 128.81,144.838 129.407,143.472 129.72,142.52 130.042,141.402 130.318,140.291 130.545,139.199 130.722,138.136 130.848,137.116 130.923,136.15 130.946,135.26 130.907,133.974 130.889,133.813 " fill="none" stroke-width="0.5" stroke="rgb(0,0,0)" />
	<polygon points="101.903,138.113 101.76,139.518 101.524,140.67 101.465,140.86 102.646,141.23 103.7,141.677 104.886,142.323 105.812,142.95 106.847,143.805 107.631,144.589 107.644,144.604 107.794,143.732 107.896,143.26 108.354,141.495 108.562,140.849 108.927,139.905 107.691,140.217 105.234,139.55 102.597,138.161 101.903,137.444 " fill="none" stroke-width="0.5" stroke="rgb(0,0,0)" />
	<polygon points="326.106,138.366 326.245,138.748 326.564,140.113 326.612,140.546 326.617,141.783 326.538,142.557 326.43,143.152 326.596,143.139 329.383,142.449 329.737,142.292 329.265,142.169 327.132,139.894 326.653,138.981 326.188,138.25 325.747,137.669 " fill="none" stroke-width="0.5" stroke="rgb(0,0,0)" />
	<polygon points="58.6475,137.568 59.4525,137.412 58.7457,137.184 " fill="none" stroke-width="0.5" stroke="rgb(0,0,0)" />
	<polygon points="314.863,123.282 313.332,123.695 311.986,124.323 310.822,125.124 309.857,126.05 309.116,127.031 308.62,127.976 308.191,129.331 306.463,131.857 307.259,132.385 308.372,132.98 309.426,133.407 310.469,133.698 311.559,133.872 312.806,133.935 313.169,133.924 313.691,133.883 314.298,133.817 314.964,133.731 315.65,133.638 315.698,133.632 316.353,133.549 316.508,133.531 317.097,133.473 317.42,133.45 317.927,133.427 318.516,133.431 319.081,133.463 319.825,133.554 320.286,133.64 319.741,133.305 319.378,133.042 318.684,132.452 318.383,132.152 317.788,131.459 317.547,131.129 317.076,130.371 316.892,130.016 316.554,129.23 316.425,128.857 316.215,128.075 316.139,127.688 316.041,126.93 316.016,126.537 316.035,125.562 316.113,124.819 316.316,123.785 316.504,123.138 " fill="none" stroke-width="0.5" stroke="rgb(0,0,0)" />
	<polygon points="123.538,111.977 121.952,118.321 121.926,118.422 120.2,124.838 120.085,125.213 118.169,130.809 117.761,131.73 116.974,133.164 119.191,133.368 118.546,130.754 118.987,128.808 120.83,124.377 121.233,123.586 123.575,119.733 124.118,118.98 126.902,115.709 127.574,115.038 129.478,113.425 128.448,112.646 127.683,111.953 126.181,110.331 125.924,110.033 124.548,108.329 " fill="none" stroke-width="0.5" stroke="rgb(0,0,0)" />
	<polygon points="93.7763,111.748 93.6784,111.841 91.5018,113.862 91.1163,114.19 88.8531,115.953 88.0111,116.5 85.673,117.747 84.0507,118.325 81.6493,118.798 79.8968,118.875 79.2494,118.805 79.2945,119.071 79.3677,119.719 79.5564,123.034 79.5645,123.496 79.5327,124.923 79.5216,125.176 79.4306,126.564 79.4098,126.805 79.2656,128.151 79.2367,128.379 79.0625,129.564 79.6412,128.862 80.4246,128.077 81.4592,127.221 82.3863,126.592 83.5724,125.945 84.6282,125.497 85.9371,125.087 87.0916,124.85 88.4947,124.707 89.6801,124.707 91.0852,124.85 92.2382,125.086 93.549,125.496 94.6038,125.943 95.7917,126.591 96.7187,127.218 97.1516,127.576 96.6686,125.432 96.5771,124.922 95.7834,118.988 95.7679,118.861 95.1175,113.034 94.7799,110.772 " fill="none" stroke-width="0.5" stroke="rgb(0,0,0)" />
	<polygon points="183.986,107.702 184.036,108.788 183.994,109.679 183.927,110.326 183.795,111.152 183.607,111.957 183.377,112.701 182.977,113.675 182.64,114.321 181.91,115.406 181.46,115.936 180.344,116.95 179.77,117.349 178.395,118.057 177.691,118.309 176.327,118.618 175.483,118.706 173.363,118.537 171.378,118.005 172.992,120.669 173.449,121.598 175.135,125.98 175.397,126.858 175.708,128.313 177.046,127.123 177.594,126.691 180.594,124.605 181.31,124.179 184.43,122.613 185.344,122.247 188.566,121.262 189.674,121.037 192.978,120.695 194.229,120.7 196.933,121.002 193.94,118.05 193.584,117.666 189.34,112.653 189.149,112.415 184.64,106.488 184.489,106.281 183.61,105.015 " fill="none" stroke-width="0.5" stroke="rgb(0,0,0)" />
	<polygon points="384.904,94.8082 378.727,99.4296 377.764,100.014 370.817,103.366 369.811,103.742 362.312,105.784 361.289,105.966 358.625,106.201 359.465,106.16 362.248,105.974 365.345,105.597 368.766,104.902 372.501,103.762 376.666,101.981 377.082,101.77 377.414,101.614 378.001,101.361 378.342,101.227 378.924,101.018 379.273,100.905 379.85,100.738 380.205,100.647 380.774,100.52 381.133,100.452 381.691,100.364 382.054,100.318 382.601,100.266 382.966,100.243 383.498,100.226 384.566,100.291 386.531,100.591 388.499,101.265 389.917,102.057 391.342,103.173 392.386,104.291 392.994,105.064 393.84,106.346 393.883,106.413 394.345,107.134 394.569,107.113 395.695,106.848 397.134,106.377 398.778,105.757 400.493,105.093 400.643,105.038 402.294,104.45 402.712,104.318 404.232,103.902 405.095,103.734 406.442,103.577 409.07,103.871 411.112,104.592 413.119,105.797 415.262,107.763 416.032,108.624 418.162,111.541 418.541,112.132 420.542,115.703 420.779,116.176 422.536,120.108 422.717,120.564 424.114,124.562 424.274,125.1 424.78,127.166 425.144,126.68 425.962,125.795 426.971,124.906 427.021,124.871 426.443,124.474 425.52,123.689 424.612,122.737 423.883,121.798 423.092,120.532 422.622,119.604 422.118,118.343 421.9,117.687 421.528,116.3 421.453,115.986 421.147,114.53 421.144,114.516 420.868,113.186 420.612,112.197 420.401,111.635 420.33,111.515 419.875,111.055 418.295,108.063 418.635,104.696 420.329,102.634 419.917,102.651 419.619,102.655 416.332,102.623 416.218,102.62 412.885,102.522 412.773,102.518 409.404,102.354 409.294,102.348 405.897,102.119 405.789,102.11 402.373,101.816 402.264,101.806 398.839,101.446 398.73,101.434 395.303,101.009 395.193,100.995 391.775,100.505 391.695,100.493 391.22,100.418 390.73,100.319 390.345,100.225 389.606,99.9898 389.302,99.8704 388.282,99.3493 388.051,99.2014 386.894,98.2261 386.728,98.0454 385.805,96.6993 385.697,96.4817 385.232,95.178 385.173,94.9193 385.128,94.6019 " fill="none" stroke-width="0.5" stroke="rgb(0,0,0)" />
	<polygon points="348.046,122.612 349.011,123.335 348.399,121.552 348.35,121.339 " fill="none" stroke-width="0.5" stroke="rgb(0,0,0)" />
	<polygon points="347.841,106.67 348.419,107.916 348.648,108.613 348.853,109.432 348.927,109.858 349.22,109.466 349.379,109.285 349.896,108.764 350.073,108.607 350.461,108.291 350.649,108.151 350.854,108.005 351.047,107.874 352.45,107.174 353.631,106.771 354.632,106.553 353.458,106.656 352.506,106.662 347.61,106.294 " fill="none" stroke-width="0.5" stroke="rgb(0,0,0)" />
	<polygon points="144.857,101.785 144.28,105.01 144.178,105.474 143.84,106.751 144.46,106.61 145.33,106.48 149.46,106.178 150.545,106.199 154.452,106.642 150.258,103.057 146.365,99.9264 145.326,99.2409 " fill="none" stroke-width="0.5" stroke="rgb(0,0,0)" />
	<polygon points="334.106,102.207 334.586,102.468 336.382,103.558 336.643,103.726 337.071,104.018 337.208,103.95 337.668,103.733 336.763,103.413 336.242,103.2 333.998,102.154 " fill="none" stroke-width="0.5" stroke="rgb(0,0,0)" />
	<polygon points="434.372,101.804 434.685,101.779 434.931,101.727 " fill="none" stroke-width="0.5" stroke="rgb(0,0,0)" />
	<polygon points="326.765,98.9205 326.416,99.4253 327.739,99.6965 328.483,99.9008 331.223,100.852 331.861,101.116 331.922,101.146 329.149,99.6285 329.033,99.5633 327.096,98.4453 " fill="none" stroke-width="0.5" stroke="rgb(0,0,0)" />
	<polygon points="70.0903,92.3745 65.0472,95.0288 61.76,96.8424 62.8731,96.9962 64.5221,97.4787 67.9046,99.0385 69.277,99.9221 70.4775,100.958 70.668,99.2976 70.6787,99.2105 70.9667,96.9952 70.9678,96.9867 71.251,94.8324 71.4879,92.8383 71.589,91.7072 " fill="none" stroke-width="0.5" stroke="rgb(0,0,0)" />
	<polygon points="396.148,78.9774 395.656,80.1169 392.925,84.948 393.844,84.423 395.349,83.2873 396.411,82.0773 397.082,80.6738 397.415,78.3363 397.381,77.4172 397.255,76.1594 397.181,75.6614 " fill="none" stroke-width="0.5" stroke="rgb(0,0,0)" />
	<polygon points="172.745,76.7926 173.438,78.4273 173.827,77.9282 173.954,77.7934 174.875,76.9976 174.89,76.9872 173.279,76.4751 172.567,76.2884 " fill="none" stroke-width="0.5" stroke="rgb(0,0,0)" />
	<polygon points="112.457,77.682 112.714,77.1666 112.304,77.0272 112.269,77.006 " fill="none" stroke-width="0.5" stroke="rgb(0,0,0)" />
	<polygon points="126.147,60.4575 125.393,63.5883 124.66,67.0686 124.58,67.4003 123.733,70.5073 123.276,71.6729 122.816,72.5562 123.514,72.8048 125.78,74.2723 127.162,75.7169 127.301,75.8955 127.324,75.2638 127.344,74.9532 127.444,73.8508 127.516,73.3267 127.688,72.3883 127.912,71.5337 128.173,70.7757 128.817,69.4677 129.186,68.9063 130.707,67.3377 131.203,66.9889 132.063,66.6258 131.113,65.4205 130.956,65.2121 129.222,62.798 127.564,60.6024 126.521,59.4615 " fill="none" stroke-width="0.5" stroke="rgb(0,0,0)" />
	<polygon points="105.812,58.7294 104.308,59.7646 102.537,61.207 100.68,62.7972 100.534,62.9179 98.7529,64.3458 98.1918,64.7437 96.5739,65.7537 95.3266,66.2967 95.3569,66.3564 95.7665,67.3958 95.9559,68.0551 96.1264,68.8562 96.234,69.6228 96.2864,70.2075 96.3206,71.0775 96.313,71.6826 96.1857,73.6585 96.1317,74.1599 96.1225,74.2202 96.5743,73.7367 98.6635,71.8557 100.662,70.676 102.72,69.9625 106.101,69.8262 107.571,70.5315 107.352,69.403 107.088,66.2412 107.073,65.9964 106.929,62.5301 106.644,59.5555 106.35,58.4715 " fill="none" stroke-width="0.5" stroke="rgb(0,0,0)" />
	<polygon points="145.834,69.8778 145.549,70.1262 145.067,70.4675 146.76,71.8493 145.962,69.7421 " fill="none" stroke-width="0.5" stroke="rgb(0,0,0)" />
	<polygon points="399.834,59.2436 399.83,60.334 399.645,62.256 399.938,62.0752 400.175,61.9581 401.172,61.5746 401.426,61.5028 402.477,61.3071 402.739,61.2827 405.417,61.6617 406.527,62.0971 408.134,63.0473 409.512,64.1951 409.847,64.4961 411.479,66.0832 413.259,67.7539 415.1,69.2326 416.979,70.3734 418.875,71.0867 421.14,71.3726 421.466,71.3573 422.155,71.2527 422.784,71.0686 423.237,70.8447 423.506,70.6263 423.715,70.3372 423.955,69.6832 424.039,68.8881 423.513,67.1423 421.687,65.2566 417.967,63.0554 413.096,61.0378 407.91,59.3181 403.218,57.8766 402.943,57.7846 399.592,56.5702 " fill="none" stroke-width="0.5" stroke="rgb(0,0,0)" />
	<polygon points="83.7626,62.2362 84.4415,62.0607 84.8222,61.9988 84.6504,61.2644 " fill="none" stroke-width="0.5" stroke="rgb(0,0,0)" />
	<polygon points="162.514,45.0499 162.467,45.4681 162.104,46.9356 161.971,47.278 161.179,48.6929 160.971,48.9656 160.317,49.6286 160.359,49.64 160.743,49.7558 164.121,50.9043 164.282,50.9615 167.813,52.278 167.818,52.2796 171.265,53.5679 171.407,53.6166 170.336,52.419 166.544,48.595 162.646,44.7208 162.499,44.5698 162.435,44.5016 " fill="none" stroke-width="0.5" stroke="rgb(0,0,0)" />
	<polygon points="143.697,50.1142 144.397,51.9572 144.877,53.0693 145.168,52.5639 145.993,51.4586 146.52,50.9031 147.186,50.3618 145.699,49.9656 144.275,49.6354 143.527,49.5096 " fill="none" stroke-width="0.5" stroke="rgb(0,0,0)" />
	<polygon points="90.4975,47.5827 88.6385,47.8928 87.8812,48.0207 88.236,48.5729 88.8246,50.637 90.4399,48.6098 91.3401,47.4586 " fill="none" stroke-width="0.5" stroke="rgb(0,0,0)" />
	<polygon points="445.221,40.2185 444.615,42.0416 444.137,43.7999 443.826,45.5446 443.712,47.3534 443.752,47.9638 443.84,48.3724 443.9,48.5216 444.158,48.5964 444.684,48.6412 444.744,48.6328 444.857,48.4386 445.156,47.5687 445.419,46.2302 445.583,44.5433 445.636,42.6171 445.604,41.0251 445.517,39.4944 445.508,39.4012 " fill="none" stroke-width="0.5" stroke="rgb(0,0,0)" />
	<polygon points="69.5547,39.6327 69.5459,39.6382 66.5352,41.5148 70.7873,41.9583 71.7821,42.0535 72.5057,38.3013 72.9798,37.4893 " fill="none" stroke-width="0.5" stroke="rgb(0,0,0)" />
</svg>
