<?xml version="1.0" standalone="no" ?>
<!DOCTYPE svg PUBLIC "-//W3C//DTD SVG 1.1//EN" "http://www.w3.org/Graphics/SVG/1.1/DTD/svg11.dtd">
<svg width="500px" height="500px" xmlns="http://www.w3.org/2000/svg" version="1.1" >
	<polygon points="471.873,91.134 468.342,93.6869 468.862,93.7939 470.433,94.2702 471.873,94.8556 471.873,281.035 471.061,295.509 468.629,310.863 464.528,327.051 458.735,343.765 451.236,360.708 442.021,377.593 431.082,394.135 418.414,410.056 404.009,425.087 387.859,438.96 369.95,451.416 350.261,462.198 328.762,471.048 305.414,477.707 280.172,481.907 252.985,483.371 226.495,481.989 201.792,478.014 178.857,471.694 157.662,463.269 138.183,452.972 120.405,441.034 104.318,427.685 89.9194,413.157 77.2121,397.687 66.2001,381.516 56.8885,364.89 49.2813,348.06 43.3803,331.283 39.1831,314.822 36.681,298.943 35.8405,283.66 35.8405,28.4573 38.4509,28.4372 49.9426,28.349 61.4342,28.2609 61.4342,28.2609 72.9259,28.1727 84.4176,28.0845 95.9093,27.9963 95.9093,27.9963 107.401,27.9082 118.893,27.82 130.384,27.7318 164.859,27.4673 176.351,27.3791 187.843,27.2909 201.79,27.1839 201.782,31.046 201.782,31.046 201.757,43.9448 201.706,69.7424 201.706,69.7424 201.68,82.6412 201.629,108.439 201.629,108.439 201.604,121.338 201.553,147.135 201.553,147.135 201.528,160.034 201.502,172.933 201.502,172.933 201.477,185.832 201.451,198.73 201.426,211.629 201.426,211.629 201.4,224.528 201.401,224.615 201.488,235.909 201.489,235.976 201.653,246.793 201.656,246.915 201.953,257.221 201.96,257.407 202.445,267.169 202.462,267.432 203.19,276.616 203.225,276.973 204.252,285.546 204.321,286.017 205.702,293.946 205.83,294.555 207.619,301.806 207.847,302.578 210.101,309.117 210.49,310.065 213.264,315.859 213.893,316.964 217.242,321.98 218.185,323.163 222.165,327.367 223.435,328.478 228.1,331.838 229.597,332.709 235.003,335.19 236.541,335.733 242.744,337.302 244.15,337.541 251.205,338.165 251.798,331.46 252.107,332.099 252.526,338.179 259.787,337.678 261.201,337.466 267.548,335.988 269.123,335.463 274.618,333.045 276.175,332.165 280.881,328.843 282.209,327.695 286.187,323.506 287.167,322.273 290.48,317.254 291.122,316.105 293.832,310.293 294.219,309.316 296.387,302.747 296.607,301.962 298.295,294.672 298.415,294.062 299.686,286.089 299.747,285.626 300.663,277.006 300.693,276.663 301.316,267.433 301.329,267.188 301.721,257.385 301.726,257.22 301.948,246.88 301.949,246.783 302.065,235.943 302.065,235.904 302.135,224.601 302.135,224.528 302.109,211.629 302.083,198.73 302.057,185.831 302.032,172.932 302.032,172.932 302.006,160.034 301.954,134.236 301.954,134.236 301.928,121.337 301.851,82.6409 301.851,82.6409 301.825,69.7421 301.747,31.0457 301.747,31.0457 301.739,27.0574 304.582,27.0391 316.335,26.9635 328.089,26.888 339.842,26.8124 351.595,26.7369 363.348,26.6613 375.102,26.5857 386.855,26.5102 410.361,26.3591 422.115,26.2835 433.868,26.2079 445.621,26.1324 457.374,26.0568 469.128,25.9813 471.873,25.9636 " fill="none" stroke-width="0.5" stroke="rgb(0,0,0)" />
	<polygon points="306.699,468.491 307.329,468.673 308.361,469.117 308.163,468.632 307.687,467.037 " fill="none" stroke-width="0.5" stroke="rgb(0,0,0)" />
	<polygon points="193.906,444.536 194.256,445.894 194.599,445.969 196.064,446.205 197.473,446.351 198.574,446.394 200.045,446.313 201.379,446.079 202.496,445.713 203.333,445.269 203.932,444.777 204.326,444.266 202.987,444.366 201.619,444.363 195.4,443.874 193.886,443.623 193.568,443.542 " fill="none" stroke-width="0.5" stroke="rgb(0,0,0)" />
	<polygon points="316.967,421.665 316.847,421.691 317.003,422.102 317.366,423.301 317.696,424.754 317.768,425.099 317.94,426.023 318.309,426.289 318.871,426.729 319.738,427.464 320.739,428.46 320.893,428.64 321.278,428.27 321.731,427.866 322.439,427.274 323.081,426.786 323.781,426.301 324.702,425.742 325.392,425.378 325.409,425.371 325.089,424.232 324.754,421.809 324.754,419.098 " fill="none" stroke-width="0.5" stroke="rgb(0,0,0)" />
	<polygon points="167.555,413.421 167.561,414.725 167.324,418.198 169.051,418.16 169.318,416.773 169.414,416.453 170.25,414.527 170.408,414.256 170.779,413.769 168.922,412.796 168.222,412.388 167.435,411.88 " fill="none" stroke-width="0.5" stroke="rgb(0,0,0)" />
	<polygon points="259.652,405.894 262.004,407.068 262.585,407.386 262.636,407.416 260.017,404.998 " fill="none" stroke-width="0.5" stroke="rgb(0,0,0)" />
	<polygon points="350.974,396.733 351.336,396.712 351.144,396.449 " fill="none" stroke-width="0.5" stroke="rgb(0,0,0)" />
	<polygon points="204.8,391.066 205.16,391.868 206.107,390.875 205.532,390.869 204.64,390.77 " fill="none" stroke-width="0.5" stroke="rgb(0,0,0)" />
	<polygon points="244.774,374.479 245.047,374.708 244.961,374.228 " fill="none" stroke-width="0.5" stroke="rgb(0,0,0)" />
	<polygon points="82.9227,368.831 81.8467,368.908 81.7984,368.908 81.9206,369.217 82.2471,371.373 82.5543,371.1 83.7153,370.224 84.1884,369.924 83.4204,369.133 83.1535,368.801 " fill="none" stroke-width="0.5" stroke="rgb(0,0,0)" />
	<polygon points="390.728,345.567 389.892,345.815 389.432,345.852 389.816,346.939 389.818,346.949 392.138,345.005 392.64,344.694 " fill="none" stroke-width="0.5" stroke="rgb(0,0,0)" />
	<polygon points="394.812,343.309 394.343,343.646 395.014,343.352 394.916,343.226 " fill="none" stroke-width="0.5" stroke="rgb(0,0,0)" />
	<polygon points="60.1755,341.501 61.0769,342.951 61.4736,341.747 61.8619,340.887 61.0432,340.65 60.0262,340.276 " fill="none" stroke-width="0.5" stroke="rgb(0,0,0)" />
	<polygon points="157.972,339.268 156.48,340.419 156.088,340.661 156.474,340.895 157.543,341.656 158.653,342.575 158.656,342.499 158.697,341.888 158.876,340.124 158.975,339.422 159.221,338.074 " fill="none" stroke-width="0.5" stroke="rgb(0,0,0)" />
	<polygon points="415.581,336.923 415.637,337.556 415.697,338.684 415.706,339.418 415.702,339.556 416.69,339.64 416.023,338.34 415.446,335.84 " fill="none" stroke-width="0.5" stroke="rgb(0,0,0)" />
	<polygon points="165.664,327.541 166.797,327.017 166.089,325.946 " fill="none" stroke-width="0.5" stroke="rgb(0,0,0)" />
	<polygon points="75.7977,315.841 75.5244,318.371 75.5477,319.195 76.9077,317.719 78.1976,316.566 79.7299,315.442 78.9708,314.949 77.5418,313.808 76.5744,312.862 " fill="none" stroke-width="0.5" stroke="rgb(0,0,0)" />
	<polygon points="161.176,300.181 160.205,300.309 160.329,300.526 161.437,302.74 161.812,300.421 161.901,300.009 " fill="none" stroke-width="0.5" stroke="rgb(0,0,0)" />
	<polygon points="161.768,253.051 161.938,253.746 162.303,255.557 162.379,255.989 162.671,257.917 162.704,258.158 162.744,258.487 163.054,257.408 164.762,254.172 165.244,253.589 162.551,252.925 161.461,251.978 " fill="none" stroke-width="0.5" stroke="rgb(0,0,0)" />
	<polygon points="327.787,237.457 327.713,237.457 327.955,237.731 328.397,238.468 328.073,237.428 " fill="none" stroke-width="0.5" stroke="rgb(0,0,0)" />
	<polygon points="90.2997,216.238 90.8561,217.564 91.108,218.332 91.4088,219.518 91.4744,219.878 92.6556,219.496 93.3846,219.374 96.1139,219.338 96.7576,219.428 98.7044,219.988 98.8522,219.002 99.2963,217.049 98.1129,217.179 96.1407,217.177 92.9514,216.821 90.944,216.358 90.2306,216.105 " fill="none" stroke-width="0.5" stroke="rgb(0,0,0)" />
	<polygon points="433.043,215.784 432.232,215.94 430.465,216.195 432.45,217.843 433.405,218.836 433.581,218.517 435.95,215.086 " fill="none" stroke-width="0.5" stroke="rgb(0,0,0)" />
	<polygon points="107.79,165.939 106.372,166.899 105.186,167.546 104.235,167.949 105.323,168.689 106.241,169.404 109.24,172.07 110.156,173.014 111.823,175.006 112.938,173.441 114.248,172.007 112.02,169.97 110.775,168.565 108.552,165.454 108.495,165.355 " fill="none" stroke-width="0.5" stroke="rgb(0,0,0)" />
	<polygon points="423.468,146.173 420.726,148.625 419.884,149.231 425.497,150.89 427.15,151.564 430.489,153.333 429.77,150.825 429.665,148.339 429.523,148.29 427.844,147.552 426.256,146.651 424.896,145.683 424.322,145.152 " fill="none" stroke-width="0.5" stroke="rgb(0,0,0)" />
	<polygon points="356.886,143.642 358.259,143.642 357.294,142.798 356.996,142.487 " fill="none" stroke-width="0.5" stroke="rgb(0,0,0)" />
	<polygon points="312.787,127.535 312.181,128.116 311.743,128.696 311.493,129.173 311.146,130.267 310.939,130.61 311.132,130.664 311.883,130.784 312.837,130.832 313.002,130.828 313.402,130.796 313.842,130.748 313.624,130.242 313.495,129.869 313.173,128.672 313.097,128.286 312.982,127.4 " fill="none" stroke-width="0.5" stroke="rgb(0,0,0)" />
	<polygon points="185.726,115.108 185.39,115.753 184.273,117.413 183.822,117.944 182.115,119.494 181.542,119.893 179.438,120.976 178.733,121.228 176.797,121.668 177.344,123.089 178.824,122.06 179.919,121.409 183.039,119.842 184.438,119.282 187.66,118.297 189.355,117.954 189.733,117.915 186.975,114.656 186.682,114.292 186.279,113.762 " fill="none" stroke-width="0.5" stroke="rgb(0,0,0)" />
	<polygon points="90.7581,118.399 89.4698,119.235 87.1317,120.482 84.6497,121.366 82.5896,121.772 82.6514,122.858 82.6536,122.983 83.702,122.538 85.011,122.128 86.7774,121.766 88.1804,121.623 89.9939,121.623 91.399,121.766 93.0733,122.109 92.7108,119.399 92.687,119.205 92.45,117.081 " fill="none" stroke-width="0.5" stroke="rgb(0,0,0)" />
	<polygon points="415.294,65.4118 416.883,66.6884 418.341,67.5737 419.625,68.0568 420.147,68.1227 419.75,67.7125 416.577,65.8353 415.087,65.218 " fill="none" stroke-width="0.5" stroke="rgb(0,0,0)" />
	<polygon points="102.696,65.1521 102.473,65.3367 100.692,66.7646 99.8334,67.3734 99.0734,67.8478 99.1183,68.0587 99.6462,67.747 101.704,67.0335 104.025,66.8082 103.999,66.4994 103.975,66.1249 103.892,64.1277 " fill="none" stroke-width="0.5" stroke="rgb(0,0,0)" />
	<polygon points="398.683,38.4997 399.288,39.9525 400.099,39.6103 403.071,38.5838 403.194,38.5462 401.815,38.0236 397.944,36.9224 397.798,36.886 " fill="none" stroke-width="0.5" stroke="rgb(0,0,0)" />
</svg>
