<?xml version="1.0" standalone="no" ?>
<!DOCTYPE svg PUBLIC "-//W3C//DTD SVG 1.1//EN" "http://www.w3.org/Graphics/SVG/1.1/DTD/svg11.dtd">
<svg width="500px" height="500px" xmlns="http://www.w3.org/2000/svg" version="1.1" >
	<polygon points="480.823,29.0234 480.446,29.4954 479.994,30.2327 479.659,30.9525 479.451,31.5721 479.365,31.9675 479.363,32.0031 479.491,33.6932 479.888,35.6176 480.562,37.9976 480.823,38.8663 480.823,75.2673 478.995,79.5933 477.971,81.2863 472.656,87.7582 471.366,88.971 464.333,94.0553 463.096,94.7671 459.019,96.5821 459.497,96.7801 460.07,97.097 460.761,96.3016 465.964,95.2915 468.45,95.802 469.661,96.1692 471.757,97.0212 473.009,97.6877 474.732,98.8467 475.867,99.8031 477.236,101.235 478.117,102.372 479.15,104.042 479.728,105.21 480.444,107.083 480.759,108.168 480.823,108.483 480.823,118.324 480.617,119.653 480.106,121.392 478.902,124.108 479.375,124.371 480.823,125.562 480.823,187.859 480.398,188.735 478.072,191.427 476.493,192.501 473.007,193.685 470.965,193.497 470.196,193.308 472.976,195.617 473.692,196.305 477.694,200.747 478.457,201.771 480.823,205.647 480.823,242.905 478.002,247.708 477.66,248.234 473.476,254.069 473.391,254.185 473.334,254.261 474.72,254.189 476.188,254.342 477.788,254.705 479.047,255.153 480.651,255.974 480.823,256.093 480.823,281.286 480.265,291.237 478.694,293.677 478.258,294.28 475.681,297.469 475.123,298.08 472.165,300.954 471.094,301.54 471.938,302.644 472.57,303.638 474.486,307.306 474.892,308.247 476.336,312.427 476.582,313.334 476.869,314.78 473.11,329.62 467.07,347.047 459.27,364.67 456.654,369.463 454.179,370.845 450.5,370.731 447.627,368.886 447.948,369.937 448.221,371.316 448.925,378.879 448.867,380.613 448.263,384.38 438.331,399.399 425.161,415.952 410.17,431.593 402.754,437.964 401.666,437.781 399.864,437.215 398.371,436.51 397.167,435.783 395.752,434.717 395.037,434.082 395.037,434.087 395.285,437.364 395.201,439.077 394.092,445.405 393.345,446.047 374.668,459.037 354.126,470.285 331.702,479.516 325.744,481.215 322.686,480.346 321.403,479.838 318.739,478.461 317.558,477.688 315.359,475.902 314.365,474.91 312.639,472.797 311.88,471.65 310.636,469.291 310.128,468.046 309.375,465.523 309.119,464.217 308.866,461.612 308.853,460.77 308.04,462.651 307.414,463.791 304.647,467.864 303.159,469.446 302.257,470.143 303.073,470.115 303.863,470.133 304.734,470.203 306.093,470.45 306.762,470.643 308.357,471.329 308.851,471.62 310.362,472.826 310.707,473.191 311.771,474.667 311.993,475.081 312.545,476.439 312.671,476.878 312.883,477.905 312.94,478.344 312.992,479.006 313.005,479.421 312.77,481.436 312.372,482.908 311.124,485.385 307.382,486.452 281.151,490.817 268.752,491.485 268.201,491.168 267.271,490.528 265.445,489.037 264.618,488.238 263.99,487.52 262.242,488.411 261.854,488.594 257.689,490.399 257.287,490.559 252.862,492.156 252.431,492.295 252.405,492.303 225.548,490.902 199.887,486.773 184.156,482.438 179.698,479.271 175.701,476.463 172.549,474.69 170.5,474.1 167.415,473.794 163.263,473.564 162.843,473.528 158.091,472.972 157.628,472.886 153.907,471.407 136.143,462.017 130.412,456.461 128.548,453.287 128.574,450.429 127.45,450.53 126.088,450.518 117.006,449.533 115.039,448.212 98.2672,434.295 83.2685,419.161 71.9576,405.391 71.4098,401.007 71.3784,399.602 71.629,396.464 67.9925,396.05 65.6254,394.46 63.8657,392.65 62.1339,391.446 58.5824,386.23 48.8916,368.927 40.9666,351.394 35.0116,334.464 35.3102,331.643 35.5821,330.323 38.5505,320.763 38.9434,319.774 42.4484,312.617 41.7963,312.793 37.9236,312.714 35.9545,312.095 33.1469,310.392 31.3284,308.574 30.1678,307.032 28.5344,304.075 28.3722,303.713 27.7694,299.888 26.8905,283.906 26.8905,241.656 28.0711,237.617 28.3673,236.799 30.0289,232.981 30.8297,231.602 32.6681,229.143 32.8272,229.017 30.7383,228.18 29.0519,227.208 27.135,225.707 26.8905,225.458 26.8905,171.277 27.4519,168.079 27.5341,167.681 28.5102,163.563 28.7293,162.825 30.3014,158.442 30.7437,157.459 33.1702,153.026 33.9113,151.935 37.4507,147.667 37.4563,147.661 36.9014,147.555 34.3659,146.815 33.1215,146.316 30.8353,145.129 29.6944,144.386 27.7087,142.792 26.8905,141.988 26.8905,113.056 28.3274,111.622 29.1333,110.932 31.0527,109.531 31.9308,108.985 33.2573,108.293 32.2179,107.998 31.6536,107.786 30.4471,107.194 29.9622,106.894 28.7432,105.935 28.3481,105.545 27.3093,104.234 27.0144,103.752 26.8905,103.481 26.8905,94.3138 27.3754,92.8245 28.1818,91.1536 31.1646,86.645 30.3706,86.6768 29.7718,86.5832 27.5892,85.8535 27.096,85.5903 26.8905,85.4359 26.8905,61.9456 26.9584,61.8603 27.6618,61.1217 27.8375,60.9654 26.8905,60.4396 26.8905,43.2661 27.2473,42.9169 27.9969,42.2812 31.8876,39.432 32.223,39.2013 36.6831,36.3232 36.7744,36.2653 39.1759,34.7684 39.1674,34.7662 34.868,33.677 34.4891,33.5694 30.7385,32.3878 29.6983,31.9643 27.0455,30.6228 26.8905,30.483 26.8905,19.5757 38.3822,19.4875 49.8739,19.3993 61.3656,19.3111 72.8572,19.223 79.141,19.1747 80.5724,20.6358 80.8553,19.5848 81.072,19.1599 84.3489,19.1348 95.8406,19.0466 107.332,18.9584 114.499,18.9034 115.675,20.2127 115.839,20.4025 117.064,21.871 117.731,22.4936 118.006,22.6353 118.805,22.7502 119.556,22.6427 119.9,22.4711 120.656,21.8069 121.965,20.3622 122.143,20.1733 123.451,18.8347 130.316,18.7821 141.807,18.6939 153.299,18.6057 155.495,18.5889 155.613,18.7813 156.622,22.3215 156.193,24.3621 157.041,23.3548 159.955,21.2527 161.171,20.5519 165.58,18.5766 165.753,18.5102 176.282,18.4294 187.774,18.3412 210.757,18.1648 210.739,27.4317 209.299,29.0119 208.055,29.8456 208.167,29.8599 209.339,30.0825 210.733,30.5087 210.732,31.0636 210.706,43.9624 210.682,56.1688 209.093,56.7737 208.076,56.9548 206.151,56.9912 209.729,61.0926 210.287,61.8268 210.67,62.4067 210.656,69.76 210.63,82.6588 210.628,83.9269 209.541,84.508 208.671,84.8718 207.544,85.2331 206.541,85.4618 205.491,85.6174 204.363,85.6969 203.179,85.6784 199.198,85.2731 198.364,85.1361 198.303,85.1222 198.538,85.2917 198.732,85.4373 203.535,89.1661 203.718,89.3132 208.014,92.8885 208.247,93.0918 210.605,95.241 210.579,108.456 210.554,121.355 210.551,122.997 210.108,123.38 208.943,124.145 207.889,124.586 207.898,124.593 209.122,125.681 210.542,127.286 210.503,147.153 210.478,160.052 210.452,172.95 210.452,173.028 209.997,174.344 209.535,175.392 208.147,177.94 207.49,178.932 205.708,181.174 204.838,182.084 202.697,183.95 201.604,184.729 199.343,186.029 201.292,186.884 202.421,187.511 204.819,189.155 205.885,190.056 207.858,192.102 208.77,193.279 210.255,195.696 210.407,196.018 210.401,198.748 210.376,211.647 210.37,214.592 210.256,214.866 210.087,215.238 209.403,216.639 209.235,216.961 208.473,218.332 208.306,218.616 207.481,219.948 204.917,222.317 205.211,222.539 205.732,222.975 208.468,225.507 208.967,226.019 210.374,227.622 210.438,235.84 210.602,246.657 210.899,256.963 211.108,261.181 209.887,262.771 209.733,262.964 207.525,265.636 205.925,267.764 205.238,269.05 205.158,269.456 205.237,269.863 205.689,270.596 207.068,271.99 209.297,273.868 209.416,273.971 211.886,276.149 212.176,276.441 213.138,284.482 214.519,292.41 216.228,299.336 216.191,299.427 216.257,299.452 216.308,299.661 218.563,306.2 221.336,311.994 224.685,317.011 228.665,321.215 233.33,324.575 238.737,327.056 244.939,328.626 248.022,328.898 248.337,329.315 249.046,330.476 250.555,333.6 250.986,334.74 251.9,338.001 252.095,338.947 252.101,338.995 255.388,332.829 256.108,331.742 258.485,328.797 259.171,328.749 265.518,327.271 271.013,324.853 275.719,321.532 279.698,317.343 283.01,312.324 284.145,309.891 284.644,309.733 284.442,309.253 285.72,306.511 287.888,299.942 288.445,297.537 288.906,296.803 289.371,295.805 289.739,294.627 289.996,293.153 290.101,291.204 290.076,290.3 290.036,289.769 290.848,284.68 291.763,276.06 292.114,270.858 292.928,269.844 293.792,268.983 295.077,267.975 296.089,267.36 297.553,266.689 298.697,266.32 299.009,266.255 298.677,266.015 294.59,262.507 293.241,260.942 292.658,260.014 292.778,257.028 293,246.688 293.115,235.848 293.165,227.812 293.671,226.722 293.799,226.461 295.433,223.299 295.851,222.848 295.046,222.181 294.132,221.267 293.176,220.112 293.159,211.647 293.135,199.653 294.13,198.45 295.042,197.537 296.52,196.31 297.6,195.575 299.275,194.653 299.174,194.553 298.318,193.517 297.58,192.425 296.932,191.238 296.405,189.995 295.995,188.685 295.716,187.325 295.573,185.921 295.573,184.522 295.716,183.12 295.996,181.759 296.406,180.45 296.933,179.207 297.581,178.021 298.32,176.929 299.176,175.894 300.099,174.971 300.27,174.83 299.731,174.801 298.245,174.169 296.252,172.876 294.839,171.565 293.84,170.405 293.074,169.286 293.056,160.052 293.004,134.254 292.997,130.535 293.481,129.779 295.468,127.999 295.288,127.372 295.212,127.083 295.032,126.338 294.965,126.028 294.819,125.266 294.763,124.931 294.653,124.158 294.611,123.794 294.542,123.012 294.519,122.616 294.495,121.831 294.517,121.037 294.767,118.094 294.962,116.952 295.73,113.977 296.135,112.836 297.449,109.959 298.105,108.822 299.991,106.174 300.938,105.101 303.423,102.813 304.645,101.915 307.756,100.118 309.151,99.5067 309.95,99.2574 309.827,98.5984 309.763,98.192 309.668,97.4386 307.33,99.4698 307.113,99.6505 304.836,101.471 304.281,101.871 302.294,103.159 300.639,103.942 299.109,104.43 296.961,104.757 296.725,104.755 296.342,104.741 296.151,104.729 295.121,104.586 294.971,104.554 293.07,103.835 292.956,103.772 292.943,103.76 292.909,86.8723 294.461,84.0399 295.767,81.6507 295.582,81.6249 293.679,81.2966 292.897,81.0728 292.875,69.76 292.861,63.1053 294.985,61.6489 295.374,61.3723 294.283,60.8807 293.855,60.6696 292.855,60.1326 292.821,42.8971 293.499,42.5135 293.698,42.4048 295.594,41.4133 295.667,41.3732 295.01,40.3619 293.067,37.515 293.042,37.4777 292.809,37.1319 292.797,31.0636 292.771,18.1648 302.122,18.1047 305.163,19.6712 305.303,19.7457 308.747,21.6211 309.06,21.7868 309.092,21.3779 309.203,20.443 309.307,19.8148 309.48,19.0079 309.679,18.275 309.752,18.0557 316.278,18.0137 327.62,17.9408 327.819,18.1414 328.533,17.9349 339.784,17.8626 351.538,17.787 363.291,17.7115 374.956,17.6365 378.674,19.3428 379.88,20.0518 386.089,24.6101 387.002,25.4455 387.191,23.2857 388.424,21.1989 389.05,20.4708 391.338,18.7293 393.098,17.8987 393.936,17.5685 394.108,17.5134 410.304,17.4092 422.057,17.3337 433.81,17.2581 439.478,17.2217 441.021,18.0554 442.398,19.0338 444.423,20.8855 445.702,22.4977 446.451,21.0396 447.237,19.8364 448.679,18.0651 449.594,17.1566 457.317,17.107 469.07,17.0314 480.823,16.9559 " fill="none" stroke-width="0.5" stroke="rgb(0,0,0)" />
	<polygon points="191.587,444.064 191.921,445.048 192.581,447.61 192.764,447.664 194.215,447.984 195.796,448.238 197.327,448.397 198.59,448.446 200.28,448.354 201.878,448.072 203.301,447.606 204.476,446.984 205.413,446.212 206.188,445.208 206.85,443.757 207.232,441.993 202.834,442.322 201.779,442.32 195.561,441.831 194.394,441.637 190.083,440.536 " fill="none" stroke-width="0.5" stroke="rgb(0,0,0)" />
	<polygon points="161.097,432.424 158.098,437.082 157.119,438.281 152.925,442.38 151.607,443.389 149.213,444.801 152.192,444.163 155.193,442.939 157.431,441.43 159.068,439.668 160.253,437.564 161.025,434.959 161.283,432.062 " fill="none" stroke-width="0.5" stroke="rgb(0,0,0)" />
	<polygon points="325.83,416.585 316.326,419.718 314.867,420.029 313.829,420.135 314.593,421.534 315.087,422.831 315.367,423.756 315.698,425.208 315.753,425.475 316.004,426.825 316.099,427.224 316.169,427.274 316.204,427.299 317.111,427.953 317.545,428.292 318.411,429.027 319.183,429.795 319.916,430.649 320.69,431.812 320.835,431.646 321.013,431.449 321.733,430.686 321.981,430.436 322.696,429.751 323.045,429.439 323.753,428.848 324.248,428.471 324.948,427.986 325.658,427.556 326.348,427.192 327.36,426.757 328.038,426.528 328.235,426.484 327.412,424.919 327.062,423.677 326.804,421.809 326.804,416.141 " fill="none" stroke-width="0.5" stroke="rgb(0,0,0)" />
	<polygon points="378.343,417.615 378.341,417.777 378.334,418.094 379.587,417.757 381.157,417.94 382.61,418.273 384.243,418.837 385.535,419.44 387.147,420.406 388.274,421.249 389.073,421.985 389.047,421.198 389.077,420.724 389.217,419.703 389.247,419.565 388.914,419.529 387.669,419.279 384.108,418.214 383.134,417.841 379.795,416.261 379.003,415.82 378.343,415.394 " fill="none" stroke-width="0.5" stroke="rgb(0,0,0)" />
	<polygon points="165.511,413.58 165.516,414.585 165.196,419.269 165.058,420.246 164.924,420.873 167.466,420.001 170.903,420.683 171.039,420.75 170.983,419.111 171.016,418.743 171.281,417.363 171.377,417.044 172.022,415.558 172.179,415.288 173.213,413.931 173.43,413.71 174.198,413.091 173.075,412.626 172.51,412.362 169.874,410.981 169.334,410.666 166.907,409.099 166.365,408.711 165.052,407.67 " fill="none" stroke-width="0.5" stroke="rgb(0,0,0)" />
	<polygon points="258.822,400.806 258.726,401.817 258.472,403.128 258.196,404.059 257.683,405.319 257.244,406.152 256.765,406.874 257.649,407.218 258.229,407.475 261.088,408.902 261.536,409.147 264.319,410.804 264.693,411.043 267.311,412.839 267.653,413.09 270.017,414.935 270.366,415.226 272.388,417.031 272.794,417.424 272.906,417.542 274.137,417.33 274.424,417.287 275.758,417.114 276.03,417.084 277.413,416.961 277.669,416.943 279.102,416.869 279.343,416.861 280.783,416.836 279.376,416.376 278.007,415.756 269.401,410.663 268.235,409.795 261.134,403.239 260.227,402.218 258.828,400.288 " fill="none" stroke-width="0.5" stroke="rgb(0,0,0)" />
	<polygon points="244.438,411.862 243.659,416.839 243.617,416.973 244.203,415.785 245.342,411.779 245.128,411.748 244.457,411.564 " fill="none" stroke-width="0.5" stroke="rgb(0,0,0)" />
	<polygon points="364.584,399.914 365.091,400.023 365.882,400.242 366.931,400.601 367.025,399.367 " fill="none" stroke-width="0.5" stroke="rgb(0,0,0)" />
	<polygon points="349.464,395.279 348.828,396.342 346.771,399.165 347.602,399.021 348.399,398.93 352.906,398.678 353.54,398.672 356.422,398.776 355.569,398.194 354.264,397.037 353.285,395.918 352.573,394.943 351.716,393.526 351.295,392.711 351.015,392.067 " fill="none" stroke-width="0.5" stroke="rgb(0,0,0)" />
	<polygon points="308.816,393.711 308.301,393.863 305.088,394.672 304.456,394.8 300.748,395.373 300.048,395.444 296.894,395.606 297.632,395.805 304.344,396.387 307.597,396.252 310.532,395.865 311.19,395.709 310.273,394.432 310.018,393.6 310,393.313 " fill="none" stroke-width="0.5" stroke="rgb(0,0,0)" />
	<polygon points="201.161,388.659 202.998,392.044 203.425,392.994 204.566,396.159 204.585,396.235 206.53,393.359 208.121,391.694 212.076,388.744 213.027,388.322 207.124,388.846 205.757,388.831 200.931,388.299 " fill="none" stroke-width="0.5" stroke="rgb(0,0,0)" />
	<polygon points="223.029,386.324 223.459,386.357 224.258,386.465 224.853,386.582 224.794,385.86 224.794,385.804 " fill="none" stroke-width="0.5" stroke="rgb(0,0,0)" />
	<polygon points="246.387,368.876 242.321,374.342 241.775,374.935 242.262,375.183 243.146,375.775 244.279,376.723 245.022,377.495 245.334,377.885 246.17,377.909 247.416,378.034 248.046,378.165 247.148,374.852 246.935,373.663 246.49,368.705 " fill="none" stroke-width="0.5" stroke="rgb(0,0,0)" />
	<polygon points="83.7887,366.643 83.496,366.688 82.6544,366.799 81.8248,366.858 79.5114,366.882 78.825,366.821 79.8937,369.524 80.7982,375.497 81.4093,374.865 83.9178,372.63 84.813,371.955 87.2922,370.383 87.6406,370.208 87.4104,370.048 85.9248,368.782 85.0189,367.85 84.0174,366.602 " fill="none" stroke-width="0.5" stroke="rgb(0,0,0)" />
	<polygon points="172.244,373.52 172.433,374.003 172.548,374.013 172.837,374.021 173.131,374.017 173.128,374.014 171.962,372.562 " fill="none" stroke-width="0.5" stroke="rgb(0,0,0)" />
	<polygon points="356.666,370.44 356.456,372.479 356.656,372.384 357.37,372.094 358.938,371.557 359.477,371.396 361.154,370.971 361.42,370.883 360.152,370.228 358.989,369.47 357.398,368.189 356.406,367.208 355.726,366.385 " fill="none" stroke-width="0.5" stroke="rgb(0,0,0)" />
	<polygon points="324.256,367.352 323.547,368.476 322.682,369.593 323.475,369.574 327.014,369.344 329.171,369.112 326.675,367.832 325.465,367.041 324.719,366.433 " fill="none" stroke-width="0.5" stroke="rgb(0,0,0)" />
	<polygon points="354.043,364.599 355.012,365.489 354.354,364.504 354.28,364.366 " fill="none" stroke-width="0.5" stroke="rgb(0,0,0)" />
	<polygon points="117.737,354.632 116.978,354.987 116.995,356.461 116.877,357.819 116.466,360.009 116.069,361.35 115.436,362.895 116.378,362.723 120.629,362.338 122.008,362.352 123.176,362.481 122.775,362.197 121.678,361.254 120.489,359.93 119.822,358.96 118.947,357.188 118.616,356.172 118.3,354.603 118.277,354.32 " fill="none" stroke-width="0.5" stroke="rgb(0,0,0)" />
	<polygon points="295.492,357.547 294.011,358.215 291.629,358.967 292.236,359.296 294.104,360.682 294.255,360.797 296.567,362.613 296.857,362.811 296.763,362.315 296.619,360.778 296.597,359.807 296.649,358.701 296.696,358.159 296.835,357.068 296.891,356.705 " fill="none" stroke-width="0.5" stroke="rgb(0,0,0)" />
	<polygon points="441.453,355.486 442.332,356.707 445.103,361.61 444.682,359.177 442.746,356.12 440.33,354.239 " fill="none" stroke-width="0.5" stroke="rgb(0,0,0)" />
	<polygon points="394.883,340.615 394.676,340.789 393.528,341.711 392.921,342.147 391.9,342.8 390.145,343.602 389.31,343.849 386.585,344.073 386.753,344.422 387.883,347.622 388.232,349.139 388.427,350.851 388.843,350.441 393.455,346.577 395.11,345.549 398.327,344.135 398.185,343.982 396.908,342.444 396.752,342.249 395.405,340.501 395.247,340.299 " fill="none" stroke-width="0.5" stroke="rgb(0,0,0)" />
	<polygon points="58.1955,342.199 61.471,347.467 62.2444,348.232 62.2397,347.776 62.3948,346.248 62.8862,343.973 63.342,342.59 64.2704,340.534 64.8832,339.467 62.6806,338.995 61.7498,338.726 59.2811,337.819 58.1121,337.26 57.5522,336.925 " fill="none" stroke-width="0.5" stroke="rgb(0,0,0)" />
	<polygon points="164.674,318.519 164.795,320.552 164.543,323.392 164.337,324.558 163.587,327.373 163.185,328.489 161.947,331.169 161.326,332.247 159.612,334.684 158.736,335.701 156.555,337.786 155.406,338.674 152.769,340.297 151.981,340.669 152.032,340.69 152.951,341.157 155.411,342.648 156.236,343.235 158.585,345.18 159.252,345.812 160.948,347.648 160.687,345.356 160.646,344.35 160.705,342.566 160.736,342.095 160.915,340.331 160.992,339.79 161.298,338.112 161.456,337.439 161.895,335.916 162.219,335.026 162.798,333.724 163.489,332.514 164.213,331.5 165.684,329.993 166.56,329.336 169.179,328.124 169.88,327.965 167.344,324.125 166.667,322.815 164.368,316.881 164.143,315.996 " fill="none" stroke-width="0.5" stroke="rgb(0,0,0)" />
	<polygon points="316.401,342.861 315.893,343.056 316.125,343.185 316.831,343.663 317.095,342.526 " fill="none" stroke-width="0.5" stroke="rgb(0,0,0)" />
	<polygon points="416.608,332.453 415.518,332.66 413.731,332.854 413.489,332.876 412.883,332.92 413.108,334.172 413.127,334.279 413.351,335.648 413.388,335.908 413.547,337.177 413.59,337.665 413.65,338.793 413.657,339.359 413.647,339.692 413.614,340.195 413.58,340.53 413.471,341.233 413.432,341.42 418.088,341.817 419.249,342.017 420.952,342.463 419.564,340.886 418.02,337.879 416.78,332.506 416.773,332.407 " fill="none" stroke-width="0.5" stroke="rgb(0,0,0)" />
	<polygon points="127.296,336.153 127.446,337.65 127.426,339.888 127.387,340.25 128.229,339.841 129.099,339.489 130.582,339.004 129.86,338.481 127.953,336.78 127.273,336.043 " fill="none" stroke-width="0.5" stroke="rgb(0,0,0)" />
	<polygon points="385.456,310.767 384.482,312.468 383.617,314.333 383,316.023 382.801,317.054 382.601,319.234 382.427,322.183 382.239,325.368 382.225,325.561 382.067,327.374 382.153,327.166 382.178,327.106 383.329,324.403 384.406,321.666 385.276,318.989 385.836,316.474 386.046,313.95 386.022,312.677 385.916,310.969 385.826,310.244 " fill="none" stroke-width="0.5" stroke="rgb(0,0,0)" />
	<polygon points="321.76,326.332 321.884,326.515 321.966,326.674 322.011,326.161 " fill="none" stroke-width="0.5" stroke="rgb(0,0,0)" />
	<polygon points="121.891,324.849 121.387,325.085 122.496,326.202 122.453,325.98 122.315,324.593 " fill="none" stroke-width="0.5" stroke="rgb(0,0,0)" />
	<polygon points="74.6986,311.932 73.7758,315.47 73.4713,318.289 73.5008,319.335 73.6259,320.521 73.8543,321.598 74.2198,322.66 74.7913,323.807 74.8786,323.937 75.0884,323.508 76.1927,321.711 76.9976,320.647 78.4153,319.108 79.4098,318.219 81.1109,316.971 82.2432,316.297 84.1665,315.388 82.9693,314.906 81.3752,314.078 80.2499,313.347 78.8209,312.206 77.8351,311.243 76.6265,309.799 75.8694,308.68 " fill="none" stroke-width="0.5" stroke="rgb(0,0,0)" />
	<polygon points="343.64,312.67 342.556,314.106 341.767,314.908 341.332,315.252 341.722,315.472 346.581,318.784 347.492,319.526 351.026,322.945 351.426,322.033 351.663,321.545 352.368,320.23 352.25,320.199 350.401,319.674 349.429,319.317 348.122,318.721 345.318,316.385 344.822,315.672 343.718,312.533 " fill="none" stroke-width="0.5" stroke="rgb(0,0,0)" />
	<polygon points="97.0117,314.943 97.7748,315.214 97.6366,314.67 " fill="none" stroke-width="0.5" stroke="rgb(0,0,0)" />
	<polygon points="164.496,296.969 163.529,297.389 162.258,297.829 160.907,298.149 159.724,298.305 158.246,298.341 157.89,298.311 156.726,298.113 156.319,298.007 156.308,298.003 158.109,300.769 158.496,301.444 162.553,309.546 163.135,311.213 163.908,314.883 163.143,308.934 163.096,307.685 163.265,304.527 163.343,303.795 163.836,300.748 163.989,300.038 164.784,297.114 164.902,296.755 " fill="none" stroke-width="0.5" stroke="rgb(0,0,0)" />
	<polygon points="405.156,307.554 406.736,309.457 406.969,309.689 405.685,307.987 405.014,307.34 " fill="none" stroke-width="0.5" stroke="rgb(0,0,0)" />
	<polygon points="131.456,300.215 131.601,301.136 132.126,307.107 132.121,308.374 132.12,308.386 133.947,308.18 134.127,308.197 135.886,308.603 136.036,308.659 136.421,308.883 135.349,306.659 131.427,300.087 " fill="none" stroke-width="0.5" stroke="rgb(0,0,0)" />
	<polygon points="345.42,307.189 345.944,306.552 345.877,306.556 345.472,306.551 " fill="none" stroke-width="0.5" stroke="rgb(0,0,0)" />
	<polygon points="312.249,304.641 309.65,306.387 311.054,306.569 311.686,306.681 313.176,307.017 313.071,306.785 312.53,304.935 312.462,304.469 " fill="none" stroke-width="0.5" stroke="rgb(0,0,0)" />
	<polygon points="433.881,294.737 433.79,294.862 432.888,296.066 432.945,296.098 434.853,297.128 435.014,297.218 436.12,297.853 435.055,294.329 434.768,293.496 " fill="none" stroke-width="0.5" stroke="rgb(0,0,0)" />
	<polygon points="458.971,288.621 458.17,288.991 457.184,289.808 455.953,291.295 455.081,292.644 456.401,292.683 459.589,293.197 460.626,293.529 460.558,292.137 460.367,290.833 460.06,289.649 459.699,288.758 459.561,288.538 " fill="none" stroke-width="0.5" stroke="rgb(0,0,0)" />
	<polygon points="87.9386,283.698 87.8799,283.814 85.5252,288.348 85.044,289.276 86.5504,290.068 87.0719,290.482 87.7413,291.09 88.3058,291.675 88.391,291.763 88.5735,291.319 89.0198,289.149 89.3342,285.85 89.4876,281.575 89.4949,280.559 " fill="none" stroke-width="0.5" stroke="rgb(0,0,0)" />
	<polygon points="56.5383,279.058 56.7999,279.471 57.2668,280.191 57.3122,280.263 57.7573,280.968 57.8988,281.203 58.2903,281.882 58.5195,282.314 58.8452,282.985 59.1226,283.64 59.3704,284.321 59.6221,285.184 59.6732,285.414 60.2793,282.775 60.2714,282.755 60.2339,282.686 60.1437,282.559 59.9603,282.351 59.4244,281.855 59.4083,281.84 57.4863,280.05 57.0776,279.635 56.5216,279.022 " fill="none" stroke-width="0.5" stroke="rgb(0,0,0)" />
	<polygon points="172.036,279.929 172.246,280.316 172.561,280.978 172.727,281.379 173.014,282.227 173.123,282.632 173.179,282.944 174.21,281.847 174.255,281.82 174.068,281.674 171.963,279.809 " fill="none" stroke-width="0.5" stroke="rgb(0,0,0)" />
	<polygon points="428.026,278.819 427.56,279.69 427.311,279.938 427.808,279.83 429.341,279.73 428.291,277.514 " fill="none" stroke-width="0.5" stroke="rgb(0,0,0)" />
	<polygon points="339.559,274.858 339.408,275.452 339.745,275.598 340.157,275.707 340.129,275.331 340.114,275.04 340.099,274.551 340.108,274.267 " fill="none" stroke-width="0.5" stroke="rgb(0,0,0)" />
	<polygon points="420.919,267.468 422.156,267.801 422.278,267.844 422.244,267.794 421.27,266.665 " fill="none" stroke-width="0.5" stroke="rgb(0,0,0)" />
	<polygon points="157.292,226.147 156.288,227.895 155.746,229.006 157.115,230.711 157.672,233.731 157.612,235.158 157.592,235.466 157.433,237.288 157.419,237.433 157.194,239.505 157.186,239.572 156.929,241.748 156.927,241.763 156.671,243.88 156.455,245.753 156.317,247.157 156.281,247.852 156.294,248.293 157.693,249.13 159.332,251.991 159.798,253.616 159.928,254.152 160.293,255.962 160.352,256.295 160.644,258.224 160.669,258.409 160.914,260.387 160.921,260.451 161.141,262.381 161.355,264.124 161.465,264.843 162.331,265.135 164.29,267.582 163.788,265.392 163.883,261.948 165.024,257.974 166.341,255.48 169.35,251.844 170.319,250.885 170.373,250.842 169.792,251.136 166.183,251.864 162.714,250.632 160.372,247.793 159.924,243.546 160.163,242.419 160.369,241.352 160.55,240.289 160.704,239.229 160.827,238.173 160.918,237.12 160.974,236.07 160.992,235.125 160.897,233.199 160.609,231.383 160.087,229.558 159.276,227.683 158.099,225.713 157.784,225.312 " fill="none" stroke-width="0.5" stroke="rgb(0,0,0)" />
	<polygon points="405.747,256.472 405.997,256.797 406.466,257.447 407.401,256.695 406.829,256.475 405.429,256.082 " fill="none" stroke-width="0.5" stroke="rgb(0,0,0)" />
	<polygon points="129.172,240.411 129.044,242.376 129.015,243.712 130.371,253.435 131.4,256.163 131.913,252.814 132.945,251.693 132.944,251.682 132.585,250.195 131.942,248.111 131.13,245.674 131.114,245.624 130.278,243.05 130.205,242.811 129.476,240.253 129.359,239.778 129.284,239.419 " fill="none" stroke-width="0.5" stroke="rgb(0,0,0)" />
	<polygon points="448.886,256.017 449.587,254.775 449.649,254.667 449.792,254.423 447.801,253.318 " fill="none" stroke-width="0.5" stroke="rgb(0,0,0)" />
	<polygon points="382.775,245.042 382.155,246.205 381.374,247.368 380.55,248.361 379.554,249.339 378.549,250.144 377.396,250.892 377.237,250.974 378.268,252.236 378.553,252.611 378.719,252.847 378.916,252.651 380.103,251.532 380.868,250.907 381.995,250.116 384.047,249.132 385.086,248.831 386.517,248.691 385.328,247.853 383.496,245.94 382.831,244.905 " fill="none" stroke-width="0.5" stroke="rgb(0,0,0)" />
	<polygon points="363.075,251.056 363.158,250.899 363.311,250.699 362.428,250.111 362.099,249.843 " fill="none" stroke-width="0.5" stroke="rgb(0,0,0)" />
	<polygon points="359.528,247.54 358.569,248.188 361.34,249.209 360.491,248.37 359.689,247.408 " fill="none" stroke-width="0.5" stroke="rgb(0,0,0)" />
	<polygon points="321.255,234.343 324.52,236.888 326.196,238.784 328.481,242.599 328.698,243.201 328.953,243.041 330.129,242.454 331.298,242.004 332.077,241.773 331.224,240.205 330.697,238.961 329.993,236.7 329.716,235.343 329.694,235.131 328.986,235.275 327.581,235.417 326.185,235.417 324.79,235.275 323.429,234.995 322.126,234.587 320.883,234.059 320.197,233.685 " fill="none" stroke-width="0.5" stroke="rgb(0,0,0)" />
	<polygon points="464.831,220.187 464.793,220.46 464.317,223.401 464.294,223.533 463.748,226.534 463.745,226.55 463.209,229.459 462.763,232.1 462.476,234.301 462.436,235.002 463.605,232.862 464.712,230.138 465.429,227.372 465.671,224.774 465.132,219.946 464.928,219.387 " fill="none" stroke-width="0.5" stroke="rgb(0,0,0)" />
	<polygon points="189.44,234.995 189.532,234.866 189.55,234.79 " fill="none" stroke-width="0.5" stroke="rgb(0,0,0)" />
	<polygon points="312.382,225.598 310.524,226.186 309.154,226.471 308.827,226.505 309.173,227.577 310.235,228.772 312.474,230.104 315.962,231.618 316.216,231.735 319.795,233.465 319.7,233.414 318.608,232.674 317.576,231.82 316.652,230.895 315.798,229.861 315.06,228.768 314.414,227.582 313.887,226.338 313.506,225.117 " fill="none" stroke-width="0.5" stroke="rgb(0,0,0)" />
	<polygon points="85.6752,213.563 85.7919,213.655 86.9317,214.787 87.3945,215.368 88.1229,216.492 88.4792,217.181 88.9082,218.203 89.16,218.971 89.3919,219.885 89.5415,220.706 89.6414,221.541 89.6908,222.389 89.6742,222.932 90.3422,222.502 91.079,222.138 92.995,221.518 93.724,221.396 95.8281,221.368 96.4719,221.458 98.324,221.991 98.9357,222.264 100.475,223.211 100.494,223.227 100.699,220.475 100.851,219.457 101.692,215.756 101.985,214.796 102.088,214.532 100.886,214.811 97.8887,215.141 96.3682,215.14 93.1789,214.784 91.6313,214.427 88.7671,213.408 87.3553,212.715 86.6653,212.273 " fill="none" stroke-width="0.5" stroke="rgb(0,0,0)" />
	<polygon points="442.529,210.999 438.219,212.409 437.685,212.561 432.564,213.791 431.939,213.911 425.917,214.781 425.254,214.845 424.832,214.865 426.059,215.462 427.448,216.356 431.141,219.421 432.215,220.537 433.84,222.661 434.607,220.877 435.268,219.682 437.791,216.028 438.447,215.217 441.431,212.048 442.042,211.474 442.679,210.945 " fill="none" stroke-width="0.5" stroke="rgb(0,0,0)" />
	<polygon points="131.228,219.715 132.417,220.757 132.76,221.821 132.799,221.638 133.456,219.025 133.462,219.008 " fill="none" stroke-width="0.5" stroke="rgb(0,0,0)" />
	<polygon points="64.4851,216.568 65.4407,217.198 65.9576,217.666 67.125,219.04 67.5248,219.659 68.155,220.892 68.1921,220.987 70.5933,216.901 70.4376,216.875 68.3659,216.332 67.1801,215.903 65.5212,215.124 " fill="none" stroke-width="0.5" stroke="rgb(0,0,0)" />
	<polygon points="188.266,213.071 189.203,214.474 190.412,216.875 190.884,218.15 191.95,217.308 194.635,216.959 194.404,216.12 193.889,215.141 193.23,214.381 192.255,213.669 190.768,212.983 188.661,212.4 187.552,212.242 " fill="none" stroke-width="0.5" stroke="rgb(0,0,0)" />
	<polygon points="381.643,200.263 381.115,201.506 380.433,202.753 379.694,203.843 378.793,204.932 378.569,205.156 378.684,205.233 379.9,206.235 380.833,207.167 381.204,207.617 381.423,206.625 383.952,203.95 385.531,203.508 382.457,201.001 381.668,200.183 " fill="none" stroke-width="0.5" stroke="rgb(0,0,0)" />
	<polygon points="56.4845,204.997 57.1889,204.837 57.0853,204.509 " fill="none" stroke-width="0.5" stroke="rgb(0,0,0)" />
	<polygon points="365.769,170.02 364.67,170.761 364.295,170.964 364.417,171.144 365.457,173.042 365.986,174.285 366.644,176.378 366.926,177.743 367.156,179.982 367.156,181.198 367.58,181.154 368.991,181.154 370.024,181.259 369.896,180.939 367.13,172.091 366.925,171.254 366.582,169.351 " fill="none" stroke-width="0.5" stroke="rgb(0,0,0)" />
	<polygon points="146.416,175.111 145.501,175.353 143.568,175.725 146.936,178.946 147.329,179.367 147.342,179.281 147.587,178.25 148.545,175.254 149.036,174.221 " fill="none" stroke-width="0.5" stroke="rgb(0,0,0)" />
	<polygon points="108.443,162.578 107.519,163.503 106.484,164.359 105.39,165.099 104.204,165.746 102.96,166.274 101.652,166.683 100.291,166.962 98.9436,167.1 100.193,167.743 100.911,168.17 104.171,170.385 104.879,170.936 107.878,173.602 108.584,174.33 111.172,177.423 111.846,178.383 112.121,178.856 112.44,178.101 113.483,176.183 114.452,174.823 115.838,173.306 117.257,172.12 117.491,171.973 116.296,171.101 113.403,168.457 112.443,167.374 110.221,164.263 109.554,163.107 109.004,161.898 " fill="none" stroke-width="0.5" stroke="rgb(0,0,0)" />
	<polygon points="309.985,170.514 309.433,171.373 310.119,171.373 311.526,171.516 312.882,171.793 313.166,171.882 313.336,171.333 313.524,170.887 312.39,170.656 311.917,170.542 310.202,170.065 " fill="none" stroke-width="0.5" stroke="rgb(0,0,0)" />
	<polygon points="162.303,166.753 163.794,167.045 163.36,165.903 " fill="none" stroke-width="0.5" stroke="rgb(0,0,0)" />
	<polygon points="423.377,143.12 422.101,144.645 419.36,147.097 418.172,147.952 414.556,150.008 413.731,150.396 417.16,150.704 418.497,150.959 424.917,152.856 426.19,153.376 431.876,156.387 432.89,157.044 434.107,157.993 433.586,156.698 431.74,150.26 431.709,146.859 431.371,146.77 430.348,146.413 428.669,145.675 427.445,144.981 426.085,144.013 424.795,142.821 424.084,141.972 " fill="none" stroke-width="0.5" stroke="rgb(0,0,0)" />
	<polygon points="355.285,138.054 355.262,139.054 354.636,145.655 354.559,146.035 355.635,145.816 356.976,145.681 358.358,145.681 359.698,145.816 361.05,146.091 362.298,146.478 363.543,147.003 364.673,147.615 365.773,148.357 366.757,149.169 366.941,149.353 367.228,149.003 367.286,148.948 368.033,148.44 365.035,146.684 363.98,145.924 358.644,141.255 357.81,140.385 355.241,137.19 " fill="none" stroke-width="0.5" stroke="rgb(0,0,0)" />
	<polygon points="129.616,135.689 129.301,135.921 128.964,136.219 125.9,137.718 126.055,138.045 126.568,139.579 127.046,141.872 127.099,142.158 127.492,144.543 127.568,144.861 127.876,144.353 128.425,143.097 128.717,142.21 129.028,141.13 129.294,140.058 129.513,139.006 129.683,137.986 129.803,137.011 129.874,136.096 129.889,135.515 " fill="none" stroke-width="0.5" stroke="rgb(0,0,0)" />
	<polygon points="102.805,139.624 102.698,140.146 102.959,140.228 104.203,140.755 105.389,141.401 106.481,142.141 106.992,142.563 107.337,141.231 107.371,141.127 104.744,140.479 102.821,139.465 " fill="none" stroke-width="0.5" stroke="rgb(0,0,0)" />
	<polygon points="315.047,124.32 313.693,124.685 312.509,125.237 311.487,125.941 310.644,126.75 310.006,127.595 309.593,128.381 309.192,129.648 307.947,131.562 308.818,132.027 309.765,132.411 310.694,132.67 311.669,132.826 312.816,132.884 313.112,132.875 313.593,132.838 314.173,132.774 314.826,132.69 315.51,132.597 315.566,132.59 316.221,132.507 316.404,132.487 316.993,132.428 317.226,132.411 316.941,132.079 316.699,131.749 316.145,130.855 315.96,130.5 315.562,129.573 315.433,129.199 315.184,128.277 315.108,127.891 314.993,126.996 314.968,126.603 314.991,125.454 315.068,124.711 315.147,124.311 " fill="none" stroke-width="0.5" stroke="rgb(0,0,0)" />
	<polygon points="92.2163,114.632 91.7616,115.019 89.4984,116.781 88.5052,117.426 86.1671,118.673 84.2536,119.355 81.8522,119.828 80.4292,119.89 80.6048,122.974 80.6142,123.52 80.5825,124.946 80.5694,125.245 80.4783,126.633 80.4749,126.673 80.7897,126.412 81.8831,125.671 83.0693,125.023 84.3145,124.494 85.6234,124.085 86.9852,123.805 88.3883,123.662 89.7864,123.662 91.1915,123.805 92.5515,124.084 93.8623,124.494 95.1064,125.021 95.575,125.277 95.5364,125.061 94.7427,119.127 94.7244,118.978 94.0762,113.17 94.0414,112.937 " fill="none" stroke-width="0.5" stroke="rgb(0,0,0)" />
	<polygon points="185.085,108.838 185.043,109.729 184.964,110.492 184.832,111.317 184.611,112.267 184.381,113.011 183.908,114.161 183.572,114.806 182.711,116.086 182.26,116.616 180.944,117.811 180.37,118.211 178.749,119.046 178.044,119.298 176.435,119.663 175.591,119.75 173.566,119.589 173.89,120.124 174.428,121.221 176.115,125.602 176.337,126.348 176.348,126.338 176.995,125.829 179.995,123.743 180.839,123.241 183.959,121.674 185.037,121.242 188.259,120.258 189.566,119.993 192.87,119.651 194.073,119.656 193.203,118.797 192.783,118.344 188.539,113.332 188.314,113.051 185.083,108.805 " fill="none" stroke-width="0.5" stroke="rgb(0,0,0)" />
	<polygon points="425.321,124.96 425.361,124.925 425.299,124.872 " fill="none" stroke-width="0.5" stroke="rgb(0,0,0)" />
	<polygon points="124.554,112.244 122.971,118.576 122.94,118.695 122.884,118.901 123.319,118.3 126.102,115.029 126.895,114.237 127.8,113.47 126.913,112.667 125.411,111.044 125.107,110.693 125.015,110.578 " fill="none" stroke-width="0.5" stroke="rgb(0,0,0)" />
	<polygon points="411.462,103.602 413.829,105.023 415.972,106.989 416.88,108.005 417.442,108.775 417.333,108.579 417.446,104.9 418.222,103.691 416.321,103.672 416.187,103.67 412.854,103.572 412.723,103.566 411.146,103.49 " fill="none" stroke-width="0.5" stroke="rgb(0,0,0)" />
	<polygon points="40.3391,107.913 40.4214,107.941 40.4348,107.895 " fill="none" stroke-width="0.5" stroke="rgb(0,0,0)" />
	<polygon points="349.417,107.588 349.469,107.746 349.761,107.509 349.366,107.479 " fill="none" stroke-width="0.5" stroke="rgb(0,0,0)" />
	<polygon points="392.11,102.456 393.154,103.575 393.871,104.486 394.716,105.768 394.767,105.847 394.846,105.969 395.411,105.836 396.786,105.386 398.403,104.776 400.114,104.114 400.291,104.048 401.941,103.461 402.435,103.305 403.63,102.978 402.283,102.862 402.155,102.85 398.729,102.491 398.601,102.476 395.174,102.051 395.044,102.034 391.626,101.544 391.531,101.53 391.057,101.455 390.754,101.394 " fill="none" stroke-width="0.5" stroke="rgb(0,0,0)" />
	<polygon points="145.89,101.973 145.314,105.195 145.262,105.432 149.384,105.13 150.663,105.156 151.164,105.213 149.588,103.865 146.064,101.031 " fill="none" stroke-width="0.5" stroke="rgb(0,0,0)" />
	<polygon points="380.327,99.5441 380.546,99.4953 380.969,99.4148 381.528,99.3265 381.955,99.2726 382.502,99.2209 382.933,99.1938 383.465,99.177 384.725,99.2526 386.69,99.5527 386.964,99.6466 386.119,98.9349 385.954,98.7542 384.865,97.1665 384.757,96.9489 384.554,96.3811 " fill="none" stroke-width="0.5" stroke="rgb(0,0,0)" />
	<polygon points="65.5454,95.9531 64.6656,96.4385 64.9618,96.5252 68.3443,98.085 69.6563,98.9298 69.9254,96.8598 69.9267,96.8499 70.2091,94.702 70.3616,93.4183 " fill="none" stroke-width="0.5" stroke="rgb(0,0,0)" />
	<polygon points="126.418,63.8195 125.687,67.2852 125.593,67.6764 124.746,70.7835 124.245,72.0611 126.436,73.4802 126.483,73.1376 126.655,72.1993 126.919,71.1912 127.181,70.4332 127.94,68.8905 128.309,68.329 130.103,66.4789 130.429,66.2491 130.289,66.0706 130.104,65.8247 128.376,63.4208 126.964,61.55 " fill="none" stroke-width="0.5" stroke="rgb(0,0,0)" />
	<polygon points="104.938,60.6055 103.21,62.013 101.363,63.5948 101.191,63.7371 99.4096,65.165 98.7478,65.6344 97.1299,66.6444 96.6723,66.8436 96.7757,67.1059 96.9651,67.7652 97.1661,68.7102 97.2738,69.4767 97.3356,70.1664 97.3698,71.0363 97.3625,71.6141 97.9609,71.0754 100.318,69.6839 102.376,68.9704 106.049,68.7361 106.25,68.8269 106.042,66.3287 106.024,66.0399 105.881,62.602 105.643,60.1206 " fill="none" stroke-width="0.5" stroke="rgb(0,0,0)" />
	<polygon points="400.879,59.1489 400.876,60.4351 400.862,60.5736 400.887,60.5642 401.14,60.4924 402.38,60.2616 402.642,60.2372 405.801,60.6843 406.911,61.1196 408.805,62.2403 410.184,63.3881 410.579,63.7432 412.205,65.3239 413.948,66.9606 415.704,68.3709 417.44,69.4251 419.129,70.0605 421.182,70.3195 421.363,70.311 421.928,70.2252 422.401,70.0867 422.666,69.9557 422.736,69.8987 422.779,69.8392 422.925,69.4434 422.973,68.9884 422.582,67.6895 421.031,66.0884 417.496,63.997 412.73,62.0224 407.591,60.3184 402.91,58.8803 402.585,58.7718 400.786,58.1199 " fill="none" stroke-width="0.5" stroke="rgb(0,0,0)" />
	<polygon points="163.083,47.3168 162.949,47.6592 162.132,49.119 164.459,49.9102 164.648,49.9776 167.485,51.0351 165.801,49.337 163.218,46.7698 " fill="none" stroke-width="0.5" stroke="rgb(0,0,0)" />
	<polygon points="396.885,39.4849 397.45,40.8428 398.044,42.848 399.926,41.9034 400.769,41.548 403.741,40.5214 404.192,40.3826 407.854,39.3925 408.175,39.3138 409.329,39.0604 406.775,37.7114 402.46,36.0757 398.473,34.9416 395.103,34.0981 394.588,33.9476 393.685,33.6454 " fill="none" stroke-width="0.5" stroke="rgb(0,0,0)" />
	<polygon points="70.1117,40.5228 70.1013,40.5293 69.6866,40.7878 70.8918,40.9135 70.9913,40.923 71.1998,39.8419 " fill="none" stroke-width="0.5" stroke="rgb(0,0,0)" />
	<polygon points="153.324,28.8363 152.355,29.5179 151.292,30.132 150.389,30.5516 152.545,31.8983 153.568,32.5166 153.815,28.2416 " fill="none" stroke-width="0.5" stroke="rgb(0,0,0)" />
	<polygon points="82.2749,28.4492 81.4709,30.6118 81.2635,30.9383 83.887,29.9667 84.5315,29.7053 84.0794,29.4615 82.4093,27.777 " fill="none" stroke-width="0.5" stroke="rgb(0,0,0)" />
</svg>
