<?xml version="1.0" standalone="no" ?>
<!DOCTYPE svg PUBLIC "-//W3C//DTD SVG 1.1//EN" "http://www.w3.org/Graphics/SVG/1.1/DTD/svg11.dtd">
<svg width="500px" height="500px" xmlns="http://www.w3.org/2000/svg" version="1.1" >
	<polygon points="463.173,280.791 462.399,294.583 460.098,309.111 456.186,324.553 450.633,340.574 443.426,356.857 434.561,373.102 424.036,389.017 411.855,404.326 398.02,418.763 382.527,432.072 365.364,444.008 346.504,454.336 325.904,462.816 303.501,469.205 279.222,473.245 252.978,474.659 227.415,473.325 203.645,469.5 181.628,463.433 161.313,455.357 142.653,445.494 125.621,434.057 110.199,421.26 96.3845,407.322 84.1831,392.467 73.605,376.933 64.662,360.965 57.3638,344.819 51.7153,328.76 47.7138,313.066 45.3437,298.025 44.5405,283.421 44.5405,37.0908 50.0093,37.0488 61.501,36.9606 72.9927,36.8724 84.4843,36.7843 95.976,36.6961 107.468,36.6079 118.959,36.5197 130.451,36.4316 141.943,36.3434 153.434,36.2552 164.926,36.167 176.418,36.0789 187.909,35.9907 193.072,35.9511 193.057,43.9276 193.031,56.8264 193.006,69.7252 193.006,69.7252 192.98,82.624 192.929,108.422 192.929,108.422 192.904,121.32 192.853,147.118 192.853,147.118 192.828,160.017 192.802,172.916 192.777,185.814 192.751,198.713 192.726,211.612 192.726,211.612 192.7,224.511 192.701,224.682 192.788,235.976 192.79,236.108 192.954,246.925 192.959,247.166 193.256,257.472 193.271,257.839 193.756,267.601 193.789,268.12 194.517,277.304 194.587,278.008 195.614,286.581 195.75,287.509 197.13,295.438 197.383,296.64 199.173,303.89 199.622,305.413 201.876,311.952 202.643,313.821 205.417,319.615 206.657,321.795 210.006,326.811 211.867,329.143 215.846,333.348 218.35,335.538 223.016,338.897 225.968,340.616 231.374,343.097 234.407,344.167 240.61,345.736 243.383,346.207 250.438,346.831 251.947,329.779 253.125,346.858 260.386,346.357 263.174,345.939 269.521,344.462 272.627,343.427 278.122,341.008 281.192,339.273 285.898,335.951 288.517,333.686 292.495,329.498 294.428,327.066 297.741,322.047 299.008,319.781 301.717,313.968 302.481,312.043 304.649,305.473 305.082,303.925 306.771,296.636 307.006,295.432 308.277,287.459 308.399,286.545 309.315,277.925 309.373,277.248 309.996,268.019 310.022,267.535 310.414,257.732 310.424,257.407 310.646,247.067 310.649,246.875 310.764,236.036 310.765,235.958 310.835,224.655 310.835,224.51 310.809,211.611 310.783,198.713 310.757,185.814 310.732,172.915 310.732,172.915 310.706,160.016 310.654,134.219 310.654,134.219 310.628,121.32 310.551,82.6235 310.551,82.6234 310.525,69.7246 310.457,35.7015 316.391,35.6634 316.391,35.6634 328.145,35.5878 339.898,35.5122 351.651,35.4367 351.651,35.4367 363.404,35.3611 375.158,35.2856 386.911,35.21 386.911,35.21 410.417,35.0589 422.171,34.9833 433.924,34.9078 433.924,34.9078 445.677,34.8322 457.43,34.7566 463.173,34.7197 " fill="none" stroke-width="0.5" stroke="rgb(0,0,0)" />
</svg>
