<?xml version="1.0" standalone="no" ?>
<!DOCTYPE svg PUBLIC "-//W3C//DTD SVG 1.1//EN" "http://www.w3.org/Graphics/SVG/1.1/DTD/svg11.dtd">
<svg width="500px" height="500px" xmlns="http://www.w3.org/2000/svg" version="1.1" >
	<polygon points="475.823,80.9083 471.188,86.5523 470.253,87.4312 463.22,92.5155 462.324,93.0313 453.807,96.8221 453.056,97.0869 450.707,97.7103 451.007,97.6567 453.251,97.424 454.185,97.4149 455.494,97.5249 456.454,97.7014 457.537,98.0121 458.578,98.4427 459.45,98.9255 460.382,99.5981 460.551,99.0846 463.096,97.2748 465.582,97.1527 468.068,97.6631 468.946,97.9292 471.041,98.7813 471.948,99.2642 473.671,100.423 474.494,101.116 475.823,102.506 475.823,190.659 475.424,190.93 471.419,191.652 468.085,190.832 466.784,190.31 462.214,187.68 461.655,187.306 456.332,183.201 455.965,182.889 450.372,177.646 450.057,177.322 447.212,174.125 451.686,180.259 451.742,180.339 455.831,186.181 458.283,187.625 458.295,187.632 462.357,190.039 462.599,190.192 466.987,193.145 467.392,193.448 471.761,197.079 472.28,197.577 475.823,201.51 475.823,247.535 471.932,252.962 471.87,253.046 468.667,257.323 470.042,256.777 472.973,256.159 474.523,256.079 475.823,256.214 475.823,281.146 475.032,295.249 474.203,296.274 473.799,296.717 470.841,299.591 468.198,300.879 470.428,303.798 470.886,304.518 472.802,308.185 472.985,308.61 472.502,311.659 468.315,328.184 462.413,345.213 454.782,362.457 451.345,368.753 450.187,368.551 447.618,364.995 446.489,358.48 444.174,354.824 440.596,352.038 435.82,349.644 430.612,347.326 430.117,347.072 425.487,344.357 424.263,343.348 420.991,339.631 419.872,337.452 418.631,332.079 418.523,330.503 418.62,329.438 417.367,330.273 416.103,330.621 415.314,330.771 413.527,330.965 413.351,330.981 411.382,331.124 410.658,331.2 410.735,331.695 410.983,333.086 411.238,334.508 411.252,334.586 411.476,335.955 411.503,336.143 411.661,337.412 411.693,337.766 411.753,338.894 411.758,339.304 411.748,339.638 411.724,340.002 411.69,340.337 411.611,340.846 411.544,341.169 411.345,341.866 411.237,342.161 410.796,343.072 410.639,343.326 410.589,343.387 411.563,343.271 412.579,343.254 417.926,343.71 418.768,343.855 424.062,345.241 424.906,345.545 429.943,347.891 430.776,348.381 435.353,351.713 436.126,352.41 440.041,356.758 440.678,357.642 443.725,363.033 444.154,364.031 446.132,370.493 446.329,371.493 446.842,377.004 445.408,379.632 434.281,396.458 421.392,412.658 406.728,427.958 398.942,434.647 398.31,434.265 396.895,433.2 396.296,432.667 395.014,431.332 394.566,430.794 393.473,429.279 393.109,428.692 392.259,427.086 391.949,426.369 391.399,424.763 391.171,423.783 390.975,422.267 390.943,421.316 390.973,420.842 391.075,420.103 391.183,419.602 391.447,418.751 391.661,418.23 391.82,417.928 389.116,417.64 388.213,417.458 384.653,416.394 383.946,416.123 380.608,414.543 380.034,414.224 377.036,412.288 376.532,411.916 376.148,411.593 376.352,412.645 376.443,413.597 376.443,417.615 376.442,417.732 376.425,418.455 376.411,418.734 376.354,419.449 376.313,419.8 376.208,420.495 379.366,419.644 380.936,419.827 381.989,420.068 383.622,420.633 384.558,421.07 386.17,422.036 386.987,422.646 388.493,424.034 389.163,424.79 390.481,426.619 390.973,427.467 392.018,429.759 392.321,430.629 393.01,433.403 393.143,434.23 393.391,437.507 393.33,438.748 393.181,439.596 390.28,442.088 372.032,454.779 351.967,465.767 330.059,474.785 320.847,477.413 319.612,476.774 318.756,476.213 316.557,474.427 315.836,473.709 314.11,471.595 313.56,470.764 312.317,468.405 311.948,467.503 311.196,464.98 311.01,464.034 310.757,461.428 310.745,460.619 310.986,456.934 311.062,456.335 311.733,452.771 311.858,452.258 312.881,448.852 313.034,448.417 313.851,446.396 313.461,446.525 312.709,446.71 311.94,446.836 311.5,446.873 311.217,447.695 310.062,451.8 310.015,451.957 308.506,456.719 308.329,457.193 306.296,461.898 305.842,462.723 303.076,466.796 301.997,467.943 298.289,470.808 296.32,471.732 292.108,472.671 292.842,472.708 295.373,472.681 297.282,472.608 298.607,472.51 299.521,472.404 300.256,472.291 300.951,472.181 301.183,472.15 301.899,472.071 302.275,472.044 303.139,472.014 303.712,472.027 304.582,472.096 305.567,472.276 306.236,472.468 307.392,472.966 307.886,473.257 308.981,474.131 309.326,474.496 310.097,475.565 310.319,475.979 310.719,476.963 310.845,477.402 310.999,478.147 311.055,478.586 311.093,479.066 311.106,479.48 311.02,480.215 306.282,481.566 280.604,485.839 265.744,486.639 264.57,485.299 264.459,485.149 261.379,486.718 261.098,486.85 260.995,486.895 252.988,487.326 226.077,485.923 200.951,481.88 177.599,475.444 177.501,475.405 176.715,474.854 173.288,472.925 170.86,472.226 169.052,472.047 156.005,466.86 136.154,456.367 130.358,452.475 130.283,452.332 130.755,449.245 131.769,448.234 127.28,448.638 126.293,448.629 124.309,448.414 118.036,444.202 101.647,430.602 86.984,415.807 74.0471,400.057 73.332,399.007 73.6819,394.625 73.8097,393.833 74.0239,392.959 73.403,393.773 70.4056,394.648 70.3455,394.621 62.8381,383.597 53.3591,366.671 45.6117,349.532 39.596,332.429 38.3884,327.693 40.365,321.326 40.6497,320.61 44.8463,312.04 45.1019,311.581 47.3894,307.937 47.1936,308.105 44.98,309.655 43.4166,310.387 41.3002,310.959 38.494,310.902 36.5249,310.282 34.4903,309.049 34.2343,308.793 32.748,299.36 31.8905,283.768 31.8905,233.533 32.3513,232.74 34.1898,230.281 36.1791,228.699 37.9065,227.939 37.4935,227.932 34.9572,227.636 33.6771,227.311 31.8905,226.594 31.8905,159.64 32.0898,159.084 32.4103,158.371 34.8368,153.939 35.3739,153.148 38.9132,148.879 39.658,148.151 42.1771,146.156 41.9272,146.174 41.1037,146.166 38.3703,145.91 37.434,145.731 34.8985,144.991 33.9967,144.629 31.8905,143.536 31.8905,111.271 32.1733,111.065 32.8096,110.67 35.0625,109.494 38.1435,108.987 40.9248,110.406 41.4516,112.005 41.5211,111.271 41.6999,110.338 42.3484,108.121 42.7017,107.236 43.7396,105.219 44.0452,104.744 41.8117,105.617 40.8994,105.877 36.8744,106.621 35.6683,106.695 34.9759,106.653 34.3027,106.567 33.6692,106.442 32.885,106.218 32.3207,106.007 31.8905,105.796 31.8905,88.9912 33.15,87.0876 33.448,86.6829 35.7875,83.8194 34.7278,84.2122 32.6022,84.7219 31.8905,84.7504 31.8905,60.4132 32.3868,60.1518 31.8905,60.0469 31.8905,41.7848 33.0101,40.9649 33.2532,40.7977 37.7133,37.9196 37.7795,37.8777 42.1892,35.1289 43.924,33.9897 43.8525,33.9686 39.6605,32.931 39.6339,32.9244 35.3345,31.8352 35.06,31.7572 31.8905,30.7587 31.8905,24.5374 38.4206,24.4873 49.9123,24.3992 61.4039,24.311 72.8956,24.2228 80.2302,24.1665 80.494,27.7871 79.69,29.9496 78.5724,31.709 76.4527,33.8694 75.8039,34.4263 72.807,36.5825 72.5392,36.7624 69.1038,38.9122 69.0963,38.9169 65.7896,40.9779 64.353,41.9994 66.1077,42.3249 70.7027,42.8041 72.8645,43.0111 72.6751,42.4117 72.6118,41.9859 73.2398,38.7299 73.9982,37.4311 75.7551,35.6579 77.7545,34.4656 78.418,34.134 81.2448,32.9746 81.4056,32.9118 84.5742,31.7383 87.5045,30.5496 89.3817,29.552 89.2755,29.5041 88.0033,29.076 87.9857,29.07 86.6714,28.6223 85.9107,28.2904 84.9811,27.7891 82.9331,25.7234 82.5804,25.0558 82.4264,24.1497 84.3873,24.1346 95.879,24.0465 107.371,23.9583 116.441,23.8887 116.627,24.0623 117.42,24.4705 118.804,24.6697 120.13,24.4799 120.969,24.0608 121.207,23.8521 130.354,23.7819 141.846,23.6938 153.337,23.6056 154.498,23.5967 154.283,24.4208 153.916,25.2398 152.231,27.2823 151.262,27.9639 150.492,28.4089 149.122,29.0453 149.01,29.0954 147.605,29.7071 146.723,30.1688 146.951,30.4165 148.898,31.8601 151.55,33.5171 154.372,35.2229 154.575,35.3527 157.063,37.0262 157.348,37.2513 156.942,36.7108 156.225,35.3698 155.309,32.769 155.531,28.9151 156.584,26.7578 158.153,24.8958 160.012,23.5544 164.829,23.5174 176.321,23.4292 187.812,23.3411 205.747,23.2034 205.736,29.096 205.191,29.401 201.781,30.9649 201.509,31.0804 199.778,31.7536 201.219,31.6217 201.513,31.6035 203.733,31.5317 203.95,31.5294 205.549,31.5472 205.731,31.5542 205.706,43.9526 205.685,55.0453 204.029,54.8147 203.171,54.617 200.665,53.8016 200.407,53.7011 203.55,56.9113 203.745,57.1228 205.676,59.3368 205.656,69.7502 205.656,69.7502 205.63,82.649 205.628,83.682 205.358,83.7221 204.229,83.8015 203.372,83.7882 199.39,83.3828 198.786,83.2836 194.096,82.2149 193.792,82.1355 188.672,80.6247 188.527,80.5796 188.2,80.4722 192.346,83.1753 192.541,83.3087 197.426,86.8326 197.567,86.9382 202.37,90.6669 202.503,90.7736 205.609,93.3591 205.579,108.447 205.579,108.447 205.554,121.345 205.55,123.407 204.942,123.538 201.454,123.017 199.13,121.721 198.053,120.913 194.537,117.445 194.233,117.116 189.989,112.104 189.826,111.901 185.316,105.973 185.188,105.796 181.717,100.795 182.417,103.072 182.589,103.849 183.144,107.819 183.187,108.748 183.145,109.639 183.088,110.192 182.956,111.018 182.795,111.706 182.565,112.45 182.223,113.283 181.887,113.928 181.263,114.855 180.812,115.386 179.858,116.252 179.285,116.651 178.11,117.257 177.405,117.508 176.239,117.773 175.395,117.86 173.584,117.716 170.225,116.815 169.311,116.431 169.313,116.433 169.921,117.24 172.265,121.109 172.655,121.904 174.342,126.285 174.566,127.036 175.182,129.919 177.611,127.758 178.08,127.389 181.08,125.302 181.691,124.939 184.811,123.372 185.593,123.059 188.814,122.075 189.762,121.883 193.066,121.541 194.135,121.545 198.167,121.995 199.352,122.276 202.806,123.558 203.924,124.142 205.546,125.271 205.503,147.143 205.478,160.042 205.452,172.941 205.441,178.456 204.221,179.992 203.59,180.652 201.449,182.517 200.657,183.082 198.188,184.501 197.249,184.919 194.487,185.822 193.454,186.042 192.12,186.182 193.079,186.256 193.88,186.384 196.945,187.134 197.766,187.412 200.528,188.623 201.346,189.078 203.745,190.722 204.517,191.375 205.414,192.305 205.401,198.738 205.376,211.637 205.361,219.371 203.474,220.955 200.358,221.152 197.732,219.462 196.797,217.646 196.181,215.418 195.469,214.062 194.524,212.973 193.222,212.023 191.423,211.193 189.049,210.537 186.089,210.114 182.526,209.966 182.265,209.972 184.016,211.25 184.854,212.024 186.827,214.312 187.506,215.328 188.715,217.729 189.103,218.778 189.71,221.233 189.844,222.094 189.87,222.464 191.227,220.003 194.063,218.698 197.246,219.403 200.593,221.456 200.996,221.732 204.064,224.054 204.441,224.37 205.355,225.216 205.438,235.879 205.438,235.916 205.603,246.733 205.604,246.801 205.901,257.107 205.905,257.211 206.252,264.194 206.033,264.459 204.319,266.739 203.428,268.404 203.222,269.455 203.438,270.565 204.185,271.778 205.778,273.388 206.976,274.398 207.128,276.304 207.147,276.504 208.174,285.077 208.213,285.34 209.593,293.268 209.665,293.609 211.454,300.859 211.581,301.29 213.835,307.829 214.053,308.359 216.827,314.153 217.178,314.771 220.527,319.787 221.054,320.448 225.033,324.652 225.743,325.273 230.408,328.632 231.245,329.119 236.651,331.6 237.51,331.903 243.713,333.473 244.498,333.606 248.624,333.971 248.844,334.427 249.157,335.252 250.07,338.513 250.211,339.199 250.662,342.567 250.703,343.055 250.824,346.503 250.808,347.114 250.77,347.548 252.092,343.246 252.459,342.362 256.964,333.913 259.515,333.737 260.305,333.619 266.652,332.141 267.532,331.848 273.027,329.43 273.897,328.938 278.603,325.616 279.345,324.975 283.323,320.786 283.871,320.097 287.183,315.078 287.542,314.436 290.252,308.624 290.468,308.078 292.636,301.509 292.759,301.07 294.447,293.781 294.514,293.44 295.785,285.467 295.82,285.208 296.736,276.589 296.752,276.397 297.258,268.9 298.137,268.497 299.28,268.128 300.33,267.91 301.588,267.787 302.92,267.835 305.196,268.226 306.623,268.7 308.021,269.413 305.444,267.993 305.268,267.892 300.583,265.057 299.914,264.573 297.561,262.553 297.774,257.227 297.776,257.135 297.999,246.795 298,246.741 298.115,235.901 298.115,235.879 298.185,224.577 298.185,224.536 298.182,223.129 298.73,222.59 298.52,222.475 298.18,222.244 298.159,211.637 298.133,198.738 298.131,197.502 298.516,197.24 300.206,196.31 301.105,195.925 302.964,195.335 303.018,195.324 302.344,194.867 301.308,194.012 300.639,193.342 299.783,192.307 299.248,191.516 298.6,190.329 298.218,189.427 298.114,189.094 298.107,185.839 298.099,181.402 298.219,181.018 298.601,180.117 299.248,178.931 299.784,178.14 300.64,177.105 301.309,176.436 302.344,175.581 303.135,175.046 304.321,174.4 305.222,174.018 306.529,173.609 307.515,173.406 308.915,173.264 309.927,173.263 311.334,173.406 312.316,173.607 313.629,174.016 314.529,174.396 314.537,174.4 314.565,174.122 314.765,173.141 315.151,171.897 315.531,170.996 316.141,169.869 316.432,169.438 315.359,169.306 314.974,169.243 312.769,168.795 312.426,168.712 310.578,168.198 310.301,168.112 309.158,167.721 308.914,168.332 308.772,168.655 308.274,169.688 307.617,170.71 307.028,171.419 304.635,173.009 303.885,173.236 300.475,173.053 298.989,172.421 298.079,171.831 298.056,160.042 298.004,134.244 298.004,134.244 297.978,121.345 297.962,113.408 299.177,110.748 299.652,109.925 301.539,107.277 302.225,106.499 304.709,104.211 305.595,103.56 308.706,101.764 309.717,101.32 312.271,100.524 312.197,100.327 312.033,99.8061 311.895,99.2653 311.826,98.95 311.695,98.2487 311.648,97.9542 311.446,96.3461 311.225,94.6517 311.072,93.6727 310.837,93.871 308.518,95.9208 308.486,95.9489 306.084,98.0354 305.927,98.1664 303.65,99.9866 303.247,100.277 301.261,101.564 300.062,102.132 298.532,102.62 297.941,102.71 297.901,82.6488 297.901,82.6488 297.899,81.6855 298.723,80.0706 298.367,80.0271 297.895,79.9764 297.875,69.75 297.859,61.9351 298.044,61.8036 299.004,60.986 298.894,60.9181 297.856,60.4253 297.82,42.3595 298.235,42.1316 298.35,42.057 298.196,41.7781 297.817,41.1958 297.797,31.0536 297.797,31.0536 297.781,23.1327 304.557,23.0892 307.436,23.0707 307.849,23.2956 310.881,24.8964 310.901,24.0742 310.905,23.2257 310.908,23.0632 310.909,23.0483 316.31,23.0136 328.063,22.9381 339.816,22.8625 351.57,22.7869 363.323,22.7114 375.076,22.6358 380.145,22.6032 384.965,26.1418 385.76,26.8695 390.816,32.6156 391.447,33.5154 395.219,40.398 395.629,41.382 397.019,46.0783 397.117,45.9547 398.784,44.6027 400.778,43.6014 401.389,43.3439 404.361,42.3173 404.688,42.2167 408.35,41.2266 408.583,41.1695 412.645,40.2774 412.854,40.2363 414.301,39.9824 412.262,38.4613 407.559,35.9765 403.058,34.2704 398.964,33.1058 395.564,32.255 395.191,32.1459 392.896,31.3777 390.734,29.9442 389.906,29.0057 388.675,26.1362 389.831,22.541 410.336,22.4091 422.089,22.3336 433.842,22.258 443.044,22.1989 443.141,22.2878 444.13,23.5345 445.427,25.8487 446,27.4918 446,27.4924 446.036,27.2979 446.704,24.9245 447.069,23.9944 448.008,22.1669 457.349,22.1069 469.102,22.0313 475.823,21.9881 " fill="none" stroke-width="0.5" stroke="rgb(0,0,0)" />
	<polygon points="258.299,447.452 257.926,447.497 257.731,447.546 257.551,447.622 257.232,447.814 256.699,448.23 255.936,448.943 255.483,449.422 256.208,449.298 256.534,449.303 256.895,449.323 257.324,449.361 257.888,449.444 258.392,449.548 259.097,449.748 259.652,449.95 260.436,450.316 260.992,450.636 260.677,449.96 260.633,449.862 260.237,448.961 259.927,448.441 259.604,448.029 259.297,447.731 259.042,447.546 258.878,447.462 258.838,447.449 258.734,447.439 " fill="none" stroke-width="0.5" stroke="rgb(0,0,0)" />
	<polygon points="187.537,439.532 187.853,440.151 189.839,444.809 190.081,445.522 191.01,449.127 191.016,449.13 192.29,449.505 193.86,449.851 195.547,450.122 197.191,450.293 198.605,450.348 200.497,450.245 202.341,449.92 204.047,449.361 205.536,448.572 206.786,447.543 207.826,446.196 208.664,444.359 209.311,441.372 210.24,439.789 210.093,439.822 209.377,439.928 202.693,440.427 201.928,440.426 195.71,439.937 194.864,439.796 189.667,438.468 188.807,438.162 185.904,436.82 " fill="none" stroke-width="0.5" stroke="rgb(0,0,0)" />
	<polygon points="162.748,403.415 162.878,404.224 163.617,413.727 163.621,414.456 163.3,419.14 163.201,419.848 162.139,424.797 161.899,425.588 159.944,430.528 159.499,431.396 156.5,436.053 155.791,436.922 151.597,441.022 150.642,441.753 145.1,445.021 144.028,445.494 139.083,447.013 139.72,447.068 140.711,447.131 141.705,447.173 142.678,447.198 143.468,447.204 148.592,446.877 152.754,445.986 156.093,444.624 158.675,442.883 160.613,440.797 162.014,438.309 162.901,435.317 163.233,431.576 163.23,431.291 163.211,430.79 163.182,430.264 163.142,429.719 163.094,429.16 163.039,428.592 162.979,428.018 162.914,427.437 163.558,424.381 165.889,422.303 170.072,422.392 172.174,423.415 172.702,423.712 173.91,424.494 173.541,423.591 173.231,422.479 172.918,420.497 172.876,419.278 172.908,418.91 173.101,417.91 173.196,417.591 173.664,416.514 173.821,416.244 174.57,415.261 174.787,415.039 175.699,414.304 175.973,414.132 176.883,413.682 177.213,413.559 178.015,413.333 178.399,413.258 179.063,413.176 179.498,413.151 180.003,413.148 180.306,413.161 179.904,413.061 177.034,412.184 176.585,412.022 173.801,410.871 173.392,410.679 170.756,409.298 170.365,409.07 167.937,407.502 167.545,407.221 165.388,405.513 164.977,405.148 163.152,403.343 162.762,402.911 162.562,402.66 " fill="none" stroke-width="0.5" stroke="rgb(0,0,0)" />
	<polygon points="326.231,414.327 325.236,414.781 315.731,417.913 314.674,418.139 309.897,418.627 309.943,418.654 311.395,419.974 312.168,421.02 312.818,422.21 313.312,423.508 313.514,424.178 313.845,425.63 313.885,425.823 314.145,427.217 314.382,428.223 314.444,428.379 315.068,428.823 315.094,428.841 316.001,429.495 316.315,429.74 317.182,430.476 317.741,431.032 318.474,431.887 319.147,432.898 319.655,433.909 320.126,435.374 320.143,435.484 321.39,433.907 321.544,433.722 322.266,432.895 322.396,432.752 323.115,431.99 323.295,431.808 324.01,431.124 324.263,430.898 324.971,430.306 325.33,430.033 326.03,429.548 326.544,429.236 327.234,428.872 327.968,428.557 328.646,428.329 329.651,428.102 330.315,428.022 331.858,428.078 331.898,428.085 331.214,427.453 330.212,426.251 329.241,424.404 328.891,423.163 328.704,421.809 328.704,413.773 328.853,412.764 " fill="none" stroke-width="0.5" stroke="rgb(0,0,0)" />
	<polygon points="242.578,409.516 242.594,409.794 242.619,410.653 242.561,411.569 241.782,416.545 241.356,417.922 239.15,422.553 238.499,423.576 235.06,427.763 234.354,428.467 229.876,432.112 229.179,432.588 224.459,435.254 226.784,434.557 232.194,432.005 236.838,428.838 240.697,425.144 243.752,421 245.983,416.471 247.49,411.173 248.311,409.958 247.525,410.032 246.338,410.003 245.4,409.867 244.207,409.54 243.341,409.182 242.628,408.818 242.514,408.748 " fill="none" stroke-width="0.5" stroke="rgb(0,0,0)" />
	<polygon points="255.8,392.916 255.642,393.513 255.423,394.173 255.275,394.544 255.385,394.702 255.761,395.337 256.109,396.052 256.382,396.747 256.611,397.5 256.778,398.258 256.884,398.991 256.94,399.814 256.93,400.627 256.834,401.638 256.651,402.589 256.375,403.52 256.003,404.432 255.563,405.266 255.014,406.095 254.426,406.814 253.721,407.52 253.428,407.761 254.112,407.881 256.96,408.989 257.38,409.175 260.24,410.602 260.564,410.78 263.347,412.436 263.618,412.61 266.236,414.406 266.484,414.587 268.848,416.433 269.1,416.644 271.123,418.449 271.417,418.734 272.259,419.619 272.955,419.467 273.174,419.424 274.459,419.202 274.667,419.171 276.001,418.998 276.199,418.977 277.582,418.853 277.768,418.84 279.2,418.766 279.375,418.76 280.857,418.735 281.057,418.736 283.188,418.786 283.411,418.796 285.614,418.946 285.825,418.965 288.106,419.218 288.302,419.243 290.667,419.601 290.848,419.631 293.303,420.095 293.469,420.13 296.019,420.702 296.171,420.739 297.076,420.971 297.249,420.68 297.755,420.002 298.709,419.034 298.902,418.885 291.1,418.092 290.051,417.869 279.967,414.57 278.975,414.121 270.369,409.028 269.524,408.399 262.422,401.843 261.765,401.103 256.196,393.417 255.825,392.791 " fill="none" stroke-width="0.5" stroke="rgb(0,0,0)" />
	<polygon points="198.21,411.232 197.3,411.791 195.622,412.589 194.838,412.884 192.91,413.431 192.274,413.567 190.141,413.881 189.632,413.93 187.338,414.03 186.886,414.025 187.076,414.044 188.978,414.151 191.07,414.186 195.603,413.353 198.25,411.512 198.751,410.814 " fill="none" stroke-width="0.5" stroke="rgb(0,0,0)" />
	<polygon points="351.361,386.979 347.753,394.453 347.292,395.223 342.327,402.04 343.403,401.716 343.988,401.578 347.927,400.893 348.505,400.827 353.012,400.575 353.472,400.57 357.265,400.707 357.663,400.737 361.134,401.142 361.602,401.219 364.693,401.881 365.267,402.039 367.923,402.949 368.645,403.262 369.447,403.687 369.14,402.96 368.693,401.19 368.934,398.02 369.546,396.569 369.285,396.712 367.973,397.208 362.777,398.372 360.566,398.366 359.416,398.102 357.717,397.359 356.64,396.624 355.694,395.786 354.715,394.667 354.199,393.961 353.343,392.543 353.037,391.953 352.328,390.323 352.132,389.791 351.595,388.036 351.463,387.504 351.363,386.974 " fill="none" stroke-width="0.5" stroke="rgb(0,0,0)" />
	<polygon points="226.009,383.467 217.741,385.898 216.772,386.082 206.956,386.953 205.966,386.943 197.768,386.038 196.776,385.818 199.114,388.974 199.491,389.565 201.328,392.95 201.637,393.639 202.779,396.804 203.023,397.778 203.415,400.464 203.435,401.758 203.347,402.52 204.913,399.241 205.284,398.593 208.104,394.423 209.257,393.217 213.212,390.267 215.235,389.369 220.92,388.25 222.269,388.171 223.314,388.251 223.893,388.33 225.141,388.574 225.604,388.688 226.979,389.097 227.334,389.221 227.208,388.826 227.09,388.388 226.872,387.401 226.771,386.726 226.688,385.707 226.688,384.891 226.777,383.824 226.902,383.096 " fill="none" stroke-width="0.5" stroke="rgb(0,0,0)" />
	<polygon points="281.372,390.272 285.84,393.493 291.168,396.025 297.299,397.683 304.301,398.29 307.761,398.147 310.876,397.736 313.473,397.121 314.389,396.783 313.955,396.472 312.089,393.875 311.834,393.043 311.692,390.702 311.215,390.892 310.966,390.983 308.21,391.91 307.837,392.02 304.624,392.829 304.166,392.922 300.458,393.495 299.951,393.547 295.709,393.764 295.104,393.758 291.59,393.512 290.912,393.417 287.522,392.705 286.856,392.517 283.695,391.379 283.016,391.076 281.212,390.104 " fill="none" stroke-width="0.5" stroke="rgb(0,0,0)" />
	<polygon points="116.611,388.493 116.605,388.549 116.62,388.469 " fill="none" stroke-width="0.5" stroke="rgb(0,0,0)" />
	<polygon points="120.157,350.644 119.469,351.225 117.686,352.476 116.933,352.911 115.045,353.794 115.067,354.13 115.095,356.484 115.01,357.468 114.598,359.658 114.311,360.63 113.495,362.622 113.016,363.518 111.83,365.28 111.192,366.049 111.168,366.073 111.632,365.897 115.662,364.777 116.55,364.615 120.8,364.23 121.8,364.24 129.475,365.088 130.566,365.334 137.65,367.793 138.646,368.268 145.005,372.214 145.84,372.865 151.341,378.172 151.986,378.933 155.769,384.422 155.307,381.758 154.656,379.051 153.66,376.718 152.232,374.509 150.317,372.412 147.852,370.441 144.777,368.63 141.048,367.031 136.465,365.645 132.774,364.641 132.519,364.565 129.567,363.591 129.19,363.449 126.95,362.505 126.397,362.23 124.776,361.296 124.013,360.756 122.916,359.813 122.055,358.854 121.388,357.883 120.754,356.6 120.423,355.583 120.194,354.446 120.104,353.365 120.161,352.098 120.466,350.339 120.47,350.327 " fill="none" stroke-width="0.5" stroke="rgb(0,0,0)" />
	<polygon points="248.182,360.972 245.369,366.901 244.863,367.742 240.797,373.208 240.081,373.983 238.206,375.628 239.127,375.847 240.155,376.227 241.205,376.762 242.09,377.354 242.91,378.041 243.653,378.813 244.231,379.535 244.424,379.83 244.691,379.804 245.257,379.779 245.98,379.799 247.226,379.924 248.256,380.139 249.362,380.495 250.34,380.929 250.842,381.221 248.981,374.355 248.827,373.493 248.013,364.406 248.018,363.457 248.302,360.645 " fill="none" stroke-width="0.5" stroke="rgb(0,0,0)" />
	<polygon points="77.1906,367.723 78.0152,369.809 79.2694,378.091 79.0493,380.479 78.8195,381.141 79.341,380.285 79.7677,379.688 82.1558,376.819 82.6731,376.284 85.1816,374.049 85.8303,373.56 88.3095,371.988 89.1984,371.542 91.4987,370.661 92.3704,370.619 92.0387,370.509 91.1533,370.119 89.436,369.155 88.6426,368.602 87.1569,367.336 86.5005,366.66 85.2657,365.122 84.855,364.504 84.4986,364.583 84.2792,364.627 83.4594,364.771 83.2473,364.804 82.4057,364.915 81.8046,364.958 79.4911,364.982 78.498,364.894 76.2997,364.473 75.3673,364.198 74.5334,363.862 " fill="none" stroke-width="0.5" stroke="rgb(0,0,0)" />
	<polygon points="101.023,371.447 100.189,371.558 97.8922,371.667 97.007,371.631 96.1298,371.516 97.2175,372.24 98.2353,376.047 98.1138,376.885 98.96,375.442 99.5639,374.618 102.291,371.601 102.917,371.032 " fill="none" stroke-width="0.5" stroke="rgb(0,0,0)" />
	<polygon points="354.113,361.728 353.469,362.501 351.275,364.65 350.782,365.038 352.879,365.792 354.617,368.386 354.776,370.246 354.176,376.069 354.605,375.713 355.561,375.067 356.22,374.692 357.468,374.102 357.985,373.892 359.554,373.354 359.945,373.238 361.688,372.796 367.856,370.746 366.879,370.657 365.95,370.484 363.814,369.871 362.899,369.508 361.024,368.54 360.181,367.991 358.59,366.709 357.871,365.999 356.59,364.447 356.031,363.612 355.085,361.833 354.708,360.915 354.694,360.868 " fill="none" stroke-width="0.5" stroke="rgb(0,0,0)" />
	<polygon points="167.77,364.588 167.832,364.795 168.82,368.315 168.836,368.375 169.693,371.581 170.445,374.137 171.012,375.582 171.071,375.667 171.345,375.75 171.688,375.824 172.065,375.879 172.442,375.91 172.822,375.921 173.318,375.915 173.858,375.897 174.406,375.871 174.963,375.839 175.518,375.807 175.543,375.805 176.077,375.776 176.146,375.773 176.651,375.752 176.772,375.749 177.246,375.741 177.879,375.779 175.224,373.464 174.61,372.825 169.984,367.063 169.498,366.335 166.619,361.08 " fill="none" stroke-width="0.5" stroke="rgb(0,0,0)" />
	<polygon points="323.617,364.199 323.274,365.077 322.559,366.498 322.045,367.312 321.08,368.559 320.399,369.278 319.203,370.312 318.371,370.896 317.555,371.351 320.557,371.543 323.559,371.473 327.178,371.238 331.081,370.817 335.037,370.194 338.808,369.359 339.847,369.037 339.131,369.113 338.167,369.122 334.946,368.841 334.03,368.673 331.088,367.848 330.158,367.483 327.542,366.141 326.665,365.568 324.421,363.739 323.898,363.212 " fill="none" stroke-width="0.5" stroke="rgb(0,0,0)" />
	<polygon points="297.698,354.001 294.512,355.919 293.439,356.404 288.934,357.826 288.864,357.848 284.003,359.304 279.737,361.199 276.483,363.843 274.22,367.854 273.828,370.533 274.714,369.776 275.013,369.577 276.106,369.028 276.445,368.907 277.585,368.645 277.961,368.604 278.533,368.594 278.595,367.983 278.663,367.529 278.902,366.304 279.087,365.62 279.482,364.486 279.967,363.474 280.556,362.534 281.72,361.245 282.541,360.605 284.557,359.662 285.651,359.425 288.448,359.624 289.865,360.15 291.104,360.822 292.972,362.208 293.082,362.292 295.443,364.147 298.363,366.137 300.663,367.347 300.261,366.709 299.589,365.378 299.247,364.508 298.828,363.056 298.655,362.138 298.511,360.601 298.494,359.897 298.547,358.791 298.581,358.398 298.72,357.308 298.761,357.041 298.956,355.967 298.984,355.826 299.209,354.768 299.212,354.753 299.424,353.769 299.584,352.93 299.676,352.259 299.705,351.709 299.703,351.641 " fill="none" stroke-width="0.5" stroke="rgb(0,0,0)" />
	<polygon points="156.944,222.988 156.85,223.156 155.65,225.191 154.608,227.005 153.875,228.51 153.56,229.461 154.072,229.678 155.774,233.651 155.713,235.078 155.699,235.301 155.54,237.123 155.53,237.228 155.305,239.3 155.299,239.348 155.042,241.524 155.041,241.535 154.785,243.658 154.566,245.552 154.422,247.014 154.379,247.831 154.415,249.002 154.457,249.356 156.629,250.8 157.506,252.515 157.971,254.139 158.066,254.527 158.431,256.338 158.473,256.579 158.765,258.508 158.783,258.642 159.028,260.62 159.033,260.666 159.255,262.605 159.473,264.383 159.7,265.877 159.783,266.265 161.646,266.993 163.115,269.019 163.656,270.396 164.225,271.834 164.818,273.244 165.44,274.573 166.086,275.762 166.736,276.75 167.352,277.486 168.223,278.255 168.469,278.467 168.821,278.804 169.091,279.088 169.374,279.412 169.636,279.74 169.887,280.082 170.13,280.445 170.366,280.837 170.577,281.224 170.805,281.703 170.971,282.104 171.179,282.719 171.288,283.124 171.434,283.932 171.473,284.331 171.422,285.678 171.214,286.867 170.784,288.196 170.21,289.374 169.674,290.237 168.81,291.357 168.282,291.941 167.203,292.958 166.679,293.39 165.461,294.26 164.89,294.612 163.608,295.29 162.907,295.594 161.637,296.033 160.658,296.265 159.475,296.422 158.404,296.448 158.048,296.418 157.204,296.274 156.798,296.168 155.958,295.868 155.511,295.661 154.755,295.228 154.276,294.895 153.655,294.385 153.155,293.901 152.683,293.376 152.17,292.716 151.829,292.218 151.312,291.357 151.074,290.91 150.713,290.141 150.428,289.706 149.624,288.861 148.22,287.576 146.537,286.094 146.48,286.043 145.004,284.703 150.691,292.862 150.78,292.993 156.516,301.805 156.797,302.294 160.854,310.397 161.276,311.605 162.815,318.91 162.903,320.384 162.651,323.224 162.502,324.069 161.751,326.884 161.46,327.692 160.222,330.373 159.772,331.154 158.058,333.591 157.423,334.328 155.242,336.413 154.409,337.056 151.772,338.68 150.768,339.153 147.686,340.207 146.599,340.448 145.75,340.539 148.048,341.139 148.709,341.362 151.3,342.444 151.966,342.782 154.426,344.273 155.024,344.698 157.373,346.644 157.857,347.102 160.116,349.547 160.477,349.986 162.667,352.976 162.994,353.485 164.766,356.647 165.014,357.158 163.536,352.66 163.318,351.664 162.575,345.141 162.545,344.412 162.604,342.629 162.627,342.287 162.806,340.523 162.861,340.131 163.167,338.453 163.282,337.966 163.721,336.442 163.956,335.797 164.534,334.495 165.035,333.618 165.759,332.605 166.825,331.513 167.701,330.855 169.598,329.977 170.632,329.743 172.251,329.646 173.159,329.74 173.725,329.864 173.088,329.212 172.494,328.475 168.929,323.078 168.439,322.128 166.139,316.194 165.842,315.026 165.027,308.691 164.994,307.787 165.162,304.629 165.219,304.098 165.711,301.051 165.822,300.537 166.617,297.613 166.778,297.123 167.855,294.334 168.06,293.876 169.399,291.234 169.64,290.81 171.22,288.328 171.493,287.94 173.294,285.628 173.595,285.277 175.595,283.148 177.772,281.961 175.835,280.646 175.328,280.252 171.213,276.607 170.423,275.719 167.513,271.533 166.744,269.794 165.641,264.968 165.709,262.473 166.85,258.499 167.805,256.691 170.814,253.056 171.516,252.361 175.77,248.91 176.049,248.699 180.893,245.303 185.527,241.935 189.172,238.662 191.296,235.662 192.055,232.448 192.052,232.387 191.967,231.641 191.814,230.749 191.595,229.773 191.315,228.763 190.983,227.77 190.61,226.839 190.126,225.833 190.001,224.883 189.983,225.506 189.496,229.379 189.182,230.6 187.835,233.994 187.308,234.982 185.272,237.942 184.701,238.631 182.15,241.202 181.65,241.643 178.754,243.871 178.367,244.141 175.299,246.07 175.034,246.226 171.966,247.901 171.829,247.973 168.933,249.441 165.846,249.912 163.082,248.46 161.718,245.651 161.782,243.941 162.026,242.797 162.239,241.691 162.427,240.584 162.588,239.475 162.718,238.365 162.814,237.253 162.873,236.139 162.893,235.096 162.79,233.003 162.468,230.971 161.88,228.917 160.971,226.814 159.667,224.635 157.883,222.362 157.493,221.97 " fill="none" stroke-width="0.5" stroke="rgb(0,0,0)" />
	<polygon points="386.05,306.955 384.971,308.162 383.853,309.744 382.792,311.595 381.859,313.607 381.164,315.514 380.917,316.785 380.706,319.091 380.53,322.071 380.342,325.256 380.332,325.396 380.07,328.401 380.026,328.757 379.622,331.279 379.4,332.153 378.787,333.889 377.239,335.962 378.838,337.105 379.55,337.723 382.037,340.332 382.661,341.138 384.49,344.075 384.961,345.054 386.091,348.254 386.344,349.354 386.73,352.75 386.742,353.762 386.554,355.854 389.494,352.458 390.063,351.897 394.675,348.033 395.874,347.288 401.784,344.69 401.153,344.263 400.024,343.175 399.647,342.768 398.37,341.23 398.257,341.089 396.906,339.337 395.615,337.682 395.508,337.557 394.846,338.129 393.636,339.182 393.486,339.308 392.338,340.231 391.898,340.546 390.876,341.199 389.605,341.78 388.77,342.027 386.728,342.195 386.54,342.172 385.334,341.864 385.165,341.798 384.143,341.253 383.995,341.15 383.209,340.474 383.083,340.341 382.513,339.613 382.411,339.455 382.017,338.712 381.942,338.536 381.688,337.775 381.641,337.588 381.512,336.797 381.496,336.604 381.542,335.402 381.82,333.667 382.025,332.843 382.758,330.694 382.871,330.394 383.908,327.894 383.926,327.85 385.087,325.123 386.195,322.308 387.111,319.491 387.718,316.76 387.947,314.011 387.921,312.6 387.809,310.793 387.581,308.96 387.232,307.327 386.861,306.283 " fill="none" stroke-width="0.5" stroke="rgb(0,0,0)" />
	<polygon points="55.4968,335.766 56.3603,342.846 59.9756,348.66 64.7798,353.414 64.2913,351.286 64.1649,350.219 64.1396,347.756 64.252,346.65 64.7434,344.374 65.0737,343.372 66.0021,341.316 66.4864,340.473 67.7723,338.667 68.2921,338.061 66.3883,337.827 65.9495,337.753 63.0792,337.137 62.4047,336.942 59.936,336.035 59.0889,335.631 56.9481,334.347 56.147,333.747 " fill="none" stroke-width="0.5" stroke="rgb(0,0,0)" />
	<polygon points="321.199,324.415 319.898,325.301 318.903,325.777 318.959,325.829 319.707,326.694 320.314,327.585 320.877,328.68 321.205,329.576 321.479,330.736 321.578,331.611 321.574,332.759 321.417,334.082 321.087,335.368 320.645,336.46 319.955,337.656 319.271,338.535 318.381,339.421 317.498,340.103 316.615,340.648 315.576,341.149 314.809,341.444 313.657,341.782 313.021,341.924 311.799,342.114 311.268,342.168 310.019,342.228 309.659,342.232 308.728,342.21 308.542,342.202 308.254,342.184 310.576,342.766 311.386,343.044 314.281,344.326 315.06,344.758 317.522,346.425 318.247,347.022 318.329,347.104 318.513,345.036 318.623,344.348 319.272,341.554 319.388,341.136 320.306,338.322 320.373,338.129 321.425,335.302 322.439,332.567 323.257,330.037 323.78,327.751 323.969,325.581 323.946,324.98 323.863,324.279 323.722,323.595 323.516,322.914 323.236,322.223 323.097,321.951 " fill="none" stroke-width="0.5" stroke="rgb(0,0,0)" />
	<polygon points="123.62,321.477 122.839,322.059 120.91,323.222 119.969,323.663 117.834,324.404 117.433,324.495 119.211,325.715 119.93,326.314 121.474,327.869 122.066,328.588 123.312,330.427 123.767,331.26 124.659,333.339 124.955,334.272 125.438,336.548 125.546,337.632 125.526,339.87 125.422,340.84 124.985,342.946 124.694,343.878 124.539,344.245 124.692,344.112 126.386,342.92 127.078,342.513 129.059,341.55 129.69,341.295 131.869,340.583 132.474,340.426 134.762,339.984 135.383,339.904 136.481,339.831 135.226,339.426 134.259,338.996 131.951,337.662 131.125,337.064 129.218,335.362 128.565,334.656 127.069,332.684 126.585,331.908 125.506,329.764 125.175,328.927 124.522,326.706 124.344,325.792 124.124,323.591 124.117,322.68 124.254,321.028 124.278,320.879 " fill="none" stroke-width="0.5" stroke="rgb(0,0,0)" />
	<polygon points="300.462,341.748 300.008,341.795 300.194,342.145 300.462,341.909 301.647,341.714 301.595,341.712 " fill="none" stroke-width="0.5" stroke="rgb(0,0,0)" />
	<polygon points="219.128,340.628 219.373,340.48 220.251,339.685 220.378,339.488 220.322,339.279 219.628,338.475 " fill="none" stroke-width="0.5" stroke="rgb(0,0,0)" />
	<polygon points="355.867,333.573 356.352,332.475 355.766,332.318 355.647,332.277 355.116,332.044 " fill="none" stroke-width="0.5" stroke="rgb(0,0,0)" />
	<polygon points="204.261,318.049 203.849,321.262 204.05,323.527 204.651,325.704 205.611,327.678 206.91,329.43 208.534,330.939 210.47,332.168 208.431,330.262 207.554,329.177 205.713,326.102 205.079,324.405 204.381,320.46 204.318,319.219 204.408,318.008 204.486,317.423 204.495,317.377 " fill="none" stroke-width="0.5" stroke="rgb(0,0,0)" />
	<polygon points="365.013,329.569 363.589,330.422 363.48,330.486 363.153,330.671 365.646,331.013 366.375,331.169 366.461,331.195 366.454,331.171 366.376,330.882 365.951,329.106 365.931,329.03 " fill="none" stroke-width="0.5" stroke="rgb(0,0,0)" />
	<polygon points="74.4594,306.988 72.8818,311.369 71.9018,315.126 71.5684,318.214 71.6036,319.462 71.7468,320.818 72.0199,322.107 72.4638,323.396 73.1451,324.763 74.1534,326.268 75.4254,327.756 75.5266,327.385 76.2874,325.361 76.7074,324.503 77.8117,322.705 78.395,321.934 79.8127,320.395 80.5333,319.751 82.2344,318.504 83.0549,318.015 85.0091,317.092 85.885,316.774 88.0624,316.207 88.9935,316.056 91.4273,315.896 92.4437,315.932 94.6907,316.244 95.678,316.486 97.7202,317.211 98.6008,317.625 100.42,318.706 101.155,319.239 102.733,320.618 103.319,321.224 104.638,322.842 104.758,323.017 105.252,322.872 105.574,322.788 105.805,322.736 104.906,322.184 104.031,321.501 102.676,320.178 102.027,319.402 101.016,317.906 100.58,317.116 99.8881,315.541 99.62,314.761 99.2229,313.198 99.0878,312.4 99.0322,311.76 97.3085,312.753 96.2929,313.197 93.7784,313.976 92.7737,314.177 90.0861,314.434 89.1285,314.433 87.3705,314.263 86.4338,314.081 84.7301,313.576 83.8448,313.219 82.2508,312.392 81.4353,311.862 80.0063,310.721 79.292,310.023 78.0834,308.579 77.5128,307.736 76.5798,306 76.1928,305.062 75.8186,303.808 " fill="none" stroke-width="0.5" stroke="rgb(0,0,0)" />
	<polygon points="370.532,298.834 369.745,299.232 366.344,300.589 365.923,300.736 361.853,301.951 361.574,302.026 357.234,303.054 357.006,303.102 352.795,303.894 352.556,303.933 348.871,304.443 348.512,304.48 345.753,304.66 344.974,304.65 344.381,304.597 343.388,304.399 343.505,305 343.581,306.361 343.48,307.606 343.306,308.568 342.992,309.674 342.531,310.775 341.987,311.733 341.202,312.773 340.412,313.575 339.442,314.343 338.39,314.98 337.449,315.425 337.363,315.455 339.921,316.629 340.652,317.042 345.511,320.354 346.171,320.892 350.188,324.778 350.752,325.426 352.019,327.163 352.07,326.022 352.288,325.036 352.591,324.107 353.166,322.796 353.338,322.442 354.151,320.927 354.235,320.776 355.166,319.174 355.189,319.135 355.284,318.976 355.074,318.924 352.982,318.427 352.769,318.372 350.921,317.846 350.216,317.587 348.909,316.992 346.878,315.299 346.382,314.587 345.487,311.595 345.94,309.645 346.144,309.201 347.765,307.229 348.337,306.817 349.27,306.286 350.154,305.903 350.648,305.719 351.786,305.362 352.074,305.281 353.408,304.949 353.587,304.908 355.06,304.598 355.173,304.575 356.728,304.285 356.796,304.273 358.232,304.026 361.351,303.299 364.584,302.207 367.798,300.764 370.742,299.039 372.848,297.395 " fill="none" stroke-width="0.5" stroke="rgb(0,0,0)" />
	<polygon points="126.093,287.738 126.152,287.915 128.111,294.131 128.218,294.527 129.603,300.635 129.708,301.303 130.233,307.273 130.23,308.192 130,310.574 129.886,311.165 131.233,310.462 131.711,310.303 133.765,310.071 133.945,310.088 135.22,310.383 135.37,310.439 136.818,311.28 136.939,311.381 137.983,312.579 138.078,312.731 138.575,313.786 138.645,313.995 138.829,314.724 138.877,314.997 138.936,315.462 138.963,315.804 138.977,316.096 138.982,316.326 139.012,316.633 139.041,316.737 139.102,316.863 139.179,316.967 139.257,317.037 139.355,317.095 139.547,317.156 139.953,317.197 140.32,317.164 140.568,317.092 140.716,317.015 140.809,316.939 140.88,316.852 140.945,316.728 140.994,316.558 140.012,311.959 137.024,305.758 132.421,298.045 127.013,289.174 126.902,288.984 125.865,287.101 " fill="none" stroke-width="0.5" stroke="rgb(0,0,0)" />
	<polygon points="400.612,302.671 401.207,304.535 402.229,306.583 403.63,308.69 405.332,310.74 407.239,312.637 409.246,314.292 411.384,315.725 412.38,316.334 413.523,316.967 413.78,317.103 413.639,316.871 413.551,316.72 411.745,313.506 409.589,310.007 407.112,306.724 404.411,304.118 401.643,302.516 400.571,302.313 " fill="none" stroke-width="0.5" stroke="rgb(0,0,0)" />
	<polygon points="438.443,309.374 438.304,309.523 437.335,310.329 437.147,310.45 436.287,310.888 436.049,310.981 435.389,311.19 435.102,311.259 434.62,311.35 434.284,311.397 433.938,311.433 433.553,311.459 433.306,311.47 432.872,311.478 432.63,311.477 431.861,311.455 431.658,311.445 430.811,311.385 430.699,311.376 429.796,311.292 429.749,311.288 428.814,311.192 427.893,311.1 427.032,311.024 426.895,311.015 426.863,312.774 426.858,312.936 426.767,314.738 426.72,315.219 426.593,316.075 428.221,315.198 429.14,314.815 431.297,314.16 432.265,313.968 434.569,313.743 435.235,313.722 437.276,313.796 437.667,313.826 438.523,313.924 438.453,312.501 438.463,311.862 438.658,309.403 438.731,308.956 " fill="none" stroke-width="0.5" stroke="rgb(0,0,0)" />
	<polygon points="311.861,302.523 311.189,303.064 306.599,306.148 305.688,306.632 301.752,308.226 304.212,307.977 304.927,307.956 307.74,308.075 308.171,308.112 310.81,308.453 311.268,308.534 313.671,309.076 314.189,309.223 316.294,309.943 316.919,310.206 317.513,310.504 316.303,308.967 315.675,307.934 314.802,306.002 314.41,304.661 314.094,302.487 314.077,301.18 314.181,300.299 " fill="none" stroke-width="0.5" stroke="rgb(0,0,0)" />
	<polygon points="434.925,288.91 434.67,289.741 434.18,290.842 433.507,291.965 433.286,292.301 432.335,293.633 432.269,293.723 431.199,295.153 430.202,296.521 430.11,296.662 430.248,296.754 432.026,297.761 433.951,298.8 434.067,298.865 435.772,299.845 436.242,300.151 437.427,301.022 438.837,302.625 439.245,303.36 439.645,305.45 439.651,305.433 440.608,303.272 440.919,302.717 439.812,302.045 438.827,300.242 436.863,293.744 434.989,288.312 " fill="none" stroke-width="0.5" stroke="rgb(0,0,0)" />
	<polygon points="108.067,291.993 108.056,292.321 107.779,296.528 107.673,297.274 106.881,300.875 106.741,301.318 108.119,301.423 108.403,301.58 110.33,303.501 110.563,303.916 110.65,304.093 110.78,303.634 110.933,302.541 110.989,301.146 110.667,296.459 109.814,291.993 108.558,287.513 108.067,286.013 " fill="none" stroke-width="0.5" stroke="rgb(0,0,0)" />
	<polygon points="372.876,297.373 373.18,297.135 374.111,296.098 " fill="none" stroke-width="0.5" stroke="rgb(0,0,0)" />
	<polygon points="458.429,286.778 457.148,287.37 455.835,288.458 454.419,290.169 452.935,292.463 451.554,294.91 452.089,294.796 454.797,294.521 456.099,294.559 459.287,295.072 460.712,295.529 462.635,296.482 462.461,294.986 462.488,294.86 462.491,294.834 462.501,294.737 462.511,294.573 462.52,294.35 462.525,294.073 462.527,293.747 462.527,293.5 462.451,291.952 462.232,290.456 461.868,289.05 461.397,287.892 460.91,287.11 460.538,286.739 460.321,286.623 459.954,286.564 " fill="none" stroke-width="0.5" stroke="rgb(0,0,0)" />
	<polygon points="337.466,293.906 338.726,295.633 338.893,295.132 339.23,294.384 339.388,294.064 339.827,293.251 338.877,293.185 336.98,293.148 " fill="none" stroke-width="0.5" stroke="rgb(0,0,0)" />
	<polygon points="374.165,286.441 374.922,287.738 375.739,289.798 375.419,294.145 374.612,295.54 374.911,295.206 375.858,293.435 376.169,291.676 375.904,289.503 375.141,287.549 373.901,285.726 372.169,283.955 372.14,283.932 " fill="none" stroke-width="0.5" stroke="rgb(0,0,0)" />
	<polygon points="54.0126,274.119 53.7461,275.354 53.7332,276.741 54.0414,278.204 54.8684,279.972 55.2,280.496 55.6723,281.225 55.7052,281.276 56.1503,281.982 56.2528,282.152 56.6443,282.831 56.8104,283.144 57.1361,283.815 57.3371,284.289 57.5849,284.97 57.7673,285.596 57.9249,286.305 58.0305,287.025 58.0858,287.782 58.0387,288.921 57.6976,291.097 57.4762,291.977 56.7026,294.183 58.8857,291.004 61.4032,286.37 62.2207,282.81 62.1736,282.493 62.0982,282.208 61.9955,281.949 61.8501,281.681 61.6354,281.377 61.3203,281.021 60.7151,280.461 60.7034,280.45 58.7814,278.66 58.4853,278.359 56.9713,276.689 56.7867,276.474 55.5639,274.96 55.5376,274.927 54.5926,273.738 54.3135,273.43 " fill="none" stroke-width="0.5" stroke="rgb(0,0,0)" />
	<polygon points="89.2164,276.838 89.1499,276.978 86.2363,282.854 86.1938,282.938 83.8386,287.473 82.2402,290.558 83.1986,290.529 83.7146,290.686 85.368,291.555 85.8896,291.97 86.3746,292.41 86.9396,292.995 87.4383,293.511 87.754,293.785 87.9118,293.884 87.9947,293.915 88.1556,293.933 89.2013,293.789 89.5076,293.625 89.8516,293.208 90.3987,291.876 90.9015,289.431 91.2309,285.974 91.3874,281.616 91.4244,276.404 91.4314,276.172 91.6844,271.448 " fill="none" stroke-width="0.5" stroke="rgb(0,0,0)" />
	<polygon points="420.384,263.609 419.929,264.945 419.778,265.332 419.134,266.807 419.058,266.972 418.32,268.509 418.31,268.528 418.186,268.784 419.813,269.143 420.037,269.198 421.661,269.636 422.354,269.878 423.503,270.378 425.546,272.013 425.982,272.609 426.945,275.579 426.352,277.921 425.885,278.792 423.839,280.838 422.565,281.52 421.603,281.913 419.712,282.464 419.321,282.561 417.003,283.038 416.882,283.061 414.356,283.516 411.902,283.989 409.808,284.499 408.141,285.091 406.776,285.725 405.583,286.388 404.664,287.016 404.026,287.571 403.905,287.711 403.998,287.727 405.245,287.825 406.657,287.854 410.361,287.617 413.69,287.003 416.757,286.118 419.546,285.076 422.052,283.99 424.226,283.002 424.402,282.926 426.142,282.214 426.972,281.957 428.212,281.686 429.694,281.59 429.881,281.605 430.773,281.762 430.942,281.808 431.869,282.162 432.018,282.236 432.794,282.733 432.391,281.728 429.796,276.253 426.924,271.205 423.748,266.629 420.552,262.924 " fill="none" stroke-width="0.5" stroke="rgb(0,0,0)" />
	<polygon points="391.434,268.825 391.432,268.829 390.837,271.33 390.347,273.662 390.026,275.778 389.911,277.706 389.96,278.885 390.115,280.049 390.356,281.039 390.632,281.735 391.13,281.014 391.655,279.922 392.094,278.562 392.384,277.025 392.494,275.283 392.448,273.039 392.319,270.822 392.135,268.737 391.92,266.79 391.918,266.78 " fill="none" stroke-width="0.5" stroke="rgb(0,0,0)" />
	<polygon points="341.87,271.024 339.077,272.585 337.836,273.922 337.388,275.69 337.441,276.097 337.592,276.434 337.829,276.71 338.318,277.05 339.119,277.398 340.164,277.675 341.324,277.84 342.273,277.883 342.257,277.695 342.197,277.091 342.133,276.476 342.13,276.438 342.073,275.848 342.064,275.737 342.024,275.192 342.013,274.981 341.998,274.492 342.017,273.875 342.041,273.612 342.209,272.714 342.281,272.46 342.608,271.608 342.725,271.371 343.218,270.572 343.298,270.465 " fill="none" stroke-width="0.5" stroke="rgb(0,0,0)" />
	<polygon points="133.191,217.1 129.052,218.411 126.182,219.705 126.673,219.546 129.635,220.534 131.433,223.087 131.098,226.831 129.958,229.049 129.113,231.187 128.431,233.443 127.905,235.749 127.526,238.039 127.279,240.244 127.145,242.294 127.112,243.824 128.519,253.907 132.253,263.815 137.721,273.736 140.336,277.699 140.145,275.458 140.839,274.096 140.828,274.092 140.848,274.036 140.739,273.415 140.242,272.303 139.216,270.592 137.857,268.504 137.786,268.392 136.376,266.096 136.171,265.728 134.941,263.284 134.664,262.619 133.794,260.011 133.572,259.017 133.242,256.229 133.862,253.169 134.904,252.139 134.82,251.356 134.418,249.691 133.751,247.531 132.933,245.074 132.921,245.038 132.085,242.463 132.032,242.29 131.304,239.733 131.219,239.388 130.703,236.93 130.615,236.332 130.419,234.055 131.137,231.016 133.517,228.995 133.667,228.964 133.745,227.973 133.767,227.764 134.067,225.296 134.108,225.023 134.568,222.445 134.641,222.102 135.299,219.489 135.426,219.066 136.321,216.495 136.322,216.492 " fill="none" stroke-width="0.5" stroke="rgb(0,0,0)" />
	<polygon points="309.501,270.286 311.31,271.74 311.729,272.118 313.381,273.785 313.495,273.904 314.956,275.479 315.244,275.76 314.964,274.651 313.288,272.72 309.936,270.467 308.901,269.898 " fill="none" stroke-width="0.5" stroke="rgb(0,0,0)" />
	<polygon points="350.802,267.609 350.379,267.789 349.504,268.113 349.835,268.145 351.917,268.769 352.873,269.168 353.228,269.361 353.219,269.33 353.34,266.393 " fill="none" stroke-width="0.5" stroke="rgb(0,0,0)" />
	<polygon points="360.108,244.599 358.319,246.074 357.526,246.61 355.476,247.724 354.575,248.105 352.312,248.81 351.951,248.884 352.508,249.098 354.953,249.7 358.081,249.96 360.956,251.177 362.549,253.863 362.164,257.128 360.42,260.716 359.644,261.698 359.803,261.675 360.781,261.573 361.032,261.554 362.015,261.502 362.174,261.496 363.083,261.477 363.171,261.476 363.908,261.473 364.008,261.472 363.995,261.291 363.994,261.277 363.93,260.295 363.927,260.249 363.87,259.253 363.867,259.173 363.827,258.188 363.823,258.065 363.808,257.119 363.808,256.971 363.817,256.333 363.822,256.157 363.851,255.564 363.87,255.31 363.924,254.775 363.976,254.4 364.059,253.935 364.196,253.362 364.311,252.979 364.682,252.08 364.836,251.791 365.84,250.481 366.035,250.299 366.375,250.112 365.541,249.765 364.424,249.167 363.626,248.637 362.637,247.832 361.951,247.154 361.124,246.161 360.572,245.349 360.145,244.563 " fill="none" stroke-width="0.5" stroke="rgb(0,0,0)" />
	<polygon points="443.91,248.63 444.796,250.949 445.973,253.866 445.975,253.871 447.329,257.236 447.355,257.301 448.593,260.509 449.497,258.804 449.56,258.69 451.242,255.709 451.287,255.63 452.439,253.671 451.553,253.223 451.382,253.132 447.926,251.214 447.633,251.038 444.156,248.783 443.897,248.595 " fill="none" stroke-width="0.5" stroke="rgb(0,0,0)" />
	<polygon points="382.054,240.95 381.869,241.906 381.479,243.22 381.098,244.149 380.479,245.312 379.913,246.155 379.088,247.148 378.367,247.856 377.362,248.661 376.526,249.203 375.365,249.801 374.461,250.16 373.763,250.361 374.037,250.524 375.127,251.493 375.677,252.067 376.796,253.438 377.002,253.709 378.115,255.28 378.165,255.352 378.494,255.834 378.811,255.502 380.027,254.225 380.219,254.034 381.406,252.914 381.961,252.462 383.087,251.67 384.574,250.957 385.613,250.657 387.429,250.478 387.729,250.504 388.821,250.722 389.076,250.803 390.361,251.427 390.572,251.57 391.67,252.583 391.838,252.793 392.494,253.864 392.623,254.148 392.92,255.011 393.01,255.374 393.015,255.401 393.049,255.357 393.229,255.173 394.171,254.417 394.379,254.288 395.459,253.786 395.691,253.71 396.754,253.486 397.006,253.462 399.25,253.755 400.227,254.121 401.787,255.058 402.753,255.913 403.313,256.495 404.275,257.673 404.456,257.909 405.41,259.23 406.063,260.122 406.417,259.885 407.617,258.96 408.893,257.932 408.99,257.856 410.198,256.932 410.592,256.659 411.362,256.179 407.428,254.67 402.037,253.156 396.648,251.651 396.164,251.489 391.352,249.599 390.3,249.032 386.423,246.3 385.095,244.914 382.508,240.884 382.148,239.944 " fill="none" stroke-width="0.5" stroke="rgb(0,0,0)" />
	<polygon points="314.396,222.476 312.705,223.404 311.809,223.787 309.951,224.374 308.958,224.581 306.976,224.786 306.236,224.786 306.32,224.928 307.488,228.541 309.011,230.254 311.607,231.798 315.205,233.361 315.389,233.446 319.189,235.283 320.087,235.841 323.352,238.387 324.567,239.76 326.852,243.575 327.505,245.391 327.652,246.357 327.973,246.039 328.843,245.35 329.96,244.652 330.812,244.227 331.981,243.777 332.749,243.549 333.898,243.308 334.587,243.212 335.385,243.158 334.543,242.139 334.007,241.345 332.893,239.297 332.511,238.395 331.807,236.135 331.606,235.152 331.36,232.728 331.36,232.661 331.088,232.777 329.776,233.185 328.795,233.385 327.389,233.527 326.378,233.527 324.983,233.384 323.997,233.182 322.694,232.774 321.793,232.391 320.611,231.746 319.819,231.21 318.787,230.356 318.117,229.686 317.263,228.651 316.728,227.859 316.083,226.673 315.701,225.772 315.292,224.463 315.091,223.478 314.951,222.1 " fill="none" stroke-width="0.5" stroke="rgb(0,0,0)" />
	<polygon points="103.113,232.487 103.184,233.897 103.168,234.625 102.777,238.721 102.686,239.305 102.347,240.872 102.684,240.319 103.073,239.77 106.49,235.573 104.029,234.102 103.064,232.032 " fill="none" stroke-width="0.5" stroke="rgb(0,0,0)" />
	<polygon points="409.778,231.93 412.455,235.543 414.903,237.886 418.27,240.599 415.702,237.593 409.709,230.732 409.556,230.547 408.263,228.915 " fill="none" stroke-width="0.5" stroke="rgb(0,0,0)" />
	<polygon points="463.411,212.838 463.427,213.143 463.445,213.946 463.439,214.309 463.312,216.829 463.282,217.177 462.945,219.958 462.917,220.156 462.441,223.097 462.425,223.193 461.879,226.194 461.877,226.206 461.338,229.129 460.884,231.819 460.583,234.124 460.485,235.844 460.572,236.963 460.812,238.026 461.182,239.015 461.455,239.524 462.336,238.54 463.87,236.341 465.325,233.678 466.519,230.737 467.306,227.701 467.581,224.757 466.995,219.508 465.496,215.405 463.358,212.198 " fill="none" stroke-width="0.5" stroke="rgb(0,0,0)" />
	<polygon points="380.616,195.858 380.466,197.33 380.262,198.319 379.831,199.694 379.447,200.595 378.766,201.842 378.23,202.632 377.329,203.721 376.661,204.388 375.57,205.289 375.346,205.441 376.678,206.162 377.476,206.7 378.691,207.701 379.367,208.377 380.37,209.591 380.909,210.389 381.665,211.783 382.046,212.687 382.524,214.228 382.724,215.208 382.89,216.863 382.89,217.863 382.724,219.523 382.525,220.502 382.047,222.047 381.667,222.95 380.911,224.347 380.372,225.146 379.37,226.362 378.694,227.038 377.478,228.041 376.679,228.58 375.971,228.964 376.551,229.267 377.348,229.784 378.353,230.582 379.04,231.244 379.864,232.205 380.421,233.001 380.963,233.96 380.84,233.203 380.787,232.049 380.922,230.121 380.982,229.626 381.339,227.544 381.395,227.269 381.9,225.072 381.928,224.957 382.504,222.695 383.063,220.473 383.521,218.395 383.817,216.53 383.924,214.829 383.916,214.469 383.884,214.067 383.836,213.728 383.777,213.453 383.712,213.241 383.648,213.084 383.587,212.969 383.372,212.649 382.524,209.644 383.624,206.722 386.244,205.022 389.706,205.36 395.013,207.941 396.001,208.574 399.633,211.56 400.509,212.491 402.195,214.82 402.855,213.499 407.151,212.073 413.883,213.084 414.446,213.202 419.904,214.679 420.784,215.009 425.229,217.17 426.235,217.819 429.928,220.883 430.706,221.692 433.91,225.878 434.342,226.546 434.356,226.573 434.608,225.687 436.353,221.627 436.832,220.761 439.355,217.107 439.83,216.52 442.814,213.351 443.257,212.935 446.388,210.332 446.827,210.006 449.788,208.047 450.316,207.743 452.791,206.509 453.781,206.141 453.841,206.125 452.685,205.794 451.438,205.648 450.617,205.786 448.738,206.463 445.892,207.647 445.801,207.684 442.212,209.094 441.938,209.193 437.628,210.603 437.241,210.713 432.12,211.944 431.667,212.031 425.645,212.901 425.165,212.947 418.151,213.277 417.283,213.242 404.518,211.612 403.171,211.243 392.884,206.806 391.705,206.09 383.657,199.528 382.827,198.667 380.616,195.74 " fill="none" stroke-width="0.5" stroke="rgb(0,0,0)" />
	<polygon points="47.3156,225.793 46.8732,225.98 44.3457,226.91 43.7758,227.082 41.6909,227.577 42.1786,227.673 42.627,227.81 43.7494,228.313 44.1119,228.533 45.1215,229.339 45.4044,229.633 46.1246,230.585 46.334,230.944 46.7474,231.851 46.8893,232.268 47.0831,233.027 47.1243,233.265 47.2939,232.426 47.4024,231.991 49.1349,226.169 49.5738,225.136 49.907,224.546 " fill="none" stroke-width="0.5" stroke="rgb(0,0,0)" />
	<polygon points="85.5806,211.096 83.9956,212.799 83.4306,213.175 82.9859,213.438 82.3392,213.777 82.3262,213.783 82.9089,214.03 84.0476,214.701 84.619,215.149 85.445,215.97 85.9078,216.551 86.4357,217.366 86.7919,218.054 87.1028,218.795 87.3546,219.563 87.5227,220.225 87.6722,221.047 87.7446,221.652 87.794,222.499 87.7669,223.385 87.3093,227.203 87.2001,227.802 87.0383,228.46 87.0662,228.414 87.7779,227.348 88.1656,226.841 88.8939,226.005 89.4991,225.418 90.2357,224.816 91.1843,224.205 91.9212,223.841 93.3096,223.392 94.0385,223.269 95.5632,223.249 96.207,223.34 97.5491,223.726 98.1608,223.999 99.276,224.685 99.839,225.143 100.641,225.965 101.139,226.609 101.656,227.432 102.072,228.265 102.374,229.017 102.588,229.708 102.52,229.148 102.509,229.05 102.435,228.322 102.425,228.219 102.368,227.507 102.36,227.399 102.319,226.703 102.313,226.589 102.288,225.909 102.286,225.789 102.277,225.125 102.291,224.693 102.593,220.616 102.704,219.878 103.545,216.177 103.757,215.482 105.037,212.175 105.334,211.542 105.568,211.123 105.497,211.17 104.413,211.72 101.834,212.654 100.679,212.923 97.6808,213.253 96.579,213.252 93.3898,212.896 92.2683,212.637 89.4041,211.618 88.3811,211.116 85.8952,209.521 " fill="none" stroke-width="0.5" stroke="rgb(0,0,0)" />
	<polygon points="63.2726,215.105 60.8876,217.081 62.2522,217.474 62.8965,217.77 64.1658,218.607 64.6827,219.074 65.5286,220.07 65.9284,220.69 66.3851,221.583 66.678,222.333 66.8951,223.039 67.0916,223.9 67.1836,224.436 67.2939,225.387 67.3244,225.795 67.3589,226.815 67.3546,227.25 67.3149,227.995 69.4997,222.616 69.8215,221.964 72.4861,217.43 74.1014,215.753 74.6849,215.379 74.5566,215.383 74.0007,215.368 71.7706,215.182 70.9187,215.036 68.847,214.494 67.9877,214.183 66.1173,213.305 65.2841,212.81 64.731,212.404 " fill="none" stroke-width="0.5" stroke="rgb(0,0,0)" />
	<polygon points="338.313,211.394 337.508,211.933 335.694,212.909 335.307,213.07 335.68,213.443 336.537,214.478 337.074,215.271 337.722,216.458 338.105,217.361 338.433,218.41 338.477,218.375 339.271,217.838 341.32,216.723 341.828,216.509 341.672,216.379 341,215.707 340.144,214.671 339.608,213.878 338.961,212.69 338.58,211.788 338.428,211.3 " fill="none" stroke-width="0.5" stroke="rgb(0,0,0)" />
	<polygon points="56.9547,202.139 56.6015,202.454 54.8213,203.9 54.4062,204.203 52.6193,205.372 52.1362,205.651 50.3575,206.549 49.8017,206.789 48.0463,207.422 47.4169,207.604 45.6995,207.98 45.002,208.081 43.3378,208.205 42.4639,208.194 40.3728,207.982 39.3262,207.762 37.4017,207.134 36.3808,206.669 36.0822,206.49 37.3071,207.362 38.6625,208.051 40.0559,208.511 41.5867,208.782 43.3779,208.876 44.8515,208.836 46.4835,208.713 48.2273,208.508 50.0936,208.224 52.0916,207.865 54.2298,207.434 56.5166,206.938 58.9742,206.379 59.7679,206.454 59.4995,205.842 58.8621,203.826 58.6537,202.81 58.4429,200.676 " fill="none" stroke-width="0.5" stroke="rgb(0,0,0)" />
	<polygon points="361.744,206.864 361.939,206.703 362.612,206.249 361.825,205.816 361.623,205.679 " fill="none" stroke-width="0.5" stroke="rgb(0,0,0)" />
	<polygon points="113.844,199.965 113.622,200.715 113.219,201.764 114.134,201.057 114.763,200.642 116.194,199.846 114.466,199.114 114.144,198.555 " fill="none" stroke-width="0.5" stroke="rgb(0,0,0)" />
	<polygon points="124.13,196.202 123.495,196.298 123.04,196.424 122.769,196.544 122.655,196.62 122.631,196.644 122.617,196.664 122.393,197.22 121.828,197.889 122.555,197.755 122.82,197.714 124.003,197.561 124.229,197.537 125.452,197.435 125.642,197.423 126.902,197.367 127.059,197.362 128.354,197.345 128.551,197.346 130.321,197.391 129.217,196.946 126.95,196.367 124.804,196.171 " fill="none" stroke-width="0.5" stroke="rgb(0,0,0)" />
	<polygon points="355.822,195.362 354.923,195.744 353.451,196.205 354.006,196.379 354.906,196.76 356.093,197.407 356.192,197.473 356.162,197.331 356.011,195.859 356.012,195.258 " fill="none" stroke-width="0.5" stroke="rgb(0,0,0)" />
	<polygon points="313.631,196.434 313.187,196.572 313.681,196.843 313.726,196.393 " fill="none" stroke-width="0.5" stroke="rgb(0,0,0)" />
	<polygon points="344.665,196.773 344.692,196.759 345.479,196.426 345.356,196.4 344.605,196.164 " fill="none" stroke-width="0.5" stroke="rgb(0,0,0)" />
	<polygon points="61.6087,189.62 59.8345,190.059 59.5249,190.126 58.6487,190.284 59.1946,190.368 60.4986,191.678 60.5464,191.581 61.8142,189.563 " fill="none" stroke-width="0.5" stroke="rgb(0,0,0)" />
	<polygon points="42.7506,189.074 44.5797,189.646 46.5341,190.043 48.5735,190.273 48.5956,190.274 48.322,190.233 47.9582,190.166 45.8355,189.691 45.6024,189.633 43.621,189.088 43.54,189.065 41.7309,188.535 41.2621,188.408 " fill="none" stroke-width="0.5" stroke="rgb(0,0,0)" />
	<polygon points="178.436,183.508 178.722,184.151 179.76,187.011 179.769,187.291 180.14,187.178 180.666,187.05 184.517,186.324 185.122,186.248 187.564,186.091 183.846,185.537 182.397,185.089 178.189,183.044 " fill="none" stroke-width="0.5" stroke="rgb(0,0,0)" />
	<polygon points="367.571,165.292 367.032,166.088 366.22,167.07 365.546,167.744 364.562,168.554 363.765,169.09 362.636,169.702 361.734,170.081 361.336,170.205 362.215,171.267 362.751,172.056 363.79,173.955 364.174,174.855 364.832,176.948 365.036,177.937 365.266,180.176 365.266,181.199 365.036,183.433 365.022,183.497 365.328,183.401 366.321,183.195 367.776,183.044 368.798,183.044 370.271,183.194 371.257,183.397 372.632,183.828 373.519,184.204 371.99,181.077 371.71,180.372 368.944,171.524 368.795,170.918 367.73,165 " fill="none" stroke-width="0.5" stroke="rgb(0,0,0)" />
	<polygon points="109.015,158.352 108.368,159.54 107.833,160.332 106.978,161.368 106.308,162.039 105.273,162.895 104.48,163.431 103.294,164.078 102.393,164.461 101.085,164.87 100.099,165.072 98.6971,165.215 97.6856,165.215 96.2785,165.072 95.2954,164.871 93.9826,164.462 93.0819,164.081 91.8922,163.434 91.0996,162.899 90.0617,162.043 89.9575,161.939 89.7842,162.535 89.638,162.964 88.3866,166.154 88.2053,166.562 88.1785,166.616 88.9712,166.085 92.0507,166.212 95.3935,167.45 95.9474,167.694 99.3229,169.432 99.8429,169.741 103.104,171.956 103.617,172.356 106.615,175.022 107.127,175.549 109.715,178.642 110.204,179.338 112.235,182.832 112.643,183.724 112.696,183.879 112.843,182.932 113.011,182.211 113.73,179.906 114.11,179.008 115.152,177.09 115.854,176.105 117.241,174.588 118.269,173.729 120.02,172.627 121.183,172.089 121.395,172.022 118.468,170.348 117.578,169.699 114.684,167.054 113.989,166.27 111.767,163.158 111.283,162.321 109.716,158.872 109.422,158.034 109.32,157.631 " fill="none" stroke-width="0.5" stroke="rgb(0,0,0)" />
	<polygon points="163.501,163.334 163.227,163.571 159.639,166.458 159.245,166.745 155.459,169.226 154.942,169.522 150.869,171.545 150.253,171.801 145.805,173.312 145.142,173.487 140.23,174.433 139.584,174.514 138.733,174.565 141.632,176.585 142.229,177.074 145.623,180.319 146.022,180.748 148.567,183.828 148.613,183.432 149.219,179.576 149.396,178.829 150.355,175.833 150.926,174.631 152.316,172.493 153.714,171.072 155.617,169.79 157.567,169.009 160.062,168.582 161.866,168.604 163.594,168.942 164.827,169.356 166.787,170.313 167.503,170.739 167.559,170.78 166.543,168.834 166.302,168.296 164.498,163.549 164.356,163.117 164.228,162.657 " fill="none" stroke-width="0.5" stroke="rgb(0,0,0)" />
	<polygon points="77.8437,181.001 78.903,181.767 79.1126,181.022 79.2514,180.601 79.7666,179.244 " fill="none" stroke-width="0.5" stroke="rgb(0,0,0)" />
	<polygon points="343.375,162.211 342.546,162.9 338.44,165.623 337.593,166.074 334.028,167.553 334.56,168.085 335.372,169.067 335.91,169.863 336.399,170.761 337.351,169.61 338.018,168.944 339.678,167.572 340.466,167.039 342.366,166.001 343.265,165.619 345.357,164.962 346.345,164.759 347.412,164.649 347.147,164.163 346.766,163.26 346.379,162.015 346.179,161.033 346.044,159.697 346.044,159.455 " fill="none" stroke-width="0.5" stroke="rgb(0,0,0)" />
	<polygon points="423.498,139.299 421.759,142.124 420.834,143.229 418.093,145.681 417.232,146.3 413.617,148.357 412.903,148.691 408.542,150.331 407.954,150.511 402.975,151.71 402.471,151.804 397.003,152.54 396.551,152.58 390.722,152.831 389.968,152.806 381.701,151.91 380.643,151.677 375.003,149.776 375.319,149.943 376.066,150.427 377.033,151.021 378.268,151.65 379.931,152.295 382.137,152.883 384.987,153.318 388.616,153.492 390.578,153.434 392.655,153.27 394.867,153.029 397.24,152.742 397.271,152.739 399.803,152.449 399.907,152.438 402.616,152.185 402.776,152.173 405.707,151.994 405.905,151.986 409.103,151.918 409.657,151.937 416.99,152.596 417.959,152.781 424.378,154.678 425.301,155.055 430.987,158.066 431.722,158.542 436.853,162.544 437.355,162.993 442.112,167.862 442.416,168.203 442.559,168.379 439.667,164.359 439.304,163.773 435.797,157.13 435.413,156.174 433.567,149.736 433.686,146.616 434.513,145.581 434.414,145.567 433.821,145.449 431.854,144.932 431.112,144.674 429.433,143.936 428.546,143.433 427.186,142.465 426.252,141.601 425.242,140.396 424.487,139.172 423.992,138.028 " fill="none" stroke-width="0.5" stroke="rgb(0,0,0)" />
	<polygon points="348.172,116.86 348.126,117.322 347.661,120.48 347.577,120.915 347.154,122.684 349.279,124.529 350.027,125.702 350.322,126.232 350.983,127.612 351.153,128.012 351.724,129.529 351.832,129.849 352.307,131.431 352.382,131.707 352.758,133.281 352.814,133.543 353.088,135.037 353.131,135.321 353.298,136.664 353.33,137.03 353.387,138.15 353.371,138.875 352.744,145.475 352.533,146.515 351.673,149.227 352.694,148.673 353.597,148.293 354.846,147.906 355.825,147.707 357.166,147.572 358.168,147.572 359.507,147.707 360.487,147.906 361.735,148.293 362.638,148.673 363.767,149.286 364.564,149.823 365.548,150.635 366.223,151.309 367.035,152.293 367.167,152.488 367.21,152.374 367.645,151.486 367.696,151.403 368.527,150.389 368.585,150.335 369.869,149.462 369.931,149.432 371.388,149 371.453,148.991 373.434,149.248 373.297,149.202 372.365,148.777 365.996,145.044 365.231,144.494 359.895,139.825 359.29,139.195 355.042,133.911 354.57,133.21 351.467,127.633 351.106,126.824 349.203,121.276 348.971,120.271 348.324,115.073 348.305,114.357 " fill="none" stroke-width="0.5" stroke="rgb(0,0,0)" />
	<polygon points="86.4689,149.417 86.7802,149.633 86.8882,149.288 86.191,149.145 86.0188,149.091 " fill="none" stroke-width="0.5" stroke="rgb(0,0,0)" />
	<polygon points="122.716,111.76 121.128,118.115 121.105,118.201 119.379,124.617 119.281,124.937 117.364,130.534 117.016,131.321 115.439,134.192 116.466,133.918 119.906,134.234 121.198,134.85 123.571,137.233 124.336,138.855 124.708,139.966 125.186,142.26 125.224,142.467 125.628,144.919 126.099,146.884 126.541,147.834 126.593,147.882 127,147.976 127.297,147.838 127.769,147.524 128.324,147.018 128.935,146.272 129.566,145.23 130.202,143.776 130.533,142.77 130.864,141.622 131.147,140.48 131.381,139.355 131.564,138.258 131.694,137.2 131.772,136.194 131.797,135.258 131.756,133.914 131.642,132.885 131.597,132.687 131.344,132.746 130.641,132.992 129.889,133.332 129.164,133.725 128.541,134.12 128.104,134.443 127.704,134.797 124.837,136.035 121.795,135.33 119.765,132.958 119.772,129.134 121.615,124.704 121.959,124.027 124.301,120.174 124.766,119.531 127.549,116.26 128.124,115.687 130.906,113.328 130.478,113.115 128.96,111.968 128.307,111.376 126.805,109.753 126.585,109.499 125.091,107.649 124.167,106.518 " fill="none" stroke-width="0.5" stroke="rgb(0,0,0)" />
	<polygon points="100.914,135.612 101.057,137.016 101.057,138.027 100.914,139.432 100.713,140.417 100.379,141.487 101.084,141.632 102.392,142.041 103.293,142.423 104.479,143.07 105.271,143.605 106.306,144.46 106.976,145.13 107.831,146.165 108.204,146.716 108.282,145.966 108.328,145.637 108.632,143.877 108.719,143.473 109.176,141.708 109.354,141.156 109.984,139.53 110.382,138.726 110.405,138.689 107.489,139.351 105.63,138.798 102.993,137.409 100.827,135.172 100.822,135.163 " fill="none" stroke-width="0.5" stroke="rgb(0,0,0)" />
	<polygon points="314.714,122.442 313.04,122.893 311.563,123.582 310.283,124.463 309.219,125.483 308.395,126.574 307.833,127.647 307.38,129.075 305.555,131.608 304.956,131.801 305.559,132.277 306.823,133.116 308.011,133.751 309.151,134.212 310.287,134.529 311.471,134.718 312.797,134.785 313.215,134.773 313.771,134.73 314.399,134.661 315.075,134.573 315.764,134.48 315.805,134.475 316.46,134.392 316.592,134.377 317.181,134.319 317.457,134.299 317.964,134.277 318.468,134.28 319.032,134.312 319.668,134.389 320.177,134.485 320.909,134.681 321.356,134.837 322.177,135.211 322.556,135.427 323.416,136.046 323.721,136.319 324.509,137.217 324.734,137.545 325.307,138.658 325.446,139.039 325.72,140.206 325.767,140.639 325.772,141.696 325.692,142.471 325.552,143.239 325.327,144.093 326.733,143.981 329.66,143.256 332.169,142.142 329.308,141.172 327.885,139.499 327.389,138.555 326.886,137.764 326.275,136.959 325.555,136.161 324.722,135.385 323.773,134.646 322.7,133.956 321.299,133.227 320.881,133.012 320.239,132.617 319.877,132.354 319.284,131.849 318.983,131.55 318.474,130.958 318.233,130.627 317.831,129.98 317.646,129.625 317.358,128.953 317.229,128.579 317.049,127.911 316.973,127.524 316.889,126.876 316.864,126.483 316.881,125.65 316.958,124.907 317.132,124.023 317.356,123.254 317.612,122.568 317.703,122.37 317.159,122.295 316.69,122.269 " fill="none" stroke-width="0.5" stroke="rgb(0,0,0)" />
	<polygon points="57.9159,137.618 57.323,138.701 57.5723,138.642 60.0675,138.159 60.4093,138.105 62.8119,137.81 63.1029,137.783 64.2122,137.712 62.128,137.336 61.4782,137.173 57.443,135.87 " fill="none" stroke-width="0.5" stroke="rgb(0,0,0)" />
	<polygon points="95.1886,109.189 93.1837,111.139 93.1001,111.218 90.9235,113.239 90.594,113.52 88.3308,115.283 87.6111,115.75 85.273,116.997 83.8864,117.491 81.4851,117.964 79.9872,118.03 78.7905,117.902 78.2101,117.763 78.4566,119.214 78.5191,119.767 78.7078,123.082 78.7147,123.477 78.6829,124.904 78.6735,125.12 78.5824,126.509 78.5647,126.714 78.4205,128.061 78.3958,128.255 78.2046,129.556 78.174,129.74 77.9421,130.992 77.9066,131.166 77.6401,132.365 77.6005,132.53 77.3056,133.672 77.2625,133.828 76.9454,134.91 75.1754,137.483 73.7017,137.932 74.4948,138.009 74.5206,138.012 75.5126,138.113 75.6183,138.125 76.5126,138.236 76.731,138.268 77.1609,138.341 77.1291,138.027 77.1291,137.016 77.2716,135.613 77.4727,134.63 77.8812,133.32 78.2619,132.42 78.9078,131.232 79.4425,130.44 80.2971,129.403 80.9666,128.732 82.0013,127.876 82.7937,127.338 83.9798,126.691 84.8821,126.308 86.191,125.898 87.1778,125.695 88.5809,125.552 89.594,125.552 90.9991,125.695 91.9846,125.897 93.2954,126.307 94.197,126.689 95.3849,127.337 96.1771,127.873 97.2134,128.73 97.8834,129.4 98.6407,130.317 97.4978,125.246 97.4196,124.809 96.6259,118.875 96.6127,118.767 95.9605,112.924 95.3778,109.02 " fill="none" stroke-width="0.5" stroke="rgb(0,0,0)" />
	<polygon points="385.141,93.4413 384.395,94.1276 378.218,98.749 377.395,99.2487 370.447,102.601 369.588,102.922 362.089,104.963 361.214,105.12 353.383,105.809 352.57,105.815 347.275,105.417 346.57,105.313 345.328,105.038 345.563,105.218 346.776,106.562 347.118,107.116 347.612,108.181 347.841,108.878 348.016,109.578 348.154,110.374 348.211,110.815 348.282,111.664 348.298,111.929 348.324,112.788 348.326,112.918 348.33,113.704 348.433,113 348.501,112.696 348.754,111.892 348.859,111.637 349.254,110.871 349.389,110.656 349.859,110.026 350.018,109.845 350.46,109.399 350.637,109.243 350.969,108.973 351.157,108.833 351.332,108.708 351.525,108.577 352.725,107.978 353.905,107.576 355.009,107.335 356.85,107.146 357.112,107.127 359.514,107.008 362.327,106.821 365.481,106.437 368.975,105.727 372.793,104.561 377.026,102.752 377.467,102.528 377.751,102.395 378.337,102.142 378.629,102.027 379.212,101.818 379.51,101.721 380.087,101.554 380.39,101.477 380.959,101.35 381.265,101.292 381.824,101.203 382.134,101.164 382.681,101.113 382.993,101.093 383.525,101.076 384.438,101.131 386.403,101.431 388.085,102.008 389.503,102.799 390.721,103.753 391.765,104.871 392.285,105.532 393.13,106.814 393.167,106.871 393.792,107.847 393.928,108.004 394.015,108.019 394.707,107.954 395.925,107.667 397.416,107.179 399.081,106.551 400.8,105.886 400.928,105.838 402.579,105.25 402.937,105.138 404.456,104.722 405.194,104.579 406.541,104.421 408.787,104.672 410.829,105.393 412.544,106.423 414.688,108.389 415.346,109.125 417.475,112.042 417.8,112.547 419.8,116.119 420.003,116.523 421.76,120.455 421.915,120.845 423.312,124.842 423.448,125.303 424.371,129.071 424.418,129.342 424.593,128.983 425.086,128.176 425.824,127.189 426.523,126.433 427.532,125.544 428.421,124.919 428.588,124.827 427.917,124.455 426.924,123.774 426.135,123.102 425.227,122.15 424.604,121.348 423.813,120.082 423.411,119.289 422.907,118.027 422.721,117.467 422.349,116.08 422.285,115.812 421.979,114.355 421.977,114.344 421.697,112.993 421.424,111.94 421.17,111.266 421.008,110.992 420.48,110.458 419.088,107.662 419.627,104.587 421.885,102.43 425.277,102.1 426.249,102.348 427.096,102.511 427.98,102.633 428.891,102.718 429.818,102.772 430.751,102.8 431.681,102.811 432.401,102.813 434.808,102.622 437.156,102.122 439.642,101.357 442.233,100.416 444.844,99.4321 444.982,99.3824 446.931,98.7123 443.292,99.6781 442.692,99.7986 431.915,101.284 431.437,101.327 419.882,101.801 419.627,101.805 416.34,101.773 416.243,101.771 412.91,101.672 412.815,101.669 409.445,101.505 409.352,101.5 405.955,101.271 405.862,101.264 402.446,100.969 402.353,100.96 398.927,100.601 398.834,100.59 395.408,100.166 395.314,100.153 391.895,99.6635 391.827,99.6532 391.352,99.5785 390.934,99.4942 390.548,99.3992 389.917,99.1985 389.613,99.0792 388.741,98.6338 388.51,98.4859 387.521,97.6523 387.355,97.4716 386.566,96.3211 386.458,96.1035 386.061,94.9893 386.002,94.7305 385.886,93.9132 385.868,93.6091 386.239,92.2026 " fill="none" stroke-width="0.5" stroke="rgb(0,0,0)" />
	<polygon points="144.573,98.6354 144.021,101.633 143.444,104.86 143.356,105.257 142.66,107.891 144.649,107.439 145.393,107.328 149.522,107.025 150.45,107.044 155.326,107.596 156.495,107.873 157.82,108.363 155.282,106.232 155.248,106.204 150.801,102.402 146.867,99.2389 144.789,97.8689 " fill="none" stroke-width="0.5" stroke="rgb(0,0,0)" />
	<polygon points="326.067,98.4357 325.05,99.9046 324.981,99.999 327.569,100.529 328.204,100.704 330.945,101.655 331.489,101.881 333.734,102.971 334.144,103.195 335.941,104.285 336.164,104.428 337.012,105.007 337.386,104.811 337.57,104.719 338.165,104.439 338.655,104.239 339.225,104.041 340.18,103.811 340.364,103.785 337.046,102.612 336.601,102.43 332.953,100.729 332.665,100.583 329.557,98.8829 329.458,98.8271 326.991,97.4033 326.84,97.3255 " fill="none" stroke-width="0.5" stroke="rgb(0,0,0)" />
	<polygon points="69.7191,91.6094 64.644,94.2805 59.1089,97.3341 62.7567,97.8382 64.1662,98.2506 67.5487,99.8104 68.7216,100.566 71.167,102.676 71.2462,101.735 71.2612,101.584 71.5125,99.3945 71.5216,99.3201 71.8096,97.1047 71.8105,97.0975 72.0945,94.9379 72.3334,92.9263 72.4931,91.1399 72.5221,90.3612 " fill="none" stroke-width="0.5" stroke="rgb(0,0,0)" />
	<polygon points="395.337,78.7247 394.916,79.6987 390.939,86.7348 390.673,87.1081 392.411,86.2208 394.313,85.1341 395.93,83.9134 397.127,82.5499 397.905,80.9229 398.268,78.3809 398.23,77.3589 398.099,76.0541 397.904,74.7486 397.67,73.4722 397.421,72.2449 397.421,72.243 397.395,72.1143 " fill="none" stroke-width="0.5" stroke="rgb(0,0,0)" />
	<polygon points="110.89,75.2225 111.678,78.053 111.841,78.9484 112.03,81.0618 112.398,79.8569 112.708,79.0801 113.889,76.7187 112.739,76.2968 111.314,75.4485 109.233,72.8033 " fill="none" stroke-width="0.5" stroke="rgb(0,0,0)" />
	<polygon points="171.952,77.1003 173.314,80.3104 173.384,80.144 173.776,79.3999 173.878,79.2406 174.447,78.5102 174.573,78.3754 175.361,77.6952 175.51,77.5912 176.537,77.042 176.707,76.9751 177.234,76.8405 173.516,75.6585 171.232,75.0597 " fill="none" stroke-width="0.5" stroke="rgb(0,0,0)" />
	<polygon points="126.132,58.0794 125.333,60.2077 124.564,63.4011 123.828,66.8933 123.759,67.1767 122.913,70.2838 122.522,71.28 121.59,73.0686 121.69,73.0576 123.229,73.6055 125.166,74.8598 126.547,76.3044 127.171,77.1056 128.112,78.607 128.112,78.1149 128.112,78.0732 128.124,76.691 128.127,76.546 128.174,75.2956 128.191,75.0301 128.291,73.9277 128.352,73.4797 128.524,72.5414 128.715,71.8109 128.977,71.0529 129.527,69.935 129.896,69.3735 131.196,68.0329 131.692,67.6841 133.409,66.9597 131.781,64.8943 131.647,64.7161 129.906,62.2938 128.218,60.0583 126.745,58.4469 126.171,58.0283 " fill="none" stroke-width="0.5" stroke="rgb(0,0,0)" />
	<polygon points="106.534,57.4407 105.385,57.9916 103.798,59.0839 101.992,60.5545 100.127,62.1515 100.003,62.2546 98.2212,63.6825 97.7417,64.0226 96.1238,65.0326 94.777,65.619 94.0624,65.8116 94.3204,66.194 94.5995,66.7421 94.9496,67.6305 95.1389,68.2897 95.2846,68.9745 95.3923,69.7411 95.4371,70.2408 95.4712,71.1108 95.4647,71.628 95.3375,73.6039 95.2913,74.0324 94.9558,76.2442 94.9153,76.4748 94.7506,77.2985 96.554,74.9988 97.143,74.3684 99.2322,72.4874 100.94,71.4791 102.998,70.7656 106.12,70.7152 107.628,71.4842 109.065,72.5578 109.078,72.5763 108.404,70.3882 108.199,69.3322 107.935,66.1704 107.922,65.9611 107.777,62.4719 107.483,59.4029 106.988,57.5736 106.871,57.4176 106.792,57.3937 " fill="none" stroke-width="0.5" stroke="rgb(0,0,0)" />
	<polygon points="146.186,68.2137 145.951,68.5196 145.275,69.2371 144.99,69.4855 144.17,70.0665 143.844,70.2513 143.58,70.3671 143.774,70.5087 147.2,73.3056 147.375,73.4557 148.93,74.8492 147.917,72.4895 147.835,72.2877 146.252,68.109 " fill="none" stroke-width="0.5" stroke="rgb(0,0,0)" />
	<polygon points="398.987,59.3203 398.984,60.2522 398.609,64.1296 399.302,63.4906 399.514,63.3304 400.314,62.8374 400.551,62.7203 401.404,62.3925 401.657,62.3207 402.555,62.1534 402.818,62.129 405.107,62.453 406.217,62.8884 407.59,63.7005 408.968,64.8483 409.254,65.1056 410.892,66.6978 412.701,68.3961 414.612,69.9303 416.606,71.1411 418.669,71.9175 421.107,72.2251 421.55,72.2043 422.339,72.0845 423.095,71.8635 423.699,71.5644 424.129,71.2153 424.472,70.7403 424.79,69.8773 424.902,68.8069 424.268,66.6994 422.218,64.5832 418.348,62.2932 413.393,60.2407 408.169,58.5083 403.468,57.064 403.233,56.9854 399.87,55.767 398.599,55.0301 " fill="none" stroke-width="0.5" stroke="rgb(0,0,0)" />
	<polygon points="84.4148,60.2066 84.0308,60.6824 80.9809,64.0209 80.8549,64.1519 80.9352,64.119 83.6887,63.1296 84.5778,62.8997 86.0313,62.6636 85.7661,62.1585 85.6556,61.8579 85.3776,60.6697 85.3385,60.3076 85.4622,58.7329 " fill="none" stroke-width="0.5" stroke="rgb(0,0,0)" />
	<polygon points="54.1389,62.9241 55.4611,61.1664 53.1338,61.0074 " fill="none" stroke-width="0.5" stroke="rgb(0,0,0)" />
	<polygon points="161.311,42.4581 161.669,44.9546 161.622,45.3728 161.312,46.6271 161.179,46.9694 160.502,48.1787 160.295,48.4514 159.386,49.3713 159.117,49.5806 158.428,50.0071 160.142,50.4616 160.469,50.5606 163.847,51.7091 163.985,51.7579 167.516,53.0745 167.52,53.0759 170.979,54.3683 174.107,55.4399 174.165,55.4554 174.073,55.3218 170.955,51.836 167.145,47.9942 163.245,44.1179 163.119,43.9888 161.006,41.7314 " fill="none" stroke-width="0.5" stroke="rgb(0,0,0)" />
	<polygon points="142.463,48.863 142.889,50.3805 143.609,52.2767 144.517,54.3803 144.886,55.2136 145.105,54.5693 145.509,53.6754 145.905,52.9883 146.61,52.0436 147.137,51.4882 148.135,50.6768 148.801,50.265 149.271,50.0498 149.207,50.0336 149.115,50.0093 147.495,49.5646 145.905,49.1407 144.442,48.8015 143.188,48.5907 142.425,48.5393 " fill="none" stroke-width="0.5" stroke="rgb(0,0,0)" />
	<polygon points="92.1212,46.4845 90.3657,46.7429 88.4977,47.0545 86.6071,47.374 86.531,47.3862 86.4691,47.3957 87.5209,49.0324 88.0509,53.0946 89.2793,51.4354 89.3874,51.2948 91.1071,49.1365 92.7436,47.0438 93.2169,46.3661 " fill="none" stroke-width="0.5" stroke="rgb(0,0,0)" />
	<polygon points="445.813,35.7364 445.707,36.1199 445.119,37.9441 445.076,38.0714 444.416,39.9432 443.801,41.796 443.307,43.6135 442.98,45.443 442.86,47.3544 442.908,48.0813 443.024,48.6239 443.159,48.9556 443.266,49.1144 443.357,49.1986 443.545,49.3036 444.002,49.4361 444.708,49.4963 445.193,49.4281 445.228,49.4107 445.341,49.2983 445.633,48.7932 445.979,47.7899 446.261,46.3537 446.432,44.5963 446.487,42.6202 446.454,40.9922 446.365,39.4335 446.236,37.952 446.084,36.5409 445.932,35.2365 " fill="none" stroke-width="0.5" stroke="rgb(0,0,0)" />
	<polygon points="186.431,37.2964 185.88,37.7116 186.05,38.1692 186.188,38.3502 186.191,38.2247 186.518,37.4649 186.789,37.1163 " fill="none" stroke-width="0.5" stroke="rgb(0,0,0)" />
</svg>
