<?xml version="1.0" standalone="no" ?>
<!DOCTYPE svg PUBLIC "-//W3C//DTD SVG 1.1//EN" "http://www.w3.org/Graphics/SVG/1.1/DTD/svg11.dtd">
<svg width="500px" height="500px" xmlns="http://www.w3.org/2000/svg" version="1.1" >
	<polygon points="470.473,280.996 469.667,295.36 467.256,310.581 463.185,326.649 457.431,343.251 449.979,360.089 440.82,376.87 429.948,393.311 417.358,409.134 403.045,424.069 387.001,437.852 369.212,450.224 349.656,460.932 328.302,469.723 305.106,476.339 280.019,480.513 252.984,481.969 226.643,480.595 202.091,476.644 179.303,470.365 158.25,461.996 138.903,451.769 121.244,439.911 105.264,426.651 90.9597,412.218 78.3338,396.847 67.3917,380.778 58.1394,364.258 50.5819,347.538 44.7215,330.877 40.5558,314.539 38.075,298.795 37.2405,283.621 37.2405,29.8465 38.4616,29.8372 49.9533,29.749 61.445,29.6608 61.445,29.6608 72.9367,29.5727 84.4283,29.4845 95.92,29.3963 107.412,29.3081 118.903,29.2199 141.887,29.0436 153.378,28.9554 164.87,28.8672 187.853,28.6909 200.387,28.5947 200.382,31.0432 200.382,31.0432 200.356,43.942 200.331,56.8408 200.306,69.7396 200.306,69.7396 200.28,82.6384 200.229,108.436 200.229,108.436 200.204,121.335 200.153,147.132 200.128,160.031 200.102,172.93 200.077,185.829 200.051,198.728 200.026,211.626 200,224.525 200.001,224.625 200.088,235.92 200.089,235.997 200.253,246.814 200.256,246.955 200.553,257.261 200.562,257.477 201.047,267.238 201.066,267.543 201.794,276.727 201.835,277.14 202.862,285.713 202.942,286.257 204.322,294.186 204.47,294.891 206.26,302.141 206.523,303.034 208.778,309.573 209.227,310.669 212.001,316.463 212.729,317.741 216.078,322.757 217.168,324.125 221.148,328.33 222.617,329.614 227.282,332.974 229.013,333.981 234.419,336.463 236.198,337.09 242.4,338.659 244.027,338.935 251.081,339.56 251.947,329.779 252.623,339.575 259.883,339.075 261.518,338.83 267.865,337.352 269.687,336.745 275.182,334.327 276.982,333.309 281.688,329.987 283.224,328.659 287.202,324.471 288.336,323.044 291.648,318.026 292.391,316.697 295.101,310.884 295.548,309.755 297.716,303.186 297.971,302.278 299.659,294.988 299.797,294.282 301.068,286.309 301.14,285.773 302.056,277.154 302.09,276.757 302.713,267.527 302.728,267.243 303.119,257.441 303.125,257.25 303.347,246.91 303.349,246.798 303.464,235.958 303.465,235.912 303.535,224.61 303.535,224.525 303.509,211.626 303.483,198.727 303.457,185.828 303.432,172.93 303.432,172.93 303.406,160.031 303.354,134.233 303.354,134.233 303.328,121.334 303.251,82.6381 303.251,82.6381 303.225,69.7393 303.147,31.0429 303.147,31.0429 303.142,28.4484 304.591,28.4391 316.344,28.3635 328.098,28.288 339.851,28.2124 351.604,28.1368 363.357,28.0613 375.111,27.9857 386.864,27.9101 410.37,27.759 422.124,27.6835 433.877,27.6079 445.63,27.5323 457.383,27.4568 469.137,27.3812 470.473,27.3726 " fill="none" stroke-width="0.5" stroke="rgb(0,0,0)" />
	<polygon points="318.612,422.597 318.731,422.991 319.062,424.443 319.144,424.843 319.215,425.222 319.777,425.662 320.644,426.397 320.946,426.697 321.542,426.2 322.284,425.635 322.984,425.15 323.76,424.679 323.741,424.612 323.354,421.809 323.354,421.034 " fill="none" stroke-width="0.5" stroke="rgb(0,0,0)" />
	<polygon points="77.3439,315.46 77.3548,315.45 77.3479,315.444 " fill="none" stroke-width="0.5" stroke="rgb(0,0,0)" />
	<polygon points="107.042,168.128 106.945,168.181 107.172,168.358 110.17,171.024 111.229,172.115 111.741,172.726 111.905,172.496 112.271,172.096 111.075,171.003 109.635,169.379 108.188,167.352 " fill="none" stroke-width="0.5" stroke="rgb(0,0,0)" />
	<polygon points="424.401,147.217 422.813,148.637 425.894,149.548 427.805,150.327 428.39,150.637 428.31,149.286 427.281,148.834 425.445,147.792 424.489,147.112 " fill="none" stroke-width="0.5" stroke="rgb(0,0,0)" />
	<polygon points="90.4499,120.262 91.4271,120.361 91.3368,119.686 " fill="none" stroke-width="0.5" stroke="rgb(0,0,0)" />
	<polygon points="185.998,117.341 187.122,116.998 186.625,116.41 " fill="none" stroke-width="0.5" stroke="rgb(0,0,0)" />
</svg>
