<?xml version="1.0" standalone="no" ?>
<!DOCTYPE svg PUBLIC "-//W3C//DTD SVG 1.1//EN" "http://www.w3.org/Graphics/SVG/1.1/DTD/svg11.dtd">
<svg width="500px" height="500px" xmlns="http://www.w3.org/2000/svg" version="1.1" >
	<polygon points="464.523,280.829 463.743,294.727 461.422,309.383 457.48,324.941 451.89,341.069 444.638,357.455 435.718,373.798 425.129,389.811 412.873,405.215 398.949,419.744 383.354,433.141 366.076,445.158 347.087,455.556 326.347,464.093 303.798,470.525 279.369,474.589 252.979,476.01 227.272,474.67 203.357,470.821 181.198,464.715 160.746,456.585 141.96,446.655 124.811,435.14 109.286,422.257 95.3813,408.227 83.1013,393.277 72.456,377.644 63.4558,361.574 56.1096,345.322 50.4219,329.152 46.3901,313.338 43.9994,298.167 43.1905,283.458 43.1905,35.7511 49.999,35.6988 61.4906,35.6107 72.9823,35.5225 84.474,35.4343 95.9657,35.3461 95.9657,35.3461 107.457,35.2579 118.949,35.1698 130.441,35.0816 153.424,34.9052 164.916,34.8171 176.407,34.7289 187.899,34.6407 194.425,34.5906 194.406,43.9303 194.381,56.8291 194.356,69.7279 194.356,69.7279 194.33,82.6267 194.279,108.424 194.279,108.424 194.254,121.323 194.203,147.121 194.203,147.121 194.178,160.019 194.152,172.918 194.152,172.918 194.127,185.817 194.101,198.716 194.076,211.615 194.076,211.615 194.05,224.513 194.051,224.671 194.138,235.966 194.139,236.088 194.304,246.905 194.309,247.127 194.606,257.433 194.619,257.772 195.104,267.534 195.135,268.013 195.863,277.197 195.928,277.847 196.954,286.42 197.08,287.278 198.46,295.206 198.694,296.316 200.483,303.567 200.898,304.973 203.152,311.512 203.86,313.238 206.634,319.033 207.78,321.045 211.129,326.061 212.847,328.215 216.826,332.42 219.139,334.442 223.805,337.802 226.531,339.389 231.937,341.87 234.738,342.858 240.941,344.428 243.502,344.862 250.557,345.487 251.947,329.779 253.032,345.511 260.293,345.011 262.867,344.625 269.214,343.147 272.083,342.191 277.578,339.773 280.413,338.17 285.119,334.848 287.538,332.757 291.516,328.568 293.301,326.322 296.614,321.303 297.784,319.21 300.494,313.398 301.199,311.62 303.367,305.05 303.767,303.621 305.456,296.331 305.673,295.219 306.944,287.246 307.056,286.402 307.972,277.783 308.027,277.157 308.649,267.928 308.673,267.481 309.065,257.678 309.074,257.378 309.296,247.038 309.299,246.861 309.414,236.022 309.415,235.949 309.485,224.646 309.485,224.513 309.459,211.614 309.433,198.715 309.407,185.817 309.382,172.918 309.382,172.918 309.356,160.019 309.304,134.221 309.304,134.221 309.278,121.323 309.201,82.6262 309.201,82.6261 309.175,69.7273 309.104,34.3602 316.383,34.3134 316.383,34.3134 328.136,34.2378 339.889,34.1623 363.396,34.0111 375.149,33.9356 386.902,33.86 410.409,33.7089 422.162,33.6333 433.915,33.5578 445.668,33.4822 457.422,33.4067 464.523,33.361 " fill="none" stroke-width="0.5" stroke="rgb(0,0,0)" />
</svg>
