<?xml version="1.0" standalone="no" ?>
<!DOCTYPE svg PUBLIC "-//W3C//DTD SVG 1.1//EN" "http://www.w3.org/Graphics/SVG/1.1/DTD/svg11.dtd">
<svg width="500px" height="500px" xmlns="http://www.w3.org/2000/svg" version="1.1" >
	<polygon points="466.573,280.886 465.784,294.945 463.432,309.796 459.446,325.529 453.799,341.821 446.478,358.362 437.476,374.857 426.79,391.017 414.418,406.566 400.361,421.234 384.611,434.764 367.156,446.903 347.972,457.408 327.021,466.033 304.248,472.528 279.593,476.63 252.98,478.063 227.056,476.711 202.921,472.828 180.545,466.661 159.886,458.449 140.906,448.417 123.582,436.784 107.9,423.771 93.8579,409.602 81.4588,394.507 70.7112,378.724 61.6241,362.499 54.2051,346.086 48.4579,329.746 44.38,313.752 41.9583,298.384 41.1405,283.514 41.1405,33.7167 49.9832,33.6489 61.4749,33.5607 61.4749,33.5607 72.9666,33.4725 84.4583,33.3844 95.9499,33.2962 95.9499,33.2962 107.442,33.208 118.933,33.1198 130.425,33.0317 153.408,32.8553 164.9,32.7671 176.392,32.679 187.883,32.5908 196.479,32.5248 196.456,43.9343 196.431,56.8331 196.406,69.7319 196.406,69.7319 196.38,82.6307 196.329,108.428 196.329,108.428 196.304,121.327 196.253,147.125 196.253,147.125 196.228,160.023 196.202,172.922 196.202,172.922 196.177,185.821 196.151,198.72 196.126,211.619 196.126,211.619 196.1,224.517 196.101,224.656 196.188,235.95 196.189,236.057 196.354,246.874 196.358,247.068 196.655,257.374 196.667,257.67 197.151,267.432 197.178,267.851 197.906,277.035 197.963,277.603 198.99,286.176 199.1,286.926 200.48,294.855 200.684,295.825 202.474,303.076 202.836,304.305 205.09,310.844 205.709,312.353 208.483,318.147 209.485,319.907 212.834,324.923 214.336,326.806 218.315,331.01 220.337,332.779 225.003,336.138 227.386,337.526 232.792,340.007 235.241,340.871 241.444,342.44 243.683,342.82 250.737,343.445 251.947,329.779 252.891,343.466 260.152,342.965 262.402,342.628 268.749,341.15 271.257,340.315 276.753,337.896 279.231,336.495 283.937,333.173 286.052,331.345 290.03,327.156 291.59,325.193 294.903,320.174 295.926,318.344 298.636,312.532 299.252,310.977 301.42,304.408 301.77,303.158 303.459,295.868 303.649,294.896 304.92,286.924 305.018,286.186 305.934,277.566 305.981,277.019 306.604,267.79 306.625,267.399 307.016,257.596 307.024,257.334 307.247,246.994 307.249,246.839 307.364,236 307.365,235.937 307.435,224.634 307.435,224.517 307.409,211.618 307.383,198.719 307.357,185.821 307.332,172.922 307.332,172.922 307.306,160.023 307.254,134.225 307.254,134.225 307.228,121.327 307.151,82.6303 307.151,82.6302 307.125,69.7314 307.05,32.3233 316.369,32.2634 328.123,32.1879 339.876,32.1123 351.629,32.0368 363.382,31.9612 375.136,31.8856 386.889,31.8101 410.395,31.6589 422.149,31.5834 433.902,31.5078 445.655,31.4323 457.408,31.3567 466.573,31.2978 " fill="none" stroke-width="0.5" stroke="rgb(0,0,0)" />
</svg>
