<?xml version="1.0" standalone="no" ?>
<!DOCTYPE svg PUBLIC "-//W3C//DTD SVG 1.1//EN" "http://www.w3.org/Graphics/SVG/1.1/DTD/svg11.dtd">
<svg width="500px" height="500px" xmlns="http://www.w3.org/2000/svg" version="1.1" >
	<polygon points="461.523,280.745 460.756,294.407 458.48,308.779 454.603,324.079 449.096,339.969 441.945,356.127 433.146,372.25 422.7,388.046 410.612,403.239 396.884,417.563 381.516,430.765 364.494,442.604 345.792,452.845 325.362,461.255 303.138,467.593 279.041,471.603 252.976,473.006 227.59,471.682 203.996,467.886 182.154,461.866 162.005,453.857 143.501,444.076 126.61,432.734 111.314,420.042 97.6106,406.215 85.5051,391.477 75.0094,376.064 66.1363,360.221 58.8966,344.204 53.2961,328.282 49.3317,312.733 46.9866,297.851 46.1905,283.375 46.1905,38.7281 50.022,38.6987 61.5137,38.6106 73.0053,38.5224 84.497,38.4342 95.9887,38.346 95.9887,38.346 107.48,38.2579 118.972,38.1697 130.464,38.0815 141.955,37.9933 153.447,37.9052 164.939,37.817 176.43,37.7288 187.922,37.6406 191.419,37.6138 191.407,43.9244 191.381,56.8232 191.356,69.722 191.356,69.722 191.33,82.6208 191.279,108.418 191.279,108.418 191.254,121.317 191.203,147.115 191.203,147.115 191.178,160.014 191.152,172.912 191.127,185.811 191.101,198.71 191.076,211.609 191.076,211.609 191.05,224.508 191.051,224.695 191.138,235.989 191.14,236.133 191.304,246.951 191.31,247.213 191.607,257.519 191.623,257.921 192.108,267.682 192.144,268.25 192.872,277.434 192.949,278.204 193.975,286.777 194.124,287.793 195.505,295.721 195.781,297.035 197.571,304.286 198.062,305.951 200.316,312.49 201.154,314.534 203.928,320.328 205.285,322.711 208.634,327.727 210.668,330.277 214.648,334.482 217.386,336.877 222.051,340.236 225.28,342.116 230.686,344.597 234.002,345.766 240.205,347.336 243.238,347.85 250.292,348.475 251.947,329.779 253.238,348.504 260.499,348.004 263.548,347.546 269.895,346.069 273.291,344.937 278.787,342.519 282.144,340.621 286.849,337.299 289.713,334.823 293.692,330.634 295.805,327.975 299.118,322.956 300.503,320.478 303.213,314.665 304.048,312.56 306.215,305.99 306.69,304.298 308.378,297.008 308.636,295.692 309.907,287.719 310.039,286.719 310.955,278.1 311.02,277.359 311.642,268.13 311.671,267.601 312.062,257.798 312.073,257.442 312.295,247.103 312.299,246.893 312.414,236.053 312.415,235.968 312.485,224.665 312.485,224.507 312.459,211.608 312.407,185.811 312.382,172.912 312.382,172.912 312.356,160.013 312.304,134.215 312.304,134.215 312.278,121.316 312.201,82.6202 312.201,82.6201 312.175,69.7213 312.11,37.3409 316.402,37.3133 328.155,37.2378 339.908,37.1622 351.662,37.0866 363.415,37.0111 375.168,36.9355 386.921,36.86 410.428,36.7088 422.181,36.6333 433.934,36.5577 445.688,36.4822 457.441,36.4066 461.523,36.3804 " fill="none" stroke-width="0.5" stroke="rgb(0,0,0)" />
</svg>
