<?xml version="1.0" standalone="no" ?>
<!DOCTYPE svg PUBLIC "-//W3C//DTD SVG 1.1//EN" "http://www.w3.org/Graphics/SVG/1.1/DTD/svg11.dtd">
<svg width="500px" height="500px" xmlns="http://www.w3.org/2000/svg" version="1.1" >
	<polygon points="476.673,31.406 476.639,31.564 476.604,31.9952 476.673,32.9064 476.673,78.0224 476.462,78.5227 475.846,79.5409 470.531,86.0129 469.755,86.7423 462.722,91.8266 461.978,92.2547 453.461,96.0455 452.838,96.2653 443.074,98.8566 442.576,98.9565 431.799,100.442 431.402,100.478 419.847,100.952 419.636,100.955 416.349,100.923 416.268,100.921 412.935,100.823 412.856,100.82 409.487,100.656 409.409,100.652 406.012,100.423 405.935,100.417 402.519,100.122 402.442,100.115 399.016,99.7557 398.939,99.7468 395.512,99.3222 395.434,99.3118 392.016,98.8221 391.959,98.8135 391.484,98.7388 391.137,98.6688 390.752,98.5739 390.228,98.4073 389.924,98.288 389.2,97.9183 388.969,97.7704 388.148,97.0785 387.983,96.8979 387.328,95.9429 387.22,95.7253 386.89,94.8005 386.831,94.5417 386.734,93.8634 386.717,93.5593 387.375,91.0614 387.909,90.2366 389.237,88.9453 390.644,88.0897 390.914,87.9392 392.816,86.9688 394.781,85.8452 396.512,84.5395 397.843,83.0224 398.728,81.172 399.12,78.4255 399.078,77.3006 398.942,75.9488 398.742,74.6091 398.504,73.3111 398.254,72.0762 398.254,72.0746 398.029,70.9626 398.007,70.8446 397.848,69.9212 397.803,69.5702 397.743,68.8639 397.748,68.0946 397.78,67.783 397.957,66.9317 398.046,66.6549 398.4,65.8534 398.538,65.6133 399.037,64.9221 399.216,64.7208 399.814,64.169 400.027,64.0088 400.69,63.5996 400.927,63.4825 401.635,63.2104 401.889,63.1386 402.634,62.9998 402.897,62.9754 404.797,63.2443 405.906,63.6796 407.046,64.3537 408.424,65.5015 408.662,65.715 410.305,67.3125 412.144,69.0383 414.123,70.6279 416.232,71.9087 418.464,72.7483 421.073,73.0776 421.634,73.0513 422.523,72.9164 423.405,72.6584 424.161,72.2841 424.752,71.8043 425.23,71.1434 425.624,70.0715 425.766,68.7257 425.022,66.2565 422.749,63.9098 418.729,61.531 413.69,59.4436 408.427,57.6986 403.717,56.2515 403.522,56.1863 400.16,54.9679 398.891,54.2325 397.616,53.1519 397.568,53.0682 398.141,59.3969 398.138,60.1704 397.24,69.4563 397.072,70.2905 394.525,78.4721 394.176,79.2804 390.199,86.3166 389.691,87.028 384.505,92.8773 383.886,93.447 377.708,98.0684 377.026,98.4831 370.078,101.835 369.365,102.102 361.866,104.143 361.139,104.273 353.309,104.963 352.634,104.967 347.339,104.569 346.753,104.483 342.011,103.433 341.523,103.294 337.33,101.81 336.961,101.659 333.312,99.9588 333.073,99.8378 329.965,98.1373 329.883,98.091 327.399,96.657 326.59,96.2401 326.327,96.576 325.369,97.9509 324.351,99.4208 324.231,99.5856 323.448,100.607 323.555,100.614 324.115,100.689 327.398,101.362 327.925,101.507 330.666,102.458 331.118,102.645 333.363,103.736 333.703,103.921 335.5,105.011 335.685,105.131 336.951,105.994 337.185,105.875 337.78,105.564 337.933,105.488 338.527,105.208 338.934,105.042 339.504,104.843 340.297,104.653 340.839,104.577 342.254,104.625 342.888,104.757 344.569,105.527 345.045,105.892 346.053,107.008 346.394,107.562 346.804,108.446 347.033,109.143 347.178,109.724 347.317,110.52 347.364,110.886 347.435,111.735 347.448,111.955 347.474,112.814 347.476,112.922 347.48,113.743 347.474,113.983 347.323,116.815 347.285,117.198 346.82,120.357 346.751,120.717 346.096,123.458 347.459,123.829 348.562,124.986 349.311,126.159 349.555,126.599 350.216,127.98 350.358,128.312 350.928,129.829 351.018,130.094 351.493,131.676 351.555,131.905 351.932,133.479 351.978,133.696 352.252,135.191 352.288,135.426 352.455,136.769 352.481,137.072 352.538,138.192 352.525,138.794 351.898,145.395 351.723,146.258 350.035,151.58 350.323,151.291 351.307,150.479 351.969,150.033 353.099,149.42 353.849,149.105 355.097,148.718 355.91,148.552 357.251,148.418 358.082,148.418 359.422,148.553 360.235,148.718 361.483,149.105 362.232,149.42 363.362,150.033 364.024,150.479 365.008,151.29 365.568,151.85 366.38,152.834 366.826,153.496 367.44,154.625 367.651,155.127 367.648,155.082 367.642,154.69 367.65,154.451 367.672,154.131 367.693,153.937 367.763,153.509 367.796,153.357 367.963,152.786 368.006,152.67 368.368,151.933 368.419,151.851 369.108,151.009 369.166,150.955 370.232,150.231 370.294,150.201 371.503,149.842 371.569,149.833 373.725,150.113 374.195,150.308 374.857,150.656 375.613,151.145 376.617,151.763 377.92,152.427 379.667,153.104 381.962,153.717 384.902,154.165 388.608,154.343 390.624,154.283 392.734,154.117 394.964,153.873 397.342,153.586 397.367,153.583 399.9,153.293 399.986,153.284 402.695,153.031 402.828,153.021 405.759,152.842 405.924,152.835 409.121,152.768 409.581,152.783 416.913,153.443 417.718,153.596 424.137,155.494 424.903,155.806 430.589,158.817 431.199,159.212 436.331,163.214 436.747,163.587 441.504,168.456 441.756,168.739 446.319,174.353 446.451,174.525 450.999,180.76 451.046,180.826 455.241,186.82 457.851,188.357 457.862,188.363 461.923,190.771 462.124,190.897 466.513,193.85 466.849,194.102 471.218,197.732 471.649,198.146 475.651,202.588 476.109,203.203 476.673,204.127 476.673,244.541 475.631,246.315 475.425,246.631 471.241,252.467 471.19,252.536 466.824,258.365 465.456,260.366 465.571,260.26 466.23,259.762 468.913,258.126 470.218,257.609 473.149,256.991 474.435,256.924 475.903,257.077 476.673,257.252 476.673,281.17 476.028,292.665 473.542,295.74 473.207,296.107 470.248,298.982 467.66,300.144 465.578,299.555 466.842,300.648 467.427,301.269 469.752,304.314 470.133,304.911 472.049,308.579 472.293,309.145 473.287,312.023 469.13,328.428 463.205,345.525 455.545,362.833 452.613,368.204 450.146,367.528 448.455,364.85 447.298,358.169 444.813,354.244 441.052,351.316 436.183,348.875 430.958,346.55 430.546,346.338 425.917,343.624 424.901,342.786 421.629,339.069 420.7,337.261 419.459,331.887 419.37,330.58 419.608,327.948 419.687,327.524 419.308,328.008 417.141,329.453 415.878,329.801 415.222,329.926 413.435,330.12 413.29,330.133 411.307,330.277 409.682,330.448 409.692,330.537 409.897,331.835 410.146,333.235 410.402,334.658 410.413,334.723 410.637,336.092 410.659,336.248 410.818,337.517 410.844,337.811 410.904,338.939 410.908,339.28 410.898,339.613 410.879,339.915 410.844,340.25 410.779,340.673 410.712,340.996 410.547,341.574 410.439,341.87 410.072,342.626 409.915,342.88 409.21,343.739 408.996,343.938 408.102,344.539 411.663,344.115 412.507,344.101 417.854,344.557 418.553,344.677 423.847,346.064 424.547,346.316 429.585,348.661 430.275,349.068 434.853,352.4 435.495,352.979 439.409,357.326 439.938,358.061 442.985,363.452 443.341,364.28 445.319,370.742 445.482,371.571 446.187,379.134 446.157,380.034 446.137,380.071 434.97,396.958 422.032,413.218 407.314,428.576 400.466,434.458 399.545,434.023 398.822,433.586 397.407,432.521 396.909,432.079 395.627,430.743 395.255,430.297 394.163,428.782 393.86,428.294 393.011,426.689 392.753,426.093 392.203,424.488 392.013,423.674 391.818,422.158 391.792,421.369 391.821,420.895 391.906,420.281 392.014,419.781 392.233,419.075 392.447,418.553 392.81,417.864 393.159,417.328 393.294,417.158 392.869,417.185 389.206,416.795 388.456,416.644 384.896,415.58 384.31,415.355 380.971,413.775 380.495,413.51 377.497,411.574 377.079,411.265 374.541,409.132 374.13,408.736 373.92,408.503 374.598,409.572 375.168,411.005 375.517,412.807 375.593,413.597 375.593,417.615 375.592,417.712 375.575,418.435 375.563,418.667 375.506,419.382 375.473,419.673 375.367,420.371 375.297,420.728 375.135,421.401 375.007,421.825 374.797,422.413 376.296,421.289 379.267,420.488 380.837,420.672 381.711,420.871 383.344,421.436 384.121,421.799 385.733,422.765 386.411,423.272 387.917,424.659 388.473,425.286 389.791,427.116 390.199,427.819 391.244,430.111 391.496,430.833 392.185,433.608 392.295,434.294 392.543,437.571 392.493,438.602 391.934,441.788 390.801,442.761 372.48,455.503 352.334,466.535 330.339,475.59 323.227,477.618 322.665,477.395 320.002,476.019 319.292,475.553 317.093,473.767 316.495,473.171 314.769,471.058 314.312,470.368 313.069,468.009 312.763,467.26 312.01,464.737 311.856,463.952 311.603,461.346 311.593,460.674 311.834,456.99 311.897,456.493 312.568,452.928 312.672,452.502 313.695,449.096 313.822,448.736 315.118,445.528 315.257,445.221 315.532,444.673 315.274,444.839 314.638,445.174 313.878,445.494 313.258,445.7 312.507,445.884 311.868,445.989 311.172,446.048 310.883,446.056 310.405,447.441 309.244,451.57 309.205,451.7 307.696,456.463 307.549,456.855 305.515,461.56 305.139,462.246 302.372,466.319 301.477,467.27 297.769,470.136 296.135,470.903 291.277,471.986 289.957,472.064 285.947,471.659 285.171,471.505 281.298,470.343 280.634,470.08 276.952,468.238 276.403,467.908 272.968,465.465 272.52,465.096 269.387,462.129 269.021,461.734 266.246,458.321 265.946,457.902 263.585,454.121 263.342,453.673 261.448,449.602 261.411,449.52 260.994,448.571 260.629,447.959 260.237,447.46 259.846,447.079 259.488,446.819 259.198,446.671 259.009,446.613 258.766,446.587 258.236,446.603 257.77,446.659 257.46,446.738 257.164,446.862 256.749,447.113 256.146,447.583 255.337,448.34 254.258,449.481 254.159,449.582 252.426,451.294 252.68,451.152 254.676,450.408 256.194,450.148 256.52,450.153 256.82,450.169 257.248,450.207 257.716,450.276 258.221,450.38 258.806,450.546 259.361,450.749 260.011,451.052 260.59,451.386 261.229,451.84 261.806,452.337 262.352,452.908 262.9,453.603 263.303,454.218 263.795,455.139 266.673,460.498 269.886,464.502 273.484,467.625 277.357,469.986 281.378,471.678 285.399,472.782 289.25,473.378 292.825,473.559 295.394,473.531 297.329,473.456 298.687,473.356 299.634,473.247 300.387,473.131 301.084,473.021 301.277,472.995 301.993,472.916 302.304,472.893 303.169,472.863 303.644,472.874 304.515,472.944 305.332,473.093 306.001,473.285 306.96,473.698 307.454,473.989 308.363,474.714 308.708,475.079 309.348,475.967 309.57,476.381 309.902,477.198 310.028,477.637 310.156,478.255 310.212,478.694 310.244,479.092 310.257,479.507 310.115,480.719 309.928,481.411 306.469,482.397 280.697,486.685 267.766,487.382 267.184,486.907 266.687,486.426 265.209,484.739 264.794,484.175 264.724,484.06 260.994,485.961 260.76,486.07 256.595,487.876 256.353,487.972 256.274,488.001 252.989,488.178 225.987,486.769 200.77,482.711 182.014,477.543 181.285,477.024 177.169,474.134 173.618,472.136 171.02,471.388 167.627,471.052 163.7,470.834 155.648,467.633 135.717,457.098 133.447,455.574 132.326,454.486 131.086,451.934 131.776,449.182 134.073,447.517 135.989,447.43 136.861,447.595 137.728,447.723 138.669,447.83 139.656,447.915 140.666,447.979 141.676,448.023 142.664,448.048 143.492,448.054 148.708,447.722 153.005,446.801 156.495,445.378 159.231,443.533 161.305,441.301 162.801,438.643 163.74,435.477 164.084,431.608 164.079,431.27 164.06,430.75 164.03,430.209 163.989,429.651 163.94,429.082 163.884,428.506 163.824,427.927 163.759,427.343 164.431,424.587 166.716,422.906 169.7,423.156 171.802,424.179 172.24,424.426 174.759,426.055 175.116,426.314 176.235,427.219 175.677,426.369 175.306,425.664 174.328,423.269 174.07,422.347 173.757,420.364 173.722,419.352 173.755,418.985 173.915,418.154 174.01,417.835 174.398,416.942 174.556,416.671 175.178,415.855 175.395,415.634 176.151,415.024 176.426,414.852 177.18,414.478 177.51,414.355 178.177,414.167 178.56,414.093 179.112,414.024 179.547,414 179.966,413.997 180.989,414.042 181.336,414.072 182.261,414.191 182.464,414.223 183.401,414.391 183.409,414.392 184.406,414.573 185.546,414.742 187.009,414.892 188.947,415.001 191.14,415.038 195.937,414.156 198.856,412.126 201.229,408.819 203.407,404.369 205.68,399.607 205.988,399.07 208.808,394.9 209.765,393.898 213.72,390.948 215.399,390.203 221.085,389.084 222.204,389.018 223.249,389.099 223.729,389.164 224.978,389.409 225.362,389.503 226.737,389.912 227.102,390.039 228.528,390.612 228.755,390.717 228.736,390.666 228.385,389.707 228.327,389.537 228.018,388.568 227.92,388.205 227.702,387.217 227.618,386.658 227.535,385.638 227.536,384.961 227.624,383.894 227.749,383.168 228.004,382.211 228.281,381.465 228.334,381.356 226.59,382.311 225.769,382.651 217.501,385.083 216.697,385.235 206.881,386.107 206.059,386.098 197.861,385.193 196.986,384.999 193.79,383.917 195.542,385.66 195.951,386.132 198.431,389.48 198.744,389.971 200.581,393.356 200.838,393.927 201.979,397.092 202.182,397.9 202.574,400.587 202.591,401.661 202.361,403.656 202.098,404.707 201.439,406.374 200.87,407.376 199.827,408.735 199.073,409.491 197.69,410.56 196.935,411.023 195.257,411.822 194.606,412.067 192.678,412.613 192.151,412.726 190.017,413.04 189.594,413.081 187.301,413.181 186.835,413.175 183.977,412.979 183.474,412.914 180.579,412.355 180.153,412.248 177.283,411.371 176.91,411.237 174.126,410.085 173.786,409.926 171.15,408.545 170.826,408.355 168.399,406.788 168.073,406.555 165.916,404.847 165.574,404.544 163.749,402.739 163.426,402.38 162.253,400.912 161.914,400.419 160.874,398.645 160.667,398.242 160.514,397.901 161.923,403.619 162.031,404.29 162.77,413.793 162.773,414.398 162.452,419.082 162.37,419.669 161.308,424.619 161.109,425.275 159.154,430.216 158.784,430.936 155.785,435.593 155.197,436.314 151.003,440.414 150.21,441.021 144.669,444.289 143.779,444.681 136.739,446.843 135.893,447.01 127.204,447.791 126.384,447.784 120.972,447.197 117.527,444.883 101.073,431.23 86.3524,416.377 74.2626,401.659 74.1385,400.666 74.1197,399.821 74.5292,394.693 74.6353,394.035 75.764,389.43 75.9668,388.814 77.665,384.76 77.9489,384.203 80.0668,380.727 80.421,380.232 82.8091,377.362 83.2385,376.918 85.747,374.684 86.2854,374.278 88.7646,372.706 89.5024,372.336 91.8027,371.455 94.6396,371.407 96.8442,373.193 97.3941,375.925 96.395,382.821 97.2517,380.22 97.6133,379.419 99.6932,375.872 100.194,375.188 102.922,372.171 103.52,371.627 106.788,369.191 107.451,368.787 111.153,366.984 111.859,366.716 115.889,365.596 116.626,365.462 120.877,365.077 121.706,365.085 129.382,365.933 130.288,366.137 137.371,368.596 138.198,368.991 144.557,372.936 145.25,373.476 150.751,378.784 151.286,379.415 155.796,385.959 156.174,386.636 158.008,390.782 157.998,390.748 157.95,390.562 157.299,387.791 157.269,387.652 156.679,384.688 156.66,384.587 156.14,381.586 155.466,378.782 154.413,376.318 152.907,373.988 150.9,371.789 148.336,369.739 145.162,367.871 141.339,366.231 136.699,364.828 132.997,363.821 132.785,363.758 129.833,362.784 129.521,362.666 127.281,361.722 126.822,361.494 125.2,360.559 124.567,360.111 123.47,359.168 122.755,358.372 122.088,357.402 121.562,356.336 121.231,355.32 121.041,354.376 120.951,353.295 120.998,352.243 121.303,350.484 121.739,349.225 122.595,347.635 123.228,346.758 124.548,345.357 125.181,344.807 126.875,343.616 127.45,343.277 129.43,342.315 129.954,342.103 132.133,341.391 132.635,341.261 134.923,340.818 135.439,340.752 137.748,340.6 138.184,340.594 141.29,340.716 141.687,340.751 144.602,341.148 145.091,341.245 147.833,341.961 148.382,342.147 150.973,343.228 151.526,343.509 153.986,345 154.482,345.353 156.831,347.298 157.232,347.678 159.491,350.124 159.792,350.488 161.981,353.478 162.252,353.9 164.025,357.062 164.239,357.503 165.676,360.97 165.786,361.267 166.962,364.853 167.014,365.025 168.002,368.544 168.015,368.594 168.875,371.81 169.64,374.412 170.258,375.986 170.518,376.36 170.519,376.36 170.784,376.468 171.132,376.573 171.537,376.661 171.968,376.724 172.394,376.759 172.815,376.771 173.337,376.765 173.892,376.747 174.451,376.72 175.013,376.688 175.568,376.655 175.589,376.654 176.123,376.625 176.18,376.622 176.685,376.602 176.786,376.599 177.26,376.591 177.892,376.629 180.57,376.996 175.782,372.823 175.272,372.293 170.647,366.53 170.243,365.926 166.797,359.636 166.495,358.938 164.343,352.395 164.162,351.568 163.419,345.045 163.395,344.44 163.453,342.656 163.472,342.373 163.651,340.609 163.697,340.283 164.003,338.606 164.098,338.201 164.537,336.677 164.732,336.142 165.311,334.84 165.726,334.112 166.45,333.099 167.335,332.192 168.211,331.535 169.786,330.806 170.82,330.572 172.164,330.491 173.072,330.585 173.985,330.786 174.763,331.051 175.567,331.426 176.251,331.838 176.808,332.241 177.432,332.776 177.745,333.074 178.344,333.707 178.473,333.85 179.079,334.553 179.674,335.24 180.232,335.832 182.914,338.245 185.598,340.146 188.378,341.638 191.327,342.783 194.524,343.624 198.034,344.192 201.904,344.513 206.107,344.612 209.781,344.427 213.042,343.919 215.869,343.147 218.179,342.192 219.882,341.166 220.906,340.239 221.282,339.654 221.291,339.612 221.094,338.871 220.199,337.835 218.119,336.344 218.063,336.31 218.862,338.781 217.797,341.411 215.598,342.687 214.435,342.94 214.384,342.951 213.248,343.183 213.176,343.197 212.06,343.405 211.966,343.422 210.865,343.601 210.749,343.618 209.656,343.764 209.52,343.78 208.428,343.89 208.273,343.903 207.177,343.971 207.006,343.979 205.899,344.003 205.399,343.983 198.791,343.326 198.039,343.181 191.601,341.302 190.938,341.045 184.89,338.081 184.293,337.723 178.854,333.811 178.308,333.341 173.697,328.618 173.203,328.006 169.638,322.609 169.231,321.821 166.932,315.887 166.686,314.917 165.87,308.583 165.842,307.832 166.011,304.674 166.058,304.234 166.55,301.187 166.643,300.76 167.438,297.836 167.571,297.429 168.648,294.641 168.818,294.26 170.157,291.618 170.357,291.266 171.937,288.784 172.164,288.462 173.964,286.15 174.214,285.859 176.214,283.73 178.747,282.451 180.958,283.097 176.312,279.942 175.891,279.615 171.777,275.971 171.121,275.233 168.211,271.048 167.573,269.604 166.469,264.779 166.526,262.707 167.667,258.734 168.459,257.233 171.469,253.598 172.051,253.021 176.306,249.57 176.537,249.395 181.386,245.994 186.062,242.597 189.811,239.231 192.086,236.018 192.909,232.529 192.9,232.32 192.809,231.521 192.648,230.584 192.42,229.566 192.128,228.515 191.781,227.476 191.388,226.496 190.892,225.465 190.61,222.641 192.207,220.297 194.938,219.527 196.802,220.128 200.149,222.181 200.483,222.41 203.551,224.732 203.864,224.994 206.221,227.174 206.288,235.872 206.288,235.903 206.452,246.72 206.454,246.777 206.751,257.083 206.754,257.169 206.992,261.964 205.365,263.933 203.6,266.28 202.619,268.115 202.355,269.454 202.633,270.88 203.512,272.306 205.2,274.013 207.525,275.971 207.597,276.033 207.989,276.379 207.991,276.403 209.018,284.975 209.05,285.194 210.43,293.122 210.49,293.405 212.279,300.655 212.354,300.907 211.165,303.038 211.071,303.199 208.744,306.961 206.492,310.721 204.641,314.374 203.429,317.853 202.994,321.245 203.21,323.679 203.852,326.006 204.882,328.12 206.274,329.999 208.013,331.615 210.09,332.933 212.501,333.913 215.056,334.46 212.124,332.479 211.614,332.073 209.011,329.641 208.283,328.741 206.442,325.666 205.916,324.257 205.218,320.312 205.166,319.282 205.256,318.071 205.321,317.585 205.59,316.2 205.68,315.83 206.13,314.289 206.229,313.991 206.859,312.316 206.963,312.065 207.774,310.274 207.882,310.054 208.873,308.169 208.985,307.97 210.157,306.011 210.274,305.826 211.628,303.812 213.004,302.809 214.639,307.552 214.819,307.992 217.593,313.786 217.885,314.299 221.234,319.315 221.671,319.863 225.651,324.068 226.24,324.583 230.905,327.942 231.599,328.347 237.005,330.828 237.718,331.079 243.921,332.649 244.573,332.759 247.208,332.993 248.079,334.796 248.338,335.482 249.252,338.742 249.369,339.312 249.82,342.68 249.854,343.085 249.974,346.533 249.961,347.04 249.433,353.072 249.308,353.781 247.674,359.899 247.414,360.607 244.601,366.537 244.181,367.235 240.115,372.701 239.521,373.344 236.178,376.275 236.693,376.281 237.866,376.415 238.833,376.645 239.861,377.024 240.732,377.468 241.617,378.06 242.298,378.631 243.041,379.402 243.52,380.002 244.004,380.738 244.313,380.693 244.729,380.653 245.295,380.628 245.895,380.645 247.141,380.77 247.996,380.948 249.102,381.304 249.914,381.665 250.872,382.221 251.574,382.732 252.36,383.443 252.228,383.084 249.802,374.132 249.674,373.417 248.859,364.33 248.864,363.543 249.86,353.678 250.022,352.876 252.904,343.496 253.209,342.762 257.815,334.123 258.248,333.469 258.672,332.944 259.457,332.889 260.112,332.791 266.459,331.313 267.19,331.07 272.685,328.652 273.407,328.244 278.112,324.922 278.728,324.39 282.707,320.201 283.161,319.629 286.474,314.61 286.772,314.077 287.936,311.579 292.664,310.089 293.493,309.918 304.297,308.823 304.891,308.805 307.704,308.924 308.062,308.955 310.701,309.296 311.081,309.364 313.484,309.906 313.914,310.027 316.019,310.748 316.538,310.965 318.283,311.841 318.938,312.251 320.261,313.26 321.065,314.072 321.905,315.193 322.011,315.418 322.62,313.972 323.118,313.716 322.951,313.633 321.077,312.516 320.516,312.115 318.864,310.712 318.289,310.116 316.971,308.442 316.45,307.584 315.577,305.652 315.251,304.539 314.935,302.365 314.921,301.28 315.138,299.449 315.302,298.687 315.668,297.527 315.1,298.206 314.79,298.537 311.273,301.909 310.715,302.359 306.125,305.442 305.369,305.844 299.402,308.261 298.577,308.499 290.93,309.87 288.897,309.518 289.481,308.265 289.661,307.812 291.829,301.243 291.931,300.879 293.619,293.589 293.675,293.306 294.946,285.333 294.974,285.118 295.89,276.499 295.904,276.34 296.299,270.487 296.506,270.325 297.518,269.71 298.398,269.306 299.542,268.937 300.413,268.756 301.671,268.633 302.776,268.673 305.052,269.063 306.237,269.457 308.254,270.486 308.969,270.948 310.777,272.403 311.125,272.716 312.777,274.383 312.872,274.482 314.347,276.072 315.514,277.21 316.038,277.572 316.128,277.495 316.247,277.349 316.345,277.165 316.416,276.93 316.416,276.928 315.738,274.247 313.856,272.077 310.379,269.741 305.854,267.249 305.708,267.164 301.023,264.33 300.468,263.928 296.782,260.764 296.924,257.193 296.927,257.117 297.149,246.777 297.15,246.732 297.265,235.892 297.265,235.874 297.328,225.621 297.876,224.561 299.961,222.638 300.534,222.611 298.929,221.73 298.279,221.288 297.327,220.5 297.309,211.638 297.284,199.249 298.276,198.427 298.926,197.984 300.616,197.055 301.361,196.735 303.221,196.145 304.047,195.973 305.966,195.774 305.475,195.62 304.728,195.303 303.542,194.656 302.885,194.212 301.85,193.357 301.294,192.801 300.438,191.765 299.994,191.109 299.347,189.922 299.029,189.174 298.62,187.864 298.452,187.046 298.309,185.643 298.309,184.801 298.452,183.399 298.62,182.58 299.03,181.272 299.347,180.524 299.995,179.338 300.439,178.682 301.295,177.647 301.85,177.092 302.886,176.236 303.542,175.792 304.728,175.146 305.475,174.829 306.783,174.42 307.601,174.252 309.001,174.109 309.841,174.109 311.248,174.252 312.064,174.418 313.376,174.827 314.123,175.143 315.276,175.769 315.276,175.543 315.411,174.207 315.576,173.393 315.963,172.149 316.278,171.401 316.889,170.274 317.333,169.615 318.022,168.778 315.463,168.462 315.143,168.41 312.939,167.962 312.654,167.893 310.806,167.379 310.576,167.308 309.072,166.793 308.931,166.742 308.68,166.646 308.578,166.88 308.125,168.018 308.007,168.286 307.508,169.319 306.963,170.167 306.374,170.876 304.388,172.196 303.638,172.423 300.807,172.271 299.322,171.639 298.123,170.861 297.226,170.028 297.206,160.043 297.154,134.246 297.154,134.246 297.146,130.234 298.052,129.543 299.202,129.796 298.73,129.029 298.477,128.357 298.422,128.202 298.19,127.501 298.139,127.338 297.931,126.613 297.885,126.439 297.706,125.694 297.666,125.508 297.519,124.747 297.485,124.545 297.376,123.771 297.351,123.553 297.282,122.771 297.268,122.533 297.244,121.747 297.257,121.27 297.507,118.327 297.624,117.64 298.393,114.664 298.636,113.979 299.95,111.101 300.345,110.418 302.231,107.77 302.8,107.124 305.285,104.837 306.021,104.296 309.131,102.5 309.97,102.132 313.442,101.049 313.143,100.43 312.993,100.029 312.857,99.596 312.719,99.0552 312.661,98.7935 312.53,98.0923 312.492,97.8478 312.289,96.2381 312.067,94.5311 311.809,92.883 311.64,92.0795 310.281,93.2279 307.955,95.2839 307.928,95.3072 305.527,97.3937 305.396,97.5024 303.119,99.3226 302.785,99.5635 300.798,100.851 299.803,101.322 298.273,101.81 297.089,101.99 297.055,85.0275 298.448,82.4787 299.752,79.9242 299.987,79.3689 298.464,79.1826 297.043,79.0301 297.025,69.7517 297.012,63.5813 298.567,62.4747 300.024,61.2335 300.352,60.8205 299.301,60.1704 297.461,59.2971 297.003,59.0905 296.973,43.7935 298.673,42.8613 299.475,42.3374 298.925,41.3406 297.299,38.8376 296.962,38.3434 296.947,31.0553 296.947,31.0553 296.93,22.2882 304.137,22.2419 307.447,24.0447 310.66,25.7412 311.663,26.1951 311.725,25.1436 311.751,24.0866 311.755,23.2296 311.758,23.0947 311.791,22.1927 316.305,22.1636 328.058,22.0881 339.811,22.0125 351.564,21.937 363.317,21.8614 375.071,21.7858 377.372,21.771 377.527,21.8422 378.252,22.2687 384.462,26.827 385.122,27.431 390.178,33.1771 390.701,33.924 394.473,40.8066 394.814,41.6232 396.807,48.3575 397.053,47.3989 397.782,46.4845 399.165,45.3623 401.159,44.3611 401.667,44.1473 404.639,43.1208 404.91,43.0373 408.572,42.0471 408.765,41.9998 412.828,41.1077 413.001,41.0735 416.389,40.4792 412.717,37.7405 407.909,35.2004 403.325,33.4627 399.183,32.2846 395.77,31.4304 395.461,31.3399 393.166,30.5717 391.371,29.3819 390.543,28.4434 389.507,25.8023 390.509,22.9919 391.135,22.2639 391.905,21.6776 410.331,21.5592 422.084,21.4836 433.837,21.408 440.87,21.3628 442.568,22.9152 443.388,23.9499 444.685,26.2642 445.161,27.6279 445.618,30.4436 445.654,31.4875 445.496,33.2063 445.402,33.7816 444.986,35.5409 444.897,35.8592 444.31,37.6833 444.274,37.7891 443.612,39.6679 442.986,41.5504 442.477,43.4271 442.135,45.3413 442.009,47.3554 442.064,48.1989 442.209,48.8753 442.405,49.3572 442.616,49.6706 442.854,49.8913 443.216,50.0931 443.846,50.2759 444.731,50.3514 445.447,50.2506 445.729,50.111 446.02,49.8222 446.41,49.1479 446.801,48.0112 447.103,46.4771 447.281,44.6492 447.337,42.6233 447.303,40.9593 447.212,39.3725 447.082,37.8698 446.929,36.446 446.772,35.102 446.769,35.0828 446.63,33.8437 446.62,33.7463 446.522,32.6339 446.509,32.4254 446.471,31.4418 446.484,30.9226 446.714,28.291 446.854,27.5282 447.522,25.1548 447.825,24.3828 448.897,22.2961 449.37,21.5725 449.586,21.3068 457.344,21.2569 469.097,21.1814 476.673,21.1326 " fill="none" stroke-width="0.5" stroke="rgb(0,0,0)" />
	<polygon points="255.216,390.173 255.223,390.814 255.176,391.525 255.104,392.061 254.967,392.749 254.836,393.245 254.616,393.905 254.436,394.358 254.305,394.636 254.653,395.134 255.029,395.77 255.318,396.362 255.591,397.058 255.781,397.683 255.948,398.441 256.036,399.049 256.092,399.872 256.084,400.547 255.988,401.559 255.836,402.347 255.56,403.278 255.251,404.036 254.811,404.869 254.355,405.557 253.768,406.277 253.183,406.863 252.464,407.451 251.776,407.909 250.942,408.35 250.183,408.66 249.25,408.937 248.46,409.09 247.445,409.186 246.46,409.162 245.522,409.026 244.532,408.755 243.666,408.397 243.073,408.095 242.252,407.589 241.998,407.419 241.396,406.984 241.475,407.396 241.51,407.61 241.633,408.493 241.658,408.715 241.731,409.587 241.744,409.818 241.769,410.677 241.721,411.437 240.942,416.413 240.589,417.557 238.382,422.187 237.843,423.036 234.404,427.223 233.817,427.807 229.34,431.453 228.76,431.848 223.44,434.854 222.872,435.12 216.902,437.388 216.332,437.559 209.908,438.992 209.313,439.08 202.629,439.579 201.995,439.578 195.777,439.089 195.074,438.973 189.878,437.645 189.163,437.391 184.929,435.433 184.258,435.043 183.021,434.159 184.07,435.487 184.369,435.918 186.809,439.97 187.071,440.484 189.057,445.143 189.258,445.734 190.294,449.753 190.735,449.933 192.078,450.329 193.701,450.687 195.435,450.965 197.131,451.141 198.612,451.199 200.595,451.091 202.548,450.747 204.381,450.147 206.01,449.283 207.4,448.138 208.559,446.637 209.475,444.628 210.141,441.552 211.654,439.151 213.577,438.327 220.822,437.232 227.089,435.353 232.617,432.745 237.375,429.501 241.338,425.707 244.481,421.443 246.78,416.777 248.307,411.406 249.969,409.106 253.803,408.673 256.652,409.781 257,409.935 259.86,411.363 260.13,411.51 262.912,413.167 263.137,413.311 265.755,415.107 265.961,415.257 268.325,417.103 268.535,417.278 270.557,419.083 270.801,419.319 271.973,420.552 273.137,420.297 273.319,420.261 274.604,420.04 274.776,420.014 276.11,419.841 276.274,419.823 277.657,419.7 277.812,419.689 279.244,419.615 279.389,419.61 280.871,419.585 281.037,419.586 283.168,419.635 283.354,419.644 285.556,419.794 285.731,419.81 288.012,420.062 288.175,420.084 290.54,420.441 290.69,420.467 293.145,420.93 293.283,420.959 295.833,421.531 295.959,421.562 297.477,421.953 297.48,421.946 297.93,421.189 298.436,420.511 299.228,419.707 299.919,419.175 300.973,418.585 301.684,418.314 291.186,417.246 290.315,417.061 280.231,413.762 279.408,413.389 270.802,408.296 270.1,407.774 262.999,401.218 262.454,400.604 256.884,392.918 256.493,392.257 255.15,389.416 " fill="none" stroke-width="0.5" stroke="rgb(0,0,0)" />
	<polygon points="325.795,413.597 324.97,413.973 315.465,417.106 314.587,417.293 306.611,418.108 306.831,418.141 308.341,418.685 309.506,419.383 310.712,420.478 311.484,421.525 312.023,422.512 312.517,423.81 312.686,424.366 313.016,425.818 313.049,425.979 313.313,427.393 313.569,428.478 313.737,428.903 313.859,429.007 314.576,429.516 314.597,429.531 315.505,430.185 315.765,430.388 316.632,431.124 317.096,431.585 317.829,432.44 318.388,433.28 318.895,434.29 319.286,435.507 319.476,436.71 319.503,437.802 319.5,437.827 320.294,436.678 320.453,436.462 322.057,434.435 322.185,434.281 322.907,433.454 323.014,433.336 323.733,432.573 323.883,432.422 324.598,431.738 324.807,431.55 325.516,430.958 325.813,430.732 326.514,430.247 326.941,429.988 327.631,429.624 328.24,429.363 328.918,429.134 329.752,428.945 330.416,428.866 331.696,428.912 332.357,429.04 332.953,429.202 333.905,429.539 333.976,429.565 335.182,430.016 336.622,430.501 338.359,430.976 340.459,431.392 341.311,431.493 340.362,431.28 339.956,431.166 337.417,430.317 336.939,430.123 334.843,429.117 334.238,428.76 332.654,427.637 331.867,426.908 330.865,425.707 330.059,424.174 329.71,422.932 329.554,421.809 329.554,413.773 329.73,412.578 330.048,411.521 330.381,410.864 " fill="none" stroke-width="0.5" stroke="rgb(0,0,0)" />
	<polygon points="350.849,385.943 350.595,386.609 346.988,394.084 346.605,394.723 341.55,401.664 341.015,402.265 339.111,404.029 339.797,403.724 340.286,403.543 343.648,402.53 344.133,402.415 348.073,401.73 348.552,401.675 353.06,401.423 353.441,401.42 357.234,401.557 357.565,401.582 361.035,401.986 361.424,402.05 364.516,402.712 364.991,402.844 367.647,403.753 368.247,404.013 370.411,405.16 371.157,405.666 372.095,406.464 371.718,405.961 370.454,403.911 369.964,402.751 369.517,400.982 369.717,398.351 370.934,395.466 371.583,394.483 368.876,395.967 367.787,396.378 362.591,397.542 360.756,397.537 359.606,397.273 358.196,396.657 357.119,395.922 356.334,395.226 355.355,394.107 354.926,393.521 354.07,392.104 353.817,391.614 353.108,389.984 352.945,389.542 352.407,387.787 352.299,387.346 351.958,385.551 351.895,385.06 351.776,383.311 351.783,382.668 " fill="none" stroke-width="0.5" stroke="rgb(0,0,0)" />
	<polygon points="119.057,384.272 117.801,385.109 116.855,386.066 116.188,387.125 115.777,388.305 115.628,389.665 115.923,392.54 116.742,395.059 118.008,397.238 119.668,399.088 121.665,400.588 123.93,401.701 126.379,402.391 129.01,402.634 129.915,402.586 128.41,402.255 127.834,402.085 125.638,401.256 125.069,400.991 123.158,399.917 122.586,399.529 121.011,398.259 120.436,397.695 119.248,396.278 118.709,395.455 117.959,393.941 117.585,392.783 117.323,391.222 117.282,390.177 117.386,388.987 117.526,388.219 117.826,387.157 118.136,386.374 118.616,385.449 119.101,384.715 119.688,384.005 " fill="none" stroke-width="0.5" stroke="rgb(0,0,0)" />
	<polygon points="274.51,382.928 277.158,387.081 280.811,390.915 285.405,394.228 290.872,396.826 297.15,398.524 304.281,399.142 307.835,398.995 311.03,398.573 313.719,397.936 315.838,397.154 316.374,396.858 315.124,396.264 314.451,395.781 312.902,393.626 312.647,392.794 312.529,390.848 312.619,390.343 312.857,389.516 312.949,389.29 310.901,390.102 310.695,390.177 307.939,391.105 307.629,391.196 304.417,392.005 304.036,392.082 300.328,392.655 299.907,392.698 295.666,392.915 295.163,392.91 291.65,392.664 291.087,392.585 287.696,391.873 287.144,391.717 283.983,390.579 283.42,390.328 280.595,388.806 280.004,388.419 277.621,386.552 277.01,385.964 275.177,383.793 274.611,382.923 274.156,381.983 " fill="none" stroke-width="0.5" stroke="rgb(0,0,0)" />
	<polygon points="353.409,361.253 352.874,361.894 350.68,364.043 349.971,364.6 347.335,366.243 346.486,366.647 343.422,367.697 342.515,367.898 339.042,368.268 338.241,368.275 335.02,367.994 334.26,367.855 331.318,367.029 330.546,366.726 327.93,365.385 327.202,364.909 324.958,363.081 324.336,362.452 323.417,361.301 323.385,361.651 323.243,362.408 322.799,363.966 322.515,364.695 321.8,366.116 321.374,366.792 320.408,368.038 319.843,368.635 318.647,369.669 317.956,370.154 316.551,370.938 315.766,371.276 314.172,371.775 313.377,371.937 320.54,372.393 323.597,372.322 327.251,372.085 331.193,371.66 335.195,371.029 339.027,370.181 342.44,369.123 345.162,367.904 347.433,366.325 350.176,365.6 352.744,366.806 353.93,370.158 353.164,377.592 353.027,378.305 352.852,378.918 353.155,378.416 353.755,377.644 354.449,376.942 355.081,376.417 356.037,375.772 356.584,375.461 357.831,374.87 358.261,374.696 359.83,374.159 360.154,374.062 361.927,373.612 371.029,370.587 372.344,369.795 370.116,370.02 369.326,370.025 366.956,369.811 366.184,369.667 364.049,369.054 363.289,368.753 361.414,367.784 360.714,367.329 359.123,366.047 358.526,365.458 357.245,363.906 356.781,363.213 355.835,361.434 355.523,360.672 354.995,358.905 " fill="none" stroke-width="0.5" stroke="rgb(0,0,0)" />
	<polygon points="272.914,378.664 273.003,378.902 272.697,376.95 " fill="none" stroke-width="0.5" stroke="rgb(0,0,0)" />
	<polygon points="298.975,351.253 297.26,353.273 294.073,355.191 293.183,355.593 288.678,357.016 288.62,357.033 283.708,358.506 279.288,360.468 275.822,363.285 273.402,367.575 272.387,374.506 272.647,376.556 272.609,375.783 272.641,375.227 272.709,374.684 272.803,374.195 272.975,373.57 273.127,373.15 273.452,372.457 273.657,372.108 274.186,371.396 274.44,371.121 275.186,370.484 275.484,370.284 276.392,369.828 276.731,369.707 277.677,369.49 278.053,369.449 278.808,369.436 279.217,369.466 279.304,369.477 279.318,369.279 279.441,368.069 279.497,367.692 279.736,366.467 279.89,365.899 280.284,364.765 280.687,363.925 281.276,362.985 282.242,361.916 283.064,361.275 284.737,360.493 285.83,360.256 288.152,360.421 289.569,360.947 290.597,361.505 292.466,362.891 292.557,362.96 294.941,364.833 297.925,366.867 301.732,368.87 303.951,369.672 302.9,368.753 302.345,368.165 301.44,366.992 301.02,366.326 300.347,364.995 300.064,364.273 299.645,362.82 299.501,362.059 299.357,360.522 299.344,359.938 299.396,358.831 299.424,358.505 299.563,357.415 299.597,357.194 299.793,356.119 299.816,356.002 300.04,354.945 300.043,354.932 300.257,353.938 300.423,353.068 300.523,352.339 300.556,351.715 300.545,351.433 300.51,351.157 300.453,350.909 300.371,350.668 300.253,350.416 300.083,350.133 299.838,349.809 299.638,349.59 " fill="none" stroke-width="0.5" stroke="rgb(0,0,0)" />
	<polygon points="387.135,305.155 386.467,305.506 385.459,306.341 384.305,307.631 383.135,309.286 382.037,311.204 381.073,313.282 380.342,315.286 380.075,316.665 379.858,319.027 379.681,322.021 379.494,325.206 379.485,325.322 379.223,328.327 379.187,328.623 378.783,331.144 378.598,331.87 377.985,333.606 376.51,335.582 375.883,336.037 378.344,337.796 378.935,338.309 381.421,340.919 381.939,341.587 383.769,344.525 384.16,345.337 385.289,348.537 385.5,349.45 385.886,352.846 385.896,353.686 385.671,356.186 385.536,356.928 384.951,359.029 386.106,357.672 386.128,357.646 390.136,353.014 390.609,352.549 395.221,348.685 396.216,348.066 402.24,345.419 403.419,345.097 404.542,344.963 403.832,344.859 402.917,344.446 401.743,343.651 400.614,342.563 400.301,342.225 399.024,340.687 398.93,340.57 397.578,338.816 396.273,337.142 395.602,336.365 395.435,336.496 394.289,337.487 393.078,338.541 392.953,338.645 391.805,339.568 391.44,339.83 390.419,340.483 389.363,340.965 388.528,341.213 386.833,341.352 386.646,341.328 385.645,341.073 385.476,341.007 384.628,340.554 384.479,340.451 383.827,339.891 383.701,339.757 383.228,339.153 383.126,338.995 382.799,338.378 382.724,338.203 382.513,337.571 382.466,337.383 382.359,336.728 382.343,336.534 382.381,335.537 382.659,333.801 382.829,333.117 383.563,330.969 383.657,330.72 384.693,328.22 384.708,328.183 385.874,325.445 386.995,322.595 387.932,319.715 388.561,316.888 388.798,314.039 388.771,312.566 388.655,310.714 388.42,308.819 388.051,307.095 387.586,305.788 387.192,305.144 " fill="none" stroke-width="0.5" stroke="rgb(0,0,0)" />
	<polygon points="322.79,320.272 322.298,321.664 320.721,323.713 319.42,324.598 318.287,325.14 317.258,325.451 317.449,325.595 318.384,326.455 319.005,327.173 319.612,328.064 320.079,328.973 320.407,329.868 320.635,330.832 320.733,331.706 320.73,332.659 320.573,333.981 320.299,335.049 319.857,336.141 319.285,337.134 318.6,338.013 317.862,338.748 316.979,339.43 316.246,339.882 315.207,340.384 314.57,340.629 313.418,340.966 312.89,341.084 311.668,341.274 311.227,341.319 309.978,341.379 309.679,341.383 308.748,341.36 308.594,341.353 307.631,341.294 307.537,341.287 306.544,341.204 306.505,341.2 305.489,341.104 304.477,341.011 303.487,340.934 302.519,340.881 301.59,340.862 300.405,340.899 299.306,341.013 298.569,341.157 299.182,342.04 299.643,342.908 299.923,343.63 302.769,342.365 306.405,342.656 307.083,342.767 310.37,343.59 311.042,343.821 313.937,345.104 314.583,345.462 317.046,347.129 317.647,347.624 319.156,349.127 319.111,348.594 319.113,347.879 319.359,345.112 319.451,344.54 320.1,341.747 320.197,341.4 321.114,338.585 321.17,338.425 322.221,335.598 323.242,332.845 324.077,330.263 324.621,327.883 324.82,325.602 324.794,324.914 324.703,324.143 324.546,323.385 324.319,322.631 324.01,321.868 323.607,321.085 323.094,320.273 322.809,319.897 " fill="none" stroke-width="0.5" stroke="rgb(0,0,0)" />
	<polygon points="363.686,277.331 363.868,277.475 367.604,280.627 367.822,280.824 370.981,283.897 371.317,284.266 373.504,286.974 374.132,288.051 374.949,290.111 374.683,293.719 373.817,295.216 372.416,296.662 370.083,298.113 369.43,298.443 366.029,299.8 365.679,299.921 361.61,301.137 361.378,301.199 357.038,302.227 356.849,302.267 352.637,303.059 352.439,303.091 348.755,303.601 348.456,303.632 345.698,303.812 345.051,303.804 344.458,303.75 343.597,303.579 343.123,303.431 342.217,303.023 342.186,303.004 342.34,303.466 342.671,305.162 342.734,306.292 342.633,307.537 342.488,308.336 342.174,309.441 341.792,310.355 341.248,311.313 340.596,312.177 339.807,312.979 339.001,313.616 337.949,314.254 337.168,314.622 335.838,315.088 335.184,315.259 334.976,315.295 339.566,317.401 340.173,317.744 345.032,321.057 345.58,321.503 349.597,325.389 350.065,325.927 353.222,330.255 353.594,330.872 355.872,335.512 356.136,336.198 357.516,341.018 357.658,341.767 357.719,342.414 357.777,342.137 357.88,340.821 357.87,340.554 357.828,340.183 357.755,339.793 357.646,339.382 357.499,338.953 357.309,338.505 357.074,338.041 356.719,337.444 356.19,334.656 357.576,332.181 360.851,331.212 365.53,331.855 366.135,331.985 367.732,332.454 367.267,330.924 367.203,330.684 366.776,328.899 366.476,327.755 365.958,328.029 364.579,328.838 363.152,329.693 363.061,329.746 361.727,330.501 361.435,330.651 360.288,331.184 359.466,331.466 358.585,331.669 357.396,331.766 357.265,331.758 356.734,331.69 356.607,331.665 356.043,331.514 355.924,331.473 355.312,331.205 355.205,331.147 354.545,330.705 354.454,330.632 353.799,329.958 353.73,329.868 353.189,328.943 353.144,328.837 352.852,327.757 352.836,327.635 352.9,326.205 353.118,325.219 353.369,324.448 353.944,323.138 354.087,322.844 354.9,321.328 354.97,321.203 355.901,319.601 355.92,319.569 356.598,318.427 355.275,318.098 353.178,317.6 353.002,317.554 351.153,317.029 350.568,316.814 349.261,316.219 347.575,314.813 347.079,314.101 346.713,310 346.916,309.556 348.262,307.919 348.834,307.507 349.608,307.066 350.492,306.683 350.903,306.53 352.04,306.173 352.279,306.106 353.613,305.773 353.762,305.739 355.235,305.429 355.329,305.411 356.884,305.121 356.94,305.111 358.401,304.859 361.584,304.117 364.895,302.999 368.188,301.521 371.221,299.744 373.763,297.759 375.612,295.697 376.671,293.716 377.029,291.699 376.734,289.294 375.898,287.151 374.562,285.186 372.739,283.322 370.508,281.552 367.997,279.865 365.358,278.231 365.341,278.221 362.812,276.638 362.563,276.486 " fill="none" stroke-width="0.5" stroke="rgb(0,0,0)" />
	<polygon points="422.345,321.139 419.539,321.559 419.051,321.32 420.018,322.556 420.234,322.991 420.438,324.791 420.733,324.047 421.808,321.959 422.258,321.265 422.369,321.126 " fill="none" stroke-width="0.5" stroke="rgb(0,0,0)" />
	<polygon points="399.777,302.85 400.418,304.856 401.492,307.01 402.947,309.198 404.703,311.314 406.668,313.268 408.738,314.974 410.925,316.441 411.952,317.069 413.119,317.715 414.387,318.384 415.636,319.042 415.716,319.086 416.369,319.448 415.787,318.764 414.365,316.429 414.292,316.303 412.478,313.075 410.291,309.527 407.75,306.158 404.927,303.435 401.944,301.707 399.595,301.264 " fill="none" stroke-width="0.5" stroke="rgb(0,0,0)" />
	<polygon points="419.926,261.509 419.753,262.628 419.58,263.334 419.124,264.671 418.999,264.992 418.355,266.467 418.292,266.604 417.554,268.141 417.546,268.157 416.952,269.378 417.776,269.564 419.63,269.973 419.816,270.018 421.44,270.456 422.015,270.658 423.164,271.157 424.859,272.514 425.295,273.11 426.086,275.835 425.603,277.52 425.136,278.391 423.437,280.089 422.163,280.771 421.365,281.097 419.474,281.648 419.15,281.728 416.831,282.205 416.731,282.225 414.2,282.681 411.721,283.158 409.564,283.684 407.819,284.303 406.389,284.967 405.136,285.665 404.144,286.342 403.422,286.97 402.957,287.51 402.702,287.943 402.581,288.299 402.581,288.303 402.918,288.407 403.894,288.571 405.203,288.674 406.675,288.705 410.466,288.462 413.885,287.831 417.024,286.925 419.864,285.864 422.397,284.767 424.578,283.776 424.724,283.713 426.464,283.001 427.153,282.787 428.393,282.517 429.623,282.437 429.81,282.452 430.551,282.583 430.72,282.629 431.489,282.922 431.638,282.996 432.375,283.468 432.501,283.569 433.136,284.202 433.237,284.327 433.714,285.065 433.788,285.214 434.086,285.987 434.133,286.157 434.265,286.904 434.281,287.093 434.113,288.661 433.857,289.491 433.45,290.405 432.778,291.528 432.595,291.807 431.644,293.139 431.589,293.214 430.515,294.648 429.502,296.038 428.937,296.903 429.803,297.479 431.614,298.505 433.547,299.548 433.644,299.602 435.349,300.582 435.739,300.836 436.923,301.707 438.094,303.037 438.502,303.772 438.593,307.625 438.504,307.805 437.821,308.794 437.682,308.943 436.878,309.613 436.689,309.733 435.976,310.097 435.738,310.19 435.19,310.363 434.903,310.432 434.503,310.508 434.167,310.555 433.88,310.585 433.495,310.611 433.29,310.62 432.856,310.628 432.655,310.627 431.886,310.605 431.717,310.597 430.871,310.537 430.777,310.53 429.874,310.446 429.836,310.442 428.9,310.347 427.973,310.254 427.096,310.176 426.298,310.125 426.072,310.12 426.046,310.92 426.014,312.759 426.009,312.893 425.919,314.695 425.879,315.094 425.652,316.63 425.38,317.612 425.157,318.15 425.976,317.468 426.664,317.003 428.624,315.946 429.387,315.628 431.544,314.973 432.347,314.814 434.651,314.589 435.204,314.572 437.246,314.646 437.57,314.67 439.491,314.891 439.415,314.37 439.376,313.971 439.302,312.46 439.31,311.929 439.506,309.47 439.615,308.801 440.195,306.459 440.428,305.777 441.385,303.616 441.767,302.935 442.038,302.543 439.64,299.996 437.672,293.483 435.533,287.28 433.17,281.388 430.551,275.861 427.644,270.751 424.42,266.107 420.85,261.968 419.937,261.136 " fill="none" stroke-width="0.5" stroke="rgb(0,0,0)" />
	<polygon points="458.186,285.954 456.691,286.645 455.231,287.855 453.732,289.665 452.207,292.023 450.642,294.797 449.81,296.319 451.296,295.829 452.175,295.642 454.883,295.366 455.963,295.398 459.152,295.912 460.334,296.29 463.297,297.758 464.168,298.337 464.308,298.458 463.334,297.026 463.293,295.159 463.325,295.008 463.335,294.938 463.348,294.806 463.361,294.616 463.369,294.373 463.375,294.083 463.377,293.75 463.377,293.48 463.298,291.87 463.066,290.287 462.677,288.783 462.158,287.504 461.58,286.577 461.049,286.048 460.596,285.806 459.963,285.705 " fill="none" stroke-width="0.5" stroke="rgb(0,0,0)" />
	<polygon points="335.651,292.309 335.525,292.317 335.752,292.808 336.764,294.387 338.098,296.214 339.207,297.721 339.277,296.836 339.404,296.271 339.668,295.481 340.005,294.733 340.136,294.468 340.612,293.585 340.647,293.521 341.175,292.582 341.205,292.528 340.709,292.46 338.915,292.336 336.67,292.291 " fill="none" stroke-width="0.5" stroke="rgb(0,0,0)" />
	<polygon points="183.633,284.809 185.289,286.048 186.875,287.115 188.356,287.992 189.689,288.66 190.036,288.797 189.723,288.532 185.887,286.096 183.264,284.506 " fill="none" stroke-width="0.5" stroke="rgb(0,0,0)" />
	<polygon points="391.815,263.15 391.773,263.384 391.242,265.942 391.216,266.056 390.606,268.629 390.606,268.632 390.008,271.144 389.51,273.51 389.179,275.689 389.06,277.698 389.113,278.959 389.278,280.206 389.545,281.298 389.874,282.13 390.187,282.629 390.379,282.816 390.465,282.86 390.598,282.88 390.79,282.772 391.271,282.306 391.867,281.443 392.446,280.238 392.919,278.772 393.229,277.131 393.344,275.301 393.297,273.006 393.167,270.76 392.981,268.653 392.764,266.692 392.543,264.882 392.542,264.874 392.346,263.249 392.336,263.159 392.198,261.755 392.182,261.534 392.152,260.876 " fill="none" stroke-width="0.5" stroke="rgb(0,0,0)" />
	<polygon points="360.125,243.387 359.567,243.944 357.779,245.419 357.12,245.863 355.07,246.977 354.322,247.293 352.059,247.998 351.243,248.165 348.817,248.411 348.653,248.411 349.824,248.975 352.253,249.911 354.816,250.541 358.01,250.807 360.587,251.994 361.799,254.56 361.399,256.757 359.655,260.344 358.553,261.741 355.373,264.345 354.537,264.877 350.435,266.843 350.083,266.992 345.609,268.65 341.506,270.253 338.545,271.908 337.065,273.502 336.524,275.639 336.614,276.33 336.866,276.895 337.256,277.346 337.901,277.795 338.839,278.203 339.994,278.509 341.245,278.687 342.496,278.744 343.184,278.728 343.153,278.2 343.104,277.617 343.043,277.005 342.979,276.388 342.976,276.357 342.919,275.767 342.912,275.675 342.872,275.13 342.863,274.955 342.847,274.466 342.863,273.953 342.888,273.691 343.027,272.945 343.098,272.691 343.37,271.984 343.487,271.747 343.896,271.084 344.057,270.871 344.609,270.273 344.81,270.093 345.501,269.595 345.741,269.457 346.543,269.103 346.82,269.014 347.671,268.837 347.982,268.805 349.59,268.959 351.673,269.583 352.466,269.914 355.279,271.446 354.936,271.02 354.196,269.623 354.032,269.083 354.145,266.347 354.329,265.883 355.812,264.009 356.311,263.661 357.354,263.134 358.091,262.885 358.661,262.736 359.558,262.569 359.891,262.52 360.869,262.419 361.077,262.403 362.06,262.351 362.192,262.346 363.101,262.326 363.174,262.326 363.914,262.323 364.791,262.312 364.916,262.306 364.907,262.165 364.843,261.233 364.842,261.221 364.778,260.239 364.775,260.201 364.719,259.205 364.716,259.138 364.676,258.154 364.673,258.052 364.658,257.106 364.658,256.983 364.666,256.345 364.671,256.198 364.7,255.606 364.716,255.395 364.77,254.86 364.813,254.548 364.895,254.083 365.009,253.608 365.125,253.225 365.433,252.479 365.586,252.19 366.42,251.103 366.615,250.921 368.391,249.941 368.633,249.878 369.11,249.899 368.697,249.857 367.894,249.695 366.682,249.323 365.942,249.015 364.824,248.417 364.163,247.977 363.174,247.173 362.604,246.61 361.777,245.617 361.319,244.943 360.687,243.78 360.388,243.069 " fill="none" stroke-width="0.5" stroke="rgb(0,0,0)" />
	<polygon points="443.115,248.931 444.005,251.26 445.185,254.184 445.187,254.188 446.54,257.553 446.562,257.607 447.949,261.203 447.988,261.309 448.455,262.622 448.658,262.205 448.721,262.082 450.248,259.203 450.3,259.108 451.982,256.126 452.019,256.061 453.631,253.321 451.937,252.465 451.794,252.389 448.339,250.471 448.095,250.325 444.618,248.07 444.264,247.813 442.02,245.995 " fill="none" stroke-width="0.5" stroke="rgb(0,0,0)" />
	<polygon points="379.62,193.458 379.771,194.925 379.771,195.772 379.62,197.244 379.451,198.064 379.02,199.439 378.702,200.187 378.02,201.434 377.575,202.09 376.674,203.179 376.119,203.733 375.029,204.633 374.374,205.077 373.395,205.611 374.128,205.838 374.877,206.153 376.273,206.909 376.935,207.356 378.151,208.357 378.712,208.918 379.714,210.132 380.161,210.795 380.918,212.189 381.234,212.939 381.712,214.479 381.878,215.293 382.044,216.948 382.045,217.778 381.878,219.438 381.713,220.251 381.235,221.795 380.92,222.545 380.163,223.942 379.716,224.605 378.714,225.821 378.153,226.383 376.937,227.386 376.274,227.833 374.878,228.59 374.128,228.905 373.845,228.993 374.261,229.117 374.998,229.415 376.158,230.021 376.82,230.45 377.824,231.248 378.394,231.797 379.218,232.758 379.681,233.419 380.3,234.515 380.635,235.277 381.024,236.479 381.203,237.321 381.338,238.601 381.343,239.424 381.207,240.87 381.054,241.664 380.664,242.978 380.348,243.749 379.729,244.912 379.259,245.611 378.434,246.604 377.835,247.193 376.83,247.997 376.137,248.447 374.976,249.045 374.225,249.343 372.934,249.715 372.164,249.86 370.898,249.977 371.088,249.985 372.114,250.353 373.472,251.159 374.562,252.128 375.018,252.605 376.137,253.975 376.309,254.201 377.421,255.772 377.463,255.831 378.383,257.179 379.426,256.089 380.643,254.811 380.802,254.652 381.989,253.533 382.45,253.157 383.576,252.365 384.81,251.774 385.849,251.473 387.356,251.325 387.657,251.351 388.563,251.532 388.818,251.613 389.885,252.131 390.095,252.274 391.006,253.114 391.175,253.325 391.72,254.213 391.848,254.497 392.095,255.214 392.184,255.577 392.276,256.087 392.329,256.536 392.355,256.886 392.372,257.426 392.367,257.792 392.328,258.484 392.474,257.959 392.584,257.659 392.937,256.929 393.084,256.688 393.657,255.951 393.837,255.767 394.619,255.14 394.827,255.011 395.723,254.594 395.955,254.518 396.838,254.332 397.089,254.307 398.952,254.551 399.929,254.917 401.224,255.695 402.19,256.55 402.655,257.033 403.617,258.211 403.767,258.407 404.723,259.73 405.594,260.919 405.887,261.262 406.913,260.576 408.143,259.627 409.426,258.594 409.506,258.531 410.715,257.607 411.042,257.381 412.091,256.727 413.111,256.269 413.35,256.198 412.639,255.759 407.695,253.862 402.266,252.338 396.876,250.833 396.475,250.698 391.663,248.808 390.79,248.337 386.912,245.605 385.81,244.455 383.224,240.425 382.62,238.85 381.679,233.066 381.635,232.109 381.77,230.181 381.82,229.77 382.177,227.688 382.223,227.459 382.728,225.263 382.751,225.167 383.328,222.904 383.891,220.668 384.356,218.553 384.663,216.624 384.775,214.845 384.765,214.426 384.729,213.974 384.673,213.578 384.6,213.239 384.514,212.957 384.419,212.724 384.318,212.531 384.077,212.174 383.392,209.421 384.637,206.871 387.229,205.717 389.334,206.124 394.641,208.705 395.461,209.231 399.094,212.216 399.821,212.989 402.235,216.326 402.414,216.633 402.347,216.16 403.847,213.751 407.024,212.913 413.757,213.925 414.224,214.023 419.682,215.5 420.412,215.774 424.857,217.935 425.692,218.473 429.385,221.537 430.031,222.209 433.235,226.395 433.593,226.949 434.783,229.159 435.096,227.052 435.389,226.023 437.134,221.963 437.531,221.244 440.054,217.59 440.448,217.103 443.433,213.934 443.801,213.589 446.931,210.985 447.295,210.715 450.257,208.756 450.695,208.503 453.171,207.27 453.992,206.964 455.666,206.535 457.045,206.444 455.328,205.668 452.853,204.958 451.416,204.79 450.401,204.96 448.43,205.67 445.565,206.862 445.49,206.893 441.901,208.303 441.674,208.385 437.364,209.796 437.043,209.887 431.922,211.117 431.546,211.189 425.524,212.06 425.125,212.098 418.112,212.428 417.391,212.399 404.626,210.769 403.508,210.463 393.221,206.026 392.242,205.432 384.194,198.87 383.506,198.155 379.493,192.843 " fill="none" stroke-width="0.5" stroke="rgb(0,0,0)" />
	<polygon points="314.636,221.291 313.987,221.731 312.296,222.658 311.552,222.976 309.694,223.564 308.87,223.735 306.889,223.941 306.034,223.941 304.048,223.735 304.039,223.733 305.512,225.19 306.734,228.972 308.463,230.917 311.219,232.556 314.866,234.141 315.019,234.211 318.819,236.048 319.564,236.511 322.829,239.057 323.837,240.197 326.122,244.012 326.665,245.519 327.082,248.256 327.578,247.628 328.572,246.643 329.294,246.071 330.411,245.373 331.118,245.02 332.286,244.57 332.924,244.381 334.072,244.14 334.645,244.06 335.701,243.988 336.479,244.009 337.455,244.126 337.232,243.942 336.674,243.384 335.199,241.598 334.753,240.939 333.639,238.891 333.323,238.142 332.618,235.882 332.452,235.066 332.206,232.642 332.206,231.805 332.259,231.282 331.582,231.65 330.835,231.965 329.524,232.373 328.709,232.539 327.304,232.681 326.464,232.681 325.07,232.539 324.251,232.371 322.948,231.963 322.2,231.645 321.018,231 320.361,230.555 319.328,229.701 318.773,229.145 317.919,228.11 317.475,227.453 316.829,226.267 316.512,225.519 316.104,224.209 315.936,223.392 315.794,221.988 315.794,221.149 315.884,220.259 " fill="none" stroke-width="0.5" stroke="rgb(0,0,0)" />
	<polygon points="405.786,224.872 407.198,228.691 409.052,232.377 411.816,236.107 414.342,238.525 417.96,241.441 417.966,241.446 422.348,244.992 422.526,245.145 424.84,247.244 422.897,244.707 416.345,237.038 410.349,230.172 410.222,230.02 405.607,224.194 405.486,224.01 " fill="none" stroke-width="0.5" stroke="rgb(0,0,0)" />
	<polygon points="462.035,210.143 462.2,210.639 462.347,211.217 462.455,211.818 462.505,212.206 462.564,212.909 462.577,213.161 462.595,213.964 462.59,214.266 462.463,216.786 462.438,217.075 462.101,219.856 462.078,220.02 461.602,222.961 461.588,223.041 461.043,226.042 461.041,226.051 460.501,228.981 460.043,231.693 459.736,234.045 459.633,235.852 459.729,237.09 459.995,238.269 460.406,239.367 460.907,240.299 461.33,240.865 461.56,240.682 463.004,239.068 464.593,236.789 466.094,234.042 467.328,231.004 468.146,227.848 468.435,224.749 467.829,219.312 466.259,215.018 463.991,211.616 461.696,209.4 " fill="none" stroke-width="0.5" stroke="rgb(0,0,0)" />
	<polygon points="364.188,228.562 364.356,229.38 364.448,230.289 364.805,230.051 365.923,229.445 366.387,229.248 365.281,228.904 364.531,228.587 364.127,228.367 " fill="none" stroke-width="0.5" stroke="rgb(0,0,0)" />
	<polygon points="337.774,210.737 337.106,211.185 335.292,212.16 334.541,212.473 333.642,212.748 334.468,213.428 335.025,213.985 335.882,215.02 336.328,215.678 336.976,216.865 337.294,217.614 337.704,218.925 337.871,219.743 337.893,219.959 339.018,219.03 339.677,218.585 341.726,217.47 342.475,217.154 343.586,216.807 343.249,216.58 342.213,215.724 341.655,215.166 340.799,214.13 340.354,213.471 339.708,212.283 339.391,211.535 338.982,210.224 338.898,209.814 " fill="none" stroke-width="0.5" stroke="rgb(0,0,0)" />
	<polygon points="357.381,215.723 356.346,216.579 355.688,217.024 354.957,217.422 355.07,217.469 357.12,218.584 357.485,218.83 357.379,217.779 357.379,216.948 357.516,215.587 " fill="none" stroke-width="0.5" stroke="rgb(0,0,0)" />
	<polygon points="320.349,212.27 320.269,212.654 320.359,212.579 321.016,212.134 321.996,211.598 321.223,211.181 320.555,210.731 320.513,210.697 " fill="none" stroke-width="0.5" stroke="rgb(0,0,0)" />
	<polygon points="360.201,203.635 360.61,204.943 360.777,205.762 360.92,207.163 360.92,208.003 360.841,208.788 361.268,208.36 362.481,207.359 363.141,206.912 364.516,206.165 364.22,206.072 363.474,205.752 362.234,205.071 361.581,204.627 360.497,203.727 360.049,203.278 " fill="none" stroke-width="0.5" stroke="rgb(0,0,0)" />
	<polygon points="355.414,194.616 354.669,194.933 352.575,195.59 351.755,195.758 349.515,195.988 348.669,195.988 346.431,195.758 345.611,195.589 343.519,194.932 343.464,194.909 343.581,195.289 343.744,196.099 343.946,198.132 345.098,197.505 345.846,197.189 347.159,196.78 347.975,196.613 349.383,196.47 350.222,196.471 351.625,196.613 352.443,196.781 353.752,197.19 354.5,197.507 355.687,198.153 356.344,198.598 357.38,199.453 357.787,199.86 357.608,199.439 357.177,198.064 357.008,197.244 356.857,195.772 356.857,194.925 356.977,193.763 " fill="none" stroke-width="0.5" stroke="rgb(0,0,0)" />
	<polygon points="314.126,195.306 313.378,195.622 312.065,196.031 311.249,196.198 310.198,196.304 311.556,196.735 312.3,197.054 313.991,197.984 314.395,198.258 314.609,196.101 314.771,195.293 314.896,194.887 " fill="none" stroke-width="0.5" stroke="rgb(0,0,0)" />
	<polygon points="320.556,185.642 320.448,186.71 320.554,186.622 321.222,186.172 321.781,185.87 321.455,185.732 320.556,185.241 " fill="none" stroke-width="0.5" stroke="rgb(0,0,0)" />
	<polygon points="367.755,163.009 367.438,163.759 366.824,164.886 366.377,165.547 365.565,166.528 365.005,167.087 364.021,167.898 363.36,168.343 362.231,168.954 361.483,169.27 360.235,169.656 359.784,169.748 360.187,170.151 361.561,171.809 362.005,172.464 363.044,174.363 363.363,175.11 364.021,177.203 364.19,178.024 364.42,180.263 364.42,181.112 364.19,183.346 364.02,184.169 363.816,184.815 364.221,184.642 365.584,184.211 366.408,184.04 367.863,183.89 368.712,183.889 370.184,184.04 371.003,184.208 372.378,184.639 373.124,184.955 374.373,185.636 375.027,186.078 375.622,186.569 372.754,180.703 372.521,180.118 369.755,171.27 369.631,170.767 368.147,162.52 368.09,162.047 368.084,161.952 " fill="none" stroke-width="0.5" stroke="rgb(0,0,0)" />
	<polygon points="333.912,183.303 333.352,183.864 332.777,184.339 334.384,184.831 334.175,184.168 334.005,183.345 333.991,183.207 " fill="none" stroke-width="0.5" stroke="rgb(0,0,0)" />
	<polygon points="346.849,157.243 346.266,158.004 342.764,161.62 342.076,162.191 337.97,164.914 337.267,165.289 332.733,167.171 332.389,167.28 333.345,168.068 333.905,168.627 334.717,169.608 335.163,170.269 335.776,171.396 336.093,172.146 336.192,172.461 336.633,171.81 338.006,170.152 338.56,169.599 340.219,168.227 340.874,167.785 342.773,166.747 343.519,166.43 345.612,165.773 346.431,165.604 348.669,165.375 348.838,165.375 348.507,164.884 347.894,163.757 347.577,163.007 347.19,161.763 347.024,160.948 346.889,159.612 346.889,158.78 347.024,157.439 347.175,156.696 " fill="none" stroke-width="0.5" stroke="rgb(0,0,0)" />
	<polygon points="314.565,121.601 312.747,122.092 311.139,122.842 309.745,123.802 308.582,124.917 307.675,126.118 307.045,127.319 306.57,128.818 304.841,131.067 303.186,131.433 303.654,131.857 305.06,132.966 306.386,133.846 307.65,134.521 308.877,135.018 310.105,135.361 311.382,135.565 312.788,135.636 313.26,135.622 313.85,135.576 314.5,135.505 315.186,135.416 315.878,135.323 315.912,135.318 316.566,135.235 316.676,135.223 317.265,135.164 317.494,135.148 318.001,135.126 318.419,135.128 318.984,135.161 319.512,135.225 320.02,135.32 320.628,135.483 321.075,135.639 321.756,135.95 322.135,136.165 322.849,136.68 323.154,136.953 323.808,137.697 324.033,138.026 324.509,138.949 324.648,139.331 324.875,140.299 324.923,140.732 324.926,141.61 324.847,142.384 324.73,143.022 324.504,143.88 324.354,144.337 324.076,145.046 326.87,144.822 329.937,144.063 332.82,142.783 335.396,140.976 337.581,138.616 337.757,138.311 337.474,138.564 334.743,140.538 332.014,141.314 328.637,139.104 328.125,138.129 327.584,137.278 326.93,136.417 326.161,135.564 325.274,134.738 324.265,133.951 323.127,133.22 321.69,132.472 321.271,132.256 320.738,131.928 320.376,131.666 319.883,131.247 319.582,130.947 319.16,130.456 318.919,130.126 318.585,129.588 318.401,129.233 318.161,128.675 318.032,128.302 317.883,127.747 317.807,127.361 317.737,126.823 317.712,126.43 317.726,125.738 317.804,124.995 317.948,124.262 318.172,123.492 318.385,122.922 318.74,122.149 318.957,121.746 318.14,121.573 317.241,121.448 316.676,121.417 " fill="none" stroke-width="0.5" stroke="rgb(0,0,0)" />
	<polygon points="206.589,27.5178 205.417,28.3034 204.837,28.6284 201.427,30.1924 201.201,30.2882 197.148,31.864 197.106,31.88 192.879,33.4713 188.99,35.0589 185.981,36.5713 184.862,37.4142 185.298,38.5832 186.91,40.7087 186.972,38.5605 187.299,37.8007 188.586,36.1474 189.496,35.449 190.32,34.9567 191.71,34.3319 192.2,34.1479 193.965,33.6091 194.299,33.5222 196.334,33.0817 196.596,33.0336 198.797,32.7037 199.034,32.6751 201.297,32.4681 201.541,32.453 203.76,32.3813 203.94,32.3794 205.54,32.3972 205.768,32.406 206.579,32.4596 206.556,43.9543 206.536,54.2674 206.294,54.2719 204.146,53.9728 203.434,53.8088 200.928,52.9933 200.498,52.8264 197.834,51.6177 197.511,51.4541 196.34,50.7943 197.681,52.133 197.715,52.1671 202.942,57.506 203.104,57.6815 206.522,61.5994 206.506,69.7518 206.506,69.7519 206.48,82.6506 206.48,82.655 205.929,82.7806 205.298,82.8742 204.17,82.9536 203.458,82.9425 199.476,82.5372 198.975,82.4548 194.285,81.3862 194.033,81.3203 188.913,79.8095 188.792,79.772 183.518,78.0401 183.49,78.0309 178.371,76.3099 173.753,74.8418 170.035,73.8673 169.904,73.8502 171.16,77.408 173.164,82.1332 173.849,83.6655 173.715,82.318 173.731,82.1227 173.837,81.4713 173.883,81.2818 174.092,80.6529 174.167,80.4753 174.492,79.8578 174.594,79.6985 175.066,79.0922 175.193,78.9575 175.846,78.3929 175.996,78.2889 176.848,77.8331 177.018,77.7661 178.021,77.5104 178.21,77.4866 179.899,77.6237 182.476,78.3831 183.276,78.7132 187.048,80.7524 187.341,80.9266 191.882,83.8873 192.044,83.9981 196.929,87.522 197.046,87.6096 201.849,91.3384 201.959,91.4269 206.254,95.0021 206.395,95.1244 206.455,95.1798 206.429,108.448 206.429,108.448 206.404,121.347 206.402,122.278 206.03,122.434 204.763,122.707 201.868,122.274 199.544,120.979 198.65,120.308 195.134,116.84 194.882,116.567 190.638,111.555 190.502,111.386 185.993,105.458 185.886,105.312 181.573,99.0976 181.459,98.9237 178.288,93.8266 180.034,98.2563 180.14,98.5592 181.604,103.322 181.747,103.966 182.303,107.937 182.338,108.708 182.296,109.599 182.248,110.058 182.117,110.884 181.983,111.455 181.753,112.198 181.469,112.89 181.133,113.535 180.615,114.305 180.164,114.836 179.373,115.554 178.799,115.954 177.824,116.456 177.119,116.708 176.151,116.927 175.307,117.015 173.804,116.895 170.445,115.994 169.407,115.558 165.393,113.182 164.997,112.916 160.574,109.558 160.415,109.431 155.829,105.581 155.801,105.557 151.343,101.748 147.368,98.5514 144.4,96.5938 144.277,96.5542 143.744,98.4425 143.185,101.482 142.607,104.711 142.534,105.04 141.787,107.866 141.412,108.804 141.26,109.081 144.837,108.268 145.455,108.175 149.584,107.873 150.354,107.888 155.23,108.441 156.201,108.671 160.459,110.243 161.353,110.702 164.983,113.167 165.697,113.78 168.689,117.011 169.194,117.68 171.538,121.549 171.862,122.209 173.549,126.591 173.734,127.214 174.673,131.605 175.017,131.231 175.315,130.938 178.176,128.393 178.565,128.087 181.565,126 182.073,125.698 185.193,124.132 185.841,123.872 189.063,122.887 189.849,122.728 193.153,122.386 194.041,122.39 198.073,122.84 199.056,123.073 202.511,124.355 203.438,124.839 206.327,126.85 206.393,126.909 206.353,147.145 206.328,160.043 206.302,172.942 206.297,175.587 205.732,176.625 205.337,177.221 203.555,179.463 203.032,180.011 200.891,181.876 200.233,182.345 197.764,183.764 196.985,184.111 194.222,185.014 193.365,185.197 190.342,185.513 189.298,185.49 183.971,184.696 182.769,184.324 178.277,182.142 177.351,181.526 175.2,179.634 175.962,180.73 176.218,181.15 177.686,183.908 177.923,184.441 178.961,187.301 178.961,188.424 180.387,187.992 180.823,187.885 184.674,187.159 185.177,187.096 189.121,186.843 189.708,186.847 193.013,187.104 193.678,187.21 196.743,187.959 197.424,188.19 200.187,189.402 200.866,189.779 203.264,191.423 203.905,191.965 205.878,194.011 206.26,194.503 206.251,198.74 206.226,211.639 206.216,216.732 206.069,216.997 205.969,217.167 205.143,218.499 202.914,220.254 200.078,220.167 197.616,217.419 196.975,215.103 196.176,213.58 195.103,212.343 193.655,211.287 191.716,210.392 189.223,209.703 186.167,209.267 182.534,209.116 180.282,209.167 179.513,209.218 179.943,209.422 180.616,209.821 183.514,211.937 184.211,212.579 186.183,214.867 186.747,215.71 187.956,218.111 188.278,218.982 188.885,221.437 188.996,222.151 189.163,224.601 189.14,225.4 188.652,229.273 188.392,230.286 187.045,233.68 186.607,234.5 184.572,237.46 184.098,238.032 181.547,240.604 181.131,240.97 178.236,243.197 177.914,243.421 174.847,245.351 174.627,245.48 171.559,247.155 171.445,247.215 168.549,248.683 165.732,249.023 163.355,247.474 162.614,244.118 162.859,242.966 163.075,241.843 163.267,240.716 163.431,239.586 163.563,238.451 163.662,237.312 163.723,236.169 163.743,235.083 163.637,232.916 163.299,230.787 162.682,228.631 161.729,226.426 160.369,224.152 158.521,221.798 157.288,220.558 156.196,222.585 156.117,222.725 154.915,224.764 153.857,226.606 153.086,228.188 152.649,229.505 152.593,229.982 153.702,230.495 154.924,233.615 154.864,235.042 154.852,235.227 154.693,237.049 154.685,237.136 154.46,239.208 154.455,239.248 154.198,241.424 154.197,241.434 153.94,243.558 153.721,245.461 153.574,246.95 153.528,247.822 153.567,249.065 153.66,249.851 153.803,249.891 156.689,252.749 157.154,254.373 157.232,254.695 157.598,256.506 157.633,256.706 157.925,258.635 157.94,258.746 158.184,260.724 158.189,260.763 158.411,262.704 158.63,264.499 158.864,266.031 159.04,266.854 161.3,267.82 162.324,269.33 162.865,270.708 163.438,272.155 164.041,273.589 164.681,274.956 165.356,276.199 166.053,277.258 166.741,278.081 167.664,278.895 167.913,279.11 168.205,279.39 168.475,279.673 168.71,279.942 168.972,280.271 169.18,280.555 169.423,280.918 169.619,281.243 169.83,281.63 170.02,282.028 170.185,282.429 170.358,282.939 170.467,283.344 170.588,284.015 170.627,284.413 170.585,285.532 170.377,286.721 170.02,287.824 169.446,289.001 169.001,289.718 168.137,290.838 167.699,291.322 166.62,292.34 166.185,292.698 164.967,293.568 164.493,293.861 163.211,294.538 162.629,294.791 161.359,295.23 160.547,295.422 159.363,295.579 158.475,295.601 158.118,295.571 157.418,295.452 157.012,295.346 156.315,295.096 155.868,294.89 155.24,294.53 154.761,294.197 154.246,293.774 153.745,293.29 153.354,292.854 152.84,292.194 152.558,291.781 152.041,290.92 151.843,290.549 151.457,289.726 151.097,289.176 150.22,288.254 148.788,286.943 147.098,285.456 147.051,285.414 145.357,283.876 145.196,283.722 143.707,282.217 143.384,281.851 142.28,280.435 141.734,279.508 141.192,278.236 141.04,275.403 141.642,274.308 141.64,274.307 141.692,274.2 141.698,274.178 141.714,274.091 141.717,274.066 141.557,273.165 140.998,271.909 139.937,270.141 138.569,268.041 138.51,267.947 137.1,265.651 136.93,265.346 135.7,262.902 135.47,262.35 134.601,259.742 134.416,258.917 134.086,256.129 134.736,253.367 135.767,252.411 135.779,252.398 135.784,252.382 135.785,252.377 135.659,251.21 135.238,249.466 134.56,247.271 133.739,244.805 133.729,244.775 132.894,242.201 132.85,242.057 132.121,239.5 132.05,239.214 131.535,236.756 131.462,236.259 131.266,233.982 132.004,231.242 134.442,229.945 134.593,228.04 134.61,227.866 134.911,225.399 134.945,225.172 135.404,222.594 135.466,222.309 136.123,219.697 136.228,219.346 137.123,216.774 137.298,216.351 137.732,215.441 137.022,215.49 132.981,216.275 128.748,217.615 124.537,219.514 120.549,221.965 116.966,224.955 113.945,228.47 113.113,229.917 115.883,227.307 116.283,226.976 124.204,221.194 126.929,220.405 129.524,221.552 130.776,224.098 130.342,226.442 129.183,228.698 128.31,230.907 127.608,233.225 127.071,235.586 126.684,237.922 126.432,240.168 126.296,242.257 126.261,243.873 127.69,254.118 131.479,264.172 136.992,274.176 143.448,283.959 149.994,293.348 150.067,293.457 155.804,302.269 156.037,302.675 160.094,310.778 160.444,311.78 161.983,319.086 162.056,320.308 161.804,323.149 161.68,323.85 160.93,326.665 160.688,327.336 159.45,330.016 159.077,330.665 157.362,333.101 156.836,333.713 154.655,335.798 153.964,336.332 151.327,337.956 150.493,338.349 147.411,339.403 146.509,339.603 142.991,339.978 142.133,339.981 139.046,339.669 138.189,339.489 135.487,338.618 134.684,338.26 132.376,336.926 131.691,336.43 129.784,334.728 129.242,334.142 127.746,332.17 127.344,331.526 126.265,329.382 125.991,328.687 125.338,326.466 125.19,325.707 124.97,323.506 124.964,322.751 125.101,321.098 125.204,320.461 125.575,318.936 125.75,318.387 125.998,317.761 125.246,318.756 124.727,319.323 123.048,320.848 122.4,321.331 120.471,322.494 119.69,322.86 117.555,323.601 116.661,323.804 114.497,324.05 116.241,324.802 116.944,325.19 118.73,326.416 119.327,326.913 120.871,328.468 121.363,329.065 122.608,330.904 122.986,331.595 123.878,333.674 124.123,334.449 124.606,336.724 124.696,337.624 124.676,339.862 124.589,340.667 124.152,342.774 123.911,343.547 123.09,345.489 122.711,346.19 121.537,347.934 121.047,348.533 119.552,350.047 118.981,350.529 117.198,351.78 116.573,352.141 114.533,353.095 114.133,353.242 114.187,353.688 114.217,354.14 114.246,356.494 114.174,357.311 113.763,359.501 113.525,360.307 112.708,362.3 112.311,363.043 111.125,364.805 110.595,365.444 109.076,366.941 108.449,367.449 106.63,368.65 105.945,369.015 103.862,369.886 103.151,370.11 100.84,370.617 100.148,370.709 97.8518,370.818 97.1171,370.788 94.9944,370.511 94.2341,370.337 92.3045,369.702 91.5696,369.378 89.8523,368.414 89.1938,367.955 87.7081,366.689 87.1633,366.128 85.9285,364.59 85.5151,363.968 85.2804,363.534 85.1058,363.578 84.314,363.754 84.1319,363.79 83.3121,363.934 83.136,363.961 82.2945,364.072 81.7955,364.108 79.4821,364.133 78.6578,364.059 76.4595,363.638 75.6856,363.41 73.6507,362.588 72.952,362.226 71.9147,361.555 76.4903,368.205 77.1747,369.936 78.4289,378.218 78.2463,380.2 74.4938,391.012 72.7032,393.212 69.9171,393.749 68.0689,392.788 62.1146,384.044 52.5996,367.055 44.822,349.848 38.7816,332.675 38.3081,330.818 41.1768,321.578 41.4131,320.983 45.6097,312.414 45.8218,312.033 50.6326,304.369 50.7522,304.189 55.55,297.363 59.6114,291.448 62.2056,286.673 63.0773,282.878 63.0716,282.754 63.0074,282.321 62.907,281.942 62.7669,281.588 62.5731,281.231 62.3027,280.849 61.9287,280.426 61.2926,279.837 61.2829,279.828 59.3608,278.038 59.115,277.788 57.601,276.118 57.4478,275.939 56.225,274.426 56.2032,274.399 55.2406,273.187 54.5774,272.457 54.2349,272.188 54.1254,272.142 53.6843,272.748 53.1997,273.856 52.8969,275.259 52.8824,276.825 53.2298,278.475 54.1213,280.381 54.4842,280.954 54.9589,281.687 54.9863,281.73 55.4314,282.435 55.5164,282.576 55.908,283.255 56.0458,283.515 56.3715,284.186 56.5383,284.58 56.7861,285.261 56.9375,285.78 57.0951,286.49 57.1828,287.087 57.238,287.844 57.199,288.789 56.8578,290.965 56.6741,291.696 55.7285,294.392 55.5492,294.823 54.1162,297.79 53.932,298.13 52.1285,301.117 51.9024,301.453 49.8452,304.211 49.5086,304.608 47.3148,306.887 46.7059,307.408 44.4923,308.959 43.1947,309.566 41.0783,310.138 38.7491,310.091 36.78,309.471 35.0913,308.447 33.2728,306.629 32.9694,306.226 31.9016,299.45 31.0405,283.792 31.0405,237.548 32.5505,234.078 33.0321,233.249 34.8706,230.79 36.5216,229.477 38.4983,228.607 40.5357,228.271 41.076,228.319 41.9292,228.485 42.3775,228.623 43.3091,229.04 43.6717,229.26 44.5096,229.929 44.7925,230.223 45.3903,231.013 45.5997,231.373 45.9428,232.125 46.0847,232.542 46.2455,233.172 46.3262,233.639 46.3817,234.138 46.4072,234.646 46.4104,234.983 46.3806,235.943 46.3735,236.089 46.2949,237.272 46.2913,237.321 46.1805,238.734 46.0551,240.368 45.9312,242.228 45.8238,244.334 45.8106,244.745 46.7585,239.37 46.7778,239.268 48.1271,232.595 48.2171,232.233 49.9496,226.411 50.3139,225.554 52.1655,222.276 49.923,223.581 49.636,223.733 46.947,225.027 46.5798,225.183 44.0523,226.112 43.5793,226.255 41.2195,226.816 40.6153,226.913 38.4294,227.101 37.5922,227.088 35.0559,226.792 33.9934,226.522 31.7616,225.627 31.0405,225.212 31.0405,202.074 32.1214,203.6 33.7881,205.55 35.3645,207.023 36.8656,208.091 38.3349,208.838 39.8477,209.337 41.4898,209.628 43.367,209.727 44.895,209.686 46.5652,209.559 48.3408,209.351 50.2328,209.063 52.2507,208.7 54.4038,208.266 56.701,207.768 59.1627,207.208 61.2833,207.475 60.6661,206.398 60.3099,205.586 59.6726,203.57 59.4995,202.727 59.2776,200.479 59.2865,199.581 59.4417,198.276 58.365,199.538 58.1174,199.804 56.3588,201.533 56.0656,201.795 54.2854,203.24 53.941,203.492 52.1541,204.661 51.753,204.892 49.9744,205.79 49.5131,205.989 47.7576,206.623 47.2352,206.774 45.5179,207.149 44.939,207.234 43.2747,207.358 42.5494,207.348 40.4583,207.137 39.5896,206.953 37.6651,206.326 36.8178,205.94 35.0945,204.907 34.3538,204.341 32.8663,202.913 32.2948,202.233 31.0777,200.42 31.0405,200.351 31.0405,164.811 31.186,164.198 31.3178,163.754 32.8899,159.371 33.1559,158.78 35.5824,154.347 36.0282,153.69 39.5676,149.422 40.1857,148.818 44.9645,145.033 44.6909,145.089 44.1602,145.162 41.8663,145.327 41.1827,145.319 38.4494,145.064 37.6722,144.915 35.1368,144.175 34.3883,143.875 32.1021,142.688 31.4159,142.241 31.0405,141.94 31.0405,112.945 32.6746,111.751 33.2027,111.423 35.4556,110.248 38.2682,109.875 40.6633,111.396 41.4816,114.527 41.4348,114.847 41.4069,115.093 41.3863,115.341 41.3716,115.601 41.3621,115.881 41.3567,116.188 41.3546,116.528 41.3544,116.753 41.5793,119.903 42.2015,122.619 43.2039,125.052 44.5755,127.221 46.3258,129.144 48.4794,130.822 51.0645,132.24 54.2327,133.411 52.8035,132.683 52.1268,132.251 48.7198,129.58 48.0301,128.895 45.3709,125.546 44.8031,124.592 43.0739,120.534 42.7756,119.436 42.1587,114.638 42.1433,113.718 42.3673,111.351 42.5157,110.577 43.1642,108.359 43.4574,107.625 44.4954,105.608 44.9272,104.937 46.3195,103.172 46.6864,102.791 46.5156,102.866 41.5022,104.826 40.7451,105.041 36.72,105.785 35.7189,105.846 35.0266,105.805 34.4678,105.733 33.8344,105.608 33.1835,105.423 32.6191,105.211 31.8935,104.855 31.4086,104.555 31.0405,104.265 31.0405,91.8166 33.8589,87.5565 34.1062,87.2207 38.8899,81.3656 39.0031,81.2328 39.2678,80.9353 38.5591,81.4145 38.1313,81.6678 35.4589,83.0412 34.5296,83.3857 32.4041,83.8953 31.0405,83.95 31.0405,61.9047 31.1447,61.8264 31.7045,61.4718 32.9147,60.8345 33.3505,60.6362 34.7417,60.0977 35.0881,59.9809 36.2958,59.632 33.3648,59.4454 32.7698,59.364 31.0405,58.9984 31.0405,43.4608 33.5123,41.6507 33.7141,41.5119 38.1741,38.6338 38.2291,38.599 42.6474,35.845 45.9236,33.6935 44.075,33.1481 39.8647,32.1059 39.8427,32.1004 35.5433,31.0112 35.3154,30.9465 31.5649,29.7649 31.0405,29.5514 31.0405,23.6939 38.4141,23.6374 61.3974,23.461 72.8891,23.3728 79.0496,23.3256 79.4465,24.0498 79.6973,27.4909 78.8933,29.6534 77.9657,31.1137 75.846,33.2741 75.3074,33.7364 72.3106,35.8925 72.0883,36.0418 68.6529,38.1916 68.6467,38.1955 65.3181,40.2702 62.7069,42.1268 62.3548,42.4785 62.4137,42.5042 65.986,43.1668 70.6181,43.6498 74.1556,43.9886 74.0928,43.8994 73.9111,43.5371 73.5159,42.2868 73.4526,41.861 73.9738,39.1585 74.7322,37.8597 76.1904,36.388 78.1898,35.1956 78.7405,34.9204 81.5673,33.761 81.7009,33.7089 84.8817,32.5308 87.8647,31.3208 90.0709,30.1483 90.9005,29.4165 90.8985,29.4136 90.5084,29.1275 89.5865,28.7119 88.2744,28.2704 88.2598,28.2654 86.9455,27.8177 86.3142,27.5422 85.3845,27.0409 83.6846,25.3264 83.332,24.6588 83.3223,23.2928 84.3808,23.2847 95.8724,23.1965 107.364,23.1083 114.47,23.0538 115.062,23.7642 116.133,24.764 117.158,25.2915 118.804,25.5284 120.386,25.3019 121.447,24.772 122.588,23.7694 123.298,22.986 130.347,22.932 141.839,22.8438 153.331,22.7556 153.425,22.7549 153.508,24.0728 153.14,24.8918 151.742,26.5871 150.773,27.2687 150.134,27.638 148.764,28.2744 148.671,28.316 147.238,28.9399 146.118,29.5262 145.533,29.9763 145.477,30.0555 145.485,30.0772 146.38,31.0511 148.419,32.5631 151.105,34.2413 153.932,35.9503 154.101,36.058 156.589,37.7316 157.092,38.1292 158.852,39.7579 159.859,41.1972 160.527,42.7872 160.825,44.8592 160.777,45.2774 160.52,46.3185 160.387,46.6609 159.825,47.6646 159.618,47.9373 158.864,48.7008 158.595,48.91 157.836,49.3798 157.518,49.5318 156.864,49.7796 156.509,49.8805 155.98,49.9945 155.602,50.0505 155.178,50.0911 154.787,50.1084 154.247,50.0971 153.028,49.9919 152.581,49.9285 151.177,49.6511 150.96,49.602 149.417,49.2098 149.34,49.1896 147.717,48.744 146.11,48.3158 144.609,47.9676 143.288,47.7454 142.205,47.6726 141.769,47.701 141.496,47.7596 141.488,47.839 141.626,49.0278 142.081,50.6468 142.821,52.5962 143.738,54.721 144.692,56.8732 144.735,56.9739 145.239,58.1969 145.265,57.6835 145.32,57.1858 145.478,56.272 145.637,55.6483 145.91,54.8418 146.245,54.0998 146.641,53.4128 147.226,52.6287 147.753,52.0732 148.582,51.3998 149.248,50.988 150.184,50.5595 150.997,50.3035 151.867,50.1291 152.836,50.041 153.702,50.0532 156.288,50.3613 156.861,50.4708 159.924,51.2832 160.196,51.3653 163.574,52.5138 163.688,52.5544 167.219,53.8709 167.223,53.8721 170.692,55.1686 173.859,56.2533 176.178,56.877 174.742,54.7951 171.574,51.253 167.747,47.3935 163.844,43.515 163.74,43.4079 160.326,39.762 160.037,39.417 157.622,36.2005 157.026,35.0875 156.11,32.4866 156.295,29.2879 157.348,27.1307 158.65,25.5851 161.564,23.4831 162.295,23.0615 163.146,22.6803 164.822,22.6674 176.314,22.5792 187.806,22.4911 206.599,22.3469 " fill="none" stroke-width="0.5" stroke="rgb(0,0,0)" />
	<polygon points="54.6304,335.684 55.5393,343.135 59.3066,349.194 65.1438,354.97 67.6154,357.328 67.1838,356.724 66.7823,356.028 65.8821,354.045 65.616,353.258 65.1198,351.096 65.0149,350.21 64.9896,347.748 65.0829,346.829 65.5743,344.554 65.8484,343.722 66.7768,341.666 67.1788,340.966 68.4647,339.16 68.9496,338.595 70.1527,337.423 70.0331,337.414 69.8377,337.394 66.4921,336.983 66.1279,336.922 63.2575,336.306 62.6977,336.144 60.229,335.238 59.5259,334.901 57.3851,333.618 56.7,333.105 55.7453,332.221 " fill="none" stroke-width="0.5" stroke="rgb(0,0,0)" />
	<polygon points="75.7189,301.878 73.6681,306.677 72.0691,311.117 71.0635,314.973 70.7171,318.18 70.7549,319.518 70.9061,320.952 71.1992,322.334 71.6782,323.725 72.4086,325.191 73.4749,326.783 74.9681,328.53 75.9398,329.456 76.1188,328.431 76.3222,327.684 77.0831,325.66 77.4316,324.948 78.536,323.15 79.0201,322.51 80.4378,320.971 81.0359,320.436 82.737,319.189 83.418,318.784 85.3723,317.86 86.0992,317.597 88.2766,317.029 89.0494,316.904 91.4832,316.744 92.3268,316.774 94.5739,317.086 95.3933,317.286 97.4356,318.012 98.1665,318.355 99.9857,319.437 100.596,319.879 102.174,321.258 102.66,321.761 103.979,323.379 104.353,323.922 104.409,324.018 104.431,324.01 104.699,323.921 105.493,323.687 105.76,323.618 106.582,323.434 106.851,323.383 107.696,323.251 108.283,323.202 108.767,323.197 107.94,322.922 107.075,322.519 105.351,321.46 104.625,320.893 103.27,319.57 102.731,318.926 101.72,317.43 101.358,316.774 100.666,315.199 100.444,314.552 100.047,312.989 99.9346,312.326 99.8077,310.867 99.7976,310.295 99.8008,310.233 99.1685,310.701 96.8842,312.017 96.0413,312.385 93.5268,313.164 92.6929,313.331 90.0053,313.588 89.2105,313.587 87.4524,313.417 86.675,313.266 84.9713,312.761 84.2365,312.465 82.6425,311.637 81.9657,311.197 80.5366,310.057 79.9438,309.477 78.7351,308.034 78.2616,307.334 77.3286,305.598 77.0073,304.819 76.4053,302.801 76.2505,302.004 76.1524,300.962 " fill="none" stroke-width="0.5" stroke="rgb(0,0,0)" />
	<polygon points="123.048,281.734 125.292,288.024 125.341,288.171 127.3,294.386 127.389,294.715 128.774,300.823 128.861,301.377 129.387,307.348 129.383,308.11 129.154,310.492 129.007,311.257 128.347,313.514 128.196,313.897 128.49,313.542 129.18,312.814 129.715,312.338 130.329,311.88 131.501,311.269 131.979,311.11 133.684,310.917 133.864,310.935 134.922,311.179 135.072,311.235 136.274,311.933 136.395,312.034 137.262,313.029 137.356,313.181 137.769,314.056 137.839,314.265 137.992,314.87 138.04,315.143 138.088,315.529 138.115,315.871 138.128,316.113 138.133,316.376 138.173,316.791 138.243,317.041 138.372,317.306 138.545,317.54 138.751,317.727 139.007,317.876 139.372,317.993 139.949,318.051 140.478,318.003 140.885,317.885 141.185,317.729 141.413,317.543 141.594,317.321 141.737,317.046 141.838,316.701 141.855,316.518 140.822,311.682 137.773,305.355 133.149,297.606 127.738,288.732 127.647,288.574 122.226,278.731 122.061,278.397 121.061,276.119 " fill="none" stroke-width="0.5" stroke="rgb(0,0,0)" />
	<polygon points="107.217,291.993 107.208,292.266 106.931,296.472 106.843,297.092 106.051,300.692 105.83,301.393 105.576,302.004 107.706,302.165 107.989,302.323 109.589,303.917 109.822,304.333 110.024,304.744 110.229,305.226 110.257,305.284 110.288,305.288 110.813,305.238 111.036,305.162 111.089,305.126 111.189,305.008 111.388,304.605 111.614,303.81 111.781,302.617 111.84,301.134 111.512,296.35 110.642,291.798 109.371,287.266 107.86,282.643 107.858,282.637 107.217,280.668 " fill="none" stroke-width="0.5" stroke="rgb(0,0,0)" />
	<polygon points="91.3905,270.044 91.3413,270.156 88.4435,276.484 88.3884,276.6 85.4748,282.477 85.4395,282.546 83.0841,287.081 80.8438,291.405 82.9507,291.342 83.4667,291.499 84.8391,292.221 85.3606,292.635 85.7632,293.001 86.3284,293.586 86.8528,294.128 87.2462,294.47 87.5361,294.652 87.7979,294.748 88.1653,294.79 89.4685,294.611 90.057,294.295 90.5891,293.649 91.2152,292.125 91.7433,289.558 92.0795,286.03 92.2373,281.634 92.2744,276.41 92.2802,276.218 92.6329,269.63 92.6839,269.167 93.2885,265.555 " fill="none" stroke-width="0.5" stroke="rgb(0,0,0)" />
	<polygon points="107.914,208.393 107.189,209.011 105.023,210.465 104.123,210.921 101.545,211.855 100.586,212.078 97.5879,212.408 96.6734,212.407 93.4841,212.051 92.5533,211.836 89.6891,210.817 88.84,210.4 86.3317,208.792 85.6355,208.231 85.0468,207.641 85.3715,208.395 83.5252,212.091 82.9602,212.467 82.5911,212.685 81.9444,213.025 81.5911,213.189 80.8626,213.488 80.5292,213.608 79.7188,213.862 79.4065,213.947 78.5141,214.152 78.2235,214.208 77.2489,214.359 76.9789,214.392 75.9221,214.486 75.6718,214.501 74.5325,214.533 74.0711,214.521 71.841,214.335 71.1339,214.214 69.0622,213.672 68.349,213.414 66.4786,212.535 65.787,212.124 64.1606,210.93 63.9631,210.752 64.0496,212.476 62.7304,214.451 59.4573,217.161 59.3075,217.28 58.2417,218.083 59.9269,217.801 60.7089,217.904 61.8976,218.247 62.5419,218.542 63.5955,219.237 64.1123,219.705 64.8145,220.531 65.2142,221.151 65.5933,221.892 65.8862,222.642 66.0664,223.228 66.2629,224.089 66.3393,224.534 66.4496,225.485 66.4749,225.823 66.5093,226.844 66.5058,227.205 66.333,230.447 66.304,230.762 65.8483,234.257 65.8195,234.444 65.6894,235.178 67.6004,229.569 67.6838,229.346 70.2872,222.936 70.5543,222.395 73.2189,217.861 74.5596,216.469 77.2465,214.749 80.0122,214.128 80.8074,214.23 81.8955,214.524 82.5778,214.813 83.5229,215.37 84.0943,215.818 84.7799,216.499 85.2427,217.081 85.6808,217.757 86.0371,218.445 86.2951,219.06 86.5469,219.828 86.6864,220.378 86.8359,221.199 86.8961,221.701 86.9454,222.549 86.923,223.284 86.4653,227.102 86.3747,227.599 85.1683,232.504 85.1087,232.721 83.403,238.326 83.3733,238.42 81.418,244.339 81.4131,244.353 80.8314,246.092 82.3866,242.54 84.059,238.24 85.3312,234.414 85.3579,234.336 85.9713,232.607 86.0738,232.346 86.7281,230.834 86.8734,230.532 87.5605,229.241 87.773,228.886 88.4847,227.82 88.8066,227.399 89.5348,226.563 90.0371,226.076 90.7737,225.474 91.5611,224.967 92.2979,224.603 93.4503,224.23 94.1792,224.108 95.4448,224.091 96.0885,224.182 97.2025,224.502 97.8142,224.775 98.7398,225.344 99.3028,225.802 99.9688,226.485 100.467,227.129 100.895,227.812 101.311,228.645 101.562,229.269 101.88,230.293 102.01,230.84 102.213,232.056 102.264,232.53 102.335,233.94 102.322,234.544 101.931,238.64 101.855,239.125 100.76,244.182 100.688,244.464 100.27,245.898 103.41,240.763 103.732,240.307 108.278,234.724 106.397,234.729 104.218,232.912 103.707,231.478 103.583,230.7 103.572,230.627 103.465,229.866 103.455,229.789 103.364,229.045 103.355,228.964 103.28,228.236 103.273,228.15 103.215,227.438 103.208,227.348 103.167,226.653 103.163,226.558 103.138,225.878 103.135,225.779 103.127,225.115 103.138,224.756 103.441,220.679 103.533,220.066 104.374,216.366 104.55,215.789 105.83,212.481 106.076,211.956 107.694,209.059 107.998,208.59 109.116,207.101 " fill="none" stroke-width="0.5" stroke="rgb(0,0,0)" />
	<polygon points="124.048,195.355 123.317,195.465 122.752,195.622 122.359,195.796 122.116,195.957 121.972,196.1 121.862,196.265 121.604,196.902 119.707,199.012 116.898,199.409 114.49,197.909 113.69,196.16 113.666,196.513 113.585,197.095 113.012,199.789 112.828,200.411 111.866,202.92 111.541,203.584 110.335,205.576 112.203,203.673 112.625,203.298 114.654,201.729 115.176,201.385 117.142,200.292 117.566,200.086 118.573,199.668 118.881,199.553 119.935,199.21 120.217,199.13 121.316,198.856 121.567,198.802 122.709,198.591 122.929,198.557 124.112,198.404 124.3,198.384 125.522,198.282 125.68,198.272 126.94,198.216 127.07,198.212 128.366,198.194 128.529,198.195 130.671,198.251 130.854,198.259 133.085,198.415 133.228,198.427 134.618,198.573 134.614,198.571 132.017,197.159 129.482,196.136 127.095,195.526 124.823,195.319 " fill="none" stroke-width="0.5" stroke="rgb(0,0,0)" />
	<polygon points="37.9253,186.978 37.7979,187.001 39.0738,188.083 40.678,189.078 42.4491,189.87 44.3676,190.47 46.4016,190.884 48.5109,191.121 50.6963,191.198 51.3533,191.191 52.0738,191.169 52.7986,191.133 53.5192,191.081 54.2271,191.016 54.9138,190.937 55.5701,190.846 56.248,190.733 59.0375,191.251 60.7112,193.282 60.8846,192.81 61.2661,192.033 62.7581,189.658 63.2004,189.075 64.3019,187.863 63.7069,188.082 63.5004,188.152 61.636,188.73 61.4044,188.795 59.6302,189.234 59.3733,189.289 57.6835,189.596 57.4024,189.637 55.7911,189.816 55.4893,189.839 53.9504,189.897 53.578,189.895 51.1179,189.767 50.7281,189.729 48.4458,189.392 48.1439,189.337 46.0212,188.861 45.8277,188.813 43.8463,188.269 43.7791,188.249 41.9616,187.717 40.3807,187.288 39.0904,187.028 38.091,186.949 " fill="none" stroke-width="0.5" stroke="rgb(0,0,0)" />
	<polygon points="109.161,155.07 108.994,155.887 108.584,157.198 108.268,157.946 107.621,159.133 107.177,159.791 106.322,160.827 105.766,161.384 104.731,162.24 104.073,162.685 102.887,163.332 102.139,163.649 100.831,164.059 100.013,164.227 98.611,164.369 97.7714,164.37 96.3643,164.227 95.5483,164.06 94.2355,163.651 93.488,163.335 92.2983,162.688 91.6404,162.243 90.6025,161.387 90.0453,160.831 89.5639,160.249 88.968,162.297 88.8467,162.653 87.5953,165.844 87.4448,166.182 85.6364,169.804 85.4314,170.168 83.0332,173.962 82.7422,174.367 79.7216,178.073 79.3041,178.515 76.0355,181.502 77.3231,181.531 79.352,183.31 79.9308,181.252 80.046,180.903 81.0622,178.226 81.1928,177.92 82.3891,175.399 82.5323,175.124 83.8594,172.794 84.017,172.539 85.4256,170.435 85.6047,170.188 87.0457,168.345 89.452,166.842 91.7556,167.009 95.0985,168.247 95.5582,168.449 98.9337,170.188 99.3653,170.444 102.626,172.659 103.052,172.991 106.05,175.657 106.475,176.095 109.064,179.188 109.469,179.765 111.501,183.26 111.839,184 113.149,187.823 113.221,186.193 113.267,185.739 113.683,183.062 113.822,182.464 114.541,180.16 114.857,179.414 115.899,177.496 116.482,176.678 117.868,175.161 118.721,174.448 120.472,173.346 121.438,172.9 123.574,172.228 123.817,172.179 123.307,172.021 122.471,171.659 118.89,169.61 118.151,169.071 115.258,166.427 114.681,165.775 112.458,162.664 112.057,161.969 110.49,158.52 110.246,157.825 109.317,154.167 109.277,153.925 " fill="none" stroke-width="0.5" stroke="rgb(0,0,0)" />
	<polygon points="162.921,162.713 162.694,162.909 159.106,165.796 158.78,166.034 154.993,168.515 154.564,168.761 150.491,170.784 149.98,170.996 145.531,172.507 144.981,172.653 140.069,173.598 139.533,173.666 135.717,173.894 136.79,174.353 137.53,174.763 141.146,177.282 141.642,177.688 145.036,180.933 145.367,181.289 148.516,185.1 148.743,185.402 149.254,186.15 149.412,183.915 149.452,183.564 150.059,179.708 150.206,179.088 151.164,176.092 151.638,175.094 153.029,172.956 154.189,171.777 156.092,170.495 157.711,169.847 160.205,169.42 161.703,169.438 163.43,169.776 164.454,170.119 166.414,171.077 167.008,171.431 169.091,172.921 169.494,173.249 170.467,174.149 170.021,173.548 169.674,172.994 167.297,168.44 167.096,167.994 165.293,163.247 165.175,162.889 164.671,161.083 " fill="none" stroke-width="0.5" stroke="rgb(0,0,0)" />
	<polygon points="200.88,159.743 200.911,161.021 201.01,162.255 201.179,163.32 201.336,163.901 201.456,163.838 201.657,163.708 201.846,163.562 202.137,163.295 203.465,162.745 203.085,162.536 202.556,162.03 201.658,160.773 201.298,159.992 201.021,159.184 200.917,158.732 " fill="none" stroke-width="0.5" stroke="rgb(0,0,0)" />
	<polygon points="83.7667,147.498 84.0225,148.079 84.4036,148.689 84.8633,149.228 85.3488,149.656 85.9773,150.111 86.698,150.611 86.9722,150.819 87.2723,151.066 87.3669,150.605 87.7762,149.297 88.0782,148.585 87.2639,148.502 86.445,148.334 85.1361,147.924 84.3871,147.606 83.6825,147.222 " fill="none" stroke-width="0.5" stroke="rgb(0,0,0)" />
	<polygon points="123.37,106.209 121.894,111.544 120.303,117.909 120.284,117.981 118.558,124.396 118.477,124.662 116.56,130.258 116.271,130.912 114.097,134.87 112.596,136.43 110.097,137.931 106.026,138.045 103.389,136.657 101.591,134.8 99.8101,131.138 99.4936,130.235 98.327,125.059 98.2621,124.697 97.4684,118.762 97.4574,118.672 96.8035,112.814 96.0882,108.022 95.9006,107.411 94.6085,108.568 92.5912,110.529 92.5218,110.595 90.3451,112.616 90.0717,112.849 87.8085,114.612 87.2111,115 84.873,116.247 83.7221,116.657 81.3208,117.13 80.0776,117.184 78.8808,117.056 77.856,116.812 77.1404,116.542 77.6186,119.356 77.6705,119.815 77.8592,123.13 77.8649,123.459 77.8332,124.885 77.8253,125.065 77.7342,126.453 77.7195,126.623 77.5753,127.97 77.5548,128.132 77.3636,129.433 77.3383,129.585 77.1063,130.837 77.0769,130.982 76.8103,132.181 76.7775,132.317 76.4826,133.46 76.4468,133.589 76.1297,134.671 74.449,136.957 71.9055,137.647 67.3301,137.38 66.8355,137.321 62.2788,136.499 61.7395,136.364 57.3838,134.957 56.7759,134.706 54.4149,133.503 56.5264,135.292 57.0069,138.089 55.8009,139.997 57.4206,139.55 57.734,139.477 60.2292,138.993 60.5129,138.948 62.9155,138.653 63.157,138.631 65.4642,138.484 65.6532,138.476 67.8622,138.436 67.961,138.435 68.4846,138.438 68.5312,138.439 69.0507,138.447 69.0973,138.449 69.6087,138.463 69.6567,138.465 70.1558,138.484 70.2065,138.487 70.6894,138.512 70.744,138.515 71.2066,138.545 71.2673,138.55 71.7055,138.585 71.7752,138.591 72.1849,138.631 72.2155,138.634 73.3506,138.752 74.4127,138.855 74.4341,138.857 75.4261,138.959 75.5139,138.969 76.4082,139.08 76.5894,139.106 77.3737,139.239 77.6962,139.306 78.1319,139.416 78.1173,139.344 77.9747,137.941 77.9747,137.102 78.1173,135.699 78.2842,134.883 78.6927,133.573 79.0087,132.826 79.6545,131.638 80.0983,130.98 80.9529,129.944 81.5086,129.387 82.5433,128.53 83.201,128.085 84.3871,127.437 85.136,127.119 86.4449,126.709 87.264,126.541 88.6671,126.398 89.508,126.398 90.913,126.541 91.731,126.709 93.0419,127.118 93.7901,127.436 94.978,128.083 95.6356,128.528 96.6719,129.385 97.228,129.941 98.084,130.978 98.5284,131.635 99.1753,132.823 99.4921,133.571 99.9013,134.881 100.069,135.698 100.211,137.102 100.212,137.941 100.069,139.346 99.9015,140.163 99.4923,141.474 99.1885,142.192 100.012,142.276 100.83,142.443 102.139,142.852 102.886,143.169 104.073,143.816 104.729,144.261 105.765,145.116 106.32,145.672 107.176,146.707 107.62,147.364 108.267,148.55 108.584,149.297 108.959,150.499 108.898,149.748 108.887,149.245 108.939,147.932 108.959,147.664 109.128,146.055 109.165,145.781 109.469,144.022 109.542,143.686 109.999,141.921 110.147,141.463 110.777,139.837 111.107,139.17 111.928,137.829 112.718,136.887 113.749,135.976 115.427,135.075 116.686,134.739 119.54,135.002 120.833,135.617 122.802,137.595 123.567,139.218 123.875,140.14 124.354,142.433 124.386,142.605 124.795,145.088 125.292,147.166 125.841,148.344 126.181,148.659 127.04,148.858 127.24,148.801 127.714,148.582 128.293,148.195 128.943,147.604 129.631,146.763 130.322,145.622 130.997,144.08 131.345,143.021 131.685,141.842 131.976,140.669 132.217,139.512 132.405,138.38 132.54,137.285 132.621,136.238 132.647,135.257 132.604,133.854 132.482,132.744 132.309,131.982 132.211,131.737 132.203,131.736 131.77,131.774 131.106,131.929 130.325,132.202 129.511,132.57 128.734,132.992 128.061,133.418 127.569,133.782 127.14,134.161 124.502,135.203 121.81,134.307 120.323,131.89 120.557,129.461 122.4,125.03 122.685,124.469 125.027,120.616 125.413,120.082 128.197,116.811 128.673,116.335 131.841,113.65 132.39,113.256 132.536,113.169 132.371,113.123 130.991,112.438 129.473,111.29 128.931,110.799 127.429,109.176 127.246,108.965 125.751,107.113 124.342,105.388 123.883,104.909 " fill="none" stroke-width="0.5" stroke="rgb(0,0,0)" />
	<polygon points="73.2659,89.0995 69.3479,90.8442 64.2407,93.5322 58.5199,96.6883 58.4876,96.7059 55.5357,98.3006 57.5743,98.0971 58.5545,98.1156 62.6404,98.6802 63.8103,99.0225 67.1927,100.582 68.1663,101.209 70.8942,103.563 71.5508,104.28 71.8824,104.741 71.9033,104.125 71.9156,103.918 72.0933,101.806 72.1057,101.681 72.3569,99.4915 72.3645,99.4296 72.6525,97.2143 72.6533,97.2083 72.9379,95.0435 73.179,93.0143 73.3417,91.1936 73.4012,89.5948 73.3944,89.0694 " fill="none" stroke-width="0.5" stroke="rgb(0,0,0)" />
	<polygon points="106.27,56.6249 104.958,57.2538 103.288,58.4031 101.448,59.902 99.5742,61.5058 99.4709,61.5914 97.6896,63.0193 97.2916,63.3016 95.6737,64.3116 94.5559,64.7983 93.1342,65.1814 92.5472,65.2434 92.6184,65.3053 92.9953,65.7383 93.563,66.5797 93.842,67.1278 94.1326,67.8652 94.322,68.5244 94.4429,69.0928 94.5506,69.8593 94.5878,70.2741 94.6219,71.1441 94.6165,71.5733 94.4892,73.5493 94.4509,73.9049 94.1154,76.1167 94.0818,76.3081 93.6075,78.6798 93.59,78.7631 93.0466,81.2174 93.0273,81.3052 94.9576,78.4302 95.1374,78.1826 97.2229,75.5233 97.7117,75.0001 99.801,73.1191 101.218,72.2822 103.276,71.5687 107.12,72.1651 108.557,73.2388 110.071,75.4505 110.859,78.281 110.994,79.0241 111.352,83.0259 111.367,83.2625 111.465,86.3197 112.038,83.9694 112.101,83.7419 113.211,80.105 113.468,79.4602 114.755,76.8878 115.868,75.6584 113.174,75.5664 111.749,74.7181 109.905,72.3743 109.216,70.1379 109.046,69.2613 108.782,66.0996 108.771,65.9259 108.625,62.4136 108.322,59.2502 107.766,57.1944 107.384,56.6847 106.842,56.5208 " fill="none" stroke-width="0.5" stroke="rgb(0,0,0)" />
	<polygon points="125.93,56.9426 125.38,57.6633 124.519,59.9579 123.735,63.2139 122.996,66.7179 122.939,66.9532 122.092,70.0603 121.769,70.8872 120.623,73.0848 119.643,74.0538 121.405,73.8584 122.944,74.4063 124.551,75.4474 125.933,76.892 126.451,77.557 127.731,79.5993 127.886,79.8688 128.962,81.9118 128.962,78.1149 128.962,78.0803 128.974,76.6981 128.976,76.5778 129.023,75.3273 129.037,75.107 129.137,74.0045 129.188,73.6327 129.36,72.6944 129.519,72.0881 129.781,71.3301 130.237,70.4023 130.606,69.8408 131.685,68.728 132.181,68.3793 133.805,67.6942 134.445,67.5744 135.258,67.6235 134.579,66.9916 134.147,66.5232 132.448,64.368 132.337,64.2202 130.591,61.7897 128.873,59.5142 127.315,57.8104 126.198,56.9963 125.956,56.9335 " fill="none" stroke-width="0.5" stroke="rgb(0,0,0)" />
	<polygon points="146.4,65.9246 146.117,66.6574 145.939,67.0149 145.513,67.695 145.277,68.0008 144.717,68.5964 144.432,68.8447 143.751,69.327 143.425,69.5118 142.647,69.8528 142.288,69.9681 141.649,70.1021 142.883,70.9085 143.236,71.1672 146.662,73.9641 146.808,74.0886 150.385,77.2948 150.428,77.3336 151.297,78.1348 150.552,76.4697 150.527,76.412 148.698,72.1541 148.63,71.9866 147.035,67.7756 146.925,67.4467 146.444,65.7652 " fill="none" stroke-width="0.5" stroke="rgb(0,0,0)" />
	<polygon points="93.6316,45.4664 92.0136,45.6412 90.2338,45.9032 88.357,46.2162 86.4655,46.5358 86.4023,46.546 84.5777,46.8255 84.544,46.83 85.6793,47.7389 86.8059,49.492 87.2646,53.0085 86.4464,55.5477 85.8791,56.679 83.7219,59.7142 83.4032,60.1091 80.3534,63.4476 80.2039,63.6029 76.7465,67.0137 77.7106,66.5237 77.8538,66.4543 80.889,65.0555 81.2226,64.9189 83.9761,63.9295 84.7141,63.7387 87.0244,63.3634 87.4929,63.3467 87.2411,63.0709 87.0693,62.8277 86.5639,61.8653 86.4535,61.5647 86.2227,60.5785 86.1836,60.2164 86.3037,58.6873 86.7095,57.1873 87.139,56.1659 88.2089,54.3483 88.45,53.9841 89.9625,51.9412 90.0521,51.8245 91.7743,49.6631 93.4273,47.5493 94.7292,45.6851 94.8736,45.412 " fill="none" stroke-width="0.5" stroke="rgb(0,0,0)" />
	<polygon points="51.1187,60.2334 52.0865,61.0553 52.4367,61.4601 53.316,63.1369 53.4409,63.6203 53.3783,65.1208 54.6285,63.6871 57.0321,60.492 56.5759,60.3906 51.5036,60.0441 50.7869,60.0297 " fill="none" stroke-width="0.5" stroke="rgb(0,0,0)" />
	<polygon points="467.897,98.4958 468.625,98.7166 470.721,99.5686 471.474,99.9695 473.197,101.129 473.88,101.704 475.249,103.135 475.779,103.82 476.673,105.265 476.673,122.349 475.461,125.083 475.095,125.718 476.385,125.855 476.673,126.015 476.673,188.982 476.525,189.153 474.946,190.227 471.621,190.826 468.287,190.007 467.208,189.574 462.638,186.943 462.174,186.633 456.851,182.528 456.547,182.269 450.953,177.025 450.692,176.757 445.311,170.711 445.042,170.375 440.357,163.862 440.056,163.376 436.549,156.733 436.23,155.94 434.384,149.502 434.581,146.672 436.234,144.958 434.529,144.725 434.037,144.627 432.07,144.11 431.454,143.896 429.775,143.158 429.039,142.74 427.679,141.772 426.904,141.056 425.894,139.85 425.267,138.834 424.638,137.382 424.33,136.256 424.113,134.549 424.101,133.614 424.187,132.749 424.325,132.027 424.602,131.052 424.863,130.37 425.357,129.355 425.766,128.685 426.505,127.699 427.085,127.071 428.094,126.182 428.832,125.664 430.138,124.943 430.595,124.752 430.137,124.594 429.088,124.137 428.398,123.755 427.405,123.073 426.75,122.515 425.842,121.564 425.325,120.898 424.534,119.632 424.201,118.973 423.696,117.712 423.542,117.247 423.17,115.86 423.116,115.637 422.811,114.181 422.809,114.171 422.525,112.8 422.235,111.683 421.939,110.897 421.686,110.469 421.084,109.86 419.9,107.282 420.649,104.545 422.982,102.93 425.066,102.923 426.063,103.178 426.958,103.35 427.883,103.477 428.827,103.565 429.781,103.621 430.733,103.65 431.676,103.661 432.434,103.663 434.931,103.465 437.369,102.946 439.913,102.163 442.528,101.213 445.143,100.227 445.258,100.186 447.781,99.3189 448.099,99.2236 450.491,98.6101 451.094,98.5021 453.339,98.2694 454.114,98.2619 455.423,98.3719 456.22,98.5184 457.303,98.8291 458.166,99.1865 459.039,99.6693 459.844,100.25 460.522,100.876 460.729,101.116 461.569,99.1907 465.411,97.9853 " fill="none" stroke-width="0.5" stroke="rgb(0,0,0)" />
	<polygon points="384.31,101.971 386.275,102.271 387.671,102.75 389.088,103.541 390.099,104.333 391.144,105.451 391.575,105.999 392.42,107.282 392.451,107.329 393.109,108.357 393.46,108.762 393.519,108.798 393.984,108.876 394.845,108.795 396.156,108.486 397.698,107.981 399.384,107.346 401.107,106.678 401.213,106.639 402.864,106.051 403.161,105.958 404.68,105.542 405.293,105.423 406.64,105.265 408.504,105.474 410.546,106.195 411.97,107.05 414.113,109.016 414.659,109.627 416.789,112.543 417.058,112.962 419.059,116.534 419.227,116.87 420.984,120.802 421.112,121.125 422.509,125.123 422.623,125.505 423.546,129.273 423.643,129.836 423.976,133.08 423.924,134.285 423.316,137.459 422.774,138.854 421.035,141.678 420.268,142.596 417.526,145.047 416.812,145.561 413.196,147.618 412.604,147.896 408.243,149.535 407.755,149.685 402.776,150.884 402.358,150.962 396.89,151.698 396.514,151.731 390.685,151.982 390.06,151.961 381.792,151.065 380.914,150.872 373.568,148.396 372.795,148.044 366.425,144.311 365.791,143.854 360.454,139.185 359.953,138.662 355.705,133.379 355.313,132.796 352.21,127.22 351.91,126.548 350.007,121 349.815,120.166 349.168,114.968 349.146,114.164 349.172,113.803 349.262,113.186 349.331,112.882 349.541,112.215 349.645,111.96 349.973,111.324 350.108,111.109 350.498,110.586 350.657,110.405 351.025,110.035 351.201,109.878 351.477,109.655 351.665,109.514 351.81,109.411 352.003,109.279 352.999,108.783 354.179,108.381 355.096,108.18 356.936,107.992 357.154,107.976 359.563,107.857 362.407,107.667 365.617,107.276 369.185,106.552 373.085,105.361 377.386,103.523 377.852,103.286 378.087,103.175 378.674,102.922 378.916,102.827 379.499,102.618 379.746,102.538 380.323,102.371 380.575,102.306 381.143,102.18 381.398,102.131 381.957,102.043 382.214,102.01 382.761,101.959 383.02,101.942 383.552,101.926 " fill="none" stroke-width="0.5" stroke="rgb(0,0,0)" />
</svg>
