<?xml version="1.0" standalone="no" ?>
<!DOCTYPE svg PUBLIC "-//W3C//DTD SVG 1.1//EN" "http://www.w3.org/Graphics/SVG/1.1/DTD/svg11.dtd">
<svg width="500px" height="500px" xmlns="http://www.w3.org/2000/svg" version="1.1" >
	<polygon points="480.823,84.5103 475.941,90.4555 473.856,92.4153 473.084,92.9732 473.358,93.0842 475.381,94.1612 477.104,95.3203 478.939,96.8657 480.308,98.2972 480.823,98.9632 480.823,194.523 480.462,194.941 479.049,195.902 480.823,197.872 480.823,251.116 480.711,251.272 480.823,251.329 480.823,281.286 479.971,296.463 479.487,299.52 478.986,300.141 478.085,301.128 476.738,302.437 478.253,305.338 478.482,305.868 477.405,312.666 473.11,329.62 467.07,347.047 459.27,364.67 453.634,374.997 452.842,375.11 452.949,376.252 449.695,382.213 438.331,399.399 425.161,415.952 410.17,431.593 393.345,446.047 374.668,459.037 354.126,470.285 331.702,479.516 318.698,483.225 316.902,482.296 316.873,482.545 316.521,483.846 307.382,486.452 281.151,490.817 252.993,492.333 225.548,490.902 199.887,486.773 176.007,480.192 153.907,471.407 133.585,460.665 124.694,454.695 124.685,454.64 124.599,454.631 115.039,448.212 98.2672,434.295 83.2685,419.161 70.0408,403.057 58.5824,386.23 48.8916,368.927 40.9666,351.394 34.8057,333.879 32.6514,325.43 34.4916,319.503 35.1265,317.905 35.8119,316.505 34.6788,316.149 30.1418,313.397 29.8527,313.108 27.7694,299.888 26.8905,283.906 26.8905,155.697 27.0157,155.418 29.4422,150.986 30.3415,149.661 28.8775,148.901 27.0339,147.7 26.8905,147.585 26.8905,37.8237 29.0223,36.2626 27.7805,35.7569 26.8905,35.3069 26.8905,19.5757 38.3822,19.4875 49.8739,19.3993 61.3656,19.3111 72.8572,19.223 84.3489,19.1348 95.8406,19.0466 107.332,18.9584 118.824,18.8703 130.316,18.7821 141.807,18.6939 153.299,18.6057 164.791,18.5175 176.282,18.4294 187.774,18.3412 210.757,18.1648 210.732,31.0636 210.706,43.9624 210.681,56.8612 210.656,69.76 210.63,82.6588 210.618,88.6643 210.311,88.7929 209.896,88.9257 210.617,89.5256 210.579,108.456 210.554,121.355 210.503,147.153 210.478,160.052 210.452,172.95 210.434,182.058 209.036,183.818 207.63,185.289 207.219,185.647 207.222,185.649 208.944,187.106 210.421,188.638 210.401,198.748 210.376,211.647 210.35,224.546 210.438,235.84 210.602,246.657 210.899,256.963 211.384,266.725 211.45,267.559 210.864,268.268 210.236,269.102 211.668,270.308 212.112,275.909 213.138,284.482 214.519,292.41 216.308,299.661 218.563,306.2 221.336,311.994 224.685,317.011 228.665,321.215 233.33,324.575 238.737,327.056 244.939,328.626 251.957,329.247 259.171,328.749 265.518,327.271 271.013,324.853 275.719,321.532 279.698,317.343 283.01,312.324 285.72,306.511 287.888,299.942 289.576,292.653 290.848,284.68 291.763,276.06 292.386,266.831 292.778,257.028 293,246.688 293.115,235.848 293.185,224.546 293.159,211.647 293.133,198.748 293.123,193.606 293.302,193.458 293.201,193.273 293.122,193.086 293.107,185.849 293.091,177.435 293.203,177.171 293.72,176.224 293.36,175.991 293.087,175.737 293.082,172.95 293.056,160.052 293.004,134.254 292.978,121.355 292.955,109.569 293.454,108.474 292.952,108.284 292.901,82.6588 292.875,69.76 292.797,31.0636 292.771,18.1648 304.525,18.0893 316.278,18.0137 328.031,17.9382 339.784,17.8626 351.538,17.787 363.291,17.7115 375.044,17.6359 383.695,17.5803 385.115,18.6226 385.201,18.4278 385.828,17.6997 386.004,17.5655 386.797,17.5604 410.304,17.4092 422.057,17.3337 433.81,17.2581 445.564,17.1826 457.317,17.107 469.07,17.0314 480.823,16.9559 " fill="none" stroke-width="0.5" stroke="rgb(0,0,0)" />
	<polygon points="319.581,423.12 319.842,424.265 319.931,424.696 319.946,424.779 320.295,425.052 320.976,425.63 321.029,425.586 321.828,424.977 322.529,424.492 322.894,424.27 322.598,422.125 " fill="none" stroke-width="0.5" stroke="rgb(0,0,0)" />
	<polygon points="424.416,148.277 424.981,148.444 424.981,148.444 424.562,148.146 " fill="none" stroke-width="0.5" stroke="rgb(0,0,0)" />
</svg>
