<?xml version="1.0" standalone="no" ?>
<!DOCTYPE svg PUBLIC "-//W3C//DTD SVG 1.1//EN" "http://www.w3.org/Graphics/SVG/1.1/DTD/svg11.dtd">
<svg width="500px" height="500px" xmlns="http://www.w3.org/2000/svg" version="1.1" >
	<polygon points="463.573,280.802 462.797,294.625 460.49,309.191 456.569,324.668 451.005,340.721 443.785,357.034 434.904,373.308 424.36,389.252 412.157,404.59 398.295,419.053 382.772,432.388 365.575,444.349 346.677,454.697 326.035,463.194 303.589,469.596 279.265,473.643 252.978,475.059 227.373,473.724 203.56,469.892 181.501,463.813 161.145,455.721 142.448,445.838 125.381,434.378 109.928,421.556 96.0872,407.59 83.8625,392.707 73.2646,377.144 64.3046,361.146 56.9921,344.968 51.3321,328.876 47.3216,313.147 44.9454,298.067 44.1405,283.432 44.1405,36.6938 50.0063,36.6488 61.4979,36.5606 72.9896,36.4725 84.4813,36.3843 95.973,36.2961 107.465,36.2079 118.956,36.1197 130.448,36.0316 141.94,35.9434 153.431,35.8552 164.923,35.767 176.415,35.6789 187.906,35.5907 193.473,35.548 193.457,43.9284 193.431,56.8272 193.406,69.726 193.406,69.726 193.38,82.6248 193.329,108.422 193.329,108.422 193.304,121.321 193.253,147.119 193.253,147.119 193.228,160.018 193.202,172.916 193.202,172.916 193.177,185.815 193.151,198.714 193.126,211.613 193.126,211.613 193.1,224.512 193.101,224.679 193.188,235.973 193.19,236.102 193.354,246.919 193.359,247.154 193.656,257.46 193.67,257.819 194.155,267.581 194.188,268.088 194.916,277.272 194.984,277.96 196.011,286.533 196.144,287.441 197.525,295.369 197.771,296.544 199.561,303.795 200,305.282 202.254,311.822 203.003,313.648 205.777,319.443 206.99,321.573 210.339,326.589 212.157,328.868 216.136,333.073 218.584,335.213 223.249,338.573 226.135,340.252 231.541,342.734 234.505,343.779 240.708,345.349 243.418,345.808 250.473,346.433 251.947,329.779 253.097,346.459 260.358,345.958 263.083,345.55 269.43,344.072 272.466,343.06 277.961,340.642 280.961,338.946 285.667,335.624 288.227,333.411 292.205,329.222 294.094,326.846 297.407,321.827 298.645,319.612 301.355,313.799 302.101,311.917 304.269,305.348 304.693,303.835 306.381,296.546 306.611,295.369 307.882,287.396 308.001,286.503 308.917,277.883 308.974,277.221 309.597,267.992 309.622,267.519 310.014,257.716 310.024,257.398 310.246,247.059 310.249,246.871 310.364,236.032 310.365,235.955 310.435,224.652 310.435,224.511 310.409,211.612 310.383,198.713 310.357,185.815 310.332,172.916 310.332,172.916 310.306,160.017 310.254,134.219 310.254,134.219 310.228,121.321 310.151,82.6243 310.151,82.6242 310.125,69.7255 310.056,35.3041 316.389,35.2634 328.142,35.1878 339.895,35.1122 351.648,35.0367 363.402,34.9611 375.155,34.8856 386.908,34.81 410.415,34.6589 422.168,34.5833 433.921,34.5078 445.674,34.4322 457.428,34.3566 463.573,34.3171 " fill="none" stroke-width="0.5" stroke="rgb(0,0,0)" />
</svg>
