<?xml version="1.0" standalone="no" ?>
<!DOCTYPE svg PUBLIC "-//W3C//DTD SVG 1.1//EN" "http://www.w3.org/Graphics/SVG/1.1/DTD/svg11.dtd">
<svg width="500px" height="500px" xmlns="http://www.w3.org/2000/svg" version="1.1" >
	<polygon points="466.823,280.893 466.033,294.971 463.677,309.846 459.685,325.601 454.032,341.913 446.703,358.473 437.69,374.986 426.992,391.164 414.607,406.73 400.533,421.416 384.764,434.962 367.288,447.116 348.08,457.634 327.103,466.27 304.303,472.772 279.62,476.879 252.981,478.314 227.029,476.96 202.868,473.072 180.466,466.899 159.781,458.677 140.778,448.631 123.432,436.984 107.731,423.956 93.6721,409.77 81.2584,394.657 70.4984,378.856 61.4007,362.612 53.9728,346.179 48.2184,329.819 44.1348,313.803 41.7093,298.41 40.8905,283.521 40.8905,33.4687 49.9813,33.3989 61.473,33.3107 72.9647,33.2225 84.4563,33.1344 95.948,33.0462 95.948,33.0462 107.44,32.958 118.931,32.8698 130.423,32.7817 130.423,32.7817 141.915,32.6935 153.406,32.6053 164.898,32.5171 176.39,32.429 187.881,32.3408 187.881,32.3408 196.729,32.2729 196.706,43.9348 196.681,56.8336 196.656,69.7324 196.656,69.7324 196.63,82.6312 196.579,108.429 196.579,108.429 196.554,121.328 196.503,147.125 196.503,147.125 196.478,160.024 196.452,172.923 196.452,172.923 196.427,185.822 196.401,198.72 196.376,211.619 196.376,211.619 196.35,224.518 196.351,224.654 196.438,235.948 196.439,236.053 196.604,246.87 196.608,247.06 196.905,257.367 196.916,257.658 197.401,267.42 197.428,267.831 198.156,277.015 198.211,277.574 199.238,286.147 199.346,286.883 200.726,294.812 200.927,295.765 202.716,303.016 203.073,304.223 205.327,310.762 205.935,312.245 208.709,318.039 209.693,319.768 213.042,324.784 214.517,326.634 218.497,330.839 220.484,332.576 225.149,335.935 227.49,337.299 232.897,339.78 235.302,340.628 241.505,342.198 243.705,342.571 250.76,343.195 251.947,329.779 252.874,343.217 260.134,342.716 262.346,342.385 268.693,340.907 271.157,340.086 276.652,337.668 279.087,336.291 283.793,332.969 285.87,331.173 289.849,326.984 291.382,325.055 294.695,320.036 295.7,318.239 298.409,312.426 299.015,310.899 301.182,304.329 301.527,303.102 303.215,295.812 303.402,294.857 304.673,286.884 304.769,286.159 305.685,277.54 305.732,277.003 306.354,267.773 306.375,267.389 306.766,257.586 306.774,257.328 306.997,246.989 306.999,246.837 307.114,235.997 307.115,235.935 307.185,224.632 307.185,224.518 307.133,198.72 307.107,185.821 307.082,172.922 307.082,172.922 307.056,160.024 307.004,134.226 307.004,134.226 306.978,121.327 306.901,82.6308 306.901,82.6307 306.875,69.732 306.799,32.075 316.368,32.0134 328.121,31.9379 351.628,31.7868 363.381,31.7112 375.134,31.6356 386.887,31.5601 410.394,31.409 422.147,31.3334 433.9,31.2578 445.654,31.1823 457.407,31.1067 466.823,31.0462 " fill="none" stroke-width="0.5" stroke="rgb(0,0,0)" />
</svg>
