<?xml version="1.0" standalone="no" ?>
<!DOCTYPE svg PUBLIC "-//W3C//DTD SVG 1.1//EN" "http://www.w3.org/Graphics/SVG/1.1/DTD/svg11.dtd">
<svg width="500px" height="500px" xmlns="http://www.w3.org/2000/svg" version="1.1" >
	<polygon points="466.423,280.882 465.635,294.929 463.285,309.766 459.302,325.486 453.659,341.766 446.344,358.296 437.347,374.779 426.668,390.929 414.305,406.467 400.257,421.125 384.519,434.645 367.077,446.776 347.908,457.273 326.971,465.891 304.215,472.381 279.577,476.481 252.98,477.913 227.071,476.562 202.953,472.681 180.593,466.519 159.949,458.313 140.984,448.288 123.672,436.664 108.002,423.661 93.9693,409.502 81.5789,394.417 70.8388,378.645 61.7581,362.431 54.3445,346.03 48.6016,329.703 44.527,313.722 42.1076,298.368 41.2905,283.51 41.2905,33.8656 49.9844,33.7989 61.4761,33.7107 72.9677,33.6225 84.4594,33.5344 95.9511,33.4462 107.443,33.358 130.426,33.1817 164.901,32.9171 176.393,32.8289 187.884,32.7408 187.884,32.7408 196.329,32.676 196.306,43.9341 196.281,56.8328 196.256,69.7316 196.256,69.7316 196.23,82.6304 196.179,108.428 196.179,108.428 196.154,121.327 196.103,147.124 196.103,147.124 196.078,160.023 196.052,172.922 196.052,172.922 196.027,185.821 196.001,198.72 195.976,211.618 195.976,211.618 195.95,224.517 195.951,224.657 196.038,235.951 196.039,236.059 196.204,246.876 196.208,247.072 196.505,257.378 196.517,257.678 197.002,267.439 197.029,267.863 197.757,277.047 197.814,277.621 198.841,286.194 198.952,286.952 200.332,294.88 200.538,295.861 202.328,303.112 202.695,304.354 204.949,310.893 205.574,312.418 208.348,318.212 209.36,319.99 212.709,325.006 214.227,326.909 218.206,331.114 220.25,332.9 224.915,336.26 227.324,337.662 232.73,340.144 235.204,341.016 241.407,342.586 243.67,342.97 250.724,343.594 251.947,329.779 252.901,343.616 260.162,343.115 262.437,342.774 268.784,341.296 271.318,340.452 276.813,338.034 279.318,336.618 284.024,333.296 286.16,331.448 290.139,327.26 291.716,325.276 295.028,320.257 296.062,318.408 298.771,312.595 299.394,311.024 301.562,304.455 301.916,303.192 303.605,295.902 303.797,294.92 305.068,286.947 305.167,286.201 306.083,277.582 306.131,277.029 306.754,267.8 306.775,267.405 307.166,257.602 307.174,257.337 307.397,246.997 307.399,246.841 307.514,236.001 307.515,235.938 307.585,224.635 307.585,224.517 307.559,211.618 307.533,198.719 307.507,185.82 307.482,172.922 307.482,172.922 307.456,160.023 307.404,134.225 307.404,134.225 307.378,121.326 307.301,82.63 307.301,82.6299 307.275,69.7312 307.2,32.4724 316.37,32.4134 316.37,32.4134 328.124,32.3379 339.877,32.2623 351.63,32.1867 363.383,32.1112 375.137,32.0356 386.89,31.9601 410.396,31.8089 422.15,31.7334 433.903,31.6578 445.656,31.5823 457.409,31.5067 466.423,31.4487 " fill="none" stroke-width="0.5" stroke="rgb(0,0,0)" />
</svg>
