<?xml version="1.0" standalone="no" ?>
<!DOCTYPE svg PUBLIC "-//W3C//DTD SVG 1.1//EN" "http://www.w3.org/Graphics/SVG/1.1/DTD/svg11.dtd">
<svg width="500px" height="500px" xmlns="http://www.w3.org/2000/svg" version="1.1" >
	<polygon points="469.773,280.976 468.97,295.286 466.57,310.44 462.514,326.448 456.779,342.994 449.351,359.779 440.22,376.509 429.381,392.899 416.831,408.673 402.564,423.56 386.572,437.298 368.843,449.628 349.354,460.3 328.072,469.061 304.952,475.655 279.943,479.816 252.983,481.268 226.717,479.898 202.24,475.959 179.526,469.7 158.543,461.359 139.262,451.167 121.664,439.35 105.737,426.134 91.4799,411.749 78.8947,396.427 67.9875,380.41 58.7649,363.942 51.2322,347.278 45.3922,330.674 41.2422,314.398 38.772,298.721 37.9405,283.602 37.9405,30.5412 38.467,30.5372 49.9587,30.449 61.4504,30.3608 72.942,30.2726 84.4337,30.1845 95.9254,30.0963 130.4,29.8318 141.892,29.7436 153.384,29.6554 164.875,29.5672 176.367,29.479 187.859,29.3909 199.685,29.3001 199.682,31.0418 199.682,31.0419 199.656,43.9406 199.606,69.7382 199.606,69.7383 199.58,82.637 199.529,108.435 199.529,108.435 199.504,121.333 199.453,147.131 199.453,147.131 199.428,160.03 199.402,172.929 199.377,185.827 199.351,198.726 199.326,211.625 199.326,211.625 199.3,224.524 199.301,224.631 199.388,235.925 199.389,236.008 199.553,246.825 199.557,246.975 199.854,257.282 199.863,257.511 200.347,267.273 200.368,267.598 201.096,276.782 201.14,277.223 202.167,285.796 202.252,286.377 203.633,294.306 203.791,295.058 205.58,302.309 205.862,303.262 208.116,309.801 208.596,310.971 211.37,316.766 212.146,318.13 215.495,323.146 216.66,324.606 220.639,328.811 222.207,330.182 226.873,333.542 228.721,334.618 234.127,337.099 236.026,337.768 242.229,339.338 243.965,339.633 251.02,340.257 251.947,329.779 252.671,340.274 259.931,339.773 261.677,339.511 268.024,338.034 269.969,337.386 275.464,334.967 277.386,333.881 282.092,330.559 283.731,329.141 287.71,324.953 288.92,323.43 292.233,318.411 293.026,316.992 295.735,311.18 296.213,309.974 298.381,303.405 298.653,302.436 300.341,295.146 300.488,294.393 301.76,286.42 301.836,285.847 302.752,277.228 302.788,276.804 303.411,267.574 303.427,267.271 303.819,257.468 303.825,257.265 304.047,246.925 304.049,246.805 304.164,235.966 304.165,235.917 304.235,224.614 304.235,224.523 304.209,211.625 304.183,198.726 304.157,185.827 304.132,172.928 304.132,172.928 304.106,160.029 304.054,134.232 304.054,134.232 304.028,121.333 303.951,82.6367 303.951,82.6367 303.925,69.7379 303.847,31.0415 303.847,31.0415 303.843,29.1439 304.596,29.1391 316.349,29.0635 328.102,28.9879 339.855,28.9124 351.609,28.8368 363.362,28.7613 375.115,28.6857 386.868,28.6101 410.375,28.459 422.128,28.3835 433.881,28.3079 445.635,28.2323 457.388,28.1568 469.141,28.0812 469.773,28.0771 " fill="none" stroke-width="0.5" stroke="rgb(0,0,0)" />
	<polygon points="319.463,423.053 319.744,424.288 319.832,424.714 319.855,424.834 320.23,425.128 320.976,425.761 321.093,425.662 321.885,425.059 322.586,424.574 323.001,424.322 322.68,421.993 " fill="none" stroke-width="0.5" stroke="rgb(0,0,0)" />
	<polygon points="424.216,148.322 425.785,148.786 425.039,148.362 424.555,148.018 " fill="none" stroke-width="0.5" stroke="rgb(0,0,0)" />
</svg>
