<?xml version="1.0" standalone="no" ?>
<!DOCTYPE svg PUBLIC "-//W3C//DTD SVG 1.1//EN" "http://www.w3.org/Graphics/SVG/1.1/DTD/svg11.dtd">
<svg width="500px" height="500px" xmlns="http://www.w3.org/2000/svg" version="1.1" >
	<polygon points="466.373,280.881 465.585,294.924 463.236,309.755 459.254,325.472 453.613,341.748 446.299,358.274 437.305,374.754 426.628,390.899 414.268,406.434 400.223,421.089 384.488,434.605 367.051,446.733 347.886,457.227 326.955,465.844 304.204,472.332 279.571,476.431 252.98,477.863 227.077,476.512 202.963,472.632 180.609,466.472 159.97,458.267 141.009,448.245 123.702,436.624 108.036,423.624 94.0065,409.468 81.619,394.387 70.8814,378.619 61.8028,362.409 54.3909,346.011 48.6495,329.688 44.5761,313.712 42.1574,298.363 41.3405,283.509 41.3405,33.9152 49.9848,33.8489 61.4764,33.7607 72.9681,33.6725 84.4598,33.5844 95.9515,33.4962 95.9515,33.4962 107.443,33.408 118.935,33.3198 130.426,33.2317 141.918,33.1435 153.41,33.0553 164.902,32.9671 176.393,32.8789 187.885,32.7908 196.279,32.7264 196.257,43.9339 196.206,69.7315 196.206,69.7315 196.18,82.6303 196.129,108.428 196.129,108.428 196.104,121.327 196.053,147.124 196.053,147.124 196.028,160.023 196.002,172.922 196.002,172.922 195.977,185.821 195.951,198.719 195.926,211.618 195.926,211.618 195.9,224.517 195.901,224.657 195.988,235.952 195.989,236.06 196.154,246.877 196.158,247.073 196.455,257.379 196.467,257.68 196.952,267.442 196.979,267.867 197.707,277.051 197.764,277.627 198.791,286.2 198.903,286.961 200.283,294.889 200.49,295.873 202.279,303.124 202.647,304.37 204.901,310.909 205.529,312.439 208.303,318.234 209.319,320.018 212.668,325.034 214.191,326.943 218.17,331.148 220.221,332.941 224.886,336.301 227.303,337.708 232.709,340.189 235.192,341.065 241.395,342.634 243.665,343.019 250.72,343.644 251.947,329.779 252.905,343.666 260.165,343.165 262.448,342.823 268.795,341.345 271.338,340.498 276.833,338.08 279.347,336.658 284.052,333.337 286.197,331.483 290.175,327.294 291.757,325.303 295.07,320.284 296.107,318.429 298.817,312.616 299.442,311.04 301.61,304.471 301.965,303.203 303.654,295.914 303.846,294.928 305.117,286.955 305.217,286.207 306.133,277.587 306.181,277.033 306.803,267.803 306.825,267.407 307.216,257.604 307.224,257.338 307.447,246.998 307.449,246.841 307.564,236.002 307.565,235.938 307.635,224.635 307.635,224.517 307.609,211.618 307.583,198.719 307.557,185.82 307.532,172.921 307.532,172.921 307.506,160.023 307.454,134.225 307.454,134.225 307.428,121.326 307.351,82.6299 307.351,82.6298 307.325,69.7311 307.25,32.5221 316.371,32.4634 328.124,32.3879 339.877,32.3123 351.63,32.2367 363.384,32.1612 375.137,32.0856 386.89,32.0101 410.397,31.8589 422.15,31.7834 433.903,31.7078 445.656,31.6323 457.41,31.5567 466.373,31.4991 " fill="none" stroke-width="0.5" stroke="rgb(0,0,0)" />
</svg>
