<?xml version="1.0" standalone="no" ?>
<!DOCTYPE svg PUBLIC "-//W3C//DTD SVG 1.1//EN" "http://www.w3.org/Graphics/SVG/1.1/DTD/svg11.dtd">
<svg width="500px" height="500px" xmlns="http://www.w3.org/2000/svg" version="1.1" >
	<polygon points="466.673,280.889 465.884,294.956 463.53,309.816 459.542,325.558 453.892,341.858 446.568,358.407 437.562,374.908 426.871,391.076 414.494,406.631 400.429,421.307 384.672,434.843 367.209,446.989 348.016,457.499 327.053,466.128 304.27,472.625 279.604,476.73 252.981,478.163 227.045,476.811 202.9,472.925 180.514,466.756 159.844,458.54 140.855,448.503 123.522,436.864 107.833,423.845 93.7836,409.669 81.3786,394.567 70.626,378.777 61.5347,362.544 54.1122,346.123 48.3621,329.775 44.2819,313.772 41.8587,298.394 41.0405,283.517 41.0405,33.6175 49.9825,33.5489 61.4741,33.4607 61.4741,33.4607 72.9658,33.3725 84.4575,33.2844 95.9492,33.1962 95.9492,33.1962 107.441,33.108 118.933,33.0198 130.424,32.9317 153.408,32.7553 164.899,32.6671 176.391,32.579 187.883,32.4908 196.579,32.424 196.557,43.9345 196.506,69.7321 196.506,69.7321 196.48,82.6309 196.429,108.428 196.429,108.429 196.404,121.327 196.353,147.125 196.353,147.125 196.328,160.024 196.302,172.922 196.302,172.923 196.277,185.821 196.251,198.72 196.226,211.619 196.2,224.518 196.201,224.655 196.288,235.949 196.289,236.055 196.454,246.872 196.458,247.065 196.755,257.371 196.766,257.665 197.251,267.427 197.278,267.843 198.006,277.027 198.062,277.592 199.089,286.164 199.198,286.909 200.579,294.838 200.781,295.801 202.571,303.052 202.931,304.272 205.185,310.811 205.8,312.31 208.574,318.104 209.568,319.851 212.917,324.867 214.408,326.737 218.388,330.942 220.396,332.698 225.061,336.057 227.428,337.435 232.834,339.916 235.265,340.774 241.468,342.343 243.692,342.721 250.746,343.345 251.947,329.779 252.884,343.366 260.145,342.866 262.38,342.531 268.727,341.053 271.217,340.223 276.712,337.805 279.174,336.413 283.879,333.092 285.979,331.276 289.957,327.087 291.507,325.138 294.82,320.119 295.836,318.302 298.545,312.49 299.157,310.946 301.325,304.377 301.673,303.135 303.361,295.846 303.55,294.881 304.821,286.908 304.918,286.175 305.834,277.555 305.881,277.013 306.504,267.783 306.525,267.395 306.916,257.592 306.924,257.332 307.147,246.992 307.149,246.838 307.264,235.999 307.265,235.936 307.335,224.633 307.335,224.517 307.309,211.618 307.283,198.72 307.257,185.821 307.232,172.922 307.232,172.922 307.206,160.023 307.154,134.226 307.154,134.226 307.128,121.327 307.051,82.6305 307.051,82.6304 307.025,69.7316 306.95,32.224 316.369,32.1634 328.122,32.0879 339.875,32.0123 351.629,31.9368 363.382,31.8612 375.135,31.7856 386.888,31.7101 410.395,31.5589 422.148,31.4834 433.901,31.4078 445.655,31.3323 457.408,31.2567 466.673,31.1971 " fill="none" stroke-width="0.5" stroke="rgb(0,0,0)" />
</svg>
