<?xml version="1.0" standalone="no" ?>
<!DOCTYPE svg PUBLIC "-//W3C//DTD SVG 1.1//EN" "http://www.w3.org/Graphics/SVG/1.1/DTD/svg11.dtd">
<svg width="500px" height="500px" xmlns="http://www.w3.org/2000/svg" version="1.1" >
	<polygon points="469.073,280.956 468.273,295.211 465.884,310.299 461.843,326.247 456.127,342.738 448.722,359.469 439.62,376.147 428.814,392.488 416.303,408.212 402.082,423.052 386.143,436.743 368.474,449.032 349.052,459.667 327.842,468.398 304.798,474.971 279.866,479.119 252.983,480.567 226.791,479.201 202.389,475.274 179.749,469.035 158.837,460.722 139.622,450.565 122.083,438.789 106.21,425.618 92.0001,411.279 79.4556,396.007 68.5833,380.041 59.3903,363.627 51.8825,347.017 46.0628,330.471 41.9286,314.257 39.469,298.647 38.6405,283.583 38.6405,31.2358 49.9641,31.149 61.4557,31.0608 72.9474,30.9726 84.4391,30.8844 95.9307,30.7963 95.9308,30.7963 107.422,30.7081 118.914,30.6199 130.406,30.5317 153.389,30.3554 164.881,30.2672 176.372,30.179 187.864,30.0909 198.984,30.0055 198.982,31.0405 198.982,31.0405 198.956,43.9393 198.931,56.8381 198.906,69.7369 198.906,69.7369 198.88,82.6356 198.829,108.433 198.829,108.433 198.804,121.332 198.753,147.13 198.753,147.13 198.728,160.028 198.702,172.927 198.702,172.927 198.677,185.826 198.651,198.725 198.626,211.624 198.626,211.624 198.6,224.522 198.601,224.636 198.688,235.931 198.689,236.019 198.853,246.836 198.857,246.996 199.154,257.302 199.163,257.546 199.648,267.308 199.671,267.654 200.399,276.838 200.445,277.306 201.472,285.879 201.563,286.497 202.943,294.426 203.111,295.226 204.901,302.477 205.2,303.49 207.454,310.029 207.964,311.274 210.738,317.068 211.564,318.519 214.913,323.535 216.152,325.087 220.131,329.292 221.798,330.75 226.464,334.11 228.429,335.254 233.835,337.735 235.854,338.447 242.057,340.017 243.903,340.33 250.958,340.954 251.947,329.779 252.719,340.972 259.98,340.471 261.836,340.193 268.183,338.715 270.25,338.026 275.746,335.608 277.79,334.453 282.495,331.131 284.239,329.623 288.217,325.435 289.504,323.816 292.817,318.797 293.66,317.288 296.37,311.476 296.878,310.194 299.046,303.624 299.335,302.594 301.023,295.304 301.18,294.503 302.451,286.53 302.532,285.921 303.448,277.302 303.487,276.851 304.109,267.621 304.127,267.299 304.518,257.496 304.525,257.28 304.747,246.94 304.749,246.813 304.864,235.973 304.865,235.921 304.935,224.618 304.935,224.522 304.909,211.623 304.883,198.724 304.857,185.826 304.832,172.927 304.832,172.927 304.806,160.028 304.754,134.23 304.754,134.23 304.728,121.332 304.651,82.6353 304.651,82.6353 304.625,69.7365 304.547,31.0401 304.547,31.0401 304.545,29.8394 304.6,29.839 316.353,29.7635 316.353,29.7635 328.107,29.6879 339.86,29.6124 351.613,29.5368 363.366,29.4612 375.12,29.3857 386.873,29.3101 410.379,29.159 422.133,29.0834 433.886,29.0079 445.639,28.9323 457.392,28.8568 469.073,28.7817 " fill="none" stroke-width="0.5" stroke="rgb(0,0,0)" />
	<polygon points="320.287,423.519 320.427,424.132 320.491,424.444 320.683,424.594 320.995,424.859 321.487,424.484 322.187,423.999 322.251,423.96 322.108,422.919 " fill="none" stroke-width="0.5" stroke="rgb(0,0,0)" />
</svg>
