<?xml version="1.0" standalone="no" ?>
<!DOCTYPE svg PUBLIC "-//W3C//DTD SVG 1.1//EN" "http://www.w3.org/Graphics/SVG/1.1/DTD/svg11.dtd">
<svg width="500px" height="500px" xmlns="http://www.w3.org/2000/svg" version="1.1" >
	<polygon points="470.173,280.987 469.368,295.328 466.962,310.521 462.898,326.563 457.152,343.141 449.71,359.956 440.563,376.715 429.705,393.135 417.132,408.937 402.839,423.851 386.817,437.614 369.054,449.969 349.527,460.661 328.203,469.439 305.04,476.046 279.987,480.214 252.984,481.668 226.675,480.296 202.154,476.351 179.399,470.08 158.375,461.723 139.057,451.511 121.424,439.671 105.467,426.43 91.1827,412.017 78.5742,396.667 67.647,380.62 58.4075,364.123 50.8606,347.427 45.009,330.79 40.85,314.479 38.3737,298.764 37.5405,283.613 37.5405,30.1443 38.4639,30.1372 49.9556,30.049 61.4473,29.9608 72.939,29.8726 84.4306,29.7845 95.9223,29.6963 95.9223,29.6963 107.414,29.6081 118.906,29.5199 130.397,29.4318 141.889,29.3436 153.381,29.2554 164.872,29.1672 176.364,29.0791 187.856,28.9909 200.086,28.897 200.082,31.0426 200.082,31.0426 200.056,43.9414 200.031,56.8402 200.006,69.739 200.006,69.739 199.98,82.6378 199.929,108.435 199.929,108.435 199.904,121.334 199.853,147.132 199.853,147.132 199.828,160.031 199.802,172.929 199.802,172.929 199.777,185.828 199.751,198.727 199.726,211.626 199.726,211.626 199.7,224.525 199.701,224.628 199.788,235.922 199.789,236.002 199.953,246.819 199.956,246.964 200.253,257.27 200.262,257.492 200.747,267.253 200.767,267.567 201.495,276.751 201.537,277.175 202.564,285.748 202.646,286.309 204.027,294.237 204.179,294.963 205.969,302.213 206.24,303.132 208.494,309.671 208.957,310.799 211.73,316.593 212.479,317.908 215.828,322.924 216.95,324.331 220.93,328.536 222.441,329.857 227.106,333.217 228.888,334.254 234.294,336.735 236.124,337.381 242.327,338.95 244,339.234 251.055,339.859 251.947,329.779 252.643,339.875 259.904,339.374 261.586,339.122 267.933,337.644 269.807,337.019 275.303,334.601 277.155,333.554 281.861,330.232 283.441,328.866 287.42,324.677 288.586,323.21 291.899,318.191 292.663,316.823 295.373,311.011 295.833,309.849 298.001,303.28 298.263,302.346 299.952,295.056 300.093,294.33 301.365,286.357 301.438,285.805 302.354,277.186 302.389,276.777 303.012,267.547 303.028,267.255 303.419,257.452 303.425,257.256 303.647,246.917 303.649,246.801 303.764,235.962 303.765,235.914 303.835,224.612 303.835,224.524 303.809,211.625 303.757,185.828 303.732,172.929 303.732,172.929 303.706,160.03 303.654,134.233 303.654,134.233 303.628,121.334 303.551,82.6375 303.551,82.6375 303.525,69.7387 303.447,31.0423 303.447,31.0423 303.443,28.7465 304.593,28.7391 316.346,28.6635 328.1,28.5879 339.853,28.5124 351.606,28.4368 363.359,28.3613 375.113,28.2857 386.866,28.2101 410.372,28.059 422.126,27.9835 433.879,27.9079 445.632,27.8323 457.385,27.7568 469.139,27.6812 470.173,27.6746 " fill="none" stroke-width="0.5" stroke="rgb(0,0,0)" />
	<polygon points="318.983,422.79 319.024,422.924 319.354,424.376 319.439,424.788 319.489,425.056 319.971,425.433 320.838,426.168 320.963,426.292 321.35,425.969 322.113,425.388 322.813,424.903 323.43,424.529 323.054,421.809 323.054,421.449 " fill="none" stroke-width="0.5" stroke="rgb(0,0,0)" />
	<polygon points="107.456,168.209 110.37,170.8 111.459,171.923 111.728,172.244 111.847,172.115 110.873,171.225 109.391,169.553 108.113,167.764 " fill="none" stroke-width="0.5" stroke="rgb(0,0,0)" />
	<polygon points="423.414,148.502 425.979,149.26 427.945,150.062 428.063,150.124 428.023,149.488 427.16,149.108 425.271,148.036 424.527,147.507 " fill="none" stroke-width="0.5" stroke="rgb(0,0,0)" />
</svg>
