<?xml version="1.0" standalone="no" ?>
<!DOCTYPE svg PUBLIC "-//W3C//DTD SVG 1.1//EN" "http://www.w3.org/Graphics/SVG/1.1/DTD/svg11.dtd">
<svg width="500px" height="500px" xmlns="http://www.w3.org/2000/svg" version="1.1" >
	<polygon points="470.073,280.984 469.269,295.318 466.864,310.501 462.802,326.534 457.059,343.104 449.62,359.912 440.477,376.664 429.624,393.076 417.057,408.871 402.77,423.778 386.756,437.535 369.001,449.884 349.484,460.571 328.17,469.345 305.018,475.948 279.976,480.115 252.983,481.568 226.685,480.197 202.176,476.253 179.431,469.985 158.417,461.632 139.108,451.425 121.484,439.591 105.534,426.356 91.257,411.95 78.6543,396.607 67.7322,380.568 58.4968,364.078 50.9535,347.389 45.1048,330.761 40.9481,314.458 38.4733,298.753 37.6405,283.61 37.6405,30.2435 38.4647,30.2372 49.9564,30.149 61.4481,30.0608 72.9397,29.9726 84.4314,29.8845 95.9231,29.7963 107.415,29.7081 118.906,29.6199 130.398,29.5318 141.89,29.4436 153.381,29.3554 164.873,29.2672 176.365,29.1791 187.856,29.0909 199.986,28.9978 199.982,31.0424 199.982,31.0424 199.956,43.9412 199.931,56.84 199.906,69.7388 199.906,69.7388 199.88,82.6376 199.829,108.435 199.829,108.435 199.804,121.334 199.753,147.132 199.753,147.132 199.728,160.03 199.702,172.929 199.702,172.929 199.677,185.828 199.651,198.727 199.626,211.626 199.6,224.524 199.601,224.629 199.688,235.923 199.689,236.004 199.853,246.821 199.856,246.967 200.153,257.273 200.162,257.497 200.647,267.258 200.667,267.575 201.395,276.759 201.438,277.187 202.465,285.76 202.548,286.326 203.928,294.254 204.082,294.987 205.872,302.237 206.145,303.164 208.399,309.703 208.866,310.842 211.64,316.636 212.396,317.963 215.745,322.98 216.878,324.4 220.857,328.605 222.383,329.939 227.048,333.298 228.846,334.345 234.252,336.826 236.1,337.478 242.302,339.047 243.992,339.334 251.046,339.958 251.947,329.779 252.65,339.975 259.911,339.474 261.609,339.219 267.956,337.741 269.848,337.111 275.343,334.693 277.213,333.636 281.919,330.314 283.514,328.935 287.492,324.746 288.669,323.265 291.982,318.246 292.754,316.866 295.463,311.053 295.928,309.88 298.096,303.311 298.36,302.368 300.049,295.079 300.192,294.345 301.463,286.372 301.537,285.816 302.453,277.196 302.489,276.784 303.112,267.554 303.128,267.259 303.519,257.456 303.525,257.259 303.747,246.919 303.749,246.802 303.864,235.963 303.865,235.915 303.935,224.612 303.935,224.524 303.909,211.625 303.857,185.828 303.832,172.929 303.832,172.929 303.806,160.03 303.754,134.232 303.754,134.232 303.728,121.334 303.651,82.6373 303.651,82.6373 303.625,69.7385 303.547,31.0421 303.547,31.0421 303.543,28.8458 304.594,28.8391 316.347,28.7635 328.1,28.6879 339.853,28.6124 351.607,28.5368 363.36,28.4613 375.113,28.3857 386.866,28.3101 410.373,28.159 422.126,28.0835 433.879,28.0079 445.633,27.9323 457.386,27.8568 469.139,27.7812 470.073,27.7752 " fill="none" stroke-width="0.5" stroke="rgb(0,0,0)" />
	<polygon points="319.107,422.855 319.121,422.902 319.452,424.354 319.537,424.769 319.58,425 320.036,425.357 320.903,426.092 320.968,426.158 321.286,425.893 322.056,425.306 322.756,424.821 323.323,424.477 322.954,421.809 322.954,421.587 " fill="none" stroke-width="0.5" stroke="rgb(0,0,0)" />
	<polygon points="107.618,168.219 109.78,170.142 109.31,169.612 108.088,167.901 " fill="none" stroke-width="0.5" stroke="rgb(0,0,0)" />
	<polygon points="423.614,148.457 426.008,149.164 427.953,149.958 427.928,149.555 427.12,149.2 425.213,148.118 424.534,147.635 " fill="none" stroke-width="0.5" stroke="rgb(0,0,0)" />
</svg>
