<?xml version="1.0" standalone="no" ?>
<!DOCTYPE svg PUBLIC "-//W3C//DTD SVG 1.1//EN" "http://www.w3.org/Graphics/SVG/1.1/DTD/svg11.dtd">
<svg width="500px" height="500px" xmlns="http://www.w3.org/2000/svg" version="1.1" >
	<polygon points="466.223,280.876 465.436,294.908 463.089,309.725 459.11,325.429 453.473,341.693 446.164,358.208 437.176,374.676 426.506,390.811 414.155,406.335 400.12,420.98 384.396,434.487 366.972,446.605 347.821,457.092 326.906,465.702 304.171,472.186 279.555,476.282 252.98,477.713 227.093,476.363 202.995,472.485 180.657,466.329 160.033,458.131 141.086,448.116 123.792,436.503 108.137,423.513 94.118,409.368 81.7392,394.297 71.0091,378.54 61.9368,362.341 54.5303,345.955 48.7933,329.645 44.7231,313.681 42.3067,298.347 41.4905,283.505 41.4905,34.0641 49.9859,33.9989 61.4776,33.9107 61.4776,33.9107 72.9693,33.8225 84.4609,33.7344 95.9526,33.6462 95.9526,33.6462 107.444,33.558 118.936,33.4698 130.428,33.3816 141.919,33.2935 153.411,33.2053 164.903,33.1171 176.394,33.0289 187.886,32.9408 196.128,32.8775 196.107,43.9336 196.081,56.8324 196.056,69.7312 196.056,69.7312 196.03,82.63 195.979,108.428 195.979,108.428 195.954,121.326 195.903,147.124 195.903,147.124 195.878,160.023 195.852,172.922 195.852,172.922 195.827,185.82 195.801,198.719 195.776,211.618 195.776,211.618 195.75,224.517 195.751,224.658 195.838,235.953 195.839,236.062 196.004,246.879 196.008,247.078 196.305,257.384 196.317,257.688 196.802,267.449 196.829,267.879 197.558,277.063 197.615,277.645 198.642,286.218 198.755,286.986 200.135,294.915 200.344,295.909 202.134,303.16 202.506,304.419 204.76,310.958 205.394,312.504 208.168,318.298 209.194,320.101 212.543,325.117 214.082,327.046 218.061,331.251 220.133,333.063 224.798,336.422 227.24,337.844 232.647,340.325 235.155,341.21 241.358,342.78 243.652,343.169 250.707,343.793 251.947,329.779 252.915,343.815 260.176,343.315 262.482,342.969 268.829,341.491 271.398,340.635 276.894,338.217 279.433,336.781 284.139,333.459 286.305,331.586 290.284,327.397 291.883,325.386 295.195,320.367 296.243,318.492 298.953,312.68 299.584,311.087 301.752,304.518 302.111,303.237 303.8,295.948 303.994,294.952 305.265,286.979 305.366,286.223 306.282,277.603 306.33,277.043 306.953,267.813 306.975,267.413 307.366,257.61 307.374,257.341 307.596,247.002 307.599,246.843 307.714,236.003 307.715,235.939 307.785,224.636 307.785,224.516 307.759,211.618 307.707,185.82 307.682,172.921 307.682,172.921 307.656,160.022 307.604,134.225 307.604,134.225 307.578,121.326 307.501,82.6296 307.501,82.6295 307.475,69.7307 307.4,32.6711 316.372,32.6134 328.125,32.5379 339.878,32.4623 351.631,32.3867 351.631,32.3867 363.385,32.3112 375.138,32.2356 386.891,32.1601 386.891,32.1601 410.398,32.0089 422.151,31.9334 422.151,31.9334 433.904,31.8578 445.657,31.7823 457.411,31.7067 466.223,31.65 " fill="none" stroke-width="0.5" stroke="rgb(0,0,0)" />
</svg>
