<?xml version="1.0" standalone="no" ?>
<!DOCTYPE svg PUBLIC "-//W3C//DTD SVG 1.1//EN" "http://www.w3.org/Graphics/SVG/1.1/DTD/svg11.dtd">
<svg width="500px" height="500px" xmlns="http://www.w3.org/2000/svg" version="1.1" >
	<polygon points="469.223,280.961 468.422,295.227 466.031,310.33 461.987,326.29 456.267,342.793 448.857,359.535 439.748,376.225 428.936,392.576 416.416,408.311 402.185,423.161 386.235,436.862 368.553,449.16 349.117,459.803 327.891,468.54 304.831,475.117 279.883,479.268 252.983,480.717 226.775,479.35 202.357,475.421 179.701,469.178 158.774,460.859 139.545,450.694 121.994,438.909 106.109,425.728 91.8886,411.38 79.3354,396.097 68.4556,380.12 59.2563,363.694 51.7432,347.073 45.9191,330.515 41.7815,314.287 39.3196,298.663 38.4905,283.587 38.4905,31.087 49.9629,30.999 61.4546,30.9108 72.9463,30.8226 84.4379,30.7344 95.9296,30.6463 118.913,30.4699 130.405,30.3817 130.405,30.3817 141.896,30.2936 153.388,30.2054 153.388,30.2054 164.88,30.1172 176.371,30.029 187.863,29.9409 187.863,29.9409 199.134,29.8544 199.132,31.0408 199.132,31.0408 199.106,43.9396 199.056,69.7372 199.056,69.7372 199.03,82.6359 198.979,108.434 198.979,108.434 198.954,121.332 198.903,147.13 198.903,147.13 198.878,160.029 198.852,172.928 198.852,172.928 198.827,185.826 198.801,198.725 198.776,211.624 198.75,224.523 198.751,224.635 198.838,235.93 198.839,236.016 199.003,246.833 199.007,246.991 199.304,257.297 199.313,257.539 199.798,267.3 199.82,267.642 200.548,276.826 200.594,277.288 201.621,285.861 201.71,286.472 203.091,294.4 203.257,295.19 205.046,302.441 205.342,303.441 207.596,309.98 208.1,311.209 210.874,317.003 211.689,318.435 215.038,323.452 216.261,324.984 220.24,329.189 221.886,330.628 226.551,333.988 228.492,335.117 233.898,337.599 235.891,338.302 242.094,339.871 243.917,340.18 250.971,340.805 251.947,329.779 252.709,340.823 259.969,340.322 261.802,340.047 268.149,338.569 270.19,337.889 275.685,335.471 277.703,334.33 282.409,331.008 284.13,329.52 288.108,325.331 289.379,323.733 292.692,318.714 293.524,317.225 296.234,311.412 296.735,310.147 298.903,303.577 299.188,302.56 300.877,295.27 301.032,294.479 302.303,286.506 302.383,285.906 303.299,277.286 303.337,276.841 303.96,267.611 303.977,267.293 304.368,257.49 304.375,257.277 304.597,246.937 304.599,246.811 304.714,235.972 304.715,235.92 304.785,224.617 304.785,224.522 304.759,211.624 304.733,198.725 304.682,172.927 304.682,172.927 304.656,160.028 304.604,134.231 304.604,134.231 304.578,121.332 304.501,82.6356 304.501,82.6356 304.475,69.7368 304.397,31.0404 304.397,31.0404 304.394,29.6904 304.599,29.689 316.352,29.6135 328.106,29.5379 339.859,29.4624 351.612,29.3868 363.365,29.3112 375.119,29.2357 386.872,29.1601 410.378,29.009 422.132,28.9334 433.885,28.8579 445.638,28.7823 457.391,28.7068 469.145,28.6312 469.223,28.6307 " fill="none" stroke-width="0.5" stroke="rgb(0,0,0)" />
	<polygon points="320.111,423.419 320.28,424.166 320.355,424.528 320.586,424.709 320.989,425.051 321.572,424.607 322.272,424.122 322.412,424.038 322.23,422.72 " fill="none" stroke-width="0.5" stroke="rgb(0,0,0)" />
</svg>
