<?xml version="1.0" standalone="no" ?>
<!DOCTYPE svg PUBLIC "-//W3C//DTD SVG 1.1//EN" "http://www.w3.org/Graphics/SVG/1.1/DTD/svg11.dtd">
<svg width="500px" height="500px" xmlns="http://www.w3.org/2000/svg" version="1.1" >
	<polygon points="468.623,280.944 467.825,295.163 465.442,310.209 461.411,326.118 455.708,342.573 448.318,359.27 439.234,375.915 428.45,392.223 415.964,407.916 401.772,422.724 385.867,436.387 368.237,448.649 348.858,459.261 327.694,467.973 304.699,474.531 279.817,478.671 252.982,480.116 226.839,478.753 202.484,474.834 179.893,468.608 159.026,460.313 139.853,450.179 122.353,438.428 106.515,425.285 92.3345,410.977 79.8162,395.737 68.9663,379.804 59.7924,363.424 52.3006,346.849 46.4939,330.341 42.3698,314.166 39.9171,298.6 39.0905,283.571 39.0905,31.6824 49.9675,31.5989 61.4592,31.5108 61.4592,31.5108 72.9509,31.4226 84.4425,31.3344 95.9342,31.2462 95.9342,31.2462 107.426,31.1581 118.918,31.0699 130.409,30.9817 153.393,30.8054 164.884,30.7172 176.376,30.629 187.868,30.5408 198.533,30.459 198.532,31.0396 198.532,31.0396 198.507,43.9384 198.481,56.8372 198.456,69.736 198.456,69.736 198.43,82.6348 198.379,108.432 198.379,108.432 198.354,121.331 198.303,147.129 198.303,147.129 198.278,160.028 198.252,172.926 198.252,172.926 198.227,185.825 198.201,198.724 198.176,211.623 198.176,211.623 198.15,224.522 198.151,224.64 198.238,235.934 198.239,236.026 198.403,246.843 198.407,247.009 198.704,257.315 198.714,257.568 199.199,267.33 199.222,267.689 199.95,276.873 199.998,277.36 201.025,285.933 201.119,286.575 202.5,294.503 202.674,295.334 204.464,302.584 204.774,303.637 207.029,310.176 207.558,311.468 210.332,317.262 211.19,318.768 214.539,323.785 215.825,325.397 219.804,329.601 221.535,331.115 226.201,334.475 228.241,335.663 233.648,338.144 235.744,338.883 241.947,340.453 243.864,340.778 250.918,341.402 251.947,329.779 252.75,341.421 260.011,340.92 261.938,340.631 268.285,339.154 270.432,338.438 275.927,336.02 278.049,334.82 282.755,331.499 284.565,329.933 288.544,325.745 289.88,324.064 293.192,319.045 294.068,317.478 296.777,311.666 297.305,310.335 299.473,303.765 299.773,302.695 301.462,295.406 301.624,294.574 302.895,286.601 302.979,285.969 303.895,277.349 303.936,276.881 304.559,267.652 304.576,267.317 304.968,257.514 304.975,257.29 305.197,246.95 305.199,246.818 305.314,235.978 305.315,235.924 305.385,224.621 305.385,224.521 305.359,211.622 305.307,185.825 305.282,172.926 305.282,172.926 305.256,160.027 305.204,134.23 305.204,134.23 305.178,121.331 305.101,82.6344 305.101,82.6344 305.075,69.7356 304.997,31.0392 304.997,31.0392 304.996,30.2865 316.356,30.2135 328.109,30.1379 339.863,30.0624 351.616,29.9868 363.369,29.9112 375.122,29.8357 386.876,29.7601 410.382,29.609 422.135,29.5334 433.889,29.4579 445.642,29.3823 457.395,29.3067 468.623,29.2346 " fill="none" stroke-width="0.5" stroke="rgb(0,0,0)" />
	<polygon points="320.817,423.818 320.865,424.033 320.898,424.192 320.974,424.251 321.01,424.282 321.231,424.114 321.771,423.74 321.74,423.514 " fill="none" stroke-width="0.5" stroke="rgb(0,0,0)" />
</svg>
