<?xml version="1.0" standalone="no" ?>
<!DOCTYPE svg PUBLIC "-//W3C//DTD SVG 1.1//EN" "http://www.w3.org/Graphics/SVG/1.1/DTD/svg11.dtd">
<svg width="500px" height="500px" xmlns="http://www.w3.org/2000/svg" version="1.1" >
	<polygon points="470.773,281.004 469.966,295.392 467.551,310.642 463.473,326.735 457.71,343.361 450.248,360.222 441.078,377.025 430.191,393.488 417.585,409.332 403.252,424.287 387.185,438.089 369.37,450.48 349.786,461.204 328.4,470.007 305.172,476.632 280.052,480.812 252.984,482.269 226.611,480.894 202.027,476.938 179.208,470.649 158.124,462.268 138.748,452.027 121.064,440.152 105.061,426.873 90.7368,412.42 78.0935,397.027 67.1364,380.936 57.8713,364.393 50.3032,347.65 44.4341,330.964 40.2617,314.6 37.7763,298.827 36.9405,283.63 36.9405,29.5488 38.4593,29.5372 49.951,29.449 61.4427,29.3608 72.9344,29.2727 84.426,29.1845 95.9177,29.0963 107.409,29.0081 118.901,28.92 130.393,28.8318 141.884,28.7436 153.376,28.6554 164.868,28.5673 176.359,28.4791 187.851,28.3909 200.687,28.2924 200.682,31.0438 200.682,31.0438 200.656,43.9426 200.631,56.8414 200.606,69.7402 200.606,69.7402 200.58,82.639 200.529,108.437 200.529,108.437 200.504,121.335 200.453,147.133 200.428,160.032 200.402,172.931 200.377,185.829 200.351,198.728 200.326,211.627 200.3,224.526 200.301,224.623 200.388,235.918 200.389,235.993 200.553,246.81 200.556,246.947 200.853,257.253 200.861,257.462 201.346,267.224 201.365,267.519 202.093,276.703 202.133,277.104 203.16,285.677 203.237,286.206 204.618,294.134 204.762,294.819 206.551,302.069 206.807,302.936 209.061,309.475 209.498,310.539 212.272,316.334 212.978,317.575 216.327,322.591 217.386,323.919 221.366,328.123 222.792,329.37 227.457,332.73 229.138,333.709 234.544,336.19 236.271,336.799 242.474,338.369 244.053,338.637 251.108,339.261 251.947,329.779 252.602,339.276 259.863,338.775 261.45,338.537 267.797,337.06 269.566,336.47 275.061,334.052 276.809,333.064 281.515,329.742 283.006,328.453 286.985,324.264 288.085,322.879 291.398,317.86 292.119,316.57 294.829,310.757 295.264,309.661 297.431,303.092 297.678,302.21 299.367,294.921 299.501,294.235 300.772,286.262 300.841,285.742 301.757,277.122 301.791,276.737 302.413,267.507 302.428,267.232 302.82,257.429 302.825,257.243 303.048,246.904 303.049,246.795 303.164,235.955 303.165,235.911 303.235,224.608 303.235,224.525 303.209,211.627 303.183,198.728 303.157,185.829 303.132,172.93 303.132,172.93 303.106,160.031 303.054,134.234 303.054,134.234 303.028,121.335 302.951,82.6387 302.951,82.6387 302.925,69.7399 302.847,31.0435 302.847,31.0435 302.841,28.1503 304.589,28.1391 316.342,28.0635 328.096,27.988 339.849,27.9124 363.355,27.7613 375.109,27.6857 386.862,27.6102 410.368,27.459 422.122,27.3835 445.628,27.2323 457.381,27.1568 469.135,27.0812 470.773,27.0707 " fill="none" stroke-width="0.5" stroke="rgb(0,0,0)" />
	<polygon points="196.209,445.114 197.551,445.253 198.566,445.293 199.061,445.266 195.326,444.972 " fill="none" stroke-width="0.5" stroke="rgb(0,0,0)" />
	<polygon points="318.241,422.403 318.439,423.057 318.769,424.51 318.849,424.898 318.941,425.388 318.952,425.397 319.583,425.89 320.45,426.626 320.932,427.105 321.026,427.022 321.734,426.43 322.455,425.881 323.155,425.396 324.111,424.817 324.03,424.53 323.654,421.809 323.654,420.619 " fill="none" stroke-width="0.5" stroke="rgb(0,0,0)" />
	<polygon points="168.659,414.8 168.606,415.57 169.207,414.187 168.655,413.898 " fill="none" stroke-width="0.5" stroke="rgb(0,0,0)" />
	<polygon points="76.8826,316.04 76.8547,316.297 77.5472,315.678 77.8468,315.459 77.1741,314.922 " fill="none" stroke-width="0.5" stroke="rgb(0,0,0)" />
	<polygon points="163.256,254.719 163.462,254.327 163.165,254.267 " fill="none" stroke-width="0.5" stroke="rgb(0,0,0)" />
	<polygon points="96.911,218.339 97.8158,218.599 97.8902,218.272 96.4254,218.271 " fill="none" stroke-width="0.5" stroke="rgb(0,0,0)" />
	<polygon points="92.1532,217.989 92.2765,218.475 92.4735,218.411 93.2025,218.289 95.8692,218.254 92.8294,217.914 92.0713,217.74 " fill="none" stroke-width="0.5" stroke="rgb(0,0,0)" />
	<polygon points="433.3,216.854 433.041,216.904 433.152,216.996 433.235,217.082 433.411,216.827 " fill="none" stroke-width="0.5" stroke="rgb(0,0,0)" />
	<polygon points="106.899,167.865 106.4,168.136 106.972,168.582 109.971,171.248 110.999,172.308 111.758,173.215 112.126,172.699 112.694,172.077 111.278,170.782 109.879,169.205 108.263,166.941 " fill="none" stroke-width="0.5" stroke="rgb(0,0,0)" />
	<polygon points="424.201,146.993 422.212,148.772 425.809,149.835 427.665,150.592 428.719,151.15 428.712,151.128 428.598,149.085 427.401,148.559 425.619,147.547 424.439,146.708 " fill="none" stroke-width="0.5" stroke="rgb(0,0,0)" />
	<polygon points="91.4341,119.266 89.9875,120.206 89.3825,120.528 90.1053,120.528 91.5104,120.671 91.7786,120.726 91.6205,119.544 91.5938,119.327 91.5749,119.157 " fill="none" stroke-width="0.5" stroke="rgb(0,0,0)" />
	<polygon points="186.365,116.261 185.28,117.874 187.338,117.245 187.669,117.178 186.566,115.876 " fill="none" stroke-width="0.5" stroke="rgb(0,0,0)" />
</svg>
