<?xml version="1.0" standalone="no" ?>
<!DOCTYPE svg PUBLIC "-//W3C//DTD SVG 1.1//EN" "http://www.w3.org/Graphics/SVG/1.1/DTD/svg11.dtd">
<svg width="500px" height="500px" xmlns="http://www.w3.org/2000/svg" version="1.1" >
	<polygon points="472.673,89.4437 472.099,89.984 466.398,94.1046 468.702,94.5775 470.132,95.0112 472.227,95.8633 472.673,96.1006 472.673,281.057 471.857,295.595 469.414,311.025 465.295,327.28 459.48,344.058 451.954,361.063 442.707,378.006 431.73,394.605 419.017,410.583 404.56,425.668 388.35,439.594 370.372,452.097 350.606,462.921 329.025,471.805 313.834,476.137 313.717,476.021 313.747,476.094 313.765,476.157 305.59,478.488 280.26,482.703 252.986,484.172 226.41,482.786 201.622,478.797 178.603,472.454 157.326,463.996 137.772,453.66 119.925,441.676 103.777,428.276 89.3249,413.694 76.5711,398.167 65.5192,381.937 56.1737,365.251 48.5381,348.358 42.6138,331.515 38.9119,316.996 40.3965,313.965 38.2312,313.921 35.8844,299.027 35.0405,283.682 35.0405,148.615 35.2414,148.373 35.0405,148.314 35.0405,35.8954 36.0053,35.2729 36.0259,35.2598 35.0405,35.0102 35.0405,27.6634 38.4448,27.6372 49.9364,27.5491 61.4281,27.4609 72.9198,27.3727 84.4115,27.2845 95.9031,27.1964 107.395,27.1082 118.886,27.02 130.378,26.9318 141.87,26.8437 153.361,26.7555 164.853,26.6673 176.345,26.5791 187.837,26.491 202.591,26.3777 202.582,31.0476 202.582,31.0476 202.556,43.9464 202.531,56.8452 202.506,69.744 202.506,69.744 202.48,82.6427 202.429,108.44 202.404,121.339 202.353,147.137 202.328,160.036 202.302,172.934 202.277,185.777 202.227,185.813 202.079,185.898 202.276,186.007 202.251,198.732 202.226,211.631 202.2,224.53 202.201,224.608 202.288,235.903 202.288,235.964 202.453,246.781 202.455,246.892 202.752,257.198 202.759,257.368 203.244,267.129 203.259,267.369 203.987,276.553 204.02,276.878 205.046,285.451 205.109,285.88 206.49,293.808 206.606,294.363 208.396,301.614 208.603,302.317 210.857,308.856 211.211,309.719 213.985,315.513 214.558,316.52 217.907,321.536 218.766,322.613 222.746,326.817 223.902,327.829 228.567,331.188 229.931,331.982 235.337,334.463 236.737,334.957 242.94,336.527 244.221,336.744 251.275,337.368 251.661,333.015 251.681,333.056 252.19,334.403 252.291,334.762 252.471,337.381 259.732,336.88 261.019,336.687 267.366,335.209 268.801,334.731 274.296,332.313 275.713,331.512 280.419,328.19 281.629,327.144 285.607,322.956 286.499,321.833 289.812,316.814 290.397,315.767 293.107,309.955 293.459,309.066 295.627,302.496 295.827,301.781 297.516,294.492 297.625,293.936 298.896,285.963 298.952,285.541 299.868,276.921 299.895,276.609 300.518,267.379 300.53,267.156 300.921,257.353 300.926,257.203 301.148,246.863 301.149,246.774 301.265,235.935 301.265,235.899 301.335,224.596 301.335,224.529 301.309,211.63 301.283,198.732 301.257,185.833 301.232,172.934 301.232,172.934 301.206,160.035 301.154,134.238 301.154,134.238 301.128,121.339 301.051,82.6425 301.051,82.6425 301.025,69.7437 300.947,31.0473 300.947,31.0473 300.938,26.2625 304.577,26.2391 316.33,26.1636 328.083,26.088 339.837,26.0124 351.59,25.9369 363.343,25.8613 375.096,25.7858 386.85,25.7102 410.356,25.5591 422.109,25.4835 433.863,25.4079 445.616,25.3324 457.369,25.2568 469.122,25.1813 472.673,25.1584 " fill="none" stroke-width="0.5" stroke="rgb(0,0,0)" />
	<polygon points="305.681,468.566 305.244,469.031 306.439,469.249 307.108,469.441 308.992,470.253 309.486,470.544 310.171,471.091 309.53,469.874 308.93,468.404 308.177,465.881 308.027,465.113 " fill="none" stroke-width="0.5" stroke="rgb(0,0,0)" />
	<polygon points="192.737,443.574 193.131,444.736 193.604,446.569 194.449,446.755 195.96,446.998 197.416,447.149 198.58,447.195 200.137,447.11 201.574,446.857 202.81,446.452 203.779,445.938 204.51,445.337 205.111,444.559 205.655,443.365 202.927,443.568 201.681,443.566 195.463,443.077 194.084,442.848 192.225,442.373 " fill="none" stroke-width="0.5" stroke="rgb(0,0,0)" />
	<polygon points="316.717,420.905 315.768,421.107 316.256,422.387 316.586,423.479 316.916,424.931 316.981,425.246 317.213,426.485 317.842,426.939 318.354,427.339 319.22,428.074 320.131,428.981 320.842,429.809 321.117,429.533 321.832,428.848 322.243,428.48 322.952,427.888 323.536,427.444 324.237,426.959 325.075,426.45 325.765,426.086 326.482,425.778 326.208,425.257 325.859,424.016 325.554,421.809 325.554,417.992 " fill="none" stroke-width="0.5" stroke="rgb(0,0,0)" />
	<polygon points="166.758,413.483 166.763,414.671 166.474,418.904 169.749,419.335 169.738,419.001 169.77,418.633 170.084,417.003 170.18,416.684 170.942,414.929 171.099,414.659 171.985,413.495 171.93,413.469 169.293,412.088 168.656,411.716 166.513,410.332 " fill="none" stroke-width="0.5" stroke="rgb(0,0,0)" />
	<polygon points="259.671,403.484 259.395,404.414 258.789,405.902 258.594,406.271 258.787,406.357 261.646,407.784 262.176,408.073 264.959,409.73 265.4,410.012 268.018,411.808 268.422,412.104 270.786,413.95 271.198,414.294 273.221,416.099 273.326,416.201 273.924,416.098 274.263,416.047 275.597,415.874 275.729,415.86 268.764,411.738 267.387,410.713 260.286,404.158 259.674,403.468 " fill="none" stroke-width="0.5" stroke="rgb(0,0,0)" />
	<polygon points="350.59,395.822 349.838,397.077 349.444,397.619 352.837,397.43 352.946,397.429 352.345,396.741 351.503,395.59 351.058,394.853 " fill="none" stroke-width="0.5" stroke="rgb(0,0,0)" />
	<polygon points="204.097,391.448 204.601,392.57 204.932,393.49 205.495,392.659 207.373,390.691 208.306,389.996 207.235,390.091 205.62,390.074 203.207,389.807 " fill="none" stroke-width="0.5" stroke="rgb(0,0,0)" />
	<polygon points="243.671,374.622 243.841,374.736 245.179,375.856 245.922,376.628 245.944,376.655 246.296,376.665 246.345,376.67 245.941,375.179 245.69,373.774 245.54,372.109 " fill="none" stroke-width="0.5" stroke="rgb(0,0,0)" />
	<polygon points="82.818,368.038 81.8381,368.108 80.6486,368.12 81.1296,369.337 81.6772,372.952 83.0864,371.697 84.1437,370.899 85.4845,370.049 85.1141,369.734 84.0442,368.632 83.4953,367.949 " fill="none" stroke-width="0.5" stroke="rgb(0,0,0)" />
	<polygon points="357.909,370.568 357.907,370.589 358.248,370.472 358.205,370.444 357.892,370.192 " fill="none" stroke-width="0.5" stroke="rgb(0,0,0)" />
	<polygon points="117.694,360.239 117.357,361.379 119.917,361.148 119.459,360.638 118.792,359.668 118.075,358.215 " fill="none" stroke-width="0.5" stroke="rgb(0,0,0)" />
	<polygon points="294.447,359.38 294.849,359.678 295.027,359.814 295.355,360.072 295.348,359.748 295.385,358.957 " fill="none" stroke-width="0.5" stroke="rgb(0,0,0)" />
	<polygon points="394.311,342.686 393.594,343.201 392.573,343.853 390.5,344.8 389.665,345.048 388.338,345.156 389.061,347.205 389.336,348.397 392.652,345.618 394.607,344.404 396.295,343.662 395.946,343.242 395.762,343.012 395.052,342.091 " fill="none" stroke-width="0.5" stroke="rgb(0,0,0)" />
	<polygon points="59.4028,341.773 61.3917,344.972 61.6644,343.709 62.2027,342.076 62.987,340.339 62.4184,340.217 61.3189,339.899 59.0736,339.074 " fill="none" stroke-width="0.5" stroke="rgb(0,0,0)" />
	<polygon points="160.634,335.403 159.6,336.605 157.419,338.69 156.061,339.738 154.553,340.666 156.059,341.579 157.033,342.272 159.382,344.217 159.4,344.234 159.455,342.526 159.493,341.969 159.672,340.205 159.762,339.565 160.068,337.888 160.255,337.093 160.694,335.57 160.884,335.048 " fill="none" stroke-width="0.5" stroke="rgb(0,0,0)" />
	<polygon points="415.653,333.903 414.355,334.044 414.361,334.078 414.584,335.447 414.629,335.753 414.787,337.022 414.838,337.598 414.898,338.727 414.906,339.395 414.897,339.728 414.86,340.287 418.033,340.557 416.802,338.16 415.812,333.873 " fill="none" stroke-width="0.5" stroke="rgb(0,0,0)" />
	<polygon points="165.545,324.88 164.795,327.695 164.319,329.013 163.785,330.17 164.934,328.994 165.809,328.336 167.967,327.337 166.301,324.814 165.746,323.74 " fill="none" stroke-width="0.5" stroke="rgb(0,0,0)" />
	<polygon points="75.8939,312.302 75.0086,315.696 74.7232,318.339 74.749,319.252 74.8622,320.325 75.0455,321.19 75.1276,321.056 76.0783,319.8 77.496,318.261 78.6707,317.211 80.3717,315.963 81.2671,315.43 80.7992,315.187 79.47,314.323 78.041,313.182 76.8767,312.045 76.2541,311.301 " fill="none" stroke-width="0.5" stroke="rgb(0,0,0)" />
	<polygon points="384.209,316.358 384.04,317.23 383.847,319.327 383.846,319.344 384.069,318.66 384.597,316.285 384.704,315 " fill="none" stroke-width="0.5" stroke="rgb(0,0,0)" />
	<polygon points="133.371,306.997 133.371,307.014 134.059,306.936 133.246,305.574 " fill="none" stroke-width="0.5" stroke="rgb(0,0,0)" />
	<polygon points="162.667,299.01 161.071,299.388 159.888,299.544 158.82,299.57 159.156,300.087 159.613,300.884 161.958,305.565 162.017,304.461 162.109,303.596 162.602,300.549 162.783,299.71 163.005,298.893 " fill="none" stroke-width="0.5" stroke="rgb(0,0,0)" />
	<polygon points="458.842,290.057 458.072,290.695 457.349,291.569 459.257,291.877 459.14,291.081 458.871,290.044 " fill="none" stroke-width="0.5" stroke="rgb(0,0,0)" />
	<polygon points="86.7156,288.767 87.3282,289.089 87.6958,289.382 87.7818,288.963 88.0443,286.21 " fill="none" stroke-width="0.5" stroke="rgb(0,0,0)" />
	<polygon points="157.393,228.481 157.239,228.797 157.956,229.58 158.921,233.784 158.861,235.211 158.837,235.575 158.678,237.397 158.661,237.568 158.437,239.639 158.428,239.719 158.17,241.895 158.168,241.913 157.913,244.027 157.698,245.886 157.564,247.252 157.548,247.561 158.348,248.017 160.534,251.647 160.999,253.272 161.153,253.905 161.519,255.715 161.588,256.108 161.88,258.037 161.91,258.256 162.154,260.234 162.163,260.309 162.383,262.234 162.582,263.86 162.619,263.872 162.681,261.603 163.823,257.629 165.378,254.683 166.715,253.068 166.448,253.128 162.593,252.036 159.724,249.24 158.535,245.414 158.701,243.286 158.938,242.171 159.139,241.129 159.315,240.094 159.464,239.067 159.583,238.047 159.671,237.033 159.725,236.026 159.741,235.145 159.652,233.328 159.386,231.653 158.908,229.98 158.161,228.254 157.836,227.71 " fill="none" stroke-width="0.5" stroke="rgb(0,0,0)" />
	<polygon points="131.4,251.76 131.617,251.513 131.379,250.527 131.103,249.633 " fill="none" stroke-width="0.5" stroke="rgb(0,0,0)" />
	<polygon points="382.336,248.167 381.76,248.861 383.7,247.931 383.703,247.93 382.993,247.189 " fill="none" stroke-width="0.5" stroke="rgb(0,0,0)" />
	<polygon points="327.707,236.661 326.058,236.66 325.949,236.649 327.269,238.142 329.274,241.49 329.68,241.287 330.267,241.061 330.126,240.802 329.504,239.332 328.8,237.072 328.695,236.561 " fill="none" stroke-width="0.5" stroke="rgb(0,0,0)" />
	<polygon points="310.901,227.378 310.705,227.418 311.041,227.796 313.045,228.989 313.982,229.396 313.962,229.365 313.316,228.179 312.731,226.799 " fill="none" stroke-width="0.5" stroke="rgb(0,0,0)" />
	<polygon points="89.233,215.918 89.5892,216.606 90.0959,217.813 90.3478,218.581 90.6217,219.661 90.7712,220.482 90.8237,220.92 92.7881,220.285 93.517,220.163 96.0023,220.13 96.6461,220.221 98.8337,220.85 99.3986,221.102 99.452,220.383 99.6323,219.18 100.325,216.131 98.0254,216.384 96.2294,216.382 93.0402,216.026 91.2122,215.605 88.3762,214.595 " fill="none" stroke-width="0.5" stroke="rgb(0,0,0)" />
	<polygon points="437.977,213.776 432.856,215.006 432.118,215.148 428.568,215.661 431.939,218.458 433.208,219.777 433.548,220.222 434.24,218.972 436.763,215.318 437.537,214.36 438.127,213.734 " fill="none" stroke-width="0.5" stroke="rgb(0,0,0)" />
	<polygon points="68.1752,218.362 68.2326,218.451 68.6714,217.704 68.0494,217.542 67.2244,217.243 " fill="none" stroke-width="0.5" stroke="rgb(0,0,0)" />
	<polygon points="191.529,216.312 191.537,216.336 192.899,215.943 192.85,215.85 192.379,215.307 191.618,214.752 190.478,214.226 " fill="none" stroke-width="0.5" stroke="rgb(0,0,0)" />
	<polygon points="381.53,203.353 380.657,204.64 380.362,204.996 380.695,205.27 380.915,205.491 382.437,203.486 383.137,203.169 382.095,202.319 " fill="none" stroke-width="0.5" stroke="rgb(0,0,0)" />
	<polygon points="146.817,176.295 146.156,176.47 146.683,176.974 146.91,176.263 " fill="none" stroke-width="0.5" stroke="rgb(0,0,0)" />
	<polygon points="108.315,164.466 107.28,165.322 105.989,166.197 104.803,166.844 103.333,167.467 102.489,167.731 104.874,169.351 105.71,170.002 108.708,172.668 109.542,173.527 111.944,176.397 112.385,175.586 113.529,173.98 114.915,172.463 115.447,172.018 112.559,169.379 111.426,168.1 109.203,164.989 108.687,164.094 " fill="none" stroke-width="0.5" stroke="rgb(0,0,0)" />
	<polygon points="422.934,145.577 420.193,148.029 418.79,149.038 417.854,149.57 418.851,149.76 425.271,151.658 426.775,152.271 431.776,154.92 430.539,150.605 430.451,147.769 429.845,147.558 428.166,146.82 426.72,145.999 425.36,145.032 424.249,144.005 " fill="none" stroke-width="0.5" stroke="rgb(0,0,0)" />
	<polygon points="355.999,144.523 356.851,144.438 358.483,144.438 359.823,144.573 360.754,144.762 357.821,142.196 356.835,141.169 356.372,140.592 " fill="none" stroke-width="0.5" stroke="rgb(0,0,0)" />
	<polygon points="127.468,138.356 127.791,139.323 127.973,140.193 128.075,139.78 128.284,138.776 128.438,137.855 " fill="none" stroke-width="0.5" stroke="rgb(0,0,0)" />
	<polygon points="313.132,126.326 312.28,126.913 311.581,127.583 311.065,128.266 310.751,128.864 310.384,130.026 309.746,131.055 310.169,131.226 310.961,131.447 311.8,131.581 312.829,131.633 313.045,131.627 313.476,131.593 314.025,131.533 314.663,131.451 315.02,131.402 314.851,131.076 314.38,129.981 314.251,129.607 313.958,128.518 313.882,128.132 313.745,127.075 313.72,126.682 313.733,126.046 " fill="none" stroke-width="0.5" stroke="rgb(0,0,0)" />
	<polygon points="185.805,112.636 185.575,113.38 185.016,114.738 184.68,115.384 183.663,116.895 183.212,117.426 181.658,118.837 181.085,119.236 179.169,120.223 178.464,120.475 176.564,120.906 175.72,120.994 175.679,120.99 176.964,124.328 179.281,122.716 180.278,122.124 183.398,120.557 184.672,120.047 187.894,119.062 189.437,118.749 191.323,118.554 187.585,114.14 187.319,113.808 185.951,112.01 " fill="none" stroke-width="0.5" stroke="rgb(0,0,0)" />
	<polygon points="93.0668,115.548 92.5297,116.005 90.2665,117.768 89.0934,118.529 86.7553,119.776 84.4951,120.581 82.0938,121.054 81.7483,121.069 81.8527,122.903 81.8639,123.547 81.8479,124.266 82.4703,123.926 83.941,123.302 85.2499,122.892 86.8585,122.562 88.2615,122.419 89.9129,122.419 91.318,122.562 92.9244,122.891 94.0313,123.237 93.5038,119.292 93.4821,119.116 93.0822,115.533 " fill="none" stroke-width="0.5" stroke="rgb(0,0,0)" />
	<polygon points="125.414,113.955 125.928,113.443 125.624,113.115 " fill="none" stroke-width="0.5" stroke="rgb(0,0,0)" />
	<polygon points="416.078,105.39 416.072,105.213 416.218,104.921 416.15,104.919 415.545,104.901 " fill="none" stroke-width="0.5" stroke="rgb(0,0,0)" />
	<polygon points="394.915,103.798 395.395,104.526 396.371,104.206 397.863,103.644 395.02,103.292 394.867,103.271 394.454,103.212 " fill="none" stroke-width="0.5" stroke="rgb(0,0,0)" />
	<polygon points="146.786,104.067 147.756,103.996 146.919,103.323 " fill="none" stroke-width="0.5" stroke="rgb(0,0,0)" />
	<polygon points="67.518,96.3275 68.6653,96.8566 68.6859,96.6986 68.6874,96.6869 68.8251,95.6395 " fill="none" stroke-width="0.5" stroke="rgb(0,0,0)" />
	<polygon points="104.012,62.9725 102.176,64.5444 101.973,64.7124 100.191,66.1404 99.4098,66.6947 98.176,67.4649 98.404,68.5363 98.5117,69.3028 98.5138,69.3262 99.9082,68.5029 101.966,67.7894 104.888,67.5393 104.796,66.4328 104.775,66.0917 104.633,62.6876 104.614,62.4821 " fill="none" stroke-width="0.5" stroke="rgb(0,0,0)" />
	<polygon points="413.068,64.42 414.769,66.0162 416.423,67.3449 417.99,68.2962 419.431,68.8387 421.231,69.0658 421.239,69.0654 421.657,69.0019 421.67,68.9982 421.472,68.3408 420.25,67.0787 416.936,65.1179 412.293,63.1946 411.556,62.9502 " fill="none" stroke-width="0.5" stroke="rgb(0,0,0)" />
	<polygon points="126.91,67.543 126.799,68.0051 126.557,68.8918 126.896,68.2034 127.265,67.6419 128.761,66.0985 127.565,64.4343 " fill="none" stroke-width="0.5" stroke="rgb(0,0,0)" />
	<polygon points="397.981,38.8841 398.649,40.488 398.819,41.0605 399.365,40.7863 400.361,40.3665 403.333,39.3399 403.866,39.176 405.76,38.6636 402.067,37.2634 398.15,36.1494 396.217,35.6656 " fill="none" stroke-width="0.5" stroke="rgb(0,0,0)" />
</svg>
