<?xml version="1.0" standalone="no" ?>
<!DOCTYPE svg PUBLIC "-//W3C//DTD SVG 1.1//EN" "http://www.w3.org/Graphics/SVG/1.1/DTD/svg11.dtd">
<svg width="500px" height="500px" xmlns="http://www.w3.org/2000/svg" version="1.1" >
	<polygon points="465.273,280.85 464.49,294.806 462.157,309.534 458.199,325.156 452.589,341.344 445.311,357.787 436.361,374.186 425.737,390.252 413.438,405.709 399.466,420.289 383.814,433.734 366.471,445.797 347.411,456.233 326.594,464.803 303.962,471.257 279.451,475.336 252.979,476.762 227.193,475.417 203.198,471.555 180.959,465.427 160.431,457.267 141.574,447.299 124.362,435.741 108.779,422.811 94.8239,408.73 82.5004,393.727 71.8176,378.039 62.7857,361.912 55.4128,345.601 49.7034,329.369 45.6547,313.49 43.2527,298.246 42.4405,283.479 42.4405,35.0068 49.9932,34.9489 61.4849,34.8607 61.4849,34.8607 72.9766,34.7725 84.4682,34.6843 95.9599,34.5961 95.9599,34.5961 107.452,34.508 118.943,34.4198 130.435,34.3316 141.927,34.2434 153.418,34.1553 164.91,34.0671 187.893,33.8907 195.176,33.8349 195.156,43.9318 195.131,56.8306 195.106,69.7294 195.106,69.7294 195.08,82.6282 195.029,108.426 195.029,108.426 195.004,121.325 194.953,147.122 194.953,147.122 194.928,160.021 194.902,172.92 194.902,172.92 194.877,185.819 194.851,198.717 194.826,211.616 194.826,211.616 194.8,224.515 194.801,224.666 194.888,235.96 194.889,236.076 195.054,246.894 195.058,247.105 195.355,257.411 195.368,257.735 195.853,267.496 195.882,267.954 196.611,277.138 196.672,277.758 197.699,286.331 197.819,287.149 199.199,295.078 199.422,296.137 201.212,303.387 201.607,304.728 203.861,311.268 204.537,312.914 207.311,318.709 208.404,320.629 211.753,325.645 213.392,327.699 217.371,331.904 219.578,333.834 224.243,337.193 226.844,338.707 232.25,341.189 234.922,342.131 241.125,343.701 243.568,344.115 250.623,344.739 251.947,329.779 252.98,344.763 260.241,344.262 262.697,343.894 269.044,342.416 271.781,341.504 277.276,339.086 279.981,337.557 284.687,334.235 286.994,332.24 290.973,328.052 292.675,325.909 295.988,320.89 297.104,318.894 299.814,313.081 300.486,311.385 302.654,304.815 303.037,303.451 304.725,296.162 304.932,295.101 306.204,287.128 306.31,286.323 307.226,277.703 307.278,277.107 307.901,267.877 307.924,267.451 308.315,257.648 308.324,257.362 308.546,247.022 308.549,246.853 308.664,236.014 308.665,235.945 308.735,224.642 308.735,224.514 308.709,211.616 308.683,198.717 308.657,185.818 308.632,172.919 308.632,172.919 308.606,160.02 308.554,134.223 308.554,134.223 308.528,121.324 308.451,82.6277 308.451,82.6276 308.425,69.7289 308.352,33.615 316.378,33.5634 316.378,33.5634 339.884,33.4123 351.638,33.3367 351.638,33.3367 363.391,33.2612 375.144,33.1856 386.897,33.11 410.404,32.9589 422.157,32.8834 433.91,32.8078 445.664,32.7322 457.417,32.6567 465.273,32.6062 " fill="none" stroke-width="0.5" stroke="rgb(0,0,0)" />
</svg>
