<?xml version="1.0" standalone="no" ?>
<!DOCTYPE svg PUBLIC "-//W3C//DTD SVG 1.1//EN" "http://www.w3.org/Graphics/SVG/1.1/DTD/svg11.dtd">
<svg width="500px" height="500px" xmlns="http://www.w3.org/2000/svg" version="1.1" >
	<polygon points="468.473,280.94 467.676,295.147 465.295,310.178 461.268,326.075 455.569,342.518 448.184,359.203 439.105,375.838 428.329,392.135 415.851,407.817 401.669,422.615 385.775,436.268 368.158,448.521 348.793,459.125 327.645,467.831 304.666,474.384 279.801,478.522 252.982,479.966 226.855,478.603 202.516,474.687 179.94,468.466 159.089,460.177 139.93,450.05 122.443,438.308 106.616,425.174 92.446,410.877 79.9364,395.647 69.094,379.725 59.9264,363.356 52.44,346.793 46.6376,330.297 42.5169,314.136 40.0664,298.584 39.2405,283.566 39.2405,31.8313 49.9687,31.7489 61.4603,31.6608 72.952,31.5726 84.4437,31.4844 95.9354,31.3962 107.427,31.3081 118.919,31.2199 130.41,31.1317 130.41,31.1317 141.902,31.0435 153.394,30.9554 164.885,30.8672 176.377,30.779 187.869,30.6908 187.869,30.6908 198.383,30.6102 198.382,31.0393 198.382,31.0393 198.357,43.9381 198.331,56.8369 198.306,69.7357 198.306,69.7357 198.28,82.6345 198.229,108.432 198.229,108.432 198.204,121.331 198.153,147.128 198.153,147.128 198.128,160.027 198.102,172.926 198.102,172.926 198.077,185.825 198.051,198.724 198.026,211.622 198.026,211.622 198,224.521 198.001,224.641 198.088,235.935 198.089,236.028 198.253,246.845 198.257,247.013 198.554,257.319 198.564,257.576 199.049,267.338 199.072,267.701 199.8,276.885 199.849,277.378 200.876,285.95 200.971,286.6 202.352,294.529 202.529,295.37 204.318,302.62 204.633,303.686 206.887,310.225 207.423,311.533 210.197,317.327 211.065,318.852 214.414,323.868 215.716,325.5 219.695,329.704 221.448,331.237 226.113,334.597 228.179,335.799 233.585,338.28 235.707,339.029 241.91,340.598 243.85,340.928 250.905,341.552 251.947,329.779 252.76,341.571 260.021,341.07 261.972,340.777 268.319,339.3 270.492,338.576 275.988,336.157 278.136,334.943 282.841,331.621 284.674,330.037 288.652,325.848 290.005,324.146 293.318,319.127 294.204,317.542 296.913,311.729 297.448,310.382 299.616,303.812 299.919,302.729 301.608,295.44 301.772,294.597 303.043,286.624 303.128,285.985 304.044,277.365 304.085,276.891 304.708,267.662 304.726,267.323 305.118,257.52 305.125,257.293 305.347,246.953 305.349,246.819 305.464,235.98 305.465,235.925 305.535,224.622 305.535,224.521 305.509,211.622 305.483,198.723 305.457,185.824 305.432,172.926 305.432,172.926 305.406,160.027 305.354,134.229 305.354,134.229 305.328,121.33 305.251,82.6341 305.251,82.6341 305.225,69.7353 305.147,31.0389 305.147,31.0389 305.146,30.4355 316.357,30.3635 328.11,30.2879 339.864,30.2123 351.617,30.1368 363.37,30.0612 375.123,29.9857 386.877,29.9101 410.383,29.759 433.89,29.6079 445.643,29.5323 457.396,29.4567 468.473,29.3855 " fill="none" stroke-width="0.5" stroke="rgb(0,0,0)" />
	<polygon points="320.993,423.918 321.012,423.999 321.028,424.08 321.145,423.991 321.484,423.756 " fill="none" stroke-width="0.5" stroke="rgb(0,0,0)" />
</svg>
