<?xml version="1.0" standalone="no" ?>
<!DOCTYPE svg PUBLIC "-//W3C//DTD SVG 1.1//EN" "http://www.w3.org/Graphics/SVG/1.1/DTD/svg11.dtd">
<svg width="500px" height="500px" xmlns="http://www.w3.org/2000/svg" version="1.1" >
	<polygon points="467.723,280.919 466.929,295.067 464.56,310.027 460.548,325.859 454.87,342.243 447.511,358.871 438.462,375.45 427.721,391.693 415.285,407.323 401.152,422.07 385.316,435.674 367.763,447.883 348.469,458.447 327.398,467.121 304.501,473.651 279.719,477.775 252.981,479.215 226.934,477.856 202.676,473.953 180.179,467.753 159.403,459.495 140.316,449.405 122.893,437.706 107.123,424.621 93.0033,410.374 80.5373,395.197 69.7323,379.33 60.5965,363.018 53.1367,346.514 47.3562,330.08 43.2523,313.984 40.8132,298.505 39.9905,283.546 39.9905,32.5755 49.9744,32.4989 61.4661,32.4108 72.9578,32.3226 84.4494,32.2344 95.9411,32.1462 107.433,32.058 118.924,31.9699 130.416,31.8817 141.908,31.7935 164.891,31.6172 176.383,31.529 187.874,31.4408 187.875,31.4408 197.631,31.3659 197.606,43.9366 197.581,56.8354 197.556,69.7342 197.556,69.7342 197.53,82.633 197.479,108.431 197.479,108.431 197.454,121.329 197.403,147.127 197.403,147.127 197.378,160.026 197.352,172.925 197.352,172.925 197.327,185.823 197.301,198.722 197.276,211.621 197.276,211.621 197.25,224.52 197.251,224.647 197.338,235.941 197.339,236.039 197.504,246.856 197.507,247.034 197.804,257.341 197.815,257.613 198.3,267.375 198.325,267.76 199.053,276.944 199.105,277.467 200.131,286.04 200.233,286.729 201.613,294.657 201.801,295.55 203.59,302.8 203.924,303.93 206.178,310.469 206.747,311.856 209.521,317.651 210.441,319.268 213.79,324.284 215.171,326.015 219.151,330.22 221.009,331.845 225.675,335.205 227.866,336.481 233.272,338.962 235.523,339.756 241.726,341.325 243.784,341.675 250.839,342.299 251.947,329.779 252.812,342.319 260.072,341.818 262.142,341.508 268.489,340.03 270.794,339.262 276.29,336.844 278.568,335.556 283.274,332.234 285.218,330.553 289.196,326.364 290.631,324.559 293.943,319.54 294.884,317.858 297.593,312.046 298.16,310.617 300.328,304.047 300.65,302.898 302.338,295.609 302.513,294.715 303.784,286.742 303.874,286.064 304.79,277.444 304.834,276.942 305.456,267.712 305.476,267.353 305.867,257.55 305.875,257.309 306.097,246.969 306.099,246.827 306.214,235.988 306.215,235.929 306.285,224.627 306.285,224.519 306.233,198.722 306.207,185.823 306.182,172.924 306.182,172.924 306.156,160.025 306.104,134.228 306.104,134.228 306.078,121.329 306.001,82.6326 306.001,82.6325 305.975,69.7338 305.897,31.1807 316.362,31.1135 339.869,30.9623 351.622,30.8868 363.375,30.8112 375.128,30.7356 386.882,30.6601 410.388,30.509 422.141,30.4334 433.895,30.3578 445.648,30.2823 457.401,30.2067 467.723,30.1404 " fill="none" stroke-width="0.5" stroke="rgb(0,0,0)" />
</svg>
