<?xml version="1.0" standalone="no" ?>
<!DOCTYPE svg PUBLIC "-//W3C//DTD SVG 1.1//EN" "http://www.w3.org/Graphics/SVG/1.1/DTD/svg11.dtd">
<svg width="500px" height="500px" xmlns="http://www.w3.org/2000/svg" version="1.1" >
	<polygon points="466.073,280.872 465.286,294.892 462.942,309.695 458.966,325.386 453.334,341.638 446.029,358.141 437.047,374.599 426.385,390.723 414.042,406.236 400.016,420.871 384.304,434.368 366.893,446.478 347.757,456.956 326.856,465.56 304.138,472.039 279.539,476.132 252.98,477.563 227.108,476.213 203.027,472.338 180.705,466.187 160.096,457.995 141.163,447.987 123.882,436.383 108.238,423.402 94.2294,409.267 81.8594,394.207 71.1367,378.461 62.0709,362.273 54.6696,345.899 48.937,329.601 44.8702,313.651 42.4561,298.331 41.6405,283.5 41.6405,34.2129 49.9871,34.1489 61.4787,34.0607 72.9704,33.9725 84.4621,33.8843 95.9538,33.7962 107.445,33.708 118.937,33.6198 130.429,33.5316 130.429,33.5316 141.92,33.4435 153.412,33.3553 153.412,33.3553 164.904,33.2671 176.396,33.1789 187.887,33.0908 187.887,33.0908 195.978,33.0287 195.956,43.9334 195.931,56.8321 195.906,69.7309 195.906,69.7309 195.88,82.6297 195.829,108.427 195.829,108.427 195.804,121.326 195.753,147.124 195.753,147.124 195.728,160.023 195.702,172.921 195.702,172.921 195.677,185.82 195.651,198.719 195.626,211.618 195.626,211.618 195.6,224.517 195.601,224.659 195.688,235.954 195.689,236.064 195.854,246.881 195.858,247.082 196.155,257.388 196.167,257.695 196.652,267.457 196.68,267.891 197.408,277.075 197.467,277.663 198.493,286.236 198.607,287.012 199.987,294.94 200.199,295.945 201.988,303.195 202.364,304.468 204.618,311.007 205.258,312.569 208.032,318.363 209.069,320.184 212.418,325.201 213.973,327.15 217.952,331.354 220.045,333.184 224.71,336.544 227.178,337.98 232.584,340.462 235.118,341.355 241.321,342.925 243.639,343.318 250.693,343.943 251.947,329.779 252.925,343.965 260.186,343.464 262.516,343.115 268.863,341.637 271.459,340.772 276.954,338.354 279.52,336.904 284.225,333.582 286.414,331.689 290.392,327.501 292.008,325.468 295.321,320.449 296.379,318.556 299.089,312.743 299.727,311.134 301.895,304.565 302.257,303.271 303.946,295.981 304.142,294.975 305.414,287.002 305.515,286.238 306.431,277.619 306.48,277.053 307.103,267.823 307.124,267.419 307.516,257.616 307.524,257.345 307.746,247.005 307.749,246.845 307.864,236.005 307.865,235.94 307.935,224.637 307.935,224.516 307.909,211.617 307.857,185.82 307.832,172.921 307.832,172.921 307.806,160.022 307.754,134.224 307.754,134.224 307.728,121.326 307.651,82.6293 307.651,82.6292 307.625,69.7304 307.551,32.8201 316.373,32.7634 328.126,32.6879 339.879,32.6123 351.632,32.5367 363.386,32.4612 375.139,32.3856 386.892,32.3101 410.399,32.1589 422.152,32.0834 433.905,32.0078 445.658,31.9323 457.412,31.8567 466.073,31.801 " fill="none" stroke-width="0.5" stroke="rgb(0,0,0)" />
</svg>
