<?xml version="1.0" standalone="no" ?>
<!DOCTYPE svg PUBLIC "-//W3C//DTD SVG 1.1//EN" "http://www.w3.org/Graphics/SVG/1.1/DTD/svg11.dtd">
<svg width="500px" height="500px" xmlns="http://www.w3.org/2000/svg" version="1.1" >
	<polygon points="476.318,17.0179 479.085,17.1227 480.823,17.7986 480.823,25.8881 480.17,26.3474 479.268,27.2047 478.519,28.1425 477.92,29.1196 477.474,30.0792 477.181,30.9473 477.036,31.6227 477.005,31.9963 477.159,34.0209 477.603,36.1758 478.306,38.6562 479.165,41.513 479.203,41.6477 480.072,44.899 480.136,45.1735 480.823,48.5769 480.823,67.019 480.517,69.5093 480.192,70.7249 476.83,78.6784 476.155,79.7948 470.84,86.2667 469.99,87.0665 462.956,92.1508 462.141,92.6202 453.624,96.411 452.941,96.6519 443.176,99.2432 442.631,99.3528 431.853,100.839 431.419,100.877 419.864,101.352 419.632,101.355 416.345,101.323 416.256,101.321 412.923,101.223 412.837,101.219 409.467,101.056 409.382,101.051 405.985,100.822 405.9,100.815 402.484,100.521 402.4,100.513 398.974,100.153 398.89,100.144 395.463,99.7192 395.377,99.7077 391.959,99.218 391.897,99.2087 391.422,99.1339 391.041,99.0572 390.656,98.9623 390.081,98.7797 389.777,98.6604 388.984,98.255 388.753,98.1071 387.853,97.3485 387.687,97.1679 386.97,96.1209 386.861,95.9033 386.5,94.8893 386.441,94.6306 386.335,93.8868 386.317,93.5827 387.04,90.8441 387.573,90.0201 384.804,93.1427 384.125,93.7673 377.948,98.3886 377.2,98.8434 370.252,102.195 369.47,102.488 361.971,104.529 361.175,104.671 353.344,105.361 352.604,105.366 347.309,104.968 346.667,104.873 341.924,103.824 341.39,103.671 337.196,102.187 336.792,102.022 333.143,100.321 332.881,100.189 329.773,98.4882 329.683,98.4374 327.207,97.0082 326.701,96.7473 326.648,96.8139 325.697,98.179 324.68,99.6485 324.548,99.8292 324.19,100.297 324.195,100.297 327.478,100.97 328.057,101.129 330.797,102.08 331.293,102.286 333.538,103.376 333.911,103.579 335.707,104.669 335.91,104.8 336.981,105.53 337.001,105.52 337.595,105.21 337.762,105.126 338.357,104.846 338.803,104.664 339.373,104.466 340.242,104.256 340.784,104.181 342.335,104.233 342.969,104.365 344.812,105.209 345.289,105.575 346.393,106.798 346.734,107.352 347.184,108.321 347.413,109.018 347.572,109.655 347.711,110.451 347.763,110.852 347.834,111.702 347.848,111.943 347.874,112.801 347.876,112.92 347.88,113.741 347.873,114.004 347.723,116.836 347.681,117.257 347.216,120.415 347.14,120.81 346.585,123.13 347.325,123.27 348.9,124.771 349.648,125.944 349.916,126.426 350.577,127.807 350.732,128.171 351.303,129.688 351.401,129.979 351.876,131.56 351.944,131.811 352.321,133.385 352.371,133.624 352.645,135.119 352.685,135.377 352.852,136.72 352.881,137.052 352.938,138.172 352.923,138.832 352.296,145.433 352.104,146.378 350.847,150.34 351.053,150.171 351.779,149.681 352.908,149.069 353.73,148.722 354.979,148.336 355.87,148.154 357.211,148.02 358.123,148.02 359.462,148.155 360.354,148.336 361.602,148.723 362.423,149.069 363.552,149.681 364.278,150.17 365.262,150.982 365.876,151.596 366.688,152.579 367.178,153.305 367.342,153.607 367.372,153.424 367.405,153.272 367.588,152.646 367.631,152.531 368.028,151.723 368.079,151.64 368.835,150.717 368.893,150.663 370.061,149.869 370.123,149.839 371.449,149.446 371.514,149.437 373.879,149.743 374.349,149.939 375.074,150.321 375.826,150.807 376.812,151.413 378.084,152.062 379.791,152.724 382.044,153.324 384.942,153.767 388.612,153.943 390.602,153.883 392.697,153.719 394.918,153.476 397.294,153.189 397.322,153.186 399.854,152.896 399.949,152.886 402.658,152.633 402.804,152.622 405.734,152.443 405.915,152.435 409.112,152.368 409.616,152.385 416.949,153.045 417.831,153.213 424.25,155.11 425.091,155.452 430.776,158.464 431.445,158.897 436.577,162.899 437.033,163.307 441.791,168.177 442.067,168.487 446.629,174.101 446.775,174.289 451.322,180.524 451.374,180.597 455.519,186.52 458.054,188.013 458.065,188.019 462.127,190.426 462.347,190.565 466.736,193.518 467.105,193.794 471.474,197.425 471.946,197.878 475.948,202.32 476.451,202.995 479.739,208.381 480.157,209.269 480.823,211.202 480.823,237.219 479.824,239.841 479.496,240.526 475.976,246.517 475.75,246.864 471.566,252.7 471.51,252.776 467.149,258.598 466.991,258.83 468.705,257.785 470.135,257.217 473.066,256.6 474.476,256.526 475.945,256.679 476.999,256.918 478.259,257.367 479.316,257.908 480.37,258.635 480.823,259.042 480.823,281.286 480.57,285.803 479.136,288.608 478.91,288.999 476.718,292.405 476.431,292.803 473.853,295.991 473.485,296.394 470.527,299.269 467.833,300.53 467.123,300.366 467.744,301.026 470.07,304.071 470.488,304.726 472.403,308.394 472.671,309.014 474.115,313.194 474.277,313.792 475.188,318.374 475.266,318.966 475.377,320.67 473.11,329.62 467.07,347.047 459.88,363.291 455.742,367.378 453.058,368.662 450.155,368.013 448.061,364.918 446.918,358.315 444.512,354.517 440.837,351.656 436.012,349.237 430.795,346.915 430.344,346.683 425.715,343.969 424.601,343.05 421.328,339.333 420.31,337.351 419.069,331.977 418.971,330.544 419.15,328.571 417.248,329.839 415.984,330.187 415.265,330.324 413.478,330.517 413.319,330.532 411.343,330.676 410.139,330.802 410.292,331.769 410.54,333.165 410.796,334.588 410.808,334.659 411.032,336.027 411.056,336.198 411.215,337.468 411.243,337.789 411.303,338.918 411.308,339.291 411.298,339.625 411.276,339.956 411.242,340.291 411.17,340.755 411.103,341.077 410.923,341.712 410.815,342.007 410.413,342.836 410.256,343.09 409.537,343.965 411.616,343.718 412.54,343.702 417.888,344.158 418.654,344.29 423.948,345.677 424.716,345.953 429.753,348.299 430.511,348.745 435.088,352.077 435.792,352.711 439.706,357.059 440.286,357.864 443.333,363.255 443.723,364.162 445.701,370.625 445.881,371.534 446.585,379.096 446.547,380.24 445.127,389.084 445.108,389.15 438.331,399.399 425.161,415.952 410.17,431.593 405.651,435.476 403.572,435.718 402.056,435.463 400.867,435.09 399.374,434.385 398.581,433.906 397.166,432.84 396.62,432.356 395.339,431.02 394.931,430.531 393.838,429.016 393.506,428.481 392.657,426.876 392.375,426.223 391.825,424.617 391.617,423.725 391.421,422.21 391.393,421.344 391.422,420.87 391.515,420.197 391.622,419.697 391.863,418.922 392.077,418.401 392.475,417.645 392.536,417.552 389.163,417.192 388.342,417.027 384.781,415.963 384.139,415.716 380.8,414.137 380.278,413.846 377.28,411.91 376.822,411.571 375.311,410.302 375.56,410.929 375.91,412.731 375.993,413.597 375.993,417.615 375.992,417.722 375.975,418.445 375.962,418.698 375.905,419.413 375.868,419.732 375.763,420.431 375.686,420.822 375.561,421.34 376.056,420.969 379.314,420.091 380.884,420.274 381.842,420.493 383.475,421.058 384.327,421.456 385.938,422.422 386.682,422.977 388.188,424.365 388.798,425.053 390.115,426.882 390.563,427.654 391.608,429.945 391.885,430.737 392.573,433.512 392.694,434.264 392.942,437.541 392.887,438.671 391.773,445.024 391.36,446.274 390.476,448.042 374.668,459.037 354.126,470.285 331.936,479.42 331.604,479.445 330.857,479.441 327.291,479.128 326.447,478.972 323.328,478.086 322.482,477.751 319.818,476.374 319.039,475.864 316.84,474.078 316.185,473.424 314.459,471.31 313.958,470.555 312.715,468.195 312.38,467.374 311.627,464.851 311.458,463.99 311.205,461.385 311.194,460.648 311.435,456.963 311.504,456.418 312.175,452.854 312.289,452.387 313.312,448.981 313.451,448.586 314.658,445.6 314.033,445.863 313.353,446.088 312.602,446.273 311.902,446.388 311.205,446.447 311.171,446.448 310.787,447.561 309.629,451.678 309.586,451.821 308.077,456.584 307.916,457.014 305.883,461.719 305.47,462.471 302.703,466.543 301.722,467.587 298.014,470.452 296.222,471.293 291.364,472.376 289.917,472.462 285.907,472.057 285.056,471.888 281.183,470.726 280.455,470.438 276.773,468.596 276.171,468.234 272.736,465.791 272.245,465.387 269.112,462.419 268.711,461.986 266.4,459.145 267.008,460.276 270.175,464.224 273.721,467.301 277.54,469.629 281.509,471.3 285.482,472.39 289.291,472.979 292.833,473.159 295.384,473.131 297.307,473.057 298.649,472.958 299.581,472.85 300.325,472.736 301.022,472.626 301.233,472.598 301.949,472.518 302.291,472.494 303.155,472.464 303.676,472.475 304.546,472.545 305.443,472.708 306.112,472.901 307.164,473.354 307.657,473.645 308.654,474.44 308.999,474.805 309.7,475.778 309.923,476.192 310.287,477.087 310.413,477.526 310.553,478.204 310.609,478.643 310.643,479.08 310.656,479.494 310.501,480.823 310.103,482.295 309.278,483.933 308.099,485.421 307.246,486.249 306.854,486.54 281.151,490.817 273.616,491.223 272.194,490.684 271.541,490.375 269.37,489.13 268.757,488.708 266.931,487.217 266.386,486.69 264.908,485.002 264.594,484.575 261.175,486.317 260.919,486.437 256.754,488.243 256.489,488.348 252.064,489.945 251.78,490.037 247.149,491.372 246.838,491.45 244.719,491.902 225.548,490.902 199.887,486.773 192.232,484.663 192.079,484.59 191.647,484.354 186.057,480.894 185.817,480.735 181.054,477.351 176.956,474.472 173.463,472.507 170.945,471.782 167.596,471.451 163.393,471.218 163.116,471.194 158.364,470.638 157.764,470.527 152.553,469.193 151.804,468.93 146.126,466.357 145.408,465.95 139.256,461.677 138.684,461.207 132.047,454.774 130.706,452.118 131.291,449.202 133.094,447.663 127.24,448.19 126.341,448.181 115.576,447.014 114.615,446.802 112.471,446.081 98.2672,434.295 83.2685,419.161 75.0621,409.17 74.802,408.415 74.5891,407.498 73.7416,400.715 73.721,399.789 74.1304,394.661 74.2468,393.94 75.078,390.548 74.8717,391.143 73.031,393.48 70.1397,394.18 67.3105,392.822 65.393,390.849 61.9629,388.465 58.4835,386.054 48.8916,368.927 40.9666,351.394 36.8281,339.628 37.6471,331.89 37.8265,331.02 40.7948,321.46 41.0539,320.808 45.2505,312.238 45.4831,311.82 49.948,304.707 49.7968,304.885 47.603,307.165 46.9354,307.736 44.7218,309.287 43.2991,309.952 41.1827,310.525 38.629,310.473 36.6599,309.853 34.8085,308.73 32.99,306.912 32.2247,305.895 30.5912,302.939 30.2799,302.243 28.8661,298.21 28.7253,297.724 27.5656,292.674 27.4973,292.309 27.2644,290.704 26.8905,283.906 26.8905,254.501 27.5485,249.729 27.5975,249.442 28.7895,243.592 28.8806,243.224 30.3268,238.276 30.5221,237.737 32.1837,233.918 32.7117,233.01 34.5502,230.551 36.3604,229.111 38.3371,228.241 40.5709,227.872 41.1112,227.92 42.0466,228.103 42.4949,228.241 43.5163,228.698 43.8788,228.918 44.7976,229.652 45.0805,229.945 45.7359,230.812 45.9452,231.171 46.3214,231.996 46.4634,232.413 46.6397,233.104 46.7204,233.571 46.7812,234.117 46.8067,234.626 46.8102,234.995 46.7804,235.955 46.7726,236.116 46.694,237.298 46.6901,237.353 46.6477,237.893 47.735,232.515 47.8338,232.119 49.5662,226.297 49.9656,225.357 51.0918,223.364 50.1241,223.926 49.8095,224.093 47.1205,225.388 46.7178,225.558 44.1904,226.488 43.6718,226.644 41.312,227.205 40.6495,227.312 38.4636,227.499 37.5458,227.485 35.0094,227.189 33.8446,226.893 31.6127,225.998 30.5007,225.357 28.5838,223.856 27.7532,223.01 26.8905,221.863 26.8905,199.089 28.6089,199.182 30.6033,200.765 32.4373,203.354 34.0776,205.273 35.6182,206.712 37.0734,207.748 38.4891,208.468 39.9457,208.948 41.5354,209.23 43.3721,209.326 44.8745,209.286 46.5267,209.161 48.2874,208.954 50.1673,208.668 52.1758,208.307 54.3219,207.875 56.6142,207.378 59.074,206.818 60.538,206.979 60.319,206.596 59.9285,205.706 59.2912,203.691 59.1015,202.766 58.8795,200.518 58.8893,199.54 58.6693,199.798 58.3978,200.089 56.6392,201.818 56.3178,202.105 54.5376,203.551 54.1599,203.827 52.373,204.995 51.9333,205.249 50.1547,206.147 49.6489,206.365 47.8935,206.999 47.3207,207.164 45.6034,207.54 44.9686,207.633 43.3044,207.757 42.5092,207.746 40.418,207.535 39.4657,207.334 37.5412,206.706 36.6122,206.283 34.8889,205.25 34.0768,204.63 32.5893,203.202 31.9627,202.456 30.7456,200.643 30.3237,199.858 29.4115,197.67 29.1714,196.916 28.5988,194.364 28.4989,193.678 28.3003,190.772 28.2898,190.457 28.2901,190.131 28.2902,190.103 28.2925,189.777 28.2933,189.721 28.2996,189.394 28.302,189.311 28.3143,188.984 28.3199,188.874 28.3402,188.546 28.3508,188.409 28.3811,188.081 28.3991,187.919 28.4414,187.59 28.4692,187.405 28.5256,187.075 29.5633,185.186 29.3957,185.018 28.9614,184.511 28.5265,183.909 28.1882,183.35 27.8188,182.586 27.5991,181.998 27.3505,181 27.2722,180.406 27.2361,179.653 27.2452,179.392 27.2668,179.08 27.2937,178.821 27.3355,178.518 27.3794,178.264 27.4408,177.967 27.501,177.719 27.5821,177.426 27.6578,177.185 27.7597,176.895 27.8501,176.663 27.9748,176.373 28.0793,176.152 28.1502,176.015 28.6486,174.643 29.1336,172.092 29.7665,168.486 29.8207,168.223 30.7968,164.105 30.9413,163.618 32.5134,159.236 32.805,158.587 35.2316,154.155 35.7203,153.435 39.2596,149.167 39.9373,148.504 43.6008,145.603 41.8949,145.726 41.1455,145.717 38.4122,145.462 37.5601,145.299 35.0246,144.559 34.204,144.23 31.9178,143.043 31.1655,142.553 29.1798,140.959 28.5311,140.322 26.8974,138.359 26.8905,138.349 26.8905,116.836 27.9363,115.409 28.3916,114.878 29.9878,113.285 30.5192,112.83 32.4387,111.428 33.0177,111.069 35.2706,109.893 38.2131,109.455 40.7973,110.929 41.7532,114.164 41.7451,113.68 41.9691,111.313 42.1318,110.465 42.7803,108.247 43.1018,107.442 44.1397,105.425 44.6132,104.689 45.3548,103.749 41.6479,105.198 40.8177,105.435 36.7927,106.178 35.6951,106.246 35.0028,106.204 34.3901,106.126 33.7566,106 33.043,105.797 32.4787,105.586 31.6831,105.195 31.1983,104.895 30.3944,104.263 29.9993,103.873 29.3143,103.009 29.0194,102.526 28.5677,101.539 28.3831,100.962 28.1871,100.005 28.1233,99.3317 28.3266,97.4938 29.61,93.5521 30.1417,92.4503 33.5253,87.3358 33.7965,86.9676 37.4896,82.4473 35.6417,83.3969 34.6229,83.7747 32.4973,84.2843 30.7337,84.355 30.1348,84.2614 28.6955,83.7802 28.2023,83.517 27.0845,82.6769 26.8905,82.4778 26.8905,66.259 27.2253,65.5863 27.5011,65.1074 28.1572,64.1131 28.6601,63.481 29.3635,62.7424 29.9244,62.2433 30.9044,61.5067 31.5181,61.1179 32.7283,60.4805 33.2061,60.2631 34.1534,59.8965 33.3394,59.8446 32.6871,59.7554 28.8079,58.9351 26.8905,57.8704 26.8905,46.5543 28.891,44.5964 29.3853,44.1772 33.276,41.328 33.4972,41.1758 37.9573,38.2977 38.0175,38.2595 42.4318,35.508 44.9826,33.8329 43.9703,33.5342 39.7686,32.4942 39.7445,32.4882 35.4451,31.399 35.1952,31.328 31.4447,30.1464 30.7587,29.8671 28.1059,28.5257 26.8905,27.4286 26.8905,19.5757 38.3822,19.4875 49.8739,19.3993 61.3656,19.3111 72.8572,19.223 75.15,19.2054 77.1056,20.3302 78.8268,22.0872 79.7973,23.8575 80.0722,27.6303 79.2682,29.7928 78.2512,31.3938 76.1315,33.5542 75.541,34.061 72.5442,36.2172 72.3005,36.3809 68.8651,38.5307 68.8582,38.535 65.54,40.6033 63.2265,42.2481 66.0433,42.7706 70.6579,43.2518 73.4924,43.5233 73.1202,42.3456 73.0569,41.9198 73.6283,38.9568 74.3868,37.658 75.9855,36.0444 77.985,34.8521 78.5887,34.5503 81.4155,33.3909 81.5619,33.3338 84.737,32.1579 87.6952,30.9579 89.8416,29.8172 90.2554,29.4522 89.4401,29.0847 88.1469,28.6495 88.1308,28.6441 86.8166,28.1963 86.1243,27.8943 85.1947,27.393 83.3309,25.5132 82.9783,24.8456 82.9486,20.6528 83.2396,20.0823 84.098,19.1367 84.3489,19.1348 95.8406,19.0466 107.332,18.9584 111.07,18.9297 111.713,19.428 112.311,19.9843 113.926,21.7828 114.035,21.908 115.354,23.4888 116.366,24.4338 117.281,24.9051 118.804,25.1243 120.266,24.9151 121.222,24.4373 122.307,23.4839 123.706,21.9404 123.823,21.8159 125.519,20.081 126.105,19.5754 127.168,18.8062 130.316,18.7821 141.807,18.6939 152.321,18.6132 153.367,19.6127 153.606,20.0048 153.873,24.2366 153.505,25.0556 151.972,26.9142 151.003,27.5958 150.302,28.0008 148.932,28.6372 148.831,28.6828 147.411,29.3009 146.335,29.8644 146.04,30.0908 146.649,30.7525 148.644,32.2323 151.315,33.9005 154.139,35.608 154.324,35.7261 156.812,37.3996 157.363,37.8356 159.123,39.4643 160.228,41.0423 160.896,42.6323 161.222,44.9041 161.175,45.3223 160.893,46.4637 160.76,46.8061 160.143,47.9065 159.936,48.1793 159.109,49.0163 158.841,49.2256 158.008,49.7406 157.691,49.8926 157.094,50.1187 160.026,50.8965 160.324,50.9866 163.703,52.1351 163.827,52.1796 167.359,53.4961 167.363,53.4974 170.827,54.792 173.976,55.8705 175.231,56.208 174.427,55.043 171.283,51.5273 167.464,47.6762 163.562,43.7987 163.448,43.6813 160.034,40.0354 159.717,39.6572 157.302,36.4407 156.649,35.2203 155.733,32.6195 155.936,29.1125 156.989,26.9552 158.416,25.2607 161.33,23.1586 162.132,22.6965 166.541,20.7212 167.011,20.5411 172.548,18.7643 172.88,18.6716 173.813,18.4483 176.282,18.4294 187.774,18.3412 209.687,18.1731 210.565,19.8311 210.75,20.5779 210.33,23.8427 209.454,25.4538 207.99,27.0599 205.64,28.6356 205.003,28.9919 201.594,30.5559 201.346,30.661 197.293,32.2368 197.247,32.2544 195.87,32.7727 196.249,32.6907 196.537,32.638 198.738,32.3081 198.998,32.2768 201.26,32.0698 201.528,32.0532 203.747,31.9815 203.945,31.9794 205.544,31.9972 205.794,32.0068 207.179,32.0984 207.729,32.1685 208.9,32.3912 209.845,32.68 210.728,33.059 210.706,43.9624 210.687,53.5976 210.265,53.8572 208.681,54.4601 207.664,54.6412 206.239,54.6681 204.091,54.369 203.31,54.1891 200.805,53.3737 200.333,53.1907 198.433,52.3289 203.228,57.2261 203.406,57.4186 207.958,62.6373 208.326,63.1215 210.662,66.6597 210.656,69.76 210.633,81.029 210.127,81.447 209.398,81.9316 208.635,82.3398 207.765,82.7036 207.021,82.9419 206.018,83.1706 205.326,83.2732 204.198,83.3527 203.417,83.3405 199.436,82.9352 198.886,82.8448 194.196,81.7762 193.92,81.7039 188.799,80.1931 188.668,80.152 183.857,78.5723 187.238,80.4005 187.559,80.5915 192.101,83.5523 192.278,83.6737 197.163,87.1976 197.291,87.2936 202.094,91.0224 202.215,91.1194 206.51,94.6947 206.664,94.8287 210.026,97.8921 210.321,98.1875 210.599,98.4917 210.579,108.456 210.557,119.693 209.726,120.63 208.818,121.416 207.654,122.18 206.114,122.825 204.847,123.098 201.673,122.624 199.349,121.328 198.369,120.593 194.853,117.124 194.577,116.826 190.333,111.813 190.184,111.628 185.674,105.701 185.557,105.54 181.245,99.3256 181.119,99.135 180.277,97.7808 180.406,98.1096 180.523,98.4417 181.986,103.204 182.143,103.911 182.699,107.882 182.738,108.727 182.695,109.618 182.643,110.121 182.512,110.947 182.365,111.573 182.135,112.317 181.824,113.075 181.487,113.72 180.92,114.564 180.469,115.095 179.601,115.883 179.028,116.282 177.958,116.833 177.254,117.084 176.193,117.325 175.349,117.413 173.7,117.282 170.342,116.381 169.203,115.902 166.999,114.597 168.982,116.739 169.536,117.473 171.881,121.342 172.235,122.065 173.922,126.447 174.126,127.13 174.906,130.78 175.049,130.639 177.91,128.094 178.337,127.758 181.337,125.672 181.893,125.341 185.013,123.775 185.724,123.49 188.946,122.505 189.808,122.33 193.112,121.988 194.085,121.992 198.118,122.442 199.196,122.698 202.65,123.98 203.667,124.511 206.555,126.521 207.362,127.239 209.698,129.876 210.248,130.647 210.535,131.151 210.503,147.153 210.478,160.052 210.472,162.682 209.161,163.636 208.477,163.904 209.268,164.95 209.425,167.119 208.923,170.071 208.738,170.792 207.776,173.577 207.471,174.268 206.083,176.816 205.65,177.47 203.869,179.712 203.295,180.313 201.153,182.178 200.432,182.692 197.964,184.111 197.109,184.491 194.347,185.394 193.407,185.595 190.383,185.911 189.239,185.886 183.912,185.092 182.594,184.684 178.102,182.501 177.087,181.826 176.982,181.734 178.039,183.72 178.299,184.305 179.337,187.164 179.348,187.889 180.271,187.609 180.749,187.492 184.6,186.766 185.151,186.697 189.095,186.444 189.739,186.448 193.044,186.705 193.773,186.821 196.838,187.571 197.585,187.824 200.348,189.036 201.092,189.449 203.491,191.093 204.193,191.688 206.166,193.733 206.767,194.509 208.253,196.926 208.685,197.846 209.621,200.603 209.838,201.586 210.164,204.654 210.182,205.395 210.102,206.785 210.051,207.253 209.821,208.666 209.738,209.065 209.373,210.49 209.273,210.827 208.787,212.255 208.679,212.542 208.087,213.961 207.976,214.206 207.292,215.607 207.181,215.82 206.419,217.191 206.309,217.378 205.483,218.71 203.176,220.587 200.201,220.637 197.231,217.526 196.601,215.251 195.843,213.807 194.83,212.64 193.451,211.633 191.578,210.769 189.142,210.095 186.13,209.666 182.531,209.516 180.927,209.553 183.75,211.614 184.514,212.318 186.486,214.605 187.104,215.531 188.313,217.931 188.666,218.886 189.273,221.341 189.395,222.124 189.562,224.574 189.537,225.45 189.049,229.323 188.764,230.434 187.417,233.828 186.937,234.727 184.901,237.687 184.382,238.314 181.831,240.885 181.375,241.287 178.48,243.514 178.127,243.76 175.06,245.689 174.819,245.831 171.75,247.506 171.626,247.572 168.73,249.04 165.782,249.443 163.216,247.939 162.223,244.034 162.467,242.886 162.682,241.772 162.872,240.654 163.034,239.534 163.165,238.411 163.263,237.285 163.323,236.155 163.343,235.089 163.238,232.957 162.908,230.873 162.305,228.766 161.372,226.609 160.039,224.379 158.221,222.064 157.384,221.223 156.548,222.775 156.462,222.928 155.261,224.965 154.21,226.794 153.457,228.34 153.042,229.593 153.025,229.732 153.88,230.111 155.324,233.632 155.264,235.059 155.251,235.262 155.092,237.084 155.082,237.179 154.858,239.251 154.853,239.295 154.595,241.472 154.594,241.482 154.338,243.605 154.119,245.504 153.973,246.98 153.929,247.826 153.966,249.035 154.031,249.589 156.361,251.19 157.073,252.638 157.538,254.263 157.625,254.616 157.99,256.427 158.028,256.647 158.32,258.575 158.337,258.697 158.581,260.675 158.586,260.717 158.808,262.658 159.027,264.444 159.257,265.959 159.391,266.582 161.466,267.431 162.696,269.184 163.238,270.561 163.808,272.004 164.406,273.426 165.038,274.776 165.7,275.993 166.375,277.019 167.028,277.801 167.927,278.594 168.174,278.808 168.495,279.114 168.765,279.398 169.022,279.693 169.285,280.021 169.513,280.333 169.756,280.695 169.971,281.052 170.181,281.439 170.389,281.875 170.555,282.276 170.744,282.835 170.853,283.24 170.986,283.976 171.025,284.374 170.979,285.6 170.771,286.79 170.379,287.999 169.805,289.177 169.318,289.963 168.454,291.083 167.973,291.613 166.895,292.631 166.417,293.024 165.199,293.894 164.68,294.214 163.398,294.892 162.76,295.169 161.49,295.608 160.599,295.819 159.416,295.976 158.441,295.999 158.085,295.969 157.317,295.839 156.911,295.733 156.147,295.46 155.7,295.253 155.011,294.858 154.533,294.526 153.968,294.062 153.467,293.578 153.038,293.099 152.525,292.439 152.215,291.987 151.698,291.126 151.481,290.719 151.107,289.921 150.782,289.426 149.94,288.539 148.521,287.241 146.834,285.756 146.782,285.71 145.088,284.172 144.911,284.003 143.422,282.498 143.069,282.097 141.964,280.681 141.366,279.664 140.824,278.393 140.617,275.425 141.271,274.192 141.29,274.137 141.28,274.132 141.311,274.069 141.172,273.283 140.642,272.094 139.598,270.353 138.234,268.259 138.169,268.157 136.759,265.861 136.572,265.525 135.343,263.082 135.091,262.476 134.221,259.869 134.019,258.964 133.689,256.176 134.324,253.27 135.371,252.268 135.264,251.278 134.852,249.572 134.179,247.393 133.36,244.932 133.349,244.899 132.513,242.324 132.465,242.167 131.736,239.609 131.659,239.296 131.143,236.838 131.063,236.293 130.868,234.016 131.596,231.132 134.054,229.773 134.194,228.009 134.213,227.818 134.514,225.35 134.551,225.102 135.011,222.524 135.078,222.212 135.735,219.599 135.851,219.214 136.746,216.643 136.937,216.178 137.075,215.887 137.074,215.888 133.08,216.664 128.891,217.989 124.725,219.868 120.783,222.291 117.247,225.241 116.003,226.689 116.047,226.653 123.968,220.871 126.812,219.998 129.587,221.07 131.107,223.628 130.698,226.625 129.547,228.863 128.688,231.039 127.995,233.327 127.464,235.663 127.081,237.977 126.831,240.204 126.696,242.274 126.661,243.85 128.08,254.019 131.844,264.004 137.335,273.969 143.779,283.734 150.322,293.119 150.403,293.239 156.139,302.051 156.394,302.496 160.452,310.599 160.836,311.698 162.375,319.003 162.455,320.344 162.202,323.184 162.067,323.953 161.317,326.768 161.051,327.504 159.814,330.184 159.404,330.895 157.69,333.332 157.112,334.003 154.931,336.087 154.173,336.673 151.536,338.296 150.623,338.727 147.54,339.782 146.551,340.001 143.034,340.376 142.093,340.379 139.006,340.067 138.066,339.87 135.365,338.998 134.484,338.607 132.176,337.272 131.424,336.728 129.518,335.027 128.924,334.383 127.427,332.412 126.987,331.706 125.908,329.561 125.607,328.8 124.954,326.579 124.792,325.747 124.572,323.546 124.565,322.718 124.703,321.065 124.816,320.367 124.998,319.617 124.996,319.619 123.317,321.144 122.607,321.673 120.678,322.836 119.821,323.238 117.686,323.979 116.706,324.202 116.035,324.278 116.4,324.435 117.17,324.86 118.956,326.086 119.611,326.632 121.155,328.186 121.694,328.841 122.939,330.679 123.353,331.437 124.245,333.517 124.514,334.366 124.997,336.641 125.096,337.628 125.076,339.866 124.981,340.748 124.544,342.855 124.279,343.703 123.458,345.645 123.095,346.315 124.256,345.082 124.951,344.48 126.645,343.288 127.275,342.917 129.256,341.955 129.83,341.723 132.008,341.011 132.559,340.868 134.847,340.426 135.412,340.353 137.722,340.201 138.2,340.194 141.306,340.317 141.741,340.355 144.656,340.752 145.192,340.858 147.934,341.574 148.536,341.778 151.127,342.859 151.733,343.167 154.193,344.658 154.737,345.045 157.086,346.99 157.526,347.407 159.785,349.852 160.114,350.252 162.303,353.242 162.601,353.705 164.374,356.867 164.608,357.349 166.046,360.817 166.166,361.142 167.342,364.729 167.399,364.917 168.387,368.436 168.402,368.491 169.26,371.702 170.019,374.283 170.613,375.796 170.779,376.034 170.917,376.091 171.232,376.186 171.608,376.267 172.014,376.326 172.417,376.36 172.818,376.371 173.328,376.365 173.876,376.347 174.43,376.32 174.989,376.289 175.545,376.256 175.567,376.254 176.101,376.225 176.164,376.222 176.669,376.202 176.779,376.199 177.254,376.191 177.947,376.233 179.297,376.418 175.519,373.125 174.96,372.543 170.335,366.781 169.893,366.119 166.447,359.828 166.115,359.063 163.963,352.52 163.765,351.613 163.022,345.09 162.995,344.427 163.053,342.643 163.074,342.333 163.253,340.568 163.304,340.211 163.61,338.534 163.714,338.09 164.153,336.567 164.367,335.98 164.945,334.677 165.401,333.88 166.125,332.866 167.095,331.873 167.971,331.215 169.698,330.416 170.731,330.182 172.205,330.093 173.113,330.187 174.114,330.407 174.892,330.673 175.353,330.887 173.41,328.898 172.869,328.227 169.304,322.83 168.858,321.966 166.559,316.032 166.289,314.968 165.474,308.634 165.443,307.811 165.612,304.653 165.663,304.17 166.155,301.123 166.257,300.655 167.052,297.731 167.198,297.285 168.275,294.497 168.461,294.079 169.8,291.438 170.02,291.052 171.6,288.569 171.849,288.216 173.649,285.905 173.923,285.585 175.923,283.456 178.556,282.073 178.863,282.158 176.087,280.273 175.626,279.915 171.512,276.27 170.793,275.462 167.883,271.276 167.183,269.693 166.079,264.868 166.142,262.597 167.283,258.623 168.151,256.978 171.161,253.343 171.799,252.71 176.054,249.259 176.308,249.068 181.154,245.669 185.81,242.286 189.511,238.963 191.714,235.851 192.507,232.491 192.501,232.351 192.413,231.578 192.256,230.662 192.032,229.663 191.746,228.632 191.405,227.614 191.022,226.657 190.532,225.638 190.189,222.683 191.745,220.148 194.536,219.116 197.011,219.787 200.358,221.84 200.725,222.091 203.792,224.413 204.136,224.701 206.872,227.232 207.201,227.57 209.556,230.251 209.876,230.662 210.403,231.422 210.438,235.84 210.602,246.657 210.899,256.963 210.921,257.415 210.613,257.923 210.332,258.333 208.023,261.34 207.922,261.467 205.68,264.18 203.939,266.496 203,268.251 202.763,269.454 203.012,270.732 203.829,272.058 205.472,273.719 207.783,275.665 207.862,275.733 210.331,277.912 210.752,278.335 212.665,280.531 213.138,284.482 214.519,292.41 215.268,295.445 215.241,295.541 213.796,299.076 213.558,299.57 211.515,303.233 211.411,303.409 211.303,303.584 213.672,301.798 216.646,301.858 217.231,302.337 218.563,306.2 221.336,311.994 224.685,317.011 228.665,321.215 233.33,324.575 238.737,327.056 244.853,328.604 246.462,330.733 246.93,331.498 248.439,334.622 248.723,335.374 249.637,338.634 249.765,339.259 250.216,342.627 250.253,343.071 250.374,346.519 250.359,347.075 249.95,351.748 252.522,343.378 252.856,342.574 257.462,333.935 257.936,333.218 262.092,328.069 265.518,327.271 271.013,324.853 275.719,321.532 279.698,317.343 282.687,312.814 290.852,310.241 288.062,309.803 286.036,307.625 285.898,305.97 287.019,302.574 287.079,302.473 288.327,301.297 289.367,300.196 290.246,299.087 290.974,297.929 291.567,296.655 292.027,295.182 292.335,293.419 292.453,291.235 292.424,290.18 292.339,289.06 292.213,287.892 292.059,286.654 292.058,286.647 291.899,285.358 291.89,285.274 291.751,283.948 291.738,283.797 291.64,282.414 291.63,282.209 291.593,280.749 291.6,280.359 291.712,278.515 291.794,277.885 292.118,276.287 292.331,275.558 292.851,274.205 293.252,273.406 293.953,272.299 294.586,271.509 295.45,270.648 296.298,269.983 297.31,269.368 298.276,268.926 299.419,268.557 300.374,268.358 301.632,268.235 302.844,268.279 305.12,268.669 306.419,269.1 308.435,270.129 309.219,270.637 311.028,272.091 311.409,272.434 313.061,274.102 313.165,274.21 314.633,275.793 315.769,276.9 315.962,277.033 315.973,277.011 316.001,276.919 315.374,274.437 313.589,272.38 310.17,270.083 305.661,267.599 305.501,267.507 300.816,264.672 300.207,264.232 296.12,260.724 295.231,259.691 292.803,255.828 293,246.688 293.115,235.848 293.127,233.88 293.141,233.84 293.229,233.607 294.347,230.86 294.434,230.659 295.802,227.712 295.887,227.539 297.52,224.378 299.496,222.497 298.737,222.081 298.023,221.596 296.545,220.372 295.943,219.769 294.719,218.29 294.235,217.577 293.308,215.887 293.167,215.558 293.159,211.647 293.144,204.212 293.307,203.83 294.234,202.14 294.717,201.428 295.941,199.948 296.542,199.345 298.02,198.119 298.733,197.634 300.423,196.704 301.241,196.354 303.1,195.764 304.005,195.575 304.33,195.542 303.35,195.008 302.63,194.52 301.595,193.665 300.986,193.056 300.13,192.02 299.643,191.3 298.996,190.113 298.648,189.293 298.238,187.984 298.054,187.087 297.911,185.683 297.911,184.76 298.054,183.359 298.239,182.461 298.648,181.153 298.996,180.333 299.643,179.147 300.131,178.427 300.987,177.392 301.596,176.783 302.631,175.928 303.351,175.441 304.537,174.795 305.356,174.447 306.663,174.038 307.56,173.854 308.96,173.711 309.881,173.711 311.288,173.854 312.183,174.036 313.495,174.446 314.314,174.792 314.917,175.119 315.013,174.167 315.194,173.275 315.581,172.03 315.926,171.21 316.537,170.084 317.024,169.361 317.25,169.086 315.414,168.859 315.063,168.802 312.859,168.354 312.547,168.278 310.699,167.764 310.447,167.686 308.942,167.172 308.899,167.156 308.496,168.166 308.367,168.459 307.868,169.493 307.271,170.422 306.682,171.132 304.504,172.578 303.755,172.806 300.651,172.639 299.166,172.007 297.851,171.154 296.438,169.843 295.78,169.078 294.479,167.177 294.131,166.574 293.064,164.351 293.056,160.052 293.006,135.421 293.039,135.342 293.206,134.975 294.142,133.142 294.364,132.756 295.46,131.048 297.796,129.206 298.38,129.205 298.356,129.17 298.103,128.498 298.043,128.328 297.81,127.628 297.755,127.448 297.547,126.724 297.496,126.533 297.317,125.788 297.273,125.583 297.126,124.822 297.089,124.601 296.98,123.828 296.952,123.588 296.883,122.806 296.868,122.545 296.844,121.759 296.858,121.236 297.109,118.293 297.237,117.54 298.006,114.564 298.272,113.812 299.586,110.935 300.019,110.186 301.905,107.538 302.529,106.83 305.014,104.542 305.82,103.95 308.931,102.153 309.851,101.75 312.882,100.805 312.769,100.57 312.618,100.169 312.469,99.6948 312.332,99.1541 312.268,98.8671 312.137,98.1659 312.095,97.8979 311.892,96.2889 311.671,94.5879 311.415,92.955 311.386,92.8179 310.543,93.5305 308.22,95.5836 308.191,95.6092 305.789,97.6957 305.646,97.8149 303.369,99.635 303.002,99.8992 301.016,101.187 299.925,101.703 298.395,102.191 296.978,102.407 296.742,102.405 296.489,102.396 296.298,102.384 295.619,102.29 295.469,102.257 294.215,101.783 294.101,101.72 292.937,100.719 292.92,92.154 293.332,91.1952 293.467,90.909 294.866,88.1943 294.921,88.0918 296.523,85.168 298.094,82.2918 299.389,79.7553 299.412,79.7016 298.418,79.58 296.269,79.3493 295.982,79.3091 294.078,78.9808 293.133,78.7102 292.892,78.612 292.875,69.76 292.867,66.0433 293.998,65.182 294.182,65.0495 296.331,63.5752 298.321,62.1589 299.735,60.9543 299.759,60.9242 299.11,60.5222 297.293,59.6601 295.249,58.7384 294.967,58.5992 293.149,57.6227 292.85,57.4183 292.826,45.6049 292.95,45.524 294.656,44.5588 294.788,44.4871 296.704,43.4849 298.467,42.5179 298.946,42.2054 298.582,41.5465 296.966,39.0593 295.008,36.1905 294.992,36.1658 293.005,33.2132 292.915,33.0734 292.801,32.8899 292.797,31.0636 292.772,18.3737 292.934,18.2667 294.735,18.1744 296.632,18.4579 297.718,18.7611 300.475,19.9159 300.801,20.0678 304.087,21.7603 304.179,21.8094 307.636,23.6922 310.836,25.3818 311.298,25.5907 311.325,25.1269 311.351,24.0807 311.355,23.2278 311.358,23.0799 311.397,22.0227 311.426,21.655 311.537,20.7201 311.606,20.3058 311.778,19.4989 311.909,19.0157 312.133,18.3426 312.258,18.0396 316.278,18.0137 324.358,17.9618 325.191,18.8288 326.305,19.9522 327.155,20.6971 327.157,20.6982 327.669,20.6312 329.471,20.1101 331.954,19.2332 334.909,18.1772 335.049,18.1296 335.801,17.8882 339.784,17.8626 351.538,17.787 363.291,17.7115 368.846,17.6758 369.665,17.8803 370.46,18.1594 377.694,21.4787 378.489,21.9462 384.699,26.5045 385.422,27.1668 390.478,32.9128 391.052,33.7317 394.824,40.6143 395.197,41.5097 396.832,47.0341 397.469,46.2352 398.986,45.0049 400.98,44.0036 401.536,43.7692 404.508,42.7427 404.806,42.6511 408.467,41.661 408.679,41.6091 412.742,40.717 412.932,40.6795 415.407,40.2454 412.503,38.0797 407.744,35.5656 403.199,33.8428 399.08,32.6711 395.673,31.8184 395.334,31.7192 393.039,30.951 391.071,29.6465 390.243,28.708 389.113,25.9564 390.206,22.7311 390.832,22.0031 392.34,20.8547 394.101,20.0241 394.653,19.8064 397.372,18.9347 397.686,18.8463 401.187,17.9952 401.424,17.9442 404.066,17.4493 410.304,17.4092 422.057,17.3337 433.097,17.2627 433.376,17.3359 436.528,18.379 437.261,18.6951 439.905,20.1231 440.812,20.7682 442.838,22.6199 443.737,23.7544 445.034,26.0687 445.556,27.5639 446.012,30.3796 446.052,31.524 445.894,33.2428 445.791,33.8737 445.376,35.6329 445.278,35.9819 444.69,37.806 444.651,37.9219 443.991,39.7975 443.37,41.666 442.868,43.5148 442.533,45.3892 442.41,47.3549 442.461,48.1436 442.593,48.757 442.76,49.1682 442.922,49.4088 443.091,49.5653 443.371,49.7215 443.92,49.8807 444.72,49.949 445.327,49.8635 445.493,49.7814 445.7,49.5756 446.045,48.981 446.414,47.9071 446.707,46.419 446.882,44.6243 446.937,42.6218 446.903,40.9748 446.813,39.4012 446.684,37.9085 446.532,36.4906 446.374,35.1486 446.372,35.1274 446.233,33.8883 446.222,33.7816 446.123,32.6691 446.109,32.4406 446.072,31.457 446.086,30.8878 446.316,28.2562 446.469,27.4198 447.137,25.0464 447.469,24.2001 448.541,22.1134 449.06,21.32 450.502,19.5486 451.182,18.873 452.96,17.4455 453.446,17.1319 457.317,17.107 469.07,17.0314 476.063,16.9865 " fill="none" stroke-width="0.5" stroke="rgb(0,0,0)" />
	<polygon points="258.265,447.003 257.843,447.053 257.588,447.118 257.346,447.22 256.976,447.443 256.406,447.888 255.619,448.624 254.549,449.755 254.44,449.866 254.111,450.192 254.537,450.033 256.201,449.748 256.527,449.753 256.855,449.771 257.284,449.809 257.797,449.885 258.302,449.988 258.943,450.17 259.498,450.373 260.211,450.705 260.79,451.039 261.491,451.537 262.067,452.035 262.206,452.179 261.085,449.771 261.045,449.681 260.638,448.754 260.299,448.186 259.939,447.728 259.587,447.386 259.278,447.161 259.047,447.043 258.929,447.007 258.751,446.988 " fill="none" stroke-width="0.5" stroke="rgb(0,0,0)" />
	<polygon points="187.151,439.764 187.439,440.327 189.425,444.986 189.645,445.634 190.631,449.458 190.867,449.555 192.178,449.941 193.776,450.293 195.488,450.569 197.159,450.742 198.608,450.799 200.549,450.692 202.451,450.358 204.224,449.777 205.787,448.949 207.111,447.858 208.214,446.43 209.093,444.501 209.75,441.467 211.179,439.118 209.995,439.382 209.343,439.479 202.659,439.978 201.964,439.977 195.745,439.488 194.975,439.36 189.779,438.032 188.995,437.754 184.762,435.796 " fill="none" stroke-width="0.5" stroke="rgb(0,0,0)" />
	<polygon points="226.782,382.661 225.882,383.035 217.614,385.467 216.732,385.634 206.916,386.505 206.015,386.495 197.818,385.591 196.858,385.378 195.294,384.849 195.824,385.376 196.272,385.894 198.752,389.242 199.095,389.78 200.933,393.165 201.214,393.792 202.356,396.956 202.578,397.843 202.97,400.529 202.988,401.707 202.758,403.702 202.47,404.854 201.811,406.521 201.188,407.62 200.144,408.979 199.318,409.807 197.935,410.876 197.107,411.384 195.429,412.183 194.715,412.451 192.787,412.998 192.209,413.122 190.075,413.436 189.612,413.48 187.318,413.581 186.807,413.574 183.949,413.378 183.398,413.306 180.504,412.747 180.036,412.631 177.166,411.753 176.757,411.607 173.973,410.455 173.601,410.281 170.965,408.899 170.609,408.692 168.182,407.124 167.824,406.869 165.668,405.16 165.293,404.829 163.468,403.023 163.114,402.63 161.941,401.162 161.611,400.683 162.311,403.523 162.429,404.259 163.169,413.762 163.172,414.425 162.851,419.109 162.761,419.753 161.699,424.703 161.481,425.422 159.526,430.363 159.121,431.152 156.122,435.81 155.477,436.6 151.282,440.7 150.413,441.365 144.872,444.633 143.896,445.064 136.935,447.202 137.78,447.326 138.708,447.432 139.686,447.517 140.688,447.58 141.69,447.623 142.671,447.648 143.481,447.654 148.653,447.324 152.887,446.418 156.306,445.023 158.969,443.227 160.979,441.064 162.431,438.486 163.345,435.402 163.684,431.593 163.68,431.28 163.661,430.769 163.631,430.235 163.59,429.683 163.542,429.119 163.486,428.546 163.426,427.97 163.362,427.387 164.02,424.486 166.33,422.612 169.875,422.797 171.977,423.82 172.457,424.09 174.868,425.649 173.958,423.421 173.675,422.409 173.362,420.427 173.324,419.317 173.356,418.949 173.531,418.039 173.627,417.72 174.053,416.741 174.21,416.47 174.892,415.576 175.109,415.354 175.938,414.685 176.213,414.513 177.04,414.103 177.37,413.98 178.101,413.774 178.484,413.7 179.089,413.625 179.524,413.6 179.983,413.597 181.007,413.643 181.388,413.675 182.312,413.795 182.534,413.829 183.472,413.997 183.48,413.999 184.471,414.179 185.596,414.345 187.041,414.493 188.961,414.601 191.107,414.637 195.78,413.778 198.571,411.837 200.884,408.613 203.046,404.195 205.319,399.435 205.656,398.846 208.477,394.675 209.526,393.577 213.481,390.628 215.322,389.811 221.007,388.692 222.234,388.62 223.279,388.7 223.806,388.771 225.055,389.016 225.476,389.12 226.851,389.529 227.251,389.668 228.064,389.995 228.009,389.845 227.945,389.659 227.637,388.69 227.53,388.291 227.311,387.304 227.219,386.69 227.136,385.67 227.137,384.928 227.225,383.861 227.363,383.065 227.587,382.221 " fill="none" stroke-width="0.5" stroke="rgb(0,0,0)" />
	<polygon points="242.029,408.438 242.056,408.682 242.13,409.554 242.144,409.807 242.169,410.666 242.116,411.499 241.337,416.475 240.95,417.729 238.743,422.359 238.152,423.29 234.713,427.477 234.069,428.118 229.592,431.763 228.957,432.196 223.636,435.202 223.014,435.494 218.634,437.158 220.734,436.841 226.946,434.978 232.418,432.396 237.123,429.189 241.036,425.442 244.138,421.234 246.405,416.633 247.922,411.296 249.294,409.334 248.497,409.488 247.483,409.584 246.402,409.558 245.465,409.422 244.379,409.124 243.513,408.766 242.864,408.435 242.042,407.929 241.95,407.868 " fill="none" stroke-width="0.5" stroke="rgb(0,0,0)" />
	<polygon points="326,413.94 325.095,414.353 315.59,417.486 314.628,417.691 308.483,418.319 308.547,418.342 309.712,419.04 311.033,420.241 311.806,421.287 312.397,422.37 312.891,423.668 313.076,424.277 313.406,425.73 313.442,425.905 313.704,427.31 313.952,428.358 314.072,428.663 314.104,428.69 314.808,429.19 314.831,429.206 315.738,429.86 316.024,430.083 316.89,430.819 317.399,431.325 318.132,432.18 318.745,433.1 319.253,434.111 319.681,435.445 319.863,436.597 319.964,436.45 320.14,436.213 321.743,434.187 321.883,434.018 322.605,433.191 322.723,433.061 323.442,432.298 323.606,432.133 324.321,431.449 324.551,431.243 325.26,430.651 325.586,430.403 326.286,429.918 326.754,429.634 327.444,429.27 328.112,428.984 328.79,428.755 329.704,428.548 330.368,428.469 331.772,428.519 332.433,428.647 333.087,428.825 334.038,429.162 334.116,429.19 334.297,429.258 334.006,429.086 332.423,427.963 331.559,427.164 330.558,425.963 329.674,424.282 329.324,423.041 329.154,421.809 329.154,413.773 329.347,412.463 329.537,411.832 " fill="none" stroke-width="0.5" stroke="rgb(0,0,0)" />
	<polygon points="255.575,391.552 255.497,392.139 255.359,392.828 255.215,393.371 254.996,394.031 254.798,394.527 254.765,394.598 254.998,394.93 255.373,395.566 255.69,396.216 255.963,396.912 256.172,397.596 256.339,398.355 256.435,399.021 256.491,399.844 256.482,400.585 256.386,401.596 256.219,402.461 255.943,403.392 255.605,404.222 255.165,405.056 254.665,405.81 254.078,406.53 253.436,407.172 252.718,407.761 251.963,408.262 251.228,408.651 253.948,408.3 256.797,409.408 257.179,409.578 260.039,411.005 260.334,411.166 263.117,412.823 263.364,412.981 265.981,414.777 266.207,414.942 268.571,416.788 268.801,416.979 270.823,418.785 271.091,419.044 272.108,420.113 273.051,419.906 273.251,419.867 274.536,419.646 274.725,419.617 276.059,419.445 276.239,419.425 277.622,419.302 277.791,419.29 279.223,419.216 279.383,419.21 280.865,419.185 281.046,419.186 283.177,419.236 283.381,419.245 285.584,419.395 285.775,419.412 288.056,419.665 288.235,419.688 290.599,420.046 290.765,420.074 293.219,420.537 293.37,420.569 295.921,421.141 296.059,421.174 297.288,421.491 297.609,420.949 298.115,420.272 298.984,419.39 299.675,418.858 300.198,418.565 291.145,417.644 290.191,417.442 280.106,414.142 279.204,413.734 270.598,408.64 269.829,408.068 262.728,401.512 262.13,400.839 256.56,393.153 256.131,392.428 255.592,391.288 " fill="none" stroke-width="0.5" stroke="rgb(0,0,0)" />
	<polygon points="351.234,386.053 350.956,386.783 347.348,394.257 346.928,394.958 341.873,401.9 341.287,402.559 340.864,402.951 343.532,402.147 344.065,402.021 348.004,401.336 348.53,401.276 353.038,401.024 353.456,401.02 357.249,401.157 357.611,401.184 361.082,401.589 361.508,401.659 364.599,402.321 365.121,402.465 367.777,403.375 368.434,403.659 370.506,404.757 370.114,404.121 369.576,402.849 369.129,401.08 369.348,398.195 370.464,395.553 369.069,396.318 367.875,396.769 362.679,397.932 360.667,397.927 359.516,397.663 357.97,396.987 356.893,396.253 356.033,395.49 355.054,394.371 354.584,393.728 353.728,392.311 353.45,391.773 352.741,390.144 352.562,389.66 352.025,387.904 351.906,387.421 351.565,385.626 351.5,385.118 " fill="none" stroke-width="0.5" stroke="rgb(0,0,0)" />
	<polygon points="118.057,385.419 117.17,386.316 116.551,387.3 116.17,388.394 116.03,389.666 116.317,392.457 117.109,394.894 118.334,397.002 119.939,398.792 121.875,400.245 124.073,401.326 126.453,401.996 126.47,401.998 125.497,401.63 124.873,401.34 122.962,400.265 122.335,399.841 120.76,398.571 120.13,397.952 118.942,396.535 118.351,395.632 117.601,394.118 117.19,392.849 116.929,391.288 116.883,390.142 116.987,388.952 117.141,388.111 117.441,387.048 117.781,386.19 118.245,385.294 " fill="none" stroke-width="0.5" stroke="rgb(0,0,0)" />
	<polygon points="281.075,390.613 285.609,393.882 291.011,396.449 297.22,398.128 304.29,398.741 307.8,398.596 310.958,398.179 313.603,397.552 315.469,396.864 314.89,396.589 314.218,396.106 312.52,393.743 312.264,392.911 312.135,390.778 312.225,390.273 312.312,389.973 311.049,390.474 310.823,390.556 308.067,391.484 307.727,391.584 304.514,392.393 304.097,392.478 300.389,393.05 299.928,393.097 295.686,393.315 295.135,393.309 291.622,393.063 291.005,392.977 287.614,392.265 287.009,392.093 283.848,390.956 283.23,390.68 280.405,389.158 279.757,388.734 277.896,387.276 " fill="none" stroke-width="0.5" stroke="rgb(0,0,0)" />
	<polygon points="121.331,348.814 119.837,350.328 119.211,350.857 117.428,352.107 116.742,352.503 114.702,353.457 114.568,353.507 114.584,353.64 114.617,354.135 114.646,356.489 114.568,357.385 114.156,359.574 113.895,360.459 113.078,362.451 112.643,363.267 111.457,365.028 110.876,365.729 109.356,367.226 108.776,367.697 110.978,366.624 111.752,366.33 115.782,365.211 116.59,365.063 120.841,364.679 121.75,364.688 129.426,365.535 130.419,365.759 137.502,368.219 138.409,368.651 144.768,372.597 145.528,373.188 151.028,378.496 151.616,379.188 156.125,385.732 156.54,386.474 156.697,386.83 156.287,384.766 156.266,384.655 155.748,381.667 155.084,378.909 154.059,376.506 152.589,374.233 150.626,372.082 148.108,370.069 144.981,368.228 141.202,366.607 136.589,365.212 132.892,364.207 132.66,364.137 129.708,363.163 129.365,363.035 127.125,362.09 126.622,361.84 125,360.906 124.307,360.414 123.21,359.472 122.426,358.599 121.759,357.628 121.182,356.46 120.851,355.444 120.642,354.409 120.553,353.328 120.604,352.175 120.909,350.416 121.387,349.036 121.842,348.189 " fill="none" stroke-width="0.5" stroke="rgb(0,0,0)" />
	<polygon points="76.8198,367.978 77.5702,369.876 78.8244,378.158 78.6242,380.331 76.3895,386.77 77.296,384.605 77.6073,383.995 79.7253,380.519 80.1136,379.976 82.5017,377.107 82.9724,376.62 85.4809,374.385 86.0712,373.94 88.5505,372.368 89.3594,371.962 91.6597,371.081 94.633,370.984 97.0309,372.744 97.7899,375.982 97.3387,379.097 99.3482,375.67 99.8977,374.92 102.625,371.903 103.281,371.306 105.553,369.613 104.017,370.255 103.237,370.501 100.926,371.008 100.167,371.108 97.8708,371.218 97.0653,371.185 94.9426,370.907 94.109,370.717 92.1794,370.082 91.3737,369.727 89.6564,368.762 88.9344,368.259 87.4487,366.993 86.8514,366.378 85.6166,364.84 85.1634,364.158 85.0746,363.994 84.4009,364.144 84.2012,364.184 83.3814,364.328 83.1884,364.358 82.3468,364.469 81.7998,364.508 79.4863,364.533 78.5826,364.452 76.3843,364.031 75.5359,363.781 73.5009,362.959 73.2915,362.851 " fill="none" stroke-width="0.5" stroke="rgb(0,0,0)" />
	<polygon points="248.061,360.002 247.775,360.779 244.962,366.708 244.502,367.473 240.436,372.94 239.785,373.645 237.175,375.933 237.912,376.017 238.971,376.269 239.999,376.649 240.955,377.136 241.839,377.728 242.586,378.353 243.329,379.125 243.854,379.783 244.198,380.305 244.255,380.297 244.711,380.254 245.278,380.228 245.935,380.247 247.181,380.372 248.118,380.568 249.225,380.923 250.114,381.319 251.073,381.875 251.587,382.25 249.416,374.237 249.275,373.453 248.461,364.366 248.466,363.503 249.281,355.434 " fill="none" stroke-width="0.5" stroke="rgb(0,0,0)" />
	<polygon points="353.74,361.477 353.154,362.179 350.96,364.328 350.183,364.939 349.541,365.339 350.069,365.191 352.818,366.327 354.328,370.199 353.604,377.228 354.164,376.661 354.857,376.086 355.813,375.44 356.413,375.099 357.66,374.509 358.131,374.318 359.7,373.78 360.055,373.674 361.814,373.228 370.316,370.402 370.156,370.418 369.29,370.423 366.92,370.209 366.074,370.051 363.939,369.439 363.106,369.108 361.23,368.14 360.463,367.64 358.872,366.359 358.218,365.712 356.937,364.161 356.428,363.4 355.482,361.622 355.139,360.787 354.854,359.829 " fill="none" stroke-width="0.5" stroke="rgb(0,0,0)" />
	<polygon points="299.347,351.401 297.466,353.616 294.28,355.534 293.303,355.974 288.798,357.397 288.734,357.417 283.847,358.881 279.499,360.812 276.133,363.547 273.787,367.706 273.126,372.222 273.312,371.905 273.892,371.124 274.146,370.849 274.964,370.151 275.263,369.952 276.257,369.452 276.596,369.331 277.634,369.092 278.009,369.051 278.837,369.037 278.94,369.045 279.043,368.028 279.104,367.615 279.344,366.39 279.512,365.768 279.907,364.633 280.348,363.713 280.937,362.773 281.996,361.6 282.818,360.96 284.652,360.102 285.746,359.865 288.292,360.046 289.708,360.572 290.836,361.183 292.704,362.569 292.804,362.646 295.177,364.51 298.131,366.523 301.894,368.503 302.232,368.625 302.029,368.409 301.123,367.236 300.663,366.507 299.99,365.175 299.68,364.384 299.261,362.931 299.103,362.096 298.959,360.559 298.944,359.919 298.996,358.812 299.028,358.455 299.166,357.364 299.203,357.122 299.399,356.048 299.424,355.919 299.649,354.862 299.652,354.847 299.865,353.858 300.028,353.003 300.125,352.302 300.156,351.712 300.146,351.466 300.115,351.228 300.067,351.018 299.999,350.818 299.9,350.604 299.758,350.369 " fill="none" stroke-width="0.5" stroke="rgb(0,0,0)" />
	<polygon points="323.628,362.517 323.184,364.076 322.872,364.874 322.157,366.296 321.69,367.037 320.724,368.283 320.104,368.937 318.909,369.972 318.151,370.503 316.746,371.288 315.885,371.658 315.785,371.689 320.548,371.993 323.579,371.923 327.217,371.686 331.14,371.263 335.121,370.636 338.924,369.794 342.298,368.748 344.609,367.713 343.552,368.076 342.558,368.296 339.084,368.666 338.206,368.674 334.985,368.392 334.152,368.24 331.21,367.414 330.363,367.082 327.747,365.741 326.949,365.219 324.705,363.391 324.023,362.702 323.675,362.266 " fill="none" stroke-width="0.5" stroke="rgb(0,0,0)" />
	<polygon points="386.69,305.841 385.737,306.63 384.618,307.881 383.473,309.502 382.392,311.388 381.443,313.435 380.729,315.393 380.471,316.722 380.257,319.057 380.081,322.045 379.893,325.229 379.884,325.357 379.622,328.362 379.582,328.686 379.178,331.207 378.975,332.004 378.362,333.739 376.745,335.906 376.568,336.034 378.577,337.471 379.225,338.033 381.711,340.643 382.279,341.376 384.109,344.313 384.537,345.204 385.667,348.404 385.897,349.405 386.283,352.801 386.294,353.722 386.07,356.222 385.921,357.036 385.823,357.387 385.826,357.384 389.834,352.752 390.352,352.242 394.964,348.378 396.055,347.7 402.079,345.053 402.833,344.847 402.752,344.81 401.465,343.939 400.336,342.851 399.993,342.481 398.716,340.943 398.613,340.814 397.262,339.061 395.963,337.396 395.554,336.922 394.551,337.79 393.341,338.843 393.204,338.957 392.056,339.88 391.656,340.167 390.634,340.82 389.477,341.348 388.642,341.596 386.784,341.749 386.596,341.725 385.499,341.446 385.33,341.379 384.4,340.883 384.251,340.78 383.536,340.165 383.41,340.032 382.891,339.369 382.79,339.212 382.431,338.535 382.356,338.36 382.125,337.667 382.078,337.479 381.96,336.76 381.944,336.567 381.986,335.473 382.264,333.738 382.451,332.988 383.184,330.84 383.287,330.567 384.324,328.066 384.34,328.026 385.504,325.294 386.619,322.46 387.546,319.609 388.164,316.828 388.398,314.026 388.371,312.582 388.257,310.751 388.025,308.885 387.666,307.204 387.223,305.961 387.038,305.658 " fill="none" stroke-width="0.5" stroke="rgb(0,0,0)" />
	<polygon points="55.0381,335.722 55.9256,342.999 59.6214,348.943 65.4225,354.683 65.9695,355.205 65.5179,354.21 65.2261,353.347 64.7299,351.185 64.6149,350.214 64.5896,347.752 64.6919,346.745 65.1833,344.469 65.4838,343.557 66.4123,341.501 66.8529,340.734 68.1388,338.928 68.6705,338.308 69.2668,337.727 66.4432,337.38 66.044,337.313 63.1736,336.697 62.5598,336.52 60.0911,335.613 59.3202,335.245 57.1794,333.961 56.4283,333.398 55.9339,332.941 " fill="none" stroke-width="0.5" stroke="rgb(0,0,0)" />
	<polygon points="322.675,321.798 320.946,324.043 319.645,324.929 318.403,325.523 318.071,325.623 318.655,326.16 319.335,326.947 319.942,327.838 320.455,328.835 320.783,329.731 321.032,330.787 321.131,331.661 321.127,332.706 320.97,334.029 320.67,335.199 320.228,336.292 319.6,337.38 318.916,338.258 318.106,339.065 317.223,339.746 316.42,340.243 315.38,340.744 314.683,341.012 313.53,341.35 312.952,341.479 311.729,341.67 311.246,341.719 309.997,341.779 309.67,341.782 308.739,341.76 308.569,341.753 307.606,341.693 307.503,341.686 306.511,341.602 306.467,341.598 305.452,341.503 304.443,341.41 303.46,341.333 302.504,341.281 301.592,341.262 300.432,341.298 299.365,341.409 299.247,341.432 299.511,341.812 300.016,342.763 300.07,342.902 301.035,342.173 302.8,341.966 306.437,342.257 307.18,342.379 310.467,343.202 311.204,343.456 314.099,344.738 314.808,345.131 317.27,346.798 317.929,347.341 318.714,348.122 318.715,347.843 318.961,345.076 319.061,344.45 319.71,341.656 319.816,341.276 320.734,338.461 320.795,338.286 321.846,335.459 322.864,332.714 323.691,330.156 324.225,327.821 324.42,325.592 324.395,324.945 324.308,324.207 324.158,323.484 323.941,322.764 323.646,322.035 323.259,321.283 323.001,320.875 " fill="none" stroke-width="0.5" stroke="rgb(0,0,0)" />
	<polygon points="180.511,335.546 183.164,337.932 185.809,339.806 188.545,341.274 191.451,342.402 194.607,343.232 198.082,343.795 201.925,344.113 202.893,344.136 198.751,343.724 197.927,343.565 191.489,341.686 190.762,341.404 184.714,338.44 184.059,338.048 180.366,335.391 " fill="none" stroke-width="0.5" stroke="rgb(0,0,0)" />
	<polygon points="219.263,338.507 218.368,341.344 216.915,342.282 217.998,341.834 219.642,340.843 220.598,339.978 220.864,339.564 220.731,339.063 219.927,338.133 218.824,337.342 " fill="none" stroke-width="0.5" stroke="rgb(0,0,0)" />
	<polygon points="353.953,330.696 355.856,334.572 357.072,332.136 356.658,332.083 356.531,332.058 355.913,331.892 355.794,331.851 355.122,331.557 355.016,331.5 354.291,331.015 354.201,330.941 353.938,330.671 " fill="none" stroke-width="0.5" stroke="rgb(0,0,0)" />
	<polygon points="206.843,310.915 205.01,314.531 203.821,317.946 203.396,321.253 203.605,323.608 204.228,325.864 205.225,327.912 206.573,329.731 208.258,331.297 210.274,332.576 212.619,333.529 213.122,333.637 211.9,332.811 211.341,332.365 208.738,329.933 207.94,328.946 206.099,325.871 205.523,324.327 204.824,320.382 204.767,319.252 204.857,318.042 204.928,317.509 205.198,316.123 205.296,315.717 205.746,314.177 205.855,313.85 206.485,312.175 206.599,311.9 207.41,310.109 207.528,309.868 207.946,309.072 " fill="none" stroke-width="0.5" stroke="rgb(0,0,0)" />
	<polygon points="366.152,328.378 364.783,329.182 363.358,330.036 363.258,330.094 361.924,330.849 361.76,330.933 365.585,331.459 366.248,331.601 367.134,331.861 366.885,331.04 366.813,330.777 366.388,328.997 366.217,328.344 " fill="none" stroke-width="0.5" stroke="rgb(0,0,0)" />
	<polygon points="367.862,280.322 368.1,280.538 371.26,283.61 371.628,284.014 373.815,286.723 374.504,287.904 375.321,289.964 375.029,293.92 374.163,295.417 372.627,297.002 370.295,298.452 369.578,298.814 366.177,300.171 365.794,300.305 361.724,301.52 361.47,301.588 357.13,302.616 356.923,302.66 352.711,303.452 352.494,303.488 348.809,303.998 348.483,304.031 345.724,304.211 345.015,304.202 344.422,304.148 343.478,303.96 343.004,303.812 342.797,303.719 343.063,305.086 343.132,306.324 343.031,307.57 342.873,308.445 342.559,309.551 342.139,310.553 341.596,311.511 340.881,312.457 340.092,313.259 339.209,313.958 338.157,314.596 337.301,315 336.161,315.399 339.733,317.038 340.398,317.414 345.258,320.726 345.858,321.216 349.876,325.102 350.388,325.691 352.763,328.948 352.455,327.809 352.439,327.687 352.509,326.119 352.727,325.133 353.003,324.287 353.578,322.977 353.734,322.655 354.547,321.139 354.624,321.002 355.555,319.4 355.576,319.365 355.979,318.685 355.181,318.486 353.086,317.989 352.892,317.939 351.044,317.413 350.403,317.178 349.095,316.583 347.247,315.042 346.751,314.33 345.942,311.467 346.349,309.833 346.553,309.389 348.028,307.595 348.6,307.182 349.449,306.699 350.333,306.316 350.783,306.148 351.921,305.791 352.182,305.718 353.517,305.385 353.68,305.348 355.153,305.038 355.256,305.018 356.811,304.728 356.872,304.717 358.321,304.467 361.475,303.732 364.748,302.626 368.004,301.165 370.996,299.413 373.489,297.465 375.282,295.466 376.289,293.584 376.624,291.688 376.343,289.392 375.541,287.338 374.251,285.44 372.471,283.62 370.272,281.875 367.781,280.201 367.549,280.058 " fill="none" stroke-width="0.5" stroke="rgb(0,0,0)" />
	<polygon points="74.0405,306.823 72.4515,311.235 71.458,315.045 71.1178,318.196 71.1543,319.492 71.3017,320.889 71.5854,322.227 72.0479,323.57 72.7552,324.99 73.7942,326.541 75.2589,328.254 75.6744,328.65 75.7247,328.362 75.9478,327.544 76.7087,325.519 77.0908,324.738 78.1951,322.941 78.7259,322.239 80.1436,320.7 80.7994,320.114 82.5004,318.867 83.2471,318.422 85.2014,317.499 85.9984,317.209 88.1758,316.642 89.0231,316.505 91.4569,316.345 92.3818,316.378 94.6289,316.69 95.5273,316.91 97.5695,317.635 98.3709,318.012 100.19,319.093 100.859,319.578 102.437,320.957 102.97,321.508 104.289,323.126 104.575,323.541 104.586,323.537 105.379,323.303 105.672,323.227 106.495,323.043 106.79,322.987 107.052,322.947 106.865,322.86 105.142,321.801 104.345,321.179 102.99,319.856 102.4,319.15 101.389,317.654 100.992,316.935 100.3,315.36 100.056,314.65 99.6591,313.087 99.5361,312.361 99.4187,311.01 99.3681,311.048 97.0839,312.363 96.1597,312.767 93.6452,313.546 92.7309,313.729 90.0433,313.986 89.1719,313.985 87.4139,313.815 86.5615,313.649 84.8578,313.145 84.0522,312.82 82.4582,311.992 81.7161,311.51 80.2871,310.369 79.6371,309.734 78.4284,308.29 77.9092,307.523 76.9762,305.787 76.624,304.934 76.022,302.915 75.9248,302.414 " fill="none" stroke-width="0.5" stroke="rgb(0,0,0)" />
	<polygon points="420.01,321.91 420.376,322.377 420.592,322.812 420.658,323.319 421.453,321.776 421.529,321.658 " fill="none" stroke-width="0.5" stroke="rgb(0,0,0)" />
	<polygon points="400.17,302.766 400.789,304.705 401.839,306.809 403.269,308.959 404.999,311.044 406.936,312.971 408.977,314.653 411.141,316.104 412.154,316.723 413.309,317.363 414.574,318.03 415.013,318.262 414.024,316.637 413.943,316.499 412.133,313.278 409.961,309.753 407.45,306.424 404.684,303.756 401.802,302.088 400.054,301.758 " fill="none" stroke-width="0.5" stroke="rgb(0,0,0)" />
	<polygon points="125.669,287.889 125.723,288.051 127.681,294.266 127.779,294.627 129.164,300.735 129.26,301.342 129.785,307.313 129.782,308.148 129.552,310.531 129.391,311.369 129.105,312.347 129.476,312.017 130.09,311.559 131.374,310.89 131.853,310.73 133.722,310.519 133.902,310.536 135.063,310.804 135.212,310.86 136.53,311.625 136.651,311.726 137.601,312.817 137.696,312.969 138.148,313.929 138.218,314.138 138.386,314.801 138.434,315.074 138.487,315.497 138.514,315.84 138.527,316.105 138.533,316.352 138.568,316.717 138.619,316.898 138.716,317.098 138.844,317.27 138.989,317.402 139.171,317.508 139.454,317.599 139.951,317.649 140.404,317.608 140.736,317.512 140.964,317.393 141.129,317.259 141.258,317.1 141.364,316.897 141.443,316.626 141.451,316.541 140.441,311.812 137.421,305.545 132.807,297.813 127.397,288.94 127.296,288.767 123.565,281.992 " fill="none" stroke-width="0.5" stroke="rgb(0,0,0)" />
	<polygon points="420.149,262.689 419.958,263.464 419.503,264.8 419.366,265.152 418.722,266.627 418.653,266.777 417.914,268.314 417.906,268.332 417.533,269.099 417.863,269.173 419.716,269.582 419.92,269.632 421.544,270.07 422.175,270.291 423.324,270.79 425.182,272.278 425.618,272.874 426.492,275.718 425.955,277.709 425.488,278.58 423.626,280.441 422.352,281.124 421.477,281.481 419.586,282.032 419.23,282.12 416.912,282.597 416.802,282.618 414.273,283.074 411.806,283.549 409.679,284.068 407.971,284.674 406.571,285.324 405.346,286.005 404.389,286.66 403.706,287.253 403.284,287.744 403.113,288.034 403.943,288.174 405.223,288.274 406.666,288.304 410.417,288.064 413.793,287.441 416.898,286.545 419.714,285.493 422.235,284.402 424.413,283.412 424.572,283.343 426.312,282.631 427.068,282.396 428.308,282.126 429.656,282.038 429.844,282.054 430.656,282.197 430.825,282.243 431.668,282.564 431.817,282.639 432.625,283.156 432.751,283.257 433.447,283.951 433.548,284.076 434.071,284.885 434.146,285.034 434.472,285.882 434.518,286.051 434.664,286.87 434.68,287.059 434.495,288.778 434.24,289.609 433.794,290.611 433.121,291.733 432.92,292.04 431.969,293.371 431.909,293.453 430.837,294.885 429.832,296.266 429.489,296.79 430.012,297.138 431.808,298.155 433.737,299.196 433.843,299.255 435.548,300.235 435.976,300.514 437.16,301.384 438.444,302.843 438.852,303.578 438.952,307.802 438.863,307.982 438.113,309.067 437.974,309.216 437.093,309.95 436.905,310.07 436.122,310.469 435.885,310.563 435.284,310.752 434.997,310.821 434.558,310.904 434.222,310.951 433.908,310.984 433.522,311.01 433.297,311.02 432.864,311.028 432.643,311.027 431.874,311.005 431.689,310.996 430.843,310.936 430.74,310.928 429.837,310.844 429.795,310.84 428.859,310.745 427.936,310.652 427.066,310.575 426.458,310.536 426.446,310.93 426.413,312.766 426.408,312.913 426.318,314.715 426.275,315.153 426.048,316.688 425.963,316.996 426.474,316.65 428.435,315.594 429.271,315.246 431.428,314.59 432.309,314.415 434.613,314.191 435.219,314.172 437.26,314.246 437.615,314.273 439.02,314.434 439.019,314.428 438.976,313.99 438.903,312.479 438.912,311.897 439.107,309.439 439.226,308.705 439.807,306.362 440.063,305.615 441.019,303.454 441.438,302.707 441.61,302.458 439.257,300.112 437.291,293.606 435.158,287.42 432.804,281.548 430.196,276.046 427.305,270.965 424.104,266.353 420.563,262.248 420.26,261.971 " fill="none" stroke-width="0.5" stroke="rgb(0,0,0)" />
	<polygon points="311.55,302.198 310.938,302.691 306.348,305.774 305.519,306.215 299.553,308.632 298.648,308.893 297.357,309.124 304.257,308.425 304.908,308.405 307.721,308.524 308.113,308.558 310.752,308.899 311.169,308.973 313.572,309.515 314.044,309.649 316.149,310.369 316.717,310.608 318.462,311.484 319.181,311.933 320.504,312.942 321.386,313.832 321.911,314.534 322.137,313.918 322.388,313.763 320.873,312.86 320.257,312.42 318.605,311.017 317.975,310.364 316.657,308.689 316.085,307.748 315.212,305.817 314.855,304.597 314.539,302.422 314.524,301.233 314.74,299.402 314.812,299.071 " fill="none" stroke-width="0.5" stroke="rgb(0,0,0)" />
	<polygon points="107.617,291.993 107.607,292.292 107.33,296.498 107.234,297.177 106.441,300.778 106.199,301.547 106.143,301.683 107.9,301.816 108.184,301.973 109.938,303.721 110.171,304.137 110.393,304.588 110.51,304.865 110.728,304.844 110.833,304.809 110.852,304.787 111.014,304.46 111.221,303.727 111.382,302.581 111.439,301.14 111.115,296.401 110.253,291.89 108.988,287.383 107.617,283.189 " fill="none" stroke-width="0.5" stroke="rgb(0,0,0)" />
	<polygon points="54.0333,272.948 53.5822,273.98 53.2965,275.303 53.2828,276.786 53.6117,278.347 54.4729,280.189 54.8211,280.738 55.2946,281.469 55.3246,281.516 55.7697,282.222 55.863,282.376 56.2545,283.056 56.4056,283.34 56.7313,284.011 56.9142,284.443 57.162,285.124 57.328,285.693 57.4856,286.403 57.5817,287.058 57.637,287.815 57.5942,288.851 57.253,291.027 57.0515,291.828 56.106,294.524 55.9094,294.997 54.4764,297.964 54.2745,298.337 53.652,299.367 55.2215,297.134 59.2699,291.239 61.828,286.53 62.6752,282.841 62.673,282.793 62.615,282.402 62.5264,282.067 62.4039,281.758 62.2329,281.443 61.9887,281.097 61.6424,280.706 61.0208,280.131 61.0102,280.121 59.0882,278.33 58.8187,278.057 57.3047,276.387 57.1367,276.191 55.9139,274.677 55.89,274.648 54.9357,273.446 54.304,272.751 54.223,272.687 " fill="none" stroke-width="0.5" stroke="rgb(0,0,0)" />
	<polygon points="458.3,286.342 456.906,286.987 455.515,288.139 454.055,289.902 452.55,292.23 450.992,294.991 450.647,295.622 451.171,295.449 452.135,295.244 454.842,294.968 456.027,295.003 459.216,295.517 460.512,295.932 463.048,297.189 462.902,295.078 462.931,294.938 462.938,294.889 462.95,294.773 462.961,294.596 462.969,294.362 462.975,294.078 462.977,293.749 462.977,293.489 462.9,291.909 462.674,290.367 462.296,288.909 461.8,287.686 461.265,286.828 460.809,286.373 460.466,286.191 459.959,286.109 " fill="none" stroke-width="0.5" stroke="rgb(0,0,0)" />
	<polygon points="336.158,292.7 337.094,294.161 338.42,295.978 338.91,296.643 339.014,296.182 339.304,295.317 339.64,294.569 339.784,294.278 340.26,293.395 340.299,293.325 340.565,292.851 338.897,292.736 336.669,292.691 " fill="none" stroke-width="0.5" stroke="rgb(0,0,0)" />
	<polygon points="91.7589,270.2 91.705,270.322 88.8072,276.651 88.7468,276.778 85.8332,282.655 85.7945,282.731 83.4391,287.265 81.5009,291.007 83.0674,290.96 83.5834,291.117 85.088,291.907 85.6096,292.322 86.051,292.723 86.6161,293.308 87.1283,293.838 87.4852,294.148 87.7129,294.291 87.8905,294.356 88.1608,294.387 89.3428,294.224 89.7984,293.98 90.242,293.441 90.831,292.008 91.3472,289.498 91.6802,286.004 91.8373,281.626 91.8744,276.407 91.8808,276.197 92.2335,269.609 92.2894,269.101 92.3326,268.843 " fill="none" stroke-width="0.5" stroke="rgb(0,0,0)" />
	<polygon points="391.633,266.024 391.606,266.148 390.996,268.721 390.995,268.725 390.398,271.231 389.904,273.581 389.578,275.731 389.461,277.702 389.512,278.924 389.672,280.132 389.927,281.176 390.233,281.949 390.5,282.376 390.562,282.436 390.964,282.046 391.521,281.241 392.074,280.089 392.531,278.673 392.832,277.081 392.944,275.292 392.897,273.022 392.768,270.789 392.582,268.693 392.367,266.738 392.145,264.93 392.144,264.922 392.041,264.061 " fill="none" stroke-width="0.5" stroke="rgb(0,0,0)" />
	<polygon points="341.677,270.616 338.795,272.227 337.428,273.7 336.931,275.663 337.003,276.22 337.208,276.678 337.525,277.047 338.097,277.444 338.971,277.824 340.074,278.117 341.283,278.289 342.5,278.344 342.761,278.338 342.754,278.229 342.705,277.654 342.645,277.046 342.581,276.429 342.578,276.395 342.521,275.805 342.513,275.704 342.473,275.159 342.463,274.967 342.448,274.478 342.465,273.916 342.489,273.654 342.642,272.836 342.714,272.582 343.012,271.807 343.129,271.57 343.577,270.843 343.737,270.63 344.343,269.974 344.544,269.795 345.302,269.248 345.542,269.11 345.632,269.07 " fill="none" stroke-width="0.5" stroke="rgb(0,0,0)" />
	<polygon points="350.608,267.204 350.222,267.367 346.945,268.581 347.63,268.439 347.942,268.407 349.705,268.576 351.788,269.2 352.658,269.563 354.15,270.376 353.814,269.739 353.649,269.199 353.773,266.199 353.957,265.736 354.132,265.515 " fill="none" stroke-width="0.5" stroke="rgb(0,0,0)" />
	<polygon points="359.822,244.252 358.033,245.727 357.311,246.214 355.261,247.329 354.441,247.675 352.178,248.38 351.284,248.563 350.163,248.677 352.373,249.529 354.881,250.145 358.044,250.408 360.765,251.61 362.162,254.237 361.759,256.932 360.015,260.519 358.806,262.05 358.384,262.396 358.588,262.343 359.484,262.175 359.849,262.122 360.828,262.021 361.056,262.003 362.039,261.951 362.184,261.946 363.093,261.927 363.172,261.926 363.911,261.923 364.489,261.916 364.444,261.26 364.443,261.247 364.379,260.265 364.376,260.224 364.32,259.227 364.316,259.155 364.276,258.17 364.273,258.058 364.258,257.112 364.258,256.977 364.266,256.34 364.272,256.179 364.301,255.586 364.318,255.355 364.372,254.82 364.419,254.478 364.502,254.013 364.626,253.492 364.742,253.109 365.079,252.291 365.233,252.002 366.147,250.81 366.342,250.628 367.497,249.991 366.564,249.705 365.754,249.368 364.636,248.77 363.91,248.288 362.921,247.483 362.297,246.866 361.469,245.873 360.968,245.134 360.335,243.971 360.267,243.808 " fill="none" stroke-width="0.5" stroke="rgb(0,0,0)" />
	<polygon points="443.489,248.789 444.377,251.113 445.556,254.034 445.558,254.039 446.911,257.404 446.935,257.463 448.323,261.059 448.365,261.175 448.519,261.608 449.895,259.015 449.951,258.911 451.634,255.93 451.675,255.859 453.07,253.486 451.756,252.822 451.6,252.739 448.145,250.821 447.877,250.66 444.401,248.406 444.012,248.124 442.907,247.228 " fill="none" stroke-width="0.5" stroke="rgb(0,0,0)" />
	<polygon points="380.169,194.884 380.169,195.812 380.018,197.285 379.833,198.184 379.401,199.559 379.053,200.379 378.371,201.626 377.884,202.345 376.982,203.434 376.374,204.042 375.284,204.942 374.566,205.428 374.398,205.52 375.068,205.801 376.463,206.558 377.19,207.047 378.405,208.049 379.02,208.663 380.023,209.878 380.513,210.604 381.27,211.998 381.616,212.82 382.094,214.361 382.276,215.253 382.442,216.908 382.443,217.818 382.276,219.478 382.095,220.369 381.617,221.914 381.271,222.736 380.515,224.133 380.025,224.859 379.023,226.076 378.407,226.691 377.192,227.694 376.465,228.184 375.069,228.941 374.98,228.978 375.183,229.06 376.343,229.666 377.069,230.137 378.073,230.935 378.698,231.537 379.522,232.498 380.03,233.222 380.649,234.318 381.015,235.154 381.404,236.356 381.601,237.279 381.736,238.559 381.741,239.461 381.606,240.908 381.438,241.778 381.048,243.092 380.701,243.937 380.082,245.1 379.566,245.867 378.742,246.86 378.085,247.505 377.08,248.31 376.32,248.803 375.159,249.401 374.336,249.728 373.045,250.1 372.599,250.184 373.738,250.86 374.828,251.829 375.328,252.352 376.447,253.722 376.635,253.969 377.748,255.541 377.793,255.606 378.435,256.546 379.137,255.813 380.353,254.535 380.528,254.361 381.715,253.242 382.22,252.83 383.346,252.038 384.699,251.389 385.738,251.089 387.39,250.927 387.691,250.952 388.685,251.151 388.939,251.232 390.109,251.8 390.32,251.943 391.318,252.864 391.487,253.074 392.084,254.049 392.212,254.333 392.483,255.118 392.573,255.482 392.674,256.041 392.726,256.49 392.727,256.505 392.742,256.48 393.371,255.672 393.551,255.488 394.408,254.8 394.616,254.671 395.599,254.214 395.831,254.138 396.798,253.934 397.05,253.909 399.092,254.176 400.069,254.542 401.489,255.395 402.455,256.25 402.965,256.78 403.927,257.958 404.092,258.173 405.046,259.495 405.908,260.67 405.96,260.732 406.679,260.251 407.895,259.313 409.175,258.283 409.263,258.214 410.472,257.289 410.83,257.041 411.88,256.387 412.467,256.123 412.461,256.119 407.569,254.242 402.158,252.723 396.769,251.218 396.329,251.071 391.516,249.18 390.559,248.664 386.682,245.932 385.474,244.671 382.887,240.641 382.225,238.914 381.284,233.13 381.236,232.081 381.371,230.153 381.426,229.702 381.783,227.62 381.833,227.37 382.338,225.173 382.364,225.068 382.941,222.806 383.501,220.576 383.963,218.479 384.265,216.579 384.375,214.837 384.365,214.446 384.332,214.017 384.279,213.648 384.212,213.34 384.137,213.091 384.056,212.894 383.974,212.737 383.745,212.398 382.982,209.522 384.158,206.79 386.771,205.368 389.509,205.765 394.816,208.346 395.715,208.922 399.348,211.907 400.145,212.755 402.243,215.654 403.379,213.621 407.084,212.518 413.816,213.529 414.329,213.637 419.786,215.114 420.587,215.414 425.032,217.575 425.947,218.165 429.641,221.229 430.349,221.966 433.553,226.152 433.946,226.76 434.564,227.909 434.701,226.993 435.021,225.865 436.766,221.805 437.202,221.017 439.725,217.363 440.157,216.828 443.142,213.66 443.545,213.281 446.676,210.678 447.075,210.381 450.036,208.423 450.517,208.145 452.992,206.912 453.892,206.577 455.472,206.172 455.189,206.044 452.774,205.352 451.427,205.194 450.503,205.349 448.575,206.043 445.719,207.231 445.636,207.265 442.047,208.676 441.798,208.765 437.488,210.176 437.136,210.276 432.015,211.506 431.603,211.585 425.581,212.456 425.144,212.497 418.13,212.828 417.34,212.796 404.575,211.165 403.349,210.83 393.063,206.393 391.989,205.742 383.942,199.18 383.187,198.396 380.111,194.325 " fill="none" stroke-width="0.5" stroke="rgb(0,0,0)" />
	<polygon points="314.891,221.599 314.18,222.081 312.488,223.009 311.673,223.358 309.815,223.945 308.912,224.133 306.93,224.339 305.993,224.339 305.476,224.285 305.892,225.067 307.089,228.77 308.721,230.605 311.401,232.2 315.026,233.774 315.193,233.851 318.993,235.688 319.81,236.196 323.075,238.741 324.18,239.992 326.465,243.806 327.06,245.459 327.341,247.3 328.29,246.359 329.082,245.732 330.199,245.034 330.974,244.647 332.142,244.196 332.842,243.99 333.99,243.748 334.618,243.661 335.674,243.589 336.339,243.607 334.89,241.853 334.402,241.13 333.288,239.082 332.941,238.261 332.237,236.001 332.054,235.106 331.808,232.682 331.808,231.982 331.773,232.001 330.954,232.347 329.642,232.755 328.749,232.937 327.344,233.079 326.424,233.079 325.029,232.937 324.131,232.752 322.828,232.344 322.008,231.996 320.826,231.351 320.106,230.863 319.073,230.009 318.464,229.399 317.611,228.365 317.124,227.644 316.478,226.458 316.131,225.638 315.722,224.329 315.539,223.433 315.396,222.028 315.396,221.182 " fill="none" stroke-width="0.5" stroke="rgb(0,0,0)" />
	<polygon points="407.566,228.531 409.393,232.167 412.117,235.841 414.606,238.224 418.211,241.129 418.218,241.135 421.789,244.026 416.042,237.299 410.048,230.436 409.908,230.268 406.72,226.244 " fill="none" stroke-width="0.5" stroke="rgb(0,0,0)" />
	<polygon points="85.0428,211.115 83.7466,212.424 83.1816,212.8 82.7769,213.04 82.1302,213.379 81.7428,213.559 81.0143,213.858 80.9866,213.868 82.0513,214.156 82.7336,214.444 83.7698,215.055 84.3412,215.504 85.0929,216.25 85.5557,216.832 86.036,217.573 86.3923,218.261 86.6752,218.935 86.927,219.703 87.0799,220.306 87.2295,221.127 87.2954,221.678 87.3448,222.526 87.3201,223.332 86.8625,227.15 86.7632,227.695 85.5732,232.533 85.5943,232.473 85.7067,232.187 86.361,230.675 86.5203,230.344 87.2074,229.053 87.4404,228.664 88.1521,227.598 88.505,227.137 89.2332,226.301 89.7839,225.767 90.5205,225.165 91.3838,224.608 92.1206,224.244 93.384,223.836 94.113,223.713 95.5005,223.695 96.1443,223.785 97.3656,224.137 97.9773,224.41 98.9921,225.034 99.5551,225.492 100.285,226.24 100.783,226.885 101.253,227.633 101.669,228.466 101.944,229.151 102.262,230.174 102.404,230.775 102.607,231.991 102.663,232.509 102.735,233.92 102.72,234.582 102.329,238.678 102.246,239.209 101.344,243.375 103.068,240.554 103.422,240.055 107.415,235.151 106.535,235.195 104.107,233.476 103.312,231.541 103.188,230.763 103.176,230.683 103.069,229.922 103.058,229.838 102.967,229.093 102.957,229.004 102.882,228.276 102.874,228.182 102.816,227.471 102.809,227.372 102.768,226.676 102.763,226.573 102.738,225.893 102.736,225.784 102.727,225.12 102.739,224.726 103.042,220.649 103.143,219.978 103.984,216.277 104.177,215.644 105.457,212.337 105.727,211.761 106.876,209.703 105.246,210.797 104.259,211.297 101.681,212.231 100.629,212.475 97.6316,212.805 96.629,212.804 93.4397,212.448 92.4192,212.213 89.555,211.194 88.624,210.737 86.1157,209.128 85.6332,208.74 " fill="none" stroke-width="0.5" stroke="rgb(0,0,0)" />
	<polygon points="462.741,211.147 462.848,211.747 462.904,212.173 462.962,212.876 462.977,213.153 462.995,213.956 462.99,214.286 462.862,216.807 462.835,217.123 462.498,219.904 462.473,220.084 461.997,223.025 461.982,223.112 461.436,226.113 461.434,226.124 460.895,229.051 460.439,231.752 460.135,234.082 460.034,235.848 460.125,237.03 460.379,238.154 460.771,239.201 461.245,240.083 461.388,240.274 462.689,238.819 464.253,236.578 465.732,233.871 466.947,230.878 467.751,227.779 468.033,224.753 467.437,219.404 465.9,215.2 463.682,211.873 462.679,210.906 " fill="none" stroke-width="0.5" stroke="rgb(0,0,0)" />
	<polygon points="64.5393,212.175 62.9856,214.759 59.7438,217.444 59.9791,217.404 60.7612,217.507 62.0645,217.883 62.7088,218.179 63.8639,218.94 64.3807,219.408 65.1506,220.314 65.5503,220.934 65.9659,221.746 66.2589,222.497 66.4563,223.139 66.6528,224 66.7366,224.488 66.8469,225.439 66.8746,225.81 66.9091,226.83 66.9053,227.226 66.7324,230.468 66.7006,230.814 66.6677,231.066 67.2218,229.44 67.3132,229.195 69.9166,222.785 70.2095,222.192 72.8741,217.658 74.344,216.132 76.3465,214.85 75.9575,214.885 75.6831,214.901 74.5439,214.933 74.038,214.919 71.8079,214.734 71.0326,214.601 68.961,214.059 68.179,213.776 66.3085,212.897 65.5503,212.447 64.4717,211.655 " fill="none" stroke-width="0.5" stroke="rgb(0,0,0)" />
	<polygon points="364.754,229.34 364.781,229.609 365.299,229.328 365.162,229.286 364.703,229.091 " fill="none" stroke-width="0.5" stroke="rgb(0,0,0)" />
	<polygon points="338.028,211.046 337.295,211.537 335.481,212.512 334.658,212.855 334.471,212.913 334.722,213.12 335.333,213.73 336.19,214.765 336.679,215.487 337.327,216.674 337.676,217.495 338.085,218.805 338.169,219.212 338.763,218.722 339.486,218.233 341.535,217.119 342.356,216.772 342.717,216.659 341.958,216.032 341.347,215.421 340.491,214.385 340.003,213.662 339.357,212.475 339.009,211.654 338.658,210.529 " fill="none" stroke-width="0.5" stroke="rgb(0,0,0)" />
	<polygon points="356.6,216.887 355.879,217.375 355.806,217.415 357.006,218.067 356.981,217.819 356.981,216.908 357.018,216.542 " fill="none" stroke-width="0.5" stroke="rgb(0,0,0)" />
	<polygon points="320.8,211.799 320.824,211.783 321.158,211.601 321.033,211.533 320.841,211.404 " fill="none" stroke-width="0.5" stroke="rgb(0,0,0)" />
	<polygon points="360.991,204.824 361.175,205.721 361.318,207.123 361.318,207.8 362.226,207.05 362.95,206.561 363.568,206.225 363.281,206.103 362.041,205.422 361.326,204.935 360.921,204.599 " fill="none" stroke-width="0.5" stroke="rgb(0,0,0)" />
	<polygon points="113.403,199.872 113.201,200.554 112.24,203.063 112.201,203.141 112.381,202.982 114.41,201.413 114.981,201.036 116.947,199.942 117.158,199.84 117.099,199.851 114.457,198.483 113.92,197.442 " fill="none" stroke-width="0.5" stroke="rgb(0,0,0)" />
	<polygon points="124.087,195.754 123.401,195.857 122.887,196 122.552,196.148 122.37,196.269 122.282,196.356 122.217,196.453 121.975,197.052 120.61,198.62 121.219,198.468 121.495,198.408 122.637,198.198 122.877,198.16 124.061,198.007 124.267,197.986 125.489,197.884 125.662,197.873 126.922,197.816 127.065,197.812 128.36,197.794 128.539,197.796 130.682,197.851 130.881,197.86 132.704,197.987 131.846,197.521 129.357,196.517 127.027,195.922 124.814,195.72 " fill="none" stroke-width="0.5" stroke="rgb(0,0,0)" />
	<polygon points="355.606,194.967 354.789,195.314 352.694,195.971 351.796,196.156 351.442,196.193 351.666,196.215 352.562,196.399 353.871,196.808 354.691,197.155 355.878,197.802 356.599,198.289 356.908,198.545 356.795,198.184 356.61,197.285 356.459,195.813 356.459,194.884 356.501,194.478 " fill="none" stroke-width="0.5" stroke="rgb(0,0,0)" />
	<polygon points="313.497,196.004 312.184,196.413 311.934,196.464 312.492,196.703 314.062,197.566 314.211,196.061 314.29,195.669 " fill="none" stroke-width="0.5" stroke="rgb(0,0,0)" />
	<polygon points="344.142,196.06 344.285,197.492 344.907,197.154 345.727,196.807 347.04,196.398 347.611,196.281 346.39,196.156 345.491,195.971 344.032,195.513 " fill="none" stroke-width="0.5" stroke="rgb(0,0,0)" />
	<polygon points="39.3099,187.759 40.8659,188.724 42.591,189.496 44.4674,190.082 46.464,190.488 48.5403,190.722 50.7013,190.798 51.3451,190.792 52.0576,190.77 52.7743,190.733 53.4866,190.683 54.1859,190.618 54.8633,190.54 55.5096,190.45 56.1823,190.338 59.1153,190.835 60.6048,192.477 60.9274,191.82 62.4194,189.445 62.9043,188.806 62.9682,188.736 61.7544,189.112 61.5005,189.183 59.7264,189.622 59.4446,189.683 57.7549,189.989 57.4467,190.034 55.8354,190.214 55.5045,190.238 53.9656,190.297 53.5573,190.294 51.0972,190.167 50.6698,190.124 48.3875,189.788 48.0565,189.727 45.9338,189.252 45.7217,189.199 43.7403,188.654 43.6666,188.633 41.853,188.102 40.2887,187.678 39.0347,187.425 38.9038,187.415 " fill="none" stroke-width="0.5" stroke="rgb(0,0,0)" />
	<polygon points="108.966,157.317 108.619,158.137 107.973,159.325 107.486,160.046 106.63,161.082 106.021,161.692 104.986,162.548 104.265,163.036 103.079,163.683 102.258,164.031 100.95,164.44 100.053,164.625 98.6515,164.767 97.731,164.767 96.324,164.625 95.4293,164.442 94.1165,164.033 93.2969,163.686 92.1072,163.039 91.3859,162.552 90.348,161.696 89.7371,161.086 89.737,161.086 89.3521,162.409 89.219,162.8 87.9677,165.99 87.8027,166.361 87.0326,167.903 89.2284,166.483 91.8945,166.634 95.2373,167.872 95.7413,168.094 99.1168,169.832 99.59,170.114 102.851,172.328 103.318,172.692 106.316,175.359 106.782,175.838 109.37,178.931 109.815,179.564 111.846,183.059 112.217,183.87 112.864,185.756 112.872,185.677 113.288,183.001 113.44,182.345 114.16,180.04 114.505,179.223 115.548,177.305 116.186,176.408 117.573,174.891 118.508,174.109 120.259,173.008 121.318,172.518 122.556,172.129 122.273,172.006 118.692,169.957 117.881,169.366 114.988,166.722 114.355,166.008 112.133,162.897 111.693,162.135 110.126,158.686 109.858,157.923 109.373,156.013 " fill="none" stroke-width="0.5" stroke="rgb(0,0,0)" />
	<polygon points="367.789,163.95 367.176,165.077 366.686,165.802 365.874,166.783 365.259,167.396 364.276,168.206 363.551,168.694 362.422,169.306 361.601,169.652 360.56,169.974 361.869,171.554 362.356,172.272 363.395,174.171 363.744,174.99 364.402,177.083 364.588,177.983 364.818,180.222 364.818,181.153 364.588,183.387 364.429,184.157 365.464,183.83 366.367,183.642 367.822,183.492 368.752,183.491 370.225,183.642 371.122,183.826 372.498,184.257 373.316,184.604 374.543,185.273 372.394,180.879 372.139,180.238 369.373,171.39 369.238,170.838 367.936,163.603 " fill="none" stroke-width="0.5" stroke="rgb(0,0,0)" />
	<polygon points="163.194,163.005 162.945,163.221 159.357,166.108 158.999,166.368 155.212,168.85 154.742,169.119 150.669,171.142 150.108,171.375 145.66,172.886 145.057,173.046 140.145,173.991 139.557,174.065 137.331,174.198 137.759,174.435 141.375,176.954 141.918,177.399 145.312,180.644 145.675,181.035 148.824,184.845 148.935,184.992 149.013,183.887 149.057,183.502 149.664,179.646 149.825,178.967 150.784,175.971 151.303,174.876 152.694,172.738 153.966,171.445 155.868,170.164 157.643,169.452 160.138,169.026 161.779,169.045 163.507,169.383 164.629,169.76 166.59,170.717 167.241,171.105 168.831,172.243 166.942,168.625 166.722,168.136 164.919,163.389 164.79,162.996 164.462,161.824 " fill="none" stroke-width="0.5" stroke="rgb(0,0,0)" />
	<polygon points="333.607,184.172 333.604,184.174 333.781,184.228 333.742,184.037 " fill="none" stroke-width="0.5" stroke="rgb(0,0,0)" />
	<polygon points="80.0317,178.326 79.574,178.81 77.0618,181.106 77.333,181.108 79.1491,182.554 79.5458,181.144 79.6721,180.761 80.6883,178.084 80.8314,177.748 81.2901,176.782 " fill="none" stroke-width="0.5" stroke="rgb(0,0,0)" />
	<polygon points="343.051,161.898 342.298,162.525 338.191,165.248 337.42,165.658 333.184,167.416 333.6,167.759 334.213,168.372 335.025,169.354 335.515,170.078 336.128,171.205 336.295,171.6 336.325,171.555 337.698,169.897 338.305,169.29 339.965,167.919 340.682,167.433 342.581,166.396 343.4,166.048 345.492,165.391 346.391,165.206 348.13,165.028 347.543,163.948 347.195,163.126 346.809,161.882 346.626,160.988 346.492,159.652 346.491,158.74 346.535,158.301 " fill="none" stroke-width="0.5" stroke="rgb(0,0,0)" />
	<polygon points="201.31,161 201.408,162.208 201.571,163.236 201.578,163.263 201.588,163.256 201.867,163 202.641,162.665 202.28,162.319 201.309,160.96 " fill="none" stroke-width="0.5" stroke="rgb(0,0,0)" />
	<polygon points="84.7271,148.452 85.1491,148.946 85.599,149.343 86.2086,149.785 86.926,150.282 87.0252,150.357 87.3945,149.177 87.5001,148.928 87.2234,148.9 86.3255,148.716 85.0166,148.306 84.4987,148.086 " fill="none" stroke-width="0.5" stroke="rgb(0,0,0)" />
	<polygon points="123.75,106.336 122.281,111.646 120.691,118.006 120.67,118.084 118.944,124.5 118.855,124.792 116.939,130.388 116.622,131.104 114.448,135.063 114.256,135.262 115.324,134.689 116.582,134.353 119.712,134.641 121.004,135.256 123.164,137.425 123.929,139.047 124.267,140.058 124.745,142.352 124.78,142.54 125.187,145.008 125.672,147.033 126.17,148.104 126.375,148.294 127.031,148.445 127.101,148.425 127.518,148.232 128.046,147.879 128.652,147.328 129.303,146.532 129.966,145.438 130.623,143.937 130.963,142.903 131.298,141.739 131.586,140.58 131.823,139.438 132.009,138.323 132.142,137.245 132.221,136.218 132.247,135.257 132.205,133.883 132.086,132.81 131.939,132.16 131.833,132.17 131.218,132.313 130.474,132.574 129.689,132.929 128.936,133.337 128.287,133.748 127.821,134.093 127.406,134.46 124.656,135.597 121.793,134.792 120.038,132.389 120.187,129.307 122.031,124.877 122.343,124.261 124.686,120.408 125.108,119.823 127.892,116.552 128.415,116.03 131.582,113.345 131.726,113.242 130.749,112.757 129.232,111.609 128.637,111.07 127.135,109.448 126.935,109.216 125.44,107.365 124.042,105.653 124.026,105.637 " fill="none" stroke-width="0.5" stroke="rgb(0,0,0)" />
	<polygon points="94.8815,108.86 92.87,110.816 92.7939,110.889 90.6173,112.909 90.3175,113.165 88.0543,114.927 87.3993,115.353 85.0612,116.6 83.7994,117.049 81.3981,117.522 80.035,117.582 78.8383,117.454 77.7147,117.187 77.6516,117.163 78.0129,119.289 78.0698,119.793 78.2586,123.108 78.2648,123.467 78.2331,124.894 78.2244,125.091 78.1333,126.479 78.1172,126.666 77.973,128.013 77.9505,128.19 77.7594,129.491 77.7316,129.658 77.4996,130.91 77.4673,131.069 77.2008,132.267 77.1648,132.417 76.8699,133.56 76.8306,133.702 76.5135,134.784 74.7895,137.208 71.8822,138.046 67.3068,137.779 66.7645,137.715 62.2078,136.893 61.6165,136.745 57.2608,135.338 56.8435,135.165 57.4428,137.875 56.5613,139.372 57.3143,139.164 57.6579,139.084 60.1531,138.6 60.4641,138.551 62.8668,138.256 63.1315,138.232 65.4387,138.084 65.646,138.076 67.855,138.036 67.9633,138.035 68.4868,138.038 68.538,138.039 69.0575,138.048 69.1086,138.049 69.62,138.063 69.6726,138.065 70.1717,138.085 70.2273,138.087 70.7102,138.112 70.7701,138.116 71.2326,138.146 71.2992,138.151 71.7374,138.186 71.8138,138.193 72.2235,138.232 72.2571,138.236 73.3907,138.354 74.4514,138.457 74.4748,138.459 75.4668,138.561 75.563,138.572 76.4573,138.683 76.6561,138.712 77.4403,138.844 77.6693,138.892 77.5768,137.981 77.5768,137.062 77.7193,135.658 77.9023,134.764 78.3108,133.454 78.6573,132.634 79.3031,131.447 79.7897,130.726 80.6443,129.689 81.2536,129.079 82.2882,128.222 83.0093,127.733 84.1954,127.086 85.0165,126.737 86.3254,126.327 87.2234,126.143 88.6265,126 89.5485,126 90.9535,126.143 91.8503,126.327 93.1612,126.737 93.9816,127.084 95.1695,127.732 95.8904,128.22 96.9267,129.076 97.5365,129.687 98.3924,130.723 98.8797,131.444 99.5266,132.632 99.8739,133.451 100.283,134.762 100.467,135.658 100.609,137.061 100.609,137.982 100.467,139.387 100.283,140.283 99.8741,141.593 99.7661,141.848 100.053,141.878 100.95,142.061 102.258,142.471 103.078,142.818 104.264,143.465 104.984,143.952 106.019,144.807 106.629,145.417 107.484,146.452 107.971,147.172 108.529,148.195 108.54,147.916 108.561,147.622 108.73,146.013 108.771,145.713 109.075,143.954 109.154,143.586 109.612,141.821 109.774,141.319 110.404,139.693 110.766,138.961 111.587,137.62 111.785,137.384 110.303,138.274 107.392,138.888 105.839,138.399 103.203,137.01 101.231,134.975 99.4504,131.313 99.1034,130.323 97.9368,125.147 97.8657,124.75 97.072,118.815 97.0599,118.717 96.4068,112.866 95.6996,108.128 " fill="none" stroke-width="0.5" stroke="rgb(0,0,0)" />
	<polygon points="314.635,121.997 312.885,122.469 311.338,123.19 309.998,124.113 308.882,125.184 308.014,126.333 307.416,127.473 306.951,128.939 305.176,131.326 304.023,131.639 305.295,132.641 306.592,133.502 307.82,134.159 309.006,134.639 310.191,134.97 311.424,135.167 312.792,135.236 313.239,135.222 313.813,135.178 314.452,135.107 315.134,135.02 315.824,134.926 315.861,134.922 316.516,134.839 316.637,134.825 317.226,134.766 317.477,134.748 317.984,134.726 318.442,134.729 319.007,134.761 319.586,134.832 320.094,134.927 320.76,135.105 321.207,135.262 321.954,135.602 322.333,135.818 323.116,136.382 323.421,136.655 324.138,137.471 324.363,137.8 324.884,138.812 325.024,139.194 325.272,140.255 325.32,140.688 325.324,141.651 325.245,142.425 325.117,143.124 324.89,143.983 324.727,144.483 324.682,144.596 326.806,144.426 329.807,143.683 332.622,142.433 334.775,140.923 332.129,141.721 329.359,140.636 328.283,139.29 327.779,138.329 327.256,137.506 326.622,136.672 325.876,135.845 325.014,135.042 324.033,134.278 322.926,133.566 321.506,132.827 321.087,132.612 320.503,132.252 320.141,131.99 319.601,131.53 319.3,131.231 318.837,130.692 318.596,130.362 318.23,129.772 318.046,129.417 317.783,128.806 317.654,128.432 317.49,127.824 317.414,127.438 317.338,126.848 317.313,126.455 317.328,125.697 317.406,124.954 317.564,124.15 317.788,123.38 318.021,122.755 318.356,122.027 318.071,121.967 317.202,121.846 316.683,121.818 " fill="none" stroke-width="0.5" stroke="rgb(0,0,0)" />
	<polygon points="41.805,115.132 41.7854,115.369 41.7713,115.619 41.7619,115.892 41.7567,116.193 41.7546,116.529 41.7544,116.739 41.976,119.844 42.584,122.497 43.5605,124.867 44.8949,126.978 46.5986,128.849 48.7,130.487 50.459,131.452 48.473,129.895 47.7168,129.143 45.0576,125.794 44.4351,124.749 42.7059,120.691 42.3789,119.487 41.8116,115.075 " fill="none" stroke-width="0.5" stroke="rgb(0,0,0)" />
	<polygon points="144.134,98.5333 143.578,101.553 143.001,104.781 142.921,105.142 142.174,107.968 141.957,108.512 144.749,107.878 145.425,107.776 149.555,107.474 150.399,107.491 155.275,108.043 156.339,108.296 160.09,109.68 155.572,105.888 155.541,105.861 151.088,102.056 147.132,98.8749 144.523,97.1546 " fill="none" stroke-width="0.5" stroke="rgb(0,0,0)" />
	<polygon points="69.5226,91.2043 64.4305,93.8844 58.7131,97.0386 58.6777,97.0579 57.4808,97.7044 57.5346,97.6991 58.6093,97.7194 62.6952,98.2839 63.9778,98.6593 67.3602,100.219 68.4276,100.906 71.1556,103.261 71.5346,103.675 71.6947,101.772 71.7083,101.635 71.9595,99.4459 71.9678,99.3781 72.2558,97.1627 72.2567,97.1562 72.541,94.9938 72.7811,92.9729 72.9423,91.1684 72.9986,89.6564 " fill="none" stroke-width="0.5" stroke="rgb(0,0,0)" />
	<polygon points="397.454,70.4094 394.907,78.591 394.524,79.4773 390.547,86.5134 389.991,87.2934 387.575,90.018 389.029,88.6035 390.436,87.748 390.732,87.5829 392.625,86.6168 394.561,85.5105 396.238,84.2449 397.506,82.8 398.341,81.0548 398.719,78.4045 398.679,77.328 398.545,75.9983 398.348,74.6747 398.111,73.3869 397.862,72.1556 397.862,72.1538 397.637,71.0418 397.613,70.9124 397.493,70.2167 " fill="none" stroke-width="0.5" stroke="rgb(0,0,0)" />
	<polygon points="106.394,57.0088 105.159,57.601 103.528,58.7235 101.704,60.2091 99.8344,61.8097 99.7211,61.9035 97.9398,63.3314 97.5034,63.6409 95.8855,64.6509 94.6599,65.1845 93.3404,65.5401 93.9194,66.3982 94.1985,66.9463 94.517,67.7547 94.7064,68.414 94.839,69.0371 94.9467,69.8037 94.9874,70.2584 95.0216,71.1284 95.0156,71.599 94.8884,73.575 94.8464,73.9649 94.5109,76.1767 94.474,76.3866 93.9998,78.7583 93.9805,78.8496 93.8754,79.3245 94.6255,78.2072 94.8227,77.9358 96.9081,75.2765 97.4441,74.7028 99.5333,72.8218 101.087,71.9043 103.145,71.1908 107.359,71.8447 108.796,72.9183 110.456,75.3432 111.244,78.1737 111.393,78.9885 111.751,82.9902 111.767,83.2497 111.773,83.4462 112.828,79.9882 113.11,79.2813 114.397,76.7089 114.651,76.4282 114.404,76.4619 112.969,75.9101 111.544,75.0618 109.523,72.4921 108.834,70.2557 108.648,69.2947 108.383,66.1329 108.372,65.9425 108.226,62.441 107.927,59.3221 107.4,57.3729 107.143,57.0296 106.819,56.9316 " fill="none" stroke-width="0.5" stroke="rgb(0,0,0)" />
	<polygon points="171.533,77.2632 173.401,81.6678 173.448,81.376 173.495,81.1865 173.724,80.4969 173.799,80.3194 174.155,79.6423 174.257,79.483 174.775,78.8183 174.901,78.6836 175.618,78.0646 175.767,77.9606 176.701,77.4608 176.872,77.3938 177.971,77.1134 178.16,77.0897 179.841,77.2261 178.247,76.6901 173.641,75.2261 170.525,74.4092 " fill="none" stroke-width="0.5" stroke="rgb(0,0,0)" />
	<polygon points="125.734,57.8591 124.902,60.0754 124.125,63.302 123.388,66.8004 123.325,67.0584 122.478,70.1655 122.123,71.072 120.978,73.2697 120.666,73.5784 121.539,73.4815 123.078,74.0295 124.84,75.1709 126.222,76.6155 126.79,77.3446 128.07,79.3869 128.24,79.6824 128.562,80.2941 128.562,78.1149 128.562,78.0769 128.574,76.6948 128.577,76.5628 128.623,75.3124 128.639,75.0708 128.739,73.9684 128.795,73.5607 128.966,72.6224 129.141,71.9576 129.402,71.1996 129.903,70.1824 130.272,69.6209 131.455,68.4009 131.951,68.0521 133.731,67.3011 134.235,67.2068 133.833,66.7708 132.134,64.6157 132.012,64.4536 130.269,62.0269 128.565,59.7702 127.046,58.1099 126.08,57.4054 " fill="none" stroke-width="0.5" stroke="rgb(0,0,0)" />
	<polygon points="146.297,67.1934 145.83,67.9391 145.594,68.245 144.98,68.8979 144.695,69.1463 143.948,69.675 143.622,69.8598 142.769,70.2337 142.643,70.2741 143.101,70.5737 143.489,70.8573 146.915,73.6542 147.075,73.7908 150.149,76.5455 148.33,72.3119 148.256,72.1283 146.661,67.9173 146.541,67.5567 146.386,67.015 " fill="none" stroke-width="0.5" stroke="rgb(0,0,0)" />
	<polygon points="398.539,59.3608 398.536,60.2089 397.998,65.7801 398.053,65.654 398.192,65.4139 398.738,64.656 398.917,64.4548 399.573,63.8498 399.786,63.6896 400.513,63.2409 400.75,63.1238 401.526,62.8255 401.78,62.7537 402.597,62.6015 402.86,62.5771 404.943,62.8719 406.052,63.3073 407.302,64.0463 408.68,65.1941 408.94,65.4282 410.581,67.0232 412.406,68.7361 414.353,70.2996 416.408,71.5475 418.56,72.3574 421.089,72.6764 421.595,72.6527 422.436,72.5249 423.259,72.2843 423.944,71.9454 424.459,71.5271 424.873,70.9537 425.231,69.9801 425.359,68.7639 424.667,66.4649 422.499,64.2267 418.549,61.8897 413.55,59.8187 408.305,58.0796 403.6,56.6339 403.386,56.5624 400.023,55.344 398.632,54.5376 398.058,54.0513 " fill="none" stroke-width="0.5" stroke="rgb(0,0,0)" />
	<polygon points="93.6619,45.8654 92.0643,46.038 90.2959,46.2983 88.4232,46.6107 86.5321,46.9303 86.4629,46.9414 85.4781,47.0922 86.0158,47.5227 87.1424,49.2757 87.6454,53.1312 86.8271,55.6704 86.2052,56.9107 84.048,59.9459 83.6985,60.3789 80.6487,63.7174 80.4848,63.8877 78.7467,65.6024 80.7215,64.6922 81.0874,64.5425 83.8409,63.5531 84.65,63.3439 86.7162,63.0082 86.1885,62.0033 86.078,61.7027 85.825,60.6214 85.7859,60.2593 85.9175,58.5829 86.3233,57.0828 86.7943,55.963 87.8642,54.1454 88.1285,53.746 89.641,51.7031 89.7393,51.5752 91.4603,49.4153 93.1056,47.3114 94.1297,45.845 " fill="none" stroke-width="0.5" stroke="rgb(0,0,0)" />
	<polygon points="52.3891,60.7936 52.7392,61.1984 53.7033,63.0368 53.8282,63.5203 53.8073,64.0202 54.3176,63.4351 56.3194,60.774 52.0201,60.4803 " fill="none" stroke-width="0.5" stroke="rgb(0,0,0)" />
	<polygon points="141.92,48.092 142.02,48.9502 142.461,50.5215 143.192,52.4459 144.105,54.5607 145.014,56.6114 145.084,56.2039 145.258,55.52 145.531,54.7136 145.899,53.9001 146.295,53.2131 146.936,52.3534 147.463,51.7979 148.371,51.0596 149.037,50.6478 150.064,50.1779 150.751,49.9616 149.318,49.5974 149.234,49.5753 147.613,49.1302 146.013,48.704 144.53,48.36 143.241,48.1432 142.205,48.0734 " fill="none" stroke-width="0.5" stroke="rgb(0,0,0)" />
	<polygon points="186.193,36.9125 185.341,37.5541 185.652,38.3884 186.57,39.5988 186.605,38.4025 186.932,37.6427 188.339,35.8337 " fill="none" stroke-width="0.5" stroke="rgb(0,0,0)" />
	<polygon points="467.977,98.1039 468.776,98.3461 470.871,99.1981 471.697,99.6376 473.42,100.797 474.169,101.427 475.538,102.859 476.119,103.609 477.152,105.278 477.533,106.049 478.249,107.922 478.457,108.637 478.872,110.678 478.955,111.306 479.09,113.481 479.045,114.46 478.295,119.292 477.958,120.439 475.826,125.245 475.721,125.428 476.58,125.505 478.232,126.425 479.493,127.462 480.692,128.879 480.823,129.09 480.823,180.741 479.916,184.155 479.612,184.973 478.284,187.709 476.75,189.484 475.171,190.558 471.526,191.215 468.192,190.395 467.008,189.92 462.438,187.29 461.929,186.95 456.606,182.845 456.273,182.561 450.68,177.317 450.393,177.023 445.012,170.976 444.718,170.609 440.032,164.096 439.702,163.563 436.195,156.92 435.845,156.05 433.999,149.612 434.159,146.642 435.384,145.245 434.475,145.121 433.935,145.014 431.968,144.497 431.293,144.262 429.614,143.524 428.807,143.066 427.447,142.098 426.597,141.312 425.587,140.107 424.9,138.993 424.271,137.541 423.939,136.33 423.709,137.534 423.114,139.063 421.375,141.888 420.534,142.894 417.793,145.346 417.01,145.909 413.394,147.966 412.745,148.27 408.384,149.909 407.848,150.074 402.869,151.273 402.411,151.359 396.943,152.094 396.531,152.131 390.703,152.381 390.017,152.359 381.749,151.462 380.787,151.251 373.44,148.775 372.593,148.389 366.223,144.656 365.528,144.155 360.191,139.486 359.641,138.913 355.393,133.629 354.963,132.991 351.86,127.415 351.532,126.678 349.629,121.13 349.418,120.216 348.771,115.018 348.747,114.136 348.773,113.775 348.872,113.098 348.94,112.794 349.171,112.063 349.275,111.808 349.635,111.11 349.77,110.896 350.197,110.323 350.356,110.141 350.759,109.736 350.936,109.579 351.238,109.334 351.426,109.194 351.585,109.08 351.778,108.949 352.87,108.404 354.05,108.002 355.055,107.782 356.896,107.594 357.134,107.576 359.54,107.457 362.37,107.269 365.553,106.881 369.086,106.164 372.948,104.984 377.216,103.16 377.671,102.929 377.929,102.808 378.515,102.555 378.781,102.45 379.363,102.241 379.635,102.153 380.212,101.986 380.488,101.916 381.057,101.789 381.336,101.736 381.894,101.648 382.177,101.612 382.723,101.561 383.007,101.543 383.54,101.526 384.37,101.576 386.335,101.876 387.866,102.401 389.283,103.192 390.392,104.06 391.436,105.178 391.909,105.779 392.754,107.061 392.788,107.113 393.43,108.117 393.694,108.421 393.998,108.472 394.78,108.399 396.047,108.1 397.566,107.603 399.242,106.972 400.963,106.305 401.079,106.262 402.73,105.674 403.055,105.572 404.575,105.156 405.246,105.026 406.593,104.868 408.637,105.097 410.679,105.817 412.24,106.755 414.383,108.721 414.982,109.391 417.112,112.307 417.407,112.767 419.408,116.339 419.592,116.706 421.349,120.639 421.49,120.993 422.887,124.991 423.011,125.41 423.934,129.178 424.041,129.795 424.174,131.094 424.217,130.943 424.503,130.195 424.998,129.18 425.446,128.445 426.184,127.459 426.821,126.77 427.83,125.882 428.639,125.313 429.587,124.791 428.929,124.504 428.172,124.084 427.178,123.403 426.46,122.791 425.553,121.84 424.986,121.11 424.195,119.843 423.829,119.122 423.325,117.86 423.155,117.35 422.783,115.964 422.725,115.719 422.419,114.263 422.417,114.252 422.135,112.891 421.853,111.804 421.577,111.071 421.367,110.715 420.8,110.141 419.516,107.458 420.164,104.555 422.468,102.672 425.165,102.536 426.15,102.788 427.023,102.955 427.929,103.08 428.857,103.167 429.798,103.221 430.742,103.25 431.678,103.261 432.419,103.263 434.873,103.068 437.269,102.558 439.785,101.784 442.39,100.838 445.002,99.8532 445.128,99.808 447.651,98.9406 448,98.8362 450.392,98.2227 451.053,98.1043 453.297,97.8716 454.148,97.8633 455.456,97.9733 456.33,98.1339 457.413,98.4447 458.36,98.8365 459.233,99.3192 460.115,99.9562 460.602,100.405 461.087,99.1301 463.638,97.5984 465.492,97.5935 " fill="none" stroke-width="0.5" stroke="rgb(0,0,0)" />
</svg>
