<?xml version="1.0" standalone="no" ?>
<!DOCTYPE svg PUBLIC "-//W3C//DTD SVG 1.1//EN" "http://www.w3.org/Graphics/SVG/1.1/DTD/svg11.dtd">
<svg width="500px" height="500px" xmlns="http://www.w3.org/2000/svg" version="1.1" >
	<polygon points="471.323,92.2102 469.611,93.4484 470.641,93.7607 471.323,94.0383 471.323,281.02 470.513,295.451 468.09,310.753 464,326.893 458.223,343.563 450.742,360.465 441.549,377.309 430.637,393.811 417.999,409.694 403.631,424.687 387.522,438.525 369.66,450.948 350.023,461.701 328.581,470.527 305.293,477.169 280.112,481.359 252.985,482.82 226.553,481.441 201.91,477.476 179.033,471.172 157.893,462.768 138.466,452.499 120.734,440.593 104.689,427.279 90.3281,412.789 77.6528,397.357 66.6682,381.226 57.3799,364.642 49.7923,347.855 43.9072,331.124 39.7224,314.711 37.2286,298.885 36.3905,283.645 36.3905,29.003 38.4551,28.9872 49.9468,28.899 61.4385,28.8109 61.4385,28.8109 72.9301,28.7227 84.4218,28.6345 95.9135,28.5463 95.9135,28.5463 107.405,28.4581 118.897,28.37 130.389,28.2818 141.88,28.1936 153.372,28.1054 164.864,28.0173 176.355,27.9291 187.847,27.8409 201.238,27.7382 201.232,31.0449 201.232,31.0449 201.206,43.9437 201.181,56.8425 201.156,69.7413 201.156,69.7413 201.13,82.6401 201.079,108.438 201.079,108.438 201.054,121.336 201.003,147.134 201.003,147.134 200.978,160.033 200.952,172.932 200.952,172.932 200.927,185.83 200.901,198.729 200.876,211.628 200.876,211.628 200.85,224.527 200.851,224.619 200.938,235.913 200.939,235.985 201.103,246.802 201.106,246.931 201.403,257.237 201.411,257.435 201.896,267.196 201.914,267.476 202.642,276.66 202.679,277.039 203.706,285.612 203.779,286.112 205.16,294.04 205.296,294.687 207.085,301.937 207.327,302.757 209.581,309.296 209.994,310.302 212.768,316.096 213.435,317.269 216.785,322.285 217.786,323.541 221.765,327.745 223.113,328.924 227.778,332.284 229.367,333.209 234.774,335.69 236.406,336.266 242.609,337.835 244.102,338.089 251.156,338.713 251.893,330.391 252.005,330.624 252.564,338.727 259.825,338.227 261.325,338.002 267.672,336.524 269.344,335.967 274.84,333.549 276.492,332.615 281.198,329.293 282.608,328.074 286.586,323.885 287.626,322.576 290.939,317.557 291.621,316.338 294.33,310.525 294.741,309.489 296.909,302.919 297.143,302.086 298.831,294.797 298.958,294.149 300.229,286.176 300.294,285.684 301.21,277.064 301.242,276.7 301.865,267.47 301.879,267.21 302.27,257.407 302.275,257.232 302.498,246.892 302.499,246.789 302.615,235.949 302.615,235.907 302.685,224.604 302.685,224.527 302.659,211.628 302.607,185.83 302.582,172.931 302.582,172.931 302.556,160.033 302.504,134.235 302.504,134.235 302.478,121.336 302.401,82.6398 302.401,82.6398 302.375,69.741 302.297,31.0446 302.297,31.0446 302.29,27.6038 304.586,27.5891 316.339,27.5135 328.092,27.438 339.845,27.3624 351.599,27.2868 363.352,27.2113 375.105,27.1357 386.858,27.0602 410.365,26.909 422.118,26.8335 433.871,26.7579 445.625,26.6824 457.378,26.6068 469.131,26.5312 471.323,26.5171 " fill="none" stroke-width="0.5" stroke="rgb(0,0,0)" />
	<polygon points="194.439,444.399 194.704,445.429 196.136,445.659 197.512,445.802 198.57,445.843 199.982,445.766 201.245,445.544 202.28,445.205 202.829,444.914 201.576,444.912 195.357,444.423 194.392,444.263 " fill="none" stroke-width="0.5" stroke="rgb(0,0,0)" />
	<polygon points="317.56,422.049 317.902,423.179 318.233,424.632 318.309,424.998 318.441,425.706 318.631,425.843 319.227,426.31 320.094,427.045 320.913,427.86 321.378,427.444 322.087,426.852 322.768,426.334 323.468,425.849 324.445,425.256 324.759,425.09 324.559,424.381 324.204,421.809 324.204,419.859 " fill="none" stroke-width="0.5" stroke="rgb(0,0,0)" />
	<polygon points="168.104,413.378 168.11,414.763 167.915,417.612 168.609,417.563 168.791,416.614 168.887,416.295 169.775,414.25 169.932,413.98 169.95,413.956 168.667,413.283 168.069,412.935 " fill="none" stroke-width="0.5" stroke="rgb(0,0,0)" />
	<polygon points="82.5063,369.411 82.6474,370.343 83.331,369.827 82.9915,369.477 82.9149,369.382 " fill="none" stroke-width="0.5" stroke="rgb(0,0,0)" />
	<polygon points="60.7068,341.314 60.9249,341.665 60.9723,341.521 61.1001,341.238 60.8536,341.166 60.6811,341.103 " fill="none" stroke-width="0.5" stroke="rgb(0,0,0)" />
	<polygon points="158.352,339.665 157.076,340.65 157.894,341.232 158.186,341.474 158.329,340.069 158.391,339.628 " fill="none" stroke-width="0.5" stroke="rgb(0,0,0)" />
	<polygon points="76.3401,315.94 76.1465,317.733 76.5032,317.346 77.8724,316.122 78.7649,315.468 78.6277,315.378 77.1987,314.238 76.8683,313.915 " fill="none" stroke-width="0.5" stroke="rgb(0,0,0)" />
	<polygon points="161.057,300.752 161.166,300.97 161.204,300.732 " fill="none" stroke-width="0.5" stroke="rgb(0,0,0)" />
	<polygon points="162.477,253.638 162.842,255.448 162.923,255.906 162.993,256.37 164.284,253.925 162.535,253.532 162.431,253.448 " fill="none" stroke-width="0.5" stroke="rgb(0,0,0)" />
	<polygon points="91.3787,217.393 91.6306,218.161 91.8874,219.173 92.5646,218.954 93.2935,218.832 96.1905,218.793 96.8343,218.884 98.2542,219.292 98.3159,218.88 98.5888,217.68 98.1731,217.726 96.0796,217.724 92.8904,217.368 91.2053,216.979 " fill="none" stroke-width="0.5" stroke="rgb(0,0,0)" />
	<polygon points="433.172,216.319 432.311,216.484 431.769,216.563 432.801,217.42 433.307,217.946 434.681,215.956 " fill="none" stroke-width="0.5" stroke="rgb(0,0,0)" />
	<polygon points="108.141,166.363 106.635,167.382 105.449,168.029 105.376,168.06 105.632,168.234 106.607,168.993 109.605,171.659 110.577,172.661 111.791,174.11 112.532,173.07 113.471,172.042 111.649,170.376 110.327,168.885 108.382,166.163 " fill="none" stroke-width="0.5" stroke="rgb(0,0,0)" />
	<polygon points="423.834,146.583 421.11,149.02 425.653,150.363 427.407,151.078 429.604,152.241 429.241,150.977 429.13,148.718 427.623,148.056 425.938,147.099 424.578,146.132 424.371,145.941 " fill="none" stroke-width="0.5" stroke="rgb(0,0,0)" />
	<polygon points="312.209,128.992 312.002,129.385 311.743,130.205 311.941,130.236 312.843,130.282 312.972,130.278 313.053,130.272 312.975,130.048 312.633,128.778 312.579,128.502 " fill="none" stroke-width="0.5" stroke="rgb(0,0,0)" />
	<polygon points="177.537,122.06 177.606,122.237 178.018,121.95 " fill="none" stroke-width="0.5" stroke="rgb(0,0,0)" />
	<polygon points="91.0961,118.833 89.7287,119.72 87.3905,120.967 86.6357,121.236 86.7216,121.219 88.1247,121.076 90.0496,121.075 91.4547,121.218 92.4259,121.418 92.1657,119.471 92.1404,119.266 92.0124,118.119 " fill="none" stroke-width="0.5" stroke="rgb(0,0,0)" />
	<polygon points="186.214,115.362 185.877,116.007 184.692,117.769 184.241,118.3 183.314,119.142 184.277,118.756 187.499,117.771 188.687,117.53 186.555,115.012 186.424,114.849 " fill="none" stroke-width="0.5" stroke="rgb(0,0,0)" />
	<polygon points="103.054,65.5699 102.817,65.7658 101.938,66.4708 103.436,66.3147 103.426,66.1477 103.39,65.282 " fill="none" stroke-width="0.5" stroke="rgb(0,0,0)" />
	<polygon points="399.165,38.2353 399.581,39.2334 399.92,39.0904 401.562,38.5233 398.909,37.7689 " fill="none" stroke-width="0.5" stroke="rgb(0,0,0)" />
</svg>
