<?xml version="1.0" standalone="no" ?>
<!DOCTYPE svg PUBLIC "-//W3C//DTD SVG 1.1//EN" "http://www.w3.org/Graphics/SVG/1.1/DTD/svg11.dtd">
<svg width="500px" height="500px" xmlns="http://www.w3.org/2000/svg" version="1.1" >
	<polygon points="465.223,280.848 464.44,294.801 462.108,309.524 458.151,325.142 452.542,341.326 445.266,357.765 436.318,374.16 425.696,390.223 413.401,405.676 399.431,420.253 383.783,433.695 366.445,445.754 347.39,456.188 326.577,464.756 303.952,471.209 279.446,475.286 252.979,476.711 227.198,475.367 203.208,471.506 180.975,465.38 160.452,457.222 141.6,447.256 124.392,435.701 108.813,422.774 94.8611,408.697 82.5405,393.697 71.8602,378.013 62.8303,361.89 55.4593,345.583 49.7513,329.355 45.7037,313.48 43.3025,298.241 42.4905,283.477 42.4905,35.0564 49.9936,34.9989 61.4853,34.9107 72.9769,34.8225 84.4686,34.7343 95.9603,34.6461 107.452,34.558 118.944,34.4698 130.435,34.3816 153.419,34.2053 164.91,34.1171 176.402,34.0289 187.894,33.9407 195.126,33.8852 195.107,43.9317 195.081,56.8305 195.056,69.7293 195.056,69.7293 195.03,82.6281 194.979,108.426 194.979,108.426 194.954,121.324 194.903,147.122 194.903,147.122 194.878,160.021 194.852,172.92 194.852,172.92 194.827,185.818 194.801,198.717 194.776,211.616 194.776,211.616 194.75,224.515 194.751,224.666 194.838,235.961 194.839,236.077 195.004,246.894 195.008,247.107 195.305,257.413 195.318,257.737 195.803,267.499 195.833,267.958 196.561,277.142 196.623,277.764 197.649,286.337 197.77,287.158 199.15,295.086 199.373,296.149 201.163,303.399 201.56,304.745 203.814,311.284 204.492,312.936 207.266,318.73 208.362,320.656 211.711,325.673 213.355,327.734 217.335,331.939 219.548,333.874 224.214,337.234 226.823,338.753 232.229,341.234 234.91,342.18 241.113,343.749 243.564,344.165 250.618,344.789 251.947,329.779 252.984,344.813 260.244,344.312 262.709,343.943 269.056,342.465 271.801,341.55 277.297,339.132 280.01,337.598 284.716,334.276 287.03,332.275 291.009,328.086 292.717,325.937 296.03,320.918 297.15,318.915 299.859,313.102 300.534,311.4 302.702,304.831 303.085,303.463 304.774,296.173 304.982,295.109 306.253,287.136 306.36,286.328 307.276,277.709 307.328,277.11 307.951,267.881 307.974,267.453 308.365,257.65 308.374,257.363 308.596,247.023 308.599,246.854 308.714,236.014 308.715,235.945 308.785,224.642 308.785,224.514 308.759,211.616 308.707,185.818 308.682,172.919 308.682,172.919 308.656,160.02 308.604,134.223 308.604,134.223 308.578,121.324 308.501,82.6276 308.501,82.6275 308.475,69.7288 308.402,33.6647 316.378,33.6134 328.131,33.5378 339.885,33.4623 351.638,33.3867 363.391,33.3112 375.144,33.2356 410.404,33.0089 422.157,32.9334 433.911,32.8578 445.664,32.7822 457.417,32.7067 465.223,32.6565 " fill="none" stroke-width="0.5" stroke="rgb(0,0,0)" />
</svg>
