<?xml version="1.0" standalone="no" ?>
<!DOCTYPE svg PUBLIC "-//W3C//DTD SVG 1.1//EN" "http://www.w3.org/Graphics/SVG/1.1/DTD/svg11.dtd">
<svg width="500px" height="500px" xmlns="http://www.w3.org/2000/svg" version="1.1" >
	<polygon points="472.423,90.0191 472.245,90.1866 467.006,93.9741 468.752,94.3326 470.226,94.7796 472.322,95.6317 472.423,95.6858 472.423,281.05 471.608,295.568 469.168,310.974 465.055,327.208 459.247,343.966 451.73,360.952 442.492,377.877 431.528,394.458 418.828,410.419 404.388,425.487 388.196,439.396 370.24,451.885 350.498,462.695 328.942,471.568 305.535,478.244 280.233,482.454 252.985,483.922 226.437,482.537 201.675,478.552 178.682,472.216 157.431,463.769 137.901,453.445 120.075,441.475 103.946,428.091 89.5106,413.526 76.7714,398.017 65.732,381.806 56.397,365.138 48.7703,348.265 42.8533,331.443 38.9863,316.276 40.0045,314.197 38.5231,314.166 36.1334,299.001 35.2905,283.675 35.2905,35.4366 35.4075,35.3611 35.2905,35.3315 35.2905,27.9115 38.4467,27.8872 49.9384,27.7991 61.43,27.7109 61.43,27.7109 72.9217,27.6227 84.4134,27.5345 95.905,27.4464 95.9051,27.4464 107.397,27.3582 118.888,27.27 130.38,27.1818 141.872,27.0937 153.363,27.0055 164.855,26.9173 176.347,26.8291 187.838,26.741 202.341,26.6297 202.332,31.0471 202.332,31.0471 202.306,43.9459 202.281,56.8447 202.256,69.7435 202.256,69.7435 202.23,82.6423 202.179,108.44 202.179,108.44 202.154,121.339 202.103,147.136 202.103,147.136 202.078,160.035 202.052,172.934 202.052,172.934 202.027,185.833 202.001,198.731 201.976,211.63 201.95,224.529 201.951,224.61 202.038,235.905 202.039,235.968 202.203,246.785 202.205,246.899 202.502,257.205 202.509,257.38 202.994,267.142 203.01,267.389 203.738,276.573 203.771,276.908 204.798,285.481 204.863,285.923 206.243,293.851 206.364,294.423 208.153,301.674 208.367,302.398 210.621,308.937 210.986,309.827 213.76,315.621 214.35,316.659 217.699,321.675 218.585,322.785 222.564,326.989 223.756,328.032 228.421,331.391 229.826,332.209 235.233,334.69 236.676,335.199 242.879,336.769 244.199,336.993 251.253,337.617 251.704,332.529 251.906,332.948 252.223,333.787 252.488,337.63 259.749,337.129 261.076,336.93 267.423,335.453 268.901,334.96 274.397,332.542 275.858,331.716 280.563,328.394 281.81,327.316 285.788,323.128 286.708,321.97 290.021,316.951 290.624,315.873 293.333,310.06 293.697,309.144 295.865,302.575 296.071,301.838 297.76,294.548 297.871,293.975 299.143,286.002 299.201,285.567 300.116,276.948 300.144,276.626 300.767,267.396 300.779,267.166 301.171,257.363 301.176,257.208 301.398,246.868 301.399,246.777 301.515,235.938 301.515,235.9 301.585,224.598 301.585,224.529 301.533,198.731 301.482,172.934 301.482,172.934 301.456,160.035 301.404,134.237 301.404,134.237 301.378,121.338 301.301,82.642 301.301,82.642 301.275,69.7432 301.197,31.0468 301.197,31.0468 301.188,26.5109 304.579,26.4891 316.332,26.4136 328.085,26.338 339.838,26.2624 351.592,26.1869 363.345,26.1113 375.098,26.0357 386.851,25.9602 410.358,25.8091 422.111,25.7335 433.864,25.6579 445.618,25.5824 457.371,25.5068 469.124,25.4313 472.423,25.4101 " fill="none" stroke-width="0.5" stroke="rgb(0,0,0)" />
	<polygon points="305.888,468.707 305.736,468.868 306.508,469.009 307.177,469.201 309.119,470.037 309.43,470.221 309.309,469.991 308.69,468.475 307.938,465.952 307.898,465.748 " fill="none" stroke-width="0.5" stroke="rgb(0,0,0)" />
	<polygon points="192.967,443.476 193.374,444.674 193.808,446.358 194.496,446.51 195.992,446.75 197.434,446.9 198.578,446.945 200.108,446.861 201.513,446.613 202.712,446.221 203.64,445.729 204.329,445.162 204.895,444.429 205.252,443.645 202.946,443.818 201.662,443.815 195.443,443.326 194.022,443.091 192.653,442.741 " fill="none" stroke-width="0.5" stroke="rgb(0,0,0)" />
	<polygon points="316.795,421.142 316.105,421.29 316.489,422.298 316.83,423.423 317.16,424.876 317.227,425.2 317.44,426.341 317.988,426.736 318.515,427.148 319.382,427.884 320.321,428.818 320.856,429.441 320.944,429.352 321.659,428.668 322.083,428.288 322.792,427.696 323.394,427.238 324.094,426.753 324.958,426.229 325.648,425.865 326.141,425.654 325.968,425.325 325.618,424.083 325.304,421.809 325.304,418.338 " fill="none" stroke-width="0.5" stroke="rgb(0,0,0)" />
	<polygon points="167.007,413.463 167.013,414.688 166.735,418.754 169.493,419.086 169.489,418.979 169.521,418.611 169.844,416.931 169.94,416.612 170.725,414.803 170.883,414.533 171.607,413.583 169.177,412.309 168.52,411.926 166.801,410.816 " fill="none" stroke-width="0.5" stroke="rgb(0,0,0)" />
	<polygon points="270.94,413.753 271.364,414.107 273.387,415.912 273.409,415.933 273.882,415.852 274.231,415.799 274.973,415.703 268.637,411.954 268.602,411.928 " fill="none" stroke-width="0.5" stroke="rgb(0,0,0)" />
	<polygon points="259.635,404.485 259.01,406.019 258.939,406.153 261.758,407.56 262.304,407.858 265.086,409.515 265.542,409.806 268.159,411.602 268.497,411.85 267.217,410.897 260.116,404.341 259.787,403.971 " fill="none" stroke-width="0.5" stroke="rgb(0,0,0)" />
	<polygon points="350.815,395.931 350.04,397.225 349.956,397.34 352.416,397.203 352.156,396.906 351.289,395.719 351.082,395.377 " fill="none" stroke-width="0.5" stroke="rgb(0,0,0)" />
	<polygon points="204.317,391.328 204.836,392.485 205.001,392.943 205.288,392.518 207.224,390.491 207.45,390.323 207.257,390.34 205.593,390.322 203.654,390.108 " fill="none" stroke-width="0.5" stroke="rgb(0,0,0)" />
	<polygon points="244.025,374.565 245.359,375.683 245.999,376.346 245.7,375.244 245.441,373.797 245.35,372.784 " fill="none" stroke-width="0.5" stroke="rgb(0,0,0)" />
	<polygon points="82.8507,368.286 81.8408,368.358 81.0079,368.367 81.3768,369.3 81.8553,372.459 82.9201,371.51 84.0098,370.688 85.0643,370.02 84.952,369.924 83.8493,368.789 83.3885,368.215 " fill="none" stroke-width="0.5" stroke="rgb(0,0,0)" />
	<polygon points="117.94,360.286 117.7,361.097 119.4,360.943 119.253,360.78 118.586,359.81 118.183,358.993 " fill="none" stroke-width="0.5" stroke="rgb(0,0,0)" />
	<polygon points="294.937,359.432 294.998,359.477 295.107,359.56 295.117,359.351 " fill="none" stroke-width="0.5" stroke="rgb(0,0,0)" />
	<polygon points="394.468,342.881 393.729,343.411 392.707,344.064 390.571,345.04 389.736,345.287 388.68,345.374 389.297,347.122 389.486,347.945 392.491,345.427 394.506,344.175 395.891,343.567 395.754,343.402 395.564,343.164 395.009,342.445 " fill="none" stroke-width="0.5" stroke="rgb(0,0,0)" />
	<polygon points="59.6443,341.688 61.2778,344.315 61.42,343.656 61.9749,341.973 62.6317,340.518 62.366,340.461 61.2328,340.134 59.3713,339.45 " fill="none" stroke-width="0.5" stroke="rgb(0,0,0)" />
	<polygon points="159.773,336.786 157.592,338.87 156.192,339.951 155.033,340.665 156.189,341.365 157.193,342.079 159.166,343.714 159.206,342.517 159.244,341.944 159.423,340.18 159.516,339.521 159.822,337.843 160.015,337.024 160.24,336.243 " fill="none" stroke-width="0.5" stroke="rgb(0,0,0)" />
	<polygon points="414.644,334.264 414.831,335.406 414.877,335.722 415.035,336.991 415.088,337.585 415.148,338.714 415.156,339.402 415.147,339.736 415.125,340.059 417.614,340.271 416.559,338.217 415.622,334.158 " fill="none" stroke-width="0.5" stroke="rgb(0,0,0)" />
	<polygon points="165.787,324.945 165.037,327.76 164.593,328.989 164.783,328.794 165.659,328.136 167.602,327.237 166.092,324.951 165.864,324.509 " fill="none" stroke-width="0.5" stroke="rgb(0,0,0)" />
	<polygon points="76.1329,312.376 75.2552,315.741 74.9736,318.349 74.9986,319.235 75.1095,320.286 75.1727,320.584 75.8945,319.63 77.3122,318.091 78.5229,317.009 80.2239,315.762 80.7545,315.446 80.684,315.409 79.314,314.519 77.885,313.378 76.685,312.205 76.3419,311.796 " fill="none" stroke-width="0.5" stroke="rgb(0,0,0)" />
	<polygon points="133.6,306.742 133.649,306.737 133.591,306.64 " fill="none" stroke-width="0.5" stroke="rgb(0,0,0)" />
	<polygon points="161.104,299.636 159.921,299.792 159.273,299.808 159.366,299.95 159.837,300.772 161.758,304.609 161.767,304.447 161.863,303.556 162.355,300.509 162.542,299.644 162.643,299.272 " fill="none" stroke-width="0.5" stroke="rgb(0,0,0)" />
	<polygon points="458.25,290.873 457.82,291.392 458.96,291.576 458.895,291.131 458.726,290.479 " fill="none" stroke-width="0.5" stroke="rgb(0,0,0)" />
	<polygon points="87.0501,288.666 87.4838,288.894 87.5329,288.933 87.5342,288.926 87.6734,287.466 " fill="none" stroke-width="0.5" stroke="rgb(0,0,0)" />
	<polygon points="157.614,228.598 157.544,228.741 158.116,229.351 159.171,233.795 159.11,235.221 159.086,235.597 158.927,237.419 158.91,237.594 158.685,239.666 158.676,239.748 158.418,241.924 158.416,241.943 158.161,244.056 157.947,245.913 157.813,247.271 157.806,247.415 158.476,247.793 160.774,251.578 161.24,253.203 161.399,253.855 161.764,255.666 161.835,256.071 162.127,258 162.158,258.225 162.402,260.203 162.411,260.28 162.522,261.251 163.583,257.56 165.185,254.523 166.2,253.297 162.577,252.315 159.611,249.53 158.302,245.678 158.457,243.234 158.693,242.121 158.893,241.084 159.068,240.055 159.216,239.034 159.335,238.021 159.422,237.016 159.475,236.017 159.491,235.148 159.403,233.354 159.142,231.708 158.672,230.064 157.939,228.368 157.84,228.204 " fill="none" stroke-width="0.5" stroke="rgb(0,0,0)" />
	<polygon points="382.635,248.168 383.29,247.854 383.029,247.581 " fill="none" stroke-width="0.5" stroke="rgb(0,0,0)" />
	<polygon points="327.732,236.91 326.507,236.909 327.483,238.013 329.37,241.164 329.59,241.054 329.911,240.93 329.906,240.922 329.265,239.407 328.561,237.146 328.497,236.832 " fill="none" stroke-width="0.5" stroke="rgb(0,0,0)" />
	<polygon points="311.163,227.557 311.202,227.601 313.159,228.766 313.41,228.875 313.096,228.299 312.591,227.105 " fill="none" stroke-width="0.5" stroke="rgb(0,0,0)" />
	<polygon points="89.455,215.803 89.8112,216.491 90.3335,217.736 90.5854,218.504 90.8677,219.616 91.0172,220.438 91.0357,220.592 92.7467,220.039 93.4756,219.916 96.0372,219.882 96.681,219.973 98.9357,220.621 99.1756,220.728 99.2027,220.364 99.3886,219.124 100.004,216.417 98.0528,216.632 96.2017,216.631 93.0125,216.275 91.1284,215.84 88.985,215.077 " fill="none" stroke-width="0.5" stroke="rgb(0,0,0)" />
	<polygon points="432.915,215.25 432.154,215.396 429.16,215.828 432.099,218.266 433.406,219.626 433.515,219.768 434.034,218.829 436.557,215.175 437.355,214.188 437.362,214.181 " fill="none" stroke-width="0.5" stroke="rgb(0,0,0)" />
	<polygon points="68.2016,218.01 68.2884,217.863 68.0155,217.791 " fill="none" stroke-width="0.5" stroke="rgb(0,0,0)" />
	<polygon points="191.677,216.052 192.475,215.799 192.209,215.492 191.491,214.969 191.023,214.753 " fill="none" stroke-width="0.5" stroke="rgb(0,0,0)" />
	<polygon points="381.749,203.473 380.85,204.799 380.714,204.963 380.854,205.077 380.891,205.114 382.135,203.409 382.701,203.135 382.17,202.703 " fill="none" stroke-width="0.5" stroke="rgb(0,0,0)" />
	<polygon points="108.475,164.659 107.439,165.515 106.109,166.416 104.923,167.063 103.408,167.706 103.058,167.815 105.014,169.144 105.876,169.815 108.874,172.481 109.734,173.367 111.9,175.955 112.165,175.467 113.344,173.812 114.731,172.294 115.069,172.012 112.391,169.564 111.222,168.246 109,165.135 108.634,164.5 " fill="none" stroke-width="0.5" stroke="rgb(0,0,0)" />
	<polygon points="423.101,145.763 420.36,148.215 418.913,149.255 418.566,149.453 418.922,149.521 425.342,151.418 426.892,152.05 431.374,154.424 430.299,150.674 430.204,147.947 429.744,147.786 428.065,147.049 426.575,146.203 425.215,145.235 424.272,144.363 " fill="none" stroke-width="0.5" stroke="rgb(0,0,0)" />
	<polygon points="356.277,144.244 356.826,144.189 358.508,144.189 359.848,144.324 359.882,144.331 357.656,142.384 356.641,141.325 356.563,141.228 " fill="none" stroke-width="0.5" stroke="rgb(0,0,0)" />
	<polygon points="127.772,138.482 127.968,139.069 128.038,138.73 128.109,138.306 " fill="none" stroke-width="0.5" stroke="rgb(0,0,0)" />
	<polygon points="313.257,126.544 312.438,127.107 311.769,127.749 311.277,128.401 310.983,128.96 310.622,130.101 310.111,130.933 310.25,130.989 311.014,131.202 311.826,131.332 312.832,131.383 313.032,131.377 313.453,131.344 313.996,131.284 314.63,131.203 314.635,131.202 314.629,131.191 314.144,130.063 314.015,129.689 313.712,128.566 313.637,128.18 313.496,127.091 313.471,126.698 313.476,126.441 " fill="none" stroke-width="0.5" stroke="rgb(0,0,0)" />
	<polygon points="186.044,112.71 185.814,113.454 185.238,114.854 184.902,115.499 183.854,117.057 183.403,117.587 181.801,119.042 181.227,119.442 179.253,120.459 178.548,120.71 176.59,121.155 176.033,121.213 177.083,123.941 179.138,122.511 180.166,121.9 183.286,120.334 184.599,119.808 187.821,118.823 189.412,118.501 190.826,118.354 187.394,114.301 187.12,113.959 186.073,112.583 " fill="none" stroke-width="0.5" stroke="rgb(0,0,0)" />
	<polygon points="92.6833,116.202 90.4201,117.965 89.211,118.75 86.8729,119.997 84.5434,120.827 82.1421,121.3 82.0122,121.305 82.1023,122.889 82.1138,123.553 82.1075,123.839 82.3505,123.707 83.8664,123.063 85.1753,122.653 86.8331,122.313 88.2362,122.17 89.9382,122.17 91.3433,122.313 92.999,122.652 93.7315,122.881 93.256,119.326 93.2337,119.144 92.886,116.029 " fill="none" stroke-width="0.5" stroke="rgb(0,0,0)" />
	<polygon points="395.123,103.66 395.498,104.229 396.288,103.971 396.826,103.768 395.033,103.545 " fill="none" stroke-width="0.5" stroke="rgb(0,0,0)" />
	<polygon points="147.088,103.794 147.105,103.793 147.091,103.782 " fill="none" stroke-width="0.5" stroke="rgb(0,0,0)" />
	<polygon points="68.0829,96.3127 68.4615,96.4873 68.5143,96.0856 " fill="none" stroke-width="0.5" stroke="rgb(0,0,0)" />
	<polygon points="104.172,63.1644 102.338,64.7343 102.129,64.9075 100.348,66.3354 99.5421,66.9068 98.4565,67.5845 98.6516,68.5015 98.7111,68.9251 99.8263,68.2666 101.884,67.5532 104.618,67.3089 104.547,66.4536 104.525,66.1021 104.395,62.9824 " fill="none" stroke-width="0.5" stroke="rgb(0,0,0)" />
	<polygon points="413.241,64.2392 414.933,65.8273 416.567,67.1398 418.1,68.0705 419.492,68.5944 421.231,68.8138 421.348,68.796 421.25,68.4711 420.094,67.2768 416.824,65.3421 412.557,63.5744 " fill="none" stroke-width="0.5" stroke="rgb(0,0,0)" />
	<polygon points="127.206,67.3494 128.439,66.0782 127.693,65.0405 " fill="none" stroke-width="0.5" stroke="rgb(0,0,0)" />
	<polygon points="398.2,38.764 398.889,40.417 398.973,40.703 399.253,40.5628 400.279,40.1302 403.251,39.1036 403.801,38.9346 404.95,38.6238 401.988,37.501 398.086,36.3909 396.711,36.047 " fill="none" stroke-width="0.5" stroke="rgb(0,0,0)" />
</svg>
