<?xml version="1.0" standalone="no" ?>
<!DOCTYPE svg PUBLIC "-//W3C//DTD SVG 1.1//EN" "http://www.w3.org/Graphics/SVG/1.1/DTD/svg11.dtd">
<svg width="500px" height="500px" xmlns="http://www.w3.org/2000/svg" version="1.1" >
	<polygon points="473.323,87.8914 473.12,88.139 471.718,89.4572 464.684,94.5416 464.496,94.6498 466.085,94.7038 468.571,95.2142 469.887,95.6134 471.983,96.4654 473.323,97.1791 473.323,194.232 473.207,194.272 472.198,194.191 473.323,195.126 473.323,281.076 472.504,295.664 470.051,311.155 465.918,327.467 460.085,344.296 452.537,361.35 443.264,378.341 432.256,394.988 419.507,411.012 405.007,426.141 388.748,440.108 370.715,452.651 350.887,463.508 329.238,472.42 315.088,476.455 314.981,476.368 313.9,475.29 312.174,473.176 311.349,471.93 310.105,469.571 309.553,468.218 308.8,465.695 308.522,464.275 308.418,463.203 307.91,464.128 305.144,468.201 303.889,469.534 303.911,469.535 304.782,469.604 306.259,469.873 306.928,470.066 308.662,470.813 309.156,471.104 310.798,472.414 311.143,472.779 312.3,474.383 312.522,474.797 313.122,476.273 313.248,476.712 313.3,476.965 305.733,479.124 280.331,483.35 252.986,484.823 226.342,483.433 201.484,479.433 178.396,473.071 157.054,464.587 137.438,454.218 119.535,442.197 103.337,428.756 88.8418,414.13 76.0502,398.557 64.9659,382.28 55.5929,365.544 47.9342,348.6 41.9911,331.704 38.7186,318.869 41.4157,313.361 37.7435,313.287 37.4592,313.197 35.2372,299.096 34.3905,283.7 34.3905,150.417 36.3732,148.026 34.3905,147.447 34.3905,37.0885 36.3577,35.819 36.457,35.7561 37.6633,35.0041 34.7206,34.2586 34.3905,34.1649 34.3905,27.0183 38.4398,26.9873 49.9314,26.8991 61.4231,26.8109 72.9148,26.7227 84.4065,26.6346 95.8981,26.5464 107.39,26.4582 118.881,26.37 130.373,26.2819 141.865,26.1937 153.357,26.1055 164.848,26.0173 176.34,25.9292 187.832,25.841 203.242,25.7227 203.232,31.0488 203.232,31.0489 203.206,43.9476 203.156,69.7452 203.156,69.7452 203.13,82.644 203.123,86.2754 203.119,86.2753 200.439,86.0025 203.119,88.0837 203.079,108.442 203.079,108.442 203.054,121.34 203.003,147.138 203.003,147.138 202.978,160.037 202.952,172.936 202.952,172.936 202.929,184.518 201.903,185.249 200.672,185.957 201.533,186.334 202.76,187.016 202.924,187.128 202.901,198.733 202.876,211.632 202.85,224.531 202.851,224.603 202.938,235.898 202.938,235.954 203.103,246.771 203.105,246.873 203.402,257.179 203.408,257.335 203.893,267.097 203.907,267.318 204.635,276.502 204.665,276.801 205.692,285.374 205.75,285.768 207.13,293.697 207.237,294.208 209.027,301.458 209.218,302.105 211.472,308.644 211.798,309.438 214.572,315.233 215.099,316.159 218.448,321.175 219.238,322.166 223.218,326.371 224.282,327.301 228.947,330.661 230.202,331.391 235.608,333.872 236.897,334.327 243.1,335.896 244.278,336.096 251.333,336.721 251.53,334.488 251.564,334.578 252.326,337.298 252.635,336.718 259.687,336.231 260.872,336.054 267.219,334.576 268.539,334.136 274.034,331.718 275.339,330.981 280.044,327.659 281.157,326.697 285.136,322.508 285.957,321.474 289.27,316.456 289.808,315.493 292.518,309.68 292.842,308.862 295.01,302.293 295.194,301.635 296.883,294.345 296.983,293.834 298.254,285.861 298.306,285.472 299.221,276.853 299.246,276.565 299.869,267.335 299.88,267.13 300.272,257.327 300.276,257.189 300.498,246.849 300.499,246.768 300.615,235.928 300.615,235.895 300.685,224.592 300.685,224.531 300.659,211.632 300.633,198.733 300.607,185.834 300.582,172.935 300.582,172.935 300.556,160.037 300.504,134.239 300.504,134.239 300.478,121.34 300.445,104.758 300.531,104.66 300.62,104.578 300.445,104.634 300.401,82.6438 300.401,82.6438 300.375,69.745 300.297,31.0486 300.297,31.0486 300.286,25.6167 304.573,25.5891 316.326,25.5136 328.079,25.438 339.832,25.3624 351.586,25.2869 363.339,25.2113 375.092,25.1358 386.846,25.0602 410.352,24.9091 422.105,24.8335 433.859,24.758 445.612,24.6824 457.365,24.6068 469.118,24.5313 473.323,24.5042 " fill="none" stroke-width="0.5" stroke="rgb(0,0,0)" />
	<polygon points="192.139,443.829 192.502,444.898 193.074,447.118 194.327,447.394 195.874,447.643 197.369,447.798 198.585,447.846 200.211,447.756 201.732,447.489 203.066,447.052 204.142,446.482 204.98,445.792 205.671,444.896 206.277,443.566 206.475,442.651 202.879,442.92 201.732,442.918 195.514,442.429 194.245,442.219 191.111,441.418 " fill="none" stroke-width="0.5" stroke="rgb(0,0,0)" />
	<polygon points="158.602,437.407 157.539,438.71 153.344,442.81 152.686,443.314 154.909,442.407 157.039,440.971 158.58,439.312 159.697,437.328 160.433,434.846 160.462,434.518 " fill="none" stroke-width="0.5" stroke="rgb(0,0,0)" />
	<polygon points="326.018,417.155 316.513,420.288 314.928,420.626 314.783,420.641 315.154,421.32 315.648,422.618 315.952,423.623 316.283,425.075 316.342,425.365 316.592,426.701 316.631,426.867 317.462,427.466 317.933,427.834 318.799,428.57 319.638,429.404 320.371,430.259 320.76,430.843 321.296,430.274 321.566,430.002 322.281,429.318 322.66,428.979 323.369,428.387 323.906,427.978 324.607,427.493 325.378,427.025 326.068,426.661 327.168,426.189 327.379,426.118 326.834,425.081 326.485,423.84 326.204,421.809 326.204,417.07 " fill="none" stroke-width="0.5" stroke="rgb(0,0,0)" />
	<polygon points="387.455,419.891 388.482,420.659 388.563,420.068 387.497,419.854 387.289,419.792 " fill="none" stroke-width="0.5" stroke="rgb(0,0,0)" />
	<polygon points="166.11,413.533 166.115,414.626 165.794,419.31 165.705,419.948 166.933,419.449 170.418,420.021 170.385,419.058 170.418,418.69 170.706,417.19 170.802,416.871 171.503,415.256 171.661,414.986 172.784,413.511 173.001,413.29 173.038,413.26 172.846,413.181 172.231,412.894 169.595,411.512 169.009,411.17 166.581,409.603 165.993,409.181 165.757,408.994 " fill="none" stroke-width="0.5" stroke="rgb(0,0,0)" />
	<polygon points="378.943,417.353 379.657,417.161 380.503,417.26 379.539,416.803 378.943,416.472 " fill="none" stroke-width="0.5" stroke="rgb(0,0,0)" />
	<polygon points="259.048,403.299 258.772,404.23 258.214,405.599 257.774,406.432 257.674,406.584 257.866,406.659 258.497,406.938 261.356,408.365 261.843,408.631 264.626,410.288 265.033,410.548 267.65,412.344 268.022,412.617 270.386,414.462 270.765,414.779 272.788,416.584 273.112,416.898 274.035,416.739 274.347,416.692 275.681,416.519 275.976,416.487 277.36,416.363 277.638,416.344 277.836,416.333 277.701,416.272 269.095,411.179 267.828,410.235 260.727,403.68 259.741,402.57 259.305,401.968 " fill="none" stroke-width="0.5" stroke="rgb(0,0,0)" />
	<polygon points="350.005,395.54 349.313,396.695 348.099,398.361 348.366,398.331 352.873,398.079 353.562,398.072 354.575,398.108 353.813,397.432 352.834,396.313 352.059,395.254 351.203,393.836 351.008,393.46 " fill="none" stroke-width="0.5" stroke="rgb(0,0,0)" />
	<polygon points="309.008,394.28 308.447,394.444 305.235,395.254 304.547,395.393 302.85,395.655 304.357,395.786 307.546,395.654 310.199,395.304 309.699,394.608 309.543,394.1 " fill="none" stroke-width="0.5" stroke="rgb(0,0,0)" />
	<polygon points="203.526,391.758 203.989,392.791 204.755,394.913 206.033,393.023 207.762,391.213 210.534,389.145 207.177,389.443 205.691,389.428 202.042,389.025 " fill="none" stroke-width="0.5" stroke="rgb(0,0,0)" />
	<polygon points="242.802,374.7 242.733,374.776 243.48,375.276 244.711,376.307 245.454,377.079 245.627,377.295 246.231,377.312 247.22,377.411 246.568,375.009 246.337,373.716 246.036,370.354 " fill="none" stroke-width="0.5" stroke="rgb(0,0,0)" />
	<polygon points="83.5745,367.283 82.7329,367.394 81.8312,367.458 79.7144,367.48 80.487,369.434 81.214,374.235 83.5187,372.182 84.4917,371.448 86.5772,370.126 85.5357,369.239 84.5511,368.225 83.7699,367.252 " fill="none" stroke-width="0.5" stroke="rgb(0,0,0)" />
	<polygon points="357.262,370.502 357.156,371.535 357.175,371.527 358.744,370.989 359.33,370.815 359.783,370.7 358.613,369.938 357.022,368.656 356.679,368.318 " fill="none" stroke-width="0.5" stroke="rgb(0,0,0)" />
	<polygon points="324.792,367.622 324.022,368.844 323.945,368.943 326.963,368.746 327.112,368.73 326.401,368.366 325.086,367.506 324.919,367.37 " fill="none" stroke-width="0.5" stroke="rgb(0,0,0)" />
	<polygon points="117.582,355.367 117.595,356.454 117.467,357.93 117.055,360.119 116.624,361.577 116.403,362.118 120.575,361.741 121.332,361.748 121.287,361.709 119.995,360.27 119.328,359.3 118.377,357.374 118.046,356.358 117.823,355.254 " fill="none" stroke-width="0.5" stroke="rgb(0,0,0)" />
	<polygon points="295.801,358.061 294.191,358.788 293.045,359.15 294.461,360.2 294.626,360.326 296.081,361.469 296.022,360.834 295.997,359.779 296.05,358.672 296.101,358.083 296.129,357.864 " fill="none" stroke-width="0.5" stroke="rgb(0,0,0)" />
	<polygon points="395.052,341.256 393.904,342.179 393.244,342.653 392.223,343.306 390.316,344.177 389.48,344.424 387.449,344.591 388.448,347.422 388.828,349.071 388.89,349.618 393.069,346.117 394.868,344.999 397.346,343.911 396.446,342.827 396.277,342.615 395.16,341.166 " fill="none" stroke-width="0.5" stroke="rgb(0,0,0)" />
	<polygon points="58.775,341.995 61.7428,346.768 61.8084,346.122 62.2998,343.846 62.7951,342.344 63.7236,340.287 63.9562,339.882 62.5548,339.581 61.543,339.289 59.0743,338.382 58.2886,338.007 " fill="none" stroke-width="0.5" stroke="rgb(0,0,0)" />
	<polygon points="165.141,323.445 164.917,324.713 164.167,327.528 163.729,328.74 162.492,331.421 161.817,332.592 160.102,335.029 159.151,336.135 156.97,338.22 155.72,339.185 153.307,340.671 155.722,342.135 156.619,342.772 158.968,344.718 159.693,345.405 160.144,345.893 160.091,345.424 160.047,344.33 160.105,342.547 160.139,342.035 160.318,340.271 160.402,339.682 160.708,338.004 160.879,337.273 161.318,335.75 161.671,334.782 162.249,333.48 163,332.165 163.724,331.152 165.324,329.514 166.199,328.856 168.918,327.598 166.843,324.455 166.108,323.032 165.351,321.079 " fill="none" stroke-width="0.5" stroke="rgb(0,0,0)" />
	<polygon points="415.583,333.257 413.796,333.45 413.592,333.469 413.699,334.065 413.719,334.182 413.943,335.551 413.984,335.833 414.142,337.103 414.189,337.633 414.249,338.761 414.257,339.376 414.247,339.71 414.211,340.256 414.177,340.591 414.133,340.877 418.138,341.219 419.222,341.406 419.114,341.283 417.436,338.014 416.305,333.119 " fill="none" stroke-width="0.5" stroke="rgb(0,0,0)" />
	<polygon points="128.031,339.275 128.913,338.919 129.305,338.791 128.046,337.667 " fill="none" stroke-width="0.5" stroke="rgb(0,0,0)" />
	<polygon points="385.015,312.744 384.172,314.563 383.58,316.184 383.395,317.138 383.199,319.279 383.026,322.219 382.934,323.768 383.841,321.463 384.697,318.831 385.241,316.383 385.445,313.93 385.423,312.701 385.385,312.098 " fill="none" stroke-width="0.5" stroke="rgb(0,0,0)" />
	<polygon points="75.2723,312.109 74.3676,315.578 74.0722,318.313 74.0999,319.295 74.2193,320.427 74.4337,321.438 74.7744,322.428 74.897,322.674 75.6815,321.396 76.5564,320.24 77.9741,318.701 79.055,317.735 80.7561,316.488 81.9869,315.755 82.6757,315.429 81.0987,314.61 79.8755,313.815 78.4465,312.675 77.3751,311.628 76.1664,310.184 76.0354,309.99 " fill="none" stroke-width="0.5" stroke="rgb(0,0,0)" />
	<polygon points="350.823,321.914 350.876,321.792 351.135,321.261 351.486,320.606 350.237,320.251 349.18,319.863 348.278,319.452 " fill="none" stroke-width="0.5" stroke="rgb(0,0,0)" />
	<polygon points="342.984,314.527 342.348,315.172 345.71,317.464 344.826,316.728 344.33,316.015 343.526,313.808 " fill="none" stroke-width="0.5" stroke="rgb(0,0,0)" />
	<polygon points="163.725,297.956 162.455,298.396 160.986,298.743 159.803,298.9 158.197,298.939 157.84,298.909 157.586,298.866 158.611,300.441 159.032,301.175 162.515,308.13 162.497,307.653 162.666,304.495 162.751,303.699 163.243,300.653 163.41,299.881 163.961,297.854 " fill="none" stroke-width="0.5" stroke="rgb(0,0,0)" />
	<polygon points="132.724,307.054 132.721,307.728 134.004,307.583 134.184,307.6 135.256,307.847 134.82,306.944 132.35,302.804 " fill="none" stroke-width="0.5" stroke="rgb(0,0,0)" />
	<polygon points="311.297,306.003 311.818,306.096 312.281,306.2 312.071,305.483 " fill="none" stroke-width="0.5" stroke="rgb(0,0,0)" />
	<polygon points="434.369,295.086 434.27,295.221 433.785,295.87 435.109,296.584 434.571,294.803 " fill="none" stroke-width="0.5" stroke="rgb(0,0,0)" />
	<polygon points="459.142,289.203 458.493,289.503 457.611,290.234 456.438,291.65 456.16,292.081 456.496,292.09 459.685,292.604 459.985,292.7 459.96,292.195 459.778,290.952 459.489,289.838 459.227,289.191 " fill="none" stroke-width="0.5" stroke="rgb(0,0,0)" />
	<polygon points="88.4762,283.965 88.4124,284.091 86.0578,288.624 85.8463,289.032 86.9237,289.598 87.4453,290.013 88.1061,290.613 88.4256,289.06 88.7352,285.811 88.8269,283.258 " fill="none" stroke-width="0.5" stroke="rgb(0,0,0)" />
	<polygon points="59.3849,282.722 59.5735,283.168 59.637,282.891 59.5308,282.771 59.309,282.566 " fill="none" stroke-width="0.5" stroke="rgb(0,0,0)" />
	<polygon points="157.811,226.449 156.818,228.176 156.455,228.922 157.528,230.171 158.271,233.757 158.211,235.183 158.19,235.519 158.031,237.34 158.015,237.497 157.79,239.569 157.782,239.642 157.525,241.818 157.523,241.835 157.267,243.951 157.052,245.817 156.916,247.203 156.881,247.859 156.884,247.939 158.011,248.597 159.909,251.826 160.374,253.451 160.516,254.033 160.882,255.844 160.945,256.206 161.237,258.134 161.265,258.336 161.509,260.314 161.517,260.383 161.737,262.311 161.949,264.043 162,264.375 162.529,264.547 163.208,265.376 163.306,261.782 164.448,257.809 165.879,255.097 168.426,252.02 166.307,252.472 162.647,251.309 160.042,248.486 159.337,243.421 159.575,242.3 159.779,241.245 159.957,240.195 160.109,239.151 160.23,238.112 160.32,237.079 160.375,236.049 160.391,235.135 160.3,233.261 160.022,231.512 159.521,229.761 158.741,227.957 157.825,226.425 " fill="none" stroke-width="0.5" stroke="rgb(0,0,0)" />
	<polygon points="129.616,243.677 130.956,253.286 131.147,253.793 131.3,252.721 132.307,251.601 132.006,250.355 131.37,248.295 130.561,245.864 130.543,245.81 129.707,243.235 129.631,242.984 " fill="none" stroke-width="0.5" stroke="rgb(0,0,0)" />
	<polygon points="382.685,246.487 381.836,247.752 381.011,248.745 379.929,249.808 378.924,250.612 378.135,251.125 378.732,251.857 378.796,251.94 379.691,251.095 380.523,250.416 381.65,249.625 383.88,248.555 384.902,248.26 382.991,246.265 382.889,246.105 " fill="none" stroke-width="0.5" stroke="rgb(0,0,0)" />
	<polygon points="324.889,236.415 326.711,238.476 328.996,242.29 329.015,242.343 329.914,241.894 331.082,241.444 331.196,241.41 330.697,240.492 330.125,239.139 329.42,236.878 329.208,235.839 329.046,235.872 327.641,236.014 326.124,236.014 324.73,235.872 323.999,235.722 " fill="none" stroke-width="0.5" stroke="rgb(0,0,0)" />
	<polygon points="464.909,223.497 464.884,223.64 464.339,226.641 464.336,226.659 463.8,229.564 463.446,231.659 464.141,229.949 464.836,227.268 465.068,224.78 464.918,223.44 " fill="none" stroke-width="0.5" stroke="rgb(0,0,0)" />
	<polygon points="312.563,226.17 310.705,226.758 309.612,226.985 309.705,227.273 310.622,228.304 312.748,229.569 315.914,230.943 315.335,230.243 314.533,229.055 313.887,227.868 313.315,226.517 313.131,225.927 " fill="none" stroke-width="0.5" stroke="rgb(0,0,0)" />
	<polygon points="86.4294,213.448 87.4012,214.413 87.864,214.995 88.6558,216.217 89.012,216.905 89.4783,218.016 89.7302,218.784 89.9822,219.777 90.1318,220.599 90.2404,221.506 90.2617,221.872 90.8131,221.6 92.8957,220.926 93.6246,220.804 95.9117,220.774 96.5555,220.864 98.5687,221.443 99.1803,221.716 99.9688,222.201 100.1,220.431 100.266,219.324 101.107,215.623 101.19,215.352 100.952,215.408 97.9543,215.738 96.3016,215.736 93.1124,215.38 91.4302,214.992 88.566,213.973 87.0314,213.22 86.7353,213.03 " fill="none" stroke-width="0.5" stroke="rgb(0,0,0)" />
	<polygon points="438.406,212.979 437.825,213.144 432.704,214.374 432.025,214.505 426.838,215.255 427.831,215.895 431.524,218.959 432.691,220.173 433.694,221.482 434.056,220.64 434.775,219.341 437.297,215.687 438.01,214.806 440.32,212.353 " fill="none" stroke-width="0.5" stroke="rgb(0,0,0)" />
	<polygon points="132.522,219.934 132.595,219.991 132.616,219.904 " fill="none" stroke-width="0.5" stroke="rgb(0,0,0)" />
	<polygon points="65.2875,216.387 65.8433,216.753 66.3602,217.221 67.6291,218.715 68.0289,219.334 68.233,219.733 69.6671,217.293 68.2139,216.913 66.925,216.446 65.6418,215.843 " fill="none" stroke-width="0.5" stroke="rgb(0,0,0)" />
	<polygon points="189.739,214.204 190.948,216.605 191.126,217.086 191.263,216.964 193.863,216.418 193.842,216.342 193.391,215.481 192.822,214.826 191.949,214.189 190.561,213.548 189.016,213.121 " fill="none" stroke-width="0.5" stroke="rgb(0,0,0)" />
	<polygon points="381.641,201.794 380.959,203.041 380.156,204.226 379.446,205.084 380.281,205.772 380.93,206.42 383.224,203.708 384.331,203.303 382.077,201.466 381.871,201.252 " fill="none" stroke-width="0.5" stroke="rgb(0,0,0)" />
	<polygon points="366.151,170.484 365.12,171.178 365.983,172.754 366.559,174.105 367.217,176.198 367.523,177.682 367.753,179.921 367.753,180.558 369.052,180.557 369.151,180.567 366.557,172.27 366.334,171.36 366.173,170.465 " fill="none" stroke-width="0.5" stroke="rgb(0,0,0)" />
	<polygon points="146.608,175.679 145.614,175.942 144.823,176.095 146.991,178.168 147.015,178.068 147.922,175.233 " fill="none" stroke-width="0.5" stroke="rgb(0,0,0)" />
	<polygon points="107.901,163.965 106.866,164.821 105.678,165.626 104.492,166.273 103.139,166.847 101.831,167.256 100.875,167.452 101.248,167.673 104.508,169.888 105.278,170.488 108.276,173.154 109.044,173.945 111.632,177.037 112.029,177.602 112.956,175.896 114.009,174.419 115.395,172.901 116.494,171.983 115.891,171.544 112.998,168.9 111.955,167.723 109.732,164.612 109.007,163.355 108.852,163.013 " fill="none" stroke-width="0.5" stroke="rgb(0,0,0)" />
	<polygon points="310.503,170.809 310.713,170.83 310.524,170.778 " fill="none" stroke-width="0.5" stroke="rgb(0,0,0)" />
	<polygon points="423.888,143.434 422.501,145.092 419.76,147.544 418.468,148.473 415.818,149.981 417.214,150.106 418.667,150.384 425.087,152.281 426.471,152.846 432.157,155.857 432.85,156.305 431.164,150.425 431.1,147.309 430.106,146.963 428.427,146.225 427.097,145.47 425.737,144.502 424.335,143.207 424.158,142.995 " fill="none" stroke-width="0.5" stroke="rgb(0,0,0)" />
	<polygon points="366.89,148.501 366.917,148.482 366.746,148.382 " fill="none" stroke-width="0.5" stroke="rgb(0,0,0)" />
	<polygon points="355.86,139.111 355.274,145.28 355.575,145.219 356.916,145.084 358.418,145.084 359.758,145.219 361.227,145.518 362.475,145.905 363.58,146.37 358.249,141.706 357.342,140.761 355.864,138.923 " fill="none" stroke-width="0.5" stroke="rgb(0,0,0)" />
	<polygon points="126.675,138.02 127.155,139.456 127.633,141.75 127.691,142.061 127.837,142.945 127.864,142.883 128.143,142.033 128.448,140.974 128.709,139.924 128.923,138.895 129.089,137.9 129.206,136.951 129.222,136.739 " fill="none" stroke-width="0.5" stroke="rgb(0,0,0)" />
	<polygon points="106.641,141.527 106.642,141.521 106.626,141.518 " fill="none" stroke-width="0.5" stroke="rgb(0,0,0)" />
	<polygon points="313.9,125.251 312.808,125.76 311.868,126.407 311.094,127.149 310.514,127.917 310.149,128.613 309.764,129.83 308.805,131.34 309.072,131.483 309.959,131.842 310.822,132.083 311.732,132.228 312.822,132.284 313.08,132.276 313.537,132.24 314.102,132.178 314.748,132.095 315.43,132.003 315.491,131.995 316.1,131.918 315.612,131.132 315.428,130.777 314.995,129.769 314.866,129.395 314.596,128.393 314.52,128.007 314.394,127.034 314.369,126.641 314.394,125.392 314.424,125.109 " fill="none" stroke-width="0.5" stroke="rgb(0,0,0)" />
	<polygon points="92.6245,115.071 92.1303,115.492 89.8671,117.255 88.7875,117.956 86.4494,119.203 84.3695,119.944 81.9682,120.416 81.0624,120.456 81.2038,122.94 81.2141,123.533 81.1823,124.96 81.1681,125.284 81.1578,125.441 81.5956,125.144 82.7817,124.497 84.1352,123.922 85.4441,123.512 86.9244,123.208 88.3274,123.065 89.8471,123.065 91.2522,123.208 92.7305,123.511 94.0413,123.921 94.8229,124.252 94.148,119.206 94.1281,119.044 93.5851,114.179 " fill="none" stroke-width="0.5" stroke="rgb(0,0,0)" />
	<polygon points="185.556,110.586 185.425,111.412 185.184,112.444 184.954,113.188 184.44,114.438 184.104,115.083 183.168,116.474 182.717,117.005 181.287,118.304 180.713,118.703 178.95,119.611 178.246,119.863 176.497,120.26 175.653,120.347 174.625,120.265 174.988,121.005 176.655,125.334 179.652,123.25 180.57,122.705 183.69,121.138 184.862,120.669 188.084,119.684 189.504,119.396 192.64,119.072 192.325,118.732 188.081,113.72 187.836,113.414 185.572,110.438 " fill="none" stroke-width="0.5" stroke="rgb(0,0,0)" />
	<polygon points="125.134,112.397 124.127,116.424 125.645,114.64 126.507,113.78 126.892,113.454 126.472,113.074 125.298,111.805 " fill="none" stroke-width="0.5" stroke="rgb(0,0,0)" />
	<polygon points="414.234,104.581 416.378,106.547 416.787,107.004 416.781,105.042 417.212,104.281 416.315,104.272 416.169,104.27 413.589,104.194 " fill="none" stroke-width="0.5" stroke="rgb(0,0,0)" />
	<polygon points="393.592,103.165 394.372,104.156 395.119,105.288 395.248,105.258 396.586,104.82 398.189,104.216 399.898,103.554 400.089,103.483 400.624,103.293 398.667,103.087 398.527,103.071 395.1,102.647 394.959,102.628 392.802,102.319 " fill="none" stroke-width="0.5" stroke="rgb(0,0,0)" />
	<polygon points="145.998,104.777 149.34,104.532 149.447,104.534 149.205,104.327 146.472,102.129 " fill="none" stroke-width="0.5" stroke="rgb(0,0,0)" />
	<polygon points="308.749,99.032 308.973,98.9339 309.262,98.8435 309.237,98.7089 309.223,98.6199 " fill="none" stroke-width="0.5" stroke="rgb(0,0,0)" />
	<polygon points="382.569,98.6158 382.914,98.5941 383.446,98.5773 384.815,98.6595 385.21,98.7197 384.328,97.4334 384.279,97.3362 " fill="none" stroke-width="0.5" stroke="rgb(0,0,0)" />
	<polygon points="66.0493,96.366 68.5956,97.5402 69.1828,97.9182 69.3305,96.7824 69.3319,96.7717 69.6138,94.6275 69.6312,94.4808 " fill="none" stroke-width="0.5" stroke="rgb(0,0,0)" />
	<polygon points="127.003,63.9516 126.274,67.4089 126.171,67.8342 125.325,70.9412 124.974,71.8373 125.991,72.496 126.065,72.0913 126.352,70.9955 126.614,70.2375 127.438,68.5607 127.808,67.9992 129.599,66.1512 127.893,63.7766 127.25,62.9248 " fill="none" stroke-width="0.5" stroke="rgb(0,0,0)" />
	<polygon points="103.595,62.4736 101.753,64.0506 101.566,64.2053 99.7849,65.6332 99.0656,66.1433 97.4476,67.1533 97.4174,67.1665 97.5418,67.5995 97.7603,68.6267 97.868,69.3932 97.9352,70.1428 97.9453,70.4016 100.121,69.117 102.179,68.4035 105.592,68.1479 105.444,66.3787 105.424,66.0648 105.282,62.6431 105.145,61.2112 " fill="none" stroke-width="0.5" stroke="rgb(0,0,0)" />
	<polygon points="409.189,61.7792 410.568,62.9271 410.997,63.313 412.619,64.89 414.342,66.5073 416.049,67.8784 417.704,68.8833 419.274,69.474 421.205,69.7177 421.303,69.7131 421.798,69.638 422.182,69.5256 422.271,69.4815 422.336,69.3064 422.363,69.0457 422.049,68.0021 420.656,66.5638 417.227,64.535 412.52,62.5851 408.04,61.0997 " fill="none" stroke-width="0.5" stroke="rgb(0,0,0)" />
	<polygon points="401.477,59.0948 401.475,59.8223 402.324,59.6642 402.586,59.6398 403.981,59.8371 402.733,59.4538 402.381,59.3359 401.469,59.0054 " fill="none" stroke-width="0.5" stroke="rgb(0,0,0)" />
	<polygon points="163.002,48.7812 164.652,49.3421 164.858,49.4154 165.131,49.5173 163.499,47.8947 " fill="none" stroke-width="0.5" stroke="rgb(0,0,0)" />
	<polygon points="397.411,39.1965 398.026,40.6725 398.416,41.99 399.656,41.3672 400.573,40.9809 403.545,39.9543 404.036,39.8034 407.617,38.8348 406.528,38.2593 402.271,36.6458 398.318,35.5214 394.957,34.6802 394.932,34.6728 " fill="none" stroke-width="0.5" stroke="rgb(0,0,0)" />
	<polygon points="151.637,30.6233 152.77,31.3311 152.666,30.0287 " fill="none" stroke-width="0.5" stroke="rgb(0,0,0)" />
	<polygon points="82.3814,29.8845 83.3388,29.5299 82.7384,28.9243 " fill="none" stroke-width="0.5" stroke="rgb(0,0,0)" />
</svg>
