<?xml version="1.0" standalone="no" ?>
<!DOCTYPE svg PUBLIC "-//W3C//DTD SVG 1.1//EN" "http://www.w3.org/Graphics/SVG/1.1/DTD/svg11.dtd">
<svg width="500px" height="500px" xmlns="http://www.w3.org/2000/svg" version="1.1" >
	<polygon points="472.123,90.6448 467.734,93.8174 468.812,94.0388 470.339,94.5017 472.123,95.2272 472.123,281.042 471.31,295.536 468.874,310.914 464.767,327.122 458.968,343.856 451.46,360.819 442.235,377.722 431.285,394.282 418.602,410.221 404.181,425.269 388.012,439.158 370.082,451.629 350.369,462.423 328.844,471.284 305.469,477.951 280.2,482.156 252.985,483.621 226.468,482.238 201.739,478.259 178.778,471.931 157.557,463.496 138.055,453.187 120.255,441.235 104.149,427.87 89.7336,413.325 77.0117,397.837 65.9873,381.648 56.6651,365.002 49.049,348.153 43.1408,331.356 39.0755,315.412 39.5341,314.475 38.8733,314.462 36.4321,298.969 35.5905,283.667 35.5905,28.2092 38.449,28.1872 49.9407,28.0991 61.4323,28.0109 72.924,27.9227 84.4157,27.8345 95.9074,27.7463 107.399,27.6582 118.891,27.57 130.382,27.4818 141.874,27.3936 153.366,27.3055 164.857,27.2173 176.349,27.1291 187.841,27.0409 202.04,26.932 202.032,31.0465 202.032,31.0465 202.006,43.9453 201.981,56.8441 201.956,69.7429 201.956,69.7429 201.93,82.6417 201.879,108.439 201.879,108.439 201.854,121.338 201.803,147.136 201.803,147.136 201.778,160.034 201.752,172.933 201.752,172.933 201.727,185.832 201.701,198.731 201.676,211.63 201.676,211.63 201.65,224.528 201.651,224.613 201.738,235.907 201.739,235.972 201.903,246.789 201.906,246.908 202.203,257.214 202.21,257.395 202.695,267.157 202.711,267.413 203.439,276.597 203.474,276.944 204.5,285.516 204.567,285.974 205.948,293.903 206.072,294.495 207.862,301.746 208.083,302.496 210.337,309.035 210.715,309.957 213.489,315.751 214.101,316.825 217.45,321.841 218.367,322.991 222.346,327.195 223.581,328.275 228.246,331.635 229.701,332.482 235.108,334.963 236.602,335.49 242.805,337.06 244.172,337.292 251.227,337.916 251.755,331.946 252.153,332.77 252.509,337.929 259.77,337.429 261.144,337.223 267.491,335.745 269.022,335.235 274.517,332.816 276.031,331.961 280.736,328.639 282.027,327.523 286.006,323.334 286.958,322.136 290.271,317.117 290.896,316 293.605,310.187 293.982,309.238 296.149,302.669 296.363,301.905 298.052,294.616 298.168,294.023 299.439,286.05 299.499,285.599 300.415,276.979 300.444,276.646 301.066,267.416 301.079,267.178 301.471,257.375 301.476,257.214 301.698,246.875 301.699,246.78 301.815,235.941 301.815,235.902 301.885,224.599 301.885,224.528 301.859,211.629 301.833,198.731 301.807,185.832 301.782,172.933 301.782,172.933 301.756,160.034 301.704,134.237 301.704,134.237 301.678,121.338 301.601,82.6414 301.601,82.6414 301.575,69.7426 301.497,31.0462 301.497,31.0462 301.489,26.809 304.581,26.7891 316.334,26.7135 328.087,26.638 339.84,26.5624 351.594,26.4869 363.347,26.4113 375.1,26.3357 386.853,26.2602 410.36,26.1091 422.113,26.0335 433.866,25.9579 445.62,25.8824 457.373,25.8068 469.126,25.7313 472.123,25.712 " fill="none" stroke-width="0.5" stroke="rgb(0,0,0)" />
	<polygon points="306.28,468.664 306.591,468.72 307.26,468.913 308.821,469.585 308.403,468.561 307.776,466.461 " fill="none" stroke-width="0.5" stroke="rgb(0,0,0)" />
	<polygon points="193.243,443.359 193.664,444.599 194.052,446.105 194.552,446.215 196.032,446.453 197.455,446.6 198.576,446.644 200.074,446.562 201.44,446.322 202.594,445.944 203.473,445.478 204.112,444.952 204.637,444.273 204.769,443.982 202.968,444.117 201.638,444.114 195.42,443.625 193.948,443.381 193.167,443.182 " fill="none" stroke-width="0.5" stroke="rgb(0,0,0)" />
	<polygon points="316.889,421.427 316.51,421.508 316.77,422.191 317.122,423.357 317.453,424.809 317.522,425.145 317.713,426.168 318.163,426.492 318.709,426.92 319.576,427.655 320.549,428.623 320.875,429.003 321.451,428.451 321.891,428.058 322.6,427.466 323.223,426.991 323.923,426.506 324.818,425.963 325.508,425.599 325.73,425.504 325.679,425.406 325.33,424.165 325.004,421.809 325.004,418.753 " fill="none" stroke-width="0.5" stroke="rgb(0,0,0)" />
	<polygon points="167.306,413.44 167.312,414.708 167.048,418.566 169.204,418.798 169.223,418.585 169.557,416.845 169.653,416.525 170.466,414.653 170.624,414.382 171.155,413.684 169.038,412.575 168.358,412.178 167.147,411.396 " fill="none" stroke-width="0.5" stroke="rgb(0,0,0)" />
	<polygon points="273.502,415.613 273.831,415.556 274.073,415.52 272.067,414.332 " fill="none" stroke-width="0.5" stroke="rgb(0,0,0)" />
	<polygon points="259.922,404.571 259.334,406.015 261.892,407.292 262.457,407.6 264.561,408.853 259.922,404.571 " fill="none" stroke-width="0.5" stroke="rgb(0,0,0)" />
	<polygon points="351.085,396.061 350.518,397.008 351.808,396.936 351.119,395.992 " fill="none" stroke-width="0.5" stroke="rgb(0,0,0)" />
	<polygon points="204.58,391.185 205.083,392.305 206.68,390.632 205.56,390.62 204.192,390.469 " fill="none" stroke-width="0.5" stroke="rgb(0,0,0)" />
	<polygon points="244.433,374.518 245.415,375.34 245.41,375.323 245.142,373.824 245.121,373.594 " fill="none" stroke-width="0.5" stroke="rgb(0,0,0)" />
	<polygon points="82.89,368.583 81.844,368.658 81.4391,368.662 81.6735,369.255 82.069,371.867 82.7206,371.286 83.8492,370.435 84.5811,369.971 83.6153,368.977 83.2603,368.534 " fill="none" stroke-width="0.5" stroke="rgb(0,0,0)" />
	<polygon points="118.235,360.341 118.111,360.759 118.83,360.694 118.339,359.98 118.313,359.926 " fill="none" stroke-width="0.5" stroke="rgb(0,0,0)" />
	<polygon points="394.656,343.114 393.89,343.664 392.869,344.317 390.657,345.327 389.821,345.575 389.09,345.635 389.58,347.022 389.667,347.402 392.299,345.197 394.386,343.901 395.409,343.451 395.326,343.348 394.959,342.871 " fill="none" stroke-width="0.5" stroke="rgb(0,0,0)" />
	<polygon points="59.9341,341.586 61.1459,343.535 61.7015,341.85 62.2082,340.727 61.1294,340.415 59.7285,339.901 " fill="none" stroke-width="0.5" stroke="rgb(0,0,0)" />
	<polygon points="157.799,339.087 156.349,340.206 155.608,340.663 156.344,341.109 157.384,341.848 158.887,343.093 158.906,342.508 158.945,341.914 159.124,340.149 159.221,339.467 159.527,337.789 159.634,337.333 " fill="none" stroke-width="0.5" stroke="rgb(0,0,0)" />
	<polygon points="414.991,334.528 415.127,335.358 415.174,335.685 415.333,336.954 415.387,337.569 415.447,338.698 415.456,339.411 415.446,339.744 415.444,339.785 417.11,339.927 416.267,338.284 415.389,334.485 " fill="none" stroke-width="0.5" stroke="rgb(0,0,0)" />
	<polygon points="165.327,327.837 165.24,328.076 165.479,327.896 167.163,327.117 165.991,325.343 " fill="none" stroke-width="0.5" stroke="rgb(0,0,0)" />
	<polygon points="76.4198,312.465 75.5511,315.796 75.2741,318.361 75.2982,319.215 75.3637,319.837 75.6738,319.427 77.0915,317.888 78.3455,316.767 80.0465,315.52 80.1821,315.439 79.1268,314.753 77.6978,313.612 76.4549,312.398 76.4471,312.389 " fill="none" stroke-width="0.5" stroke="rgb(0,0,0)" />
	<polygon points="161.143,299.933 159.96,300.09 159.793,300.094 160.105,300.638 161.562,303.547 161.566,303.508 162.059,300.461 162.228,299.676 " fill="none" stroke-width="0.5" stroke="rgb(0,0,0)" />
	<polygon points="458.463,291.086 458.385,291.179 458.604,291.215 458.6,291.19 458.554,291.011 " fill="none" stroke-width="0.5" stroke="rgb(0,0,0)" />
	<polygon points="161.063,251.496 161.528,253.12 161.693,253.796 162.058,255.607 162.132,256.026 162.423,257.955 162.456,258.188 162.646,259.733 163.294,257.477 164.954,254.332 165.683,253.452 162.561,252.648 160.795,251.059 " fill="none" stroke-width="0.5" stroke="rgb(0,0,0)" />
	<polygon points="158.118,247.24 158.596,247.507 158.197,246.438 " fill="none" stroke-width="0.5" stroke="rgb(0,0,0)" />
	<polygon points="327.762,237.208 327.165,237.208 327.741,237.859 329.486,240.773 329.514,240.762 328.979,239.496 328.275,237.236 328.259,237.158 " fill="none" stroke-width="0.5" stroke="rgb(0,0,0)" />
	<polygon points="311.868,227.649 312.709,228.149 312.423,227.473 " fill="none" stroke-width="0.5" stroke="rgb(0,0,0)" />
	<polygon points="89.7214,215.665 90.0777,216.353 90.6186,217.642 90.8704,218.41 91.1628,219.562 91.2791,220.201 92.697,219.743 93.426,219.62 96.079,219.585 96.7228,219.676 98.9091,220.305 99.096,219.058 99.6179,216.762 98.0856,216.93 96.1684,216.929 92.9792,216.573 91.0278,216.123 89.7156,215.656 " fill="none" stroke-width="0.5" stroke="rgb(0,0,0)" />
	<polygon points="432.985,215.541 432.197,215.693 429.872,216.029 432.291,218.035 433.46,219.251 433.787,218.659 436.31,215.005 436.574,214.679 " fill="none" stroke-width="0.5" stroke="rgb(0,0,0)" />
	<polygon points="191.832,215.692 191.928,215.659 191.75,215.529 " fill="none" stroke-width="0.5" stroke="rgb(0,0,0)" />
	<polygon points="107.631,165.746 106.252,166.679 105.066,167.326 103.716,167.899 105.183,168.896 106.075,169.591 109.074,172.257 109.964,173.174 111.847,175.424 111.901,175.323 113.123,173.609 114.509,172.092 114.615,172.003 112.188,169.785 110.978,168.42 108.756,165.309 108.563,164.975 " fill="none" stroke-width="0.5" stroke="rgb(0,0,0)" />
	<polygon points="423.301,145.987 420.56,148.439 419.325,149.327 425.427,151.13 427.033,151.785 430.891,153.828 430.01,150.756 429.909,148.161 429.624,148.061 427.944,147.323 426.401,146.447 425.041,145.48 424.299,144.794 " fill="none" stroke-width="0.5" stroke="rgb(0,0,0)" />
	<polygon points="356.61,143.909 356.796,143.89 358.538,143.891 358.973,143.934 357.459,142.61 356.798,141.921 " fill="none" stroke-width="0.5" stroke="rgb(0,0,0)" />
	<polygon points="312.628,127.341 311.994,127.949 311.531,128.562 311.261,129.076 310.908,130.192 310.559,130.764 311.079,130.909 311.857,131.033 312.835,131.083 313.015,131.077 313.425,131.045 313.96,130.987 314.202,130.955 313.861,130.161 313.732,129.787 313.418,128.624 313.342,128.238 313.196,127.11 313.187,126.956 " fill="none" stroke-width="0.5" stroke="rgb(0,0,0)" />
	<polygon points="186.1,113.543 185.504,114.992 185.168,115.638 184.082,117.251 183.632,117.782 181.973,119.288 181.399,119.688 179.354,120.741 178.649,120.993 176.621,121.453 176.453,121.471 177.225,123.476 178.967,122.265 180.031,121.632 183.151,120.066 184.511,119.521 187.733,118.536 189.381,118.202 190.23,118.114 187.165,114.495 186.881,114.141 186.194,113.238 " fill="none" stroke-width="0.5" stroke="rgb(0,0,0)" />
	<polygon points="90.6045,118.201 89.3522,119.015 87.0141,120.261 84.6014,121.121 82.3277,121.569 82.4018,122.872 82.4102,123.357 83.7767,122.777 85.0856,122.367 86.8027,122.014 88.2058,121.871 89.9686,121.871 91.3737,122.014 93.0885,122.366 93.3717,122.454 92.9586,119.365 92.9355,119.177 92.6488,116.609 " fill="none" stroke-width="0.5" stroke="rgb(0,0,0)" />
	<polygon points="415.129,65.6007 416.739,66.8935 418.231,67.7995 419.565,68.3012 420.822,68.4598 419.906,67.5144 416.689,65.6111 413.917,64.4627 " fill="none" stroke-width="0.5" stroke="rgb(0,0,0)" />
	<polygon points="102.533,64.9622 102.317,65.1416 100.535,66.5695 99.701,67.1613 98.793,67.7281 98.9455,68.4452 99.7281,67.9832 101.786,67.2697 104.294,67.0348 104.248,66.4786 104.225,66.1145 104.121,63.603 " fill="none" stroke-width="0.5" stroke="rgb(0,0,0)" />
	<polygon points="127.712,66.4042 128.052,66.0539 127.846,65.768 " fill="none" stroke-width="0.5" stroke="rgb(0,0,0)" />
	<polygon points="398.464,38.6198 399.155,40.2793 400.181,39.8466 403.153,38.8201 403.722,38.645 403.978,38.576 401.894,37.786 398.008,36.6808 397.304,36.5046 " fill="none" stroke-width="0.5" stroke="rgb(0,0,0)" />
</svg>
