<?xml version="1.0" standalone="no" ?>
<!DOCTYPE svg PUBLIC "-//W3C//DTD SVG 1.1//EN" "http://www.w3.org/Graphics/SVG/1.1/DTD/svg11.dtd">
<svg width="500px" height="500px" xmlns="http://www.w3.org/2000/svg" version="1.1" >
	<polygon points="467.823,280.921 467.029,295.078 464.658,310.048 460.644,325.888 454.963,342.279 447.6,358.916 438.548,375.502 427.802,391.752 415.361,407.389 401.221,422.143 385.377,435.753 367.815,447.968 348.512,458.538 327.431,467.216 304.523,473.749 279.73,477.875 252.982,479.315 226.923,477.956 202.655,474.051 180.147,467.848 159.361,459.586 140.264,449.491 122.833,437.786 107.055,424.694 92.929,410.441 80.4572,395.257 69.6472,379.383 60.5072,363.063 53.0438,346.551 47.2604,330.109 43.1543,314.004 40.7136,298.516 39.8905,283.549 39.8905,32.4763 49.9736,32.3989 61.4653,32.3108 72.957,32.2226 84.4487,32.1344 95.9403,32.0462 107.432,31.958 118.924,31.8699 130.415,31.7817 141.907,31.6935 153.399,31.6053 164.89,31.5172 176.382,31.429 187.874,31.3408 197.731,31.2652 197.706,43.9368 197.681,56.8356 197.656,69.7344 197.656,69.7344 197.63,82.6332 197.579,108.431 197.579,108.431 197.554,121.33 197.503,147.127 197.503,147.127 197.478,160.026 197.452,172.925 197.452,172.925 197.427,185.824 197.401,198.722 197.376,211.621 197.376,211.621 197.35,224.52 197.351,224.646 197.438,235.941 197.439,236.038 197.603,246.855 197.607,247.032 197.904,257.338 197.915,257.608 198.4,267.37 198.424,267.752 199.153,276.936 199.204,277.455 200.231,286.028 200.331,286.712 201.712,294.64 201.898,295.526 203.687,302.776 204.018,303.897 206.272,310.437 206.837,311.813 209.611,317.608 210.525,319.213 213.874,324.229 215.244,325.947 219.223,330.151 221.068,331.764 225.733,335.124 227.908,336.39 233.314,338.871 235.548,339.659 241.75,341.228 243.793,341.575 250.848,342.199 251.947,329.779 252.805,342.219 260.066,341.718 262.119,341.411 268.466,339.933 270.754,339.17 276.249,336.752 278.51,335.474 283.216,332.152 285.145,330.484 289.124,326.296 290.547,324.504 293.86,319.485 294.793,317.816 297.503,312.004 298.065,310.585 300.233,304.016 300.552,302.876 302.241,295.586 302.414,294.7 303.685,286.727 303.775,286.053 304.691,277.434 304.734,276.935 305.357,267.706 305.376,267.349 305.767,257.546 305.775,257.307 305.997,246.967 305.999,246.826 306.114,235.986 306.115,235.929 306.185,224.626 306.185,224.52 306.159,211.621 306.133,198.722 306.107,185.823 306.082,172.924 306.082,172.924 306.056,160.026 306.004,134.228 306.004,134.228 305.978,121.329 305.901,82.6328 305.901,82.6328 305.875,69.734 305.797,31.0814 316.361,31.0135 328.115,30.9379 339.868,30.8623 351.621,30.7868 363.374,30.7112 375.128,30.6357 386.881,30.5601 410.387,30.409 422.141,30.3334 433.894,30.2579 445.647,30.1823 457.4,30.1067 467.823,30.0397 " fill="none" stroke-width="0.5" stroke="rgb(0,0,0)" />
</svg>
