<?xml version="1.0" standalone="no" ?>
<!DOCTYPE svg PUBLIC "-//W3C//DTD SVG 1.1//EN" "http://www.w3.org/Graphics/SVG/1.1/DTD/svg11.dtd">
<svg width="500px" height="500px" xmlns="http://www.w3.org/2000/svg" version="1.1" >
	<polygon points="466.123,280.874 465.336,294.897 462.991,309.705 459.014,325.4 453.38,341.656 446.074,358.163 437.09,374.624 426.425,390.752 414.079,406.269 400.051,420.907 384.335,434.407 366.919,446.52 347.778,457.001 326.873,465.607 304.149,472.088 279.544,476.182 252.98,477.613 227.103,476.263 203.017,472.387 180.689,466.234 160.075,458.04 141.138,448.03 123.852,436.423 108.205,423.439 94.1923,409.3 81.8193,394.237 71.0942,378.487 62.0262,362.296 54.6232,345.918 48.8891,329.616 44.8212,313.661 42.4063,298.336 41.5905,283.502 41.5905,34.1633 49.9867,34.0989 61.4784,34.0107 61.4784,34.0107 72.97,33.9225 84.4617,33.8343 95.9534,33.7462 95.9534,33.7462 107.445,33.658 118.937,33.5698 130.428,33.4816 141.92,33.3935 153.412,33.3053 164.903,33.2171 187.887,33.0408 196.028,32.9783 196.007,43.9334 195.981,56.8322 195.956,69.731 195.956,69.731 195.93,82.6298 195.879,108.427 195.879,108.427 195.854,121.326 195.803,147.124 195.803,147.124 195.778,160.023 195.752,172.921 195.752,172.921 195.727,185.82 195.701,198.719 195.676,211.618 195.676,211.618 195.65,224.517 195.651,224.659 195.738,235.954 195.739,236.064 195.904,246.881 195.908,247.081 196.205,257.387 196.217,257.692 196.702,267.454 196.73,267.887 197.458,277.071 197.516,277.657 198.543,286.23 198.656,287.004 200.037,294.932 200.247,295.933 202.037,303.183 202.411,304.451 204.665,310.991 205.304,312.547 208.077,318.342 209.111,320.157 212.46,325.173 214.009,327.115 217.989,331.32 220.074,333.144 224.74,336.504 227.198,337.935 232.605,340.416 235.131,341.307 241.333,342.876 243.643,343.268 250.698,343.893 251.947,329.779 252.922,343.915 260.183,343.414 262.505,343.066 268.852,341.589 271.439,340.726 276.934,338.308 279.491,336.863 284.197,333.541 286.378,331.655 290.356,327.466 291.966,325.441 295.279,320.422 296.334,318.534 299.043,312.722 299.679,311.118 301.847,304.549 302.209,303.259 303.897,295.97 304.093,294.967 305.364,286.994 305.465,286.233 306.381,277.614 306.43,277.05 307.053,267.82 307.074,267.417 307.466,257.614 307.474,257.343 307.696,247.004 307.699,246.844 307.814,236.005 307.815,235.939 307.885,224.637 307.885,224.516 307.859,211.617 307.833,198.719 307.807,185.82 307.782,172.921 307.782,172.921 307.756,160.022 307.704,134.225 307.704,134.224 307.678,121.326 307.601,82.6294 307.601,82.6293 307.575,69.7305 307.501,32.7705 316.372,32.7134 328.126,32.6379 339.879,32.5623 351.632,32.4867 363.385,32.4112 375.139,32.3356 386.892,32.2601 410.398,32.1089 422.152,32.0334 433.905,31.9578 445.658,31.8823 457.411,31.8067 457.411,31.8067 466.123,31.7507 " fill="none" stroke-width="0.5" stroke="rgb(0,0,0)" />
</svg>
