<?xml version="1.0" standalone="no" ?>
<!DOCTYPE svg PUBLIC "-//W3C//DTD SVG 1.1//EN" "http://www.w3.org/Graphics/SVG/1.1/DTD/svg11.dtd">
<svg width="500px" height="500px" xmlns="http://www.w3.org/2000/svg" version="1.1" >
	<polygon points="471.823,91.2318 468.463,93.6608 468.873,93.7449 470.452,94.2238 471.823,94.7814 471.823,281.034 471.011,295.504 468.58,310.853 464.48,327.036 458.688,343.746 451.191,360.686 441.978,377.567 431.042,394.105 418.376,410.024 403.975,425.051 387.829,438.921 369.924,451.374 350.239,462.152 328.745,471.001 305.403,477.658 280.167,481.857 252.985,483.321 226.5,481.939 201.803,477.965 178.873,471.646 157.683,463.223 138.209,452.929 120.435,440.994 104.351,427.648 89.9565,413.124 77.2521,397.657 66.2427,381.49 56.9332,364.867 49.3277,348.041 43.4282,331.269 39.2321,314.812 36.7308,298.938 35.8905,283.658 35.8905,28.5069 38.4513,28.4872 49.943,28.399 61.4346,28.3109 72.9263,28.2227 84.418,28.1345 95.9097,28.0463 118.893,27.87 130.385,27.7818 130.385,27.7818 141.876,27.6936 153.368,27.6055 153.368,27.6055 164.86,27.5173 176.351,27.4291 187.843,27.3409 187.843,27.3409 201.739,27.2343 201.732,31.0459 201.732,31.0459 201.706,43.9447 201.681,56.8435 201.656,69.7423 201.656,69.7423 201.63,82.6411 201.579,108.439 201.579,108.439 201.554,121.337 201.503,147.135 201.478,160.034 201.452,172.933 201.427,185.831 201.401,198.73 201.376,211.629 201.35,224.528 201.351,224.615 201.438,235.91 201.439,235.977 201.603,246.794 201.606,246.916 201.903,257.222 201.91,257.41 202.395,267.172 202.412,267.436 203.14,276.62 203.176,276.979 204.202,285.552 204.272,286.026 205.652,293.954 205.781,294.567 207.571,301.818 207.8,302.594 210.054,309.133 210.445,310.086 213.219,315.88 213.851,316.992 217.2,322.008 218.149,323.197 222.128,327.402 223.405,328.518 228.071,331.878 229.576,332.754 234.982,335.236 236.529,335.781 242.732,337.351 244.146,337.591 251.2,338.215 251.807,331.363 252.098,331.965 252.53,338.229 259.79,337.728 261.212,337.515 267.559,336.037 269.143,335.509 274.638,333.091 276.204,332.206 280.909,328.884 282.245,327.73 286.223,323.541 287.209,322.301 290.522,317.282 291.168,316.126 293.877,310.314 294.266,309.332 296.434,302.763 296.656,301.973 298.344,294.684 298.464,294.07 299.735,286.097 299.797,285.631 300.713,277.011 300.743,276.666 301.366,267.436 301.379,267.19 301.77,257.387 301.776,257.221 301.998,246.881 301.999,246.784 302.115,235.944 302.115,235.904 302.185,224.601 302.185,224.528 302.159,211.629 302.133,198.73 302.082,172.932 302.082,172.932 302.056,160.034 302.004,134.236 302.004,134.236 301.978,121.337 301.901,82.6408 301.901,82.6408 301.875,69.742 301.797,31.0456 301.797,31.0456 301.789,27.1071 304.582,27.0891 316.336,27.0135 328.089,26.938 339.842,26.8624 351.595,26.7869 375.102,26.6357 386.855,26.5602 410.362,26.4091 422.115,26.3335 433.868,26.2579 445.621,26.1824 457.375,26.1068 469.128,26.0312 471.823,26.0139 " fill="none" stroke-width="0.5" stroke="rgb(0,0,0)" />
	<polygon points="306.779,468.462 307.343,468.625 308.269,469.023 308.115,468.647 307.669,467.152 " fill="none" stroke-width="0.5" stroke="rgb(0,0,0)" />
	<polygon points="193.955,444.524 194.297,445.851 194.608,445.92 196.071,446.155 197.476,446.301 198.574,446.344 200.04,446.264 201.367,446.03 202.477,445.667 203.306,445.227 203.896,444.742 204.218,444.324 202.991,444.416 201.615,444.413 195.396,443.924 193.874,443.672 193.645,443.613 " fill="none" stroke-width="0.5" stroke="rgb(0,0,0)" />
	<polygon points="316.983,421.712 316.914,421.727 317.05,422.084 317.415,423.29 317.745,424.742 317.817,425.09 317.986,425.995 318.339,426.249 318.904,426.691 319.77,427.426 320.776,428.427 320.896,428.567 321.244,428.234 321.699,427.828 322.407,427.236 323.052,426.745 323.753,426.26 324.678,425.698 325.35,425.344 325.041,424.246 324.704,421.809 324.704,419.167 " fill="none" stroke-width="0.5" stroke="rgb(0,0,0)" />
	<polygon points="167.605,413.417 167.611,414.729 167.377,418.149 169.011,418.105 169.27,416.758 169.366,416.439 170.207,414.502 170.364,414.231 170.703,413.786 168.899,412.841 168.195,412.43 167.493,411.977 " fill="none" stroke-width="0.5" stroke="rgb(0,0,0)" />
	<polygon points="259.715,405.87 262.026,407.023 262.298,407.172 260.036,405.084 " fill="none" stroke-width="0.5" stroke="rgb(0,0,0)" />
	<polygon points="351.065,396.677 351.242,396.668 351.148,396.539 " fill="none" stroke-width="0.5" stroke="rgb(0,0,0)" />
	<polygon points="204.844,391.042 205.175,391.78 205.993,390.923 205.527,390.919 204.729,390.83 " fill="none" stroke-width="0.5" stroke="rgb(0,0,0)" />
	<polygon points="244.842,374.472 244.974,374.582 244.933,374.35 " fill="none" stroke-width="0.5" stroke="rgb(0,0,0)" />
	<polygon points="82.9292,368.881 81.8697,368.956 81.9701,369.21 82.2828,371.275 82.521,371.062 83.6885,370.182 84.1099,369.914 83.3814,369.164 83.1321,368.854 " fill="none" stroke-width="0.5" stroke="rgb(0,0,0)" />
	<polygon points="390.742,345.615 389.907,345.863 389.5,345.896 389.842,346.864 392.04,345.022 " fill="none" stroke-width="0.5" stroke="rgb(0,0,0)" />
	<polygon points="394.844,343.348 394.759,343.409 394.935,343.332 394.908,343.297 " fill="none" stroke-width="0.5" stroke="rgb(0,0,0)" />
	<polygon points="60.2238,341.484 61.063,342.834 61.428,341.726 61.7927,340.919 61.026,340.697 60.0857,340.352 " fill="none" stroke-width="0.5" stroke="rgb(0,0,0)" />
	<polygon points="158.006,339.304 156.507,340.462 156.184,340.661 156.5,340.852 157.575,341.617 158.608,342.472 158.647,341.883 158.826,340.119 158.926,339.413 159.144,338.216 " fill="none" stroke-width="0.5" stroke="rgb(0,0,0)" />
	<polygon points="415.63,336.917 415.687,337.553 415.747,338.682 415.756,339.419 415.753,339.51 416.606,339.583 415.974,338.352 415.616,336.799 " fill="none" stroke-width="0.5" stroke="rgb(0,0,0)" />
	<polygon points="165.739,327.453 166.724,326.997 166.109,326.066 " fill="none" stroke-width="0.5" stroke="rgb(0,0,0)" />
	<polygon points="75.847,315.85 75.5745,318.373 75.5942,319.071 76.8709,317.685 78.1681,316.525 79.6422,315.444 78.9397,314.988 77.5106,313.847 76.6011,312.958 " fill="none" stroke-width="0.5" stroke="rgb(0,0,0)" />
	<polygon points="161.183,300.23 160.285,300.349 160.373,300.503 161.413,302.579 161.762,300.413 161.835,300.076 " fill="none" stroke-width="0.5" stroke="rgb(0,0,0)" />
	<polygon points="161.816,253.038 161.987,253.736 162.352,255.547 162.428,255.981 162.72,257.91 162.753,258.152 162.764,258.237 163.006,257.394 164.723,254.141 165.156,253.618 162.549,252.98 161.554,252.121 " fill="none" stroke-width="0.5" stroke="rgb(0,0,0)" />
	<polygon points="327.82,237.504 327.998,237.705 328.224,238.083 328.037,237.482 " fill="none" stroke-width="0.5" stroke="rgb(0,0,0)" />
	<polygon points="90.3441,216.215 90.9036,217.549 91.1555,218.317 91.458,219.509 91.5135,219.814 92.6473,219.447 93.3763,219.325 96.1208,219.288 96.7646,219.379 98.6635,219.925 98.8035,218.991 99.232,217.106 98.1184,217.229 96.1351,217.227 92.9459,216.871 90.9272,216.406 90.3333,216.194 " fill="none" stroke-width="0.5" stroke="rgb(0,0,0)" />
	<polygon points="433.055,215.833 432.239,215.989 430.583,216.229 432.482,217.804 433.394,218.753 433.54,218.489 435.835,215.165 " fill="none" stroke-width="0.5" stroke="rgb(0,0,0)" />
	<polygon points="107.822,165.977 106.396,166.943 105.21,167.59 104.338,167.959 105.351,168.647 106.275,169.367 109.273,172.033 110.194,172.982 111.82,174.924 112.901,173.407 114.178,172.01 111.986,170.007 110.734,168.594 108.512,165.483 108.482,165.432 " fill="none" stroke-width="0.5" stroke="rgb(0,0,0)" />
	<polygon points="423.501,146.21 420.76,148.662 419.995,149.212 425.512,150.842 427.173,151.52 430.408,153.233 429.722,150.839 429.616,148.375 429.503,148.336 427.824,147.598 426.227,146.692 424.867,145.724 424.326,145.224 " fill="none" stroke-width="0.5" stroke="rgb(0,0,0)" />
	<polygon points="356.941,143.592 358.126,143.592 357.261,142.835 357.035,142.6 " fill="none" stroke-width="0.5" stroke="rgb(0,0,0)" />
	<polygon points="312.818,127.574 312.219,128.149 311.785,128.723 311.539,129.192 311.194,130.282 311.015,130.58 311.143,130.615 311.888,130.734 312.838,130.782 312.999,130.778 313.397,130.747 313.769,130.706 313.577,130.259 313.448,129.885 313.124,128.682 313.048,128.296 312.943,127.488 " fill="none" stroke-width="0.5" stroke="rgb(0,0,0)" />
	<polygon points="185.77,115.131 185.434,115.776 184.311,117.445 183.86,117.976 182.144,119.535 181.57,119.934 179.455,121.024 178.75,121.275 176.864,121.703 177.368,123.011 178.796,122.019 179.897,121.364 183.017,119.798 184.424,119.234 187.645,118.249 189.35,117.904 189.634,117.875 186.936,114.689 186.642,114.322 186.292,113.862 " fill="none" stroke-width="0.5" stroke="rgb(0,0,0)" />
	<polygon points="90.7888,118.438 89.4934,119.279 87.1553,120.526 84.6594,121.415 82.642,121.813 82.7014,122.855 82.7023,122.909 83.6871,122.49 84.996,122.081 86.7723,121.716 88.1754,121.573 89.999,121.573 91.4041,121.716 93.0145,122.046 92.6613,119.405 92.6374,119.21 92.4102,117.175 " fill="none" stroke-width="0.5" stroke="rgb(0,0,0)" />
	<polygon points="415.326,65.374 416.912,66.6473 418.363,67.5286 419.637,68.0079 420.012,68.0553 419.719,67.7521 416.555,65.8801 415.321,65.369 " fill="none" stroke-width="0.5" stroke="rgb(0,0,0)" />
	<polygon points="102.728,65.1901 102.504,65.3757 100.723,66.8036 99.8599,67.4158 99.1295,67.8717 99.1528,67.9814 99.6298,67.6997 101.688,66.9863 103.971,66.7631 103.949,66.5036 103.925,66.1269 103.847,64.2326 " fill="none" stroke-width="0.5" stroke="rgb(0,0,0)" />
	<polygon points="398.727,38.4756 399.314,39.8871 400.083,39.563 403.04,38.5416 401.799,38.0711 397.931,36.9707 397.897,36.9623 " fill="none" stroke-width="0.5" stroke="rgb(0,0,0)" />
</svg>
