<?xml version="1.0" standalone="no" ?>
<!DOCTYPE svg PUBLIC "-//W3C//DTD SVG 1.1//EN" "http://www.w3.org/Graphics/SVG/1.1/DTD/svg11.dtd">
<svg width="500px" height="500px" xmlns="http://www.w3.org/2000/svg" version="1.1" >
	<polygon points="480.823,83.5513 480.792,83.6028 475.477,90.0747 473.505,91.929 471.855,93.1212 473.132,93.64 475.046,94.6591 476.769,95.8181 478.505,97.2804 479.874,98.7119 480.823,99.9382 480.823,193.637 480.125,194.445 478.546,195.519 478.068,195.71 480.405,198.304 480.823,198.865 480.823,250.058 480.626,250.361 479.781,251.54 480.271,251.715 480.823,251.997 480.823,281.286 479.971,296.463 479.675,298.334 478.519,299.763 477.666,300.698 475.999,302.318 477.721,305.616 478.307,306.974 477.405,312.666 473.11,329.62 467.07,347.047 459.27,364.67 453.992,374.34 452.189,374.567 452.434,377.195 449.695,382.213 438.331,399.399 425.161,415.952 410.17,431.593 399.388,440.855 398.637,440.619 398.454,441.657 393.345,446.047 374.668,459.037 354.126,470.285 331.702,479.516 319.54,482.985 317.063,481.704 316.422,481.284 316.293,482.388 315.895,483.861 315.799,484.052 307.382,486.452 281.151,490.817 252.993,492.333 225.548,490.902 199.887,486.773 176.007,480.192 172.184,478.672 171.13,478.079 169.81,477.699 169.711,477.689 153.907,471.407 133.585,460.665 125.337,455.126 125.184,454.091 123.527,453.911 115.039,448.212 98.2672,434.295 83.2685,419.161 70.0408,403.057 67.7485,399.691 67.7454,399.556 67.6337,399.522 58.5824,386.23 48.8916,368.927 40.9666,351.394 34.8057,333.879 32.9347,326.541 35.0646,319.68 35.6653,318.169 36.6577,316.142 34.8589,315.576 30.5661,312.973 29.694,312.101 27.7694,299.888 26.8905,283.906 26.8905,231.165 27.34,230.392 26.8905,230.133 26.8905,157.155 27.542,155.706 29.9685,151.274 31.1016,149.605 31.2323,149.448 29.1539,148.369 27.4095,147.232 26.8905,146.816 26.8905,38.5673 29.731,36.4872 30.2439,36.1344 30.3226,36.0836 29.6417,35.8691 28.0512,35.2215 26.8905,34.6346 26.8905,19.5757 38.3822,19.4875 49.8739,19.3993 61.3656,19.3111 72.8572,19.223 84.3489,19.1348 95.8406,19.0466 107.332,18.9584 118.824,18.8703 130.316,18.7821 141.807,18.6939 153.299,18.6057 164.791,18.5175 176.282,18.4294 187.774,18.3412 210.757,18.1648 210.732,31.0636 210.706,43.9624 210.681,56.8612 210.656,69.76 210.63,82.6588 210.62,88.0134 210.079,88.2393 208.674,88.6895 210.349,90.0832 210.615,90.3153 210.579,108.456 210.554,121.355 210.503,147.153 210.478,160.052 210.452,172.95 210.436,181.069 210.348,181.203 208.566,183.445 207.236,184.837 206.24,185.704 206.883,186.144 208.512,187.522 210.419,189.5 210.401,198.748 210.376,211.647 210.355,222.104 210.265,222.197 210.355,222.28 210.35,224.546 210.438,235.84 210.602,246.657 210.899,256.963 211.382,266.698 210.393,267.896 209.425,269.183 209.546,269.306 211.648,271.076 211.735,271.151 212.112,275.909 213.138,284.482 214.519,292.41 216.308,299.661 218.563,306.2 221.336,311.994 224.685,317.011 228.665,321.215 233.33,324.575 238.737,327.056 244.939,328.626 251.957,329.247 252.488,329.21 252.884,330.029 253.268,329.449 253.518,329.139 259.171,328.749 265.518,327.271 271.013,324.853 275.719,321.532 279.698,317.343 283.01,312.324 285.72,306.511 287.888,299.942 289.576,292.653 290.848,284.68 291.763,276.06 292.386,266.831 292.778,257.028 293,246.688 293.115,235.848 293.185,224.546 293.159,211.647 293.133,198.748 293.125,194.385 294.065,193.604 293.728,192.986 293.119,191.55 293.107,185.849 293.094,178.956 293.729,177.459 294.377,176.273 294.531,176.045 293.768,175.551 293.086,174.917 293.082,172.95 293.056,160.052 293.004,134.254 292.978,121.355 292.957,111.007 294.128,108.443 294.301,108.143 294.197,108.121 292.951,107.65 292.901,82.6588 292.875,69.76 292.797,31.0636 292.771,18.1648 304.525,18.0893 316.278,18.0137 328.031,17.9382 339.784,17.8626 351.538,17.787 363.291,17.7115 375.044,17.6359 382.69,17.5868 385.332,19.5263 385.656,18.819 386.282,18.0909 386.981,17.5592 410.304,17.4092 422.057,17.3337 433.81,17.2581 445.564,17.1826 457.317,17.107 469.07,17.0314 480.823,16.9559 " fill="none" stroke-width="0.5" stroke="rgb(0,0,0)" />
	<polygon points="318.859,422.726 318.926,422.946 319.257,424.399 319.341,424.806 319.398,425.111 319.907,425.509 320.773,426.245 320.957,426.427 321.414,426.046 322.17,425.47 322.87,424.985 323.537,424.581 323.154,421.809 323.154,421.31 " fill="none" stroke-width="0.5" stroke="rgb(0,0,0)" />
	<polygon points="107.293,168.199 107.305,168.208 110.303,170.875 111.383,171.987 111.729,172.401 111.757,172.361 111.988,172.109 110.94,171.151 109.473,169.495 108.138,167.627 " fill="none" stroke-width="0.5" stroke="rgb(0,0,0)" />
	<polygon points="423.214,148.547 425.951,149.356 427.899,150.15 428.172,150.295 428.119,149.421 427.2,149.017 425.329,147.955 424.52,147.379 " fill="none" stroke-width="0.5" stroke="rgb(0,0,0)" />
	<polygon points="91.0339,120.12 91.1953,120.137 91.1804,120.025 " fill="none" stroke-width="0.5" stroke="rgb(0,0,0)" />
	<polygon points="186.477,116.986 186.773,116.895 186.642,116.74 " fill="none" stroke-width="0.5" stroke="rgb(0,0,0)" />
</svg>
