<?xml version="1.0" standalone="no" ?>
<!DOCTYPE svg PUBLIC "-//W3C//DTD SVG 1.1//EN" "http://www.w3.org/Graphics/SVG/1.1/DTD/svg11.dtd">
<svg width="500px" height="500px" xmlns="http://www.w3.org/2000/svg" version="1.1" >
	<polygon points="476.323,79.4215 476.117,79.7631 470.802,86.235 469.96,87.0259 462.927,92.1103 462.12,92.5745 453.604,96.3653 452.928,96.6036 443.163,99.1949 442.624,99.3032 431.846,100.789 431.417,100.827 419.862,101.302 419.632,101.305 416.345,101.273 416.257,101.271 412.925,101.173 412.839,101.169 409.47,101.006 409.385,101.001 405.988,100.772 405.905,100.765 402.489,100.471 402.405,100.463 398.98,100.104 398.896,100.094 395.469,99.6696 395.385,99.6582 391.966,99.1685 391.905,99.1593 391.43,99.0846 391.053,99.0087 390.668,98.9137 390.1,98.7331 389.796,98.6138 389.011,98.2129 388.78,98.065 387.89,97.3148 387.724,97.1341 387.014,96.0987 386.906,95.8811 386.549,94.8782 386.49,94.6195 386.385,93.8839 386.367,93.5798 387.081,90.8713 387.615,90.0465 389.055,88.6462 390.462,87.7907 390.755,87.6274 392.649,86.6608 394.588,85.5524 396.272,84.2817 397.548,82.8278 398.39,81.0695 398.769,78.4071 398.729,77.3246 398.595,75.9921 398.397,74.6665 398.161,73.3774 397.911,72.1457 397.911,72.1439 397.686,71.0319 397.662,70.904 397.503,69.9806 397.498,69.9406 397.406,70.3945 394.859,78.5761 394.48,79.4527 390.504,86.4888 389.953,87.2602 384.767,93.1096 384.095,93.7273 377.918,98.3486 377.178,98.7984 370.23,102.15 369.457,102.439 361.957,104.481 361.17,104.622 353.339,105.311 352.607,105.316 347.313,104.918 346.678,104.824 341.935,103.775 341.407,103.624 337.213,102.14 336.813,101.977 333.164,100.276 332.905,100.145 329.797,98.4443 329.708,98.3941 327.231,96.9643 326.687,96.6839 326.608,96.7841 325.656,98.1505 324.639,99.62 324.509,99.7987 324.098,100.334 324.185,100.346 327.468,101.019 328.04,101.176 330.781,102.127 331.271,102.331 333.516,103.421 333.885,103.622 335.681,104.712 335.882,104.842 336.977,105.588 337.024,105.564 337.618,105.254 337.784,105.171 338.378,104.891 338.819,104.711 339.389,104.513 340.249,104.306 340.79,104.231 342.325,104.282 342.959,104.414 344.782,105.249 345.258,105.615 346.35,106.824 346.692,107.378 347.137,108.336 347.366,109.034 347.523,109.664 347.662,110.46 347.713,110.857 347.784,111.706 347.798,111.945 347.824,112.803 347.826,112.92 347.83,113.742 347.824,114.002 347.673,116.834 347.631,117.249 347.166,120.408 347.091,120.798 346.523,123.176 347.344,123.339 348.857,124.798 349.606,125.97 349.871,126.448 350.532,127.828 350.685,128.188 351.256,129.705 351.353,129.993 351.828,131.575 351.895,131.823 352.272,133.397 352.322,133.633 352.596,135.128 352.635,135.383 352.802,136.726 352.831,137.055 352.888,138.175 352.873,138.827 352.247,145.428 352.056,146.363 350.748,150.486 351.084,150.209 351.803,149.725 352.932,149.113 353.745,148.77 354.994,148.383 355.875,148.204 357.216,148.069 358.118,148.069 359.457,148.204 360.339,148.383 361.587,148.77 362.399,149.113 363.529,149.725 364.246,150.209 365.23,151.02 365.838,151.628 366.65,152.611 367.134,153.329 367.368,153.76 367.421,153.435 367.454,153.283 367.635,152.664 367.678,152.548 368.07,151.749 368.121,151.666 368.869,150.754 368.927,150.7 370.082,149.914 370.145,149.885 371.456,149.495 371.521,149.486 373.859,149.79 374.33,149.985 375.047,150.363 375.799,150.849 376.788,151.457 378.064,152.107 379.775,152.771 382.034,153.373 384.937,153.817 388.611,153.993 390.605,153.933 392.702,153.768 394.924,153.526 397.3,153.239 397.327,153.235 399.86,152.945 399.954,152.936 402.663,152.683 402.807,152.672 405.737,152.493 405.916,152.485 409.113,152.418 409.612,152.435 416.945,153.094 417.817,153.261 424.236,155.158 425.067,155.497 430.753,158.508 431.414,158.936 436.546,162.938 436.997,163.342 441.755,168.212 442.028,168.518 446.591,174.132 446.734,174.319 451.282,180.554 451.333,180.625 455.484,186.557 458.029,188.056 458.04,188.062 462.102,190.469 462.319,190.607 466.708,193.56 467.073,193.832 471.442,197.463 471.909,197.912 475.911,202.354 476.323,202.907 476.323,245.827 475.933,246.492 475.71,246.835 471.525,252.671 471.47,252.746 467.108,258.569 466.818,258.994 468.731,257.827 470.145,257.266 473.076,256.649 474.471,256.576 475.94,256.729 476.323,256.816 476.323,281.16 475.618,293.729 473.814,295.96 473.45,296.358 470.492,299.233 467.811,300.482 466.948,300.277 467.071,300.383 467.705,301.056 470.031,304.101 470.443,304.749 472.359,308.417 472.623,309.031 473.173,310.621 472.993,311.76 468.795,328.328 462.879,345.396 455.23,362.678 452.107,368.401 450.153,367.953 448.111,364.909 446.965,358.297 444.55,354.483 440.864,351.614 436.033,349.192 430.816,346.869 430.369,346.64 425.74,343.926 424.638,343.017 421.366,339.3 420.359,337.339 419.118,331.966 419.021,330.548 419.209,328.474 417.234,329.791 415.97,330.139 415.26,330.274 413.473,330.468 413.315,330.482 411.338,330.626 410.082,330.758 410.242,331.777 410.49,333.174 410.746,334.596 410.758,334.667 410.982,336.036 411.007,336.205 411.165,337.474 411.193,337.792 411.253,338.921 411.258,339.29 411.248,339.623 411.227,339.951 411.192,340.286 411.122,340.745 411.055,341.067 410.876,341.695 410.768,341.99 410.37,342.809 410.213,343.064 409.449,343.995 409.41,344.031 411.622,343.767 412.536,343.752 417.884,344.208 418.641,344.339 423.936,345.725 424.695,345.999 429.732,348.344 430.481,348.785 435.059,352.118 435.755,352.745 439.669,357.092 440.242,357.888 443.29,363.279 443.676,364.177 445.653,370.639 445.831,371.539 446.496,378.681 445.837,379.89 434.686,396.752 421.768,412.988 407.073,428.322 399.829,434.544 399.396,434.34 398.611,433.866 397.196,432.8 396.656,432.321 395.375,430.986 394.972,430.502 393.879,428.986 393.551,428.458 392.701,426.852 392.422,426.207 391.872,424.601 391.666,423.719 391.471,422.203 391.443,421.347 391.472,420.873 391.564,420.208 391.671,419.707 391.909,418.941 392.123,418.42 392.517,417.673 392.622,417.511 389.169,417.143 388.356,416.979 384.796,415.915 384.16,415.671 380.822,414.091 380.305,413.804 377.308,411.868 376.854,411.533 375.193,410.138 375.511,410.938 375.861,412.74 375.943,413.597 375.943,417.615 375.942,417.721 375.925,418.444 375.912,418.694 375.855,419.409 375.819,419.725 375.714,420.423 375.638,420.81 375.479,421.464 376.086,421.009 379.308,420.14 380.878,420.324 381.826,420.541 383.459,421.105 384.301,421.498 385.913,422.464 386.648,423.014 388.154,424.402 388.757,425.082 390.075,426.911 390.518,427.674 391.563,429.966 391.836,430.749 392.525,433.524 392.644,434.268 392.892,437.545 392.837,438.662 392.448,440.885 390.587,442.484 372.296,455.205 352.182,466.219 330.224,475.258 322.197,477.547 319.841,476.329 319.071,475.825 316.872,474.039 316.224,473.392 314.498,471.279 314.003,470.531 312.759,468.172 312.427,467.36 311.675,464.837 311.508,463.985 311.255,461.38 311.244,460.651 311.485,456.967 311.553,456.428 312.225,452.863 312.337,452.401 313.36,448.996 313.498,448.604 314.749,445.507 314.014,445.817 313.341,446.04 312.59,446.224 311.898,446.338 311.201,446.397 311.135,446.399 310.739,447.546 309.581,451.665 309.539,451.806 308.029,456.568 307.87,456.994 305.837,461.699 305.428,462.443 302.662,466.515 301.691,467.547 297.983,470.413 296.211,471.244 291.353,472.327 289.922,472.412 285.912,472.008 285.071,471.841 281.197,470.678 280.477,470.393 276.795,468.551 276.2,468.193 272.765,465.75 272.279,465.35 269.146,462.383 268.749,461.955 266.108,458.706 266.966,460.304 270.139,464.259 273.692,467.341 277.517,469.674 281.493,471.347 285.472,472.439 289.286,473.029 292.832,473.209 295.385,473.181 297.31,473.107 298.654,473.008 299.587,472.9 300.333,472.786 301.029,472.675 301.238,472.647 301.954,472.568 302.292,472.544 303.156,472.514 303.672,472.525 304.542,472.595 305.429,472.756 306.098,472.949 307.138,473.397 307.632,473.688 308.617,474.474 308.962,474.839 309.656,475.801 309.878,476.216 310.239,477.101 310.365,477.54 310.503,478.21 310.559,478.649 310.594,479.081 310.606,479.496 310.453,480.81 310.427,480.904 306.392,482.055 280.659,486.337 266.861,487.08 266.424,486.657 264.946,484.969 264.609,484.512 261.152,486.272 260.9,486.392 258.241,487.544 252.989,487.827 226.024,486.421 200.845,482.369 180.175,476.673 176.982,474.43 173.482,472.461 170.954,471.733 167.6,471.401 165.826,471.302 155.795,467.315 135.897,456.797 131.7,453.979 130.753,452.095 131.351,449.198 133.262,447.598 127.235,448.14 126.347,448.132 122.346,447.698 117.737,444.603 101.309,430.972 86.6125,416.142 73.7872,400.529 73.7708,399.793 74.1803,394.665 74.2953,393.952 75.3803,389.525 74.8244,391.126 72.9899,393.447 70.1111,394.127 69.0556,393.616 62.4125,383.86 52.9124,366.897 45.1472,349.718 39.1169,332.574 38.3411,329.531 40.8425,321.474 41.0988,320.83 45.2954,312.26 45.5254,311.847 50.3362,304.183 50.4659,303.988 50.7476,303.587 50.1258,304.421 49.7608,304.851 47.567,307.13 46.9067,307.695 44.6931,309.246 43.2861,309.904 41.1697,310.476 38.644,310.425 36.675,309.805 34.8439,308.695 33.5012,307.352 32.2501,299.413 31.3905,283.782 31.3905,235.866 32.2296,233.938 32.7518,233.039 34.5903,230.581 36.3806,229.157 38.3572,228.287 40.5665,227.922 41.1068,227.97 42.0319,228.151 42.4802,228.288 43.4904,228.741 43.8529,228.961 44.7616,229.686 45.0445,229.98 45.6927,230.837 45.902,231.196 46.2741,232.012 46.416,232.429 46.5904,233.112 46.6711,233.579 46.7312,234.12 46.7568,234.628 46.7603,234.994 46.7305,235.954 46.7227,236.112 46.6442,237.295 46.6403,237.349 46.5334,238.711 47.784,232.525 47.8817,232.133 49.6141,226.312 50.0092,225.382 51.226,223.228 50.099,223.883 49.7878,224.048 47.0988,225.343 46.7006,225.511 44.1731,226.441 43.6602,226.595 41.3004,227.156 40.6453,227.262 38.4594,227.45 37.5516,227.436 35.0152,227.139 33.8632,226.847 31.6313,225.952 31.3905,225.813 31.3905,201.963 32.3978,203.385 34.0414,205.308 35.5865,206.751 37.0474,207.791 38.4698,208.514 39.9334,208.997 41.5297,209.279 43.3715,209.376 44.8771,209.336 46.5315,209.211 48.2941,209.004 50.1755,208.718 52.1852,208.356 54.3322,207.924 56.625,207.426 59.0851,206.867 60.6303,207.039 60.3624,206.572 59.9762,205.691 59.3389,203.676 59.1512,202.761 58.9293,200.513 58.939,199.54 58.9576,199.383 58.6313,199.765 58.3627,200.053 56.6042,201.782 56.2863,202.066 54.5061,203.512 54.1325,203.785 52.3456,204.953 51.9108,205.204 50.1321,206.103 49.6319,206.318 47.8765,206.952 47.31,207.116 45.5927,207.491 44.9649,207.583 43.3007,207.707 42.5142,207.696 40.4231,207.485 39.4812,207.286 37.5566,206.659 36.6379,206.24 34.9146,205.208 34.1114,204.594 32.6239,203.166 32.0042,202.428 31.3905,201.514 31.3905,162.514 32.5605,159.253 32.8489,158.611 35.2754,154.179 35.7588,153.467 39.2981,149.199 39.9684,148.543 43.759,145.541 41.8913,145.676 41.1502,145.668 38.4168,145.412 37.5741,145.251 35.0387,144.511 34.2271,144.186 31.9408,142.999 31.3905,142.64 31.3905,112.256 32.4682,111.469 33.0408,111.113 35.2938,109.938 38.2204,109.508 40.7817,110.987 41.8087,114.511 41.7949,113.685 42.0188,111.318 42.1798,110.479 42.8283,108.261 43.1462,107.465 44.1842,105.448 44.6524,104.72 45.5081,103.636 41.6297,105.152 40.8086,105.386 36.7836,106.129 35.6981,106.196 35.0057,106.154 34.3999,106.077 33.7664,105.951 33.0606,105.75 32.4962,105.539 31.7094,105.152 31.3905,104.955 31.3905,90.6532 33.567,87.3634 33.8352,86.9992 37.68,82.2932 35.6188,83.3525 34.6112,83.726 32.4857,84.2356 31.3905,84.2796 31.3905,61.2577 31.5414,61.1622 32.7516,60.5248 33.2242,60.3097 34.3836,59.861 33.3425,59.7947 32.6974,59.7065 31.3905,59.4301 31.3905,42.7707 33.3055,41.3683 33.5243,41.2178 37.9844,38.3398 38.0439,38.302 42.4588,35.5501 45.1002,33.8155 43.9833,33.4859 39.7806,32.4457 39.7567,32.4397 35.4573,31.3505 35.2102,31.2804 31.4597,30.0987 31.3905,30.0706 31.3905,24.0413 38.4167,23.9874 49.9084,23.8992 61.4001,23.811 61.4001,23.811 72.8918,23.7228 79.6381,23.6711 79.7534,23.8815 80.0254,27.6128 79.2213,29.7754 78.2155,31.3588 76.0958,33.5192 75.5118,34.0205 72.515,36.1766 72.274,36.3385 68.8386,38.4883 68.8318,38.4926 65.5123,40.5616 63.1013,42.2758 66.0361,42.8201 70.6529,43.3016 73.5622,43.5802 73.1697,42.3382 73.1064,41.9124 73.6715,38.982 74.4299,37.6832 76.0111,36.0874 78.0106,34.895 78.6077,34.5966 81.4345,33.4372 81.5793,33.3807 84.7551,32.2045 87.7164,31.0033 89.8703,29.8586 90.3438,29.4408 90.3311,29.4314 89.4584,29.0381 88.1628,28.6021 88.1469,28.5967 86.8327,28.149 86.148,27.8503 85.2184,27.349 83.3752,25.4899 83.0225,24.8223 83.0142,23.6452 84.3834,23.6346 95.8751,23.5465 95.8751,23.5465 107.367,23.4583 115.213,23.3981 115.317,23.5233 116.337,24.4751 117.266,24.9534 118.804,25.1748 120.281,24.9634 121.251,24.4792 122.342,23.5196 122.503,23.3422 130.35,23.2819 141.842,23.1938 153.333,23.1056 153.757,23.1023 153.827,24.2161 153.46,25.0351 151.943,26.8733 150.974,27.5549 150.281,27.9554 148.911,28.5919 148.811,28.637 147.389,29.2558 146.308,29.8222 145.967,30.0844 146.615,30.7898 148.616,32.2736 151.288,33.9431 154.113,35.6508 154.296,35.7676 156.784,37.4411 157.329,37.8723 159.089,39.501 160.182,41.0617 160.85,42.6516 161.172,44.8985 161.125,45.3167 160.847,46.4456 160.713,46.7879 160.104,47.8763 159.896,48.149 159.079,48.9769 158.81,49.1861 157.987,49.6955 157.669,49.8475 156.96,50.1162 156.922,50.127 156.95,50.1325 160.013,50.9449 160.308,51.034 163.687,52.1824 163.81,52.2264 167.342,53.543 167.345,53.5442 170.81,54.8391 173.961,55.9184 175.349,56.2916 174.467,55.012 171.319,51.493 167.499,47.6409 163.597,43.7633 163.484,43.6471 160.071,40.0012 159.757,39.6271 157.342,36.4107 156.696,35.2037 155.78,32.6029 155.981,29.1344 157.034,26.9771 158.445,25.3013 161.359,23.1992 161.632,23.0419 164.825,23.0174 176.317,22.9292 187.809,22.8411 206.248,22.6996 206.238,28.1747 205.612,28.5941 204.982,28.9465 201.573,30.5105 201.328,30.6144 197.275,32.1902 197.229,32.2076 195.217,32.9653 196.26,32.7396 196.545,32.6875 198.746,32.3575 199.003,32.3265 201.265,32.1196 201.53,32.1032 203.749,32.0315 203.944,32.0294 205.544,32.0472 205.791,32.0567 206.23,32.0858 206.206,43.9536 206.185,54.6103 204.098,54.3195 203.326,54.1416 200.82,53.3262 200.354,53.1452 198.211,52.173 203.192,57.2611 203.368,57.4514 206.174,60.6677 206.156,69.7512 206.13,82.6499 206.129,83.094 206.007,83.1219 205.323,83.2234 204.194,83.3028 203.422,83.2907 199.441,82.8854 198.897,82.7961 194.207,81.7274 193.934,81.656 188.814,80.1451 188.683,80.1045 183.409,78.3726 183.379,78.3626 183.165,78.2907 183.443,78.4053 187.215,80.4445 187.532,80.6334 192.073,83.5941 192.248,83.7142 197.134,87.2382 197.26,87.3331 202.064,91.0619 202.183,91.1579 206.107,94.4241 206.079,108.448 206.054,121.346 206.051,122.787 204.836,123.049 201.698,122.58 199.373,121.284 198.404,120.557 194.889,117.089 194.615,116.793 190.371,111.781 190.224,111.598 185.714,105.67 185.598,105.511 181.286,99.2971 181.162,99.1085 180.028,97.2865 180.36,98.1279 180.475,98.4564 181.939,103.219 182.094,103.918 182.649,107.889 182.688,108.724 182.645,109.616 182.594,110.113 182.462,110.939 182.318,111.558 182.088,112.302 181.779,113.052 181.443,113.697 180.882,114.532 180.431,115.062 179.573,115.842 178.999,116.241 177.941,116.786 177.237,117.037 176.188,117.276 175.344,117.363 173.713,117.233 170.354,116.332 169.229,115.859 166.729,114.379 168.946,116.773 169.493,117.499 171.838,121.368 172.189,122.083 173.876,126.465 174.077,127.141 174.876,130.879 175.082,130.677 177.944,128.131 178.365,127.799 181.365,125.713 181.916,125.386 185.036,123.819 185.739,123.538 188.961,122.553 189.813,122.38 193.117,122.038 194.079,122.042 198.112,122.492 199.178,122.745 202.632,124.026 203.638,124.552 206.044,126.227 206.003,147.144 205.978,160.043 205.952,172.942 205.944,176.936 205.611,177.439 203.829,179.681 203.262,180.275 201.121,182.14 200.407,182.649 197.939,184.068 197.094,184.444 194.331,185.347 193.402,185.545 190.378,185.861 189.246,185.837 183.919,185.043 182.616,184.639 178.124,182.456 177.12,181.788 176.809,181.515 177.995,183.743 178.252,184.322 179.29,187.181 179.301,187.955 180.285,187.657 180.758,187.541 184.61,186.815 185.154,186.747 189.098,186.494 189.735,186.498 193.041,186.755 193.761,186.87 196.826,187.619 197.565,187.87 200.328,189.081 201.064,189.49 203.462,191.134 204.157,191.722 205.911,193.541 205.901,198.739 205.876,211.638 205.863,218.002 205.441,218.683 203.143,220.546 200.185,220.579 197.279,217.513 196.648,215.233 195.885,213.778 194.864,212.603 193.477,211.59 191.596,210.722 189.152,210.046 186.135,209.616 182.531,209.466 180.768,209.506 180.822,209.539 183.721,211.654 184.476,212.35 186.448,214.638 187.06,215.553 188.269,217.954 188.618,218.898 189.224,221.353 189.346,222.128 189.512,224.577 189.487,225.443 189,229.317 188.717,230.415 187.37,233.809 186.896,234.699 184.86,237.659 184.347,238.279 181.795,240.85 181.345,241.247 178.449,243.475 178.101,243.718 175.033,245.647 174.795,245.787 171.727,247.463 171.603,247.527 168.707,248.995 165.776,249.391 163.232,247.881 162.271,244.045 162.516,242.896 162.731,241.781 162.921,240.662 163.084,239.54 163.215,238.416 163.313,237.288 163.373,236.157 163.393,235.088 163.288,232.952 162.957,230.863 162.352,228.749 161.417,226.586 160.08,224.351 158.259,222.03 157.372,221.14 156.504,222.751 156.419,222.902 155.218,224.94 154.166,226.77 153.411,228.321 152.993,229.582 152.971,229.764 153.858,230.159 155.274,233.63 155.214,235.057 155.201,235.258 155.042,237.08 155.033,237.174 154.808,239.246 154.803,239.289 154.545,241.466 154.544,241.476 154.288,243.599 154.069,245.498 153.924,246.977 153.879,247.826 153.916,249.039 153.984,249.614 156.33,251.234 157.025,252.652 157.49,254.277 157.576,254.626 157.941,256.437 157.979,256.654 158.271,258.583 158.287,258.703 158.532,260.681 158.537,260.723 158.758,262.663 158.977,264.451 159.208,265.968 159.348,266.617 161.446,267.48 162.65,269.202 163.191,270.58 163.762,272.023 164.361,273.447 164.993,274.798 165.657,276.019 166.335,277.049 166.992,277.836 167.894,278.632 168.142,278.846 168.459,279.148 168.729,279.432 168.983,279.724 169.246,280.052 169.471,280.36 169.714,280.723 169.927,281.076 170.137,281.463 170.343,281.894 170.509,282.295 170.696,282.848 170.805,283.253 170.937,283.981 170.976,284.379 170.93,285.592 170.722,286.781 170.334,287.977 169.76,289.155 169.278,289.932 168.414,291.052 167.939,291.577 166.86,292.595 166.388,292.983 165.17,293.853 164.657,294.17 163.375,294.847 162.744,295.121 161.474,295.561 160.592,295.769 159.409,295.926 158.446,295.949 158.089,295.92 157.33,295.79 156.923,295.685 156.168,295.414 155.721,295.207 155.04,294.817 154.561,294.485 154.003,294.026 153.502,293.542 153.077,293.069 152.564,292.409 152.257,291.961 151.741,291.1 151.526,290.697 151.15,289.897 150.822,289.394 149.975,288.504 148.554,287.204 146.867,285.718 146.816,285.673 145.122,284.135 144.947,283.968 143.458,282.463 143.108,282.066 142.004,280.65 141.412,279.645 140.87,278.373 140.67,275.422 141.322,274.196 141.336,274.159 141.325,274.154 141.359,274.084 141.362,274.07 141.22,273.268 140.687,272.071 139.64,270.327 138.276,268.232 138.212,268.13 136.802,265.835 136.617,265.503 135.387,263.06 135.138,262.461 134.269,259.853 134.069,258.958 133.739,256.17 134.376,253.282 135.423,252.283 135.314,251.27 134.9,249.559 134.227,247.378 133.407,244.916 133.396,244.883 132.561,242.309 132.513,242.153 131.784,239.596 131.708,239.286 131.192,236.827 131.113,236.289 130.917,234.012 131.647,231.145 134.103,229.794 134.244,228.013 134.263,227.824 134.563,225.356 134.6,225.111 135.06,222.533 135.126,222.224 135.784,219.611 135.898,219.231 136.793,216.659 136.982,216.2 137.158,215.832 137.067,215.838 133.067,216.615 128.873,217.943 124.701,219.824 120.754,222.25 117.212,225.205 115.546,227.144 115.643,227.053 116.076,226.693 123.997,220.911 126.827,220.049 129.58,221.13 131.068,223.687 130.653,226.602 129.502,228.843 128.64,231.023 127.947,233.315 127.415,235.653 127.031,237.97 126.781,240.199 126.646,242.272 126.611,243.853 128.031,254.031 131.798,264.025 137.292,273.995 143.738,283.762 150.281,293.148 150.361,293.266 156.097,302.078 156.35,302.518 160.407,310.621 160.787,311.708 162.326,319.013 162.405,320.339 162.153,323.18 162.018,323.94 161.268,326.755 161.006,327.483 159.768,330.163 159.363,330.866 157.649,333.303 157.078,333.966 154.897,336.051 154.147,336.63 151.51,338.254 150.607,338.68 147.524,339.734 146.546,339.951 143.028,340.326 142.098,340.329 139.011,340.017 138.082,339.822 135.38,338.951 134.509,338.563 132.201,337.229 131.458,336.691 129.551,334.989 128.964,334.353 127.467,332.382 127.031,331.683 125.952,329.539 125.655,328.786 125.002,326.565 124.841,325.742 124.622,323.541 124.615,322.722 124.752,321.069 124.864,320.379 125.093,319.44 124.963,319.582 123.284,321.107 122.581,321.631 120.652,322.794 119.805,323.191 117.67,323.932 116.701,324.152 115.843,324.249 116.38,324.481 117.142,324.902 118.928,326.127 119.576,326.667 121.119,328.221 121.652,328.869 122.898,330.707 123.307,331.457 124.199,333.536 124.466,334.376 124.949,336.652 125.046,337.627 125.026,339.866 124.932,340.738 124.495,342.845 124.233,343.684 123.412,345.626 123.001,346.385 121.827,348.13 121.296,348.779 119.801,350.293 119.182,350.816 117.399,352.066 116.721,352.458 114.681,353.412 114.513,353.474 114.534,353.646 114.567,354.136 114.596,356.49 114.518,357.376 114.107,359.565 113.848,360.44 113.032,362.432 112.601,363.239 111.416,365 110.841,365.693 109.321,367.191 108.642,367.741 108.2,368.032 111,366.669 111.766,366.379 115.795,365.259 116.595,365.113 120.845,364.728 121.745,364.737 129.42,365.585 130.402,365.807 137.486,368.266 138.383,368.693 144.741,372.639 145.493,373.224 150.994,378.532 151.574,379.217 156.084,385.761 156.494,386.494 156.835,387.265 156.336,384.757 156.315,384.647 155.797,381.657 155.132,378.893 154.103,376.483 152.629,374.202 150.66,372.046 148.136,370.028 145.004,368.184 141.219,366.56 136.603,365.164 132.905,364.159 132.676,364.09 129.724,363.116 129.385,362.989 127.145,362.044 126.647,361.797 125.025,360.862 124.339,360.376 123.242,359.434 122.467,358.57 121.8,357.6 121.229,356.445 120.898,355.428 120.692,354.405 120.603,353.323 120.653,352.183 120.959,350.424 121.431,349.059 122.287,347.469 122.973,346.518 124.293,345.117 124.98,344.521 126.674,343.329 127.297,342.962 129.277,342 129.845,341.771 132.024,341.058 132.569,340.917 134.857,340.475 135.416,340.403 137.725,340.251 138.198,340.244 141.304,340.367 141.735,340.404 144.649,340.801 145.179,340.906 147.922,341.623 148.517,341.824 151.108,342.905 151.707,343.21 154.167,344.701 154.705,345.083 157.054,347.029 157.49,347.441 159.749,349.886 160.074,350.281 162.263,353.271 162.557,353.729 164.33,356.891 164.562,357.368 165.999,360.836 166.119,361.158 167.294,364.744 167.351,364.93 168.339,368.45 168.353,368.504 169.212,371.716 169.971,374.299 170.568,375.82 170.746,376.075 170.901,376.138 171.22,376.234 171.599,376.316 172.008,376.376 172.414,376.41 172.818,376.421 173.329,376.415 173.878,376.397 174.433,376.37 174.992,376.339 175.548,376.306 175.57,376.304 176.104,376.275 176.166,376.272 176.671,376.252 176.78,376.249 177.254,376.241 177.94,376.282 179.456,376.49 175.552,373.087 174.999,372.512 170.374,366.75 169.936,366.095 166.49,359.804 166.162,359.048 164.011,352.504 163.814,351.607 163.072,345.085 163.045,344.428 163.103,342.645 163.124,342.338 163.303,340.573 163.353,340.22 163.659,338.543 163.762,338.104 164.201,336.58 164.413,336 164.991,334.698 165.442,333.909 166.166,332.895 167.125,331.913 168.001,331.255 169.709,330.465 170.742,330.23 172.2,330.143 173.108,330.237 174.098,330.454 174.876,330.72 175.579,331.047 173.446,328.863 172.911,328.199 169.346,322.802 168.905,321.948 166.606,316.014 166.338,314.962 165.523,308.628 165.493,307.813 165.661,304.655 165.713,304.178 166.205,301.131 166.305,300.668 167.1,297.744 167.245,297.303 168.322,294.515 168.506,294.102 169.845,291.46 170.062,291.079 171.642,288.596 171.888,288.247 173.688,285.935 173.959,285.619 175.959,283.491 178.58,282.12 179.115,282.268 176.115,280.232 175.659,279.877 171.545,276.233 170.834,275.433 167.924,271.247 167.232,269.682 166.128,264.857 166.19,262.611 167.331,258.637 168.19,257.01 171.199,253.374 171.831,252.749 176.085,249.298 176.336,249.108 181.183,245.709 185.842,242.325 189.548,238.997 191.761,235.872 192.558,232.496 192.551,232.348 192.463,231.571 192.305,230.652 192.08,229.651 191.793,228.617 191.452,227.597 191.068,226.637 190.577,225.616 190.241,222.677 191.803,220.165 194.587,219.165 196.985,219.829 200.332,221.883 200.695,222.131 203.762,224.453 204.102,224.737 205.864,226.368 205.938,235.875 205.938,235.909 206.103,246.726 206.104,246.787 206.401,257.093 206.405,257.186 206.687,262.882 205.64,264.149 203.896,266.469 202.952,268.234 202.712,269.454 202.965,270.75 203.789,272.089 205.438,273.756 207.569,275.551 207.626,276.265 207.644,276.444 208.67,285.017 208.705,285.254 210.086,293.182 210.15,293.489 211.94,300.739 212.054,301.127 212.275,301.767 211.471,303.208 211.368,303.383 209.043,307.143 206.799,310.891 204.964,314.511 203.772,317.934 203.346,321.252 203.556,323.617 204.181,325.882 205.182,327.938 206.536,329.765 208.228,331.337 210.251,332.621 212.605,333.577 213.364,333.74 211.928,332.769 211.375,332.329 208.772,329.897 207.983,328.92 206.142,325.846 205.572,324.318 204.873,320.373 204.817,319.256 204.907,318.045 204.977,317.519 205.247,316.133 205.344,315.731 205.794,314.191 205.902,313.868 206.532,312.192 206.645,311.92 207.455,310.13 207.572,309.891 208.563,308.006 208.684,307.79 209.857,305.831 209.984,305.631 211.338,303.617 212.588,302.677 214.308,307.666 214.504,308.143 217.278,313.937 217.594,314.493 220.943,319.509 221.417,320.104 225.397,324.308 226.035,324.867 230.7,328.226 231.453,328.665 236.859,331.146 237.633,331.419 243.835,332.988 244.543,333.108 247.791,333.396 248.394,334.644 248.675,335.387 249.589,338.648 249.716,339.265 250.166,342.634 250.203,343.073 250.324,346.52 250.31,347.07 249.859,352.214 252.57,343.393 252.9,342.598 257.506,333.958 257.911,333.347 259.481,333.239 260.192,333.132 266.539,331.654 267.33,331.39 272.826,328.972 273.609,328.53 278.314,325.208 278.982,324.631 282.96,320.442 283.453,319.822 286.766,314.803 287.089,314.225 288.59,311.006 291.243,310.17 290.992,310.215 289.098,309.914 289.798,308.413 289.993,307.922 292.161,301.352 292.272,300.958 293.96,293.668 294.02,293.361 295.291,285.388 295.322,285.155 296.238,276.536 296.253,276.363 296.696,269.799 297.336,269.41 298.291,268.973 299.434,268.604 300.379,268.408 301.637,268.285 302.835,268.328 305.112,268.718 306.396,269.145 308.413,270.174 309.188,270.675 310.997,272.13 311.374,272.469 313.025,274.137 313.128,274.244 314.598,275.828 315.737,276.939 315.979,277.106 316.02,277.03 316.053,276.92 315.419,274.413 313.622,272.342 310.196,270.04 305.685,267.555 305.527,267.464 300.841,264.629 300.24,264.194 297.103,261.501 297.274,257.207 297.277,257.124 297.499,246.785 297.5,246.736 297.615,235.896 297.615,235.876 297.685,224.573 297.685,224.537 297.684,224.287 299.582,222.487 298.761,222.037 298.055,221.558 297.678,221.245 297.659,211.638 297.633,198.739 297.633,198.505 298.052,198.157 298.757,197.678 300.447,196.748 301.256,196.401 303.115,195.812 304.01,195.625 304.495,195.575 303.374,194.964 302.662,194.482 301.627,193.626 301.024,193.024 300.169,191.988 299.687,191.276 299.039,190.089 298.695,189.278 298.286,187.969 298.104,187.081 297.961,185.678 297.961,184.765 298.104,183.364 298.286,182.476 298.696,181.168 299.04,180.357 299.687,179.171 300.169,178.459 301.025,177.424 301.628,176.822 302.663,175.967 303.375,175.485 304.561,174.839 305.371,174.495 306.678,174.086 307.566,173.904 308.966,173.761 309.876,173.761 311.283,173.903 312.168,174.084 313.481,174.493 314.29,174.836 314.959,175.199 315.063,174.172 315.242,173.289 315.628,172.045 315.97,171.234 316.581,170.108 317.063,169.392 317.347,169.047 315.42,168.81 315.073,168.753 312.869,168.305 312.56,168.23 310.712,167.716 310.463,167.639 308.958,167.124 308.87,167.092 308.45,168.147 308.322,168.438 307.823,169.471 307.233,170.39 306.643,171.1 304.489,172.53 303.74,172.758 300.67,172.593 299.185,171.961 297.885,171.118 297.577,170.832 297.556,160.043 297.504,134.245 297.504,134.245 297.495,129.51 297.828,129.248 298.469,129.251 298.403,129.152 298.15,128.48 298.09,128.312 297.857,127.612 297.803,127.434 297.595,126.71 297.545,126.521 297.488,126.285 297.478,121.346 297.469,116.841 298.054,114.577 298.318,113.833 299.632,110.956 300.06,110.215 301.946,107.567 302.563,106.867 305.048,104.579 305.845,103.993 308.956,102.197 309.866,101.798 312.952,100.835 312.816,100.553 312.665,100.152 312.518,99.6825 312.38,99.1417 312.317,98.8579 312.186,98.1567 312.144,97.8916 311.941,96.2826 311.72,94.5808 311.464,92.946 311.418,92.7256 310.51,93.4927 308.187,95.5461 308.158,95.5715 305.756,97.658 305.615,97.7758 303.338,99.596 302.975,99.8572 300.989,101.145 299.91,101.655 298.38,102.144 297.44,102.286 297.403,83.662 298.139,82.3152 299.435,79.7764 299.484,79.66 298.424,79.5303 297.394,79.4197 297.375,69.751 297.361,62.9034 298.351,62.1984 299.772,60.9892 299.833,60.9112 299.134,60.4783 297.354,59.6337 297.322,43.203 298.493,42.5608 299.012,42.2219 298.625,41.5208 297.314,39.5033 297.297,31.0546 297.297,31.0546 297.28,22.636 304.553,22.5892 305.495,22.5831 307.612,23.7363 310.814,25.4267 311.344,25.6663 311.375,25.1289 311.401,24.0814 311.405,23.228 311.408,23.0818 311.428,22.545 316.307,22.5136 328.06,22.4381 339.813,22.3625 351.566,22.287 363.32,22.2114 375.073,22.1358 378.632,22.1129 384.669,26.5448 385.385,27.1998 390.441,32.9459 391.008,33.7557 394.78,40.6383 395.149,41.5239 396.811,47.1403 397.508,46.2664 399.008,45.0495 401.002,44.0483 401.552,43.8165 404.524,42.7899 404.819,42.6994 408.48,41.7092 408.69,41.6579 412.753,40.7658 412.94,40.7287 415.53,40.2746 412.53,38.0373 407.765,35.5199 403.215,33.7953 399.093,32.6227 395.685,31.7699 395.349,31.6718 393.055,30.9036 391.109,29.6134 390.281,28.6749 389.162,25.9368 390.243,22.7637 390.87,22.0357 390.871,22.0343 410.333,21.9091 422.086,21.8336 433.839,21.758 441.765,21.7071 442.804,22.6569 443.694,23.7788 444.99,26.0931 445.506,27.5719 445.963,30.3876 446.002,31.5194 445.845,33.2382 445.743,33.8622 445.327,35.6214 445.231,35.9665 444.643,37.7907 444.604,37.9053 443.943,39.7813 443.322,41.6515 442.819,43.5038 442.483,45.3832 442.359,47.355 442.411,48.1505 442.545,48.7718 442.716,49.1919 442.884,49.4416 443.061,49.6061 443.352,49.768 443.911,49.9301 444.721,49.9993 445.342,49.9119 445.522,49.8226 445.74,49.6064 446.09,49.0018 446.463,47.9201 446.756,46.4263 446.931,44.6274 446.987,42.622 446.953,40.9729 446.863,39.3976 446.734,37.9036 446.581,36.4851 446.424,35.1427 446.422,35.1218 446.282,33.8827 446.272,33.7772 446.173,32.6647 446.159,32.4387 446.122,31.4551 446.135,30.8921 446.366,28.2605 446.517,27.4334 447.185,25.0599 447.514,24.2229 448.586,22.1362 448.896,21.6612 457.346,21.6069 469.099,21.5313 476.323,21.4849 " fill="none" stroke-width="0.5" stroke="rgb(0,0,0)" />
	<polygon points="258.262,446.953 257.834,447.004 257.572,447.07 257.323,447.175 256.948,447.402 256.374,447.85 255.584,448.588 254.513,449.721 254.405,449.831 253.91,450.32 254.554,450.08 256.2,449.798 256.526,449.803 256.851,449.821 257.279,449.859 257.787,449.933 258.292,450.037 258.926,450.217 259.481,450.42 260.186,450.749 260.765,451.082 261.458,451.575 262.035,452.072 262.378,452.431 261.131,449.75 261.091,449.661 260.683,448.732 260.34,448.158 259.976,447.694 259.62,447.348 259.304,447.118 259.066,446.997 258.939,446.957 258.753,446.938 " fill="none" stroke-width="0.5" stroke="rgb(0,0,0)" />
	<polygon points="184.668,435.738 187.109,439.79 187.393,440.347 189.379,445.005 189.597,445.647 190.589,449.495 190.851,449.602 192.165,449.99 193.766,450.343 195.481,450.618 197.156,450.792 198.609,450.849 200.555,450.742 202.463,450.406 204.243,449.823 205.814,448.991 207.147,447.893 208.258,446.456 209.141,444.517 209.799,441.478 211.286,439.043 209.984,439.334 209.339,439.429 202.656,439.928 201.967,439.927 195.749,439.438 194.988,439.312 189.791,437.984 189.016,437.708 184.782,435.75 184.606,435.648 " fill="none" stroke-width="0.5" stroke="rgb(0,0,0)" />
	<polygon points="226.758,382.618 225.868,382.987 217.6,385.419 216.728,385.584 206.912,386.455 206.02,386.446 197.823,385.541 196.874,385.331 195.106,384.732 195.789,385.411 196.232,385.924 198.712,389.271 199.051,389.804 200.889,393.189 201.167,393.809 202.309,396.973 202.528,397.85 202.921,400.536 202.938,401.701 202.709,403.696 202.423,404.836 201.764,406.503 201.148,407.59 200.104,408.948 199.287,409.768 197.904,410.836 197.086,411.339 195.407,412.138 194.702,412.403 192.774,412.95 192.202,413.073 190.068,413.387 189.61,413.43 187.316,413.531 186.811,413.525 183.953,413.328 183.408,413.257 180.513,412.698 180.051,412.583 177.181,411.706 176.776,411.56 173.992,410.409 173.624,410.236 170.988,408.855 170.636,408.65 168.209,407.082 167.856,406.829 165.699,405.121 165.328,404.793 163.503,402.988 163.153,402.598 161.98,401.131 161.612,400.596 161.485,400.38 162.262,403.535 162.38,404.262 163.119,413.766 163.122,414.422 162.801,419.106 162.712,419.743 161.65,424.692 161.434,425.404 159.48,430.344 159.079,431.125 156.08,435.782 155.442,436.564 151.247,440.664 150.388,441.322 144.846,444.59 143.882,445.016 136.842,447.178 136.693,447.207 136.919,447.25 137.773,447.376 138.703,447.482 139.682,447.566 140.685,447.63 141.688,447.673 142.67,447.698 143.482,447.704 148.66,447.374 152.902,446.466 156.33,445.067 159.002,443.265 161.02,441.094 162.477,438.505 163.395,435.411 163.734,431.595 163.729,431.278 163.711,430.766 163.681,430.232 163.64,429.679 163.592,429.114 163.536,428.541 163.476,427.965 163.411,427.382 164.071,424.498 166.379,422.647 169.853,422.842 171.956,423.865 172.43,424.132 174.949,425.761 174.976,425.781 174.004,423.402 173.725,422.401 173.411,420.419 173.374,419.322 173.406,418.954 173.579,418.054 173.675,417.734 174.096,416.766 174.253,416.495 174.928,415.611 175.145,415.389 175.965,414.728 176.239,414.555 177.058,414.15 177.388,414.027 178.11,413.824 178.494,413.749 179.092,413.675 179.527,413.65 179.981,413.647 181.004,413.692 181.381,413.725 182.305,413.844 182.526,413.878 183.463,414.046 183.471,414.048 184.463,414.228 185.59,414.395 187.037,414.543 188.96,414.651 191.111,414.687 195.799,413.825 198.606,411.873 200.928,408.639 203.091,404.217 205.364,399.456 205.698,398.874 208.518,394.703 209.555,393.617 213.511,390.668 215.332,389.86 221.017,388.741 222.23,388.669 223.276,388.75 223.797,388.821 225.045,389.065 225.462,389.168 226.837,389.577 227.232,389.714 228.15,390.083 228.056,389.828 227.993,389.644 227.684,388.675 227.578,388.28 227.36,387.293 227.269,386.686 227.186,385.666 227.187,384.932 227.275,383.865 227.411,383.078 227.666,382.121 227.666,382.121 " fill="none" stroke-width="0.5" stroke="rgb(0,0,0)" />
	<polygon points="241.98,408.445 242.007,408.686 242.08,409.558 242.094,409.808 242.119,410.667 242.067,411.491 241.288,416.467 240.904,417.707 238.698,422.338 238.113,423.259 234.674,427.445 234.038,428.079 229.561,431.724 228.933,432.153 223.612,435.158 222.997,435.447 218.179,437.277 220.745,436.889 226.964,435.025 232.443,432.44 237.154,429.228 241.074,425.475 244.181,421.26 246.452,416.651 247.971,411.31 249.414,409.253 249.35,409.272 248.493,409.439 247.478,409.535 246.41,409.508 245.472,409.373 244.398,409.078 243.532,408.72 242.89,408.393 242.069,407.887 241.885,407.764 " fill="none" stroke-width="0.5" stroke="rgb(0,0,0)" />
	<polygon points="325.975,413.897 325.079,414.306 315.574,417.438 314.623,417.641 308.261,418.291 308.521,418.385 309.686,419.083 310.993,420.271 311.765,421.317 312.35,422.388 312.844,423.685 313.027,424.288 313.357,425.741 313.393,425.915 313.655,427.321 313.904,428.373 314.03,428.693 314.073,428.73 314.779,429.231 314.802,429.247 315.709,429.901 315.992,430.122 316.858,430.857 317.361,431.358 318.094,432.212 318.701,433.123 319.208,434.133 319.632,435.452 319.822,436.656 319.824,436.742 320.006,436.479 320.179,436.244 321.782,434.218 321.921,434.051 322.643,433.224 322.759,433.095 323.479,432.333 323.641,432.169 324.356,431.485 324.583,431.282 325.292,430.69 325.614,430.444 326.315,429.959 326.777,429.678 327.468,429.314 328.128,429.031 328.806,428.802 329.71,428.598 330.374,428.519 331.763,428.569 332.423,428.696 333.07,428.872 334.021,429.209 334.098,429.237 334.944,429.554 334.691,429.432 334.035,429.046 332.452,427.922 331.598,427.132 330.596,425.931 329.722,424.269 329.373,423.027 329.204,421.809 329.204,413.773 329.395,412.477 329.622,411.723 " fill="none" stroke-width="0.5" stroke="rgb(0,0,0)" />
	<polygon points="255.525,391.549 255.448,392.129 255.31,392.818 255.168,393.355 254.948,394.016 254.753,394.506 254.708,394.602 254.955,394.956 255.33,395.592 255.644,396.234 255.917,396.93 256.123,397.607 256.29,398.365 256.385,399.025 256.442,399.848 256.432,400.58 256.337,401.591 256.171,402.447 255.895,403.378 255.561,404.199 255.121,405.033 254.627,405.779 254.039,406.498 253.405,407.134 252.686,407.722 251.939,408.218 251.106,408.659 250.94,408.727 253.93,408.347 256.779,409.455 257.157,409.622 260.016,411.05 260.309,411.209 263.091,412.866 263.335,413.022 265.953,414.818 266.176,414.981 268.54,416.827 268.768,417.017 270.79,418.822 271.055,419.078 272.091,420.168 273.062,419.955 273.259,419.917 274.544,419.695 274.731,419.667 276.066,419.494 276.243,419.475 277.626,419.351 277.794,419.34 279.226,419.266 279.383,419.26 280.865,419.235 281.045,419.236 283.176,419.286 283.377,419.295 285.58,419.445 285.77,419.462 288.051,419.715 288.227,419.738 290.592,420.095 290.755,420.123 293.21,420.587 293.359,420.617 295.91,421.19 296.046,421.223 297.312,421.549 297.649,420.979 298.155,420.302 299.014,419.43 299.705,418.898 300.36,418.531 291.15,417.594 290.207,417.394 280.122,414.095 279.229,413.691 270.623,408.597 269.863,408.031 262.762,401.476 262.17,400.81 256.601,393.124 256.176,392.406 255.555,391.093 " fill="none" stroke-width="0.5" stroke="rgb(0,0,0)" />
	<polygon points="351.186,386.039 350.911,386.762 347.303,394.236 346.888,394.929 341.833,401.87 341.253,402.522 340.671,403.061 343.547,402.195 344.073,402.071 348.013,401.385 348.533,401.326 353.04,401.074 353.454,401.07 357.247,401.207 357.605,401.234 361.076,401.638 361.497,401.708 364.589,402.37 365.105,402.512 367.761,403.422 368.411,403.703 370.575,404.851 370.656,404.906 370.156,404.095 369.625,402.837 369.177,401.067 369.394,398.215 370.566,395.44 369.045,396.274 367.864,396.72 362.668,397.884 360.678,397.878 359.528,397.614 357.999,396.946 356.922,396.211 356.071,395.457 355.092,394.338 354.627,393.702 353.771,392.285 353.496,391.753 352.787,390.124 352.61,389.645 352.073,387.89 351.955,387.411 351.614,385.616 351.546,385.083 351.529,384.835 " fill="none" stroke-width="0.5" stroke="rgb(0,0,0)" />
	<polygon points="118.025,385.38 117.13,386.285 116.506,387.278 116.121,388.383 115.98,389.666 116.268,392.468 117.063,394.915 118.293,397.031 119.905,398.829 121.849,400.288 124.055,401.373 126.443,402.045 126.834,402.081 125.514,401.584 124.898,401.296 122.986,400.222 122.366,399.802 120.791,398.532 120.168,397.92 118.98,396.503 118.396,395.61 117.646,394.096 117.239,392.841 116.978,391.279 116.933,390.146 117.037,388.956 117.189,388.124 117.489,387.062 117.825,386.213 118.305,385.287 118.416,385.12 " fill="none" stroke-width="0.5" stroke="rgb(0,0,0)" />
	<polygon points="277.435,386.865 281.042,390.651 285.584,393.925 290.994,396.496 297.211,398.178 304.289,398.791 307.804,398.646 310.967,398.229 313.618,397.6 315.597,396.87 314.92,396.548 314.247,396.066 312.567,393.728 312.312,392.896 312.184,390.787 312.274,390.282 312.388,389.889 311.03,390.427 310.807,390.509 308.051,391.437 307.714,391.535 304.502,392.345 304.089,392.428 300.382,393.001 299.925,393.047 295.683,393.265 295.139,393.259 291.625,393.013 291.015,392.928 287.624,392.216 287.026,392.046 283.865,390.909 283.254,390.636 280.429,389.114 279.788,388.695 277.418,386.838 " fill="none" stroke-width="0.5" stroke="rgb(0,0,0)" />
	<polygon points="76.7786,368.006 77.5208,369.884 78.775,378.165 78.5769,380.315 75.8181,388.263 77.3421,384.624 77.65,384.021 79.768,380.545 80.152,380.008 82.5401,377.139 83.0057,376.657 85.5142,374.423 86.098,373.982 88.5772,372.41 89.3772,372.009 91.6775,371.128 94.6342,371.036 97.0087,372.8 97.7404,375.975 97.2462,379.387 97.3114,379.242 99.3913,375.695 99.9348,374.954 102.662,371.936 103.311,371.346 105.909,369.41 103.997,370.209 103.226,370.452 100.915,370.959 100.165,371.059 97.8685,371.168 97.0718,371.135 94.9491,370.858 94.1246,370.67 92.195,370.035 91.3981,369.684 89.6809,368.719 88.9668,368.221 87.4811,366.955 86.8904,366.347 85.6555,364.809 85.2074,364.135 85.1006,363.937 84.39,364.095 84.1926,364.135 83.3728,364.279 83.1818,364.308 82.3403,364.419 81.7993,364.458 79.4858,364.483 78.592,364.403 76.3937,363.982 75.5546,363.735 73.5196,362.913 73.1371,362.714 " fill="none" stroke-width="0.5" stroke="rgb(0,0,0)" />
	<polygon points="248.012,359.99 247.73,360.757 244.917,366.687 244.462,367.444 240.395,372.91 239.752,373.607 237.057,375.97 237.906,376.067 238.954,376.316 239.982,376.696 240.927,377.178 241.811,377.77 242.55,378.388 243.293,379.16 243.813,379.81 244.174,380.36 244.262,380.347 244.713,380.304 245.28,380.278 245.93,380.297 247.176,380.422 248.103,380.615 249.209,380.971 250.089,381.362 251.048,381.918 251.673,382.374 249.464,374.224 249.325,373.449 248.511,364.362 248.515,363.508 249.393,354.82 " fill="none" stroke-width="0.5" stroke="rgb(0,0,0)" />
	<polygon points="353.699,361.448 353.119,362.144 350.925,364.293 350.157,364.897 349.214,365.485 350.083,365.242 352.81,366.386 354.278,370.194 353.539,377.364 354.2,376.696 354.885,376.127 355.841,375.482 356.434,375.144 357.682,374.554 358.147,374.365 359.716,373.827 360.068,373.723 361.828,373.276 370.762,370.307 370.151,370.369 369.294,370.373 366.924,370.159 366.088,370.003 363.952,369.391 363.129,369.064 361.253,368.095 360.495,367.601 358.904,366.32 358.256,365.68 356.975,364.129 356.472,363.377 355.526,361.598 355.187,360.772 354.871,359.713 " fill="none" stroke-width="0.5" stroke="rgb(0,0,0)" />
	<polygon points="299.3,351.383 297.44,353.573 294.254,355.491 293.288,355.927 288.783,357.349 288.72,357.369 283.829,358.834 279.473,360.769 276.094,363.515 273.739,367.69 273.029,372.537 273.151,372.279 273.355,371.931 273.929,371.158 274.183,370.883 274.992,370.192 275.29,369.993 276.274,369.499 276.613,369.378 277.639,369.142 278.015,369.101 278.834,369.087 278.985,369.098 279.093,368.033 279.153,367.625 279.393,366.4 279.559,365.784 279.954,364.65 280.391,363.739 280.98,362.799 282.027,361.64 282.849,360.999 284.663,360.151 285.756,359.914 288.274,360.093 289.691,360.619 290.806,361.224 292.674,362.609 292.773,362.685 295.148,364.55 298.105,366.566 301.874,368.549 302.412,368.743 302.068,368.378 301.163,367.206 300.707,366.484 300.035,365.153 299.728,364.37 299.309,362.917 299.153,362.091 299.008,360.554 298.994,359.921 299.046,358.815 299.077,358.461 299.216,357.371 299.253,357.131 299.448,356.057 299.473,355.93 299.698,354.872 299.701,354.858 299.914,353.868 300.078,353.011 300.174,352.306 300.206,351.712 300.196,351.462 300.165,351.219 300.116,351.004 300.046,350.799 299.944,350.581 299.792,350.329 299.745,350.267 " fill="none" stroke-width="0.5" stroke="rgb(0,0,0)" />
	<polygon points="323.58,362.504 323.136,364.062 322.828,364.852 322.113,366.273 321.65,367.006 320.685,368.252 320.072,368.9 318.876,369.934 318.127,370.459 316.722,371.244 315.87,371.611 315.513,371.722 320.547,372.043 323.581,371.973 327.221,371.736 331.147,371.313 335.13,370.685 338.937,369.843 342.316,368.795 344.989,367.598 345.182,367.464 343.536,368.028 342.552,368.246 339.079,368.616 338.211,368.624 334.989,368.342 334.165,368.192 331.223,367.366 330.386,367.038 327.77,365.696 326.981,365.181 324.736,363.352 324.062,362.671 323.646,362.15 " fill="none" stroke-width="0.5" stroke="rgb(0,0,0)" />
	<polygon points="386.662,305.799 385.703,306.594 384.579,307.85 383.431,309.475 382.348,311.365 381.397,313.416 380.68,315.38 380.422,316.715 380.207,319.053 380.031,322.042 379.843,325.227 379.834,325.353 379.572,328.357 379.532,328.678 379.129,331.2 378.928,331.987 378.315,333.722 376.716,335.865 376.482,336.035 378.548,337.511 379.188,338.068 381.675,340.677 382.236,341.402 384.066,344.339 384.49,345.221 385.619,348.42 385.847,349.41 386.234,352.807 386.244,353.718 386.02,356.217 385.873,357.022 385.714,357.592 385.839,357.445 385.863,357.417 389.872,352.785 390.384,352.28 394.996,348.416 396.076,347.746 402.099,345.098 402.98,344.858 402.773,344.765 401.5,343.903 400.371,342.815 400.031,342.449 398.754,340.911 398.653,340.784 397.302,339.031 396.002,337.364 395.56,336.851 394.518,337.752 393.308,338.805 393.173,338.918 392.024,339.841 391.629,340.125 390.607,340.778 389.463,341.301 388.628,341.548 386.79,341.699 386.603,341.675 385.517,341.399 385.348,341.333 384.428,340.842 384.28,340.739 383.572,340.131 383.446,339.998 382.933,339.342 382.832,339.185 382.477,338.516 382.402,338.34 382.173,337.655 382.127,337.467 382.01,336.756 381.994,336.563 382.036,335.481 382.314,333.746 382.498,333.004 383.231,330.856 383.333,330.586 384.37,328.086 384.386,328.046 385.55,325.313 386.666,322.477 387.594,319.622 388.214,316.836 388.448,314.028 388.421,312.58 388.307,310.746 388.075,308.877 387.714,307.191 387.269,305.939 387.056,305.592 " fill="none" stroke-width="0.5" stroke="rgb(0,0,0)" />
	<polygon points="54.9871,335.718 55.8773,343.016 59.5821,348.974 65.3877,354.719 66.1217,355.419 65.5634,354.19 65.2748,353.336 64.7787,351.174 64.6649,350.213 64.6396,347.751 64.7408,346.755 65.2321,344.48 65.5294,343.578 66.4578,341.522 66.8937,340.763 68.1796,338.957 68.7054,338.344 69.3763,337.69 66.4493,337.331 66.0544,337.264 63.1841,336.648 62.577,336.473 60.1083,335.566 59.346,335.202 57.2051,333.919 56.4623,333.362 55.9103,332.851 " fill="none" stroke-width="0.5" stroke="rgb(0,0,0)" />
	<polygon points="322.628,321.781 320.918,324.002 319.617,324.888 318.388,325.475 317.972,325.601 318.621,326.197 319.294,326.976 319.901,327.867 320.408,328.852 320.736,329.748 320.982,330.792 321.081,331.666 321.078,332.701 320.921,334.023 320.623,335.181 320.181,336.273 319.561,337.349 318.877,338.228 318.076,339.025 317.192,339.707 316.398,340.198 315.359,340.699 314.669,340.964 313.516,341.302 312.944,341.43 311.722,341.62 311.244,341.669 309.995,341.729 309.671,341.732 308.74,341.71 308.572,341.703 307.609,341.644 307.507,341.636 306.515,341.552 306.472,341.548 305.457,341.453 304.447,341.36 303.464,341.283 302.506,341.231 301.592,341.212 300.429,341.248 299.358,341.36 299.163,341.398 299.47,341.841 299.97,342.782 300.048,342.983 301.098,342.206 302.797,342.016 306.433,342.307 307.168,342.427 310.455,343.251 311.183,343.501 314.079,344.784 314.78,345.172 317.242,346.839 317.894,347.376 318.763,348.242 318.764,347.847 319.011,345.081 319.11,344.461 319.759,341.668 319.864,341.291 320.781,338.477 320.842,338.303 321.893,335.476 322.911,332.731 323.739,330.169 324.275,327.829 324.47,325.593 324.445,324.941 324.357,324.199 324.207,323.472 323.988,322.748 323.691,322.014 323.302,321.259 322.988,320.761 " fill="none" stroke-width="0.5" stroke="rgb(0,0,0)" />
	<polygon points="180.476,335.582 183.133,337.971 185.783,339.848 188.524,341.32 191.435,342.449 194.597,343.281 198.076,343.845 201.923,344.163 204.214,344.217 198.756,343.675 197.941,343.517 191.503,341.638 190.784,341.359 184.736,338.395 184.089,338.007 179.974,335.048 " fill="none" stroke-width="0.5" stroke="rgb(0,0,0)" />
	<polygon points="219.214,338.542 218.298,341.354 216.469,342.521 218.02,341.879 219.672,340.883 220.636,340.011 220.918,339.573 220.776,339.039 219.961,338.096 218.719,337.205 " fill="none" stroke-width="0.5" stroke="rgb(0,0,0)" />
	<polygon points="353.908,330.718 355.851,334.676 357.156,332.096 356.667,332.034 356.54,332.009 355.929,331.845 355.81,331.804 355.146,331.513 355.039,331.456 354.323,330.976 354.233,330.903 353.672,330.326 " fill="none" stroke-width="0.5" stroke="rgb(0,0,0)" />
	<polygon points="366.128,328.335 364.758,329.139 363.332,329.993 363.234,330.051 361.899,330.805 361.596,330.961 365.578,331.508 366.234,331.649 367.209,331.935 366.933,331.025 366.862,330.766 366.436,328.984 366.249,328.271 " fill="none" stroke-width="0.5" stroke="rgb(0,0,0)" />
	<polygon points="367.83,280.36 368.066,280.573 371.225,283.646 371.59,284.046 373.776,286.755 374.457,287.922 375.274,289.982 374.986,293.895 374.12,295.392 372.601,296.959 370.268,298.41 369.56,298.768 366.159,300.125 365.78,300.257 361.71,301.472 361.459,301.54 357.119,302.567 356.914,302.611 352.702,303.403 352.487,303.438 348.803,303.948 348.479,303.981 345.721,304.161 345.02,304.153 344.427,304.099 343.493,303.913 343.019,303.765 342.729,303.634 343.014,305.095 343.082,306.32 342.981,307.566 342.825,308.431 342.511,309.537 342.096,310.528 341.552,311.486 340.846,312.422 340.056,313.224 339.183,313.915 338.131,314.553 337.284,314.953 336.028,315.392 339.712,317.083 340.37,317.455 345.229,320.768 345.824,321.251 349.841,325.138 350.348,325.72 353.145,329.556 352.866,329.079 352.821,328.973 352.505,327.802 352.489,327.68 352.558,326.13 352.776,325.144 353.049,324.308 353.624,322.997 353.779,322.679 354.591,321.163 354.667,321.027 355.599,319.425 355.619,319.39 356.057,318.653 355.192,318.438 353.097,317.941 352.906,317.891 351.058,317.365 350.423,317.132 349.116,316.537 347.288,315.013 346.792,314.301 345.993,311.453 346.394,309.854 346.598,309.41 348.057,307.635 348.629,307.223 349.469,306.745 350.353,306.362 350.798,306.196 351.936,305.839 352.195,305.766 353.529,305.434 353.69,305.397 355.163,305.087 355.265,305.067 356.82,304.777 356.881,304.766 358.331,304.516 361.488,303.78 364.767,302.673 368.027,301.209 371.024,299.454 373.523,297.502 375.324,295.495 376.337,293.6 376.675,291.69 376.392,289.38 375.586,287.315 374.29,285.408 372.504,283.583 370.302,281.835 367.808,280.159 366.997,279.657 " fill="none" stroke-width="0.5" stroke="rgb(0,0,0)" />
	<polygon points="73.9939,306.805 72.4037,311.221 71.4087,315.036 71.0677,318.194 71.1044,319.495 71.2522,320.897 71.5371,322.24 72.0017,323.59 72.7119,325.015 73.7542,326.571 75.2225,328.289 75.7076,328.751 75.774,328.371 75.9946,327.561 76.7555,325.537 77.1334,324.765 78.2377,322.967 78.7627,322.273 80.1804,320.734 80.829,320.154 82.53,318.907 83.2685,318.467 85.2227,317.544 86.011,317.258 88.1884,316.691 89.0264,316.555 91.4602,316.395 92.3749,316.428 94.622,316.739 95.5106,316.957 97.5528,317.683 98.3453,318.055 100.165,319.136 100.826,319.616 102.404,320.995 102.931,321.54 104.25,323.158 104.555,323.6 104.6,323.585 105.394,323.351 105.683,323.276 106.506,323.092 106.797,323.037 107.222,322.971 106.892,322.817 105.168,321.758 104.38,321.144 103.025,319.82 102.441,319.122 101.43,317.626 101.038,316.915 100.346,315.34 100.105,314.638 99.7075,313.075 99.586,312.357 99.4608,310.917 99.3432,311.004 97.0589,312.32 96.1449,312.719 93.6304,313.498 92.7262,313.679 90.0385,313.936 89.1767,313.936 87.4187,313.765 86.5757,313.601 84.872,313.097 84.0752,312.776 82.4812,311.948 81.7473,311.471 80.3183,310.33 79.6754,309.702 78.4668,308.258 77.9533,307.5 77.0203,305.763 76.6719,304.919 76.0699,302.901 75.9426,302.245 " fill="none" stroke-width="0.5" stroke="rgb(0,0,0)" />
	<polygon points="419.918,321.872 420.331,322.4 420.547,322.835 420.63,323.482 421.497,321.799 421.631,321.591 " fill="none" stroke-width="0.5" stroke="rgb(0,0,0)" />
	<polygon points="400.121,302.776 400.743,304.723 401.796,306.834 403.228,308.989 404.962,311.078 406.903,313.008 408.947,314.693 411.114,316.146 412.128,316.766 413.286,317.407 414.551,318.075 415.15,318.39 414.066,316.611 413.987,316.475 412.176,313.252 410.002,309.725 407.487,306.391 404.715,303.716 401.82,302.04 399.997,301.696 " fill="none" stroke-width="0.5" stroke="rgb(0,0,0)" />
	<polygon points="123.378,281.617 125.622,287.906 125.675,288.066 127.634,294.281 127.73,294.638 129.116,300.746 129.21,301.347 129.735,307.317 129.732,308.144 129.502,310.526 129.343,311.355 129.008,312.499 129.506,312.057 130.12,311.599 131.39,310.937 131.869,310.778 133.718,310.569 133.898,310.586 135.045,310.851 135.195,310.907 136.498,311.664 136.619,311.765 137.559,312.844 137.653,312.996 138.1,313.945 138.171,314.154 138.337,314.81 138.384,315.083 138.437,315.501 138.464,315.844 138.477,316.106 138.483,316.355 138.518,316.726 138.572,316.915 138.673,317.124 138.806,317.304 138.959,317.443 139.15,317.554 139.444,317.649 139.951,317.699 140.413,317.657 140.755,317.559 140.992,317.435 141.164,317.294 141.3,317.128 141.411,316.915 141.492,316.635 141.501,316.538 140.489,311.796 137.465,305.521 132.85,297.787 127.44,288.914 127.34,288.742 123.311,281.427 " fill="none" stroke-width="0.5" stroke="rgb(0,0,0)" />
	<polygon points="420.099,262.682 419.911,263.447 419.455,264.784 419.32,265.132 418.676,266.607 418.608,266.756 417.869,268.292 417.861,268.31 417.46,269.134 417.852,269.222 419.705,269.631 419.907,269.681 421.531,270.118 422.155,270.337 423.304,270.836 425.142,272.308 425.578,272.904 426.441,275.733 425.911,277.685 425.444,278.556 423.603,280.397 422.329,281.079 421.463,281.433 419.572,281.984 419.22,282.071 416.902,282.548 416.793,282.569 414.264,283.025 411.795,283.5 409.664,284.02 407.952,284.628 406.548,285.279 405.32,285.963 404.358,286.62 403.671,287.217 403.243,287.715 403.033,288.072 403.937,288.224 405.221,288.324 406.667,288.354 410.423,288.114 413.805,287.49 416.914,286.593 419.733,285.54 422.255,284.447 424.433,283.457 424.591,283.389 426.331,282.677 427.078,282.445 428.319,282.175 429.652,282.088 429.84,282.104 430.642,282.245 430.811,282.291 431.646,282.609 431.794,282.683 432.593,283.195 432.719,283.296 433.408,283.982 433.51,284.108 434.026,284.907 434.101,285.056 434.424,285.895 434.47,286.065 434.614,286.875 434.63,287.064 434.447,288.764 434.192,289.594 433.751,290.585 433.078,291.708 432.879,292.011 431.928,293.342 431.869,293.423 430.797,294.856 429.79,296.237 429.42,296.804 429.986,297.18 431.784,298.198 433.713,299.24 433.818,299.298 435.523,300.279 435.946,300.554 437.13,301.425 438.4,302.867 438.808,303.602 438.907,307.78 438.818,307.96 438.077,309.033 437.938,309.182 437.066,309.908 436.878,310.028 436.104,310.422 435.866,310.516 435.272,310.703 434.985,310.773 434.551,310.855 434.215,310.901 433.904,310.934 433.519,310.96 433.296,310.97 432.863,310.978 432.645,310.977 431.875,310.955 431.693,310.946 430.846,310.887 430.745,310.878 429.842,310.795 429.8,310.79 428.864,310.695 427.94,310.602 427.07,310.525 426.41,310.483 426.396,310.929 426.363,312.765 426.359,312.911 426.268,314.713 426.225,315.145 425.998,316.681 425.879,317.113 426.498,316.694 428.458,315.638 429.286,315.293 431.443,314.638 432.313,314.465 434.617,314.24 435.217,314.222 437.258,314.296 437.61,314.322 439.079,314.491 439.069,314.42 439.026,313.988 438.953,312.477 438.961,311.901 439.157,309.443 439.275,308.717 439.855,306.374 440.108,305.635 441.065,303.474 441.479,302.736 441.665,302.467 439.305,300.098 437.339,293.59 435.205,287.402 432.849,281.528 430.24,276.022 427.348,270.938 424.143,266.322 420.599,262.213 420.224,261.871 " fill="none" stroke-width="0.5" stroke="rgb(0,0,0)" />
	<polygon points="311.515,302.162 310.911,302.649 306.32,305.733 305.5,306.168 299.534,308.585 298.639,308.844 296.061,309.306 304.262,308.474 304.906,308.455 307.719,308.574 308.107,308.607 310.746,308.949 311.158,309.022 313.561,309.564 314.027,309.696 316.132,310.416 316.695,310.652 318.44,311.529 319.15,311.973 320.473,312.982 321.346,313.862 321.93,314.642 322.197,313.924 322.474,313.756 320.898,312.817 320.289,312.382 318.637,310.979 318.014,310.333 316.696,308.658 316.131,307.728 315.258,305.796 314.905,304.589 314.589,302.415 314.573,301.239 314.79,299.408 314.895,298.922 " fill="none" stroke-width="0.5" stroke="rgb(0,0,0)" />
	<polygon points="107.567,291.993 107.557,292.289 107.281,296.495 107.185,297.167 106.393,300.767 106.153,301.528 106.072,301.723 107.876,301.859 108.159,302.017 109.894,303.745 110.127,304.161 110.346,304.607 110.478,304.918 110.739,304.893 110.863,304.852 110.894,304.815 111.061,304.478 111.27,303.737 111.432,302.585 111.489,301.139 111.164,296.395 110.301,291.879 109.036,287.368 107.567,282.875 " fill="none" stroke-width="0.5" stroke="rgb(0,0,0)" />
	<polygon points="53.9897,272.923 53.5344,273.964 53.2466,275.298 53.2327,276.79 53.564,278.363 54.4289,280.213 54.779,280.765 55.2526,281.496 55.2823,281.543 55.7274,282.249 55.8197,282.401 56.2112,283.081 56.3606,283.362 56.6863,284.033 56.8672,284.46 57.115,285.141 57.2792,285.704 57.4368,286.414 57.5319,287.062 57.5871,287.818 57.5448,288.843 57.2036,291.019 57.0043,291.811 56.0588,294.508 55.8643,294.976 54.4313,297.942 54.2317,298.311 52.8653,300.574 55.2625,297.163 59.3126,291.265 61.8752,286.548 62.7255,282.846 62.7228,282.788 62.6641,282.392 62.574,282.051 62.4493,281.737 62.2754,281.417 62.0279,281.066 61.6782,280.671 61.0548,280.094 61.0443,280.084 59.1223,278.294 58.8557,278.023 57.3417,276.353 57.1756,276.159 55.9528,274.646 55.9291,274.616 54.9738,273.414 54.3382,272.714 54.2131,272.616 " fill="none" stroke-width="0.5" stroke="rgb(0,0,0)" />
	<polygon points="458.286,286.293 456.879,286.944 455.48,288.103 454.015,289.873 452.507,292.204 450.948,294.967 450.542,295.709 451.186,295.497 452.14,295.294 454.848,295.018 456.019,295.052 459.208,295.566 460.49,295.977 463.089,297.265 462.951,295.088 462.98,294.947 462.988,294.895 463,294.777 463.011,294.598 463.02,294.363 463.025,294.079 463.027,293.749 463.027,293.488 462.95,291.904 462.723,290.357 462.344,288.893 461.845,287.664 461.304,286.797 460.839,286.333 460.482,286.143 459.959,286.059 " fill="none" stroke-width="0.5" stroke="rgb(0,0,0)" />
	<polygon points="336.068,292.652 337.053,294.189 338.38,296.007 338.935,296.761 338.935,296.759 339.063,296.193 339.349,295.337 339.686,294.59 339.828,294.302 340.304,293.419 340.342,293.35 340.647,292.807 338.9,292.686 336.67,292.641 " fill="none" stroke-width="0.5" stroke="rgb(0,0,0)" />
	<polygon points="91.7129,270.18 91.6596,270.301 88.7618,276.63 88.702,276.756 85.7884,282.632 85.7501,282.708 83.3948,287.242 81.4187,291.056 83.0528,291.007 83.5688,291.165 85.0569,291.947 85.5784,292.361 86.015,292.758 86.5801,293.343 87.0939,293.874 87.4553,294.188 87.6908,294.336 87.879,294.405 88.1613,294.437 89.3585,294.272 89.8308,294.019 90.2854,293.467 90.879,292.023 91.3967,289.506 91.7301,286.007 91.8873,281.627 91.9244,276.408 91.9307,276.199 92.2834,269.612 92.3387,269.11 92.4521,268.432 " fill="none" stroke-width="0.5" stroke="rgb(0,0,0)" />
	<polygon points="391.584,266.014 391.557,266.137 390.947,268.709 390.946,268.713 390.349,271.22 389.855,273.573 389.528,275.726 389.411,277.701 389.462,278.928 389.622,280.142 389.879,281.191 390.188,281.972 390.461,282.408 390.557,282.501 390.579,282.489 391.002,282.078 391.564,281.266 392.12,280.107 392.579,278.686 392.881,277.087 392.994,275.294 392.947,273.02 392.818,270.785 392.632,268.688 392.416,266.732 392.195,264.924 392.194,264.916 392.054,263.752 " fill="none" stroke-width="0.5" stroke="rgb(0,0,0)" />
	<polygon points="350.586,267.159 350.205,267.32 345.733,268.977 341.656,270.57 338.764,272.187 337.383,273.675 336.88,275.66 336.955,276.234 337.165,276.705 337.492,277.084 338.073,277.488 338.954,277.872 340.064,278.166 341.278,278.339 342.5,278.394 342.814,278.386 342.804,278.225 342.755,277.649 342.695,277.041 342.631,276.424 342.627,276.39 342.571,275.8 342.563,275.7 342.523,275.156 342.513,274.966 342.498,274.477 342.515,273.921 342.539,273.658 342.69,272.85 342.762,272.596 343.057,271.829 343.174,271.592 343.617,270.873 343.777,270.661 344.376,270.011 344.577,269.832 345.327,269.292 345.567,269.153 346.436,268.769 346.713,268.681 347.635,268.488 347.947,268.457 349.691,268.624 351.774,269.248 352.634,269.607 354.271,270.498 353.861,269.725 353.697,269.185 353.82,266.218 354.003,265.754 354.301,265.378 " fill="none" stroke-width="0.5" stroke="rgb(0,0,0)" />
	<polygon points="359.79,244.214 358.001,245.689 357.287,246.17 355.237,247.285 354.426,247.628 352.163,248.333 351.279,248.513 349.952,248.648 349.963,248.653 352.358,249.576 354.872,250.195 358.039,250.458 360.743,251.658 362.117,254.278 361.714,256.91 359.97,260.497 358.774,262.011 358.176,262.502 358.597,262.392 359.493,262.224 359.855,262.172 360.833,262.071 361.059,262.053 362.041,262.001 362.185,261.996 363.094,261.977 363.172,261.976 363.912,261.973 364.543,261.965 364.494,261.257 364.493,261.244 364.428,260.262 364.426,260.221 364.37,259.224 364.366,259.152 364.326,258.168 364.323,258.057 364.308,257.111 364.308,256.978 364.316,256.34 364.322,256.181 364.351,255.589 364.368,255.36 364.421,254.825 364.468,254.487 364.551,254.022 364.674,253.506 364.79,253.123 365.124,252.314 365.277,252.025 366.181,250.847 366.376,250.665 367.622,249.978 366.579,249.657 365.777,249.324 364.659,248.726 363.942,248.249 362.953,247.444 362.335,246.834 361.508,245.841 361.011,245.11 360.379,243.947 360.284,243.721 " fill="none" stroke-width="0.5" stroke="rgb(0,0,0)" />
	<polygon points="443.442,248.807 444.331,251.132 445.51,254.053 445.511,254.057 446.865,257.422 446.888,257.481 448.276,261.077 448.318,261.191 448.51,261.732 449.939,259.039 449.995,258.936 451.677,255.954 451.718,255.884 453.141,253.465 451.779,252.777 451.625,252.695 448.169,250.777 447.905,250.618 444.428,248.364 444.044,248.085 442.796,247.074 " fill="none" stroke-width="0.5" stroke="rgb(0,0,0)" />
	<polygon points="380.119,194.889 380.119,195.807 379.968,197.28 379.785,198.169 379.354,199.544 379.009,200.355 378.327,201.602 377.845,202.313 376.944,203.402 376.342,204.003 375.252,204.903 374.542,205.384 374.283,205.525 375.044,205.845 376.44,206.602 377.158,207.085 378.373,208.087 378.982,208.695 379.984,209.909 380.469,210.628 381.226,212.022 381.569,212.835 382.047,214.376 382.226,215.258 382.393,216.913 382.393,217.813 382.226,219.473 382.048,220.354 381.57,221.899 381.228,222.712 380.471,224.109 379.987,224.828 378.984,226.044 378.375,226.653 377.16,227.656 376.441,228.14 375.045,228.897 374.85,228.979 375.159,229.105 376.32,229.71 377.037,230.176 378.042,230.974 378.66,231.569 379.484,232.531 379.986,233.247 380.605,234.343 380.968,235.169 381.357,236.371 381.551,237.285 381.686,238.564 381.691,239.457 381.556,240.903 381.39,241.764 381,243.078 380.657,243.914 380.037,245.076 379.528,245.835 378.703,246.828 378.054,247.466 377.049,248.271 376.297,248.758 375.136,249.356 374.322,249.68 373.031,250.052 372.461,250.159 373.705,250.897 374.794,251.867 375.29,252.383 376.408,253.754 376.594,253.998 377.707,255.569 377.752,255.634 378.428,256.625 379.173,255.848 380.39,254.569 380.562,254.398 381.749,253.278 382.249,252.871 383.375,252.079 384.713,251.437 385.752,251.137 387.386,250.977 387.687,251.002 388.669,251.198 388.924,251.28 390.081,251.841 390.292,251.984 391.279,252.895 391.448,253.106 392.039,254.07 392.167,254.353 392.435,255.13 392.524,255.494 392.624,256.047 392.676,256.496 392.689,256.664 392.785,256.506 393.407,255.706 393.586,255.523 394.435,254.842 394.643,254.713 395.614,254.261 395.846,254.185 396.803,253.984 397.055,253.959 399.075,254.223 400.052,254.589 401.456,255.433 402.422,256.287 402.926,256.812 403.888,257.99 404.051,258.202 405.006,259.525 405.868,260.701 405.951,260.798 406.709,260.291 407.926,259.352 409.206,258.322 409.294,258.253 410.502,257.329 410.857,257.084 411.906,256.43 412.573,256.13 412.483,256.074 407.585,254.195 402.172,252.675 396.782,251.17 396.347,251.024 391.535,249.133 390.588,248.624 386.711,245.892 385.516,244.644 382.929,240.614 382.274,238.906 381.333,233.122 381.286,232.084 381.421,230.156 381.475,229.711 381.832,227.628 381.882,227.381 382.387,225.184 382.412,225.08 382.989,222.818 383.55,220.587 384.012,218.488 384.315,216.585 384.425,214.838 384.415,214.444 384.381,214.012 384.328,213.639 384.261,213.327 384.184,213.074 384.102,212.872 384.017,212.711 383.787,212.37 383.033,209.509 384.218,206.799 386.829,205.41 389.487,205.81 394.794,208.39 395.684,208.961 399.316,211.946 400.104,212.784 402.245,215.743 403.437,213.637 407.076,212.567 413.809,213.579 414.316,213.685 419.773,215.162 420.565,215.459 425.01,217.62 425.916,218.204 429.609,221.268 430.309,221.996 433.513,226.182 433.902,226.783 434.592,228.065 434.75,227 435.067,225.885 436.812,221.825 437.243,221.045 439.766,217.391 440.194,216.863 443.178,213.694 443.577,213.319 446.708,210.716 447.102,210.423 450.063,208.465 450.539,208.19 453.014,206.957 453.905,206.625 455.579,206.196 455.639,206.192 455.207,205.997 452.784,205.302 451.425,205.143 450.49,205.3 448.557,205.997 445.7,207.185 445.618,207.218 442.029,208.629 441.783,208.718 437.473,210.128 437.124,210.227 432.003,211.457 431.596,211.536 425.574,212.406 425.142,212.447 418.128,212.778 417.346,212.746 404.581,211.116 403.369,210.784 393.082,206.347 392.021,205.703 383.973,199.141 383.226,198.366 380.043,194.152 " fill="none" stroke-width="0.5" stroke="rgb(0,0,0)" />
	<polygon points="314.859,221.56 314.156,222.038 312.464,222.965 311.658,223.31 309.8,223.898 308.906,224.083 306.925,224.289 305.998,224.289 305.395,224.227 305.845,225.082 307.045,228.795 308.689,230.644 311.378,232.244 315.006,233.82 315.172,233.896 318.971,235.733 319.779,236.235 323.044,238.781 324.138,240.017 326.423,243.832 327.011,245.466 327.307,247.411 327.332,247.379 328.325,246.395 329.108,245.774 330.225,245.076 330.992,244.693 332.16,244.243 332.852,244.038 334,243.797 334.621,243.711 335.678,243.639 336.456,243.66 336.404,243.607 334.929,241.821 334.446,241.106 333.332,239.058 332.989,238.247 332.284,235.986 332.104,235.101 331.858,232.677 331.858,231.898 331.749,231.957 330.939,232.299 329.628,232.707 328.744,232.887 327.339,233.03 326.429,233.029 325.034,232.887 324.146,232.705 322.843,232.297 322.032,231.952 320.85,231.307 320.138,230.825 319.105,229.971 318.503,229.367 317.649,228.333 317.167,227.62 316.522,226.434 316.178,225.623 315.77,224.314 315.588,223.428 315.446,222.023 315.446,221.113 315.45,221.072 " fill="none" stroke-width="0.5" stroke="rgb(0,0,0)" />
	<polygon points="407.52,228.551 409.351,232.193 412.079,235.875 414.573,238.262 418.179,241.168 418.187,241.174 422.18,244.407 416.08,237.266 410.085,230.403 409.948,230.237 406.564,225.966 " fill="none" stroke-width="0.5" stroke="rgb(0,0,0)" />
	<polygon points="84.9825,211.116 83.7189,212.383 83.1539,212.758 82.7537,212.995 82.107,213.334 81.7238,213.513 80.9954,213.812 80.8122,213.878 80.852,213.883 82.0318,214.202 82.7141,214.49 83.7389,215.094 84.3104,215.543 85.0538,216.281 85.5166,216.863 85.9916,217.596 86.3479,218.284 86.6277,218.951 86.8795,219.719 87.0307,220.315 87.1803,221.136 87.2455,221.681 87.2948,222.529 87.2705,223.326 86.8129,227.144 86.7146,227.683 85.5082,232.588 85.4435,232.823 84.9266,234.522 84.9991,234.304 85.0281,234.219 85.6415,232.49 85.7526,232.207 86.4069,230.695 86.5644,230.368 87.2515,229.077 87.482,228.691 88.1937,227.626 88.5427,227.169 89.2709,226.333 89.8156,225.806 90.5522,225.203 91.4059,224.653 92.1428,224.289 93.3923,223.885 94.1213,223.763 95.4935,223.744 96.1373,223.835 97.3452,224.182 97.9569,224.455 98.9606,225.073 99.5236,225.53 100.246,226.271 100.744,226.915 101.208,227.656 101.624,228.489 101.896,229.165 102.214,230.189 102.355,230.783 102.558,231.999 102.613,232.512 102.685,233.923 102.67,234.577 102.279,238.673 102.198,239.199 101.232,243.653 103.111,240.58 103.461,240.086 107.527,235.092 106.517,235.137 104.118,233.406 103.361,231.533 103.237,230.755 103.225,230.676 103.118,229.915 103.107,229.831 103.016,229.087 103.007,228.999 102.932,228.271 102.924,228.178 102.866,227.467 102.859,227.369 102.818,226.673 102.813,226.571 102.788,225.891 102.786,225.783 102.777,225.119 102.789,224.73 103.092,220.653 103.192,219.989 104.033,216.288 104.224,215.662 105.503,212.355 105.771,211.785 107.021,209.545 105.218,210.755 104.242,211.25 101.664,212.184 100.624,212.426 97.6262,212.756 96.6345,212.755 93.4453,212.399 92.436,212.166 89.5718,211.147 88.651,210.695 86.1427,209.086 85.6085,208.656 " fill="none" stroke-width="0.5" stroke="rgb(0,0,0)" />
	<polygon points="462.691,211.155 462.799,211.756 462.854,212.177 462.913,212.88 462.927,213.154 462.945,213.957 462.94,214.283 462.812,216.804 462.785,217.117 462.449,219.898 462.424,220.076 461.948,223.017 461.933,223.103 461.387,226.104 461.385,226.115 460.846,229.042 460.389,231.745 460.085,234.077 459.984,235.849 460.076,237.038 460.331,238.169 460.725,239.222 461.203,240.11 461.384,240.353 462.729,238.85 464.295,236.604 465.777,233.892 466.995,230.894 467.801,227.787 468.083,224.752 467.486,219.393 465.945,215.177 463.721,211.841 462.588,210.748 " fill="none" stroke-width="0.5" stroke="rgb(0,0,0)" />
	<polygon points="64.4799,212.214 62.9537,214.72 59.6805,217.431 59.5656,217.522 59.9726,217.454 60.7547,217.557 62.0436,217.928 62.6879,218.224 63.8303,218.977 64.3472,219.445 65.1085,220.341 65.5083,220.961 65.9193,221.765 66.2123,222.515 66.4076,223.15 66.6041,224.011 66.6869,224.494 66.7972,225.445 66.8247,225.811 66.8591,226.832 66.8553,227.224 66.6825,230.465 66.651,230.808 66.5533,231.557 67.2691,229.456 67.3595,229.214 69.9629,222.804 70.2526,222.218 72.9172,217.684 74.3709,216.174 76.5453,214.782 75.9531,214.835 75.6817,214.851 74.5424,214.883 74.0421,214.869 71.812,214.684 71.0453,214.553 68.9736,214.011 68.2003,213.73 66.3298,212.852 65.5799,212.406 64.3986,211.539 " fill="none" stroke-width="0.5" stroke="rgb(0,0,0)" />
	<polygon points="364.704,229.345 364.739,229.689 365.427,229.316 365.177,229.238 364.635,229.009 " fill="none" stroke-width="0.5" stroke="rgb(0,0,0)" />
	<polygon points="337.996,211.007 337.272,211.493 335.457,212.468 334.644,212.808 334.367,212.892 334.69,213.158 335.295,213.761 336.152,214.797 336.635,215.511 337.283,216.698 337.628,217.51 338.038,218.82 338.137,219.304 338.795,218.76 339.51,218.277 341.559,217.163 342.371,216.819 342.82,216.679 341.99,215.994 341.385,215.389 340.53,214.353 340.047,213.639 339.4,212.451 339.057,211.639 338.684,210.443 " fill="none" stroke-width="0.5" stroke="rgb(0,0,0)" />
	<polygon points="356.569,216.848 355.855,217.331 355.702,217.415 357.065,218.156 357.031,217.814 357.031,216.913 357.08,216.426 " fill="none" stroke-width="0.5" stroke="rgb(0,0,0)" />
	<polygon points="320.739,211.901 320.848,211.827 321.263,211.6 321.056,211.489 320.8,211.316 " fill="none" stroke-width="0.5" stroke="rgb(0,0,0)" />
	<polygon points="360.944,204.839 361.126,205.726 361.268,207.128 361.269,207.906 362.258,207.089 362.974,206.605 363.682,206.22 363.305,206.059 362.065,205.378 361.358,204.896 360.823,204.452 " fill="none" stroke-width="0.5" stroke="rgb(0,0,0)" />
	<polygon points="113.355,199.861 113.155,200.536 112.193,203.045 112.045,203.347 112.411,203.022 114.44,201.452 115.006,201.079 116.972,199.986 117.432,199.763 117.571,199.705 117.073,199.797 114.459,198.412 113.897,197.308 " fill="none" stroke-width="0.5" stroke="rgb(0,0,0)" />
	<polygon points="124.082,195.704 123.39,195.808 122.871,195.952 122.528,196.104 122.338,196.23 122.243,196.324 122.173,196.43 121.929,197.033 120.465,198.707 121.231,198.516 121.504,198.457 122.646,198.247 122.884,198.21 124.067,198.057 124.271,198.035 125.493,197.934 125.665,197.923 126.925,197.866 127.066,197.862 128.361,197.844 128.538,197.846 130.68,197.901 130.878,197.91 132.93,198.053 131.867,197.476 129.373,196.47 127.035,195.872 124.815,195.67 " fill="none" stroke-width="0.5" stroke="rgb(0,0,0)" />
	<polygon points="355.582,194.923 354.774,195.266 352.68,195.924 351.791,196.107 350.95,196.193 351.661,196.265 352.547,196.447 353.857,196.856 354.667,197.199 355.854,197.846 356.567,198.328 357.006,198.691 356.843,198.169 356.66,197.28 356.509,195.808 356.509,194.889 356.56,194.389 " fill="none" stroke-width="0.5" stroke="rgb(0,0,0)" />
	<polygon points="314.293,195.613 313.482,195.956 312.169,196.365 311.768,196.447 312.468,196.747 314.104,197.646 314.261,196.066 314.359,195.578 " fill="none" stroke-width="0.5" stroke="rgb(0,0,0)" />
	<polygon points="344.092,196.065 344.242,197.572 344.931,197.198 345.742,196.855 347.055,196.446 347.94,196.265 347.94,196.265 346.395,196.107 345.506,195.923 343.966,195.44 " fill="none" stroke-width="0.5" stroke="rgb(0,0,0)" />
	<polygon points="39.2804,187.8 40.8424,188.768 42.5732,189.543 44.455,190.131 46.4562,190.538 48.5367,190.772 50.7007,190.848 51.3461,190.842 52.0596,190.82 52.7773,190.783 53.4907,190.732 54.191,190.668 54.8697,190.59 55.5172,190.5 56.1905,190.387 59.106,190.887 60.615,192.569 60.9697,191.847 62.4617,189.472 62.9413,188.84 63.1285,188.634 61.7396,189.065 61.4885,189.135 59.7144,189.574 59.4357,189.634 57.7459,189.94 57.4412,189.985 55.8298,190.164 55.5026,190.189 53.9637,190.247 53.5599,190.244 51.0998,190.117 50.6771,190.075 48.3948,189.739 48.0674,189.678 45.9447,189.203 45.7349,189.151 43.7536,188.606 43.6806,188.585 41.8666,188.054 40.3002,187.629 39.0417,187.376 38.7532,187.353 " fill="none" stroke-width="0.5" stroke="rgb(0,0,0)" />
	<polygon points="109.328,155.991 108.919,157.302 108.575,158.113 107.929,159.301 107.447,160.014 106.592,161.05 105.989,161.654 104.954,162.51 104.241,162.992 103.055,163.639 102.244,163.984 100.935,164.393 100.048,164.575 98.6464,164.718 97.7361,164.718 96.329,164.575 95.4442,164.394 94.1314,163.985 93.3208,163.642 92.1311,162.995 91.4177,162.513 90.3798,161.658 89.7757,161.054 89.7154,160.981 89.3041,162.395 89.1725,162.781 87.9212,165.972 87.758,166.339 86.9083,168.04 89.2566,166.527 91.8771,166.681 95.22,167.918 95.7184,168.138 99.0939,169.877 99.562,170.155 102.823,172.37 103.284,172.729 106.283,175.396 106.743,175.87 109.332,178.963 109.772,179.59 111.803,183.084 112.17,183.886 112.891,185.989 112.921,185.685 113.337,183.009 113.488,182.36 114.207,180.055 114.549,179.247 115.592,177.329 116.223,176.442 117.61,174.925 118.535,174.152 120.286,173.05 121.333,172.566 122.698,172.136 122.297,171.962 118.716,169.914 117.915,169.329 115.022,166.685 114.396,165.979 112.174,162.868 111.739,162.114 110.171,158.665 109.907,157.911 109.369,155.791 " fill="none" stroke-width="0.5" stroke="rgb(0,0,0)" />
	<polygon points="320.873,185.987 321.016,185.891 320.89,185.822 " fill="none" stroke-width="0.5" stroke="rgb(0,0,0)" />
	<polygon points="367.745,163.926 367.132,165.053 366.647,165.77 365.835,166.751 365.228,167.358 364.244,168.168 363.527,168.65 362.398,169.262 361.586,169.604 360.474,169.949 361.83,171.586 362.312,172.296 363.351,174.195 363.697,175.005 364.355,177.098 364.538,177.988 364.768,180.227 364.768,181.148 364.538,183.382 364.363,184.23 365.479,183.878 366.372,183.692 367.827,183.542 368.747,183.541 370.22,183.692 371.107,183.874 372.483,184.305 373.292,184.648 374.54,185.328 374.668,185.415 372.439,180.857 372.187,180.223 369.421,171.375 369.287,170.829 367.955,163.429 " fill="none" stroke-width="0.5" stroke="rgb(0,0,0)" />
	<polygon points="163.16,162.969 162.914,163.182 159.326,166.069 158.971,166.326 155.185,168.808 154.72,169.074 150.646,171.097 150.092,171.328 145.644,172.839 145.047,172.996 140.136,173.942 139.554,174.015 137.157,174.159 137.73,174.476 141.346,176.995 141.884,177.435 145.278,180.68 145.637,181.066 148.785,184.877 148.975,185.129 149.063,183.89 149.106,183.509 149.713,179.654 149.872,178.982 150.831,175.986 151.345,174.904 152.736,172.765 153.994,171.487 155.896,170.205 157.651,169.502 160.146,169.075 161.77,169.094 163.498,169.432 164.607,169.805 166.568,170.762 167.212,171.146 168.972,172.405 166.987,168.602 166.769,168.118 164.966,163.371 164.838,162.983 164.488,161.731 " fill="none" stroke-width="0.5" stroke="rgb(0,0,0)" />
	<polygon points="333.575,184.134 333.501,184.195 333.85,184.302 333.841,184.273 333.772,183.937 " fill="none" stroke-width="0.5" stroke="rgb(0,0,0)" />
	<polygon points="79.993,178.294 79.5402,178.773 76.9317,181.157 77.3322,181.16 79.1754,182.645 79.5939,181.157 79.7188,180.778 80.735,178.102 80.8766,177.77 81.5125,176.43 " fill="none" stroke-width="0.5" stroke="rgb(0,0,0)" />
	<polygon points="346.517,158.248 343.016,161.863 342.27,162.483 338.163,165.206 337.401,165.612 333.088,167.402 333.568,167.798 334.175,168.404 334.986,169.385 335.471,170.102 336.084,171.228 336.285,171.704 336.364,171.587 337.737,169.929 338.337,169.329 339.996,167.958 340.706,167.477 342.605,166.44 343.415,166.096 345.507,165.439 346.396,165.256 348.212,165.07 348.199,165.051 347.587,163.925 347.243,163.111 346.856,161.867 346.676,160.983 346.541,159.647 346.541,158.745 346.602,158.137 " fill="none" stroke-width="0.5" stroke="rgb(0,0,0)" />
	<polygon points="201.26,161.003 201.358,162.214 201.522,163.247 201.549,163.348 201.62,163.294 201.901,163.037 202.729,162.68 202.314,162.283 201.341,160.919 201.254,160.732 " fill="none" stroke-width="0.5" stroke="rgb(0,0,0)" />
	<polygon points="84.6867,148.481 85.1134,148.981 85.5677,149.382 86.1797,149.825 86.8975,150.323 87.0517,150.44 87.4422,149.192 87.5724,148.885 87.2285,148.85 86.3404,148.668 85.0315,148.258 84.3725,147.979 " fill="none" stroke-width="0.5" stroke="rgb(0,0,0)" />
	<polygon points="123.703,106.32 122.232,111.633 120.642,117.994 120.622,118.071 118.896,124.487 118.808,124.775 116.891,130.372 116.578,131.08 114.404,135.039 114.008,135.45 115.337,134.737 116.595,134.401 119.691,134.686 120.983,135.301 123.119,137.446 123.884,139.068 124.218,140.068 124.696,142.362 124.731,142.549 125.138,145.018 125.624,147.05 126.129,148.134 126.35,148.339 127.032,148.496 127.118,148.472 127.542,148.276 128.077,147.919 128.688,147.363 129.344,146.561 130.011,145.461 130.67,143.954 131.01,142.918 131.347,141.752 131.635,140.592 131.873,139.447 132.059,138.33 132.192,137.25 132.271,136.22 132.297,135.257 132.255,133.879 132.136,132.802 131.979,132.107 131.825,132.12 131.204,132.265 130.455,132.528 129.666,132.884 128.911,133.294 128.259,133.707 127.789,134.054 127.373,134.423 124.637,135.548 121.794,134.732 120.072,132.326 120.233,129.326 122.077,124.896 122.386,124.287 124.728,120.434 125.146,119.855 127.93,116.584 128.447,116.068 131.615,113.383 131.822,113.234 130.779,112.717 129.262,111.569 128.674,111.036 127.172,109.414 126.974,109.185 125.479,107.334 124.079,105.62 124.008,105.546 " fill="none" stroke-width="0.5" stroke="rgb(0,0,0)" />
	<polygon points="94.8473,108.824 92.8352,110.78 92.7599,110.852 90.5833,112.873 90.2868,113.125 88.0236,114.888 87.3758,115.309 85.0377,116.556 83.7898,117 81.3884,117.473 80.0404,117.532 78.8436,117.404 77.7324,117.14 77.5877,117.085 77.9636,119.298 78.0199,119.796 78.2086,123.111 78.2148,123.466 78.1831,124.893 78.1745,125.088 78.0835,126.476 78.0675,126.661 77.9233,128.007 77.9011,128.182 77.7099,129.483 77.6824,129.649 77.4505,130.901 77.4185,131.058 77.152,132.257 77.1164,132.405 76.8215,133.547 76.7827,133.688 76.4656,134.77 74.7468,137.177 71.8851,137.996 67.3097,137.729 66.7734,137.666 62.2167,136.844 61.6319,136.697 57.2762,135.29 56.7828,135.086 57.3891,137.902 56.4709,139.449 57.3275,139.213 57.6674,139.133 60.1626,138.65 60.4702,138.601 62.8728,138.306 63.1347,138.282 65.4419,138.134 65.6469,138.126 67.8559,138.086 67.963,138.085 68.4866,138.088 68.5372,138.089 69.0566,138.098 69.1072,138.099 69.6185,138.113 69.6706,138.115 70.1697,138.135 70.2247,138.137 70.7076,138.162 70.7668,138.166 71.2294,138.196 71.2952,138.201 71.7335,138.236 71.8089,138.242 72.2187,138.282 72.2519,138.286 73.3857,138.404 74.4465,138.507 74.4697,138.509 75.4617,138.611 75.5569,138.621 76.4512,138.732 76.6477,138.761 77.432,138.893 77.7259,138.955 77.6265,137.976 77.6265,137.067 77.7691,135.663 77.9501,134.779 78.3586,133.468 78.7012,132.658 79.3471,131.471 79.8283,130.758 80.6829,129.721 81.2854,129.117 82.3201,128.261 83.0333,127.777 84.2194,127.13 85.0315,126.785 86.3404,126.375 87.2285,126.193 88.6316,126.05 89.5434,126.05 90.9485,126.193 91.8354,126.375 93.1463,126.784 93.9576,127.128 95.1455,127.776 95.8586,128.258 96.8949,129.115 97.4979,129.718 98.3539,130.755 98.8358,131.468 99.4827,132.656 99.8262,133.466 100.235,134.777 100.417,135.663 100.56,137.066 100.56,137.977 100.417,139.382 100.236,140.268 99.8264,141.578 99.6939,141.891 100.048,141.927 100.935,142.109 102.243,142.518 103.054,142.862 104.24,143.509 104.952,143.991 105.987,144.846 106.59,145.449 107.445,146.484 107.927,147.196 108.571,148.378 108.59,147.918 108.611,147.627 108.779,146.018 108.821,145.722 109.124,143.962 109.203,143.599 109.66,141.833 109.82,141.337 110.45,139.711 110.808,138.987 111.629,137.646 112.014,137.188 110.277,138.231 107.381,138.836 105.863,138.355 103.226,136.966 101.276,134.953 99.4953,131.291 99.1521,130.312 97.9856,125.136 97.9152,124.743 97.1215,118.809 97.1096,118.711 96.4564,112.86 95.7459,108.099 95.7266,108.036 " fill="none" stroke-width="0.5" stroke="rgb(0,0,0)" />
	<polygon points="314.627,121.947 312.868,122.422 311.313,123.147 309.966,124.074 308.844,125.15 307.972,126.306 307.369,127.454 306.904,128.924 305.134,131.294 303.915,131.617 305.265,132.682 306.566,133.545 307.799,134.204 308.99,134.686 310.18,135.018 311.418,135.216 312.792,135.286 313.242,135.272 313.817,135.228 314.458,135.157 315.14,135.069 315.831,134.976 315.868,134.971 316.522,134.888 316.642,134.875 317.231,134.816 317.479,134.798 317.986,134.776 318.439,134.779 319.004,134.811 319.576,134.881 320.085,134.976 320.744,135.152 321.19,135.309 321.93,135.646 322.308,135.861 323.083,136.419 323.387,136.692 324.097,137.5 324.322,137.828 324.837,138.829 324.977,139.211 325.223,140.261 325.27,140.694 325.274,141.645 325.195,142.42 325.069,143.112 324.842,143.97 324.68,144.465 324.606,144.652 326.814,144.476 329.823,143.731 332.646,142.477 335.165,140.711 335.294,140.572 334.948,140.822 332.114,141.671 329.366,140.576 328.328,139.267 327.822,138.304 327.297,137.478 326.66,136.64 325.911,135.81 325.047,135.004 324.062,134.237 322.952,133.523 321.529,132.783 321.11,132.567 320.533,132.212 320.17,131.949 319.637,131.495 319.336,131.195 318.878,130.662 318.636,130.332 318.274,129.749 318.09,129.394 317.83,128.79 317.701,128.416 317.539,127.814 317.463,127.428 317.388,126.845 317.363,126.452 317.378,125.702 317.455,124.959 317.612,124.164 317.836,123.394 318.067,122.776 318.422,122.003 318.428,121.992 318.08,121.918 317.207,121.797 316.682,121.768 " fill="none" stroke-width="0.5" stroke="rgb(0,0,0)" />
	<polygon points="41.7819,114.892 41.7553,115.127 41.7355,115.366 41.7213,115.617 41.712,115.89 41.7067,116.193 41.7046,116.529 41.7044,116.741 41.9264,119.851 42.5362,122.512 43.5159,124.891 44.855,127.008 46.5645,128.886 48.6724,130.529 50.9706,131.789 48.5039,129.855 47.756,129.112 45.0968,125.763 44.4811,124.729 42.7519,120.671 42.4285,119.481 41.812,114.686 " fill="none" stroke-width="0.5" stroke="rgb(0,0,0)" />
	<polygon points="144.085,98.5219 143.529,101.544 142.951,104.772 142.872,105.13 142.126,107.956 141.875,108.582 144.76,107.926 145.429,107.826 149.559,107.524 150.393,107.541 155.27,108.093 156.322,108.343 160.356,109.832 160.19,109.699 155.604,105.849 155.573,105.823 151.12,102.017 147.162,98.8345 144.494,97.0752 " fill="none" stroke-width="0.5" stroke="rgb(0,0,0)" />
	<polygon points="69.5007,91.1593 64.4067,93.8403 58.689,96.9948 58.654,97.0139 57.2377,97.7789 57.5396,97.7488 58.6024,97.7689 62.6883,98.3335 63.9568,98.7047 67.3393,100.264 68.395,100.944 71.1229,103.298 71.5749,103.792 71.7445,101.776 71.758,101.641 72.0092,99.4516 72.0174,99.3845 72.3054,97.1692 72.3063,97.1627 72.5906,95 72.8308,92.9781 72.9923,91.1715 73.0511,89.5906 73.051,89.5784 " fill="none" stroke-width="0.5" stroke="rgb(0,0,0)" />
	<polygon points="106.379,56.9608 105.134,57.5576 103.498,58.6834 101.672,60.1707 99.8019,61.7717 99.6899,61.8645 97.9085,63.2924 97.4769,63.5985 95.859,64.6085 94.6469,65.1362 93.2602,65.5099 93.8748,66.4209 94.1539,66.9689 94.469,67.7685 94.6583,68.4278 94.7895,69.0441 94.8972,69.8106 94.9375,70.2604 94.9716,71.1303 94.9657,71.5958 94.8385,73.5718 94.7969,73.9574 94.4615,76.1692 94.425,76.3768 93.9507,78.7485 93.9317,78.8387 93.7694,79.5721 94.667,78.2351 94.862,77.9666 96.9475,75.3073 97.4776,74.7399 99.5668,72.859 101.104,71.9515 103.162,71.238 107.329,71.8847 108.766,72.9584 110.408,75.3566 111.196,78.1871 111.343,78.9929 111.701,82.9947 111.717,83.2513 111.733,83.7606 111.766,83.6397 112.876,80.0028 113.155,79.3037 114.442,76.7313 114.779,76.3581 114.397,76.4095 112.995,75.8672 111.57,75.0189 109.571,72.4774 108.882,70.241 108.698,69.2905 108.433,66.1287 108.422,65.9404 108.276,62.4376 107.977,59.3131 107.446,57.3506 107.173,56.9865 106.822,56.8802 " fill="none" stroke-width="0.5" stroke="rgb(0,0,0)" />
	<polygon points="171.486,77.2813 173.422,81.8465 173.497,81.3879 173.543,81.1984 173.77,80.5164 173.845,80.3389 174.197,79.6692 174.299,79.51 174.811,78.8526 174.938,78.7178 175.646,78.1056 175.796,78.0016 176.72,77.5073 176.89,77.4404 177.977,77.1631 178.166,77.1393 179.998,77.288 181.489,77.7274 178.262,76.6426 173.655,75.1781 170.447,74.3369 " fill="none" stroke-width="0.5" stroke="rgb(0,0,0)" />
	<polygon points="125.69,57.8346 124.854,60.0608 124.076,63.291 123.339,66.7901 123.277,67.0453 122.43,70.1523 122.079,71.0489 120.934,73.2466 120.538,73.6378 121.522,73.5286 123.061,74.0766 124.804,75.2055 126.186,76.65 126.747,77.3711 128.027,79.4135 128.195,79.7057 128.612,80.4963 128.612,78.1149 128.612,78.0774 128.624,76.6952 128.627,76.5647 128.673,75.3143 128.689,75.0753 128.789,73.9729 128.844,73.5697 129.016,72.6314 129.188,71.9739 129.45,71.2159 129.945,70.2099 130.314,69.6484 131.484,68.4418 131.979,68.093 133.74,67.3502 134.333,67.2393 133.872,66.7398 132.173,64.5847 132.053,64.4244 130.309,61.9973 128.603,59.7382 127.08,58.0725 126.07,57.3362 " fill="none" stroke-width="0.5" stroke="rgb(0,0,0)" />
	<polygon points="146.252,67.1711 145.79,67.9086 145.555,68.2144 144.947,68.8602 144.662,69.1086 143.924,69.6315 143.598,69.8163 142.754,70.1861 142.528,70.2586 143.074,70.6156 143.457,70.8961 146.884,73.693 147.042,73.828 150.289,76.7381 150.232,76.6127 150.205,76.5501 148.376,72.2922 148.303,72.1106 146.707,67.8996 146.589,67.5429 146.399,66.8775 " fill="none" stroke-width="0.5" stroke="rgb(0,0,0)" />
	<polygon points="398.489,59.3653 398.487,60.2041 397.918,66.083 398.097,65.6789 398.235,65.4388 398.775,64.6893 398.955,64.4881 399.604,63.8897 399.816,63.7295 400.535,63.2857 400.772,63.1687 401.54,62.8736 401.794,62.8018 402.602,62.6513 402.864,62.6269 404.924,62.9185 406.034,63.3538 407.27,64.0847 408.648,65.2325 408.906,65.4641 410.547,67.0594 412.373,68.7738 414.324,70.3406 416.386,71.5926 418.548,72.4062 421.087,72.7266 421.6,72.7025 422.447,72.5738 423.277,72.3311 423.971,71.9877 424.495,71.5617 424.918,70.9774 425.28,69.9915 425.41,68.7592 424.711,66.4389 422.531,64.1871 418.572,61.8448 413.568,59.7718 408.321,58.032 403.614,56.5861 403.403,56.5153 400.041,55.2969 398.665,54.4995 397.998,53.9343 " fill="none" stroke-width="0.5" stroke="rgb(0,0,0)" />
	<polygon points="93.6581,45.8155 92.0579,45.9884 90.2881,46.2489 88.4149,46.5614 86.5238,46.881 86.4553,46.892 85.3614,47.0595 85.9737,47.5497 87.1003,49.3028 87.5978,53.1158 86.7795,55.6551 86.1644,56.8817 84.0072,59.917 83.6616,60.3452 80.6118,63.6837 80.4497,63.8521 78.5083,65.7673 80.7425,64.7376 81.1043,64.5896 83.8578,63.6001 84.658,63.3932 86.795,63.0461 86.7834,63.0296 86.2354,61.986 86.125,61.6854 85.8747,60.616 85.8357,60.2539 85.9658,58.5959 86.3716,57.0959 86.8374,55.9884 87.9072,54.1708 88.1687,53.7758 89.6812,51.7329 89.7784,51.6064 91.4995,49.4463 93.1458,47.3412 94.2286,45.7906 " fill="none" stroke-width="0.5" stroke="rgb(0,0,0)" />
	<polygon points="52.3512,60.8264 52.7014,61.2311 53.6549,63.0493 53.7798,63.5328 53.7537,64.1578 54.3564,63.4666 56.4148,60.7304 51.873,60.4202 " fill="none" stroke-width="0.5" stroke="rgb(0,0,0)" />
	<polygon points="141.865,48.0455 141.971,48.9599 142.413,50.5371 143.145,52.4647 144.059,54.5807 145.012,56.7314 145.035,56.7839 145.133,56.2124 145.305,55.5361 145.578,54.7296 145.942,53.9251 146.338,53.238 146.972,52.3878 147.499,51.8323 148.397,51.1021 149.064,50.6903 150.079,50.2256 150.892,49.9696 150.949,49.9582 150.874,49.9412 149.33,49.549 149.248,49.5271 147.626,49.0819 146.025,48.6555 144.54,48.3109 143.247,48.0935 142.205,48.0233 " fill="none" stroke-width="0.5" stroke="rgb(0,0,0)" />
	<polygon points="186.166,36.8699 185.281,37.5366 185.608,38.4127 186.613,39.7375 186.651,38.4222 186.977,37.6625 188.373,35.8697 188.783,35.5545 " fill="none" stroke-width="0.5" stroke="rgb(0,0,0)" />
	<polygon points="465.482,97.6425 467.967,98.1529 468.757,98.3924 470.853,99.2444 471.669,99.6791 473.392,100.838 474.133,101.462 475.502,102.893 476.076,103.635 476.323,104.035 476.323,124.002 475.781,125.225 475.642,125.465 476.323,125.527 476.323,189.714 475.143,190.517 471.538,191.166 468.204,190.347 467.033,189.877 462.463,187.247 461.96,186.91 456.637,182.805 456.307,182.524 450.714,177.281 450.43,176.989 445.05,170.943 444.758,170.58 440.073,164.067 439.746,163.54 436.24,156.897 435.893,156.036 434.047,149.599 434.212,146.645 435.486,145.209 434.482,145.072 433.948,144.965 431.981,144.449 431.313,144.216 429.634,143.478 428.836,143.025 427.476,142.058 426.635,141.28 425.625,140.075 424.946,138.973 424.317,137.521 423.982,136.3 423.947,136.023 423.659,137.525 423.072,139.037 421.333,141.862 420.501,142.856 417.76,145.308 416.985,145.866 413.369,147.922 412.727,148.223 408.366,149.863 407.836,150.025 402.858,151.224 402.404,151.309 396.936,152.045 396.529,152.081 390.701,152.331 390.022,152.309 381.755,151.413 380.803,151.203 373.456,148.728 372.618,148.346 366.248,144.613 365.561,144.117 360.224,139.449 359.68,138.881 355.432,133.598 355.007,132.967 351.904,127.39 351.579,126.662 349.676,121.114 349.467,120.21 348.821,115.011 348.797,114.139 348.823,113.778 348.921,113.109 348.989,112.805 349.217,112.082 349.322,111.827 349.677,111.137 349.812,110.923 350.235,110.356 350.394,110.174 350.792,109.774 350.969,109.617 351.268,109.374 351.456,109.234 351.613,109.122 351.807,108.99 352.886,108.452 354.067,108.049 355.06,107.832 356.901,107.644 357.137,107.626 359.543,107.507 362.374,107.319 365.561,106.93 369.098,106.212 372.965,105.031 377.237,103.205 377.693,102.974 377.949,102.854 378.535,102.601 378.798,102.497 379.38,102.288 379.649,102.201 380.226,102.034 380.499,101.965 381.067,101.838 381.343,101.785 381.902,101.697 382.181,101.662 382.728,101.61 383.009,101.593 383.541,101.576 384.362,101.625 386.328,101.925 387.841,102.444 389.259,103.235 390.355,104.094 391.4,105.213 391.867,105.807 392.713,107.089 392.746,107.14 393.39,108.147 393.668,108.468 393.996,108.523 394.788,108.449 396.061,108.148 397.582,107.65 399.26,107.019 400.981,106.352 401.096,106.309 402.747,105.721 403.069,105.62 404.588,105.204 405.252,105.075 406.599,104.918 408.621,105.144 410.663,105.865 412.206,106.792 414.35,108.758 414.942,109.42 417.072,112.337 417.363,112.791 419.364,116.363 419.547,116.727 421.303,120.659 421.443,121.01 422.84,125.007 422.963,125.422 423.886,129.19 423.991,129.8 424.151,131.358 424.265,130.957 424.548,130.217 425.043,129.202 425.486,128.475 426.225,127.489 426.854,126.808 427.863,125.92 428.663,125.357 429.7,124.785 428.949,124.458 428.2,124.043 427.207,123.361 426.497,122.757 425.589,121.805 425.028,121.083 424.237,119.817 423.875,119.103 423.371,117.842 423.204,117.337 422.832,115.951 422.774,115.709 422.468,114.253 422.466,114.242 422.184,112.88 421.901,111.789 421.623,111.049 421.407,110.684 420.835,110.106 419.563,107.436 420.224,104.552 422.532,102.702 425.153,102.584 426.14,102.837 427.014,103.004 427.923,103.129 428.854,103.216 429.796,103.271 430.74,103.3 431.678,103.311 432.421,103.313 434.88,103.118 437.281,102.607 439.801,101.831 442.407,100.885 445.02,99.9 445.144,99.8552 447.668,98.9879 448.012,98.8846 450.404,98.2711 451.058,98.154 453.302,97.9213 454.143,97.9131 455.452,98.0231 456.316,98.182 457.399,98.4927 458.336,98.8803 459.208,99.363 460.081,99.993 460.622,100.492 461.147,99.1366 463.697,97.6372 " fill="none" stroke-width="0.5" stroke="rgb(0,0,0)" />
</svg>
