<?xml version="1.0" standalone="no" ?>
<!DOCTYPE svg PUBLIC "-//W3C//DTD SVG 1.1//EN" "http://www.w3.org/Graphics/SVG/1.1/DTD/svg11.dtd">
<svg width="500px" height="500px" xmlns="http://www.w3.org/2000/svg" version="1.1" >
	<polygon points="466.923,280.896 466.133,294.982 463.775,309.866 459.781,325.63 454.125,341.949 446.792,358.517 437.776,375.037 427.073,391.223 414.682,406.796 400.602,421.489 384.825,435.041 367.341,447.201 348.124,457.724 327.136,466.364 304.325,472.87 279.631,476.979 252.981,478.414 227.019,477.06 202.846,473.17 180.434,466.994 159.739,458.767 140.727,448.717 123.372,437.065 107.664,424.03 93.5978,409.837 81.1783,394.717 70.4133,378.909 61.3114,362.657 53.8799,346.216 48.1226,329.848 44.0368,313.823 41.6097,298.421 40.7905,283.524 40.7905,33.3694 49.9805,33.2989 61.4722,33.2107 72.9639,33.1225 84.4556,33.0344 95.9473,32.9462 107.439,32.858 118.931,32.7698 130.422,32.6817 141.914,32.5935 153.406,32.5053 164.897,32.4171 176.389,32.329 187.881,32.2408 196.83,32.1721 196.806,43.935 196.781,56.8338 196.756,69.7326 196.756,69.7326 196.73,82.6314 196.679,108.429 196.679,108.429 196.654,121.328 196.603,147.125 196.603,147.125 196.578,160.024 196.552,172.923 196.552,172.923 196.527,185.822 196.501,198.721 196.476,211.619 196.476,211.619 196.45,224.518 196.451,224.653 196.538,235.947 196.539,236.051 196.704,246.868 196.708,247.058 197.005,257.364 197.016,257.653 197.501,267.415 197.527,267.824 198.255,277.008 198.31,277.562 199.337,286.135 199.444,286.866 200.825,294.795 201.024,295.741 202.813,302.992 203.167,304.191 205.421,310.73 206.025,312.202 208.799,317.996 209.776,319.712 213.125,324.729 214.59,326.565 218.57,330.77 220.542,332.495 225.207,335.854 227.532,337.208 232.938,339.689 235.327,340.531 241.53,342.101 243.714,342.471 250.768,343.096 251.947,329.779 252.867,343.117 260.128,342.616 262.323,342.287 268.67,340.809 271.116,339.994 276.612,337.576 279.029,336.209 283.735,332.887 285.798,331.104 289.776,326.915 291.298,325 294.611,319.981 295.609,318.196 298.318,312.384 298.92,310.868 301.088,304.298 301.429,303.079 303.118,295.79 303.303,294.841 304.574,286.868 304.67,286.149 305.586,277.529 305.632,276.996 306.255,267.766 306.275,267.385 306.667,257.582 306.674,257.326 306.897,246.987 306.899,246.836 307.014,235.996 307.015,235.934 307.085,224.632 307.085,224.518 307.059,211.619 307.033,198.72 307.007,185.821 306.982,172.923 306.982,172.923 306.956,160.024 306.904,134.226 306.904,134.226 306.878,121.327 306.801,82.631 306.801,82.631 306.775,69.7322 306.699,31.9756 316.367,31.9134 328.12,31.8379 339.874,31.7623 351.627,31.6868 363.38,31.6112 375.133,31.5356 386.887,31.4601 410.393,31.3089 422.146,31.2334 433.9,31.1578 445.653,31.0823 457.406,31.0067 466.923,30.9455 " fill="none" stroke-width="0.5" stroke="rgb(0,0,0)" />
</svg>
