<?xml version="1.0" standalone="no" ?>
<!DOCTYPE svg PUBLIC "-//W3C//DTD SVG 1.1//EN" "http://www.w3.org/Graphics/SVG/1.1/DTD/svg11.dtd">
<svg width="500px" height="500px" xmlns="http://www.w3.org/2000/svg" version="1.1" >
	<polygon points="480.823,81.7339 480.058,82.9998 474.743,89.4718 472.948,91.1591 469.832,93.4115 470.678,93.668 472.774,94.5201 474.516,95.4473 476.239,96.6064 477.819,97.937 479.188,99.3685 480.413,100.951 480.823,101.615 480.823,192.233 479.59,193.66 478.011,194.734 476.452,195.336 479.7,198.94 480.761,200.364 480.823,200.465 480.823,248.236 480.33,249.075 479.854,249.807 478.24,252.058 478.693,252.161 479.953,252.609 480.823,253.055 480.823,281.286 479.972,296.455 477.78,299.166 477.004,300.016 474.811,302.148 474.964,302.388 476.879,306.056 477.444,307.365 477.993,308.954 477.405,312.666 473.11,329.62 467.07,347.047 459.27,364.67 454.535,373.346 451.246,373.653 451.146,373.615 451.613,378.628 451.611,378.703 449.695,382.213 438.331,399.399 425.161,415.952 410.17,431.593 400.229,440.133 398.71,439.656 397.875,439.262 397.861,439.543 397.319,442.633 393.345,446.047 374.668,459.037 354.126,470.285 331.702,479.516 321,482.568 320.163,482.237 317.499,480.86 315.856,479.784 315.669,479.633 315.376,482.14 314.978,483.613 314.582,484.399 307.382,486.452 281.151,490.817 264.457,491.716 263.737,491.128 263.432,490.833 262.928,491.071 261.012,491.901 252.993,492.333 225.548,490.902 199.887,486.773 176.51,480.331 174.26,478.75 171.499,477.197 169.989,476.762 167.207,476.487 166.601,476.453 153.907,471.407 133.585,460.665 127.253,456.413 126.175,454.74 125.998,453.204 125.797,453.202 121.83,452.772 115.039,448.212 98.2672,434.295 83.2685,419.161 70.0408,403.057 68.7258,401.126 68.687,399.387 68.727,398.886 66.4,397.711 58.5824,386.23 48.8916,368.927 40.9666,351.394 34.8057,333.879 33.3832,328.3 35.9719,319.962 36.5185,318.586 38.1229,315.31 37.1132,315.29 35.1441,314.67 31.2378,312.301 29.4427,310.506 27.7694,299.888 26.8905,283.906 26.8905,233.426 27.5532,231.903 28.63,230.05 27.3874,229.334 26.8905,228.945 26.8905,159.955 27.76,157.531 28.3753,156.163 30.8018,151.73 31.8329,150.212 32.7771,149.073 31.8778,148.712 29.5915,147.526 28.0042,146.491 26.8905,145.597 26.8905,109.308 27.5409,108.752 27.7711,108.584 26.8905,107.891 26.8905,39.7448 30.2923,37.2537 30.7591,36.9326 32.537,35.7853 29.9272,34.963 28.4799,34.3737 26.8905,33.57 26.8905,19.5757 38.3822,19.4875 49.8739,19.3993 61.3656,19.3111 72.8572,19.223 84.3489,19.1348 95.8406,19.0466 107.332,18.9584 118.082,18.8759 118.842,19.7872 119.679,18.8637 130.316,18.7821 141.807,18.6939 153.299,18.6057 158.311,18.5673 158.459,19.0149 159.248,18.5601 164.791,18.5175 176.282,18.4294 187.774,18.3412 210.757,18.1648 210.732,31.0636 210.706,43.9624 210.681,56.8612 210.656,69.76 210.63,82.6588 210.622,86.9783 210.583,86.999 209.713,87.3628 208.144,87.8655 207.141,88.0943 206.575,88.1782 209.741,90.8133 210.066,91.0961 210.613,91.5946 210.579,108.456 210.554,121.355 210.503,147.153 210.478,160.052 210.452,172.95 210.439,179.35 209.604,180.612 207.822,182.854 206.612,184.12 204.691,185.794 206.346,186.928 207.828,188.182 209.801,190.228 210.416,191.022 210.401,198.748 210.376,211.647 210.358,220.43 209.776,221.37 208.911,222.238 210.302,223.525 210.352,223.577 210.35,224.546 210.438,235.84 210.602,246.657 210.899,256.963 211.313,265.292 209.646,267.308 208.208,269.221 208.179,269.275 208.901,270.004 211.036,271.803 211.202,271.946 211.842,272.511 212.112,275.909 213.138,284.482 214.519,292.41 216.308,299.661 218.563,306.2 221.336,311.994 224.685,317.011 228.665,321.215 233.33,324.575 238.737,327.056 244.939,328.626 251.415,329.199 251.477,329.301 252.776,331.99 253.006,331.559 254.007,330.046 254.811,329.05 259.171,328.749 265.518,327.271 271.013,324.853 275.719,321.532 279.698,317.343 283.01,312.324 285.72,306.511 287.888,299.942 289.576,292.653 290.848,284.68 291.763,276.06 292.386,266.831 292.392,266.673 293.674,265.668 293.939,265.507 292.831,264.556 292.493,264.163 292.778,257.028 293,246.688 293.115,235.848 293.185,224.546 293.159,211.647 293.133,198.748 293.127,195.65 293.317,195.459 294.796,194.233 295.317,193.877 295.209,193.718 294.562,192.531 293.828,190.801 293.418,189.491 293.112,187.996 293.107,185.849 293.101,182.503 293.419,180.952 293.829,179.644 294.563,177.914 295.21,176.728 295.849,175.785 294.415,174.855 293.083,173.618 293.082,172.95 293.056,160.052 293.004,134.254 292.978,121.355 292.963,113.894 293.116,113.301 293.679,111.715 294.993,108.837 295.821,107.402 294.549,107.225 294.399,107.192 292.949,106.644 292.901,82.6588 292.875,69.76 292.797,31.0636 292.771,18.1648 304.525,18.0893 316.278,18.0137 328.031,17.9382 339.784,17.8626 351.538,17.787 363.291,17.7115 375.044,17.6359 381.005,17.5976 381.477,17.8753 385.65,20.9383 386.377,19.4384 387.003,18.7104 388.528,17.5492 410.304,17.4092 422.057,17.3337 433.81,17.2581 444.383,17.1901 445.258,17.9906 445.918,17.1803 457.317,17.107 469.07,17.0314 480.823,16.9559 " fill="none" stroke-width="0.5" stroke="rgb(0,0,0)" />
	<polygon points="194.785,445.341 196.15,445.56 197.519,445.702 198.569,445.743 199.971,445.667 201.221,445.446 202.241,445.112 202.428,445.013 201.568,445.011 195.349,444.523 194.539,444.388 " fill="none" stroke-width="0.5" stroke="rgb(0,0,0)" />
	<polygon points="317.684,422.113 318,423.157 318.33,424.609 318.407,424.98 318.531,425.648 318.689,425.762 319.292,426.233 320.158,426.969 320.916,427.723 321.314,427.367 322.023,426.775 322.711,426.251 323.411,425.766 324.398,425.167 324.641,425.039 324.463,424.408 324.104,421.809 324.104,419.997 " fill="none" stroke-width="0.5" stroke="rgb(0,0,0)" />
	<polygon points="168.203,413.37 168.21,414.77 168.023,417.497 168.528,417.457 168.695,416.586 168.791,416.266 169.688,414.2 169.808,413.994 168.62,413.372 168.184,413.117 " fill="none" stroke-width="0.5" stroke="rgb(0,0,0)" />
	<polygon points="82.6213,369.503 82.7212,370.162 83.1809,369.815 82.9135,369.54 82.8696,369.485 " fill="none" stroke-width="0.5" stroke="rgb(0,0,0)" />
	<polygon points="60.8034,341.28 60.9007,341.436 60.9616,341.301 60.8192,341.26 60.8001,341.253 " fill="none" stroke-width="0.5" stroke="rgb(0,0,0)" />
	<polygon points="157.243,340.647 157.958,341.155 158.105,341.277 158.229,340.059 158.257,339.865 " fill="none" stroke-width="0.5" stroke="rgb(0,0,0)" />
	<polygon points="76.4388,315.958 76.2785,317.442 76.4296,317.278 77.8133,316.041 78.5894,315.472 78.5653,315.457 77.1363,314.316 76.9218,314.106 " fill="none" stroke-width="0.5" stroke="rgb(0,0,0)" />
	<polygon points="162.94,255.429 163.022,255.892 163.047,256.058 164.135,253.996 162.582,253.653 " fill="none" stroke-width="0.5" stroke="rgb(0,0,0)" />
	<polygon points="91.4738,217.362 91.7256,218.13 91.9581,219.046 92.548,218.855 93.277,218.733 96.2045,218.694 96.8482,218.785 98.1723,219.165 98.2184,218.858 98.4602,217.795 98.184,217.825 96.0685,217.823 92.8793,217.467 91.3723,217.12 " fill="none" stroke-width="0.5" stroke="rgb(0,0,0)" />
	<polygon points="433.195,216.416 432.325,216.583 432.006,216.63 432.865,217.343 433.294,217.789 434.45,216.115 " fill="none" stroke-width="0.5" stroke="rgb(0,0,0)" />
	<polygon points="108.204,166.44 106.683,167.469 105.575,168.074 105.688,168.151 106.673,168.918 109.672,171.585 110.654,172.597 111.785,173.948 112.458,173.002 113.33,172.048 111.581,170.45 110.246,168.943 108.363,166.308 " fill="none" stroke-width="0.5" stroke="rgb(0,0,0)" />
	<polygon points="423.901,146.658 421.31,148.975 425.682,150.267 427.454,150.99 429.443,152.043 429.145,151.004 429.033,148.785 427.582,148.147 425.88,147.181 424.52,146.213 424.38,146.084 " fill="none" stroke-width="0.5" stroke="rgb(0,0,0)" />
	<polygon points="312.294,129.045 312.095,129.424 311.873,130.124 311.951,130.137 312.844,130.182 312.915,130.18 312.881,130.081 312.535,128.798 312.524,128.741 " fill="none" stroke-width="0.5" stroke="rgb(0,0,0)" />
	<polygon points="91.1576,118.911 89.7757,119.809 87.4618,121.043 88.1145,120.976 90.0597,120.976 91.4648,121.119 92.3083,121.292 92.0665,119.485 92.0411,119.277 91.9329,118.308 " fill="none" stroke-width="0.5" stroke="rgb(0,0,0)" />
	<polygon points="186.302,115.408 185.966,116.054 184.768,117.834 184.317,118.364 183.789,118.844 184.248,118.66 187.47,117.676 188.502,117.466 186.479,115.077 186.452,115.044 " fill="none" stroke-width="0.5" stroke="rgb(0,0,0)" />
	<polygon points="103.119,65.6458 102.88,65.8438 102.263,66.338 103.33,66.2256 103.326,66.1518 103.299,65.4919 " fill="none" stroke-width="0.5" stroke="rgb(0,0,0)" />
	<polygon points="399.253,38.1873 399.634,39.1027 399.887,38.9959 401.229,38.5326 399.112,37.9305 " fill="none" stroke-width="0.5" stroke="rgb(0,0,0)" />
</svg>
