<?xml version="1.0" standalone="no" ?>
<!DOCTYPE svg PUBLIC "-//W3C//DTD SVG 1.1//EN" "http://www.w3.org/Graphics/SVG/1.1/DTD/svg11.dtd">
<svg width="500px" height="500px" xmlns="http://www.w3.org/2000/svg" version="1.1" >
	<polygon points="464.573,280.83 463.793,294.732 461.471,309.393 457.528,324.955 451.937,341.087 444.683,357.477 435.761,373.824 425.17,389.841 412.911,405.248 398.984,419.78 383.385,433.18 366.102,445.201 347.109,455.601 326.364,464.141 303.809,470.573 279.375,474.639 252.979,476.061 227.267,474.72 203.347,470.87 181.182,464.762 160.725,456.631 141.934,446.698 124.781,435.18 109.252,422.294 95.3441,408.261 83.0613,393.307 72.4134,377.671 63.4111,361.597 56.0631,345.34 50.374,329.166 46.341,313.349 43.9497,298.173 43.1405,283.459 43.1405,35.7015 49.9986,35.6488 61.4903,35.5607 72.9819,35.4725 84.4736,35.3843 95.9653,35.2961 107.457,35.208 118.949,35.1198 130.44,35.0316 130.44,35.0316 141.932,34.9434 153.424,34.8553 164.915,34.7671 176.407,34.6789 187.899,34.5907 187.899,34.5907 194.475,34.5403 194.457,43.9304 194.431,56.8292 194.406,69.728 194.406,69.728 194.38,82.6268 194.329,108.424 194.329,108.424 194.304,121.323 194.253,147.121 194.253,147.121 194.228,160.02 194.202,172.918 194.202,172.918 194.177,185.817 194.151,198.716 194.126,211.615 194.126,211.615 194.1,224.514 194.101,224.671 194.188,235.966 194.189,236.087 194.354,246.904 194.359,247.125 194.656,257.431 194.669,257.769 195.154,267.531 195.185,268.009 195.913,277.193 195.977,277.841 197.004,286.414 197.129,287.269 198.51,295.198 198.742,296.304 200.532,303.555 200.946,304.957 203.2,311.496 203.905,313.217 206.679,319.011 207.822,321.017 211.171,326.034 212.883,328.181 216.863,332.385 219.169,334.402 223.834,337.761 226.552,339.344 231.958,341.825 234.75,342.81 240.953,344.379 243.507,344.812 250.561,345.437 251.947,329.779 253.029,345.461 260.289,344.961 262.856,344.576 269.203,343.098 272.063,342.145 277.558,339.727 280.385,338.129 285.09,334.807 287.502,332.722 291.48,328.534 293.26,326.295 296.572,321.276 297.739,319.189 300.448,313.377 301.151,311.604 303.319,305.035 303.719,303.609 305.407,296.32 305.624,295.211 306.895,287.238 307.007,286.397 307.923,277.777 307.977,277.154 308.599,267.924 308.623,267.479 309.015,257.676 309.024,257.377 309.246,247.037 309.249,246.861 309.364,236.021 309.365,235.949 309.435,224.646 309.435,224.513 309.409,211.614 309.383,198.715 309.357,185.817 309.332,172.918 309.332,172.918 309.306,160.019 309.254,134.221 309.254,134.221 309.228,121.323 309.151,82.6263 309.151,82.6262 309.125,69.7274 309.054,34.3105 316.382,34.2634 328.136,34.1878 339.889,34.1123 351.642,34.0367 363.395,33.9611 375.149,33.8856 386.902,33.81 410.408,33.6589 422.162,33.5833 433.915,33.5078 445.668,33.4322 457.421,33.3567 464.573,33.3107 " fill="none" stroke-width="0.5" stroke="rgb(0,0,0)" />
</svg>
