<?xml version="1.0" standalone="no" ?>
<!DOCTYPE svg PUBLIC "-//W3C//DTD SVG 1.1//EN" "http://www.w3.org/Graphics/SVG/1.1/DTD/svg11.dtd">
<svg width="500px" height="500px" xmlns="http://www.w3.org/2000/svg" version="1.1" >
	<polygon points="469.923,280.98 469.119,295.302 466.717,310.471 462.658,326.491 456.919,343.049 449.485,359.845 440.349,376.586 429.503,392.988 416.944,408.772 402.667,423.669 386.664,437.416 368.922,449.756 349.419,460.435 328.121,469.203 304.985,475.801 279.959,479.965 252.983,481.418 226.701,480.047 202.208,476.106 179.479,469.842 158.48,461.495 139.185,451.296 121.574,439.47 105.636,426.245 91.3684,411.849 78.7745,396.517 67.8598,380.489 58.6308,364.01 51.0929,347.334 45.2485,330.718 41.0951,314.428 38.6226,298.737 37.7905,283.606 37.7905,30.3923 38.4659,30.3872 49.9575,30.299 61.4492,30.2108 61.4492,30.2108 72.9409,30.1226 95.9242,29.9463 95.9242,29.9463 107.416,29.8581 118.908,29.7699 130.399,29.6818 141.891,29.5936 153.383,29.5054 164.874,29.4172 176.366,29.3291 187.858,29.2409 199.836,29.149 199.832,31.0421 199.832,31.0422 199.807,43.941 199.781,56.8397 199.756,69.7385 199.756,69.7385 199.73,82.6373 199.679,108.435 199.679,108.435 199.654,121.334 199.603,147.131 199.603,147.131 199.578,160.03 199.552,172.929 199.552,172.929 199.527,185.828 199.501,198.726 199.476,211.625 199.45,224.524 199.451,224.63 199.538,235.924 199.539,236.006 199.703,246.823 199.707,246.971 200.003,257.277 200.012,257.504 200.497,267.266 200.518,267.586 201.246,276.771 201.289,277.205 202.316,285.778 202.4,286.352 203.78,294.28 203.936,295.022 205.726,302.273 206.004,303.213 208.258,309.752 208.731,310.906 211.505,316.701 212.271,318.047 215.62,323.063 216.769,324.503 220.748,328.708 222.295,330.06 226.96,333.42 228.783,334.481 234.19,336.963 236.063,337.623 242.265,339.193 243.978,339.483 251.033,340.108 251.947,329.779 252.66,340.124 259.921,339.623 261.643,339.365 267.99,337.887 269.908,337.248 275.404,334.83 277.299,333.758 282.005,330.436 283.623,329.038 287.601,324.849 288.795,323.347 292.107,318.328 292.89,316.929 295.599,311.117 296.071,309.927 298.239,303.358 298.507,302.402 300.195,295.113 300.34,294.369 301.612,286.396 301.687,285.832 302.602,277.212 302.639,276.794 303.261,267.564 303.277,267.265 303.669,257.462 303.675,257.262 303.897,246.922 303.899,246.804 304.014,235.964 304.015,235.916 304.085,224.613 304.085,224.524 304.059,211.625 304.033,198.726 304.007,185.827 303.982,172.929 303.982,172.929 303.956,160.03 303.904,134.232 303.904,134.232 303.878,121.333 303.801,82.637 303.801,82.637 303.775,69.7382 303.697,31.0418 303.697,31.0418 303.693,28.9949 304.595,28.9891 316.348,28.9135 328.101,28.8379 339.854,28.7624 351.608,28.6868 363.361,28.6113 375.114,28.5357 386.867,28.4601 410.374,28.309 422.127,28.2335 433.88,28.1579 445.634,28.0823 457.387,28.0068 469.14,27.9312 469.923,27.9262 " fill="none" stroke-width="0.5" stroke="rgb(0,0,0)" />
	<polygon points="319.287,422.954 319.598,424.321 319.685,424.742 319.718,424.917 320.133,425.242 320.975,425.957 321.189,425.777 321.971,425.183 322.671,424.698 323.162,424.4 322.804,421.809 322.804,421.794 " fill="none" stroke-width="0.5" stroke="rgb(0,0,0)" />
	<polygon points="107.861,168.235 108.632,168.92 108.05,168.107 " fill="none" stroke-width="0.5" stroke="rgb(0,0,0)" />
	<polygon points="423.915,148.389 426.05,149.02 427.79,149.73 427.785,149.656 427.059,149.337 425.126,148.24 424.544,147.826 " fill="none" stroke-width="0.5" stroke="rgb(0,0,0)" />
</svg>
