<?xml version="1.0" standalone="no" ?>
<!DOCTYPE svg PUBLIC "-//W3C//DTD SVG 1.1//EN" "http://www.w3.org/Graphics/SVG/1.1/DTD/svg11.dtd">
<svg width="500px" height="500px" xmlns="http://www.w3.org/2000/svg" version="1.1" >
	<polygon points="480.823,29.5039 480.692,29.6681 480.259,30.3748 479.938,31.064 479.74,31.6519 479.664,32.0074 479.789,33.6514 480.179,35.5463 480.823,37.8186 480.823,76.038 479.271,79.7101 478.203,81.4766 472.888,87.9486 471.542,89.2141 464.509,94.2984 463.218,95.0412 461.862,95.6448 463.917,94.8807 466.025,94.9977 468.51,95.5081 469.774,95.8913 471.87,96.7433 473.176,97.4388 474.899,98.5978 476.084,99.5957 477.453,101.027 478.372,102.215 479.405,103.884 480.009,105.103 480.724,106.976 480.823,107.317 480.823,120.006 480.38,121.514 479.287,123.979 479.521,124.109 480.823,125.18 480.823,188.546 480.668,188.866 478.24,191.675 476.661,192.749 473.107,193.979 471.284,193.822 473.167,195.387 473.915,196.105 477.917,200.547 478.713,201.614 480.823,205.071 480.823,243.498 478.261,247.86 477.904,248.408 473.943,253.933 474.751,253.891 476.22,254.044 477.888,254.422 479.147,254.87 480.821,255.727 480.823,255.729 480.823,281.286 480.231,291.844 478.946,293.84 478.491,294.469 475.914,297.657 475.332,298.295 472.374,301.169 471.541,301.631 472.176,302.462 472.836,303.499 474.752,307.167 475.175,308.149 476.62,312.329 476.876,313.275 477.041,314.104 473.11,329.62 467.07,347.047 459.27,364.67 456.387,369.953 454.33,371.116 450.569,371.065 448.164,369.616 448.235,369.849 448.519,371.289 449.224,378.851 449.164,380.66 448.664,383.773 438.331,399.399 425.161,415.952 410.17,431.593 402.458,438.218 401.616,438.076 399.735,437.486 398.242,436.781 396.987,436.023 395.572,434.957 395.392,434.797 395.585,437.341 395.497,439.128 394.45,445.097 393.345,446.047 374.668,459.037 354.126,470.285 331.702,479.516 325.196,481.372 322.604,480.635 321.265,480.105 318.601,478.728 317.369,477.921 315.17,476.135 314.132,475.1 312.406,472.987 311.614,471.79 310.371,469.431 309.84,468.132 309.087,465.609 308.821,464.246 308.611,462.086 308.315,462.771 307.662,463.96 304.895,468.032 303.342,469.684 303.169,469.818 303.887,469.834 304.758,469.903 306.176,470.162 306.845,470.354 308.509,471.071 309.003,471.362 310.58,472.62 310.925,472.985 312.035,474.525 312.258,474.939 312.834,476.356 312.96,476.795 313.181,477.867 313.237,478.306 313.292,478.997 313.305,479.412 313.059,481.514 312.661,482.987 311.508,485.276 307.382,486.452 281.151,490.817 268.201,491.514 268.051,491.428 267.081,490.76 265.255,489.269 264.392,488.436 263.918,487.894 262.378,488.678 261.974,488.869 257.809,490.674 257.389,490.841 253.298,492.317 252.993,492.333 225.548,490.902 199.887,486.773 183.31,482.204 179.525,479.516 175.541,476.717 172.432,474.968 170.443,474.395 167.392,474.093 163.246,473.863 162.808,473.826 158.818,473.359 153.907,471.407 135.195,461.516 130.203,456.676 128.28,453.443 128.258,450.759 127.477,450.829 126.056,450.816 117.542,449.893 115.039,448.212 98.2672,434.295 83.2685,419.161 71.601,404.957 71.1121,401.044 71.0794,399.578 71.3101,396.688 68.1109,396.417 65.4102,394.669 63.6707,392.879 62.6063,392.14 58.5824,386.23 48.8916,368.927 40.9666,351.394 34.8057,333.879 34.7818,333.785 35.0118,331.611 35.2956,330.234 38.264,320.674 38.6739,319.642 41.888,313.079 41.8746,313.083 37.8336,313 35.8645,312.381 32.9348,310.604 31.1162,308.786 29.9052,307.177 28.5241,304.677 27.7694,299.888 26.8905,283.906 26.8905,240.587 27.7832,237.533 28.0922,236.679 29.7538,232.861 30.5894,231.423 32.3035,229.13 30.6267,228.458 28.867,227.444 26.95,225.943 26.8905,225.882 26.8905,169.542 27.1564,168.027 27.2422,167.611 28.2183,163.494 28.4469,162.724 30.019,158.341 30.4805,157.315 32.907,152.882 33.6804,151.743 36.9013,147.859 36.8173,147.843 34.2819,147.103 32.9833,146.582 30.6971,145.396 29.5066,144.62 27.5209,143.026 26.8905,142.406 26.8905,112.632 28.1154,111.409 28.9563,110.69 30.8758,109.288 31.7921,108.719 32.4519,108.375 32.1126,108.278 31.5482,108.067 30.2893,107.449 29.8044,107.149 28.5324,106.148 28.1373,105.758 27.0534,104.391 26.8905,104.124 26.8905,93.3448 27.0902,92.7316 27.9316,90.9881 30.5949,86.9624 30.3243,86.9732 29.7255,86.8796 27.4479,86.1182 26.9547,85.855 26.8905,85.8068 26.8905,61.4965 27.3447,61.0197 26.8905,60.7675 26.8905,42.8463 27.0375,42.7025 27.8196,42.0392 31.7103,39.19 32.0604,38.9492 36.5204,36.0711 36.6157,36.0107 38.4196,34.8863 34.7943,33.9678 34.3989,33.8556 30.6484,32.674 29.5629,32.232 26.9101,30.8905 26.8905,30.8729 26.8905,19.5757 38.3822,19.4875 49.8739,19.3993 61.3656,19.3111 72.8572,19.223 79.5423,19.1717 80.4241,20.0718 80.588,19.4485 80.7339,19.1625 84.3489,19.1348 95.8406,19.0466 107.332,18.9584 114.9,18.9004 115.898,20.0122 116.07,20.2104 117.283,21.6644 117.906,22.246 118.099,22.3455 118.805,22.4471 119.466,22.3526 119.731,22.22 120.445,21.5928 121.743,20.1607 121.928,19.9636 123.028,18.838 130.316,18.7821 141.807,18.6939 153.299,18.6057 155.845,18.5862 155.869,18.6251 156.92,22.2368 156.702,23.3055 156.866,23.1115 159.78,21.0094 161.048,20.2781 164.981,18.5161 176.282,18.4294 187.774,18.3412 210.757,18.1648 210.738,27.8651 209.466,29.261 208.838,29.682 209.395,29.7878 210.734,30.197 210.732,31.0636 210.706,43.9624 210.682,56.4844 209.145,57.0691 208.128,57.2501 206.797,57.2753 209.955,60.8954 210.538,61.6616 210.671,61.8638 210.656,69.76 210.63,82.6588 210.627,84.2659 209.657,84.7848 208.787,85.1485 207.61,85.5256 206.607,85.7543 205.512,85.9167 204.384,85.9961 203.149,85.9769 199.428,85.5981 203.719,88.9291 203.91,89.0827 208.205,92.6579 208.449,92.87 210.606,94.8359 210.579,108.456 210.554,121.355 210.55,123.391 210.272,123.631 209.108,124.395 208.439,124.676 209.346,125.483 210.543,126.834 210.503,147.153 210.478,160.052 210.452,172.95 210.45,173.952 210.281,174.442 209.798,175.536 208.41,178.084 207.725,179.119 205.943,181.361 205.035,182.311 202.894,184.176 201.753,184.989 200.008,185.993 201.412,186.609 202.59,187.263 204.989,188.907 206.101,189.848 208.074,191.894 209.025,193.122 210.408,195.371 210.401,198.748 210.376,211.647 210.368,215.344 210.357,215.37 209.673,216.77 209.497,217.107 208.735,218.478 208.561,218.774 207.736,220.106 205.39,222.299 205.392,222.3 205.935,222.755 208.672,225.287 209.193,225.822 210.371,227.163 210.438,235.84 210.602,246.657 210.899,256.963 211.131,261.643 210.125,262.954 209.964,263.156 207.761,265.821 206.179,267.926 205.523,269.152 205.463,269.457 205.521,269.752 205.926,270.41 207.271,271.77 209.49,273.639 209.615,273.746 212.084,275.924 212.118,275.958 213.138,284.482 214.519,292.41 216.308,299.661 218.563,306.2 221.336,311.994 224.685,317.011 228.665,321.215 233.33,324.575 238.737,327.056 244.939,328.626 248.425,328.934 248.576,329.134 249.316,330.345 250.825,333.47 251.275,334.659 252.189,337.92 252.229,338.117 255.124,332.688 255.874,331.553 258.077,328.825 259.171,328.749 265.518,327.271 271.013,324.853 275.719,321.532 279.698,317.343 283.01,312.324 285.72,306.511 287.888,299.942 288.654,296.634 289.09,295.697 289.446,294.556 289.698,293.119 289.797,291.268 290.848,284.68 291.763,276.06 292.15,270.338 292.716,269.631 293.58,268.77 294.921,267.719 295.933,267.103 297.461,266.404 298.339,266.12 294.394,262.734 292.987,261.101 292.637,260.545 292.778,257.028 293,246.688 293.115,235.848 293.169,227.09 293.399,226.596 293.533,226.323 295.166,223.161 295.422,222.882 294.855,222.412 293.901,221.458 293.177,220.584 293.159,211.647 293.134,199.184 293.899,198.259 294.85,197.306 296.328,196.08 297.455,195.312 298.801,194.572 298.087,193.708 297.316,192.569 296.669,191.382 296.119,190.084 295.709,188.775 295.418,187.355 295.275,185.952 295.275,184.491 295.418,183.09 295.71,181.669 296.119,180.361 296.67,179.064 297.317,177.877 298.089,176.738 298.944,175.703 299.583,175.065 298.128,174.445 296.048,173.096 294.635,171.784 293.593,170.575 293.075,169.819 293.056,160.052 293.004,134.254 292.995,129.981 293.229,129.617 295.126,127.897 294.999,127.454 294.92,127.153 294.741,126.408 294.671,126.084 294.524,125.323 294.466,124.973 294.356,124.2 294.312,123.82 294.243,123.038 294.219,122.625 294.195,121.84 294.218,121.011 294.468,118.068 294.671,116.877 295.44,113.902 295.862,112.712 297.176,109.834 297.861,108.648 299.747,106 300.735,104.88 302.198,103.533 300.731,104.227 299.201,104.716 296.959,105.057 296.723,105.055 296.323,105.041 296.132,105.029 295.058,104.879 294.907,104.847 292.944,104.105 292.908,86.2503 294.198,83.8959 295.299,81.8805 293.628,81.5922 292.898,81.3833 292.875,69.76 292.861,62.7421 294.773,61.4305 294.16,61.1542 293.713,60.9339 292.856,60.4735 292.82,42.5528 293.351,42.2524 293.559,42.139 295.237,41.2615 294.76,40.5282 292.819,37.6841 292.81,37.6707 292.797,31.0636 292.771,18.1648 302.769,18.1006 305.3,19.4045 305.447,19.4822 308.798,21.3078 308.905,20.4076 309.014,19.7521 309.186,18.9452 309.395,18.1805 309.435,18.0577 316.278,18.0137 328.031,17.9382 339.784,17.8626 351.538,17.787 363.291,17.7115 375.044,17.6359 375.665,17.6319 378.799,19.0701 380.057,19.81 386.267,24.3683 386.75,24.8109 386.854,23.3358 388.196,21.0033 388.822,20.2752 391.21,18.458 392.97,17.6273 393.245,17.5189 410.304,17.4092 422.057,17.3337 433.81,17.2581 440.102,17.2177 441.164,17.7914 442.6,18.8123 444.626,20.664 445.646,21.9503 446.184,20.9025 447.005,19.6471 448.447,17.8757 449.168,17.1594 457.317,17.107 469.07,17.0314 480.823,16.9559 " fill="none" stroke-width="0.5" stroke="rgb(0,0,0)" />
	<polygon points="191.863,443.947 192.212,444.973 192.829,447.371 192.839,447.373 194.271,447.689 195.835,447.94 197.348,448.097 198.588,448.146 200.246,448.055 201.805,447.78 203.183,447.329 204.309,446.733 205.196,446.002 205.93,445.052 206.564,443.662 206.854,442.322 202.857,442.621 201.756,442.619 195.538,442.13 194.319,441.928 190.597,440.977 " fill="none" stroke-width="0.5" stroke="rgb(0,0,0)" />
	<polygon points="158.35,437.244 157.329,438.495 153.134,442.595 151.759,443.648 150.957,444.121 152.103,443.875 155.051,442.673 157.235,441.2 158.824,439.49 159.975,437.446 160.729,434.903 160.869,433.332 " fill="none" stroke-width="0.5" stroke="rgb(0,0,0)" />
	<polygon points="325.924,416.87 316.419,420.003 314.897,420.327 314.306,420.388 314.874,421.427 315.368,422.725 315.66,423.689 315.99,425.142 316.048,425.42 316.298,426.763 316.365,427.045 316.379,427.056 317.287,427.709 317.739,428.063 318.605,428.799 319.41,429.599 320.144,430.454 320.722,431.323 320.795,431.243 321.514,430.48 321.774,430.219 322.489,429.535 322.852,429.209 323.561,428.617 324.077,428.225 324.777,427.74 325.518,427.29 326.208,426.926 327.264,426.473 327.802,426.291 327.123,425 326.773,423.758 326.504,421.809 326.504,416.605 " fill="none" stroke-width="0.5" stroke="rgb(0,0,0)" />
	<polygon points="385.689,419.183 387.301,420.149 388.477,421.028 388.751,421.281 388.748,421.179 388.777,420.705 388.898,419.829 388.883,419.828 387.583,419.566 384.6,418.675 " fill="none" stroke-width="0.5" stroke="rgb(0,0,0)" />
	<polygon points="165.811,413.556 165.815,414.606 165.495,419.29 165.352,420.309 165.327,420.424 167.201,419.721 170.728,420.358 170.684,419.085 170.717,418.717 170.994,417.276 171.09,416.957 171.763,415.407 171.92,415.137 172.999,413.721 173.216,413.5 173.618,413.176 172.96,412.904 172.371,412.628 169.734,411.246 169.171,410.918 166.744,409.351 166.179,408.946 165.404,408.332 " fill="none" stroke-width="0.5" stroke="rgb(0,0,0)" />
	<polygon points="378.643,417.615 378.642,417.723 379.622,417.459 381.192,417.642 382.708,417.989 382.848,418.037 379.667,416.532 378.84,416.072 378.643,415.945 " fill="none" stroke-width="0.5" stroke="rgb(0,0,0)" />
	<polygon points="259.025,401.845 258.76,403.214 258.484,404.145 257.949,405.459 257.509,406.292 257.22,406.729 257.758,406.939 258.363,407.206 261.222,408.634 261.69,408.889 264.473,410.546 264.863,410.796 267.481,412.592 267.837,412.853 270.202,414.699 270.565,415.002 272.588,416.808 273.011,417.217 273.013,417.219 274.086,417.034 274.385,416.989 275.719,416.817 276.003,416.786 277.386,416.662 277.654,416.643 279.08,416.569 277.854,416.014 269.248,410.921 268.031,410.015 260.93,403.459 259.984,402.394 259.089,401.16 " fill="none" stroke-width="0.5" stroke="rgb(0,0,0)" />
	<polygon points="244.417,413.934 244.964,412.011 244.728,411.947 " fill="none" stroke-width="0.5" stroke="rgb(0,0,0)" />
	<polygon points="365.881,399.931 365.979,399.958 366.676,400.197 366.711,399.745 " fill="none" stroke-width="0.5" stroke="rgb(0,0,0)" />
	<polygon points="349.734,395.409 349.07,396.518 347.45,398.743 347.55,398.725 348.382,398.63 352.89,398.378 353.551,398.372 355.396,398.438 354.038,397.235 353.06,396.116 352.316,395.098 351.46,393.681 351.02,392.831 351.001,392.786 " fill="none" stroke-width="0.5" stroke="rgb(0,0,0)" />
	<polygon points="308.912,393.996 308.374,394.154 305.162,394.963 304.501,395.097 300.794,395.669 300.217,395.728 304.35,396.086 307.572,395.953 310.478,395.57 310.702,395.517 309.986,394.52 309.74,393.717 " fill="none" stroke-width="0.5" stroke="rgb(0,0,0)" />
	<polygon points="203.262,391.901 203.707,392.893 204.673,395.57 206.282,393.191 207.941,391.453 211.562,388.753 207.151,389.145 205.724,389.129 201.505,388.664 " fill="none" stroke-width="0.5" stroke="rgb(0,0,0)" />
	<polygon points="224.493,386.206 224.522,386.211 224.52,386.198 " fill="none" stroke-width="0.5" stroke="rgb(0,0,0)" />
	<polygon points="242.562,374.521 242.26,374.848 242.429,374.934 243.313,375.526 244.495,376.515 245.238,377.287 245.48,377.59 246.201,377.61 247.446,377.735 247.629,377.773 246.858,374.93 246.636,373.69 246.264,369.544 " fill="none" stroke-width="0.5" stroke="rgb(0,0,0)" />
	<polygon points="83.8407,366.938 83.5352,366.985 82.6936,367.096 81.828,367.158 79.5146,367.182 79.2737,367.161 80.1904,369.479 81.0042,374.854 81.2098,374.641 83.7183,372.406 84.6523,371.702 87.0815,370.162 85.7302,369.011 84.785,368.038 83.8946,366.929 " fill="none" stroke-width="0.5" stroke="rgb(0,0,0)" />
	<polygon points="356.964,370.471 356.807,372 357.272,371.811 358.841,371.273 359.404,371.106 360.607,370.8 360.014,370.494 358.801,369.704 357.21,368.423 356.204,367.429 " fill="none" stroke-width="0.5" stroke="rgb(0,0,0)" />
	<polygon points="324.524,367.487 323.785,368.66 323.305,369.278 323.462,369.275 326.989,369.045 328.141,368.921 326.538,368.099 325.275,367.274 324.819,366.902 " fill="none" stroke-width="0.5" stroke="rgb(0,0,0)" />
	<polygon points="117.865,354.904 117.28,355.177 117.295,356.457 117.172,357.874 116.76,360.064 116.347,361.464 115.921,362.503 116.351,362.424 120.602,362.039 122.041,362.054 122.164,362.067 121.482,361.481 120.242,360.1 119.575,359.13 118.662,357.281 118.331,356.265 118.037,354.804 " fill="none" stroke-width="0.5" stroke="rgb(0,0,0)" />
	<polygon points="295.646,357.804 294.101,358.501 292.39,359.042 292.414,359.055 294.283,360.441 294.441,360.562 296.445,362.136 296.32,360.806 296.297,359.793 296.349,358.687 296.399,358.121 296.504,357.288 " fill="none" stroke-width="0.5" stroke="rgb(0,0,0)" />
	<polygon points="442.593,356.56 444.512,359.955 444.396,359.287 442.52,356.325 442.3,356.153 " fill="none" stroke-width="0.5" stroke="rgb(0,0,0)" />
	<polygon points="395.08,340.842 394.864,341.022 393.716,341.945 393.083,342.4 392.061,343.053 390.23,343.889 389.395,344.137 387.039,344.33 388.165,347.522 388.53,349.105 388.655,350.207 393.262,346.347 394.989,345.274 397.831,344.025 396.677,342.635 396.514,342.432 395.205,340.733 " fill="none" stroke-width="0.5" stroke="rgb(0,0,0)" />
	<polygon points="58.4852,342.097 61.7071,347.278 61.9647,347.533 62.1016,346.185 62.593,343.91 63.0686,342.467 63.997,340.411 64.4197,339.675 62.6177,339.288 61.6464,339.007 59.1777,338.101 57.9579,337.518 57.9242,337.497 " fill="none" stroke-width="0.5" stroke="rgb(0,0,0)" />
	<polygon points="165.094,320.578 164.842,323.419 164.627,324.636 163.877,327.451 163.457,328.615 162.219,331.295 161.571,332.419 159.857,334.856 158.943,335.918 156.763,338.003 155.563,338.929 152.926,340.553 152.665,340.676 153.107,340.901 155.567,342.391 156.427,343.004 158.777,344.949 159.473,345.609 160.546,346.771 160.389,345.39 160.347,344.34 160.405,342.557 160.438,342.065 160.617,340.301 160.697,339.736 161.003,338.058 161.168,337.356 161.607,335.833 161.945,334.904 162.523,333.602 163.245,332.34 163.968,331.326 165.504,329.753 166.38,329.096 169.112,327.831 169.391,327.768 167.093,324.29 166.387,322.923 165.024,319.406 " fill="none" stroke-width="0.5" stroke="rgb(0,0,0)" />
	<polygon points="316.56,343.117 316.638,343.169 316.661,343.068 " fill="none" stroke-width="0.5" stroke="rgb(0,0,0)" />
	<polygon points="415.55,332.958 413.764,333.152 413.511,333.175 413.238,333.195 413.404,334.118 413.423,334.231 413.647,335.6 413.686,335.87 413.844,337.14 413.889,337.649 413.949,338.777 413.957,339.367 413.947,339.701 413.913,340.226 413.878,340.56 413.787,341.149 418.113,341.518 419.326,341.727 420.078,341.924 419.339,341.084 417.728,337.947 416.533,332.771 " fill="none" stroke-width="0.5" stroke="rgb(0,0,0)" />
	<polygon points="127.746,337.652 127.727,339.751 128.098,339.571 129.006,339.204 129.931,338.902 129.66,338.705 127.754,337.004 127.672,336.916 " fill="none" stroke-width="0.5" stroke="rgb(0,0,0)" />
	<polygon points="384.748,312.606 383.894,314.448 383.29,316.104 383.098,317.096 382.9,319.256 382.726,322.201 382.538,325.385 382.529,325.517 383.051,324.289 384.123,321.564 384.986,318.91 385.538,316.429 385.746,313.94 385.723,312.689 385.622,311.081 " fill="none" stroke-width="0.5" stroke="rgb(0,0,0)" />
	<polygon points="122.046,325.106 121.899,325.175 122.091,325.367 122.063,325.095 " fill="none" stroke-width="0.5" stroke="rgb(0,0,0)" />
	<polygon points="74.9855,312.02 74.0717,315.524 73.7718,318.301 73.8004,319.315 73.9226,320.474 74.144,321.518 74.4971,322.544 74.8696,323.291 75.9371,321.553 76.777,320.443 78.1947,318.905 79.2324,317.977 80.9335,316.73 82.115,316.026 83.42,315.409 82.831,315.172 81.237,314.344 80.0627,313.581 78.6337,312.44 77.6051,311.435 76.3964,309.991 75.9524,309.335 " fill="none" stroke-width="0.5" stroke="rgb(0,0,0)" />
	<polygon points="342.77,314.316 341.98,315.118 341.865,315.209 341.891,315.224 346.75,318.537 347.701,319.311 350.924,322.429 351.151,321.913 351.399,321.403 351.926,320.419 350.319,319.962 349.305,319.59 347.997,318.994 345.072,316.556 344.576,315.844 343.624,313.185 " fill="none" stroke-width="0.5" stroke="rgb(0,0,0)" />
	<polygon points="163.627,297.673 162.357,298.112 160.947,298.446 159.763,298.603 158.221,298.64 157.865,298.61 156.961,298.456 158.36,300.605 158.764,301.309 162.821,309.412 162.949,309.777 162.845,308.972 162.797,307.669 162.965,304.511 163.047,303.747 163.539,300.7 163.7,299.959 164.414,297.331 " fill="none" stroke-width="0.5" stroke="rgb(0,0,0)" />
	<polygon points="132.425,307.081 132.421,308.057 133.975,307.881 134.155,307.898 135.796,308.277 135.085,306.802 131.936,301.525 " fill="none" stroke-width="0.5" stroke="rgb(0,0,0)" />
	<polygon points="310.479,306.192 311.092,306.271 311.752,306.388 312.708,306.604 312.242,305.008 " fill="none" stroke-width="0.5" stroke="rgb(0,0,0)" />
	<polygon points="434.125,294.912 434.03,295.042 433.336,295.968 434.996,296.864 435.164,296.958 435.614,297.216 434.769,294.421 434.674,294.144 " fill="none" stroke-width="0.5" stroke="rgb(0,0,0)" />
	<polygon points="459.057,288.912 458.331,289.247 457.397,290.021 456.196,291.472 455.62,292.362 456.449,292.387 459.637,292.9 460.305,293.114 460.259,292.166 460.073,290.893 459.775,289.743 459.43,288.895 459.41,288.862 " fill="none" stroke-width="0.5" stroke="rgb(0,0,0)" />
	<polygon points="88.2074,283.832 88.1462,283.952 85.7915,288.486 85.4451,289.154 86.7371,289.833 87.2586,290.248 87.9571,290.882 88.2869,291.223 88.7227,289.104 89.0347,285.83 89.1766,281.877 " fill="none" stroke-width="0.5" stroke="rgb(0,0,0)" />
	<polygon points="58.5502,281.732 58.7893,282.183 59.1151,282.853 59.4045,283.537 59.6448,284.197 59.9611,282.82 59.9081,282.745 59.7455,282.561 59.2206,282.076 59.2038,282.06 58.2003,281.125 " fill="none" stroke-width="0.5" stroke="rgb(0,0,0)" />
	<polygon points="173.004,281.265 173.304,282.149 173.351,282.323 173.804,281.841 172.918,281.056 " fill="none" stroke-width="0.5" stroke="rgb(0,0,0)" />
	<polygon points="428.291,278.961 427.991,279.521 428.883,279.462 428.395,278.433 " fill="none" stroke-width="0.5" stroke="rgb(0,0,0)" />
	<polygon points="339.762,275.279 339.827,275.307 339.815,275.069 " fill="none" stroke-width="0.5" stroke="rgb(0,0,0)" />
	<polygon points="421.333,267.269 421.413,267.29 421.354,267.222 " fill="none" stroke-width="0.5" stroke="rgb(0,0,0)" />
	<polygon points="157.551,226.298 156.553,228.036 156.099,228.968 157.324,230.442 157.972,233.744 157.911,235.171 157.891,235.492 157.732,237.314 157.717,237.465 157.492,239.537 157.484,239.607 157.227,241.783 157.225,241.799 156.969,243.915 156.754,245.785 156.617,247.18 156.581,247.855 156.589,248.117 157.853,248.863 159.621,251.909 160.086,253.533 160.222,254.092 160.587,255.903 160.649,256.25 160.94,258.179 160.967,258.372 161.211,260.35 161.219,260.417 161.439,262.346 161.652,264.083 161.732,264.61 162.431,264.841 163.718,266.431 163.496,265.459 163.595,261.865 164.736,257.891 166.11,255.288 169.119,251.653 169.223,251.55 166.244,252.168 162.678,250.971 160.203,248.139 159.63,243.483 159.869,242.36 160.074,241.298 160.254,240.242 160.406,239.19 160.529,238.143 160.619,237.1 160.675,236.06 160.692,235.13 160.598,233.23 160.316,231.448 159.804,229.66 159.009,227.82 157.851,225.883 157.819,225.843 " fill="none" stroke-width="0.5" stroke="rgb(0,0,0)" />
	<polygon points="406.524,257.015 406.806,256.788 406.735,256.76 406.24,256.622 " fill="none" stroke-width="0.5" stroke="rgb(0,0,0)" />
	<polygon points="448.932,255.326 449.325,254.628 449.378,254.536 448.395,253.991 " fill="none" stroke-width="0.5" stroke="rgb(0,0,0)" />
	<polygon points="129.344,242.389 129.315,243.695 130.664,253.36 131.278,254.991 131.606,252.766 132.627,251.645 132.295,250.275 131.656,248.203 130.845,245.769 130.828,245.717 129.993,243.142 129.917,242.893 129.424,241.163 " fill="none" stroke-width="0.5" stroke="rgb(0,0,0)" />
	<polygon points="382.42,246.346 381.605,247.56 380.781,248.553 379.742,249.574 378.737,250.378 377.691,251.056 378.5,252.047 378.759,252.387 379.897,251.314 380.696,250.662 381.822,249.87 383.963,248.844 385.002,248.543 385.691,248.476 385.156,248.099 383.244,246.103 382.865,245.512 " fill="none" stroke-width="0.5" stroke="rgb(0,0,0)" />
	<polygon points="359.215,248.112 360.175,248.459 359.644,247.822 " fill="none" stroke-width="0.5" stroke="rgb(0,0,0)" />
	<polygon points="324.704,236.652 326.454,238.63 328.739,242.444 328.852,242.758 330.021,242.174 331.19,241.724 331.636,241.591 330.96,240.348 330.411,239.05 329.707,236.789 329.441,235.487 329.016,235.574 327.611,235.716 326.154,235.715 324.76,235.573 323.339,235.281 322.683,235.076 " fill="none" stroke-width="0.5" stroke="rgb(0,0,0)" />
	<polygon points="464.613,223.449 464.589,223.586 464.044,226.587 464.04,226.604 463.505,229.511 463.06,232.145 462.873,233.576 463.334,232.733 464.426,230.044 465.132,227.32 465.369,224.777 464.973,221.224 " fill="none" stroke-width="0.5" stroke="rgb(0,0,0)" />
	<polygon points="312.472,225.884 310.614,226.472 309.225,226.761 309.439,227.425 310.429,228.538 312.611,229.836 316.081,231.343 316.347,231.465 317.221,231.888 316.42,231.086 315.567,230.052 314.796,228.911 314.15,227.725 313.601,226.428 313.318,225.522 " fill="none" stroke-width="0.5" stroke="rgb(0,0,0)" />
	<polygon points="86.0601,213.501 87.1665,214.6 87.6293,215.181 88.3893,216.355 88.7456,217.043 89.1932,218.109 89.4451,218.877 89.6871,219.831 89.8366,220.652 89.9409,221.524 89.9903,222.372 89.9902,222.374 90.2092,222.233 90.946,221.869 92.9453,221.222 93.6743,221.1 95.8699,221.071 96.5137,221.161 98.4463,221.717 99.058,221.99 100.232,222.712 100.399,220.453 100.559,219.39 101.4,215.69 101.627,214.945 100.919,215.109 97.9215,215.439 96.3349,215.438 93.1456,215.082 91.5307,214.71 88.6665,213.69 87.1933,212.968 86.6978,212.65 " fill="none" stroke-width="0.5" stroke="rgb(0,0,0)" />
	<polygon points="438.313,212.694 437.755,212.852 432.634,214.083 431.982,214.208 425.96,215.078 425.958,215.079 426.191,215.192 427.639,216.126 431.333,219.19 432.453,220.355 433.767,222.072 434.332,220.758 435.021,219.511 437.544,215.857 438.228,215.011 441.213,211.843 441.372,211.693 " fill="none" stroke-width="0.5" stroke="rgb(0,0,0)" />
	<polygon points="131.855,219.831 132.529,220.388 132.692,220.833 133.039,219.456 " fill="none" stroke-width="0.5" stroke="rgb(0,0,0)" />
	<polygon points="64.8932,216.482 65.642,216.975 66.1589,217.443 67.3771,218.877 67.7768,219.497 68.2156,220.355 70.1266,217.103 68.2899,216.623 67.0526,216.174 65.5768,215.481 " fill="none" stroke-width="0.5" stroke="rgb(0,0,0)" />
	<polygon points="188.493,212.875 189.471,214.339 190.68,216.74 191.01,217.632 191.607,217.131 194.247,216.68 194.123,216.231 193.64,215.311 193.026,214.603 192.102,213.929 190.664,213.266 188.599,212.695 188.301,212.652 " fill="none" stroke-width="0.5" stroke="rgb(0,0,0)" />
	<polygon points="381.378,201.65 380.696,202.897 379.925,204.034 379.024,205.124 379.023,205.124 380.09,206.004 381.021,206.933 381.083,206.63 383.588,203.825 384.917,203.394 382.267,201.233 381.773,200.721 " fill="none" stroke-width="0.5" stroke="rgb(0,0,0)" />
	<polygon points="365.96,170.252 364.813,171.024 364.721,171.074 365.72,172.898 366.272,174.195 366.93,176.288 367.224,177.713 367.454,179.952 367.454,180.866 367.549,180.856 369.022,180.855 369.573,180.912 366.844,172.18 366.63,171.307 366.378,169.908 " fill="none" stroke-width="0.5" stroke="rgb(0,0,0)" />
	<polygon points="146.512,175.395 145.558,175.648 144.196,175.91 147.144,178.729 147.161,178.748 147.301,178.159 148.26,175.163 148.464,174.732 " fill="none" stroke-width="0.5" stroke="rgb(0,0,0)" />
	<polygon points="108.674,162.769 107.71,163.734 106.675,164.59 105.534,165.363 104.348,166.01 103.05,166.56 101.741,166.97 100.322,167.261 99.9794,167.296 100.33,167.476 101.079,167.921 104.34,170.136 105.079,170.712 108.077,173.378 108.814,174.137 111.402,177.23 112.078,178.192 112.177,177.958 113.219,176.04 114.23,174.621 115.617,173.104 116.977,171.967 116.094,171.323 113.2,168.678 112.199,167.548 109.976,164.437 109.28,163.231 108.93,162.459 " fill="none" stroke-width="0.5" stroke="rgb(0,0,0)" />
	<polygon points="310.255,170.645 309.979,171.075 310.149,171.075 311.556,171.217 312.969,171.506 313.05,171.244 313.107,171.108 312.331,170.95 311.837,170.831 310.363,170.421 " fill="none" stroke-width="0.5" stroke="rgb(0,0,0)" />
	<polygon points="162.994,166.583 163.322,166.647 163.226,166.396 " fill="none" stroke-width="0.5" stroke="rgb(0,0,0)" />
	<polygon points="423.632,143.277 422.301,144.869 419.56,147.321 418.32,148.212 414.837,150.194 417.187,150.405 418.582,150.672 425.002,152.569 426.331,153.111 432.017,156.122 433.074,156.807 433.416,157.073 433.298,156.78 431.452,150.343 431.403,147.089 431.295,147.06 430.227,146.688 428.548,145.95 427.271,145.225 425.911,144.258 424.565,143.014 424.121,142.483 " fill="none" stroke-width="0.5" stroke="rgb(0,0,0)" />
	<polygon points="355.561,139.082 354.937,145.653 355.605,145.518 356.946,145.383 358.388,145.383 359.728,145.518 361.139,145.805 362.386,146.192 363.686,146.739 364.816,147.352 365.964,148.126 366.917,148.912 367.023,148.784 367.08,148.729 367.475,148.461 364.883,146.942 363.783,146.149 358.446,141.481 357.576,140.573 355.583,138.095 " fill="none" stroke-width="0.5" stroke="rgb(0,0,0)" />
	<polygon points="129.489,136.155 129.163,136.444 126.301,137.865 126.326,137.917 126.861,139.517 127.339,141.811 127.395,142.11 127.705,143.994 128.145,142.99 128.43,142.122 128.738,141.052 129.002,139.991 129.218,138.95 129.386,137.943 129.505,136.981 129.573,136.093 " fill="none" stroke-width="0.5" stroke="rgb(0,0,0)" />
	<polygon points="105.532,141.138 106.672,141.909 106.82,142.031 107.004,141.322 104.972,140.832 " fill="none" stroke-width="0.5" stroke="rgb(0,0,0)" />
	<polygon points="103.045,139.94 103.049,139.941 103.211,140.01 103.048,139.924 " fill="none" stroke-width="0.5" stroke="rgb(0,0,0)" />
	<polygon points="313.797,124.968 312.659,125.498 311.678,126.174 310.869,126.95 310.26,127.756 309.871,128.497 309.478,129.739 308.378,131.452 308.945,131.755 309.862,132.127 310.758,132.377 311.7,132.527 312.819,132.584 313.096,132.575 313.565,132.539 314.138,132.476 314.787,132.392 315.47,132.3 315.529,132.292 316.183,132.21 316.374,132.188 316.63,132.163 316.457,131.926 315.878,130.993 315.694,130.638 315.278,129.671 315.149,129.297 314.89,128.335 314.814,127.949 314.693,127.015 314.668,126.622 314.693,125.423 314.767,124.706 " fill="none" stroke-width="0.5" stroke="rgb(0,0,0)" />
	<polygon points="92.4204,114.851 91.9459,115.255 89.6827,117.018 88.6463,117.691 86.3082,118.938 84.3115,119.649 81.9102,120.122 80.7458,120.173 80.9043,122.957 80.9141,123.526 80.8824,124.953 80.8687,125.264 80.8184,126.032 81.7394,125.408 82.9255,124.76 84.2248,124.208 85.5338,123.798 86.9548,123.507 88.3579,123.364 89.8168,123.364 91.2218,123.507 92.641,123.798 93.9518,124.207 95.1898,124.732 94.4454,119.167 94.4263,119.011 93.8172,113.555 " fill="none" stroke-width="0.5" stroke="rgb(0,0,0)" />
	<polygon points="185.342,109.743 185.26,110.539 185.128,111.365 184.897,112.356 184.667,113.099 184.174,114.299 183.838,114.945 182.939,116.28 182.488,116.81 181.115,118.057 180.542,118.457 178.849,119.328 178.145,119.58 176.466,119.961 175.622,120.049 174.123,119.929 174.147,119.969 174.708,121.113 176.395,125.495 176.498,125.839 176.824,125.583 179.824,123.496 180.704,122.973 183.824,121.406 184.95,120.956 188.171,119.971 189.535,119.694 192.839,119.353 193.341,119.355 192.992,119.011 192.554,118.538 188.31,113.526 188.075,113.233 185.347,109.647 " fill="none" stroke-width="0.5" stroke="rgb(0,0,0)" />
	<polygon points="124.844,112.32 123.525,117.594 125.874,114.835 126.701,114.009 127.346,113.462 126.692,112.87 125.191,111.248 125.153,111.204 " fill="none" stroke-width="0.5" stroke="rgb(0,0,0)" />
	<polygon points="414.032,104.802 416.175,106.768 417.075,107.774 417.112,104.969 417.704,103.986 416.318,103.972 416.178,103.97 412.845,103.871 412.708,103.866 412.452,103.854 " fill="none" stroke-width="0.5" stroke="rgb(0,0,0)" />
	<polygon points="392.329,102.251 393.373,103.37 394.122,104.321 394.967,105.603 394.983,105.628 395.33,105.547 396.686,105.103 398.296,104.496 400.006,103.834 400.19,103.766 401.841,103.178 401.982,103.134 398.698,102.789 398.564,102.774 395.137,102.349 395.002,102.331 391.855,101.88 " fill="none" stroke-width="0.5" stroke="rgb(0,0,0)" />
	<polygon points="146.185,102.026 145.635,105.104 149.362,104.831 150.278,104.849 149.397,104.096 146.268,101.58 " fill="none" stroke-width="0.5" stroke="rgb(0,0,0)" />
	<polygon points="307.527,99.6963 307.301,99.8849 306.625,100.425 307.606,99.8586 309.062,99.2203 309.606,99.0505 309.532,98.6536 309.466,98.2296 309.441,98.0334 " fill="none" stroke-width="0.5" stroke="rgb(0,0,0)" />
	<polygon points="381.521,99.0251 381.927,98.9739 382.474,98.9223 382.924,98.8939 383.456,98.8771 384.77,98.9561 385.888,99.1268 385.732,98.9567 384.596,97.3 384.488,97.0824 384.41,96.8636 " fill="none" stroke-width="0.5" stroke="rgb(0,0,0)" />
	<polygon points="65.6878,96.2172 65.3793,96.3874 68.4699,97.8126 69.4196,98.424 69.628,96.8211 69.6293,96.8108 69.9114,94.6648 69.9964,93.9495 " fill="none" stroke-width="0.5" stroke="rgb(0,0,0)" />
	<polygon points="459.758,96.5814 459.974,96.7011 460.252,96.3613 " fill="none" stroke-width="0.5" stroke="rgb(0,0,0)" />
	<polygon points="126.71,63.8855 125.981,67.347 125.882,67.7553 125.035,70.8624 124.609,71.9492 126.206,72.9835 126.36,72.1453 126.636,71.0934 126.897,70.3354 127.689,68.7256 128.059,68.1641 129.93,66.2336 129.999,66.1848 129.86,65.9998 128.135,63.5987 127.107,62.2374 " fill="none" stroke-width="0.5" stroke="rgb(0,0,0)" />
	<polygon points="105.119,60.8458 103.403,62.2433 101.558,63.8227 101.379,63.9712 99.5972,65.3991 98.9067,65.8889 97.2888,66.8989 97.0552,67.0006 97.064,67.0231 97.2534,67.6824 97.4632,68.6684 97.5709,69.435 97.6354,70.1546 97.6661,70.9371 97.7602,70.8524 100.219,69.4005 102.277,68.687 105.917,68.434 105.743,66.3537 105.724,66.0523 105.582,62.6225 105.393,60.6568 " fill="none" stroke-width="0.5" stroke="rgb(0,0,0)" />
	<polygon points="401.178,59.1219 401.175,60.1821 402.352,59.9629 402.614,59.9385 405.911,60.405 407.02,60.8404 408.997,62.0098 410.376,63.1576 410.788,63.5281 412.412,65.1069 414.145,66.7339 415.877,68.1246 417.572,69.1542 419.202,69.7673 421.193,70.0186 421.333,70.012 421.863,69.9316 422.292,69.8062 422.503,69.7016 422.513,69.6933 422.63,69.3749 422.668,69.017 422.315,67.8458 420.843,66.3261 417.362,64.266 412.625,62.3038 407.499,60.6042 402.822,59.167 402.483,59.0538 401.128,58.5626 " fill="none" stroke-width="0.5" stroke="rgb(0,0,0)" />
	<polygon points="163.362,47.4257 163.229,47.7681 162.567,48.9501 164.556,49.6261 164.753,49.6965 166.311,50.2772 165.589,49.5491 163.38,47.354 " fill="none" stroke-width="0.5" stroke="rgb(0,0,0)" />
	<polygon points="397.148,39.3407 397.738,40.7576 398.23,42.419 399.791,41.6353 400.671,41.2644 403.643,40.2379 404.114,40.093 407.775,39.1029 408.111,39.0207 408.464,38.9431 406.652,37.9854 402.366,36.3608 398.396,35.2315 395.03,34.3891 394.492,34.2321 394.316,34.1731 " fill="none" stroke-width="0.5" stroke="rgb(0,0,0)" />
	<polygon points="70.5859,40.5799 70.7656,40.5987 70.7943,40.4495 " fill="none" stroke-width="0.5" stroke="rgb(0,0,0)" />
	<polygon points="152.528,29.7633 151.419,30.4041 151.018,30.5904 152.702,31.6427 153.319,32.0159 153.489,29.0874 " fill="none" stroke-width="0.5" stroke="rgb(0,0,0)" />
	<polygon points="82.5561,28.5537 81.8723,30.3929 83.7785,29.6869 83.8642,29.6522 82.592,28.3689 " fill="none" stroke-width="0.5" stroke="rgb(0,0,0)" />
</svg>
