<?xml version="1.0" standalone="no" ?>
<!DOCTYPE svg PUBLIC "-//W3C//DTD SVG 1.1//EN" "http://www.w3.org/Graphics/SVG/1.1/DTD/svg11.dtd">
<svg width="500px" height="500px" xmlns="http://www.w3.org/2000/svg" version="1.1" >
	<polygon points="480.823,83.2643 480.676,83.5076 475.361,89.9795 473.417,91.8075 471.548,93.1582 473.075,93.779 474.962,94.7835 476.685,95.9426 478.397,97.3841 479.766,98.8156 480.823,100.182 480.823,193.415 480.04,194.321 478.461,195.395 477.814,195.652 480.294,198.405 480.823,199.114 480.823,249.783 480.505,250.273 479.543,251.614 480.221,251.856 480.823,252.164 480.823,281.286 479.971,296.463 479.722,298.037 478.403,299.669 477.562,300.59 475.814,302.288 477.588,305.685 478.2,307.104 478.259,307.275 477.405,312.666 473.11,329.62 467.07,347.047 459.27,364.67 454.08,374.18 452.026,374.428 452.305,377.431 449.695,382.213 438.331,399.399 425.161,415.952 410.17,431.593 399.521,440.741 398.518,440.427 398.275,441.812 393.345,446.047 374.668,459.037 354.126,470.285 331.702,479.516 319.751,482.925 317.132,481.571 316.303,481.028 316.149,482.349 315.751,483.821 315.607,484.106 307.382,486.452 281.151,490.817 252.993,492.333 225.548,490.902 199.887,486.773 176.007,480.192 173.227,479.087 171.188,477.94 169.838,477.551 169.206,477.489 153.907,471.407 133.585,460.665 125.536,455.26 125.486,455.185 125.311,453.954 123.259,453.731 115.039,448.212 98.2672,434.295 83.2685,419.161 70.0408,403.057 67.9028,399.918 67.8923,399.446 67.4987,399.324 58.5824,386.23 48.8916,368.927 40.9666,351.394 34.8057,333.879 33.0055,326.818 35.2079,319.725 35.8,318.235 36.8691,316.052 34.904,315.433 30.6721,312.867 29.6543,311.849 27.7694,299.888 26.8905,283.906 26.8905,231.462 27.5436,230.338 26.8942,229.963 26.8905,229.961 26.8905,157.585 27.007,157.261 27.6735,155.779 30.1001,151.346 31.2171,149.701 31.4665,149.4 29.223,148.236 27.5034,147.115 26.8905,146.623 26.8905,38.7533 29.8197,36.6082 30.3253,36.2604 30.6722,36.0365 29.6868,35.7261 28.1189,35.0876 26.8905,34.4665 26.8905,19.5757 38.3822,19.4875 49.8739,19.3993 61.3656,19.3111 72.8572,19.223 84.3489,19.1348 95.8406,19.0466 107.332,18.9584 118.824,18.8703 130.316,18.7821 141.807,18.6939 153.299,18.6057 164.791,18.5175 176.282,18.4294 187.774,18.3412 210.757,18.1648 210.732,31.0636 210.706,43.9624 210.681,56.8612 210.656,69.76 210.63,82.6588 210.62,87.8507 210.021,88.1009 208.369,88.6304 210.253,90.1985 210.604,90.5048 210.615,90.5142 210.579,108.456 210.554,121.355 210.503,147.153 210.478,160.052 210.452,172.95 210.437,180.798 210.23,181.109 208.449,183.351 207.137,184.724 205.996,185.718 206.798,186.268 208.404,187.627 210.377,189.672 210.419,189.726 210.401,198.748 210.376,211.647 210.356,221.894 210.052,222.204 210.354,222.484 210.35,224.546 210.438,235.84 210.602,246.657 210.899,256.963 211.371,266.476 210.275,267.803 209.227,269.197 209.444,269.416 211.552,271.191 211.732,271.346 211.752,271.364 212.112,275.909 213.138,284.482 214.519,292.41 216.308,299.661 218.563,306.2 221.336,311.994 224.685,317.011 228.665,321.215 233.33,324.575 238.737,327.056 244.939,328.626 251.957,329.247 252.327,329.221 252.863,330.331 253.384,329.544 253.722,329.125 259.171,328.749 265.518,327.271 271.013,324.853 275.719,321.532 279.698,317.343 283.01,312.324 285.72,306.511 287.888,299.942 289.576,292.653 290.848,284.68 291.763,276.06 292.386,266.831 292.434,265.631 292.654,265.458 292.448,265.281 292.778,257.028 293,246.688 293.115,235.848 293.185,224.546 293.159,211.647 293.133,198.748 293.125,194.579 294.256,193.641 293.859,192.914 293.118,191.166 293.107,185.849 293.094,179.337 293.861,177.531 294.508,176.345 294.739,176.004 293.87,175.441 293.085,174.712 293.082,172.95 293.056,160.052 293.004,134.254 292.978,121.355 292.958,111.366 294.265,108.505 294.54,108.029 294.38,108.007 294.229,107.974 292.95,107.491 292.901,82.6588 292.875,69.76 292.797,31.0636 292.771,18.1648 304.525,18.0893 316.278,18.0137 328.031,17.9382 339.784,17.8626 351.538,17.787 363.291,17.7115 375.044,17.6359 382.438,17.5884 385.384,19.7509 385.77,18.9168 386.396,18.1887 387.225,17.5576 410.304,17.4092 422.057,17.3337 433.81,17.2581 445.564,17.1826 457.317,17.107 469.07,17.0314 480.823,16.9559 " fill="none" stroke-width="0.5" stroke="rgb(0,0,0)" />
	<polygon points="318.674,422.629 318.78,422.979 319.11,424.432 319.193,424.833 319.261,425.194 319.81,425.623 320.676,426.359 320.949,426.63 321.51,426.161 322.255,425.594 322.956,425.109 323.702,424.656 323.693,424.625 323.304,421.809 323.304,421.103 " fill="none" stroke-width="0.5" stroke="rgb(0,0,0)" />
	<polygon points="107.066,168.172 107.036,168.189 107.205,168.321 110.203,170.987 111.267,172.083 111.738,172.645 111.868,172.462 112.2,172.099 111.041,171.04 109.595,169.408 108.175,167.421 " fill="none" stroke-width="0.5" stroke="rgb(0,0,0)" />
	<polygon points="424.434,147.254 422.913,148.615 425.908,149.5 427.828,150.283 428.336,150.552 428.263,149.32 427.26,148.88 425.416,147.833 424.497,147.179 " fill="none" stroke-width="0.5" stroke="rgb(0,0,0)" />
	<polygon points="90.5959,120.226 91.3691,120.305 91.2977,119.771 " fill="none" stroke-width="0.5" stroke="rgb(0,0,0)" />
	<polygon points="186.118,117.252 187.035,116.972 186.629,116.492 " fill="none" stroke-width="0.5" stroke="rgb(0,0,0)" />
</svg>
