<?xml version="1.0" standalone="no" ?>
<!DOCTYPE svg PUBLIC "-//W3C//DTD SVG 1.1//EN" "http://www.w3.org/Graphics/SVG/1.1/DTD/svg11.dtd">
<svg width="500px" height="500px" xmlns="http://www.w3.org/2000/svg" version="1.1" >
	<polygon points="475.723,81.1876 471.265,86.6158 470.312,87.5122 463.278,92.5965 462.364,93.1227 453.848,96.9134 453.082,97.1835 452.108,97.4419 453.241,97.3245 454.194,97.3152 455.502,97.4252 456.482,97.6052 457.565,97.916 458.626,98.3552 459.499,98.838 460.32,99.4308 460.433,99.0773 462.974,97.2087 465.602,97.0547 468.088,97.5652 468.983,97.8366 471.079,98.6886 472.004,99.1812 473.727,100.34 474.567,101.047 475.723,102.257 475.723,190.848 475.48,191.013 471.395,191.749 468.061,190.929 466.734,190.397 462.164,187.767 461.593,187.385 456.271,183.28 455.897,182.962 450.304,177.719 449.982,177.388 448.506,175.729 451.766,180.2 451.824,180.281 455.901,186.106 458.333,187.539 458.346,187.546 462.408,189.953 462.654,190.109 467.043,193.062 467.456,193.371 471.825,197.002 472.354,197.51 475.723,201.249 475.723,247.846 472.013,253.02 471.95,253.106 468.957,257.101 470.022,256.679 472.953,256.061 474.533,255.979 475.723,256.103 475.723,281.143 474.914,295.553 474.281,296.337 473.869,296.789 470.91,299.663 468.354,300.919 470.507,303.737 470.975,304.472 472.891,308.139 472.94,308.254 472.404,311.639 468.219,328.156 462.32,345.176 454.692,362.413 451.188,368.833 450.197,368.669 447.519,365.012 446.394,358.517 444.099,354.892 440.542,352.123 435.777,349.734 430.572,347.418 430.066,347.158 425.436,344.444 424.188,343.414 420.915,339.697 419.774,337.474 418.534,332.101 418.424,330.494 418.502,329.63 417.394,330.369 416.13,330.717 415.324,330.871 413.538,331.064 413.359,331.08 411.391,331.224 410.773,331.288 410.834,331.678 411.081,333.068 411.337,334.49 411.35,334.57 411.574,335.939 411.602,336.13 411.76,337.4 411.792,337.76 411.852,338.889 411.858,339.307 411.848,339.64 411.824,340.012 411.789,340.347 411.709,340.867 411.642,341.189 411.439,341.9 411.331,342.196 410.881,343.125 410.796,343.262 411.551,343.172 412.587,343.154 417.935,343.61 418.793,343.758 424.088,345.145 424.948,345.455 429.986,347.8 430.835,348.3 435.412,351.632 436.201,352.343 440.115,356.691 440.765,357.593 443.812,362.984 444.249,364.001 446.227,370.464 446.428,371.483 446.911,376.668 445.322,379.58 434.2,396.399 421.316,412.592 406.66,427.886 398.773,434.661 398.25,434.345 396.835,433.279 396.223,432.737 394.942,431.401 394.485,430.853 393.392,429.337 393.02,428.738 392.171,427.133 391.855,426.401 391.305,424.796 391.071,423.796 390.876,422.28 390.844,421.31 390.873,420.836 390.977,420.082 391.085,419.581 391.354,418.713 391.568,418.192 391.663,418.012 389.105,417.739 388.184,417.554 384.624,416.49 383.903,416.213 380.565,414.634 379.98,414.308 376.982,412.372 376.468,411.993 376.3,411.851 376.45,412.626 376.543,413.597 376.543,417.615 376.542,417.735 376.525,418.458 376.51,418.742 376.453,419.457 376.412,419.815 376.329,420.366 379.378,419.544 380.948,419.728 382.022,419.974 383.655,420.538 384.61,420.984 386.221,421.95 387.054,422.573 388.561,423.96 389.244,424.731 390.562,426.561 391.064,427.425 392.109,429.717 392.418,430.605 393.107,433.379 393.242,434.223 393.491,437.5 393.428,438.766 393.328,439.338 390.219,442.009 371.98,454.694 351.923,465.677 330.026,474.691 320.578,477.385 319.566,476.862 318.693,476.291 316.494,474.505 315.759,473.772 314.033,471.658 313.472,470.811 312.228,468.452 311.853,467.532 311.1,465.009 310.911,464.043 310.658,461.438 310.645,460.612 310.886,456.927 310.963,456.317 311.635,452.752 311.762,452.229 312.785,448.823 312.941,448.38 313.677,446.558 313.485,446.622 312.733,446.807 311.949,446.936 311.573,446.968 311.312,447.725 310.159,451.827 310.111,451.987 308.601,456.75 308.421,457.232 306.387,461.937 305.925,462.78 303.158,466.852 302.058,468.022 298.35,470.887 296.341,471.83 292.85,472.608 295.37,472.581 297.276,472.508 298.598,472.41 299.507,472.305 300.241,472.193 300.936,472.083 301.172,472.051 301.888,471.972 302.271,471.944 303.136,471.914 303.72,471.927 304.59,471.997 305.595,472.18 306.264,472.372 307.443,472.88 307.937,473.171 309.053,474.062 309.398,474.427 310.185,475.518 310.407,475.932 310.815,476.936 310.941,477.375 311.098,478.134 311.154,478.573 311.193,479.062 311.206,479.477 311.136,480.078 306.26,481.469 280.593,485.74 265.533,486.551 264.495,485.365 264.429,485.276 261.502,486.768 252.988,487.226 226.088,485.823 200.973,481.782 177.631,475.35 176.747,474.998 176.662,474.938 173.249,473.018 170.841,472.324 169.75,472.216 156.047,466.77 136.205,456.281 130.208,452.254 130.637,449.258 131.512,448.358 127.289,448.737 126.282,448.728 124.701,448.557 118.096,444.122 101.715,430.528 87.0584,415.74 74.1272,399.997 73.2549,398.716 73.5822,394.617 73.7126,393.809 73.8107,393.409 73.4861,393.837 70.539,394.728 62.9232,383.544 53.4485,366.626 45.7046,349.494 39.6918,332.4 38.3978,327.325 40.2695,321.296 40.5599,320.566 44.7565,311.996 45.0172,311.528 47.0078,308.357 45.0373,309.737 43.4427,310.483 41.3263,311.056 38.4639,310.997 36.4949,310.378 34.4196,309.119 34.3809,309.081 32.8475,299.349 31.9905,283.766 31.9905,233.163 32.2713,232.68 34.1097,230.221 36.1388,228.608 37.4545,228.029 34.9456,227.735 33.6399,227.404 31.9905,226.742 31.9905,159.065 31.9957,159.05 32.3226,158.323 34.7491,153.891 35.2969,153.084 38.8363,148.816 39.5959,148.073 41.8683,146.273 41.0944,146.265 38.361,146.01 37.4059,145.827 34.8705,145.087 33.9507,144.718 31.9905,143.701 31.9905,111.075 32.1143,110.984 32.7633,110.581 35.0163,109.406 38.127,108.883 40.9501,110.29 41.3898,111.597 41.4215,111.261 41.6039,110.31 42.2524,108.093 42.6127,107.19 43.6507,105.174 43.7948,104.95 41.8481,105.71 40.9176,105.976 36.8925,106.719 35.6623,106.795 34.97,106.753 34.2833,106.665 33.6498,106.54 32.8499,106.312 32.2856,106.101 31.9905,105.956 31.9905,88.6588 33.0666,87.0324 33.3705,86.6196 35.4781,84.04 34.7511,84.3095 32.6256,84.8191 31.9905,84.8446 31.9905,60.2475 32.0952,60.1924 31.9905,60.1702 31.9905,41.5877 32.951,40.8843 33.199,40.7137 37.659,37.8356 37.7266,37.7928 42.1353,35.0447 43.6815,34.0293 39.6365,33.0281 39.6094,33.0213 35.31,31.9321 35.0299,31.8526 31.9905,30.8951 31.9905,24.6367 38.4214,24.5873 49.913,24.4992 61.4047,24.411 72.8964,24.3228 80.3286,24.2658 80.5878,27.8219 79.7837,29.9845 78.6438,31.779 76.5241,33.9394 75.8623,34.5075 72.8654,36.6637 72.5923,36.8471 69.1569,38.9969 69.1492,39.0018 65.8451,41.0612 64.6033,41.9441 66.1221,42.2258 70.7126,42.7046 72.725,42.8973 72.5762,42.4264 72.5129,42.0006 73.1534,38.6795 73.9118,37.3807 75.7038,35.572 77.7033,34.3797 78.38,34.0415 81.2068,32.882 81.3709,32.818 84.5381,31.645 87.4621,30.4589 89.1437,29.5652 87.9714,29.1708 87.9535,29.1647 86.6392,28.7169 85.8633,28.3784 84.9337,27.8771 82.8446,25.7701 82.492,25.1025 82.3444,24.2503 84.3881,24.2346 95.8797,24.1465 107.371,24.0583 116.699,23.9867 117.451,24.3739 118.804,24.5686 120.1,24.3832 120.913,23.9771 120.939,23.9542 130.355,23.8819 130.355,23.8819 141.846,23.7938 153.338,23.7056 153.338,23.7056 154.571,23.6961 154.375,24.4618 154.007,25.2807 152.288,27.3641 151.319,28.0457 150.534,28.4996 149.164,29.136 149.05,29.1871 147.648,29.7973 146.885,30.197 147.018,30.3418 148.954,31.7774 151.603,33.4319 154.423,35.1373 154.631,35.2697 156.862,36.7701 156.13,35.403 155.214,32.8022 155.442,28.8712 156.494,26.714 158.094,24.8147 159.699,23.6568 164.83,23.6174 176.321,23.5292 187.813,23.441 187.813,23.441 205.647,23.3042 205.635,29.2664 205.233,29.4919 201.823,31.0558 201.545,31.1736 200.476,31.5892 201.21,31.5221 201.51,31.5035 203.729,31.4318 203.951,31.4294 205.55,31.4472 205.631,31.4504 205.606,43.9524 205.584,55.1323 204.015,54.9137 203.14,54.7121 200.786,53.9462 203.621,56.8414 203.82,57.057 205.577,59.0706 205.556,69.75 205.556,69.75 205.53,82.6488 205.528,83.7977 205.365,83.8219 204.236,83.9013 203.362,83.8877 199.38,83.4823 198.763,83.3811 194.074,82.3124 193.764,82.2314 188.864,80.7856 192.401,83.0915 192.599,83.2276 197.485,86.7515 197.628,86.8592 202.431,90.588 202.567,90.6967 205.509,93.1461 205.479,108.446 205.479,108.446 205.454,121.345 205.45,123.53 204.963,123.635 202.185,123.221 202.841,123.464 203.981,124.06 205.447,125.08 205.403,147.143 205.378,160.042 205.352,172.94 205.341,178.743 204.299,180.054 203.656,180.727 201.515,182.593 200.706,183.169 198.238,184.588 197.28,185.014 194.518,185.917 193.464,186.142 193.18,186.171 193.904,186.287 196.969,187.036 197.806,187.32 200.569,188.532 201.403,188.996 203.802,190.639 204.589,191.306 205.314,192.058 205.301,198.738 205.276,211.637 205.26,219.583 203.541,221.035 200.463,221.26 200.645,221.371 201.057,221.652 204.124,223.974 204.509,224.297 205.254,224.986 205.338,235.88 205.338,235.918 205.503,246.735 205.504,246.804 205.801,257.11 205.805,257.216 206.165,264.456 206.112,264.521 204.404,266.793 203.524,268.438 203.323,269.455 203.533,270.528 204.264,271.716 205.845,273.314 206.858,274.167 207.028,276.312 207.048,276.516 208.075,285.088 208.114,285.357 209.494,293.285 209.567,293.633 211.357,300.883 211.487,301.323 213.741,307.862 213.962,308.402 216.736,314.196 217.095,314.826 220.444,319.842 220.981,320.516 224.961,324.721 225.685,325.354 230.35,328.713 231.203,329.21 236.609,331.691 237.485,332 243.688,333.57 244.49,333.706 248.791,334.086 248.934,334.383 249.253,335.225 250.166,338.486 250.311,339.186 250.761,342.554 250.803,343.052 250.924,346.499 250.918,346.726 251.996,343.217 252.371,342.315 256.79,334.026 259.522,333.837 260.328,333.716 266.675,332.239 267.572,331.94 273.068,329.521 273.955,329.02 278.66,325.698 279.417,325.044 283.395,320.855 283.954,320.152 287.267,315.133 287.633,314.479 290.342,308.666 290.563,308.11 292.731,301.54 292.856,301.093 294.545,293.804 294.613,293.456 295.884,285.483 295.919,285.219 296.835,276.599 296.852,276.403 297.369,268.74 298.107,268.402 299.25,268.033 300.32,267.811 301.579,267.688 302.937,267.737 305.213,268.127 305.885,268.35 305.396,268.081 305.216,267.977 300.531,265.143 299.849,264.649 297.653,262.764 297.874,257.231 297.876,257.137 298.099,246.798 298.1,246.742 298.215,235.903 298.215,235.88 298.285,224.577 298.285,224.535 298.282,222.89 298.563,222.612 298.472,222.563 298.281,222.433 298.259,211.637 298.233,198.738 298.23,197.313 298.468,197.152 300.158,196.222 301.074,195.829 302.785,195.287 302.28,194.944 301.245,194.089 300.562,193.406 299.706,192.37 299.16,191.563 298.513,190.376 298.215,189.675 298.207,185.839 298.197,180.814 298.513,180.069 299.161,178.883 299.707,178.076 300.563,177.041 301.245,176.359 302.281,175.504 303.087,174.958 304.273,174.312 305.192,173.922 306.499,173.513 307.505,173.307 308.905,173.164 309.937,173.164 311.344,173.307 312.346,173.511 313.659,173.92 314.451,174.255 314.466,174.112 314.669,173.112 315.055,171.867 315.443,170.948 316.054,169.822 316.258,169.518 315.347,169.405 314.954,169.341 312.749,168.893 312.399,168.808 310.551,168.294 310.269,168.206 309.216,167.846 309.007,168.369 308.863,168.698 308.364,169.732 307.694,170.773 307.105,171.483 304.664,173.105 303.914,173.332 300.435,173.145 298.95,172.513 298.18,172.013 298.156,160.041 298.104,134.244 298.104,134.244 298.078,121.345 298.061,112.95 299.086,110.707 299.571,109.866 301.457,107.219 302.157,106.425 304.642,104.138 305.545,103.473 308.656,101.677 309.687,101.225 312.14,100.46 312.104,100.363 311.936,99.8308 311.799,99.29 311.728,98.9684 311.596,98.2671 311.549,97.9667 311.346,96.3588 311.126,94.6659 311.001,93.8639 310.903,93.9467 308.584,95.9957 308.552,96.0244 306.15,98.1109 305.989,98.2445 303.712,100.065 303.302,100.361 301.315,101.648 300.092,102.227 298.562,102.715 298.041,102.794 298.001,82.6486 298.001,82.6486 297.998,81.2713 298.569,80.1525 298.356,80.1264 297.995,80.0878 297.975,69.7498 297.959,61.7414 297.982,61.7247 298.833,60.9999 297.956,60.5836 297.919,42.1908 298.184,42.0458 298.217,42.024 298.11,41.8296 297.918,41.5343 297.897,31.0534 297.897,31.0534 297.882,23.2321 304.557,23.1892 307.824,23.1682 307.896,23.2075 310.785,24.7326 310.801,24.0727 310.805,23.2253 310.806,23.149 316.311,23.1136 328.064,23.0381 339.817,22.9625 351.57,22.8869 363.324,22.8114 375.077,22.7358 380.447,22.7013 385.024,26.0612 385.835,26.8035 390.891,32.5495 391.535,33.4674 395.307,40.35 395.724,41.3536 397.062,45.8734 398.739,44.5133 400.733,43.512 401.356,43.2493 404.328,42.2228 404.662,42.1202 408.323,41.13 408.561,41.0719 412.624,40.1798 412.837,40.1378 414.056,39.924 412.208,38.5461 407.517,36.0678 403.026,34.3654 398.938,33.2025 395.54,32.352 395.159,32.2407 392.864,31.4725 390.659,30.0104 389.831,29.0719 388.578,26.1771 389.703,22.6418 410.337,22.5091 422.09,22.4336 433.843,22.358 443.275,22.2974 444.217,23.4856 445.514,25.7999 445.978,27.1316 446.607,24.8974 446.98,23.9487 447.844,22.268 457.35,22.2069 469.103,22.1313 475.723,22.0888 " fill="none" stroke-width="0.5" stroke="rgb(0,0,0)" />
	<polygon points="258.307,447.551 257.944,447.595 257.763,447.641 257.596,447.711 257.289,447.897 256.764,448.306 256.007,449.014 255.76,449.275 256.21,449.198 256.536,449.203 256.904,449.223 257.333,449.261 257.908,449.346 258.413,449.45 259.132,449.654 259.686,449.856 260.486,450.229 260.768,450.391 260.587,450.003 260.541,449.902 260.148,449.007 259.845,448.498 259.529,448.096 259.232,447.808 258.989,447.631 258.84,447.555 258.818,447.548 258.73,447.539 " fill="none" stroke-width="0.5" stroke="rgb(0,0,0)" />
	<polygon points="187.623,439.48 187.945,440.112 189.931,444.77 190.178,445.497 191.093,449.048 192.315,449.408 193.878,449.753 195.56,450.023 197.198,450.193 198.604,450.248 200.486,450.145 202.317,449.823 204.008,449.269 205.48,448.489 206.714,447.473 207.74,446.144 208.568,444.327 209.213,441.351 210.041,439.93 209.384,440.027 202.7,440.527 201.92,440.525 195.702,440.036 194.839,439.893 189.643,438.565 188.765,438.253 186.157,437.047 " fill="none" stroke-width="0.5" stroke="rgb(0,0,0)" />
	<polygon points="162.845,403.392 162.978,404.216 163.717,413.719 163.72,414.463 163.4,419.147 163.298,419.869 162.236,424.818 161.992,425.625 160.037,430.565 159.583,431.45 156.584,436.107 155.861,436.993 151.667,441.093 150.692,441.839 145.151,445.107 144.058,445.589 139.604,446.957 139.727,446.968 140.717,447.031 141.709,447.073 142.68,447.098 143.466,447.104 148.578,446.778 152.724,445.89 156.046,444.535 158.609,442.806 160.532,440.737 161.921,438.27 162.802,435.298 163.133,431.572 163.13,431.293 163.111,430.794 163.082,430.27 163.042,429.727 162.994,429.169 162.939,428.602 162.879,428.029 162.815,427.448 163.456,424.359 165.79,422.238 170.115,422.302 172.218,423.325 172.756,423.628 173.697,424.237 173.448,423.629 173.132,422.495 172.819,420.512 172.776,419.269 172.809,418.901 173.005,417.881 173.101,417.562 173.577,416.464 173.735,416.193 174.499,415.191 174.716,414.969 175.645,414.22 175.92,414.047 176.848,413.588 177.178,413.465 177.996,413.234 178.38,413.16 179.058,413.076 179.493,413.051 179.528,413.051 177.005,412.279 176.547,412.115 173.763,410.963 173.345,410.768 170.709,409.386 170.31,409.154 167.883,407.586 167.483,407.3 165.326,405.592 164.906,405.22 163.081,403.414 162.764,403.062 " fill="none" stroke-width="0.5" stroke="rgb(0,0,0)" />
	<polygon points="326.282,414.413 325.267,414.876 315.762,418.008 314.684,418.238 310.142,418.702 311.476,419.914 312.248,420.961 312.911,422.174 313.405,423.472 313.612,424.155 313.942,425.608 313.983,425.805 314.243,427.197 314.478,428.193 314.526,428.315 315.126,428.742 315.152,428.76 316.06,429.414 316.38,429.664 317.246,430.4 317.817,430.967 318.55,431.821 319.237,432.853 319.744,433.864 320.193,435.26 321.312,433.845 321.469,433.656 322.191,432.829 322.323,432.684 323.042,431.921 323.226,431.736 323.941,431.052 324.198,430.821 324.907,430.229 325.273,429.951 325.973,429.466 326.497,429.148 327.188,428.784 327.936,428.463 328.614,428.234 329.639,428.002 330.303,427.923 331.627,427.97 331.137,427.517 330.135,426.315 329.144,424.431 328.795,423.19 328.604,421.809 328.604,413.773 328.725,412.957 " fill="none" stroke-width="0.5" stroke="rgb(0,0,0)" />
	<polygon points="242.678,409.508 242.694,409.791 242.719,410.65 242.659,411.584 241.881,416.56 241.446,417.965 239.24,422.596 238.577,423.639 235.138,427.826 234.417,428.544 229.939,432.19 229.228,432.675 225.287,434.901 226.748,434.463 232.144,431.918 236.775,428.76 240.622,425.077 243.666,420.947 245.889,416.435 247.393,411.146 248.111,410.077 247.535,410.132 246.324,410.102 245.386,409.966 244.169,409.633 243.303,409.275 242.629,408.931 " fill="none" stroke-width="0.5" stroke="rgb(0,0,0)" />
	<polygon points="255.737,393.545 255.518,394.205 255.388,394.531 255.471,394.651 255.847,395.287 256.202,396.015 256.475,396.711 256.709,397.478 256.876,398.236 256.984,398.984 257.04,399.807 257.03,400.636 256.934,401.648 256.746,402.617 256.471,403.548 256.091,404.479 255.652,405.313 255.091,406.158 254.504,406.878 253.785,407.598 253.655,407.704 254.148,407.788 256.996,408.896 257.425,409.085 260.284,410.513 260.616,410.694 263.398,412.35 263.675,412.527 266.292,414.323 266.545,414.508 268.909,416.354 269.167,416.569 271.19,418.374 271.489,418.665 272.293,419.509 272.934,419.369 273.157,419.325 274.442,419.104 274.654,419.072 275.989,418.899 276.19,418.877 277.573,418.754 277.763,418.74 279.195,418.666 279.373,418.66 280.855,418.635 281.059,418.636 283.19,418.686 283.418,418.696 285.621,418.846 285.836,418.866 288.117,419.118 288.317,419.144 290.681,419.502 290.867,419.533 293.321,419.997 293.491,420.032 296.041,420.604 296.196,420.642 297.029,420.856 297.169,420.62 297.675,419.942 298.643,418.959 291.09,418.191 290.02,417.964 279.935,414.665 278.924,414.207 270.318,409.114 269.456,408.472 262.355,401.916 261.684,401.162 256.115,393.476 255.867,393.056 " fill="none" stroke-width="0.5" stroke="rgb(0,0,0)" />
	<polygon points="198.271,411.311 197.343,411.881 195.665,412.679 194.865,412.981 192.937,413.527 192.289,413.666 190.156,413.98 189.636,414.03 189.099,414.053 191.061,414.086 195.563,413.259 198.179,411.439 198.271,411.311 " fill="none" stroke-width="0.5" stroke="rgb(0,0,0)" />
	<polygon points="347.843,394.496 347.373,395.282 342.583,401.859 343.374,401.621 343.971,401.479 347.91,400.794 348.499,400.727 353.007,400.475 353.475,400.47 357.269,400.607 357.675,400.638 361.145,401.042 361.623,401.121 364.714,401.783 365.299,401.945 367.955,402.854 368.692,403.173 369.248,403.468 369.043,402.984 368.596,401.214 368.842,397.981 369.342,396.795 369.333,396.8 367.995,397.305 362.799,398.469 360.543,398.463 359.393,398.199 357.66,397.442 356.583,396.707 355.619,395.852 354.64,394.733 354.113,394.012 353.257,392.595 352.946,391.993 352.237,390.363 352.036,389.82 351.499,388.065 351.365,387.523 351.321,387.291 " fill="none" stroke-width="0.5" stroke="rgb(0,0,0)" />
	<polygon points="226.037,383.563 217.769,385.994 216.781,386.181 206.965,387.053 205.955,387.042 197.757,386.137 197.015,385.973 199.194,388.914 199.579,389.517 201.416,392.903 201.732,393.605 202.873,396.77 203.122,397.763 203.514,400.449 203.534,401.77 203.515,401.936 204.823,399.198 205.201,398.537 208.021,394.367 209.197,393.136 213.152,390.187 215.216,389.271 220.901,388.152 222.276,388.071 223.322,388.151 223.912,388.232 225.16,388.476 225.633,388.593 227.008,389.001 227.178,389.061 227.113,388.857 226.993,388.41 226.774,387.422 226.671,386.734 226.588,385.715 226.589,384.882 226.677,383.816 226.773,383.257 " fill="none" stroke-width="0.5" stroke="rgb(0,0,0)" />
	<polygon points="285.891,393.407 291.202,395.931 297.316,397.585 304.303,398.19 307.753,398.047 310.858,397.638 313.444,397.025 314.177,396.754 313.897,396.553 311.994,393.904 311.739,393.072 311.604,390.845 311.252,390.985 310.998,391.078 308.242,392.005 307.861,392.117 304.649,392.926 304.181,393.021 300.473,393.594 299.956,393.647 295.714,393.864 295.097,393.858 291.583,393.612 290.892,393.515 287.501,392.803 286.823,392.611 283.662,391.473 282.969,391.164 282.223,390.762 " fill="none" stroke-width="0.5" stroke="rgb(0,0,0)" />
	<polygon points="120.228,350.714 119.527,351.307 117.743,352.557 116.975,353.002 115.149,353.855 115.167,354.129 115.195,356.483 115.108,357.486 114.697,359.676 114.404,360.667 113.587,362.66 113.099,363.574 111.913,365.336 111.492,365.843 111.605,365.801 115.635,364.681 116.541,364.515 120.791,364.131 121.811,364.141 129.486,364.988 130.599,365.24 137.683,367.699 138.699,368.183 145.058,372.129 145.91,372.793 151.41,378.1 152.068,378.876 155.592,383.99 155.209,381.779 154.561,379.082 153.571,376.765 152.152,374.57 150.249,372.485 147.795,370.523 144.732,368.72 141.013,367.125 136.437,365.741 132.748,364.738 132.488,364.66 129.536,363.686 129.151,363.542 126.912,362.597 126.347,362.317 124.726,361.382 123.948,360.832 122.851,359.889 121.973,358.91 121.305,357.94 120.659,356.631 120.328,355.614 120.094,354.454 120.005,353.373 120.062,352.081 120.314,350.627 " fill="none" stroke-width="0.5" stroke="rgb(0,0,0)" />
	<polygon points="245.459,366.944 244.943,367.802 240.877,373.268 240.147,374.059 238.417,375.576 239.162,375.753 240.19,376.133 241.261,376.679 242.145,377.271 242.982,377.972 243.725,378.743 244.314,379.481 244.474,379.724 244.686,379.704 245.253,379.679 245.99,379.7 247.236,379.825 248.287,380.044 249.393,380.4 250.39,380.843 250.682,381.012 248.885,374.381 248.728,373.502 247.913,364.415 247.918,363.447 248.135,361.304 " fill="none" stroke-width="0.5" stroke="rgb(0,0,0)" />
	<polygon points="77.2729,367.666 78.114,369.794 79.3682,378.076 79.1541,380.4 79.2556,380.233 79.6908,379.624 82.0789,376.755 82.6066,376.209 85.1151,373.975 85.7767,373.475 88.256,371.904 89.1627,371.448 91.4629,370.567 91.8751,370.546 91.1043,370.207 89.387,369.242 88.5777,368.678 87.092,367.412 86.4225,366.723 85.1877,365.185 84.8102,364.617 84.5203,364.681 84.2966,364.726 83.4768,364.87 83.2604,364.903 82.4188,365.014 81.8057,365.058 79.4922,365.082 78.4792,364.992 76.2809,364.571 75.3299,364.291 74.8043,364.079 " fill="none" stroke-width="0.5" stroke="rgb(0,0,0)" />
	<polygon points="101.044,371.545 100.194,371.658 97.897,371.767 96.9941,371.73 96.5585,371.673 97.256,372.127 98.3342,376.061 98.2861,376.394 98.8737,375.391 99.4897,374.551 102.217,371.534 102.574,371.21 " fill="none" stroke-width="0.5" stroke="rgb(0,0,0)" />
	<polygon points="354.196,361.784 353.539,362.572 351.345,364.721 350.981,365.008 352.889,365.674 354.686,368.266 354.875,370.256 354.3,375.837 354.549,375.63 355.506,374.985 356.177,374.602 357.425,374.012 357.953,373.797 359.522,373.26 359.92,373.141 361.66,372.7 367.369,370.802 366.87,370.757 365.922,370.58 363.787,369.967 362.853,369.597 360.978,368.628 360.118,368.069 358.527,366.787 357.794,366.062 356.513,364.511 355.943,363.659 354.997,361.88 354.67,361.083 " fill="none" stroke-width="0.5" stroke="rgb(0,0,0)" />
	<polygon points="167.865,364.557 167.929,364.768 168.916,368.288 168.933,368.349 169.789,371.554 170.539,374.104 171.101,375.535 171.133,375.582 171.37,375.653 171.706,375.725 172.076,375.779 172.447,375.81 172.823,375.821 173.316,375.815 173.854,375.797 174.401,375.771 174.957,375.74 175.512,375.707 175.537,375.705 176.071,375.676 176.142,375.673 176.647,375.652 176.77,375.649 177.245,375.641 177.593,375.662 175.158,373.54 174.532,372.887 169.906,367.125 169.41,366.383 167.051,362.077 " fill="none" stroke-width="0.5" stroke="rgb(0,0,0)" />
	<polygon points="323.713,364.227 323.364,365.122 322.649,366.543 322.125,367.374 321.159,368.62 320.464,369.353 319.269,370.388 318.419,370.983 317.9,371.273 320.559,371.443 323.555,371.373 327.169,371.138 331.068,370.718 335.019,370.095 338.783,369.262 338.937,369.215 338.158,369.222 334.937,368.94 334.003,368.77 331.061,367.944 330.112,367.572 327.496,366.23 326.602,365.646 324.357,363.817 323.948,363.403 " fill="none" stroke-width="0.5" stroke="rgb(0,0,0)" />
	<polygon points="297.75,354.087 294.563,356.005 293.469,356.499 288.964,357.921 288.892,357.943 284.038,359.398 279.789,361.285 276.561,363.908 274.316,367.887 273.965,370.285 274.659,369.693 274.957,369.494 276.072,368.934 276.411,368.813 277.574,368.546 277.95,368.505 278.443,368.496 278.496,367.973 278.564,367.509 278.804,366.285 278.992,365.587 279.387,364.453 279.882,363.421 280.471,362.481 281.658,361.166 282.48,360.526 284.536,359.564 285.629,359.327 288.483,359.531 289.899,360.056 291.163,360.742 293.032,362.128 293.143,362.213 295.503,364.066 298.415,366.051 300.38,367.085 300.172,366.755 299.499,365.423 299.151,364.536 298.732,363.083 298.555,362.147 298.411,360.61 298.395,359.893 298.447,358.786 298.482,358.385 298.62,357.295 298.662,357.023 298.858,355.949 298.886,355.805 299.111,354.748 299.114,354.732 299.326,353.749 299.485,352.914 299.577,352.25 299.594,351.915 " fill="none" stroke-width="0.5" stroke="rgb(0,0,0)" />
	<polygon points="157.032,223.036 156.936,223.207 155.736,225.241 154.696,227.052 153.967,228.547 153.685,229.401 154.114,229.582 155.874,233.655 155.813,235.082 155.799,235.31 155.64,237.132 155.629,237.239 155.404,239.31 155.399,239.36 155.141,241.536 155.14,241.547 154.884,243.669 154.666,245.562 154.522,247.022 154.479,247.832 154.515,248.994 154.552,249.303 156.688,250.713 157.602,252.487 158.067,254.112 158.164,254.508 158.529,256.318 158.572,256.564 158.864,258.493 158.883,258.63 159.127,260.608 159.133,260.655 159.354,262.593 159.572,264.369 159.799,265.859 159.87,266.192 161.685,266.896 163.208,268.983 163.749,270.359 164.318,271.797 164.909,273.203 165.529,274.527 166.172,275.71 166.817,276.69 167.423,277.416 168.289,278.18 168.534,278.392 168.894,278.735 169.164,279.019 169.452,279.349 169.714,279.678 169.97,280.027 170.213,280.39 170.454,280.789 170.665,281.176 170.898,281.665 171.063,282.066 171.276,282.693 171.384,283.098 171.534,283.922 171.573,284.321 171.521,285.695 171.313,286.885 170.874,288.24 170.3,289.418 169.753,290.298 168.889,291.419 168.351,292.013 167.272,293.031 166.737,293.471 165.519,294.341 164.937,294.701 163.655,295.378 162.94,295.688 161.67,296.128 160.671,296.364 159.488,296.521 158.396,296.547 158.039,296.518 157.179,296.371 156.772,296.265 155.916,295.959 155.469,295.752 154.697,295.31 154.219,294.977 153.586,294.457 153.085,293.973 152.604,293.437 152.091,292.777 151.743,292.27 151.226,291.409 150.983,290.952 150.625,290.19 150.35,289.768 149.554,288.932 148.154,287.65 146.47,286.169 146.413,286.117 145.592,285.372 150.773,292.805 150.864,292.939 156.6,301.751 156.886,302.25 160.944,310.352 161.374,311.585 162.913,318.89 163.003,320.392 162.75,323.233 162.598,324.095 161.848,326.91 161.55,327.734 160.313,330.414 159.854,331.211 158.139,333.648 157.492,334.4 155.312,336.485 154.462,337.141 151.825,338.765 150.801,339.248 147.718,340.302 146.61,340.547 146.304,340.58 148.073,341.042 148.748,341.27 151.339,342.351 152.018,342.696 154.478,344.187 155.088,344.621 157.437,346.566 157.93,347.034 160.189,349.479 160.558,349.927 162.747,352.917 163.081,353.436 164.543,356.043 163.441,352.691 163.218,351.675 162.475,345.152 162.445,344.409 162.504,342.625 162.527,342.277 162.706,340.513 162.763,340.113 163.069,338.435 163.185,337.938 163.625,336.414 163.864,335.756 164.443,334.454 164.953,333.56 165.677,332.547 166.765,331.433 167.641,330.775 169.576,329.879 170.61,329.645 172.261,329.546 173.169,329.64 173.42,329.695 173.017,329.282 172.41,328.53 168.845,323.133 168.346,322.165 166.046,316.23 165.743,315.039 164.928,308.704 164.894,307.781 165.062,304.623 165.12,304.082 165.612,301.035 165.726,300.51 166.521,297.587 166.685,297.087 167.762,294.298 167.97,293.831 169.309,291.189 169.556,290.756 171.136,288.274 171.415,287.878 173.215,285.567 173.522,285.208 175.522,283.08 177.578,281.951 175.778,280.728 175.261,280.327 171.147,276.682 170.341,275.776 167.431,271.59 166.647,269.816 165.543,264.99 165.613,262.445 166.754,258.471 167.728,256.627 170.737,252.992 171.453,252.283 175.707,248.832 175.992,248.617 180.834,245.221 185.464,241.858 189.097,238.595 191.204,235.62 191.955,232.439 191.953,232.395 191.868,231.656 191.716,230.769 191.498,229.797 191.219,228.793 190.889,227.804 190.518,226.879 190.037,225.879 189.595,229.392 189.275,230.637 187.928,234.031 187.39,235.039 185.355,237.999 184.772,238.701 182.221,241.273 181.711,241.723 178.815,243.95 178.42,244.226 175.352,246.155 175.082,246.313 172.014,247.989 171.875,248.063 168.978,249.53 165.861,250.016 163.055,248.576 161.633,245.76 161.685,243.92 161.928,242.777 162.14,241.673 162.328,240.569 162.489,239.462 162.618,238.355 162.714,237.246 162.774,236.135 162.793,235.098 162.69,233.014 162.37,230.993 161.786,228.951 160.882,226.86 159.585,224.691 157.808,222.429 157.517,222.136 " fill="none" stroke-width="0.5" stroke="rgb(0,0,0)" />
	<polygon points="386.12,307.027 385.049,308.224 383.937,309.798 382.881,311.641 381.952,313.645 381.26,315.541 381.016,316.799 380.806,319.098 380.63,322.077 380.442,325.262 380.432,325.405 380.17,328.41 380.125,328.773 379.721,331.294 379.494,332.187 378.881,333.922 377.377,335.937 378.896,337.023 379.623,337.654 382.109,340.263 382.746,341.085 384.575,344.022 385.056,345.021 386.185,348.221 386.443,349.342 386.83,352.739 386.842,353.771 386.682,355.554 389.418,352.392 389.999,351.82 394.611,347.956 395.834,347.197 401.58,344.671 401.084,344.335 399.955,343.247 399.57,342.832 398.293,341.294 398.177,341.15 396.827,339.398 395.538,337.745 395.497,337.698 394.911,338.205 393.702,339.258 393.549,339.386 392.4,340.308 391.952,340.631 390.93,341.283 389.633,341.876 388.798,342.123 386.716,342.294 386.528,342.271 385.298,341.958 385.129,341.891 384.086,341.335 383.938,341.232 383.136,340.543 383.01,340.41 382.429,339.667 382.327,339.509 381.925,338.751 381.85,338.575 381.591,337.799 381.544,337.612 381.412,336.806 381.396,336.612 381.443,335.386 381.721,333.651 381.93,332.811 382.664,330.662 382.779,330.356 383.816,327.856 383.834,327.811 384.995,325.085 386.101,322.274 387.014,319.464 387.619,316.745 387.847,314.008 387.821,312.604 387.709,310.802 387.483,308.977 387.136,307.355 386.814,306.452 " fill="none" stroke-width="0.5" stroke="rgb(0,0,0)" />
	<polygon points="55.5987,335.776 56.4569,342.812 60.0543,348.597 64.6053,353.101 64.1939,351.308 64.0649,350.22 64.0396,347.757 64.1543,346.628 64.6457,344.353 64.9825,343.331 65.911,341.275 66.4049,340.415 67.6908,338.609 68.0953,338.137 66.3761,337.926 65.9286,337.851 63.0582,337.235 62.3702,337.036 59.9015,336.129 59.0375,335.716 56.8967,334.433 56.1994,333.91 " fill="none" stroke-width="0.5" stroke="rgb(0,0,0)" />
	<polygon points="321.255,324.498 319.955,325.384 319.071,325.806 319.79,326.638 320.397,327.529 320.971,328.646 321.299,329.541 321.579,330.725 321.677,331.599 321.674,332.771 321.517,334.093 321.18,335.406 320.738,336.498 320.034,337.718 319.35,338.596 318.442,339.5 317.559,340.182 316.659,340.738 315.619,341.239 314.837,341.54 313.685,341.878 313.036,342.023 311.814,342.213 311.273,342.268 310.023,342.328 309.657,342.332 309.215,342.322 310.6,342.669 311.426,342.953 314.322,344.235 315.116,344.675 317.578,346.342 318.247,346.893 318.413,345.028 318.525,344.325 319.174,341.532 319.293,341.105 320.211,338.291 320.28,338.094 321.331,335.268 322.344,332.534 323.16,330.01 323.681,327.736 323.869,325.578 323.846,324.988 323.764,324.295 323.625,323.619 323.422,322.947 323.145,322.264 323.077,322.132 " fill="none" stroke-width="0.5" stroke="rgb(0,0,0)" />
	<polygon points="123.687,321.551 122.891,322.145 120.962,323.307 120.001,323.757 117.867,324.499 117.678,324.542 119.268,325.632 120.001,326.244 121.545,327.798 122.149,328.532 123.394,330.371 123.859,331.221 124.751,333.3 125.052,334.251 125.535,336.527 125.646,337.633 125.626,339.871 125.52,340.86 125.083,342.967 124.786,343.917 124.782,343.926 126.329,342.839 127.034,342.423 129.015,341.46 129.659,341.2 131.837,340.488 132.455,340.328 134.743,339.886 135.376,339.804 135.953,339.766 135.196,339.522 134.209,339.083 131.901,337.748 131.058,337.138 129.152,335.437 128.486,334.716 126.989,332.745 126.495,331.953 125.416,329.809 125.079,328.955 124.426,326.734 124.244,325.802 124.025,323.6 124.017,322.672 124.145,321.136 " fill="none" stroke-width="0.5" stroke="rgb(0,0,0)" />
	<polygon points="300.165,341.879 300.212,341.967 300.327,341.862 " fill="none" stroke-width="0.5" stroke="rgb(0,0,0)" />
	<polygon points="219.292,340.412 219.313,340.4 220.174,339.619 220.27,339.471 220.232,339.327 219.667,338.674 " fill="none" stroke-width="0.5" stroke="rgb(0,0,0)" />
	<polygon points="355.862,333.336 356.205,332.539 355.733,332.412 355.614,332.371 355.326,332.245 " fill="none" stroke-width="0.5" stroke="rgb(0,0,0)" />
	<polygon points="203.949,321.263 204.148,323.51 204.745,325.669 205.697,327.625 206.985,329.363 208.596,330.859 209.618,331.508 208.362,330.335 207.468,329.229 205.627,326.154 204.981,324.423 204.283,320.478 204.219,319.212 204.226,319.105 " fill="none" stroke-width="0.5" stroke="rgb(0,0,0)" />
	<polygon points="365.064,329.655 363.641,330.508 363.529,330.573 363.461,330.612 365.66,330.914 366.319,331.055 366.279,330.905 365.867,329.184 " fill="none" stroke-width="0.5" stroke="rgb(0,0,0)" />
	<polygon points="74.5525,307.025 72.9775,311.398 72.0005,315.144 71.6686,318.218 71.7035,319.455 71.8457,320.803 72.1164,322.08 72.5562,323.357 73.2317,324.713 74.2332,326.208 75.379,327.548 75.433,327.35 76.1938,325.326 76.6221,324.451 77.7265,322.653 78.3214,321.866 79.7391,320.327 80.4742,319.67 82.1752,318.423 83.0122,317.925 84.9664,317.001 85.8598,316.677 88.0372,316.11 88.9869,315.957 91.4207,315.796 92.4574,315.833 94.7045,316.145 95.7115,316.391 97.7537,317.117 98.6519,317.539 100.471,318.621 101.221,319.164 102.799,320.543 103.396,321.161 104.715,322.779 104.799,322.901 105.224,322.776 105.543,322.693 104.854,322.269 103.961,321.573 102.606,320.25 101.944,319.458 100.933,317.962 100.488,317.156 99.7966,315.581 99.5231,314.786 99.126,313.222 98.9882,312.409 98.9462,311.925 97.3584,312.84 96.3225,313.292 93.808,314.071 92.7832,314.277 90.0956,314.533 89.1189,314.533 87.3608,314.362 86.4054,314.177 84.7017,313.672 83.7988,313.308 82.2047,312.48 81.3729,311.94 79.9439,310.799 79.2153,310.087 78.0067,308.643 77.4248,307.784 76.4917,306.047 76.0969,305.091 75.8019,304.101 " fill="none" stroke-width="0.5" stroke="rgb(0,0,0)" />
	<polygon points="370.585,298.919 369.782,299.325 366.381,300.682 365.951,300.832 361.882,302.047 361.597,302.123 357.257,303.151 357.025,303.2 352.813,303.993 352.569,304.032 348.885,304.542 348.518,304.58 345.76,304.76 344.965,304.75 344.372,304.696 343.514,304.525 343.603,304.981 343.681,306.369 343.579,307.614 343.402,308.595 343.088,309.701 342.618,310.824 342.074,311.782 341.273,312.843 340.484,313.645 339.494,314.428 338.442,315.066 337.61,315.458 339.962,316.538 340.708,316.959 345.567,320.272 346.241,320.82 350.258,324.706 350.833,325.367 351.933,326.876 351.972,326 352.19,325.014 352.499,324.067 353.074,322.756 353.25,322.395 354.062,320.879 354.148,320.726 355.08,319.123 355.103,319.084 355.129,319.04 355.051,319.021 352.959,318.524 352.742,318.468 350.894,317.943 350.175,317.678 348.867,317.083 346.796,315.356 346.3,314.644 345.386,311.625 345.849,309.604 346.053,309.16 347.706,307.148 348.279,306.736 349.23,306.195 350.114,305.811 350.618,305.623 351.756,305.266 352.05,305.184 353.384,304.852 353.566,304.81 355.04,304.5 355.155,304.477 356.71,304.187 356.779,304.175 358.212,303.928 361.324,303.202 364.547,302.114 367.752,300.675 370.686,298.957 371.313,298.467 " fill="none" stroke-width="0.5" stroke="rgb(0,0,0)" />
	<polygon points="128.206,294.101 128.315,294.505 129.701,300.613 129.807,301.294 130.333,307.265 130.329,308.201 130.099,310.583 130.023,310.982 131.201,310.368 131.68,310.209 133.775,309.972 133.955,309.989 135.255,310.289 135.405,310.345 136.882,311.203 137.003,311.304 138.068,312.526 138.163,312.678 138.669,313.754 138.739,313.963 138.928,314.707 138.975,314.98 139.035,315.454 139.063,315.796 139.077,316.094 139.082,316.32 139.11,316.615 139.135,316.701 139.188,316.811 139.254,316.899 139.316,316.956 139.396,317.003 139.567,317.058 139.954,317.096 140.302,317.065 140.531,316.999 140.66,316.931 140.738,316.868 140.796,316.796 140.851,316.69 140.891,316.554 139.917,311.992 136.936,305.806 132.336,298.097 126.927,289.226 126.815,289.032 126.333,288.158 " fill="none" stroke-width="0.5" stroke="rgb(0,0,0)" />
	<polygon points="400.71,302.65 401.3,304.497 402.316,306.533 403.71,308.63 405.405,310.673 407.306,312.563 409.306,314.211 411.438,315.64 412.43,316.248 413.508,316.844 413.464,316.769 411.659,313.557 409.506,310.063 407.037,306.79 404.351,304.199 401.608,302.611 400.686,302.437 " fill="none" stroke-width="0.5" stroke="rgb(0,0,0)" />
	<polygon points="438.516,309.442 438.377,309.591 437.389,310.414 437.201,310.534 436.324,310.981 436.086,311.074 435.413,311.287 435.125,311.356 434.634,311.449 434.297,311.496 433.945,311.532 433.56,311.559 433.308,311.57 432.874,311.578 432.627,311.577 431.858,311.555 431.651,311.544 430.804,311.485 430.689,311.476 429.786,311.392 429.739,311.387 428.804,311.292 427.884,311.199 427.025,311.124 426.993,311.122 426.963,312.775 426.958,312.941 426.867,314.743 426.819,315.233 426.721,315.892 428.174,315.11 429.111,314.719 431.268,314.064 432.255,313.868 434.559,313.643 435.239,313.622 437.28,313.696 437.678,313.726 438.417,313.811 438.353,312.506 438.363,311.854 438.559,309.395 438.562,309.375 " fill="none" stroke-width="0.5" stroke="rgb(0,0,0)" />
	<polygon points="311.931,302.595 311.245,303.147 306.655,306.231 305.726,306.725 302.438,308.056 304.201,307.877 304.931,307.856 307.744,307.975 308.184,308.012 310.823,308.354 311.29,308.437 313.693,308.979 314.222,309.129 316.327,309.849 316.964,310.116 317.157,310.213 316.224,309.029 315.584,307.975 314.711,306.043 314.311,304.676 313.995,302.501 313.978,301.168 314.049,300.564 " fill="none" stroke-width="0.5" stroke="rgb(0,0,0)" />
	<polygon points="435.021,288.94 434.765,289.77 434.265,290.893 433.593,292.016 433.368,292.359 432.417,293.691 432.349,293.783 431.279,295.212 430.284,296.578 430.248,296.634 430.3,296.669 432.074,297.673 433.998,298.712 434.117,298.778 435.822,299.758 436.301,300.071 437.486,300.941 438.925,302.576 439.333,303.311 439.683,305.113 440.516,303.231 440.781,302.758 439.8,302.183 438.731,300.271 436.768,293.775 435.04,288.764 " fill="none" stroke-width="0.5" stroke="rgb(0,0,0)" />
	<polygon points="108.167,291.993 108.156,292.328 107.879,296.534 107.771,297.296 106.979,300.896 106.871,301.237 108.168,301.335 108.451,301.493 110.417,303.452 110.624,303.819 110.682,303.613 110.834,302.532 110.888,301.148 110.568,296.472 109.717,292.016 108.462,287.543 108.167,286.641 " fill="none" stroke-width="0.5" stroke="rgb(0,0,0)" />
	<polygon points="458.457,286.875 457.202,287.456 455.906,288.529 454.499,290.228 453.021,292.515 451.75,294.767 452.079,294.697 454.787,294.421 456.114,294.46 459.303,294.974 460.756,295.439 462.534,296.32 462.363,294.966 462.389,294.842 462.392,294.822 462.401,294.728 462.412,294.568 462.42,294.347 462.425,294.072 462.427,293.747 462.427,293.502 462.352,291.962 462.134,290.476 461.773,289.082 461.308,287.937 460.831,287.173 460.478,286.82 460.288,286.719 459.953,286.665 " fill="none" stroke-width="0.5" stroke="rgb(0,0,0)" />
	<polygon points="337.548,293.85 338.693,295.418 338.802,295.091 339.139,294.343 339.3,294.017 339.665,293.34 338.873,293.285 337.165,293.251 " fill="none" stroke-width="0.5" stroke="rgb(0,0,0)" />
	<polygon points="89.3073,276.88 89.2395,277.022 86.3259,282.899 86.2826,282.984 83.9273,287.519 82.4044,290.458 83.2278,290.433 83.7437,290.591 85.4303,291.477 85.9518,291.891 86.4466,292.341 87.0115,292.926 87.5071,293.438 87.8137,293.705 87.956,293.794 88.0179,293.817 88.1545,293.832 89.1699,293.693 89.4429,293.546 89.7648,293.156 90.3026,291.847 90.8025,289.416 91.1311,285.968 91.2874,281.614 91.3244,276.404 91.3316,276.167 91.5564,271.968 " fill="none" stroke-width="0.5" stroke="rgb(0,0,0)" />
	<polygon points="375.015,287.701 375.832,289.761 375.532,293.832 375.762,293.401 376.068,291.674 375.806,289.528 375.052,287.596 374.361,286.581 " fill="none" stroke-width="0.5" stroke="rgb(0,0,0)" />
	<polygon points="54.1082,274.15 53.846,275.365 53.8333,276.731 54.1368,278.172 54.9563,279.924 55.2842,280.442 55.7562,281.17 55.7898,281.223 56.2349,281.928 56.3394,282.102 56.731,282.781 56.9003,283.1 57.226,283.771 57.4311,284.255 57.6788,284.936 57.8649,285.574 58.0225,286.284 58.1303,287.018 58.1855,287.775 58.1375,288.936 57.7963,291.112 57.5705,292.01 57.0458,293.506 58.8003,290.951 61.3088,286.334 62.119,282.806 62.0755,282.513 62.0031,282.239 61.9048,281.991 61.765,281.734 61.5569,281.439 61.2487,281.091 60.6472,280.534 60.6353,280.523 58.7133,278.733 58.4112,278.426 56.8972,276.756 56.7089,276.536 55.4861,275.023 55.4593,274.99 54.5163,273.802 54.3433,273.612 " fill="none" stroke-width="0.5" stroke="rgb(0,0,0)" />
	<polygon points="420.479,263.641 420.023,264.977 419.87,265.372 419.226,266.847 419.148,267.016 418.41,268.552 418.4,268.572 418.332,268.714 419.835,269.045 420.063,269.101 421.687,269.539 422.394,269.786 423.543,270.286 425.626,271.954 426.062,272.55 427.045,275.547 426.44,277.969 425.973,278.839 423.886,280.926 422.612,281.608 421.631,282.009 419.74,282.56 419.341,282.659 417.023,283.136 416.899,283.16 414.374,283.615 411.923,284.087 409.836,284.595 408.179,285.184 406.821,285.814 405.636,286.474 404.725,287.096 404.105,287.635 405.25,287.725 406.654,287.754 410.349,287.517 413.667,286.905 416.725,286.023 419.509,284.983 422.012,283.899 424.185,282.911 424.364,282.834 426.104,282.122 426.951,281.859 428.191,281.589 429.702,281.49 429.89,281.506 430.8,281.666 430.969,281.712 431.914,282.073 432.063,282.147 432.585,282.481 432.299,281.768 429.708,276.3 426.839,271.258 423.668,266.69 420.603,263.136 " fill="none" stroke-width="0.5" stroke="rgb(0,0,0)" />
	<polygon points="374.119,286.224 373.823,285.79 373.507,285.466 " fill="none" stroke-width="0.5" stroke="rgb(0,0,0)" />
	<polygon points="391.531,268.848 391.53,268.852 390.935,271.351 390.446,273.679 390.125,275.789 390.011,277.707 390.06,278.876 390.213,280.031 390.452,281.008 390.656,281.524 391.044,280.964 391.562,279.884 391.997,278.537 392.285,277.013 392.394,275.281 392.348,273.043 392.219,270.829 392.035,268.747 391.882,267.365 " fill="none" stroke-width="0.5" stroke="rgb(0,0,0)" />
	<polygon points="341.912,271.114 339.139,272.664 337.927,273.971 337.49,275.696 337.538,276.07 337.677,276.38 337.897,276.635 338.367,276.962 339.152,277.303 340.184,277.577 341.334,277.74 342.164,277.778 342.158,277.704 342.098,277.101 342.034,276.486 342.03,276.447 341.974,275.857 341.964,275.744 341.924,275.199 341.913,274.984 341.898,274.495 341.917,273.865 341.942,273.603 342.112,272.687 342.184,272.433 342.519,271.564 342.636,271.326 343.038,270.675 " fill="none" stroke-width="0.5" stroke="rgb(0,0,0)" />
	<polygon points="133.216,217.197 129.087,218.504 126.85,219.513 129.643,220.416 131.5,222.966 131.187,226.876 130.049,229.091 129.208,231.22 128.527,233.468 128.004,235.769 127.626,238.053 127.379,240.252 127.245,242.298 127.212,243.818 128.616,253.882 132.344,263.773 137.806,273.684 140.204,277.318 140.04,275.466 140.74,274.084 140.745,274.062 140.734,274.058 140.745,274.027 140.642,273.445 140.154,272.349 139.131,270.645 137.773,268.559 137.7,268.444 136.291,266.149 136.081,265.773 134.852,263.329 134.569,262.65 133.699,260.043 133.473,259.029 133.143,256.241 133.759,253.147 134.801,252.112 134.721,251.373 134.321,249.718 133.656,247.561 132.838,245.106 132.826,245.069 131.99,242.494 131.936,242.318 131.207,239.76 131.121,239.409 130.605,236.951 130.515,236.34 130.32,234.063 131.035,230.991 133.42,228.927 133.572,228.895 133.646,227.965 133.667,227.751 133.968,225.284 134.01,225.006 134.469,222.428 134.544,222.077 135.202,219.465 135.331,219.033 136.17,216.623 " fill="none" stroke-width="0.5" stroke="rgb(0,0,0)" />
	<polygon points="311.373,271.662 311.8,272.047 313.452,273.714 313.568,273.836 315.027,275.409 315.06,275.441 314.872,274.699 313.221,272.795 310.548,270.999 " fill="none" stroke-width="0.5" stroke="rgb(0,0,0)" />
	<polygon points="350.845,267.7 350.413,267.883 349.919,268.066 351.946,268.673 352.921,269.08 353.13,269.194 353.239,266.553 " fill="none" stroke-width="0.5" stroke="rgb(0,0,0)" />
	<polygon points="358.383,246.152 357.574,246.698 355.523,247.812 354.604,248.2 352.341,248.905 352.305,248.913 352.538,249.003 354.97,249.601 358.089,249.86 360.998,251.081 362.632,253.779 362.254,257.172 360.51,260.76 359.872,261.567 360.771,261.474 361.027,261.454 362.01,261.402 362.172,261.396 363.081,261.377 363.17,261.376 363.901,261.373 363.895,261.298 363.894,261.283 363.83,260.302 363.827,260.255 363.771,259.258 363.767,259.177 363.727,258.192 363.723,258.067 363.708,257.121 363.708,256.97 363.717,256.332 363.722,256.152 363.751,255.559 363.771,255.3 363.824,254.765 363.877,254.382 363.96,253.917 364.1,253.333 364.216,252.95 364.594,252.033 364.747,251.744 365.772,250.408 365.967,250.226 366.149,250.125 365.494,249.853 364.376,249.255 363.563,248.714 362.574,247.91 361.874,247.218 361.047,246.225 360.484,245.397 360.117,244.722 " fill="none" stroke-width="0.5" stroke="rgb(0,0,0)" />
	<polygon points="444.889,250.912 446.066,253.828 446.068,253.834 447.422,257.198 447.448,257.265 448.607,260.269 449.409,258.758 449.472,258.641 451.154,255.66 451.201,255.58 452.299,253.712 451.508,253.313 451.333,253.22 447.878,251.302 447.578,251.122 444.11,248.873 " fill="none" stroke-width="0.5" stroke="rgb(0,0,0)" />
	<polygon points="382.153,240.959 381.965,241.934 381.575,243.248 381.187,244.196 380.567,245.359 379.99,246.218 379.165,247.211 378.429,247.934 377.424,248.739 376.572,249.292 375.411,249.889 374.488,250.256 374.011,250.394 374.104,250.449 375.193,251.418 375.754,252.004 376.873,253.375 377.084,253.651 378.197,255.223 378.247,255.296 378.507,255.676 378.739,255.433 379.955,254.156 380.15,253.961 381.338,252.842 381.904,252.38 383.03,251.588 384.547,250.861 385.586,250.561 387.437,250.379 387.738,250.404 388.852,250.627 389.106,250.708 390.417,251.344 390.628,251.487 391.748,252.52 391.916,252.73 392.586,253.823 392.714,254.107 393.018,254.987 393.069,255.194 393.157,255.103 394.118,254.332 394.326,254.203 395.428,253.691 395.659,253.615 396.744,253.387 396.996,253.362 399.285,253.661 400.262,254.027 401.853,254.983 402.819,255.838 403.391,256.432 404.353,257.61 404.538,257.851 405.491,259.172 406.087,259.985 406.358,259.804 407.555,258.881 408.83,257.854 408.929,257.777 410.137,256.852 410.539,256.574 411.139,256.201 407.396,254.765 402.01,253.253 396.621,251.748 396.128,251.583 391.315,249.692 390.243,249.114 386.365,246.382 385.011,244.968 382.424,240.938 382.208,240.375 " fill="none" stroke-width="0.5" stroke="rgb(0,0,0)" />
	<polygon points="314.444,222.564 312.753,223.491 311.839,223.882 309.981,224.47 308.968,224.68 306.987,224.886 306.408,224.886 306.415,224.898 307.577,228.49 309.075,230.176 311.652,231.709 315.245,233.269 315.433,233.356 319.232,235.193 320.148,235.762 323.413,238.308 324.652,239.709 326.937,243.524 327.604,245.376 327.722,246.148 327.903,245.968 328.79,245.265 329.907,244.568 330.776,244.133 331.945,243.683 332.729,243.451 333.877,243.21 334.581,243.112 335.184,243.071 334.466,242.203 333.919,241.393 332.805,239.345 332.416,238.425 331.712,236.165 331.507,235.162 331.268,232.808 331.117,232.872 329.806,233.28 328.805,233.484 327.399,233.627 326.368,233.626 324.973,233.484 323.967,233.277 322.664,232.869 321.745,232.479 320.563,231.834 319.755,231.287 318.723,230.433 318.04,229.749 317.186,228.715 316.64,227.907 315.995,226.721 315.606,225.802 315.197,224.492 314.991,223.488 314.868,222.276 " fill="none" stroke-width="0.5" stroke="rgb(0,0,0)" />
	<polygon points="103.284,233.892 103.267,234.634 102.877,238.73 102.784,239.326 102.569,240.316 102.599,240.267 102.995,239.707 106.351,235.586 104.017,234.24 103.217,232.565 " fill="none" stroke-width="0.5" stroke="rgb(0,0,0)" />
	<polygon points="409.864,231.878 412.531,235.476 414.969,237.811 417.495,239.847 415.626,237.659 409.634,230.797 409.477,230.609 408.79,229.742 " fill="none" stroke-width="0.5" stroke="rgb(0,0,0)" />
	<polygon points="463.511,212.83 463.527,213.141 463.545,213.943 463.539,214.314 463.411,216.834 463.381,217.189 463.044,219.97 463.016,220.172 462.54,223.113 462.523,223.211 461.978,226.212 461.975,226.224 461.437,229.146 460.983,231.834 460.683,234.133 460.585,235.843 460.671,236.948 460.908,237.997 461.273,238.974 461.476,239.351 462.257,238.477 463.785,236.288 465.234,233.635 466.424,230.705 467.208,227.684 467.48,224.758 466.897,219.531 465.406,215.451 463.489,212.576 " fill="none" stroke-width="0.5" stroke="rgb(0,0,0)" />
	<polygon points="380.565,197.341 380.358,198.349 379.926,199.724 379.535,200.643 378.853,201.89 378.307,202.696 377.406,203.785 376.724,204.466 375.634,205.366 375.538,205.431 376.725,206.074 377.539,206.622 378.755,207.624 379.445,208.313 380.447,209.527 380.996,210.341 381.753,211.735 382.142,212.657 382.62,214.198 382.823,215.198 382.99,216.853 382.99,217.873 382.823,219.533 382.621,220.531 382.143,222.076 381.755,222.998 380.998,224.394 380.449,225.209 379.447,226.425 378.757,227.116 377.542,228.118 376.727,228.668 376.184,228.962 376.598,229.178 377.411,229.706 378.415,230.504 379.116,231.179 379.94,232.14 380.509,232.952 380.774,233.422 380.741,233.219 380.687,232.042 380.823,230.114 380.884,229.609 381.241,227.527 381.297,227.246 381.802,225.05 381.831,224.932 382.407,222.671 382.966,220.45 383.422,218.376 383.718,216.519 383.824,214.827 383.816,214.474 383.785,214.078 383.737,213.745 383.68,213.478 383.618,213.275 383.557,213.126 383.501,213.02 383.289,212.705 382.423,209.672 383.506,206.709 386.125,204.951 389.75,205.27 391.827,206.28 391.642,206.168 383.594,199.606 382.748,198.727 380.701,196.018 " fill="none" stroke-width="0.5" stroke="rgb(0,0,0)" />
	<polygon points="47.359,225.883 46.9077,226.074 44.3802,227.004 43.799,227.179 42.1622,227.568 42.208,227.577 42.6563,227.715 43.8012,228.228 44.1637,228.447 45.1935,229.27 45.4764,229.563 46.211,230.535 46.4204,230.894 46.8421,231.818 46.984,232.235 47.1215,232.774 47.1959,232.406 47.3066,231.962 49.039,226.14 49.4867,225.087 49.6632,224.774 " fill="none" stroke-width="0.5" stroke="rgb(0,0,0)" />
	<polygon points="85.699,211.089 84.051,212.882 83.486,213.258 83.0324,213.527 82.5608,213.774 82.9478,213.938 84.1093,214.622 84.6807,215.071 85.5233,215.908 85.9861,216.489 86.5245,217.32 86.8807,218.008 87.1978,218.764 87.4496,219.532 87.621,220.207 87.7706,221.029 87.8444,221.646 87.8938,222.494 87.8662,223.397 87.4086,227.215 87.2972,227.826 87.2733,227.923 87.6947,227.293 88.0903,226.775 88.8185,225.939 89.4358,225.341 90.1724,224.739 91.14,224.115 91.8768,223.751 93.293,223.293 94.022,223.171 95.5772,223.15 96.221,223.241 97.5899,223.634 98.2016,223.908 99.3391,224.607 99.9021,225.065 100.721,225.904 101.218,226.548 101.745,227.387 102.161,228.22 102.379,228.763 102.335,228.332 102.326,228.227 102.268,227.515 102.26,227.405 102.219,226.709 102.213,226.593 102.189,225.913 102.186,225.791 102.177,225.126 102.191,224.686 102.494,220.609 102.606,219.856 103.448,216.155 103.664,215.446 104.944,212.139 105.247,211.493 105.313,211.375 104.447,211.814 101.868,212.748 100.69,213.022 97.6918,213.352 96.5679,213.351 93.3787,212.995 92.2348,212.731 89.3706,211.712 88.3271,211.2 85.9656,209.685 " fill="none" stroke-width="0.5" stroke="rgb(0,0,0)" />
	<polygon points="63.3364,215.182 61.0961,217.038 62.2939,217.383 62.9382,217.679 64.2329,218.533 64.7498,219 65.6126,220.016 66.0124,220.635 66.4782,221.546 66.7712,222.297 66.9925,223.017 67.189,223.878 67.2829,224.425 67.3932,225.376 67.4243,225.791 67.4588,226.812 67.4545,227.255 67.4465,227.406 69.4071,222.579 69.7353,221.914 72.3999,217.38 74.0475,215.668 74.3466,215.477 73.9924,215.467 71.7623,215.282 70.8934,215.133 68.8217,214.591 67.9452,214.273 66.0747,213.395 65.2249,212.89 64.7354,212.531 " fill="none" stroke-width="0.5" stroke="rgb(0,0,0)" />
	<polygon points="450.643,205.883 448.774,206.556 445.93,207.739 445.837,207.777 442.248,209.187 441.969,209.288 437.659,210.698 437.265,210.81 432.144,212.041 431.682,212.13 425.659,213 425.17,213.047 418.156,213.377 417.27,213.341 410.585,212.488 413.898,212.986 414.472,213.106 419.93,214.583 420.828,214.919 425.272,217.08 426.299,217.742 429.992,220.806 430.786,221.631 433.989,225.817 434.322,226.331 434.516,225.648 436.261,221.588 436.75,220.704 439.272,217.05 439.757,216.451 442.742,213.283 443.193,212.858 446.324,210.255 446.771,209.922 449.732,207.964 450.271,207.653 452.747,206.42 453.511,206.135 452.666,205.893 451.44,205.749 " fill="none" stroke-width="0.5" stroke="rgb(0,0,0)" />
	<polygon points="184.075,211.17 184.93,211.959 186.903,214.246 187.596,215.283 188.804,217.684 189.2,218.754 189.807,221.209 189.944,222.087 189.947,222.133 191.112,219.974 193.956,218.61 197.298,219.318 197.697,219.562 196.701,217.673 196.087,215.455 195.386,214.119 194.456,213.047 193.171,212.11 191.389,211.287 189.029,210.635 186.08,210.214 182.565,210.068 " fill="none" stroke-width="0.5" stroke="rgb(0,0,0)" />
	<polygon points="337.556,212.021 335.741,212.997 335.482,213.105 335.757,213.379 336.614,214.414 337.162,215.223 337.81,216.41 338.2,217.331 338.487,218.247 339.223,217.75 341.272,216.636 341.638,216.481 341.608,216.456 340.923,215.771 340.067,214.735 339.52,213.925 338.873,212.737 338.484,211.818 338.376,211.472 " fill="none" stroke-width="0.5" stroke="rgb(0,0,0)" />
	<polygon points="396.065,208.497 399.697,211.482 400.59,212.432 402.178,214.626 402.739,213.474 405.524,211.994 406.615,211.98 404.505,211.711 403.131,211.335 395.063,207.855 " fill="none" stroke-width="0.5" stroke="rgb(0,0,0)" />
	<polygon points="57.0248,202.21 56.6645,202.532 54.8843,203.978 54.461,204.287 52.6741,205.456 52.1812,205.74 50.4026,206.638 49.8357,206.883 48.0803,207.516 47.4382,207.702 45.7209,208.077 45.0095,208.181 43.3452,208.305 42.4539,208.293 40.3627,208.082 39.2952,207.857 37.3707,207.229 37.1551,207.131 37.3591,207.276 38.701,207.959 40.0804,208.413 41.5981,208.682 43.3792,208.776 44.8463,208.737 46.4738,208.613 48.214,208.409 50.0773,208.126 52.0729,207.767 54.2093,207.337 56.4949,206.841 58.952,206.282 59.61,206.341 59.4041,205.872 58.7668,203.857 58.5541,202.82 58.3639,200.894 " fill="none" stroke-width="0.5" stroke="rgb(0,0,0)" />
	<polygon points="361.825,206.668 361.876,206.626 362.421,206.258 361.776,205.904 361.745,205.882 " fill="none" stroke-width="0.5" stroke="rgb(0,0,0)" />
	<polygon points="113.941,199.986 113.715,200.751 113.441,201.467 114.073,200.978 114.714,200.555 115.968,199.857 114.474,199.252 114.197,198.783 " fill="none" stroke-width="0.5" stroke="rgb(0,0,0)" />
	<polygon points="124.14,196.302 123.516,196.396 123.074,196.519 122.817,196.632 122.718,196.698 122.708,196.708 122.706,196.711 122.485,197.258 122.08,197.741 122.537,197.657 122.807,197.615 123.99,197.462 124.221,197.437 125.444,197.336 125.638,197.323 126.898,197.267 127.058,197.262 128.353,197.245 128.553,197.246 129.771,197.277 129.185,197.041 126.933,196.466 124.802,196.271 " fill="none" stroke-width="0.5" stroke="rgb(0,0,0)" />
	<polygon points="355.87,195.45 354.953,195.839 353.786,196.205 354.035,196.283 354.954,196.672 356.056,197.272 355.912,195.869 355.912,195.426 " fill="none" stroke-width="0.5" stroke="rgb(0,0,0)" />
	<polygon points="313.441,196.597 313.597,196.683 313.611,196.545 " fill="none" stroke-width="0.5" stroke="rgb(0,0,0)" />
	<polygon points="344.751,196.626 345.172,196.447 344.719,196.305 " fill="none" stroke-width="0.5" stroke="rgb(0,0,0)" />
	<polygon points="59.8586,190.156 59.5428,190.224 59.2278,190.281 60.4735,191.509 61.593,189.727 " fill="none" stroke-width="0.5" stroke="rgb(0,0,0)" />
	<polygon points="42.786,188.98 44.6046,189.549 46.1211,189.857 45.8137,189.788 45.5759,189.729 43.5945,189.185 43.5119,189.161 42.5785,188.888 " fill="none" stroke-width="0.5" stroke="rgb(0,0,0)" />
	<polygon points="178.525,183.461 178.816,184.117 179.854,186.977 179.861,187.159 180.111,187.083 180.647,186.951 184.499,186.226 185.116,186.148 186.62,186.052 183.831,185.636 182.354,185.179 178.422,183.268 " fill="none" stroke-width="0.5" stroke="rgb(0,0,0)" />
	<polygon points="367.659,165.34 367.109,166.152 366.297,167.134 365.609,167.821 364.625,168.631 363.813,169.178 362.684,169.79 361.764,170.177 361.508,170.256 362.292,171.203 362.838,172.008 363.878,173.907 364.269,174.825 364.927,176.918 365.135,177.927 365.365,180.166 365.365,181.209 365.144,183.354 365.298,183.305 366.31,183.095 367.765,182.945 368.808,182.944 370.281,183.095 371.286,183.301 372.662,183.732 373.312,184.008 371.9,181.12 371.614,180.402 368.848,171.554 368.696,170.935 367.682,165.297 " fill="none" stroke-width="0.5" stroke="rgb(0,0,0)" />
	<polygon points="163.569,163.408 163.29,163.649 159.702,166.536 159.3,166.828 155.514,169.31 154.987,169.612 150.913,171.635 150.285,171.896 145.837,173.407 145.161,173.586 140.249,174.531 139.59,174.614 139.026,174.648 141.689,176.503 142.298,177.001 145.692,180.247 146.099,180.684 148.495,183.583 148.514,183.416 149.12,179.561 149.301,178.799 150.26,175.803 150.842,174.576 152.233,172.438 153.658,170.989 155.561,169.708 157.55,168.91 160.045,168.483 161.885,168.505 163.613,168.844 164.871,169.266 166.831,170.223 167.303,170.504 166.455,168.88 166.208,168.331 164.405,163.585 164.26,163.144 164.176,162.842 " fill="none" stroke-width="0.5" stroke="rgb(0,0,0)" />
	<polygon points="109.102,158.4 108.456,159.588 107.91,160.396 107.055,161.432 106.371,162.116 105.336,162.972 104.528,163.519 103.342,164.166 102.423,164.556 101.114,164.965 100.109,165.172 98.7072,165.314 97.6755,165.315 96.2684,165.172 95.2656,164.967 93.9528,164.558 93.0342,164.169 91.8445,163.522 91.036,162.976 90.0068,162.128 89.8802,162.563 89.7311,163 88.4797,166.191 88.4168,166.332 88.9134,165.998 92.0854,166.118 95.4283,167.356 95.9932,167.605 99.3687,169.343 99.8991,169.659 103.16,171.874 103.683,172.281 106.682,174.947 107.203,175.485 109.792,178.578 110.29,179.288 112.322,182.782 112.653,183.506 112.744,182.916 112.915,182.181 113.635,179.877 114.022,178.961 115.065,177.042 115.78,176.037 117.167,174.52 118.215,173.644 119.966,172.542 121.147,171.996 118.418,170.435 117.51,169.772 114.617,167.128 113.907,166.328 111.685,163.217 111.192,162.362 109.625,158.913 109.325,158.058 109.296,157.943 " fill="none" stroke-width="0.5" stroke="rgb(0,0,0)" />
	<polygon points="77.9962,180.997 78.8462,181.6 79.0163,180.995 79.1579,180.566 79.524,179.601 " fill="none" stroke-width="0.5" stroke="rgb(0,0,0)" />
	<polygon points="343.447,162.281 342.602,162.983 338.495,165.706 337.631,166.166 334.204,167.589 334.637,168.021 335.449,169.003 335.998,169.815 336.416,170.583 337.274,169.546 337.955,168.866 339.614,167.495 340.418,166.951 342.318,165.913 343.235,165.523 345.327,164.867 346.335,164.659 347.252,164.565 347.06,164.211 346.67,163.29 346.283,162.045 346.079,161.043 345.944,159.707 345.944,159.702 " fill="none" stroke-width="0.5" stroke="rgb(0,0,0)" />
	<polygon points="423.583,139.352 421.844,142.176 420.901,143.304 418.16,145.756 417.282,146.387 413.666,148.444 412.939,148.785 408.577,150.424 407.977,150.609 402.998,151.807 402.484,151.904 397.017,152.639 396.555,152.68 390.726,152.931 389.958,152.906 381.69,152.009 380.611,151.772 375.85,150.168 376.119,150.342 377.082,150.933 378.309,151.559 379.962,152.2 382.157,152.785 384.997,153.219 388.617,153.392 390.572,153.334 392.646,153.171 394.855,152.93 397.228,152.643 397.259,152.639 399.792,152.349 399.898,152.338 402.607,152.085 402.77,152.073 405.701,151.894 405.903,151.886 409.1,151.818 409.666,151.837 416.999,152.497 417.987,152.685 424.406,154.583 425.348,154.966 431.034,157.978 431.783,158.463 436.915,162.465 437.427,162.923 441.539,167.133 439.586,164.417 439.216,163.82 435.709,157.177 435.317,156.202 433.471,149.764 433.582,146.612 434.332,145.653 433.795,145.546 431.828,145.029 431.072,144.765 429.393,144.027 428.488,143.514 427.128,142.546 426.175,141.666 425.165,140.46 424.395,139.212 423.996,138.289 " fill="none" stroke-width="0.5" stroke="rgb(0,0,0)" />
	<polygon points="348.272,116.866 348.225,117.337 347.76,120.495 347.675,120.938 347.258,122.682 349.363,124.475 350.111,125.648 350.412,126.189 351.073,127.569 351.247,127.977 351.817,129.494 351.928,129.821 352.403,131.402 352.479,131.683 352.856,133.257 352.912,133.525 353.186,135.019 353.23,135.309 353.398,136.652 353.43,137.025 353.487,138.145 353.471,138.884 352.844,145.485 352.628,146.545 351.843,149.021 352.646,148.585 353.567,148.197 354.816,147.81 355.815,147.607 357.156,147.472 358.178,147.472 359.517,147.607 360.517,147.81 361.765,148.197 362.685,148.585 363.815,149.198 364.628,149.746 365.612,150.557 366.301,151.246 367.112,152.229 367.146,152.278 367.56,151.433 367.611,151.35 368.459,150.316 368.516,150.262 369.826,149.372 369.888,149.342 371.375,148.901 371.44,148.892 372.75,149.062 372.314,148.863 365.945,145.131 365.166,144.569 359.829,139.9 359.212,139.257 354.965,133.974 354.483,133.258 351.379,127.682 351.012,126.857 349.109,121.309 348.872,120.284 348.324,115.882 " fill="none" stroke-width="0.5" stroke="rgb(0,0,0)" />
	<polygon points="86.5268,149.336 86.7254,149.474 86.7598,149.364 86.4881,149.308 " fill="none" stroke-width="0.5" stroke="rgb(0,0,0)" />
	<polygon points="131.372,132.842 130.679,133.085 129.933,133.422 129.215,133.811 128.598,134.203 128.167,134.521 127.77,134.872 124.878,136.131 121.964,135.485 123.662,137.19 124.426,138.813 124.805,139.946 125.284,142.239 125.323,142.451 125.726,144.899 126.194,146.851 126.624,147.774 126.641,147.791 126.989,147.871 127.248,147.751 127.707,147.445 128.252,146.949 128.853,146.214 129.477,145.184 130.109,143.74 130.437,142.741 130.767,141.596 131.05,140.458 131.283,139.337 131.465,138.244 131.595,137.19 131.672,136.189 131.697,135.258 131.656,133.921 131.543,132.901 131.522,132.807 " fill="none" stroke-width="0.5" stroke="rgb(0,0,0)" />
	<polygon points="101.014,135.602 101.157,137.005 101.157,138.037 101.014,139.442 100.808,140.446 100.507,141.412 101.114,141.537 102.422,141.946 103.341,142.335 104.527,142.982 105.335,143.528 106.37,144.383 107.053,145.066 107.908,146.101 108.133,146.434 108.183,145.956 108.229,145.62 108.533,143.86 108.622,143.448 109.08,141.683 109.261,141.12 109.891,139.494 110.22,138.83 107.512,139.454 105.583,138.886 102.946,137.497 100.988,135.475 " fill="none" stroke-width="0.5" stroke="rgb(0,0,0)" />
	<polygon points="314.732,122.54 313.074,122.988 311.612,123.669 310.347,124.541 309.294,125.55 308.48,126.628 307.925,127.686 307.476,129.105 305.64,131.67 305.156,131.831 305.618,132.196 306.874,133.03 308.053,133.66 309.184,134.118 310.308,134.431 311.481,134.619 312.798,134.685 313.209,134.673 313.761,134.63 314.387,134.561 315.062,134.474 315.751,134.381 315.792,134.376 316.447,134.293 316.582,134.278 317.171,134.219 317.453,134.199 317.959,134.177 318.474,134.18 319.038,134.212 319.687,134.291 320.195,134.386 320.942,134.586 321.389,134.743 322.227,135.124 322.605,135.34 323.483,135.972 323.788,136.245 324.592,137.16 324.817,137.489 325.401,138.623 325.54,139.005 325.819,140.195 325.867,140.628 325.871,141.707 325.792,142.481 325.649,143.265 325.459,143.982 326.717,143.882 329.628,143.161 331.91,142.148 329.3,141.29 327.796,139.545 327.303,138.605 326.804,137.821 326.198,137.023 325.483,136.231 324.657,135.461 323.715,134.727 322.65,134.043 321.253,133.316 320.835,133.1 320.181,132.698 319.818,132.435 319.213,131.92 318.912,131.621 318.393,131.017 318.152,130.686 317.742,130.026 317.558,129.671 317.263,128.985 317.134,128.612 316.951,127.93 316.875,127.544 316.789,126.883 316.764,126.49 316.781,125.64 316.859,124.897 317.036,123.995 317.26,123.226 317.522,122.526 317.556,122.451 317.149,122.394 316.692,122.369 " fill="none" stroke-width="0.5" stroke="rgb(0,0,0)" />
	<polygon points="58.0188,137.559 57.4778,138.562 57.5533,138.544 60.0485,138.061 60.3971,138.005 62.7997,137.71 63.0965,137.683 63.3855,137.664 62.1102,137.434 61.4475,137.268 57.5872,136.021 " fill="none" stroke-width="0.5" stroke="rgb(0,0,0)" />
	<polygon points="95.2568,109.263 93.2534,111.211 93.1681,111.292 90.9915,113.313 90.6555,113.598 88.3923,115.361 87.6582,115.838 85.32,117.085 83.9057,117.589 81.5044,118.062 79.9766,118.129 78.7798,118.001 78.3339,117.895 78.5551,119.197 78.6189,119.761 78.8077,123.076 78.8147,123.48 78.7829,124.906 78.7732,125.127 78.6822,126.515 78.6641,126.725 78.5199,128.071 78.4947,128.27 78.3035,129.571 78.2724,129.758 78.0404,131.01 78.0042,131.188 77.7377,132.387 77.6973,132.555 77.4024,133.697 77.3584,133.857 77.0413,134.938 75.2615,137.543 74.1754,137.878 74.5045,137.91 74.5307,137.912 75.5227,138.014 75.6306,138.026 76.5249,138.137 76.7477,138.169 77.0482,138.22 77.0296,138.037 77.0296,137.006 77.1721,135.603 77.3773,134.6 77.7858,133.29 78.1741,132.372 78.8199,131.184 79.3653,130.376 80.2199,129.339 80.9028,128.655 81.9375,127.798 82.7457,127.251 83.9318,126.603 84.8522,126.212 86.1611,125.803 87.1677,125.596 88.5708,125.453 89.6041,125.453 91.0092,125.596 92.0144,125.802 93.3253,126.212 94.2448,126.602 95.4327,127.249 96.2408,127.796 97.2771,128.653 97.9606,129.336 98.451,129.93 97.4003,125.268 97.3205,124.822 96.5268,118.888 96.5133,118.778 95.8614,112.937 95.3063,109.218 " fill="none" stroke-width="0.5" stroke="rgb(0,0,0)" />
	<polygon points="122.813,111.786 121.225,118.139 121.202,118.227 119.475,124.643 119.375,124.97 117.459,130.566 117.104,131.369 115.64,134.035 116.441,133.821 119.949,134.144 121.153,134.717 119.71,133.085 119.679,129.096 121.523,124.665 121.874,123.975 124.216,120.122 124.689,119.466 127.473,116.195 128.059,115.61 130.727,113.349 130.418,113.195 128.9,112.047 128.234,111.444 126.732,109.821 126.507,109.562 125.013,107.712 124.212,106.731 " fill="none" stroke-width="0.5" stroke="rgb(0,0,0)" />
	<polygon points="182.512,103.043 182.688,103.835 183.243,107.806 183.287,108.753 183.245,109.644 183.187,110.208 183.055,111.033 182.891,111.735 182.661,112.479 182.312,113.329 181.975,113.974 181.339,114.92 180.888,115.451 179.916,116.334 179.342,116.733 178.143,117.351 177.438,117.602 176.249,117.872 175.405,117.96 173.558,117.813 170.199,116.912 169.612,116.665 170.006,117.188 172.351,121.057 172.749,121.868 174.436,126.249 174.663,127.015 175.244,129.73 177.545,127.683 178.023,127.307 181.023,125.22 181.646,124.849 184.767,123.283 185.564,122.964 188.785,121.979 189.751,121.783 193.056,121.441 194.146,121.446 198.179,121.896 199.387,122.183 200.48,122.588 199.081,121.808 197.983,120.984 194.467,117.516 194.157,117.181 189.913,112.169 189.746,111.961 185.236,106.034 185.106,105.853 182.001,101.381 " fill="none" stroke-width="0.5" stroke="rgb(0,0,0)" />
	<polygon points="385.215,93.5076 384.455,94.2077 378.278,98.829 377.439,99.3388 370.491,102.691 369.614,103.018 362.115,105.06 361.223,105.219 353.392,105.909 352.562,105.914 347.268,105.516 346.548,105.41 345.699,105.222 346.861,106.509 347.203,107.063 347.707,108.149 347.936,108.847 348.114,109.561 348.253,110.357 348.311,110.806 348.382,111.656 348.397,111.926 348.419,112.625 348.662,111.854 348.767,111.599 349.169,110.817 349.304,110.603 349.784,109.96 349.943,109.779 350.394,109.325 350.571,109.168 350.909,108.893 351.097,108.752 351.276,108.626 351.469,108.494 352.692,107.884 353.873,107.481 354.999,107.235 356.84,107.047 357.107,107.027 359.508,106.908 362.318,106.721 365.465,106.338 368.951,105.63 372.759,104.467 376.983,102.661 377.421,102.439 377.711,102.303 378.298,102.05 378.595,101.933 379.178,101.724 379.482,101.625 380.059,101.458 380.368,101.379 380.937,101.252 381.25,101.193 381.809,101.104 382.125,101.065 382.671,101.013 382.99,100.993 383.522,100.976 384.453,101.032 386.418,101.332 388.134,101.92 389.551,102.712 390.794,103.685 391.838,104.803 392.368,105.476 393.214,106.759 393.251,106.817 393.872,107.787 393.98,107.912 394.018,107.918 394.691,107.855 395.898,107.57 397.383,107.084 399.045,106.458 400.764,105.793 400.895,105.744 402.545,105.156 402.91,105.041 404.43,104.626 405.182,104.479 406.529,104.322 408.82,104.578 410.862,105.299 412.612,106.35 414.755,108.316 415.427,109.066 417.556,111.983 417.887,112.498 419.888,116.07 420.095,116.482 421.851,120.414 422.009,120.812 423.406,124.809 423.546,125.279 424.462,129.023 424.503,128.939 425.006,128.116 425.744,127.129 426.457,126.357 427.466,125.469 428.373,124.832 428.382,124.827 427.861,124.538 426.867,123.856 426.062,123.171 425.155,122.219 424.52,121.401 423.729,120.135 423.318,119.326 422.814,118.064 422.624,117.493 422.252,116.106 422.187,115.832 421.881,114.376 421.879,114.364 421.599,113.016 421.328,111.971 421.08,111.309 420.928,111.054 420.409,110.528 418.994,107.708 419.509,104.596 421.755,102.382 425.302,102.003 426.271,102.251 427.112,102.412 427.992,102.533 428.899,102.618 429.823,102.672 430.753,102.7 431.682,102.711 432.397,102.713 434.794,102.523 437.13,102.026 439.611,101.262 442.199,100.322 444.445,99.4756 443.317,99.7748 442.706,99.8976 431.928,101.383 431.441,101.427 419.886,101.901 419.626,101.905 416.339,101.873 416.24,101.871 412.907,101.772 412.81,101.769 409.44,101.605 409.345,101.599 405.948,101.37 405.853,101.363 402.437,101.069 402.343,101.06 398.917,100.7 398.822,100.69 395.396,100.265 395.299,100.252 391.881,99.7625 391.811,99.752 391.337,99.6773 390.91,99.5913 390.524,99.4963 389.88,99.2916 389.577,99.1723 388.687,98.718 388.456,98.5701 387.447,97.7198 387.282,97.5391 386.477,96.3656 386.369,96.148 385.964,95.0115 385.905,94.7527 385.786,93.9191 385.768,93.615 386.043,92.5749 " fill="none" stroke-width="0.5" stroke="rgb(0,0,0)" />
	<polygon points="144.67,98.6581 144.119,101.651 143.542,104.878 143.453,105.283 142.799,107.757 144.627,107.341 145.385,107.228 149.515,106.926 150.461,106.944 155.337,107.497 156.53,107.78 157.316,108.07 155.218,106.309 155.183,106.28 150.737,102.479 146.808,99.3198 144.848,98.0277 " fill="none" stroke-width="0.5" stroke="rgb(0,0,0)" />
	<polygon points="326.149,98.4927 325.153,99.9321 327.589,100.431 328.237,100.609 330.977,101.56 331.533,101.791 333.778,102.881 334.196,103.109 335.993,104.199 336.22,104.346 337.018,104.89 337.34,104.722 337.528,104.629 338.122,104.348 338.622,104.144 339.192,103.946 339.982,103.756 337.013,102.706 336.559,102.52 332.911,100.82 332.617,100.671 329.509,98.9706 329.408,98.9137 326.943,97.4911 326.872,97.4545 " fill="none" stroke-width="0.5" stroke="rgb(0,0,0)" />
	<polygon points="69.7628,91.6994 64.6914,94.3685 59.4208,97.2763 62.7704,97.7391 64.2081,98.1598 67.5905,99.7196 68.787,100.49 71.0838,102.472 71.1466,101.726 71.1619,101.572 71.4131,99.3831 71.4224,99.3072 71.7104,97.0918 71.7114,97.0845 71.9952,94.9255 72.234,92.916 72.3933,91.1336 72.4162,90.5178 " fill="none" stroke-width="0.5" stroke="rgb(0,0,0)" />
	<polygon points="395.432,78.7545 395.003,79.7479 391.026,86.784 390.991,86.8335 392.364,86.1328 394.257,85.0504 395.862,83.8397 397.043,82.4943 397.809,80.8936 398.167,78.3756 398.13,77.3658 397.999,76.0665 397.805,74.765 397.571,73.4911 397.374,72.5168 " fill="none" stroke-width="0.5" stroke="rgb(0,0,0)" />
	<polygon points="110.986,75.1957 111.774,78.0262 111.941,78.9395 112.084,80.5424 112.302,79.8277 112.619,79.0353 113.752,76.7693 112.688,76.3827 111.263,75.5345 110.918,75.0958 " fill="none" stroke-width="0.5" stroke="rgb(0,0,0)" />
	<polygon points="172.046,77.0641 173.316,80.0596 173.692,79.3461 173.794,79.1868 174.374,78.4417 174.5,78.307 175.304,77.6132 175.453,77.5092 176.5,76.949 176.67,76.882 176.873,76.8304 173.488,75.7545 171.389,75.2043 " fill="none" stroke-width="0.5" stroke="rgb(0,0,0)" />
	<polygon points="125.429,60.2371 124.662,63.4231 123.926,66.9139 123.856,67.203 123.009,70.3101 122.611,71.3263 121.752,72.9738 123.263,73.5113 125.238,74.7907 126.62,76.2353 127.256,77.0525 128.012,78.2591 128.012,78.1149 128.012,78.0724 128.024,76.6902 128.027,76.5423 128.074,75.2919 128.091,75.0211 128.191,73.9186 128.254,73.4617 128.425,72.5234 128.621,71.7783 128.882,71.0203 129.443,69.88 129.813,69.3185 131.138,67.9511 131.634,67.6023 133.251,66.9204 131.702,64.9562 131.565,64.7745 129.826,62.3531 128.141,60.1223 126.678,58.5218 126.203,58.1753 " fill="none" stroke-width="0.5" stroke="rgb(0,0,0)" />
	<polygon points="106.565,57.5367 105.435,58.0784 103.858,59.1639 102.057,60.6313 100.192,62.2275 100.065,62.3327 98.2838,63.7606 97.7946,64.1075 96.1767,65.1175 94.803,65.7156 94.2228,65.8719 94.4095,66.1486 94.6886,66.6967 95.0457,67.6029 95.235,68.2621 95.3836,68.9606 95.4913,69.7271 95.537,70.2369 95.5711,71.1068 95.5645,71.6344 95.4373,73.6104 95.3901,74.0474 95.0547,76.2591 95.0133,76.4944 94.931,76.9064 96.4753,74.9371 97.0761,74.294 99.1653,72.4131 100.907,71.3846 102.965,70.6711 106.119,70.6103 107.688,71.4041 108.889,72.3009 108.308,70.4177 108.1,69.3405 107.835,66.1787 107.822,65.9653 107.677,62.4787 107.384,59.4208 106.896,57.6182 106.811,57.5038 106.787,57.4965 " fill="none" stroke-width="0.5" stroke="rgb(0,0,0)" />
	<polygon points="146.03,68.5806 145.341,69.3125 145.056,69.5608 144.22,70.1535 143.893,70.3383 143.779,70.3886 143.837,70.4313 147.263,73.2282 147.442,73.3812 148.659,74.4723 147.825,72.529 147.742,72.3231 146.227,68.325 " fill="none" stroke-width="0.5" stroke="rgb(0,0,0)" />
	<polygon points="399.087,59.3112 399.084,60.2619 398.734,63.8792 399.242,63.4108 399.454,63.2506 400.27,62.7477 400.507,62.6307 401.376,62.2963 401.63,62.2245 402.546,62.0538 402.809,62.0294 405.144,62.3599 406.253,62.7953 407.654,63.6236 409.032,64.7714 409.324,65.0339 410.961,66.6255 412.767,68.3205 414.669,69.8482 416.65,71.0508 418.693,71.8198 421.111,72.1248 421.54,72.1046 422.317,71.9867 423.058,71.77 423.645,71.4797 424.056,71.146 424.383,70.6929 424.691,69.8545 424.801,68.8165 424.179,66.7515 422.156,64.6624 418.303,62.3829 413.358,60.3345 408.138,58.6036 403.438,57.1596 403.199,57.0795 399.836,55.8611 398.716,55.2116 " fill="none" stroke-width="0.5" stroke="rgb(0,0,0)" />
	<polygon points="84.4963,60.2646 84.1046,60.7499 81.216,63.9118 83.6549,63.0355 84.5618,62.801 85.8791,62.587 85.6723,62.193 85.5618,61.8924 85.2782,60.6804 85.2391,60.3183 85.3361,59.0829 " fill="none" stroke-width="0.5" stroke="rgb(0,0,0)" />
	<polygon points="54.1523,62.74 55.2704,61.2536 53.3023,61.1192 " fill="none" stroke-width="0.5" stroke="rgb(0,0,0)" />
	<polygon points="161.403,42.4194 161.769,44.9658 161.721,45.384 161.406,46.6634 161.272,47.0057 160.581,48.2392 160.374,48.5119 159.447,49.4502 159.179,49.6595 158.677,49.9698 160.167,50.3649 160.501,50.4659 163.88,51.6144 164.02,51.6642 167.551,52.9808 167.555,52.9822 171.012,54.2741 173.88,55.2565 170.882,51.9046 167.075,48.0649 163.174,44.1888 163.046,44.0572 161.314,42.2066 " fill="none" stroke-width="0.5" stroke="rgb(0,0,0)" />
	<polygon points="142.561,48.8436 142.984,50.3492 143.702,52.2391 144.609,54.3402 144.874,54.9386 145.01,54.5373 145.422,53.6254 145.818,52.9384 146.537,51.9748 147.064,51.4193 148.082,50.5917 148.748,50.1799 148.977,50.0751 147.469,49.6611 145.88,49.2377 144.422,48.8996 143.177,48.6901 142.538,48.6472 " fill="none" stroke-width="0.5" stroke="rgb(0,0,0)" />
	<polygon points="92.1339,46.5837 90.3812,46.8417 88.5143,47.1531 86.636,47.4705 87.6051,48.9784 88.1098,52.847 89.199,51.3759 89.3091,51.2325 91.0286,49.0745 92.6632,46.9843 93.009,46.4891 " fill="none" stroke-width="0.5" stroke="rgb(0,0,0)" />
	<polygon points="445.802,36.1506 445.214,37.9748 445.17,38.1047 444.511,39.9756 443.896,41.8249 443.405,43.6354 443.08,45.455 442.961,47.3543 443.007,48.0675 443.12,48.5943 443.248,48.9083 443.343,49.049 443.416,49.1171 443.584,49.2107 444.021,49.3373 444.705,49.3957 445.163,49.3313 445.169,49.3283 445.261,49.2366 445.542,48.7515 445.882,47.7639 446.162,46.3391 446.332,44.59 446.387,42.6198 446.354,40.9961 446.265,39.4406 446.136,37.9616 445.985,36.552 445.898,35.8064 " fill="none" stroke-width="0.5" stroke="rgb(0,0,0)" />
	<polygon points="186,37.7466 186.134,38.106 186.426,37.4254 186.427,37.425 " fill="none" stroke-width="0.5" stroke="rgb(0,0,0)" />
</svg>
