<?xml version="1.0" standalone="no" ?>
<!DOCTYPE svg PUBLIC "-//W3C//DTD SVG 1.1//EN" "http://www.w3.org/Graphics/SVG/1.1/DTD/svg11.dtd">
<svg width="500px" height="500px" xmlns="http://www.w3.org/2000/svg" version="1.1" >
	<polygon points="480.823,81.9252 480.135,83.0633 474.82,89.5352 473.007,91.2402 470.054,93.3747 470.716,93.5754 472.811,94.4274 474.571,95.3644 476.295,96.5234 477.891,97.8679 479.26,99.2994 480.498,100.899 480.823,101.425 480.823,192.381 479.647,193.742 478.068,194.816 476.623,195.376 479.774,198.873 480.823,200.28 480.823,248.433 480.416,249.126 479.936,249.865 478.409,251.995 478.727,252.067 479.986,252.515 480.823,252.944 480.823,281.286 479.971,296.463 479.941,296.652 477.858,299.229 477.074,300.088 474.938,302.163 475.052,302.342 476.968,306.009 477.538,307.332 478.026,308.744 477.405,312.666 473.11,329.62 467.07,347.047 459.27,364.67 454.479,373.448 451.279,373.758 451.26,373.751 451.705,378.531 449.695,382.213 438.331,399.399 425.161,415.952 410.17,431.593 400.141,440.209 398.667,439.747 397.966,439.415 397.959,439.56 397.438,442.53 393.345,446.047 374.668,459.037 354.126,470.285 331.702,479.516 320.843,482.613 320.117,482.326 317.453,480.949 315.793,479.861 315.747,479.824 315.473,482.166 315.075,483.639 314.71,484.362 307.382,486.452 281.151,490.817 264.308,491.724 263.674,491.206 263.412,490.953 262.968,491.162 261.299,491.886 252.993,492.333 225.548,490.902 199.887,486.773 176.224,480.252 174.206,478.835 171.46,477.29 169.97,476.861 167.2,476.586 166.894,476.57 153.907,471.407 133.585,460.665 127.042,456.271 126.089,454.795 125.911,453.302 125.786,453.301 122.009,452.892 115.039,448.212 98.2672,434.295 83.2685,419.161 70.0408,403.057 68.6229,400.975 68.5873,399.379 68.6242,398.917 66.4966,397.853 58.5824,386.23 48.8916,368.927 40.9666,351.394 34.8057,333.879 33.336,328.115 35.8764,319.933 36.4287,318.543 37.9661,315.403 37.0832,315.385 35.1141,314.766 31.1671,312.372 29.4691,310.674 27.7694,299.888 26.8905,283.906 26.8905,233.175 27.4615,231.863 28.4942,230.086 27.3257,229.412 26.8905,229.072 26.8905,159.658 27.6659,157.497 28.2876,156.115 30.7141,151.682 31.7559,150.148 32.6129,149.114 31.8317,148.801 29.5455,147.614 27.9416,146.569 26.8905,145.726 26.8905,109.177 27.4819,108.671 27.6061,108.58 26.8905,108.018 26.8905,39.6209 30.2332,37.173 30.7048,36.8486 32.3039,35.8167 29.8971,35.0584 28.4348,34.463 26.8905,33.6821 26.8905,19.5757 38.3822,19.4875 49.8739,19.3993 61.3656,19.3111 72.8572,19.223 84.3489,19.1348 95.8406,19.0466 107.332,18.9584 118.211,18.875 118.845,19.6348 119.543,18.8647 130.316,18.7821 141.807,18.6939 153.299,18.6057 158.415,18.5665 158.515,18.8677 159.046,18.5616 164.791,18.5175 176.282,18.4294 187.774,18.3412 210.757,18.1648 210.732,31.0636 210.706,43.9624 210.681,56.8612 210.656,69.76 210.63,82.6588 210.621,87.0913 209.751,87.4551 208.166,87.963 207.163,88.1917 206.81,88.244 209.805,90.7365 210.133,91.0222 210.613,91.4596 210.579,108.456 210.554,121.355 210.503,147.153 210.478,160.052 210.452,172.95 210.439,179.531 209.682,180.674 207.901,182.916 206.678,184.196 204.854,185.784 206.402,186.845 207.9,188.113 209.873,190.158 210.417,190.86 210.401,198.748 210.376,211.647 210.358,220.62 209.861,221.423 209.054,222.235 210.353,223.436 210.35,224.546 210.438,235.84 210.602,246.657 210.899,256.963 211.32,265.44 209.725,267.37 208.304,269.259 208.969,269.931 211.101,271.726 211.269,271.871 211.831,272.367 212.112,275.909 213.138,284.482 214.519,292.41 216.308,299.661 218.563,306.2 221.336,311.994 224.685,317.011 228.665,321.215 233.33,324.575 238.737,327.056 244.939,328.626 251.538,329.21 251.567,329.258 252.78,331.769 252.918,331.512 253.929,329.983 254.675,329.059 259.171,328.749 265.518,327.271 271.013,324.853 275.719,321.532 279.698,317.343 283.01,312.324 285.72,306.511 287.888,299.942 289.576,292.653 290.848,284.68 291.763,276.06 292.386,266.831 292.398,266.543 293.623,265.582 293.77,265.493 292.766,264.631 292.487,264.308 292.778,257.028 293,246.688 293.115,235.848 293.185,224.546 293.159,211.647 293.133,198.748 293.127,195.509 293.254,195.382 294.732,194.156 295.179,193.851 295.121,193.766 294.474,192.579 293.733,190.83 293.323,189.521 293.113,188.496 293.107,185.849 293.1,182.013 293.324,180.922 293.733,179.614 294.475,177.866 295.123,176.68 295.71,175.812 294.347,174.928 293.083,173.755 293.082,172.95 293.056,160.052 293.004,134.254 292.978,121.355 292.962,113.497 293.019,113.276 293.588,111.673 294.902,108.796 295.661,107.48 294.528,107.323 294.377,107.29 292.949,106.75 292.901,82.6588 292.875,69.76 292.797,31.0636 292.771,18.1648 304.525,18.0893 316.278,18.0137 328.031,17.9382 339.784,17.8626 351.538,17.787 363.291,17.7115 375.044,17.6359 381.199,17.5963 381.537,17.7947 385.618,20.7909 386.301,19.3732 386.927,18.6452 388.365,17.5503 410.304,17.4092 422.057,17.3337 433.81,17.2581 444.53,17.1892 445.248,17.8453 445.788,17.1811 457.317,17.107 469.07,17.0314 480.823,16.9559 " fill="none" stroke-width="0.5" stroke="rgb(0,0,0)" />
	<polygon points="194.865,445.252 196.163,445.461 197.526,445.602 198.568,445.643 199.959,445.567 201.196,445.349 201.921,445.112 201.56,445.111 195.342,444.622 194.674,444.512 " fill="none" stroke-width="0.5" stroke="rgb(0,0,0)" />
	<polygon points="317.808,422.178 318.097,423.135 318.428,424.587 318.505,424.962 318.622,425.591 318.748,425.681 319.357,426.157 320.223,426.893 320.92,427.586 321.25,427.29 321.959,426.699 322.654,426.169 323.354,425.684 324.352,425.079 324.523,424.989 324.367,424.435 324.004,421.809 324.004,420.135 " fill="none" stroke-width="0.5" stroke="rgb(0,0,0)" />
	<polygon points="168.303,413.362 168.31,414.776 168.132,417.38 168.447,417.352 168.599,416.557 168.695,416.238 169.602,414.149 169.669,414.034 168.574,413.461 168.298,413.3 " fill="none" stroke-width="0.5" stroke="rgb(0,0,0)" />
	<polygon points="82.7364,369.595 82.795,369.982 83.0309,369.804 82.8356,369.603 82.8243,369.589 " fill="none" stroke-width="0.5" stroke="rgb(0,0,0)" />
	<polygon points="157.411,340.643 158.022,341.078 158.025,341.081 158.125,340.092 " fill="none" stroke-width="0.5" stroke="rgb(0,0,0)" />
	<polygon points="76.5374,315.976 76.4092,317.163 77.7542,315.961 78.4226,315.471 77.0739,314.394 76.9752,314.297 " fill="none" stroke-width="0.5" stroke="rgb(0,0,0)" />
	<polygon points="163.038,255.409 163.098,255.751 163.987,254.068 162.712,253.792 " fill="none" stroke-width="0.5" stroke="rgb(0,0,0)" />
	<polygon points="91.5688,217.33 91.8206,218.098 92.0289,218.919 92.5315,218.757 93.2604,218.634 96.2184,218.595 96.8622,218.686 98.0905,219.039 98.1209,218.836 98.3315,217.909 98.195,217.924 96.0574,217.923 92.8682,217.567 91.5393,217.26 " fill="none" stroke-width="0.5" stroke="rgb(0,0,0)" />
	<polygon points="433.218,216.514 432.34,216.682 432.243,216.696 432.929,217.266 433.281,217.632 434.219,216.273 " fill="none" stroke-width="0.5" stroke="rgb(0,0,0)" />
	<polygon points="108.268,166.517 106.731,167.557 105.765,168.084 106.74,168.844 109.738,171.51 110.731,172.533 111.779,173.785 112.385,172.935 113.189,172.054 111.514,170.524 110.164,169.001 108.344,166.453 " fill="none" stroke-width="0.5" stroke="rgb(0,0,0)" />
	<polygon points="423.968,146.732 421.51,148.93 425.71,150.171 427.501,150.901 429.282,151.845 429.049,151.032 428.936,148.851 427.542,148.239 425.822,147.262 424.462,146.295 424.389,146.228 " fill="none" stroke-width="0.5" stroke="rgb(0,0,0)" />
	<polygon points="312.378,129.099 312.188,129.463 312.005,130.039 312.777,130.078 312.477,128.968 " fill="none" stroke-width="0.5" stroke="rgb(0,0,0)" />
	<polygon points="91.219,118.99 89.8228,119.897 87.9576,120.892 88.1044,120.877 90.0699,120.876 91.4749,121.019 92.1905,121.166 91.9674,119.498 91.9417,119.288 91.8533,118.496 " fill="none" stroke-width="0.5" stroke="rgb(0,0,0)" />
	<polygon points="186.391,115.454 186.055,116.1 184.844,117.899 184.394,118.429 184.257,118.553 187.44,117.58 188.317,117.402 186.481,115.235 " fill="none" stroke-width="0.5" stroke="rgb(0,0,0)" />
	<polygon points="103.184,65.7218 102.942,65.9219 102.59,66.2043 103.225,66.1366 103.207,65.7017 " fill="none" stroke-width="0.5" stroke="rgb(0,0,0)" />
	<polygon points="399.34,38.1392 399.687,38.972 399.855,38.9014 400.896,38.5418 399.315,38.0921 " fill="none" stroke-width="0.5" stroke="rgb(0,0,0)" />
</svg>
