<?xml version="1.0" standalone="no" ?>
<!DOCTYPE svg PUBLIC "-//W3C//DTD SVG 1.1//EN" "http://www.w3.org/Graphics/SVG/1.1/DTD/svg11.dtd">
<svg width="500px" height="500px" xmlns="http://www.w3.org/2000/svg" version="1.1" >
	<polygon points="480.823,80.4904 479.556,82.5873 474.241,89.0592 472.567,90.6324 468.342,93.6869 468.862,93.7939 470.433,94.2702 472.529,95.1222 474.153,95.9867 475.876,97.1457 477.349,98.3862 478.718,99.8177 479.86,101.294 480.823,102.85 480.823,191.272 479.225,193.122 477.646,194.196 475.335,195.067 479.217,199.375 480.206,200.702 480.823,201.713 480.823,246.953 479.77,248.746 479.326,249.428 477.144,252.472 478.475,252.773 479.734,253.222 480.823,253.779 480.823,281.286 480.036,295.315 479.852,295.569 477.275,298.758 476.551,299.55 473.98,302.049 474.388,302.689 476.303,306.357 476.829,307.577 477.777,310.319 477.405,312.666 473.11,329.62 467.07,347.047 459.27,364.67 454.887,372.701 451.044,372.965 450.408,372.691 450.966,378.688 450.924,379.962 449.695,382.213 438.331,399.399 425.161,415.952 410.17,431.593 400.805,439.639 398.988,439.069 397.495,438.363 397.279,438.233 397.221,439.431 396.542,443.3 393.345,446.047 374.668,459.037 354.126,470.285 331.702,479.516 322.021,482.277 320.461,481.659 317.798,480.283 316.265,479.279 314.986,478.24 315.041,478.942 315.054,479.357 314.749,481.971 314.351,483.443 313.75,484.636 307.382,486.452 281.151,490.817 265.421,491.664 264.148,490.625 263.549,490.046 263.172,490.238 262.67,490.474 259.146,492.002 252.993,492.333 225.548,490.902 199.887,486.773 178.371,480.843 174.607,478.199 171.752,476.594 170.112,476.121 167.257,475.839 164.698,475.697 153.907,471.407 133.585,460.665 128.592,457.312 126.739,454.382 126.574,452.562 125.867,452.556 120.669,451.992 115.039,448.212 98.2672,434.295 83.2685,419.161 70.0408,403.057 69.501,402.265 69.3756,401.261 69.3349,399.439 69.416,398.423 68.929,398.448 65.7369,396.737 58.5824,386.23 48.8916,368.927 40.9666,351.394 34.8057,333.879 33.6901,329.503 36.5927,320.155 37.1023,318.872 39.1421,314.707 37.3083,314.67 35.3392,314.05 31.6974,311.842 29.8789,310.023 29.2309,309.162 27.7694,299.888 26.8905,283.906 26.8905,235.055 28.1492,232.163 29.1879,230.375 29.5778,229.853 27.7881,228.822 26.8905,228.119 26.8905,161.88 28.3718,157.75 28.9455,156.475 31.372,152.042 32.3333,150.626 33.8483,148.799 33.7913,148.783 32.1772,148.135 29.8909,146.949 28.4111,145.984 26.8905,144.764 26.8905,110.161 27.9242,109.277 28.8435,108.606 27.3027,107.394 26.9077,107.004 26.8905,106.982 26.8905,89.39 27.7784,88.048 26.8905,87.7512 26.8905,40.5505 30.6764,37.7781 31.1115,37.4788 34.0582,35.5773 33.8731,35.5247 30.1225,34.3431 28.7732,33.7937 26.8905,32.8417 26.8905,19.5757 38.3822,19.4875 49.8739,19.3993 61.3656,19.3111 72.8572,19.223 84.3489,19.1348 95.8406,19.0466 107.332,18.9584 117.234,18.8825 117.413,19.0893 118.557,20.4597 118.789,20.6768 118.806,20.6792 118.839,20.6745 119.215,20.3439 120.446,18.9854 120.567,18.8569 130.316,18.7821 141.807,18.6939 153.299,18.6057 157.639,18.5724 158.114,20.0532 158.756,19.5901 160.333,18.6811 160.626,18.5495 164.791,18.5175 176.282,18.4294 187.774,18.3412 210.757,18.1648 210.732,31.0636 210.706,43.9624 210.681,56.8612 210.678,58.3254 210.196,58.509 210.677,59.0607 210.656,69.76 210.63,82.6588 210.623,86.2437 210.332,86.3993 209.462,86.7631 207.999,87.2318 206.996,87.4605 205.635,87.6624 204.992,87.7076 205.03,87.7376 209.325,91.3129 209.628,91.5765 210.611,92.4725 210.579,108.456 210.554,121.355 210.503,147.153 210.478,160.052 210.452,172.95 210.442,178.012 209.947,178.921 209.095,180.207 207.314,182.449 206.185,183.63 204.044,185.496 203.584,185.823 205.978,187.464 207.36,188.633 209.333,190.679 210.414,192.074 210.401,198.748 210.376,211.647 210.361,219.155 210.265,219.328 210.049,219.696 209.223,221.028 207.976,222.259 209.86,224.002 210.35,224.505 210.35,224.546 210.438,235.84 210.602,246.657 210.899,256.963 211.265,264.329 209.136,266.905 207.659,268.87 207.38,269.391 208.46,270.482 210.618,272.3 210.772,272.434 211.916,273.443 212.112,275.909 213.138,284.482 214.519,292.41 216.308,299.661 218.563,306.2 221.336,311.994 224.685,317.011 228.665,321.215 233.33,324.575 238.737,327.056 244.939,328.626 250.613,329.128 250.892,329.584 252.401,332.709 252.703,333.508 253.579,331.865 254.513,330.454 255.695,328.989 259.171,328.749 265.518,327.271 271.013,324.853 275.719,321.532 279.698,317.343 283.01,312.324 285.72,306.511 287.888,299.942 289.576,292.653 290.848,284.68 291.763,276.06 292.339,267.537 292.345,267.531 294.012,266.223 295.024,265.608 295.044,265.599 293.254,264.062 292.53,263.222 292.778,257.028 293,246.688 293.115,235.848 293.185,224.546 293.159,211.647 293.133,198.748 293.129,196.564 293.733,195.959 295.211,194.733 296.215,194.049 295.78,193.407 295.133,192.22 294.448,190.606 294.039,189.297 293.677,187.533 293.534,186.129 293.534,184.314 293.677,182.912 294.04,181.146 294.449,179.838 295.134,178.225 295.781,177.039 296.74,175.623 296.752,175.608 294.857,174.378 293.444,173.067 293.081,172.645 293.056,160.052 293.004,134.254 292.99,127.49 293.162,127.326 293.039,126.817 292.989,126.584 292.978,121.355 292.968,116.489 292.977,116.44 293.746,113.464 294.27,111.985 295.584,109.107 296.435,107.633 297.033,106.793 296.946,106.806 296.71,106.805 296.213,106.787 296.022,106.775 294.687,106.59 294.536,106.557 292.947,105.956 292.901,82.6588 292.875,69.76 292.797,31.0636 292.771,18.1648 304.525,18.0893 306.524,18.0764 307.472,18.5927 307.475,18.5795 307.614,18.0694 316.278,18.0137 328.031,17.9382 339.784,17.8626 351.538,17.787 363.291,17.7115 375.044,17.6359 379.744,17.6057 381.093,18.3993 385.846,21.8888 386.869,19.8622 387.496,19.1342 389.587,17.5424 410.304,17.4092 422.057,17.3337 433.81,17.2581 443.326,17.1969 443.781,17.5207 445.367,18.9709 445.648,18.5423 446.761,17.1749 457.317,17.107 469.07,17.0314 480.823,16.9559 " fill="none" stroke-width="0.5" stroke="rgb(0,0,0)" />
	<polygon points="306.699,468.491 307.329,468.673 308.361,469.117 308.163,468.632 307.687,467.037 " fill="none" stroke-width="0.5" stroke="rgb(0,0,0)" />
	<polygon points="193.906,444.536 194.256,445.894 194.599,445.969 196.064,446.205 197.473,446.351 198.574,446.394 200.045,446.313 201.379,446.079 202.496,445.713 203.333,445.269 203.932,444.777 204.326,444.266 202.987,444.366 201.619,444.363 195.4,443.874 193.886,443.623 193.568,443.542 " fill="none" stroke-width="0.5" stroke="rgb(0,0,0)" />
	<polygon points="316.967,421.665 316.847,421.691 317.003,422.102 317.366,423.301 317.696,424.754 317.768,425.099 317.94,426.023 318.309,426.289 318.871,426.729 319.738,427.464 320.739,428.46 320.893,428.64 321.278,428.27 321.731,427.866 322.439,427.274 323.081,426.786 323.781,426.301 324.702,425.742 325.392,425.378 325.409,425.371 325.089,424.232 324.754,421.809 324.754,419.098 " fill="none" stroke-width="0.5" stroke="rgb(0,0,0)" />
	<polygon points="167.555,413.421 167.561,414.725 167.324,418.198 169.051,418.16 169.318,416.773 169.414,416.453 170.25,414.527 170.408,414.256 170.779,413.769 168.922,412.796 168.222,412.388 167.435,411.88 " fill="none" stroke-width="0.5" stroke="rgb(0,0,0)" />
	<polygon points="259.652,405.894 262.004,407.068 262.585,407.386 262.636,407.416 260.017,404.998 " fill="none" stroke-width="0.5" stroke="rgb(0,0,0)" />
	<polygon points="350.974,396.733 351.336,396.712 351.144,396.449 " fill="none" stroke-width="0.5" stroke="rgb(0,0,0)" />
	<polygon points="204.8,391.066 205.16,391.868 206.107,390.875 205.532,390.869 204.64,390.77 " fill="none" stroke-width="0.5" stroke="rgb(0,0,0)" />
	<polygon points="244.774,374.479 245.047,374.708 244.961,374.228 " fill="none" stroke-width="0.5" stroke="rgb(0,0,0)" />
	<polygon points="82.9227,368.831 81.8467,368.908 81.7984,368.908 81.9206,369.217 82.2471,371.373 82.5543,371.1 83.7153,370.224 84.1884,369.924 83.4204,369.133 83.1535,368.801 " fill="none" stroke-width="0.5" stroke="rgb(0,0,0)" />
	<polygon points="390.728,345.567 389.892,345.815 389.432,345.852 389.816,346.939 389.818,346.949 392.138,345.005 392.64,344.694 " fill="none" stroke-width="0.5" stroke="rgb(0,0,0)" />
	<polygon points="394.812,343.309 394.343,343.646 395.014,343.352 394.916,343.226 " fill="none" stroke-width="0.5" stroke="rgb(0,0,0)" />
	<polygon points="60.1755,341.501 61.0769,342.951 61.4736,341.747 61.8619,340.887 61.0432,340.65 60.0262,340.276 " fill="none" stroke-width="0.5" stroke="rgb(0,0,0)" />
	<polygon points="157.972,339.268 156.48,340.419 156.088,340.661 156.474,340.895 157.543,341.656 158.653,342.575 158.656,342.499 158.697,341.888 158.876,340.124 158.975,339.422 159.221,338.074 " fill="none" stroke-width="0.5" stroke="rgb(0,0,0)" />
	<polygon points="415.581,336.923 415.637,337.556 415.697,338.684 415.706,339.418 415.702,339.556 416.69,339.64 416.023,338.34 415.446,335.84 " fill="none" stroke-width="0.5" stroke="rgb(0,0,0)" />
	<polygon points="165.664,327.541 166.797,327.017 166.089,325.946 " fill="none" stroke-width="0.5" stroke="rgb(0,0,0)" />
	<polygon points="75.7977,315.841 75.5244,318.371 75.5477,319.195 76.9077,317.719 78.1976,316.566 79.7299,315.442 78.9708,314.949 77.5418,313.808 76.5744,312.862 " fill="none" stroke-width="0.5" stroke="rgb(0,0,0)" />
	<polygon points="161.176,300.181 160.205,300.309 160.329,300.526 161.437,302.74 161.812,300.421 161.901,300.009 " fill="none" stroke-width="0.5" stroke="rgb(0,0,0)" />
	<polygon points="161.768,253.051 161.938,253.746 162.303,255.557 162.379,255.989 162.671,257.917 162.704,258.158 162.744,258.487 163.054,257.408 164.762,254.172 165.244,253.589 162.551,252.925 161.461,251.978 " fill="none" stroke-width="0.5" stroke="rgb(0,0,0)" />
	<polygon points="327.787,237.457 327.713,237.457 327.955,237.731 328.397,238.468 328.073,237.428 " fill="none" stroke-width="0.5" stroke="rgb(0,0,0)" />
	<polygon points="90.2997,216.238 90.8561,217.564 91.108,218.332 91.4088,219.518 91.4744,219.878 92.6556,219.496 93.3846,219.374 96.1139,219.338 96.7576,219.428 98.7044,219.988 98.8522,219.002 99.2963,217.049 98.1129,217.179 96.1407,217.177 92.9514,216.821 90.944,216.358 90.2306,216.105 " fill="none" stroke-width="0.5" stroke="rgb(0,0,0)" />
	<polygon points="433.043,215.784 432.232,215.94 430.465,216.195 432.45,217.843 433.405,218.836 433.581,218.517 435.95,215.086 " fill="none" stroke-width="0.5" stroke="rgb(0,0,0)" />
	<polygon points="107.79,165.939 106.372,166.899 105.186,167.546 104.235,167.949 105.323,168.689 106.241,169.404 109.24,172.07 110.156,173.014 111.823,175.006 112.938,173.441 114.248,172.007 112.02,169.97 110.775,168.565 108.552,165.454 108.495,165.355 " fill="none" stroke-width="0.5" stroke="rgb(0,0,0)" />
	<polygon points="423.468,146.173 420.726,148.625 419.884,149.231 425.497,150.89 427.15,151.564 430.489,153.333 429.77,150.825 429.665,148.339 429.523,148.29 427.844,147.552 426.256,146.651 424.896,145.683 424.322,145.152 " fill="none" stroke-width="0.5" stroke="rgb(0,0,0)" />
	<polygon points="356.886,143.642 358.259,143.642 357.294,142.798 356.996,142.487 " fill="none" stroke-width="0.5" stroke="rgb(0,0,0)" />
	<polygon points="312.787,127.535 312.181,128.116 311.743,128.696 311.493,129.173 311.146,130.267 310.939,130.61 311.132,130.664 311.883,130.784 312.837,130.832 313.002,130.828 313.402,130.796 313.842,130.748 313.624,130.242 313.495,129.869 313.173,128.672 313.097,128.286 312.982,127.4 " fill="none" stroke-width="0.5" stroke="rgb(0,0,0)" />
	<polygon points="185.726,115.108 185.39,115.753 184.273,117.413 183.822,117.944 182.115,119.494 181.542,119.893 179.438,120.976 178.733,121.228 176.797,121.668 177.344,123.089 178.824,122.06 179.919,121.409 183.039,119.842 184.438,119.282 187.66,118.297 189.355,117.954 189.733,117.915 186.975,114.656 186.682,114.292 186.279,113.762 " fill="none" stroke-width="0.5" stroke="rgb(0,0,0)" />
	<polygon points="90.7581,118.399 89.4698,119.235 87.1317,120.482 84.6497,121.366 82.5896,121.772 82.6514,122.858 82.6536,122.983 83.702,122.538 85.011,122.128 86.7774,121.766 88.1804,121.623 89.9939,121.623 91.399,121.766 93.0733,122.109 92.7108,119.399 92.687,119.205 92.45,117.081 " fill="none" stroke-width="0.5" stroke="rgb(0,0,0)" />
	<polygon points="415.294,65.4118 416.883,66.6884 418.341,67.5737 419.625,68.0568 420.147,68.1227 419.75,67.7125 416.577,65.8353 415.087,65.218 " fill="none" stroke-width="0.5" stroke="rgb(0,0,0)" />
	<polygon points="102.696,65.1521 102.473,65.3367 100.692,66.7646 99.8334,67.3734 99.0734,67.8478 99.1183,68.0587 99.6462,67.747 101.704,67.0335 104.025,66.8082 103.999,66.4994 103.975,66.1249 103.892,64.1277 " fill="none" stroke-width="0.5" stroke="rgb(0,0,0)" />
	<polygon points="398.683,38.4997 399.288,39.9525 400.099,39.6103 403.071,38.5838 403.194,38.5462 401.815,38.0236 397.944,36.9224 397.798,36.886 " fill="none" stroke-width="0.5" stroke="rgb(0,0,0)" />
</svg>
