<?xml version="1.0" standalone="no" ?>
<!DOCTYPE svg PUBLIC "-//W3C//DTD SVG 1.1//EN" "http://www.w3.org/Graphics/SVG/1.1/DTD/svg11.dtd">
<svg width="500px" height="500px" xmlns="http://www.w3.org/2000/svg" version="1.1" >
	<polygon points="467.323,280.907 466.531,295.025 464.168,309.947 460.165,325.744 454.498,342.096 447.151,358.694 438.119,375.244 427.397,391.458 414.984,407.06 400.877,421.779 385.071,435.358 367.552,447.542 348.296,458.086 327.267,466.743 304.413,473.261 279.675,477.377 252.981,478.814 226.976,477.458 202.761,473.561 180.307,467.374 159.571,459.131 140.521,449.061 123.133,437.385 107.393,424.325 93.3005,410.105 80.8578,394.957 70.0728,379.119 60.954,362.837 53.5083,346.365 47.7394,329.964 43.6445,313.903 41.2115,298.463 40.3905,283.535 40.3905,32.9725 49.9775,32.8989 61.4692,32.8107 61.4692,32.8107 72.9608,32.7226 84.4525,32.6344 95.9442,32.5462 107.436,32.458 118.928,32.3699 130.419,32.2817 141.911,32.1935 153.403,32.1053 164.894,32.0172 187.878,31.8408 197.23,31.769 197.206,43.9358 197.181,56.8346 197.156,69.7334 197.156,69.7334 197.13,82.6322 197.079,108.43 197.079,108.43 197.054,121.329 197.003,147.126 196.952,172.924 196.952,172.924 196.927,185.823 196.901,198.721 196.876,211.62 196.876,211.62 196.85,224.519 196.851,224.65 196.938,235.944 196.939,236.045 197.104,246.862 197.108,247.046 197.405,257.352 197.416,257.633 197.9,267.395 197.926,267.792 198.654,276.976 198.708,277.514 199.734,286.087 199.839,286.798 201.219,294.726 201.412,295.646 203.202,302.896 203.545,304.06 205.8,310.599 206.386,312.029 209.16,317.824 210.109,319.49 213.458,324.507 214.881,326.29 218.86,330.495 220.776,332.17 225.441,335.53 227.699,336.844 233.105,339.326 235.425,340.144 241.628,341.713 243.749,342.073 250.804,342.697 251.947,329.779 252.839,342.718 260.1,342.217 262.232,341.898 268.579,340.42 270.955,339.628 276.451,337.21 278.799,335.882 283.505,332.561 285.508,330.829 289.486,326.64 290.964,324.78 294.277,319.761 295.246,318.027 297.956,312.215 298.54,310.742 300.708,304.173 301.039,302.989 302.728,295.699 302.908,294.778 304.179,286.805 304.272,286.106 305.188,277.487 305.233,276.969 305.856,267.739 305.875,267.369 306.267,257.566 306.275,257.318 306.497,246.978 306.499,246.831 306.614,235.992 306.615,235.932 306.685,224.629 306.685,224.518 306.659,211.62 306.633,198.721 306.582,172.923 306.582,172.923 306.556,160.025 306.504,134.227 306.504,134.227 306.478,121.328 306.401,82.6318 306.401,82.6317 306.375,69.7329 306.298,31.5782 316.365,31.5134 328.118,31.4379 339.871,31.3623 351.624,31.2868 363.378,31.2112 375.131,31.1356 386.884,31.0601 410.391,30.909 422.144,30.8334 433.897,30.7578 457.404,30.6067 467.323,30.5429 " fill="none" stroke-width="0.5" stroke="rgb(0,0,0)" />
</svg>
