<?xml version="1.0" standalone="no" ?>
<!DOCTYPE svg PUBLIC "-//W3C//DTD SVG 1.1//EN" "http://www.w3.org/Graphics/SVG/1.1/DTD/svg11.dtd">
<svg width="500px" height="500px" xmlns="http://www.w3.org/2000/svg" version="1.1" >
	<polygon points="480.823,80.3948 479.517,82.5556 474.202,89.0275 472.538,90.5918 468.22,93.713 468.852,93.8429 470.415,94.3165 472.51,95.1685 474.125,96.0282 475.848,97.1872 477.313,98.4208 478.682,99.8523 479.818,101.32 480.823,102.945 480.823,191.198 479.197,193.081 477.618,194.155 475.249,195.046 479.18,199.409 480.164,200.728 480.823,201.809 480.823,246.854 479.727,248.721 479.286,249.399 477.06,252.503 478.459,252.821 479.718,253.269 480.823,253.835 480.823,281.286 480.041,295.223 479.813,295.538 477.236,298.726 476.517,299.514 473.916,302.041 474.343,302.712 476.259,306.38 476.782,307.594 477.76,310.424 477.405,312.666 473.11,329.62 467.07,347.047 459.27,364.67 454.913,372.653 451.029,372.911 450.35,372.617 450.916,378.693 450.871,380.059 449.695,382.213 438.331,399.399 425.161,415.952 410.17,431.593 400.849,439.601 399.009,439.023 397.516,438.318 397.234,438.147 397.171,439.422 396.482,443.352 393.345,446.047 374.668,459.037 354.126,470.285 331.702,479.516 322.1,482.255 320.484,481.615 317.821,480.238 316.297,479.24 314.926,478.127 314.991,478.944 315.004,479.359 314.7,481.958 314.303,483.43 313.686,484.654 307.382,486.452 281.151,490.817 265.495,491.66 264.18,490.586 263.558,489.985 263.15,490.193 262.65,490.428 259.002,492.01 252.993,492.333 225.548,490.902 199.887,486.773 178.514,480.883 174.633,478.157 171.771,476.547 170.122,476.072 167.261,475.789 164.552,475.638 153.907,471.407 133.585,460.665 128.693,457.38 126.782,454.355 126.619,452.513 125.872,452.506 120.579,451.932 115.039,448.212 98.2672,434.295 83.2685,419.161 70.0408,403.057 69.5627,402.355 69.4252,401.255 69.3848,399.443 69.4708,398.365 68.9032,398.393 65.683,396.658 58.5824,386.23 48.8916,368.927 40.9666,351.394 34.8057,333.879 33.7137,329.596 36.6404,320.17 37.1472,318.894 39.2205,314.661 37.3233,314.622 35.3542,314.002 31.7327,311.806 29.9142,309.988 29.2145,309.058 27.7694,299.888 26.8905,283.906 26.8905,235.18 28.1951,232.183 29.2279,230.405 29.6513,229.838 27.8189,228.782 26.8905,228.056 26.8905,162.028 28.4189,157.767 28.9893,156.499 31.4158,152.066 32.3718,150.658 33.9354,148.773 33.8054,148.735 32.2002,148.091 29.914,146.904 28.4424,145.945 26.8905,144.7 26.8905,110.23 26.9143,110.206 27.9537,109.317 28.9279,108.606 28.9103,108.595 27.3379,107.358 26.9428,106.968 26.8905,106.902 26.8905,89.4806 27.8556,88.0219 26.8905,87.6992 26.8905,40.6125 30.7059,37.8184 31.1386,37.5208 34.1781,35.5594 33.8881,35.477 30.1375,34.2954 28.7958,33.749 26.8905,32.7856 26.8905,19.5757 38.3822,19.4875 49.8739,19.3993 61.3656,19.3111 72.8572,19.223 84.3489,19.1348 95.8406,19.0466 107.332,18.9584 117.169,18.883 117.375,19.1213 118.52,20.4941 118.767,20.7241 118.806,20.7297 118.861,20.7218 119.25,20.3796 120.483,19.019 120.636,18.8563 130.316,18.7821 141.807,18.6939 153.299,18.6057 157.587,18.5728 158.087,20.1342 158.785,19.6307 160.353,18.7267 160.751,18.5485 164.791,18.5175 176.282,18.4294 187.774,18.3412 210.757,18.1648 210.732,31.0636 210.706,43.9624 210.681,56.8612 210.678,58.2728 210.111,58.4885 210.677,59.1366 210.656,69.76 210.63,82.6588 210.623,86.1872 210.313,86.3532 209.443,86.717 207.988,87.183 206.985,87.4118 205.631,87.6125 204.862,87.6667 204.998,87.7761 209.293,91.3513 209.594,91.6135 210.611,92.54 210.579,108.456 210.554,121.355 210.503,147.153 210.478,160.052 210.452,172.95 210.442,177.907 209.903,178.897 209.056,180.176 207.274,182.418 206.152,183.592 204.011,185.458 203.492,185.828 203.551,185.861 205.95,187.505 207.324,188.668 209.297,190.713 210.414,192.155 210.401,198.748 210.376,211.647 210.361,219.051 210.221,219.304 210.006,219.669 209.181,221.001 207.904,222.26 209.826,224.039 210.351,224.577 210.438,235.84 210.602,246.657 210.899,256.963 211.261,264.255 209.096,266.874 207.616,268.843 207.319,269.4 208.426,270.519 210.585,272.338 210.739,272.471 211.922,273.514 212.112,275.909 213.138,284.482 214.519,292.41 216.308,299.661 218.563,306.2 221.336,311.994 224.685,317.011 228.665,321.215 233.33,324.575 238.737,327.056 244.939,328.626 250.551,329.122 250.847,329.606 252.356,332.73 252.696,333.628 253.624,331.888 254.552,330.486 255.763,328.984 259.171,328.749 265.518,327.271 271.013,324.853 275.719,321.532 279.698,317.343 283.01,312.324 285.72,306.511 287.888,299.942 289.576,292.653 290.848,284.68 291.763,276.06 292.333,267.612 292.38,267.566 294.038,266.266 295.05,265.651 295.136,265.611 293.287,264.024 292.533,263.15 292.778,257.028 293,246.688 293.115,235.848 293.185,224.546 293.182,223.297 293.238,223.189 293.182,223.133 293.159,211.647 293.133,198.748 293.129,196.634 293.764,195.998 295.243,194.771 296.284,194.062 295.824,193.383 295.176,192.196 294.496,190.592 294.086,189.282 293.727,187.527 293.584,186.124 293.584,184.319 293.727,182.917 294.087,181.161 294.497,179.853 295.178,178.249 295.825,177.063 296.778,175.655 296.826,175.597 294.891,174.342 293.478,173.03 293.081,172.569 293.056,160.052 293.004,134.254 292.991,127.559 293.217,127.343 293.088,126.806 293.001,126.405 292.988,126.338 292.978,121.355 292.969,116.782 293.025,116.452 293.794,113.476 294.315,112.005 295.629,109.128 296.476,107.662 297.142,106.727 296.947,106.756 296.71,106.755 296.216,106.737 296.025,106.725 294.698,106.541 294.547,106.508 292.947,105.904 292.901,82.6588 292.875,69.76 292.797,31.0636 292.771,18.1648 304.525,18.0893 306.421,18.0771 307.507,18.6687 307.524,18.59 307.666,18.0691 316.278,18.0137 328.031,17.9382 339.784,17.8626 351.538,17.787 363.291,17.7115 375.044,17.6359 379.647,17.6063 381.063,18.4396 385.861,21.9613 386.907,19.8948 387.533,19.1668 389.668,17.5419 410.304,17.4092 422.057,17.3337 433.81,17.2581 443.241,17.1975 443.747,17.5576 445.377,19.0473 445.686,18.5738 446.825,17.1744 457.317,17.107 469.07,17.0314 480.823,16.9559 " fill="none" stroke-width="0.5" stroke="rgb(0,0,0)" />
	<polygon points="306.617,468.523 306.646,468.528 307.315,468.721 308.453,469.211 308.211,468.618 307.705,466.922 " fill="none" stroke-width="0.5" stroke="rgb(0,0,0)" />
	<polygon points="193.858,444.549 194.215,445.936 194.589,446.018 196.058,446.254 197.469,446.401 198.574,446.444 200.051,446.363 201.391,446.127 202.516,445.759 203.361,445.311 203.968,444.812 204.434,444.208 202.983,444.316 201.623,444.314 195.404,443.825 193.898,443.575 193.491,443.471 " fill="none" stroke-width="0.5" stroke="rgb(0,0,0)" />
	<polygon points="316.952,421.617 316.779,421.654 316.956,422.12 317.317,423.312 317.648,424.765 317.719,425.108 317.895,426.052 318.28,426.33 318.839,426.767 319.705,427.503 320.701,428.492 320.889,428.712 321.313,428.307 321.763,427.904 322.471,427.313 323.109,426.827 323.81,426.342 324.725,425.786 325.415,425.422 325.469,425.399 325.137,424.219 324.804,421.809 324.804,419.029 " fill="none" stroke-width="0.5" stroke="rgb(0,0,0)" />
	<polygon points="167.505,413.424 167.511,414.722 167.257,418.437 169.019,418.612 169.023,418.567 169.366,416.787 169.462,416.468 170.293,414.552 170.451,414.281 170.854,413.752 168.945,412.752 168.249,412.346 167.378,411.783 " fill="none" stroke-width="0.5" stroke="rgb(0,0,0)" />
	<polygon points="259.588,405.918 261.981,407.113 262.56,407.428 263.021,407.703 259.998,404.913 " fill="none" stroke-width="0.5" stroke="rgb(0,0,0)" />
	<polygon points="350.882,396.788 351.431,396.757 351.139,396.359 " fill="none" stroke-width="0.5" stroke="rgb(0,0,0)" />
	<polygon points="204.756,391.09 205.144,391.955 206.222,390.826 205.538,390.819 204.55,390.71 " fill="none" stroke-width="0.5" stroke="rgb(0,0,0)" />
	<polygon points="244.706,374.487 245.12,374.834 244.99,374.105 " fill="none" stroke-width="0.5" stroke="rgb(0,0,0)" />
	<polygon points="82.9161,368.782 81.8461,368.858 81.7265,368.859 81.8712,369.225 82.2115,371.472 82.5875,371.137 83.7421,370.266 84.2669,369.933 83.4594,369.102 83.1748,368.747 " fill="none" stroke-width="0.5" stroke="rgb(0,0,0)" />
	<polygon points="118.385,360.533 118.471,360.525 118.413,360.44 " fill="none" stroke-width="0.5" stroke="rgb(0,0,0)" />
	<polygon points="394.781,343.27 393.998,343.833 392.977,344.485 390.713,345.519 389.878,345.767 389.364,345.809 389.769,346.956 389.788,347.04 392.17,345.044 394.305,343.718 395.092,343.372 394.925,343.155 " fill="none" stroke-width="0.5" stroke="rgb(0,0,0)" />
	<polygon points="60.1272,341.518 61.0907,343.067 61.5192,341.767 61.9312,340.855 61.0604,340.603 59.9666,340.201 " fill="none" stroke-width="0.5" stroke="rgb(0,0,0)" />
	<polygon points="157.937,339.232 156.454,340.377 155.992,340.661 156.448,340.938 157.512,341.694 158.7,342.678 158.706,342.501 158.746,341.893 158.926,340.129 159.024,339.431 159.298,337.931 " fill="none" stroke-width="0.5" stroke="rgb(0,0,0)" />
	<polygon points="415.223,334.704 415.325,335.325 415.373,335.66 415.531,336.929 415.587,337.558 415.647,338.687 415.656,339.416 415.651,339.602 416.774,339.697 416.072,338.329 415.234,334.703 " fill="none" stroke-width="0.5" stroke="rgb(0,0,0)" />
	<polygon points="165.589,327.63 166.87,327.037 166.07,325.825 " fill="none" stroke-width="0.5" stroke="rgb(0,0,0)" />
	<polygon points="75.7484,315.832 75.4744,318.369 75.4979,319.202 75.5097,319.314 75.5267,319.291 76.9445,317.753 78.2272,316.606 79.8177,315.44 79.002,314.91 77.573,313.769 76.5477,312.767 " fill="none" stroke-width="0.5" stroke="rgb(0,0,0)" />
	<polygon points="161.17,300.131 160.124,300.27 160.284,300.548 161.462,302.901 161.861,300.429 161.966,299.943 " fill="none" stroke-width="0.5" stroke="rgb(0,0,0)" />
	<polygon points="161.72,253.065 161.889,253.756 162.254,255.567 162.33,255.996 162.621,257.925 162.654,258.164 162.725,258.736 163.102,257.422 164.8,254.204 165.333,253.561 162.553,252.87 161.367,251.832 " fill="none" stroke-width="0.5" stroke="rgb(0,0,0)" />
	<polygon points="327.782,237.407 327.604,237.407 327.912,237.756 328.569,238.853 328.108,237.374 " fill="none" stroke-width="0.5" stroke="rgb(0,0,0)" />
	<polygon points="90.2553,216.261 90.8086,217.58 91.0605,218.348 91.3596,219.527 91.4354,219.943 92.6639,219.546 93.3929,219.423 96.1069,219.387 96.7507,219.478 98.7454,220.051 98.901,219.013 99.3606,216.991 98.1075,217.129 96.1462,217.128 92.957,216.771 90.9608,216.311 90.1279,216.015 " fill="none" stroke-width="0.5" stroke="rgb(0,0,0)" />
	<polygon points="433.031,215.736 432.225,215.891 430.346,216.162 432.418,217.881 433.416,218.919 433.622,218.545 436.066,215.007 " fill="none" stroke-width="0.5" stroke="rgb(0,0,0)" />
	<polygon points="107.758,165.9 106.348,166.855 105.162,167.502 104.131,167.939 105.295,168.73 106.208,169.441 109.207,172.108 110.117,173.046 111.826,175.087 112.975,173.474 114.319,172.004 112.053,169.933 110.815,168.536 108.593,165.425 108.509,165.279 " fill="none" stroke-width="0.5" stroke="rgb(0,0,0)" />
	<polygon points="423.434,146.136 420.693,148.588 419.772,149.25 425.483,150.938 427.126,151.608 430.569,153.432 429.818,150.811 429.713,148.304 429.543,148.244 427.864,147.506 426.285,146.61 424.925,145.643 424.317,145.08 " fill="none" stroke-width="0.5" stroke="rgb(0,0,0)" />
	<polygon points="356.831,143.691 358.392,143.692 357.327,142.76 356.956,142.374 " fill="none" stroke-width="0.5" stroke="rgb(0,0,0)" />
	<polygon points="312.755,127.496 312.144,128.083 311.701,128.669 311.446,129.154 311.099,130.252 310.863,130.641 311.121,130.713 311.878,130.834 312.837,130.883 313.005,130.877 313.406,130.846 313.914,130.79 313.672,130.226 313.542,129.852 313.222,128.663 313.146,128.276 313.021,127.313 " fill="none" stroke-width="0.5" stroke="rgb(0,0,0)" />
	<polygon points="185.682,115.085 185.345,115.73 184.235,117.381 183.784,117.911 182.087,119.453 181.513,119.852 179.421,120.929 178.717,121.181 176.73,121.632 177.321,123.166 178.853,122.101 179.942,121.453 183.062,119.887 184.453,119.33 187.674,118.345 189.36,118.003 189.833,117.955 187.013,114.624 186.722,114.262 186.266,113.663 " fill="none" stroke-width="0.5" stroke="rgb(0,0,0)" />
	<polygon points="90.7274,118.359 89.4463,119.191 87.1082,120.438 84.6401,121.317 82.5372,121.731 82.6015,122.86 82.6049,123.058 83.717,122.586 85.0259,122.176 86.7824,121.816 88.1855,121.673 89.9889,121.672 91.3939,121.815 93.1322,122.172 92.7604,119.392 92.7367,119.199 92.4897,116.986 " fill="none" stroke-width="0.5" stroke="rgb(0,0,0)" />
	<polygon points="415.261,65.4496 416.854,66.7294 418.319,67.6189 419.613,68.1057 420.282,68.1901 419.781,67.6729 416.6,65.7905 414.853,65.0669 " fill="none" stroke-width="0.5" stroke="rgb(0,0,0)" />
	<polygon points="102.663,65.1141 102.442,65.2976 100.66,66.7256 99.8069,67.3309 99.0173,67.8239 99.0837,68.136 99.6625,67.7942 101.721,67.0808 104.079,66.8534 104.049,66.4953 104.025,66.1228 103.938,64.0227 " fill="none" stroke-width="0.5" stroke="rgb(0,0,0)" />
	<polygon points="398.639,38.5237 399.261,40.0179 400.116,39.6576 403.088,38.631 403.348,38.5511 401.831,37.9761 397.957,36.874 397.7,36.8097 " fill="none" stroke-width="0.5" stroke="rgb(0,0,0)" />
</svg>
