<?xml version="1.0" standalone="no" ?>
<!DOCTYPE svg PUBLIC "-//W3C//DTD SVG 1.1//EN" "http://www.w3.org/Graphics/SVG/1.1/DTD/svg11.dtd">
<svg width="500px" height="500px" xmlns="http://www.w3.org/2000/svg" version="1.1" >
	<polygon points="469.973,280.982 469.169,295.307 466.766,310.481 462.706,326.505 456.965,343.068 449.53,359.867 440.392,376.612 429.543,393.017 416.982,408.805 402.701,423.706 386.695,437.456 368.949,449.798 349.441,460.481 328.138,469.25 304.996,475.85 279.965,480.015 252.983,481.468 226.696,480.097 202.197,476.155 179.463,469.89 158.459,461.541 139.16,451.339 121.544,439.51 105.602,426.282 91.3313,411.883 78.7345,396.547 67.8173,380.515 58.5862,364.033 51.0464,347.352 45.2006,330.732 41.0461,314.438 38.5728,298.742 37.7405,283.608 37.7405,30.3427 38.4655,30.3372 49.9571,30.249 61.4488,30.1608 72.9405,30.0726 84.4322,29.9845 95.9239,29.8963 107.416,29.8081 118.907,29.7199 130.399,29.6318 130.399,29.6318 141.891,29.5436 153.382,29.4554 164.874,29.3672 187.857,29.1909 187.857,29.1909 199.886,29.0986 199.882,31.0422 199.882,31.0423 199.856,43.941 199.831,56.8398 199.806,69.7386 199.806,69.7386 199.78,82.6374 199.729,108.435 199.729,108.435 199.704,121.334 199.653,147.131 199.653,147.131 199.628,160.03 199.602,172.929 199.602,172.929 199.577,185.828 199.551,198.727 199.526,211.625 199.5,224.524 199.501,224.629 199.588,235.924 199.589,236.005 199.753,246.822 199.757,246.97 200.053,257.276 200.062,257.501 200.547,267.263 200.568,267.582 201.296,276.767 201.339,277.199 202.365,285.772 202.449,286.343 203.83,294.272 203.985,295.01 205.775,302.261 206.051,303.197 208.305,309.736 208.776,310.885 211.55,316.679 212.313,318.019 215.662,323.035 216.805,324.469 220.785,328.673 222.324,330.02 226.99,333.379 228.804,334.436 234.211,336.917 236.075,337.575 242.278,339.144 243.983,339.433 251.037,340.058 251.947,329.779 252.657,340.074 259.918,339.574 261.632,339.317 267.978,337.839 269.888,337.203 275.383,334.784 277.271,333.717 281.976,330.396 283.586,329.004 287.565,324.815 288.753,323.32 292.066,318.301 292.845,316.908 295.554,311.095 296.023,309.912 298.191,303.342 298.458,302.391 300.146,295.101 300.291,294.361 301.562,286.388 301.637,285.826 302.553,277.207 302.589,276.79 303.212,267.561 303.228,267.263 303.619,257.46 303.625,257.261 303.847,246.921 303.849,246.803 303.964,235.964 303.965,235.916 304.035,224.613 304.035,224.524 304.009,211.625 303.983,198.726 303.957,185.827 303.932,172.929 303.932,172.929 303.906,160.03 303.854,134.232 303.854,134.232 303.828,121.333 303.751,82.6371 303.751,82.6371 303.725,69.7383 303.647,31.0419 303.647,31.0419 303.643,28.9452 304.594,28.9391 316.348,28.8635 328.101,28.7879 339.854,28.7124 351.607,28.6368 363.361,28.5613 375.114,28.4857 386.867,28.4101 410.374,28.259 422.127,28.1835 433.88,28.1079 457.387,27.9568 469.14,27.8812 469.973,27.8759 " fill="none" stroke-width="0.5" stroke="rgb(0,0,0)" />
	<polygon points="319.228,422.92 319.549,424.332 319.636,424.751 319.672,424.945 320.101,425.28 320.967,426.016 320.974,426.023 321.221,425.816 321.999,425.224 322.699,424.739 323.216,424.426 322.854,421.809 322.854,421.725 " fill="none" stroke-width="0.5" stroke="rgb(0,0,0)" />
	<polygon points="107.78,168.23 108.931,169.253 108.063,168.038 " fill="none" stroke-width="0.5" stroke="rgb(0,0,0)" />
	<polygon points="423.815,148.412 426.036,149.068 427.844,149.806 427.833,149.622 427.079,149.291 425.155,148.199 424.541,147.762 " fill="none" stroke-width="0.5" stroke="rgb(0,0,0)" />
</svg>
