<?xml version="1.0" standalone="no" ?>
<!DOCTYPE svg PUBLIC "-//W3C//DTD SVG 1.1//EN" "http://www.w3.org/Graphics/SVG/1.1/DTD/svg11.dtd">
<svg width="500px" height="500px" xmlns="http://www.w3.org/2000/svg" version="1.1" >
	<polygon points="469.523,280.969 468.721,295.259 466.325,310.39 462.274,326.376 456.546,342.903 449.126,359.668 440.006,376.38 429.179,392.752 416.642,408.509 402.391,423.379 386.419,437.1 368.711,449.415 349.246,460.074 327.99,468.824 304.897,475.41 279.916,479.567 252.983,481.017 226.744,479.649 202.293,475.714 179.606,469.463 158.648,461.132 139.391,450.952 121.814,439.15 105.906,425.95 91.6657,411.581 79.095,396.277 68.2003,380.278 58.9882,363.83 51.4645,347.184 45.6317,330.602 41.4874,314.347 39.0209,298.695 38.1905,283.595 38.1905,30.7893 38.4689,30.7872 61.4523,30.6108 72.944,30.5226 84.4356,30.4344 95.9273,30.3463 95.9273,30.3463 107.419,30.2581 118.911,30.1699 130.402,30.0817 153.386,29.9054 164.877,29.8172 187.861,29.6409 199.435,29.5521 199.432,31.0414 199.432,31.0414 199.406,43.9401 199.381,56.8389 199.356,69.7377 199.356,69.7378 199.33,82.6365 199.279,108.434 199.279,108.434 199.254,121.333 199.203,147.131 199.178,160.029 199.152,172.928 199.127,185.827 199.101,198.726 199.076,211.625 199.05,224.523 199.051,224.633 199.138,235.927 199.139,236.012 199.303,246.829 199.307,246.983 199.604,257.289 199.613,257.524 200.098,267.286 200.119,267.618 200.847,276.802 200.892,277.253 201.919,285.826 202.006,286.42 203.386,294.349 203.548,295.118 205.338,302.369 205.625,303.343 207.879,309.883 208.37,311.079 211.144,316.874 211.938,318.269 215.287,323.285 216.478,324.778 220.458,328.983 222.061,330.385 226.727,333.745 228.617,334.845 234.023,337.326 235.965,338.011 242.167,339.58 243.943,339.882 250.998,340.506 251.947,329.779 252.688,340.523 259.949,340.022 261.734,339.755 268.081,338.277 270.069,337.614 275.565,335.196 277.53,334.085 282.236,330.763 283.913,329.313 287.891,325.125 289.128,323.568 292.441,318.549 293.252,317.098 295.962,311.286 296.451,310.053 298.618,303.483 298.896,302.492 300.585,295.203 300.735,294.432 302.007,286.459 302.084,285.874 303,277.254 303.038,276.821 303.661,267.591 303.677,267.281 304.069,257.478 304.075,257.27 304.297,246.931 304.299,246.808 304.414,235.968 304.415,235.918 304.485,224.616 304.485,224.523 304.459,211.624 304.433,198.725 304.407,185.827 304.382,172.928 304.382,172.928 304.356,160.029 304.304,134.231 304.304,134.231 304.278,121.333 304.201,82.6362 304.201,82.6362 304.175,69.7374 304.097,31.041 304.097,31.041 304.094,29.3923 304.597,29.3891 316.35,29.3135 328.104,29.2379 339.857,29.1624 351.61,29.0868 363.363,29.0112 375.117,28.9357 386.87,28.8601 410.376,28.709 422.13,28.6334 433.883,28.5579 445.636,28.4823 457.389,28.4068 469.143,28.3312 469.523,28.3288 " fill="none" stroke-width="0.5" stroke="rgb(0,0,0)" />
	<polygon points="319.757,423.22 319.988,424.232 320.078,424.668 320.083,424.696 320.392,424.937 320.979,425.435 321.743,424.854 322.443,424.369 322.733,424.193 322.476,422.324 " fill="none" stroke-width="0.5" stroke="rgb(0,0,0)" />
</svg>
