<?xml version="1.0" standalone="no" ?>
<!DOCTYPE svg PUBLIC "-//W3C//DTD SVG 1.1//EN" "http://www.w3.org/Graphics/SVG/1.1/DTD/svg11.dtd">
<svg width="500px" height="500px" xmlns="http://www.w3.org/2000/svg" version="1.1" >
	<polygon points="465.573,280.858 464.788,294.838 462.452,309.594 458.487,325.242 452.868,341.454 445.581,357.92 436.619,374.341 425.98,390.429 413.665,405.907 399.672,420.507 383.998,433.972 366.629,446.052 347.541,456.504 326.692,465.087 304.028,471.551 279.484,475.635 252.98,477.062 227.161,475.715 203.134,471.849 180.864,465.712 160.306,457.54 141.42,447.557 124.182,435.982 108.576,423.033 94.601,408.932 82.26,393.907 71.5623,378.197 62.5176,362.048 55.1341,345.713 49.416,329.456 45.3605,313.55 42.954,298.278 42.1405,283.487 42.1405,34.7091 49.9909,34.6489 61.4826,34.5607 61.4826,34.5607 72.9743,34.4725 84.4659,34.3843 95.9576,34.2962 107.449,34.208 118.941,34.1198 130.433,34.0316 153.416,33.8553 164.908,33.7671 176.399,33.6789 187.891,33.5907 195.477,33.5325 195.457,43.9324 195.406,69.7299 195.406,69.73 195.38,82.6287 195.329,108.426 195.329,108.426 195.304,121.325 195.253,147.123 195.253,147.123 195.228,160.022 195.202,172.92 195.202,172.92 195.177,185.819 195.151,198.718 195.126,211.617 195.126,211.617 195.1,224.516 195.101,224.663 195.188,235.958 195.189,236.072 195.354,246.889 195.358,247.096 195.655,257.403 195.668,257.72 196.153,267.482 196.182,267.93 196.91,277.114 196.97,277.722 197.997,286.295 198.114,287.098 199.495,295.026 199.713,296.065 201.503,303.315 201.891,304.631 204.145,311.17 204.807,312.785 207.581,318.579 208.653,320.462 212.002,325.478 213.61,327.493 217.589,331.698 219.753,333.59 224.418,336.95 226.969,338.435 232.375,340.916 234.996,341.84 241.198,343.41 243.595,343.816 250.649,344.441 251.947,329.779 252.96,344.464 260.22,343.963 262.629,343.602 268.976,342.124 271.66,341.23 277.156,338.812 279.808,337.312 284.514,333.99 286.777,332.034 290.755,327.845 292.425,325.744 295.738,320.725 296.833,318.767 299.542,312.954 300.202,311.291 302.37,304.721 302.744,303.384 304.433,296.094 304.636,295.054 305.907,287.081 306.012,286.291 306.928,277.672 306.979,277.087 307.602,267.857 307.624,267.439 308.015,257.636 308.024,257.355 308.246,247.016 308.249,246.85 308.364,236.01 308.365,235.943 308.435,224.64 308.435,224.515 308.409,211.616 308.383,198.717 308.357,185.819 308.332,172.92 308.332,172.92 308.306,160.021 308.254,134.223 308.254,134.223 308.228,121.325 308.151,82.6283 308.151,82.6282 308.125,69.7294 308.052,33.3169 316.376,33.2634 328.129,33.1879 339.882,33.1123 351.636,33.0367 363.389,32.9612 375.142,32.8856 386.895,32.81 410.402,32.6589 422.155,32.5834 433.908,32.5078 445.662,32.4322 457.415,32.3567 465.573,32.3042 " fill="none" stroke-width="0.5" stroke="rgb(0,0,0)" />
</svg>
