<?xml version="1.0" standalone="no" ?>
<!DOCTYPE svg PUBLIC "-//W3C//DTD SVG 1.1//EN" "http://www.w3.org/Graphics/SVG/1.1/DTD/svg11.dtd">
<svg width="500px" height="500px" xmlns="http://www.w3.org/2000/svg" version="1.1" >
	<polygon points="461.173,280.735 460.408,294.37 458.137,308.708 454.268,323.979 448.77,339.841 441.631,355.972 432.846,372.069 422.416,387.841 410.348,403.009 396.643,417.309 381.301,430.488 364.31,442.306 345.641,452.528 325.247,460.924 303.061,467.251 279.003,471.254 252.976,472.656 227.627,471.334 204.071,467.543 182.265,461.534 162.152,453.539 143.681,443.775 126.82,432.453 111.551,419.783 97.8707,405.98 85.7856,391.267 75.3073,375.88 66.4491,360.063 59.2218,344.074 53.6314,328.18 49.6749,312.662 47.3351,297.814 46.5405,283.366 46.5405,39.0755 50.0247,39.0487 73.008,38.8724 95.9914,38.696 95.9914,38.696 107.483,38.6078 118.975,38.5197 130.466,38.4315 141.958,38.3433 153.45,38.2551 164.941,38.167 176.433,38.0788 187.925,37.9906 191.068,37.9665 191.057,43.9237 191.031,56.8225 191.006,69.7213 191.006,69.7213 190.98,82.6201 190.929,108.418 190.929,108.418 190.904,121.316 190.853,147.114 190.853,147.114 190.828,160.013 190.802,172.912 190.802,172.912 190.777,185.81 190.751,198.709 190.726,211.608 190.726,211.608 190.7,224.507 190.701,224.697 190.788,235.992 190.79,236.139 190.954,246.956 190.96,247.223 191.257,257.529 191.273,257.938 191.758,267.7 191.795,268.278 192.523,277.462 192.601,278.245 193.628,286.818 193.78,287.853 195.16,295.781 195.441,297.119 197.231,304.37 197.731,306.065 199.985,312.604 200.839,314.685 203.613,320.479 204.994,322.905 208.343,327.921 210.414,330.518 214.393,334.722 217.182,337.161 221.847,340.52 225.134,342.434 230.54,344.915 233.916,346.106 240.119,347.675 243.207,348.199 250.261,348.823 251.947,329.779 253.263,348.853 260.523,348.353 263.627,347.887 269.974,346.41 273.432,345.257 278.928,342.839 282.345,340.907 287.051,337.585 289.967,335.064 293.945,330.875 296.097,328.168 299.41,323.149 300.821,320.626 303.53,314.813 304.38,312.669 306.548,306.1 307.031,304.377 308.719,297.087 308.981,295.747 310.252,287.774 310.388,286.756 311.303,278.137 311.369,277.383 311.992,268.153 312.021,267.615 312.412,257.812 312.423,257.45 312.645,247.11 312.649,246.897 312.764,236.057 312.765,235.97 312.835,224.667 312.835,224.506 312.809,211.607 312.783,198.709 312.757,185.81 312.732,172.911 312.732,172.911 312.706,160.012 312.654,134.215 312.654,134.215 312.628,121.316 312.551,82.6195 312.551,82.6194 312.525,69.7206 312.461,37.6887 316.404,37.6633 328.157,37.5878 339.911,37.5122 351.664,37.4366 363.417,37.3611 375.17,37.2855 386.924,37.21 410.43,37.0588 422.183,36.9833 433.937,36.9077 445.69,36.8321 457.443,36.7566 461.173,36.7326 " fill="none" stroke-width="0.5" stroke="rgb(0,0,0)" />
</svg>
