<?xml version="1.0" standalone="no" ?>
<!DOCTYPE svg PUBLIC "-//W3C//DTD SVG 1.1//EN" "http://www.w3.org/Graphics/SVG/1.1/DTD/svg11.dtd">
<svg width="500px" height="500px" xmlns="http://www.w3.org/2000/svg" version="1.1" >
	<polygon points="464.673,280.833 463.892,294.742 461.569,309.413 457.624,324.984 452.03,341.124 444.773,357.521 435.847,373.876 425.251,389.899 412.986,405.314 399.053,419.853 383.446,433.259 366.155,445.286 347.152,455.691 326.396,464.235 303.831,470.671 279.386,474.739 252.979,476.161 227.257,474.819 203.325,470.968 181.151,464.857 160.683,456.721 141.883,446.784 124.721,435.26 109.185,422.368 95.2698,408.328 82.9812,393.367 72.3283,377.723 63.3218,361.642 55.9702,345.378 50.2782,329.195 46.243,313.369 43.8501,298.183 43.0405,283.462 43.0405,35.6022 49.9978,35.5488 61.4895,35.4607 72.9812,35.3725 84.4728,35.2843 95.9645,35.1961 107.456,35.108 118.948,35.0198 130.44,34.9316 153.423,34.7553 164.915,34.6671 176.406,34.5789 187.898,34.4907 194.575,34.4395 194.557,43.9306 194.531,56.8294 194.506,69.7282 194.506,69.7282 194.48,82.627 194.429,108.425 194.429,108.425 194.404,121.323 194.353,147.121 194.353,147.121 194.328,160.02 194.302,172.919 194.302,172.919 194.277,185.817 194.251,198.716 194.226,211.615 194.226,211.615 194.2,224.514 194.201,224.67 194.288,235.965 194.289,236.086 194.454,246.903 194.459,247.122 194.756,257.428 194.769,257.764 195.254,267.526 195.284,268.001 196.012,277.185 196.076,277.829 197.103,286.402 197.228,287.252 198.608,295.181 198.839,296.281 200.629,303.531 201.04,304.924 203.294,311.463 203.996,313.173 206.77,318.968 207.905,320.962 211.254,325.978 212.956,328.112 216.935,332.317 219.227,334.32 223.892,337.68 226.594,339.253 232,341.734 234.775,342.713 240.978,344.282 243.515,344.713 250.57,345.337 251.947,329.779 253.022,345.362 260.282,344.861 262.833,344.479 269.18,343.001 272.023,342.054 277.518,339.636 280.327,338.047 285.033,334.726 287.429,332.654 291.408,328.465 293.176,326.24 296.489,321.221 297.648,319.147 300.358,313.335 301.056,311.573 303.224,305.003 303.621,303.587 305.31,296.297 305.525,295.196 306.796,287.223 306.907,286.386 307.823,277.767 307.877,277.147 308.5,267.918 308.523,267.475 308.915,257.672 308.924,257.375 309.146,247.035 309.149,246.859 309.264,236.02 309.265,235.948 309.335,224.646 309.335,224.513 309.309,211.614 309.283,198.716 309.257,185.817 309.232,172.918 309.232,172.918 309.206,160.019 309.154,134.222 309.154,134.222 309.128,121.323 309.051,82.6265 309.051,82.6264 309.025,69.7277 308.954,34.2111 316.382,34.1634 316.382,34.1634 328.135,34.0878 339.888,34.0123 351.641,33.9367 363.395,33.8611 375.148,33.7856 386.901,33.71 410.408,33.5589 422.161,33.4833 433.914,33.4078 445.667,33.3322 457.421,33.2567 464.673,33.21 " fill="none" stroke-width="0.5" stroke="rgb(0,0,0)" />
</svg>
