<?xml version="1.0" standalone="no" ?>
<!DOCTYPE svg PUBLIC "-//W3C//DTD SVG 1.1//EN" "http://www.w3.org/Graphics/SVG/1.1/DTD/svg11.dtd">
<svg width="500px" height="500px" xmlns="http://www.w3.org/2000/svg" version="1.1" >
	<polygon points="464.623,280.832 463.843,294.737 461.52,309.403 457.576,324.969 451.983,341.106 444.728,357.499 435.804,373.85 425.21,389.87 412.948,405.281 399.018,419.817 383.416,433.22 366.128,445.243 347.13,455.646 326.38,464.188 303.82,470.622 279.38,474.689 252.979,476.111 227.262,474.769 203.336,470.919 181.167,464.81 160.704,456.676 141.908,446.741 124.751,435.22 109.219,422.331 95.307,408.294 83.0212,393.337 72.3709,377.697 63.3664,361.619 56.0167,345.359 50.3261,329.181 46.292,313.359 43.8999,298.178 43.0905,283.461 43.0905,35.6518 49.9982,35.5988 61.4899,35.5107 61.4899,35.5107 72.9816,35.4225 95.9649,35.2461 95.9649,35.2461 118.948,35.0698 130.44,34.9816 141.932,34.8934 153.423,34.8052 164.915,34.7171 176.407,34.6289 187.898,34.5407 194.525,34.4899 194.507,43.9305 194.481,56.8293 194.456,69.7281 194.456,69.7281 194.43,82.6269 194.379,108.424 194.379,108.424 194.354,121.323 194.303,147.121 194.303,147.121 194.278,160.02 194.252,172.918 194.252,172.918 194.201,198.716 194.176,211.615 194.176,211.615 194.15,224.514 194.151,224.671 194.238,235.965 194.239,236.086 194.404,246.903 194.409,247.124 194.706,257.43 194.719,257.767 195.204,267.529 195.234,268.005 195.963,277.189 196.027,277.835 197.053,286.408 197.179,287.261 198.559,295.189 198.791,296.293 200.58,303.543 200.993,304.94 203.247,311.479 203.951,313.195 206.724,318.989 207.863,320.99 211.212,326.006 212.92,328.146 216.899,332.351 219.198,334.361 223.863,337.721 226.573,339.298 231.979,341.779 234.763,342.761 240.965,344.331 243.511,344.763 250.566,345.387 251.947,329.779 253.025,345.412 260.286,344.911 262.845,344.527 269.192,343.049 272.043,342.099 277.538,339.681 280.356,338.088 285.062,334.766 287.466,332.688 291.444,328.499 293.218,326.267 296.531,321.248 297.694,319.168 300.403,313.356 301.104,311.588 303.272,305.019 303.67,303.598 305.358,296.309 305.574,295.203 306.845,287.231 306.957,286.392 307.873,277.772 307.927,277.151 308.549,267.921 308.573,267.477 308.965,257.674 308.974,257.376 309.196,247.036 309.199,246.86 309.314,236.02 309.315,235.949 309.385,224.646 309.385,224.513 309.359,211.614 309.307,185.817 309.282,172.918 309.282,172.918 309.256,160.019 309.204,134.222 309.204,134.221 309.178,121.323 309.101,82.6264 309.101,82.6263 309.075,69.7275 309.004,34.2608 316.382,34.2134 328.135,34.1378 339.888,34.0623 351.642,33.9867 363.395,33.9111 375.148,33.8356 386.901,33.76 410.408,33.6089 422.161,33.5333 433.914,33.4578 445.668,33.3822 457.421,33.3067 464.623,33.2604 " fill="none" stroke-width="0.5" stroke="rgb(0,0,0)" />
</svg>
