<?xml version="1.0" standalone="no" ?>
<!DOCTYPE svg PUBLIC "-//W3C//DTD SVG 1.1//EN" "http://www.w3.org/Graphics/SVG/1.1/DTD/svg11.dtd">
<svg width="500px" height="500px" xmlns="http://www.w3.org/2000/svg" version="1.1" >
	<polygon points="480.823,82.0209 480.174,83.095 474.859,89.567 473.036,91.2807 470.165,93.3563 470.735,93.5291 472.83,94.3811 474.599,95.3229 476.322,96.4819 477.927,97.8333 479.296,99.2648 480.54,100.873 480.823,101.33 480.823,192.454 479.675,193.784 478.096,194.858 476.709,195.396 479.811,198.84 480.823,200.197 480.823,248.532 480.46,249.151 479.976,249.894 478.493,251.963 478.744,252.02 480.003,252.468 480.823,252.888 480.823,281.286 479.971,296.463 479.926,296.751 477.897,299.26 477.109,300.124 475.002,302.171 475.097,302.319 477.012,305.986 477.586,307.316 478.043,308.64 477.405,312.666 473.11,329.62 467.07,347.047 459.27,364.67 454.451,373.499 451.315,373.809 451.748,378.453 449.695,382.213 438.331,399.399 425.161,415.952 410.17,431.593 400.096,440.247 398.646,439.792 398.012,439.492 398.009,439.569 397.498,442.479 393.345,446.047 374.668,459.037 354.126,470.285 331.702,479.516 320.764,482.636 320.094,482.37 317.43,480.993 315.786,479.916 315.521,482.179 315.123,483.652 314.774,484.344 307.382,486.452 281.151,490.817 264.234,491.728 263.642,491.244 263.403,491.013 262.988,491.208 261.442,491.878 252.993,492.333 225.548,490.902 199.887,486.773 176.08,480.212 174.18,478.877 171.441,477.336 169.961,476.91 167.196,476.636 167.04,476.628 153.907,471.407 133.585,460.665 126.936,456.2 126.046,454.823 125.868,453.352 125.781,453.351 122.098,452.952 115.039,448.212 98.2672,434.295 83.2685,419.161 70.0408,403.057 68.5715,400.9 68.5375,399.375 68.5727,398.933 66.5444,397.923 58.5824,386.23 48.8916,368.927 40.9666,351.394 34.8057,333.879 33.3124,328.022 35.8286,319.918 36.3838,318.521 37.8877,315.45 37.0682,315.433 35.0991,314.813 31.1317,312.407 29.4823,310.758 27.7694,299.888 26.8905,283.906 26.8905,233.05 27.4157,231.843 28.4263,230.104 27.2949,229.452 26.8905,229.135 26.8905,159.51 27.6188,157.48 28.2437,156.091 30.6702,151.658 31.7174,150.116 32.5307,149.135 31.8087,148.845 29.5224,147.659 27.9103,146.608 26.8905,145.79 26.8905,109.111 27.4524,108.631 27.5236,108.579 26.8905,108.081 26.8905,39.5589 30.2037,37.1327 30.6777,36.8066 32.1874,35.8324 29.8821,35.1061 28.4122,34.5076 26.8905,33.7381 26.8905,19.5757 38.3822,19.4875 49.8739,19.3993 61.3656,19.3111 72.8572,19.223 84.3489,19.1348 95.8406,19.0466 107.332,18.9584 118.276,18.8745 118.847,19.5587 119.475,18.8653 130.316,18.7821 141.807,18.6939 153.299,18.6057 158.467,18.5661 158.543,18.7942 158.945,18.5624 164.791,18.5175 176.282,18.4294 187.774,18.3412 210.757,18.1648 210.732,31.0636 210.706,43.9624 210.681,56.8612 210.656,69.76 210.63,82.6588 210.621,87.1456 209.771,87.5012 208.177,88.0118 207.174,88.2405 206.928,88.277 209.837,90.6981 210.167,90.9852 210.613,91.392 210.579,108.456 210.554,121.355 210.503,147.153 210.478,160.052 210.452,172.95 210.439,179.622 209.721,180.705 207.94,182.947 206.71,184.233 204.936,185.779 206.43,186.804 207.936,188.078 209.909,190.123 210.417,190.779 210.401,198.748 210.376,211.647 210.358,220.716 209.903,221.449 209.125,222.233 210.353,223.368 210.35,224.546 210.438,235.84 210.602,246.657 210.899,256.963 211.324,265.514 209.764,267.401 208.37,269.255 209.003,269.894 211.133,271.688 211.302,271.834 211.825,272.296 212.112,275.909 213.138,284.482 214.519,292.41 216.308,299.661 218.563,306.2 221.336,311.994 224.685,317.011 228.665,321.215 233.33,324.575 238.737,327.056 244.939,328.626 251.6,329.215 251.612,329.236 252.783,331.659 252.873,331.489 253.89,329.952 254.607,329.064 259.171,328.749 265.518,327.271 271.013,324.853 275.719,321.532 279.698,317.343 283.01,312.324 285.72,306.511 287.888,299.942 289.576,292.653 290.848,284.68 291.763,276.06 292.386,266.831 292.4,266.478 293.597,265.54 293.685,265.486 292.733,264.669 292.484,264.38 292.778,257.028 293,246.688 293.115,235.848 293.185,224.546 293.159,211.647 293.133,198.748 293.127,195.439 293.222,195.344 294.7,194.117 295.11,193.838 295.077,193.79 294.43,192.603 293.685,190.845 293.275,189.536 293.113,188.746 293.107,185.849 293.099,181.768 293.276,180.907 293.686,179.599 294.432,177.842 295.079,176.656 295.641,175.826 294.313,174.965 293.083,173.823 293.082,172.95 293.056,160.052 293.004,134.254 292.978,121.355 292.962,113.299 292.971,113.264 293.542,111.652 294.856,108.775 295.581,107.519 294.517,107.371 294.367,107.339 292.949,106.803 292.901,82.6588 292.875,69.76 292.797,31.0636 292.771,18.1648 304.525,18.0893 316.278,18.0137 328.031,17.9382 339.784,17.8626 351.538,17.787 363.291,17.7115 375.044,17.6359 381.296,17.5957 381.566,17.7544 385.602,20.717 386.263,19.3406 386.889,18.6126 388.284,17.5508 410.304,17.4092 422.057,17.3337 433.81,17.2581 444.604,17.1887 445.242,17.7727 445.724,17.1815 457.317,17.107 469.07,17.0314 480.823,16.9559 " fill="none" stroke-width="0.5" stroke="rgb(0,0,0)" />
	<polygon points="194.905,445.208 196.169,445.411 197.53,445.553 198.568,445.593 199.954,445.517 201.184,445.301 201.61,445.161 201.556,445.161 195.338,444.672 194.742,444.573 " fill="none" stroke-width="0.5" stroke="rgb(0,0,0)" />
	<polygon points="317.87,422.21 318.146,423.124 318.477,424.576 318.554,424.952 318.668,425.562 318.777,425.64 319.389,426.119 320.255,426.854 320.921,427.517 321.218,427.252 321.926,426.66 322.625,426.128 323.326,425.643 324.329,425.035 324.464,424.963 324.319,424.449 323.954,421.809 323.954,420.204 " fill="none" stroke-width="0.5" stroke="rgb(0,0,0)" />
	<polygon points="168.36,414.78 168.186,417.32 168.406,417.299 168.552,416.542 168.648,416.223 169.559,414.124 169.599,414.054 168.551,413.505 168.353,413.39 " fill="none" stroke-width="0.5" stroke="rgb(0,0,0)" />
	<polygon points="82.7939,369.641 82.8319,369.891 82.9558,369.798 82.8026,369.64 " fill="none" stroke-width="0.5" stroke="rgb(0,0,0)" />
	<polygon points="157.494,340.642 157.984,340.99 158.064,340.202 " fill="none" stroke-width="0.5" stroke="rgb(0,0,0)" />
	<polygon points="76.5867,315.985 76.4729,317.039 77.7246,315.92 78.3403,315.469 77.0427,314.433 77.002,314.393 " fill="none" stroke-width="0.5" stroke="rgb(0,0,0)" />
	<polygon points="163.087,255.399 163.123,255.6 163.912,254.104 162.777,253.86 " fill="none" stroke-width="0.5" stroke="rgb(0,0,0)" />
	<polygon points="91.8681,218.083 92.0642,218.856 92.5232,218.707 93.2521,218.585 96.2254,218.546 96.8691,218.636 98.0496,218.976 98.0721,218.825 98.2672,217.967 98.2004,217.974 96.0519,217.972 92.8627,217.616 91.6213,217.33 " fill="none" stroke-width="0.5" stroke="rgb(0,0,0)" />
	<polygon points="433.23,216.562 432.361,216.729 432.961,217.227 433.275,217.553 434.104,216.352 " fill="none" stroke-width="0.5" stroke="rgb(0,0,0)" />
	<polygon points="108.3,166.555 106.755,167.601 105.856,168.092 106.773,168.806 109.772,171.473 110.769,172.5 111.776,173.703 112.348,172.901 113.118,172.058 111.48,170.56 110.124,169.03 108.335,166.526 " fill="none" stroke-width="0.5" stroke="rgb(0,0,0)" />
	<polygon points="424.001,146.77 421.611,148.908 425.724,150.123 427.524,150.857 429.202,151.745 429.001,151.046 428.888,148.885 427.522,148.284 425.793,147.303 424.433,146.335 424.394,146.3 " fill="none" stroke-width="0.5" stroke="rgb(0,0,0)" />
	<polygon points="312.421,129.126 312.234,129.482 312.072,129.993 312.711,130.025 312.456,129.079 " fill="none" stroke-width="0.5" stroke="rgb(0,0,0)" />
	<polygon points="91.2497,119.03 89.8463,119.941 88.1852,120.827 90.0749,120.827 91.48,120.97 92.1317,121.103 91.9179,119.505 91.892,119.294 91.8135,118.591 " fill="none" stroke-width="0.5" stroke="rgb(0,0,0)" />
	<polygon points="186.435,115.477 186.099,116.123 184.883,117.931 184.448,118.442 187.426,117.532 188.224,117.37 186.496,115.329 " fill="none" stroke-width="0.5" stroke="rgb(0,0,0)" />
	<polygon points="102.973,65.9609 102.754,66.1371 103.173,66.0921 103.161,65.8052 " fill="none" stroke-width="0.5" stroke="rgb(0,0,0)" />
	<polygon points="399.714,38.9066 399.838,38.8541 400.729,38.5464 399.407,38.1704 " fill="none" stroke-width="0.5" stroke="rgb(0,0,0)" />
</svg>
