<?xml version="1.0" standalone="no" ?>
<!DOCTYPE svg PUBLIC "-//W3C//DTD SVG 1.1//EN" "http://www.w3.org/Graphics/SVG/1.1/DTD/svg11.dtd">
<svg width="500px" height="500px" xmlns="http://www.w3.org/2000/svg" version="1.1" >
	<polygon points="464.223,280.82 463.444,294.695 461.128,309.322 457.192,324.854 451.611,340.959 444.369,357.322 435.461,373.644 424.887,389.635 412.647,405.018 398.743,419.526 383.171,432.903 365.918,444.903 346.958,455.285 326.249,463.809 303.732,470.231 279.336,474.291 252.978,475.71 227.304,474.371 203.421,470.528 181.294,464.43 160.872,456.312 142.114,446.397 124.991,434.899 109.489,422.036 95.6042,408.026 83.3417,393.097 72.7113,377.486 63.7238,361.439 56.3883,345.21 50.7094,329.065 46.6842,313.278 44.2982,298.136 43.4905,283.45 43.4905,36.0488 50.0013,35.9988 61.4929,35.9106 72.9846,35.8225 84.4763,35.7343 95.968,35.6461 95.968,35.6461 107.46,35.5579 118.951,35.4698 130.443,35.3816 130.443,35.3816 141.935,35.2934 153.426,35.2052 153.426,35.2052 164.918,35.1171 176.41,35.0289 187.901,34.9407 187.901,34.9407 194.124,34.893 194.107,43.9297 194.081,56.8285 194.056,69.7273 194.056,69.7273 194.03,82.6261 193.979,108.424 193.979,108.424 193.954,121.322 193.903,147.12 193.903,147.12 193.878,160.019 193.852,172.918 193.852,172.918 193.827,185.816 193.801,198.715 193.776,211.614 193.75,224.513 193.751,224.674 193.838,235.968 193.839,236.092 194.004,246.909 194.009,247.135 194.306,257.441 194.319,257.787 194.804,267.549 194.836,268.037 195.564,277.221 195.63,277.883 196.656,286.456 196.784,287.329 198.165,295.258 198.403,296.388 200.192,303.639 200.615,305.071 202.869,311.61 203.59,313.368 206.364,319.162 207.531,321.212 210.88,326.228 212.629,328.421 216.609,332.626 218.964,334.686 223.629,338.045 226.406,339.662 231.812,342.143 234.664,343.149 240.867,344.718 243.476,345.161 250.53,345.785 251.947,329.779 253.053,345.811 260.313,345.31 262.935,344.917 269.282,343.439 272.204,342.466 277.699,340.047 280.586,338.415 285.292,335.093 287.756,332.963 291.734,328.775 293.552,326.487 296.865,321.469 298.056,319.337 300.766,313.525 301.484,311.714 303.652,305.144 304.059,303.688 305.748,296.399 305.969,295.266 307.24,287.294 307.355,286.434 308.271,277.814 308.326,277.178 308.949,267.948 308.973,267.493 309.364,257.69 309.374,257.384 309.596,247.045 309.599,246.864 309.714,236.025 309.715,235.951 309.785,224.648 309.785,224.512 309.759,211.614 309.733,198.715 309.707,185.816 309.682,172.917 309.682,172.917 309.656,160.018 309.604,134.221 309.604,134.221 309.578,121.322 309.501,82.6256 309.501,82.6255 309.475,69.7268 309.404,34.6583 316.385,34.6134 339.891,34.4623 351.644,34.3867 363.398,34.3111 375.151,34.2356 386.904,34.16 410.411,34.0089 422.164,33.9333 433.917,33.8578 445.67,33.7822 457.423,33.7067 464.223,33.6629 " fill="none" stroke-width="0.5" stroke="rgb(0,0,0)" />
</svg>
