<?xml version="1.0" standalone="no" ?>
<!DOCTYPE svg PUBLIC "-//W3C//DTD SVG 1.1//EN" "http://www.w3.org/Graphics/SVG/1.1/DTD/svg11.dtd">
<svg width="500px" height="500px" xmlns="http://www.w3.org/2000/svg" version="1.1" >
	<polygon points="480.823,82.4035 480.329,83.222 475.013,89.6939 473.153,91.4428 470.608,93.2826 470.81,93.3438 472.905,94.1958 474.711,95.1569 476.434,96.316 478.072,97.6951 479.441,99.1266 480.71,100.767 480.823,100.95 480.823,192.75 479.787,193.949 478.208,195.023 477.05,195.476 479.96,198.706 480.823,199.864 480.823,248.927 480.632,249.253 480.139,250.011 478.829,251.838 480.07,252.28 480.823,252.665 480.823,281.286 479.971,296.463 479.863,297.147 478.053,299.386 477.248,300.267 475.258,302.201 475.274,302.226 477.19,305.894 477.775,307.251 478.109,308.22 477.405,312.666 473.11,329.62 467.07,347.047 459.27,364.67 454.339,373.706 451.534,374.002 451.919,378.138 449.695,382.213 438.331,399.399 425.161,415.952 410.17,431.593 399.919,440.399 398.561,439.973 398.173,439.79 397.737,442.274 393.345,446.047 374.668,459.037 354.126,470.285 331.702,479.516 320.45,482.725 320.002,482.548 317.339,481.171 315.945,480.258 315.714,482.232 315.316,483.704 315.031,484.271 307.382,486.452 281.151,490.817 263.938,491.744 263.516,491.399 263.364,491.252 263.067,491.392 262.017,491.847 252.993,492.333 225.548,490.902 199.887,486.773 176.007,480.192 175.308,479.914 174.073,479.046 171.363,477.522 169.923,477.107 167.691,476.886 153.907,471.407 133.585,460.665 126.51,455.914 125.873,454.934 125.695,453.543 122.455,453.192 115.039,448.212 98.2672,434.295 83.2685,419.161 70.0408,403.057 68.3657,400.597 68.3381,399.359 68.3548,399.15 67.0766,398.704 58.5824,386.23 48.8916,368.927 40.9666,351.394 34.8057,333.879 33.218,327.652 35.6376,319.858 36.2042,318.433 37.5741,315.635 37.0081,315.624 35.039,315.004 30.9903,312.549 29.5352,311.094 27.7694,299.888 26.8905,283.906 26.8905,232.549 27.2323,231.764 28.1547,230.176 27.1716,229.609 26.8905,229.389 26.8905,158.918 27.4305,157.413 28.0683,155.995 30.4948,151.562 31.5635,149.988 32.2023,149.218 31.7165,149.023 29.4303,147.836 27.7851,146.764 26.8905,146.046 26.8905,108.849 27.2044,108.581 26.8905,108.334 26.8905,39.311 30.0855,36.9713 30.5693,36.6385 31.7212,35.8952 29.822,35.2969 28.322,34.6861 26.8905,33.9623 26.8905,19.5757 38.3822,19.4875 49.8739,19.3993 61.3656,19.3111 72.8572,19.223 84.3489,19.1348 95.8406,19.0466 107.332,18.9584 118.535,18.8725 118.853,19.254 119.204,18.8673 130.316,18.7821 141.807,18.6939 153.299,18.6057 164.791,18.5175 176.282,18.4294 187.774,18.3412 210.757,18.1648 210.732,31.0636 210.706,43.9624 210.681,56.8612 210.656,69.76 210.63,82.6588 210.621,87.3625 209.848,87.6857 208.222,88.2068 207.386,88.3974 209.965,90.5443 210.301,90.8374 210.613,91.1219 210.579,108.456 210.554,121.355 210.503,147.153 210.478,160.052 210.452,172.95 210.438,179.983 209.878,180.83 208.096,183.071 206.842,184.384 205.262,185.761 206.543,186.639 208.08,187.939 210.053,189.985 210.418,190.455 210.401,198.748 210.376,211.647 210.357,221.096 210.073,221.554 209.411,222.225 210.353,223.096 210.35,224.546 210.438,235.84 210.602,246.657 210.899,256.963 211.338,265.81 209.921,267.524 208.634,269.237 209.139,269.747 211.262,271.535 211.434,271.684 211.803,272.009 212.112,275.909 213.138,284.482 214.519,292.41 216.308,299.661 218.563,306.2 221.336,311.994 224.685,317.011 228.665,321.215 233.33,324.575 238.737,327.056 244.939,328.626 251.834,329.236 252.801,331.237 253.734,329.826 254.334,329.083 259.171,328.749 265.518,327.271 271.013,324.853 275.719,321.532 279.698,317.343 283.01,312.324 285.72,306.511 287.888,299.942 289.576,292.653 290.848,284.68 291.763,276.06 292.386,266.831 292.411,266.217 293.361,265.472 292.603,264.821 292.472,264.67 292.778,257.028 293,246.688 293.115,235.848 293.185,224.546 293.159,211.647 293.133,198.748 293.126,195.163 294.572,193.963 294.844,193.778 294.255,192.698 293.494,190.905 293.115,189.694 293.107,185.849 293.097,180.809 293.495,179.539 294.256,177.746 294.903,176.56 295.363,175.881 294.176,175.111 293.084,174.097 293.082,172.95 293.056,160.052 293.004,134.254 292.978,121.355 292.961,112.696 293.36,111.569 294.674,108.692 295.261,107.676 294.475,107.567 294.324,107.534 292.949,107.015 292.901,82.6588 292.875,69.76 292.797,31.0636 292.771,18.1648 304.525,18.0893 316.278,18.0137 328.031,17.9382 339.784,17.8626 351.538,17.787 363.291,17.7115 375.044,17.6359 381.685,17.5932 385.537,20.421 386.111,19.2102 386.737,18.4821 387.958,17.5529 410.304,17.4092 422.057,17.3337 433.81,17.2581 444.898,17.1868 445.221,17.4822 445.464,17.1832 445.564,17.1826 457.317,17.107 469.07,17.0314 480.823,16.9559 " fill="none" stroke-width="0.5" stroke="rgb(0,0,0)" />
	<polygon points="195.066,445.032 196.195,445.213 197.544,445.353 198.566,445.393 199.931,445.318 200.262,445.26 195.322,444.871 195.012,444.82 " fill="none" stroke-width="0.5" stroke="rgb(0,0,0)" />
	<polygon points="318.117,422.339 318.341,423.079 318.672,424.532 318.751,424.916 318.85,425.446 318.894,425.478 319.518,425.967 320.385,426.702 320.928,427.243 321.09,427.098 321.798,426.507 322.512,425.964 323.212,425.479 324.227,424.862 324.126,424.503 323.754,421.809 323.754,420.481 " fill="none" stroke-width="0.5" stroke="rgb(0,0,0)" />
	<polygon points="168.559,414.793 168.467,416.14 169.335,414.142 168.554,413.732 " fill="none" stroke-width="0.5" stroke="rgb(0,0,0)" />
	<polygon points="76.784,316.022 76.7275,316.545 77.6063,315.759 78.0113,315.462 77.1162,314.748 " fill="none" stroke-width="0.5" stroke="rgb(0,0,0)" />
	<polygon points="163.213,255.01 163.613,254.252 163.036,254.132 " fill="none" stroke-width="0.5" stroke="rgb(0,0,0)" />
	<polygon points="92.0582,218.021 92.2057,218.602 92.4901,218.51 93.219,218.388 96.2533,218.348 96.897,218.438 97.89,218.724 98.0153,218.173 96.0297,218.171 92.8405,217.815 91.9213,217.603 " fill="none" stroke-width="0.5" stroke="rgb(0,0,0)" />
	<polygon points="433.277,216.757 432.814,216.845 433.089,217.073 433.248,217.239 433.642,216.669 " fill="none" stroke-width="0.5" stroke="rgb(0,0,0)" />
	<polygon points="106.851,167.777 106.219,168.122 106.906,168.657 109.904,171.323 110.922,172.372 111.764,173.378 112.2,172.766 112.836,172.07 111.345,170.708 109.961,169.147 108.288,166.804 " fill="none" stroke-width="0.5" stroke="rgb(0,0,0)" />
	<polygon points="424.134,146.919 422.011,148.817 425.781,149.931 427.618,150.68 428.88,151.349 428.809,151.101 428.695,149.018 427.441,148.468 425.677,147.466 424.423,146.574 " fill="none" stroke-width="0.5" stroke="rgb(0,0,0)" />
	<polygon points="312.341,129.806 312.447,129.811 312.397,129.629 " fill="none" stroke-width="0.5" stroke="rgb(0,0,0)" />
	<polygon points="91.3726,119.188 89.9404,120.117 88.9834,120.628 90.0952,120.628 91.5002,120.771 91.8963,120.852 91.7196,119.531 91.6932,119.316 91.6544,118.968 " fill="none" stroke-width="0.5" stroke="rgb(0,0,0)" />
	<polygon points="186.277,116.215 185.04,118.052 187.367,117.341 187.854,117.242 186.546,115.698 " fill="none" stroke-width="0.5" stroke="rgb(0,0,0)" />
	<polygon points="399.822,38.6483 400.063,38.5649 399.75,38.4758 " fill="none" stroke-width="0.5" stroke="rgb(0,0,0)" />
</svg>
