<?xml version="1.0" standalone="no" ?>
<!DOCTYPE svg PUBLIC "-//W3C//DTD SVG 1.1//EN" "http://www.w3.org/Graphics/SVG/1.1/DTD/svg11.dtd">
<svg width="500px" height="500px" xmlns="http://www.w3.org/2000/svg" version="1.1" >
	<polygon points="480.823,81.16 479.826,82.8094 474.511,89.2814 472.772,90.916 469.167,93.5221 470.565,93.9459 472.661,94.798 474.348,95.6963 476.071,96.8553 477.602,98.1443 478.971,99.5758 480.158,101.109 480.823,102.185 480.823,191.79 479.422,193.412 477.843,194.486 475.938,195.213 479.477,199.141 480.505,200.52 480.823,201.041 480.823,247.644 480.072,248.923 479.611,249.632 477.734,252.249 478.593,252.444 479.852,252.892 480.823,253.389 480.823,281.286 480,295.942 477.547,298.978 476.795,299.801 474.427,302.102 474.698,302.527 476.613,306.194 477.16,307.463 477.893,309.584 477.405,312.666 473.11,329.62 467.07,347.047 459.27,364.67 454.699,373.045 451.152,373.336 450.806,373.197 451.315,378.656 451.294,379.284 449.695,382.213 438.331,399.399 425.161,415.952 410.17,431.593 400.495,439.905 398.838,439.385 397.599,438.8 397.565,439.491 396.96,442.941 393.345,446.047 374.668,459.037 354.126,470.285 331.702,479.516 321.471,482.434 320.3,481.97 317.637,480.593 316.045,479.551 315.394,479.022 315.404,479.346 315.087,482.062 314.689,483.534 314.198,484.508 307.382,486.452 281.151,490.817 264.902,491.692 263.927,490.896 263.486,490.47 263.331,490.549 262.809,490.795 260.151,491.948 252.993,492.333 225.548,490.902 199.887,486.773 177.369,480.567 174.42,478.496 171.616,476.919 170.046,476.466 167.23,476.188 165.723,476.104 153.907,471.407 133.585,460.665 127.877,456.832 126.435,454.574 126.261,452.908 125.829,452.904 121.294,452.412 115.039,448.212 98.2672,434.295 83.2685,419.161 70.0408,403.057 69.069,401.63 69.0283,401.304 68.986,399.411 69.0352,398.795 66.102,397.273 58.5824,386.23 48.8916,368.927 40.9666,351.394 34.8057,333.879 33.5249,328.855 36.2584,320.051 36.7879,318.718 38.5933,315.032 37.2032,315.004 35.2341,314.384 31.4499,312.089 29.6314,310.271 29.3458,309.891 27.7694,299.888 26.8905,283.906 26.8905,234.178 27.8283,232.023 28.9076,230.165 29.0634,229.957 27.5723,229.097 26.8905,228.564 26.8905,160.843 28.0424,157.632 28.6384,156.307 31.065,151.874 32.0638,150.403 33.2697,148.949 32.016,148.446 29.7297,147.259 28.192,146.257 26.8905,145.213 26.8905,109.702 27.7178,108.994 28.266,108.594 27.0568,107.643 26.8905,107.479 26.8905,88.7557 27.2376,88.2311 26.8905,88.1151 26.8905,40.1167 30.4696,37.4957 30.9217,37.1847 33.2363,35.6911 30.0173,34.6769 28.6153,34.106 26.8905,33.2339 26.8905,19.5757 38.3822,19.4875 49.8739,19.3993 61.3656,19.3111 72.8572,19.223 84.3489,19.1348 95.8406,19.0466 107.332,18.9584 117.694,18.8789 118.811,20.2187 118.819,20.2258 118.969,20.0941 120.087,18.8606 130.316,18.7821 141.807,18.6939 153.299,18.6057 158,18.5697 158.3,19.4878 158.551,19.3063 159.853,18.5554 164.791,18.5175 176.282,18.4294 187.774,18.3412 210.757,18.1648 210.732,31.0636 210.706,43.9624 210.681,56.8612 210.656,69.76 210.63,82.6588 210.622,86.6393 210.467,86.7222 209.597,87.086 208.077,87.573 207.074,87.8018 205.869,87.9805 209.549,91.0439 209.863,91.3178 210.612,91.9998 210.579,108.456 210.554,121.355 210.503,147.153 210.478,160.052 210.452,172.95 210.441,178.746 210.254,179.088 209.369,180.425 207.588,182.667 206.415,183.894 204.273,185.76 204.194,185.816 206.176,187.175 207.612,188.39 209.585,190.436 210.416,191.507 210.401,198.748 210.376,211.647 210.36,219.857 210.346,219.88 209.521,221.212 208.48,222.249 210.098,223.745 210.351,224.006 210.35,224.546 210.438,235.84 210.602,246.657 210.899,256.963 211.291,264.847 209.411,267.122 207.955,269.059 207.81,269.328 208.697,270.225 210.843,272.032 211.004,272.171 211.877,272.941 212.112,275.909 213.138,284.482 214.519,292.41 216.308,299.661 218.563,306.2 221.336,311.994 224.685,317.011 228.665,321.215 233.33,324.575 238.737,327.056 244.939,328.626 251.045,329.166 251.207,329.432 252.716,332.556 252.757,332.664 253.271,331.7 254.24,330.234 255.219,329.022 259.171,328.749 265.518,327.271 271.013,324.853 275.719,321.532 279.698,317.343 283.01,312.324 285.72,306.511 287.888,299.942 289.576,292.653 290.848,284.68 291.763,276.06 292.37,267.069 293.83,265.924 294.448,265.548 293.026,264.328 292.51,263.729 292.778,257.028 293,246.688 293.115,235.848 293.185,224.546 293.159,211.647 293.133,198.748 293.128,196.072 293.509,195.69 294.987,194.463 295.731,193.957 295.473,193.574 294.825,192.387 294.114,190.711 293.705,189.401 293.329,187.568 293.186,186.165 293.186,184.278 293.329,182.877 293.706,181.042 294.115,179.733 294.827,178.058 295.474,176.872 296.265,175.703 294.619,174.635 293.206,173.323 293.082,173.179 293.082,172.95 293.056,160.052 293.004,134.254 292.978,121.355 292.966,115.084 293.407,113.376 293.951,111.839 295.265,108.962 296.15,107.43 296.355,107.142 296.191,107.137 296,107.125 294.613,106.932 294.462,106.899 292.948,106.327 292.901,82.6588 292.875,69.76 292.797,31.0636 292.771,18.1648 304.525,18.0893 307.248,18.0718 307.251,18.0735 307.251,18.0718 316.278,18.0137 328.031,17.9382 339.784,17.8626 351.538,17.787 363.291,17.7115 375.044,17.6359 380.423,17.6013 381.3,18.1171 385.743,21.3787 386.604,19.634 387.23,18.906 389.017,17.5461 410.304,17.4092 422.057,17.3337 433.81,17.2581 443.92,17.1931 444.017,17.2624 445.301,18.436 445.376,18.3213 446.307,17.1778 457.317,17.107 469.07,17.0314 480.823,16.9559 " fill="none" stroke-width="0.5" stroke="rgb(0,0,0)" />
	<polygon points="307.26,468.289 307.426,468.336 307.751,468.476 307.563,467.843 " fill="none" stroke-width="0.5" stroke="rgb(0,0,0)" />
	<polygon points="194.245,444.449 194.541,445.598 194.664,445.625 196.11,445.858 197.498,446.002 198.571,446.044 200.005,445.965 201.294,445.738 202.359,445.389 203.138,444.977 203.5,444.679 203.013,444.715 201.591,444.712 195.373,444.223 194.096,444.012 " fill="none" stroke-width="0.5" stroke="rgb(0,0,0)" />
	<polygon points="317.309,421.921 317.33,421.977 317.707,423.224 318.038,424.676 318.112,425.035 318.259,425.821 318.514,426.005 319.098,426.462 319.964,427.198 320.91,428.138 321.036,428.018 321.506,427.597 322.215,427.006 322.882,426.498 323.582,426.013 324.538,425.433 324.995,425.192 324.752,424.327 324.404,421.809 324.404,419.582 " fill="none" stroke-width="0.5" stroke="rgb(0,0,0)" />
	<polygon points="167.904,413.393 167.911,414.749 167.7,417.835 168.77,417.777 168.983,416.672 169.078,416.353 169.948,414.351 170.105,414.08 170.251,413.888 168.76,413.106 168.032,412.682 167.839,412.557 " fill="none" stroke-width="0.5" stroke="rgb(0,0,0)" />
	<polygon points="260.097,405.725 260.514,405.933 260.149,405.597 " fill="none" stroke-width="0.5" stroke="rgb(0,0,0)" />
	<polygon points="205.267,391.255 205.322,391.198 205.237,391.188 " fill="none" stroke-width="0.5" stroke="rgb(0,0,0)" />
	<polygon points="82.9685,369.178 82.2761,369.227 82.4997,370.704 83.5279,369.928 83.6386,369.858 83.1475,369.352 83.0039,369.173 " fill="none" stroke-width="0.5" stroke="rgb(0,0,0)" />
	<polygon points="389.992,346.15 389.911,346.157 389.981,346.356 390.355,346.042 " fill="none" stroke-width="0.5" stroke="rgb(0,0,0)" />
	<polygon points="60.5136,341.382 60.9801,342.132 61.1546,341.603 61.3771,341.11 60.9226,340.978 60.4429,340.802 " fill="none" stroke-width="0.5" stroke="rgb(0,0,0)" />
	<polygon points="158.214,339.521 156.742,340.657 157.767,341.386 158.348,341.867 158.349,341.853 158.528,340.089 158.631,339.359 158.683,339.072 " fill="none" stroke-width="0.5" stroke="rgb(0,0,0)" />
	<polygon points="416.053,339.235 416.103,339.239 416.052,339.141 " fill="none" stroke-width="0.5" stroke="rgb(0,0,0)" />
	<polygon points="166.192,326.92 166.285,326.877 166.227,326.789 " fill="none" stroke-width="0.5" stroke="rgb(0,0,0)" />
	<polygon points="76.1429,315.904 75.8825,318.315 76.6503,317.482 77.9907,316.283 79.1158,315.458 78.7525,315.222 77.3234,314.081 76.7615,313.532 " fill="none" stroke-width="0.5" stroke="rgb(0,0,0)" />
	<polygon points="161.222,300.528 160.752,300.59 161.265,301.613 161.449,300.474 " fill="none" stroke-width="0.5" stroke="rgb(0,0,0)" />
	<polygon points="162.105,252.955 162.281,253.677 162.646,255.488 162.725,255.936 162.885,256.994 164.492,253.949 164.62,253.795 162.54,253.312 162.103,252.95 " fill="none" stroke-width="0.5" stroke="rgb(0,0,0)" />
	<polygon points="91.1887,217.455 91.4405,218.223 91.7459,219.427 92.5977,219.151 93.3266,219.029 96.1626,218.991 96.8064,219.082 98.4179,219.545 98.5109,218.925 98.8461,217.45 98.1512,217.527 96.1018,217.525 92.9126,217.169 90.8712,216.698 " fill="none" stroke-width="0.5" stroke="rgb(0,0,0)" />
	<polygon points="433.125,216.125 432.282,216.286 431.294,216.429 432.674,217.573 433.334,218.26 435.143,215.64 " fill="none" stroke-width="0.5" stroke="rgb(0,0,0)" />
	<polygon points="108.013,166.208 106.54,167.206 105.354,167.853 104.961,168.02 105.52,168.399 106.474,169.143 109.473,171.809 110.424,172.789 111.802,174.436 112.68,173.204 113.754,172.029 111.784,170.228 110.49,168.769 108.42,165.872 " fill="none" stroke-width="0.5" stroke="rgb(0,0,0)" />
	<polygon points="423.701,146.434 420.96,148.886 420.666,149.097 425.597,150.555 427.314,151.255 429.926,152.638 429.433,150.922 429.324,148.585 427.703,147.872 426.053,146.936 424.694,145.969 424.353,145.654 " fill="none" stroke-width="0.5" stroke="rgb(0,0,0)" />
	<polygon points="357.271,143.293 357.329,143.293 357.275,143.246 " fill="none" stroke-width="0.5" stroke="rgb(0,0,0)" />
	<polygon points="312.444,128.349 312.039,128.884 311.817,129.308 311.482,130.366 311.92,130.436 312.841,130.482 312.983,130.478 313.334,130.451 313.293,130.357 313.164,129.983 312.829,128.74 312.753,128.354 312.719,128.085 " fill="none" stroke-width="0.5" stroke="rgb(0,0,0)" />
	<polygon points="178.851,121.558 177.268,121.917 177.511,122.547 178.625,121.772 179.187,121.438 " fill="none" stroke-width="0.5" stroke="rgb(0,0,0)" />
	<polygon points="90.9732,118.675 89.6345,119.544 87.2964,120.791 84.7174,121.71 82.9564,122.056 82.9797,122.466 83.5975,122.204 84.9064,121.794 86.7419,121.418 88.145,121.275 90.0294,121.274 91.4344,121.417 92.6614,121.669 92.3639,119.445 92.3392,119.244 92.1715,117.741 " fill="none" stroke-width="0.5" stroke="rgb(0,0,0)" />
	<polygon points="186.036,115.27 185.7,115.915 184.54,117.64 184.089,118.17 182.315,119.781 182.144,119.9 182.882,119.529 184.336,118.947 187.557,117.962 189.058,117.658 186.708,114.883 186.404,114.504 186.369,114.459 " fill="none" stroke-width="0.5" stroke="rgb(0,0,0)" />
	<polygon points="102.924,65.418 102.692,65.6098 101.129,66.8624 101.59,66.7028 103.648,66.4936 103.626,66.1394 103.573,64.8622 " fill="none" stroke-width="0.5" stroke="rgb(0,0,0)" />
	<polygon points="398.99,38.3314 399.474,39.4949 399.985,39.2795 402.16,38.5285 401.705,38.3562 398.504,37.4457 " fill="none" stroke-width="0.5" stroke="rgb(0,0,0)" />
</svg>
