<?xml version="1.0" standalone="no" ?>
<!DOCTYPE svg PUBLIC "-//W3C//DTD SVG 1.1//EN" "http://www.w3.org/Graphics/SVG/1.1/DTD/svg11.dtd">
<svg width="500px" height="500px" xmlns="http://www.w3.org/2000/svg" version="1.1" >
	<polygon points="480.823,28.7831 480.323,29.409 479.862,30.1616 479.52,30.8968 479.306,31.5322 479.217,31.9455 479.212,32.0027 479.342,33.7141 479.742,35.6532 480.418,38.0396 480.823,39.3875 480.823,74.8821 478.857,79.5349 477.856,81.191 472.54,87.663 471.279,88.8494 464.245,93.9338 463.035,94.6301 458.64,96.5866 459.425,96.9114 460.112,97.2917 460.945,96.3602 465.934,95.4385 468.42,95.9489 469.605,96.3081 471.7,97.1601 472.925,97.8121 474.648,98.9712 475.759,99.9068 477.128,101.338 477.989,102.451 479.022,104.121 479.588,105.264 480.304,107.137 480.612,108.198 480.823,109.234 480.823,117.346 480.469,119.63 479.969,121.331 478.709,124.172 479.302,124.502 480.823,125.753 480.823,187.516 480.263,188.67 477.987,191.303 476.408,192.377 472.958,193.537 471.001,193.351 469.599,193.007 472.88,195.733 473.58,196.406 477.582,200.848 478.329,201.849 480.823,205.935 480.823,242.609 477.873,247.632 477.538,248.146 473.354,253.982 473.271,254.095 473.023,254.426 474.704,254.338 476.173,254.491 477.737,254.846 478.996,255.294 480.566,256.097 480.823,256.275 480.823,281.286 480.282,290.934 478.568,293.596 478.141,294.186 475.564,297.374 475.018,297.972 472.06,300.847 470.87,301.494 471.819,302.735 472.438,303.708 474.353,307.375 474.75,308.296 476.194,312.476 476.435,313.363 476.784,315.118 473.11,329.62 467.07,347.047 459.27,364.67 456.785,369.222 454.104,370.709 450.467,370.564 447.434,368.551 447.245,368.15 447.805,369.981 448.071,371.33 448.776,378.892 448.719,380.589 448.062,384.683 438.331,399.399 425.161,415.952 410.17,431.593 402.902,437.837 401.691,437.633 399.928,437.079 398.435,436.374 397.258,435.663 395.843,434.598 395.033,433.879 394.816,433.653 394.888,434.098 395.136,437.375 395.054,439.051 393.939,445.404 393.879,445.588 393.345,446.047 374.668,459.037 354.126,470.285 331.702,479.516 326.055,481.127 325.845,481.088 322.727,480.202 321.471,479.705 318.808,478.328 317.652,477.572 315.453,475.786 314.481,474.815 312.755,472.702 312.012,471.58 310.769,469.221 310.271,468.003 309.519,465.48 309.269,464.203 309.016,461.597 308.998,460.504 309.033,459.975 307.902,462.592 307.29,463.707 304.523,467.78 303.067,469.328 301.774,470.327 302.214,470.295 303.078,470.265 303.851,470.282 304.722,470.352 306.051,470.594 306.721,470.787 308.281,471.459 308.775,471.75 310.253,472.929 310.598,473.294 311.639,474.737 311.861,475.152 312.401,476.48 312.527,476.919 312.735,477.924 312.791,478.363 312.842,479.011 312.855,479.426 312.625,481.397 312.227,482.869 311.003,485.298 310.879,485.455 307.382,486.452 281.151,490.817 269.028,491.47 268.275,491.038 267.366,490.412 265.54,488.921 264.731,488.139 264.026,487.334 262.174,488.277 261.794,488.456 257.63,490.262 257.236,490.418 252.811,492.014 252.389,492.151 251.946,492.279 225.548,490.902 199.887,486.773 184.584,482.556 184.543,482.528 179.785,479.148 175.781,476.336 172.607,474.55 170.529,473.952 167.427,473.645 163.271,473.414 162.861,473.379 158.108,472.823 157.219,472.658 156.757,472.54 153.907,471.407 136.617,462.268 130.516,456.353 128.682,453.209 128.736,450.264 127.437,450.381 126.104,450.369 116.738,449.353 115.039,448.212 98.2672,434.295 83.2685,419.161 72.1359,405.608 71.5586,400.988 71.5279,399.614 71.7991,396.218 71.5463,396.33 67.9362,395.864 65.7329,394.355 63.9632,392.535 61.8976,391.099 58.5824,386.23 48.8916,368.927 40.9666,351.394 35.1275,334.794 35.4593,331.659 35.7254,330.368 38.6937,320.807 39.0781,319.84 42.7287,312.386 41.7571,312.648 37.9687,312.571 35.9996,311.952 33.253,310.286 31.4344,308.468 30.2991,306.959 28.6657,304.003 28.2833,303.149 27.7694,299.888 26.8905,283.906 26.8905,242.191 28.2151,237.659 28.5048,236.859 30.1665,233.041 30.9498,231.692 32.7883,229.233 33.1301,228.961 33.026,228.935 30.7941,228.04 29.1444,227.09 27.2275,225.589 26.8905,225.245 26.8905,185.578 26.9448,185.463 26.8905,185.388 26.8905,172.111 26.9694,171.696 27.5997,168.105 27.68,167.715 28.6561,163.598 28.8705,162.876 30.4426,158.493 30.8752,157.531 33.3018,153.098 34.0268,152.031 37.5661,147.762 37.7649,147.568 36.9435,147.411 34.408,146.671 33.1906,146.183 30.9044,144.996 29.7883,144.269 27.8026,142.675 26.8905,141.779 26.8905,113.268 28.4334,111.728 29.2217,111.053 31.1412,109.652 32.0002,109.118 33.6997,108.232 33.3292,108.158 32.2706,107.857 31.7062,107.645 30.526,107.066 30.0411,106.766 28.8486,105.828 28.4535,105.438 27.4373,104.156 27.1423,103.674 26.8905,103.123 26.8905,94.7982 27.5181,92.8709 28.3069,91.2364 31.4495,86.4863 30.3938,86.5286 29.795,86.435 27.6598,85.7212 27.1666,85.458 26.8905,85.2505 26.8905,62.1855 27.067,61.9638 27.7704,61.2252 28.0894,60.9413 26.8905,60.2756 26.8905,43.476 27.3522,43.0241 28.0855,42.4023 31.9762,39.5531 32.3044,39.3273 36.7644,36.4492 36.8537,36.3925 39.5562,34.708 39.24,34.6298 39.2042,34.6208 34.9048,33.5316 34.5341,33.4264 30.7836,32.2448 29.766,31.8304 27.1131,30.489 26.8905,30.288 26.8905,19.5757 38.3822,19.4875 49.8739,19.3993 61.3656,19.3111 72.8572,19.223 78.9403,19.1763 80.6448,20.9162 80.9889,19.653 81.2411,19.1586 84.3489,19.1348 95.8406,19.0466 107.332,18.9584 114.299,18.905 115.563,20.3129 115.724,20.4986 116.955,21.9743 117.644,22.6175 117.96,22.7802 118.805,22.9017 119.601,22.7877 119.984,22.5966 120.761,21.9139 122.076,20.4629 122.25,20.2781 123.662,18.8331 130.316,18.7821 141.807,18.6939 153.299,18.6057 155.321,18.5902 155.485,18.8594 156.472,22.3631 155.931,24.8987 157.129,23.4765 160.043,21.3744 161.232,20.6888 165.641,18.7135 166.18,18.5069 176.282,18.4294 187.774,18.3412 210.757,18.1648 210.739,27.215 209.215,28.8873 207.64,29.9435 208.139,30.0072 209.311,30.2299 210.712,30.6583 210.733,30.667 210.732,31.0636 210.706,43.9624 210.683,56.011 209.066,56.626 208.049,56.8071 205.935,56.8471 205.812,56.8299 209.616,61.1912 210.162,61.9095 210.67,62.6782 210.656,69.76 210.63,82.6588 210.628,83.7557 210.616,83.764 209.484,84.3696 208.613,84.7334 207.51,85.0868 206.507,85.3156 205.48,85.4678 204.352,85.5472 203.195,85.5292 199.213,85.1238 198.397,84.9898 197.616,84.8119 198.45,85.4134 198.64,85.5558 203.443,89.2846 203.622,89.4285 207.918,93.0038 208.146,93.2026 210.605,95.4436 210.579,108.456 210.554,121.355 210.551,122.8 210.025,123.255 208.861,124.019 207.581,124.555 207.812,124.716 209.009,125.781 210.542,127.511 210.503,147.153 210.478,160.052 210.453,172.566 209.856,174.295 209.403,175.32 208.015,177.869 207.372,178.839 205.591,181.081 204.74,181.971 202.598,183.837 201.529,184.599 199.06,186.018 199.004,186.044 201.231,187.021 202.336,187.635 204.734,189.278 205.777,190.16 207.75,192.206 208.642,193.357 210.127,195.774 210.406,196.367 210.401,198.748 210.376,211.647 210.371,214.2 210.117,214.808 209.953,215.172 209.268,216.573 209.104,216.888 208.342,218.26 208.179,218.537 207.353,219.869 204.679,222.325 205.12,222.659 205.63,223.086 208.366,225.617 208.855,226.118 210.376,227.851 210.438,235.84 210.602,246.657 210.899,256.963 211.097,260.949 209.768,262.68 209.618,262.869 207.408,265.543 205.799,267.683 205.095,268.999 205.005,269.456 205.095,269.918 205.57,270.689 206.966,272.101 209.2,273.983 209.317,274.083 211.787,276.262 212.204,276.682 213.138,284.482 214.519,292.41 216.167,299.089 216.003,299.489 216.295,299.608 216.308,299.661 218.563,306.2 221.336,311.994 224.685,317.011 228.665,321.215 233.33,324.575 238.737,327.056 244.939,328.626 247.82,328.881 248.217,329.406 248.911,330.541 250.42,333.665 250.842,334.78 251.755,338.041 251.946,338.967 252.014,339.477 255.521,332.9 256.225,331.836 258.689,328.782 259.171,328.749 265.518,327.271 271.013,324.853 275.719,321.532 279.698,317.343 283.01,312.324 284.059,310.075 284.822,309.835 284.52,309.086 285.72,306.511 287.888,299.942 288.353,297.934 288.447,297.814 289.038,296.875 289.511,295.86 289.885,294.663 290.145,293.17 290.251,291.206 290.226,290.293 290.148,289.26 290.136,289.144 290.848,284.68 291.763,276.06 292.097,271.119 293.033,269.95 293.897,269.089 295.155,268.103 296.167,267.488 297.6,266.832 298.743,266.463 299.37,266.333 298.774,265.901 294.687,262.393 293.368,260.862 292.669,259.749 292.778,257.028 293,246.688 293.115,235.848 293.163,228.173 293.807,226.785 293.932,226.53 295.566,223.368 296.066,222.831 295.142,222.066 294.248,221.172 293.176,219.876 293.159,211.647 293.136,199.888 294.246,198.546 295.137,197.652 296.616,196.426 297.672,195.706 299.362,194.777 299.535,194.702 299.29,194.457 298.434,193.421 297.711,192.353 297.064,191.166 296.548,189.95 296.138,188.64 295.865,187.31 295.722,185.906 295.723,184.537 295.866,183.135 296.139,181.804 296.549,180.495 297.065,179.279 297.712,178.093 298.435,177.025 299.291,175.99 300.195,175.087 300.652,174.71 299.789,174.663 298.304,174.031 296.354,172.766 294.941,171.455 293.964,170.321 293.074,169.019 293.056,160.052 293.004,134.254 292.997,130.812 293.608,129.86 295.639,128.051 295.432,127.33 295.357,127.048 295.178,126.303 295.112,125.999 294.966,125.238 294.911,124.91 294.801,124.136 294.761,123.781 294.692,122.999 294.669,122.612 294.645,121.826 294.666,121.049 294.917,118.106 295.107,116.99 295.876,114.014 296.271,112.899 297.585,110.021 298.227,108.909 300.113,106.261 301.039,105.211 303.524,102.924 304.72,102.044 307.831,100.248 309.196,99.6499 310.125,99.36 310.106,99.2721 309.974,98.5708 309.912,98.1732 309.782,97.1394 309.677,97.232 309.634,97.2701 307.232,99.3566 307.02,99.5334 304.742,101.354 304.199,101.745 302.212,103.033 300.594,103.799 299.064,104.287 296.962,104.607 296.726,104.605 296.351,104.592 296.16,104.58 295.153,104.44 295.003,104.407 293.143,103.704 293.029,103.641 292.942,103.566 292.91,87.1879 292.91,87.1866 292.991,87.0345 294.593,84.1119 296.002,81.5322 295.608,81.4771 293.704,81.1488 292.897,80.9176 292.875,69.76 292.862,63.2898 292.937,63.2352 295.071,61.7718 295.673,61.3429 294.345,60.7439 293.926,60.5374 292.855,59.9621 292.821,43.0693 293.573,42.6441 293.768,42.5378 295.665,41.5455 295.881,41.427 295.135,40.2788 293.191,37.4305 293.166,37.3939 292.809,36.8624 292.797,31.0636 292.771,18.1648 301.797,18.1068 301.808,18.112 305.094,19.8046 305.231,19.8774 308.676,21.7533 309.196,22.0278 309.199,21.941 309.241,21.3956 309.352,20.4607 309.454,19.8461 309.627,19.0392 309.822,18.3223 309.91,18.0547 316.278,18.0137 327.41,17.9422 327.775,18.3102 328.798,18.0144 329.032,17.9317 339.784,17.8626 351.538,17.787 363.291,17.7115 374.601,17.6388 378.612,19.4791 379.791,20.1727 386.001,24.731 387.074,25.7135 387.119,25.7644 387.36,23.2624 388.537,21.2967 389.164,20.5686 391.402,18.8649 393.162,18.0343 393.982,17.7114 394.609,17.5101 410.304,17.4092 422.057,17.3337 433.81,17.2581 439.166,17.2237 440.95,18.1874 442.297,19.1445 444.322,20.9962 445.657,22.6792 445.72,22.7914 446.584,21.1081 447.354,19.9311 448.796,18.1598 449.805,17.1574 449.807,17.1553 457.317,17.107 469.07,17.0314 480.823,16.9559 " fill="none" stroke-width="0.5" stroke="rgb(0,0,0)" />
	<polygon points="191.449,444.123 191.776,445.085 192.457,447.73 192.726,447.809 194.187,448.131 195.776,448.387 197.316,448.546 198.591,448.596 200.297,448.503 201.915,448.218 203.36,447.745 204.56,447.109 205.522,446.317 206.318,445.286 206.993,443.804 207.421,441.829 202.823,442.172 201.791,442.17 195.573,441.681 194.431,441.492 189.826,440.315 " fill="none" stroke-width="0.5" stroke="rgb(0,0,0)" />
	<polygon points="160.97,432.343 157.971,437.001 157.014,438.173 152.82,442.273 151.531,443.26 148.344,445.14 148.351,445.139 152.236,444.307 155.264,443.072 157.53,441.544 159.19,439.757 160.392,437.623 161.173,434.988 161.482,431.51 161.48,431.35 " fill="none" stroke-width="0.5" stroke="rgb(0,0,0)" />
	<polygon points="325.783,416.443 316.279,419.575 314.852,419.88 313.591,420.008 314.453,421.587 314.947,422.885 315.221,423.789 315.551,425.242 315.605,425.502 315.857,426.856 315.966,427.314 316.082,427.397 316.116,427.421 317.024,428.075 317.448,428.406 318.314,429.142 319.069,429.892 319.802,430.747 320.674,432.057 320.948,431.744 321.122,431.552 321.842,430.789 322.085,430.544 322.8,429.86 323.141,429.555 323.849,428.963 324.333,428.594 325.034,428.11 325.728,427.688 326.418,427.324 327.408,426.899 328.086,426.671 328.455,426.587 327.556,424.878 327.207,423.637 326.954,421.809 326.954,415.909 " fill="none" stroke-width="0.5" stroke="rgb(0,0,0)" />
	<polygon points="378.193,417.615 378.191,417.773 378.18,418.28 379.57,417.906 381.14,418.089 382.561,418.414 384.194,418.979 385.458,419.569 387.07,420.535 388.172,421.359 389.234,422.337 389.197,421.207 389.226,420.733 389.364,419.735 389.429,419.433 388.93,419.38 387.712,419.135 384.151,418.071 383.198,417.705 379.859,416.125 379.085,415.694 378.193,415.119 " fill="none" stroke-width="0.5" stroke="rgb(0,0,0)" />
	<polygon points="165.362,413.591 165.367,414.575 165.046,419.259 164.912,420.215 164.726,421.082 167.596,420.144 170.837,420.818 171.227,421.008 171.189,420.77 171.133,419.124 171.165,418.756 171.425,417.406 171.521,417.087 172.151,415.634 172.309,415.363 173.32,414.036 173.537,413.815 174.487,413.048 173.132,412.488 172.579,412.229 169.943,410.848 169.415,410.54 166.988,408.973 166.459,408.593 164.876,407.34 " fill="none" stroke-width="0.5" stroke="rgb(0,0,0)" />
	<polygon points="244.29,411.839 243.511,416.815 242.936,418.675 242.629,419.32 244.343,415.84 245.533,411.655 245.149,411.599 244.319,411.372 " fill="none" stroke-width="0.5" stroke="rgb(0,0,0)" />
	<polygon points="258.672,400.791 258.577,401.803 258.328,403.086 258.053,404.017 257.551,405.249 257.111,406.082 256.538,406.947 257.594,407.358 258.162,407.609 261.021,409.036 261.46,409.276 264.242,410.933 264.608,411.167 267.226,412.963 267.561,413.208 269.925,415.053 270.266,415.338 272.288,417.143 272.685,417.528 272.853,417.704 272.877,417.699 274.162,417.478 274.443,417.435 275.777,417.263 276.043,417.234 277.426,417.11 277.677,417.093 279.11,417.019 279.346,417.01 280.828,416.986 281.097,416.987 281.773,417.002 279.422,416.233 278.083,415.627 269.477,410.534 268.337,409.684 261.235,403.129 260.348,402.13 258.684,399.834 " fill="none" stroke-width="0.5" stroke="rgb(0,0,0)" />
	<polygon points="363.882,399.917 365.06,400.169 365.833,400.384 367.058,400.803 367.182,399.178 " fill="none" stroke-width="0.5" stroke="rgb(0,0,0)" />
	<polygon points="349.329,395.214 348.707,396.253 346.432,399.377 347.627,399.169 348.407,399.079 352.915,398.828 353.535,398.821 357.06,398.949 356.731,398.805 355.654,398.07 354.377,396.938 353.398,395.819 352.701,394.866 351.845,393.448 351.433,392.651 351.022,391.707 " fill="none" stroke-width="0.5" stroke="rgb(0,0,0)" />
	<polygon points="207.111,388.696 205.774,388.682 200.637,388.115 201.029,388.73 202.866,392.115 203.284,393.045 204.425,396.21 204.522,396.596 206.655,393.443 208.21,391.814 212.165,388.864 213.903,388.093 " fill="none" stroke-width="0.5" stroke="rgb(0,0,0)" />
	<polygon points="308.768,393.569 308.264,393.717 305.052,394.526 304.433,394.652 300.725,395.224 300.04,395.294 295.944,395.504 297.605,395.953 304.34,396.537 307.61,396.402 310.559,396.013 311.435,395.805 310.416,394.388 310.161,393.556 310.134,393.109 " fill="none" stroke-width="0.5" stroke="rgb(0,0,0)" />
	<polygon points="222.085,386.445 222.403,386.426 223.448,386.506 224.229,386.613 225.018,386.767 224.944,385.848 224.944,385.604 " fill="none" stroke-width="0.5" stroke="rgb(0,0,0)" />
	<polygon points="246.267,368.787 242.201,374.253 241.532,374.978 242.178,375.308 243.063,375.9 244.171,376.827 244.914,377.599 245.261,378.033 246.156,378.058 247.401,378.183 248.254,378.361 247.292,374.813 247.084,373.649 246.599,368.235 " fill="none" stroke-width="0.5" stroke="rgb(0,0,0)" />
	<polygon points="83.7627,366.495 83.4763,366.539 82.6348,366.65 81.8232,366.708 79.5098,366.732 78.5757,366.649 78.6322,366.731 79.7454,369.547 80.6977,375.835 80.8107,375.699 81.5091,374.977 84.0176,372.742 84.8933,372.082 87.3725,370.51 87.9317,370.229 87.5077,369.934 86.022,368.668 85.1359,367.756 84.0788,366.439 " fill="none" stroke-width="0.5" stroke="rgb(0,0,0)" />
	<polygon points="172.102,373.569 172.328,374.145 172.54,374.162 172.836,374.171 173.279,374.165 173.474,374.159 173.245,373.92 171.604,371.876 " fill="none" stroke-width="0.5" stroke="rgb(0,0,0)" />
	<polygon points="353.83,364.596 355.591,366.262 356.516,370.425 356.279,372.729 356.72,372.52 357.418,372.236 358.987,371.699 359.514,371.542 361.196,371.115 361.805,370.913 360.221,370.095 359.083,369.354 357.492,368.072 356.521,367.113 355.24,365.561 354.486,364.434 354.318,364.118 " fill="none" stroke-width="0.5" stroke="rgb(0,0,0)" />
	<polygon points="324.122,367.285 323.429,368.384 322.463,369.63 322.349,369.751 323.482,369.724 327.027,369.494 329.764,369.199 329.36,369.04 326.743,367.698 325.559,366.925 324.669,366.199 " fill="none" stroke-width="0.5" stroke="rgb(0,0,0)" />
	<polygon points="276.671,367.072 276.983,367 277.127,366.264 " fill="none" stroke-width="0.5" stroke="rgb(0,0,0)" />
	<polygon points="295.414,357.419 293.966,358.072 291.249,358.93 292.146,359.416 294.015,360.802 294.163,360.915 296.478,362.734 297.071,363.138 296.912,362.301 296.768,360.764 296.746,359.814 296.799,358.708 296.845,358.177 296.984,357.087 297.039,356.728 297.098,356.405 " fill="none" stroke-width="0.5" stroke="rgb(0,0,0)" />
	<polygon points="117.674,354.496 116.826,354.893 116.845,356.463 116.73,357.791 116.318,359.981 115.93,361.293 115.194,363.091 116.392,362.872 120.643,362.488 121.992,362.501 123.734,362.693 122.873,362.083 121.776,361.14 120.613,359.845 119.946,358.875 119.09,357.142 118.759,356.125 118.45,354.591 118.407,354.073 " fill="none" stroke-width="0.5" stroke="rgb(0,0,0)" />
	<polygon points="441.341,355.587 442.201,356.781 445.249,362.172 445.423,362.579 444.825,359.122 442.858,356.018 439.657,353.525 439.344,353.368 " fill="none" stroke-width="0.5" stroke="rgb(0,0,0)" />
	<polygon points="394.785,340.502 394.582,340.672 393.434,341.595 392.84,342.021 391.819,342.674 390.102,343.458 389.267,343.705 386.511,343.931 386.342,343.91 386.612,344.472 387.741,347.671 388.083,349.156 388.312,351.173 388.939,350.556 393.551,346.692 395.17,345.686 398.58,344.187 398.3,343.886 397.023,342.348 396.871,342.157 395.523,340.409 395.268,340.082 " fill="none" stroke-width="0.5" stroke="rgb(0,0,0)" />
	<polygon points="58.0506,342.25 61.353,347.561 62.3981,348.595 62.3897,347.774 62.5415,346.28 63.0329,344.005 63.4787,342.652 64.4072,340.596 65.0609,339.458 65.1262,339.366 62.7121,338.848 61.8015,338.585 59.3328,337.678 58.1892,337.132 57.3661,336.638 " fill="none" stroke-width="0.5" stroke="rgb(0,0,0)" />
	<polygon points="164.426,296.837 163.48,297.248 162.209,297.687 160.888,298 159.704,298.156 158.259,298.192 157.902,298.162 156.764,297.968 156.357,297.862 155.94,297.713 157.983,300.851 158.362,301.511 162.419,309.613 162.989,311.244 164.528,318.549 164.646,320.538 164.394,323.379 164.193,324.52 163.442,327.335 163.048,328.426 161.811,331.106 161.203,332.161 159.489,334.597 158.632,335.593 156.452,337.678 155.327,338.546 152.69,340.17 151.613,340.678 151.974,340.829 152.874,341.285 155.333,342.776 156.14,343.35 158.49,345.296 159.142,345.914 161.149,348.086 160.836,345.339 160.796,344.355 160.855,342.571 160.886,342.111 161.065,340.346 161.14,339.817 161.446,338.139 161.6,337.481 162.039,335.957 162.356,335.087 162.935,333.784 163.611,332.601 164.335,331.588 165.774,330.113 166.65,329.456 169.212,328.27 170.125,328.063 167.469,324.042 166.807,322.761 164.508,316.826 164.107,315.249 163.292,308.915 163.246,307.693 163.415,304.535 163.491,303.819 163.984,300.772 164.134,300.077 164.929,297.154 165.146,296.492 165.163,296.447 " fill="none" stroke-width="0.5" stroke="rgb(0,0,0)" />
	<polygon points="316.336,342.726 315.541,343.032 316.041,343.309 316.928,343.909 317.312,342.255 " fill="none" stroke-width="0.5" stroke="rgb(0,0,0)" />
	<polygon points="416.568,332.308 415.502,332.511 413.715,332.705 413.478,332.726 412.706,332.782 412.961,334.198 412.979,334.303 413.203,335.672 413.239,335.926 413.398,337.196 413.44,337.673 413.5,338.801 413.507,339.354 413.497,339.688 413.465,340.18 413.431,340.515 413.324,341.203 413.257,341.525 413.249,341.555 418.075,341.966 419.212,342.162 421.39,342.732 419.677,340.787 418.167,337.845 416.926,332.472 416.908,332.214 " fill="none" stroke-width="0.5" stroke="rgb(0,0,0)" />
	<polygon points="127.15,336.184 127.296,337.648 127.276,339.886 127.209,340.503 128.294,339.976 129.146,339.632 130.908,339.056 129.959,338.369 128.053,336.668 127.172,335.714 127.002,335.491 " fill="none" stroke-width="0.5" stroke="rgb(0,0,0)" />
	<polygon points="379.646,335.531 379.794,335.637 379.807,335.316 " fill="none" stroke-width="0.5" stroke="rgb(0,0,0)" />
	<polygon points="385.33,310.686 384.348,312.399 383.478,314.276 382.855,315.983 382.652,317.032 382.451,319.222 382.277,322.174 382.089,325.359 382.075,325.548 381.833,328.33 382.291,327.224 382.316,327.165 383.468,324.46 384.547,321.717 385.421,319.029 385.984,316.497 386.196,313.955 386.172,312.671 386.065,310.955 385.927,309.841 " fill="none" stroke-width="0.5" stroke="rgb(0,0,0)" />
	<polygon points="322.184,325.862 321.551,326.293 321.76,326.599 322.071,327.203 322.188,325.856 " fill="none" stroke-width="0.5" stroke="rgb(0,0,0)" />
	<polygon points="121.813,324.72 121.126,325.043 121.172,325.081 122.716,326.635 122.739,326.663 122.602,325.965 122.441,324.342 " fill="none" stroke-width="0.5" stroke="rgb(0,0,0)" />
	<polygon points="74.5552,311.887 73.6278,315.443 73.3211,318.283 73.3511,319.345 73.4776,320.544 73.7095,321.639 74.0812,322.718 74.6614,323.882 74.8984,324.236 75.2162,323.587 76.3205,321.789 77.1079,320.748 78.5257,319.209 79.4985,318.34 81.1996,317.092 82.3073,316.433 84.2615,315.509 84.636,315.374 84.2335,315.255 83.0384,314.773 81.4444,313.945 80.3435,313.229 78.9144,312.088 77.9502,311.146 76.7415,309.703 75.9713,308.565 75.8398,308.32 " fill="none" stroke-width="0.5" stroke="rgb(0,0,0)" />
	<polygon points="343.509,312.596 342.449,314.001 341.66,314.803 341.065,315.273 341.637,315.596 346.497,318.908 347.388,319.634 351.077,323.203 351.563,322.093 351.796,321.615 352.59,320.133 352.578,320.13 352.291,320.055 350.442,319.53 349.491,319.18 348.184,318.585 345.442,316.299 344.946,315.587 343.754,312.166 " fill="none" stroke-width="0.5" stroke="rgb(0,0,0)" />
	<polygon points="96.8109,314.868 96.5661,314.944 98.0158,315.459 97.9239,315.192 97.7387,314.463 " fill="none" stroke-width="0.5" stroke="rgb(0,0,0)" />
	<polygon points="428.606,313.023 428.599,313.154 428.632,313.14 429.143,312.985 428.638,312.933 428.609,312.93 " fill="none" stroke-width="0.5" stroke="rgb(0,0,0)" />
	<polygon points="405.036,307.643 406.625,309.558 408.257,311.181 408.142,310.995 405.798,307.887 404.124,306.273 " fill="none" stroke-width="0.5" stroke="rgb(0,0,0)" />
	<polygon points="131.31,300.248 131.451,301.149 131.977,307.12 131.971,308.359 131.953,308.553 133.932,308.329 134.112,308.346 135.834,308.744 135.983,308.8 136.766,309.254 135.482,306.588 131.072,299.199 " fill="none" stroke-width="0.5" stroke="rgb(0,0,0)" />
	<polygon points="345.867,306.407 345.319,306.4 345.325,306.502 345.232,307.645 346.273,306.38 " fill="none" stroke-width="0.5" stroke="rgb(0,0,0)" />
	<polygon points="312.165,304.517 309.236,306.485 311.034,306.718 311.653,306.827 313.437,307.23 313.207,306.723 312.678,304.913 312.573,304.188 " fill="none" stroke-width="0.5" stroke="rgb(0,0,0)" />
	<polygon points="108.895,299.866 108.971,299.894 109.156,299.997 109.087,298.993 " fill="none" stroke-width="0.5" stroke="rgb(0,0,0)" />
	<polygon points="434.71,293.319 433.759,294.65 433.67,294.772 432.666,296.112 432.873,296.229 434.782,297.26 434.939,297.348 436.373,298.171 435.197,294.283 434.812,293.164 " fill="none" stroke-width="0.5" stroke="rgb(0,0,0)" />
	<polygon points="458.928,288.475 458.089,288.863 457.078,289.701 455.832,291.206 454.811,292.785 456.377,292.831 459.566,293.345 460.777,293.733 460.777,293.542 460.708,292.122 460.514,290.803 460.203,289.601 459.833,288.69 459.637,288.376 " fill="none" stroke-width="0.5" stroke="rgb(0,0,0)" />
	<polygon points="87.8042,283.632 87.7468,283.745 85.392,288.279 84.8434,289.337 86.457,290.185 86.9786,290.6 87.6334,291.194 88.198,291.779 88.4426,292.032 88.7176,291.363 89.1684,289.171 89.4839,285.86 89.6376,281.578 89.6495,279.91 " fill="none" stroke-width="0.5" stroke="rgb(0,0,0)" />
	<polygon points="56.4064,279.13 56.6736,279.552 57.1409,280.273 57.1854,280.343 57.6305,281.048 57.7689,281.278 58.1604,281.957 58.3845,282.379 58.7103,283.05 58.9816,283.691 59.2294,284.372 59.4757,285.216 59.6333,285.926 59.6374,285.954 59.7512,285.745 60.4355,282.765 60.4331,282.756 60.4075,282.692 60.3615,282.607 60.2614,282.465 60.0676,282.246 59.5263,281.745 59.5105,281.731 57.5885,279.94 57.1887,279.535 55.9638,278.183 " fill="none" stroke-width="0.5" stroke="rgb(0,0,0)" />
	<polygon points="171.342,279.11 171.584,279.472 171.904,280.001 172.114,280.388 172.423,281.035 172.588,281.436 172.869,282.266 172.978,282.671 173.085,283.263 174.319,281.95 174.515,281.832 174.167,281.562 171.236,278.965 " fill="none" stroke-width="0.5" stroke="rgb(0,0,0)" />
	<polygon points="427.894,278.748 427.427,279.619 426.855,280.191 427.84,279.977 429.571,279.863 428.243,277.062 428.242,277.061 " fill="none" stroke-width="0.5" stroke="rgb(0,0,0)" />
	<polygon points="167.589,274.861 168.143,275.705 168.609,276.262 168.766,276.401 167.203,274.153 " fill="none" stroke-width="0.5" stroke="rgb(0,0,0)" />
	<polygon points="340.172,273.978 339.423,274.785 339.232,275.539 339.695,275.74 340.322,275.906 340.319,275.865 340.279,275.32 340.264,275.035 340.249,274.546 340.268,273.924 " fill="none" stroke-width="0.5" stroke="rgb(0,0,0)" />
	<polygon points="157.162,226.071 156.155,227.825 155.572,229.022 157.009,230.845 157.522,233.725 157.462,235.152 157.442,235.453 157.283,237.275 157.27,237.417 157.045,239.488 157.037,239.554 156.78,241.73 156.778,241.745 156.522,243.863 156.306,245.737 156.168,247.146 156.13,247.85 156.147,248.38 157.612,249.263 159.188,252.033 159.653,253.657 159.781,254.181 160.146,255.992 160.204,256.318 160.495,258.246 160.52,258.428 160.765,260.406 160.772,260.468 160.993,262.399 161.206,264.145 161.33,264.959 162.28,265.282 164.578,268.171 163.935,265.358 164.027,261.989 165.169,258.016 166.456,255.575 169.466,251.94 170.413,251.002 171.56,250.072 169.724,251.002 166.154,251.711 162.734,250.463 160.46,247.62 160.071,243.577 160.31,242.449 160.517,241.379 160.698,240.312 160.852,239.248 160.976,238.188 161.068,237.131 161.124,236.076 161.142,235.123 161.047,233.184 160.756,231.35 160.229,229.508 159.41,227.614 158.222,225.628 157.766,225.047 " fill="none" stroke-width="0.5" stroke="rgb(0,0,0)" />
	<polygon points="420.738,267.508 420.711,267.567 422.117,267.946 422.665,268.138 422.362,267.702 421.228,266.386 " fill="none" stroke-width="0.5" stroke="rgb(0,0,0)" />
	<polygon points="405.631,256.566 405.875,256.885 406.435,257.661 406.534,257.585 407.698,256.648 406.876,256.333 405.012,255.809 " fill="none" stroke-width="0.5" stroke="rgb(0,0,0)" />
	<polygon points="129.023,240.398 128.894,242.37 128.865,243.721 130.225,253.472 131.579,257.063 131.504,256.435 132.067,252.839 133.1,251.724 133.092,251.656 132.729,250.156 132.084,248.065 131.272,245.627 131.256,245.578 130.421,243.004 130.349,242.77 129.621,240.212 129.506,239.748 129.239,238.474 " fill="none" stroke-width="0.5" stroke="rgb(0,0,0)" />
	<polygon points="447.596,253.211 447.599,253.218 448.864,256.362 449.717,254.849 449.778,254.743 450,254.367 447.503,252.981 " fill="none" stroke-width="0.5" stroke="rgb(0,0,0)" />
	<polygon points="382.643,244.972 382.023,246.135 381.259,247.273 380.434,248.266 379.46,249.222 378.455,250.027 377.327,250.759 377,250.927 377.033,250.961 378.151,252.331 378.43,252.698 378.701,253.08 378.76,253.018 379.018,252.761 380.206,251.641 380.955,251.03 382.081,250.238 384.088,249.276 385.127,248.976 386.93,248.798 385.415,247.731 383.622,245.859 382.802,244.582 " fill="none" stroke-width="0.5" stroke="rgb(0,0,0)" />
	<polygon points="393.786,252.648 394.034,252.533 393.614,252.368 " fill="none" stroke-width="0.5" stroke="rgb(0,0,0)" />
	<polygon points="359.433,247.425 358.362,248.147 358.232,248.218 361.638,249.484 363.104,251.339 363.137,251.258 363.29,250.97 363.526,250.662 362.522,249.994 361.533,249.19 360.607,248.274 359.779,247.281 359.717,247.19 " fill="none" stroke-width="0.5" stroke="rgb(0,0,0)" />
	<polygon points="313.546,224.938 312.337,225.455 310.478,226.043 309.138,226.321 308.627,226.374 309.04,227.653 310.139,228.889 312.406,230.237 315.902,231.756 316.151,231.87 319.951,233.707 321.163,234.461 324.428,237.006 326.068,238.861 328.353,242.676 328.622,243.425 329.033,243.168 330.183,242.594 331.351,242.144 332.297,241.864 331.356,240.133 330.841,238.916 330.136,236.655 329.865,235.328 329.827,234.951 328.971,235.126 327.566,235.268 326.2,235.268 324.806,235.125 323.474,234.852 322.171,234.444 320.954,233.927 319.772,233.282 318.704,232.558 317.671,231.704 316.767,230.8 315.914,229.765 315.191,228.696 314.546,227.51 314.031,226.294 313.622,224.984 313.606,224.905 " fill="none" stroke-width="0.5" stroke="rgb(0,0,0)" />
	<polygon points="189.461,234.639 188.75,235.973 187.462,237.846 187.857,237.491 189.671,234.929 190.148,232.909 " fill="none" stroke-width="0.5" stroke="rgb(0,0,0)" />
	<polygon points="464.682,220.168 464.645,220.436 464.169,223.377 464.147,223.506 463.601,226.507 463.598,226.523 463.062,229.433 462.615,232.078 462.327,234.287 462.252,235.602 462.38,235.418 463.741,232.926 464.854,230.185 465.577,227.398 465.822,224.773 465.279,219.911 464.854,218.748 " fill="none" stroke-width="0.5" stroke="rgb(0,0,0)" />
	<polygon points="379.119,228.956 379.297,229.098 379.355,228.762 " fill="none" stroke-width="0.5" stroke="rgb(0,0,0)" />
	<polygon points="46.2967,228.057 46.3814,228.125 46.6455,228.399 46.8025,227.871 " fill="none" stroke-width="0.5" stroke="rgb(0,0,0)" />
	<polygon points="85.4762,213.598 85.6993,213.773 86.8143,214.88 87.2771,215.462 87.9897,216.561 88.346,217.25 88.7656,218.25 89.0175,219.018 89.2443,219.912 89.3939,220.733 89.4917,221.55 89.541,222.398 89.5162,223.211 90.4087,222.636 91.1455,222.272 93.0198,221.666 93.7488,221.544 95.8072,221.516 96.451,221.607 98.2628,222.128 98.8745,222.401 100.38,223.327 100.623,223.524 100.848,220.486 100.998,219.49 101.839,215.79 102.125,214.85 102.33,214.323 100.87,214.662 97.8723,214.992 96.3848,214.991 93.1956,214.635 91.6816,214.286 88.8174,213.266 87.4363,212.589 86.651,212.085 " fill="none" stroke-width="0.5" stroke="rgb(0,0,0)" />
	<polygon points="442.852,210.723 442.482,210.856 438.173,212.267 437.65,212.415 432.529,213.645 431.918,213.763 425.895,214.633 425.247,214.695 424.238,214.742 425.994,215.596 427.352,216.472 431.045,219.536 432.096,220.628 433.877,222.956 434.745,220.936 435.392,219.767 437.915,216.113 438.556,215.32 441.541,212.151 442.138,211.589 443.474,210.478 " fill="none" stroke-width="0.5" stroke="rgb(0,0,0)" />
	<polygon points="133.623,218.799 130.93,219.652 132.358,220.941 132.796,222.41 132.845,222.138 132.944,221.675 133.602,219.062 133.684,218.787 " fill="none" stroke-width="0.5" stroke="rgb(0,0,0)" />
	<polygon points="64.3888,216.453 64.2351,216.581 65.3401,217.309 65.8569,217.777 66.999,219.121 67.3987,219.741 68.0152,220.946 68.1753,221.356 68.3128,221.078 70.8324,216.791 70.4755,216.729 68.4039,216.187 67.2439,215.767 65.4972,214.947 " fill="none" stroke-width="0.5" stroke="rgb(0,0,0)" />
	<polygon points="188.152,213.169 189.069,214.541 190.278,216.942 190.802,218.358 190.813,218.402 192.12,217.4 194.832,217.105 194.544,216.065 194.014,215.055 193.332,214.27 192.331,213.539 190.819,212.842 188.691,212.253 187.177,212.037 " fill="none" stroke-width="0.5" stroke="rgb(0,0,0)" />
	<polygon points="381.5,200.218 380.983,201.434 380.301,202.681 379.578,203.747 378.677,204.837 378.335,205.178 378.589,205.349 379.804,206.351 380.717,207.263 381.288,207.954 381.594,206.623 384.135,204.017 385.85,203.574 382.551,200.885 381.601,199.898 " fill="none" stroke-width="0.5" stroke="rgb(0,0,0)" />
	<polygon points="55.9244,205.259 55.8905,205.283 56.1369,205.23 57.381,204.947 57.1936,204.354 57.1714,204.246 " fill="none" stroke-width="0.5" stroke="rgb(0,0,0)" />
	<polygon points="366.658,169.095 365.674,169.905 364.599,170.629 364.079,170.91 364.286,171.216 365.325,173.114 365.843,174.33 366.501,176.423 366.777,177.759 367.007,179.998 367.006,181.365 367.596,181.304 368.976,181.303 370.254,181.433 370.039,180.894 367.273,172.046 367.073,171.227 366.684,169.068 " fill="none" stroke-width="0.5" stroke="rgb(0,0,0)" />
	<polygon points="146.367,174.969 145.473,175.206 143.23,175.638 143.439,175.809 146.833,179.054 147.371,179.633 147.428,179.702 147.49,179.304 147.729,178.296 148.688,175.3 149.322,173.966 " fill="none" stroke-width="0.5" stroke="rgb(0,0,0)" />
	<polygon points="108.327,162.482 107.423,163.387 106.388,164.243 105.318,164.968 104.132,165.614 102.915,166.131 101.607,166.54 100.276,166.813 98.8745,166.956 98.3372,166.956 100.124,167.877 100.826,168.294 104.087,170.509 104.78,171.048 107.778,173.714 108.469,174.426 111.057,177.519 111.717,178.459 112.142,179.19 112.572,178.173 113.615,176.254 114.562,174.925 115.949,173.407 117.337,172.247 117.779,171.969 117.599,171.867 116.397,170.99 113.504,168.346 112.565,167.287 110.343,164.176 109.69,163.045 109.041,161.617 " fill="none" stroke-width="0.5" stroke="rgb(0,0,0)" />
	<polygon points="309.85,170.449 309.16,171.522 310.103,171.522 311.51,171.665 312.837,171.936 313.265,172.069 313.48,171.378 313.733,170.777 312.42,170.509 311.957,170.398 310.121,169.887 " fill="none" stroke-width="0.5" stroke="rgb(0,0,0)" />
	<polygon points="161.903,166.883 162.202,166.886 163.93,167.224 164.036,167.26 163.427,165.657 " fill="none" stroke-width="0.5" stroke="rgb(0,0,0)" />
	<polygon points="344.733,163.324 344.833,163.292 344.937,163.271 344.9,163.152 " fill="none" stroke-width="0.5" stroke="rgb(0,0,0)" />
	<polygon points="423.249,143.041 422.001,144.533 419.26,146.985 418.097,147.821 414.482,149.878 413.519,150.33 413.095,150.489 417.146,150.853 418.455,151.103 424.874,153 426.12,153.508 431.806,156.52 432.798,157.162 434.561,158.537 434.25,157.947 433.73,156.656 431.885,150.219 431.863,146.744 431.409,146.625 430.408,146.276 428.729,145.538 427.532,144.858 426.172,143.891 424.91,142.725 424.065,141.716 " fill="none" stroke-width="0.5" stroke="rgb(0,0,0)" />
	<polygon points="355.078,136.941 355.135,138.061 355.113,139.04 354.487,145.641 354.367,146.226 355.65,145.966 356.991,145.831 358.343,145.831 359.683,145.966 361.005,146.234 362.253,146.621 363.472,147.135 364.601,147.747 365.678,148.473 366.662,149.284 366.952,149.574 367.33,149.112 367.388,149.058 368.312,148.43 365.111,146.554 364.079,145.811 358.743,141.142 357.927,140.291 355.059,136.725 " fill="none" stroke-width="0.5" stroke="rgb(0,0,0)" />
	<polygon points="129.531,135.565 129.206,135.805 128.865,136.107 125.7,137.644 125.919,138.109 126.421,139.609 126.899,141.903 126.951,142.183 127.345,144.573 127.507,145.251 128.009,144.422 128.566,143.151 128.86,142.255 129.173,141.169 129.441,140.091 129.661,139.033 129.831,138.007 129.952,137.026 130.023,136.103 130.046,135.261 130.045,135.239 " fill="none" stroke-width="0.5" stroke="rgb(0,0,0)" />
	<polygon points="102.655,139.609 102.524,140.249 102.915,140.371 104.131,140.887 105.317,141.533 106.386,142.256 107.078,142.828 107.482,141.269 107.559,141.032 104.814,140.346 102.694,139.229 " fill="none" stroke-width="0.5" stroke="rgb(0,0,0)" />
	<polygon points="327.512,141.875 327.501,141.988 327.931,141.881 327.511,141.468 " fill="none" stroke-width="0.5" stroke="rgb(0,0,0)" />
	<polygon points="315.021,124.171 313.642,124.544 312.435,125.106 311.392,125.824 310.532,126.65 309.879,127.514 309.454,128.323 309.049,129.603 307.731,131.617 308.754,132.163 309.717,132.553 310.661,132.817 311.653,132.975 312.815,133.034 313.12,133.025 313.607,132.987 314.191,132.923 314.846,132.839 315.53,132.746 315.585,132.739 316.24,132.656 316.419,132.636 317.008,132.577 317.38,132.55 317.537,132.544 317.062,131.991 316.82,131.661 316.278,130.786 316.093,130.431 315.704,129.524 315.575,129.15 315.331,128.248 315.256,127.862 315.142,126.987 315.118,126.594 315.14,125.469 315.217,124.726 315.332,124.144 " fill="none" stroke-width="0.5" stroke="rgb(0,0,0)" />
	<polygon points="92.1142,114.522 91.6694,114.9 89.4062,116.663 88.4346,117.294 86.0965,118.541 84.2246,119.208 81.8232,119.681 80.2709,119.749 80.455,122.983 80.4642,123.516 80.4325,124.943 80.4197,125.235 80.3286,126.623 80.3047,126.9 80.2921,127.019 80.8853,126.527 81.955,125.803 83.1412,125.155 84.3593,124.638 85.6682,124.228 87.0004,123.954 88.4035,123.811 89.7712,123.811 91.1763,123.954 92.5067,124.227 93.8176,124.637 95.0346,125.153 95.7777,125.558 95.6851,125.041 94.8914,119.107 94.8735,118.961 94.2249,113.151 94.1478,112.634 " fill="none" stroke-width="0.5" stroke="rgb(0,0,0)" />
	<polygon points="184.935,108.831 184.893,109.722 184.816,110.468 184.684,111.294 184.467,112.223 184.237,112.967 183.775,114.091 183.439,114.737 182.596,115.988 182.145,116.519 180.858,117.688 180.285,118.087 178.698,118.905 177.993,119.156 176.42,119.514 175.576,119.601 173.288,119.419 173.762,120.202 174.288,121.275 175.975,125.656 176.261,126.617 176.448,126.45 177.08,125.952 180.08,123.866 180.906,123.375 184.026,121.808 185.081,121.386 188.303,120.401 189.581,120.142 192.886,119.8 194.329,119.806 194.453,119.82 193.308,118.69 192.898,118.247 188.654,113.235 188.433,112.96 184.912,108.332 " fill="none" stroke-width="0.5" stroke="rgb(0,0,0)" />
	<polygon points="425.148,124.886 425.239,125.258 425.367,125.119 425.589,124.923 425.014,124.434 " fill="none" stroke-width="0.5" stroke="rgb(0,0,0)" />
	<polygon points="124.408,112.206 122.825,118.539 122.795,118.656 122.492,119.781 122.806,119.265 123.433,118.397 126.216,115.126 126.992,114.352 128.039,113.465 127.905,113.363 127.023,112.565 125.521,110.942 125.223,110.598 124.948,110.257 " fill="none" stroke-width="0.5" stroke="rgb(0,0,0)" />
	<polygon points="419.735,112.421 419.597,112.054 419.441,111.896 " fill="none" stroke-width="0.5" stroke="rgb(0,0,0)" />
	<polygon points="411.412,103.743 413.727,105.134 415.871,107.1 416.759,108.093 418.766,110.841 417.469,108.504 417.614,104.867 418.491,103.544 416.323,103.522 416.191,103.52 412.858,103.422 412.73,103.417 410.13,103.29 " fill="none" stroke-width="0.5" stroke="rgb(0,0,0)" />
	<polygon points="39.7435,107.87 40.5186,108.143 40.6471,107.703 " fill="none" stroke-width="0.5" stroke="rgb(0,0,0)" />
	<polygon points="349.275,107.635 349.396,108.005 349.476,107.934 349.924,107.569 350.112,107.429 350.168,107.389 349.124,107.31 " fill="none" stroke-width="0.5" stroke="rgb(0,0,0)" />
	<polygon points="390.356,101.271 392,102.559 393.044,103.677 393.746,104.568 394.591,105.851 394.641,105.928 394.777,106.14 395.451,105.98 396.835,105.527 398.457,104.917 400.169,104.254 400.341,104.19 401.992,103.602 402.475,103.45 403.994,103.034 404.618,102.913 402.296,102.713 402.171,102.701 398.745,102.341 398.619,102.327 395.193,101.902 395.065,101.886 391.647,101.396 391.555,101.382 391.08,101.307 390.515,101.193 390.13,101.098 389.937,101.037 " fill="none" stroke-width="0.5" stroke="rgb(0,0,0)" />
	<polygon points="145.743,101.946 145.166,105.169 145.068,105.612 145.265,105.582 149.395,105.28 150.647,105.305 151.634,105.417 149.684,103.75 145.962,100.757 " fill="none" stroke-width="0.5" stroke="rgb(0,0,0)" />
	<polygon points="379.655,99.8591 380.009,99.7685 380.578,99.6417 380.992,99.563 381.551,99.4747 381.97,99.4219 382.516,99.3703 382.938,99.3437 383.47,99.3269 384.702,99.4009 386.667,99.701 387.733,100.066 387.565,99.959 386.23,98.8336 386.064,98.6529 384.999,97.0998 384.891,96.8821 384.626,96.1398 " fill="none" stroke-width="0.5" stroke="rgb(0,0,0)" />
	<polygon points="70.4834,93.1847 65.4743,95.8211 64.2796,96.4802 64.899,96.6614 68.2815,98.2212 69.7754,99.1831 69.7862,99.0945 70.0742,96.8791 70.0755,96.8694 70.358,94.7206 70.5436,93.1579 " fill="none" stroke-width="0.5" stroke="rgb(0,0,0)" />
	<polygon points="126.271,63.7864 125.54,67.2542 125.448,67.6369 124.601,70.744 124.074,72.0889 124.061,72.1153 126.43,73.6502 126.548,73.773 126.548,73.7694 126.631,73.1646 126.802,72.2263 127.061,71.2401 127.323,70.4821 128.065,68.973 128.434,68.4115 130.189,66.6016 130.645,66.2806 130.406,65.9777 130.225,65.7372 128.497,63.3318 126.892,61.2064 " fill="none" stroke-width="0.5" stroke="rgb(0,0,0)" />
	<polygon points="104.848,60.4854 103.114,61.8978 101.265,63.4809 101.097,63.6201 99.3158,65.048 98.6684,65.5071 97.0505,66.5171 96.4809,66.7651 96.6315,67.1473 96.8209,67.8066 97.0176,68.731 97.1253,69.4976 97.1858,70.1722 97.2199,71.0422 97.2111,71.7404 97.1966,71.9653 98.0613,71.1868 100.367,69.8256 102.425,69.1122 106.058,68.8914 106.42,69.056 106.191,66.3162 106.173,66.0337 106.031,62.5917 105.768,59.8525 " fill="none" stroke-width="0.5" stroke="rgb(0,0,0)" />
	<polygon points="400.73,59.1625 400.726,60.4207 400.69,60.8 400.927,60.7086 401.181,60.6368 402.393,60.4109 402.656,60.3865 405.746,60.8239 406.856,61.2593 408.71,62.3556 410.088,63.5034 410.474,63.8508 412.101,65.4324 413.85,67.0739 415.618,68.494 417.375,69.5606 419.093,70.2071 421.176,70.4699 421.377,70.4605 421.96,70.372 422.456,70.227 422.748,70.0827 422.846,70.0026 422.913,69.9103 423.072,69.4776 423.125,68.9741 422.715,67.6113 421.125,65.9696 417.563,63.8625 412.782,61.8818 407.636,60.1755 402.954,58.7369 402.636,58.6307 400.616,57.8985 " fill="none" stroke-width="0.5" stroke="rgb(0,0,0)" />
	<polygon points="162.943,47.2623 162.81,47.6047 161.914,49.2035 164.411,50.0522 164.596,50.1181 168.072,51.414 165.907,49.231 163.137,46.4777 " fill="none" stroke-width="0.5" stroke="rgb(0,0,0)" />
	<polygon points="145.072,51.199 145.34,50.8391 145.366,50.8122 144.882,50.7 " fill="none" stroke-width="0.5" stroke="rgb(0,0,0)" />
	<polygon points="89.186,48.7139 89.1916,48.7322 89.2093,48.71 " fill="none" stroke-width="0.5" stroke="rgb(0,0,0)" />
	<polygon points="396.754,39.557 397.307,40.8853 397.955,43.0744 397.998,43.0387 399.993,42.0374 400.818,41.6898 403.79,40.6632 404.231,40.5274 407.893,39.5373 408.207,39.4603 409.761,39.1191 406.837,37.5745 402.507,35.9332 398.512,34.7967 395.139,33.9526 394.635,33.8054 393.369,33.3815 " fill="none" stroke-width="0.5" stroke="rgb(0,0,0)" />
	<polygon points="70.0322,40.3956 70.022,40.402 69.2364,40.8916 70.8769,41.0627 71.1043,41.0845 71.4025,39.5381 " fill="none" stroke-width="0.5" stroke="rgb(0,0,0)" />
	<polygon points="153.238,28.7136 152.269,29.3952 151.229,29.996 150.075,30.5322 152.467,32.0261 153.692,32.7669 153.959,28.1475 154.327,27.3939 " fill="none" stroke-width="0.5" stroke="rgb(0,0,0)" />
	<polygon points="82.1343,28.3969 81.3303,30.5595 80.9033,31.2317 83.9413,30.1065 84.8831,29.7245 84.1506,29.3294 82.3198,27.483 " fill="none" stroke-width="0.5" stroke="rgb(0,0,0)" />
</svg>
