<?xml version="1.0" standalone="no" ?>
<!DOCTYPE svg PUBLIC "-//W3C//DTD SVG 1.1//EN" "http://www.w3.org/Graphics/SVG/1.1/DTD/svg11.dtd">
<svg width="500px" height="500px" xmlns="http://www.w3.org/2000/svg" version="1.1" >
	<polygon points="480.823,80.8731 479.71,82.7142 474.395,89.1862 472.684,90.7944 468.828,93.5825 468.903,93.598 470.509,94.0849 472.604,94.9369 474.264,95.8207 475.988,96.9798 477.493,98.248 478.862,99.6795 480.03,101.188 480.823,102.47 480.823,191.568 479.337,193.288 477.758,194.362 475.68,195.151 479.365,199.241 480.377,200.598 480.823,201.329 480.823,247.348 479.942,248.847 479.489,249.545 477.481,252.344 478.542,252.585 479.802,253.033 480.823,253.556 480.823,281.286 480.015,295.685 480.008,295.695 477.43,298.883 476.691,299.694 474.235,302.079 474.565,302.597 476.48,306.264 477.018,307.512 477.843,309.899 477.405,312.666 473.11,329.62 467.07,347.047 459.27,364.67 454.78,372.896 451.105,373.177 450.636,372.983 451.165,378.67 451.135,379.575 449.695,382.213 438.331,399.399 425.161,415.952 410.17,431.593 400.628,439.791 398.902,439.249 397.462,438.569 397.418,439.465 396.781,443.095 393.345,446.047 374.668,459.037 354.126,470.285 331.702,479.516 321.707,482.367 320.369,481.837 317.706,480.46 316.139,479.434 315.222,478.689 315.241,478.936 315.254,479.351 314.942,482.023 314.544,483.495 314.006,484.563 307.382,486.452 281.151,490.817 265.124,491.68 264.022,490.78 263.513,490.288 263.263,490.416 262.749,490.658 259.72,491.971 252.993,492.333 225.548,490.902 199.887,486.773 177.798,480.686 174.5,478.369 171.674,476.779 170.074,476.318 167.242,476.038 165.284,475.929 153.907,471.407 133.585,460.665 128.186,457.039 126.565,454.492 126.395,452.76 125.845,452.755 121.026,452.232 115.039,448.212 98.2672,434.295 83.2685,419.161 70.0408,403.057 69.2541,401.902 69.1771,401.286 69.1356,399.423 69.1965,398.66 69.0336,398.67 65.948,397.047 58.5824,386.23 48.8916,368.927 40.9666,351.394 34.8057,333.879 33.5957,329.133 36.4017,320.096 36.9227,318.784 38.8285,314.893 37.2483,314.861 35.2792,314.241 31.556,311.983 29.7374,310.165 29.2965,309.579 27.7694,299.888 26.8905,283.906 26.8905,234.554 27.9658,232.083 29.0277,230.255 29.2839,229.912 27.6648,228.979 26.8905,228.373 26.8905,161.287 28.1836,157.683 28.77,156.379 31.1965,151.946 32.1793,150.499 33.516,148.887 32.085,148.313 29.7988,147.126 28.2859,146.14 26.8905,145.02 26.8905,109.899 27.8063,109.115 28.5135,108.599 27.1622,107.536 26.8905,107.268 26.8905,89.0275 27.4693,88.1526 26.8905,87.9591 26.8905,40.3026 30.5582,37.6167 31.003,37.3107 33.586,35.6439 30.0624,34.5338 28.683,33.9721 26.8905,33.0658 26.8905,19.5757 38.3822,19.4875 49.8739,19.3993 61.3656,19.3111 72.8572,19.223 84.3489,19.1348 95.8406,19.0466 107.332,18.9584 117.497,18.8804 117.567,18.9612 118.702,20.322 118.816,20.4282 119.074,20.2012 120.291,18.859 130.316,18.7821 141.807,18.6939 153.299,18.6057 157.845,18.5708 158.221,19.7298 158.639,19.4279 160.156,18.5531 164.791,18.5175 176.282,18.4294 187.774,18.3412 210.757,18.1648 210.732,31.0636 210.706,43.9624 210.681,56.8612 210.678,58.5358 210.532,58.5911 210.677,58.7571 210.656,69.76 210.63,82.6588 210.623,86.4697 210.409,86.5838 209.539,86.9476 208.044,87.4268 207.041,87.6555 205.649,87.8619 205.504,87.8721 209.453,91.1592 209.762,91.4287 210.611,92.2024 210.579,108.456 210.554,121.355 210.503,147.153 210.478,160.052 210.452,172.95 210.441,178.432 210.123,179.017 209.251,180.332 207.47,182.574 206.316,183.781 204.175,185.647 203.933,185.819 206.091,187.299 207.504,188.494 209.477,190.54 210.415,191.75 210.401,198.748 210.376,211.647 210.36,219.56 210.219,219.801 209.393,221.133 208.264,222.254 209.996,223.855 210.351,224.22 210.35,224.546 210.438,235.84 210.602,246.657 210.899,256.963 211.28,264.625 209.293,267.029 207.828,268.978 207.626,269.355 208.595,270.335 210.746,272.147 210.905,272.284 211.894,273.156 212.112,275.909 213.138,284.482 214.519,292.41 216.308,299.661 218.563,306.2 221.336,311.994 224.685,317.011 228.665,321.215 233.33,324.575 238.737,327.056 244.939,328.626 250.86,329.15 251.072,329.497 252.581,332.622 252.734,333.025 253.403,331.771 254.357,330.329 255.423,329.008 259.171,328.749 265.518,327.271 271.013,324.853 275.719,321.532 279.698,317.343 283.01,312.324 285.72,306.511 287.888,299.942 289.576,292.653 290.848,284.68 291.763,276.06 292.357,267.269 293.908,266.052 294.703,265.569 293.124,264.214 292.519,263.512 292.778,257.028 293,246.688 293.115,235.848 293.185,224.546 293.159,211.647 293.133,198.748 293.128,196.283 293.605,195.805 295.083,194.579 295.939,193.996 295.604,193.502 294.957,192.315 294.257,190.666 293.848,189.357 293.478,187.553 293.335,186.149 293.335,184.293 293.478,182.892 293.849,181.086 294.258,179.778 294.958,178.129 295.605,176.943 296.473,175.662 294.721,174.525 293.308,173.213 293.082,172.95 293.056,160.052 293.004,134.254 292.978,121.355 292.967,115.679 293.552,113.414 294.088,111.902 295.402,109.024 296.272,107.517 296.639,107.002 296.201,106.987 296.009,106.975 294.645,106.785 294.494,106.752 292.948,106.168 292.901,82.6588 292.875,69.76 292.797,31.0636 292.771,18.1648 304.525,18.0893 306.938,18.0738 307.345,18.2958 307.407,18.0708 316.278,18.0137 328.031,17.9382 339.784,17.8626 351.538,17.787 363.291,17.7115 375.044,17.6359 380.132,17.6032 381.211,18.238 385.788,21.5978 386.718,19.7318 387.344,19.0038 389.261,17.5445 410.304,17.4092 422.057,17.3337 433.81,17.2581 443.665,17.1948 443.916,17.3731 445.329,18.6653 445.492,18.416 446.501,17.1765 457.317,17.107 469.07,17.0314 480.823,16.9559 " fill="none" stroke-width="0.5" stroke="rgb(0,0,0)" />
	<polygon points="307.02,468.375 307.385,468.481 307.993,468.743 307.972,468.689 307.616,467.498 " fill="none" stroke-width="0.5" stroke="rgb(0,0,0)" />
	<polygon points="194.1,444.486 194.419,445.725 194.636,445.773 196.091,446.006 197.487,446.151 198.573,446.194 200.022,446.114 201.33,445.884 202.418,445.528 203.222,445.102 203.787,444.636 203.893,444.499 203.002,444.566 201.603,444.563 195.385,444.074 193.875,443.823 " fill="none" stroke-width="0.5" stroke="rgb(0,0,0)" />
	<polygon points="317.113,421.827 317.19,422.031 317.561,423.257 317.891,424.709 317.965,425.062 318.122,425.908 318.426,426.127 319.001,426.576 319.867,427.312 320.89,428.33 320.907,428.349 321.14,428.126 321.602,427.712 322.311,427.121 322.967,426.621 323.667,426.136 324.608,425.565 325.172,425.268 324.896,424.287 324.554,421.809 324.554,419.375 " fill="none" stroke-width="0.5" stroke="rgb(0,0,0)" />
	<polygon points="167.755,413.405 167.761,414.739 167.538,417.995 168.891,417.94 169.126,416.715 169.222,416.396 170.077,414.426 170.235,414.156 170.477,413.837 168.829,412.973 168.114,412.556 167.666,412.267 " fill="none" stroke-width="0.5" stroke="rgb(0,0,0)" />
	<polygon points="259.906,405.798 261.391,406.538 260.092,405.34 " fill="none" stroke-width="0.5" stroke="rgb(0,0,0)" />
	<polygon points="205.221,391.518 205.649,391.069 205.51,391.068 204.994,391.011 " fill="none" stroke-width="0.5" stroke="rgb(0,0,0)" />
	<polygon points="82.9489,369.029 82.0804,369.091 82.1184,369.187 82.3896,370.979 82.4212,370.95 83.6082,370.055 83.8743,369.886 83.2644,369.258 83.068,369.014 " fill="none" stroke-width="0.5" stroke="rgb(0,0,0)" />
	<polygon points="390.785,345.759 389.949,346.006 389.706,346.026 389.912,346.61 391.099,345.615 " fill="none" stroke-width="0.5" stroke="rgb(0,0,0)" />
	<polygon points="60.3687,341.433 61.0216,342.483 61.2913,341.665 61.5849,341.014 60.9743,340.838 60.2643,340.577 " fill="none" stroke-width="0.5" stroke="rgb(0,0,0)" />
	<polygon points="158.11,339.412 156.585,340.59 156.472,340.66 156.577,340.724 157.671,341.502 158.478,342.17 158.498,341.868 158.677,340.104 158.779,339.386 158.914,338.644 " fill="none" stroke-width="0.5" stroke="rgb(0,0,0)" />
	<polygon points="415.897,338.674 415.905,339.372 416.355,339.411 415.888,338.501 " fill="none" stroke-width="0.5" stroke="rgb(0,0,0)" />
	<polygon points="165.966,327.186 166.505,326.937 166.168,326.427 " fill="none" stroke-width="0.5" stroke="rgb(0,0,0)" />
	<polygon points="75.9949,315.877 75.7247,318.379 75.7337,318.698 76.7606,317.583 78.0794,316.404 79.379,315.451 78.8461,315.105 77.417,313.964 76.6813,313.245 " fill="none" stroke-width="0.5" stroke="rgb(0,0,0)" />
	<polygon points="161.202,300.379 160.524,300.469 161.339,302.096 161.614,300.389 161.639,300.276 " fill="none" stroke-width="0.5" stroke="rgb(0,0,0)" />
	<polygon points="161.961,252.996 162.134,253.707 162.499,255.518 162.577,255.959 162.813,257.522 162.862,257.353 164.608,254.045 164.889,253.705 162.544,253.146 161.831,252.542 " fill="none" stroke-width="0.5" stroke="rgb(0,0,0)" />
	<polygon points="91.0462,217.502 91.298,218.27 91.6055,219.482 91.6307,219.62 92.6225,219.299 93.3515,219.177 96.1417,219.14 96.7855,219.23 98.5407,219.735 98.6572,218.958 99.0391,217.278 98.1348,217.378 96.1185,217.376 92.9292,217.02 90.877,216.547 90.6048,216.45 " fill="none" stroke-width="0.5" stroke="rgb(0,0,0)" />
	<polygon points="433.09,215.979 432.261,216.138 430.939,216.329 432.578,217.689 433.361,218.504 433.417,218.403 435.489,215.402 " fill="none" stroke-width="0.5" stroke="rgb(0,0,0)" />
	<polygon points="107.917,166.093 106.468,167.074 105.282,167.721 104.65,167.99 105.436,168.523 106.374,169.255 109.373,171.921 110.309,172.886 111.811,174.68 112.791,173.306 113.966,172.019 111.885,170.118 110.612,168.682 108.449,165.653 " fill="none" stroke-width="0.5" stroke="rgb(0,0,0)" />
	<polygon points="423.601,146.322 420.86,148.774 420.33,149.155 425.554,150.699 427.243,151.387 430.167,152.936 429.578,150.88 429.47,148.483 429.442,148.473 427.763,147.735 426.14,146.814 424.78,145.846 424.34,145.439 " fill="none" stroke-width="0.5" stroke="rgb(0,0,0)" />
	<polygon points="357.106,143.443 357.728,143.443 357.162,142.948 357.154,142.939 " fill="none" stroke-width="0.5" stroke="rgb(0,0,0)" />
	<polygon points="312.331,128.249 311.912,128.804 311.678,129.25 311.337,130.328 311.246,130.48 311.904,130.585 312.839,130.632 312.991,130.628 313.383,130.597 313.552,130.579 313.435,130.308 313.306,129.934 312.977,128.711 312.901,128.325 312.829,127.772 " fill="none" stroke-width="0.5" stroke="rgb(0,0,0)" />
	<polygon points="185.903,115.2 185.567,115.846 184.425,117.542 183.974,118.073 182.23,119.658 181.656,120.057 179.505,121.165 178.801,121.416 177.066,121.81 177.439,122.779 178.71,121.895 179.829,121.23 182.95,119.664 184.38,119.091 187.601,118.106 189.334,117.755 189.336,117.755 186.822,114.786 186.523,114.413 186.331,114.161 " fill="none" stroke-width="0.5" stroke="rgb(0,0,0)" />
	<polygon points="90.881,118.556 89.564,119.412 87.2258,120.659 84.6884,121.562 82.7992,121.935 82.8421,122.687 83.6423,122.347 84.9512,121.938 86.7571,121.567 88.1602,121.424 90.0142,121.424 91.4192,121.567 92.8379,121.857 92.5126,119.425 92.4883,119.227 92.2909,117.458 " fill="none" stroke-width="0.5" stroke="rgb(0,0,0)" />
	<polygon points="416.998,66.5242 418.429,67.3931 419.496,67.7945 416.488,66.0146 416.232,65.9086 " fill="none" stroke-width="0.5" stroke="rgb(0,0,0)" />
	<polygon points="102.826,65.304 102.598,65.4927 100.817,66.9206 100.241,67.3292 101.639,66.8446 103.809,66.6281 103.799,66.5161 103.776,66.1331 103.71,64.5474 " fill="none" stroke-width="0.5" stroke="rgb(0,0,0)" />
	<polygon points="398.858,38.4035 399.394,39.691 400.034,39.4213 402.6,38.535 401.752,38.2136 398.2,37.2033 " fill="none" stroke-width="0.5" stroke="rgb(0,0,0)" />
</svg>
