<?xml version="1.0" standalone="no" ?>
<!DOCTYPE svg PUBLIC "-//W3C//DTD SVG 1.1//EN" "http://www.w3.org/Graphics/SVG/1.1/DTD/svg11.dtd">
<svg width="500px" height="500px" xmlns="http://www.w3.org/2000/svg" version="1.1" >
	<polygon points="480.823,81.2556 479.865,82.8412 474.55,89.3131 472.802,90.9565 469.278,93.5036 470.584,93.8996 472.679,94.7517 474.376,95.6548 476.099,96.8138 477.638,98.1098 479.007,99.5413 480.2,101.083 480.823,102.09 480.823,191.863 479.45,193.453 477.871,194.527 476.024,195.234 479.514,199.107 480.548,200.494 480.823,200.945 480.823,247.742 480.115,248.949 479.651,249.661 477.819,252.217 478.609,252.397 479.869,252.845 480.823,253.334 480.823,281.286 479.996,296.028 477.586,299.009 476.83,299.837 474.491,302.11 474.742,302.504 476.658,306.171 477.207,307.447 477.91,309.479 477.405,312.666 473.11,329.62 467.07,347.047 459.27,364.67 454.672,373.094 451.167,373.389 450.863,373.268 451.364,378.651 451.347,379.188 449.695,382.213 438.331,399.399 425.161,415.952 410.17,431.593 400.451,439.943 398.817,439.43 397.645,438.877 397.615,439.5 397.02,442.89 393.345,446.047 374.668,459.037 354.126,470.285 331.702,479.516 321.393,482.456 320.277,482.015 317.614,480.638 316.013,479.59 315.447,479.13 315.454,479.345 315.135,482.075 314.737,483.547 314.262,484.49 307.382,486.452 281.151,490.817 264.828,491.696 263.895,490.935 263.478,490.531 263.354,490.594 262.829,490.841 260.294,491.94 252.993,492.333 225.548,490.902 199.887,486.773 177.225,480.528 174.393,478.538 171.597,476.965 170.037,476.516 167.226,476.237 165.869,476.162 153.907,471.407 133.585,460.665 127.774,456.763 126.391,454.602 126.217,452.957 125.824,452.953 121.383,452.472 115.039,448.212 98.2672,434.295 83.2685,419.161 70.0408,403.057 69.0073,401.54 68.9787,401.311 68.9362,399.407 68.9839,398.81 66.1526,397.347 58.5824,386.23 48.8916,368.927 40.9666,351.394 34.8057,333.879 33.5013,328.763 36.2106,320.036 36.743,318.696 38.5149,315.078 37.1882,315.051 35.2191,314.432 31.4146,312.125 29.596,310.306 29.3622,309.995 27.7694,299.888 26.8905,283.906 26.8905,234.052 27.7824,232.003 28.8675,230.135 28.9899,229.971 27.5415,229.137 26.8905,228.627 26.8905,160.695 27.9953,157.615 28.5946,156.283 31.0211,151.85 32.0254,150.371 33.1876,148.969 31.9929,148.49 29.7067,147.304 28.1607,146.296 26.8905,145.277 26.8905,109.636 27.6883,108.954 28.1835,108.592 27.0217,107.678 26.8905,107.549 26.8905,88.665 27.1603,88.2573 26.8905,88.1671 26.8905,40.0547 30.44,37.4554 30.8946,37.1427 33.1198,35.7068 30.0023,34.7246 28.5927,34.1506 26.8905,33.2899 26.8905,19.5757 38.3822,19.4875 49.8739,19.3993 61.3656,19.3111 72.8572,19.223 84.3489,19.1348 95.8406,19.0466 107.332,18.9584 117.758,18.8784 118.824,20.1552 118.934,20.0584 120.019,18.8611 130.316,18.7821 141.807,18.6939 153.299,18.6057 158.052,18.5693 158.326,19.4072 158.522,19.2657 159.753,18.5562 164.791,18.5175 176.282,18.4294 187.774,18.3412 210.757,18.1648 210.732,31.0636 210.706,43.9624 210.681,56.8612 210.656,69.76 210.63,82.6588 210.622,86.6958 210.487,86.7684 209.616,87.1321 208.088,87.6218 207.085,87.8505 205.986,88.0135 209.581,91.0055 209.897,91.2809 210.612,91.9323 210.579,108.456 210.554,121.355 210.503,147.153 210.478,160.052 210.452,172.95 210.44,178.851 210.298,179.112 209.408,180.456 207.627,182.698 206.448,183.932 204.306,185.797 204.281,185.816 206.204,187.134 207.648,188.355 209.621,190.401 210.416,191.426 210.401,198.748 210.376,211.647 210.359,219.954 209.563,221.238 208.552,222.247 210.132,223.709 210.352,223.934 210.35,224.546 210.438,235.84 210.602,246.657 210.899,256.963 211.294,264.921 209.45,267.153 207.997,269.086 207.872,269.319 208.731,270.188 210.875,271.994 211.037,272.134 211.871,272.869 212.112,275.909 213.138,284.482 214.519,292.41 216.308,299.661 218.563,306.2 221.336,311.994 224.685,317.011 228.665,321.215 233.33,324.575 238.737,327.056 244.939,328.626 251.106,329.171 251.252,329.41 252.761,332.535 252.765,332.543 253.226,331.677 254.201,330.203 255.151,329.026 259.171,328.749 265.518,327.271 271.013,324.853 275.719,321.532 279.698,317.343 283.01,312.324 285.72,306.511 287.888,299.942 289.576,292.653 290.848,284.68 291.763,276.06 292.375,267.003 293.804,265.881 294.364,265.542 292.994,264.366 292.507,263.801 292.778,257.028 293,246.688 293.115,235.848 293.185,224.546 293.159,211.647 293.133,198.748 293.128,196.001 293.477,195.652 294.955,194.425 295.662,193.943 295.429,193.598 294.781,192.411 294.067,190.726 293.657,189.416 293.279,187.573 293.136,186.17 293.136,184.273 293.279,182.872 293.658,181.027 294.068,179.718 294.783,178.034 295.43,176.848 296.196,175.717 294.585,174.672 293.172,173.36 293.082,173.255 293.082,172.95 293.056,160.052 293.004,134.254 292.978,121.355 292.965,114.885 293.358,113.364 293.906,111.819 295.22,108.941 296.109,107.401 296.26,107.189 296.188,107.187 295.997,107.174 294.602,106.981 294.452,106.948 292.948,106.38 292.901,82.6588 292.875,69.76 292.797,31.0636 292.771,18.1648 304.525,18.0893 316.278,18.0137 328.031,17.9382 339.784,17.8626 351.538,17.787 363.291,17.7115 375.044,17.6359 380.52,17.6007 381.329,18.0768 385.728,21.3055 386.566,19.6014 387.192,18.8734 388.935,17.5466 410.304,17.4092 422.057,17.3337 433.81,17.2581 444.005,17.1926 444.051,17.2255 445.292,18.3596 445.337,18.2897 446.242,17.1782 457.317,17.107 469.07,17.0314 480.823,16.9559 " fill="none" stroke-width="0.5" stroke="rgb(0,0,0)" />
	<polygon points="307.34,468.26 307.44,468.288 307.673,468.389 307.545,467.958 " fill="none" stroke-width="0.5" stroke="rgb(0,0,0)" />
	<polygon points="194.293,444.436 194.582,445.556 194.674,445.576 196.117,445.808 197.501,445.952 198.571,445.994 200,445.915 201.282,445.69 202.339,445.343 203.11,444.935 203.346,444.74 203.017,444.765 201.587,444.762 195.369,444.273 194.17,444.074 " fill="none" stroke-width="0.5" stroke="rgb(0,0,0)" />
	<polygon points="317.374,421.952 317.377,421.96 317.756,423.212 318.086,424.665 318.161,425.026 318.304,425.793 318.543,425.965 319.13,426.424 319.997,427.159 320.911,428.069 321.002,427.981 321.474,427.559 322.183,426.967 322.853,426.457 323.553,425.972 324.515,425.388 324.936,425.166 324.704,424.341 324.354,421.809 324.354,419.651 " fill="none" stroke-width="0.5" stroke="rgb(0,0,0)" />
	<polygon points="167.954,413.39 167.96,414.753 167.753,417.78 168.73,417.723 168.935,416.658 169.031,416.338 169.904,414.326 170.062,414.055 170.176,413.905 168.736,413.151 168.005,412.724 167.897,412.654 " fill="none" stroke-width="0.5" stroke="rgb(0,0,0)" />
	<polygon points="260.16,405.701 260.222,405.731 260.168,405.682 " fill="none" stroke-width="0.5" stroke="rgb(0,0,0)" />
	<polygon points="82.975,369.228 82.3337,369.273 82.5367,370.614 83.5011,369.886 83.5601,369.849 83.1085,369.384 82.9825,369.227 " fill="none" stroke-width="0.5" stroke="rgb(0,0,0)" />
	<polygon points="390.006,346.198 389.979,346.2 390.004,346.271 390.138,346.159 " fill="none" stroke-width="0.5" stroke="rgb(0,0,0)" />
	<polygon points="60.5619,341.365 60.9663,342.015 61.109,341.582 61.3079,341.142 60.9053,341.025 60.5025,340.877 " fill="none" stroke-width="0.5" stroke="rgb(0,0,0)" />
	<polygon points="158.248,339.557 156.825,340.655 157.799,341.348 158.307,341.769 158.478,340.084 158.582,339.35 158.607,339.215 " fill="none" stroke-width="0.5" stroke="rgb(0,0,0)" />
	<polygon points="76.1922,315.913 75.9485,318.169 76.6135,317.448 77.9611,316.243 79.0281,315.461 78.7213,315.261 77.2922,314.12 76.7882,313.628 " fill="none" stroke-width="0.5" stroke="rgb(0,0,0)" />
	<polygon points="161.229,300.577 160.828,300.63 161.24,301.452 161.387,300.54 " fill="none" stroke-width="0.5" stroke="rgb(0,0,0)" />
	<polygon points="162.33,253.667 162.695,255.478 162.775,255.929 162.912,256.838 164.454,253.917 164.53,253.826 162.538,253.367 162.186,253.076 " fill="none" stroke-width="0.5" stroke="rgb(0,0,0)" />
	<polygon points="91.2362,217.44 91.4881,218.208 91.7813,219.363 92.5894,219.102 93.3184,218.979 96.1696,218.942 96.8134,219.032 98.377,219.482 98.4622,218.914 98.7818,217.508 98.1567,217.576 96.0963,217.575 92.907,217.219 90.9547,216.769 " fill="none" stroke-width="0.5" stroke="rgb(0,0,0)" />
	<polygon points="433.137,216.173 432.29,216.336 431.413,216.463 432.706,217.535 433.327,218.181 435.027,215.719 " fill="none" stroke-width="0.5" stroke="rgb(0,0,0)" />
	<polygon points="108.045,166.247 106.564,167.25 105.378,167.897 105.065,168.03 105.548,168.358 106.507,169.105 109.506,171.772 110.462,172.757 111.799,174.355 112.643,173.171 113.683,172.032 111.75,170.265 110.449,168.798 108.411,165.944 " fill="none" stroke-width="0.5" stroke="rgb(0,0,0)" />
	<polygon points="423.734,146.471 420.993,148.923 420.777,149.078 425.611,150.507 427.337,151.211 429.845,152.539 429.385,150.935 429.275,148.618 427.683,147.918 426.024,146.977 424.665,146.009 424.358,145.726 " fill="none" stroke-width="0.5" stroke="rgb(0,0,0)" />
	<polygon points="312.481,128.382 312.082,128.911 311.863,129.327 311.547,130.325 311.925,130.386 312.841,130.432 312.98,130.428 313.26,130.406 313.246,130.373 313.117,129.999 312.78,128.75 312.704,128.363 312.682,128.19 " fill="none" stroke-width="0.5" stroke="rgb(0,0,0)" />
	<polygon points="177.335,121.953 177.534,122.469 178.596,121.731 178.772,121.627 " fill="none" stroke-width="0.5" stroke="rgb(0,0,0)" />
	<polygon points="91.0039,118.714 89.6581,119.588 87.32,120.835 84.727,121.759 83.0088,122.097 83.0256,122.393 83.5825,122.156 84.8915,121.747 86.7368,121.368 88.1399,121.225 90.0344,121.225 91.4395,121.368 92.6025,121.606 92.3143,119.452 92.2895,119.249 92.1317,117.836 " fill="none" stroke-width="0.5" stroke="rgb(0,0,0)" />
	<polygon points="186.081,115.293 185.744,115.938 184.578,117.672 184.127,118.203 182.536,119.647 182.86,119.485 184.321,118.899 187.543,117.915 188.965,117.626 186.669,114.915 186.383,114.558 " fill="none" stroke-width="0.5" stroke="rgb(0,0,0)" />
	<polygon points="102.956,65.4559 102.723,65.6488 101.387,66.7203 101.573,66.6556 103.595,66.4488 103.576,66.1414 103.527,64.9672 " fill="none" stroke-width="0.5" stroke="rgb(0,0,0)" />
	<polygon points="399.034,38.3074 399.501,39.4295 399.969,39.2322 402.013,38.5263 401.689,38.4037 398.606,37.5265 " fill="none" stroke-width="0.5" stroke="rgb(0,0,0)" />
</svg>
