<?xml version="1.0" standalone="no" ?>
<!DOCTYPE svg PUBLIC "-//W3C//DTD SVG 1.1//EN" "http://www.w3.org/Graphics/SVG/1.1/DTD/svg11.dtd">
<svg width="500px" height="500px" xmlns="http://www.w3.org/2000/svg" version="1.1" >
	<polygon points="471.923,91.0362 468.22,93.713 468.852,93.8429 470.415,94.3165 471.923,94.93 471.923,281.036 471.111,295.515 468.678,310.873 464.576,327.065 458.781,343.783 451.281,360.731 442.064,377.619 431.123,394.164 418.452,410.089 404.044,425.123 387.89,439 369.977,451.459 350.283,462.243 328.778,471.095 305.425,477.756 280.178,481.956 252.985,483.421 226.49,482.039 201.782,478.063 178.842,471.741 157.641,463.314 138.158,453.015 120.375,441.074 104.284,427.722 89.8822,413.191 77.172,397.717 66.1575,381.542 56.8438,364.912 49.2348,348.079 43.3324,331.298 39.135,314.835 39.2205,314.661 39.1067,314.658 36.6312,298.948 35.7905,283.661 35.7905,28.4076 38.4505,28.3872 49.9422,28.299 61.4339,28.2109 72.9255,28.1227 84.4172,28.0345 95.9089,27.9463 107.401,27.8582 118.892,27.77 130.384,27.6818 141.876,27.5936 153.367,27.5055 164.859,27.4173 176.351,27.3291 187.842,27.2409 201.84,27.1335 201.832,31.0461 201.832,31.0461 201.806,43.9449 201.781,56.8437 201.756,69.7425 201.756,69.7425 201.73,82.6413 201.679,108.439 201.679,108.439 201.654,121.338 201.603,147.135 201.578,160.034 201.552,172.933 201.527,185.832 201.501,198.73 201.476,211.629 201.45,224.528 201.451,224.614 201.538,235.909 201.539,235.975 201.703,246.792 201.706,246.914 202.003,257.22 202.01,257.405 202.495,267.167 202.512,267.428 203.24,276.612 203.275,276.967 204.302,285.54 204.37,286.009 205.751,293.937 205.878,294.543 207.668,301.794 207.894,302.561 210.148,309.1 210.535,310.043 213.309,315.837 213.934,316.936 217.284,321.952 218.221,323.128 222.201,327.333 223.464,328.437 228.129,331.797 229.618,332.664 235.024,335.145 236.553,335.684 242.756,337.254 244.155,337.491 251.209,338.115 251.79,331.557 252.116,332.234 252.523,338.129 259.783,337.628 261.189,337.417 267.536,335.94 269.103,335.418 274.598,333 276.146,332.124 280.852,328.803 282.172,327.661 286.151,323.472 287.125,322.246 290.438,317.227 291.077,316.084 293.786,310.272 294.171,309.301 296.339,302.731 296.558,301.951 298.247,294.661 298.365,294.054 299.637,286.081 299.698,285.62 300.614,277.001 300.643,276.659 301.266,267.43 301.279,267.186 301.671,257.383 301.676,257.219 301.898,246.879 301.899,246.782 302.015,235.943 302.015,235.903 302.085,224.601 302.085,224.528 302.059,211.629 302.033,198.73 302.007,185.831 301.982,172.933 301.982,172.933 301.956,160.034 301.904,134.236 301.904,134.236 301.878,121.337 301.801,82.641 301.801,82.641 301.775,69.7422 301.697,31.0458 301.697,31.0458 301.689,27.0077 304.582,26.9891 316.335,26.9135 328.088,26.838 339.842,26.7624 351.595,26.6869 363.348,26.6113 375.101,26.5357 386.855,26.4602 410.361,26.3091 422.114,26.2335 433.868,26.1579 445.621,26.0824 457.374,26.0068 469.127,25.9312 471.923,25.9133 " fill="none" stroke-width="0.5" stroke="rgb(0,0,0)" />
	<polygon points="306.617,468.523 306.646,468.528 307.315,468.721 308.453,469.211 308.211,468.618 307.705,466.922 " fill="none" stroke-width="0.5" stroke="rgb(0,0,0)" />
	<polygon points="193.858,444.549 194.215,445.936 194.589,446.018 196.058,446.254 197.469,446.401 198.574,446.444 200.051,446.363 201.391,446.127 202.516,445.759 203.361,445.311 203.968,444.812 204.434,444.208 202.983,444.316 201.623,444.314 195.404,443.825 193.898,443.575 193.491,443.471 " fill="none" stroke-width="0.5" stroke="rgb(0,0,0)" />
	<polygon points="316.952,421.617 316.779,421.654 316.956,422.12 317.317,423.312 317.648,424.765 317.719,425.108 317.895,426.052 318.28,426.33 318.839,426.767 319.705,427.503 320.701,428.492 320.889,428.712 321.313,428.307 321.763,427.904 322.471,427.313 323.109,426.827 323.81,426.342 324.725,425.786 325.415,425.422 325.469,425.399 325.137,424.219 324.804,421.809 324.804,419.029 " fill="none" stroke-width="0.5" stroke="rgb(0,0,0)" />
	<polygon points="167.505,413.424 167.511,414.722 167.257,418.437 169.019,418.612 169.023,418.567 169.366,416.787 169.462,416.468 170.293,414.552 170.451,414.281 170.854,413.752 168.945,412.752 168.249,412.346 167.378,411.783 " fill="none" stroke-width="0.5" stroke="rgb(0,0,0)" />
	<polygon points="259.588,405.918 261.981,407.113 262.56,407.428 263.021,407.703 259.998,404.913 " fill="none" stroke-width="0.5" stroke="rgb(0,0,0)" />
	<polygon points="350.882,396.788 351.431,396.757 351.139,396.359 " fill="none" stroke-width="0.5" stroke="rgb(0,0,0)" />
	<polygon points="204.756,391.09 205.144,391.955 206.222,390.826 205.538,390.819 204.55,390.71 " fill="none" stroke-width="0.5" stroke="rgb(0,0,0)" />
	<polygon points="244.706,374.487 245.12,374.834 244.99,374.105 " fill="none" stroke-width="0.5" stroke="rgb(0,0,0)" />
	<polygon points="82.9161,368.782 81.8461,368.858 81.7265,368.859 81.8712,369.225 82.2115,371.472 82.5875,371.137 83.7421,370.266 84.2669,369.933 83.4594,369.102 83.1748,368.747 " fill="none" stroke-width="0.5" stroke="rgb(0,0,0)" />
	<polygon points="118.385,360.533 118.471,360.525 118.413,360.44 " fill="none" stroke-width="0.5" stroke="rgb(0,0,0)" />
	<polygon points="394.781,343.27 393.998,343.833 392.977,344.485 390.713,345.519 389.878,345.767 389.364,345.809 389.769,346.956 389.788,347.04 392.17,345.044 394.305,343.718 395.092,343.372 394.925,343.155 " fill="none" stroke-width="0.5" stroke="rgb(0,0,0)" />
	<polygon points="60.1272,341.518 61.0907,343.067 61.5192,341.767 61.9312,340.855 61.0604,340.603 59.9666,340.201 " fill="none" stroke-width="0.5" stroke="rgb(0,0,0)" />
	<polygon points="157.937,339.232 156.454,340.377 155.992,340.661 156.448,340.938 157.512,341.694 158.7,342.678 158.706,342.501 158.746,341.893 158.926,340.129 159.024,339.431 159.298,337.931 " fill="none" stroke-width="0.5" stroke="rgb(0,0,0)" />
	<polygon points="415.223,334.704 415.325,335.325 415.373,335.66 415.531,336.929 415.587,337.558 415.647,338.687 415.656,339.416 415.651,339.602 416.774,339.697 416.072,338.329 415.234,334.703 " fill="none" stroke-width="0.5" stroke="rgb(0,0,0)" />
	<polygon points="165.589,327.63 166.87,327.037 166.07,325.825 " fill="none" stroke-width="0.5" stroke="rgb(0,0,0)" />
	<polygon points="75.7484,315.832 75.4744,318.369 75.4979,319.202 75.5097,319.314 75.5267,319.291 76.9445,317.753 78.2272,316.606 79.8177,315.44 79.002,314.91 77.573,313.769 76.5477,312.767 " fill="none" stroke-width="0.5" stroke="rgb(0,0,0)" />
	<polygon points="161.17,300.131 160.124,300.27 160.284,300.548 161.462,302.901 161.861,300.429 161.966,299.943 " fill="none" stroke-width="0.5" stroke="rgb(0,0,0)" />
	<polygon points="161.72,253.065 161.889,253.756 162.254,255.567 162.33,255.996 162.621,257.925 162.654,258.164 162.725,258.736 163.102,257.422 164.8,254.204 165.333,253.561 162.553,252.87 161.367,251.832 " fill="none" stroke-width="0.5" stroke="rgb(0,0,0)" />
	<polygon points="327.782,237.407 327.604,237.407 327.912,237.756 328.569,238.853 328.108,237.374 " fill="none" stroke-width="0.5" stroke="rgb(0,0,0)" />
	<polygon points="90.2553,216.261 90.8086,217.58 91.0605,218.348 91.3596,219.527 91.4354,219.943 92.6639,219.546 93.3929,219.423 96.1069,219.387 96.7507,219.478 98.7454,220.051 98.901,219.013 99.3606,216.991 98.1075,217.129 96.1462,217.128 92.957,216.771 90.9608,216.311 90.1279,216.015 " fill="none" stroke-width="0.5" stroke="rgb(0,0,0)" />
	<polygon points="433.031,215.736 432.225,215.891 430.346,216.162 432.418,217.881 433.416,218.919 433.622,218.545 436.066,215.007 " fill="none" stroke-width="0.5" stroke="rgb(0,0,0)" />
	<polygon points="107.758,165.9 106.348,166.855 105.162,167.502 104.131,167.939 105.295,168.73 106.208,169.441 109.207,172.108 110.117,173.046 111.826,175.087 112.975,173.474 114.319,172.004 112.053,169.933 110.815,168.536 108.593,165.425 108.509,165.279 " fill="none" stroke-width="0.5" stroke="rgb(0,0,0)" />
	<polygon points="423.434,146.136 420.693,148.588 419.772,149.25 425.483,150.938 427.126,151.608 430.569,153.432 429.818,150.811 429.713,148.304 429.543,148.244 427.864,147.506 426.285,146.61 424.925,145.643 424.317,145.08 " fill="none" stroke-width="0.5" stroke="rgb(0,0,0)" />
	<polygon points="356.831,143.691 358.392,143.692 357.327,142.76 356.956,142.374 " fill="none" stroke-width="0.5" stroke="rgb(0,0,0)" />
	<polygon points="312.755,127.496 312.144,128.083 311.701,128.669 311.446,129.154 311.099,130.252 310.863,130.641 311.121,130.713 311.878,130.834 312.837,130.883 313.005,130.877 313.406,130.846 313.914,130.79 313.672,130.226 313.542,129.852 313.222,128.663 313.146,128.276 313.021,127.313 " fill="none" stroke-width="0.5" stroke="rgb(0,0,0)" />
	<polygon points="185.682,115.085 185.345,115.73 184.235,117.381 183.784,117.911 182.087,119.453 181.513,119.852 179.421,120.929 178.717,121.181 176.73,121.632 177.321,123.166 178.853,122.101 179.942,121.453 183.062,119.887 184.453,119.33 187.674,118.345 189.36,118.003 189.833,117.955 187.013,114.624 186.722,114.262 186.266,113.663 " fill="none" stroke-width="0.5" stroke="rgb(0,0,0)" />
	<polygon points="90.7274,118.359 89.4463,119.191 87.1082,120.438 84.6401,121.317 82.5372,121.731 82.6015,122.86 82.6049,123.058 83.717,122.586 85.0259,122.176 86.7824,121.816 88.1855,121.673 89.9889,121.672 91.3939,121.815 93.1322,122.172 92.7604,119.392 92.7367,119.199 92.4897,116.986 " fill="none" stroke-width="0.5" stroke="rgb(0,0,0)" />
	<polygon points="415.261,65.4496 416.854,66.7294 418.319,67.6189 419.613,68.1057 420.282,68.1901 419.781,67.6729 416.6,65.7905 414.853,65.0669 " fill="none" stroke-width="0.5" stroke="rgb(0,0,0)" />
	<polygon points="102.663,65.1141 102.442,65.2976 100.66,66.7256 99.8069,67.3309 99.0173,67.8239 99.0837,68.136 99.6625,67.7942 101.721,67.0808 104.079,66.8534 104.049,66.4953 104.025,66.1228 103.938,64.0227 " fill="none" stroke-width="0.5" stroke="rgb(0,0,0)" />
	<polygon points="398.639,38.5237 399.261,40.0179 400.116,39.6576 403.088,38.631 403.348,38.5511 401.831,37.9761 397.957,36.874 397.7,36.8097 " fill="none" stroke-width="0.5" stroke="rgb(0,0,0)" />
</svg>
