<?xml version="1.0" standalone="no" ?>
<!DOCTYPE svg PUBLIC "-//W3C//DTD SVG 1.1//EN" "http://www.w3.org/Graphics/SVG/1.1/DTD/svg11.dtd">
<svg width="500px" height="500px" xmlns="http://www.w3.org/2000/svg" version="1.1" >
	<polygon points="480.823,84.7466 476.057,90.5507 473.944,92.5369 473.392,92.9362 473.414,92.9453 475.464,94.0368 477.188,95.1958 479.047,96.762 480.416,98.1935 480.823,98.7195 480.823,194.745 480.547,195.065 479.276,195.93 480.823,197.648 480.823,281.286 479.971,296.463 479.44,299.817 479.102,300.235 478.189,301.236 476.922,302.466 478.386,305.269 478.525,305.592 477.405,312.666 473.11,329.62 467.07,347.047 459.27,364.67 453.543,375.164 453.005,375.243 453.077,376.016 449.695,382.213 438.331,399.399 425.161,415.952 410.17,431.593 393.345,446.047 374.668,459.037 354.126,470.285 331.702,479.516 318.488,483.285 317.024,482.528 317.017,482.584 316.689,483.798 307.382,486.452 281.151,490.817 252.993,492.333 225.548,490.902 199.887,486.773 176.007,480.192 153.907,471.407 133.585,460.665 115.039,448.212 98.2672,434.295 83.2685,419.161 70.0408,403.057 58.5824,386.23 48.8916,368.927 40.9666,351.394 34.8057,333.879 32.5806,325.152 34.3483,319.458 34.9918,317.839 35.6004,316.596 34.6338,316.292 30.0358,313.503 29.8923,313.36 27.7694,299.888 26.8905,283.906 26.8905,155.335 29.3106,150.914 30.1232,149.717 28.8084,149.035 26.94,147.817 26.8905,147.777 26.8905,37.6377 28.7174,36.2999 27.7128,35.8908 26.8905,35.475 26.8905,19.5757 38.3822,19.4875 49.8739,19.3993 61.3656,19.3111 72.8572,19.223 84.3489,19.1348 95.8406,19.0466 107.332,18.9584 118.824,18.8703 130.316,18.7821 141.807,18.6939 153.299,18.6057 164.791,18.5175 176.282,18.4294 187.774,18.3412 210.757,18.1648 210.732,31.0636 210.706,43.9624 210.681,56.8612 210.656,69.76 210.63,82.6588 210.618,88.827 210.369,88.9312 210.201,88.9848 210.617,89.3307 210.579,108.456 210.554,121.355 210.503,147.153 210.478,160.052 210.452,172.95 210.434,182.3 209.153,183.911 207.729,185.402 207.449,185.646 209.052,187.002 210.422,188.422 210.401,198.748 210.376,211.647 210.35,224.546 210.438,235.84 210.602,246.657 210.899,256.963 211.384,266.725 211.467,267.773 210.982,268.361 210.441,269.079 211.651,270.098 212.112,275.909 213.138,284.482 214.519,292.41 216.308,299.661 218.563,306.2 221.336,311.994 224.685,317.011 228.665,321.215 233.33,324.575 238.737,327.056 244.939,328.626 251.957,329.247 259.171,328.749 265.518,327.271 271.013,324.853 275.719,321.532 279.698,317.343 283.01,312.324 285.72,306.511 287.888,299.942 289.576,292.653 290.848,284.68 291.763,276.06 292.386,266.831 292.778,257.028 293,246.688 293.115,235.848 293.185,224.546 293.159,211.647 293.133,198.748 293.107,185.849 293.09,177.065 293.522,176.272 293.258,176.1 293.088,175.942 293.082,172.95 293.056,160.052 293.004,134.254 292.978,121.355 292.954,109.209 293.252,108.556 292.952,108.443 292.901,82.6588 292.875,69.76 292.797,31.0636 292.771,18.1648 304.525,18.0893 316.278,18.0137 328.031,17.9382 339.784,17.8626 351.538,17.787 363.291,17.7115 375.044,17.6359 383.946,17.5787 385.059,18.3954 385.088,18.33 385.714,17.6019 385.76,17.567 386.797,17.5604 410.304,17.4092 422.057,17.3337 433.81,17.2581 445.564,17.1826 457.317,17.107 469.07,17.0314 480.823,16.9559 " fill="none" stroke-width="0.5" stroke="rgb(0,0,0)" />
	<polygon points="319.757,423.22 319.988,424.232 320.078,424.668 320.083,424.696 320.392,424.937 320.979,425.435 321.743,424.854 322.443,424.369 322.733,424.193 322.476,422.324 " fill="none" stroke-width="0.5" stroke="rgb(0,0,0)" />
</svg>
