<?xml version="1.0" standalone="no" ?>
<!DOCTYPE svg PUBLIC "-//W3C//DTD SVG 1.1//EN" "http://www.w3.org/Graphics/SVG/1.1/DTD/svg11.dtd">
<svg width="500px" height="500px" xmlns="http://www.w3.org/2000/svg" version="1.1" >
	<polygon points="463.873,280.811 463.096,294.657 460.785,309.252 456.857,324.754 451.285,340.831 444.055,357.167 435.161,373.463 424.603,389.429 412.383,404.787 398.502,419.271 382.956,432.626 365.733,444.605 346.807,454.968 326.134,463.478 303.655,469.889 279.298,473.942 252.978,475.36 227.341,474.023 203.496,470.185 181.405,464.098 161.019,455.994 142.294,446.096 125.201,434.619 109.726,421.777 95.8643,407.791 83.6222,392.887 73.0092,377.302 64.0366,361.281 56.7134,345.08 51.0447,328.963 47.0274,313.207 44.6467,298.099 43.8405,283.44 43.8405,36.3961 50.004,36.3488 61.4956,36.2606 72.9873,36.1725 84.479,36.0843 95.9706,35.9961 95.9707,35.9961 107.462,35.9079 118.954,35.8198 130.446,35.7316 153.429,35.5552 164.921,35.4671 176.412,35.3789 187.904,35.2907 193.774,35.2457 193.757,43.929 193.731,56.8278 193.706,69.7266 193.706,69.7266 193.68,82.6254 193.629,108.423 193.629,108.423 193.604,121.322 193.553,147.119 193.553,147.119 193.528,160.018 193.502,172.917 193.502,172.917 193.477,185.816 193.451,198.715 193.426,211.613 193.426,211.613 193.4,224.512 193.401,224.676 193.488,235.971 193.49,236.098 193.654,246.915 193.659,247.145 193.956,257.451 193.97,257.804 194.455,267.566 194.487,268.065 195.215,277.249 195.282,277.924 196.309,286.497 196.44,287.389 197.82,295.318 198.063,296.472 199.852,303.723 200.284,305.185 202.538,311.724 203.274,313.519 206.048,319.313 207.24,321.406 210.589,326.422 212.375,328.662 216.354,332.866 218.76,334.97 223.425,338.329 226.26,339.98 231.666,342.461 234.579,343.488 240.781,345.058 243.445,345.51 250.499,346.134 251.947,329.779 253.077,346.16 260.337,345.659 263.015,345.258 269.362,343.78 272.345,342.786 277.84,340.368 280.788,338.701 285.494,335.379 288.009,333.204 291.988,329.016 293.844,326.68 297.157,321.661 298.373,319.485 301.083,313.673 301.816,311.823 303.984,305.254 304.4,303.767 306.089,296.478 306.315,295.322 307.586,287.349 307.703,286.471 308.619,277.851 308.675,277.201 309.298,267.971 309.323,267.507 309.714,257.704 309.724,257.392 309.946,247.052 309.949,246.868 310.064,236.028 310.065,235.953 310.135,224.651 310.135,224.512 310.109,211.613 310.083,198.714 310.057,185.815 310.032,172.916 310.032,172.916 310.006,160.018 309.954,134.22 309.954,134.22 309.928,121.321 309.851,82.6249 309.851,82.6248 309.825,69.7261 309.755,35.006 316.387,34.9634 328.14,34.8878 339.893,34.8123 351.647,34.7367 363.4,34.6611 375.153,34.5856 386.906,34.51 410.413,34.3589 422.166,34.2833 433.919,34.2078 457.426,34.0566 463.873,34.0152 " fill="none" stroke-width="0.5" stroke="rgb(0,0,0)" />
</svg>
