<?xml version="1.0" standalone="no" ?>
<!DOCTYPE svg PUBLIC "-//W3C//DTD SVG 1.1//EN" "http://www.w3.org/Graphics/SVG/1.1/DTD/svg11.dtd">
<svg width="500px" height="500px" xmlns="http://www.w3.org/2000/svg" version="1.1" >
	<polygon points="473.823,86.4948 472.734,87.8216 471.425,89.052 464.391,94.1364 463.137,94.8585 459.271,96.5791 459.546,96.6926 460.04,96.966 460.637,96.2639 465.984,95.1936 468.47,95.704 469.699,96.0765 471.794,96.9286 473.064,97.6047 473.823,98.1152 473.823,193.515 473.04,193.783 470.941,193.594 470.594,193.509 473.039,195.54 473.766,196.239 473.823,196.302 473.823,253.756 473.557,254.127 473.54,254.151 473.823,254.137 473.823,281.09 473.002,295.717 472.154,301.07 471.244,301.571 471.932,302.472 470.541,311.256 466.398,327.61 460.551,344.48 452.986,361.572 448.589,369.628 447.808,369.137 448.044,369.908 448.148,370.436 443.693,378.6 432.661,395.282 419.884,411.341 405.352,426.504 395.695,434.8 395.692,434.797 395.155,434.321 395.222,435.206 389.054,440.504 370.978,453.077 351.103,463.96 329.402,472.893 316.149,476.673 315.296,475.98 314.287,474.974 312.561,472.86 311.791,471.697 310.547,469.338 310.032,468.075 309.279,465.552 309.02,464.227 308.767,461.622 308.761,461.235 308.131,462.691 307.496,463.847 304.73,467.92 303.22,469.525 302.564,470.033 303.069,470.015 303.871,470.033 304.742,470.103 306.121,470.354 306.79,470.547 308.408,471.243 308.902,471.534 310.435,472.757 310.779,473.122 311.859,474.619 312.081,475.033 312.641,476.411 312.767,476.85 312.921,477.593 305.843,479.612 280.386,483.848 252.987,485.323 226.289,483.931 201.377,479.922 178.236,473.545 156.844,465.042 137.181,454.648 119.236,442.598 102.999,429.125 88.4703,414.466 75.6496,398.857 64.5404,382.543 55.1461,365.769 47.4697,348.786 41.5121,331.849 38.5908,320.391 38.8535,319.73 42.2616,312.771 41.8224,312.89 37.8936,312.81 36.8397,312.478 34.7394,299.149 33.8905,283.713 33.8905,151.803 37.2707,147.727 36.8734,147.651 34.3379,146.911 33.8905,146.731 33.8905,38.0062 36.6288,36.2392 36.7215,36.1804 38.9238,34.8077 34.8434,33.774 34.459,33.6648 33.8905,33.4857 33.8905,26.5222 38.4359,26.4873 49.9276,26.3991 61.4193,26.3109 61.4193,26.3109 72.911,26.2228 84.4026,26.1346 95.8943,26.0464 107.386,25.9582 118.878,25.87 130.369,25.7819 141.861,25.6937 153.353,25.6055 176.336,25.4292 187.828,25.341 203.743,25.2189 203.732,31.0498 203.732,31.0498 203.706,43.9486 203.681,56.8474 203.656,69.7462 203.656,69.7462 203.63,82.645 203.624,85.785 203.169,85.7779 199.188,85.3726 198.707,85.2936 198.793,85.3583 203.597,89.0871 203.617,89.1039 203.579,108.443 203.579,108.443 203.554,121.341 203.503,147.139 203.478,160.038 203.452,172.937 203.431,183.443 202.763,184.025 201.653,184.816 199.565,186.017 201.332,186.792 202.477,187.428 203.422,188.076 203.376,211.633 203.35,224.532 203.351,224.6 203.438,235.894 203.438,235.947 203.603,246.764 203.605,246.859 203.902,257.165 203.908,257.31 204.392,267.072 204.406,267.278 205.134,276.462 205.162,276.741 206.188,285.314 206.242,285.683 207.623,293.611 207.723,294.088 209.512,301.338 209.691,301.942 211.945,308.481 212.249,309.223 215.023,315.017 215.515,315.881 218.864,320.897 219.601,321.822 223.581,326.027 224.574,326.896 229.239,330.255 230.41,330.937 235.817,333.418 237.019,333.842 243.222,335.412 244.322,335.598 251.377,336.223 251.408,335.873 251.996,337.974 252.145,338.699 253.501,336.157 259.653,335.733 260.758,335.567 267.105,334.089 268.337,333.679 273.833,331.26 275.05,330.572 279.756,327.25 280.795,326.352 284.773,322.164 285.54,321.199 288.852,316.18 289.355,315.281 292.064,309.469 292.367,308.705 294.535,302.136 294.707,301.522 296.396,294.232 296.489,293.755 297.76,285.782 297.808,285.419 298.724,276.8 298.748,276.531 299.37,267.302 299.381,267.11 299.772,257.307 299.776,257.178 299.998,246.838 299.999,246.762 300.115,235.923 300.115,235.892 300.185,224.589 300.185,224.532 300.159,211.633 300.133,198.734 300.107,185.835 300.082,172.936 300.082,172.936 300.056,160.038 300.004,134.24 300.004,134.24 299.978,121.341 299.948,106.073 300.87,105.027 303.355,102.74 304.595,101.828 307.706,100.032 309.122,99.4112 309.836,99.1884 309.729,98.6168 309.664,98.2045 309.593,97.6369 307.396,99.5453 307.176,99.7286 304.898,101.549 304.335,101.955 302.348,103.243 300.67,104.037 299.944,104.269 299.901,82.6448 299.901,82.6448 299.875,69.746 299.797,31.0496 299.797,31.0496 299.785,25.1199 304.57,25.0891 316.323,25.0136 328.076,24.938 339.829,24.8625 351.583,24.7869 363.336,24.7113 375.089,24.6358 386.187,24.5644 386.921,25.2361 386.976,24.5594 410.349,24.4091 422.102,24.3335 433.855,24.258 445.609,24.1824 457.362,24.1069 469.115,24.0313 473.823,24.001 " fill="none" stroke-width="0.5" stroke="rgb(0,0,0)" />
	<polygon points="191.679,444.025 192.018,445.023 192.664,447.53 192.789,447.567 194.234,447.886 195.809,448.139 197.334,448.297 198.589,448.346 200.269,448.254 201.854,447.975 203.262,447.514 204.421,446.9 205.341,446.142 206.102,445.156 206.754,443.725 207.106,442.103 202.842,442.422 201.771,442.419 195.553,441.93 194.369,441.734 190.254,440.683 " fill="none" stroke-width="0.5" stroke="rgb(0,0,0)" />
	<polygon points="158.182,437.136 157.189,438.352 152.995,442.452 151.658,443.476 149.795,444.574 152.162,444.067 155.146,442.85 157.366,441.353 158.987,439.609 160.16,437.525 160.926,434.941 161.14,432.542 " fill="none" stroke-width="0.5" stroke="rgb(0,0,0)" />
	<polygon points="325.862,416.68 316.357,419.813 314.877,420.128 313.988,420.219 314.687,421.498 315.181,422.796 315.465,423.734 315.795,425.186 315.851,425.456 316.102,426.804 316.187,427.165 316.227,427.193 316.262,427.218 317.17,427.872 317.609,428.216 318.476,428.951 319.259,429.73 319.992,430.584 320.7,431.648 320.759,431.58 320.94,431.38 321.66,430.617 321.912,430.363 322.627,429.679 322.981,429.363 323.689,428.771 324.191,428.389 324.891,427.904 325.611,427.467 326.301,427.103 327.328,426.662 328.006,426.434 328.089,426.415 327.315,424.946 326.966,423.704 326.704,421.809 326.704,416.296 " fill="none" stroke-width="0.5" stroke="rgb(0,0,0)" />
	<polygon points="378.443,417.615 378.441,417.779 378.437,417.97 379.599,417.657 381.169,417.841 382.643,418.178 384.276,418.743 385.586,419.354 387.198,420.32 388.342,421.175 388.966,421.75 388.947,421.191 388.977,420.718 389.12,419.682 389.126,419.652 388.904,419.629 387.64,419.375 384.08,418.31 383.091,417.931 379.752,416.351 378.949,415.904 378.443,415.578 " fill="none" stroke-width="0.5" stroke="rgb(0,0,0)" />
	<polygon points="165.611,413.572 165.616,414.592 165.296,419.276 165.156,420.267 165.057,420.728 167.378,419.906 170.935,420.591 170.883,419.102 170.916,418.734 171.185,417.334 171.281,417.015 171.935,415.508 172.093,415.237 173.141,413.861 173.359,413.64 174.004,413.119 173.037,412.719 172.463,412.451 169.827,411.069 169.28,410.75 166.853,409.183 166.303,408.789 165.169,407.891 " fill="none" stroke-width="0.5" stroke="rgb(0,0,0)" />
	<polygon points="258.921,400.815 258.826,401.827 258.568,403.157 258.292,404.088 257.772,405.366 257.332,406.199 256.917,406.826 257.685,407.125 258.273,407.385 261.133,408.813 261.588,409.061 264.37,410.718 264.75,410.961 267.367,412.757 267.714,413.011 270.079,414.856 270.432,415.152 272.455,416.957 272.866,417.355 272.941,417.434 274.12,417.231 274.411,417.187 275.745,417.015 276.021,416.985 277.404,416.861 277.664,416.843 279.097,416.769 279.342,416.76 280.186,416.746 279.345,416.471 277.956,415.842 269.35,410.749 268.167,409.868 261.066,403.313 260.146,402.277 258.924,400.59 " fill="none" stroke-width="0.5" stroke="rgb(0,0,0)" />
	<polygon points="244.536,411.878 243.848,416.279 244.109,415.749 245.215,411.861 245.114,411.847 244.548,411.692 " fill="none" stroke-width="0.5" stroke="rgb(0,0,0)" />
	<polygon points="365.051,399.912 365.112,399.925 365.914,400.147 366.846,400.466 366.92,399.493 " fill="none" stroke-width="0.5" stroke="rgb(0,0,0)" />
	<polygon points="349.554,395.322 348.909,396.4 346.998,399.025 347.585,398.922 348.393,398.83 352.901,398.578 353.544,398.572 356.079,398.663 355.513,398.277 354.189,397.103 353.21,395.984 352.487,394.995 351.631,393.578 351.203,392.751 351.01,392.306 " fill="none" stroke-width="0.5" stroke="rgb(0,0,0)" />
	<polygon points="308.848,393.806 308.325,393.96 305.113,394.769 304.471,394.899 300.763,395.471 300.053,395.544 297.528,395.673 297.649,395.706 304.346,396.287 307.589,396.152 310.514,395.767 311.028,395.645 310.177,394.461 309.922,393.629 309.911,393.448 " fill="none" stroke-width="0.5" stroke="rgb(0,0,0)" />
	<polygon points="201.249,388.611 203.086,391.996 203.519,392.96 204.618,396.008 206.448,393.303 208.061,391.613 212.016,388.664 212.444,388.474 207.133,388.945 205.746,388.931 201.127,388.421 " fill="none" stroke-width="0.5" stroke="rgb(0,0,0)" />
	<polygon points="223.565,386.27 224.278,386.367 224.742,386.458 224.7,385.936 " fill="none" stroke-width="0.5" stroke="rgb(0,0,0)" />
	<polygon points="242.401,374.402 241.937,374.906 242.317,375.1 243.202,375.692 244.351,376.654 245.094,377.426 245.383,377.787 246.181,377.809 247.426,377.934 247.907,378.035 247.051,374.878 246.835,373.672 246.417,369.004 " fill="none" stroke-width="0.5" stroke="rgb(0,0,0)" />
	<polygon points="83.806,366.741 83.509,366.787 82.6675,366.898 81.8259,366.958 79.5124,366.982 78.9746,366.934 79.9926,369.509 80.8669,375.283 81.3428,374.79 83.8513,372.556 84.7594,371.871 87.2387,370.299 87.4466,370.194 87.3456,370.124 85.8599,368.858 84.9409,367.912 83.9765,366.711 " fill="none" stroke-width="0.5" stroke="rgb(0,0,0)" />
	<polygon points="172.339,373.488 172.504,373.908 172.554,373.913 172.838,373.921 172.924,373.92 172.201,373.019 " fill="none" stroke-width="0.5" stroke="rgb(0,0,0)" />
	<polygon points="356.765,370.451 356.573,372.313 356.613,372.294 357.337,372 358.906,371.462 359.453,371.3 361.126,370.875 361.163,370.863 360.106,370.317 358.926,369.548 357.335,368.267 356.328,367.272 355.88,366.728 " fill="none" stroke-width="0.5" stroke="rgb(0,0,0)" />
	<polygon points="324.346,367.397 323.626,368.537 322.89,369.488 323.471,369.474 327.006,369.245 328.828,369.048 326.629,367.921 325.401,367.119 324.752,366.589 " fill="none" stroke-width="0.5" stroke="rgb(0,0,0)" />
	<polygon points="354.186,364.598 354.463,364.847 354.265,364.551 354.255,364.531 " fill="none" stroke-width="0.5" stroke="rgb(0,0,0)" />
	<polygon points="117.78,354.723 117.078,355.051 117.095,356.46 116.975,357.837 116.564,360.027 116.162,361.388 115.598,362.764 116.369,362.623 120.62,362.239 122.019,362.252 122.804,362.339 122.71,362.273 121.613,361.33 120.407,359.987 119.74,359.017 118.852,357.219 118.521,356.203 118.201,354.611 118.19,354.486 " fill="none" stroke-width="0.5" stroke="rgb(0,0,0)" />
	<polygon points="295.543,357.633 294.041,358.311 291.883,358.992 292.295,359.216 294.164,360.602 294.317,360.719 296.626,362.532 296.714,362.593 296.663,362.325 296.519,360.788 296.497,359.803 296.549,358.696 296.597,358.146 296.736,357.056 296.759,356.901 " fill="none" stroke-width="0.5" stroke="rgb(0,0,0)" />
	<polygon points="441.527,355.419 442.419,356.658 444.906,361.058 444.587,359.214 442.671,356.188 441.161,355.013 " fill="none" stroke-width="0.5" stroke="rgb(0,0,0)" />
	<polygon points="394.949,340.691 394.739,340.867 393.591,341.789 392.975,342.232 391.954,342.884 390.173,343.697 389.338,343.945 386.737,344.158 386.847,344.388 387.977,347.588 388.331,349.128 388.503,350.636 388.779,350.364 393.39,346.5 395.07,345.457 398.158,344.1 398.108,344.046 396.831,342.508 396.673,342.31 395.326,340.562 395.233,340.444 " fill="none" stroke-width="0.5" stroke="rgb(0,0,0)" />
	<polygon points="58.2921,342.165 61.5497,347.404 62.1419,347.99 62.1397,347.777 62.2971,346.227 62.7885,343.952 63.2509,342.549 64.1793,340.493 64.7287,339.536 62.6597,339.093 61.7153,338.819 59.2466,337.913 58.0607,337.346 57.6762,337.116 " fill="none" stroke-width="0.5" stroke="rgb(0,0,0)" />
	<polygon points="164.772,318.498 164.895,320.561 164.643,323.401 164.434,324.584 163.684,327.399 163.275,328.531 162.038,331.211 161.408,332.304 159.693,334.741 158.805,335.774 156.624,337.858 155.458,338.759 152.821,340.383 152.212,340.67 153.003,341.072 155.463,342.563 156.3,343.158 158.649,345.103 159.326,345.744 160.814,347.355 160.588,345.367 160.546,344.347 160.605,342.563 160.637,342.085 160.816,340.321 160.894,339.772 161.2,338.094 161.36,337.412 161.799,335.888 162.128,334.985 162.706,333.683 163.407,332.456 164.131,331.442 165.624,329.913 166.5,329.256 169.156,328.026 169.717,327.899 167.26,324.18 166.574,322.851 164.635,317.848 " fill="none" stroke-width="0.5" stroke="rgb(0,0,0)" />
	<polygon points="316.445,342.951 316.128,343.073 316.181,343.102 316.767,343.498 316.951,342.707 " fill="none" stroke-width="0.5" stroke="rgb(0,0,0)" />
	<polygon points="416.634,332.549 415.529,332.76 413.742,332.953 413.497,332.975 413.001,333.011 413.207,334.154 413.226,334.263 413.449,335.632 413.487,335.895 413.646,337.165 413.69,337.659 413.75,338.788 413.757,339.362 413.747,339.695 413.714,340.205 413.68,340.54 413.569,341.254 413.553,341.33 418.096,341.717 419.275,341.92 420.661,342.283 419.489,340.952 417.923,337.902 416.684,332.535 " fill="none" stroke-width="0.5" stroke="rgb(0,0,0)" />
	<polygon points="127.546,337.651 127.526,339.889 127.505,340.082 128.185,339.751 129.068,339.394 130.365,338.97 129.793,338.556 127.887,336.855 127.415,336.344 " fill="none" stroke-width="0.5" stroke="rgb(0,0,0)" />
	<polygon points="385.541,310.821 384.571,312.514 383.709,314.372 383.097,316.05 382.9,317.068 382.701,319.241 382.526,322.189 382.339,325.374 382.324,325.57 382.222,326.749 383.236,324.365 384.312,321.632 385.179,318.963 385.737,316.459 385.946,313.947 385.922,312.681 385.816,310.978 385.758,310.513 " fill="none" stroke-width="0.5" stroke="rgb(0,0,0)" />
	<polygon points="121.942,324.935 121.558,325.115 122.345,325.908 122.231,324.761 " fill="none" stroke-width="0.5" stroke="rgb(0,0,0)" />
	<polygon points="74.7942,311.961 73.8744,315.488 73.5715,318.293 73.6007,319.329 73.7248,320.505 73.9509,321.572 74.3123,322.621 74.867,323.734 75.0032,323.456 76.1075,321.658 76.9241,320.579 78.3418,319.04 79.3507,318.138 81.0517,316.891 82.2005,316.207 83.9177,315.395 82.9232,314.994 81.3292,314.167 80.1875,313.425 78.7585,312.284 77.7585,311.307 76.5498,309.863 75.8971,308.899 " fill="none" stroke-width="0.5" stroke="rgb(0,0,0)" />
	<polygon points="342.627,314.176 341.838,314.978 341.51,315.237 341.778,315.389 346.638,318.702 347.562,319.455 350.992,322.773 351.334,321.993 351.575,321.497 352.22,320.295 350.374,319.77 349.388,319.408 348.08,318.812 345.236,316.442 344.74,315.73 343.692,312.767 " fill="none" stroke-width="0.5" stroke="rgb(0,0,0)" />
	<polygon points="97.2826,314.933 97.6317,315.057 97.5685,314.809 " fill="none" stroke-width="0.5" stroke="rgb(0,0,0)" />
	<polygon points="164.543,297.058 163.561,297.484 162.291,297.923 160.92,298.248 159.737,298.404 158.238,298.441 157.882,298.411 156.701,298.21 156.534,298.166 158.192,300.714 158.585,301.399 162.643,309.502 163.233,311.193 163.489,312.407 163.044,308.947 162.996,307.68 163.165,304.522 163.245,303.779 163.737,300.732 163.893,300.012 164.688,297.088 164.73,296.959 " fill="none" stroke-width="0.5" stroke="rgb(0,0,0)" />
	<polygon points="131.7,301.127 132.226,307.098 132.221,308.277 133.956,308.08 134.136,308.098 135.921,308.509 136.071,308.565 136.19,308.635 135.261,306.707 131.618,300.602 " fill="none" stroke-width="0.5" stroke="rgb(0,0,0)" />
	<polygon points="345.545,306.885 345.734,306.654 345.564,306.652 " fill="none" stroke-width="0.5" stroke="rgb(0,0,0)" />
	<polygon points="312.305,304.724 309.926,306.322 311.066,306.47 311.708,306.583 313.002,306.875 312.98,306.826 312.431,304.949 312.388,304.657 " fill="none" stroke-width="0.5" stroke="rgb(0,0,0)" />
	<polygon points="433.963,294.795 433.87,294.922 433.037,296.034 434.901,297.04 435.064,297.131 435.951,297.641 434.959,294.36 434.736,293.712 " fill="none" stroke-width="0.5" stroke="rgb(0,0,0)" />
	<polygon points="459,288.718 458.224,289.076 457.255,289.879 456.034,291.354 455.26,292.55 456.417,292.584 459.605,293.098 460.519,293.391 460.459,292.146 460.269,290.853 459.965,289.68 459.609,288.804 459.511,288.646 " fill="none" stroke-width="0.5" stroke="rgb(0,0,0)" />
	<polygon points="88.0282,283.743 87.9687,283.86 85.6139,288.394 85.1777,289.236 86.6126,289.99 87.1341,290.404 87.8132,291.021 88.3566,291.583 88.4775,291.289 88.9208,289.134 89.2343,285.843 89.3877,281.573 89.3918,280.992 " fill="none" stroke-width="0.5" stroke="rgb(0,0,0)" />
	<polygon points="57.3507,280.137 57.3968,280.209 57.8419,280.915 57.9855,281.153 58.377,281.832 58.6094,282.27 58.9351,282.941 59.2166,283.605 59.4643,284.286 59.6687,284.987 60.1742,282.786 60.1488,282.739 60.0652,282.621 59.8887,282.421 59.3565,281.929 59.3401,281.914 57.4181,280.123 57.1949,279.897 " fill="none" stroke-width="0.5" stroke="rgb(0,0,0)" />
	<polygon points="172.654,280.94 172.819,281.341 173.111,282.201 173.219,282.606 173.242,282.731 174.096,281.822 174.002,281.749 172.336,280.273 " fill="none" stroke-width="0.5" stroke="rgb(0,0,0)" />
	<polygon points="428.115,278.866 427.648,279.737 427.615,279.77 427.787,279.732 429.188,279.641 428.325,277.819 " fill="none" stroke-width="0.5" stroke="rgb(0,0,0)" />
	<polygon points="339.649,274.908 339.526,275.394 339.778,275.503 340.047,275.575 340.029,275.338 340.014,275.043 339.999,274.554 340,274.531 " fill="none" stroke-width="0.5" stroke="rgb(0,0,0)" />
	<polygon points="421.057,267.401 421.99,267.653 421.298,266.85 " fill="none" stroke-width="0.5" stroke="rgb(0,0,0)" />
	<polygon points="157.379,226.197 156.376,227.942 155.863,228.994 157.186,230.621 157.772,233.736 157.712,235.162 157.691,235.475 157.532,237.297 157.518,237.444 157.293,239.515 157.286,239.583 157.028,241.76 157.026,241.775 156.771,243.892 156.555,245.764 156.417,247.165 156.381,247.853 156.393,248.235 157.746,249.041 159.428,251.964 159.894,253.588 160.026,254.132 160.391,255.943 160.451,256.28 160.743,258.209 160.768,258.397 161.013,260.375 161.02,260.439 161.241,262.37 161.454,264.111 161.554,264.765 162.364,265.037 164.098,267.195 163.691,265.414 163.787,261.92 164.928,257.947 166.264,255.416 169.273,251.78 169.833,251.226 166.204,251.965 162.702,250.745 160.314,247.908 159.826,243.525 160.065,242.4 160.271,241.334 160.451,240.273 160.605,239.216 160.728,238.163 160.818,237.113 160.874,236.067 160.892,235.127 160.798,233.21 160.511,231.404 159.993,229.592 159.187,227.728 158.016,225.77 157.796,225.489 " fill="none" stroke-width="0.5" stroke="rgb(0,0,0)" />
	<polygon points="405.824,256.408 406.078,256.739 406.485,257.303 407.202,256.726 406.798,256.57 405.706,256.264 " fill="none" stroke-width="0.5" stroke="rgb(0,0,0)" />
	<polygon points="448.902,255.786 449.5,254.726 449.563,254.616 449.654,254.461 447.999,253.542 " fill="none" stroke-width="0.5" stroke="rgb(0,0,0)" />
	<polygon points="129.272,240.42 129.144,242.38 129.115,243.706 130.469,253.41 131.36,255.775 131.811,252.798 132.84,251.676 132.488,250.222 131.846,248.142 131.035,245.706 131.018,245.655 130.183,243.081 130.109,242.838 129.38,240.281 129.316,240.023 " fill="none" stroke-width="0.5" stroke="rgb(0,0,0)" />
	<polygon points="382.244,246.252 381.451,247.432 380.627,248.425 379.617,249.418 378.612,250.222 377.442,250.981 377.393,251.006 378.345,252.173 378.634,252.553 378.733,252.692 378.847,252.579 380.034,251.459 380.811,250.826 381.937,250.034 384.019,249.036 385.058,248.735 386.241,248.619 385.271,247.935 383.412,245.995 382.849,245.117 " fill="none" stroke-width="0.5" stroke="rgb(0,0,0)" />
	<polygon points="363.058,250.873 363.069,250.852 363.168,250.723 362.66,250.385 " fill="none" stroke-width="0.5" stroke="rgb(0,0,0)" />
	<polygon points="359.592,247.617 358.783,248.163 360.939,248.952 360.414,248.434 359.676,247.548 " fill="none" stroke-width="0.5" stroke="rgb(0,0,0)" />
	<polygon points="324.581,236.809 326.282,238.733 328.567,242.547 328.749,243.051 328.9,242.956 330.093,242.36 331.262,241.91 331.93,241.713 331.136,240.253 330.602,238.99 329.898,236.73 329.616,235.353 329.606,235.25 328.996,235.375 327.591,235.517 326.175,235.516 324.78,235.374 323.399,235.09 322.096,234.682 321.563,234.456 " fill="none" stroke-width="0.5" stroke="rgb(0,0,0)" />
	<polygon points="464.931,220.199 464.891,220.476 464.415,223.417 464.392,223.551 463.847,226.551 463.844,226.568 463.308,229.477 462.862,232.115 462.576,234.311 462.561,234.565 463.515,232.819 464.616,230.107 465.33,227.355 465.57,224.775 465.034,219.969 464.977,219.813 " fill="none" stroke-width="0.5" stroke="rgb(0,0,0)" />
	<polygon points="312.412,225.693 310.554,226.281 309.164,226.57 308.96,226.591 309.262,227.526 310.3,228.694 312.52,230.015 316.002,231.527 316.26,231.645 318.54,232.748 317.512,231.897 316.575,230.959 315.721,229.924 314.972,228.816 314.326,227.629 313.792,226.368 313.444,225.252 " fill="none" stroke-width="0.5" stroke="rgb(0,0,0)" />
	<polygon points="85.8069,213.539 85.8536,213.576 87.01,214.724 87.4728,215.306 88.2117,216.446 88.568,217.135 89.0032,218.172 89.255,218.94 89.4903,219.867 89.6398,220.688 89.7412,221.535 89.7906,222.383 89.7795,222.746 90.2979,222.412 91.0347,222.048 92.9784,221.419 93.7074,221.297 95.842,221.269 96.4858,221.359 98.3648,221.9 98.9764,222.173 100.407,223.053 100.599,220.468 100.754,219.434 101.595,215.734 101.892,214.76 101.927,214.671 100.897,214.911 97.8996,215.241 96.3571,215.239 93.1678,214.883 91.5978,214.521 88.7336,213.502 87.3013,212.799 86.6756,212.398 " fill="none" stroke-width="0.5" stroke="rgb(0,0,0)" />
	<polygon points="438.25,212.504 437.708,212.658 432.588,213.888 431.953,214.01 425.931,214.88 425.259,214.945 425.228,214.946 426.103,215.372 427.512,216.28 431.205,219.344 432.294,220.476 433.816,222.465 434.515,220.837 435.186,219.625 437.709,215.971 438.374,215.148 441.359,211.98 441.978,211.397 442.203,211.211 " fill="none" stroke-width="0.5" stroke="rgb(0,0,0)" />
	<polygon points="131.432,219.755 132.456,220.634 132.738,221.471 133.32,219.157 " fill="none" stroke-width="0.5" stroke="rgb(0,0,0)" />
	<polygon points="64.6228,216.54 65.5078,217.124 66.0247,217.592 67.209,218.986 67.6088,219.605 68.2041,220.769 70.434,216.975 70.4122,216.971 68.3406,216.429 67.1376,215.993 65.5386,215.242 " fill="none" stroke-width="0.5" stroke="rgb(0,0,0)" />
	<polygon points="188.342,213.005 189.293,214.429 190.501,216.83 190.927,217.981 191.836,217.248 194.505,216.864 194.31,216.157 193.806,215.197 193.162,214.455 192.204,213.756 190.733,213.077 188.64,212.498 187.801,212.379 " fill="none" stroke-width="0.5" stroke="rgb(0,0,0)" />
	<polygon points="381.202,201.554 380.521,202.801 379.771,203.907 378.87,204.996 378.725,205.141 378.748,205.156 379.963,206.158 380.91,207.104 381.146,207.389 381.31,206.626 383.831,203.907 385.323,203.467 382.393,201.078 381.707,200.366 " fill="none" stroke-width="0.5" stroke="rgb(0,0,0)" />
	<polygon points="56.8804,204.804 57.0608,204.763 57.0343,204.679 " fill="none" stroke-width="0.5" stroke="rgb(0,0,0)" />
	<polygon points="365.833,170.098 364.718,170.849 364.44,170.999 364.505,171.096 365.544,172.994 366.082,174.255 366.74,176.348 367.025,177.733 367.255,179.972 367.255,181.088 367.57,181.055 369.001,181.054 369.87,181.143 369.801,180.969 367.035,172.121 366.826,171.272 366.514,169.537 " fill="none" stroke-width="0.5" stroke="rgb(0,0,0)" />
	<polygon points="146.448,175.206 145.52,175.451 143.777,175.787 147.006,178.874 147.269,179.157 147.491,178.22 148.45,175.224 148.845,174.392 " fill="none" stroke-width="0.5" stroke="rgb(0,0,0)" />
	<polygon points="108.52,162.641 107.582,163.58 106.547,164.436 105.438,165.187 104.252,165.834 102.99,166.37 101.682,166.779 100.301,167.062 99.2889,167.165 100.239,167.654 100.967,168.087 104.227,170.302 104.946,170.861 107.944,173.528 108.66,174.266 111.249,177.358 111.933,178.333 112.107,178.633 112.353,178.053 113.395,176.135 114.378,174.756 115.764,173.239 117.203,172.036 117.314,171.966 116.229,171.175 113.335,168.53 112.361,167.432 110.139,164.321 109.462,163.148 108.979,162.085 " fill="none" stroke-width="0.5" stroke="rgb(0,0,0)" />
	<polygon points="310.075,170.558 309.615,171.274 310.129,171.273 311.536,171.416 312.911,171.697 313.1,171.756 313.241,171.304 313.385,170.961 312.371,170.754 311.89,170.639 310.255,170.184 " fill="none" stroke-width="0.5" stroke="rgb(0,0,0)" />
	<polygon points="162.534,166.696 163.637,166.912 163.316,166.067 " fill="none" stroke-width="0.5" stroke="rgb(0,0,0)" />
	<polygon points="423.462,143.172 422.168,144.72 419.426,147.172 418.221,148.039 414.606,150.095 414.107,150.329 417.169,150.604 418.525,150.863 424.945,152.76 426.237,153.287 431.923,156.299 432.952,156.965 433.877,157.686 433.49,156.725 431.644,150.288 431.607,146.935 431.345,146.867 430.308,146.505 428.628,145.767 427.387,145.062 426.027,144.095 424.719,142.886 424.096,142.142 " fill="none" stroke-width="0.5" stroke="rgb(0,0,0)" />
	<polygon points="355.384,138.049 355.362,139.064 354.735,145.664 354.686,145.907 355.625,145.717 356.966,145.582 358.368,145.582 359.708,145.717 361.079,145.996 362.327,146.383 363.591,146.915 364.72,147.527 365.837,148.28 366.821,149.091 366.934,149.205 367.159,148.93 367.217,148.875 367.847,148.447 364.984,146.77 363.915,145.999 358.578,141.33 357.732,140.448 355.356,137.494 " fill="none" stroke-width="0.5" stroke="rgb(0,0,0)" />
	<polygon points="129.672,135.771 129.363,135.999 129.03,136.294 126.034,137.767 126.145,138.003 126.666,139.558 127.144,141.852 127.198,142.142 127.59,144.523 127.609,144.601 127.787,144.307 128.332,143.061 128.621,142.181 128.931,141.104 129.197,140.036 129.415,138.987 129.584,137.971 129.704,137.001 129.774,136.09 129.784,135.7 " fill="none" stroke-width="0.5" stroke="rgb(0,0,0)" />
	<polygon points="102.904,139.634 102.813,140.077 102.989,140.132 104.251,140.667 105.437,141.314 106.545,142.063 106.935,142.386 107.24,141.206 107.245,141.191 104.698,140.567 102.905,139.623 " fill="none" stroke-width="0.5" stroke="rgb(0,0,0)" />
	<polygon points="313.728,124.779 312.559,125.324 311.551,126.019 310.719,126.816 310.09,127.649 309.686,128.42 309.287,129.679 308.091,131.526 308.86,131.937 309.797,132.316 310.715,132.572 311.68,132.726 312.817,132.784 313.107,132.775 313.584,132.738 314.162,132.675 314.813,132.591 315.496,132.498 315.554,132.491 316.208,132.408 316.394,132.387 316.983,132.328 317.021,132.326 316.86,132.138 316.618,131.808 316.056,130.901 315.871,130.546 315.467,129.606 315.338,129.232 315.086,128.296 315.01,127.91 314.893,127.003 314.868,126.61 314.892,125.443 314.969,124.7 315.022,124.43 " fill="none" stroke-width="0.5" stroke="rgb(0,0,0)" />
	<polygon points="92.2843,114.705 91.823,115.097 89.5598,116.86 88.5522,117.515 86.2141,118.761 84.2729,119.453 81.8716,119.926 80.5347,119.985 80.7046,122.968 80.7142,123.522 80.6824,124.949 80.6692,125.251 80.5908,126.447 80.7259,126.335 81.8352,125.583 83.0213,124.936 84.2846,124.399 85.5935,123.989 86.975,123.706 88.3781,123.563 89.7965,123.563 91.2016,123.706 92.5813,123.988 93.8921,124.398 95.1542,124.933 95.4399,125.089 95.4373,125.074 94.6436,119.14 94.625,118.989 93.977,113.183 93.9705,113.139 " fill="none" stroke-width="0.5" stroke="rgb(0,0,0)" />
	<polygon points="185.143,109.734 185.063,110.508 184.931,111.333 184.706,112.297 184.476,113.04 183.997,114.207 183.66,114.852 182.787,116.15 182.336,116.681 181.001,117.893 180.428,118.293 178.782,119.14 178.078,119.392 176.445,119.762 175.601,119.85 173.752,119.703 173.976,120.073 174.522,121.185 176.209,125.567 176.391,126.178 176.938,125.747 179.938,123.66 180.794,123.151 183.914,121.585 185.008,121.147 188.23,120.162 189.556,119.893 192.86,119.551 193.829,119.555 193.133,118.868 192.707,118.409 188.463,113.396 188.234,113.112 185.173,109.088 " fill="none" stroke-width="0.5" stroke="rgb(0,0,0)" />
	<polygon points="124.65,112.27 123.115,118.412 123.243,118.235 126.026,114.964 126.831,114.161 127.649,113.468 126.839,112.735 125.337,111.112 125.06,110.791 " fill="none" stroke-width="0.5" stroke="rgb(0,0,0)" />
	<polygon points="413.896,104.949 416.04,106.916 416.961,107.946 417.25,108.341 417.334,104.923 418.046,103.79 416.32,103.772 416.184,103.77 412.851,103.672 412.718,103.666 411.676,103.616 " fill="none" stroke-width="0.5" stroke="rgb(0,0,0)" />
	<polygon points="392.183,102.388 393.227,103.507 393.955,104.431 394.8,105.713 394.852,105.793 394.892,105.856 395.384,105.739 396.752,105.291 398.368,104.683 400.078,104.021 400.257,103.954 401.908,103.366 402.409,103.209 403.063,103.03 402.274,102.962 402.144,102.95 398.719,102.59 398.588,102.575 395.162,102.151 395.03,102.133 391.612,101.643 391.516,101.629 391.137,101.569 " fill="none" stroke-width="0.5" stroke="rgb(0,0,0)" />
	<polygon points="145.989,101.991 145.412,105.213 145.388,105.323 149.376,105.031 150.675,105.056 150.851,105.076 149.524,103.942 146.132,101.214 " fill="none" stroke-width="0.5" stroke="rgb(0,0,0)" />
	<polygon points="380.745,99.3556 380.953,99.316 381.512,99.2278 381.946,99.173 382.493,99.1214 382.93,99.0938 383.462,99.077 384.74,99.1538 386.554,99.4307 386.045,99.0023 385.88,98.8217 384.775,97.211 384.667,96.9934 384.506,96.5419 " fill="none" stroke-width="0.5" stroke="rgb(0,0,0)" />
	<polygon points="65.5929,96.0412 64.9229,96.4108 65.0037,96.4344 68.3862,97.9942 69.5774,98.7612 69.8263,96.8469 69.8276,96.8368 70.1099,94.6896 70.2399,93.5954 " fill="none" stroke-width="0.5" stroke="rgb(0,0,0)" />
	<polygon points="126.515,63.8415 125.785,67.3058 125.689,67.7027 124.842,70.8098 124.367,72.0238 126.358,73.3137 126.385,73.1196 126.556,72.1813 126.825,71.1586 127.086,70.4006 127.856,68.8356 128.226,68.2741 130.045,66.3972 130.285,66.228 130.21,66.1325 130.022,65.8831 128.296,63.4801 127.012,61.7792 " fill="none" stroke-width="0.5" stroke="rgb(0,0,0)" />
	<polygon points="104.998,60.6856 103.274,62.0898 101.428,63.6708 101.253,63.8151 99.4721,65.2431 98.8008,65.7192 97.1829,66.7292 96.8,66.8959 96.8718,67.0783 97.0612,67.7376 97.2652,68.6963 97.3729,69.4628 97.4356,70.1624 97.4697,71.0324 97.4652,71.3871 97.894,71.001 100.285,69.5894 102.343,68.8759 106.043,68.6327 106.137,68.6751 105.942,66.337 105.924,66.044 105.781,62.6088 105.56,60.2993 " fill="none" stroke-width="0.5" stroke="rgb(0,0,0)" />
	<polygon points="400.979,59.1399 400.975,60.4352 401.113,60.3962 402.37,60.162 402.633,60.1376 405.838,60.5912 406.947,61.0265 408.869,62.1635 410.248,63.3113 410.648,63.6715 412.274,65.2516 414.014,66.885 415.762,68.2888 417.484,69.3348 419.153,69.9627 421.186,70.2192 421.353,70.2113 421.906,70.1273 422.365,69.9932 422.612,69.871 422.663,69.8294 422.69,69.7918 422.827,69.4205 422.871,68.9979 422.493,67.7416 420.968,66.1677 417.451,64.0867 412.695,62.1162 407.56,60.4136 402.88,58.9758 402.551,58.8658 400.9,58.2675 " fill="none" stroke-width="0.5" stroke="rgb(0,0,0)" />
	<polygon points="163.176,47.3531 163.043,47.6955 162.277,49.0627 164.491,49.8155 164.683,49.8839 167.094,50.7824 165.73,49.4077 163.272,46.9646 " fill="none" stroke-width="0.5" stroke="rgb(0,0,0)" />
	<polygon points="396.973,39.4368 397.546,40.8144 398.106,42.705 399.881,41.814 400.736,41.4535 403.708,40.4269 404.166,40.2861 407.828,39.2959 408.154,39.2161 409.041,39.0213 406.734,37.8027 402.429,36.1707 398.447,35.0383 395.079,34.1951 394.556,34.0425 393.895,33.8213 " fill="none" stroke-width="0.5" stroke="rgb(0,0,0)" />
	<polygon points="70.1648,40.6076 70.1542,40.6142 69.9868,40.7185 70.9018,40.814 70.916,40.8153 71.0646,40.0445 " fill="none" stroke-width="0.5" stroke="rgb(0,0,0)" />
	<polygon points="153.382,28.9181 152.413,29.5997 151.334,30.2227 150.599,30.5645 152.597,31.8131 153.485,32.3497 153.706,28.525 " fill="none" stroke-width="0.5" stroke="rgb(0,0,0)" />
	<polygon points="82.3687,28.484 81.5646,30.6466 81.5035,30.7428 83.8509,29.8734 84.297,29.6924 84.0319,29.5495 82.4696,27.9738 " fill="none" stroke-width="0.5" stroke="rgb(0,0,0)" />
</svg>
