<?xml version="1.0" standalone="no" ?>
<!DOCTYPE svg PUBLIC "-//W3C//DTD SVG 1.1//EN" "http://www.w3.org/Graphics/SVG/1.1/DTD/svg11.dtd">
<svg width="500px" height="500px" xmlns="http://www.w3.org/2000/svg" version="1.1" >
	<polygon points="461.873,280.754 461.105,294.444 458.823,308.849 454.939,324.18 449.422,340.097 442.259,356.282 433.446,372.43 422.983,388.252 410.875,403.47 397.125,417.818 381.73,431.042 364.679,442.902 345.943,453.161 325.477,461.586 303.215,467.935 279.079,471.951 252.976,473.357 227.553,472.031 203.922,468.228 182.042,462.199 161.858,454.175 143.321,444.377 126.4,433.015 111.078,420.3 97.3505,406.45 85.2247,391.687 74.7115,376.248 65.8236,360.379 58.5715,344.335 52.9608,328.383 48.9885,312.804 46.6381,297.888 45.8405,283.385 45.8405,38.3808 50.0193,38.3488 61.511,38.2606 73.0026,38.1724 73.0027,38.1724 84.4943,38.0842 95.986,37.996 95.986,37.996 118.969,37.8197 130.461,37.7315 141.953,37.6433 153.444,37.5552 164.936,37.467 176.428,37.3788 187.919,37.2906 191.77,37.2611 191.757,43.9251 191.731,56.8239 191.706,69.7227 191.706,69.7227 191.68,82.6214 191.629,108.419 191.629,108.419 191.604,121.318 191.553,147.115 191.553,147.115 191.528,160.014 191.502,172.913 191.502,172.913 191.451,198.711 191.426,211.609 191.426,211.609 191.4,224.508 191.401,224.692 191.488,235.986 191.49,236.128 191.654,246.945 191.66,247.203 191.957,257.509 191.972,257.903 192.457,267.665 192.493,268.223 193.221,277.407 193.296,278.162 194.323,286.735 194.469,287.733 195.85,295.661 196.121,296.952 197.911,304.202 198.393,305.836 200.647,312.376 201.47,314.382 204.244,320.177 205.576,322.517 208.925,327.533 210.922,330.037 214.902,334.241 217.591,336.593 222.256,339.952 225.426,341.798 230.832,344.279 234.088,345.427 240.291,346.997 243.269,347.502 250.323,348.126 251.947,329.779 253.214,348.155 260.475,347.654 263.468,347.206 269.815,345.728 273.15,344.616 278.646,342.198 281.942,340.335 286.647,337.013 289.459,334.582 293.438,330.393 295.513,327.782 298.826,322.763 300.186,320.33 302.895,314.518 303.715,312.45 305.883,305.881 306.349,304.219 308.037,296.929 308.29,295.636 309.561,287.664 309.691,286.682 310.607,278.063 310.671,277.336 311.293,268.106 311.321,267.587 311.713,257.784 311.723,257.435 311.945,247.095 311.949,246.889 312.064,236.05 312.065,235.966 312.135,224.663 312.135,224.508 312.109,211.609 312.057,185.811 312.032,172.912 312.032,172.912 312.006,160.014 311.954,134.216 311.954,134.216 311.928,121.317 311.851,82.6209 311.851,82.6208 311.825,69.722 311.759,36.9932 316.4,36.9633 316.4,36.9633 328.153,36.8878 339.906,36.8122 351.659,36.7367 363.413,36.6611 375.166,36.5855 386.919,36.51 410.426,36.3588 422.179,36.2833 433.932,36.2077 445.685,36.1322 457.439,36.0566 461.873,36.0281 " fill="none" stroke-width="0.5" stroke="rgb(0,0,0)" />
</svg>
