<?xml version="1.0" standalone="no" ?>
<!DOCTYPE svg PUBLIC "-//W3C//DTD SVG 1.1//EN" "http://www.w3.org/Graphics/SVG/1.1/DTD/svg11.dtd">
<svg width="500px" height="500px" xmlns="http://www.w3.org/2000/svg" version="1.1" >
	<polygon points="255.147,413.649 258.007,415.076 260.789,416.733 263.407,418.529 265.771,420.374 267.794,422.179 269.387,423.854 270.461,425.309 271.6,424.941 272.788,424.622 274.024,424.351 275.309,424.13 276.643,423.957 278.026,423.834 279.459,423.76 280.94,423.735 283.071,423.784 285.274,423.935 287.555,424.187 289.92,424.544 292.374,425.008 294.924,425.581 297.576,426.263 300.335,427.059 300.473,426.188 300.648,425.308 300.896,424.456 301.255,423.672 301.761,422.995 302.451,422.462 303.364,422.115 304.535,421.99 306.207,422.244 307.373,422.943 308.145,423.989 308.639,425.287 308.969,426.739 309.251,428.25 309.598,429.723 310.126,431.061 310.603,431.69 311.316,432.29 312.172,432.899 313.08,433.552 313.946,434.288 314.679,435.142 315.187,436.153 315.377,437.357 315.252,438.508 314.91,439.473 314.395,440.261 313.753,440.883 313.028,441.349 312.268,441.669 311.517,441.854 310.82,441.913 310.551,441.905 310.271,441.883 309.987,441.848 309.705,441.804 309.431,441.751 309.171,441.693 308.931,441.63 308.718,441.566 307.529,443.05 306.443,446.202 305.249,450.447 303.74,455.209 301.706,459.914 298.94,463.987 295.232,466.852 290.374,467.935 286.364,467.53 282.49,466.368 278.808,464.526 275.373,462.083 272.241,459.116 269.466,455.703 267.104,451.922 265.211,447.852 264.69,446.666 264.057,445.605 263.329,444.678 262.526,443.897 261.665,443.271 260.765,442.811 259.844,442.528 258.92,442.431 257.925,442.461 257.009,442.571 256.138,442.791 255.278,443.154 254.392,443.688 253.448,444.425 252.409,445.396 251.242,446.63 247.415,450.412 243.028,453.976 238.113,457.233 232.699,460.096 226.819,462.476 220.503,464.285 213.781,465.435 206.685,465.838 204.518,465.815 202.492,465.755 200.635,465.669 198.972,465.571 197.53,465.473 196.336,465.388 195.416,465.327 194.797,465.305 194.564,465.312 194.39,465.335 194.265,465.369 194.181,465.414 194.13,465.467 194.104,465.525 194.094,465.587 194.093,465.651 194.373,466.259 195.223,467.099 196.654,468.073 198.679,469.086 201.31,470.042 204.56,470.844 208.44,471.395 212.965,471.601 223.449,470.857 231.996,468.897 238.847,466.126 244.245,462.949 248.43,459.772 251.644,457.001 254.128,455.041 256.125,454.297 256.451,454.303 256.879,454.341 257.384,454.445 257.939,454.647 258.518,454.981 259.094,455.479 259.643,456.174 260.137,457.098 263.197,462.797 266.883,467.391 271.027,470.987 275.462,473.691 280.018,475.609 284.529,476.847 288.827,477.512 292.743,477.71 295.496,477.68 297.562,477.601 299.079,477.489 300.187,477.36 301.025,477.232 301.733,477.12 302.449,477.041 303.313,477.011 304.184,477.081 304.853,477.273 305.346,477.564 305.691,477.929 305.913,478.343 306.039,478.782 306.096,479.221 306.109,479.636 305.711,481.108 304.532,482.597 302.596,484.036 299.924,485.36 296.54,486.504 292.466,487.403 287.724,487.989 282.338,488.2 279.161,487.987 276.316,487.38 273.805,486.429 271.635,485.184 269.809,483.692 268.331,482.005 267.206,480.17 266.438,478.238 262.959,480.302 259.11,482.263 254.945,484.068 250.52,485.665 245.889,487 241.109,488.019 236.234,488.67 231.319,488.899 219.086,488.22 209.021,486.388 200.785,483.708 194.041,480.485 188.452,477.026 183.679,473.635 179.385,470.618 175.231,468.282 171.806,467.295 167.946,466.913 163.644,466.675 158.892,466.119 153.681,464.785 148.004,462.213 141.851,457.94 135.214,451.507 136.171,451.688 137.19,451.839 138.255,451.96 139.347,452.054 140.446,452.124 141.535,452.171 142.595,452.197 143.607,452.206 149.278,451.844 154.233,450.783 158.46,449.058 161.946,446.707 164.68,443.766 166.647,440.271 167.837,436.258 168.236,431.765 168.228,431.166 168.206,430.557 168.171,429.941 168.126,429.322 168.073,428.704 168.013,428.09 167.95,427.483 167.884,426.888 169.987,427.911 172.505,429.539 175.265,431.774 178.093,434.613 180.813,438.059 183.254,442.111 185.239,446.77 186.596,452.035 187.025,452.68 187.983,453.292 189.36,453.854 191.043,454.35 192.924,454.765 194.892,455.081 196.835,455.283 198.644,455.354 201.07,455.221 203.558,454.783 206.01,453.98 208.323,452.754 210.399,451.045 212.137,448.794 213.436,445.943 214.197,442.431 221.733,441.291 228.579,439.239 234.684,436.358 239.997,432.736 244.466,428.457 248.041,423.608 250.669,418.274 252.299,412.541 " fill="none" stroke-width="0.5" stroke="rgb(0,0,0)" />
	<polygon points="380.355,424.793 381.988,425.358 383.599,426.324 385.106,427.712 386.423,429.541 387.468,431.833 388.157,434.607 388.405,437.885 387.291,444.238 384.075,450.668 380.547,454.948 374.668,459.037 354.126,470.285 347.736,472.915 343.102,473.998 331.255,474.909 327.69,474.595 324.571,473.709 321.908,472.332 319.709,470.546 317.983,468.433 316.74,466.074 315.987,463.551 315.734,460.945 315.975,457.261 316.647,453.696 317.67,450.29 318.966,447.083 320.457,444.112 322.064,441.417 323.708,439.036 325.311,437.01 326.033,436.183 326.753,435.42 327.467,434.736 328.176,434.144 328.876,433.659 329.567,433.295 330.245,433.066 330.909,432.987 331.569,433.114 332.52,433.451 333.792,433.927 335.411,434.473 337.408,435.018 339.81,435.494 342.646,435.831 345.944,435.959 352.241,435.615 357.889,434.678 362.9,433.291 367.285,431.597 371.054,429.739 374.22,427.86 376.793,426.102 378.785,424.61 " fill="none" stroke-width="0.5" stroke="rgb(0,0,0)" />
	<polygon points="128.927,370.058 136.01,372.517 142.368,376.463 147.869,381.77 152.378,388.314 155.764,395.97 157.893,404.611 158.632,414.115 158.312,418.799 157.25,423.748 155.295,428.689 152.296,433.346 148.102,437.446 142.56,440.714 135.521,442.876 126.832,443.658 116.066,442.49 106.49,439.266 98.9232,434.839 98.2672,434.295 86.2352,422.154 85.6563,421.437 81.5959,414.168 79.104,406.934 78.2565,400.151 78.666,395.023 79.7947,390.417 81.4928,386.363 83.6108,382.887 85.9989,380.017 88.5074,377.783 90.9866,376.211 93.2869,375.33 91.9101,384.833 92.3194,394.013 94.4519,402.579 98.2444,410.24 103.634,416.705 110.557,421.684 118.951,424.885 128.753,426.018 133.661,425.686 137.901,424.703 141.476,423.094 144.391,420.881 146.65,418.087 148.259,414.734 149.221,410.847 149.54,406.447 149.112,401.295 147.851,396.305 145.791,391.64 142.968,387.461 139.416,383.93 135.17,381.207 130.265,379.455 124.735,378.835 121.908,379.043 119.344,379.643 117.079,380.603 115.148,381.89 113.584,383.471 112.425,385.314 111.703,387.385 111.455,389.651 111.84,393.404 112.932,396.762 114.634,399.692 116.85,402.162 119.484,404.14 122.439,405.593 125.62,406.488 128.929,406.794 131.054,406.681 132.963,406.349 134.635,405.807 136.049,405.067 137.184,404.138 138.021,403.03 138.537,401.755 138.714,400.322 138.706,400.053 138.681,399.774 138.639,399.492 138.581,399.211 138.507,398.937 138.417,398.677 138.312,398.436 138.191,398.22 137.895,398.351 137.538,398.478 137.123,398.597 136.656,398.704 136.14,398.794 135.58,398.864 134.98,398.908 134.345,398.924 131.73,398.735 129.299,398.202 127.103,397.373 125.191,396.299 123.616,395.029 122.428,393.612 121.678,392.098 121.416,390.537 121.52,389.347 121.82,388.284 122.3,387.359 122.943,386.581 123.734,385.959 124.655,385.503 125.692,385.222 126.827,385.126 130.597,385.607 134.01,386.941 137.021,388.967 139.585,391.523 141.658,394.448 143.194,397.581 144.149,400.759 144.477,403.822 144.21,406.768 143.424,409.549 142.138,412.095 140.372,414.335 138.149,416.199 135.486,417.618 132.406,418.52 128.929,418.837 121.692,418.071 115.545,415.954 110.451,412.756 106.37,408.747 103.263,404.197 101.092,399.375 99.8177,394.552 99.4016,389.998 99.8673,385.544 101.193,381.518 103.273,377.971 106,374.954 109.268,372.518 112.97,370.714 117,369.595 121.251,369.21 " fill="none" stroke-width="0.5" stroke="rgb(0,0,0)" />
	<polygon points="237.396,380.538 238.424,380.917 239.309,381.509 240.052,382.281 240.655,383.199 241.12,384.231 241.449,385.343 241.644,386.503 242.095,386.085 242.537,385.728 242.979,385.431 243.43,385.19 243.897,385.006 244.388,384.876 244.913,384.799 245.48,384.774 246.726,384.899 247.832,385.255 248.791,385.811 249.594,386.537 250.233,387.402 250.699,388.378 250.985,389.433 251.082,390.536 251.035,391.248 250.897,391.937 250.678,392.597 250.385,393.222 250.026,393.806 249.61,394.343 249.145,394.825 248.639,395.248 249.382,395.67 250.039,396.142 250.606,396.665 251.08,397.244 251.455,397.88 251.729,398.575 251.896,399.334 251.952,400.157 251.857,401.168 251.581,402.099 251.141,402.933 250.554,403.652 249.835,404.241 249.001,404.682 248.069,404.959 247.054,405.055 246.116,404.919 245.25,404.561 244.429,404.055 243.626,403.475 242.815,402.895 241.97,402.389 241.064,402.032 240.07,401.896 239.475,401.928 238.878,402.022 238.292,402.173 237.732,402.377 237.213,402.63 236.75,402.929 236.356,403.269 236.047,403.646 236.416,404.563 236.736,405.477 237.007,406.385 237.228,407.287 237.4,408.18 237.523,409.064 237.596,409.936 237.621,410.796 236.842,415.772 234.636,420.402 231.197,424.589 226.719,428.235 221.398,431.24 215.428,433.509 209.004,434.942 202.32,435.441 196.102,434.952 190.905,433.624 186.671,431.666 183.339,429.286 180.852,426.692 179.148,424.094 178.169,421.699 177.856,419.717 177.889,419.349 177.985,419.03 178.142,418.759 178.359,418.538 178.634,418.365 178.964,418.242 179.347,418.168 179.783,418.143 180.806,418.188 181.73,418.307 182.667,418.476 183.73,418.668 185.031,418.861 186.682,419.03 188.795,419.149 191.484,419.194 197.57,418.075 201.811,415.126 204.804,410.956 207.143,406.175 209.425,401.395 212.246,397.225 216.201,394.275 221.886,393.156 222.931,393.237 224.179,393.481 225.555,393.89 226.981,394.463 228.382,395.199 229.681,396.1 230.803,397.164 231.671,398.391 232.156,397.738 232.562,397.087 232.895,396.439 233.159,395.797 233.357,395.162 233.493,394.538 233.572,393.925 233.598,393.327 233.515,392.244 233.297,391.212 232.988,390.216 232.635,389.243 232.281,388.278 231.972,387.309 231.754,386.322 231.671,385.302 231.76,384.235 232.014,383.279 232.421,382.442 232.965,381.735 233.631,381.167 234.406,380.75 235.275,380.492 236.223,380.404 " fill="none" stroke-width="0.5" stroke="rgb(0,0,0)" />
	<polygon points="417.501,348.692 422.796,350.078 427.833,352.423 432.411,355.756 436.325,360.103 439.373,365.494 441.35,371.956 442.055,379.519 440.635,388.363 436.849,397.33 431.409,406.017 425.028,414.025 418.417,420.951 412.288,426.395 407.354,429.955 404.327,431.231 402.811,430.976 401.318,430.271 399.903,429.205 398.622,427.87 397.529,426.354 396.679,424.749 396.129,423.143 395.934,421.627 395.963,421.154 396.071,420.653 396.285,420.132 396.635,419.596 397.148,419.052 397.854,418.507 398.781,417.965 399.957,417.433 405.899,414.563 411.142,411.065 415.657,407.129 419.416,402.947 422.389,398.706 424.548,394.599 425.864,390.814 426.309,387.543 426.268,386.891 426.138,386.261 425.914,385.673 425.59,385.148 425.16,384.704 424.617,384.362 423.954,384.142 423.167,384.064 421.613,385.31 419.243,388.595 416.152,393.238 412.439,398.561 408.201,403.884 403.535,408.528 398.539,411.812 393.309,413.058 389.645,412.668 386.085,411.604 382.746,410.024 379.749,408.088 377.211,405.955 375.251,403.784 373.988,401.734 373.54,399.965 374.758,397.08 377.968,393.746 382.506,390.07 387.709,386.156 392.911,382.111 397.45,378.042 400.66,374.053 401.878,370.251 401.798,369.03 401.58,368.099 401.248,367.419 400.826,366.951 400.339,366.655 399.81,366.492 399.266,366.423 398.73,366.409 396.62,367.573 393.232,370.641 388.843,374.978 383.734,379.951 378.185,384.923 372.474,389.261 366.88,392.329 361.684,393.492 360.534,393.228 359.457,392.494 358.478,391.375 357.622,389.958 356.913,388.328 356.376,386.573 356.036,384.778 355.917,383.029 355.995,382.143 356.249,381.321 356.709,380.559 357.402,379.857 358.358,379.212 359.606,378.622 361.175,378.085 363.093,377.598 372.775,374.38 379.825,370.135 385.053,365.313 389.266,360.362 393.275,355.73 397.886,351.865 403.91,349.218 412.154,348.236 " fill="none" stroke-width="0.5" stroke="rgb(0,0,0)" />
	<polygon points="357.085,405.704 360.555,406.108 363.647,406.77 366.303,407.679 368.467,408.826 370.083,410.202 371.094,411.795 371.443,413.597 371.443,417.615 371.426,418.338 371.369,419.053 371.264,419.751 371.101,420.424 370.872,421.063 370.568,421.659 370.179,422.204 369.698,422.689 367.901,424.041 365.906,425.213 363.733,426.204 361.4,427.015 358.926,427.646 356.33,428.097 353.631,428.367 350.848,428.457 347.4,428.308 344.185,427.886 341.273,427.231 338.735,426.381 336.639,425.375 335.055,424.252 334.054,423.05 333.704,421.809 333.704,413.773 334.022,412.716 334.969,411.456 336.535,410.098 338.71,408.75 341.483,407.516 344.844,406.504 348.784,405.819 353.292,405.567 " fill="none" stroke-width="0.5" stroke="rgb(0,0,0)" />
	<polygon points="307.529,313.07 310.168,313.412 312.571,313.954 314.676,314.674 316.421,315.55 317.744,316.56 318.583,317.68 318.877,318.89 318.385,320.282 317.084,321.168 315.231,321.729 313.081,322.148 310.89,322.607 308.915,323.289 307.412,324.376 306.637,326.05 309.375,326.522 311.589,327.13 313.328,327.848 314.64,328.65 315.575,329.51 316.182,330.401 316.511,331.296 316.609,332.17 316.452,333.492 316.01,334.584 315.326,335.463 314.443,336.145 313.404,336.646 312.251,336.984 311.029,337.174 309.78,337.234 308.849,337.211 307.886,337.152 306.893,337.068 305.874,336.972 304.829,336.876 303.762,336.793 302.674,336.733 301.568,336.711 300.125,336.756 298.692,336.905 297.277,337.181 295.886,337.607 294.529,338.205 293.213,338.998 291.946,340.008 290.737,341.257 291.628,341.446 292.567,341.759 293.503,342.203 294.383,342.787 295.157,343.519 295.774,344.407 296.181,345.459 296.328,346.683 295.12,349.718 291.933,351.636 287.428,353.058 282.264,354.606 277.099,356.9 272.594,360.56 269.408,366.209 268.199,374.466 268.857,379.666 270.777,384.792 273.876,389.652 278.072,394.057 283.283,397.814 289.428,400.734 296.423,402.626 304.188,403.299 308.192,403.133 311.782,402.66 314.92,401.916 317.57,400.938 319.695,399.763 321.258,398.428 322.223,396.969 322.553,395.424 322.298,394.422 321.625,393.818 320.674,393.488 319.584,393.306 318.493,393.149 317.542,392.892 316.87,392.409 316.614,391.577 316.705,391.072 316.942,390.484 317.278,389.831 317.663,389.127 318.048,388.391 318.384,387.637 318.621,386.883 318.711,386.145 318.679,385.799 318.58,385.41 318.416,385.007 318.187,384.615 317.892,384.263 317.532,383.978 317.106,383.787 316.614,383.718 315.293,383.935 313.671,384.507 311.71,385.316 309.371,386.244 306.615,387.172 303.403,387.981 299.695,388.553 295.453,388.77 291.94,388.524 288.549,387.812 285.388,386.674 282.563,385.152 280.181,383.286 278.347,381.115 277.168,378.681 276.752,376.024 276.784,375.468 276.878,374.979 277.03,374.559 277.235,374.211 277.489,373.936 277.788,373.737 278.127,373.616 278.502,373.575 278.911,373.605 279.347,373.685 279.802,373.797 280.272,373.927 280.749,374.056 281.23,374.169 281.706,374.249 282.173,374.279 282.527,374.245 282.807,374.139 283.022,373.955 283.178,373.687 283.285,373.33 283.352,372.877 283.385,372.322 283.395,371.659 283.401,370.79 283.447,369.699 283.57,368.488 283.809,367.263 284.204,366.129 284.793,365.189 285.615,364.549 286.708,364.312 288.125,364.838 289.993,366.224 292.488,368.183 295.783,370.429 300.053,372.675 305.472,374.635 312.215,376.021 320.456,376.547 323.78,376.469 327.608,376.22 331.739,375.775 335.967,375.109 340.091,374.196 343.907,373.013 347.212,371.533 349.802,369.733 349.036,377.167 346.858,384.805 343.25,392.279 338.195,399.221 331.674,405.261 323.671,410.032 314.166,413.165 303.142,414.291 291.606,413.117 281.521,409.818 272.915,404.725 265.814,398.169 260.245,390.483 256.233,381.998 253.807,373.047 252.993,363.96 253.989,354.095 256.871,344.715 261.477,336.076 267.646,328.433 275.215,322.044 284.024,317.163 293.912,314.047 304.716,312.951 " fill="none" stroke-width="0.5" stroke="rgb(0,0,0)" />
	<polygon points="141.127,344.863 144.041,345.26 146.784,345.977 149.375,347.058 151.835,348.549 154.184,350.494 156.443,352.94 158.632,355.93 160.405,359.092 161.843,362.559 163.018,366.146 164.006,369.666 164.879,372.932 165.71,375.758 166.574,377.959 167.543,379.348 168.103,379.768 168.728,380.111 169.397,380.385 170.094,380.595 170.8,380.747 171.495,380.848 172.162,380.904 172.782,380.922 173.43,380.914 174.059,380.893 174.668,380.864 175.253,380.831 175.814,380.798 176.349,380.769 176.854,380.748 177.328,380.74 181.849,381.361 185.939,383.05 189.546,385.55 192.616,388.602 195.097,391.95 196.934,395.336 198.076,398.5 198.468,401.186 198.238,403.181 197.579,404.848 196.536,406.207 195.152,407.276 193.474,408.074 191.546,408.621 189.413,408.935 187.119,409.035 184.261,408.839 181.366,408.28 178.497,407.402 175.713,406.251 173.077,404.869 170.65,403.302 168.493,401.594 166.668,399.788 165.495,398.321 164.455,396.547 163.533,394.489 162.717,392.17 161.99,389.613 161.339,386.842 160.749,383.878 160.206,380.746 159.419,377.473 158.091,374.362 156.205,371.445 153.745,368.751 150.696,366.313 147.04,364.161 142.762,362.325 137.845,360.839 134.086,359.816 131.133,358.842 128.894,357.898 127.272,356.964 126.175,356.021 125.508,355.051 125.177,354.034 125.087,352.952 125.392,351.193 126.249,349.603 127.569,348.202 129.263,347.01 131.244,346.048 133.423,345.335 135.711,344.893 138.021,344.741 " fill="none" stroke-width="0.5" stroke="rgb(0,0,0)" />
	<polygon points="80.2789,218.346 80.9612,218.635 81.5326,219.083 81.9954,219.665 82.3517,220.353 82.6035,221.121 82.7531,221.942 82.8025,222.79 82.3448,226.608 81.1384,231.513 79.4328,237.118 77.4775,243.037 75.5223,248.881 73.8166,254.265 72.6102,258.801 72.1526,262.103 72.169,262.487 72.2197,262.846 72.307,263.173 72.4333,263.458 72.6009,263.693 72.8121,263.871 73.0691,263.984 73.3744,264.024 75.1976,263.195 77.3091,260.928 79.5882,257.557 81.9141,253.411 84.1659,248.824 86.2229,244.125 87.9643,239.648 89.2692,235.724 89.8826,233.994 90.5369,232.482 91.224,231.191 91.9357,230.125 92.6639,229.289 93.4005,228.687 94.1373,228.323 94.8663,228.2 95.51,228.291 96.1217,228.564 96.6848,229.022 97.1826,229.666 97.5986,230.499 97.9163,231.523 98.1191,232.739 98.1904,234.15 97.7996,238.246 96.7038,243.303 95.0179,249.085 92.8567,255.357 90.3352,261.883 87.5681,268.428 84.6703,274.757 81.7567,280.634 79.4002,285.17 76.8792,290.036 74.3412,295.086 71.9338,300.175 69.8045,305.157 68.1008,309.888 66.9704,314.222 66.5608,318.015 66.6111,319.795 66.8016,321.601 67.1922,323.444 67.8427,325.333 68.8128,327.28 70.1624,329.294 71.9511,331.387 74.2388,333.568 70.3441,333.275 66.9984,332.864 64.1281,332.248 61.6594,331.342 59.5186,330.059 57.6319,328.313 55.9257,326.018 54.3263,323.089 50.4004,335.28 51.5308,344.548 56.0403,351.8 62.2517,357.947 68.4878,363.896 73.0715,370.557 74.3257,378.839 70.5732,389.651 68.3501,387.364 64.5572,384.727 59.7698,381.409 54.563,377.079 51.582,373.731 48.8916,368.927 42.1012,353.904 41.0459,343.007 42.1718,332.369 45.1402,322.809 49.3368,314.239 54.1475,306.575 58.9583,299.731 63.1549,293.619 66.1232,288.155 67.2491,283.253 67.2075,282.353 67.0785,281.483 66.8558,280.641 66.5328,279.827 66.1033,279.036 65.5609,278.268 64.8992,277.521 64.1118,276.792 62.1898,275.001 60.6757,273.331 59.4529,271.818 58.4047,270.498 57.4142,269.408 56.3647,268.584 55.1396,268.063 53.622,267.881 52.3632,268.225 51.1417,269.188 50.0626,270.672 49.2307,272.575 48.751,274.797 48.7284,277.239 49.2677,279.799 50.4739,282.378 50.9896,283.193 51.4761,283.944 51.9212,284.649 52.3127,285.328 52.6385,285.999 52.8862,286.68 53.0438,287.389 53.0991,288.146 52.7579,290.322 51.8124,293.018 50.3793,295.985 48.5758,298.972 46.5186,301.73 44.3248,304.009 42.1112,305.56 39.9948,306.132 38.0257,305.513 36.2072,303.694 34.5737,300.738 33.1599,296.705 32.0001,291.656 31.129,285.651 30.581,278.752 30.3907,271.019 30.5886,263.839 31.1565,256.873 32.0558,250.351 33.2479,244.501 34.6941,239.552 36.3557,235.734 38.1942,233.275 40.1709,232.405 40.7111,232.453 41.1595,232.59 41.522,232.81 41.8049,233.103 42.0143,233.462 42.1562,233.879 42.2369,234.346 42.2624,234.854 42.2326,235.814 42.1541,236.997 42.043,238.412 41.9156,240.072 41.7883,241.984 41.6772,244.162 41.5986,246.614 41.5688,249.351 41.6544,252.092 41.8935,254.208 42.2596,255.78 42.726,256.888 43.2662,257.611 43.8535,258.028 44.4616,258.22 45.0636,258.267 46.9883,256.705 48.453,252.587 49.6685,246.765 50.8455,240.091 52.1948,233.417 53.9272,227.595 56.2535,223.477 59.3844,221.915 60.1665,222.018 60.8108,222.314 61.3277,222.782 61.7274,223.401 62.0204,224.151 62.2169,225.012 62.3272,225.963 62.3617,226.984 62.1888,230.226 61.7331,233.72 61.0888,237.357 60.3502,241.03 59.6116,244.628 58.9673,248.044 58.5115,251.168 58.3387,253.891 58.3793,255.034 58.5,255.977 58.6985,256.737 58.9729,257.326 59.3211,257.759 59.741,258.05 60.2306,258.215 60.7877,258.267 62.503,256.547 64.4735,252.013 66.6606,245.603 69.0252,238.255 71.5287,230.908 74.1322,224.498 76.7968,219.964 79.4837,218.244 " fill="none" stroke-width="0.5" stroke="rgb(0,0,0)" />
	<polygon points="215.766,309.335 216.68,312.165 217.838,314.646 219.266,316.811 220.99,318.689 223.033,320.312 225.422,321.71 228.182,322.913 233.403,325.207 237.496,327.751 240.595,330.517 242.833,333.477 244.342,336.601 245.256,339.862 245.706,343.23 245.827,346.678 245.299,352.71 243.665,358.828 240.851,364.758 236.785,370.224 231.392,374.953 224.598,378.67 216.33,381.101 206.514,381.973 198.317,381.068 190.84,378.537 184.199,374.655 178.509,369.695 173.883,363.933 170.437,357.642 168.285,351.098 167.543,344.576 167.601,342.792 167.78,341.028 168.086,339.35 168.525,337.827 169.104,336.524 169.827,335.511 170.703,334.853 171.736,334.619 172.644,334.713 173.423,334.979 174.106,335.391 174.73,335.926 175.33,336.56 175.939,337.266 176.594,338.022 177.328,338.802 180.318,341.492 183.409,343.681 186.639,345.415 190.044,346.736 193.662,347.689 197.53,348.315 201.684,348.659 206.162,348.764 210.206,348.561 213.91,347.984 217.213,347.082 220.053,345.908 222.369,344.512 224.099,342.946 225.182,341.26 225.557,339.507 224.859,336.882 223.017,334.75 220.415,332.884 217.431,331.056 214.447,329.04 211.844,326.609 210.003,323.534 209.305,319.589 209.394,318.378 209.664,316.992 210.114,315.452 210.744,313.776 211.554,311.986 212.546,310.101 213.718,308.141 215.072,306.127 " fill="none" stroke-width="0.5" stroke="rgb(0,0,0)" />
	<polygon points="306.074,346.793 309.361,347.616 312.257,348.898 314.719,350.565 316.707,352.544 318.178,354.76 319.091,357.141 319.405,359.611 319.252,361.27 318.808,362.829 318.093,364.25 317.127,365.496 315.932,366.531 314.527,367.316 312.934,367.814 311.172,367.988 309.54,367.822 308.058,367.349 306.748,366.605 305.63,365.628 304.724,364.455 304.052,363.124 303.633,361.671 303.489,360.134 303.541,359.028 303.68,357.937 303.875,356.863 304.1,355.806 304.324,354.764 304.52,353.74 304.658,352.732 304.711,351.741 304.684,351.085 304.6,350.429 304.45,349.773 304.226,349.117 303.921,348.462 303.527,347.808 303.035,347.154 302.438,346.502 " fill="none" stroke-width="0.5" stroke="rgb(0,0,0)" />
	<polygon points="94.0034,321.197 96.0457,321.923 97.8649,323.004 99.4431,324.383 100.762,326.001 101.804,327.8 102.55,329.721 103.108,329.28 103.725,328.875 104.396,328.508 105.113,328.182 105.872,327.901 106.666,327.668 107.488,327.483 108.333,327.352 110.516,327.326 112.622,327.76 114.596,328.613 116.383,329.838 117.926,331.392 119.172,333.231 120.064,335.31 120.547,337.586 120.526,339.824 120.089,341.931 119.268,343.873 118.094,345.617 116.599,347.131 114.816,348.381 112.775,349.335 110.51,349.959 110.263,350.002 110.008,350.041 109.758,350.077 109.526,350.107 109.324,350.132 109.164,350.151 109.059,350.163 109.022,350.167 109.208,350.62 109.378,351.067 109.532,351.518 109.671,351.985 109.793,352.475 109.9,353 109.992,353.568 110.067,354.19 110.096,356.544 109.684,358.734 108.868,360.726 107.682,362.488 106.163,363.986 104.344,365.186 102.262,366.057 99.9511,366.564 97.6546,366.673 95.5319,366.396 93.6023,365.76 91.885,364.796 90.3993,363.53 89.1645,361.992 88.1998,360.21 87.5245,358.213 86.9665,358.529 86.3493,358.82 85.6791,359.084 84.962,359.32 84.2045,359.527 83.4127,359.703 82.5929,359.847 81.7513,359.958 79.4379,359.983 77.2396,359.562 75.2046,358.74 73.3811,357.562 71.8172,356.071 70.5611,354.312 69.6608,352.329 69.1646,350.167 69.1394,347.705 69.6307,345.43 70.5592,343.373 71.8451,341.568 73.4089,340.044 75.171,338.836 77.0517,337.974 78.9715,337.49 79.25,337.45 79.5427,337.407 79.8337,337.364 80.1073,337.324 80.3477,337.288 80.5389,337.259 80.6653,337.241 80.7109,337.234 80.5258,336.778 80.3656,336.325 80.2286,335.875 80.1133,335.431 80.018,334.994 79.9411,334.566 79.8809,334.149 79.8359,333.744 79.8196,331.363 80.2069,329.144 80.9678,327.12 82.0722,325.322 83.4899,323.783 85.1909,322.536 87.1452,321.613 89.3226,321.045 91.7564,320.885 " fill="none" stroke-width="0.5" stroke="rgb(0,0,0)" />
	<polygon points="364.965,335.966 369.161,337.199 372.831,338.956 375.93,341.172 378.417,343.781 380.247,346.719 381.376,349.918 381.762,353.315 381.538,355.815 380.885,358.159 379.835,360.293 378.418,362.162 376.665,363.712 374.607,364.886 372.274,365.631 369.698,365.891 367.328,365.678 365.193,365.065 363.317,364.097 361.726,362.815 360.445,361.264 359.499,359.485 358.913,357.522 358.712,355.418 358.855,353.538 359.232,351.698 359.764,349.887 360.375,348.095 360.985,346.311 361.517,344.525 361.894,342.726 362.037,340.905 362.011,340.242 361.935,339.565 361.805,338.876 361.62,338.176 361.377,337.469 361.075,336.756 360.712,336.04 360.286,335.324 " fill="none" stroke-width="0.5" stroke="rgb(0,0,0)" />
	<polygon points="458.492,300.009 461.454,301.477 464.129,303.788 466.455,306.833 468.37,310.5 469.814,314.68 470.726,319.262 471.043,324.135 470.734,329.487 469.819,334.882 468.315,340.25 466.238,345.517 463.605,350.611 460.434,355.461 456.742,359.995 452.545,364.141 451.246,356.646 447.932,351.413 443.278,347.79 437.958,345.122 432.645,342.758 428.016,340.044 424.743,336.327 423.503,330.954 423.741,328.322 424.422,325.947 425.498,323.859 426.918,322.085 428.633,320.656 430.593,319.599 432.75,318.944 435.054,318.719 437.096,318.793 439.022,319.014 440.834,319.383 442.53,319.9 444.112,320.565 445.579,321.378 446.932,322.338 448.169,323.447 447.063,322.276 446.103,321.006 445.292,319.656 444.628,318.24 444.111,316.776 443.742,315.28 443.521,313.768 443.447,312.258 443.643,309.799 444.223,307.457 445.18,305.296 446.504,303.381 448.187,301.779 450.221,300.553 452.595,299.77 455.303,299.495 " fill="none" stroke-width="0.5" stroke="rgb(0,0,0)" />
	<polygon points="332.152,318.565 337.835,321.173 342.695,324.486 346.712,328.372 349.869,332.701 352.146,337.341 353.526,342.161 353.99,347.03 353.731,350.325 352.964,353.465 351.705,356.362 349.97,358.929 347.776,361.078 345.14,362.721 342.076,363.772 338.603,364.141 335.381,363.86 332.44,363.034 329.823,361.692 327.579,359.863 325.753,357.576 324.391,354.858 323.541,351.739 323.247,348.246 323.493,345.48 324.142,342.686 325.06,339.872 326.112,337.043 327.164,334.206 328.082,331.366 328.731,328.53 328.977,325.703 328.935,324.591 328.803,323.478 328.573,322.364 328.237,321.25 327.786,320.136 327.212,319.022 326.508,317.907 325.664,316.793 " fill="none" stroke-width="0.5" stroke="rgb(0,0,0)" />
	<polygon points="370.714,254.259 371.803,255.229 372.922,256.599 374.035,258.171 375.107,259.742 376.104,261.112 376.992,262.082 377.734,262.45 378.825,262.149 379.989,261.358 381.199,260.238 382.428,258.955 383.649,257.672 384.836,256.552 385.963,255.76 387.002,255.46 387.302,255.486 387.557,255.567 387.768,255.71 387.937,255.92 388.065,256.204 388.154,256.568 388.207,257.016 388.224,257.557 388.084,260.019 387.71,262.54 387.178,265.099 386.568,267.671 385.958,270.236 385.425,272.771 385.048,275.254 384.905,277.662 384.974,279.318 385.193,280.974 385.581,282.56 386.156,284.01 386.935,285.256 387.937,286.229 389.181,286.863 390.683,287.09 392.03,286.838 393.297,286.122 394.453,285.001 395.467,283.534 396.309,281.78 396.949,279.799 397.355,277.648 397.497,275.389 397.445,272.843 397.306,270.457 397.11,268.242 396.886,266.212 396.662,264.378 396.466,262.752 396.328,261.348 396.275,260.177 396.299,259.753 396.369,259.392 396.479,259.092 396.626,258.851 396.806,258.667 397.014,258.538 397.245,258.462 397.497,258.437 398.474,258.803 399.44,259.658 400.402,260.836 401.367,262.172 402.339,263.499 403.327,264.652 404.336,265.466 405.372,265.774 406.617,265.526 407.955,264.872 409.337,263.947 410.711,262.887 412.028,261.827 413.237,260.903 414.286,260.249 415.126,260.001 415.308,260.031 415.458,260.113 415.579,260.233 415.673,260.374 415.743,260.524 415.79,260.667 415.816,260.789 415.825,260.876 415.652,261.995 415.196,263.331 414.552,264.806 413.813,266.343 413.075,267.863 412.43,269.288 411.975,270.54 411.802,271.542 412.238,272.194 413.387,272.734 415.011,273.195 416.873,273.615 418.736,274.025 420.36,274.463 421.509,274.963 421.945,275.559 421.478,276.43 420.204,277.112 418.313,277.663 415.995,278.14 413.439,278.601 410.836,279.102 408.376,279.702 406.247,280.457 404.504,281.267 402.952,282.131 401.604,283.052 400.472,284.035 399.57,285.084 398.91,286.203 398.505,287.397 398.367,288.669 398.527,289.852 398.99,290.798 399.733,291.53 400.729,292.074 401.955,292.454 403.386,292.694 404.998,292.821 406.765,292.857 410.977,292.587 414.839,291.875 418.327,290.869 421.416,289.715 424.08,288.561 426.295,287.554 428.035,286.842 429.276,286.572 429.463,286.588 429.632,286.634 429.781,286.708 429.907,286.809 430.008,286.934 430.083,287.083 430.13,287.253 430.146,287.442 429.891,288.272 429.218,289.395 428.267,290.726 427.176,292.182 426.086,293.68 425.135,295.134 424.462,296.462 424.207,297.579 424.673,298.712 425.898,299.866 427.628,301.017 429.606,302.137 431.576,303.2 433.281,304.18 434.465,305.051 434.873,305.786 434.784,305.965 434.645,306.115 434.457,306.235 434.219,306.328 433.932,306.398 433.595,306.444 433.21,306.471 432.776,306.479 432.007,306.457 431.16,306.397 430.257,306.314 429.318,306.218 428.362,306.122 427.411,306.038 426.483,305.979 425.6,305.956 425.085,305.965 424.592,305.994 424.128,306.047 423.699,306.129 423.31,306.244 422.968,306.395 422.678,306.588 422.446,306.826 422.109,307.687 421.952,309.085 421.897,310.817 421.864,312.685 421.774,314.487 421.547,316.023 421.104,317.091 420.366,317.492 419.332,316.606 417.91,314.271 416.055,310.969 413.722,307.184 410.867,303.398 407.444,300.096 403.41,297.761 398.719,296.875 398.023,296.948 397.387,297.162 396.821,297.511 396.335,297.99 395.939,298.591 395.643,299.308 395.459,300.137 395.395,301.069 395.7,303.727 396.561,306.422 397.894,309.093 399.613,311.679 401.636,314.117 403.879,316.347 406.257,318.307 408.686,319.936 409.863,320.656 411.145,321.366 412.451,322.055 413.701,322.713 414.813,323.331 415.707,323.898 416.302,324.404 416.519,324.839 416.039,325.452 414.775,325.8 412.988,325.994 410.94,326.143 408.892,326.358 407.105,326.749 405.841,327.426 405.362,328.499 405.422,329.747 405.58,331.101 405.804,332.521 406.061,333.966 406.317,335.393 406.541,336.762 406.7,338.031 406.76,339.16 406.75,339.493 406.716,339.828 406.649,340.15 406.541,340.446 406.384,340.7 406.17,340.899 405.891,341.029 405.538,341.075 404.623,340.663 403.494,339.575 402.217,338.037 400.858,336.273 399.483,334.51 398.157,332.972 396.947,331.884 395.918,331.471 395.026,331.719 393.965,332.372 392.793,333.295 391.569,334.352 390.354,335.41 389.205,336.333 388.184,336.986 387.349,337.234 387.161,337.21 386.992,337.144 386.844,337.041 386.718,336.908 386.616,336.75 386.541,336.574 386.495,336.387 386.479,336.193 386.757,334.458 387.49,332.309 388.527,329.809 389.715,327.018 390.903,323.998 391.94,320.809 392.673,317.514 392.951,314.173 392.918,312.398 392.789,310.329 392.516,308.128 392.053,305.96 391.351,303.989 390.365,302.378 389.046,301.291 387.349,300.893 385.757,301.191 384.153,302.034 382.572,303.343 381.053,305.042 379.633,307.052 378.347,309.296 377.234,311.695 376.331,314.173 375.961,316.079 375.719,318.715 375.539,321.777 375.351,324.962 375.089,327.967 374.685,330.488 374.072,332.223 373.183,332.869 372.341,332.441 371.722,331.314 371.239,329.719 370.802,327.891 370.323,326.063 369.715,324.469 368.888,323.341 367.756,322.913 366.661,323.115 365.362,323.649 363.936,324.404 362.462,325.269 361.019,326.134 359.684,326.888 358.537,327.422 357.656,327.624 357.525,327.616 357.397,327.591 357.278,327.55 357.172,327.493 357.082,327.419 357.012,327.329 356.967,327.223 356.952,327.101 357.17,326.115 357.745,324.805 358.557,323.289 359.489,321.687 360.42,320.117 361.233,318.699 361.808,317.551 362.026,316.793 361.53,315.909 360.223,315.191 358.374,314.592 356.255,314.065 354.137,313.562 352.288,313.037 350.981,312.442 350.485,311.729 350.688,311.286 351.261,310.873 352.144,310.49 353.282,310.133 354.616,309.801 356.09,309.491 357.645,309.201 359.225,308.928 362.722,308.113 366.412,306.867 370.092,305.215 373.557,303.185 376.607,300.803 379.036,298.096 380.643,295.09 381.223,291.812 380.79,288.271 379.593,285.205 377.786,282.547 375.524,280.234 372.959,278.199 370.248,276.377 367.542,274.702 364.998,273.11 363.743,272.341 362.502,271.604 361.324,270.901 360.254,270.231 359.34,269.594 358.628,268.989 358.167,268.416 358.003,267.876 358.186,267.413 358.685,267.065 359.422,266.815 360.318,266.648 361.297,266.547 362.28,266.495 363.189,266.476 363.947,266.473 364.923,266.461 365.866,266.413 366.747,266.307 367.535,266.123 368.201,265.842 368.713,265.442 369.043,264.903 369.16,264.205 369.144,263.544 369.104,262.764 369.048,261.89 368.983,260.948 368.919,259.966 368.862,258.97 368.822,257.986 368.807,257.039 368.816,256.402 368.845,255.809 368.899,255.274 368.981,254.809 369.097,254.426 369.251,254.137 369.446,253.955 369.688,253.891 " fill="none" stroke-width="0.5" stroke="rgb(0,0,0)" />
	<polygon points="197.978,225.718 201.046,228.041 203.782,230.572 206.137,233.253 208.057,236.024 209.492,238.826 210.391,241.599 210.545,242.926 210.58,245.239 210.162,248.517 208.737,252.244 206.723,255.562 204.414,258.569 202.106,261.362 200.091,264.042 198.667,266.705 198.126,269.45 198.704,272.414 200.228,274.887 202.382,277.066 204.852,279.146 207.322,281.324 209.476,283.797 211,286.761 211.578,290.414 211.029,293.819 209.584,297.354 207.541,301.016 205.199,304.804 202.857,308.715 200.813,312.746 199.368,316.896 198.82,321.163 199.109,324.421 199.954,327.479 201.318,330.282 203.168,332.778 205.467,334.915 208.182,336.637 211.276,337.894 214.715,338.632 213.552,338.885 212.416,339.117 211.3,339.325 210.198,339.505 209.105,339.651 208.013,339.761 206.917,339.83 205.81,339.853 199.201,339.197 192.764,337.318 186.716,334.354 181.277,330.442 176.666,325.719 173.101,320.322 170.802,314.388 169.986,308.053 170.155,304.895 170.647,301.849 171.442,298.925 172.52,296.136 173.858,293.495 175.438,291.012 177.238,288.7 179.238,286.572 181.073,288.076 182.886,289.433 184.657,290.625 186.366,291.637 187.993,292.452 189.517,293.055 190.919,293.428 192.177,293.556 193.151,293.492 193.983,293.306 194.676,293.005 195.235,292.598 195.663,292.092 195.964,291.497 196.142,290.819 196.2,290.067 195.098,287.649 192.189,285.182 188.076,282.569 183.359,279.711 178.643,276.509 174.529,272.864 171.619,268.678 170.515,263.853 171.656,259.879 174.666,256.244 178.92,252.793 183.798,249.372 188.675,245.829 192.93,242.008 195.939,237.757 197.081,232.922 197.04,231.994 196.919,230.935 196.721,229.778 196.446,228.556 196.098,227.301 195.678,226.046 195.189,224.823 194.632,223.665 " fill="none" stroke-width="0.5" stroke="rgb(0,0,0)" />
	<polygon points="125.398,226.983 124.387,229.542 123.594,232.162 122.997,234.785 122.572,237.352 122.297,239.802 122.149,242.077 122.105,244.117 123.644,255.149 127.701,265.914 133.438,276.323 140.014,286.289 146.59,295.721 152.326,304.533 156.383,312.636 157.923,319.941 157.67,322.782 156.92,325.596 155.683,328.277 153.968,330.714 151.787,332.798 149.151,334.422 146.068,335.476 142.551,335.852 139.463,335.54 136.762,334.668 134.454,333.333 132.548,331.632 131.051,329.661 129.972,327.517 129.319,325.295 129.1,323.094 129.237,321.442 129.608,319.917 130.15,318.548 130.804,317.365 131.506,316.394 132.195,315.665 132.809,315.207 133.288,315.048 133.468,315.066 133.618,315.122 133.739,315.222 133.834,315.374 133.904,315.584 133.951,315.856 133.978,316.199 133.987,316.617 134.078,317.561 134.351,318.526 134.808,319.466 135.452,320.337 136.285,321.092 137.307,321.688 138.522,322.079 139.931,322.219 141.248,322.1 142.435,321.757 143.479,321.213 144.365,320.491 145.079,319.613 145.606,318.602 145.933,317.48 146.045,316.27 144.777,310.329 141.432,303.387 136.703,295.463 131.282,286.571 125.861,276.729 121.132,265.953 117.787,254.258 116.518,241.662 115.916,243.158 115.308,244.768 114.721,246.508 114.181,248.394 113.714,250.445 113.348,252.675 113.109,255.103 113.023,257.744 113.549,264.061 114.934,270.416 116.893,276.78 119.138,283.124 121.383,289.418 123.342,295.633 124.727,301.741 125.253,307.712 125.023,310.094 124.364,312.351 123.32,314.423 121.937,316.251 120.258,317.777 118.329,318.94 116.194,319.681 113.898,319.941 111.364,319.686 109.248,318.983 107.524,317.924 106.169,316.601 105.158,315.106 104.466,313.53 104.069,311.967 103.942,310.508 103.989,309.602 104.117,308.737 104.311,307.939 104.554,307.231 104.83,306.638 105.122,306.184 105.413,305.893 105.687,305.791 105.97,305.949 106.204,306.365 106.453,306.952 106.784,307.626 107.262,308.3 107.954,308.888 108.924,309.304 110.238,309.462 111.687,309.323 112.902,308.912 113.898,308.234 114.685,307.297 115.277,306.106 115.684,304.667 115.92,302.988 115.995,301.074 115.635,295.817 114.686,290.847 113.343,286.061 111.804,281.354 110.265,276.622 108.923,271.761 107.973,266.666 107.613,261.233 107.614,260.374 107.621,259.502 107.641,258.622 107.679,257.738 107.742,256.853 107.836,255.973 107.967,255.1 108.141,254.238 106.618,256.373 105.431,258.682 104.538,261.13 103.899,263.68 103.474,266.294 103.221,268.937 103.099,271.572 103.067,274.161 103.067,291.993 102.79,296.199 101.998,299.8 100.747,302.808 99.0941,305.239 97.0971,307.105 94.8128,308.421 92.2983,309.2 89.6107,309.457 87.8527,309.286 86.149,308.782 84.5549,307.954 83.1259,306.813 81.9173,305.37 80.9843,303.633 80.3823,301.615 80.1666,299.324 80.1914,298.902 80.2655,298.33 80.3889,297.672 80.5615,296.992 80.7831,296.352 81.0535,295.816 81.3728,295.449 81.7406,295.312 82.2566,295.469 82.7782,295.884 83.3444,296.47 83.9943,297.142 84.767,297.814 85.7016,298.4 86.8371,298.815 88.2127,298.972 90.7731,298.62 92.7394,297.565 94.1897,295.806 95.2017,293.342 95.8534,290.174 96.2224,286.301 96.3868,281.723 96.4243,276.44 96.777,269.852 97.9035,263.121 99.9062,256.332 102.888,249.572 106.95,242.927 112.197,236.484 118.729,230.328 126.651,224.546 " fill="none" stroke-width="0.5" stroke="rgb(0,0,0)" />
	<polygon points="303.053,231.078 305.789,234.155 309.323,236.258 313.213,237.947 317.013,239.784 320.277,242.33 322.562,246.144 323.423,251.789 323.393,252.828 323.313,253.961 323.202,255.167 323.073,256.427 322.945,257.718 322.833,259.022 322.754,260.316 322.724,261.58 322.744,262.992 322.823,264.323 322.987,265.538 323.263,266.605 323.676,267.493 324.254,268.167 325.024,268.596 326.01,268.746 327.02,268.65 327.836,268.375 328.476,267.936 328.958,267.35 329.302,266.632 329.525,265.799 329.645,264.867 329.681,263.853 329.651,262.775 329.571,261.658 329.459,260.53 329.329,259.417 329.2,258.345 329.087,257.341 329.007,256.431 328.977,255.641 329.17,253.562 329.702,251.886 330.5,250.575 331.493,249.59 332.61,248.892 333.778,248.442 334.926,248.201 335.983,248.129 338.413,248.422 340.771,249.194 343.133,250.285 345.576,251.536 348.175,252.787 351.006,253.878 354.144,254.65 357.667,254.943 355.923,258.53 352.743,261.135 348.641,263.1 344.132,264.771 339.73,266.492 335.949,268.605 333.303,271.456 332.307,275.389 332.577,277.468 333.326,279.143 334.455,280.453 335.869,281.437 337.472,282.134 339.167,282.583 340.859,282.824 342.45,282.896 343.714,282.867 344.764,282.765 345.613,282.565 346.275,282.242 346.766,281.772 347.099,281.131 347.288,280.294 347.348,279.236 347.332,278.571 347.293,277.902 347.236,277.237 347.172,276.586 347.107,275.961 347.05,275.371 347.011,274.827 346.995,274.337 347.02,274.075 347.092,273.821 347.209,273.584 347.369,273.372 347.57,273.193 347.81,273.054 348.087,272.966 348.399,272.934 350.481,273.559 353.572,275.242 357.274,277.699 361.192,280.647 364.928,283.799 368.088,286.872 370.274,289.581 371.091,291.641 370.225,293.138 367.892,294.588 364.492,295.945 360.422,297.161 356.082,298.188 351.87,298.981 348.186,299.491 345.427,299.671 344.834,299.617 344.36,299.469 343.993,299.248 343.719,298.973 343.528,298.665 343.407,298.345 343.343,298.033 343.325,297.75 343.452,297.185 343.789,296.438 344.265,295.555 344.811,294.584 345.356,293.573 345.832,292.568 346.169,291.616 346.297,290.766 346.17,290.201 345.778,289.692 345.098,289.244 344.112,288.863 342.797,288.556 341.133,288.33 339.1,288.189 336.676,288.141 335.474,288.161 334.372,288.237 333.389,288.391 332.543,288.645 331.853,289.022 331.338,289.545 331.015,290.236 330.903,291.118 331.234,292.928 332.105,294.809 333.338,296.732 334.75,298.667 336.163,300.587 337.395,302.461 338.267,304.26 338.597,305.956 338.496,307.202 338.182,308.307 337.639,309.265 336.849,310.067 335.797,310.705 334.467,311.171 332.841,311.456 330.903,311.553 329.038,311.383 327.058,310.884 325.075,310.068 323.202,308.952 321.55,307.549 320.231,305.874 319.358,303.942 319.042,301.768 319.259,299.937 319.83,298.13 320.638,296.368 321.563,294.673 322.489,293.069 323.297,291.576 323.868,290.218 324.084,289.016 324.052,288.667 323.947,288.291 323.763,287.912 323.489,287.551 323.116,287.231 322.637,286.975 322.041,286.805 321.32,286.743 319.063,287.482 316.945,289.447 314.665,292.26 311.918,295.542 308.401,298.914 303.811,301.998 297.844,304.414 290.198,305.786 291.544,304.518 292.81,303.176 293.965,301.72 294.979,300.108 295.82,298.301 296.459,296.257 296.864,293.934 297.006,291.294 296.969,289.947 296.871,288.644 296.733,287.366 296.574,286.092 296.415,284.802 296.277,283.476 296.179,282.093 296.142,280.633 296.253,278.789 296.577,277.191 297.098,275.838 297.798,274.732 298.662,273.871 299.673,273.256 300.817,272.887 302.075,272.763 304.351,273.154 306.368,274.182 308.177,275.637 309.829,277.304 311.375,278.971 312.868,280.426 314.357,281.454 315.894,281.845 316.751,281.749 317.593,281.47 318.389,281.019 319.11,280.408 319.723,279.65 320.199,278.756 320.507,277.739 320.616,276.61 319.52,272.273 316.629,268.941 312.541,266.194 307.856,263.614 303.171,260.779 299.083,257.271 296.193,252.669 295.096,246.555 295.182,244.594 295.445,242.505 295.899,240.273 296.561,237.883 297.443,235.322 298.561,232.575 299.929,229.628 301.563,226.466 " fill="none" stroke-width="0.5" stroke="rgb(0,0,0)" />
	<polygon points="372.602,154.14 373.398,154.656 374.584,155.385 376.223,156.22 378.378,157.056 381.112,157.785 384.489,158.3 388.571,158.496 390.849,158.428 393.123,158.249 395.438,157.996 397.839,157.706 400.372,157.416 403.081,157.163 406.012,156.984 409.209,156.917 416.542,157.576 422.961,159.473 428.647,162.485 433.779,166.487 438.536,171.356 443.098,176.97 447.646,183.206 452.358,189.939 455.746,191.933 459.808,194.341 464.196,197.293 468.565,200.924 472.567,205.366 475.856,210.752 478.083,217.215 478.902,224.887 477.999,231.853 475.572,238.221 472.053,244.213 467.868,250.048 463.448,255.95 459.22,262.137 455.613,268.833 453.057,276.258 455.918,275.355 458.551,273.515 461.035,271.065 463.451,268.329 465.876,265.634 468.39,263.306 471.073,261.67 474.004,261.052 475.473,261.205 476.732,261.653 477.786,262.38 478.639,263.37 479.295,264.606 479.759,266.071 480.034,267.75 480.124,269.626 479.92,272.67 479.31,275.98 478.297,279.459 476.888,283.01 475.084,286.537 472.892,289.943 470.315,293.131 467.356,296.005 467.413,295.735 467.455,295.447 467.485,295.143 467.506,294.823 467.518,294.486 467.524,294.133 467.527,293.765 467.527,293.38 467.434,291.467 467.14,289.463 466.625,287.476 465.868,285.612 464.848,283.976 463.545,282.676 461.937,281.818 460.004,281.509 457.002,281.929 454.459,283.105 452.283,284.908 450.38,287.207 448.655,289.875 447.014,292.781 445.365,295.798 443.613,298.796 441.621,292.205 439.423,285.831 436.975,279.725 434.235,273.943 431.159,268.538 427.705,263.562 423.83,259.069 419.49,255.113 414.489,252.024 409.002,249.919 403.385,248.342 397.993,246.836 393.18,244.945 389.303,242.213 386.716,238.183 385.775,232.4 385.91,230.472 386.267,228.389 386.772,226.193 387.351,223.923 387.93,221.62 388.435,219.326 388.793,217.081 388.928,214.925 388.911,214.213 388.857,213.52 388.761,212.846 388.62,212.195 388.429,211.568 388.185,210.968 387.883,210.397 387.519,209.857 392.826,212.437 396.459,215.422 398.874,218.759 400.528,222.394 401.88,226.275 403.387,230.348 405.504,234.561 408.691,238.861 411.6,241.645 415.356,244.672 419.737,248.218 424.522,252.56 429.489,257.975 434.417,264.738 439.083,273.127 443.266,283.419 443.33,283.031 443.392,282.537 443.451,281.961 443.503,281.327 443.548,280.66 443.583,279.985 443.605,279.326 443.613,278.707 442.136,269.061 438.217,259.632 432.624,250.588 426.125,242.096 419.486,234.325 413.475,227.442 408.86,221.617 406.408,217.017 413.14,218.029 418.598,219.506 423.042,221.667 426.736,224.731 429.939,228.917 432.916,234.444 435.926,241.531 439.232,250.397 440.142,252.777 441.337,255.737 442.69,259.102 444.078,262.697 445.374,266.35 446.456,269.885 447.196,273.128 447.47,275.906 448.557,272.743 449.726,269.755 450.997,266.873 452.387,264.026 453.914,261.147 455.596,258.166 457.451,255.012 459.497,251.618 456.953,250.35 453.809,248.761 450.353,246.843 446.876,244.588 443.668,241.989 441.017,239.038 439.215,235.727 438.549,232.047 439.201,227.662 440.946,223.602 443.469,219.948 446.454,216.78 449.585,214.176 452.546,212.218 455.021,210.984 456.696,210.556 457.174,210.613 457.561,210.783 457.866,211.064 458.097,211.453 458.262,211.949 458.37,212.55 458.428,213.253 458.446,214.056 458.318,216.576 457.981,219.357 457.505,222.298 456.96,225.299 456.414,228.259 455.938,231.079 455.602,233.657 455.474,235.894 455.615,237.711 456.009,239.459 456.617,241.084 457.397,242.535 458.308,243.756 459.309,244.694 460.36,245.296 461.418,245.509 462.752,245.038 464.42,243.71 466.264,241.648 468.127,238.978 469.85,235.824 471.276,232.312 472.248,228.566 472.606,224.711 471.898,218.356 469.987,213.128 467.195,208.941 463.846,205.708 460.261,203.344 456.762,201.762 453.672,200.875 451.312,200.599 449.346,200.929 446.929,201.8 443.971,203.03 440.383,204.441 436.073,205.852 430.952,207.082 424.93,207.952 417.916,208.283 405.151,206.652 394.865,202.215 386.817,195.653 380.769,187.648 376.482,178.88 373.716,170.032 372.232,161.785 371.79,154.82 371.797,154.581 371.819,154.388 371.852,154.236 371.895,154.12 371.946,154.037 372.004,153.983 372.066,153.954 372.132,153.945 " fill="none" stroke-width="0.5" stroke="rgb(0,0,0)" />
	<polygon points="162.633,173.849 164.594,174.806 166.676,176.296 168.771,178.232 170.767,180.529 172.555,183.1 174.023,185.858 175.061,188.717 174.732,188.651 174.404,188.588 174.076,188.528 173.749,188.475 173.421,188.43 173.094,188.395 172.767,188.373 172.441,188.365 170.448,188.623 168.642,189.386 166.977,190.631 165.406,192.34 163.884,194.49 162.365,197.062 160.804,200.036 159.155,203.39 162.927,200.898 166.656,198.573 170.365,196.466 174.075,194.628 177.809,193.11 181.591,191.963 185.443,191.238 189.387,190.985 192.692,191.241 195.757,191.99 198.52,193.202 200.918,194.846 202.891,196.892 204.377,199.309 205.313,202.066 205.639,205.135 205.559,206.524 205.33,207.937 204.965,209.362 204.48,210.79 203.888,212.209 203.203,213.609 202.441,214.981 201.616,216.313 200.857,213.569 199.626,211.224 197.929,209.268 195.768,207.691 193.148,206.482 190.073,205.632 186.547,205.129 182.573,204.964 180.098,205.021 177.54,205.189 174.932,205.469 172.308,205.856 169.7,206.35 167.141,206.949 164.665,207.651 162.303,208.453 168.949,209.697 174.184,211.29 178.169,213.174 181.068,215.289 183.04,217.577 184.249,219.978 184.856,222.432 185.022,224.882 184.535,228.755 183.188,232.149 181.152,235.109 178.601,237.681 175.705,239.908 172.637,241.837 169.569,243.513 166.673,244.981 166.926,243.79 167.159,242.584 167.367,241.362 167.546,240.124 167.693,238.871 167.802,237.602 167.871,236.318 167.895,235.019 167.771,232.488 167.358,229.888 166.598,227.231 165.43,224.53 163.796,221.796 161.635,219.044 158.888,216.283 155.495,213.528 154.738,216.09 153.717,218.437 152.542,220.617 151.328,222.676 150.188,224.661 149.233,226.62 148.578,228.598 148.334,230.644 148.397,231.366 148.569,231.966 148.832,232.45 149.164,232.828 149.545,233.108 149.955,233.298 150.373,233.406 150.778,233.44 150.718,234.867 150.559,236.689 150.334,238.76 150.077,240.937 149.819,243.072 149.594,245.02 149.435,246.637 149.375,247.777 149.425,249.372 149.575,250.649 149.827,251.646 150.185,252.407 150.648,252.971 151.221,253.379 151.904,253.672 152.699,253.891 153.164,255.516 153.53,257.327 153.821,259.255 154.066,261.233 154.289,263.192 154.519,265.064 154.78,266.779 155.1,268.271 155.353,268.973 155.687,269.542 156.084,269.991 156.529,270.332 157.005,270.576 157.497,270.735 157.987,270.822 158.461,270.848 159.005,272.23 159.595,273.723 160.247,275.274 160.975,276.829 161.794,278.334 162.717,279.737 163.758,280.984 164.934,282.021 165.198,282.25 165.468,282.533 165.731,282.862 165.973,283.225 166.184,283.612 166.349,284.013 166.458,284.418 166.497,284.817 166.289,286.006 165.715,287.184 164.851,288.304 163.772,289.321 162.554,290.191 161.272,290.869 160.002,291.308 158.819,291.465 158.463,291.435 158.056,291.329 157.609,291.123 157.13,290.79 156.63,290.306 156.116,289.646 155.6,288.785 155.089,287.698 154.364,286.589 153.128,285.289 151.56,283.854 149.84,282.34 148.146,280.803 146.657,279.298 145.552,277.882 145.01,276.611 145.201,276.389 145.372,276.122 145.522,275.814 145.648,275.47 145.749,275.093 145.824,274.688 145.87,274.259 145.885,273.809 145.556,271.941 144.686,269.99 143.456,267.94 142.046,265.776 140.637,263.48 139.407,261.037 138.537,258.429 138.207,255.642 138.532,255.462 138.847,255.195 139.142,254.85 139.406,254.438 139.63,253.968 139.802,253.451 139.913,252.898 139.952,252.317 139.757,250.497 139.241,248.365 138.512,246.004 137.677,243.494 136.841,240.92 136.112,238.362 135.597,235.904 135.401,233.627 136.082,233.614 136.682,233.555 137.2,233.422 137.635,233.187 137.988,232.82 138.258,232.294 138.445,231.58 138.549,230.649 138.73,228.368 139.03,225.901 139.49,223.323 140.148,220.71 141.043,218.139 142.214,215.684 143.702,213.423 145.544,211.431 145.068,211.365 144.557,211.301 144.011,211.242 143.426,211.189 142.8,211.143 142.13,211.109 141.415,211.086 140.651,211.078 136.48,211.368 131.956,212.247 127.263,213.732 122.589,215.84 118.12,218.587 114.043,221.989 110.542,226.063 107.805,230.826 107.681,230.048 107.574,229.287 107.483,228.542 107.409,227.814 107.351,227.103 107.31,226.407 107.285,225.727 107.277,225.063 107.58,220.986 108.421,217.286 109.7,213.979 111.317,211.081 113.172,208.61 115.164,206.581 117.193,205.012 119.159,203.918 120.166,203.5 121.22,203.157 122.318,202.883 123.461,202.673 124.644,202.52 125.866,202.418 127.126,202.362 128.422,202.344 130.565,202.399 132.796,202.555 135.105,202.797 137.483,203.11 139.917,203.481 142.398,203.895 144.916,204.337 147.459,204.793 145.094,201.948 142.49,199.343 139.701,197.021 136.782,195.026 133.789,193.399 130.778,192.184 127.802,191.424 124.916,191.161 123.643,191.219 122.449,191.399 121.348,191.705 120.356,192.144 119.486,192.722 118.753,193.445 118.172,194.319 117.756,195.349 117.633,194.717 117.526,194.008 117.436,193.244 117.363,192.45 117.306,191.646 117.265,190.857 117.241,190.104 117.233,189.411 117.367,186.377 117.784,183.7 118.503,181.396 119.546,179.478 120.932,177.96 122.683,176.858 124.819,176.187 127.36,175.959 131.346,176.539 135.158,178.169 138.774,180.687 142.168,183.933 145.316,187.743 148.195,191.957 150.78,196.412 153.046,200.946 153.075,194.504 153.217,188.925 153.552,184.209 154.158,180.353 155.117,177.357 156.508,175.219 158.411,173.937 160.905,173.51 " fill="none" stroke-width="0.5" stroke="rgb(0,0,0)" />
	<polygon points="371.786,232.71 373.078,233.095 374.239,233.7 375.244,234.498 376.068,235.459 376.686,236.555 377.076,237.758 377.211,239.037 377.076,240.484 376.686,241.798 376.066,242.96 375.242,243.953 374.237,244.758 373.076,245.356 371.785,245.728 370.387,245.856 369.112,245.728 367.899,245.356 366.781,244.758 365.792,243.953 364.965,242.96 364.332,241.798 363.929,240.484 363.787,239.037 363.929,237.758 364.332,236.555 364.965,235.459 365.792,234.498 366.781,233.7 367.899,233.095 369.112,232.71 370.387,232.576 " fill="none" stroke-width="0.5" stroke="rgb(0,0,0)" />
	<polygon points="350.825,220.411 353.088,221.116 355.138,222.23 356.927,223.705 358.404,225.491 359.521,227.539 360.227,229.8 360.473,232.223 360.227,234.647 359.521,236.908 358.404,238.956 356.927,240.742 355.138,242.217 353.088,243.331 350.825,244.036 348.399,244.282 345.972,244.036 343.709,243.331 341.66,242.217 339.874,240.742 338.399,238.956 337.285,236.908 336.581,234.647 336.335,232.223 336.581,229.8 337.285,227.539 338.399,225.491 339.874,223.705 341.66,222.23 343.709,221.116 345.972,220.411 348.399,220.165 " fill="none" stroke-width="0.5" stroke="rgb(0,0,0)" />
	<polygon points="328.291,214.721 329.602,215.13 330.791,215.776 331.828,216.631 332.685,217.666 333.333,218.853 333.743,220.163 333.886,221.568 333.743,222.973 333.333,224.282 332.685,225.469 331.828,226.503 330.791,227.357 329.602,228.002 328.291,228.41 326.885,228.553 325.491,228.41 324.188,228.002 323.006,227.357 321.973,226.503 321.12,225.469 320.474,224.282 320.065,222.973 319.923,221.568 320.065,220.163 320.474,218.853 321.12,217.666 321.973,216.631 323.006,215.776 324.188,215.13 325.491,214.721 326.885,214.579 " fill="none" stroke-width="0.5" stroke="rgb(0,0,0)" />
	<polygon points="371.357,209.324 372.9,209.802 374.296,210.558 375.512,211.56 376.514,212.774 377.271,214.168 377.749,215.709 377.915,217.364 377.749,219.024 377.271,220.569 376.514,221.965 375.512,223.182 374.296,224.184 372.9,224.941 371.357,225.419 369.698,225.586 368.051,225.419 366.514,224.941 365.123,224.184 363.911,223.182 362.91,221.965 362.153,220.569 361.675,219.024 361.508,217.364 361.675,215.709 362.153,214.168 362.91,212.774 363.911,211.56 365.123,210.558 366.514,209.802 368.051,209.324 369.698,209.158 " fill="none" stroke-width="0.5" stroke="rgb(0,0,0)" />
	<polygon points="28.8441,206.153 30.7847,208.423 32.7331,210.244 34.7099,211.651 36.7357,212.681 38.8312,213.371 41.0169,213.759 43.3136,213.88 45.1076,213.831 46.964,213.691 48.8949,213.464 50.9122,213.157 53.0277,212.777 55.2534,212.329 57.6014,211.819 60.0834,211.255 56.8103,213.965 53.6739,216.328 50.6805,218.339 47.8362,219.994 45.1472,221.288 42.6197,222.217 40.2599,222.778 38.074,222.966 35.5376,222.67 33.3058,221.775 31.3888,220.274 29.7971,218.159 28.5411,215.421 27.631,212.054 27.0774,208.047 26.8905,203.395 " fill="none" stroke-width="0.5" stroke="rgb(0,0,0)" />
	<polygon points="308.442,200.101 310.301,200.691 311.992,201.62 313.473,202.847 314.701,204.327 315.631,206.018 316.221,207.875 316.428,209.857 316.221,211.841 315.631,213.699 314.701,215.389 313.473,216.868 311.992,218.092 310.301,219.02 308.442,219.607 306.461,219.813 304.475,219.607 302.616,219.02 300.926,218.092 299.448,216.868 298.224,215.389 297.297,213.699 296.71,211.841 296.505,209.857 296.71,207.875 297.297,206.018 298.224,204.327 299.448,202.847 300.926,201.62 302.616,200.691 304.475,200.101 306.461,199.895 " fill="none" stroke-width="0.5" stroke="rgb(0,0,0)" />
	<polygon points="351.205,200.742 352.515,201.151 353.702,201.798 354.737,202.653 355.593,203.688 356.24,204.874 356.649,206.182 356.792,207.584 356.649,208.989 356.24,210.3 355.593,211.487 354.737,212.524 353.702,213.38 352.515,214.027 351.205,214.436 349.802,214.579 348.394,214.436 347.081,214.027 345.892,213.38 344.855,212.524 343.999,211.487 343.353,210.3 342.944,208.989 342.802,207.584 342.944,206.182 343.353,204.874 343.999,203.688 344.855,202.653 345.892,201.798 347.081,201.151 348.394,200.742 349.802,200.599 " fill="none" stroke-width="0.5" stroke="rgb(0,0,0)" />
	<polygon points="75.5632,186.195 75.3293,187.022 75.1203,187.894 74.9404,188.826 74.7935,189.832 74.6837,190.926 74.6148,192.124 74.591,193.439 74.6757,195.401 74.9408,197.358 75.4024,199.304 76.0769,201.231 76.9805,203.134 78.1295,205.007 79.54,206.842 81.2285,208.635 80.6634,209.01 80.0168,209.349 79.2883,209.648 78.4779,209.902 77.5855,210.107 76.611,210.258 75.5541,210.353 74.4149,210.385 72.1848,210.199 70.1131,209.657 68.2426,208.779 66.6162,207.585 65.2766,206.097 64.2668,204.334 63.6295,202.319 63.4075,200.071 63.7755,196.976 64.7802,194.241 66.2721,191.866 68.1022,189.851 70.121,188.197 72.1795,186.904 74.1283,185.971 75.8181,185.398 " fill="none" stroke-width="0.5" stroke="rgb(0,0,0)" />
	<polygon points="331.317,188.232 333.327,188.848 335.141,189.823 336.718,191.119 338.017,192.692 338.997,194.503 339.615,196.51 339.83,198.673 339.615,200.839 338.997,202.849 338.017,204.661 336.718,206.234 335.141,207.529 333.327,208.505 331.317,209.12 329.153,209.334 327.001,209.12 325.001,208.505 323.195,207.529 321.624,206.234 320.33,204.661 319.355,202.849 318.739,200.839 318.525,198.673 318.739,196.51 319.355,194.503 320.33,192.692 321.624,191.119 323.195,189.823 325.001,188.848 327.001,188.232 329.153,188.018 " fill="none" stroke-width="0.5" stroke="rgb(0,0,0)" />
	<polygon points="93.6579,172.139 97.0334,173.877 100.294,176.092 103.293,178.759 105.881,181.851 107.913,185.346 109.24,189.216 109.715,193.439 109.526,196.232 108.953,198.925 107.991,201.435 106.634,203.676 104.876,205.565 102.71,207.019 100.132,207.953 97.1339,208.283 93.9447,207.926 91.0805,206.907 88.5722,205.298 86.4507,203.174 84.7468,200.607 83.4916,197.672 82.7158,194.441 82.4503,190.99 82.6307,188.056 83.1389,185.173 83.9258,182.376 84.942,179.699 86.1383,177.178 87.4654,174.848 88.8741,172.744 90.315,170.901 " fill="none" stroke-width="0.5" stroke="rgb(0,0,0)" />
	<polygon points="34.706,189.82 36.625,191.448 38.7284,192.752 40.9772,193.758 43.3324,194.495 45.7547,194.987 48.2052,195.263 50.6447,195.349 51.4385,195.341 52.2428,195.316 53.0513,195.275 53.8574,195.218 54.6548,195.144 55.437,195.054 56.1976,194.948 56.9301,194.826 55.2081,196.844 53.4495,198.573 51.6693,200.019 49.8824,201.188 48.1037,202.086 46.3483,202.72 44.631,203.095 42.9668,203.219 40.8756,203.008 38.9511,202.38 37.2278,201.348 35.7403,199.92 34.5232,198.107 33.611,195.919 33.0383,193.367 32.8398,190.462 32.8401,190.135 32.8424,189.809 32.8488,189.483 32.8611,189.156 32.8814,188.828 32.9118,188.5 32.9541,188.172 33.0105,187.842 " fill="none" stroke-width="0.5" stroke="rgb(0,0,0)" />
	<polygon points="369.762,188.168 371.138,188.599 372.387,189.28 373.477,190.179 374.378,191.266 375.06,192.511 375.492,193.882 375.642,195.349 375.492,196.821 375.06,198.197 374.378,199.444 373.477,200.533 372.387,201.434 371.138,202.115 369.762,202.546 368.29,202.696 366.835,202.546 365.472,202.115 364.232,201.434 363.147,200.533 362.248,199.444 361.568,198.197 361.136,196.821 360.985,195.349 361.136,193.882 361.568,192.511 362.248,191.266 363.147,190.179 364.232,189.28 365.472,188.599 366.835,188.168 368.29,188.018 " fill="none" stroke-width="0.5" stroke="rgb(0,0,0)" />
	<polygon points="310.829,178.38 312.142,178.79 313.332,179.436 314.369,180.291 315.227,181.326 315.875,182.512 316.285,183.821 316.428,185.222 316.285,186.625 315.876,187.935 315.228,189.122 314.371,190.157 313.334,191.013 312.144,191.66 310.831,192.069 309.422,192.212 308.022,192.069 306.715,191.66 305.529,191.013 304.493,190.157 303.637,189.122 302.99,187.935 302.581,186.625 302.438,185.222 302.581,183.821 302.99,182.512 303.637,181.326 304.493,180.291 305.529,179.436 306.715,178.79 308.022,178.38 309.422,178.238 " fill="none" stroke-width="0.5" stroke="rgb(0,0,0)" />
	<polygon points="351.334,169.733 353.429,170.389 355.33,171.427 356.991,172.798 358.365,174.456 359.404,176.355 360.062,178.448 360.292,180.687 360.062,182.921 359.403,185.01 358.363,186.907 356.989,188.564 355.328,189.935 353.426,190.973 351.332,191.63 349.092,191.86 346.854,191.63 344.762,190.973 342.863,189.935 341.203,188.564 339.83,186.907 338.791,185.01 338.133,182.921 337.904,180.687 338.133,178.448 338.791,176.355 339.83,174.456 341.203,172.798 342.863,171.427 344.762,170.389 346.854,169.733 349.092,169.503 " fill="none" stroke-width="0.5" stroke="rgb(0,0,0)" />
	<polygon points="476.019,130.4 477.218,131.817 478.035,133.689 478.543,135.972 478.813,138.624 478.916,141.601 478.926,144.86 478.913,148.358 478.829,154.809 478.569,161.385 478.121,167.788 477.471,173.722 476.608,178.887 475.519,182.986 474.191,185.722 472.612,186.796 469.278,185.977 464.708,183.346 459.385,179.242 453.792,173.998 448.411,167.952 443.726,161.439 440.219,154.796 438.373,148.358 441.549,148.415 445.744,147.99 450.638,146.979 455.91,145.278 461.24,142.783 466.306,139.387 470.789,134.988 474.367,129.481 " fill="none" stroke-width="0.5" stroke="rgb(0,0,0)" />
	<polygon points="68.461,142.588 68.9805,142.597 69.4918,142.611 69.991,142.631 70.4739,142.656 70.9365,142.686 71.3747,142.721 71.7844,142.761 72.9346,142.881 74.0119,142.986 75.0039,143.087 75.8982,143.198 76.6825,143.331 77.3443,143.497 77.8713,143.711 78.2512,143.983 78.6873,144.575 78.9732,145.275 79.1715,146.073 79.345,146.958 79.5565,147.918 79.8689,148.944 80.3448,150.025 81.0471,151.149 81.8979,152.146 82.7533,152.9 83.5769,153.497 84.3325,154.021 84.9834,154.557 85.4934,155.192 85.8261,156.008 85.9451,157.093 85.7101,158.64 84.9832,161.138 83.7319,164.328 81.9234,167.951 79.5252,171.745 76.5046,175.452 72.829,178.81 68.4657,181.562 66.2947,182.592 64.2319,183.466 62.2713,184.188 60.4069,184.767 58.6328,185.206 56.943,185.512 55.3316,185.692 53.7927,185.75 51.3326,185.623 49.0504,185.287 46.9277,184.812 44.9463,184.267 43.0879,183.722 41.3344,183.247 39.6674,182.911 38.0687,182.784 37.7976,182.799 37.506,182.838 37.1898,182.893 36.8448,182.957 36.4671,183.021 36.0526,183.076 35.5971,183.116 35.0967,183.13 34.5055,183.052 33.9195,182.833 33.3613,182.495 32.8538,182.061 32.4195,181.554 32.0812,180.994 31.8616,180.406 31.7833,179.812 31.7924,179.55 31.8193,179.292 31.8632,179.037 31.9234,178.789 31.999,178.548 32.0894,178.316 32.1939,178.094 32.3115,177.886 33.0501,175.853 33.6095,172.91 34.248,169.272 35.2241,165.155 36.7962,160.772 39.2227,156.339 42.7621,152.071 47.6728,148.182 50.5103,146.538 53.2664,145.246 55.9384,144.263 58.5234,143.551 61.0186,143.067 63.4213,142.772 65.7285,142.625 67.9374,142.585 " fill="none" stroke-width="0.5" stroke="rgb(0,0,0)" />
	<polygon points="327.348,169.462 328.595,169.849 329.723,170.461 330.706,171.271 331.518,172.252 332.131,173.379 332.518,174.624 332.653,175.959 332.518,177.301 332.132,178.55 331.519,179.68 330.708,180.665 329.725,181.477 328.597,182.09 327.35,182.478 326.01,182.613 324.683,182.478 323.445,182.09 322.324,181.477 321.345,180.665 320.537,179.68 319.926,178.55 319.54,177.301 319.405,175.959 319.54,174.624 319.926,173.379 320.537,172.252 321.345,171.271 322.324,170.461 323.445,169.849 324.683,169.462 326.01,169.327 " fill="none" stroke-width="0.5" stroke="rgb(0,0,0)" />
	<polygon points="154.764,112.564 159.022,114.136 162.652,116.6 165.645,119.831 167.989,123.7 169.676,128.082 170.696,132.849 171.038,137.874 171.029,138.6 171.005,139.339 170.963,140.087 170.905,140.839 170.831,141.592 170.74,142.341 170.633,143.083 170.509,143.812 172.842,140.26 175.369,136.981 178.073,134.039 180.934,131.494 183.934,129.407 187.055,127.841 190.276,126.856 193.581,126.514 197.613,126.964 201.067,128.246 203.956,130.256 206.291,132.893 208.086,136.054 209.352,139.637 210.103,143.54 210.35,147.659 210.286,149.581 210.098,151.605 209.792,153.622 209.373,155.521 208.847,157.191 208.221,158.521 207.5,159.4 206.69,159.718 205.954,159.538 205.426,159.032 205.065,158.251 204.833,157.247 204.692,156.071 204.601,154.775 204.523,153.408 204.417,152.024 204.262,150.422 204.055,149.134 203.793,148.128 203.477,147.374 203.103,146.841 202.669,146.498 202.174,146.316 201.616,146.261 200.553,146.574 199.598,147.454 198.764,148.813 198.058,150.563 197.491,152.616 197.074,154.885 196.817,157.281 196.729,159.718 196.765,161.238 196.887,162.748 197.115,164.189 197.47,165.502 197.972,166.626 198.642,167.503 199.499,168.073 200.565,168.276 201.212,168.236 201.839,168.123 202.441,167.944 203.015,167.708 203.555,167.423 204.059,167.097 204.522,166.738 204.94,166.355 204.437,169.307 203.475,172.092 202.087,174.64 200.306,176.882 198.165,178.747 195.696,180.166 192.933,181.069 189.91,181.386 184.583,180.592 180.091,178.409 176.37,175.137 173.353,171.074 170.976,166.52 169.172,161.773 167.877,157.133 167.025,152.899 163.57,156.437 160.093,159.676 156.505,162.563 152.718,165.044 148.645,167.067 144.197,168.578 139.285,169.523 133.822,169.85 128.817,169.38 124.532,168.056 120.951,166.008 118.058,163.363 115.835,160.252 114.268,156.804 113.34,153.146 113.034,149.409 113.086,148.097 113.255,146.488 113.559,144.728 114.016,142.963 114.646,141.337 115.467,139.996 116.498,139.085 117.756,138.749 119.048,139.364 119.813,140.986 120.291,143.28 120.724,145.909 121.354,148.538 122.422,150.832 124.169,152.454 126.837,153.07 127.7,152.983 128.684,152.706 129.75,152.212 130.856,151.475 131.962,150.468 133.028,149.164 134.014,147.538 134.878,145.562 135.311,144.244 135.694,142.918 136.023,141.592 136.297,140.275 136.513,138.975 136.671,137.698 136.766,136.454 136.799,135.249 136.747,133.563 136.581,132.056 136.284,130.743 135.839,129.636 135.231,128.751 134.442,128.102 133.457,127.702 132.258,127.565 131.115,127.665 129.944,127.938 128.782,128.346 127.665,128.85 126.63,129.411 125.715,129.992 124.955,130.553 124.388,131.055 126.231,126.624 128.574,122.772 131.357,119.501 134.525,116.815 138.019,114.72 141.782,113.218 145.757,112.314 149.887,112.012 " fill="none" stroke-width="0.5" stroke="rgb(0,0,0)" />
	<polygon points="345.812,128.391 346.473,129.772 347.044,131.289 347.519,132.87 347.896,134.444 348.17,135.939 348.337,137.282 348.393,138.402 347.767,145.003 346.005,150.557 343.285,155.117 339.783,158.733 335.676,161.456 331.142,163.337 326.356,164.429 321.497,164.781 318.543,164.661 315.971,164.344 313.767,163.895 311.918,163.381 310.414,162.866 309.242,162.418 308.388,162.1 307.843,161.98 306.752,162.265 305.919,163.016 305.274,164.074 304.747,165.282 304.269,166.482 303.771,167.515 303.182,168.225 302.432,168.452 300.947,167.82 299.535,166.508 298.233,164.607 297.082,162.206 296.119,159.396 295.384,156.266 294.914,152.907 294.749,149.409 294.817,147.298 295.02,145.177 295.361,143.069 295.845,140.996 296.476,138.981 297.257,137.046 298.194,135.212 299.29,133.504 300.974,135.029 302.624,136.33 304.256,137.413 305.888,138.285 307.536,138.953 309.217,139.422 310.948,139.698 312.746,139.789 313.484,139.767 314.238,139.708 314.992,139.626 315.729,139.531 316.433,139.435 317.087,139.353 317.676,139.294 318.183,139.272 318.747,139.304 319.256,139.399 319.702,139.556 320.081,139.771 320.385,140.044 320.61,140.372 320.75,140.754 320.798,141.187 320.718,141.962 320.491,142.82 320.134,143.731 319.661,144.665 319.091,145.591 318.439,146.478 317.721,147.295 316.956,148.011 317.749,148.314 318.559,148.569 319.387,148.78 320.231,148.949 321.093,149.076 321.97,149.165 322.864,149.216 323.775,149.233 327.539,148.932 331.288,148.004 334.872,146.412 338.141,144.12 340.945,141.092 343.133,137.29 344.556,132.678 345.064,127.219 " fill="none" stroke-width="0.5" stroke="rgb(0,0,0)" />
	<polygon points="359.006,152.682 360.254,153.069 361.383,153.681 362.367,154.492 363.179,155.476 363.792,156.605 364.18,157.854 364.315,159.195 364.18,160.531 363.792,161.775 363.179,162.902 362.367,163.884 361.383,164.694 360.254,165.306 359.006,165.692 357.667,165.827 356.326,165.692 355.077,165.306 353.948,164.694 352.964,163.884 352.153,162.902 351.54,161.775 351.153,160.531 351.018,159.195 351.153,157.854 351.54,156.605 352.153,155.476 352.964,154.492 353.948,153.681 355.077,153.069 356.326,152.682 357.667,152.547 " fill="none" stroke-width="0.5" stroke="rgb(0,0,0)" />
	<polygon points="99.5919,146.404 100.9,146.813 102.086,147.46 103.121,148.315 103.976,149.35 104.623,150.536 105.032,151.844 105.175,153.246 105.032,154.651 104.623,155.962 103.976,157.15 103.121,158.186 102.086,159.042 100.9,159.689 99.5919,160.098 98.1904,160.241 96.7833,160.098 95.4705,159.689 94.2808,159.042 93.2429,158.186 92.3856,157.15 91.7376,155.962 91.3277,154.651 91.1847,153.246 91.3275,151.844 91.7369,150.536 92.3842,149.35 93.2409,148.315 94.2785,147.46 95.4683,146.813 96.7818,146.404 98.1904,146.261 " fill="none" stroke-width="0.5" stroke="rgb(0,0,0)" />
	<polygon points="385.648,106.374 387.066,107.165 388.11,108.283 388.955,109.566 389.776,110.848 390.746,111.967 392.04,112.758 393.831,113.058 395.518,112.9 397.28,112.484 399.076,111.896 400.865,111.222 402.606,110.548 404.256,109.961 405.776,109.545 407.122,109.387 409.164,110.108 411.308,112.074 413.437,114.99 415.438,118.562 417.195,122.494 418.592,126.492 419.515,130.26 419.848,133.504 419.24,136.678 417.501,139.502 414.76,141.954 411.144,144.011 406.783,145.65 401.804,146.849 396.336,147.585 390.507,147.835 382.24,146.939 374.893,144.463 368.524,140.731 363.187,136.062 358.939,130.778 355.836,125.202 353.933,119.654 353.286,114.456 353.312,114.095 353.38,113.791 353.485,113.536 353.62,113.321 353.779,113.14 353.955,112.983 354.144,112.843 354.337,112.711 355.518,112.309 357.358,112.121 359.803,112 362.796,111.801 366.282,111.376 370.206,110.579 374.511,109.264 379.143,107.285 379.731,106.986 380.317,106.733 380.9,106.524 381.477,106.357 382.046,106.23 382.605,106.142 383.151,106.09 383.683,106.074 " fill="none" stroke-width="0.5" stroke="rgb(0,0,0)" />
	<polygon points="90.4929,130.67 91.8037,131.079 92.9916,131.727 94.0279,132.584 94.8839,133.62 95.5308,134.808 95.94,136.118 96.0828,137.522 95.94,138.927 95.5308,140.238 94.8839,141.425 94.0279,142.462 92.9916,143.318 91.8037,143.965 90.4929,144.374 89.0878,144.517 87.6847,144.374 86.3758,143.964 85.1897,143.316 84.155,142.46 83.3004,141.423 82.6546,140.235 82.246,138.925 82.1035,137.522 82.246,136.118 82.6546,134.808 83.3004,133.62 84.155,132.584 85.1897,131.727 86.3758,131.079 87.6847,130.67 89.0878,130.527 " fill="none" stroke-width="0.5" stroke="rgb(0,0,0)" />
	<polygon points="37.3187,114.314 37.2763,114.688 37.246,115.053 37.2256,115.414 37.2133,115.774 37.207,116.14 37.2046,116.513 37.2043,116.899 37.4626,120.518 38.2332,123.881 39.5038,126.965 41.262,129.746 43.4954,132.2 46.1916,134.301 49.3383,136.026 52.923,137.351 52.6932,137.516 52.0335,137.95 50.9892,138.565 49.6049,139.269 47.9258,139.973 45.9968,140.588 43.8628,141.022 41.5688,141.187 38.8355,140.932 36.3,140.191 34.0137,139.005 32.0281,137.411 30.3943,135.448 29.1638,133.156 28.3878,130.572 28.1177,127.736 28.2505,125.701 28.6556,123.685 29.3431,121.723 30.3233,119.849 31.6065,118.098 33.2027,116.505 35.1221,115.103 37.375,113.928 " fill="none" stroke-width="0.5" stroke="rgb(0,0,0)" />
	<polygon points="467.062,102.561 469.158,103.413 470.881,104.572 472.25,106.004 473.283,107.673 473.998,109.545 474.414,111.587 474.549,113.762 473.799,118.594 471.667,123.4 468.331,127.99 463.966,132.171 458.75,135.755 452.861,138.551 446.473,140.368 439.766,141.016 437.315,140.917 435.091,140.613 433.124,140.096 431.445,139.358 430.085,138.391 429.075,137.185 428.447,135.733 428.23,134.027 428.317,133.162 428.594,132.188 429.088,131.172 429.827,130.186 430.836,129.298 432.142,128.577 433.773,128.094 435.753,127.918 441.638,127.441 447.246,126.102 452.422,124.037 457.008,121.385 460.847,118.283 463.784,114.866 465.661,111.274 466.321,107.642 466.296,106.664 466.22,105.81 466.091,105.059 465.907,104.388 465.665,103.774 465.364,103.195 465.002,102.628 464.576,102.05 " fill="none" stroke-width="0.5" stroke="rgb(0,0,0)" />
	<polygon points="323.282,104.755 326.565,105.427 329.305,106.379 331.55,107.469 333.346,108.559 334.741,109.51 335.78,110.183 336.511,110.438 337.165,110.363 337.815,110.165 338.458,109.884 339.088,109.563 339.703,109.242 340.297,108.961 340.867,108.763 341.409,108.688 342.043,108.82 342.52,109.185 342.861,109.739 343.09,110.437 343.229,111.233 343.3,112.082 343.326,112.941 343.33,113.762 343.179,116.594 342.714,119.752 341.917,123.087 340.77,126.449 339.254,129.688 337.351,132.655 335.043,135.201 332.312,137.175 331.72,136.047 330.993,134.905 330.129,133.766 329.122,132.651 327.969,131.577 326.667,130.562 325.212,129.626 323.599,128.787 323.173,128.568 322.811,128.305 322.51,128.006 322.268,127.675 322.084,127.32 321.955,126.947 321.879,126.56 321.854,126.167 321.931,125.424 322.156,124.655 322.511,123.882 322.98,123.127 323.547,122.413 324.194,121.764 324.905,121.201 325.664,120.746 324.973,119.944 324.002,119.242 322.827,118.644 321.527,118.149 320.177,117.762 318.856,117.483 317.641,117.314 316.609,117.257 313.839,117.499 311.319,118.179 309.071,119.227 307.114,120.574 305.47,122.151 304.158,123.888 303.199,125.716 302.614,127.565 302.361,126.894 302.128,126.193 301.92,125.469 301.741,124.724 301.594,123.962 301.485,123.189 301.416,122.407 301.392,121.622 301.642,118.678 302.411,115.703 303.725,112.825 305.611,110.177 308.096,107.89 311.206,106.094 314.969,104.92 319.41,104.5 " fill="none" stroke-width="0.5" stroke="rgb(0,0,0)" />
	<polygon points="58.5449,19.6966 63.6396,20.4783 68.3331,21.4975 72.2056,22.7607 74.837,24.2743 75.8075,26.0446 75.0034,28.2072 72.8837,30.3677 69.8869,32.5239 66.4515,34.6737 63.016,36.815 60.0192,38.9457 57.8995,41.0636 57.0954,43.1666 58.2221,45.2068 61.1922,46.4984 65.3914,47.2773 70.2051,47.7793 75.0187,48.2403 79.2179,48.8961 82.1881,49.9826 83.3147,51.7356 82.4964,54.2749 80.3392,57.3101 77.2894,60.6486 73.7933,64.0976 70.2971,67.4643 67.2473,70.5559 65.0901,73.1797 64.2719,75.143 64.3108,75.3904 64.4195,75.6043 64.5856,75.7851 64.7967,75.9326 65.0407,76.0472 65.305,76.1289 65.5775,76.1778 65.8459,76.1941 67.8656,75.8188 70.4115,74.8293 73.3221,73.4305 76.4357,71.8269 79.5909,70.2233 82.626,68.8244 85.3795,67.835 87.6899,67.4597 88.4085,67.5243 89.0052,67.7156 89.4879,68.0297 89.8648,68.4628 90.1439,69.0109 90.3332,69.6701 90.4409,70.4367 90.4751,71.3067 90.3478,73.2826 90.0124,75.4944 89.5381,77.8661 88.9944,80.3219 88.4507,82.7859 87.9765,85.1824 87.641,87.4354 87.5138,89.4691 87.5314,89.9327 87.5897,90.3947 87.697,90.8366 87.8613,91.2399 88.0909,91.5858 88.3939,91.8559 88.7786,92.0315 89.2532,92.0942 90.7965,91.3807 92.5181,89.4998 94.3829,86.8405 96.3562,83.792 98.403,80.7435 100.488,78.0842 102.578,76.2033 104.636,75.4898 106.073,76.5634 106.861,79.394 107.219,83.3957 107.366,87.9831 107.522,92.5705 107.906,96.5723 108.736,99.4028 110.233,100.476 111.718,99.5007 112.961,96.9283 114.044,93.2914 115.053,89.1223 116.07,84.9532 117.18,81.3163 118.466,78.7439 120.013,77.7681 121.552,78.316 122.934,79.7606 124.214,81.8029 125.447,84.1442 126.69,86.4854 127.996,88.5277 129.423,89.9723 131.026,90.5202 131.664,90.4071 132.158,90.0748 132.525,89.5335 132.785,88.7935 132.956,87.8652 133.055,86.7589 133.101,85.4848 133.112,84.0535 133.112,78.1149 133.123,76.7328 133.17,75.4824 133.27,74.3799 133.442,73.4416 133.704,72.6836 134.073,72.1221 134.569,71.7733 135.209,71.6535 137.586,72.4039 140.612,74.3821 144.038,77.179 147.615,80.3852 151.094,83.5914 154.225,86.3883 156.759,88.3666 158.445,89.117 158.684,89.0859 158.877,88.9995 159.029,88.8679 159.145,88.7014 159.228,88.5102 159.282,88.3044 159.312,88.0941 159.32,87.8898 158.892,85.6368 157.764,82.5537 156.169,78.8597 154.34,74.7741 152.511,70.5162 150.915,66.3053 149.787,62.3606 149.359,58.9014 149.41,57.8925 149.568,56.9787 149.841,56.1723 150.237,55.4852 150.764,54.9298 151.43,54.518 152.243,54.262 153.211,54.174 155.797,54.4821 158.86,55.2945 162.238,56.443 165.77,57.7595 169.293,59.0761 172.646,60.2246 175.666,61.0369 178.193,61.3451 178.881,61.3113 179.497,61.2058 180.035,61.0226 180.489,60.7555 180.852,60.3983 181.12,59.945 181.284,59.3893 181.341,58.7253 180.425,55.7253 178.01,52.2237 174.596,48.4067 170.683,44.4605 166.769,40.5714 163.355,36.9255 160.941,33.709 160.025,31.1081 161.078,28.9509 163.992,26.8488 168.401,24.8735 173.938,23.0967 180.237,21.59 186.931,20.4251 193.653,19.6736 200.037,19.4071 200.909,19.4116 201.905,19.4425 202.95,19.5264 203.971,19.6899 204.893,19.9595 205.644,20.3615 206.148,20.9227 206.333,21.6694 205.457,23.2806 203.106,24.8563 199.697,26.4203 195.644,27.9961 191.364,29.6075 187.271,31.278 183.783,33.0314 181.314,34.8911 181.087,35.1448 180.883,35.4051 180.706,35.6712 180.557,35.9422 180.439,36.2172 180.356,36.4953 180.308,36.7756 180.3,37.0574 181.622,40.6048 184.912,44.9409 189.508,49.8385 194.75,55.0704 199.977,60.4093 204.529,65.6281 207.744,70.4994 208.963,74.7962 208.875,75.6214 208.614,76.3828 208.19,77.0663 207.609,77.6574 206.88,78.142 206.01,78.5057 205.007,78.7345 203.878,78.8139 199.897,78.4085 195.207,77.3399 190.087,75.8291 184.813,74.0972 179.661,72.3653 174.908,70.8545 170.832,69.7859 167.708,69.3805 167.052,69.4066 166.517,69.4903 166.092,69.6397 165.769,69.8627 165.535,70.1676 165.381,70.5623 165.296,71.0549 165.27,71.6535 165.825,74.763 167.289,78.9103 169.359,83.7903 171.731,89.0983 174.104,94.5293 176.173,99.7785 177.637,104.541 178.193,108.512 178.15,109.403 178.019,110.229 177.789,110.973 177.452,111.618 177.001,112.149 176.428,112.548 175.723,112.8 174.879,112.887 171.52,111.986 167.507,109.611 163.083,106.252 158.497,102.403 153.992,98.5529 149.816,95.1946 146.214,92.8192 143.431,91.9182 141.678,92.6763 140.495,94.6752 139.698,97.5011 139.101,100.741 138.522,103.98 137.775,106.806 136.677,108.805 135.043,109.563 133.494,109.128 131.977,107.98 130.475,106.357 128.972,104.497 127.453,102.637 125.901,101.014 124.299,99.8661 122.633,99.4307 120.991,100.932 119.429,104.891 117.88,110.487 116.277,116.902 114.551,123.317 112.634,128.914 110.46,132.872 107.96,134.374 105.323,132.985 103.542,129.323 102.376,124.146 101.582,118.212 100.919,112.278 100.147,107.101 99.0224,103.439 97.3047,102.05 95.5914,102.523 93.7447,103.77 91.7764,105.533 89.6981,107.554 87.5215,109.575 85.2583,111.338 82.9201,112.585 80.5188,113.058 79.3221,112.93 78.338,112.558 77.5503,111.962 76.9426,111.158 76.4984,110.167 76.2015,109.006 76.0353,107.694 75.9835,106.25 76.0509,104.266 76.2286,102.154 76.4799,99.9646 76.7679,97.7493 77.0559,95.5587 77.3071,93.4439 77.4848,91.4557 77.5522,89.6452 77.5402,88.7169 77.4892,87.7933 77.3766,86.9111 77.1801,86.107 76.8769,85.4177 76.4447,84.8799 75.861,84.5303 75.1032,84.4056 71.936,85.1489 67.5354,87.1084 62.2717,89.8788 56.5152,93.0546 50.6361,96.2305 45.0048,99.0008 39.9915,100.96 35.9664,101.704 35.2741,101.662 34.6406,101.537 34.0763,101.325 33.5914,101.025 33.1963,100.635 32.9014,100.153 32.7168,99.5759 32.653,98.9025 33.9364,94.9608 37.32,89.8463 42.1037,83.9912 47.5874,77.8275 53.0711,71.787 57.8548,66.3018 61.2384,61.8039 62.5218,58.7253 61.0504,57.1344 57.1712,56.2716 51.6868,55.897 45.3998,55.7707 39.1128,55.6529 33.6284,55.3038 29.7492,54.4835 28.2778,52.9521 29.3216,50.5415 32.0736,47.8481 35.9643,44.9989 40.4243,42.1209 44.8844,39.3408 48.7751,36.7857 51.527,34.5826 52.5709,32.8582 51.5646,31.4646 48.9118,30.2483 45.1612,29.1417 40.8618,28.0775 36.5624,26.9883 32.8119,25.8067 30.1591,24.4653 29.1528,22.8966 29.413,21.8636 30.1869,20.9892 31.4643,20.267 33.2352,19.6906 34.1138,19.5202 38.3822,19.4875 49.8739,19.3993 55.4113,19.3568 " fill="none" stroke-width="0.5" stroke="rgb(0,0,0)" />
	<polygon points="62.0724,102.791 65.4549,104.351 68.1828,106.705 70.3051,109.653 71.8707,112.994 72.9284,116.527 73.5272,120.051 73.7159,123.366 73.6842,124.793 73.5931,126.182 73.4489,127.528 73.2577,128.829 73.0258,130.081 72.7592,131.28 72.4643,132.422 72.1472,133.504 67.5719,133.237 63.0153,132.415 58.6596,131.008 54.6871,128.985 51.2801,126.314 48.6209,122.965 46.8917,118.907 46.2748,114.109 46.4988,111.742 47.1474,109.524 48.1853,107.507 49.5776,105.743 51.289,104.281 53.2843,103.174 55.5286,102.472 57.9865,102.227 " fill="none" stroke-width="0.5" stroke="rgb(0,0,0)" />
	<polygon points="455.075,102.507 456.158,102.818 457.03,103.301 457.709,103.927 458.209,104.667 458.547,105.492 458.738,106.375 458.798,107.285 458.118,110.096 456.26,112.718 453.502,115.093 450.12,117.164 446.394,118.875 442.601,120.167 439.018,120.984 435.924,121.269 434.963,121.262 433.934,121.209 432.868,121.067 431.795,120.79 430.746,120.333 429.753,119.651 428.845,118.699 428.054,117.433 427.55,116.172 427.178,114.785 426.872,113.329 426.568,111.858 426.197,110.429 425.696,109.096 424.998,107.916 424.036,106.943 425.157,107.23 426.284,107.446 427.406,107.601 428.514,107.704 429.597,107.767 430.645,107.799 431.647,107.811 432.595,107.813 435.529,107.58 438.413,106.967 441.232,106.099 443.969,105.105 446.607,104.111 449.13,103.243 451.522,102.63 453.766,102.397 " fill="none" stroke-width="0.5" stroke="rgb(0,0,0)" />
	<polygon points="181.303,82.3638 185.074,84.403 189.616,87.3638 194.501,90.8877 199.304,94.6165 203.599,98.1917 206.961,101.255 208.963,103.448 209.205,103.86 209.416,104.298 209.595,104.761 209.741,105.243 209.856,105.74 209.938,106.249 209.987,106.765 210.004,107.285 209.884,109.28 209.54,111.275 208.992,113.188 208.259,114.936 207.362,116.438 206.321,117.612 205.157,118.377 203.889,118.65 201.564,117.354 198.049,113.885 193.805,108.873 189.295,102.946 184.982,96.7314 181.329,90.8592 178.798,85.9577 177.851,82.6555 177.867,82.4602 177.914,82.2707 177.989,82.0932 178.091,81.9339 178.217,81.7991 178.367,81.6951 178.537,81.6281 178.726,81.6044 " fill="none" stroke-width="0.5" stroke="rgb(0,0,0)" />
	<polygon points="318.531,18.8372 319.566,19.626 320.715,20.738 321.935,22.0076 323.186,23.2689 324.426,24.3562 325.615,25.1037 326.709,25.3457 328.601,25.0978 330.861,24.4445 333.478,23.5207 336.44,22.4618 339.739,21.4028 343.362,20.4791 347.3,19.8257 351.541,19.5779 360.434,20.2656 368.563,22.2948 375.797,25.6141 382.006,30.1724 387.062,35.9185 390.834,42.8011 393.193,50.769 394.008,59.7711 393.11,69.0569 390.563,77.2385 386.586,84.2747 381.4,90.1241 375.222,94.7454 368.275,98.0975 360.775,100.139 352.945,100.829 347.65,100.431 342.907,99.3813 338.714,97.8979 335.065,96.1973 331.958,94.4967 329.388,93.0133 327.351,91.964 325.845,91.566 324.957,91.9113 323.996,92.8215 322.988,94.1085 321.96,95.5837 320.939,97.059 319.951,98.3459 319.024,99.2562 318.183,99.6014 317.878,99.59 317.617,99.5419 317.392,99.4366 317.198,99.2533 317.029,98.9715 316.878,98.5705 316.74,98.0297 316.609,97.3285 316.405,95.7108 316.175,93.9425 315.892,92.1364 315.53,90.4055 315.061,88.8627 314.459,87.6208 313.696,86.7929 312.746,86.4918 311.503,86.9802 309.722,88.2676 307.568,90.0877 305.207,92.1743 302.805,94.2608 300.528,96.0809 298.541,97.3684 297.011,97.8567 296.775,97.855 296.584,97.8429 296.433,97.8103 296.319,97.7466 296.238,97.6418 296.185,97.4853 296.156,97.2669 296.147,96.9763 296.522,95.2934 297.512,92.9931 298.911,90.2784 300.514,87.3522 302.118,84.4175 303.517,81.6773 304.506,79.3345 304.881,77.592 304.371,76.4662 303.024,75.7533 301.12,75.3267 298.938,75.0596 296.755,74.8253 294.851,74.4969 293.504,73.9479 292.994,73.0514 293.504,71.6649 294.851,70.2517 296.755,68.8018 298.938,67.305 301.12,65.7511 303.024,64.1301 304.371,62.4318 304.881,60.6461 304.394,58.9918 303.107,57.6452 301.289,56.5201 299.204,55.5306 297.12,54.5906 295.301,53.6141 294.015,52.515 293.527,51.2074 293.985,50.383 295.191,49.4839 296.897,48.5187 298.852,47.4958 300.807,46.4236 302.513,45.3106 303.72,44.1652 304.177,42.9959 303.712,41.425 302.486,39.2045 300.753,36.5372 298.767,33.6259 296.78,30.6733 295.047,27.8822 293.821,25.4554 293.357,23.5956 294.063,22.6744 295.96,22.9579 298.717,24.1127 302.003,25.8052 305.486,27.7021 308.834,29.4699 311.717,30.7751 313.803,31.2842 314.496,31.018 315.018,30.2995 315.392,29.2496 315.642,27.9888 315.794,26.6377 315.872,25.3169 315.901,24.1471 315.905,23.2488 315.944,22.1915 316.055,21.2566 316.228,20.4497 316.451,19.7766 316.715,19.2431 317.01,18.8549 317.325,18.6178 317.65,18.5374 " fill="none" stroke-width="0.5" stroke="rgb(0,0,0)" />
	<polygon points="464.86,19.1724 466.613,19.468 468.219,19.8859 469.817,20.3649 471.546,20.8439 473.545,21.2618 475.955,21.5573 478.913,21.6694 477.278,22.8184 475.908,24.1221 474.788,25.5232 473.904,26.9644 473.242,28.3883 472.788,29.7376 472.525,30.955 472.441,31.9832 472.644,34.6552 473.181,37.2568 473.939,39.9313 474.807,42.8225 475.676,46.0738 476.434,49.8288 476.97,54.2311 477.174,59.4243 476.001,68.9535 472.639,76.9071 467.324,83.379 460.291,88.4633 451.774,92.2541 442.009,94.8454 431.232,96.3312 419.677,96.8056 416.39,96.7728 413.057,96.6746 409.688,96.511 406.291,96.282 402.875,95.9878 399.449,95.6283 396.023,95.2037 392.604,94.714 392.129,94.6393 391.744,94.5444 391.44,94.425 391.21,94.2772 391.044,94.0965 390.936,93.8789 390.877,93.6202 390.859,93.3161 391.393,92.4913 392.8,91.6357 394.79,90.6206 397.07,89.317 399.351,87.5963 401.34,85.3297 402.747,82.3882 403.281,78.6431 403.221,77.0159 403.062,75.4348 402.837,73.9281 402.579,72.5245 402.322,71.2525 402.097,70.1405 401.938,69.2171 401.878,68.5108 401.909,68.1993 401.998,67.9224 402.136,67.6823 402.315,67.481 402.527,67.3208 402.764,67.2038 403.018,67.132 403.281,67.1075 404.39,67.5429 405.769,68.6907 407.438,70.3135 409.42,72.1737 411.736,74.0339 414.409,75.6567 417.459,76.8045 420.91,77.2399 422.044,77.1866 423.421,76.9776 424.919,76.5393 426.417,75.7979 427.794,74.6799 428.928,73.1116 429.697,71.0193 429.98,68.3294 428.705,64.094 425.342,60.6221 420.589,57.8095 415.139,55.5519 409.69,53.745 404.936,52.2845 401.574,51.0661 400.298,49.9855 401.027,49.0712 403.021,48.0699 405.993,47.0434 409.655,46.0532 413.718,45.1611 417.894,44.4287 421.896,43.9176 425.434,43.6895 420.306,38.2236 414.94,34.2215 409.621,31.4109 404.631,29.5195 400.255,28.2748 396.778,27.4046 394.483,26.6364 393.655,25.6978 394.281,24.9698 396.042,24.1392 398.761,23.2675 402.262,22.4164 406.368,21.6473 410.902,21.0218 415.689,20.6014 420.552,20.4476 424.563,20.5689 428.398,20.9586 431.947,21.6555 435.098,22.6985 437.742,24.1265 439.768,25.9782 441.064,28.2925 441.521,31.1081 441.363,32.827 440.948,34.5862 440.36,36.4104 439.686,38.3239 439.012,40.3512 438.424,42.5168 438.008,44.845 437.85,47.3604 437.942,48.7728 438.228,50.103 438.723,51.3183 439.441,52.3859 440.397,53.2732 441.607,53.9475 443.085,54.376 444.845,54.5262 446.69,54.2666 448.175,53.5301 449.334,52.3799 450.203,50.8793 450.818,49.0915 451.214,47.08 451.425,44.9078 451.488,42.6384 451.451,40.7987 451.352,39.0748 451.213,37.4688 451.053,35.9829 450.893,34.6193 450.754,33.3802 450.656,32.2678 450.618,31.2842 450.849,28.6526 451.517,26.2792 452.589,24.1925 454.03,22.4211 455.809,20.9936 457.889,19.9386 460.238,19.2847 462.821,19.0603 " fill="none" stroke-width="0.5" stroke="rgb(0,0,0)" />
	<polygon points="45.11,62.7731 46.0329,62.8502 46.915,62.9841 47.7195,63.1792 48.4094,63.4398 48.9478,63.7703 49.2979,64.1751 49.4228,64.6585 48.8432,66.3166 47.275,68.5103 44.9741,71.0064 42.1964,73.5716 39.1979,75.9728 36.2345,77.9767 33.562,79.35 31.4365,79.8597 30.8377,79.766 30.3444,79.5028 29.9489,79.0966 29.6431,78.5738 29.419,77.9609 29.2688,77.2846 29.1845,76.5712 29.1582,75.8473 29.2296,74.4819 29.4342,73.0399 29.7578,71.5766 30.186,70.1475 30.7044,68.8079 31.2988,67.6133 31.9549,66.6189 32.6583,65.8803 33.6383,65.1437 34.8485,64.5063 36.2397,63.9679 37.7625,63.528 39.3676,63.1864 41.0057,62.9428 42.6273,62.7969 44.1833,62.7483 " fill="none" stroke-width="0.5" stroke="rgb(0,0,0)" />
	<polygon points="104.174,20.3456 106.902,21.4553 108.926,23.0243 110.541,24.8228 112.041,26.6213 113.722,28.1902 115.877,29.3 118.802,29.7209 121.639,29.3149 123.783,28.2444 125.505,26.731 127.077,24.9962 128.773,23.2613 130.864,21.748 133.623,20.6775 137.322,20.2715 139.91,20.3187 142.28,20.4522 144.392,20.6595 146.207,20.9285 147.686,21.2467 148.791,21.6018 149.483,21.9816 149.722,22.3737 149.354,23.1927 148.385,23.8743 147.015,24.5107 145.445,25.1943 143.874,26.0171 142.503,27.0715 141.533,28.4496 141.163,30.2438 141.831,32.2347 143.591,34.1497 146.08,35.9951 148.932,37.777 151.785,39.5016 154.273,41.1752 156.033,42.8039 156.701,44.3938 156.654,44.812 156.52,45.1544 156.313,45.4271 156.044,45.6364 155.727,45.7883 155.373,45.8892 154.994,45.9452 154.604,45.9625 153.386,45.8573 151.982,45.5798 150.439,45.1876 148.801,44.738 147.113,44.2883 145.422,43.8961 143.772,43.6187 142.209,43.5135 141.196,43.5796 140.265,43.7791 139.432,44.1142 138.714,44.5866 138.127,45.1983 137.688,45.9512 137.412,46.8474 137.316,47.8887 137.542,49.8323 138.135,51.9469 138.974,54.1563 139.936,56.3843 140.898,58.5548 141.737,60.5916 142.331,62.4186 142.556,63.9595 142.517,64.402 142.404,64.8049 142.225,65.1623 141.99,65.4682 141.705,65.7165 141.379,65.9014 141.02,66.0167 140.635,66.0564 139.044,65.4782 137.406,63.9539 135.707,61.7987 133.932,59.3282 132.067,56.8577 130.096,54.7026 128.006,53.1782 125.781,52.6 123.388,53.4336 121.71,55.6313 120.544,58.7384 119.686,62.3001 118.935,65.8619 118.089,68.969 116.943,71.1667 115.296,72.0003 113.871,71.152 113.182,68.9156 112.918,65.7539 112.767,62.1294 112.42,58.5049 111.564,55.3432 109.89,53.1068 107.085,52.2585 104.979,52.6416 102.872,53.6516 100.797,55.0795 98.7873,56.7164 96.8753,58.3533 95.094,59.7812 93.4761,60.7912 92.0544,61.1743 91.7282,61.1571 91.4126,61.1029 91.1178,61.0075 90.8539,60.8669 90.631,60.677 90.4592,60.4338 90.3487,60.1331 90.3097,59.7711 90.7155,58.271 91.7853,56.4535 93.2978,54.4106 95.0317,52.2345 96.7656,50.0174 98.2781,47.8515 99.3479,45.8288 99.7537,44.0417 99.6513,43.2692 99.3603,42.6467 98.9054,42.1599 98.3111,41.794 97.602,41.5348 96.8027,41.3675 95.9377,41.2778 95.0317,41.2511 93.3177,41.3261 91.4883,41.5238 89.5902,41.8032 87.6699,42.1235 85.7741,42.4438 83.9494,42.7233 82.2426,42.9209 80.7002,42.9959 80.0627,42.971 79.4709,42.8951 78.9368,42.766 78.4726,42.5817 78.0905,42.3401 77.8025,42.0392 77.6208,41.6769 77.5575,41.2511 78.3159,39.9523 80.3154,38.76 83.1422,37.6006 86.3827,36.4004 89.6231,35.086 92.4499,33.5836 94.4493,31.8198 95.2078,29.7209 94.8551,27.8488 93.9255,26.4872 92.6113,25.5232 91.1047,24.8441 89.5981,24.3371 88.2838,23.8894 87.3542,23.3881 87.0016,22.7206 87.2926,22.15 88.1196,21.6219 89.4129,21.1466 91.1033,20.7344 93.1214,20.3957 95.3977,20.141 97.8628,19.9805 100.447,19.9247 " fill="none" stroke-width="0.5" stroke="rgb(0,0,0)" />
	<polygon points="205.494,36.5469 206.879,36.6385 208.05,36.8611 209.008,37.2721 209.752,37.9287 210.283,38.8881 210.602,40.2077 210.708,41.9448 210.664,43.5019 210.525,44.9979 210.275,46.3876 209.899,47.6259 209.385,48.6675 208.718,49.4675 207.883,49.9806 206.866,50.1616 204.718,49.8625 202.213,49.0471 199.548,47.8383 196.923,46.3593 194.535,44.733 192.584,43.0823 191.268,41.5304 190.785,40.2 191.111,39.4403 192.022,38.7418 193.412,38.117 195.177,37.5782 197.212,37.1377 199.413,36.8078 201.675,36.6009 203.894,36.5291 " fill="none" stroke-width="0.5" stroke="rgb(0,0,0)" />
</svg>
