<?xml version="1.0" standalone="no" ?>
<!DOCTYPE svg PUBLIC "-//W3C//DTD SVG 1.1//EN" "http://www.w3.org/Graphics/SVG/1.1/DTD/svg11.dtd">
<svg width="500px" height="500px" xmlns="http://www.w3.org/2000/svg" version="1.1" >
	<polygon points="471.023,92.7973 470.276,93.3378 470.754,93.4828 471.023,93.5925 471.023,281.011 470.214,295.419 467.796,310.692 463.713,326.807 457.943,343.453 450.473,360.332 441.292,377.154 430.394,393.635 417.773,409.497 403.424,424.469 387.338,438.287 369.502,450.692 349.894,461.429 328.483,470.244 305.227,476.876 280.08,481.06 252.984,482.52 226.585,481.143 201.973,477.182 179.128,470.887 158.019,462.496 138.62,452.241 120.914,440.353 104.892,427.058 90.551,412.587 77.8931,397.177 66.9236,381.068 57.648,364.506 50.071,347.743 44.1946,331.037 40.0165,314.65 37.5274,298.853 36.6905,283.637 36.6905,29.3008 38.4574,29.2872 61.4408,29.1108 72.9324,29.0227 84.4241,28.9345 95.9158,28.8463 95.9158,28.8463 107.407,28.7581 118.899,28.67 130.391,28.5818 153.374,28.4054 164.866,28.3173 176.358,28.2291 187.849,28.1409 200.938,28.0405 200.932,31.0443 200.932,31.0443 200.906,43.9431 200.881,56.8419 200.856,69.7407 200.83,82.6395 200.779,108.437 200.754,121.336 200.703,147.133 200.703,147.133 200.678,160.032 200.652,172.931 200.652,172.931 200.627,185.83 200.601,198.729 200.576,211.627 200.576,211.627 200.55,224.526 200.551,224.621 200.638,235.916 200.639,235.989 200.803,246.806 200.806,246.939 201.103,257.246 201.111,257.449 201.596,267.211 201.614,267.5 202.343,276.684 202.381,277.074 203.408,285.647 203.484,286.163 204.864,294.091 205.004,294.759 206.794,302.009 207.043,302.855 209.298,309.394 209.723,310.432 212.497,316.226 213.186,317.436 216.535,322.452 217.568,323.747 221.547,327.952 222.938,329.168 227.603,332.527 229.242,333.482 234.649,335.963 236.333,336.557 242.535,338.126 244.075,338.387 251.13,339.012 251.944,329.808 251.95,329.82 252.585,339.027 259.845,338.526 261.393,338.294 267.74,336.816 269.465,336.241 274.96,333.823 276.665,332.86 281.371,329.538 282.825,328.28 286.803,324.092 287.877,322.741 291.189,317.723 291.893,316.464 294.602,310.652 295.026,309.583 297.194,303.013 297.435,302.154 299.124,294.864 299.254,294.196 300.525,286.223 300.593,285.715 301.509,277.096 301.541,276.72 302.164,267.49 302.178,267.222 302.57,257.419 302.575,257.238 302.798,246.899 302.799,246.792 302.914,235.952 302.915,235.909 302.985,224.606 302.985,224.526 302.959,211.627 302.907,185.83 302.882,172.931 302.882,172.931 302.856,160.032 302.804,134.234 302.804,134.234 302.778,121.336 302.701,82.6392 302.701,82.6392 302.675,69.7404 302.597,31.044 302.597,31.044 302.591,27.9019 304.588,27.8891 316.341,27.8135 328.094,27.738 339.847,27.6624 351.601,27.5868 363.354,27.5113 375.107,27.4357 386.86,27.3602 410.367,27.209 422.12,27.1335 433.873,27.0579 445.627,26.9824 457.38,26.9068 469.133,26.8312 471.023,26.8191 " fill="none" stroke-width="0.5" stroke="rgb(0,0,0)" />
	<polygon points="194.946,445.164 196.176,445.362 197.533,445.503 198.567,445.543 199.948,445.467 201.172,445.252 201.347,445.195 195.334,444.722 194.809,444.635 " fill="none" stroke-width="0.5" stroke="rgb(0,0,0)" />
	<polygon points="317.931,422.242 318.195,423.113 318.525,424.565 318.604,424.943 318.713,425.533 318.806,425.599 319.421,426.081 320.288,426.816 320.923,427.448 321.186,427.214 321.894,426.622 322.597,426.087 323.297,425.602 324.305,424.99 324.404,424.938 324.271,424.463 323.904,421.809 323.904,420.273 " fill="none" stroke-width="0.5" stroke="rgb(0,0,0)" />
	<polygon points="168.409,414.783 168.24,417.259 168.365,417.247 168.504,416.528 168.6,416.209 169.516,414.099 169.53,414.075 168.528,413.549 168.403,413.477 " fill="none" stroke-width="0.5" stroke="rgb(0,0,0)" />
	<polygon points="82.8688,369.801 82.8808,369.792 82.8649,369.776 " fill="none" stroke-width="0.5" stroke="rgb(0,0,0)" />
	<polygon points="157.578,340.64 157.943,340.899 158.002,340.312 " fill="none" stroke-width="0.5" stroke="rgb(0,0,0)" />
	<polygon points="76.636,315.994 76.5365,316.916 77.695,315.88 78.2581,315.467 77.0294,314.486 " fill="none" stroke-width="0.5" stroke="rgb(0,0,0)" />
	<polygon points="163.136,255.389 163.147,255.45 163.838,254.141 162.842,253.929 " fill="none" stroke-width="0.5" stroke="rgb(0,0,0)" />
	<polygon points="91.9156,218.067 92.0996,218.792 92.5149,218.658 93.2439,218.536 96.2323,218.496 96.8761,218.587 98.0086,218.912 98.0234,218.814 98.203,218.024 96.0463,218.022 92.8571,217.666 91.6963,217.398 " fill="none" stroke-width="0.5" stroke="rgb(0,0,0)" />
	<polygon points="433.242,216.611 432.474,216.758 432.993,217.189 433.268,217.475 433.988,216.431 " fill="none" stroke-width="0.5" stroke="rgb(0,0,0)" />
	<polygon points="106.779,167.645 105.947,168.099 106.806,168.769 109.805,171.435 110.807,172.468 111.773,173.622 112.311,172.867 113.048,172.061 111.446,170.597 110.083,169.059 108.325,166.598 " fill="none" stroke-width="0.5" stroke="rgb(0,0,0)" />
	<polygon points="424.034,146.807 421.711,148.885 425.738,150.075 427.548,150.813 429.121,151.646 428.953,151.059 428.839,148.918 427.502,148.33 425.764,147.344 424.404,146.376 424.398,146.371 " fill="none" stroke-width="0.5" stroke="rgb(0,0,0)" />
	<polygon points="312.28,129.501 312.14,129.946 312.645,129.972 312.437,129.202 " fill="none" stroke-width="0.5" stroke="rgb(0,0,0)" />
	<polygon points="91.2805,119.069 89.8698,119.985 88.3847,120.777 90.08,120.777 91.4851,120.92 92.0728,121.04 91.8683,119.511 91.8423,119.299 91.7737,118.685 " fill="none" stroke-width="0.5" stroke="rgb(0,0,0)" />
	<polygon points="186.48,115.501 186.143,116.146 184.921,117.963 184.597,118.345 187.411,117.484 188.132,117.338 186.511,115.424 " fill="none" stroke-width="0.5" stroke="rgb(0,0,0)" />
	<polygon points="103.005,65.9999 102.918,66.0696 103.121,66.0477 103.116,65.9081 " fill="none" stroke-width="0.5" stroke="rgb(0,0,0)" />
	<polygon points="399.741,38.8412 399.822,38.8069 400.563,38.551 399.493,38.2468 " fill="none" stroke-width="0.5" stroke="rgb(0,0,0)" />
</svg>
