<?xml version="1.0" standalone="no" ?>
<!DOCTYPE svg PUBLIC "-//W3C//DTD SVG 1.1//EN" "http://www.w3.org/Graphics/SVG/1.1/DTD/svg11.dtd">
<svg width="500px" height="500px" xmlns="http://www.w3.org/2000/svg" version="1.1" >
	<polygon points="480.823,82.9773 480.56,83.4124 475.245,89.8843 473.329,91.6859 471.241,93.1952 473.018,93.9179 474.878,94.908 476.602,96.067 478.288,97.4877 479.657,98.9192 480.823,100.426 480.823,193.193 479.956,194.197 478.377,195.271 477.56,195.594 480.183,198.505 480.823,199.364 480.823,249.508 480.383,250.186 479.305,251.689 480.171,251.997 480.823,252.331 480.823,281.286 479.971,296.463 479.769,297.74 478.286,299.575 477.457,300.482 475.629,302.259 477.455,305.755 478.058,307.153 478.209,307.59 477.405,312.666 473.11,329.62 467.07,347.047 459.27,364.67 454.167,374.02 451.862,374.287 452.177,377.667 449.695,382.213 438.331,399.399 425.161,415.952 410.17,431.593 399.654,440.627 398.433,440.244 398.4,440.229 398.096,441.966 393.345,446.047 374.668,459.037 354.126,470.285 331.702,479.516 319.979,482.86 319.864,482.814 317.201,481.437 316.184,480.771 316.004,482.31 315.606,483.782 315.415,484.161 307.382,486.452 281.151,490.817 263.493,491.768 263.326,491.632 263.305,491.611 263.187,491.667 262.878,491.801 252.993,492.333 225.548,490.902 199.887,486.773 176.007,480.192 174.106,479.436 173.913,479.301 171.247,477.801 169.866,477.403 168.701,477.288 153.907,471.407 133.585,460.665 125.863,455.48 125.615,455.101 125.438,453.817 122.991,453.551 115.039,448.212 98.2672,434.295 83.2685,419.161 70.0408,403.057 68.0571,400.144 68.0392,399.341 67.361,399.122 58.5824,386.23 48.8916,368.927 40.9666,351.394 34.8057,333.879 33.0764,327.096 35.3511,319.769 35.9348,318.301 37.1038,315.914 36.9181,315.91 34.949,315.29 30.7782,312.761 29.6146,311.598 27.7694,299.888 26.8905,283.906 26.8905,231.797 26.9572,231.644 27.7473,230.284 26.9867,229.845 26.8905,229.77 26.8905,158.029 27.1482,157.311 27.8051,155.851 30.2316,151.418 31.3326,149.797 31.7097,149.342 31.5783,149.289 29.2921,148.103 27.5973,146.998 26.8905,146.431 26.8905,38.9392 29.9083,36.7293 30.4066,36.3864 31.0219,35.9894 29.7319,35.583 28.1866,34.9538 26.8905,34.2984 26.8905,19.5757 38.3822,19.4875 49.8739,19.3993 61.3656,19.3111 72.8572,19.223 84.3489,19.1348 95.8406,19.0466 107.332,18.9584 118.824,18.8703 130.316,18.7821 141.807,18.6939 153.299,18.6057 164.791,18.5175 176.282,18.4294 187.774,18.3412 210.757,18.1648 210.732,31.0636 210.706,43.9624 210.681,56.8612 210.656,69.76 210.63,82.6588 210.62,87.688 209.964,87.9625 208.288,88.4993 208.044,88.555 210.157,90.3138 210.503,90.6157 210.614,90.7168 210.579,108.456 210.554,121.355 210.503,147.153 210.478,160.052 210.452,172.95 210.437,180.526 210.113,181.016 208.331,183.258 207.039,184.61 205.751,185.732 206.713,186.391 208.296,187.731 210.269,189.776 210.419,189.969 210.401,198.748 210.376,211.647 210.356,221.668 210.328,221.713 209.839,222.211 210.354,222.688 210.35,224.546 210.438,235.84 210.602,246.657 210.899,256.963 211.36,266.254 210.157,267.71 209.029,269.21 209.342,269.526 211.455,271.306 211.632,271.459 211.769,271.579 212.112,275.909 213.138,284.482 214.519,292.41 216.308,299.661 218.563,306.2 221.336,311.994 224.685,317.011 228.665,321.215 233.33,324.575 238.737,327.056 244.939,328.626 251.957,329.247 252.166,329.232 252.842,330.633 253.501,329.638 253.926,329.111 259.171,328.749 265.518,327.271 271.013,324.853 275.719,321.532 279.698,317.343 283.01,312.324 285.72,306.511 287.888,299.942 289.576,292.653 290.848,284.68 291.763,276.06 292.386,266.831 292.426,265.826 292.89,265.463 292.456,265.09 292.778,257.028 293,246.688 293.115,235.848 293.185,224.546 293.159,211.647 293.133,198.748 293.125,194.774 294.381,193.732 294.451,193.685 293.991,192.842 293.208,190.995 293.117,190.706 293.107,185.849 293.095,179.811 293.209,179.449 293.993,177.603 294.64,176.417 294.947,175.963 293.972,175.331 293.085,174.507 293.082,172.95 293.056,160.052 293.004,134.254 292.978,121.355 292.959,111.807 293.087,111.445 294.401,108.567 294.78,107.911 294.411,107.86 294.261,107.827 292.95,107.332 292.901,82.6588 292.875,69.76 292.797,31.0636 292.771,18.1648 304.525,18.0893 316.278,18.0137 328.031,17.9382 339.784,17.8626 351.538,17.787 363.291,17.7115 375.044,17.6359 382.187,17.59 385.436,19.9749 385.884,19.0146 386.51,18.2865 387.47,17.556 410.304,17.4092 422.057,17.3337 433.81,17.2581 445.564,17.1826 457.317,17.107 469.07,17.0314 480.823,16.9559 " fill="none" stroke-width="0.5" stroke="rgb(0,0,0)" />
	<polygon points="318.488,422.532 318.634,423.013 318.964,424.465 319.046,424.861 319.123,425.277 319.712,425.738 320.579,426.473 320.94,426.832 321.606,426.276 322.341,425.717 323.041,425.232 323.877,424.725 323.837,424.584 323.454,421.809 323.454,420.896 " fill="none" stroke-width="0.5" stroke="rgb(0,0,0)" />
	<polygon points="168.857,414.494 168.95,414.279 168.856,414.229 " fill="none" stroke-width="0.5" stroke="rgb(0,0,0)" />
	<polygon points="77.1637,315.754 77.4289,315.517 77.5178,315.452 77.29,315.27 " fill="none" stroke-width="0.5" stroke="rgb(0,0,0)" />
	<polygon points="92.418,218.222 92.4404,218.214 92.9487,218.129 92.8072,218.113 92.3646,218.011 " fill="none" stroke-width="0.5" stroke="rgb(0,0,0)" />
	<polygon points="106.995,168.04 106.763,168.166 107.105,168.433 110.104,171.099 111.152,172.18 111.747,172.889 111.978,172.564 112.412,172.089 111.143,170.93 109.717,169.321 108.213,167.215 " fill="none" stroke-width="0.5" stroke="rgb(0,0,0)" />
	<polygon points="424.334,147.142 422.613,148.682 425.866,149.644 427.758,150.415 428.498,150.807 428.406,149.219 427.321,148.742 425.503,147.71 424.472,146.977 " fill="none" stroke-width="0.5" stroke="rgb(0,0,0)" />
	<polygon points="90.1579,120.333 91.5306,120.472 91.5432,120.475 91.4223,119.571 91.4156,119.516 " fill="none" stroke-width="0.5" stroke="rgb(0,0,0)" />
	<polygon points="186.543,116.354 185.759,117.519 187.28,117.054 187.298,117.05 186.606,116.233 " fill="none" stroke-width="0.5" stroke="rgb(0,0,0)" />
</svg>
