<?xml version="1.0" standalone="no" ?>
<!DOCTYPE svg PUBLIC "-//W3C//DTD SVG 1.1//EN" "http://www.w3.org/Graphics/SVG/1.1/DTD/svg11.dtd">
<svg width="500px" height="500px" xmlns="http://www.w3.org/2000/svg" version="1.1" >
	<polygon points="465.523,280.857 464.739,294.833 462.403,309.584 458.439,325.228 452.821,341.436 445.536,357.898 436.576,374.315 425.939,390.399 413.627,405.874 399.638,420.471 383.967,433.932 366.603,446.009 347.519,456.459 326.676,465.04 304.017,471.502 279.478,475.585 252.98,477.012 227.167,475.666 203.144,471.8 180.88,465.665 160.326,457.494 141.446,447.514 124.212,435.942 108.61,422.996 94.6381,408.898 82.3001,393.877 71.6049,378.171 62.5623,362.025 55.1806,345.694 49.4639,329.442 45.4095,313.54 43.0037,298.273 42.1905,283.485 42.1905,34.7587 49.9913,34.6989 61.483,34.6107 72.9746,34.5225 84.4663,34.4343 95.958,34.3462 95.958,34.3462 118.941,34.1698 130.433,34.0816 130.433,34.0816 141.925,33.9935 153.416,33.9053 153.416,33.9053 164.908,33.8171 176.4,33.7289 187.891,33.6408 187.891,33.6408 195.427,33.5829 195.407,43.9323 195.381,56.8311 195.356,69.7299 195.356,69.7299 195.33,82.6286 195.279,108.426 195.279,108.426 195.254,121.325 195.203,147.123 195.203,147.123 195.178,160.021 195.152,172.92 195.152,172.92 195.127,185.819 195.101,198.718 195.076,211.617 195.076,211.617 195.05,224.515 195.051,224.664 195.138,235.958 195.139,236.073 195.304,246.89 195.308,247.098 195.605,257.404 195.618,257.722 196.103,267.484 196.132,267.934 196.86,277.118 196.92,277.728 197.947,286.301 198.065,287.106 199.446,295.035 199.665,296.077 201.454,303.327 201.844,304.647 204.098,311.186 204.762,312.806 207.536,318.601 208.612,320.49 211.961,325.506 213.573,327.528 217.553,331.732 219.724,333.631 224.389,336.99 226.948,338.48 232.355,340.962 234.983,341.889 241.186,343.458 243.59,343.866 250.645,344.49 251.947,329.779 252.963,344.514 260.224,344.013 262.641,343.651 268.988,342.173 271.68,341.276 277.176,338.858 279.837,337.353 284.543,334.031 286.813,332.068 290.791,327.879 292.467,325.771 295.78,320.752 296.878,318.788 299.587,312.975 300.249,311.306 302.417,304.737 302.793,303.395 304.482,296.105 304.685,295.062 305.957,287.089 306.062,286.297 306.978,277.677 307.029,277.09 307.651,267.86 307.674,267.441 308.065,257.638 308.074,257.356 308.296,247.017 308.299,246.85 308.414,236.011 308.415,235.943 308.485,224.64 308.485,224.515 308.459,211.616 308.433,198.717 308.407,185.819 308.382,172.92 308.382,172.92 308.356,160.021 308.304,134.223 308.304,134.223 308.278,121.325 308.201,82.6282 308.201,82.6281 308.175,69.7293 308.102,33.3666 316.376,33.3134 328.129,33.2379 339.883,33.1623 351.636,33.0867 363.389,33.0112 375.142,32.9356 386.896,32.86 410.402,32.7089 422.155,32.6334 433.909,32.5578 445.662,32.4822 457.415,32.4067 465.523,32.3546 " fill="none" stroke-width="0.5" stroke="rgb(0,0,0)" />
</svg>
