<?xml version="1.0" standalone="no" ?>
<!DOCTYPE svg PUBLIC "-//W3C//DTD SVG 1.1//EN" "http://www.w3.org/Graphics/SVG/1.1/DTD/svg11.dtd">
<svg width="500px" height="500px" xmlns="http://www.w3.org/2000/svg" version="1.1" >
	<polygon points="480.823,81.6383 480.019,82.9681 474.704,89.44 472.919,91.1186 469.721,93.4299 470.659,93.7143 472.755,94.5664 474.488,95.4888 476.211,96.6479 477.783,97.9715 479.152,99.403 480.37,100.978 480.823,101.71 480.823,192.159 479.562,193.618 477.983,194.692 476.367,195.316 479.663,198.974 480.718,200.39 480.823,200.561 480.823,248.137 480.287,249.05 479.814,249.778 478.156,252.09 478.677,252.208 479.936,252.657 480.823,253.111 480.823,281.286 479.977,296.37 477.741,299.135 476.97,299.98 474.747,302.14 474.919,302.411 476.835,306.079 477.397,307.381 477.976,309.059 477.405,312.666 473.11,329.62 467.07,347.047 459.27,364.67 454.562,373.295 451.23,373.6 451.09,373.546 451.564,378.633 451.558,378.8 449.695,382.213 438.331,399.399 425.161,415.952 410.17,431.593 400.274,440.095 398.732,439.611 397.829,439.185 397.812,439.534 397.259,442.684 393.345,446.047 374.668,459.037 354.126,470.285 331.702,479.516 321.079,482.546 320.186,482.192 317.522,480.815 315.887,479.745 315.631,479.537 315.328,482.127 314.93,483.6 314.518,484.417 307.382,486.452 281.151,490.817 264.531,491.712 263.769,491.09 263.442,490.774 262.908,491.025 260.868,491.909 252.993,492.333 225.548,490.902 199.887,486.773 176.653,480.37 174.286,478.708 171.519,477.151 169.999,476.713 167.211,476.437 166.455,476.395 153.907,471.407 133.585,460.665 127.358,456.483 126.218,454.712 126.041,453.154 125.802,453.152 121.741,452.712 115.039,448.212 98.2672,434.295 83.2685,419.161 70.0408,403.057 68.7772,401.202 68.7368,399.391 68.7784,398.87 66.3512,397.639 58.5824,386.23 48.8916,368.927 40.9666,351.394 34.8057,333.879 33.4069,328.392 36.0196,319.977 36.5634,318.608 38.2013,315.264 37.1282,315.242 35.1591,314.622 31.2731,312.266 29.4546,310.448 29.4278,310.412 27.7694,299.888 26.8905,283.906 26.8905,233.551 27.5991,231.923 28.6979,230.032 27.4182,229.294 26.8905,228.881 26.8905,160.103 27.8071,157.548 28.4191,156.187 30.8457,151.754 31.8714,150.243 32.8592,149.052 31.9008,148.668 29.6145,147.481 28.0355,146.452 26.8905,145.533 26.8905,109.374 27.5704,108.792 27.8536,108.585 26.8905,107.828 26.8905,39.8068 30.3219,37.294 30.7862,36.9746 32.6536,35.7696 29.9422,34.9154 28.5025,34.3291 26.8905,33.514 26.8905,19.5757 38.3822,19.4875 49.8739,19.3993 61.3656,19.3111 72.8572,19.223 84.3489,19.1348 95.8406,19.0466 107.332,18.9584 118.017,18.8764 118.841,19.8634 119.747,18.8632 130.316,18.7821 141.807,18.6939 153.299,18.6057 158.259,18.5677 158.431,19.0885 159.349,18.5593 164.791,18.5175 176.282,18.4294 187.774,18.3412 210.757,18.1648 210.732,31.0636 210.706,43.9624 210.681,56.8612 210.656,69.76 210.63,82.6588 210.622,86.9218 210.564,86.9529 209.694,87.3167 208.133,87.8168 207.13,88.0455 206.457,88.1452 209.709,90.8518 210.032,91.1331 210.612,91.6621 210.579,108.456 210.554,121.355 210.503,147.153 210.478,160.052 210.452,172.95 210.44,179.26 209.565,180.581 207.783,182.823 206.579,184.083 204.61,185.798 206.317,186.969 207.792,188.217 209.765,190.262 210.416,191.103 210.401,198.748 210.376,211.647 210.359,220.335 209.733,221.344 208.839,222.24 210.268,223.562 210.352,223.649 210.35,224.546 210.438,235.84 210.602,246.657 210.899,256.963 211.309,265.217 209.607,267.277 208.166,269.194 208.118,269.284 208.867,270.041 211.004,271.841 211.169,271.984 211.848,272.582 212.112,275.909 213.138,284.482 214.519,292.41 216.308,299.661 218.563,306.2 221.336,311.994 224.685,317.011 228.665,321.215 233.33,324.575 238.737,327.056 244.939,328.626 251.353,329.193 251.432,329.323 252.774,332.1 253.05,331.583 254.046,330.077 254.879,329.045 259.171,328.749 265.518,327.271 271.013,324.853 275.719,321.532 279.698,317.343 283.01,312.324 285.72,306.511 287.888,299.942 289.576,292.653 290.848,284.68 291.763,276.06 292.386,266.831 292.39,266.738 293.7,265.711 294.024,265.514 292.864,264.518 292.496,264.091 292.778,257.028 293,246.688 293.115,235.848 293.185,224.546 293.159,211.647 293.133,198.748 293.127,195.72 293.349,195.498 294.828,194.271 295.386,193.891 295.253,193.694 294.606,192.507 293.876,190.786 293.466,189.476 293.111,187.746 293.107,185.849 293.101,182.748 293.467,180.967 293.877,179.659 294.607,177.938 295.254,176.752 295.918,175.771 294.449,174.818 293.083,173.55 293.082,172.95 293.056,160.052 293.004,134.254 292.978,121.355 292.964,114.092 293.165,113.314 293.724,111.735 295.038,108.858 295.902,107.363 294.56,107.176 294.409,107.143 292.949,106.591 292.901,82.6588 292.875,69.76 292.797,31.0636 292.771,18.1648 304.525,18.0893 316.278,18.0137 328.031,17.9382 339.784,17.8626 351.538,17.787 363.291,17.7115 375.044,17.6359 380.908,17.5982 381.448,17.9156 385.666,21.0119 386.415,19.471 387.041,18.743 388.609,17.5487 410.304,17.4092 422.057,17.3337 433.81,17.2581 444.309,17.1906 445.264,18.0632 445.983,17.1799 457.317,17.107 469.07,17.0314 480.823,16.9559 " fill="none" stroke-width="0.5" stroke="rgb(0,0,0)" />
	<polygon points="194.487,444.387 194.744,445.385 196.143,445.61 197.515,445.752 198.569,445.793 199.977,445.716 201.233,445.495 202.261,445.159 202.629,444.964 201.572,444.962 195.353,444.473 194.466,444.326 " fill="none" stroke-width="0.5" stroke="rgb(0,0,0)" />
	<polygon points="317.622,422.081 317.951,423.168 318.281,424.62 318.358,424.989 318.486,425.677 318.66,425.802 319.26,426.271 320.126,427.007 320.915,427.791 321.346,427.405 322.055,426.814 322.739,426.293 323.44,425.808 324.422,425.211 324.7,425.065 324.511,424.395 324.154,421.809 324.154,419.928 " fill="none" stroke-width="0.5" stroke="rgb(0,0,0)" />
	<polygon points="168.153,413.374 168.16,414.766 167.969,417.555 168.568,417.51 168.743,416.6 168.839,416.281 169.732,414.225 169.877,413.974 168.644,413.328 168.126,413.026 " fill="none" stroke-width="0.5" stroke="rgb(0,0,0)" />
	<polygon points="82.5638,369.457 82.6843,370.253 83.256,369.821 82.9525,369.509 82.8923,369.434 " fill="none" stroke-width="0.5" stroke="rgb(0,0,0)" />
	<polygon points="60.7551,341.297 60.911,341.548 60.9267,341.5 61.0308,341.269 60.8364,341.213 60.7406,341.178 " fill="none" stroke-width="0.5" stroke="rgb(0,0,0)" />
	<polygon points="157.16,340.649 157.926,341.194 158.146,341.375 158.279,340.064 158.323,339.75 " fill="none" stroke-width="0.5" stroke="rgb(0,0,0)" />
	<polygon points="76.3894,315.949 76.2125,317.588 76.4664,317.312 77.8428,316.082 78.6771,315.47 78.5965,315.417 77.1675,314.277 76.8951,314.01 " fill="none" stroke-width="0.5" stroke="rgb(0,0,0)" />
	<polygon points="161.133,300.792 161.141,300.809 161.144,300.79 " fill="none" stroke-width="0.5" stroke="rgb(0,0,0)" />
	<polygon points="162.526,253.628 162.891,255.438 162.972,255.899 163.02,256.214 164.21,253.96 162.534,253.587 162.512,253.569 " fill="none" stroke-width="0.5" stroke="rgb(0,0,0)" />
	<polygon points="91.4263,217.377 91.6781,218.145 91.9228,219.109 92.5563,218.905 93.2852,218.782 96.1975,218.744 96.8413,218.834 98.2133,219.229 98.2672,218.869 98.5245,217.737 98.1786,217.775 96.0741,217.774 92.8848,217.417 91.2888,217.05 " fill="none" stroke-width="0.5" stroke="rgb(0,0,0)" />
	<polygon points="433.183,216.368 432.318,216.534 431.887,216.596 432.833,217.381 433.301,217.867 434.565,216.036 " fill="none" stroke-width="0.5" stroke="rgb(0,0,0)" />
	<polygon points="108.172,166.401 106.659,167.426 105.479,168.069 105.66,168.192 106.64,168.956 109.639,171.622 110.616,172.629 111.788,174.029 112.495,173.036 113.401,172.045 111.615,170.413 110.286,168.914 108.373,166.235 " fill="none" stroke-width="0.5" stroke="rgb(0,0,0)" />
	<polygon points="423.868,146.62 421.21,148.998 425.668,150.315 427.431,151.034 429.523,152.142 429.193,150.991 429.081,148.751 427.602,148.101 425.909,147.14 424.549,146.172 424.376,146.013 " fill="none" stroke-width="0.5" stroke="rgb(0,0,0)" />
	<polygon points="312.251,129.019 312.049,129.405 311.808,130.165 311.946,130.187 312.843,130.232 312.97,130.228 312.984,130.227 312.928,130.065 312.584,128.788 312.551,128.621 " fill="none" stroke-width="0.5" stroke="rgb(0,0,0)" />
	<polygon points="177.605,122.095 177.629,122.16 177.779,122.056 " fill="none" stroke-width="0.5" stroke="rgb(0,0,0)" />
	<polygon points="91.1268,118.872 89.7522,119.765 87.4141,121.011 87.0747,121.132 88.1196,121.026 90.0547,121.026 91.4597,121.169 92.3671,121.355 92.1161,119.478 92.0908,119.271 91.9726,118.213 " fill="none" stroke-width="0.5" stroke="rgb(0,0,0)" />
	<polygon points="186.258,115.385 185.922,116.03 184.73,117.801 184.279,118.332 183.551,118.993 184.263,118.708 187.484,117.723 188.595,117.498 186.517,115.044 186.438,114.947 " fill="none" stroke-width="0.5" stroke="rgb(0,0,0)" />
	<polygon points="103.086,65.6079 102.848,65.8048 102.1,66.4045 103.383,66.2701 103.376,66.1497 103.344,65.3869 " fill="none" stroke-width="0.5" stroke="rgb(0,0,0)" />
	<polygon points="399.209,38.2113 399.607,39.1681 399.904,39.0432 401.395,38.528 399.011,37.8497 " fill="none" stroke-width="0.5" stroke="rgb(0,0,0)" />
</svg>
