<?xml version="1.0" standalone="no" ?>
<!DOCTYPE svg PUBLIC "-//W3C//DTD SVG 1.1//EN" "http://www.w3.org/Graphics/SVG/1.1/DTD/svg11.dtd">
<svg width="500px" height="500px" xmlns="http://www.w3.org/2000/svg" version="1.1" >
	<polygon points="465.073,280.844 464.291,294.785 461.961,309.494 458.007,325.098 452.402,341.271 445.132,357.698 436.19,374.082 425.575,390.135 413.288,405.578 399.328,420.144 383.692,433.576 366.366,445.626 347.325,456.053 326.528,464.614 303.919,471.062 279.429,475.137 252.979,476.561 227.214,475.218 203.24,471.36 181.023,465.237 160.515,457.085 141.677,447.127 124.482,435.581 108.914,422.664 94.9725,408.596 82.6607,393.607 71.9879,377.934 62.9644,361.822 55.5986,345.527 49.895,329.311 45.8508,313.449 43.4518,298.225 42.6405,283.473 42.6405,35.2053 49.9947,35.1488 61.4864,35.0607 72.9781,34.9725 84.4698,34.8843 95.9614,34.7961 95.9614,34.7961 107.453,34.708 118.945,34.6198 130.436,34.5316 141.928,34.4434 153.42,34.3553 164.911,34.2671 176.403,34.1789 187.895,34.0907 194.976,34.0364 194.957,43.9314 194.931,56.8302 194.906,69.729 194.906,69.729 194.88,82.6278 194.829,108.425 194.829,108.425 194.804,121.324 194.753,147.122 194.753,147.122 194.728,160.021 194.702,172.919 194.702,172.919 194.677,185.818 194.651,198.717 194.626,211.616 194.6,224.515 194.601,224.667 194.688,235.962 194.689,236.08 194.854,246.897 194.859,247.111 195.156,257.417 195.168,257.745 195.653,267.506 195.683,267.97 196.411,277.154 196.474,277.782 197.5,286.355 197.622,287.184 199.002,295.112 199.228,296.185 201.017,303.435 201.418,304.794 203.672,311.333 204.356,313.001 207.13,318.795 208.238,320.74 211.587,325.756 213.246,327.837 217.226,332.042 219.461,333.996 224.126,337.356 226.76,338.889 232.167,341.37 234.873,342.325 241.076,343.894 243.551,344.314 250.605,344.939 251.947,329.779 252.994,344.963 260.255,344.462 262.743,344.089 269.09,342.611 271.861,341.688 277.357,339.269 280.096,337.721 284.802,334.399 287.139,332.378 291.118,328.189 292.842,326.019 296.155,321 297.286,318.978 299.995,313.166 300.676,311.447 302.844,304.878 303.231,303.496 304.92,296.207 305.13,295.133 306.401,287.16 306.509,286.344 307.425,277.724 307.478,277.12 308.1,267.891 308.124,267.459 308.515,257.656 308.524,257.366 308.746,247.026 308.749,246.855 308.864,236.016 308.865,235.946 308.935,224.643 308.935,224.514 308.909,211.615 308.857,185.818 308.832,172.919 308.832,172.919 308.806,160.02 308.754,134.222 308.754,134.222 308.728,121.324 308.651,82.6273 308.651,82.6272 308.625,69.7284 308.553,33.8137 316.379,33.7634 316.379,33.7634 328.132,33.6878 339.886,33.6123 351.639,33.5367 351.639,33.5367 363.392,33.4612 375.145,33.3856 386.899,33.31 386.899,33.31 410.405,33.1589 422.158,33.0834 422.158,33.0834 433.912,33.0078 445.665,32.9322 457.418,32.8567 465.073,32.8075 " fill="none" stroke-width="0.5" stroke="rgb(0,0,0)" />
</svg>
