<?xml version="1.0" standalone="no" ?>
<!DOCTYPE svg PUBLIC "-//W3C//DTD SVG 1.1//EN" "http://www.w3.org/Graphics/SVG/1.1/DTD/svg11.dtd">
<svg width="500px" height="500px" xmlns="http://www.w3.org/2000/svg" version="1.1" >
	<polygon points="463.273,280.794 462.499,294.593 460.196,309.131 456.281,324.582 450.726,340.611 443.516,356.902 434.646,373.153 424.117,389.076 411.931,404.392 398.089,418.835 382.588,432.151 365.417,444.094 346.548,454.426 325.937,462.911 303.523,469.303 279.233,473.345 252.978,474.759 227.405,473.425 203.623,469.598 181.596,463.528 161.271,455.448 142.602,445.58 125.561,434.138 110.131,421.334 96.3102,407.389 84.1029,392.527 73.5199,376.986 64.5727,361.01 57.2709,344.856 51.6195,328.789 47.6157,313.086 45.2441,298.035 44.4405,283.424 44.4405,36.9915 50.0086,36.9488 61.5002,36.8606 72.9919,36.7724 84.4836,36.6843 95.9753,36.5961 107.467,36.5079 118.959,36.4197 130.45,36.3316 130.45,36.3316 153.434,36.1552 164.925,36.067 176.417,35.9789 187.909,35.8907 187.909,35.8907 193.172,35.8503 193.157,43.9278 193.131,56.8266 193.106,69.7254 193.106,69.7254 193.08,82.6242 193.029,108.422 193.029,108.422 193.004,121.321 192.953,147.118 192.928,160.017 192.902,172.916 192.877,185.815 192.851,198.713 192.826,211.612 192.826,211.612 192.8,224.511 192.801,224.681 192.888,235.976 192.89,236.107 193.054,246.924 193.059,247.163 193.356,257.469 193.371,257.834 193.855,267.596 193.889,268.112 194.617,277.296 194.686,277.996 195.713,286.569 195.849,287.492 197.229,295.421 197.48,296.616 199.27,303.866 199.717,305.38 201.971,311.919 202.733,313.778 205.507,319.572 206.74,321.739 210.09,326.755 211.939,329.074 215.919,333.279 218.409,335.457 223.074,338.816 226.01,340.525 231.416,343.006 234.431,344.07 240.634,345.639 243.392,346.107 250.447,346.732 251.947,329.779 253.118,346.758 260.379,346.258 263.151,345.842 269.498,344.364 272.586,343.335 278.082,340.917 281.134,339.191 285.84,335.869 288.444,333.618 292.423,329.429 294.345,327.011 297.657,321.992 298.917,319.739 301.627,313.926 302.386,312.011 304.554,305.442 304.985,303.903 306.674,296.613 306.907,295.416 308.179,287.443 308.299,286.534 309.215,277.915 309.274,277.241 309.896,268.012 309.922,267.531 310.314,257.728 310.324,257.405 310.546,247.065 310.549,246.874 310.664,236.035 310.665,235.957 310.735,224.654 310.735,224.51 310.709,211.612 310.683,198.713 310.657,185.814 310.632,172.915 310.632,172.915 310.606,160.016 310.554,134.219 310.554,134.219 310.528,121.32 310.451,82.6237 310.451,82.6236 310.425,69.7248 310.356,35.6022 316.391,35.5634 328.144,35.4878 339.897,35.4122 351.65,35.3367 363.404,35.2611 375.157,35.1856 386.91,35.11 410.417,34.9589 422.17,34.8833 433.923,34.8078 445.676,34.7322 457.43,34.6566 463.273,34.6191 " fill="none" stroke-width="0.5" stroke="rgb(0,0,0)" />
</svg>
