<?xml version="1.0" standalone="no" ?>
<!DOCTYPE svg PUBLIC "-//W3C//DTD SVG 1.1//EN" "http://www.w3.org/Graphics/SVG/1.1/DTD/svg11.dtd">
<svg width="500px" height="500px" xmlns="http://www.w3.org/2000/svg" version="1.1" >
	<polygon points="461.273,280.738 460.507,294.38 458.235,308.728 454.364,324.008 448.863,339.877 441.721,356.016 432.931,372.121 422.497,387.899 410.423,403.075 396.712,417.381 381.363,430.567 364.363,442.391 345.684,452.619 325.28,461.018 303.083,467.349 279.014,471.354 252.976,472.756 227.616,471.433 204.049,467.641 182.233,461.629 162.11,453.63 143.63,443.861 126.76,432.534 111.483,419.857 97.7964,406.047 85.7055,391.327 75.2222,375.932 66.3597,360.108 59.1289,344.111 53.5356,328.209 49.5768,312.683 47.2355,297.824 46.4405,283.369 46.4405,38.9762 50.0239,38.9487 73.0073,38.7724 84.4989,38.6842 95.9906,38.596 95.9906,38.596 107.482,38.5079 118.974,38.4197 130.466,38.3315 141.957,38.2433 164.941,38.067 176.432,37.9788 187.924,37.8906 191.168,37.8657 191.157,43.9239 191.131,56.8227 191.106,69.7215 191.106,69.7215 191.08,82.6203 191.029,108.418 191.029,108.418 191.004,121.317 190.953,147.114 190.953,147.114 190.928,160.013 190.902,172.912 190.902,172.912 190.851,198.709 190.826,211.608 190.826,211.608 190.8,224.507 190.801,224.697 190.888,235.991 190.89,236.137 191.054,246.954 191.06,247.22 191.357,257.526 191.373,257.933 191.858,267.695 191.895,268.27 192.623,277.454 192.701,278.234 193.727,286.806 193.878,287.835 195.259,295.764 195.538,297.095 197.328,304.346 197.826,306.032 200.08,312.571 200.929,314.642 203.703,320.436 205.077,322.85 208.426,327.866 210.487,330.449 214.466,334.654 217.24,337.08 221.905,340.439 225.175,342.343 230.582,344.824 233.941,346.009 240.144,347.578 243.216,348.099 250.27,348.724 251.947,329.779 253.256,348.754 260.516,348.253 263.604,347.79 269.951,346.312 273.392,345.166 278.887,342.748 282.288,340.825 286.994,337.503 289.895,334.995 293.873,330.806 296.014,328.113 299.327,323.094 300.73,320.584 303.439,314.771 304.285,312.638 306.453,306.069 306.933,304.354 308.622,297.065 308.882,295.731 310.154,287.758 310.288,286.746 311.204,278.126 311.269,277.376 311.892,268.146 311.921,267.611 312.312,257.808 312.323,257.448 312.545,247.108 312.549,246.896 312.664,236.056 312.665,235.969 312.735,224.667 312.735,224.506 312.709,211.608 312.683,198.709 312.657,185.81 312.632,172.911 312.632,172.911 312.606,160.012 312.554,134.215 312.554,134.215 312.528,121.316 312.451,82.6197 312.451,82.6196 312.425,69.7209 312.36,37.5893 316.403,37.5633 316.404,37.5633 328.157,37.4878 339.91,37.4122 351.663,37.3366 363.416,37.2611 375.17,37.1855 386.923,37.11 410.43,36.9588 422.183,36.8833 433.936,36.8077 445.689,36.7322 457.442,36.6566 461.273,36.632 " fill="none" stroke-width="0.5" stroke="rgb(0,0,0)" />
</svg>
