<?xml version="1.0" standalone="no" ?>
<!DOCTYPE svg PUBLIC "-//W3C//DTD SVG 1.1//EN" "http://www.w3.org/Graphics/SVG/1.1/DTD/svg11.dtd">
<svg width="500px" height="500px" xmlns="http://www.w3.org/2000/svg" version="1.1" >
	<polygon points="474.223,85.3775 472.424,87.5678 471.191,88.7278 464.157,93.8122 462.974,94.493 458.261,96.591 459.352,97.0426 460.15,97.4839 461.13,96.4215 465.904,95.5854 468.39,96.0958 469.548,96.4471 471.644,97.2991 472.841,97.9366 474.223,98.8663 474.223,192.952 472.909,193.389 471.037,193.205 469.002,192.705 472.784,195.848 473.469,196.506 474.223,197.344 474.223,252.512 473.232,253.894 473.151,254.005 472.713,254.59 474.223,254.512 474.223,281.101 473.4,295.76 472.731,299.985 471.956,300.739 470.645,301.446 471.699,302.826 472.165,303.558 470.933,311.337 466.781,327.725 460.923,344.626 453.345,361.749 449.119,369.492 447.468,368.359 446.529,366.324 447.661,370.025 447.922,371.344 447.949,371.636 444.036,378.806 432.985,395.517 420.185,411.604 405.627,426.795 396.333,434.779 395.933,434.478 395.141,433.775 394.593,433.204 394.738,434.109 394.883,436.025 389.3,440.821 371.189,453.417 351.276,464.321 329.534,473.271 316.998,476.847 315.548,475.669 314.597,474.72 312.871,472.607 312.145,471.511 310.901,469.151 310.415,467.96 309.662,465.437 309.418,464.188 309.165,461.583 309.148,460.514 309.239,459.119 307.764,462.532 307.166,463.622 304.399,467.695 302.975,469.209 301.264,470.532 301.724,470.481 302.219,470.445 303.083,470.415 303.839,470.432 304.71,470.502 306.01,470.738 306.679,470.931 308.205,471.588 308.698,471.879 310.144,473.032 310.489,473.397 311.507,474.808 311.729,475.223 312.257,476.522 312.383,476.96 312.586,477.943 312.606,478.099 305.931,480.003 280.429,484.246 252.987,485.724 226.246,484.329 201.292,480.314 178.109,473.925 156.676,465.406 136.976,454.992 118.996,442.919 102.729,429.421 88.173,414.734 75.3291,399.097 64.1999,382.754 54.7887,365.95 47.0981,348.935 41.1289,331.965 38.5396,321.81 38.837,320.852 39.2128,319.906 43.0089,312.154 41.7179,312.504 38.0137,312.428 36.3441,311.903 34.3411,299.191 33.4905,283.724 33.4905,153.086 34.1422,152.126 37.6816,147.858 38.0736,147.475 36.9855,147.267 34.45,146.527 33.4905,146.142 33.4905,108.51 34.1639,108.159 33.9919,108.137 33.4905,108.037 33.4905,38.7404 36.8457,36.5753 36.9331,36.5198 39.9366,34.6477 39.2761,34.4842 39.241,34.4754 34.9416,33.3862 34.5792,33.2833 33.4905,32.9403 33.4905,26.1252 38.4329,26.0873 49.9245,25.9991 61.4162,25.9109 72.9079,25.8228 84.3996,25.7346 95.8912,25.6464 107.383,25.5582 118.875,25.4701 130.366,25.3819 141.858,25.2937 153.35,25.2055 155.693,25.1876 155.482,25.6572 155.879,25.1861 164.841,25.1174 176.333,25.0292 187.825,24.941 187.825,24.941 204.144,24.8158 204.132,31.0506 204.132,31.0506 204.106,43.9494 204.081,56.8482 204.056,69.747 204.056,69.747 204.03,82.6458 204.025,85.3927 203.21,85.3799 199.228,84.9746 198.43,84.8436 196.929,84.5016 198.362,85.535 198.548,85.6743 203.351,89.4031 203.526,89.5438 204.016,89.9512 203.979,108.443 203.979,108.443 203.954,121.342 203.903,147.14 203.878,160.039 203.852,172.937 203.833,182.562 202.5,183.724 201.454,184.469 198.986,185.888 198.633,186.045 201.171,187.158 202.251,187.758 203.821,188.834 203.801,198.735 203.776,211.634 203.75,224.533 203.751,224.597 203.838,235.891 203.838,235.94 204.003,246.757 204.005,246.847 204.302,257.153 204.307,257.291 204.792,267.052 204.804,267.247 204.943,268.994 204.852,269.456 204.953,269.974 205.031,270.1 205.533,276.431 205.559,276.694 206.585,285.267 206.636,285.614 208.017,293.543 208.111,293.992 209.901,301.242 210.069,301.812 212.323,308.351 212.61,309.05 215.383,314.844 215.847,315.659 219.196,320.675 219.892,321.547 223.871,325.752 224.808,326.571 229.473,329.931 230.577,330.573 235.983,333.055 237.118,333.454 243.32,335.024 244.357,335.2 250.967,335.785 251.611,338.081 251.797,338.987 251.927,339.959 254.193,335.708 259.625,335.334 260.668,335.177 267.015,333.699 268.176,333.312 273.672,330.894 274.82,330.245 279.525,326.923 280.505,326.077 284.483,321.888 285.206,320.979 288.519,315.96 288.992,315.112 291.702,309.3 291.987,308.58 294.155,302.01 294.317,301.432 296.006,294.142 296.094,293.692 297.365,285.719 297.411,285.377 298.327,276.758 298.349,276.504 298.971,267.275 298.981,267.094 299.002,266.561 299.732,266.41 299.029,265.9 299.372,257.291 299.376,257.169 299.598,246.83 299.599,246.758 299.715,235.918 299.715,235.889 299.785,224.586 299.785,224.532 299.759,211.634 299.733,198.735 299.725,194.783 299.797,194.753 299.725,194.681 299.707,185.836 299.687,175.805 300.29,175.203 301.033,174.589 299.848,174.525 299.685,174.456 299.682,172.937 299.656,160.038 299.604,134.241 299.604,134.241 299.578,121.342 299.55,107.31 300.235,106.348 301.141,105.322 303.626,103.034 304.795,102.174 307.906,100.378 309.241,99.7931 310.301,99.4622 310.253,99.2444 310.122,98.5432 310.061,98.1545 309.895,96.8391 309.578,97.1197 309.535,97.1568 307.133,99.2433 306.926,99.4162 304.649,101.236 304.117,101.619 302.131,102.907 300.548,103.656 299.543,103.977 299.501,82.6456 299.501,82.6456 299.475,69.7468 299.397,31.0504 299.397,31.0504 299.384,24.7225 304.567,24.6891 316.32,24.6136 328.074,24.538 339.827,24.4625 351.58,24.3869 363.333,24.3113 375.087,24.2358 384.986,24.1721 385.912,24.852 386.961,25.8126 387.226,26.1132 387.433,24.1564 410.346,24.0091 422.099,23.9335 433.853,23.858 445.606,23.7824 457.359,23.7069 469.113,23.6313 474.223,23.5984 " fill="none" stroke-width="0.5" stroke="rgb(0,0,0)" />
	<polygon points="191.311,444.182 191.63,445.123 192.333,447.85 192.689,447.955 194.159,448.279 195.756,448.535 197.305,448.696 198.592,448.747 200.314,448.652 201.951,448.364 203.419,447.883 204.644,447.234 205.63,446.422 206.447,445.364 207.136,443.852 207.61,441.664 202.812,442.023 201.803,442.021 195.585,441.532 194.468,441.347 189.569,440.095 " fill="none" stroke-width="0.5" stroke="rgb(0,0,0)" />
	<polygon points="161.432,431.117 160.844,432.262 157.845,436.919 156.91,438.066 152.715,442.166 151.455,443.131 147.727,445.329 148.372,445.288 152.28,444.451 155.336,443.205 157.628,441.659 159.312,439.846 160.531,437.681 161.321,435.016 161.632,431.516 161.63,431.331 161.613,430.864 161.603,430.686 " fill="none" stroke-width="0.5" stroke="rgb(0,0,0)" />
	<polygon points="327.05,415.701 325.736,416.3 316.232,419.433 314.836,419.73 313.319,419.885 313.455,420.07 314.313,421.641 314.807,422.938 315.075,423.823 315.405,425.275 315.458,425.53 315.711,426.887 315.833,427.403 315.995,427.519 316.029,427.543 316.936,428.196 317.35,428.521 318.217,429.256 318.955,429.99 319.688,430.845 320.577,432.18 320.646,432.318 321.061,431.843 321.232,431.655 321.951,430.892 322.189,430.652 322.903,429.968 323.237,429.67 323.946,429.078 324.419,428.718 325.119,428.233 325.798,427.821 326.488,427.457 327.456,427.042 328.134,426.813 328.675,426.69 327.7,424.838 327.351,423.596 327.104,421.809 327.104,415.669 " fill="none" stroke-width="0.5" stroke="rgb(0,0,0)" />
	<polygon points="378.043,417.615 378.041,417.77 378.025,418.466 379.552,418.055 381.122,418.238 382.512,418.556 384.145,419.121 385.381,419.697 386.992,420.663 388.071,421.47 389.419,422.712 389.388,422.472 389.347,421.216 389.376,420.743 389.511,419.766 389.611,419.302 388.946,419.231 387.755,418.991 384.194,417.927 383.262,417.569 379.923,415.99 379.166,415.568 378.043,414.843 " fill="none" stroke-width="0.5" stroke="rgb(0,0,0)" />
	<polygon points="244.141,411.816 243.363,416.792 242.8,418.611 241.476,421.391 242.38,420.165 244.484,415.894 245.724,411.531 245.171,411.451 244.182,411.18 " fill="none" stroke-width="0.5" stroke="rgb(0,0,0)" />
	<polygon points="165.212,413.603 165.217,414.565 164.897,419.249 164.765,420.183 164.53,421.279 167.726,420.29 170.772,420.953 171.42,421.268 171.337,420.746 171.282,419.137 171.314,418.769 171.568,417.449 171.664,417.13 172.281,415.709 172.439,415.439 173.427,414.141 173.644,413.919 174.777,413.006 173.19,412.349 172.649,412.096 170.013,410.715 169.497,410.414 167.07,408.847 166.552,408.476 164.699,407.009 " fill="none" stroke-width="0.5" stroke="rgb(0,0,0)" />
	<polygon points="258.537,399.704 258.523,400.777 258.427,401.789 258.185,403.043 257.909,403.974 257.418,405.179 256.978,406.012 256.311,407.02 257.54,407.498 258.095,407.743 260.954,409.171 261.383,409.405 264.166,411.061 264.524,411.29 267.141,413.086 267.468,413.326 269.832,415.172 270.166,415.45 272.188,417.255 272.576,417.631 272.801,417.867 272.902,417.847 274.187,417.626 274.462,417.584 275.796,417.412 276.056,417.383 277.44,417.26 277.685,417.242 279.117,417.168 279.348,417.16 280.83,417.136 281.094,417.137 282.786,417.176 279.469,416.091 278.16,415.498 269.554,410.405 268.438,409.574 261.337,403.019 260.47,402.042 258.512,399.34 " fill="none" stroke-width="0.5" stroke="rgb(0,0,0)" />
	<polygon points="363.181,399.921 365.028,400.316 365.785,400.526 367.185,401.005 367.339,398.99 " fill="none" stroke-width="0.5" stroke="rgb(0,0,0)" />
	<polygon points="349.194,395.149 348.585,396.165 346.092,399.588 347.653,399.317 348.416,399.229 352.923,398.977 353.53,398.971 357.323,399.108 357.848,399.148 357.897,399.154 356.815,398.681 355.738,397.946 354.49,396.84 353.511,395.721 352.83,394.788 351.973,393.371 351.57,392.591 351.029,391.347 " fill="none" stroke-width="0.5" stroke="rgb(0,0,0)" />
	<polygon points="207.098,388.547 205.79,388.533 200.333,387.931 200.4,388.021 200.897,388.802 202.735,392.187 203.143,393.096 204.284,396.261 204.459,396.957 206.779,393.527 208.3,391.934 212.255,388.984 214.778,387.865 " fill="none" stroke-width="0.5" stroke="rgb(0,0,0)" />
	<polygon points="308.721,393.427 308.227,393.572 305.015,394.381 304.41,394.504 300.702,395.076 300.033,395.145 295.791,395.362 294.992,395.354 294.754,395.338 297.579,396.102 304.337,396.687 307.623,396.551 310.586,396.161 311.679,395.902 310.56,394.344 310.304,393.512 310.268,392.906 " fill="none" stroke-width="0.5" stroke="rgb(0,0,0)" />
	<polygon points="220.787,386.67 222.391,386.576 223.436,386.656 224.201,386.76 225.191,386.954 225.176,386.856 225.093,385.836 225.093,385.404 " fill="none" stroke-width="0.5" stroke="rgb(0,0,0)" />
	<polygon points="246.147,368.697 242.08,374.163 241.289,375.021 242.095,375.432 242.979,376.024 244.063,376.931 244.806,377.703 245.187,378.181 246.14,378.207 247.386,378.332 248.463,378.557 247.437,374.773 247.234,373.636 246.707,367.765 " fill="none" stroke-width="0.5" stroke="rgb(0,0,0)" />
	<polygon points="83.7367,366.347 83.4567,366.39 82.6151,366.501 81.8216,366.558 79.5082,366.582 78.2718,366.472 78.5086,366.816 79.5971,369.569 80.5994,376.188 80.926,375.795 81.6089,375.089 84.1174,372.854 84.9736,372.209 87.4528,370.637 88.2227,370.25 87.605,369.82 86.1193,368.554 85.2528,367.662 84.1403,366.276 " fill="none" stroke-width="0.5" stroke="rgb(0,0,0)" />
	<polygon points="151.119,375.735 150.96,375.489 149.22,373.583 147.289,372.039 " fill="none" stroke-width="0.5" stroke="rgb(0,0,0)" />
	<polygon points="171.96,373.618 172.222,374.285 172.247,374.288 172.531,374.312 172.835,374.321 173.282,374.315 173.794,374.299 173.814,374.298 173.362,373.826 171.246,371.191 " fill="none" stroke-width="0.5" stroke="rgb(0,0,0)" />
	<polygon points="353.623,364.589 355.525,366.445 356.367,370.41 356.103,372.978 356.784,372.656 357.467,372.378 359.035,371.841 359.551,371.687 361.238,371.259 362.195,370.941 362.165,370.93 360.29,369.961 359.177,369.237 357.586,367.955 356.637,367.017 355.356,365.466 354.618,364.363 354.357,363.871 " fill="none" stroke-width="0.5" stroke="rgb(0,0,0)" />
	<polygon points="323.988,367.217 323.31,368.292 322.345,369.539 321.994,369.909 323.489,369.874 327.04,369.643 330.387,369.283 329.428,368.907 326.812,367.565 325.654,366.809 324.619,365.965 " fill="none" stroke-width="0.5" stroke="rgb(0,0,0)" />
	<polygon points="276.374,367.293 277.111,367.123 277.332,365.997 277.54,365.226 " fill="none" stroke-width="0.5" stroke="rgb(0,0,0)" />
	<polygon points="441.23,355.687 442.07,356.855 445.118,362.246 445.684,363.563 445.827,364.031 444.967,359.067 442.971,355.915 439.738,353.398 438.701,352.878 " fill="none" stroke-width="0.5" stroke="rgb(0,0,0)" />
	<polygon points="295.337,357.29 293.921,357.929 290.869,358.893 292.057,359.537 293.925,360.923 294.07,361.033 296.389,362.855 297.285,363.466 297.062,362.287 296.918,360.75 296.896,359.821 296.949,358.715 296.994,358.196 297.132,357.106 297.187,356.754 297.305,356.106 " fill="none" stroke-width="0.5" stroke="rgb(0,0,0)" />
	<polygon points="117.61,354.361 116.675,354.798 116.695,356.465 116.582,357.763 116.171,359.953 115.792,361.236 114.975,363.228 114.926,363.321 115.233,363.236 116.405,363.022 120.656,362.637 121.975,362.65 124.383,362.916 123.977,362.682 122.971,361.969 121.873,361.026 120.737,359.76 120.069,358.79 119.233,357.095 118.901,356.079 118.599,354.578 118.537,353.825 " fill="none" stroke-width="0.5" stroke="rgb(0,0,0)" />
	<polygon points="394.686,340.389 394.488,340.555 393.34,341.478 392.76,341.895 391.738,342.547 390.06,343.314 389.225,343.562 386.529,343.783 386.342,343.759 386.07,343.69 386.47,344.522 387.6,347.721 387.934,349.173 388.199,351.508 388.284,351.411 389.036,350.671 393.647,346.807 395.23,345.823 398.833,344.24 398.415,343.79 397.139,342.252 396.989,342.066 395.642,340.317 395.289,339.865 " fill="none" stroke-width="0.5" stroke="rgb(0,0,0)" />
	<polygon points="57.9057,342.301 61.2349,347.655 62.5519,348.958 62.5397,347.773 62.6881,346.312 63.1795,344.036 63.6154,342.714 64.5439,340.657 65.1831,339.545 65.3807,339.267 62.7436,338.702 61.8532,338.444 59.3845,337.537 58.2663,337.003 57.1801,336.352 " fill="none" stroke-width="0.5" stroke="rgb(0,0,0)" />
	<polygon points="164.356,296.704 163.431,297.106 162.16,297.545 160.868,297.851 159.685,298.008 158.271,298.042 157.915,298.012 156.801,297.823 156.395,297.717 155.572,297.423 157.857,300.932 158.227,301.578 162.285,309.681 162.842,311.275 164.381,318.58 164.497,320.525 164.244,323.366 164.048,324.481 163.297,327.296 162.912,328.363 161.675,331.043 161.081,332.074 159.366,334.511 158.529,335.484 156.348,337.569 155.248,338.418 152.611,340.042 151.286,340.667 151.238,340.684 151.917,340.967 152.796,341.414 155.256,342.905 156.045,343.466 158.394,345.411 159.032,346.016 161.291,348.461 161.351,348.534 160.985,345.322 160.946,344.36 161.005,342.576 161.035,342.126 161.214,340.361 161.287,339.844 161.593,338.166 161.744,337.522 162.183,335.999 162.493,335.148 163.072,333.845 163.733,332.688 164.457,331.675 165.864,330.233 166.74,329.576 169.245,328.417 170.278,328.182 170.379,328.176 167.594,323.959 166.947,322.707 164.647,316.772 164.256,315.23 163.44,308.896 163.396,307.701 163.564,304.543 163.64,303.843 164.132,300.796 164.278,300.117 165.074,297.193 165.286,296.547 165.448,296.127 " fill="none" stroke-width="0.5" stroke="rgb(0,0,0)" />
	<polygon points="317.31,342.089 316.271,342.59 315.259,342.98 315.181,343.003 315.957,343.433 317.036,344.163 317.064,343.986 317.538,341.949 " fill="none" stroke-width="0.5" stroke="rgb(0,0,0)" />
	<polygon points="416.528,332.163 415.486,332.362 413.699,332.555 413.468,332.576 412.529,332.645 412.558,332.804 412.813,334.225 412.831,334.328 413.055,335.697 413.09,335.945 413.249,337.214 413.29,337.681 413.35,338.809 413.357,339.35 413.347,339.684 413.316,340.165 413.282,340.499 413.178,341.172 413.111,341.494 413.055,341.689 418.062,342.116 419.173,342.307 421.827,343.002 419.79,340.688 418.313,337.812 417.072,332.439 417.043,332.021 " fill="none" stroke-width="0.5" stroke="rgb(0,0,0)" />
	<polygon points="127.003,336.216 127.146,337.647 127.126,339.885 127.032,340.756 128.36,340.111 129.193,339.774 131.247,339.103 131.15,339.047 130.059,338.257 128.153,336.556 127.291,335.623 126.716,334.866 " fill="none" stroke-width="0.5" stroke="rgb(0,0,0)" />
	<polygon points="379.44,335.568 379.769,335.803 379.932,335.944 379.962,335.149 380.019,334.791 " fill="none" stroke-width="0.5" stroke="rgb(0,0,0)" />
	<polygon points="385.203,310.605 384.215,312.33 383.339,314.219 382.71,315.943 382.503,317.011 382.302,319.211 382.127,322.166 381.939,325.35 381.926,325.535 381.664,328.54 381.606,329.01 381.538,329.432 382.43,327.281 382.454,327.223 383.607,324.517 384.688,321.767 385.566,319.068 386.133,316.519 386.346,313.96 386.322,312.665 386.215,310.941 386.028,309.438 " fill="none" stroke-width="0.5" stroke="rgb(0,0,0)" />
	<polygon points="322.099,325.738 321.343,326.253 321.636,326.684 322.153,327.688 322.195,327.502 322.366,325.541 322.361,325.399 " fill="none" stroke-width="0.5" stroke="rgb(0,0,0)" />
	<polygon points="121.736,324.592 120.85,325.007 121.066,325.187 122.609,326.741 123.007,327.224 122.987,327.158 122.752,325.95 122.566,324.091 " fill="none" stroke-width="0.5" stroke="rgb(0,0,0)" />
	<polygon points="74.4118,311.843 73.4799,315.416 73.1709,318.277 73.2013,319.355 73.3292,320.568 73.5647,321.679 73.9426,322.776 74.5314,323.958 74.9183,324.535 75.344,323.665 76.4484,321.868 77.2183,320.85 78.636,319.311 79.5872,318.461 81.2883,317.213 82.3713,316.569 84.3256,315.645 85.1146,315.359 84.2761,315.111 83.1075,314.639 81.5135,313.812 80.4371,313.112 79.008,311.971 78.0652,311.05 76.8565,309.606 76.1034,308.494 75.8127,307.952 " fill="none" stroke-width="0.5" stroke="rgb(0,0,0)" />
	<polygon points="343.922,311.564 343.379,312.522 342.342,313.895 341.553,314.697 340.799,315.294 341.553,315.72 346.412,319.032 347.284,319.742 351.127,323.46 351.7,322.154 351.928,321.686 352.74,320.171 352.818,320.033 352.613,319.984 352.332,319.911 350.483,319.385 349.553,319.044 348.246,318.448 345.565,316.213 345.069,315.501 343.895,312.099 344.057,311.242 " fill="none" stroke-width="0.5" stroke="rgb(0,0,0)" />
	<polygon points="96.7665,314.725 96.0662,314.942 96.2139,314.978 98.2561,315.704 98.2584,315.705 98.0692,315.155 97.8409,314.256 " fill="none" stroke-width="0.5" stroke="rgb(0,0,0)" />
	<polygon points="428.463,312.802 428.456,313.016 428.437,313.383 428.675,313.284 429.908,312.91 429.648,312.886 429.586,312.88 428.653,312.784 428.464,312.765 " fill="none" stroke-width="0.5" stroke="rgb(0,0,0)" />
	<polygon points="403.617,305.78 404.915,307.733 406.514,309.66 408.314,311.45 408.892,311.926 408.266,310.91 405.91,307.788 403.441,305.405 403.425,305.396 " fill="none" stroke-width="0.5" stroke="rgb(0,0,0)" />
	<polygon points="131.164,300.281 131.302,301.162 131.827,307.133 131.822,308.345 131.786,308.72 133.918,308.478 134.098,308.496 135.781,308.884 135.931,308.94 137.112,309.626 135.614,306.517 131.051,298.872 130.721,298.33 " fill="none" stroke-width="0.5" stroke="rgb(0,0,0)" />
	<polygon points="345.858,306.257 345.162,306.248 345.176,306.49 345.075,307.735 344.998,308.159 346.602,306.208 " fill="none" stroke-width="0.5" stroke="rgb(0,0,0)" />
	<polygon points="312.082,304.392 308.822,306.582 311.015,306.866 311.62,306.974 313.697,307.442 313.344,306.661 312.827,304.891 312.684,303.907 " fill="none" stroke-width="0.5" stroke="rgb(0,0,0)" />
	<polygon points="108.721,299.96 108.898,300.025 109.181,300.182 109.329,300.33 109.165,297.94 " fill="none" stroke-width="0.5" stroke="rgb(0,0,0)" />
	<polygon points="434.588,293.231 433.637,294.563 433.55,294.682 432.486,296.103 432.445,296.159 432.8,296.361 434.711,297.392 434.865,297.478 436.57,298.458 436.627,298.495 435.34,294.237 434.854,292.826 " fill="none" stroke-width="0.5" stroke="rgb(0,0,0)" />
	<polygon points="458.885,288.33 458.009,288.735 456.971,289.595 455.711,291.117 454.532,292.939 454.635,292.929 456.353,292.979 459.542,293.493 460.925,293.936 460.927,293.741 460.927,293.538 460.857,292.108 460.662,290.774 460.346,289.554 459.967,288.621 459.713,288.214 " fill="none" stroke-width="0.5" stroke="rgb(0,0,0)" />
	<polygon points="87.6698,283.565 87.6137,283.676 85.2589,288.209 84.6428,289.398 86.3637,290.303 86.8852,290.717 87.5255,291.299 88.0901,291.883 88.4689,292.275 88.5072,292.27 88.8617,291.407 89.3169,289.194 89.6337,285.87 89.7876,281.581 89.8041,279.26 " fill="none" stroke-width="0.5" stroke="rgb(0,0,0)" />
	<polygon points="55.5689,277.693 56.2746,279.202 56.5473,279.633 57.015,280.355 57.0585,280.423 57.5036,281.128 57.6389,281.353 58.0304,282.032 58.2496,282.445 58.5753,283.116 58.8407,283.742 59.0884,284.423 59.3292,285.249 59.4868,285.958 59.5546,286.421 59.8928,285.798 60.59,282.763 60.5758,282.709 60.5436,282.628 60.4891,282.527 60.3792,282.372 60.175,282.141 59.6282,281.635 59.6128,281.621 57.6908,279.83 57.2998,279.434 55.7858,277.764 55.5422,277.479 55.5174,277.448 " fill="none" stroke-width="0.5" stroke="rgb(0,0,0)" />
	<polygon points="412.243,285.553 410.728,285.922 413.322,285.444 414.353,285.146 " fill="none" stroke-width="0.5" stroke="rgb(0,0,0)" />
	<polygon points="166.28,272.594 166.869,273.851 167.46,274.939 168.023,275.794 168.501,276.367 169.276,277.05 169.515,277.257 169.981,277.701 170.251,277.985 170.624,278.413 170.886,278.741 171.217,279.193 171.46,279.556 171.772,280.073 171.982,280.46 172.284,281.092 172.45,281.494 172.725,282.305 172.833,282.71 172.991,283.582 174.429,282.053 174.775,281.845 174.267,281.449 170.152,277.805 169.11,276.632 166.246,272.513 " fill="none" stroke-width="0.5" stroke="rgb(0,0,0)" />
	<polygon points="427.762,278.677 427.295,279.548 426.368,280.475 426.631,280.393 427.872,280.123 429.8,279.997 428.376,276.993 428.185,276.657 " fill="none" stroke-width="0.5" stroke="rgb(0,0,0)" />
	<polygon points="340.078,273.858 339.287,274.711 339.058,275.615 339.101,275.645 339.646,275.882 340.483,276.104 340.491,276.105 340.48,276 340.468,275.854 340.428,275.309 340.414,275.031 340.399,274.541 340.424,273.727 340.43,273.661 " fill="none" stroke-width="0.5" stroke="rgb(0,0,0)" />
	<polygon points="157.033,225.996 156.022,227.755 155.399,229.035 156.902,230.978 157.372,233.719 157.312,235.145 157.293,235.44 157.134,237.262 157.12,237.4 156.896,239.472 156.888,239.536 156.631,241.713 156.629,241.727 156.373,243.845 156.157,245.722 156.018,247.135 155.98,247.849 156,248.467 157.531,249.395 159.044,252.074 159.509,253.699 159.634,254.211 159.999,256.022 160.055,256.34 160.347,258.269 160.371,258.446 160.616,260.424 160.623,260.485 160.844,262.417 161.058,264.165 161.196,265.074 162.229,265.429 164.604,268.434 165.054,269.578 164.081,265.325 164.171,262.031 165.313,258.057 166.572,255.671 169.581,252.035 170.508,251.118 172.762,249.29 172.733,249.306 172.553,249.401 169.656,250.868 166.124,251.558 162.756,250.293 160.551,247.448 160.217,243.608 160.457,242.479 160.664,241.406 160.847,240.335 161.001,239.268 161.126,238.203 161.217,237.141 161.274,236.081 161.292,235.121 161.196,233.168 160.902,231.317 160.37,229.457 159.544,227.546 158.346,225.543 157.749,224.782 " fill="none" stroke-width="0.5" stroke="rgb(0,0,0)" />
	<polygon points="420.6,267.448 420.5,267.666 420.5,267.666 422.078,268.091 422.992,268.411 423.057,268.439 422.481,267.61 421.185,266.108 " fill="none" stroke-width="0.5" stroke="rgb(0,0,0)" />
	<polygon points="129.112,238.259 128.873,240.385 128.744,242.363 128.715,243.73 130.079,253.509 131.872,258.267 131.653,256.417 132.221,252.864 133.254,251.755 133.24,251.63 132.874,250.116 132.227,248.02 131.415,245.58 131.399,245.532 130.563,242.957 130.494,242.729 129.765,240.171 129.653,239.717 129.215,237.633 " fill="none" stroke-width="0.5" stroke="rgb(0,0,0)" />
	<polygon points="405.514,256.661 405.754,256.973 406.404,257.874 406.627,257.703 407.89,256.686 407.997,256.602 406.924,256.19 404.596,255.537 " fill="none" stroke-width="0.5" stroke="rgb(0,0,0)" />
	<polygon points="447.457,253.267 447.46,253.274 448.813,256.639 448.841,256.708 449.848,254.923 449.908,254.819 450.207,254.31 447.206,252.644 " fill="none" stroke-width="0.5" stroke="rgb(0,0,0)" />
	<polygon points="382.51,244.901 381.891,246.064 381.144,247.177 380.319,248.17 379.367,249.105 378.362,249.91 377.259,250.625 376.754,250.885 376.917,251.055 378.035,252.426 378.308,252.784 378.684,253.315 378.868,253.121 379.121,252.87 380.309,251.75 381.041,251.153 382.167,250.361 384.13,249.42 385.169,249.12 387.343,248.906 385.501,247.608 383.749,245.778 382.774,244.259 " fill="none" stroke-width="0.5" stroke="rgb(0,0,0)" />
	<polygon points="393.728,252.839 394.413,252.52 393.254,252.065 " fill="none" stroke-width="0.5" stroke="rgb(0,0,0)" />
	<polygon points="359.337,247.309 358.29,248.016 357.722,248.324 358.213,248.365 361.583,249.63 363.141,251.64 363.269,251.329 363.423,251.04 363.746,250.619 363.669,250.578 362.617,249.878 361.628,249.073 360.722,248.178 359.894,247.185 359.748,246.97 " fill="none" stroke-width="0.5" stroke="rgb(0,0,0)" />
	<polygon points="313.474,224.806 312.291,225.312 310.433,225.9 309.123,226.172 308.427,226.244 308.907,227.729 310.042,229.006 312.337,230.371 315.842,231.894 316.086,232.005 319.885,233.842 321.071,234.579 324.335,237.125 325.939,238.938 328.224,242.753 328.547,243.649 329.112,243.296 330.237,242.734 331.405,242.283 332.42,241.983 332.521,241.962 331.487,240.062 330.984,238.871 330.279,236.611 330.014,235.313 329.959,234.772 328.956,234.977 327.551,235.119 326.215,235.118 324.821,234.976 323.519,234.709 322.216,234.301 321.026,233.796 319.844,233.15 318.799,232.443 317.767,231.589 316.883,230.704 316.029,229.67 315.323,228.624 314.677,227.438 314.174,226.249 313.765,224.939 313.711,224.676 " fill="none" stroke-width="0.5" stroke="rgb(0,0,0)" />
	<polygon points="189.322,234.584 188.626,235.888 186.624,238.8 187.97,237.591 189.811,234.991 190.437,232.34 190.387,231.902 " fill="none" stroke-width="0.5" stroke="rgb(0,0,0)" />
	<polygon points="464.534,220.15 464.497,220.412 464.021,223.353 463.999,223.479 463.453,226.48 463.45,226.496 462.914,229.407 462.467,232.056 462.177,234.273 462.088,235.827 462.107,236.071 462.507,235.497 463.877,232.991 464.997,230.233 465.725,227.424 465.972,224.771 465.426,219.876 464.781,218.11 " fill="none" stroke-width="0.5" stroke="rgb(0,0,0)" />
	<polygon points="378.881,228.958 379.348,229.329 379.402,229.381 379.405,229.356 379.571,228.389 " fill="none" stroke-width="0.5" stroke="rgb(0,0,0)" />
	<polygon points="45.9965,228.008 46.2734,228.229 46.5563,228.522 46.7062,228.721 47.0317,227.627 " fill="none" stroke-width="0.5" stroke="rgb(0,0,0)" />
	<polygon points="85.2754,213.631 85.6067,213.891 86.697,214.974 87.1598,215.555 87.8565,216.63 88.2128,217.318 88.6231,218.296 88.875,219.064 89.0968,219.939 89.2463,220.76 89.3419,221.558 89.3913,222.406 89.3582,223.49 90.4752,222.771 91.212,222.407 93.0447,221.814 93.7736,221.692 95.7863,221.665 96.43,221.755 98.2016,222.265 98.8133,222.538 100.285,223.443 100.751,223.822 100.998,220.497 101.144,219.523 101.985,215.823 102.265,214.905 102.582,214.085 102.379,214.158 100.854,214.513 97.8559,214.843 96.4015,214.842 93.2122,214.486 91.7319,214.144 88.8677,213.125 87.5173,212.463 86.6381,211.899 " fill="none" stroke-width="0.5" stroke="rgb(0,0,0)" />
	<polygon points="442.797,210.583 442.436,210.713 438.126,212.124 437.615,212.269 432.494,213.499 431.896,213.614 425.874,214.485 425.24,214.545 423.643,214.62 425.928,215.731 427.256,216.587 430.95,219.651 431.977,220.72 433.914,223.25 434.883,220.995 435.515,219.852 438.038,216.198 438.665,215.423 441.65,212.254 442.234,211.705 444.287,209.998 " fill="none" stroke-width="0.5" stroke="rgb(0,0,0)" />
	<polygon points="133.586,218.654 130.642,219.585 132.296,221.126 132.831,223.071 132.992,222.164 133.09,221.711 133.747,219.099 133.899,218.593 " fill="none" stroke-width="0.5" stroke="rgb(0,0,0)" />
	<polygon points="64.2931,216.338 63.9848,216.593 65.2394,217.42 65.7563,217.888 66.8729,219.203 67.2727,219.822 67.8755,221.001 68.159,221.727 68.4421,221.154 71.0714,216.68 70.5135,216.584 68.4418,216.042 67.3076,215.631 65.4761,214.771 " fill="none" stroke-width="0.5" stroke="rgb(0,0,0)" />
	<polygon points="188.039,213.267 188.935,214.609 190.144,217.01 190.656,218.394 190.722,218.659 192.291,217.494 195.029,217.257 194.684,216.009 194.139,214.97 193.434,214.159 192.407,213.409 190.871,212.7 188.722,212.106 186.802,211.832 " fill="none" stroke-width="0.5" stroke="rgb(0,0,0)" />
	<polygon points="381.357,200.173 380.851,201.362 380.17,202.609 379.463,203.652 378.561,204.741 378.101,205.201 378.493,205.465 379.709,206.467 380.601,207.358 381.366,208.285 381.766,206.624 384.317,204.086 386.179,203.649 382.646,200.768 381.551,199.632 381.534,199.609 " fill="none" stroke-width="0.5" stroke="rgb(0,0,0)" />
	<polygon points="55.8299,205.142 55.2821,205.542 55.2208,205.582 56.1694,205.376 57.5732,205.057 57.3366,204.309 57.268,203.974 " fill="none" stroke-width="0.5" stroke="rgb(0,0,0)" />
	<polygon points="366.563,168.979 365.579,169.789 364.527,170.497 363.862,170.857 364.154,171.288 365.193,173.186 365.7,174.375 366.358,176.468 366.628,177.774 366.857,180.013 366.857,181.363 366.84,181.533 367.611,181.453 368.961,181.452 370.433,181.603 370.487,181.614 370.183,180.849 367.416,172.001 367.22,171.201 366.781,168.761 " fill="none" stroke-width="0.5" stroke="rgb(0,0,0)" />
	<polygon points="146.319,174.827 145.444,175.059 142.887,175.551 143.335,175.917 146.729,179.163 147.256,179.729 147.524,180.054 147.639,179.328 147.872,178.342 148.831,175.346 149.584,173.759 149.618,173.707 " fill="none" stroke-width="0.5" stroke="rgb(0,0,0)" />
	<polygon points="109.067,161.35 108.212,162.387 107.327,163.272 106.292,164.128 105.247,164.836 104.061,165.483 102.87,165.988 101.562,166.397 100.261,166.664 98.8593,166.807 97.7201,166.807 100.056,168.01 100.742,168.418 104.003,170.633 104.68,171.16 107.678,173.827 108.354,174.522 110.942,177.615 111.587,178.534 112.17,179.536 112.203,179.43 112.704,178.244 113.747,176.326 114.673,175.026 116.059,173.508 117.417,172.374 118.07,171.963 117.674,171.737 116.498,170.88 113.605,168.235 112.687,167.199 110.465,164.088 109.827,162.983 109.078,161.334 " fill="none" stroke-width="0.5" stroke="rgb(0,0,0)" />
	<polygon points="309.715,170.384 308.887,171.672 310.088,171.671 311.495,171.814 312.792,172.079 313.364,172.257 313.623,171.422 313.942,170.666 312.45,170.362 311.997,170.253 310.149,169.739 310.042,169.706 " fill="none" stroke-width="0.5" stroke="rgb(0,0,0)" />
	<polygon points="161.487,167.025 162.173,167.033 163.901,167.372 164.288,167.502 163.494,165.41 " fill="none" stroke-width="0.5" stroke="rgb(0,0,0)" />
	<polygon points="90.6709,164.712 90.9384,164.712 90.7269,164.569 " fill="none" stroke-width="0.5" stroke="rgb(0,0,0)" />
	<polygon points="344.524,163.324 344.094,163.682 344.878,163.436 345.129,163.384 344.968,162.866 " fill="none" stroke-width="0.5" stroke="rgb(0,0,0)" />
	<polygon points="423.121,142.963 421.901,144.422 419.16,146.874 418.023,147.691 414.408,149.748 413.466,150.189 412.428,150.58 417.133,151.003 418.412,151.247 424.831,153.144 426.05,153.641 431.736,156.652 432.706,157.28 435.02,159.085 434.382,157.877 433.875,156.615 432.029,150.177 432.018,146.63 431.447,146.48 430.468,146.139 428.789,145.401 427.619,144.736 426.259,143.769 425.025,142.629 424.046,141.46 " fill="none" stroke-width="0.5" stroke="rgb(0,0,0)" />
	<polygon points="354.886,136.467 354.928,136.949 354.985,138.069 354.964,139.026 354.337,145.627 354.172,146.439 354.372,146.377 355.665,146.115 357.006,145.98 358.328,145.98 359.668,146.115 360.961,146.378 362.209,146.765 363.4,147.267 364.53,147.879 365.582,148.589 366.566,149.4 366.962,149.796 367.433,149.221 367.491,149.167 368.59,148.42 365.187,146.425 364.178,145.698 358.841,141.029 358.043,140.197 354.857,136.234 " fill="none" stroke-width="0.5" stroke="rgb(0,0,0)" />
	<polygon points="129.975,135.105 129.446,135.441 129.112,135.688 128.765,135.995 125.523,137.557 125.491,137.553 125.783,138.173 126.274,139.64 126.752,141.933 126.803,142.207 127.198,144.602 127.432,145.581 127.625,145.346 128.143,144.492 128.706,143.204 129.003,142.299 129.318,141.208 129.587,140.125 129.808,139.061 129.98,138.029 130.102,137.041 130.173,136.111 130.196,135.261 130.188,134.99 " fill="none" stroke-width="0.5" stroke="rgb(0,0,0)" />
	<polygon points="102.506,139.594 102.351,140.352 102.87,140.514 104.059,141.018 105.245,141.665 106.29,142.372 107.165,143.095 107.17,143.072 107.628,141.306 107.746,140.938 104.884,140.213 102.567,138.993 " fill="none" stroke-width="0.5" stroke="rgb(0,0,0)" />
	<polygon points="327.363,141.859 327.33,142.185 328.202,141.969 327.36,141.131 " fill="none" stroke-width="0.5" stroke="rgb(0,0,0)" />
	<polygon points="314.994,124.023 313.59,124.402 312.36,124.976 311.297,125.707 310.419,126.55 309.751,127.434 309.315,128.265 308.906,129.558 307.521,131.659 307.644,131.74 308.69,132.299 309.668,132.696 310.629,132.964 311.638,133.125 312.813,133.184 313.129,133.175 313.621,133.136 314.209,133.072 314.865,132.987 315.55,132.895 315.604,132.888 316.259,132.805 316.434,132.785 317.023,132.726 317.387,132.7 317.851,132.68 317.183,131.902 316.941,131.572 316.411,130.717 316.226,130.362 315.846,129.475 315.716,129.101 315.479,128.219 315.403,127.833 315.292,126.977 315.267,126.585 315.289,125.485 315.367,124.742 315.517,123.978 " fill="none" stroke-width="0.5" stroke="rgb(0,0,0)" />
	<polygon points="118.158,132.566 118.17,132.567 118.165,132.554 " fill="none" stroke-width="0.5" stroke="rgb(0,0,0)" />
	<polygon points="94.1888,112.391 92.0121,114.412 91.5772,114.782 89.314,116.545 88.364,117.162 86.0259,118.408 84.1956,119.06 81.7943,119.533 80.1088,119.608 80.1165,119.676 80.3052,122.991 80.3143,123.513 80.2825,124.94 80.27,125.225 80.179,126.614 80.1556,126.884 80.1036,127.369 80.981,126.643 82.0269,125.934 83.213,125.287 84.4041,124.781 85.713,124.371 87.0156,124.104 88.4187,123.961 89.756,123.961 91.1611,124.104 92.462,124.37 93.7728,124.78 94.9628,125.285 95.9931,125.846 95.937,125.597 95.8338,125.021 95.0401,119.087 95.0226,118.944 94.3737,113.131 94.254,112.329 " fill="none" stroke-width="0.5" stroke="rgb(0,0,0)" />
	<polygon points="184.785,108.824 184.743,109.715 184.668,110.444 184.536,111.27 184.324,112.178 184.094,112.922 183.642,114.022 183.306,114.667 182.482,115.891 182.031,116.422 180.773,117.565 180.199,117.964 178.648,118.763 177.943,119.015 176.404,119.364 175.56,119.452 173.169,119.262 172.987,119.213 173.634,120.28 174.148,121.329 175.835,125.71 176.13,126.701 176.172,126.897 176.548,126.562 177.166,126.075 180.166,123.989 180.973,123.509 184.094,121.943 185.125,121.529 188.347,120.545 189.597,120.291 192.901,119.949 194.312,119.955 194.866,120.017 193.414,118.584 193.012,118.15 188.768,113.138 188.552,112.869 184.741,107.86 " fill="none" stroke-width="0.5" stroke="rgb(0,0,0)" />
	<polygon points="424.822,124.314 425.002,124.922 425.16,125.563 425.466,125.232 425.818,124.922 424.977,124.206 424.673,123.888 " fill="none" stroke-width="0.5" stroke="rgb(0,0,0)" />
	<polygon points="124.263,112.168 122.68,118.503 122.65,118.617 122.074,120.758 122.934,119.343 123.547,118.494 126.331,115.223 127.089,114.466 128.278,113.458 127.995,113.244 127.133,112.463 125.631,110.84 125.34,110.504 124.881,109.936 " fill="none" stroke-width="0.5" stroke="rgb(0,0,0)" />
	<polygon points="409.32,103.163 411.362,103.884 413.626,105.244 415.769,107.21 416.638,108.182 418.768,111.098 419.196,111.765 420.168,113.501 420.138,113.357 419.896,112.424 419.726,111.971 419.342,111.582 417.606,108.43 417.782,104.836 418.769,103.397 416.324,103.372 416.196,103.37 412.863,103.272 412.737,103.267 409.368,103.103 409.244,103.096 407.918,103.007 " fill="none" stroke-width="0.5" stroke="rgb(0,0,0)" />
	<polygon points="39.1694,107.824 40.6151,108.347 40.8127,107.672 40.8779,107.508 " fill="none" stroke-width="0.5" stroke="rgb(0,0,0)" />
	<polygon points="349.132,107.682 349.327,108.275 349.399,108.203 349.575,108.046 350.013,107.69 350.201,107.549 350.432,107.385 350.6,107.271 348.881,107.142 " fill="none" stroke-width="0.5" stroke="rgb(0,0,0)" />
	<polygon points="379.176,100.03 378.76,100.283 379.065,100.184 379.642,100.017 380.042,99.9149 380.611,99.7881 381.016,99.7111 381.574,99.6229 381.984,99.5712 382.53,99.5196 382.943,99.4936 383.475,99.4768 384.679,99.5492 386.645,99.8493 388.865,100.611 390.282,101.402 391.89,102.661 392.935,103.78 393.621,104.651 394.466,105.933 394.515,106.008 394.708,106.31 395.492,106.125 396.885,105.669 398.51,105.057 400.223,104.394 400.391,104.331 402.042,103.743 402.514,103.595 404.034,103.179 405.008,102.99 405.978,102.876 405.847,102.867 405.724,102.858 402.309,102.563 402.186,102.552 398.76,102.192 398.638,102.178 395.211,101.754 395.087,101.737 391.668,101.247 391.578,101.234 391.103,101.159 390.551,101.048 390.166,100.953 389.332,100.688 389.028,100.569 387.877,99.9806 387.646,99.8327 386.34,98.7323 386.175,98.5517 385.134,97.033 385.025,96.8154 384.699,95.8985 " fill="none" stroke-width="0.5" stroke="rgb(0,0,0)" />
	<polygon points="145.595,101.919 145.019,105.142 144.903,105.666 144.869,105.793 145.276,105.732 149.405,105.43 150.63,105.454 152.104,105.621 149.78,103.634 145.923,100.533 145.858,100.49 " fill="none" stroke-width="0.5" stroke="rgb(0,0,0)" />
	<polygon points="70.4179,93.0497 65.4031,95.689 63.8936,96.5218 64.8362,96.7977 68.2187,98.3574 69.767,99.3543 69.894,99.464 69.9229,99.2121 69.9349,99.1138 70.2229,96.8985 70.2242,96.889 70.5068,94.7393 70.7237,92.9135 " fill="none" stroke-width="0.5" stroke="rgb(0,0,0)" />
	<polygon points="396.309,80.4859 395.402,82.0896 395.779,81.6603 396.356,80.454 396.373,80.3379 " fill="none" stroke-width="0.5" stroke="rgb(0,0,0)" />
	<polygon points="126.125,63.7534 125.393,67.2233 125.303,67.5975 124.456,70.7046 123.941,72.0196 123.866,72.1634 126.322,73.7538 126.667,74.115 126.697,73.7829 126.778,73.1916 126.95,72.2533 127.203,71.2891 127.464,70.5311 128.19,69.0554 128.56,68.494 130.275,66.7243 130.771,66.3755 130.876,66.3312 130.524,65.8848 130.347,65.6497 128.618,63.2428 126.987,61.0825 126.813,60.893 " fill="none" stroke-width="0.5" stroke="rgb(0,0,0)" />
	<polygon points="104.758,60.3652 103.018,61.7827 101.168,63.3669 101.003,63.503 99.2219,64.931 98.589,65.3799 96.971,66.3899 96.2895,66.6866 96.4874,67.1888 96.6767,67.848 96.8691,68.7519 96.9768,69.5185 97.0359,70.1781 97.07,71.0481 97.0614,71.7308 97.0233,72.3232 98.1617,71.2983 100.416,69.9673 102.474,69.2539 106.067,69.0468 106.59,69.2868 106.341,66.3037 106.323,66.0275 106.18,62.5814 105.903,59.6902 105.877,59.5951 " fill="none" stroke-width="0.5" stroke="rgb(0,0,0)" />
	<polygon points="400.581,59.176 400.577,60.4062 400.517,61.0264 400.968,60.8529 401.222,60.7811 402.407,60.5603 402.67,60.5359 405.691,60.9635 406.801,61.3989 408.613,62.4709 409.992,63.6187 410.369,63.9583 411.997,65.5408 413.751,67.1872 415.532,68.6171 417.309,69.6961 419.056,70.3537 421.17,70.6204 421.392,70.6099 421.993,70.5188 422.511,70.3672 422.829,70.2097 422.956,70.1066 423.047,69.9815 423.219,69.5119 423.277,68.9597 422.848,67.5331 421.218,65.8508 417.63,63.728 412.835,61.7411 407.682,60.0326 402.998,58.5935 402.688,58.4897 400.445,57.6771 " fill="none" stroke-width="0.5" stroke="rgb(0,0,0)" />
	<polygon points="162.803,47.2079 162.67,47.5503 161.776,49.1465 161.674,49.2803 164.362,50.1942 164.543,50.2587 168.075,51.5753 168.08,51.5771 168.66,51.7937 166.013,49.125 163.056,46.1856 " fill="none" stroke-width="0.5" stroke="rgb(0,0,0)" />
	<polygon points="145.028,51.5066 145.449,50.9423 145.651,50.729 145.518,50.6934 144.642,50.4903 " fill="none" stroke-width="0.5" stroke="rgb(0,0,0)" />
	<polygon points="88.9964,48.5934 89.1338,49.0454 89.5702,48.4977 " fill="none" stroke-width="0.5" stroke="rgb(0,0,0)" />
	<polygon points="444.571,45.6343 444.478,47.1303 444.676,46.1212 444.834,44.4965 444.845,44.1021 " fill="none" stroke-width="0.5" stroke="rgb(0,0,0)" />
	<polygon points="396.622,39.6291 397.163,40.9279 397.873,43.3288 398.066,43.1728 400.06,42.1715 400.867,41.8315 403.839,40.805 404.271,40.6722 407.932,39.6821 408.239,39.6068 410.193,39.1778 406.899,37.4375 402.554,35.7907 398.551,34.6518 395.176,33.8071 394.683,33.6632 393.053,33.1177 " fill="none" stroke-width="0.5" stroke="rgb(0,0,0)" />
	<polygon points="69.9526,40.2685 69.9426,40.2747 68.7862,40.9955 70.8619,41.212 71.2172,41.246 71.6052,39.2343 " fill="none" stroke-width="0.5" stroke="rgb(0,0,0)" />
	<polygon points="153.151,28.591 152.182,29.2726 151.166,29.8599 149.796,30.4964 149.764,30.5107 149.799,30.5369 152.388,32.1539 153.816,33.0172 154.094,28.2133 155.007,26.3419 " fill="none" stroke-width="0.5" stroke="rgb(0,0,0)" />
	<polygon points="81.9937,28.3447 81.1897,30.5072 80.5363,31.5358 80.6376,31.4942 80.8499,31.4114 83.9955,30.2464 85.245,29.7395 85.1514,29.6987 84.2217,29.1974 82.2318,27.1903 " fill="none" stroke-width="0.5" stroke="rgb(0,0,0)" />
</svg>
