<?xml version="1.0" standalone="no" ?>
<!DOCTYPE svg PUBLIC "-//W3C//DTD SVG 1.1//EN" "http://www.w3.org/Graphics/SVG/1.1/DTD/svg11.dtd">
<svg width="500px" height="500px" xmlns="http://www.w3.org/2000/svg" version="1.1" >
	<polygon points="480.823,28.3479 480.672,28.492 480.077,29.2363 479.597,30.0195 479.241,30.7853 479.016,31.4525 478.919,31.9014 478.911,32.0018 479.045,33.756 479.45,35.7245 480.13,38.1237 480.823,40.4299 480.823,74.1114 478.58,79.4181 477.624,81.0007 472.309,87.4726 471.103,88.6063 464.069,93.6906 462.913,94.356 457.872,96.5998 457.937,96.6184 459.279,97.1739 460.152,97.6566 460.18,97.6767 461.315,96.4855 465.874,95.7323 468.36,96.2428 469.492,96.586 471.587,97.4381 472.757,98.0611 474.481,99.2201 475.542,100.114 476.911,101.546 477.734,102.609 478.767,104.279 479.308,105.371 480.023,107.244 480.318,108.258 480.734,110.299 480.823,110.973 480.823,115.389 480.172,119.584 479.695,121.21 478.324,124.301 479.156,124.764 480.823,126.136 480.823,186.829 479.993,188.539 477.819,191.055 476.24,192.129 472.861,193.241 471.073,193.06 468.405,192.404 472.688,195.963 473.357,196.607 477.359,201.049 478.073,202.005 480.823,206.511 480.823,242.017 477.614,247.48 477.295,247.971 473.11,253.807 473.031,253.915 472.364,254.806 472.674,254.74 474.673,254.637 476.142,254.79 477.637,255.129 478.896,255.577 480.395,256.344 480.823,256.64 480.823,281.286 480.316,290.326 478.316,293.434 477.908,293.997 475.331,297.186 474.809,297.757 471.851,300.631 470.42,301.398 471.58,302.917 472.172,303.847 474.087,307.514 474.466,308.394 475.911,312.574 476.14,313.422 476.612,315.795 473.11,329.62 467.07,347.047 459.27,364.67 457.044,368.748 453.956,370.435 450.405,370.226 447.505,368.167 446.189,365.242 445.11,359.012 443.084,355.813 439.818,353.27 438.057,352.388 441.118,355.787 441.94,356.929 444.987,362.32 445.54,363.606 447.518,370.069 447.773,371.358 448.477,378.92 448.423,380.541 447.661,385.29 438.331,399.399 425.161,415.952 410.17,431.593 403.199,437.582 401.74,437.337 400.056,436.808 398.563,436.103 397.438,435.423 396.023,434.358 395.249,433.671 394.333,432.717 394.417,433.054 394.589,434.121 394.837,437.398 394.758,438.999 393.644,445.352 393.443,445.963 393.345,446.047 374.668,459.037 354.126,470.285 331.702,479.516 326.702,480.942 325.927,480.8 322.809,479.913 321.609,479.439 318.946,478.062 317.841,477.339 315.643,475.553 314.713,474.626 312.987,472.512 312.278,471.441 311.034,469.082 310.559,467.918 309.806,465.395 309.567,464.174 309.314,461.568 309.298,460.524 309.446,458.264 307.627,462.473 307.041,463.538 304.275,467.611 302.884,469.09 300.739,470.747 301.024,470.709 301.74,470.63 302.225,470.595 303.089,470.565 303.827,470.581 304.698,470.651 305.968,470.882 306.638,471.075 308.129,471.717 308.622,472.008 310.035,473.135 310.38,473.5 311.374,474.879 311.597,475.293 312.113,476.563 312.239,477.002 312.437,477.962 312.493,478.401 312.543,479.02 312.556,479.435 312.335,481.319 311.937,482.791 310.768,485.112 310.385,485.596 307.382,486.452 281.151,490.817 269.579,491.44 268.424,490.778 267.556,490.18 265.729,488.688 264.957,487.942 264.098,486.961 262.038,488.01 261.675,488.181 257.51,489.986 257.134,490.135 252.709,491.732 252.306,491.863 251.029,492.231 225.548,490.902 199.887,486.773 185.57,482.827 185.058,482.51 184.717,482.284 179.958,478.903 175.941,476.082 172.724,474.272 170.585,473.656 167.45,473.345 163.287,473.115 162.895,473.081 158.143,472.525 157.293,472.367 154.569,471.67 153.907,471.407 137.667,462.822 137.361,462.571 130.725,456.138 128.953,453.054 129.068,449.933 127.41,450.082 126.136,450.07 116.202,448.993 115.039,448.212 98.2672,434.295 83.2685,419.161 72.4924,406.042 71.8563,400.951 71.827,399.638 72.1399,395.719 71.3415,396.055 67.8302,395.488 65.9481,394.146 64.1581,392.305 61.4252,390.405 58.5824,386.23 48.8916,368.927 40.9666,351.394 35.3594,335.453 35.7577,331.69 36.0119,330.457 38.9802,320.896 39.3475,319.972 43.2891,311.923 41.6788,312.359 38.0587,312.285 36.0896,311.665 33.4651,310.074 31.6465,308.255 30.5617,306.814 28.9282,303.858 28.4869,302.872 28.0378,301.591 27.7694,299.888 26.8905,283.906 26.8905,243.396 26.9278,243.213 27.0569,242.691 28.5031,237.743 28.7799,236.978 30.4415,233.16 31.1901,231.872 33.0285,229.413 33.7758,228.819 33.1376,228.657 30.9057,227.762 29.3294,226.853 27.4124,225.352 26.8905,224.82 26.8905,197.05 27.2374,196.975 26.8905,195.429 26.8905,186.261 27.2901,185.431 26.9008,184.892 26.8905,184.875 26.8905,173.717 27.2645,171.75 27.8951,168.157 27.972,167.784 28.9481,163.667 29.1529,162.977 30.725,158.594 31.1384,157.675 33.5649,153.242 34.2577,152.222 37.7971,147.954 38.3955,147.369 38.2354,147.354 37.0275,147.123 34.4921,146.383 33.3288,145.916 31.0426,144.73 29.9761,144.035 27.9904,142.441 27.0709,141.537 26.8905,141.321 26.8905,113.719 27.0492,113.534 28.6453,111.94 29.3986,111.296 31.3181,109.894 32.139,109.384 34.3919,108.209 34.9138,108.102 34.8895,108.101 34.021,107.989 33.3875,107.864 32.3759,107.576 31.8116,107.365 30.6838,106.811 30.1989,106.511 29.0594,105.615 28.6643,105.225 27.6933,104 27.3983,103.517 26.8905,102.408 26.8905,95.7672 27.8033,92.9638 28.5571,91.4019 31.9407,86.2875 32.0283,86.1685 30.4402,86.2322 29.8413,86.1386 27.801,85.4565 27.3078,85.1933 26.8905,84.8797 26.8905,62.6654 27.2842,62.1707 27.9876,61.4321 28.6491,60.8435 28.4148,60.794 26.8905,59.9476 26.8905,43.8957 27.5621,43.2385 28.2627,42.6443 32.1534,39.7951 32.467,39.5794 36.9271,36.7013 37.0124,36.6471 40.317,34.5873 39.3121,34.3386 39.2779,34.33 34.9785,33.2408 34.6243,33.1402 30.8737,31.9586 29.9013,31.5627 27.2485,30.2212 26.8905,29.8981 26.8905,19.5757 38.3822,19.4875 49.8739,19.3993 61.3656,19.3111 72.8572,19.223 78.539,19.1794 80.4929,21.1738 80.7425,21.6291 81.2561,19.7893 81.5472,19.2188 81.6043,19.1558 84.3489,19.1348 95.8406,19.0466 107.332,18.9584 113.899,18.908 115.34,20.5133 115.494,20.6908 116.737,22.1808 117.47,22.8652 117.868,23.0699 118.805,23.2048 119.692,23.0778 120.153,22.8476 120.972,22.128 122.299,20.6644 122.465,20.4878 124.085,18.8299 130.316,18.7821 141.807,18.6939 153.299,18.6057 154.958,18.593 154.989,18.6235 155.229,19.0156 156.171,22.4451 155.606,25.0145 155.239,25.8335 153.065,28.4683 152.096,29.1499 151.103,29.7239 149.733,30.3603 149.589,30.425 149.468,30.4777 149.715,30.661 152.309,32.2817 153.949,33.2729 153.941,33.2506 154.228,28.2791 155.281,26.1218 157.304,23.7198 160.219,21.6177 161.355,20.9626 165.764,18.9873 166.43,18.732 167.155,18.4994 176.282,18.4294 187.774,18.3412 210.757,18.1648 210.74,26.7816 209.048,28.6381 206.768,30.1671 207.304,30.2026 208.083,30.302 209.255,30.5246 210.594,30.934 210.732,30.9932 210.732,31.0636 210.706,43.9624 210.683,55.6954 209.014,56.3307 207.997,56.5117 205.976,56.55 205.058,56.422 209.39,61.3884 209.912,62.0747 210.668,63.2212 210.656,69.76 210.63,82.6588 210.629,83.3951 210.45,83.5141 209.368,84.0928 208.498,84.4566 207.444,84.7943 206.441,85.0231 205.459,85.1686 204.331,85.248 203.225,85.2307 199.243,84.8254 198.464,84.6973 196.243,84.1913 198.274,85.6567 198.456,85.7928 203.259,89.5216 203.43,89.6591 207.726,93.2344 207.944,93.4244 210.604,95.8488 210.579,108.456 210.554,121.355 210.552,122.406 209.861,123.004 208.696,123.768 206.966,124.493 207.641,124.962 208.785,125.98 210.541,127.963 210.503,147.153 210.478,160.052 210.455,171.642 209.572,174.197 209.14,175.177 207.752,177.725 207.137,178.652 205.356,180.894 204.543,181.745 202.401,183.611 201.379,184.339 198.911,185.758 198.252,186.051 198.348,186.084 201.111,187.296 202.166,187.882 204.565,189.526 205.561,190.369 207.534,192.414 208.386,193.514 209.872,195.931 210.405,197.065 210.401,198.748 210.376,211.647 210.372,213.418 209.84,214.692 209.683,215.04 208.999,216.441 208.841,216.742 208.079,218.114 207.924,218.379 207.098,219.711 204.464,222.1 203.996,222.184 204.939,222.898 205.426,223.306 208.162,225.837 208.629,226.316 210.379,228.31 210.438,235.84 210.602,246.657 210.899,256.963 211.074,260.487 209.53,262.497 209.386,262.678 207.172,265.357 205.545,267.521 204.809,268.897 204.699,269.456 204.811,270.029 205.333,270.876 206.762,272.321 209.007,274.212 209.119,274.308 211.588,276.487 212.185,277.087 212.264,277.178 213.138,284.482 214.519,292.41 216.045,298.594 215.555,299.795 215.554,299.797 215.962,299.739 216.403,299.934 218.563,306.2 221.336,311.994 224.685,317.011 228.665,321.215 233.33,324.575 238.737,327.056 244.939,328.626 247.417,328.845 247.978,329.587 248.641,330.671 250.15,333.796 250.553,334.861 251.466,338.122 251.649,339.007 251.84,340.441 255.785,333.041 256.458,332.024 259.097,328.754 259.171,328.749 265.518,327.271 271.013,324.853 275.719,321.532 279.698,317.343 283.01,312.324 283.887,310.444 285.453,309.95 284.99,309.59 284.679,308.744 285.72,306.511 287.888,299.942 288.195,298.616 288.693,297.988 289.302,297.019 289.791,295.968 290.177,294.734 290.444,293.204 290.551,291.21 290.526,290.277 290.447,289.233 290.326,288.112 290.315,288.022 290.848,284.68 291.763,276.06 292.055,271.745 292.347,271.283 293.245,270.163 294.109,269.302 295.311,268.359 296.323,267.744 297.692,267.118 298.835,266.749 300.132,266.479 299.832,266.298 298.97,265.673 294.883,262.165 293.622,260.702 292.69,259.219 292.778,257.028 293,246.688 293.115,235.848 293.158,228.895 294.079,226.912 294.199,226.667 295.832,223.506 296.498,222.8 295.333,221.835 294.479,220.98 293.255,219.502 293.175,219.383 293.159,211.647 293.137,200.389 293.253,200.217 294.477,198.737 295.329,197.883 296.807,196.657 297.817,195.969 299.507,195.039 300.058,194.803 299.521,194.266 298.665,193.23 297.975,192.21 297.327,191.023 296.834,189.86 296.425,188.551 296.164,187.279 296.021,185.876 296.021,184.567 296.164,183.166 296.425,181.893 296.835,180.585 297.328,179.423 297.976,178.237 298.667,177.216 299.522,176.181 300.386,175.318 301.415,174.468 299.907,174.387 298.422,173.755 296.558,172.547 295.146,171.235 294.212,170.151 293.073,168.487 293.056,160.052 293.004,134.254 292.998,131.366 293.86,130.022 295.985,128.154 295.928,127.972 295.72,127.248 295.649,126.978 295.47,126.233 295.407,125.942 295.26,125.181 295.208,124.868 295.098,124.094 295.059,123.754 294.991,122.973 294.969,122.603 294.945,121.817 294.965,121.075 295.215,118.132 295.397,117.065 296.166,114.089 296.544,113.023 297.858,110.146 298.471,109.083 300.357,106.435 301.242,105.432 303.727,103.144 304.87,102.304 307.981,100.508 309.285,99.9363 310.477,99.5644 310.401,99.2168 310.269,98.5156 310.21,98.1357 310.008,96.5388 309.478,97.0073 309.437,97.0436 307.035,99.1301 306.832,99.299 304.555,101.119 304.036,101.494 302.049,102.781 300.503,103.513 298.973,104.001 296.965,104.307 296.728,104.305 296.37,104.292 296.179,104.28 295.217,104.146 295.066,104.114 293.289,103.442 293.175,103.379 292.942,103.178 292.911,87.8403 293.177,87.324 293.254,87.1787 294.856,84.2559 296.414,81.4042 296.476,81.2824 296.066,81.2384 295.659,81.1814 293.755,80.8531 292.896,80.6072 292.875,69.76 292.863,63.6593 293.107,63.4826 295.243,62.0178 296.273,61.2842 294.468,60.4705 294.068,60.2731 292.854,59.6213 292.822,43.4136 293.72,42.9052 293.907,42.8036 295.806,41.81 296.308,41.5346 295.384,40.1125 293.439,37.2614 293.415,37.2265 292.808,36.3233 292.797,31.0636 292.771,18.1648 301.085,18.1114 301.209,18.1634 301.671,18.3787 304.957,20.0713 305.088,20.1409 308.534,22.0177 309.478,22.5159 309.499,21.9521 309.539,21.431 309.65,20.496 309.748,19.9088 309.92,19.1019 310.106,18.4168 310.227,18.0526 316.278,18.0137 326.99,17.9449 327.608,18.5672 327.697,18.6453 328.89,18.3002 329.95,17.9258 339.784,17.8626 351.538,17.787 363.291,17.7115 373.891,17.6433 378.487,19.7518 379.613,20.4146 385.823,24.9729 386.849,25.9117 387.327,26.4547 387.701,23.2194 388.765,21.4923 389.391,20.7642 391.53,19.1363 393.29,18.3057 394.073,17.9971 395.612,17.5037 410.304,17.4092 422.057,17.3337 433.81,17.2581 438.542,17.2277 440.807,18.4513 442.094,19.3659 444.12,21.2176 445.395,22.8258 445.738,23.4375 445.779,23.3319 446.851,21.2452 447.586,20.1205 449.028,18.3492 449.993,17.3914 450.291,17.1522 457.317,17.107 469.07,17.0314 480.823,16.9559 " fill="none" stroke-width="0.5" stroke="rgb(0,0,0)" />
	<polygon points="191.173,444.241 191.485,445.16 192.209,447.97 192.652,448.1 194.131,448.426 195.737,448.684 197.295,448.846 198.594,448.897 200.332,448.801 201.988,448.51 203.478,448.022 204.727,447.36 205.738,446.527 206.576,445.442 207.279,443.899 207.799,441.5 202.801,441.873 201.815,441.871 195.596,441.382 194.505,441.201 189.312,439.874 " fill="none" stroke-width="0.5" stroke="rgb(0,0,0)" />
	<polygon points="161.293,431.062 160.718,432.181 157.719,436.838 156.805,437.959 152.61,442.059 151.378,443.002 147.11,445.519 148.392,445.437 152.325,444.595 155.407,443.338 157.726,441.774 159.434,439.935 160.67,437.74 161.469,435.044 161.783,431.521 161.78,431.327 161.763,430.857 161.735,430.357 161.709,430.009 " fill="none" stroke-width="0.5" stroke="rgb(0,0,0)" />
	<polygon points="326.973,415.572 325.69,416.158 316.185,419.29 314.821,419.581 313.042,419.763 313.334,420.159 314.173,421.694 314.667,422.992 314.928,423.856 315.259,425.308 315.31,425.557 315.564,426.918 315.7,427.493 315.908,427.641 315.941,427.665 316.849,428.318 317.253,428.635 318.12,429.37 318.841,430.088 319.574,430.942 320.443,432.247 320.612,432.585 321.174,431.942 321.341,431.758 322.06,430.995 322.292,430.761 323.007,430.076 323.333,429.785 324.042,429.193 324.504,428.841 325.204,428.356 325.868,427.954 326.558,427.59 327.504,427.184 328.182,426.955 328.896,426.794 327.845,424.797 327.495,423.555 327.254,421.809 327.254,415.405 " fill="none" stroke-width="0.5" stroke="rgb(0,0,0)" />
	<polygon points="377.893,417.615 377.891,417.766 377.874,418.489 377.866,418.653 379.535,418.203 381.105,418.387 382.463,418.698 384.096,419.262 385.304,419.826 386.915,420.792 387.969,421.58 389.475,422.967 389.625,423.136 389.537,422.453 389.496,421.226 389.526,420.752 389.657,419.798 389.765,419.297 389.804,419.171 388.962,419.082 387.797,418.848 384.237,417.783 383.326,417.434 379.988,415.854 379.247,415.442 377.893,414.568 " fill="none" stroke-width="0.5" stroke="rgb(0,0,0)" />
	<polygon points="243.993,411.793 243.214,416.769 242.665,418.546 240.665,422.744 242.508,420.243 244.624,415.948 245.916,411.407 245.192,411.302 244.044,410.987 " fill="none" stroke-width="0.5" stroke="rgb(0,0,0)" />
	<polygon points="165.063,413.614 165.067,414.555 164.747,419.239 164.618,420.152 164.313,421.577 164.44,421.435 167.854,420.438 170.706,421.088 171.613,421.529 171.485,420.723 171.431,419.15 171.464,418.783 171.712,417.492 171.808,417.173 172.411,415.785 172.568,415.514 173.534,414.246 173.751,414.024 174.927,413.077 175.091,412.974 173.247,412.211 172.719,411.964 170.083,410.582 169.578,410.288 167.151,408.721 166.645,408.358 164.523,406.678 " fill="none" stroke-width="0.5" stroke="rgb(0,0,0)" />
	<polygon points="258.33,398.891 258.387,399.714 258.374,400.763 258.278,401.775 258.041,403.001 257.765,403.931 257.285,405.109 256.846,405.942 256.137,407.012 256.075,407.089 257.486,407.637 258.028,407.878 260.887,409.305 261.306,409.534 264.089,411.19 264.439,411.414 267.056,413.21 267.376,413.444 269.74,415.29 270.066,415.562 272.089,417.367 272.468,417.734 272.749,418.03 272.928,417.995 274.213,417.773 274.481,417.733 275.815,417.56 276.07,417.533 277.453,417.409 277.693,417.392 279.125,417.318 279.351,417.31 280.833,417.286 281.09,417.287 283.221,417.336 283.51,417.349 283.874,417.374 279.516,415.948 278.236,415.369 269.63,410.275 268.54,409.464 261.439,402.908 260.591,401.954 258.32,398.82 " fill="none" stroke-width="0.5" stroke="rgb(0,0,0)" />
	<polygon points="363.094,399.786 361.797,399.783 361.905,399.801 364.997,400.463 365.736,400.668 367.313,401.207 367.496,398.801 " fill="none" stroke-width="0.5" stroke="rgb(0,0,0)" />
	<polygon points="349.059,395.083 348.464,396.077 345.753,399.799 347.679,399.464 348.424,399.379 352.932,399.127 353.524,399.121 357.317,399.258 357.831,399.297 358.87,399.418 356.9,398.557 355.823,397.822 354.603,396.741 353.624,395.622 352.958,394.711 352.102,393.293 351.708,392.531 351.036,390.988 " fill="none" stroke-width="0.5" stroke="rgb(0,0,0)" />
	<polygon points="218.15,387.289 216.9,387.526 207.084,388.398 205.807,388.384 200.007,387.744 200.279,388.111 200.765,388.873 202.603,392.259 203.001,393.147 204.143,396.312 204.395,397.319 206.903,393.611 208.39,392.054 212.345,389.105 214.955,387.946 220.641,386.828 222.38,386.725 223.425,386.805 224.172,386.907 225.37,387.142 225.325,386.844 225.243,385.824 225.243,385.203 " fill="none" stroke-width="0.5" stroke="rgb(0,0,0)" />
	<polygon points="308.673,393.285 308.191,393.426 304.978,394.236 304.387,394.355 300.679,394.928 300.025,394.995 295.783,395.212 295.002,395.205 293.227,395.08 297.553,396.25 304.333,396.838 307.636,396.701 310.614,396.308 311.923,395.998 310.703,394.3 310.448,393.468 310.402,392.703 " fill="none" stroke-width="0.5" stroke="rgb(0,0,0)" />
	<polygon points="246.679,367.523 246.026,368.607 241.96,374.074 241.046,375.064 242.011,375.557 242.896,376.149 243.955,377.035 244.698,377.807 245.118,378.334 245.193,378.33 246.125,378.356 247.371,378.482 248.671,378.753 247.582,374.734 247.383,373.623 246.811,367.244 " fill="none" stroke-width="0.5" stroke="rgb(0,0,0)" />
	<polygon points="145.77,370.982 146.847,371.821 151.952,376.746 151.079,375.397 149.323,373.473 147.027,371.638 144.121,369.927 143.952,369.854 " fill="none" stroke-width="0.5" stroke="rgb(0,0,0)" />
	<polygon points="83.7107,366.199 83.4371,366.242 82.5955,366.353 81.82,366.408 79.5066,366.432 78.2255,366.318 77.9471,366.264 78.3851,366.901 79.4488,369.592 80.5011,376.54 81.0413,375.891 81.7086,375.201 84.2172,372.966 85.0539,372.335 87.5331,370.763 88.5137,370.271 87.7023,369.705 86.2166,368.44 85.3698,367.568 84.2017,366.113 " fill="none" stroke-width="0.5" stroke="rgb(0,0,0)" />
	<polygon points="171.089,371.189 171.818,373.666 172.114,374.42 172.23,374.437 172.523,374.462 172.833,374.471 173.286,374.465 173.8,374.448 174.15,374.432 173.479,373.733 170.916,370.539 " fill="none" stroke-width="0.5" stroke="rgb(0,0,0)" />
	<polygon points="353.421,364.578 355.456,366.628 356.218,370.394 355.926,373.227 356.848,372.791 357.515,372.52 359.084,371.983 359.588,371.833 361.28,371.403 362.631,370.954 362.234,370.796 360.358,369.828 359.271,369.12 357.68,367.839 356.753,366.922 355.472,365.37 354.751,364.293 354.395,363.624 " fill="none" stroke-width="0.5" stroke="rgb(0,0,0)" />
	<polygon points="323.854,367.15 323.192,368.2 322.226,369.447 321.638,370.067 323.495,370.024 327.053,369.793 330.89,369.379 331.075,369.35 330.696,369.244 329.496,368.773 326.88,367.432 325.749,366.692 324.569,365.731 " fill="none" stroke-width="0.5" stroke="rgb(0,0,0)" />
	<polygon points="277.611,364.795 276.077,367.514 277.24,367.247 277.479,366.026 277.717,365.143 277.928,364.537 " fill="none" stroke-width="0.5" stroke="rgb(0,0,0)" />
	<polygon points="295.26,357.162 293.875,357.786 290.489,358.856 291.967,359.657 293.836,361.043 293.977,361.151 296.301,362.976 297.54,363.821 297.435,363.457 297.211,362.273 297.067,360.736 297.046,359.829 297.099,358.722 297.143,358.215 297.281,357.125 297.334,356.781 297.512,355.806 " fill="none" stroke-width="0.5" stroke="rgb(0,0,0)" />
	<polygon points="118.518,353.663 117.547,354.225 116.524,354.703 116.545,356.466 116.435,357.736 116.023,359.925 115.653,361.179 114.837,363.171 114.63,363.559 115.273,363.38 116.419,363.171 120.67,362.786 121.959,362.799 125.078,363.143 124.052,362.552 123.068,361.855 121.971,360.913 120.86,359.675 120.193,358.705 119.375,357.049 119.044,356.032 118.749,354.566 118.665,353.56 " fill="none" stroke-width="0.5" stroke="rgb(0,0,0)" />
	<polygon points="394.588,340.276 394.394,340.438 393.246,341.361 392.679,341.768 391.657,342.421 390.017,343.17 389.182,343.418 386.548,343.634 386.36,343.61 385.798,343.467 386.329,344.572 387.458,347.771 387.785,349.19 388.089,351.865 388.397,351.509 389.132,350.786 393.744,346.922 395.291,345.961 399.092,344.29 399.018,344.219 398.531,343.695 397.254,342.156 397.108,341.974 395.76,340.225 395.31,339.648 " fill="none" stroke-width="0.5" stroke="rgb(0,0,0)" />
	<polygon points="57.7608,342.352 61.1168,347.749 62.7056,349.322 62.6897,347.771 62.8347,346.343 63.3261,344.068 63.7521,342.776 64.6806,340.719 65.3053,339.632 65.6352,339.168 62.775,338.555 61.9049,338.303 59.4362,337.397 58.3435,336.874 56.994,336.065 " fill="none" stroke-width="0.5" stroke="rgb(0,0,0)" />
	<polygon points="165.568,295.894 164.286,296.572 163.382,296.964 162.111,297.404 160.848,297.703 159.665,297.859 158.284,297.893 157.927,297.863 156.839,297.677 156.433,297.572 155.35,297.184 155.19,297.11 157.732,301.014 158.093,301.645 162.151,309.748 162.695,311.306 164.234,318.611 164.347,320.512 164.095,323.352 163.903,324.443 163.153,327.257 162.776,328.3 161.539,330.98 160.958,331.988 159.244,334.425 158.425,335.376 156.244,337.461 155.17,338.29 152.533,339.914 151.238,340.525 150.815,340.67 151.859,341.105 152.718,341.542 155.178,343.033 155.949,343.581 158.298,345.527 158.922,346.118 161.181,348.563 161.557,349.02 161.134,345.305 161.096,344.365 161.154,342.581 161.184,342.141 161.363,340.377 161.435,339.87 161.741,338.193 161.888,337.564 162.327,336.04 162.63,335.208 163.209,333.906 163.855,332.776 164.579,331.762 165.954,330.353 166.83,329.696 169.278,328.563 170.311,328.329 170.646,328.309 167.719,323.877 167.087,322.652 164.787,316.718 164.404,315.211 163.589,308.876 163.546,307.709 163.714,304.551 163.788,303.867 164.28,300.82 164.423,300.156 165.218,297.232 165.426,296.601 165.739,295.788 " fill="none" stroke-width="0.5" stroke="rgb(0,0,0)" />
	<polygon points="317.245,341.954 316.206,342.455 315.217,342.836 314.783,342.963 314.868,343.001 315.873,343.557 317.146,344.42 317.21,344.02 317.765,341.633 " fill="none" stroke-width="0.5" stroke="rgb(0,0,0)" />
	<polygon points="416.488,332.019 415.47,332.213 413.683,332.406 413.457,332.427 412.353,332.507 412.41,332.831 412.665,334.251 412.683,334.352 412.907,335.721 412.942,335.963 413.1,337.233 413.141,337.689 413.201,338.817 413.207,339.346 413.197,339.679 413.167,340.149 413.132,340.484 413.031,341.142 412.964,341.464 412.861,341.823 418.049,342.265 419.135,342.452 422.264,343.271 419.902,340.589 418.459,337.778 417.218,332.405 417.179,331.829 " fill="none" stroke-width="0.5" stroke="rgb(0,0,0)" />
	<polygon points="126.856,336.247 126.996,337.645 126.976,339.884 126.855,341.009 128.425,340.246 129.239,339.917 131.418,339.205 131.628,339.15 131.225,338.917 130.159,338.146 128.253,336.444 127.411,335.532 126.43,334.241 " fill="none" stroke-width="0.5" stroke="rgb(0,0,0)" />
	<polygon points="380.154,334.372 379.234,335.605 379.682,335.925 380.069,336.261 380.11,335.173 380.309,333.933 " fill="none" stroke-width="0.5" stroke="rgb(0,0,0)" />
	<polygon points="386.107,309.066 385.077,310.525 384.082,312.261 383.2,314.161 382.565,315.903 382.355,316.99 382.152,319.2 381.977,322.157 381.79,325.341 381.776,325.522 381.514,328.527 381.458,328.986 381.147,330.925 381.386,330.226 381.532,329.839 382.569,327.339 382.592,327.282 383.746,324.574 384.83,321.818 385.711,319.108 386.282,316.542 386.496,313.964 386.472,312.659 386.364,310.927 386.15,309.202 386.118,309.054 " fill="none" stroke-width="0.5" stroke="rgb(0,0,0)" />
	<polygon points="322.015,325.614 321.134,326.214 321.512,326.768 322.208,328.121 322.344,327.525 322.516,325.545 322.499,325.093 322.488,325 " fill="none" stroke-width="0.5" stroke="rgb(0,0,0)" />
	<polygon points="121.658,324.464 120.574,324.972 120.959,325.293 122.503,326.847 123.267,327.775 123.37,327.927 123.131,327.115 122.901,325.936 122.692,323.841 " fill="none" stroke-width="0.5" stroke="rgb(0,0,0)" />
	<polygon points="74.2683,311.798 73.332,315.389 73.0206,318.271 73.0515,319.365 73.1809,320.591 73.4199,321.719 73.8039,322.834 74.4014,324.033 74.9381,324.834 75.4718,323.744 76.5762,321.946 77.3286,320.952 78.7463,319.413 79.6759,318.582 81.3769,317.334 82.4354,316.704 84.3897,315.781 85.5195,315.371 85.6068,315.348 84.3187,314.967 83.1766,314.506 81.5826,313.679 80.5306,312.995 79.1016,311.854 78.1802,310.954 76.9715,309.51 76.2356,308.423 75.7855,307.585 " fill="none" stroke-width="0.5" stroke="rgb(0,0,0)" />
	<polygon points="344.387,310.07 343.792,311.49 343.249,312.448 342.235,313.79 341.446,314.592 340.532,315.315 341.468,315.844 346.328,319.156 347.179,319.85 351.194,323.734 351.263,323.524 351.838,322.214 352.06,321.757 352.873,320.241 352.981,320.047 353.048,319.933 352.647,319.838 352.373,319.767 350.524,319.241 349.615,318.907 348.308,318.312 345.688,316.128 345.192,315.415 344.043,312.049 344.502,309.664 " fill="none" stroke-width="0.5" stroke="rgb(0,0,0)" />
	<polygon points="96.7221,314.582 95.5057,314.958 96.1636,315.119 98.2059,315.845 98.5145,315.99 98.2146,315.118 97.943,314.049 " fill="none" stroke-width="0.5" stroke="rgb(0,0,0)" />
	<polygon points="428.313,312.799 428.306,313.008 428.276,313.612 428.719,313.428 430.687,312.83 430.565,312.82 429.662,312.736 429.602,312.73 428.668,312.635 428.317,312.6 " fill="none" stroke-width="0.5" stroke="rgb(0,0,0)" />
	<polygon points="403.486,305.855 404.795,307.823 406.403,309.761 408.213,311.561 409.494,312.617 408.39,310.826 406.023,307.688 403.532,305.284 403.068,305.016 " fill="none" stroke-width="0.5" stroke="rgb(0,0,0)" />
	<polygon points="436.818,312.237 436.605,312.321 437.009,312.336 437.012,312.138 " fill="none" stroke-width="0.5" stroke="rgb(0,0,0)" />
	<polygon points="131.017,300.314 131.152,301.176 131.678,307.146 131.673,308.331 131.619,308.886 133.904,308.628 134.084,308.645 135.728,309.025 135.878,309.081 137.458,309.998 135.746,306.446 131.18,298.794 130.372,297.47 " fill="none" stroke-width="0.5" stroke="rgb(0,0,0)" />
	<polygon points="345.848,306.107 345.005,306.097 345.026,306.478 344.925,307.723 344.729,308.807 344.826,308.597 346.917,306.053 346.941,306.036 " fill="none" stroke-width="0.5" stroke="rgb(0,0,0)" />
	<polygon points="311.998,304.268 308.407,306.68 310.996,307.015 311.587,307.12 313.958,307.655 313.481,306.599 312.975,304.87 312.794,303.626 " fill="none" stroke-width="0.5" stroke="rgb(0,0,0)" />
	<polygon points="109.089,297.586 108.547,300.053 108.825,300.156 109.108,300.313 109.505,300.709 109.227,296.645 109.225,296.634 " fill="none" stroke-width="0.5" stroke="rgb(0,0,0)" />
	<polygon points="434.751,292.71 434.466,293.144 433.515,294.476 433.43,294.592 432.365,296.014 432.225,296.207 432.728,296.492 434.64,297.524 434.79,297.608 436.495,298.588 436.889,298.845 435.483,294.19 434.891,292.475 " fill="none" stroke-width="0.5" stroke="rgb(0,0,0)" />
	<polygon points="458.843,288.184 457.928,288.607 456.865,289.488 455.59,291.028 454.237,293.12 454.65,293.078 456.329,293.127 459.518,293.641 461.073,294.139 461.075,294.055 461.077,293.742 461.077,293.535 461.007,292.093 460.809,290.744 460.488,289.507 460.101,288.553 459.789,288.052 " fill="none" stroke-width="0.5" stroke="rgb(0,0,0)" />
	<polygon points="87.5354,283.499 87.4806,283.607 85.1257,288.14 84.4422,289.46 86.2703,290.42 86.7919,290.835 87.4176,291.403 87.9823,291.987 88.414,292.434 88.6131,292.406 89.0058,291.451 89.4655,289.216 89.7834,285.879 89.9376,281.585 89.9587,278.611 " fill="none" stroke-width="0.5" stroke="rgb(0,0,0)" />
	<polygon points="55.4257,277.741 56.1428,279.274 56.421,279.714 56.8891,280.436 56.9316,280.503 57.3767,281.208 57.509,281.427 57.9005,282.107 58.1147,282.51 58.4404,283.181 58.6997,283.794 58.9475,284.474 59.1828,285.281 59.3404,285.991 59.4719,286.887 60.0344,285.852 60.7445,282.76 60.7185,282.662 60.6797,282.564 60.6167,282.448 60.497,282.279 60.2824,282.036 59.7301,281.525 59.715,281.511 57.793,279.72 57.411,279.333 55.897,277.663 55.6588,277.385 55.242,276.869 " fill="none" stroke-width="0.5" stroke="rgb(0,0,0)" />
	<polygon points="414.621,284.942 412.211,285.406 410.223,285.891 409.254,286.235 410.183,286.175 413.357,285.59 416.301,284.74 416.823,284.545 " fill="none" stroke-width="0.5" stroke="rgb(0,0,0)" />
	<polygon points="156.903,225.921 155.89,227.684 155.227,229.045 156.793,231.111 157.222,233.712 157.162,235.139 157.143,235.427 156.985,237.249 156.971,237.384 156.747,239.456 156.739,239.519 156.482,241.695 156.48,241.709 156.225,243.828 156.008,245.706 155.869,247.124 155.83,247.847 155.852,248.552 157.449,249.528 158.9,252.115 159.365,253.74 159.487,254.241 159.852,256.051 159.907,256.362 160.199,258.291 160.223,258.464 160.467,260.442 160.474,260.502 160.695,262.434 160.909,264.185 161.062,265.188 162.177,265.576 164.465,268.489 165.005,269.864 165.568,271.287 166.143,272.655 166.735,273.918 167.331,275.016 167.902,275.884 168.394,276.472 169.177,277.163 169.417,277.371 169.872,277.805 170.142,278.088 170.507,278.506 170.769,278.835 171.092,279.276 171.335,279.639 171.64,280.144 171.851,280.531 172.145,281.15 172.311,281.551 172.58,282.343 172.688,282.748 172.877,283.791 172.889,283.91 174.538,282.155 175.038,281.857 175.02,281.845 174.366,281.337 170.252,277.692 169.233,276.546 166.323,272.36 165.331,270.117 164.227,265.291 164.315,262.072 165.457,258.099 166.688,255.767 169.697,252.131 170.602,251.235 174.136,248.368 172.661,249.174 172.485,249.267 169.588,250.734 166.096,251.405 162.778,250.122 160.645,247.276 160.364,243.639 160.604,242.509 160.812,241.432 160.995,240.359 161.15,239.287 161.275,238.219 161.367,237.152 161.424,236.087 161.442,235.118 161.345,233.153 161.049,231.285 160.512,229.407 159.678,227.477 158.47,225.458 157.731,224.516 " fill="none" stroke-width="0.5" stroke="rgb(0,0,0)" />
	<polygon points="427.63,278.606 427.163,279.477 425.846,280.794 426.663,280.54 427.904,280.27 429.815,280.145 430.003,280.16 430.047,280.168 428.509,276.923 428.13,276.257 " fill="none" stroke-width="0.5" stroke="rgb(0,0,0)" />
	<polygon points="339.984,273.739 339.151,274.637 338.887,275.679 339.028,275.777 339.597,276.024 340.453,276.251 340.658,276.281 340.63,275.986 340.618,275.843 340.578,275.298 340.564,275.026 340.549,274.537 340.573,273.74 340.598,273.478 340.615,273.386 " fill="none" stroke-width="0.5" stroke="rgb(0,0,0)" />
	<polygon points="421.107,265.912 420.463,267.388 420.365,267.601 420.286,267.766 420.414,267.798 422.039,268.236 422.932,268.548 423.481,268.787 422.6,267.518 421.141,265.826 " fill="none" stroke-width="0.5" stroke="rgb(0,0,0)" />
	<polygon points="362.36,260.042 362.463,260.039 362.452,259.852 " fill="none" stroke-width="0.5" stroke="rgb(0,0,0)" />
	<polygon points="128.963,238.239 128.724,240.372 128.594,242.357 128.564,243.739 129.933,253.546 132.239,259.666 132.132,259.187 131.802,256.4 132.374,252.889 133.408,251.787 133.389,251.605 133.019,250.076 132.37,247.974 131.557,245.532 131.542,245.485 130.706,242.911 130.638,242.688 129.909,240.13 129.799,239.686 129.284,237.228 129.212,236.737 " fill="none" stroke-width="0.5" stroke="rgb(0,0,0)" />
	<polygon points="404.436,255.578 405.398,256.756 405.632,257.061 406.373,258.087 406.719,257.821 407.984,256.803 408.109,256.705 408.301,256.558 406.971,256.048 404.117,255.247 " fill="none" stroke-width="0.5" stroke="rgb(0,0,0)" />
	<polygon points="447.318,253.323 447.321,253.33 448.674,256.694 448.707,256.779 448.815,257.059 449.979,254.996 450.037,254.895 450.414,254.254 447.223,252.482 446.901,252.289 " fill="none" stroke-width="0.5" stroke="rgb(0,0,0)" />
	<polygon points="382.378,244.831 381.758,245.993 381.028,247.081 380.204,248.074 379.273,248.988 378.268,249.793 377.19,250.492 376.507,250.844 376.8,251.15 377.919,252.521 378.185,252.871 378.667,253.551 378.977,253.225 379.224,252.979 380.411,251.859 381.127,251.275 382.254,250.484 384.172,249.564 385.211,249.264 387.553,249.034 387.817,249.056 385.588,247.486 383.875,245.697 382.745,243.936 " fill="none" stroke-width="0.5" stroke="rgb(0,0,0)" />
	<polygon points="392.97,251.886 393.671,253.03 394.792,252.508 392.86,251.749 " fill="none" stroke-width="0.5" stroke="rgb(0,0,0)" />
	<polygon points="359.242,247.193 358.219,247.884 357.209,248.432 358.201,248.515 361.527,249.775 363.176,251.946 363.402,251.399 363.555,251.11 363.97,250.569 363.74,250.446 362.711,249.762 361.722,248.957 360.837,248.082 360.01,247.089 359.779,246.75 " fill="none" stroke-width="0.5" stroke="rgb(0,0,0)" />
	<polygon points="313.402,224.675 312.246,225.169 310.388,225.757 309.108,226.023 308.227,226.114 308.774,227.805 309.945,229.123 312.269,230.505 315.783,232.031 316.02,232.14 319.82,233.977 320.978,234.698 324.243,237.243 325.81,239.015 328.095,242.83 328.471,243.873 329.192,243.423 330.291,242.874 331.459,242.423 332.451,242.13 332.753,242.067 332.733,242.038 331.619,239.99 331.127,238.827 330.423,236.566 330.164,235.298 330.092,234.593 328.941,234.827 327.535,234.97 326.231,234.969 324.836,234.827 323.564,234.566 322.261,234.158 321.098,233.664 319.916,233.019 318.895,232.327 317.862,231.473 316.999,230.609 316.145,229.574 315.455,228.553 314.809,227.366 314.317,226.204 313.908,224.895 313.817,224.448 " fill="none" stroke-width="0.5" stroke="rgb(0,0,0)" />
	<polygon points="189.183,234.529 188.502,235.803 186.467,238.764 185.731,239.652 184.512,240.88 184.614,240.806 188.083,237.692 189.95,235.054 190.589,232.349 190.531,231.846 190.446,231.347 " fill="none" stroke-width="0.5" stroke="rgb(0,0,0)" />
	<polygon points="464.385,220.132 464.349,220.388 463.873,223.329 463.851,223.452 463.306,226.453 463.303,226.468 462.766,229.381 462.318,232.034 462.028,234.259 461.938,235.829 461.99,236.501 462.635,235.576 464.013,233.055 465.14,230.28 465.874,227.45 466.123,224.77 465.574,219.842 464.707,217.471 " fill="none" stroke-width="0.5" stroke="rgb(0,0,0)" />
	<polygon points="379.616,228.157 378.642,228.96 379.255,229.447 379.515,229.697 379.553,229.381 379.793,227.98 " fill="none" stroke-width="0.5" stroke="rgb(0,0,0)" />
	<polygon points="45.6964,227.958 46.1654,228.333 46.4483,228.626 46.7658,229.046 47.2608,227.383 " fill="none" stroke-width="0.5" stroke="rgb(0,0,0)" />
	<polygon points="132.069,228.114 132.089,228.092 132.286,228.035 132.3,227.858 132.324,227.616 " fill="none" stroke-width="0.5" stroke="rgb(0,0,0)" />
	<polygon points="85.0727,213.662 85.5141,214.009 86.5796,215.067 87.0424,215.648 87.7233,216.699 88.0796,217.387 88.4806,218.343 88.7324,219.111 88.9492,219.965 89.0987,220.787 89.1922,221.567 89.2415,222.415 89.2066,223.558 89.1765,223.809 89.3179,223.694 90.5416,222.905 91.2785,222.541 93.0695,221.962 93.7985,221.839 95.7654,221.813 96.4091,221.904 98.1404,222.402 98.7521,222.675 100.191,223.56 100.754,224.017 100.877,224.144 101.147,220.509 101.29,219.556 102.131,215.856 102.405,214.959 102.841,213.831 102.328,214.017 100.837,214.364 97.8395,214.694 96.4181,214.693 93.2289,214.337 91.7822,214.003 88.918,212.984 87.5983,212.336 86.6267,211.713 " fill="none" stroke-width="0.5" stroke="rgb(0,0,0)" />
	<polygon points="133.549,218.508 130.365,219.516 132.231,221.311 132.854,223.794 133.14,222.191 133.235,221.748 133.893,219.135 134.056,218.59 134.123,218.396 " fill="none" stroke-width="0.5" stroke="rgb(0,0,0)" />
	<polygon points="442.742,210.444 442.389,210.571 438.079,211.982 437.58,212.123 432.459,213.354 431.875,213.466 425.853,214.336 425.233,214.395 423.049,214.498 425.863,215.866 427.161,216.703 430.854,219.767 431.858,220.811 433.95,223.545 435.021,221.055 435.639,219.937 438.161,216.283 438.774,215.526 441.759,212.357 442.33,211.82 445.099,209.517 " fill="none" stroke-width="0.5" stroke="rgb(0,0,0)" />
	<polygon points="64.1974,216.222 63.7344,216.606 65.1388,217.532 65.6556,217.999 66.7469,219.284 67.1467,219.903 67.7358,221.055 68.0288,221.806 68.13,222.135 68.1563,222.07 68.5714,221.23 71.236,216.696 71.3512,216.576 70.5515,216.439 68.4798,215.897 67.3714,215.495 65.5009,214.617 65.4607,214.593 " fill="none" stroke-width="0.5" stroke="rgb(0,0,0)" />
	<polygon points="187.925,213.365 188.801,214.676 190.01,217.077 190.511,218.43 190.629,218.907 192.461,217.592 195.228,217.414 194.824,215.954 194.264,214.885 193.537,214.048 192.484,213.279 190.923,212.559 188.753,211.959 186.427,211.627 " fill="none" stroke-width="0.5" stroke="rgb(0,0,0)" />
	<polygon points="338.995,215.764 339.193,216.23 339.44,216.096 339.026,215.594 338.385,214.646 " fill="none" stroke-width="0.5" stroke="rgb(0,0,0)" />
	<polygon points="337.624,213.517 337.654,213.553 338.297,214.503 337.73,213.46 " fill="none" stroke-width="0.5" stroke="rgb(0,0,0)" />
	<polygon points="381.214,200.128 380.72,201.29 380.038,202.538 379.347,203.556 378.446,204.645 377.868,205.223 378.398,205.581 379.613,206.582 380.486,207.454 381.44,208.61 381.937,206.625 384.499,204.158 386.518,203.731 382.741,200.652 381.671,199.541 381.478,199.287 " fill="none" stroke-width="0.5" stroke="rgb(0,0,0)" />
	<polygon points="55.7353,205.026 55.2,205.417 54.4596,205.901 56.202,205.523 57.7653,205.167 57.4796,204.264 57.3645,203.703 " fill="none" stroke-width="0.5" stroke="rgb(0,0,0)" />
	<polygon points="366.467,168.863 365.483,169.673 364.456,170.365 363.645,170.804 364.023,171.36 365.062,173.258 365.557,174.42 366.215,176.513 366.478,177.789 366.708,180.028 366.708,181.347 366.672,181.701 367.627,181.602 368.945,181.601 370.418,181.752 370.738,181.818 370.688,181.714 370.326,180.805 367.56,171.956 367.368,171.174 366.878,168.453 " fill="none" stroke-width="0.5" stroke="rgb(0,0,0)" />
	<polygon points="146.271,174.685 145.416,174.911 142.545,175.464 143.231,176.026 146.625,179.271 147.14,179.824 147.621,180.406 147.787,179.351 148.015,178.388 148.974,175.391 149.71,173.84 149.98,173.425 " fill="none" stroke-width="0.5" stroke="rgb(0,0,0)" />
	<polygon points="108.951,161.255 108.096,162.291 107.232,163.156 106.197,164.012 105.175,164.704 103.989,165.351 102.826,165.845 101.517,166.254 100.246,166.515 98.844,166.658 97.5392,166.658 96.9959,166.603 99.9869,168.143 100.658,168.542 103.918,170.757 104.58,171.272 107.579,173.939 108.239,174.619 110.827,177.711 111.457,178.609 112.211,179.906 112.346,179.474 112.836,178.316 113.878,176.398 114.784,175.127 116.17,173.61 117.496,172.501 118.361,171.957 117.748,171.606 116.6,170.769 113.706,168.125 112.809,167.112 110.587,164.001 109.963,162.921 109.104,161.029 " fill="none" stroke-width="0.5" stroke="rgb(0,0,0)" />
	<polygon points="309.58,170.319 308.733,171.636 308.562,171.842 308.768,171.821 310.073,171.821 311.48,171.963 312.748,172.223 313.462,172.445 313.766,171.467 314.15,170.555 312.48,170.215 312.038,170.109 310.189,169.595 309.963,169.524 " fill="none" stroke-width="0.5" stroke="rgb(0,0,0)" />
	<polygon points="336.464,168.112 336.489,168.143 336.605,168.315 337.052,167.868 " fill="none" stroke-width="0.5" stroke="rgb(0,0,0)" />
	<polygon points="161.07,167.168 162.144,167.181 163.872,167.519 164.541,167.743 163.561,165.164 " fill="none" stroke-width="0.5" stroke="rgb(0,0,0)" />
	<polygon points="90.4572,164.846 91.4586,164.849 91.1995,164.708 90.6554,164.341 " fill="none" stroke-width="0.5" stroke="rgb(0,0,0)" />
	<polygon points="344.416,163.22 343.415,164.052 344.923,163.579 345.321,163.497 345.036,162.58 " fill="none" stroke-width="0.5" stroke="rgb(0,0,0)" />
	<polygon points="422.993,142.884 421.801,144.31 419.06,146.762 417.949,147.56 414.334,149.617 413.413,150.049 411.76,150.67 417.12,151.152 418.37,151.391 424.789,153.288 425.98,153.773 431.666,156.785 432.613,157.398 435.479,159.634 434.515,157.807 434.019,156.574 432.173,150.136 432.173,146.579 432.208,146.525 431.485,146.335 430.529,146.001 428.85,145.263 427.706,144.614 426.346,143.646 425.14,142.532 424.131,141.327 424.041,141.182 " fill="none" stroke-width="0.5" stroke="rgb(0,0,0)" />
	<polygon points="354.737,136.485 354.779,136.956 354.835,138.076 354.815,139.012 354.188,145.612 353.975,146.657 354.416,146.521 355.68,146.264 357.021,146.129 358.313,146.129 359.653,146.264 360.917,146.521 362.164,146.908 363.329,147.399 364.458,148.011 365.487,148.704 366.471,149.516 366.973,150.018 367.536,149.331 367.593,149.277 368.869,148.409 365.262,146.295 364.277,145.585 358.94,140.916 358.16,140.103 354.643,135.729 " fill="none" stroke-width="0.5" stroke="rgb(0,0,0)" />
	<polygon points="129.899,134.976 129.361,135.317 129.017,135.571 128.666,135.882 125.457,137.416 125.249,137.392 125.647,138.237 126.127,139.67 126.605,141.964 126.655,142.232 127.051,144.632 127.357,145.911 127.748,145.433 128.276,144.561 128.846,143.258 129.147,142.343 129.463,141.247 129.733,140.158 129.956,139.089 130.128,138.05 130.251,137.056 130.323,136.119 130.346,135.261 130.33,134.742 " fill="none" stroke-width="0.5" stroke="rgb(0,0,0)" />
	<polygon points="102.357,139.579 102.178,140.455 102.825,140.657 103.987,141.15 105.173,141.797 106.195,142.487 107.23,143.343 107.259,143.372 107.315,143.109 107.773,141.344 107.95,140.795 107.845,140.823 104.954,140.08 102.441,138.757 " fill="none" stroke-width="0.5" stroke="rgb(0,0,0)" />
	<polygon points="327.214,141.844 327.159,142.381 328.47,142.057 327.21,140.787 " fill="none" stroke-width="0.5" stroke="rgb(0,0,0)" />
	<polygon points="314.968,123.875 313.539,124.261 312.285,124.845 311.202,125.591 310.307,126.45 309.624,127.353 309.176,128.207 308.763,129.513 307.311,131.699 307.567,131.869 308.626,132.436 309.62,132.838 310.597,133.11 311.622,133.274 312.812,133.334 313.137,133.325 313.635,133.286 314.227,133.221 314.885,133.136 315.57,133.043 315.623,133.037 316.277,132.954 316.449,132.934 317.037,132.876 317.394,132.85 317.9,132.828 318.214,132.83 317.96,132.578 317.304,131.814 317.062,131.483 316.544,130.648 316.36,130.293 315.987,129.426 315.858,129.052 315.626,128.19 315.55,127.804 315.442,126.968 315.417,126.575 315.439,125.5 315.516,124.757 315.702,123.811 " fill="none" stroke-width="0.5" stroke="rgb(0,0,0)" />
	<polygon points="117.921,132.685 118.404,132.73 118.205,132.169 " fill="none" stroke-width="0.5" stroke="rgb(0,0,0)" />
	<polygon points="94.1946,112.178 94.0867,112.281 91.9101,114.302 91.4851,114.664 89.2218,116.426 88.2934,117.029 85.9553,118.276 84.1666,118.913 81.7653,119.386 79.9421,119.466 79.9668,119.685 80.1555,123 80.1643,123.51 80.1326,124.936 80.1204,125.215 80.0293,126.604 80.0064,126.868 79.9126,127.745 80.042,127.615 81.0766,126.759 82.0988,126.066 83.2849,125.418 84.4489,124.924 85.7578,124.514 87.0308,124.253 88.4339,124.11 89.7408,124.11 91.1459,124.253 92.4172,124.513 93.7281,124.923 94.891,125.416 96.0789,126.064 96.2169,126.157 96.0833,125.564 95.9824,125.001 95.1887,119.067 95.1716,118.928 94.5225,113.112 94.3593,112.018 " fill="none" stroke-width="0.5" stroke="rgb(0,0,0)" />
	<polygon points="184.58,107.619 184.635,108.817 184.593,109.708 184.52,110.421 184.388,111.246 184.181,112.134 183.951,112.878 183.509,113.953 183.173,114.598 182.368,115.794 181.917,116.325 180.687,117.442 180.113,117.841 178.597,118.622 177.893,118.874 176.389,119.215 175.545,119.303 173.208,119.117 172.666,118.971 173.505,120.358 174.008,121.383 175.695,125.764 175.984,126.733 176.079,127.18 176.648,126.674 177.252,126.198 180.252,124.112 181.041,123.643 184.161,122.077 185.169,121.673 188.391,120.688 189.612,120.44 192.917,120.099 194.296,120.104 195.28,120.214 193.519,118.477 193.126,118.053 188.883,113.041 188.672,112.779 184.543,107.352 " fill="none" stroke-width="0.5" stroke="rgb(0,0,0)" />
	<polygon points="424.681,124.364 424.857,124.958 425.08,125.869 425.565,125.344 426.046,124.921 425.086,124.103 424.303,123.282 " fill="none" stroke-width="0.5" stroke="rgb(0,0,0)" />
	<polygon points="124.118,112.129 122.534,118.466 122.505,118.578 121.656,121.734 123.062,119.421 123.661,118.592 126.445,115.321 127.186,114.581 128.518,113.451 128.086,113.124 127.243,112.361 125.741,110.738 125.457,110.41 124.814,109.614 " fill="none" stroke-width="0.5" stroke="rgb(0,0,0)" />
	<polygon points="379.086,99.91 378.025,100.555 374.513,102.249 376.412,101.437 376.81,101.235 377.176,101.063 377.763,100.81 378.139,100.662 378.722,100.453 379.106,100.328 379.683,100.161 380.075,100.061 380.643,99.9346 381.039,99.8593 381.598,99.771 381.998,99.7206 382.544,99.6689 382.947,99.6436 383.48,99.6268 384.657,99.6975 386.622,99.9976 388.792,100.742 390.209,101.533 391.781,102.763 392.825,103.882 393.495,104.733 394.341,106.016 394.388,106.089 394.639,106.48 395.533,106.269 396.935,105.81 398.564,105.197 400.277,104.534 400.442,104.472 402.092,103.884 402.554,103.739 404.073,103.323 405.025,103.138 406.372,102.981 409.27,103.305 411.312,104.026 413.525,105.355 415.668,107.321 416.517,108.27 418.646,111.187 419.065,111.838 420.512,114.422 420.284,113.323 420.039,112.379 419.858,111.895 419.851,111.884 419.448,111.477 417.743,108.356 417.951,104.805 419.055,103.25 416.326,103.222 416.2,103.22 412.867,103.122 412.744,103.117 409.375,102.953 409.254,102.946 405.857,102.717 405.737,102.708 402.321,102.414 402.202,102.403 398.776,102.043 398.656,102.029 395.229,101.605 395.108,101.589 391.69,101.099 391.601,101.086 391.127,101.011 390.587,100.902 390.201,100.807 389.387,100.548 389.083,100.429 387.958,99.8543 387.727,99.7064 386.451,98.6311 386.286,98.4504 385.268,96.9663 385.16,96.7487 384.771,95.6573 " fill="none" stroke-width="0.5" stroke="rgb(0,0,0)" />
	<polygon points="348.99,107.729 349.218,108.426 349.252,108.562 349.498,108.315 349.675,108.158 350.103,107.81 350.291,107.67 350.516,107.509 350.71,107.378 351.143,107.161 348.639,106.973 " fill="none" stroke-width="0.5" stroke="rgb(0,0,0)" />
	<polygon points="38.6167,107.773 40.7107,108.555 40.9567,107.714 41.1173,107.312 " fill="none" stroke-width="0.5" stroke="rgb(0,0,0)" />
	<polygon points="145.448,101.892 144.871,105.116 144.758,105.628 144.666,105.974 145.287,105.881 149.416,105.579 150.613,105.603 152.574,105.825 149.875,103.519 146.011,100.412 145.752,100.24 " fill="none" stroke-width="0.5" stroke="rgb(0,0,0)" />
	<polygon points="70.3524,92.9146 65.3319,95.557 63.5076,96.5635 64.7734,96.9339 68.1559,98.4937 69.669,99.4679 70.0107,99.7628 70.0719,99.2292 70.0837,99.1331 70.3717,96.9178 70.3729,96.9085 70.6557,94.7579 70.8911,92.7762 70.9005,92.6705 " fill="none" stroke-width="0.5" stroke="rgb(0,0,0)" />
	<polygon points="396.178,80.4121 394.702,83.0239 394.939,82.8453 395.905,81.7437 396.501,80.498 396.678,79.2546 " fill="none" stroke-width="0.5" stroke="rgb(0,0,0)" />
	<polygon points="173.612,77.3 173.688,77.2346 173.568,77.1965 " fill="none" stroke-width="0.5" stroke="rgb(0,0,0)" />
	<polygon points="126.722,60.6338 125.979,63.7204 125.247,67.1923 125.158,67.558 124.312,70.6651 123.808,71.9502 123.667,72.2221 123.715,72.2395 126.213,73.8575 126.787,74.457 126.847,73.7965 126.926,73.2186 127.097,72.2803 127.345,71.338 127.606,70.58 128.316,69.1379 128.685,68.5764 130.362,66.847 130.857,66.4982 131.114,66.3901 130.642,65.792 130.469,65.5622 128.739,63.1538 127.102,60.9865 126.738,60.5887 " fill="none" stroke-width="0.5" stroke="rgb(0,0,0)" />
	<polygon points="104.668,60.2451 102.922,61.6676 101.07,63.253 100.909,63.386 99.1281,64.8139 98.5095,65.2526 96.8916,66.2626 96.0981,66.6081 96.3432,67.2302 96.5326,67.8894 96.7205,68.7728 96.8282,69.5393 96.886,70.184 96.9201,71.054 96.9117,71.7211 96.8499,72.6812 98.262,71.4098 100.465,70.1091 102.523,69.3956 106.075,69.2023 106.768,69.5231 106.754,69.4529 106.49,66.2912 106.473,66.0212 106.33,62.5712 106.051,59.6633 105.967,59.3514 " fill="none" stroke-width="0.5" stroke="rgb(0,0,0)" />
	<polygon points="400.431,59.1895 400.428,60.3918 400.344,61.2528 401.009,60.9972 401.263,60.9254 402.421,60.7096 402.684,60.6852 405.637,61.1032 406.746,61.5385 408.518,62.5862 409.896,63.734 410.265,64.0659 411.894,65.6493 413.653,67.3006 415.445,68.7402 417.243,69.8315 419.02,70.5003 421.164,70.7708 421.407,70.7594 422.025,70.6656 422.565,70.5075 422.911,70.3367 423.066,70.2105 423.18,70.0526 423.366,69.5462 423.43,68.9454 422.981,67.455 421.312,65.7319 417.698,63.5935 412.887,61.6005 407.727,59.8897 403.042,58.4501 402.739,58.3487 400.274,57.4557 " fill="none" stroke-width="0.5" stroke="rgb(0,0,0)" />
	<polygon points="162.664,47.1534 162.53,47.4958 161.656,49.0558 161.449,49.3285 161.424,49.3538 164.314,50.3362 164.491,50.3992 168.023,51.7158 168.028,51.7176 169.248,52.1735 166.119,49.019 162.974,45.8936 " fill="none" stroke-width="0.5" stroke="rgb(0,0,0)" />
	<polygon points="144.953,51.7316 144.987,51.8105 145.558,51.0456 145.934,50.6491 145.554,50.5479 144.402,50.2807 " fill="none" stroke-width="0.5" stroke="rgb(0,0,0)" />
	<polygon points="88.8081,48.4728 89.0748,49.3602 89.9312,48.2854 " fill="none" stroke-width="0.5" stroke="rgb(0,0,0)" />
	<polygon points="444.723,43.9315 444.422,45.6164 444.313,47.3527 444.348,47.8808 444.373,47.9991 444.575,47.4125 444.825,46.143 444.984,44.5059 445.031,42.7971 " fill="none" stroke-width="0.5" stroke="rgb(0,0,0)" />
	<polygon points="396.49,39.7012 397.019,40.9705 397.792,43.5833 398.133,43.3068 400.128,42.3056 400.916,41.9733 403.888,40.9468 404.31,40.817 407.971,39.8269 408.272,39.7533 410.625,39.2365 406.961,37.3005 402.602,35.6481 398.589,34.5068 395.212,33.6616 394.73,33.5209 392.738,32.8538 " fill="none" stroke-width="0.5" stroke="rgb(0,0,0)" />
	<polygon points="69.873,40.1413 69.8633,40.1474 68.336,41.0994 70.847,41.3612 71.3302,41.4075 71.8079,38.9305 " fill="none" stroke-width="0.5" stroke="rgb(0,0,0)" />
	<polygon points="81.8531,28.2924 81.0491,30.455 80.162,31.8514 80.6945,31.633 80.902,31.5521 84.0498,30.3863 85.631,29.7449 85.2225,29.5666 84.2929,29.0654 82.1451,26.8991 " fill="none" stroke-width="0.5" stroke="rgb(0,0,0)" />
</svg>
