<?xml version="1.0" standalone="no" ?>
<!DOCTYPE svg PUBLIC "-//W3C//DTD SVG 1.1//EN" "http://www.w3.org/Graphics/SVG/1.1/DTD/svg11.dtd">
<svg width="500px" height="500px" xmlns="http://www.w3.org/2000/svg" version="1.1" >
	<polygon points="466.473,280.883 465.685,294.934 463.334,309.776 459.35,325.5 453.706,341.784 446.388,358.318 437.39,374.805 426.709,390.958 414.343,406.5 400.292,421.161 384.55,434.685 367.104,446.818 347.929,457.318 326.988,465.938 304.226,472.43 279.582,476.531 252.98,477.963 227.066,476.612 202.942,472.73 180.577,466.567 159.928,458.358 140.958,448.331 123.642,436.704 107.968,423.697 93.9322,409.535 81.5389,394.447 70.7963,378.671 61.7134,362.454 54.298,346.048 48.5537,329.717 44.478,313.732 42.0578,298.373 41.2405,283.511 41.2405,33.816 49.984,33.7489 61.4757,33.6607 72.9674,33.5725 84.459,33.4844 95.9507,33.3962 95.9507,33.3962 118.934,33.2198 130.426,33.1317 141.917,33.0435 153.409,32.9553 164.901,32.8671 187.884,32.6908 196.379,32.6256 196.357,43.9341 196.331,56.8329 196.306,69.7317 196.306,69.7317 196.28,82.6305 196.229,108.428 196.229,108.428 196.204,121.327 196.153,147.125 196.128,160.023 196.102,172.922 196.077,185.821 196.051,198.72 196.026,211.618 196.026,211.619 196,224.517 196.001,224.656 196.088,235.951 196.089,236.058 196.254,246.875 196.258,247.071 196.555,257.377 196.567,257.675 197.051,267.437 197.079,267.859 197.807,277.043 197.864,277.615 198.89,286.188 199.001,286.943 200.382,294.872 200.587,295.849 202.377,303.1 202.742,304.337 204.996,310.876 205.619,312.396 208.393,318.191 209.402,319.962 212.751,324.979 214.263,326.875 218.243,331.079 220.279,332.86 224.944,336.22 227.344,337.617 232.751,340.098 235.216,340.968 241.419,342.537 243.674,342.92 250.729,343.544 251.947,329.779 252.898,343.566 260.158,343.065 262.425,342.725 268.772,341.248 271.298,340.406 276.793,337.988 279.289,336.577 283.995,333.255 286.124,331.414 290.102,327.225 291.674,325.248 294.987,320.229 296.017,318.387 298.726,312.574 299.347,311.009 301.515,304.439 301.868,303.18 303.556,295.891 303.747,294.912 305.019,286.939 305.117,286.196 306.033,277.577 306.081,277.026 306.704,267.796 306.725,267.403 307.116,257.6 307.124,257.336 307.347,246.996 307.349,246.84 307.464,236.001 307.465,235.937 307.535,224.634 307.535,224.517 307.509,211.618 307.457,185.82 307.432,172.922 307.432,172.922 307.406,160.023 307.354,134.225 307.354,134.225 307.328,121.326 307.251,82.6301 307.251,82.63 307.225,69.7313 307.15,32.4227 316.37,32.3634 316.37,32.3634 328.123,32.2879 339.877,32.2123 351.63,32.1367 375.136,31.9856 386.89,31.9101 410.396,31.7589 422.149,31.6834 433.903,31.6078 445.656,31.5323 457.409,31.4567 466.473,31.3984 " fill="none" stroke-width="0.5" stroke="rgb(0,0,0)" />
</svg>
