<?xml version="1.0" standalone="no" ?>
<!DOCTYPE svg PUBLIC "-//W3C//DTD SVG 1.1//EN" "http://www.w3.org/Graphics/SVG/1.1/DTD/svg11.dtd">
<svg width="500px" height="500px" xmlns="http://www.w3.org/2000/svg" version="1.1" >
	<polygon points="467.623,280.916 466.829,295.057 464.462,310.007 460.453,325.831 454.777,342.206 447.421,358.827 438.376,375.399 427.64,391.635 415.21,407.257 401.083,421.997 385.254,435.595 367.71,447.797 348.426,458.357 327.366,467.027 304.479,473.554 279.708,477.676 252.981,479.115 226.945,477.757 202.697,473.855 180.211,467.659 159.445,459.404 140.367,449.319 122.953,437.626 107.191,424.547 93.0776,410.307 80.6174,395.137 69.8175,379.277 60.6859,362.972 53.2296,346.477 47.452,330.051 43.3504,313.964 40.9128,298.494 40.0905,283.543 40.0905,32.6748 49.9752,32.5989 61.4669,32.5107 72.9585,32.4226 84.4502,32.3344 95.9419,32.2462 107.434,32.158 118.925,32.0699 130.417,31.9817 141.909,31.8935 153.4,31.8053 164.892,31.7172 187.875,31.5408 197.531,31.4667 197.507,43.9364 197.481,56.8352 197.456,69.734 197.456,69.734 197.43,82.6328 197.379,108.43 197.379,108.43 197.354,121.329 197.303,147.127 197.303,147.127 197.278,160.026 197.252,172.924 197.252,172.924 197.227,185.823 197.201,198.722 197.176,211.621 197.176,211.621 197.15,224.52 197.151,224.647 197.238,235.942 197.239,236.041 197.404,246.858 197.407,247.037 197.704,257.343 197.715,257.618 198.2,267.38 198.225,267.768 198.953,276.952 199.006,277.479 200.032,286.051 200.134,286.746 201.515,294.675 201.703,295.574 203.493,302.824 203.829,303.963 206.083,310.502 206.656,311.9 209.43,317.694 210.358,319.324 213.707,324.34 215.098,326.084 219.078,330.289 220.951,331.927 225.616,335.286 227.824,336.572 233.23,339.053 235.499,339.853 241.701,341.422 243.776,341.774 250.83,342.399 251.947,329.779 252.819,342.419 260.079,341.918 262.164,341.605 268.511,340.128 270.834,339.353 276.33,336.935 278.626,335.637 283.332,332.315 285.29,330.622 289.269,326.433 290.714,324.614 294.027,319.596 294.974,317.901 297.684,312.088 298.255,310.648 300.423,304.079 300.747,302.921 302.436,295.632 302.612,294.731 303.883,286.758 303.974,286.075 304.89,277.455 304.934,276.949 305.556,267.719 305.576,267.357 305.967,257.554 305.975,257.311 306.197,246.972 306.199,246.828 306.314,235.989 306.315,235.93 306.385,224.627 306.385,224.519 306.307,185.823 306.282,172.924 306.282,172.924 306.256,160.025 306.204,134.228 306.204,134.228 306.178,121.329 306.101,82.6324 306.101,82.6323 306.075,69.7336 305.998,31.2801 316.363,31.2135 328.116,31.1379 339.869,31.0623 351.622,30.9868 363.376,30.9112 375.129,30.8356 386.882,30.7601 410.389,30.609 422.142,30.5334 433.895,30.4578 445.648,30.3823 457.402,30.3067 467.623,30.241 " fill="none" stroke-width="0.5" stroke="rgb(0,0,0)" />
</svg>
