<?xml version="1.0" standalone="no" ?>
<!DOCTYPE svg PUBLIC "-//W3C//DTD SVG 1.1//EN" "http://www.w3.org/Graphics/SVG/1.1/DTD/svg11.dtd">
<svg width="500px" height="500px" xmlns="http://www.w3.org/2000/svg" version="1.1" >
	<polygon points="480.823,84.589 475.979,90.4872 473.885,92.4558 473.187,92.9609 473.376,93.0379 475.409,94.1197 477.132,95.2788 478.975,96.8312 480.344,98.2626 480.823,98.882 480.823,194.597 480.49,194.983 479.125,195.911 480.823,197.797 480.823,251.202 480.786,251.254 480.823,251.273 480.823,281.286 479.971,296.463 479.471,299.619 479.025,300.172 478.119,301.164 476.799,302.446 478.297,305.315 478.496,305.776 477.405,312.666 473.11,329.62 467.07,347.047 459.27,364.67 453.604,375.052 452.897,375.155 452.992,376.173 449.695,382.213 438.331,399.399 425.161,415.952 410.17,431.593 393.345,446.047 374.668,459.037 354.126,470.285 331.702,479.516 318.628,483.245 316.942,482.373 316.921,482.558 316.577,483.83 307.382,486.452 281.151,490.817 252.993,492.333 225.548,490.902 199.887,486.773 176.007,480.192 153.907,471.407 133.585,460.665 115.039,448.212 98.2672,434.295 83.2685,419.161 70.0408,403.057 58.5824,386.23 48.8916,368.927 40.9666,351.394 34.8057,333.879 32.6278,325.337 34.4438,319.488 35.0816,317.883 35.7414,316.535 34.6638,316.196 30.1065,313.433 29.8659,313.192 27.7694,299.888 26.8905,283.906 26.8905,155.575 26.9718,155.394 29.3983,150.962 30.2688,149.68 28.8545,148.946 27.0026,147.739 26.8905,147.649 26.8905,37.7617 28.9207,36.275 27.7579,35.8016 26.8905,35.363 26.8905,19.5757 38.3822,19.4875 49.8739,19.3993 61.3656,19.3111 72.8572,19.223 84.3489,19.1348 95.8406,19.0466 107.332,18.9584 118.824,18.8703 130.316,18.7821 141.807,18.6939 153.299,18.6057 164.791,18.5175 176.282,18.4294 187.774,18.3412 210.757,18.1648 210.732,31.0636 210.706,43.9624 210.681,56.8612 210.656,69.76 210.63,82.6588 210.618,88.7185 210.33,88.839 209.998,88.9454 210.617,89.4606 210.579,108.456 210.554,121.355 210.503,147.153 210.478,160.052 210.452,172.95 210.434,182.139 209.075,183.849 207.663,185.327 207.296,185.646 208.98,187.071 210.421,188.566 210.401,198.748 210.376,211.647 210.35,224.546 210.438,235.84 210.602,246.657 210.899,256.963 211.384,266.725 211.456,267.63 210.903,268.299 210.305,269.095 211.662,270.238 212.112,275.909 213.138,284.482 214.519,292.41 216.308,299.661 218.563,306.2 221.336,311.994 224.685,317.011 228.665,321.215 233.33,324.575 238.737,327.056 244.939,328.626 251.957,329.247 259.171,328.749 265.518,327.271 271.013,324.853 275.719,321.532 279.698,317.343 283.01,312.324 285.72,306.511 287.888,299.942 289.576,292.653 290.848,284.68 291.763,276.06 292.386,266.831 292.778,257.028 293,246.688 293.115,235.848 293.185,224.546 293.159,211.647 293.133,198.748 293.123,193.541 293.238,193.446 293.157,193.297 293.122,193.214 293.107,185.849 293.09,177.309 293.159,177.147 293.654,176.24 293.326,176.027 293.087,175.806 293.082,172.95 293.056,160.052 293.004,134.254 292.978,121.355 292.954,109.449 293.387,108.502 292.952,108.337 292.901,82.6588 292.875,69.76 292.797,31.0636 292.771,18.1648 304.525,18.0893 316.278,18.0137 328.031,17.9382 339.784,17.8626 351.538,17.787 363.291,17.7115 375.044,17.6359 383.779,17.5798 385.096,18.547 385.164,18.3952 385.79,17.6671 385.922,17.566 386.797,17.5604 410.304,17.4092 422.057,17.3337 433.81,17.2581 445.564,17.1826 457.317,17.107 469.07,17.0314 480.823,16.9559 " fill="none" stroke-width="0.5" stroke="rgb(0,0,0)" />
	<polygon points="319.64,423.153 319.89,424.254 319.98,424.687 319.992,424.751 320.327,425.014 320.976,425.564 320.997,425.547 321.8,424.936 322.5,424.451 322.841,424.244 322.557,422.191 " fill="none" stroke-width="0.5" stroke="rgb(0,0,0)" />
	<polygon points="424.516,148.254 424.708,148.311 424.566,148.21 " fill="none" stroke-width="0.5" stroke="rgb(0,0,0)" />
</svg>
