<?xml version="1.0" standalone="no" ?>
<!DOCTYPE svg PUBLIC "-//W3C//DTD SVG 1.1//EN" "http://www.w3.org/Graphics/SVG/1.1/DTD/svg11.dtd">
<svg width="500px" height="500px" xmlns="http://www.w3.org/2000/svg" version="1.1" >
	<polygon points="480.823,28.703 480.282,29.3802 479.818,30.1379 479.473,30.8782 479.257,31.5189 479.167,31.9381 479.162,32.0025 479.293,33.7211 479.693,35.6651 480.37,38.0536 480.823,39.5613 480.823,74.7536 478.811,79.5154 477.817,81.1593 472.502,87.6312 471.249,88.8089 464.216,93.8932 463.015,94.5844 458.513,96.5881 459.4,96.9551 460.125,97.356 461.007,96.3804 465.924,95.4874 468.41,95.9979 469.586,96.3544 471.681,97.2065 472.897,97.8536 474.62,99.0127 475.723,99.9413 477.092,101.373 477.947,102.478 478.98,104.147 479.542,105.282 480.257,107.154 480.563,108.208 480.823,109.484 480.823,117.02 480.42,119.622 479.923,121.311 478.645,124.194 479.278,124.546 480.823,125.817 480.823,187.401 480.218,188.648 477.959,191.262 476.38,192.336 472.942,193.488 471.013,193.302 469.4,192.906 472.848,195.771 473.543,196.439 477.545,200.881 478.286,201.875 480.823,206.031 480.823,242.511 477.83,247.606 477.498,248.117 473.313,253.953 473.231,254.065 472.92,254.48 474.699,254.388 476.168,254.541 477.721,254.893 478.98,255.341 480.537,256.139 480.823,256.336 480.823,281.286 480.287,290.832 478.526,293.569 478.103,294.155 475.525,297.343 474.984,297.936 472.025,300.811 470.795,301.478 471.779,302.766 472.393,303.731 474.309,307.398 474.703,308.312 476.147,312.492 476.386,313.373 476.755,315.231 473.11,329.62 467.07,347.047 459.27,364.67 456.829,369.142 454.08,370.663 450.457,370.508 447.445,368.487 447.014,367.569 447.757,369.996 448.021,371.335 448.726,378.897 448.67,380.581 447.995,384.784 438.331,399.399 425.161,415.952 410.17,431.593 402.952,437.794 401.699,437.583 399.949,437.034 398.456,436.329 397.288,435.623 395.873,434.558 395.069,433.844 394.742,433.503 394.838,434.102 395.086,437.379 395.004,439.042 393.89,445.396 393.806,445.651 393.345,446.047 374.668,459.037 354.126,470.285 331.702,479.516 326.163,481.096 325.859,481.04 322.74,480.154 321.494,479.661 318.831,478.284 317.684,477.533 315.485,475.747 314.519,474.784 312.794,472.67 312.056,471.557 310.813,469.198 310.319,467.989 309.567,465.466 309.318,464.198 309.065,461.593 309.048,460.508 309.102,459.69 307.856,462.572 307.248,463.679 304.482,467.751 303.036,469.288 301.607,470.393 301.713,470.381 302.216,470.345 303.08,470.315 303.847,470.332 304.718,470.402 306.038,470.642 306.707,470.835 308.255,471.502 308.749,471.793 310.217,472.963 310.561,473.328 311.595,474.761 311.817,475.175 312.353,476.494 312.479,476.933 312.685,477.931 312.741,478.37 312.792,479.013 312.805,479.427 312.577,481.384 312.179,482.856 310.964,485.267 310.797,485.478 307.382,486.452 281.151,490.817 269.119,491.465 268.3,490.995 267.397,490.373 265.571,488.882 264.768,488.106 264.038,487.272 262.151,488.233 261.775,488.41 257.61,490.216 257.219,490.371 252.794,491.967 252.375,492.103 251.793,492.271 225.548,490.902 199.887,486.773 184.738,482.598 184.572,482.488 179.813,479.107 175.808,476.294 172.627,474.504 170.538,473.902 167.43,473.595 163.274,473.364 162.866,473.329 158.114,472.774 157.231,472.61 156.392,472.395 153.907,471.407 136.775,462.351 130.551,456.317 128.727,453.183 128.79,450.209 127.432,450.331 126.11,450.319 116.649,449.293 115.039,448.212 98.2672,434.295 83.2685,419.161 72.1953,405.68 71.6082,400.982 71.5778,399.618 71.856,396.133 71.512,396.285 67.9179,395.802 65.7688,394.321 63.9956,392.496 61.8189,390.983 58.5824,386.23 48.8916,368.927 40.9666,351.394 35.1662,334.904 35.509,331.664 35.7731,330.383 38.7415,320.822 39.123,319.862 42.8221,312.309 41.744,312.6 37.9837,312.523 36.0146,311.904 33.2883,310.251 31.4698,308.432 30.3429,306.935 28.7094,303.979 28.2537,302.961 27.7694,299.888 26.8905,283.906 26.8905,242.369 28.2631,237.673 28.5507,236.879 30.2123,233.061 30.9898,231.722 32.8283,229.263 33.2377,228.938 33.0446,228.889 30.8127,227.994 29.1752,227.05 27.2583,225.549 26.8905,225.174 26.8905,196.754 26.9295,196.744 26.8905,196.571 26.8905,185.693 27.0022,185.458 26.8905,185.303 26.8905,172.378 27.0186,171.705 27.6489,168.114 27.7287,167.727 28.7048,163.609 28.9176,162.893 30.4897,158.51 30.9191,157.555 33.3456,153.122 34.0653,152.063 37.6046,147.794 37.8678,147.537 36.9575,147.363 34.422,146.623 33.2136,146.138 30.9274,144.952 29.8196,144.23 27.8339,142.636 26.8905,141.709 26.8905,113.339 28.4687,111.763 29.2512,111.094 31.1707,109.692 32.0233,109.162 33.8489,108.21 33.339,108.109 32.2881,107.81 31.7238,107.599 30.5523,107.024 30.0674,106.724 28.8837,105.793 28.4886,105.403 27.48,104.13 27.185,103.648 26.8905,103.004 26.8905,94.9597 27.5656,92.8864 28.3486,91.264 31.5444,86.4334 30.4015,86.4792 29.8027,86.3856 27.6833,85.6771 27.1901,85.4139 26.8905,85.1887 26.8905,62.2655 27.1032,61.9983 27.8066,61.2597 28.1734,60.9333 26.8905,60.2209 26.8905,43.5459 27.3872,43.0598 28.115,42.4426 32.0057,39.5934 32.3315,39.3693 36.7915,36.4912 36.8802,36.435 39.683,34.6879 39.252,34.5812 39.2165,34.5723 34.9171,33.4831 34.5492,33.3787 30.7986,32.1971 29.7885,31.7858 27.1357,30.4443 26.8905,30.223 26.8905,19.5757 38.3822,19.4875 49.8739,19.3993 61.3656,19.3111 72.8572,19.223 78.8734,19.1768 80.6687,21.0093 81.0334,19.6757 81.2975,19.1582 84.3489,19.1348 95.8406,19.0466 107.332,18.9584 114.232,18.9055 115.526,20.3463 115.686,20.5307 116.919,22.0087 117.615,22.6588 117.945,22.8285 118.805,22.9522 119.617,22.8361 120.012,22.6384 120.796,21.9496 122.113,20.4965 122.286,20.3131 123.733,18.8326 130.316,18.7821 141.807,18.6939 153.299,18.6057 155.262,18.5907 155.442,18.8855 156.422,22.3769 155.843,25.0789 157.158,23.517 160.072,21.4149 161.253,20.7344 165.662,18.7591 166.323,18.5058 176.282,18.4294 187.774,18.3412 210.757,18.1648 210.74,27.1428 209.188,28.8457 207.501,29.9761 208.13,30.0564 209.301,30.279 210.693,30.7042 210.733,30.7214 210.732,31.0636 210.706,43.9624 210.683,55.9584 209.058,56.5768 208.041,56.7579 205.942,56.7976 205.686,56.7619 209.578,61.2241 210.12,61.937 210.669,62.7687 210.656,69.76 210.63,82.6588 210.628,83.6956 210.588,83.7223 209.464,84.3235 208.594,84.6872 207.499,85.0381 206.496,85.2668 205.477,85.4179 204.349,85.4974 203.2,85.4794 199.218,85.0741 198.408,84.9411 197.387,84.7084 198.421,85.4539 198.61,85.5953 203.413,89.3241 203.59,89.467 207.886,93.0422 208.112,93.2396 210.605,95.5111 210.579,108.456 210.554,121.355 210.551,122.734 209.998,123.213 208.834,123.977 207.479,124.545 207.783,124.757 208.972,125.814 210.542,127.587 210.503,147.153 210.478,160.052 210.453,172.412 209.808,174.279 209.359,175.296 207.971,177.845 207.333,178.808 205.552,181.05 204.707,181.934 202.566,183.799 201.504,184.556 199.035,185.975 198.88,186.044 201.211,187.067 202.308,187.676 204.706,189.32 205.741,190.195 207.714,192.241 208.599,193.383 210.085,195.8 210.406,196.484 210.401,198.748 210.376,211.647 210.371,214.07 210.071,214.789 209.908,215.15 209.223,216.551 209.06,216.864 208.298,218.235 208.136,218.511 207.311,219.842 204.638,222.293 204.571,222.306 205.09,222.699 205.596,223.122 208.332,225.654 208.817,226.151 210.376,227.927 210.438,235.84 210.602,246.657 210.899,256.963 211.093,260.872 209.728,262.65 209.579,262.837 207.368,265.512 205.756,267.656 205.047,268.982 204.954,269.456 205.048,269.937 205.531,270.721 206.932,272.137 209.168,274.021 209.284,274.121 211.754,276.299 212.214,276.763 213.138,284.482 214.519,292.41 216.147,299.006 215.942,299.509 216.308,299.66 216.308,299.661 218.563,306.2 221.336,311.994 224.685,317.011 228.665,321.215 233.33,324.575 238.737,327.056 244.939,328.626 247.753,328.875 248.177,329.436 248.866,330.563 250.375,333.687 250.794,334.794 251.707,338.055 251.896,338.973 251.985,339.638 255.565,332.923 256.263,331.867 258.757,328.778 259.171,328.749 265.518,327.271 271.013,324.853 275.719,321.532 279.698,317.343 283.01,312.324 284.03,310.136 284.891,309.865 284.873,309.852 284.546,309.029 285.72,306.511 287.888,299.942 288.327,298.047 288.488,297.843 289.082,296.899 289.558,295.878 289.933,294.674 290.195,293.175 290.301,291.206 290.276,290.29 290.198,289.256 290.166,288.956 290.848,284.68 291.763,276.06 292.09,271.222 292.136,271.15 293.069,269.986 293.933,269.125 295.181,268.146 296.193,267.531 297.615,266.88 298.758,266.511 299.491,266.358 298.807,265.863 294.72,262.355 293.41,260.835 292.672,259.661 292.778,257.028 293,246.688 293.115,235.848 293.162,228.294 293.852,226.806 293.977,226.552 295.61,223.391 296.138,222.826 295.174,222.027 294.286,221.14 293.176,219.797 293.159,211.647 293.136,199.967 294.284,198.578 295.169,197.691 296.647,196.464 297.696,195.75 299.386,194.82 299.622,194.719 299.328,194.425 298.473,193.39 297.755,192.329 297.108,191.142 296.596,189.935 296.186,188.625 295.915,187.304 295.772,185.901 295.772,184.542 295.915,183.141 296.187,181.818 296.596,180.51 297.109,179.303 297.756,178.117 298.474,177.057 299.33,176.022 300.226,175.126 300.779,174.669 299.809,174.617 298.324,173.985 296.388,172.73 294.975,171.418 294.006,170.292 293.074,168.931 293.056,160.052 293.004,134.254 292.997,130.905 293.65,129.887 295.696,128.068 295.688,128.041 295.48,127.317 295.406,127.036 295.227,126.291 295.161,125.99 295.015,125.228 294.961,124.903 294.851,124.129 294.81,123.776 294.742,122.995 294.719,122.61 294.695,121.825 294.716,121.054 294.966,118.111 295.155,117.002 295.924,114.027 296.317,112.919 297.631,110.042 298.268,108.938 300.154,106.29 301.073,105.248 303.558,102.961 304.745,102.088 307.856,100.292 309.211,99.6976 310.184,99.3941 310.155,99.2629 310.024,98.5616 309.962,98.167 309.82,97.0393 309.644,97.1946 309.601,97.2323 307.199,99.3188 306.988,99.4943 304.711,101.314 304.172,101.703 302.185,102.991 300.579,103.751 299.049,104.239 296.963,104.557 296.726,104.555 296.354,104.542 296.163,104.53 295.164,104.391 295.013,104.358 293.167,103.661 293.053,103.597 292.942,103.501 292.91,87.2967 292.955,87.2095 293.035,87.0585 294.637,84.1359 296.082,81.4915 296.04,81.487 295.616,81.4278 293.713,81.0995 292.897,80.8659 292.875,69.76 292.862,63.3514 292.966,63.2764 295.1,61.8128 295.773,61.3331 294.366,60.6984 293.95,60.4934 292.855,59.9053 292.821,43.1267 293.597,42.6876 293.791,42.5821 295.688,41.5896 295.952,41.4449 295.176,40.2511 293.232,37.4023 293.208,37.366 292.809,36.7725 292.797,31.0636 292.771,18.1648 301.68,18.1076 301.785,18.1565 305.071,19.849 305.208,19.9213 308.652,21.7974 309.243,22.1091 309.249,21.9429 309.291,21.4015 309.402,20.4666 309.503,19.8566 309.675,19.0497 309.869,18.338 309.963,18.0543 316.278,18.0137 327.34,17.9426 327.761,18.3665 328.814,18.062 329.185,17.9307 339.784,17.8626 351.538,17.787 363.291,17.7115 374.483,17.6395 378.591,19.5246 379.761,20.2131 385.971,24.7713 387.036,25.7466 387.155,25.8815 387.417,23.2549 388.575,21.3293 389.202,20.6012 391.423,18.9102 393.184,18.0796 393.997,17.759 394.776,17.5091 410.304,17.4092 422.057,17.3337 433.81,17.2581 439.062,17.2244 440.926,18.2314 442.263,19.1814 444.289,21.0331 445.613,22.7036 445.722,22.8971 446.629,21.1309 447.392,19.9627 448.834,18.1913 449.836,17.1964 449.888,17.1548 457.317,17.107 469.07,17.0314 480.823,16.9559 " fill="none" stroke-width="0.5" stroke="rgb(0,0,0)" />
	<polygon points="191.403,444.143 191.727,445.098 192.416,447.77 192.714,447.858 194.178,448.18 195.77,448.436 197.312,448.596 198.592,448.646 200.303,448.553 201.927,448.267 203.38,447.791 204.588,447.151 205.558,446.352 206.361,445.312 207.041,443.82 207.484,441.774 202.819,442.122 201.795,442.12 195.577,441.631 194.443,441.443 189.74,440.242 " fill="none" stroke-width="0.5" stroke="rgb(0,0,0)" />
	<polygon points="160.928,432.316 157.929,436.973 156.979,438.137 152.785,442.237 151.505,443.217 148.138,445.203 148.358,445.189 152.251,444.355 155.288,443.116 157.562,441.583 159.231,439.787 160.438,437.642 161.223,434.997 161.532,431.512 161.53,431.333 161.524,431.157 " fill="none" stroke-width="0.5" stroke="rgb(0,0,0)" />
	<polygon points="325.768,416.395 316.263,419.528 314.847,419.83 313.504,419.967 313.536,420.01 314.406,421.605 314.9,422.903 315.172,423.8 315.503,425.253 315.556,425.511 315.809,426.866 315.921,427.344 316.053,427.437 316.087,427.462 316.995,428.115 317.415,428.444 318.282,429.18 319.031,429.925 319.764,430.78 320.666,432.135 320.669,432.14 320.985,431.777 321.159,431.586 321.878,430.823 322.119,430.58 322.834,429.896 323.173,429.593 323.881,429.001 324.362,428.636 325.062,428.151 325.751,427.732 326.441,427.368 327.424,426.947 328.102,426.718 328.529,426.622 327.604,424.865 327.255,423.623 327.004,421.809 327.004,415.831 " fill="none" stroke-width="0.5" stroke="rgb(0,0,0)" />
	<polygon points="378.143,417.615 378.141,417.772 378.128,418.342 379.564,417.955 381.134,418.139 382.545,418.462 384.178,419.026 385.432,419.611 387.044,420.577 388.138,421.396 389.288,422.455 389.247,421.21 389.276,420.736 389.413,419.745 389.489,419.389 388.936,419.33 387.726,419.087 384.166,418.023 383.219,417.66 379.881,416.08 379.112,415.652 378.143,415.027 " fill="none" stroke-width="0.5" stroke="rgb(0,0,0)" />
	<polygon points="165.312,413.595 165.317,414.572 164.996,419.256 164.863,420.204 164.66,421.149 167.64,420.193 170.815,420.863 171.291,421.095 171.238,420.762 171.182,419.128 171.215,418.761 171.472,417.42 171.568,417.101 172.195,415.659 172.352,415.388 173.356,414.071 173.573,413.85 174.584,413.034 173.151,412.442 172.603,412.185 169.967,410.803 169.443,410.498 167.015,408.931 166.49,408.554 164.817,407.229 " fill="none" stroke-width="0.5" stroke="rgb(0,0,0)" />
	<polygon points="244.24,411.832 243.461,416.808 242.891,418.654 242.016,420.49 242.294,420.113 244.39,415.858 245.597,411.614 245.157,411.55 244.273,411.308 " fill="none" stroke-width="0.5" stroke="rgb(0,0,0)" />
	<polygon points="258.636,399.697 258.622,400.787 258.527,401.798 258.28,403.072 258.005,404.003 257.507,405.226 257.067,406.059 256.462,406.971 257.576,407.404 258.139,407.654 260.999,409.081 261.434,409.319 264.217,410.975 264.58,411.208 267.198,413.004 267.53,413.247 269.894,415.093 270.232,415.375 272.255,417.181 272.649,417.562 272.835,417.758 272.885,417.749 274.17,417.527 274.449,417.485 275.783,417.312 276.048,417.284 277.431,417.16 277.68,417.143 279.112,417.068 279.347,417.06 280.829,417.036 281.096,417.037 282.11,417.06 279.438,416.186 278.109,415.584 269.503,410.491 268.37,409.648 261.269,403.092 260.389,402.1 258.635,399.681 " fill="none" stroke-width="0.5" stroke="rgb(0,0,0)" />
	<polygon points="363.649,399.918 365.049,400.218 365.817,400.431 367.1,400.87 367.234,399.116 " fill="none" stroke-width="0.5" stroke="rgb(0,0,0)" />
	<polygon points="349.284,395.192 348.666,396.224 346.319,399.447 347.636,399.218 348.41,399.129 352.918,398.877 353.533,398.871 357.318,399.008 356.759,398.763 355.682,398.029 354.415,396.905 353.436,395.786 352.744,394.84 351.888,393.423 351.479,392.631 351.024,391.587 " fill="none" stroke-width="0.5" stroke="rgb(0,0,0)" />
	<polygon points="207.107,388.647 205.779,388.632 200.539,388.054 200.985,388.754 202.823,392.139 203.237,393.062 204.378,396.227 204.501,396.716 206.696,393.471 208.24,391.854 212.195,388.904 214.194,388.017 " fill="none" stroke-width="0.5" stroke="rgb(0,0,0)" />
	<polygon points="308.752,393.522 308.252,393.669 305.039,394.478 304.425,394.602 300.717,395.175 300.038,395.245 295.796,395.462 295.588,395.46 297.597,396.003 304.339,396.587 307.615,396.452 310.568,396.062 311.516,395.837 310.464,394.373 310.209,393.541 310.179,393.042 " fill="none" stroke-width="0.5" stroke="rgb(0,0,0)" />
	<polygon points="221.652,386.52 222.399,386.476 223.444,386.556 224.22,386.662 225.073,386.829 224.993,385.844 224.994,385.537 " fill="none" stroke-width="0.5" stroke="rgb(0,0,0)" />
	<polygon points="246.227,368.757 242.161,374.223 241.451,374.992 242.15,375.349 243.035,375.941 244.135,376.862 244.878,377.634 245.236,378.082 246.15,378.108 247.396,378.233 248.324,378.426 247.341,374.799 247.134,373.645 246.635,368.078 " fill="none" stroke-width="0.5" stroke="rgb(0,0,0)" />
	<polygon points="83.754,366.446 83.4698,366.489 82.6282,366.6 81.8227,366.658 79.5092,366.682 78.4744,366.59 78.591,366.759 79.696,369.554 80.665,375.953 80.8492,375.731 81.5424,375.014 84.0509,372.78 84.92,372.124 87.3993,370.552 88.0287,370.236 87.5401,369.896 86.0545,368.63 85.1749,367.724 84.0993,366.385 " fill="none" stroke-width="0.5" stroke="rgb(0,0,0)" />
	<polygon points="172.055,373.585 172.293,374.192 172.537,374.212 172.835,374.221 173.28,374.215 173.587,374.205 173.284,373.889 171.485,371.648 " fill="none" stroke-width="0.5" stroke="rgb(0,0,0)" />
	<polygon points="149.465,373.999 149.151,373.656 148.905,373.459 " fill="none" stroke-width="0.5" stroke="rgb(0,0,0)" />
	<polygon points="353.761,364.595 355.569,366.323 356.467,370.42 356.22,372.812 356.741,372.565 357.434,372.284 359.003,371.746 359.527,371.59 361.21,371.163 361.934,370.923 360.244,370.05 359.114,369.315 357.524,368.033 356.56,367.081 355.279,365.529 354.53,364.41 354.331,364.036 " fill="none" stroke-width="0.5" stroke="rgb(0,0,0)" />
	<polygon points="324.078,367.262 323.389,368.354 322.424,369.6 322.231,369.803 323.484,369.774 327.032,369.544 329.972,369.227 329.382,368.996 326.766,367.654 325.591,366.886 324.652,366.121 " fill="none" stroke-width="0.5" stroke="rgb(0,0,0)" />
	<polygon points="276.572,367.145 277.026,367.041 277.234,365.978 277.236,365.968 " fill="none" stroke-width="0.5" stroke="rgb(0,0,0)" />
	<polygon points="295.388,357.376 293.951,358.025 291.122,358.918 292.116,359.457 293.985,360.843 294.132,360.955 296.448,362.774 297.142,363.247 296.962,362.297 296.818,360.76 296.796,359.817 296.849,358.71 296.895,358.184 297.033,357.093 297.088,356.736 297.167,356.306 " fill="none" stroke-width="0.5" stroke="rgb(0,0,0)" />
	<polygon points="117.653,354.451 116.776,354.861 116.795,356.464 116.681,357.782 116.269,359.972 115.884,361.274 115.109,363.166 115.206,363.139 116.396,362.922 120.647,362.537 121.986,362.551 123.921,362.764 122.905,362.045 121.808,361.102 120.654,359.817 119.987,358.847 119.138,357.126 118.806,356.11 118.5,354.586 118.45,353.99 " fill="none" stroke-width="0.5" stroke="rgb(0,0,0)" />
	<polygon points="441.304,355.62 442.157,356.806 445.205,362.197 445.545,362.987 444.872,359.104 442.896,355.984 439.684,353.483 439.129,353.205 " fill="none" stroke-width="0.5" stroke="rgb(0,0,0)" />
	<polygon points="394.752,340.464 394.551,340.633 393.403,341.556 392.813,341.979 391.792,342.632 390.088,343.41 389.253,343.657 386.517,343.882 386.329,343.858 386.252,343.839 386.564,344.488 387.694,347.688 388.033,349.162 388.274,351.28 388.971,350.594 393.583,346.73 395.19,345.732 398.664,344.205 398.339,343.854 397.062,342.316 396.91,342.127 395.563,340.379 395.275,340.009 " fill="none" stroke-width="0.5" stroke="rgb(0,0,0)" />
	<polygon points="58.0023,342.267 61.3136,347.592 62.4494,348.716 62.4397,347.774 62.5903,346.291 63.0817,344.015 63.5243,342.673 64.4527,340.616 65.1016,339.487 65.211,339.333 62.7226,338.799 61.8187,338.538 59.35,337.631 58.2149,337.089 57.3041,336.543 " fill="none" stroke-width="0.5" stroke="rgb(0,0,0)" />
	<polygon points="164.403,296.793 163.463,297.2 162.193,297.64 160.881,297.95 159.698,298.107 158.263,298.142 157.907,298.112 156.776,297.919 156.37,297.814 155.818,297.616 157.941,300.878 158.317,301.533 162.374,309.636 162.94,311.255 164.479,318.56 164.596,320.534 164.344,323.375 164.144,324.507 163.394,327.322 163.003,328.405 161.766,331.085 161.162,332.132 159.448,334.569 158.598,335.557 156.417,337.641 155.301,338.503 152.664,340.127 151.49,340.681 151.955,340.875 152.848,341.328 155.308,342.819 156.108,343.389 158.458,345.334 159.106,345.948 161.216,348.232 160.886,345.333 160.846,344.357 160.905,342.573 160.935,342.116 161.114,340.351 161.189,339.826 161.495,338.148 161.648,337.495 162.087,335.971 162.402,335.107 162.98,333.805 163.651,332.63 164.375,331.617 165.804,330.153 166.68,329.496 169.223,328.319 170.206,328.096 167.51,324.015 166.854,322.743 164.554,316.808 164.156,315.243 163.341,308.908 163.296,307.696 163.465,304.538 163.541,303.827 164.033,300.78 164.182,300.091 164.977,297.167 165.192,296.511 165.258,296.341 " fill="none" stroke-width="0.5" stroke="rgb(0,0,0)" />
	<polygon points="317.354,342.179 316.314,342.681 315.423,343.023 316.013,343.35 316.962,343.993 316.967,343.963 317.386,342.159 " fill="none" stroke-width="0.5" stroke="rgb(0,0,0)" />
	<polygon points="416.555,332.26 415.497,332.461 413.71,332.655 413.475,332.676 412.647,332.736 412.656,332.787 412.912,334.207 412.93,334.312 413.153,335.681 413.19,335.932 413.348,337.202 413.39,337.675 413.45,338.804 413.457,339.353 413.447,339.687 413.415,340.175 413.381,340.51 413.275,341.193 413.208,341.515 413.184,341.599 418.071,342.016 419.199,342.21 421.535,342.822 419.715,340.754 418.215,337.834 416.975,332.461 416.953,332.15 " fill="none" stroke-width="0.5" stroke="rgb(0,0,0)" />
	<polygon points="127.101,336.195 127.246,337.648 127.226,339.886 127.15,340.587 128.316,340.021 129.161,339.679 131.016,339.073 129.993,338.332 128.086,336.631 127.211,335.684 126.907,335.282 " fill="none" stroke-width="0.5" stroke="rgb(0,0,0)" />
	<polygon points="379.577,335.543 379.827,335.722 379.84,335.733 379.862,335.161 " fill="none" stroke-width="0.5" stroke="rgb(0,0,0)" />
	<polygon points="385.288,310.659 384.304,312.376 383.432,314.257 382.807,315.97 382.602,317.025 382.401,319.219 382.227,322.172 382.039,325.356 382.026,325.544 381.764,328.549 381.75,328.661 382.338,327.243 382.362,327.184 383.514,324.479 384.594,321.733 385.469,319.042 386.034,316.504 386.246,313.956 386.222,312.669 386.115,310.95 385.961,309.707 " fill="none" stroke-width="0.5" stroke="rgb(0,0,0)" />
	<polygon points="322.156,325.82 321.482,326.279 321.719,326.628 322.106,327.38 322.252,325.695 " fill="none" stroke-width="0.5" stroke="rgb(0,0,0)" />
	<polygon points="121.788,324.678 121.034,325.031 121.137,325.116 122.68,326.671 122.825,326.847 122.652,325.96 122.482,324.259 " fill="none" stroke-width="0.5" stroke="rgb(0,0,0)" />
	<polygon points="74.5074,311.872 73.5785,315.434 73.271,318.281 73.3011,319.349 73.4281,320.552 73.6612,321.652 74.035,322.738 74.618,323.907 74.905,324.336 75.2588,323.613 76.3631,321.815 77.1447,320.782 78.5624,319.243 79.5281,318.38 81.2291,317.133 82.3286,316.478 84.2829,315.555 84.7955,315.369 84.2477,315.207 83.0614,314.728 81.4674,313.9 80.3747,313.19 78.9456,312.049 77.9885,311.114 76.7798,309.67 76.0153,308.541 75.8307,308.197 " fill="none" stroke-width="0.5" stroke="rgb(0,0,0)" />
	<polygon points="343.466,312.572 342.413,313.965 341.624,314.767 340.977,315.28 341.609,315.637 346.469,318.95 347.353,319.67 351.093,323.288 351.609,322.113 351.84,321.639 352.652,320.123 352.666,320.099 352.589,320.081 352.304,320.007 350.456,319.482 349.512,319.135 348.204,318.539 345.483,316.27 344.987,315.558 343.797,312.133 343.837,311.917 " fill="none" stroke-width="0.5" stroke="rgb(0,0,0)" />
	<polygon points="96.7961,314.82 96.4077,314.941 98.0966,315.541 97.9723,315.18 97.7728,314.394 " fill="none" stroke-width="0.5" stroke="rgb(0,0,0)" />
	<polygon points="428.556,313.021 428.545,313.23 428.646,313.188 429.396,312.961 428.643,312.884 428.561,312.875 " fill="none" stroke-width="0.5" stroke="rgb(0,0,0)" />
	<polygon points="404.996,307.673 406.588,309.592 408.381,311.376 408.491,311.466 408.183,310.967 405.835,307.854 403.828,305.917 " fill="none" stroke-width="0.5" stroke="rgb(0,0,0)" />
	<polygon points="131.261,300.259 131.401,301.154 131.927,307.124 131.922,308.355 131.897,308.608 133.928,308.379 134.108,308.396 135.816,308.79 135.966,308.846 136.882,309.378 135.526,306.565 130.966,298.924 130.954,298.904 " fill="none" stroke-width="0.5" stroke="rgb(0,0,0)" />
	<polygon points="345.864,306.357 345.267,306.349 345.275,306.498 345.174,307.743 345.163,307.806 346.382,306.323 " fill="none" stroke-width="0.5" stroke="rgb(0,0,0)" />
	<polygon points="312.137,304.475 309.098,306.517 311.028,306.767 311.642,306.876 313.523,307.3 313.253,306.702 312.728,304.906 312.61,304.095 " fill="none" stroke-width="0.5" stroke="rgb(0,0,0)" />
	<polygon points="108.837,299.897 108.946,299.937 109.212,300.085 109.113,298.642 " fill="none" stroke-width="0.5" stroke="rgb(0,0,0)" />
	<polygon points="434.67,293.29 433.718,294.621 433.63,294.742 432.592,296.128 432.849,296.273 434.758,297.304 434.915,297.391 436.457,298.278 435.245,294.267 434.826,293.051 " fill="none" stroke-width="0.5" stroke="rgb(0,0,0)" />
	<polygon points="458.914,288.427 458.063,288.821 457.042,289.666 455.792,291.176 454.721,292.832 456.369,292.88 459.558,293.394 460.826,293.8 460.827,293.741 460.827,293.541 460.757,292.117 460.563,290.793 460.251,289.586 459.877,288.667 459.662,288.322 " fill="none" stroke-width="0.5" stroke="rgb(0,0,0)" />
	<polygon points="87.7594,283.61 87.7025,283.722 85.3476,288.256 84.7765,289.358 86.4259,290.224 86.9475,290.639 87.5974,291.229 88.162,291.814 88.4598,292.122 88.7656,291.377 89.2179,289.179 89.5338,285.863 89.6876,281.579 89.701,279.693 " fill="none" stroke-width="0.5" stroke="rgb(0,0,0)" />
	<polygon points="56.3625,279.154 56.6315,279.579 57.0989,280.3 57.1431,280.369 57.5882,281.075 57.7256,281.303 58.1171,281.982 58.3396,282.401 58.6653,283.072 58.9347,283.708 59.1824,284.389 59.4269,285.227 59.5844,285.937 59.6098,286.11 59.7984,285.762 60.487,282.764 60.4806,282.74 60.4529,282.67 60.404,282.58 60.3007,282.434 60.1034,282.211 59.5603,281.709 59.5446,281.694 57.6226,279.903 57.2258,279.501 55.7778,277.904 " fill="none" stroke-width="0.5" stroke="rgb(0,0,0)" />
	<polygon points="170.964,278.679 171.3,279.137 171.543,279.5 171.86,280.025 172.07,280.412 172.376,281.054 172.542,281.455 172.821,282.279 172.93,282.684 173.054,283.369 174.356,281.984 174.602,281.836 174.2,281.524 170.907,278.606 " fill="none" stroke-width="0.5" stroke="rgb(0,0,0)" />
	<polygon points="427.85,278.724 427.383,279.595 426.703,280.275 427.851,280.025 429.647,279.908 428.287,277.039 428.223,276.926 " fill="none" stroke-width="0.5" stroke="rgb(0,0,0)" />
	<polygon points="166.958,273.805 167.546,274.887 168.103,275.735 168.573,276.297 169.065,276.731 169.028,276.689 166.823,273.519 " fill="none" stroke-width="0.5" stroke="rgb(0,0,0)" />
	<polygon points="340.14,273.938 339.377,274.76 339.173,275.568 339.679,275.788 340.378,275.973 340.368,275.861 340.328,275.316 340.314,275.034 340.299,274.545 340.321,273.837 " fill="none" stroke-width="0.5" stroke="rgb(0,0,0)" />
	<polygon points="157.119,226.046 156.111,227.801 155.514,229.026 156.974,230.889 157.472,233.723 157.412,235.15 157.393,235.449 157.234,237.271 157.22,237.411 156.995,239.483 156.988,239.548 156.73,241.724 156.728,241.739 156.473,243.857 156.257,245.732 156.118,247.142 156.08,247.85 156.098,248.409 157.585,249.307 159.14,252.046 159.605,253.671 159.732,254.191 160.097,256.002 160.154,256.325 160.446,258.254 160.471,258.434 160.715,260.412 160.722,260.473 160.943,262.405 161.157,264.151 161.286,264.997 162.263,265.331 164.675,268.369 163.983,265.347 164.075,262.003 165.217,258.03 166.495,255.607 169.504,251.972 170.445,251.041 171.955,249.815 169.701,250.957 166.144,251.66 162.741,250.406 160.49,247.563 160.12,243.587 160.359,242.459 160.566,241.388 160.748,240.32 160.902,239.255 161.026,238.193 161.118,237.134 161.174,236.078 161.192,235.122 161.096,233.179 160.805,231.339 160.276,229.491 159.455,227.591 158.264,225.6 157.76,224.959 " fill="none" stroke-width="0.5" stroke="rgb(0,0,0)" />
	<polygon points="420.692,267.488 420.641,267.6 422.104,267.994 422.794,268.236 422.402,267.671 421.213,266.293 " fill="none" stroke-width="0.5" stroke="rgb(0,0,0)" />
	<polygon points="405.592,256.598 405.835,256.914 406.425,257.732 406.565,257.624 407.797,256.632 406.892,256.285 404.874,255.719 " fill="none" stroke-width="0.5" stroke="rgb(0,0,0)" />
	<polygon points="129.211,238.273 128.973,240.394 128.844,242.367 128.815,243.724 130.176,253.484 131.676,257.465 131.554,256.429 132.118,252.847 133.151,251.734 133.142,251.648 132.778,250.142 132.132,248.05 131.32,245.611 131.304,245.563 130.468,242.988 130.398,242.756 129.669,240.199 129.555,239.737 129.227,238.175 " fill="none" stroke-width="0.5" stroke="rgb(0,0,0)" />
	<polygon points="447.55,253.23 447.553,253.236 448.856,256.477 449.761,254.873 449.821,254.768 450.069,254.348 447.404,252.869 " fill="none" stroke-width="0.5" stroke="rgb(0,0,0)" />
	<polygon points="382.599,244.948 381.979,246.111 381.221,247.241 380.396,248.234 379.429,249.183 378.424,249.988 377.304,250.714 376.918,250.913 376.994,250.992 378.113,252.363 378.389,252.727 378.695,253.158 378.796,253.053 379.053,252.797 380.24,251.678 380.983,251.071 382.11,250.279 384.102,249.324 385.141,249.024 387.068,248.834 385.444,247.69 383.665,245.832 382.793,244.474 " fill="none" stroke-width="0.5" stroke="rgb(0,0,0)" />
	<polygon points="393.766,252.712 394.16,252.529 393.494,252.267 " fill="none" stroke-width="0.5" stroke="rgb(0,0,0)" />
	<polygon points="359.401,247.386 358.338,248.103 358.064,248.252 358.222,248.266 361.619,249.533 363.116,251.439 363.181,251.282 363.334,250.993 363.598,250.65 362.554,249.956 361.564,249.151 360.645,248.242 359.818,247.249 359.727,247.117 " fill="none" stroke-width="0.5" stroke="rgb(0,0,0)" />
	<polygon points="313.522,224.894 312.322,225.407 310.463,225.995 309.133,226.272 308.56,226.331 308.996,227.679 310.106,228.928 312.383,230.282 315.882,231.802 316.129,231.915 319.929,233.752 321.132,234.5 324.397,237.046 326.025,238.887 328.31,242.701 328.597,243.499 329.059,243.211 330.201,242.64 331.369,242.19 332.37,241.894 331.399,240.109 330.888,238.901 330.184,236.641 329.915,235.323 329.871,234.891 328.966,235.076 327.561,235.218 326.205,235.218 324.811,235.076 323.489,234.804 322.186,234.396 320.978,233.883 319.796,233.238 318.736,232.52 317.703,231.666 316.806,230.768 315.952,229.733 315.235,228.672 314.589,227.486 314.078,226.279 313.67,224.969 313.641,224.829 " fill="none" stroke-width="0.5" stroke="rgb(0,0,0)" />
	<polygon points="189.415,234.621 188.708,235.945 187.183,238.164 187.895,237.524 189.718,234.95 190.335,232.334 190.333,232.309 " fill="none" stroke-width="0.5" stroke="rgb(0,0,0)" />
	<polygon points="464.633,220.162 464.595,220.428 464.119,223.369 464.097,223.497 463.552,226.498 463.549,226.514 463.012,229.424 462.566,232.071 462.277,234.283 462.192,235.775 462.422,235.444 463.786,232.948 464.902,230.201 465.627,227.407 465.872,224.772 465.328,219.899 464.83,218.535 " fill="none" stroke-width="0.5" stroke="rgb(0,0,0)" />
	<polygon points="379.04,228.957 379.332,229.189 379.427,228.637 " fill="none" stroke-width="0.5" stroke="rgb(0,0,0)" />
	<polygon points="46.1966,228.041 46.3454,228.16 46.6283,228.453 46.6665,228.503 46.8789,227.79 " fill="none" stroke-width="0.5" stroke="rgb(0,0,0)" />
	<polygon points="85.4094,213.609 85.6684,213.812 86.7752,214.911 87.238,215.493 87.9453,216.584 88.3016,217.272 88.7181,218.265 88.97,219.033 89.1952,219.921 89.3447,220.742 89.4417,221.553 89.4911,222.401 89.4635,223.304 90.4308,222.681 91.1677,222.317 93.0281,221.715 93.7571,221.593 95.8002,221.566 96.444,221.656 98.2424,222.174 98.8541,222.447 100.348,223.366 100.665,223.623 100.898,220.49 101.046,219.501 101.887,215.801 102.172,214.869 102.41,214.253 100.865,214.612 97.8668,214.942 96.3904,214.941 93.2011,214.585 91.6984,214.239 88.8342,213.219 87.4633,212.547 86.6465,212.023 " fill="none" stroke-width="0.5" stroke="rgb(0,0,0)" />
	<polygon points="442.834,210.676 442.467,210.809 438.157,212.219 437.638,212.366 432.517,213.597 431.91,213.713 425.888,214.584 425.245,214.645 424.039,214.702 425.972,215.641 427.32,216.51 431.014,219.574 432.056,220.659 433.889,223.054 434.791,220.956 435.433,219.795 437.956,216.141 438.592,215.354 441.577,212.186 442.17,211.628 443.745,210.318 " fill="none" stroke-width="0.5" stroke="rgb(0,0,0)" />
	<polygon points="133.611,218.751 130.833,219.63 132.337,221.003 132.809,222.624 132.894,222.147 132.993,221.687 133.65,219.074 133.756,218.722 " fill="none" stroke-width="0.5" stroke="rgb(0,0,0)" />
	<polygon points="64.3569,216.415 64.1516,216.585 65.3065,217.346 65.8234,217.814 66.957,219.148 67.3567,219.768 67.9687,220.964 68.1698,221.48 68.3559,221.103 70.9121,216.754 70.4882,216.681 68.4165,216.139 67.2651,215.722 65.4899,214.888 " fill="none" stroke-width="0.5" stroke="rgb(0,0,0)" />
	<polygon points="188.115,213.201 189.025,214.564 190.234,216.965 190.754,218.37 190.783,218.489 192.177,217.431 194.897,217.155 194.591,216.046 194.056,215.027 193.366,214.233 192.356,213.496 190.837,212.795 188.702,212.204 187.052,211.969 " fill="none" stroke-width="0.5" stroke="rgb(0,0,0)" />
	<polygon points="381.453,200.203 380.939,201.41 380.257,202.657 379.54,203.716 378.638,204.805 378.257,205.186 378.557,205.388 379.772,206.389 380.678,207.295 381.314,208.065 381.651,206.623 384.195,204.039 385.959,203.598 382.583,200.846 381.578,199.803 " fill="none" stroke-width="0.5" stroke="rgb(0,0,0)" />
	<polygon points="55.8929,205.22 55.6703,205.382 56.1477,205.279 57.4451,204.984 57.2413,204.339 57.2036,204.155 " fill="none" stroke-width="0.5" stroke="rgb(0,0,0)" />
	<polygon points="366.626,169.056 365.642,169.866 364.575,170.585 364.006,170.893 364.242,171.24 365.281,173.138 365.795,174.345 366.453,176.438 366.727,177.764 366.957,180.003 366.957,181.373 366.952,181.421 367.601,181.353 368.971,181.353 370.331,181.492 370.087,180.879 367.321,172.031 367.122,171.219 366.716,168.966 " fill="none" stroke-width="0.5" stroke="rgb(0,0,0)" />
	<polygon points="146.351,174.922 145.463,175.157 143.116,175.609 143.404,175.845 146.798,179.09 147.333,179.665 147.46,179.819 147.54,179.312 147.777,178.311 148.736,175.315 149.417,173.881 " fill="none" stroke-width="0.5" stroke="rgb(0,0,0)" />
	<polygon points="108.289,162.45 107.391,163.349 106.356,164.205 105.295,164.924 104.109,165.571 102.9,166.083 101.592,166.492 100.271,166.763 98.8694,166.906 98.1315,166.906 100.101,167.921 100.798,168.335 104.059,170.55 104.746,171.085 107.745,173.752 108.43,174.458 111.019,177.551 111.673,178.484 112.149,179.301 112.616,178.197 113.659,176.278 114.599,174.958 115.986,173.441 117.363,172.29 117.876,171.967 117.624,171.823 116.431,170.953 113.538,168.309 112.605,167.258 110.383,164.147 109.736,163.024 109.054,161.523 " fill="none" stroke-width="0.5" stroke="rgb(0,0,0)" />
	<polygon points="309.805,170.427 309.069,171.572 310.098,171.572 311.505,171.715 312.822,171.984 313.298,172.132 313.527,171.393 313.803,170.74 312.43,170.46 311.971,170.35 310.122,169.835 310.095,169.827 " fill="none" stroke-width="0.5" stroke="rgb(0,0,0)" />
	<polygon points="161.765,166.93 162.192,166.935 163.92,167.273 164.12,167.341 163.449,165.574 " fill="none" stroke-width="0.5" stroke="rgb(0,0,0)" />
	<polygon points="344.596,163.394 344.547,163.435 344.848,163.34 345.001,163.309 344.922,163.057 " fill="none" stroke-width="0.5" stroke="rgb(0,0,0)" />
	<polygon points="423.206,143.015 421.968,144.496 419.226,146.948 418.073,147.778 414.457,149.835 413.501,150.283 412.872,150.519 417.142,150.903 418.44,151.151 424.86,153.048 426.097,153.553 431.783,156.564 432.767,157.201 434.714,158.72 434.294,157.924 433.779,156.643 431.933,150.205 431.915,146.706 431.422,146.577 430.428,146.23 428.749,145.492 427.561,144.818 426.201,143.85 424.949,142.693 424.059,141.631 " fill="none" stroke-width="0.5" stroke="rgb(0,0,0)" />
	<polygon points="355.028,136.944 355.085,138.064 355.063,139.035 354.437,145.636 354.303,146.294 354.342,146.282 355.655,146.015 356.996,145.88 358.338,145.88 359.678,146.015 360.991,146.282 362.238,146.669 363.448,147.179 364.577,147.791 365.646,148.512 366.63,149.323 366.955,149.648 367.365,149.148 367.422,149.094 368.405,148.427 365.136,146.511 364.112,145.773 358.775,141.104 357.965,140.26 354.995,136.566 " fill="none" stroke-width="0.5" stroke="rgb(0,0,0)" />
	<polygon points="130.026,135.192 129.503,135.524 129.175,135.766 128.832,136.07 125.633,137.619 125.874,138.131 126.372,139.619 126.85,141.913 126.902,142.191 127.296,144.583 127.482,145.362 127.543,145.288 128.054,144.445 128.612,143.168 128.908,142.269 129.221,141.182 129.489,140.102 129.71,139.042 129.881,138.014 130.002,137.031 130.073,136.106 130.096,135.261 130.093,135.155 " fill="none" stroke-width="0.5" stroke="rgb(0,0,0)" />
	<polygon points="102.606,139.604 102.467,140.283 102.9,140.419 104.107,140.931 105.293,141.577 106.354,142.295 107.107,142.917 107.531,141.281 107.621,141.001 104.838,140.302 102.652,139.15 " fill="none" stroke-width="0.5" stroke="rgb(0,0,0)" />
	<polygon points="327.463,141.869 327.444,142.053 328.022,141.91 327.461,141.356 " fill="none" stroke-width="0.5" stroke="rgb(0,0,0)" />
	<polygon points="315.012,124.122 313.625,124.496 312.41,125.063 311.361,125.785 310.494,126.616 309.836,127.488 309.408,128.304 309.001,129.588 307.661,131.631 307.696,131.654 308.733,132.209 309.7,132.601 310.651,132.866 311.648,133.025 312.814,133.084 313.123,133.075 313.612,133.037 314.197,132.973 314.852,132.888 315.537,132.796 315.591,132.789 316.246,132.706 316.424,132.686 317.013,132.627 317.383,132.6 317.641,132.589 317.102,131.961 316.861,131.631 316.322,130.763 316.138,130.408 315.751,129.508 315.622,129.134 315.381,128.239 315.305,127.852 315.192,126.984 315.167,126.591 315.19,125.474 315.267,124.731 315.393,124.089 " fill="none" stroke-width="0.5" stroke="rgb(0,0,0)" />
	<polygon points="92.0802,114.485 91.6387,114.861 89.3755,116.624 88.4111,117.25 86.0729,118.497 84.2149,119.159 81.8136,119.632 80.2181,119.702 80.4051,122.985 80.4143,123.515 80.3825,124.942 80.3698,125.232 80.2787,126.62 80.255,126.895 80.2293,127.136 80.9172,126.566 81.979,125.846 83.1651,125.199 84.3742,124.685 85.6831,124.276 87.0055,124.004 88.4085,123.861 89.7661,123.861 91.1712,124.004 92.4918,124.275 93.8026,124.685 95.0106,125.197 95.8469,125.653 95.8394,125.619 95.7346,125.035 94.9409,119.1 94.9232,118.955 94.2745,113.144 94.1832,112.532 " fill="none" stroke-width="0.5" stroke="rgb(0,0,0)" />
	<polygon points="184.885,108.828 184.843,109.72 184.767,110.46 184.635,111.286 184.419,112.208 184.189,112.952 183.73,114.068 183.394,114.714 182.558,115.956 182.107,116.487 180.83,117.647 180.256,118.046 178.681,118.858 177.977,119.109 176.415,119.464 175.571,119.551 173.195,119.362 173.719,120.228 174.242,121.293 175.929,125.674 176.228,126.681 176.234,126.708 176.481,126.488 177.109,125.993 180.109,123.907 180.929,123.419 184.049,121.853 185.096,121.434 188.318,120.449 189.587,120.192 192.891,119.85 194.323,119.856 194.591,119.885 193.343,118.655 192.936,118.215 188.692,113.203 188.473,112.93 184.855,108.175 " fill="none" stroke-width="0.5" stroke="rgb(0,0,0)" />
	<polygon points="425.1,124.898 425.213,125.36 425.4,125.156 425.665,124.923 424.918,124.287 " fill="none" stroke-width="0.5" stroke="rgb(0,0,0)" />
	<polygon points="124.36,112.193 122.777,118.527 122.747,118.643 122.353,120.106 122.848,119.291 123.471,118.43 126.254,115.159 127.025,114.39 128.119,113.462 127.935,113.323 127.059,112.531 125.558,110.908 125.262,110.567 124.926,110.15 " fill="none" stroke-width="0.5" stroke="rgb(0,0,0)" />
	<polygon points="411.395,103.79 413.694,105.171 415.837,107.137 416.719,108.123 418.848,111.039 419.283,111.716 419.891,112.802 419.801,112.454 419.64,112.026 419.271,111.652 417.515,108.48 417.67,104.857 418.583,103.495 416.323,103.472 416.193,103.47 412.86,103.372 412.732,103.367 409.791,103.224 " fill="none" stroke-width="0.5" stroke="rgb(0,0,0)" />
	<polygon points="39.5498,107.855 40.5508,108.211 40.7168,107.643 40.7184,107.639 " fill="none" stroke-width="0.5" stroke="rgb(0,0,0)" />
	<polygon points="349.227,107.651 349.372,108.092 349.509,107.971 349.953,107.609 350.142,107.469 350.31,107.349 349.043,107.254 " fill="none" stroke-width="0.5" stroke="rgb(0,0,0)" />
	<polygon points="390.331,101.314 391.963,102.593 393.008,103.711 393.704,104.596 394.549,105.878 394.599,105.955 394.754,106.196 395.465,106.029 396.852,105.575 398.475,104.963 400.187,104.3 400.358,104.237 402.008,103.649 402.488,103.498 404.007,103.082 404.978,102.894 402.3,102.663 402.176,102.651 398.75,102.292 398.625,102.277 395.199,101.853 395.073,101.836 391.654,101.346 391.563,101.333 391.088,101.258 390.527,101.145 390.142,101.05 389.481,100.84 " fill="none" stroke-width="0.5" stroke="rgb(0,0,0)" />
	<polygon points="145.694,101.937 145.117,105.16 145.004,105.672 145.268,105.632 149.398,105.33 150.641,105.355 151.791,105.485 149.716,103.711 145.928,100.665 " fill="none" stroke-width="0.5" stroke="rgb(0,0,0)" />
	<polygon points="379.41,99.9803 379.614,99.9212 380.02,99.8173 380.589,99.6905 381,99.6124 381.559,99.5241 381.974,99.4717 382.521,99.4201 382.94,99.3937 383.472,99.3769 384.695,99.4503 386.66,99.7504 388.327,100.322 387.823,100.065 387.592,99.9169 386.266,98.7998 386.101,98.6192 385.044,97.0775 384.936,96.8599 384.65,96.0594 " fill="none" stroke-width="0.5" stroke="rgb(0,0,0)" />
	<polygon points="70.4616,93.1397 65.4505,95.7771 64.1509,96.4941 64.8781,96.7068 68.2606,98.2666 69.8158,99.268 69.8236,99.2007 69.8358,99.1009 70.1238,96.8856 70.125,96.8759 70.4076,94.7268 70.6037,93.0764 " fill="none" stroke-width="0.5" stroke="rgb(0,0,0)" />
	<polygon points="126.222,63.7754 125.491,67.2439 125.4,67.6238 124.553,70.7309 124.03,72.0658 123.996,72.1313 126.394,73.6847 126.588,73.887 126.598,73.7739 126.68,73.1736 126.852,72.2353 127.108,71.2564 127.37,70.4984 128.107,69.0005 128.476,68.439 130.218,66.6425 130.713,66.2937 130.718,66.2919 130.446,65.9468 130.266,65.708 128.537,63.3021 126.91,61.1465 126.867,61.0993 " fill="none" stroke-width="0.5" stroke="rgb(0,0,0)" />
	<polygon points="104.818,60.4453 103.082,61.8595 101.233,63.4429 101.066,63.5811 99.2845,65.009 98.6419,65.4647 97.024,66.4747 96.4171,66.739 96.5835,67.1611 96.7729,67.8204 96.9681,68.738 97.0758,69.5046 97.1358,70.1742 97.1699,71.0442 97.1612,71.7372 97.1388,72.0846 98.0948,71.224 100.383,69.8729 102.441,69.1594 106.061,68.9431 106.477,69.1328 106.241,66.312 106.223,66.0316 106.081,62.5883 105.81,59.7631 " fill="none" stroke-width="0.5" stroke="rgb(0,0,0)" />
	<polygon points="400.68,59.167 400.676,60.4158 400.632,60.8755 400.941,60.7567 401.195,60.6849 402.398,60.4607 402.661,60.4363 405.728,60.8704 406.838,61.3058 408.677,62.394 410.056,63.5418 410.439,63.8866 412.066,65.4685 413.817,67.1117 415.589,68.535 417.353,69.6058 419.081,70.256 421.174,70.5201 421.382,70.5103 421.971,70.4209 422.474,70.2737 422.775,70.125 422.883,70.0373 422.957,69.934 423.121,69.4891 423.176,68.9693 422.759,67.5852 421.156,65.93 417.586,63.8176 412.8,61.8349 407.651,60.1278 402.968,58.6891 402.654,58.5837 400.559,57.8247 " fill="none" stroke-width="0.5" stroke="rgb(0,0,0)" />
	<polygon points="162.896,47.2442 162.763,47.5866 161.856,49.207 161.838,49.2303 164.395,50.0995 164.578,50.165 168.11,51.4815 168.115,51.4834 168.268,51.5405 165.943,49.1957 163.11,46.3804 " fill="none" stroke-width="0.5" stroke="rgb(0,0,0)" />
	<polygon points="145.057,51.3015 145.376,50.8735 145.462,50.7832 144.802,50.6301 " fill="none" stroke-width="0.5" stroke="rgb(0,0,0)" />
	<polygon points="89.1227,48.6738 89.1725,48.8364 89.3296,48.6392 " fill="none" stroke-width="0.5" stroke="rgb(0,0,0)" />
	<polygon points="396.71,39.581 397.259,40.8995 397.928,43.1592 398.021,43.0834 400.015,42.0821 400.834,41.737 403.806,40.7105 404.244,40.5757 407.906,39.5855 408.218,39.5091 409.905,39.1387 406.858,37.5288 402.523,35.8857 398.525,34.7484 395.151,33.9041 394.651,33.758 393.264,33.2936 " fill="none" stroke-width="0.5" stroke="rgb(0,0,0)" />
	<polygon points="70.0056,40.3533 69.9955,40.3596 69.0863,40.9263 70.8719,41.1125 71.1419,41.1383 71.47,39.4369 " fill="none" stroke-width="0.5" stroke="rgb(0,0,0)" />
	<polygon points="153.209,28.6728 152.24,29.3543 151.208,29.9506 149.97,30.5257 152.44,32.0687 153.733,32.8503 154.004,28.1694 154.553,27.0432 " fill="none" stroke-width="0.5" stroke="rgb(0,0,0)" />
	<polygon points="82.0875,28.3795 81.2834,30.5421 80.7827,31.3303 80.8152,31.3176 83.9594,30.1531 85.0004,29.7309 84.1743,29.2854 82.2903,27.3853 " fill="none" stroke-width="0.5" stroke="rgb(0,0,0)" />
</svg>
