<?xml version="1.0" standalone="no" ?>
<!DOCTYPE svg PUBLIC "-//W3C//DTD SVG 1.1//EN" "http://www.w3.org/Graphics/SVG/1.1/DTD/svg11.dtd">
<svg width="500px" height="500px" xmlns="http://www.w3.org/2000/svg" version="1.1" >
	<polygon points="473.873,86.3551 472.695,87.7899 471.396,89.0115 464.362,94.0958 463.117,94.8128 459.145,96.5806 459.521,96.7364 460.055,97.0317 460.699,96.2826 465.974,95.2425 468.46,95.753 469.68,96.1228 471.775,96.9749 473.037,97.6462 473.873,98.209 473.873,193.444 473.024,193.734 470.953,193.545 470.395,193.408 473.008,195.579 473.729,196.272 473.873,196.432 473.873,253.601 473.516,254.098 473.437,254.206 473.873,254.184 473.873,281.091 473.052,295.722 472.221,300.969 472.199,300.99 471.169,301.556 471.963,302.595 470.59,311.266 466.445,327.625 460.597,344.498 453.031,361.594 448.657,369.609 447.718,369.013 447.996,369.922 448.126,370.581 443.736,378.625 432.702,395.311 419.922,411.374 405.386,426.541 395.775,434.797 395.722,434.757 395.096,434.202 395.18,435.308 389.085,440.544 371.004,453.119 351.125,464.005 329.419,472.94 316.255,476.694 315.327,475.941 314.326,474.942 312.6,472.828 311.835,471.674 310.592,469.315 310.08,468.061 309.327,465.538 309.069,464.222 308.817,461.617 308.807,461.002 308.086,462.671 307.455,463.819 304.689,467.892 303.189,469.486 302.41,470.088 303.071,470.065 303.867,470.083 304.738,470.153 306.107,470.402 306.776,470.595 308.382,471.286 308.876,471.577 310.398,472.791 310.743,473.156 311.815,474.643 312.037,475.057 312.593,476.425 312.719,476.864 312.883,477.656 305.854,479.661 280.391,483.898 252.987,485.374 226.283,483.981 201.367,479.971 178.221,473.593 156.823,465.087 137.156,454.691 119.206,442.638 102.966,429.162 88.4331,414.499 75.6095,398.887 64.4978,382.569 55.1015,365.792 47.4233,348.805 41.4642,331.863 38.5803,320.553 38.8984,319.752 42.355,312.694 41.8093,312.841 37.9086,312.762 36.7778,312.406 34.6896,299.154 33.8405,283.715 33.8405,151.951 33.8728,151.903 37.3631,147.694 36.8874,147.603 34.3519,146.863 33.8405,146.658 33.8405,38.098 36.656,36.2812 36.748,36.2228 39.0498,34.788 34.8557,33.7255 34.474,33.6171 33.8405,33.4175 33.8405,26.4725 38.4355,26.4373 49.9272,26.3491 61.4189,26.2609 72.9106,26.1728 84.4022,26.0846 95.8939,25.9964 107.386,25.9082 118.877,25.82 130.369,25.7319 130.369,25.7319 141.861,25.6437 153.352,25.5555 164.844,25.4673 176.336,25.3792 187.827,25.291 187.827,25.291 203.794,25.1685 203.782,31.0499 203.782,31.0499 203.756,43.9487 203.706,69.7463 203.706,69.7463 203.68,82.6451 203.674,85.7359 203.174,85.7281 199.193,85.3228 198.511,85.2109 198.567,85.2512 198.763,85.3978 203.566,89.1266 203.667,89.2081 203.629,108.443 203.629,108.443 203.604,121.341 203.553,147.139 203.553,147.139 203.528,160.038 203.502,172.937 203.482,183.333 202.73,183.988 201.628,184.773 199.454,186.023 201.312,186.838 202.449,187.47 203.472,188.171 203.426,211.633 203.426,211.633 203.4,224.532 203.401,224.599 203.488,235.894 203.488,235.946 203.653,246.763 203.655,246.857 203.952,257.163 203.958,257.308 204.442,267.07 204.456,267.274 205.184,276.458 205.211,276.735 206.238,285.308 206.291,285.674 207.672,293.603 207.771,294.076 209.561,301.326 209.738,301.926 211.992,308.465 212.294,309.201 215.068,314.995 215.556,315.853 218.905,320.87 219.638,321.788 223.617,325.993 224.603,326.855 229.269,330.215 230.431,330.891 235.838,333.373 237.032,333.794 243.234,335.363 244.327,335.549 251.381,336.173 251.395,336.014 251.948,337.987 252.124,338.845 253.587,336.101 259.649,335.683 260.747,335.518 267.094,334.04 268.317,333.633 273.813,331.215 275.021,330.531 279.727,327.209 280.759,326.318 284.737,322.129 285.498,321.171 288.811,316.153 289.31,315.26 292.019,309.448 292.32,308.69 294.488,302.12 294.658,301.51 296.347,294.221 296.44,293.747 297.711,285.774 297.759,285.414 298.675,276.795 298.698,276.528 299.32,267.298 299.331,267.108 299.722,257.305 299.726,257.177 299.948,246.837 299.949,246.762 300.065,235.922 300.065,235.891 300.135,224.589 300.135,224.532 300.109,211.633 300.083,198.734 300.057,185.835 300.036,174.964 300.067,174.933 300.143,174.87 300.035,174.865 300.032,172.936 300.032,172.936 300.006,160.038 299.954,134.24 299.954,134.24 299.928,121.341 299.898,106.219 299.95,106.145 300.904,105.064 303.389,102.777 304.62,101.871 307.731,100.075 309.136,99.459 309.893,99.2229 309.778,98.6076 309.714,98.1983 309.63,97.5377 307.363,99.5076 307.144,99.6896 304.867,101.51 304.308,101.913 302.321,103.201 300.655,103.989 299.894,104.232 299.851,82.6449 299.851,82.6449 299.825,69.7461 299.747,31.0497 299.747,31.0497 299.735,25.0702 304.569,25.0391 316.322,24.9636 328.076,24.888 339.829,24.8125 351.582,24.7369 363.335,24.6613 375.089,24.5858 386.045,24.5153 386.119,24.5698 386.962,25.3411 387.032,24.509 410.349,24.3591 422.102,24.2835 433.855,24.208 445.608,24.1324 457.361,24.0569 469.115,23.9813 473.873,23.9507 " fill="none" stroke-width="0.5" stroke="rgb(0,0,0)" />
	<polygon points="191.633,444.045 191.969,445.035 192.623,447.57 192.776,447.616 194.225,447.935 195.802,448.188 197.33,448.347 198.59,448.396 200.274,448.304 201.866,448.024 203.281,447.56 204.449,446.942 205.377,446.177 206.145,445.182 206.802,443.741 207.169,442.048 202.838,442.372 201.775,442.37 195.557,441.881 194.381,441.686 190.168,440.609 " fill="none" stroke-width="0.5" stroke="rgb(0,0,0)" />
	<polygon points="161.139,432.451 158.14,437.109 157.154,438.316 152.96,442.416 151.632,443.433 149.504,444.688 152.177,444.115 155.17,442.894 157.399,441.391 159.028,439.639 160.207,437.544 160.976,434.95 161.21,432.312 " fill="none" stroke-width="0.5" stroke="rgb(0,0,0)" />
	<polygon points="325.846,416.633 316.341,419.765 314.872,420.079 313.909,420.177 314.64,421.516 315.134,422.814 315.416,423.745 315.746,425.197 315.802,425.466 316.053,426.815 316.143,427.194 316.198,427.234 316.233,427.259 317.141,427.912 317.577,428.254 318.444,428.989 319.221,429.762 319.954,430.617 320.695,431.73 320.797,431.613 320.977,431.415 321.696,430.652 321.947,430.4 322.661,429.715 323.013,429.401 323.721,428.809 324.219,428.43 324.92,427.945 325.635,427.511 326.325,427.147 327.344,426.71 328.022,426.481 328.162,426.449 327.363,424.932 327.014,423.691 326.754,421.809 326.754,416.218 " fill="none" stroke-width="0.5" stroke="rgb(0,0,0)" />
	<polygon points="378.393,417.615 378.391,417.778 378.385,418.032 379.593,417.707 381.163,417.891 382.627,418.225 384.259,418.79 385.561,419.397 387.172,420.363 388.308,421.212 389.019,421.868 388.997,421.195 389.027,420.721 389.168,419.693 389.187,419.608 388.909,419.579 387.654,419.327 384.094,418.262 383.112,417.886 379.774,416.306 378.976,415.862 378.393,415.486 " fill="none" stroke-width="0.5" stroke="rgb(0,0,0)" />
	<polygon points="165.561,413.576 165.566,414.589 165.246,419.273 165.107,420.257 164.99,420.802 167.422,419.953 170.925,420.638 170.987,420.669 170.933,419.106 170.966,418.739 171.233,417.348 171.329,417.029 171.979,415.533 172.136,415.263 173.177,413.896 173.394,413.675 174.101,413.105 173.056,412.673 172.487,412.406 169.851,411.025 169.307,410.708 166.88,409.141 166.334,408.75 165.111,407.781 " fill="none" stroke-width="0.5" stroke="rgb(0,0,0)" />
	<polygon points="258.871,400.81 258.776,401.822 258.52,403.143 258.244,404.074 257.728,405.342 257.288,406.176 256.841,406.85 257.667,407.172 258.251,407.43 261.11,408.857 261.562,409.104 264.345,410.761 264.722,411.002 267.339,412.798 267.684,413.05 270.048,414.896 270.399,415.189 272.422,416.994 272.83,417.39 272.924,417.488 274.128,417.281 274.417,417.237 275.751,417.064 276.025,417.035 277.409,416.911 277.667,416.893 279.099,416.819 279.343,416.811 280.485,416.791 279.36,416.423 277.982,415.799 269.375,410.706 268.201,409.831 261.1,403.276 260.186,402.247 258.876,400.439 " fill="none" stroke-width="0.5" stroke="rgb(0,0,0)" />
	<polygon points="244.487,411.87 243.748,416.596 244.156,415.767 245.278,411.82 245.121,411.797 244.503,411.628 " fill="none" stroke-width="0.5" stroke="rgb(0,0,0)" />
	<polygon points="364.817,399.913 365.102,399.974 365.898,400.195 366.888,400.534 366.972,399.43 " fill="none" stroke-width="0.5" stroke="rgb(0,0,0)" />
	<polygon points="349.509,395.301 348.868,396.371 346.884,399.095 347.593,398.972 348.396,398.88 352.904,398.628 353.542,398.622 356.25,398.719 355.541,398.235 354.227,397.07 353.248,395.951 352.53,394.969 351.674,393.552 351.249,392.731 351.012,392.187 " fill="none" stroke-width="0.5" stroke="rgb(0,0,0)" />
	<polygon points="308.832,393.759 308.313,393.911 305.101,394.72 304.463,394.85 300.756,395.422 300.051,395.494 297.211,395.64 297.64,395.756 304.345,396.337 307.593,396.202 310.523,395.816 311.109,395.677 310.225,394.446 309.97,393.614 309.956,393.38 " fill="none" stroke-width="0.5" stroke="rgb(0,0,0)" />
	<polygon points="201.205,388.635 203.042,392.02 203.472,392.977 204.604,396.117 206.489,393.331 208.091,391.653 212.046,388.704 212.736,388.398 207.129,388.896 205.752,388.881 201.029,388.36 " fill="none" stroke-width="0.5" stroke="rgb(0,0,0)" />
	<polygon points="223.304,386.295 223.463,386.307 224.268,386.416 224.797,386.52 224.745,385.871 " fill="none" stroke-width="0.5" stroke="rgb(0,0,0)" />
	<polygon points="246.428,368.906 242.361,374.372 241.856,374.92 242.29,375.141 243.174,375.733 244.315,376.689 245.058,377.46 245.358,377.836 246.175,377.859 247.421,377.984 247.976,378.1 247.099,374.865 246.885,373.667 246.454,368.862 " fill="none" stroke-width="0.5" stroke="rgb(0,0,0)" />
	<polygon points="83.7974,366.692 83.5025,366.737 82.6609,366.848 81.8254,366.908 79.5119,366.932 78.8998,366.878 79.9432,369.517 80.8326,375.39 81.3761,374.828 83.8846,372.593 84.7862,371.913 87.2654,370.341 87.5436,370.201 87.378,370.086 85.8923,368.82 84.9799,367.881 83.997,366.657 " fill="none" stroke-width="0.5" stroke="rgb(0,0,0)" />
	<polygon points="172.291,373.504 172.469,373.956 172.551,373.963 172.837,373.971 173.027,373.968 172.081,372.79 " fill="none" stroke-width="0.5" stroke="rgb(0,0,0)" />
	<polygon points="356.715,370.445 356.514,372.396 356.634,372.339 357.353,372.047 358.922,371.51 359.465,371.348 361.14,370.923 361.292,370.873 360.129,370.272 358.958,369.509 357.367,368.228 356.367,367.24 355.802,366.556 " fill="none" stroke-width="0.5" stroke="rgb(0,0,0)" />
	<polygon points="324.301,367.374 323.587,368.507 322.786,369.54 323.473,369.524 327.01,369.294 328.999,369.08 326.652,367.876 325.433,367.08 324.735,366.511 " fill="none" stroke-width="0.5" stroke="rgb(0,0,0)" />
	<polygon points="354.114,364.598 354.733,365.161 354.309,364.527 354.267,364.448 " fill="none" stroke-width="0.5" stroke="rgb(0,0,0)" />
	<polygon points="117.759,354.678 117.028,355.019 117.045,356.46 116.926,357.828 116.515,360.018 116.116,361.369 115.517,362.829 116.374,362.673 120.625,362.288 122.014,362.302 122.99,362.41 122.743,362.235 121.645,361.292 120.448,359.958 119.781,358.988 118.9,357.204 118.569,356.187 118.25,354.607 118.233,354.403 " fill="none" stroke-width="0.5" stroke="rgb(0,0,0)" />
	<polygon points="295.517,357.59 294.026,358.263 291.756,358.98 292.265,359.256 294.134,360.642 294.286,360.758 296.596,362.573 296.786,362.702 296.713,362.32 296.569,360.783 296.547,359.805 296.599,358.698 296.647,358.152 296.785,357.062 296.825,356.803 " fill="none" stroke-width="0.5" stroke="rgb(0,0,0)" />
	<polygon points="441.49,355.453 442.375,356.683 445.005,361.334 444.634,359.196 442.708,356.154 440.746,354.626 " fill="none" stroke-width="0.5" stroke="rgb(0,0,0)" />
	<polygon points="394.916,340.653 394.708,340.828 393.559,341.75 392.948,342.189 391.927,342.842 390.159,343.65 389.324,343.897 386.661,344.116 386.8,344.405 387.93,347.605 388.282,349.133 388.465,350.743 388.811,350.402 393.423,346.538 395.09,345.503 398.242,344.117 398.146,344.014 396.869,342.476 396.712,342.279 395.365,340.532 395.24,340.371 " fill="none" stroke-width="0.5" stroke="rgb(0,0,0)" />
	<polygon points="58.2438,342.182 61.5104,347.435 62.1932,348.111 62.1897,347.776 62.346,346.238 62.8374,343.963 63.2964,342.57 64.2249,340.513 64.806,339.502 62.6702,339.044 61.7326,338.772 59.2639,337.866 58.0864,337.303 57.6142,337.02 " fill="none" stroke-width="0.5" stroke="rgb(0,0,0)" />
	<polygon points="164.723,318.508 164.845,320.556 164.593,323.397 164.386,324.571 163.636,327.386 163.23,328.51 161.993,331.19 161.367,332.276 159.652,334.713 158.771,335.737 156.59,337.822 155.432,338.716 152.795,340.34 152.099,340.668 152.977,341.114 155.437,342.605 156.268,343.196 158.617,345.142 159.289,345.778 160.881,347.501 160.637,345.362 160.596,344.348 160.655,342.565 160.687,342.09 160.866,340.326 160.943,339.781 161.249,338.103 161.408,337.426 161.847,335.902 162.173,335.005 162.752,333.703 163.448,332.485 164.172,331.471 165.654,329.953 166.53,329.296 169.167,328.075 169.798,327.932 167.302,324.152 166.621,322.833 164.459,317.256 " fill="none" stroke-width="0.5" stroke="rgb(0,0,0)" />
	<polygon points="316.423,342.906 316.011,343.064 316.153,343.143 316.799,343.581 317.023,342.616 " fill="none" stroke-width="0.5" stroke="rgb(0,0,0)" />
	<polygon points="416.621,332.501 415.524,332.71 413.737,332.903 413.493,332.926 412.942,332.966 413.158,334.163 413.176,334.271 413.4,335.64 413.438,335.901 413.596,337.171 413.64,337.662 413.7,338.791 413.707,339.36 413.697,339.694 413.664,340.2 413.63,340.535 413.52,341.244 413.493,341.375 418.092,341.767 419.262,341.968 420.807,342.373 419.527,340.919 417.972,337.89 416.731,332.517 416.728,332.471 " fill="none" stroke-width="0.5" stroke="rgb(0,0,0)" />
	<polygon points="127.496,337.65 127.476,339.888 127.446,340.166 128.207,339.796 129.084,339.442 130.474,338.987 129.826,338.519 127.92,336.817 127.351,336.201 " fill="none" stroke-width="0.5" stroke="rgb(0,0,0)" />
	<polygon points="385.499,310.794 384.526,312.491 383.663,314.353 383.049,316.037 382.85,317.061 382.651,319.237 382.476,322.186 382.289,325.371 382.275,325.565 382.145,327.058 383.283,324.384 384.359,321.649 385.228,318.976 385.786,316.466 385.996,313.948 385.972,312.679 385.866,310.974 385.792,310.378 " fill="none" stroke-width="0.5" stroke="rgb(0,0,0)" />
	<polygon points="321.829,326.345 321.926,326.487 321.931,326.498 321.952,326.262 " fill="none" stroke-width="0.5" stroke="rgb(0,0,0)" />
	<polygon points="121.917,324.892 121.473,325.1 122.416,326.05 122.403,325.985 122.273,324.677 " fill="none" stroke-width="0.5" stroke="rgb(0,0,0)" />
	<polygon points="74.7464,311.946 73.8251,315.479 73.5214,318.291 73.5508,319.332 73.6754,320.513 73.9026,321.585 74.2661,322.641 74.8346,323.782 74.872,323.837 75.0458,323.482 76.1501,321.684 76.9608,320.613 78.3786,319.074 79.3803,318.178 81.0813,316.931 82.2218,316.252 84.0421,315.392 82.9462,314.95 81.3522,314.122 80.2187,313.386 78.7897,312.245 77.7968,311.275 76.5881,309.831 75.8832,308.789 " fill="none" stroke-width="0.5" stroke="rgb(0,0,0)" />
	<polygon points="343.683,312.695 342.592,314.141 341.802,314.943 341.421,315.244 341.75,315.43 346.609,318.743 347.527,319.491 351.009,322.859 351.38,322.013 351.619,321.521 352.294,320.263 352.236,320.247 350.388,319.722 349.408,319.362 348.101,318.767 345.277,316.413 344.781,315.701 343.706,312.655 " fill="none" stroke-width="0.5" stroke="rgb(0,0,0)" />
	<polygon points="97.1471,314.938 97.7033,315.136 97.6026,314.739 " fill="none" stroke-width="0.5" stroke="rgb(0,0,0)" />
	<polygon points="164.519,297.014 163.545,297.437 162.275,297.876 160.914,298.198 159.731,298.355 158.242,298.391 157.886,298.361 156.713,298.161 156.422,298.086 158.151,300.741 158.54,301.421 162.598,309.524 163.184,311.203 163.699,313.645 163.093,308.94 163.046,307.683 163.215,304.525 163.294,303.787 163.786,300.74 163.941,300.025 164.736,297.101 164.816,296.857 " fill="none" stroke-width="0.5" stroke="rgb(0,0,0)" />
	<polygon points="131.65,301.132 132.176,307.102 132.171,308.331 133.951,308.13 134.132,308.147 135.904,308.556 136.053,308.612 136.305,308.759 135.305,306.683 131.529,300.355 " fill="none" stroke-width="0.5" stroke="rgb(0,0,0)" />
	<polygon points="406.038,308.538 405.648,308.02 405.452,307.832 " fill="none" stroke-width="0.5" stroke="rgb(0,0,0)" />
	<polygon points="345.482,307.037 345.837,306.606 345.518,306.602 " fill="none" stroke-width="0.5" stroke="rgb(0,0,0)" />
	<polygon points="312.277,304.683 309.788,306.355 311.06,306.519 311.697,306.632 313.089,306.946 313.025,306.805 312.48,304.942 312.425,304.563 " fill="none" stroke-width="0.5" stroke="rgb(0,0,0)" />
	<polygon points="433.922,294.766 433.83,294.892 432.963,296.05 432.969,296.054 434.877,297.084 435.039,297.174 436.035,297.747 435.007,294.344 434.752,293.604 " fill="none" stroke-width="0.5" stroke="rgb(0,0,0)" />
	<polygon points="458.985,288.669 458.197,289.034 457.22,289.843 455.994,291.324 455.17,292.597 456.409,292.633 459.597,293.147 460.573,293.46 460.508,292.142 460.318,290.843 460.013,289.664 459.654,288.781 459.536,288.592 " fill="none" stroke-width="0.5" stroke="rgb(0,0,0)" />
	<polygon points="87.9834,283.721 87.9243,283.837 85.5695,288.371 85.1108,289.256 86.5815,290.029 87.103,290.443 87.7773,291.056 88.3418,291.64 88.3738,291.673 88.5255,291.304 88.9703,289.142 89.2843,285.847 89.4376,281.574 89.4433,280.776 " fill="none" stroke-width="0.5" stroke="rgb(0,0,0)" />
	<polygon points="57.3087,280.164 57.3545,280.236 57.7996,280.942 57.9421,281.178 58.3336,281.857 58.5644,282.292 58.8902,282.963 59.1696,283.623 59.4173,284.304 59.6709,285.173 59.674,285.187 60.2271,282.779 60.226,282.776 60.1913,282.713 60.1044,282.59 59.9245,282.386 59.3904,281.892 59.3742,281.877 57.4522,280.086 57.0405,279.669 56.8558,279.465 " fill="none" stroke-width="0.5" stroke="rgb(0,0,0)" />
	<polygon points="172.29,280.293 172.607,280.959 172.773,281.36 173.063,282.214 173.171,282.619 173.211,282.837 174.17,281.817 174.035,281.711 172.157,280.048 " fill="none" stroke-width="0.5" stroke="rgb(0,0,0)" />
	<polygon points="428.07,278.842 427.604,279.713 427.463,279.854 427.798,279.781 429.265,279.685 428.308,277.666 " fill="none" stroke-width="0.5" stroke="rgb(0,0,0)" />
	<polygon points="339.604,274.883 339.467,275.423 339.761,275.551 340.102,275.641 340.079,275.335 340.064,275.042 340.049,274.552 340.053,274.399 " fill="none" stroke-width="0.5" stroke="rgb(0,0,0)" />
	<polygon points="420.988,267.435 422.134,267.743 421.284,266.758 " fill="none" stroke-width="0.5" stroke="rgb(0,0,0)" />
	<polygon points="157.335,226.172 156.332,227.919 155.805,229 157.151,230.666 157.722,233.733 157.662,235.16 157.642,235.471 157.483,237.293 157.468,237.438 157.244,239.51 157.236,239.577 156.978,241.754 156.977,241.769 156.721,243.886 156.505,245.759 156.367,247.161 156.331,247.853 156.343,248.264 157.719,249.085 159.38,251.978 159.846,253.602 159.977,254.142 160.342,255.953 160.402,256.288 160.693,258.216 160.719,258.403 160.963,260.381 160.971,260.445 161.191,262.375 161.405,264.117 161.509,264.804 162.348,265.086 164.194,267.388 163.74,265.403 163.835,261.934 164.976,257.961 166.302,255.448 169.312,251.812 170.092,251.04 169.814,251.18 166.193,251.914 162.708,250.689 160.343,247.851 159.875,243.535 160.114,242.41 160.32,241.343 160.501,240.281 160.654,239.222 160.777,238.168 160.868,237.117 160.924,236.069 160.942,235.126 160.847,233.205 160.56,231.393 160.04,229.575 159.232,227.705 158.057,225.742 157.79,225.401 " fill="none" stroke-width="0.5" stroke="rgb(0,0,0)" />
	<polygon points="405.786,256.44 406.037,256.768 406.476,257.375 407.301,256.71 406.814,256.523 405.568,256.173 " fill="none" stroke-width="0.5" stroke="rgb(0,0,0)" />
	<polygon points="129.222,240.416 129.094,242.378 129.065,243.709 130.42,253.422 131.38,255.97 131.862,252.806 132.893,251.684 132.537,250.209 131.894,248.127 131.083,245.69 131.066,245.64 130.23,243.065 130.157,242.825 129.428,240.267 129.31,239.789 129.298,239.734 " fill="none" stroke-width="0.5" stroke="rgb(0,0,0)" />
	<polygon points="448.894,255.901 449.543,254.751 449.606,254.642 449.723,254.442 447.9,253.43 " fill="none" stroke-width="0.5" stroke="rgb(0,0,0)" />
	<polygon points="382.819,245.066 382.2,246.229 381.413,247.4 380.588,248.393 379.585,249.378 378.58,250.183 377.419,250.936 377.315,250.99 378.306,252.205 378.593,252.582 378.726,252.77 378.881,252.615 380.068,251.496 380.84,250.866 381.966,250.075 384.033,249.084 385.072,248.783 386.379,248.655 385.3,247.894 383.454,245.968 382.841,245.012 " fill="none" stroke-width="0.5" stroke="rgb(0,0,0)" />
	<polygon points="363.066,250.964 363.114,250.876 363.24,250.711 362.419,250.165 " fill="none" stroke-width="0.5" stroke="rgb(0,0,0)" />
	<polygon points="359.56,247.579 358.676,248.176 361.139,249.08 360.453,248.402 359.682,247.478 " fill="none" stroke-width="0.5" stroke="rgb(0,0,0)" />
	<polygon points="321.286,234.303 324.551,236.849 326.239,238.758 328.524,242.573 328.723,243.126 328.927,242.999 330.111,242.407 331.28,241.957 332.003,241.743 331.18,240.229 330.65,238.975 329.945,236.715 329.666,235.348 329.65,235.19 328.991,235.325 327.586,235.467 326.18,235.467 324.785,235.324 323.414,235.043 322.111,234.635 321.189,234.243 " fill="none" stroke-width="0.5" stroke="rgb(0,0,0)" />
	<polygon points="464.881,220.193 464.842,220.468 464.366,223.409 464.343,223.542 463.798,226.542 463.795,226.559 463.258,229.468 462.813,232.108 462.526,234.306 462.499,234.783 463.56,232.84 464.664,230.122 465.379,227.364 465.62,224.775 465.083,219.957 464.953,219.6 " fill="none" stroke-width="0.5" stroke="rgb(0,0,0)" />
	<polygon points="312.397,225.646 310.539,226.234 309.159,226.52 308.893,226.548 309.218,227.552 310.267,228.733 312.497,230.059 315.982,231.573 316.238,231.69 319.134,233.09 318.576,232.712 317.544,231.858 316.613,230.927 315.759,229.893 315.016,228.792 314.37,227.605 313.84,226.353 313.475,225.185 " fill="none" stroke-width="0.5" stroke="rgb(0,0,0)" />
	<polygon points="85.7411,213.551 85.8227,213.615 86.9708,214.756 87.4336,215.337 88.1673,216.469 88.5236,217.158 88.9557,218.187 89.2075,218.955 89.4411,219.876 89.5907,220.697 89.6913,221.538 89.7407,222.386 89.7268,222.839 90.32,222.457 91.0568,222.093 92.9867,221.469 93.7157,221.346 95.8351,221.318 96.4788,221.409 98.3444,221.945 98.956,222.218 100.451,223.138 100.649,220.472 100.802,219.446 101.644,215.745 101.939,214.778 102.007,214.602 100.892,214.861 97.8941,215.191 96.3626,215.19 93.1734,214.834 91.6146,214.474 88.7504,213.455 87.3283,212.757 86.6703,212.335 " fill="none" stroke-width="0.5" stroke="rgb(0,0,0)" />
	<polygon points="438.235,212.457 437.697,212.609 432.576,213.84 431.946,213.961 425.924,214.831 425.257,214.895 425.03,214.905 426.081,215.417 427.48,216.318 431.173,219.382 432.255,220.507 433.828,222.563 434.561,220.857 435.227,219.653 437.75,215.999 438.41,215.183 441.395,212.014 442.01,211.436 442.436,211.082 " fill="none" stroke-width="0.5" stroke="rgb(0,0,0)" />
	<polygon points="131.329,219.735 132.437,220.695 132.747,221.639 132.75,221.626 133.39,219.083 " fill="none" stroke-width="0.5" stroke="rgb(0,0,0)" />
	<polygon points="64.5542,216.554 65.4743,217.161 65.9912,217.629 67.167,219.013 67.5668,219.632 68.2012,220.873 70.5136,216.938 70.4249,216.923 68.3532,216.381 67.1588,215.948 65.5298,215.183 " fill="none" stroke-width="0.5" stroke="rgb(0,0,0)" />
	<polygon points="188.304,213.038 189.248,214.451 190.457,216.852 190.906,218.066 191.893,217.278 194.57,216.911 194.357,216.139 193.848,215.169 193.196,214.418 192.229,213.712 190.75,213.03 188.65,212.449 187.677,212.311 " fill="none" stroke-width="0.5" stroke="rgb(0,0,0)" />
	<polygon points="381.159,201.53 380.477,202.777 379.733,203.875 378.831,204.964 378.647,205.148 378.716,205.195 379.931,206.196 380.871,207.135 381.175,207.503 381.366,206.625 383.892,203.928 385.426,203.487 382.425,201.04 381.691,200.278 " fill="none" stroke-width="0.5" stroke="rgb(0,0,0)" />
	<polygon points="56.6824,204.901 57.1249,204.8 57.0598,204.594 " fill="none" stroke-width="0.5" stroke="rgb(0,0,0)" />
	<polygon points="365.801,170.059 364.694,170.805 364.367,170.981 364.461,171.12 365.5,173.018 366.034,174.27 366.692,176.363 366.976,177.738 367.206,179.977 367.205,181.143 367.575,181.105 368.996,181.104 369.947,181.201 369.848,180.954 367.082,172.106 366.876,171.263 366.548,169.444 " fill="none" stroke-width="0.5" stroke="rgb(0,0,0)" />
	<polygon points="146.432,175.158 145.51,175.402 143.673,175.756 146.971,178.91 147.296,179.259 147.539,178.235 148.498,175.239 148.94,174.306 " fill="none" stroke-width="0.5" stroke="rgb(0,0,0)" />
	<polygon points="108.482,162.609 107.55,163.542 106.515,164.398 105.414,165.143 104.228,165.79 102.975,166.322 101.667,166.731 100.296,167.012 99.1162,167.132 100.216,167.699 100.939,168.128 104.199,170.343 104.912,170.899 107.911,173.565 108.622,174.298 111.211,177.39 111.89,178.358 112.114,178.745 112.397,178.077 113.439,176.159 114.415,174.79 115.801,173.272 117.23,172.078 117.403,171.969 116.262,171.138 113.369,168.494 112.402,167.403 110.18,164.292 109.508,163.127 108.992,161.991 " fill="none" stroke-width="0.5" stroke="rgb(0,0,0)" />
	<polygon points="310.03,170.536 309.524,171.323 310.124,171.323 311.531,171.466 312.897,171.745 313.133,171.819 313.289,171.319 313.455,170.924 312.38,170.705 311.904,170.591 310.228,170.125 " fill="none" stroke-width="0.5" stroke="rgb(0,0,0)" />
	<polygon points="162.419,166.725 163.715,166.979 163.338,165.985 " fill="none" stroke-width="0.5" stroke="rgb(0,0,0)" />
	<polygon points="423.419,143.146 422.134,144.683 419.393,147.134 418.196,147.995 414.581,150.052 413.919,150.362 417.164,150.654 418.511,150.911 424.931,152.808 426.214,153.332 431.9,156.343 432.921,157.004 433.992,157.84 433.538,156.711 431.692,150.274 431.658,146.897 431.358,146.818 430.328,146.459 428.649,145.721 427.416,145.021 426.056,144.054 424.757,142.854 424.09,142.057 " fill="none" stroke-width="0.5" stroke="rgb(0,0,0)" />
	<polygon points="355.335,138.051 355.312,139.059 354.686,145.66 354.622,145.971 355.63,145.767 356.971,145.632 358.363,145.632 359.703,145.767 361.065,146.043 362.312,146.43 363.567,146.959 364.697,147.571 365.805,148.319 366.789,149.13 366.938,149.279 367.194,148.966 367.251,148.912 367.94,148.444 365.01,146.727 363.947,145.961 358.611,141.292 357.771,140.417 355.299,137.342 " fill="none" stroke-width="0.5" stroke="rgb(0,0,0)" />
	<polygon points="129.644,135.73 129.332,135.96 128.997,136.257 125.967,137.743 126.1,138.024 126.617,139.568 127.095,141.862 127.148,142.15 127.541,144.533 127.588,144.731 127.831,144.33 128.378,143.079 128.669,142.196 128.98,141.117 129.246,140.047 129.464,138.996 129.633,137.979 129.753,137.006 129.824,136.093 129.837,135.608 " fill="none" stroke-width="0.5" stroke="rgb(0,0,0)" />
	<polygon points="102.854,139.629 102.756,140.112 102.974,140.18 104.227,140.711 105.413,141.358 106.513,142.102 106.963,142.474 107.289,141.219 107.308,141.159 104.721,140.523 102.863,139.544 " fill="none" stroke-width="0.5" stroke="rgb(0,0,0)" />
	<polygon points="315.056,124.369 313.711,124.732 312.534,125.281 311.519,125.98 310.681,126.783 310.048,127.622 309.64,128.4 309.24,129.664 308.019,131.544 308.839,131.982 309.781,132.364 310.704,132.621 311.674,132.776 312.817,132.834 313.11,132.825 313.589,132.788 314.167,132.724 314.82,132.64 315.503,132.548 315.56,132.541 316.215,132.458 316.399,132.437 316.988,132.378 317.123,132.368 316.9,132.109 316.659,131.779 316.1,130.878 315.916,130.523 315.515,129.589 315.386,129.216 315.135,128.287 315.059,127.9 314.943,127 314.918,126.607 314.941,125.449 315.019,124.705 315.085,124.367 " fill="none" stroke-width="0.5" stroke="rgb(0,0,0)" />
	<polygon points="92.2503,114.668 91.7923,115.058 89.5291,116.821 88.5287,117.47 86.1906,118.717 84.2632,119.404 81.8619,119.877 80.482,119.938 80.6547,122.971 80.6642,123.521 80.6325,124.948 80.6193,125.248 80.5333,126.559 80.7578,126.373 81.8592,125.627 83.0453,124.979 84.2995,124.447 85.6084,124.037 86.9801,123.755 88.3832,123.612 89.7915,123.612 91.1965,123.755 92.5664,124.036 93.8772,124.446 95.1303,124.977 95.5075,125.183 95.4869,125.068 94.6932,119.133 94.6747,118.983 94.0266,113.176 94.0059,113.038 " fill="none" stroke-width="0.5" stroke="rgb(0,0,0)" />
	<polygon points="185.093,109.731 185.013,110.5 184.881,111.325 184.658,112.282 184.428,113.026 183.952,114.184 183.616,114.829 182.749,116.118 182.298,116.649 180.973,117.852 180.399,118.252 178.765,119.093 178.061,119.345 176.44,119.712 175.596,119.8 173.659,119.646 173.933,120.098 174.475,121.203 176.162,125.585 176.364,126.263 176.966,125.788 179.966,123.702 180.816,123.196 183.937,121.63 185.023,121.195 188.244,120.21 189.561,119.943 192.865,119.601 193.951,119.606 193.168,118.833 192.745,118.376 188.501,113.364 188.274,113.081 185.13,108.949 " fill="none" stroke-width="0.5" stroke="rgb(0,0,0)" />
	<polygon points="124.602,112.257 123.019,118.588 123.002,118.652 123.281,118.268 126.064,114.997 126.863,114.199 127.724,113.469 126.876,112.701 125.374,111.078 125.068,110.724 125.037,110.685 " fill="none" stroke-width="0.5" stroke="rgb(0,0,0)" />
	<polygon points="413.863,104.986 416.006,106.952 416.921,107.975 417.291,108.483 417.39,104.911 418.133,103.741 416.321,103.722 416.185,103.72 412.853,103.622 412.72,103.616 411.481,103.556 " fill="none" stroke-width="0.5" stroke="rgb(0,0,0)" />
	<polygon points="349.465,107.573 349.494,107.661 349.632,107.549 349.447,107.535 " fill="none" stroke-width="0.5" stroke="rgb(0,0,0)" />
	<polygon points="392.146,102.422 393.19,103.541 393.913,104.458 394.758,105.741 394.81,105.82 394.869,105.912 395.397,105.788 396.769,105.339 398.385,104.73 400.096,104.067 400.274,104.001 401.925,103.413 402.422,103.257 403.346,103.004 402.278,102.912 402.15,102.9 398.724,102.54 398.595,102.526 395.168,102.101 395.037,102.083 391.619,101.594 391.524,101.579 391.049,101.505 390.949,101.485 " fill="none" stroke-width="0.5" stroke="rgb(0,0,0)" />
	<polygon points="145.94,101.982 145.363,105.204 145.325,105.377 149.38,105.081 150.669,105.106 151.008,105.145 149.556,103.904 146.098,101.123 " fill="none" stroke-width="0.5" stroke="rgb(0,0,0)" />
	<polygon points="380.542,99.4451 380.961,99.3654 381.52,99.2771 381.951,99.2228 382.497,99.1712 382.932,99.1438 383.464,99.127 384.732,99.2032 386.697,99.5033 386.73,99.5144 386.082,98.9686 385.917,98.7879 384.82,97.1887 384.712,96.9711 384.53,96.4615 " fill="none" stroke-width="0.5" stroke="rgb(0,0,0)" />
	<polygon points="65.5691,95.9972 64.7943,96.4247 64.9828,96.4798 68.3652,98.0396 69.6169,98.8455 69.8759,96.8533 69.8772,96.8433 70.1595,94.6958 70.3008,93.5068 " fill="none" stroke-width="0.5" stroke="rgb(0,0,0)" />
	<polygon points="126.466,63.8305 125.736,67.2955 125.641,67.6895 124.794,70.7966 124.306,72.0424 126.397,73.397 126.434,73.1286 126.606,72.1903 126.872,71.1749 127.134,70.4169 127.898,68.863 128.267,68.3016 130.074,66.438 130.357,66.2385 130.249,66.1015 130.063,65.8539 128.336,63.4504 126.988,61.6646 " fill="none" stroke-width="0.5" stroke="rgb(0,0,0)" />
	<polygon points="104.968,60.6455 103.242,62.0514 101.395,63.6328 101.222,63.7761 99.4408,65.2041 98.7743,65.6768 97.1564,66.6868 96.7362,66.8698 96.8238,67.0921 97.0131,67.7514 97.2157,68.7032 97.3233,69.4698 97.3856,70.1644 97.4197,71.0344 97.4139,71.5006 97.9275,71.0382 100.301,69.6367 102.359,68.9232 106.046,68.6844 106.194,68.7509 105.992,66.3328 105.974,66.042 105.831,62.6054 105.601,60.2099 " fill="none" stroke-width="0.5" stroke="rgb(0,0,0)" />
	<polygon points="400.929,59.1444 400.925,60.4399 400.919,60.503 401.127,60.4443 402.375,60.2118 402.637,60.1874 405.819,60.6377 406.929,61.0731 408.837,62.2019 410.216,63.3497 410.613,63.7074 412.239,65.2877 413.981,66.9228 415.733,68.3298 417.462,69.38 419.141,70.0116 421.184,70.2693 421.358,70.2612 421.917,70.1762 422.383,70.0399 422.639,69.9133 422.7,69.864 422.735,69.8155 422.876,69.432 422.922,68.9932 422.537,67.7155 421,66.128 417.474,64.0418 412.712,62.0693 407.575,60.366 402.895,58.9281 402.568,58.8188 400.843,58.1937 " fill="none" stroke-width="0.5" stroke="rgb(0,0,0)" />
	<polygon points="163.129,47.3349 162.996,47.6773 162.204,49.0909 164.475,49.8628 164.666,49.9307 167.289,50.9088 165.766,49.3724 163.245,46.8672 " fill="none" stroke-width="0.5" stroke="rgb(0,0,0)" />
	<polygon points="396.929,39.4609 397.498,40.8286 398.075,42.7765 399.903,41.8587 400.752,41.5007 403.724,40.4742 404.179,40.3343 407.841,39.3442 408.164,39.2649 409.185,39.0409 406.755,37.7571 402.444,36.1232 398.46,34.9899 395.091,34.1466 394.572,33.995 393.79,33.7333 " fill="none" stroke-width="0.5" stroke="rgb(0,0,0)" />
	<polygon points="70.1383,40.5652 70.1278,40.5717 69.8367,40.7532 70.8968,40.8637 70.9536,40.8692 71.1322,39.9432 " fill="none" stroke-width="0.5" stroke="rgb(0,0,0)" />
	<polygon points="153.353,28.8772 152.384,29.5588 151.313,30.1773 150.494,30.5581 152.571,31.8557 153.526,32.4331 153.76,28.3833 " fill="none" stroke-width="0.5" stroke="rgb(0,0,0)" />
	<polygon points="82.3218,28.4666 81.5178,30.6292 81.3835,30.8406 83.869,29.92 84.4142,29.6989 84.0556,29.5055 82.4394,27.8753 " fill="none" stroke-width="0.5" stroke="rgb(0,0,0)" />
</svg>
