<?xml version="1.0" standalone="no" ?>
<!DOCTYPE svg PUBLIC "-//W3C//DTD SVG 1.1//EN" "http://www.w3.org/Graphics/SVG/1.1/DTD/svg11.dtd">
<svg width="500px" height="500px" xmlns="http://www.w3.org/2000/svg" version="1.1" >
	<polygon points="465.673,280.861 464.888,294.849 462.55,309.614 458.583,325.271 452.961,341.491 445.67,357.964 436.704,374.392 426.061,390.488 413.74,405.973 399.741,420.58 384.059,434.051 366.682,446.137 347.584,456.595 326.725,465.181 304.05,471.648 279.495,475.734 252.98,477.162 227.151,475.815 203.112,471.947 180.832,465.807 160.264,457.631 141.369,447.643 124.122,436.062 108.509,423.107 94.5267,408.999 82.1799,393.967 71.4772,378.25 62.4282,362.093 55.0412,345.75 49.3202,329.485 45.2624,313.57 42.8544,298.289 42.0405,283.49 42.0405,34.6099 49.9901,34.5489 61.4818,34.4607 72.9735,34.3725 84.4652,34.2843 95.9568,34.1962 95.9568,34.1962 107.449,34.108 118.94,34.0198 130.432,33.9316 141.924,33.8435 153.415,33.7553 164.907,33.6671 176.399,33.5789 187.89,33.4907 187.89,33.4907 195.577,33.4318 195.557,43.9326 195.531,56.8314 195.506,69.7301 195.506,69.7302 195.48,82.6289 195.429,108.427 195.429,108.427 195.404,121.325 195.353,147.123 195.353,147.123 195.328,160.022 195.302,172.921 195.277,185.819 195.226,211.617 195.226,211.617 195.2,224.516 195.201,224.663 195.288,235.957 195.289,236.07 195.454,246.887 195.458,247.094 195.755,257.4 195.768,257.715 196.252,267.477 196.281,267.922 197.009,277.106 197.069,277.71 198.096,286.283 198.213,287.081 199.593,295.009 199.81,296.041 201.6,303.291 201.986,304.598 204.24,311.137 204.898,312.742 207.672,318.536 208.737,320.407 212.086,325.423 213.682,327.425 217.662,331.629 219.811,333.509 224.477,336.869 227.011,338.344 232.417,340.825 235.02,341.743 241.223,343.313 243.604,343.717 250.658,344.341 251.947,329.779 252.953,344.364 260.214,343.863 262.607,343.505 268.954,342.027 271.62,341.138 277.115,338.72 279.75,337.23 284.456,333.909 286.704,331.965 290.683,327.776 292.342,325.689 295.654,320.67 296.742,318.725 299.451,312.912 300.107,311.259 302.275,304.69 302.647,303.361 304.335,296.072 304.537,295.038 305.809,287.065 305.913,286.281 306.829,277.661 306.879,277.08 307.502,267.85 307.524,267.435 307.916,257.632 307.924,257.353 308.146,247.013 308.149,246.849 308.264,236.009 308.265,235.942 308.335,224.639 308.335,224.515 308.309,211.616 308.283,198.718 308.257,185.819 308.232,172.92 308.232,172.92 308.206,160.021 308.154,134.224 308.154,134.224 308.128,121.325 308.051,82.6285 308.051,82.6284 308.025,69.7296 307.952,33.2176 316.375,33.1634 328.128,33.0879 339.882,33.0123 351.635,32.9367 363.388,32.8612 375.141,32.7856 386.895,32.71 410.401,32.5589 422.154,32.4834 433.908,32.4078 445.661,32.3322 457.414,32.2567 465.673,32.2036 " fill="none" stroke-width="0.5" stroke="rgb(0,0,0)" />
</svg>
