<?xml version="1.0" standalone="no" ?>
<!DOCTYPE svg PUBLIC "-//W3C//DTD SVG 1.1//EN" "http://www.w3.org/Graphics/SVG/1.1/DTD/svg11.dtd">
<svg width="500px" height="500px" xmlns="http://www.w3.org/2000/svg" version="1.1" >
	<polygon points="469.173,280.959 468.373,295.222 465.982,310.319 461.939,326.275 456.22,342.774 448.812,359.513 439.706,376.199 428.895,392.546 416.378,408.278 402.15,423.124 386.204,436.822 368.527,449.117 349.095,459.758 327.875,468.493 304.82,475.068 279.877,479.219 252.983,480.667 226.781,479.3 202.367,475.372 179.717,469.13 158.795,460.813 139.571,450.651 122.023,438.869 106.143,425.691 91.9258,411.346 79.3755,396.067 68.4982,380.094 59.301,363.672 51.7896,347.054 45.967,330.5 41.8305,314.277 39.3694,298.658 38.5405,283.586 38.5405,31.1366 49.9633,31.049 61.455,30.9608 61.455,30.9608 72.9466,30.8726 84.4383,30.7844 95.93,30.6963 95.93,30.6963 107.422,30.6081 118.913,30.5199 130.405,30.4317 141.897,30.3436 153.388,30.2554 164.88,30.1672 176.372,30.079 187.863,29.9909 199.084,29.9048 199.082,31.0407 199.082,31.0407 199.056,43.9395 199.031,56.8383 199.006,69.7371 199.006,69.7371 198.98,82.6358 198.929,108.433 198.929,108.433 198.904,121.332 198.853,147.13 198.853,147.13 198.828,160.029 198.802,172.927 198.802,172.927 198.777,185.826 198.751,198.725 198.726,211.624 198.7,224.523 198.701,224.636 198.788,235.93 198.789,236.017 198.953,246.834 198.957,246.993 199.254,257.299 199.263,257.541 199.748,267.303 199.77,267.646 200.498,276.83 200.545,277.294 201.571,285.867 201.661,286.48 203.042,294.409 203.208,295.202 204.998,302.453 205.294,303.457 207.549,309.997 208.055,311.23 210.828,317.025 211.647,318.463 214.996,323.479 216.224,325.019 220.204,329.223 221.857,330.669 226.522,334.029 228.471,335.163 233.877,337.644 235.879,338.35 242.082,339.92 243.912,340.23 250.967,340.855 251.947,329.779 252.712,340.872 259.973,340.372 261.813,340.096 268.16,338.618 270.21,337.935 275.706,335.517 277.732,334.371 282.438,331.049 284.166,329.555 288.145,325.366 289.421,323.761 292.733,318.742 293.57,317.246 296.279,311.433 296.783,310.162 298.951,303.593 299.237,302.571 300.926,295.282 301.081,294.487 302.352,286.514 302.432,285.911 303.348,277.291 303.387,276.844 304.01,267.615 304.027,267.295 304.418,257.492 304.425,257.278 304.647,246.938 304.649,246.812 304.764,235.972 304.765,235.921 304.835,224.618 304.835,224.522 304.809,211.623 304.783,198.725 304.757,185.826 304.732,172.927 304.732,172.927 304.706,160.028 304.654,134.231 304.654,134.231 304.628,121.332 304.551,82.6355 304.551,82.6355 304.525,69.7367 304.447,31.0403 304.447,31.0403 304.445,29.74 304.599,29.739 316.353,29.6635 328.106,29.5879 339.859,29.5124 351.612,29.4368 363.366,29.3612 375.119,29.2857 386.872,29.2101 410.379,29.059 422.132,28.9834 433.885,28.9079 445.639,28.8323 457.392,28.7568 469.145,28.6812 469.173,28.681 " fill="none" stroke-width="0.5" stroke="rgb(0,0,0)" />
	<polygon points="320.169,423.452 320.329,424.155 320.401,424.5 320.618,424.67 320.991,424.987 321.544,424.566 322.244,424.081 322.358,424.012 322.189,422.787 " fill="none" stroke-width="0.5" stroke="rgb(0,0,0)" />
</svg>
