<?xml version="1.0" standalone="no" ?>
<!DOCTYPE svg PUBLIC "-//W3C//DTD SVG 1.1//EN" "http://www.w3.org/Graphics/SVG/1.1/DTD/svg11.dtd">
<svg width="500px" height="500px" xmlns="http://www.w3.org/2000/svg" version="1.1" >
	<polygon points="467.273,280.906 466.481,295.019 464.118,309.937 460.117,325.73 454.451,342.078 447.107,358.672 438.076,375.218 427.357,391.429 414.946,407.027 400.842,421.743 385.04,435.318 367.525,447.499 348.275,458.041 327.251,466.695 304.402,473.212 279.67,477.327 252.981,478.764 226.982,477.408 202.772,473.513 180.323,467.326 159.592,459.086 140.547,449.018 123.163,437.345 107.427,424.288 93.3377,410.072 80.8979,394.927 70.1154,379.093 60.9986,362.815 53.5548,346.346 47.7873,329.949 43.6936,313.893 41.2613,298.458 40.4405,283.533 40.4405,33.0221 49.9779,32.9489 61.4695,32.8607 72.9612,32.7726 84.4529,32.6844 95.9446,32.5962 107.436,32.508 118.928,32.4199 130.42,32.3317 141.911,32.2435 153.403,32.1553 164.895,32.0672 176.386,31.979 187.878,31.8908 197.18,31.8194 197.156,43.9357 197.131,56.8345 197.106,69.7333 197.106,69.7333 197.08,82.6321 197.029,108.43 197.029,108.43 197.004,121.328 196.953,147.126 196.953,147.126 196.928,160.025 196.902,172.924 196.877,185.822 196.826,211.62 196.826,211.62 196.8,224.519 196.801,224.65 196.888,235.945 196.889,236.046 197.054,246.863 197.058,247.047 197.355,257.354 197.366,257.635 197.851,267.397 197.876,267.796 198.604,276.98 198.658,277.52 199.685,286.093 199.789,286.806 201.17,294.735 201.364,295.657 203.153,302.908 203.498,304.077 205.752,310.616 206.341,312.051 209.115,317.845 210.067,319.518 213.416,324.534 214.844,326.325 218.824,330.529 220.746,332.211 225.412,335.57 227.678,336.89 233.084,339.371 235.413,340.192 241.615,341.762 243.745,342.123 250.799,342.747 251.947,329.779 252.843,342.768 260.103,342.267 262.244,341.946 268.591,340.468 270.975,339.674 276.471,337.256 278.828,335.923 283.533,332.601 285.544,330.863 289.522,326.674 291.006,324.807 294.319,319.788 295.292,318.049 298.001,312.236 298.587,310.758 300.755,304.188 301.088,303 302.777,295.711 302.957,294.786 304.229,286.813 304.322,286.112 305.238,277.492 305.283,276.972 305.905,267.743 305.925,267.371 306.317,257.568 306.324,257.319 306.547,246.979 306.549,246.832 306.664,235.992 306.665,235.932 306.735,224.629 306.735,224.518 306.709,211.62 306.657,185.822 306.632,172.923 306.632,172.923 306.606,160.024 306.554,134.227 306.554,134.227 306.528,121.328 306.451,82.6317 306.451,82.6316 306.425,69.7329 306.348,31.6278 316.365,31.5634 328.118,31.4879 339.871,31.4123 351.625,31.3368 363.378,31.2612 375.131,31.1856 386.884,31.1101 410.391,30.959 422.144,30.8834 433.897,30.8078 445.651,30.7323 457.404,30.6567 457.404,30.6567 467.273,30.5933 " fill="none" stroke-width="0.5" stroke="rgb(0,0,0)" />
</svg>
