<?xml version="1.0" standalone="no" ?>
<!DOCTYPE svg PUBLIC "-//W3C//DTD SVG 1.1//EN" "http://www.w3.org/Graphics/SVG/1.1/DTD/svg11.dtd">
<svg width="500px" height="500px" xmlns="http://www.w3.org/2000/svg" version="1.1" >
	<polygon points="462.073,280.76 461.304,294.466 459.02,308.889 455.131,324.237 449.609,340.171 442.439,356.37 433.617,372.534 423.145,388.37 411.026,403.602 397.263,417.963 381.853,431.201 364.784,443.072 346.029,453.342 325.542,461.775 303.259,468.131 279.101,472.15 252.977,473.557 227.532,472.23 203.879,468.424 181.979,462.389 161.774,454.357 143.219,444.549 126.28,433.175 110.943,420.448 97.2019,406.584 85.0644,391.807 74.5413,376.354 65.6449,360.469 58.3857,344.409 52.7692,328.441 48.7924,312.844 46.4389,297.909 45.6405,283.391 45.6405,38.1823 50.0178,38.1488 61.5094,38.0606 73.0011,37.9724 84.4928,37.8842 95.9845,37.7961 107.476,37.7079 118.968,37.6197 130.459,37.5315 141.951,37.4434 153.443,37.3552 164.935,37.267 176.426,37.1788 187.918,37.0906 191.97,37.0596 191.956,43.9255 191.931,56.8243 191.906,69.7231 191.906,69.7231 191.88,82.6219 191.829,108.419 191.829,108.419 191.804,121.318 191.753,147.116 191.753,147.116 191.728,160.015 191.702,172.913 191.702,172.913 191.677,185.812 191.651,198.711 191.626,211.61 191.626,211.61 191.6,224.509 191.601,224.69 191.688,235.985 191.69,236.125 191.854,246.942 191.86,247.197 192.157,257.503 192.172,257.893 192.657,267.655 192.692,268.207 193.421,277.391 193.495,278.138 194.521,286.711 194.666,287.698 196.047,295.627 196.315,296.904 198.105,304.154 198.582,305.771 200.836,312.31 201.651,314.296 204.424,320.09 205.742,322.405 209.091,327.422 211.068,329.899 215.047,334.104 217.708,336.43 222.373,339.79 225.509,341.616 230.915,344.097 234.137,345.233 240.34,346.803 243.286,347.303 250.341,347.927 251.947,329.779 253.201,347.956 260.461,347.455 263.423,347.011 269.77,345.533 273.07,344.433 278.565,342.015 281.826,340.171 286.532,336.85 289.314,334.444 293.293,330.255 295.346,327.672 298.659,322.653 300.005,320.246 302.714,314.433 303.525,312.387 305.693,305.818 306.154,304.173 307.843,296.884 308.092,295.605 309.364,287.632 309.493,286.661 310.409,278.041 310.471,277.322 311.094,268.093 311.121,267.579 311.513,257.776 311.523,257.43 311.746,247.091 311.749,246.887 311.864,236.048 311.865,235.964 311.935,224.662 311.935,224.508 311.909,211.609 311.883,198.71 311.857,185.812 311.832,172.913 311.832,172.913 311.806,160.014 311.754,134.216 311.754,134.216 311.728,121.318 311.651,82.6213 311.651,82.6212 311.625,69.7224 311.559,36.7945 316.398,36.7633 328.152,36.6878 339.905,36.6122 351.658,36.5367 363.411,36.4611 375.165,36.3855 386.918,36.31 410.424,36.1589 422.178,36.0833 433.931,36.0077 445.684,35.9322 457.437,35.8566 462.073,35.8268 " fill="none" stroke-width="0.5" stroke="rgb(0,0,0)" />
</svg>
