<?xml version="1.0" standalone="no" ?>
<!DOCTYPE svg PUBLIC "-//W3C//DTD SVG 1.1//EN" "http://www.w3.org/Graphics/SVG/1.1/DTD/svg11.dtd">
<svg width="500px" height="500px" xmlns="http://www.w3.org/2000/svg" version="1.1" >
	<polygon points="470.723,281.003 469.916,295.387 467.501,310.632 463.425,326.72 457.664,343.343 450.204,360.199 441.035,376.999 430.151,393.458 417.547,409.299 403.217,424.251 387.154,438.05 369.344,450.437 349.764,461.158 328.384,469.96 305.161,476.583 280.047,480.762 252.984,482.219 226.617,480.844 202.037,476.889 179.224,470.602 158.145,462.223 138.774,451.984 121.094,440.112 105.095,426.836 90.7739,412.386 78.1335,396.997 67.1789,380.91 57.916,364.371 50.3497,347.632 44.482,330.95 40.3107,314.59 37.8261,298.822 36.9905,283.628 36.9905,29.5985 38.4597,29.5872 61.4431,29.4108 72.9347,29.3227 84.4264,29.2345 95.9181,29.1463 107.41,29.0581 118.901,28.97 130.393,28.8818 141.885,28.7936 153.376,28.7054 164.868,28.6173 176.36,28.5291 187.851,28.4409 200.637,28.3428 200.632,31.0437 200.632,31.0437 200.606,43.9425 200.581,56.8413 200.556,69.7401 200.556,69.7401 200.53,82.6389 200.479,108.436 200.479,108.437 200.454,121.335 200.403,147.133 200.378,160.032 200.352,172.93 200.352,172.93 200.327,185.829 200.301,198.728 200.276,211.627 200.276,211.627 200.25,224.526 200.251,224.624 200.338,235.918 200.339,235.994 200.503,246.811 200.506,246.948 200.803,257.254 200.811,257.464 201.296,267.226 201.315,267.523 202.043,276.707 202.084,277.11 203.11,285.683 203.188,286.214 204.569,294.143 204.713,294.831 206.503,302.081 206.76,302.952 209.014,309.491 209.453,310.561 212.226,316.355 212.936,317.602 216.285,322.619 217.35,323.953 221.329,328.158 222.763,329.411 227.428,332.771 229.117,333.754 234.524,336.236 236.259,336.848 242.462,338.417 244.049,338.686 251.103,339.311 251.947,329.779 252.605,339.326 259.866,338.825 261.461,338.586 267.808,337.108 269.586,336.516 275.081,334.098 276.838,333.105 281.544,329.783 283.043,328.487 287.021,324.298 288.127,322.907 291.44,317.888 292.165,316.591 294.874,310.779 295.311,309.677 297.479,303.107 297.727,302.221 299.416,294.932 299.55,294.243 300.822,286.27 300.891,285.747 301.807,277.127 301.841,276.74 302.463,267.51 302.478,267.233 302.87,257.431 302.875,257.245 303.098,246.905 303.099,246.795 303.214,235.956 303.215,235.911 303.285,224.608 303.285,224.525 303.259,211.627 303.233,198.728 303.207,185.829 303.182,172.93 303.182,172.93 303.156,160.031 303.104,134.234 303.104,134.234 303.078,121.335 303.001,82.6386 303.001,82.6386 302.975,69.7398 302.897,31.0434 302.897,31.0434 302.891,28.2 304.589,28.1891 316.343,28.1135 328.096,28.038 339.849,27.9624 351.603,27.8868 363.356,27.8113 375.109,27.7357 386.862,27.6602 410.369,27.509 422.122,27.4335 433.875,27.3579 445.629,27.2823 457.382,27.2068 469.135,27.1312 470.723,27.121 " fill="none" stroke-width="0.5" stroke="rgb(0,0,0)" />
	<polygon points="197.555,445.203 197.701,445.209 197.324,445.179 " fill="none" stroke-width="0.5" stroke="rgb(0,0,0)" />
	<polygon points="318.303,422.436 318.487,423.046 318.818,424.498 318.898,424.888 318.986,425.36 319.615,425.852 320.482,426.588 320.934,427.037 320.994,426.983 321.702,426.392 322.426,425.84 323.126,425.355 324.052,424.794 323.982,424.544 323.604,421.809 323.604,420.688 " fill="none" stroke-width="0.5" stroke="rgb(0,0,0)" />
	<polygon points="168.709,414.804 168.676,415.285 169.143,414.21 168.705,413.981 " fill="none" stroke-width="0.5" stroke="rgb(0,0,0)" />
	<polygon points="76.9319,316.049 76.9184,316.174 77.5176,315.638 77.7645,315.457 77.2031,315.009 " fill="none" stroke-width="0.5" stroke="rgb(0,0,0)" />
	<polygon points="163.278,254.573 163.387,254.365 163.229,254.333 " fill="none" stroke-width="0.5" stroke="rgb(0,0,0)" />
	<polygon points="97.7786,218.537 97.8276,218.322 97.0269,218.321 " fill="none" stroke-width="0.5" stroke="rgb(0,0,0)" />
	<polygon points="92.2007,217.974 92.3118,218.412 92.4652,218.362 93.1942,218.24 95.0708,218.215 92.8238,217.964 92.1463,217.808 " fill="none" stroke-width="0.5" stroke="rgb(0,0,0)" />
	<polygon points="433.154,216.933 433.184,216.958 433.229,217.004 433.297,216.905 " fill="none" stroke-width="0.5" stroke="rgb(0,0,0)" />
	<polygon points="106.923,167.908 106.491,168.144 107.006,168.545 110.004,171.211 111.037,172.276 111.755,173.133 112.089,172.665 112.624,172.08 111.244,170.819 109.839,169.234 108.25,167.01 " fill="none" stroke-width="0.5" stroke="rgb(0,0,0)" />
	<polygon points="424.234,147.03 422.312,148.75 425.823,149.788 427.688,150.548 428.66,151.063 428.55,149.119 427.381,148.605 425.59,147.588 424.448,146.775 " fill="none" stroke-width="0.5" stroke="rgb(0,0,0)" />
	<polygon points="91.4648,119.306 90.011,120.25 89.582,120.479 90.1104,120.479 91.5154,120.622 91.7197,120.663 91.571,119.551 91.5442,119.332 91.5351,119.251 " fill="none" stroke-width="0.5" stroke="rgb(0,0,0)" />
	<polygon points="186.41,116.285 185.4,117.786 187.324,117.197 187.576,117.146 186.576,115.965 " fill="none" stroke-width="0.5" stroke="rgb(0,0,0)" />
</svg>
