<?xml version="1.0" standalone="no" ?>
<!DOCTYPE svg PUBLIC "-//W3C//DTD SVG 1.1//EN" "http://www.w3.org/Graphics/SVG/1.1/DTD/svg11.dtd">
<svg width="500px" height="500px" xmlns="http://www.w3.org/2000/svg" version="1.1" >
	<polygon points="480.823,29.7442 480.815,29.7544 480.391,30.4458 480.078,31.1197 479.885,31.6917 479.815,32.0177 479.938,33.6305 480.325,35.5107 480.823,37.2685 480.823,76.4232 479.409,79.7685 478.319,81.5719 473.004,88.0438 471.63,89.3357 464.596,94.42 464.007,94.7595 466.055,94.8507 468.541,95.3612 469.831,95.7523 471.926,96.6043 473.26,97.3143 474.983,98.4733 476.193,99.4921 477.562,100.924 478.5,102.136 479.533,103.805 480.149,105.05 480.823,106.816 480.823,120.534 480.518,121.574 479.48,123.914 479.594,123.978 480.823,124.989 480.823,188.89 480.803,188.932 478.325,191.799 476.746,192.873 473.157,194.126 471.743,194.008 473.263,195.271 474.026,196.004 478.028,200.446 478.841,201.536 480.823,204.783 480.823,243.794 478.39,247.936 478.026,248.496 474.245,253.768 474.766,253.741 476.235,253.894 477.939,254.281 479.198,254.729 480.823,255.561 480.823,281.286 480.214,292.148 479.072,293.921 478.608,294.563 476.031,297.752 475.436,298.403 472.478,301.277 471.764,301.676 472.295,302.371 472.969,303.43 474.885,307.097 475.317,308.1 476.761,312.28 477.023,313.246 477.127,313.766 473.11,329.62 467.07,347.047 459.27,364.67 456.251,370.201 454.406,371.252 450.605,371.231 448.406,369.947 448.669,371.275 449.373,378.837 449.312,380.684 448.865,383.47 438.331,399.399 425.161,415.952 410.17,431.593 402.31,438.345 401.591,438.224 399.671,437.622 398.178,436.917 396.897,436.142 395.569,435.142 395.734,437.33 395.645,439.154 394.629,444.943 393.345,446.047 374.668,459.037 354.126,470.285 331.702,479.516 324.923,481.45 322.563,480.779 321.196,480.238 318.533,478.861 317.274,478.037 315.075,476.251 314.016,475.195 312.29,473.081 311.482,471.86 310.238,469.501 309.696,468.175 308.944,465.652 308.671,464.261 308.518,462.679 308.453,462.83 307.786,464.044 305.02,468.117 303.552,469.676 303.899,469.684 304.77,469.754 306.217,470.018 306.887,470.21 308.586,470.942 309.079,471.233 310.689,472.517 311.034,472.882 312.167,474.454 312.39,474.868 312.978,476.314 313.104,476.753 313.33,477.848 313.386,478.287 313.442,478.992 313.455,479.407 313.204,481.553 312.806,483.026 311.7,485.221 307.382,486.452 281.151,490.817 267.933,491.529 266.986,490.877 265.16,489.385 264.279,488.534 263.882,488.08 262.446,488.812 262.033,489.006 257.868,490.812 257.439,490.982 253.818,492.289 252.993,492.333 225.548,490.902 199.887,486.773 182.887,482.088 179.438,479.638 175.461,476.844 172.374,475.108 170.415,474.543 167.38,474.243 163.238,474.013 162.791,473.975 159.356,473.573 153.907,471.407 134.721,461.266 130.098,456.784 128.146,453.522 128.104,450.923 127.49,450.978 126.039,450.965 117.81,450.073 115.039,448.212 98.2672,434.295 83.2685,419.161 71.4227,404.74 70.9632,401.063 70.9298,399.566 71.1499,396.81 68.1729,396.598 65.3027,394.774 63.5732,392.994 62.8425,392.486 58.5824,386.23 48.8916,368.927 40.9666,351.394 34.8057,333.879 34.6752,333.367 34.8627,331.596 35.1524,330.19 38.1207,320.629 38.5392,319.576 41.6509,313.222 37.7886,313.144 35.8195,312.524 32.8287,310.71 31.0102,308.892 29.7739,307.249 28.5925,305.111 27.7694,299.888 26.8905,283.906 26.8905,240.052 27.6392,237.49 27.9547,236.619 29.6163,232.801 30.4693,231.333 32.0664,229.197 30.5708,228.597 28.7745,227.562 26.8905,226.087 26.8905,168.675 27.0087,168.002 27.0962,167.577 28.0723,163.459 28.3058,162.673 29.8779,158.29 30.3489,157.243 32.7755,152.81 33.5649,151.648 36.6344,147.946 34.2398,147.247 32.9142,146.715 30.628,145.529 29.4127,144.737 27.427,143.143 26.8905,142.616 26.8905,112.421 28.0094,111.303 28.8679,110.569 30.7873,109.167 31.7227,108.586 32.0503,108.415 31.4956,108.207 30.2104,107.576 29.7255,107.277 28.427,106.255 28.0319,105.865 26.9254,104.469 26.8905,104.412 26.8905,92.8603 26.9476,92.6852 27.8065,90.9053 30.3101,87.1211 30.3011,87.1214 29.7023,87.0278 27.3773,86.2505 26.8905,85.9908 26.8905,61.279 27.107,61.0517 26.8905,60.9315 26.8905,42.6364 26.9326,42.5953 27.731,41.9182 31.6217,39.069 31.979,38.8232 36.4391,35.9451 36.5364,35.8834 38.0415,34.9452 34.7574,34.1132 34.3538,33.9986 30.6033,32.817 29.4952,32.3658 26.8905,31.0488 26.8905,19.5757 38.3822,19.4875 49.8739,19.3993 61.3656,19.3111 72.8572,19.223 79.743,19.1701 80.3484,19.7881 80.4544,19.3803 80.5649,19.1638 84.3489,19.1348 95.8406,19.0466 107.332,18.9584 115.1,18.8988 116.01,19.912 116.185,20.1143 117.392,21.5612 117.993,22.1221 118.145,22.2006 118.805,22.2956 119.42,22.2075 119.647,22.0945 120.339,21.4857 121.632,20.0599 121.821,19.8588 122.817,18.8396 130.316,18.7821 141.807,18.6939 153.299,18.6057 156.008,18.5849 157.07,22.1939 156.932,22.8789 159.692,20.8878 160.987,20.1412 164.608,18.519 164.791,18.5175 176.282,18.4294 187.774,18.3412 210.757,18.1648 210.738,28.0818 209.549,29.3856 209.225,29.6029 209.423,29.6404 210.734,30.0412 210.732,31.0636 210.706,43.9624 210.681,56.6422 209.171,57.2167 208.155,57.3978 207.12,57.4174 210.068,60.7968 210.663,61.5789 210.672,61.5924 210.656,69.76 210.63,82.6588 210.627,84.4354 209.715,84.9232 208.845,85.2869 207.644,85.6718 206.641,85.9006 205.523,86.0663 204.394,86.1458 203.134,86.1261 199.934,85.8003 203.811,88.8107 204.006,88.9674 208.301,92.5426 208.55,92.7591 210.607,94.6333 210.579,108.456 210.554,121.355 210.549,123.588 210.355,123.756 209.19,124.521 208.714,124.72 209.458,125.383 210.544,126.608 210.503,147.153 210.478,160.052 210.452,172.95 210.449,174.414 210.423,174.491 209.93,175.607 208.542,178.156 207.842,179.212 206.061,181.454 205.134,182.424 202.993,184.289 201.828,185.119 200.34,185.975 201.472,186.471 202.675,187.14 205.074,188.783 206.209,189.744 208.182,191.789 209.153,193.043 210.408,195.086 210.401,198.748 210.376,211.647 210.368,215.689 209.807,216.836 209.628,217.18 208.866,218.551 208.689,218.853 207.863,220.185 205.618,222.295 206.037,222.645 208.774,225.177 209.305,225.723 210.369,226.934 210.438,235.84 210.602,246.657 210.899,256.963 211.143,261.875 210.244,263.045 210.08,263.251 207.879,265.914 206.306,268.007 205.666,269.203 205.616,269.457 205.663,269.696 206.045,270.316 207.373,271.659 209.587,273.524 209.714,273.633 212.098,275.736 212.112,275.909 213.138,284.482 214.519,292.41 216.308,299.661 218.563,306.2 221.336,311.994 224.685,317.011 228.665,321.215 233.33,324.575 238.737,327.056 244.939,328.626 248.626,328.952 248.696,329.044 249.451,330.28 250.96,333.404 251.42,334.618 252.282,337.698 254.991,332.618 255.758,331.459 257.873,328.839 259.171,328.749 265.518,327.271 271.013,324.853 275.719,321.532 279.698,317.343 283.01,312.324 285.72,306.511 287.888,299.942 288.818,295.926 288.95,295.643 289.3,294.521 289.548,293.102 289.571,292.674 289.576,292.653 290.848,284.68 291.763,276.06 292.167,270.078 292.61,269.525 293.474,268.664 294.843,267.59 295.855,266.975 297.415,266.261 298.038,266.06 294.296,262.848 292.86,261.181 292.627,260.81 292.778,257.028 293,246.688 293.115,235.848 293.172,226.729 293.263,226.533 293.399,226.254 295.033,223.093 295.208,222.9 294.759,222.528 293.786,221.554 293.178,220.819 293.159,211.647 293.134,198.949 293.783,198.163 294.754,197.191 296.232,195.964 297.383,195.181 298.57,194.528 297.972,193.804 297.185,192.641 296.537,191.454 295.975,190.129 295.566,188.819 295.269,187.37 295.126,185.967 295.126,184.476 295.269,183.075 295.566,181.624 295.976,180.316 296.538,178.992 297.186,177.806 297.973,176.643 298.829,175.608 299.321,175.116 298.069,174.583 295.946,173.206 294.533,171.894 293.469,170.66 293.076,170.085 293.056,160.052 293.004,134.254 292.995,129.704 293.103,129.536 294.956,127.847 294.855,127.496 294.774,127.188 294.595,126.443 294.523,126.113 294.377,125.351 294.317,124.994 294.207,124.221 294.163,123.833 294.094,123.052 294.069,122.63 294.045,121.844 294.068,120.999 294.319,118.055 294.526,116.84 295.295,113.864 295.725,112.649 297.039,109.772 297.738,108.561 299.624,105.913 300.633,104.77 301.374,104.087 300.776,104.37 299.246,104.859 296.958,105.206 296.722,105.205 296.314,105.19 296.122,105.178 295.026,105.026 294.875,104.993 292.944,104.263 292.907,85.9394 294.066,83.8239 295.067,81.9927 293.602,81.74 292.898,81.5385 292.875,69.76 292.86,62.5604 294.468,61.4577 294.098,61.2909 293.642,61.066 292.856,60.6439 292.82,42.3807 293.277,42.1219 293.49,42.0061 295.021,41.205 294.635,40.6114 292.811,37.9377 292.797,31.0636 292.771,18.1648 303.092,18.0985 305.369,19.2712 305.518,19.3505 308.676,21.0701 308.756,20.3899 308.867,19.7207 309.04,18.9139 309.252,18.1332 309.277,18.0587 316.278,18.0137 328.031,17.9382 339.784,17.8626 351.538,17.787 363.291,17.7115 375.044,17.6359 376.02,17.6297 378.862,18.9338 380.146,19.6891 386.356,24.2474 386.617,24.4863 386.686,23.3624 388.083,20.9055 388.709,20.1774 391.146,18.3223 392.843,17.5215 410.304,17.4092 422.057,17.3337 433.81,17.2581 440.413,17.2157 441.235,17.6594 442.702,18.7016 444.727,20.5533 445.618,21.6766 446.051,20.8339 446.888,19.5524 448.33,17.781 448.955,17.1608 457.317,17.107 469.07,17.0314 480.823,16.9559 " fill="none" stroke-width="0.5" stroke="rgb(0,0,0)" />
	<polygon points="192.001,443.888 192.357,444.936 192.952,447.245 194.299,447.542 195.855,447.792 197.359,447.948 198.587,447.996 200.228,447.906 201.769,447.635 203.124,447.191 204.225,446.607 205.088,445.897 205.801,444.974 206.42,443.614 206.665,442.487 202.868,442.771 201.744,442.768 195.526,442.279 194.282,442.073 190.854,441.197 " fill="none" stroke-width="0.5" stroke="rgb(0,0,0)" />
	<polygon points="158.476,437.325 157.434,438.602 153.239,442.702 151.836,443.777 151.83,443.781 152.058,443.732 154.98,442.54 157.137,441.085 158.702,439.401 159.836,437.387 160.581,434.875 160.665,433.925 " fill="none" stroke-width="0.5" stroke="rgb(0,0,0)" />
	<polygon points="325.971,417.013 316.466,420.145 314.913,420.477 314.544,420.514 315.014,421.374 315.508,422.671 315.806,423.656 316.136,425.109 316.195,425.392 316.445,426.732 316.498,426.956 317.374,427.588 317.836,427.949 318.702,428.684 319.524,429.502 320.257,430.356 320.741,431.082 321.405,430.377 321.67,430.111 322.385,429.426 322.756,429.094 323.465,428.502 323.992,428.101 324.692,427.616 325.448,427.157 326.138,426.793 327.216,426.331 327.591,426.204 326.978,425.041 326.629,423.799 326.354,421.809 326.354,416.838 " fill="none" stroke-width="0.5" stroke="rgb(0,0,0)" />
	<polygon points="387.378,420.02 388.579,420.918 388.612,420.948 388.628,420.696 388.73,419.949 387.54,419.71 386.185,419.305 " fill="none" stroke-width="0.5" stroke="rgb(0,0,0)" />
	<polygon points="165.96,413.545 165.965,414.616 165.645,419.3 165.52,420.189 167.068,419.584 170.573,420.188 170.535,419.071 170.567,418.703 170.85,417.233 170.946,416.914 171.633,415.332 171.79,415.061 172.891,413.616 173.108,413.395 173.328,413.218 172.903,413.042 172.301,412.761 169.665,411.379 169.09,411.044 166.663,409.477 166.086,409.064 165.58,408.663 " fill="none" stroke-width="0.5" stroke="rgb(0,0,0)" />
	<polygon points="378.793,417.538 379.639,417.31 381.209,417.493 381.477,417.555 379.603,416.668 378.793,416.217 " fill="none" stroke-width="0.5" stroke="rgb(0,0,0)" />
	<polygon points="259.174,401.86 258.904,403.256 258.628,404.187 258.081,405.529 257.642,406.362 257.447,406.657 257.812,406.799 258.43,407.072 261.289,408.5 261.767,408.76 264.549,410.417 264.948,410.672 267.565,412.468 267.93,412.735 270.294,414.58 270.665,414.89 272.688,416.696 273.062,417.058 274.06,416.886 274.366,416.84 275.7,416.668 275.99,416.636 277.373,416.513 277.646,416.493 278.458,416.451 277.778,416.143 269.172,411.05 267.93,410.125 260.828,403.57 259.862,402.482 259.201,401.57 " fill="none" stroke-width="0.5" stroke="rgb(0,0,0)" />
	<polygon points="366.444,399.959 366.549,399.995 366.554,399.934 " fill="none" stroke-width="0.5" stroke="rgb(0,0,0)" />
	<polygon points="349.87,395.475 349.192,396.606 347.777,398.549 348.374,398.48 352.881,398.228 353.557,398.222 354.986,398.273 353.926,397.333 352.947,396.215 352.188,395.176 351.331,393.759 351.004,393.125 " fill="none" stroke-width="0.5" stroke="rgb(0,0,0)" />
	<polygon points="308.96,394.138 308.411,394.299 305.198,395.108 304.524,395.245 301.595,395.697 304.354,395.936 307.559,395.803 310.451,395.422 310.458,395.42 309.843,394.564 309.642,393.908 " fill="none" stroke-width="0.5" stroke="rgb(0,0,0)" />
	<polygon points="203.394,391.829 203.848,392.842 204.714,395.242 206.158,393.107 207.852,391.333 211.048,388.949 207.164,389.294 205.708,389.278 201.774,388.844 " fill="none" stroke-width="0.5" stroke="rgb(0,0,0)" />
	<polygon points="242.682,374.611 242.503,374.805 242.512,374.809 243.397,375.401 244.603,376.411 245.346,377.183 245.554,377.442 246.216,377.461 247.421,377.582 246.713,374.969 246.487,373.703 246.15,369.949 " fill="none" stroke-width="0.5" stroke="rgb(0,0,0)" />
	<polygon points="83.5548,367.134 82.7133,367.245 81.8296,367.308 79.5162,367.332 79.4981,367.331 80.3387,369.457 81.1072,374.532 81.11,374.529 83.6185,372.294 84.572,371.575 86.8293,370.144 85.6329,369.125 84.668,368.131 83.8327,367.091 " fill="none" stroke-width="0.5" stroke="rgb(0,0,0)" />
	<polygon points="357.113,370.486 356.981,371.767 357.224,371.669 358.792,371.131 359.367,370.96 360.187,370.752 359.946,370.628 358.707,369.821 357.116,368.539 356.436,367.868 " fill="none" stroke-width="0.5" stroke="rgb(0,0,0)" />
	<polygon points="324.658,367.554 323.903,368.752 323.623,369.114 326.976,368.896 327.627,368.826 326.47,368.232 325.18,367.39 324.869,367.136 " fill="none" stroke-width="0.5" stroke="rgb(0,0,0)" />
	<polygon points="117.928,355.04 117.431,355.272 117.445,356.456 117.319,357.902 116.908,360.092 116.486,361.52 116.164,362.306 116.338,362.275 120.589,361.89 121.741,361.901 121.385,361.595 120.119,360.185 119.451,359.215 118.52,357.328 118.188,356.311 117.932,355.038 " fill="none" stroke-width="0.5" stroke="rgb(0,0,0)" />
	<polygon points="295.724,357.933 294.146,358.645 292.72,359.095 294.372,360.321 294.533,360.444 296.263,361.802 296.171,360.82 296.147,359.786 296.2,358.679 296.25,358.102 296.317,357.576 " fill="none" stroke-width="0.5" stroke="rgb(0,0,0)" />
	<polygon points="395.179,340.955 394.958,341.139 393.81,342.062 393.163,342.527 392.142,343.179 390.273,344.033 389.438,344.281 387.244,344.461 388.307,347.472 388.679,349.088 388.773,349.912 393.166,346.232 394.929,345.137 397.588,343.968 396.561,342.731 396.395,342.523 395.183,340.951 " fill="none" stroke-width="0.5" stroke="rgb(0,0,0)" />
	<polygon points="58.6301,342.046 61.8252,347.184 61.848,347.207 61.955,346.153 62.4464,343.878 62.9319,342.405 63.8603,340.349 64.188,339.778 62.5863,339.435 61.5947,339.148 59.126,338.241 58.1067,337.754 " fill="none" stroke-width="0.5" stroke="rgb(0,0,0)" />
	<polygon points="165.244,320.591 164.991,323.432 164.772,324.674 164.022,327.489 163.593,328.677 162.356,331.358 161.694,332.506 159.98,334.943 159.047,336.027 156.866,338.111 155.642,339.057 153.005,340.681 153.004,340.681 153.185,340.772 155.644,342.263 156.523,342.888 158.872,344.834 159.583,345.507 160.345,346.332 160.24,345.407 160.197,344.335 160.255,342.552 160.289,342.05 160.468,340.286 160.549,339.709 160.855,338.031 161.023,337.315 161.463,335.791 161.808,334.843 162.386,333.541 163.122,332.252 163.846,331.239 165.414,329.633 166.29,328.976 169.079,327.685 169.146,327.67 166.968,324.373 166.248,322.978 165.229,320.35 " fill="none" stroke-width="0.5" stroke="rgb(0,0,0)" />
	<polygon points="415.567,333.108 413.78,333.301 413.522,333.324 413.415,333.332 413.551,334.092 413.571,334.207 413.795,335.576 413.835,335.852 413.993,337.121 414.039,337.641 414.099,338.769 414.107,339.372 414.097,339.705 414.062,340.241 414.028,340.576 413.96,341.013 418.126,341.368 419.363,341.581 419.641,341.654 419.227,341.183 417.582,337.98 416.419,332.945 " fill="none" stroke-width="0.5" stroke="rgb(0,0,0)" />
	<polygon points="127.896,337.654 127.879,339.511 128.032,339.437 128.959,339.062 129.606,338.85 129.56,338.817 127.861,337.301 " fill="none" stroke-width="0.5" stroke="rgb(0,0,0)" />
	<polygon points="384.882,312.675 384.033,314.505 383.435,316.144 383.247,317.117 383.05,319.267 382.876,322.21 382.732,324.658 382.913,324.232 383.982,321.514 384.841,318.871 385.39,316.406 385.595,313.935 385.573,312.695 385.504,311.59 " fill="none" stroke-width="0.5" stroke="rgb(0,0,0)" />
	<polygon points="75.1289,312.065 74.2196,315.551 73.922,318.307 73.9502,319.305 74.071,320.451 74.2888,321.478 74.6357,322.486 74.8833,322.983 75.8093,321.475 76.6667,320.342 78.0844,318.803 79.1437,317.856 80.8448,316.609 82.0509,315.89 83.0467,315.42 82.7619,315.305 81.1679,314.477 79.9691,313.698 78.5401,312.557 77.4901,311.531 76.2814,310.088 75.9939,309.663 " fill="none" stroke-width="0.5" stroke="rgb(0,0,0)" />
	<polygon points="342.877,314.421 342.115,315.195 346.835,318.413 347.805,319.203 350.874,322.171 351.014,321.852 351.267,321.332 351.706,320.513 350.278,320.107 349.242,319.726 347.935,319.131 344.949,316.642 344.453,315.93 343.574,313.497 " fill="none" stroke-width="0.5" stroke="rgb(0,0,0)" />
	<polygon points="163.676,297.815 162.406,298.254 160.966,298.595 159.783,298.751 158.209,298.789 157.853,298.76 157.274,298.661 158.486,300.523 158.898,301.242 162.69,308.814 162.647,307.661 162.816,304.503 162.899,303.723 163.391,300.677 163.555,299.92 164.188,297.592 " fill="none" stroke-width="0.5" stroke="rgb(0,0,0)" />
	<polygon points="132.574,307.067 132.571,307.892 133.99,307.732 134.17,307.749 135.526,308.062 134.953,306.873 132.143,302.164 " fill="none" stroke-width="0.5" stroke="rgb(0,0,0)" />
	<polygon points="310.893,306.094 311.111,306.123 311.785,306.242 312.495,306.402 312.157,305.245 " fill="none" stroke-width="0.5" stroke="rgb(0,0,0)" />
	<polygon points="434.247,294.999 434.15,295.132 433.561,295.919 435.067,296.732 435.238,296.828 435.361,296.898 434.627,294.468 " fill="none" stroke-width="0.5" stroke="rgb(0,0,0)" />
	<polygon points="459.1,289.057 458.412,289.375 457.504,290.127 456.317,291.561 455.89,292.222 456.472,292.239 459.661,292.752 460.145,292.907 460.11,292.18 459.925,290.922 459.632,289.79 459.322,289.026 " fill="none" stroke-width="0.5" stroke="rgb(0,0,0)" />
	<polygon points="88.3418,283.898 88.2793,284.021 85.9246,288.555 85.6457,289.093 86.8304,289.716 87.352,290.13 88.065,290.778 88.1972,290.915 88.5741,289.082 88.8849,285.82 89.0017,282.567 " fill="none" stroke-width="0.5" stroke="rgb(0,0,0)" />
	<polygon points="58.9242,282.117 59.25,282.788 59.5455,283.486 59.6122,283.669 59.7999,282.852 59.7904,282.838 59.6382,282.666 59.1187,282.186 59.1015,282.17 58.806,281.894 " fill="none" stroke-width="0.5" stroke="rgb(0,0,0)" />
	<polygon points="173.421,282.029 173.589,281.851 173.263,281.562 " fill="none" stroke-width="0.5" stroke="rgb(0,0,0)" />
	<polygon points="428.423,279.031 428.25,279.355 428.653,279.329 428.449,278.898 " fill="none" stroke-width="0.5" stroke="rgb(0,0,0)" />
	<polygon points="157.681,226.373 156.686,228.106 156.276,228.946 157.427,230.306 158.122,233.75 158.061,235.177 158.04,235.506 157.881,237.327 157.866,237.481 157.641,239.553 157.633,239.625 157.376,241.801 157.374,241.817 157.118,243.933 156.903,245.801 156.766,247.191 156.731,247.857 156.736,248.028 157.932,248.73 159.765,251.867 160.23,253.492 160.369,254.063 160.735,255.873 160.797,256.228 161.089,258.156 161.116,258.354 161.36,260.332 161.368,260.4 161.588,262.328 161.801,264.063 161.866,264.493 162.48,264.694 163.436,265.867 163.35,265.492 163.45,261.824 164.592,257.85 165.994,255.193 168.814,251.786 166.275,252.32 162.662,251.14 160.121,248.312 159.484,243.452 159.722,242.33 159.926,241.272 160.106,240.219 160.257,239.171 160.379,238.128 160.469,237.089 160.525,236.054 160.542,235.132 160.449,233.246 160.169,231.48 159.662,229.71 158.875,227.888 157.824,226.131 " fill="none" stroke-width="0.5" stroke="rgb(0,0,0)" />
	<polygon points="448.955,254.98 449.172,254.594 448.692,254.327 " fill="none" stroke-width="0.5" stroke="rgb(0,0,0)" />
	<polygon points="129.494,242.396 129.466,243.686 130.81,253.323 131.214,254.395 131.453,252.743 132.467,251.623 132.151,250.315 131.513,248.249 130.703,245.817 130.686,245.763 129.85,243.189 129.772,242.934 129.517,242.038 " fill="none" stroke-width="0.5" stroke="rgb(0,0,0)" />
	<polygon points="382.553,246.417 381.721,247.656 380.896,248.649 379.835,249.691 378.83,250.495 377.913,251.09 378.616,251.952 378.777,252.163 379.794,251.205 380.61,250.539 381.736,249.747 383.922,248.699 384.961,248.399 385.278,248.368 385.069,248.221 383.118,246.184 382.877,245.808 " fill="none" stroke-width="0.5" stroke="rgb(0,0,0)" />
	<polygon points="359.541,248.072 359.706,248.131 359.615,248.022 " fill="none" stroke-width="0.5" stroke="rgb(0,0,0)" />
	<polygon points="324.797,236.533 326.583,238.553 328.868,242.367 328.933,242.55 329.967,242.034 331.136,241.584 331.416,241.501 330.828,240.42 330.268,239.094 329.563,236.834 329.324,235.663 329.031,235.723 327.626,235.865 326.139,235.865 324.745,235.722 323.403,235.447 " fill="none" stroke-width="0.5" stroke="rgb(0,0,0)" />
	<polygon points="464.761,223.473 464.737,223.613 464.191,226.614 464.188,226.631 463.652,229.537 463.208,232.167 463.126,232.802 463.198,232.669 464.283,229.996 464.984,227.294 465.218,224.778 464.946,222.332 " fill="none" stroke-width="0.5" stroke="rgb(0,0,0)" />
	<polygon points="312.518,226.027 310.659,226.615 309.419,226.873 309.572,227.349 310.525,228.421 312.68,229.702 316.141,231.206 316.412,231.33 316.491,231.368 316.305,231.181 315.451,230.147 314.664,228.983 314.019,227.797 313.458,226.472 313.225,225.725 " fill="none" stroke-width="0.5" stroke="rgb(0,0,0)" />
	<polygon points="86.2453,213.475 87.2838,214.507 87.7466,215.088 88.5226,216.286 88.8788,216.974 89.3358,218.063 89.5876,218.831 89.8346,219.804 89.9842,220.626 90.0906,221.515 90.1253,222.11 90.1427,222.099 90.8796,221.734 92.9205,221.074 93.6495,220.952 95.8908,220.922 96.5346,221.013 98.5075,221.58 99.1192,221.853 100.1,222.457 100.25,220.442 100.412,219.357 101.254,215.657 101.409,215.149 100.936,215.259 97.9379,215.588 96.3182,215.587 93.129,215.231 91.4805,214.851 88.6162,213.832 87.1124,213.094 86.716,212.84 " fill="none" stroke-width="0.5" stroke="rgb(0,0,0)" />
	<polygon points="438.359,212.837 437.79,212.998 432.669,214.229 432.003,214.356 426.421,215.163 427.735,216.01 431.429,219.074 432.572,220.264 433.731,221.777 434.194,220.699 434.898,219.426 437.421,215.772 438.119,214.908 440.833,212.027 " fill="none" stroke-width="0.5" stroke="rgb(0,0,0)" />
	<polygon points="132.184,219.884 132.581,220.204 132.651,220.383 132.828,219.68 " fill="none" stroke-width="0.5" stroke="rgb(0,0,0)" />
	<polygon points="65.092,216.435 65.7427,216.864 66.2596,217.332 67.5031,218.796 67.9028,219.415 68.2243,220.044 69.8968,217.198 68.2519,216.768 66.9888,216.31 65.6082,215.662 " fill="none" stroke-width="0.5" stroke="rgb(0,0,0)" />
	<polygon points="189.605,214.271 190.814,216.672 191.069,217.362 191.435,217.047 194.055,216.547 193.983,216.287 193.515,215.396 192.924,214.714 192.025,214.059 190.612,213.407 188.669,212.869 " fill="none" stroke-width="0.5" stroke="rgb(0,0,0)" />
	<polygon points="381.51,201.722 380.828,202.969 380.041,204.13 379.235,205.104 380.186,205.888 380.923,206.624 383.406,203.765 384.621,203.346 382.172,201.35 381.822,200.986 " fill="none" stroke-width="0.5" stroke="rgb(0,0,0)" />
	<polygon points="366.055,170.368 364.923,171.13 365.851,172.826 366.415,174.15 367.073,176.243 367.374,177.697 367.603,179.936 367.603,180.707 369.037,180.706 369.362,180.739 366.701,172.225 366.482,171.334 366.276,170.187 " fill="none" stroke-width="0.5" stroke="rgb(0,0,0)" />
	<polygon points="146.56,175.537 145.586,175.795 144.509,176.002 147.076,178.457 147.158,178.113 148.117,175.117 148.178,174.988 " fill="none" stroke-width="0.5" stroke="rgb(0,0,0)" />
	<polygon points="108.79,162.864 107.805,163.85 106.77,164.706 105.606,165.494 104.42,166.141 103.094,166.704 101.786,167.113 100.467,167.383 101.163,167.797 104.424,170.012 105.178,170.6 108.177,173.266 108.929,174.041 111.517,177.134 112.045,177.886 113.088,175.968 114.119,174.52 115.506,173.002 116.735,171.975 115.993,171.433 113.099,168.789 112.077,167.635 109.854,164.524 109.144,163.293 108.893,162.74 " fill="none" stroke-width="0.5" stroke="rgb(0,0,0)" />
	<polygon points="310.39,170.71 310.246,170.934 311.571,171.068 312.865,171.333 312.901,171.219 312.301,171.097 311.796,170.976 310.443,170.6 " fill="none" stroke-width="0.5" stroke="rgb(0,0,0)" />
	<polygon points="423.76,143.356 422.401,144.981 419.66,147.433 418.394,148.343 415.328,150.087 417.2,150.256 418.625,150.528 425.044,152.425 426.401,152.978 432.087,155.989 433.104,156.648 431.308,150.384 431.252,147.204 430.167,146.825 428.488,146.087 427.184,145.347 425.824,144.38 424.45,143.11 424.139,142.739 " fill="none" stroke-width="0.5" stroke="rgb(0,0,0)" />
	<polygon points="355.71,139.097 355.106,145.467 355.59,145.369 356.931,145.234 358.403,145.234 359.743,145.369 361.183,145.661 362.431,146.048 363.758,146.607 364.887,147.22 366.059,148.01 366.898,148.701 366.92,148.674 366.978,148.62 367.196,148.472 364.807,147.072 363.684,146.262 358.347,141.594 357.459,140.667 355.723,138.509 " fill="none" stroke-width="0.5" stroke="rgb(0,0,0)" />
	<polygon points="129.263,136.556 126.491,137.941 127.008,139.487 127.486,141.78 127.543,142.085 127.771,143.469 128.004,142.936 128.286,142.078 128.593,141.013 128.855,139.958 129.071,138.923 129.238,137.921 129.355,136.966 129.396,136.438 " fill="none" stroke-width="0.5" stroke="rgb(0,0,0)" />
	<polygon points="106.733,141.77 106.823,141.421 105.889,141.199 " fill="none" stroke-width="0.5" stroke="rgb(0,0,0)" />
	<polygon points="313.848,125.109 312.734,125.629 311.773,126.291 310.981,127.05 310.387,127.837 310.01,128.555 309.621,129.784 308.592,131.396 309.009,131.619 309.91,131.984 310.79,132.23 311.716,132.378 312.821,132.434 313.088,132.426 313.551,132.39 314.12,132.327 314.767,132.244 315.45,132.152 315.51,132.144 316.164,132.061 316.354,132.039 316.336,132.015 315.745,131.062 315.561,130.707 315.137,129.72 315.008,129.346 314.743,128.364 314.667,127.978 314.544,127.025 314.519,126.632 314.543,125.407 314.595,124.908 " fill="none" stroke-width="0.5" stroke="rgb(0,0,0)" />
	<polygon points="92.5224,114.961 92.0381,115.374 89.7749,117.136 88.7169,117.823 86.3788,119.07 84.3405,119.796 81.9392,120.269 80.9041,120.315 81.054,122.949 81.0641,123.53 81.0324,124.956 81.0184,125.274 80.9881,125.736 81.6675,125.276 82.8536,124.628 84.18,124.065 85.4889,123.655 86.9396,123.358 88.3426,123.215 89.8319,123.214 91.237,123.357 92.6857,123.654 93.9966,124.064 95.0063,124.492 94.2967,119.186 94.2772,119.027 93.7012,113.867 " fill="none" stroke-width="0.5" stroke="rgb(0,0,0)" />
	<polygon points="185.408,110.563 185.276,111.388 185.04,112.4 184.811,113.144 184.307,114.369 183.971,115.014 183.054,116.377 182.603,116.908 181.201,118.181 180.628,118.58 178.9,119.47 178.195,119.721 176.482,120.11 175.638,120.198 174.377,120.098 174.848,121.059 176.535,125.441 176.578,125.585 176.738,125.46 179.738,123.373 180.637,122.839 183.757,121.272 184.906,120.812 188.128,119.827 189.52,119.545 192.824,119.203 192.974,119.204 192.887,119.118 192.44,118.635 188.196,113.623 187.956,113.323 185.462,110.046 " fill="none" stroke-width="0.5" stroke="rgb(0,0,0)" />
	<polygon points="124.989,112.359 123.826,117.009 125.759,114.737 126.604,113.894 127.119,113.458 126.582,112.972 125.225,111.506 " fill="none" stroke-width="0.5" stroke="rgb(0,0,0)" />
	<polygon points="414.133,104.692 416.276,106.658 416.934,107.393 416.947,105.005 417.455,104.134 416.317,104.122 416.173,104.12 413.026,104.027 " fill="none" stroke-width="0.5" stroke="rgb(0,0,0)" />
	<polygon points="392.438,102.149 393.483,103.268 394.247,104.238 395.051,105.458 395.289,105.402 396.636,104.961 398.243,104.356 399.952,103.694 400.14,103.625 401.296,103.213 398.682,102.938 398.545,102.923 395.119,102.498 394.98,102.479 392.386,102.108 " fill="none" stroke-width="0.5" stroke="rgb(0,0,0)" />
	<polygon points="146.333,102.053 145.817,104.94 149.351,104.682 149.863,104.692 149.301,104.212 146.37,101.855 " fill="none" stroke-width="0.5" stroke="rgb(0,0,0)" />
	<polygon points="307.909,99.5628 309.017,99.0771 309.434,98.947 309.385,98.6813 309.33,98.329 " fill="none" stroke-width="0.5" stroke="rgb(0,0,0)" />
	<polygon points="382.058,98.8109 382.46,98.7729 382.919,98.744 383.451,98.7272 384.793,98.8078 385.527,98.9199 384.462,97.3667 384.354,97.1491 384.338,97.1049 " fill="none" stroke-width="0.5" stroke="rgb(0,0,0)" />
	<polygon points="65.7589,96.3493 65.7116,96.3754 68.5328,97.6764 69.3012,98.1711 69.4792,96.8018 69.4806,96.7912 69.7626,94.6461 69.8138,94.2151 " fill="none" stroke-width="0.5" stroke="rgb(0,0,0)" />
	<polygon points="126.857,63.9186 126.127,67.378 126.027,67.7947 125.18,70.9018 124.792,71.8932 126.098,72.7397 126.212,72.1183 126.494,71.0444 126.756,70.2864 127.564,68.6432 127.933,68.0817 129.794,66.1619 129.738,66.0873 128.014,63.6877 127.179,62.5811 " fill="none" stroke-width="0.5" stroke="rgb(0,0,0)" />
	<polygon points="105.209,60.9659 103.499,62.3584 101.655,63.9367 101.472,64.0882 99.691,65.5162 98.9861,66.0161 97.3682,67.0261 97.2373,67.0831 97.3976,67.641 97.6118,68.6476 97.7195,69.4141 97.7853,70.1487 97.8052,70.6551 100.17,69.2587 102.228,68.5453 105.754,68.2905 105.593,66.3662 105.574,66.0585 105.432,62.6328 105.268,60.9249 " fill="none" stroke-width="0.5" stroke="rgb(0,0,0)" />
	<polygon points="407.075,60.7007 409.093,61.8945 410.472,63.0423 410.892,63.4206 412.515,64.9985 414.244,66.6206 415.963,68.0015 417.638,69.0187 419.238,69.6207 421.199,69.8681 421.318,69.8626 421.83,69.7848 422.237,69.6659 422.392,69.5894 422.483,69.3406 422.516,69.0314 422.182,67.9239 420.75,66.4449 417.294,64.4005 412.573,62.4444 407.454,60.7471 406.253,60.3782 " fill="none" stroke-width="0.5" stroke="rgb(0,0,0)" />
	<polygon points="401.328,59.1084 401.325,60.0022 402.338,59.8135 402.6,59.7891 405.818,60.2444 402.777,59.3104 402.432,59.1949 401.298,58.784 " fill="none" stroke-width="0.5" stroke="rgb(0,0,0)" />
	<polygon points="163.369,47.8225 162.785,48.8656 164.604,49.4841 164.805,49.5559 165.724,49.8983 165.483,49.6551 163.444,47.6291 " fill="none" stroke-width="0.5" stroke="rgb(0,0,0)" />
	<polygon points="397.28,39.2686 397.882,40.715 398.323,42.2045 399.724,41.5012 400.622,41.1226 403.594,40.0961 404.075,39.9482 407.736,38.9581 408.034,38.8852 406.59,38.1223 402.318,36.5033 398.357,35.3764 394.994,34.5346 394.626,34.4275 " fill="none" stroke-width="0.5" stroke="rgb(0,0,0)" />
	<polygon points="152.614,29.886 151.482,30.5401 151.332,30.6098 152.781,31.5149 152.943,31.6128 152.8,29.7595 152.801,29.7542 " fill="none" stroke-width="0.5" stroke="rgb(0,0,0)" />
	<polygon points="82.1269,30.1387 83.6026,29.5921 82.6771,28.6587 " fill="none" stroke-width="0.5" stroke="rgb(0,0,0)" />
</svg>
