<?xml version="1.0" standalone="no" ?>
<!DOCTYPE svg PUBLIC "-//W3C//DTD SVG 1.1//EN" "http://www.w3.org/Graphics/SVG/1.1/DTD/svg11.dtd">
<svg width="500px" height="500px" xmlns="http://www.w3.org/2000/svg" version="1.1" >
	<polygon points="465.923,280.868 465.137,294.876 462.795,309.665 458.823,325.342 453.194,341.583 445.895,358.075 436.919,374.521 426.263,390.635 413.928,406.137 399.913,420.762 384.212,434.249 366.814,446.35 347.692,456.821 326.807,465.418 304.105,471.893 279.522,475.983 252.98,477.412 227.124,476.064 203.059,472.191 180.752,466.044 160.159,457.858 141.24,447.858 123.972,436.263 108.34,423.291 94.3409,409.166 81.9796,394.117 71.2644,378.382 62.2049,362.206 54.809,345.843 49.0807,329.558 45.0173,313.621 42.6055,298.315 41.7905,283.496 41.7905,34.3618 49.9882,34.2989 61.4799,34.2107 61.4799,34.2107 72.9716,34.1225 84.4632,34.0343 95.9549,33.9462 95.9549,33.9462 107.447,33.858 118.938,33.7698 130.43,33.6816 141.922,33.5935 153.413,33.5053 164.905,33.4171 176.397,33.3289 187.888,33.2408 195.828,33.1798 195.806,43.933 195.781,56.8318 195.756,69.7306 195.756,69.7307 195.73,82.6294 195.679,108.427 195.679,108.427 195.654,121.326 195.603,147.123 195.603,147.123 195.578,160.022 195.552,172.921 195.552,172.921 195.527,185.82 195.501,198.719 195.476,211.617 195.476,211.617 195.45,224.516 195.451,224.661 195.538,235.955 195.539,236.067 195.704,246.884 195.708,247.086 196.005,257.392 196.017,257.702 196.502,267.464 196.53,267.903 197.258,277.087 197.318,277.681 198.344,286.254 198.459,287.038 199.84,294.966 200.053,295.981 201.843,303.231 202.222,304.517 204.476,311.056 205.123,312.634 207.897,318.428 208.944,320.268 212.293,325.284 213.864,327.253 217.843,331.457 219.958,333.306 224.623,336.666 227.115,338.117 232.521,340.598 235.082,341.501 241.284,343.07 243.626,343.468 250.68,344.092 251.947,329.779 252.936,344.115 260.196,343.614 262.55,343.261 268.897,341.783 271.519,340.91 277.015,338.491 279.606,337.026 284.312,333.704 286.523,331.793 290.501,327.604 292.133,325.551 295.446,320.532 296.515,318.619 299.225,312.806 299.869,311.181 302.037,304.612 302.403,303.305 304.092,296.015 304.29,294.999 305.562,287.026 305.664,286.254 306.58,277.635 306.63,277.063 307.252,267.833 307.274,267.425 307.666,257.622 307.674,257.348 307.896,247.008 307.899,246.846 308.014,236.007 308.015,235.941 308.085,224.638 308.085,224.516 308.059,211.617 308.033,198.718 308.007,185.819 307.982,172.921 307.982,172.921 307.956,160.022 307.904,134.224 307.904,134.224 307.878,121.325 307.801,82.629 307.801,82.6289 307.775,69.7301 307.701,32.9692 316.374,32.9134 328.127,32.8379 339.88,32.7623 351.633,32.6867 375.14,32.5356 386.893,32.4601 410.4,32.3089 422.153,32.2334 433.906,32.1578 445.659,32.0822 457.413,32.0067 465.923,31.952 " fill="none" stroke-width="0.5" stroke="rgb(0,0,0)" />
</svg>
