<?xml version="1.0" standalone="no" ?>
<!DOCTYPE svg PUBLIC "-//W3C//DTD SVG 1.1//EN" "http://www.w3.org/Graphics/SVG/1.1/DTD/svg11.dtd">
<svg width="500px" height="500px" xmlns="http://www.w3.org/2000/svg" version="1.1" >
	<polygon points="474.723,83.9809 472.038,87.2505 470.898,88.3226 463.864,93.407 462.771,94.0362 456.852,96.671 457.841,96.9548 459.11,97.4802 459.983,97.9629 460.215,98.1306 461.747,96.6464 465.803,96.0752 468.289,96.5856 469.36,96.9102 471.455,97.7623 472.562,98.3515 474.285,99.5105 474.723,99.8795 474.723,192.077 471.156,192.72 467.822,191.9 466.235,191.264 465.729,190.972 467.601,192.232 468.095,192.602 472.464,196.233 473.097,196.841 474.723,198.646 474.723,250.957 472.826,253.603 472.751,253.706 471.526,255.34 472.746,255.083 474.637,254.985 474.723,254.994 474.723,281.115 473.898,295.813 473.46,298.58 471.607,300.38 469.891,301.282 471.302,303.13 471.861,304.009 472.428,305.094 471.424,311.437 467.26,327.869 461.389,344.81 453.794,361.97 449.752,369.376 447.602,367.717 446.534,365.182 445.443,358.884 443.347,355.574 440.006,352.973 436.353,351.142 436.944,351.674 440.858,356.022 441.635,357.101 444.683,362.492 445.206,363.709 447.183,370.171 447.424,371.391 447.603,373.313 444.465,379.064 433.39,395.811 420.562,411.934 405.971,427.159 397.13,434.753 396.234,434.078 395.502,433.429 394.22,432.093 393.674,431.438 393.646,431.399 394.077,433.138 394.24,434.147 394.459,437.048 389.606,441.217 371.452,453.843 351.492,464.773 329.698,473.744 318.058,477.064 315.863,475.281 314.984,474.404 313.258,472.291 312.587,471.277 311.344,468.918 310.894,467.818 310.142,465.294 309.915,464.14 309.663,461.535 309.647,460.547 309.888,456.862 309.981,456.132 310.178,455.085 309.555,457.052 309.339,457.629 307.305,462.334 306.752,463.342 303.985,467.414 302.67,468.813 299.449,471.302 300.087,471.205 300.779,471.095 301.062,471.057 301.778,470.978 302.237,470.945 303.101,470.915 303.799,470.93 304.67,471 305.872,471.219 306.541,471.411 307.951,472.019 308.444,472.31 309.78,473.375 310.125,473.74 311.066,475.045 311.288,475.459 311.776,476.66 311.902,477.098 312.09,478.007 312.146,478.446 312.17,478.744 306.041,480.492 280.484,484.744 252.987,486.225 226.193,484.827 201.186,480.803 177.95,474.4 156.466,465.86 136.719,455.422 129.414,450.516 129.473,449.545 128.145,449.664 118.696,443.32 102.391,429.79 87.8015,415.069 74.9285,399.397 72.484,395.807 72.5352,395.165 72.15,395.317 63.7743,383.017 54.342,366.175 46.6336,349.122 40.6498,332.11 38.4923,323.648 39.3145,321 39.6618,320.126 43.8584,311.557 43.9942,311.313 43.7038,311.448 41.5874,312.021 38.1638,311.951 36.1947,311.332 35.7008,311.032 33.8432,299.244 32.9905,283.738 32.9905,230.048 33.3088,229.623 34.5291,228.652 33.2678,228.332 32.9905,228.221 32.9905,155.021 33.8719,153.41 34.5271,152.446 38.0665,148.177 38.9751,147.289 39.2208,147.094 38.268,147.005 37.1257,146.787 34.5902,146.047 33.49,145.606 32.9905,145.346 32.9905,109.335 34.5538,108.519 37.9461,107.854 40.9305,109.05 41.2926,107.812 41.7018,106.787 41.0992,106.959 37.0741,107.702 35.6026,107.793 34.9103,107.751 34.089,107.646 33.4555,107.521 32.9905,107.388 32.9905,39.6581 37.1168,36.9954 37.1976,36.9442 41.2047,34.4465 39.3962,33.9988 39.3638,33.9907 35.0644,32.9015 34.7295,32.8064 32.9905,32.2586 32.9905,25.629 38.429,25.5873 49.9207,25.4991 61.4124,25.411 72.9041,25.3228 81.3129,25.2583 81.5251,28.1704 80.721,30.333 79.3576,32.4793 79.2257,32.6138 80.8273,31.9568 81.0236,31.8803 84.1764,30.7126 86.5591,29.7461 86.3167,29.6635 85.3887,29.2586 84.4591,28.7573 81.9604,26.2372 81.6078,25.5696 81.5447,25.2565 84.3957,25.2346 95.8874,25.1464 107.379,25.0583 118.871,24.9701 130.362,24.8819 141.854,24.7937 153.346,24.7055 155.328,24.6903 155.287,24.8712 154.92,25.6902 152.864,28.182 151.895,28.8636 150.955,29.4065 149.585,30.0429 149.449,30.104 148.773,30.3983 149.518,30.9504 152.126,32.5799 154.603,34.0776 154.271,33.1343 154.543,28.4326 155.596,26.2754 156.941,24.678 164.837,24.6174 176.329,24.5292 187.821,24.441 204.645,24.3119 204.632,31.0516 204.632,31.0516 204.606,43.9504 204.583,56.0025 204.139,55.9406 204.336,56.1418 204.574,56.3997 204.582,56.4087 204.581,56.8492 204.556,69.748 204.556,69.748 204.53,82.6468 204.526,84.8834 204.306,84.8988 203.26,84.8825 199.279,84.4772 198.541,84.3561 194.641,83.4672 198.07,85.9405 198.242,86.0693 203.045,89.798 203.206,89.9281 204.514,91.0162 204.479,108.444 204.454,121.343 204.403,147.141 204.378,160.04 204.352,172.938 204.335,181.458 204.313,181.481 202.171,183.347 201.205,184.036 198.736,185.455 197.591,185.965 197.244,186.078 198.208,186.404 200.97,187.616 201.968,188.171 204.319,189.782 204.301,198.736 204.276,211.635 204.276,211.635 204.256,221.798 204.222,221.828 203.163,221.993 204.254,222.818 204.25,224.534 204.251,224.593 204.338,235.887 204.338,235.933 204.503,246.75 204.505,246.833 204.802,257.139 204.806,257.266 205.291,267.028 205.303,267.207 205.307,267.256 205.249,267.332 204.476,268.778 204.342,269.456 204.479,270.158 205.056,271.094 205.659,271.704 206.031,276.391 206.055,276.634 207.082,285.207 207.129,285.528 208.509,293.457 208.597,293.872 210.386,301.123 210.541,301.649 212.796,308.188 213.061,308.834 215.834,314.628 216.263,315.381 219.612,320.398 220.255,321.204 224.235,325.408 225.1,326.165 229.765,329.525 230.786,330.119 236.192,332.6 237.24,332.97 243.443,334.539 244.401,334.702 250.291,335.223 251.129,338.216 251.302,339.053 251.638,341.565 255.059,335.147 259.591,334.835 260.554,334.69 266.901,333.213 267.975,332.855 273.47,330.437 274.531,329.837 279.237,326.515 280.142,325.732 284.121,321.544 284.789,320.703 288.101,315.684 288.539,314.901 291.249,309.089 291.512,308.423 293.68,301.854 293.83,301.319 295.519,294.029 295.6,293.613 296.871,285.64 296.913,285.324 297.829,276.705 297.85,276.471 298.472,267.241 298.473,267.233 298.942,267.082 300.223,266.815 301.205,266.719 300.013,265.998 299.198,265.408 298.569,264.868 298.873,257.271 298.876,257.159 299.098,246.819 299.1,246.753 299.215,235.913 299.215,235.886 299.285,224.583 299.285,224.533 299.259,211.635 299.233,198.736 299.227,195.593 299.676,195.346 300.677,194.917 300.608,194.86 299.791,194.043 299.223,193.355 299.207,185.837 299.19,177.132 299.792,176.404 300.609,175.588 301.644,174.733 302.441,174.194 300.044,174.065 299.183,173.699 299.182,172.938 299.182,172.938 299.156,160.039 299.104,134.242 299.104,134.242 299.078,121.343 299.053,108.87 300.643,106.638 301.48,105.689 303.964,103.402 305.045,102.607 308.156,100.811 309.39,100.27 310.897,99.8002 310.83,99.5371 310.745,99.1524 310.613,98.4512 310.557,98.0919 310.354,96.4859 310.271,95.84 309.247,96.745 309.207,96.7794 306.805,98.8659 306.614,99.0256 304.337,100.846 303.845,101.2 301.859,102.487 300.396,103.18 299.043,103.612 299.001,82.6466 299.001,82.6466 298.975,69.7478 298.897,31.0514 298.897,31.0514 298.883,24.2257 304.564,24.1892 316.317,24.1136 328.07,24.038 339.824,23.9625 351.577,23.8869 363.33,23.8114 375.083,23.7358 383.473,23.6819 385.616,25.255 386.586,26.1429 388.335,28.1308 387.622,26.5994 388.474,23.6497 410.343,23.5091 422.096,23.4336 433.85,23.358 445.251,23.2847 445.792,24.251 446.091,23.4918 446.2,23.2786 457.356,23.2069 469.109,23.1313 474.723,23.0952 " fill="none" stroke-width="0.5" stroke="rgb(0,0,0)" />
	<polygon points="188.865,439.72 190.851,444.378 191.146,445.248 191.92,448.249 192.564,448.439 194.066,448.77 195.691,449.031 197.27,449.195 198.596,449.247 200.372,449.15 202.073,448.85 203.615,448.345 204.922,447.653 205.991,446.773 206.878,445.624 207.614,444.01 208.236,441.139 208.249,441.115 202.775,441.524 201.842,441.522 195.624,441.033 194.592,440.862 189.395,439.534 188.632,439.263 " fill="none" stroke-width="0.5" stroke="rgb(0,0,0)" />
	<polygon points="160.967,430.933 160.424,431.991 157.425,436.649 156.56,437.708 152.366,441.808 151.201,442.7 145.671,445.962 148.44,445.785 152.428,444.931 155.572,443.648 157.955,442.041 159.719,440.143 160.994,437.878 161.815,435.11 162.133,431.535 162.13,431.318 162.112,430.841 162.084,430.335 162.045,429.806 161.998,429.26 161.944,428.702 161.924,428.514 " fill="none" stroke-width="0.5" stroke="rgb(0,0,0)" />
	<polygon points="326.794,415.272 325.58,415.825 316.075,418.958 314.786,419.233 312.396,419.477 313.053,420.367 313.846,421.819 314.34,423.116 314.587,423.933 314.917,425.386 314.966,425.621 315.221,426.99 315.389,427.702 315.705,427.926 315.737,427.949 316.644,428.602 317.027,428.902 317.893,429.637 318.576,430.316 319.309,431.17 320.13,432.404 320.537,433.214 320.716,432.999 321.437,432.172 321.595,431.998 322.315,431.235 322.534,431.014 323.249,430.329 323.557,430.053 324.266,429.462 324.703,429.129 325.404,428.644 326.031,428.263 326.721,427.899 327.616,427.515 328.294,427.286 329.43,427.03 329.367,426.955 328.182,424.702 327.832,423.461 327.604,421.809 327.604,414.789 " fill="none" stroke-width="0.5" stroke="rgb(0,0,0)" />
	<polygon points="243.718,410.622 243.647,411.739 242.869,416.715 242.349,418.396 240.143,423.026 239.35,424.274 236.901,427.256 239.868,424.415 242.808,420.426 244.952,416.074 246.368,411.096 246.18,411.092 245.243,410.956 243.787,410.557 243.715,410.527 " fill="none" stroke-width="0.5" stroke="rgb(0,0,0)" />
	<polygon points="377.543,417.615 377.542,417.758 377.525,418.481 377.507,418.821 377.486,419.093 379.494,418.551 381.064,418.735 382.349,419.029 383.982,419.593 385.124,420.126 386.735,421.092 387.732,421.837 389.238,423.225 390.056,424.147 390.168,424.303 390.08,423.924 389.884,422.408 389.846,421.247 389.875,420.774 390,419.872 390.107,419.371 390.263,418.868 388.999,418.734 387.898,418.512 384.337,417.448 383.476,417.117 380.137,415.538 379.437,415.148 377.543,413.925 " fill="none" stroke-width="0.5" stroke="rgb(0,0,0)" />
	<polygon points="164.714,413.642 164.718,414.531 164.398,419.215 164.276,420.078 163.691,422.808 164.792,421.63 168.146,420.794 170.553,421.403 172.063,422.138 171.831,420.668 171.78,419.181 171.812,418.813 172.047,417.593 172.143,417.274 172.713,415.961 172.871,415.69 173.784,414.491 174.001,414.269 175.113,413.373 175.388,413.201 175.919,412.938 173.381,411.887 172.881,411.654 170.245,410.272 169.768,409.994 167.341,408.427 166.862,408.084 164.705,406.375 164.203,405.931 164.107,405.835 " fill="none" stroke-width="0.5" stroke="rgb(0,0,0)" />
	<polygon points="257.853,398.021 257.981,398.915 258.038,399.738 258.025,400.73 257.93,401.742 257.705,402.901 257.429,403.832 256.976,404.946 256.536,405.779 255.866,406.791 255.499,407.24 257.359,407.964 257.871,408.191 260.731,409.618 261.127,409.834 263.91,411.491 264.241,411.703 266.858,413.499 267.161,413.72 269.525,415.566 269.833,415.823 271.856,417.628 272.214,417.976 272.629,418.412 272.72,418.392 272.987,418.34 274.272,418.118 274.526,418.08 275.86,417.907 276.101,417.881 277.484,417.758 277.711,417.742 279.143,417.668 279.357,417.66 280.839,417.636 281.082,417.636 283.213,417.686 283.486,417.698 285.689,417.849 285.946,417.872 286.814,417.968 279.625,415.616 278.414,415.068 269.808,409.974 268.777,409.207 261.676,402.651 260.875,401.748 257.712,397.385 " fill="none" stroke-width="0.5" stroke="rgb(0,0,0)" />
	<polygon points="348.744,394.931 348.181,395.871 344.961,400.292 347.739,399.809 348.444,399.728 352.951,399.477 353.511,399.471 357.305,399.608 357.79,399.645 361.261,400.049 361.832,400.143 364.924,400.805 365.623,400.999 367.689,401.706 367.626,401.46 367.862,398.36 363.018,399.445 360.32,399.438 359.17,399.174 357.097,398.268 356.02,397.533 354.866,396.51 353.887,395.391 353.257,394.53 352.401,393.112 352.029,392.392 351.32,390.762 351.08,390.113 351.076,390.1 " fill="none" stroke-width="0.5" stroke="rgb(0,0,0)" />
	<polygon points="218.051,386.954 216.869,387.178 207.053,388.049 205.845,388.036 199.249,387.308 199.998,388.319 200.458,389.04 202.295,392.426 202.672,393.266 203.814,396.43 204.112,397.619 204.206,398.267 204.372,397.977 207.193,393.807 208.599,392.335 212.554,389.385 215.023,388.29 220.708,387.171 222.353,387.074 223.398,387.154 224.104,387.25 225.353,387.495 225.793,387.603 225.674,386.815 225.591,385.796 225.592,384.8 225.598,384.734 " fill="none" stroke-width="0.5" stroke="rgb(0,0,0)" />
	<polygon points="308.561,392.953 308.105,393.087 304.893,393.896 304.333,394.01 300.626,394.582 300.007,394.645 295.765,394.862 295.027,394.855 291.513,394.609 290.686,394.494 290.367,394.427 291.55,394.989 297.491,396.596 304.325,397.188 307.666,397.05 310.677,396.653 312.493,396.223 311.038,394.197 310.783,393.365 310.714,392.228 " fill="none" stroke-width="0.5" stroke="rgb(0,0,0)" />
	<polygon points="246.362,367.373 245.746,368.399 241.679,373.865 240.807,374.81 240.418,375.151 240.536,375.195 241.817,375.848 242.701,376.44 243.703,377.278 244.446,378.05 244.958,378.691 245.209,378.68 246.09,378.705 247.336,378.83 248.593,379.092 249.177,379.28 247.92,374.642 247.732,373.591 247.045,365.934 " fill="none" stroke-width="0.5" stroke="rgb(0,0,0)" />
	<polygon points="145.585,371.28 146.604,372.073 152.105,377.38 152.892,378.309 153.552,379.267 152.685,377.236 151.358,375.183 149.563,373.217 147.226,371.349 144.28,369.614 140.67,368.066 140.155,367.91 " fill="none" stroke-width="0.5" stroke="rgb(0,0,0)" />
	<polygon points="83.6501,365.855 83.3913,365.895 82.5497,366.006 81.8163,366.058 79.5028,366.082 78.2913,365.974 77.1754,365.76 78.0967,367.099 79.1028,369.644 80.2717,377.363 81.3103,376.115 81.9415,375.462 84.45,373.228 85.2413,372.631 87.7205,371.059 88.805,370.514 89.284,370.331 88.8972,370.114 87.9292,369.439 86.4435,368.173 85.6427,367.349 84.4079,365.811 84.3547,365.731 " fill="none" stroke-width="0.5" stroke="rgb(0,0,0)" />
	<polygon points="170.752,371.284 171.486,373.78 171.862,374.736 171.884,374.741 172.19,374.785 172.503,374.812 172.831,374.821 173.294,374.815 173.814,374.798 174.349,374.773 174.899,374.741 175.007,374.735 174.501,374.293 173.752,373.513 170.149,369.025 " fill="none" stroke-width="0.5" stroke="rgb(0,0,0)" />
	<polygon points="354.239,363.287 352.969,364.53 355.283,367.055 355.87,370.358 355.512,373.833 355.75,373.698 356.998,373.108 357.629,372.851 359.198,372.314 359.674,372.172 361.379,371.739 363.676,370.976 363.511,370.929 362.395,370.485 360.519,369.517 359.491,368.847 357.9,367.566 357.022,366.699 355.741,365.147 355.06,364.128 354.467,363.013 " fill="none" stroke-width="0.5" stroke="rgb(0,0,0)" />
	<polygon points="98.5369,372.738 99.0056,373.596 99.8368,372.676 " fill="none" stroke-width="0.5" stroke="rgb(0,0,0)" />
	<polygon points="324.257,365.571 323.542,366.992 322.915,367.986 321.949,369.232 321.118,370.11 320.738,370.438 323.511,370.374 327.083,370.142 330.936,369.726 332.713,369.446 330.791,368.907 329.656,368.462 327.04,367.12 325.97,366.421 324.419,365.157 " fill="none" stroke-width="0.5" stroke="rgb(0,0,0)" />
	<polygon points="277.339,364.565 275.279,368.216 275.278,368.222 275.736,367.992 276.075,367.871 277.466,367.551 277.55,367.542 277.583,367.318 277.822,366.093 278.048,365.259 278.443,364.124 278.801,363.377 " fill="none" stroke-width="0.5" stroke="rgb(0,0,0)" />
	<polygon points="295.079,356.862 293.77,357.453 289.441,358.82 290.247,359.119 291.759,359.939 293.627,361.324 293.761,361.427 296.094,363.259 298.145,364.657 297.771,363.36 297.56,362.241 297.415,360.704 297.396,359.845 297.448,358.739 297.49,358.259 297.628,357.169 297.679,356.844 297.874,355.77 297.908,355.598 298.015,355.095 " fill="none" stroke-width="0.5" stroke="rgb(0,0,0)" />
	<polygon points="118.317,353.376 117.399,353.908 116.171,354.481 116.195,356.471 116.091,357.671 115.679,359.861 115.329,361.047 114.513,363.039 113.938,364.114 115.367,363.717 116.45,363.52 120.701,363.135 121.92,363.147 126.962,363.704 126.523,363.518 125.848,363.183 124.227,362.249 123.297,361.59 122.199,360.647 121.149,359.477 120.481,358.507 119.708,356.94 119.377,355.924 119.097,354.537 119.008,353.455 119.034,352.874 " fill="none" stroke-width="0.5" stroke="rgb(0,0,0)" />
	<polygon points="394.358,340.012 394.175,340.165 393.027,341.088 392.49,341.473 391.469,342.126 389.918,342.835 389.082,343.082 386.591,343.286 386.404,343.263 385.069,342.923 385.424,343.493 385.999,344.688 387.128,347.888 387.437,349.229 387.823,352.626 387.824,352.706 388.662,351.738 389.357,351.054 393.968,347.19 395.432,346.281 399.711,344.4 399.261,343.967 398.8,343.471 397.523,341.933 397.385,341.76 396.037,340.011 395.359,339.141 " fill="none" stroke-width="0.5" stroke="rgb(0,0,0)" />
	<polygon points="166.1,295.155 165.404,295.585 164.122,296.262 163.267,296.633 161.997,297.073 160.802,297.356 159.619,297.512 158.313,297.544 157.956,297.514 156.927,297.339 156.521,297.233 155.497,296.866 155.049,296.66 154.14,296.139 157.438,301.205 157.78,301.802 161.838,309.905 162.352,311.378 163.892,318.683 163.999,320.481 163.746,323.321 163.564,324.352 162.814,327.167 162.458,328.153 161.221,330.834 160.672,331.786 158.957,334.223 158.183,335.123 156.003,337.208 154.986,337.992 152.349,339.616 151.124,340.194 149.828,340.637 151.724,341.428 152.537,341.841 154.997,343.332 155.726,343.851 158.075,345.796 158.665,346.355 160.924,348.8 161.365,349.336 162.052,350.275 161.482,345.266 161.446,344.376 161.504,342.593 161.532,342.176 161.711,340.412 161.779,339.933 162.085,338.256 162.225,337.661 162.664,336.137 162.95,335.35 163.529,334.048 164.14,332.979 164.864,331.965 166.165,330.633 167.04,329.976 169.355,328.904 170.389,328.67 171.27,328.617 168.011,323.684 167.413,322.526 165.114,316.592 164.751,315.166 163.936,308.832 163.895,307.728 164.064,304.57 164.133,303.923 164.625,300.876 164.761,300.248 165.556,297.324 165.752,296.727 166.458,294.899 " fill="none" stroke-width="0.5" stroke="rgb(0,0,0)" />
	<polygon points="56.618,335.873 57.4228,342.471 60.8414,347.969 63.0643,350.169 63.0397,347.768 63.1768,346.417 63.6682,344.142 64.0711,342.92 64.9996,340.863 65.5904,339.835 66.244,338.917 65.7188,338.828 62.8485,338.213 62.0255,337.975 59.5568,337.068 58.5234,336.574 56.737,335.503 " fill="none" stroke-width="0.5" stroke="rgb(0,0,0)" />
	<polygon points="318.17,340.974 317.093,341.639 316.054,342.14 315.119,342.5 313.966,342.837 313.747,342.887 314.727,343.321 315.677,343.847 317.41,345.02 317.417,344.939 317.551,344.099 318.2,341.306 318.326,340.853 " fill="none" stroke-width="0.5" stroke="rgb(0,0,0)" />
	<polygon points="416.395,331.681 415.432,331.865 413.645,332.058 413.431,332.078 411.94,332.186 412.065,332.892 412.321,334.313 412.337,334.408 412.561,335.777 412.594,336.007 412.753,337.276 412.791,337.707 412.851,338.836 412.857,339.336 412.848,339.669 412.818,340.114 412.784,340.449 412.688,341.07 412.621,341.393 412.402,342.162 412.672,342.158 418.02,342.614 419.047,342.791 423.284,343.9 420.165,340.358 418.8,337.699 417.559,332.326 417.494,331.379 " fill="none" stroke-width="0.5" stroke="rgb(0,0,0)" />
	<polygon points="121.478,324.164 120.329,324.702 119.89,324.855 120.711,325.539 122.254,327.093 122.977,327.971 124.222,329.81 124.778,330.826 125.67,332.906 126.031,334.044 126.514,336.319 126.646,337.642 126.626,339.88 126.499,341.063 126.376,341.654 126.597,341.523 128.578,340.561 129.348,340.25 131.527,339.537 132.265,339.346 132.566,339.288 131.4,338.614 130.392,337.884 128.486,336.183 127.689,335.321 126.193,333.35 125.602,332.402 124.523,330.258 124.12,329.238 123.467,327.017 123.249,325.901 123.03,323.7 123.026,323.231 " fill="none" stroke-width="0.5" stroke="rgb(0,0,0)" />
	<polygon points="385.833,308.848 384.781,310.336 383.77,312.1 382.877,314.028 382.227,315.809 382.008,316.941 381.803,319.173 381.628,322.136 381.44,325.321 381.428,325.492 381.166,328.496 381.112,328.931 380.708,331.453 380.437,332.52 379.824,334.255 378.752,335.691 379.478,336.21 380.347,336.964 380.445,337.067 380.416,336.888 380.4,336.694 380.456,335.228 380.734,333.493 380.984,332.488 381.717,330.339 381.855,329.973 382.892,327.473 382.914,327.419 384.069,324.706 385.159,321.936 386.049,319.2 386.628,316.595 386.846,313.976 386.822,312.645 386.713,310.895 386.496,309.143 386.317,308.307 " fill="none" stroke-width="0.5" stroke="rgb(0,0,0)" />
	<polygon points="321.818,325.325 320.648,326.121 321.223,326.965 321.91,328.302 322.238,329.197 322.28,329.374 322.69,327.58 322.867,325.554 322.849,325.066 322.776,324.455 322.715,324.16 " fill="none" stroke-width="0.5" stroke="rgb(0,0,0)" />
	<polygon points="75.4835,307.391 73.9337,311.695 72.9868,315.325 72.6701,318.257 72.702,319.389 72.8347,320.646 73.0819,321.812 73.4805,322.97 74.0982,324.21 75.025,325.593 75.2578,324.974 75.7701,323.927 76.8744,322.129 77.586,321.189 79.0037,319.65 79.8829,318.864 81.5839,317.617 82.5849,317.021 84.5392,316.097 85.6077,315.709 87.0892,315.324 86.1217,315.135 84.418,314.631 83.3379,314.196 81.7439,313.368 80.749,312.721 79.32,311.58 78.4486,310.729 77.2399,309.285 76.5439,308.257 75.7471,306.774 " fill="none" stroke-width="0.5" stroke="rgb(0,0,0)" />
	<polygon points="345.825,305.758 344.875,305.746 344.637,305.724 344.677,306.449 344.576,307.695 344.364,308.869 344.05,309.974 343.488,311.318 342.944,312.276 341.986,313.545 341.196,314.347 340.012,315.283 339.846,315.384 340.379,315.629 341.271,316.133 346.131,319.445 346.936,320.101 350.953,323.988 351.335,324.426 351.584,323.665 352.158,322.354 352.368,321.923 353.181,320.407 353.284,320.223 353.587,319.701 352.728,319.497 352.469,319.43 350.62,318.904 349.76,318.589 348.453,317.993 345.975,315.928 345.479,315.215 344.388,311.935 344.94,309.187 345.144,308.743 347.122,306.337 347.694,305.925 348.268,305.598 " fill="none" stroke-width="0.5" stroke="rgb(0,0,0)" />
	<polygon points="97.8575,313.706 96.6185,314.247 94.104,315.026 94.0279,315.042 94.8419,315.155 96.0464,315.449 98.0887,316.175 99.163,316.679 99.1952,316.698 98.881,315.983 98.5538,315.032 98.1713,313.526 " fill="none" stroke-width="0.5" stroke="rgb(0,0,0)" />
	<polygon points="436.69,311.911 436.452,312.005 435.647,312.259 435.359,312.328 434.771,312.44 434.435,312.486 434.014,312.53 433.629,312.556 433.327,312.57 432.893,312.578 432.598,312.577 431.829,312.554 431.581,312.542 430.735,312.483 430.597,312.471 429.694,312.388 429.637,312.382 428.703,312.287 427.973,312.213 427.963,312.793 427.957,312.991 427.899,314.146 428.821,313.762 430.978,313.107 432.158,312.873 434.462,312.648 435.275,312.623 437.316,312.697 437.362,312.7 437.355,312.555 437.367,311.775 437.384,311.558 " fill="none" stroke-width="0.5" stroke="rgb(0,0,0)" />
	<polygon points="403.183,306.031 404.514,308.032 406.145,309.997 407.978,311.821 409.904,313.408 410.737,313.967 408.679,310.628 406.286,307.455 403.744,305.003 402.234,304.129 " fill="none" stroke-width="0.5" stroke="rgb(0,0,0)" />
	<polygon points="130.676,300.392 130.804,301.206 131.329,307.177 131.324,308.297 131.227,309.305 131.364,309.26 133.87,308.976 134.05,308.993 135.606,309.352 135.755,309.408 137.522,310.434 137.643,310.535 138.677,311.723 136.055,306.28 131.48,298.614 129.558,295.462 " fill="none" stroke-width="0.5" stroke="rgb(0,0,0)" />
	<polygon points="312.623,303.317 311.803,303.977 307.366,306.958 307.786,306.976 308.312,307.021 310.951,307.362 311.51,307.461 313.913,308.003 314.545,308.182 314.587,308.197 313.8,306.455 313.322,304.82 313.044,302.913 " fill="none" stroke-width="0.5" stroke="rgb(0,0,0)" />
	<polygon points="108.877,296.6 108.748,297.511 108.141,300.267 108.655,300.461 108.938,300.619 109.872,301.55 109.887,301.162 109.575,296.6 109.056,293.885 " fill="none" stroke-width="0.5" stroke="rgb(0,0,0)" />
	<polygon points="434.451,292.53 434.181,292.941 433.23,294.272 433.15,294.382 432.084,295.806 431.711,296.318 432.558,296.798 434.473,297.832 434.616,297.911 436.321,298.891 436.894,299.265 437.522,299.726 435.816,294.083 434.977,291.651 " fill="none" stroke-width="0.5" stroke="rgb(0,0,0)" />
	<polygon points="458.743,287.845 457.74,288.309 456.616,289.239 455.307,290.821 453.877,293.033 453.592,293.538 454.686,293.426 456.274,293.473 459.462,293.986 461.2,294.543 461.405,294.644 461.413,294.518 461.42,294.32 461.425,294.059 461.427,293.743 461.427,293.526 461.355,292.059 461.152,290.674 460.821,289.397 460.414,288.393 460.044,287.8 459.923,287.679 " fill="none" stroke-width="0.5" stroke="rgb(0,0,0)" />
	<polygon points="90.2165,277.296 90.1355,277.466 87.2219,283.343 87.17,283.445 84.815,287.979 83.9682,289.614 84.0353,289.634 86.0526,290.694 86.5741,291.109 87.1659,291.646 87.7306,292.231 88.1959,292.712 88.3004,292.803 88.8185,292.732 88.8972,292.636 89.342,291.553 89.8121,289.268 90.1328,285.902 90.2875,281.592 90.3196,277.071 " fill="none" stroke-width="0.5" stroke="rgb(0,0,0)" />
	<polygon points="54.8343,276.631 55.0916,277.853 55.8352,279.443 56.1263,279.902 56.5954,280.626 56.6356,280.689 57.0807,281.395 57.2058,281.602 57.5973,282.281 57.7998,282.663 58.1256,283.334 58.3708,283.913 58.6186,284.594 58.8411,285.357 58.9987,286.067 59.1276,286.945 59.1829,287.702 59.1627,288.189 60.3648,285.977 61.1021,282.766 61.0945,282.715 61.0515,282.552 60.9973,282.416 60.9144,282.263 60.7717,282.061 60.5329,281.791 59.9679,281.268 59.9536,281.255 58.0316,279.464 57.6703,279.098 56.1563,277.428 55.9311,277.165 54.8418,275.817 " fill="none" stroke-width="0.5" stroke="rgb(0,0,0)" />
	<polygon points="420.019,283.52 419.543,283.638 417.224,284.115 417.077,284.144 414.557,284.598 412.136,285.064 410.123,285.555 408.557,286.11 407.275,286.706 407.263,286.713 410.226,286.523 413.437,285.931 416.411,285.073 419.135,284.055 421.092,283.207 " fill="none" stroke-width="0.5" stroke="rgb(0,0,0)" />
	<polygon points="156.601,225.744 155.58,227.52 154.896,228.925 154.845,229.078 156.534,231.42 156.873,233.698 156.812,235.124 156.795,235.397 156.636,237.219 156.623,237.346 156.399,239.418 156.392,239.478 156.134,241.654 156.133,241.667 155.877,243.787 155.66,245.668 155.519,247.097 155.48,247.843 155.508,248.749 157.256,249.837 158.563,252.212 159.029,253.836 159.144,254.31 159.509,256.121 159.561,256.415 159.853,258.343 159.875,258.507 160.12,260.485 160.126,260.541 160.347,262.475 160.562,264.233 160.748,265.453 162.055,265.919 164.139,268.617 164.68,269.993 165.243,271.419 165.823,272.797 166.422,274.076 167.031,275.196 167.621,276.093 168.142,276.717 168.947,277.427 169.188,277.635 169.618,278.046 169.888,278.329 170.233,278.725 170.496,279.053 170.801,279.471 171.044,279.834 171.333,280.311 171.543,280.698 171.822,281.283 171.988,281.684 172.242,282.434 172.35,282.839 172.529,283.825 172.568,284.224 172.546,284.812 172.793,284.523 174.793,282.395 175.685,281.873 175.217,281.556 174.598,281.075 170.484,277.43 169.52,276.346 166.61,272.161 165.672,270.039 164.568,265.213 164.652,262.169 165.793,258.195 166.957,255.99 169.967,252.354 170.823,251.506 175.078,248.055 175.418,247.798 180.253,244.407 184.834,241.079 188.346,237.926 190.275,235.201 190.943,232.37 190.878,231.797 190.735,230.963 190.528,230.04 190.489,229.899 190.204,231.005 188.857,234.4 188.214,235.605 186.179,238.565 185.482,239.406 182.931,241.977 182.32,242.515 179.425,244.743 178.952,245.072 175.885,247.001 175.562,247.191 172.494,248.867 172.327,248.955 169.43,250.422 166.03,251.047 162.837,249.724 160.875,246.877 160.706,243.712 160.948,242.578 161.156,241.495 161.341,240.413 161.497,239.333 161.623,238.254 161.716,237.176 161.774,236.099 161.792,235.113 161.694,233.117 161.392,231.209 160.842,229.288 159.99,227.317 158.759,225.259 157.69,223.897 " fill="none" stroke-width="0.5" stroke="rgb(0,0,0)" />
	<polygon points="427.321,278.441 426.854,279.312 424.446,281.72 425.725,281.196 426.738,280.882 427.978,280.612 429.786,280.493 429.973,280.509 430.653,280.629 428.82,276.762 428.008,275.335 " fill="none" stroke-width="0.5" stroke="rgb(0,0,0)" />
	<polygon points="391.121,275.894 391.013,277.716 391.035,278.243 391.291,276.888 391.393,275.26 391.372,274.239 " fill="none" stroke-width="0.5" stroke="rgb(0,0,0)" />
	<polygon points="339.765,273.46 338.833,274.464 338.506,275.757 338.511,275.795 338.53,275.838 338.571,275.886 338.856,276.084 339.481,276.356 340.383,276.595 341.05,276.69 341.039,276.589 341.035,276.542 340.978,275.952 340.967,275.817 340.927,275.272 340.914,275.015 340.898,274.526 340.922,273.773 340.946,273.51 341.094,272.717 " fill="none" stroke-width="0.5" stroke="rgb(0,0,0)" />
	<polygon points="128.985,235.962 128.616,238.19 128.375,240.341 128.245,242.341 128.214,243.759 129.591,253.633 133.255,263.353 138.663,273.167 139.52,274.466 139.729,274.023 139.679,273.74 139.265,272.811 138.283,271.175 136.935,269.105 136.848,268.968 135.439,266.672 135.188,266.222 133.958,263.779 133.621,262.967 132.751,260.359 132.48,259.146 132.15,256.358 132.733,252.951 133.768,251.865 133.734,251.545 133.357,249.983 132.703,247.867 131.889,245.422 131.875,245.377 131.039,242.803 130.975,242.592 130.246,240.034 130.142,239.614 129.626,237.156 129.519,236.426 129.344,234.387 " fill="none" stroke-width="0.5" stroke="rgb(0,0,0)" />
	<polygon points="420.97,265.3 420.786,265.772 420.142,267.247 420.05,267.449 419.78,268.009 420.05,268.069 420.323,268.136 421.948,268.574 422.793,268.869 423.942,269.369 424.772,270.034 422.877,267.303 421.02,265.151 " fill="none" stroke-width="0.5" stroke="rgb(0,0,0)" />
	<polygon points="361.791,260.412 361.957,260.403 362.151,260.396 362.833,260.382 362.832,260.367 362.829,260.311 362.772,259.315 362.767,259.217 362.737,258.465 " fill="none" stroke-width="0.5" stroke="rgb(0,0,0)" />
	<polygon points="403.482,255.089 404.165,255.8 405.127,256.978 405.348,257.265 406.3,258.583 406.301,258.585 406.936,258.095 408.203,257.075 408.321,256.983 409.01,256.455 407.081,255.715 402.845,254.526 " fill="none" stroke-width="0.5" stroke="rgb(0,0,0)" />
	<polygon points="446.993,253.454 446.996,253.46 448.349,256.825 448.381,256.905 448.756,257.876 450.284,255.168 450.339,255.073 450.898,254.121 450.848,254.094 447.393,252.176 447.034,251.961 446.163,251.396 " fill="none" stroke-width="0.5" stroke="rgb(0,0,0)" />
	<polygon points="382.534,243.533 382.069,244.666 381.449,245.829 380.759,246.857 379.934,247.85 379.054,248.715 378.049,249.52 377.03,250.181 375.93,250.747 376.529,251.372 377.648,252.742 377.9,253.073 378.627,254.1 379.231,253.466 379.464,253.233 380.652,252.114 381.328,251.562 382.455,250.77 384.269,249.9 385.308,249.6 387.523,249.382 387.823,249.408 389.155,249.674 389.41,249.755 389.43,249.765 385.789,247.199 384.169,245.508 382.65,243.141 " fill="none" stroke-width="0.5" stroke="rgb(0,0,0)" />
	<polygon points="392.528,251.895 392.696,252.105 393.497,253.412 393.546,253.519 393.592,253.482 393.799,253.353 395.117,252.741 395.348,252.665 395.88,252.553 395.762,252.513 391.297,250.759 " fill="none" stroke-width="0.5" stroke="rgb(0,0,0)" />
	<polygon points="359.019,246.923 358.051,247.576 356.013,248.684 358.172,248.863 361.395,250.114 363.252,252.683 363.258,252.66 363.711,251.564 363.864,251.275 364.495,250.452 363.905,250.137 362.932,249.49 361.943,248.685 361.106,247.858 360.278,246.865 359.852,246.237 " fill="none" stroke-width="0.5" stroke="rgb(0,0,0)" />
	<polygon points="313.234,224.368 312.141,224.835 310.282,225.423 309.071,225.675 307.761,225.811 308.464,227.983 309.72,229.396 312.109,230.817 315.643,232.352 315.868,232.455 319.668,234.292 320.763,234.974 324.028,237.519 325.51,239.195 327.795,243.01 328.294,244.396 329.377,243.719 330.417,243.2 331.585,242.75 332.523,242.473 333.332,242.303 333.041,241.871 331.926,239.823 331.461,238.723 330.757,236.462 330.512,235.263 330.398,234.143 330.103,234.235 328.905,234.479 327.5,234.622 326.266,234.621 324.872,234.479 323.668,234.232 322.365,233.824 321.266,233.357 320.084,232.711 319.118,232.057 318.085,231.203 317.269,230.386 316.415,229.351 315.762,228.385 315.116,227.199 314.651,226.1 314.242,224.79 314.063,223.913 " fill="none" stroke-width="0.5" stroke="rgb(0,0,0)" />
	<polygon points="464.41,216.885 464.374,217.309 464.037,220.09 464.003,220.332 463.527,223.273 463.507,223.39 462.961,226.39 462.959,226.405 462.421,229.32 461.972,231.982 461.679,234.227 461.587,235.832 461.662,236.798 461.796,237.391 462.933,235.761 464.329,233.205 465.473,230.39 466.219,227.511 466.475,224.767 465.917,219.761 464.507,215.906 464.463,215.84 " fill="none" stroke-width="0.5" stroke="rgb(0,0,0)" />
	<polygon points="104.064,236.811 104.793,235.915 104.174,235.662 " fill="none" stroke-width="0.5" stroke="rgb(0,0,0)" />
	<polygon points="380.219,227.062 379.394,227.887 378.178,228.89 378.077,228.958 379.037,229.721 379.797,230.452 379.825,230.044 379.898,229.44 380.255,227.358 380.323,227.022 380.35,226.902 " fill="none" stroke-width="0.5" stroke="rgb(0,0,0)" />
	<polygon points="133.463,218.168 129.762,219.339 132.068,221.742 132.722,225.136 132.076,227.333 130.961,229.504 130.766,229.998 132.437,228.295 132.62,228.246 132.649,227.886 132.675,227.631 132.975,225.163 133.025,224.83 133.485,222.252 133.575,221.833 134.232,219.221 134.387,218.705 134.654,217.937 " fill="none" stroke-width="0.5" stroke="rgb(0,0,0)" />
	<polygon points="47.7927,226.784 47.2529,227.013 44.996,227.843 45.9134,228.576 46.1963,228.869 46.9048,229.806 47.806,226.778 " fill="none" stroke-width="0.5" stroke="rgb(0,0,0)" />
	<polygon points="84.6044,213.715 84.5659,213.741 84.7266,213.836 85.298,214.284 86.3057,215.285 86.7685,215.866 87.4125,216.86 87.7688,217.548 88.148,218.452 88.3998,219.22 88.6049,220.028 88.7544,220.849 88.8428,221.588 88.8921,222.435 88.8591,223.516 88.724,224.643 88.8028,224.567 89.5394,223.965 90.6968,223.219 91.4336,222.855 93.1274,222.307 93.8564,222.185 95.7166,222.16 96.3603,222.251 97.9977,222.721 98.6094,222.995 99.9699,223.831 100.533,224.289 101.183,224.955 101.194,224.611 101.496,220.534 101.631,219.634 102.472,215.934 102.732,215.085 103.445,213.24 102.209,213.688 100.799,214.016 97.8012,214.346 96.457,214.345 93.2677,213.989 91.8995,213.673 89.0353,212.654 87.7872,212.042 86.6065,211.285 " fill="none" stroke-width="0.5" stroke="rgb(0,0,0)" />
	<polygon points="446.315,208.662 446.203,208.707 442.614,210.118 442.28,210.238 437.97,211.649 437.498,211.783 432.377,213.013 431.825,213.119 425.802,213.99 425.217,214.046 421.662,214.213 425.71,216.181 426.937,216.972 430.63,220.036 431.58,221.023 434.036,224.232 435.342,221.193 435.927,220.136 438.449,216.482 439.029,215.766 442.014,212.597 442.554,212.089 445.685,209.486 446.22,209.088 447.795,208.046 " fill="none" stroke-width="0.5" stroke="rgb(0,0,0)" />
	<polygon points="65.4256,214.199 63.9742,215.953 63.1185,216.661 63.3554,216.77 64.9039,217.791 65.4208,218.259 66.4528,219.474 66.8526,220.093 67.4098,221.183 67.7027,221.933 67.9675,222.794 68.0656,223.224 68.4806,222.202 68.8732,221.407 71.5378,216.873 72.0783,216.312 71.6795,216.278 70.6401,216.101 68.5685,215.558 67.5201,215.179 65.6497,214.3 65.4318,214.171 " fill="none" stroke-width="0.5" stroke="rgb(0,0,0)" />
	<polygon points="185.688,211.305 187.66,213.593 188.489,214.834 189.698,217.234 190.171,218.514 190.402,219.447 192.855,217.83 195.916,218.222 195.737,217.939 195.152,215.825 194.555,214.686 193.775,213.788 192.662,212.976 191.044,212.229 188.824,211.616 185.988,211.211 185.566,211.194 " fill="none" stroke-width="0.5" stroke="rgb(0,0,0)" />
	<polygon points="337.082,213.411 337.384,213.776 338.04,214.744 338.688,215.931 339.023,216.721 339.98,216.2 339.296,215.372 338.642,214.403 337.995,213.215 337.893,212.975 " fill="none" stroke-width="0.5" stroke="rgb(0,0,0)" />
	<polygon points="401.4,211.846 402.146,212.877 402.936,212.308 402.735,212.253 401.134,211.562 " fill="none" stroke-width="0.5" stroke="rgb(0,0,0)" />
	<polygon points="381.312,198.648 380.88,200.023 380.413,201.122 379.731,202.37 379.078,203.333 378.176,204.422 377.361,205.237 377.317,205.273 378.175,205.851 379.391,206.852 380.216,207.676 381.218,208.891 381.572,209.416 382.34,206.634 384.923,204.337 387.356,203.963 382.962,200.381 381.95,199.33 381.338,198.52 " fill="none" stroke-width="0.5" stroke="rgb(0,0,0)" />
	<polygon points="57.2949,203.308 55.5147,204.754 55.0084,205.124 53.2215,206.292 52.632,206.633 52.6274,206.635 54.0046,206.358 56.2779,205.864 58.2137,205.424 57.8133,204.158 57.5857,203.048 " fill="none" stroke-width="0.5" stroke="rgb(0,0,0)" />
	<polygon points="456.595,185.355 458.841,186.677 458.856,186.686 459.691,187.181 455.742,184.135 " fill="none" stroke-width="0.5" stroke="rgb(0,0,0)" />
	<polygon points="180.547,185.953 181.348,185.802 180.308,185.297 " fill="none" stroke-width="0.5" stroke="rgb(0,0,0)" />
	<polygon points="367.068,167.771 366.245,168.593 365.261,169.403 364.289,170.057 363.16,170.669 363.139,170.678 363.716,171.528 364.755,173.426 365.223,174.525 365.881,176.618 366.13,177.825 366.36,180.064 366.36,181.311 366.279,182.093 367.663,181.95 368.91,181.949 370.382,182.1 371.365,182.302 371.002,181.56 370.66,180.7 367.894,171.852 367.712,171.112 367.103,167.729 " fill="none" stroke-width="0.5" stroke="rgb(0,0,0)" />
	<polygon points="150.607,172.843 146.158,174.354 145.35,174.568 141.676,175.275 142.26,175.682 142.989,176.279 146.384,179.524 146.87,180.047 147.846,181.228 148.132,179.405 148.349,178.494 149.307,175.498 150.004,174.031 150.84,172.746 " fill="none" stroke-width="0.5" stroke="rgb(0,0,0)" />
	<polygon points="108.681,161.032 107.826,162.068 107.009,162.887 105.974,163.743 105.007,164.397 103.821,165.044 102.721,165.511 101.413,165.92 100.21,166.167 98.8086,166.309 97.5746,166.31 96.1675,166.167 94.968,165.922 93.6552,165.512 92.5564,165.048 91.3667,164.401 90.4885,163.808 89.9607,165.154 92.4325,165.181 95.7754,166.418 96.4511,166.716 99.8266,168.454 100.461,168.831 103.722,171.046 104.348,171.534 107.346,174.2 107.97,174.843 110.559,177.936 111.155,178.785 112.308,180.769 112.68,179.579 113.143,178.483 114.186,176.565 115.042,175.363 116.429,173.846 117.683,172.798 119.041,171.943 117.922,171.303 116.836,170.511 113.942,167.866 113.094,166.909 110.872,163.798 110.282,162.776 109.164,160.317 " fill="none" stroke-width="0.5" stroke="rgb(0,0,0)" />
	<polygon points="309.763,169.133 309.264,170.167 308.464,171.412 307.874,172.122 307.622,172.29 308.803,172.169 310.038,172.169 311.445,172.312 312.644,172.557 313.7,172.886 313.714,172.815 314.1,171.571 314.564,170.471 314.656,170.301 312.55,169.872 312.131,169.772 310.283,169.257 309.945,169.153 309.779,169.096 " fill="none" stroke-width="0.5" stroke="rgb(0,0,0)" />
	<polygon points="344.165,162.976 343.154,163.817 339.048,166.54 338.014,167.09 335.893,167.97 336.22,168.366 336.553,168.859 337.318,168.096 338.977,166.724 339.939,166.073 341.838,165.036 342.935,164.569 345.028,163.913 345.787,163.756 345.715,163.586 345.328,162.342 345.233,161.874 " fill="none" stroke-width="0.5" stroke="rgb(0,0,0)" />
	<polygon points="160.329,167.315 160.075,167.5 162.077,167.524 163.805,167.862 165.129,168.307 163.717,164.589 " fill="none" stroke-width="0.5" stroke="rgb(0,0,0)" />
	<polygon points="422.695,142.7 421.568,144.049 418.826,146.501 417.776,147.256 414.161,149.313 413.29,149.721 410.203,150.881 417.088,151.501 418.27,151.726 424.69,153.624 425.816,154.083 431.502,157.094 432.398,157.674 436.55,160.913 434.825,157.644 434.355,156.477 432.509,150.04 432.537,146.583 432.725,146.298 431.574,145.996 430.67,145.681 428.991,144.943 427.909,144.329 426.549,143.361 425.409,142.308 424.399,141.102 424.039,140.519 " fill="none" stroke-width="0.5" stroke="rgb(0,0,0)" />
	<polygon points="354.17,134.839 354.223,135.185 354.39,136.528 354.429,136.974 354.486,138.094 354.466,138.978 353.839,145.579 353.581,146.847 353.476,147.178 354.52,146.855 355.715,146.612 357.056,146.477 358.278,146.477 359.617,146.612 360.813,146.855 362.061,147.242 363.162,147.706 364.291,148.319 365.264,148.975 366.248,149.786 366.998,150.535 367.775,149.586 367.833,149.532 369.399,148.467 369.461,148.438 369.56,148.408 365.439,145.993 364.507,145.322 359.171,140.653 358.433,139.884 354.185,134.601 354.104,134.48 " fill="none" stroke-width="0.5" stroke="rgb(0,0,0)" />
	<polygon points="130.378,134.318 129.722,134.674 129.163,135.028 128.797,135.299 128.434,135.62 125.303,137.086 124.678,137 125.331,138.386 125.784,139.742 126.262,142.035 126.31,142.288 126.707,144.701 127.143,146.52 127.171,146.58 127.524,146.259 128.034,145.635 128.587,144.722 129.173,143.383 129.481,142.446 129.801,141.337 130.074,140.236 130.3,139.153 130.475,138.1 130.599,137.091 130.673,136.137 130.696,135.26 130.663,134.189 " fill="none" stroke-width="0.5" stroke="rgb(0,0,0)" />
	<polygon points="102.152,138.138 102.009,139.543 101.773,140.695 102.721,140.991 103.82,141.457 105.006,142.104 105.972,142.757 107.007,143.612 107.479,144.085 107.548,143.69 107.654,143.197 108.112,141.432 108.329,140.759 108.517,140.273 107.754,140.47 105.117,139.771 102.48,138.382 102.152,138.042 " fill="none" stroke-width="0.5" stroke="rgb(0,0,0)" />
	<polygon points="326.813,140.085 326.861,140.518 326.866,141.808 326.787,142.583 326.739,142.846 329.079,142.267 326.911,140.01 326.703,139.613 " fill="none" stroke-width="0.5" stroke="rgb(0,0,0)" />
	<polygon points="314.907,123.529 313.418,123.931 312.111,124.54 310.98,125.319 310.044,126.217 309.328,127.165 308.852,128.072 308.429,129.407 306.818,131.792 307.388,132.17 308.478,132.753 309.507,133.17 310.522,133.453 311.586,133.623 312.808,133.685 313.155,133.674 313.668,133.634 314.268,133.568 314.931,133.483 315.617,133.39 315.667,133.384 316.321,133.301 316.483,133.283 317.072,133.224 317.409,133.2 317.916,133.178 318.531,133.182 319.095,133.214 319.212,133.228 318.508,132.629 318.207,132.33 317.586,131.607 317.345,131.277 316.854,130.486 316.67,130.131 316.318,129.312 316.189,128.938 315.969,128.123 315.893,127.737 315.791,126.946 315.766,126.553 315.787,125.536 315.864,124.793 316.076,123.715 316.162,123.419 " fill="none" stroke-width="0.5" stroke="rgb(0,0,0)" />
	<polygon points="117.981,131.851 117.369,132.964 118.893,133.105 118.308,131.109 " fill="none" stroke-width="0.5" stroke="rgb(0,0,0)" />
	<polygon points="93.9506,111.928 93.8485,112.024 91.6719,114.045 91.27,114.387 89.0068,116.15 88.1287,116.72 85.7906,117.967 84.099,118.57 81.6976,119.043 79.8702,119.123 79.5477,119.089 79.6173,119.705 79.806,123.02 79.8144,123.502 79.7827,124.929 79.7711,125.192 79.68,126.581 79.6584,126.831 79.5142,128.178 79.4841,128.415 79.4403,128.713 79.4483,128.703 80.2652,127.885 81.2998,127.028 82.2665,126.373 83.4526,125.725 84.5535,125.258 85.8624,124.848 87.0663,124.601 88.4694,124.458 89.7054,124.458 91.1105,124.601 92.3128,124.847 93.6236,125.257 94.7235,125.724 95.9114,126.371 96.7521,126.94 96.4247,125.487 96.3294,124.955 95.5357,119.021 95.5195,118.889 94.8696,113.067 94.6047,111.292 " fill="none" stroke-width="0.5" stroke="rgb(0,0,0)" />
	<polygon points="184.234,107.667 184.286,108.8 184.244,109.691 184.174,110.366 184.042,111.191 183.846,112.031 183.616,112.774 183.198,113.791 182.862,114.436 182.101,115.568 181.65,116.098 180.487,117.155 179.913,117.554 178.48,118.293 177.775,118.544 176.353,118.867 175.509,118.955 173.299,118.779 171.915,118.408 173.206,120.539 173.682,121.508 175.369,125.89 175.641,126.806 175.863,127.841 176.88,126.936 177.452,126.486 180.452,124.399 181.198,123.956 184.318,122.389 185.271,122.007 188.493,121.023 189.648,120.789 192.953,120.447 194.257,120.452 196.244,120.674 193.765,118.228 193.394,117.827 189.15,112.815 188.95,112.567 184.441,106.639 184.284,106.424 184.003,106.019 " fill="none" stroke-width="0.5" stroke="rgb(0,0,0)" />
	<polygon points="424.35,124.479 424.517,125.041 424.897,126.593 424.944,126.53 425.797,125.607 426.609,124.892 426.301,124.681 425.339,123.861 424.431,122.91 423.671,121.931 423.19,121.161 " fill="none" stroke-width="0.5" stroke="rgb(0,0,0)" />
	<polygon points="123.78,112.04 122.195,118.382 122.167,118.487 120.618,124.245 121.019,123.456 123.361,119.603 123.928,118.818 126.711,115.547 127.413,114.848 129.078,113.436 128.297,112.845 127.5,112.123 125.998,110.501 125.729,110.19 124.659,108.865 " fill="none" stroke-width="0.5" stroke="rgb(0,0,0)" />
	<polygon points="348.312,122.573 348.542,122.739 348.383,122.275 " fill="none" stroke-width="0.5" stroke="rgb(0,0,0)" />
	<polygon points="378.877,99.6297 377.873,100.239 370.925,103.591 369.877,103.983 364.494,105.449 365.305,105.35 368.705,104.66 372.415,103.526 376.56,101.755 376.969,101.547 377.315,101.385 377.901,101.132 378.257,100.991 378.84,100.782 379.204,100.665 379.781,100.498 380.151,100.403 380.72,100.276 381.094,100.205 381.652,100.117 382.031,100.069 382.577,100.017 382.958,99.9934 383.491,99.9766 384.604,100.043 386.569,100.344 388.621,101.047 390.039,101.838 391.525,103.002 392.569,104.121 393.203,104.926 394.048,106.208 394.094,106.278 394.473,106.871 394.528,106.866 395.628,106.607 397.051,106.141 398.689,105.524 400.403,104.86 400.559,104.802 402.21,104.214 402.646,104.077 404.166,103.661 405.066,103.486 406.413,103.328 409.153,103.635 411.195,104.356 413.288,105.613 415.431,107.579 416.234,108.477 418.364,111.393 418.759,112.009 420.76,115.581 421.008,116.074 421.51,117.198 421.286,116.365 421.208,116.037 420.902,114.581 420.9,114.567 420.625,113.243 420.374,112.273 420.174,111.743 420.13,111.669 419.697,111.231 418.064,108.184 418.349,104.739 419.765,102.903 419.616,102.905 416.329,102.873 416.21,102.87 412.878,102.772 412.761,102.767 409.392,102.604 409.278,102.597 405.881,102.368 405.767,102.36 402.351,102.065 402.238,102.054 398.813,101.695 398.699,101.682 395.273,101.257 395.158,101.242 391.739,100.752 391.656,100.74 391.181,100.665 390.67,100.562 390.285,100.467 389.515,100.222 389.211,100.103 388.147,99.5597 387.916,99.4118 386.709,98.3948 386.544,98.2142 385.581,96.8106 385.473,96.5929 384.989,95.2335 384.954,95.0828 " fill="none" stroke-width="0.5" stroke="rgb(0,0,0)" />
	<polygon points="348.657,107.838 348.886,108.535 349.067,109.261 349.191,109.12 349.73,108.577 349.907,108.42 350.312,108.091 350.5,107.95 350.713,107.799 350.907,107.667 352.37,106.937 352.453,106.909 348.073,106.58 " fill="none" stroke-width="0.5" stroke="rgb(0,0,0)" />
	<polygon points="145.103,101.83 144.526,105.054 144.419,105.538 144.188,106.416 144.405,106.366 145.312,106.231 149.442,105.928 150.573,105.951 153.67,106.301 150.099,103.249 146.218,100.129 145.503,99.6574 " fill="none" stroke-width="0.5" stroke="rgb(0,0,0)" />
	<polygon points="70.1995,92.5996 65.1659,95.2489 62.5397,96.6977 62.9073,96.7485 64.6268,97.2517 68.0093,98.8115 69.4403,99.7328 70.283,100.46 70.4197,99.2691 70.4308,99.1783 70.7188,96.9629 70.7199,96.9541 71.003,94.8013 71.2392,92.8124 71.3021,92.1086 " fill="none" stroke-width="0.5" stroke="rgb(0,0,0)" />
	<polygon points="326.97,99.0631 326.837,99.2564 327.789,99.4516 328.565,99.6646 328.927,99.7902 328.908,99.7798 327.17,98.7766 " fill="none" stroke-width="0.5" stroke="rgb(0,0,0)" />
	<polygon points="396.387,79.0517 395.873,80.2399 393.59,84.2802 393.706,84.2138 395.178,83.1031 396.2,81.9383 396.84,80.6006 397.165,78.3232 397.132,77.4343 397.073,76.8484 " fill="none" stroke-width="0.5" stroke="rgb(0,0,0)" />
	<polygon points="172.978,76.7021 173.503,77.9392 173.645,77.757 173.772,77.6222 174.388,77.0899 173.21,76.7153 172.96,76.6498 " fill="none" stroke-width="0.5" stroke="rgb(0,0,0)" />
	<polygon points="126.386,60.5309 125.637,63.6433 124.904,67.1201 124.821,67.466 123.974,70.5731 123.498,71.7885 123.17,72.417 123.598,72.5692 125.96,74.0995 127.074,75.2637 127.074,75.2545 127.095,74.9306 127.195,73.8282 127.27,73.2817 127.442,72.3433 127.676,71.4521 127.937,70.6941 128.608,69.3303 128.977,68.7688 130.563,67.1332 131.059,66.7845 131.668,66.5276 130.917,65.5753 130.753,65.3579 129.021,62.9463 127.372,60.7624 126.612,59.9312 " fill="none" stroke-width="0.5" stroke="rgb(0,0,0)" />
	<polygon points="105.938,58.9464 104.458,59.9648 102.698,61.3989 100.842,62.9871 100.691,63.1129 98.9092,64.5408 98.3242,64.9557 96.7063,65.9657 95.6515,66.425 96.0068,67.3268 96.1962,67.9861 96.3739,68.8215 96.4816,69.588 96.5363,70.1977 96.5704,71.0677 96.5624,71.6986 96.4454,73.5163 98.4962,71.6699 100.58,70.4398 102.638,69.7263 106.091,69.5659 107.235,70.1064 107.103,69.4238 106.839,66.262 106.823,66.0067 106.679,62.5472 106.397,59.6004 106.188,58.8268 " fill="none" stroke-width="0.5" stroke="rgb(0,0,0)" />
	<polygon points="400.083,59.2211 400.079,60.3581 399.94,61.7951 400.064,61.734 401.104,61.334 401.358,61.2622 402.454,61.0581 402.716,61.0337 405.509,61.429 406.618,61.8644 408.294,62.8551 409.672,64.0029 410.021,64.3168 411.652,65.9024 413.423,67.565 415.244,69.0275 417.089,70.1476 418.935,70.8424 421.15,71.1218 421.442,71.1082 422.101,71.0081 422.693,70.8348 423.101,70.633 423.323,70.453 423.492,70.2186 423.71,69.6261 423.785,68.912 423.291,67.2726 421.531,65.4547 417.855,63.2796 413.009,61.2722 407.834,59.5563 403.145,58.1155 402.858,58.0196 399.876,56.9392 " fill="none" stroke-width="0.5" stroke="rgb(0,0,0)" />
	<polygon points="145.713,70.3146 145.479,70.4807 146.196,71.0662 145.862,70.1849 " fill="none" stroke-width="0.5" stroke="rgb(0,0,0)" />
	<polygon points="84.5019,61.7976 84.5196,61.7947 84.5165,61.7816 " fill="none" stroke-width="0.5" stroke="rgb(0,0,0)" />
	<polygon points="162.715,45.4961 162.337,47.0264 162.204,47.3687 161.378,48.8441 161.171,49.1168 160.785,49.5075 160.823,49.5191 164.202,50.6676 164.369,50.7272 167.901,52.0438 167.905,52.0454 170.551,53.0342 170.154,52.5904 166.367,48.7716 162.751,45.178 " fill="none" stroke-width="0.5" stroke="rgb(0,0,0)" />
	<polygon points="143.934,50.0359 144.629,51.8632 144.909,52.513 144.952,52.439 145.812,51.2865 146.339,50.731 146.65,50.4778 145.639,50.2082 144.226,49.8806 143.874,49.8215 " fill="none" stroke-width="0.5" stroke="rgb(0,0,0)" />
	<polygon points="90.5363,47.8297 88.6798,48.1393 88.2962,48.2042 88.4463,48.4377 88.9318,50.1014 90.2437,48.4549 90.7582,47.797 " fill="none" stroke-width="0.5" stroke="rgb(0,0,0)" />
	<polygon points="444.854,42.1138 444.381,43.8548 444.074,45.5745 443.963,47.3531 444,47.9292 444.08,48.2985 444.086,48.3152 444.204,48.3494 444.6,48.3831 444.628,48.3343 444.914,47.5036 445.171,46.1939 445.334,44.5277 445.386,42.6162 445.354,41.0348 445.333,40.6717 " fill="none" stroke-width="0.5" stroke="rgb(0,0,0)" />
	<polygon points="391.642,31.889 392.411,32.9868 396.184,39.8694 396.683,41.0698 397.603,44.177 398.29,43.6196 400.285,42.6184 401.03,42.3041 404.002,41.2776 404.401,41.1549 408.062,40.1647 408.347,40.0951 411.634,39.3734 407.105,36.9809 402.712,35.3156 398.68,34.1687 395.297,33.322 394.841,33.189 392.547,32.4208 391.498,31.7253 " fill="none" stroke-width="0.5" stroke="rgb(0,0,0)" />
	<polygon points="69.6874,39.8446 69.6781,39.8504 67.2855,41.3417 70.8122,41.7095 71.5938,41.7844 72.2809,38.2217 " fill="none" stroke-width="0.5" stroke="rgb(0,0,0)" />
</svg>
