<?xml version="1.0" standalone="no" ?>
<!DOCTYPE svg PUBLIC "-//W3C//DTD SVG 1.1//EN" "http://www.w3.org/Graphics/SVG/1.1/DTD/svg11.dtd">
<svg width="500px" height="500px" xmlns="http://www.w3.org/2000/svg" version="1.1" >
	<polygon points="470.573,280.998 469.766,295.371 467.354,310.601 463.281,326.677 457.524,343.288 450.069,360.133 440.906,376.922 430.029,393.37 417.434,409.2 403.114,424.142 387.062,437.931 369.265,450.309 349.7,461.023 328.335,469.818 305.128,476.436 280.03,480.612 252.984,482.069 226.632,480.695 202.069,476.742 179.272,470.46 158.208,462.086 138.851,451.855 121.184,439.992 105.196,426.725 90.8854,412.285 78.2537,396.907 67.3066,380.831 58.05,364.303 50.489,347.576 44.6257,330.906 40.4578,314.559 37.9754,298.806 37.1405,283.624 37.1405,29.7473 38.4609,29.7372 49.9525,29.649 61.4442,29.5608 61.4442,29.5608 72.9359,29.4727 84.4276,29.3845 95.9192,29.2963 95.9193,29.2963 107.411,29.2081 118.903,29.12 130.394,29.0318 153.378,28.8554 164.869,28.7672 187.853,28.5909 200.487,28.494 200.482,31.0434 200.482,31.0434 200.456,43.9422 200.431,56.841 200.406,69.7398 200.406,69.7398 200.38,82.6386 200.329,108.436 200.329,108.436 200.304,121.335 200.253,147.133 200.228,160.031 200.202,172.93 200.177,185.829 200.151,198.728 200.126,211.627 200.1,224.525 200.101,224.625 200.188,235.919 200.189,235.996 200.353,246.813 200.356,246.952 200.653,257.259 200.662,257.472 201.146,267.234 201.166,267.535 201.894,276.719 201.935,277.128 202.961,285.701 203.04,286.24 204.421,294.169 204.568,294.867 206.357,302.117 206.618,303.001 208.872,309.54 209.317,310.626 212.091,316.42 212.812,317.686 216.161,322.702 217.241,324.056 221.22,328.261 222.675,329.533 227.34,332.892 229.055,333.891 234.461,336.372 236.222,336.993 242.425,338.562 244.036,338.836 251.09,339.46 251.947,329.779 252.616,339.476 259.876,338.975 261.495,338.732 267.842,337.254 269.646,336.653 275.142,334.235 276.925,333.227 281.63,329.905 283.151,328.59 287.13,324.402 288.252,322.989 291.565,317.97 292.301,316.654 295.01,310.842 295.453,309.724 297.621,303.154 297.873,302.255 299.562,294.966 299.698,294.267 300.97,286.294 301.04,285.763 301.956,277.143 301.99,276.75 302.613,267.52 302.628,267.24 303.019,257.437 303.025,257.248 303.247,246.908 303.249,246.797 303.364,235.957 303.365,235.912 303.435,224.609 303.435,224.525 303.409,211.626 303.383,198.727 303.357,185.829 303.332,172.93 303.332,172.93 303.306,160.031 303.254,134.233 303.254,134.233 303.228,121.335 303.151,82.6383 303.151,82.6383 303.125,69.7395 303.047,31.0431 303.047,31.0431 303.042,28.349 304.59,28.3391 316.344,28.2635 328.097,28.188 339.85,28.1124 351.603,28.0368 363.357,27.9613 375.11,27.8857 386.863,27.8101 410.37,27.659 422.123,27.5835 433.876,27.5079 445.629,27.4323 457.383,27.3568 469.136,27.2812 470.573,27.272 " fill="none" stroke-width="0.5" stroke="rgb(0,0,0)" />
	<polygon points="318.488,422.532 318.634,423.013 318.964,424.465 319.046,424.861 319.123,425.277 319.712,425.738 320.579,426.473 320.94,426.832 321.606,426.276 322.341,425.717 323.041,425.232 323.877,424.725 323.837,424.584 323.454,421.809 323.454,420.896 " fill="none" stroke-width="0.5" stroke="rgb(0,0,0)" />
	<polygon points="168.857,414.494 168.95,414.279 168.856,414.229 " fill="none" stroke-width="0.5" stroke="rgb(0,0,0)" />
	<polygon points="77.1637,315.754 77.4289,315.517 77.5178,315.452 77.29,315.27 " fill="none" stroke-width="0.5" stroke="rgb(0,0,0)" />
	<polygon points="92.418,218.222 92.4404,218.214 92.9487,218.129 92.8072,218.113 92.3646,218.011 " fill="none" stroke-width="0.5" stroke="rgb(0,0,0)" />
	<polygon points="106.995,168.04 106.763,168.166 107.105,168.433 110.104,171.099 111.152,172.18 111.747,172.889 111.978,172.564 112.412,172.089 111.143,170.93 109.717,169.321 108.213,167.215 " fill="none" stroke-width="0.5" stroke="rgb(0,0,0)" />
	<polygon points="424.334,147.142 422.613,148.682 425.866,149.644 427.758,150.415 428.498,150.807 428.406,149.219 427.321,148.742 425.503,147.71 424.472,146.977 " fill="none" stroke-width="0.5" stroke="rgb(0,0,0)" />
	<polygon points="90.1579,120.333 91.5306,120.472 91.5432,120.475 91.4223,119.571 91.4156,119.516 " fill="none" stroke-width="0.5" stroke="rgb(0,0,0)" />
	<polygon points="186.543,116.354 185.759,117.519 187.28,117.054 187.298,117.05 186.606,116.233 " fill="none" stroke-width="0.5" stroke="rgb(0,0,0)" />
</svg>
