<?xml version="1.0" standalone="no" ?>
<!DOCTYPE svg PUBLIC "-//W3C//DTD SVG 1.1//EN" "http://www.w3.org/Graphics/SVG/1.1/DTD/svg11.dtd">
<svg width="500px" height="500px" xmlns="http://www.w3.org/2000/svg" version="1.1" >
	<polygon points="467.873,280.923 467.078,295.083 464.707,310.058 460.692,325.902 455.01,342.298 447.645,358.938 438.591,375.528 427.843,391.782 415.398,407.422 401.256,422.179 385.408,435.793 367.842,448.01 348.534,458.583 327.448,467.263 304.534,473.798 279.735,477.924 252.982,479.365 226.918,478.006 202.644,474.1 180.131,467.896 159.34,459.631 140.239,449.534 122.803,437.826 107.022,424.731 92.8918,410.474 80.4171,395.287 69.6047,379.409 60.4625,363.085 52.9974,346.57 47.2125,330.123 43.1052,314.014 40.6638,298.521 39.8405,283.55 39.8405,32.4267 49.9733,32.3489 61.4649,32.2607 61.4649,32.2607 72.9566,32.1726 84.4483,32.0844 95.94,31.9962 95.94,31.9962 107.432,31.908 118.923,31.8199 130.415,31.7317 153.398,31.5553 164.89,31.4672 187.873,31.2908 197.782,31.2148 197.756,43.9369 197.731,56.8357 197.706,69.7345 197.706,69.7345 197.68,82.6333 197.629,108.431 197.629,108.431 197.604,121.33 197.553,147.127 197.553,147.127 197.528,160.026 197.502,172.925 197.502,172.925 197.477,185.824 197.451,198.722 197.426,211.621 197.426,211.621 197.4,224.52 197.401,224.646 197.488,235.94 197.489,236.037 197.654,246.854 197.657,247.03 197.954,257.336 197.965,257.606 198.45,267.367 198.474,267.748 199.202,276.933 199.254,277.449 200.28,286.022 200.38,286.703 201.761,294.632 201.946,295.514 203.736,302.764 204.065,303.881 206.319,310.42 206.882,311.792 209.656,317.586 210.566,319.185 213.915,324.201 215.28,325.912 219.26,330.117 221.097,331.724 225.762,335.083 227.928,336.344 233.335,338.826 235.56,339.61 241.763,341.18 243.798,341.525 250.852,342.15 251.947,329.779 252.801,342.169 260.062,341.669 262.108,341.362 268.455,339.884 270.734,339.125 276.229,336.707 278.482,335.433 283.187,332.111 285.109,330.45 289.087,326.261 290.505,324.477 293.818,319.458 294.748,317.795 297.457,311.983 298.017,310.57 300.185,304 300.504,302.865 302.192,295.575 302.365,294.692 303.636,286.719 303.725,286.048 304.641,277.429 304.684,276.932 305.307,267.702 305.326,267.347 305.717,257.544 305.725,257.306 305.947,246.966 305.949,246.825 306.064,235.986 306.065,235.929 306.135,224.626 306.135,224.52 306.109,211.621 306.083,198.722 306.057,185.823 306.032,172.924 306.032,172.924 306.006,160.026 305.954,134.228 305.954,134.228 305.928,121.329 305.851,82.6329 305.851,82.6329 305.825,69.7341 305.747,31.0377 305.747,31.0317 316.361,30.9635 328.114,30.8879 339.868,30.8123 351.621,30.7368 363.374,30.6612 375.127,30.5857 386.881,30.5101 410.387,30.359 422.14,30.2834 433.894,30.2078 445.647,30.1323 457.4,30.0567 467.873,29.9894 " fill="none" stroke-width="0.5" stroke="rgb(0,0,0)" />
</svg>
