<?xml version="1.0" standalone="no" ?>
<!DOCTYPE svg PUBLIC "-//W3C//DTD SVG 1.1//EN" "http://www.w3.org/Graphics/SVG/1.1/DTD/svg11.dtd">
<svg width="500px" height="500px" xmlns="http://www.w3.org/2000/svg" version="1.1" >
	<polygon points="471.723,91.4275 468.706,93.6086 468.893,93.6469 470.49,94.1312 471.723,94.6327 471.723,281.031 470.911,295.493 468.482,310.833 464.384,327.008 458.595,343.71 451.101,360.642 441.892,377.515 430.961,394.046 418.301,409.958 403.906,424.978 387.767,438.842 369.871,451.288 350.196,462.062 328.712,470.906 305.381,477.56 280.156,481.757 252.985,483.221 226.511,481.84 201.824,477.867 178.905,471.551 157.725,463.132 138.26,452.843 120.495,440.914 104.419,427.574 90.0308,413.057 77.3323,397.597 66.3278,381.437 57.0225,364.822 49.4207,348.004 43.524,331.24 39.3302,314.791 36.8304,298.927 35.9905,283.656 35.9905,28.6061 38.452,28.5872 49.9437,28.499 61.4354,28.4109 72.9271,28.3227 84.4187,28.2345 95.9104,28.1463 107.402,28.0582 118.894,27.97 130.385,27.8818 141.877,27.7936 153.369,27.7055 164.86,27.6173 176.352,27.5291 187.844,27.4409 201.639,27.3351 201.632,31.0457 201.632,31.0457 201.606,43.9445 201.581,56.8433 201.556,69.7421 201.556,69.7421 201.53,82.6409 201.479,108.438 201.479,108.438 201.454,121.337 201.403,147.135 201.378,160.034 201.352,172.932 201.327,185.831 201.301,198.73 201.276,211.629 201.25,224.528 201.251,224.616 201.338,235.91 201.339,235.978 201.503,246.795 201.506,246.919 201.803,257.225 201.81,257.415 202.295,267.176 202.312,267.444 203.04,276.628 203.076,276.991 204.103,285.564 204.173,286.043 205.554,293.971 205.684,294.591 207.474,301.842 207.705,302.626 209.959,309.166 210.355,310.129 213.128,315.924 213.768,317.047 217.117,322.063 218.076,323.266 222.056,327.47 223.347,328.6 228.012,331.959 229.534,332.845 234.941,335.327 236.504,335.878 242.707,337.448 244.137,337.69 251.191,338.315 251.824,331.169 252.079,331.697 252.537,338.328 259.797,337.828 261.235,337.612 267.582,336.134 269.183,335.601 274.679,333.183 276.261,332.288 280.967,328.966 282.317,327.798 286.296,323.61 287.292,322.356 290.605,317.337 291.258,316.169 293.968,310.356 294.361,309.363 296.529,302.794 296.753,301.996 298.442,294.706 298.563,294.086 299.834,286.113 299.897,285.641 300.813,277.022 300.843,276.673 301.466,267.443 301.479,267.194 301.87,257.391 301.876,257.223 302.098,246.883 302.099,246.785 302.215,235.945 302.215,235.905 302.285,224.602 302.285,224.527 302.259,211.629 302.233,198.73 302.207,185.831 302.182,172.932 302.182,172.932 302.156,160.033 302.104,134.236 302.104,134.236 302.078,121.337 302.001,82.6406 302.001,82.6406 301.975,69.7418 301.897,31.0454 301.897,31.0454 301.889,27.2064 304.583,27.1891 316.336,27.1135 328.09,27.038 339.843,26.9624 351.596,26.8869 363.349,26.8113 375.103,26.7357 386.856,26.6602 410.362,26.5091 422.116,26.4335 433.869,26.3579 445.622,26.2824 457.375,26.2068 469.129,26.1312 471.723,26.1146 " fill="none" stroke-width="0.5" stroke="rgb(0,0,0)" />
	<polygon points="306.94,468.404 307.371,468.529 308.085,468.836 308.019,468.675 307.634,467.382 " fill="none" stroke-width="0.5" stroke="rgb(0,0,0)" />
	<polygon points="194.051,444.499 194.378,445.767 194.627,445.822 196.084,446.056 197.483,446.201 198.573,446.244 200.028,446.164 201.343,445.933 202.437,445.574 203.25,445.144 203.823,444.672 204.002,444.441 202.998,444.516 201.607,444.513 195.389,444.024 193.849,443.769 193.799,443.756 " fill="none" stroke-width="0.5" stroke="rgb(0,0,0)" />
	<polygon points="317.047,421.796 317.143,422.049 317.512,423.268 317.843,424.72 317.915,425.072 318.077,425.937 318.397,426.168 318.968,426.615 319.835,427.35 320.852,428.362 320.903,428.422 321.175,428.162 321.635,427.751 322.343,427.159 322.995,426.662 323.696,426.178 324.632,425.609 325.232,425.293 324.944,424.273 324.604,421.809 324.604,419.306 " fill="none" stroke-width="0.5" stroke="rgb(0,0,0)" />
	<polygon points="167.705,413.409 167.711,414.735 167.485,418.047 168.931,417.995 169.174,416.73 169.27,416.41 170.121,414.451 170.278,414.181 170.553,413.82 168.852,412.929 168.141,412.514 167.609,412.17 " fill="none" stroke-width="0.5" stroke="rgb(0,0,0)" />
	<polygon points="259.843,405.822 261.683,406.74 260.074,405.255 " fill="none" stroke-width="0.5" stroke="rgb(0,0,0)" />
	<polygon points="204.932,390.994 205.206,391.605 205.764,391.021 205.516,391.018 204.908,390.951 " fill="none" stroke-width="0.5" stroke="rgb(0,0,0)" />
	<polygon points="82.9423,368.98 82.0102,369.046 82.0689,369.195 82.354,371.077 82.4545,370.988 83.635,370.097 83.9528,369.896 83.3034,369.227 83.0894,368.96 " fill="none" stroke-width="0.5" stroke="rgb(0,0,0)" />
	<polygon points="390.77,345.711 389.935,345.958 389.637,345.983 389.888,346.695 391.413,345.417 " fill="none" stroke-width="0.5" stroke="rgb(0,0,0)" />
	<polygon points="60.3204,341.45 61.0354,342.6 61.3369,341.685 61.6542,340.982 60.9915,340.791 60.2048,340.502 " fill="none" stroke-width="0.5" stroke="rgb(0,0,0)" />
	<polygon points="158.076,339.376 156.559,340.547 156.376,340.66 156.552,340.767 157.639,341.54 158.521,342.27 158.548,341.873 158.727,340.109 158.828,339.395 158.991,338.501 " fill="none" stroke-width="0.5" stroke="rgb(0,0,0)" />
	<polygon points="415.847,338.676 415.856,339.418 416.439,339.468 415.877,338.374 415.817,338.115 " fill="none" stroke-width="0.5" stroke="rgb(0,0,0)" />
	<polygon points="165.89,327.275 166.578,326.957 166.148,326.307 " fill="none" stroke-width="0.5" stroke="rgb(0,0,0)" />
	<polygon points="75.9456,315.868 75.6747,318.377 75.6872,318.822 76.7974,317.617 78.1089,316.445 79.4667,315.449 78.8773,315.066 77.4482,313.925 76.6546,313.149 " fill="none" stroke-width="0.5" stroke="rgb(0,0,0)" />
	<polygon points="161.196,300.33 160.446,300.429 160.463,300.459 161.363,302.257 161.664,300.397 161.704,300.209 " fill="none" stroke-width="0.5" stroke="rgb(0,0,0)" />
	<polygon points="161.913,253.01 162.085,253.717 162.45,255.527 162.527,255.966 162.798,257.756 162.91,257.367 164.646,254.077 164.978,253.676 162.546,253.091 161.739,252.404 " fill="none" stroke-width="0.5" stroke="rgb(0,0,0)" />
	<polygon points="90.9987,217.517 91.2505,218.285 91.5563,219.491 91.5916,219.684 92.6308,219.348 93.3597,219.226 96.1348,219.189 96.7785,219.28 98.5816,219.798 98.706,218.969 99.1034,217.221 98.1293,217.328 96.124,217.326 92.9348,216.97 90.8937,216.5 90.5151,216.365 " fill="none" stroke-width="0.5" stroke="rgb(0,0,0)" />
	<polygon points="433.078,215.93 432.254,216.088 430.82,216.296 432.546,217.727 433.372,218.587 433.458,218.432 435.604,215.323 " fill="none" stroke-width="0.5" stroke="rgb(0,0,0)" />
	<polygon points="107.886,166.054 106.444,167.031 105.258,167.678 104.546,167.98 105.407,168.565 106.341,169.292 109.34,171.958 110.271,172.918 111.814,174.762 112.827,173.339 114.036,172.016 111.918,170.081 110.653,168.653 108.458,165.581 " fill="none" stroke-width="0.5" stroke="rgb(0,0,0)" />
	<polygon points="423.568,146.285 420.826,148.737 420.219,149.174 425.54,150.747 427.22,151.432 430.247,153.035 429.626,150.866 429.518,148.447 429.463,148.427 427.783,147.689 426.169,146.773 424.809,145.806 424.335,145.367 " fill="none" stroke-width="0.5" stroke="rgb(0,0,0)" />
	<polygon points="357.051,143.492 357.86,143.492 357.195,142.911 357.114,142.826 " fill="none" stroke-width="0.5" stroke="rgb(0,0,0)" />
	<polygon points="312.294,128.216 311.87,128.777 311.632,129.231 311.289,130.313 311.166,130.518 311.899,130.635 312.839,130.682 312.994,130.678 313.388,130.647 313.624,130.621 313.482,130.291 313.353,129.918 313.026,128.701 312.95,128.315 312.866,127.667 " fill="none" stroke-width="0.5" stroke="rgb(0,0,0)" />
	<polygon points="185.859,115.177 185.523,115.823 184.387,117.51 183.936,118.041 182.201,119.617 181.627,120.016 179.489,121.118 178.784,121.369 176.999,121.775 177.416,122.857 178.739,121.936 179.852,121.275 182.972,119.708 184.394,119.139 187.616,118.154 189.34,117.805 189.435,117.795 186.86,114.753 186.563,114.383 186.318,114.061 " fill="none" stroke-width="0.5" stroke="rgb(0,0,0)" />
	<polygon points="90.8503,118.517 89.5404,119.367 87.2023,120.614 84.6787,121.513 82.7468,121.894 82.7962,122.761 83.6572,122.395 84.9661,121.985 86.7621,121.617 88.1652,121.474 90.0091,121.473 91.4142,121.616 92.8968,121.92 92.5621,119.418 92.538,119.222 92.3306,117.364 " fill="none" stroke-width="0.5" stroke="rgb(0,0,0)" />
	<polygon points="416.969,66.5652 418.407,67.4383 419.661,67.9102 419.743,67.9205 419.656,67.8313 416.51,65.9698 415.927,65.7285 " fill="none" stroke-width="0.5" stroke="rgb(0,0,0)" />
	<polygon points="102.793,65.266 102.567,65.4537 100.786,66.8816 99.9261,67.4912 101.655,66.8918 103.863,66.673 103.849,66.5119 103.825,66.1311 103.755,64.4425 " fill="none" stroke-width="0.5" stroke="rgb(0,0,0)" />
	<polygon points="398.814,38.4276 399.368,39.7564 400.05,39.4685 402.747,38.5372 401.768,38.1661 398.099,37.1225 " fill="none" stroke-width="0.5" stroke="rgb(0,0,0)" />
</svg>
