<?xml version="1.0" standalone="no" ?>
<!DOCTYPE svg PUBLIC "-//W3C//DTD SVG 1.1//EN" "http://www.w3.org/Graphics/SVG/1.1/DTD/svg11.dtd">
<svg width="500px" height="500px" xmlns="http://www.w3.org/2000/svg" version="1.1" >
	<polygon points="469.323,280.963 468.522,295.238 466.129,310.35 462.083,326.319 456.36,342.829 448.947,359.58 439.834,376.276 429.017,392.635 416.492,408.377 402.254,423.233 386.296,436.941 368.606,449.245 349.16,459.893 327.924,468.635 304.853,475.215 279.894,479.368 252.983,480.817 226.765,479.45 202.335,475.519 179.67,469.273 158.732,460.95 139.493,450.78 121.934,438.989 106.041,425.802 91.8143,411.447 79.2553,396.157 68.3705,380.173 59.1669,363.739 51.6503,347.11 45.8233,330.544 41.6835,314.307 39.2201,298.674 38.3905,283.59 38.3905,30.9878 38.4705,30.9871 49.9621,30.899 61.4538,30.8108 72.9455,30.7226 84.4372,30.6344 95.9288,30.5463 107.421,30.4581 118.912,30.3699 130.404,30.2817 141.896,30.1936 153.387,30.1054 164.879,30.0172 176.371,29.929 187.862,29.8409 199.234,29.7536 199.232,31.041 199.232,31.041 199.206,43.9398 199.181,56.8386 199.156,69.7374 199.156,69.7374 199.13,82.6361 199.079,108.434 199.079,108.434 199.054,121.333 199.003,147.13 199.003,147.13 198.978,160.029 198.952,172.928 198.952,172.928 198.927,185.827 198.901,198.725 198.876,211.624 198.876,211.624 198.85,224.523 198.851,224.634 198.938,235.929 198.939,236.015 199.103,246.832 199.107,246.988 199.404,257.294 199.413,257.534 199.898,267.296 199.92,267.634 200.648,276.818 200.693,277.276 201.72,285.849 201.809,286.455 203.189,294.383 203.354,295.166 205.144,302.417 205.436,303.409 207.69,309.948 208.19,311.166 210.964,316.96 211.772,318.38 215.121,323.396 216.333,324.916 220.313,329.12 221.944,330.547 226.61,333.907 228.533,335.027 233.94,337.508 235.916,338.205 242.118,339.774 243.925,340.081 250.98,340.705 251.947,329.779 252.702,340.723 259.962,340.222 261.779,339.95 268.126,338.472 270.15,337.797 275.645,335.379 277.645,334.248 282.351,330.927 284.058,329.451 288.036,325.263 289.295,323.678 292.608,318.659 293.434,317.182 296.143,311.37 296.64,310.115 298.808,303.546 299.091,302.537 300.78,295.248 300.933,294.463 302.204,286.491 302.283,285.895 303.199,277.275 303.237,276.834 303.86,267.605 303.877,267.289 304.268,257.486 304.275,257.275 304.497,246.935 304.499,246.81 304.614,235.971 304.615,235.92 304.685,224.617 304.685,224.523 304.659,211.624 304.633,198.725 304.607,185.826 304.582,172.927 304.582,172.927 304.556,160.029 304.504,134.231 304.504,134.231 304.478,121.332 304.401,82.6358 304.401,82.6358 304.375,69.737 304.297,31.0406 304.297,31.0406 304.294,29.591 304.598,29.589 316.352,29.5135 328.105,29.4379 339.858,29.3624 351.611,29.2868 363.365,29.2112 375.118,29.1357 386.871,29.0601 410.378,28.909 422.131,28.8334 433.884,28.7579 445.638,28.6823 457.391,28.6068 469.144,28.5312 469.323,28.53 " fill="none" stroke-width="0.5" stroke="rgb(0,0,0)" />
	<polygon points="319.993,423.353 320.183,424.188 320.265,424.584 320.521,424.785 320.986,425.179 321.629,424.689 322.329,424.204 322.519,424.089 322.312,422.588 " fill="none" stroke-width="0.5" stroke="rgb(0,0,0)" />
</svg>
