<?xml version="1.0" standalone="no" ?>
<!DOCTYPE svg PUBLIC "-//W3C//DTD SVG 1.1//EN" "http://www.w3.org/Graphics/SVG/1.1/DTD/svg11.dtd">
<svg width="500px" height="500px" xmlns="http://www.w3.org/2000/svg" version="1.1" >
	<polygon points="480.823,80.7774 479.672,82.6825 474.356,89.1544 472.655,90.7539 468.706,93.6086 468.893,93.6469 470.49,94.1312 472.585,94.9832 474.237,95.8622 475.96,97.0213 477.457,98.2826 478.826,99.714 479.988,101.215 480.823,102.565 480.823,191.494 479.309,193.246 477.73,194.32 475.594,195.13 479.328,199.275 480.334,200.624 480.823,201.425 480.823,247.249 479.899,248.822 479.448,249.516 477.397,252.376 478.526,252.632 479.785,253.081 480.823,253.612 480.823,281.286 480.02,295.593 479.969,295.663 477.392,298.852 476.656,299.658 474.172,302.072 474.52,302.62 476.436,306.287 476.971,307.528 477.827,310.004 477.405,312.666 473.11,329.62 467.07,347.047 459.27,364.67 454.807,372.847 451.09,373.124 450.579,372.911 451.116,378.674 451.083,379.672 449.695,382.213 438.331,399.399 425.161,415.952 410.17,431.593 400.672,439.753 398.924,439.204 397.431,438.499 397.416,438.49 397.368,439.457 396.721,443.146 393.345,446.047 374.668,459.037 354.126,470.285 331.702,479.516 321.786,482.344 320.392,481.793 317.729,480.416 316.171,479.396 315.163,478.577 315.191,478.938 315.204,479.352 314.894,482.01 314.496,483.482 313.942,484.581 307.382,486.452 281.151,490.817 265.198,491.676 264.053,490.741 263.522,490.228 263.241,490.371 262.729,490.612 259.576,491.979 252.993,492.333 225.548,490.902 199.887,486.773 177.941,480.725 174.527,478.327 171.694,476.733 170.084,476.269 167.246,475.988 165.137,475.871 153.907,471.407 133.585,460.665 128.288,457.108 126.608,454.465 126.439,452.71 125.851,452.705 120.937,452.172 115.039,448.212 98.2672,434.295 83.2685,419.161 70.0408,403.057 69.3158,401.993 69.2267,401.28 69.1854,399.427 69.2514,398.6 69.0073,398.615 65.8958,396.97 58.5824,386.23 48.8916,368.927 40.9666,351.394 34.8057,333.879 33.6193,329.226 36.4494,320.11 36.9676,318.806 38.9069,314.846 37.2633,314.813 35.2942,314.193 31.5913,311.948 29.7728,310.129 29.2801,309.475 27.7694,299.888 26.8905,283.906 26.8905,234.679 28.0117,232.103 29.0677,230.285 29.3574,229.898 27.6956,228.94 26.8905,228.31 26.8905,161.435 28.2306,157.7 28.8139,156.403 31.2404,151.97 32.2178,150.531 33.5981,148.866 32.1081,148.268 29.8218,147.082 28.3172,146.101 26.8905,144.956 26.8905,109.964 27.8358,109.156 28.596,108.6 27.1974,107.5 26.8905,107.197 26.8905,89.1181 27.5466,88.1265 26.8905,87.9072 26.8905,40.3646 30.5877,37.6571 31.0302,37.3527 33.7025,35.6282 30.0774,34.4862 28.7055,33.9275 26.8905,33.0098 26.8905,19.5757 38.3822,19.4875 49.8739,19.3993 61.3656,19.3111 72.8572,19.223 84.3489,19.1348 95.8406,19.0466 107.332,18.9584 117.431,18.8809 117.529,18.9932 118.666,20.3564 118.815,20.4956 119.109,20.2368 120.335,18.8846 120.36,18.8585 130.316,18.7821 141.807,18.6939 153.299,18.6057 157.793,18.5712 158.194,19.8106 158.668,19.4685 160.257,18.5523 164.791,18.5175 176.282,18.4294 187.774,18.3412 210.757,18.1648 210.732,31.0636 210.706,43.9624 210.681,56.8612 210.678,58.4832 210.448,58.5706 210.677,58.833 210.656,69.76 210.63,82.6588 210.623,86.4132 210.39,86.5377 209.52,86.9015 208.033,87.378 207.03,87.6068 205.645,87.812 205.376,87.831 209.421,91.1976 209.729,91.4657 210.611,92.2699 210.579,108.456 210.554,121.355 210.503,147.153 210.478,160.052 210.452,172.95 210.441,178.327 210.079,178.993 209.212,180.301 207.431,182.543 206.284,183.743 204.142,185.609 203.845,185.82 206.063,187.34 207.468,188.529 209.441,190.575 210.415,191.831 210.401,198.748 210.376,211.647 210.36,219.461 210.176,219.775 209.351,221.107 208.192,222.255 209.962,223.892 210.351,224.291 210.35,224.546 210.438,235.84 210.602,246.657 210.899,256.963 211.276,264.551 209.254,266.998 207.786,268.951 207.564,269.364 208.561,270.372 210.714,272.185 210.872,272.321 211.899,273.227 212.112,275.909 213.138,284.482 214.519,292.41 216.308,299.661 218.563,306.2 221.336,311.994 224.685,317.011 228.665,321.215 233.33,324.575 238.737,327.056 244.939,328.626 250.798,329.144 251.027,329.519 252.536,332.643 252.726,333.146 253.447,331.794 254.396,330.36 255.491,329.003 259.171,328.749 265.518,327.271 271.013,324.853 275.719,321.532 279.698,317.343 283.01,312.324 285.72,306.511 287.888,299.942 289.576,292.653 290.848,284.68 291.763,276.06 292.352,267.336 293.934,266.095 294.788,265.576 293.157,264.176 292.522,263.439 292.778,257.028 293,246.688 293.115,235.848 293.185,224.546 293.159,211.647 293.133,198.748 293.129,196.353 293.637,195.844 295.115,194.617 296.008,194.01 295.648,193.478 295.001,192.291 294.305,190.651 293.896,189.342 293.528,187.548 293.385,186.144 293.385,184.299 293.528,182.897 293.896,181.101 294.306,179.793 295.002,178.153 295.649,176.967 296.543,175.648 294.755,174.488 293.342,173.177 293.081,172.874 293.056,160.052 293.004,134.254 292.99,127.284 292.996,127.278 292.99,127.254 292.978,121.355 292.967,115.877 293.6,113.426 294.133,111.922 295.447,109.045 296.313,107.546 296.734,106.955 296.709,106.955 296.204,106.937 296.012,106.925 294.655,106.736 294.505,106.704 292.948,106.115 292.901,82.6588 292.875,69.76 292.797,31.0636 292.771,18.1648 304.525,18.0893 306.834,18.0744 307.377,18.37 307.458,18.0704 316.278,18.0137 328.031,17.9382 339.784,17.8626 351.538,17.787 363.291,17.7115 375.044,17.6359 380.035,17.6038 381.181,18.2783 385.803,21.6707 386.756,19.7644 387.382,19.0364 389.342,17.544 410.304,17.4092 422.057,17.3337 433.81,17.2581 443.58,17.1953 443.882,17.41 445.339,18.7417 445.531,18.4476 446.566,17.1761 457.317,17.107 469.07,17.0314 480.823,16.9559 " fill="none" stroke-width="0.5" stroke="rgb(0,0,0)" />
	<polygon points="306.94,468.404 307.371,468.529 308.085,468.836 308.019,468.675 307.634,467.382 " fill="none" stroke-width="0.5" stroke="rgb(0,0,0)" />
	<polygon points="194.051,444.499 194.378,445.767 194.627,445.822 196.084,446.056 197.483,446.201 198.573,446.244 200.028,446.164 201.343,445.933 202.437,445.574 203.25,445.144 203.823,444.672 204.002,444.441 202.998,444.516 201.607,444.513 195.389,444.024 193.849,443.769 193.799,443.756 " fill="none" stroke-width="0.5" stroke="rgb(0,0,0)" />
	<polygon points="317.047,421.796 317.143,422.049 317.512,423.268 317.843,424.72 317.915,425.072 318.077,425.937 318.397,426.168 318.968,426.615 319.835,427.35 320.852,428.362 320.903,428.422 321.175,428.162 321.635,427.751 322.343,427.159 322.995,426.662 323.696,426.178 324.632,425.609 325.232,425.293 324.944,424.273 324.604,421.809 324.604,419.306 " fill="none" stroke-width="0.5" stroke="rgb(0,0,0)" />
	<polygon points="167.705,413.409 167.711,414.735 167.485,418.047 168.931,417.995 169.174,416.73 169.27,416.41 170.121,414.451 170.278,414.181 170.553,413.82 168.852,412.929 168.141,412.514 167.609,412.17 " fill="none" stroke-width="0.5" stroke="rgb(0,0,0)" />
	<polygon points="259.843,405.822 261.683,406.74 260.074,405.255 " fill="none" stroke-width="0.5" stroke="rgb(0,0,0)" />
	<polygon points="204.932,390.994 205.206,391.605 205.764,391.021 205.516,391.018 204.908,390.951 " fill="none" stroke-width="0.5" stroke="rgb(0,0,0)" />
	<polygon points="82.9423,368.98 82.0102,369.046 82.0689,369.195 82.354,371.077 82.4545,370.988 83.635,370.097 83.9528,369.896 83.3034,369.227 83.0894,368.96 " fill="none" stroke-width="0.5" stroke="rgb(0,0,0)" />
	<polygon points="390.77,345.711 389.935,345.958 389.637,345.983 389.888,346.695 391.413,345.417 " fill="none" stroke-width="0.5" stroke="rgb(0,0,0)" />
	<polygon points="60.3204,341.45 61.0354,342.6 61.3369,341.685 61.6542,340.982 60.9915,340.791 60.2048,340.502 " fill="none" stroke-width="0.5" stroke="rgb(0,0,0)" />
	<polygon points="158.076,339.376 156.559,340.547 156.376,340.66 156.552,340.767 157.639,341.54 158.521,342.27 158.548,341.873 158.727,340.109 158.828,339.395 158.991,338.501 " fill="none" stroke-width="0.5" stroke="rgb(0,0,0)" />
	<polygon points="415.847,338.676 415.856,339.418 416.439,339.468 415.877,338.374 415.817,338.115 " fill="none" stroke-width="0.5" stroke="rgb(0,0,0)" />
	<polygon points="165.89,327.275 166.578,326.957 166.148,326.307 " fill="none" stroke-width="0.5" stroke="rgb(0,0,0)" />
	<polygon points="75.9456,315.868 75.6747,318.377 75.6872,318.822 76.7974,317.617 78.1089,316.445 79.4667,315.449 78.8773,315.066 77.4482,313.925 76.6546,313.149 " fill="none" stroke-width="0.5" stroke="rgb(0,0,0)" />
	<polygon points="161.196,300.33 160.446,300.429 160.463,300.459 161.363,302.257 161.664,300.397 161.704,300.209 " fill="none" stroke-width="0.5" stroke="rgb(0,0,0)" />
	<polygon points="161.913,253.01 162.085,253.717 162.45,255.527 162.527,255.966 162.798,257.756 162.91,257.367 164.646,254.077 164.978,253.676 162.546,253.091 161.739,252.404 " fill="none" stroke-width="0.5" stroke="rgb(0,0,0)" />
	<polygon points="90.9987,217.517 91.2505,218.285 91.5563,219.491 91.5916,219.684 92.6308,219.348 93.3597,219.226 96.1348,219.189 96.7785,219.28 98.5816,219.798 98.706,218.969 99.1034,217.221 98.1293,217.328 96.124,217.326 92.9348,216.97 90.8937,216.5 90.5151,216.365 " fill="none" stroke-width="0.5" stroke="rgb(0,0,0)" />
	<polygon points="433.078,215.93 432.254,216.088 430.82,216.296 432.546,217.727 433.372,218.587 433.458,218.432 435.604,215.323 " fill="none" stroke-width="0.5" stroke="rgb(0,0,0)" />
	<polygon points="107.886,166.054 106.444,167.031 105.258,167.678 104.546,167.98 105.407,168.565 106.341,169.292 109.34,171.958 110.271,172.918 111.814,174.762 112.827,173.339 114.036,172.016 111.918,170.081 110.653,168.653 108.458,165.581 " fill="none" stroke-width="0.5" stroke="rgb(0,0,0)" />
	<polygon points="423.568,146.285 420.826,148.737 420.219,149.174 425.54,150.747 427.22,151.432 430.247,153.035 429.626,150.866 429.518,148.447 429.463,148.427 427.783,147.689 426.169,146.773 424.809,145.806 424.335,145.367 " fill="none" stroke-width="0.5" stroke="rgb(0,0,0)" />
	<polygon points="357.051,143.492 357.86,143.492 357.195,142.911 357.114,142.826 " fill="none" stroke-width="0.5" stroke="rgb(0,0,0)" />
	<polygon points="312.294,128.216 311.87,128.777 311.632,129.231 311.289,130.313 311.166,130.518 311.899,130.635 312.839,130.682 312.994,130.678 313.388,130.647 313.624,130.621 313.482,130.291 313.353,129.918 313.026,128.701 312.95,128.315 312.866,127.667 " fill="none" stroke-width="0.5" stroke="rgb(0,0,0)" />
	<polygon points="185.859,115.177 185.523,115.823 184.387,117.51 183.936,118.041 182.201,119.617 181.627,120.016 179.489,121.118 178.784,121.369 176.999,121.775 177.416,122.857 178.739,121.936 179.852,121.275 182.972,119.708 184.394,119.139 187.616,118.154 189.34,117.805 189.435,117.795 186.86,114.753 186.563,114.383 186.318,114.061 " fill="none" stroke-width="0.5" stroke="rgb(0,0,0)" />
	<polygon points="90.8503,118.517 89.5404,119.367 87.2023,120.614 84.6787,121.513 82.7468,121.894 82.7962,122.761 83.6572,122.395 84.9661,121.985 86.7621,121.617 88.1652,121.474 90.0091,121.473 91.4142,121.616 92.8968,121.92 92.5621,119.418 92.538,119.222 92.3306,117.364 " fill="none" stroke-width="0.5" stroke="rgb(0,0,0)" />
	<polygon points="416.969,66.5652 418.407,67.4383 419.661,67.9102 419.743,67.9205 419.656,67.8313 416.51,65.9698 415.927,65.7285 " fill="none" stroke-width="0.5" stroke="rgb(0,0,0)" />
	<polygon points="102.793,65.266 102.567,65.4537 100.786,66.8816 99.9261,67.4912 101.655,66.8918 103.863,66.673 103.849,66.5119 103.825,66.1311 103.755,64.4425 " fill="none" stroke-width="0.5" stroke="rgb(0,0,0)" />
	<polygon points="398.814,38.4276 399.368,39.7564 400.05,39.4685 402.747,38.5372 401.768,38.1661 398.099,37.1225 " fill="none" stroke-width="0.5" stroke="rgb(0,0,0)" />
</svg>
