<?xml version="1.0" standalone="no" ?>
<!DOCTYPE svg PUBLIC "-//W3C//DTD SVG 1.1//EN" "http://www.w3.org/Graphics/SVG/1.1/DTD/svg11.dtd">
<svg width="500px" height="500px" xmlns="http://www.w3.org/2000/svg" version="1.1" >
	<polygon points="468.423,280.938 467.626,295.142 465.246,310.168 461.22,326.06 455.522,342.499 448.139,359.181 439.062,375.812 428.288,392.105 415.813,407.784 401.634,422.579 385.745,436.229 368.132,448.479 348.771,459.08 327.628,467.783 304.655,474.336 279.795,478.472 252.982,479.916 226.86,478.554 202.527,474.638 179.956,468.418 159.11,460.131 139.956,450.007 122.473,438.268 106.65,425.137 92.4831,410.843 79.9764,395.617 69.1365,379.699 59.9711,363.333 52.4864,346.775 46.6855,330.283 42.5659,314.125 40.1162,298.579 39.2905,283.565 39.2905,31.8809 49.969,31.7989 61.4607,31.7108 72.9524,31.6226 95.9357,31.4462 95.9357,31.4462 107.427,31.3581 118.919,31.2699 130.411,31.1817 141.902,31.0935 153.394,31.0054 164.886,30.9172 176.377,30.829 187.869,30.7408 198.333,30.6605 198.332,31.0392 198.332,31.0392 198.307,43.938 198.281,56.8368 198.256,69.7356 198.256,69.7356 198.23,82.6344 198.179,108.432 198.179,108.432 198.154,121.331 198.103,147.128 198.103,147.128 198.078,160.027 198.052,172.926 198.052,172.926 198.027,185.825 198.001,198.724 197.976,211.622 197.976,211.622 197.95,224.521 197.951,224.641 198.038,235.936 198.039,236.029 198.203,246.846 198.207,247.014 198.504,257.32 198.514,257.578 198.999,267.34 199.023,267.705 199.751,276.889 199.8,277.383 200.826,285.956 200.922,286.609 202.303,294.537 202.48,295.382 204.27,302.632 204.585,303.702 206.839,310.241 207.378,311.554 210.152,317.349 211.024,318.88 214.373,323.896 215.679,325.534 219.659,329.739 221.419,331.277 226.084,334.637 228.158,335.845 233.564,338.326 235.695,339.077 241.898,340.647 243.846,340.977 250.901,341.602 251.947,329.779 252.764,341.621 260.024,341.12 261.983,340.826 268.33,339.348 270.512,338.621 276.008,336.203 278.164,334.984 282.87,331.662 284.71,330.071 288.689,325.882 290.046,324.174 293.359,319.155 294.249,317.563 296.959,311.75 297.495,310.397 299.663,303.828 299.968,302.74 301.656,295.451 301.822,294.605 303.093,286.632 303.178,285.99 304.094,277.37 304.135,276.895 304.758,267.665 304.776,267.325 305.168,257.522 305.175,257.294 305.397,246.954 305.399,246.82 305.514,235.98 305.515,235.925 305.585,224.622 305.585,224.521 305.559,211.622 305.533,198.723 305.507,185.824 305.482,172.926 305.482,172.926 305.456,160.027 305.404,134.229 305.404,134.229 305.378,121.33 305.301,82.634 305.301,82.634 305.275,69.7352 305.197,31.0388 305.197,31.0388 305.196,30.4852 316.358,30.4135 339.864,30.2623 351.617,30.1868 363.371,30.1112 375.124,30.0357 386.877,29.9601 410.384,29.809 422.137,29.7334 433.89,29.6579 445.643,29.5823 457.397,29.5067 468.423,29.4358 " fill="none" stroke-width="0.5" stroke="rgb(0,0,0)" />
	<polygon points="321.052,423.951 321.06,423.988 321.061,423.992 321.117,423.949 321.171,423.912 " fill="none" stroke-width="0.5" stroke="rgb(0,0,0)" />
</svg>
