<?xml version="1.0" standalone="no" ?>
<!DOCTYPE svg PUBLIC "-//W3C//DTD SVG 1.1//EN" "http://www.w3.org/Graphics/SVG/1.1/DTD/svg11.dtd">
<svg width="500px" height="500px" xmlns="http://www.w3.org/2000/svg" version="1.1" >
	<polygon points="480.823,79.1203 480.377,80.1773 479.131,82.2383 473.816,88.7102 472.245,90.1866 467.006,93.9741 468.752,94.3326 470.226,94.7796 472.322,95.6317 473.846,96.443 475.569,97.6021 476.951,98.7664 478.32,100.198 479.392,101.583 480.426,103.252 480.823,104.056 480.823,123.475 480.766,123.604 480.823,123.652 480.823,190.46 478.915,192.667 477.336,193.741 474.333,194.847 474.806,195.301 478.808,199.743 479.737,200.989 480.823,202.768 480.823,245.867 479.296,248.468 478.879,249.108 476.206,252.836 476.344,252.85 478.291,253.292 479.55,253.74 480.823,254.392 480.823,281.286 480.094,294.273 479.955,294.489 479.425,295.223 476.847,298.412 476.168,299.156 473.277,301.965 473.9,302.944 475.816,306.611 476.31,307.757 477.594,311.474 477.405,312.666 473.11,329.62 467.07,347.047 459.27,364.67 455.27,371.999 454.947,372.19 450.883,372.375 449.777,371.849 450.419,378.739 450.349,380.85 450.311,381.085 449.695,382.213 438.331,399.399 425.161,415.952 410.17,431.593 401.292,439.22 399.223,438.571 397.73,437.866 396.779,437.292 396.679,439.336 395.885,443.865 393.345,446.047 374.668,459.037 354.126,470.285 331.702,479.516 323.005,481.996 322.276,481.789 320.714,481.171 318.05,479.794 316.612,478.852 314.413,477.066 314.192,476.846 314.371,477.715 314.428,478.154 314.492,478.96 314.505,479.374 314.218,481.827 313.82,483.3 313.045,484.837 307.382,486.452 281.151,490.817 266.237,491.62 264.496,490.199 263.647,489.378 262.923,489.747 262.451,489.97 258.286,491.775 257.796,491.97 257.454,492.093 252.993,492.333 225.548,490.902 199.887,486.773 179.925,481.272 178.833,480.496 174.9,477.734 171.966,476.083 170.216,475.579 167.3,475.29 163.179,475.062 163.079,475.053 153.907,471.407 133.585,460.665 130.358,458.498 129.368,457.538 127.219,454.083 127.08,452.02 125.926,452.009 119.686,451.332 115.039,448.212 98.2672,434.295 83.2685,419.161 70.1747,403.22 69.9213,401.193 69.8832,399.483 70.0168,397.809 68.6518,397.828 65.1172,395.827 58.5824,386.23 48.8916,368.927 40.9666,351.394 34.8057,333.879 33.987,330.668 34.1496,329.879 37.1179,320.318 37.5962,319.114 40.0045,314.197 37.4734,314.145 35.5043,313.525 32.0863,311.453 30.2678,309.634 29.0504,308.017 27.7694,299.888 26.8905,283.906 26.8905,236.48 26.9919,236.2 28.6535,232.382 29.6284,230.704 30.4069,229.663 30.1801,229.572 28.1272,228.389 26.8905,227.421 26.8905,163.893 27.0506,163.217 27.3174,162.319 28.8895,157.936 29.4279,156.739 31.8544,152.306 32.7566,150.977 34.8061,148.506 33.9455,148.255 32.4305,147.647 30.1443,146.461 28.7554,145.555 26.8905,144.058 26.8905,110.937 27.2675,110.56 28.2486,109.721 29.84,108.559 29.6581,108.469 29.1733,108.17 27.6892,107.002 27.2941,106.612 26.8905,106.103 26.8905,90.4094 26.9308,90.326 28.6282,87.7603 26.8905,87.1794 26.8905,41.2577 27.1106,41.071 31.0013,38.2218 31.4097,37.9409 35.4075,35.3611 34.4996,35.1311 34.0383,35.0001 30.2878,33.8185 29.0214,33.3028 26.8905,32.2254 26.8905,19.5757 38.3822,19.4875 49.8739,19.3993 61.3656,19.3111 72.8572,19.223 84.3489,19.1348 95.8406,19.0466 107.332,18.9584 116.501,18.8881 116.791,19.2105 116.991,19.4416 118.156,20.8383 118.54,21.1967 118.805,21.2348 119.079,21.1957 119.601,20.7364 120.854,19.3548 121.07,19.1248 121.338,18.851 130.316,18.7821 141.807,18.6939 153.299,18.6057 157.074,18.5768 157.815,20.9473 159.078,20.0362 160.558,19.183 161.995,18.539 164.791,18.5175 176.282,18.4294 187.774,18.3412 210.757,18.1648 210.732,31.0636 210.706,43.9624 210.681,56.8612 210.679,57.7468 209.356,58.2505 209.256,58.2683 210.675,59.8956 210.656,69.76 210.63,82.6588 210.624,85.6221 210.12,85.8919 209.25,86.2557 207.877,86.6955 206.874,86.9243 205.596,87.1137 204.468,87.1932 203.419,87.1768 204.455,87.9812 204.678,88.1604 208.973,91.7356 209.257,91.9831 210.609,93.2152 210.579,108.456 210.554,121.355 210.547,124.886 210.467,124.938 210.547,125.028 210.503,147.153 210.478,160.052 210.452,172.95 210.444,176.858 209.464,178.658 208.664,179.865 206.883,182.107 205.824,183.215 203.682,185.081 202.561,185.88 203.269,186.274 205.667,187.917 206.965,189.015 208.937,191.061 210.047,192.493 210.412,193.087 210.401,198.748 210.376,211.647 210.363,218.018 209.784,219.061 209.581,219.406 208.756,220.738 207.179,222.271 209.487,224.406 210.094,225.03 210.356,225.328 210.438,235.84 210.602,246.657 210.899,256.963 211.223,263.494 211.077,263.685 210.889,263.92 208.704,266.565 207.194,268.573 206.734,269.433 206.876,269.663 208.086,270.887 210.263,272.721 210.409,272.846 211.979,274.231 212.112,275.909 213.138,284.482 214.519,292.41 216.308,299.661 218.563,306.2 221.336,311.994 224.685,317.011 228.665,321.215 233.33,324.575 238.737,327.056 244.939,328.626 249.935,329.068 250.397,329.823 251.906,332.948 252.431,334.335 252.587,334.895 254.065,332.124 254.941,330.8 256.444,328.937 259.171,328.749 265.518,327.271 271.013,324.853 275.719,321.532 279.698,317.343 283.01,312.324 285.72,306.511 287.888,299.942 289.576,292.653 290.848,284.68 291.763,276.06 292.282,268.369 292.733,267.92 294.298,266.693 295.31,266.078 296.052,265.738 293.613,263.645 292.562,262.426 292.778,257.028 293,246.688 293.115,235.848 293.185,224.546 293.185,224.382 293.849,223.096 293.181,222.428 293.159,211.647 293.133,198.748 293.13,197.338 294.084,196.383 295.562,195.156 296.877,194.261 296.98,194.204 296.263,193.143 295.615,191.956 294.973,190.442 294.564,189.133 294.224,187.477 294.081,186.073 294.081,184.37 294.224,182.968 294.564,181.31 294.974,180.002 295.617,178.489 296.264,177.303 297.164,175.974 297.565,175.489 295.231,173.975 293.819,172.664 293.079,171.806 293.056,160.052 293.004,134.254 292.992,128.24 293.772,127.505 293.753,127.434 293.574,126.689 293.492,126.311 293.346,125.55 293.277,125.142 293.168,124.368 293.117,123.925 293.048,123.144 293.02,122.662 292.996,121.876 293.022,120.91 293.272,117.966 293.509,116.577 294.278,113.601 294.77,112.213 296.084,109.336 296.883,107.952 298.229,106.062 296.95,106.256 296.714,106.255 296.248,106.238 296.056,106.226 294.804,106.052 294.653,106.019 292.946,105.374 292.903,83.7625 293.145,83.3198 293.442,82.7778 293.424,82.7748 292.901,82.6249 292.875,69.76 292.817,41.1768 293.003,41.0757 293.503,40.8144 292.815,39.8061 292.797,31.0636 292.771,18.1648 304.525,18.0893 305.357,18.0839 305.85,18.3377 306.021,18.4284 307.856,19.4281 308.013,18.6945 308.184,18.0658 316.278,18.0137 328.031,17.9382 339.784,17.8626 351.538,17.787 363.291,17.7115 375.044,17.6359 378.503,17.6137 379.3,17.9795 380.767,18.8426 385.997,22.6813 387.286,20.2208 387.913,19.4928 390.482,17.5367 410.304,17.4092 422.057,17.3337 433.81,17.2581 442.392,17.2029 443.41,17.9267 445.436,19.7783 445.467,19.8181 446.074,18.8895 447.474,17.1703 457.317,17.107 469.07,17.0314 480.823,16.9559 " fill="none" stroke-width="0.5" stroke="rgb(0,0,0)" />
	<polygon points="305.888,468.707 305.736,468.868 306.508,469.009 307.177,469.201 309.119,470.037 309.43,470.221 309.309,469.991 308.69,468.475 307.938,465.952 307.898,465.748 " fill="none" stroke-width="0.5" stroke="rgb(0,0,0)" />
	<polygon points="192.967,443.476 193.374,444.674 193.808,446.358 194.496,446.51 195.992,446.75 197.434,446.9 198.578,446.945 200.108,446.861 201.513,446.613 202.712,446.221 203.64,445.729 204.329,445.162 204.895,444.429 205.252,443.645 202.946,443.818 201.662,443.815 195.443,443.326 194.022,443.091 192.653,442.741 " fill="none" stroke-width="0.5" stroke="rgb(0,0,0)" />
	<polygon points="316.795,421.142 316.105,421.29 316.489,422.298 316.83,423.423 317.16,424.876 317.227,425.2 317.44,426.341 317.988,426.736 318.515,427.148 319.382,427.884 320.321,428.818 320.856,429.441 320.944,429.352 321.659,428.668 322.083,428.288 322.792,427.696 323.394,427.238 324.094,426.753 324.958,426.229 325.648,425.865 326.141,425.654 325.968,425.325 325.618,424.083 325.304,421.809 325.304,418.338 " fill="none" stroke-width="0.5" stroke="rgb(0,0,0)" />
	<polygon points="167.007,413.463 167.013,414.688 166.735,418.754 169.493,419.086 169.489,418.979 169.521,418.611 169.844,416.931 169.94,416.612 170.725,414.803 170.883,414.533 171.607,413.583 169.177,412.309 168.52,411.926 166.801,410.816 " fill="none" stroke-width="0.5" stroke="rgb(0,0,0)" />
	<polygon points="270.94,413.753 271.364,414.107 273.387,415.912 273.409,415.933 273.882,415.852 274.231,415.799 274.973,415.703 268.637,411.954 268.602,411.928 " fill="none" stroke-width="0.5" stroke="rgb(0,0,0)" />
	<polygon points="259.635,404.485 259.01,406.019 258.939,406.153 261.758,407.56 262.304,407.858 265.086,409.515 265.542,409.806 268.159,411.602 268.497,411.85 267.217,410.897 260.116,404.341 259.787,403.971 " fill="none" stroke-width="0.5" stroke="rgb(0,0,0)" />
	<polygon points="350.815,395.931 350.04,397.225 349.956,397.34 352.416,397.203 352.156,396.906 351.289,395.719 351.082,395.377 " fill="none" stroke-width="0.5" stroke="rgb(0,0,0)" />
	<polygon points="204.317,391.328 204.836,392.485 205.001,392.943 205.288,392.518 207.224,390.491 207.45,390.323 207.257,390.34 205.593,390.322 203.654,390.108 " fill="none" stroke-width="0.5" stroke="rgb(0,0,0)" />
	<polygon points="244.025,374.565 245.359,375.683 245.999,376.346 245.7,375.244 245.441,373.797 245.35,372.784 " fill="none" stroke-width="0.5" stroke="rgb(0,0,0)" />
	<polygon points="82.8507,368.286 81.8408,368.358 81.0079,368.367 81.3768,369.3 81.8553,372.459 82.9201,371.51 84.0098,370.688 85.0643,370.02 84.952,369.924 83.8493,368.789 83.3885,368.215 " fill="none" stroke-width="0.5" stroke="rgb(0,0,0)" />
	<polygon points="117.94,360.286 117.7,361.097 119.4,360.943 119.253,360.78 118.586,359.81 118.183,358.993 " fill="none" stroke-width="0.5" stroke="rgb(0,0,0)" />
	<polygon points="294.937,359.432 294.998,359.477 295.107,359.56 295.117,359.351 " fill="none" stroke-width="0.5" stroke="rgb(0,0,0)" />
	<polygon points="394.468,342.881 393.729,343.411 392.707,344.064 390.571,345.04 389.736,345.287 388.68,345.374 389.297,347.122 389.486,347.945 392.491,345.427 394.506,344.175 395.891,343.567 395.754,343.402 395.564,343.164 395.009,342.445 " fill="none" stroke-width="0.5" stroke="rgb(0,0,0)" />
	<polygon points="59.6443,341.688 61.2778,344.315 61.42,343.656 61.9749,341.973 62.6317,340.518 62.366,340.461 61.2328,340.134 59.3713,339.45 " fill="none" stroke-width="0.5" stroke="rgb(0,0,0)" />
	<polygon points="159.773,336.786 157.592,338.87 156.192,339.951 155.033,340.665 156.189,341.365 157.193,342.079 159.166,343.714 159.206,342.517 159.244,341.944 159.423,340.18 159.516,339.521 159.822,337.843 160.015,337.024 160.24,336.243 " fill="none" stroke-width="0.5" stroke="rgb(0,0,0)" />
	<polygon points="414.644,334.264 414.831,335.406 414.877,335.722 415.035,336.991 415.088,337.585 415.148,338.714 415.156,339.402 415.147,339.736 415.125,340.059 417.614,340.271 416.559,338.217 415.622,334.158 " fill="none" stroke-width="0.5" stroke="rgb(0,0,0)" />
	<polygon points="165.787,324.945 165.037,327.76 164.593,328.989 164.783,328.794 165.659,328.136 167.602,327.237 166.092,324.951 165.864,324.509 " fill="none" stroke-width="0.5" stroke="rgb(0,0,0)" />
	<polygon points="76.1329,312.376 75.2552,315.741 74.9736,318.349 74.9986,319.235 75.1095,320.286 75.1727,320.584 75.8945,319.63 77.3122,318.091 78.5229,317.009 80.2239,315.762 80.7545,315.446 80.684,315.409 79.314,314.519 77.885,313.378 76.685,312.205 76.3419,311.796 " fill="none" stroke-width="0.5" stroke="rgb(0,0,0)" />
	<polygon points="133.6,306.742 133.649,306.737 133.591,306.64 " fill="none" stroke-width="0.5" stroke="rgb(0,0,0)" />
	<polygon points="161.104,299.636 159.921,299.792 159.273,299.808 159.366,299.95 159.837,300.772 161.758,304.609 161.767,304.447 161.863,303.556 162.355,300.509 162.542,299.644 162.643,299.272 " fill="none" stroke-width="0.5" stroke="rgb(0,0,0)" />
	<polygon points="458.25,290.873 457.82,291.392 458.96,291.576 458.895,291.131 458.726,290.479 " fill="none" stroke-width="0.5" stroke="rgb(0,0,0)" />
	<polygon points="87.0501,288.666 87.4838,288.894 87.5329,288.933 87.5342,288.926 87.6734,287.466 " fill="none" stroke-width="0.5" stroke="rgb(0,0,0)" />
	<polygon points="157.614,228.598 157.544,228.741 158.116,229.351 159.171,233.795 159.11,235.221 159.086,235.597 158.927,237.419 158.91,237.594 158.685,239.666 158.676,239.748 158.418,241.924 158.416,241.943 158.161,244.056 157.947,245.913 157.813,247.271 157.806,247.415 158.476,247.793 160.774,251.578 161.24,253.203 161.399,253.855 161.764,255.666 161.835,256.071 162.127,258 162.158,258.225 162.402,260.203 162.411,260.28 162.522,261.251 163.583,257.56 165.185,254.523 166.2,253.297 162.577,252.315 159.611,249.53 158.302,245.678 158.457,243.234 158.693,242.121 158.893,241.084 159.068,240.055 159.216,239.034 159.335,238.021 159.422,237.016 159.475,236.017 159.491,235.148 159.403,233.354 159.142,231.708 158.672,230.064 157.939,228.368 157.84,228.204 " fill="none" stroke-width="0.5" stroke="rgb(0,0,0)" />
	<polygon points="382.635,248.168 383.29,247.854 383.029,247.581 " fill="none" stroke-width="0.5" stroke="rgb(0,0,0)" />
	<polygon points="327.732,236.91 326.507,236.909 327.483,238.013 329.37,241.164 329.59,241.054 329.911,240.93 329.906,240.922 329.265,239.407 328.561,237.146 328.497,236.832 " fill="none" stroke-width="0.5" stroke="rgb(0,0,0)" />
	<polygon points="311.163,227.557 311.202,227.601 313.159,228.766 313.41,228.875 313.096,228.299 312.591,227.105 " fill="none" stroke-width="0.5" stroke="rgb(0,0,0)" />
	<polygon points="89.455,215.803 89.8112,216.491 90.3335,217.736 90.5854,218.504 90.8677,219.616 91.0172,220.438 91.0357,220.592 92.7467,220.039 93.4756,219.916 96.0372,219.882 96.681,219.973 98.9357,220.621 99.1756,220.728 99.2027,220.364 99.3886,219.124 100.004,216.417 98.0528,216.632 96.2017,216.631 93.0125,216.275 91.1284,215.84 88.985,215.077 " fill="none" stroke-width="0.5" stroke="rgb(0,0,0)" />
	<polygon points="432.915,215.25 432.154,215.396 429.16,215.828 432.099,218.266 433.406,219.626 433.515,219.768 434.034,218.829 436.557,215.175 437.355,214.188 437.362,214.181 " fill="none" stroke-width="0.5" stroke="rgb(0,0,0)" />
	<polygon points="68.2016,218.01 68.2884,217.863 68.0155,217.791 " fill="none" stroke-width="0.5" stroke="rgb(0,0,0)" />
	<polygon points="191.677,216.052 192.475,215.799 192.209,215.492 191.491,214.969 191.023,214.753 " fill="none" stroke-width="0.5" stroke="rgb(0,0,0)" />
	<polygon points="381.749,203.473 380.85,204.799 380.714,204.963 380.854,205.077 380.891,205.114 382.135,203.409 382.701,203.135 382.17,202.703 " fill="none" stroke-width="0.5" stroke="rgb(0,0,0)" />
	<polygon points="108.475,164.659 107.439,165.515 106.109,166.416 104.923,167.063 103.408,167.706 103.058,167.815 105.014,169.144 105.876,169.815 108.874,172.481 109.734,173.367 111.9,175.955 112.165,175.467 113.344,173.812 114.731,172.294 115.069,172.012 112.391,169.564 111.222,168.246 109,165.135 108.634,164.5 " fill="none" stroke-width="0.5" stroke="rgb(0,0,0)" />
	<polygon points="423.101,145.763 420.36,148.215 418.913,149.255 418.566,149.453 418.922,149.521 425.342,151.418 426.892,152.05 431.374,154.424 430.299,150.674 430.204,147.947 429.744,147.786 428.065,147.049 426.575,146.203 425.215,145.235 424.272,144.363 " fill="none" stroke-width="0.5" stroke="rgb(0,0,0)" />
	<polygon points="356.277,144.244 356.826,144.189 358.508,144.189 359.848,144.324 359.882,144.331 357.656,142.384 356.641,141.325 356.563,141.228 " fill="none" stroke-width="0.5" stroke="rgb(0,0,0)" />
	<polygon points="127.772,138.482 127.968,139.069 128.038,138.73 128.109,138.306 " fill="none" stroke-width="0.5" stroke="rgb(0,0,0)" />
	<polygon points="313.257,126.544 312.438,127.107 311.769,127.749 311.277,128.401 310.983,128.96 310.622,130.101 310.111,130.933 310.25,130.989 311.014,131.202 311.826,131.332 312.832,131.383 313.032,131.377 313.453,131.344 313.996,131.284 314.63,131.203 314.635,131.202 314.629,131.191 314.144,130.063 314.015,129.689 313.712,128.566 313.637,128.18 313.496,127.091 313.471,126.698 313.476,126.441 " fill="none" stroke-width="0.5" stroke="rgb(0,0,0)" />
	<polygon points="186.044,112.71 185.814,113.454 185.238,114.854 184.902,115.499 183.854,117.057 183.403,117.587 181.801,119.042 181.227,119.442 179.253,120.459 178.548,120.71 176.59,121.155 176.033,121.213 177.083,123.941 179.138,122.511 180.166,121.9 183.286,120.334 184.599,119.808 187.821,118.823 189.412,118.501 190.826,118.354 187.394,114.301 187.12,113.959 186.073,112.583 " fill="none" stroke-width="0.5" stroke="rgb(0,0,0)" />
	<polygon points="92.6833,116.202 90.4201,117.965 89.211,118.75 86.8729,119.997 84.5434,120.827 82.1421,121.3 82.0122,121.305 82.1023,122.889 82.1138,123.553 82.1075,123.839 82.3505,123.707 83.8664,123.063 85.1753,122.653 86.8331,122.313 88.2362,122.17 89.9382,122.17 91.3433,122.313 92.999,122.652 93.7315,122.881 93.256,119.326 93.2337,119.144 92.886,116.029 " fill="none" stroke-width="0.5" stroke="rgb(0,0,0)" />
	<polygon points="395.123,103.66 395.498,104.229 396.288,103.971 396.826,103.768 395.033,103.545 " fill="none" stroke-width="0.5" stroke="rgb(0,0,0)" />
	<polygon points="147.088,103.794 147.105,103.793 147.091,103.782 " fill="none" stroke-width="0.5" stroke="rgb(0,0,0)" />
	<polygon points="68.0829,96.3127 68.4615,96.4873 68.5143,96.0856 " fill="none" stroke-width="0.5" stroke="rgb(0,0,0)" />
	<polygon points="104.172,63.1644 102.338,64.7343 102.129,64.9075 100.348,66.3354 99.5421,66.9068 98.4565,67.5845 98.6516,68.5015 98.7111,68.9251 99.8263,68.2666 101.884,67.5532 104.618,67.3089 104.547,66.4536 104.525,66.1021 104.395,62.9824 " fill="none" stroke-width="0.5" stroke="rgb(0,0,0)" />
	<polygon points="413.241,64.2392 414.933,65.8273 416.567,67.1398 418.1,68.0705 419.492,68.5944 421.231,68.8138 421.348,68.796 421.25,68.4711 420.094,67.2768 416.824,65.3421 412.557,63.5744 " fill="none" stroke-width="0.5" stroke="rgb(0,0,0)" />
	<polygon points="127.206,67.3494 128.439,66.0782 127.693,65.0405 " fill="none" stroke-width="0.5" stroke="rgb(0,0,0)" />
	<polygon points="398.2,38.764 398.889,40.417 398.973,40.703 399.253,40.5628 400.279,40.1302 403.251,39.1036 403.801,38.9346 404.95,38.6238 401.988,37.501 398.086,36.3909 396.711,36.047 " fill="none" stroke-width="0.5" stroke="rgb(0,0,0)" />
</svg>
