<?xml version="1.0" standalone="no" ?>
<!DOCTYPE svg PUBLIC "-//W3C//DTD SVG 1.1//EN" "http://www.w3.org/Graphics/SVG/1.1/DTD/svg11.dtd">
<svg width="500px" height="500px" xmlns="http://www.w3.org/2000/svg" version="1.1" >
	<polygon points="461.423,280.742 460.657,294.396 458.382,308.758 454.508,324.051 449.003,339.932 441.855,356.083 433.06,372.198 422.619,387.988 410.536,403.173 396.815,417.49 381.454,430.686 364.442,442.518 345.749,452.754 325.329,461.16 303.116,467.495 279.03,471.503 252.976,472.906 227.6,471.583 204.017,467.788 182.186,461.772 162.047,453.766 143.553,443.99 126.67,432.654 111.382,419.968 97.6849,406.148 85.5853,391.417 75.0945,376.011 66.2257,360.176 58.9895,344.167 53.3919,328.253 49.4297,312.713 47.0861,297.84 46.2905,283.373 46.2905,38.8274 50.0228,38.7987 61.5144,38.7106 73.0061,38.6224 84.4978,38.5342 95.9894,38.446 107.481,38.3579 118.973,38.2697 130.464,38.1815 130.464,38.1815 141.956,38.0933 153.448,38.0052 153.448,38.0052 164.94,37.917 176.431,37.8288 187.923,37.7406 187.923,37.7406 191.319,37.7146 191.307,43.9242 191.281,56.823 191.256,69.7218 191.256,69.7218 191.23,82.6206 191.179,108.418 191.179,108.418 191.154,121.317 191.103,147.115 191.103,147.115 191.078,160.013 191.052,172.912 191.052,172.912 191.027,185.811 191.001,198.71 190.976,211.609 190.976,211.609 190.95,224.507 190.951,224.695 191.038,235.99 191.04,236.135 191.204,246.952 191.21,247.216 191.507,257.522 191.523,257.926 192.008,267.687 192.044,268.258 192.773,277.442 192.85,278.216 193.876,286.789 194.026,287.81 195.406,295.738 195.684,297.059 197.474,304.31 197.968,305.983 200.222,312.522 201.064,314.577 203.838,320.371 205.202,322.766 208.551,327.783 210.595,330.346 214.575,334.551 217.328,336.958 221.993,340.317 225.238,342.207 230.644,344.688 233.978,345.863 240.18,347.433 243.229,347.95 250.283,348.574 251.947,329.779 253.245,348.604 260.506,348.103 263.57,347.644 269.917,346.166 273.332,345.028 278.827,342.61 282.201,340.702 286.907,337.381 289.786,334.892 293.764,330.703 295.889,328.03 299.201,323.011 300.594,320.52 303.303,314.708 304.143,312.591 306.31,306.022 306.787,304.32 308.476,297.031 308.734,295.707 310.006,287.734 310.139,286.73 311.055,278.11 311.12,277.366 311.742,268.136 311.771,267.605 312.162,257.802 312.173,257.444 312.395,247.105 312.399,246.894 312.514,236.054 312.515,235.969 312.585,224.666 312.585,224.507 312.559,211.608 312.533,198.709 312.507,185.81 312.482,172.912 312.482,172.911 312.456,160.013 312.404,134.215 312.404,134.215 312.378,121.316 312.301,82.6199 312.301,82.6199 312.275,69.7212 312.21,37.4403 316.403,37.4133 328.156,37.3378 339.909,37.2622 351.662,37.1866 363.416,37.1111 375.169,37.0355 386.922,36.96 410.429,36.8088 422.182,36.7333 433.935,36.6577 445.688,36.5822 457.442,36.5066 461.423,36.481 " fill="none" stroke-width="0.5" stroke="rgb(0,0,0)" />
</svg>
