<?xml version="1.0" standalone="no" ?>
<!DOCTYPE svg PUBLIC "-//W3C//DTD SVG 1.1//EN" "http://www.w3.org/Graphics/SVG/1.1/DTD/svg11.dtd">
<svg width="500px" height="500px" xmlns="http://www.w3.org/2000/svg" version="1.1" >
	<polygon points="480.823,79.7624 480.607,80.2746 479.324,82.3969 474.009,88.8689 472.392,90.3892 467.613,93.8435 468.802,94.0877 470.32,94.5481 472.416,95.4001 473.985,96.2356 475.708,97.3947 477.132,98.5936 478.501,100.025 479.605,101.451 480.638,103.121 480.823,103.495 480.823,190.829 479.056,192.874 477.477,193.948 474.796,194.946 474.992,195.134 478.994,199.576 479.95,200.859 480.823,202.289 480.823,246.36 479.511,248.594 479.082,249.253 476.638,252.662 478.375,253.056 479.634,253.504 480.823,254.113 480.823,281.286 480.067,294.761 479.619,295.38 477.042,298.569 476.342,299.335 473.596,302.003 474.122,302.828 476.037,306.495 476.546,307.675 477.677,310.949 477.405,312.666 473.11,329.62 467.07,347.047 459.27,364.67 455.043,372.414 450.955,372.644 450.064,372.24 450.667,378.716 450.607,380.543 449.695,382.213 438.331,399.399 425.161,415.952 410.17,431.593 401.07,439.41 399.116,438.797 397.623,438.092 397.006,437.72 396.925,439.379 396.183,443.608 393.345,446.047 374.668,459.037 354.126,470.285 331.702,479.516 322.549,482.127 322.207,482.03 320.599,481.393 317.936,480.016 316.454,479.046 314.588,477.53 314.619,477.683 314.676,478.122 314.741,478.952 314.754,479.366 314.459,481.892 314.061,483.365 313.365,484.746 307.382,486.452 281.151,490.817 265.866,491.64 264.338,490.392 263.602,489.682 263.036,489.97 262.55,490.199 258.385,492.005 258.274,492.049 252.993,492.333 225.548,490.902 199.887,486.773 179.22,481.077 178.688,480.7 174.767,477.945 171.869,476.315 170.169,475.825 167.28,475.539 163.82,475.348 153.907,471.407 133.585,460.665 129.192,457.715 127,454.219 126.848,452.266 125.899,452.257 120.133,451.632 115.039,448.212 98.2672,434.295 83.2685,419.161 70.0408,403.057 69.8713,402.808 69.6733,401.224 69.634,399.463 69.7443,398.081 68.7758,398.112 65.4066,396.252 58.5824,386.23 48.8916,368.927 40.9666,351.394 34.8057,333.879 33.8465,330.117 33.9108,329.804 36.8792,320.244 37.3717,319.004 39.6125,314.429 37.3983,314.384 35.4293,313.764 31.9095,311.63 30.091,309.811 29.1324,308.537 27.7694,299.888 26.8905,283.906 26.8905,235.807 28.4243,232.282 29.4281,230.554 30.0187,229.764 27.9731,228.586 26.8905,227.738 26.8905,162.879 27.0821,162.234 28.6542,157.852 29.2086,156.619 31.6351,152.186 32.5642,150.818 34.3707,148.639 33.8754,148.495 32.3154,147.869 30.0291,146.682 28.5989,145.75 26.8905,144.379 26.8905,110.583 27.0909,110.383 28.1012,109.519 29.3754,108.589 29.0418,108.382 27.5135,107.18 27.1185,106.79 26.8905,106.503 26.8905,89.9337 28.2419,87.8911 26.8905,87.4393 26.8905,40.9307 26.9629,40.8693 30.8536,38.0201 31.2742,37.7308 34.7894,35.4624 34.4382,35.3734 33.9632,35.2386 30.2127,34.0569 28.9086,33.5259 26.8905,32.5055 26.8905,19.5757 38.3822,19.4875 49.8739,19.3993 61.3656,19.3111 72.8572,19.223 84.3489,19.1348 95.8406,19.0466 107.332,18.9584 116.835,18.8855 116.977,19.0435 117.183,19.2815 118.338,20.6662 118.653,20.9604 118.805,20.9823 118.97,20.9588 119.426,20.558 120.669,19.1869 120.891,18.9501 120.986,18.8537 130.316,18.7821 141.807,18.6939 153.299,18.6057 157.33,18.5748 157.952,20.54 158.932,19.8334 160.455,18.9548 161.373,18.5438 164.791,18.5175 176.282,18.4294 187.774,18.3412 210.757,18.1648 210.732,31.0636 210.706,43.9624 210.681,56.8612 210.679,58.0098 209.69,58.386 210.676,59.5161 210.656,69.76 210.63,82.6588 210.624,85.9047 210.216,86.1226 209.346,86.4863 207.933,86.9393 206.93,87.168 205.614,87.3631 204.485,87.4425 204.162,87.4375 204.608,87.7838 204.838,87.9682 209.133,91.5435 209.426,91.7983 210.61,92.8776 210.579,108.456 210.554,121.355 210.503,147.153 210.478,160.052 210.452,172.95 210.443,177.383 209.684,178.778 208.86,180.021 207.079,182.263 205.988,183.404 203.846,185.27 203.026,185.854 203.41,186.067 205.808,187.711 207.144,188.841 209.117,190.887 210.26,192.362 210.413,192.611 210.401,198.748 210.376,211.647 210.362,218.535 210.002,219.182 209.794,219.538 208.968,220.87 207.542,222.266 209.656,224.222 210.282,224.865 210.353,224.946 210.438,235.84 210.602,246.657 210.899,256.963 211.242,263.878 211.082,264.079 208.9,266.719 207.405,268.708 207.022,269.424 207.074,269.508 208.256,270.703 210.424,272.53 210.574,272.659 211.95,273.873 212.112,275.909 213.138,284.482 214.519,292.41 216.308,299.661 218.563,306.2 221.336,311.994 224.685,317.011 228.665,321.215 233.33,324.575 238.737,327.056 244.939,328.626 250.243,329.095 250.622,329.715 252.131,332.839 252.658,334.231 253.844,332.006 254.746,330.643 256.104,328.961 259.171,328.749 265.518,327.271 271.013,324.853 275.719,321.532 279.698,317.343 283.01,312.324 285.72,306.511 287.888,299.942 289.576,292.653 290.848,284.68 291.763,276.06 292.308,267.991 292.556,267.743 294.168,266.48 295.18,265.864 295.594,265.675 293.45,263.835 292.548,262.788 292.778,257.028 293,246.688 293.115,235.848 293.185,224.546 293.184,223.839 293.544,223.143 293.181,222.78 293.159,211.647 293.133,198.748 293.13,196.986 293.924,196.19 295.402,194.964 296.629,194.128 296.043,193.263 295.396,192.076 294.735,190.517 294.325,189.207 293.975,187.502 293.832,186.099 293.832,184.344 293.975,182.943 294.326,181.236 294.736,179.928 295.397,178.369 296.044,177.183 296.971,175.814 297.195,175.543 295.061,174.159 293.648,172.847 293.08,172.187 293.056,160.052 293.004,134.254 292.991,127.901 293.494,127.424 293.331,126.747 293.247,126.358 293.1,125.597 293.03,125.177 292.985,124.861 292.978,121.355 292.973,118.544 293.023,117.945 293.267,116.515 294.036,113.539 294.543,112.109 295.857,109.232 296.68,107.807 297.686,106.394 296.949,106.506 296.712,106.505 296.232,106.488 296.041,106.476 294.751,106.296 294.6,106.264 292.947,105.639 292.902,83.2441 292.926,83.1998 293.072,82.9326 292.901,82.8836 292.901,82.6588 292.875,69.76 292.817,40.8925 292.887,40.8542 293.138,40.7231 292.816,40.251 292.797,31.0636 292.771,18.1648 304.525,18.0893 305.896,18.0805 305.964,18.1155 306.14,18.2088 307.682,19.0484 307.769,18.6422 307.925,18.0674 316.278,18.0137 328.031,17.9382 339.784,17.8626 351.538,17.787 363.291,17.7115 375.044,17.6359 379.094,17.6099 379.404,17.7523 380.915,18.6411 385.93,22.3225 387.097,20.0578 387.723,19.3298 390.075,17.5393 410.304,17.4092 422.057,17.3337 433.81,17.2581 442.816,17.2002 443.579,17.7421 445.424,19.4293 445.88,18.7317 447.149,17.1724 457.317,17.107 469.07,17.0314 480.823,16.9559 " fill="none" stroke-width="0.5" stroke="rgb(0,0,0)" />
	<polygon points="306.196,468.699 306.577,468.768 307.246,468.961 308.913,469.678 308.451,468.546 307.794,466.346 " fill="none" stroke-width="0.5" stroke="rgb(0,0,0)" />
	<polygon points="193.197,443.378 193.616,444.611 194.011,446.147 194.543,446.264 196.025,446.502 197.451,446.65 198.576,446.694 200.08,446.612 201.452,446.37 202.614,445.99 203.501,445.52 204.149,444.987 204.68,444.299 204.85,443.926 202.965,444.067 201.642,444.064 195.424,443.575 193.96,443.333 193.082,443.108 " fill="none" stroke-width="0.5" stroke="rgb(0,0,0)" />
	<polygon points="316.873,421.38 316.442,421.472 316.723,422.209 317.073,423.368 317.404,424.82 317.473,425.154 317.667,426.197 318.134,426.533 318.677,426.958 319.544,427.693 320.511,428.655 320.871,429.075 321.486,428.487 321.923,428.096 322.632,427.504 323.252,427.032 323.952,426.547 324.842,426.008 325.532,425.644 325.799,425.529 325.727,425.393 325.378,424.151 325.054,421.809 325.054,418.684 " fill="none" stroke-width="0.5" stroke="rgb(0,0,0)" />
	<polygon points="167.256,413.444 167.262,414.705 166.996,418.598 169.25,418.845 169.272,418.589 169.605,416.859 169.701,416.54 170.509,414.678 170.667,414.407 171.231,413.667 169.061,412.531 168.385,412.136 167.089,411.3 " fill="none" stroke-width="0.5" stroke="rgb(0,0,0)" />
	<polygon points="273.487,415.666 273.839,415.605 274.199,415.551 274.22,415.548 271.651,414.028 " fill="none" stroke-width="0.5" stroke="rgb(0,0,0)" />
	<polygon points="259.874,404.556 259.271,406.039 261.87,407.336 262.432,407.643 264.946,409.14 259.947,404.525 259.899,404.472 " fill="none" stroke-width="0.5" stroke="rgb(0,0,0)" />
	<polygon points="351.04,396.04 350.427,397.064 351.903,396.981 351.11,395.896 " fill="none" stroke-width="0.5" stroke="rgb(0,0,0)" />
	<polygon points="204.536,391.209 205.069,392.396 205.081,392.378 206.795,390.584 205.565,390.571 204.102,390.409 " fill="none" stroke-width="0.5" stroke="rgb(0,0,0)" />
	<polygon points="244.365,374.526 245.505,375.48 245.458,375.31 245.192,373.819 245.159,373.459 " fill="none" stroke-width="0.5" stroke="rgb(0,0,0)" />
	<polygon points="82.8834,368.534 81.8435,368.608 81.3672,368.613 81.624,369.262 82.0334,371.965 82.7538,371.324 83.8759,370.477 84.6596,369.98 83.6543,368.945 83.2816,368.481 " fill="none" stroke-width="0.5" stroke="rgb(0,0,0)" />
	<polygon points="118.185,360.332 118.043,360.815 118.92,360.736 118.38,359.951 118.291,359.771 " fill="none" stroke-width="0.5" stroke="rgb(0,0,0)" />
	<polygon points="394.624,343.075 393.863,343.622 392.842,344.275 390.642,345.279 389.807,345.527 389.022,345.591 389.533,347.039 389.637,347.492 392.331,345.235 394.406,343.947 395.489,343.471 395.366,343.317 394.967,342.8 " fill="none" stroke-width="0.5" stroke="rgb(0,0,0)" />
	<polygon points="59.8858,341.603 61.1638,343.659 61.1757,343.604 61.747,341.87 62.2775,340.695 61.1466,340.368 59.669,339.826 " fill="none" stroke-width="0.5" stroke="rgb(0,0,0)" />
	<polygon points="157.765,339.051 156.323,340.164 155.512,340.663 156.318,341.151 157.352,341.887 158.933,343.196 158.956,342.509 158.995,341.919 159.174,340.154 159.27,339.476 159.576,337.798 159.721,337.18 " fill="none" stroke-width="0.5" stroke="rgb(0,0,0)" />
	<polygon points="414.934,334.484 415.078,335.366 415.125,335.691 415.283,336.96 415.337,337.572 415.397,338.7 415.406,339.409 415.396,339.743 415.391,339.83 417.194,339.984 416.315,338.273 415.428,334.43 " fill="none" stroke-width="0.5" stroke="rgb(0,0,0)" />
	<polygon points="165.278,327.824 165.137,328.216 165.509,327.936 167.236,327.137 165.972,325.223 " fill="none" stroke-width="0.5" stroke="rgb(0,0,0)" />
	<polygon points="76.372,312.45 75.5018,315.786 75.224,318.359 75.2482,319.219 75.3272,319.967 75.7106,319.461 77.1283,317.922 78.375,316.807 80.0761,315.56 80.2763,315.441 79.158,314.714 77.729,313.573 76.4933,312.366 76.4296,312.29 " fill="none" stroke-width="0.5" stroke="rgb(0,0,0)" />
	<polygon points="161.137,299.884 159.954,300.04 159.708,300.046 160.06,300.66 161.594,303.722 161.616,303.516 162.108,300.469 162.294,299.61 " fill="none" stroke-width="0.5" stroke="rgb(0,0,0)" />
	<polygon points="458.427,291.05 458.291,291.215 458.663,291.275 458.649,291.18 458.582,290.922 " fill="none" stroke-width="0.5" stroke="rgb(0,0,0)" />
	<polygon points="161.015,251.509 161.48,253.134 161.644,253.806 162.009,255.616 162.082,256.034 162.374,257.962 162.406,258.195 162.627,259.982 163.342,257.491 164.993,254.364 165.77,253.425 162.564,252.593 160.575,250.791 " fill="none" stroke-width="0.5" stroke="rgb(0,0,0)" />
	<polygon points="158.065,247.268 158.603,247.569 158.784,247.865 158.17,246.199 " fill="none" stroke-width="0.5" stroke="rgb(0,0,0)" />
	<polygon points="327.757,237.159 327.055,237.158 327.698,237.885 329.466,240.838 329.5,240.821 329.58,240.79 329.027,239.481 328.322,237.221 328.298,237.104 " fill="none" stroke-width="0.5" stroke="rgb(0,0,0)" />
	<polygon points="311.747,227.635 312.814,228.269 312.451,227.412 " fill="none" stroke-width="0.5" stroke="rgb(0,0,0)" />
	<polygon points="89.677,215.688 90.0333,216.376 90.5711,217.658 90.8229,218.426 91.1136,219.571 91.2401,220.266 92.7053,219.792 93.4342,219.67 96.072,219.635 96.7158,219.726 98.9517,220.368 98.9533,220.346 99.1448,219.069 99.6822,216.704 98.0801,216.881 96.174,216.879 92.9847,216.523 91.0446,216.076 89.5939,215.56 " fill="none" stroke-width="0.5" stroke="rgb(0,0,0)" />
	<polygon points="432.973,215.493 432.189,215.643 429.753,215.995 432.259,218.074 433.471,219.334 433.828,218.687 436.351,215.033 436.705,214.596 " fill="none" stroke-width="0.5" stroke="rgb(0,0,0)" />
	<polygon points="191.807,215.754 192.035,215.675 191.612,215.367 " fill="none" stroke-width="0.5" stroke="rgb(0,0,0)" />
	<polygon points="382.215,203.141 382.275,203.11 382.245,203.086 " fill="none" stroke-width="0.5" stroke="rgb(0,0,0)" />
	<polygon points="107.599,165.708 106.228,166.635 105.042,167.282 103.612,167.889 105.155,168.937 106.042,169.628 109.041,172.295 109.926,173.207 111.856,175.512 111.945,175.347 113.16,173.643 114.546,172.126 114.691,172.005 112.222,169.748 111.019,168.391 108.797,165.28 108.577,164.899 " fill="none" stroke-width="0.5" stroke="rgb(0,0,0)" />
	<polygon points="423.268,145.95 420.526,148.402 419.213,149.346 425.412,151.178 427.009,151.829 430.972,153.928 430.058,150.742 429.958,148.125 429.644,148.015 427.965,147.277 426.43,146.407 425.07,145.439 424.294,144.722 " fill="none" stroke-width="0.5" stroke="rgb(0,0,0)" />
	<polygon points="356.554,143.965 356.801,143.94 358.533,143.94 359.123,144 357.491,142.572 356.759,141.808 " fill="none" stroke-width="0.5" stroke="rgb(0,0,0)" />
	<polygon points="312.597,127.302 311.956,127.916 311.489,128.535 311.215,129.057 310.86,130.177 310.483,130.795 311.068,130.958 311.852,131.083 312.834,131.133 313.018,131.127 313.43,131.095 313.966,131.036 314.274,130.996 313.908,130.144 313.779,129.771 313.467,128.615 313.391,128.228 313.246,127.107 313.231,126.865 " fill="none" stroke-width="0.5" stroke="rgb(0,0,0)" />
	<polygon points="186.052,113.528 185.46,114.969 185.124,115.615 184.044,117.219 183.593,117.749 181.944,119.247 181.37,119.647 179.337,120.694 178.633,120.946 176.616,121.403 176.383,121.428 177.202,123.554 178.996,122.306 180.054,121.677 183.174,120.11 184.526,119.569 187.747,118.584 189.386,118.252 190.329,118.154 187.204,114.463 186.921,114.111 186.175,113.131 " fill="none" stroke-width="0.5" stroke="rgb(0,0,0)" />
	<polygon points="90.5738,118.162 89.3287,118.97 86.9906,120.217 84.5918,121.072 82.2753,121.528 82.3519,122.875 82.3616,123.432 83.7917,122.824 85.1006,122.415 86.8078,122.064 88.2109,121.921 89.9636,121.921 91.3686,122.064 93.0736,122.414 93.4317,122.526 93.0082,119.359 92.9852,119.172 92.6886,116.515 " fill="none" stroke-width="0.5" stroke="rgb(0,0,0)" />
	<polygon points="395.602,103.932 395.744,103.885 395.556,103.862 " fill="none" stroke-width="0.5" stroke="rgb(0,0,0)" />
	<polygon points="415.097,65.6384 416.711,66.9346 418.209,67.8447 419.552,68.35 420.957,68.5272 419.937,67.4748 416.712,65.5663 413.683,64.3116 " fill="none" stroke-width="0.5" stroke="rgb(0,0,0)" />
	<polygon points="102.501,64.9242 102.285,65.1026 100.504,66.5305 99.6745,67.1189 98.7369,67.7042 98.8991,68.4667 98.9073,68.5247 99.7444,68.0304 101.802,67.317 104.348,67.0803 104.298,66.4745 104.275,66.1124 104.167,63.4981 " fill="none" stroke-width="0.5" stroke="rgb(0,0,0)" />
	<polygon points="127.628,66.5617 128.116,66.058 127.821,65.6467 " fill="none" stroke-width="0.5" stroke="rgb(0,0,0)" />
	<polygon points="398.42,38.6438 399.128,40.3455 399.14,40.3394 400.197,39.8939 403.169,38.8673 403.735,38.6933 404.14,38.5839 401.909,37.7385 398.021,36.6325 397.206,36.4283 " fill="none" stroke-width="0.5" stroke="rgb(0,0,0)" />
</svg>
