<?xml version="1.0" standalone="no" ?>
<!DOCTYPE svg PUBLIC "-//W3C//DTD SVG 1.1//EN" "http://www.w3.org/Graphics/SVG/1.1/DTD/svg11.dtd">
<svg width="500px" height="500px" xmlns="http://www.w3.org/2000/svg" version="1.1" >
	<polygon points="462.523,280.773 461.752,294.514 459.461,308.98 455.562,324.366 450.028,340.336 442.843,356.57 434.003,372.766 423.51,388.635 411.365,403.898 397.573,418.29 382.129,431.557 365.021,443.455 346.224,453.748 325.69,462.201 303.358,468.57 279.151,472.598 252.977,474.008 227.484,472.678 203.783,468.864 181.835,462.816 161.585,454.766 142.987,444.936 126.011,433.536 110.638,420.78 96.8675,406.886 84.7039,392.077 74.1583,376.591 65.2428,360.672 57.9676,344.577 52.338,328.572 48.3511,312.935 45.9909,297.956 45.1905,283.403 45.1905,37.7358 50.0143,37.6988 61.506,37.6106 72.9977,37.5224 84.4893,37.4342 95.981,37.3461 107.473,37.2579 118.964,37.1697 130.456,37.0815 141.948,36.9934 153.439,36.9052 164.931,36.817 176.423,36.7288 187.914,36.6407 187.914,36.6407 192.421,36.6061 192.407,43.9264 192.381,56.8251 192.356,69.7239 192.356,69.724 192.33,82.6227 192.279,108.42 192.279,108.42 192.254,121.319 192.203,147.117 192.203,147.117 192.178,160.016 192.152,172.914 192.152,172.914 192.127,185.813 192.101,198.712 192.076,211.611 192.076,211.611 192.05,224.51 192.051,224.687 192.138,235.981 192.14,236.118 192.304,246.935 192.31,247.184 192.607,257.49 192.622,257.871 193.106,267.633 193.141,268.171 193.869,277.355 193.942,278.085 194.968,286.658 195.11,287.621 196.49,295.549 196.752,296.796 198.542,304.046 199.007,305.625 201.262,312.164 202.056,314.102 204.83,319.896 206.117,322.156 209.466,327.172 211.394,329.59 215.374,333.794 217.971,336.065 222.636,339.425 225.697,341.207 231.103,343.688 234.247,344.797 240.45,346.367 243.326,346.854 250.38,347.479 251.947,329.779 253.17,347.507 260.43,347.006 263.321,346.573 269.668,345.095 272.889,344.022 278.384,341.603 281.567,339.804 286.273,336.482 288.988,334.134 292.967,329.945 294.971,327.424 298.283,322.405 299.597,320.055 302.306,314.243 303.098,312.246 305.266,305.677 305.716,304.072 307.404,296.782 307.648,295.534 308.919,287.561 309.045,286.614 309.961,277.994 310.022,277.292 310.645,268.062 310.672,267.561 311.063,257.758 311.073,257.421 311.296,247.081 311.299,246.882 311.414,236.043 311.415,235.962 311.485,224.659 311.485,224.509 311.459,211.61 311.433,198.711 311.407,185.813 311.382,172.914 311.382,172.914 311.356,160.015 311.304,134.217 311.304,134.217 311.278,121.318 311.201,82.6222 311.201,82.6221 311.175,69.7233 311.108,36.3473 316.395,36.3134 328.149,36.2378 339.902,36.1622 351.655,36.0867 363.408,36.0111 375.162,35.9355 386.915,35.86 410.421,35.7089 422.175,35.6333 433.928,35.5577 445.681,35.4822 457.434,35.4066 462.523,35.3739 " fill="none" stroke-width="0.5" stroke="rgb(0,0,0)" />
</svg>
