<?xml version="1.0" standalone="no" ?>
<!DOCTYPE svg PUBLIC "-//W3C//DTD SVG 1.1//EN" "http://www.w3.org/Graphics/SVG/1.1/DTD/svg11.dtd">
<svg width="500px" height="500px" xmlns="http://www.w3.org/2000/svg" version="1.1" >
	<polygon points="461.073,280.732 460.308,294.359 458.039,308.688 454.172,323.95 448.677,339.804 441.541,355.928 432.76,372.017 422.335,387.782 410.272,402.943 396.574,417.236 381.24,430.409 364.257,442.22 345.598,452.438 325.214,460.829 303.039,467.153 278.992,471.155 252.976,472.556 227.637,471.234 204.092,467.445 182.297,461.439 162.194,453.448 143.732,443.689 126.88,432.373 111.619,419.71 97.945,405.913 85.8657,391.207 75.3924,375.827 66.5384,360.018 59.3147,344.036 53.7272,328.151 49.7729,312.642 47.4346,297.803 46.6405,283.363 46.6405,39.1747 50.0254,39.1487 61.5171,39.0606 73.0088,38.9724 84.5005,38.8842 95.9921,38.796 95.9921,38.796 118.975,38.6197 130.467,38.5315 130.467,38.5315 141.959,38.4433 153.451,38.3551 153.451,38.3551 164.942,38.267 176.434,38.1788 187.926,38.0906 187.926,38.0906 190.968,38.0673 190.957,43.9235 190.931,56.8223 190.906,69.7211 190.906,69.7211 190.88,82.6199 190.829,108.417 190.829,108.417 190.804,121.316 190.753,147.114 190.753,147.114 190.728,160.013 190.702,172.911 190.702,172.911 190.677,185.81 190.651,198.709 190.626,211.608 190.626,211.608 190.6,224.507 190.601,224.698 190.688,235.993 190.69,236.14 190.854,246.957 190.86,247.226 191.157,257.532 191.173,257.943 191.658,267.705 191.696,268.286 192.424,277.47 192.502,278.257 193.529,286.83 193.681,287.87 195.062,295.798 195.344,297.143 197.134,304.394 197.637,306.097 199.891,312.636 200.749,314.728 203.522,320.522 204.911,322.961 208.26,327.977 210.341,330.587 214.321,334.791 217.123,337.242 221.788,340.601 225.092,342.525 230.498,345.006 233.892,346.203 240.095,347.772 243.198,348.299 250.253,348.923 251.947,329.779 253.269,348.953 260.53,348.452 263.65,347.985 269.997,346.507 273.473,345.349 278.968,342.931 282.403,340.988 287.109,337.667 290.04,335.133 294.018,330.944 296.181,328.223 299.493,323.204 300.911,320.668 303.621,314.856 304.475,312.701 306.643,306.131 307.128,304.399 308.817,297.11 309.08,295.762 310.351,287.79 310.487,286.767 311.403,278.147 311.469,277.39 312.091,268.16 312.12,267.619 312.512,257.816 312.523,257.452 312.745,247.112 312.749,246.898 312.864,236.058 312.865,235.971 312.935,224.668 312.935,224.506 312.909,211.607 312.883,198.708 312.857,185.81 312.832,172.911 312.832,172.911 312.806,160.012 312.754,134.214 312.754,134.214 312.728,121.316 312.651,82.6192 312.651,82.6192 312.625,69.7204 312.561,37.788 316.405,37.7633 316.405,37.7633 328.158,37.6878 339.911,37.6122 351.665,37.5366 351.665,37.5366 363.418,37.4611 386.924,37.31 386.924,37.31 410.431,37.1588 422.184,37.0833 433.937,37.0077 433.937,37.0077 445.691,36.9321 457.444,36.8566 461.073,36.8333 " fill="none" stroke-width="0.5" stroke="rgb(0,0,0)" />
</svg>
