<?xml version="1.0" standalone="no" ?>
<!DOCTYPE svg PUBLIC "-//W3C//DTD SVG 1.1//EN" "http://www.w3.org/Graphics/SVG/1.1/DTD/svg11.dtd">
<svg width="500px" height="500px" xmlns="http://www.w3.org/2000/svg" version="1.1" >
	<polygon points="465.023,280.843 464.241,294.78 461.912,309.484 457.96,325.084 452.356,341.252 445.087,357.676 436.147,374.057 425.534,390.105 413.25,405.545 399.294,420.107 383.661,433.536 366.339,445.584 347.303,456.007 326.511,464.566 303.908,471.013 279.424,475.087 252.979,476.511 227.22,475.168 203.251,471.311 181.039,465.19 160.536,457.04 141.703,447.084 124.512,435.541 108.948,422.627 95.0097,408.563 82.7007,393.577 72.0304,377.908 63.009,361.8 55.6451,345.508 49.9429,329.297 45.8998,313.439 43.5016,298.22 42.6905,283.472 42.6905,35.2549 49.9951,35.1988 61.4868,35.1107 72.9785,35.0225 72.9785,35.0225 84.4701,34.9343 95.9618,34.8461 95.9618,34.8461 107.453,34.758 118.945,34.6698 130.437,34.5816 141.929,34.4934 153.42,34.4053 164.912,34.3171 176.404,34.2289 187.895,34.1407 194.926,34.0868 194.907,43.9313 194.881,56.8301 194.856,69.7289 194.856,69.7289 194.83,82.6277 194.779,108.425 194.779,108.425 194.754,121.324 194.703,147.122 194.703,147.122 194.678,160.02 194.652,172.919 194.652,172.919 194.627,185.818 194.601,198.717 194.576,211.616 194.576,211.616 194.55,224.514 194.551,224.668 194.638,235.962 194.639,236.08 194.804,246.897 194.809,247.112 195.106,257.418 195.118,257.747 195.603,267.509 195.633,267.974 196.361,277.158 196.424,277.788 197.451,286.361 197.573,287.192 198.953,295.121 199.179,296.197 200.969,303.447 201.371,304.81 203.625,311.349 204.311,313.022 207.085,318.817 208.196,320.767 211.545,325.784 213.21,327.871 217.19,332.076 219.432,334.036 224.097,337.396 226.74,338.935 232.146,341.416 234.861,342.373 241.064,343.943 243.546,344.364 250.601,344.988 251.947,329.779 252.998,345.013 260.258,344.512 262.754,344.138 269.101,342.66 271.882,341.733 277.377,339.315 280.125,337.761 284.831,334.44 287.176,332.412 291.154,328.224 292.884,326.047 296.197,321.028 297.331,318.999 300.04,313.187 300.724,311.463 302.892,304.894 303.28,303.508 304.969,296.218 305.179,295.14 306.45,287.168 306.559,286.349 307.475,277.73 307.528,277.124 308.15,267.894 308.174,267.461 308.565,257.658 308.574,257.367 308.796,247.027 308.799,246.856 308.914,236.016 308.915,235.946 308.985,224.643 308.985,224.514 308.959,211.615 308.907,185.818 308.882,172.919 308.882,172.919 308.856,160.02 308.804,134.222 308.804,134.222 308.778,121.324 308.701,82.6272 308.701,82.6271 308.675,69.7284 308.603,33.8634 316.379,33.8134 328.133,33.7378 339.886,33.6623 351.639,33.5867 363.392,33.5112 375.146,33.4356 386.899,33.36 410.405,33.2089 422.159,33.1334 433.912,33.0578 457.418,32.9067 465.023,32.8578 " fill="none" stroke-width="0.5" stroke="rgb(0,0,0)" />
</svg>
