<?xml version="1.0" standalone="no" ?>
<!DOCTYPE svg PUBLIC "-//W3C//DTD SVG 1.1//EN" "http://www.w3.org/Graphics/SVG/1.1/DTD/svg11.dtd">
<svg width="500px" height="500px" xmlns="http://www.w3.org/2000/svg" version="1.1" >
	<polygon points="467.573,280.914 466.78,295.051 464.413,309.997 460.405,325.816 454.73,342.188 447.376,358.805 438.334,375.373 427.6,391.605 415.172,407.224 401.049,421.961 385.224,435.556 367.684,447.755 348.404,458.312 327.349,466.979 304.468,473.505 279.702,477.626 252.981,479.065 226.95,477.707 202.708,473.806 180.227,467.611 159.466,459.359 140.393,449.276 122.983,437.586 107.224,424.51 93.1148,410.273 80.6575,395.107 69.86,379.251 60.7306,362.95 53.2761,346.458 47.4999,330.036 43.3994,313.954 40.9625,298.489 40.1405,283.542 40.1405,32.7244 49.9756,32.6489 61.4672,32.5607 72.9589,32.4726 84.4506,32.3844 95.9423,32.2962 95.9423,32.2962 107.434,32.208 118.926,32.1199 130.417,32.0317 141.909,31.9435 153.401,31.8553 164.892,31.7672 176.384,31.679 187.876,31.5908 197.481,31.5171 197.456,43.9363 197.431,56.8351 197.406,69.7339 197.406,69.7339 197.38,82.6327 197.329,108.43 197.329,108.43 197.304,121.329 197.253,147.127 197.253,147.127 197.228,160.025 197.202,172.924 197.202,172.924 197.177,185.823 197.151,198.722 197.126,211.621 197.1,224.519 197.101,224.648 197.188,235.942 197.189,236.042 197.354,246.859 197.357,247.039 197.654,257.345 197.665,257.621 198.15,267.382 198.175,267.772 198.903,276.956 198.956,277.485 199.982,286.057 200.085,286.755 201.465,294.683 201.655,295.586 203.445,302.836 203.782,303.979 206.036,310.518 206.611,311.921 209.385,317.716 210.317,319.352 213.666,324.368 215.062,326.118 219.042,330.323 220.922,331.967 225.587,335.327 227.803,336.617 233.21,339.098 235.486,339.901 241.689,341.471 243.771,341.824 250.826,342.448 251.947,329.779 252.822,342.469 260.083,341.968 262.176,341.654 268.523,340.176 270.855,339.399 276.35,336.981 278.655,335.678 283.36,332.356 285.327,330.656 289.305,326.468 290.756,324.642 294.069,319.623 295.02,317.922 297.729,312.109 298.302,310.664 300.47,304.094 300.796,302.932 302.484,295.643 302.661,294.739 303.932,286.766 304.023,286.08 304.939,277.46 304.983,276.952 305.606,267.722 305.626,267.359 306.017,257.556 306.025,257.312 306.247,246.973 306.249,246.829 306.364,235.989 306.365,235.93 306.435,224.628 306.435,224.519 306.409,211.62 306.357,185.823 306.332,172.924 306.332,172.924 306.306,160.025 306.254,134.227 306.254,134.227 306.228,121.329 306.151,82.6323 306.151,82.6323 306.125,69.7335 306.048,31.3298 316.363,31.2635 316.363,31.2635 328.116,31.1879 339.869,31.1123 351.623,31.0368 363.376,30.9612 375.129,30.8856 386.883,30.8101 410.389,30.659 433.896,30.5078 445.649,30.4323 457.402,30.3567 467.573,30.2913 " fill="none" stroke-width="0.5" stroke="rgb(0,0,0)" />
</svg>
