<?xml version="1.0" standalone="no" ?>
<!DOCTYPE svg PUBLIC "-//W3C//DTD SVG 1.1//EN" "http://www.w3.org/Graphics/SVG/1.1/DTD/svg11.dtd">
<svg width="500px" height="500px" xmlns="http://www.w3.org/2000/svg" version="1.1" >
	<polygon points="480.823,84.0376 475.709,90.2651 473.68,92.1722 472.47,93.0472 473.244,93.3621 475.213,94.4101 476.936,95.5692 478.722,97.0731 480.091,98.5045 480.823,99.4507 480.823,194.08 480.293,194.693 478.714,195.767 478.574,195.824 480.628,198.103 480.823,198.365 480.823,250.601 480.257,251.391 480.372,251.432 480.823,251.663 480.823,281.286 479.971,296.463 479.581,298.927 478.752,299.952 477.875,300.913 476.368,302.377 477.987,305.477 478.394,306.421 477.405,312.666 473.11,329.62 467.07,347.047 459.27,364.67 453.814,374.666 452.516,374.841 452.691,376.724 449.695,382.213 438.331,399.399 425.161,415.952 410.17,431.593 399.123,441.083 398.873,441.005 398.813,441.349 393.345,446.047 374.668,459.037 354.126,470.285 331.702,479.516 319.119,483.105 316.925,481.97 316.661,481.797 316.583,482.466 316.185,483.939 316.183,483.942 307.382,486.452 281.151,490.817 252.993,492.333 225.548,490.902 199.887,486.773 176.007,480.192 153.907,471.407 133.585,460.665 125.019,454.913 124.933,454.366 124.063,454.271 115.039,448.212 98.2672,434.295 83.2685,419.161 70.0408,403.057 58.5824,386.23 48.8916,368.927 40.9666,351.394 34.8057,333.879 32.7931,325.985 34.7781,319.592 35.3959,318.037 36.2348,316.324 34.7689,315.862 30.3539,313.185 29.7733,312.605 27.7694,299.888 26.8905,283.906 26.8905,230.572 26.9326,230.5 26.8905,230.476 26.8905,156.426 27.2788,155.562 29.7053,151.13 30.7782,149.55 29.0157,148.635 27.2217,147.466 26.8905,147.2 26.8905,38.1955 29.5538,36.2452 29.6427,36.184 29.5516,36.1553 27.9158,35.4892 26.8905,34.9708 26.8905,19.5757 38.3822,19.4875 49.8739,19.3993 61.3656,19.3111 72.8572,19.223 84.3489,19.1348 95.8406,19.0466 107.332,18.9584 118.824,18.8703 130.316,18.7821 141.807,18.6939 153.299,18.6057 164.791,18.5175 176.282,18.4294 187.774,18.3412 210.757,18.1648 210.732,31.0636 210.706,43.9624 210.681,56.8612 210.656,69.76 210.63,82.6588 210.619,88.3388 210.195,88.5161 209.285,88.8076 210.541,89.8526 210.616,89.9182 210.579,108.456 210.554,121.355 210.503,147.153 210.478,160.052 210.452,172.95 210.435,181.575 208.801,183.631 207.433,185.063 206.73,185.675 207.052,185.897 208.728,187.314 210.42,189.069 210.401,198.748 210.376,211.647 210.35,224.546 210.438,235.84 210.602,246.657 210.899,256.963 211.384,266.725 211.416,267.129 210.628,268.082 209.826,269.149 211.701,270.729 212.112,275.909 213.138,284.482 214.519,292.41 216.308,299.661 218.563,306.2 221.336,311.994 224.685,317.011 228.665,321.215 233.33,324.575 238.737,327.056 244.939,328.626 251.957,329.247 252.811,329.188 252.925,329.425 253.034,329.261 253.11,329.167 259.171,328.749 265.518,327.271 271.013,324.853 275.719,321.532 279.698,317.343 283.01,312.324 285.72,306.511 287.888,299.942 289.576,292.653 290.848,284.68 291.763,276.06 292.386,266.831 292.778,257.028 293,246.688 293.115,235.848 293.185,224.546 293.159,211.647 293.133,198.748 293.124,193.996 293.684,193.531 293.464,193.129 293.12,192.318 293.107,185.849 293.092,178.196 293.466,177.315 294.113,176.129 294.114,176.128 293.564,175.771 293.086,175.327 293.082,172.95 293.056,160.052 293.004,134.254 292.978,121.355 292.956,110.288 293.855,108.318 293.86,108.31 292.951,107.967 292.901,82.6588 292.875,69.76 292.797,31.0636 292.771,18.1648 304.525,18.0893 316.278,18.0137 328.031,17.9382 339.784,17.8626 351.538,17.787 363.291,17.7115 375.044,17.6359 383.192,17.5835 385.225,19.0755 385.429,18.6234 386.055,17.8953 386.492,17.5623 386.797,17.5604 410.304,17.4092 422.057,17.3337 433.81,17.2581 445.564,17.1826 457.317,17.107 469.07,17.0314 480.823,16.9559 " fill="none" stroke-width="0.5" stroke="rgb(0,0,0)" />
	<polygon points="319.228,422.92 319.549,424.332 319.636,424.751 319.672,424.945 320.101,425.28 320.967,426.016 320.974,426.023 321.221,425.816 321.999,425.224 322.699,424.739 323.216,424.426 322.854,421.809 322.854,421.725 " fill="none" stroke-width="0.5" stroke="rgb(0,0,0)" />
	<polygon points="107.78,168.23 108.931,169.253 108.063,168.038 " fill="none" stroke-width="0.5" stroke="rgb(0,0,0)" />
	<polygon points="423.815,148.412 426.036,149.068 427.844,149.806 427.833,149.622 427.079,149.291 425.155,148.199 424.541,147.762 " fill="none" stroke-width="0.5" stroke="rgb(0,0,0)" />
</svg>
