<?xml version="1.0" standalone="no" ?>
<!DOCTYPE svg PUBLIC "-//W3C//DTD SVG 1.1//EN" "http://www.w3.org/Graphics/SVG/1.1/DTD/svg11.dtd">
<svg width="500px" height="500px" xmlns="http://www.w3.org/2000/svg" version="1.1" >
	<polygon points="474.523,84.5395 472.193,87.3774 471.015,88.4847 463.981,93.5691 462.852,94.219 457.435,96.6303 457.896,96.7626 459.207,97.3052 460.08,97.7879 460.198,97.8737 461.5,96.5525 465.844,95.8792 468.329,96.3897 469.435,96.725 471.531,97.577 472.674,98.1855 474.397,99.3446 474.523,99.4511 474.523,192.299 471.108,192.914 467.774,192.095 467.725,192.075 468.223,192.448 472.592,196.079 473.246,196.707 474.523,198.125 474.523,251.579 472.988,253.72 472.911,253.825 472.005,255.035 472.705,254.887 474.523,254.793 474.523,281.109 473.699,295.792 473.168,299.142 471.746,300.524 470.193,301.349 471.461,303.008 472.039,303.916 472.325,304.465 471.228,311.397 467.069,327.811 461.203,344.736 453.615,361.882 449.503,369.415 447.545,367.974 446.337,365.217 445.253,358.957 443.197,355.711 439.899,353.143 437.414,351.897 441.007,355.888 441.809,357.003 444.857,362.393 445.397,363.65 447.375,370.113 447.623,371.372 447.742,372.642 444.293,378.961 433.228,395.694 420.411,411.802 405.833,427.013 396.811,434.764 396.113,434.238 395.358,433.567 394.076,432.232 394.051,432.202 394.272,433.09 394.439,434.132 394.629,436.639 389.483,441.059 371.347,453.673 351.405,464.592 329.632,473.555 317.634,476.977 315.737,475.436 314.829,474.531 313.104,472.417 312.41,471.371 311.167,469.012 310.703,467.875 309.95,465.352 309.716,464.159 309.464,461.554 309.448,460.534 309.656,457.351 309.523,457.708 307.489,462.413 306.917,463.454 304.151,467.527 302.792,468.972 300.184,470.987 300.748,470.897 301.04,470.858 301.757,470.779 302.23,470.745 303.094,470.715 303.815,470.731 304.686,470.801 305.927,471.027 306.596,471.219 308.052,471.846 308.546,472.137 309.926,473.238 310.271,473.603 311.242,474.95 311.465,475.364 311.969,476.604 312.095,477.043 312.288,477.982 312.345,478.421 312.35,478.484 305.997,480.296 280.462,484.545 252.987,486.024 226.215,484.628 201.228,480.607 178.014,474.21 156.55,465.678 136.822,455.25 129.222,450.146 129.239,449.767 128.725,449.813 118.816,443.159 102.526,429.642 87.9501,414.935 75.0887,399.277 63.9446,382.912 54.5207,366.085 46.8194,349.047 40.8414,332.052 38.5112,322.913 39.1235,320.941 39.4822,320.038 43.5694,311.692 41.6396,312.214 38.1037,312.142 36.1347,311.522 35.9642,311.419 34.0424,299.223 33.1905,283.733 33.1905,229.469 34.0987,228.747 33.1934,228.517 33.1905,228.516 33.1905,154.239 33.6965,153.314 34.3732,152.318 37.9125,148.05 38.7309,147.249 38.2494,147.204 37.0696,146.979 34.5341,146.239 33.3979,145.783 33.1905,145.676 33.1905,109.005 34.4613,108.342 36.4714,107.938 35.5907,107.992 34.8984,107.951 34.0502,107.842 33.4167,107.717 33.1905,107.652 33.1905,39.291 37.0084,36.8273 37.0918,36.7744 40.6975,34.5269 39.3481,34.193 39.3147,34.1846 35.0153,33.0954 34.6693,32.9972 33.1905,32.5313 33.1905,25.8275 38.4306,25.7873 49.9222,25.6991 61.4139,25.6109 72.9056,25.5228 84.3973,25.4346 95.8889,25.3464 107.381,25.2582 118.872,25.1701 130.364,25.0819 141.856,24.9937 153.347,24.9055 155.484,24.8891 155.47,24.9531 155.102,25.772 152.979,28.3456 152.01,29.0272 151.04,29.5879 149.67,30.2243 149.529,30.2874 149.17,30.4437 149.63,30.785 152.231,32.4095 154.229,33.6178 154.082,33.2008 154.363,28.3449 155.416,26.1876 156.516,24.8812 164.839,24.8174 176.331,24.7292 187.822,24.641 204.445,24.5135 204.432,31.0512 204.432,31.0512 204.406,43.95 204.381,56.8488 204.356,69.7476 204.356,69.7476 204.33,82.6464 204.325,85.098 204.32,85.0983 203.24,85.0815 199.259,84.6762 198.497,84.5511 195.556,83.881 198.187,85.7783 198.364,85.9113 203.167,89.6401 203.334,89.7744 204.315,90.5902 204.279,108.444 204.279,108.444 204.254,121.343 204.203,147.14 204.152,172.938 204.134,181.902 202.303,183.498 201.305,184.209 198.836,185.628 197.843,186.07 198.288,186.221 201.051,187.433 202.081,188.006 204.12,189.403 204.101,198.736 204.076,211.634 204.055,222.035 203.643,222.105 204.055,222.417 204.05,224.533 204.051,224.594 204.138,235.889 204.138,235.936 204.303,246.753 204.305,246.839 204.602,257.145 204.607,257.276 205.092,267.038 205.104,267.223 205.159,267.924 204.666,268.846 204.546,269.456 204.669,270.085 205.214,270.969 205.417,271.174 205.832,276.407 205.857,276.658 206.883,285.231 206.932,285.563 208.312,293.491 208.402,293.92 210.192,301.171 210.352,301.714 212.606,308.253 212.88,308.92 215.654,314.715 216.097,315.492 219.446,320.509 220.11,321.341 224.089,325.546 224.983,326.327 229.648,329.687 230.702,330.301 236.109,332.782 237.191,333.164 243.394,334.733 244.384,334.901 250.561,335.448 251.322,338.162 251.5,339.027 251.754,340.922 254.713,335.372 259.605,335.034 260.6,334.885 266.947,333.407 268.055,333.038 273.551,330.62 274.647,330 279.352,326.678 280.287,325.87 284.266,321.681 284.955,320.813 288.268,315.794 288.721,314.986 291.43,309.173 291.702,308.486 293.87,301.916 294.025,301.364 295.714,294.074 295.798,293.645 297.069,285.672 297.112,285.345 298.028,276.726 298.049,276.484 298.672,267.255 298.681,267.082 298.686,266.954 298.881,266.891 300.203,266.616 300.587,266.579 299.91,266.169 299.068,265.56 298.753,265.289 299.073,257.279 299.076,257.163 299.298,246.823 299.299,246.755 299.415,235.915 299.415,235.887 299.485,224.585 299.485,224.533 299.459,211.634 299.433,198.735 299.426,195.255 299.579,195.171 300.32,194.853 299.637,194.17 299.424,193.913 299.407,185.837 299.389,176.578 299.638,176.277 300.481,175.434 301.517,174.579 301.854,174.351 299.966,174.249 299.384,174.002 299.382,172.938 299.382,172.938 299.356,160.039 299.304,134.241 299.304,134.241 299.278,121.343 299.252,108.246 300.48,106.522 301.344,105.542 303.829,103.255 304.945,102.434 308.056,100.638 309.33,100.079 310.656,99.6658 310.636,99.5865 310.548,99.1892 310.417,98.488 310.359,98.1169 310.156,96.5113 310.121,96.2393 309.379,96.8949 309.338,96.9303 306.937,99.0169 306.739,99.1819 304.461,101.002 303.954,101.368 301.968,102.655 300.457,103.37 299.243,103.758 299.201,82.6462 299.201,82.6462 299.175,69.7474 299.097,31.051 299.097,31.051 299.084,24.4244 304.565,24.3892 316.318,24.3136 328.072,24.238 339.825,24.1625 351.578,24.0869 363.331,24.0114 375.085,23.9358 384.078,23.878 385.734,25.0938 386.736,26.0108 387.552,26.9376 387.433,26.6866 387.79,23.8541 410.344,23.7091 422.098,23.6336 433.851,23.558 445.591,23.4825 445.761,23.7861 445.881,23.4806 457.357,23.4069 457.357,23.4069 469.111,23.3313 474.523,23.2965 " fill="none" stroke-width="0.5" stroke="rgb(0,0,0)" />
	<polygon points="189.049,439.641 191.035,444.3 191.34,445.198 192.085,448.09 192.614,448.245 194.103,448.574 195.717,448.833 197.284,448.996 198.595,449.047 200.349,448.951 202.024,448.656 203.537,448.161 204.811,447.485 205.847,446.633 206.706,445.52 207.423,443.947 207.989,441.335 202.79,441.723 201.826,441.722 195.608,441.233 194.542,441.056 189.346,439.728 189.038,439.618 " fill="none" stroke-width="0.5" stroke="rgb(0,0,0)" />
	<polygon points="161.153,431.007 160.592,432.099 157.593,436.757 156.7,437.851 152.505,441.951 151.302,442.873 146.494,445.709 148.413,445.586 152.369,444.739 155.478,443.471 157.824,441.889 159.556,440.025 160.809,437.799 161.618,435.072 161.933,431.527 161.93,431.323 161.913,430.85 161.884,430.348 161.846,429.822 161.806,429.357 " fill="none" stroke-width="0.5" stroke="rgb(0,0,0)" />
	<polygon points="326.896,415.444 325.643,416.015 316.138,419.148 314.806,419.432 312.765,419.64 313.214,420.248 314.033,421.747 314.527,423.045 314.782,423.889 315.112,425.341 315.163,425.585 315.417,426.949 315.567,427.582 315.821,427.763 315.853,427.786 316.761,428.44 317.156,428.749 318.023,429.485 318.727,430.185 319.461,431.04 320.309,432.315 320.579,432.852 321.287,432.04 321.45,431.86 322.169,431.098 322.396,430.869 323.111,430.185 323.429,429.9 324.138,429.308 324.589,428.964 325.29,428.479 325.938,428.086 326.628,427.722 327.552,427.326 328.23,427.097 329.116,426.897 327.989,424.756 327.64,423.515 327.404,421.809 327.404,415.141 " fill="none" stroke-width="0.5" stroke="rgb(0,0,0)" />
	<polygon points="243.845,411.77 243.066,416.746 242.529,418.482 240.323,423.112 239.504,424.401 239.177,424.8 239.717,424.282 242.637,420.321 244.765,416.002 246.107,411.283 245.214,411.154 243.907,410.795 " fill="none" stroke-width="0.5" stroke="rgb(0,0,0)" />
	<polygon points="377.743,417.615 377.742,417.763 377.725,418.486 377.706,418.837 377.706,418.841 379.517,418.352 381.087,418.536 382.414,418.84 384.047,419.404 385.227,419.955 386.838,420.921 387.867,421.69 389.374,423.078 389.836,423.599 389.686,422.434 389.646,421.235 389.676,420.761 389.804,419.829 389.912,419.329 390.001,419.042 388.978,418.933 387.84,418.704 384.28,417.64 383.39,417.298 380.052,415.719 379.329,415.316 377.743,414.292 " fill="none" stroke-width="0.5" stroke="rgb(0,0,0)" />
	<polygon points="164.913,413.626 164.918,414.544 164.597,419.229 164.472,420.12 164.043,422.12 164.591,421.517 167.98,420.589 170.64,421.223 171.806,421.79 171.634,420.7 171.581,419.164 171.613,418.796 171.856,417.536 171.951,417.216 172.54,415.86 172.698,415.59 173.642,414.351 173.859,414.129 175.007,413.204 175.281,413.031 175.437,412.954 173.304,412.072 172.788,411.831 170.152,410.449 169.66,410.162 167.232,408.595 166.738,408.241 164.581,406.532 164.345,406.323 " fill="none" stroke-width="0.5" stroke="rgb(0,0,0)" />
	<polygon points="258.181,398.901 258.237,399.724 258.224,400.749 258.129,401.761 257.897,402.958 257.621,403.889 257.153,405.039 256.713,405.872 256.021,406.917 255.828,407.154 257.431,407.777 257.961,408.012 260.82,409.439 261.229,409.663 264.012,411.319 264.354,411.538 266.971,413.334 267.284,413.563 269.648,415.408 269.966,415.674 271.989,417.479 272.359,417.838 272.697,418.193 272.953,418.143 274.238,417.921 274.501,417.882 275.835,417.709 276.083,417.682 277.466,417.559 277.701,417.542 279.133,417.468 279.353,417.46 280.835,417.436 281.087,417.436 283.218,417.486 283.5,417.499 285.064,417.606 279.562,415.806 278.313,415.24 269.706,410.146 268.642,409.354 261.541,402.798 260.713,401.866 258.086,398.241 " fill="none" stroke-width="0.5" stroke="rgb(0,0,0)" />
	<polygon points="348.924,395.018 348.343,395.988 345.414,400.011 347.705,399.612 348.432,399.529 352.94,399.277 353.519,399.271 357.312,399.408 357.814,399.446 361.284,399.85 361.874,399.948 364.966,400.609 365.688,400.81 367.44,401.409 367.653,398.612 363.061,399.64 360.275,399.633 359.125,399.369 356.984,398.433 355.907,397.698 354.716,396.642 353.737,395.523 353.086,394.633 352.23,393.216 351.845,392.472 351.136,390.842 351.051,390.611 " fill="none" stroke-width="0.5" stroke="rgb(0,0,0)" />
	<polygon points="218.107,387.145 216.887,387.377 207.071,388.248 205.823,388.235 199.682,387.557 200.159,388.2 200.633,388.945 202.471,392.33 202.86,393.198 204.002,396.363 204.309,397.59 204.324,397.691 207.027,393.695 208.479,392.174 212.434,389.225 214.984,388.094 220.669,386.975 222.368,386.875 223.413,386.955 224.143,387.054 225.391,387.299 225.551,387.338 225.475,386.832 225.392,385.812 225.393,385.003 " fill="none" stroke-width="0.5" stroke="rgb(0,0,0)" />
	<polygon points="308.625,393.143 308.154,393.281 304.942,394.09 304.364,394.207 300.656,394.78 300.017,394.845 295.775,395.062 295.013,395.055 291.701,394.823 297.527,396.398 304.33,396.988 307.649,396.85 310.641,396.456 312.167,396.094 310.846,394.256 310.591,393.424 310.535,392.5 " fill="none" stroke-width="0.5" stroke="rgb(0,0,0)" />
	<polygon points="246.543,367.458 245.906,368.518 241.84,373.984 240.938,374.961 240.783,375.097 241.928,375.682 242.813,376.274 243.847,377.139 244.59,377.911 245.05,378.487 245.2,378.48 246.11,378.506 247.356,378.631 248.654,378.902 248.887,378.977 247.727,374.695 247.532,373.609 246.911,366.682 " fill="none" stroke-width="0.5" stroke="rgb(0,0,0)" />
	<polygon points="145.69,371.11 146.743,371.929 152.243,377.237 152.695,377.769 152.508,377.331 151.199,375.305 149.426,373.363 147.113,371.514 144.189,369.793 142.179,368.93 " fill="none" stroke-width="0.5" stroke="rgb(0,0,0)" />
	<polygon points="83.6847,366.052 83.4174,366.093 82.5759,366.204 81.8184,366.258 79.505,366.282 78.2537,366.17 77.6164,366.048 78.2615,366.986 79.3005,369.614 80.4028,376.893 81.1566,375.987 81.8084,375.313 84.3169,373.078 85.1342,372.462 87.6135,370.89 88.7335,370.328 88.8146,370.297 88.7992,370.288 87.7995,369.591 86.3139,368.326 85.4868,367.474 84.2631,365.95 " fill="none" stroke-width="0.5" stroke="rgb(0,0,0)" />
	<polygon points="170.945,371.23 171.676,373.715 172.006,374.556 172.213,374.586 172.514,374.612 172.832,374.621 173.289,374.615 173.806,374.598 174.339,374.573 174.506,374.563 174.369,374.444 173.596,373.639 170.587,369.89 " fill="none" stroke-width="0.5" stroke="rgb(0,0,0)" />
	<polygon points="354.379,363.429 353.224,364.561 355.383,366.811 356.069,370.379 355.75,373.477 356.912,372.927 357.564,372.662 359.133,372.125 359.625,371.978 361.322,371.547 363.068,370.967 362.303,370.663 360.427,369.695 359.365,369.003 357.775,367.722 356.868,366.826 355.587,365.275 354.883,364.222 354.429,363.369 " fill="none" stroke-width="0.5" stroke="rgb(0,0,0)" />
	<polygon points="98.8821,372.922 99.0625,373.234 99.366,372.899 " fill="none" stroke-width="0.5" stroke="rgb(0,0,0)" />
	<polygon points="324.436,365.661 323.72,367.082 323.073,368.109 322.108,369.355 321.283,370.226 323.502,370.174 327.066,369.942 330.91,369.528 331.777,369.391 330.737,369.099 329.565,368.64 326.949,367.298 325.844,366.576 324.504,365.485 " fill="none" stroke-width="0.5" stroke="rgb(0,0,0)" />
	<polygon points="277.494,364.696 275.76,367.771 276.008,367.683 277.373,367.369 277.387,367.279 277.626,366.054 277.859,365.193 278.244,364.087 " fill="none" stroke-width="0.5" stroke="rgb(0,0,0)" />
	<polygon points="295.182,357.033 293.83,357.643 290.057,358.835 290.317,358.931 291.878,359.778 293.746,361.164 293.885,361.269 296.212,363.097 297.799,364.179 297.579,363.416 297.36,362.259 297.216,360.722 297.196,359.836 297.248,358.729 297.291,358.234 297.43,357.144 297.482,356.808 297.677,355.734 297.713,355.556 297.724,355.503 " fill="none" stroke-width="0.5" stroke="rgb(0,0,0)" />
	<polygon points="118.432,353.54 117.483,354.089 116.373,354.608 116.395,356.468 116.287,357.708 115.876,359.898 115.514,361.122 114.698,363.115 114.333,363.797 115.313,363.525 116.432,363.32 120.683,362.936 121.942,362.948 125.779,363.372 125.748,363.356 124.127,362.422 123.166,361.742 122.069,360.799 120.984,359.59 120.317,358.62 119.518,357.002 119.187,355.986 118.898,354.553 118.809,353.472 118.818,353.27 " fill="none" stroke-width="0.5" stroke="rgb(0,0,0)" />
	<polygon points="394.489,340.163 394.3,340.321 393.152,341.244 392.598,341.642 391.577,342.295 389.974,343.026 389.139,343.274 386.567,343.485 386.379,343.462 385.501,343.238 385.594,343.388 386.187,344.621 387.317,347.821 387.636,349.207 387.979,352.222 388.511,351.607 389.228,350.901 393.84,347.037 395.351,346.098 399.357,344.337 399.122,344.111 398.646,343.599 397.369,342.061 397.227,341.882 395.879,340.134 395.331,339.431 " fill="none" stroke-width="0.5" stroke="rgb(0,0,0)" />
	<polygon points="56.8218,335.893 57.6159,342.403 60.9988,347.844 62.8593,349.685 62.8397,347.77 62.9813,346.375 63.4727,344.1 63.8888,342.837 64.8173,340.781 65.4274,339.719 65.896,339.061 65.6768,339.024 62.8065,338.408 61.9566,338.162 59.4879,337.256 58.4206,336.746 56.8502,335.804 " fill="none" stroke-width="0.5" stroke="rgb(0,0,0)" />
	<polygon points="165.498,295.762 164.216,296.439 163.333,296.822 162.062,297.262 160.829,297.554 159.645,297.71 158.296,297.743 157.94,297.713 156.877,297.532 156.47,297.427 155.413,297.048 154.965,296.841 154.759,296.723 157.606,301.096 157.959,301.712 162.017,309.815 162.548,311.337 164.087,318.642 164.198,320.499 163.945,323.339 163.758,324.404 163.008,327.219 162.64,328.237 161.402,330.918 160.835,331.902 159.121,334.339 158.322,335.268 156.141,337.352 155.091,338.163 152.454,339.787 151.189,340.383 150.392,340.656 151.801,341.244 152.64,341.67 155.1,343.161 155.853,343.697 158.202,345.642 158.812,346.219 161.071,348.665 161.526,349.218 161.768,349.548 161.283,345.288 161.246,344.37 161.304,342.586 161.333,342.156 161.512,340.392 161.582,339.897 161.888,338.22 162.032,337.605 162.471,336.082 162.768,335.269 163.346,333.967 163.977,332.863 164.701,331.849 166.044,330.473 166.92,329.816 169.311,328.709 170.345,328.475 170.913,328.441 167.844,323.794 167.227,322.598 164.927,316.664 164.553,315.192 163.738,308.857 163.695,307.717 163.864,304.559 163.936,303.891 164.428,300.844 164.568,300.195 165.363,297.272 165.565,296.655 166.04,295.427 " fill="none" stroke-width="0.5" stroke="rgb(0,0,0)" />
	<polygon points="317.18,341.819 316.141,342.32 315.175,342.692 314.348,342.934 314.808,343.138 315.789,343.682 317.257,344.676 317.356,344.054 317.992,341.317 " fill="none" stroke-width="0.5" stroke="rgb(0,0,0)" />
	<polygon points="416.449,331.874 415.454,332.064 413.667,332.257 413.446,332.277 412.176,332.37 412.262,332.857 412.518,334.278 412.535,334.376 412.759,335.745 412.793,335.982 412.951,337.251 412.991,337.696 413.051,338.825 413.057,339.341 413.047,339.675 413.017,340.134 412.983,340.469 412.884,341.111 412.817,341.433 412.667,341.959 412.689,341.959 418.037,342.414 419.098,342.597 422.701,343.541 420.015,340.49 418.605,337.744 417.364,332.371 417.314,331.636 " fill="none" stroke-width="0.5" stroke="rgb(0,0,0)" />
	<polygon points="126.226,334.002 126.709,336.278 126.846,337.644 126.826,339.882 126.695,341.104 126.66,341.27 128.491,340.381 129.286,340.06 131.465,339.347 132.02,339.203 131.3,338.787 130.259,338.034 128.353,336.332 127.53,335.442 126.075,333.525 " fill="none" stroke-width="0.5" stroke="rgb(0,0,0)" />
	<polygon points="385.99,308.973 384.95,310.444 383.948,312.192 383.062,314.104 382.42,315.862 382.206,316.969 382.002,319.189 381.828,322.148 381.64,325.332 381.627,325.509 381.365,328.514 381.31,328.963 380.906,331.484 380.625,332.586 380.013,334.322 379.027,335.642 379.594,336.047 380.205,336.578 380.258,335.196 380.536,333.461 380.795,332.423 381.528,330.275 381.671,329.896 382.707,327.396 382.73,327.341 383.884,324.63 384.971,321.869 385.856,319.148 386.43,316.564 386.646,313.969 386.622,312.653 386.513,310.913 386.298,309.177 386.203,308.734 " fill="none" stroke-width="0.5" stroke="rgb(0,0,0)" />
	<polygon points="121.581,324.335 120.395,324.891 120.289,324.928 120.853,325.398 122.396,326.953 123.143,327.859 123.785,328.808 123.275,327.073 123.05,325.921 122.831,323.72 122.83,323.583 " fill="none" stroke-width="0.5" stroke="rgb(0,0,0)" />
	<polygon points="321.931,325.49 320.926,326.174 321.389,326.853 322.098,328.233 322.244,328.633 322.492,327.549 322.667,325.549 322.649,325.082 322.595,324.627 " fill="none" stroke-width="0.5" stroke="rgb(0,0,0)" />
	<polygon points="75.6697,307.464 74.1249,311.754 73.184,315.361 72.8704,318.265 72.9017,319.375 73.0325,320.615 73.275,321.759 73.6653,322.893 74.2715,324.109 74.9747,325.159 75.0705,324.904 75.5996,323.822 76.704,322.025 77.4389,321.053 78.8566,319.514 79.7646,318.703 81.4656,317.455 82.4995,316.84 84.4538,315.916 85.5573,315.516 86.1892,315.351 86.0649,315.327 84.3612,314.823 83.2458,314.373 81.6517,313.545 80.6242,312.878 79.1952,311.737 78.2952,310.857 77.0865,309.414 76.3677,308.352 75.7676,307.235 " fill="none" stroke-width="0.5" stroke="rgb(0,0,0)" />
	<polygon points="345.838,305.958 344.857,305.945 344.848,305.944 344.877,306.466 344.776,307.711 344.556,308.923 344.242,310.029 343.662,311.416 343.118,312.374 342.128,313.685 341.339,314.487 340.249,315.349 340.463,315.447 341.384,315.968 346.243,319.28 347.075,319.958 351.092,323.844 351.255,324.031 351.4,323.584 351.975,322.274 352.192,321.828 353.005,320.312 353.111,320.122 353.279,319.834 352.682,319.692 352.414,319.622 350.565,319.097 349.678,318.771 348.37,318.175 345.811,316.042 345.315,315.33 344.191,312 344.758,309.103 344.962,308.659 347.005,306.175 347.453,305.852 " fill="none" stroke-width="0.5" stroke="rgb(0,0,0)" />
	<polygon points="97.9573,313.88 96.6777,314.438 94.9453,314.975 96.1134,315.261 98.1556,315.987 98.7961,316.287 98.6979,316.063 98.36,315.081 98.0424,313.831 " fill="none" stroke-width="0.5" stroke="rgb(0,0,0)" />
	<polygon points="428.163,312.797 428.156,313.001 428.114,313.841 428.762,313.571 430.919,312.916 431.752,312.751 431.567,312.741 430.721,312.682 430.579,312.671 429.676,312.587 429.617,312.581 428.683,312.486 428.17,312.434 " fill="none" stroke-width="0.5" stroke="rgb(0,0,0)" />
	<polygon points="403.356,305.931 404.674,307.912 406.292,309.862 408.113,311.672 410.023,313.247 410.084,313.288 408.514,310.741 406.136,307.588 403.623,305.164 402.71,304.636 " fill="none" stroke-width="0.5" stroke="rgb(0,0,0)" />
	<polygon points="436.763,312.097 436.525,312.191 435.737,312.44 437.156,312.491 437.165,311.893 " fill="none" stroke-width="0.5" stroke="rgb(0,0,0)" />
	<polygon points="130.871,300.348 131.003,301.189 131.528,307.159 131.524,308.316 131.453,309.053 133.889,308.777 134.07,308.794 135.676,309.165 135.826,309.221 137.65,310.281 137.771,310.382 137.856,310.479 135.878,306.375 131.308,298.717 130.023,296.609 " fill="none" stroke-width="0.5" stroke="rgb(0,0,0)" />
	<polygon points="312.761,303.461 311.914,304.143 307.973,306.791 308.338,306.822 310.977,307.164 311.554,307.266 313.957,307.808 314.226,307.885 313.617,306.537 313.124,304.848 312.902,303.326 " fill="none" stroke-width="0.5" stroke="rgb(0,0,0)" />
	<polygon points="109.077,296.613 108.943,297.554 108.373,300.145 108.752,300.287 109.035,300.444 109.682,301.089 109.376,296.626 109.153,295.458 " fill="none" stroke-width="0.5" stroke="rgb(0,0,0)" />
	<polygon points="434.622,292.633 434.344,293.057 433.393,294.388 433.31,294.502 432.245,295.925 432.004,296.255 432.655,296.623 434.568,297.656 434.715,297.738 436.42,298.718 437.012,299.104 437.156,299.21 435.626,294.144 434.928,292.122 " fill="none" stroke-width="0.5" stroke="rgb(0,0,0)" />
	<polygon points="458.8,288.039 457.847,288.479 456.758,289.381 455.469,290.939 454.048,293.136 453.956,293.299 454.665,293.227 456.305,293.275 459.494,293.789 461.219,294.341 461.22,294.314 461.225,294.057 461.227,293.742 461.227,293.531 461.156,292.078 460.956,290.714 460.631,289.46 460.235,288.484 459.886,287.925 459.853,287.891 " fill="none" stroke-width="0.5" stroke="rgb(0,0,0)" />
	<polygon points="87.401,283.432 87.3475,283.537 84.9926,288.071 84.2417,289.521 86.177,290.538 86.6985,290.952 87.3097,291.507 87.8744,292.092 88.3337,292.567 88.3632,292.592 88.7138,292.544 88.7236,292.532 89.1499,291.495 89.614,289.238 89.9332,285.889 90.0876,281.588 90.1133,277.961 " fill="none" stroke-width="0.5" stroke="rgb(0,0,0)" />
	<polygon points="55.0345,276.611 55.2825,277.789 56.0109,279.346 56.2947,279.795 56.7633,280.518 56.8048,280.583 57.2499,281.288 57.379,281.502 57.7705,282.181 57.9797,282.576 58.3055,283.247 58.5588,283.845 58.8065,284.526 59.0364,285.314 59.194,286.023 59.3271,286.931 59.3617,287.404 60.176,285.905 60.8988,282.758 60.8983,282.755 60.8612,282.615 60.8159,282.501 60.7443,282.369 60.6147,282.185 60.3898,281.931 59.832,281.415 59.8173,281.401 57.8953,279.611 57.5221,279.232 56.0081,277.562 55.7755,277.291 55.0366,276.376 " fill="none" stroke-width="0.5" stroke="rgb(0,0,0)" />
	<polygon points="417.265,284.311 417.112,284.341 414.594,284.794 412.179,285.26 410.18,285.747 408.633,286.296 408.311,286.445 410.201,286.324 413.391,285.736 416.348,284.883 418.63,284.03 " fill="none" stroke-width="0.5" stroke="rgb(0,0,0)" />
	<polygon points="156.774,225.845 155.757,227.614 155.081,229.001 155.062,229.06 156.683,231.244 157.073,233.706 157.012,235.133 156.994,235.414 156.835,237.236 156.822,237.368 156.597,239.44 156.59,239.501 156.333,241.677 156.331,241.691 156.076,243.81 155.859,245.69 155.719,247.112 155.68,247.846 155.705,248.637 157.367,249.661 158.755,252.157 159.221,253.781 159.34,254.27 159.705,256.081 159.759,256.385 160.05,258.313 160.074,258.483 160.318,260.461 160.325,260.519 160.546,262.452 160.761,264.206 160.928,265.302 162.125,265.723 164.325,268.544 164.866,269.919 165.429,271.343 166.006,272.716 166.601,273.986 167.202,275.093 167.782,275.974 168.286,276.577 169.078,277.276 169.319,277.484 169.763,277.908 170.033,278.192 170.389,278.6 170.652,278.928 170.968,279.36 171.21,279.723 171.508,280.216 171.719,280.603 172.007,281.207 172.172,281.608 172.435,282.382 172.543,282.787 172.728,283.806 172.767,284.204 172.765,284.261 174.647,282.258 175.314,281.864 175.104,281.721 174.466,281.225 170.351,277.58 169.356,276.461 166.446,272.275 165.477,270.083 164.373,265.258 164.46,262.114 165.601,258.14 166.803,255.862 169.813,252.227 170.697,251.351 174.952,247.9 175.303,247.635 175.83,247.265 175.657,247.366 172.589,249.042 172.417,249.133 169.521,250.601 166.067,251.252 162.802,249.952 160.742,247.105 160.511,243.67 160.751,242.539 160.96,241.459 161.143,240.382 161.299,239.307 161.424,238.234 161.517,237.162 161.574,236.092 161.592,235.116 161.495,233.138 161.196,231.253 160.653,229.356 159.811,227.408 158.594,225.373 157.713,224.251 " fill="none" stroke-width="0.5" stroke="rgb(0,0,0)" />
	<polygon points="427.498,278.535 427.031,279.406 425.27,281.167 425.65,281.011 426.695,280.686 427.936,280.416 429.803,280.294 429.99,280.31 430.307,280.366 428.643,276.854 428.077,275.859 " fill="none" stroke-width="0.5" stroke="rgb(0,0,0)" />
	<polygon points="339.89,273.619 339.015,274.563 338.716,275.743 338.954,275.909 339.547,276.167 340.423,276.399 340.825,276.456 340.779,275.971 340.767,275.832 340.727,275.287 340.714,275.021 340.698,274.532 340.723,273.754 340.747,273.492 340.82,273.1 " fill="none" stroke-width="0.5" stroke="rgb(0,0,0)" />
	<polygon points="138.834,273.063 139.501,274.073 139.525,274.021 139.486,273.799 139.087,272.904 138.114,271.281 136.767,269.214 136.678,269.072 136.259,268.391 " fill="none" stroke-width="0.5" stroke="rgb(0,0,0)" />
	<polygon points="420.97,265.852 420.325,267.328 420.23,267.536 420.07,267.868 420.093,267.874 420.375,267.943 422,268.38 422.872,268.686 423.905,269.135 422.719,267.426 421.091,265.539 " fill="none" stroke-width="0.5" stroke="rgb(0,0,0)" />
	<polygon points="129.182,236 128.815,238.218 128.574,240.358 128.444,242.35 128.414,243.747 129.786,253.584 133.437,263.269 133.91,264.128 133.78,263.869 133.431,263.03 132.561,260.423 132.281,259.17 131.951,256.382 132.528,252.915 133.563,251.82 133.537,251.579 133.164,250.036 132.513,247.928 131.699,245.485 131.684,245.439 130.849,242.865 130.782,242.647 130.053,240.089 129.946,239.655 129.431,237.197 129.32,236.443 129.254,235.681 " fill="none" stroke-width="0.5" stroke="rgb(0,0,0)" />
	<polygon points="362.117,260.197 362.147,260.196 362.621,260.186 362.572,259.326 362.57,259.267 " fill="none" stroke-width="0.5" stroke="rgb(0,0,0)" />
	<polygon points="404.32,255.673 405.282,256.851 405.51,257.148 406.342,258.301 406.812,257.938 408.078,256.92 408.2,256.824 408.605,256.514 407.018,255.905 403.628,254.953 " fill="none" stroke-width="0.5" stroke="rgb(0,0,0)" />
	<polygon points="447.179,253.379 447.181,253.386 448.535,256.75 448.568,256.833 448.79,257.409 450.109,255.07 450.166,254.971 450.622,254.197 447.295,252.351 446.925,252.129 446.585,251.908 " fill="none" stroke-width="0.5" stroke="rgb(0,0,0)" />
	<polygon points="382.246,244.76 381.626,245.923 380.913,246.985 380.088,247.978 379.179,248.871 378.174,249.676 377.121,250.359 376.26,250.802 376.684,251.245 377.803,252.616 378.063,252.958 378.65,253.786 379.086,253.328 379.327,253.088 380.514,251.969 381.213,251.398 382.34,250.606 384.213,249.708 385.252,249.408 387.54,249.183 387.84,249.209 388.473,249.335 385.674,247.363 384.001,245.616 382.716,243.614 " fill="none" stroke-width="0.5" stroke="rgb(0,0,0)" />
	<polygon points="392.684,251.77 392.853,251.98 393.619,253.23 393.694,253.183 395.054,252.55 395.194,252.505 392.211,251.333 " fill="none" stroke-width="0.5" stroke="rgb(0,0,0)" />
	<polygon points="359.146,247.077 358.147,247.752 356.697,248.54 358.189,248.664 361.471,249.921 363.21,252.257 363.534,251.47 363.688,251.181 364.195,250.519 363.811,250.313 362.806,249.645 361.817,248.841 360.952,247.986 360.125,246.993 359.81,246.53 " fill="none" stroke-width="0.5" stroke="rgb(0,0,0)" />
	<polygon points="313.33,224.543 312.201,225.026 310.343,225.614 309.092,225.874 308.028,225.984 308.641,227.882 309.849,229.24 312.2,230.639 315.723,232.169 315.955,232.275 319.755,234.112 320.886,234.816 324.151,237.361 325.682,239.092 327.967,242.907 328.395,244.097 329.271,243.55 330.345,243.014 331.513,242.563 332.482,242.277 333.001,242.168 332.865,241.966 331.751,239.918 331.27,238.782 330.566,236.521 330.313,235.283 330.224,234.407 330.162,234.426 328.926,234.678 327.52,234.821 326.246,234.82 324.851,234.678 323.608,234.422 322.305,234.014 321.17,233.532 319.988,232.887 318.99,232.212 317.958,231.358 317.114,230.513 316.261,229.479 315.586,228.481 314.941,227.295 314.46,226.16 314.051,224.85 313.922,224.219 " fill="none" stroke-width="0.5" stroke="rgb(0,0,0)" />
	<polygon points="190.39,231.079 189.043,234.473 188.379,235.718 186.343,238.679 185.624,239.547 183.096,242.095 184.708,240.923 188.196,237.792 190.089,235.117 190.741,232.358 190.68,231.825 190.539,231.002 190.479,230.735 " fill="none" stroke-width="0.5" stroke="rgb(0,0,0)" />
	<polygon points="464.61,216.895 464.572,217.333 464.236,220.114 464.2,220.364 463.724,223.305 463.704,223.425 463.158,226.426 463.155,226.441 462.618,229.355 462.17,232.011 461.878,234.245 461.788,235.83 461.86,236.768 461.891,236.905 462.763,235.655 464.148,233.119 465.282,230.327 466.022,227.476 466.274,224.769 465.721,219.807 464.616,216.784 " fill="none" stroke-width="0.5" stroke="rgb(0,0,0)" />
	<polygon points="104.326,236.173 104.449,236.021 104.344,235.981 " fill="none" stroke-width="0.5" stroke="rgb(0,0,0)" />
	<polygon points="379.521,228.041 378.404,228.963 379.161,229.564 379.628,230.013 379.701,229.407 380.021,227.541 " fill="none" stroke-width="0.5" stroke="rgb(0,0,0)" />
	<polygon points="47.322,227.201 45.3962,227.909 46.0574,228.437 46.3403,228.731 46.8254,229.372 47.4931,227.128 " fill="none" stroke-width="0.5" stroke="rgb(0,0,0)" />
	<polygon points="132.254,227.425 131.434,229.02 132.239,228.178 132.429,228.125 132.45,227.87 132.476,227.606 132.694,225.819 " fill="none" stroke-width="0.5" stroke="rgb(0,0,0)" />
	<polygon points="133.512,218.362 130.099,219.443 132.163,221.495 132.864,224.592 133.288,222.217 133.381,221.785 134.038,219.172 134.198,218.639 134.351,218.199 " fill="none" stroke-width="0.5" stroke="rgb(0,0,0)" />
	<polygon points="84.8682,213.693 85.4215,214.127 86.4622,215.16 86.925,215.742 87.5901,216.768 87.9464,217.456 88.3381,218.39 88.5899,219.158 88.8016,219.992 88.9512,220.814 89.0424,221.576 89.0918,222.424 89.0577,223.54 88.9832,224.161 89.4128,223.81 90.6081,223.04 91.3449,222.675 93.0943,222.11 93.8233,221.987 95.7445,221.962 96.3882,222.053 98.0793,222.539 98.691,222.812 100.096,223.676 100.659,224.134 101.002,224.486 101.297,220.52 101.436,219.59 102.277,215.889 102.545,215.013 103.1,213.578 102.277,213.876 100.821,214.215 97.8231,214.545 96.4348,214.544 93.2455,214.188 91.8325,213.862 88.9683,212.843 87.6792,212.21 86.6169,211.529 " fill="none" stroke-width="0.5" stroke="rgb(0,0,0)" />
	<polygon points="442.687,210.304 442.342,210.428 438.033,211.839 437.545,211.977 432.424,213.208 431.853,213.317 425.831,214.188 425.226,214.245 422.455,214.376 425.797,216.001 427.065,216.818 430.758,219.882 431.738,220.902 433.987,223.84 435.159,221.114 435.762,220.023 438.285,216.369 438.883,215.628 441.868,212.46 442.426,211.935 445.557,209.332 446.002,209.001 " fill="none" stroke-width="0.5" stroke="rgb(0,0,0)" />
	<polygon points="64.1018,216.107 63.4841,216.618 65.0381,217.643 65.555,218.111 66.6209,219.365 67.0206,219.985 67.5961,221.11 67.889,221.86 68.1107,222.581 68.2953,222.127 68.7008,221.306 71.3654,216.772 71.6504,216.476 70.5895,216.294 68.5178,215.752 67.4351,215.36 65.5647,214.481 65.451,214.414 " fill="none" stroke-width="0.5" stroke="rgb(0,0,0)" />
	<polygon points="187.812,213.463 188.667,214.744 189.876,217.144 190.365,218.466 190.533,219.145 192.63,217.692 195.429,217.578 194.965,215.898 194.388,214.8 193.639,213.936 192.56,213.149 190.975,212.418 188.783,211.812 186.052,211.422 " fill="none" stroke-width="0.5" stroke="rgb(0,0,0)" />
	<polygon points="337.392,213.472 337.538,213.649 338.215,214.648 338.863,215.835 339.12,216.44 339.671,216.14 339.142,215.499 338.466,214.499 337.819,213.311 337.796,213.255 " fill="none" stroke-width="0.5" stroke="rgb(0,0,0)" />
	<polygon points="402.202,212.612 402.514,212.376 401.811,212.072 " fill="none" stroke-width="0.5" stroke="rgb(0,0,0)" />
	<polygon points="381.071,200.083 380.588,201.218 379.906,202.466 379.232,203.461 378.33,204.55 377.634,205.246 378.303,205.696 379.518,206.698 380.37,207.549 381.372,208.763 381.502,208.955 382.11,206.628 384.681,204.232 386.868,203.824 382.836,200.536 381.79,199.451 381.422,198.964 " fill="none" stroke-width="0.5" stroke="rgb(0,0,0)" />
	<polygon points="57.421,203.464 55.6408,204.909 55.1179,205.291 53.7076,206.214 53.9637,206.162 56.2345,205.669 57.9575,205.277 57.6226,204.218 57.4605,203.428 " fill="none" stroke-width="0.5" stroke="rgb(0,0,0)" />
	<polygon points="180.677,185.725 180.716,185.717 180.665,185.692 " fill="none" stroke-width="0.5" stroke="rgb(0,0,0)" />
	<polygon points="456.734,185.205 457.016,185.371 456.656,185.093 " fill="none" stroke-width="0.5" stroke="rgb(0,0,0)" />
	<polygon points="366.372,168.747 365.388,169.557 364.384,170.233 363.429,170.751 363.891,171.432 364.93,173.33 365.414,174.465 366.072,176.558 366.329,177.804 366.559,180.044 366.559,181.332 366.503,181.869 367.642,181.751 368.93,181.751 370.403,181.901 371.007,182.025 370.822,181.648 370.469,180.76 367.703,171.912 367.515,171.148 366.975,168.145 " fill="none" stroke-width="0.5" stroke="rgb(0,0,0)" />
	<polygon points="146.223,174.543 145.388,174.764 142.179,175.382 142.375,175.518 143.128,176.134 146.522,179.379 147.024,179.92 147.717,180.758 147.935,179.374 148.158,178.433 149.117,175.437 149.836,173.922 150.342,173.144 " fill="none" stroke-width="0.5" stroke="rgb(0,0,0)" />
	<polygon points="108.835,161.159 107.98,162.196 107.136,163.041 106.101,163.897 105.103,164.572 103.917,165.219 102.781,165.701 101.473,166.111 100.23,166.365 98.8288,166.508 97.5544,166.509 96.1534,166.366 96.5427,166.538 99.9182,168.277 100.573,168.666 103.834,170.881 104.481,171.384 107.479,174.051 108.124,174.715 110.712,177.808 111.328,178.685 112.253,180.276 112.489,179.519 112.968,178.388 114.01,176.469 114.895,175.228 116.281,173.711 117.576,172.628 118.653,171.951 117.823,171.476 116.701,170.658 113.807,168.014 112.931,167.025 110.709,163.914 110.1,162.859 109.13,160.724 " fill="none" stroke-width="0.5" stroke="rgb(0,0,0)" />
	<polygon points="309.444,170.253 308.617,171.54 308.212,172.028 308.783,171.97 310.058,171.97 311.465,172.113 312.703,172.366 313.561,172.633 313.909,171.511 314.359,170.445 312.51,170.068 312.078,169.964 310.23,169.45 309.884,169.343 " fill="none" stroke-width="0.5" stroke="rgb(0,0,0)" />
	<polygon points="336.219,168.051 336.374,168.239 336.583,168.548 337.19,167.941 337.902,167.353 " fill="none" stroke-width="0.5" stroke="rgb(0,0,0)" />
	<polygon points="160.654,167.31 162.116,167.328 163.843,167.666 164.793,167.985 163.628,164.918 " fill="none" stroke-width="0.5" stroke="rgb(0,0,0)" />
	<polygon points="90.2441,164.979 92.0319,164.99 91.2712,164.576 90.5839,164.112 " fill="none" stroke-width="0.5" stroke="rgb(0,0,0)" />
	<polygon points="344.309,163.116 343.265,163.983 342.299,164.624 342.875,164.379 344.968,163.722 345.513,163.609 345.137,162.401 345.114,162.284 " fill="none" stroke-width="0.5" stroke="rgb(0,0,0)" />
	<polygon points="422.866,142.805 421.701,144.198 418.96,146.65 417.875,147.43 414.26,149.487 413.361,149.908 411.093,150.761 417.106,151.302 418.327,151.535 424.746,153.432 425.91,153.906 431.595,156.917 432.521,157.517 435.938,160.182 434.648,157.737 434.163,156.532 432.317,150.095 432.329,146.58 432.427,146.427 431.523,146.19 430.589,145.864 428.91,145.126 427.793,144.492 426.433,143.524 425.255,142.436 424.246,141.231 424.04,140.898 " fill="none" stroke-width="0.5" stroke="rgb(0,0,0)" />
	<polygon points="354.588,136.504 354.629,136.964 354.685,138.084 354.665,138.997 354.039,145.598 353.779,146.875 354.461,146.664 355.695,146.413 357.036,146.278 358.298,146.278 359.638,146.413 360.872,146.664 362.12,147.051 363.257,147.53 364.387,148.143 365.391,148.82 366.375,149.632 366.983,150.239 367.638,149.44 367.696,149.386 369.148,148.399 365.338,146.166 364.375,145.472 359.039,140.803 358.277,140.009 354.429,135.223 " fill="none" stroke-width="0.5" stroke="rgb(0,0,0)" />
	<polygon points="130.467,134.497 129.823,134.847 129.276,135.193 128.923,135.454 128.566,135.77 125.39,137.275 125.006,137.227 125.512,138.301 125.98,139.701 126.458,141.995 126.507,142.256 126.903,144.662 127.275,146.215 127.379,146.121 127.87,145.519 128.409,144.63 128.986,143.311 129.29,142.387 129.608,141.285 129.879,140.191 130.103,139.116 130.277,138.072 130.4,137.071 130.473,136.127 130.496,135.261 130.473,134.495 " fill="none" stroke-width="0.5" stroke="rgb(0,0,0)" />
	<polygon points="102.208,139.564 102.004,140.558 102.78,140.8 103.916,141.282 105.102,141.928 106.099,142.603 107.134,143.458 107.348,143.672 107.351,143.656 107.46,143.147 107.918,141.382 108.142,140.686 108.187,140.571 107.806,140.672 105.024,139.948 102.387,138.559 102.317,138.487 " fill="none" stroke-width="0.5" stroke="rgb(0,0,0)" />
	<polygon points="327.06,140.496 327.065,141.829 326.988,142.578 328.734,142.146 327.052,140.428 " fill="none" stroke-width="0.5" stroke="rgb(0,0,0)" />
	<polygon points="314.942,123.727 313.487,124.119 312.21,124.714 311.107,125.474 310.194,126.35 309.497,127.273 309.037,128.149 308.62,129.467 307.101,131.74 307.49,131.998 308.563,132.572 309.571,132.98 310.565,133.257 311.606,133.424 312.81,133.484 313.145,133.474 313.649,133.435 314.245,133.37 314.905,133.285 315.59,133.192 315.642,133.185 316.296,133.102 316.463,133.084 317.052,133.025 317.4,133 317.907,132.978 318.542,132.982 318.62,132.986 318.367,132.771 318.066,132.471 317.425,131.725 317.183,131.395 316.677,130.579 316.493,130.224 316.129,129.377 316,129.003 315.773,128.161 315.697,127.775 315.591,126.958 315.567,126.566 315.588,125.516 315.665,124.773 315.884,123.659 315.888,123.644 " fill="none" stroke-width="0.5" stroke="rgb(0,0,0)" />
	<polygon points="118.156,131.947 117.685,132.805 118.623,132.891 118.246,131.742 " fill="none" stroke-width="0.5" stroke="rgb(0,0,0)" />
	<polygon points="94.09,112.071 93.9846,112.171 91.808,114.192 91.3929,114.545 89.1297,116.308 88.2228,116.897 85.8847,118.144 84.1376,118.766 81.7363,119.239 79.849,119.322 79.7741,119.314 79.817,119.693 80.0057,123.008 80.0144,123.506 79.9826,124.933 79.9707,125.205 79.8796,126.594 79.8573,126.852 79.7182,128.151 80.1376,127.731 81.1723,126.874 82.1707,126.197 83.3568,125.55 84.4937,125.067 85.8026,124.657 87.046,124.402 88.4491,124.259 89.7256,124.259 91.1307,124.402 92.3725,124.657 93.6833,125.066 94.8192,125.548 96.0071,126.196 96.4463,126.493 96.2296,125.531 96.1311,124.982 95.3374,119.047 95.3207,118.911 94.6712,113.092 94.4644,111.707 " fill="none" stroke-width="0.5" stroke="rgb(0,0,0)" />
	<polygon points="184.432,107.639 184.486,108.81 184.443,109.701 184.372,110.397 184.24,111.223 184.037,112.09 183.807,112.834 183.376,113.883 183.039,114.529 182.253,115.697 181.803,116.228 180.601,117.319 180.028,117.718 178.547,118.481 177.842,118.733 176.373,119.066 175.529,119.153 173.247,118.972 172.344,118.73 173.377,120.435 173.868,121.437 175.555,125.818 175.837,126.764 175.986,127.463 176.747,126.787 177.337,126.322 180.337,124.235 181.108,123.777 184.228,122.211 185.213,121.816 188.434,120.831 189.628,120.59 192.932,120.248 194.279,120.253 195.693,120.411 193.624,118.37 193.241,117.956 188.997,112.944 188.791,112.688 184.315,106.804 " fill="none" stroke-width="0.5" stroke="rgb(0,0,0)" />
	<polygon points="424.539,124.413 424.711,124.993 425.001,126.175 425.664,125.457 426.284,124.911 426.188,124.845 425.194,123.999 424.286,123.048 423.878,122.521 " fill="none" stroke-width="0.5" stroke="rgb(0,0,0)" />
	<polygon points="123.973,112.091 122.389,118.43 122.36,118.539 121.238,122.711 123.19,119.499 123.776,118.689 126.559,115.418 127.283,114.695 128.758,113.445 128.176,113.004 127.353,112.259 125.851,110.636 125.574,110.316 124.748,109.293 " fill="none" stroke-width="0.5" stroke="rgb(0,0,0)" />
	<polygon points="378.996,99.7899 377.96,100.42 371.158,103.701 372.347,103.338 376.475,101.573 376.878,101.369 377.236,101.201 377.822,100.948 378.19,100.803 378.772,100.594 379.148,100.472 379.725,100.305 380.107,100.208 380.676,100.081 381.063,100.007 381.621,99.9192 382.012,99.8699 382.558,99.8183 382.952,99.7935 383.484,99.7767 384.634,99.8457 386.599,100.146 388.719,100.872 390.136,101.664 391.671,102.866 392.715,103.984 393.37,104.816 394.215,106.098 394.262,106.17 394.57,106.651 395.573,106.414 396.985,105.952 398.617,105.337 400.331,104.673 400.492,104.614 402.143,104.026 402.593,103.884 404.113,103.468 405.043,103.287 406.39,103.13 409.22,103.446 411.262,104.167 413.423,105.465 415.566,107.431 416.396,108.359 418.525,111.275 418.934,111.912 420.859,115.349 420.707,114.622 420.704,114.608 420.43,113.288 420.183,112.333 419.993,111.83 419.971,111.792 419.555,111.371 417.88,108.282 418.121,104.776 419.351,103.103 416.327,103.073 416.204,103.07 412.872,102.972 412.752,102.967 409.382,102.804 409.264,102.797 405.867,102.568 405.75,102.559 402.334,102.265 402.217,102.253 398.792,101.894 398.674,101.881 395.248,101.456 395.129,101.44 391.711,100.95 391.625,100.937 391.15,100.863 390.623,100.756 390.237,100.662 389.442,100.409 389.138,100.289 388.039,99.7281 387.808,99.5802 386.562,98.5298 386.396,98.3492 385.402,96.8995 385.294,96.6819 384.843,95.416 " fill="none" stroke-width="0.5" stroke="rgb(0,0,0)" />
	<polygon points="348.847,107.775 349.076,108.473 349.172,108.856 349.598,108.427 349.775,108.27 350.192,107.93 350.381,107.79 350.601,107.633 350.794,107.502 351.695,107.052 348.396,106.805 " fill="none" stroke-width="0.5" stroke="rgb(0,0,0)" />
	<polygon points="41.1355,107.156 38.0856,107.719 40.8055,108.765 41.1007,107.756 41.3666,107.09 " fill="none" stroke-width="0.5" stroke="rgb(0,0,0)" />
	<polygon points="145.3,101.866 144.723,105.089 144.613,105.589 144.463,106.156 145.298,106.031 149.427,105.729 150.596,105.752 153.043,106.029 149.971,103.403 146.1,100.29 145.645,99.9906 " fill="none" stroke-width="0.5" stroke="rgb(0,0,0)" />
	<polygon points="70.2869,92.7796 65.2608,95.4249 63.1216,96.6051 64.7106,97.0701 68.093,98.6299 69.571,99.5814 70.1274,100.062 70.221,99.2463 70.2324,99.1525 70.5204,96.9371 70.5216,96.9281 70.8045,94.7765 71.0403,92.7917 71.0726,92.4297 " fill="none" stroke-width="0.5" stroke="rgb(0,0,0)" />
	<polygon points="327.174,99.1213 327.474,99.1828 327.229,99.0416 " fill="none" stroke-width="0.5" stroke="rgb(0,0,0)" />
	<polygon points="396.578,79.1111 396.047,80.3383 394.216,83.5782 395.041,82.9558 396.032,81.8271 396.647,80.5419 396.964,78.3127 396.95,77.9175 " fill="none" stroke-width="0.5" stroke="rgb(0,0,0)" />
	<polygon points="173.558,77.5572 173.626,77.4853 173.988,77.1725 173.303,76.9547 " fill="none" stroke-width="0.5" stroke="rgb(0,0,0)" />
	<polygon points="126.578,60.5897 125.832,63.6874 125.1,67.1614 125.014,67.5186 124.167,70.6257 123.675,71.8809 123.454,72.3056 123.665,72.3808 126.105,73.9612 126.906,74.799 126.996,73.8101 127.073,73.2457 127.245,72.3073 127.487,71.3869 127.748,70.6289 128.441,69.2204 128.81,68.6589 130.448,66.9697 130.944,66.6209 131.351,66.449 130.76,65.6991 130.591,65.4746 128.86,63.0649 127.218,60.8904 126.684,60.3069 " fill="none" stroke-width="0.5" stroke="rgb(0,0,0)" />
	<polygon points="106.039,59.12 104.578,60.125 102.826,61.5524 100.972,63.139 100.816,63.269 99.0343,64.6969 98.4301,65.1254 96.8122,66.1354 95.9067,66.5297 96.199,67.2716 96.3884,67.9308 96.572,68.7936 96.6797,69.5602 96.7361,70.1899 96.7702,71.0598 96.762,71.7115 96.6765,73.0391 98.3624,71.5213 100.514,70.2508 102.572,69.5373 106.082,69.358 106.968,69.7715 106.904,69.4405 106.64,66.2787 106.623,66.015 106.48,62.5609 106.199,59.6364 106.057,59.1111 " fill="none" stroke-width="0.5" stroke="rgb(0,0,0)" />
	<polygon points="400.282,59.203 400.278,60.3773 400.172,61.4792 401.05,61.1416 401.304,61.0698 402.435,60.859 402.698,60.8346 405.582,61.2428 406.691,61.6782 408.422,62.7014 409.8,63.8492 410.16,64.1734 411.79,65.7578 413.554,67.4139 415.359,68.8633 417.177,69.967 418.984,70.6469 421.158,70.9213 421.422,70.9089 422.058,70.8123 422.62,70.6478 422.992,70.4637 423.176,70.3144 423.314,70.1237 423.514,69.5804 423.582,68.9311 423.114,67.3768 421.406,65.6131 417.765,63.4589 412.939,61.4598 407.773,59.7468 403.086,58.3067 402.79,58.2077 400.104,57.2343 " fill="none" stroke-width="0.5" stroke="rgb(0,0,0)" />
	<polygon points="162.524,47.099 162.39,47.4413 161.537,48.9651 161.33,49.2378 161.151,49.4192 164.266,50.4782 164.439,50.5398 167.97,51.8564 167.975,51.8581 169.836,52.5534 166.226,48.913 162.893,45.6015 " fill="none" stroke-width="0.5" stroke="rgb(0,0,0)" />
	<polygon points="144.814,51.788 144.952,52.107 145.667,51.1488 146.194,50.5934 146.222,50.5706 145.59,50.4023 144.187,50.0769 144.162,50.0727 " fill="none" stroke-width="0.5" stroke="rgb(0,0,0)" />
	<polygon points="88.713,48.3366 88.6212,48.3521 89.0144,49.6767 90.0867,48.331 90.2877,48.0739 " fill="none" stroke-width="0.5" stroke="rgb(0,0,0)" />
	<polygon points="445.046,42.1716 444.577,43.8986 444.273,45.5985 444.163,47.3528 444.199,47.9015 444.253,48.1528 444.473,48.1715 444.72,47.4515 444.973,46.1648 445.134,44.5152 445.186,42.6155 445.17,41.7983 " fill="none" stroke-width="0.5" stroke="rgb(0,0,0)" />
	<polygon points="392.587,32.8907 396.359,39.7733 396.875,41.013 397.711,43.8377 398.2,43.4409 400.195,42.4396 400.965,42.1151 403.937,41.0886 404.349,40.9618 408.01,39.9717 408.304,39.8998 411.057,39.2952 407.023,37.1636 402.649,35.5056 398.628,34.3619 395.248,33.5161 394.778,33.3787 392.483,32.6105 392.31,32.4954 " fill="none" stroke-width="0.5" stroke="rgb(0,0,0)" />
	<polygon points="69.7935,40.0142 69.7839,40.0201 67.8858,41.2032 70.8321,41.5105 71.4432,41.569 72.0106,38.6267 " fill="none" stroke-width="0.5" stroke="rgb(0,0,0)" />
	<polygon points="81.7125,28.2401 80.9085,30.4027 79.7877,32.1671 80.7514,31.7718 80.9541,31.6927 84.104,30.5261 86.0169,29.7502 85.2937,29.4346 84.3641,28.9334 82.06,26.6094 " fill="none" stroke-width="0.5" stroke="rgb(0,0,0)" />
</svg>
