<?xml version="1.0" standalone="no" ?>
<!DOCTYPE svg PUBLIC "-//W3C//DTD SVG 1.1//EN" "http://www.w3.org/Graphics/SVG/1.1/DTD/svg11.dtd">
<svg width="500px" height="500px" xmlns="http://www.w3.org/2000/svg" version="1.1" >
	<polygon points="474.173,85.5171 472.463,87.5995 471.22,88.7684 464.186,93.8527 462.995,94.5387 458.387,96.5895 459.376,96.9989 460.138,97.4201 461.069,96.4008 465.914,95.5364 468.4,96.0469 469.567,96.4007 471.662,97.2528 472.869,97.8951 474.173,98.7724 474.173,193.022 472.926,193.439 471.025,193.254 469.201,192.806 472.816,195.81 473.506,196.473 474.173,197.214 474.173,252.667 473.273,253.924 473.191,254.035 472.816,254.535 474.173,254.465 474.173,281.099 473.351,295.754 472.658,300.126 471.99,300.775 470.72,301.462 471.739,302.796 472.137,303.42 470.884,311.327 466.733,327.711 460.877,344.608 453.3,361.727 449.054,369.507 447.457,368.423 446.776,366.961 447.709,370.01 447.972,371.34 447.984,371.468 443.993,378.78 432.945,395.488 420.148,411.571 405.593,426.759 396.253,434.782 395.903,434.518 395.105,433.81 394.667,433.353 394.788,434.105 394.926,435.922 389.269,440.781 371.163,453.375 351.254,464.276 329.517,473.224 316.892,476.825 315.516,475.708 314.558,474.752 312.832,472.639 312.101,471.534 310.857,469.175 310.367,467.975 309.614,465.452 309.368,464.193 309.115,461.588 309.098,460.511 309.171,459.405 307.81,462.552 307.207,463.651 304.44,467.723 303.006,469.249 301.435,470.462 301.718,470.431 302.218,470.395 303.082,470.365 303.843,470.382 304.714,470.452 306.024,470.69 306.693,470.883 308.23,471.545 308.724,471.836 310.18,472.997 310.525,473.362 311.551,474.785 311.773,475.199 312.305,476.508 312.431,476.947 312.635,477.937 312.648,478.035 305.92,479.954 280.424,484.196 252.987,485.674 226.252,484.28 201.303,480.265 178.125,473.878 156.697,465.36 137.002,454.949 119.026,442.879 102.763,429.384 88.2102,414.7 75.3692,399.067 64.2425,382.727 54.8334,365.927 47.1446,348.917 41.1768,331.95 38.5443,321.626 38.7892,320.837 39.1679,319.884 42.9155,312.231 41.731,312.552 37.9987,312.476 36.4061,311.975 34.3909,299.186 33.5405,283.723 33.5405,152.924 34.1037,152.095 37.6431,147.826 37.9707,147.506 36.9715,147.315 34.436,146.575 33.5405,146.216 33.5405,108.427 33.9998,108.188 33.9822,108.186 33.5405,108.098 33.5405,38.6486 36.8186,36.5332 36.9066,36.4774 39.8098,34.6678 39.2641,34.5327 39.2287,34.5239 34.9293,33.4347 34.5642,33.331 33.5405,33.0085 33.5405,26.1748 38.4332,26.1373 49.9249,26.0491 61.4166,25.9609 72.9083,25.8728 84.3999,25.7846 95.8916,25.6964 95.8916,25.6964 107.383,25.6082 118.875,25.5201 130.367,25.4319 153.35,25.2555 155.726,25.2373 155.672,25.3568 155.773,25.2369 164.842,25.1674 176.333,25.0792 187.825,24.991 204.094,24.8662 204.082,31.0505 204.082,31.0505 204.056,43.9493 204.031,56.8481 204.006,69.7469 204.006,69.7469 203.98,82.6457 203.975,85.4417 203.205,85.4297 199.223,85.0244 198.419,84.8923 197.158,84.605 198.391,85.4945 198.579,85.6348 203.382,89.3636 203.558,89.5054 203.966,89.8447 203.929,108.443 203.929,108.443 203.904,121.342 203.853,147.14 203.853,147.14 203.828,160.038 203.802,172.937 203.802,172.937 203.783,182.672 202.533,183.762 201.479,184.513 199.01,185.932 198.757,186.045 201.191,187.112 202.279,187.717 203.771,188.739 203.751,198.735 203.726,211.634 203.7,224.532 203.701,224.597 203.788,235.891 203.788,235.941 203.953,246.758 203.955,246.849 204.252,257.155 204.257,257.293 204.742,267.055 204.755,267.251 204.922,269.36 204.903,269.456 204.948,269.686 205.483,276.435 205.509,276.7 206.536,285.273 206.587,285.623 207.967,293.551 208.063,294.004 209.852,301.254 210.021,301.828 212.276,308.367 212.564,309.071 215.338,314.866 215.806,315.687 219.155,320.703 219.856,321.582 223.835,325.786 224.779,326.611 229.444,329.971 230.556,330.619 235.963,333.1 237.105,333.503 243.308,335.072 244.353,335.25 251.035,335.841 251.659,338.068 251.847,338.98 251.956,339.798 254.107,335.764 259.629,335.383 260.679,335.226 267.026,333.748 268.196,333.358 273.692,330.94 274.848,330.286 279.554,326.964 280.541,326.111 284.519,321.923 285.248,321.006 288.56,315.987 289.038,315.133 291.747,309.321 292.035,308.595 294.203,302.026 294.366,301.443 296.055,294.153 296.143,293.7 297.415,285.727 297.46,285.382 298.376,276.763 298.398,276.508 299.021,267.278 299.031,267.096 299.055,266.5 299.611,266.384 299.075,265.995 299.422,257.293 299.426,257.17 299.648,246.831 299.65,246.759 299.765,235.919 299.765,235.89 299.835,224.587 299.835,224.532 299.809,211.633 299.783,198.735 299.757,185.836 299.737,175.685 300.258,175.164 300.906,174.629 299.828,174.571 299.735,174.531 299.732,172.937 299.732,172.937 299.706,160.038 299.654,134.241 299.654,134.241 299.628,121.342 299.6,107.155 300.195,106.319 301.107,105.285 303.592,102.997 304.77,102.131 307.881,100.335 309.226,99.7454 310.243,99.4282 310.204,99.2537 310.073,98.5524 310.011,98.1607 309.857,96.9392 309.611,97.1571 309.568,97.1946 307.166,99.2811 306.957,99.4552 304.68,101.275 304.145,101.661 302.158,102.949 300.563,103.704 299.593,104.013 299.551,82.6455 299.551,82.6455 299.525,69.7467 299.447,31.0503 299.447,31.0503 299.435,24.7721 304.567,24.7391 316.321,24.6636 328.074,24.588 339.827,24.5125 351.58,24.4369 363.334,24.3613 375.087,24.2858 385.137,24.2212 385.941,24.8117 386.999,25.7796 387.191,25.9978 387.375,24.2068 410.347,24.0591 422.1,23.9835 433.853,23.908 445.606,23.8324 457.36,23.7569 469.113,23.6813 474.173,23.6488 " fill="none" stroke-width="0.5" stroke="rgb(0,0,0)" />
	<polygon points="191.357,444.162 191.679,445.11 192.375,447.81 192.701,447.906 194.168,448.23 195.763,448.486 197.309,448.646 198.592,448.696 200.309,448.602 201.939,448.315 203.399,447.837 204.616,447.193 205.594,446.387 206.404,445.338 207.089,443.836 207.547,441.719 202.816,442.073 201.799,442.071 195.581,441.582 194.456,441.395 189.654,440.168 " fill="none" stroke-width="0.5" stroke="rgb(0,0,0)" />
	<polygon points="161.479,431.135 160.886,432.289 157.887,436.946 156.945,438.102 152.75,442.202 151.48,443.174 147.933,445.266 148.365,445.238 152.266,444.403 155.312,443.16 157.595,441.621 159.272,439.817 160.485,437.662 161.272,435.006 161.582,431.514 161.58,431.332 161.565,430.918 " fill="none" stroke-width="0.5" stroke="rgb(0,0,0)" />
	<polygon points="325.752,416.348 316.247,419.48 314.841,419.78 313.411,419.926 313.495,420.04 314.36,421.623 314.854,422.92 315.123,423.811 315.454,425.264 315.507,425.521 315.76,426.876 315.877,427.374 316.024,427.478 316.058,427.502 316.965,428.156 317.383,428.482 318.249,429.218 318.993,429.958 319.726,430.812 320.622,432.158 320.658,432.229 321.023,431.81 321.195,431.62 321.914,430.858 322.154,430.616 322.869,429.932 323.205,429.631 323.914,429.04 324.39,428.677 325.091,428.192 325.775,427.777 326.465,427.413 327.44,426.994 328.118,426.765 328.602,426.656 327.652,424.851 327.303,423.609 327.054,421.809 327.054,415.754 " fill="none" stroke-width="0.5" stroke="rgb(0,0,0)" />
	<polygon points="378.093,417.615 378.091,417.771 378.077,418.404 379.558,418.005 381.128,418.189 382.529,418.509 384.161,419.073 385.407,419.654 387.018,420.62 388.104,421.433 389.352,422.582 389.338,422.478 389.297,421.213 389.326,420.74 389.462,419.756 389.55,419.345 388.941,419.281 387.74,419.039 384.18,417.975 383.24,417.615 379.902,416.035 379.139,415.61 378.093,414.935 " fill="none" stroke-width="0.5" stroke="rgb(0,0,0)" />
	<polygon points="165.262,413.599 165.267,414.568 164.946,419.252 164.814,420.194 164.595,421.214 167.683,420.241 170.794,420.908 171.355,421.182 171.288,420.754 171.232,419.133 171.265,418.765 171.52,417.435 171.616,417.116 172.238,415.684 172.395,415.414 173.392,414.106 173.609,413.885 174.681,413.02 173.17,412.395 172.626,412.141 169.99,410.759 169.47,410.456 167.042,408.889 166.521,408.515 164.758,407.119 " fill="none" stroke-width="0.5" stroke="rgb(0,0,0)" />
	<polygon points="244.191,411.824 243.412,416.8 242.845,418.632 241.746,420.94 242.337,420.139 244.437,415.876 245.661,411.572 245.164,411.5 244.228,411.244 " fill="none" stroke-width="0.5" stroke="rgb(0,0,0)" />
	<polygon points="258.586,399.7 258.573,400.782 258.477,401.794 258.233,403.057 257.957,403.988 257.462,405.202 257.023,406.036 256.387,406.995 257.558,407.451 258.117,407.699 260.977,409.126 261.409,409.362 264.191,411.018 264.552,411.249 267.169,413.045 267.499,413.287 269.863,415.132 270.199,415.413 272.222,417.218 272.613,417.597 272.818,417.813 272.894,417.798 274.179,417.576 274.456,417.535 275.79,417.362 276.052,417.333 277.435,417.21 277.682,417.193 279.115,417.118 279.348,417.11 280.829,417.086 281.095,417.087 282.448,417.118 279.453,416.138 278.134,415.541 269.528,410.448 268.404,409.611 261.303,403.055 260.429,402.071 258.573,399.51 " fill="none" stroke-width="0.5" stroke="rgb(0,0,0)" />
	<polygon points="363.415,399.92 365.039,400.267 365.801,400.478 367.143,400.938 367.286,399.053 " fill="none" stroke-width="0.5" stroke="rgb(0,0,0)" />
	<polygon points="349.239,395.17 348.626,396.194 346.206,399.518 347.645,399.267 348.413,399.179 352.92,398.927 353.531,398.921 357.325,399.058 357.605,399.08 356.787,398.722 355.71,397.988 354.452,396.873 353.473,395.754 352.787,394.814 351.93,393.397 351.524,392.611 351.027,391.467 " fill="none" stroke-width="0.5" stroke="rgb(0,0,0)" />
	<polygon points="207.102,388.597 205.785,388.583 200.441,387.993 200.941,388.778 202.779,392.163 203.19,393.079 204.331,396.244 204.48,396.837 206.737,393.499 208.27,391.894 212.225,388.944 214.486,387.941 " fill="none" stroke-width="0.5" stroke="rgb(0,0,0)" />
	<polygon points="308.737,393.474 308.24,393.62 305.027,394.429 304.417,394.553 300.71,395.125 300.035,395.195 295.793,395.412 295.199,395.406 297.588,396.052 304.338,396.637 307.619,396.501 310.577,396.111 311.597,395.87 310.512,394.359 310.257,393.526 310.223,392.974 " fill="none" stroke-width="0.5" stroke="rgb(0,0,0)" />
	<polygon points="221.22,386.595 222.395,386.526 223.44,386.606 224.21,386.711 225.131,386.891 225.126,386.86 225.043,385.84 225.044,385.471 " fill="none" stroke-width="0.5" stroke="rgb(0,0,0)" />
	<polygon points="246.187,368.727 242.12,374.193 241.37,375.007 242.123,375.391 243.007,375.983 244.099,376.897 244.842,377.668 245.212,378.131 246.145,378.157 247.391,378.283 248.393,378.492 247.389,374.786 247.184,373.641 246.671,367.922 " fill="none" stroke-width="0.5" stroke="rgb(0,0,0)" />
	<polygon points="83.7454,366.396 83.4632,366.44 82.6217,366.551 81.8222,366.608 79.5087,366.632 78.3731,366.531 78.5498,366.788 79.6466,369.562 80.6322,376.07 80.8876,375.763 81.5756,375.052 84.0841,372.817 84.9468,372.166 87.4261,370.595 88.1257,370.243 87.5726,369.858 86.0869,368.592 85.2139,367.693 84.1198,366.331 " fill="none" stroke-width="0.5" stroke="rgb(0,0,0)" />
	<polygon points="150.567,375.133 149.186,373.62 148.097,372.749 " fill="none" stroke-width="0.5" stroke="rgb(0,0,0)" />
	<polygon points="172.007,373.602 172.257,374.239 172.534,374.262 172.835,374.271 173.281,374.265 173.701,374.252 173.323,373.858 171.365,371.419 " fill="none" stroke-width="0.5" stroke="rgb(0,0,0)" />
	<polygon points="353.692,364.592 355.547,366.384 356.417,370.415 356.161,372.895 356.763,372.61 357.451,372.331 359.019,371.793 359.539,371.639 361.224,371.211 362.062,370.933 360.267,370.006 359.146,369.276 357.555,367.994 356.598,367.049 355.317,365.498 354.574,364.387 354.344,363.953 " fill="none" stroke-width="0.5" stroke="rgb(0,0,0)" />
	<polygon points="324.033,367.24 323.35,368.323 322.384,369.569 322.112,369.856 323.486,369.824 327.036,369.593 330.179,369.255 329.405,368.951 326.789,367.609 325.623,366.847 324.635,366.043 " fill="none" stroke-width="0.5" stroke="rgb(0,0,0)" />
	<polygon points="276.473,367.219 277.069,367.082 277.283,365.987 277.388,365.597 " fill="none" stroke-width="0.5" stroke="rgb(0,0,0)" />
	<polygon points="441.267,355.654 442.114,356.83 445.162,362.221 445.666,363.396 444.92,359.086 442.934,355.949 439.711,353.44 438.915,353.041 " fill="none" stroke-width="0.5" stroke="rgb(0,0,0)" />
	<polygon points="295.363,357.333 293.936,357.977 290.996,358.905 292.087,359.497 293.955,360.883 294.101,360.994 296.419,362.815 297.213,363.356 297.012,362.292 296.868,360.755 296.846,359.819 296.899,358.713 296.944,358.19 297.083,357.1 297.137,356.745 297.236,356.206 " fill="none" stroke-width="0.5" stroke="rgb(0,0,0)" />
	<polygon points="117.632,354.406 116.726,354.829 116.745,356.464 116.631,357.773 116.22,359.962 115.838,361.255 115.024,363.242 115.22,363.187 116.401,362.972 120.652,362.587 121.981,362.6 124.151,362.84 123.952,362.725 122.938,362.007 121.841,361.064 120.695,359.788 120.028,358.818 119.185,357.111 118.854,356.094 118.549,354.582 118.494,353.907 " fill="none" stroke-width="0.5" stroke="rgb(0,0,0)" />
	<polygon points="394.719,340.427 394.52,340.594 393.371,341.517 392.786,341.937 391.765,342.589 390.074,343.362 389.239,343.609 386.523,343.832 386.336,343.809 386.161,343.764 386.517,344.505 387.647,347.705 387.984,349.167 388.236,351.389 388.246,351.378 389.004,350.632 393.615,346.768 395.21,345.778 398.749,344.222 398.377,343.822 397.1,342.284 396.95,342.096 395.602,340.348 395.282,339.937 " fill="none" stroke-width="0.5" stroke="rgb(0,0,0)" />
	<polygon points="57.954,342.284 61.2743,347.624 62.5006,348.837 62.4897,347.773 62.6392,346.301 63.1306,344.026 63.5698,342.693 64.4983,340.637 65.1423,339.516 65.2959,339.3 62.7331,338.75 61.836,338.491 59.3673,337.584 58.2406,337.046 57.2421,336.447 " fill="none" stroke-width="0.5" stroke="rgb(0,0,0)" />
	<polygon points="164.379,296.748 163.447,297.153 162.177,297.593 160.874,297.901 159.691,298.057 158.267,298.092 157.911,298.062 156.789,297.871 156.382,297.765 155.695,297.519 157.899,300.905 158.272,301.556 162.33,309.658 162.891,311.265 164.43,318.57 164.546,320.53 164.294,323.37 164.096,324.494 163.346,327.309 162.958,328.384 161.72,331.064 161.122,332.103 159.407,334.54 158.563,335.521 156.383,337.605 155.274,338.461 152.638,340.085 151.368,340.684 151.936,340.921 152.822,341.371 155.282,342.862 156.076,343.427 158.426,345.373 159.069,345.982 161.283,348.378 160.935,345.328 160.896,344.358 160.955,342.575 160.985,342.121 161.164,340.356 161.238,339.835 161.544,338.157 161.696,337.509 162.135,335.985 162.448,335.127 163.026,333.825 163.692,332.659 164.416,331.646 165.834,330.193 166.71,329.536 169.234,328.368 170.267,328.134 170.29,328.132 167.552,323.987 166.9,322.725 164.601,316.79 164.206,315.236 163.391,308.902 163.346,307.699 163.515,304.541 163.59,303.835 164.082,300.788 164.23,300.104 165.025,297.18 165.239,296.529 165.353,296.234 " fill="none" stroke-width="0.5" stroke="rgb(0,0,0)" />
	<polygon points="317.332,342.134 316.293,342.635 315.306,343.015 315.985,343.392 316.999,344.078 317.015,343.975 317.462,342.054 " fill="none" stroke-width="0.5" stroke="rgb(0,0,0)" />
	<polygon points="416.542,332.211 415.491,332.412 413.704,332.605 413.471,332.626 412.588,332.691 412.607,332.795 412.862,334.216 412.88,334.32 413.104,335.689 413.14,335.938 413.298,337.208 413.34,337.678 413.4,338.806 413.407,339.352 413.397,339.685 413.366,340.17 413.331,340.505 413.226,341.182 413.159,341.505 413.12,341.644 418.066,342.066 419.186,342.259 421.681,342.912 419.752,340.721 418.264,337.823 417.023,332.45 416.998,332.086 " fill="none" stroke-width="0.5" stroke="rgb(0,0,0)" />
	<polygon points="127.052,336.205 127.196,337.647 127.176,339.886 127.091,340.672 128.338,340.066 129.177,339.727 131.125,339.09 131.125,339.09 130.026,338.295 128.12,336.593 127.251,335.653 126.812,335.074 " fill="none" stroke-width="0.5" stroke="rgb(0,0,0)" />
	<polygon points="379.509,335.555 379.798,335.762 379.886,335.839 379.913,335.141 379.939,334.979 " fill="none" stroke-width="0.5" stroke="rgb(0,0,0)" />
	<polygon points="385.245,310.632 384.259,312.353 383.385,314.238 382.759,315.956 382.553,317.018 382.352,319.215 382.177,322.169 381.989,325.353 381.976,325.539 381.714,328.544 381.655,329.018 381.655,329.02 382.384,327.262 382.408,327.204 383.56,324.498 384.641,321.75 385.517,319.055 386.083,316.512 386.296,313.958 386.272,312.667 386.165,310.946 385.995,309.572 " fill="none" stroke-width="0.5" stroke="rgb(0,0,0)" />
	<polygon points="322.128,325.779 321.412,326.266 321.678,326.656 322.134,327.544 322.146,327.494 322.316,325.54 322.316,325.535 " fill="none" stroke-width="0.5" stroke="rgb(0,0,0)" />
	<polygon points="121.762,324.635 120.942,325.019 121.101,325.152 122.645,326.706 122.912,327.03 122.702,325.955 122.524,324.175 " fill="none" stroke-width="0.5" stroke="rgb(0,0,0)" />
	<polygon points="74.4596,311.857 73.5292,315.425 73.2209,318.279 73.2512,319.352 73.3787,320.56 73.613,321.665 73.9888,322.757 74.5747,323.933 74.9117,324.436 75.3014,323.639 76.4057,321.841 77.1815,320.816 78.5992,319.277 79.5577,318.42 81.2587,317.173 82.35,316.523 84.3043,315.6 84.9551,315.364 84.2619,315.159 83.0845,314.684 81.4904,313.856 80.4059,313.151 78.9768,312.01 78.0268,311.082 76.8182,309.638 76.0594,308.517 75.8217,308.075 " fill="none" stroke-width="0.5" stroke="rgb(0,0,0)" />
	<polygon points="343.422,312.547 342.378,313.93 341.588,314.732 340.888,315.287 341.581,315.678 346.44,318.991 347.318,319.706 351.11,323.374 351.655,322.134 351.884,321.663 352.696,320.147 352.742,320.066 352.601,320.033 352.318,319.959 350.47,319.433 349.533,319.089 348.225,318.494 345.524,316.242 345.028,315.53 343.846,312.116 343.935,311.644 " fill="none" stroke-width="0.5" stroke="rgb(0,0,0)" />
	<polygon points="96.7813,314.773 96.2493,314.937 98.1774,315.623 98.0208,315.167 97.8068,314.325 " fill="none" stroke-width="0.5" stroke="rgb(0,0,0)" />
	<polygon points="428.506,313.018 428.491,313.307 428.661,313.236 429.649,312.936 429.643,312.935 429.581,312.929 428.648,312.834 428.513,312.82 " fill="none" stroke-width="0.5" stroke="rgb(0,0,0)" />
	<polygon points="403.66,305.755 404.956,307.703 406.551,309.626 408.348,311.413 408.692,311.696 408.225,310.939 405.873,307.821 403.593,305.622 " fill="none" stroke-width="0.5" stroke="rgb(0,0,0)" />
	<polygon points="131.212,300.27 131.352,301.158 131.877,307.129 131.872,308.35 131.842,308.664 133.923,308.429 134.103,308.446 135.798,308.837 135.948,308.893 136.997,309.502 135.57,306.541 131.009,298.898 130.837,298.617 " fill="none" stroke-width="0.5" stroke="rgb(0,0,0)" />
	<polygon points="345.861,306.307 345.215,306.299 345.225,306.494 345.124,307.739 345.081,307.982 346.492,306.266 " fill="none" stroke-width="0.5" stroke="rgb(0,0,0)" />
	<polygon points="312.109,304.434 308.96,306.55 311.022,306.817 311.631,306.925 313.61,307.371 313.299,306.682 312.777,304.899 312.647,304.001 " fill="none" stroke-width="0.5" stroke="rgb(0,0,0)" />
	<polygon points="108.779,299.928 108.922,299.981 109.205,300.139 109.27,300.203 109.139,298.291 " fill="none" stroke-width="0.5" stroke="rgb(0,0,0)" />
	<polygon points="434.629,293.26 433.678,294.592 433.59,294.712 432.526,296.133 432.518,296.144 432.824,296.317 434.735,297.348 434.89,297.434 436.541,298.384 435.292,294.252 434.84,292.939 " fill="none" stroke-width="0.5" stroke="rgb(0,0,0)" />
	<polygon points="458.9,288.378 458.036,288.778 457.007,289.63 455.751,291.146 454.631,292.879 456.361,292.93 459.55,293.443 460.876,293.868 460.877,293.741 460.877,293.539 460.807,292.112 460.612,290.783 460.298,289.57 459.922,288.644 459.688,288.268 " fill="none" stroke-width="0.5" stroke="rgb(0,0,0)" />
	<polygon points="87.7146,283.587 87.6581,283.699 85.3032,288.232 84.7097,289.378 86.3948,290.264 86.9164,290.678 87.5615,291.264 88.1261,291.848 88.4771,292.211 88.8137,291.392 89.2674,289.186 89.5837,285.866 89.7376,281.58 89.7525,279.477 " fill="none" stroke-width="0.5" stroke="rgb(0,0,0)" />
	<polygon points="55.6167,277.677 56.3186,279.178 56.5894,279.606 57.057,280.327 57.1008,280.396 57.5459,281.102 57.6822,281.328 58.0737,282.007 58.2946,282.423 58.6203,283.094 58.8877,283.725 59.1354,284.406 59.378,285.238 59.5356,285.948 59.5822,286.265 59.8456,285.78 60.5385,282.764 60.5282,282.725 60.4982,282.649 60.4465,282.554 60.3399,282.403 60.1392,282.176 59.5942,281.672 59.5787,281.657 57.6567,279.867 57.2628,279.467 55.7488,277.797 55.6071,277.632 " fill="none" stroke-width="0.5" stroke="rgb(0,0,0)" />
	<polygon points="170.663,278.381 170.925,278.71 171.259,279.165 171.501,279.528 171.816,280.049 172.026,280.436 172.33,281.073 172.496,281.474 172.773,282.292 172.881,282.697 173.023,283.476 174.392,282.018 174.688,281.84 174.234,281.487 170.441,278.127 " fill="none" stroke-width="0.5" stroke="rgb(0,0,0)" />
	<polygon points="427.806,278.701 427.339,279.572 426.542,280.369 426.621,280.344 427.861,280.074 429.724,279.952 428.332,277.016 428.204,276.791 " fill="none" stroke-width="0.5" stroke="rgb(0,0,0)" />
	<polygon points="166.913,273.828 167.503,274.913 168.063,275.764 168.537,276.332 169.308,277.012 169.548,277.219 169.665,277.331 169.069,276.66 166.529,273.007 " fill="none" stroke-width="0.5" stroke="rgb(0,0,0)" />
	<polygon points="340.109,273.898 339.332,274.735 339.115,275.594 339.126,275.602 339.662,275.835 340.434,276.04 340.431,276.005 340.418,275.857 340.378,275.313 340.364,275.032 340.349,274.543 340.373,273.75 " fill="none" stroke-width="0.5" stroke="rgb(0,0,0)" />
	<polygon points="157.076,226.021 156.067,227.778 155.456,229.031 156.938,230.934 157.422,233.721 157.362,235.147 157.343,235.445 157.184,237.267 157.17,237.406 156.945,239.478 156.938,239.542 156.68,241.718 156.679,241.733 156.423,243.851 156.207,245.727 156.068,247.139 156.03,247.849 156.049,248.438 157.558,249.351 159.092,252.06 159.557,253.685 159.683,254.201 160.048,256.012 160.105,256.333 160.396,258.261 160.421,258.44 160.665,260.418 160.673,260.479 160.893,262.411 161.107,264.158 161.241,265.035 162.246,265.38 164.651,268.416 164.856,268.939 164.032,265.336 164.123,262.017 165.265,258.043 166.534,255.639 169.543,252.003 170.476,251.079 172.351,249.559 169.679,250.913 166.134,251.609 162.748,250.349 160.521,247.505 160.168,243.598 160.408,242.469 160.615,241.397 160.797,240.327 160.952,239.261 161.076,238.198 161.168,237.138 161.224,236.079 161.242,235.121 161.146,233.174 160.854,231.328 160.323,229.474 159.499,227.568 158.305,225.571 157.755,224.87 " fill="none" stroke-width="0.5" stroke="rgb(0,0,0)" />
	<polygon points="420.646,267.468 420.57,267.633 422.091,268.043 422.923,268.334 422.442,267.641 421.199,266.201 " fill="none" stroke-width="0.5" stroke="rgb(0,0,0)" />
	<polygon points="129.161,238.266 128.923,240.389 128.794,242.365 128.765,243.727 130.128,253.497 131.774,257.866 131.604,256.423 132.169,252.855 133.202,251.744 133.191,251.639 132.826,250.129 132.18,248.035 131.367,245.595 131.351,245.547 130.516,242.973 130.446,242.742 129.717,240.185 129.604,239.727 129.221,237.904 " fill="none" stroke-width="0.5" stroke="rgb(0,0,0)" />
	<polygon points="405.553,256.63 405.794,256.944 406.415,257.803 406.596,257.663 407.858,256.647 407.896,256.617 406.908,256.238 404.735,255.628 " fill="none" stroke-width="0.5" stroke="rgb(0,0,0)" />
	<polygon points="447.503,253.248 447.506,253.255 448.849,256.592 449.805,254.898 449.865,254.794 450.138,254.329 447.305,252.757 " fill="none" stroke-width="0.5" stroke="rgb(0,0,0)" />
	<polygon points="382.554,244.925 381.935,246.088 381.182,247.209 380.357,248.202 379.398,249.144 378.393,249.949 377.281,250.67 376.836,250.899 376.955,251.024 378.074,252.395 378.349,252.755 378.69,253.237 378.832,253.087 379.087,252.833 380.274,251.714 381.012,251.112 382.139,250.32 384.116,249.372 385.155,249.072 387.205,248.87 385.472,247.649 383.707,245.805 382.783,244.367 " fill="none" stroke-width="0.5" stroke="rgb(0,0,0)" />
	<polygon points="393.747,252.775 394.286,252.524 393.374,252.166 " fill="none" stroke-width="0.5" stroke="rgb(0,0,0)" />
	<polygon points="359.369,247.347 358.314,248.059 357.893,248.288 358.218,248.315 361.601,249.581 363.129,251.539 363.225,251.305 363.378,251.017 363.671,250.635 363.645,250.622 362.585,249.917 361.596,249.112 360.683,248.21 359.856,247.217 359.738,247.043 " fill="none" stroke-width="0.5" stroke="rgb(0,0,0)" />
	<polygon points="313.498,224.85 312.306,225.36 310.448,225.948 309.128,226.222 308.494,226.288 308.952,227.704 310.074,228.967 312.36,230.327 315.862,231.848 316.108,231.96 319.907,233.797 321.102,234.54 324.366,237.085 325.982,238.912 328.267,242.727 328.572,243.574 329.086,243.253 330.219,242.687 331.387,242.237 332.41,241.934 332.445,241.927 331.443,240.086 330.936,238.886 330.232,236.626 329.965,235.318 329.915,234.832 328.961,235.026 327.556,235.169 326.21,235.168 324.816,235.026 323.504,234.756 322.201,234.348 321.002,233.839 319.82,233.194 318.767,232.481 317.735,231.627 316.845,230.736 315.991,229.702 315.279,228.648 314.633,227.462 314.126,226.264 313.717,224.954 313.676,224.753 " fill="none" stroke-width="0.5" stroke="rgb(0,0,0)" />
	<polygon points="189.368,234.603 188.667,235.917 186.904,238.482 187.933,237.558 189.764,234.971 190.386,232.337 190.36,232.105 " fill="none" stroke-width="0.5" stroke="rgb(0,0,0)" />
	<polygon points="464.583,220.156 464.546,220.42 464.07,223.361 464.048,223.488 463.503,226.489 463.5,226.505 462.963,229.416 462.516,232.063 462.227,234.278 462.139,235.827 462.146,235.927 462.465,235.471 463.832,232.969 464.949,230.217 465.676,227.415 465.922,224.772 465.377,219.888 464.805,218.323 " fill="none" stroke-width="0.5" stroke="rgb(0,0,0)" />
	<polygon points="378.96,228.958 379.367,229.281 379.499,228.513 " fill="none" stroke-width="0.5" stroke="rgb(0,0,0)" />
	<polygon points="46.0966,228.024 46.3094,228.194 46.5923,228.488 46.6864,228.612 46.9553,227.708 " fill="none" stroke-width="0.5" stroke="rgb(0,0,0)" />
	<polygon points="85.3425,213.62 85.6375,213.851 86.7361,214.942 87.1989,215.524 87.9009,216.607 88.2572,217.295 88.6706,218.281 88.9225,219.049 89.146,219.93 89.2955,220.751 89.3918,221.556 89.4412,222.403 89.4108,223.397 90.453,222.726 91.1898,222.362 93.0364,221.765 93.7654,221.642 95.7932,221.615 96.437,221.706 98.222,222.219 98.8337,222.492 100.317,223.405 100.708,223.723 100.948,220.494 101.095,219.512 101.936,215.812 102.219,214.887 102.496,214.169 102.396,214.205 100.859,214.563 97.8613,214.893 96.3959,214.892 93.2067,214.535 91.7151,214.192 88.8509,213.172 87.4903,212.505 86.6422,211.961 " fill="none" stroke-width="0.5" stroke="rgb(0,0,0)" />
	<polygon points="442.815,210.63 442.451,210.761 438.142,212.172 437.627,212.317 432.506,213.548 431.903,213.664 425.881,214.534 425.243,214.595 423.841,214.661 425.95,215.686 427.288,216.549 430.982,219.613 432.016,220.689 433.901,223.152 434.837,220.976 435.474,219.824 437.997,216.17 438.629,215.388 441.613,212.22 442.202,211.666 444.016,210.158 " fill="none" stroke-width="0.5" stroke="rgb(0,0,0)" />
	<polygon points="133.599,218.702 130.737,219.608 132.317,221.064 132.82,222.844 132.943,222.156 133.041,221.699 133.699,219.086 133.827,218.658 " fill="none" stroke-width="0.5" stroke="rgb(0,0,0)" />
	<polygon points="64.325,216.376 64.0682,216.589 65.273,217.383 65.7899,217.851 66.9149,219.175 67.3147,219.795 67.9221,220.983 68.1644,221.603 68.399,221.128 70.9917,216.717 70.5009,216.633 68.4292,216.09 67.2864,215.676 65.4828,214.829 " fill="none" stroke-width="0.5" stroke="rgb(0,0,0)" />
	<polygon points="188.077,213.234 188.98,214.586 190.189,216.987 190.705,218.382 190.753,218.574 192.234,217.462 194.963,217.206 194.637,216.028 194.097,214.999 193.4,214.196 192.382,213.452 190.854,212.748 188.712,212.155 186.927,211.901 " fill="none" stroke-width="0.5" stroke="rgb(0,0,0)" />
	<polygon points="381.405,200.188 380.895,201.386 380.213,202.633 379.501,203.684 378.6,204.773 378.179,205.193 378.525,205.426 379.741,206.428 380.64,207.326 381.341,208.175 381.708,206.623 384.256,204.062 386.068,203.623 382.615,200.807 381.555,199.708 " fill="none" stroke-width="0.5" stroke="rgb(0,0,0)" />
	<polygon points="55.8614,205.181 55.4501,205.481 56.1586,205.328 57.5091,205.02 57.2889,204.324 57.2358,204.065 " fill="none" stroke-width="0.5" stroke="rgb(0,0,0)" />
	<polygon points="366.594,169.017 365.61,169.827 364.551,170.541 363.934,170.875 364.198,171.264 365.237,173.162 365.748,174.36 366.406,176.453 366.677,177.769 366.907,180.008 366.907,181.368 366.896,181.477 367.606,181.403 368.966,181.402 370.408,181.55 370.135,180.864 367.369,172.016 367.171,171.21 366.749,168.863 " fill="none" stroke-width="0.5" stroke="rgb(0,0,0)" />
	<polygon points="146.335,174.874 145.454,175.108 143.001,175.58 143.37,175.881 146.764,179.127 147.294,179.697 147.492,179.936 147.589,179.32 147.825,178.327 148.783,175.331 149.512,173.795 " fill="none" stroke-width="0.5" stroke="rgb(0,0,0)" />
	<polygon points="108.25,162.419 107.359,163.31 106.324,164.166 105.271,164.88 104.085,165.527 102.885,166.035 101.577,166.445 100.266,166.714 98.8643,166.856 97.9258,166.857 100.078,167.965 100.77,168.376 104.031,170.591 104.713,171.123 107.712,173.789 108.392,174.49 110.981,177.583 111.63,178.509 112.156,179.413 112.66,178.22 113.703,176.302 114.636,174.992 116.023,173.475 117.39,172.332 117.973,171.965 117.649,171.78 116.465,170.917 113.571,168.272 112.646,167.229 110.424,164.117 109.781,163.003 109.066,161.43 " fill="none" stroke-width="0.5" stroke="rgb(0,0,0)" />
	<polygon points="309.76,170.406 308.978,171.622 310.093,171.622 311.5,171.764 312.807,172.032 313.331,172.195 313.575,171.407 313.872,170.703 312.44,170.411 311.984,170.302 310.136,169.787 310.068,169.766 " fill="none" stroke-width="0.5" stroke="rgb(0,0,0)" />
	<polygon points="161.626,166.978 162.183,166.984 163.911,167.323 164.204,167.421 163.472,165.492 " fill="none" stroke-width="0.5" stroke="rgb(0,0,0)" />
	<polygon points="90.7422,164.667 90.783,164.667 90.7508,164.645 " fill="none" stroke-width="0.5" stroke="rgb(0,0,0)" />
	<polygon points="344.56,163.359 344.321,163.558 344.863,163.388 345.065,163.346 344.945,162.961 " fill="none" stroke-width="0.5" stroke="rgb(0,0,0)" />
	<polygon points="423.164,142.989 421.934,144.459 419.193,146.911 418.048,147.734 414.433,149.791 413.484,150.236 412.65,150.549 417.137,150.953 418.426,151.199 424.846,153.096 426.073,153.597 431.759,156.608 432.736,157.241 434.867,158.903 434.338,157.9 433.827,156.629 431.981,150.191 431.966,146.668 431.434,146.528 430.448,146.184 428.769,145.446 427.59,144.777 426.23,143.809 424.987,142.661 424.052,141.545 " fill="none" stroke-width="0.5" stroke="rgb(0,0,0)" />
	<polygon points="354.936,136.46 354.978,136.946 355.035,138.066 355.014,139.03 354.387,145.631 354.237,146.367 354.357,146.33 355.66,146.065 357.001,145.93 358.333,145.93 359.673,146.065 360.976,146.33 362.224,146.717 363.424,147.223 364.553,147.835 365.614,148.55 366.598,149.361 366.959,149.722 367.399,149.185 367.457,149.131 368.498,148.423 365.161,146.468 364.145,145.735 358.808,141.067 358.004,140.229 354.929,136.403 " fill="none" stroke-width="0.5" stroke="rgb(0,0,0)" />
	<polygon points="130.001,135.149 129.474,135.482 129.143,135.727 128.798,136.032 125.565,137.594 125.828,138.152 126.323,139.63 126.801,141.923 126.852,142.199 127.247,144.593 127.457,145.472 127.584,145.317 128.098,144.468 128.659,143.186 128.956,142.284 129.27,141.195 129.538,140.113 129.759,139.052 129.93,138.022 130.052,137.036 130.123,136.109 130.146,135.261 130.14,135.073 " fill="none" stroke-width="0.5" stroke="rgb(0,0,0)" />
	<polygon points="102.556,139.599 102.409,140.317 102.885,140.466 104.083,140.974 105.269,141.621 106.322,142.333 107.136,143.006 107.579,141.294 107.684,140.969 104.861,140.257 102.61,139.072 " fill="none" stroke-width="0.5" stroke="rgb(0,0,0)" />
	<polygon points="327.413,141.864 327.387,142.119 328.112,141.939 327.411,141.244 " fill="none" stroke-width="0.5" stroke="rgb(0,0,0)" />
	<polygon points="315.003,124.073 313.607,124.449 312.385,125.019 311.329,125.746 310.457,126.583 309.794,127.461 309.362,128.285 308.954,129.573 307.591,131.645 307.67,131.697 308.711,132.254 309.684,132.648 310.64,132.915 311.643,133.075 312.814,133.134 313.126,133.125 313.617,133.087 314.203,133.022 314.859,132.938 315.543,132.845 315.598,132.838 316.252,132.755 316.429,132.735 317.018,132.677 317.385,132.65 317.746,132.635 317.142,131.932 316.901,131.602 316.366,130.74 316.182,130.385 315.798,129.491 315.669,129.118 315.43,128.229 315.354,127.843 315.242,126.981 315.217,126.588 315.24,125.48 315.317,124.737 315.455,124.033 " fill="none" stroke-width="0.5" stroke="rgb(0,0,0)" />
	<polygon points="92.0462,114.448 91.608,114.821 89.3447,116.584 88.3875,117.206 86.0494,118.453 84.2053,119.11 81.8039,119.583 80.1643,119.655 80.1664,119.673 80.3552,122.988 80.3643,123.514 80.3325,124.941 80.3199,125.228 80.2289,126.617 80.2053,126.89 80.1665,127.252 80.9491,126.605 82.003,125.89 83.1891,125.243 84.3892,124.733 85.6981,124.323 87.0105,124.054 88.4136,123.911 89.7611,123.911 91.1661,124.054 92.4769,124.323 93.7877,124.732 94.9867,125.241 95.92,125.749 95.8882,125.608 95.7842,125.028 94.9905,119.094 94.9729,118.95 94.3241,113.138 94.2187,112.431 " fill="none" stroke-width="0.5" stroke="rgb(0,0,0)" />
	<polygon points="184.835,108.826 184.793,109.717 184.717,110.452 184.585,111.278 184.372,112.193 184.142,112.937 183.686,114.045 183.35,114.691 182.52,115.924 182.069,116.454 180.801,117.606 180.228,118.005 178.664,118.81 177.96,119.062 176.409,119.414 175.565,119.502 173.156,119.31 173.095,119.294 173.677,120.254 174.195,121.311 175.882,125.692 176.179,126.691 176.203,126.802 176.515,126.525 177.138,126.034 180.138,123.948 180.951,123.464 184.071,121.898 185.111,121.482 188.332,120.497 189.592,120.242 192.896,119.9 194.318,119.905 194.729,119.951 193.379,118.619 192.974,118.183 188.73,113.17 188.513,112.9 184.798,108.017 " fill="none" stroke-width="0.5" stroke="rgb(0,0,0)" />
	<polygon points="424.869,124.298 425.051,124.91 425.186,125.462 425.433,125.194 425.742,124.923 424.941,124.241 424.797,124.09 " fill="none" stroke-width="0.5" stroke="rgb(0,0,0)" />
	<polygon points="124.312,112.18 122.728,118.515 122.698,118.63 122.214,120.432 122.891,119.317 123.509,118.462 126.293,115.191 127.057,114.428 128.199,113.46 127.965,113.284 127.096,112.497 125.594,110.874 125.301,110.535 124.903,110.043 " fill="none" stroke-width="0.5" stroke="rgb(0,0,0)" />
	<polygon points="411.378,103.837 413.66,105.207 415.803,107.174 416.678,108.152 418.808,111.069 419.239,111.741 420.036,113.163 419.849,112.439 419.683,111.998 419.306,111.617 417.56,108.455 417.726,104.846 418.675,103.446 416.324,103.422 416.194,103.42 412.861,103.322 412.735,103.317 409.453,103.157 " fill="none" stroke-width="0.5" stroke="rgb(0,0,0)" />
	<polygon points="39.3584,107.84 40.583,108.279 40.7647,107.658 40.7982,107.574 " fill="none" stroke-width="0.5" stroke="rgb(0,0,0)" />
	<polygon points="349.18,107.666 349.349,108.182 349.365,108.165 349.542,108.008 349.983,107.65 350.172,107.509 350.404,107.344 350.454,107.31 348.962,107.198 " fill="none" stroke-width="0.5" stroke="rgb(0,0,0)" />
	<polygon points="379.206,100.07 379.14,100.111 379.628,99.9693 380.031,99.8661 380.6,99.7393 381.008,99.6618 381.567,99.5735 381.979,99.5215 382.526,99.4698 382.941,99.4437 383.473,99.4269 384.687,99.4997 386.652,99.7999 388.889,100.567 390.307,101.358 391.927,102.627 392.971,103.745 393.662,104.623 394.508,105.906 394.557,105.982 394.731,106.253 395.479,106.077 396.869,105.622 398.492,105.01 400.205,104.347 400.375,104.284 402.025,103.696 402.501,103.546 404.02,103.131 405.002,102.94 405.466,102.886 402.304,102.613 402.181,102.601 398.755,102.242 398.631,102.228 395.205,101.803 395.08,101.787 391.661,101.297 391.57,101.283 391.096,101.208 390.539,101.096 390.154,101.001 389.314,100.734 389.01,100.615 387.85,100.023 387.619,99.8748 386.303,98.7661 386.138,98.5854 385.089,97.0553 384.981,96.8377 384.675,95.979 " fill="none" stroke-width="0.5" stroke="rgb(0,0,0)" />
	<polygon points="145.644,101.928 145.068,105.151 144.951,105.679 144.937,105.732 145.272,105.682 149.402,105.38 150.635,105.404 151.947,105.553 149.748,103.673 145.894,100.574 " fill="none" stroke-width="0.5" stroke="rgb(0,0,0)" />
	<polygon points="70.4397,93.0947 65.4268,95.7331 64.0223,96.5079 64.8572,96.7523 68.2396,98.312 69.7997,99.3165 69.8551,99.3643 69.8732,99.2064 69.8854,99.1074 70.1734,96.892 70.1746,96.8825 70.4572,94.733 70.6637,92.9949 " fill="none" stroke-width="0.5" stroke="rgb(0,0,0)" />
	<polygon points="395.684,81.6929 395.737,81.6325 395.841,81.4151 " fill="none" stroke-width="0.5" stroke="rgb(0,0,0)" />
	<polygon points="126.174,63.7644 125.442,67.2336 125.351,67.6106 124.505,70.7177 123.986,72.0427 123.931,72.1474 126.358,73.7193 126.627,74.001 126.648,73.7784 126.729,73.1826 126.901,72.2443 127.156,71.2727 127.417,70.5147 128.149,69.028 128.518,68.4665 130.246,66.6834 130.742,66.3346 130.797,66.3115 130.485,65.9158 130.307,65.6789 128.578,63.2725 126.948,61.1145 126.84,60.9962 " fill="none" stroke-width="0.5" stroke="rgb(0,0,0)" />
	<polygon points="104.788,60.4053 103.05,61.8211 101.2,63.4049 101.035,63.5421 99.2532,64.97 98.6154,65.4223 96.9975,66.4323 96.3533,66.7128 96.5354,67.175 96.7248,67.8342 96.9186,68.7449 97.0263,69.5115 97.0858,70.1761 97.1199,71.0461 97.1113,71.734 97.081,72.2039 98.1282,71.2611 100.4,69.9201 102.458,69.2066 106.064,68.9949 106.533,69.2097 106.291,66.3078 106.273,66.0295 106.13,62.5849 105.854,59.6992 105.848,59.6763 " fill="none" stroke-width="0.5" stroke="rgb(0,0,0)" />
	<polygon points="400.63,59.1715 400.627,60.411 400.574,60.9509 400.955,60.8048 401.208,60.733 402.403,60.5105 402.665,60.4861 405.71,60.917 406.819,61.3524 408.646,62.4325 410.024,63.5803 410.404,63.9225 412.032,65.5047 413.784,67.1495 415.56,68.576 417.331,69.6509 419.069,70.3048 421.172,70.5702 421.387,70.5601 421.982,70.4698 422.492,70.3205 422.802,70.1673 422.919,70.0719 423.002,69.9578 423.17,69.5005 423.227,68.9645 422.803,67.5592 421.187,65.8904 417.608,63.7728 412.817,61.788 407.667,60.0802 402.983,58.6413 402.671,58.5367 400.502,57.7509 " fill="none" stroke-width="0.5" stroke="rgb(0,0,0)" />
	<polygon points="162.85,47.226 162.717,47.5684 161.816,49.1768 161.756,49.2553 164.379,50.1469 164.561,50.2118 168.093,51.5284 168.098,51.5302 168.464,51.6671 165.978,49.1603 163.083,46.283 " fill="none" stroke-width="0.5" stroke="rgb(0,0,0)" />
	<polygon points="145.042,51.404 145.413,50.9079 145.557,50.7557 145.506,50.742 144.722,50.5602 " fill="none" stroke-width="0.5" stroke="rgb(0,0,0)" />
	<polygon points="89.0595,48.6336 89.1532,48.9408 89.4499,48.5685 " fill="none" stroke-width="0.5" stroke="rgb(0,0,0)" />
	<polygon points="444.621,45.6403 444.575,46.3758 444.627,46.114 444.734,45.0068 " fill="none" stroke-width="0.5" stroke="rgb(0,0,0)" />
	<polygon points="396.666,39.605 397.211,40.9137 397.9,43.244 398.043,43.1281 400.038,42.1268 400.85,41.7843 403.822,40.7577 404.257,40.6239 407.919,39.6338 408.229,39.5579 410.049,39.1582 406.878,37.4832 402.539,35.8382 398.538,34.7001 395.163,33.8556 394.667,33.7106 393.159,33.2056 " fill="none" stroke-width="0.5" stroke="rgb(0,0,0)" />
	<polygon points="69.9791,40.3109 69.9691,40.3172 68.9363,40.9609 70.8669,41.1622 71.1796,41.1922 71.5376,39.3356 " fill="none" stroke-width="0.5" stroke="rgb(0,0,0)" />
	<polygon points="153.18,28.6319 152.211,29.3134 151.187,29.9053 149.865,30.5192 152.414,32.1113 153.775,32.9338 154.049,28.1914 154.78,26.6926 " fill="none" stroke-width="0.5" stroke="rgb(0,0,0)" />
	<polygon points="82.0406,28.3621 81.2366,30.5247 80.6604,31.4317 80.8326,31.3645 83.9775,30.1998 85.1176,29.7373 84.198,29.2414 82.261,27.2877 " fill="none" stroke-width="0.5" stroke="rgb(0,0,0)" />
</svg>
