<?xml version="1.0" standalone="no" ?>
<!DOCTYPE svg PUBLIC "-//W3C//DTD SVG 1.1//EN" "http://www.w3.org/Graphics/SVG/1.1/DTD/svg11.dtd">
<svg width="500px" height="500px" xmlns="http://www.w3.org/2000/svg" version="1.1" >
	<polygon points="480.823,30.2194 480.612,30.5642 480.31,31.2127 480.127,31.7582 480.067,32.0349 480.186,33.5956 480.568,35.4513 480.823,36.3516 480.823,77.0654 479.64,79.8658 478.512,81.7305 473.197,88.2024 471.776,89.5383 464.814,94.5709 466.105,94.6058 468.591,95.1163 469.925,95.5207 472.02,96.3728 473.399,97.1068 475.122,98.2659 476.373,99.3193 477.742,100.751 478.712,102.004 479.745,103.673 480.382,104.961 480.823,106.115 480.823,121.413 480.746,121.676 479.793,123.824 480.823,124.671 480.823,189.278 478.465,192.006 476.886,193.08 473.241,194.37 472.499,194.311 473.423,195.079 474.212,195.837 478.214,200.279 479.054,201.406 480.823,204.304 480.823,244.287 478.606,248.062 478.229,248.641 474.749,253.495 474.792,253.493 476.261,253.646 478.022,254.045 479.282,254.494 480.823,255.283 480.823,281.286 480.185,292.654 479.283,294.056 478.802,294.72 476.225,297.909 475.611,298.582 472.652,301.456 472.134,301.749 472.494,302.219 473.191,303.314 475.107,306.982 475.553,308.018 476.998,312.198 477.268,313.197 477.269,313.202 473.11,329.62 467.07,347.047 459.27,364.67 456.023,370.62 454.534,371.476 450.667,371.506 448.759,370.446 448.918,371.251 449.622,378.814 449.559,380.724 449.199,382.964 438.331,399.399 425.161,415.952 410.17,431.593 402.063,438.557 401.55,438.471 399.565,437.848 398.072,437.143 396.746,436.342 395.859,435.674 395.983,437.311 395.891,439.197 394.928,444.687 393.345,446.047 374.668,459.037 354.126,470.285 331.702,479.516 324.466,481.58 322.494,481.02 321.081,480.46 318.418,479.083 317.116,478.231 314.918,476.445 313.822,475.353 312.097,473.24 311.26,471.977 310.017,469.618 309.457,468.246 308.704,465.723 308.422,464.285 308.35,463.535 307.993,464.184 305.226,468.257 304.104,469.45 304.79,469.505 306.287,469.777 306.956,469.97 308.713,470.726 309.206,471.018 310.871,472.345 311.216,472.71 312.388,474.336 312.61,474.75 313.218,476.245 313.344,476.684 313.578,477.816 313.634,478.255 313.692,478.985 313.705,479.399 313.445,481.618 313.048,483.091 312.02,485.129 307.382,486.452 281.151,490.817 267.526,491.551 266.828,491.07 265.002,489.579 264.091,488.699 263.822,488.392 262.56,489.035 262.133,489.236 257.968,491.041 257.524,491.217 254.684,492.242 252.993,492.333 225.548,490.902 199.887,486.773 182.182,481.894 179.294,479.842 175.327,477.056 172.277,475.34 170.368,474.79 167.361,474.492 163.224,474.263 162.762,474.223 160.253,473.93 153.907,471.407 133.931,460.848 129.924,456.964 127.924,453.655 127.852,451.197 127.513,451.227 126.013,451.214 118.257,450.372 115.039,448.212 98.2672,434.295 83.2685,419.161 71.1255,404.378 70.7152,401.094 70.6806,399.546 70.882,397.025 68.2801,396.897 65.1234,394.948 63.4107,393.186 63.2362,393.065 58.5824,386.23 48.8916,368.927 40.9666,351.394 34.8057,333.879 34.4975,332.67 34.614,331.569 34.9136,330.116 37.8819,320.555 38.3147,319.466 41.2589,313.454 37.7135,313.382 35.7444,312.762 32.6519,310.887 30.8334,309.069 29.5551,307.37 28.7064,305.834 27.7694,299.888 26.8905,283.906 26.8905,239.161 27.3992,237.42 27.7254,236.52 29.3871,232.701 30.2691,231.183 31.6713,229.308 30.4778,228.829 28.6204,227.759 26.8905,226.404 26.8905,167.361 27.8291,163.402 28.0704,162.589 29.6425,158.206 30.1296,157.123 32.5562,152.69 33.3725,151.488 36.1991,148.079 34.1697,147.487 32.7991,146.937 30.5128,145.751 29.2562,144.932 27.2705,143.338 26.8905,142.964 26.8905,112.067 27.8328,111.126 28.7204,110.367 30.6399,108.965 31.4549,108.459 31.4078,108.441 30.0789,107.789 29.5941,107.489 28.2513,106.433 27.8562,106.043 26.8905,104.825 26.8905,92.2333 27.598,90.7674 29.8856,87.3095 29.6637,87.2748 27.2596,86.4711 26.8905,86.2741 26.8905,42.304 27.5833,41.7165 31.474,38.8673 31.8435,38.6131 36.3035,35.735 36.4041,35.6712 37.4112,35.0434 34.696,34.3556 34.2787,34.2371 30.5282,33.0555 29.3824,32.5889 26.8905,31.3289 26.8905,19.5757 38.3822,19.4875 49.8739,19.3993 61.3656,19.3111 72.8572,19.223 80.0774,19.1676 80.2199,19.313 80.2317,19.2667 80.2831,19.166 84.3489,19.1348 95.8406,19.0466 107.332,18.9584 115.434,18.8963 116.196,19.745 116.377,19.9541 117.574,21.3891 118.138,21.9157 118.222,21.9592 118.805,22.043 119.345,21.9658 119.506,21.8854 120.164,21.3073 121.446,19.892 121.642,19.684 122.465,18.8423 130.316,18.7821 141.807,18.6939 153.299,18.6057 156.26,18.583 157.318,22.1215 157.278,22.3206 159.546,20.685 160.885,19.9131 163.986,18.5237 164.791,18.5175 176.282,18.4294 187.774,18.3412 210.757,18.1648 210.737,28.443 209.782,29.4905 210.734,29.7815 210.732,31.0636 210.706,43.9624 210.681,56.8612 210.681,56.9052 209.215,57.4629 208.199,57.6439 207.659,57.6541 210.256,60.6325 210.673,61.1797 210.656,69.76 210.63,82.6588 210.626,84.718 209.811,85.1538 208.941,85.5176 207.699,85.9156 206.696,86.1443 205.54,86.3157 204.412,86.3951 203.109,86.3748 200.775,86.1373 203.965,88.6132 204.166,88.7752 208.461,92.3505 208.718,92.5744 210.607,94.2956 210.579,108.456 210.554,121.355 210.549,123.916 210.492,123.965 209.328,124.73 209.171,124.795 209.646,125.217 210.544,126.232 210.503,147.153 210.478,160.052 210.452,172.95 210.448,175.051 210.15,175.727 208.761,178.275 208.038,179.368 206.257,181.61 205.298,182.612 203.157,184.478 201.952,185.336 200.894,185.945 201.573,186.242 202.816,186.933 205.215,188.577 206.389,189.57 208.362,191.616 209.366,192.912 210.409,194.61 210.401,198.748 210.376,211.647 210.367,216.261 210.032,216.946 209.847,217.301 209.085,218.672 208.901,218.985 208.076,220.316 205.998,222.287 206.207,222.462 208.943,224.993 209.493,225.558 210.366,226.551 210.438,235.84 210.602,246.657 210.899,256.963 211.162,262.26 210.442,263.198 210.273,263.41 208.075,266.069 206.517,268.142 205.904,269.288 205.871,269.457 205.9,269.604 206.243,270.161 207.543,271.475 209.748,273.333 209.879,273.446 212.07,275.378 212.112,275.909 213.138,284.482 214.519,292.41 216.308,299.661 218.563,306.2 221.336,311.994 224.685,317.011 228.665,321.215 233.33,324.575 238.737,327.056 244.939,328.626 248.949,328.98 249.676,330.171 251.186,333.296 251.66,334.551 252.355,337.031 254.771,332.5 255.563,331.302 257.533,328.862 259.171,328.749 265.518,327.271 271.013,324.853 275.719,321.532 279.698,317.343 283.01,312.324 285.72,306.511 287.888,299.942 289.576,292.653 290.848,284.68 291.763,276.06 292.196,269.644 292.433,269.348 293.297,268.487 294.714,267.377 295.725,266.762 297.338,266.023 297.537,265.959 294.134,263.038 292.648,261.314 292.609,261.252 292.778,257.028 293,246.688 293.115,235.848 293.175,226.144 293.177,226.139 294.811,222.978 294.853,222.931 294.6,222.721 293.593,221.714 293.178,221.212 293.159,211.647 293.133,198.748 293.133,198.558 293.59,198.004 294.595,196.998 296.073,195.772 297.263,194.962 298.185,194.454 297.779,193.963 296.965,192.76 296.318,191.573 295.737,190.204 295.327,188.894 295.02,187.396 294.877,185.992 294.877,184.451 295.02,183.049 295.328,181.55 295.738,180.241 296.319,178.872 296.966,177.686 297.78,176.483 298.636,175.448 298.883,175.201 297.971,174.813 295.776,173.389 294.363,172.077 293.263,170.801 293.077,170.529 293.056,160.052 293.004,134.254 292.994,129.308 294.672,127.765 294.615,127.565 294.531,127.247 294.352,126.502 294.278,126.16 294.131,125.399 294.07,125.029 293.96,124.256 293.914,123.855 293.845,123.073 293.819,122.638 293.795,121.852 293.819,120.977 294.07,118.034 294.284,116.777 295.053,113.802 295.498,112.545 296.812,109.668 297.535,108.416 299.421,105.768 300.284,104.79 299.322,105.097 296.956,105.456 296.72,105.455 296.298,105.44 296.107,105.428 294.973,105.27 294.822,105.238 292.944,104.528 292.906,85.421 293.847,83.7039 294.68,82.1796 293.56,81.9864 292.899,81.7971 292.875,69.76 292.86,62.2577 293.962,61.502 293.524,61.2863 292.857,60.928 292.819,42.0937 293.154,41.9043 293.374,41.7846 294.662,41.1109 294.427,40.7499 292.812,38.3826 292.797,31.0636 292.771,18.1648 303.631,18.095 305.483,19.0489 305.638,19.1309 308.471,20.6739 308.508,20.3604 308.623,19.6685 308.795,18.8616 309.013,18.0604 316.278,18.0137 328.031,17.9382 339.784,17.8626 351.538,17.787 363.291,17.7115 375.044,17.6359 376.611,17.6258 378.966,18.7066 380.294,19.4875 386.382,23.9562 386.408,23.4091 387.893,20.7425 388.519,20.0144 391.039,18.0962 392.249,17.5253 410.304,17.4092 422.057,17.3337 433.81,17.2581 440.933,17.2123 441.354,17.4395 442.87,18.5171 444.896,20.3688 445.571,21.2205 445.828,20.7197 446.694,19.3945 448.136,17.6232 448.6,17.163 457.317,17.107 469.07,17.0314 480.823,16.9559 " fill="none" stroke-width="0.5" stroke="rgb(0,0,0)" />
	<polygon points="192.231,443.79 192.599,444.873 193.156,447.034 194.346,447.296 195.888,447.544 197.377,447.698 198.585,447.745 200.2,447.657 201.708,447.391 203.026,446.96 204.086,446.398 204.907,445.722 205.585,444.844 206.182,443.535 206.349,442.761 202.886,443.02 201.724,443.018 195.506,442.529 194.22,442.315 191.282,441.565 " fill="none" stroke-width="0.5" stroke="rgb(0,0,0)" />
	<polygon points="158.686,437.461 157.609,438.781 153.414,442.881 153.337,442.94 154.862,442.318 156.973,440.894 158.499,439.252 159.604,437.289 160.294,434.964 " fill="none" stroke-width="0.5" stroke="rgb(0,0,0)" />
	<polygon points="326.049,417.25 316.545,420.383 314.942,420.725 315.247,421.285 315.742,422.582 316.05,423.601 316.38,425.053 316.441,425.346 316.689,426.68 316.72,426.808 317.521,427.385 317.998,427.758 318.864,428.494 319.714,429.339 320.447,430.193 320.773,430.683 321.223,430.206 321.497,429.93 322.212,429.246 322.596,428.902 323.305,428.31 323.849,427.896 324.55,427.411 325.331,426.936 326.022,426.572 327.136,426.094 327.238,426.06 326.738,425.108 326.388,423.867 326.104,421.809 326.104,417.225 " fill="none" stroke-width="0.5" stroke="rgb(0,0,0)" />
	<polygon points="388.406,420.478 388.452,420.147 387.784,420.013 " fill="none" stroke-width="0.5" stroke="rgb(0,0,0)" />
	<polygon points="166.209,413.525 166.215,414.633 165.894,419.317 165.829,419.782 166.843,419.36 170.315,419.912 170.286,419.049 170.318,418.681 170.611,417.161 170.707,416.842 171.417,415.206 171.574,414.936 172.713,413.441 172.857,413.294 172.807,413.273 172.185,412.982 169.549,411.601 168.954,411.254 166.527,409.687 165.931,409.26 165.874,409.215 " fill="none" stroke-width="0.5" stroke="rgb(0,0,0)" />
	<polygon points="379.043,417.23 379.668,417.061 379.91,417.09 379.496,416.894 379.043,416.642 " fill="none" stroke-width="0.5" stroke="rgb(0,0,0)" />
	<polygon points="259.143,403.327 258.868,404.258 258.303,405.646 257.863,406.479 257.825,406.536 257.903,406.566 258.541,406.849 261.401,408.276 261.895,408.546 264.677,410.202 265.089,410.466 267.707,412.262 268.084,412.538 270.448,414.383 270.832,414.704 272.854,416.509 273.145,416.791 274.018,416.64 274.334,416.592 275.668,416.42 275.968,416.387 277.351,416.264 277.476,416.255 269.044,411.265 267.76,410.309 260.659,403.753 259.66,402.629 259.359,402.213 " fill="none" stroke-width="0.5" stroke="rgb(0,0,0)" />
	<polygon points="350.095,395.583 349.394,396.754 348.314,398.236 348.36,398.231 352.867,397.979 353.566,397.972 354.302,397.999 353.737,397.498 352.758,396.379 351.974,395.305 351.117,393.888 351.012,393.684 " fill="none" stroke-width="0.5" stroke="rgb(0,0,0)" />
	<polygon points="309.04,394.375 308.472,394.541 305.259,395.351 304.562,395.492 303.686,395.627 304.359,395.686 307.537,395.554 310.027,395.226 309.604,394.637 309.478,394.227 " fill="none" stroke-width="0.5" stroke="rgb(0,0,0)" />
	<polygon points="203.613,391.71 204.083,392.757 204.782,394.694 205.951,392.967 207.702,391.132 210.191,389.276 207.186,389.543 205.68,389.527 202.221,389.145 " fill="none" stroke-width="0.5" stroke="rgb(0,0,0)" />
	<polygon points="242.885,374.758 243.536,375.193 244.783,376.238 245.526,377.009 245.676,377.196 246.241,377.212 247.085,377.297 246.472,375.035 246.238,373.725 245.96,370.624 " fill="none" stroke-width="0.5" stroke="rgb(0,0,0)" />
	<polygon points="83.5876,367.382 82.746,367.493 81.8323,367.558 79.8581,367.579 80.5859,369.419 81.2853,374.038 83.4522,372.108 84.4381,371.364 86.4091,370.114 85.4708,369.315 84.4731,368.288 83.7281,367.36 " fill="none" stroke-width="0.5" stroke="rgb(0,0,0)" />
	<polygon points="357.362,370.512 357.272,371.388 358.711,370.895 359.305,370.718 359.538,370.659 358.55,370.016 356.959,368.734 356.847,368.624 " fill="none" stroke-width="0.5" stroke="rgb(0,0,0)" />
	<polygon points="324.882,367.667 324.148,368.829 326.755,368.66 326.356,368.455 325.022,367.584 324.952,367.527 " fill="none" stroke-width="0.5" stroke="rgb(0,0,0)" />
	<polygon points="117.683,355.43 117.695,356.453 117.565,357.948 117.154,360.138 116.717,361.615 116.558,362.004 120.566,361.641 121.097,361.646 119.913,360.327 119.245,359.356 118.282,357.405 117.951,356.389 117.751,355.399 " fill="none" stroke-width="0.5" stroke="rgb(0,0,0)" />
	<polygon points="295.853,358.147 294.222,358.883 293.262,359.186 294.521,360.12 294.688,360.247 295.96,361.246 295.922,360.844 295.897,359.774 295.95,358.668 296.002,358.07 296.004,358.056 " fill="none" stroke-width="0.5" stroke="rgb(0,0,0)" />
	<polygon points="395.115,341.334 393.967,342.257 393.298,342.737 392.277,343.39 390.344,344.273 389.509,344.52 387.586,344.678 388.543,347.389 388.927,349.06 388.969,349.422 393.005,346.04 394.828,344.908 397.184,343.872 396.369,342.891 396.197,342.676 395.144,341.31 " fill="none" stroke-width="0.5" stroke="rgb(0,0,0)" />
	<polygon points="58.8716,341.961 61.6734,346.467 61.7106,346.101 62.202,343.825 62.704,342.302 63.6325,340.246 63.8017,339.951 62.5338,339.679 61.5085,339.383 59.0398,338.476 58.4099,338.175 " fill="none" stroke-width="0.5" stroke="rgb(0,0,0)" />
	<polygon points="165.24,323.454 165.014,324.739 164.264,327.554 163.82,328.782 162.583,331.462 161.899,332.65 160.184,335.087 159.22,336.207 157.039,338.292 155.773,339.27 153.498,340.67 155.774,342.049 156.682,342.695 159.032,344.641 159.767,345.337 160.01,345.601 159.991,345.435 159.947,344.327 160.005,342.544 160.04,342.025 160.219,340.26 160.303,339.664 160.609,337.987 160.783,337.246 161.222,335.722 161.579,334.742 162.158,333.439 162.919,332.107 163.643,331.094 165.264,329.434 166.139,328.776 168.772,327.558 166.759,324.511 166.014,323.068 165.413,321.515 " fill="none" stroke-width="0.5" stroke="rgb(0,0,0)" />
	<polygon points="415.594,333.356 413.807,333.55 413.709,333.559 413.797,334.048 413.818,334.166 414.042,335.535 414.083,335.821 414.241,337.09 414.289,337.627 414.349,338.756 414.357,339.379 414.347,339.713 414.311,340.266 414.276,340.601 414.248,340.787 418.147,341.119 418.996,341.265 417.338,338.037 416.23,333.235 " fill="none" stroke-width="0.5" stroke="rgb(0,0,0)" />
	<polygon points="128.133,339.127 128.882,338.824 129.109,338.75 128.144,337.889 " fill="none" stroke-width="0.5" stroke="rgb(0,0,0)" />
	<polygon points="385.104,312.79 384.264,314.601 383.677,316.211 383.495,317.152 383.299,319.286 383.125,322.225 383.071,323.147 383.747,321.429 384.6,318.805 385.142,316.368 385.345,313.927 385.323,312.705 385.306,312.437 " fill="none" stroke-width="0.5" stroke="rgb(0,0,0)" />
	<polygon points="75.368,312.139 74.4662,315.597 74.1724,318.317 74.1998,319.289 74.3182,320.411 74.5302,321.411 74.8668,322.389 74.9061,322.468 75.5963,321.344 76.4828,320.172 77.9005,318.634 78.9959,317.654 80.6969,316.407 81.9441,315.664 82.4506,315.425 81.0527,314.699 79.8131,313.894 78.3841,312.753 77.2984,311.692 76.0897,310.248 76.063,310.209 " fill="none" stroke-width="0.5" stroke="rgb(0,0,0)" />
	<polygon points="350.789,321.742 351.046,321.214 351.339,320.668 350.21,320.347 349.139,319.954 348.764,319.783 " fill="none" stroke-width="0.5" stroke="rgb(0,0,0)" />
	<polygon points="343.055,314.597 342.503,315.157 344.612,316.595 344.248,316.073 343.494,314.015 " fill="none" stroke-width="0.5" stroke="rgb(0,0,0)" />
	<polygon points="132.823,307.045 132.821,307.618 134.013,307.483 134.194,307.5 135.076,307.704 134.732,306.991 132.488,303.23 " fill="none" stroke-width="0.5" stroke="rgb(0,0,0)" />
	<polygon points="163.758,298.051 162.487,298.49 160.999,298.843 159.816,298.999 158.188,299.039 157.832,299.009 157.794,299.003 158.695,300.387 159.122,301.13 162.398,307.674 162.397,307.648 162.566,304.49 162.652,303.683 163.144,300.637 163.314,299.854 163.81,298.028 " fill="none" stroke-width="0.5" stroke="rgb(0,0,0)" />
	<polygon points="311.559,305.948 311.84,305.998 312.138,306.065 312.015,305.642 " fill="none" stroke-width="0.5" stroke="rgb(0,0,0)" />
	<polygon points="434.451,295.144 434.35,295.281 433.935,295.837 434.944,296.381 434.534,295.027 " fill="none" stroke-width="0.5" stroke="rgb(0,0,0)" />
	<polygon points="458.547,289.588 457.682,290.305 456.519,291.709 456.339,291.987 456.512,291.992 459.701,292.506 459.878,292.562 459.861,292.205 459.68,290.972 459.394,289.869 459.164,289.303 " fill="none" stroke-width="0.5" stroke="rgb(0,0,0)" />
	<polygon points="88.5658,284.009 88.5011,284.137 86.1465,288.67 85.98,288.991 86.986,289.52 87.5075,289.934 88.0435,290.421 88.3265,289.045 88.6354,285.804 88.7103,283.718 " fill="none" stroke-width="0.5" stroke="rgb(0,0,0)" />
	<polygon points="156.907,228.223 156.574,228.905 157.595,230.08 158.371,233.761 158.311,235.188 158.289,235.527 158.13,237.349 158.115,237.508 157.89,239.58 157.881,239.654 157.624,241.83 157.622,241.847 157.367,243.962 157.151,245.828 157.016,247.21 156.981,247.86 156.982,247.879 158.063,248.508 160.005,251.799 160.471,253.423 160.614,254.013 160.98,255.824 161.044,256.191 161.336,258.119 161.364,258.323 161.608,260.301 161.617,260.371 161.837,262.299 162.049,264.029 162.089,264.296 162.561,264.448 163.118,265.126 163.21,261.755 164.352,257.781 165.802,255.033 168.165,252.178 166.328,252.573 162.637,251.421 159.991,248.602 159.239,243.4 159.477,242.28 159.68,241.227 159.859,240.18 160.01,239.138 160.131,238.102 160.22,237.072 160.275,236.045 160.291,235.136 160.2,233.272 159.924,231.534 159.427,229.794 158.652,228.003 157.826,226.622 " fill="none" stroke-width="0.5" stroke="rgb(0,0,0)" />
	<polygon points="129.716,243.671 131.054,253.261 131.102,253.388 131.197,252.706 132.201,251.587 131.91,250.381 131.275,248.325 130.466,245.896 130.448,245.84 129.718,243.591 " fill="none" stroke-width="0.5" stroke="rgb(0,0,0)" />
	<polygon points="382.773,246.534 381.913,247.816 381.088,248.809 379.992,249.886 378.987,250.691 378.282,251.147 378.808,251.791 379.623,251.023 380.466,250.335 381.592,249.543 383.852,248.459 384.718,248.209 382.907,246.319 382.897,246.302 " fill="none" stroke-width="0.5" stroke="rgb(0,0,0)" />
	<polygon points="324.95,236.336 326.797,238.424 329.063,242.207 329.878,241.8 331.046,241.35 331.049,241.349 330.609,240.54 330.029,239.169 329.325,236.908 329.13,235.957 329.057,235.972 327.651,236.114 326.114,236.113 324.719,235.971 324.397,235.905 " fill="none" stroke-width="0.5" stroke="rgb(0,0,0)" />
	<polygon points="464.437,226.659 464.434,226.677 463.899,229.581 463.697,230.777 464.046,229.918 464.737,227.251 464.967,224.781 464.896,224.138 " fill="none" stroke-width="0.5" stroke="rgb(0,0,0)" />
	<polygon points="312.593,226.266 310.735,226.853 309.742,227.06 309.794,227.222 310.686,228.226 312.794,229.479 315.571,230.686 315.258,230.306 314.445,229.102 313.799,227.916 313.219,226.547 313.068,226.062 " fill="none" stroke-width="0.5" stroke="rgb(0,0,0)" />
	<polygon points="86.5514,213.429 87.4794,214.351 87.9422,214.932 88.7446,216.171 89.1008,216.859 89.5733,217.985 89.8252,218.753 90.0806,219.759 90.2301,220.581 90.3402,221.5 90.3528,221.716 90.7688,221.51 92.8791,220.828 93.6081,220.705 95.9257,220.675 96.5694,220.765 98.6094,221.352 99.2211,221.625 99.8811,222.031 100,220.423 100.169,219.301 101.01,215.601 101.044,215.488 100.963,215.507 97.9653,215.837 96.2905,215.836 93.1013,215.479 91.3966,215.087 88.5324,214.067 86.9774,213.304 86.7487,213.158 " fill="none" stroke-width="0.5" stroke="rgb(0,0,0)" />
	<polygon points="438.437,213.074 437.849,213.241 432.728,214.472 432.039,214.604 427.116,215.315 427.895,215.818 431.588,218.882 432.771,220.112 433.67,221.286 433.964,220.601 434.692,219.284 437.215,215.63 437.937,214.737 439.978,212.57 " fill="none" stroke-width="0.5" stroke="rgb(0,0,0)" />
	<polygon points="65.416,216.353 65.9104,216.679 66.4273,217.147 67.7131,218.66 68.1129,219.28 68.2388,219.526 69.5139,217.356 68.1886,217.009 66.8825,216.536 65.6654,215.965 " fill="none" stroke-width="0.5" stroke="rgb(0,0,0)" />
	<polygon points="189.829,214.159 191.037,216.56 191.166,216.906 193.727,216.337 193.307,215.538 192.753,214.9 191.898,214.276 190.526,213.643 189.247,213.289 " fill="none" stroke-width="0.5" stroke="rgb(0,0,0)" />
	<polygon points="381.729,201.842 381.047,203.089 380.233,204.289 379.587,205.07 380.345,205.695 380.933,206.282 383.103,203.672 384.141,203.277 382.014,201.543 381.904,201.429 " fill="none" stroke-width="0.5" stroke="rgb(0,0,0)" />
	<polygon points="365.251,171.209 366.071,172.706 366.654,174.075 367.312,176.168 367.622,177.672 367.852,179.911 367.852,180.458 369.012,180.457 366.462,172.3 366.236,171.378 366.102,170.636 " fill="none" stroke-width="0.5" stroke="rgb(0,0,0)" />
	<polygon points="146.641,175.774 145.633,176.041 145.032,176.156 146.938,177.979 147.766,175.392 " fill="none" stroke-width="0.5" stroke="rgb(0,0,0)" />
	<polygon points="107.965,164.042 106.93,164.898 105.726,165.714 104.54,166.361 103.169,166.942 101.861,167.351 101.148,167.498 101.304,167.591 104.565,169.806 105.344,170.413 108.343,173.079 109.12,173.88 111.709,176.973 112.018,177.413 112.868,175.849 113.935,174.351 115.321,172.834 116.333,171.989 115.824,171.618 112.93,168.973 111.873,167.781 109.651,164.67 108.916,163.396 108.821,163.186 " fill="none" stroke-width="0.5" stroke="rgb(0,0,0)" />
	<polygon points="423.973,143.487 422.568,145.167 419.826,147.619 418.518,148.56 416.145,149.91 417.223,150.007 418.695,150.288 425.115,152.185 426.518,152.757 432.204,155.768 432.68,156.077 431.068,150.453 431,147.38 430.066,147.054 428.387,146.316 427.039,145.551 425.679,144.583 424.259,143.271 424.171,143.166 " fill="none" stroke-width="0.5" stroke="rgb(0,0,0)" />
	<polygon points="355.386,145.156 355.565,145.12 356.906,144.985 358.428,144.985 359.768,145.12 361.257,145.423 362.505,145.809 363.049,146.039 358.183,141.782 357.264,140.824 355.952,139.193 " fill="none" stroke-width="0.5" stroke="rgb(0,0,0)" />
	<polygon points="126.797,138.073 127.253,139.436 127.731,141.729 127.79,142.045 127.871,142.54 128.048,142.004 128.352,140.949 128.612,139.902 128.825,138.877 128.99,137.885 129.106,136.941 129.109,136.904 " fill="none" stroke-width="0.5" stroke="rgb(0,0,0)" />
	<polygon points="313.934,125.345 312.858,125.847 311.931,126.485 311.169,127.216 310.599,127.971 310.242,128.651 309.859,129.86 308.947,131.303 309.115,131.393 309.991,131.747 310.843,131.985 311.742,132.129 312.823,132.184 313.075,132.176 313.528,132.141 314.09,132.079 314.735,131.996 315.416,131.904 315.478,131.896 315.933,131.838 315.523,131.178 315.339,130.823 314.9,129.802 314.771,129.428 314.497,128.412 314.421,128.026 314.294,127.041 314.269,126.648 314.295,125.381 314.309,125.244 " fill="none" stroke-width="0.5" stroke="rgb(0,0,0)" />
	<polygon points="92.6925,115.145 92.1917,115.571 89.9285,117.334 88.8346,118.044 86.4965,119.291 84.3888,120.042 81.9875,120.515 81.1679,120.551 81.3036,122.934 81.314,123.535 81.2823,124.962 81.2699,125.245 81.5477,125.056 82.7338,124.409 84.1053,123.826 85.4143,123.417 86.9142,123.109 88.3173,122.966 89.8573,122.966 91.2623,123.109 92.7603,123.416 94.0711,123.826 94.7006,124.092 94.0489,119.22 94.0287,119.055 93.5077,114.388 " fill="none" stroke-width="0.5" stroke="rgb(0,0,0)" />
	<polygon points="185.523,111.428 185.279,112.474 185.049,113.218 184.529,114.484 184.192,115.129 183.244,116.539 182.793,117.069 181.344,118.386 180.77,118.785 178.984,119.705 178.279,119.957 176.507,120.359 175.663,120.447 174.791,120.377 175.082,120.969 176.703,125.18 179.595,123.168 180.525,122.615 183.645,121.049 184.833,120.573 188.054,119.588 189.494,119.297 192.431,118.993 192.249,118.796 188.005,113.784 187.757,113.475 185.641,110.694 " fill="none" stroke-width="0.5" stroke="rgb(0,0,0)" />
	<polygon points="125.231,112.422 124.328,116.034 125.569,114.575 126.443,113.703 126.74,113.451 126.399,113.142 125.346,112.005 " fill="none" stroke-width="0.5" stroke="rgb(0,0,0)" />
	<polygon points="414.302,104.507 416.445,106.473 416.685,106.741 416.672,105.068 417.053,104.38 416.314,104.372 416.166,104.37 413.964,104.305 " fill="none" stroke-width="0.5" stroke="rgb(0,0,0)" />
	<polygon points="393.665,103.097 394.456,104.101 395.164,105.175 395.221,105.161 396.553,104.725 398.153,104.123 399.862,103.461 400.056,103.389 400.176,103.346 398.656,103.187 398.515,103.171 395.088,102.746 394.945,102.727 393.069,102.458 " fill="none" stroke-width="0.5" stroke="rgb(0,0,0)" />
	<polygon points="146.119,104.667 149.187,104.443 149.141,104.404 146.541,102.313 " fill="none" stroke-width="0.5" stroke="rgb(0,0,0)" />
	<polygon points="382.897,98.495 382.911,98.4941 383.443,98.4773 384.83,98.5606 384.998,98.5862 384.244,97.4872 " fill="none" stroke-width="0.5" stroke="rgb(0,0,0)" />
	<polygon points="66.2753,96.3601 68.6374,97.4493 69.1039,97.7497 69.2313,96.7696 69.2327,96.7586 69.5089,94.6581 " fill="none" stroke-width="0.5" stroke="rgb(0,0,0)" />
	<polygon points="127.1,63.9736 126.372,67.4295 126.268,67.8605 125.421,70.9675 125.095,71.8 125.919,72.3335 125.966,72.0733 126.258,70.9629 126.519,70.2049 127.355,68.5057 127.724,67.9442 129.47,66.1431 127.813,63.8359 127.298,63.1539 " fill="none" stroke-width="0.5" stroke="rgb(0,0,0)" />
	<polygon points="103.659,62.5503 101.818,64.1266 101.629,64.2833 99.8474,65.7112 99.1185,66.2282 97.5357,67.2163 97.6379,67.5719 97.8593,68.6128 97.967,69.3793 98.0351,70.1389 98.0388,70.2326 100.088,69.0225 102.146,68.309 105.483,68.0533 105.344,66.387 105.324,66.0689 105.182,62.6499 105.063,61.4068 " fill="none" stroke-width="0.5" stroke="rgb(0,0,0)" />
	<polygon points="409.253,61.7024 410.632,62.8502 411.066,63.2413 412.688,64.8177 414.408,66.4317 416.107,67.7964 417.748,68.7929 419.298,69.3763 421.209,69.6174 421.293,69.6135 421.776,69.5402 422.146,69.4321 422.191,69.4095 422.238,69.2835 422.262,69.0552 421.96,68.0542 420.594,66.643 417.182,64.6247 412.485,62.6789 408.887,61.4858 " fill="none" stroke-width="0.5" stroke="rgb(0,0,0)" />
	<polygon points="401.575,59.7024 402.315,59.5646 402.577,59.5402 402.757,59.5656 402.704,59.5494 402.347,59.4299 401.576,59.1507 " fill="none" stroke-width="0.5" stroke="rgb(0,0,0)" />
	<polygon points="163.147,48.7248 164.684,49.2474 164.737,49.266 163.521,48.0578 " fill="none" stroke-width="0.5" stroke="rgb(0,0,0)" />
	<polygon points="397.499,39.1485 398.122,40.6441 398.478,41.847 399.612,41.2778 400.54,40.8863 403.512,39.8598 404.009,39.7069 407.346,38.8046 406.487,38.3506 402.24,36.7408 398.292,35.618 395.13,34.8266 " fill="none" stroke-width="0.5" stroke="rgb(0,0,0)" />
	<polygon points="151.83,30.6264 152.653,31.1404 152.576,30.1956 " fill="none" stroke-width="0.5" stroke="rgb(0,0,0)" />
	<polygon points="82.5511,29.715 83.1629,29.4884 82.7793,29.1014 " fill="none" stroke-width="0.5" stroke="rgb(0,0,0)" />
</svg>
