<?xml version="1.0" standalone="no" ?>
<!DOCTYPE svg PUBLIC "-//W3C//DTD SVG 1.1//EN" "http://www.w3.org/Graphics/SVG/1.1/DTD/svg11.dtd">
<svg width="500px" height="500px" xmlns="http://www.w3.org/2000/svg" version="1.1" >
	<polygon points="470.923,92.9929 470.497,93.301 470.791,93.3901 470.923,93.4438 470.923,281.008 470.115,295.408 467.698,310.672 463.617,326.778 457.85,343.416 450.383,360.288 441.206,377.102 430.313,393.576 417.698,409.431 403.355,424.396 387.277,438.208 369.449,450.607 349.851,461.339 328.45,470.149 305.205,476.778 280.069,480.961 252.984,482.419 226.595,481.043 201.995,477.084 179.16,470.792 158.061,462.405 138.671,452.155 120.974,440.272 104.96,426.984 90.6253,412.52 77.9733,397.117 67.0087,381.015 57.7373,364.461 50.1639,347.706 44.2904,331.008 40.1146,314.63 37.6269,298.843 36.7905,283.634 36.7905,29.4 38.4582,29.3872 49.9499,29.299 61.4415,29.2108 72.9332,29.1227 95.9166,28.9463 95.9166,28.9463 118.9,28.77 130.392,28.6818 141.883,28.5936 153.375,28.5054 164.867,28.4173 176.358,28.3291 187.85,28.2409 200.838,28.1413 200.832,31.0441 200.832,31.0441 200.806,43.9429 200.781,56.8417 200.756,69.7405 200.756,69.7405 200.73,82.6393 200.679,108.437 200.679,108.437 200.654,121.336 200.603,147.133 200.603,147.133 200.578,160.032 200.552,172.931 200.552,172.931 200.527,185.83 200.501,198.728 200.476,211.627 200.476,211.627 200.45,224.526 200.451,224.622 200.538,235.917 200.539,235.991 200.703,246.808 200.706,246.942 201.003,257.248 201.011,257.454 201.496,267.216 201.515,267.507 202.243,276.691 202.282,277.086 203.309,285.659 203.385,286.18 204.766,294.109 204.907,294.783 206.697,302.033 206.949,302.887 209.203,309.426 209.633,310.475 212.407,316.269 213.103,317.491 216.452,322.508 217.495,323.816 221.475,328.02 222.88,329.249 227.545,332.608 229.201,333.572 234.607,336.054 236.308,336.654 242.511,338.223 244.066,338.487 251.121,339.111 251.947,329.779 252.592,339.127 259.852,338.626 261.416,338.391 267.763,336.914 269.505,336.333 275.001,333.915 276.723,332.941 281.428,329.62 282.898,328.349 286.876,324.161 287.96,322.797 291.273,317.778 291.983,316.507 294.693,310.694 295.121,309.614 297.289,303.045 297.532,302.176 299.221,294.887 299.353,294.211 300.624,286.239 300.692,285.726 301.608,277.106 301.641,276.727 302.264,267.497 302.278,267.226 302.67,257.423 302.675,257.24 302.898,246.901 302.899,246.793 303.014,235.954 303.015,235.91 303.085,224.607 303.085,224.526 303.059,211.627 303.033,198.728 303.007,185.829 302.982,172.931 302.982,172.931 302.956,160.032 302.904,134.234 302.904,134.234 302.878,121.335 302.801,82.639 302.801,82.639 302.775,69.7402 302.697,31.0438 302.697,31.0438 302.691,28.0013 304.588,27.9891 316.341,27.9135 328.095,27.838 339.848,27.7624 351.601,27.6868 363.354,27.6113 375.108,27.5357 386.861,27.4602 410.367,27.309 422.121,27.2335 433.874,27.1579 445.627,27.0823 457.38,27.0068 469.134,26.9312 470.923,26.9197 " fill="none" stroke-width="0.5" stroke="rgb(0,0,0)" />
	<polygon points="195.026,445.076 196.189,445.263 197.54,445.403 198.567,445.443 199.937,445.368 200.658,445.241 195.326,444.822 194.944,444.758 " fill="none" stroke-width="0.5" stroke="rgb(0,0,0)" />
	<polygon points="318.055,422.307 318.292,423.09 318.623,424.543 318.702,424.925 318.804,425.475 318.864,425.518 319.486,426.005 320.353,426.74 320.927,427.311 321.122,427.137 321.83,426.545 322.54,426.005 323.24,425.52 324.259,424.902 324.286,424.887 324.174,424.49 323.804,421.809 323.804,420.412 " fill="none" stroke-width="0.5" stroke="rgb(0,0,0)" />
	<polygon points="168.509,414.79 168.384,416.625 168.408,416.499 168.504,416.18 169.399,414.119 168.504,413.65 " fill="none" stroke-width="0.5" stroke="rgb(0,0,0)" />
	<polygon points="157.745,340.636 157.861,340.719 157.879,340.533 " fill="none" stroke-width="0.5" stroke="rgb(0,0,0)" />
	<polygon points="76.7346,316.013 76.6638,316.668 77.6359,315.799 78.0936,315.464 77.0873,314.66 " fill="none" stroke-width="0.5" stroke="rgb(0,0,0)" />
	<polygon points="163.191,255.156 163.688,254.215 162.971,254.065 " fill="none" stroke-width="0.5" stroke="rgb(0,0,0)" />
	<polygon points="92.0107,218.036 92.1704,218.665 92.4984,218.559 93.2273,218.437 96.2463,218.397 96.89,218.488 97.9272,218.786 98.0779,218.123 96.0352,218.121 92.846,217.765 91.8463,217.535 " fill="none" stroke-width="0.5" stroke="rgb(0,0,0)" />
	<polygon points="433.265,216.708 432.701,216.816 433.057,217.112 433.255,217.318 433.758,216.59 " fill="none" stroke-width="0.5" stroke="rgb(0,0,0)" />
	<polygon points="106.827,167.733 106.128,168.114 106.873,168.694 109.871,171.361 110.884,172.404 111.767,173.459 112.237,172.8 112.906,172.067 111.379,170.671 110.002,169.118 108.3,166.735 " fill="none" stroke-width="0.5" stroke="rgb(0,0,0)" />
	<polygon points="424.101,146.881 421.911,148.84 425.767,149.979 427.594,150.725 428.96,151.448 428.857,151.087 428.743,148.985 427.462,148.422 425.706,147.425 424.414,146.506 " fill="none" stroke-width="0.5" stroke="rgb(0,0,0)" />
	<polygon points="312.373,129.54 312.274,129.853 312.513,129.865 312.407,129.474 " fill="none" stroke-width="0.5" stroke="rgb(0,0,0)" />
	<polygon points="91.3419,119.148 89.9169,120.073 88.7838,120.678 90.0901,120.678 91.4952,120.821 91.9551,120.915 91.7692,119.524 91.7429,119.31 91.6942,118.874 " fill="none" stroke-width="0.5" stroke="rgb(0,0,0)" />
	<polygon points="186.232,116.192 184.997,118.028 184.894,118.149 187.382,117.389 187.946,117.274 186.536,115.609 " fill="none" stroke-width="0.5" stroke="rgb(0,0,0)" />
	<polygon points="399.794,38.7108 400.23,38.5603 399.664,38.3995 " fill="none" stroke-width="0.5" stroke="rgb(0,0,0)" />
</svg>
