<?xml version="1.0" standalone="no" ?>
<!DOCTYPE svg PUBLIC "-//W3C//DTD SVG 1.1//EN" "http://www.w3.org/Graphics/SVG/1.1/DTD/svg11.dtd">
<svg width="500px" height="500px" xmlns="http://www.w3.org/2000/svg" version="1.1" >
	<polygon points="480.823,82.2122 480.251,83.1585 474.936,89.6304 473.095,91.3617 470.386,93.3194 470.772,93.4364 472.868,94.2885 474.655,95.2399 476.378,96.3989 477.999,97.7642 479.368,99.1957 480.625,100.82 480.823,101.14 480.823,192.602 479.731,193.866 478.152,194.94 476.879,195.436 479.885,198.773 480.823,200.031 480.823,248.73 480.546,249.202 480.058,249.953 478.662,251.899 478.777,251.926 480.036,252.374 480.823,252.777 480.823,281.286 479.971,296.463 479.894,296.949 477.975,299.323 477.179,300.196 475.13,302.186 475.185,302.272 477.101,305.94 477.68,307.283 478.076,308.43 477.405,312.666 473.11,329.62 467.07,347.047 459.27,364.67 454.395,373.602 451.425,373.906 451.833,378.296 449.695,382.213 438.331,399.399 425.161,415.952 410.17,431.593 400.008,440.323 398.603,439.882 398.097,439.643 397.618,442.376 393.345,446.047 374.668,459.037 354.126,470.285 331.702,479.516 320.607,482.68 320.048,482.459 317.384,481.082 315.865,480.087 315.618,482.205 315.22,483.678 314.902,484.307 307.382,486.452 281.151,490.817 264.086,491.736 263.579,491.322 263.383,491.133 263.028,491.3 261.73,491.863 252.993,492.333 225.548,490.902 199.887,486.773 176.007,480.192 175.709,480.073 174.126,478.962 171.402,477.429 169.942,477.009 167.355,476.753 153.907,471.407 133.585,460.665 126.724,456.058 125.959,454.878 125.782,453.451 125.77,453.451 122.277,453.072 115.039,448.212 98.2672,434.295 83.2685,419.161 70.0408,403.057 68.4686,400.748 68.4378,399.367 68.4598,399.091 66.9788,398.561 58.5824,386.23 48.8916,368.927 40.9666,351.394 34.8057,333.879 33.2652,327.837 35.7331,319.888 36.294,318.477 37.7309,315.542 37.0381,315.528 35.0691,314.909 31.061,312.478 29.5088,310.926 27.7694,299.888 26.8905,283.906 26.8905,232.799 27.324,231.804 28.2905,230.14 27.2333,229.53 26.8905,229.262 26.8905,159.214 27.5247,157.446 28.156,156.043 30.5825,151.61 31.6405,150.052 32.3665,149.176 31.7626,148.934 29.4764,147.748 27.8477,146.686 26.8905,145.918 26.8905,108.98 27.3613,108.577 26.8905,108.207 26.8905,39.435 30.1446,37.052 30.6235,36.7225 31.9543,35.8638 29.8521,35.2015 28.3671,34.5968 26.8905,33.8502 26.8905,19.5757 38.3822,19.4875 49.8739,19.3993 61.3656,19.3111 72.8572,19.223 84.3489,19.1348 95.8406,19.0466 107.332,18.9584 118.405,18.8735 118.85,19.4063 119.339,18.8663 130.316,18.7821 141.807,18.6939 153.299,18.6057 158.572,18.5653 158.599,18.6473 158.743,18.5639 164.791,18.5175 176.282,18.4294 187.774,18.3412 210.757,18.1648 210.732,31.0636 210.706,43.9624 210.681,56.8612 210.656,69.76 210.63,82.6588 210.621,87.254 209.809,87.5935 208.2,88.1093 207.196,88.338 207.164,88.3428 209.901,90.6212 210.234,90.9113 210.613,91.257 210.579,108.456 210.554,121.355 210.503,147.153 210.478,160.052 210.452,172.95 210.439,179.803 209.799,180.767 208.018,183.009 206.776,184.309 205.099,185.77 206.487,186.721 208.008,188.008 209.981,190.054 210.417,190.617 210.401,198.748 210.376,211.647 210.358,220.906 209.988,221.502 209.268,222.229 210.353,223.232 210.35,224.546 210.438,235.84 210.602,246.657 210.899,256.963 211.331,265.662 209.843,267.463 208.502,269.246 209.071,269.82 211.197,271.612 211.368,271.759 211.814,272.152 212.112,275.909 213.138,284.482 214.519,292.41 216.308,299.661 218.563,306.2 221.336,311.994 224.685,317.011 228.665,321.215 233.33,324.575 238.737,327.056 244.939,328.626 251.718,329.226 252.787,331.438 253.812,329.889 254.471,329.073 259.171,328.749 265.518,327.271 271.013,324.853 275.719,321.532 279.698,317.343 283.01,312.324 285.72,306.511 287.888,299.942 289.576,292.653 290.848,284.68 291.763,276.06 292.386,266.831 292.405,266.347 293.518,265.475 292.668,264.745 292.478,264.525 292.778,257.028 293,246.688 293.115,235.848 293.185,224.546 293.159,211.647 293.133,198.748 293.126,195.298 293.158,195.267 294.636,194.04 294.974,193.81 294.342,192.65 293.589,190.875 293.18,189.566 293.114,189.246 293.107,185.849 293.098,181.279 293.181,180.877 293.59,179.569 294.344,177.794 294.991,176.608 295.502,175.854 294.244,175.038 293.084,173.96 293.082,172.95 293.056,160.052 293.004,134.254 292.978,121.355 292.961,112.993 293.451,111.611 294.765,108.733 295.421,107.598 294.496,107.469 294.346,107.437 292.949,106.909 292.901,82.6588 292.875,69.76 292.797,31.0636 292.771,18.1648 304.525,18.0893 316.278,18.0137 328.031,17.9382 339.784,17.8626 351.538,17.787 363.291,17.7115 375.044,17.6359 381.491,17.5945 381.625,17.6737 385.57,20.5692 386.187,19.2754 386.813,18.5474 388.121,17.5519 410.304,17.4092 422.057,17.3337 433.81,17.2581 444.751,17.1878 445.232,17.6274 445.594,17.1824 457.317,17.107 469.07,17.0314 480.823,16.9559 " fill="none" stroke-width="0.5" stroke="rgb(0,0,0)" />
	<polygon points="194.986,445.12 196.182,445.312 197.537,445.453 198.567,445.493 199.942,445.418 201.055,445.222 195.33,444.772 194.877,444.697 " fill="none" stroke-width="0.5" stroke="rgb(0,0,0)" />
	<polygon points="317.993,422.274 318.244,423.102 318.574,424.554 318.653,424.934 318.759,425.504 318.835,425.559 319.454,426.043 320.32,426.778 320.925,427.38 321.154,427.175 321.862,426.583 322.568,426.046 323.269,425.561 324.282,424.946 324.345,424.913 324.223,424.476 323.854,421.809 323.854,420.343 " fill="none" stroke-width="0.5" stroke="rgb(0,0,0)" />
	<polygon points="168.459,414.787 168.294,417.198 168.325,417.195 168.456,416.514 168.552,416.194 169.463,414.096 168.504,413.593 168.454,413.564 " fill="none" stroke-width="0.5" stroke="rgb(0,0,0)" />
	<polygon points="157.661,340.638 157.902,340.809 157.941,340.422 " fill="none" stroke-width="0.5" stroke="rgb(0,0,0)" />
	<polygon points="76.6853,316.003 76.6002,316.792 77.6655,315.84 78.1758,315.466 77.0583,314.573 " fill="none" stroke-width="0.5" stroke="rgb(0,0,0)" />
	<polygon points="163.17,255.302 163.763,254.178 162.906,253.997 " fill="none" stroke-width="0.5" stroke="rgb(0,0,0)" />
	<polygon points="91.9632,218.052 92.135,218.729 92.5066,218.609 93.2356,218.486 96.2393,218.447 96.8831,218.537 97.9677,218.849 97.9746,218.803 98.1404,218.073 96.0408,218.072 92.8516,217.716 91.7713,217.467 " fill="none" stroke-width="0.5" stroke="rgb(0,0,0)" />
	<polygon points="433.253,216.659 432.587,216.787 433.025,217.15 433.261,217.396 433.873,216.511 " fill="none" stroke-width="0.5" stroke="rgb(0,0,0)" />
	<polygon points="106.803,167.689 106.037,168.107 106.84,168.732 109.838,171.398 110.846,172.436 111.77,173.541 112.274,172.833 112.977,172.064 111.413,170.634 110.042,169.088 108.313,166.667 " fill="none" stroke-width="0.5" stroke="rgb(0,0,0)" />
	<polygon points="424.068,146.844 421.811,148.862 425.753,150.027 427.571,150.769 429.041,151.547 428.905,151.073 428.791,148.951 427.482,148.376 425.735,147.384 424.406,146.439 " fill="none" stroke-width="0.5" stroke="rgb(0,0,0)" />
	<polygon points="312.327,129.521 312.207,129.899 312.579,129.918 312.422,129.338 " fill="none" stroke-width="0.5" stroke="rgb(0,0,0)" />
	<polygon points="91.3112,119.109 89.8933,120.029 88.5843,120.727 90.0851,120.727 91.4901,120.87 92.014,120.978 91.8188,119.518 91.7926,119.305 91.734,118.779 " fill="none" stroke-width="0.5" stroke="rgb(0,0,0)" />
	<polygon points="186.524,115.524 186.188,116.169 184.959,117.996 184.745,118.247 187.397,117.436 188.039,117.306 186.526,115.519 " fill="none" stroke-width="0.5" stroke="rgb(0,0,0)" />
	<polygon points="399.767,38.7759 399.806,38.7596 400.396,38.5557 399.579,38.3231 " fill="none" stroke-width="0.5" stroke="rgb(0,0,0)" />
</svg>
