<?xml version="1.0" standalone="no" ?>
<!DOCTYPE svg PUBLIC "-//W3C//DTD SVG 1.1//EN" "http://www.w3.org/Graphics/SVG/1.1/DTD/svg11.dtd">
<svg width="500px" height="500px" xmlns="http://www.w3.org/2000/svg" version="1.1" >
	<polygon points="470.323,280.991 469.518,295.344 467.109,310.551 463.042,326.606 457.291,343.196 449.845,360.022 440.692,376.793 429.827,393.223 417.245,409.036 402.942,423.96 386.909,437.733 369.133,450.096 349.592,460.797 328.253,469.581 305.073,476.192 280.003,480.364 252.984,481.819 226.659,480.446 202.122,476.497 179.351,470.222 158.313,461.859 138.98,451.64 121.334,439.791 105.365,426.541 91.0712,412.118 78.454,396.757 67.5194,380.699 58.2734,364.19 50.7213,347.483 44.8652,330.834 40.7029,314.509 38.2243,298.779 37.3905,283.617 37.3905,29.9954 38.4628,29.9872 49.9545,29.899 61.4461,29.8108 72.9378,29.7226 84.4295,29.6345 95.9212,29.5463 107.413,29.4581 118.905,29.3699 130.396,29.2818 141.888,29.1936 153.38,29.1054 164.871,29.0172 176.363,28.9291 187.855,28.8409 187.855,28.8409 200.236,28.7459 200.232,31.0429 200.232,31.0429 200.206,43.9417 200.181,56.8405 200.156,69.7393 200.156,69.7393 200.13,82.6381 200.079,108.436 200.079,108.436 200.054,121.335 200.003,147.132 200.003,147.132 199.978,160.031 199.952,172.93 199.952,172.93 199.927,185.829 199.901,198.727 199.876,211.626 199.876,211.626 199.85,224.525 199.851,224.627 199.938,235.921 199.939,236 200.103,246.817 200.106,246.96 200.403,257.266 200.412,257.484 200.897,267.246 200.917,267.555 201.645,276.739 201.686,277.158 202.713,285.73 202.794,286.283 204.174,294.211 204.325,294.927 206.114,302.177 206.382,303.083 208.636,309.622 209.092,310.734 211.866,316.528 212.604,317.825 215.953,322.841 217.059,324.228 221.039,328.433 222.529,329.736 227.194,333.095 228.95,334.118 234.357,336.599 236.161,337.235 242.364,338.805 244.014,339.085 251.068,339.709 251.947,329.779 252.633,339.725 259.894,339.224 261.552,338.976 267.899,337.498 269.747,336.882 275.242,334.464 277.069,333.431 281.775,330.11 283.333,328.763 287.311,324.574 288.461,323.127 291.774,318.108 292.527,316.76 295.237,310.948 295.691,309.802 297.859,303.233 298.117,302.312 299.805,295.022 299.945,294.306 301.217,286.333 301.289,285.789 302.205,277.17 302.24,276.767 302.862,267.537 302.878,267.249 303.269,257.446 303.275,257.253 303.497,246.914 303.499,246.799 303.614,235.96 303.615,235.913 303.685,224.611 303.685,224.525 303.659,211.626 303.607,185.828 303.582,172.929 303.582,172.929 303.556,160.031 303.504,134.233 303.504,134.233 303.478,121.334 303.401,82.6378 303.401,82.6378 303.375,69.739 303.297,31.0426 303.297,31.0426 303.292,28.5974 304.592,28.5891 316.345,28.5135 328.099,28.4379 351.605,28.2868 363.358,28.2113 375.112,28.1357 386.865,28.0601 410.371,27.909 422.125,27.8335 433.878,27.7579 445.631,27.6823 457.384,27.6068 457.384,27.6068 469.138,27.5312 470.323,27.5236 " fill="none" stroke-width="0.5" stroke="rgb(0,0,0)" />
	<polygon points="318.798,422.694 318.877,422.957 319.208,424.41 319.292,424.815 319.352,425.139 319.874,425.547 320.741,426.283 320.954,426.495 321.446,426.084 322.198,425.511 322.899,425.027 323.591,424.607 323.204,421.809 323.204,421.241 " fill="none" stroke-width="0.5" stroke="rgb(0,0,0)" />
	<polygon points="107.208,168.196 107.271,168.246 110.27,170.912 111.344,172.019 111.732,172.482 111.794,172.395 112.059,172.105 110.974,171.114 109.513,169.466 108.15,167.558 " fill="none" stroke-width="0.5" stroke="rgb(0,0,0)" />
	<polygon points="424.501,147.329 423.113,148.57 425.937,149.404 427.875,150.194 428.227,150.381 428.167,149.387 427.22,148.971 425.358,147.914 424.514,147.313 " fill="none" stroke-width="0.5" stroke="rgb(0,0,0)" />
	<polygon points="90.8879,120.156 91.2532,120.193 91.2195,119.94 " fill="none" stroke-width="0.5" stroke="rgb(0,0,0)" />
	<polygon points="186.357,117.075 186.861,116.921 186.638,116.657 " fill="none" stroke-width="0.5" stroke="rgb(0,0,0)" />
</svg>
