<?xml version="1.0" standalone="no" ?>
<!DOCTYPE svg PUBLIC "-//W3C//DTD SVG 1.1//EN" "http://www.w3.org/Graphics/SVG/1.1/DTD/svg11.dtd">
<svg width="500px" height="500px" xmlns="http://www.w3.org/2000/svg" version="1.1" >
	<polygon points="480.823,26.988 480.742,27.0455 479.933,27.8145 479.257,28.6606 478.714,29.5459 478.311,30.4137 478.05,31.1866 477.928,31.7547 477.908,31.9989 478.052,33.8954 478.478,35.962 479.17,38.4039 480.027,41.254 480.073,41.4154 480.823,44.2245 480.823,71.5428 477.659,79.0288 476.851,80.366 471.536,86.8379 470.517,87.7958 463.483,92.8802 462.507,93.4424 454.531,96.9923 455.531,97.0765 456.579,97.2688 457.661,97.5796 458.795,98.049 459.668,98.5317 460.198,98.9141 462.546,96.9926 465.673,96.7119 468.158,97.2223 469.115,97.5124 471.21,98.3644 472.199,98.8908 473.922,100.05 474.819,100.805 476.188,102.237 476.884,103.135 477.917,104.805 478.374,105.728 479.089,107.6 479.338,108.457 479.754,110.499 479.854,111.25 479.988,113.426 479.934,114.598 479.184,119.43 478.781,120.804 477.039,124.731 478.67,125.638 480.18,126.88 480.823,127.641 480.823,184.245 480.786,184.386 480.422,185.366 479.094,188.102 477.256,190.228 475.677,191.302 471.311,192.089 467.977,191.269 466.559,190.7 461.989,188.07 461.38,187.662 456.057,183.557 455.658,183.218 451.682,179.49 452.049,179.994 452.111,180.081 456.144,185.843 458.511,187.237 458.524,187.245 462.586,189.652 462.85,189.819 467.239,192.771 467.68,193.102 472.049,196.733 472.614,197.276 476.616,201.718 477.219,202.526 480.507,207.912 480.823,208.583 480.823,239.747 480.665,240.162 480.272,240.982 476.752,246.973 476.482,247.389 472.298,253.224 472.23,253.316 469.971,256.332 472.88,255.719 474.57,255.631 476.038,255.784 477.301,256.071 478.56,256.519 479.827,257.167 480.823,257.855 480.823,281.286 480.445,288.024 479.937,289.018 479.667,289.487 477.475,292.892 477.13,293.369 474.553,296.557 474.112,297.04 471.154,299.914 468.897,301.052 470.785,303.524 471.285,304.31 473.201,307.977 473.521,308.72 474.966,312.9 475.16,313.617 476.041,318.049 473.11,329.62 467.07,347.047 459.27,364.67 458.691,365.73 456.374,368.019 453.473,369.512 450.238,369.079 447.83,366.876 447.175,365.072 446.061,358.646 443.836,355.131 440.355,352.421 435.627,350.051 430.986,347.985 431.041,348.017 435.618,351.349 436.461,352.109 440.375,356.456 441.069,357.421 444.117,362.812 444.584,363.899 446.562,370.361 446.777,371.451 447.481,379.013 447.436,380.383 446.323,387.313 438.331,399.399 425.161,415.952 410.17,431.593 404.479,436.483 403.422,436.606 401.906,436.351 400.483,435.904 398.99,435.199 398.04,434.625 396.625,433.559 395.971,432.979 394.689,431.643 394.201,431.058 393.108,429.542 392.711,428.902 391.862,427.296 391.524,426.515 390.973,424.909 390.724,423.84 390.529,422.325 390.494,421.288 390.524,420.814 390.635,420.008 390.743,419.508 391.03,418.58 391.142,418.308 389.068,418.087 388.084,417.89 384.524,416.825 383.754,416.53 380.415,414.95 379.79,414.602 376.805,412.674 376.893,413.597 376.893,417.615 376.892,417.743 376.875,418.466 376.859,418.77 376.802,419.485 376.758,419.867 376.751,419.916 379.418,419.197 380.988,419.38 382.136,419.643 383.769,420.208 384.79,420.684 386.401,421.65 387.291,422.315 388.798,423.703 389.528,424.527 390.846,426.356 391.382,427.28 392.427,429.572 392.758,430.52 393.447,433.295 393.591,434.196 393.84,437.473 393.773,438.826 392.659,445.18 392.165,446.676 392.019,446.969 374.668,459.037 354.126,470.285 331.702,479.516 329.283,480.206 327.213,480.024 326.201,479.838 323.082,478.952 322.068,478.55 319.405,477.173 318.472,476.562 316.273,474.776 315.488,473.993 313.762,471.88 313.162,470.974 311.919,468.615 311.517,467.632 310.764,465.109 310.562,464.077 310.31,461.472 310.296,460.589 310.537,456.905 310.62,456.252 311.291,452.687 311.427,452.128 312.45,448.722 312.617,448.249 313.089,447.08 312.817,447.147 311.978,447.284 311.83,447.297 311.646,447.829 310.495,451.922 310.444,452.093 308.935,456.855 308.742,457.371 306.709,462.076 306.214,462.976 303.448,467.049 302.272,468.299 298.564,471.164 296.417,472.172 296.315,472.194 297.257,472.158 298.565,472.062 299.461,471.958 300.187,471.847 300.881,471.737 301.134,471.703 301.85,471.624 302.259,471.594 303.123,471.564 303.747,471.578 304.618,471.648 305.692,471.843 306.361,472.036 307.621,472.578 308.114,472.87 309.308,473.822 309.653,474.186 310.493,475.352 310.716,475.766 311.152,476.839 311.278,477.278 311.445,478.09 311.501,478.529 311.543,479.052 311.556,479.466 311.37,481.058 310.972,482.53 309.984,484.491 308.805,485.98 308.708,486.074 307.382,486.452 281.151,490.817 271.477,491.338 271.093,491.156 268.922,489.91 268.188,489.405 266.362,487.914 265.709,487.283 264.337,485.716 261.584,487.119 261.277,487.263 257.112,489.069 256.795,489.195 252.369,490.792 252.029,490.902 247.972,492.072 225.548,490.902 199.887,486.773 188.995,483.771 185.584,481.66 185.296,481.469 180.535,478.086 176.475,475.235 173.113,473.343 170.775,472.67 167.527,472.348 163.343,472.116 163.012,472.088 158.259,471.532 157.541,471.399 152.33,470.065 151.432,469.749 146.802,467.651 144.62,466.498 138.742,462.417 138.057,461.853 131.421,455.42 129.865,452.551 130.227,449.308 130.687,448.783 127.32,449.086 126.244,449.076 115.479,447.909 114.383,447.668 98.2672,434.295 83.2685,419.161 73.681,407.489 72.8486,400.827 72.8238,399.717 73.2333,394.589 73.2925,394.222 70.6848,395.1 66.6651,393.449 64.808,391.539 61.4497,389.204 59.8549,388.099 58.5824,386.23 48.8916,368.927 40.9666,351.394 36.1324,337.651 36.7521,331.796 36.9669,330.753 39.9353,321.193 40.2456,320.412 44.4422,311.842 44.7208,311.342 45.7915,309.636 45.2381,310.024 43.5341,310.821 41.4177,311.393 38.3589,311.331 36.3898,310.711 34.1721,309.367 32.3536,307.548 31.437,306.33 29.8035,303.374 29.4306,302.541 28.0167,298.508 27.8482,297.925 27.6027,296.857 26.8905,283.906 26.8905,248.404 27.9077,243.413 28.0167,242.972 29.4629,238.023 29.6968,237.377 31.3585,233.559 31.9909,232.471 33.8294,230.012 35.9977,228.288 36.1359,228.227 34.9049,228.083 33.5097,227.728 31.2778,226.834 29.9459,226.066 28.0289,224.565 27.034,223.551 26.8905,223.36 26.8905,198.174 28.0449,198.069 28.8146,198.577 28.5808,198.017 28.2933,197.113 27.7206,194.561 27.601,193.739 27.4024,190.833 27.3898,190.456 27.3901,190.13 27.3902,190.096 27.3926,189.77 27.3935,189.703 27.3998,189.377 27.4026,189.277 27.415,188.95 27.4216,188.818 27.4419,188.49 27.4546,188.326 27.485,187.998 27.5064,187.804 27.5488,187.475 27.5821,187.253 27.6384,186.923 28.4634,185.313 28.2774,185.096 27.7564,184.375 27.4181,183.815 26.9756,182.901 26.8905,182.673 26.8905,176.655 26.9212,176.568 27.0116,176.336 27.161,175.989 27.2654,175.768 27.3225,175.657 27.7779,174.404 28.2482,171.93 28.8801,168.33 28.945,168.015 29.9211,163.898 30.0942,163.315 31.6663,158.932 32.0156,158.155 34.4421,153.722 35.0275,152.861 38.5669,148.592 39.3786,147.799 40.8947,146.598 38.3284,146.358 37.3078,146.163 34.7724,145.423 33.7895,145.029 31.5032,143.842 30.6021,143.255 28.6164,141.661 27.8394,140.898 26.8905,139.758 26.8905,115.313 27.2103,114.877 27.7557,114.242 29.3519,112.648 29.9884,112.103 31.9079,110.702 32.6015,110.271 34.8544,109.096 38.067,108.522 41.0315,109.886 41.2569,110.27 41.268,110.212 41.9165,107.994 42.3015,107.03 43.0239,105.627 41.9755,106.036 40.9811,106.32 36.9561,107.063 35.6414,107.144 34.9491,107.103 34.2153,107.008 33.5818,106.883 32.727,106.64 32.1627,106.428 31.2097,105.96 30.7249,105.661 29.762,104.903 29.3669,104.513 28.5465,103.478 28.2515,102.996 27.7105,101.813 27.5259,101.236 27.2911,100.09 27.2273,99.4166 27.4708,97.2151 28.7542,93.2734 29.3911,91.9537 32.7747,86.8393 33.0995,86.3982 34.4537,84.7407 32.7072,85.1595 30.5946,85.2442 29.9958,85.1506 28.2718,84.5743 27.7786,84.3111 26.8905,83.6437 26.8905,64.3985 27.406,63.6174 28.0084,62.8603 28.7118,62.1217 29.3836,61.5239 30.3636,60.7873 31.0776,60.3349 28.6217,59.8156 26.8905,58.8544 26.8905,45.295 28.2615,43.9532 28.8536,43.4511 32.7443,40.6019 33.0092,40.4196 37.4693,37.5415 37.5414,37.4958 41.9467,34.7499 42.8197,34.1766 39.5524,33.3679 39.5234,33.3606 35.224,32.2714 34.9248,32.1864 31.1742,31.0048 30.3526,30.6703 27.6998,29.3288 26.8905,28.5984 26.8905,19.5757 38.3822,19.4875 49.8739,19.3993 61.3656,19.3111 72.8572,19.223 76.9313,19.1917 77.5544,19.5501 79.616,21.6545 80.5865,23.4249 80.9158,27.9439 80.1118,30.1065 78.8937,32.0241 76.7739,34.1846 76.0667,34.7916 73.0698,36.9478 72.778,37.1438 69.3425,39.2936 69.3343,39.2988 66.0393,41.3526 65.4794,41.7506 66.1722,41.8791 70.7475,42.3563 72.2366,42.4989 72.23,42.4778 72.1667,42.052 72.8512,38.503 73.6096,37.2042 75.5246,35.2714 77.524,34.0791 78.2472,33.7177 81.074,32.5582 81.2494,32.4898 84.4115,31.3187 87.3138,30.1414 88.2616,29.6377 87.8598,29.5025 87.8406,29.496 86.5263,29.0482 85.6972,28.6865 84.7676,28.1852 82.5351,25.9336 82.1825,25.266 81.5922,22.0564 82.1469,20.2438 82.4379,19.6733 82.9168,19.1458 84.3489,19.1348 95.8406,19.0466 107.332,18.9584 112.482,18.9189 112.981,19.383 114.596,21.1815 114.726,21.3314 116.009,22.8692 116.889,23.6908 117.559,24.0358 118.804,24.215 119.994,24.0448 120.716,23.6843 121.675,22.8417 123.039,21.336 123.18,21.1868 124.875,19.452 125.578,18.8464 125.617,18.8181 130.316,18.7821 141.807,18.6939 153.299,18.6057 153.57,18.6036 154.136,19.1441 154.375,19.5363 155.162,22.7034 154.694,24.6051 154.327,25.424 152.49,27.6504 151.521,28.3319 150.681,28.817 149.311,29.4534 149.19,29.508 147.799,30.1132 147.505,30.2673 149.151,31.488 151.786,33.1337 154.604,34.8378 154.826,34.9793 155.896,35.699 155.8,35.5193 154.884,32.9184 155.127,28.7177 156.18,26.5605 157.889,24.5308 160.804,22.4287 161.764,21.8752 166.173,19.8999 166.736,19.6842 170.508,18.4737 176.282,18.4294 187.774,18.3412 210.671,18.1655 210.757,18.3281 210.744,24.9657 210.245,25.8836 208.491,27.8074 206.141,29.3832 205.379,29.81 202.521,31.1207 203.718,31.082 203.955,31.0795 205.554,31.0973 205.853,31.1088 207.238,31.2004 207.897,31.2844 209.068,31.507 210.2,31.8529 210.73,32.0805 210.706,43.9624 210.685,54.6433 208.838,55.3462 207.822,55.5272 206.114,55.5595 203.967,55.2604 203.032,55.045 202.034,54.7203 203.871,56.5965 204.084,56.827 208.636,62.0457 209.077,62.6256 210.665,65.0309 210.656,69.76 210.631,82.192 210.625,82.1966 209.896,82.6812 208.982,83.1702 208.112,83.534 207.221,83.8194 206.218,84.0481 205.389,84.171 204.261,84.2504 203.326,84.2359 199.345,83.8305 198.686,83.7223 193.996,82.6537 193.665,82.5671 191.057,81.7977 192.592,82.7983 192.804,82.9437 197.689,86.4677 197.843,86.5827 202.646,90.3115 202.791,90.4277 207.086,94.003 207.27,94.1635 210.601,97.1993 210.579,108.456 210.554,121.052 210.399,121.227 209.312,122.168 208.148,122.932 206.304,123.704 205.036,123.977 204.322,123.871 207.069,125.783 208.036,126.643 210.371,129.28 210.538,129.513 210.503,147.153 210.478,160.052 210.47,163.761 209.824,164.231 210.313,167.27 209.81,170.222 209.589,171.086 208.627,173.871 208.261,174.698 206.873,177.247 206.354,178.03 204.573,180.272 203.886,180.991 201.745,182.857 200.881,183.472 198.412,184.891 197.389,185.347 194.882,186.166 197.052,186.696 197.947,187 200.709,188.211 201.601,188.707 203.999,190.351 204.841,191.063 206.814,193.108 207.534,194.038 209.02,196.455 209.537,197.556 210.399,200.093 210.379,210.192 210.245,210.713 210.125,211.117 209.64,212.545 209.51,212.888 208.918,214.307 208.785,214.601 208.1,216.002 207.967,216.257 207.205,217.628 207.074,217.852 206.248,219.184 203.778,221.316 201.505,221.552 204.335,223.695 204.747,224.04 207.483,226.571 207.878,226.976 210.232,229.657 210.391,229.861 210.438,235.84 210.602,246.657 210.899,256.963 210.997,258.945 208.737,261.888 208.615,262.041 206.387,264.738 204.699,266.982 203.857,268.557 203.68,269.455 203.864,270.399 204.541,271.498 206.083,273.057 208.363,274.977 208.457,275.058 210.927,277.237 211.431,277.744 212.475,278.943 213.138,284.482 214.519,292.41 215.639,296.947 214.629,299.416 214.344,300.009 213.79,301.001 216.353,300.83 216.805,301.101 218.563,306.2 221.336,311.994 224.685,317.011 228.665,321.215 233.33,324.575 238.737,327.056 244.939,328.626 246.073,328.726 247.18,330.19 247.74,331.106 249.25,334.231 249.59,335.131 250.503,338.392 250.657,339.139 251.108,342.508 251.153,343.04 251.207,344.592 251.661,343.114 252.062,342.151 256.668,333.512 257.236,332.653 260.668,328.401 265.518,327.271 271.013,324.853 275.719,321.532 279.698,317.343 283.01,312.324 283.314,311.673 287.498,310.354 285.501,308.55 285.258,307.502 285.72,306.511 287.633,300.715 287.691,300.66 288.686,299.606 289.51,298.567 290.182,297.498 290.726,296.33 291.151,294.97 291.439,293.317 291.552,291.223 291.525,290.226 291.443,289.142 291.319,287.996 291.166,286.766 291.165,286.757 291.006,285.467 290.995,285.368 290.886,284.322 291.763,276.06 291.889,274.199 292.011,273.882 292.492,272.925 293.192,271.818 293.951,270.871 294.815,270.01 295.83,269.214 296.842,268.599 297.999,268.069 299.142,267.7 300.286,267.462 301.545,267.339 302.996,267.392 303.8,267.53 300.35,265.442 299.621,264.915 295.534,261.406 294.469,260.17 292.761,257.452 292.778,257.028 293,246.688 293.115,235.848 293.142,231.431 293.513,230.52 293.618,230.28 294.986,227.333 295.087,227.126 296.721,223.965 298.006,222.668 297.449,222.289 295.971,221.065 295.249,220.343 294.026,218.864 293.446,218.01 293.171,217.509 293.159,211.647 293.14,202.263 293.445,201.707 294.024,200.854 295.247,199.374 295.968,198.653 297.446,197.426 298.299,196.845 299.989,195.916 300.969,195.496 302.001,195.168 301.022,194.359 300.292,193.629 299.436,192.593 298.853,191.731 298.205,190.544 297.789,189.562 297.379,188.252 297.159,187.178 297.016,185.774 297.016,184.669 297.159,183.267 297.38,182.192 297.789,180.884 298.206,179.902 298.853,178.716 299.437,177.853 300.293,176.818 301.023,176.089 302.058,175.234 302.92,174.651 304.106,174.004 305.087,173.588 306.395,173.179 307.469,172.959 308.869,172.816 309.972,172.816 311.379,172.958 312.45,173.177 313.763,173.586 314.181,173.763 314.335,173.008 314.721,171.763 315.135,170.781 315.668,169.798 315.304,169.753 314.884,169.684 312.68,169.235 312.306,169.146 310.457,168.631 310.155,168.538 309.417,168.285 309.332,168.499 309.178,168.851 308.679,169.884 307.963,170.997 307.374,171.706 304.765,173.439 304.016,173.667 300.298,173.467 298.813,172.835 297.239,171.814 295.826,170.502 295.037,169.587 293.736,167.685 293.319,166.964 293.069,166.441 293.056,160.052 293.004,134.254 293.002,133.395 293.341,132.733 293.606,132.27 294.702,130.562 297.155,128.51 296.956,127.911 296.889,127.696 296.681,126.972 296.621,126.744 296.442,125.999 296.389,125.753 296.242,124.992 296.198,124.727 296.089,123.954 296.056,123.667 295.987,122.885 295.968,122.572 295.944,121.787 295.962,121.16 296.212,118.216 296.366,117.315 297.134,114.339 297.454,113.439 298.768,110.561 299.286,109.663 301.172,107.015 301.92,106.168 304.405,103.88 305.37,103.17 308.481,101.374 309.583,100.891 311.696,100.232 311.597,99.9173 311.459,99.3765 311.384,99.0328 311.252,98.3316 311.202,98.0105 310.999,96.4033 310.78,94.7155 310.753,94.5459 308.816,96.2579 308.781,96.2886 306.379,98.3752 306.208,98.5179 303.931,100.338 303.492,100.654 301.505,101.942 300.198,102.56 298.668,103.049 296.972,103.307 296.735,103.305 296.433,103.294 296.242,103.282 295.429,103.169 295.278,103.136 293.777,102.569 293.663,102.505 292.939,101.884 292.915,90.0151 294.066,87.782 294.131,87.6592 295.733,84.736 297.298,81.8714 298.028,80.4432 296.173,80.2441 295.829,80.196 293.925,79.8677 292.894,79.5725 292.875,69.76 292.865,64.9138 293.453,64.466 293.673,64.3073 295.816,62.8375 297.767,61.4483 298.195,61.0841 296.915,60.4769 294.879,59.5588 294.541,59.3921 292.852,58.485 292.824,44.5613 294.213,43.7755 294.371,43.6896 296.279,42.6915 297.734,41.8933 296.217,39.5582 294.265,36.6977 294.245,36.6682 292.804,34.5266 292.797,31.0636 292.771,18.1648 298.535,18.1278 300.823,19.0857 301.213,19.2677 304.499,20.9602 304.61,21.0191 308.061,22.899 310.449,24.1594 310.451,24.0676 310.455,23.2237 310.459,23.0465 310.498,21.9892 310.532,21.5489 310.643,20.614 310.725,20.1178 310.898,19.3109 311.055,18.732 311.279,18.0589 311.284,18.0458 316.278,18.0137 325.598,17.9538 325.835,18.2 326.922,19.2962 327.443,19.753 327.484,19.7476 329.196,19.2528 331.653,18.3851 332.993,17.9063 339.784,17.8626 351.538,17.787 363.291,17.7115 371.527,17.6585 378.07,20.6607 379.022,21.2207 385.231,25.779 386.098,26.5723 391.154,32.3183 391.841,33.2992 395.613,40.1818 396.06,41.2543 397.252,45.2797 398.582,44.2005 400.576,43.1993 401.242,42.9185 404.214,41.892 404.571,41.7823 408.232,40.7922 408.486,40.73 412.549,39.8379 412.776,39.793 413.196,39.7194 412.021,38.8429 407.373,36.3874 402.916,34.698 398.848,33.5406 395.455,32.6915 395.048,32.5726 392.753,31.8044 390.397,30.2419 389.569,29.3034 388.241,26.3221 389.523,22.1443 390.149,21.4162 391.956,20.0407 393.717,19.2101 394.378,18.9493 397.097,18.0777 397.474,17.9718 399.502,17.4787 410.304,17.4092 422.057,17.3337 433.81,17.2581 435.964,17.2443 436.811,17.5245 437.688,17.9032 440.332,19.3312 441.42,20.104 443.445,21.9557 444.523,23.3145 445.819,25.6288 445.94,25.9757 446.27,24.8025 446.669,23.7888 447.741,21.7021 448.362,20.7518 449.804,18.9805 450.619,18.1712 451.901,17.1418 457.317,17.107 469.07,17.0314 480.823,16.9559 " fill="none" stroke-width="0.5" stroke="rgb(0,0,0)" />
	<polygon points="187.922,439.3 188.267,439.974 190.253,444.633 190.517,445.41 191.382,448.768 192.402,449.069 193.944,449.409 195.606,449.676 197.223,449.844 198.601,449.898 200.446,449.797 202.231,449.482 203.87,448.946 205.285,448.196 206.461,447.228 207.439,445.962 208.234,444.216 208.871,441.277 209.382,440.379 202.726,440.876 201.893,440.874 195.675,440.385 194.753,440.232 189.556,438.904 188.618,438.571 187.046,437.844 " fill="none" stroke-width="0.5" stroke="rgb(0,0,0)" />
	<polygon points="258.333,447.901 258.008,447.94 257.875,447.974 257.755,448.024 257.488,448.185 256.992,448.573 256.683,448.861 256.935,448.874 257.364,448.913 257.979,449.003 258.483,449.107 259.252,449.325 259.806,449.527 260.043,449.638 259.837,449.168 259.556,448.697 259.268,448.331 259.006,448.076 258.806,447.93 258.728,447.89 258.717,447.889 " fill="none" stroke-width="0.5" stroke="rgb(0,0,0)" />
	<polygon points="163.327,404.189 164.066,413.692 164.07,414.486 163.749,419.171 163.641,419.942 162.579,424.891 162.318,425.753 160.363,430.694 159.877,431.639 156.878,436.297 156.106,437.244 151.911,441.344 150.87,442.141 145.329,445.409 144.16,445.924 141.577,446.717 141.721,446.724 142.686,446.748 143.456,446.754 148.53,446.43 152.621,445.554 155.88,444.225 158.38,442.539 160.247,440.529 161.597,438.133 162.457,435.232 162.783,431.559 162.78,431.302 162.762,430.811 162.732,430.293 162.693,429.754 162.646,429.201 162.591,428.637 162.531,428.066 162.467,427.486 163.097,424.284 165.443,422.015 168.664,421.494 170.269,421.987 172.371,423.01 172.946,423.335 173.018,423.381 172.786,422.549 172.473,420.567 172.427,419.238 172.46,418.87 172.67,417.78 172.766,417.461 173.275,416.288 173.432,416.017 174.249,414.946 174.466,414.724 175.459,413.923 175.734,413.751 176.725,413.26 177.055,413.137 177.866,412.909 176.903,412.614 176.413,412.438 173.629,411.287 173.183,411.078 170.547,409.696 170.121,409.448 167.693,407.881 167.266,407.574 165.109,405.866 164.66,405.468 163.319,404.142 " fill="none" stroke-width="0.5" stroke="rgb(0,0,0)" />
	<polygon points="326.461,414.713 325.376,415.208 315.872,418.341 314.72,418.586 310.949,418.972 311.758,419.706 312.53,420.753 313.238,422.05 313.732,423.347 313.953,424.078 314.284,425.53 314.327,425.74 314.585,427.124 314.813,428.088 314.813,428.09 315.329,428.456 315.357,428.476 316.264,429.13 316.606,429.397 317.473,430.133 318.082,430.739 318.815,431.593 319.549,432.696 320.057,433.707 320.322,434.532 321.037,433.628 321.205,433.426 321.927,432.599 322.068,432.444 322.787,431.681 322.984,431.483 323.699,430.799 323.974,430.552 324.683,429.961 325.073,429.663 325.774,429.178 326.334,428.838 327.024,428.474 327.824,428.131 328.502,427.902 329.597,427.655 330.261,427.575 330.745,427.593 329.867,426.539 328.807,424.526 328.458,423.285 328.254,421.809 328.254,413.773 328.275,413.632 " fill="none" stroke-width="0.5" stroke="rgb(0,0,0)" />
	<polygon points="243.044,409.781 243.068,410.64 243.005,411.638 242.227,416.614 241.762,418.116 239.556,422.746 238.847,423.862 235.408,428.048 234.638,428.816 230.16,432.461 230.134,432.479 231.97,431.613 236.554,428.487 240.358,424.845 243.366,420.765 245.561,416.308 247.057,411.05 247.433,410.477 246.274,410.448 245.336,410.313 244.036,409.956 243.169,409.598 243.03,409.527 " fill="none" stroke-width="0.5" stroke="rgb(0,0,0)" />
	<polygon points="255.85,394.315 255.781,394.487 256.148,395.109 256.528,395.887 256.801,396.583 257.051,397.403 257.218,398.161 257.333,398.96 257.389,399.783 257.378,400.669 257.282,401.681 257.082,402.716 256.806,403.647 256.401,404.642 255.961,405.476 255.362,406.38 254.775,407.099 254.374,407.5 257.123,408.569 257.581,408.772 260.441,410.2 260.795,410.393 263.577,412.05 263.873,412.239 266.49,414.035 266.761,414.233 269.125,416.078 269.4,416.308 271.423,418.113 271.743,418.423 272.41,419.125 272.859,419.027 273.098,418.98 274.383,418.759 274.61,418.725 275.944,418.552 276.159,418.529 277.542,418.405 277.744,418.391 279.177,418.317 279.368,418.31 280.849,418.286 281.067,418.286 283.198,418.336 283.442,418.347 285.645,418.497 285.874,418.518 288.155,418.77 288.369,418.798 290.734,419.156 290.932,419.189 293.386,419.653 293.568,419.691 296.118,420.263 296.283,420.303 296.864,420.452 296.888,420.411 297.394,419.733 297.886,419.234 291.054,418.539 289.911,418.297 279.827,414.998 278.746,414.508 270.139,409.415 269.218,408.729 262.117,402.174 261.401,401.367 255.989,393.898 " fill="none" stroke-width="0.5" stroke="rgb(0,0,0)" />
	<polygon points="348.158,394.649 347.656,395.488 343.467,401.24 343.911,401.135 347.85,400.45 348.48,400.377 352.987,400.126 353.488,400.121 357.281,400.257 357.715,400.29 361.186,400.695 361.696,400.779 364.788,401.441 365.412,401.614 368.068,402.523 368.627,402.765 368.256,401.3 368.519,397.845 368.704,397.408 368.072,397.647 362.876,398.811 360.465,398.804 359.315,398.54 357.463,397.731 356.386,396.996 355.356,396.082 354.377,394.963 353.814,394.193 352.957,392.776 352.625,392.132 351.916,390.503 351.701,389.923 351.212,388.323 " fill="none" stroke-width="0.5" stroke="rgb(0,0,0)" />
	<polygon points="226.136,383.899 217.868,386.33 216.812,386.53 206.996,387.401 205.916,387.39 197.84,386.499 199.476,388.706 199.886,389.35 201.724,392.736 202.061,393.486 203.202,396.651 203.468,397.713 203.861,400.399 203.861,400.4 204.507,399.047 204.911,398.341 207.731,394.171 208.988,392.856 212.943,389.906 215.148,388.928 220.834,387.809 222.303,387.722 223.348,387.802 223.979,387.888 225.228,388.133 225.732,388.257 226.664,388.534 226.651,388.485 226.433,387.498 226.322,386.763 226.239,385.743 226.24,384.854 226.325,383.82 " fill="none" stroke-width="0.5" stroke="rgb(0,0,0)" />
	<polygon points="311.11,391.409 308.354,392.337 307.947,392.457 304.734,393.266 304.234,393.367 300.527,393.94 299.974,393.996 295.732,394.213 295.072,394.207 291.559,393.961 290.82,393.858 287.429,393.146 286.704,392.94 284.983,392.321 286.07,393.104 291.324,395.601 297.378,397.239 304.311,397.84 307.722,397.698 310.795,397.293 313.343,396.689 313.535,396.618 311.659,394.007 311.404,393.175 311.293,391.342 " fill="none" stroke-width="0.5" stroke="rgb(0,0,0)" />
	<polygon points="119.728,351.594 117.944,352.844 117.123,353.319 115.514,354.071 115.517,354.125 115.545,356.479 115.452,357.551 115.041,359.741 114.727,360.8 113.911,362.792 113.389,363.769 112.419,365.211 115.541,364.344 116.509,364.167 120.76,363.782 121.849,363.793 129.525,364.641 130.714,364.909 137.798,367.368 138.884,367.886 145.242,371.832 146.153,372.541 151.653,377.848 152.357,378.678 154.975,382.477 154.866,381.85 154.227,379.192 153.261,376.93 151.874,374.784 150.009,372.741 147.596,370.812 144.574,369.033 140.893,367.454 136.341,366.077 132.656,365.076 132.378,364.992 129.426,364.018 129.015,363.864 126.776,362.919 126.172,362.62 124.551,361.686 123.72,361.097 122.623,360.154 121.684,359.109 121.017,358.138 120.326,356.739 119.995,355.723 119.745,354.483 119.656,353.402 119.717,352.021 119.803,351.53 " fill="none" stroke-width="0.5" stroke="rgb(0,0,0)" />
	<polygon points="245.775,367.094 245.224,368.011 241.158,373.477 240.378,374.322 239.155,375.394 239.283,375.425 240.311,375.804 241.455,376.388 242.34,376.98 243.235,377.729 243.977,378.501 244.607,379.288 244.651,379.357 244.671,379.355 245.237,379.329 246.025,379.351 247.271,379.477 248.394,379.711 249.5,380.066 250.14,380.351 248.547,374.472 248.379,373.533 247.564,364.447 247.57,363.412 247.583,363.284 " fill="none" stroke-width="0.5" stroke="rgb(0,0,0)" />
	<polygon points="77.5613,367.468 78.4601,369.741 79.7143,378.023 79.608,379.177 81.8099,376.531 82.3738,375.948 84.8823,373.713 85.5893,373.18 88.0686,371.608 89.0375,371.121 90.8099,370.443 89.2156,369.547 88.3507,368.944 86.8651,367.678 86.1496,366.942 84.9148,365.404 84.6531,365.01 84.5963,365.023 84.3572,365.07 83.5374,365.215 83.3062,365.25 82.4646,365.361 81.8094,365.408 79.4959,365.432 78.4134,365.336 76.2151,364.915 75.7001,364.763 " fill="none" stroke-width="0.5" stroke="rgb(0,0,0)" />
	<polygon points="169.253,368.193 169.271,368.259 170.126,371.459 170.871,373.991 171.381,375.291 171.458,375.314 171.768,375.381 172.116,375.431 172.467,375.461 172.825,375.471 173.308,375.465 173.84,375.448 174.383,375.422 174.937,375.39 175.491,375.357 175.518,375.356 176.052,375.327 176.127,375.323 176.633,375.303 176.647,375.302 174.928,373.803 174.259,373.107 169.633,367.344 169.103,366.551 168.466,365.388 " fill="none" stroke-width="0.5" stroke="rgb(0,0,0)" />
	<polygon points="101.119,371.887 100.21,372.007 97.9136,372.117 97.4912,372.099 98.4675,375.392 98.5718,375.214 99.23,374.317 101.502,371.803 " fill="none" stroke-width="0.5" stroke="rgb(0,0,0)" />
	<polygon points="354.486,361.98 353.784,362.822 351.688,364.875 352.919,365.262 354.914,367.845 355.223,370.292 354.729,375.086 355.31,374.694 356.028,374.285 357.276,373.695 357.84,373.466 359.408,372.929 359.834,372.802 361.561,372.364 365.883,370.927 365.826,370.916 363.69,370.304 362.693,369.908 360.817,368.94 359.899,368.341 358.308,367.06 357.524,366.285 356.243,364.734 355.634,363.823 354.688,362.044 354.595,361.819 " fill="none" stroke-width="0.5" stroke="rgb(0,0,0)" />
	<polygon points="324.049,364.323 323.676,365.279 322.961,366.7 322.401,367.588 321.436,368.834 320.693,369.618 319.498,370.652 319.011,370.993 320.566,371.093 323.539,371.023 327.139,370.789 331.022,370.371 334.953,369.751 336.438,369.423 334.907,369.289 333.908,369.107 330.966,368.281 329.953,367.883 327.337,366.542 326.381,365.917 324.136,364.088 324.121,364.072 " fill="none" stroke-width="0.5" stroke="rgb(0,0,0)" />
	<polygon points="279.974,361.586 276.833,364.138 274.653,368.002 274.446,369.418 274.464,369.402 274.763,369.203 275.954,368.604 276.294,368.483 277.537,368.198 277.912,368.157 278.126,368.153 278.148,367.937 278.221,367.442 278.46,366.218 278.662,365.472 279.057,364.338 279.586,363.235 280.175,362.295 281.377,360.963 " fill="none" stroke-width="0.5" stroke="rgb(0,0,0)" />
	<polygon points="297.93,354.387 294.744,356.305 293.574,356.833 289.069,358.255 288.993,358.279 286.428,359.047 288.605,359.203 290.021,359.728 291.372,360.461 293.24,361.847 293.36,361.938 295.709,363.784 298.595,365.751 299.518,366.236 299.187,365.581 298.815,364.633 298.396,363.18 298.207,362.18 298.063,360.643 298.045,359.876 298.097,358.77 298.135,358.341 298.273,357.251 298.318,356.961 298.514,355.886 298.544,355.733 298.768,354.675 298.772,354.658 298.983,353.679 299.114,352.993 " fill="none" stroke-width="0.5" stroke="rgb(0,0,0)" />
	<polygon points="395.14,338.469 393.931,339.522 393.768,339.658 392.62,340.581 392.14,340.926 391.119,341.578 389.733,342.211 388.898,342.459 386.672,342.642 386.485,342.618 385.17,342.283 385.001,342.217 383.887,341.623 383.738,341.52 383.072,340.947 384.872,343.837 385.386,344.904 386.515,348.104 386.791,349.303 387.177,352.7 387.19,353.803 387.127,354.504 389.153,352.163 389.774,351.552 394.386,347.688 395.693,346.876 400.865,344.603 400.841,344.587 399.712,343.499 399.3,343.056 398.023,341.518 397.9,341.364 396.551,339.613 395.45,338.202 " fill="none" stroke-width="0.5" stroke="rgb(0,0,0)" />
	<polygon points="151.06,292.605 151.157,292.748 156.893,301.56 157.199,302.093 161.257,310.196 161.716,311.512 163.255,318.817 163.351,320.423 163.099,323.264 162.936,324.185 162.186,327 161.868,327.881 160.631,330.561 160.14,331.413 158.426,333.849 157.734,334.653 155.553,336.738 154.645,337.439 152.008,339.063 150.914,339.579 147.858,340.624 148.162,340.704 148.883,340.947 151.474,342.028 152.2,342.397 154.66,343.888 155.311,344.351 157.66,346.297 158.187,346.796 160.446,349.241 160.841,349.72 163.03,352.71 163.129,352.865 163.108,352.801 162.87,351.715 162.128,345.192 162.096,344.397 162.154,342.614 162.179,342.242 162.358,340.478 162.419,340.05 162.724,338.372 162.849,337.841 163.288,336.317 163.544,335.614 164.123,334.312 164.669,333.357 165.393,332.343 166.555,331.153 167.43,330.495 169.499,329.538 170.532,329.304 172.297,329.198 172.52,329.221 172.118,328.723 168.553,323.326 168.019,322.291 165.72,316.357 165.396,315.083 164.581,308.749 164.544,307.763 164.713,304.605 164.775,304.026 165.267,300.979 165.388,300.419 166.183,297.495 166.358,296.961 167.436,294.172 167.658,293.672 168.168,292.667 167.512,293.286 166.94,293.756 165.722,294.626 165.101,295.01 163.819,295.687 163.055,296.019 161.784,296.459 160.717,296.711 159.534,296.868 158.367,296.896 158.01,296.866 157.091,296.71 156.684,296.604 155.769,296.276 155.322,296.07 154.498,295.597 154.019,295.265 153.343,294.709 152.842,294.225 152.328,293.652 151.814,292.992 151.443,292.45 150.926,291.589 150.666,291.101 150.319,290.361 150.074,289.987 149.309,289.182 147.92,287.911 147.579,287.61 " fill="none" stroke-width="0.5" stroke="rgb(0,0,0)" />
	<polygon points="55.9554,335.81 56.7949,342.692 60.3298,348.377 63.9944,352.004 63.8527,351.386 63.7149,350.223 63.6896,347.761 63.8122,346.555 64.3036,344.279 64.6635,343.187 65.592,341.131 66.1198,340.212 67.4057,338.406 67.4064,338.405 66.3334,338.273 65.8551,338.193 62.9848,337.577 62.2496,337.364 59.7809,336.458 58.8576,336.017 56.7167,334.733 56.3827,334.483 " fill="none" stroke-width="0.5" stroke="rgb(0,0,0)" />
	<polygon points="417.487,330.706 416.223,331.055 415.362,331.219 413.575,331.412 413.384,331.43 411.422,331.572 411.176,331.598 411.179,331.62 411.426,333.007 411.681,334.428 411.696,334.513 411.92,335.882 411.949,336.087 412.108,337.357 412.142,337.742 412.202,338.87 412.207,339.317 412.198,339.651 412.172,340.048 412.138,340.383 412.052,340.938 411.985,341.26 411.768,342.021 411.66,342.316 411.408,342.836 411.509,342.824 412.617,342.806 417.964,343.261 418.882,343.42 424.176,344.806 425.096,345.137 429.137,347.019 425.259,344.745 423.925,343.645 420.653,339.928 419.433,337.553 418.193,332.18 418.075,330.463 418.089,330.305 " fill="none" stroke-width="0.5" stroke="rgb(0,0,0)" />
	<polygon points="319.626,338.811 318.656,339.777 317.773,340.459 316.811,341.053 315.771,341.555 314.936,341.876 313.783,342.214 313.09,342.369 311.868,342.559 311.471,342.599 311.568,342.633 314.463,343.915 315.312,344.385 317.775,346.053 317.957,346.203 318.064,344.997 318.184,344.246 318.833,341.453 318.961,340.996 319.707,338.707 " fill="none" stroke-width="0.5" stroke="rgb(0,0,0)" />
	<polygon points="123.071,322.444 121.142,323.607 120.116,324.088 118.469,324.66 119.465,325.343 120.25,325.997 121.793,327.552 122.439,328.336 123.684,330.175 124.181,331.083 125.072,333.162 125.395,334.179 125.878,336.454 125.996,337.636 125.976,339.874 125.862,340.931 125.425,343.038 125.422,343.049 126.127,342.552 126.881,342.108 128.862,341.146 129.55,340.868 131.729,340.155 132.388,339.984 134.473,339.581 134.033,339.386 131.725,338.051 130.825,337.399 128.919,335.698 128.207,334.928 126.71,332.956 126.183,332.11 125.104,329.966 124.744,329.054 124.09,326.833 123.896,325.836 123.676,323.635 123.668,322.643 123.725,321.957 " fill="none" stroke-width="0.5" stroke="rgb(0,0,0)" />
	<polygon points="386.363,307.28 385.324,308.442 384.233,309.986 383.192,311.802 382.275,313.779 381.599,315.634 381.363,316.849 381.155,319.125 380.979,322.098 380.791,325.282 380.78,325.435 380.518,328.44 380.47,328.828 380.067,331.35 379.824,332.303 379.211,334.039 377.858,335.851 379.1,336.739 379.876,337.412 382.006,339.648 381.603,338.888 381.528,338.713 381.251,337.883 381.204,337.696 381.063,336.834 381.047,336.641 381.098,335.331 381.376,333.595 381.599,332.698 382.332,330.549 382.456,330.222 383.492,327.722 383.512,327.674 384.671,324.952 385.771,322.156 386.676,319.372 387.273,316.693 387.497,313.997 387.472,312.618 387.36,310.835 387.137,309.035 386.798,307.45 386.652,307.04 " fill="none" stroke-width="0.5" stroke="rgb(0,0,0)" />
	<polygon points="219.852,339.439 219.86,339.432 219.854,339.425 " fill="none" stroke-width="0.5" stroke="rgb(0,0,0)" />
	<polygon points="321.452,324.787 320.152,325.673 319.631,325.922 320.079,326.441 320.686,327.332 321.3,328.525 321.628,329.421 321.926,330.686 322.025,331.56 322.022,332.392 322.822,329.917 323.334,327.681 323.518,325.57 323.497,325.015 323.418,324.351 323.285,323.705 323.091,323.064 322.984,322.798 " fill="none" stroke-width="0.5" stroke="rgb(0,0,0)" />
	<polygon points="365.242,329.956 364.5,330.401 365.707,330.567 365.845,330.597 365.636,329.725 " fill="none" stroke-width="0.5" stroke="rgb(0,0,0)" />
	<polygon points="74.8784,307.153 73.3121,311.502 72.3457,315.208 72.0191,318.232 72.053,319.432 72.1918,320.748 72.4543,321.986 72.8797,323.222 73.535,324.537 74.5125,325.996 75.2457,326.854 75.8662,325.203 76.3239,324.267 77.4283,322.469 78.064,321.629 79.4817,320.09 80.2672,319.388 81.9683,318.141 82.8626,317.608 84.8169,316.685 85.7716,316.339 87.949,315.771 88.9639,315.607 91.3976,315.447 92.5055,315.487 94.7526,315.798 95.8287,316.062 97.871,316.787 98.8308,317.238 100.65,318.32 100.851,318.465 100.643,318.158 100.168,317.297 99.4761,315.722 99.1838,314.872 98.7868,313.309 98.6498,312.5 97.5331,313.143 96.4261,313.626 93.9116,314.406 92.8165,314.625 90.1289,314.882 89.0851,314.881 87.3271,314.711 86.3061,314.512 84.6024,314.008 83.6375,313.619 82.0434,312.791 81.1546,312.213 79.7255,311.073 78.947,310.312 77.7383,308.868 77.1164,307.949 76.1834,306.213 75.7616,305.191 75.7432,305.129 " fill="none" stroke-width="0.5" stroke="rgb(0,0,0)" />
	<polygon points="361.982,302.383 361.678,302.464 357.337,303.492 357.089,303.544 352.878,304.337 352.617,304.379 348.933,304.889 348.541,304.929 345.783,305.109 344.934,305.099 344.341,305.045 343.95,304.967 344.029,306.397 343.928,307.642 343.739,308.691 343.425,309.797 342.922,310.997 342.379,311.955 341.523,313.089 340.733,313.891 339.675,314.727 338.624,315.365 338.438,315.453 340.108,316.22 340.905,316.67 345.765,319.983 346.484,320.569 350.501,324.455 351.115,325.161 351.64,325.88 351.848,324.939 352.179,323.926 352.754,322.616 352.941,322.23 353.754,320.714 353.846,320.55 354.589,319.271 352.878,318.865 352.646,318.805 350.798,318.279 350.03,317.997 348.722,317.402 346.508,315.556 346.012,314.844 345.035,311.73 345.531,309.458 345.734,309.014 347.502,306.864 348.074,306.452 349.091,305.874 349.974,305.49 350.514,305.289 351.651,304.932 351.965,304.844 353.299,304.512 353.494,304.467 354.968,304.157 355.091,304.133 356.646,303.843 356.719,303.83 358.142,303.584 361.228,302.865 364.419,301.787 365.305,301.39 " fill="none" stroke-width="0.5" stroke="rgb(0,0,0)" />
	<polygon points="128.54,293.995 128.657,294.428 130.042,300.536 130.156,301.263 130.682,307.234 130.677,308.235 130.473,310.358 131.091,310.035 131.569,309.876 133.808,309.623 133.988,309.64 135.378,309.961 135.528,310.017 137.106,310.934 137.227,311.035 138.365,312.341 138.46,312.493 139.001,313.643 139.071,313.852 139.273,314.647 139.32,314.919 139.384,315.426 139.411,315.769 139.427,316.087 139.432,316.3 139.456,316.55 139.463,316.576 139.489,316.629 139.514,316.664 139.524,316.672 139.54,316.681 139.639,316.713 139.955,316.745 140.237,316.719 140.4,316.672 140.467,316.637 140.489,316.62 140.502,316.603 140.525,316.559 140.53,316.541 139.583,312.106 136.628,305.972 132.036,298.278 127.593,290.99 " fill="none" stroke-width="0.5" stroke="rgb(0,0,0)" />
	<polygon points="401.625,304.365 402.619,306.357 403.992,308.421 405.664,310.436 407.541,312.303 409.515,313.93 411.627,315.346 412.596,315.939 411.357,313.734 409.217,310.261 406.774,307.023 404.138,304.48 401.484,302.944 401.151,302.881 " fill="none" stroke-width="0.5" stroke="rgb(0,0,0)" />
	<polygon points="437.577,310.709 437.389,310.829 436.452,311.306 436.214,311.4 435.494,311.627 435.207,311.696 434.682,311.796 434.345,311.842 433.969,311.882 433.584,311.908 433.315,311.92 432.881,311.928 432.617,311.927 431.848,311.904 431.626,311.893 430.78,311.834 430.657,311.824 429.754,311.74 429.703,311.736 428.769,311.64 427.851,311.548 427.336,311.503 427.313,312.782 427.307,312.958 427.217,314.76 427.168,315.254 428.008,314.801 429.009,314.384 431.167,313.729 432.221,313.52 434.525,313.295 435.251,313.273 437.293,313.346 437.718,313.379 438.047,313.416 438.004,312.523 438.014,311.826 438.141,310.24 " fill="none" stroke-width="0.5" stroke="rgb(0,0,0)" />
	<polygon points="312.173,302.848 311.44,303.438 306.85,306.521 305.857,307.049 304.711,307.513 304.946,307.506 307.759,307.625 308.229,307.665 310.867,308.007 311.367,308.095 313.77,308.637 314.335,308.797 316.062,309.388 315.95,309.246 315.265,308.119 314.392,306.187 313.965,304.726 313.649,302.552 313.634,301.447 " fill="none" stroke-width="0.5" stroke="rgb(0,0,0)" />
	<polygon points="434.566,291.073 433.893,292.196 433.652,292.563 432.701,293.894 432.629,293.993 431.561,295.42 430.756,296.525 432.244,297.367 434.165,298.404 434.292,298.475 435.997,299.455 436.509,299.789 437.693,300.659 439.231,302.407 439.639,303.142 439.808,303.966 440.196,303.089 440.286,302.929 439.77,302.661 438.396,300.373 436.434,293.883 435.073,289.934 " fill="none" stroke-width="0.5" stroke="rgb(0,0,0)" />
	<polygon points="108.517,291.993 108.505,292.351 108.229,296.557 108.113,297.371 107.324,300.953 108.338,301.029 108.622,301.187 110.418,302.977 110.485,302.5 110.538,301.153 110.22,296.517 109.376,292.096 108.517,289.035 " fill="none" stroke-width="0.5" stroke="rgb(0,0,0)" />
	<polygon points="458.557,287.215 457.39,287.754 456.154,288.778 454.782,290.436 453.32,292.696 452.409,294.311 454.751,294.073 456.17,294.114 459.359,294.628 460.912,295.125 462.154,295.741 462.028,294.941 462.021,294.94 462.024,294.917 462.021,294.894 462.044,294.781 462.045,294.779 462.052,294.7 462.062,294.551 462.07,294.338 462.075,294.067 462.077,293.745 462.077,293.511 462.003,291.996 461.79,290.545 461.44,289.192 460.995,288.097 460.556,287.392 460.268,287.105 460.175,287.055 459.95,287.019 " fill="none" stroke-width="0.5" stroke="rgb(0,0,0)" />
	<polygon points="337.837,293.652 338.597,294.693 338.82,294.199 338.992,293.851 339.099,293.652 338.857,293.635 337.813,293.614 " fill="none" stroke-width="0.5" stroke="rgb(0,0,0)" />
	<polygon points="89.6255,277.026 89.5531,277.178 86.6395,283.054 86.5932,283.146 84.238,287.68 82.9794,290.109 83.3298,290.099 83.8458,290.256 85.6481,291.203 86.1696,291.617 86.6983,292.098 87.2632,292.682 87.7482,293.184 88.0228,293.423 88.1049,293.474 88.1505,293.479 89.0598,293.355 89.2167,293.27 89.4611,292.974 89.9664,291.744 90.4558,289.364 90.7817,285.945 90.9375,281.606 90.9744,276.401 90.9821,276.148 91.1085,273.787 " fill="none" stroke-width="0.5" stroke="rgb(0,0,0)" />
	<polygon points="54.1956,275.404 54.1836,276.696 54.471,278.06 55.2639,279.755 55.5789,280.253 56.0499,280.98 56.0858,281.036 56.5309,281.742 56.6427,281.927 57.0342,282.606 57.2151,282.947 57.5409,283.618 57.76,284.135 58.0077,284.816 58.2066,285.498 58.3642,286.208 58.4794,286.993 58.5346,287.749 58.4833,288.99 58.1421,291.166 58.0925,291.364 58.5015,290.768 60.9784,286.209 61.7631,282.792 61.7321,282.583 61.67,282.349 61.5872,282.14 61.4673,281.919 61.2821,281.657 60.9982,281.336 60.4094,280.791 60.3967,280.779 58.4747,278.989 58.1519,278.662 56.6378,276.991 56.4367,276.756 55.2139,275.243 55.1852,275.207 54.4404,274.27 " fill="none" stroke-width="0.5" stroke="rgb(0,0,0)" />
	<polygon points="420.354,265.09 420.191,265.512 419.546,266.987 419.464,267.167 418.839,268.467 419.91,268.704 420.154,268.763 421.778,269.201 422.533,269.465 423.682,269.965 425.909,271.747 426.345,272.343 427.393,275.434 426.748,278.134 426.282,279.005 424.051,281.235 422.777,281.917 421.729,282.345 419.838,282.896 419.412,283.002 417.093,283.479 416.961,283.504 414.438,283.959 411.998,284.429 409.936,284.931 408.311,285.508 406.98,286.126 405.82,286.772 404.971,287.352 405.268,287.375 406.647,287.404 410.306,287.169 413.586,286.564 416.615,285.69 419.378,284.658 421.87,283.579 424.04,282.593 424.231,282.51 425.972,281.798 426.876,281.517 428.117,281.247 429.732,281.141 429.919,281.157 430.891,281.328 431.06,281.374 431.872,281.684 429.397,276.461 426.543,271.445 423.391,266.905 420.772,263.867 " fill="none" stroke-width="0.5" stroke="rgb(0,0,0)" />
	<polygon points="157.34,223.202 157.237,223.385 156.039,225.417 155.006,227.216 154.292,228.68 154.123,229.19 154.257,229.244 156.03,231.984 156.223,233.67 156.163,235.097 156.147,235.34 155.988,237.162 155.977,237.276 155.752,239.348 155.746,239.401 155.489,241.577 155.487,241.589 155.231,243.71 155.014,245.599 154.871,247.048 154.829,247.836 154.865,248.968 154.881,249.111 156.89,250.408 157.938,252.391 158.404,254.015 158.507,254.438 158.872,256.249 158.918,256.512 159.21,258.441 159.23,258.587 159.474,260.565 159.48,260.615 159.702,262.552 159.918,264.322 160.143,265.796 160.173,265.936 161.818,266.554 163.534,268.855 164.075,270.231 164.642,271.664 165.229,273.061 165.842,274.37 166.473,275.53 167.098,276.481 167.675,277.171 168.519,277.916 168.763,278.127 169.147,278.494 169.417,278.777 169.725,279.131 169.988,279.459 170.261,279.832 170.504,280.195 170.762,280.622 170.972,281.009 171.221,281.531 171.387,281.933 171.614,282.602 171.722,283.007 171.882,283.888 171.921,284.287 171.865,285.755 171.657,286.945 171.629,287.034 172.939,285.352 173.267,284.969 175.267,282.84 176.907,281.917 175.582,281.018 175.029,280.589 170.915,276.944 170.054,275.975 167.144,271.79 166.306,269.894 165.202,265.068 165.276,262.348 166.418,258.375 167.458,256.404 170.467,252.769 171.232,252.011 175.487,248.56 175.791,248.331 180.631,244.936 185.244,241.585 188.834,238.361 190.879,235.473 191.602,232.409 191.522,231.705 191.373,230.837 191.158,229.882 190.885,228.895 190.56,227.925 190.235,227.112 189.942,229.435 189.6,230.766 188.253,234.16 187.678,235.237 185.643,238.197 185.021,238.948 182.469,241.519 181.924,242 179.028,244.228 178.606,244.522 175.539,246.451 175.25,246.62 172.182,248.296 172.033,248.375 169.136,249.842 165.917,250.378 162.969,248.979 161.349,246.146 161.342,243.847 161.585,242.708 161.796,241.611 161.983,240.514 162.142,239.417 162.27,238.32 162.365,237.222 162.424,236.123 162.442,235.103 162.342,233.05 162.027,231.068 161.455,229.069 160.57,227.02 159.296,224.89 157.597,222.726 " fill="none" stroke-width="0.5" stroke="rgb(0,0,0)" />
	<polygon points="391.276,271.428 390.79,273.742 390.474,275.826 390.362,277.71 390.409,278.846 390.557,279.966 390.752,280.762 391.236,279.754 391.657,278.451 391.937,276.969 392.044,275.273 391.998,273.057 391.87,270.855 391.746,269.454 " fill="none" stroke-width="0.5" stroke="rgb(0,0,0)" />
	<polygon points="342.062,271.432 339.358,272.943 338.244,274.143 337.845,275.717 337.879,275.974 337.976,276.19 338.133,276.373 338.538,276.655 339.267,276.972 340.254,277.233 341.366,277.392 341.777,277.41 341.749,277.136 341.686,276.522 341.682,276.48 341.625,275.89 341.615,275.77 341.575,275.225 341.563,274.995 341.548,274.506 341.569,273.833 341.593,273.57 341.776,272.591 341.848,272.337 342.205,271.409 342.225,271.368 " fill="none" stroke-width="0.5" stroke="rgb(0,0,0)" />
	<polygon points="133.302,217.537 129.213,218.832 127.805,219.466 129.663,220.004 131.718,222.539 131.498,227.036 130.368,229.235 129.538,231.335 128.866,233.558 128.347,235.836 127.972,238.101 127.727,240.283 127.595,242.313 127.563,243.797 128.957,253.795 132.663,263.626 138.106,273.503 139.72,275.948 139.675,275.498 140.386,274.056 140.385,274.056 140.391,274.033 140.305,273.548 139.842,272.511 138.834,270.83 137.48,268.75 137.402,268.628 135.992,266.332 135.769,265.93 134.539,263.487 134.237,262.761 133.367,260.154 133.125,259.07 132.795,256.282 133.4,253.075 134.439,252.021 134.376,251.433 133.984,249.811 133.322,247.668 132.506,245.216 132.493,245.177 131.657,242.602 131.6,242.414 130.871,239.856 130.778,239.481 130.263,237.022 130.167,236.37 129.971,234.093 130.678,230.907 133.078,228.696 133.24,228.659 133.297,227.937 133.32,227.709 133.62,225.242 133.665,224.944 134.125,222.366 134.205,221.992 134.863,219.379 135.001,218.918 135.639,217.083 " fill="none" stroke-width="0.5" stroke="rgb(0,0,0)" />
	<polygon points="350.997,268.015 350.985,268.02 352.046,268.338 352.821,268.661 352.885,267.11 " fill="none" stroke-width="0.5" stroke="rgb(0,0,0)" />
	<polygon points="358.606,246.422 357.741,247.005 355.69,248.12 354.709,248.535 353.558,248.893 355.026,249.254 358.118,249.511 361.14,250.743 362.917,253.48 362.568,257.325 360.825,260.913 360.649,261.135 360.735,261.126 361.008,261.104 361.991,261.052 362.165,261.046 363.074,261.027 363.169,261.026 363.527,261.024 363.481,260.325 363.478,260.274 363.421,259.278 363.417,259.191 363.377,258.207 363.373,258.073 363.358,257.126 363.358,256.965 363.367,256.327 363.373,256.135 363.402,255.542 363.422,255.265 363.476,254.73 363.533,254.321 363.615,253.856 363.765,253.231 363.881,252.848 364.285,251.869 364.438,251.58 365.478,250.224 365.329,250.161 364.211,249.564 363.342,248.986 362.353,248.181 361.605,247.442 360.778,246.449 360.177,245.564 360.012,245.262 " fill="none" stroke-width="0.5" stroke="rgb(0,0,0)" />
	<polygon points="382.3,242.034 381.911,243.348 381.495,244.361 380.876,245.523 380.259,246.442 379.434,247.435 378.648,248.208 377.643,249.012 376.732,249.603 375.571,250.201 374.728,250.536 375.426,251.157 376.026,251.783 377.144,253.153 377.369,253.449 378.482,255.02 378.536,255.098 378.552,255.122 379.701,253.914 379.91,253.706 381.098,252.587 381.702,252.094 382.829,251.302 384.449,250.525 385.488,250.224 387.467,250.03 387.768,250.056 388.958,250.293 389.213,250.375 390.614,251.055 390.824,251.197 392.021,252.301 392.189,252.512 392.905,253.679 393.033,253.963 393.248,254.585 393.934,254.035 394.142,253.906 395.319,253.358 395.551,253.282 396.71,253.039 396.961,253.014 399.408,253.333 400.385,253.699 402.085,254.721 403.051,255.576 403.662,256.211 404.624,257.389 404.821,257.646 405.774,258.966 406.17,259.507 407.338,258.606 408.611,257.582 408.716,257.499 409.925,256.574 410.354,256.277 410.357,256.276 407.286,255.098 401.916,253.59 396.527,252.085 396,251.908 391.187,250.018 390.041,249.4 386.164,246.668 384.716,245.157 382.396,241.542 " fill="none" stroke-width="0.5" stroke="rgb(0,0,0)" />
	<polygon points="445.215,250.784 446.391,253.697 446.393,253.703 447.746,257.068 447.775,257.139 448.657,259.427 449.1,258.594 449.168,258.469 450.85,255.488 450.899,255.402 451.808,253.856 451.35,253.625 451.163,253.526 447.708,251.608 447.388,251.415 444.82,249.75 " fill="none" stroke-width="0.5" stroke="rgb(0,0,0)" />
	<polygon points="312.921,223.798 311.944,224.216 310.086,224.804 309.004,225.028 307.023,225.234 306.892,225.234 307.887,228.313 309.301,229.903 311.812,231.397 315.384,232.948 315.585,233.041 319.385,234.878 320.364,235.486 323.628,238.032 324.953,239.529 327.238,243.344 327.95,245.323 327.972,245.47 328.605,244.969 329.722,244.271 330.651,243.807 331.819,243.357 332.657,243.109 333.805,242.867 334.484,242.773 334.196,242.426 333.612,241.56 332.497,239.512 332.082,238.529 331.377,236.269 331.158,235.197 330.965,233.286 329.91,233.614 328.84,233.833 327.435,233.975 326.332,233.974 324.938,233.832 323.862,233.611 322.559,233.203 321.577,232.786 320.395,232.141 319.532,231.557 318.5,230.703 317.77,229.972 316.916,228.938 316.333,228.074 315.687,226.888 315.272,225.906 314.863,224.597 314.643,223.524 314.579,222.889 " fill="none" stroke-width="0.5" stroke="rgb(0,0,0)" />
	<polygon points="103.616,234.667 103.225,238.764 103.204,238.896 105.839,235.66 103.991,234.719 103.63,234.02 " fill="none" stroke-width="0.5" stroke="rgb(0,0,0)" />
	<polygon points="463.894,213.936 463.889,214.331 463.761,216.852 463.729,217.231 463.392,220.012 463.361,220.228 462.885,223.169 462.867,223.273 462.322,226.274 462.32,226.287 461.781,229.207 461.329,231.886 461.031,234.166 460.936,235.839 461.018,236.896 461.244,237.897 461.557,238.735 461.982,238.26 463.487,236.103 464.918,233.484 466.091,230.595 466.862,227.623 467.128,224.761 466.554,219.612 465.091,215.61 463.892,213.81 " fill="none" stroke-width="0.5" stroke="rgb(0,0,0)" />
	<polygon points="412.794,235.244 414.37,236.753 411.347,233.291 " fill="none" stroke-width="0.5" stroke="rgb(0,0,0)" />
	<polygon points="381.306,224.561 380.72,225.432 379.717,226.648 378.98,227.386 377.764,228.388 376.909,228.965 377.628,229.432 378.633,230.23 379.382,230.951 380.206,231.912 380.342,232.107 380.338,232.017 380.474,230.09 380.539,229.55 380.896,227.468 380.956,227.168 381.461,224.971 381.491,224.846 381.793,223.662 " fill="none" stroke-width="0.5" stroke="rgb(0,0,0)" />
	<polygon points="47.5108,226.199 47.0285,226.403 44.501,227.332 43.8799,227.52 43.351,227.645 43.9825,227.928 44.345,228.148 45.4455,229.027 45.7284,229.321 46.5134,230.359 46.7228,230.718 47.0792,231.499 48.7036,226.041 48.9258,225.518 " fill="none" stroke-width="0.5" stroke="rgb(0,0,0)" />
	<polygon points="86.1102,211.058 84.2447,213.174 83.6797,213.549 83.3269,213.758 84.3253,214.347 84.8968,214.795 85.7971,215.69 86.2599,216.271 86.8353,217.159 87.1915,217.847 87.5304,218.655 87.7822,219.423 87.9654,220.145 88.1149,220.966 88.1939,221.625 88.2432,222.473 88.2137,223.439 87.8438,226.525 88.5546,225.709 89.2143,225.07 89.9509,224.468 90.9849,223.802 91.7217,223.437 93.2351,222.948 93.964,222.826 95.626,222.804 96.2697,222.894 97.7326,223.315 98.3443,223.588 99.5599,224.336 100.123,224.793 100.998,225.69 101.495,226.334 101.883,226.951 101.87,226.73 101.864,226.605 101.839,225.926 101.836,225.795 101.827,225.131 101.842,224.66 102.145,220.583 102.265,219.778 103.106,216.078 103.338,215.32 104.567,212.143 104.566,212.143 101.987,213.077 100.728,213.37 97.7301,213.7 96.5291,213.699 93.3399,213.343 92.1175,213.061 89.2533,212.042 88.1381,211.495 86.2341,210.273 " fill="none" stroke-width="0.5" stroke="rgb(0,0,0)" />
	<polygon points="63.5596,215.452 61.8257,216.888 62.4399,217.065 63.0842,217.361 64.4678,218.273 64.9846,218.741 65.9067,219.826 66.3065,220.446 66.8043,221.419 67.0972,222.169 67.3338,222.939 67.5303,223.8 67.6306,224.384 67.7409,225.335 67.7671,225.686 69.0828,222.447 69.4336,221.736 72.0982,217.202 73.4721,215.775 71.7333,215.631 70.8047,215.472 68.733,214.93 67.7964,214.59 65.926,213.712 65.0178,213.172 64.7644,212.986 " fill="none" stroke-width="0.5" stroke="rgb(0,0,0)" />
	<polygon points="450.732,206.223 448.9,206.883 446.065,208.062 445.965,208.103 442.376,209.513 442.078,209.621 437.768,211.031 437.346,211.151 432.225,212.381 431.732,212.476 425.71,213.346 425.186,213.396 418.173,213.727 418.093,213.723 420.021,214.245 420.981,214.605 425.425,216.766 426.522,217.472 430.215,220.536 431.063,221.419 434.194,225.509 435.939,221.45 436.462,220.506 438.984,216.852 439.502,216.211 442.487,213.043 442.969,212.589 446.1,209.986 446.578,209.63 449.539,207.672 450.115,207.34 452.38,206.211 451.449,206.103 " fill="none" stroke-width="0.5" stroke="rgb(0,0,0)" />
	<polygon points="184.281,210.887 185.195,211.73 187.168,214.018 187.908,215.126 189.117,217.527 189.54,218.67 190.127,221.046 190.71,219.88 193.576,218.318 197.029,218.938 196.363,217.766 195.76,215.584 195.095,214.317 194.218,213.307 192.993,212.413 191.268,211.617 188.957,210.978 186.048,210.563 183.704,210.466 " fill="none" stroke-width="0.5" stroke="rgb(0,0,0)" />
	<polygon points="337.721,212.33 336.075,213.215 336.884,214.191 337.469,215.056 338.117,216.243 338.534,217.226 338.681,217.696 339.056,217.443 341.029,216.37 340.653,215.994 339.797,214.958 339.212,214.093 338.566,212.905 338.19,212.016 " fill="none" stroke-width="0.5" stroke="rgb(0,0,0)" />
	<polygon points="380.913,197.376 380.692,198.453 380.26,199.829 379.842,200.81 379.16,202.058 378.577,202.919 377.675,204.008 376.947,204.735 376.172,205.376 376.892,205.766 377.762,206.352 378.978,207.354 379.714,208.09 380.717,209.305 381.304,210.174 382.061,211.568 382.476,212.553 382.954,214.094 383.171,215.163 383.329,216.733 383.37,216.48 383.474,214.82 383.466,214.492 383.437,214.116 383.393,213.807 383.341,213.566 383.288,213.392 383.24,213.274 383.2,213.2 382.999,212.9 382.07,209.772 383.096,206.674 385.707,204.717 389.578,204.937 383.373,199.877 382.468,198.938 380.958,196.939 " fill="none" stroke-width="0.5" stroke="rgb(0,0,0)" />
	<polygon points="399.919,211.212 400.874,212.227 402.099,213.92 402.334,213.397 404.547,212.069 404.461,212.058 402.993,211.656 397.662,209.357 " fill="none" stroke-width="0.5" stroke="rgb(0,0,0)" />
	<polygon points="57.2701,202.46 56.8851,202.804 55.1049,204.249 54.6526,204.58 52.8657,205.749 52.339,206.052 50.5604,206.951 49.9546,207.212 48.1991,207.846 47.513,208.044 46.5728,208.249 48.1673,208.062 50.02,207.78 52.0073,207.423 54.1377,206.994 56.4189,206.499 58.8743,205.94 59.0635,205.956 58.4331,203.962 58.2058,202.854 58.0875,201.656 " fill="none" stroke-width="0.5" stroke="rgb(0,0,0)" />
	<polygon points="114.284,200.059 114.151,200.508 114.544,200.249 115.108,199.935 114.514,199.73 114.394,199.54 " fill="none" stroke-width="0.5" stroke="rgb(0,0,0)" />
	<polygon points="124.174,196.65 123.589,196.738 123.192,196.849 122.992,196.937 122.864,197.255 123.945,197.115 124.192,197.089 125.415,196.987 125.622,196.974 126.882,196.917 127.053,196.912 127.256,196.909 126.874,196.812 124.794,196.622 " fill="none" stroke-width="0.5" stroke="rgb(0,0,0)" />
	<polygon points="355.058,196.173 354.834,196.243 355.122,196.365 355.64,196.647 355.569,195.956 " fill="none" stroke-width="0.5" stroke="rgb(0,0,0)" />
	<polygon points="59.9427,190.496 59.914,190.502 60.4062,190.958 60.8353,190.275 " fill="none" stroke-width="0.5" stroke="rgb(0,0,0)" />
	<polygon points="180.133,186.718 180.582,186.607 183.848,185.992 183.779,185.982 182.201,185.494 179.15,184.011 " fill="none" stroke-width="0.5" stroke="rgb(0,0,0)" />
	<polygon points="367.379,166.375 366.567,167.357 365.832,168.091 364.848,168.901 363.98,169.486 362.85,170.097 362.094,170.416 362.562,170.98 363.145,171.84 364.185,173.739 364.603,174.72 365.261,176.813 365.484,177.891 365.713,180.13 365.713,181.245 365.543,182.899 366.274,182.747 367.729,182.597 368.844,182.596 370.316,182.747 371.391,182.967 372.599,183.346 371.586,181.274 371.28,180.506 368.514,171.658 368.352,170.997 367.491,166.21 " fill="none" stroke-width="0.5" stroke="rgb(0,0,0)" />
	<polygon points="151.069,171.948 150.398,172.227 145.949,173.738 145.227,173.929 140.315,174.875 140.018,174.912 141.889,176.215 142.54,176.748 145.934,179.994 146.369,180.461 148.264,182.754 148.775,179.506 148.968,178.692 149.926,175.696 150.548,174.386 151.939,172.247 153.347,170.817 " fill="none" stroke-width="0.5" stroke="rgb(0,0,0)" />
	<polygon points="108.763,159.755 108.18,160.618 107.325,161.655 106.594,162.386 105.559,163.242 104.696,163.826 103.51,164.473 102.527,164.89 101.219,165.299 100.144,165.52 98.7427,165.663 97.6402,165.663 96.2331,165.52 95.1614,165.301 93.8487,164.892 92.867,164.477 91.6773,163.83 90.8133,163.246 90.1914,162.734 90.0569,163.128 89.0471,165.703 92.2069,165.79 95.5498,167.028 96.1535,167.294 99.529,169.032 100.096,169.369 103.356,171.584 103.916,172.02 106.914,174.686 107.472,175.26 110.061,178.353 110.593,179.112 112.506,182.402 112.581,182.077 113.3,179.772 113.714,178.793 114.757,176.875 115.522,175.801 116.908,174.284 118.029,173.348 119.78,172.246 120.388,171.965 118.245,170.738 117.274,170.031 114.381,167.386 113.623,166.531 111.401,163.42 110.874,162.507 109.306,159.058 109.242,158.875 " fill="none" stroke-width="0.5" stroke="rgb(0,0,0)" />
	<polygon points="78.5468,180.968 78.6424,181.032 78.6794,180.9 78.7044,180.824 " fill="none" stroke-width="0.5" stroke="rgb(0,0,0)" />
	<polygon points="343.698,162.524 342.795,163.275 338.688,165.998 337.765,166.49 334.82,167.712 334.907,167.798 335.719,168.78 336.305,169.648 336.476,169.962 337.005,169.323 337.732,168.597 339.391,167.225 340.25,166.644 342.15,165.606 343.13,165.19 345.222,164.533 346.299,164.311 346.706,164.269 346.336,163.393 345.949,162.149 345.731,161.078 345.671,160.487 " fill="none" stroke-width="0.5" stroke="rgb(0,0,0)" />
	<polygon points="163.807,163.664 163.509,163.922 159.921,166.809 159.492,167.121 156.968,168.775 157.491,168.565 159.986,168.138 161.952,168.162 163.68,168.5 165.024,168.951 166.464,169.654 166.144,169.042 165.881,168.456 164.078,163.709 164.003,163.482 " fill="none" stroke-width="0.5" stroke="rgb(0,0,0)" />
	<polygon points="423.881,139.535 422.142,142.36 421.134,143.564 418.393,146.016 417.455,146.691 413.839,148.748 413.062,149.113 408.7,150.752 408.059,150.949 405.553,151.552 405.679,151.545 405.896,151.536 409.093,151.468 409.697,151.489 417.03,152.148 418.086,152.35 424.506,154.247 425.512,154.657 431.197,157.668 431.998,158.187 437.13,162.189 437.677,162.678 438.853,163.882 435.399,157.34 434.98,156.298 433.134,149.86 433.215,146.598 433.735,145.89 433.706,145.884 431.739,145.368 430.931,145.086 429.252,144.348 428.285,143.799 426.925,142.832 425.907,141.89 424.897,140.685 424.074,139.351 424.01,139.203 " fill="none" stroke-width="0.5" stroke="rgb(0,0,0)" />
	<polygon points="382.229,152.442 385.032,152.87 387.453,152.986 382.086,152.404 " fill="none" stroke-width="0.5" stroke="rgb(0,0,0)" />
	<polygon points="352.738,131.301 352.819,131.602 353.196,133.176 353.256,133.462 353.53,134.956 353.578,135.266 353.745,136.609 353.78,137.007 353.836,138.127 353.819,138.917 353.192,145.518 352.962,146.651 352.439,148.299 352.479,148.278 353.464,147.863 354.712,147.476 355.78,147.259 357.121,147.124 358.213,147.124 359.552,147.259 360.62,147.476 361.868,147.863 362.852,148.278 363.981,148.89 364.851,149.476 365.835,150.287 366.57,151.023 367.074,151.633 367.263,151.248 367.314,151.166 368.219,150.061 368.277,150.006 369.676,149.055 369.739,149.026 371.172,148.6 365.768,145.433 364.935,144.832 359.599,140.164 358.94,139.477 354.692,134.193 354.177,133.429 352.439,130.305 " fill="none" stroke-width="0.5" stroke="rgb(0,0,0)" />
	<polygon points="130.809,133.411 130.089,133.735 129.392,134.113 128.796,134.492 128.387,134.793 128.003,135.134 125.024,136.468 123.032,136.09 123.978,137.041 124.743,138.663 125.148,139.874 125.626,142.168 125.668,142.394 126.07,144.83 126.526,146.735 126.875,147.485 126.951,147.503 127.076,147.445 127.491,147.168 127.997,146.707 128.566,146.011 129.166,145.022 129.781,143.615 130.102,142.638 130.429,141.506 130.708,140.38 130.939,139.273 131.118,138.194 131.246,137.156 131.322,136.171 131.347,135.259 131.306,133.946 131.231,133.262 " fill="none" stroke-width="0.5" stroke="rgb(0,0,0)" />
	<polygon points="101.505,136.97 101.505,138.073 101.362,139.478 101.142,140.551 100.956,141.149 101.218,141.202 102.527,141.612 103.509,142.028 104.695,142.675 105.558,143.258 106.593,144.114 107.323,144.844 107.89,145.53 108.188,143.8 108.283,143.36 108.741,141.595 108.935,140.993 109.565,139.368 109.583,139.331 107.594,139.811 105.42,139.196 102.783,137.807 101.45,136.43 " fill="none" stroke-width="0.5" stroke="rgb(0,0,0)" />
	<polygon points="314.793,122.886 313.194,123.318 311.787,123.974 310.568,124.813 309.557,125.783 308.777,126.816 308.25,127.821 307.809,129.211 305.938,131.884 305.837,131.921 307.054,132.729 308.202,133.342 309.297,133.786 310.383,134.089 311.518,134.27 312.802,134.335 313.19,134.323 313.729,134.282 314.345,134.214 315.016,134.127 315.704,134.034 315.748,134.029 316.403,133.946 316.548,133.929 317.136,133.871 317.437,133.849 317.944,133.827 318.494,133.831 319.058,133.863 319.751,133.947 320.26,134.042 321.058,134.256 321.505,134.412 322.4,134.82 322.778,135.036 323.716,135.711 324.021,135.984 324.88,136.962 325.105,137.291 325.73,138.503 325.869,138.885 326.167,140.156 326.215,140.589 326.219,141.742 326.14,142.517 325.987,143.354 325.924,143.594 326.661,143.535 329.514,142.829 330.945,142.193 329.278,141.702 327.486,139.708 327,138.781 326.516,138.021 325.928,137.247 325.234,136.477 324.43,135.728 323.512,135.013 322.474,134.346 321.092,133.627 320.675,133.411 319.975,132.981 319.613,132.718 318.966,132.168 318.665,131.869 318.111,131.223 317.869,130.893 317.431,130.187 317.247,129.832 316.933,129.1 316.803,128.726 316.607,127.998 316.531,127.611 316.44,126.905 316.415,126.512 316.433,125.604 316.511,124.861 316.7,123.897 316.924,123.128 317.069,122.74 316.697,122.72 " fill="none" stroke-width="0.5" stroke="rgb(0,0,0)" />
	<polygon points="58.373,137.348 58.146,138.073 59.9819,137.717 60.3545,137.658 61.1955,137.555 58.1263,136.563 " fill="none" stroke-width="0.5" stroke="rgb(0,0,0)" />
	<polygon points="75.6159,137.672 75.6736,137.679 76.5679,137.789 76.6814,137.806 76.6814,136.971 76.7883,135.918 " fill="none" stroke-width="0.5" stroke="rgb(0,0,0)" />
	<polygon points="123.151,111.875 121.564,118.224 121.54,118.318 119.813,124.734 119.707,125.083 117.79,130.68 117.411,131.538 116.341,133.486 116.35,133.483 119.798,133.8 119.533,133.53 119.356,128.961 121.2,124.531 121.574,123.793 123.916,119.941 124.423,119.24 127.206,115.969 127.833,115.343 130.117,113.407 128.689,112.327 127.977,111.682 126.475,110.059 126.235,109.781 124.742,107.933 124.369,107.476 " fill="none" stroke-width="0.5" stroke="rgb(0,0,0)" />
	<polygon points="93.4974,111.462 93.4063,111.548 91.2297,113.569 90.8705,113.875 88.6073,115.638 87.8229,116.147 85.4847,117.394 83.9734,117.932 81.572,118.405 79.9394,118.477 78.7665,118.352 78.9002,119.138 78.9684,119.742 79.1571,123.057 79.1646,123.487 79.1328,124.914 79.1225,125.15 79.0314,126.538 79.0121,126.762 78.8679,128.109 78.841,128.321 78.6498,129.622 78.6165,129.822 78.3846,131.074 78.3459,131.264 78.3236,131.364 78.5125,131.017 79.0952,130.153 79.9498,129.117 80.6796,128.385 81.7143,127.529 82.578,126.944 83.7641,126.296 84.7477,125.878 86.0566,125.469 87.1322,125.248 88.5353,125.105 89.6396,125.105 91.0446,125.248 92.1189,125.468 93.4297,125.878 94.4123,126.294 95.6003,126.942 96.4638,127.526 97.5001,128.383 97.8143,128.697 97.0588,125.344 96.9736,124.869 96.1799,118.935 96.1655,118.817 95.5142,112.983 95.0604,109.942 " fill="none" stroke-width="0.5" stroke="rgb(0,0,0)" />
	<polygon points="183.035,103.786 183.59,107.757 183.637,108.769 183.594,109.66 183.532,110.263 183.4,111.089 183.225,111.839 182.995,112.582 182.622,113.491 182.286,114.136 181.606,115.147 181.155,115.677 180.116,116.621 179.542,117.021 178.261,117.68 177.556,117.932 176.286,118.22 175.442,118.308 173.467,118.151 170.52,117.36 172.65,120.876 173.075,121.742 174.762,126.123 175.006,126.942 175.46,129.069 177.312,127.422 177.823,127.019 180.823,124.933 181.489,124.537 184.61,122.97 185.461,122.629 188.683,121.644 189.715,121.435 193.02,121.093 194.185,121.098 198.145,121.54 197.737,121.233 194.221,117.765 193.89,117.407 189.646,112.395 189.468,112.173 184.958,106.245 184.818,106.053 182.936,103.341 " fill="none" stroke-width="0.5" stroke="rgb(0,0,0)" />
	<polygon points="384.664,94.4879 378.487,99.1093 377.591,99.654 370.643,103.006 369.706,103.356 362.207,105.398 361.254,105.568 353.423,106.258 352.536,106.263 347.241,105.865 346.667,105.781 347.159,106.326 347.501,106.88 348.039,108.04 348.268,108.738 348.459,109.501 348.598,110.297 348.66,110.777 348.679,111.008 348.873,110.631 349.008,110.416 349.52,109.73 349.68,109.548 350.162,109.063 350.339,108.906 350.7,108.612 350.888,108.472 351.079,108.336 351.272,108.205 352.579,107.552 353.76,107.15 354.964,106.887 356.804,106.699 357.09,106.677 359.488,106.559 362.285,106.373 365.409,105.992 368.865,105.29 372.639,104.138 376.835,102.344 377.263,102.127 377.572,101.982 378.159,101.729 378.477,101.603 379.06,101.394 379.385,101.289 379.961,101.122 380.292,101.037 380.861,100.911 381.195,100.847 381.754,100.759 382.092,100.716 382.638,100.665 382.979,100.643 383.511,100.626 384.506,100.686 386.471,100.986 388.304,101.615 389.722,102.406 391.05,103.446 392.094,104.564 392.66,105.284 393.506,106.566 393.546,106.628 394.139,107.555 394.634,107.509 395.804,107.233 397.267,106.754 398.921,106.131 400.638,105.466 400.777,105.414 402.428,104.826 402.818,104.704 404.337,104.288 405.142,104.132 406.488,103.974 408.937,104.248 410.979,104.969 412.849,106.092 414.992,108.058 415.709,108.86 417.839,111.776 418.192,112.327 420.193,115.899 420.414,116.339 422.171,120.272 422.339,120.696 423.737,124.694 423.885,125.196 424.6,128.112 424.725,127.906 425.464,126.92 426.226,126.095 427.235,125.207 427.726,124.862 427.663,124.826 426.669,124.145 425.809,123.413 424.901,122.461 424.223,121.587 423.432,120.32 422.993,119.456 422.489,118.194 422.286,117.583 421.914,116.197 421.844,115.904 421.539,114.448 421.536,114.435 421.258,113.095 420.994,112.076 420.763,111.461 420.649,111.269 420.16,110.774 418.666,107.872 419.098,104.638 421.301,102.23 421.671,102.178 419.901,102.251 419.623,102.255 416.336,102.223 416.229,102.22 412.897,102.122 412.793,102.118 409.423,101.955 409.321,101.949 405.924,101.72 405.823,101.712 402.407,101.418 402.306,101.408 398.881,101.049 398.779,101.037 395.352,100.612 395.25,100.599 391.831,100.109 391.757,100.098 391.282,100.023 390.826,99.9311 390.441,99.8362 389.753,99.6174 389.449,99.4981 388.498,99.0126 388.267,98.8647 387.189,97.9561 387.023,97.7754 386.164,96.5213 386.055,96.3037 385.622,95.0892 385.563,94.8304 385.437,93.9396 385.428,93.7856 " fill="none" stroke-width="0.5" stroke="rgb(0,0,0)" />
	<polygon points="348.106,120.546 348.015,121.019 347.623,122.659 349.658,124.287 349.879,124.633 348.778,121.422 348.525,120.327 348.348,118.905 " fill="none" stroke-width="0.5" stroke="rgb(0,0,0)" />
	<polygon points="145.012,98.7374 144.464,101.714 143.887,104.94 143.791,105.372 143.285,107.287 144.549,107 145.36,106.879 149.489,106.577 150.5,106.597 155.377,107.149 155.792,107.247 154.993,106.577 154.956,106.546 150.514,102.749 146.601,99.6029 145.055,98.5833 " fill="none" stroke-width="0.5" stroke="rgb(0,0,0)" />
	<polygon points="326.437,98.6924 325.742,99.6956 327.659,100.088 328.352,100.279 331.092,101.23 331.686,101.476 333.931,102.566 334.378,102.81 336.174,103.9 336.418,104.057 337.042,104.483 337.178,104.412 337.378,104.312 337.973,104.032 338.507,103.814 338.804,103.711 336.896,103.036 336.411,102.838 332.763,101.137 332.449,100.978 329.341,99.2777 329.233,99.2168 326.978,97.9152 " fill="none" stroke-width="0.5" stroke="rgb(0,0,0)" />
	<polygon points="431.976,101.73 431.455,101.777 426.679,101.973 427.169,102.066 428.032,102.185 428.926,102.269 429.838,102.322 430.761,102.35 431.684,102.361 432.384,102.363 434.743,102.175 437.042,101.686 439.499,100.93 440.553,100.548 " fill="none" stroke-width="0.5" stroke="rgb(0,0,0)" />
	<polygon points="69.9156,92.0144 64.8575,94.6767 60.5124,97.0738 62.8183,97.3924 64.3546,97.842 67.7371,99.4018 69.0156,100.225 70.7926,101.759 70.7978,101.697 70.8142,101.532 71.0654,99.3432 71.0754,99.2621 71.3633,97.0467 71.3644,97.0389 71.6479,94.882 71.8858,92.8797 72.0438,91.1115 72.0455,91.066 " fill="none" stroke-width="0.5" stroke="rgb(0,0,0)" />
	<polygon points="395.766,78.8585 395.307,79.9201 391.878,85.9877 392.197,85.8248 394.064,84.7576 395.623,83.5819 396.748,82.2997 397.47,80.791 397.816,78.3573 397.781,77.3898 397.652,76.1098 397.46,74.8224 397.298,73.9393 " fill="none" stroke-width="0.5" stroke="rgb(0,0,0)" />
	<polygon points="172.372,76.9374 173.351,79.2451 173.397,79.1575 173.499,78.9983 174.119,78.2021 174.245,78.0673 175.104,77.3259 175.253,77.2219 175.885,76.8838 173.391,76.0908 171.939,75.7102 " fill="none" stroke-width="0.5" stroke="rgb(0,0,0)" />
	<polygon points="112.111,77.9323 112.289,78.9083 112.29,78.9176 112.306,78.8788 113.269,76.951 112.509,76.6835 111.616,76.1518 " fill="none" stroke-width="0.5" stroke="rgb(0,0,0)" />
	<polygon points="125.764,60.3399 125.003,63.5002 124.268,66.9861 124.194,67.2951 123.347,70.4022 122.921,71.488 122.249,72.7789 123.38,73.1816 125.491,74.5488 126.873,75.9933 127.552,76.8667 127.671,77.0552 127.674,76.6873 127.677,76.5292 127.724,75.2788 127.743,74.9894 127.843,73.887 127.909,73.3987 128.081,72.4604 128.29,71.6641 128.552,70.9061 129.151,69.6876 129.52,69.1261 130.937,67.6648 131.433,67.3161 132.697,66.783 131.427,65.1729 131.281,64.9787 129.544,62.5607 127.872,60.3463 126.443,58.7839 126.368,58.7294 " fill="none" stroke-width="0.5" stroke="rgb(0,0,0)" />
	<polygon points="105.611,58.3822 104.068,59.4443 102.281,60.8999 100.42,62.4933 100.284,62.6057 98.5027,64.0337 97.98,64.4044 96.3621,65.4144 94.8941,66.0535 94.7708,66.0867 95.0005,66.5379 95.3821,67.5062 95.5714,68.1655 95.7302,68.9119 95.8379,69.6785 95.8867,70.2232 95.9209,71.0931 95.9138,71.6569 95.7865,73.6328 95.7362,74.0999 95.5082,75.6032 96.1999,74.7211 96.8419,74.0339 98.9311,72.153 100.793,71.0539 102.851,70.3404 106.113,70.2437 107.898,71.1237 108.238,71.3778 107.974,70.5208 107.751,69.3696 107.487,66.2079 107.472,65.9798 107.328,62.5027 107.039,59.4837 106.611,57.903 " fill="none" stroke-width="0.5" stroke="rgb(0,0,0)" />
	<polygon points="145.571,69.5763 145.286,69.8247 144.409,70.4463 147.485,72.957 147.676,73.1206 147.712,73.153 147.503,72.6671 147.414,72.4471 146.11,69.0039 " fill="none" stroke-width="0.5" stroke="rgb(0,0,0)" />
	<polygon points="399.435,59.2797 399.432,60.2955 399.168,63.0282 399.243,62.9713 400.115,62.4339 400.352,62.3168 401.281,61.9595 401.535,61.8877 402.514,61.7054 402.776,61.681 405.271,62.0341 406.381,62.4695 407.878,63.3547 409.256,64.5025 409.568,64.7829 411.203,66.3724 412.997,68.0561 414.87,69.5609 416.803,70.7347 418.778,71.4777 421.125,71.7738 421.506,71.7559 422.242,71.6442 422.93,71.4427 423.454,71.1834 423.799,70.9034 424.071,70.5269 424.348,69.7746 424.445,68.8499 423.868,66.9339 421.937,64.9397 418.146,62.6967 413.236,60.6627 408.032,58.937 403.335,57.4942 403.079,57.4085 399.717,56.1901 399.125,55.8468 " fill="none" stroke-width="0.5" stroke="rgb(0,0,0)" />
	<polygon points="84.7816,60.4673 84.363,60.9859 82.4276,63.1046 83.5365,62.7061 84.5057,62.4555 85.3465,62.3189 85.3437,62.3138 85.2333,62.0131 84.9302,60.718 84.8911,60.3559 84.8949,60.3079 " fill="none" stroke-width="0.5" stroke="rgb(0,0,0)" />
	<polygon points="54.1991,62.0955 54.6028,61.5588 53.8922,61.5103 " fill="none" stroke-width="0.5" stroke="rgb(0,0,0)" />
	<polygon points="162.116,45.005 162.069,45.4232 161.732,46.7904 161.598,47.1328 160.86,48.4509 160.653,48.7236 159.663,49.7263 159.526,49.8327 160.257,50.0266 160.614,50.1345 163.992,51.283 164.142,51.3363 167.674,52.6528 167.678,52.6543 171.13,53.9446 172.726,54.4912 170.628,52.1446 166.827,48.3123 162.928,44.4371 162.791,44.2964 161.874,43.3172 " fill="none" stroke-width="0.5" stroke="rgb(0,0,0)" />
	<polygon points="143.316,50.2395 144.026,52.1076 144.856,54.031 145.119,53.4506 145.515,52.7636 146.283,51.7339 146.81,51.1784 147.898,50.294 148.068,50.1886 147.378,49.999 145.796,49.5774 144.354,49.243 143.136,49.0382 142.976,49.0274 " fill="none" stroke-width="0.5" stroke="rgb(0,0,0)" />
	<polygon points="92.1782,46.9309 90.4355,47.1875 88.5722,47.4983 87.2171,47.7273 87.8995,48.7892 88.3158,51.9805 88.9177,51.1676 89.0354,51.0144 90.7539,48.8576 92.2682,46.9212 " fill="none" stroke-width="0.5" stroke="rgb(0,0,0)" />
	<polygon points="445.547,38.0821 445.5,38.2209 444.842,40.0889 444.231,41.926 443.747,43.7122 443.428,45.4968 443.311,47.3539 443.355,48.0191 443.456,48.4908 443.559,48.7429 443.611,48.82 443.623,48.8319 443.72,48.8856 444.085,48.9916 444.695,49.0436 444.993,49.0017 445.222,48.6055 445.543,47.6728 445.815,46.2883 445.983,44.5682 446.036,42.6186 446.004,41.0096 445.916,39.4657 445.788,37.9954 445.735,37.4992 " fill="none" stroke-width="0.5" stroke="rgb(0,0,0)" />
</svg>
