<?xml version="1.0" standalone="no" ?>
<!DOCTYPE svg PUBLIC "-//W3C//DTD SVG 1.1//EN" "http://www.w3.org/Graphics/SVG/1.1/DTD/svg11.dtd">
<svg width="500px" height="500px" xmlns="http://www.w3.org/2000/svg" version="1.1" >
	<polygon points="463.723,280.806 462.947,294.641 460.637,309.222 456.713,324.711 451.145,340.776 443.92,357.101 435.032,373.385 424.482,389.341 412.27,404.688 398.399,419.162 382.864,432.507 365.654,444.477 346.742,454.833 326.084,463.336 303.622,469.743 279.282,473.793 252.978,475.209 227.357,473.873 203.528,470.039 181.453,463.955 161.082,455.858 142.371,445.967 125.291,434.498 109.827,421.667 95.9758,407.691 83.7424,392.797 73.1369,377.223 64.1706,361.213 56.8528,345.024 51.1884,328.92 47.1745,313.177 44.796,298.083 43.9905,283.436 43.9905,36.545 50.0051,36.4988 61.4968,36.4106 61.4968,36.4106 72.9885,36.3225 84.4801,36.2343 95.9718,36.1461 95.9718,36.1461 107.463,36.0579 118.955,35.9698 130.447,35.8816 141.938,35.7934 153.43,35.7052 164.922,35.617 187.905,35.4407 193.623,35.3968 193.607,43.9287 193.581,56.8275 193.556,69.7263 193.556,69.7263 193.53,82.6251 193.479,108.423 193.479,108.423 193.454,121.321 193.403,147.119 193.403,147.119 193.378,160.018 193.352,172.917 193.352,172.917 193.327,185.815 193.301,198.714 193.276,211.613 193.276,211.613 193.25,224.512 193.251,224.678 193.338,235.972 193.34,236.1 193.504,246.917 193.509,247.15 193.806,257.456 193.82,257.812 194.305,267.573 194.337,268.076 195.065,277.26 195.133,277.942 196.16,286.515 196.292,287.415 197.672,295.344 197.917,296.508 199.707,303.759 200.142,305.234 202.396,311.773 203.139,313.584 205.913,319.378 207.115,321.489 210.464,326.505 212.266,328.765 216.245,332.97 218.672,335.091 223.337,338.451 226.197,340.116 231.604,342.597 234.542,343.634 240.745,345.203 243.432,345.659 250.486,346.283 251.947,329.779 253.087,346.309 260.348,345.809 263.049,345.404 269.396,343.926 272.405,342.923 277.901,340.505 280.875,338.823 285.581,335.502 288.118,333.308 292.096,329.119 293.969,326.763 297.282,321.744 298.509,319.548 301.219,313.736 301.958,311.87 304.126,305.301 304.547,303.801 306.235,296.512 306.463,295.345 307.734,287.372 307.852,286.487 308.768,277.867 308.825,277.211 309.447,267.982 309.473,267.513 309.864,257.71 309.874,257.395 310.096,247.055 310.099,246.87 310.214,236.03 310.215,235.954 310.285,224.651 310.285,224.511 310.259,211.612 310.233,198.714 310.207,185.815 310.182,172.916 310.182,172.916 310.156,160.017 310.104,134.22 310.104,134.22 310.078,121.321 310.001,82.6246 310.001,82.6245 309.975,69.7258 309.905,35.155 316.388,35.1134 316.388,35.1134 328.141,35.0378 339.894,34.9622 351.648,34.8867 363.401,34.8111 375.154,34.7356 386.907,34.66 410.414,34.5089 422.167,34.4333 433.92,34.3578 445.674,34.2822 457.427,34.2066 463.723,34.1662 " fill="none" stroke-width="0.5" stroke="rgb(0,0,0)" />
</svg>
