<?xml version="1.0" standalone="no" ?>
<!DOCTYPE svg PUBLIC "-//W3C//DTD SVG 1.1//EN" "http://www.w3.org/Graphics/SVG/1.1/DTD/svg11.dtd">
<svg width="500px" height="500px" xmlns="http://www.w3.org/2000/svg" version="1.1" >
	<polygon points="467.473,280.911 466.68,295.041 464.315,309.977 460.309,325.787 454.637,342.151 447.286,358.761 438.248,375.321 427.519,391.546 415.097,407.158 400.98,421.888 385.162,435.476 367.631,447.67 348.361,458.221 327.316,466.885 304.446,473.407 279.692,477.526 252.981,478.965 226.96,477.608 202.729,473.708 180.259,467.516 159.508,459.268 140.444,449.19 123.043,437.506 107.292,424.436 93.1891,410.206 80.7376,395.047 69.9451,379.198 60.8199,362.905 53.369,346.421 47.5957,330.007 43.4975,313.934 41.0621,298.479 40.2405,283.539 40.2405,32.8236 49.9763,32.7489 61.468,32.6607 72.9597,32.5726 84.4514,32.4844 95.943,32.3962 95.943,32.3962 107.435,32.308 118.926,32.2199 130.418,32.1317 153.401,31.9553 164.893,31.8672 176.385,31.779 187.876,31.6908 197.381,31.6179 197.357,43.9361 197.331,56.8349 197.306,69.7337 197.306,69.7337 197.28,82.6325 197.229,108.43 197.229,108.43 197.204,121.329 197.153,147.126 197.153,147.126 197.128,160.025 197.102,172.924 197.102,172.924 197.077,185.823 197.051,198.722 197.026,211.62 197,224.519 197.001,224.649 197.088,235.943 197.089,236.043 197.254,246.86 197.258,247.042 197.555,257.348 197.565,257.625 198.05,267.387 198.076,267.78 198.804,276.964 198.857,277.496 199.883,286.069 199.986,286.772 201.367,294.7 201.558,295.61 203.347,302.86 203.687,304.012 205.941,310.551 206.521,311.964 209.295,317.759 210.234,319.407 213.583,324.423 214.99,326.187 218.969,330.392 220.863,332.048 225.529,335.408 227.762,336.708 233.168,339.189 235.462,339.998 241.665,341.568 243.762,341.924 250.817,342.548 251.947,329.779 252.829,342.568 260.09,342.068 262.198,341.751 268.545,340.274 270.895,339.491 276.39,337.073 278.712,335.76 283.418,332.438 285.399,330.725 289.377,326.537 290.839,324.697 294.152,319.678 295.11,317.964 297.82,312.152 298.397,310.695 300.565,304.126 300.893,302.955 302.582,295.665 302.76,294.755 304.031,286.782 304.123,286.09 305.039,277.471 305.083,276.959 305.706,267.729 305.726,267.363 306.117,257.56 306.125,257.314 306.347,246.975 306.349,246.83 306.464,235.99 306.465,235.931 306.535,224.628 306.535,224.519 306.509,211.62 306.483,198.721 306.457,185.822 306.432,172.924 306.432,172.924 306.406,160.025 306.354,134.227 306.354,134.227 306.328,121.328 306.251,82.6321 306.251,82.632 306.225,69.7333 306.148,31.4291 316.364,31.3635 328.117,31.2879 339.87,31.2123 351.623,31.1368 363.377,31.0612 375.13,30.9856 386.883,30.9101 410.39,30.759 422.143,30.6834 433.896,30.6078 445.649,30.5323 457.403,30.4567 467.473,30.392 " fill="none" stroke-width="0.5" stroke="rgb(0,0,0)" />
</svg>
