<?xml version="1.0" standalone="no" ?>
<!DOCTYPE svg PUBLIC "-//W3C//DTD SVG 1.1//EN" "http://www.w3.org/Graphics/SVG/1.1/DTD/svg11.dtd">
<svg width="500px" height="500px" xmlns="http://www.w3.org/2000/svg" version="1.1" >
	<polygon points="464.173,280.819 463.395,294.689 461.079,309.312 457.144,324.84 451.564,340.941 444.324,357.3 435.418,373.618 424.846,389.605 412.609,404.985 398.708,419.49 383.14,432.863 365.891,444.86 346.936,455.239 326.232,463.762 303.721,470.183 279.331,474.241 252.978,475.66 227.309,474.321 203.432,470.479 181.31,464.383 160.893,456.267 142.14,446.354 125.021,434.859 109.523,421.999 95.6413,407.992 83.3818,393.067 72.7539,377.46 63.7685,361.416 56.4347,345.191 50.7573,329.05 46.7332,313.268 44.3479,298.13 43.5405,283.448 43.5405,36.0984 50.0017,36.0488 61.4933,35.9606 61.4933,35.9606 72.985,35.8725 84.4767,35.7843 95.9683,35.6961 95.9684,35.6961 107.46,35.6079 118.952,35.5198 130.443,35.4316 141.935,35.3434 153.427,35.2552 164.918,35.1671 176.41,35.0789 187.902,34.9907 187.902,34.9907 194.074,34.9433 194.057,43.9296 194.031,56.8284 194.006,69.7272 194.006,69.7272 193.98,82.626 193.929,108.424 193.929,108.424 193.904,121.322 193.853,147.12 193.853,147.12 193.828,160.019 193.802,172.918 193.802,172.918 193.777,185.816 193.751,198.715 193.726,211.614 193.7,224.513 193.701,224.674 193.788,235.969 193.789,236.093 193.954,246.91 193.959,247.137 194.256,257.443 194.269,257.789 194.754,267.551 194.786,268.041 195.514,277.225 195.58,277.889 196.607,286.462 196.735,287.338 198.116,295.266 198.354,296.4 200.144,303.651 200.567,305.087 202.821,311.626 203.545,313.389 206.319,319.184 207.489,321.239 210.838,326.256 212.593,328.456 216.572,332.66 218.935,334.726 223.6,338.086 226.385,339.707 231.791,342.188 234.652,343.197 240.855,344.767 243.471,345.211 250.526,345.835 251.947,329.779 253.056,345.861 260.317,345.36 262.947,344.965 269.294,343.488 272.224,342.511 277.719,340.093 280.615,338.456 285.321,335.134 287.792,332.998 291.77,328.809 293.593,326.515 296.906,321.496 298.101,319.358 300.811,313.546 301.531,311.729 303.699,305.16 304.108,303.7 305.797,296.41 306.019,295.274 307.29,287.301 307.404,286.439 308.32,277.82 308.376,277.181 308.998,267.951 309.023,267.495 309.414,257.692 309.424,257.385 309.646,247.046 309.649,246.865 309.764,236.025 309.765,235.951 309.835,224.649 309.835,224.512 309.809,211.613 309.783,198.715 309.757,185.816 309.732,172.917 309.732,172.917 309.706,160.018 309.654,134.221 309.654,134.221 309.628,121.322 309.551,82.6255 309.551,82.6254 309.525,69.7266 309.455,34.7079 316.385,34.6634 328.138,34.5878 339.891,34.5123 351.645,34.4367 363.398,34.3611 375.151,34.2856 386.904,34.21 386.904,34.21 410.411,34.0589 422.164,33.9833 422.164,33.9833 445.671,33.8322 457.424,33.7567 457.424,33.7566 464.173,33.7133 " fill="none" stroke-width="0.5" stroke="rgb(0,0,0)" />
</svg>
