<?xml version="1.0" standalone="no" ?>
<!DOCTYPE svg PUBLIC "-//W3C//DTD SVG 1.1//EN" "http://www.w3.org/Graphics/SVG/1.1/DTD/svg11.dtd">
<svg width="500px" height="500px" xmlns="http://www.w3.org/2000/svg" version="1.1" >
	<polygon points="467.523,280.913 466.73,295.046 464.364,309.987 460.357,325.802 454.684,342.169 447.331,358.783 438.291,375.347 427.559,391.576 415.135,407.191 401.015,421.925 385.193,435.516 367.657,447.712 348.383,458.267 327.333,466.932 304.457,473.456 279.697,477.576 252.981,479.015 226.955,477.657 202.719,473.757 180.243,467.564 159.487,459.313 140.418,449.233 123.013,437.546 107.258,424.473 93.1519,410.24 80.6976,395.077 69.9026,379.225 60.7753,362.927 53.3225,346.439 47.5478,330.022 43.4484,313.944 41.0123,298.484 40.1905,283.54 40.1905,32.774 49.9759,32.6989 61.4676,32.6107 61.4676,32.6107 72.9593,32.5226 84.451,32.4344 95.9426,32.3462 107.434,32.258 118.926,32.1699 130.418,32.0817 153.401,31.9053 164.893,31.8172 176.384,31.729 187.876,31.6408 187.876,31.6408 197.431,31.5675 197.406,43.9362 197.381,56.835 197.356,69.7338 197.356,69.7338 197.33,82.6326 197.279,108.43 197.279,108.43 197.254,121.329 197.203,147.127 197.203,147.127 197.178,160.025 197.152,172.924 197.152,172.924 197.127,185.823 197.101,198.722 197.076,211.621 197.05,224.519 197.051,224.648 197.138,235.943 197.139,236.042 197.304,246.859 197.308,247.04 197.605,257.346 197.615,257.623 198.1,267.385 198.125,267.776 198.853,276.96 198.906,277.49 199.933,286.063 200.036,286.763 201.416,294.692 201.606,295.598 203.396,302.848 203.735,303.995 205.989,310.534 206.566,311.943 209.34,317.737 210.275,319.379 213.624,324.396 215.026,326.153 219.005,330.357 220.893,332.008 225.558,335.367 227.782,336.663 233.189,339.144 235.474,339.95 241.677,341.519 243.767,341.874 250.821,342.498 251.947,329.779 252.826,342.518 260.086,342.018 262.187,341.703 268.534,340.225 270.875,339.445 276.37,337.027 278.683,335.719 283.389,332.397 285.363,330.691 289.341,326.502 290.798,324.67 294.11,319.651 295.065,317.943 297.774,312.131 298.35,310.68 300.518,304.11 300.845,302.944 302.533,295.654 302.71,294.747 303.982,286.774 304.073,286.085 304.989,277.466 305.033,276.955 305.656,267.726 305.676,267.361 306.067,257.558 306.075,257.313 306.297,246.974 306.299,246.829 306.414,235.99 306.415,235.931 306.485,224.628 306.485,224.519 306.459,211.62 306.407,185.823 306.382,172.924 306.382,172.924 306.356,160.025 306.304,134.227 306.304,134.227 306.278,121.329 306.201,82.6322 306.201,82.6321 306.175,69.7334 306.098,31.3794 316.363,31.3135 328.117,31.2379 339.87,31.1623 351.623,31.0868 363.376,31.0112 375.13,30.9356 386.883,30.8601 410.389,30.709 422.143,30.6334 433.896,30.5578 445.649,30.4823 457.402,30.4067 467.523,30.3417 " fill="none" stroke-width="0.5" stroke="rgb(0,0,0)" />
</svg>
