<?xml version="1.0" standalone="no" ?>
<!DOCTYPE svg PUBLIC "-//W3C//DTD SVG 1.1//EN" "http://www.w3.org/Graphics/SVG/1.1/DTD/svg11.dtd">
<svg width="500px" height="500px" xmlns="http://www.w3.org/2000/svg" version="1.1" >
	<polygon points="464.123,280.818 463.345,294.684 461.03,309.302 457.097,324.826 451.518,340.922 444.279,357.278 435.375,373.592 424.806,389.576 412.572,404.952 398.674,419.453 383.109,432.824 365.865,444.817 346.915,455.194 326.216,463.715 303.71,470.134 279.325,474.191 252.978,475.61 227.315,474.271 203.442,470.43 181.326,464.335 160.914,456.221 142.165,446.311 125.051,434.819 109.557,421.962 95.6785,407.959 83.4219,393.037 72.7965,377.434 63.8132,361.394 56.4812,345.173 50.8052,329.036 46.7823,313.258 44.3977,298.125 43.5905,283.447 43.5905,36.148 50.002,36.0988 61.4937,36.0106 72.9854,35.9225 84.4771,35.8343 95.9687,35.7461 95.9687,35.7461 107.46,35.6579 118.952,35.5698 130.444,35.4816 141.935,35.3934 153.427,35.3052 164.919,35.2171 187.902,35.0407 194.024,34.9937 194.007,43.9295 193.981,56.8283 193.956,69.7271 193.956,69.7271 193.93,82.6259 193.879,108.423 193.879,108.423 193.854,121.322 193.803,147.12 193.778,160.019 193.752,172.917 193.752,172.917 193.727,185.816 193.701,198.715 193.676,211.614 193.676,211.614 193.65,224.513 193.651,224.674 193.738,235.969 193.739,236.094 193.904,246.911 193.909,247.138 194.206,257.444 194.22,257.792 194.704,267.553 194.736,268.045 195.464,277.229 195.53,277.895 196.557,286.468 196.686,287.347 198.066,295.275 198.305,296.412 200.095,303.663 200.52,305.103 202.774,311.642 203.5,313.411 206.273,319.205 207.447,321.267 210.796,326.283 212.556,328.49 216.536,332.695 218.906,334.767 223.571,338.126 226.364,339.753 231.771,342.234 234.64,343.246 240.843,344.815 243.467,345.261 250.521,345.885 251.947,329.779 253.06,345.91 260.32,345.41 262.958,345.014 269.305,343.536 272.244,342.557 277.74,340.139 280.644,338.497 285.35,335.175 287.828,333.032 291.806,328.844 293.635,326.543 296.948,321.524 298.147,319.379 300.856,313.567 301.578,311.745 303.746,305.176 304.157,303.711 305.845,296.421 306.068,295.282 307.339,287.309 307.454,286.444 308.37,277.825 308.426,277.184 309.048,267.955 309.073,267.497 309.464,257.694 309.474,257.386 309.696,247.047 309.699,246.865 309.814,236.026 309.815,235.952 309.885,224.649 309.885,224.512 309.859,211.613 309.807,185.816 309.782,172.917 309.782,172.917 309.756,160.018 309.704,134.221 309.704,134.22 309.678,121.322 309.601,82.6254 309.601,82.6253 309.575,69.7265 309.505,34.7576 316.385,34.7134 316.385,34.7134 328.138,34.6378 339.892,34.5623 351.645,34.4867 363.398,34.4111 375.151,34.3356 386.905,34.26 386.905,34.26 410.411,34.1089 422.164,34.0333 422.164,34.0333 433.918,33.9578 457.424,33.8067 464.123,33.7636 " fill="none" stroke-width="0.5" stroke="rgb(0,0,0)" />
</svg>
