<?xml version="1.0" standalone="no" ?>
<!DOCTYPE svg PUBLIC "-//W3C//DTD SVG 1.1//EN" "http://www.w3.org/Graphics/SVG/1.1/DTD/svg11.dtd">
<svg width="500px" height="500px" xmlns="http://www.w3.org/2000/svg" version="1.1" >
	<polygon points="475.023,83.1429 471.806,87.0601 470.722,88.0795 463.688,93.1638 462.649,93.7622 455.862,96.783 456.675,96.9324 457.758,97.2432 458.965,97.7427 459.838,98.2254 460.222,98.5027 462.117,96.798 465.743,96.369 468.229,96.8795 469.247,97.1881 471.342,98.0402 472.395,98.6004 474.118,99.7595 475.023,100.522 475.023,191.745 471.228,192.428 467.894,191.609 466.385,191.004 461.815,188.373 461.166,187.939 455.843,183.834 455.418,183.473 453.947,182.093 456.387,185.58 458.689,186.935 458.703,186.944 462.765,189.351 463.045,189.528 467.434,192.481 467.904,192.833 472.272,196.463 472.874,197.042 475.023,199.427 475.023,250.023 472.582,253.428 472.51,253.526 470.808,255.798 472.808,255.376 474.606,255.283 475.023,255.327 475.023,281.123 474.197,295.845 473.897,297.737 471.398,300.165 469.434,301.179 471.064,303.312 471.595,304.147 472.583,306.037 471.718,311.498 467.548,327.955 461.668,344.92 454.063,362.103 450.114,369.339 447.699,367.329 446.83,365.131 445.728,358.774 443.573,355.37 440.167,352.718 435.477,350.367 433.897,349.664 435.824,351.067 436.721,351.875 440.635,356.222 441.374,357.249 444.422,362.639 444.919,363.797 446.896,370.259 447.125,371.418 447.396,374.32 444.722,379.219 433.633,395.988 420.788,412.131 406.178,427.377 397.608,434.738 396.414,433.839 395.718,433.221 394.437,431.886 393.917,431.262 392.888,429.836 393.098,430.436 393.786,433.21 393.94,434.17 394.189,437.447 394.177,437.686 389.79,441.455 371.611,454.098 351.621,465.044 329.797,474.028 318.769,477.173 318.251,476.834 316.052,475.048 315.217,474.215 313.491,472.101 312.853,471.137 311.609,468.778 311.182,467.732 310.429,465.209 310.214,464.111 309.961,461.506 309.946,460.566 310.188,456.882 310.276,456.187 310.947,452.622 311.092,452.027 312.115,448.622 312.292,448.117 312.522,447.549 312.089,447.62 311.981,447.934 310.832,452.017 310.778,452.199 309.269,456.961 309.064,457.51 307.03,462.215 306.504,463.173 303.737,467.246 302.486,468.576 298.778,471.441 298.137,471.742 298.532,471.713 299.414,471.611 300.133,471.501 300.826,471.391 301.095,471.355 301.811,471.276 302.247,471.244 303.111,471.214 303.775,471.229 304.646,471.299 305.789,471.507 306.458,471.7 307.798,472.277 308.292,472.568 309.562,473.581 309.907,473.946 310.802,475.187 311.024,475.601 311.488,476.742 311.614,477.181 311.792,478.045 311.849,478.484 311.893,479.041 311.896,479.134 306.107,480.785 280.517,485.043 252.988,486.525 226.162,485.126 201.122,481.097 177.854,474.685 156.34,466.133 136.565,455.679 129.682,451.058 129.823,449.367 129.956,449.2 127.352,449.435 127.263,449.434 118.516,443.56 102.188,430.012 87.5785,415.27 74.6881,399.577 72.7152,396.68 72.8718,394.719 71.6787,395.158 63.519,383.175 54.0739,366.311 46.3549,349.233 40.3624,332.197 38.464,324.751 39.601,321.089 39.9313,320.258 44.1279,311.688 44.4243,311.156 44.7538,310.631 43.6255,311.159 41.5091,311.731 38.2538,311.665 36.2847,311.045 35.3056,310.452 33.5445,299.276 32.6905,283.746 32.6905,230.95 33.5491,229.802 35.2216,228.472 34.8643,228.43 33.3795,228.053 32.6905,227.777 32.6905,156.193 34.1351,153.554 34.7581,152.637 38.2974,148.369 39.1613,147.524 39.9934,146.865 38.2959,146.707 37.2097,146.499 34.6743,145.759 33.6282,145.339 32.6905,144.853 32.6905,109.83 34.6925,108.785 38.0033,108.162 41.1021,109.484 41.1119,109.499 41.5806,107.896 41.9903,106.87 42.289,106.29 42.1029,106.362 41.0447,106.664 37.0197,107.407 35.6205,107.493 34.9282,107.452 34.1473,107.352 33.5138,107.226 32.6905,106.992 32.6905,86.364 32.8285,86.1767 33.5259,85.3231 32.7888,85.4998 32.6905,85.5038 32.6905,40.2142 32.8195,40.1255 37.2795,37.2474 37.3563,37.1987 41.758,34.4551 41.9578,34.3238 39.4683,33.7076 39.4375,33.6999 35.1381,32.6107 34.8196,32.5203 32.6905,31.8495 32.6905,25.3313 38.4267,25.2873 49.9184,25.1991 61.4101,25.111 61.4101,25.111 72.9018,25.0228 81.0176,24.9605 81.2439,28.0659 80.4398,30.2284 79.1435,32.2692 77.9686,33.4667 78.1144,33.3938 80.9412,32.2344 81.1278,32.1616 84.2849,30.9923 87.1655,29.8238 87.3812,29.7092 86.4135,29.3795 85.531,28.9945 84.6014,28.4933 82.2257,26.097 81.873,25.4295 81.7811,24.9547 84.3934,24.9346 95.8851,24.8464 95.8851,24.8464 107.377,24.7583 118.868,24.6701 130.36,24.5819 141.852,24.4937 153.343,24.4056 155.097,24.3921 155.013,24.7484 154.646,25.5673 152.691,27.9366 151.722,28.6182 150.829,29.1344 149.459,29.7708 149.33,29.829 148.178,30.3303 149.349,31.1985 151.969,32.8355 154.785,34.5383 155.021,34.6889 155.172,34.7904 154.554,33.0347 154.812,28.5642 155.865,26.4069 157.578,24.3731 164.835,24.3174 176.327,24.2292 187.818,24.141 204.946,24.0096 204.933,30.3994 204.207,30.7323 204.933,30.7403 204.932,31.0522 204.932,31.0522 204.906,43.951 204.883,55.7414 203.918,55.607 203.239,55.4505 204.121,56.3517 204.348,56.5969 204.88,57.2073 204.856,69.7486 204.856,69.7486 204.83,82.6474 204.826,84.5615 204.285,84.5996 203.291,84.5841 199.309,84.1787 198.608,84.0636 193.919,82.9949 193.566,82.9028 193.193,82.7928 197.894,86.1838 198.058,86.3062 202.861,90.035 203.015,90.1587 204.812,91.6552 204.779,108.445 204.779,108.445 204.754,121.344 204.703,147.141 204.703,147.141 204.678,160.04 204.652,172.939 204.652,172.939 204.637,180.71 204.116,181.255 201.974,183.121 201.055,183.776 198.587,185.195 197.498,185.68 196.158,186.117 197.135,186.356 198.087,186.679 200.85,187.891 201.799,188.418 204.197,190.062 204.618,190.418 204.601,198.737 204.576,211.635 204.576,211.635 204.557,221.117 204.016,221.593 202.418,221.805 204.547,223.416 204.553,223.421 204.55,224.534 204.551,224.59 204.638,235.885 204.638,235.928 204.803,246.745 204.804,246.824 205.101,257.13 205.106,257.251 205.561,266.418 204.995,267.171 204.19,268.676 204.037,269.455 204.195,270.269 204.818,271.28 206.023,272.499 206.33,276.367 206.353,276.599 207.38,285.172 207.424,285.477 208.805,293.405 208.888,293.8 210.677,301.051 210.825,301.551 213.079,308.09 213.331,308.704 216.105,314.499 216.513,315.215 219.862,320.231 220.473,320.997 224.452,325.202 225.275,325.922 229.941,329.281 230.911,329.846 236.317,332.327 237.314,332.679 243.517,334.248 244.428,334.403 249.87,334.885 249.927,335.037 250.841,338.297 251.004,339.093 251.455,342.461 251.472,342.662 251.753,341.986 255.579,334.811 259.57,334.535 260.486,334.398 266.833,332.92 267.854,332.58 273.349,330.162 274.358,329.592 279.064,326.27 279.925,325.526 283.903,321.337 284.538,320.538 287.851,315.519 288.267,314.774 290.977,308.962 291.228,308.329 293.396,301.76 293.538,301.251 295.227,293.962 295.304,293.566 296.575,285.593 296.615,285.293 297.531,276.673 297.55,276.451 298.144,267.655 299.035,267.367 300.252,267.114 301.51,266.991 302.28,267.019 300.169,265.742 299.393,265.18 298.294,264.237 298.573,257.259 298.576,257.152 298.799,246.813 298.8,246.75 298.915,235.91 298.915,235.884 298.985,224.581 298.985,224.534 298.959,211.635 298.933,198.736 298.928,196.1 299.82,195.609 300.863,195.162 301.283,195.029 300.799,194.628 300.022,193.852 299.166,192.816 298.921,192.453 298.907,185.838 298.892,178.038 299.168,177.63 300.023,176.595 300.8,175.819 301.835,174.964 302.752,174.344 303.446,173.966 300.161,173.789 298.882,173.245 298.882,172.939 298.882,172.939 298.856,160.04 298.804,134.242 298.804,134.242 298.778,121.344 298.755,109.886 299.001,109.46 300.887,106.812 301.683,105.91 304.168,103.623 305.195,102.867 308.306,101.071 309.479,100.557 311.258,100.002 311.12,99.4629 311.039,99.0972 310.908,98.396 310.855,98.0543 310.652,96.4477 310.495,95.2411 309.048,96.5202 309.011,96.5529 306.609,98.6394 306.426,98.7913 304.149,100.611 303.682,100.948 301.696,102.236 300.305,102.894 298.775,103.382 298.742,103.387 298.701,82.6472 298.701,82.6472 298.675,69.7484 298.597,31.052 298.597,31.052 298.583,23.9276 304.562,23.8892 316.315,23.8136 328.068,23.738 339.822,23.6625 351.575,23.5869 363.328,23.5114 375.081,23.4358 382.565,23.3877 385.439,25.4969 386.361,26.3411 391.417,32.0871 392.148,33.131 395.92,40.0136 396.396,41.1549 397.441,44.6859 398.425,43.8877 400.419,42.8865 401.128,42.5877 404.1,41.5612 404.479,41.4445 408.141,40.4543 408.411,40.3882 412.348,39.5236 411.833,39.1397 407.229,36.707 402.806,35.0305 398.757,33.8788 395.37,33.031 394.937,32.9045 392.642,32.1363 390.134,30.4735 389.306,29.535 387.907,26.4702 388.833,23.3474 410.341,23.2091 422.094,23.1336 433.848,23.058 444.705,22.9882 444.828,23.1435 445.857,24.98 445.934,24.7077 446.357,23.6289 446.693,22.9754 457.354,22.9069 469.107,22.8313 475.023,22.7933 " fill="none" stroke-width="0.5" stroke="rgb(0,0,0)" />
	<polygon points="188.222,439.119 188.589,439.837 190.575,444.496 190.856,445.322 191.672,448.489 192.489,448.73 194.009,449.065 195.652,449.329 197.248,449.495 198.599,449.547 200.406,449.448 202.146,449.142 203.733,448.622 205.09,447.903 206.208,446.983 207.137,445.78 207.9,444.105 208.529,441.203 208.767,440.776 202.752,441.225 201.866,441.223 195.647,440.734 194.666,440.571 189.469,439.244 188.471,438.888 187.934,438.64 " fill="none" stroke-width="0.5" stroke="rgb(0,0,0)" />
	<polygon points="258.359,448.25 258.072,448.285 257.986,448.307 257.914,448.337 257.686,448.474 257.544,448.586 258.049,448.66 258.554,448.764 259.318,448.981 259.267,448.895 259.008,448.566 258.78,448.344 258.639,448.242 " fill="none" stroke-width="0.5" stroke="rgb(0,0,0)" />
	<polygon points="160.688,430.823 160.172,431.829 157.173,436.486 156.35,437.494 152.156,441.594 151.048,442.442 145.507,445.71 144.263,446.259 143.88,446.376 148.482,446.083 152.517,445.219 155.714,443.914 158.151,442.271 159.963,440.322 161.272,437.995 162.111,435.167 162.433,431.546 162.43,431.311 162.412,430.827 162.383,430.315 162.344,429.782 162.297,429.233 162.243,428.672 162.183,428.104 162.119,427.524 162.232,426.922 " fill="none" stroke-width="0.5" stroke="rgb(0,0,0)" />
	<polygon points="326.64,415.014 325.486,415.541 315.981,418.673 314.755,418.935 311.756,419.241 312.039,419.498 312.811,420.545 313.565,421.925 314.059,423.223 314.294,424 314.625,425.452 314.671,425.676 314.928,427.052 315.123,427.881 315.532,428.171 315.561,428.192 316.469,428.846 316.833,429.13 317.699,429.866 318.348,430.511 319.081,431.366 319.862,432.539 320.37,433.55 320.452,433.804 320.763,433.411 320.942,433.196 321.663,432.369 321.814,432.203 322.533,431.441 322.742,431.23 323.457,430.546 323.75,430.284 324.458,429.692 324.874,429.376 325.574,428.891 326.171,428.529 326.861,428.165 327.712,427.799 328.39,427.571 329.556,427.307 330.006,427.253 329.598,426.763 328.47,424.621 328.121,423.379 327.904,421.809 327.904,414.26 " fill="none" stroke-width="0.5" stroke="rgb(0,0,0)" />
	<polygon points="243.418,410.63 243.351,411.692 242.572,416.668 242.078,418.267 239.872,422.897 239.118,424.084 235.679,428.271 234.859,429.087 233.858,429.902 236.333,428.214 240.094,424.614 243.066,420.582 245.233,416.182 246.72,410.954 246.813,410.809 246.223,410.795 245.286,410.659 243.902,410.28 243.402,410.073 " fill="none" stroke-width="0.5" stroke="rgb(0,0,0)" />
	<polygon points="377.243,413.597 377.243,417.615 377.242,417.751 377.225,418.474 377.208,418.797 377.155,419.47 379.459,418.849 381.029,419.033 382.251,419.312 383.883,419.877 384.97,420.383 386.581,421.349 387.529,422.058 389.035,423.446 389.812,424.322 390.938,425.885 390.642,425.022 390.377,423.885 390.181,422.37 390.145,421.266 390.175,420.792 390.293,419.935 390.4,419.434 390.657,418.609 389.031,418.435 387.984,418.225 384.423,417.16 383.604,416.846 380.266,415.267 379.6,414.896 377.22,413.359 " fill="none" stroke-width="0.5" stroke="rgb(0,0,0)" />
	<polygon points="164.415,413.665 164.419,414.51 164.098,419.194 163.983,420.015 163.179,423.762 165.093,421.804 168.39,421.11 170.422,421.673 172.457,422.663 172.44,422.604 172.127,420.622 172.079,419.207 172.111,418.84 172.334,417.679 172.43,417.36 172.972,416.112 173.13,415.841 173.999,414.701 174.216,414.479 175.273,413.627 175.548,413.455 176.602,412.933 176.677,412.905 176.279,412.762 173.495,411.61 173.02,411.388 170.384,410.006 169.931,409.742 167.504,408.175 167.048,407.849 164.892,406.14 164.414,405.717 163.745,405.056 " fill="none" stroke-width="0.5" stroke="rgb(0,0,0)" />
	<polygon points="293.451,419.309 293.644,419.349 296.194,419.921 296.371,419.964 296.718,420.053 297.114,419.524 297.128,419.509 291.454,418.932 " fill="none" stroke-width="0.5" stroke="rgb(0,0,0)" />
	<polygon points="256.854,395.759 257.127,396.455 257.393,397.328 257.56,398.086 257.682,398.936 257.738,399.759 257.726,400.702 257.631,401.714 257.418,402.816 257.142,403.747 256.711,404.806 256.271,405.639 255.633,406.601 255.046,407.32 254.999,407.368 257.25,408.243 257.737,408.459 260.597,409.886 260.974,410.092 263.756,411.749 264.071,411.95 266.688,413.746 266.976,413.957 269.34,415.802 269.633,416.047 271.656,417.852 271.997,418.182 272.528,418.741 272.784,418.685 273.038,418.635 274.323,418.414 274.565,418.378 275.899,418.205 276.128,418.18 277.511,418.057 277.726,418.041 279.159,417.967 279.362,417.96 280.844,417.936 281.075,417.936 283.206,417.986 283.466,417.998 285.669,418.148 285.913,418.17 288.194,418.422 288.421,418.452 290.315,418.738 289.802,418.63 279.718,415.33 278.567,414.809 269.961,409.716 268.981,408.986 261.88,402.431 261.117,401.572 256.748,395.542 " fill="none" stroke-width="0.5" stroke="rgb(0,0,0)" />
	<polygon points="348.474,394.801 347.939,395.694 344.282,400.715 347.79,400.105 348.46,400.028 352.968,399.776 353.501,399.771 357.294,399.908 357.756,399.943 361.226,400.347 361.769,400.437 364.861,401.098 365.526,401.283 368.115,402.169 367.917,401.386 368.176,397.978 368.148,397.988 362.952,399.152 360.387,399.145 359.237,398.881 357.266,398.02 356.189,397.285 355.092,396.313 354.113,395.194 353.514,394.374 352.658,392.957 352.304,392.272 351.595,390.643 351.367,390.025 351.139,389.28 " fill="none" stroke-width="0.5" stroke="rgb(0,0,0)" />
	<polygon points="217.966,386.666 216.843,386.879 207.027,387.75 205.878,387.738 198.599,386.935 199.757,388.498 200.194,389.183 202.032,392.569 202.39,393.368 203.532,396.532 203.815,397.662 204.041,399.21 204.191,398.896 204.621,398.145 207.442,393.975 208.778,392.575 212.733,389.626 215.081,388.584 220.766,387.465 222.33,387.373 223.375,387.454 224.047,387.545 225.295,387.789 225.832,387.922 226.191,388.028 226.091,387.573 225.973,386.791 225.89,385.771 225.891,384.825 225.933,384.323 " fill="none" stroke-width="0.5" stroke="rgb(0,0,0)" />
	<polygon points="308.465,392.669 308.032,392.796 304.82,393.605 304.288,393.713 300.58,394.285 299.992,394.346 295.75,394.563 295.048,394.556 291.534,394.31 290.748,394.2 287.959,393.614 291.446,395.272 297.439,396.893 304.319,397.489 307.692,397.349 310.731,396.948 312.981,396.415 311.324,394.109 311.069,393.277 310.981,391.822 " fill="none" stroke-width="0.5" stroke="rgb(0,0,0)" />
	<polygon points="137.912,367.038 139.068,367.589 145.427,371.534 146.396,372.289 151.896,377.596 152.645,378.479 154.259,380.821 153.894,379.303 152.951,377.095 151.596,374.999 149.769,372.997 147.397,371.101 144.415,369.346 140.773,367.783 136.244,366.414 135.652,366.253 " fill="none" stroke-width="0.5" stroke="rgb(0,0,0)" />
	<polygon points="246.091,367.244 245.505,368.22 241.439,373.686 240.609,374.585 239.841,375.258 240.432,375.476 241.65,376.097 242.535,376.689 243.487,377.486 244.23,378.258 244.82,378.998 245.222,378.98 246.06,379.003 247.306,379.128 248.501,379.378 249.607,379.733 249.611,379.735 248.209,374.564 248.03,373.565 247.246,364.811 " fill="none" stroke-width="0.5" stroke="rgb(0,0,0)" />
	<polygon points="77.8496,367.269 78.8061,369.689 80.0603,377.971 80.0484,378.1 81.5409,376.307 82.141,375.686 84.6495,373.452 85.4019,372.884 87.8812,371.312 88.9123,370.795 89.9883,370.383 89.0441,369.852 88.1238,369.211 86.6381,367.945 85.8767,367.161 84.6418,365.623 84.4936,365.4 84.4179,365.415 83.5981,365.559 83.352,365.597 82.5104,365.708 81.8131,365.758 79.4996,365.782 78.3476,365.679 76.5139,365.328 " fill="none" stroke-width="0.5" stroke="rgb(0,0,0)" />
	<polygon points="169.59,368.099 169.609,368.168 170.463,371.365 171.202,373.877 171.641,374.995 171.83,375.036 172.156,375.083 172.486,375.111 172.828,375.121 173.3,375.115 173.826,375.098 174.365,375.072 174.917,375.041 175.47,375.008 175.499,375.006 175.759,374.992 174.698,374.067 173.986,373.326 169.483,367.716 " fill="none" stroke-width="0.5" stroke="rgb(0,0,0)" />
	<polygon points="354.029,363.072 352.374,364.694 352.938,364.854 355.121,367.42 355.571,370.328 355.154,374.382 355.878,373.969 357.126,373.379 357.726,373.135 359.295,372.598 359.748,372.463 361.463,372.028 364.69,370.955 363.594,370.64 362.532,370.219 360.657,369.25 359.679,368.614 358.088,367.332 357.254,366.508 355.973,364.956 355.325,363.987 354.523,362.48 " fill="none" stroke-width="0.5" stroke="rgb(0,0,0)" />
	<polygon points="100.227,372.357 98.0574,372.46 98.909,374.166 98.9704,374.082 100.571,372.311 " fill="none" stroke-width="0.5" stroke="rgb(0,0,0)" />
	<polygon points="323.989,365.436 323.274,366.857 322.678,367.802 321.712,369.049 320.922,369.883 319.973,370.704 320.573,370.742 323.524,370.674 327.109,370.44 330.976,370.024 334.204,369.515 333.814,369.444 330.872,368.618 329.793,368.195 327.177,366.853 326.16,366.188 324.29,364.665 " fill="none" stroke-width="0.5" stroke="rgb(0,0,0)" />
	<polygon points="277.105,364.368 274.99,368.118 274.898,368.746 275.837,368.275 276.176,368.153 277.499,367.85 277.812,367.815 277.877,367.375 278.117,366.15 278.331,365.357 278.726,364.223 279.289,363.049 279.871,362.121 " fill="none" stroke-width="0.5" stroke="rgb(0,0,0)" />
	<polygon points="298.111,354.687 294.924,356.605 293.68,357.166 289.174,358.589 289.093,358.614 288.321,358.846 288.727,358.874 290.143,359.4 291.58,360.179 293.449,361.565 293.576,361.662 295.916,363.501 298.756,365.436 298.478,364.73 298.06,363.277 297.858,362.213 297.714,360.676 297.695,359.859 297.748,358.753 297.788,358.297 297.926,357.207 297.974,356.898 298.169,355.824 298.202,355.66 298.426,354.602 298.43,354.584 298.509,354.218 " fill="none" stroke-width="0.5" stroke="rgb(0,0,0)" />
	<polygon points="118.145,353.131 117.272,353.636 115.869,354.291 115.895,356.474 115.796,357.616 115.384,359.805 115.051,360.933 114.235,362.925 113.68,363.965 113.239,364.62 115.447,364.006 116.477,363.818 120.728,363.434 121.887,363.445 128.995,364.23 128.879,364.187 126.639,363.242 125.998,362.923 124.376,361.989 123.492,361.362 122.395,360.42 121.396,359.307 120.729,358.337 119.993,356.847 119.662,355.831 119.396,354.512 119.307,353.431 119.358,352.28 " fill="none" stroke-width="0.5" stroke="rgb(0,0,0)" />
	<polygon points="395.37,338.734 394.161,339.786 393.987,339.931 392.839,340.854 392.329,341.22 391.307,341.873 389.832,342.547 388.997,342.795 386.629,342.989 386.441,342.965 385.042,342.609 384.873,342.543 384.282,342.228 385.17,343.652 385.716,344.788 386.845,347.988 387.139,349.263 387.525,352.66 387.535,353.498 388.889,351.934 389.549,351.284 394.161,347.42 395.552,346.556 400.241,344.495 399.469,343.751 399.031,343.279 397.754,341.741 397.623,341.577 396.274,339.827 395.401,338.707 " fill="none" stroke-width="0.5" stroke="rgb(0,0,0)" />
	<polygon points="165.926,294.911 165.264,295.319 163.982,295.997 163.169,296.35 161.899,296.789 160.763,297.058 159.58,297.215 158.338,297.245 157.981,297.215 157.003,297.048 156.596,296.943 155.622,296.594 155.175,296.387 154.298,295.885 153.819,295.552 153.099,294.96 152.871,294.74 157.187,301.369 157.512,301.936 161.57,310.039 162.059,311.44 163.598,318.745 163.7,320.454 163.447,323.295 163.275,324.275 162.524,327.09 162.186,328.028 160.948,330.708 160.426,331.614 158.712,334.051 157.976,334.906 155.795,336.991 154.829,337.737 152.192,339.361 151.027,339.91 148.978,340.611 149.018,340.624 151.609,341.705 152.381,342.098 154.841,343.589 155.534,344.082 157.884,346.027 158.444,346.559 160.703,349.004 161.123,349.513 162.478,351.365 161.78,345.232 161.746,344.386 161.804,342.602 161.831,342.206 162.01,340.442 162.074,339.987 162.38,338.309 162.513,337.744 162.952,336.22 163.224,335.472 163.803,334.17 164.384,333.153 165.108,332.14 166.345,330.873 167.22,330.215 169.422,329.197 170.455,328.963 171.804,328.882 168.261,323.519 167.693,322.418 165.393,316.483 165.049,315.128 164.234,308.793 164.195,307.744 164.363,304.586 164.429,303.971 164.921,300.924 165.05,300.327 165.845,297.403 166.032,296.835 167.099,294.073 " fill="none" stroke-width="0.5" stroke="rgb(0,0,0)" />
	<polygon points="56.3122,335.844 57.133,342.573 60.6052,348.158 63.4538,350.976 63.3649,350.227 63.3397,347.765 63.4701,346.481 63.9614,344.205 64.3446,343.043 65.273,340.987 65.8347,340.009 66.7803,338.681 66.2907,338.621 65.7817,338.535 62.9114,337.919 62.1289,337.693 59.6602,336.786 58.6776,336.317 56.5673,335.052 " fill="none" stroke-width="0.5" stroke="rgb(0,0,0)" />
	<polygon points="318.87,340.054 317.987,340.736 316.963,341.369 315.923,341.87 315.034,342.212 313.882,342.55 313.144,342.714 312.754,342.775 314.605,343.595 315.508,344.096 317.663,345.555 317.716,344.966 317.843,344.167 318.493,341.373 318.628,340.888 318.914,340.01 " fill="none" stroke-width="0.5" stroke="rgb(0,0,0)" />
	<polygon points="417.58,331.044 416.316,331.392 415.4,331.567 413.613,331.76 413.409,331.779 411.586,331.911 411.77,332.945 412.026,334.366 412.041,334.457 412.265,335.826 412.297,336.044 412.455,337.313 412.491,337.723 412.551,338.852 412.557,339.327 412.548,339.661 412.52,340.083 412.486,340.418 412.394,341.009 412.327,341.332 412.097,342.141 411.989,342.436 411.973,342.468 412.647,342.457 417.994,342.913 418.971,343.081 424.265,344.467 424.468,344.54 423.662,343.876 420.39,340.159 419.092,337.632 417.851,332.259 417.76,330.924 " fill="none" stroke-width="0.5" stroke="rgb(0,0,0)" />
	<polygon points="123.252,322.744 121.323,323.907 120.231,324.419 119.238,324.763 119.663,325.055 120.498,325.751 122.042,327.305 122.729,328.14 123.974,329.979 124.502,330.945 125.394,333.024 125.737,334.106 126.22,336.382 126.346,337.639 126.326,339.878 126.205,341.002 125.945,342.255 126.729,341.793 128.709,340.831 129.441,340.535 131.62,339.822 132.322,339.641 133.411,339.43 131.55,338.354 130.592,337.661 128.686,335.959 127.928,335.139 126.432,333.168 125.87,332.268 124.791,330.123 124.408,329.153 123.755,326.932 123.548,325.871 123.328,323.67 123.32,322.693 " fill="none" stroke-width="0.5" stroke="rgb(0,0,0)" />
	<polygon points="385.598,308.661 384.528,310.175 383.504,311.962 382.599,313.913 381.937,315.728 381.71,316.898 381.504,319.151 381.328,322.119 381.141,325.303 381.129,325.466 380.867,328.47 380.816,328.884 380.412,331.405 380.154,332.42 379.541,334.155 378.34,335.765 379.304,336.454 380.13,337.171 380.924,338.004 380.911,337.967 380.865,337.78 380.715,336.863 380.699,336.67 380.752,335.276 381.03,333.54 381.268,332.585 382.001,330.436 382.132,330.088 383.169,327.588 383.19,327.537 384.347,324.82 385.442,322.038 386.338,319.28 386.926,316.64 387.147,313.985 387.122,312.633 387.012,310.867 386.792,309.094 386.487,307.667 " fill="none" stroke-width="0.5" stroke="rgb(0,0,0)" />
	<polygon points="321.649,325.077 320.349,325.962 320.19,326.038 320.368,326.244 320.975,327.134 321.628,328.405 321.956,329.301 322.251,330.547 322.485,329.824 322.988,327.627 323.168,325.561 323.148,325.043 323.073,324.407 322.945,323.792 322.859,323.506 " fill="none" stroke-width="0.5" stroke="rgb(0,0,0)" />
	<polygon points="75.2042,307.281 73.6468,311.606 72.6909,315.271 72.3697,318.246 72.4025,319.409 72.538,320.693 72.7923,321.893 73.2032,323.086 73.8382,324.361 74.7919,325.784 75.1266,326.176 75.5386,325.079 76.0257,324.084 77.13,322.286 77.8066,321.392 79.2243,319.853 80.0603,319.106 81.7613,317.859 82.7131,317.292 84.6674,316.368 85.6834,316 87.8608,315.433 88.9408,315.258 89.3704,315.23 89.0513,315.229 87.2933,315.059 86.2068,314.848 84.5031,314.344 83.4762,313.929 81.8822,313.102 80.9362,312.487 79.5072,311.346 78.6786,310.536 77.4699,309.093 76.8081,308.115 75.8751,306.379 75.735,306.039 " fill="none" stroke-width="0.5" stroke="rgb(0,0,0)" />
	<polygon points="348.981,305.236 348.564,305.278 345.805,305.459 344.902,305.447 344.321,305.394 344.378,306.425 344.277,307.671 344.075,308.787 343.761,309.892 343.227,311.17 342.683,312.128 341.772,313.334 340.983,314.136 339.857,315.027 339.207,315.421 340.254,315.902 341.102,316.381 345.962,319.693 346.727,320.317 350.745,324.203 351.398,324.954 351.466,325.047 351.507,324.863 351.858,323.785 352.433,322.475 352.633,322.064 353.445,320.549 353.543,320.374 354.05,319.503 352.797,319.206 352.551,319.141 350.702,318.616 349.885,318.315 348.577,317.72 346.221,315.756 345.725,315.044 344.686,311.839 345.213,309.312 345.416,308.868 347.297,306.581 347.869,306.168 348.951,305.553 349.835,305.169 350.056,305.087 " fill="none" stroke-width="0.5" stroke="rgb(0,0,0)" />
	<polygon points="97.7078,313.446 96.5297,313.961 94.0152,314.74 92.8498,314.974 91.5034,315.102 92.5536,315.14 94.8007,315.452 95.9459,315.732 97.9882,316.458 99.0097,316.937 99.846,317.434 99.1557,315.862 98.8446,314.958 98.4475,313.395 98.3898,313.054 " fill="none" stroke-width="0.5" stroke="rgb(0,0,0)" />
	<polygon points="128.874,293.89 128.998,294.35 130.383,300.458 130.505,301.233 131.03,307.203 131.026,308.268 130.883,309.754 130.98,309.703 131.459,309.544 133.842,309.275 134.022,309.292 135.501,309.633 135.65,309.689 137.33,310.665 137.451,310.766 138.662,312.156 138.757,312.308 139.333,313.532 139.403,313.741 139.617,314.587 139.665,314.859 139.733,315.399 139.76,315.741 139.777,316.079 139.781,316.28 139.791,316.377 139.957,316.393 140.138,316.377 139.25,312.22 136.319,306.138 131.736,298.459 128.791,293.627 " fill="none" stroke-width="0.5" stroke="rgb(0,0,0)" />
	<polygon points="401.951,304.233 402.923,306.182 404.273,308.211 405.923,310.2 407.777,312.043 409.724,313.649 411.623,314.922 411.056,313.912 408.927,310.459 406.511,307.256 403.926,304.762 401.71,303.479 " fill="none" stroke-width="0.5" stroke="rgb(0,0,0)" />
	<polygon points="437.577,311.124 436.58,311.632 436.342,311.726 435.576,311.967 435.289,312.036 434.73,312.142 434.394,312.189 433.993,312.231 433.608,312.257 433.321,312.27 432.888,312.278 432.607,312.277 431.837,312.254 431.602,312.243 430.756,312.183 430.625,312.173 429.722,312.089 429.668,312.084 428.733,311.988 427.818,311.896 427.679,311.884 427.663,312.788 427.657,312.976 427.574,314.638 427.842,314.493 428.908,314.049 431.065,313.394 432.187,313.171 434.491,312.947 435.264,312.923 437.305,312.997 437.678,313.025 437.654,312.54 437.666,311.798 437.727,311.028 " fill="none" stroke-width="0.5" stroke="rgb(0,0,0)" />
	<polygon points="312.415,303.1 311.635,303.728 307.045,306.812 306.291,307.213 307.774,307.275 308.274,307.318 310.912,307.66 311.444,307.754 313.847,308.296 314.448,308.466 315.233,308.735 314.946,308.263 314.073,306.331 313.618,304.776 313.302,302.602 313.298,302.254 " fill="none" stroke-width="0.5" stroke="rgb(0,0,0)" />
	<polygon points="108.867,291.993 108.855,292.374 108.578,296.58 108.455,297.446 107.746,300.666 108.509,300.724 108.792,300.881 110.145,302.23 110.187,301.158 109.873,296.562 109.035,292.177 108.867,291.579 " fill="none" stroke-width="0.5" stroke="rgb(0,0,0)" />
	<polygon points="434.866,291.253 434.193,292.376 433.937,292.766 432.986,294.098 432.909,294.203 431.842,295.628 431.27,296.414 432.413,297.061 434.331,298.096 434.466,298.171 436.171,299.151 436.716,299.507 437.9,300.377 438.261,300.787 438.061,300.474 436.101,293.99 435.03,290.884 " fill="none" stroke-width="0.5" stroke="rgb(0,0,0)" />
	<polygon points="458.657,287.554 457.579,288.053 456.403,289.026 455.065,290.643 453.62,292.877 453.046,293.895 454.716,293.725 456.226,293.769 459.414,294.283 461.067,294.812 461.738,295.144 461.691,294.891 461.675,294.889 461.682,294.842 461.678,294.823 461.698,294.727 461.704,294.671 461.712,294.533 461.72,294.328 461.725,294.063 461.727,293.744 461.727,293.519 461.654,292.03 461.447,290.615 461.107,289.302 460.682,288.256 460.28,287.612 460.059,287.391 459.946,287.373 " fill="none" stroke-width="0.5" stroke="rgb(0,0,0)" />
	<polygon points="338.527,294.003 338.539,293.979 338.509,293.978 " fill="none" stroke-width="0.5" stroke="rgb(0,0,0)" />
	<polygon points="89.9437,277.171 89.8667,277.333 86.9531,283.21 86.9038,283.307 84.5487,287.841 83.5361,289.796 83.9478,289.921 85.8659,290.929 86.3874,291.344 86.9501,291.854 87.5149,292.439 87.9893,292.93 88.2063,293.118 88.9498,293.016 88.9905,292.995 89.1575,292.792 89.6302,291.641 90.1092,289.312 90.4323,285.922 90.5875,281.599 90.6244,276.399 90.6326,276.13 90.6606,275.606 " fill="none" stroke-width="0.5" stroke="rgb(0,0,0)" />
	<polygon points="54.5453,275.443 54.534,276.661 54.8052,277.948 55.5715,279.587 55.8737,280.064 56.3436,280.79 56.3819,280.849 56.8269,281.555 56.9459,281.752 57.3374,282.431 57.53,282.794 57.8557,283.465 58.0889,284.016 58.3367,284.697 58.5483,285.422 58.7059,286.132 58.8284,286.967 58.8837,287.724 58.8291,289.044 58.7437,289.589 60.648,286.084 61.4072,282.778 61.3888,282.654 61.337,282.458 61.2696,282.288 61.1696,282.104 61.0073,281.875 60.7476,281.581 60.1717,281.048 60.1581,281.036 58.2361,279.245 57.8926,278.897 56.3785,277.226 56.1644,276.976 54.9416,275.463 54.9112,275.425 54.6265,275.066 " fill="none" stroke-width="0.5" stroke="rgb(0,0,0)" />
	<polygon points="427.74,275.317 427.057,278.299 426.59,279.17 424.216,281.543 422.942,282.225 421.827,282.681 419.936,283.232 419.482,283.344 417.164,283.821 417.023,283.848 414.502,284.303 412.072,284.771 410.037,285.267 408.444,285.832 407.139,286.438 406.055,287.041 406.639,287.054 410.263,286.821 413.506,286.223 416.505,285.358 419.247,284.333 421.728,283.259 423.895,282.274 424.099,282.186 425.839,281.474 426.802,281.175 428.042,280.905 429.761,280.792 429.948,280.808 430.983,280.99 431.152,281.036 431.183,281.048 429.086,276.623 426.777,272.563 " fill="none" stroke-width="0.5" stroke="rgb(0,0,0)" />
	<polygon points="157.648,223.368 157.539,223.562 156.341,225.594 155.315,227.38 154.617,228.812 154.524,229.093 156.305,231.682 156.573,233.685 156.513,235.111 156.496,235.371 156.337,237.193 156.325,237.314 156.1,239.386 156.094,239.442 155.836,241.618 155.835,241.631 155.579,243.751 155.362,245.637 155.22,247.075 155.18,247.84 155.213,248.915 157.089,250.101 158.275,252.294 158.74,253.919 158.85,254.369 159.215,256.18 159.264,256.46 159.556,258.388 159.577,258.544 159.822,260.522 159.828,260.575 160.049,262.511 160.265,264.274 160.479,265.676 161.947,266.212 163.86,268.727 164.4,270.103 164.966,271.532 165.549,272.919 166.154,274.212 166.773,275.35 167.38,276.272 167.926,276.926 168.749,277.653 168.992,277.862 169.401,278.253 169.671,278.536 169.999,278.912 170.261,279.241 170.552,279.638 170.795,280.001 171.069,280.455 171.28,280.842 171.545,281.398 171.71,281.799 171.952,282.512 172.06,282.917 172.231,283.854 172.269,284.253 172.214,285.712 172.663,285.137 173.012,284.729 175.012,282.6 176.245,281.891 175.385,281.307 174.797,280.85 170.683,277.206 169.767,276.175 166.856,271.989 165.965,269.972 164.861,265.146 164.94,262.252 166.082,258.278 167.188,256.181 170.198,252.545 171.012,251.739 175.267,248.288 175.59,248.044 180.428,244.651 185.023,241.313 188.571,238.127 190.554,235.327 191.247,232.388 191.175,231.755 191.029,230.905 190.819,229.967 190.55,228.997 190.405,228.564 190.289,229.479 189.926,230.895 188.578,234.289 187.967,235.435 185.931,238.395 185.269,239.194 182.718,241.766 182.137,242.278 179.242,244.505 178.793,244.818 175.725,246.747 175.418,246.928 172.35,248.603 172.191,248.687 169.295,250.155 165.977,250.739 162.894,249.381 161.086,246.538 161,243.774 161.242,242.638 161.452,241.548 161.637,240.46 161.795,239.372 161.922,238.284 162.016,237.197 162.074,236.11 162.092,235.108 161.993,233.086 161.685,231.144 161.125,229.187 160.257,227.18 159.007,225.089 157.651,223.362 " fill="none" stroke-width="0.5" stroke="rgb(0,0,0)" />
	<polygon points="391.135,273.804 390.822,275.862 390.712,277.713 390.758,278.816 390.875,279.698 390.91,279.624 391.317,278.364 391.589,276.925 391.693,275.266 391.648,273.071 391.57,271.732 " fill="none" stroke-width="0.5" stroke="rgb(0,0,0)" />
	<polygon points="339.577,273.221 338.561,274.316 338.201,275.739 338.219,275.878 338.274,276.001 338.369,276.111 338.709,276.348 339.382,276.64 340.323,276.89 341.388,277.041 341.338,276.558 341.333,276.514 341.277,275.924 341.266,275.795 341.226,275.25 341.213,275.006 341.198,274.517 341.22,273.801 341.245,273.538 341.439,272.496 341.511,272.242 341.56,272.113 " fill="none" stroke-width="0.5" stroke="rgb(0,0,0)" />
	<polygon points="133.389,217.877 129.338,219.159 128.846,219.381 129.673,219.595 131.915,222.11 132.38,225.447 131.809,227.196 130.687,229.38 129.869,231.45 129.204,233.648 128.691,235.904 128.319,238.149 128.076,240.314 127.945,242.328 127.913,243.777 129.299,253.708 132.982,263.479 138.406,273.322 139.545,275.048 140.035,274.03 139.968,273.651 139.531,272.673 138.538,271.016 137.186,268.941 137.104,268.811 135.694,266.515 135.456,266.087 134.226,263.644 133.905,262.872 133.035,260.264 132.778,259.111 132.448,256.323 133.04,253.007 134.078,251.934 134.03,251.493 133.646,249.904 132.989,247.775 132.174,245.327 132.16,245.285 131.324,242.71 131.263,242.51 130.534,239.952 130.436,239.553 129.92,237.094 129.818,236.4 129.622,234.123 130.321,230.827 132.734,228.476 132.907,228.432 132.948,227.91 132.972,227.667 133.273,225.199 133.32,224.883 133.78,222.305 133.865,221.907 134.523,219.294 134.67,218.803 135.109,217.543 " fill="none" stroke-width="0.5" stroke="rgb(0,0,0)" />
	<polygon points="420.686,265.203 420.512,265.652 419.867,267.127 419.779,267.319 419.346,268.221 419.986,268.362 420.245,268.425 421.869,268.863 422.673,269.145 423.822,269.644 426.173,271.526 423.114,267.119 420.906,264.559 " fill="none" stroke-width="0.5" stroke="rgb(0,0,0)" />
	<polygon points="351.953,267.945 352.147,268.003 352.511,268.155 352.532,267.668 " fill="none" stroke-width="0.5" stroke="rgb(0,0,0)" />
	<polygon points="358.828,246.692 357.908,247.313 355.858,248.427 354.854,248.851 355.083,248.908 358.147,249.162 361.279,250.405 363.192,253.178 362.883,257.478 361.298,260.739 361.973,260.703 362.157,260.696 363.067,260.677 363.153,260.676 363.131,260.348 363.128,260.294 363.072,259.298 363.067,259.205 363.027,258.221 363.023,258.078 363.008,257.132 363.008,256.96 363.017,256.323 363.023,256.118 363.052,255.525 363.074,255.23 363.128,254.695 363.188,254.26 363.271,253.795 363.43,253.13 363.546,252.747 363.976,251.704 364.129,251.415 364.944,250.353 364.046,249.872 363.122,249.257 362.132,248.453 361.336,247.666 360.509,246.673 359.914,245.796 " fill="none" stroke-width="0.5" stroke="rgb(0,0,0)" />
	<polygon points="402.317,254.459 403.283,255.314 403.933,255.989 404.895,257.167 405.105,257.441 406.057,258.76 406.241,259.01 407.122,258.331 408.391,257.309 408.504,257.221 409.619,256.368 407.176,255.43 401.821,253.927 401.094,253.724 " fill="none" stroke-width="0.5" stroke="rgb(0,0,0)" />
	<polygon points="445.541,250.656 446.715,253.567 446.718,253.572 448.071,256.937 448.101,257.013 448.708,258.585 448.79,258.43 448.863,258.297 450.545,255.316 450.597,255.225 451.317,254.001 451.192,253.937 450.994,253.832 447.538,251.914 447.197,251.709 445.53,250.628 " fill="none" stroke-width="0.5" stroke="rgb(0,0,0)" />
	<polygon points="382.246,243.447 381.804,244.525 381.185,245.688 380.528,246.666 379.704,247.659 378.867,248.481 377.862,249.285 376.892,249.914 375.732,250.512 375.383,250.65 375.659,250.895 376.297,251.561 377.415,252.932 377.655,253.247 378.593,254.571 379.448,253.673 379.67,253.452 380.857,252.332 381.501,251.807 382.627,251.015 384.352,250.189 385.391,249.888 387.497,249.681 387.798,249.707 389.064,249.96 389.319,250.041 390.81,250.765 391.021,250.908 392.294,252.082 392.462,252.293 393.224,253.535 393.352,253.819 393.416,254.005 393.75,253.737 393.958,253.608 395.21,253.026 395.442,252.95 396.675,252.69 396.927,252.665 397.636,252.758 396.433,252.422 395.872,252.234 391.059,250.343 389.839,249.686 385.962,246.954 384.422,245.346 382.549,242.428 " fill="none" stroke-width="0.5" stroke="rgb(0,0,0)" />
	<polygon points="313.089,224.105 312.05,224.549 310.192,225.137 309.041,225.376 307.362,225.55 308.198,228.135 309.526,229.63 311.972,231.085 315.524,232.627 315.738,232.726 319.537,234.563 320.579,235.21 323.843,237.756 325.253,239.349 327.538,243.164 328.156,244.881 328.419,244.672 329.536,243.974 330.525,243.48 331.693,243.03 332.585,242.766 333.733,242.525 333.834,242.511 333.304,241.727 332.19,239.679 331.748,238.633 331.043,236.373 330.81,235.232 330.66,233.747 330.014,233.948 328.875,234.181 327.47,234.323 326.297,234.323 324.902,234.18 323.758,233.945 322.455,233.537 321.41,233.093 320.227,232.448 319.309,231.826 318.277,230.972 317.5,230.195 316.646,229.161 316.026,228.242 315.38,227.056 314.937,226.011 314.529,224.701 314.295,223.559 314.284,223.45 " fill="none" stroke-width="0.5" stroke="rgb(0,0,0)" />
	<polygon points="464.111,216.87 464.076,217.273 463.739,220.054 463.707,220.284 463.231,223.225 463.212,223.336 462.666,226.337 462.664,226.351 462.126,229.268 461.675,231.937 461.38,234.199 461.287,235.835 461.365,236.843 461.58,237.796 461.682,238.07 461.707,238.042 463.189,235.919 464.601,233.334 465.758,230.485 466.516,227.562 466.776,224.764 466.211,219.692 464.777,215.769 464.21,214.918 " fill="none" stroke-width="0.5" stroke="rgb(0,0,0)" />
	<polygon points="103.671,237.768 105.291,235.78 103.986,235.19 103.927,235.085 " fill="none" stroke-width="0.5" stroke="rgb(0,0,0)" />
	<polygon points="379.987,226.871 379.203,227.656 377.987,228.658 377.54,228.96 377.846,229.158 378.851,229.956 379.647,230.723 380.046,231.188 380.124,230.065 380.194,229.491 380.551,227.409 380.615,227.09 380.927,225.73 " fill="none" stroke-width="0.5" stroke="rgb(0,0,0)" />
	<polygon points="47.6626,226.514 47.1493,226.731 44.6219,227.661 44.3513,227.743 44.5263,227.849 45.6975,228.784 45.9803,229.078 46.8158,230.182 47.0079,230.512 48.287,226.213 " fill="none" stroke-width="0.5" stroke="rgb(0,0,0)" />
	<polygon points="86.5168,211.017 84.4384,213.466 84.0034,213.755 84.5414,214.072 85.1128,214.52 86.071,215.472 86.5338,216.053 87.1461,216.998 87.5023,217.686 87.8629,218.546 88.1148,219.314 88.3097,220.082 88.4593,220.903 88.5433,221.605 88.5926,222.453 88.5612,223.48 88.3257,225.446 88.9927,224.799 89.7293,224.197 90.8297,223.488 91.5666,223.124 93.1771,222.603 93.9061,222.48 95.6748,222.457 96.3185,222.548 97.8754,222.995 98.4871,223.268 99.7807,224.064 100.344,224.522 101.275,225.476 101.485,225.748 101.477,225.135 101.493,224.634 101.796,220.557 101.924,219.7 102.765,216 103.011,215.193 103.963,212.734 102.106,213.406 100.766,213.718 97.7684,214.048 96.4902,214.047 93.301,213.691 92.0001,213.391 89.1359,212.371 87.9492,211.789 86.5342,210.882 " fill="none" stroke-width="0.5" stroke="rgb(0,0,0)" />
	<polygon points="450.821,206.563 449.027,207.209 446.199,208.385 446.093,208.428 442.505,209.839 442.187,209.953 437.877,211.364 437.428,211.491 432.307,212.721 431.782,212.822 425.76,213.693 425.203,213.746 420.299,213.977 421.134,214.29 425.578,216.451 426.746,217.203 430.439,220.267 431.341,221.206 434.109,224.822 435.618,221.311 436.174,220.307 438.696,216.653 439.247,215.971 442.232,212.803 442.746,212.32 445.876,209.717 446.385,209.338 449.346,207.38 449.959,207.027 450.925,206.545 " fill="none" stroke-width="0.5" stroke="rgb(0,0,0)" />
	<polygon points="64.9885,214.35 63.7829,215.722 62.5554,216.738 62.5859,216.747 63.2302,217.043 64.7026,218.013 65.2195,218.481 66.2008,219.636 66.6005,220.256 67.1303,221.292 67.4233,222.042 67.675,222.861 67.8715,223.722 67.9652,224.268 68.7585,222.315 69.1318,221.559 71.7964,217.025 72.7216,216.064 71.7043,215.98 70.7161,215.81 68.6444,215.268 67.6477,214.907 65.7772,214.029 65.1751,213.671 " fill="none" stroke-width="0.5" stroke="rgb(0,0,0)" />
	<polygon points="185.46,211.501 187.433,213.789 188.221,214.968 189.43,217.369 189.88,218.586 190.225,219.981 190.31,219.796 193.19,218.047 196.436,218.536 196.026,217.859 195.432,215.714 194.804,214.516 193.979,213.566 192.815,212.716 191.147,211.947 188.886,211.321 186.015,210.912 184.765,210.86 " fill="none" stroke-width="0.5" stroke="rgb(0,0,0)" />
	<polygon points="337.887,212.638 336.617,213.321 337.153,213.968 337.777,214.888 338.424,216.075 338.869,217.122 338.876,217.144 338.889,217.135 340.451,216.285 340.383,216.217 339.527,215.181 338.905,214.26 338.259,213.072 338.033,212.54 " fill="none" stroke-width="0.5" stroke="rgb(0,0,0)" />
	<polygon points="400.141,210.941 401.157,212.022 402.047,213.252 403.639,212.193 402.854,211.978 399.799,210.66 " fill="none" stroke-width="0.5" stroke="rgb(0,0,0)" />
	<polygon points="381.025,198.558 380.594,199.933 380.149,200.978 379.468,202.226 378.847,203.142 377.945,204.231 377.17,205.005 376.795,205.315 377.059,205.459 377.985,206.082 379.2,207.084 379.984,207.867 380.987,209.082 381.612,210.007 381.954,210.637 381.72,209.875 382.688,206.648 385.286,204.504 388.61,204.599 383.152,200.148 382.189,199.149 381.179,197.812 " fill="none" stroke-width="0.5" stroke="rgb(0,0,0)" />
	<polygon points="57.5155,202.709 57.1058,203.075 55.3256,204.521 54.8442,204.873 53.0573,206.041 52.4968,206.365 50.7181,207.263 50.5745,207.325 51.9418,207.079 54.066,206.651 56.343,206.157 58.598,205.644 58.0994,204.068 57.8575,202.889 57.8111,202.419 " fill="none" stroke-width="0.5" stroke="rgb(0,0,0)" />
	<polygon points="180.355,186.303 180.518,186.263 182.383,185.912 182.048,185.808 179.774,184.703 " fill="none" stroke-width="0.5" stroke="rgb(0,0,0)" />
	<polygon points="366.837,167.58 366.054,168.361 365.07,169.171 364.146,169.793 363.017,170.405 362.664,170.554 362.831,170.757 363.452,171.672 364.492,173.57 364.937,174.615 365.595,176.708 365.832,177.855 366.061,180.095 366.061,181.281 365.94,182.461 366.238,182.399 367.693,182.249 368.879,182.248 370.352,182.398 371.496,182.633 371.927,182.768 371.271,181.428 370.946,180.611 368.18,171.763 368.007,171.059 367.284,167.039 " fill="none" stroke-width="0.5" stroke="rgb(0,0,0)" />
	<polygon points="151.225,172.262 150.51,172.559 146.062,174.07 145.293,174.273 140.921,175.115 142.089,175.928 142.782,176.495 146.176,179.741 146.639,180.238 148.039,181.932 148.429,179.452 148.634,178.586 149.593,175.59 150.255,174.195 151.646,172.057 151.654,172.048 " fill="none" stroke-width="0.5" stroke="rgb(0,0,0)" />
	<polygon points="109.071,159.922 108.45,160.841 107.595,161.878 106.818,162.655 105.782,163.511 104.864,164.134 103.678,164.78 102.632,165.224 101.323,165.633 100.18,165.868 98.7782,166.011 97.6048,166.011 96.1978,165.868 95.0573,165.635 93.7445,165.226 92.6998,164.784 91.5101,164.137 90.5906,163.516 90.3564,163.323 89.5375,165.411 92.3284,165.462 95.6712,166.699 96.3137,166.982 99.6892,168.721 100.292,169.08 103.553,171.294 104.148,171.758 107.147,174.424 107.74,175.036 110.329,178.129 110.895,178.936 112.392,181.51 112.966,179.668 113.407,178.626 114.449,176.708 115.264,175.565 116.65,174.048 117.843,173.051 119.594,171.95 119.629,171.933 118.071,171.042 117.038,170.289 114.145,167.645 113.338,166.734 111.116,163.623 110.555,162.652 109.204,159.678 " fill="none" stroke-width="0.5" stroke="rgb(0,0,0)" />
	<polygon points="309.493,169.003 308.994,170.036 308.233,171.221 307.644,171.93 306.245,172.859 306.29,172.845 307.434,172.61 308.834,172.468 310.008,172.467 311.415,172.61 312.555,172.843 313.867,173.252 313.925,173.276 314.001,172.904 314.387,171.659 314.827,170.614 315.119,170.077 314.814,170.027 312.61,169.578 312.212,169.483 310.364,168.968 310.042,168.869 309.616,168.723 " fill="none" stroke-width="0.5" stroke="rgb(0,0,0)" />
	<polygon points="343.949,162.768 342.988,163.567 338.882,166.29 337.899,166.813 335.403,167.849 335.988,168.557 336.526,169.352 336.735,169.1 337.509,168.327 339.168,166.955 340.083,166.336 341.982,165.299 343.025,164.856 345.117,164.199 346.204,163.975 346.002,163.497 345.615,162.253 345.412,161.257 " fill="none" stroke-width="0.5" stroke="rgb(0,0,0)" />
	<polygon points="163.729,164.195 160.141,167.081 159.684,167.414 158.814,167.984 159.927,167.793 162.02,167.818 163.747,168.157 165.178,168.637 165.692,168.888 165.554,168.58 163.848,164.091 " fill="none" stroke-width="0.5" stroke="rgb(0,0,0)" />
	<polygon points="422.44,142.543 421.368,143.825 418.626,146.277 417.628,146.995 414.012,149.052 413.185,149.44 408.824,151.079 408.67,151.127 409.086,151.118 409.728,151.14 417.061,151.8 418.185,152.014 424.605,153.911 425.676,154.348 431.361,157.359 432.214,157.911 437.345,161.913 437.482,162.036 435.09,157.504 434.644,156.394 432.798,149.957 432.85,146.588 433.182,146.108 431.65,145.706 430.79,145.406 429.111,144.668 428.082,144.084 426.723,143.117 425.639,142.115 424.629,140.91 424.037,139.95 " fill="none" stroke-width="0.5" stroke="rgb(0,0,0)" />
	<polygon points="353.536,133.095 353.601,133.399 353.875,134.893 353.925,135.222 354.092,136.566 354.129,136.989 354.186,138.109 354.167,138.95 353.541,145.551 353.295,146.756 353.003,147.679 353.36,147.528 354.609,147.142 355.745,146.911 357.086,146.776 358.248,146.776 359.587,146.911 360.724,147.142 361.972,147.529 363.019,147.97 364.148,148.582 365.073,149.206 366.057,150.017 366.84,150.8 367.005,151 367.017,150.981 367.98,149.805 368.038,149.751 369.527,148.739 369.589,148.709 370.304,148.497 365.591,145.735 364.705,145.096 359.368,140.427 358.667,139.696 354.419,134.413 353.871,133.599 353.496,132.924 " fill="none" stroke-width="0.5" stroke="rgb(0,0,0)" />
	<polygon points="130.245,134.049 129.57,134.415 128.994,134.78 128.608,135.065 128.235,135.396 125.173,136.802 124.021,136.617 124.295,136.892 125.059,138.514 125.491,139.803 125.969,142.097 126.014,142.337 126.413,144.761 126.858,146.62 127.053,147.039 127.275,146.892 127.742,146.466 128.28,145.809 128.854,144.861 129.454,143.49 129.768,142.534 130.091,141.415 130.367,140.302 130.595,139.208 130.772,138.143 130.898,137.121 130.972,136.153 130.996,135.26 130.957,133.97 130.931,133.739 " fill="none" stroke-width="0.5" stroke="rgb(0,0,0)" />
	<polygon points="101.853,138.108 101.71,139.513 101.477,140.655 101.402,140.893 102.631,141.277 103.676,141.721 104.862,142.367 105.78,142.989 106.815,143.844 107.592,144.621 107.674,144.72 107.843,143.741 107.944,143.272 108.402,141.507 108.608,140.867 109.009,139.833 107.679,140.167 105.257,139.505 102.62,138.116 101.853,137.324 " fill="none" stroke-width="0.5" stroke="rgb(0,0,0)" />
	<polygon points="326.059,138.383 326.198,138.765 326.515,140.118 326.563,140.551 326.567,141.778 326.488,142.552 326.369,143.207 326.605,143.188 329.4,142.496 329.894,142.277 329.266,142.111 327.177,139.871 326.696,138.956 326.229,138.221 325.658,137.47 325.496,137.29 " fill="none" stroke-width="0.5" stroke="rgb(0,0,0)" />
	<polygon points="58.7188,137.13 58.5875,137.631 59.6527,137.424 58.7159,137.122 " fill="none" stroke-width="0.5" stroke="rgb(0,0,0)" />
	<polygon points="76.2331,137.395 76.3332,137.408 76.3332,137.242 " fill="none" stroke-width="0.5" stroke="rgb(0,0,0)" />
	<polygon points="314.854,123.232 313.315,123.648 311.961,124.279 310.79,125.085 309.819,126.017 309.073,127.004 308.574,127.956 308.143,129.316 306.392,131.869 307.233,132.428 308.35,133.025 309.41,133.454 310.458,133.746 311.554,133.922 312.805,133.985 313.172,133.974 313.696,133.933 314.304,133.866 314.97,133.78 315.657,133.688 315.704,133.681 316.359,133.599 316.513,133.581 317.102,133.523 317.422,133.5 317.929,133.477 318.514,133.481 319.078,133.513 319.816,133.603 320.324,133.698 320.622,133.778 320.514,133.723 319.77,133.264 319.408,133.002 318.72,132.416 318.419,132.117 317.828,131.43 317.587,131.1 317.121,130.348 316.936,129.993 316.602,129.214 316.473,128.84 316.264,128.065 316.188,127.679 316.09,126.927 316.066,126.534 316.085,125.567 316.162,124.824 316.364,123.799 316.573,123.082 " fill="none" stroke-width="0.5" stroke="rgb(0,0,0)" />
	<polygon points="123.49,111.964 121.904,118.309 121.878,118.409 120.151,124.825 120.038,125.197 118.121,130.793 117.718,131.706 116.895,133.204 119.245,133.42 118.599,130.698 119.033,128.827 120.876,124.397 121.275,123.612 123.617,119.759 124.156,119.013 126.94,115.742 127.607,115.076 129.558,113.422 128.478,112.606 127.72,111.92 126.218,110.297 125.963,110.001 124.525,108.222 " fill="none" stroke-width="0.5" stroke="rgb(0,0,0)" />
	<polygon points="93.7414,111.712 93.6444,111.805 91.4678,113.826 91.0856,114.151 88.8224,115.914 87.9875,116.456 85.6494,117.703 84.041,118.276 81.6397,118.749 79.9021,118.825 79.189,118.749 79.2452,119.08 79.3178,119.722 79.5065,123.037 79.5145,123.495 79.4827,124.922 79.4717,125.173 79.3807,126.561 79.3601,126.799 79.2159,128.146 79.1873,128.371 78.9961,129.672 78.9855,129.736 79.6798,128.894 80.4565,128.116 81.4911,127.259 82.4103,126.636 83.5964,125.989 84.6431,125.544 85.952,125.135 87.0967,124.9 88.4998,124.757 89.675,124.756 91.0801,124.899 92.2233,125.134 93.5341,125.544 94.5799,125.987 95.7678,126.635 96.6868,127.256 97.2326,127.708 96.7174,125.421 96.6267,124.915 95.833,118.981 95.8176,118.855 95.1671,113.028 94.815,110.669 " fill="none" stroke-width="0.5" stroke="rgb(0,0,0)" />
	<polygon points="183.937,107.709 183.986,108.786 183.944,109.677 183.878,110.318 183.746,111.144 183.56,111.942 183.33,112.686 182.932,113.652 182.596,114.298 181.872,115.373 181.421,115.904 180.315,116.908 179.742,117.308 178.379,118.01 177.674,118.262 176.322,118.569 175.478,118.656 173.376,118.489 171.271,117.924 172.95,120.694 173.402,121.616 175.089,125.998 175.348,126.869 175.677,128.408 177.08,127.16 177.623,126.732 180.623,124.646 181.332,124.224 184.452,122.657 185.359,122.294 188.581,121.31 189.679,121.087 192.984,120.745 194.224,120.75 197.07,121.068 193.976,118.014 193.623,117.633 189.379,112.621 189.189,112.385 184.679,106.457 184.53,106.253 183.532,104.814 " fill="none" stroke-width="0.5" stroke="rgb(0,0,0)" />
	<polygon points="384.874,94.7682 378.697,99.3895 377.743,99.9692 370.795,103.321 369.798,103.694 362.299,105.735 361.284,105.917 353.454,106.606 352.51,106.612 347.516,106.237 347.799,106.696 348.372,107.931 348.601,108.629 348.804,109.441 348.898,109.981 349.257,109.499 349.416,109.318 349.93,108.801 350.106,108.644 350.491,108.331 350.679,108.191 350.882,108.047 351.076,107.915 352.467,107.221 353.647,106.819 354.928,106.539 356.769,106.351 357.073,106.328 359.468,106.21 362.252,106.024 365.353,105.646 368.778,104.951 372.518,103.809 376.687,102.027 377.105,101.815 377.434,101.66 378.02,101.407 378.359,101.274 378.941,101.065 379.287,100.953 379.864,100.786 380.216,100.696 380.785,100.569 381.141,100.501 381.699,100.413 382.059,100.368 382.605,100.316 382.968,100.293 383.5,100.276 384.559,100.34 386.524,100.64 388.475,101.309 389.893,102.1 391.305,103.207 392.35,104.325 392.953,105.091 393.798,106.374 393.841,106.44 394.319,107.187 394.577,107.163 395.709,106.896 397.151,106.424 398.796,105.804 400.512,105.14 400.66,105.085 402.31,104.497 402.725,104.366 404.245,103.95 405.101,103.784 406.448,103.626 409.053,103.918 411.095,104.639 413.085,105.834 415.228,107.8 415.992,108.654 418.121,111.57 418.498,112.156 420.498,115.728 420.734,116.197 422.49,120.129 422.67,120.581 424.067,124.578 424.225,125.112 424.756,127.281 425.184,126.71 425.995,125.832 427.004,124.944 427.108,124.87 426.471,124.433 425.556,123.654 424.648,122.703 423.926,121.772 423.135,120.506 422.668,119.586 422.164,118.324 421.948,117.674 421.576,116.288 421.502,115.976 421.196,114.519 421.193,114.506 420.917,113.175 420.66,112.182 420.446,111.613 420.37,111.484 419.911,111.02 418.341,108.039 418.693,104.688 420.448,102.579 419.915,102.601 419.619,102.605 416.332,102.573 416.219,102.57 412.886,102.472 412.776,102.468 409.407,102.304 409.298,102.298 405.901,102.069 405.793,102.061 402.377,101.766 402.27,101.756 398.844,101.397 398.736,101.384 395.309,100.96 395.2,100.945 391.782,100.455 391.702,100.443 391.228,100.369 390.742,100.271 390.357,100.176 389.625,99.9432 389.321,99.8239 388.309,99.3072 388.078,99.1593 386.93,98.1923 386.765,98.0117 385.85,96.6771 385.742,96.4595 385.281,95.1669 385.222,94.9082 385.164,94.5011 " fill="none" stroke-width="0.5" stroke="rgb(0,0,0)" />
	<polygon points="347.993,122.619 349.107,123.46 348.447,121.536 348.351,121.121 " fill="none" stroke-width="0.5" stroke="rgb(0,0,0)" />
	<polygon points="144.808,101.776 144.231,105.001 144.129,105.462 143.771,106.818 144.471,106.659 145.334,106.53 149.464,106.228 150.54,106.249 154.609,106.71 150.29,103.018 146.395,99.886 145.29,99.1575 " fill="none" stroke-width="0.5" stroke="rgb(0,0,0)" />
	<polygon points="326.724,98.892 326.332,99.4591 327.729,99.7455 328.466,99.948 331.207,100.899 331.839,101.161 334.084,102.252 334.56,102.511 336.356,103.601 336.615,103.768 337.067,104.076 337.229,103.996 337.8,103.727 336.779,103.366 336.264,103.155 332.615,101.454 332.281,101.285 329.173,99.5847 329.058,99.52 327.081,98.379 " fill="none" stroke-width="0.5" stroke="rgb(0,0,0)" />
	<polygon points="432.654,101.99 434.693,101.828 436.289,101.489 " fill="none" stroke-width="0.5" stroke="rgb(0,0,0)" />
	<polygon points="70.0685,92.3295 65.0235,94.9848 61.604,96.8713 62.8662,97.0457 64.5012,97.5241 67.8837,99.0839 69.2443,99.96 70.5163,101.058 70.7177,99.3033 70.7283,99.2169 71.0163,97.0016 71.0173,96.9933 71.3006,94.8386 71.5376,92.8435 71.6464,91.6269 " fill="none" stroke-width="0.5" stroke="rgb(0,0,0)" />
	<polygon points="396.101,78.9625 395.612,80.0923 392.792,85.0816 393.871,84.4648 395.383,83.3241 396.453,82.1051 397.131,80.6885 397.466,78.3389 397.431,77.4138 397.305,76.1532 397.198,75.4379 " fill="none" stroke-width="0.5" stroke="rgb(0,0,0)" />
	<polygon points="172.699,76.8107 173.426,78.5249 173.864,77.9624 173.99,77.8276 174.904,77.0386 175.002,76.9703 173.293,76.4271 172.489,76.2162 " fill="none" stroke-width="0.5" stroke="rgb(0,0,0)" />
	<polygon points="112.443,77.8205 112.784,77.1392 112.33,76.9842 112.187,76.8992 " fill="none" stroke-width="0.5" stroke="rgb(0,0,0)" />
	<polygon points="126.099,60.4428 125.344,63.5773 124.611,67.0583 124.531,67.3871 123.684,70.4942 123.232,71.6498 122.745,72.584 123.497,72.8519 125.744,74.3068 127.125,75.7514 127.346,76.0341 127.374,75.2657 127.394,74.9578 127.494,73.8553 127.565,73.3357 127.737,72.3973 127.959,71.55 128.221,70.792 128.859,69.4952 129.228,68.9337 130.736,67.3786 131.231,67.0298 132.143,66.6455 131.152,65.3896 130.997,65.1829 129.262,62.7683 127.603,60.5704 126.503,59.3676 " fill="none" stroke-width="0.5" stroke="rgb(0,0,0)" />
	<polygon points="105.787,58.686 104.278,59.7246 102.505,61.1686 100.647,62.7592 100.503,62.8788 98.7216,64.3068 98.1653,64.7013 96.5474,65.7113 95.2582,66.2726 95.3124,66.3791 95.7185,67.4096 95.9078,68.0689 96.0768,68.8632 96.1845,69.6298 96.2365,70.2094 96.2706,71.0794 96.2631,71.6794 96.1358,73.6553 96.0822,74.1524 96.0489,74.3719 96.6077,73.7738 98.6969,71.8928 100.678,70.7232 102.736,70.0098 106.102,69.8783 107.638,70.6175 107.402,69.3988 107.138,66.237 107.123,65.9943 106.979,62.5266 106.693,59.5466 106.383,58.4004 " fill="none" stroke-width="0.5" stroke="rgb(0,0,0)" />
	<polygon points="145.801,69.8401 145.516,70.0885 144.985,70.4648 146.873,72.0059 145.98,69.6498 " fill="none" stroke-width="0.5" stroke="rgb(0,0,0)" />
	<polygon points="399.784,59.2481 399.781,60.3292 399.585,62.3511 399.96,62.12 400.197,62.003 401.186,61.6227 401.44,61.5509 402.481,61.3569 402.744,61.3324 405.399,61.7083 406.509,62.1436 408.102,63.0857 409.48,64.2335 409.812,64.532 411.445,66.1193 413.226,67.7917 415.072,69.2737 416.957,70.4186 418.863,71.1356 421.138,71.4227 421.471,71.4071 422.166,71.3017 422.803,71.1154 423.264,70.887 423.542,70.6609 423.759,70.3609 424.004,69.6946 424.09,68.8833 423.558,67.1163 421.718,65.217 417.989,63.0106 413.114,60.9909 407.925,59.2705 403.233,57.8288 402.96,57.7376 399.598,56.5192 399.533,56.482 " fill="none" stroke-width="0.5" stroke="rgb(0,0,0)" />
	<polygon points="84.6214,61.222 83.6124,62.3265 84.4495,62.11 84.8827,62.0397 84.6757,61.1548 " fill="none" stroke-width="0.5" stroke="rgb(0,0,0)" />
	<polygon points="162.464,45.0443 162.417,45.4625 162.058,46.9175 161.924,47.2598 161.139,48.6626 160.932,48.9353 160.221,49.6549 160.347,49.6883 160.727,49.8031 164.105,50.9516 164.264,51.0083 167.796,52.3249 167.8,52.3265 171.248,53.615 171.572,53.7259 170.373,52.3847 166.579,48.5596 162.681,44.6854 162.535,44.5356 162.365,44.3535 " fill="none" stroke-width="0.5" stroke="rgb(0,0,0)" />
	<polygon points="143.649,50.1299 144.35,51.976 144.871,53.1806 145.212,52.5888 146.029,51.493 146.556,50.9375 147.293,50.3386 147.286,50.3368 145.711,49.9171 144.285,49.5863 143.458,49.4472 " fill="none" stroke-width="0.5" stroke="rgb(0,0,0)" />
	<polygon points="90.4898,47.5333 88.6302,47.8435 87.7981,47.9841 88.1939,48.5999 88.5219,51.1139 88.6364,50.9593 88.7617,50.7963 90.4791,48.6408 91.4566,47.391 " fill="none" stroke-width="0.5" stroke="rgb(0,0,0)" />
	<polygon points="445.173,40.2023 444.567,42.0271 444.088,43.789 443.776,45.5387 443.662,47.3534 443.702,47.9707 443.792,48.3872 443.863,48.5628 444.149,48.6458 444.686,48.6915 444.775,48.6789 444.902,48.4595 445.204,47.5817 445.469,46.2374 445.633,44.5464 445.686,42.6173 445.654,41.0232 445.566,39.4908 445.538,39.1661 " fill="none" stroke-width="0.5" stroke="rgb(0,0,0)" />
	<polygon points="72.9636,37.4405 69.5282,39.5903 69.5194,39.5958 66.3851,41.5494 70.7823,42.008 71.8211,42.1075 71.8205,42.1035 72.5489,38.3265 73.1325,37.3271 " fill="none" stroke-width="0.5" stroke="rgb(0,0,0)" />
</svg>
