<?xml version="1.0" standalone="no" ?>
<!DOCTYPE svg PUBLIC "-//W3C//DTD SVG 1.1//EN" "http://www.w3.org/Graphics/SVG/1.1/DTD/svg11.dtd">
<svg width="500px" height="500px" xmlns="http://www.w3.org/2000/svg" version="1.1" >
	<polygon points="480.823,17.0971 480.823,26.6825 480.583,26.8516 479.749,27.6451 479.052,28.5167 478.494,29.4274 478.078,30.3208 477.809,31.1201 477.68,31.718 477.657,31.9982 477.804,33.9303 478.235,36.0214 478.93,38.474 479.787,41.3259 479.831,41.4799 480.7,44.7312 480.773,45.0449 480.823,45.2919 480.823,70.8557 480.791,70.9779 477.429,78.9315 476.658,80.2073 471.343,86.6793 470.37,87.5932 463.337,92.6776 462.405,93.214 453.888,97.0048 453.265,97.2247 454.202,97.2156 455.511,97.3256 456.51,97.5091 457.592,97.8199 458.674,98.2677 459.547,98.7505 460.256,99.2619 460.315,99.071 462.852,97.1447 465.622,96.9568 468.108,97.4672 469.021,97.7439 471.116,98.596 472.06,99.0983 473.783,100.257 474.639,100.978 476.008,102.41 476.671,103.267 477.704,104.936 478.14,105.817 478.856,107.69 479.093,108.507 479.509,110.549 479.604,111.266 479.739,113.441 479.687,114.56 478.937,119.392 478.552,120.703 476.681,124.922 476.896,124.937 478.548,125.857 479.989,127.042 480.823,128.028 480.823,183.272 480.544,184.322 480.197,185.257 478.869,187.993 477.116,190.021 475.537,191.096 471.371,191.846 468.037,191.026 466.684,190.484 462.114,187.853 461.532,187.464 456.209,183.359 455.829,183.035 450.235,177.792 449.907,177.455 449.799,177.334 451.847,180.141 451.906,180.224 455.97,186.031 458.384,187.452 458.397,187.46 462.459,189.867 462.71,190.026 467.099,192.979 467.52,193.294 471.889,196.925 472.429,197.443 476.431,201.885 477.006,202.656 480.294,208.042 480.772,209.058 480.823,209.207 480.823,239.045 480.432,240.073 480.056,240.855 476.536,246.847 476.279,247.243 472.094,253.079 472.03,253.166 469.248,256.88 470.001,256.581 472.932,255.964 474.544,255.88 476.012,256.033 477.217,256.306 478.477,256.755 479.685,257.373 480.739,258.1 480.823,258.176 480.823,281.286 480.48,287.407 479.714,288.904 479.457,289.351 477.264,292.757 476.936,293.212 474.359,296.4 473.938,296.861 470.98,299.735 468.51,300.958 470.587,303.676 471.064,304.425 472.979,308.093 473.285,308.802 474.729,312.982 474.914,313.665 475.826,318.247 475.882,318.677 473.11,329.62 467.07,347.047 459.27,364.67 459.107,364.968 456.199,367.841 453.355,369.278 450.207,368.786 447.421,365.029 446.299,358.554 444.024,354.96 440.489,352.208 435.734,349.825 430.531,347.509 430.015,347.244 425.386,344.53 424.113,343.48 420.84,339.763 419.677,337.497 418.436,332.124 418.324,330.485 418.384,329.823 417.42,330.465 416.156,330.814 415.335,330.97 413.548,331.164 413.366,331.18 411.4,331.323 410.888,331.377 410.933,331.661 411.18,333.051 411.435,334.473 411.449,334.554 411.673,335.923 411.701,336.118 411.86,337.387 411.892,337.755 411.952,338.884 411.958,339.31 411.948,339.643 411.923,340.022 411.889,340.357 411.807,340.887 411.74,341.209 411.533,341.935 411.425,342.23 410.985,343.138 411.539,343.072 412.596,343.055 417.943,343.51 418.819,343.661 424.113,345.048 424.99,345.364 430.028,347.709 430.893,348.219 435.471,351.552 436.275,352.276 440.189,356.624 440.852,357.544 443.899,362.935 444.345,363.972 446.323,370.435 446.528,371.474 447.232,379.036 447.189,380.343 445.989,387.819 438.331,399.399 425.161,415.952 410.17,431.593 404.804,436.203 403.464,436.359 401.948,436.104 400.59,435.678 399.097,434.973 398.19,434.425 396.775,433.359 396.151,432.806 394.87,431.47 394.404,430.911 393.311,429.396 392.932,428.785 392.083,427.179 391.76,426.434 391.21,424.828 390.972,423.808 390.777,422.293 390.744,421.303 390.773,420.83 390.879,420.061 390.987,419.56 391.262,418.675 391.476,418.154 391.507,418.096 389.094,417.839 388.156,417.65 384.595,416.586 383.861,416.304 380.522,414.724 379.925,414.392 376.928,412.456 376.451,412.104 376.548,412.607 376.643,413.597 376.643,417.615 376.642,417.737 376.625,418.46 376.61,418.75 376.553,419.465 376.511,419.829 376.45,420.238 379.389,419.445 380.959,419.629 382.055,419.879 383.687,420.444 384.661,420.898 386.273,421.864 387.122,422.499 388.629,423.887 389.325,424.673 390.643,426.502 391.155,427.384 392.2,429.676 392.515,430.581 393.204,433.355 393.342,434.215 393.59,437.492 393.527,438.783 392.413,445.136 391.942,446.565 391.59,447.267 374.668,459.037 354.126,470.285 331.702,479.516 329.955,480.014 327.234,479.775 326.269,479.597 323.15,478.711 322.183,478.328 319.52,476.951 318.63,476.368 316.431,474.582 315.681,473.835 313.956,471.722 313.383,470.858 312.14,468.499 311.757,467.56 311.004,465.037 310.811,464.053 310.558,461.448 310.545,460.606 310.786,456.921 310.865,456.298 311.537,452.734 311.667,452.2 312.69,448.794 312.849,448.342 313.504,446.72 312.757,446.904 311.957,447.035 311.647,447.062 311.408,447.755 310.255,451.854 310.206,452.018 308.697,456.78 308.513,457.272 306.479,461.977 306.007,462.836 303.241,466.909 302.119,468.101 298.411,470.967 296.363,471.928 293.804,472.498 295.368,472.481 297.271,472.408 298.588,472.311 299.494,472.206 300.225,472.094 300.92,471.984 301.161,471.952 301.877,471.872 302.268,471.844 303.132,471.814 303.728,471.827 304.598,471.897 305.623,472.084 306.292,472.276 307.494,472.794 307.987,473.085 309.126,473.993 309.471,474.358 310.273,475.47 310.495,475.885 310.911,476.908 311.037,477.347 311.197,478.121 311.254,478.56 311.293,479.059 311.306,479.474 311.129,480.992 310.731,482.465 309.788,484.336 308.609,485.825 308.204,486.218 307.382,486.452 281.151,490.817 272.009,491.309 271.964,491.292 271.217,490.939 269.047,489.694 268.346,489.211 266.52,487.72 265.897,487.118 264.419,485.431 264.4,485.404 261.47,486.896 261.178,487.034 257.013,488.839 256.71,488.96 252.285,490.557 251.96,490.662 247.33,491.997 247.192,492.031 225.548,490.902 199.887,486.773 189.851,484.007 185.715,481.447 185.44,481.265 180.679,477.882 176.609,475.023 173.21,473.111 170.822,472.423 167.546,472.099 163.357,471.867 163.041,471.839 158.288,471.284 157.603,471.156 152.392,469.823 151.535,469.522 145.858,466.949 145.038,466.484 138.885,462.211 138.231,461.674 131.595,455.24 130.097,452.429 130.519,449.271 131.265,448.48 127.298,448.837 126.271,448.828 115.506,447.66 114.407,447.419 113.862,447.235 98.2672,434.295 83.2685,419.161 74.0188,407.9 73.9441,407.578 73.0966,400.796 73.073,399.737 73.4825,394.609 73.6043,393.854 73.5693,393.901 70.5282,394.851 66.8444,393.275 64.9705,391.347 61.5922,388.999 59.4627,387.523 58.5824,386.23 48.8916,368.927 40.9666,351.394 36.3256,338.2 37.0007,331.822 37.2057,330.827 40.174,321.267 40.4701,320.522 44.6667,311.952 44.9325,311.475 46.6603,308.722 45.0947,309.819 43.4689,310.58 41.3524,311.152 38.4339,311.093 36.4648,310.473 34.3489,309.19 32.5304,307.372 31.6558,306.209 30.0223,303.253 29.6665,302.459 28.2527,298.425 28.0918,297.869 27.522,295.388 26.8905,283.906 26.8905,249.742 26.9046,249.64 26.9606,249.312 28.1526,243.462 28.2567,243.042 29.7029,238.094 29.9261,237.477 31.5877,233.659 32.1912,232.62 34.0296,230.161 36.0985,228.516 37.0777,228.085 34.934,227.835 33.6027,227.496 31.3709,226.602 30.1,225.869 28.183,224.368 27.2338,223.401 26.8905,222.944 26.8905,198.438 28.2129,198.366 29.316,199.13 28.8116,197.921 28.5372,197.058 27.9645,194.506 27.8504,193.722 27.6519,190.816 27.6398,190.456 27.6401,190.13 27.6402,190.098 27.6426,189.772 27.6434,189.708 27.6497,189.382 27.6525,189.287 27.6648,188.96 27.6711,188.833 27.6914,188.506 27.7035,188.349 27.7339,188.021 27.7544,187.836 27.7967,187.507 27.8285,187.295 27.8848,186.966 28.7639,185.28 28.4674,184.933 27.9703,184.245 27.632,183.686 27.2098,182.814 26.9902,182.226 26.8905,181.826 26.8905,177.489 26.9619,177.232 27.0376,176.991 27.1541,176.659 27.2445,176.427 27.3871,176.096 27.4915,175.875 27.5524,175.757 28.0198,174.47 28.4941,171.975 29.1263,168.373 29.1882,168.073 30.1643,163.955 30.3295,163.399 31.9016,159.016 32.2349,158.275 34.6614,153.843 35.2199,153.02 38.7593,148.752 39.5338,147.995 41.5852,146.37 41.0851,146.365 38.3517,146.109 37.3779,145.923 34.8424,145.183 33.9046,144.807 31.6184,143.62 30.7586,143.06 28.7729,141.466 28.0316,140.738 26.8905,139.367 26.8905,115.736 27.412,115.025 27.9324,114.419 29.5285,112.825 30.1359,112.305 32.0553,110.903 32.7171,110.492 34.97,109.317 38.1103,108.78 40.9745,110.175 41.3833,110.932 41.5079,110.282 42.1565,108.065 42.5238,107.145 43.5488,105.153 41.8845,105.804 40.9357,106.074 36.9107,106.817 35.6563,106.894 34.964,106.853 34.2639,106.763 33.6304,106.638 32.8148,106.406 32.2505,106.194 31.3412,105.748 30.8564,105.448 29.9377,104.725 29.5426,104.335 28.7598,103.348 28.4648,102.865 27.9486,101.737 27.764,101.16 27.54,100.066 27.4762,99.393 27.7085,97.2925 28.9919,93.3508 29.5996,92.0916 32.9832,86.9772 33.2931,86.5563 35.1688,84.2605 34.7744,84.4067 32.6489,84.9164 30.6332,84.9972 30.0344,84.9036 28.3895,84.3537 27.8963,84.0905 26.8905,83.3347 26.8905,64.8675 26.9585,64.7494 27.6146,63.7551 28.1894,63.0327 28.8928,62.2942 29.5339,61.7237 30.5138,60.9871 31.2152,60.5428 31.8036,60.2329 28.6734,59.571 26.8905,58.5811 26.8905,45.6448 28.4364,44.1318 29.0013,43.6528 32.892,40.8036 33.1448,40.6297 37.6048,37.7516 37.6737,37.7079 42.0814,34.9605 43.4353,34.0714 39.6124,33.1252 39.5848,33.1183 35.2854,32.0291 34.9999,31.948 31.2494,30.7664 30.4654,30.4472 27.8126,29.1057 26.8905,28.2734 26.8905,19.5757 38.3822,19.4875 49.8739,19.3993 61.3656,19.3111 72.8572,19.223 76.4365,19.1955 77.4297,19.7668 79.3968,21.7747 80.3673,23.545 80.6815,27.8568 79.8775,30.0193 78.7152,31.849 76.5955,34.0095 75.9207,34.5887 72.9238,36.7449 72.6453,36.9319 69.2099,39.0817 69.2021,39.0866 65.9006,41.1445 64.8536,41.8888 66.1364,42.1268 70.7226,42.605 72.5855,42.7834 72.4772,42.4411 72.414,42.0153 73.067,38.6291 73.8254,37.3302 75.6526,35.4862 77.6521,34.2938 78.3421,33.949 81.1689,32.7895 81.3362,32.7243 84.5019,31.5518 87.4198,30.3682 88.8916,29.5859 87.9395,29.2655 87.9212,29.2593 86.6069,28.8116 85.8158,28.4664 84.8862,27.9651 82.7562,25.8168 82.4036,25.1492 81.8501,22.0118 82.3696,20.3574 82.6606,19.7869 83.2449,19.1433 84.3489,19.1348 95.8406,19.0466 107.332,18.9584 112.12,18.9217 112.795,19.55 114.41,21.3485 114.534,21.4916 115.827,23.0414 116.743,23.8971 117.482,24.2773 118.804,24.4676 120.069,24.2865 120.857,23.8935 121.85,23.0201 123.225,21.5039 123.359,21.3615 125.054,19.6267 125.724,19.0489 126.048,18.8148 130.316,18.7821 141.807,18.6939 153.223,18.6063 153.922,19.2743 154.161,19.6664 154.907,22.7638 154.466,24.5027 154.098,25.3217 152.346,27.4459 151.377,28.1275 150.576,28.5903 149.206,29.2267 149.09,29.2788 147.691,29.8876 147.047,30.2252 147.085,30.2672 149.01,31.6947 151.655,33.3467 154.475,35.0517 154.687,35.1867 156.586,36.4641 156.036,35.4362 155.12,32.8354 155.352,28.8274 156.405,26.6701 158.036,24.7336 160.95,22.6315 161.866,22.1033 166.275,20.128 166.812,19.9222 171.346,18.4672 176.282,18.4294 187.774,18.3412 210.397,18.1676 210.756,18.8443 210.745,24.4404 210.025,25.7642 208.352,27.5998 206.002,29.1755 205.274,29.5828 201.865,31.1467 201.581,31.2668 201.175,31.4249 201.201,31.4225 201.507,31.4036 203.726,31.3318 203.952,31.3294 205.552,31.3472 205.837,31.3583 207.222,31.4498 207.85,31.53 209.021,31.7526 210.101,32.0826 210.729,32.3523 210.706,43.9624 210.686,54.3615 210.605,54.411 208.795,55.1 207.778,55.2811 206.149,55.3119 204.001,55.0128 203.109,54.8072 201.143,54.1673 203.693,56.7714 203.896,56.9913 208.448,62.2101 208.869,62.7634 210.664,65.4834 210.656,69.76 210.632,81.8689 210.487,81.9884 209.758,82.473 208.886,82.9395 208.016,83.3033 207.166,83.5756 206.163,83.8044 205.372,83.9216 204.243,84.0011 203.352,83.9871 199.37,83.5818 198.741,83.4786 194.052,82.4099 193.736,82.3273 189.491,81.0748 192.456,83.0077 192.658,83.1465 197.543,86.6704 197.69,86.7802 202.493,90.509 202.631,90.6198 206.926,94.1951 207.102,94.3483 210.463,97.4117 210.601,97.5489 210.579,108.456 210.555,120.675 210.212,121.062 209.175,121.959 208.01,122.723 206.251,123.46 204.984,123.733 203.005,123.438 204.038,123.977 206.926,125.988 207.849,126.808 210.184,129.446 210.537,129.939 210.503,147.153 210.478,160.052 210.471,163.461 209.606,164.09 209.635,164.121 210.066,167.228 209.564,170.18 209.352,171.004 208.39,173.789 208.042,174.579 206.654,177.127 206.159,177.875 204.377,180.117 203.722,180.803 201.58,182.668 200.756,183.255 198.288,184.675 197.311,185.109 194.549,186.012 193.806,186.17 193.927,186.19 196.992,186.939 197.846,187.229 200.609,188.44 201.46,188.913 203.858,190.557 204.661,191.236 206.634,193.282 207.321,194.169 208.807,196.586 209.3,197.637 210.237,200.394 210.397,201.12 210.381,209.164 210.368,209.226 210.003,210.651 209.888,211.037 209.403,212.464 209.279,212.792 208.687,214.211 208.56,214.492 207.876,215.892 207.749,216.135 206.987,217.507 206.861,217.72 206.036,219.052 203.609,221.116 200.788,221.347 201.117,221.572 204.185,223.895 204.577,224.223 207.314,226.755 207.69,227.141 210.044,229.822 210.395,230.271 210.438,235.84 210.602,246.657 210.899,256.963 210.977,258.54 210.848,258.729 208.539,261.736 208.423,261.881 206.19,264.583 204.488,266.847 203.619,268.472 203.425,269.455 203.627,270.491 204.343,271.653 205.913,273.241 208.202,275.168 208.292,275.246 210.761,277.424 211.243,277.908 212.528,279.384 213.138,284.482 214.519,292.41 215.537,296.535 214.397,299.322 214.125,299.887 213.366,301.249 216.441,301.11 216.915,301.419 218.563,306.2 221.336,311.994 224.685,317.011 228.665,321.215 233.33,324.575 238.737,327.056 244.939,328.626 245.737,328.696 246.981,330.341 247.515,331.215 249.024,334.34 249.349,335.198 250.263,338.459 250.41,339.172 250.86,342.541 250.903,343.048 251.009,346.088 251.9,343.188 252.282,342.268 256.888,333.629 257.431,332.81 261.064,328.309 265.518,327.271 271.013,324.853 275.719,321.532 279.698,317.343 283.01,312.324 283.171,311.98 287.952,310.473 285.642,308.292 285.421,307.153 285.72,306.511 287.468,301.213 287.868,300.837 288.875,299.77 289.715,298.711 290.402,297.617 290.96,296.42 291.394,295.029 291.688,293.345 291.802,291.226 291.774,290.213 291.692,289.119 291.567,287.967 291.414,286.735 291.413,286.727 291.254,285.437 291.243,285.342 291.105,284.015 291.09,283.843 291.028,282.977 291.763,276.06 291.832,275.043 292.244,273.972 292.703,273.058 293.403,271.952 294.127,271.048 294.991,270.187 295.96,269.427 296.972,268.812 298.076,268.307 299.219,267.938 300.311,267.711 301.569,267.588 302.954,267.638 305.06,267.999 300.479,265.228 299.784,264.725 295.697,261.217 294.68,260.037 292.778,257.009 293,246.688 293.115,235.848 293.138,232.104 293.745,230.615 293.844,230.385 295.213,227.438 295.309,227.241 296.943,224.08 298.398,222.633 297.609,222.097 296.131,220.872 295.442,220.183 294.218,218.705 293.665,217.89 293.17,216.988 293.159,211.647 293.141,202.781 293.664,201.827 294.216,201.014 295.44,199.533 296.127,198.845 297.605,197.619 298.419,197.064 300.109,196.135 301.044,195.734 302.559,195.254 302.216,195.022 301.181,194.166 300.485,193.47 299.629,192.434 299.072,191.611 298.425,190.424 298.027,189.487 297.618,188.178 297.407,187.152 297.264,185.749 297.265,184.694 297.408,183.293 297.618,182.267 298.028,180.958 298.426,180.021 299.073,178.835 299.63,178.013 300.486,176.978 301.182,176.282 302.217,175.427 303.04,174.871 304.225,174.224 305.162,173.827 306.469,173.418 307.495,173.207 308.895,173.065 309.947,173.064 311.354,173.207 312.376,173.416 313.689,173.825 314.365,174.111 314.366,174.102 314.574,173.082 314.96,171.837 315.355,170.9 315.966,169.774 316.085,169.597 315.334,169.505 314.934,169.439 312.73,168.991 312.373,168.905 310.524,168.39 310.236,168.301 309.273,167.972 309.1,168.406 308.953,168.742 308.454,169.775 307.771,170.837 307.182,171.547 304.693,173.2 303.944,173.428 300.396,173.237 298.911,172.605 297.409,171.631 295.996,170.319 295.243,169.445 293.942,167.544 293.545,166.856 293.067,165.86 293.056,160.052 293.004,134.254 293.003,133.943 293.563,132.846 293.817,132.405 294.912,130.697 297.371,128.671 297.472,128.664 297.426,128.533 297.193,127.832 297.13,127.628 296.922,126.903 296.864,126.685 296.685,125.94 296.634,125.706 296.488,124.945 296.446,124.692 296.336,123.919 296.305,123.645 296.236,122.863 296.218,122.565 296.194,121.779 296.211,121.181 296.461,118.238 296.608,117.378 297.376,114.402 297.681,113.542 298.995,110.665 299.49,109.808 301.376,107.161 302.089,106.352 304.574,104.064 305.495,103.387 308.606,101.591 309.658,101.13 312.009,100.396 311.84,99.8555 311.702,99.3147 311.629,98.9868 311.498,98.2855 311.45,97.9793 311.247,96.3715 311.027,94.6801 310.93,94.0564 308.65,96.0706 308.617,96.0999 306.215,98.1864 306.052,98.3226 303.775,100.143 303.356,100.445 301.37,101.732 300.122,102.322 298.592,102.81 296.974,103.057 296.737,103.055 296.449,103.045 296.257,103.033 295.482,102.925 295.331,102.892 293.899,102.351 293.785,102.287 292.938,101.56 292.916,90.5588 294.288,87.8965 294.35,87.7794 295.953,84.856 297.52,81.9882 298.415,80.2344 298.344,80.2258 296.2,79.9956 295.871,79.9496 293.967,79.6213 292.894,79.3138 292.875,69.76 292.866,65.2276 293.605,64.6648 293.814,64.5134 295.959,63.0424 297.921,61.6457 298.651,61.024 297.02,60.25 294.982,59.3309 294.66,59.1718 292.852,58.2009 292.825,44.8482 294.336,43.9931 294.486,43.9112 296.397,42.9119 298.083,41.9872 298.024,41.8811 296.425,39.4196 294.472,36.5568 294.452,36.5287 292.803,34.0775 292.797,31.0636 292.771,18.1648 297.863,18.1321 297.969,18.1616 300.726,19.3163 301.098,19.4899 304.384,21.1825 304.49,21.2386 307.943,23.1193 310.689,24.5688 310.701,24.0712 310.705,23.2248 310.708,23.0558 310.748,21.9985 310.78,21.5784 310.891,20.6434 310.97,20.17 311.142,19.3631 311.293,18.8108 311.516,18.1377 311.555,18.0441 316.278,18.0137 325.254,17.956 325.656,18.3747 326.751,19.4784 327.363,20.0156 327.535,19.9931 329.272,19.4909 331.737,18.6207 333.749,17.9014 339.784,17.8626 351.538,17.787 363.291,17.7115 370.936,17.6623 377.965,20.8879 378.874,21.4222 385.083,25.9805 385.91,26.7374 390.966,32.4835 391.622,33.4193 395.394,40.3019 395.82,41.3252 397.116,45.7038 398.694,44.424 400.688,43.4227 401.324,43.1548 404.296,42.1283 404.636,42.0237 408.297,41.0335 408.54,40.9742 412.602,40.0821 412.819,40.0393 413.81,39.8655 412.155,38.6309 407.476,36.1591 402.995,34.4604 398.912,33.2991 395.516,32.449 395.127,32.3356 392.833,31.5674 390.584,30.0765 389.756,29.138 388.481,26.2182 389.713,22.3073 390.339,21.5793 392.063,20.2668 393.824,19.4362 394.455,19.1874 397.174,18.3158 397.533,18.2147 400.589,17.4717 410.304,17.4092 422.057,17.3337 433.81,17.2581 435.183,17.2493 436.732,17.7619 437.569,18.1232 440.213,19.5512 441.251,20.2885 443.276,22.1402 444.305,23.4367 445.601,25.751 445.968,26.8013 446.511,24.8703 446.891,23.9031 447.963,21.8164 448.556,20.9097 449.998,19.1383 450.775,18.3661 452.303,17.1392 457.317,17.107 469.07,17.0314 480.442,16.9583 " fill="none" stroke-width="0.5" stroke="rgb(0,0,0)" />
	<polygon points="187.708,439.429 188.037,440.072 190.023,444.731 190.275,445.472 191.176,448.968 192.34,449.311 193.897,449.655 195.573,449.924 197.206,450.093 198.603,450.148 200.475,450.046 202.292,449.725 203.968,449.177 205.424,448.405 206.642,447.403 207.654,446.092 208.473,444.295 209.115,441.33 209.851,440.059 209.392,440.127 202.708,440.627 201.913,440.625 195.694,440.136 194.815,439.99 189.618,438.662 188.723,438.344 186.411,437.275 " fill="none" stroke-width="0.5" stroke="rgb(0,0,0)" />
	<polygon points="258.314,447.651 257.962,447.694 257.795,447.736 257.642,447.801 257.346,447.979 256.829,448.382 256.078,449.085 256.037,449.128 256.211,449.098 256.538,449.103 256.913,449.123 257.342,449.162 257.928,449.248 258.433,449.352 259.166,449.56 259.721,449.762 260.536,450.142 260.544,450.147 260.496,450.045 260.45,449.942 260.059,449.053 259.762,448.555 259.455,448.163 259.168,447.884 258.937,447.717 258.802,447.648 258.798,447.646 258.727,447.639 " fill="none" stroke-width="0.5" stroke="rgb(0,0,0)" />
	<polygon points="163.077,404.208 163.817,413.711 163.82,414.469 163.5,419.153 163.396,419.89 162.334,424.839 162.085,425.661 160.13,430.602 159.667,431.504 156.668,436.161 155.931,437.065 151.736,441.165 150.743,441.925 145.202,445.193 144.087,445.685 140.149,446.895 140.722,446.931 141.712,446.973 142.681,446.998 143.463,447.004 148.564,446.679 152.695,445.794 155.998,444.446 158.544,442.73 160.451,440.678 161.828,438.231 162.703,435.279 163.033,431.569 163.03,431.296 163.011,430.799 162.982,430.277 162.943,429.735 162.895,429.178 162.84,428.612 162.78,428.04 162.716,427.458 163.353,424.337 165.691,422.173 170.159,422.212 172.262,423.235 172.81,423.544 173.484,423.98 173.356,423.667 173.033,422.51 172.72,420.528 172.677,419.26 172.709,418.892 172.909,417.852 173.005,417.533 173.491,416.414 173.648,416.143 174.427,415.121 174.644,414.899 175.592,414.135 175.867,413.963 176.813,413.495 177.143,413.371 177.977,413.136 178.361,413.062 178.974,412.986 176.976,412.375 176.509,412.207 173.725,411.056 173.299,410.856 170.663,409.475 170.256,409.238 167.829,407.671 167.421,407.378 165.264,405.67 164.836,405.291 163.011,403.486 162.95,403.418 " fill="none" stroke-width="0.5" stroke="rgb(0,0,0)" />
	<polygon points="326.333,414.499 325.298,414.971 315.793,418.103 314.694,418.338 310.372,418.779 311.556,419.855 312.329,420.901 313.005,422.139 313.499,423.436 313.709,424.133 314.04,425.586 314.081,425.786 314.34,427.176 314.573,428.163 314.608,428.25 315.184,428.66 315.211,428.679 316.118,429.332 316.445,429.588 317.311,430.323 317.893,430.902 318.626,431.756 319.326,432.808 319.834,433.819 320.23,435.052 321.233,433.783 321.394,433.59 322.115,432.763 322.25,432.615 322.969,431.852 323.157,431.664 323.872,430.979 324.134,430.744 324.843,430.153 325.216,429.869 325.916,429.384 326.451,429.059 327.141,428.695 327.904,428.368 328.582,428.139 329.627,427.903 330.291,427.823 331.364,427.862 331.06,427.581 330.059,426.379 329.048,424.458 328.699,423.217 328.504,421.809 328.504,413.773 328.596,413.15 " fill="none" stroke-width="0.5" stroke="rgb(0,0,0)" />
	<polygon points="242.778,409.499 242.794,409.788 242.819,410.648 242.758,411.6 241.979,416.576 241.536,418.008 239.33,422.639 238.654,423.703 235.215,427.89 234.48,428.622 230.002,432.267 229.277,432.762 226.114,434.549 226.712,434.369 232.094,431.831 236.712,428.682 240.546,425.011 243.58,420.895 245.796,416.399 247.297,411.118 247.912,410.197 247.544,410.232 246.309,410.201 245.372,410.065 244.131,409.725 243.265,409.367 242.744,409.102 " fill="none" stroke-width="0.5" stroke="rgb(0,0,0)" />
	<polygon points="255.832,393.576 255.613,394.236 255.5,394.518 255.557,394.6 255.933,395.236 256.295,395.978 256.568,396.674 256.807,397.457 256.974,398.215 257.083,398.977 257.14,399.8 257.129,400.646 257.034,401.657 256.842,402.645 256.566,403.576 256.18,404.526 255.74,405.359 255.169,406.222 254.581,406.941 253.879,407.645 254.184,407.694 257.032,408.802 257.469,408.996 260.329,410.423 260.667,410.608 263.449,412.264 263.731,412.445 266.349,414.241 266.607,414.43 268.971,416.275 269.234,416.495 271.256,418.3 271.562,418.596 272.326,419.4 272.912,419.271 273.14,419.227 274.425,419.005 274.642,418.973 275.976,418.8 276.181,418.778 277.564,418.654 277.757,418.641 279.19,418.566 279.372,418.56 280.854,418.535 281.061,418.536 283.192,418.586 283.425,418.596 285.628,418.747 285.847,418.766 288.128,419.019 288.332,419.046 290.696,419.403 290.885,419.435 293.34,419.899 293.513,419.934 296.063,420.507 296.221,420.545 296.981,420.741 297.088,420.56 297.595,419.883 298.427,419.038 291.08,418.291 289.989,418.059 279.904,414.76 278.873,414.293 270.267,409.2 269.388,408.545 262.287,401.99 261.603,401.22 256.034,393.534 255.902,393.312 " fill="none" stroke-width="0.5" stroke="rgb(0,0,0)" />
	<polygon points="190.828,413.982 191.053,413.986 192.058,413.801 " fill="none" stroke-width="0.5" stroke="rgb(0,0,0)" />
	<polygon points="195.708,412.77 194.893,413.077 192.964,413.623 192.597,413.702 195.524,413.164 196.92,412.193 " fill="none" stroke-width="0.5" stroke="rgb(0,0,0)" />
	<polygon points="347.933,394.54 347.454,395.341 342.839,401.677 343.345,401.525 343.953,401.381 347.893,400.696 348.494,400.627 353.001,400.375 353.479,400.37 357.272,400.507 357.686,400.539 361.157,400.943 361.644,401.023 364.735,401.685 365.331,401.85 367.987,402.76 368.739,403.085 369.048,403.249 368.946,403.009 368.499,401.239 368.749,397.942 369.159,396.972 368.017,397.403 362.821,398.567 360.521,398.561 359.371,398.297 357.604,397.524 356.527,396.79 355.544,395.918 354.565,394.799 354.028,394.064 353.171,392.647 352.854,392.033 352.145,390.403 351.94,389.85 351.403,388.094 351.282,387.603 " fill="none" stroke-width="0.5" stroke="rgb(0,0,0)" />
	<polygon points="226.065,383.659 217.797,386.09 216.79,386.281 206.974,387.152 205.944,387.141 197.746,386.237 197.254,386.128 199.275,388.855 199.667,389.47 201.504,392.855 201.826,393.571 202.967,396.736 203.221,397.749 203.613,400.435 203.629,401.466 204.732,399.155 205.118,398.481 207.939,394.311 209.137,393.056 213.092,390.107 215.197,389.173 220.882,388.054 222.284,387.972 223.329,388.052 223.931,388.134 225.18,388.378 225.661,388.497 227.022,388.901 227.017,388.887 226.895,388.431 226.677,387.444 226.571,386.743 226.489,385.723 226.489,384.874 226.577,383.807 226.645,383.418 " fill="none" stroke-width="0.5" stroke="rgb(0,0,0)" />
	<polygon points="311.288,391.078 311.03,391.172 308.274,392.1 307.885,392.214 304.673,393.023 304.196,393.12 300.489,393.692 299.961,393.747 295.719,393.964 295.09,393.958 291.576,393.711 290.871,393.613 287.48,392.901 286.789,392.705 283.628,391.567 283.32,391.43 285.942,393.32 291.237,395.837 297.334,397.486 304.305,398.09 307.744,397.947 310.84,397.539 313.415,396.929 313.966,396.726 313.839,396.635 311.898,393.933 311.643,393.101 311.515,390.988 " fill="none" stroke-width="0.5" stroke="rgb(0,0,0)" />
	<polygon points="119.584,351.389 117.801,352.639 117.018,353.092 115.253,353.917 115.267,354.128 115.295,356.482 115.206,357.505 114.795,359.695 114.496,360.705 113.68,362.698 113.182,363.63 111.996,365.391 111.784,365.647 115.608,364.585 116.532,364.416 120.782,364.031 121.822,364.042 129.497,364.889 130.632,365.145 137.716,367.604 138.752,368.098 145.11,372.044 145.979,372.721 151.48,378.028 152.151,378.819 155.416,383.558 155.111,381.799 154.465,379.114 153.483,376.812 152.073,374.631 150.18,372.558 147.738,370.606 144.687,368.809 140.979,367.219 136.41,365.837 132.721,364.834 132.457,364.755 129.504,363.781 129.112,363.634 126.873,362.689 126.297,362.403 124.676,361.469 123.883,360.907 122.786,359.965 121.89,358.967 121.223,357.997 120.564,356.662 120.233,355.645 119.994,354.463 119.905,353.381 119.964,352.064 120.166,350.897 " fill="none" stroke-width="0.5" stroke="rgb(0,0,0)" />
	<polygon points="245.549,366.987 245.024,367.861 240.957,373.328 240.213,374.134 238.627,375.524 239.196,375.66 240.225,376.039 241.316,376.596 242.201,377.188 243.054,377.902 243.797,378.674 244.398,379.426 244.525,379.619 244.682,379.604 245.249,379.579 246,379.6 247.246,379.725 248.317,379.949 249.424,380.305 250.44,380.756 250.522,380.804 248.788,374.407 248.628,373.511 247.813,364.424 247.819,363.437 247.977,361.87 " fill="none" stroke-width="0.5" stroke="rgb(0,0,0)" />
	<polygon points="77.3553,367.61 78.2129,369.779 79.4671,378.061 79.2868,380.018 79.614,379.56 82.0021,376.691 82.5401,376.134 85.0486,373.9 85.7232,373.391 88.2024,371.819 89.1269,371.355 91.4272,370.474 91.4602,370.472 91.0553,370.294 89.338,369.329 88.5129,368.754 87.0272,367.488 86.3445,366.785 85.1097,365.247 84.7653,364.729 84.542,364.779 84.3139,364.824 83.4941,364.968 83.2735,365.002 82.4319,365.113 81.8067,365.158 79.4933,365.182 78.4604,365.09 76.2621,364.669 75.2925,364.384 75.0752,364.296 " fill="none" stroke-width="0.5" stroke="rgb(0,0,0)" />
	<polygon points="101.065,371.643 100.198,371.758 97.9017,371.867 97.0032,371.83 97.2935,372.015 98.4084,375.987 98.7874,375.341 99.4155,374.484 102.143,371.467 102.23,371.387 " fill="none" stroke-width="0.5" stroke="rgb(0,0,0)" />
	<polygon points="167.96,364.526 168.025,364.741 169.013,368.261 169.03,368.323 169.886,371.527 170.634,374.072 171.19,375.487 171.196,375.496 171.395,375.556 171.724,375.627 172.088,375.68 172.453,375.711 172.823,375.721 173.314,375.715 173.85,375.697 174.396,375.671 174.952,375.64 175.506,375.607 175.532,375.605 176.066,375.576 176.137,375.573 176.643,375.552 176.769,375.549 177.243,375.541 177.306,375.545 175.092,373.615 174.454,372.95 169.828,367.188 169.323,366.431 167.483,363.074 " fill="none" stroke-width="0.5" stroke="rgb(0,0,0)" />
	<polygon points="354.279,361.84 353.609,362.644 351.415,364.793 351.184,364.975 352.899,365.556 354.754,368.146 354.975,370.266 354.425,375.604 354.493,375.547 355.45,374.902 356.135,374.511 357.383,373.921 357.921,373.703 359.489,373.165 359.896,373.044 361.632,372.604 366.882,370.859 366.861,370.857 365.895,370.676 363.759,370.064 362.808,369.686 360.932,368.717 360.055,368.146 358.465,366.865 357.716,366.126 356.435,364.574 355.854,363.706 354.908,361.927 354.648,361.293 " fill="none" stroke-width="0.5" stroke="rgb(0,0,0)" />
	<polygon points="323.809,364.254 323.453,365.167 322.738,366.588 322.204,367.435 321.238,368.681 320.53,369.429 319.334,370.463 318.468,371.07 318.245,371.195 320.561,371.343 323.55,371.273 327.161,371.038 331.055,370.619 335,369.997 338.08,369.315 334.928,369.04 333.976,368.866 331.034,368.04 330.067,367.661 327.451,366.319 326.539,365.723 324.294,363.894 323.997,363.594 " fill="none" stroke-width="0.5" stroke="rgb(0,0,0)" />
	<polygon points="297.801,354.173 294.615,356.091 293.499,356.594 288.994,358.017 288.921,358.039 284.073,359.492 279.842,361.371 276.639,363.974 274.413,367.92 274.103,370.037 274.603,369.61 274.902,369.411 276.039,368.84 276.378,368.718 277.564,368.446 277.939,368.405 278.352,368.398 278.396,367.963 278.466,367.49 278.706,366.266 278.898,365.554 279.293,364.42 279.798,363.367 280.387,362.428 281.597,361.087 282.418,360.447 284.515,359.466 285.608,359.23 288.518,359.437 289.934,359.963 291.223,360.661 293.091,362.047 293.205,362.134 295.562,363.985 298.466,365.965 300.098,366.823 300.082,366.8 299.41,365.468 299.055,364.564 298.636,363.111 298.456,362.157 298.312,360.62 298.295,359.888 298.347,358.781 298.383,358.373 298.521,357.282 298.564,357.005 298.76,355.931 298.789,355.784 299.013,354.727 299.016,354.71 299.228,353.729 299.387,352.898 299.477,352.24 299.479,352.197 " fill="none" stroke-width="0.5" stroke="rgb(0,0,0)" />
	<polygon points="386.189,307.099 385.128,308.286 384.022,309.852 382.97,311.687 382.044,313.683 381.357,315.567 381.115,316.814 380.905,319.106 380.73,322.083 380.542,325.268 380.531,325.413 380.269,328.418 380.223,328.789 379.82,331.31 379.588,332.22 378.975,333.955 377.515,335.912 378.955,336.942 379.695,337.585 382.181,340.194 382.831,341.032 384.66,343.969 385.15,344.988 386.28,348.187 386.543,349.331 386.929,352.728 386.941,353.78 386.809,355.254 389.342,352.327 389.935,351.744 394.546,347.88 395.794,347.105 401.376,344.652 401.014,344.407 399.885,343.319 399.493,342.896 398.216,341.358 398.098,341.211 396.748,339.46 395.486,337.84 394.977,338.281 393.767,339.333 393.611,339.464 392.463,340.386 392.006,340.715 390.984,341.368 389.662,341.972 388.827,342.219 386.703,342.393 386.516,342.37 385.261,342.051 385.092,341.984 384.029,341.417 383.881,341.314 383.064,340.612 382.938,340.478 382.345,339.721 382.243,339.563 381.833,338.79 381.758,338.615 381.494,337.823 381.447,337.636 381.313,336.814 381.297,336.621 381.344,335.37 381.623,333.635 381.836,332.778 382.569,330.63 382.687,330.318 383.723,327.817 383.742,327.772 384.902,325.047 386.007,322.24 386.918,319.438 387.52,316.73 387.747,314.005 387.721,312.608 387.609,310.811 387.384,308.994 387.039,307.382 386.768,306.62 " fill="none" stroke-width="0.5" stroke="rgb(0,0,0)" />
	<polygon points="150.855,292.748 150.947,292.884 156.684,301.696 156.976,302.205 161.033,310.308 161.472,311.564 163.011,318.869 163.102,320.401 162.85,323.242 162.695,324.121 161.945,326.935 161.641,327.776 160.404,330.456 159.936,331.269 158.221,333.706 157.561,334.472 155.381,336.557 154.514,337.226 151.877,338.85 150.833,339.342 147.751,340.397 146.802,340.607 148.098,340.946 148.787,341.178 151.378,342.259 152.07,342.611 154.53,344.102 155.152,344.544 157.501,346.49 158.004,346.966 160.263,349.411 160.639,349.868 162.828,352.858 163.168,353.387 164.126,355.095 163.346,352.723 163.119,351.687 162.376,345.164 162.345,344.406 162.404,342.622 162.428,342.267 162.607,340.503 162.664,340.095 162.97,338.417 163.089,337.91 163.528,336.387 163.773,335.716 164.351,334.414 164.872,333.502 165.596,332.489 166.705,331.353 167.581,330.695 169.554,329.782 170.588,329.548 172.272,329.447 173.124,329.535 172.945,329.352 172.327,328.585 168.762,323.188 168.252,322.201 165.953,316.266 165.644,315.051 164.829,308.717 164.794,307.776 164.962,304.618 165.022,304.066 165.514,301.019 165.629,300.484 166.424,297.56 166.592,297.051 167.669,294.262 167.881,293.785 169.206,291.172 168.969,291.48 168.419,292.086 167.341,293.104 166.795,293.553 165.577,294.423 164.984,294.789 163.702,295.466 162.973,295.783 161.703,296.222 160.684,296.463 159.501,296.62 158.387,296.647 158.031,296.617 157.154,296.468 156.747,296.362 155.874,296.05 155.427,295.843 154.64,295.392 154.162,295.059 153.516,294.529 153.016,294.045 152.525,293.498 152.012,292.839 151.657,292.321 151.141,291.46 150.893,290.995 150.538,290.239 150.271,289.831 149.484,289.003 148.087,287.725 146.404,286.244 146.345,286.191 146.18,286.041 " fill="none" stroke-width="0.5" stroke="rgb(0,0,0)" />
	<polygon points="55.7006,335.786 56.5535,342.777 60.133,348.534 64.4308,352.787 64.0964,351.33 63.9649,350.221 63.9396,347.758 64.0565,346.607 64.5479,344.332 64.8914,343.29 65.8198,341.234 66.3235,340.357 67.6094,338.551 67.8985,338.214 66.3639,338.025 65.9076,337.948 63.0373,337.333 62.3358,337.13 59.8671,336.223 58.9861,335.802 56.8453,334.519 56.2518,334.074 " fill="none" stroke-width="0.5" stroke="rgb(0,0,0)" />
	<polygon points="320.113,337.779 319.429,338.658 318.503,339.579 317.62,340.261 316.702,340.828 315.663,341.329 314.866,341.636 313.713,341.974 313.052,342.122 311.829,342.312 311.277,342.368 310.047,342.427 310.625,342.572 311.467,342.861 314.362,344.143 315.172,344.592 317.634,346.26 318.164,346.696 318.313,345.019 318.428,344.303 319.077,341.509 319.198,341.074 320.116,338.26 320.186,338.059 320.612,336.915 " fill="none" stroke-width="0.5" stroke="rgb(0,0,0)" />
	<polygon points="123.755,321.625 122.942,322.23 121.013,323.393 120.034,323.852 117.919,324.586 119.324,325.55 120.072,326.174 121.616,327.728 122.232,328.476 123.477,330.315 123.951,331.181 124.843,333.261 125.15,334.231 125.633,336.506 125.746,337.634 125.726,339.872 125.618,340.88 125.181,342.987 124.966,343.675 126.271,342.757 126.991,342.333 128.971,341.37 129.628,341.105 131.806,340.393 132.436,340.23 134.724,339.787 135.37,339.704 135.424,339.7 135.165,339.617 134.158,339.169 131.851,337.835 130.992,337.213 129.085,335.512 128.406,334.776 126.91,332.805 126.406,331.998 125.327,329.854 124.984,328.984 124.33,326.763 124.145,325.811 123.925,323.61 123.917,322.664 124.024,321.381 " fill="none" stroke-width="0.5" stroke="rgb(0,0,0)" />
	<polygon points="219.464,340.128 220.098,339.554 220.162,339.454 220.141,339.375 219.713,338.88 " fill="none" stroke-width="0.5" stroke="rgb(0,0,0)" />
	<polygon points="321.312,324.581 320.011,325.466 319.231,325.839 319.872,326.581 320.48,327.472 321.065,328.611 321.393,329.507 321.678,330.714 321.776,331.588 321.773,332.783 321.616,334.105 321.528,334.449 322.25,332.501 323.064,329.983 323.582,327.72 323.768,325.576 323.747,324.996 323.665,324.311 323.528,323.644 323.327,322.98 323.057,322.314 " fill="none" stroke-width="0.5" stroke="rgb(0,0,0)" />
	<polygon points="355.854,333.094 356.06,332.603 355.7,332.507 355.581,332.466 355.536,332.446 " fill="none" stroke-width="0.5" stroke="rgb(0,0,0)" />
	<polygon points="365.115,329.741 363.762,330.552 365.673,330.815 366.18,330.923 365.801,329.338 " fill="none" stroke-width="0.5" stroke="rgb(0,0,0)" />
	<polygon points="204.05,321.265 204.247,323.492 204.839,325.633 205.783,327.573 207.06,329.296 208.657,330.78 208.765,330.849 208.294,330.408 207.383,329.28 205.542,326.205 204.883,324.44 204.184,320.495 204.174,320.297 " fill="none" stroke-width="0.5" stroke="rgb(0,0,0)" />
	<polygon points="74.6456,307.061 73.0731,311.428 72.0991,315.163 71.7687,318.222 71.8034,319.448 71.9446,320.787 72.213,322.053 72.6487,323.319 73.3184,324.663 74.313,326.147 75.3326,327.34 75.3393,327.315 76.1002,325.29 76.5369,324.398 77.6413,322.6 78.2479,321.798 79.6656,320.26 80.4151,319.59 82.1161,318.342 82.9694,317.834 84.9237,316.911 85.8346,316.58 88.012,316.013 88.9803,315.857 91.4141,315.696 92.4712,315.734 94.7182,316.046 95.745,316.297 97.7872,317.023 98.703,317.453 100.522,318.535 101.287,319.089 102.101,319.8 101.862,319.514 100.85,318.018 100.397,317.196 99.705,315.621 99.4262,314.81 99.0291,313.247 98.8886,312.417 98.8601,312.09 97.4083,312.927 96.3521,313.388 93.8376,314.167 92.7927,314.376 90.1051,314.633 89.1092,314.632 87.3512,314.462 86.3771,314.272 84.6734,313.768 83.7527,313.397 82.1586,312.569 81.3106,312.018 79.8815,310.877 79.1387,310.151 77.93,308.708 77.3367,307.831 76.4037,306.095 76.0011,305.119 75.7851,304.395 " fill="none" stroke-width="0.5" stroke="rgb(0,0,0)" />
	<polygon points="366.418,300.775 365.98,300.927 361.91,302.143 361.62,302.221 357.28,303.248 357.043,303.299 352.832,304.091 352.583,304.131 348.898,304.641 348.525,304.679 345.766,304.86 344.956,304.85 344.363,304.796 343.641,304.652 343.701,304.961 343.78,306.377 343.679,307.622 343.498,308.623 343.184,309.728 342.705,310.874 342.161,311.832 341.344,312.913 340.555,313.715 339.546,314.514 338.494,315.152 337.847,315.457 340.004,316.447 340.764,316.876 345.624,320.189 346.31,320.748 350.327,324.635 350.913,325.308 351.847,326.588 351.874,325.979 352.092,324.993 352.408,324.026 352.983,322.716 353.162,322.348 353.974,320.832 354.062,320.675 354.975,319.106 352.936,318.622 352.715,318.564 350.866,318.039 350.133,317.769 348.826,317.174 346.714,315.413 346.218,314.701 345.285,311.655 345.758,309.562 345.962,309.118 347.648,307.067 348.22,306.655 349.19,306.103 350.074,305.72 350.588,305.528 351.726,305.171 352.025,305.087 353.36,304.755 353.546,304.712 355.019,304.402 355.137,304.379 356.692,304.089 356.762,304.076 358.192,303.83 361.297,303.106 364.511,302.02 367.706,300.586 369.446,299.567 " fill="none" stroke-width="0.5" stroke="rgb(0,0,0)" />
	<polygon points="104.793,322.716 104.84,322.785 105.196,322.68 105.291,322.655 104.802,322.354 103.968,321.705 " fill="none" stroke-width="0.5" stroke="rgb(0,0,0)" />
	<polygon points="128.301,294.071 128.413,294.483 129.798,300.591 129.907,301.285 130.433,307.256 130.429,308.211 130.199,310.593 130.159,310.799 131.17,310.273 131.648,310.114 133.784,309.872 133.965,309.889 135.29,310.195 135.44,310.251 136.946,311.126 137.067,311.227 138.153,312.474 138.248,312.626 138.764,313.722 138.834,313.932 139.026,314.69 139.074,314.962 139.135,315.446 139.162,315.788 139.177,316.092 139.182,316.315 139.209,316.596 139.228,316.665 139.274,316.759 139.328,316.832 139.376,316.875 139.437,316.911 139.587,316.959 139.954,316.996 140.283,316.966 140.493,316.905 140.605,316.847 140.666,316.797 140.712,316.741 140.758,316.653 140.788,316.55 139.822,312.024 136.848,305.853 132.25,298.149 126.842,289.278 126.731,289.087 " fill="none" stroke-width="0.5" stroke="rgb(0,0,0)" />
	<polygon points="400.808,302.629 401.393,304.459 402.403,306.483 403.791,308.57 405.479,310.605 407.373,312.489 409.366,314.131 411.492,315.556 412.481,316.161 413.246,316.585 411.573,313.607 409.423,310.12 406.962,306.857 404.29,304.279 401.573,302.706 400.801,302.56 " fill="none" stroke-width="0.5" stroke="rgb(0,0,0)" />
	<polygon points="437.443,310.498 437.254,310.618 436.36,311.074 436.122,311.167 435.436,311.384 435.149,311.453 434.647,311.548 434.311,311.595 433.952,311.632 433.567,311.659 433.31,311.67 432.876,311.678 432.624,311.677 431.855,311.655 431.644,311.644 430.797,311.585 430.68,311.575 429.777,311.492 429.729,311.487 428.794,311.391 427.875,311.299 427.091,311.23 427.063,312.777 427.058,312.946 426.967,314.748 426.918,315.248 426.85,315.71 428.126,315.022 429.082,314.624 431.239,313.968 432.245,313.769 434.549,313.544 435.242,313.523 437.284,313.596 437.69,313.627 438.311,313.698 438.254,312.511 438.264,311.846 438.437,309.67 " fill="none" stroke-width="0.5" stroke="rgb(0,0,0)" />
	<polygon points="312,302.667 311.301,303.23 306.711,306.314 305.763,306.817 303.124,307.886 304.191,307.778 304.935,307.756 307.748,307.875 308.197,307.913 310.835,308.255 311.312,308.339 313.715,308.881 314.254,309.034 316.359,309.754 316.82,309.948 316.146,309.091 315.493,308.016 314.62,306.084 314.212,304.69 313.896,302.516 313.878,301.157 313.917,300.829 " fill="none" stroke-width="0.5" stroke="rgb(0,0,0)" />
	<polygon points="434.861,289.8 434.351,290.945 433.678,292.067 433.449,292.418 432.498,293.749 432.429,293.843 431.36,295.271 430.389,296.604 432.123,297.586 434.046,298.624 434.167,298.692 435.872,299.672 436.361,299.99 437.545,300.861 439.012,302.528 439.42,303.263 439.72,304.782 440.425,303.191 440.642,302.803 439.789,302.32 438.635,300.3 436.672,293.806 435.064,289.141 " fill="none" stroke-width="0.5" stroke="rgb(0,0,0)" />
	<polygon points="108.267,291.993 108.256,292.335 107.979,296.541 107.869,297.317 107.076,300.918 107.001,301.156 108.217,301.248 108.5,301.406 110.504,303.403 110.589,303.554 110.734,302.523 110.788,301.149 110.469,296.485 109.619,292.039 108.366,287.572 108.267,287.269 " fill="none" stroke-width="0.5" stroke="rgb(0,0,0)" />
	<polygon points="458.486,286.972 457.256,287.541 455.977,288.6 454.58,290.287 453.106,292.567 451.946,294.623 452.069,294.597 454.777,294.322 456.13,294.361 459.319,294.875 460.801,295.349 462.429,296.156 462.27,294.977 462.268,294.976 462.269,294.971 462.265,294.945 462.291,294.825 462.293,294.81 462.302,294.72 462.312,294.563 462.32,294.344 462.325,294.07 462.327,293.746 462.327,293.505 462.252,291.972 462.036,290.496 461.678,289.113 461.219,287.983 460.753,287.235 460.418,286.902 460.256,286.815 459.952,286.767 " fill="none" stroke-width="0.5" stroke="rgb(0,0,0)" />
	<polygon points="337.631,293.793 338.66,295.203 338.711,295.05 339.048,294.302 339.212,293.969 339.503,293.429 338.868,293.385 337.35,293.355 " fill="none" stroke-width="0.5" stroke="rgb(0,0,0)" />
	<polygon points="89.3982,276.922 89.3291,277.067 86.4155,282.943 86.3713,283.03 84.0161,287.565 82.5687,290.358 83.2569,290.338 83.7729,290.495 85.4925,291.399 86.014,291.813 86.5185,292.271 87.0834,292.856 87.576,293.365 87.8735,293.624 88.0002,293.704 88.041,293.719 88.1533,293.731 89.1384,293.596 89.3783,293.467 89.678,293.104 90.2066,291.817 90.7034,289.402 91.0313,285.961 91.1874,281.612 91.2244,276.403 91.2317,276.162 91.4284,272.488 " fill="none" stroke-width="0.5" stroke="rgb(0,0,0)" />
	<polygon points="375.655,293.39 375.667,293.368 375.967,291.671 375.851,290.723 " fill="none" stroke-width="0.5" stroke="rgb(0,0,0)" />
	<polygon points="54.2039,274.181 53.9459,275.376 53.9334,276.721 54.2323,278.14 55.0442,279.876 55.3684,280.388 55.8401,281.116 55.8744,281.169 56.3195,281.875 56.4261,282.052 56.8176,282.731 56.9903,283.057 57.316,283.727 57.5251,284.221 57.7728,284.902 57.9625,285.552 58.1201,286.262 58.23,287.011 58.2853,287.767 58.2363,288.952 57.8951,291.128 57.6649,292.043 57.389,292.83 58.7149,290.899 61.2144,286.298 62.0173,282.802 61.9774,282.533 61.9079,282.271 61.8141,282.034 61.68,281.787 61.4783,281.501 61.1771,281.161 60.5793,280.608 60.5671,280.597 58.6451,278.806 58.3371,278.494 56.8231,276.823 56.6311,276.599 55.4083,275.086 55.381,275.052 54.4401,273.867 54.3731,273.793 " fill="none" stroke-width="0.5" stroke="rgb(0,0,0)" />
	<polygon points="157.12,223.083 157.022,223.258 155.823,225.292 154.785,227.098 154.06,228.585 153.81,229.342 154.155,229.486 155.974,233.66 155.913,235.086 155.898,235.319 155.739,237.141 155.729,237.249 155.504,239.321 155.498,239.372 155.24,241.548 155.239,241.559 154.983,243.681 154.765,245.573 154.622,247.029 154.579,247.834 154.615,248.987 154.646,249.249 156.746,250.626 157.698,252.459 158.163,254.084 158.262,254.488 158.627,256.299 158.671,256.549 158.963,258.478 158.982,258.618 159.226,260.596 159.232,260.643 159.453,262.581 159.671,264.356 159.897,265.841 159.957,266.12 161.723,266.798 163.301,268.946 163.842,270.323 164.41,271.759 165,273.162 165.618,274.482 166.258,275.659 166.897,276.631 167.495,277.346 168.355,278.104 168.599,278.316 168.966,278.666 169.236,278.95 169.53,279.287 169.793,279.615 170.053,279.971 170.296,280.334 170.542,280.741 170.752,281.128 170.99,281.627 171.156,282.028 171.372,282.667 171.481,283.072 171.633,283.912 171.672,284.311 171.619,285.712 171.411,286.902 170.963,288.284 170.809,288.6 171.051,288.22 171.336,287.817 173.136,285.505 173.449,285.14 175.449,283.011 177.385,281.94 175.722,280.811 175.195,280.401 171.081,276.757 170.259,275.833 167.349,271.647 166.549,269.838 165.446,265.013 165.517,262.417 166.658,258.444 167.65,256.564 170.66,252.928 171.39,252.205 175.645,248.754 175.935,248.535 180.776,245.14 185.401,241.78 189.022,238.528 191.111,235.578 191.854,232.43 191.853,232.403 191.769,231.67 191.618,230.788 191.401,229.821 191.124,228.822 190.795,227.838 190.427,226.919 190.094,226.227 189.694,229.404 189.368,230.673 188.021,234.068 187.472,235.095 185.437,238.055 184.843,238.772 182.292,241.343 181.772,241.802 178.876,244.03 178.473,244.31 175.406,246.239 175.13,246.401 172.062,248.077 171.92,248.152 169.023,249.619 165.877,250.12 163.029,248.691 161.549,245.87 161.587,243.899 161.83,242.757 162.042,241.656 162.23,240.553 162.389,239.45 162.519,238.345 162.614,237.239 162.674,236.132 162.692,235.099 162.591,233.024 162.272,231.014 161.691,228.985 160.793,226.906 159.502,224.748 157.733,222.495 157.541,222.302 " fill="none" stroke-width="0.5" stroke="rgb(0,0,0)" />
	<polygon points="420.574,263.673 420.118,265.01 419.962,265.412 419.317,266.887 419.239,267.059 418.5,268.596 418.49,268.616 418.477,268.643 419.856,268.948 420.089,269.005 421.713,269.443 422.434,269.695 423.583,270.194 425.707,271.895 426.143,272.491 427.145,275.515 426.528,278.016 426.061,278.887 423.933,281.014 422.659,281.697 421.659,282.105 419.768,282.656 419.361,282.757 417.043,283.234 416.917,283.258 414.392,283.713 411.944,284.184 409.865,284.691 408.217,285.276 406.866,285.903 405.689,286.559 404.787,287.175 404.35,287.554 405.255,287.625 406.652,287.654 410.337,287.418 413.644,286.808 416.694,285.928 419.471,284.89 421.971,283.808 424.144,282.82 424.326,282.741 426.066,282.029 426.929,281.761 428.17,281.491 429.711,281.39 429.898,281.406 430.826,281.569 430.995,281.615 431.959,281.983 432.107,282.057 432.377,282.23 432.208,281.808 429.619,276.346 426.755,271.311 423.589,266.751 420.654,263.348 " fill="none" stroke-width="0.5" stroke="rgb(0,0,0)" />
	<polygon points="391.628,268.871 391.627,268.875 391.033,271.373 390.544,273.697 390.225,275.799 390.111,277.708 390.16,278.868 390.311,280.012 390.547,280.978 390.68,281.313 390.957,280.914 391.469,279.847 391.9,278.513 392.185,277 392.294,275.279 392.248,273.047 392.119,270.836 391.936,268.757 391.846,267.95 " fill="none" stroke-width="0.5" stroke="rgb(0,0,0)" />
	<polygon points="341.955,271.205 339.202,272.744 338.017,274.02 337.591,275.702 337.636,276.042 337.762,276.326 337.964,276.56 338.416,276.874 339.185,277.208 340.204,277.479 341.343,277.641 342.054,277.673 341.998,277.111 341.934,276.496 341.931,276.457 341.874,275.867 341.864,275.751 341.824,275.207 341.813,274.987 341.798,274.498 341.818,273.856 341.842,273.594 342.016,272.659 342.088,272.406 342.429,271.519 342.546,271.282 342.796,270.876 " fill="none" stroke-width="0.5" stroke="rgb(0,0,0)" />
	<polygon points="133.24,217.295 129.123,218.598 127.114,219.504 129.65,220.298 131.564,222.844 131.276,226.922 130.14,229.132 129.302,231.253 128.624,233.494 128.102,235.788 127.725,238.067 127.478,240.261 127.345,242.302 127.312,243.812 128.714,253.857 132.435,263.731 137.892,273.632 140.069,276.932 139.936,275.475 140.638,274.075 140.647,274.045 140.643,274.025 140.64,274.023 140.642,274.018 140.546,273.474 140.065,272.395 139.046,270.698 137.689,268.614 137.615,268.497 136.205,266.201 135.992,265.818 134.762,263.374 134.474,262.682 133.605,260.075 133.373,259.04 133.044,256.253 133.656,253.126 134.697,252.085 134.623,251.39 134.225,249.745 133.56,247.592 132.743,245.137 132.731,245.1 131.895,242.525 131.84,242.345 131.111,239.787 131.023,239.43 130.507,236.971 130.416,236.349 130.22,234.072 130.933,230.967 133.323,228.86 133.477,228.826 133.546,227.957 133.568,227.739 133.869,225.272 133.911,224.988 134.371,222.41 134.447,222.053 135.105,219.44 135.237,219 136.018,216.755 " fill="none" stroke-width="0.5" stroke="rgb(0,0,0)" />
	<polygon points="313.523,273.644 313.641,273.768 314.868,275.091 314.781,274.746 313.154,272.871 311.965,272.072 " fill="none" stroke-width="0.5" stroke="rgb(0,0,0)" />
	<polygon points="350.889,267.79 350.448,267.976 350.234,268.056 351.975,268.578 352.969,268.992 353.042,269.032 353.138,266.712 " fill="none" stroke-width="0.5" stroke="rgb(0,0,0)" />
	<polygon points="358.447,246.229 357.622,246.785 355.571,247.9 354.634,248.296 352.626,248.921 354.986,249.502 358.097,249.76 361.039,250.984 362.715,253.694 362.343,257.216 360.6,260.803 360.094,261.444 360.761,261.374 361.022,261.354 362.004,261.302 362.17,261.296 363.079,261.277 363.17,261.276 363.794,261.273 363.73,260.308 363.727,260.26 363.671,259.264 363.667,259.181 363.627,258.196 363.623,258.069 363.608,257.122 363.608,256.968 363.617,256.331 363.622,256.147 363.651,255.555 363.671,255.29 363.725,254.755 363.779,254.365 363.862,253.9 364.004,253.304 364.12,252.921 364.505,251.986 364.659,251.697 365.703,250.335 365.899,250.153 365.923,250.139 365.447,249.941 364.329,249.343 363.5,248.792 362.511,247.987 361.797,247.282 360.97,246.289 360.397,245.444 360.087,244.876 " fill="none" stroke-width="0.5" stroke="rgb(0,0,0)" />
	<polygon points="444.982,250.876 446.159,253.791 446.161,253.796 447.514,257.161 447.541,257.229 448.621,260.028 449.32,258.711 449.385,258.592 451.067,255.611 451.114,255.529 452.159,253.753 451.463,253.402 451.285,253.307 447.829,251.389 447.524,251.206 444.313,249.123 " fill="none" stroke-width="0.5" stroke="rgb(0,0,0)" />
	<polygon points="382.253,240.968 382.061,241.963 381.671,243.277 381.275,244.243 380.655,245.406 380.067,246.282 379.242,247.275 378.492,248.012 377.487,248.817 376.618,249.381 375.457,249.978 374.516,250.352 374.236,250.433 375.26,251.344 375.832,251.941 376.951,253.311 377.165,253.594 378.278,255.165 378.33,255.239 378.52,255.517 378.667,255.364 379.883,254.087 380.082,253.888 381.269,252.769 381.846,252.298 382.972,251.506 384.519,250.765 385.558,250.465 387.446,250.279 387.747,250.305 388.882,250.531 389.137,250.613 390.473,251.262 390.684,251.404 391.826,252.458 391.994,252.668 392.677,253.782 392.805,254.066 393.115,254.963 393.124,255.002 394.066,254.247 394.274,254.118 395.396,253.596 395.628,253.52 396.734,253.287 396.986,253.263 399.32,253.567 400.297,253.933 401.919,254.908 402.886,255.763 403.468,256.369 404.43,257.547 404.619,257.792 405.572,259.113 406.111,259.849 406.3,259.723 407.493,258.802 408.768,257.777 408.868,257.698 410.077,256.773 410.486,256.49 410.915,256.222 407.365,254.86 401.983,253.349 396.594,251.844 396.091,251.676 391.279,249.785 390.185,249.196 386.308,246.464 384.927,245.022 382.34,240.992 382.268,240.805 " fill="none" stroke-width="0.5" stroke="rgb(0,0,0)" />
	<polygon points="314.492,222.651 312.801,223.579 311.869,223.977 310.011,224.565 308.979,224.78 306.997,224.985 306.549,224.985 307.665,228.44 309.14,230.098 311.698,231.62 315.285,233.178 315.476,233.266 319.276,235.103 320.21,235.683 323.475,238.229 324.738,239.658 327.023,243.472 327.703,245.361 327.791,245.939 327.832,245.897 328.737,245.181 329.854,244.483 330.741,244.04 331.909,243.59 332.708,243.353 333.856,243.112 334.574,243.013 334.982,242.985 334.389,242.267 333.831,241.441 332.717,239.393 332.32,238.455 331.616,236.194 331.407,235.172 331.182,232.953 331.147,232.967 329.836,233.376 328.815,233.584 327.409,233.726 326.358,233.726 324.963,233.583 323.937,233.373 322.634,232.965 321.697,232.567 320.515,231.921 319.692,231.364 318.659,230.51 317.963,229.813 317.109,228.779 316.553,227.955 315.907,226.769 315.51,225.832 315.101,224.522 314.892,223.499 314.786,222.452 " fill="none" stroke-width="0.5" stroke="rgb(0,0,0)" />
	<polygon points="103.384,233.887 103.367,234.643 102.976,238.74 102.882,239.347 102.773,239.849 102.918,239.644 106.209,235.602 104.007,234.377 103.34,233.012 " fill="none" stroke-width="0.5" stroke="rgb(0,0,0)" />
	<polygon points="463.627,213.138 463.645,213.941 463.639,214.319 463.511,216.839 463.48,217.201 463.144,219.982 463.115,220.188 462.639,223.129 462.622,223.229 462.076,226.229 462.074,226.242 461.535,229.164 461.082,231.849 460.782,234.143 460.685,235.841 460.77,236.933 461.004,237.968 461.364,238.932 461.496,239.178 462.179,238.415 463.699,236.235 465.144,233.592 466.329,230.674 467.109,227.666 467.38,224.759 466.799,219.554 465.316,215.496 463.617,212.947 " fill="none" stroke-width="0.5" stroke="rgb(0,0,0)" />
	<polygon points="409.949,231.825 412.606,235.41 415.035,237.736 416.721,239.094 415.55,237.724 409.558,230.863 409.399,230.672 409.318,230.57 " fill="none" stroke-width="0.5" stroke="rgb(0,0,0)" />
	<polygon points="380.665,197.351 380.453,198.379 380.021,199.754 379.623,200.691 378.941,201.938 378.384,202.759 377.483,203.849 376.788,204.543 375.727,205.419 376.773,205.986 377.603,206.545 378.819,207.547 379.522,208.249 380.524,209.464 381.084,210.294 381.841,211.688 382.237,212.628 382.715,214.168 382.923,215.188 383.089,216.843 383.089,217.883 382.923,219.543 382.716,220.561 382.238,222.106 381.843,223.045 381.086,224.442 380.527,225.273 379.524,226.489 378.821,227.193 377.605,228.196 376.775,228.756 376.397,228.961 376.644,229.09 377.473,229.628 378.477,230.426 379.192,231.114 380.016,232.075 380.596,232.903 380.63,232.963 380.587,232.035 380.723,230.107 380.785,229.593 381.142,227.51 381.2,227.224 381.705,225.027 381.734,224.907 382.31,222.646 382.869,220.427 383.324,218.358 383.618,216.508 383.724,214.825 383.716,214.479 383.685,214.089 383.639,213.763 383.583,213.504 383.523,213.308 383.467,213.169 383.415,213.072 383.206,212.761 382.322,209.7 383.389,206.698 386.006,204.882 389.794,205.18 390.98,205.757 383.531,199.683 382.668,198.788 380.774,196.281 " fill="none" stroke-width="0.5" stroke="rgb(0,0,0)" />
	<polygon points="47.4024,225.973 46.9422,226.168 44.4147,227.098 43.8221,227.277 42.5523,227.578 42.6857,227.619 43.853,228.142 44.2155,228.362 45.2655,229.201 45.5484,229.494 46.2974,230.485 46.5068,230.844 46.9367,231.786 47.0787,232.203 47.1115,232.332 47.2108,231.934 48.9432,226.112 49.3997,225.037 49.4193,225.003 " fill="none" stroke-width="0.5" stroke="rgb(0,0,0)" />
	<polygon points="85.817,211.081 84.1063,212.966 83.5413,213.341 83.0788,213.615 82.7945,213.764 82.9868,213.846 84.171,214.544 84.7425,214.992 85.6015,215.845 86.0643,216.427 86.6133,217.274 86.9695,217.962 87.2928,218.733 87.5447,219.501 87.7194,220.189 87.869,221.011 87.9443,221.64 87.9937,222.488 87.9655,223.409 87.5079,227.227 87.4664,227.454 87.6116,227.237 88.0149,226.71 88.7431,225.874 89.3725,225.264 90.1091,224.661 91.0957,224.026 91.8325,223.661 93.2764,223.195 94.0054,223.072 95.5911,223.051 96.2349,223.142 97.6307,223.543 98.2424,223.816 99.4022,224.53 99.9652,224.987 100.8,225.843 101.298,226.487 101.835,227.343 102.216,228.105 102.168,227.523 102.16,227.41 102.119,226.715 102.113,226.596 102.089,225.916 102.086,225.792 102.077,225.128 102.091,224.678 102.394,220.601 102.509,219.833 103.35,216.133 103.571,215.41 104.85,212.103 105.086,211.602 104.481,211.908 101.902,212.842 100.701,213.121 97.7027,213.451 96.5568,213.45 93.3676,213.094 92.2013,212.825 89.3371,211.806 88.2731,211.284 86.0389,209.851 " fill="none" stroke-width="0.5" stroke="rgb(0,0,0)" />
	<polygon points="63.4002,215.259 61.3045,216.995 62.3356,217.292 62.9799,217.588 64.3,218.458 64.8169,218.926 65.6967,219.962 66.0964,220.581 66.5714,221.51 66.8643,222.26 67.09,222.994 67.2865,223.855 67.3823,224.413 67.4926,225.364 67.5243,225.788 67.5587,226.808 67.5582,226.865 69.3144,222.541 69.6491,221.863 72.3137,217.329 73.9936,215.584 74.019,215.568 73.9841,215.567 71.754,215.382 70.868,215.23 68.7964,214.688 67.9027,214.364 66.0322,213.486 65.1657,212.971 64.7416,212.659 " fill="none" stroke-width="0.5" stroke="rgb(0,0,0)" />
	<polygon points="450.668,205.98 448.81,206.649 445.969,207.831 445.874,207.87 442.285,209.28 442,209.383 437.691,210.794 437.288,210.908 432.167,212.138 431.696,212.229 425.674,213.099 425.174,213.147 418.161,213.477 417.258,213.441 415.05,213.159 419.956,214.486 420.872,214.829 425.316,216.99 426.362,217.665 430.056,220.729 430.865,221.57 434.069,225.756 434.286,226.093 434.424,225.608 436.169,221.548 436.667,220.648 439.19,216.994 439.684,216.383 442.669,213.214 443.129,212.781 446.26,210.178 446.716,209.839 449.677,207.881 450.227,207.564 452.702,206.33 453.192,206.148 452.646,205.991 451.443,205.85 " fill="none" stroke-width="0.5" stroke="rgb(0,0,0)" />
	<polygon points="184.133,211.089 185.006,211.893 186.979,214.181 187.685,215.238 188.894,217.639 189.297,218.73 189.904,221.185 190.004,221.827 190.997,219.946 193.848,218.525 197.351,219.233 197.47,219.306 196.604,217.699 195.993,215.492 195.303,214.176 194.388,213.121 193.12,212.196 191.354,211.381 189.009,210.733 186.07,210.314 182.891,210.182 " fill="none" stroke-width="0.5" stroke="rgb(0,0,0)" />
	<polygon points="337.603,212.109 335.789,213.085 335.658,213.139 335.834,213.315 336.691,214.35 337.25,215.175 337.898,216.362 338.296,217.301 338.543,218.09 339.175,217.662 341.224,216.548 341.459,216.448 340.846,215.835 339.99,214.798 339.432,213.973 338.786,212.785 338.389,211.847 338.32,211.629 " fill="none" stroke-width="0.5" stroke="rgb(0,0,0)" />
	<polygon points="399.76,211.405 400.671,212.374 402.158,214.428 402.623,213.451 405.391,211.925 404.493,211.81 403.092,211.427 396.136,208.427 " fill="none" stroke-width="0.5" stroke="rgb(0,0,0)" />
	<polygon points="57.0949,202.281 56.7276,202.61 54.9473,204.055 54.5157,204.37 52.7288,205.539 52.2263,205.829 50.4477,206.727 49.8697,206.977 48.1142,207.61 47.4596,207.799 45.7423,208.175 45.0169,208.281 43.3527,208.405 42.4438,208.393 40.3527,208.181 39.2642,207.952 38.2713,207.628 38.7396,207.866 40.1049,208.316 41.6094,208.583 43.3805,208.676 44.8412,208.637 46.4642,208.514 48.2006,208.31 50.0609,208.027 52.0541,207.668 54.1889,207.239 56.4732,206.743 58.9298,206.184 59.4526,206.23 59.3088,205.902 58.6715,203.887 58.4546,202.83 58.2849,201.111 " fill="none" stroke-width="0.5" stroke="rgb(0,0,0)" />
	<polygon points="361.907,206.485 362.23,206.267 361.864,206.066 " fill="none" stroke-width="0.5" stroke="rgb(0,0,0)" />
	<polygon points="114.039,200.007 113.808,200.787 113.662,201.17 114.012,200.898 114.665,200.468 115.733,199.874 114.483,199.39 114.252,199.006 " fill="none" stroke-width="0.5" stroke="rgb(0,0,0)" />
	<polygon points="124.15,196.401 123.537,196.493 123.107,196.613 122.866,196.72 122.79,196.77 122.578,197.295 122.329,197.594 122.519,197.559 122.794,197.516 123.977,197.363 124.213,197.338 125.435,197.236 125.633,197.223 126.893,197.167 127.056,197.162 128.352,197.145 128.556,197.146 129.22,197.163 129.154,197.136 126.916,196.564 124.799,196.371 " fill="none" stroke-width="0.5" stroke="rgb(0,0,0)" />
	<polygon points="354.983,195.934 354.112,196.208 355.002,196.585 355.937,197.094 355.812,195.879 355.813,195.582 " fill="none" stroke-width="0.5" stroke="rgb(0,0,0)" />
	<polygon points="344.837,196.481 344.884,196.462 344.834,196.446 " fill="none" stroke-width="0.5" stroke="rgb(0,0,0)" />
	<polygon points="59.8826,190.253 59.5606,190.322 59.4203,190.348 60.4555,191.349 61.3765,189.883 " fill="none" stroke-width="0.5" stroke="rgb(0,0,0)" />
	<polygon points="178.91,184.083 179.948,186.942 179.952,187.027 180.082,186.987 180.629,186.853 184.48,186.128 185.11,186.048 185.676,186.012 183.816,185.735 182.31,185.269 178.646,183.488 " fill="none" stroke-width="0.5" stroke="rgb(0,0,0)" />
	<polygon points="367.186,166.216 366.375,167.198 365.673,167.898 364.689,168.708 363.86,169.266 362.731,169.878 361.793,170.272 361.68,170.308 362.369,171.139 362.926,171.96 363.965,173.859 364.364,174.795 365.022,176.888 365.235,177.917 365.465,180.156 365.464,181.219 365.259,183.213 365.268,183.21 366.3,182.996 367.755,182.845 368.818,182.845 370.291,182.995 371.316,183.206 372.692,183.637 373.105,183.812 371.81,181.164 371.519,180.432 368.753,171.583 368.598,170.953 367.628,165.563 " fill="none" stroke-width="0.5" stroke="rgb(0,0,0)" />
	<polygon points="163.637,163.481 163.352,163.727 159.765,166.614 159.355,166.912 155.569,169.393 155.031,169.701 150.958,171.724 150.317,171.991 145.869,173.501 145.18,173.684 140.268,174.629 139.596,174.714 139.32,174.73 141.746,176.421 142.367,176.929 145.762,180.175 146.176,180.621 148.424,183.341 149.021,179.545 149.206,178.768 150.164,175.772 150.758,174.522 152.149,172.384 153.603,170.906 155.505,169.625 157.533,168.812 160.028,168.385 161.904,168.407 163.632,168.746 164.915,169.176 166.875,170.133 167.051,170.238 166.366,168.926 166.115,168.367 164.311,163.62 164.164,163.171 164.124,163.027 " fill="none" stroke-width="0.5" stroke="rgb(0,0,0)" />
	<polygon points="109.19,158.447 108.544,159.635 107.987,160.459 107.132,161.496 106.435,162.193 105.4,163.049 104.576,163.607 103.39,164.254 102.453,164.652 101.144,165.061 100.119,165.271 98.7174,165.414 97.6654,165.414 96.2584,165.271 95.2358,165.062 93.9231,164.653 92.9864,164.257 91.7967,163.61 90.9723,163.053 90.0604,162.301 89.9762,162.591 89.8242,163.037 88.6398,166.056 88.8553,165.91 92.1201,166.025 95.463,167.262 96.039,167.516 99.4145,169.254 99.9553,169.576 103.216,171.791 103.75,172.206 106.748,174.873 107.28,175.421 109.869,178.514 110.377,179.238 112.408,182.732 112.605,183.162 112.646,182.901 112.82,182.151 113.539,179.847 113.934,178.913 114.977,176.995 115.707,175.97 117.093,174.453 118.162,173.559 119.913,172.457 120.931,171.987 118.369,170.521 117.443,169.846 114.55,167.202 113.826,166.386 111.604,163.275 111.101,162.404 109.534,158.955 109.281,158.233 " fill="none" stroke-width="0.5" stroke="rgb(0,0,0)" />
	<polygon points="78.1509,180.991 78.7887,181.435 78.9201,180.968 79.0644,180.53 79.2815,179.958 " fill="none" stroke-width="0.5" stroke="rgb(0,0,0)" />
	<polygon points="343.518,162.35 342.657,163.067 338.55,165.79 337.669,166.259 334.38,167.624 334.714,167.958 335.526,168.939 336.086,169.767 336.433,170.406 337.197,169.482 337.891,168.789 339.551,167.418 340.37,166.863 342.27,165.826 343.205,165.428 345.297,164.771 346.324,164.56 347.092,164.481 346.972,164.259 346.575,163.319 346.188,162.075 345.98,161.053 345.866,159.926 " fill="none" stroke-width="0.5" stroke="rgb(0,0,0)" />
	<polygon points="423.668,139.404 421.929,142.229 420.968,143.378 418.226,145.83 417.331,146.474 413.716,148.531 412.974,148.879 408.612,150.518 408,150.706 403.022,151.905 402.578,151.988 402.598,151.986 402.764,151.973 405.695,151.794 405.901,151.786 409.098,151.718 409.675,151.738 417.008,152.397 418.015,152.59 424.435,154.487 425.395,154.878 431.081,157.889 431.845,158.384 436.976,162.386 437.498,162.853 440.682,166.111 439.505,164.476 439.127,163.867 435.62,157.223 435.22,156.229 433.375,149.792 433.477,146.607 434.158,145.72 433.77,145.643 431.803,145.126 431.032,144.857 429.353,144.119 428.43,143.595 427.07,142.628 426.099,141.73 425.089,140.524 424.303,139.251 424,138.55 " fill="none" stroke-width="0.5" stroke="rgb(0,0,0)" />
	<polygon points="377.131,150.846 378.35,151.468 379.993,152.105 382.178,152.687 385.007,153.119 388.618,153.292 390.567,153.234 392.636,153.071 394.485,152.869 390.73,153.031 389.947,153.005 381.679,152.109 380.579,151.867 376.621,150.533 " fill="none" stroke-width="0.5" stroke="rgb(0,0,0)" />
	<polygon points="348.324,117.351 347.859,120.509 347.772,120.961 347.362,122.677 349.448,124.421 350.196,125.594 350.502,126.145 351.163,127.526 351.341,127.942 351.911,129.459 352.023,129.792 352.499,131.373 352.576,131.66 352.953,133.234 353.01,133.507 353.284,135.001 353.33,135.296 353.497,136.64 353.53,137.019 353.587,138.139 353.57,138.893 352.944,145.494 352.723,146.575 352.013,148.815 352.598,148.497 353.538,148.102 354.786,147.715 355.805,147.508 357.146,147.373 358.188,147.373 359.527,147.508 360.546,147.715 361.794,148.102 362.733,148.497 363.862,149.11 364.692,149.669 365.676,150.48 366.378,151.182 367.127,152.09 367.475,151.38 367.526,151.297 368.39,150.243 368.448,150.189 369.783,149.281 369.846,149.252 371.361,148.802 371.426,148.793 372.158,148.888 365.894,145.217 365.1,144.644 359.763,139.975 359.134,139.32 354.887,134.037 354.395,133.307 351.292,127.731 350.917,126.889 349.014,121.341 348.773,120.296 348.36,116.983 " fill="none" stroke-width="0.5" stroke="rgb(0,0,0)" />
	<polygon points="131.4,132.938 130.716,133.178 129.978,133.511 129.266,133.898 128.655,134.285 128.23,134.599 127.837,134.947 124.92,136.228 122.278,135.667 123.752,137.148 124.517,138.77 124.903,139.925 125.381,142.219 125.422,142.435 125.824,144.88 126.289,146.818 126.7,147.702 126.978,147.766 127.199,147.663 127.645,147.366 128.179,146.88 128.771,146.156 129.388,145.138 130.015,143.704 130.341,142.711 130.67,141.57 130.952,140.436 131.184,139.319 131.366,138.229 131.495,137.18 131.572,136.184 131.597,135.259 131.556,133.928 131.445,132.928 " fill="none" stroke-width="0.5" stroke="rgb(0,0,0)" />
	<polygon points="101.256,136.995 101.256,138.047 101.113,139.452 100.904,140.476 100.635,141.337 101.144,141.441 102.452,141.85 103.389,142.248 104.575,142.894 105.398,143.451 106.433,144.306 107.13,145.003 107.985,146.038 108.062,146.151 108.083,145.945 108.131,145.603 108.435,143.843 108.525,143.423 108.983,141.658 109.168,141.084 109.798,139.458 110.039,138.971 107.535,139.556 105.537,138.974 102.9,137.586 101.13,135.758 " fill="none" stroke-width="0.5" stroke="rgb(0,0,0)" />
	<polygon points="314.749,122.639 313.108,123.082 311.662,123.756 310.41,124.619 309.369,125.617 308.565,126.682 308.018,127.725 307.571,129.135 305.725,131.732 305.353,131.859 305.676,132.115 306.925,132.944 308.096,133.569 309.216,134.023 310.33,134.334 311.492,134.519 312.799,134.585 313.204,134.573 313.752,134.531 314.375,134.462 315.049,134.375 315.737,134.282 315.78,134.277 316.434,134.194 316.572,134.178 317.161,134.12 317.448,134.099 317.955,134.077 318.479,134.08 319.044,134.112 319.705,134.193 320.214,134.288 320.975,134.492 321.422,134.648 322.276,135.037 322.655,135.253 323.55,135.897 323.854,136.17 324.674,137.104 324.899,137.432 325.495,138.589 325.634,138.971 325.918,140.184 325.966,140.617 325.971,141.717 325.891,142.491 325.746,143.29 325.592,143.871 326.701,143.783 329.595,143.066 331.643,142.157 329.292,141.408 327.708,139.592 327.216,138.655 326.722,137.878 326.121,137.087 325.412,136.302 324.592,135.537 323.657,134.809 322.6,134.129 321.207,133.405 320.79,133.189 320.122,132.778 319.76,132.516 319.143,131.991 318.842,131.692 318.313,131.076 318.071,130.745 317.653,130.072 317.469,129.717 317.169,129.018 317.04,128.644 316.852,127.949 316.776,127.563 316.689,126.889 316.664,126.496 316.682,125.63 316.759,124.887 316.94,123.967 317.164,123.198 317.413,122.532 317.139,122.494 316.693,122.469 " fill="none" stroke-width="0.5" stroke="rgb(0,0,0)" />
	<polygon points="58.1209,137.499 57.6274,138.428 60.0295,137.962 60.3849,137.906 62.6326,137.63 62.0925,137.533 61.4167,137.364 57.7359,136.174 " fill="none" stroke-width="0.5" stroke="rgb(0,0,0)" />
	<polygon points="93.3231,111.282 93.2362,111.365 91.0596,113.386 90.7169,113.677 88.4537,115.44 87.7052,115.926 85.3671,117.173 83.925,117.687 81.5237,118.16 79.9659,118.228 78.7692,118.1 78.4576,118.026 78.6537,119.18 78.7188,119.756 78.9075,123.071 78.9146,123.482 78.8829,124.909 78.873,125.133 78.782,126.522 78.7635,126.735 78.6193,128.082 78.5937,128.284 78.4025,129.585 78.3707,129.777 78.1387,131.028 78.1018,131.21 77.8353,132.408 77.7941,132.58 77.4992,133.722 77.4544,133.885 77.1373,134.967 75.3477,137.602 74.6403,137.823 75.5329,137.914 75.6429,137.927 76.5372,138.037 76.7643,138.071 76.9354,138.1 76.9301,138.047 76.9301,136.996 77.0726,135.593 77.2818,134.57 77.6903,133.26 78.0862,132.324 78.7321,131.136 79.2881,130.312 80.1427,129.276 80.8391,128.578 81.8737,127.721 82.6978,127.163 83.8839,126.515 84.8223,126.117 86.1312,125.707 87.1575,125.496 88.5606,125.353 89.6143,125.353 91.0193,125.496 92.0443,125.706 93.3551,126.116 94.2927,126.514 95.4806,127.161 96.3045,127.719 97.3408,128.575 98.0377,129.273 98.2613,129.544 97.3027,125.29 97.2214,124.836 96.4277,118.901 96.4139,118.789 95.7622,112.95 95.2357,109.423 " fill="none" stroke-width="0.5" stroke="rgb(0,0,0)" />
	<polygon points="122.909,111.811 121.322,118.163 121.298,118.253 119.572,124.669 119.47,125.002 117.554,130.598 117.192,131.417 115.84,133.878 116.415,133.725 119.992,134.054 120.756,134.418 119.657,133.212 119.587,129.057 121.43,124.627 121.788,123.923 124.13,120.071 124.613,119.402 127.397,116.131 127.994,115.534 130.548,113.37 130.357,113.275 128.84,112.127 128.16,111.512 126.658,109.889 126.429,109.624 124.936,107.775 124.257,106.944 " fill="none" stroke-width="0.5" stroke="rgb(0,0,0)" />
	<polygon points="182.608,103.013 182.787,103.821 183.342,107.792 183.387,108.758 183.345,109.649 183.285,110.224 183.153,111.049 182.986,111.765 182.756,112.509 182.4,113.375 182.064,114.021 181.415,114.985 180.964,115.515 179.973,116.416 179.399,116.815 178.177,117.445 177.472,117.697 176.26,117.972 175.416,118.059 173.532,117.91 170.173,117.009 169.913,116.899 170.092,117.136 172.436,121.005 172.842,121.832 174.529,126.213 174.761,126.994 175.306,129.541 177.478,127.608 177.965,127.225 180.965,125.138 181.602,124.76 184.722,123.194 185.534,122.868 188.756,121.883 189.741,121.684 193.045,121.342 194.157,121.346 198.19,121.796 199.347,122.071 199.032,121.896 197.912,121.055 194.397,117.587 194.08,117.246 189.837,112.233 189.667,112.022 185.157,106.094 185.023,105.91 182.286,101.966 " fill="none" stroke-width="0.5" stroke="rgb(0,0,0)" />
	<polygon points="385.29,93.574 384.515,94.2878 378.337,98.9091 377.482,99.4288 370.534,102.781 369.64,103.115 362.141,105.156 361.232,105.319 353.401,106.009 352.555,106.014 347.26,105.616 346.526,105.508 345.98,105.387 346.946,106.457 347.288,107.011 347.802,108.118 348.031,108.816 348.213,109.544 348.351,110.34 348.41,110.798 348.482,111.648 348.497,111.923 348.501,112.034 348.569,111.816 348.674,111.561 349.085,110.764 349.22,110.55 349.708,109.894 349.868,109.713 350.328,109.25 350.505,109.093 350.849,108.812 351.038,108.672 351.219,108.543 351.413,108.411 352.66,107.789 353.841,107.387 354.989,107.136 356.83,106.948 357.102,106.927 359.502,106.809 362.309,106.622 365.449,106.239 368.926,105.533 372.725,104.373 376.941,102.571 377.376,102.35 377.671,102.211 378.258,101.958 378.561,101.839 379.144,101.629 379.454,101.529 380.031,101.362 380.346,101.281 380.915,101.155 381.234,101.094 381.793,101.006 382.115,100.965 382.662,100.913 382.987,100.893 383.519,100.876 384.468,100.933 386.433,101.233 388.183,101.833 389.6,102.624 390.867,103.616 391.911,104.735 392.452,105.421 393.297,106.704 393.336,106.763 393.952,107.727 394.03,107.817 394.674,107.756 395.871,107.474 397.35,106.99 399.01,106.365 400.728,105.699 400.861,105.65 402.512,105.062 402.884,104.945 404.403,104.529 405.171,104.38 406.518,104.222 408.854,104.484 410.896,105.205 412.68,106.276 414.823,108.242 415.507,109.007 417.637,111.924 417.974,112.449 419.975,116.021 420.186,116.441 421.942,120.373 422.103,120.779 423.501,124.776 423.643,125.255 424.5,128.754 424.926,128.056 425.664,127.069 426.391,126.282 427.4,125.394 428.194,124.836 427.804,124.62 426.81,123.938 425.99,123.24 425.082,122.288 424.435,121.454 423.644,120.188 423.226,119.363 422.721,118.101 422.528,117.519 422.156,116.132 422.089,115.853 421.783,114.396 421.781,114.384 421.502,113.039 421.233,112.001 420.989,111.353 420.848,111.115 420.338,110.598 418.9,107.755 419.391,104.607 421.625,102.336 425.327,101.906 426.292,102.153 427.128,102.313 428.003,102.434 428.907,102.518 429.827,102.572 430.755,102.6 431.683,102.611 432.393,102.613 434.779,102.423 437.105,101.929 439.579,101.168 442.164,100.228 442.846,99.9712 442.719,99.9967 431.942,101.482 431.445,101.527 419.89,102.001 419.625,102.005 416.338,101.973 416.237,101.971 412.904,101.872 412.805,101.868 409.436,101.705 409.338,101.699 405.941,101.47 405.844,101.463 402.429,101.169 402.332,101.159 398.907,100.8 398.81,100.789 395.383,100.364 395.285,100.351 391.867,99.8615 391.796,99.8508 391.321,99.776 390.886,99.6884 390.5,99.5934 389.844,99.3847 389.54,99.2654 388.633,98.8021 388.402,98.6542 387.373,97.7873 387.208,97.6067 386.387,96.4101 386.279,96.1925 385.866,95.0337 385.807,94.7749 385.686,93.9249 385.668,93.6208 385.846,92.9472 " fill="none" stroke-width="0.5" stroke="rgb(0,0,0)" />
	<polygon points="144.768,98.6807 144.218,101.669 143.641,104.896 143.549,105.308 142.938,107.623 144.604,107.244 145.378,107.128 149.508,106.826 150.472,106.845 155.349,107.397 156.564,107.686 156.812,107.777 155.154,106.386 155.118,106.356 150.673,102.556 146.749,99.4007 144.907,98.1864 " fill="none" stroke-width="0.5" stroke="rgb(0,0,0)" />
	<polygon points="326.231,98.5498 325.321,99.8645 327.609,100.333 328.27,100.515 331.01,101.466 331.577,101.701 333.822,102.791 334.248,103.024 336.045,104.114 336.277,104.263 337.025,104.774 337.293,104.634 337.485,104.538 338.08,104.258 338.589,104.05 339.16,103.852 339.631,103.738 336.98,102.8 336.517,102.611 332.868,100.911 332.569,100.759 329.461,99.0583 329.358,99.0003 326.904,97.5839 " fill="none" stroke-width="0.5" stroke="rgb(0,0,0)" />
	<polygon points="69.8065,91.7894 64.7389,94.4566 59.7327,97.2184 62.7841,97.64 64.2499,98.069 67.6324,99.6288 68.8523,100.414 71.0006,102.268 71.047,101.718 71.0625,101.561 71.3138,99.3717 71.3233,99.2943 71.6113,97.0789 71.6122,97.0715 71.896,94.9131 72.1345,92.9056 72.2934,91.1273 72.3103,90.6744 " fill="none" stroke-width="0.5" stroke="rgb(0,0,0)" />
	<polygon points="395.528,78.7842 395.09,79.7971 391.252,86.588 392.316,86.0448 394.202,84.9668 395.794,83.7661 396.959,82.4387 397.712,80.8643 398.067,78.3704 398.03,77.3726 397.9,76.0788 397.707,74.7814 397.473,73.5101 397.354,72.9192 " fill="none" stroke-width="0.5" stroke="rgb(0,0,0)" />
	<polygon points="111.87,77.9994 112.04,78.9305 112.138,80.0231 112.206,79.7985 112.529,78.9906 113.614,76.8205 112.637,76.4687 111.212,75.6204 111.206,75.6136 " fill="none" stroke-width="0.5" stroke="rgb(0,0,0)" />
	<polygon points="172.139,77.0279 173.326,79.8269 173.608,79.2922 173.709,79.1329 174.301,78.3732 174.427,78.2385 175.247,77.5311 175.396,77.4271 176.463,76.8559 176.535,76.8279 173.46,75.8506 171.546,75.3488 " fill="none" stroke-width="0.5" stroke="rgb(0,0,0)" />
	<polygon points="125.524,60.2665 124.759,63.4451 124.024,66.9345 123.952,67.2293 123.106,70.3364 122.7,71.3725 121.894,72.9181 123.296,73.4171 125.31,74.7216 126.692,76.1662 127.341,76.9994 127.913,77.9136 127.924,76.6894 127.927,76.5385 127.974,75.2881 127.992,75.012 128.092,73.9096 128.155,73.4437 128.327,72.5054 128.526,71.7456 128.788,70.9876 129.36,69.8251 129.729,69.2636 131.081,67.8693 131.577,67.5205 133.092,66.8812 131.624,65.0181 131.484,64.8328 129.745,62.4124 128.064,60.1863 126.611,58.5967 126.25,58.3336 " fill="none" stroke-width="0.5" stroke="rgb(0,0,0)" />
	<polygon points="106.597,57.6327 105.486,58.1652 103.918,59.244 102.121,60.708 100.257,62.3034 100.128,62.4107 98.3463,63.8386 97.8476,64.1923 96.2297,65.2023 94.8291,65.8121 94.3833,65.9323 94.4986,66.1032 94.7777,66.6513 95.1418,67.5753 95.3311,68.2345 95.4827,68.9467 95.5904,69.7132 95.6369,70.2329 95.6711,71.1029 95.6643,71.6408 95.5371,73.6168 95.489,74.0624 95.1536,76.2741 95.1114,76.514 95.1113,76.5144 96.3966,74.8754 97.0092,74.2197 99.0984,72.3388 100.874,71.2901 102.933,70.5767 106.118,70.5054 107.748,71.324 108.703,72.0371 108.213,70.4471 108,69.3488 107.736,66.1871 107.722,65.9694 107.578,62.4855 107.285,59.4388 106.805,57.6628 106.76,57.6029 " fill="none" stroke-width="0.5" stroke="rgb(0,0,0)" />
	<polygon points="146.109,68.6416 145.407,69.3879 145.122,69.6362 144.269,70.2405 143.969,70.4103 147.326,73.1507 147.509,73.3067 148.389,74.0953 147.733,72.5685 147.648,72.3586 146.197,68.5279 " fill="none" stroke-width="0.5" stroke="rgb(0,0,0)" />
	<polygon points="399.186,59.3022 399.183,60.2715 398.859,63.6289 399.182,63.331 399.394,63.1708 400.225,62.6581 400.463,62.541 401.349,62.2 401.603,62.1282 402.537,61.9543 402.799,61.9299 405.18,62.2668 406.29,62.7022 407.718,63.5468 409.096,64.6946 409.394,64.9622 411.03,66.5532 412.833,68.245 414.727,69.7661 416.694,70.9604 418.718,71.722 421.115,72.0245 421.53,72.005 422.296,71.8888 423.022,71.6765 423.59,71.3951 423.982,71.0767 424.294,70.6454 424.593,69.8317 424.699,68.826 424.09,66.8036 422.093,64.7417 418.258,62.4725 413.323,60.4283 408.108,58.6989 403.409,57.2552 403.165,57.1735 399.802,55.9551 398.832,55.3931 " fill="none" stroke-width="0.5" stroke="rgb(0,0,0)" />
	<polygon points="84.5778,60.3225 84.1784,60.8173 81.5622,63.6812 83.6211,62.9414 84.5457,62.7023 85.7269,62.5104 85.5784,62.2275 85.4679,61.9269 85.1788,60.6911 85.1397,60.3291 85.2101,59.4329 " fill="none" stroke-width="0.5" stroke="rgb(0,0,0)" />
	<polygon points="54.1656,62.5558 55.0796,61.3408 53.4708,61.2309 " fill="none" stroke-width="0.5" stroke="rgb(0,0,0)" />
	<polygon points="161.868,44.977 161.821,45.3952 161.499,46.6997 161.365,47.042 160.661,48.2997 160.454,48.5724 159.509,49.5291 159.24,49.7383 158.927,49.9324 160.193,50.2683 160.533,50.3712 163.912,51.5197 164.054,51.5705 167.586,52.8871 167.59,52.8885 171.046,54.18 173.551,55.0378 170.81,51.9731 167.004,48.1356 163.104,44.2598 162.973,44.1255 161.523,42.5769 " fill="none" stroke-width="0.5" stroke="rgb(0,0,0)" />
	<polygon points="142.66,48.8242 143.079,50.3178 143.794,52.2015 144.7,54.3002 144.861,54.6636 144.915,54.5052 145.335,53.5755 145.731,52.8885 146.464,51.906 146.992,51.3505 148.029,50.5067 148.688,50.0994 147.443,49.7576 145.856,49.3348 144.403,48.9977 143.165,48.7896 142.652,48.755 " fill="none" stroke-width="0.5" stroke="rgb(0,0,0)" />
	<polygon points="92.1465,46.6829 90.3967,46.9405 88.5308,47.2518 86.802,47.5439 87.6892,48.9243 88.1687,52.5994 89.1186,51.3164 89.2309,51.1702 90.9501,49.0125 92.5827,46.9249 92.8011,46.6122 " fill="none" stroke-width="0.5" stroke="rgb(0,0,0)" />
	<polygon points="445.309,38.0054 445.264,38.1379 444.606,40.008 443.992,41.8538 443.502,43.6574 443.179,45.4669 443.061,47.3542 443.106,48.0537 443.216,48.5647 443.337,48.8611 443.419,48.9836 443.475,49.0356 443.623,49.1178 444.039,49.2386 444.702,49.2951 445.119,49.2364 445.181,49.175 445.451,48.7098 445.785,47.7379 446.063,46.3246 446.232,44.5838 446.287,42.6195 446.254,41 446.165,39.4478 446.037,37.9713 445.886,36.5632 445.856,36.3087 " fill="none" stroke-width="0.5" stroke="rgb(0,0,0)" />
	<polygon points="186.119,37.7816 186.14,37.8374 186.186,37.7316 " fill="none" stroke-width="0.5" stroke="rgb(0,0,0)" />
</svg>
