<?xml version="1.0" standalone="no" ?>
<!DOCTYPE svg PUBLIC "-//W3C//DTD SVG 1.1//EN" "http://www.w3.org/Graphics/SVG/1.1/DTD/svg11.dtd">
<svg width="500px" height="500px" xmlns="http://www.w3.org/2000/svg" version="1.1" >
	<polygon points="466.023,280.871 465.237,294.886 462.893,309.685 458.918,325.371 453.287,341.619 445.985,358.119 437.004,374.573 426.344,390.693 414.004,406.203 399.982,420.834 384.274,434.328 366.866,446.435 347.735,456.911 326.84,465.513 304.127,471.99 279.533,476.083 252.98,477.513 227.114,476.164 203.038,472.289 180.721,466.139 160.117,457.949 141.189,447.944 123.912,436.343 108.272,423.365 94.2666,409.233 81.8995,394.177 71.1793,378.434 62.1155,362.251 54.7161,345.881 48.9849,329.587 44.9192,313.641 42.5059,298.326 41.6905,283.499 41.6905,34.2625 49.9875,34.1989 61.4791,34.1107 61.4791,34.1107 72.9708,34.0225 84.4625,33.9343 95.9542,33.8462 95.9542,33.8462 107.446,33.758 130.429,33.5816 141.921,33.4935 153.413,33.4053 164.904,33.3171 176.396,33.2289 187.888,33.1408 195.928,33.0791 195.907,43.9332 195.881,56.832 195.856,69.7308 195.856,69.7309 195.83,82.6296 195.779,108.427 195.779,108.427 195.754,121.326 195.703,147.124 195.703,147.124 195.678,160.022 195.652,172.921 195.652,172.921 195.627,185.82 195.601,198.719 195.576,211.618 195.576,211.618 195.55,224.516 195.551,224.66 195.638,235.954 195.639,236.065 195.804,246.882 195.808,247.083 196.105,257.39 196.117,257.697 196.602,267.459 196.63,267.895 197.358,277.079 197.417,277.669 198.443,286.242 198.558,287.021 199.938,294.949 200.15,295.957 201.94,303.207 202.316,304.484 204.57,311.023 205.213,312.591 207.987,318.385 209.028,320.212 212.377,325.228 213.936,327.184 217.916,331.389 220.016,333.225 224.681,336.585 227.157,338.026 232.563,340.507 235.106,341.404 241.309,342.973 243.634,343.368 250.689,343.992 251.947,329.779 252.929,344.015 260.189,343.514 262.527,343.164 268.874,341.686 271.479,340.818 276.974,338.4 279.548,336.944 284.254,333.623 286.45,331.724 290.429,327.535 292.049,325.496 295.362,320.477 296.425,318.577 299.134,312.764 299.774,311.15 301.942,304.58 302.306,303.282 303.995,295.993 304.192,294.983 305.463,287.01 305.565,286.244 306.481,277.624 306.53,277.056 307.153,267.827 307.174,267.421 307.566,257.618 307.574,257.346 307.796,247.006 307.799,246.845 307.914,236.006 307.915,235.94 307.985,224.637 307.985,224.516 307.959,211.617 307.933,198.718 307.907,185.82 307.882,172.921 307.882,172.921 307.804,134.224 307.804,134.224 307.778,121.326 307.701,82.6292 307.701,82.6291 307.675,69.7303 307.601,32.8698 316.373,32.8134 328.126,32.7379 339.879,32.6623 351.633,32.5867 351.633,32.5867 363.386,32.5112 375.139,32.4356 386.892,32.3601 386.892,32.3601 410.399,32.2089 422.152,32.1334 422.152,32.1334 433.905,32.0578 445.659,31.9823 457.412,31.9067 466.023,31.8513 " fill="none" stroke-width="0.5" stroke="rgb(0,0,0)" />
</svg>
