<?xml version="1.0" standalone="no" ?>
<!DOCTYPE svg PUBLIC "-//W3C//DTD SVG 1.1//EN" "http://www.w3.org/Graphics/SVG/1.1/DTD/svg11.dtd">
<svg width="500px" height="500px" xmlns="http://www.w3.org/2000/svg" version="1.1" >
	<polygon points="462.973,280.785 462.2,294.561 459.902,309.071 455.994,324.496 450.447,340.501 443.247,356.769 434.389,372.998 423.874,388.899 411.705,404.194 397.882,418.617 382.404,431.913 365.259,443.838 346.418,454.155 325.838,462.627 303.457,469.01 279.2,473.046 252.977,474.458 227.436,473.126 203.687,469.305 181.692,463.243 161.396,455.176 142.756,445.322 125.741,433.897 110.334,421.113 96.5331,407.187 84.3433,392.347 73.7753,376.828 64.8407,360.875 57.5496,344.744 51.9069,328.702 47.9099,313.026 45.5428,298.004 44.7405,283.415 44.7405,37.2892 50.0109,37.2488 61.5025,37.1606 61.5025,37.1606 72.9942,37.0724 84.4859,36.9843 95.9776,36.8961 95.9776,36.8961 107.469,36.8079 118.961,36.7197 130.453,36.6316 141.944,36.5434 153.436,36.4552 164.928,36.367 176.419,36.2789 187.911,36.1907 192.872,36.1526 192.857,43.9272 192.831,56.826 192.806,69.7248 192.806,69.7248 192.78,82.6236 192.729,108.421 192.729,108.421 192.704,121.32 192.653,147.118 192.653,147.118 192.628,160.016 192.602,172.915 192.602,172.915 192.577,185.814 192.551,198.713 192.526,211.612 192.526,211.612 192.5,224.51 192.501,224.683 192.588,235.978 192.59,236.111 192.754,246.928 192.759,247.171 193.056,257.477 193.071,257.849 193.556,267.611 193.59,268.136 194.318,277.32 194.388,278.031 195.415,286.604 195.553,287.544 196.933,295.472 197.189,296.688 198.979,303.938 199.433,305.478 201.687,312.017 202.462,313.907 205.236,319.702 206.491,321.906 209.84,326.922 211.721,329.28 215.701,333.485 218.234,335.7 222.899,339.06 225.884,340.798 231.291,343.279 234.358,344.361 240.561,345.93 243.366,346.406 250.42,347.03 251.947,329.779 253.139,347.058 260.399,346.557 263.219,346.134 269.566,344.656 272.707,343.61 278.203,341.192 281.307,339.436 286.013,336.114 288.662,333.824 292.64,329.636 294.595,327.176 297.908,322.157 299.189,319.865 301.898,314.053 302.671,312.105 304.839,305.536 305.277,303.97 306.966,296.681 307.204,295.463 308.475,287.49 308.598,286.566 309.514,277.946 309.573,277.262 310.196,268.032 310.222,267.543 310.613,257.74 310.624,257.411 310.846,247.072 310.849,246.878 310.964,236.038 310.965,235.959 311.035,224.656 311.035,224.51 311.009,211.611 310.983,198.712 310.957,185.813 310.932,172.915 310.932,172.915 310.906,160.016 310.854,134.218 310.854,134.218 310.828,121.319 310.751,82.6231 310.751,82.623 310.725,69.7242 310.657,35.9002 316.393,35.8634 316.393,35.8634 328.146,35.7878 339.899,35.7122 351.652,35.6367 351.652,35.6367 363.406,35.5611 375.159,35.4855 386.912,35.41 410.419,35.2589 422.172,35.1833 422.172,35.1833 433.925,35.1077 445.678,35.0322 457.432,34.9566 462.973,34.921 " fill="none" stroke-width="0.5" stroke="rgb(0,0,0)" />
</svg>
