<?xml version="1.0" standalone="no" ?>
<!DOCTYPE svg PUBLIC "-//W3C//DTD SVG 1.1//EN" "http://www.w3.org/Graphics/SVG/1.1/DTD/svg11.dtd">
<svg width="500px" height="500px" xmlns="http://www.w3.org/2000/svg" version="1.1" >
	<polygon points="468.223,280.933 467.427,295.121 465.05,310.128 461.028,326.003 455.336,342.426 447.959,359.093 438.891,375.709 428.126,391.988 415.662,407.652 401.496,422.434 385.622,436.07 368.026,448.308 348.685,458.899 327.563,467.594 304.611,474.14 279.773,478.273 252.982,479.716 226.881,478.354 202.57,474.442 180.02,468.228 159.194,459.95 140.059,449.835 122.593,438.107 106.785,424.99 92.6317,410.709 80.1367,395.497 69.3068,379.593 60.1498,363.243 52.6722,346.7 46.8772,330.225 42.7621,314.085 40.3153,298.558 39.4905,283.56 39.4905,32.0793 49.9706,31.9989 61.4622,31.9108 72.9539,31.8226 84.4456,31.7344 95.9373,31.6462 95.9373,31.6462 107.429,31.5581 118.921,31.4699 130.412,31.3817 153.396,31.2054 164.887,31.1172 176.379,31.029 187.871,30.9408 198.132,30.8621 198.132,31.0388 198.132,31.0388 198.106,43.9376 198.081,56.8364 198.056,69.7352 198.056,69.7352 198.03,82.634 197.979,108.432 197.979,108.432 197.954,121.33 197.903,147.128 197.878,160.027 197.852,172.926 197.852,172.926 197.827,185.824 197.801,198.723 197.776,211.622 197.776,211.622 197.75,224.521 197.751,224.643 197.838,235.937 197.839,236.032 198.003,246.849 198.007,247.02 198.304,257.326 198.314,257.588 198.799,267.35 198.823,267.721 199.551,276.905 199.601,277.407 200.628,285.98 200.725,286.643 202.106,294.572 202.286,295.43 204.076,302.68 204.396,303.767 206.65,310.306 207.198,311.641 209.972,317.435 210.857,318.991 214.206,324.007 215.534,325.672 219.514,329.876 221.302,331.44 225.967,334.799 228.074,336.026 233.481,338.508 235.646,339.271 241.848,340.841 243.828,341.177 250.883,341.801 251.947,329.779 252.777,341.82 260.038,341.319 262.028,341.021 268.375,339.543 270.593,338.804 276.088,336.386 278.28,335.147 282.986,331.825 284.855,330.209 288.834,326.02 290.213,324.284 293.526,319.265 294.431,317.647 297.14,311.835 297.685,310.46 299.853,303.891 300.163,302.786 301.851,295.496 302.019,294.637 303.29,286.664 303.377,286.011 304.293,277.392 304.335,276.908 304.958,267.679 304.976,267.333 305.368,257.53 305.375,257.298 305.597,246.959 305.599,246.822 305.714,235.982 305.715,235.926 305.785,224.624 305.785,224.52 305.759,211.622 305.707,185.824 305.682,172.925 305.682,172.925 305.656,160.026 305.604,134.229 305.604,134.229 305.578,121.33 305.501,82.6336 305.501,82.6336 305.475,69.7348 305.397,31.0384 305.397,31.0384 305.396,30.6839 316.359,30.6135 328.112,30.5379 339.865,30.4623 351.619,30.3868 363.372,30.3112 375.125,30.2357 386.878,30.1601 410.385,30.009 422.138,29.9334 433.891,29.8579 445.645,29.7823 457.398,29.7067 468.223,29.6371 " fill="none" stroke-width="0.5" stroke="rgb(0,0,0)" />
</svg>
