<?xml version="1.0" standalone="no" ?>
<!DOCTYPE svg PUBLIC "-//W3C//DTD SVG 1.1//EN" "http://www.w3.org/Graphics/SVG/1.1/DTD/svg11.dtd">
<svg width="500px" height="500px" xmlns="http://www.w3.org/2000/svg" version="1.1" >
	<polygon points="461.673,280.749 460.906,294.423 458.627,308.809 454.747,324.122 449.236,340.024 442.08,356.193 433.274,372.327 422.821,388.135 410.725,403.338 396.987,417.672 381.608,430.884 364.573,442.731 345.857,452.98 325.411,461.397 303.171,467.74 279.058,471.752 252.976,473.156 227.574,471.832 203.964,468.032 182.106,462.009 161.942,453.993 143.424,444.205 126.52,432.854 111.213,420.153 97.4991,406.315 85.3849,391.567 74.8818,376.143 66.0023,360.288 58.7573,344.26 53.1524,328.325 49.1846,312.763 46.8372,297.866 46.0405,283.38 46.0405,38.5793 50.0208,38.5487 61.5125,38.4606 61.5125,38.4606 73.0042,38.3724 84.4958,38.2842 95.9875,38.196 95.9875,38.196 107.479,38.1079 118.971,38.0197 130.463,37.9315 141.954,37.8433 153.446,37.7552 164.938,37.667 176.429,37.5788 187.921,37.4906 191.569,37.4626 191.557,43.9247 191.531,56.8235 191.506,69.7223 191.506,69.7223 191.48,82.621 191.429,108.419 191.429,108.419 191.404,121.317 191.353,147.115 191.353,147.115 191.328,160.014 191.302,172.913 191.302,172.913 191.277,185.811 191.251,198.71 191.226,211.609 191.226,211.609 191.2,224.508 191.201,224.693 191.288,235.988 191.29,236.131 191.454,246.948 191.46,247.209 191.757,257.515 191.773,257.913 192.257,267.675 192.294,268.238 193.022,277.422 193.098,278.186 194.124,286.759 194.272,287.767 195.653,295.695 195.927,296.999 197.716,304.25 198.204,305.902 200.458,312.441 201.29,314.469 204.064,320.263 205.41,322.628 208.759,327.644 210.777,330.174 214.757,334.379 217.474,336.755 222.139,340.115 225.342,341.979 230.749,344.461 234.039,345.621 240.242,347.191 243.251,347.701 250.305,348.325 251.947,329.779 253.228,348.355 260.489,347.854 263.514,347.4 269.861,345.923 273.231,344.8 278.726,342.381 282.057,340.498 286.763,337.176 289.604,334.72 293.583,330.531 295.68,327.892 298.993,322.873 300.367,320.415 303.077,314.602 303.905,312.513 306.073,305.943 306.544,304.264 308.232,296.974 308.487,295.668 309.759,287.695 309.89,286.703 310.806,278.084 310.87,277.349 311.493,268.12 311.521,267.595 311.912,257.792 311.923,257.439 312.145,247.099 312.149,246.891 312.264,236.052 312.265,235.967 312.335,224.664 312.335,224.507 312.309,211.608 312.283,198.71 312.257,185.811 312.232,172.912 312.232,172.912 312.206,160.013 312.154,134.216 312.154,134.216 312.128,121.317 312.051,82.6205 312.051,82.6204 312.025,69.7216 311.959,37.1919 316.401,37.1633 328.154,37.0878 339.907,37.0122 351.661,36.9366 363.414,36.8611 375.167,36.7855 386.92,36.71 410.427,36.5588 422.18,36.4833 433.933,36.4077 445.687,36.3322 457.44,36.2566 461.673,36.2294 " fill="none" stroke-width="0.5" stroke="rgb(0,0,0)" />
</svg>
