<?xml version="1.0" standalone="no" ?>
<!DOCTYPE svg PUBLIC "-//W3C//DTD SVG 1.1//EN" "http://www.w3.org/Graphics/SVG/1.1/DTD/svg11.dtd">
<svg width="500px" height="500px" xmlns="http://www.w3.org/2000/svg" version="1.1" >
	<polygon points="480.823,83.6436 475.516,90.1064 473.534,91.9696 471.958,93.1088 473.15,93.5937 475.074,94.6176 476.797,95.7766 478.541,97.2458 479.91,98.6773 480.823,99.8569 480.823,193.711 480.153,194.486 478.574,195.561 478.152,195.729 480.443,198.271 480.823,198.781 480.823,250.149 480.667,250.39 479.86,251.515 480.288,251.667 480.823,251.941 480.823,281.286 479.971,296.463 479.659,298.432 478.558,299.795 477.701,300.733 476.06,302.328 477.766,305.593 478.321,306.881 477.405,312.666 473.11,329.62 467.07,347.047 459.27,364.67 453.963,374.394 452.244,374.613 452.477,377.117 449.695,382.213 438.331,399.399 425.161,415.952 410.17,431.593 399.344,440.893 398.676,440.684 398.514,441.606 393.345,446.047 374.668,459.037 354.126,470.285 331.702,479.516 319.47,483.005 317.04,481.748 316.462,481.37 316.342,482.401 315.944,483.874 315.863,484.033 307.382,486.452 281.151,490.817 252.993,492.333 225.548,490.902 199.887,486.773 176.007,480.192 171.836,478.534 171.111,478.126 170.016,477.811 153.907,471.407 133.585,460.665 125.284,455.091 125.142,454.137 123.617,453.971 115.039,448.212 98.2672,434.295 83.2685,419.161 70.0408,403.057 67.697,399.615 67.6965,399.593 67.6782,399.588 58.5824,386.23 48.8916,368.927 40.9666,351.394 34.8057,333.879 32.9111,326.448 35.0169,319.666 35.6204,318.147 36.5872,316.173 34.8439,315.624 30.5307,313.008 29.7072,312.185 27.7694,299.888 26.8905,283.906 26.8905,231.067 27.2721,230.41 26.8905,230.19 26.8905,157.033 27.4981,155.682 29.9246,151.25 31.0631,149.573 31.1542,149.463 29.1309,148.413 27.3782,147.271 26.8905,146.88 26.8905,38.5054 29.7015,36.4469 30.2065,36.0995 29.6267,35.9168 28.0286,35.2661 26.8905,34.6906 26.8905,19.5757 38.3822,19.4875 49.8739,19.3993 61.3656,19.3111 72.8572,19.223 84.3489,19.1348 95.8406,19.0466 107.332,18.9584 118.824,18.8703 130.316,18.7821 141.807,18.6939 153.299,18.6057 164.791,18.5175 176.282,18.4294 187.774,18.3412 210.757,18.1648 210.732,31.0636 210.706,43.9624 210.681,56.8612 210.656,69.76 210.63,82.6588 210.619,88.0676 210.099,88.2854 208.776,88.7092 210.381,90.0447 210.615,90.2491 210.579,108.456 210.554,121.355 210.503,147.153 210.478,160.052 210.452,172.95 210.436,181.16 210.387,181.234 208.605,183.476 207.269,184.874 206.322,185.699 206.911,186.103 208.548,187.488 210.42,189.428 210.401,198.748 210.376,211.647 210.355,222.175 210.336,222.194 210.355,222.212 210.35,224.546 210.438,235.84 210.602,246.657 210.899,256.963 211.384,266.725 211.387,266.771 210.432,267.927 209.491,269.179 209.58,269.269 211.681,271.038 211.729,271.08 212.112,275.909 213.138,284.482 214.519,292.41 216.308,299.661 218.563,306.2 221.336,311.994 224.685,317.011 228.665,321.215 233.33,324.575 238.737,327.056 244.939,328.626 251.957,329.247 252.542,329.206 252.891,329.929 253.229,329.418 253.45,329.144 259.171,328.749 265.518,327.271 271.013,324.853 275.719,321.532 279.698,317.343 283.01,312.324 285.72,306.511 287.888,299.942 289.576,292.653 290.848,284.68 291.763,276.06 292.386,266.831 292.778,257.028 293,246.688 293.115,235.848 293.185,224.546 293.159,211.647 293.133,198.748 293.124,194.32 294.002,193.592 293.684,193.009 293.119,191.678 293.107,185.849 293.093,178.83 293.685,177.435 294.333,176.249 294.461,176.059 293.734,175.588 293.086,174.985 293.082,172.95 293.056,160.052 293.004,134.254 292.978,121.355 292.957,110.887 294.083,108.422 294.224,108.178 294.187,108.169 292.951,107.702 292.901,82.6588 292.875,69.76 292.797,31.0636 292.771,18.1648 304.525,18.0893 316.278,18.0137 328.031,17.9382 339.784,17.8626 351.538,17.787 363.291,17.7115 375.044,17.6359 382.773,17.5862 385.314,19.4514 385.618,18.7864 386.245,18.0583 386.9,17.5597 410.304,17.4092 422.057,17.3337 433.81,17.2581 445.564,17.1826 457.317,17.107 469.07,17.0314 480.823,16.9559 " fill="none" stroke-width="0.5" stroke="rgb(0,0,0)" />
	<polygon points="318.921,422.758 318.975,422.935 319.305,424.387 319.39,424.797 319.443,425.083 319.939,425.471 320.805,426.206 320.96,426.36 321.382,426.008 322.141,425.429 322.842,424.944 323.483,424.555 323.104,421.809 323.104,421.379 " fill="none" stroke-width="0.5" stroke="rgb(0,0,0)" />
	<polygon points="107.374,168.204 110.336,170.837 111.421,171.955 111.727,172.32 111.917,172.112 110.907,171.188 109.432,169.524 108.125,167.695 " fill="none" stroke-width="0.5" stroke="rgb(0,0,0)" />
	<polygon points="423.314,148.525 425.965,149.308 427.922,150.106 428.118,150.21 428.071,149.454 427.18,149.063 425.3,147.995 424.523,147.443 " fill="none" stroke-width="0.5" stroke="rgb(0,0,0)" />
	<polygon points="186.596,116.897 186.686,116.869 186.646,116.822 " fill="none" stroke-width="0.5" stroke="rgb(0,0,0)" />
</svg>
