<?xml version="1.0" standalone="no" ?>
<!DOCTYPE svg PUBLIC "-//W3C//DTD SVG 1.1//EN" "http://www.w3.org/Graphics/SVG/1.1/DTD/svg11.dtd">
<svg width="500px" height="500px" xmlns="http://www.w3.org/2000/svg" version="1.1" >
	<polygon points="461.373,280.74 460.607,294.391 458.333,308.748 454.46,324.036 448.957,339.914 441.81,356.061 433.017,372.172 422.578,387.958 410.498,403.141 396.781,417.454 381.424,430.646 364.415,442.476 345.727,452.709 325.312,461.113 303.105,467.447 279.025,471.453 252.976,472.856 227.606,471.533 204.028,467.739 182.202,461.724 162.068,453.721 143.578,443.947 126.7,432.614 111.416,419.931 97.7221,406.114 85.6253,391.387 75.1371,375.985 66.2703,360.153 59.036,344.148 53.4398,328.238 49.4788,312.703 47.1359,297.835 46.3405,283.371 46.3405,38.877 50.0231,38.8487 61.5148,38.7606 61.5148,38.7606 73.0065,38.6724 84.4982,38.5842 95.9898,38.496 95.9898,38.496 107.482,38.4079 118.973,38.3197 130.465,38.2315 141.957,38.1433 153.448,38.0552 164.94,37.967 176.432,37.8788 187.923,37.7906 191.269,37.765 191.257,43.9241 191.206,69.7217 191.206,69.7217 191.18,82.6205 191.129,108.418 191.129,108.418 191.104,121.317 191.053,147.114 191.053,147.114 191.028,160.013 191.002,172.912 191.002,172.912 190.977,185.811 190.951,198.71 190.926,211.608 190.926,211.608 190.9,224.507 190.901,224.696 190.988,235.99 190.99,236.136 191.154,246.953 191.16,247.217 191.457,257.523 191.473,257.928 191.958,267.69 191.995,268.262 192.723,277.446 192.8,278.222 193.826,286.795 193.977,287.818 195.357,295.747 195.636,297.071 197.425,304.322 197.92,305.999 200.174,312.539 201.019,314.598 203.793,320.393 205.16,322.794 208.509,327.81 210.559,330.38 214.539,334.585 217.299,336.998 221.964,340.358 225.217,342.252 230.623,344.733 233.965,345.912 240.168,347.481 243.225,348 250.279,348.624 251.947,329.779 253.249,348.654 260.509,348.153 263.582,347.693 269.929,346.215 273.352,345.074 278.847,342.656 282.23,340.743 286.936,337.422 289.822,334.926 293.8,330.737 295.93,328.057 299.243,323.039 300.639,320.541 303.349,314.729 304.19,312.607 306.358,306.037 306.836,304.331 308.525,297.042 308.784,295.715 310.055,287.742 310.189,286.735 311.105,278.115 311.169,277.369 311.792,268.14 311.821,267.607 312.212,257.804 312.223,257.445 312.445,247.106 312.449,246.895 312.564,236.055 312.565,235.969 312.635,224.666 312.635,224.507 312.609,211.608 312.583,198.709 312.557,185.81 312.532,172.911 312.532,172.911 312.506,160.013 312.454,134.215 312.454,134.215 312.428,121.316 312.351,82.6199 312.351,82.6198 312.325,69.7211 312.26,37.49 316.403,37.4633 328.156,37.3878 339.909,37.3122 363.416,37.1611 375.169,37.0855 386.922,37.01 410.429,36.8588 422.182,36.7833 433.935,36.7077 445.689,36.6322 457.442,36.5566 461.373,36.5313 " fill="none" stroke-width="0.5" stroke="rgb(0,0,0)" />
</svg>
