<?xml version="1.0" standalone="no" ?>
<!DOCTYPE svg PUBLIC "-//W3C//DTD SVG 1.1//EN" "http://www.w3.org/Graphics/SVG/1.1/DTD/svg11.dtd">
<svg width="500px" height="500px" xmlns="http://www.w3.org/2000/svg" version="1.1" >
	<polygon points="471.673,91.5254 468.828,93.5825 468.903,93.598 470.509,94.0849 471.673,94.5584 471.673,281.029 470.862,295.488 468.433,310.823 464.336,326.993 458.549,343.691 451.056,360.62 441.849,377.49 430.92,394.017 418.263,409.925 403.871,424.942 387.737,438.802 369.845,451.246 350.175,462.017 328.696,470.859 305.37,477.511 280.151,481.708 252.985,483.171 226.516,481.79 201.835,477.818 178.921,471.504 157.746,463.087 138.286,452.8 120.525,440.874 104.453,427.538 90.068,413.023 77.3723,397.567 66.3703,381.411 57.0672,364.799 49.4671,347.985 43.5719,331.225 39.3792,314.781 36.8801,298.922 36.0405,283.654 36.0405,28.6557 38.4524,28.6372 49.9441,28.549 61.4358,28.4609 72.9275,28.3727 95.9108,28.1963 95.9108,28.1963 107.402,28.1082 118.894,28.02 130.386,27.9318 141.878,27.8436 153.369,27.7555 164.861,27.6673 176.353,27.5791 187.844,27.4909 201.589,27.3855 201.582,31.0456 201.582,31.0456 201.556,43.9444 201.531,56.8432 201.506,69.742 201.506,69.742 201.48,82.6408 201.429,108.438 201.429,108.438 201.404,121.337 201.353,147.135 201.353,147.135 201.328,160.034 201.302,172.932 201.302,172.932 201.277,185.831 201.251,198.73 201.226,211.629 201.2,224.528 201.201,224.616 201.288,235.911 201.289,235.979 201.453,246.796 201.456,246.921 201.753,257.227 201.76,257.417 202.245,267.179 202.262,267.448 202.99,276.632 203.027,276.997 204.053,285.57 204.124,286.052 205.504,293.98 205.635,294.603 207.425,301.854 207.658,302.643 209.912,309.182 210.309,310.151 213.083,315.945 213.727,317.075 217.076,322.091 218.04,323.3 222.019,327.505 223.318,328.64 227.983,332 229.513,332.891 234.92,335.372 236.492,335.927 242.695,337.496 244.133,337.74 251.187,338.364 251.833,331.072 252.07,331.563 252.54,338.378 259.801,337.878 261.246,337.661 267.593,336.183 269.203,335.647 274.699,333.228 276.29,332.329 280.996,329.007 282.354,327.833 286.332,323.644 287.334,322.383 290.647,317.364 291.304,316.19 294.013,310.377 294.409,309.379 296.577,302.81 296.802,302.007 298.49,294.718 298.612,294.093 299.883,286.121 299.946,285.647 300.862,277.027 300.893,276.676 301.515,267.446 301.529,267.196 301.92,257.393 301.926,257.224 302.148,246.885 302.149,246.785 302.264,235.946 302.265,235.905 302.335,224.602 302.335,224.527 302.309,211.628 302.283,198.73 302.257,185.831 302.232,172.932 302.206,160.033 302.154,134.236 302.154,134.236 302.128,121.337 302.051,82.6405 302.051,82.6405 302.025,69.7417 301.947,31.0453 301.947,31.0453 301.94,27.2561 304.583,27.2391 316.337,27.1635 328.09,27.088 339.843,27.0124 351.596,26.9369 363.35,26.8613 375.103,26.7857 386.856,26.7102 410.363,26.559 422.116,26.4835 433.869,26.4079 445.622,26.3324 457.376,26.2568 469.129,26.1812 471.673,26.1649 " fill="none" stroke-width="0.5" stroke="rgb(0,0,0)" />
	<polygon points="307.02,468.375 307.385,468.481 307.993,468.743 307.972,468.689 307.616,467.498 " fill="none" stroke-width="0.5" stroke="rgb(0,0,0)" />
	<polygon points="194.1,444.486 194.419,445.725 194.636,445.773 196.091,446.006 197.487,446.151 198.573,446.194 200.022,446.114 201.33,445.884 202.418,445.528 203.222,445.102 203.787,444.636 203.893,444.499 203.002,444.566 201.603,444.563 195.385,444.074 193.875,443.823 " fill="none" stroke-width="0.5" stroke="rgb(0,0,0)" />
	<polygon points="317.113,421.827 317.19,422.031 317.561,423.257 317.891,424.709 317.965,425.062 318.122,425.908 318.426,426.127 319.001,426.576 319.867,427.312 320.89,428.33 320.907,428.349 321.14,428.126 321.602,427.712 322.311,427.121 322.967,426.621 323.667,426.136 324.608,425.565 325.172,425.268 324.896,424.287 324.554,421.809 324.554,419.375 " fill="none" stroke-width="0.5" stroke="rgb(0,0,0)" />
	<polygon points="167.755,413.405 167.761,414.739 167.538,417.995 168.891,417.94 169.126,416.715 169.222,416.396 170.077,414.426 170.235,414.156 170.477,413.837 168.829,412.973 168.114,412.556 167.666,412.267 " fill="none" stroke-width="0.5" stroke="rgb(0,0,0)" />
	<polygon points="259.906,405.798 261.391,406.538 260.092,405.34 " fill="none" stroke-width="0.5" stroke="rgb(0,0,0)" />
	<polygon points="205.221,391.518 205.649,391.069 205.51,391.068 204.994,391.011 " fill="none" stroke-width="0.5" stroke="rgb(0,0,0)" />
	<polygon points="82.9489,369.029 82.0804,369.091 82.1184,369.187 82.3896,370.979 82.4212,370.95 83.6082,370.055 83.8743,369.886 83.2644,369.258 83.068,369.014 " fill="none" stroke-width="0.5" stroke="rgb(0,0,0)" />
	<polygon points="390.785,345.759 389.949,346.006 389.706,346.026 389.912,346.61 391.099,345.615 " fill="none" stroke-width="0.5" stroke="rgb(0,0,0)" />
	<polygon points="60.3687,341.433 61.0216,342.483 61.2913,341.665 61.5849,341.014 60.9743,340.838 60.2643,340.577 " fill="none" stroke-width="0.5" stroke="rgb(0,0,0)" />
	<polygon points="158.11,339.412 156.585,340.59 156.472,340.66 156.577,340.724 157.671,341.502 158.478,342.17 158.498,341.868 158.677,340.104 158.779,339.386 158.914,338.644 " fill="none" stroke-width="0.5" stroke="rgb(0,0,0)" />
	<polygon points="415.897,338.674 415.905,339.372 416.355,339.411 415.888,338.501 " fill="none" stroke-width="0.5" stroke="rgb(0,0,0)" />
	<polygon points="165.966,327.186 166.505,326.937 166.168,326.427 " fill="none" stroke-width="0.5" stroke="rgb(0,0,0)" />
	<polygon points="75.9949,315.877 75.7247,318.379 75.7337,318.698 76.7606,317.583 78.0794,316.404 79.379,315.451 78.8461,315.105 77.417,313.964 76.6813,313.245 " fill="none" stroke-width="0.5" stroke="rgb(0,0,0)" />
	<polygon points="161.202,300.379 160.524,300.469 161.339,302.096 161.614,300.389 161.639,300.276 " fill="none" stroke-width="0.5" stroke="rgb(0,0,0)" />
	<polygon points="161.961,252.996 162.134,253.707 162.499,255.518 162.577,255.959 162.813,257.522 162.862,257.353 164.608,254.045 164.889,253.705 162.544,253.146 161.831,252.542 " fill="none" stroke-width="0.5" stroke="rgb(0,0,0)" />
	<polygon points="91.0462,217.502 91.298,218.27 91.6055,219.482 91.6307,219.62 92.6225,219.299 93.3515,219.177 96.1417,219.14 96.7855,219.23 98.5407,219.735 98.6572,218.958 99.0391,217.278 98.1348,217.378 96.1185,217.376 92.9292,217.02 90.877,216.547 90.6048,216.45 " fill="none" stroke-width="0.5" stroke="rgb(0,0,0)" />
	<polygon points="433.09,215.979 432.261,216.138 430.939,216.329 432.578,217.689 433.361,218.504 433.417,218.403 435.489,215.402 " fill="none" stroke-width="0.5" stroke="rgb(0,0,0)" />
	<polygon points="107.917,166.093 106.468,167.074 105.282,167.721 104.65,167.99 105.436,168.523 106.374,169.255 109.373,171.921 110.309,172.886 111.811,174.68 112.791,173.306 113.966,172.019 111.885,170.118 110.612,168.682 108.449,165.653 " fill="none" stroke-width="0.5" stroke="rgb(0,0,0)" />
	<polygon points="423.601,146.322 420.86,148.774 420.33,149.155 425.554,150.699 427.243,151.387 430.167,152.936 429.578,150.88 429.47,148.483 429.442,148.473 427.763,147.735 426.14,146.814 424.78,145.846 424.34,145.439 " fill="none" stroke-width="0.5" stroke="rgb(0,0,0)" />
	<polygon points="357.106,143.443 357.728,143.443 357.162,142.948 357.154,142.939 " fill="none" stroke-width="0.5" stroke="rgb(0,0,0)" />
	<polygon points="312.331,128.249 311.912,128.804 311.678,129.25 311.337,130.328 311.246,130.48 311.904,130.585 312.839,130.632 312.991,130.628 313.383,130.597 313.552,130.579 313.435,130.308 313.306,129.934 312.977,128.711 312.901,128.325 312.829,127.772 " fill="none" stroke-width="0.5" stroke="rgb(0,0,0)" />
	<polygon points="185.903,115.2 185.567,115.846 184.425,117.542 183.974,118.073 182.23,119.658 181.656,120.057 179.505,121.165 178.801,121.416 177.066,121.81 177.439,122.779 178.71,121.895 179.829,121.23 182.95,119.664 184.38,119.091 187.601,118.106 189.334,117.755 189.336,117.755 186.822,114.786 186.523,114.413 186.331,114.161 " fill="none" stroke-width="0.5" stroke="rgb(0,0,0)" />
	<polygon points="90.881,118.556 89.564,119.412 87.2258,120.659 84.6884,121.562 82.7992,121.935 82.8421,122.687 83.6423,122.347 84.9512,121.938 86.7571,121.567 88.1602,121.424 90.0142,121.424 91.4192,121.567 92.8379,121.857 92.5126,119.425 92.4883,119.227 92.2909,117.458 " fill="none" stroke-width="0.5" stroke="rgb(0,0,0)" />
	<polygon points="416.998,66.5242 418.429,67.3931 419.496,67.7945 416.488,66.0146 416.232,65.9086 " fill="none" stroke-width="0.5" stroke="rgb(0,0,0)" />
	<polygon points="102.826,65.304 102.598,65.4927 100.817,66.9206 100.241,67.3292 101.639,66.8446 103.809,66.6281 103.799,66.5161 103.776,66.1331 103.71,64.5474 " fill="none" stroke-width="0.5" stroke="rgb(0,0,0)" />
	<polygon points="398.858,38.4035 399.394,39.691 400.034,39.4213 402.6,38.535 401.752,38.2136 398.2,37.2033 " fill="none" stroke-width="0.5" stroke="rgb(0,0,0)" />
</svg>
