<?xml version="1.0" standalone="no" ?>
<!DOCTYPE svg PUBLIC "-//W3C//DTD SVG 1.1//EN" "http://www.w3.org/Graphics/SVG/1.1/DTD/svg11.dtd">
<svg width="500px" height="500px" xmlns="http://www.w3.org/2000/svg" version="1.1" >
	<polygon points="480.823,28.0029 480.487,28.3226 479.872,29.0924 479.376,29.9011 479.008,30.6924 478.775,31.386 478.672,31.8648 478.66,32.0011 478.797,33.7908 479.207,35.7839 479.89,38.1937 480.745,41.0381 480.797,41.2217 480.823,41.3196 480.823,73.4693 478.35,79.3208 477.431,80.842 472.115,87.3139 470.956,88.4037 463.923,93.488 462.812,94.1276 457.143,96.6506 457.868,96.8587 459.158,97.3927 460.031,97.8754 460.208,98.003 461.624,96.5987 465.823,95.9772 468.309,96.4877 469.398,96.8176 471.493,97.6696 472.618,98.2685 474.341,99.4276 475.362,100.287 476.73,101.718 477.522,102.741 478.555,104.41 479.074,105.46 479.79,107.333 480.073,108.308 480.489,110.349 480.602,111.204 480.737,113.379 480.675,114.713 479.925,119.545 479.466,121.108 478.003,124.409 479.034,124.983 480.753,126.396 480.823,126.479 480.823,186.256 479.768,188.429 477.678,190.848 476.099,191.922 471.132,192.817 467.798,191.998 466.891,191.633 467.657,192.149 468.159,192.525 472.528,196.156 473.172,196.774 477.174,201.216 477.859,202.135 480.823,206.99 480.823,241.523 477.399,247.353 477.091,247.826 472.907,253.661 472.831,253.766 471.765,255.187 472.726,254.985 474.647,254.885 476.116,255.038 477.553,255.364 478.812,255.812 480.253,256.55 480.823,256.943 480.823,281.286 480.345,289.811 480.298,289.892 478.105,293.298 477.714,293.84 475.136,297.029 474.635,297.578 471.677,300.452 470.042,301.316 471.381,303.069 471.95,303.962 473.866,307.63 474.23,308.475 475.674,312.655 475.895,313.47 476.47,316.358 473.11,329.62 467.07,347.047 459.27,364.67 457.443,368.017 456.901,368.552 453.833,370.206 450.357,369.943 447.573,367.846 446.436,365.2 445.348,358.921 443.272,355.642 439.952,353.058 436.968,351.562 437.018,351.607 440.933,355.955 441.722,357.052 444.77,362.443 445.301,363.68 447.279,370.142 447.524,371.381 448.228,378.943 448.176,380.502 447.326,385.796 438.331,399.399 425.161,415.952 410.17,431.593 403.502,437.321 403.298,437.345 401.782,437.09 400.163,436.582 398.67,435.877 397.588,435.224 396.174,434.158 395.43,433.498 394.148,432.163 393.849,431.804 394.174,433.114 394.339,434.139 394.587,437.417 394.512,438.956 393.398,445.309 393.098,446.219 374.668,459.037 354.126,470.285 331.702,479.516 327.265,480.782 327.147,480.771 325.996,480.559 322.877,479.673 321.724,479.217 319.061,477.84 317.999,477.145 315.8,475.359 314.907,474.468 313.181,472.354 312.499,471.324 311.255,468.965 310.798,467.846 310.046,465.323 309.816,464.15 309.563,461.544 309.547,460.54 309.789,456.856 309.833,456.504 309.65,457.082 309.431,457.669 307.397,462.374 306.835,463.398 304.068,467.47 302.731,468.893 299.816,471.145 300.071,471.106 300.764,470.996 301.051,470.958 301.767,470.878 302.233,470.845 303.097,470.815 303.807,470.831 304.678,470.9 305.899,471.123 306.568,471.315 308.002,471.932 308.495,472.223 309.853,473.306 310.198,473.671 311.154,474.998 311.376,475.412 311.872,476.632 311.999,477.071 312.189,477.994 312.245,478.433 312.293,479.028 312.306,479.443 312.094,481.253 311.696,482.726 310.572,484.957 309.973,485.713 307.382,486.452 281.151,490.817 270.038,491.415 268.549,490.561 267.714,489.986 265.888,488.495 265.145,487.777 264.157,486.649 261.924,487.787 261.576,487.951 257.411,489.757 257.049,489.9 252.624,491.497 252.237,491.623 250.265,492.191 225.548,490.902 199.887,486.773 186.426,483.063 185.189,482.298 184.861,482.08 180.102,478.699 176.075,475.87 172.821,474.04 170.633,473.409 167.469,473.096 163.301,472.865 162.924,472.833 158.172,472.277 157.355,472.125 153.304,471.089 139.112,463.586 138.314,463.033 137.535,462.392 130.899,455.958 129.179,452.926 129.355,449.656 127.387,449.833 126.163,449.822 115.756,448.693 115.039,448.212 98.2672,434.295 83.2685,419.161 72.7896,406.404 72.1044,400.92 72.0762,399.658 72.4226,395.32 71.1733,395.822 67.7491,395.17 66.1273,393.972 64.3206,392.113 61.0315,389.827 58.5824,386.23 48.8916,368.927 40.9666,351.394 35.5527,336.002 36.0063,331.717 36.2507,330.531 39.219,320.97 39.572,320.082 43.7595,311.531 43.7299,311.545 41.6135,312.117 38.1338,312.047 36.1647,311.427 33.6418,309.897 31.8233,308.079 30.7805,306.693 29.1471,303.737 28.7228,302.789 27.8215,300.218 27.7694,299.888 26.8905,283.906 26.8905,244.648 27.1728,243.263 27.2968,242.762 28.743,237.813 29.0091,237.078 30.6708,233.26 31.3903,232.021 33.2288,229.563 34.3139,228.7 33.2306,228.425 30.9988,227.53 29.4835,226.657 27.5665,225.156 26.8905,224.467 26.8905,197.34 27.5017,197.225 27.5547,197.247 26.9888,194.725 26.8905,194.05 26.8905,186.847 26.8991,186.797 27.5789,185.405 27.1147,184.763 26.8905,184.392 26.8905,174.65 27.0524,174.204 27.5104,171.795 28.1414,168.2 28.2152,167.842 29.1913,163.725 29.3882,163.061 30.9603,158.679 31.3577,157.795 33.7842,153.362 34.4501,152.382 37.9895,148.113 38.913,147.211 38.9633,147.171 38.2587,147.105 37.0976,146.883 34.5622,146.143 33.444,145.694 31.1577,144.508 30.1326,143.84 28.1469,142.246 27.263,141.378 26.8905,140.93 26.8905,114.101 27.2258,113.711 28.822,112.117 29.5461,111.498 31.4655,110.096 32.2546,109.606 34.5075,108.431 37.9265,107.752 40.8682,108.907 41.1967,107.784 41.5342,106.939 41.1173,107.057 37.0923,107.801 35.5967,107.893 34.9044,107.851 34.0696,107.744 33.4361,107.619 32.4637,107.342 31.8993,107.13 30.8153,106.598 30.3304,106.299 29.235,105.437 28.8399,105.047 27.9066,103.869 27.6116,103.387 26.9961,102.042 26.8905,101.712 26.8905,96.5747 28.0411,93.0412 28.7656,91.5399 32.1492,86.4254 32.5187,85.9236 32.5358,85.9027 30.4788,85.9852 29.8799,85.8916 27.9187,85.2359 27.4255,84.9727 26.8905,84.5707 26.8905,63.0653 27.4653,62.3431 28.1687,61.6045 28.933,60.9244 29.2199,60.7087 28.4665,60.5494 26.8905,59.6743 26.8905,44.2455 27.7369,43.4172 28.4105,42.846 32.3011,39.9968 32.6026,39.7894 37.0626,36.9113 37.1447,36.8593 40.9511,34.4867 39.3722,34.0959 39.3393,34.0877 35.0399,32.9985 34.6994,32.9018 30.9489,31.7202 30.0142,31.3396 27.3613,29.9981 26.8905,29.5732 26.8905,19.5757 38.3822,19.4875 49.8739,19.3993 61.3656,19.3111 72.8572,19.223 78.2046,19.1819 80.2737,21.294 80.8545,22.3536 80.8234,22.2008 81.4788,19.903 81.7699,19.3324 81.9325,19.1533 84.3489,19.1348 95.8406,19.0466 107.332,18.9584 113.565,18.9106 115.154,20.6804 115.302,20.851 116.555,22.3529 117.325,23.0716 117.79,23.3114 118.804,23.4574 119.768,23.3196 120.294,23.0568 121.147,22.3064 122.484,20.8323 122.643,20.6626 124.339,18.9277 124.456,18.827 130.316,18.7821 141.807,18.6939 153.299,18.6057 154.611,18.5957 154.776,18.7537 155.015,19.1458 155.92,22.5119 155.378,24.9121 155.011,25.7311 152.921,28.2638 151.952,28.9454 150.997,29.4972 149.627,30.1336 149.489,30.1957 148.972,30.421 149.574,30.8677 152.179,32.4947 154.416,33.8477 154.177,33.1675 154.453,28.3887 155.506,26.2315 157.451,23.9225 160.365,21.8204 161.457,21.1907 165.866,19.2154 166.507,18.97 167.993,18.493 176.282,18.4294 187.774,18.3412 210.757,18.1648 210.741,26.4204 208.909,28.4304 206.559,30.0062 205.923,30.3618 207.288,30.452 208.037,30.5476 209.208,30.7702 210.495,31.1637 210.732,31.265 210.706,43.9624 210.684,55.4324 208.97,56.0846 207.953,56.2656 206.011,56.3024 204.415,56.08 204.649,56.334 209.201,61.5528 209.703,62.2125 210.668,63.6736 210.656,69.76 210.63,82.6588 210.629,83.0945 210.311,83.3059 209.271,83.8622 208.401,84.2259 207.388,84.5506 206.385,84.7793 205.442,84.9192 204.313,84.9986 203.25,84.982 199.269,84.5767 198.519,84.4536 195.099,83.6741 198.128,85.8594 198.303,85.9903 203.106,89.719 203.27,89.8513 207.566,93.4265 207.775,93.6091 210.603,96.1864 210.579,108.456 210.554,121.355 210.552,122.078 209.724,122.795 208.559,123.559 206.462,124.438 206.452,124.44 207.498,125.167 208.598,126.145 210.54,128.339 210.503,147.153 210.478,160.052 210.468,164.66 210.452,164.672 210.468,164.748 210.457,170.71 210.298,171.331 209.336,174.116 208.92,175.057 207.532,177.606 206.942,178.497 205.16,180.739 204.379,181.557 202.237,183.422 201.255,184.122 198.786,185.542 197.622,186.06 197.56,186.08 198.248,186.313 201.01,187.525 202.025,188.088 204.423,189.732 205.381,190.542 207.354,192.588 208.173,193.645 209.659,196.062 210.247,197.315 210.403,197.774 210.401,198.748 210.376,211.647 210.374,212.715 210.35,212.786 210.202,213.177 209.61,214.596 209.458,214.931 208.774,216.331 208.623,216.621 207.861,217.992 207.711,218.247 206.886,219.579 204.291,221.906 203.405,222.05 204.788,223.097 205.256,223.489 207.993,226.021 208.441,226.481 210.382,228.692 210.438,235.84 210.602,246.657 210.899,256.963 211.055,260.101 209.332,262.345 209.194,262.518 206.976,265.202 205.334,267.386 204.571,268.812 204.444,269.456 204.574,270.121 205.135,271.031 206.592,272.505 208.846,274.403 208.953,274.496 211.423,276.674 211.997,277.251 212.317,277.619 213.138,284.482 214.519,292.41 215.944,298.182 215.323,299.7 215.118,300.125 216.065,300.007 216.499,300.215 218.563,306.2 221.336,311.994 224.685,317.011 228.665,321.215 233.33,324.575 238.737,327.056 244.939,328.626 247.081,328.815 247.778,329.738 248.416,330.78 249.925,333.905 250.312,334.929 251.226,338.189 251.401,339.04 251.696,341.243 256.006,333.159 256.653,332.181 259.481,328.677 265.518,327.271 271.013,324.853 275.719,321.532 279.698,317.343 283.01,312.324 283.744,310.751 285.995,310.041 285.111,309.33 284.816,308.451 285.72,306.511 287.888,299.942 288.067,299.169 288.118,299.115 288.897,298.133 289.522,297.138 290.025,296.059 290.42,294.793 290.693,293.232 290.802,291.213 290.775,290.265 290.696,289.21 290.574,288.083 290.456,287.135 290.848,284.68 291.763,276.06 292.019,272.269 292.558,271.417 293.422,270.34 294.286,269.479 295.441,268.573 296.453,267.958 297.769,267.355 298.912,266.986 300.213,266.716 300.896,266.649 299.961,266.084 299.133,265.484 295.045,261.976 293.834,260.569 292.708,258.777 292.778,257.028 293,246.688 293.115,235.848 293.154,229.497 294.306,227.017 294.421,226.782 296.054,223.62 296.861,222.775 295.493,221.642 294.672,220.821 293.448,219.342 293.174,218.939 293.159,211.647 293.137,200.831 293.446,200.376 294.669,198.896 295.489,198.076 296.967,196.849 297.937,196.188 299.627,195.258 300.494,194.887 299.714,194.107 298.858,193.071 298.194,192.09 297.547,190.903 297.073,189.786 296.663,188.476 296.413,187.254 296.27,185.85 296.27,184.593 296.413,183.191 296.664,181.968 297.074,180.66 297.548,179.542 298.195,178.356 298.859,177.376 299.715,176.341 300.545,175.511 301.58,174.656 302.147,174.272 300.005,174.157 298.52,173.525 296.728,172.363 295.316,171.052 294.418,170.01 293.117,168.109 293.072,168.031 293.056,160.052 293.004,134.254 292.999,131.828 294.071,130.157 296.275,128.241 296.244,128.148 296.169,127.903 295.961,127.179 295.892,126.919 295.713,126.174 295.652,125.895 295.506,125.134 295.456,124.833 295.346,124.059 295.308,123.732 295.24,122.951 295.219,122.595 295.195,121.809 295.214,121.096 295.465,118.153 295.639,117.127 296.408,114.152 296.771,113.127 298.085,110.25 298.675,109.228 300.561,106.58 301.412,105.616 303.897,103.328 304.995,102.521 308.106,100.725 309.36,100.175 310.776,99.733 310.733,99.5618 310.646,99.1708 310.515,98.4696 310.458,98.1044 310.255,96.4986 310.196,96.0396 309.313,96.8199 309.273,96.8548 306.871,98.9414 306.676,99.1037 304.399,100.924 303.9,101.284 301.913,102.571 300.427,103.275 298.897,103.763 296.966,104.057 296.73,104.055 296.386,104.043 296.194,104.031 295.27,103.902 295.119,103.869 293.411,103.224 293.297,103.16 292.941,102.854 292.912,88.384 293.399,87.4385 293.474,87.2988 295.075,84.3759 296.635,81.521 296.864,81.0726 296.093,80.9898 295.701,80.9351 293.798,80.6068 292.896,80.3485 292.875,69.76 292.863,63.9725 292.999,63.8693 293.248,63.6887 295.386,62.2227 296.769,61.2378 296.6,61.1576 294.571,60.2426 294.187,60.0529 292.854,59.3372 292.823,43.7005 293.844,43.1228 294.023,43.0251 295.924,42.0303 296.665,41.6243 295.593,39.9739 293.646,37.1205 293.623,37.0869 292.807,35.8742 292.797,31.0636 292.771,18.1648 300.447,18.1155 301.112,18.3939 301.556,18.601 304.842,20.2935 304.968,20.3604 308.416,22.238 309.713,22.9227 309.748,21.9614 309.787,21.4605 309.898,20.5255 309.992,19.9611 310.164,19.1542 310.344,18.4956 310.491,18.0509 316.278,18.0137 326.64,17.9471 327.436,18.7495 327.635,18.9234 328.966,18.5383 330.715,17.9209 339.784,17.8626 351.538,17.787 363.291,17.7115 373.3,17.6471 378.382,19.979 379.465,20.6161 385.675,25.1744 386.661,26.0769 387.947,27.5386 387.528,26.6429 387.986,23.1875 388.954,21.6553 389.581,20.9272 391.636,19.3624 393.397,18.5318 394.15,18.2351 396.448,17.4983 410.304,17.4092 422.057,17.3337 433.81,17.2581 438.016,17.2311 438.045,17.2433 440.689,18.6713 441.926,19.5504 443.951,21.4021 445.177,22.948 445.777,24.0186 446.002,23.4461 447.074,21.3594 447.78,20.2784 449.222,18.507 450.149,17.5863 450.693,17.1496 457.317,17.107 469.07,17.0314 480.823,16.9559 " fill="none" stroke-width="0.5" stroke="rgb(0,0,0)" />
	<polygon points="188.957,439.68 190.943,444.339 191.243,445.223 192.003,448.169 192.589,448.342 194.084,448.672 195.704,448.932 197.277,449.095 198.596,449.147 200.36,449.05 202.049,448.753 203.576,448.253 204.867,447.569 205.919,446.703 206.792,445.572 207.518,443.978 208.115,441.225 202.782,441.624 201.834,441.622 195.616,441.133 194.567,440.959 189.37,439.631 188.835,439.441 " fill="none" stroke-width="0.5" stroke="rgb(0,0,0)" />
	<polygon points="161.06,430.97 160.508,432.045 157.509,436.703 156.63,437.78 152.435,441.88 151.251,442.787 146.082,445.835 148.427,445.685 152.399,444.835 155.525,443.56 157.889,441.965 159.637,440.084 160.902,437.838 161.716,435.091 162.033,431.531 162.03,431.321 162.012,430.846 161.984,430.341 161.946,429.814 161.899,429.269 161.866,428.933 " fill="none" stroke-width="0.5" stroke="rgb(0,0,0)" />
	<polygon points="326.845,415.358 325.611,415.92 316.106,419.053 314.796,419.333 312.581,419.559 313.133,420.307 313.939,421.783 314.433,423.081 314.685,423.911 315.015,425.364 315.064,425.603 315.319,426.969 315.478,427.642 315.763,427.845 315.795,427.867 316.702,428.521 317.092,428.825 317.958,429.561 318.651,430.251 319.385,431.105 320.22,432.36 320.558,433.032 320.64,432.933 321.362,432.106 321.523,431.929 322.242,431.166 322.465,430.941 323.18,430.257 323.493,429.977 324.202,429.385 324.646,429.047 325.347,428.562 325.984,428.175 326.675,427.811 327.584,427.42 328.262,427.192 329.262,426.966 328.085,424.729 327.736,423.488 327.504,421.809 327.504,414.965 " fill="none" stroke-width="0.5" stroke="rgb(0,0,0)" />
	<polygon points="243.746,411.754 242.967,416.73 242.439,418.439 240.233,423.069 239.427,424.338 238.039,426.028 239.793,424.348 242.723,420.373 244.859,416.038 246.236,411.192 246.166,411.191 245.228,411.055 243.815,410.667 " fill="none" stroke-width="0.5" stroke="rgb(0,0,0)" />
	<polygon points="377.643,417.615 377.642,417.76 377.625,418.484 377.607,418.829 377.596,418.967 379.506,418.452 381.076,418.636 382.382,418.934 384.014,419.499 385.175,420.04 386.787,421.006 387.8,421.764 389.306,423.151 389.977,423.908 389.785,422.421 389.746,421.241 389.775,420.768 389.902,419.851 390.009,419.35 390.132,418.955 388.988,418.833 387.869,418.608 384.309,417.544 383.433,417.208 380.095,415.628 379.383,415.232 377.643,414.109 " fill="none" stroke-width="0.5" stroke="rgb(0,0,0)" />
	<polygon points="164.814,413.634 164.818,414.538 164.497,419.222 164.374,420.099 163.866,422.469 164.692,421.573 168.064,420.691 170.597,421.313 171.934,421.964 171.732,420.684 171.68,419.172 171.713,418.804 171.951,417.564 172.047,417.245 172.627,415.91 172.784,415.64 173.713,414.421 173.93,414.199 175.06,413.288 175.335,413.116 175.678,412.946 173.343,411.98 172.835,411.742 170.199,410.361 169.714,410.078 167.287,408.511 166.8,408.162 164.643,406.454 164.226,406.085 " fill="none" stroke-width="0.5" stroke="rgb(0,0,0)" />
	<polygon points="257.95,398 258.081,398.908 258.138,399.731 258.125,400.74 258.029,401.751 257.801,402.93 257.525,403.86 257.064,404.992 256.625,405.826 255.943,406.854 255.663,407.197 257.395,407.87 257.916,408.101 260.776,409.528 261.178,409.749 263.961,411.405 264.297,411.62 266.915,413.416 267.222,413.641 269.586,415.487 269.9,415.748 271.922,417.554 272.286,417.907 272.663,418.302 272.698,418.294 272.97,418.241 274.255,418.02 274.513,417.981 275.847,417.808 276.092,417.782 277.475,417.658 277.706,417.642 279.138,417.568 279.355,417.56 280.837,417.536 281.085,417.536 283.216,417.586 283.493,417.599 285.696,417.749 285.872,417.765 279.593,415.711 278.364,415.154 269.757,410.06 268.71,409.28 261.608,402.725 260.794,401.807 257.914,397.833 " fill="none" stroke-width="0.5" stroke="rgb(0,0,0)" />
	<polygon points="348.834,394.975 348.262,395.929 345.187,400.151 347.722,399.711 348.438,399.629 352.946,399.377 353.515,399.371 357.308,399.508 357.802,399.546 361.273,399.95 361.853,400.045 364.945,400.707 365.655,400.904 367.546,401.552 367.529,401.484 367.757,398.486 363.039,399.543 360.297,399.535 359.147,399.271 357.041,398.35 355.964,397.616 354.791,396.576 353.812,395.457 353.172,394.581 352.316,393.164 351.937,392.432 351.228,390.802 351.063,390.356 " fill="none" stroke-width="0.5" stroke="rgb(0,0,0)" />
	<polygon points="218.079,387.05 216.878,387.277 207.062,388.149 205.834,388.135 199.466,387.433 200.078,388.259 200.546,388.993 202.383,392.378 202.766,393.232 203.908,396.397 204.211,397.604 204.263,397.967 204.29,397.921 207.11,393.751 208.539,392.255 212.494,389.305 215.004,388.192 220.689,387.073 222.361,386.974 223.406,387.055 224.124,387.152 225.372,387.397 225.672,387.471 225.575,386.823 225.492,385.804 225.492,384.869 " fill="none" stroke-width="0.5" stroke="rgb(0,0,0)" />
	<polygon points="308.593,393.048 308.13,393.184 304.917,393.993 304.349,394.108 300.641,394.681 300.012,394.745 295.77,394.962 295.02,394.955 291.506,394.709 291.064,394.647 291.585,394.895 297.509,396.497 304.328,397.088 307.658,396.95 310.659,396.554 312.33,396.158 310.942,394.227 310.687,393.395 310.624,392.364 " fill="none" stroke-width="0.5" stroke="rgb(0,0,0)" />
	<polygon points="246.453,367.415 245.826,368.458 241.759,373.924 240.873,374.886 240.606,375.119 241.872,375.765 242.757,376.357 243.775,377.209 244.518,377.98 245.004,378.589 245.204,378.58 246.1,378.605 247.346,378.73 248.623,378.997 249.032,379.128 247.823,374.669 247.632,373.6 246.978,366.308 " fill="none" stroke-width="0.5" stroke="rgb(0,0,0)" />
	<polygon points="145.638,371.195 146.674,372.001 152.174,377.308 152.974,378.252 153.068,378.389 152.596,377.284 151.278,375.244 149.494,373.29 147.169,371.431 144.234,369.703 140.997,368.315 " fill="none" stroke-width="0.5" stroke="rgb(0,0,0)" />
	<polygon points="83.6674,365.953 83.4043,365.994 82.5628,366.105 81.8174,366.158 79.5039,366.182 78.2725,366.072 77.3959,365.904 78.1791,367.043 79.2016,369.629 80.3372,377.128 81.2335,376.051 81.8749,375.388 84.3834,373.153 85.1878,372.546 87.667,370.975 88.7692,370.421 89.0493,370.314 88.8482,370.201 87.8644,369.515 86.3787,368.249 85.5648,367.411 84.3299,365.874 84.308,365.84 " fill="none" stroke-width="0.5" stroke="rgb(0,0,0)" />
	<polygon points="170.848,371.257 171.581,373.747 171.934,374.647 172.202,374.686 172.509,374.712 172.831,374.721 173.291,374.715 173.81,374.698 174.344,374.673 174.757,374.649 174.435,374.369 173.674,373.576 170.368,369.458 " fill="none" stroke-width="0.5" stroke="rgb(0,0,0)" />
	<polygon points="354.309,363.358 353.095,364.547 355.334,366.933 355.969,370.369 355.631,373.651 355.707,373.607 356.955,373.017 357.596,372.757 359.165,372.219 359.65,372.075 361.35,371.643 363.36,370.976 362.349,370.574 360.473,369.606 359.428,368.925 357.837,367.644 356.945,366.763 355.664,365.211 354.972,364.175 354.448,363.191 " fill="none" stroke-width="0.5" stroke="rgb(0,0,0)" />
	<polygon points="98.707,372.83 99.0351,373.414 99.6014,372.787 " fill="none" stroke-width="0.5" stroke="rgb(0,0,0)" />
	<polygon points="324.346,365.616 323.631,367.037 322.994,368.047 322.028,369.294 321.184,370.185 321.014,370.332 323.506,370.274 327.075,370.042 330.923,369.627 332.245,369.419 330.764,369.003 329.61,368.551 326.994,367.209 325.907,366.498 324.462,365.321 " fill="none" stroke-width="0.5" stroke="rgb(0,0,0)" />
	<polygon points="277.417,364.631 275.522,367.988 275.702,367.898 276.041,367.777 277.455,367.452 277.462,367.451 277.485,367.298 277.724,366.074 277.953,365.226 278.348,364.091 278.519,363.735 " fill="none" stroke-width="0.5" stroke="rgb(0,0,0)" />
	<polygon points="295.131,356.948 293.8,357.548 289.749,358.827 290.282,359.025 291.819,359.858 293.687,361.244 293.823,361.348 296.153,363.178 297.972,364.418 297.675,363.388 297.46,362.25 297.316,360.713 297.296,359.84 297.348,358.734 297.391,358.247 297.529,357.156 297.58,356.826 297.776,355.752 297.81,355.577 297.869,355.299 " fill="none" stroke-width="0.5" stroke="rgb(0,0,0)" />
	<polygon points="118.375,353.458 117.441,353.998 116.272,354.545 116.295,356.47 116.189,357.69 115.778,359.879 115.421,361.084 114.605,363.077 114.136,363.956 115.34,363.621 116.441,363.42 120.692,363.035 121.931,363.048 126.328,363.533 125.798,363.27 124.177,362.335 123.231,361.666 122.134,360.723 121.066,359.533 120.399,358.563 119.613,356.971 119.282,355.955 118.998,354.545 118.908,353.464 118.926,353.072 " fill="none" stroke-width="0.5" stroke="rgb(0,0,0)" />
	<polygon points="394.424,340.087 394.238,340.243 393.089,341.166 392.544,341.558 391.523,342.21 389.946,342.93 389.111,343.178 386.579,343.386 386.391,343.362 385.285,343.081 385.509,343.441 386.093,344.655 387.223,347.855 387.536,349.218 387.905,352.46 388.586,351.673 389.293,350.977 393.904,347.113 395.391,346.189 399.534,344.369 399.191,344.039 398.723,343.535 397.446,341.997 397.306,341.821 395.958,340.072 395.345,339.286 " fill="none" stroke-width="0.5" stroke="rgb(0,0,0)" />
	<polygon points="56.7199,335.883 57.5193,342.437 60.9201,347.906 62.9618,349.927 62.9397,347.769 63.0791,346.396 63.5705,344.121 63.98,342.878 64.9084,340.822 65.5089,339.777 66.07,338.989 65.6978,338.926 62.8275,338.31 61.9911,338.068 59.5224,337.162 58.472,336.66 56.7936,335.654 " fill="none" stroke-width="0.5" stroke="rgb(0,0,0)" />
	<polygon points="166.158,295.236 165.451,295.673 164.169,296.35 163.3,296.728 162.03,297.167 160.815,297.455 159.632,297.611 158.304,297.643 157.948,297.614 156.902,297.436 156.495,297.33 155.455,296.957 155.007,296.75 154.449,296.431 157.522,301.151 157.87,301.757 161.927,309.86 162.45,311.358 163.989,318.663 164.098,320.49 163.846,323.33 163.661,324.378 162.911,327.193 162.549,328.195 161.312,330.876 160.753,331.844 159.039,334.281 158.252,335.195 156.072,337.28 155.038,338.078 152.402,339.701 151.157,340.289 150.11,340.647 151.763,341.336 152.588,341.756 155.048,343.247 155.789,343.774 158.139,345.719 158.738,346.287 160.997,348.733 161.446,349.277 161.91,349.912 161.382,345.277 161.346,344.373 161.404,342.589 161.433,342.166 161.612,340.402 161.681,339.915 161.987,338.238 162.128,337.633 162.568,336.11 162.859,335.31 163.437,334.008 164.058,332.921 164.782,331.907 166.104,330.553 166.98,329.896 169.333,328.807 170.367,328.573 171.092,328.529 167.928,323.739 167.32,322.562 165.02,316.628 164.652,315.179 163.837,308.845 163.795,307.723 163.964,304.565 164.034,303.907 164.527,300.86 164.664,300.222 165.459,297.298 165.659,296.691 166.244,295.175 " fill="none" stroke-width="0.5" stroke="rgb(0,0,0)" />
	<polygon points="317.137,341.729 316.097,342.23 315.147,342.596 314.058,342.915 314.767,343.229 315.733,343.764 317.331,344.846 317.454,344.076 318.103,341.283 318.154,341.1 " fill="none" stroke-width="0.5" stroke="rgb(0,0,0)" />
	<polygon points="416.422,331.778 415.443,331.964 413.656,332.158 413.439,332.177 412.058,332.278 412.164,332.875 412.419,334.296 412.436,334.392 412.66,335.761 412.694,335.994 412.852,337.264 412.891,337.702 412.951,338.83 412.957,339.339 412.947,339.672 412.918,340.124 412.884,340.459 412.786,341.091 412.719,341.413 412.534,342.061 412.681,342.058 418.028,342.514 419.072,342.694 422.992,343.721 420.09,340.424 418.702,337.722 417.462,332.349 417.404,331.507 " fill="none" stroke-width="0.5" stroke="rgb(0,0,0)" />
	<polygon points="125.762,332.866 126.129,334.023 126.612,336.299 126.746,337.643 126.726,339.881 126.597,341.083 126.52,341.453 126.554,341.433 128.535,340.471 129.317,340.155 131.496,339.442 132.246,339.248 132.284,339.241 131.35,338.7 130.326,337.959 128.419,336.258 127.61,335.381 126.113,333.41 125.734,332.803 " fill="none" stroke-width="0.5" stroke="rgb(0,0,0)" />
	<polygon points="385.911,308.91 384.866,310.39 383.859,312.146 382.969,314.066 382.324,315.836 382.107,316.955 381.903,319.181 381.728,322.142 381.54,325.327 381.527,325.5 381.265,328.505 381.211,328.947 380.807,331.468 380.531,332.553 379.918,334.288 378.89,335.666 379.536,336.128 380.308,336.798 380.3,336.703 380.357,335.212 380.635,333.477 380.889,332.455 381.622,330.307 381.763,329.935 382.799,327.434 382.822,327.38 383.977,324.668 385.065,321.902 385.952,319.174 386.529,316.579 386.746,313.972 386.722,312.649 386.613,310.904 386.397,309.16 386.26,308.521 " fill="none" stroke-width="0.5" stroke="rgb(0,0,0)" />
	<polygon points="121.529,324.249 120.362,324.797 120.089,324.891 120.782,325.469 122.325,327.023 123.06,327.915 124.094,329.442 124.024,329.266 123.371,327.045 123.15,325.911 122.93,323.71 122.928,323.407 " fill="none" stroke-width="0.5" stroke="rgb(0,0,0)" />
	<polygon points="321.874,325.407 320.787,326.148 321.306,326.909 322.004,328.267 322.266,328.984 322.591,327.564 322.767,325.551 322.749,325.074 322.677,324.471 322.66,324.387 " fill="none" stroke-width="0.5" stroke="rgb(0,0,0)" />
	<polygon points="75.5766,307.427 74.0293,311.724 73.0854,315.343 72.7703,318.261 72.8019,319.382 72.9336,320.631 73.1785,321.786 73.5729,322.931 74.1848,324.159 74.9999,325.376 75.1641,324.939 75.6849,323.875 76.7892,322.077 77.5124,321.121 78.9301,319.582 79.8237,318.783 81.5248,317.536 82.5422,316.93 84.4965,316.007 85.5825,315.613 86.6392,315.337 86.0933,315.231 84.3896,314.727 83.2918,314.284 81.6978,313.457 80.6866,312.799 79.2576,311.659 78.3719,310.793 77.1632,309.349 76.4558,308.304 75.7573,307.004 " fill="none" stroke-width="0.5" stroke="rgb(0,0,0)" />
	<polygon points="345.832,305.858 344.866,305.846 344.742,305.834 344.777,306.458 344.676,307.703 344.46,308.896 344.146,310.002 343.575,311.367 343.031,312.325 342.057,313.615 341.268,314.417 340.064,315.369 340.059,315.372 340.421,315.538 341.328,316.05 346.187,319.363 347.006,320.03 351.023,323.916 351.295,324.229 351.492,323.625 352.067,322.314 352.28,321.875 353.093,320.36 353.197,320.173 353.433,319.768 352.705,319.595 352.441,319.526 350.593,319.001 349.719,318.68 348.412,318.084 345.893,315.985 345.397,315.272 344.289,311.967 344.849,309.145 345.053,308.701 347.063,306.256 347.635,305.843 347.842,305.726 " fill="none" stroke-width="0.5" stroke="rgb(0,0,0)" />
	<polygon points="97.9074,313.793 96.6481,314.343 94.5048,315.007 94.8557,315.056 96.0799,315.355 98.1221,316.081 98.9945,316.49 98.7894,316.023 98.4569,315.057 98.1068,313.678 " fill="none" stroke-width="0.5" stroke="rgb(0,0,0)" />
	<polygon points="428.063,312.795 428.056,312.996 428.006,313.994 428.791,313.667 430.949,313.012 432.148,312.773 433.18,312.673 432.895,312.678 432.595,312.677 431.826,312.654 431.574,312.642 430.728,312.582 430.588,312.571 429.685,312.487 429.627,312.482 428.693,312.386 428.072,312.324 " fill="none" stroke-width="0.5" stroke="rgb(0,0,0)" />
	<polygon points="403.27,305.981 404.594,307.972 406.218,309.93 408.045,311.747 409.964,313.328 410.41,313.627 408.597,310.685 406.211,307.522 403.684,305.083 402.472,304.382 " fill="none" stroke-width="0.5" stroke="rgb(0,0,0)" />
	<polygon points="436.727,312.004 436.489,312.098 435.67,312.356 435.383,312.425 434.787,312.538 435.278,312.523 437.256,312.595 437.255,312.56 437.267,311.767 437.27,311.727 " fill="none" stroke-width="0.5" stroke="rgb(0,0,0)" />
	<polygon points="130.774,300.37 130.903,301.198 131.429,307.168 131.424,308.307 131.341,309.164 133.88,308.877 134.06,308.894 135.641,309.259 135.79,309.315 137.586,310.358 137.707,310.459 138.267,311.101 135.966,306.327 131.394,298.665 129.79,296.035 " fill="none" stroke-width="0.5" stroke="rgb(0,0,0)" />
	<polygon points="312.692,303.389 311.859,304.06 307.675,306.871 307.791,306.876 308.325,306.922 310.964,307.263 311.532,307.364 313.935,307.906 314.406,308.039 313.709,306.496 313.223,304.834 312.973,303.119 " fill="none" stroke-width="0.5" stroke="rgb(0,0,0)" />
	<polygon points="108.977,296.607 108.845,297.532 108.257,300.206 108.703,300.374 108.986,300.532 109.781,301.323 109.787,301.164 109.475,296.613 109.104,294.672 " fill="none" stroke-width="0.5" stroke="rgb(0,0,0)" />
	<polygon points="434.536,292.581 434.263,292.999 433.312,294.33 433.23,294.442 432.164,295.865 431.857,296.286 432.607,296.711 434.521,297.744 434.665,297.825 436.37,298.805 436.953,299.184 437.339,299.468 435.721,294.113 434.953,291.886 " fill="none" stroke-width="0.5" stroke="rgb(0,0,0)" />
	<polygon points="458.771,287.942 457.794,288.394 456.687,289.31 455.388,290.88 453.962,293.084 453.774,293.419 454.675,293.327 456.289,293.374 459.478,293.888 461.245,294.453 461.314,294.488 461.32,294.317 461.325,294.058 461.327,293.743 461.327,293.529 461.256,292.069 461.054,290.694 460.726,289.428 460.325,288.439 459.965,287.862 459.888,287.785 " fill="none" stroke-width="0.5" stroke="rgb(0,0,0)" />
	<polygon points="87.3114,283.387 87.2587,283.491 84.9038,288.025 84.1079,289.561 86.1148,290.616 86.6363,291.03 87.2378,291.577 87.8025,292.161 88.2648,292.639 88.3318,292.698 88.7661,292.638 88.8104,292.584 89.246,291.524 89.7131,289.253 90.033,285.896 90.1876,281.59 90.2164,277.528 " fill="none" stroke-width="0.5" stroke="rgb(0,0,0)" />
	<polygon points="54.9344,276.621 55.187,277.821 55.9231,279.395 56.2105,279.848 56.6793,280.572 56.7202,280.636 57.1653,281.342 57.2924,281.552 57.6839,282.231 57.8898,282.62 58.2155,283.29 58.4648,283.879 58.7125,284.56 58.9387,285.336 59.0963,286.045 59.2274,286.938 59.2826,287.695 59.2797,287.764 60.2704,285.941 61.0005,282.762 60.9964,282.735 60.9564,282.584 60.9066,282.458 60.8293,282.316 60.6932,282.123 60.4613,281.861 59.8999,281.342 59.8855,281.328 57.9634,279.538 57.5962,279.165 56.0822,277.495 55.8533,277.228 54.9392,276.096 " fill="none" stroke-width="0.5" stroke="rgb(0,0,0)" />
	<polygon points="419.563,283.736 417.244,284.213 417.094,284.242 414.576,284.696 412.158,285.162 410.151,285.651 408.595,286.203 407.785,286.579 410.214,286.424 413.414,285.834 416.38,284.978 419.097,283.962 419.696,283.703 " fill="none" stroke-width="0.5" stroke="rgb(0,0,0)" />
	<polygon points="156.687,225.795 155.669,227.567 154.989,228.963 154.953,229.07 156.609,231.332 156.973,233.702 156.912,235.128 156.894,235.406 156.735,237.228 156.723,237.357 156.498,239.429 156.491,239.489 156.234,241.665 156.232,241.679 155.976,243.798 155.759,245.679 155.619,247.105 155.58,247.844 155.606,248.694 157.312,249.749 158.659,252.184 159.125,253.809 159.242,254.29 159.607,256.101 159.66,256.4 159.952,258.328 159.974,258.495 160.219,260.473 160.226,260.53 160.446,262.464 160.661,264.22 160.838,265.377 162.09,265.821 164.232,268.58 164.773,269.956 165.336,271.381 165.914,272.756 166.511,274.031 167.116,275.144 167.701,276.033 168.214,276.647 169.012,277.351 169.253,277.56 169.691,277.977 169.961,278.261 170.311,278.662 170.574,278.991 170.884,279.415 171.127,279.778 171.421,280.264 171.631,280.651 171.914,281.245 172.08,281.646 172.338,282.408 172.447,282.813 172.629,283.815 172.668,284.214 172.656,284.53 172.72,284.455 174.72,282.327 175.499,281.868 175.16,281.638 174.532,281.15 170.418,277.505 169.438,276.404 166.528,272.218 165.575,270.061 164.471,265.236 164.556,262.141 165.697,258.168 166.88,255.926 169.89,252.29 170.76,251.429 175.015,247.978 175.36,247.717 180.195,244.326 184.771,241.001 188.271,237.859 190.182,235.159 190.842,232.364 190.779,231.811 190.637,230.982 190.486,230.31 190.297,231.042 188.95,234.436 188.296,235.662 186.261,238.622 185.553,239.476 183.002,242.048 182.381,242.595 179.486,244.822 179.006,245.157 175.938,247.086 175.609,247.279 172.541,248.954 172.372,249.044 169.475,250.511 166.049,251.149 162.819,249.838 160.808,246.991 160.609,243.691 160.85,242.559 161.058,241.477 161.242,240.397 161.398,239.32 161.524,238.244 161.617,237.169 161.674,236.096 161.692,235.115 161.595,233.127 161.294,231.231 160.748,229.322 159.901,227.363 158.677,225.316 157.702,224.074 " fill="none" stroke-width="0.5" stroke="rgb(0,0,0)" />
	<polygon points="427.409,278.488 426.943,279.359 424.858,281.443 425.688,281.104 426.716,280.784 427.957,280.514 429.794,280.394 429.982,280.409 430.48,280.497 428.731,276.808 428.042,275.596 " fill="none" stroke-width="0.5" stroke="rgb(0,0,0)" />
	<polygon points="391.22,275.904 391.15,277.096 391.191,276.875 391.275,275.545 " fill="none" stroke-width="0.5" stroke="rgb(0,0,0)" />
	<polygon points="339.828,273.54 338.924,274.513 338.608,275.763 338.608,275.768 338.615,275.784 338.639,275.811 338.905,275.996 339.514,276.261 340.403,276.497 340.937,276.573 340.935,276.552 340.879,275.962 340.867,275.824 340.827,275.28 340.814,275.018 340.798,274.529 340.822,273.764 340.846,273.501 340.957,272.909 " fill="none" stroke-width="0.5" stroke="rgb(0,0,0)" />
	<polygon points="129.083,235.981 128.715,238.204 128.475,240.35 128.345,242.346 128.314,243.753 129.689,253.609 133.346,263.311 138.748,273.115 139.511,274.27 139.627,274.022 139.582,273.769 139.176,272.858 138.198,271.228 136.851,269.159 136.763,269.02 135.353,266.724 135.099,266.267 133.869,263.824 133.526,262.998 132.656,260.391 132.38,259.158 132.05,256.37 132.63,252.933 133.665,251.842 133.635,251.562 133.26,250.01 132.608,247.897 131.794,245.453 131.779,245.408 130.944,242.834 130.878,242.619 130.15,240.062 130.044,239.635 129.529,237.176 129.419,236.434 129.299,235.034 " fill="none" stroke-width="0.5" stroke="rgb(0,0,0)" />
	<polygon points="420.878,265.812 420.234,267.287 420.14,267.492 419.925,267.939 420.072,267.971 420.349,268.039 421.974,268.477 422.833,268.778 423.982,269.277 424.305,269.536 422.798,267.365 421.058,265.348 " fill="none" stroke-width="0.5" stroke="rgb(0,0,0)" />
	<polygon points="361.955,260.303 362.149,260.296 362.727,260.284 362.672,259.32 362.667,259.221 362.653,258.866 " fill="none" stroke-width="0.5" stroke="rgb(0,0,0)" />
	<polygon points="403.548,255.014 404.243,255.736 405.205,256.914 405.429,257.207 406.322,258.443 406.874,258.017 408.141,256.998 408.261,256.903 408.808,256.485 407.05,255.81 403.239,254.74 " fill="none" stroke-width="0.5" stroke="rgb(0,0,0)" />
	<polygon points="447.086,253.417 447.089,253.423 448.442,256.788 448.474,256.869 448.773,257.643 450.196,255.119 450.252,255.022 450.76,254.16 447.344,252.264 446.98,252.045 446.374,251.652 " fill="none" stroke-width="0.5" stroke="rgb(0,0,0)" />
	<polygon points="382.63,243.561 382.157,244.713 381.538,245.876 380.836,246.921 380.011,247.914 379.117,248.793 378.112,249.598 377.075,250.27 376.095,250.775 376.607,251.308 377.725,252.679 377.981,253.016 378.638,253.943 379.158,253.397 379.396,253.161 380.583,252.041 381.271,251.48 382.397,250.688 384.241,249.804 385.28,249.504 387.531,249.283 387.832,249.308 388.916,249.525 385.732,247.281 384.085,245.562 382.684,243.379 " fill="none" stroke-width="0.5" stroke="rgb(0,0,0)" />
	<polygon points="392.606,251.832 392.775,252.042 393.587,253.368 393.747,253.268 395.086,252.645 395.317,252.57 395.522,252.526 391.754,251.046 " fill="none" stroke-width="0.5" stroke="rgb(0,0,0)" />
	<polygon points="359.083,247 358.099,247.664 356.355,248.612 358.18,248.764 361.433,250.017 363.23,252.467 363.622,251.517 363.776,251.228 364.345,250.486 363.858,250.225 362.869,249.568 361.88,248.763 361.029,247.922 360.202,246.929 359.831,246.383 " fill="none" stroke-width="0.5" stroke="rgb(0,0,0)" />
	<polygon points="313.282,224.456 312.171,224.931 310.313,225.519 309.082,225.774 307.895,225.897 308.552,227.932 309.784,229.318 312.155,230.728 315.683,232.26 315.912,232.365 319.711,234.202 320.825,234.895 324.089,237.44 325.596,239.144 327.881,242.958 328.345,244.247 329.324,243.635 330.381,243.107 331.549,242.657 332.502,242.375 333.167,242.235 332.953,241.918 331.839,239.871 331.366,238.752 330.661,236.492 330.412,235.273 330.311,234.275 330.133,234.33 328.915,234.579 327.51,234.721 326.256,234.721 324.862,234.578 323.638,234.327 322.335,233.919 321.218,233.445 320.036,232.799 319.054,232.135 318.022,231.281 317.192,230.449 316.338,229.415 315.674,228.433 315.029,227.247 314.556,226.13 314.147,224.82 313.992,224.066 " fill="none" stroke-width="0.5" stroke="rgb(0,0,0)" />
	<polygon points="464.51,216.89 464.473,217.321 464.137,220.102 464.102,220.348 463.626,223.289 463.605,223.407 463.06,226.408 463.057,226.423 462.52,229.337 462.071,231.997 461.779,234.236 461.688,235.831 461.761,236.783 461.844,237.148 462.848,235.708 464.239,233.162 465.378,230.359 466.121,227.493 466.374,224.768 465.819,219.784 464.541,216.288 " fill="none" stroke-width="0.5" stroke="rgb(0,0,0)" />
	<polygon points="104.195,236.492 104.623,235.967 104.259,235.823 " fill="none" stroke-width="0.5" stroke="rgb(0,0,0)" />
	<polygon points="379.457,227.964 378.245,228.964 379.099,229.643 379.712,230.232 379.725,230.037 379.799,229.424 380.157,227.341 380.176,227.245 " fill="none" stroke-width="0.5" stroke="rgb(0,0,0)" />
	<polygon points="47.2874,227.107 45.1961,227.876 45.9854,228.507 46.2683,228.8 46.8651,229.589 47.6494,226.953 " fill="none" stroke-width="0.5" stroke="rgb(0,0,0)" />
	<polygon points="133.487,218.265 129.928,219.392 132.116,221.618 132.832,225.03 132.165,227.379 131.052,229.545 131.039,229.578 132.338,228.236 132.525,228.185 132.549,227.878 132.575,227.618 132.876,225.151 132.927,224.813 133.386,222.235 133.478,221.809 134.135,219.196 134.292,218.672 134.502,218.068 " fill="none" stroke-width="0.5" stroke="rgb(0,0,0)" />
	<polygon points="84.7244,213.719 84.7883,213.757 85.3598,214.205 86.384,215.223 86.8468,215.804 87.5013,216.814 87.8576,217.502 88.243,218.421 88.4949,219.189 88.7033,220.01 88.8528,220.832 88.9426,221.582 88.992,222.43 88.9584,223.528 88.8544,224.395 89.4761,223.887 90.6524,223.129 91.3893,222.765 93.1109,222.208 93.8398,222.086 95.7305,222.061 96.3743,222.152 98.0385,222.63 98.6502,222.903 100.033,223.754 100.596,224.211 101.09,224.718 101.094,224.604 101.397,220.527 101.534,219.612 102.375,215.911 102.638,215.049 103.273,213.409 102.243,213.782 100.81,214.115 97.8121,214.445 96.4459,214.444 93.2566,214.088 91.866,213.768 89.0018,212.748 87.7332,212.126 86.6113,211.406 " fill="none" stroke-width="0.5" stroke="rgb(0,0,0)" />
	<polygon points="446.353,208.755 446.24,208.801 442.651,210.211 442.311,210.333 438.002,211.744 437.522,211.88 432.401,213.11 431.839,213.218 425.817,214.089 425.221,214.146 422.058,214.294 425.753,216.091 427.001,216.895 430.694,219.959 431.659,220.963 434.011,224.036 435.25,221.153 435.844,220.079 438.367,216.425 438.956,215.697 441.941,212.528 442.49,212.012 445.621,209.409 446.165,209.005 446.865,208.542 " fill="none" stroke-width="0.5" stroke="rgb(0,0,0)" />
	<polygon points="64.038,216.03 63.3048,216.637 63.3971,216.679 64.971,217.717 65.4879,218.185 66.5369,219.419 66.9366,220.039 67.5029,221.146 67.7959,221.897 68.065,222.772 68.0924,222.892 68.3879,222.165 68.787,221.356 71.4516,216.822 71.8639,216.394 71.6712,216.378 70.6148,216.197 68.5431,215.655 67.4776,215.269 65.6072,214.391 65.4464,214.295 " fill="none" stroke-width="0.5" stroke="rgb(0,0,0)" />
	<polygon points="187.736,213.528 188.578,214.789 189.787,217.189 190.268,218.49 190.468,219.298 192.742,217.76 195.564,217.69 195.058,215.862 194.471,214.743 193.707,213.862 192.611,213.063 191.009,212.324 188.804,211.714 185.979,211.311 185.819,211.304 " fill="none" stroke-width="0.5" stroke="rgb(0,0,0)" />
	<polygon points="337.237,213.442 337.461,213.713 338.128,214.696 338.775,215.883 339.071,216.581 339.826,216.17 339.219,215.435 338.554,214.451 337.907,213.263 337.844,213.115 " fill="none" stroke-width="0.5" stroke="rgb(0,0,0)" />
	<polygon points="402.175,212.746 402.712,212.35 402.696,212.345 401.517,211.837 " fill="none" stroke-width="0.5" stroke="rgb(0,0,0)" />
	<polygon points="380.975,200.053 380.5,201.17 379.819,202.418 379.155,203.397 378.253,204.486 377.478,205.261 378.239,205.774 379.455,206.775 380.293,207.613 381.295,208.827 381.538,209.187 382.225,206.631 384.802,204.284 387.109,203.891 382.899,200.458 381.87,199.39 381.385,198.749 " fill="none" stroke-width="0.5" stroke="rgb(0,0,0)" />
	<polygon points="57.3579,203.386 55.5777,204.832 55.0631,205.207 53.2762,206.376 53.2065,206.416 53.9841,206.26 56.2562,205.767 58.0856,205.351 57.718,204.188 57.5231,203.238 " fill="none" stroke-width="0.5" stroke="rgb(0,0,0)" />
	<polygon points="456.665,185.28 458.345,186.269 456.199,184.614 " fill="none" stroke-width="0.5" stroke="rgb(0,0,0)" />
	<polygon points="180.612,185.839 181.032,185.76 180.487,185.495 " fill="none" stroke-width="0.5" stroke="rgb(0,0,0)" />
	<polygon points="366.308,168.67 365.324,169.48 364.337,170.145 363.284,170.715 363.803,171.48 364.843,173.378 365.318,174.495 365.976,176.588 366.23,177.815 366.459,180.054 366.459,181.322 366.391,181.981 367.652,181.851 368.92,181.85 370.393,182 371.186,182.163 370.912,181.604 370.564,180.73 367.798,171.882 367.614,171.13 367.04,167.94 " fill="none" stroke-width="0.5" stroke="rgb(0,0,0)" />
	<polygon points="146.19,174.448 145.369,174.666 141.928,175.328 142.318,175.6 143.059,176.206 146.453,179.452 146.947,179.984 147.781,180.993 148.034,179.39 148.253,178.464 149.212,175.468 149.92,173.977 150.583,172.956 " fill="none" stroke-width="0.5" stroke="rgb(0,0,0)" />
	<polygon points="108.758,161.096 107.903,162.132 107.072,162.964 106.037,163.82 105.055,164.485 103.869,165.132 102.751,165.606 101.443,166.015 100.22,166.266 98.8187,166.409 97.5645,166.409 96.1574,166.266 95.0323,166.036 95.8101,166.324 96.4969,166.627 99.8724,168.365 100.517,168.749 103.778,170.964 104.414,171.459 107.413,174.125 108.047,174.779 110.636,177.872 111.241,178.735 112.281,180.523 112.584,179.549 113.055,178.435 114.098,176.517 114.968,175.296 116.355,173.778 117.63,172.713 118.847,171.947 117.872,171.389 116.768,170.584 113.875,167.94 113.012,166.967 110.79,163.856 110.191,162.817 109.147,160.52 " fill="none" stroke-width="0.5" stroke="rgb(0,0,0)" />
	<polygon points="309.354,170.21 308.54,171.476 307.979,172.153 308.793,172.07 310.048,172.069 311.455,172.212 312.673,172.461 313.627,172.758 314.005,171.541 314.476,170.424 314.504,170.372 312.53,169.97 312.105,169.868 310.256,169.354 309.913,169.247 309.832,169.22 " fill="none" stroke-width="0.5" stroke="rgb(0,0,0)" />
	<polygon points="338.053,167.182 336.056,168.011 336.297,168.302 336.568,168.704 337.254,168.018 338.653,166.863 " fill="none" stroke-width="0.5" stroke="rgb(0,0,0)" />
	<polygon points="160.392,167.393 160.375,167.405 162.096,167.426 163.824,167.764 164.961,168.146 163.672,164.753 " fill="none" stroke-width="0.5" stroke="rgb(0,0,0)" />
	<polygon points="344.237,163.046 343.209,163.9 340.874,165.448 341.791,164.948 342.905,164.474 344.998,163.817 345.648,163.683 345.62,163.616 345.233,162.371 345.173,162.079 " fill="none" stroke-width="0.5" stroke="rgb(0,0,0)" />
	<polygon points="90.1022,165.066 92.4183,165.086 91.319,164.489 90.5362,163.96 " fill="none" stroke-width="0.5" stroke="rgb(0,0,0)" />
	<polygon points="422.781,142.753 421.634,144.124 418.893,146.575 417.826,147.343 414.21,149.4 413.326,149.815 410.648,150.821 417.097,151.401 418.299,151.631 424.718,153.528 425.863,153.994 431.548,157.006 432.46,157.596 436.244,160.547 434.736,157.69 434.259,156.505 432.413,150.067 432.433,146.582 432.575,146.363 431.549,146.093 430.629,145.772 428.95,145.034 427.851,144.41 426.491,143.443 425.332,142.372 424.322,141.166 424.039,140.708 " fill="none" stroke-width="0.5" stroke="rgb(0,0,0)" />
	<polygon points="354.322,135.173 354.489,136.516 354.529,136.969 354.585,138.089 354.566,138.988 353.939,145.589 353.677,146.877 353.629,147.026 354.49,146.759 355.705,146.513 357.046,146.378 358.288,146.378 359.628,146.513 360.842,146.76 362.09,147.147 363.21,147.618 364.339,148.231 365.328,148.897 366.312,149.709 366.991,150.387 367.707,149.513 367.764,149.459 369.334,148.392 365.389,146.08 364.441,145.397 359.105,140.728 358.355,139.947 354.276,134.873 " fill="none" stroke-width="0.5" stroke="rgb(0,0,0)" />
	<polygon points="130.422,134.408 129.772,134.76 129.22,135.111 128.86,135.377 128.5,135.695 125.346,137.18 124.842,137.115 125.421,138.344 125.882,139.721 126.36,142.015 126.408,142.272 126.805,144.682 127.218,146.403 127.451,146.19 127.952,145.577 128.498,144.676 129.08,143.347 129.386,142.417 129.704,141.311 129.977,140.214 130.201,139.135 130.376,138.086 130.5,137.081 130.573,136.132 130.596,135.26 130.568,134.342 " fill="none" stroke-width="0.5" stroke="rgb(0,0,0)" />
	<polygon points="102.108,139.554 101.889,140.626 102.75,140.896 103.868,141.37 105.054,142.016 106.035,142.68 107.07,143.535 107.414,143.879 107.449,143.673 107.557,143.172 108.015,141.407 108.235,140.722 108.352,140.421 107.78,140.571 105.071,139.859 102.434,138.47 102.239,138.269 " fill="none" stroke-width="0.5" stroke="rgb(0,0,0)" />
	<polygon points="326.96,140.507 326.965,141.819 326.886,142.593 326.864,142.712 328.907,142.206 326.922,140.159 " fill="none" stroke-width="0.5" stroke="rgb(0,0,0)" />
	<polygon points="314.924,123.628 313.453,124.025 312.16,124.627 311.044,125.396 310.119,126.283 309.412,127.219 308.945,128.111 308.525,129.437 306.96,131.766 307.439,132.084 308.52,132.662 309.539,133.075 310.544,133.355 311.596,133.523 312.809,133.585 313.15,133.574 313.659,133.535 314.256,133.469 314.918,133.384 315.603,133.291 315.654,133.285 316.309,133.202 316.473,133.183 317.062,133.124 317.405,133.1 317.911,133.078 318.536,133.082 318.911,133.103 318.437,132.7 318.136,132.4 317.506,131.666 317.264,131.336 316.766,130.533 316.581,130.178 316.224,129.345 316.095,128.971 315.871,128.142 315.795,127.756 315.691,126.952 315.666,126.559 315.687,125.526 315.765,124.783 315.98,123.687 316.025,123.532 " fill="none" stroke-width="0.5" stroke="rgb(0,0,0)" />
	<polygon points="118.068,131.899 117.527,132.885 118.761,132.998 118.275,131.431 " fill="none" stroke-width="0.5" stroke="rgb(0,0,0)" />
	<polygon points="94.0203,111.999 93.9166,112.098 91.74,114.119 91.3314,114.466 89.0682,116.229 88.1758,116.809 85.8377,118.056 84.1183,118.668 81.717,119.141 79.8596,119.223 79.6609,119.201 79.7172,119.699 79.9059,123.014 79.9144,123.504 79.8827,124.931 79.8709,125.199 79.7798,126.587 79.7579,126.842 79.6136,128.188 79.5833,128.427 80.2014,127.808 81.236,126.951 82.2186,126.285 83.4047,125.638 84.5236,125.163 85.8325,124.753 87.0562,124.502 88.4592,124.359 89.7155,124.359 91.1206,124.502 92.3426,124.752 93.6535,125.162 94.7713,125.636 95.9592,126.283 96.5992,126.716 96.3272,125.509 96.2302,124.968 95.4365,119.034 95.4201,118.9 94.7704,113.079 94.5345,111.499 " fill="none" stroke-width="0.5" stroke="rgb(0,0,0)" />
	<polygon points="184.333,107.653 184.386,108.805 184.344,109.696 184.273,110.381 184.141,111.207 183.942,112.06 183.712,112.804 183.287,113.837 182.951,114.483 182.177,115.632 181.726,116.163 180.544,117.237 179.97,117.636 178.513,118.387 177.808,118.638 176.363,118.966 175.519,119.054 173.273,118.875 172.129,118.569 173.292,120.487 173.775,121.472 175.462,125.854 175.739,126.785 175.924,127.652 176.814,126.861 177.394,126.404 180.395,124.317 181.153,123.866 184.273,122.3 185.242,121.912 188.464,120.927 189.638,120.689 192.942,120.347 194.268,120.353 195.968,120.542 193.695,118.299 193.317,117.892 189.073,112.879 188.871,112.627 184.361,106.7 184.202,106.481 184.161,106.421 " fill="none" stroke-width="0.5" stroke="rgb(0,0,0)" />
	<polygon points="424.445,124.446 424.614,125.017 424.948,126.379 425.731,125.532 426.447,124.902 426.245,124.763 425.266,123.93 424.359,122.979 423.587,121.984 423.581,121.974 " fill="none" stroke-width="0.5" stroke="rgb(0,0,0)" />
	<polygon points="123.877,112.066 122.292,118.406 122.264,118.513 120.959,123.362 123.276,119.551 123.852,118.754 126.635,115.483 127.348,114.771 128.918,113.44 128.236,112.925 127.426,112.191 125.924,110.568 125.651,110.253 124.703,109.079 " fill="none" stroke-width="0.5" stroke="rgb(0,0,0)" />
	<polygon points="378.937,99.7098 377.917,100.329 370.969,103.682 369.903,104.08 366.513,105.003 368.68,104.563 372.381,103.432 376.518,101.664 376.923,101.458 377.275,101.293 377.862,101.04 378.223,100.897 378.806,100.688 379.176,100.569 379.753,100.402 380.129,100.305 380.698,100.179 381.078,100.106 381.637,100.018 382.021,99.9695 382.568,99.9178 382.955,99.8934 383.487,99.8766 384.619,99.9446 386.584,100.245 388.67,100.96 390.087,101.751 391.598,102.934 392.642,104.052 393.287,104.871 394.132,106.153 394.178,106.224 394.524,106.764 395.6,106.51 397.018,106.046 398.653,105.43 400.367,104.767 400.525,104.708 402.176,104.12 402.62,103.98 404.139,103.565 405.055,103.387 406.401,103.229 409.187,103.541 411.229,104.262 413.356,105.539 415.499,107.505 416.315,108.418 418.445,111.334 418.847,111.961 420.847,115.532 421.099,116.033 421.11,116.059 421.11,116.058 420.805,114.602 420.802,114.587 420.528,113.266 420.278,112.303 420.084,111.787 420.051,111.73 419.626,111.301 417.972,108.233 418.235,104.757 419.554,103.005 416.328,102.973 416.207,102.97 412.875,102.872 412.756,102.867 409.387,102.704 409.271,102.697 405.874,102.468 405.759,102.459 402.343,102.165 402.228,102.154 398.802,101.794 398.687,101.781 395.26,101.357 395.143,101.341 391.725,100.851 391.64,100.839 391.165,100.764 390.647,100.659 390.261,100.564 389.478,100.316 389.175,100.196 388.093,99.6439 387.862,99.496 386.635,98.4623 386.47,98.2817 385.492,96.855 385.384,96.6374 384.891,95.2557 384.891,95.2551 " fill="none" stroke-width="0.5" stroke="rgb(0,0,0)" />
	<polygon points="348.752,107.806 348.981,108.504 349.118,109.052 349.664,108.502 349.841,108.345 350.252,108.01 350.44,107.87 350.657,107.716 350.851,107.584 352.062,106.98 348.235,106.692 " fill="none" stroke-width="0.5" stroke="rgb(0,0,0)" />
	<polygon points="145.202,101.848 144.625,105.072 144.516,105.564 144.326,106.281 144.383,106.269 145.305,106.131 149.435,105.829 150.585,105.851 153.356,106.165 150.035,103.326 146.159,100.21 145.574,99.824 " fill="none" stroke-width="0.5" stroke="rgb(0,0,0)" />
	<polygon points="70.2432,92.6896 65.2133,95.3369 62.8516,96.6399 62.921,96.6495 64.6687,97.1609 68.0512,98.7207 69.5057,99.6571 70.2052,100.261 70.3203,99.2577 70.3316,99.1654 70.6196,96.95 70.6208,96.9411 70.9037,94.7889 71.1398,92.8021 71.1874,92.2691 " fill="none" stroke-width="0.5" stroke="rgb(0,0,0)" />
	<polygon points="327.053,99.1202 327.005,99.1888 327.809,99.3537 328.115,99.4377 327.2,98.9091 " fill="none" stroke-width="0.5" stroke="rgb(0,0,0)" />
	<polygon points="396.483,79.0814 395.96,80.2891 393.893,83.9477 395.11,83.0295 396.116,81.8827 396.743,80.5713 397.064,78.3179 397.032,77.4412 397.023,77.3468 " fill="none" stroke-width="0.5" stroke="rgb(0,0,0)" />
	<polygon points="173.529,77.744 173.572,77.6885 173.699,77.5537 174.188,77.1312 173.182,76.8114 173.127,76.7971 " fill="none" stroke-width="0.5" stroke="rgb(0,0,0)" />
	<polygon points="126.482,60.5603 125.735,63.6653 125.002,67.1408 124.917,67.4923 124.07,70.5994 123.587,71.8347 123.312,72.3613 123.631,72.475 126.033,74.0303 126.989,75.0298 126.996,74.9216 127.096,73.8191 127.172,73.2636 127.343,72.3253 127.581,71.4195 127.843,70.6615 128.524,69.2753 128.894,68.7138 130.505,67.0514 131.001,66.7027 131.509,66.4883 130.838,65.6372 130.672,65.4163 128.94,63.0056 127.295,60.8264 126.648,60.119 " fill="none" stroke-width="0.5" stroke="rgb(0,0,0)" />
	<polygon points="105.988,59.0332 104.518,60.0449 102.762,61.4757 100.907,63.0631 100.753,63.1909 98.9718,64.6189 98.3771,65.0406 96.7592,66.0506 95.7791,66.4773 96.1029,67.2992 96.2923,67.9584 96.4729,68.8075 96.5806,69.5741 96.6362,70.1938 96.6703,71.0637 96.6622,71.7051 96.561,73.2777 98.4293,71.5956 100.547,70.3453 102.605,69.6318 106.087,69.4619 107.101,69.9384 107.003,69.4321 106.739,66.2704 106.723,66.0109 106.58,62.554 106.298,59.6184 106.122,58.9689 " fill="none" stroke-width="0.5" stroke="rgb(0,0,0)" />
	<polygon points="400.182,59.2121 400.179,60.3677 400.057,61.6301 401.077,61.2378 401.331,61.166 402.444,60.9586 402.707,60.9342 405.545,61.3359 406.655,61.7713 408.358,62.7783 409.736,63.9261 410.091,64.2451 411.721,65.8301 413.489,67.4895 415.302,68.9454 417.133,70.0573 418.96,70.7447 421.154,71.0216 421.432,71.0085 422.079,70.9102 422.657,70.7413 423.047,70.5483 423.249,70.3837 423.403,70.1712 423.612,69.6033 423.684,68.9215 423.203,67.3247 421.468,65.5339 417.81,63.3693 412.974,61.366 407.803,59.6515 403.115,58.2111 402.824,58.1136 399.99,57.0868 " fill="none" stroke-width="0.5" stroke="rgb(0,0,0)" />
	<polygon points="145.779,70.39 145.643,70.486 145.97,70.7529 145.82,70.3547 " fill="none" stroke-width="0.5" stroke="rgb(0,0,0)" />
	<polygon points="162.814,45.5074 162.431,47.0627 162.297,47.405 161.457,48.9046 161.25,49.1773 160.968,49.4628 164.234,50.5729 164.404,50.6335 167.936,51.9501 167.94,51.9518 170.206,52.7985 170.081,52.659 166.296,48.8423 162.827,45.3947 " fill="none" stroke-width="0.5" stroke="rgb(0,0,0)" />
	<polygon points="144.03,50.0046 144.721,51.8256 144.928,52.3046 145.739,51.2177 146.266,50.6622 146.436,50.5242 145.614,50.3052 144.207,49.9788 144.013,49.9462 " fill="none" stroke-width="0.5" stroke="rgb(0,0,0)" />
	<polygon points="88.6964,48.2379 88.4622,48.2775 88.5304,48.3837 88.9734,49.8886 90.1652,48.3929 90.5249,47.9329 " fill="none" stroke-width="0.5" stroke="rgb(0,0,0)" />
	<polygon points="444.95,42.1427 444.479,43.8767 444.174,45.5865 444.063,47.353 444.1,47.9154 444.168,48.2348 444.223,48.2506 444.542,48.2778 444.817,47.4775 445.072,46.1793 445.234,44.5215 445.286,42.6158 445.258,41.216 " fill="none" stroke-width="0.5" stroke="rgb(0,0,0)" />
	<polygon points="392.499,32.9387 396.271,39.8213 396.779,41.0414 397.657,44.0074 398.245,43.5303 400.24,42.529 400.997,42.2096 403.969,41.1831 404.375,41.0583 408.036,40.0682 408.325,39.9975 411.345,39.3343 407.064,37.0723 402.68,35.4106 398.654,34.2653 395.273,33.4191 394.81,33.2838 392.515,32.5156 391.931,32.1285 " fill="none" stroke-width="0.5" stroke="rgb(0,0,0)" />
	<polygon points="69.7404,39.9294 69.731,39.9353 67.5857,41.2725 70.8221,41.61 71.5185,41.6767 72.1457,38.4242 " fill="none" stroke-width="0.5" stroke="rgb(0,0,0)" />
	<polygon points="81.9929,26.4687 81.6188,28.2053 80.8148,30.3678 79.5382,32.3775 80.7894,31.8643 80.9889,31.7865 84.1402,30.6194 86.2743,29.7537 85.3412,29.3466 84.4116,28.8453 81.9752,26.388 " fill="none" stroke-width="0.5" stroke="rgb(0,0,0)" />
</svg>
