<?xml version="1.0" standalone="no" ?>
<!DOCTYPE svg PUBLIC "-//W3C//DTD SVG 1.1//EN" "http://www.w3.org/Graphics/SVG/1.1/DTD/svg11.dtd">
<svg width="500px" height="500px" xmlns="http://www.w3.org/2000/svg" version="1.1" >
	<polygon points="480.823,30.4107 480.7,30.6116 480.403,31.2498 480.223,31.7848 480.168,32.0418 480.285,33.5817 480.665,35.4275 480.823,35.9849 480.823,77.3223 479.732,79.9048 478.59,81.794 473.275,88.2659 471.835,89.6193 465.101,94.4871 466.125,94.5079 468.611,95.0183 469.963,95.4281 472.058,96.2801 473.455,97.0239 475.178,98.1829 476.446,99.2502 477.815,100.682 478.797,101.951 479.83,103.621 480.476,104.925 480.823,105.835 480.823,121.748 479.915,123.796 480.823,124.543 480.823,189.425 478.522,192.089 476.943,193.163 473.276,194.467 472.799,194.43 473.487,195.002 474.286,195.77 478.288,200.212 479.139,201.354 480.823,204.112 480.823,244.485 478.692,248.113 478.31,248.7 474.935,253.407 476.271,253.546 478.056,253.951 479.315,254.399 480.823,255.171 480.823,281.286 480.174,292.856 479.367,294.11 478.88,294.783 476.303,297.972 475.68,298.654 472.722,301.528 472.282,301.777 472.573,302.159 473.28,303.268 475.195,306.935 475.648,307.986 477.092,312.165 477.319,313.004 473.11,329.62 467.07,347.047 459.27,364.67 455.93,370.789 454.585,371.566 450.693,371.615 448.898,370.639 449.017,371.242 449.722,378.804 449.657,380.739 449.333,382.762 438.331,399.399 425.161,415.952 410.17,431.593 401.965,438.642 401.533,438.569 399.522,437.938 398.029,437.233 396.686,436.422 395.976,435.887 396.083,437.303 395.989,439.215 395.048,444.584 393.345,446.047 374.668,459.037 354.126,470.285 331.702,479.516 324.283,481.632 322.467,481.116 321.035,480.549 318.372,479.172 317.053,478.309 314.854,476.523 313.745,475.416 312.019,473.303 311.172,472.023 309.928,469.664 309.361,468.275 308.608,465.752 308.323,464.295 308.281,463.866 308.075,464.241 305.309,468.313 304.318,469.367 304.798,469.405 306.314,469.681 306.983,469.874 308.763,470.64 309.257,470.931 310.943,472.276 311.288,472.641 312.476,474.288 312.698,474.702 313.314,476.218 313.44,476.657 313.677,477.804 313.733,478.243 313.792,478.981 313.805,479.396 313.542,481.645 313.144,483.117 312.148,485.093 307.382,486.452 281.151,490.817 267.363,491.559 266.765,491.148 264.939,489.657 264.016,488.765 263.798,488.516 262.605,489.124 262.172,489.327 258.007,491.133 257.558,491.311 255.03,492.224 252.993,492.333 225.548,490.902 199.887,486.773 181.899,481.816 179.236,479.924 175.274,477.141 172.238,475.433 170.349,474.889 167.353,474.592 163.218,474.363 162.75,474.322 160.612,474.072 153.907,471.407 133.615,460.681 129.855,457.035 127.836,453.708 127.753,451.306 127.522,451.327 126.002,451.313 118.436,450.492 115.039,448.212 98.2672,434.295 83.2685,419.161 71.0067,404.233 70.6159,401.106 70.5809,399.538 70.7744,397.115 68.3243,397.015 65.0517,395.018 63.4301,393.349 58.5824,386.23 48.8916,368.927 40.9666,351.394 34.8057,333.879 34.4265,332.391 34.5146,331.559 34.8181,330.086 37.7864,320.526 38.2249,319.422 41.1021,313.547 37.6835,313.477 35.7144,312.858 32.5812,310.958 30.7627,309.139 29.4676,307.418 28.752,306.123 27.7694,299.888 26.8905,283.906 26.8905,238.804 27.3033,237.392 27.6337,236.48 29.2954,232.661 30.189,231.123 31.5133,229.352 30.4406,228.922 28.5587,227.838 26.8905,226.531 26.8905,166.927 27.7318,163.379 27.9763,162.555 29.5484,158.172 30.0419,157.075 32.4685,152.642 33.2955,151.424 36.025,148.133 34.1417,147.583 32.753,147.026 30.4667,145.839 29.1936,145.01 27.2079,143.416 26.8905,143.104 26.8905,111.926 27.7621,111.056 28.6614,110.286 30.5809,108.884 31.2447,108.472 30.0263,107.874 29.5415,107.574 28.1811,106.504 27.786,106.114 26.8905,104.984 26.8905,92.0053 27.5146,90.7122 29.7163,87.3843 29.6482,87.3736 27.2125,86.5593 26.8905,86.3875 26.8905,42.1732 27.5242,41.6358 31.4149,38.7866 31.7893,38.5291 36.2493,35.651 36.3512,35.5863 37.1592,35.0827 34.6715,34.4525 34.2487,34.3325 30.4981,33.1509 29.3373,32.6782 26.8905,31.441 26.8905,19.5757 38.3822,19.4875 49.8739,19.3993 61.3656,19.3111 72.8572,19.223 84.3489,19.1348 95.8406,19.0466 107.332,18.9584 115.567,18.8952 116.27,19.6782 116.454,19.8901 117.647,21.3202 118.196,21.8332 118.253,21.8626 118.805,21.942 119.315,21.8691 119.45,21.8017 120.093,21.2359 121.372,19.8249 121.571,19.6141 122.324,18.8434 130.316,18.7821 141.807,18.6939 153.299,18.6057 156.361,18.5822 157.417,22.0923 157.415,22.0984 159.487,20.6039 160.844,19.8218 163.737,18.5256 164.791,18.5175 176.282,18.4294 187.774,18.3412 210.757,18.1648 210.737,28.5875 209.959,29.4406 210.735,29.6776 210.732,31.0636 210.706,43.9624 210.681,56.8612 210.681,57.0104 209.233,57.5613 208.216,57.7424 207.874,57.7489 210.332,60.5668 210.673,61.0153 210.656,69.76 210.63,82.6588 210.626,84.831 209.85,85.2461 208.98,85.6098 207.722,86.0131 206.718,86.2418 205.547,86.4155 204.419,86.4949 203.098,86.4743 201.112,86.2721 204.026,88.5342 204.23,88.6984 208.525,92.2736 208.786,92.5005 210.607,94.1606 210.579,108.456 210.554,121.355 210.549,124.047 210.547,124.049 209.382,124.813 209.354,124.825 209.72,125.151 210.545,126.082 210.503,147.153 210.478,160.052 210.452,172.95 210.447,175.299 210.237,175.775 208.849,178.323 208.116,179.43 206.335,181.672 205.364,182.688 203.222,184.553 202.002,185.423 201.115,185.933 201.613,186.151 202.873,186.851 205.271,188.495 206.461,189.501 208.434,191.546 209.451,192.86 210.41,194.42 210.401,198.748 210.376,211.647 210.366,216.489 210.122,216.99 209.934,217.35 209.172,218.721 208.986,219.037 208.161,220.369 206.149,222.283 206.275,222.388 209.011,224.92 209.568,225.492 210.365,226.398 210.438,235.84 210.602,246.657 210.899,256.963 211.17,262.414 210.521,263.259 210.35,263.474 208.154,266.131 206.602,268.196 206,269.322 205.973,269.457 205.994,269.567 206.322,270.099 207.611,271.402 209.812,273.256 209.946,273.371 212.058,275.235 212.112,275.909 213.138,284.482 214.519,292.41 216.308,299.661 218.563,306.2 221.336,311.994 224.685,317.011 228.665,321.215 233.33,324.575 238.737,327.056 244.939,328.626 249.072,328.991 249.766,330.128 251.276,333.252 251.757,334.524 252.384,336.764 254.682,332.453 255.485,331.239 257.396,328.872 259.171,328.749 265.518,327.271 271.013,324.853 275.719,321.532 279.698,317.343 283.01,312.324 285.72,306.511 287.888,299.942 289.576,292.653 290.848,284.68 291.763,276.06 292.208,269.47 292.363,269.277 293.227,268.416 294.662,267.291 295.673,266.676 297.308,265.928 297.336,265.919 294.068,263.114 292.603,261.412 292.778,257.028 293,246.688 293.115,235.848 293.177,225.923 294.715,222.946 294.536,222.798 293.516,221.777 293.179,221.37 293.159,211.647 293.133,198.748 293.133,198.401 293.513,197.94 294.531,196.921 296.009,195.695 297.214,194.874 298.031,194.425 297.702,194.027 296.877,192.808 296.23,191.621 295.641,190.233 295.232,188.924 294.92,187.406 294.777,186.003 294.777,184.441 294.92,183.039 295.232,181.52 295.642,180.211 296.231,178.824 296.878,177.638 297.703,176.42 298.559,175.385 298.708,175.236 297.932,174.905 295.707,173.463 294.295,172.151 293.18,170.857 293.077,170.707 293.056,160.052 293.004,134.254 292.994,129.176 294.559,127.732 294.519,127.592 294.434,127.27 294.254,126.525 294.18,126.179 294.033,125.417 293.971,125.043 293.861,124.27 293.814,123.864 293.745,123.082 293.719,122.641 293.695,121.855 293.72,120.969 293.97,118.026 294.187,116.752 294.956,113.777 295.407,112.504 296.721,109.627 297.453,108.358 299.339,105.71 299.97,104.995 299.353,105.192 296.955,105.556 296.719,105.555 296.292,105.54 296.1,105.528 294.952,105.368 294.801,105.335 292.945,104.634 292.906,85.2137 293.759,83.6559 294.525,82.2544 293.543,82.085 292.899,81.9006 292.875,69.76 292.859,62.1366 293.764,61.5161 293.477,61.3744 292.857,61.0416 292.819,41.979 293.105,41.8173 293.328,41.696 294.518,41.0732 294.344,40.8054 292.812,38.5605 292.797,31.0636 292.771,18.1648 303.847,18.0936 305.529,18.96 305.686,19.0431 308.389,20.5154 308.409,20.3487 308.525,19.6476 308.698,18.8407 308.91,18.0611 316.278,18.0137 328.031,17.9382 339.784,17.8626 351.538,17.787 363.291,17.7115 375.044,17.6359 376.847,17.6243 379.008,18.6157 380.353,19.4069 386.283,23.7597 386.297,23.4285 387.817,20.6773 388.443,19.9492 390.996,18.0057 392.011,17.5268 410.304,17.4092 422.057,17.3337 433.81,17.2581 441.141,17.211 441.401,17.3515 442.938,18.4433 444.963,20.295 445.552,21.038 445.739,20.674 446.617,19.3314 448.059,17.56 448.458,17.1639 457.317,17.107 469.07,17.0314 480.823,16.9559 " fill="none" stroke-width="0.5" stroke="rgb(0,0,0)" />
	<polygon points="192.323,443.751 192.696,444.848 193.237,446.949 194.365,447.198 195.901,447.444 197.384,447.598 198.584,447.645 200.188,447.557 201.683,447.294 202.987,446.867 204.03,446.315 204.835,445.652 205.499,444.792 206.086,443.503 206.223,442.871 202.894,443.12 201.717,443.117 195.498,442.628 194.196,442.412 191.454,441.712 " fill="none" stroke-width="0.5" stroke="rgb(0,0,0)" />
	<polygon points="158.77,437.515 157.678,438.853 153.801,442.643 154.815,442.229 156.908,440.818 158.418,439.193 159.512,437.25 159.999,435.607 " fill="none" stroke-width="0.5" stroke="rgb(0,0,0)" />
	<polygon points="316.576,420.478 315.092,420.794 315.341,421.249 315.835,422.547 316.147,423.578 316.478,425.031 316.539,425.328 316.787,426.66 316.808,426.749 317.579,427.304 318.062,427.682 318.929,428.417 319.79,429.274 320.523,430.128 320.786,430.524 321.151,430.137 321.428,429.858 322.143,429.173 322.532,428.825 323.241,428.234 323.792,427.813 324.493,427.328 325.285,426.848 325.975,426.484 327.098,426.002 326.641,425.135 326.292,423.894 326.004,421.809 326.004,417.37 " fill="none" stroke-width="0.5" stroke="rgb(0,0,0)" />
	<polygon points="388.33,420.297 388.34,420.226 388.197,420.198 " fill="none" stroke-width="0.5" stroke="rgb(0,0,0)" />
	<polygon points="166.309,413.517 166.314,414.64 165.994,419.324 165.953,419.612 166.752,419.272 170.212,419.804 170.186,419.041 170.219,418.673 170.515,417.133 170.611,416.813 171.33,415.156 171.488,414.885 172.641,413.371 172.685,413.327 172.138,413.071 169.502,411.689 168.9,411.338 166.473,409.771 165.991,409.425 " fill="none" stroke-width="0.5" stroke="rgb(0,0,0)" />
	<polygon points="379.143,417.107 379.506,417.009 379.453,416.984 379.143,416.812 " fill="none" stroke-width="0.5" stroke="rgb(0,0,0)" />
	<polygon points="259.239,403.356 258.963,404.287 258.391,405.692 257.972,406.487 258.586,406.759 261.445,408.186 261.946,408.46 264.728,410.116 265.146,410.383 267.763,412.179 268.145,412.459 270.509,414.305 270.898,414.629 272.921,416.435 273.178,416.683 274.001,416.542 274.321,416.493 275.655,416.321 275.959,416.288 277.154,416.181 268.993,411.351 267.692,410.382 260.591,403.827 259.579,402.687 259.413,402.458 " fill="none" stroke-width="0.5" stroke="rgb(0,0,0)" />
	<polygon points="350.185,395.627 349.475,396.812 348.521,398.122 352.862,397.879 353.569,397.872 354.028,397.889 353.662,397.564 352.683,396.445 351.888,395.357 351.032,393.94 351.015,393.907 " fill="none" stroke-width="0.5" stroke="rgb(0,0,0)" />
	<polygon points="309.071,394.469 308.496,394.638 305.284,395.448 304.666,395.573 307.528,395.454 309.854,395.148 309.508,394.666 309.412,394.355 " fill="none" stroke-width="0.5" stroke="rgb(0,0,0)" />
	<polygon points="203.701,391.662 204.177,392.723 204.809,394.475 205.868,392.911 207.642,391.052 209.848,389.407 207.195,389.643 205.669,389.626 202.4,389.266 " fill="none" stroke-width="0.5" stroke="rgb(0,0,0)" />
	<polygon points="243.028,374.733 243.591,375.11 244.855,376.168 245.598,376.94 245.724,377.098 246.251,377.113 246.951,377.183 246.375,375.061 246.138,373.734 245.883,370.894 " fill="none" stroke-width="0.5" stroke="rgb(0,0,0)" />
	<polygon points="83.6007,367.481 82.7591,367.592 81.8334,367.658 80.0018,367.677 80.6847,369.404 81.3565,373.841 83.3857,372.033 84.3846,371.279 86.241,370.103 85.406,369.391 84.3951,368.351 83.6862,367.468 " fill="none" stroke-width="0.5" stroke="rgb(0,0,0)" />
	<polygon points="357.461,370.522 357.387,371.243 358.679,370.8 359.281,370.621 359.293,370.618 358.487,370.093 357.012,368.905 " fill="none" stroke-width="0.5" stroke="rgb(0,0,0)" />
	<polygon points="324.971,367.712 324.337,368.717 326.387,368.583 326.31,368.544 324.987,367.68 " fill="none" stroke-width="0.5" stroke="rgb(0,0,0)" />
	<polygon points="117.795,356.451 117.663,357.967 117.252,360.156 116.81,361.653 116.713,361.889 120.557,361.541 120.873,361.545 119.83,360.383 119.163,359.413 118.187,357.436 117.856,356.42 117.791,356.099 " fill="none" stroke-width="0.5" stroke="rgb(0,0,0)" />
	<polygon points="294.252,358.978 293.479,359.222 294.581,360.039 294.749,360.168 295.838,361.024 295.822,360.853 295.797,359.769 295.85,358.663 295.887,358.241 " fill="none" stroke-width="0.5" stroke="rgb(0,0,0)" />
	<polygon points="394.029,342.335 393.352,342.821 392.331,343.474 390.372,344.369 389.537,344.616 387.723,344.765 388.637,347.355 389.027,349.049 389.047,349.226 392.941,345.963 394.788,344.816 397.022,343.834 396.292,342.955 396.118,342.737 395.128,341.452 " fill="none" stroke-width="0.5" stroke="rgb(0,0,0)" />
	<polygon points="58.9682,341.926 61.6041,346.166 61.6129,346.08 62.1043,343.804 62.6129,342.261 63.5413,340.205 63.6472,340.02 62.5128,339.777 61.4741,339.477 59.0053,338.57 58.5311,338.343 " fill="none" stroke-width="0.5" stroke="rgb(0,0,0)" />
	<polygon points="165.34,323.463 165.111,324.764 164.36,327.579 163.911,328.824 162.673,331.504 161.98,332.707 160.266,335.144 159.289,336.28 157.108,338.364 155.825,339.355 153.69,340.67 155.826,341.964 156.746,342.618 159.095,344.564 159.84,345.269 159.887,345.32 159.847,344.324 159.905,342.54 159.94,342.015 160.119,340.25 160.205,339.646 160.511,337.969 160.687,337.218 161.126,335.694 161.488,334.701 162.066,333.399 162.838,332.049 163.562,331.036 165.204,329.354 166.079,328.696 168.626,327.518 166.676,324.566 165.921,323.104 165.474,321.951 " fill="none" stroke-width="0.5" stroke="rgb(0,0,0)" />
	<polygon points="415.604,333.456 413.827,333.648 413.896,334.03 413.916,334.15 414.14,335.519 414.182,335.808 414.34,337.078 414.389,337.622 414.449,338.751 414.456,339.382 414.447,339.715 414.41,340.276 414.376,340.611 414.363,340.696 418.156,341.02 418.82,341.134 417.241,338.059 416.154,333.351 " fill="none" stroke-width="0.5" stroke="rgb(0,0,0)" />
	<polygon points="128.234,338.978 128.851,338.729 128.913,338.709 128.242,338.11 " fill="none" stroke-width="0.5" stroke="rgb(0,0,0)" />
	<polygon points="385.193,312.836 384.357,314.639 383.774,316.238 383.594,317.166 383.399,319.294 383.225,322.23 383.208,322.526 383.653,321.396 384.503,318.778 385.043,316.353 385.245,313.924 385.224,312.781 " fill="none" stroke-width="0.5" stroke="rgb(0,0,0)" />
	<polygon points="75.4636,312.168 74.5648,315.615 74.2725,318.321 74.2996,319.282 74.4172,320.396 74.6268,321.384 74.9239,322.248 75.511,321.292 76.4093,320.105 77.827,318.566 78.9368,317.574 80.6378,316.326 81.9014,315.574 82.2254,315.421 81.0066,314.788 79.7507,313.972 78.3217,312.831 77.2217,311.756 76.0962,310.412 " fill="none" stroke-width="0.5" stroke="rgb(0,0,0)" />
	<polygon points="350.76,321.574 350.958,321.167 351.192,320.73 350.183,320.443 349.228,320.093 " fill="none" stroke-width="0.5" stroke="rgb(0,0,0)" />
	<polygon points="343.126,314.667 342.658,315.142 344.219,316.206 344.166,316.13 343.463,314.221 " fill="none" stroke-width="0.5" stroke="rgb(0,0,0)" />
	<polygon points="132.923,307.037 132.921,307.508 134.023,307.383 134.203,307.401 134.895,307.56 134.644,307.039 132.625,303.656 " fill="none" stroke-width="0.5" stroke="rgb(0,0,0)" />
	<polygon points="162.52,298.585 161.012,298.942 159.829,299.098 158.18,299.138 157.992,299.123 158.779,300.332 159.211,301.085 162.316,307.287 162.466,304.485 162.554,303.668 163.046,300.621 163.217,299.828 163.663,298.19 " fill="none" stroke-width="0.5" stroke="rgb(0,0,0)" />
	<polygon points="311.82,305.893 311.862,305.901 311.996,305.931 311.958,305.801 " fill="none" stroke-width="0.5" stroke="rgb(0,0,0)" />
	<polygon points="434.43,295.341 434.084,295.804 434.778,296.178 434.497,295.25 " fill="none" stroke-width="0.5" stroke="rgb(0,0,0)" />
	<polygon points="458.6,289.674 457.753,290.376 456.6,291.768 456.519,291.893 456.528,291.893 459.717,292.407 459.771,292.424 459.761,292.214 459.582,290.992 459.299,289.901 459.111,289.437 " fill="none" stroke-width="0.5" stroke="rgb(0,0,0)" />
	<polygon points="88.5899,284.183 86.2353,288.716 86.1137,288.951 87.0482,289.442 87.5697,289.856 87.9808,290.229 88.2275,289.03 88.5355,285.798 88.5938,284.175 " fill="none" stroke-width="0.5" stroke="rgb(0,0,0)" />
	<polygon points="156.995,228.27 156.694,228.887 157.662,229.99 158.471,233.765 158.411,235.192 158.389,235.536 158.23,237.358 158.214,237.519 157.989,239.591 157.981,239.666 157.723,241.842 157.721,241.859 157.466,243.974 157.251,245.838 157.115,247.218 157.083,247.821 158.115,248.418 160.101,251.771 160.567,253.396 160.712,253.994 161.078,255.804 161.143,256.176 161.435,258.104 161.463,258.311 161.707,260.289 161.716,260.36 161.936,262.287 162.148,264.015 162.178,264.217 162.593,264.35 163.028,264.877 163.114,261.727 164.255,257.753 165.725,254.969 167.904,252.337 166.35,252.674 162.628,251.533 159.94,248.718 159.141,243.379 159.379,242.261 159.582,241.209 159.76,240.164 159.91,239.125 160.031,238.092 160.12,237.065 160.175,236.042 160.191,235.138 160.1,233.282 159.827,231.556 159.332,229.828 158.563,228.048 157.828,226.82 " fill="none" stroke-width="0.5" stroke="rgb(0,0,0)" />
	<polygon points="131.085,252.763 131.095,252.691 132.095,251.573 131.813,250.408 131.18,248.356 130.371,245.927 130.353,245.871 129.951,244.635 " fill="none" stroke-width="0.5" stroke="rgb(0,0,0)" />
	<polygon points="382.861,246.581 381.99,247.879 381.165,248.872 380.054,249.964 379.049,250.769 378.43,251.17 378.817,251.645 379.554,250.95 380.408,250.253 381.535,249.461 383.825,248.363 384.533,248.158 382.919,246.473 " fill="none" stroke-width="0.5" stroke="rgb(0,0,0)" />
	<polygon points="327.661,236.213 326.104,236.213 324.782,236.078 325.012,236.257 326.883,238.373 329.101,242.077 329.842,241.707 330.907,241.297 330.521,240.587 329.934,239.199 329.229,236.938 329.052,236.073 " fill="none" stroke-width="0.5" stroke="rgb(0,0,0)" />
	<polygon points="312.623,226.361 310.765,226.949 309.871,227.134 309.883,227.171 310.751,228.148 312.84,229.39 315.229,230.428 315.181,230.37 314.357,229.15 313.711,227.964 313.124,226.577 313.005,226.197 " fill="none" stroke-width="0.5" stroke="rgb(0,0,0)" />
	<polygon points="464.536,226.677 464.532,226.695 463.997,229.598 463.947,229.894 463.95,229.886 464.638,227.234 464.852,224.934 " fill="none" stroke-width="0.5" stroke="rgb(0,0,0)" />
	<polygon points="86.6729,213.41 87.5577,214.289 88.0205,214.87 88.8334,216.125 89.1896,216.813 89.6684,217.954 89.9202,218.722 90.179,219.742 90.3285,220.563 90.44,221.495 90.4438,221.559 90.7244,221.42 92.8626,220.729 93.5915,220.607 95.9396,220.576 96.5834,220.666 98.6502,221.26 99.2619,221.534 99.7935,221.861 99.9007,220.416 100.071,219.279 100.904,215.614 97.9762,215.936 96.2794,215.935 93.0902,215.579 91.3631,215.181 88.4989,214.161 86.9234,213.389 86.7627,213.285 " fill="none" stroke-width="0.5" stroke="rgb(0,0,0)" />
	<polygon points="438.468,213.169 437.872,213.338 432.751,214.569 432.054,214.703 427.393,215.376 427.959,215.741 431.652,218.805 432.85,220.051 433.645,221.09 433.872,220.561 434.61,219.227 437.133,215.573 437.864,214.668 439.636,212.787 " fill="none" stroke-width="0.5" stroke="rgb(0,0,0)" />
	<polygon points="65.5433,216.318 65.9775,216.605 66.4944,217.072 67.7971,218.606 68.1969,219.225 68.2446,219.319 69.3607,217.42 68.1633,217.106 66.84,216.627 65.6899,216.087 " fill="none" stroke-width="0.5" stroke="rgb(0,0,0)" />
	<polygon points="189.918,214.114 191.127,216.515 191.236,216.81 193.574,216.261 193.224,215.595 192.685,214.974 191.847,214.362 190.492,213.737 189.479,213.457 " fill="none" stroke-width="0.5" stroke="rgb(0,0,0)" />
	<polygon points="381.817,201.89 381.135,203.137 380.31,204.353 379.728,205.057 380.408,205.618 380.934,206.142 382.982,203.636 383.953,203.254 381.951,201.621 381.937,201.606 " fill="none" stroke-width="0.5" stroke="rgb(0,0,0)" />
	<polygon points="365.383,171.241 366.158,172.658 366.749,174.045 367.407,176.138 367.722,177.662 367.952,179.901 367.952,180.358 368.876,180.358 366.367,172.329 366.138,171.396 366.031,170.804 " fill="none" stroke-width="0.5" stroke="rgb(0,0,0)" />
	<polygon points="146.673,175.869 145.652,176.139 145.241,176.218 146.892,177.796 147.611,175.55 " fill="none" stroke-width="0.5" stroke="rgb(0,0,0)" />
	<polygon points="108.028,164.12 106.993,164.975 105.773,165.802 104.587,166.448 103.199,167.038 101.891,167.447 101.414,167.545 104.621,169.723 105.411,170.338 108.409,173.005 109.197,173.816 111.786,176.909 112.007,177.224 112.78,175.801 113.861,174.284 115.247,172.766 116.171,171.994 115.756,171.692 112.863,169.047 111.792,167.839 109.57,164.728 108.825,163.438 108.789,163.358 " fill="none" stroke-width="0.5" stroke="rgb(0,0,0)" />
	<polygon points="424.058,143.539 422.634,145.242 419.893,147.693 418.567,148.647 416.472,149.839 417.232,149.907 418.724,150.192 425.143,152.089 426.565,152.669 432.251,155.68 432.511,155.848 430.971,150.481 430.9,147.45 430.026,147.146 428.347,146.408 426.981,145.633 425.621,144.665 424.183,143.336 " fill="none" stroke-width="0.5" stroke="rgb(0,0,0)" />
	<polygon points="355.499,145.032 355.555,145.02 356.896,144.885 358.438,144.885 359.778,145.02 361.287,145.327 362.521,145.71 358.117,141.857 357.186,140.887 356.029,139.447 " fill="none" stroke-width="0.5" stroke="rgb(0,0,0)" />
	<polygon points="126.919,138.125 127.351,139.415 127.829,141.709 127.888,142.028 127.904,142.121 127.952,141.975 128.255,140.923 128.514,139.88 128.727,138.858 128.891,137.871 128.989,137.075 " fill="none" stroke-width="0.5" stroke="rgb(0,0,0)" />
	<polygon points="313.969,125.439 312.908,125.934 311.994,126.563 311.244,127.283 310.684,128.025 310.334,128.69 309.954,129.89 309.088,131.265 309.157,131.302 310.023,131.653 310.865,131.887 311.753,132.029 312.824,132.083 313.069,132.076 313.518,132.041 314.079,131.98 314.722,131.897 315.403,131.805 315.466,131.796 315.766,131.758 315.435,131.224 315.25,130.869 314.806,129.834 314.677,129.461 314.399,128.431 314.323,128.045 314.194,127.047 314.169,126.654 314.195,125.378 " fill="none" stroke-width="0.5" stroke="rgb(0,0,0)" />
	<polygon points="92.7606,115.218 92.2532,115.65 89.99,117.413 88.8816,118.132 86.5435,119.379 84.4082,120.14 82.0068,120.613 81.2735,120.645 81.4035,122.929 81.414,123.537 81.3823,124.964 81.3785,125.051 81.4998,124.969 82.6859,124.321 84.0755,123.731 85.3844,123.321 86.9041,123.009 88.3072,122.866 89.8674,122.866 91.2724,123.009 92.7901,123.32 94.101,123.73 94.5783,123.932 93.9498,119.233 93.9293,119.066 93.4304,114.596 " fill="none" stroke-width="0.5" stroke="rgb(0,0,0)" />
	<polygon points="185.622,111.444 185.375,112.503 185.145,113.247 184.617,114.53 184.281,115.176 183.32,116.604 182.869,117.134 181.401,118.468 180.828,118.867 179.018,119.799 178.313,120.051 176.518,120.458 175.674,120.546 174.957,120.489 175.175,120.933 176.75,125.025 179.538,123.086 180.48,122.526 183.6,120.959 184.804,120.477 188.025,119.493 189.484,119.197 192.221,118.914 192.173,118.861 187.929,113.849 187.677,113.535 185.703,110.94 " fill="none" stroke-width="0.5" stroke="rgb(0,0,0)" />
	<polygon points="125.327,112.448 124.528,115.644 125.493,114.51 126.378,113.627 126.589,113.448 126.326,113.21 125.395,112.204 " fill="none" stroke-width="0.5" stroke="rgb(0,0,0)" />
	<polygon points="414.37,104.434 416.513,106.4 416.58,106.475 416.562,105.093 416.896,104.478 416.313,104.472 416.163,104.469 414.34,104.416 " fill="none" stroke-width="0.5" stroke="rgb(0,0,0)" />
	<polygon points="393.739,103.029 394.539,104.046 395.208,105.06 396.52,104.631 398.118,104.029 399.74,103.401 398.646,103.286 398.502,103.27 395.076,102.845 394.931,102.826 393.336,102.597 " fill="none" stroke-width="0.5" stroke="rgb(0,0,0)" />
	<polygon points="146.241,104.558 148.929,104.362 146.609,102.497 " fill="none" stroke-width="0.5" stroke="rgb(0,0,0)" />
	<polygon points="383.212,98.3846 383.44,98.3774 384.79,98.4585 384.222,97.6291 " fill="none" stroke-width="0.5" stroke="rgb(0,0,0)" />
	<polygon points="66.5012,96.3541 68.6793,97.3585 69.0249,97.5811 69.1321,96.7567 69.1336,96.7456 69.3846,94.8366 " fill="none" stroke-width="0.5" stroke="rgb(0,0,0)" />
	<polygon points="127.198,63.9956 126.47,67.4502 126.364,67.8867 125.518,70.9938 125.216,71.7627 125.847,72.171 125.868,72.0553 126.163,70.9303 126.425,70.1723 127.271,68.4508 127.641,67.8893 129.341,66.135 127.732,63.8952 127.345,63.383 " fill="none" stroke-width="0.5" stroke="rgb(0,0,0)" />
	<polygon points="103.723,62.6271 101.883,64.2025 101.691,64.3613 99.91,65.7893 99.1715,66.313 97.6526,67.2611 97.734,67.5443 97.9584,68.5989 98.0661,69.3654 98.1288,70.0657 100.056,68.928 102.114,68.2146 105.375,67.959 105.244,66.3953 105.224,66.073 105.083,62.6568 104.981,61.6023 " fill="none" stroke-width="0.5" stroke="rgb(0,0,0)" />
	<polygon points="410.696,62.7734 411.136,63.1696 412.757,64.7454 414.473,66.3562 416.164,67.7143 417.792,68.7026 419.323,69.2786 421.213,69.5171 421.284,69.5138 421.755,69.4423 422.109,69.3386 422.111,69.3376 422.14,69.2607 422.16,69.0648 421.872,68.1063 420.531,66.7222 417.137,64.7144 412.45,62.7726 409.533,61.8054 " fill="none" stroke-width="0.5" stroke="rgb(0,0,0)" />
	<polygon points="401.675,59.5825 402.203,59.4841 401.676,59.293 " fill="none" stroke-width="0.5" stroke="rgb(0,0,0)" />
	<polygon points="163.292,48.6685 164.358,49.0309 163.543,48.2208 " fill="none" stroke-width="0.5" stroke="rgb(0,0,0)" />
	<polygon points="397.587,39.1004 398.218,40.6157 398.54,41.704 399.567,41.1884 400.508,40.7918 403.48,39.7653 403.983,39.6104 407.075,38.7744 406.445,38.4419 402.208,36.8359 398.267,35.7146 395.328,34.9791 " fill="none" stroke-width="0.5" stroke="rgb(0,0,0)" />
	<polygon points="152.024,30.6295 152.536,30.9493 152.487,30.362 " fill="none" stroke-width="0.5" stroke="rgb(0,0,0)" />
	<polygon points="82.7208,29.5455 82.9871,29.4469 82.8201,29.2785 " fill="none" stroke-width="0.5" stroke="rgb(0,0,0)" />
</svg>
