<?xml version="1.0" standalone="no" ?>
<!DOCTYPE svg PUBLIC "-//W3C//DTD SVG 1.1//EN" "http://www.w3.org/Graphics/SVG/1.1/DTD/svg11.dtd">
<svg width="500px" height="500px" xmlns="http://www.w3.org/2000/svg" version="1.1" >
	<polygon points="464.273,280.822 463.494,294.7 461.177,309.332 457.24,324.869 451.657,340.977 444.414,357.344 435.504,373.669 424.927,389.664 412.685,405.051 398.777,419.562 383.201,432.943 365.944,444.945 346.979,455.33 326.265,463.857 303.743,470.28 279.342,474.34 252.979,475.76 227.299,474.421 203.411,470.577 181.278,464.478 160.851,456.358 142.088,446.44 124.961,434.939 109.455,422.073 95.567,408.059 83.3017,393.127 72.6688,377.513 63.6792,361.461 56.3418,345.229 50.6615,329.079 46.6352,313.288 44.2484,298.141 43.4405,283.451 43.4405,35.9992 50.0009,35.9488 61.4926,35.8606 61.4926,35.8606 84.4759,35.6843 95.9676,35.5961 95.9676,35.5961 107.459,35.5079 118.951,35.4198 130.443,35.3316 141.934,35.2434 153.426,35.1552 164.918,35.0671 176.409,34.9789 187.901,34.8907 194.174,34.8426 194.157,43.9298 194.131,56.8286 194.106,69.7274 194.106,69.7274 194.08,82.6262 194.029,108.424 194.029,108.424 194.004,121.323 193.953,147.12 193.953,147.12 193.928,160.019 193.902,172.918 193.902,172.918 193.877,185.817 193.851,198.715 193.826,211.614 193.826,211.614 193.8,224.513 193.801,224.673 193.888,235.968 193.889,236.092 194.054,246.909 194.059,247.134 194.356,257.44 194.369,257.784 194.854,267.546 194.886,268.033 195.614,277.217 195.679,277.877 196.706,286.45 196.834,287.321 198.214,295.249 198.451,296.376 200.241,303.627 200.662,305.054 202.916,311.593 203.635,313.346 206.409,319.141 207.572,321.184 210.921,326.2 212.665,328.387 216.645,332.592 218.993,334.645 223.659,338.005 226.427,339.616 231.833,342.098 234.677,343.1 240.88,344.67 243.48,345.111 250.535,345.736 251.947,329.779 253.049,345.761 260.31,345.26 262.924,344.868 269.271,343.39 272.184,342.42 277.679,340.002 280.558,338.374 285.263,335.052 287.719,332.929 291.698,328.74 293.51,326.46 296.823,321.441 298.011,319.316 300.72,313.504 301.436,311.698 303.604,305.129 304.011,303.677 305.699,296.388 305.92,295.259 307.191,287.286 307.305,286.429 308.221,277.809 308.276,277.174 308.899,267.945 308.923,267.491 309.314,257.688 309.324,257.383 309.546,247.044 309.549,246.864 309.664,236.024 309.665,235.951 309.735,224.648 309.735,224.512 309.709,211.614 309.657,185.816 309.632,172.917 309.632,172.917 309.606,160.018 309.554,134.221 309.554,134.221 309.528,121.322 309.451,82.6257 309.451,82.6256 309.425,69.7269 309.354,34.6086 316.384,34.5634 328.137,34.4878 339.891,34.4123 351.644,34.3367 363.397,34.2611 375.15,34.1856 386.904,34.11 410.41,33.9589 422.163,33.8833 433.917,33.8078 457.423,33.6567 464.273,33.6126 " fill="none" stroke-width="0.5" stroke="rgb(0,0,0)" />
</svg>
