<?xml version="1.0" standalone="no" ?>
<!DOCTYPE svg PUBLIC "-//W3C//DTD SVG 1.1//EN" "http://www.w3.org/Graphics/SVG/1.1/DTD/svg11.dtd">
<svg width="500px" height="500px" xmlns="http://www.w3.org/2000/svg" version="1.1" >
	<polygon points="468.823,280.949 468.024,295.185 465.638,310.249 461.603,326.175 455.895,342.646 448.498,359.358 439.405,376.018 428.612,392.341 416.115,408.048 401.91,422.87 385.99,436.545 368.342,448.819 348.944,459.441 327.76,468.162 304.743,474.726 279.839,478.87 252.982,480.316 226.818,478.952 202.442,475.029 179.829,468.798 158.942,460.495 139.75,450.35 122.233,438.588 106.379,425.433 92.1859,411.112 79.6559,395.857 68.7961,379.909 59.6137,363.514 52.1148,346.924 46.3023,330.399 42.1737,314.206 39.7179,298.621 38.8905,283.576 38.8905,31.4839 49.966,31.399 61.4576,31.3108 72.9493,31.2226 72.9493,31.2226 84.441,31.1344 95.9327,31.0463 95.9327,31.0463 107.424,30.9581 118.916,30.8699 130.408,30.7817 141.899,30.6936 153.391,30.6054 164.883,30.5172 176.374,30.429 187.866,30.3408 187.866,30.3408 198.733,30.2575 198.732,31.04 198.732,31.04 198.706,43.9388 198.681,56.8376 198.656,69.7364 198.656,69.7364 198.63,82.6352 198.579,108.433 198.579,108.433 198.554,121.332 198.503,147.129 198.503,147.129 198.478,160.028 198.452,172.927 198.452,172.927 198.427,185.826 198.401,198.724 198.376,211.623 198.376,211.623 198.35,224.522 198.351,224.638 198.438,235.933 198.439,236.023 198.603,246.84 198.607,247.003 198.904,257.309 198.914,257.559 199.399,267.32 199.421,267.673 200.149,276.857 200.197,277.336 201.224,285.909 201.316,286.54 202.697,294.469 202.869,295.286 204.658,302.536 204.964,303.572 207.218,310.111 207.739,311.382 210.513,317.176 211.356,318.657 214.705,323.674 215.97,325.259 219.949,329.464 221.652,330.953 226.318,334.313 228.325,335.481 233.731,337.962 235.793,338.689 241.996,340.259 243.881,340.579 250.936,341.203 251.947,329.779 252.736,341.222 259.997,340.721 261.892,340.437 268.239,338.959 270.351,338.255 275.847,335.837 277.934,334.657 282.64,331.335 284.42,329.796 288.398,325.607 289.713,323.953 293.025,318.934 293.887,317.394 296.596,311.581 297.115,310.272 299.283,303.703 299.578,302.65 301.267,295.361 301.427,294.542 302.698,286.569 302.78,285.948 303.696,277.328 303.736,276.868 304.359,267.638 304.377,267.309 304.768,257.506 304.775,257.285 304.997,246.946 304.999,246.815 305.114,235.976 305.115,235.923 305.185,224.62 305.185,224.522 305.159,211.623 305.133,198.724 305.107,185.825 305.082,172.926 305.082,172.926 305.056,160.028 305.004,134.23 305.004,134.23 304.978,121.331 304.901,82.6348 304.901,82.6348 304.875,69.736 304.797,31.0396 304.797,31.0396 304.795,30.0878 316.355,30.0135 328.108,29.9379 339.861,29.8624 351.615,29.7868 363.368,29.7112 375.121,29.6357 386.874,29.5601 410.381,29.409 422.134,29.3334 433.887,29.2579 457.394,29.1067 468.823,29.0333 " fill="none" stroke-width="0.5" stroke="rgb(0,0,0)" />
	<polygon points="320.581,423.685 320.67,424.077 320.717,424.304 320.845,424.404 321.003,424.538 321.344,424.278 321.984,423.835 321.903,423.249 " fill="none" stroke-width="0.5" stroke="rgb(0,0,0)" />
</svg>
