<?xml version="1.0" standalone="no" ?>
<!DOCTYPE svg PUBLIC "-//W3C//DTD SVG 1.1//EN" "http://www.w3.org/Graphics/SVG/1.1/DTD/svg11.dtd">
<svg width="500px" height="500px" xmlns="http://www.w3.org/2000/svg" version="1.1" >
	<polygon points="472.723,89.3287 472.069,89.9435 466.277,94.1307 468.691,94.6265 470.113,95.0575 472.209,95.9096 472.723,96.1836 472.723,281.059 471.907,295.6 469.463,311.035 465.343,327.295 459.526,344.076 451.999,361.085 442.75,378.032 431.771,394.635 419.055,410.616 404.594,425.705 388.38,439.633 370.398,452.14 350.628,462.966 329.041,471.852 313.929,476.162 313.579,475.813 313.699,476.107 313.731,476.219 305.601,478.537 280.265,482.753 252.986,484.222 226.405,482.836 201.611,478.846 178.587,472.501 157.306,464.042 137.747,453.703 119.895,441.716 103.743,428.313 89.2877,413.728 76.531,398.197 65.4766,381.964 56.129,365.273 48.4916,348.377 42.5659,331.53 38.897,317.14 40.4749,313.918 38.1729,313.871 35.8347,299.033 34.9905,283.683 34.9905,148.754 35.3284,148.346 34.9905,148.247 34.9905,35.9872 36.0324,35.3149 36.1396,35.2469 36.1508,35.2399 34.9905,34.946 34.9905,27.6137 38.4444,27.5872 49.936,27.4991 61.4277,27.4109 72.9194,27.3227 84.4111,27.2345 95.9027,27.1464 107.394,27.0582 118.886,26.97 130.378,26.8818 141.869,26.7937 153.361,26.7055 164.853,26.6173 176.344,26.5291 187.836,26.441 202.641,26.3274 202.632,31.0477 202.632,31.0477 202.606,43.9465 202.581,56.8453 202.556,69.7441 202.53,82.6428 202.522,86.8177 202.459,86.8112 202.522,86.8602 202.479,108.44 202.479,108.44 202.454,121.339 202.403,147.137 202.403,147.137 202.378,160.036 202.352,172.934 202.352,172.934 202.327,185.68 202.202,185.77 201.978,185.898 202.326,186.092 202.301,198.732 202.276,211.631 202.276,211.631 202.25,224.53 202.251,224.608 202.338,235.903 202.339,235.963 202.503,246.78 202.505,246.89 202.802,257.197 202.809,257.365 203.294,267.127 203.309,267.365 204.037,276.549 204.069,276.872 205.096,285.445 205.159,285.871 206.539,293.8 206.655,294.351 208.444,301.602 208.651,302.301 210.905,308.84 211.257,309.698 214.03,315.492 214.6,316.492 217.949,321.508 218.803,322.578 222.782,326.783 223.931,327.788 228.597,331.148 229.951,331.937 235.358,334.418 236.75,334.909 242.952,336.478 244.225,336.694 251.28,337.318 251.651,333.119 252.142,334.416 252.308,335.008 252.468,337.331 259.728,336.83 261.008,336.638 267.355,335.16 268.78,334.685 274.276,332.267 275.685,331.471 280.39,328.149 281.592,327.11 285.571,322.921 286.458,321.805 289.771,316.786 290.352,315.746 293.061,309.934 293.412,309.05 295.58,302.481 295.779,301.77 297.467,294.481 297.575,293.928 298.846,285.955 298.902,285.536 299.818,276.916 299.845,276.605 300.468,267.376 300.48,267.154 300.871,257.351 300.876,257.202 301.098,246.862 301.099,246.774 301.215,235.934 301.215,235.899 301.285,224.596 301.285,224.529 301.259,211.631 301.207,185.833 301.182,172.934 301.182,172.934 301.156,160.035 301.104,134.238 301.104,134.238 301.078,121.339 301.001,82.6426 301.001,82.6426 300.975,69.7438 300.897,31.0474 300.897,31.0474 300.887,26.2128 304.577,26.1891 316.33,26.1136 328.083,26.038 339.836,25.9624 351.59,25.8869 363.343,25.8113 375.096,25.7358 386.849,25.6602 410.356,25.5091 422.109,25.4335 433.862,25.358 445.616,25.2824 457.369,25.2068 469.122,25.1313 472.723,25.1081 " fill="none" stroke-width="0.5" stroke="rgb(0,0,0)" />
	<polygon points="305.64,468.538 305.145,469.064 306.425,469.297 307.094,469.49 308.967,470.296 309.46,470.587 310.327,471.278 309.574,469.851 308.978,468.389 308.225,465.866 308.053,464.986 " fill="none" stroke-width="0.5" stroke="rgb(0,0,0)" />
	<polygon points="192.691,443.594 193.083,444.748 193.563,446.611 194.44,446.805 195.953,447.048 197.412,447.199 198.581,447.245 200.143,447.159 201.586,446.905 202.83,446.498 203.807,445.98 204.546,445.372 205.154,444.584 205.704,443.376 205.719,443.31 202.924,443.518 201.685,443.516 195.467,443.027 194.097,442.8 192.139,442.3 " fill="none" stroke-width="0.5" stroke="rgb(0,0,0)" />
	<polygon points="156.347,440.714 156.646,440.512 157.566,439.522 " fill="none" stroke-width="0.5" stroke="rgb(0,0,0)" />
	<polygon points="316.701,420.858 315.696,421.072 315.715,421.107 316.209,422.404 316.537,423.49 316.868,424.942 316.932,425.255 317.167,426.514 317.813,426.979 318.321,427.377 319.188,428.112 320.093,429.013 320.827,429.868 320.838,429.885 320.859,429.863 321.151,429.569 321.866,428.884 322.275,428.518 322.984,427.927 323.565,427.485 324.265,427 325.098,426.494 325.788,426.13 326.551,425.803 326.256,425.244 325.907,424.002 325.604,421.809 325.604,417.923 " fill="none" stroke-width="0.5" stroke="rgb(0,0,0)" />
	<polygon points="166.708,413.486 166.713,414.667 166.422,418.933 169.801,419.386 169.788,419.005 169.82,418.638 170.132,417.017 170.228,416.698 170.985,414.954 171.142,414.684 172.062,413.476 171.953,413.425 169.317,412.043 168.683,411.674 166.455,410.235 " fill="none" stroke-width="0.5" stroke="rgb(0,0,0)" />
	<polygon points="259.623,403.469 259.347,404.4 258.745,405.879 258.525,406.295 258.764,406.401 261.624,407.828 262.15,408.116 264.933,409.773 265.372,410.054 267.99,411.85 268.391,412.144 270.755,413.989 271.165,414.331 273.187,416.136 273.31,416.255 273.933,416.147 274.27,416.097 275.604,415.924 275.883,415.893 268.79,411.695 267.421,410.676 260.32,404.121 259.644,403.36 " fill="none" stroke-width="0.5" stroke="rgb(0,0,0)" />
	<polygon points="350.545,395.801 349.798,397.048 349.341,397.675 352.84,397.48 353.055,397.478 352.382,396.708 351.546,395.564 351.053,394.748 " fill="none" stroke-width="0.5" stroke="rgb(0,0,0)" />
	<polygon points="204.053,391.471 204.554,392.587 204.919,393.6 205.536,392.686 207.403,390.732 208.478,389.93 207.23,390.041 205.626,390.024 203.117,389.747 " fill="none" stroke-width="0.5" stroke="rgb(0,0,0)" />
	<polygon points="243.599,374.634 243.814,374.778 245.143,375.891 245.886,376.663 245.92,376.704 246.291,376.715 246.412,376.727 245.989,375.166 245.74,373.77 245.579,371.974 " fill="none" stroke-width="0.5" stroke="rgb(0,0,0)" />
	<polygon points="82.8114,367.988 81.8376,368.058 80.5768,368.071 81.0802,369.345 81.6415,373.051 83.1197,371.734 84.1704,370.942 85.5686,370.055 85.1466,369.696 84.0832,368.601 83.5166,367.895 " fill="none" stroke-width="0.5" stroke="rgb(0,0,0)" />
	<polygon points="357.859,370.563 357.849,370.662 358.361,370.486 358.236,370.405 357.84,370.085 " fill="none" stroke-width="0.5" stroke="rgb(0,0,0)" />
	<polygon points="325.092,368.267 325.153,368.263 325.111,368.236 " fill="none" stroke-width="0.5" stroke="rgb(0,0,0)" />
	<polygon points="117.645,360.23 117.289,361.435 120.02,361.188 119.501,360.61 118.833,359.64 118.053,358.059 " fill="none" stroke-width="0.5" stroke="rgb(0,0,0)" />
	<polygon points="294.372,359.36 294.347,359.368 294.819,359.718 294.996,359.854 295.408,360.177 295.398,359.75 295.439,358.878 " fill="none" stroke-width="0.5" stroke="rgb(0,0,0)" />
	<polygon points="394.28,342.647 393.567,343.159 392.546,343.811 390.486,344.752 389.651,345 388.27,345.113 389.014,347.222 389.306,348.488 392.684,345.657 394.627,344.45 396.376,343.682 395.984,343.21 395.801,342.981 395.06,342.02 " fill="none" stroke-width="0.5" stroke="rgb(0,0,0)" />
	<polygon points="59.3545,341.79 61.4145,345.103 61.7133,343.72 62.2483,342.097 63.0581,340.303 62.4289,340.168 61.3362,339.852 59.0141,338.999 " fill="none" stroke-width="0.5" stroke="rgb(0,0,0)" />
	<polygon points="160.593,335.374 159.565,336.569 157.385,338.653 156.035,339.695 154.458,340.667 156.033,341.622 157.001,342.31 159.351,344.256 159.449,344.349 159.447,344.311 159.505,342.527 159.542,341.974 159.721,340.21 159.812,339.574 160.117,337.897 160.303,337.107 160.742,335.583 161.06,334.711 " fill="none" stroke-width="0.5" stroke="rgb(0,0,0)" />
	<polygon points="415.647,333.853 414.296,334 414.311,334.086 414.535,335.455 414.579,335.759 414.737,337.028 414.788,337.601 414.848,338.729 414.856,339.393 414.847,339.727 414.808,340.317 414.806,340.333 418.117,340.615 416.851,338.149 415.85,333.815 " fill="none" stroke-width="0.5" stroke="rgb(0,0,0)" />
	<polygon points="165.497,324.867 164.747,327.682 164.274,328.992 163.619,330.411 164.964,329.034 165.839,328.376 168.041,327.357 166.342,324.786 165.723,323.587 " fill="none" stroke-width="0.5" stroke="rgb(0,0,0)" />
	<polygon points="75.8461,312.287 74.9593,315.687 74.6731,318.337 74.6991,319.255 74.8128,320.333 75.013,321.277 75.0264,321.317 75.1702,321.082 76.1151,319.833 77.5328,318.295 78.7002,317.251 80.4013,316.004 81.3696,315.427 80.8223,315.143 79.5012,314.284 78.0722,313.143 76.915,312.013 76.2366,311.202 " fill="none" stroke-width="0.5" stroke="rgb(0,0,0)" />
	<polygon points="384.727,314.792 384.16,316.345 383.99,317.223 383.798,319.324 383.774,319.729 384.117,318.673 384.647,316.293 384.781,314.674 " fill="none" stroke-width="0.5" stroke="rgb(0,0,0)" />
	<polygon points="343.28,315.081 343.385,315.154 343.337,315.023 " fill="none" stroke-width="0.5" stroke="rgb(0,0,0)" />
	<polygon points="133.321,307.002 133.321,307.069 134.061,306.985 134.151,306.994 133.177,305.361 " fill="none" stroke-width="0.5" stroke="rgb(0,0,0)" />
	<polygon points="162.651,298.963 161.065,299.338 159.881,299.495 158.729,299.523 159.114,300.114 159.569,300.906 161.998,305.757 162.067,304.463 162.159,303.604 162.651,300.557 162.831,299.723 163.078,298.815 " fill="none" stroke-width="0.5" stroke="rgb(0,0,0)" />
	<polygon points="458.815,290.015 458.037,290.66 457.254,291.605 459.316,291.937 459.189,291.071 458.919,290.026 458.898,289.977 " fill="none" stroke-width="0.5" stroke="rgb(0,0,0)" />
	<polygon points="86.6487,288.788 87.2971,289.129 87.7284,289.471 87.8314,288.971 88.1184,285.958 " fill="none" stroke-width="0.5" stroke="rgb(0,0,0)" />
	<polygon points="157.349,228.457 157.178,228.808 157.924,229.626 158.871,233.782 158.811,235.209 158.787,235.571 158.628,237.393 158.612,237.562 158.387,239.634 158.378,239.713 158.12,241.889 158.118,241.907 157.863,244.021 157.649,245.881 157.514,247.248 157.496,247.59 158.322,248.061 160.486,251.661 160.951,253.285 161.104,253.914 161.47,255.725 161.539,256.116 161.83,258.044 161.86,258.262 162.104,260.24 162.113,260.315 162.333,262.24 162.537,263.9 162.666,263.941 162.73,261.617 163.871,257.643 165.417,254.714 166.848,252.986 166.437,253.078 162.597,251.98 159.747,249.182 158.582,245.362 158.75,243.296 158.987,242.181 159.188,241.138 159.365,240.102 159.514,239.073 159.633,238.052 159.721,237.037 159.775,236.027 159.791,235.144 159.702,233.323 159.435,231.643 158.955,229.963 158.206,228.231 157.835,227.611 " fill="none" stroke-width="0.5" stroke="rgb(0,0,0)" />
	<polygon points="131.364,251.866 131.67,251.52 131.427,250.514 130.968,249.025 " fill="none" stroke-width="0.5" stroke="rgb(0,0,0)" />
	<polygon points="382.298,248.135 381.576,249.004 383.713,247.979 383.795,247.955 382.986,247.11 " fill="none" stroke-width="0.5" stroke="rgb(0,0,0)" />
	<polygon points="327.702,236.611 326.063,236.611 325.828,236.587 327.226,238.167 329.255,241.555 329.698,241.334 330.338,241.087 330.17,240.778 329.552,239.318 328.847,237.057 328.735,236.507 " fill="none" stroke-width="0.5" stroke="rgb(0,0,0)" />
	<polygon points="312.744,226.742 310.886,227.33 310.61,227.387 311.009,227.835 313.022,229.033 314.119,229.51 314.006,229.341 313.36,228.155 312.759,226.736 " fill="none" stroke-width="0.5" stroke="rgb(0,0,0)" />
	<polygon points="88.3335,214.621 89.1886,215.941 89.5448,216.629 90.0484,217.829 90.3003,218.597 90.5725,219.67 90.7221,220.491 90.7813,220.986 92.7963,220.335 93.5253,220.212 95.9954,220.18 96.6391,220.27 98.8133,220.895 99.425,221.168 99.4429,221.179 99.5018,220.386 99.6811,219.191 100.39,216.073 98.02,216.334 96.235,216.333 93.0458,215.976 91.229,215.558 88.3648,214.538 88.2055,214.46 " fill="none" stroke-width="0.5" stroke="rgb(0,0,0)" />
	<polygon points="437.966,213.727 432.845,214.958 432.111,215.099 428.449,215.628 431.907,218.497 433.168,219.808 433.555,220.313 434.281,219 436.804,215.346 437.573,214.394 438.287,213.636 " fill="none" stroke-width="0.5" stroke="rgb(0,0,0)" />
	<polygon points="68.1332,218.389 68.2346,218.546 68.748,217.673 68.062,217.493 67.0655,217.132 " fill="none" stroke-width="0.5" stroke="rgb(0,0,0)" />
	<polygon points="191.484,216.335 191.505,216.392 192.973,215.976 192.892,215.822 192.413,215.27 191.644,214.709 190.369,214.121 " fill="none" stroke-width="0.5" stroke="rgb(0,0,0)" />
	<polygon points="381.486,203.329 380.618,204.608 380.292,205.003 380.663,205.309 380.919,205.565 382.497,203.501 383.226,203.176 382.08,202.242 " fill="none" stroke-width="0.5" stroke="rgb(0,0,0)" />
	<polygon points="146.801,176.247 146.057,176.444 146.706,177.065 146.988,176.184 " fill="none" stroke-width="0.5" stroke="rgb(0,0,0)" />
	<polygon points="108.283,164.428 107.248,165.284 105.965,166.153 104.779,166.8 103.318,167.419 102.376,167.714 104.846,169.392 105.677,170.039 108.675,172.706 109.504,173.56 111.953,176.485 112.429,175.61 113.566,174.014 114.952,172.497 115.527,172.016 115.487,171.987 112.593,169.342 111.466,168.071 109.244,164.96 108.698,164.013 " fill="none" stroke-width="0.5" stroke="rgb(0,0,0)" />
	<polygon points="422.901,145.54 420.16,147.992 418.765,148.995 417.712,149.594 418.837,149.808 425.257,151.706 426.752,152.315 431.857,155.019 430.587,150.591 430.501,147.734 429.865,147.512 428.186,146.774 426.749,145.958 425.389,144.991 424.245,143.933 " fill="none" stroke-width="0.5" stroke="rgb(0,0,0)" />
	<polygon points="355.943,144.579 356.856,144.487 358.478,144.487 359.818,144.622 360.929,144.848 357.854,142.158 356.874,141.137 356.334,140.465 " fill="none" stroke-width="0.5" stroke="rgb(0,0,0)" />
	<polygon points="127.407,138.331 127.742,139.334 127.968,140.418 128.124,139.791 128.333,138.785 128.495,137.814 128.501,137.766 " fill="none" stroke-width="0.5" stroke="rgb(0,0,0)" />
	<polygon points="313.107,126.282 312.248,126.874 311.544,127.549 311.023,128.24 310.705,128.845 310.336,130.011 309.672,131.079 310.153,131.273 310.95,131.496 311.794,131.631 312.829,131.683 313.048,131.677 313.481,131.643 314.031,131.582 314.669,131.5 315.1,131.442 315.08,131.408 314.895,131.053 314.428,129.965 314.299,129.591 314.007,128.509 313.931,128.122 313.795,127.072 313.77,126.679 313.785,125.966 " fill="none" stroke-width="0.5" stroke="rgb(0,0,0)" />
	<polygon points="185.757,112.622 185.527,113.365 184.972,114.715 184.636,115.36 183.625,116.863 183.174,117.393 181.63,118.796 181.056,119.195 179.152,120.176 178.448,120.428 176.559,120.856 175.715,120.944 175.604,120.935 176.94,124.405 179.31,122.757 180.3,122.168 183.421,120.602 184.687,120.095 187.908,119.11 189.443,118.799 191.423,118.594 187.623,114.107 187.359,113.778 185.926,111.895 " fill="none" stroke-width="0.5" stroke="rgb(0,0,0)" />
	<polygon points="93.0328,115.511 92.499,115.965 90.2358,117.728 89.0699,118.485 86.7317,119.732 84.4855,120.532 82.0841,121.005 81.6956,121.022 81.8028,122.906 81.8139,123.546 81.796,124.351 82.4942,123.97 83.956,123.349 85.2649,122.94 86.8635,122.611 88.2666,122.468 89.9079,122.468 91.3129,122.611 92.9095,122.939 94.0912,123.308 93.5533,119.286 93.5318,119.111 93.1209,115.429 " fill="none" stroke-width="0.5" stroke="rgb(0,0,0)" />
	<polygon points="125.322,114.118 125.997,113.444 125.598,113.013 " fill="none" stroke-width="0.5" stroke="rgb(0,0,0)" />
	<polygon points="416.136,105.512 416.126,105.2 416.291,104.872 416.151,104.869 415.412,104.848 " fill="none" stroke-width="0.5" stroke="rgb(0,0,0)" />
	<polygon points="394.873,103.825 395.374,104.585 396.387,104.254 397.975,103.655 398.069,103.619 395.027,103.242 394.874,103.222 394.337,103.145 " fill="none" stroke-width="0.5" stroke="rgb(0,0,0)" />
	<polygon points="146.725,104.122 147.886,104.037 146.884,103.231 " fill="none" stroke-width="0.5" stroke="rgb(0,0,0)" />
	<polygon points="67.4051,96.3305 68.7062,96.9304 68.7355,96.7051 68.737,96.6934 68.8873,95.5503 " fill="none" stroke-width="0.5" stroke="rgb(0,0,0)" />
	<polygon points="103.98,62.9341 102.143,64.5064 101.941,64.6734 100.16,66.1014 99.3833,66.6523 98.1199,67.441 98.3545,68.5432 98.4622,69.3098 98.471,69.4083 99.9246,68.5501 101.983,67.8366 104.943,67.5856 104.846,66.4286 104.825,66.0896 104.683,62.6842 104.655,62.3844 " fill="none" stroke-width="0.5" stroke="rgb(0,0,0)" />
	<polygon points="126.861,67.5327 126.75,67.9919 126.372,69.3802 126.937,68.2309 127.307,67.6694 128.826,66.1026 127.54,64.3131 " fill="none" stroke-width="0.5" stroke="rgb(0,0,0)" />
	<polygon points="411.415,62.8828 413.033,64.4561 414.736,66.054 416.394,67.386 417.968,68.3414 419.419,68.8876 421.229,69.1159 421.244,69.1152 421.668,69.0508 421.733,69.032 421.517,68.3148 420.281,67.0391 416.958,65.0731 412.311,63.1478 411.359,62.832 " fill="none" stroke-width="0.5" stroke="rgb(0,0,0)" />
	<polygon points="397.937,38.9082 398.601,40.5022 398.788,41.132 399.387,40.831 400.377,40.4137 403.349,39.3872 403.879,39.2242 405.923,38.6716 402.082,37.2159 398.163,36.1011 396.118,35.5893 " fill="none" stroke-width="0.5" stroke="rgb(0,0,0)" />
</svg>
