<?xml version="1.0" standalone="no" ?>
<!DOCTYPE svg PUBLIC "-//W3C//DTD SVG 1.1//EN" "http://www.w3.org/Graphics/SVG/1.1/DTD/svg11.dtd">
<svg width="500px" height="500px" xmlns="http://www.w3.org/2000/svg" version="1.1" >
	<polygon points="480.823,31.2956 480.776,31.3985 480.609,31.8911 480.571,32.0693 480.682,33.5259 480.823,34.2122 480.823,78.3498 480.1,80.0605 478.899,82.0478 473.584,88.5198 472.069,89.9435 466.277,94.1307 468.691,94.6265 470.113,95.0575 472.209,95.9096 473.678,96.692 475.401,97.851 476.735,98.9737 478.104,100.405 479.137,101.741 480.17,103.41 480.823,104.729 480.823,122.735 480.401,123.687 480.823,124.034 480.823,190.016 478.747,192.419 477.168,193.493 473.775,194.725 474.583,195.502 478.585,199.944 479.481,201.145 480.823,203.344 480.823,245.275 479.037,248.316 478.635,248.933 475.661,253.081 476.313,253.149 478.19,253.574 479.449,254.023 480.823,254.726 480.823,281.286 480.128,293.666 479.703,294.327 479.191,295.035 476.614,298.223 475.959,298.94 473.001,301.815 472.871,301.889 472.891,301.916 473.634,303.083 475.55,306.75 476.026,307.855 477.47,312.035 477.492,312.116 477.405,312.666 473.11,329.62 467.07,347.047 459.27,364.67 455.556,371.475 454.791,371.923 450.799,372.051 449.43,371.362 450.12,378.767 450.052,380.803 449.88,381.874 449.695,382.213 438.331,399.399 425.161,415.952 410.17,431.593 401.57,438.981 401.467,438.964 399.351,438.3 397.858,437.595 396.446,436.741 396.441,436.738 396.482,437.273 396.383,439.284 395.526,444.173 393.345,446.047 374.668,459.037 354.126,470.285 331.702,479.516 323.553,481.84 322.358,481.501 320.851,480.904 318.188,479.527 316.801,478.619 314.602,476.833 313.579,475.813 313.699,476.107 313.825,476.546 314.074,477.753 314.13,478.192 314.192,478.969 314.205,479.384 313.928,481.749 313.53,483.221 312.661,484.947 307.382,486.452 281.151,490.817 266.711,491.595 266.512,491.458 264.686,489.966 263.715,489.029 263.702,489.014 262.787,489.48 262.331,489.694 258.167,491.5 257.694,491.688 256.415,492.149 252.993,492.333 225.548,490.902 199.887,486.773 180.771,481.505 179.006,480.251 175.06,477.479 172.082,475.804 170.273,475.283 167.323,474.991 163.196,474.762 162.704,474.72 162.047,474.643 153.907,471.407 133.585,460.665 131.76,459.44 129.576,457.323 127.483,453.922 127.365,451.724 125.959,451.711 119.15,450.972 115.039,448.212 98.2672,434.295 83.2685,419.161 70.5313,403.654 70.219,401.156 70.1822,399.507 70.3425,397.499 68.5077,397.483 64.7649,395.296 64.7353,395.266 58.5824,386.23 48.8916,368.927 40.9666,351.394 34.8057,333.879 34.1555,331.329 34.4361,329.967 37.4044,320.407 37.8657,319.246 40.4749,313.918 37.5634,313.859 35.5943,313.239 32.2984,311.241 30.4799,309.422 29.1175,307.612 28.9343,307.28 27.7694,299.888 26.8905,283.906 26.8905,237.379 26.9193,237.28 27.267,236.32 28.9286,232.502 29.8686,230.884 30.8811,229.53 30.2918,229.293 28.3121,228.153 26.8905,227.039 26.8905,165.193 27.3425,163.286 27.5998,162.42 29.1719,158.037 29.6911,156.883 32.1176,152.45 32.9876,151.169 35.3284,148.346 34.0296,147.967 32.5687,147.381 30.2825,146.194 28.9432,145.321 26.9575,143.728 26.8905,143.662 26.8905,111.361 27.4795,110.773 28.4255,109.963 30.345,108.561 30.4236,108.513 29.8159,108.214 29.3311,107.914 27.9,106.789 27.5049,106.399 26.8905,105.624 26.8905,91.0934 27.181,90.4915 29.0917,87.6034 27.0242,86.9122 26.8905,86.8409 26.8905,41.65 27.2879,41.3131 31.1786,38.4639 31.5724,38.193 36.0324,35.3149 36.1396,35.2469 36.1508,35.2399 34.5733,34.8403 34.1285,34.714 30.3779,33.5324 29.1568,33.0351 26.8905,31.8892 26.8905,19.5757 38.3822,19.4875 49.8739,19.3993 61.3656,19.3111 72.8572,19.223 84.3489,19.1348 95.8406,19.0466 107.332,18.9584 116.101,18.8911 116.568,19.4109 116.761,19.6338 117.938,21.0448 118.404,21.4802 118.805,21.5379 119.194,21.4823 119.225,21.467 119.812,20.9505 121.076,19.5562 121.285,19.3345 121.76,18.8477 130.316,18.7821 141.807,18.6939 153.299,18.6057 156.767,18.5791 157.647,21.4381 159.253,20.2795 160.68,19.4568 162.742,18.5333 164.791,18.5175 176.282,18.4294 187.774,18.3412 210.757,18.1648 210.736,29.1654 210.667,29.241 210.735,29.262 210.732,31.0636 210.706,43.9624 210.681,56.8612 210.68,57.4312 209.303,57.9551 208.681,58.0659 210.633,60.3039 210.674,60.3578 210.656,69.76 210.63,82.6588 210.625,85.2831 210.004,85.6151 209.134,85.9789 207.811,86.4031 206.807,86.6318 205.575,86.8145 204.447,86.8939 203.058,86.8722 202.459,86.8112 204.271,88.2182 204.486,88.3909 208.781,91.9662 209.055,92.2048 210.609,93.6204 210.579,108.456 210.554,121.355 210.548,124.527 210.012,124.879 210.02,124.886 210.546,125.48 210.503,147.153 210.478,160.052 210.452,172.95 210.446,176.229 209.201,178.514 208.429,179.679 206.648,181.921 205.627,182.989 203.485,184.855 202.202,185.77 201.978,185.898 203.099,186.521 205.498,188.165 206.749,189.223 208.721,191.269 209.792,192.65 210.411,193.658 210.401,198.748 210.376,211.647 210.364,217.389 210.284,217.544 209.522,218.915 209.326,219.248 208.501,220.58 206.742,222.275 209.283,224.626 209.869,225.228 210.36,225.787 210.438,235.84 210.602,246.657 210.899,256.963 211.2,263.031 210.839,263.502 210.658,263.729 208.468,266.379 206.94,268.411 206.388,269.443 206.638,269.85 207.882,271.108 210.07,272.95 210.21,273.071 212.013,274.661 212.112,275.909 213.138,284.482 214.519,292.41 216.308,299.661 218.563,306.2 221.336,311.994 224.685,317.011 228.665,321.215 233.33,324.575 238.737,327.056 244.939,328.626 249.565,329.035 250.127,329.954 251.636,333.078 252.142,334.416 252.5,335.696 254.329,332.265 255.174,330.988 256.852,328.909 259.171,328.749 265.518,327.271 271.013,324.853 275.719,321.532 279.698,317.343 283.01,312.324 285.72,306.511 287.888,299.942 289.576,292.653 290.848,284.68 291.763,276.06 292.252,268.823 292.945,268.133 294.454,266.95 295.465,266.334 296.601,265.815 293.808,263.417 292.579,261.992 292.778,257.028 293,246.688 293.115,235.848 293.182,225.041 294.216,223.04 293.208,222.032 293.18,221.998 293.159,211.647 293.133,198.748 293.131,197.775 293.205,197.686 294.275,196.613 295.753,195.387 297.022,194.523 297.415,194.307 297.393,194.281 296.526,193 295.879,191.813 295.26,190.353 294.85,189.043 294.522,187.446 294.379,186.043 294.38,184.4 294.522,182.998 294.851,181.4 295.26,180.092 295.88,178.632 296.527,177.446 297.395,176.165 298.039,175.386 297.776,175.273 295.435,173.756 294.023,172.444 293.078,171.348 293.056,160.052 293.004,134.254 292.993,128.644 294.108,127.602 294.045,127.364 293.866,126.619 293.787,126.254 293.64,125.493 293.574,125.099 293.465,124.326 293.416,123.899 293.347,123.117 293.32,122.653 293.296,121.867 293.321,120.935 293.571,117.992 293.8,116.652 294.569,113.676 295.043,112.338 296.357,109.46 297.128,108.126 298.882,105.663 296.953,105.956 296.716,105.955 296.267,105.939 296.075,105.927 294.867,105.759 294.716,105.726 292.945,105.057 292.904,84.3844 293.409,83.4639 293.906,82.5535 293.475,82.4791 292.9,82.3145 292.875,69.76 292.858,61.6522 292.986,61.5648 292.858,61.4961 292.818,41.5199 292.908,41.4692 293.142,41.3416 293.941,40.9239 292.814,39.2723 292.797,31.0636 292.771,18.1648 304.525,18.0893 304.71,18.0881 305.712,18.6044 305.877,18.6918 308.08,19.8914 308.134,19.564 308.306,18.7571 308.495,18.0638 316.278,18.0137 328.031,17.9382 339.784,17.8626 351.538,17.787 363.291,17.7115 375.044,17.6359 377.793,17.6182 379.175,18.2521 380.59,19.0845 386.072,23.1085 387.514,20.4165 388.14,19.6884 390.826,17.644 391.061,17.533 410.304,17.4092 422.057,17.3337 433.81,17.2581 441.882,17.2062 443.208,18.1481 445.233,19.9998 445.492,20.3259 446.307,19.0789 447.749,17.3075 447.89,17.1676 457.317,17.107 469.07,17.0314 480.823,16.9559 " fill="none" stroke-width="0.5" stroke="rgb(0,0,0)" />
	<polygon points="305.64,468.538 305.145,469.064 306.425,469.297 307.094,469.49 308.967,470.296 309.46,470.587 310.327,471.278 309.574,469.851 308.978,468.389 308.225,465.866 308.053,464.986 " fill="none" stroke-width="0.5" stroke="rgb(0,0,0)" />
	<polygon points="192.691,443.594 193.083,444.748 193.563,446.611 194.44,446.805 195.953,447.048 197.412,447.199 198.581,447.245 200.143,447.159 201.586,446.905 202.83,446.498 203.807,445.98 204.546,445.372 205.154,444.584 205.704,443.376 205.719,443.31 202.924,443.518 201.685,443.516 195.467,443.027 194.097,442.8 192.139,442.3 " fill="none" stroke-width="0.5" stroke="rgb(0,0,0)" />
	<polygon points="156.347,440.714 156.646,440.512 157.566,439.522 " fill="none" stroke-width="0.5" stroke="rgb(0,0,0)" />
	<polygon points="316.701,420.858 315.696,421.072 315.715,421.107 316.209,422.404 316.537,423.49 316.868,424.942 316.932,425.255 317.167,426.514 317.813,426.979 318.321,427.377 319.188,428.112 320.093,429.013 320.827,429.868 320.838,429.885 320.859,429.863 321.151,429.569 321.866,428.884 322.275,428.518 322.984,427.927 323.565,427.485 324.265,427 325.098,426.494 325.788,426.13 326.551,425.803 326.256,425.244 325.907,424.002 325.604,421.809 325.604,417.923 " fill="none" stroke-width="0.5" stroke="rgb(0,0,0)" />
	<polygon points="166.708,413.486 166.713,414.667 166.422,418.933 169.801,419.386 169.788,419.005 169.82,418.638 170.132,417.017 170.228,416.698 170.985,414.954 171.142,414.684 172.062,413.476 171.953,413.425 169.317,412.043 168.683,411.674 166.455,410.235 " fill="none" stroke-width="0.5" stroke="rgb(0,0,0)" />
	<polygon points="259.623,403.469 259.347,404.4 258.745,405.879 258.525,406.295 258.764,406.401 261.624,407.828 262.15,408.116 264.933,409.773 265.372,410.054 267.99,411.85 268.391,412.144 270.755,413.989 271.165,414.331 273.187,416.136 273.31,416.255 273.933,416.147 274.27,416.097 275.604,415.924 275.883,415.893 268.79,411.695 267.421,410.676 260.32,404.121 259.644,403.36 " fill="none" stroke-width="0.5" stroke="rgb(0,0,0)" />
	<polygon points="350.545,395.801 349.798,397.048 349.341,397.675 352.84,397.48 353.055,397.478 352.382,396.708 351.546,395.564 351.053,394.748 " fill="none" stroke-width="0.5" stroke="rgb(0,0,0)" />
	<polygon points="204.053,391.471 204.554,392.587 204.919,393.6 205.536,392.686 207.403,390.732 208.478,389.93 207.23,390.041 205.626,390.024 203.117,389.747 " fill="none" stroke-width="0.5" stroke="rgb(0,0,0)" />
	<polygon points="243.599,374.634 243.814,374.778 245.143,375.891 245.886,376.663 245.92,376.704 246.291,376.715 246.412,376.727 245.989,375.166 245.74,373.77 245.579,371.974 " fill="none" stroke-width="0.5" stroke="rgb(0,0,0)" />
	<polygon points="82.8114,367.988 81.8376,368.058 80.5768,368.071 81.0802,369.345 81.6415,373.051 83.1197,371.734 84.1704,370.942 85.5686,370.055 85.1466,369.696 84.0832,368.601 83.5166,367.895 " fill="none" stroke-width="0.5" stroke="rgb(0,0,0)" />
	<polygon points="357.859,370.563 357.849,370.662 358.361,370.486 358.236,370.405 357.84,370.085 " fill="none" stroke-width="0.5" stroke="rgb(0,0,0)" />
	<polygon points="325.092,368.267 325.153,368.263 325.111,368.236 " fill="none" stroke-width="0.5" stroke="rgb(0,0,0)" />
	<polygon points="117.645,360.23 117.289,361.435 120.02,361.188 119.501,360.61 118.833,359.64 118.053,358.059 " fill="none" stroke-width="0.5" stroke="rgb(0,0,0)" />
	<polygon points="294.372,359.36 294.347,359.368 294.819,359.718 294.996,359.854 295.408,360.177 295.398,359.75 295.439,358.878 " fill="none" stroke-width="0.5" stroke="rgb(0,0,0)" />
	<polygon points="394.28,342.647 393.567,343.159 392.546,343.811 390.486,344.752 389.651,345 388.27,345.113 389.014,347.222 389.306,348.488 392.684,345.657 394.627,344.45 396.376,343.682 395.984,343.21 395.801,342.981 395.06,342.02 " fill="none" stroke-width="0.5" stroke="rgb(0,0,0)" />
	<polygon points="59.3545,341.79 61.4145,345.103 61.7133,343.72 62.2483,342.097 63.0581,340.303 62.4289,340.168 61.3362,339.852 59.0141,338.999 " fill="none" stroke-width="0.5" stroke="rgb(0,0,0)" />
	<polygon points="160.593,335.374 159.565,336.569 157.385,338.653 156.035,339.695 154.458,340.667 156.033,341.622 157.001,342.31 159.351,344.256 159.449,344.349 159.447,344.311 159.505,342.527 159.542,341.974 159.721,340.21 159.812,339.574 160.117,337.897 160.303,337.107 160.742,335.583 161.06,334.711 " fill="none" stroke-width="0.5" stroke="rgb(0,0,0)" />
	<polygon points="415.647,333.853 414.296,334 414.311,334.086 414.535,335.455 414.579,335.759 414.737,337.028 414.788,337.601 414.848,338.729 414.856,339.393 414.847,339.727 414.808,340.317 414.806,340.333 418.117,340.615 416.851,338.149 415.85,333.815 " fill="none" stroke-width="0.5" stroke="rgb(0,0,0)" />
	<polygon points="165.497,324.867 164.747,327.682 164.274,328.992 163.619,330.411 164.964,329.034 165.839,328.376 168.041,327.357 166.342,324.786 165.723,323.587 " fill="none" stroke-width="0.5" stroke="rgb(0,0,0)" />
	<polygon points="75.8461,312.287 74.9593,315.687 74.6731,318.337 74.6991,319.255 74.8128,320.333 75.013,321.277 75.0264,321.317 75.1702,321.082 76.1151,319.833 77.5328,318.295 78.7002,317.251 80.4013,316.004 81.3696,315.427 80.8223,315.143 79.5012,314.284 78.0722,313.143 76.915,312.013 76.2366,311.202 " fill="none" stroke-width="0.5" stroke="rgb(0,0,0)" />
	<polygon points="384.727,314.792 384.16,316.345 383.99,317.223 383.798,319.324 383.774,319.729 384.117,318.673 384.647,316.293 384.781,314.674 " fill="none" stroke-width="0.5" stroke="rgb(0,0,0)" />
	<polygon points="343.28,315.081 343.385,315.154 343.337,315.023 " fill="none" stroke-width="0.5" stroke="rgb(0,0,0)" />
	<polygon points="133.321,307.002 133.321,307.069 134.061,306.985 134.151,306.994 133.177,305.361 " fill="none" stroke-width="0.5" stroke="rgb(0,0,0)" />
	<polygon points="162.651,298.963 161.065,299.338 159.881,299.495 158.729,299.523 159.114,300.114 159.569,300.906 161.998,305.757 162.067,304.463 162.159,303.604 162.651,300.557 162.831,299.723 163.078,298.815 " fill="none" stroke-width="0.5" stroke="rgb(0,0,0)" />
	<polygon points="458.815,290.015 458.037,290.66 457.254,291.605 459.316,291.937 459.189,291.071 458.919,290.026 458.898,289.977 " fill="none" stroke-width="0.5" stroke="rgb(0,0,0)" />
	<polygon points="86.6487,288.788 87.2971,289.129 87.7284,289.471 87.8314,288.971 88.1184,285.958 " fill="none" stroke-width="0.5" stroke="rgb(0,0,0)" />
	<polygon points="157.349,228.457 157.178,228.808 157.924,229.626 158.871,233.782 158.811,235.209 158.787,235.571 158.628,237.393 158.612,237.562 158.387,239.634 158.378,239.713 158.12,241.889 158.118,241.907 157.863,244.021 157.649,245.881 157.514,247.248 157.496,247.59 158.322,248.061 160.486,251.661 160.951,253.285 161.104,253.914 161.47,255.725 161.539,256.116 161.83,258.044 161.86,258.262 162.104,260.24 162.113,260.315 162.333,262.24 162.537,263.9 162.666,263.941 162.73,261.617 163.871,257.643 165.417,254.714 166.848,252.986 166.437,253.078 162.597,251.98 159.747,249.182 158.582,245.362 158.75,243.296 158.987,242.181 159.188,241.138 159.365,240.102 159.514,239.073 159.633,238.052 159.721,237.037 159.775,236.027 159.791,235.144 159.702,233.323 159.435,231.643 158.955,229.963 158.206,228.231 157.835,227.611 " fill="none" stroke-width="0.5" stroke="rgb(0,0,0)" />
	<polygon points="131.364,251.866 131.67,251.52 131.427,250.514 130.968,249.025 " fill="none" stroke-width="0.5" stroke="rgb(0,0,0)" />
	<polygon points="382.298,248.135 381.576,249.004 383.713,247.979 383.795,247.955 382.986,247.11 " fill="none" stroke-width="0.5" stroke="rgb(0,0,0)" />
	<polygon points="327.702,236.611 326.063,236.611 325.828,236.587 327.226,238.167 329.255,241.555 329.698,241.334 330.338,241.087 330.17,240.778 329.552,239.318 328.847,237.057 328.735,236.507 " fill="none" stroke-width="0.5" stroke="rgb(0,0,0)" />
	<polygon points="312.744,226.742 310.886,227.33 310.61,227.387 311.009,227.835 313.022,229.033 314.119,229.51 314.006,229.341 313.36,228.155 312.759,226.736 " fill="none" stroke-width="0.5" stroke="rgb(0,0,0)" />
	<polygon points="88.3335,214.621 89.1886,215.941 89.5448,216.629 90.0484,217.829 90.3003,218.597 90.5725,219.67 90.7221,220.491 90.7813,220.986 92.7963,220.335 93.5253,220.212 95.9954,220.18 96.6391,220.27 98.8133,220.895 99.425,221.168 99.4429,221.179 99.5018,220.386 99.6811,219.191 100.39,216.073 98.02,216.334 96.235,216.333 93.0458,215.976 91.229,215.558 88.3648,214.538 88.2055,214.46 " fill="none" stroke-width="0.5" stroke="rgb(0,0,0)" />
	<polygon points="437.966,213.727 432.845,214.958 432.111,215.099 428.449,215.628 431.907,218.497 433.168,219.808 433.555,220.313 434.281,219 436.804,215.346 437.573,214.394 438.287,213.636 " fill="none" stroke-width="0.5" stroke="rgb(0,0,0)" />
	<polygon points="68.1332,218.389 68.2346,218.546 68.748,217.673 68.062,217.493 67.0655,217.132 " fill="none" stroke-width="0.5" stroke="rgb(0,0,0)" />
	<polygon points="191.484,216.335 191.505,216.392 192.973,215.976 192.892,215.822 192.413,215.27 191.644,214.709 190.369,214.121 " fill="none" stroke-width="0.5" stroke="rgb(0,0,0)" />
	<polygon points="381.486,203.329 380.618,204.608 380.292,205.003 380.663,205.309 380.919,205.565 382.497,203.501 383.226,203.176 382.08,202.242 " fill="none" stroke-width="0.5" stroke="rgb(0,0,0)" />
	<polygon points="146.801,176.247 146.057,176.444 146.706,177.065 146.988,176.184 " fill="none" stroke-width="0.5" stroke="rgb(0,0,0)" />
	<polygon points="108.283,164.428 107.248,165.284 105.965,166.153 104.779,166.8 103.318,167.419 102.376,167.714 104.846,169.392 105.677,170.039 108.675,172.706 109.504,173.56 111.953,176.485 112.429,175.61 113.566,174.014 114.952,172.497 115.527,172.016 115.487,171.987 112.593,169.342 111.466,168.071 109.244,164.96 108.698,164.013 " fill="none" stroke-width="0.5" stroke="rgb(0,0,0)" />
	<polygon points="422.901,145.54 420.16,147.992 418.765,148.995 417.712,149.594 418.837,149.808 425.257,151.706 426.752,152.315 431.857,155.019 430.587,150.591 430.501,147.734 429.865,147.512 428.186,146.774 426.749,145.958 425.389,144.991 424.245,143.933 " fill="none" stroke-width="0.5" stroke="rgb(0,0,0)" />
	<polygon points="355.943,144.579 356.856,144.487 358.478,144.487 359.818,144.622 360.929,144.848 357.854,142.158 356.874,141.137 356.334,140.465 " fill="none" stroke-width="0.5" stroke="rgb(0,0,0)" />
	<polygon points="127.407,138.331 127.742,139.334 127.968,140.418 128.124,139.791 128.333,138.785 128.495,137.814 128.501,137.766 " fill="none" stroke-width="0.5" stroke="rgb(0,0,0)" />
	<polygon points="313.107,126.282 312.248,126.874 311.544,127.549 311.023,128.24 310.705,128.845 310.336,130.011 309.672,131.079 310.153,131.273 310.95,131.496 311.794,131.631 312.829,131.683 313.048,131.677 313.481,131.643 314.031,131.582 314.669,131.5 315.1,131.442 315.08,131.408 314.895,131.053 314.428,129.965 314.299,129.591 314.007,128.509 313.931,128.122 313.795,127.072 313.77,126.679 313.785,125.966 " fill="none" stroke-width="0.5" stroke="rgb(0,0,0)" />
	<polygon points="185.757,112.622 185.527,113.365 184.972,114.715 184.636,115.36 183.625,116.863 183.174,117.393 181.63,118.796 181.056,119.195 179.152,120.176 178.448,120.428 176.559,120.856 175.715,120.944 175.604,120.935 176.94,124.405 179.31,122.757 180.3,122.168 183.421,120.602 184.687,120.095 187.908,119.11 189.443,118.799 191.423,118.594 187.623,114.107 187.359,113.778 185.926,111.895 " fill="none" stroke-width="0.5" stroke="rgb(0,0,0)" />
	<polygon points="93.0328,115.511 92.499,115.965 90.2358,117.728 89.0699,118.485 86.7317,119.732 84.4855,120.532 82.0841,121.005 81.6956,121.022 81.8028,122.906 81.8139,123.546 81.796,124.351 82.4942,123.97 83.956,123.349 85.2649,122.94 86.8635,122.611 88.2666,122.468 89.9079,122.468 91.3129,122.611 92.9095,122.939 94.0912,123.308 93.5533,119.286 93.5318,119.111 93.1209,115.429 " fill="none" stroke-width="0.5" stroke="rgb(0,0,0)" />
	<polygon points="125.322,114.118 125.997,113.444 125.598,113.013 " fill="none" stroke-width="0.5" stroke="rgb(0,0,0)" />
	<polygon points="416.136,105.512 416.126,105.2 416.291,104.872 416.151,104.869 415.412,104.848 " fill="none" stroke-width="0.5" stroke="rgb(0,0,0)" />
	<polygon points="394.873,103.825 395.374,104.585 396.387,104.254 397.975,103.655 398.069,103.619 395.027,103.242 394.874,103.222 394.337,103.145 " fill="none" stroke-width="0.5" stroke="rgb(0,0,0)" />
	<polygon points="146.725,104.122 147.886,104.037 146.884,103.231 " fill="none" stroke-width="0.5" stroke="rgb(0,0,0)" />
	<polygon points="67.4051,96.3305 68.7062,96.9304 68.7355,96.7051 68.737,96.6934 68.8873,95.5503 " fill="none" stroke-width="0.5" stroke="rgb(0,0,0)" />
	<polygon points="103.98,62.9341 102.143,64.5064 101.941,64.6734 100.16,66.1014 99.3833,66.6523 98.1199,67.441 98.3545,68.5432 98.4622,69.3098 98.471,69.4083 99.9246,68.5501 101.983,67.8366 104.943,67.5856 104.846,66.4286 104.825,66.0896 104.683,62.6842 104.655,62.3844 " fill="none" stroke-width="0.5" stroke="rgb(0,0,0)" />
	<polygon points="126.861,67.5327 126.75,67.9919 126.372,69.3802 126.937,68.2309 127.307,67.6694 128.826,66.1026 127.54,64.3131 " fill="none" stroke-width="0.5" stroke="rgb(0,0,0)" />
	<polygon points="411.415,62.8828 413.033,64.4561 414.736,66.054 416.394,67.386 417.968,68.3414 419.419,68.8876 421.229,69.1159 421.244,69.1152 421.668,69.0508 421.733,69.032 421.517,68.3148 420.281,67.0391 416.958,65.0731 412.311,63.1478 411.359,62.832 " fill="none" stroke-width="0.5" stroke="rgb(0,0,0)" />
	<polygon points="397.937,38.9082 398.601,40.5022 398.788,41.132 399.387,40.831 400.377,40.4137 403.349,39.3872 403.879,39.2242 405.923,38.6716 402.082,37.2159 398.163,36.1011 396.118,35.5893 " fill="none" stroke-width="0.5" stroke="rgb(0,0,0)" />
</svg>
