<?xml version="1.0" standalone="no" ?>
<!DOCTYPE svg PUBLIC "-//W3C//DTD SVG 1.1//EN" "http://www.w3.org/Graphics/SVG/1.1/DTD/svg11.dtd">
<svg width="500px" height="500px" xmlns="http://www.w3.org/2000/svg" version="1.1" >
	<polygon points="471.273,92.3081 469.721,93.4299 470.659,93.7143 471.273,93.964 471.273,281.018 470.463,295.445 468.041,310.742 463.952,326.878 458.176,343.544 450.697,360.443 441.506,377.283 430.596,393.782 417.962,409.661 403.596,424.651 387.491,438.485 369.634,450.905 350.002,461.655 328.565,470.48 305.282,477.12 280.107,481.309 252.984,482.77 226.558,481.392 201.92,477.427 179.049,471.124 157.914,462.723 138.492,452.456 120.764,440.553 104.723,427.242 90.3652,412.755 77.6928,397.327 66.7108,381.2 57.4246,364.619 49.8387,347.836 43.9551,331.109 39.7714,314.701 37.2784,298.88 36.4405,283.643 36.4405,29.0527 38.4555,29.0372 49.9472,28.949 61.4388,28.8609 72.9305,28.7727 84.4222,28.6845 95.9139,28.5963 107.406,28.5081 118.897,28.42 130.389,28.3318 130.389,28.3318 141.881,28.2436 153.372,28.1554 153.372,28.1554 164.864,28.0673 176.356,27.9791 187.847,27.8909 187.847,27.8909 201.188,27.7885 201.182,31.0448 201.182,31.0448 201.156,43.9436 201.131,56.8424 201.106,69.7412 201.106,69.7412 201.08,82.64 201.029,108.438 201.029,108.438 201.004,121.336 200.953,147.134 200.953,147.134 200.928,160.033 200.902,172.932 200.902,172.932 200.877,185.83 200.851,198.729 200.826,211.628 200.826,211.628 200.8,224.527 200.801,224.619 200.888,235.914 200.889,235.985 201.053,246.802 201.056,246.932 201.353,257.238 201.361,257.437 201.846,267.199 201.864,267.48 202.592,276.664 202.63,277.045 203.656,285.617 203.73,286.12 205.11,294.049 205.247,294.699 207.037,301.949 207.28,302.773 209.534,309.312 209.949,310.324 212.723,316.118 213.394,317.297 216.743,322.313 217.749,323.575 221.729,327.78 223.084,328.965 227.749,332.324 229.347,333.254 234.753,335.736 236.394,336.314 242.597,337.884 244.097,338.138 251.152,338.763 251.901,330.294 251.996,330.49 252.568,338.777 259.828,338.277 261.337,338.05 267.684,336.573 269.364,336.013 274.86,333.594 276.521,332.655 281.227,329.334 282.644,328.108 286.622,323.92 287.668,322.604 290.981,317.585 291.666,316.359 294.376,310.546 294.789,309.504 296.957,302.935 297.191,302.097 298.88,294.808 299.007,294.156 300.278,286.184 300.344,285.689 301.26,277.069 301.292,276.703 301.914,267.473 301.929,267.212 302.32,257.409 302.325,257.233 302.548,246.893 302.549,246.789 302.664,235.95 302.665,235.908 302.735,224.605 302.735,224.526 302.709,211.628 302.683,198.729 302.657,185.83 302.632,172.931 302.632,172.931 302.606,160.032 302.554,134.235 302.554,134.235 302.528,121.336 302.451,82.6397 302.451,82.6397 302.425,69.7409 302.347,31.0445 302.347,31.0445 302.34,27.6535 304.586,27.6391 316.339,27.5635 328.092,27.488 339.846,27.4124 351.599,27.3368 375.105,27.1857 386.859,27.1102 410.365,26.959 422.118,26.8835 433.872,26.8079 445.625,26.7324 457.378,26.6568 469.132,26.5812 471.273,26.5675 " fill="none" stroke-width="0.5" stroke="rgb(0,0,0)" />
	<polygon points="194.487,444.387 194.744,445.385 196.143,445.61 197.515,445.752 198.569,445.793 199.977,445.716 201.233,445.495 202.261,445.159 202.629,444.964 201.572,444.962 195.353,444.473 194.466,444.326 " fill="none" stroke-width="0.5" stroke="rgb(0,0,0)" />
	<polygon points="317.622,422.081 317.951,423.168 318.281,424.62 318.358,424.989 318.486,425.677 318.66,425.802 319.26,426.271 320.126,427.007 320.915,427.791 321.346,427.405 322.055,426.814 322.739,426.293 323.44,425.808 324.422,425.211 324.7,425.065 324.511,424.395 324.154,421.809 324.154,419.928 " fill="none" stroke-width="0.5" stroke="rgb(0,0,0)" />
	<polygon points="168.153,413.374 168.16,414.766 167.969,417.555 168.568,417.51 168.743,416.6 168.839,416.281 169.732,414.225 169.877,413.974 168.644,413.328 168.126,413.026 " fill="none" stroke-width="0.5" stroke="rgb(0,0,0)" />
	<polygon points="82.5638,369.457 82.6843,370.253 83.256,369.821 82.9525,369.509 82.8923,369.434 " fill="none" stroke-width="0.5" stroke="rgb(0,0,0)" />
	<polygon points="60.7551,341.297 60.911,341.548 60.9267,341.5 61.0308,341.269 60.8364,341.213 60.7406,341.178 " fill="none" stroke-width="0.5" stroke="rgb(0,0,0)" />
	<polygon points="157.16,340.649 157.926,341.194 158.146,341.375 158.279,340.064 158.323,339.75 " fill="none" stroke-width="0.5" stroke="rgb(0,0,0)" />
	<polygon points="76.3894,315.949 76.2125,317.588 76.4664,317.312 77.8428,316.082 78.6771,315.47 78.5965,315.417 77.1675,314.277 76.8951,314.01 " fill="none" stroke-width="0.5" stroke="rgb(0,0,0)" />
	<polygon points="161.133,300.792 161.141,300.809 161.144,300.79 " fill="none" stroke-width="0.5" stroke="rgb(0,0,0)" />
	<polygon points="162.526,253.628 162.891,255.438 162.972,255.899 163.02,256.214 164.21,253.96 162.534,253.587 162.512,253.569 " fill="none" stroke-width="0.5" stroke="rgb(0,0,0)" />
	<polygon points="91.4263,217.377 91.6781,218.145 91.9228,219.109 92.5563,218.905 93.2852,218.782 96.1975,218.744 96.8413,218.834 98.2133,219.229 98.2672,218.869 98.5245,217.737 98.1786,217.775 96.0741,217.774 92.8848,217.417 91.2888,217.05 " fill="none" stroke-width="0.5" stroke="rgb(0,0,0)" />
	<polygon points="433.183,216.368 432.318,216.534 431.887,216.596 432.833,217.381 433.301,217.867 434.565,216.036 " fill="none" stroke-width="0.5" stroke="rgb(0,0,0)" />
	<polygon points="108.172,166.401 106.659,167.426 105.479,168.069 105.66,168.192 106.64,168.956 109.639,171.622 110.616,172.629 111.788,174.029 112.495,173.036 113.401,172.045 111.615,170.413 110.286,168.914 108.373,166.235 " fill="none" stroke-width="0.5" stroke="rgb(0,0,0)" />
	<polygon points="423.868,146.62 421.21,148.998 425.668,150.315 427.431,151.034 429.523,152.142 429.193,150.991 429.081,148.751 427.602,148.101 425.909,147.14 424.549,146.172 424.376,146.013 " fill="none" stroke-width="0.5" stroke="rgb(0,0,0)" />
	<polygon points="312.251,129.019 312.049,129.405 311.808,130.165 311.946,130.187 312.843,130.232 312.97,130.228 312.984,130.227 312.928,130.065 312.584,128.788 312.551,128.621 " fill="none" stroke-width="0.5" stroke="rgb(0,0,0)" />
	<polygon points="177.605,122.095 177.629,122.16 177.779,122.056 " fill="none" stroke-width="0.5" stroke="rgb(0,0,0)" />
	<polygon points="91.1268,118.872 89.7522,119.765 87.4141,121.011 87.0747,121.132 88.1196,121.026 90.0547,121.026 91.4597,121.169 92.3671,121.355 92.1161,119.478 92.0908,119.271 91.9726,118.213 " fill="none" stroke-width="0.5" stroke="rgb(0,0,0)" />
	<polygon points="186.258,115.385 185.922,116.03 184.73,117.801 184.279,118.332 183.551,118.993 184.263,118.708 187.484,117.723 188.595,117.498 186.517,115.044 186.438,114.947 " fill="none" stroke-width="0.5" stroke="rgb(0,0,0)" />
	<polygon points="103.086,65.6079 102.848,65.8048 102.1,66.4045 103.383,66.2701 103.376,66.1497 103.344,65.3869 " fill="none" stroke-width="0.5" stroke="rgb(0,0,0)" />
	<polygon points="399.209,38.2113 399.607,39.1681 399.904,39.0432 401.395,38.528 399.011,37.8497 " fill="none" stroke-width="0.5" stroke="rgb(0,0,0)" />
</svg>
