<?xml version="1.0" standalone="no" ?>
<!DOCTYPE svg PUBLIC "-//W3C//DTD SVG 1.1//EN" "http://www.w3.org/Graphics/SVG/1.1/DTD/svg11.dtd">
<svg width="500px" height="500px" xmlns="http://www.w3.org/2000/svg" version="1.1" >
	<polygon points="480.823,84.4315 475.902,90.4238 473.827,92.3748 472.982,92.9855 473.339,93.1305 475.353,94.2027 477.076,95.3618 478.903,96.9003 480.272,98.3317 480.823,99.0445 480.823,194.449 480.434,194.9 478.974,195.893 480.814,197.936 480.823,197.948 480.823,251.03 480.637,251.289 480.823,251.385 480.823,281.286 479.971,296.463 479.503,299.422 478.947,300.109 478.05,301.092 476.676,302.427 478.209,305.361 478.467,305.96 477.405,312.666 473.11,329.62 467.07,347.047 459.27,364.67 453.664,374.941 452.788,375.066 452.906,376.331 449.695,382.213 438.331,399.399 425.161,415.952 410.17,431.593 393.345,446.047 374.668,459.037 354.126,470.285 331.702,479.516 318.769,483.205 316.861,482.218 316.824,482.531 316.465,483.862 307.382,486.452 281.151,490.817 252.993,492.333 225.548,490.902 199.887,486.773 176.007,480.192 153.907,471.407 133.585,460.665 124.749,454.732 124.726,454.595 124.51,454.571 115.039,448.212 98.2672,434.295 83.2685,419.161 70.0408,403.057 58.5824,386.23 48.8916,368.927 40.9666,351.394 34.8057,333.879 32.675,325.522 34.5393,319.517 35.1714,317.927 35.8824,316.475 34.6938,316.101 30.1772,313.362 29.8394,313.024 27.7694,299.888 26.8905,283.906 26.8905,155.818 27.0595,155.442 29.486,151.01 30.4143,149.643 28.9005,148.857 27.0652,147.661 26.8905,147.521 26.8905,37.8856 29.1239,36.2501 27.803,35.7123 26.8905,35.2509 26.8905,19.5757 38.3822,19.4875 49.8739,19.3993 61.3656,19.3111 72.8572,19.223 84.3489,19.1348 95.8406,19.0466 107.332,18.9584 118.824,18.8703 130.316,18.7821 141.807,18.6939 153.299,18.6057 164.791,18.5175 176.282,18.4294 187.774,18.3412 210.757,18.1648 210.732,31.0636 210.706,43.9624 210.681,56.8612 210.656,69.76 210.63,82.6588 210.618,88.61 210.291,88.7467 209.794,88.9061 210.616,89.5905 210.579,108.456 210.554,121.355 210.503,147.153 210.478,160.052 210.452,172.95 210.434,181.978 208.997,183.787 207.597,185.251 207.137,185.652 207.194,185.69 208.908,187.141 210.421,188.71 210.401,198.748 210.376,211.647 210.35,224.546 210.438,235.84 210.602,246.657 210.899,256.963 211.384,266.725 211.444,267.487 210.825,268.237 210.168,269.11 211.673,270.378 212.112,275.909 213.138,284.482 214.519,292.41 216.308,299.661 218.563,306.2 221.336,311.994 224.685,317.011 228.665,321.215 233.33,324.575 238.737,327.056 244.939,328.626 251.957,329.247 259.171,328.749 265.518,327.271 271.013,324.853 275.719,321.532 279.698,317.343 283.01,312.324 285.72,306.511 287.888,299.942 289.576,292.653 290.848,284.68 291.763,276.06 292.386,266.831 292.778,257.028 293,246.688 293.115,235.848 293.185,224.546 293.159,211.647 293.133,198.748 293.123,193.671 293.366,193.47 293.245,193.249 293.122,192.958 293.107,185.849 293.091,177.562 293.247,177.195 293.785,176.208 293.394,175.954 293.087,175.669 293.082,172.95 293.056,160.052 293.004,134.254 292.978,121.355 292.955,109.689 293.522,108.447 292.952,108.232 292.901,82.6588 292.875,69.76 292.797,31.0636 292.771,18.1648 304.525,18.0893 316.278,18.0137 328.031,17.9382 339.784,17.8626 351.538,17.787 363.291,17.7115 375.044,17.6359 383.611,17.5808 385.133,18.6983 385.239,18.4604 385.865,17.7323 386.085,17.5649 386.797,17.5604 410.304,17.4092 422.057,17.3337 433.81,17.2581 445.564,17.1826 457.317,17.107 469.07,17.0314 480.823,16.9559 " fill="none" stroke-width="0.5" stroke="rgb(0,0,0)" />
	<polygon points="319.522,423.087 319.793,424.277 319.882,424.705 319.9,424.806 320.263,425.09 320.976,425.695 321.061,425.624 321.857,425.018 322.557,424.533 322.948,424.296 322.639,422.059 " fill="none" stroke-width="0.5" stroke="rgb(0,0,0)" />
	<polygon points="424.316,148.299 425.383,148.615 425.01,148.403 424.559,148.082 " fill="none" stroke-width="0.5" stroke="rgb(0,0,0)" />
</svg>
