<?xml version="1.0" standalone="no" ?>
<!DOCTYPE svg PUBLIC "-//W3C//DTD SVG 1.1//EN" "http://www.w3.org/Graphics/SVG/1.1/DTD/svg11.dtd">
<svg width="500px" height="500px" xmlns="http://www.w3.org/2000/svg" version="1.1" >
	<polygon points="461.823,280.753 461.055,294.439 458.774,308.839 454.891,324.166 449.376,340.079 442.214,356.26 433.403,372.405 422.943,388.223 410.838,403.437 397.091,417.781 381.7,431.003 364.652,442.859 345.921,453.116 325.46,461.539 303.204,467.886 279.074,471.901 252.976,473.307 227.558,471.981 203.932,468.179 182.058,462.151 161.879,454.13 143.347,444.334 126.43,432.975 111.112,420.263 97.3877,406.416 85.2648,391.657 74.7541,376.222 65.8683,360.356 58.6179,344.316 53.0087,328.369 49.0375,312.794 46.6879,297.882 45.8905,283.384 45.8905,38.4304 50.0197,38.3988 61.5114,38.3106 73.003,38.2224 84.4947,38.1342 95.9864,38.046 107.478,37.9579 118.97,37.8697 130.461,37.7815 130.461,37.7815 141.953,37.6933 153.445,37.6052 153.445,37.6052 164.936,37.517 176.428,37.4288 187.92,37.3406 187.92,37.3406 191.72,37.3115 191.707,43.925 191.681,56.8238 191.656,69.7226 191.656,69.7226 191.63,82.6214 191.579,108.419 191.579,108.419 191.554,121.318 191.503,147.115 191.503,147.115 191.478,160.014 191.452,172.913 191.452,172.913 191.427,185.812 191.401,198.711 191.376,211.609 191.376,211.609 191.35,224.508 191.351,224.692 191.438,235.987 191.44,236.129 191.604,246.946 191.61,247.204 191.907,257.511 191.922,257.906 192.407,267.668 192.443,268.227 193.171,277.411 193.247,278.168 194.273,286.741 194.42,287.741 195.8,295.669 196.072,296.964 197.862,304.214 198.346,305.853 200.6,312.392 201.425,314.404 204.199,320.198 205.535,322.544 208.884,327.56 210.886,330.071 214.865,334.276 217.562,336.633 222.227,339.993 225.405,341.843 230.811,344.324 234.076,345.476 240.279,347.045 243.264,347.552 250.319,348.176 251.947,329.779 253.218,348.205 260.478,347.704 263.48,347.254 269.827,345.776 273.17,344.662 278.666,342.244 281.971,340.376 286.676,337.054 289.496,334.616 293.474,330.428 295.555,327.81 298.868,322.791 300.231,320.351 302.941,314.539 303.763,312.466 305.931,305.896 306.398,304.23 308.086,296.94 308.339,295.644 309.611,287.671 309.741,286.688 310.657,278.068 310.72,277.339 311.343,268.109 311.371,267.589 311.762,257.786 311.773,257.436 311.995,247.096 311.999,246.89 312.114,236.05 312.115,235.966 312.185,224.663 312.185,224.507 312.159,211.609 312.133,198.71 312.107,185.811 312.082,172.912 312.082,172.912 312.056,160.013 312.004,134.216 312.004,134.216 311.978,121.317 311.901,82.6208 311.901,82.6207 311.875,69.7219 311.809,37.0428 316.4,37.0133 316.4,37.0133 328.153,36.9378 339.906,36.8622 351.66,36.7867 351.66,36.7867 363.413,36.7111 375.166,36.6355 386.919,36.56 386.919,36.56 410.426,36.4088 422.179,36.3333 422.179,36.3333 433.932,36.2577 445.686,36.1822 457.439,36.1066 461.823,36.0784 " fill="none" stroke-width="0.5" stroke="rgb(0,0,0)" />
</svg>
