<?xml version="1.0" standalone="no" ?>
<!DOCTYPE svg PUBLIC "-//W3C//DTD SVG 1.1//EN" "http://www.w3.org/Graphics/SVG/1.1/DTD/svg11.dtd">
<svg width="500px" height="500px" xmlns="http://www.w3.org/2000/svg" version="1.1" >
	<polygon points="464.323,280.823 463.544,294.705 461.226,309.343 457.288,324.883 451.704,340.996 444.459,357.366 435.547,373.695 424.967,389.693 412.722,405.084 398.812,419.599 383.232,432.982 365.97,444.988 347.001,455.375 326.282,463.904 303.754,470.329 279.347,474.39 252.979,475.81 227.294,474.471 203.4,470.626 181.262,464.525 160.83,456.403 142.063,446.483 124.931,434.98 109.421,422.11 95.5299,408.093 83.2616,393.157 72.6262,377.539 63.6345,361.484 56.2954,345.247 50.6136,329.094 46.5862,313.298 44.1986,298.146 43.3905,283.452 43.3905,35.9495 50.0005,35.8988 61.4922,35.8106 72.9838,35.7225 84.4755,35.6343 95.9672,35.5461 95.9672,35.5461 107.459,35.4579 118.951,35.3698 130.442,35.2816 141.934,35.1934 153.426,35.1052 164.917,35.0171 176.409,34.9289 187.901,34.8407 194.225,34.7922 194.206,43.9299 194.181,56.8287 194.156,69.7275 194.156,69.7275 194.13,82.6263 194.079,108.424 194.079,108.424 194.054,121.323 194.003,147.12 194.003,147.12 193.978,160.019 193.952,172.918 193.952,172.918 193.927,185.817 193.901,198.715 193.876,211.614 193.876,211.614 193.85,224.513 193.851,224.673 193.938,235.967 193.939,236.091 194.104,246.908 194.109,247.132 194.406,257.439 194.419,257.782 194.904,267.544 194.935,268.029 195.663,277.213 195.729,277.871 196.756,286.444 196.883,287.312 198.263,295.241 198.5,296.364 200.289,303.615 200.709,305.038 202.963,311.577 203.68,313.325 206.454,319.119 207.614,321.156 210.963,326.172 212.702,328.353 216.681,332.557 219.023,334.605 223.688,337.964 226.448,339.571 231.854,342.052 234.689,343.052 240.892,344.621 243.485,345.061 250.539,345.686 251.947,329.779 253.046,345.711 260.306,345.21 262.913,344.819 269.26,343.342 272.164,342.374 277.659,339.956 280.529,338.333 285.235,335.011 287.683,332.895 291.661,328.706 293.468,326.432 296.781,321.413 297.966,319.295 300.675,313.482 301.389,311.682 303.557,305.113 303.962,303.666 305.651,296.376 305.87,295.251 307.142,287.278 307.255,286.423 308.171,277.804 308.226,277.171 308.849,267.941 308.873,267.489 309.264,257.686 309.274,257.382 309.496,247.042 309.499,246.863 309.614,236.024 309.615,235.951 309.685,224.648 309.685,224.512 309.659,211.614 309.607,185.816 309.582,172.917 309.582,172.917 309.556,160.019 309.504,134.221 309.504,134.221 309.478,121.322 309.401,82.6258 309.401,82.6257 309.375,69.7269 309.304,34.5589 316.384,34.5134 316.384,34.5134 328.137,34.4378 339.89,34.3623 351.644,34.2867 363.397,34.2111 375.15,34.1356 386.903,34.06 410.41,33.9089 422.163,33.8333 433.916,33.7578 445.67,33.6822 457.423,33.6067 464.323,33.5623 " fill="none" stroke-width="0.5" stroke="rgb(0,0,0)" />
</svg>
