<?xml version="1.0" standalone="no" ?>
<!DOCTYPE svg PUBLIC "-//W3C//DTD SVG 1.1//EN" "http://www.w3.org/Graphics/SVG/1.1/DTD/svg11.dtd">
<svg width="500px" height="500px" xmlns="http://www.w3.org/2000/svg" version="1.1" >
	<polygon points="480.823,17.0435 480.823,26.7436 480.614,26.8903 479.785,27.679 479.093,28.5455 478.538,29.4511 478.125,30.3393 477.857,31.1334 477.73,31.7254 477.707,31.9983 477.854,33.9233 478.284,36.0095 478.978,38.46 479.835,41.3115 479.879,41.467 480.748,44.7183 480.822,45.035 480.823,45.0392 480.823,71.0291 477.475,78.951 476.696,80.2391 471.381,86.711 470.4,87.6338 463.366,92.7181 462.425,93.2597 453.909,97.0505 453.564,97.172 454.206,97.1657 455.515,97.2757 456.523,97.4611 457.606,97.7718 458.699,98.224 459.571,98.7067 460.223,99.1768 460.256,99.0682 462.791,97.1133 465.632,96.9078 468.118,97.4183 469.04,97.6976 471.135,98.5497 472.088,99.0568 473.811,100.216 474.675,100.943 476.044,102.375 476.714,103.241 477.747,104.91 478.187,105.799 478.902,107.672 479.142,108.497 479.558,110.539 479.654,111.263 479.789,113.438 479.737,114.567 478.987,119.4 478.598,120.723 476.753,124.882 476.92,124.893 478.573,125.813 480.028,127.01 480.823,127.95 480.823,183.466 480.593,184.335 480.242,185.279 478.914,188.014 477.144,190.063 475.565,191.137 471.359,191.894 468.025,191.075 466.659,190.527 462.089,187.897 461.502,187.504 456.179,183.399 455.794,183.072 450.267,177.889 451.888,180.112 451.947,180.195 456.005,185.994 458.409,187.409 458.422,187.417 462.484,189.824 462.738,189.985 467.127,192.937 467.552,193.256 471.921,196.886 472.466,197.41 476.468,201.852 477.048,202.63 480.337,208.016 480.819,209.041 480.823,209.053 480.823,239.185 480.478,240.091 480.099,240.881 476.58,246.872 476.319,247.272 472.135,253.108 472.07,253.196 469.394,256.769 469.991,256.532 472.922,255.915 474.549,255.83 476.017,255.983 477.234,256.259 478.493,256.707 479.714,257.332 480.768,258.059 480.823,258.109 480.823,281.286 480.473,287.53 479.759,288.927 479.499,289.378 477.307,292.784 476.975,293.243 474.397,296.431 473.973,296.896 471.015,299.771 468.588,300.977 470.627,303.646 471.108,304.402 473.024,308.07 473.332,308.786 474.776,312.965 474.963,313.656 475.875,318.237 475.915,318.546 473.11,329.62 467.07,347.047 459.27,364.67 459.024,365.12 456.234,367.876 453.379,369.325 450.213,368.845 447.915,366.616 447.372,365.037 446.252,358.572 443.986,354.994 440.462,352.251 435.713,349.87 430.511,347.555 429.99,347.287 425.361,344.573 424.075,343.513 420.803,339.796 419.628,337.508 418.387,332.135 418.274,330.481 418.325,329.919 417.434,330.514 416.17,330.862 415.341,331.02 413.554,331.213 413.37,331.23 411.405,331.373 410.945,331.421 410.982,331.653 411.229,333.042 411.484,334.464 411.499,334.546 411.722,335.915 411.751,336.112 411.909,337.381 411.942,337.752 412.002,338.881 412.007,339.311 411.998,339.645 411.973,340.027 411.939,340.362 411.856,340.897 411.789,341.22 411.58,341.952 411.472,342.247 411.069,343.078 411.533,343.023 412.6,343.005 417.947,343.461 418.831,343.613 424.126,344.999 425.011,345.319 430.049,347.664 430.923,348.179 435.5,351.511 436.312,352.243 440.227,356.59 440.895,357.519 443.943,362.91 444.393,363.958 446.371,370.42 446.578,371.469 447.282,379.032 447.238,380.351 446.055,387.718 438.331,399.399 425.161,415.952 410.17,431.593 404.739,436.259 403.455,436.408 401.94,436.153 400.568,435.723 399.075,435.018 398.16,434.465 396.745,433.399 396.115,432.84 394.833,431.505 394.363,430.941 393.27,429.425 392.888,428.809 392.038,427.203 391.713,426.45 391.163,424.844 390.923,423.815 390.727,422.299 390.694,421.3 390.723,420.827 390.831,420.05 390.938,419.55 391.215,418.656 391.429,418.138 389.089,417.888 388.141,417.698 384.581,416.634 383.839,416.349 380.501,414.769 379.898,414.434 376.901,412.498 376.524,412.22 376.597,412.597 376.693,413.597 376.693,417.615 376.692,417.738 376.675,418.461 376.66,418.754 376.603,419.469 376.561,419.837 376.51,420.173 379.395,419.395 380.965,419.579 382.071,419.832 383.704,420.397 384.687,420.855 386.298,421.821 387.156,422.463 388.662,423.85 389.366,424.643 390.684,426.473 391.2,427.363 392.245,429.655 392.564,430.569 393.252,433.343 393.392,434.211 393.64,437.488 393.576,438.792 392.462,445.145 391.986,446.587 391.676,447.208 374.668,459.037 354.126,470.285 331.702,479.516 329.821,480.053 327.23,479.825 326.255,479.645 323.137,478.759 322.16,478.373 319.497,476.996 318.598,476.407 316.399,474.621 315.643,473.867 313.917,471.753 313.339,470.881 312.095,468.522 311.709,467.575 310.956,465.051 310.761,464.058 310.509,461.453 310.495,460.602 310.737,456.918 310.816,456.289 311.487,452.724 311.619,452.186 312.642,448.78 312.802,448.323 313.421,446.792 312.769,446.952 311.961,447.085 311.683,447.109 311.456,447.77 310.303,451.868 310.254,452.033 308.744,456.795 308.559,457.292 306.525,461.997 306.049,462.864 303.282,466.937 302.15,468.141 298.442,471.006 296.374,471.976 294.282,472.443 295.367,472.431 297.268,472.358 298.583,472.261 299.487,472.156 300.217,472.044 300.912,471.935 301.156,471.902 301.872,471.823 302.266,471.794 303.13,471.764 303.732,471.778 304.602,471.847 305.636,472.036 306.305,472.228 307.519,472.751 308.013,473.042 309.163,473.959 309.507,474.324 310.317,475.447 310.539,475.861 310.959,476.894 311.085,477.333 311.247,478.115 311.303,478.554 311.343,479.058 311.356,479.472 311.177,481.005 310.779,482.478 309.827,484.367 308.648,485.856 308.305,486.189 307.382,486.452 281.151,490.817 271.896,491.315 271.192,490.983 269.022,489.737 268.315,489.25 266.488,487.759 265.859,487.151 264.385,485.467 261.493,486.941 261.198,487.08 257.033,488.885 256.727,489.007 252.301,490.604 251.974,490.71 247.361,492.04 225.548,490.902 199.887,486.773 189.68,483.96 185.689,481.49 185.412,481.306 180.65,477.923 176.582,475.065 173.19,473.157 170.812,472.472 167.542,472.149 163.354,471.916 163.035,471.889 158.283,471.333 157.591,471.205 152.38,469.871 151.515,469.567 145.837,466.995 145.009,466.525 138.856,462.252 138.197,461.71 131.56,455.276 130.05,452.453 130.461,449.278 131.145,448.541 127.302,448.887 126.266,448.877 115.5,447.71 114.391,447.466 113.969,447.324 98.2672,434.295 83.2685,419.161 73.9477,407.814 73.8945,407.585 73.047,400.802 73.0232,399.733 73.4327,394.605 73.5374,393.956 70.5593,394.901 66.8085,393.31 64.938,391.386 61.5637,389.04 59.5412,387.638 58.5824,386.23 48.8916,368.927 40.9666,351.394 36.287,338.09 36.951,331.817 37.1579,330.813 40.1263,321.252 40.4252,320.5 44.6218,311.93 44.8902,311.448 46.4866,308.905 45.1234,309.86 43.4819,310.628 41.3655,311.2 38.4189,311.14 36.4498,310.521 34.3136,309.225 32.495,307.407 31.612,306.234 29.9786,303.277 29.6193,302.475 28.2055,298.442 28.0431,297.88 27.5381,295.682 26.8905,283.906 26.8905,249.425 26.9116,249.302 28.1036,243.452 28.2087,243.028 29.6549,238.08 29.8802,237.457 31.5419,233.639 32.1511,232.59 33.9896,230.132 36.0783,228.471 36.8894,228.113 34.9282,227.884 33.5841,227.543 31.3523,226.648 30.0692,225.909 28.1522,224.408 27.1939,223.431 26.8905,223.028 26.8905,198.386 28.1799,198.306 29.2139,199.015 28.7654,197.94 28.4884,197.069 27.9157,194.517 27.8005,193.725 27.602,190.82 27.5898,190.456 27.5901,190.13 27.5902,190.098 27.5926,189.772 27.5934,189.707 27.5998,189.381 27.6025,189.285 27.6148,188.958 27.6212,188.83 27.6415,188.503 27.6538,188.345 27.6841,188.017 27.7048,187.83 27.7472,187.501 27.7792,187.287 27.8356,186.957 28.7037,185.286 28.4294,184.966 27.9275,184.271 27.5892,183.712 27.163,182.831 26.9434,182.243 26.8905,182.031 26.8905,177.302 26.9142,177.217 26.9899,176.976 27.1075,176.641 27.1979,176.409 27.3418,176.074 27.4463,175.853 27.5065,175.737 27.9714,174.457 28.445,171.966 29.0771,168.365 29.1396,168.061 30.1157,163.944 30.2824,163.382 31.8545,159 32.191,158.251 34.6175,153.818 35.1814,152.988 38.7208,148.72 39.5028,147.955 41.4436,146.418 41.0804,146.414 38.347,146.159 37.3639,145.971 34.8284,145.231 33.8816,144.851 31.5953,143.665 30.7273,143.099 28.7416,141.505 27.9931,140.77 26.8905,139.445 26.8905,115.652 27.3717,114.995 27.897,114.383 29.4932,112.789 30.1064,112.265 32.0258,110.863 32.694,110.448 34.9469,109.273 38.1018,108.728 40.9864,110.117 41.3589,110.795 41.4599,110.268 42.1085,108.05 42.4794,107.122 43.4438,105.248 41.9027,105.85 40.9448,106.123 36.9198,106.866 35.6533,106.944 34.961,106.903 34.2541,106.812 33.6207,106.687 32.7972,106.453 32.2329,106.241 31.3149,105.79 30.8301,105.491 29.9025,104.761 29.5075,104.371 28.7171,103.374 28.4221,102.891 27.901,101.752 27.7164,101.175 27.4902,100.071 27.4264,99.3977 27.661,97.2771 28.9444,93.3353 29.5579,92.064 32.9415,86.9496 33.2544,86.5247 35.0141,84.3708 34.7861,84.4554 32.6605,84.965 30.6255,85.0466 30.0267,84.953 28.366,84.3978 27.8728,84.1346 26.8905,83.3965 26.8905,64.7675 26.9168,64.7218 27.5729,63.7275 28.1532,62.9983 28.8566,62.2597 29.5038,61.6838 30.4838,60.9471 31.1919,60.4986 31.6578,60.2532 28.6631,59.6199 26.8905,58.6357 26.8905,45.5748 28.4014,44.0961 28.9717,43.6124 32.8624,40.7632 33.1177,40.5877 37.5777,37.7096 37.6472,37.6655 42.0545,34.9184 43.3121,34.0924 39.6004,33.1737 39.5726,33.1667 35.2732,32.0775 34.9849,31.9957 31.2343,30.8141 30.4428,30.4918 27.79,29.1504 26.8905,28.3384 26.8905,19.5757 38.3822,19.4875 49.8739,19.3993 61.3656,19.3111 72.8572,19.223 76.5354,19.1947 77.4546,19.7235 79.4407,21.7507 80.4111,23.521 80.7284,27.8742 79.9243,30.0368 78.7509,31.884 76.6312,34.0445 75.9499,34.6293 72.953,36.7854 72.6719,36.9743 69.2365,39.1241 69.2285,39.129 65.9283,41.1861 64.9788,41.8612 66.1436,42.0772 70.7276,42.5553 72.5157,42.7265 72.4278,42.4484 72.3645,42.0226 73.0239,38.6038 73.7823,37.305 75.627,35.4432 77.6264,34.2509 78.3231,33.9027 81.1499,32.7433 81.3188,32.6774 84.4838,31.5052 87.3986,30.3228 88.7656,29.5963 87.9236,29.3129 87.9051,29.3067 86.5908,28.8589 85.7921,28.5104 84.8625,28.0092 82.712,25.8402 82.3594,25.1726 81.7984,22.0205 82.325,20.3347 82.6161,19.7642 83.1793,19.1438 84.3489,19.1348 95.8406,19.0466 107.332,18.9584 112.192,18.9211 112.832,19.5166 114.447,21.3151 114.572,21.4596 115.863,23.0069 116.773,23.8559 117.497,24.229 118.804,24.4171 120.054,24.2382 120.828,23.8516 121.815,22.9844 123.188,21.4703 123.323,21.3266 125.018,19.5917 125.695,19.0084 125.961,18.8155 130.316,18.7821 141.807,18.6939 153.293,18.6058 153.965,19.2483 154.204,19.6404 154.958,22.7519 154.512,24.5232 154.144,25.3422 152.375,27.4868 151.406,28.1684 150.597,28.6356 149.227,29.272 149.11,29.3246 147.713,29.9327 147.13,30.238 149.039,31.6534 151.681,33.3041 154.501,35.0089 154.715,35.1452 156.448,36.3111 155.989,35.4528 155.073,32.852 155.307,28.8054 156.36,26.6482 158.006,24.693 160.921,22.5909 161.845,22.0577 166.254,20.0824 166.797,19.8746 171.179,18.4685 176.282,18.4294 187.774,18.3412 210.452,18.1672 210.756,18.7411 210.745,24.5455 210.069,25.7881 208.38,27.6413 206.03,29.2171 205.295,29.6282 201.886,31.1922 201.599,31.3134 201.494,31.3543 201.505,31.3536 203.725,31.2819 203.953,31.2795 205.552,31.2973 205.84,31.3084 207.225,31.3999 207.859,31.4809 209.031,31.7035 210.121,32.0367 210.729,32.298 210.706,43.9624 210.686,54.4202 210.632,54.4536 208.803,55.1493 207.787,55.3303 206.142,55.3614 203.994,55.0623 203.094,54.8548 201.321,54.2779 203.728,56.7364 203.933,56.9584 208.485,62.1772 208.91,62.7358 210.664,65.3929 210.656,69.76 210.632,81.9335 210.515,82.0301 209.785,82.5146 208.905,82.9857 208.035,83.3494 207.177,83.6244 206.174,83.8531 205.375,83.9715 204.247,84.0509 203.347,84.0369 199.365,83.6316 198.73,83.5273 194.041,82.4587 193.722,82.3753 189.804,81.2194 192.483,82.9659 192.687,83.1059 197.572,86.6299 197.72,86.7407 202.523,90.4695 202.663,90.5814 206.958,94.1567 207.136,94.3113 210.497,97.3747 210.601,97.4785 210.579,108.456 210.555,120.75 210.25,121.095 209.202,122.001 208.038,122.765 206.262,123.509 204.994,123.782 203.282,123.526 204.066,123.936 206.955,125.947 207.886,126.775 210.222,129.412 210.537,129.854 210.503,147.153 210.478,160.052 210.471,163.521 209.667,164.106 210.116,167.237 209.613,170.188 209.4,171.021 208.438,173.806 208.086,174.603 206.698,177.151 206.198,177.906 204.417,180.148 203.755,180.84 201.613,182.706 200.781,183.299 198.313,184.718 197.327,185.157 194.564,186.06 194.052,186.169 197.004,186.891 197.866,187.183 200.629,188.395 201.488,188.872 203.886,190.516 204.697,191.202 206.67,193.247 207.364,194.143 208.849,196.56 209.348,197.62 210.284,200.378 210.397,200.89 210.38,209.379 210.052,210.663 209.936,211.053 209.45,212.48 209.325,212.811 208.733,214.23 208.605,214.514 207.921,215.914 207.793,216.16 207.03,217.531 206.904,217.747 206.078,219.078 203.642,221.156 200.939,221.39 201.147,221.533 204.215,223.855 204.611,224.187 207.348,226.718 207.727,227.108 210.082,229.789 210.394,230.189 210.438,235.84 210.602,246.657 210.899,256.963 210.981,258.622 210.887,258.76 208.578,261.766 208.461,261.913 206.229,264.614 204.53,266.874 203.666,268.489 203.476,269.455 203.675,270.473 204.383,271.622 205.947,273.204 208.234,275.13 208.325,275.208 210.794,277.387 211.28,277.875 212.517,279.296 213.138,284.482 214.519,292.41 215.557,296.617 214.444,299.34 214.169,299.911 213.449,301.201 216.424,301.054 216.892,301.354 218.563,306.2 221.336,311.994 224.685,317.011 228.665,321.215 233.33,324.575 238.737,327.056 244.939,328.626 245.805,328.702 247.021,330.31 247.56,331.193 249.069,334.318 249.397,335.185 250.311,338.446 250.459,339.166 250.91,342.534 250.953,343.047 251.049,345.788 251.853,343.173 252.238,342.245 256.844,333.606 257.392,332.778 260.985,328.327 265.518,327.271 271.013,324.853 275.719,321.532 279.698,317.343 283.01,312.324 283.199,311.919 287.863,310.449 285.613,308.343 285.387,307.225 285.72,306.511 287.501,301.114 287.832,300.802 288.837,299.737 289.674,298.682 290.358,297.594 290.913,296.402 291.346,295.017 291.639,293.34 291.752,291.225 291.724,290.216 291.642,289.123 291.518,287.973 291.364,286.741 291.363,286.733 291.204,285.443 291.194,285.347 291.055,284.021 291.04,283.847 290.998,283.26 291.763,276.06 291.844,274.874 292.197,273.954 292.661,273.032 293.361,271.925 294.092,271.013 294.956,270.152 295.934,269.385 296.946,268.77 298.06,268.26 299.204,267.89 300.306,267.661 301.564,267.538 302.962,267.589 304.808,267.905 300.453,265.271 299.751,264.763 295.664,261.255 294.638,260.064 292.775,257.098 292.778,257.028 293,246.688 293.115,235.848 293.139,231.97 293.698,230.596 293.799,230.364 295.168,227.417 295.265,227.218 296.898,224.057 298.319,222.639 297.577,222.135 296.099,220.911 295.403,220.215 294.18,218.737 293.621,217.914 293.17,217.092 293.159,211.647 293.141,202.677 293.621,201.803 294.178,200.982 295.402,199.502 296.095,198.807 297.573,197.58 298.395,197.02 300.085,196.091 301.029,195.686 302.446,195.237 302.184,195.06 301.149,194.205 300.446,193.502 299.59,192.466 299.028,191.635 298.381,190.448 297.98,189.502 297.57,188.192 297.358,187.157 297.215,185.754 297.215,184.689 297.358,183.288 297.571,182.252 297.98,180.944 298.382,179.998 299.029,178.812 299.591,177.981 300.447,176.946 301.15,176.244 302.185,175.388 303.016,174.827 304.202,174.18 305.147,173.779 306.454,173.37 307.489,173.158 308.889,173.015 309.952,173.015 311.359,173.157 312.391,173.368 313.704,173.777 314.328,174.041 314.526,173.067 314.912,171.823 315.311,170.877 315.922,169.75 315.998,169.637 315.328,169.554 314.924,169.488 312.72,169.04 312.359,168.953 310.511,168.439 310.22,168.348 309.302,168.035 309.147,168.425 308.998,168.764 308.499,169.797 307.81,170.869 307.22,171.579 304.707,173.248 303.958,173.476 300.377,173.283 298.891,172.651 297.375,171.667 295.962,170.355 295.202,169.474 293.901,167.572 293.5,166.877 293.068,165.976 293.056,160.052 293.004,134.254 293.003,133.833 293.519,132.824 293.775,132.378 294.87,130.67 297.338,128.63 297.406,128.625 297.378,128.549 297.146,127.848 297.082,127.641 296.874,126.917 296.816,126.697 296.636,125.952 296.585,125.716 296.439,124.954 296.396,124.699 296.287,123.926 296.255,123.649 296.186,122.867 296.168,122.566 296.144,121.781 296.161,121.177 296.411,118.233 296.559,117.365 297.328,114.389 297.635,113.522 298.949,110.644 299.449,109.779 301.335,107.132 302.055,106.315 304.54,104.027 305.47,103.343 308.581,101.547 309.643,101.082 311.947,100.363 311.791,99.8678 311.653,99.327 311.58,98.996 311.449,98.2947 311.4,97.9855 311.198,96.3779 310.978,94.6872 310.894,94.1543 308.684,96.1081 308.65,96.1377 306.248,98.2242 306.083,98.3617 303.806,100.182 303.383,100.487 301.397,101.774 300.138,102.37 298.608,102.858 296.973,103.107 296.737,103.105 296.445,103.095 296.254,103.083 295.471,102.974 295.32,102.941 293.874,102.394 293.76,102.331 292.939,101.625 292.916,90.45 294.244,87.8736 294.307,87.7553 295.909,84.832 297.475,81.9648 298.338,80.2754 296.195,80.0453 295.863,79.9989 293.959,79.6706 292.894,79.3656 292.875,69.76 292.866,65.1648 293.574,64.6251 293.786,64.4722 295.93,63.0014 297.89,61.6062 298.56,61.036 296.999,60.2954 294.962,59.3765 294.636,59.2159 292.852,58.2577 292.825,44.7908 294.311,43.9496 294.463,43.8669 296.373,42.8678 298.015,41.9675 297.981,41.9068 296.383,39.4473 294.43,36.585 294.411,36.5566 292.803,34.1673 292.797,31.0636 292.771,18.1648 298.025,18.1311 300.745,19.2702 301.121,19.4455 304.407,21.138 304.514,21.1947 307.967,23.0753 310.641,24.4869 310.651,24.0705 310.655,23.2246 310.658,23.0539 310.698,21.9967 310.731,21.5725 310.842,20.6375 310.921,20.1596 311.093,19.3527 311.245,18.795 311.469,18.122 311.501,18.0444 316.278,18.0137 325.323,17.9556 325.692,18.3397 326.785,19.4419 327.379,19.9631 327.525,19.944 329.257,19.4433 331.72,18.5736 333.598,17.9024 339.784,17.8626 351.538,17.787 363.291,17.7115 371.054,17.6616 377.986,20.8425 378.903,21.3819 385.113,25.9402 385.948,26.7044 391.004,32.4504 391.666,33.3953 395.438,40.2779 395.868,41.311 397.143,45.619 398.672,44.3793 400.666,43.378 401.307,43.1076 404.279,42.081 404.623,41.9754 408.284,40.9852 408.529,40.9254 412.592,40.0333 412.811,39.99 413.687,39.8363 412.128,38.6733 407.456,36.2048 402.979,34.5079 398.899,33.3474 395.503,32.4975 395.111,32.383 392.817,31.6148 390.547,30.1096 389.719,29.1711 388.433,26.2388 389.675,22.2747 390.301,21.5467 392.042,20.2216 393.802,19.391 394.44,19.1398 397.158,18.2682 397.521,18.1662 400.371,17.4731 410.304,17.4092 422.057,17.3337 433.81,17.2581 435.339,17.2483 436.748,17.7144 437.593,18.0792 440.237,19.5072 441.285,20.2516 443.31,22.1033 444.348,23.4123 445.645,25.7266 445.962,26.6362 446.463,24.8567 446.847,23.8802 447.919,21.7935 448.517,20.8781 449.959,19.1067 450.744,18.3271 452.223,17.1397 457.317,17.107 469.07,17.0314 480.586,16.9574 " fill="none" stroke-width="0.5" stroke="rgb(0,0,0)" />
	<polygon points="187.751,439.403 188.083,440.053 190.069,444.711 190.323,445.46 191.217,448.928 192.352,449.263 193.906,449.605 195.58,449.874 197.209,450.043 198.603,450.098 200.469,449.996 202.28,449.677 203.949,449.13 205.396,448.363 206.606,447.368 207.611,446.066 208.425,444.279 209.066,441.319 209.756,440.124 209.395,440.177 202.711,440.676 201.909,440.675 195.69,440.186 194.802,440.039 189.605,438.711 188.702,438.389 186.538,437.389 " fill="none" stroke-width="0.5" stroke="rgb(0,0,0)" />
	<polygon points="258.318,447.701 257.972,447.743 257.811,447.784 257.664,447.845 257.374,448.02 256.862,448.42 256.185,449.053 256.212,449.048 256.538,449.053 256.918,449.073 257.346,449.112 257.938,449.199 258.443,449.303 259.183,449.513 259.738,449.715 260.44,450.043 260.404,449.962 260.015,449.076 259.721,448.583 259.418,448.197 259.135,447.923 258.911,447.759 258.785,447.695 258.725,447.689 " fill="none" stroke-width="0.5" stroke="rgb(0,0,0)" />
	<polygon points="163.127,404.204 163.866,413.707 163.87,414.473 163.55,419.157 163.445,419.9 162.383,424.849 162.132,425.68 160.177,430.62 159.709,431.531 156.71,436.188 155.966,437.101 151.771,441.201 150.769,441.968 145.227,445.236 144.102,445.733 140.426,446.862 140.725,446.881 141.714,446.923 142.682,446.948 143.461,446.954 148.557,446.629 152.68,445.746 155.975,444.402 158.511,442.692 160.41,440.648 161.782,438.211 162.654,435.27 162.983,431.567 162.98,431.297 162.961,430.801 162.932,430.28 162.893,429.738 162.845,429.183 162.79,428.617 162.73,428.045 162.666,427.464 163.302,424.326 165.642,422.141 170.181,422.167 172.284,423.19 172.838,423.502 173.378,423.852 173.31,423.685 172.984,422.518 172.671,420.536 172.627,419.256 172.659,418.888 172.861,417.838 172.957,417.519 173.448,416.388 173.605,416.118 174.392,415.086 174.609,414.864 175.566,414.093 175.84,413.92 176.795,413.448 177.125,413.324 177.968,413.087 178.352,413.013 178.735,412.965 176.961,412.423 176.489,412.254 173.706,411.102 173.276,410.901 170.64,409.519 170.229,409.28 167.802,407.713 167.39,407.417 165.233,405.709 164.801,405.326 163.025,403.57 " fill="none" stroke-width="0.5" stroke="rgb(0,0,0)" />
	<polygon points="326.359,414.542 325.314,415.018 315.809,418.151 314.699,418.387 310.488,418.818 311.597,419.825 312.369,420.871 313.051,422.121 313.545,423.419 313.758,424.122 314.089,425.574 314.131,425.777 314.389,427.166 314.621,428.148 314.649,428.218 315.213,428.619 315.24,428.638 316.147,429.292 316.477,429.55 317.343,430.285 317.93,430.869 318.664,431.724 319.371,432.786 319.878,433.797 320.248,434.948 321.194,433.752 321.356,433.558 322.078,432.731 322.214,432.581 322.933,431.818 323.122,431.628 323.837,430.943 324.102,430.706 324.811,430.114 325.187,429.828 325.888,429.343 326.428,429.015 327.118,428.651 327.888,428.321 328.566,428.092 329.621,427.853 330.285,427.774 331.233,427.808 331.022,427.613 330.02,426.411 329,424.472 328.651,423.23 328.454,421.809 328.454,413.773 328.532,413.246 " fill="none" stroke-width="0.5" stroke="rgb(0,0,0)" />
	<polygon points="242.828,409.495 242.844,409.787 242.869,410.646 242.808,411.607 242.029,416.583 241.582,418.03 239.375,422.66 238.693,423.735 235.254,427.922 234.511,428.66 230.034,432.306 229.302,432.806 226.527,434.373 226.695,434.323 232.069,431.787 236.68,428.643 240.509,424.978 243.537,420.869 245.749,416.381 247.249,411.105 247.813,410.256 247.549,410.281 246.302,410.251 245.364,410.115 244.112,409.771 243.246,409.413 242.802,409.187 " fill="none" stroke-width="0.5" stroke="rgb(0,0,0)" />
	<polygon points="255.879,393.592 255.66,394.252 255.557,394.512 255.6,394.574 255.976,395.21 256.342,395.96 256.615,396.656 256.856,397.446 257.023,398.204 257.133,398.973 257.19,399.796 257.179,400.65 257.083,401.662 256.89,402.66 256.614,403.591 256.224,404.549 255.784,405.383 255.207,406.253 254.62,406.973 253.981,407.612 254.202,407.648 257.051,408.756 257.492,408.951 260.351,410.378 260.692,410.565 263.475,412.221 263.76,412.404 266.377,414.2 266.638,414.39 269.002,416.236 269.267,416.457 271.29,418.262 271.598,418.561 272.343,419.345 272.901,419.223 273.132,419.177 274.417,418.956 274.635,418.923 275.969,418.75 276.176,418.728 277.56,418.604 277.755,418.591 279.187,418.517 279.371,418.51 280.853,418.486 281.063,418.486 283.194,418.536 283.428,418.547 285.631,418.697 285.852,418.716 288.133,418.969 288.339,418.996 290.704,419.353 290.895,419.386 293.349,419.85 293.524,419.886 296.074,420.458 296.233,420.496 296.958,420.683 297.048,420.53 297.555,419.853 298.319,419.077 291.074,418.34 289.973,418.107 279.889,414.808 278.847,414.336 270.241,409.243 269.354,408.582 262.253,402.027 261.563,401.25 255.993,393.564 255.92,393.439 " fill="none" stroke-width="0.5" stroke="rgb(0,0,0)" />
	<polygon points="195.73,412.815 194.906,413.125 193.883,413.415 195.504,413.117 196.391,412.5 " fill="none" stroke-width="0.5" stroke="rgb(0,0,0)" />
	<polygon points="347.978,394.562 347.494,395.37 342.967,401.587 343.331,401.477 343.945,401.332 347.884,400.647 348.491,400.577 352.999,400.325 353.481,400.32 357.274,400.457 357.692,400.489 361.163,400.893 361.654,400.974 364.746,401.636 365.347,401.803 368.004,402.712 368.762,403.041 368.948,403.139 368.898,403.021 368.45,401.251 368.703,397.923 369.068,397.059 368.028,397.452 362.832,398.616 360.51,398.609 359.36,398.345 357.576,397.566 356.499,396.831 355.506,395.951 354.527,394.832 353.985,394.09 353.129,392.673 352.808,392.053 352.099,390.423 351.893,389.864 351.356,388.109 351.267,387.749 " fill="none" stroke-width="0.5" stroke="rgb(0,0,0)" />
	<polygon points="226.079,383.707 217.811,386.138 216.794,386.331 206.978,387.202 205.938,387.191 197.741,386.286 197.374,386.205 199.315,388.825 199.711,389.446 201.548,392.831 201.873,393.554 203.014,396.719 203.27,397.742 203.663,400.428 203.675,401.253 204.687,399.133 205.076,398.453 207.897,394.283 209.107,393.016 213.062,390.067 215.187,389.124 220.872,388.005 222.288,387.922 223.333,388.002 223.941,388.085 225.189,388.329 225.675,388.449 226.95,388.828 226.846,388.442 226.628,387.455 226.521,386.747 226.439,385.727 226.439,384.87 226.527,383.803 226.58,383.499 " fill="none" stroke-width="0.5" stroke="rgb(0,0,0)" />
	<polygon points="311.307,391.124 311.046,391.22 308.29,392.147 307.898,392.263 304.685,393.072 304.204,393.169 300.496,393.742 299.964,393.796 295.722,394.014 295.086,394.008 291.573,393.761 290.861,393.662 287.47,392.95 286.772,392.752 283.712,391.651 285.967,393.277 291.255,395.79 297.343,397.436 304.306,398.04 307.74,397.898 310.831,397.49 313.401,396.881 313.86,396.711 313.81,396.675 311.85,393.948 311.595,393.116 311.471,391.059 " fill="none" stroke-width="0.5" stroke="rgb(0,0,0)" />
	<polygon points="119.613,351.43 117.829,352.68 117.039,353.138 115.305,353.948 115.317,354.127 115.345,356.481 115.256,357.514 114.844,359.704 114.542,360.724 113.726,362.717 113.223,363.658 112.038,365.419 111.924,365.556 115.595,364.536 116.527,364.366 120.778,363.981 121.827,363.992 129.503,364.839 130.648,365.098 137.732,367.557 138.778,368.056 145.137,372.002 146.014,372.685 151.514,377.992 152.192,378.791 155.328,383.342 155.062,381.809 154.418,379.129 153.438,376.836 152.033,374.662 150.146,372.595 147.71,370.647 144.664,368.854 140.962,367.266 136.396,365.885 132.708,364.882 132.441,364.802 129.489,363.828 129.093,363.68 126.853,362.735 126.272,362.447 124.651,361.512 123.85,360.945 122.753,360.003 121.849,358.995 121.182,358.025 120.516,356.677 120.185,355.661 119.945,354.467 119.855,353.385 119.914,352.055 120.093,351.024 " fill="none" stroke-width="0.5" stroke="rgb(0,0,0)" />
	<polygon points="245.595,367.008 245.064,367.891 240.997,373.357 240.246,374.171 238.733,375.498 239.214,375.613 240.242,375.992 241.344,376.554 242.229,377.146 243.09,377.868 243.833,378.639 244.439,379.398 244.55,379.567 244.68,379.554 245.246,379.529 246.005,379.55 247.251,379.676 248.333,379.901 249.439,380.257 250.443,380.703 248.74,374.42 248.578,373.516 247.764,364.429 247.769,363.432 247.898,362.153 " fill="none" stroke-width="0.5" stroke="rgb(0,0,0)" />
	<polygon points="77.3965,367.581 78.2623,369.771 79.5165,378.053 79.3518,379.841 79.5756,379.528 81.9636,376.659 82.5068,376.097 85.0153,373.863 85.6964,373.349 88.1757,371.777 89.109,371.308 91.316,370.463 91.0308,370.337 89.3135,369.373 88.4804,368.792 86.9948,367.526 86.3055,366.817 85.0707,365.279 84.7429,364.785 84.5529,364.827 84.3226,364.873 83.5027,365.018 83.28,365.052 82.4384,365.163 81.8073,365.208 79.4938,365.232 78.451,365.139 76.2527,364.718 75.2737,364.43 75.2106,364.405 " fill="none" stroke-width="0.5" stroke="rgb(0,0,0)" />
	<polygon points="101.076,371.692 100.201,371.808 97.9041,371.917 97.199,371.888 97.3119,371.959 98.4213,375.867 98.7443,375.316 99.3784,374.451 102.069,371.474 " fill="none" stroke-width="0.5" stroke="rgb(0,0,0)" />
	<polygon points="168.007,364.511 168.073,364.728 169.061,368.247 169.078,368.31 169.934,371.513 170.682,374.056 171.23,375.454 171.408,375.507 171.733,375.578 172.094,375.63 172.456,375.661 172.824,375.671 173.313,375.665 173.848,375.647 174.393,375.621 174.949,375.59 175.503,375.557 175.529,375.555 176.063,375.526 176.135,375.523 176.641,375.502 176.768,375.499 177.17,375.492 175.059,373.653 174.415,372.981 169.789,367.219 169.279,366.455 167.699,363.572 " fill="none" stroke-width="0.5" stroke="rgb(0,0,0)" />
	<polygon points="354.32,361.868 353.644,362.679 351.45,364.828 351.286,364.957 352.903,365.497 354.787,368.086 355.024,370.271 354.486,375.491 355.422,374.86 356.113,374.466 357.361,373.876 357.904,373.655 359.473,373.118 359.883,372.996 361.617,372.556 366.679,370.873 365.881,370.724 363.745,370.112 362.785,369.73 360.909,368.762 360.024,368.185 358.433,366.904 357.678,366.158 356.397,364.606 355.81,363.729 354.864,361.95 354.638,361.398 " fill="none" stroke-width="0.5" stroke="rgb(0,0,0)" />
	<polygon points="323.857,364.268 323.498,365.189 322.783,366.61 322.243,367.465 321.277,368.712 320.562,369.467 319.367,370.501 318.493,371.114 318.417,371.156 320.562,371.293 323.548,371.223 327.156,370.989 331.048,370.569 334.991,369.948 337.752,369.337 334.924,369.09 333.962,368.914 331.021,368.088 330.044,367.705 327.428,366.364 326.507,365.762 324.263,363.933 324.022,363.69 " fill="none" stroke-width="0.5" stroke="rgb(0,0,0)" />
	<polygon points="297.827,354.216 294.641,356.134 293.514,356.642 289.009,358.064 288.935,358.087 284.09,359.539 279.868,361.414 276.678,364.007 274.461,367.937 274.171,369.913 274.575,369.568 274.874,369.369 276.022,368.793 276.361,368.671 277.558,368.396 277.934,368.355 278.307,368.349 278.346,367.958 278.417,367.481 278.657,366.256 278.851,365.538 279.245,364.403 279.755,363.341 280.344,362.401 281.566,361.048 282.388,360.408 284.504,359.418 285.598,359.181 288.535,359.39 289.952,359.916 291.253,360.621 293.121,362.007 293.236,362.095 295.591,363.945 298.492,365.922 299.978,366.704 299.365,365.491 299.007,364.578 298.588,363.125 298.406,362.161 298.262,360.624 298.245,359.885 298.297,358.779 298.333,358.366 298.472,357.276 298.515,356.996 298.71,355.922 298.74,355.774 298.964,354.716 298.968,354.7 299.179,353.719 299.337,352.89 299.411,352.35 " fill="none" stroke-width="0.5" stroke="rgb(0,0,0)" />
	<polygon points="386.224,307.135 385.167,308.318 384.064,309.878 383.015,311.71 382.09,313.703 381.405,315.581 381.165,316.821 380.955,319.11 380.779,322.086 380.592,325.271 380.581,325.418 380.319,328.423 380.273,328.797 379.869,331.318 379.635,332.237 379.022,333.972 377.583,335.9 378.984,336.901 379.731,337.55 382.218,340.16 382.873,341.006 384.703,343.943 385.197,344.971 386.327,348.171 386.593,349.325 386.979,352.722 386.991,353.785 386.873,355.104 389.305,352.294 389.903,351.705 394.514,347.841 395.774,347.059 401.273,344.642 400.98,344.443 399.851,343.355 399.454,342.928 398.177,341.39 398.059,341.241 396.709,339.49 395.478,337.913 395.009,338.318 393.8,339.371 393.643,339.503 392.494,340.425 392.033,340.757 391.011,341.41 389.676,342.02 388.841,342.267 386.697,342.443 386.509,342.42 385.243,342.097 385.074,342.031 384.001,341.458 383.852,341.355 383.027,340.646 382.901,340.513 382.302,339.748 382.201,339.59 381.787,338.81 381.712,338.634 381.445,337.835 381.399,337.648 381.263,336.818 381.247,336.625 381.295,335.363 381.573,333.627 381.788,332.762 382.522,330.614 382.64,330.299 383.677,327.798 383.696,327.752 384.856,325.028 385.96,322.224 386.87,319.425 387.471,316.723 387.697,314.003 387.671,312.61 387.559,310.816 387.335,309.002 386.991,307.396 386.745,306.704 " fill="none" stroke-width="0.5" stroke="rgb(0,0,0)" />
	<polygon points="150.896,292.719 150.989,292.857 156.726,301.669 157.02,302.182 161.078,310.285 161.521,311.554 163.06,318.859 163.152,320.406 162.9,323.246 162.743,324.134 161.993,326.948 161.687,327.797 160.449,330.477 159.976,331.297 158.262,333.734 157.596,334.509 155.415,336.593 154.54,337.269 151.904,338.893 150.849,339.39 147.767,340.444 147.014,340.611 148.111,340.897 148.806,341.132 151.397,342.213 152.096,342.568 154.556,344.059 155.183,344.505 157.533,346.451 158.04,346.932 160.299,349.377 160.679,349.838 162.868,352.828 163.212,353.362 163.917,354.621 163.298,352.738 163.069,351.692 162.326,345.169 162.296,344.404 162.354,342.62 162.378,342.262 162.557,340.498 162.615,340.086 162.921,338.408 163.041,337.896 163.48,336.373 163.727,335.695 164.305,334.393 164.831,333.473 165.555,332.46 166.675,331.313 167.551,330.655 169.543,329.733 170.577,329.499 172.277,329.397 172.992,329.471 172.909,329.387 172.285,328.613 168.72,323.215 168.206,322.219 165.906,316.284 165.594,315.058 164.779,308.723 164.744,307.773 164.913,304.615 164.972,304.058 165.464,301.011 165.581,300.471 166.376,297.547 166.545,297.033 167.622,294.244 167.837,293.763 168.94,291.585 168.454,292.122 167.375,293.14 166.824,293.593 165.606,294.463 165.007,294.833 163.725,295.511 162.989,295.83 161.719,296.27 160.691,296.513 159.508,296.669 158.383,296.697 158.027,296.667 157.141,296.516 156.735,296.41 155.853,296.095 155.406,295.888 154.612,295.433 154.133,295.1 153.482,294.565 152.981,294.081 152.485,293.529 151.972,292.869 151.614,292.347 151.098,291.486 150.847,291.016 150.494,290.263 150.231,289.862 149.449,289.039 148.053,287.762 146.467,286.366 " fill="none" stroke-width="0.5" stroke="rgb(0,0,0)" />
	<polygon points="55.7516,335.79 56.6017,342.76 60.1724,348.503 64.3435,352.631 64.0477,351.342 63.9149,350.221 63.8896,347.759 64.0077,346.597 64.499,344.321 64.8458,343.269 65.7743,341.213 66.2827,340.328 67.5686,338.522 67.8,338.252 66.3578,338.075 65.8971,337.997 63.0268,337.382 62.3185,337.177 59.8498,336.27 58.9604,335.845 56.8196,334.562 56.278,334.156 " fill="none" stroke-width="0.5" stroke="rgb(0,0,0)" />
	<polygon points="320.152,337.81 319.468,338.688 318.534,339.619 317.651,340.301 316.724,340.873 315.685,341.375 314.88,341.684 313.727,342.022 313.059,342.171 311.837,342.361 311.28,342.418 310.387,342.461 310.637,342.523 311.487,342.816 314.382,344.098 315.2,344.551 317.662,346.218 318.123,346.597 318.264,345.014 318.379,344.291 319.028,341.498 319.151,341.059 320.068,338.244 320.139,338.042 320.358,337.454 " fill="none" stroke-width="0.5" stroke="rgb(0,0,0)" />
	<polygon points="123.788,321.662 122.968,322.273 121.039,323.436 120.051,323.899 118.029,324.601 119.352,325.508 120.108,326.138 121.651,327.692 122.273,328.448 123.519,330.287 123.997,331.161 124.889,333.241 125.199,334.22 125.682,336.496 125.796,337.634 125.776,339.873 125.666,340.89 125.229,342.997 125.057,343.55 126.242,342.716 126.969,342.288 128.95,341.325 129.612,341.058 131.791,340.345 132.426,340.181 134.715,339.738 135.189,339.677 135.15,339.664 134.133,339.213 131.826,337.878 130.958,337.25 129.052,335.549 128.366,334.807 126.87,332.836 126.361,332.02 125.282,329.876 124.936,328.998 124.282,326.777 124.095,325.816 123.875,323.615 123.868,322.66 123.964,321.503 " fill="none" stroke-width="0.5" stroke="rgb(0,0,0)" />
	<polygon points="219.546,339.986 220.059,339.522 220.108,339.446 220.096,339.399 219.738,338.985 " fill="none" stroke-width="0.5" stroke="rgb(0,0,0)" />
	<polygon points="321.34,324.622 320.039,325.508 319.311,325.856 319.914,326.553 320.521,327.444 321.112,328.594 321.44,329.49 321.728,330.708 321.826,331.583 321.823,332.789 321.697,333.849 322.203,332.485 323.015,329.97 323.532,327.712 323.718,325.574 323.697,325 323.616,324.319 323.479,323.656 323.28,322.997 323.043,322.411 " fill="none" stroke-width="0.5" stroke="rgb(0,0,0)" />
	<polygon points="355.849,332.97 355.988,332.636 355.684,332.554 355.637,332.538 " fill="none" stroke-width="0.5" stroke="rgb(0,0,0)" />
	<polygon points="365.14,329.784 363.909,330.522 365.68,330.765 366.113,330.858 365.768,329.416 " fill="none" stroke-width="0.5" stroke="rgb(0,0,0)" />
	<polygon points="204.1,321.266 204.297,323.483 204.886,325.616 205.826,327.547 207.097,329.263 207.93,330.036 207.34,329.306 205.499,326.231 204.833,324.449 204.171,320.71 " fill="none" stroke-width="0.5" stroke="rgb(0,0,0)" />
	<polygon points="74.6922,307.08 73.1209,311.443 72.1484,315.172 71.8188,318.224 71.8533,319.445 71.994,320.779 72.2612,322.04 72.6949,323.299 73.3617,324.637 74.3529,326.117 75.3138,327.241 76.0534,325.273 76.4943,324.372 77.5987,322.574 78.2111,321.765 79.6288,320.226 80.3855,319.549 82.0865,318.302 82.9481,317.789 84.9023,316.866 85.822,316.532 87.9994,315.965 88.977,315.807 91.4108,315.646 92.478,315.685 94.7251,315.997 95.7617,316.25 97.804,316.976 98.7286,317.41 100.548,318.492 101.319,319.051 101.732,319.411 100.809,318.046 100.351,317.217 99.6592,315.641 99.3777,314.823 98.9806,313.259 98.8388,312.422 98.8171,312.173 97.4333,312.97 96.3669,313.435 93.8524,314.215 92.7975,314.426 90.1098,314.683 89.1044,314.682 87.3464,314.512 86.3629,314.32 84.6592,313.816 83.7296,313.441 82.1356,312.614 81.2794,312.057 79.8503,310.916 79.1003,310.183 77.8917,308.74 77.2926,307.855 76.3596,306.118 75.9532,305.134 75.7767,304.542 " fill="none" stroke-width="0.5" stroke="rgb(0,0,0)" />
	<polygon points="366.437,300.821 365.994,300.975 361.924,302.191 361.631,302.269 357.291,303.297 357.052,303.348 352.841,304.14 352.59,304.181 348.905,304.691 348.528,304.729 345.77,304.91 344.952,304.899 344.359,304.846 343.704,304.715 343.75,304.952 343.83,306.381 343.729,307.626 343.546,308.636 343.232,309.742 342.748,310.898 342.205,311.856 341.38,312.948 340.591,313.75 339.572,314.556 338.52,315.194 337.965,315.456 340.025,316.402 340.792,316.835 345.652,320.148 346.345,320.712 350.362,324.599 350.954,325.279 351.804,326.445 351.825,325.968 352.044,324.982 352.362,324.006 352.937,322.696 353.118,322.324 353.93,320.808 354.019,320.65 354.897,319.139 352.924,318.67 352.701,318.612 350.853,318.087 350.113,317.815 348.805,317.22 346.672,315.442 346.177,314.73 345.235,311.67 345.713,309.541 345.916,309.097 347.619,307.027 348.191,306.614 349.17,306.057 350.054,305.674 350.573,305.48 351.711,305.123 352.013,305.038 353.348,304.706 353.535,304.663 355.009,304.353 355.127,304.329 356.683,304.039 356.753,304.027 358.182,303.781 361.283,303.058 364.493,301.974 367.683,300.542 368.848,299.859 " fill="none" stroke-width="0.5" stroke="rgb(0,0,0)" />
	<polygon points="104.831,322.684 104.86,322.726 105.165,322.637 104.775,322.397 104.286,322.016 " fill="none" stroke-width="0.5" stroke="rgb(0,0,0)" />
	<polygon points="128.349,294.056 128.462,294.472 129.847,300.58 129.957,301.281 130.482,307.251 130.478,308.216 130.249,310.598 130.227,310.708 131.154,310.225 131.632,310.066 133.789,309.822 133.969,309.84 135.308,310.148 135.458,310.204 136.978,311.088 137.099,311.189 138.195,312.447 138.29,312.599 138.812,313.706 138.882,313.916 139.076,314.681 139.123,314.954 139.185,315.442 139.212,315.785 139.227,316.091 139.232,316.312 139.258,316.587 139.275,316.647 139.317,316.733 139.365,316.798 139.405,316.835 139.458,316.865 139.598,316.91 139.954,316.946 140.274,316.917 140.475,316.859 140.578,316.805 140.631,316.762 140.67,316.714 140.711,316.634 140.736,316.548 139.774,312.041 136.804,305.877 132.207,298.175 126.908,289.483 " fill="none" stroke-width="0.5" stroke="rgb(0,0,0)" />
	<polygon points="401.44,304.44 402.446,306.458 403.831,308.54 405.516,310.571 407.407,312.452 409.396,314.091 411.519,315.514 412.506,316.118 413.116,316.456 411.53,313.633 409.382,310.148 406.924,306.89 404.26,304.319 401.555,302.754 400.859,302.622 " fill="none" stroke-width="0.5" stroke="rgb(0,0,0)" />
	<polygon points="437.47,310.54 437.281,310.66 436.379,311.12 436.141,311.214 435.448,311.433 435.16,311.502 434.654,311.598 434.318,311.644 433.956,311.682 433.57,311.708 433.311,311.72 432.877,311.728 432.623,311.727 431.853,311.704 431.64,311.694 430.794,311.635 430.676,311.625 429.773,311.541 429.724,311.537 428.789,311.441 427.87,311.349 427.14,311.284 427.113,312.778 427.108,312.948 427.017,314.75 426.967,315.255 426.914,315.618 428.103,314.978 429.068,314.576 431.225,313.921 432.241,313.719 434.545,313.494 435.244,313.473 437.285,313.546 437.695,313.577 438.259,313.642 438.204,312.514 438.214,311.842 438.377,309.784 " fill="none" stroke-width="0.5" stroke="rgb(0,0,0)" />
	<polygon points="312.034,302.703 311.329,303.272 306.739,306.355 305.782,306.864 303.467,307.801 304.186,307.728 304.938,307.706 307.75,307.825 308.203,307.864 310.842,308.205 311.323,308.291 313.726,308.833 314.27,308.987 316.375,309.707 316.662,309.827 316.107,309.122 315.448,308.037 314.574,306.105 314.163,304.697 313.847,302.523 313.829,301.151 313.851,300.962 " fill="none" stroke-width="0.5" stroke="rgb(0,0,0)" />
	<polygon points="434.909,289.814 434.394,290.97 433.721,292.093 433.49,292.447 432.539,293.778 432.469,293.873 431.4,295.301 430.462,296.588 432.147,297.542 434.07,298.58 434.192,298.648 435.897,299.628 436.39,299.95 437.575,300.82 439.056,302.504 439.464,303.239 439.739,304.617 440.379,303.17 440.572,302.826 439.784,302.388 438.587,300.315 436.625,293.821 435.066,289.302 " fill="none" stroke-width="0.5" stroke="rgb(0,0,0)" />
	<polygon points="108.317,291.993 108.306,292.338 108.029,296.544 107.918,297.328 107.125,300.928 107.066,301.115 108.241,301.204 108.524,301.362 110.548,303.378 110.56,303.4 110.684,302.518 110.738,301.15 110.419,296.491 109.571,292.051 108.318,287.586 108.317,287.582 " fill="none" stroke-width="0.5" stroke="rgb(0,0,0)" />
	<polygon points="458.5,287.021 457.283,287.584 456.012,288.636 454.621,290.317 453.149,292.593 452.043,294.552 452.064,294.547 454.772,294.272 456.138,294.312 459.327,294.826 460.823,295.305 462.376,296.074 462.221,294.97 462.219,294.969 462.22,294.96 462.217,294.935 462.241,294.816 462.243,294.803 462.252,294.716 462.262,294.561 462.27,294.343 462.275,294.07 462.277,293.746 462.277,293.506 462.202,291.977 461.987,290.506 461.63,289.129 461.174,288.006 460.713,287.267 460.388,286.942 460.24,286.863 459.952,286.817 " fill="none" stroke-width="0.5" stroke="rgb(0,0,0)" />
	<polygon points="337.672,293.765 338.643,295.096 338.665,295.029 339.002,294.282 339.168,293.946 339.422,293.474 338.866,293.435 337.443,293.407 " fill="none" stroke-width="0.5" stroke="rgb(0,0,0)" />
	<polygon points="89.4437,276.942 89.3739,277.089 86.4603,282.966 86.4157,283.053 84.0605,287.588 82.6509,290.309 83.2715,290.29 83.7875,290.447 85.5236,291.359 86.0452,291.774 86.5545,292.237 87.1194,292.821 87.6105,293.329 87.9033,293.584 88.0223,293.659 88.0526,293.67 88.1528,293.681 89.1227,293.548 89.346,293.428 89.6347,293.078 90.1585,291.803 90.6539,289.394 90.9814,285.958 91.1374,281.611 91.1744,276.402 91.1818,276.159 91.3644,272.748 " fill="none" stroke-width="0.5" stroke="rgb(0,0,0)" />
	<polygon points="375.763,292.539 375.917,291.67 375.861,291.21 " fill="none" stroke-width="0.5" stroke="rgb(0,0,0)" />
	<polygon points="54.2517,274.196 53.9958,275.381 53.9834,276.716 54.2801,278.124 55.0881,279.852 55.4105,280.361 55.8821,281.089 55.9167,281.143 56.3618,281.848 56.4694,282.027 56.8609,282.706 57.0352,283.035 57.361,283.705 57.572,284.204 57.8198,284.885 58.0113,285.542 58.1689,286.251 58.2799,287.007 58.3351,287.764 58.2857,288.959 57.9445,291.135 57.7121,292.06 57.5606,292.492 58.6722,290.873 61.1672,286.28 61.9665,282.8 61.9283,282.543 61.8603,282.286 61.7687,282.055 61.6374,281.813 61.4391,281.533 61.1413,281.196 60.5453,280.645 60.533,280.633 58.611,278.842 58.3001,278.527 56.786,276.857 56.5922,276.631 55.3694,275.117 55.3419,275.083 54.402,273.9 54.388,273.884 " fill="none" stroke-width="0.5" stroke="rgb(0,0,0)" />
	<polygon points="157.164,223.107 157.065,223.283 155.866,225.317 154.829,227.122 154.107,228.604 153.872,229.311 154.175,229.437 156.023,233.662 155.963,235.088 155.948,235.323 155.789,237.145 155.778,237.255 155.554,239.327 155.548,239.378 155.29,241.554 155.289,241.565 155.033,243.687 154.815,245.578 154.672,247.033 154.629,247.834 154.665,248.983 154.693,249.221 156.775,250.582 157.746,252.446 158.211,254.07 158.311,254.478 158.676,256.289 158.721,256.542 159.012,258.47 159.032,258.612 159.276,260.589 159.282,260.638 159.503,262.575 159.72,264.349 159.946,265.832 160,266.083 161.742,266.749 163.348,268.928 163.889,270.304 164.456,271.74 165.046,273.142 165.663,274.46 166.301,275.633 166.937,276.601 167.531,277.311 168.387,278.067 168.632,278.278 169.002,278.632 169.272,278.915 169.569,279.256 169.832,279.584 170.095,279.943 170.337,280.306 170.586,280.717 170.796,281.104 171.036,281.608 171.202,282.009 171.421,282.654 171.529,283.059 171.683,283.908 171.722,284.306 171.668,285.721 171.46,286.911 171.075,288.099 171.296,287.786 173.096,285.475 173.412,285.105 175.412,282.977 177.289,281.935 175.694,280.852 175.162,280.439 171.048,276.794 170.218,275.861 167.308,271.675 166.501,269.849 165.397,265.024 165.469,262.403 166.61,258.43 167.612,256.532 170.621,252.896 171.358,252.167 175.613,248.715 175.906,248.494 180.747,245.099 185.369,241.741 188.985,238.495 191.064,235.557 191.804,232.425 191.803,232.406 191.72,231.677 191.569,230.798 191.353,229.833 191.076,228.836 190.748,227.856 190.381,226.939 190.122,226.402 189.744,229.41 189.414,230.692 188.067,234.086 187.514,235.124 185.478,238.084 184.879,238.807 182.327,241.378 181.802,241.842 178.906,244.069 178.5,244.352 175.432,246.282 175.154,246.445 172.086,248.121 171.942,248.196 169.046,249.664 165.885,250.171 163.017,248.749 161.508,245.925 161.538,243.889 161.781,242.747 161.993,241.647 162.18,240.545 162.34,239.443 162.469,238.34 162.564,237.236 162.624,236.13 162.642,235.1 162.541,233.029 162.223,231.025 161.644,229.002 160.748,226.929 159.461,224.777 157.696,222.528 157.553,222.385 " fill="none" stroke-width="0.5" stroke="rgb(0,0,0)" />
	<polygon points="420.621,263.69 420.165,265.026 420.007,265.432 419.363,266.907 419.284,267.081 418.549,268.608 419.867,268.899 420.102,268.956 421.726,269.394 422.454,269.649 423.603,270.149 425.748,271.865 426.183,272.461 427.194,275.499 426.572,278.039 426.105,278.91 423.957,281.058 422.683,281.741 421.673,282.153 419.782,282.704 419.371,282.806 417.053,283.283 416.926,283.307 414.401,283.762 411.955,284.233 409.879,284.739 408.236,285.323 406.889,285.948 405.715,286.601 404.817,287.215 404.473,287.514 405.258,287.575 406.651,287.604 410.331,287.368 413.632,286.759 416.678,285.88 419.453,284.844 421.951,283.762 424.123,282.775 424.307,282.695 426.047,281.983 426.919,281.712 428.159,281.442 429.715,281.34 429.902,281.356 430.839,281.521 431.008,281.567 431.981,281.938 432.13,282.013 432.272,282.104 432.162,281.828 429.575,276.369 426.712,271.338 423.55,266.782 420.679,263.454 " fill="none" stroke-width="0.5" stroke="rgb(0,0,0)" />
	<polygon points="391.677,268.882 391.676,268.887 391.081,271.384 390.593,273.706 390.275,275.805 390.161,277.708 390.21,278.863 390.361,280.003 390.595,280.963 390.692,281.208 390.913,280.888 391.422,279.829 391.851,278.5 392.136,276.994 392.244,275.278 392.198,273.049 392.07,270.84 391.886,268.762 391.828,268.242 " fill="none" stroke-width="0.5" stroke="rgb(0,0,0)" />
	<polygon points="341.977,271.25 339.233,272.784 338.063,274.045 337.642,275.705 337.684,276.029 337.805,276.299 337.998,276.522 338.44,276.83 339.201,277.161 340.214,277.429 341.348,277.591 341.998,277.62 341.948,277.116 341.885,276.501 341.881,276.461 341.824,275.871 341.815,275.755 341.775,275.21 341.763,274.989 341.748,274.5 341.768,273.852 341.792,273.589 341.968,272.646 342.04,272.392 342.384,271.497 342.501,271.26 342.676,270.977 " fill="none" stroke-width="0.5" stroke="rgb(0,0,0)" />
	<polygon points="133.253,217.343 129.141,218.644 127.249,219.498 129.653,220.239 131.596,222.784 131.32,226.945 130.186,229.153 129.349,231.269 128.672,233.507 128.151,235.798 127.774,238.074 127.528,240.266 127.395,242.304 127.363,243.809 128.762,253.845 132.481,263.71 137.935,273.606 140.001,276.737 139.884,275.479 140.587,274.072 140.595,274.042 140.498,273.489 140.02,272.418 139.004,270.724 137.647,268.641 137.572,268.523 136.163,266.227 135.947,265.84 134.718,263.397 134.427,262.698 133.557,260.09 133.324,259.046 132.994,256.259 133.605,253.116 134.646,252.072 134.573,251.399 134.177,249.758 133.513,247.607 132.696,245.153 132.683,245.115 131.847,242.541 131.792,242.359 131.063,239.801 130.974,239.44 130.458,236.981 130.366,236.353 130.17,234.076 130.882,230.955 133.274,228.827 133.43,228.792 133.496,227.953 133.518,227.733 133.819,225.266 133.862,224.979 134.321,222.401 134.399,222.041 135.057,219.428 135.189,218.984 135.943,216.82 " fill="none" stroke-width="0.5" stroke="rgb(0,0,0)" />
	<polygon points="313.558,273.609 313.678,273.734 314.772,274.913 314.736,274.77 313.121,272.909 312.354,272.393 " fill="none" stroke-width="0.5" stroke="rgb(0,0,0)" />
	<polygon points="350.91,267.835 350.466,268.023 350.392,268.051 351.989,268.53 352.993,268.948 352.998,268.951 353.087,266.792 " fill="none" stroke-width="0.5" stroke="rgb(0,0,0)" />
	<polygon points="358.478,246.267 357.645,246.829 355.595,247.944 354.649,248.344 352.812,248.916 354.994,249.452 358.102,249.711 361.059,250.936 362.755,253.651 362.388,257.238 360.645,260.825 360.205,261.382 360.756,261.325 361.019,261.304 362.002,261.252 362.169,261.246 363.078,261.227 363.17,261.226 363.74,261.224 363.68,260.311 363.677,260.263 363.621,259.267 363.617,259.183 363.577,258.198 363.573,258.069 363.558,257.123 363.558,256.968 363.567,256.33 363.572,256.145 363.601,255.552 363.621,255.285 363.675,254.75 363.73,254.356 363.812,253.891 363.956,253.289 364.072,252.906 364.461,251.962 364.615,251.674 365.669,250.299 365.826,250.153 365.423,249.985 364.306,249.387 363.469,248.831 362.479,248.026 361.759,247.314 360.931,246.321 360.353,245.468 360.072,244.953 " fill="none" stroke-width="0.5" stroke="rgb(0,0,0)" />
	<polygon points="445.029,250.857 446.205,253.772 446.207,253.778 447.561,257.142 447.588,257.211 448.629,259.908 449.276,258.687 449.342,258.568 451.024,255.586 451.071,255.504 452.089,253.774 451.44,253.446 451.26,253.351 447.805,251.433 447.497,251.248 444.414,249.249 " fill="none" stroke-width="0.5" stroke="rgb(0,0,0)" />
	<polygon points="382.109,241.977 381.719,243.291 381.319,244.266 380.699,245.429 380.105,246.314 379.28,247.307 378.523,248.051 377.518,248.856 376.64,249.425 375.48,250.023 374.53,250.4 374.337,250.456 375.293,251.306 375.871,251.909 376.989,253.28 377.206,253.565 378.319,255.136 378.371,255.211 378.526,255.438 378.631,255.33 379.846,254.052 380.048,253.852 381.235,252.732 381.817,252.257 382.944,251.465 384.505,250.717 385.544,250.417 387.45,250.229 387.751,250.255 388.897,250.484 389.152,250.565 390.501,251.22 390.712,251.363 391.865,252.426 392.033,252.637 392.722,253.761 392.85,254.045 393.151,254.917 394.039,254.205 394.247,254.076 395.381,253.548 395.613,253.472 396.729,253.238 396.981,253.213 399.338,253.521 400.315,253.886 401.952,254.871 402.919,255.726 403.507,256.337 404.469,257.515 404.659,257.763 405.612,259.083 406.123,259.781 406.271,259.682 407.462,258.763 408.736,257.738 408.838,257.658 410.046,256.733 410.46,256.447 410.803,256.233 407.349,254.908 401.969,253.397 396.581,251.892 396.073,251.722 391.26,249.831 390.156,249.237 386.279,246.505 384.885,245.049 382.298,241.019 382.295,241.012 " fill="none" stroke-width="0.5" stroke="rgb(0,0,0)" />
	<polygon points="314.516,222.695 312.825,223.623 311.884,224.025 310.026,224.613 308.984,224.829 307.002,225.035 306.617,225.035 307.71,228.414 309.172,230.059 311.721,231.575 315.305,233.132 315.498,233.221 319.298,235.058 320.241,235.644 323.505,238.189 324.781,239.632 327.066,243.447 327.752,245.353 327.826,245.839 328.711,245.138 329.828,244.44 330.723,243.993 331.891,243.543 332.698,243.305 333.846,243.063 334.57,242.963 334.882,242.942 334.351,242.298 333.787,241.464 332.673,239.417 332.273,238.47 331.568,236.209 331.357,235.177 331.139,233.022 329.85,233.423 328.82,233.634 327.414,233.776 326.352,233.775 324.958,233.633 323.922,233.42 322.619,233.012 321.673,232.611 320.491,231.965 319.66,231.402 318.627,230.548 317.924,229.845 317.071,228.81 316.509,227.979 315.863,226.793 315.462,225.847 315.054,224.537 314.842,223.504 314.744,222.541 " fill="none" stroke-width="0.5" stroke="rgb(0,0,0)" />
	<polygon points="103.434,233.885 103.417,234.648 103.026,238.745 102.931,239.358 102.874,239.62 102.879,239.613 106.137,235.612 104.003,234.446 103.4,233.228 " fill="none" stroke-width="0.5" stroke="rgb(0,0,0)" />
	<polygon points="463.677,213.137 463.695,213.94 463.689,214.321 463.561,216.842 463.53,217.207 463.193,219.988 463.164,220.196 462.688,223.137 462.671,223.238 462.125,226.238 462.123,226.251 461.584,229.172 461.131,231.856 460.832,234.147 460.735,235.841 460.819,236.925 461.052,237.954 461.41,238.912 461.507,239.092 462.139,238.384 463.657,236.209 465.099,233.57 466.281,230.658 467.059,227.658 467.329,224.759 466.75,219.565 465.271,215.519 463.676,213.127 " fill="none" stroke-width="0.5" stroke="rgb(0,0,0)" />
	<polygon points="409.992,231.799 412.644,235.377 415.068,237.698 416.334,238.718 415.513,237.757 409.562,230.943 " fill="none" stroke-width="0.5" stroke="rgb(0,0,0)" />
	<polygon points="380.714,197.356 380.501,198.394 380.069,199.769 379.667,200.714 378.985,201.962 378.423,202.791 377.521,203.88 376.82,204.581 375.816,205.411 376.797,205.942 377.635,206.507 378.85,207.508 379.56,208.218 380.563,209.432 381.128,210.27 381.885,211.664 382.285,212.613 382.763,214.154 382.972,215.183 383.139,216.838 383.139,217.888 382.972,219.548 382.764,220.576 382.286,222.12 381.887,223.069 381.13,224.466 380.565,225.305 379.563,226.521 378.853,227.231 377.637,228.234 376.798,228.8 376.503,228.96 376.667,229.045 377.504,229.589 378.508,230.387 379.23,231.081 380.054,232.043 380.572,232.782 380.538,232.031 380.673,230.104 380.736,229.584 381.093,227.502 381.151,227.213 381.656,225.016 381.685,224.895 382.262,222.634 382.82,220.415 383.275,218.348 383.569,216.502 383.674,214.824 383.666,214.482 383.635,214.094 383.59,213.772 383.534,213.516 383.476,213.325 383.421,213.19 383.372,213.097 383.165,212.789 382.271,209.714 383.33,206.693 385.947,204.848 389.815,205.135 390.615,205.524 383.499,199.722 382.628,198.818 380.811,196.413 " fill="none" stroke-width="0.5" stroke="rgb(0,0,0)" />
	<polygon points="47.424,226.018 46.9595,226.215 44.432,227.145 43.8337,227.325 42.734,227.587 43.8789,228.099 44.2414,228.319 45.3015,229.166 45.5844,229.459 46.3406,230.459 46.55,230.819 46.9841,231.77 47.1088,232.136 47.1628,231.92 48.8952,226.098 49.3157,225.108 " fill="none" stroke-width="0.5" stroke="rgb(0,0,0)" />
	<polygon points="85.8758,211.077 84.134,213.007 83.569,213.383 83.102,213.659 82.9114,213.759 83.0063,213.8 84.2019,214.504 84.7733,214.953 85.6406,215.814 86.1034,216.396 86.6577,217.251 87.0139,217.939 87.3403,218.717 87.5922,219.485 87.7686,220.18 87.9182,221.002 87.9942,221.637 88.0436,222.485 88.0151,223.415 87.5582,227.227 87.57,227.209 87.9771,226.677 88.7054,225.841 89.3409,225.225 90.0774,224.623 91.0735,223.981 91.8103,223.617 93.2682,223.145 93.9971,223.023 95.5981,223.002 96.2419,223.092 97.6511,223.497 98.2628,223.771 99.4337,224.491 99.9967,224.949 100.839,225.812 101.337,226.457 101.879,227.32 102.145,227.852 102.118,227.527 102.11,227.413 102.069,226.718 102.063,226.598 102.039,225.918 102.036,225.792 102.027,225.128 102.041,224.674 102.344,220.597 102.46,219.822 103.301,216.122 103.524,215.392 104.804,212.084 104.979,211.711 104.498,211.955 101.919,212.889 100.706,213.171 97.7082,213.501 96.5513,213.5 93.3621,213.144 92.1845,212.873 89.3203,211.853 88.2461,211.326 86.0766,209.935 " fill="none" stroke-width="0.5" stroke="rgb(0,0,0)" />
	<polygon points="63.432,215.298 61.4088,216.974 62.3565,217.247 63.0008,217.543 64.3336,218.421 64.8504,218.889 65.7387,219.935 66.1384,220.554 66.618,221.492 66.9109,222.242 67.1388,222.983 67.3353,223.844 67.4319,224.407 67.5423,225.358 67.5742,225.786 67.6025,226.623 69.2681,222.522 69.606,221.838 72.2706,217.304 73.901,215.61 71.7499,215.431 70.8554,215.278 68.7837,214.736 67.8815,214.409 66.011,213.531 65.1361,213.011 64.7454,212.724 " fill="none" stroke-width="0.5" stroke="rgb(0,0,0)" />
	<polygon points="450.681,206.029 448.828,206.696 445.988,207.878 445.892,207.916 442.303,209.327 442.016,209.43 437.706,210.841 437.3,210.956 432.179,212.187 431.703,212.278 425.681,213.148 425.177,213.197 418.163,213.527 417.251,213.49 415.765,213.3 419.969,214.438 420.893,214.784 425.338,216.945 426.394,217.626 430.088,220.69 430.905,221.54 434.108,225.726 434.268,225.974 434.378,225.588 436.123,221.529 436.626,220.619 439.149,216.965 439.648,216.348 442.632,213.18 443.097,212.743 446.228,210.139 446.689,209.797 449.65,207.839 450.204,207.519 452.68,206.285 453.033,206.154 452.636,206.04 451.444,205.901 " fill="none" stroke-width="0.5" stroke="rgb(0,0,0)" />
	<polygon points="184.163,211.048 185.044,211.861 187.016,214.148 187.73,215.216 188.938,217.617 189.346,218.718 189.953,221.173 190.031,221.674 190.94,219.933 193.794,218.482 197.359,219.187 196.556,217.713 195.947,215.51 195.261,214.204 194.354,213.158 193.095,212.24 191.337,211.429 188.998,210.782 186.066,210.364 183.053,210.238 " fill="none" stroke-width="0.5" stroke="rgb(0,0,0)" />
	<polygon points="337.627,212.153 335.813,213.129 335.746,213.157 335.872,213.283 336.729,214.318 337.294,215.151 337.941,216.338 338.344,217.286 338.57,218.011 339.152,217.618 341.201,216.504 341.372,216.431 340.807,215.867 339.951,214.83 339.388,213.997 338.742,212.809 338.341,211.862 338.293,211.707 " fill="none" stroke-width="0.5" stroke="rgb(0,0,0)" />
	<polygon points="399.792,211.366 400.712,212.344 402.147,214.328 402.565,213.44 405.215,211.953 404.486,211.86 403.072,211.473 396.442,208.613 " fill="none" stroke-width="0.5" stroke="rgb(0,0,0)" />
	<polygon points="57.1299,202.317 56.7591,202.649 54.9789,204.094 54.5431,204.412 52.7562,205.581 52.2489,205.874 50.4702,206.772 49.8866,207.024 48.1312,207.658 47.4703,207.848 45.753,208.224 45.0206,208.331 43.3564,208.455 42.4388,208.442 40.3477,208.231 39.3997,208.031 40.1172,208.268 41.6151,208.533 43.3812,208.626 44.8386,208.587 46.4594,208.464 48.194,208.26 50.0527,207.978 52.0448,207.619 54.1786,207.19 56.4623,206.694 58.9187,206.135 59.374,206.175 59.2611,205.917 58.6238,203.902 58.4049,202.835 58.2454,201.22 " fill="none" stroke-width="0.5" stroke="rgb(0,0,0)" />
	<polygon points="361.948,206.397 362.134,206.271 361.923,206.155 " fill="none" stroke-width="0.5" stroke="rgb(0,0,0)" />
	<polygon points="114.088,200.017 113.855,200.805 113.772,201.021 113.982,200.859 114.641,200.424 115.612,199.884 114.488,199.458 114.28,199.115 " fill="none" stroke-width="0.5" stroke="rgb(0,0,0)" />
	<polygon points="124.155,196.451 123.547,196.542 123.124,196.66 122.89,196.764 122.831,196.803 122.625,197.314 122.453,197.52 122.51,197.51 122.788,197.466 123.971,197.313 124.208,197.288 125.431,197.186 125.631,197.173 126.891,197.117 127.055,197.112 128.351,197.095 128.557,197.096 128.821,197.103 126.908,196.614 124.798,196.422 " fill="none" stroke-width="0.5" stroke="rgb(0,0,0)" />
	<polygon points="354.998,195.982 354.257,196.215 355.026,196.541 355.878,197.004 355.763,195.884 355.763,195.657 " fill="none" stroke-width="0.5" stroke="rgb(0,0,0)" />
	<polygon points="59.8946,190.302 59.5695,190.372 59.5184,190.381 60.4461,191.27 61.2682,189.962 " fill="none" stroke-width="0.5" stroke="rgb(0,0,0)" />
	<polygon points="178.957,184.066 179.995,186.925 179.997,186.961 180.067,186.939 180.619,186.804 184.471,186.078 185.106,185.998 185.203,185.992 183.809,185.784 182.288,185.314 178.747,183.593 " fill="none" stroke-width="0.5" stroke="rgb(0,0,0)" />
	<polygon points="367.225,166.248 366.413,167.229 365.704,167.937 364.72,168.747 363.884,169.31 362.755,169.922 361.808,170.32 361.766,170.333 362.408,171.108 362.97,171.936 364.009,173.835 364.412,174.78 365.07,176.873 365.285,177.912 365.514,180.151 365.514,181.224 365.316,183.149 366.295,182.946 367.75,182.796 368.823,182.795 370.296,182.946 371.331,183.158 372.707,183.589 373.002,183.714 371.766,181.186 371.471,180.447 368.705,171.598 368.549,170.962 367.601,165.692 " fill="none" stroke-width="0.5" stroke="rgb(0,0,0)" />
	<polygon points="163.671,163.517 163.384,163.766 159.796,166.653 159.382,166.954 155.596,169.435 155.053,169.746 150.98,171.769 150.333,172.038 145.885,173.549 145.189,173.733 140.277,174.678 139.599,174.764 139.467,174.772 141.775,176.38 142.402,176.893 145.796,180.138 146.215,180.589 148.392,183.224 148.972,179.537 149.158,178.753 150.117,175.757 150.716,174.495 152.107,172.357 153.575,170.865 155.477,169.583 157.525,168.763 160.02,168.336 161.914,168.358 163.642,168.696 164.937,169.131 166.897,170.088 166.925,170.105 166.322,168.949 166.068,168.384 164.265,163.638 164.116,163.184 164.098,163.12 " fill="none" stroke-width="0.5" stroke="rgb(0,0,0)" />
	<polygon points="109.234,158.471 108.588,159.659 108.026,160.491 107.17,161.527 106.467,162.232 105.432,163.087 104.6,163.651 103.414,164.298 102.467,164.699 101.159,165.109 100.124,165.321 98.7224,165.464 97.6604,165.464 96.2533,165.321 95.221,165.11 93.9082,164.701 92.9625,164.301 91.7728,163.654 90.9405,163.092 90.0872,162.388 90.0242,162.605 89.8707,163.055 88.7467,165.921 88.8262,165.867 92.1375,165.978 95.4803,167.215 96.0619,167.471 99.4374,169.21 99.9834,169.534 103.244,171.749 103.783,172.169 106.781,174.835 107.318,175.389 109.907,178.482 110.42,179.213 112.452,182.707 112.581,182.99 112.596,182.893 112.772,182.137 113.491,179.832 113.89,178.889 114.933,176.971 115.67,175.936 117.056,174.419 118.136,173.517 119.886,172.415 120.822,171.982 118.344,170.565 117.409,169.883 114.516,167.239 113.785,166.415 111.563,163.304 111.056,162.424 109.489,158.975 109.277,158.371 " fill="none" stroke-width="0.5" stroke="rgb(0,0,0)" />
	<polygon points="78.229,180.988 78.7598,181.353 78.8719,180.954 79.0176,180.512 79.1602,180.137 " fill="none" stroke-width="0.5" stroke="rgb(0,0,0)" />
	<polygon points="343.554,162.385 342.684,163.108 338.578,165.831 337.689,166.305 334.468,167.641 334.753,167.926 335.564,168.908 336.13,169.744 336.442,170.317 337.159,169.45 337.859,168.751 339.519,167.379 340.346,166.819 342.246,165.782 343.19,165.38 345.282,164.724 346.319,164.51 347.013,164.439 346.928,164.283 346.527,163.334 346.14,162.089 345.93,161.058 345.827,160.038 " fill="none" stroke-width="0.5" stroke="rgb(0,0,0)" />
	<polygon points="423.71,139.43 421.972,142.255 421.001,143.415 418.26,145.867 417.356,146.517 413.74,148.574 412.991,148.925 408.63,150.565 408.012,150.754 403.293,151.891 405.692,151.744 405.9,151.736 409.097,151.668 409.679,151.688 417.012,152.347 418.029,152.542 424.449,154.439 425.418,154.834 431.104,157.845 431.875,158.345 437.007,162.347 437.534,162.818 440.253,165.601 439.464,164.505 439.083,163.89 435.576,157.247 435.172,156.243 433.327,149.805 433.424,146.605 434.072,145.754 433.757,145.691 431.79,145.174 431.012,144.903 429.333,144.165 428.401,143.636 427.041,142.669 426.06,141.762 425.05,140.556 424.257,139.271 424.002,138.681 " fill="none" stroke-width="0.5" stroke="rgb(0,0,0)" />
	<polygon points="377.155,150.802 378.37,151.422 380.008,152.057 382.188,152.638 385.012,153.069 388.618,153.242 390.564,153.184 392.632,153.022 392.972,152.984 390.733,153.081 389.941,153.055 381.674,152.158 380.563,151.914 377.023,150.721 " fill="none" stroke-width="0.5" stroke="rgb(0,0,0)" />
	<polygon points="351.958,129.442 352.071,129.777 352.547,131.359 352.625,131.649 353.001,133.223 353.06,133.498 353.333,134.992 353.379,135.29 353.547,136.633 353.58,137.017 353.637,138.137 353.62,138.898 352.993,145.499 352.771,146.59 352.098,148.712 352.574,148.453 353.523,148.054 354.772,147.667 355.8,147.458 357.141,147.323 358.193,147.323 359.532,147.458 360.561,147.667 361.809,148.054 362.757,148.453 363.886,149.066 364.723,149.63 365.707,150.442 366.416,151.15 367.116,151.999 367.433,151.354 367.484,151.271 368.356,150.206 368.414,150.152 369.762,149.236 369.824,149.206 371.354,148.752 371.419,148.743 371.924,148.809 365.869,145.26 365.067,144.682 359.73,140.013 359.096,139.351 354.848,134.068 354.352,133.331 351.481,128.172 " fill="none" stroke-width="0.5" stroke="rgb(0,0,0)" />
	<polygon points="130.734,133.225 130,133.556 129.291,133.941 128.683,134.326 128.261,134.637 127.87,134.984 124.94,136.276 122.432,135.756 123.798,137.126 124.562,138.749 124.952,139.915 125.43,142.209 125.471,142.427 125.874,144.87 126.336,146.802 126.735,147.658 126.972,147.713 127.174,147.619 127.614,147.326 128.142,146.845 128.73,146.127 129.343,145.115 129.968,143.686 130.294,142.697 130.622,141.557 130.903,140.425 131.135,139.309 131.316,138.222 131.445,137.175 131.522,136.181 131.547,135.259 131.506,133.932 131.402,132.99 " fill="none" stroke-width="0.5" stroke="rgb(0,0,0)" />
	<polygon points="101.306,136.99 101.306,138.052 101.163,139.457 100.952,140.491 100.699,141.299 101.159,141.393 102.467,141.802 103.413,142.204 104.599,142.85 105.43,143.413 106.465,144.268 107.168,144.971 108.024,146.006 108.026,146.01 108.034,145.94 108.081,145.594 108.385,143.834 108.477,143.41 108.934,141.645 109.121,141.066 109.751,139.44 109.948,139.042 107.547,139.607 105.513,139.019 102.876,137.63 101.194,135.893 " fill="none" stroke-width="0.5" stroke="rgb(0,0,0)" />
	<polygon points="314.758,122.689 313.126,123.129 311.687,123.8 310.442,124.658 309.407,125.65 308.607,126.709 308.064,127.744 307.619,129.15 305.768,131.762 305.45,131.873 305.706,132.074 306.951,132.901 308.117,133.524 309.232,133.975 310.341,134.285 311.497,134.469 312.8,134.535 313.201,134.523 313.747,134.481 314.369,134.412 315.042,134.326 315.731,134.233 315.773,134.227 316.428,134.144 316.567,134.128 317.156,134.07 317.446,134.049 317.953,134.027 318.482,134.03 319.046,134.062 319.715,134.144 320.223,134.239 320.992,134.445 321.438,134.601 322.301,134.994 322.679,135.21 323.583,135.86 323.888,136.133 324.715,137.075 324.94,137.404 325.542,138.572 325.681,138.953 325.968,140.178 326.016,140.611 326.02,141.722 325.941,142.496 325.794,143.303 325.659,143.816 326.693,143.733 329.579,143.019 331.507,142.162 329.289,141.467 327.663,139.615 327.173,138.68 326.681,137.906 326.082,137.119 325.376,136.337 324.56,135.576 323.628,134.85 322.575,134.172 321.184,133.449 320.767,133.234 320.093,132.819 319.73,132.556 319.107,132.027 318.807,131.727 318.272,131.105 318.031,130.775 317.609,130.095 317.425,129.74 317.122,129.034 316.992,128.661 316.803,127.959 316.727,127.573 316.639,126.892 316.615,126.499 316.632,125.624 316.709,124.881 316.892,123.953 317.116,123.184 317.344,122.573 317.135,122.544 316.694,122.52 " fill="none" stroke-width="0.5" stroke="rgb(0,0,0)" />
	<polygon points="58.1717,137.469 57.7002,138.363 60.02,137.913 60.3788,137.857 62.2988,137.621 62.0836,137.582 61.4013,137.411 57.8118,136.251 " fill="none" stroke-width="0.5" stroke="rgb(0,0,0)" />
	<polygon points="75.3908,137.632 74.8679,137.796 75.538,137.865 75.649,137.877 76.5434,137.988 76.7727,138.021 76.8804,138.04 76.8804,136.991 77.0229,135.588 77.1305,135.062 " fill="none" stroke-width="0.5" stroke="rgb(0,0,0)" />
	<polygon points="122.958,111.824 121.37,118.175 121.346,118.266 119.62,124.682 119.517,125.018 117.601,130.615 117.236,131.441 115.94,133.8 116.402,133.676 120.013,134.009 120.543,134.261 119.631,133.276 119.541,129.038 121.384,124.608 121.745,123.897 124.087,120.045 124.575,119.369 127.359,116.098 127.962,115.496 130.458,113.38 130.327,113.315 128.81,112.167 128.124,111.546 126.622,109.923 126.39,109.656 124.897,107.807 124.279,107.05 " fill="none" stroke-width="0.5" stroke="rgb(0,0,0)" />
	<polygon points="93.358,111.318 93.2702,111.402 91.0936,113.422 90.7476,113.717 88.4844,115.48 87.7287,115.97 85.3906,117.217 83.9347,117.736 81.5334,118.209 79.9606,118.278 78.7639,118.15 78.5195,118.092 78.703,119.172 78.7687,119.753 78.9574,123.068 78.9646,123.483 78.9329,124.91 78.9229,125.137 78.8318,126.525 78.8133,126.741 78.669,128.087 78.6431,128.291 78.4519,129.592 78.4199,129.786 78.1879,131.038 78.1507,131.22 77.8841,132.419 77.8425,132.592 77.7233,133.054 78.0423,132.3 78.6882,131.112 79.2496,130.281 80.1042,129.244 80.8072,128.539 81.8419,127.683 82.6739,127.119 83.86,126.471 84.8074,126.069 86.1163,125.659 87.1525,125.447 88.5555,125.304 89.6193,125.304 91.0244,125.447 92.0592,125.659 93.37,126.068 94.3166,126.47 95.5045,127.117 96.3364,127.68 97.3727,128.537 98.0762,129.241 98.1665,129.35 97.2539,125.301 97.1719,124.842 96.3782,118.908 96.3642,118.794 95.7126,112.957 95.2006,109.526 " fill="none" stroke-width="0.5" stroke="rgb(0,0,0)" />
	<polygon points="182.656,102.998 182.837,103.814 183.392,107.785 183.437,108.76 183.395,109.651 183.335,110.231 183.203,111.057 183.034,111.78 182.804,112.523 182.445,113.398 182.108,114.044 181.453,115.017 181.002,115.548 180.001,116.457 179.428,116.856 178.194,117.492 177.489,117.744 176.265,118.022 175.421,118.109 173.519,117.958 170.16,117.057 170.064,117.016 170.135,117.11 172.479,120.979 172.889,121.814 174.576,126.195 174.81,126.984 175.337,129.447 177.445,127.571 177.937,127.184 180.937,125.097 181.579,124.715 184.699,123.149 185.52,122.82 188.741,121.836 189.736,121.634 193.04,121.292 194.163,121.297 198.195,121.747 199.009,121.94 199.008,121.939 197.877,121.091 194.362,117.623 194.042,117.278 189.798,112.266 189.627,112.052 185.117,106.124 184.982,105.939 182.428,102.259 " fill="none" stroke-width="0.5" stroke="rgb(0,0,0)" />
	<polygon points="385.328,93.6071 384.545,94.3278 378.367,98.9491 377.504,99.4739 370.556,102.826 369.654,103.163 362.154,105.205 361.236,105.369 353.405,106.058 352.551,106.064 347.256,105.666 346.516,105.557 346.121,105.469 346.989,106.431 347.33,106.985 347.849,108.103 348.078,108.8 348.262,109.535 348.401,110.331 348.46,110.794 348.532,111.643 348.538,111.76 348.628,111.542 349.042,110.737 349.177,110.523 349.671,109.862 349.83,109.68 350.295,109.212 350.471,109.056 350.82,108.772 351.008,108.632 351.191,108.502 351.385,108.37 352.644,107.742 353.825,107.339 354.984,107.086 356.825,106.898 357.1,106.877 359.499,106.759 362.304,106.572 365.441,106.19 368.914,105.485 372.707,104.326 376.92,102.525 377.354,102.305 377.652,102.165 378.238,101.912 378.544,101.791 379.127,101.582 379.44,101.481 380.017,101.314 380.335,101.233 380.904,101.106 381.226,101.045 381.785,100.956 382.111,100.915 382.657,100.864 382.985,100.843 383.517,100.826 384.476,100.884 386.441,101.184 388.207,101.789 389.624,102.581 390.903,103.582 391.948,104.701 392.493,105.394 393.339,106.676 393.378,106.736 393.992,107.697 394.051,107.764 394.666,107.707 395.858,107.426 397.333,106.943 398.992,106.318 400.71,105.653 400.844,105.603 402.495,105.015 402.871,104.897 404.39,104.481 405.165,104.33 406.512,104.173 408.87,104.436 410.912,105.157 412.713,106.239 414.857,108.205 415.548,108.978 417.677,111.894 418.018,112.425 420.018,115.997 420.232,116.421 421.988,120.353 422.151,120.762 423.548,124.76 423.691,125.243 424.52,128.626 424.886,128.026 425.624,127.039 426.358,126.245 427.367,125.357 428.1,124.841 427.776,124.662 426.782,123.98 425.954,123.275 425.046,122.323 424.392,121.481 423.601,120.214 423.179,119.381 422.675,118.12 422.479,117.532 422.107,116.145 422.04,115.863 421.734,114.407 421.732,114.395 421.453,113.05 421.185,112.016 420.944,111.375 420.809,111.146 420.302,110.633 418.853,107.778 419.332,104.613 421.56,102.314 425.339,101.857 426.303,102.104 427.136,102.264 428.009,102.384 428.91,102.468 429.829,102.522 430.756,102.55 431.683,102.561 432.392,102.563 434.772,102.374 437.093,101.88 439.563,101.12 442.147,100.181 442.378,100.094 431.949,101.532 431.447,101.577 419.893,102.051 419.625,102.055 416.338,102.023 416.235,102.021 412.903,101.922 412.803,101.918 409.433,101.755 409.335,101.749 405.938,101.52 405.84,101.513 402.424,101.218 402.327,101.209 398.901,100.85 398.804,100.838 395.377,100.414 395.278,100.401 391.86,99.911 391.788,99.9002 391.313,99.8254 390.874,99.7369 390.488,99.642 389.826,99.4313 389.522,99.3119 388.606,98.8442 388.375,98.6963 387.336,97.8211 387.171,97.6404 386.343,96.4324 386.234,96.2148 385.817,95.0448 385.758,94.786 385.636,93.9278 385.618,93.6238 385.748,93.1333 " fill="none" stroke-width="0.5" stroke="rgb(0,0,0)" />
	<polygon points="347.908,120.517 347.821,120.973 347.414,122.675 349.49,124.395 350.238,125.567 350.547,126.124 350.739,126.525 348.967,121.357 348.723,120.302 348.364,117.419 " fill="none" stroke-width="0.5" stroke="rgb(0,0,0)" />
	<polygon points="144.817,98.6921 144.267,101.678 143.69,104.904 143.598,105.321 143.007,107.556 144.593,107.195 145.374,107.078 149.504,106.776 150.478,106.795 155.354,107.347 156.564,107.635 155.122,106.424 155.086,106.394 150.641,102.595 146.719,99.4411 144.937,98.2658 " fill="none" stroke-width="0.5" stroke="rgb(0,0,0)" />
	<polygon points="326.272,98.5783 325.405,99.8307 327.619,100.284 328.286,100.468 331.027,101.419 331.599,101.656 333.844,102.746 334.274,102.981 336.071,104.071 336.305,104.222 337.029,104.716 337.27,104.589 337.464,104.493 338.058,104.213 338.573,104.003 339.143,103.804 339.456,103.729 336.963,102.847 336.496,102.656 332.847,100.956 332.545,100.803 329.437,99.1022 329.333,99.0436 326.919,97.6502 " fill="none" stroke-width="0.5" stroke="rgb(0,0,0)" />
	<polygon points="69.8283,91.8344 64.7626,94.5006 59.8886,97.1895 62.791,97.5905 64.2709,98.0236 67.6534,99.5834 68.885,100.376 70.959,102.166 70.9971,101.714 71.0129,101.555 71.2641,99.366 71.2737,99.2878 71.5617,97.0725 71.5627,97.0649 71.8464,94.9069 72.0847,92.9004 72.2435,91.1241 72.2573,90.7528 " fill="none" stroke-width="0.5" stroke="rgb(0,0,0)" />
	<polygon points="395.575,78.799 395.133,79.8217 391.377,86.468 392.292,86.0008 394.175,84.9249 395.759,83.7292 396.916,82.4109 397.663,80.8497 398.017,78.3677 397.98,77.376 397.85,76.085 397.657,74.7896 397.424,73.5195 397.343,73.1204 " fill="none" stroke-width="0.5" stroke="rgb(0,0,0)" />
	<polygon points="111.919,77.986 112.09,78.9261 112.165,79.7674 112.484,78.9682 113.545,76.8463 112.611,76.5116 111.289,75.7247 " fill="none" stroke-width="0.5" stroke="rgb(0,0,0)" />
	<polygon points="172.186,77.0098 173.331,79.7105 173.565,79.2653 173.667,79.106 174.264,78.339 174.391,78.2042 175.218,77.4901 175.368,77.386 176.395,76.8361 173.446,75.8987 171.625,75.4211 " fill="none" stroke-width="0.5" stroke="rgb(0,0,0)" />
	<polygon points="125.572,60.2812 124.808,63.4562 124.073,66.9448 124.001,67.2425 123.154,70.3496 122.744,71.3956 121.965,72.8902 123.313,73.37 125.346,74.687 126.728,76.1316 127.383,76.9729 127.865,77.7419 127.874,76.689 127.877,76.5367 127.924,75.2863 127.942,75.0075 128.042,73.9051 128.106,73.4347 128.278,72.4964 128.479,71.7293 128.741,70.9713 129.318,69.7976 129.688,69.2361 131.052,67.8284 131.548,67.4796 133.013,66.8615 131.584,65.049 131.444,64.862 129.705,62.4421 128.026,60.2183 126.577,58.6341 126.274,58.4127 " fill="none" stroke-width="0.5" stroke="rgb(0,0,0)" />
	<polygon points="106.612,57.6806 105.511,58.2086 103.948,59.2841 102.153,60.7464 100.29,62.3414 100.159,62.4497 98.3776,63.8776 97.8741,64.2347 96.2562,65.2447 94.8421,65.8604 94.4635,65.9624 94.5432,66.0805 94.8223,66.6286 95.1898,67.5615 95.3792,68.2207 95.5322,68.9397 95.6399,69.7063 95.6869,70.231 95.721,71.101 95.7142,71.644 95.587,73.62 95.5384,74.0699 95.203,76.2816 95.1951,76.3265 96.3573,74.8445 96.9757,74.1826 99.0649,72.3016 100.858,71.2429 102.916,70.5294 106.117,70.453 107.778,71.2839 108.61,71.9053 108.165,70.4619 107.95,69.353 107.686,66.1912 107.672,65.9715 107.528,62.489 107.236,59.4478 106.759,57.6851 106.739,57.6576 " fill="none" stroke-width="0.5" stroke="rgb(0,0,0)" />
	<polygon points="146.149,68.6722 145.44,69.4256 145.155,69.6739 144.294,70.284 144.057,70.4177 147.358,73.112 147.542,73.2695 148.253,73.9069 147.687,72.5882 147.601,72.3763 146.182,68.6293 " fill="none" stroke-width="0.5" stroke="rgb(0,0,0)" />
	<polygon points="399.236,59.2977 399.233,60.2763 398.921,63.5037 399.152,63.2911 399.364,63.1309 400.203,62.6132 400.44,62.4962 401.336,62.1519 401.589,62.0801 402.532,61.9045 402.795,61.8801 405.198,62.2203 406.308,62.6556 407.75,63.5084 409.128,64.6562 409.428,64.9263 411.065,66.517 412.865,68.2072 414.755,69.7251 416.716,70.9153 418.73,71.6732 421.117,71.9744 421.525,71.9551 422.285,71.8399 423.003,71.6297 423.563,71.3527 423.946,71.042 424.249,70.6217 424.544,69.8202 424.648,68.8308 424.046,66.8297 422.062,64.7813 418.236,62.5174 413.306,60.4751 408.093,58.7465 403.394,57.303 403.147,57.2205 399.785,56.0021 398.891,55.4838 " fill="none" stroke-width="0.5" stroke="rgb(0,0,0)" />
	<polygon points="84.6185,60.3515 84.2153,60.851 81.7353,63.5659 83.6041,62.8943 84.5377,62.6529 85.6508,62.4721 85.5315,62.2448 85.421,61.9441 85.1291,60.6965 85.09,60.3344 85.147,59.6079 " fill="none" stroke-width="0.5" stroke="rgb(0,0,0)" />
	<polygon points="54.1723,62.4638 54.9843,61.3844 53.5551,61.2868 " fill="none" stroke-width="0.5" stroke="rgb(0,0,0)" />
	<polygon points="161.918,44.9826 161.87,45.4008 161.545,46.7178 161.412,47.0602 160.701,48.3299 160.494,48.6027 159.54,49.5685 159.271,49.7778 159.051,49.9138 160.206,50.2199 160.55,50.3239 163.928,51.4724 164.072,51.5237 167.604,52.8402 167.608,52.8417 171.063,54.1329 173.386,54.9285 170.773,52.0074 166.968,48.1709 163.069,44.2952 162.937,44.1597 161.594,42.7249 " fill="none" stroke-width="0.5" stroke="rgb(0,0,0)" />
	<polygon points="142.709,48.8145 143.126,50.3022 143.841,52.1827 144.746,54.2801 144.855,54.5261 144.868,54.4892 145.292,53.5505 145.688,52.8635 146.428,51.8716 146.955,51.3161 148.003,50.4641 148.564,50.1173 147.43,49.8059 145.844,49.3833 144.393,49.0467 143.159,48.8393 142.708,48.8089 " fill="none" stroke-width="0.5" stroke="rgb(0,0,0)" />
	<polygon points="92.1529,46.7325 90.4045,46.9899 88.5391,47.3011 86.885,47.5805 87.7312,48.8973 88.1981,52.4756 89.0784,51.2866 89.1918,51.139 90.9108,48.9816 92.5425,46.8951 92.6971,46.6737 " fill="none" stroke-width="0.5" stroke="rgb(0,0,0)" />
	<polygon points="445.357,38.0208 445.312,38.1545 444.653,40.0242 444.04,41.8682 443.551,43.6683 443.229,45.4729 443.111,47.3541 443.156,48.0467 443.264,48.5499 443.381,48.8375 443.458,48.9508 443.505,48.9949 443.642,49.0714 444.048,49.1892 444.701,49.2448 445.096,49.1892 445.141,49.1442 445.405,48.6889 445.737,47.7249 446.013,46.3173 446.182,44.5807 446.237,42.6193 446.204,41.0019 446.115,39.4514 445.987,37.9761 445.836,36.5688 445.833,36.5428 " fill="none" stroke-width="0.5" stroke="rgb(0,0,0)" />
</svg>
