<?xml version="1.0" standalone="no" ?>
<!DOCTYPE svg PUBLIC "-//W3C//DTD SVG 1.1//EN" "http://www.w3.org/Graphics/SVG/1.1/DTD/svg11.dtd">
<svg width="500px" height="500px" xmlns="http://www.w3.org/2000/svg" version="1.1" >
	<polygon points="461.223,280.736 460.458,294.375 458.186,308.718 454.316,323.993 448.817,339.859 441.676,355.994 432.889,372.095 422.457,387.87 410.385,403.042 396.678,417.345 381.332,430.527 364.336,442.348 345.662,452.574 325.263,460.971 303.072,467.3 279.008,471.304 252.976,472.706 227.622,471.384 204.06,467.592 182.249,461.582 162.131,453.584 143.655,443.818 126.79,432.494 111.517,419.82 97.8335,406.014 85.7455,391.297 75.2648,375.906 66.4044,360.085 59.1754,344.092 53.5835,328.195 49.6258,312.672 47.2853,297.819 46.4905,283.367 46.4905,39.0258 50.0243,38.9987 61.516,38.9106 61.516,38.9106 73.0076,38.8224 84.4993,38.7342 95.991,38.646 95.991,38.646 107.483,38.5579 118.974,38.4697 130.466,38.3815 141.958,38.2933 153.449,38.2051 164.941,38.117 176.433,38.0288 187.924,37.9406 187.924,37.9406 191.118,37.9161 191.107,43.9238 191.081,56.8226 191.056,69.7214 191.056,69.7214 191.03,82.6202 190.979,108.418 190.979,108.418 190.954,121.317 190.903,147.114 190.903,147.114 190.878,160.013 190.852,172.912 190.852,172.912 190.827,185.811 190.801,198.709 190.776,211.608 190.776,211.608 190.75,224.507 190.751,224.697 190.838,235.991 190.84,236.138 191.004,246.955 191.01,247.222 191.307,257.528 191.323,257.936 191.808,267.697 191.845,268.274 192.573,277.458 192.651,278.24 193.677,286.812 193.829,287.844 195.209,295.772 195.49,297.107 197.28,304.358 197.778,306.048 200.033,312.587 200.884,314.663 203.658,320.457 205.036,322.877 208.385,327.894 210.45,330.483 214.43,334.688 217.211,337.12 221.876,340.48 225.155,342.388 230.561,344.87 233.929,346.057 240.131,347.627 243.211,348.149 250.266,348.774 251.947,329.779 253.259,348.804 260.52,348.303 263.616,347.839 269.963,346.361 273.412,345.211 278.908,342.793 282.317,340.866 287.022,337.544 289.931,335.029 293.909,330.841 296.055,328.14 299.368,323.121 300.775,320.605 303.485,314.792 304.332,312.654 306.5,306.084 306.982,304.365 308.671,297.076 308.932,295.739 310.203,287.766 310.338,286.751 311.254,278.131 311.319,277.379 311.942,268.15 311.971,267.613 312.362,257.81 312.373,257.449 312.595,247.109 312.599,246.896 312.714,236.057 312.715,235.97 312.785,224.667 312.785,224.506 312.759,211.607 312.707,185.81 312.682,172.911 312.682,172.911 312.656,160.012 312.604,134.215 312.604,134.215 312.578,121.316 312.501,82.6196 312.501,82.6195 312.475,69.7208 312.41,37.639 316.404,37.6133 328.157,37.5378 339.91,37.4622 351.664,37.3866 363.417,37.3111 375.17,37.2355 386.923,37.16 410.43,37.0088 422.183,36.9333 433.936,36.8577 445.69,36.7822 457.443,36.7066 461.223,36.6823 " fill="none" stroke-width="0.5" stroke="rgb(0,0,0)" />
</svg>
