<?xml version="1.0" standalone="no" ?>
<!DOCTYPE svg PUBLIC "-//W3C//DTD SVG 1.1//EN" "http://www.w3.org/Graphics/SVG/1.1/DTD/svg11.dtd">
<svg width="500px" height="500px" xmlns="http://www.w3.org/2000/svg" version="1.1" >
	<polygon points="470.223,280.989 469.418,295.334 467.011,310.531 462.946,326.577 457.198,343.159 449.755,359.978 440.606,376.741 429.746,393.164 417.17,408.97 402.873,423.887 386.848,437.654 369.08,450.011 349.549,460.707 328.22,469.487 305.051,476.094 279.992,480.264 252.984,481.718 226.669,480.346 202.144,476.399 179.383,470.127 158.354,461.768 139.031,451.554 121.394,439.711 105.433,426.467 91.1455,412.051 78.5341,396.697 67.6045,380.647 58.3628,364.145 50.8142,347.445 44.9611,330.805 40.801,314.489 38.3239,298.769 37.4905,283.615 37.4905,30.0946 38.4636,30.0872 49.9552,29.999 61.4469,29.9108 72.9386,29.8226 95.9219,29.6463 107.414,29.5581 118.905,29.4699 130.397,29.3818 141.889,29.2936 153.38,29.2054 164.872,29.1172 176.364,29.0291 187.855,28.9409 200.136,28.8467 200.132,31.0427 200.132,31.0427 200.106,43.9415 200.081,56.8403 200.056,69.7391 200.03,82.6379 199.979,108.436 199.954,121.334 199.903,147.132 199.903,147.132 199.878,160.031 199.852,172.929 199.852,172.93 199.827,185.828 199.801,198.727 199.776,211.626 199.776,211.626 199.75,224.525 199.751,224.627 199.838,235.922 199.839,236.001 200.003,246.818 200.006,246.962 200.303,257.269 200.312,257.489 200.797,267.251 200.817,267.563 201.545,276.747 201.587,277.169 202.614,285.742 202.696,286.3 204.076,294.229 204.228,294.951 206.017,302.201 206.287,303.115 208.541,309.654 209.002,310.777 211.775,316.571 212.521,317.88 215.87,322.896 216.987,324.297 220.966,328.502 222.47,329.817 227.136,333.176 228.909,334.209 234.315,336.69 236.136,337.332 242.339,338.902 244.005,339.184 251.059,339.809 251.947,329.779 252.64,339.825 259.9,339.324 261.575,339.073 267.922,337.595 269.787,336.974 275.283,334.556 277.126,333.513 281.832,330.191 283.405,328.831 287.383,324.643 288.544,323.182 291.857,318.163 292.618,316.802 295.327,310.99 295.786,309.833 297.954,303.264 298.214,302.334 299.903,295.045 300.044,294.322 301.315,286.349 301.388,285.8 302.304,277.18 302.339,276.774 302.962,267.544 302.978,267.253 303.369,257.45 303.375,257.255 303.597,246.916 303.599,246.801 303.714,235.961 303.715,235.914 303.785,224.611 303.785,224.524 303.759,211.626 303.733,198.727 303.707,185.828 303.682,172.929 303.682,172.929 303.656,160.03 303.604,134.233 303.604,134.233 303.578,121.334 303.501,82.6376 303.501,82.6376 303.475,69.7388 303.397,31.0424 303.397,31.0424 303.392,28.6968 304.593,28.6891 316.346,28.6135 316.346,28.6135 328.099,28.5379 339.852,28.4624 351.606,28.3868 363.359,28.3113 375.112,28.2357 386.865,28.1601 386.865,28.1601 410.372,28.009 422.125,27.9335 433.878,27.8579 445.632,27.7823 457.385,27.7068 469.138,27.6312 470.223,27.6242 " fill="none" stroke-width="0.5" stroke="rgb(0,0,0)" />
	<polygon points="318.921,422.758 318.975,422.935 319.305,424.387 319.39,424.797 319.443,425.083 319.939,425.471 320.805,426.206 320.96,426.36 321.382,426.008 322.141,425.429 322.842,424.944 323.483,424.555 323.104,421.809 323.104,421.379 " fill="none" stroke-width="0.5" stroke="rgb(0,0,0)" />
	<polygon points="107.374,168.204 110.336,170.837 111.421,171.955 111.727,172.32 111.917,172.112 110.907,171.188 109.432,169.524 108.125,167.695 " fill="none" stroke-width="0.5" stroke="rgb(0,0,0)" />
	<polygon points="423.314,148.525 425.965,149.308 427.922,150.106 428.118,150.21 428.071,149.454 427.18,149.063 425.3,147.995 424.523,147.443 " fill="none" stroke-width="0.5" stroke="rgb(0,0,0)" />
	<polygon points="186.596,116.897 186.686,116.869 186.646,116.822 " fill="none" stroke-width="0.5" stroke="rgb(0,0,0)" />
</svg>
