<?xml version="1.0" standalone="no" ?>
<!DOCTYPE svg PUBLIC "-//W3C//DTD SVG 1.1//EN" "http://www.w3.org/Graphics/SVG/1.1/DTD/svg11.dtd">
<svg width="500px" height="500px" xmlns="http://www.w3.org/2000/svg" version="1.1" >
	<polygon points="461.023,280.731 460.258,294.354 457.99,308.678 454.124,323.936 448.631,339.786 441.496,355.906 432.717,371.992 422.295,387.752 410.235,402.91 396.54,417.2 381.209,430.369 364.231,442.178 345.576,452.393 325.197,460.782 303.028,467.105 278.987,471.105 252.976,472.506 227.643,471.184 204.102,467.396 182.313,461.392 162.215,453.402 143.758,443.646 126.91,432.333 111.652,419.673 97.9822,405.879 85.9058,391.177 75.435,375.801 66.5831,359.995 59.3612,344.018 53.7751,328.137 49.8219,312.632 47.4844,297.798 46.6905,283.362 46.6905,39.2243 50.0258,39.1987 61.5175,39.1105 61.5175,39.1105 73.0092,39.0224 84.5008,38.9342 95.9925,38.846 95.9925,38.846 107.484,38.7578 118.976,38.6697 130.468,38.5815 141.959,38.4933 164.943,38.317 176.434,38.2288 187.926,38.1406 187.926,38.1406 190.918,38.1177 190.907,43.9234 190.881,56.8222 190.856,69.721 190.856,69.721 190.83,82.6198 190.779,108.417 190.779,108.417 190.754,121.316 190.703,147.114 190.703,147.114 190.678,160.013 190.652,172.911 190.652,172.911 190.627,185.81 190.601,198.709 190.576,211.608 190.576,211.608 190.55,224.507 190.551,224.698 190.638,235.993 190.64,236.141 190.804,246.958 190.81,247.227 191.107,257.534 191.123,257.945 191.608,267.707 191.646,268.29 192.374,277.474 192.452,278.263 193.479,286.836 193.632,287.878 195.012,295.807 195.296,297.155 197.085,304.406 197.589,306.113 199.843,312.653 200.703,314.749 203.477,320.544 204.869,322.988 208.218,328.005 210.305,330.621 214.284,334.826 217.094,337.282 221.759,340.642 225.071,342.57 230.477,345.051 233.88,346.251 240.082,347.821 243.194,348.349 250.248,348.973 251.947,329.779 253.273,349.003 260.533,348.502 263.661,348.033 270.008,346.556 273.493,345.395 278.988,342.976 282.432,341.029 287.138,337.707 290.076,335.167 294.054,330.978 296.222,328.25 299.535,323.231 300.957,320.689 303.666,314.877 304.522,312.716 306.69,306.147 307.177,304.41 308.866,297.121 309.129,295.77 310.401,287.797 310.537,286.772 311.453,278.152 311.519,277.393 312.141,268.163 312.17,267.621 312.562,257.818 312.573,257.453 312.795,247.113 312.799,246.898 312.914,236.059 312.915,235.971 312.985,224.668 312.985,224.506 312.959,211.607 312.933,198.708 312.907,185.81 312.882,172.911 312.882,172.911 312.856,160.012 312.804,134.214 312.804,134.214 312.778,121.316 312.701,82.6191 312.701,82.6191 312.675,69.7204 312.611,37.8377 316.405,37.8133 328.158,37.7378 339.912,37.6622 351.665,37.5866 363.418,37.5111 375.171,37.4355 386.925,37.36 410.431,37.2088 422.184,37.1333 433.938,37.0577 445.691,36.9821 457.444,36.9066 461.023,36.8836 " fill="none" stroke-width="0.5" stroke="rgb(0,0,0)" />
</svg>
