<?xml version="1.0" standalone="no" ?>
<!DOCTYPE svg PUBLIC "-//W3C//DTD SVG 1.1//EN" "http://www.w3.org/Graphics/SVG/1.1/DTD/svg11.dtd">
<svg width="500px" height="500px" xmlns="http://www.w3.org/2000/svg" version="1.1" >
	<polygon points="472.773,89.2136 472.04,89.903 466.144,94.1651 466.196,94.165 468.681,94.6755 470.094,95.1039 472.19,95.9559 472.773,96.2665 472.773,281.06 471.957,295.605 469.512,311.045 465.391,327.309 459.573,344.095 452.044,361.107 442.792,378.058 431.811,394.664 419.092,410.649 404.629,425.741 388.411,439.673 370.425,452.183 350.65,463.011 329.057,471.899 314.024,476.187 313.474,475.638 313.434,475.589 313.651,476.121 313.696,476.28 305.612,478.586 280.271,482.803 252.986,484.272 226.4,482.885 201.601,478.895 178.571,472.548 157.285,464.087 137.721,453.746 119.865,441.756 103.709,428.35 89.2505,413.761 76.4909,398.227 65.4341,381.99 56.0843,365.296 48.4452,348.395 42.518,331.544 38.8822,317.284 40.5533,313.872 38.1145,313.822 35.7849,299.038 34.9405,283.685 34.9405,148.892 35.4155,148.319 34.9405,148.181 34.9405,36.079 36.0595,35.3569 36.1661,35.2893 36.2769,35.2203 34.9405,34.8817 34.9405,27.5641 38.444,27.5372 49.9357,27.4491 61.4273,27.3609 72.919,27.2727 84.4107,27.1845 95.9024,27.0964 118.886,26.92 130.377,26.8318 141.869,26.7437 164.852,26.5673 176.344,26.4791 187.836,26.391 202.691,26.277 202.682,31.0478 202.682,31.0478 202.656,43.9466 202.631,56.8454 202.606,69.7441 202.606,69.7442 202.58,82.6429 202.572,86.7725 202.29,86.7439 202.572,86.9622 202.529,108.441 202.529,108.441 202.504,121.339 202.453,147.137 202.428,160.036 202.402,172.935 202.377,185.583 202.177,185.726 201.877,185.899 202.376,186.176 202.351,198.732 202.326,211.631 202.3,224.53 202.301,224.608 202.388,235.902 202.389,235.962 202.553,246.78 202.555,246.889 202.852,257.195 202.859,257.363 203.344,267.124 203.359,267.361 204.087,276.545 204.119,276.866 205.146,285.439 205.208,285.863 206.588,293.791 206.703,294.34 208.493,301.59 208.698,302.284 210.952,308.823 211.302,309.676 214.076,315.47 214.641,316.464 217.99,321.48 218.839,322.544 222.818,326.749 223.961,327.748 228.626,331.107 229.972,331.891 235.379,334.372 236.762,334.86 242.965,336.43 244.23,336.644 251.284,337.269 251.641,333.233 252.094,334.43 252.325,335.254 252.464,337.281 259.725,336.78 260.997,336.59 267.344,335.112 268.76,334.64 274.256,332.222 275.656,331.43 280.362,328.108 281.556,327.075 285.534,322.887 286.416,321.777 289.729,316.758 290.307,315.725 293.016,309.912 293.364,309.034 295.532,302.465 295.73,301.759 297.419,294.469 297.526,293.92 298.797,285.947 298.852,285.53 299.768,276.911 299.795,276.602 300.418,267.372 300.43,267.152 300.821,257.349 300.826,257.201 301.048,246.861 301.049,246.773 301.165,235.934 301.165,235.898 301.235,224.595 301.235,224.529 301.209,211.631 301.183,198.732 301.157,185.833 301.132,172.934 301.132,172.934 301.106,160.035 301.054,134.238 301.054,134.238 301.028,121.339 300.951,82.6427 300.951,82.6427 300.925,69.7439 300.847,31.0475 300.847,31.0475 300.837,26.1632 304.576,26.1391 316.33,26.0636 328.083,25.988 339.836,25.9124 351.589,25.8369 363.343,25.7613 375.096,25.6858 386.849,25.6102 410.356,25.4591 422.109,25.3835 433.862,25.308 445.615,25.2324 457.369,25.1568 469.122,25.0813 472.773,25.0578 " fill="none" stroke-width="0.5" stroke="rgb(0,0,0)" />
	<polygon points="305.599,468.51 305.047,469.096 306.411,469.345 307.08,469.538 308.941,470.339 309.435,470.63 310.482,471.465 309.619,469.828 309.026,468.375 308.273,465.852 308.078,464.859 " fill="none" stroke-width="0.5" stroke="rgb(0,0,0)" />
	<polygon points="192.645,443.613 193.035,444.761 193.522,446.654 194.43,446.854 195.946,447.097 197.409,447.249 198.581,447.295 200.148,447.209 201.598,446.954 202.85,446.544 203.835,446.022 204.582,445.407 205.197,444.61 205.752,443.392 205.782,443.255 202.92,443.469 201.689,443.466 195.471,442.977 194.109,442.751 192.053,442.226 " fill="none" stroke-width="0.5" stroke="rgb(0,0,0)" />
	<polygon points="157.923,439.103 155.917,441.064 156.679,440.55 158.133,438.985 158.386,438.535 " fill="none" stroke-width="0.5" stroke="rgb(0,0,0)" />
	<polygon points="316.686,420.81 315.62,421.037 315.668,421.125 316.162,422.422 316.488,423.501 316.819,424.953 316.883,425.264 317.122,426.543 317.783,427.02 318.289,427.415 319.155,428.151 320.055,429.046 320.789,429.9 320.832,429.965 320.896,429.897 321.186,429.605 321.901,428.921 322.308,428.557 323.016,427.965 323.593,427.526 324.294,427.041 325.121,426.538 325.812,426.174 326.619,425.828 326.305,425.23 325.955,423.989 325.654,421.809 325.654,417.854 " fill="none" stroke-width="0.5" stroke="rgb(0,0,0)" />
	<polygon points="166.658,413.49 166.663,414.664 166.367,419 166.431,418.97 169.852,419.437 169.838,419.01 169.87,418.642 170.18,417.032 170.276,416.713 171.028,414.98 171.185,414.709 172.139,413.457 171.976,413.381 169.34,411.999 168.71,411.632 166.397,410.139 " fill="none" stroke-width="0.5" stroke="rgb(0,0,0)" />
	<polygon points="259.575,403.455 259.299,404.386 258.701,405.856 258.456,406.319 258.742,406.446 261.602,407.873 262.125,408.159 264.907,409.815 265.344,410.095 267.961,411.891 268.361,412.183 270.725,414.029 271.131,414.368 273.154,416.173 273.293,416.308 273.941,416.197 274.276,416.146 275.61,415.974 275.928,415.939 276.041,415.929 268.815,411.652 267.455,410.64 260.354,404.084 259.614,403.252 " fill="none" stroke-width="0.5" stroke="rgb(0,0,0)" />
	<polygon points="350.5,395.779 349.758,397.019 349.239,397.731 352.842,397.53 353.164,397.526 352.42,396.675 351.588,395.538 351.048,394.643 " fill="none" stroke-width="0.5" stroke="rgb(0,0,0)" />
	<polygon points="309.183,394.801 308.677,394.95 309.249,394.874 309.194,394.798 " fill="none" stroke-width="0.5" stroke="rgb(0,0,0)" />
	<polygon points="204.009,391.495 204.507,392.604 204.905,393.709 205.578,392.715 207.433,390.772 208.649,389.865 207.226,389.991 205.631,389.974 203.027,389.687 " fill="none" stroke-width="0.5" stroke="rgb(0,0,0)" />
	<polygon points="243.528,374.647 243.786,374.819 245.107,375.926 245.85,376.697 245.895,376.754 246.286,376.764 246.48,376.784 246.038,375.153 245.789,373.766 245.617,371.839 " fill="none" stroke-width="0.5" stroke="rgb(0,0,0)" />
	<polygon points="82.8049,367.939 81.8371,368.008 80.5049,368.022 81.0308,369.352 81.6059,373.15 83.1529,371.772 84.1972,370.984 85.6526,370.061 85.179,369.658 84.1222,368.57 83.538,367.842 " fill="none" stroke-width="0.5" stroke="rgb(0,0,0)" />
	<polygon points="357.81,370.558 357.791,370.734 358.474,370.5 358.268,370.366 357.787,369.979 " fill="none" stroke-width="0.5" stroke="rgb(0,0,0)" />
	<polygon points="324.997,368.323 325.305,368.303 325.096,368.166 " fill="none" stroke-width="0.5" stroke="rgb(0,0,0)" />
	<polygon points="118.007,358.031 117.596,360.221 117.22,361.492 120.123,361.229 119.542,360.582 118.875,359.611 118.02,357.881 " fill="none" stroke-width="0.5" stroke="rgb(0,0,0)" />
	<polygon points="294.357,359.312 294.238,359.35 294.789,359.758 294.966,359.893 295.46,360.281 295.448,359.753 295.493,358.799 " fill="none" stroke-width="0.5" stroke="rgb(0,0,0)" />
	<polygon points="394.248,342.608 393.54,343.116 392.519,343.769 390.472,344.704 389.637,344.952 388.201,345.069 388.967,347.239 389.275,348.578 392.716,345.695 394.647,344.496 396.456,343.701 396.023,343.178 395.841,342.951 395.069,341.949 " fill="none" stroke-width="0.5" stroke="rgb(0,0,0)" />
	<polygon points="59.3062,341.807 61.4373,345.235 61.7621,343.73 62.2939,342.117 63.1291,340.267 62.4394,340.119 61.3534,339.805 58.9546,338.924 " fill="none" stroke-width="0.5" stroke="rgb(0,0,0)" />
	<polygon points="160.552,335.345 159.531,336.533 157.35,338.617 156.009,339.653 154.362,340.667 156.007,341.665 156.969,342.349 159.319,344.294 159.503,344.469 159.497,344.312 159.555,342.529 159.592,341.979 159.771,340.215 159.861,339.583 160.167,337.906 160.351,337.121 160.79,335.597 161.168,334.559 161.276,334.317 " fill="none" stroke-width="0.5" stroke="rgb(0,0,0)" />
	<polygon points="415.642,333.804 414.238,333.956 414.24,333.968 414.262,334.094 414.486,335.463 414.529,335.765 414.688,337.035 414.738,337.603 414.798,338.732 414.806,339.392 414.797,339.725 414.758,340.312 414.752,340.378 418.185,340.671 418.202,340.674 416.9,338.138 415.888,333.757 " fill="none" stroke-width="0.5" stroke="rgb(0,0,0)" />
	<polygon points="165.689,323.494 165.449,324.855 164.699,327.669 164.229,328.971 163.452,330.652 164.994,329.074 165.869,328.416 168.114,327.377 166.384,324.759 165.695,323.424 " fill="none" stroke-width="0.5" stroke="rgb(0,0,0)" />
	<polygon points="75.7982,312.272 74.91,315.678 74.6231,318.335 74.6491,319.259 74.7633,320.341 74.9647,321.291 75.0136,321.433 75.2128,321.109 76.1519,319.867 77.5696,318.329 78.7298,317.291 80.4309,316.044 81.4721,315.424 80.8453,315.099 79.5324,314.245 78.1033,313.104 76.9533,311.981 76.219,311.104 " fill="none" stroke-width="0.5" stroke="rgb(0,0,0)" />
	<polygon points="350.657,320.988 350.678,320.948 350.59,320.923 " fill="none" stroke-width="0.5" stroke="rgb(0,0,0)" />
	<polygon points="384.68,314.773 384.112,316.332 383.941,317.216 383.748,319.32 383.701,320.115 384.165,318.686 384.696,316.301 384.855,314.397 " fill="none" stroke-width="0.5" stroke="rgb(0,0,0)" />
	<polygon points="343.202,315.089 343.487,315.283 343.356,314.933 " fill="none" stroke-width="0.5" stroke="rgb(0,0,0)" />
	<polygon points="133.272,307.006 133.271,307.124 134.056,307.035 134.237,307.052 134.246,307.054 133.108,305.148 " fill="none" stroke-width="0.5" stroke="rgb(0,0,0)" />
	<polygon points="162.634,298.916 161.058,299.289 159.875,299.445 158.639,299.475 159.072,300.141 159.524,300.929 162.037,305.948 162.117,304.466 162.208,303.612 162.7,300.565 162.879,299.736 163.151,298.737 " fill="none" stroke-width="0.5" stroke="rgb(0,0,0)" />
	<polygon points="458.789,289.972 458.001,290.624 457.16,291.64 459.375,291.997 459.238,291.061 458.966,290.011 458.925,289.909 " fill="none" stroke-width="0.5" stroke="rgb(0,0,0)" />
	<polygon points="86.5818,288.808 87.266,289.168 87.761,289.561 87.8809,288.978 88.1861,285.775 88.1883,285.715 " fill="none" stroke-width="0.5" stroke="rgb(0,0,0)" />
	<polygon points="157.304,228.434 157.117,228.818 157.891,229.671 158.821,233.78 158.761,235.206 158.737,235.566 158.578,237.388 158.562,237.557 158.337,239.629 158.328,239.707 158.071,241.883 158.069,241.901 157.813,244.015 157.599,245.876 157.464,247.244 157.445,247.619 158.297,248.106 160.438,251.675 160.903,253.299 161.055,253.924 161.421,255.735 161.489,256.123 161.781,258.052 161.81,258.268 162.055,260.246 162.064,260.32 162.284,262.246 162.491,263.94 162.704,264.007 162.712,264.017 162.778,261.63 163.919,257.657 165.455,254.746 166.98,252.904 166.426,253.027 162.6,251.925 159.771,249.124 158.63,245.31 158.799,243.306 159.036,242.191 159.238,241.147 159.414,240.11 159.563,239.08 159.683,238.057 159.771,237.04 159.825,236.029 159.841,235.143 159.752,233.318 159.484,231.632 159.002,229.946 158.251,228.208 157.834,227.512 " fill="none" stroke-width="0.5" stroke="rgb(0,0,0)" />
	<polygon points="131.328,251.973 131.723,251.526 131.475,250.5 130.846,248.463 130.833,248.423 " fill="none" stroke-width="0.5" stroke="rgb(0,0,0)" />
	<polygon points="382.259,248.103 381.435,249.096 381.374,249.155 383.727,248.027 383.888,247.981 382.979,247.032 " fill="none" stroke-width="0.5" stroke="rgb(0,0,0)" />
	<polygon points="327.697,236.562 326.068,236.561 325.707,236.524 327.183,238.193 329.236,241.62 329.716,241.381 330.409,241.114 330.214,240.755 329.599,239.303 328.895,237.042 328.775,236.452 " fill="none" stroke-width="0.5" stroke="rgb(0,0,0)" />
	<polygon points="312.729,226.695 310.871,227.282 310.516,227.356 310.976,227.874 312.999,229.078 314.257,229.624 314.049,229.318 313.404,228.131 312.79,226.681 312.786,226.67 " fill="none" stroke-width="0.5" stroke="rgb(0,0,0)" />
	<polygon points="88.2944,214.652 89.1442,215.964 89.5004,216.652 90.0009,217.845 90.2528,218.613 90.5233,219.679 90.6729,220.5 90.7389,221.052 92.8046,220.384 93.5336,220.262 95.9884,220.229 96.6322,220.32 98.793,220.941 99.4046,221.214 99.4868,221.265 99.5517,220.39 99.7299,219.202 100.454,216.016 98.0145,216.284 96.2405,216.283 93.0513,215.927 91.2458,215.511 88.3816,214.491 88.0284,214.318 " fill="none" stroke-width="0.5" stroke="rgb(0,0,0)" />
	<polygon points="437.954,213.679 432.833,214.909 432.104,215.049 428.331,215.595 431.875,218.535 433.128,219.838 433.561,220.404 434.322,219.028 436.845,215.374 437.61,214.428 438.448,213.539 " fill="none" stroke-width="0.5" stroke="rgb(0,0,0)" />
	<polygon points="68.0912,218.416 68.2366,218.642 68.8246,217.641 68.0747,217.445 66.9065,217.022 " fill="none" stroke-width="0.5" stroke="rgb(0,0,0)" />
	<polygon points="191.439,216.357 191.472,216.447 193.047,216.01 192.933,215.793 192.447,215.233 191.669,214.665 190.371,214.067 190.272,214.039 " fill="none" stroke-width="0.5" stroke="rgb(0,0,0)" />
	<polygon points="381.442,203.305 380.58,204.576 380.221,205.01 380.631,205.348 380.922,205.639 382.558,203.518 383.315,203.185 382.065,202.165 " fill="none" stroke-width="0.5" stroke="rgb(0,0,0)" />
	<polygon points="368.3,179.865 368.3,180.01 368.401,180.01 368.272,179.599 " fill="none" stroke-width="0.5" stroke="rgb(0,0,0)" />
	<polygon points="146.785,176.2 145.958,176.419 146.729,177.156 147.066,176.105 " fill="none" stroke-width="0.5" stroke="rgb(0,0,0)" />
	<polygon points="108.251,164.389 107.216,165.245 105.941,166.109 104.755,166.756 103.303,167.372 102.262,167.697 104.817,169.433 105.643,170.077 108.642,172.743 109.465,173.592 111.962,176.574 112.473,175.634 113.603,174.048 114.989,172.53 115.607,172.014 115.52,171.95 112.627,169.306 111.507,168.042 109.285,164.931 108.708,163.932 " fill="none" stroke-width="0.5" stroke="rgb(0,0,0)" />
	<polygon points="422.868,145.502 420.126,147.954 418.74,148.951 417.57,149.617 418.823,149.856 425.242,151.753 426.729,152.359 431.937,155.118 430.635,150.577 430.55,147.698 429.885,147.466 428.206,146.728 426.778,145.918 425.418,144.95 424.24,143.861 " fill="none" stroke-width="0.5" stroke="rgb(0,0,0)" />
	<polygon points="355.888,144.635 356.861,144.537 358.473,144.537 359.813,144.672 361.103,144.934 357.887,142.12 356.913,141.106 356.296,140.338 " fill="none" stroke-width="0.5" stroke="rgb(0,0,0)" />
	<polygon points="127.346,138.305 127.693,139.344 127.964,140.643 128.173,139.802 128.383,138.794 128.545,137.821 128.562,137.679 " fill="none" stroke-width="0.5" stroke="rgb(0,0,0)" />
	<polygon points="313.082,126.239 312.216,126.835 311.506,127.516 310.98,128.213 310.659,128.825 310.288,129.996 309.599,131.103 310.137,131.321 310.94,131.545 311.789,131.681 312.828,131.733 313.05,131.726 313.486,131.693 314.037,131.632 314.676,131.55 315.184,131.481 315.124,131.385 314.94,131.03 314.475,129.949 314.346,129.575 314.056,128.499 313.98,128.113 313.845,127.069 313.82,126.676 313.836,125.887 " fill="none" stroke-width="0.5" stroke="rgb(0,0,0)" />
	<polygon points="185.709,112.607 185.479,113.351 184.928,114.692 184.591,115.337 183.587,116.83 183.136,117.361 181.601,118.755 181.027,119.154 179.135,120.129 178.431,120.381 176.554,120.807 175.71,120.894 175.529,120.88 176.917,124.483 179.338,122.798 180.323,122.213 183.443,120.647 184.701,120.143 187.923,119.158 189.448,118.849 191.522,118.634 187.661,114.075 187.398,113.747 185.902,111.78 " fill="none" stroke-width="0.5" stroke="rgb(0,0,0)" />
	<polygon points="92.9987,115.474 92.4683,115.926 90.2051,117.689 89.0463,118.441 86.7082,119.688 84.4758,120.483 82.0745,120.956 81.6428,120.975 81.7529,122.909 81.7639,123.545 81.7441,124.437 82.5182,124.014 83.9709,123.397 85.2798,122.987 86.8686,122.661 88.2717,122.518 89.9028,122.518 91.3079,122.661 92.8946,122.986 94.1512,123.379 93.6029,119.279 93.5815,119.105 93.1596,115.325 " fill="none" stroke-width="0.5" stroke="rgb(0,0,0)" />
	<polygon points="125.23,114.28 126.066,113.445 125.572,112.911 " fill="none" stroke-width="0.5" stroke="rgb(0,0,0)" />
	<polygon points="416.194,105.632 416.181,105.186 416.365,104.823 416.31,104.822 416.153,104.819 415.28,104.794 " fill="none" stroke-width="0.5" stroke="rgb(0,0,0)" />
	<polygon points="394.831,103.853 395.353,104.645 396.404,104.301 397.993,103.702 398.272,103.594 395.033,103.193 394.881,103.172 394.221,103.078 " fill="none" stroke-width="0.5" stroke="rgb(0,0,0)" />
	<polygon points="146.664,104.176 148.017,104.077 146.85,103.139 " fill="none" stroke-width="0.5" stroke="rgb(0,0,0)" />
	<polygon points="67.2921,96.3334 68.747,97.0043 68.785,96.7115 68.7866,96.7 68.9494,95.4611 " fill="none" stroke-width="0.5" stroke="rgb(0,0,0)" />
	<polygon points="126.812,67.5224 126.702,67.9788 126.187,69.8686 126.979,68.2584 127.349,67.6969 128.89,66.1066 127.514,64.1918 " fill="none" stroke-width="0.5" stroke="rgb(0,0,0)" />
	<polygon points="103.948,62.8958 102.111,64.4684 101.91,64.6344 100.129,66.0624 99.3568,66.6099 98.0619,67.4182 98.0704,67.4477 98.305,68.5502 98.4127,69.3167 98.4282,69.4905 99.941,68.5973 101.999,67.8839 104.997,67.632 104.896,66.4245 104.875,66.0875 104.733,62.6807 104.695,62.2866 " fill="none" stroke-width="0.5" stroke="rgb(0,0,0)" />
	<polygon points="411.38,62.9186 412.999,64.4923 414.703,66.0917 416.366,67.427 417.946,68.3866 419.407,68.9365 421.227,69.1661 421.249,69.1651 421.679,69.0998 421.795,69.0659 421.561,68.2887 420.312,66.9995 416.981,65.0282 412.328,63.1009 411.148,62.7094 " fill="none" stroke-width="0.5" stroke="rgb(0,0,0)" />
	<polygon points="397.894,38.9322 398.553,40.5164 398.757,41.2035 399.41,40.8756 400.393,40.461 403.365,39.4345 403.892,39.2725 406.085,38.6795 402.098,37.1684 398.176,36.0528 396.02,35.5131 " fill="none" stroke-width="0.5" stroke="rgb(0,0,0)" />
</svg>
