<?xml version="1.0" standalone="no" ?>
<!DOCTYPE svg PUBLIC "-//W3C//DTD SVG 1.1//EN" "http://www.w3.org/Graphics/SVG/1.1/DTD/svg11.dtd">
<svg width="500px" height="500px" xmlns="http://www.w3.org/2000/svg" version="1.1" >
	<polygon points="466.723,280.89 465.933,294.961 463.579,309.826 459.59,325.572 453.939,341.876 446.613,358.429 437.605,374.934 426.911,391.105 414.531,406.664 400.464,421.343 384.703,434.882 367.235,447.031 348.037,457.544 327.07,466.175 304.281,472.674 279.61,476.779 252.981,478.214 227.04,476.861 202.889,472.974 180.498,466.804 159.823,458.586 140.829,448.546 123.492,436.904 107.799,423.882 93.7464,409.703 81.3386,394.597 70.5835,378.803 61.4901,362.566 54.0657,346.141 48.3142,329.79 44.2329,313.782 41.8089,298.399 40.9905,283.518 40.9905,33.5679 49.9821,33.4989 61.4738,33.4107 72.9654,33.3225 84.4571,33.2344 95.9488,33.1462 107.44,33.058 118.932,32.9698 130.424,32.8817 141.915,32.7935 153.407,32.7053 164.899,32.6171 176.391,32.529 187.882,32.4408 196.629,32.3737 196.606,43.9346 196.581,56.8334 196.556,69.7322 196.556,69.7322 196.53,82.631 196.479,108.429 196.479,108.429 196.454,121.327 196.403,147.125 196.403,147.125 196.378,160.024 196.352,172.923 196.352,172.923 196.327,185.821 196.301,198.72 196.276,211.619 196.25,224.518 196.251,224.654 196.338,235.949 196.339,236.054 196.504,246.871 196.508,247.063 196.805,257.369 196.816,257.663 197.301,267.424 197.328,267.839 198.056,277.023 198.112,277.586 199.138,286.158 199.247,286.901 200.628,294.829 200.83,295.789 202.619,303.04 202.978,304.256 205.232,310.795 205.845,312.288 208.619,318.083 209.61,319.823 212.959,324.84 214.445,326.703 218.424,330.907 220.425,332.657 225.09,336.017 227.449,337.39 232.855,339.871 235.278,340.725 241.481,342.295 243.696,342.671 250.751,343.295 251.947,329.779 252.881,343.317 260.141,342.816 262.368,342.482 268.715,341.004 271.197,340.177 276.692,337.759 279.145,336.372 283.851,333.051 285.943,331.242 289.921,327.053 291.465,325.11 294.778,320.091 295.79,318.281 298.5,312.469 299.109,310.93 301.277,304.361 301.624,303.124 303.313,295.835 303.5,294.873 304.772,286.9 304.869,286.17 305.785,277.55 305.832,277.009 306.454,267.78 306.475,267.393 306.866,257.59 306.874,257.331 307.097,246.991 307.099,246.838 307.214,235.998 307.215,235.936 307.285,224.633 307.285,224.517 307.233,198.72 307.182,172.922 307.182,172.922 307.156,160.023 307.104,134.226 307.104,134.226 307.078,121.327 307.001,82.6306 307.001,82.6305 306.975,69.7318 306.899,32.1743 316.368,32.1134 328.122,32.0379 339.875,31.9623 351.628,31.8868 363.381,31.8112 375.135,31.7356 386.888,31.6601 410.394,31.5089 422.148,31.4334 433.901,31.3578 445.654,31.2823 457.407,31.2067 466.723,31.1468 " fill="none" stroke-width="0.5" stroke="rgb(0,0,0)" />
</svg>
