<?xml version="1.0" standalone="no" ?>
<!DOCTYPE svg PUBLIC "-//W3C//DTD SVG 1.1//EN" "http://www.w3.org/Graphics/SVG/1.1/DTD/svg11.dtd">
<svg width="500px" height="500px" xmlns="http://www.w3.org/2000/svg" version="1.1" >
	<polygon points="480.823,29.9324 480.48,30.4932 480.171,31.1569 479.982,31.7183 479.916,32.0246 480.037,33.6166 480.422,35.4869 480.823,36.9018 480.823,76.6801 479.502,79.8074 478.397,81.6353 473.081,88.1072 471.689,89.4167 464.655,94.5011 464.331,94.6875 466.075,94.7528 468.561,95.2632 469.868,95.6597 471.964,96.5117 473.316,97.2313 475.039,98.3904 476.265,99.423 477.634,100.854 478.585,102.083 479.618,103.752 480.242,105.014 480.823,106.535 480.823,120.885 480.609,121.615 479.608,123.872 479.642,123.891 480.823,124.862 480.823,189.056 478.381,191.882 476.802,192.956 473.191,194.224 472.046,194.13 473.327,195.194 474.1,195.937 478.102,200.379 478.926,201.484 480.823,204.592 480.823,243.991 478.476,247.986 478.107,248.554 474.447,253.659 474.777,253.642 476.245,253.795 477.972,254.187 479.231,254.635 480.823,255.45 480.823,281.286 480.202,292.35 479.156,293.975 478.686,294.626 476.108,297.815 475.506,298.474 472.548,301.349 471.912,301.705 472.375,302.31 473.058,303.384 474.974,307.051 475.412,308.067 476.856,312.247 477.121,313.226 477.184,313.54 473.11,329.62 467.07,347.047 459.27,364.67 456.16,370.368 454.457,371.342 450.63,371.341 448.548,370.15 448.768,371.265 449.473,378.828 449.411,380.7 448.998,383.267 438.331,399.399 425.161,415.952 410.17,431.593 402.211,438.43 401.575,438.323 399.629,437.712 398.136,437.007 396.837,436.222 395.685,435.355 395.834,437.322 395.743,439.172 394.749,444.841 393.345,446.047 374.668,459.037 354.126,470.285 331.702,479.516 324.74,481.502 322.535,480.875 321.15,480.327 318.487,478.95 317.211,478.115 315.012,476.329 313.939,475.258 312.213,473.145 311.393,471.907 310.149,469.548 309.601,468.203 308.848,465.68 308.572,464.27 308.452,463.038 307.869,464.1 305.102,468.173 303.777,469.582 303.907,469.585 304.778,469.654 306.245,469.921 306.914,470.114 308.636,470.856 309.13,471.147 310.762,472.448 311.107,472.813 312.256,474.406 312.478,474.821 313.074,476.287 313.2,476.726 313.429,477.835 313.485,478.274 313.542,478.989 313.555,479.404 313.301,481.579 312.903,483.052 311.828,485.184 307.382,486.452 281.151,490.817 267.771,491.538 266.923,490.954 265.097,489.463 264.204,488.6 263.858,488.205 262.492,488.901 262.073,489.098 257.908,490.904 257.473,491.076 254.164,492.27 252.993,492.333 225.548,490.902 199.887,486.773 182.605,482.01 179.381,479.72 175.407,476.929 172.335,475.201 170.396,474.642 167.373,474.343 163.232,474.113 162.779,474.074 159.715,473.716 153.907,471.407 134.405,461.099 130.029,456.856 128.057,453.575 128.002,451.033 127.499,451.078 126.029,451.064 117.989,450.192 115.039,448.212 98.2672,434.295 83.2685,419.161 71.3038,404.595 70.864,401.075 70.8302,399.558 71.0429,396.894 68.2153,396.718 65.231,394.843 63.5082,393.071 63,392.718 58.5824,386.23 48.8916,368.927 40.9666,351.394 34.8057,333.879 34.6041,333.088 34.7632,331.585 35.0569,330.16 38.0252,320.6 38.4494,319.532 41.4941,313.315 37.7585,313.239 35.7895,312.619 32.758,310.781 30.9395,308.963 29.6864,307.298 28.6381,305.4 27.7694,299.888 26.8905,283.906 26.8905,239.696 27.5432,237.462 27.863,236.579 29.5246,232.761 30.3892,231.273 31.9084,229.241 30.5336,228.69 28.7129,227.641 26.8905,226.214 26.8905,168.096 26.9102,167.984 26.9989,167.554 27.975,163.436 28.2116,162.639 29.7837,158.257 30.2612,157.195 32.6878,152.762 33.4879,151.584 36.4603,147.999 34.2118,147.343 32.8682,146.804 30.5819,145.617 29.3501,144.815 27.3644,143.221 26.8905,142.755 26.8905,112.279 27.9388,111.233 28.8089,110.488 30.7283,109.086 31.6765,108.498 31.8054,108.43 31.4604,108.301 30.1578,107.661 29.6729,107.362 28.3567,106.326 27.9616,105.936 26.8905,104.585 26.8905,92.5753 27.7231,90.8502 30.1397,87.1974 29.6869,87.1266 27.3302,86.3387 26.8905,86.1041 26.8905,61.134 26.9486,61.0731 26.8905,61.0408 26.8905,42.5001 27.6719,41.8375 31.5626,38.9883 31.9248,38.7391 36.3849,35.861 36.4835,35.7985 37.7894,34.9845 34.7329,34.2102 34.3238,34.094 30.5732,32.9124 29.4501,32.4551 26.8905,31.1608 26.8905,19.5757 38.3822,19.4875 49.8739,19.3993 61.3656,19.3111 72.8572,19.223 79.8767,19.1691 80.2973,19.5984 80.3653,19.3349 80.4522,19.1647 84.3489,19.1348 95.8406,19.0466 107.332,18.9584 115.233,18.8978 116.084,19.8452 116.262,20.0502 117.465,21.4923 118.051,22.0396 118.176,22.1041 118.805,22.1946 119.39,22.1108 119.59,22.0109 120.269,21.4144 121.558,19.9928 121.75,19.7889 122.676,18.8407 130.316,18.7821 141.807,18.6939 153.299,18.6057 156.109,18.5842 157.169,22.1651 157.071,22.6551 159.634,20.8067 160.946,20.05 164.359,18.5209 164.791,18.5175 176.282,18.4294 187.774,18.3412 210.757,18.1648 210.738,28.2263 209.605,29.4687 209.479,29.5536 210.734,29.9373 210.732,31.0636 210.706,43.9624 210.681,56.7474 209.189,57.3152 208.172,57.4963 207.336,57.5121 210.143,60.7311 210.672,61.4262 210.656,69.76 210.63,82.6588 210.626,84.5485 209.754,85.0154 208.884,85.3792 207.666,85.7693 206.663,85.998 205.53,86.1661 204.401,86.2455 203.124,86.2256 200.27,85.9351 203.873,88.7317 204.07,88.8905 208.365,92.4658 208.617,92.6852 210.607,94.4982 210.579,108.456 210.554,121.355 210.549,123.719 210.41,123.84 209.245,124.604 208.897,124.75 209.533,125.317 210.544,126.458 210.503,147.153 210.478,160.052 210.452,172.95 210.449,174.679 210.018,175.655 208.63,178.204 207.92,179.274 206.139,181.516 205.2,182.499 203.058,184.365 201.878,185.206 200.562,185.963 201.513,186.38 202.732,187.057 205.13,188.701 206.281,189.674 208.254,191.72 209.238,192.991 210.409,194.895 210.401,198.748 210.376,211.647 210.367,215.918 209.897,216.88 209.716,217.228 208.954,218.6 208.774,218.906 207.948,220.237 205.77,222.292 206.105,222.572 208.842,225.103 209.381,225.657 210.368,226.781 210.438,235.84 210.602,246.657 210.899,256.963 211.151,262.029 210.323,263.106 210.157,263.315 207.957,265.976 206.39,268.061 205.761,269.237 205.718,269.457 205.758,269.659 206.124,270.254 207.441,271.586 209.651,273.447 209.78,273.558 212.087,275.593 212.112,275.909 213.138,284.482 214.519,292.41 216.308,299.661 218.563,306.2 221.336,311.994 224.685,317.011 228.665,321.215 233.33,324.575 238.737,327.056 244.939,328.626 248.761,328.964 248.775,328.984 249.541,330.236 251.051,333.361 251.516,334.591 252.311,337.431 254.903,332.571 255.68,331.396 257.737,328.848 259.171,328.749 265.518,327.271 271.013,324.853 275.719,321.532 279.698,317.343 283.01,312.324 285.72,306.511 287.888,299.942 288.994,295.166 289.203,294.497 289.369,293.549 289.576,292.653 290.848,284.68 291.763,276.06 292.179,269.904 292.539,269.454 293.403,268.593 294.791,267.505 295.803,266.89 297.384,266.166 297.838,266.02 294.231,262.924 292.775,261.234 292.62,260.986 292.778,257.028 293,246.688 293.115,235.848 293.173,226.489 293.31,226.208 294.944,223.047 295.066,222.912 294.695,222.605 293.709,221.618 293.178,220.977 293.159,211.647 293.133,198.792 293.706,198.1 294.69,197.114 296.169,195.887 297.335,195.093 298.416,194.498 297.894,193.867 297.097,192.688 296.449,191.501 295.88,190.159 295.47,188.849 295.169,187.38 295.026,185.977 295.026,184.466 295.169,183.064 295.471,181.594 295.881,180.286 296.451,178.944 297.098,177.758 297.896,176.579 298.752,175.544 299.146,175.15 298.03,174.675 295.878,173.279 294.465,171.968 293.387,170.716 293.076,170.263 293.056,160.052 293.004,134.254 292.995,129.52 293.018,129.482 294.842,127.814 294.759,127.523 294.677,127.212 294.498,126.467 294.425,126.131 294.279,125.37 294.218,125.008 294.108,124.235 294.063,123.842 293.994,123.06 293.969,122.633 293.945,121.847 293.969,120.99 294.219,118.047 294.429,116.815 295.198,113.839 295.634,112.608 296.948,109.73 297.657,108.503 299.543,105.855 300.565,104.696 300.825,104.457 300.807,104.466 299.277,104.954 296.957,105.306 296.721,105.305 296.307,105.29 296.116,105.278 295.005,105.124 294.854,105.091 292.944,104.369 292.907,85.732 293.979,83.7759 294.912,82.0675 293.585,81.8386 292.899,81.6419 292.875,69.76 292.86,62.4393 294.265,61.4757 294.057,61.3821 293.595,61.1541 292.857,60.7575 292.82,42.2659 293.228,42.0349 293.443,41.9175 294.877,41.1674 294.552,40.6668 292.811,38.1157 292.797,31.0636 292.771,18.1648 303.308,18.0971 305.415,19.1823 305.566,19.2627 308.594,20.9116 308.657,20.3781 308.77,19.6999 308.942,18.893 309.157,18.1017 309.171,18.0594 316.278,18.0137 328.031,17.9382 339.784,17.8626 351.538,17.787 363.291,17.7115 375.044,17.6359 376.256,17.6281 378.904,18.8429 380.205,19.6085 386.415,24.1668 386.525,24.2673 386.575,23.3808 388.007,20.8403 388.633,20.1122 391.103,18.2318 392.606,17.523 410.304,17.4092 422.057,17.3337 433.81,17.2581 440.621,17.2143 441.283,17.5714 442.769,18.6278 444.795,20.4795 445.599,21.4942 445.962,20.7882 446.811,19.4892 448.253,17.7179 448.813,17.1617 457.317,17.107 469.07,17.0314 480.823,16.9559 " fill="none" stroke-width="0.5" stroke="rgb(0,0,0)" />
	<polygon points="192.093,443.849 192.454,444.911 193.033,447.16 194.318,447.443 195.868,447.692 197.366,447.848 198.586,447.896 200.217,447.806 201.744,447.537 203.085,447.098 204.17,446.524 205.016,445.827 205.714,444.922 206.325,443.582 206.539,442.597 202.875,442.87 201.736,442.868 195.518,442.379 194.257,442.17 191.025,441.344 " fill="none" stroke-width="0.5" stroke="rgb(0,0,0)" />
	<polygon points="158.56,437.38 157.504,438.674 153.309,442.774 152.36,443.501 154.933,442.451 157.072,441.009 158.621,439.342 159.743,437.348 160.482,434.856 160.53,434.32 " fill="none" stroke-width="0.5" stroke="rgb(0,0,0)" />
	<polygon points="326.003,417.108 316.498,420.24 314.923,420.576 314.703,420.598 315.107,421.338 315.601,422.636 315.903,423.634 316.234,425.086 316.293,425.374 316.543,426.711 316.586,426.897 317.433,427.507 317.901,427.872 318.767,428.608 319.6,429.437 320.333,430.291 320.754,430.923 321.332,430.309 321.601,430.038 322.316,429.354 322.692,429.017 323.401,428.426 323.935,428.019 324.635,427.534 325.401,427.069 326.092,426.705 327.184,426.236 327.45,426.146 326.882,425.068 326.533,423.826 326.254,421.809 326.254,416.993 " fill="none" stroke-width="0.5" stroke="rgb(0,0,0)" />
	<polygon points="387.429,419.934 388.524,420.753 388.528,420.69 388.619,420.028 387.511,419.806 386.921,419.629 " fill="none" stroke-width="0.5" stroke="rgb(0,0,0)" />
	<polygon points="166.06,413.537 166.065,414.623 165.745,419.307 165.643,420.029 166.978,419.493 170.47,420.076 170.435,419.063 170.468,418.695 170.754,417.204 170.85,416.885 171.546,415.281 171.704,415.011 172.82,413.546 173.037,413.325 173.134,413.246 172.865,413.135 172.255,412.849 169.618,411.468 169.036,411.128 166.609,409.561 166.024,409.142 165.698,408.884 " fill="none" stroke-width="0.5" stroke="rgb(0,0,0)" />
	<polygon points="378.893,417.415 379.651,417.21 380.8,417.345 379.56,416.758 378.893,416.387 " fill="none" stroke-width="0.5" stroke="rgb(0,0,0)" />
	<polygon points="259.274,401.869 259,403.285 258.724,404.216 258.17,405.576 257.73,406.409 257.598,406.608 257.848,406.706 258.474,406.983 261.334,408.41 261.818,408.674 264.6,410.331 265.004,410.59 267.622,412.386 267.991,412.656 270.355,414.502 270.732,414.816 272.754,416.621 273.095,416.951 274.043,416.788 274.353,416.741 275.687,416.569 275.981,416.536 277.364,416.413 277.641,416.394 278.044,416.373 277.727,416.229 269.121,411.136 267.862,410.199 260.761,403.643 259.781,402.541 259.276,401.843 " fill="none" stroke-width="0.5" stroke="rgb(0,0,0)" />
	<polygon points="349.96,395.518 349.272,396.665 347.992,398.424 348.368,398.381 352.876,398.129 353.56,398.122 354.712,398.163 353.85,397.399 352.871,396.28 352.102,395.228 351.246,393.81 351.007,393.348 " fill="none" stroke-width="0.5" stroke="rgb(0,0,0)" />
	<polygon points="308.992,394.232 308.435,394.396 305.223,395.205 304.539,395.344 302.432,395.669 304.356,395.836 307.55,395.704 310.286,395.343 309.747,394.593 309.576,394.036 " fill="none" stroke-width="0.5" stroke="rgb(0,0,0)" />
	<polygon points="203.482,391.781 203.942,392.808 204.741,395.023 206.075,393.051 207.792,391.253 210.705,389.08 207.173,389.394 205.697,389.378 201.953,388.965 " fill="none" stroke-width="0.5" stroke="rgb(0,0,0)" />
	<polygon points="242.762,374.671 242.656,374.785 243.452,375.318 244.675,376.342 245.418,377.113 245.602,377.344 246.226,377.361 247.287,377.468 246.617,374.996 246.387,373.712 246.074,370.219 " fill="none" stroke-width="0.5" stroke="rgb(0,0,0)" />
	<polygon points="83.5679,367.233 82.7264,367.344 81.8307,367.408 79.6425,367.431 80.4375,369.442 81.1784,374.334 83.552,372.22 84.5185,371.491 86.6612,370.132 85.5681,369.201 84.59,368.194 83.7908,367.199 " fill="none" stroke-width="0.5" stroke="rgb(0,0,0)" />
	<polygon points="357.213,370.497 357.098,371.612 357.191,371.574 358.76,371.037 359.342,370.863 359.907,370.72 359.9,370.717 358.644,369.899 357.053,368.617 356.597,368.167 " fill="none" stroke-width="0.5" stroke="rgb(0,0,0)" />
	<polygon points="324.748,367.599 323.982,368.813 323.837,369 326.967,368.796 327.284,368.762 326.424,368.321 325.117,367.467 324.902,367.292 " fill="none" stroke-width="0.5" stroke="rgb(0,0,0)" />
	<polygon points="117.532,355.336 117.545,356.454 117.418,357.92 117.006,360.11 116.578,361.558 116.325,362.176 116.329,362.175 120.58,361.79 121.469,361.799 121.32,361.671 120.036,360.242 119.369,359.271 118.424,357.359 118.093,356.342 117.86,355.182 " fill="none" stroke-width="0.5" stroke="rgb(0,0,0)" />
	<polygon points="295.775,358.018 294.176,358.74 292.937,359.131 294.432,360.24 294.595,360.365 296.142,361.58 296.071,360.83 296.047,359.781 296.1,358.675 296.151,358.089 296.191,357.768 " fill="none" stroke-width="0.5" stroke="rgb(0,0,0)" />
	<polygon points="395.021,341.217 393.873,342.14 393.217,342.611 392.196,343.264 390.301,344.129 389.466,344.376 387.381,344.548 388.401,347.438 388.778,349.077 388.851,349.716 393.101,346.155 394.889,345.045 397.426,343.93 396.485,342.795 396.316,342.584 395.168,341.094 " fill="none" stroke-width="0.5" stroke="rgb(0,0,0)" />
	<polygon points="58.7267,342.012 61.7774,346.918 61.8572,346.132 62.3486,343.857 62.8407,342.364 63.7692,340.308 64.0335,339.848 62.5653,339.533 61.5602,339.242 59.0915,338.335 58.2279,337.923 " fill="none" stroke-width="0.5" stroke="rgb(0,0,0)" />
	<polygon points="165.091,323.441 164.869,324.7 164.119,327.515 163.684,328.719 162.446,331.4 161.776,332.563 160.061,335 159.116,336.099 156.935,338.184 155.694,339.142 153.208,340.673 153.236,340.687 155.696,342.178 156.587,342.811 158.936,344.757 159.656,345.439 160.211,346.04 160.141,345.418 160.097,344.332 160.155,342.548 160.189,342.04 160.368,340.276 160.451,339.691 160.757,338.013 160.927,337.287 161.366,335.763 161.717,334.802 162.295,333.5 163.041,332.194 163.765,331.181 165.354,329.554 166.229,328.896 168.992,327.618 166.885,324.428 166.154,323.014 165.32,320.861 " fill="none" stroke-width="0.5" stroke="rgb(0,0,0)" />
	<polygon points="415.577,333.207 413.791,333.401 413.533,333.424 413.65,334.074 413.67,334.19 413.894,335.559 413.934,335.839 414.092,337.109 414.139,337.635 414.199,338.764 414.207,339.375 414.197,339.708 414.161,340.251 414.127,340.586 414.075,340.923 418.134,341.269 419.353,341.479 419.152,341.25 417.484,338.003 416.343,333.061 " fill="none" stroke-width="0.5" stroke="rgb(0,0,0)" />
	<polygon points="127.996,337.655 127.981,339.35 127.988,339.347 128.928,338.967 129.403,338.811 127.985,337.546 " fill="none" stroke-width="0.5" stroke="rgb(0,0,0)" />
	<polygon points="384.971,312.721 384.125,314.544 383.532,316.171 383.346,317.131 383.149,319.275 382.976,322.216 382.866,324.078 383.888,321.48 384.745,318.844 385.291,316.391 385.495,313.932 385.473,312.699 385.425,311.929 " fill="none" stroke-width="0.5" stroke="rgb(0,0,0)" />
	<polygon points="75.2245,312.094 74.3182,315.569 74.0222,318.311 74.05,319.299 74.1699,320.435 74.3854,321.451 74.7282,322.447 74.8924,322.777 75.7241,321.423 76.5931,320.274 78.0108,318.735 79.0846,317.775 80.7856,316.528 82.0082,315.8 82.7979,315.427 82.7158,315.394 81.1218,314.566 79.9067,313.776 78.4777,312.635 77.4134,311.596 76.2048,310.152 76.0215,309.881 " fill="none" stroke-width="0.5" stroke="rgb(0,0,0)" />
	<polygon points="350.84,322 350.922,321.812 351.179,321.285 351.559,320.575 350.251,320.203 349.201,319.817 348.035,319.286 " fill="none" stroke-width="0.5" stroke="rgb(0,0,0)" />
	<polygon points="342.948,314.492 342.27,315.18 346.521,318.078 344.867,316.699 344.371,315.987 343.542,313.705 " fill="none" stroke-width="0.5" stroke="rgb(0,0,0)" />
	<polygon points="163.709,297.909 162.438,298.349 160.979,298.694 159.796,298.85 158.201,298.889 157.844,298.859 157.482,298.798 158.57,300.469 158.987,301.197 162.573,308.358 162.547,307.656 162.716,304.498 162.8,303.707 163.293,300.661 163.458,299.894 164.037,297.767 " fill="none" stroke-width="0.5" stroke="rgb(0,0,0)" />
	<polygon points="132.674,307.059 132.671,307.783 133.999,307.632 134.179,307.65 135.346,307.919 134.864,306.92 132.281,302.591 " fill="none" stroke-width="0.5" stroke="rgb(0,0,0)" />
	<polygon points="311.167,306.031 311.807,306.144 312.352,306.267 312.1,305.404 " fill="none" stroke-width="0.5" stroke="rgb(0,0,0)" />
	<polygon points="434.329,295.057 434.23,295.191 433.71,295.886 435.115,296.644 435.193,296.688 434.59,294.692 " fill="none" stroke-width="0.5" stroke="rgb(0,0,0)" />
	<polygon points="459.128,289.154 458.466,289.46 457.575,290.198 456.398,291.62 456.07,292.128 456.488,292.14 459.677,292.654 460.038,292.769 460.01,292.19 459.827,290.942 459.537,289.822 459.258,289.136 " fill="none" stroke-width="0.5" stroke="rgb(0,0,0)" />
	<polygon points="88.4314,283.943 88.368,284.068 86.0134,288.601 85.7794,289.052 86.8926,289.637 87.4142,290.052 88.1369,290.708 88.1375,290.709 88.4751,289.067 88.7851,285.814 88.8851,283.027 " fill="none" stroke-width="0.5" stroke="rgb(0,0,0)" />
	<polygon points="59.3399,282.744 59.5877,283.329 59.6915,282.877 59.5666,282.736 59.1479,282.349 " fill="none" stroke-width="0.5" stroke="rgb(0,0,0)" />
	<polygon points="428.422,279.245 428.5,279.24 428.465,279.165 " fill="none" stroke-width="0.5" stroke="rgb(0,0,0)" />
	<polygon points="157.767,226.423 156.774,228.153 156.395,228.93 157.494,230.216 158.222,233.755 158.161,235.181 158.14,235.514 157.981,237.336 157.965,237.492 157.741,239.564 157.733,239.636 157.475,241.812 157.473,241.829 157.218,243.945 157.002,245.812 156.866,247.199 156.831,247.858 156.834,247.969 157.985,248.641 159.861,251.84 160.326,253.464 160.467,254.043 160.833,255.854 160.896,256.213 161.187,258.142 161.215,258.342 161.459,260.32 161.468,260.388 161.688,262.317 161.9,264.049 161.956,264.414 162.512,264.596 163.253,265.501 163.354,261.796 164.496,257.822 165.917,255.129 168.556,251.942 166.296,252.421 162.652,251.252 160.068,248.428 159.386,243.431 159.624,242.31 159.828,241.254 160.007,240.203 160.158,239.158 160.28,238.117 160.369,237.082 160.425,236.051 160.441,235.134 160.349,233.256 160.071,231.502 159.568,229.744 158.786,227.934 157.825,226.327 " fill="none" stroke-width="0.5" stroke="rgb(0,0,0)" />
	<polygon points="448.97,254.75 449.036,254.632 448.89,254.551 " fill="none" stroke-width="0.5" stroke="rgb(0,0,0)" />
	<polygon points="129.566,243.68 130.908,253.298 131.17,253.994 131.351,252.728 132.361,251.608 132.054,250.341 131.418,248.279 130.608,245.848 130.59,245.794 129.755,243.22 129.676,242.962 129.588,242.652 " fill="none" stroke-width="0.5" stroke="rgb(0,0,0)" />
	<polygon points="382.641,246.464 381.798,247.72 380.973,248.713 379.898,249.769 378.893,250.573 378.061,251.113 378.694,251.889 378.789,252.014 379.725,251.132 380.552,250.457 381.678,249.666 383.894,248.603 384.933,248.303 385.005,248.296 383.033,246.238 382.885,246.006 " fill="none" stroke-width="0.5" stroke="rgb(0,0,0)" />
	<polygon points="324.858,236.454 326.668,238.501 328.953,242.316 328.988,242.412 329.932,241.94 331.1,241.49 331.27,241.44 330.741,240.468 330.172,239.124 329.468,236.864 329.247,235.78 329.041,235.822 327.636,235.965 326.129,235.964 324.735,235.822 323.8,235.63 " fill="none" stroke-width="0.5" stroke="rgb(0,0,0)" />
	<polygon points="464.86,223.489 464.835,223.631 464.29,226.632 464.286,226.65 463.751,229.555 463.321,232.1 464.188,229.965 464.885,227.277 465.118,224.779 464.927,223.071 " fill="none" stroke-width="0.5" stroke="rgb(0,0,0)" />
	<polygon points="312.548,226.122 310.69,226.71 309.548,226.948 309.661,227.298 310.59,228.343 312.725,229.613 316.085,231.072 315.374,230.211 314.576,229.031 313.931,227.844 313.362,226.502 313.162,225.86 " fill="none" stroke-width="0.5" stroke="rgb(0,0,0)" />
	<polygon points="86.3681,213.457 87.3621,214.444 87.8249,215.026 88.6114,216.24 88.9676,216.928 89.4308,218.032 89.6826,218.8 89.933,219.786 90.0826,220.608 90.1905,221.509 90.2162,221.951 90.8352,221.645 92.904,220.976 93.6329,220.853 95.9048,220.823 96.5485,220.914 98.5483,221.489 99.16,221.762 100.013,222.286 100.15,220.435 100.315,219.335 101.156,215.634 101.263,215.284 100.947,215.358 97.9488,215.688 96.3071,215.687 93.1179,215.33 91.4469,214.945 88.5827,213.926 87.0584,213.178 86.7287,212.967 " fill="none" stroke-width="0.5" stroke="rgb(0,0,0)" />
	<polygon points="438.39,212.932 437.814,213.095 432.693,214.326 432.018,214.455 426.699,215.224 427.799,215.933 431.492,218.997 432.652,220.203 433.706,221.581 434.102,220.66 434.816,219.369 437.339,215.715 438.046,214.84 440.491,212.244 " fill="none" stroke-width="0.5" stroke="rgb(0,0,0)" />
	<polygon points="132.408,219.918 132.615,220.081 132.62,220.095 132.687,219.83 " fill="none" stroke-width="0.5" stroke="rgb(0,0,0)" />
	<polygon points="65.2227,216.403 65.8098,216.79 66.3267,217.258 67.5871,218.742 67.9869,219.361 68.2301,219.837 69.7436,217.261 68.2266,216.864 66.9463,216.401 65.6304,215.783 " fill="none" stroke-width="0.5" stroke="rgb(0,0,0)" />
	<polygon points="189.695,214.226 190.903,216.627 191.107,217.179 191.321,216.991 193.927,216.461 193.889,216.324 193.432,215.453 192.856,214.789 191.975,214.146 190.578,213.501 188.9,213.037 " fill="none" stroke-width="0.5" stroke="rgb(0,0,0)" />
	<polygon points="381.597,201.77 380.915,203.017 380.118,204.194 379.376,205.091 380.249,205.811 380.928,206.489 383.285,203.727 384.427,203.317 382.109,201.427 381.855,201.164 " fill="none" stroke-width="0.5" stroke="rgb(0,0,0)" />
	<polygon points="366.119,170.445 365.054,171.162 365.939,172.778 366.511,174.12 367.169,176.213 367.473,177.687 367.703,179.926 367.703,180.607 369.047,180.606 369.222,180.624 366.605,172.255 366.384,171.351 366.207,170.372 " fill="none" stroke-width="0.5" stroke="rgb(0,0,0)" />
	<polygon points="146.592,175.632 145.605,175.893 144.718,176.064 147.02,178.264 147.063,178.083 148,175.154 " fill="none" stroke-width="0.5" stroke="rgb(0,0,0)" />
	<polygon points="108.867,162.928 107.869,163.927 106.834,164.783 105.654,165.582 104.468,166.229 103.124,166.799 101.816,167.208 100.739,167.429 101.22,167.715 104.48,169.93 105.245,170.525 108.243,173.191 109.005,173.977 111.594,177.07 112.034,177.697 113,175.92 114.046,174.452 115.432,172.935 116.574,171.98 115.925,171.507 113.032,168.863 111.995,167.694 109.773,164.582 109.053,163.334 108.868,162.927 " fill="none" stroke-width="0.5" stroke="rgb(0,0,0)" />
	<polygon points="310.48,170.753 310.418,170.851 311.291,170.939 310.497,170.718 " fill="none" stroke-width="0.5" stroke="rgb(0,0,0)" />
	<polygon points="423.845,143.408 422.468,145.055 419.726,147.507 418.444,148.43 415.655,150.016 417.209,150.156 418.653,150.432 425.072,152.329 426.448,152.89 432.134,155.901 432.934,156.42 431.212,150.412 431.151,147.274 430.126,146.917 428.447,146.179 427.126,145.429 425.766,144.461 424.374,143.175 424.152,142.91 " fill="none" stroke-width="0.5" stroke="rgb(0,0,0)" />
	<polygon points="366.89,148.565 366.91,148.547 367.01,148.479 366.231,148.022 " fill="none" stroke-width="0.5" stroke="rgb(0,0,0)" />
	<polygon points="355.81,139.106 355.218,145.343 355.58,145.269 356.921,145.134 358.413,145.134 359.753,145.269 361.213,145.566 362.461,145.953 363.806,146.52 364.069,146.662 363.618,146.338 358.282,141.669 357.381,140.73 355.817,138.785 " fill="none" stroke-width="0.5" stroke="rgb(0,0,0)" />
	<polygon points="126.613,137.994 127.106,139.466 127.584,141.76 127.642,142.069 127.815,143.12 127.911,142.9 128.191,142.048 128.497,140.987 128.758,139.936 128.972,138.904 129.139,137.907 129.256,136.956 129.279,136.656 " fill="none" stroke-width="0.5" stroke="rgb(0,0,0)" />
	<polygon points="106.671,141.608 106.703,141.488 106.381,141.412 " fill="none" stroke-width="0.5" stroke="rgb(0,0,0)" />
	<polygon points="313.883,125.204 312.783,125.716 311.836,126.369 311.056,127.116 310.472,127.89 310.103,128.594 309.716,129.815 308.734,131.359 309.051,131.529 309.943,131.89 310.811,132.132 311.727,132.278 312.822,132.334 313.083,132.326 313.542,132.29 314.108,132.228 314.754,132.145 315.436,132.052 315.497,132.044 316.152,131.962 316.183,131.958 315.656,131.109 315.472,130.754 315.042,129.753 314.913,129.379 314.645,128.383 314.569,127.997 314.444,127.031 314.419,126.638 314.444,125.397 314.481,125.042 " fill="none" stroke-width="0.5" stroke="rgb(0,0,0)" />
	<polygon points="92.5905,115.035 92.0996,115.452 89.8364,117.215 88.764,117.912 86.4259,119.158 84.3599,119.894 81.9585,120.367 81.0096,120.409 81.1539,122.943 81.1641,123.532 81.1323,124.959 81.1182,125.281 81.1012,125.539 81.6196,125.188 82.8057,124.541 84.1502,123.97 85.4591,123.56 86.9294,123.258 88.3325,123.115 89.8421,123.115 91.2471,123.258 92.7155,123.559 94.0264,123.969 94.884,124.332 94.1976,119.2 94.1778,119.039 93.6238,114.075 " fill="none" stroke-width="0.5" stroke="rgb(0,0,0)" />
	<polygon points="185.507,110.579 185.375,111.404 185.136,112.43 184.906,113.173 184.396,114.415 184.059,115.06 183.13,116.442 182.679,116.972 181.258,118.263 180.685,118.662 178.934,119.564 178.229,119.816 176.492,120.21 175.648,120.297 174.542,120.209 174.942,121.023 176.629,125.405 176.632,125.416 176.681,125.377 179.681,123.291 180.592,122.749 183.712,121.183 184.877,120.716 188.098,119.732 189.509,119.446 192.745,119.111 192.363,118.699 188.119,113.687 187.876,113.384 185.535,110.307 " fill="none" stroke-width="0.5" stroke="rgb(0,0,0)" />
	<polygon points="125.085,112.384 124.027,116.619 125.683,114.673 126.54,113.818 126.967,113.455 126.509,113.04 125.273,111.705 " fill="none" stroke-width="0.5" stroke="rgb(0,0,0)" />
	<polygon points="414.201,104.618 416.344,106.584 416.836,107.135 416.836,105.03 417.293,104.232 416.316,104.222 416.171,104.22 413.401,104.138 " fill="none" stroke-width="0.5" stroke="rgb(0,0,0)" />
	<polygon points="393.556,103.199 394.33,104.183 395.096,105.345 395.262,105.306 396.603,104.867 398.207,104.263 399.916,103.601 400.106,103.53 400.848,103.266 398.672,103.038 398.533,103.022 395.107,102.597 394.966,102.578 392.669,102.249 " fill="none" stroke-width="0.5" stroke="rgb(0,0,0)" />
	<polygon points="146.431,102.071 145.938,104.831 149.343,104.582 149.586,104.587 149.237,104.289 146.438,102.038 " fill="none" stroke-width="0.5" stroke="rgb(0,0,0)" />
	<polygon points="308.469,99.2089 308.988,98.9817 309.32,98.878 309.286,98.6997 309.259,98.5229 " fill="none" stroke-width="0.5" stroke="rgb(0,0,0)" />
	<polygon points="382.402,98.6779 382.45,98.6734 382.916,98.6441 383.448,98.6273 384.808,98.7089 385.315,98.7864 384.372,97.4112 384.297,97.2602 " fill="none" stroke-width="0.5" stroke="rgb(0,0,0)" />
	<polygon points="65.9363,96.3689 68.5746,97.5856 69.2223,98.0025 69.38,96.7889 69.3814,96.7782 69.6634,94.6337 69.6921,94.3922 " fill="none" stroke-width="0.5" stroke="rgb(0,0,0)" />
	<polygon points="126.954,63.9406 126.225,67.3986 126.123,67.821 125.276,70.9281 124.913,71.8559 126.027,72.5772 126.114,72.1003 126.399,71.0118 126.661,70.2538 127.48,68.5882 127.85,68.0267 129.664,66.1551 129.657,66.1456 127.934,63.747 127.226,62.8102 " fill="none" stroke-width="0.5" stroke="rgb(0,0,0)" />
	<polygon points="103.563,62.4352 101.72,64.0126 101.535,64.1663 99.7536,65.5942 99.0391,66.1009 97.4212,67.1109 97.3574,67.1387 97.4937,67.6133 97.7108,68.6336 97.8185,69.4002 97.8852,70.1448 97.8986,70.4861 100.137,69.1642 102.196,68.4508 105.646,68.1953 105.494,66.3745 105.474,66.0627 105.332,62.6396 105.186,61.1135 " fill="none" stroke-width="0.5" stroke="rgb(0,0,0)" />
	<polygon points="409.157,61.8177 410.536,62.9655 410.962,63.3489 412.584,64.9262 414.309,66.5451 416.021,67.9195 417.682,68.9284 419.262,69.5229 421.203,69.7679 421.308,69.7629 421.809,69.6869 422.201,69.5724 422.311,69.5174 422.385,69.3178 422.414,69.0409 422.093,67.9761 420.687,66.5242 417.249,64.4902 412.538,62.5382 407.617,60.9066 " fill="none" stroke-width="0.5" stroke="rgb(0,0,0)" />
	<polygon points="401.427,59.0993 401.425,59.8823 402.329,59.7139 402.591,59.6895 404.593,59.9729 402.748,59.406 402.398,59.2889 401.412,58.9316 " fill="none" stroke-width="0.5" stroke="rgb(0,0,0)" />
	<polygon points="163.462,47.8588 162.93,48.8093 164.636,49.3894 164.84,49.4622 165.331,49.645 163.482,47.8077 " fill="none" stroke-width="0.5" stroke="rgb(0,0,0)" />
	<polygon points="397.367,39.2206 397.978,40.6867 398.385,42.0615 399.679,41.4119 400.589,41.0281 403.561,40.0016 404.049,39.8517 407.71,38.8615 407.754,38.8507 406.548,38.2137 402.287,36.5983 398.331,35.473 394.969,34.6317 394.83,34.591 " fill="none" stroke-width="0.5" stroke="rgb(0,0,0)" />
	<polygon points="152.671,29.9678 151.54,30.6218 152.827,31.4263 152.71,29.9406 " fill="none" stroke-width="0.5" stroke="rgb(0,0,0)" />
	<polygon points="82.2966,29.9692 83.4267,29.5506 82.718,28.8358 " fill="none" stroke-width="0.5" stroke="rgb(0,0,0)" />
</svg>
