<?xml version="1.0" standalone="no" ?>
<!DOCTYPE svg PUBLIC "-//W3C//DTD SVG 1.1//EN" "http://www.w3.org/Graphics/SVG/1.1/DTD/svg11.dtd">
<svg width="500px" height="500px" xmlns="http://www.w3.org/2000/svg" version="1.1" >
	<polygon points="470.673,281.001 469.866,295.382 467.452,310.622 463.377,326.706 457.617,343.324 450.159,360.177 440.992,376.973 430.11,393.429 417.509,409.266 403.183,424.215 387.124,438.01 369.318,450.394 349.743,461.113 328.368,469.912 305.15,476.534 280.041,480.712 252.984,482.169 226.622,480.794 202.048,476.84 179.24,470.555 158.166,462.177 138.8,451.941 121.124,440.072 105.129,426.799 90.8111,412.353 78.1736,396.967 67.2215,380.884 57.9607,364.348 50.3961,347.613 44.5299,330.935 40.3597,314.579 37.8759,298.816 37.0405,283.627 37.0405,29.6481 38.4601,29.6372 49.9518,29.549 61.4434,29.4608 61.4435,29.4608 72.9351,29.3727 84.4268,29.2845 95.9185,29.1963 107.41,29.1081 118.902,29.02 130.394,28.9318 153.377,28.7554 164.869,28.6672 176.36,28.5791 187.852,28.4909 200.587,28.3932 200.582,31.0436 200.582,31.0436 200.556,43.9424 200.531,56.8412 200.506,69.74 200.506,69.74 200.48,82.6388 200.429,108.436 200.429,108.436 200.404,121.335 200.353,147.133 200.328,160.032 200.302,172.93 200.277,185.829 200.251,198.728 200.226,211.627 200.2,224.526 200.201,224.624 200.288,235.918 200.289,235.994 200.453,246.811 200.456,246.95 200.753,257.256 200.761,257.467 201.246,267.229 201.266,267.527 201.994,276.711 202.034,277.116 203.06,285.689 203.139,286.223 204.519,294.151 204.665,294.843 206.454,302.093 206.713,302.969 208.967,309.508 209.408,310.583 212.181,316.377 212.895,317.63 216.244,322.646 217.314,323.988 221.293,328.192 222.733,329.452 227.399,332.811 229.096,333.8 234.503,336.281 236.247,336.896 242.449,338.466 244.044,338.736 251.099,339.36 251.947,329.779 252.609,339.376 259.869,338.875 261.473,338.635 267.82,337.157 269.606,336.562 275.101,334.144 276.867,333.146 281.573,329.824 283.079,328.522 287.057,324.333 288.169,322.934 291.481,317.915 292.21,316.612 294.919,310.8 295.358,309.692 297.526,303.123 297.776,302.233 299.464,294.943 299.6,294.251 300.871,286.278 300.941,285.752 301.857,277.133 301.89,276.743 302.513,267.514 302.528,267.236 302.92,257.433 302.925,257.246 303.148,246.906 303.149,246.796 303.264,235.956 303.265,235.911 303.335,224.608 303.335,224.525 303.309,211.626 303.283,198.728 303.257,185.829 303.232,172.93 303.232,172.93 303.206,160.031 303.154,134.234 303.154,134.234 303.128,121.335 303.051,82.6385 303.051,82.6385 303.025,69.7397 302.947,31.0433 302.947,31.0433 302.942,28.2497 304.59,28.2391 316.343,28.1635 328.096,28.088 339.85,28.0124 351.603,27.9368 363.356,27.8613 375.109,27.7857 386.863,27.7102 410.369,27.559 422.122,27.4835 445.629,27.3323 457.382,27.2568 469.135,27.1812 470.673,27.1713 " fill="none" stroke-width="0.5" stroke="rgb(0,0,0)" />
	<polygon points="318.365,422.468 318.536,423.035 318.867,424.487 318.948,424.879 319.032,425.332 319.648,425.814 320.514,426.55 320.935,426.968 320.961,426.945 321.67,426.353 322.398,425.799 323.098,425.314 323.994,424.771 323.934,424.557 323.554,421.809 323.554,420.757 " fill="none" stroke-width="0.5" stroke="rgb(0,0,0)" />
	<polygon points="168.759,414.807 168.745,415 169.079,414.233 168.755,414.064 " fill="none" stroke-width="0.5" stroke="rgb(0,0,0)" />
	<polygon points="76.9835,316.049 77.4881,315.598 77.6823,315.455 77.2321,315.096 " fill="none" stroke-width="0.5" stroke="rgb(0,0,0)" />
	<polygon points="163.299,254.427 163.312,254.404 163.294,254.4 " fill="none" stroke-width="0.5" stroke="rgb(0,0,0)" />
	<polygon points="97.7415,218.475 97.7651,218.371 97.3799,218.371 " fill="none" stroke-width="0.5" stroke="rgb(0,0,0)" />
	<polygon points="92.2482,217.958 92.3472,218.348 92.457,218.313 93.1859,218.191 94.2723,218.176 92.8183,218.014 92.2213,217.876 " fill="none" stroke-width="0.5" stroke="rgb(0,0,0)" />
	<polygon points="106.947,167.952 106.582,168.151 107.039,168.507 110.037,171.174 111.076,172.244 111.752,173.052 112.052,172.631 112.553,172.083 111.21,170.856 109.798,169.263 108.238,167.078 " fill="none" stroke-width="0.5" stroke="rgb(0,0,0)" />
	<polygon points="424.268,147.068 422.412,148.727 425.838,149.74 427.711,150.504 428.606,150.978 428.502,149.152 427.361,148.651 425.561,147.629 424.456,146.843 " fill="none" stroke-width="0.5" stroke="rgb(0,0,0)" />
	<polygon points="90.0345,120.294 89.7816,120.429 90.1154,120.429 91.5205,120.572 91.6609,120.601 91.5214,119.558 91.4954,119.345 " fill="none" stroke-width="0.5" stroke="rgb(0,0,0)" />
	<polygon points="186.454,116.308 185.519,117.697 187.309,117.15 187.483,117.114 186.586,116.054 " fill="none" stroke-width="0.5" stroke="rgb(0,0,0)" />
</svg>
