<?xml version="1.0" standalone="no" ?>
<!DOCTYPE svg PUBLIC "-//W3C//DTD SVG 1.1//EN" "http://www.w3.org/Graphics/SVG/1.1/DTD/svg11.dtd">
<svg width="500px" height="500px" xmlns="http://www.w3.org/2000/svg" version="1.1" >
	<polygon points="469.823,280.977 469.02,295.291 466.619,310.45 462.562,326.462 456.826,343.013 449.396,359.801 440.263,376.535 429.422,392.929 416.868,408.706 402.598,423.597 386.603,437.337 368.87,449.671 349.376,460.345 328.088,469.108 304.963,475.704 279.948,479.866 252.983,481.318 226.712,479.948 202.229,476.008 179.51,469.747 158.522,461.404 139.237,451.21 121.634,439.39 105.703,426.171 91.4427,411.782 78.8547,396.457 67.9449,380.436 58.7202,363.965 51.1858,347.296 45.3443,330.689 41.1932,314.408 38.7222,298.727 37.8905,283.604 37.8905,30.4916 38.4666,30.4872 49.9583,30.399 61.45,30.3108 61.45,30.3108 72.9417,30.2226 84.4333,30.1345 95.925,30.0463 95.925,30.0463 107.417,29.9581 118.908,29.8699 130.4,29.7818 153.383,29.6054 164.875,29.5172 176.367,29.429 187.858,29.3409 199.735,29.2497 199.732,31.0419 199.732,31.042 199.706,43.9408 199.681,56.8395 199.656,69.7383 199.656,69.7383 199.63,82.6371 199.579,108.435 199.579,108.435 199.554,121.334 199.503,147.131 199.478,160.03 199.452,172.929 199.452,172.929 199.427,185.828 199.401,198.726 199.376,211.625 199.376,211.625 199.35,224.524 199.351,224.631 199.438,235.925 199.439,236.007 199.603,246.824 199.607,246.974 199.904,257.28 199.913,257.509 200.397,267.271 200.418,267.594 201.146,276.778 201.19,277.217 202.216,285.79 202.301,286.369 203.682,294.297 203.839,295.046 205.629,302.297 205.909,303.246 208.163,309.785 208.641,310.95 211.415,316.744 212.188,318.102 215.537,323.118 216.696,324.572 220.676,328.776 222.237,330.141 226.902,333.501 228.742,334.572 234.148,337.053 236.038,337.72 242.241,339.29 243.969,339.583 251.024,340.207 251.947,329.779 252.667,340.224 259.928,339.723 261.665,339.463 268.012,337.985 269.948,337.34 275.444,334.922 277.357,333.84 282.063,330.518 283.695,329.107 287.673,324.918 288.878,323.403 292.191,318.384 292.98,316.971 295.69,311.159 296.166,309.959 298.334,303.389 298.604,302.424 300.293,295.135 300.439,294.385 301.71,286.412 301.786,285.842 302.702,277.223 302.739,276.801 303.361,267.571 303.377,267.269 303.769,257.466 303.775,257.264 303.997,246.924 303.999,246.805 304.114,235.965 304.115,235.916 304.185,224.614 304.185,224.523 304.159,211.625 304.133,198.726 304.107,185.827 304.082,172.928 304.082,172.928 304.056,160.03 304.004,134.232 304.004,134.232 303.978,121.333 303.901,82.6368 303.901,82.6368 303.875,69.738 303.797,31.0416 303.797,31.0416 303.793,29.0942 304.595,29.0891 316.349,29.0135 328.102,28.9379 339.855,28.8624 351.608,28.7868 363.362,28.7113 375.115,28.6357 386.868,28.5601 410.375,28.409 422.128,28.3335 433.881,28.2579 445.634,28.1823 457.388,28.1068 469.141,28.0312 469.823,28.0268 " fill="none" stroke-width="0.5" stroke="rgb(0,0,0)" />
	<polygon points="319.404,423.02 319.695,424.299 319.783,424.723 319.809,424.862 320.198,425.166 320.975,425.826 321.125,425.701 321.914,425.1 322.614,424.615 323.055,424.348 322.721,421.927 " fill="none" stroke-width="0.5" stroke="rgb(0,0,0)" />
	<polygon points="108.023,168.245 108.033,168.254 108.026,168.244 " fill="none" stroke-width="0.5" stroke="rgb(0,0,0)" />
	<polygon points="424.115,148.344 426.078,148.924 426.263,149 425.068,148.321 424.552,147.954 " fill="none" stroke-width="0.5" stroke="rgb(0,0,0)" />
</svg>
