<?xml version="1.0" standalone="no" ?>
<!DOCTYPE svg PUBLIC "-//W3C//DTD SVG 1.1//EN" "http://www.w3.org/Graphics/SVG/1.1/DTD/svg11.dtd">
<svg width="500px" height="500px" xmlns="http://www.w3.org/2000/svg" version="1.1" >
	<polygon points="461.923,280.756 461.155,294.45 458.872,308.859 454.987,324.194 449.469,340.116 442.304,356.304 433.489,372.456 423.024,388.282 410.913,403.503 397.159,417.854 381.761,431.082 364.705,442.944 345.965,453.206 325.493,461.633 303.226,467.984 279.085,472.001 252.977,473.407 227.548,472.081 203.911,468.277 182.026,462.246 161.837,454.221 143.296,444.42 126.37,433.055 111.044,420.337 97.3134,406.483 85.1846,391.717 74.669,376.275 65.7789,360.401 58.525,344.353 52.9129,328.398 48.9395,312.814 46.5883,297.893 45.7905,283.386 45.7905,38.3312 50.0189,38.2988 61.5106,38.2106 73.0023,38.1224 84.4939,38.0342 95.9856,37.946 95.9856,37.946 107.477,37.8579 118.969,37.7697 130.461,37.6815 141.952,37.5933 153.444,37.5052 164.936,37.417 176.427,37.3288 187.919,37.2406 191.82,37.2107 191.807,43.9252 191.781,56.824 191.756,69.7228 191.756,69.7228 191.73,82.6215 191.679,108.419 191.679,108.419 191.654,121.318 191.603,147.116 191.603,147.116 191.578,160.014 191.552,172.913 191.552,172.913 191.527,185.812 191.501,198.711 191.476,211.61 191.476,211.61 191.45,224.508 191.451,224.691 191.538,235.986 191.54,236.127 191.704,246.944 191.71,247.202 192.007,257.508 192.022,257.901 192.507,267.663 192.543,268.219 193.271,277.403 193.346,278.156 194.373,286.729 194.519,287.724 195.899,295.652 196.17,296.94 197.959,304.19 198.44,305.82 200.694,312.359 201.515,314.361 204.289,320.155 205.618,322.489 208.967,327.505 210.959,330.002 214.938,334.207 217.62,336.552 222.285,339.912 225.446,341.752 230.853,344.233 234.1,345.379 240.303,346.948 243.273,347.452 250.328,348.076 251.947,329.779 253.211,348.105 260.472,347.604 263.457,347.157 269.804,345.679 273.13,344.571 278.626,342.153 281.913,340.294 286.619,336.972 289.423,334.547 293.402,330.359 295.471,327.754 298.784,322.736 300.141,320.309 302.85,314.496 303.668,312.434 305.836,305.865 306.3,304.207 307.989,296.918 308.241,295.629 309.512,287.656 309.642,286.677 310.558,278.057 310.621,277.332 311.243,268.103 311.271,267.585 311.663,257.782 311.673,257.434 311.896,247.094 311.899,246.889 312.014,236.049 312.015,235.965 312.085,224.663 312.085,224.508 312.059,211.609 312.033,198.71 312.007,185.811 311.982,172.913 311.982,172.912 311.956,160.014 311.904,134.216 311.904,134.216 311.878,121.317 311.801,82.621 311.801,82.6209 311.775,69.7221 311.709,36.9435 316.399,36.9133 328.153,36.8378 339.906,36.7622 363.412,36.6111 375.166,36.5355 386.919,36.46 410.425,36.3088 422.179,36.2333 433.932,36.1577 445.685,36.0822 457.438,36.0066 457.438,36.0066 461.923,35.9778 " fill="none" stroke-width="0.5" stroke="rgb(0,0,0)" />
</svg>
