<?xml version="1.0" standalone="no" ?>
<!DOCTYPE svg PUBLIC "-//W3C//DTD SVG 1.1//EN" "http://www.w3.org/Graphics/SVG/1.1/DTD/svg11.dtd">
<svg width="500px" height="500px" xmlns="http://www.w3.org/2000/svg" version="1.1" >
	<polygon points="469.123,280.958 468.323,295.216 465.933,310.309 461.891,326.261 456.174,342.756 448.767,359.491 439.663,376.173 428.855,392.517 416.341,408.245 402.116,423.088 386.174,436.783 368.501,449.075 349.074,459.712 327.858,468.446 304.809,475.02 279.872,479.169 252.983,480.617 226.786,479.251 202.378,475.323 179.733,469.083 158.816,460.768 139.596,450.608 122.053,438.829 106.177,425.654 91.9629,411.313 79.4155,396.037 68.5407,380.067 59.3456,363.649 51.8361,347.035 46.0149,330.486 41.8796,314.267 39.4192,298.653 38.5905,283.584 38.5905,31.1862 49.9637,31.099 61.4553,31.0108 72.947,30.9226 84.4387,30.8344 95.9304,30.7463 107.422,30.6581 118.914,30.5699 130.405,30.4817 141.897,30.3936 153.389,30.3054 164.88,30.2172 176.372,30.129 187.864,30.0409 199.034,29.9551 199.032,31.0406 199.032,31.0406 199.007,43.9394 198.981,56.8382 198.956,69.737 198.956,69.737 198.93,82.6357 198.879,108.433 198.879,108.433 198.854,121.332 198.803,147.13 198.803,147.13 198.778,160.029 198.752,172.927 198.752,172.927 198.727,185.826 198.701,198.725 198.676,211.624 198.676,211.624 198.65,224.523 198.651,224.636 198.738,235.93 198.739,236.018 198.903,246.835 198.907,246.994 199.204,257.3 199.213,257.544 199.698,267.305 199.72,267.65 200.448,276.834 200.495,277.3 201.521,285.873 201.612,286.489 202.992,294.417 203.16,295.214 204.949,302.465 205.247,303.474 207.501,310.013 208.009,311.252 210.783,317.046 211.606,318.491 214.955,323.507 216.188,325.053 220.167,329.258 221.828,330.709 226.493,334.069 228.45,335.208 233.856,337.69 235.866,338.399 242.069,339.968 243.908,340.28 250.962,340.904 251.947,329.779 252.715,340.922 259.976,340.422 261.824,340.144 268.171,338.667 270.23,337.981 275.726,335.562 277.761,334.412 282.466,331.09 284.203,329.589 288.181,325.4 289.462,323.788 292.775,318.769 293.615,317.267 296.324,311.455 296.83,310.178 298.998,303.609 299.286,302.582 300.974,295.293 301.13,294.495 302.402,286.522 302.482,285.916 303.398,277.297 303.437,276.848 304.06,267.618 304.077,267.297 304.468,257.494 304.475,257.279 304.697,246.939 304.699,246.812 304.814,235.973 304.815,235.921 304.885,224.618 304.885,224.522 304.859,211.623 304.833,198.725 304.807,185.826 304.782,172.927 304.782,172.927 304.756,160.028 304.704,134.231 304.704,134.231 304.678,121.332 304.601,82.6354 304.601,82.6354 304.575,69.7366 304.497,31.0402 304.497,31.0402 304.495,29.7897 304.6,29.789 316.353,29.7135 328.106,29.6379 339.859,29.5624 351.613,29.4868 363.366,29.4112 375.119,29.3357 386.873,29.2601 410.379,29.109 422.132,29.0334 433.886,28.9579 445.639,28.8823 457.392,28.8068 469.123,28.7313 " fill="none" stroke-width="0.5" stroke="rgb(0,0,0)" />
	<polygon points="320.228,423.486 320.378,424.143 320.446,424.472 320.651,424.632 320.993,424.923 321.515,424.525 322.216,424.04 322.305,423.986 322.149,422.853 " fill="none" stroke-width="0.5" stroke="rgb(0,0,0)" />
</svg>
