<?xml version="1.0" standalone="no" ?>
<!DOCTYPE svg PUBLIC "-//W3C//DTD SVG 1.1//EN" "http://www.w3.org/Graphics/SVG/1.1/DTD/svg11.dtd">
<svg width="500px" height="500px" xmlns="http://www.w3.org/2000/svg" version="1.1" >
	<polygon points="469.423,280.966 468.622,295.248 466.227,310.37 462.179,326.347 456.453,342.866 449.037,359.624 439.92,376.328 429.098,392.693 416.567,408.443 402.323,423.306 386.358,437.02 368.659,449.33 349.203,459.984 327.957,468.73 304.875,475.313 279.905,479.467 252.983,480.917 226.754,479.549 202.314,475.617 179.638,469.368 158.69,461.041 139.442,450.866 121.874,439.069 105.974,425.876 91.74,411.514 79.1752,396.217 68.2854,380.225 59.0776,363.784 51.5574,347.147 45.7275,330.573 41.5854,314.327 39.1205,298.684 38.2905,283.593 38.2905,30.8885 38.4697,30.8871 49.9614,30.799 61.453,30.7108 72.9447,30.6226 84.4364,30.5344 95.9281,30.4463 118.911,30.2699 130.403,30.1817 130.403,30.1817 141.895,30.0936 153.386,30.0054 153.386,30.0054 164.878,29.9172 176.37,29.829 187.861,29.7409 187.861,29.7409 199.335,29.6528 199.332,31.0412 199.332,31.0412 199.307,43.94 199.281,56.8387 199.256,69.7375 199.256,69.7376 199.23,82.6363 199.179,108.434 199.179,108.434 199.154,121.333 199.103,147.13 199.078,160.029 199.052,172.928 199.027,185.827 199.001,198.726 198.976,211.624 198.95,224.523 198.951,224.634 199.038,235.928 199.039,236.013 199.203,246.83 199.207,246.986 199.504,257.292 199.513,257.529 199.998,267.291 200.019,267.626 200.748,276.81 200.793,277.265 201.819,285.837 201.907,286.437 203.288,294.366 203.451,295.142 205.241,302.393 205.531,303.376 207.785,309.915 208.28,311.122 211.054,316.917 211.855,318.324 215.204,323.34 216.406,324.847 220.385,329.051 222.003,330.466 226.668,333.826 228.575,334.936 233.981,337.417 235.94,338.108 242.143,339.677 243.934,339.981 250.989,340.606 251.947,329.779 252.695,340.623 259.956,340.122 261.756,339.852 268.103,338.374 270.109,337.706 275.605,335.288 277.588,334.167 282.294,330.845 283.985,329.382 287.963,325.194 289.212,323.623 292.525,318.604 293.343,317.14 296.052,311.328 296.546,310.084 298.713,303.515 298.994,302.515 300.682,295.225 300.834,294.448 302.105,286.475 302.184,285.884 303.1,277.265 303.138,276.828 303.76,267.598 303.777,267.285 304.169,257.482 304.175,257.272 304.397,246.933 304.399,246.809 304.514,235.969 304.515,235.919 304.585,224.616 304.585,224.523 304.559,211.624 304.533,198.725 304.507,185.826 304.482,172.928 304.482,172.928 304.456,160.029 304.404,134.231 304.404,134.231 304.378,121.332 304.301,82.636 304.301,82.636 304.275,69.7372 304.197,31.0408 304.197,31.0408 304.194,29.4916 304.598,29.489 316.351,29.4135 328.104,29.3379 339.858,29.2624 351.611,29.1868 363.364,29.1112 375.117,29.0357 386.871,28.9601 410.377,28.809 422.13,28.7334 433.884,28.6579 445.637,28.5823 457.39,28.5068 469.143,28.4312 469.423,28.4294 " fill="none" stroke-width="0.5" stroke="rgb(0,0,0)" />
	<polygon points="319.875,423.286 320.085,424.21 320.174,424.64 320.457,424.861 320.982,425.307 321.686,424.772 322.386,424.287 322.626,424.141 322.394,422.456 " fill="none" stroke-width="0.5" stroke="rgb(0,0,0)" />
</svg>
