<?xml version="1.0" standalone="no" ?>
<!DOCTYPE svg PUBLIC "-//W3C//DTD SVG 1.1//EN" "http://www.w3.org/Graphics/SVG/1.1/DTD/svg11.dtd">
<svg width="500px" height="500px" xmlns="http://www.w3.org/2000/svg" version="1.1" >
	<polygon points="468.973,280.954 468.174,295.201 465.785,310.279 461.747,326.218 456.034,342.701 448.633,359.425 439.534,376.096 428.733,392.429 416.228,408.146 402.013,422.979 386.082,436.664 368.421,448.947 349.009,459.577 327.809,468.304 304.776,474.873 279.855,479.02 252.983,480.467 226.802,479.101 202.41,475.176 179.781,468.94 158.879,460.632 139.673,450.479 122.143,438.709 106.278,425.544 92.0744,411.212 79.5357,395.947 68.6684,379.988 59.4797,363.581 51.9755,346.98 46.1586,330.442 42.0267,314.236 39.5686,298.637 38.7405,283.58 38.7405,31.3351 49.9648,31.249 61.4565,31.1608 72.9482,31.0726 84.4398,30.9844 95.9315,30.8963 95.9315,30.8963 107.423,30.8081 130.407,30.6317 141.898,30.5436 153.39,30.4554 164.882,30.3672 176.373,30.279 187.865,30.1908 198.884,30.1063 198.882,31.0403 198.882,31.0403 198.857,43.9391 198.831,56.8379 198.806,69.7367 198.78,82.6355 198.729,108.433 198.704,121.332 198.653,147.129 198.628,160.028 198.577,185.826 198.551,198.725 198.526,211.623 198.526,211.623 198.5,224.522 198.501,224.637 198.588,235.932 198.589,236.02 198.753,246.837 198.757,246.999 199.054,257.305 199.064,257.551 199.548,267.313 199.571,267.661 200.299,276.846 200.346,277.318 201.373,285.891 201.464,286.515 202.844,294.443 203.014,295.25 204.804,302.501 205.105,303.523 207.359,310.062 207.874,311.317 210.648,317.111 211.481,318.574 214.83,323.59 216.079,325.156 220.058,329.361 221.74,330.831 226.405,334.191 228.387,335.345 233.794,337.826 235.83,338.544 242.032,340.114 243.895,340.429 250.949,341.054 251.947,329.779 252.726,341.072 259.986,340.571 261.858,340.291 268.205,338.813 270.291,338.118 275.786,335.7 277.847,334.534 282.553,331.213 284.311,329.692 288.29,325.504 289.587,323.871 292.9,318.852 293.751,317.33 296.46,311.518 296.973,310.225 299.141,303.656 299.432,302.616 301.121,295.327 301.278,294.519 302.55,286.546 302.631,285.932 303.547,277.312 303.587,276.858 304.209,267.628 304.227,267.303 304.618,257.5 304.625,257.282 304.847,246.943 304.849,246.814 304.964,235.974 304.965,235.922 305.035,224.619 305.035,224.522 305.009,211.623 304.983,198.724 304.957,185.825 304.932,172.927 304.932,172.927 304.906,160.028 304.854,134.23 304.854,134.23 304.828,121.331 304.751,82.6351 304.751,82.6351 304.725,69.7363 304.647,31.0399 304.647,31.0399 304.645,29.9388 316.354,29.8635 339.86,29.7124 351.614,29.6368 363.367,29.5612 375.12,29.4857 386.874,29.4101 410.38,29.259 422.133,29.1834 433.887,29.1079 445.64,29.0323 457.393,28.9568 468.973,28.8823 " fill="none" stroke-width="0.5" stroke="rgb(0,0,0)" />
	<polygon points="320.405,423.585 320.524,424.11 320.582,424.388 320.748,424.518 320.998,424.73 321.43,424.402 322.13,423.917 322.144,423.908 322.026,423.051 " fill="none" stroke-width="0.5" stroke="rgb(0,0,0)" />
</svg>
