<?xml version="1.0" standalone="no" ?>
<!DOCTYPE svg PUBLIC "-//W3C//DTD SVG 1.1//EN" "http://www.w3.org/Graphics/SVG/1.1/DTD/svg11.dtd">
<svg width="500px" height="500px" xmlns="http://www.w3.org/2000/svg" version="1.1" >
	<polygon points="462.823,280.781 462.051,294.545 459.755,309.04 455.85,324.453 450.307,340.446 443.112,356.702 434.261,372.921 423.753,388.811 411.592,404.096 397.779,418.508 382.313,431.794 365.18,443.71 346.353,454.019 325.789,462.485 303.424,468.863 279.183,472.897 252.977,474.308 227.452,472.977 203.719,469.158 181.74,463.101 161.459,455.039 142.833,445.193 125.831,433.777 110.436,421.002 96.6446,407.087 84.4635,392.257 73.9029,376.749 64.9748,360.807 57.6889,344.688 52.0506,328.659 48.057,312.995 45.6921,297.988 44.8905,283.411 44.8905,37.4381 50.012,37.3988 61.5037,37.3106 72.9954,37.2224 84.487,37.1343 95.9787,37.0461 95.9787,37.0461 107.47,36.9579 118.962,36.8697 130.454,36.7815 141.945,36.6934 153.437,36.6052 164.929,36.517 176.42,36.4288 187.912,36.3407 192.722,36.3038 192.707,43.9269 192.681,56.8257 192.656,69.7245 192.656,69.7245 192.63,82.6233 192.579,108.421 192.579,108.421 192.554,121.32 192.503,147.117 192.503,147.117 192.478,160.016 192.452,172.915 192.452,172.915 192.427,185.814 192.401,198.712 192.376,211.611 192.376,211.611 192.35,224.51 192.351,224.685 192.438,235.979 192.44,236.114 192.604,246.931 192.609,247.176 192.906,257.482 192.921,257.856 193.406,267.618 193.44,268.147 194.168,277.332 194.24,278.049 195.266,286.622 195.405,287.57 196.786,295.498 197.043,296.724 198.833,303.974 199.291,305.527 201.545,312.066 202.327,313.972 205.101,319.767 206.366,321.989 209.715,327.005 211.612,329.384 215.592,333.588 218.146,335.822 222.811,339.181 225.822,340.934 231.228,343.415 234.321,344.506 240.524,346.076 243.352,346.556 250.407,347.18 251.947,329.779 253.149,347.207 260.41,346.707 263.253,346.28 269.6,344.803 272.768,343.747 278.263,341.329 281.394,339.559 286.1,336.237 288.771,333.928 292.749,329.739 294.72,327.259 298.033,322.24 299.325,319.929 302.034,314.116 302.813,312.152 304.981,305.583 305.423,304.004 307.112,296.715 307.352,295.487 308.623,287.514 308.747,286.582 309.663,277.962 309.723,277.272 310.345,268.042 310.372,267.549 310.763,257.746 310.773,257.414 310.996,247.075 310.999,246.879 311.114,236.04 311.115,235.96 311.185,224.657 311.185,224.509 311.159,211.611 311.133,198.712 311.082,172.914 311.082,172.914 311.056,160.016 311.004,134.218 311.004,134.218 310.978,121.319 310.901,82.6228 310.901,82.6227 310.875,69.724 310.807,36.0493 316.394,36.0134 328.147,35.9378 339.9,35.8622 351.653,35.7867 363.406,35.7111 375.16,35.6355 386.913,35.56 410.42,35.4089 422.173,35.3333 433.926,35.2577 445.679,35.1822 457.433,35.1066 462.823,35.072 " fill="none" stroke-width="0.5" stroke="rgb(0,0,0)" />
</svg>
