<?xml version="1.0" standalone="no" ?>
<!DOCTYPE svg PUBLIC "-//W3C//DTD SVG 1.1//EN" "http://www.w3.org/Graphics/SVG/1.1/DTD/svg11.dtd">
<svg width="500px" height="500px" xmlns="http://www.w3.org/2000/svg" version="1.1" >
	<polygon points="480.823,84.2739 475.825,90.3603 473.768,92.2937 472.777,93.0102 473.301,93.2232 475.297,94.2857 477.02,95.4447 478.831,96.9694 480.199,98.4009 480.823,99.207 480.823,194.302 480.378,194.817 478.823,195.875 480.74,198.003 480.823,198.115 480.823,250.858 480.489,251.325 480.823,251.496 480.823,281.286 479.971,296.463 479.534,299.224 478.869,300.046 477.98,301.02 476.553,302.407 478.12,305.407 478.438,306.145 477.405,312.666 473.11,329.62 467.07,347.047 459.27,364.67 453.724,374.831 452.679,374.976 452.82,376.488 449.695,382.213 438.331,399.399 425.161,415.952 410.17,431.593 393.345,446.047 374.668,459.037 354.126,470.285 331.702,479.516 318.909,483.165 316.856,482.104 316.781,482.054 316.728,482.505 316.353,483.894 307.382,486.452 281.151,490.817 252.993,492.333 225.548,490.902 199.887,486.773 176.007,480.192 153.907,471.407 133.585,460.665 124.858,454.805 124.809,454.503 124.331,454.451 115.039,448.212 98.2672,434.295 83.2685,419.161 70.0408,403.057 58.5824,386.23 48.8916,368.927 40.9666,351.394 34.8057,333.879 32.7222,325.707 34.6349,319.547 35.2612,317.971 36.0233,316.414 34.7239,316.006 30.2479,313.291 29.813,312.856 27.7694,299.888 26.8905,283.906 26.8905,156.061 27.1472,155.49 29.5738,151.058 30.5598,149.606 28.9466,148.768 27.1278,147.583 26.8905,147.393 26.8905,38.0096 29.3271,36.2253 27.8481,35.6231 26.8905,35.1389 26.8905,19.5757 38.3822,19.4875 49.8739,19.3993 61.3656,19.3111 72.8572,19.223 84.3489,19.1348 95.8406,19.0466 107.332,18.9584 118.824,18.8703 130.316,18.7821 141.807,18.6939 153.299,18.6057 164.791,18.5175 176.282,18.4294 187.774,18.3412 210.757,18.1648 210.732,31.0636 210.706,43.9624 210.681,56.8612 210.656,69.76 210.63,82.6588 210.619,88.5015 210.253,88.6545 209.591,88.8667 210.616,89.7204 210.579,108.456 210.554,121.355 210.503,147.153 210.478,160.052 210.452,172.95 210.435,181.817 208.919,183.725 207.532,185.176 206.974,185.661 207.137,185.773 208.836,187.21 210.421,188.853 210.401,198.748 210.376,211.647 210.35,224.546 210.438,235.84 210.602,246.657 210.899,256.963 211.384,266.725 211.433,267.344 210.746,268.175 210.031,269.126 211.685,270.518 212.112,275.909 213.138,284.482 214.519,292.41 216.308,299.661 218.563,306.2 221.336,311.994 224.685,317.011 228.665,321.215 233.33,324.575 238.737,327.056 244.939,328.626 251.957,329.247 259.171,328.749 265.518,327.271 271.013,324.853 275.719,321.532 279.698,317.343 283.01,312.324 285.72,306.511 287.888,299.942 289.576,292.653 290.848,284.68 291.763,276.06 292.386,266.831 292.778,257.028 293,246.688 293.115,235.848 293.185,224.546 293.159,211.647 293.133,198.748 293.123,193.801 293.493,193.494 293.333,193.201 293.121,192.702 293.107,185.849 293.091,177.816 293.334,177.243 293.917,176.176 293.462,175.881 293.087,175.532 293.082,172.95 293.056,160.052 293.004,134.254 292.978,121.355 292.955,109.928 293.657,108.392 292.952,108.126 292.901,82.6588 292.875,69.76 292.797,31.0636 292.771,18.1648 304.525,18.0893 316.278,18.0137 328.031,17.9382 339.784,17.8626 351.538,17.787 363.291,17.7115 375.044,17.6359 383.444,17.5819 385.17,18.8494 385.315,18.5256 385.941,17.7975 386.248,17.5639 386.797,17.5604 410.304,17.4092 422.057,17.3337 433.81,17.2581 445.564,17.1826 457.317,17.107 469.07,17.0314 480.823,16.9559 " fill="none" stroke-width="0.5" stroke="rgb(0,0,0)" />
	<polygon points="319.404,423.02 319.695,424.299 319.783,424.723 319.809,424.862 320.198,425.166 320.975,425.826 321.125,425.701 321.914,425.1 322.614,424.615 323.055,424.348 322.721,421.927 " fill="none" stroke-width="0.5" stroke="rgb(0,0,0)" />
	<polygon points="108.023,168.245 108.033,168.254 108.026,168.244 " fill="none" stroke-width="0.5" stroke="rgb(0,0,0)" />
	<polygon points="424.115,148.344 426.078,148.924 426.263,149 425.068,148.321 424.552,147.954 " fill="none" stroke-width="0.5" stroke="rgb(0,0,0)" />
</svg>
