<?xml version="1.0" standalone="no" ?>
<!DOCTYPE svg PUBLIC "-//W3C//DTD SVG 1.1//EN" "http://www.w3.org/Graphics/SVG/1.1/DTD/svg11.dtd">
<svg width="500px" height="500px" xmlns="http://www.w3.org/2000/svg" version="1.1" >
	<polygon points="462.723,280.778 461.951,294.535 459.657,309.02 455.754,324.424 450.214,340.409 443.022,356.658 434.175,372.869 423.672,388.752 411.516,404.03 397.71,418.435 382.251,431.715 365.127,443.625 346.31,453.929 325.756,462.39 303.402,468.766 279.172,472.797 252.977,474.208 227.463,472.877 203.741,469.06 181.772,463.006 161.501,454.948 142.885,445.107 125.891,433.696 110.503,420.928 96.7189,407.02 84.5436,392.197 73.9881,376.696 65.0641,360.762 57.7818,344.651 52.1464,328.63 48.155,312.975 45.7917,297.977 44.9906,283.408 44.9906,37.5373 50.0128,37.4988 61.5044,37.4106 72.9961,37.3224 84.4878,37.2342 95.9795,37.1461 118.963,36.9697 130.454,36.8815 130.455,36.8815 141.946,36.7934 153.438,36.7052 153.438,36.7052 164.93,36.617 176.421,36.5288 187.913,36.4407 187.913,36.4407 192.621,36.4045 192.607,43.9267 192.581,56.8255 192.556,69.7243 192.556,69.7243 192.53,82.6231 192.479,108.421 192.479,108.421 192.454,121.32 192.403,147.117 192.403,147.117 192.378,160.016 192.352,172.915 192.352,172.915 192.327,185.814 192.301,198.712 192.276,211.611 192.276,211.611 192.25,224.51 192.251,224.685 192.338,235.98 192.34,236.115 192.504,246.932 192.509,247.179 192.806,257.485 192.821,257.861 193.306,267.623 193.34,268.155 194.068,277.339 194.14,278.061 195.167,286.634 195.307,287.587 196.687,295.515 196.946,296.748 198.736,303.998 199.197,305.559 201.451,312.099 202.237,314.015 205.011,319.81 206.283,322.045 209.632,327.061 211.54,329.452 215.519,333.657 218.088,335.903 222.753,339.263 225.78,341.025 231.187,343.506 234.297,344.603 240.499,346.173 243.344,346.655 250.398,347.28 251.947,329.779 253.156,347.307 260.417,346.806 263.276,346.378 269.623,344.9 272.808,343.839 278.303,341.42 281.452,339.64 286.157,336.319 288.843,333.996 292.822,329.808 294.804,327.314 298.116,322.295 299.416,319.971 302.125,314.158 302.908,312.184 305.076,305.614 305.521,304.027 307.209,296.737 307.451,295.503 308.722,287.53 308.846,286.592 309.762,277.973 309.822,277.279 310.445,268.049 310.472,267.553 310.863,257.75 310.873,257.417 311.096,247.077 311.099,246.88 311.214,236.041 311.215,235.96 311.285,224.658 311.285,224.509 311.259,211.61 311.233,198.712 311.207,185.813 311.182,172.914 311.182,172.914 311.156,160.015 311.104,134.218 311.104,134.218 311.078,121.319 311.001,82.6226 311.001,82.6225 310.975,69.7238 310.907,36.1486 316.394,36.1134 328.147,36.0378 339.901,35.9622 351.654,35.8867 363.407,35.8111 375.16,35.7355 386.914,35.66 410.42,35.5089 422.173,35.4333 433.927,35.3577 457.433,35.2066 462.723,35.1726 " fill="none" stroke-width="0.5" stroke="rgb(0,0,0)" />
</svg>
