<?xml version="1.0" standalone="no" ?>
<!DOCTYPE svg PUBLIC "-//W3C//DTD SVG 1.1//EN" "http://www.w3.org/Graphics/SVG/1.1/DTD/svg11.dtd">
<svg width="500px" height="500px" xmlns="http://www.w3.org/2000/svg" version="1.1" >
	<polygon points="464.923,280.84 464.141,294.769 461.814,309.463 457.864,325.055 452.263,341.216 444.997,357.632 436.061,374.005 425.453,390.046 413.175,405.479 399.225,420.035 383.6,433.457 366.287,445.499 347.26,455.917 326.479,464.472 303.886,470.915 279.413,474.987 252.979,476.411 227.23,475.068 203.272,471.213 181.071,465.095 160.578,456.949 141.754,446.998 124.572,435.461 109.016,422.553 95.084,408.496 82.7808,393.517 72.1155,377.855 63.0984,361.755 55.738,345.471 50.0387,329.268 45.9978,313.419 43.6012,298.209 42.7905,283.469 42.7905,35.3541 49.9959,35.2988 61.4876,35.2107 61.4876,35.2107 72.9792,35.1225 95.9626,34.9461 95.9626,34.9461 107.454,34.858 118.946,34.7698 130.438,34.6816 153.421,34.5053 164.913,34.4171 176.404,34.3289 187.896,34.2407 187.896,34.2407 194.826,34.1876 194.807,43.9311 194.756,69.7287 194.756,69.7287 194.73,82.6275 194.679,108.425 194.679,108.425 194.654,121.324 194.603,147.121 194.603,147.121 194.578,160.02 194.552,172.919 194.552,172.919 194.527,185.818 194.501,198.717 194.476,211.615 194.476,211.615 194.45,224.514 194.451,224.668 194.538,235.963 194.539,236.082 194.704,246.899 194.709,247.115 195.006,257.421 195.019,257.752 195.503,267.514 195.534,267.982 196.262,277.166 196.325,277.8 197.351,286.372 197.474,287.209 198.855,295.138 199.082,296.221 200.872,303.471 201.276,304.842 203.531,311.382 204.221,313.065 206.995,318.86 208.113,320.823 211.462,325.839 213.137,327.94 217.117,332.145 219.373,334.118 224.038,337.477 226.698,339.026 232.104,341.507 234.836,342.47 241.039,344.04 243.537,344.464 250.592,345.088 251.947,329.779 253.004,345.112 260.265,344.612 262.777,344.235 269.124,342.757 271.922,341.825 277.417,339.407 280.183,337.843 284.889,334.521 287.248,332.481 291.226,328.293 292.967,326.102 296.28,321.083 297.422,319.041 300.131,313.229 300.819,311.494 302.987,304.925 303.378,303.53 305.066,296.241 305.278,295.156 306.549,287.183 306.659,286.36 307.574,277.74 307.627,277.13 308.25,267.901 308.273,267.465 308.665,257.662 308.674,257.369 308.896,247.03 308.899,246.857 309.014,236.017 309.015,235.947 309.085,224.644 309.085,224.514 309.059,211.615 309.033,198.716 309.007,185.817 308.982,172.919 308.982,172.919 308.956,160.02 308.904,134.222 308.904,134.222 308.878,121.323 308.801,82.627 308.801,82.6269 308.775,69.7281 308.703,33.9628 316.38,33.9134 328.133,33.8378 339.887,33.7623 351.64,33.6867 363.393,33.6112 375.146,33.5356 386.9,33.46 410.406,33.3089 422.159,33.2334 433.913,33.1578 445.666,33.0822 457.419,33.0067 464.923,32.9584 " fill="none" stroke-width="0.5" stroke="rgb(0,0,0)" />
</svg>
