<?xml version="1.0" standalone="no" ?>
<!DOCTYPE svg PUBLIC "-//W3C//DTD SVG 1.1//EN" "http://www.w3.org/Graphics/SVG/1.1/DTD/svg11.dtd">
<svg width="500px" height="500px" xmlns="http://www.w3.org/2000/svg" version="1.1" >
	<polygon points="480.823,79.3772 480.469,80.2162 479.208,82.3017 473.893,88.7736 472.304,90.2677 467.249,93.9219 468.772,94.2347 470.264,94.687 472.359,95.539 473.902,96.3601 475.625,97.5191 477.024,98.6973 478.393,100.129 479.477,101.53 480.511,103.2 480.823,103.832 480.823,190.607 478.972,192.75 477.393,193.824 474.519,194.887 474.88,195.234 478.882,199.676 479.822,200.937 480.823,202.576 480.823,246.064 479.382,248.518 478.961,249.166 476.385,252.758 478.324,253.197 479.584,253.646 480.823,254.28 480.823,281.286 480.083,294.476 480.039,294.543 479.502,295.286 476.925,298.475 476.238,299.227 473.405,301.98 473.989,302.897 475.904,306.565 476.404,307.724 477.627,311.264 477.405,312.666 473.11,329.62 467.07,347.047 459.27,364.67 455.174,372.175 454.999,372.279 450.912,372.483 449.892,372.007 450.518,378.73 450.448,380.833 449.695,382.213 438.331,399.399 425.161,415.952 410.17,431.593 401.203,439.296 399.18,438.662 397.687,437.956 396.87,437.463 396.777,439.353 396.004,443.762 393.345,446.047 374.668,459.037 354.126,470.285 331.702,479.516 322.823,482.049 322.248,481.885 320.668,481.26 318.004,479.883 316.549,478.93 314.356,477.149 314.47,477.702 314.527,478.141 314.592,478.957 314.604,479.371 314.314,481.853 313.916,483.326 313.173,484.801 307.382,486.452 281.151,490.817 266.088,491.628 264.433,490.276 263.629,489.5 262.968,489.837 262.491,490.061 258.326,491.867 257.83,492.064 257.8,492.074 252.993,492.333 225.548,490.902 199.887,486.773 179.643,481.194 178.775,480.577 174.847,477.818 171.927,476.176 170.197,475.677 167.292,475.39 163.381,475.173 153.907,471.407 133.585,460.665 129.89,458.184 129.298,457.61 127.132,454.137 126.987,452.118 125.915,452.108 119.865,451.452 115.039,448.212 98.2672,434.295 83.2685,419.161 70.0558,403.076 69.8221,401.205 69.7835,399.475 69.9079,397.917 68.701,397.942 65.2346,395.999 58.5824,386.23 48.8916,368.927 40.9666,351.394 34.8057,333.879 33.9308,330.447 34.0541,329.849 37.0224,320.288 37.5064,319.07 39.8477,314.289 37.4434,314.24 35.4743,313.621 32.0156,311.523 30.197,309.705 29.0832,308.225 27.7694,299.888 26.8905,283.906 26.8905,236.187 26.9002,236.16 28.5618,232.342 29.5483,230.644 30.2489,229.707 30.1429,229.665 28.0655,228.468 26.8905,227.548 26.8905,163.459 26.9533,163.194 27.2233,162.285 28.7954,157.902 29.3402,156.691 31.7667,152.258 32.6797,150.914 34.6319,148.559 33.9175,148.351 32.3845,147.736 30.0982,146.549 28.6928,145.633 26.8905,144.187 26.8905,110.795 27.1969,110.49 28.1896,109.64 29.6478,108.575 29.6055,108.555 29.1207,108.255 27.6189,107.073 27.2239,106.683 26.8905,106.263 26.8905,90.2056 28.4737,87.8126 26.8905,87.2834 26.8905,41.1269 27.0515,40.9904 30.9422,38.1412 31.3555,37.8569 35.1603,35.4016 34.475,35.228 34.0083,35.0955 30.2577,33.9139 28.9763,33.3921 26.8905,32.3374 26.8905,19.5757 38.3822,19.4875 49.8739,19.3993 61.3656,19.3111 72.8572,19.223 84.3489,19.1348 95.8406,19.0466 107.332,18.9584 116.635,18.8871 116.865,19.1437 117.068,19.3776 118.229,20.7695 118.585,21.1021 118.805,21.1338 119.035,21.1009 119.531,20.665 120.78,19.2876 120.999,19.0549 121.197,18.852 130.316,18.7821 141.807,18.6939 153.299,18.6057 157.176,18.576 157.87,20.7842 159.019,19.9551 160.517,19.0917 161.746,18.5409 164.791,18.5175 176.282,18.4294 187.774,18.3412 210.757,18.1648 210.732,31.0636 210.706,43.9624 210.681,56.8612 210.679,57.852 209.437,58.3245 210.675,59.7438 210.656,69.76 210.63,82.6588 210.624,85.7351 210.159,85.9842 209.289,86.3479 207.899,86.793 206.896,87.0218 205.603,87.2135 204.475,87.2929 203.716,87.2811 204.516,87.9023 204.742,88.0835 209.037,91.6588 209.325,91.9092 210.61,93.0802 210.579,108.456 210.554,121.355 210.503,147.153 210.478,160.052 210.452,172.95 210.444,177.068 209.552,178.706 208.742,179.928 206.961,182.169 205.889,183.291 203.748,185.156 202.747,185.87 203.325,186.191 205.724,187.835 207.036,188.946 209.009,190.991 210.133,192.441 210.413,192.897 210.401,198.748 210.376,211.647 210.363,218.225 209.871,219.11 209.666,219.459 208.841,220.791 207.324,222.269 209.555,224.333 210.17,224.964 210.355,225.175 210.438,235.84 210.602,246.657 210.899,256.963 211.231,263.648 211.156,263.746 210.966,263.984 208.782,266.626 207.278,268.627 206.849,269.429 206.955,269.601 208.154,270.813 210.328,272.644 210.475,272.771 211.967,274.088 212.112,275.909 213.138,284.482 214.519,292.41 216.308,299.661 218.563,306.2 221.336,311.994 224.685,317.011 228.665,321.215 233.33,324.575 238.737,327.056 244.939,328.626 250.058,329.079 250.487,329.78 251.996,332.904 252.527,334.308 252.616,334.628 253.976,332.077 254.863,330.737 256.308,328.947 259.171,328.749 265.518,327.271 271.013,324.853 275.719,321.532 279.698,317.343 283.01,312.324 285.72,306.511 287.888,299.942 289.576,292.653 290.848,284.68 291.763,276.06 292.293,268.218 292.662,267.849 294.246,266.608 295.258,265.993 295.868,265.713 293.547,263.721 292.556,262.571 292.778,257.028 293,246.688 293.115,235.848 293.185,224.546 293.184,224.165 293.727,223.115 293.181,222.569 293.159,211.647 293.133,198.748 293.13,197.197 294.02,196.306 295.498,195.079 296.829,194.173 296.836,194.169 296.175,193.191 295.528,192.004 294.878,190.472 294.468,189.163 294.124,187.487 293.982,186.084 293.982,184.359 294.125,182.958 294.469,181.281 294.879,179.972 295.529,178.441 296.176,177.255 297.087,175.91 297.417,175.511 295.163,174.049 293.751,172.737 293.08,171.958 293.056,160.052 293.004,134.254 292.992,128.105 293.66,127.473 293.656,127.457 293.477,126.712 293.394,126.33 293.247,125.569 293.178,125.156 293.069,124.382 293.017,123.934 292.983,123.539 292.978,121.355 292.976,120.273 293.173,117.958 293.412,116.552 294.181,113.576 294.679,112.172 295.993,109.294 296.802,107.894 298.012,106.195 296.95,106.356 296.713,106.355 296.241,106.338 296.05,106.326 294.782,106.15 294.632,106.117 292.946,105.48 292.902,83.5551 293.058,83.2718 293.293,82.8408 292.901,82.7284 292.901,82.6588 292.875,69.76 292.817,41.0631 292.957,40.9871 293.357,40.7779 292.815,39.984 292.797,31.0636 292.771,18.1648 304.525,18.0893 305.573,18.0825 305.895,18.2488 306.068,18.3406 307.786,19.2762 307.915,18.6736 308.08,18.0664 316.278,18.0137 328.031,17.9382 339.784,17.8626 351.538,17.787 363.291,17.7115 375.044,17.6359 378.739,17.6122 379.342,17.8886 380.826,18.762 385.971,22.5381 387.211,20.1556 387.837,19.4276 390.319,17.5377 410.304,17.4092 422.057,17.3337 433.81,17.2581 442.561,17.2019 443.477,17.8528 445.453,19.6585 445.996,18.8264 447.344,17.1711 457.317,17.107 469.07,17.0314 480.823,16.9559 " fill="none" stroke-width="0.5" stroke="rgb(0,0,0)" />
	<polygon points="305.971,468.763 305.933,468.803 306.536,468.913 307.205,469.105 309.17,469.951 309.19,469.963 308.594,468.504 307.847,466 " fill="none" stroke-width="0.5" stroke="rgb(0,0,0)" />
	<polygon points="193.059,443.437 193.47,444.649 193.889,446.274 194.515,446.412 196.005,446.651 197.441,446.8 198.578,446.845 200.097,446.761 201.489,446.516 202.673,446.128 203.584,445.645 204.257,445.092 204.809,444.377 205.091,443.758 202.954,443.917 201.654,443.915 195.436,443.426 193.998,443.187 192.825,442.888 " fill="none" stroke-width="0.5" stroke="rgb(0,0,0)" />
	<polygon points="316.826,421.237 316.24,421.362 316.583,422.262 316.927,423.401 317.258,424.853 317.326,425.182 317.531,426.283 318.046,426.654 318.58,427.072 319.447,427.807 320.397,428.753 320.861,429.294 320.875,429.28 321.59,428.595 322.019,428.211 322.728,427.62 323.337,427.156 324.037,426.671 324.912,426.14 325.602,425.776 326.004,425.604 325.871,425.352 325.522,424.111 325.204,421.809 325.204,418.476 " fill="none" stroke-width="0.5" stroke="rgb(0,0,0)" />
	<polygon points="167.107,413.455 167.112,414.695 166.839,418.692 169.39,418.988 169.389,418.97 169.422,418.602 169.749,416.902 169.845,416.583 170.639,414.753 170.797,414.483 171.457,413.617 169.131,412.398 168.466,412.01 166.916,411.009 " fill="none" stroke-width="0.5" stroke="rgb(0,0,0)" />
	<polygon points="271.002,413.674 271.431,414.033 273.441,415.826 273.865,415.753 274.218,415.7 274.672,415.641 269.918,412.828 " fill="none" stroke-width="0.5" stroke="rgb(0,0,0)" />
	<polygon points="259.731,404.514 259.099,406.066 259.075,406.109 261.803,407.471 262.355,407.772 265.138,409.429 265.599,409.724 266.38,410.26 260.048,404.415 259.832,404.171 " fill="none" stroke-width="0.5" stroke="rgb(0,0,0)" />
	<polygon points="350.905,395.974 350.154,397.229 352.206,397.114 352.081,396.972 351.203,395.771 351.092,395.587 " fill="none" stroke-width="0.5" stroke="rgb(0,0,0)" />
	<polygon points="204.404,391.281 204.93,392.452 205.028,392.724 205.205,392.462 207.138,390.438 205.582,390.422 203.833,390.229 " fill="none" stroke-width="0.5" stroke="rgb(0,0,0)" />
	<polygon points="244.161,374.55 245.432,375.613 245.8,375.996 245.603,375.27 245.341,373.806 245.274,373.054 " fill="none" stroke-width="0.5" stroke="rgb(0,0,0)" />
	<polygon points="82.8638,368.385 81.8419,368.458 81.1516,368.465 81.4757,369.285 81.9265,372.262 82.8536,371.436 83.9563,370.604 84.8962,370.008 84.8872,370 83.7713,368.851 83.3457,368.321 " fill="none" stroke-width="0.5" stroke="rgb(0,0,0)" />
	<polygon points="118.038,360.304 117.837,360.984 119.193,360.862 119.171,360.837 118.504,359.866 118.226,359.304 " fill="none" stroke-width="0.5" stroke="rgb(0,0,0)" />
	<polygon points="394.53,342.959 393.783,343.496 392.761,344.148 390.6,345.136 389.765,345.383 388.817,345.461 389.391,347.089 389.547,347.764 392.427,345.35 394.466,344.084 395.729,343.529 395.677,343.466 395.484,343.225 394.992,342.587 " fill="none" stroke-width="0.5" stroke="rgb(0,0,0)" />
	<polygon points="59.7409,341.654 61.2322,344.053 61.3223,343.635 61.8837,341.932 62.4895,340.59 62.345,340.559 61.1983,340.227 59.4904,339.6 " fill="none" stroke-width="0.5" stroke="rgb(0,0,0)" />
	<polygon points="159.842,336.858 157.661,338.943 156.245,340.036 155.225,340.664 156.241,341.28 157.256,342.002 159.073,343.507 159.106,342.514 159.144,341.934 159.323,340.17 159.418,339.503 159.724,337.825 159.918,336.996 160.017,336.654 " fill="none" stroke-width="0.5" stroke="rgb(0,0,0)" />
	<polygon points="414.76,334.352 414.93,335.39 414.976,335.709 415.134,336.979 415.188,337.58 415.248,338.708 415.256,339.405 415.246,339.738 415.232,339.967 417.446,340.156 416.461,338.239 415.544,334.267 " fill="none" stroke-width="0.5" stroke="rgb(0,0,0)" />
	<polygon points="165.884,324.97 165.133,327.785 164.826,328.637 165.599,328.056 167.455,327.197 166.008,325.007 165.911,324.817 " fill="none" stroke-width="0.5" stroke="rgb(0,0,0)" />
	<polygon points="76.2285,312.405 75.3538,315.759 75.0738,318.353 75.0985,319.229 75.2084,320.27 75.2252,320.35 75.8209,319.562 77.2386,318.024 78.4637,316.928 80.1648,315.681 80.5588,315.447 79.2516,314.597 77.8226,313.456 76.6083,312.27 76.377,311.993 " fill="none" stroke-width="0.5" stroke="rgb(0,0,0)" />
	<polygon points="161.117,299.735 159.934,299.891 159.454,299.903 159.926,300.727 161.688,304.246 161.764,303.54 162.256,300.493 162.445,299.618 162.502,299.407 " fill="none" stroke-width="0.5" stroke="rgb(0,0,0)" />
	<polygon points="458.321,290.944 458.008,291.321 458.841,291.455 458.797,291.151 458.668,290.656 " fill="none" stroke-width="0.5" stroke="rgb(0,0,0)" />
	<polygon points="87.184,288.625 87.4492,288.764 87.525,287.968 " fill="none" stroke-width="0.5" stroke="rgb(0,0,0)" />
	<polygon points="160.87,251.551 161.336,253.175 161.497,253.835 161.862,255.646 161.934,256.056 162.226,257.985 162.257,258.213 162.501,260.191 162.511,260.269 162.565,260.742 163.487,257.533 165.108,254.459 166.029,253.347 162.572,252.426 159.894,249.948 " fill="none" stroke-width="0.5" stroke="rgb(0,0,0)" />
	<polygon points="158.26,244.068 158.046,245.923 157.913,247.278 157.909,247.356 158.527,247.704 159.374,249.094 158.211,245.785 158.355,243.286 " fill="none" stroke-width="0.5" stroke="rgb(0,0,0)" />
	<polygon points="382.92,247.922 383.125,247.823 383.044,247.738 " fill="none" stroke-width="0.5" stroke="rgb(0,0,0)" />
	<polygon points="157.702,228.645 157.667,228.718 158.179,229.26 159.271,233.799 159.21,235.226 159.186,235.605 159.027,237.427 159.009,237.605 158.785,239.677 158.775,239.76 158.518,241.936 158.515,241.955 158.37,243.162 158.595,242.102 158.795,241.066 158.97,240.04 159.117,239.021 159.235,238.011 159.322,237.009 159.375,236.013 159.391,235.15 159.303,233.364 159.044,231.729 158.577,230.098 157.849,228.414 157.842,228.402 " fill="none" stroke-width="0.5" stroke="rgb(0,0,0)" />
	<polygon points="327.742,237.009 326.726,237.009 327.569,237.962 329.409,241.033 329.554,240.961 329.778,240.874 329.17,239.437 328.465,237.176 328.417,236.941 " fill="none" stroke-width="0.5" stroke="rgb(0,0,0)" />
	<polygon points="311.382,227.592 313.18,228.662 313.009,228.347 312.535,227.228 " fill="none" stroke-width="0.5" stroke="rgb(0,0,0)" />
	<polygon points="89.5438,215.757 89.9001,216.445 90.4285,217.704 90.6804,218.472 90.966,219.598 91.1156,220.42 91.1205,220.461 92.7301,219.94 93.4591,219.818 96.0511,219.783 96.6949,219.874 98.9765,220.53 99.0864,220.579 99.1029,220.357 99.291,219.102 99.8752,216.532 98.0637,216.732 96.1906,216.73 93.0014,216.374 91.0949,215.934 89.2286,215.27 " fill="none" stroke-width="0.5" stroke="rgb(0,0,0)" />
	<polygon points="432.938,215.347 432.168,215.495 429.398,215.895 432.163,218.189 433.485,219.565 433.502,219.586 433.952,218.773 436.475,215.119 437.098,214.347 " fill="none" stroke-width="0.5" stroke="rgb(0,0,0)" />
	<polygon points="191.73,215.935 192.298,215.748 192.141,215.567 191.44,215.055 191.241,214.964 " fill="none" stroke-width="0.5" stroke="rgb(0,0,0)" />
	<polygon points="381.837,203.521 380.927,204.863 380.855,204.949 380.875,204.965 382.014,203.38 382.529,203.124 382.2,202.856 " fill="none" stroke-width="0.5" stroke="rgb(0,0,0)" />
	<polygon points="108.538,164.736 107.503,165.592 106.156,166.504 104.97,167.151 103.438,167.801 103.286,167.849 105.07,169.061 105.942,169.74 108.941,172.407 109.811,173.303 111.882,175.778 112.077,175.419 113.27,173.744 114.657,172.227 114.918,172.009 112.323,169.638 111.141,168.304 108.919,165.193 108.612,164.662 " fill="none" stroke-width="0.5" stroke="rgb(0,0,0)" />
	<polygon points="423.168,145.838 420.426,148.29 418.963,149.342 418.851,149.406 418.951,149.425 425.37,151.322 426.939,151.962 431.213,154.225 430.202,150.701 430.105,148.018 429.704,147.878 428.025,147.14 426.517,146.284 425.157,145.317 424.281,144.507 " fill="none" stroke-width="0.5" stroke="rgb(0,0,0)" />
	<polygon points="356.388,144.132 356.816,144.089 358.518,144.09 359.576,144.196 357.59,142.459 356.64,141.469 " fill="none" stroke-width="0.5" stroke="rgb(0,0,0)" />
	<polygon points="127.893,138.532 127.944,138.686 127.977,138.488 " fill="none" stroke-width="0.5" stroke="rgb(0,0,0)" />
	<polygon points="313.307,126.631 312.501,127.185 311.844,127.816 311.362,128.454 311.076,128.999 310.717,130.132 310.256,130.884 310.282,130.894 311.036,131.105 311.836,131.232 312.833,131.283 313.026,131.277 313.444,131.245 313.984,131.185 314.49,131.12 314.05,130.095 313.921,129.722 313.614,128.586 313.538,128.199 313.396,127.098 313.371,126.705 313.373,126.6 " fill="none" stroke-width="0.5" stroke="rgb(0,0,0)" />
	<polygon points="185.909,113.483 185.327,114.9 184.991,115.545 183.93,117.122 183.479,117.652 181.858,119.124 181.285,119.524 179.287,120.553 178.582,120.804 176.6,121.254 176.173,121.299 177.13,123.786 179.081,122.429 180.121,121.811 183.241,120.244 184.57,119.712 187.791,118.728 189.401,118.401 190.628,118.274 187.318,114.366 187.04,114.02 186.118,112.808 " fill="none" stroke-width="0.5" stroke="rgb(0,0,0)" />
	<polygon points="92.7448,116.281 90.4816,118.044 89.2581,118.838 86.92,120.085 84.5628,120.925 82.1614,121.398 82.1177,121.4 82.2022,122.883 82.2138,123.555 82.2113,123.669 82.3025,123.619 83.8365,122.968 85.1454,122.558 86.823,122.213 88.2261,122.07 89.9484,122.07 91.3534,122.213 93.0288,122.557 93.6116,122.739 93.1568,119.339 93.1343,119.155 92.8075,116.227 " fill="none" stroke-width="0.5" stroke="rgb(0,0,0)" />
	<polygon points="395.54,104.11 396.254,103.876 396.412,103.817 395.252,103.673 " fill="none" stroke-width="0.5" stroke="rgb(0,0,0)" />
	<polygon points="68.3089,96.3068 68.3801,96.3396 68.39,96.2641 " fill="none" stroke-width="0.5" stroke="rgb(0,0,0)" />
	<polygon points="104.236,63.2412 102.403,64.8102 102.192,64.9855 100.41,66.4135 99.5951,66.9916 98.5686,67.6324 98.7506,68.4876 98.7896,68.765 99.7936,68.1722 101.852,67.4587 104.51,67.2172 104.447,66.462 104.425,66.1062 104.304,63.186 " fill="none" stroke-width="0.5" stroke="rgb(0,0,0)" />
	<polygon points="413.31,64.1669 414.998,65.7518 416.624,67.0577 418.143,67.9801 419.516,68.4966 421.218,68.7114 421.162,68.5232 420.031,67.356 416.779,65.4318 413.001,63.8666 " fill="none" stroke-width="0.5" stroke="rgb(0,0,0)" />
	<polygon points="127.375,67.0343 128.31,66.0701 127.744,65.283 " fill="none" stroke-width="0.5" stroke="rgb(0,0,0)" />
	<polygon points="398.288,38.7159 398.985,40.3887 399.035,40.56 399.208,40.4735 400.246,40.0357 403.218,39.0091 403.775,38.8381 404.626,38.6078 401.957,37.596 398.06,36.4876 396.909,36.1995 " fill="none" stroke-width="0.5" stroke="rgb(0,0,0)" />
</svg>
