<?xml version="1.0" standalone="no" ?>
<!DOCTYPE svg PUBLIC "-//W3C//DTD SVG 1.1//EN" "http://www.w3.org/Graphics/SVG/1.1/DTD/svg11.dtd">
<svg width="500px" height="500px" xmlns="http://www.w3.org/2000/svg" version="1.1" >
	<polygon points="473.673,86.9137 472.85,87.9168 471.513,89.1736 464.479,94.2579 463.198,94.9955 460.552,96.1732 463.974,94.9259 466.015,95.0466 468.5,95.5571 469.755,95.9376 471.851,96.7896 473.148,97.4802 473.673,97.8335 473.673,193.729 473.09,193.93 471.131,193.759 473.135,195.425 473.673,195.942 473.673,281.085 472.853,295.701 471.959,301.344 471.467,301.616 471.839,302.103 470.394,311.226 466.254,327.567 460.411,344.425 452.852,361.505 448.386,369.688 448.076,369.499 448.187,369.864 448.214,370.002 443.564,378.522 432.54,395.193 419.771,411.242 405.248,426.395 395.467,434.798 395.333,434.678 395.349,434.899 388.962,440.386 370.899,452.949 351.038,463.824 329.353,472.751 315.831,476.608 315.201,476.096 314.171,475.068 312.445,472.955 311.658,471.767 310.415,469.408 309.888,468.118 309.135,465.595 308.87,464.241 308.642,461.888 308.269,462.751 307.621,463.932 304.854,468.004 303.312,469.644 303.024,469.867 303.064,469.865 303.883,469.884 304.754,469.953 306.162,470.21 306.831,470.402 308.484,471.114 308.978,471.405 310.544,472.654 310.888,473.019 311.991,474.548 312.214,474.963 312.786,476.37 312.912,476.809 313.035,477.405 305.81,479.466 280.369,483.699 252.986,485.173 226.305,483.782 201.409,479.776 178.284,473.403 156.907,464.905 137.258,454.519 119.326,442.478 103.101,429.015 88.5817,414.365 75.7698,398.767 64.668,382.464 55.2802,365.702 47.6091,348.731 41.6558,331.805 38.6222,319.907 38.7188,319.664 41.9814,313.002 41.8615,313.034 37.8486,312.953 37.0256,312.694 34.8887,299.133 34.0405,283.709 34.0405,151.387 36.9936,147.826 36.8313,147.795 34.2959,147.055 34.0405,146.952 34.0405,37.7309 36.5475,36.1131 36.6422,36.0531 38.5456,34.8666 34.8066,33.9194 34.4139,33.8079 34.0405,33.6902 34.0405,26.671 38.4371,26.6373 49.9288,26.5491 61.4204,26.4609 72.9121,26.3727 84.4038,26.2846 95.8955,26.1964 107.387,26.1082 118.879,26.02 130.37,25.9319 141.862,25.8437 153.354,25.7555 164.846,25.6673 176.337,25.5792 187.829,25.491 203.593,25.37 203.582,31.0495 203.582,31.0495 203.556,43.9483 203.531,56.8471 203.506,69.7459 203.506,69.7459 203.48,82.6447 203.474,85.9321 203.154,85.9271 199.26,85.5307 203.468,88.7974 203.429,108.442 203.429,108.442 203.404,121.341 203.353,147.139 203.353,147.139 203.328,160.037 203.302,172.936 203.302,172.936 203.281,183.773 202.861,184.139 201.728,184.946 199.897,185.999 201.392,186.655 202.562,187.305 203.273,187.792 203.251,198.734 203.226,211.633 203.226,211.633 203.2,224.531 203.201,224.601 203.288,235.895 203.288,235.949 203.453,246.766 203.455,246.863 203.752,257.169 203.758,257.318 204.243,267.08 204.256,267.29 204.984,276.474 205.013,276.759 206.039,285.332 206.094,285.708 207.475,293.637 207.577,294.124 209.367,301.374 209.549,301.991 211.803,308.53 212.113,309.287 214.887,315.082 215.39,315.964 218.739,320.981 219.492,321.925 223.472,326.13 224.487,327.017 229.152,330.377 230.348,331.073 235.754,333.554 236.983,333.988 243.185,335.557 244.309,335.748 251.363,336.372 251.445,335.451 252.14,337.933 252.208,338.263 253.241,336.325 259.663,335.882 260.792,335.713 267.139,334.235 268.398,333.816 273.893,331.398 275.137,330.695 279.843,327.373 280.904,326.456 284.882,322.267 285.665,321.282 288.978,316.263 289.491,315.345 292.2,309.532 292.51,308.752 294.678,302.183 294.853,301.556 296.542,294.266 296.637,293.779 297.908,285.806 297.958,285.435 298.873,276.816 298.897,276.541 299.52,267.312 299.53,267.116 299.922,257.313 299.926,257.181 300.148,246.842 300.149,246.764 300.265,235.924 300.265,235.893 300.335,224.59 300.335,224.531 300.309,211.632 300.283,198.734 300.257,185.835 300.232,172.936 300.232,172.936 300.206,160.037 300.154,134.24 300.154,134.24 300.128,121.341 300.097,105.678 300.768,104.917 302.499,103.324 302.43,103.368 300.715,104.18 300.094,104.378 300.051,82.6445 300.051,82.6445 300.025,69.7457 299.947,31.0493 299.947,31.0493 299.936,25.2689 304.571,25.2391 316.324,25.1636 316.324,25.1636 328.077,25.088 339.83,25.0125 351.584,24.9369 375.09,24.7858 386.569,24.712 386.794,24.918 386.809,24.7104 386.843,24.7102 410.35,24.5591 422.103,24.4835 433.856,24.408 445.61,24.3324 457.363,24.2568 469.116,24.1813 473.673,24.152 " fill="none" stroke-width="0.5" stroke="rgb(0,0,0)" />
	<polygon points="191.817,443.966 192.163,444.986 192.788,447.411 192.826,447.422 194.262,447.738 195.829,447.99 197.344,448.147 198.588,448.196 200.251,448.105 201.817,447.829 203.203,447.375 204.337,446.774 205.233,446.037 205.973,445.078 206.611,443.677 206.917,442.267 202.853,442.571 201.76,442.569 195.541,442.08 194.332,441.879 190.511,440.903 " fill="none" stroke-width="0.5" stroke="rgb(0,0,0)" />
	<polygon points="158.308,437.217 157.294,438.459 153.1,442.559 151.734,443.605 150.667,444.234 152.118,443.923 155.075,442.717 157.268,441.238 158.865,439.52 160.021,437.466 160.778,434.912 160.936,433.135 " fill="none" stroke-width="0.5" stroke="rgb(0,0,0)" />
	<polygon points="325.909,416.823 316.404,419.955 314.892,420.278 314.227,420.346 314.827,421.445 315.321,422.743 315.611,423.701 315.941,425.153 315.998,425.429 316.249,426.773 316.32,427.075 316.35,427.097 317.258,427.75 317.706,428.101 318.573,428.837 319.372,429.632 320.106,430.487 320.716,431.404 320.831,431.277 321.551,430.515 321.808,430.255 322.523,429.571 322.884,429.248 323.593,428.656 324.106,428.266 324.806,427.781 325.541,427.334 326.231,426.97 327.28,426.52 327.873,426.32 327.171,424.986 326.822,423.745 326.554,421.809 326.554,416.528 " fill="none" stroke-width="0.5" stroke="rgb(0,0,0)" />
	<polygon points="378.593,417.615 378.591,417.783 378.591,417.785 379.616,417.508 381.186,417.692 382.692,418.036 384.325,418.601 385.664,419.225 387.275,420.191 388.443,421.065 388.805,421.398 388.798,421.182 388.827,420.708 388.954,419.785 388.888,419.778 387.597,419.518 384.037,418.454 383.027,418.066 379.688,416.487 378.868,416.03 378.593,415.853 " fill="none" stroke-width="0.5" stroke="rgb(0,0,0)" />
	<polygon points="165.761,413.56 165.766,414.602 165.445,419.287 165.303,420.299 165.259,420.502 167.246,419.767 170.78,420.416 170.734,419.089 170.767,418.721 171.042,417.291 171.137,416.972 171.806,415.432 171.963,415.162 173.034,413.756 173.251,413.535 173.714,413.161 172.979,412.857 172.394,412.584 169.758,411.202 169.198,410.876 166.771,409.309 166.21,408.907 165.345,408.222 " fill="none" stroke-width="0.5" stroke="rgb(0,0,0)" />
	<polygon points="258.975,401.841 258.712,403.199 258.436,404.13 257.905,405.436 257.465,406.269 257.144,406.753 257.739,406.985 258.34,407.251 261.2,408.678 261.664,408.932 264.447,410.589 264.835,410.837 267.452,412.633 267.807,412.893 270.171,414.738 270.532,415.04 272.555,416.845 272.975,417.252 272.995,417.273 274.094,417.084 274.392,417.039 275.726,416.866 276.008,416.835 277.391,416.712 277.657,416.693 279.089,416.619 279.295,416.612 277.88,415.971 269.274,410.878 268.065,409.978 260.964,403.423 260.024,402.365 259.052,401.023 " fill="none" stroke-width="0.5" stroke="rgb(0,0,0)" />
	<polygon points="244.685,411.901 244.241,414.736 245.026,411.977 244.686,411.884 " fill="none" stroke-width="0.5" stroke="rgb(0,0,0)" />
	<polygon points="365.676,399.926 365.963,400.005 366.719,400.264 366.763,399.682 " fill="none" stroke-width="0.5" stroke="rgb(0,0,0)" />
	<polygon points="349.689,395.388 349.03,396.489 347.337,398.813 347.559,398.775 348.385,398.68 352.893,398.428 353.549,398.422 355.566,398.494 355.428,398.401 354.076,397.202 353.097,396.083 352.359,395.073 351.502,393.655 351.066,392.811 351.003,392.666 " fill="none" stroke-width="0.5" stroke="rgb(0,0,0)" />
	<polygon points="308.896,393.948 308.362,394.105 305.149,394.914 304.494,395.047 300.786,395.62 300.061,395.694 299.547,395.72 304.349,396.137 307.576,396.003 310.487,395.619 310.784,395.549 310.034,394.505 309.779,393.673 309.777,393.652 " fill="none" stroke-width="0.5" stroke="rgb(0,0,0)" />
	<polygon points="203.218,391.925 203.66,392.91 204.659,395.679 206.323,393.219 207.971,391.493 211.733,388.688 207.146,389.095 205.73,389.08 201.415,388.604 " fill="none" stroke-width="0.5" stroke="rgb(0,0,0)" />
	<polygon points="224.28,386.216 224.306,386.22 224.577,386.273 224.565,386.132 " fill="none" stroke-width="0.5" stroke="rgb(0,0,0)" />
	<polygon points="242.522,374.491 242.179,374.862 242.401,374.975 243.285,375.567 244.459,376.55 245.202,377.321 245.456,377.639 246.196,377.66 247.441,377.785 247.698,377.839 246.906,374.917 246.686,373.685 246.302,369.409 " fill="none" stroke-width="0.5" stroke="rgb(0,0,0)" />
	<polygon points="83.832,366.889 83.5287,366.936 82.6871,367.047 81.8275,367.108 79.514,367.132 79.1989,367.104 80.1409,369.487 80.9699,374.961 81.243,374.678 83.7515,372.444 84.6791,371.744 87.1583,370.172 87.1662,370.168 85.7626,368.973 84.824,368.006 83.9151,366.874 " fill="none" stroke-width="0.5" stroke="rgb(0,0,0)" />
	<polygon points="356.914,370.466 356.748,372.077 357.289,371.858 358.857,371.32 359.416,371.154 360.747,370.816 360.037,370.45 358.832,369.665 357.241,368.384 356.213,367.367 356.122,367.258 " fill="none" stroke-width="0.5" stroke="rgb(0,0,0)" />
	<polygon points="324.48,367.464 323.745,368.629 323.202,369.331 323.464,369.325 326.993,369.095 328.313,368.953 326.561,368.054 325.307,367.235 324.802,366.824 " fill="none" stroke-width="0.5" stroke="rgb(0,0,0)" />
	<polygon points="117.843,354.859 117.229,355.146 117.245,356.458 117.123,357.865 116.711,360.055 116.301,361.445 115.84,362.568 116.356,362.474 120.607,362.089 122.036,362.103 122.319,362.135 121.515,361.444 120.283,360.072 119.616,359.102 118.71,357.266 118.379,356.249 118.072,354.727 " fill="none" stroke-width="0.5" stroke="rgb(0,0,0)" />
	<polygon points="295.621,357.761 294.086,358.454 292.263,359.029 292.385,359.095 294.253,360.481 294.41,360.601 296.506,362.247 296.37,360.802 296.347,359.795 296.399,358.689 296.448,358.127 296.567,357.192 " fill="none" stroke-width="0.5" stroke="rgb(0,0,0)" />
	<polygon points="442.549,356.584 444.611,360.231 444.444,359.269 442.558,356.29 442.057,355.901 " fill="none" stroke-width="0.5" stroke="rgb(0,0,0)" />
	<polygon points="395.047,340.804 394.833,340.983 393.685,341.906 393.056,342.358 392.034,343.011 390.216,343.841 389.381,344.089 386.964,344.287 386.989,344.339 388.118,347.538 388.48,349.111 388.617,350.313 388.682,350.249 393.294,346.385 395.009,345.32 397.911,344.044 396.715,342.603 396.554,342.401 395.212,340.661 " fill="none" stroke-width="0.5" stroke="rgb(0,0,0)" />
	<polygon points="58.4369,342.114 61.6678,347.31 62.0036,347.642 62.1505,346.196 62.6419,343.92 63.1141,342.488 64.0426,340.431 64.497,339.64 62.6282,339.239 61.6636,338.96 59.1949,338.054 57.9836,337.475 57.8622,337.402 " fill="none" stroke-width="0.5" stroke="rgb(0,0,0)" />
	<polygon points="165.044,320.574 164.792,323.414 164.579,324.623 163.829,327.438 163.412,328.594 162.174,331.274 161.53,332.391 159.816,334.828 158.909,335.882 156.728,337.967 155.537,338.887 152.9,340.51 152.552,340.674 153.081,340.943 155.541,342.434 156.395,343.042 158.745,344.988 159.436,345.643 160.613,346.917 160.439,345.384 160.397,344.342 160.455,342.558 160.488,342.07 160.667,340.306 160.746,339.745 161.052,338.067 161.216,337.37 161.655,335.847 161.991,334.924 162.569,333.622 163.285,332.369 164.009,331.355 165.534,329.793 166.41,329.136 169.123,327.88 169.472,327.801 167.135,324.263 166.434,322.905 164.956,319.091 " fill="none" stroke-width="0.5" stroke="rgb(0,0,0)" />
	<polygon points="316.51,343.086 316.456,343.107 316.67,343.252 316.734,342.978 " fill="none" stroke-width="0.5" stroke="rgb(0,0,0)" />
	<polygon points="415.545,332.909 413.758,333.102 413.507,333.125 413.179,333.149 413.354,334.127 413.374,334.239 413.597,335.608 413.636,335.877 413.795,337.146 413.84,337.651 413.9,338.78 413.907,339.366 413.897,339.7 413.863,340.22 413.829,340.555 413.73,341.194 418.109,341.568 419.313,341.775 420.224,342.014 419.377,341.051 417.777,337.935 416.571,332.713 " fill="none" stroke-width="0.5" stroke="rgb(0,0,0)" />
	<polygon points="127.696,337.652 127.676,339.832 128.119,339.616 129.022,339.252 130.04,338.919 129.693,338.668 127.787,336.966 127.608,336.773 " fill="none" stroke-width="0.5" stroke="rgb(0,0,0)" />
	<polygon points="384.704,312.583 383.848,314.429 383.242,316.09 383.048,317.089 382.85,319.252 382.676,322.198 382.488,325.382 382.474,325.583 382.453,325.823 383.098,324.308 384.17,321.581 385.035,318.923 385.588,316.436 385.796,313.942 385.773,312.687 385.667,310.992 385.658,310.919 " fill="none" stroke-width="0.5" stroke="rgb(0,0,0)" />
	<polygon points="122.02,325.063 121.814,325.16 122.154,325.503 122.105,325.012 " fill="none" stroke-width="0.5" stroke="rgb(0,0,0)" />
	<polygon points="74.9377,312.006 74.0224,315.515 73.7217,318.299 73.7505,319.319 73.8732,320.482 74.0957,321.532 74.4509,322.563 74.8661,323.396 74.8754,323.378 75.9797,321.58 76.8138,320.477 78.2315,318.938 79.262,318.017 80.963,316.77 82.1364,316.071 83.5444,315.406 82.8541,315.128 81.26,314.3 80.0939,313.542 78.6649,312.401 77.6434,311.403 76.4348,309.959 75.9386,309.226 " fill="none" stroke-width="0.5" stroke="rgb(0,0,0)" />
	<polygon points="342.734,314.281 341.945,315.083 341.776,315.216 341.863,315.265 346.722,318.578 347.666,319.347 350.941,322.515 351.197,321.933 351.443,321.426 352,320.388 350.333,319.914 349.325,319.544 348.018,318.949 345.113,316.528 344.617,315.815 343.641,313.081 " fill="none" stroke-width="0.5" stroke="rgb(0,0,0)" />
	<polygon points="163.61,297.626 162.34,298.065 160.94,298.396 159.757,298.553 158.226,298.59 157.869,298.56 156.857,298.388 158.318,300.632 158.719,301.332 162.777,309.434 163.059,310.244 162.895,308.966 162.847,307.672 163.015,304.514 163.097,303.755 163.589,300.708 163.748,299.972 164.49,297.244 " fill="none" stroke-width="0.5" stroke="rgb(0,0,0)" />
	<polygon points="132.375,307.085 132.371,308.112 133.971,307.931 134.151,307.948 135.886,308.349 135.129,306.778 131.867,301.312 " fill="none" stroke-width="0.5" stroke="rgb(0,0,0)" />
	<polygon points="310.341,306.225 311.086,306.321 311.741,306.437 312.78,306.671 312.282,304.971 312.276,304.924 " fill="none" stroke-width="0.5" stroke="rgb(0,0,0)" />
	<polygon points="434.085,294.882 433.99,295.012 433.262,295.985 434.972,296.908 435.139,297.001 435.698,297.322 434.817,294.406 434.689,294.036 " fill="none" stroke-width="0.5" stroke="rgb(0,0,0)" />
	<polygon points="459.042,288.863 458.305,289.204 457.362,289.985 456.155,291.443 455.53,292.409 456.441,292.436 459.629,292.95 460.359,293.183 460.309,292.161 460.122,290.883 459.822,289.727 459.475,288.872 459.435,288.808 " fill="none" stroke-width="0.5" stroke="rgb(0,0,0)" />
	<polygon points="88.1626,283.809 88.1018,283.929 85.7471,288.463 85.3783,289.175 86.7059,289.872 87.2275,290.287 87.9211,290.917 88.3051,291.314 88.3334,291.245 88.7722,289.112 89.0846,285.834 89.2349,281.647 " fill="none" stroke-width="0.5" stroke="rgb(0,0,0)" />
	<polygon points="58.1154,281.078 58.5069,281.757 58.7443,282.205 59.0701,282.875 59.3575,283.554 59.6053,284.235 59.6512,284.393 60.0149,282.81 59.9474,282.714 59.7813,282.526 59.2546,282.039 59.2379,282.023 57.9772,280.849 " fill="none" stroke-width="0.5" stroke="rgb(0,0,0)" />
	<polygon points="172.792,280.882 172.958,281.284 173.256,282.162 173.326,282.423 173.876,281.838 172.789,280.875 " fill="none" stroke-width="0.5" stroke="rgb(0,0,0)" />
	<polygon points="428.247,278.937 427.904,279.576 428.959,279.507 428.377,278.279 " fill="none" stroke-width="0.5" stroke="rgb(0,0,0)" />
	<polygon points="339.785,274.982 339.703,275.307 339.827,275.361 339.882,275.376 339.88,275.349 339.864,275.048 339.859,274.902 " fill="none" stroke-width="0.5" stroke="rgb(0,0,0)" />
	<polygon points="421.264,267.302 421.557,267.381 421.34,267.129 " fill="none" stroke-width="0.5" stroke="rgb(0,0,0)" />
	<polygon points="157.508,226.273 156.509,228.012 156.04,228.975 157.29,230.487 157.922,233.742 157.862,235.169 157.841,235.488 157.682,237.31 157.667,237.46 157.442,239.531 157.435,239.601 157.177,241.777 157.175,241.793 156.92,243.91 156.704,245.78 156.567,247.176 156.531,247.855 156.54,248.147 157.826,248.908 159.573,251.923 160.038,253.547 160.173,254.102 160.538,255.913 160.599,256.258 160.891,258.186 160.917,258.379 161.162,260.356 161.169,260.422 161.39,262.352 161.603,264.09 161.688,264.649 162.414,264.89 163.813,266.621 163.545,265.448 163.643,261.879 164.784,257.905 166.148,255.32 169.158,251.685 169.377,251.468 166.234,252.117 162.684,250.915 160.23,248.081 159.679,243.494 159.918,242.37 160.123,241.307 160.303,240.25 160.456,239.196 160.578,238.148 160.669,237.103 160.725,236.062 160.742,235.129 160.648,233.225 160.365,231.437 159.851,229.643 159.053,227.797 157.892,225.855 157.813,225.755 " fill="none" stroke-width="0.5" stroke="rgb(0,0,0)" />
	<polygon points="406.2,256.651 406.514,257.087 406.905,256.772 406.751,256.713 406.109,256.533 " fill="none" stroke-width="0.5" stroke="rgb(0,0,0)" />
	<polygon points="448.924,255.441 449.369,254.652 449.434,254.54 449.447,254.518 448.296,253.878 " fill="none" stroke-width="0.5" stroke="rgb(0,0,0)" />
	<polygon points="129.294,242.387 129.265,243.698 130.615,253.373 131.299,255.188 131.658,252.774 132.68,251.653 132.344,250.262 131.703,248.188 130.893,245.753 130.876,245.702 130.04,243.127 129.965,242.88 129.393,240.872 " fill="none" stroke-width="0.5" stroke="rgb(0,0,0)" />
	<polygon points="382.376,246.323 381.567,247.528 380.742,248.521 379.71,249.535 378.705,250.339 377.618,251.045 378.461,252.078 378.753,252.461 379.931,251.35 380.725,250.703 381.851,249.911 383.977,248.892 385.016,248.591 385.828,248.511 385.184,248.058 383.286,246.076 382.861,245.413 " fill="none" stroke-width="0.5" stroke="rgb(0,0,0)" />
	<polygon points="359.107,248.125 360.343,248.573 360.299,248.53 359.654,247.756 " fill="none" stroke-width="0.5" stroke="rgb(0,0,0)" />
	<polygon points="324.674,236.691 326.411,238.656 328.696,242.47 328.824,242.827 330.039,242.22 331.208,241.77 331.71,241.622 331.004,240.324 330.459,239.035 329.754,236.774 329.479,235.428 329.011,235.524 327.606,235.666 326.16,235.666 324.765,235.523 323.354,235.234 322.435,234.946 " fill="none" stroke-width="0.5" stroke="rgb(0,0,0)" />
	<polygon points="464.564,223.441 464.54,223.577 463.994,226.578 463.991,226.595 463.455,229.503 463.011,232.137 462.789,233.835 463.379,232.755 464.474,230.059 465.182,227.329 465.419,224.776 464.982,220.855 " fill="none" stroke-width="0.5" stroke="rgb(0,0,0)" />
	<polygon points="312.457,225.836 310.599,226.424 309.18,226.719 309.159,226.721 309.395,227.45 310.396,228.577 312.589,229.881 316.061,231.389 316.325,231.51 317.489,232.073 317.416,232.013 316.459,231.054 315.605,230.02 314.84,228.887 314.194,227.701 313.649,226.413 313.35,225.455 " fill="none" stroke-width="0.5" stroke="rgb(0,0,0)" />
	<polygon points="85.9981,213.51 87.1273,214.631 87.5901,215.213 88.3449,216.378 88.7012,217.066 89.1457,218.125 89.3976,218.893 89.6379,219.84 89.7874,220.661 89.891,221.527 89.9404,222.374 89.9375,222.467 90.2314,222.278 90.9682,221.913 92.9536,221.271 93.6826,221.149 95.8629,221.12 96.5067,221.211 98.4259,221.763 99.0376,222.036 100.275,222.797 100.449,220.457 100.607,219.401 101.449,215.701 101.7,214.877 100.914,215.06 97.916,215.39 96.3404,215.388 93.1512,215.032 91.5475,214.663 88.6833,213.643 87.2203,212.926 86.6921,212.587 " fill="none" stroke-width="0.5" stroke="rgb(0,0,0)" />
	<polygon points="438.297,212.647 437.744,212.804 432.623,214.034 431.975,214.159 425.953,215.029 425.776,215.046 426.169,215.237 427.608,216.164 431.301,219.228 432.413,220.385 433.779,222.17 434.378,220.778 435.063,219.54 437.585,215.886 438.265,215.046 441.249,211.877 441.57,211.576 " fill="none" stroke-width="0.5" stroke="rgb(0,0,0)" />
	<polygon points="131.748,219.812 132.511,220.449 132.704,220.988 133.109,219.381 " fill="none" stroke-width="0.5" stroke="rgb(0,0,0)" />
	<polygon points="64.8262,216.497 65.6085,217.013 66.1254,217.48 67.335,218.904 67.7348,219.524 68.2127,220.458 70.2032,217.072 68.3026,216.574 67.0738,216.129 65.5669,215.421 " fill="none" stroke-width="0.5" stroke="rgb(0,0,0)" />
	<polygon points="188.455,212.908 189.427,214.361 190.635,216.762 190.99,217.72 191.664,217.16 194.312,216.725 194.17,216.213 193.682,215.282 193.06,214.566 192.127,213.886 190.681,213.219 188.609,212.646 188.176,212.584 " fill="none" stroke-width="0.5" stroke="rgb(0,0,0)" />
	<polygon points="381.334,201.626 380.652,202.873 379.887,204.003 378.985,205.092 378.949,205.128 380.059,206.042 381.025,207.008 381.054,207.043 381.139,206.629 383.649,203.845 385.017,203.411 382.299,201.195 381.757,200.632 " fill="none" stroke-width="0.5" stroke="rgb(0,0,0)" />
	<polygon points="365.928,170.213 364.789,170.98 364.653,171.054 365.676,172.922 366.225,174.21 366.883,176.303 367.175,177.718 367.404,179.957 367.404,180.921 367.555,180.906 369.017,180.905 369.644,180.969 366.891,172.165 366.679,171.298 366.412,169.815 " fill="none" stroke-width="0.5" stroke="rgb(0,0,0)" />
	<polygon points="146.496,175.348 145.548,175.599 144.091,175.879 147.109,178.765 147.188,178.85 147.348,178.174 148.307,175.178 148.559,174.647 " fill="none" stroke-width="0.5" stroke="rgb(0,0,0)" />
	<polygon points="108.636,162.737 107.678,163.696 106.643,164.552 105.51,165.319 104.324,165.966 103.035,166.513 101.726,166.922 100.317,167.211 99.8067,167.263 100.307,167.521 101.051,167.963 104.312,170.178 105.045,170.749 108.044,173.416 108.775,174.169 111.364,177.262 112.062,178.258 112.087,178.299 112.221,177.982 113.263,176.063 114.267,174.655 115.653,173.137 117.058,171.964 116.127,171.286 113.234,168.641 112.239,167.519 110.017,164.408 109.326,163.21 108.942,162.366 " fill="none" stroke-width="0.5" stroke="rgb(0,0,0)" />
	<polygon points="310.21,170.623 309.888,171.124 310.144,171.124 311.551,171.267 312.956,171.554 313.002,171.568 313.098,171.259 313.177,171.072 312.341,170.901 311.85,170.783 310.336,170.362 " fill="none" stroke-width="0.5" stroke="rgb(0,0,0)" />
	<polygon points="162.879,166.611 163.401,166.713 163.249,166.313 " fill="none" stroke-width="0.5" stroke="rgb(0,0,0)" />
	<polygon points="423.59,143.251 422.268,144.832 419.526,147.284 418.295,148.169 414.68,150.226 414.672,150.229 417.182,150.455 418.568,150.719 424.987,152.617 426.307,153.155 431.993,156.166 433.044,156.846 433.531,157.226 433.346,156.767 431.5,150.329 431.454,147.05 431.307,147.012 430.247,146.642 428.568,145.904 427.3,145.184 425.94,144.217 424.604,142.982 424.115,142.398 " fill="none" stroke-width="0.5" stroke="rgb(0,0,0)" />
	<polygon points="355.534,138.041 355.511,139.078 354.885,145.679 354.877,145.716 355.61,145.568 356.951,145.433 358.383,145.433 359.723,145.568 361.124,145.852 362.372,146.239 363.663,146.783 364.792,147.396 365.932,148.164 366.916,148.976 366.923,148.983 367.057,148.82 367.115,148.766 367.568,148.458 364.908,146.899 363.816,146.112 358.479,141.443 357.615,140.542 355.53,137.948 " fill="none" stroke-width="0.5" stroke="rgb(0,0,0)" />
	<polygon points="129.458,136.116 129.13,136.406 126.234,137.84 126.281,137.939 126.812,139.528 127.29,141.821 127.346,142.118 127.684,144.168 128.191,143.008 128.478,142.137 128.787,141.065 129.051,140.002 129.267,138.96 129.436,137.95 129.554,136.986 129.624,136.083 129.626,135.991 " fill="none" stroke-width="0.5" stroke="rgb(0,0,0)" />
	<polygon points="105.508,141.182 106.64,141.948 106.849,142.12 107.064,141.289 104.628,140.7 104.511,140.638 " fill="none" stroke-width="0.5" stroke="rgb(0,0,0)" />
	<polygon points="102.987,139.974 103.034,139.989 104.289,140.521 103.013,139.849 " fill="none" stroke-width="0.5" stroke="rgb(0,0,0)" />
	<polygon points="313.779,124.921 312.634,125.455 311.646,126.135 310.831,126.916 310.217,127.729 309.825,128.478 309.43,129.724 308.306,131.471 308.924,131.801 309.846,132.174 310.747,132.425 311.695,132.577 312.819,132.634 313.099,132.625 313.57,132.589 314.144,132.526 314.793,132.442 315.476,132.35 315.535,132.342 316.189,132.259 316.379,132.238 316.722,132.204 316.497,131.897 315.923,130.97 315.738,130.615 315.326,129.655 315.197,129.281 314.939,128.325 314.863,127.939 314.743,127.012 314.718,126.619 314.742,125.428 314.82,124.685 314.829,124.638 " fill="none" stroke-width="0.5" stroke="rgb(0,0,0)" />
	<polygon points="92.3864,114.815 91.9152,115.216 89.652,116.979 88.6228,117.647 86.2847,118.894 84.3019,119.6 81.9006,120.073 80.693,120.126 80.8544,122.96 80.8641,123.525 80.8324,124.952 80.8188,125.261 80.7618,126.13 81.7634,125.451 82.9495,124.804 84.2398,124.256 85.5487,123.846 86.9598,123.556 88.3629,123.414 89.8117,123.413 91.2168,123.556 92.626,123.845 93.9369,124.255 95.226,124.802 95.2513,124.815 94.4949,119.16 94.4759,119.005 93.8559,113.45 " fill="none" stroke-width="0.5" stroke="rgb(0,0,0)" />
	<polygon points="185.292,109.741 185.211,110.531 185.079,111.357 184.849,112.341 184.619,113.085 184.13,114.276 183.793,114.922 182.901,116.247 182.45,116.778 181.087,118.016 180.513,118.416 178.833,119.281 178.128,119.533 176.461,119.911 175.617,119.999 174.03,119.873 174.104,119.995 174.662,121.131 176.349,125.513 176.471,125.924 176.852,125.624 179.852,123.537 180.727,123.017 183.847,121.451 184.964,121.003 188.186,120.019 189.54,119.744 192.845,119.402 193.463,119.405 193.027,118.975 192.592,118.506 188.348,113.493 188.115,113.202 185.303,109.507 " fill="none" stroke-width="0.5" stroke="rgb(0,0,0)" />
	<polygon points="124.795,112.308 123.425,117.789 125.912,114.867 126.734,114.047 127.422,113.463 126.729,112.837 125.227,111.214 125.129,111.101 " fill="none" stroke-width="0.5" stroke="rgb(0,0,0)" />
	<polygon points="413.998,104.839 416.141,106.805 417.082,107.858 417.12,107.909 417.168,104.957 417.789,103.937 416.319,103.922 416.179,103.92 412.847,103.822 412.71,103.816 412.258,103.794 " fill="none" stroke-width="0.5" stroke="rgb(0,0,0)" />
	<polygon points="392.292,102.286 393.337,103.404 394.08,104.348 394.925,105.631 394.961,105.685 395.343,105.595 396.703,105.15 398.314,104.543 400.024,103.881 400.207,103.813 401.857,103.225 402.229,103.108 402.129,103.099 398.703,102.739 398.57,102.724 395.143,102.299 395.009,102.281 391.678,101.804 " fill="none" stroke-width="0.5" stroke="rgb(0,0,0)" />
	<polygon points="146.136,102.017 145.574,105.159 149.365,104.881 150.416,104.902 149.428,104.058 146.234,101.489 " fill="none" stroke-width="0.5" stroke="rgb(0,0,0)" />
	<polygon points="307.494,99.6586 307.269,99.8458 306.076,100.8 307.631,99.9019 309.077,99.268 309.664,99.085 309.581,98.6444 309.515,98.2233 309.479,97.9343 " fill="none" stroke-width="0.5" stroke="rgb(0,0,0)" />
	<polygon points="381.332,99.1044 381.489,99.0796 381.932,99.0237 382.478,98.972 382.925,98.9439 383.457,98.9271 384.763,99.0055 386.052,99.2023 385.934,99.1036 385.769,98.923 384.641,97.2777 384.533,97.0601 384.434,96.7832 " fill="none" stroke-width="0.5" stroke="rgb(0,0,0)" />
	<polygon points="65.664,96.1732 65.2686,96.3914 68.449,97.858 69.459,98.5083 69.6775,96.8276 69.6789,96.8173 69.9611,94.671 70.0573,93.861 " fill="none" stroke-width="0.5" stroke="rgb(0,0,0)" />
	<polygon points="459.646,96.5766 459.991,96.7677 460.442,96.2221 " fill="none" stroke-width="0.5" stroke="rgb(0,0,0)" />
	<polygon points="126.661,63.8745 125.932,67.3367 125.834,67.7421 124.987,70.8492 124.549,71.9678 126.242,73.0648 126.409,72.1543 126.683,71.1097 126.945,70.3517 127.731,68.7531 128.1,68.1916 129.959,66.2745 130.07,66.196 129.901,65.9706 128.175,63.569 127.083,62.1229 " fill="none" stroke-width="0.5" stroke="rgb(0,0,0)" />
	<polygon points="105.089,60.8057 103.371,62.2049 101.525,63.7847 101.347,63.9322 99.5659,65.3601 98.8802,65.8465 97.2623,66.8564 96.9914,66.9744 97.016,67.0369 97.2054,67.6962 97.4137,68.6754 97.5214,69.4419 97.5854,70.1566 97.6196,71.0265 97.6193,71.0465 97.7937,70.8896 100.236,69.4477 102.294,68.7342 105.971,68.482 105.792,66.3495 105.774,66.0502 105.631,62.6191 105.435,60.5674 " fill="none" stroke-width="0.5" stroke="rgb(0,0,0)" />
	<polygon points="401.128,59.1264 401.125,60.242 402.356,60.0127 402.619,59.9882 405.892,60.4515 407.002,60.8869 408.965,62.0482 410.344,63.196 410.753,63.564 412.377,65.1431 414.112,66.7717 415.848,68.1657 417.55,69.1994 419.189,69.8161 421.191,70.0687 421.338,70.0619 421.874,69.9805 422.31,69.8529 422.53,69.744 422.553,69.7255 422.556,69.7206 422.679,69.3863 422.719,69.0123 422.36,67.8197 420.875,66.2865 417.384,64.2212 412.643,62.2569 407.514,60.5565 402.836,59.1192 402.5,59.0068 401.071,58.4888 " fill="none" stroke-width="0.5" stroke="rgb(0,0,0)" />
	<polygon points="163.316,47.4075 163.182,47.7499 162.494,48.9782 164.539,49.6735 164.736,49.7433 166.507,50.4035 165.624,49.5137 163.353,47.2567 " fill="none" stroke-width="0.5" stroke="rgb(0,0,0)" />
	<polygon points="397.104,39.3647 397.69,40.7718 398.199,42.4905 399.813,41.68 400.687,41.3117 403.659,40.2851 404.127,40.1413 407.788,39.1511 408.121,39.0696 408.608,38.9627 406.672,37.9397 402.381,36.3133 398.409,35.1832 395.042,34.3406 394.508,34.1847 394.211,34.0852 " fill="none" stroke-width="0.5" stroke="rgb(0,0,0)" />
	<polygon points="70.4363,40.6146 70.8032,40.6529 70.8619,40.3483 " fill="none" stroke-width="0.5" stroke="rgb(0,0,0)" />
	<polygon points="153.468,29.0408 152.499,29.7224 151.398,30.3587 150.913,30.584 152.676,31.6853 153.361,32.0993 153.543,28.9501 " fill="none" stroke-width="0.5" stroke="rgb(0,0,0)" />
	<polygon points="82.5093,28.5363 81.7875,30.4777 83.7966,29.7336 83.9504,29.6712 82.5612,28.2699 " fill="none" stroke-width="0.5" stroke="rgb(0,0,0)" />
</svg>
