<?xml version="1.0" standalone="no" ?>
<!DOCTYPE svg PUBLIC "-//W3C//DTD SVG 1.1//EN" "http://www.w3.org/Graphics/SVG/1.1/DTD/svg11.dtd">
<svg width="500px" height="500px" xmlns="http://www.w3.org/2000/svg" version="1.1" >
	<polygon points="468.573,280.942 467.775,295.158 465.393,310.199 461.363,326.103 455.662,342.554 448.274,359.248 439.191,375.889 428.41,392.194 415.926,407.883 401.737,422.688 385.837,436.347 368.211,448.606 348.836,459.215 327.678,467.925 304.688,474.482 279.812,478.621 252.982,480.066 226.844,478.703 202.495,474.785 179.908,468.561 159.047,460.268 139.879,450.136 122.383,438.388 106.548,425.248 92.3716,410.944 79.8562,395.707 69.0089,379.778 59.8371,363.401 52.3471,346.831 46.5418,330.326 42.4189,314.156 39.9668,298.595 39.1405,283.569 39.1405,31.732 49.9679,31.649 61.4596,31.5608 72.9512,31.4726 84.4429,31.3844 95.9346,31.2962 107.426,31.2081 130.41,31.0317 141.901,30.9435 153.393,30.8554 164.885,30.7672 176.376,30.679 187.868,30.5908 198.483,30.5094 198.482,31.0395 198.482,31.0395 198.456,43.9383 198.431,56.8371 198.406,69.7359 198.406,69.7359 198.38,82.6347 198.329,108.432 198.329,108.432 198.304,121.331 198.253,147.129 198.253,147.129 198.228,160.027 198.202,172.926 198.202,172.926 198.177,185.825 198.151,198.724 198.126,211.623 198.126,211.623 198.1,224.521 198.101,224.64 198.188,235.935 198.189,236.026 198.353,246.843 198.357,247.01 198.654,257.316 198.664,257.571 199.149,267.333 199.172,267.693 199.9,276.877 199.949,277.366 200.975,285.939 201.07,286.583 202.45,294.512 202.626,295.346 204.415,302.596 204.727,303.653 206.981,310.192 207.513,311.489 210.287,317.284 211.148,318.796 214.497,323.812 215.788,325.431 219.768,329.636 221.506,331.156 226.171,334.515 228.22,335.708 233.627,338.19 235.732,338.932 241.934,340.501 243.859,340.828 250.914,341.452 251.947,329.779 252.753,341.471 260.014,340.97 261.949,340.68 268.296,339.202 270.452,338.484 275.947,336.066 278.078,334.861 282.784,331.539 284.601,329.968 288.58,325.779 289.921,324.091 293.234,319.072 294.113,317.499 296.823,311.687 297.353,310.35 299.521,303.781 299.822,302.707 301.51,295.417 301.673,294.582 302.945,286.609 303.029,285.974 303.945,277.355 303.986,276.885 304.608,267.655 304.626,267.319 305.018,257.516 305.025,257.291 305.247,246.951 305.249,246.818 305.364,235.978 305.365,235.924 305.435,224.621 305.435,224.521 305.409,211.622 305.383,198.723 305.357,185.825 305.332,172.926 305.332,172.926 305.306,160.027 305.254,134.229 305.254,134.229 305.228,121.331 305.151,82.6343 305.151,82.6343 305.125,69.7355 305.047,31.0391 305.047,31.0391 305.046,30.3362 316.357,30.2635 316.357,30.2635 328.11,30.1879 339.863,30.1124 351.616,30.0368 363.37,29.9612 375.123,29.8857 386.876,29.8101 410.383,29.659 422.136,29.5834 433.889,29.5079 445.642,29.4323 457.396,29.3567 468.573,29.2849 " fill="none" stroke-width="0.5" stroke="rgb(0,0,0)" />
	<polygon points="320.875,423.851 320.914,424.021 320.944,424.164 321.007,424.213 321.012,424.217 321.202,424.073 321.718,423.716 321.699,423.58 " fill="none" stroke-width="0.5" stroke="rgb(0,0,0)" />
</svg>
