<?xml version="1.0" standalone="no" ?>
<!DOCTYPE svg PUBLIC "-//W3C//DTD SVG 1.1//EN" "http://www.w3.org/Graphics/SVG/1.1/DTD/svg11.dtd">
<svg width="500px" height="500px" xmlns="http://www.w3.org/2000/svg" version="1.1" >
	<polygon points="471.573,91.7211 469.056,93.5405 470.546,93.9923 471.573,94.4098 471.573,281.026 470.762,295.477 468.335,310.803 464.24,326.964 458.455,343.655 450.967,360.576 441.763,377.438 430.839,393.958 418.188,409.859 403.803,424.869 387.675,438.723 369.792,451.161 350.131,461.926 328.663,470.764 305.348,477.414 280.14,481.608 252.985,483.07 226.527,481.69 201.856,477.721 178.953,471.409 157.788,462.996 138.337,452.714 120.585,440.794 104.52,427.464 90.1423,412.956 77.4524,397.507 66.4554,381.358 57.1565,364.754 49.56,347.948 43.6677,331.196 39.4772,314.761 36.9797,298.911 36.1405,283.652 36.1405,28.755 38.4532,28.7372 49.9449,28.649 61.4365,28.5609 72.9282,28.4727 84.4199,28.3845 95.9116,28.2963 95.9116,28.2963 107.403,28.2082 118.895,28.12 130.387,28.0318 141.878,27.9436 153.37,27.8555 164.862,27.7673 187.845,27.5909 201.489,27.4862 201.482,31.0454 201.482,31.0454 201.456,43.9442 201.431,56.843 201.406,69.7418 201.406,69.7418 201.38,82.6406 201.329,108.438 201.329,108.438 201.304,121.337 201.253,147.135 201.253,147.135 201.228,160.033 201.202,172.932 201.202,172.932 201.177,185.831 201.151,198.73 201.126,211.629 201.1,224.527 201.101,224.617 201.188,235.912 201.189,235.981 201.353,246.798 201.356,246.924 201.653,257.23 201.66,257.422 202.145,267.184 202.163,267.456 202.891,276.64 202.927,277.009 203.954,285.582 204.026,286.069 205.406,293.997 205.538,294.627 207.328,301.877 207.563,302.675 209.818,309.214 210.219,310.194 212.993,315.988 213.643,317.13 216.992,322.147 217.967,323.369 221.947,327.574 223.259,328.721 227.925,332.081 229.472,332.982 234.878,335.463 236.467,336.023 242.67,337.593 244.124,337.84 251.178,338.464 251.85,330.877 252.051,331.295 252.547,338.478 259.808,337.977 261.269,337.758 267.616,336.28 269.244,335.738 274.739,333.32 276.348,332.41 281.054,329.088 282.426,327.902 286.405,323.713 287.418,322.438 290.73,317.42 291.394,316.232 294.104,310.419 294.504,309.41 296.672,302.841 296.899,302.03 298.588,294.74 298.711,294.109 299.982,286.136 300.046,285.657 300.962,277.038 300.993,276.683 301.615,267.453 301.629,267.2 302.02,257.397 302.025,257.226 302.248,246.887 302.249,246.786 302.365,235.947 302.365,235.906 302.435,224.603 302.435,224.527 302.409,211.628 302.383,198.729 302.357,185.831 302.332,172.932 302.332,172.932 302.306,160.033 302.254,134.235 302.254,134.235 302.228,121.337 302.151,82.6403 302.151,82.6403 302.125,69.7415 302.047,31.0451 302.047,31.0451 302.04,27.3555 304.584,27.3391 316.337,27.2635 328.091,27.188 339.844,27.1124 351.597,27.0369 363.35,26.9613 375.104,26.8857 386.857,26.8102 410.363,26.659 422.117,26.5835 433.87,26.5079 445.623,26.4324 457.376,26.3568 469.13,26.2812 471.573,26.2655 " fill="none" stroke-width="0.5" stroke="rgb(0,0,0)" />
	<polygon points="307.18,468.318 307.412,468.384 307.83,468.564 307.58,467.728 " fill="none" stroke-width="0.5" stroke="rgb(0,0,0)" />
	<polygon points="194.197,444.461 194.5,445.64 194.655,445.674 196.104,445.907 197.494,446.051 198.572,446.094 200.011,446.015 201.306,445.787 202.379,445.436 203.166,445.018 203.653,444.617 203.009,444.665 201.595,444.663 195.377,444.174 194.023,443.949 " fill="none" stroke-width="0.5" stroke="rgb(0,0,0)" />
	<polygon points="317.243,421.89 317.284,421.995 317.659,423.235 317.989,424.687 318.063,425.044 318.213,425.85 318.485,426.046 319.065,426.5 319.932,427.236 320.91,428.208 321.071,428.054 321.538,427.636 322.247,427.044 322.91,426.539 323.61,426.054 324.562,425.477 325.054,425.217 324.8,424.314 324.454,421.809 324.454,419.513 " fill="none" stroke-width="0.5" stroke="rgb(0,0,0)" />
	<polygon points="167.854,413.397 167.861,414.746 167.646,417.889 168.81,417.831 169.03,416.686 169.126,416.367 169.991,414.376 170.148,414.105 170.327,413.871 168.783,413.062 168.059,412.64 167.782,412.461 " fill="none" stroke-width="0.5" stroke="rgb(0,0,0)" />
	<polygon points="260.033,405.749 260.806,406.135 260.13,405.511 " fill="none" stroke-width="0.5" stroke="rgb(0,0,0)" />
	<polygon points="205.252,391.343 205.427,391.159 205.156,391.129 " fill="none" stroke-width="0.5" stroke="rgb(0,0,0)" />
	<polygon points="82.9619,369.129 82.2186,369.181 82.4629,370.794 83.5547,369.97 83.7172,369.867 83.1865,369.321 83.0253,369.12 " fill="none" stroke-width="0.5" stroke="rgb(0,0,0)" />
	<polygon points="389.978,346.102 389.842,346.113 389.958,346.441 390.572,345.926 " fill="none" stroke-width="0.5" stroke="rgb(0,0,0)" />
	<polygon points="60.4653,341.399 60.9939,342.249 61.2002,341.623 61.4464,341.078 60.9398,340.932 60.3834,340.727 " fill="none" stroke-width="0.5" stroke="rgb(0,0,0)" />
	<polygon points="158.179,339.485 156.658,340.659 157.735,341.425 158.391,341.968 158.398,341.858 158.577,340.094 158.68,339.368 158.76,338.929 " fill="none" stroke-width="0.5" stroke="rgb(0,0,0)" />
	<polygon points="416.004,339.28 416.187,339.296 416,338.932 " fill="none" stroke-width="0.5" stroke="rgb(0,0,0)" />
	<polygon points="166.117,327.009 166.358,326.897 166.207,326.668 " fill="none" stroke-width="0.5" stroke="rgb(0,0,0)" />
	<polygon points="76.0936,315.895 75.8249,318.383 75.8268,318.449 76.687,317.515 78.0202,316.324 79.2035,315.456 78.7837,315.183 77.3546,314.042 76.7347,313.436 " fill="none" stroke-width="0.5" stroke="rgb(0,0,0)" />
	<polygon points="161.215,300.478 160.676,300.55 161.289,301.774 161.51,300.409 " fill="none" stroke-width="0.5" stroke="rgb(0,0,0)" />
	<polygon points="162.057,252.969 162.232,253.687 162.597,255.498 162.676,255.944 162.858,257.15 164.531,253.981 164.71,253.765 162.541,253.257 162.013,252.815 " fill="none" stroke-width="0.5" stroke="rgb(0,0,0)" />
	<polygon points="91.1412,217.471 91.393,218.239 91.7039,219.464 91.7088,219.491 92.606,219.2 93.3349,219.078 96.1557,219.041 96.7994,219.131 98.4588,219.608 98.5597,218.936 98.9104,217.393 98.1457,217.477 96.1074,217.475 92.9181,217.119 90.8434,216.641 90.7842,216.62 " fill="none" stroke-width="0.5" stroke="rgb(0,0,0)" />
	<polygon points="433.113,216.076 432.275,216.237 431.176,216.396 432.642,217.612 433.34,218.338 435.258,215.561 " fill="none" stroke-width="0.5" stroke="rgb(0,0,0)" />
	<polygon points="107.981,166.17 106.516,167.162 105.33,167.809 104.857,168.01 105.492,168.441 106.441,169.18 109.439,171.846 110.386,172.821 111.805,174.517 112.717,173.238 113.825,172.026 111.817,170.191 110.53,168.74 108.43,165.799 " fill="none" stroke-width="0.5" stroke="rgb(0,0,0)" />
	<polygon points="423.668,146.397 420.926,148.849 420.554,149.117 425.583,150.603 427.29,151.299 430.006,152.737 429.482,150.908 429.372,148.552 427.723,147.827 426.082,146.895 424.723,145.928 424.349,145.582 " fill="none" stroke-width="0.5" stroke="rgb(0,0,0)" />
	<polygon points="357.216,143.343 357.462,143.343 357.235,143.145 " fill="none" stroke-width="0.5" stroke="rgb(0,0,0)" />
	<polygon points="312.406,128.316 311.997,128.857 311.771,129.289 311.432,130.358 311.405,130.404 311.915,130.485 312.84,130.532 312.986,130.528 313.374,130.498 313.407,130.494 313.341,130.34 313.212,129.967 312.878,128.73 312.802,128.344 312.755,127.981 " fill="none" stroke-width="0.5" stroke="rgb(0,0,0)" />
	<polygon points="185.992,115.246 185.656,115.892 184.501,117.607 184.051,118.138 182.287,119.74 181.713,120.139 179.539,121.259 178.834,121.511 177.201,121.881 177.487,122.624 178.653,121.813 179.785,121.141 182.905,119.574 184.35,118.995 187.572,118.01 189.15,117.691 186.746,114.85 186.443,114.474 186.357,114.36 " fill="none" stroke-width="0.5" stroke="rgb(0,0,0)" />
	<polygon points="90.9425,118.635 89.611,119.5 87.2729,120.747 84.7077,121.661 82.904,122.016 82.9338,122.54 83.6124,122.252 84.9213,121.842 86.7469,121.467 88.15,121.324 90.0243,121.324 91.4294,121.467 92.7202,121.732 92.4135,119.438 92.3889,119.238 92.2113,117.647 " fill="none" stroke-width="0.5" stroke="rgb(0,0,0)" />
	<polygon points="102.891,65.38 102.661,65.5707 100.879,66.9987 100.87,67.0051 101.606,66.7501 103.701,66.5384 103.7,66.5244 103.676,66.1373 103.618,64.7573 " fill="none" stroke-width="0.5" stroke="rgb(0,0,0)" />
	<polygon points="398.946,38.3555 399.448,39.5603 400.002,39.3268 402.306,38.5307 401.721,38.3086 398.403,37.3649 " fill="none" stroke-width="0.5" stroke="rgb(0,0,0)" />
</svg>
