<?xml version="1.0" standalone="no" ?>
<!DOCTYPE svg PUBLIC "-//W3C//DTD SVG 1.1//EN" "http://www.w3.org/Graphics/SVG/1.1/DTD/svg11.dtd">
<svg width="500px" height="500px" xmlns="http://www.w3.org/2000/svg" version="1.1" >
	<polygon points="473.523,87.3327 472.965,88.012 471.601,89.2951 464.567,94.3795 463.847,94.7939 466.045,94.8997 468.531,95.4102 469.812,95.7986 471.907,96.6507 473.232,97.3558 473.523,97.5518 473.523,193.944 473.14,194.077 471.59,193.946 473.231,195.31 473.523,195.59 473.523,281.081 472.703,295.685 471.764,301.62 471.69,301.661 471.746,301.734 470.247,311.196 466.11,327.524 460.271,344.37 452.717,361.439 443.436,378.445 432.418,395.105 419.658,411.143 405.145,426.286 388.87,440.267 370.82,452.821 350.973,463.689 329.304,472.609 315.513,476.542 315.107,476.212 314.055,475.163 312.329,473.05 311.526,471.837 310.282,469.478 309.744,468.161 308.992,465.638 308.721,464.256 308.549,462.482 308.407,462.81 307.745,464.016 304.978,468.089 303.44,469.724 303.895,469.734 304.766,469.804 306.204,470.066 306.873,470.258 308.56,470.985 309.054,471.276 310.653,472.551 310.997,472.916 312.123,474.477 312.346,474.892 312.93,476.328 313.056,476.767 313.149,477.217 305.777,479.319 280.353,483.549 252.986,485.023 226.32,483.632 201.441,479.629 178.332,473.261 156.97,464.769 137.336,454.39 119.415,442.357 103.202,428.904 88.6932,414.264 75.89,398.677 64.7957,382.385 55.4142,365.634 47.7484,348.675 41.7995,331.762 38.6591,319.445 41.7293,313.176 37.8036,313.096 37.2114,312.909 35.0381,299.117 34.1905,283.705 34.1905,150.972 36.7215,147.919 34.2538,147.199 34.1905,147.173 34.1905,37.4556 36.4662,35.9871 36.5628,35.9258 38.1675,34.9256 34.7697,34.0648 34.3689,33.9509 34.1905,33.8948 34.1905,26.8199 38.4382,26.7873 49.9299,26.6991 61.4216,26.6109 72.9133,26.5227 84.4049,26.4346 95.8966,26.3464 95.8966,26.3464 107.388,26.2582 118.88,26.17 130.372,26.0819 153.355,25.9055 164.847,25.8173 176.338,25.7292 187.83,25.641 203.443,25.5212 203.432,31.0492 203.432,31.0492 203.406,43.948 203.381,56.8468 203.356,69.7456 203.33,82.6444 203.323,86.0792 203.139,86.0763 199.765,85.7329 203.319,88.4915 203.279,108.442 203.254,121.341 203.203,147.138 203.178,160.037 203.152,172.936 203.13,184.103 202.96,184.252 201.803,185.076 200.229,185.981 201.452,186.517 202.647,187.181 203.123,187.508 203.101,198.734 203.076,211.632 203.05,224.531 203.051,224.602 203.138,235.896 203.138,235.951 203.303,246.768 203.305,246.867 203.602,257.174 203.608,257.325 204.093,267.087 204.107,267.302 204.835,276.486 204.864,276.777 205.89,285.35 205.947,285.734 207.327,293.663 207.432,294.16 209.221,301.41 209.407,302.04 211.661,308.579 211.978,309.352 214.752,315.146 215.265,316.048 218.614,321.064 219.384,322.029 223.363,326.233 224.399,327.139 229.064,330.499 230.285,331.209 235.691,333.691 236.946,334.133 243.149,335.703 244.296,335.897 251.35,336.522 251.482,335.028 252.268,337.832 252.982,336.493 259.673,336.032 260.826,335.859 267.173,334.381 268.458,333.953 273.954,331.535 275.223,330.817 279.929,327.495 281.012,326.559 284.991,322.37 285.79,321.364 289.103,316.345 289.627,315.408 292.336,309.596 292.652,308.799 294.82,302.23 294.999,301.589 296.688,294.3 296.785,293.802 298.056,285.829 298.107,285.451 299.023,276.832 299.047,276.552 299.67,267.322 299.68,267.122 300.072,257.319 300.076,257.184 300.298,246.845 300.299,246.765 300.415,235.926 300.415,235.894 300.485,224.591 300.485,224.531 300.459,211.632 300.433,198.733 300.407,185.835 300.382,172.936 300.356,160.037 300.304,134.239 300.304,134.239 300.278,121.341 300.246,105.284 300.667,104.807 301.649,103.903 300.761,104.323 300.244,104.488 300.201,82.6442 300.201,82.6442 300.175,69.7454 300.097,31.049 300.097,31.049 300.086,25.418 304.571,25.3891 316.325,25.3136 328.078,25.238 339.831,25.1625 351.585,25.0869 363.338,25.0113 375.091,24.9358 386.844,24.8602 410.351,24.7091 422.104,24.6335 433.857,24.558 445.611,24.4824 457.364,24.4068 469.117,24.3313 473.523,24.303 " fill="none" stroke-width="0.5" stroke="rgb(0,0,0)" />
	<polygon points="191.955,443.907 192.308,444.948 192.911,447.287 194.29,447.591 195.848,447.841 197.355,447.998 198.587,448.046 200.234,447.956 201.781,447.683 203.144,447.237 204.253,446.649 205.124,445.932 205.844,445 206.468,443.63 206.728,442.432 202.864,442.721 201.748,442.718 195.53,442.23 194.295,442.025 190.768,441.124 " fill="none" stroke-width="0.5" stroke="rgb(0,0,0)" />
	<polygon points="158.434,437.298 157.399,438.567 153.204,442.667 151.81,443.734 151.539,443.894 152.073,443.78 155.004,442.584 157.17,441.124 158.743,439.431 159.882,437.407 160.63,434.884 160.733,433.728 " fill="none" stroke-width="0.5" stroke="rgb(0,0,0)" />
	<polygon points="325.956,416.965 316.451,420.098 314.908,420.427 314.465,420.472 314.967,421.392 315.461,422.689 315.757,423.667 316.088,425.12 316.146,425.401 316.396,426.742 316.453,426.986 317.345,427.628 317.803,427.987 318.67,428.722 319.486,429.534 320.219,430.389 320.734,431.162 321.442,430.412 321.704,430.147 322.419,429.462 322.788,429.132 323.497,428.541 324.02,428.142 324.72,427.657 325.471,427.202 326.161,426.838 327.232,426.378 327.661,426.233 327.027,425.027 326.677,423.786 326.404,421.809 326.404,416.76 " fill="none" stroke-width="0.5" stroke="rgb(0,0,0)" />
	<polygon points="387.352,420.063 388.545,420.955 388.655,421.056 388.677,420.699 388.786,419.91 387.554,419.662 385.818,419.143 " fill="none" stroke-width="0.5" stroke="rgb(0,0,0)" />
	<polygon points="165.91,413.548 165.915,414.613 165.595,419.297 165.458,420.268 167.112,419.629 170.625,420.244 170.585,419.076 170.617,418.708 170.898,417.248 170.994,416.928 171.676,415.357 171.834,415.086 172.927,413.651 173.144,413.43 173.424,413.204 172.922,412.996 172.324,412.716 169.688,411.335 169.117,411.002 166.69,409.435 166.117,409.024 165.522,408.553 " fill="none" stroke-width="0.5" stroke="rgb(0,0,0)" />
	<polygon points="378.743,417.599 379.634,417.359 381.204,417.543 381.912,417.705 379.624,416.622 378.786,416.156 378.743,416.129 " fill="none" stroke-width="0.5" stroke="rgb(0,0,0)" />
	<polygon points="259.124,401.855 258.856,403.242 258.58,404.173 258.037,405.506 257.597,406.339 257.371,406.681 257.794,406.845 258.407,407.117 261.267,408.544 261.741,408.803 264.524,410.46 264.92,410.713 267.537,412.509 267.899,412.774 270.263,414.62 270.632,414.928 272.655,416.733 273.046,417.112 274.069,416.936 274.372,416.89 275.706,416.717 275.994,416.686 277.377,416.563 277.649,416.543 278.666,416.491 277.803,416.1 269.197,411.007 267.963,410.088 260.862,403.533 259.903,402.453 259.164,401.433 " fill="none" stroke-width="0.5" stroke="rgb(0,0,0)" />
	<polygon points="244.769,412.33 244.84,412.081 244.81,412.072 " fill="none" stroke-width="0.5" stroke="rgb(0,0,0)" />
	<polygon points="366.26,399.948 366.591,400.062 366.606,399.871 " fill="none" stroke-width="0.5" stroke="rgb(0,0,0)" />
	<polygon points="349.824,395.453 349.151,396.577 347.67,398.611 348.377,398.53 352.884,398.278 353.555,398.272 355.123,398.328 353.963,397.301 352.984,396.182 352.23,395.15 351.374,393.733 351.002,393.013 " fill="none" stroke-width="0.5" stroke="rgb(0,0,0)" />
	<polygon points="308.944,394.09 308.398,394.251 305.186,395.06 304.517,395.195 301.177,395.711 304.353,395.986 307.563,395.853 310.46,395.471 310.539,395.452 309.89,394.549 309.674,393.844 " fill="none" stroke-width="0.5" stroke="rgb(0,0,0)" />
	<polygon points="203.35,391.853 203.801,392.859 204.7,395.351 206.199,393.135 207.882,391.373 211.219,388.884 207.16,389.244 205.713,389.229 201.684,388.784 " fill="none" stroke-width="0.5" stroke="rgb(0,0,0)" />
	<polygon points="242.642,374.581 242.422,374.819 242.484,374.851 243.369,375.443 244.567,376.446 245.31,377.217 245.529,377.492 246.211,377.511 247.456,377.636 247.49,377.643 246.761,374.956 246.536,373.699 246.188,369.814 " fill="none" stroke-width="0.5" stroke="rgb(0,0,0)" />
	<polygon points="83.5483,367.084 82.7067,367.195 81.8291,367.258 79.5156,367.282 79.4233,367.274 80.2892,369.464 81.0729,374.639 81.1433,374.566 83.6518,372.332 84.5988,371.617 86.9134,370.15 85.6654,369.087 84.707,368.1 83.8536,367.037 " fill="none" stroke-width="0.5" stroke="rgb(0,0,0)" />
	<polygon points="357.064,370.481 356.923,371.845 357.24,371.716 358.809,371.179 359.379,371.009 360.327,370.768 359.968,370.583 358.738,369.782 357.147,368.501 356.357,367.72 " fill="none" stroke-width="0.5" stroke="rgb(0,0,0)" />
	<polygon points="324.614,367.532 323.864,368.721 323.515,369.171 326.98,368.946 327.798,368.858 326.492,368.188 325.212,367.351 324.852,367.058 " fill="none" stroke-width="0.5" stroke="rgb(0,0,0)" />
	<polygon points="117.907,354.995 117.381,355.241 117.395,356.456 117.27,357.893 116.859,360.082 116.439,361.501 116.083,362.372 116.342,362.324 120.593,361.94 121.877,361.952 121.417,361.557 120.16,360.157 119.493,359.187 118.567,357.312 118.236,356.296 117.967,354.96 " fill="none" stroke-width="0.5" stroke="rgb(0,0,0)" />
	<polygon points="295.698,357.89 294.131,358.597 292.611,359.077 294.342,360.361 294.502,360.483 296.324,361.913 296.221,360.816 296.197,359.788 296.25,358.682 296.299,358.108 296.379,357.48 " fill="none" stroke-width="0.5" stroke="rgb(0,0,0)" />
	<polygon points="444.315,359.403 444.301,359.324 444.013,358.869 " fill="none" stroke-width="0.5" stroke="rgb(0,0,0)" />
	<polygon points="395.146,340.917 394.927,341.1 393.779,342.023 393.137,342.484 392.115,343.137 390.259,343.985 389.423,344.233 387.176,344.417 388.26,347.488 388.629,349.094 388.734,350.011 393.198,346.27 394.949,345.182 397.669,343.987 396.6,342.699 396.435,342.493 395.19,340.878 " fill="none" stroke-width="0.5" stroke="rgb(0,0,0)" />
	<polygon points="58.5818,342.063 61.7858,347.216 61.8869,347.316 62.0039,346.164 62.4952,343.889 62.9774,342.426 63.9059,340.369 64.2652,339.744 62.5967,339.386 61.6119,339.101 59.1432,338.195 58.046,337.67 " fill="none" stroke-width="0.5" stroke="rgb(0,0,0)" />
	<polygon points="165.194,320.587 164.942,323.428 164.724,324.661 163.974,327.476 163.548,328.656 162.31,331.337 161.653,332.477 159.939,334.914 159.013,335.99 156.832,338.075 155.615,339.014 152.978,340.638 152.891,340.679 153.159,340.815 155.619,342.306 156.491,342.927 158.84,344.872 159.546,345.541 160.412,346.478 160.29,345.401 160.247,344.337 160.305,342.553 160.338,342.055 160.517,340.291 160.599,339.718 160.904,338.04 161.072,337.329 161.511,335.805 161.854,334.863 162.432,333.561 163.163,332.282 163.887,331.268 165.444,329.673 166.32,329.016 169.09,327.734 169.227,327.703 167.01,324.345 166.294,322.959 165.161,320.035 " fill="none" stroke-width="0.5" stroke="rgb(0,0,0)" />
	<polygon points="415.561,333.058 413.774,333.251 413.518,333.275 413.356,333.286 413.502,334.101 413.522,334.215 413.746,335.584 413.785,335.858 413.943,337.127 413.989,337.643 414.049,338.772 414.057,339.37 414.047,339.704 414.012,340.236 413.978,340.571 413.903,341.058 418.122,341.418 419.351,341.63 419.787,341.744 419.264,341.15 417.631,337.969 416.457,332.887 " fill="none" stroke-width="0.5" stroke="rgb(0,0,0)" />
	<polygon points="127.846,337.653 127.828,339.591 128.054,339.481 128.975,339.109 129.714,338.867 129.593,338.78 127.799,337.178 " fill="none" stroke-width="0.5" stroke="rgb(0,0,0)" />
	<polygon points="384.837,312.652 383.987,314.486 383.387,316.131 383.197,317.11 383,319.264 382.826,322.207 382.665,324.942 382.959,324.251 384.029,321.531 384.89,318.884 385.439,316.414 385.645,313.937 385.623,312.693 385.543,311.42 " fill="none" stroke-width="0.5" stroke="rgb(0,0,0)" />
	<polygon points="75.0811,312.05 74.1703,315.542 73.8719,318.305 73.9002,319.309 74.0215,320.458 74.2405,321.491 74.5895,322.505 74.8788,323.085 75.8519,321.501 76.7034,320.376 78.1212,318.837 79.1733,317.896 80.8743,316.649 82.0723,315.936 83.1711,315.416 82.7849,315.261 81.1909,314.433 80.0003,313.659 78.5713,312.518 77.5284,311.499 76.3198,310.056 75.98,309.554 " fill="none" stroke-width="0.5" stroke="rgb(0,0,0)" />
	<polygon points="342.841,314.386 342.052,315.188 342.035,315.201 346.807,318.454 347.77,319.239 350.891,322.257 351.059,321.872 351.311,321.356 351.779,320.482 350.292,320.059 349.263,319.681 347.956,319.085 344.99,316.613 344.494,315.901 343.591,313.394 " fill="none" stroke-width="0.5" stroke="rgb(0,0,0)" />
	<polygon points="163.66,297.767 162.389,298.207 160.96,298.545 159.777,298.702 158.213,298.74 157.857,298.71 157.169,298.593 158.444,300.551 158.853,301.265 162.755,309.057 162.746,308.985 162.697,307.664 162.865,304.506 162.948,303.731 163.441,300.684 163.603,299.933 164.263,297.505 " fill="none" stroke-width="0.5" stroke="rgb(0,0,0)" />
	<polygon points="132.524,307.072 132.521,307.947 133.985,307.782 134.165,307.799 135.616,308.134 134.997,306.849 132.074,301.951 " fill="none" stroke-width="0.5" stroke="rgb(0,0,0)" />
	<polygon points="310.755,306.127 311.105,306.172 311.774,306.291 312.566,306.469 312.185,305.166 " fill="none" stroke-width="0.5" stroke="rgb(0,0,0)" />
	<polygon points="434.207,294.97 434.11,295.102 433.486,295.935 435.043,296.776 435.214,296.871 435.445,297.004 434.674,294.452 434.642,294.36 " fill="none" stroke-width="0.5" stroke="rgb(0,0,0)" />
	<polygon points="459.085,289.009 458.385,289.332 457.469,290.092 456.276,291.532 455.8,292.269 456.464,292.288 459.653,292.802 460.199,292.976 460.16,292.176 459.974,290.913 459.68,289.775 459.353,288.971 " fill="none" stroke-width="0.5" stroke="rgb(0,0,0)" />
	<polygon points="88.297,283.876 88.2349,283.998 85.8802,288.532 85.5788,289.113 86.7993,289.755 87.3208,290.169 88.029,290.812 88.2271,291.017 88.6236,289.09 88.9349,285.824 89.06,282.337 " fill="none" stroke-width="0.5" stroke="rgb(0,0,0)" />
	<polygon points="58.6369,281.682 58.8793,282.139 59.205,282.81 59.4985,283.503 59.6231,283.845 59.8537,282.841 59.8296,282.807 59.674,282.631 59.1527,282.149 59.1356,282.133 58.6199,281.653 " fill="none" stroke-width="0.5" stroke="rgb(0,0,0)" />
	<polygon points="173.401,282.123 173.401,282.124 173.661,281.848 173.156,281.4 " fill="none" stroke-width="0.5" stroke="rgb(0,0,0)" />
	<polygon points="428.379,279.008 428.163,279.41 428.73,279.373 428.431,278.742 " fill="none" stroke-width="0.5" stroke="rgb(0,0,0)" />
	<polygon points="157.638,226.348 156.641,228.083 156.217,228.954 157.393,230.352 158.072,233.748 158.011,235.175 157.99,235.501 157.831,237.323 157.816,237.476 157.592,239.548 157.584,239.619 157.326,241.795 157.324,241.811 157.069,243.927 156.853,245.796 156.716,247.188 156.681,247.856 156.687,248.058 157.906,248.775 159.717,251.881 160.182,253.506 160.32,254.073 160.685,255.883 160.748,256.235 161.039,258.164 161.066,258.36 161.311,260.338 161.318,260.405 161.539,262.334 161.751,264.07 161.822,264.532 162.463,264.743 163.53,266.054 163.398,265.481 163.498,261.837 164.64,257.864 166.033,255.225 168.943,251.708 166.265,252.27 162.667,251.084 160.148,248.255 159.533,243.462 159.771,242.34 159.976,241.281 160.155,240.226 160.307,239.177 160.429,238.133 160.519,237.093 160.575,236.056 160.592,235.131 160.499,233.241 160.218,231.469 159.71,229.693 158.92,227.865 157.824,226.033 " fill="none" stroke-width="0.5" stroke="rgb(0,0,0)" />
	<polygon points="406.544,256.871 406.599,256.826 406.489,256.795 " fill="none" stroke-width="0.5" stroke="rgb(0,0,0)" />
	<polygon points="448.947,255.095 449.238,254.579 449.241,254.575 448.593,254.215 " fill="none" stroke-width="0.5" stroke="rgb(0,0,0)" />
	<polygon points="129.444,242.393 129.416,243.689 130.761,253.335 131.236,254.594 131.504,252.751 132.52,251.63 132.199,250.302 131.561,248.233 130.751,245.801 130.733,245.748 129.898,243.173 129.821,242.921 129.486,241.746 " fill="none" stroke-width="0.5" stroke="rgb(0,0,0)" />
	<polygon points="382.508,246.393 381.682,247.624 380.858,248.617 379.804,249.652 378.799,250.456 377.839,251.079 378.578,251.984 378.771,252.238 379.828,251.241 380.638,250.58 381.765,249.788 383.936,248.748 384.975,248.447 385.415,248.404 385.098,248.18 383.16,246.157 382.873,245.71 " fill="none" stroke-width="0.5" stroke="rgb(0,0,0)" />
	<polygon points="359.432,248.085 359.862,248.24 359.625,247.955 " fill="none" stroke-width="0.5" stroke="rgb(0,0,0)" />
	<polygon points="324.766,236.573 326.54,238.578 328.825,242.393 328.906,242.62 329.985,242.08 331.154,241.63 331.49,241.531 330.872,240.396 330.315,239.08 329.611,236.819 329.363,235.604 329.026,235.673 327.621,235.815 326.144,235.815 324.75,235.673 323.309,235.377 323.18,235.336 " fill="none" stroke-width="0.5" stroke="rgb(0,0,0)" />
	<polygon points="464.712,223.465 464.688,223.604 464.142,226.605 464.139,226.622 463.603,229.529 463.159,232.159 463.042,233.06 463.244,232.69 464.331,230.012 465.034,227.303 465.269,224.778 464.955,221.963 " fill="none" stroke-width="0.5" stroke="rgb(0,0,0)" />
	<polygon points="312.503,225.98 310.644,226.567 309.354,226.835 309.528,227.374 310.493,228.46 312.657,229.747 316.121,231.252 316.39,231.375 316.735,231.541 316.343,231.15 315.49,230.115 314.708,228.959 314.062,227.773 313.506,226.458 313.256,225.657 " fill="none" stroke-width="0.5" stroke="rgb(0,0,0)" />
	<polygon points="86.1837,213.484 87.2447,214.538 87.7075,215.119 88.4781,216.309 88.8344,216.997 89.2883,218.078 89.5401,218.846 89.7855,219.813 89.935,220.635 90.0407,221.518 90.0803,222.198 90.1649,222.143 90.9017,221.779 92.9288,221.124 93.6577,221.001 95.8839,220.972 96.5276,221.062 98.4871,221.626 99.0988,221.899 100.144,222.542 100.3,220.446 100.461,219.368 101.302,215.668 101.482,215.081 100.93,215.209 97.9324,215.539 96.3238,215.537 93.1346,215.181 91.4972,214.804 88.633,213.785 87.1394,213.052 86.7098,212.776 " fill="none" stroke-width="0.5" stroke="rgb(0,0,0)" />
	<polygon points="438.344,212.789 437.779,212.949 432.658,214.18 431.996,214.307 426.282,215.133 427.703,216.049 431.397,219.113 432.533,220.294 433.743,221.875 434.24,220.719 434.939,219.454 437.462,215.8 438.156,214.943 441.004,211.919 " fill="none" stroke-width="0.5" stroke="rgb(0,0,0)" />
	<polygon points="132.073,219.867 132.564,220.265 132.665,220.531 132.898,219.606 " fill="none" stroke-width="0.5" stroke="rgb(0,0,0)" />
	<polygon points="65.0261,216.451 65.7091,216.901 66.226,217.369 67.4611,218.823 67.8608,219.442 68.2214,220.148 69.9734,217.167 68.2646,216.719 67.0101,216.265 65.5975,215.601 " fill="none" stroke-width="0.5" stroke="rgb(0,0,0)" />
	<polygon points="188.569,212.81 189.561,214.294 190.769,216.695 191.05,217.453 191.493,217.075 194.119,216.591 194.029,216.268 193.557,215.368 192.958,214.677 192.051,214.016 190.63,213.36 188.579,212.793 188.551,212.789 " fill="none" stroke-width="0.5" stroke="rgb(0,0,0)" />
	<polygon points="381.466,201.698 380.784,202.945 380.002,204.098 379.164,205.111 380.154,205.926 380.952,206.723 380.97,206.633 383.467,203.785 384.719,203.361 382.204,201.311 381.806,200.898 " fill="none" stroke-width="0.5" stroke="rgb(0,0,0)" />
	<polygon points="366.024,170.329 364.861,171.112 364.857,171.114 365.807,172.85 366.368,174.165 367.026,176.258 367.324,177.702 367.554,179.942 367.554,180.757 369.032,180.756 369.433,180.797 366.748,172.21 366.531,171.325 366.31,170.094 " fill="none" stroke-width="0.5" stroke="rgb(0,0,0)" />
	<polygon points="146.544,175.49 145.577,175.746 144.405,175.972 147.105,178.553 147.206,178.128 148.164,175.132 148.273,174.903 " fill="none" stroke-width="0.5" stroke="rgb(0,0,0)" />
	<polygon points="108.751,162.832 107.773,163.811 106.738,164.667 105.582,165.45 104.396,166.097 103.079,166.656 101.771,167.065 100.332,167.36 100.325,167.361 100.376,167.388 101.135,167.839 104.396,170.054 105.145,170.637 108.143,173.303 108.89,174.073 111.479,177.166 112.056,177.988 112.089,177.91 113.132,175.992 114.156,174.554 115.543,173.036 116.816,171.972 116.026,171.396 113.133,168.752 112.117,167.606 109.895,164.495 109.189,163.272 108.905,162.646 " fill="none" stroke-width="0.5" stroke="rgb(0,0,0)" />
	<polygon points="310.345,170.688 310.161,170.975 311.566,171.118 312.9,171.39 312.954,171.215 312.968,171.182 312.311,171.048 311.81,170.928 310.417,170.54 " fill="none" stroke-width="0.5" stroke="rgb(0,0,0)" />
	<polygon points="423.717,143.33 422.368,144.943 419.626,147.395 418.369,148.299 415.164,150.123 417.196,150.306 418.61,150.576 425.03,152.473 426.378,153.022 432.063,156.033 433.136,156.728 433.191,156.771 431.356,150.37 431.302,147.166 431.269,147.157 430.187,146.779 428.508,146.042 427.213,145.307 425.853,144.339 424.489,143.078 424.133,142.654 " fill="none" stroke-width="0.5" stroke="rgb(0,0,0)" />
	<polygon points="355.661,139.092 355.05,145.529 355.595,145.418 356.936,145.283 358.398,145.283 359.738,145.418 361.168,145.709 362.416,146.096 363.734,146.651 364.863,147.264 366.028,148.049 366.904,148.772 366.954,148.711 367.012,148.657 367.289,148.468 364.833,147.029 363.717,146.225 358.38,141.556 357.498,140.636 355.677,138.371 " fill="none" stroke-width="0.5" stroke="rgb(0,0,0)" />
	<polygon points="129.229,136.519 126.43,137.915 126.959,139.497 127.437,141.79 127.494,142.093 127.749,143.644 128.051,142.954 128.334,142.092 128.642,141.026 128.904,139.969 129.12,138.932 129.287,137.928 129.405,136.971 129.455,136.319 " fill="none" stroke-width="0.5" stroke="rgb(0,0,0)" />
	<polygon points="106.736,141.832 106.763,141.854 106.883,141.388 105.64,141.091 " fill="none" stroke-width="0.5" stroke="rgb(0,0,0)" />
	<polygon points="313.831,125.062 312.709,125.585 311.741,126.252 310.944,127.016 310.345,127.81 309.964,128.536 309.573,129.769 308.52,131.415 308.987,131.665 309.894,132.032 310.779,132.279 311.711,132.428 312.82,132.484 313.091,132.476 313.556,132.439 314.126,132.377 314.774,132.293 315.456,132.201 315.516,132.193 316.171,132.11 316.364,132.089 316.446,132.08 316.376,131.985 315.79,131.039 315.605,130.684 315.184,129.704 315.055,129.33 314.792,128.354 314.716,127.968 314.593,127.022 314.569,126.629 314.593,125.412 314.653,124.84 " fill="none" stroke-width="0.5" stroke="rgb(0,0,0)" />
	<polygon points="92.4884,114.925 92.0074,115.334 89.7442,117.097 88.6934,117.779 86.3553,119.026 84.3309,119.747 81.9295,120.22 80.8513,120.268 81.0041,122.951 81.0141,123.529 80.9824,124.955 80.9685,125.271 80.9315,125.835 81.6915,125.32 82.8776,124.672 84.195,124.113 85.5039,123.703 86.9446,123.407 88.3477,123.264 89.8269,123.264 91.2319,123.407 92.6708,123.702 93.9816,124.112 95.0675,124.572 94.3462,119.18 94.3269,119.022 93.7399,113.763 " fill="none" stroke-width="0.5" stroke="rgb(0,0,0)" />
	<polygon points="185.359,110.555 185.227,111.381 184.993,112.385 184.763,113.129 184.263,114.345 183.926,114.991 183.015,116.345 182.565,116.875 181.173,118.139 180.599,118.539 178.883,119.423 178.178,119.674 176.476,120.061 175.632,120.148 174.294,120.042 174.802,121.077 176.489,125.459 176.551,125.67 176.766,125.501 179.766,123.414 180.659,122.883 183.78,121.317 184.921,120.86 188.142,119.875 189.525,119.595 192.829,119.253 193.097,119.254 192.922,119.082 192.478,118.603 188.234,113.59 187.995,113.293 185.425,109.915 " fill="none" stroke-width="0.5" stroke="rgb(0,0,0)" />
	<polygon points="124.94,112.346 123.726,117.204 125.798,114.77 126.637,113.932 127.194,113.459 126.619,112.938 125.201,111.406 " fill="none" stroke-width="0.5" stroke="rgb(0,0,0)" />
	<polygon points="414.099,104.728 416.242,106.695 416.982,107.521 417.002,104.993 417.538,104.085 416.317,104.072 416.175,104.07 412.842,103.971 412.839,103.971 " fill="none" stroke-width="0.5" stroke="rgb(0,0,0)" />
	<polygon points="392.402,102.183 393.446,103.302 394.205,104.266 395.029,105.515 395.302,105.45 396.653,105.008 398.261,104.403 399.97,103.741 400.156,103.672 401.521,103.186 398.687,102.888 398.552,102.873 395.125,102.448 394.988,102.43 392.209,102.032 " fill="none" stroke-width="0.5" stroke="rgb(0,0,0)" />
	<polygon points="146.284,102.044 145.756,104.995 149.354,104.732 150.001,104.744 149.333,104.173 146.336,101.763 " fill="none" stroke-width="0.5" stroke="rgb(0,0,0)" />
	<polygon points="307.629,99.7397 309.032,99.1248 309.492,98.9815 309.434,98.6721 309.367,98.2421 309.365,98.2317 " fill="none" stroke-width="0.5" stroke="rgb(0,0,0)" />
	<polygon points="381.884,98.8786 381.918,98.8743 382.464,98.8227 382.921,98.794 383.453,98.7772 384.785,98.8572 385.633,98.9866 384.507,97.3445 384.399,97.1269 384.362,97.0245 " fill="none" stroke-width="0.5" stroke="rgb(0,0,0)" />
	<polygon points="65.7352,96.3053 65.6008,96.3794 68.5118,97.7218 69.3406,98.2554 69.5288,96.8082 69.5302,96.7977 69.8122,94.6523 69.8747,94.1266 " fill="none" stroke-width="0.5" stroke="rgb(0,0,0)" />
	<polygon points="126.808,63.9075 126.078,67.3677 125.978,67.7816 125.132,70.8886 124.731,71.9119 126.134,72.821 126.261,72.1273 126.541,71.0608 126.803,70.3027 127.606,68.6706 127.975,68.1092 129.859,66.1653 129.779,66.0581 128.054,63.658 127.155,62.4665 " fill="none" stroke-width="0.5" stroke="rgb(0,0,0)" />
	<polygon points="105.179,60.9258 103.467,62.32 101.623,63.8987 101.441,64.0492 99.6598,65.4772 98.9596,65.9737 97.3417,66.9837 97.1773,67.0553 97.3495,67.6548 97.5622,68.6545 97.6699,69.4211 97.7353,70.1507 97.7584,70.7396 100.187,69.306 102.245,68.5925 105.808,68.3382 105.643,66.362 105.624,66.0565 105.482,62.6294 105.31,60.8355 " fill="none" stroke-width="0.5" stroke="rgb(0,0,0)" />
	<polygon points="401.278,59.1129 401.275,60.0622 402.343,59.8633 402.605,59.8389 405.947,60.3119 407.057,60.7473 409.061,61.9329 410.44,63.0808 410.857,63.4564 412.481,65.0346 414.211,66.6584 415.934,68.0426 417.616,69.0639 419.226,69.6695 421.197,69.9183 421.323,69.9124 421.841,69.8337 422.255,69.7126 422.432,69.6254 422.532,69.352 422.566,69.0266 422.227,67.8979 420.781,66.4053 417.317,64.3557 412.59,62.3975 407.469,60.6994 402.792,59.2626 402.449,59.1478 401.241,58.7102 " fill="none" stroke-width="0.5" stroke="rgb(0,0,0)" />
	<polygon points="163.322,47.8044 162.712,48.8938 164.588,49.5314 164.788,49.6028 165.92,50.0246 165.518,49.6197 163.425,47.5399 " fill="none" stroke-width="0.5" stroke="rgb(0,0,0)" />
	<polygon points="397.236,39.2927 397.834,40.7292 398.292,42.276 399.746,41.5459 400.638,41.1699 403.61,40.1434 404.088,39.9965 407.749,39.0063 408.089,38.9231 408.176,38.904 406.61,38.0767 402.334,36.4558 398.37,35.3281 395.006,34.4861 394.525,34.3457 " fill="none" stroke-width="0.5" stroke="rgb(0,0,0)" />
	<polygon points="152.585,29.8451 151.461,30.4948 151.227,30.6034 152.755,31.5575 153,31.7059 152.851,29.7558 152.893,29.6283 " fill="none" stroke-width="0.5" stroke="rgb(0,0,0)" />
	<polygon points="82.6498,28.5886 82.042,30.2234 83.6906,29.6129 82.6539,28.5673 " fill="none" stroke-width="0.5" stroke="rgb(0,0,0)" />
</svg>
