<?xml version="1.0" standalone="no" ?>
<!DOCTYPE svg PUBLIC "-//W3C//DTD SVG 1.1//EN" "http://www.w3.org/Graphics/SVG/1.1/DTD/svg11.dtd">
<svg width="500px" height="500px" xmlns="http://www.w3.org/2000/svg" version="1.1" >
	<polygon points="468.173,280.931 467.377,295.115 465.001,310.118 460.98,325.988 455.289,342.408 447.915,359.071 438.848,375.683 428.086,391.958 415.625,407.619 401.462,422.397 385.592,436.031 368,448.266 348.663,458.854 327.546,467.547 304.6,474.091 279.768,478.223 252.982,479.666 226.886,478.305 202.58,474.393 180.036,468.181 159.215,459.904 140.084,449.792 122.623,438.067 106.819,424.953 92.6689,410.676 80.1767,395.467 69.3493,379.567 60.1945,363.221 52.7187,346.682 46.9251,330.21 42.8111,314.075 40.3651,298.552 39.5405,283.558 39.5405,32.129 49.971,32.0489 61.4626,31.9608 61.4626,31.9608 72.9543,31.8726 84.446,31.7844 95.9377,31.6962 95.9377,31.6962 107.429,31.6081 118.921,31.5199 130.413,31.4317 141.904,31.3435 153.396,31.2554 164.888,31.1672 176.379,31.079 187.871,30.9908 198.082,30.9125 198.082,31.0387 198.082,31.0387 198.057,43.9375 198.031,56.8363 198.006,69.7351 198.006,69.7351 197.98,82.6339 197.929,108.431 197.929,108.431 197.904,121.33 197.853,147.128 197.853,147.128 197.828,160.027 197.802,172.925 197.777,185.824 197.726,211.622 197.726,211.622 197.7,224.521 197.701,224.643 197.788,235.938 197.789,236.032 197.953,246.849 197.957,247.022 198.254,257.328 198.265,257.591 198.749,267.353 198.773,267.725 199.501,276.909 199.552,277.413 200.578,285.986 200.676,286.652 202.056,294.58 202.237,295.442 204.027,302.692 204.349,303.783 206.603,310.322 207.153,311.662 209.926,317.457 210.816,319.018 214.165,324.035 215.498,325.706 219.477,329.911 221.272,331.48 225.938,334.84 228.054,336.072 233.46,338.553 235.633,339.32 241.836,340.889 243.824,341.226 250.879,341.851 251.947,329.779 252.781,341.87 260.042,341.369 262.04,341.07 268.387,339.592 270.613,338.85 276.108,336.432 278.309,335.188 283.014,331.866 284.891,330.243 288.87,326.055 290.255,324.311 293.568,319.293 294.476,317.668 297.185,311.856 297.733,310.476 299.9,303.906 300.211,302.797 301.9,295.507 302.069,294.645 303.34,286.672 303.427,286.017 304.343,277.397 304.385,276.912 305.007,267.682 305.026,267.335 305.418,257.532 305.425,257.299 305.647,246.96 305.649,246.822 305.764,235.983 305.765,235.927 305.835,224.624 305.835,224.52 305.809,211.621 305.757,185.824 305.732,172.925 305.732,172.925 305.706,160.026 305.654,134.229 305.654,134.229 305.628,121.33 305.551,82.6335 305.551,82.6335 305.525,69.7347 305.447,31.0383 305.447,31.0383 305.447,30.7336 316.359,30.6635 328.112,30.5879 339.866,30.5123 351.619,30.4368 363.372,30.3612 375.125,30.2857 386.879,30.2101 410.385,30.059 422.138,29.9834 433.892,29.9079 445.645,29.8323 457.398,29.7567 468.173,29.6875 " fill="none" stroke-width="0.5" stroke="rgb(0,0,0)" />
</svg>
