<?xml version="1.0" standalone="no" ?>
<!DOCTYPE svg PUBLIC "-//W3C//DTD SVG 1.1//EN" "http://www.w3.org/Graphics/SVG/1.1/DTD/svg11.dtd">
<svg width="500px" height="500px" xmlns="http://www.w3.org/2000/svg" version="1.1" >
	<polygon points="479.091,16.9728 480.823,17.6357 480.823,26.0714 480.265,26.4638 479.379,27.3064 478.642,28.2289 478.052,29.1906 477.613,30.1349 477.326,30.9872 477.185,31.6447 477.156,31.9967 477.308,34 477.749,36.1402 478.45,38.6141 479.309,41.4698 479.348,41.609 480.217,44.8603 480.283,45.1438 480.823,47.8189 480.823,68.2471 480.666,69.5276 480.33,70.7833 476.969,78.7368 476.271,79.89 470.956,86.3619 470.078,87.188 463.044,92.2724 462.202,92.7572 453.685,96.548 452.979,96.7969 443.215,99.3882 442.651,99.5014 431.874,100.987 431.425,101.027 419.87,101.502 419.63,101.505 416.343,101.473 416.252,101.471 412.919,101.373 412.829,101.369 409.46,101.205 409.372,101.2 405.975,100.971 405.887,100.965 402.472,100.67 402.384,100.662 398.959,100.303 398.871,100.293 395.445,99.868 395.356,99.8562 391.938,99.3665 391.874,99.3568 391.399,99.2821 391.005,99.2029 390.62,99.1079 390.027,98.9193 389.723,98.8 388.903,98.3813 388.672,98.2334 387.742,97.4498 387.577,97.2691 386.835,96.1877 386.727,95.9701 386.354,94.9226 386.295,94.6639 386.185,93.8956 386.168,93.5915 386.828,91.0857 384.916,93.2422 384.215,93.8874 378.038,98.5088 377.265,98.9785 370.317,102.331 369.509,102.632 362.01,104.674 361.188,104.821 353.357,105.511 352.592,105.515 347.297,105.117 346.634,105.02 341.892,103.97 341.34,103.812 337.146,102.329 336.728,102.158 333.079,100.457 332.809,100.32 329.701,98.6197 329.608,98.5673 327.135,97.1399 326.744,96.9386 325.82,98.2646 324.804,99.7339 324.667,99.9205 324.455,100.197 327.508,100.823 328.106,100.987 330.846,101.938 331.358,102.151 333.603,103.241 333.989,103.451 335.785,104.541 335.995,104.676 336.991,105.356 337.525,105.077 337.698,104.991 338.293,104.71 338.754,104.522 339.324,104.324 340.221,104.108 340.763,104.033 342.366,104.086 343,104.218 344.904,105.09 345.38,105.456 346.521,106.719 346.862,107.273 347.327,108.274 347.556,108.972 347.72,109.63 347.859,110.426 347.912,110.84 347.983,111.689 347.998,111.939 348.024,112.797 348.026,112.919 348.03,113.741 348.023,114.012 347.872,116.844 347.829,117.278 347.364,120.437 347.286,120.845 346.774,122.987 347.266,123.067 349.026,124.69 349.774,125.863 350.051,126.361 350.712,127.742 350.873,128.118 351.443,129.635 351.545,129.936 352.02,131.517 352.09,131.777 352.467,133.351 352.519,133.597 352.793,135.092 352.833,135.358 353.001,136.701 353.031,137.045 353.087,138.165 353.072,138.846 352.446,145.447 352.247,146.424 351.133,149.937 351.707,149.549 352.837,148.937 353.686,148.579 354.934,148.192 355.855,148.005 357.196,147.87 358.138,147.87 359.477,148.005 360.398,148.192 361.646,148.579 362.495,148.937 363.624,149.549 364.373,150.055 365.357,150.866 365.992,151.5 366.804,152.484 367.275,153.182 367.448,152.594 367.491,152.478 367.9,151.644 367.951,151.561 368.732,150.608 368.79,150.554 369.997,149.733 370.059,149.704 371.429,149.297 371.494,149.288 373.936,149.605 374.406,149.8 375.156,150.195 375.906,150.68 376.886,151.282 378.145,151.925 379.837,152.581 382.075,153.177 384.957,153.617 388.613,153.793 390.594,153.734 392.683,153.569 394.901,153.327 397.276,153.04 397.305,153.037 399.837,152.747 399.935,152.737 402.644,152.484 402.795,152.472 405.725,152.293 405.912,152.285 409.109,152.218 409.63,152.235 416.963,152.895 417.874,153.069 424.293,154.966 425.161,155.32 430.846,158.331 431.537,158.778 436.669,162.78 437.141,163.202 441.898,168.072 442.183,168.392 446.746,174.006 446.896,174.201 451.443,180.436 451.497,180.511 455.623,186.407 458.13,187.883 458.142,187.89 462.204,190.297 462.431,190.441 466.82,193.394 467.2,193.679 471.569,197.309 472.057,197.778 476.059,202.22 476.579,202.917 479.867,208.303 480.299,209.22 480.823,210.741 480.823,237.641 479.964,239.895 479.625,240.602 476.105,246.593 475.872,246.952 471.688,252.787 471.63,252.866 467.55,258.313 468.627,257.657 470.104,257.071 473.035,256.453 474.492,256.377 475.96,256.53 477.05,256.777 478.309,257.226 479.401,257.785 480.455,258.512 480.823,258.842 480.823,281.286 480.549,286.173 479.269,288.676 479.036,289.081 476.844,292.486 476.547,292.897 473.97,296.086 473.59,296.502 470.631,299.376 467.899,300.674 467.547,300.598 467.864,300.935 470.189,303.98 470.62,304.657 472.536,308.324 472.812,308.965 474.257,313.145 474.424,313.763 475.335,318.345 475.416,318.956 475.497,320.198 473.11,329.62 467.07,347.047 459.715,363.665 455.847,367.485 453.126,368.805 450.163,368.193 447.914,364.944 446.775,358.37 444.399,354.619 440.757,351.783 435.948,349.372 430.734,347.052 430.268,346.813 425.639,344.099 424.488,343.15 421.216,339.432 420.164,337.384 418.923,332.011 418.822,330.53 418.973,328.86 417.287,329.983 416.024,330.332 415.281,330.473 413.494,330.667 413.33,330.681 411.356,330.825 410.312,330.935 410.44,331.744 410.687,333.139 410.943,334.561 410.956,334.634 411.18,336.003 411.205,336.18 411.363,337.449 411.393,337.781 411.453,338.91 411.458,339.295 411.448,339.629 411.426,339.971 411.391,340.306 411.317,340.785 411.25,341.108 411.063,341.763 410.956,342.059 410.54,342.914 410.383,343.169 409.888,343.773 411.598,343.569 412.553,343.553 417.901,344.009 418.692,344.145 423.986,345.531 424.779,345.817 429.817,348.163 430.599,348.624 435.177,351.956 435.903,352.611 439.818,356.958 440.416,357.79 443.464,363.181 443.867,364.119 445.845,370.581 446.03,371.52 446.735,379.083 446.695,380.264 445.32,388.83 438.331,399.399 425.161,415.952 410.17,431.593 405.455,435.644 403.547,435.866 402.031,435.611 400.803,435.226 399.31,434.521 398.491,434.025 397.076,432.96 396.512,432.46 395.23,431.124 394.809,430.619 393.716,429.103 393.374,428.551 392.525,426.946 392.233,426.272 391.683,424.666 391.468,423.744 391.272,422.229 391.243,421.335 391.272,420.861 391.368,420.166 391.476,419.665 391.724,418.865 391.938,418.344 392.29,417.676 389.147,417.342 388.299,417.171 384.738,416.107 384.075,415.852 380.736,414.272 380.197,413.972 377.199,412.036 376.725,411.686 375.667,410.797 375.708,410.9 376.057,412.702 376.143,413.597 376.143,417.615 376.142,417.725 376.125,418.448 376.112,418.71 376.055,419.425 376.017,419.755 375.911,420.453 375.832,420.857 375.805,420.97 375.966,420.849 379.331,419.942 380.901,420.125 381.891,420.352 383.524,420.916 384.404,421.327 386.016,422.293 386.783,422.867 388.29,424.255 388.92,424.965 390.237,426.794 390.7,427.591 391.745,429.883 392.03,430.701 392.719,433.475 392.844,434.253 393.092,437.53 393.034,438.697 391.92,445.05 391.494,446.341 390.733,447.864 374.668,459.037 354.126,470.285 331.702,479.516 331.43,479.594 330.844,479.591 327.278,479.277 326.406,479.116 323.287,478.23 322.413,477.884 319.75,476.507 318.945,475.98 316.746,474.194 316.069,473.519 314.343,471.405 313.826,470.625 312.582,468.265 312.236,467.417 311.483,464.894 311.309,464.005 311.056,461.399 311.044,460.638 311.285,456.954 311.357,456.391 312.028,452.826 312.145,452.344 313.169,448.938 313.312,448.53 314.384,445.878 314.091,446.001 313.389,446.234 312.638,446.418 311.915,446.537 311.28,446.591 310.93,447.605 309.773,451.719 309.729,451.867 308.22,456.629 308.054,457.074 306.02,461.779 305.594,462.555 302.827,466.628 301.813,467.706 298.106,470.571 296.254,471.44 291.396,472.522 289.902,472.611 285.892,472.207 285.013,472.032 281.14,470.87 280.388,470.572 276.706,468.73 276.084,468.356 272.649,465.913 272.141,465.495 269.009,462.528 268.996,462.514 270.284,464.119 273.81,467.179 277.608,469.495 281.558,471.157 285.514,472.243 289.306,472.83 292.836,473.008 295.38,472.981 297.298,472.907 298.635,472.809 299.561,472.701 300.302,472.588 300.998,472.478 301.216,472.448 301.932,472.369 302.285,472.344 303.149,472.314 303.688,472.326 304.558,472.396 305.484,472.564 306.153,472.757 307.24,473.225 307.733,473.516 308.763,474.337 309.108,474.702 309.832,475.707 310.055,476.121 310.431,477.046 310.557,477.485 310.701,478.185 310.758,478.624 310.793,479.075 310.806,479.49 310.646,480.862 310.248,482.334 309.396,484.026 308.217,485.514 307.336,486.369 307.178,486.486 281.151,490.817 273.245,491.243 272.141,490.825 271.466,490.506 269.296,489.26 268.662,488.824 266.836,487.333 266.273,486.789 264.795,485.101 264.549,484.766 261.243,486.451 260.979,486.575 256.814,488.381 256.54,488.489 252.115,490.086 251.821,490.181 247.191,491.516 246.869,491.597 245.297,491.932 225.548,490.902 199.887,486.773 191.564,484.479 185.979,481.022 185.73,480.857 180.967,477.474 176.876,474.599 173.404,472.647 170.916,471.93 167.584,471.6 163.384,471.367 163.099,471.343 158.346,470.787 157.727,470.672 152.516,469.338 151.742,469.066 146.064,466.494 145.323,466.073 139.17,461.8 138.579,461.315 131.943,454.881 130.564,452.189 131.111,449.214 132.617,447.856 127.253,448.339 126.325,448.331 115.56,447.163 114.567,446.945 112.792,446.347 98.2672,434.295 83.2685,419.161 74.7889,408.838 74.6602,408.464 74.4403,407.516 73.5928,400.734 73.5714,399.777 73.9809,394.649 74.1011,393.904 74.6522,391.656 73.1547,393.578 70.2267,394.338 67.2029,392.927 65.2955,390.964 61.8773,388.588 58.6784,386.371 58.5824,386.23 48.8916,368.927 40.9666,351.394 36.7121,339.299 37.4979,331.875 37.6832,330.976 40.6515,321.415 40.9191,320.742 45.1158,312.172 45.356,311.741 49.0104,305.919 47.7111,307.269 47.0214,307.859 44.8078,309.409 43.3383,310.097 41.2219,310.669 38.584,310.616 36.6149,309.996 34.7025,308.836 32.8839,307.018 32.0934,305.968 30.46,303.011 30.1384,302.293 28.7245,298.26 28.5791,297.757 27.4194,292.708 27.3559,292.368 26.8905,283.906 26.8905,253.403 27.3999,249.709 27.4505,249.412 28.6426,243.562 28.7366,243.182 30.1828,238.234 30.3845,237.677 32.0462,233.859 32.5916,232.92 34.4301,230.461 36.3,228.974 38.2766,228.104 40.5841,227.723 41.1243,227.771 42.0906,227.96 42.5389,228.097 43.594,228.57 43.9565,228.789 44.9056,229.548 45.1884,229.841 45.8655,230.736 46.0748,231.096 46.4634,231.947 46.6054,232.364 46.7875,233.078 46.8682,233.545 46.931,234.11 46.9565,234.618 46.9602,235 46.9385,235.698 47.588,232.486 47.69,232.076 49.4224,226.255 49.835,225.283 50.6891,223.771 50.1995,224.056 49.8745,224.229 47.1855,225.523 46.7696,225.699 44.2421,226.629 43.7065,226.79 41.3467,227.351 40.6624,227.461 38.4765,227.649 37.5284,227.634 34.992,227.338 33.7888,227.032 31.5569,226.137 30.4082,225.476 28.4913,223.975 27.6333,223.1 26.8905,222.113 26.8905,198.944 28.5235,198.988 30.5034,200.508 30.1853,199.916 29.2731,197.728 29.0251,196.948 28.4524,194.397 28.3493,193.688 28.1507,190.782 28.1398,190.457 28.1401,190.131 28.1402,190.102 28.1425,189.776 28.1433,189.718 28.1496,189.391 28.1521,189.305 28.1644,188.979 28.1701,188.864 28.1905,188.537 28.2014,188.395 28.2318,188.067 28.2503,187.9 28.2926,187.571 28.3213,187.38 28.3777,187.05 29.3756,185.21 29.2817,185.116 28.8474,184.608 28.3981,183.986 28.0598,183.427 27.6782,182.639 27.4586,182.051 27.2017,181.02 27.1235,180.425 27.0862,179.648 27.0953,179.386 27.1176,179.065 27.1445,178.806 27.1877,178.493 27.2316,178.238 27.295,177.932 27.3552,177.683 27.439,177.381 27.5146,177.14 27.6199,176.841 27.7104,176.609 27.8392,176.309 27.9436,176.088 28.0123,175.955 28.5035,174.603 28.986,172.065 29.6188,168.46 29.6748,168.188 30.6509,164.071 30.8001,163.568 32.3722,159.185 32.6735,158.515 35.1,154.083 35.6048,153.339 39.1442,149.071 39.8442,148.387 43.1262,145.787 41.9057,145.875 41.1316,145.867 38.3982,145.611 37.5181,145.443 34.9826,144.703 34.1349,144.363 31.8487,143.177 31.0716,142.67 29.0859,141.076 28.4158,140.418 26.8905,138.586 26.8905,116.582 27.8153,115.32 28.2856,114.772 29.8818,113.179 30.4307,112.709 32.3502,111.307 32.9483,110.936 35.2013,109.76 38.1907,109.299 40.8423,110.755 41.629,113.315 41.8197,111.299 41.9878,110.422 42.6363,108.205 42.9684,107.373 44.0064,105.357 44.4954,104.596 44.8949,104.09 41.7025,105.338 40.8449,105.582 36.8199,106.326 35.6861,106.395 34.9938,106.354 34.361,106.273 33.7275,106.147 32.9903,105.938 32.426,105.726 31.6042,105.323 31.1194,105.023 30.289,104.37 29.8939,103.979 29.1863,103.087 28.8914,102.604 28.4248,101.585 28.2403,101.008 28.0378,100.019 27.974,99.3459 28.1839,97.4473 29.4674,93.5056 30.0166,92.3675 33.4002,87.2531 33.6803,86.8727 36.9182,82.9096 35.7103,83.5304 34.6578,83.9205 32.5323,84.4301 30.7105,84.5032 30.1117,84.4096 28.6249,83.9126 28.1317,83.6494 26.977,82.7816 26.8905,82.6928 26.8905,65.9223 27.091,65.5195 27.3759,65.0248 28.032,64.0304 28.5515,63.3776 29.2549,62.639 29.8343,62.1234 30.8142,61.3868 31.4482,60.9852 32.6584,60.3478 33.152,60.1232 33.4631,60.0028 33.3298,59.9943 32.656,59.9021 28.7768,59.0818 26.8905,58.0344 26.8905,46.3444 28.7861,44.4892 29.2967,44.0562 33.1874,41.207 33.4159,41.0498 37.8759,38.1717 37.9381,38.1323 42.351,35.3817 44.6297,33.8852 43.931,33.679 39.7326,32.6398 39.7076,32.6336 35.4082,31.5444 35.1501,31.4711 31.3996,30.2895 30.691,30.001 28.0382,28.6595 26.8905,27.6236 26.8905,19.5757 38.3822,19.4875 49.8739,19.3993 61.3656,19.3111 72.8572,19.223 75.4469,19.2031 77.1804,20.2002 78.9584,22.0151 79.9288,23.7854 80.2128,27.6825 79.4088,29.8451 78.3583,31.4988 76.2386,33.6593 75.6286,34.1828 72.6318,36.339 72.3801,36.508 68.9447,38.6579 68.9376,38.6623 65.6232,40.7282 63.602,42.1652 66.0648,42.622 70.6728,43.1026 73.2831,43.3525 72.9718,42.3676 72.9086,41.9418 73.4988,38.8812 74.2572,37.5824 75.9087,35.9156 77.9081,34.7233 78.5318,34.4116 81.3586,33.2521 81.5098,33.1931 84.6827,32.018 87.6316,30.8218 89.7556,29.693 89.9819,29.4934 89.3853,29.2245 88.099,28.7916 88.0825,28.786 86.7682,28.3383 86.0531,28.0263 85.1235,27.525 83.1983,25.5833 82.8457,24.9157 82.815,20.5846 83.106,20.0141 83.9011,19.1382 84.3489,19.1348 95.8406,19.0466 107.332,18.9584 111.313,18.9279 111.805,19.3095 112.423,19.8841 114.038,21.6826 114.15,21.8119 115.463,23.3856 116.453,24.3099 117.328,24.7603 118.804,24.9727 120.22,24.77 121.138,24.3118 122.202,23.3769 123.595,21.8397 123.716,21.711 125.412,19.9762 126.017,19.4539 126.91,18.8082 130.316,18.7821 141.807,18.6939 152.53,18.6116 153.495,19.5346 153.734,19.9267 154.01,24.298 153.642,25.117 152.058,27.0369 151.089,27.7185 150.365,28.1368 148.995,28.7732 148.891,28.8203 147.475,29.4363 146.416,29.9913 146.262,30.1098 146.749,30.6405 148.729,32.1082 151.393,33.7727 154.216,35.4796 154.408,35.6016 156.896,37.2752 157.465,37.7255 159.225,39.3542 160.367,40.9843 161.034,42.5742 161.371,44.9209 161.324,45.3391 161.033,46.5182 160.9,46.8605 160.263,47.9973 160.056,48.27 159.202,49.1347 158.933,49.3439 158.073,49.8759 157.756,50.0279 157.583,50.0933 160.065,50.7515 160.373,50.8446 163.751,51.9931 163.88,52.039 167.412,53.3556 167.415,53.3569 170.878,54.6507 174.019,55.727 174.875,55.9572 174.309,55.1359 171.174,51.6302 167.358,47.7822 163.456,43.9051 163.338,43.7838 159.925,40.1379 159.597,39.7472 157.182,36.5307 156.508,35.2701 155.592,32.6693 155.801,29.0467 156.854,26.8894 158.328,25.1391 161.242,23.037 162.07,22.5596 166.479,20.5843 166.965,20.3983 172.502,18.6215 172.845,18.5257 173.147,18.4534 176.282,18.4294 187.774,18.3412 209.851,18.1718 210.711,19.7951 210.754,19.969 210.75,21.6694 210.462,23.9143 209.586,25.5254 208.074,27.1845 205.723,28.7602 205.066,29.1283 201.656,30.6923 201.4,30.8008 197.397,32.3575 198.716,32.1598 198.984,32.1274 201.247,31.9204 201.523,31.9033 203.742,31.8316 203.947,31.8294 205.546,31.8472 205.804,31.8572 207.189,31.9487 207.757,32.0212 208.928,32.2438 209.904,32.5421 210.728,32.896 210.706,43.9624 210.687,53.7739 210.344,53.985 208.707,54.6078 207.69,54.7888 206.218,54.8167 204.07,54.5176 203.264,54.3318 200.758,53.5163 200.271,53.3273 199.101,52.7965 203.335,57.1212 203.519,57.32 208.071,62.5387 208.451,63.0388 210.662,66.3883 210.656,69.76 210.633,81.2229 210.21,81.572 209.481,82.0565 208.693,82.4782 207.823,82.842 207.055,83.0881 206.052,83.3169 205.337,83.4229 204.208,83.5023 203.402,83.4897 199.421,83.0844 198.852,82.9911 194.163,81.9224 193.877,81.8478 188.757,80.337 188.621,80.2945 185.404,79.2382 187.31,80.2686 187.641,80.4658 192.183,83.4266 192.365,83.552 197.251,87.0759 197.383,87.1751 202.186,90.9039 202.311,91.0041 206.606,94.5794 206.765,94.7178 210.127,97.7813 210.432,98.0864 210.599,98.2697 210.579,108.456 210.557,119.919 209.838,120.73 208.9,121.541 207.736,122.306 206.146,122.971 204.878,123.244 201.6,122.755 199.276,121.459 198.264,120.7 194.748,117.231 194.462,116.922 190.218,111.91 190.065,111.719 185.555,105.791 185.434,105.625 181.121,99.4112 180.992,99.2142 180.844,98.9765 182.13,103.16 182.292,103.89 182.847,107.861 182.887,108.734 182.845,109.625 182.792,110.145 182.66,110.97 182.509,111.617 182.279,112.361 181.957,113.144 181.621,113.79 181.034,114.661 180.583,115.192 179.687,116.006 179.113,116.405 178.009,116.974 177.304,117.226 176.208,117.474 175.364,117.562 173.661,117.427 170.303,116.526 169.127,116.031 167.809,115.251 169.093,116.637 169.664,117.395 172.009,121.264 172.375,122.011 174.062,126.393 174.272,127.099 174.996,130.485 177.811,127.982 178.251,127.635 181.251,125.549 181.826,125.207 184.946,123.641 185.681,123.346 188.902,122.362 189.792,122.181 193.097,121.839 194.102,121.843 198.134,122.293 199.248,122.558 202.702,123.839 203.752,124.388 206.641,126.398 207.475,127.14 209.81,129.777 210.379,130.573 210.535,130.848 210.503,147.153 210.478,160.052 210.472,162.862 209.216,163.776 208.728,163.967 209.361,164.759 209.573,167.145 209.071,170.096 208.88,170.841 207.918,173.626 207.603,174.34 206.215,176.888 205.767,177.564 203.986,179.806 203.393,180.426 201.252,182.291 200.507,182.822 198.039,184.241 197.156,184.634 194.393,185.537 193.423,185.744 190.399,186.06 189.217,186.034 183.89,185.24 182.528,184.819 178.037,182.636 177.411,182.22 178.172,183.649 178.44,184.254 179.478,187.113 179.49,187.689 180.227,187.466 180.721,187.344 184.573,186.619 185.142,186.547 189.086,186.294 189.75,186.299 193.056,186.555 193.809,186.676 196.874,187.425 197.645,187.686 200.408,188.898 201.177,189.325 203.575,190.969 204.301,191.583 206.274,193.629 206.895,194.431 208.381,196.848 208.827,197.797 209.764,200.555 209.987,201.57 210.313,204.638 210.331,205.404 210.252,206.793 210.199,207.277 209.969,208.69 209.883,209.102 209.519,210.527 209.415,210.876 208.929,212.303 208.817,212.599 208.225,214.019 208.111,214.272 207.426,215.673 207.312,215.892 206.55,217.264 206.436,217.457 205.611,218.789 203.275,220.71 200.251,220.81 197.793,219.047 197.086,217.566 196.461,215.307 195.719,213.892 194.728,212.751 193.375,211.763 191.527,210.91 189.111,210.242 186.116,209.815 182.529,209.666 181.373,209.693 183.839,211.493 184.627,212.22 186.6,214.507 187.238,215.463 188.447,217.864 188.812,218.85 189.419,221.305 189.545,222.114 189.711,224.563 189.685,225.468 189.198,229.342 188.903,230.489 187.556,233.883 187.06,234.812 185.025,237.772 184.488,238.42 181.937,240.991 181.467,241.406 178.571,243.633 178.207,243.887 175.139,245.816 174.89,245.962 171.822,247.638 171.694,247.706 168.797,249.173 165.803,249.6 163.168,248.113 162.076,244.003 162.32,242.857 162.534,241.745 162.724,240.631 162.885,239.514 163.016,238.396 163.113,237.274 163.173,236.15 163.193,235.092 163.089,232.973 162.761,230.906 162.163,228.816 161.239,226.677 159.915,224.464 158.109,222.163 157.42,221.472 156.68,222.846 156.591,223.004 155.391,225.04 154.343,226.864 153.596,228.396 153.189,229.626 153.188,229.636 153.945,229.967 155.474,233.638 155.414,235.065 155.4,235.275 155.241,237.097 155.232,237.195 155.007,239.267 155.002,239.313 154.744,241.489 154.743,241.5 154.487,243.622 154.268,245.52 154.123,246.992 154.079,247.828 154.116,249.024 154.174,249.513 156.451,251.061 157.217,252.597 157.683,254.222 157.772,254.587 158.137,256.397 158.177,256.624 158.468,258.553 158.486,258.679 158.73,260.657 158.735,260.7 158.957,262.64 159.175,264.424 159.405,265.932 159.522,266.478 161.527,267.285 162.836,269.129 163.377,270.506 163.947,271.948 164.543,273.365 165.172,274.708 165.829,275.916 166.495,276.929 167.136,277.696 168.026,278.481 168.272,278.694 168.604,279.011 168.874,279.294 169.14,279.599 169.402,279.927 169.638,280.249 169.88,280.612 170.103,280.98 170.313,281.367 170.528,281.818 170.694,282.219 170.889,282.796 170.998,283.201 171.136,283.961 171.175,284.36 171.127,285.626 170.919,286.816 170.514,288.065 169.94,289.242 169.437,290.054 168.573,291.174 168.076,291.722 166.998,292.74 166.504,293.146 165.286,294.016 164.75,294.347 163.468,295.024 162.809,295.31 161.539,295.75 160.619,295.968 159.435,296.124 158.429,296.149 158.073,296.119 157.28,295.984 156.873,295.878 156.084,295.596 155.637,295.389 154.926,294.982 154.447,294.649 153.864,294.169 153.363,293.686 152.92,293.191 152.406,292.532 152.086,292.064 151.569,291.203 151.345,290.782 150.975,289.994 150.664,289.519 149.835,288.646 148.421,287.352 146.735,285.869 146.681,285.821 144.987,284.283 144.805,284.109 143.316,282.604 142.951,282.189 142.876,282.094 143.903,283.65 150.445,293.033 150.528,293.157 156.265,301.969 156.529,302.429 160.586,310.531 160.983,311.667 162.522,318.972 162.604,320.357 162.352,323.198 162.212,323.992 161.462,326.807 161.187,327.567 159.95,330.247 159.527,330.981 157.812,333.418 157.216,334.111 155.035,336.196 154.252,336.8 151.615,338.424 150.671,338.869 147.589,339.923 146.567,340.15 143.641,340.462 144.676,340.603 145.23,340.713 147.972,341.429 148.594,341.639 151.185,342.72 151.811,343.039 154.271,344.529 154.833,344.929 157.182,346.875 157.636,347.305 159.895,349.75 160.235,350.163 162.425,353.153 162.732,353.631 164.505,356.793 164.747,357.292 166.184,360.759 166.309,361.095 167.484,364.682 167.544,364.876 168.531,368.396 168.547,368.452 169.404,371.662 170.161,374.234 170.746,375.725 170.876,375.912 170.967,375.949 171.27,376.04 171.635,376.119 172.031,376.177 172.425,376.21 172.82,376.221 173.325,376.215 173.87,376.197 174.422,376.171 174.981,376.139 175.536,376.106 175.559,376.105 176.093,376.076 176.158,376.073 176.663,376.052 176.777,376.049 177.251,376.041 177.967,376.084 178.82,376.201 175.421,373.238 174.844,372.637 170.218,366.875 169.761,366.191 166.315,359.9 165.972,359.11 163.821,352.566 163.616,351.63 162.873,345.107 162.845,344.422 162.904,342.638 162.925,342.318 163.104,340.553 163.156,340.184 163.462,338.507 163.57,338.049 164.009,336.525 164.23,335.919 164.808,334.617 165.279,333.793 166.003,332.779 167.005,331.753 167.881,331.095 169.665,330.27 170.698,330.035 172.22,329.944 173.128,330.038 174.162,330.265 174.722,330.456 173.303,329.003 172.744,328.309 169.179,322.912 168.719,322.02 166.419,316.086 166.14,314.987 165.325,308.653 165.293,307.803 165.462,304.645 165.515,304.146 166.007,301.099 166.112,300.615 166.907,297.692 167.058,297.231 168.135,294.443 168.327,294.011 169.666,291.37 169.893,290.971 171.473,288.489 171.73,288.124 173.53,285.813 173.813,285.482 175.813,283.354 178.361,281.998 176.003,280.397 175.527,280.027 171.412,276.382 170.67,275.547 167.76,271.361 167.037,269.727 165.933,264.901 165.997,262.555 167.139,258.582 168.036,256.882 171.045,253.247 171.705,252.594 175.959,249.143 176.222,248.945 181.067,245.547 185.716,242.169 189.398,238.863 191.575,235.788 192.357,232.477 192.352,232.363 192.265,231.599 192.109,230.691 191.886,229.7 191.602,228.676 191.264,227.666 190.885,226.718 190.396,225.703 190.032,222.7 191.572,220.097 194.38,218.972 197.089,219.659 200.436,221.712 200.815,221.971 203.883,224.293 204.238,224.59 206.974,227.122 207.314,227.471 209.668,230.152 210,230.576 210.401,231.156 210.438,235.84 210.602,246.657 210.899,256.963 210.935,257.682 210.741,258.001 210.451,258.425 208.142,261.431 208.037,261.563 205.797,264.273 204.065,266.577 203.143,268.302 202.916,269.454 203.154,270.676 203.948,271.964 205.574,273.608 207.88,275.551 207.961,275.621 210.431,277.799 210.866,278.237 212.634,280.267 213.138,284.482 214.519,292.41 215.333,295.711 213.935,299.132 213.689,299.643 211.803,303.024 213.577,301.671 216.602,301.683 217.152,302.109 218.563,306.2 221.336,311.994 224.685,317.011 228.665,321.215 233.33,324.575 238.737,327.056 244.939,328.626 245.066,328.637 246.582,330.642 247.065,331.433 248.574,334.557 248.868,335.333 249.781,338.594 249.914,339.239 250.365,342.607 250.403,343.066 250.524,346.513 250.509,347.088 250.223,350.348 252.378,343.334 252.724,342.504 257.33,333.864 257.82,333.124 261.855,328.124 265.518,327.271 271.013,324.853 275.719,321.532 279.698,317.343 282.818,312.615 290.205,310.287 288.037,309.959 285.941,307.778 285.781,306.327 287.139,302.21 288.221,301.191 289.253,300.097 290.123,299.001 290.842,297.857 291.427,296.601 291.881,295.147 292.186,293.402 292.303,291.233 292.274,290.188 292.19,289.073 292.064,287.909 291.91,286.673 291.909,286.666 291.75,285.376 291.741,285.29 291.602,283.964 291.589,283.808 291.491,282.425 291.48,282.213 291.443,280.753 291.45,280.35 291.562,278.505 291.647,277.856 291.971,276.257 292.191,275.504 292.711,274.151 293.126,273.326 293.826,272.219 294.48,271.402 295.344,270.541 296.22,269.855 297.232,269.24 298.229,268.783 299.373,268.414 300.359,268.209 301.618,268.086 302.869,268.131 305.145,268.521 306.487,268.967 308.504,269.996 309.313,270.52 311.122,271.974 311.516,272.329 313.168,273.996 313.275,274.108 314.741,275.688 315.795,276.716 315.237,274.509 313.488,272.493 310.092,270.211 305.589,267.73 305.423,267.635 300.738,264.8 300.11,264.345 296.022,260.837 295.104,259.771 292.798,256.1 293,246.688 293.115,235.848 293.13,233.451 294.208,230.803 294.298,230.596 295.666,227.649 295.754,227.471 297.387,224.309 299.238,222.527 298.665,222.212 297.928,221.712 296.45,220.487 295.827,219.864 294.603,218.386 294.103,217.649 293.176,215.96 293.168,215.94 293.159,211.647 293.143,203.834 293.176,203.758 294.103,202.067 294.602,201.332 295.826,199.852 296.446,199.23 297.925,198.003 298.66,197.502 300.35,196.573 301.195,196.211 303.054,195.621 303.856,195.454 303.278,195.139 302.535,194.636 301.499,193.781 300.87,193.151 300.014,192.116 299.511,191.372 298.864,190.185 298.505,189.338 298.095,188.028 297.905,187.102 297.762,185.698 297.762,184.745 297.905,183.344 298.095,182.416 298.505,181.108 298.865,180.261 299.512,179.075 300.015,178.331 300.871,177.296 301.5,176.668 302.536,175.812 303.279,175.31 304.465,174.663 305.311,174.304 306.619,173.895 307.545,173.705 308.945,173.562 309.896,173.562 311.304,173.704 312.227,173.893 313.54,174.302 314.386,174.66 314.79,174.88 314.864,174.152 315.051,173.23 315.437,171.986 315.794,171.139 316.405,170.012 316.908,169.265 316.961,169.201 315.396,169.008 315.034,168.949 312.829,168.501 312.507,168.423 310.658,167.909 310.398,167.828 308.985,167.345 308.636,168.221 308.502,168.525 308.004,169.558 307.386,170.518 306.797,171.227 304.547,172.722 303.798,172.949 300.592,172.777 299.107,172.145 297.749,171.264 296.336,169.952 295.656,169.163 294.355,167.262 293.995,166.639 293.065,164.699 293.056,160.052 293.006,135.053 293.072,134.907 294.009,133.074 294.238,132.675 295.333,130.967 297.699,129.081 298.159,129.073 297.962,128.551 297.9,128.375 297.668,127.675 297.61,127.49 297.402,126.765 297.35,126.568 297.171,125.823 297.125,125.612 296.979,124.85 296.941,124.622 296.831,123.849 296.803,123.601 296.734,122.819 296.718,122.55 296.694,121.764 296.709,121.223 296.959,118.28 297.092,117.503 297.861,114.527 298.136,113.75 299.45,110.873 299.897,110.099 301.783,107.451 302.428,106.719 304.913,104.432 305.745,103.82 308.856,102.024 309.807,101.607 312.672,100.713 312.629,100.623 312.478,100.222 312.324,99.7319 312.186,99.1911 312.121,98.8947 311.989,98.1935 311.946,97.9167 311.743,96.308 311.522,94.6091 311.286,93.0993 310.641,93.644 308.319,95.696 308.289,95.7224 305.887,97.809 305.74,97.9321 303.462,99.7522 303.084,100.025 301.098,101.312 299.97,101.846 298.44,102.334 296.977,102.557 296.741,102.555 296.48,102.546 296.289,102.534 295.588,102.436 295.437,102.404 294.142,101.914 294.028,101.851 292.937,100.913 292.919,91.7762 293.194,91.1359 293.334,90.8403 294.733,88.1256 294.789,88.0197 296.391,85.096 297.962,82.2218 299.185,79.825 298.401,79.729 296.253,79.4984 295.956,79.4569 294.052,79.1286 293.077,78.8491 292.893,78.7741 292.875,69.76 292.867,65.8551 293.907,65.0626 294.097,64.9258 296.245,63.4523 298.228,62.0405 299.512,60.9475 299.038,60.6542 297.23,59.7962 295.188,58.8751 294.896,58.7313 293.078,57.7548 292.85,57.5993 292.826,45.4264 292.877,45.3934 294.582,44.4282 294.718,44.3542 296.633,43.3526 298.39,42.3891 298.747,42.1559 298.453,41.6237 296.841,39.1425 294.885,36.275 294.867,36.2496 292.881,33.297 292.801,33.1743 292.797,31.0636 292.771,18.185 292.802,18.1647 295.566,18.1469 296.655,18.3095 297.776,18.6228 300.533,19.7775 300.87,19.9344 304.155,21.627 304.251,21.6777 307.707,23.56 310.902,25.247 311.161,25.3641 311.175,25.1206 311.201,24.0785 311.205,23.2271 311.208,23.0743 311.247,22.0171 311.277,21.6373 311.388,20.7024 311.459,20.2745 311.631,19.4676 311.767,18.9684 311.991,18.2953 312.095,18.0406 316.278,18.0137 324.564,17.9605 325.298,18.724 326.408,19.8429 327.204,20.5407 327.638,20.4839 329.425,19.9672 331.904,19.0918 334.858,18.036 335.004,17.9867 335.3,17.8914 339.784,17.8626 351.538,17.787 363.291,17.7115 369.449,17.6719 369.701,17.7347 370.523,18.023 377.757,21.3424 378.578,21.8253 384.788,26.3836 385.535,27.0677 390.591,32.8138 391.184,33.6596 394.956,40.5422 395.341,41.4671 396.894,46.7155 397.352,46.1417 398.918,44.8708 400.913,43.8695 401.487,43.6274 404.459,42.6009 404.767,42.5063 408.428,41.5162 408.647,41.4626 412.71,40.5705 412.906,40.5317 415.038,40.1577 412.423,38.2069 407.682,35.7026 403.152,33.9853 399.041,32.816 395.637,31.9639 395.286,31.8614 392.991,31.0932 390.959,29.7458 390.131,28.8072 388.966,26.0156 390.092,22.6333 390.718,21.9053 392.276,20.719 394.037,19.8884 394.607,19.6635 397.326,18.7919 397.651,18.7006 401.151,17.8495 401.396,17.7968 403.222,17.4548 410.304,17.4092 422.057,17.3337 433.622,17.2593 436.575,18.2366 437.332,18.5631 439.976,19.9911 440.914,20.6575 442.939,22.5092 443.868,23.6811 445.165,25.9954 445.704,27.5399 446.044,29.6391 446.166,28.2431 446.324,27.3792 446.992,25.0057 447.336,24.1315 448.408,22.0448 448.944,21.2253 450.385,19.454 451.088,18.756 452.866,17.3285 453.168,17.1337 457.317,17.107 469.07,17.0314 478.96,16.9679 " fill="none" stroke-width="0.5" stroke="rgb(0,0,0)" />
	<polygon points="258.277,447.152 257.871,447.201 257.636,447.261 257.414,447.354 257.062,447.567 256.504,448.002 255.725,448.73 254.658,449.858 254.653,449.864 256.203,449.598 256.529,449.603 256.869,449.621 257.297,449.66 257.827,449.738 258.332,449.842 258.995,450.03 259.549,450.232 260.286,450.575 260.865,450.909 261.589,451.423 261.756,451.568 260.949,449.834 260.908,449.741 260.505,448.823 260.175,448.271 259.827,447.828 259.491,447.501 259.199,447.289 258.991,447.183 258.898,447.154 258.745,447.138 " fill="none" stroke-width="0.5" stroke="rgb(0,0,0)" />
	<polygon points="187.28,439.687 187.577,440.268 189.563,444.927 189.791,445.597 190.757,449.348 190.917,449.413 192.215,449.796 193.804,450.146 195.508,450.42 197.17,450.592 198.607,450.649 200.532,450.543 202.414,450.212 204.165,449.639 205.703,448.823 207.003,447.753 208.085,446.352 208.95,444.454 209.604,441.436 210.861,439.343 210.027,439.529 209.354,439.629 202.67,440.128 201.952,440.127 195.734,439.638 194.938,439.506 189.742,438.178 188.932,437.89 185.142,436.137 " fill="none" stroke-width="0.5" stroke="rgb(0,0,0)" />
	<polygon points="162.457,403.487 162.579,404.247 163.318,413.75 163.321,414.435 163.001,419.119 162.907,419.785 161.845,424.734 161.62,425.477 159.666,430.418 159.247,431.233 156.248,435.891 155.581,436.707 151.387,440.807 150.489,441.494 144.948,444.763 143.94,445.207 137.613,447.15 137.799,447.178 138.723,447.283 139.697,447.367 140.696,447.43 141.695,447.473 142.673,447.498 143.477,447.504 148.633,447.175 152.843,446.274 156.235,444.89 158.871,443.112 160.857,440.975 162.292,438.427 163.197,435.374 163.534,431.587 163.53,431.283 163.511,430.776 163.481,430.244 163.441,429.695 163.392,429.132 163.337,428.561 163.277,427.986 163.213,427.404 163.866,424.45 166.184,422.506 169.94,422.662 172.043,423.685 172.539,423.964 174.549,425.264 173.819,423.477 173.527,422.432 173.214,420.45 173.175,419.304 173.207,418.936 173.388,417.996 173.484,417.677 173.923,416.665 174.081,416.395 174.785,415.471 175.002,415.249 175.858,414.558 176.133,414.386 176.988,413.963 177.318,413.84 178.072,413.627 178.456,413.553 179.08,413.475 179.515,413.451 179.99,413.448 181.013,413.493 181.407,413.527 182.331,413.646 182.561,413.681 183.498,413.85 183.507,413.851 184.495,414.031 185.615,414.197 187.053,414.343 188.967,414.451 191.094,414.487 195.721,413.636 198.464,411.729 200.755,408.536 200.899,408.242 200.263,409.07 199.41,409.926 198.026,410.995 197.171,411.52 195.493,412.318 194.756,412.596 192.828,413.142 192.231,413.27 190.097,413.585 189.619,413.63 187.325,413.731 186.797,413.724 183.939,413.528 183.37,413.454 180.475,412.895 179.992,412.774 177.122,411.897 176.7,411.745 173.916,410.594 173.531,410.414 170.895,409.032 170.527,408.818 168.1,407.25 167.731,406.986 165.575,405.278 165.188,404.935 163.363,403.13 162.997,402.723 161.944,401.407 " fill="none" stroke-width="0.5" stroke="rgb(0,0,0)" />
	<polygon points="242.178,408.418 242.206,408.669 242.28,409.541 242.294,409.802 242.319,410.662 242.264,411.522 241.486,416.498 241.085,417.793 238.879,422.424 238.268,423.386 234.829,427.572 234.164,428.234 229.687,431.879 229.031,432.327 223.71,435.333 223.068,435.634 219.999,436.8 220.702,436.694 226.892,434.838 232.343,432.266 237.028,429.072 240.923,425.343 244.009,421.156 246.264,416.579 247.778,411.255 248.955,409.552 248.512,409.638 247.497,409.734 246.381,409.706 245.443,409.57 244.322,409.263 243.456,408.905 242.785,408.563 242.143,408.167 " fill="none" stroke-width="0.5" stroke="rgb(0,0,0)" />
	<polygon points="326.077,414.069 325.142,414.496 315.637,417.628 314.643,417.84 308.969,418.42 309.789,418.912 311.154,420.152 311.926,421.198 312.537,422.317 313.031,423.614 313.222,424.244 313.552,425.696 313.59,425.878 313.851,427.279 314.095,428.313 314.197,428.572 314.895,429.068 314.918,429.085 315.826,429.738 316.121,429.969 316.988,430.705 317.513,431.227 318.246,432.082 318.879,433.033 319.387,434.043 319.83,435.421 319.954,436.212 320.022,436.12 321.625,434.094 321.77,433.919 322.492,433.092 322.614,432.958 323.333,432.195 323.502,432.025 324.217,431.34 324.455,431.128 325.163,430.536 325.5,430.28 326.201,429.795 326.684,429.501 327.374,429.138 328.064,428.842 328.742,428.613 329.686,428.399 330.35,428.32 331.801,428.372 332.461,428.5 333.137,428.684 333.221,428.713 332.336,428.085 331.444,427.26 330.443,426.059 329.529,424.323 329.18,423.081 329.004,421.809 329.004,413.773 329.204,412.42 329.282,412.159 " fill="none" stroke-width="0.5" stroke="rgb(0,0,0)" />
	<polygon points="255.644,392.168 255.506,392.857 255.357,393.418 255.138,394.079 254.937,394.583 255.127,394.854 255.502,395.49 255.83,396.161 256.103,396.857 256.318,397.564 256.485,398.322 256.584,399.011 256.641,399.834 256.631,400.599 256.536,401.61 256.363,402.503 256.087,403.434 255.738,404.292 255.298,405.126 254.781,405.905 254.194,406.625 253.531,407.288 252.813,407.877 252.755,407.915 254.003,408.16 256.851,409.268 257.246,409.443 260.106,410.871 260.411,411.037 263.194,412.694 263.449,412.857 266.066,414.653 266.299,414.824 268.663,416.669 268.901,416.868 270.923,418.673 271.2,418.94 272.158,419.948 273.019,419.76 273.225,419.719 274.51,419.498 274.706,419.468 276.04,419.296 276.225,419.276 277.608,419.152 277.783,419.14 279.216,419.066 279.38,419.06 280.862,419.035 281.05,419.036 283.181,419.086 283.391,419.095 285.594,419.245 285.792,419.263 288.073,419.516 288.257,419.54 290.622,419.897 290.792,419.926 293.247,420.39 293.403,420.422 295.953,420.995 296.096,421.029 297.217,421.318 297.489,420.859 297.995,420.182 298.892,419.271 299.583,418.739 299.713,418.666 291.13,417.793 290.144,417.584 280.06,414.285 279.128,413.863 270.521,408.769 269.727,408.178 262.626,401.623 262.008,400.927 256.439,393.241 255.996,392.492 255.687,391.84 " fill="none" stroke-width="0.5" stroke="rgb(0,0,0)" />
	<polygon points="226.854,382.793 225.924,383.179 217.656,385.61 216.746,385.783 206.93,386.654 205.998,386.644 197.801,385.74 196.81,385.52 195.858,385.198 195.93,385.27 196.393,385.804 198.873,389.152 199.227,389.708 201.065,393.093 201.355,393.741 202.497,396.906 202.726,397.821 203.119,400.507 203.137,401.724 202.907,403.719 202.692,404.577 202.911,404.13 205.184,399.37 205.532,398.762 208.353,394.591 209.436,393.457 213.391,390.507 215.293,389.664 220.978,388.545 222.246,388.47 223.291,388.55 223.835,388.624 225.083,388.869 225.519,388.976 226.894,389.385 227.307,389.529 227.812,389.732 227.802,389.704 227.494,388.735 227.383,388.324 227.165,387.336 227.07,386.702 226.987,385.682 226.987,384.915 227.076,383.849 227.218,383.027 227.352,382.52 " fill="none" stroke-width="0.5" stroke="rgb(0,0,0)" />
	<polygon points="351.378,386.094 351.091,386.848 347.483,394.323 347.05,395.046 341.994,401.988 341.429,402.624 343.489,402.004 344.039,401.874 347.979,401.188 348.522,401.126 353.029,400.874 353.461,400.87 357.254,401.007 357.628,401.035 361.099,401.44 361.539,401.512 364.631,402.174 365.169,402.323 367.825,403.233 368.504,403.527 370.089,404.367 369.986,404.2 369.431,402.886 368.984,401.116 369.21,398.137 370.158,395.892 369.141,396.449 367.908,396.915 362.712,398.079 360.633,398.073 359.483,397.809 357.886,397.111 356.809,396.377 355.92,395.589 354.941,394.47 354.456,393.806 353.599,392.388 353.312,391.833 352.603,390.204 352.419,389.703 351.882,387.948 351.758,387.449 351.452,385.834 " fill="none" stroke-width="0.5" stroke="rgb(0,0,0)" />
	<polygon points="117.288,386.41 116.687,387.365 116.317,388.427 116.181,389.667 116.464,392.426 117.247,394.833 118.455,396.913 120.041,398.681 121.954,400.117 124.127,401.185 124.459,401.279 122.888,400.396 122.241,399.958 120.666,398.687 120.015,398.049 118.827,396.632 118.217,395.699 117.466,394.185 117.042,392.874 116.781,391.313 116.734,390.129 116.838,388.939 116.997,388.07 117.296,387.008 117.647,386.12 117.728,385.965 " fill="none" stroke-width="0.5" stroke="rgb(0,0,0)" />
	<polygon points="281.174,390.499 285.686,393.752 291.063,396.308 297.246,397.98 304.294,398.591 307.787,398.446 310.931,398.032 313.56,397.408 315.086,396.845 314.803,396.711 314.13,396.228 312.376,393.787 312.121,392.955 311.988,390.752 312.078,390.247 312.084,390.224 311.104,390.613 310.871,390.698 308.114,391.626 307.763,391.729 304.551,392.539 304.12,392.626 300.412,393.198 299.935,393.247 295.694,393.464 295.125,393.459 291.611,393.213 290.974,393.124 287.583,392.412 286.958,392.234 283.797,391.097 283.159,390.812 280.334,389.29 279.665,388.852 279.429,388.667 " fill="none" stroke-width="0.5" stroke="rgb(0,0,0)" />
	<polygon points="119.944,350.433 119.297,350.98 117.514,352.23 116.806,352.639 114.766,353.593 114.731,353.606 114.733,353.622 114.767,354.134 114.796,356.488 114.715,357.412 114.303,359.602 114.033,360.516 113.217,362.508 112.767,363.351 111.582,365.112 110.981,365.835 109.738,367.061 110.912,366.489 111.712,366.186 115.742,365.066 116.577,364.914 120.827,364.529 121.767,364.538 129.442,365.386 130.468,365.618 137.552,368.077 138.488,368.523 144.847,372.469 145.632,373.08 151.132,378.388 151.739,379.103 156.249,385.647 156.342,385.815 156.14,384.796 156.118,384.681 155.601,381.698 154.942,378.956 153.926,376.577 152.47,374.325 150.523,372.192 148.023,370.193 144.913,368.362 141.15,366.748 136.548,365.356 132.852,364.352 132.613,364.28 129.661,363.306 129.307,363.173 127.067,362.228 126.547,361.97 124.926,361.036 124.209,360.528 123.112,359.585 122.302,358.684 121.635,357.713 121.039,356.507 120.708,355.49 120.493,354.422 120.403,353.34 120.456,352.149 120.762,350.39 121.179,349.181 " fill="none" stroke-width="0.5" stroke="rgb(0,0,0)" />
	<polygon points="76.9434,367.893 77.7185,369.854 78.9727,378.136 78.7659,380.38 77.6166,383.692 79.5972,380.441 79.9983,379.88 82.3864,377.011 82.8727,376.508 85.3812,374.273 85.9909,373.813 88.4701,372.241 89.3057,371.822 91.606,370.941 94.0277,370.849 92.1325,370.225 91.3002,369.858 89.5829,368.893 88.8371,368.373 87.3514,367.108 86.7344,366.472 85.4996,364.934 85.0315,364.23 84.9966,364.165 84.4334,364.291 84.2272,364.332 83.4074,364.476 83.208,364.507 82.3665,364.618 81.8014,364.658 79.4879,364.682 78.5544,364.599 76.3561,364.178 75.4797,363.92 73.7208,363.21 " fill="none" stroke-width="0.5" stroke="rgb(0,0,0)" />
	<polygon points="248.206,360.041 247.911,360.843 245.098,366.772 244.622,367.563 240.556,373.029 239.884,373.758 237.529,375.823 237.929,375.868 239.023,376.129 240.051,376.508 241.038,377.011 241.923,377.603 242.694,378.249 243.437,379.021 243.98,379.7 244.272,380.145 244.704,380.104 245.271,380.079 245.95,380.098 247.196,380.223 248.164,380.425 249.271,380.78 250.189,381.189 251.148,381.745 251.331,381.878 249.271,374.276 249.126,373.466 248.311,364.38 248.316,363.488 248.944,357.277 " fill="none" stroke-width="0.5" stroke="rgb(0,0,0)" />
	<polygon points="104.074,370.393 103.269,370.647 100.958,371.154 100.174,371.258 97.878,371.368 97.0459,371.333 94.9602,371.061 97.0956,372.576 97.9384,376.004 97.5971,378.36 99.2188,375.594 99.7865,374.82 102.514,371.802 103.191,371.186 104.485,370.222 " fill="none" stroke-width="0.5" stroke="rgb(0,0,0)" />
	<polygon points="353.864,361.56 353.259,362.286 351.065,364.435 350.262,365.067 350.199,365.106 352.841,366.148 354.477,370.215 353.797,376.819 354.057,376.555 354.773,375.961 355.729,375.316 356.348,374.963 357.596,374.373 358.083,374.176 359.651,373.638 360.019,373.529 361.772,373.084 369.329,370.572 369.276,370.572 366.906,370.359 366.033,370.195 363.897,369.583 363.037,369.241 361.161,368.273 360.369,367.757 358.778,366.476 358.102,365.808 356.821,364.256 356.296,363.471 355.35,361.692 354.996,360.829 354.8,360.175 " fill="none" stroke-width="0.5" stroke="rgb(0,0,0)" />
	<polygon points="323.328,364.117 323.006,364.942 322.291,366.363 321.808,367.129 320.843,368.375 320.202,369.051 319.007,370.085 318.224,370.634 316.82,371.419 316.442,371.581 320.551,371.843 323.572,371.773 327.204,371.537 331.121,371.114 335.093,370.488 338.885,369.649 342.245,368.607 342.64,368.431 342.574,368.445 339.1,368.815 338.193,368.823 334.972,368.542 334.111,368.385 331.169,367.559 330.295,367.216 327.679,365.874 326.854,365.336 324.61,363.507 323.906,362.796 323.758,362.61 " fill="none" stroke-width="0.5" stroke="rgb(0,0,0)" />
	<polygon points="299.486,351.457 297.544,353.744 294.357,355.662 293.348,356.117 288.843,357.54 288.777,357.56 283.899,359.022 279.578,360.941 276.25,363.646 273.931,367.756 273.372,371.574 273.782,371.022 274.036,370.747 274.881,370.026 275.179,369.827 276.207,369.31 276.546,369.189 277.618,368.943 277.993,368.902 278.805,368.888 278.894,368.013 278.957,367.586 279.196,366.361 279.37,365.719 279.765,364.584 280.221,363.633 280.81,362.693 281.904,361.482 282.726,360.841 284.62,359.955 285.714,359.718 288.344,359.906 289.76,360.431 290.925,361.063 292.793,362.449 292.896,362.528 295.266,364.389 298.208,366.395 301.703,368.233 301.004,367.328 300.529,366.574 299.856,365.243 299.535,364.425 299.117,362.973 298.953,362.11 298.809,360.573 298.794,359.911 298.847,358.805 298.879,358.436 299.017,357.345 299.056,357.095 299.252,356.021 299.278,355.888 299.502,354.831 299.505,354.816 299.718,353.828 299.88,352.979 299.975,352.287 300.006,351.711 299.996,351.479 299.967,351.254 299.923,351.059 299.86,350.874 299.783,350.71 " fill="none" stroke-width="0.5" stroke="rgb(0,0,0)" />
	<polygon points="386.773,305.966 385.842,306.738 384.736,307.974 383.6,309.582 382.526,311.457 381.582,313.492 380.874,315.433 380.62,316.743 380.407,319.068 380.23,322.054 380.043,325.238 380.033,325.37 379.771,328.375 379.73,328.71 379.326,331.231 379.117,332.054 378.504,333.789 376.833,336.027 376.824,336.033 378.664,337.349 379.333,337.93 381.819,340.539 382.406,341.296 384.236,344.234 384.678,345.154 385.808,348.354 386.046,349.388 386.432,352.784 386.443,353.736 386.219,356.235 386.111,356.825 389.72,352.654 390.256,352.127 394.868,348.263 395.995,347.563 402.019,344.915 402.464,344.794 401.361,344.047 400.232,342.959 399.877,342.577 398.6,341.039 398.494,340.906 397.143,339.153 395.847,337.491 395.539,337.133 394.649,337.903 393.439,338.956 393.298,339.074 392.15,339.997 391.736,340.294 390.715,340.946 389.52,341.492 388.685,341.74 386.765,341.897 386.578,341.874 385.444,341.585 385.275,341.519 384.314,341.006 384.166,340.903 383.427,340.268 383.301,340.135 382.765,339.45 382.664,339.293 382.293,338.594 382.218,338.418 381.979,337.703 381.932,337.516 381.811,336.773 381.795,336.579 381.838,335.45 382.116,333.714 382.309,332.94 383.042,330.791 383.149,330.509 384.185,328.009 384.202,327.968 385.365,325.237 386.478,322.409 387.401,319.57 388.016,316.806 388.247,314.021 388.221,312.588 388.107,310.765 387.877,308.91 387.521,307.245 387.087,306.026 386.983,305.856 " fill="none" stroke-width="0.5" stroke="rgb(0,0,0)" />
	<polygon points="55.191,335.737 56.0705,342.948 59.7395,348.848 65.5124,354.561 65.3813,354.272 65.0799,353.381 64.5837,351.219 64.4649,350.215 64.4396,347.753 64.5453,346.713 65.0367,344.438 65.3471,343.496 66.2756,341.439 66.7308,340.647 68.0167,338.841 68.5658,338.201 68.9381,337.838 66.4249,337.529 66.0125,337.46 63.1422,336.844 62.5081,336.66 60.0394,335.754 59.2431,335.373 57.1023,334.09 56.3264,333.508 56.0046,333.211 " fill="none" stroke-width="0.5" stroke="rgb(0,0,0)" />
	<polygon points="322.817,321.848 321.03,324.167 319.73,325.053 318.446,325.666 318.366,325.691 318.756,326.05 319.459,326.863 320.066,327.754 320.595,328.783 320.924,329.679 321.181,330.77 321.28,331.644 321.276,332.724 321.119,334.046 320.809,335.256 320.367,336.348 319.719,337.472 319.034,338.35 318.198,339.184 317.315,339.865 316.485,340.378 315.446,340.879 314.725,341.156 313.573,341.494 312.975,341.628 311.752,341.818 311.254,341.869 310.004,341.928 309.666,341.932 308.735,341.91 308.56,341.902 307.597,341.843 307.49,341.835 306.498,341.752 306.453,341.748 305.439,341.652 304.43,341.559 303.45,341.483 302.499,341.431 301.593,341.412 300.442,341.448 299.508,341.545 299.634,341.727 300.126,342.653 300.844,342.08 302.812,341.817 306.449,342.108 307.216,342.233 310.503,343.057 311.264,343.318 314.16,344.601 314.892,345.006 317.354,346.674 318.035,347.235 318.571,347.768 318.811,345.063 318.915,344.416 319.564,341.622 319.674,341.229 320.591,338.415 320.655,338.234 321.706,335.407 322.722,332.665 323.546,330.116 324.077,327.798 324.269,325.588 324.245,324.957 324.159,324.231 324.013,323.521 323.799,322.814 323.509,322.097 323.129,321.358 323.039,321.217 " fill="none" stroke-width="0.5" stroke="rgb(0,0,0)" />
	<polygon points="123.418,321.255 122.684,321.802 120.755,322.965 119.87,323.38 117.736,324.121 116.723,324.351 116.584,324.367 117.255,324.737 119.041,325.962 119.718,326.526 121.261,328.08 121.818,328.757 123.063,330.595 123.491,331.378 124.383,333.458 124.661,334.334 125.144,336.61 125.246,337.629 125.226,339.868 125.128,340.779 124.691,342.885 124.418,343.762 123.703,345.451 124.147,344.979 124.864,344.358 126.559,343.166 127.209,342.782 129.19,341.82 129.783,341.58 131.962,340.868 132.531,340.721 134.819,340.278 135.402,340.203 137.712,340.051 138.174,340.045 138.02,340.013 135.319,339.141 134.409,338.737 132.101,337.402 131.324,336.84 129.418,335.139 128.804,334.474 127.308,332.503 126.853,331.773 125.774,329.629 125.463,328.843 124.81,326.622 124.642,325.762 124.423,323.561 124.416,322.705 124.553,321.053 124.67,320.331 124.737,320.058 " fill="none" stroke-width="0.5" stroke="rgb(0,0,0)" />
	<polygon points="183.258,337.814 185.889,339.678 188.608,341.138 191.497,342.259 194.638,343.085 197.135,343.49 191.447,341.83 190.696,341.538 184.648,338.575 183.972,338.17 182.38,337.024 " fill="none" stroke-width="0.5" stroke="rgb(0,0,0)" />
	<polygon points="219.409,338.401 218.577,341.31 218.573,341.313 219.552,340.722 220.482,339.88 220.702,339.539 220.595,339.135 219.825,338.244 219.158,337.766 " fill="none" stroke-width="0.5" stroke="rgb(0,0,0)" />
	<polygon points="355.866,334.252 356.822,332.255 356.629,332.23 356.502,332.205 355.864,332.034 355.745,331.993 355.051,331.689 354.945,331.632 354.401,331.268 " fill="none" stroke-width="0.5" stroke="rgb(0,0,0)" />
	<polygon points="205.148,314.59 203.968,317.98 203.547,321.256 203.753,323.581 204.369,325.811 205.354,327.834 206.685,329.631 208.35,331.178 210.343,332.442 212.207,333.2 211.816,332.935 211.238,332.475 208.635,330.043 207.812,329.023 205.97,325.948 205.375,324.353 204.677,320.408 204.617,319.241 204.707,318.03 204.781,317.48 205.051,316.095 205.152,315.675 205.602,314.135 205.715,313.798 206.188,312.537 " fill="none" stroke-width="0.5" stroke="rgb(0,0,0)" />
	<polygon points="364.86,329.311 363.435,330.165 363.332,330.225 362.232,330.847 365.605,331.31 366.29,331.457 366.91,331.639 366.741,331.083 366.668,330.812 366.242,329.033 366.121,328.571 " fill="none" stroke-width="0.5" stroke="rgb(0,0,0)" />
	<polygon points="74.1801,306.878 72.595,311.28 71.606,315.072 71.268,318.202 71.3041,319.482 71.4501,320.865 71.7302,322.187 72.1866,323.512 72.8851,324.914 73.9139,326.45 75.3679,328.151 75.5749,328.348 75.577,328.336 75.8074,327.491 76.5683,325.466 76.963,324.66 78.0673,322.862 78.6156,322.137 80.0333,320.599 80.7107,319.993 82.4117,318.746 83.183,318.286 85.1373,317.363 85.9606,317.064 88.138,316.497 89.0132,316.356 91.447,316.195 92.4024,316.23 94.6495,316.541 95.5775,316.768 97.6198,317.494 98.4475,317.883 100.267,318.964 100.958,319.465 102.536,320.844 103.086,321.414 104.405,323.032 104.636,323.366 105.337,323.159 105.639,323.081 106.462,322.897 106.598,322.871 105.063,321.928 104.24,321.287 102.885,319.964 102.276,319.234 101.265,317.738 100.855,316.995 100.163,315.42 99.9108,314.687 99.5137,313.124 99.3867,312.374 99.2903,311.265 97.1587,312.493 96.2041,312.91 93.6896,313.689 92.7452,313.879 90.0576,314.135 89.1574,314.135 87.3994,313.964 86.519,313.793 84.8153,313.289 83.9831,312.953 82.3891,312.125 81.6225,311.627 80.1935,310.486 79.5221,309.83 78.3134,308.387 77.7771,307.594 76.8441,305.858 76.4803,304.976 75.8783,302.958 75.8712,302.921 " fill="none" stroke-width="0.5" stroke="rgb(0,0,0)" />
	<polygon points="371.365,283.503 371.745,283.92 373.932,286.629 374.643,287.848 375.46,289.908 375.159,293.995 374.293,295.492 372.707,297.129 370.374,298.58 369.634,298.954 366.233,300.31 365.837,300.448 361.767,301.664 361.505,301.734 357.165,302.762 356.951,302.807 352.739,303.6 352.514,303.636 348.83,304.146 348.492,304.18 345.734,304.361 345.001,304.352 344.409,304.298 343.433,304.104 342.998,303.968 343.21,305.057 343.282,306.336 343.181,307.582 343.017,308.486 342.703,309.592 342.27,310.627 341.726,311.585 340.988,312.563 340.199,313.365 339.286,314.086 338.235,314.724 337.35,315.141 336.562,315.417 339.796,316.901 340.483,317.29 345.342,320.602 345.963,321.108 349.98,324.994 350.509,325.603 352.409,328.208 352.307,327.828 352.291,327.706 352.363,326.087 352.581,325.1 352.866,324.227 353.44,322.917 353.602,322.584 354.415,321.068 354.494,320.927 355.426,319.325 355.447,319.288 355.747,318.782 355.145,318.632 353.051,318.135 352.851,318.083 351.003,317.558 350.341,317.314 349.033,316.719 347.124,315.127 346.628,314.415 345.79,311.509 346.213,309.77 346.416,309.326 347.94,307.473 348.513,307.06 349.389,306.562 350.273,306.178 350.738,306.005 351.876,305.648 352.146,305.572 353.481,305.24 353.649,305.201 355.122,304.891 355.228,304.87 356.783,304.58 356.847,304.569 358.291,304.32 361.434,303.588 364.694,302.486 367.935,301.031 370.911,299.288 373.386,297.355 375.159,295.38 376.145,293.534 376.473,291.684 376.197,289.429 375.408,287.409 374.134,285.535 372.37,283.732 370.183,281.996 368.993,281.196 " fill="none" stroke-width="0.5" stroke="rgb(0,0,0)" />
	<polygon points="420.283,322.021 420.51,322.311 420.727,322.746 420.739,322.835 421.242,321.857 " fill="none" stroke-width="0.5" stroke="rgb(0,0,0)" />
	<polygon points="400.317,302.734 400.929,304.648 401.969,306.734 403.389,308.869 405.11,310.943 407.037,312.86 409.067,314.532 411.222,315.977 412.229,316.594 413.381,317.231 414.602,317.876 413.895,316.715 413.812,316.573 412.004,313.354 409.837,309.838 407.337,306.524 404.593,303.877 401.749,302.23 400.226,301.943 " fill="none" stroke-width="0.5" stroke="rgb(0,0,0)" />
	<polygon points="125.81,287.839 125.866,288.005 127.824,294.221 127.925,294.594 129.311,300.701 129.409,301.329 129.934,307.3 129.931,308.163 129.701,310.545 129.535,311.411 129.395,311.891 130.001,311.439 131.327,310.747 131.806,310.588 133.737,310.37 133.917,310.387 135.115,310.664 135.265,310.72 136.626,311.51 136.747,311.611 137.729,312.738 137.823,312.89 138.29,313.881 138.36,314.09 138.534,314.776 138.581,315.048 138.637,315.486 138.664,315.828 138.677,316.102 138.682,316.344 138.716,316.689 138.759,316.844 138.845,317.02 138.955,317.169 139.078,317.281 139.232,317.37 139.485,317.452 139.952,317.498 140.376,317.46 140.68,317.372 140.881,317.267 141.022,317.152 141.132,317.017 141.224,316.84 141.295,316.598 141.299,316.55 140.298,311.861 137.289,305.616 132.678,297.891 127.269,289.018 127.165,288.839 124.332,283.695 " fill="none" stroke-width="0.5" stroke="rgb(0,0,0)" />
	<polygon points="434.829,287.047 434.638,288.822 434.383,289.653 433.922,290.688 433.25,291.81 433.042,292.127 432.091,293.458 432.029,293.543 430.957,294.974 429.955,296.351 429.696,296.747 430.091,297.01 431.881,298.023 433.808,299.064 433.918,299.125 435.623,300.105 436.064,300.393 437.249,301.264 438.575,302.77 438.983,303.505 439.086,307.869 438.997,308.049 438.223,309.169 438.084,309.318 437.174,310.076 436.985,310.197 436.177,310.609 435.939,310.702 435.319,310.898 435.032,310.967 434.579,311.053 434.242,311.1 433.918,311.133 433.533,311.16 433.3,311.17 432.866,311.178 432.639,311.177 431.87,311.155 431.679,311.145 430.832,311.086 430.726,311.077 429.823,310.994 429.78,310.989 428.844,310.894 427.922,310.801 427.055,310.725 426.603,310.696 426.596,310.934 426.563,312.768 426.558,312.921 426.468,314.723 426.423,315.175 426.205,316.652 426.403,316.518 428.364,315.462 429.227,315.102 431.384,314.447 432.294,314.266 434.598,314.041 435.224,314.022 437.266,314.096 437.633,314.124 438.853,314.264 438.827,313.997 438.753,312.487 438.762,311.885 438.957,309.427 439.081,308.669 439.661,306.326 439.925,305.554 440.882,303.393 441.314,302.622 441.318,302.617 439.862,301.629 439.114,300.156 437.148,293.652 435.017,287.472 434.824,286.991 " fill="none" stroke-width="0.5" stroke="rgb(0,0,0)" />
	<polygon points="321.506,313.742 321.852,314.205 321.957,313.903 322.134,313.787 320.796,312.989 320.67,312.899 " fill="none" stroke-width="0.5" stroke="rgb(0,0,0)" />
	<polygon points="311.654,302.306 311.022,302.815 306.432,305.899 305.575,306.354 299.692,308.737 304.242,308.275 304.914,308.256 307.727,308.374 308.132,308.409 310.771,308.751 311.202,308.827 313.605,309.369 314.092,309.507 316.197,310.227 316.784,310.474 318.529,311.35 319.272,311.814 319.661,312.111 318.508,311.131 317.857,310.456 316.539,308.782 315.949,307.81 315.075,305.878 314.707,304.618 314.391,302.444 314.375,301.215 314.577,299.503 " fill="none" stroke-width="0.5" stroke="rgb(0,0,0)" />
	<polygon points="107.767,291.993 107.757,292.302 107.48,296.508 107.38,297.21 106.588,300.81 106.351,301.562 107.973,301.685 108.257,301.842 110.068,303.647 110.302,304.063 110.531,304.529 110.605,304.705 110.697,304.697 110.735,304.683 110.873,304.406 111.074,303.696 111.232,302.568 111.289,301.142 110.965,296.42 110.106,291.924 108.845,287.426 107.767,284.13 " fill="none" stroke-width="0.5" stroke="rgb(0,0,0)" />
	<polygon points="54.1642,273.023 53.7257,274.026 53.4464,275.32 53.4329,276.771 53.7549,278.299 54.6047,280.116 54.9474,280.658 55.4205,281.388 55.4515,281.436 55.8966,282.142 55.9929,282.302 56.3844,282.981 56.5405,283.275 56.8662,283.946 57.0552,284.392 57.303,285.073 57.4744,285.661 57.632,286.37 57.7313,287.047 57.7866,287.804 57.7423,288.874 57.4012,291.05 57.1931,291.878 56.2475,294.574 56.0444,295.063 55.0558,297.109 55.0983,297.049 59.1418,291.16 61.6864,286.477 62.5245,282.828 62.5235,282.807 62.4679,282.432 62.3837,282.114 62.2678,281.821 62.1053,281.522 61.8709,281.191 61.535,280.811 60.9189,280.241 60.908,280.231 58.9859,278.44 58.7076,278.158 57.1935,276.488 57.02,276.285 55.7972,274.772 55.7725,274.741 54.8213,273.543 54.2462,272.91 " fill="none" stroke-width="0.5" stroke="rgb(0,0,0)" />
	<polygon points="458.343,286.487 456.987,287.115 455.622,288.245 454.176,289.991 452.678,292.308 451.123,295.064 450.961,295.361 451.124,295.307 452.12,295.095 454.827,294.819 456.051,294.855 459.239,295.369 460.579,295.797 462.918,296.957 462.755,295.047 462.783,294.912 462.789,294.871 462.8,294.761 462.811,294.588 462.82,294.358 462.825,294.076 462.827,293.748 462.827,293.493 462.75,291.923 462.527,290.396 462.153,288.956 461.666,287.755 461.147,286.922 460.719,286.495 460.418,286.335 459.957,286.261 " fill="none" stroke-width="0.5" stroke="rgb(0,0,0)" />
	<polygon points="336.43,292.846 337.218,294.076 338.541,295.889 338.836,296.29 338.868,296.149 339.167,295.255 339.504,294.507 339.652,294.207 340.128,293.324 340.168,293.252 340.318,292.984 338.891,292.886 336.669,292.842 " fill="none" stroke-width="0.5" stroke="rgb(0,0,0)" />
	<polygon points="91.8971,270.258 91.8414,270.385 88.9436,276.713 88.8812,276.844 85.9675,282.721 85.9276,282.8 83.5723,287.335 81.7473,290.857 83.1111,290.816 83.6271,290.973 85.1814,291.79 85.7029,292.205 86.1589,292.619 86.7239,293.204 87.2316,293.729 87.5748,294.027 87.7792,294.155 87.9253,294.209 88.159,294.235 89.2956,294.079 89.7015,293.861 90.1119,293.364 90.6869,291.964 91.1986,289.476 91.5304,285.994 91.6874,281.622 91.7244,276.406 91.731,276.188 92.0705,269.848 " fill="none" stroke-width="0.5" stroke="rgb(0,0,0)" />
	<polygon points="420.297,262.712 420.1,263.512 419.645,264.848 419.503,265.212 418.859,266.687 418.788,266.842 418.049,268.379 418.041,268.397 417.75,268.994 417.896,269.027 419.748,269.436 419.959,269.487 421.583,269.925 422.234,270.153 423.383,270.653 425.303,272.19 425.739,272.786 426.643,275.673 426.087,277.78 425.621,278.651 423.697,280.574 422.423,281.256 421.519,281.625 419.628,282.176 419.26,282.267 416.942,282.744 416.828,282.766 414.301,283.221 411.838,283.696 409.722,284.212 408.027,284.813 406.639,285.458 405.425,286.133 404.481,286.779 403.813,287.359 403.406,287.832 403.353,287.923 403.961,288.025 405.23,288.125 406.663,288.154 410.398,287.915 413.759,287.295 416.851,286.403 419.658,285.354 422.174,284.265 424.35,283.275 424.515,283.204 426.256,282.492 427.036,282.25 428.276,281.98 429.669,281.888 429.856,281.904 430.695,282.052 430.864,282.098 431.735,282.43 431.884,282.505 432.719,283.039 432.844,283.14 433.564,283.856 433.571,283.865 432.666,281.608 430.063,276.115 427.178,271.045 423.985,266.445 420.455,262.352 420.365,262.27 " fill="none" stroke-width="0.5" stroke="rgb(0,0,0)" />
	<polygon points="391.78,266.054 391.752,266.183 391.142,268.756 391.141,268.76 390.545,271.264 390.052,273.608 389.727,275.747 389.611,277.703 389.661,278.911 389.819,280.105 390.07,281.13 390.367,281.881 390.576,282.214 390.849,281.948 391.39,281.165 391.934,280.033 392.385,278.636 392.682,277.062 392.794,275.289 392.747,273.028 392.618,270.8 392.433,268.707 392.218,266.755 392.001,264.989 " fill="none" stroke-width="0.5" stroke="rgb(0,0,0)" />
	<polygon points="133.117,216.809 128.944,218.13 124.795,220.001 120.871,222.413 117.353,225.348 116.972,225.792 123.879,220.749 126.767,219.847 129.606,220.891 131.221,223.449 130.831,226.694 129.684,228.925 128.829,231.088 128.141,233.366 127.611,235.692 127.229,237.998 126.98,240.217 126.846,242.281 126.812,243.841 128.226,253.981 131.98,263.941 137.464,273.891 141.073,279.361 140.686,278.452 140.46,275.435 141.114,274.183 141.155,274.071 141.145,274.067 141.155,274.047 141.028,273.327 140.509,272.164 139.47,270.433 138.108,268.341 138.041,268.235 136.632,265.939 136.439,265.593 135.209,263.149 134.949,262.524 134.079,259.916 133.87,258.982 133.54,256.194 134.17,253.235 135.215,252.224 135.116,251.304 134.707,249.612 134.037,247.439 133.217,244.979 133.206,244.945 132.371,242.371 132.321,242.208 131.592,239.65 131.512,239.327 130.997,236.868 130.914,236.306 130.718,234.029 131.443,231.092 133.909,229.712 134.045,227.997 134.064,227.8 134.365,225.332 134.403,225.076 134.863,222.498 134.932,222.175 135.59,219.563 135.709,219.165 136.604,216.594 136.801,216.114 136.812,216.091 " fill="none" stroke-width="0.5" stroke="rgb(0,0,0)" />
	<polygon points="341.741,270.752 338.889,272.346 337.564,273.774 337.083,275.672 337.149,276.179 337.336,276.597 337.627,276.934 338.171,277.313 339.02,277.682 340.104,277.969 341.297,278.139 342.502,278.193 342.6,278.191 342.556,277.668 342.496,277.061 342.432,276.445 342.428,276.409 342.372,275.819 342.363,275.715 342.323,275.17 342.313,274.972 342.298,274.483 342.316,273.902 342.34,273.64 342.497,272.796 342.569,272.542 342.877,271.741 342.994,271.504 343.457,270.752 343.618,270.54 344.243,269.862 344.419,269.706 " fill="none" stroke-width="0.5" stroke="rgb(0,0,0)" />
	<polygon points="350.673,267.339 350.274,267.508 348.183,268.282 349.748,268.432 351.831,269.057 352.73,269.431 353.789,270.008 353.67,269.783 353.506,269.243 353.634,266.144 353.743,265.867 " fill="none" stroke-width="0.5" stroke="rgb(0,0,0)" />
	<polygon points="359.917,244.368 358.129,245.843 357.383,246.346 355.332,247.461 354.485,247.819 352.222,248.523 351.299,248.712 350.802,248.762 352.418,249.385 354.905,249.997 358.056,250.259 360.83,251.466 362.293,254.113 361.894,256.997 360.15,260.585 358.933,262.126 359.457,262.028 359.834,261.973 360.812,261.872 361.048,261.853 362.031,261.801 362.181,261.796 363.09,261.777 363.172,261.776 363.91,261.773 364.329,261.768 364.294,261.271 364.294,261.257 364.229,260.275 364.226,260.232 364.17,259.236 364.166,259.161 364.126,258.176 364.123,258.061 364.108,257.114 364.108,256.975 364.117,256.338 364.122,256.172 364.151,255.579 364.169,255.34 364.222,254.805 364.271,254.452 364.354,253.987 364.483,253.449 364.599,253.065 364.947,252.22 365.1,251.932 366.044,250.701 366.24,250.518 367.12,250.033 366.52,249.849 365.683,249.5 364.565,248.902 363.816,248.404 362.826,247.599 362.181,246.962 361.354,245.969 360.836,245.206 360.217,244.068 " fill="none" stroke-width="0.5" stroke="rgb(0,0,0)" />
	<polygon points="443.629,248.736 444.517,251.058 445.695,253.978 445.697,253.983 447.05,257.348 447.075,257.409 448.462,261.005 448.507,261.125 448.547,261.237 449.762,258.945 449.821,258.838 451.503,255.856 451.545,255.783 452.86,253.548 451.688,252.956 451.527,252.87 448.072,250.952 447.796,250.786 444.319,248.532 443.918,248.24 443.239,247.691 " fill="none" stroke-width="0.5" stroke="rgb(0,0,0)" />
	<polygon points="380.318,194.869 380.318,195.828 380.167,197.3 379.976,198.229 379.544,199.604 379.184,200.451 378.502,201.698 377.999,202.441 377.098,203.53 376.47,204.157 375.379,205.058 374.73,205.497 375.139,205.67 376.535,206.426 377.285,206.931 378.501,207.933 379.136,208.568 380.139,209.782 380.645,210.532 381.401,211.926 381.76,212.776 382.238,214.316 382.425,215.238 382.592,216.893 382.592,217.833 382.425,219.493 382.239,220.413 381.761,221.958 381.403,222.807 380.647,224.204 380.141,224.955 379.138,226.171 378.503,226.807 377.287,227.81 376.536,228.316 375.332,228.969 376.413,229.533 377.162,230.019 378.166,230.817 378.812,231.439 379.636,232.4 380.16,233.148 380.779,234.245 381.158,235.107 381.547,236.309 381.75,237.264 381.885,238.543 381.891,239.475 381.755,240.922 381.581,241.821 381.191,243.135 380.834,244.008 380.214,245.171 379.682,245.963 378.857,246.956 378.179,247.622 377.174,248.427 376.389,248.936 375.228,249.534 374.378,249.872 373.086,250.244 373.012,250.258 373.838,250.748 374.927,251.717 375.445,252.257 376.563,253.628 376.757,253.883 377.87,255.454 377.917,255.521 378.455,256.309 379.028,255.709 380.245,254.431 380.425,254.252 381.612,253.133 382.134,252.707 383.26,251.915 384.658,251.245 385.697,250.945 387.403,250.777 387.704,250.803 388.73,251.008 388.985,251.089 390.193,251.676 390.404,251.818 391.436,252.77 391.604,252.981 392.221,253.987 392.349,254.271 392.629,255.082 392.718,255.446 392.823,256.023 392.834,256.12 393.264,255.567 393.443,255.383 394.329,254.672 394.537,254.543 395.552,254.071 395.784,253.995 396.784,253.785 397.035,253.76 399.145,254.036 400.122,254.402 401.588,255.283 402.554,256.138 403.081,256.685 404.043,257.863 404.213,258.085 405.168,259.407 405.991,260.531 406.592,260.129 407.802,259.195 409.081,258.166 409.172,258.095 410.38,257.17 410.751,256.914 411.8,256.26 412.081,256.134 407.522,254.385 402.118,252.867 396.728,251.363 396.274,251.21 391.461,249.319 390.473,248.787 386.596,246.055 385.348,244.752 382.761,240.722 382.077,238.938 381.136,233.154 381.086,232.07 381.222,230.142 381.278,229.677 381.635,227.595 381.687,227.336 382.192,225.139 382.218,225.031 382.795,222.769 383.355,220.542 383.815,218.451 384.116,216.563 384.224,214.835 384.215,214.454 384.182,214.034 384.131,213.675 384.067,213.378 383.995,213.141 383.92,212.957 383.845,212.814 383.621,212.481 382.829,209.562 383.98,206.765 386.597,205.248 389.575,205.63 394.882,208.211 395.811,208.806 399.443,211.791 400.266,212.667 402.233,215.384 403.204,213.578 407.106,212.369 413.839,213.381 414.368,213.492 419.826,214.969 420.653,215.279 425.097,217.44 426.043,218.05 429.737,221.114 430.468,221.874 433.672,226.06 434.078,226.689 434.482,227.44 434.552,226.971 434.883,225.806 436.628,221.746 437.079,220.932 439.602,217.278 440.048,216.725 443.033,213.557 443.449,213.166 446.58,210.562 446.992,210.256 449.953,208.298 450.45,208.011 452.925,206.778 453.855,206.431 454.986,206.142 452.745,205.499 451.43,205.345 450.541,205.495 448.629,206.183 445.777,207.37 445.691,207.405 442.102,208.815 441.845,208.908 437.535,210.318 437.171,210.421 432.05,211.652 431.624,211.734 425.602,212.604 425.151,212.647 418.137,212.977 417.321,212.945 404.556,211.314 403.29,210.968 393.003,206.531 391.895,205.858 383.847,199.296 383.067,198.486 380.315,194.844 " fill="none" stroke-width="0.5" stroke="rgb(0,0,0)" />
	<polygon points="314.986,221.715 314.252,222.213 312.56,223.141 311.718,223.501 309.86,224.088 308.927,224.282 306.945,224.488 305.977,224.488 305.725,224.462 306.035,225.021 307.222,228.693 308.817,230.488 311.47,232.066 315.085,233.636 315.259,233.716 319.058,235.553 319.902,236.078 323.167,238.623 324.309,239.914 326.594,243.729 327.208,245.436 327.445,246.986 328.184,246.253 329.002,245.605 330.119,244.907 330.92,244.507 332.089,244.056 332.811,243.843 333.959,243.601 334.608,243.512 335.664,243.44 336.014,243.449 334.775,241.948 334.27,241.202 333.156,239.154 332.798,238.306 332.093,236.046 331.905,235.121 331.659,232.697 331.659,232.211 330.998,232.49 329.687,232.898 328.764,233.086 327.359,233.229 326.408,233.228 325.014,233.086 324.086,232.895 322.784,232.487 321.936,232.128 320.754,231.483 320.01,230.979 318.978,230.125 318.348,229.495 317.495,228.46 316.992,227.716 316.346,226.53 315.987,225.683 315.579,224.373 315.389,223.448 315.247,222.043 315.247,221.5 " fill="none" stroke-width="0.5" stroke="rgb(0,0,0)" />
	<polygon points="407.704,228.471 409.522,232.088 412.23,235.742 414.705,238.111 418.305,241.013 418.312,241.019 420.615,242.883 415.929,237.397 409.935,230.534 409.791,230.361 407.187,227.075 " fill="none" stroke-width="0.5" stroke="rgb(0,0,0)" />
	<polygon points="85.223,211.111 83.8296,212.549 83.2646,212.925 82.8466,213.172 82.1999,213.512 81.7997,213.698 81.4532,213.84 82.1097,214.018 82.792,214.306 83.8624,214.937 84.4338,215.386 85.2103,216.157 85.6731,216.738 86.1692,217.504 86.5255,218.192 86.8177,218.888 87.0695,219.656 87.2275,220.279 87.3771,221.1 87.4451,221.669 87.4945,222.517 87.469,223.349 87.0114,227.167 86.9088,227.731 86.1675,230.745 86.2233,230.616 86.3879,230.274 87.0749,228.983 87.3157,228.58 88.0274,227.515 88.3919,227.038 89.1201,226.202 89.689,225.651 90.4256,225.048 91.3173,224.474 92.0541,224.11 93.3592,223.688 94.0882,223.565 95.5214,223.546 96.1652,223.637 97.4268,224 98.0385,224.273 99.0867,224.918 99.6498,225.375 100.404,226.149 100.902,226.793 101.387,227.566 101.803,228.399 102.087,229.106 102.405,230.13 102.552,230.75 102.755,231.966 102.813,232.502 102.884,233.913 102.869,234.596 102.478,238.692 102.393,239.241 101.678,242.54 102.94,240.476 103.306,239.96 107.072,235.334 106.591,235.366 104.076,233.686 103.164,231.564 103.04,230.786 103.027,230.704 102.92,229.943 102.909,229.856 102.818,229.111 102.808,229.019 102.733,228.291 102.724,228.195 102.667,227.483 102.659,227.381 102.618,226.685 102.613,226.578 102.588,225.898 102.586,225.786 102.577,225.122 102.59,224.715 102.892,220.638 102.997,219.944 103.838,216.244 104.037,215.59 105.317,212.283 105.596,211.688 106.44,210.176 105.33,210.921 104.311,211.438 101.732,212.372 100.646,212.624 97.648,212.954 96.6123,212.954 93.4231,212.597 92.3689,212.354 89.5047,211.335 88.543,210.863 86.0348,209.255 85.7126,208.995 " fill="none" stroke-width="0.5" stroke="rgb(0,0,0)" />
	<polygon points="462.996,211.721 463.053,212.16 463.112,212.863 463.127,213.149 463.145,213.952 463.14,214.294 463.012,216.814 462.984,217.141 462.647,219.922 462.621,220.108 462.145,223.049 462.13,223.139 461.584,226.14 461.582,226.151 461.043,229.077 460.587,231.775 460.284,234.096 460.184,235.847 460.274,237.008 460.523,238.111 460.908,239.139 461.372,240.002 461.398,240.038 462.572,238.726 464.125,236.499 465.596,233.806 466.805,230.831 467.603,227.753 467.882,224.754 467.289,219.439 465.765,215.268 463.566,211.97 462.931,211.357 " fill="none" stroke-width="0.5" stroke="rgb(0,0,0)" />
	<polygon points="64.7147,212.056 63.0812,214.874 60.1777,217.279 60.7808,217.359 62.1271,217.747 62.7714,218.042 63.9645,218.829 64.4814,219.297 65.2766,220.233 65.6763,220.852 66.1056,221.692 66.3986,222.442 66.6026,223.106 66.7991,223.967 66.8856,224.471 66.9959,225.422 67.0245,225.805 67.059,226.825 67.055,227.234 66.914,229.878 67.0798,229.392 67.1742,229.139 69.7776,222.729 70.0802,222.116 72.7448,217.582 74.2631,216.005 75.7615,215.046 75.6874,215.051 74.5481,215.083 74.0255,215.069 71.7955,214.883 70.9947,214.746 68.923,214.204 68.1153,213.911 66.2448,213.033 65.4616,212.568 64.7082,212.015 " fill="none" stroke-width="0.5" stroke="rgb(0,0,0)" />
	<polygon points="364.907,229.37 364.938,229.353 364.904,229.339 " fill="none" stroke-width="0.5" stroke="rgb(0,0,0)" />
	<polygon points="338.123,211.162 337.366,211.669 335.552,212.644 334.775,212.969 334.818,213.004 335.449,213.634 336.306,214.669 336.811,215.415 337.459,216.602 337.819,217.45 338.228,218.76 338.265,218.938 338.668,218.606 339.414,218.102 341.463,216.987 342.311,216.628 342.408,216.598 341.863,216.148 341.231,215.516 340.375,214.48 339.871,213.734 339.225,212.546 338.866,211.699 338.581,210.786 " fill="none" stroke-width="0.5" stroke="rgb(0,0,0)" />
	<polygon points="356.696,217.002 356.102,217.405 356.832,217.801 356.832,216.892 356.832,216.89 " fill="none" stroke-width="0.5" stroke="rgb(0,0,0)" />
	<polygon points="58.5029,200.196 56.7444,201.925 56.4123,202.222 54.6321,203.667 54.242,203.952 52.4551,205.121 52.0009,205.383 50.2223,206.281 49.6999,206.506 47.9444,207.14 47.3527,207.311 45.6354,207.687 44.9798,207.782 43.3156,207.906 42.4941,207.895 40.403,207.684 39.4192,207.476 37.4947,206.849 36.535,206.412 34.8118,205.379 33.9729,204.738 33.109,203.909 34.1862,205.169 35.7133,206.596 37.1513,207.619 38.5469,208.329 39.9824,208.802 41.5525,209.08 43.3741,209.176 44.8668,209.136 46.5123,209.012 48.2674,208.805 50.1427,208.52 52.1478,208.16 54.2912,207.728 56.5816,207.231 59.0407,206.672 60.2622,206.799 60.1889,206.671 59.7855,205.751 59.1482,203.736 58.9522,202.781 58.7302,200.533 58.7361,199.946 " fill="none" stroke-width="0.5" stroke="rgb(0,0,0)" />
	<polygon points="361.325,205.706 361.467,207.107 361.467,207.482 362.13,206.935 362.879,206.429 363.225,206.241 363.209,206.234 361.969,205.553 361.23,205.05 361.182,205.01 " fill="none" stroke-width="0.5" stroke="rgb(0,0,0)" />
	<polygon points="113.55,199.903 113.342,200.608 112.556,202.657 114.318,201.294 114.908,200.905 116.821,199.841 114.455,198.695 113.991,197.83 " fill="none" stroke-width="0.5" stroke="rgb(0,0,0)" />
	<polygon points="124.101,195.903 123.432,196.004 122.938,196.141 122.624,196.28 122.465,196.386 122.398,196.452 122.35,196.523 122.114,197.108 121.037,198.359 121.183,198.322 121.468,198.261 122.61,198.051 122.858,198.012 124.041,197.859 124.254,197.836 125.477,197.734 125.656,197.723 126.916,197.666 127.063,197.662 128.358,197.644 128.543,197.646 130.686,197.701 130.892,197.711 132.026,197.79 131.782,197.657 129.31,196.66 127.001,196.07 124.811,195.87 " fill="none" stroke-width="0.5" stroke="rgb(0,0,0)" />
	<polygon points="355.678,195.099 354.834,195.457 352.739,196.114 352.329,196.199 352.607,196.256 353.916,196.665 354.763,197.024 355.95,197.67 356.632,198.131 356.461,197.3 356.31,195.828 356.31,194.868 356.323,194.747 " fill="none" stroke-width="0.5" stroke="rgb(0,0,0)" />
	<polygon points="313.542,196.147 312.402,196.502 312.565,196.572 313.935,197.325 314.062,196.047 314.088,195.916 " fill="none" stroke-width="0.5" stroke="rgb(0,0,0)" />
	<polygon points="344.291,196.045 344.412,197.253 344.835,197.022 345.683,196.664 346.719,196.341 346.375,196.306 345.446,196.114 344.228,195.732 " fill="none" stroke-width="0.5" stroke="rgb(0,0,0)" />
	<polygon points="61.7989,189.256 61.5366,189.329 59.7624,189.768 59.4714,189.83 57.7816,190.137 57.4633,190.183 56.6615,190.273 59.1427,190.68 60.5723,192.205 60.8004,191.74 62.2924,189.366 62.5533,189.022 " fill="none" stroke-width="0.5" stroke="rgb(0,0,0)" />
	<polygon points="40.9364,188.591 42.6442,189.355 44.5048,189.937 46.4874,190.34 48.5514,190.572 50.7032,190.648 51.342,190.642 52.0515,190.62 52.7652,190.584 53.4744,190.533 54.1704,190.469 54.5536,190.425 53.9713,190.447 53.5495,190.444 51.0894,190.316 50.6479,190.273 48.3657,189.937 48.0237,189.873 45.901,189.398 45.6819,189.344 43.7005,188.799 43.6244,188.777 41.8123,188.246 40.2543,187.824 39.4316,187.658 " fill="none" stroke-width="0.5" stroke="rgb(0,0,0)" />
	<polygon points="109.109,157.362 108.751,158.208 108.104,159.396 107.601,160.141 106.746,161.177 106.116,161.808 105.081,162.664 104.337,163.168 103.151,163.815 102.303,164.174 100.995,164.584 100.068,164.774 98.6667,164.917 97.7159,164.917 96.3088,164.774 95.3846,164.585 94.0719,164.176 93.2253,163.818 92.0355,163.171 91.2905,162.668 90.2526,161.812 89.8105,161.37 89.4961,162.451 89.3587,162.854 88.1073,166.045 87.9369,166.428 87.4093,167.485 89.1433,166.35 91.9465,166.494 95.2894,167.731 95.81,167.96 99.1855,169.699 99.6743,169.989 102.935,172.204 103.417,172.58 106.416,175.246 106.897,175.742 109.485,178.835 109.944,179.489 111.976,182.983 112.359,183.821 112.806,185.124 113.14,182.978 113.297,182.3 114.016,179.996 114.373,179.152 115.416,177.233 116.076,176.307 117.462,174.79 118.429,173.982 120.179,172.881 121.273,172.375 122.139,172.102 118.617,170.087 117.78,169.477 114.887,166.833 114.233,166.095 112.011,162.984 111.556,162.197 109.989,158.748 109.713,157.96 109.358,156.564 " fill="none" stroke-width="0.5" stroke="rgb(0,0,0)" />
	<polygon points="367.308,165.149 366.801,165.897 365.989,166.879 365.355,167.512 364.371,168.322 363.622,168.826 362.493,169.438 361.645,169.795 360.819,170.051 361.984,171.458 362.488,172.2 363.527,174.099 363.887,174.945 364.546,177.038 364.737,177.968 364.967,180.207 364.967,181.168 364.737,183.402 364.626,183.937 365.418,183.687 366.351,183.493 367.807,183.343 368.768,183.342 370.24,183.493 371.167,183.683 372.543,184.114 373.387,184.472 374.202,184.916 372.26,180.945 371.996,180.283 369.23,171.434 369.09,170.864 367.874,164.107 " fill="none" stroke-width="0.5" stroke="rgb(0,0,0)" />
	<polygon points="163.296,163.115 163.039,163.338 159.451,166.224 159.081,166.494 155.295,168.975 154.809,169.254 150.735,171.276 150.156,171.517 145.708,173.028 145.085,173.193 140.173,174.138 139.566,174.215 137.852,174.317 141.46,176.831 142.022,177.29 145.416,180.536 145.791,180.939 148.813,184.596 148.864,183.876 148.909,183.478 149.515,179.623 149.682,178.921 150.641,175.925 151.177,174.795 152.568,172.656 153.882,171.321 155.785,170.039 157.618,169.305 160.112,168.878 161.808,168.898 163.536,169.236 164.695,169.625 166.656,170.583 167.328,170.983 168.407,171.755 166.809,168.695 166.582,168.189 164.779,163.442 164.645,163.037 164.384,162.101 " fill="none" stroke-width="0.5" stroke="rgb(0,0,0)" />
	<polygon points="80.148,178.421 79.6751,178.921 77.4003,181 79.0689,182.285 79.4014,181.103 79.5318,180.707 80.548,178.031 80.6384,177.819 " fill="none" stroke-width="0.5" stroke="rgb(0,0,0)" />
	<polygon points="343.159,162.002 342.38,162.65 338.274,165.373 337.478,165.797 333.472,167.459 333.695,167.643 334.329,168.276 335.141,169.258 335.647,170.006 336.259,171.133 336.334,171.309 337.582,169.801 338.209,169.175 339.869,167.803 340.61,167.302 342.51,166.264 343.355,165.905 345.447,165.248 346.375,165.057 347.89,164.902 347.411,164.02 347.052,163.171 346.665,161.926 346.477,161.003 346.342,159.667 346.342,158.725 346.343,158.715 " fill="none" stroke-width="0.5" stroke="rgb(0,0,0)" />
	<polygon points="201.557,162.19 201.68,162.968 201.766,162.889 202.378,162.62 202.176,162.428 201.5,161.48 " fill="none" stroke-width="0.5" stroke="rgb(0,0,0)" />
	<polygon points="85.2563,148.841 85.6928,149.226 86.2954,149.662 86.9446,150.113 87.2513,149.132 87.2833,149.057 87.2082,149.049 86.2807,148.859 84.9718,148.449 84.8939,148.416 " fill="none" stroke-width="0.5" stroke="rgb(0,0,0)" />
	<polygon points="123.893,106.384 122.426,111.684 120.836,118.042 120.815,118.123 119.089,124.539 118.997,124.84 117.081,130.437 116.753,131.177 114.744,134.834 115.285,134.544 116.544,134.208 119.777,134.505 121.069,135.121 123.3,137.361 124.064,138.983 124.414,140.027 124.892,142.321 124.928,142.516 125.334,144.979 125.814,146.984 126.294,148.014 126.447,148.156 127.027,148.29 127.049,148.284 127.444,148.101 127.954,147.761 128.543,147.225 129.18,146.445 129.833,145.369 130.483,143.883 130.819,142.859 131.153,141.7 131.44,140.547 131.676,139.411 131.861,138.301 131.993,137.23 132.071,136.21 132.097,135.258 132.055,133.893 131.938,132.835 131.823,132.326 131.26,132.457 130.53,132.714 129.755,133.063 129.012,133.466 128.372,133.872 127.915,134.21 127.505,134.573 124.716,135.743 121.791,134.972 119.942,132.578 120.049,129.25 121.892,124.819 122.215,124.183 124.557,120.33 124.994,119.726 127.778,116.455 128.318,115.916 131.444,113.266 130.659,112.876 129.141,111.728 128.527,111.172 127.025,109.55 126.818,109.31 125.324,107.46 124.073,105.928 " fill="none" stroke-width="0.5" stroke="rgb(0,0,0)" />
	<polygon points="94.9838,108.97 92.9746,110.924 92.896,110.998 90.7194,113.019 90.4097,113.283 88.1465,115.046 87.4699,115.485 85.1318,116.732 83.8284,117.196 81.4271,117.669 80.0191,117.731 78.8224,117.603 77.8388,117.369 78.1608,119.264 78.2196,119.784 78.4083,123.099 78.4147,123.471 78.383,124.897 78.3741,125.101 78.283,126.489 78.2664,126.682 78.1222,128.029 78.099,128.211 77.9078,129.513 77.8791,129.686 77.6471,130.937 77.6138,131.101 77.3472,132.3 77.31,132.455 77.0151,133.597 76.9746,133.744 76.6575,134.826 74.9178,137.301 72.2521,138.085 72.2727,138.087 73.4057,138.205 74.4658,138.308 74.49,138.31 75.482,138.412 75.5815,138.423 76.4758,138.534 76.6811,138.564 77.4653,138.696 77.4993,138.703 77.4275,137.997 77.4275,137.047 77.5701,135.643 77.7591,134.719 78.1676,133.409 78.5255,132.563 79.1714,131.375 79.6739,130.63 80.5285,129.594 81.1579,128.963 82.1926,128.107 82.9374,127.602 84.1235,126.954 84.9717,126.594 86.2806,126.184 87.2082,125.994 88.6113,125.851 89.5637,125.851 90.9687,125.994 91.8951,126.184 93.2059,126.593 94.0534,126.953 95.2413,127.6 95.986,128.104 97.0223,128.961 97.6521,129.591 98.5081,130.628 99.0114,131.372 99.6583,132.56 100.017,133.407 100.426,134.717 100.616,135.642 100.759,137.046 100.759,137.997 100.616,139.402 100.427,140.327 100.017,141.638 99.9828,141.72 100.068,141.728 100.995,141.918 102.303,142.327 103.15,142.687 104.336,143.333 105.08,143.837 106.115,144.692 106.744,145.321 107.6,146.356 108.103,147.1 108.408,147.66 108.412,147.606 108.581,145.997 108.623,145.688 108.927,143.928 109.009,143.548 109.467,141.783 109.634,141.264 110.264,139.639 110.638,138.883 111.253,137.878 110.38,138.403 107.423,139.043 105.77,138.532 103.133,137.143 101.096,135.04 99.3155,131.379 98.957,130.356 97.7905,125.18 97.717,124.769 96.9233,118.835 96.9108,118.733 96.2581,112.886 95.5923,108.425 " fill="none" stroke-width="0.5" stroke="rgb(0,0,0)" />
	<polygon points="314.662,122.145 312.936,122.611 311.413,123.321 310.093,124.23 308.994,125.283 308.141,126.413 307.555,127.531 307.094,128.984 305.302,131.421 304.341,131.698 305.383,132.52 306.669,133.373 307.883,134.023 309.054,134.497 310.223,134.823 311.439,135.017 312.794,135.086 313.231,135.073 313.799,135.028 314.434,134.958 315.114,134.871 315.804,134.778 315.843,134.773 316.497,134.69 316.622,134.676 317.211,134.617 317.47,134.598 317.977,134.576 318.451,134.579 319.015,134.612 319.613,134.684 320.122,134.78 320.81,134.964 321.257,135.12 322.029,135.472 322.407,135.688 323.216,136.27 323.521,136.543 324.262,137.386 324.487,137.715 325.025,138.76 325.165,139.142 325.421,140.239 325.469,140.672 325.473,141.666 325.394,142.44 325.262,143.163 325.035,144.021 324.902,144.428 326.782,144.278 329.758,143.541 332.548,142.302 333.929,141.333 332.174,141.873 329.339,140.816 328.15,139.36 327.649,138.405 327.132,137.592 326.506,136.768 325.769,135.951 324.917,135.157 323.946,134.401 322.851,133.696 321.437,132.961 321.019,132.745 320.415,132.374 320.053,132.111 319.495,131.637 319.195,131.337 318.716,130.781 318.475,130.45 318.097,129.841 317.913,129.486 317.641,128.855 317.512,128.481 317.343,127.853 317.267,127.467 317.188,126.857 317.163,126.464 317.179,125.681 317.257,124.938 317.42,124.108 317.644,123.338 317.885,122.693 318.141,122.135 318.046,122.115 317.188,121.996 316.685,121.968 " fill="none" stroke-width="0.5" stroke="rgb(0,0,0)" />
	<polygon points="57.6024,137.791 56.8256,139.144 57.2744,139.02 57.6294,138.937 60.1246,138.453 60.4459,138.402 62.8485,138.107 63.122,138.082 65.4292,137.935 65.6433,137.926 67.0573,137.9 66.7379,137.862 62.1812,137.041 61.5704,136.888 57.2147,135.481 57.0342,135.406 " fill="none" stroke-width="0.5" stroke="rgb(0,0,0)" />
	<polygon points="42.1248,119.821 42.7274,122.451 43.6943,124.798 45.0146,126.887 46.7009,128.739 48.7826,130.361 48.9243,130.439 48.3805,130.013 47.5994,129.237 44.9402,125.888 44.2971,124.807 42.5679,120.749 42.2301,119.506 41.9428,117.272 " fill="none" stroke-width="0.5" stroke="rgb(0,0,0)" />
	<polygon points="144.28,98.5673 143.726,101.58 143.148,104.808 143.066,105.181 142.319,108.007 142.201,108.303 144.715,107.731 145.414,107.627 149.544,107.325 150.416,107.342 155.292,107.894 156.391,108.155 159.333,109.241 155.475,106.003 155.443,105.975 150.992,102.171 147.044,98.9962 144.612,97.3927 " fill="none" stroke-width="0.5" stroke="rgb(0,0,0)" />
	<polygon points="69.5881,91.3393 64.5016,94.0164 58.7856,97.1699 58.749,97.1899 58.0637,97.5601 58.6298,97.5708 62.7157,98.1353 64.0406,98.523 67.423,100.083 68.5256,100.793 71.2536,103.147 71.4137,103.322 71.5452,101.76 71.5593,101.618 71.8105,99.4288 71.8191,99.3587 72.1071,97.1434 72.108,97.1367 72.3921,94.9752 72.6319,92.9574 72.7926,91.1589 72.8398,89.8913 " fill="none" stroke-width="0.5" stroke="rgb(0,0,0)" />
	<polygon points="395.05,78.6356 394.654,79.5511 390.678,86.5872 390.103,87.3929 389.367,88.2226 390.358,87.6198 390.664,87.4493 392.554,86.4848 394.478,85.385 396.136,84.1344 397.38,82.7167 398.196,81.0108 398.568,78.3966 398.529,77.3383 398.396,76.0169 398.2,74.6993 397.964,73.4153 397.715,72.1854 397.715,72.1835 397.49,71.0716 397.465,70.9379 397.458,70.9001 " fill="none" stroke-width="0.5" stroke="rgb(0,0,0)" />
	<polygon points="106.441,57.1528 105.234,57.7312 103.618,58.8436 101.8,60.3242 99.9319,61.9236 99.8149,62.0205 98.0336,63.4485 97.5828,63.7682 95.9649,64.7782 94.699,65.3293 93.5811,65.6306 94.0531,66.3301 94.3322,66.8782 94.6612,67.7133 94.8506,68.3726 94.9875,69.0162 95.0952,69.7828 95.1373,70.2525 95.1714,71.1225 95.1653,71.6087 95.0381,73.5846 94.9947,73.9874 94.6592,76.1992 94.6211,76.416 94.1857,78.5931 94.501,78.1236 94.7046,77.8432 96.7901,75.1839 97.3437,74.5913 99.433,72.7103 101.038,71.7625 103.096,71.0491 107.449,71.7245 108.886,72.7982 110.601,75.303 111.389,78.1335 111.542,78.9751 111.868,82.6198 112.685,79.9444 112.976,79.2142 114.263,76.6418 114.319,76.579 112.892,76.039 111.467,75.1907 109.38,72.5363 108.69,70.2999 108.498,69.3072 108.234,66.1454 108.222,65.9487 108.077,62.4513 107.779,59.349 107.263,57.4398 107.052,57.1589 106.81,57.0856 " fill="none" stroke-width="0.5" stroke="rgb(0,0,0)" />
	<polygon points="171.673,77.2089 173.347,81.1576 173.349,81.1507 173.585,80.4385 173.661,80.2609 174.029,79.5615 174.131,79.4022 174.665,78.7156 174.792,78.5808 175.532,77.9415 175.682,77.8375 176.646,77.3212 176.817,77.2542 177.952,76.9646 178.142,76.9409 178.643,76.9816 178.2,76.8327 173.6,75.3702 170.761,74.6261 " fill="none" stroke-width="0.5" stroke="rgb(0,0,0)" />
	<polygon points="125.866,57.9326 125.045,60.1195 124.271,63.3351 123.534,66.8314 123.47,67.0979 122.623,70.2049 122.256,71.1414 121.111,73.3391 121.049,73.4001 121.589,73.3402 123.128,73.8882 124.949,75.0672 126.331,76.5118 126.917,77.2649 128.197,79.3073 128.372,79.6125 128.412,79.6875 128.412,78.1149 128.412,78.0757 128.424,76.6936 128.427,76.5572 128.474,75.3068 128.489,75.0573 128.59,73.9548 128.647,73.5337 128.819,72.5954 128.999,71.9087 129.261,71.1507 129.777,70.0999 130.147,69.5384 131.369,68.2782 131.864,67.9294 133.704,67.1536 133.941,67.1091 133.715,66.8637 132.016,64.7085 131.89,64.5411 130.148,62.1159 128.449,59.8663 126.946,58.2223 126.11,57.613 " fill="none" stroke-width="0.5" stroke="rgb(0,0,0)" />
	<polygon points="145.949,68.0306 145.713,68.3365 145.078,69.011 144.793,69.2593 144.022,69.8055 143.696,69.9903 142.97,70.3086 143.184,70.4481 143.584,70.7411 147.01,73.538 147.175,73.6791 149.742,75.9801 148.192,72.3711 148.116,72.1814 146.52,67.9705 146.397,67.5979 146.341,67.404 " fill="none" stroke-width="0.5" stroke="rgb(0,0,0)" />
	<polygon points="398.688,59.3473 398.686,60.2234 398.211,65.1317 398.626,64.5563 398.805,64.355 399.483,63.7301 399.695,63.5698 400.447,63.1064 400.684,62.9893 401.485,62.6812 401.739,62.6094 402.583,62.4521 402.846,62.4277 404.997,62.7323 406.107,63.1676 407.398,63.931 408.776,65.0788 409.045,65.3207 410.685,66.9148 412.504,68.6227 414.439,70.1765 416.474,71.412 418.597,72.2107 421.095,72.526 421.58,72.5032 422.404,72.3781 423.204,72.144 423.862,71.8184 424.349,71.4231 424.74,70.8826 425.084,69.9459 425.207,68.7783 424.534,66.5431 422.406,64.3455 418.482,62.0242 413.498,59.9594 408.26,58.2225 403.556,56.7773 403.335,56.7034 399.972,55.485 398.535,54.6521 398.241,54.4025 " fill="none" stroke-width="0.5" stroke="rgb(0,0,0)" />
	<polygon points="84.1702,60.0329 83.8093,60.4801 80.7594,63.8186 80.5902,63.9945 79.4618,65.1076 80.6587,64.556 81.0366,64.4013 83.7901,63.4119 84.6259,63.1958 86.4879,62.8933 86.0477,62.055 85.9372,61.7544 85.6759,60.6375 85.6368,60.2754 85.7728,58.5437 86.1072,57.3075 " fill="none" stroke-width="0.5" stroke="rgb(0,0,0)" />
	<polygon points="52.5025,60.6955 52.8526,61.1003 53.8485,62.9993 53.9734,63.4827 53.9682,63.6075 54.201,63.3406 56.0333,60.9048 52.4617,60.6608 " fill="none" stroke-width="0.5" stroke="rgb(0,0,0)" />
	<polygon points="142.088,48.2314 142.167,48.9211 142.603,50.4745 143.331,52.3895 144.242,54.5006 144.954,56.1073 145.116,55.472 145.389,54.6655 145.769,53.8252 146.165,53.1382 146.827,52.2501 147.354,51.6947 148.292,50.932 148.958,50.5202 150.019,50.0348 150.202,49.977 149.281,49.7428 149.195,49.72 147.573,49.275 145.977,48.8495 144.501,48.5071 143.223,48.2924 142.204,48.2238 " fill="none" stroke-width="0.5" stroke="rgb(0,0,0)" />
	<polygon points="93.6732,46.0151 92.0832,46.1868 90.3192,46.4465 88.448,46.7587 86.5571,47.0782 86.4856,47.0897 85.8282,47.1904 86.142,47.4416 87.2686,49.1946 87.7881,53.1772 87.2173,54.9487 87.7349,54.0693 88.0079,53.6568 89.5205,51.6139 89.622,51.4817 91.3425,49.3223 92.9849,47.2222 93.8328,46.0081 " fill="none" stroke-width="0.5" stroke="rgb(0,0,0)" />
	<polygon points="445.937,33.9082 445.521,35.6674 445.421,36.0279 444.833,37.8521 444.793,37.9718 444.133,39.846 443.513,41.7093 443.014,43.5477 442.682,45.4071 442.56,47.3548 442.61,48.1228 442.737,48.7126 442.893,49.0974 443.037,49.3107 443.179,49.4431 443.429,49.5822 443.947,49.7325 444.716,49.7981 445.282,49.7184 445.404,49.6578 445.58,49.4832 445.908,48.9184 446.269,47.868 446.558,46.3972 446.732,44.6149 446.787,42.6213 446.753,40.9806 446.664,39.4119 446.535,37.923 446.383,36.5074 446.225,35.166 446.223,35.1442 446.084,33.9051 446.073,33.7948 446.032,33.3313 " fill="none" stroke-width="0.5" stroke="rgb(0,0,0)" />
	<polygon points="186.272,37.0405 185.521,37.6066 185.785,38.3153 186.443,39.1826 186.467,38.3432 186.794,37.5835 187.823,36.2613 " fill="none" stroke-width="0.5" stroke="rgb(0,0,0)" />
	<polygon points="468.008,97.957 468.833,98.2071 470.928,99.0592 471.781,99.5131 473.504,100.672 474.277,101.324 475.646,102.755 476.246,103.53 477.279,105.199 477.673,105.996 478.389,107.868 478.604,108.607 479.019,110.648 479.105,111.297 479.24,113.472 479.193,114.483 478.443,119.315 478.095,120.5 475.964,125.306 475.958,125.315 476.653,125.374 478.305,126.294 479.608,127.365 480.806,128.782 480.823,128.809 480.823,181.325 480.061,184.193 479.747,185.039 478.419,187.774 476.834,189.608 475.255,190.682 471.49,191.36 468.156,190.541 466.933,190.05 462.363,187.42 461.838,187.068 456.515,182.963 456.171,182.67 450.577,177.427 450.281,177.122 444.9,171.076 444.596,170.696 439.911,164.184 439.57,163.633 436.063,156.99 435.701,156.091 433.855,149.654 434.002,146.632 435.085,145.356 434.455,145.27 433.897,145.159 431.93,144.642 431.233,144.399 429.554,143.661 428.72,143.188 427.36,142.221 426.482,141.409 425.472,140.203 424.762,139.053 424.134,137.601 423.966,136.989 423.856,137.562 423.242,139.142 421.503,141.966 420.634,143.005 417.893,145.457 417.084,146.039 413.468,148.096 412.798,148.411 408.437,150.05 407.883,150.22 402.905,151.419 402.431,151.507 396.963,152.243 396.538,152.281 390.709,152.531 390.001,152.508 381.733,151.611 380.739,151.393 373.392,148.917 372.517,148.518 366.147,144.785 365.429,144.268 360.092,139.599 359.524,139.007 355.276,133.723 354.832,133.064 351.729,127.487 351.39,126.727 349.487,121.179 349.269,120.234 348.622,115.036 348.598,114.125 348.623,113.764 348.726,113.066 348.794,112.762 349.032,112.006 349.137,111.751 349.508,111.031 349.643,110.816 350.085,110.224 350.244,110.042 350.66,109.624 350.836,109.467 351.148,109.213 351.336,109.073 351.501,108.956 351.694,108.825 352.821,108.262 354.002,107.86 355.04,107.633 356.88,107.445 357.127,107.426 359.531,107.308 362.356,107.12 365.529,106.733 369.049,106.018 372.896,104.843 377.153,103.024 377.603,102.795 377.869,102.67 378.456,102.417 378.73,102.309 379.313,102.1 379.593,102.009 380.17,101.842 380.455,101.769 381.024,101.643 381.312,101.588 381.871,101.5 382.162,101.463 382.709,101.411 383.003,101.393 383.535,101.376 384.393,101.427 386.358,101.728 387.939,102.27 389.356,103.061 390.501,103.958 391.546,105.076 392.034,105.697 392.88,106.979 392.914,107.033 393.551,108.027 393.772,108.282 394.004,108.321 394.756,108.251 396.007,107.956 397.516,107.462 399.188,106.832 400.909,106.166 401.029,106.121 402.679,105.533 403.016,105.427 404.535,105.011 405.229,104.877 406.576,104.719 408.687,104.955 410.729,105.676 412.342,106.644 414.485,108.611 415.104,109.302 417.233,112.219 417.538,112.694 419.539,116.265 419.729,116.645 421.486,120.577 421.631,120.944 423.029,124.941 423.157,125.374 424.08,129.142 424.19,129.78 424.256,130.423 424.368,130.13 424.863,129.114 425.326,128.356 426.064,127.369 426.722,126.658 427.731,125.77 428.566,125.182 429.247,124.806 428.869,124.641 428.087,124.208 427.093,123.526 426.352,122.895 425.444,121.943 424.859,121.189 424.068,119.923 423.69,119.177 423.186,117.916 423.01,117.389 422.638,116.003 422.578,115.75 422.273,114.294 422.27,114.283 421.989,112.925 421.71,111.85 421.442,111.136 421.247,110.808 420.693,110.247 419.373,107.525 419.984,104.563 422.274,102.586 425.203,102.39 426.183,102.641 427.047,102.807 427.946,102.931 428.869,103.017 429.805,103.071 430.745,103.1 431.679,103.111 432.413,103.113 434.851,102.919 437.231,102.413 439.738,101.642 442.338,100.697 444.95,99.7128 445.079,99.6661 447.602,98.7988 447.963,98.6909 450.355,98.0774 451.038,97.9551 453.282,97.7224 454.16,97.7138 455.469,97.8238 456.372,97.9897 457.454,98.3005 458.432,98.7053 459.305,99.188 460.217,99.8459 460.536,100.14 460.908,99.1125 463.458,97.4855 465.522,97.4466 " fill="none" stroke-width="0.5" stroke="rgb(0,0,0)" />
</svg>
