<?xml version="1.0" standalone="no" ?>
<!DOCTYPE svg PUBLIC "-//W3C//DTD SVG 1.1//EN" "http://www.w3.org/Graphics/SVG/1.1/DTD/svg11.dtd">
<svg width="500px" height="500px" xmlns="http://www.w3.org/2000/svg" version="1.1" >
	<polygon points="473.273,88.0311 473.159,88.1707 471.747,89.4977 464.714,94.5821 464.663,94.6111 466.095,94.6548 468.581,95.1653 469.906,95.567 472.001,96.4191 473.273,97.0961 473.273,194.304 473.224,194.321 472.348,194.251 473.273,195.02 473.273,281.074 472.455,295.658 470.002,311.145 465.87,327.452 460.039,344.278 452.493,361.328 443.221,378.316 432.216,394.958 419.469,410.979 404.973,426.105 388.717,440.069 370.688,452.608 350.865,463.463 329.222,472.372 314.982,476.434 314.949,476.406 313.861,475.321 312.135,473.208 311.305,471.954 310.061,469.594 309.505,468.232 308.752,465.709 308.472,464.28 308.384,463.369 307.951,464.156 305.185,468.229 303.997,469.492 304.786,469.555 306.273,469.825 306.942,470.018 308.687,470.77 309.181,471.061 310.834,472.379 311.179,472.744 312.344,474.359 312.566,474.773 313.17,476.259 313.296,476.698 313.338,476.902 305.722,479.075 280.325,483.3 252.986,484.773 226.347,483.383 201.494,479.384 178.412,473.023 157.075,464.542 137.464,454.175 119.565,442.157 103.371,428.719 88.879,414.097 76.0903,398.527 65.0085,382.253 55.6376,365.521 47.9807,348.582 42.039,331.689 38.7335,318.725 41.3373,313.408 37.7285,313.334 37.5212,313.269 35.287,299.091 34.4405,283.698 34.4405,150.278 36.2862,148.053 34.4405,147.514 34.4405,36.9967 36.3306,35.777 36.4306,35.7136 37.5373,35.0238 34.7083,34.3071 34.4405,34.2311 34.4405,27.068 38.4402,27.0373 49.9318,26.9491 61.4235,26.8609 72.9152,26.7727 84.4068,26.6846 95.8985,26.5964 107.39,26.5082 118.882,26.42 130.374,26.3319 141.865,26.2437 153.357,26.1555 164.849,26.0673 176.34,25.9792 187.832,25.891 203.192,25.7731 203.182,31.0488 203.182,31.0488 203.156,43.9475 203.131,56.8463 203.106,69.7451 203.106,69.7451 203.08,82.6439 203.073,86.3209 200.607,86.0699 203.07,87.9818 203.029,108.442 203.029,108.442 203.004,121.34 202.953,147.138 202.928,160.037 202.902,172.936 202.879,184.615 201.928,185.293 200.783,185.951 201.553,186.288 202.788,186.975 202.874,187.034 202.851,198.733 202.826,211.632 202.8,224.531 202.801,224.604 202.888,235.898 202.888,235.955 203.053,246.772 203.055,246.875 203.352,257.181 203.358,257.338 203.843,267.1 203.857,267.322 204.585,276.506 204.615,276.807 205.642,285.38 205.7,285.777 207.081,293.705 207.189,294.22 208.978,301.47 209.171,302.121 211.425,308.66 211.753,309.46 214.527,315.254 215.057,316.187 218.406,321.203 219.202,322.2 223.181,326.405 224.253,327.342 228.918,330.701 230.181,331.437 235.587,333.918 236.884,334.375 243.087,335.945 244.274,336.146 251.328,336.771 251.54,334.374 251.612,334.565 252.34,337.164 252.549,336.774 259.691,336.281 260.883,336.103 267.23,334.625 268.559,334.182 274.054,331.764 275.367,331.021 280.073,327.7 281.194,326.731 285.172,322.542 285.999,321.502 289.312,316.483 289.853,315.514 292.563,309.701 292.889,308.878 295.057,302.308 295.243,301.646 296.932,294.357 297.032,293.841 298.303,285.869 298.355,285.478 299.271,276.858 299.296,276.568 299.919,267.339 299.93,267.132 300.322,257.329 300.326,257.19 300.548,246.85 300.549,246.768 300.665,235.929 300.665,235.895 300.735,224.592 300.735,224.53 300.709,211.632 300.683,198.733 300.657,185.834 300.632,172.935 300.632,172.935 300.606,160.036 300.554,134.239 300.554,134.239 300.528,121.34 300.451,82.6437 300.451,82.6437 300.425,69.7449 300.347,31.0485 300.347,31.0485 300.336,25.6664 304.573,25.6391 316.326,25.5636 316.326,25.5636 328.08,25.488 339.833,25.4124 351.586,25.3369 363.339,25.2613 375.093,25.1858 386.846,25.1102 410.352,24.9591 422.106,24.8835 433.859,24.808 445.612,24.7324 457.365,24.6568 469.119,24.5813 473.273,24.5546 " fill="none" stroke-width="0.5" stroke="rgb(0,0,0)" />
	<polygon points="192.185,443.809 192.55,444.886 193.115,447.076 194.337,447.345 195.881,447.593 197.373,447.748 198.585,447.796 200.206,447.707 201.72,447.44 203.046,447.006 204.114,446.44 204.943,445.757 205.628,444.87 206.229,443.551 206.412,442.706 202.883,442.97 201.728,442.968 195.51,442.479 194.233,442.267 191.197,441.491 " fill="none" stroke-width="0.5" stroke="rgb(0,0,0)" />
	<polygon points="158.644,437.434 157.574,438.745 153.379,442.845 153.011,443.127 154.886,442.362 157.006,440.932 158.54,439.282 159.651,437.309 160.384,434.837 160.394,434.715 " fill="none" stroke-width="0.5" stroke="rgb(0,0,0)" />
	<polygon points="326.034,417.203 316.529,420.335 314.933,420.676 314.862,420.683 315.201,421.303 315.695,422.6 316.001,423.612 316.331,425.064 316.392,425.356 316.64,426.691 316.675,426.838 317.491,427.425 317.965,427.796 318.832,428.532 319.676,429.371 320.409,430.226 320.767,430.763 321.26,430.24 321.532,429.966 322.247,429.282 322.628,428.941 323.337,428.349 323.878,427.937 324.578,427.452 325.355,426.981 326.045,426.617 327.152,426.141 327.309,426.089 326.786,425.095 326.437,423.853 326.154,421.809 326.154,417.148 " fill="none" stroke-width="0.5" stroke="rgb(0,0,0)" />
	<polygon points="388.444,420.569 388.507,420.108 387.578,419.921 " fill="none" stroke-width="0.5" stroke="rgb(0,0,0)" />
	<polygon points="166.16,413.529 166.165,414.63 165.844,419.314 165.767,419.866 166.888,419.404 170.367,419.966 170.336,419.054 170.368,418.686 170.658,417.176 170.754,416.856 171.46,415.231 171.618,414.961 172.749,413.476 172.945,413.276 172.826,413.227 172.208,412.938 169.572,411.556 168.981,411.212 166.554,409.645 165.962,409.22 165.815,409.104 " fill="none" stroke-width="0.5" stroke="rgb(0,0,0)" />
	<polygon points="378.993,417.291 379.663,417.111 380.207,417.175 379.517,416.848 378.993,416.557 " fill="none" stroke-width="0.5" stroke="rgb(0,0,0)" />
	<polygon points="259.095,403.313 258.82,404.244 258.258,405.622 257.819,406.456 257.75,406.56 257.884,406.612 258.519,406.893 261.378,408.321 261.869,408.589 264.652,410.245 265.061,410.507 267.679,412.303 268.053,412.577 270.417,414.423 270.798,414.741 272.821,416.546 273.128,416.844 274.026,416.689 274.34,416.642 275.674,416.469 275.972,416.437 277.355,416.314 277.636,416.294 277.639,416.294 269.07,411.222 267.794,410.272 260.693,403.717 259.7,402.599 259.332,402.091 " fill="none" stroke-width="0.5" stroke="rgb(0,0,0)" />
	<polygon points="350.05,395.561 349.353,396.724 348.207,398.299 348.363,398.281 352.87,398.029 353.564,398.022 354.439,398.053 353.775,397.465 352.796,396.346 352.016,395.279 351.16,393.862 351.01,393.572 " fill="none" stroke-width="0.5" stroke="rgb(0,0,0)" />
	<polygon points="309.024,394.327 308.46,394.493 305.247,395.302 304.555,395.443 303.268,395.641 304.358,395.736 307.541,395.604 310.113,395.265 309.651,394.622 309.511,394.163 " fill="none" stroke-width="0.5" stroke="rgb(0,0,0)" />
	<polygon points="203.57,391.734 204.036,392.774 204.768,394.804 205.992,392.995 207.732,391.172 210.362,389.211 207.182,389.493 205.686,389.477 202.132,389.085 " fill="none" stroke-width="0.5" stroke="rgb(0,0,0)" />
	<polygon points="242.843,374.73 242.809,374.767 243.508,375.235 244.747,376.272 245.49,377.044 245.651,377.246 246.236,377.262 247.152,377.354 246.52,375.022 246.287,373.721 245.998,370.489 " fill="none" stroke-width="0.5" stroke="rgb(0,0,0)" />
	<polygon points="83.581,367.332 82.7395,367.443 81.8318,367.508 79.7863,367.529 80.5364,369.427 81.2497,374.137 83.4855,372.145 84.4649,371.406 86.4931,370.12 85.5032,369.277 84.5121,368.257 83.749,367.306 " fill="none" stroke-width="0.5" stroke="rgb(0,0,0)" />
	<polygon points="357.312,370.507 357.214,371.461 358.728,370.942 359.318,370.766 359.66,370.679 358.581,369.977 356.99,368.695 356.763,368.47 " fill="none" stroke-width="0.5" stroke="rgb(0,0,0)" />
	<polygon points="324.837,367.644 324.061,368.874 324.052,368.885 326.939,368.698 326.378,368.41 325.054,367.545 324.936,367.448 " fill="none" stroke-width="0.5" stroke="rgb(0,0,0)" />
	<polygon points="117.633,355.399 117.645,356.453 117.516,357.939 117.104,360.129 116.671,361.596 116.48,362.061 120.571,361.691 121.21,361.697 119.954,360.298 119.287,359.328 118.329,357.39 117.998,356.373 117.787,355.327 " fill="none" stroke-width="0.5" stroke="rgb(0,0,0)" />
	<polygon points="295.827,358.104 294.207,358.835 293.154,359.168 294.491,360.16 294.657,360.286 296.02,361.357 295.972,360.839 295.947,359.776 296,358.67 296.051,358.077 296.066,357.96 " fill="none" stroke-width="0.5" stroke="rgb(0,0,0)" />
	<polygon points="395.083,341.295 393.935,342.218 393.271,342.695 392.25,343.348 390.33,344.225 389.495,344.472 387.517,344.635 388.496,347.405 388.878,349.066 388.93,349.52 393.037,346.078 394.848,344.954 397.265,343.891 396.408,342.859 396.237,342.646 395.152,341.238 " fill="none" stroke-width="0.5" stroke="rgb(0,0,0)" />
	<polygon points="58.8233,341.978 61.7081,346.617 61.7595,346.111 62.2509,343.836 62.7496,342.323 63.678,340.267 63.879,339.917 62.5443,339.63 61.5258,339.336 59.057,338.429 58.3492,338.091 " fill="none" stroke-width="0.5" stroke="rgb(0,0,0)" />
	<polygon points="165.191,323.45 164.966,324.726 164.215,327.541 163.775,328.761 162.537,331.441 161.858,332.621 160.143,335.058 159.185,336.171 157.004,338.256 155.746,339.227 153.403,340.671 155.748,342.092 156.65,342.734 159,344.68 159.73,345.371 160.077,345.747 160.041,345.43 159.997,344.329 160.055,342.545 160.09,342.03 160.269,340.266 160.353,339.673 160.659,337.995 160.831,337.259 161.27,335.736 161.625,334.762 162.204,333.46 162.96,332.136 163.684,331.123 165.294,329.474 166.169,328.816 168.845,327.578 166.801,324.483 166.061,323.05 165.382,321.297 " fill="none" stroke-width="0.5" stroke="rgb(0,0,0)" />
	<polygon points="415.588,333.306 413.801,333.5 413.651,333.514 413.748,334.057 413.768,334.174 413.992,335.543 414.033,335.827 414.192,337.096 414.239,337.63 414.299,338.759 414.307,339.378 414.297,339.711 414.261,340.261 414.227,340.596 414.19,340.832 418.143,341.169 419.091,341.332 419.077,341.316 417.387,338.025 416.267,333.177 " fill="none" stroke-width="0.5" stroke="rgb(0,0,0)" />
	<polygon points="128.082,339.201 128.897,338.872 129.207,338.77 128.095,337.778 " fill="none" stroke-width="0.5" stroke="rgb(0,0,0)" />
	<polygon points="385.06,312.767 384.218,314.582 383.629,316.198 383.445,317.145 383.249,319.282 383.075,322.222 383.003,323.457 383.794,321.446 384.648,318.818 385.192,316.376 385.395,313.929 385.373,312.703 385.346,312.268 " fill="none" stroke-width="0.5" stroke="rgb(0,0,0)" />
	<polygon points="75.3202,312.124 74.4169,315.588 74.1223,318.315 74.1499,319.292 74.2688,320.419 74.4819,321.425 74.8206,322.408 74.9016,322.571 75.6389,321.37 76.5196,320.206 77.9373,318.667 79.0255,317.695 80.7265,316.447 81.9655,315.71 82.5631,315.427 81.0757,314.655 79.8443,313.855 78.4153,312.714 77.3367,311.66 76.1281,310.216 76.0492,310.1 " fill="none" stroke-width="0.5" stroke="rgb(0,0,0)" />
	<polygon points="350.806,321.828 350.83,321.772 351.091,321.237 351.412,320.637 350.224,320.299 349.16,319.908 348.521,319.617 " fill="none" stroke-width="0.5" stroke="rgb(0,0,0)" />
	<polygon points="343.019,314.562 342.426,315.165 344.898,316.85 344.785,316.756 344.289,316.044 343.51,313.912 " fill="none" stroke-width="0.5" stroke="rgb(0,0,0)" />
	<polygon points="163.741,298.004 162.471,298.443 160.993,298.793 159.809,298.95 158.192,298.989 157.836,298.959 157.69,298.934 158.653,300.414 159.077,301.153 162.457,307.902 162.447,307.651 162.616,304.493 162.702,303.691 163.194,300.645 163.362,299.867 163.886,297.941 " fill="none" stroke-width="0.5" stroke="rgb(0,0,0)" />
	<polygon points="132.774,307.05 132.771,307.673 134.009,307.533 134.189,307.55 135.166,307.775 134.776,306.968 132.419,303.017 " fill="none" stroke-width="0.5" stroke="rgb(0,0,0)" />
	<polygon points="311.428,305.976 311.829,306.047 312.21,306.133 312.043,305.563 " fill="none" stroke-width="0.5" stroke="rgb(0,0,0)" />
	<polygon points="434.41,295.115 434.31,295.251 433.86,295.853 435.026,296.483 434.553,294.915 " fill="none" stroke-width="0.5" stroke="rgb(0,0,0)" />
	<polygon points="459.157,289.251 458.52,289.546 457.646,290.269 456.478,291.68 456.249,292.034 456.504,292.041 459.693,292.555 459.931,292.631 459.91,292.2 459.729,290.962 459.442,289.853 459.195,289.246 " fill="none" stroke-width="0.5" stroke="rgb(0,0,0)" />
	<polygon points="88.521,283.987 88.4568,284.114 86.1021,288.647 85.9131,289.012 86.9549,289.559 87.4764,289.974 88.0748,290.517 88.3761,289.052 88.6853,285.807 88.7686,283.488 " fill="none" stroke-width="0.5" stroke="rgb(0,0,0)" />
	<polygon points="59.5593,283.006 59.5825,282.905 59.495,282.806 59.4616,282.776 " fill="none" stroke-width="0.5" stroke="rgb(0,0,0)" />
	<polygon points="156.862,228.2 156.515,228.913 157.562,230.126 158.321,233.759 158.261,235.185 158.239,235.523 158.08,237.345 158.065,237.503 157.84,239.575 157.832,239.648 157.574,241.824 157.572,241.841 157.317,243.956 157.102,245.822 156.966,247.206 156.931,247.859 156.933,247.909 158.037,248.552 159.957,251.812 160.422,253.437 160.565,254.023 160.931,255.834 160.995,256.198 161.286,258.127 161.314,258.329 161.559,260.307 161.567,260.377 161.787,262.305 161.999,264.036 162.045,264.335 162.545,264.497 163.163,265.251 163.258,261.768 164.4,257.795 165.84,255.065 168.296,252.099 166.317,252.523 162.642,251.365 160.017,248.544 159.288,243.41 159.526,242.29 159.73,241.236 159.908,240.187 160.059,239.145 160.18,238.107 160.27,237.075 160.325,236.047 160.341,235.135 160.25,233.266 159.973,231.523 159.474,229.778 158.697,227.98 157.826,226.523 " fill="none" stroke-width="0.5" stroke="rgb(0,0,0)" />
	<polygon points="129.666,243.674 131.005,253.273 131.125,253.591 131.249,252.713 132.254,251.594 131.958,250.368 131.323,248.31 130.513,245.88 130.495,245.825 129.674,243.295 " fill="none" stroke-width="0.5" stroke="rgb(0,0,0)" />
	<polygon points="382.729,246.511 381.874,247.784 381.05,248.777 379.96,249.847 378.955,250.651 378.208,251.136 378.771,251.825 378.802,251.865 379.657,251.059 380.495,250.376 381.621,249.584 383.866,248.507 384.81,248.235 382.949,246.292 382.893,246.204 " fill="none" stroke-width="0.5" stroke="rgb(0,0,0)" />
	<polygon points="324.92,236.376 326.754,238.45 329.039,242.265 329.042,242.273 329.896,241.847 331.064,241.397 331.123,241.38 330.653,240.516 330.077,239.154 329.372,236.893 329.169,235.898 329.052,235.922 327.646,236.064 326.119,236.064 324.724,235.921 324.198,235.813 " fill="none" stroke-width="0.5" stroke="rgb(0,0,0)" />
	<polygon points="464.388,226.65 464.385,226.668 463.849,229.572 463.572,231.218 464.093,229.933 464.787,227.26 465.017,224.78 464.907,223.793 " fill="none" stroke-width="0.5" stroke="rgb(0,0,0)" />
	<polygon points="312.578,226.218 310.72,226.806 309.677,227.022 309.75,227.247 310.654,228.265 312.771,229.524 315.742,230.815 315.297,230.274 314.489,229.079 313.843,227.892 313.267,226.532 313.099,225.995 " fill="none" stroke-width="0.5" stroke="rgb(0,0,0)" />
	<polygon points="86.4904,213.439 87.4403,214.382 87.9031,214.964 88.7002,216.194 89.0564,216.882 89.5258,218 89.7777,218.768 90.0314,219.768 90.181,220.59 90.2903,221.503 90.3072,221.794 90.7909,221.555 92.8874,220.877 93.6164,220.755 95.9187,220.724 96.5625,220.815 98.5891,221.397 99.2007,221.671 99.9249,222.116 100.05,220.427 100.217,219.313 101.059,215.612 101.117,215.42 100.958,215.457 97.9598,215.787 96.296,215.786 93.1068,215.43 91.4134,215.039 88.5492,214.02 87.0044,213.262 86.742,213.094 " fill="none" stroke-width="0.5" stroke="rgb(0,0,0)" />
	<polygon points="438.422,213.027 437.837,213.193 432.716,214.423 432.032,214.554 426.977,215.285 427.863,215.856 431.556,218.92 432.731,220.142 433.682,221.384 434.01,220.62 434.733,219.312 437.256,215.658 437.974,214.771 440.149,212.461 " fill="none" stroke-width="0.5" stroke="rgb(0,0,0)" />
	<polygon points="65.3519,216.37 65.8769,216.716 66.3938,217.184 67.6711,218.687 68.0709,219.307 68.2359,219.629 69.5905,217.325 68.2013,216.961 66.9038,216.491 65.6535,215.904 " fill="none" stroke-width="0.5" stroke="rgb(0,0,0)" />
	<polygon points="189.784,214.181 190.993,216.582 191.144,216.992 191.206,216.937 193.8,216.376 193.796,216.361 193.349,215.51 192.787,214.863 191.924,214.232 190.543,213.595 189.132,213.205 " fill="none" stroke-width="0.5" stroke="rgb(0,0,0)" />
	<polygon points="381.685,201.818 381.003,203.065 380.195,204.258 379.517,205.077 380.313,205.733 380.932,206.352 383.163,203.69 384.236,203.29 382.046,201.505 381.888,201.341 " fill="none" stroke-width="0.5" stroke="rgb(0,0,0)" />
	<polygon points="365.186,171.194 366.027,172.73 366.606,174.09 367.264,176.183 367.573,177.677 367.802,179.916 367.802,180.508 369.057,180.507 369.081,180.509 366.51,172.285 366.285,171.369 366.138,170.552 " fill="none" stroke-width="0.5" stroke="rgb(0,0,0)" />
	<polygon points="146.625,175.727 145.624,175.991 144.928,176.126 146.963,178.072 146.968,178.052 147.844,175.312 " fill="none" stroke-width="0.5" stroke="rgb(0,0,0)" />
	<polygon points="107.933,164.004 106.898,164.86 105.702,165.67 104.516,166.317 103.154,166.894 101.846,167.304 101.011,167.475 101.276,167.632 104.536,169.847 105.311,170.45 108.31,173.117 109.082,173.913 111.671,177.005 112.023,177.508 112.912,175.872 113.972,174.385 115.358,172.868 116.413,171.986 115.858,171.581 112.964,168.936 111.914,167.752 109.692,164.641 108.962,163.376 108.836,163.1 " fill="none" stroke-width="0.5" stroke="rgb(0,0,0)" />
	<polygon points="423.93,143.461 422.534,145.13 419.793,147.582 418.493,148.517 415.982,149.945 417.218,150.057 418.681,150.336 425.101,152.233 426.495,152.801 432.18,155.813 432.765,156.191 431.116,150.439 431.05,147.344 430.086,147.008 428.407,146.27 427.068,145.51 425.708,144.543 424.297,143.239 424.164,143.08 " fill="none" stroke-width="0.5" stroke="rgb(0,0,0)" />
	<polygon points="355.91,139.115 355.33,145.218 355.57,145.17 356.911,145.035 358.423,145.035 359.763,145.17 361.242,145.47 362.49,145.857 363.314,146.204 358.216,141.744 357.303,140.793 355.911,139.061 " fill="none" stroke-width="0.5" stroke="rgb(0,0,0)" />
	<polygon points="126.736,138.047 127.204,139.446 127.682,141.739 127.74,142.053 127.855,142.75 128.095,142.019 128.4,140.962 128.66,139.913 128.874,138.886 129.04,137.893 129.156,136.946 129.166,136.821 " fill="none" stroke-width="0.5" stroke="rgb(0,0,0)" />
	<polygon points="313.917,125.298 312.833,125.803 311.899,126.446 311.131,127.183 310.556,127.944 310.195,128.632 309.811,129.845 308.876,131.322 309.094,131.438 309.975,131.795 310.833,132.034 311.737,132.179 312.823,132.234 313.077,132.226 313.533,132.19 314.096,132.128 314.741,132.045 315.423,131.953 315.485,131.945 316.016,131.878 315.568,131.155 315.383,130.8 314.948,129.785 314.818,129.412 314.546,128.402 314.471,128.016 314.344,127.037 314.319,126.645 314.345,125.386 314.366,125.177 " fill="none" stroke-width="0.5" stroke="rgb(0,0,0)" />
	<polygon points="92.6585,115.108 92.161,115.531 89.8978,117.294 88.811,118 86.4729,119.247 84.3792,119.993 81.9779,120.466 81.1152,120.503 81.2537,122.937 81.264,123.534 81.2323,124.961 81.218,125.287 81.2144,125.343 81.5717,125.1 82.7578,124.453 84.1203,123.874 85.4292,123.464 86.9193,123.159 88.3224,123.016 89.8522,123.015 91.2573,123.158 92.7454,123.463 94.0562,123.873 94.7618,124.172 94.0984,119.213 94.0784,119.05 93.5464,114.284 " fill="none" stroke-width="0.5" stroke="rgb(0,0,0)" />
	<polygon points="185.606,110.594 185.474,111.42 185.232,112.459 185.002,113.203 184.484,114.461 184.148,115.106 183.206,116.506 182.755,117.037 181.315,118.345 180.742,118.744 178.967,119.658 178.263,119.91 176.502,120.309 175.658,120.397 174.708,120.321 175.035,120.987 176.679,125.257 179.624,123.209 180.547,122.66 183.667,121.093 184.847,120.621 188.069,119.636 189.499,119.346 192.535,119.032 192.287,118.764 188.043,113.752 187.796,113.445 185.609,110.569 " fill="none" stroke-width="0.5" stroke="rgb(0,0,0)" />
	<polygon points="125.182,112.41 124.227,116.229 125.607,114.608 126.475,113.742 126.816,113.453 126.436,113.108 125.322,111.905 " fill="none" stroke-width="0.5" stroke="rgb(0,0,0)" />
	<polygon points="414.268,104.544 416.411,106.51 416.736,106.873 416.726,105.055 417.132,104.331 416.315,104.322 416.168,104.32 413.777,104.249 " fill="none" stroke-width="0.5" stroke="rgb(0,0,0)" />
	<polygon points="393.629,103.131 394.414,104.128 395.141,105.232 395.235,105.21 396.57,104.773 398.171,104.169 399.88,103.508 400.073,103.436 400.4,103.32 398.661,103.137 398.521,103.121 395.094,102.696 394.952,102.677 392.936,102.389 " fill="none" stroke-width="0.5" stroke="rgb(0,0,0)" />
	<polygon points="146.059,104.722 149.312,104.484 149.173,104.366 146.506,102.221 " fill="none" stroke-width="0.5" stroke="rgb(0,0,0)" />
	<polygon points="309.013,98.869 309.205,98.809 309.188,98.7181 309.188,98.7169 " fill="none" stroke-width="0.5" stroke="rgb(0,0,0)" />
	<polygon points="382.733,98.5554 382.913,98.5441 383.445,98.5273 384.823,98.6101 385.104,98.653 384.283,97.4557 384.261,97.4122 " fill="none" stroke-width="0.5" stroke="rgb(0,0,0)" />
	<polygon points="66.1623,96.363 68.6165,97.4948 69.1433,97.8339 69.2809,96.776 69.2823,96.7651 69.5641,94.6213 69.5703,94.5693 " fill="none" stroke-width="0.5" stroke="rgb(0,0,0)" />
	<polygon points="127.052,63.9626 126.323,67.4192 126.22,67.8473 125.373,70.9544 125.034,71.8186 125.955,72.4147 126.015,72.0823 126.305,70.9792 126.566,70.2212 127.397,68.5332 127.766,67.9717 129.535,66.1472 127.853,63.8063 127.274,63.0394 " fill="none" stroke-width="0.5" stroke="rgb(0,0,0)" />
	<polygon points="103.627,62.5119 101.785,64.0886 101.597,64.2443 99.8161,65.6722 99.092,66.1858 97.4772,67.1938 97.5898,67.5857 97.8098,68.6197 97.9175,69.3863 97.9851,70.1409 97.9921,70.3171 100.105,69.0698 102.163,68.3563 105.537,68.1005 105.394,66.3828 105.374,66.0668 105.232,62.6465 105.104,61.309 " fill="none" stroke-width="0.5" stroke="rgb(0,0,0)" />
	<polygon points="409.221,61.7408 410.6,62.8886 411.032,63.2772 412.654,64.8538 414.375,66.4695 416.078,67.8374 417.726,68.8381 419.286,69.4252 421.207,69.6676 421.298,69.6633 421.787,69.5891 422.164,69.4789 422.231,69.4455 422.287,69.2949 422.313,69.0505 422.005,68.0282 420.625,66.6034 417.205,64.5799 412.503,62.632 408.464,61.2927 " fill="none" stroke-width="0.5" stroke="rgb(0,0,0)" />
	<polygon points="401.527,59.0903 401.525,59.7624 402.319,59.6144 402.582,59.59 403.369,59.7014 402.719,59.5016 402.364,59.3829 401.526,59.0792 " fill="none" stroke-width="0.5" stroke="rgb(0,0,0)" />
	<polygon points="163.075,48.753 164.668,49.2948 164.875,49.3685 164.932,49.3896 163.51,47.9763 " fill="none" stroke-width="0.5" stroke="rgb(0,0,0)" />
	<polygon points="397.455,39.1725 398.074,40.6583 398.447,41.9185 399.634,41.3225 400.557,40.9336 403.529,39.9071 404.023,39.7551 407.482,38.8197 406.507,38.305 402.256,36.6933 398.305,35.5697 395.031,34.7503 " fill="none" stroke-width="0.5" stroke="rgb(0,0,0)" />
	<polygon points="151.733,30.6249 152.711,31.2358 152.621,30.1122 " fill="none" stroke-width="0.5" stroke="rgb(0,0,0)" />
	<polygon points="82.4663,29.7997 83.2509,29.5091 82.7588,29.0129 " fill="none" stroke-width="0.5" stroke="rgb(0,0,0)" />
</svg>
