<?xml version="1.0" standalone="no" ?>
<!DOCTYPE svg PUBLIC "-//W3C//DTD SVG 1.1//EN" "http://www.w3.org/Graphics/SVG/1.1/DTD/svg11.dtd">
<svg width="500px" height="500px" xmlns="http://www.w3.org/2000/svg" version="1.1" >
	<polygon points="471.423,92.0146 469.389,93.4852 470.603,93.8533 471.423,94.1869 471.423,281.022 470.613,295.461 468.188,310.773 464.096,326.921 458.316,343.6 450.832,360.509 441.635,377.361 430.718,393.87 418.075,409.76 403.699,424.76 387.583,438.604 369.713,451.033 350.067,461.791 328.614,470.622 305.315,477.267 280.123,481.459 252.985,482.92 226.543,481.541 201.888,477.574 179.001,471.267 157.851,462.859 138.415,452.585 120.674,440.673 104.622,427.353 90.2538,412.856 77.5726,397.417 66.5831,381.279 57.2906,364.687 49.6994,347.892 43.8114,331.153 39.6243,314.731 37.1291,298.896 36.2905,283.647 36.2905,28.9038 38.4543,28.8872 49.946,28.799 61.4377,28.7109 72.9294,28.6227 84.421,28.5345 95.9127,28.4463 107.404,28.3582 118.896,28.27 130.388,28.1818 153.371,28.0054 164.863,27.9173 176.354,27.8291 187.846,27.7409 201.339,27.6374 201.332,31.0451 201.332,31.0451 201.306,43.9439 201.281,56.8427 201.256,69.7415 201.256,69.7415 201.23,82.6403 201.179,108.438 201.154,121.337 201.103,147.134 201.103,147.134 201.078,160.033 201.052,172.932 201.027,185.831 201.001,198.729 200.976,211.628 200.95,224.527 200.951,224.618 201.038,235.913 201.039,235.983 201.203,246.8 201.206,246.928 201.503,257.234 201.511,257.43 201.995,267.191 202.013,267.468 202.741,276.652 202.779,277.027 203.805,285.6 203.878,286.094 205.258,294.023 205.393,294.663 207.182,301.913 207.422,302.724 209.676,309.263 210.084,310.259 212.858,316.053 213.519,317.214 216.868,322.23 217.858,323.472 221.838,327.677 223.172,328.843 227.837,332.203 229.409,333.118 234.816,335.599 236.431,336.169 242.633,337.738 244.111,337.989 251.165,338.613 251.876,330.586 252.024,330.892 252.557,338.628 259.818,338.127 261.303,337.904 267.65,336.427 269.304,335.875 274.799,333.457 276.434,332.533 281.14,329.211 282.535,328.005 286.513,323.816 287.543,322.521 290.855,317.502 291.53,316.295 294.24,310.483 294.646,309.457 296.814,302.888 297.045,302.063 298.734,294.774 298.859,294.133 300.13,286.16 300.195,285.673 301.111,277.053 301.142,276.693 301.765,267.463 301.779,267.206 302.17,257.403 302.175,257.23 302.398,246.89 302.399,246.788 302.514,235.948 302.515,235.907 302.585,224.604 302.585,224.527 302.559,211.628 302.507,185.83 302.482,172.932 302.482,172.932 302.456,160.033 302.404,134.235 302.404,134.235 302.378,121.336 302.301,82.64 302.301,82.64 302.275,69.7412 302.197,31.0448 302.197,31.0448 302.19,27.5045 304.585,27.4891 316.338,27.4135 328.091,27.338 339.845,27.2624 351.598,27.1868 363.351,27.1113 375.104,27.0357 386.858,26.9602 410.364,26.809 422.117,26.7335 445.624,26.5824 457.377,26.5068 469.131,26.4312 471.423,26.4165 " fill="none" stroke-width="0.5" stroke="rgb(0,0,0)" />
	<polygon points="307.42,468.231 307.454,468.24 307.595,468.301 307.527,468.074 " fill="none" stroke-width="0.5" stroke="rgb(0,0,0)" />
	<polygon points="194.342,444.424 194.623,445.514 194.683,445.527 196.123,445.758 197.505,445.902 198.571,445.944 199.994,445.866 201.269,445.641 202.32,445.297 203.083,444.893 203.193,444.802 203.021,444.815 201.583,444.812 195.365,444.323 194.244,444.137 " fill="none" stroke-width="0.5" stroke="rgb(0,0,0)" />
	<polygon points="317.436,421.984 317.805,423.201 318.135,424.654 318.21,425.017 318.35,425.764 318.572,425.924 319.162,426.386 320.029,427.121 320.911,427.999 320.967,427.945 321.442,427.521 322.151,426.929 322.825,426.416 323.525,425.931 324.492,425.344 324.877,425.141 324.656,424.354 324.304,421.809 324.304,419.72 " fill="none" stroke-width="0.5" stroke="rgb(0,0,0)" />
	<polygon points="168.004,413.386 168.01,414.756 167.807,417.725 168.689,417.67 168.887,416.643 168.983,416.324 169.861,414.3 170.019,414.03 170.101,413.922 168.713,413.195 167.978,412.766 167.955,412.751 " fill="none" stroke-width="0.5" stroke="rgb(0,0,0)" />
	<polygon points="82.3912,369.319 82.5736,370.523 83.4744,369.844 83.4816,369.839 83.0695,369.415 82.9602,369.279 " fill="none" stroke-width="0.5" stroke="rgb(0,0,0)" />
	<polygon points="60.6102,341.348 60.9525,341.898 61.0635,341.562 61.2386,341.174 60.8881,341.072 60.562,340.953 " fill="none" stroke-width="0.5" stroke="rgb(0,0,0)" />
	<polygon points="158.283,339.593 156.909,340.654 157.83,341.309 158.267,341.67 158.428,340.079 158.53,339.356 " fill="none" stroke-width="0.5" stroke="rgb(0,0,0)" />
	<polygon points="76.2415,315.922 76.0145,318.024 76.5767,317.414 77.9315,316.203 78.9403,315.463 78.6901,315.3 77.2611,314.159 76.8149,313.723 " fill="none" stroke-width="0.5" stroke="rgb(0,0,0)" />
	<polygon points="161.235,300.627 160.905,300.671 161.215,301.291 161.326,300.606 " fill="none" stroke-width="0.5" stroke="rgb(0,0,0)" />
	<polygon points="162.379,253.657 162.744,255.468 162.824,255.921 162.939,256.682 164.415,253.885 164.439,253.856 162.537,253.422 162.268,253.201 " fill="none" stroke-width="0.5" stroke="rgb(0,0,0)" />
	<polygon points="91.2837,217.424 91.5356,218.192 91.8166,219.3 92.5811,219.053 93.3101,218.93 96.1766,218.892 96.8204,218.983 98.3361,219.419 98.4134,218.902 98.7175,217.565 98.1621,217.626 96.0907,217.625 92.9015,217.268 91.0382,216.839 " fill="none" stroke-width="0.5" stroke="rgb(0,0,0)" />
	<polygon points="433.148,216.222 432.297,216.385 431.531,216.496 432.737,217.496 433.32,218.103 434.912,215.798 " fill="none" stroke-width="0.5" stroke="rgb(0,0,0)" />
	<polygon points="108.077,166.286 106.587,167.294 105.401,167.941 105.168,168.04 105.576,168.317 106.54,169.068 109.539,171.734 110.501,172.725 111.796,174.273 112.606,173.137 113.613,172.035 111.716,170.302 110.408,168.827 108.401,166.017 " fill="none" stroke-width="0.5" stroke="rgb(0,0,0)" />
	<polygon points="423.768,146.509 421.026,148.961 420.889,149.059 425.625,150.459 427.36,151.166 429.765,152.44 429.337,150.949 429.227,148.651 427.663,147.964 425.995,147.018 424.636,146.05 424.362,145.798 " fill="none" stroke-width="0.5" stroke="rgb(0,0,0)" />
	<polygon points="312.519,128.416 312.124,128.938 311.91,129.347 311.613,130.285 311.93,130.336 312.842,130.382 312.978,130.378 313.189,130.362 313.07,130.016 312.731,128.759 312.655,128.373 312.645,128.294 " fill="none" stroke-width="0.5" stroke="rgb(0,0,0)" />
	<polygon points="177.403,121.988 177.558,122.392 178.495,121.74 " fill="none" stroke-width="0.5" stroke="rgb(0,0,0)" />
	<polygon points="83.0612,122.138 83.0715,122.319 83.5676,122.109 84.1768,121.918 " fill="none" stroke-width="0.5" stroke="rgb(0,0,0)" />
	<polygon points="91.0347,118.754 89.6816,119.632 87.3435,120.879 85.2671,121.619 86.7317,121.318 88.1348,121.175 90.0395,121.175 91.4446,121.318 92.5436,121.543 92.2648,119.458 92.2398,119.255 92.092,117.93 " fill="none" stroke-width="0.5" stroke="rgb(0,0,0)" />
	<polygon points="186.125,115.316 185.789,115.961 184.616,117.704 184.165,118.235 182.838,119.44 184.307,118.852 187.528,117.867 188.873,117.594 186.631,114.947 186.397,114.655 " fill="none" stroke-width="0.5" stroke="rgb(0,0,0)" />
	<polygon points="102.989,65.4939 102.755,65.6878 101.613,66.6025 103.542,66.404 103.526,66.1435 103.481,65.0721 " fill="none" stroke-width="0.5" stroke="rgb(0,0,0)" />
	<polygon points="399.077,38.2834 399.527,39.3642 399.953,39.185 401.866,38.5241 401.673,38.4512 398.707,37.6073 " fill="none" stroke-width="0.5" stroke="rgb(0,0,0)" />
</svg>
