<?xml version="1.0" standalone="no" ?>
<!DOCTYPE svg PUBLIC "-//W3C//DTD SVG 1.1//EN" "http://www.w3.org/Graphics/SVG/1.1/DTD/svg11.dtd">
<svg width="500px" height="500px" xmlns="http://www.w3.org/2000/svg" version="1.1" >
	<polygon points="461.723,280.75 460.955,294.428 458.676,308.819 454.795,324.137 449.283,340.042 442.125,356.216 433.317,372.353 422.862,388.164 410.762,403.371 397.022,417.708 381.638,430.923 364.6,442.774 345.878,453.025 325.427,461.444 303.182,467.789 279.063,471.802 252.976,473.207 227.569,471.881 203.953,468.081 182.09,462.056 161.921,454.039 143.398,444.248 126.49,432.895 111.179,420.19 97.462,406.349 85.3449,391.597 74.8392,376.169 65.9576,360.311 58.7108,344.279 53.1045,328.34 49.1356,312.773 46.7874,297.872 45.9905,283.381 45.9905,38.5297 50.0204,38.4987 61.5121,38.4106 73.0038,38.3224 95.9871,38.146 95.9872,38.146 107.479,38.0579 118.97,37.9697 130.462,37.8815 141.954,37.7933 153.446,37.7052 176.429,37.5288 187.921,37.4406 191.619,37.4123 191.607,43.9248 191.581,56.8236 191.556,69.7224 191.556,69.7224 191.53,82.6212 191.479,108.419 191.479,108.419 191.454,121.318 191.403,147.115 191.403,147.115 191.378,160.014 191.352,172.913 191.352,172.913 191.327,185.812 191.301,198.71 191.25,224.508 191.251,224.693 191.338,235.988 191.34,236.13 191.504,246.947 191.51,247.207 191.807,257.513 191.822,257.911 192.307,267.673 192.344,268.234 193.072,277.418 193.147,278.18 194.174,286.753 194.322,287.758 195.702,295.687 195.975,296.987 197.765,304.238 198.251,305.885 200.505,312.424 201.335,314.447 204.109,320.242 205.451,322.6 208.8,327.616 210.813,330.14 214.793,334.344 217.503,336.714 222.168,340.074 225.363,341.934 230.769,344.415 234.051,345.573 240.254,347.142 243.255,347.651 250.31,348.276 251.947,329.779 253.225,348.305 260.485,347.804 263.502,347.352 269.849,345.874 273.211,344.754 278.706,342.336 282.028,340.457 286.734,337.136 289.568,334.685 293.547,330.496 295.638,327.865 298.951,322.846 300.322,320.393 303.031,314.581 303.858,312.497 306.026,305.928 306.495,304.252 308.184,296.963 308.438,295.66 309.709,287.687 309.841,286.698 310.757,278.078 310.82,277.346 311.443,268.116 311.471,267.593 311.862,257.79 311.873,257.438 312.095,247.098 312.099,246.891 312.214,236.051 312.215,235.967 312.285,224.664 312.285,224.507 312.259,211.608 312.207,185.811 312.182,172.912 312.182,172.912 312.156,160.013 312.104,134.216 312.104,134.216 312.078,121.317 312.001,82.6206 312.001,82.6205 311.975,69.7218 311.909,37.1422 316.401,37.1133 328.154,37.0378 339.907,36.9622 351.66,36.8867 363.414,36.8111 375.167,36.7355 386.92,36.66 410.427,36.5088 422.18,36.4333 433.933,36.3577 445.686,36.2822 457.44,36.2066 461.723,36.1791 " fill="none" stroke-width="0.5" stroke="rgb(0,0,0)" />
</svg>
