<?xml version="1.0" standalone="no" ?>
<!DOCTYPE svg PUBLIC "-//W3C//DTD SVG 1.1//EN" "http://www.w3.org/Graphics/SVG/1.1/DTD/svg11.dtd">
<svg width="500px" height="500px" xmlns="http://www.w3.org/2000/svg" version="1.1" >
	<polygon points="467.023,280.899 466.232,294.993 463.873,309.886 459.877,325.658 454.218,341.986 446.882,358.562 437.862,375.089 427.154,391.282 414.758,406.862 400.67,421.561 384.887,435.12 367.394,447.287 348.167,457.815 327.168,466.459 304.347,472.967 279.642,477.078 252.981,478.514 227.008,477.159 202.825,473.268 180.402,467.089 159.697,458.858 140.675,448.803 123.313,437.145 107.596,424.104 93.5235,409.904 81.0982,394.777 70.3281,378.961 61.222,362.702 53.787,346.253 48.0268,329.877 43.9387,313.843 41.5102,298.431 40.6905,283.527 40.6905,33.2702 49.9798,33.1989 61.4715,33.1107 72.9631,33.0226 84.4548,32.9344 95.9465,32.8462 95.9465,32.8462 107.438,32.758 118.93,32.6698 130.422,32.5817 141.913,32.4935 153.405,32.4053 164.897,32.3171 176.388,32.229 187.88,32.1408 196.93,32.0714 196.907,43.9352 196.881,56.834 196.856,69.7328 196.856,69.7328 196.83,82.6316 196.779,108.429 196.779,108.429 196.754,121.328 196.703,147.126 196.703,147.126 196.678,160.024 196.652,172.923 196.652,172.923 196.627,185.822 196.601,198.721 196.576,211.62 196.576,211.62 196.55,224.518 196.551,224.652 196.638,235.947 196.639,236.05 196.804,246.867 196.808,247.055 197.105,257.361 197.116,257.648 197.601,267.41 197.627,267.816 198.355,277 198.41,277.55 199.436,286.123 199.543,286.849 200.923,294.778 201.121,295.717 202.911,302.968 203.262,304.158 205.516,310.697 206.115,312.159 208.889,317.953 209.859,319.657 213.208,324.673 214.663,326.497 218.642,330.701 220.6,332.414 225.266,335.773 227.574,337.117 232.98,339.598 235.351,340.434 241.554,342.004 243.723,342.372 250.777,342.996 251.947,329.779 252.86,343.017 260.121,342.517 262.3,342.19 268.647,340.712 271.076,339.903 276.572,337.485 278.972,336.127 283.678,332.806 285.725,331.035 289.704,326.846 291.215,324.945 294.528,319.926 295.518,318.154 298.228,312.342 298.825,310.836 300.993,304.267 301.332,303.056 303.02,295.767 303.204,294.826 304.475,286.853 304.57,286.138 305.486,277.518 305.532,276.989 306.155,267.759 306.175,267.381 306.567,257.578 306.574,257.324 306.797,246.984 306.799,246.835 306.914,235.995 306.915,235.934 306.985,224.631 306.985,224.518 306.959,211.619 306.907,185.822 306.882,172.923 306.882,172.923 306.856,160.024 306.804,134.226 306.804,134.226 306.778,121.328 306.701,82.6312 306.701,82.6311 306.675,69.7323 306.599,31.8762 316.367,31.8134 328.12,31.7379 339.873,31.6623 351.626,31.5868 363.38,31.5112 375.133,31.4356 386.886,31.3601 410.393,31.209 422.146,31.1334 433.899,31.0578 445.652,30.9823 457.406,30.9067 467.023,30.8449 " fill="none" stroke-width="0.5" stroke="rgb(0,0,0)" />
</svg>
