<?xml version="1.0" standalone="no" ?>
<!DOCTYPE svg PUBLIC "-//W3C//DTD SVG 1.1//EN" "http://www.w3.org/Graphics/SVG/1.1/DTD/svg11.dtd">
<svg width="500px" height="500px" xmlns="http://www.w3.org/2000/svg" version="1.1" >
	<polygon points="460.873,280.726 460.109,294.338 457.843,308.648 453.98,323.893 448.491,339.731 441.362,355.839 432.588,371.914 422.173,387.664 410.122,402.811 396.437,417.091 381.117,430.25 364.152,442.05 345.511,452.257 325.148,460.64 302.995,466.958 278.97,470.955 252.976,472.355 227.659,471.035 204.134,467.25 182.361,461.249 162.278,453.266 143.835,443.517 127,432.213 111.754,419.562 98.0936,405.779 86.026,391.087 75.5627,375.722 66.7171,359.928 59.5005,343.962 53.9188,328.093 49.969,312.602 47.6338,297.782 46.8405,283.358 46.8405,39.3732 50.027,39.3487 61.5186,39.2605 73.0103,39.1724 84.502,39.0842 95.9937,38.996 95.9937,38.996 107.485,38.9078 118.977,38.8197 130.469,38.7315 130.469,38.7315 141.96,38.6433 153.452,38.5551 153.452,38.5551 164.944,38.467 176.435,38.3788 187.927,38.2906 187.927,38.2906 190.768,38.2688 190.757,43.9231 190.731,56.8219 190.706,69.7207 190.706,69.7207 190.68,82.6195 190.629,108.417 190.629,108.417 190.604,121.316 190.553,147.113 190.553,147.113 190.528,160.012 190.502,172.911 190.502,172.911 190.477,185.81 190.451,198.709 190.426,211.607 190.426,211.607 190.4,224.506 190.401,224.7 190.488,235.994 190.49,236.143 190.654,246.96 190.66,247.232 190.957,257.538 190.974,257.953 191.458,267.715 191.496,268.302 192.224,277.486 192.303,278.281 193.33,286.854 193.484,287.904 194.865,295.832 195.15,297.191 196.94,304.442 197.448,306.162 199.702,312.701 200.568,314.814 203.342,320.609 204.744,323.072 208.093,328.088 210.196,330.724 214.176,334.929 217.006,337.404 221.672,340.764 225.009,342.706 230.415,345.188 233.843,346.397 240.046,347.966 243.18,348.498 250.235,349.122 251.947,329.779 253.283,349.153 260.544,348.652 263.695,348.18 270.042,346.702 273.553,345.532 279.048,343.114 282.518,341.152 287.224,337.83 290.185,335.27 294.163,331.082 296.348,328.333 299.66,323.314 301.092,320.753 303.802,314.94 304.665,312.764 306.833,306.194 307.323,304.444 309.012,297.155 309.277,295.794 310.549,287.821 310.686,286.788 311.602,278.168 311.668,277.403 312.291,268.173 312.32,267.627 312.712,257.824 312.723,257.456 312.945,247.117 312.949,246.9 313.064,236.06 313.065,235.972 313.135,224.669 313.135,224.506 313.109,211.607 313.083,198.708 313.032,172.91 313.032,172.91 313.006,160.012 312.954,134.214 312.954,134.214 312.928,121.315 312.851,82.6189 312.851,82.6188 312.825,69.72 312.761,37.9867 316.406,37.9633 316.406,37.9633 328.159,37.8878 339.913,37.8122 351.666,37.7366 351.666,37.7366 363.419,37.6611 375.172,37.5855 386.926,37.5099 386.926,37.5099 410.432,37.3588 422.185,37.2833 422.185,37.2833 433.939,37.2077 445.692,37.1321 457.445,37.0566 460.873,37.0345 " fill="none" stroke-width="0.5" stroke="rgb(0,0,0)" />
</svg>
