<?xml version="1.0" standalone="no" ?>
<!DOCTYPE svg PUBLIC "-//W3C//DTD SVG 1.1//EN" "http://www.w3.org/Graphics/SVG/1.1/DTD/svg11.dtd">
<svg width="500px" height="500px" xmlns="http://www.w3.org/2000/svg" version="1.1" >
	<polygon points="471.523,91.8189 469.167,93.5221 470.565,93.9459 471.523,94.3355 471.523,281.025 470.712,295.472 468.286,310.793 464.192,326.95 458.409,343.636 450.922,360.554 441.721,377.412 430.799,393.929 418.15,409.826 403.768,424.832 387.645,438.683 369.766,451.118 350.11,461.881 328.647,470.717 305.337,477.365 280.134,481.558 252.985,483.02 226.532,481.641 201.867,477.672 178.969,471.362 157.809,462.95 138.363,452.671 120.615,440.754 104.554,427.427 90.1794,412.923 77.4925,397.477 66.498,381.332 57.2012,364.732 49.6065,347.93 43.7156,331.182 39.5263,314.751 37.0295,298.906 36.1905,283.65 36.1905,28.8046 38.4536,28.7872 49.9453,28.699 61.4369,28.6109 72.9286,28.5227 84.4203,28.4345 95.912,28.3463 107.404,28.2582 118.895,28.17 130.387,28.0818 141.879,27.9936 153.37,27.9055 164.862,27.8173 176.354,27.7291 187.845,27.6409 201.439,27.5366 201.432,31.0453 201.432,31.0453 201.406,43.9441 201.381,56.8429 201.356,69.7417 201.356,69.7417 201.33,82.6405 201.279,108.438 201.279,108.438 201.254,121.337 201.203,147.134 201.178,160.033 201.152,172.932 201.127,185.831 201.101,198.73 201.076,211.628 201.05,224.527 201.051,224.617 201.138,235.912 201.139,235.981 201.303,246.799 201.306,246.925 201.603,257.231 201.61,257.425 202.095,267.186 202.113,267.46 202.841,276.644 202.878,277.015 203.904,285.588 203.976,286.077 205.357,294.006 205.49,294.639 207.279,301.889 207.516,302.692 209.77,309.231 210.174,310.216 212.948,316.01 213.602,317.158 216.951,322.174 217.931,323.403 221.91,327.608 223.23,328.762 227.895,332.122 229.451,333.027 234.857,335.508 236.455,336.072 242.658,337.642 244.119,337.889 251.174,338.514 251.858,330.78 252.042,331.161 252.55,338.528 259.811,338.027 261.28,337.807 267.627,336.329 269.264,335.784 274.759,333.366 276.377,332.451 281.082,329.129 282.462,327.936 286.441,323.747 287.459,322.466 290.772,317.447 291.44,316.253 294.149,310.441 294.551,309.426 296.719,302.857 296.948,302.041 298.636,294.751 298.76,294.117 300.032,286.144 300.095,285.663 301.011,277.043 301.042,276.686 301.665,267.457 301.679,267.202 302.07,257.399 302.075,257.227 302.298,246.888 302.299,246.787 302.415,235.947 302.415,235.906 302.485,224.603 302.485,224.527 302.459,211.628 302.407,185.831 302.382,172.932 302.382,172.932 302.356,160.033 302.304,134.235 302.304,134.235 302.278,121.337 302.201,82.6402 302.201,82.6402 302.175,69.7414 302.097,31.045 302.097,31.045 302.09,27.4051 304.584,27.3891 316.338,27.3135 328.091,27.238 339.844,27.1624 351.597,27.0869 363.351,27.0113 375.104,26.9357 386.857,26.8602 410.364,26.709 422.117,26.6335 433.87,26.5579 445.623,26.4824 457.377,26.4068 469.13,26.3312 471.523,26.3159 " fill="none" stroke-width="0.5" stroke="rgb(0,0,0)" />
	<polygon points="307.26,468.289 307.426,468.336 307.751,468.476 307.563,467.843 " fill="none" stroke-width="0.5" stroke="rgb(0,0,0)" />
	<polygon points="194.245,444.449 194.541,445.598 194.664,445.625 196.11,445.858 197.498,446.002 198.571,446.044 200.005,445.965 201.294,445.738 202.359,445.389 203.138,444.977 203.5,444.679 203.013,444.715 201.591,444.712 195.373,444.223 194.096,444.012 " fill="none" stroke-width="0.5" stroke="rgb(0,0,0)" />
	<polygon points="317.309,421.921 317.33,421.977 317.707,423.224 318.038,424.676 318.112,425.035 318.259,425.821 318.514,426.005 319.098,426.462 319.964,427.198 320.91,428.138 321.036,428.018 321.506,427.597 322.215,427.006 322.882,426.498 323.582,426.013 324.538,425.433 324.995,425.192 324.752,424.327 324.404,421.809 324.404,419.582 " fill="none" stroke-width="0.5" stroke="rgb(0,0,0)" />
	<polygon points="167.904,413.393 167.911,414.749 167.7,417.835 168.77,417.777 168.983,416.672 169.078,416.353 169.948,414.351 170.105,414.08 170.251,413.888 168.76,413.106 168.032,412.682 167.839,412.557 " fill="none" stroke-width="0.5" stroke="rgb(0,0,0)" />
	<polygon points="260.097,405.725 260.514,405.933 260.149,405.597 " fill="none" stroke-width="0.5" stroke="rgb(0,0,0)" />
	<polygon points="205.267,391.255 205.322,391.198 205.237,391.188 " fill="none" stroke-width="0.5" stroke="rgb(0,0,0)" />
	<polygon points="82.9685,369.178 82.2761,369.227 82.4997,370.704 83.5279,369.928 83.6386,369.858 83.1475,369.352 83.0039,369.173 " fill="none" stroke-width="0.5" stroke="rgb(0,0,0)" />
	<polygon points="389.992,346.15 389.911,346.157 389.981,346.356 390.355,346.042 " fill="none" stroke-width="0.5" stroke="rgb(0,0,0)" />
	<polygon points="60.5136,341.382 60.9801,342.132 61.1546,341.603 61.3771,341.11 60.9226,340.978 60.4429,340.802 " fill="none" stroke-width="0.5" stroke="rgb(0,0,0)" />
	<polygon points="158.214,339.521 156.742,340.657 157.767,341.386 158.348,341.867 158.349,341.853 158.528,340.089 158.631,339.359 158.683,339.072 " fill="none" stroke-width="0.5" stroke="rgb(0,0,0)" />
	<polygon points="416.053,339.235 416.103,339.239 416.052,339.141 " fill="none" stroke-width="0.5" stroke="rgb(0,0,0)" />
	<polygon points="166.192,326.92 166.285,326.877 166.227,326.789 " fill="none" stroke-width="0.5" stroke="rgb(0,0,0)" />
	<polygon points="76.1429,315.904 75.8825,318.315 76.6503,317.482 77.9907,316.283 79.1158,315.458 78.7525,315.222 77.3234,314.081 76.7615,313.532 " fill="none" stroke-width="0.5" stroke="rgb(0,0,0)" />
	<polygon points="161.222,300.528 160.752,300.59 161.265,301.613 161.449,300.474 " fill="none" stroke-width="0.5" stroke="rgb(0,0,0)" />
	<polygon points="162.105,252.955 162.281,253.677 162.646,255.488 162.725,255.936 162.885,256.994 164.492,253.949 164.62,253.795 162.54,253.312 162.103,252.95 " fill="none" stroke-width="0.5" stroke="rgb(0,0,0)" />
	<polygon points="91.1887,217.455 91.4405,218.223 91.7459,219.427 92.5977,219.151 93.3266,219.029 96.1626,218.991 96.8064,219.082 98.4179,219.545 98.5109,218.925 98.8461,217.45 98.1512,217.527 96.1018,217.525 92.9126,217.169 90.8712,216.698 " fill="none" stroke-width="0.5" stroke="rgb(0,0,0)" />
	<polygon points="433.125,216.125 432.282,216.286 431.294,216.429 432.674,217.573 433.334,218.26 435.143,215.64 " fill="none" stroke-width="0.5" stroke="rgb(0,0,0)" />
	<polygon points="108.013,166.208 106.54,167.206 105.354,167.853 104.961,168.02 105.52,168.399 106.474,169.143 109.473,171.809 110.424,172.789 111.802,174.436 112.68,173.204 113.754,172.029 111.784,170.228 110.49,168.769 108.42,165.872 " fill="none" stroke-width="0.5" stroke="rgb(0,0,0)" />
	<polygon points="423.701,146.434 420.96,148.886 420.666,149.097 425.597,150.555 427.314,151.255 429.926,152.638 429.433,150.922 429.324,148.585 427.703,147.872 426.053,146.936 424.694,145.969 424.353,145.654 " fill="none" stroke-width="0.5" stroke="rgb(0,0,0)" />
	<polygon points="357.271,143.293 357.329,143.293 357.275,143.246 " fill="none" stroke-width="0.5" stroke="rgb(0,0,0)" />
	<polygon points="312.444,128.349 312.039,128.884 311.817,129.308 311.482,130.366 311.92,130.436 312.841,130.482 312.983,130.478 313.334,130.451 313.293,130.357 313.164,129.983 312.829,128.74 312.753,128.354 312.719,128.085 " fill="none" stroke-width="0.5" stroke="rgb(0,0,0)" />
	<polygon points="178.851,121.558 177.268,121.917 177.511,122.547 178.625,121.772 179.187,121.438 " fill="none" stroke-width="0.5" stroke="rgb(0,0,0)" />
	<polygon points="90.9732,118.675 89.6345,119.544 87.2964,120.791 84.7174,121.71 82.9564,122.056 82.9797,122.466 83.5975,122.204 84.9064,121.794 86.7419,121.418 88.145,121.275 90.0294,121.274 91.4344,121.417 92.6614,121.669 92.3639,119.445 92.3392,119.244 92.1715,117.741 " fill="none" stroke-width="0.5" stroke="rgb(0,0,0)" />
	<polygon points="186.036,115.27 185.7,115.915 184.54,117.64 184.089,118.17 182.315,119.781 182.144,119.9 182.882,119.529 184.336,118.947 187.557,117.962 189.058,117.658 186.708,114.883 186.404,114.504 186.369,114.459 " fill="none" stroke-width="0.5" stroke="rgb(0,0,0)" />
	<polygon points="102.924,65.418 102.692,65.6098 101.129,66.8624 101.59,66.7028 103.648,66.4936 103.626,66.1394 103.573,64.8622 " fill="none" stroke-width="0.5" stroke="rgb(0,0,0)" />
	<polygon points="398.99,38.3314 399.474,39.4949 399.985,39.2795 402.16,38.5285 401.705,38.3562 398.504,37.4457 " fill="none" stroke-width="0.5" stroke="rgb(0,0,0)" />
</svg>
