<?xml version="1.0" standalone="no" ?>
<!DOCTYPE svg PUBLIC "-//W3C//DTD SVG 1.1//EN" "http://www.w3.org/Graphics/SVG/1.1/DTD/svg11.dtd">
<svg width="500px" height="500px" xmlns="http://www.w3.org/2000/svg" version="1.1" >
	<polygon points="480.823,80.2762 480.791,80.3525 479.478,82.5238 474.163,88.9958 472.509,90.5513 468.099,93.7391 468.842,93.8918 470.396,94.3628 472.491,95.2148 474.097,96.0697 475.82,97.2287 477.277,98.4553 478.646,99.8868 479.775,101.346 480.808,103.016 480.823,103.046 480.823,191.125 479.169,193.039 477.59,194.114 475.162,195.025 479.142,199.442 480.121,200.754 480.823,201.905 480.823,246.755 479.684,248.695 479.245,249.37 476.975,252.535 478.442,252.868 479.701,253.316 480.823,253.89 480.823,281.286 480.046,295.13 479.775,295.506 477.197,298.695 476.482,299.478 473.852,302.033 474.299,302.735 476.215,306.403 476.735,307.61 477.744,310.529 477.405,312.666 473.11,329.62 467.07,347.047 459.27,364.67 454.939,372.605 451.014,372.858 450.293,372.543 450.867,378.698 450.818,380.156 449.695,382.213 438.331,399.399 425.161,415.952 410.17,431.593 400.893,439.563 399.031,438.978 397.538,438.273 397.188,438.062 397.122,439.413 396.422,443.403 393.345,446.047 374.668,459.037 354.126,470.285 331.702,479.516 322.184,482.231 322.153,482.222 320.507,481.571 317.844,480.194 316.328,479.202 314.863,478.011 314.874,478.096 314.941,478.946 314.954,479.36 314.652,481.945 314.254,483.417 313.621,484.673 307.382,486.452 281.151,490.817 265.569,491.656 264.211,490.547 263.567,489.924 263.127,490.148 262.63,490.383 258.859,492.017 252.993,492.333 225.548,490.902 199.887,486.773 178.655,480.922 178.573,480.863 174.66,478.115 171.791,476.501 170.131,476.023 167.265,475.739 164.405,475.58 153.907,471.407 133.585,460.665 128.793,457.448 126.826,454.328 126.665,452.464 125.878,452.456 120.49,451.872 115.039,448.212 98.2672,434.295 83.2685,419.161 70.0408,403.057 69.6244,402.446 69.4748,401.249 69.4346,399.447 69.5256,398.307 68.8774,398.337 65.6287,396.578 58.5824,386.23 48.8916,368.927 40.9666,351.394 34.8057,333.879 33.7374,329.689 36.6882,320.185 37.1921,318.916 39.2989,314.614 37.3383,314.574 35.3692,313.955 31.7681,311.771 29.9496,309.953 29.1981,308.954 27.7694,299.888 26.8905,283.906 26.8905,235.305 28.2409,232.203 29.268,230.435 29.7248,229.824 27.8498,228.743 26.8905,227.992 26.8905,162.178 26.8939,162.167 28.4659,157.784 29.0332,156.523 31.4597,152.09 32.4102,150.69 34.0225,148.746 33.8194,148.687 32.2232,148.047 29.937,146.86 28.4737,145.906 26.8905,144.636 26.8905,110.301 26.9496,110.242 27.9832,109.358 29.0174,108.602 28.9366,108.552 27.373,107.323 26.9779,106.932 26.8905,106.822 26.8905,89.5712 27.9329,87.9957 26.8905,87.6472 26.8905,40.6744 30.7354,37.8588 31.1657,37.5628 34.2981,35.5415 33.9031,35.4293 30.1526,34.2477 28.8183,33.7044 26.8905,32.7296 26.8905,19.5757 38.3822,19.4875 49.8739,19.3993 61.3656,19.3111 72.8572,19.223 84.3489,19.1348 95.8406,19.0466 107.332,18.9584 117.102,18.8835 117.126,18.9098 117.337,19.1534 118.484,20.5285 118.744,20.7714 118.806,20.7802 118.882,20.7692 119.285,20.4153 120.52,19.0525 120.705,18.8558 130.316,18.7821 141.807,18.6939 153.299,18.6057 157.536,18.5732 158.06,20.2152 158.815,19.6712 160.374,18.7723 160.875,18.5476 164.791,18.5175 176.282,18.4294 187.774,18.3412 210.757,18.1648 210.732,31.0636 210.706,43.9624 210.681,56.8612 210.678,58.2202 210.027,58.468 210.676,59.2125 210.656,69.76 210.63,82.6588 210.623,86.1307 210.294,86.3071 209.424,86.6708 207.977,87.1343 206.974,87.363 205.628,87.5626 204.731,87.6258 204.731,87.6258 204.966,87.8145 209.261,91.3898 209.56,91.6505 210.611,92.6075 210.579,108.456 210.554,121.355 210.503,147.153 210.478,160.052 210.452,172.95 210.443,177.802 209.859,178.873 209.017,180.145 207.235,182.387 206.119,183.555 203.978,185.42 203.399,185.833 203.523,185.902 205.922,187.546 207.288,188.703 209.261,190.748 210.414,192.236 210.401,198.748 210.376,211.647 210.361,218.948 210.177,219.28 209.964,219.643 209.138,220.975 207.832,222.262 209.792,224.076 210.351,224.649 210.438,235.84 210.602,246.657 210.899,256.963 211.257,264.18 211.236,264.207 209.057,266.843 207.574,268.816 207.257,269.409 208.392,270.556 210.553,272.377 210.706,272.509 211.928,273.586 212.112,275.909 213.138,284.482 214.519,292.41 216.308,299.661 218.563,306.2 221.336,311.994 224.685,317.011 228.665,321.215 233.33,324.575 238.737,327.056 244.939,328.626 250.49,329.117 250.802,329.628 252.311,332.752 252.688,333.749 253.668,331.912 254.59,330.517 255.831,328.98 259.171,328.749 265.518,327.271 271.013,324.853 275.719,321.532 279.698,317.343 283.01,312.324 285.72,306.511 287.888,299.942 289.576,292.653 290.848,284.68 291.763,276.06 292.328,267.688 292.415,267.602 294.064,266.309 295.076,265.694 295.227,265.624 293.319,263.986 292.536,263.077 292.778,257.028 293,246.688 293.115,235.848 293.185,224.546 293.183,223.405 293.299,223.18 293.182,223.063 293.159,211.647 293.133,198.748 293.129,196.705 293.796,196.036 295.275,194.81 296.353,194.076 295.868,193.359 295.22,192.172 294.544,190.577 294.134,189.267 293.776,187.522 293.633,186.119 293.633,184.324 293.776,182.922 294.135,181.176 294.545,179.868 295.222,178.273 295.869,177.087 296.817,175.687 296.9,175.586 294.925,174.305 293.512,172.993 293.081,172.492 293.056,160.052 293.004,134.254 292.991,127.628 293.272,127.359 293.136,126.794 293.05,126.396 292.988,126.071 292.978,121.355 292.97,117.075 293.074,116.465 293.842,113.489 294.361,112.026 295.675,109.149 296.517,107.691 297.251,106.66 296.947,106.706 296.711,106.705 296.219,106.688 296.028,106.675 294.708,106.492 294.557,106.459 292.947,105.851 292.901,82.6588 292.875,69.76 292.816,40.6655 292.846,40.6501 292.816,40.6068 292.797,31.0636 292.771,18.1648 304.525,18.0893 306.318,18.0778 307.542,18.7446 307.573,18.6004 307.718,18.0688 316.278,18.0137 328.031,17.9382 339.784,17.8626 351.538,17.787 363.291,17.7115 375.044,17.6359 379.55,17.607 381.034,18.4799 385.875,22.0337 386.945,19.9274 387.571,19.1994 389.749,17.5414 410.304,17.4092 422.057,17.3337 433.81,17.2581 443.156,17.198 443.714,17.5945 445.386,19.1237 445.725,18.6054 446.89,17.174 457.317,17.107 469.07,17.0314 480.823,16.9559 " fill="none" stroke-width="0.5" stroke="rgb(0,0,0)" />
	<polygon points="306.533,468.558 306.633,468.576 307.302,468.769 308.545,469.304 308.259,468.604 307.723,466.806 " fill="none" stroke-width="0.5" stroke="rgb(0,0,0)" />
	<polygon points="193.809,444.561 194.174,445.978 194.58,446.068 196.051,446.304 197.466,446.451 198.575,446.494 200.057,446.413 201.403,446.176 202.536,445.805 203.389,445.353 204.004,444.847 204.507,444.195 204.527,444.151 202.98,444.266 201.626,444.264 195.408,443.775 193.911,443.527 193.415,443.4 " fill="none" stroke-width="0.5" stroke="rgb(0,0,0)" />
	<polygon points="316.936,421.57 316.712,421.618 316.91,422.138 317.268,423.323 317.599,424.776 317.67,425.117 317.849,426.081 318.251,426.37 318.807,426.805 319.673,427.541 320.663,428.525 320.886,428.785 321.348,428.343 321.795,427.943 322.503,427.351 323.138,426.868 323.838,426.383 324.748,425.831 325.439,425.467 325.529,425.428 325.185,424.205 324.854,421.809 324.854,418.96 " fill="none" stroke-width="0.5" stroke="rgb(0,0,0)" />
	<polygon points="167.456,413.428 167.462,414.718 167.205,418.47 169.065,418.658 169.073,418.572 169.413,416.801 169.509,416.482 170.337,414.577 170.494,414.307 170.929,413.735 168.969,412.708 168.276,412.304 167.32,411.687 " fill="none" stroke-width="0.5" stroke="rgb(0,0,0)" />
	<polygon points="273.548,415.453 273.639,415.437 273.316,415.246 " fill="none" stroke-width="0.5" stroke="rgb(0,0,0)" />
	<polygon points="259.525,405.942 261.959,407.157 262.534,407.471 263.406,407.991 259.979,404.827 " fill="none" stroke-width="0.5" stroke="rgb(0,0,0)" />
	<polygon points="350.791,396.843 351.525,396.802 351.135,396.269 " fill="none" stroke-width="0.5" stroke="rgb(0,0,0)" />
	<polygon points="204.712,391.114 205.129,392.043 206.337,390.778 205.543,390.769 204.46,390.65 " fill="none" stroke-width="0.5" stroke="rgb(0,0,0)" />
	<polygon points="244.638,374.495 245.194,374.96 245.019,373.983 " fill="none" stroke-width="0.5" stroke="rgb(0,0,0)" />
	<polygon points="82.9096,368.732 81.8456,368.808 81.6547,368.81 81.8218,369.232 82.1759,371.571 82.6208,371.174 83.7689,370.308 84.3455,369.943 83.4984,369.071 83.1962,368.694 " fill="none" stroke-width="0.5" stroke="rgb(0,0,0)" />
	<polygon points="118.382,360.369 118.317,360.589 118.561,360.567 118.391,360.32 " fill="none" stroke-width="0.5" stroke="rgb(0,0,0)" />
	<polygon points="394.75,343.231 393.971,343.79 392.95,344.443 390.699,345.471 389.864,345.719 389.295,345.765 389.721,346.972 389.758,347.13 392.202,345.082 394.325,343.763 395.171,343.392 394.933,343.084 " fill="none" stroke-width="0.5" stroke="rgb(0,0,0)" />
	<polygon points="60.079,341.535 61.1045,343.184 61.5647,341.788 62.0004,340.823 61.0777,340.556 59.9071,340.126 " fill="none" stroke-width="0.5" stroke="rgb(0,0,0)" />
	<polygon points="157.903,339.196 156.428,340.334 155.896,340.662 156.422,340.98 157.48,341.733 158.747,342.782 158.756,342.503 158.796,341.898 158.975,340.134 159.074,339.44 159.375,337.788 " fill="none" stroke-width="0.5" stroke="rgb(0,0,0)" />
	<polygon points="415.165,334.66 415.275,335.334 415.323,335.666 415.482,336.936 415.537,337.561 415.597,338.69 415.606,339.415 415.599,339.647 416.858,339.755 416.12,338.318 415.273,334.648 " fill="none" stroke-width="0.5" stroke="rgb(0,0,0)" />
	<polygon points="165.513,327.719 166.943,327.057 166.05,325.705 " fill="none" stroke-width="0.5" stroke="rgb(0,0,0)" />
	<polygon points="75.699,315.823 75.4243,318.367 75.4479,319.205 75.4732,319.445 75.5635,319.325 76.9812,317.787 78.2568,316.646 79.9054,315.437 79.0332,314.87 77.6042,313.73 76.5209,312.671 " fill="none" stroke-width="0.5" stroke="rgb(0,0,0)" />
	<polygon points="161.163,300.082 160.044,300.23 160.239,300.571 161.487,303.061 161.91,300.437 162.032,299.876 " fill="none" stroke-width="0.5" stroke="rgb(0,0,0)" />
	<polygon points="161.672,253.079 161.84,253.766 162.205,255.577 162.28,256.004 162.572,257.932 162.604,258.17 162.705,258.985 163.15,257.436 164.839,254.236 165.421,253.533 162.555,252.814 161.273,251.685 " fill="none" stroke-width="0.5" stroke="rgb(0,0,0)" />
	<polygon points="158.277,247.153 158.292,247.161 158.28,247.129 " fill="none" stroke-width="0.5" stroke="rgb(0,0,0)" />
	<polygon points="327.777,237.358 327.494,237.357 327.869,237.782 328.741,239.238 328.144,237.32 " fill="none" stroke-width="0.5" stroke="rgb(0,0,0)" />
	<polygon points="312.232,227.691 312.393,227.786 312.338,227.657 " fill="none" stroke-width="0.5" stroke="rgb(0,0,0)" />
	<polygon points="90.2109,216.284 90.7611,217.595 91.0129,218.363 91.3104,219.536 91.3963,220.007 92.6722,219.595 93.4011,219.473 96.0999,219.437 96.7437,219.527 98.7863,220.115 98.9498,219.024 99.425,216.934 98.102,217.079 96.1518,217.078 92.9625,216.722 90.9775,216.264 90.0252,215.925 " fill="none" stroke-width="0.5" stroke="rgb(0,0,0)" />
	<polygon points="433.02,215.687 432.218,215.841 430.227,216.129 432.386,217.92 433.427,219.002 433.664,218.574 436.181,214.927 " fill="none" stroke-width="0.5" stroke="rgb(0,0,0)" />
	<polygon points="107.726,165.862 106.324,166.811 105.138,167.458 104.027,167.929 105.267,168.772 106.175,169.479 109.173,172.145 110.079,173.078 111.829,175.169 113.012,173.508 114.39,172 112.087,169.896 110.856,168.507 108.634,165.396 108.522,165.203 " fill="none" stroke-width="0.5" stroke="rgb(0,0,0)" />
	<polygon points="423.401,146.099 420.66,148.551 419.66,149.27 425.469,150.986 427.103,151.653 430.65,153.531 429.866,150.798 429.762,148.268 429.563,148.198 427.884,147.46 426.314,146.57 424.954,145.602 424.312,145.009 " fill="none" stroke-width="0.5" stroke="rgb(0,0,0)" />
	<polygon points="356.776,143.742 356.781,143.741 358.524,143.741 357.36,142.722 356.917,142.261 " fill="none" stroke-width="0.5" stroke="rgb(0,0,0)" />
	<polygon points="312.723,127.457 312.106,128.049 311.658,128.642 311.4,129.134 311.051,130.237 310.787,130.672 311.111,130.762 311.873,130.884 312.836,130.933 313.007,130.927 313.411,130.896 313.942,130.838 313.986,130.832 313.719,130.21 313.59,129.836 313.271,128.653 313.195,128.267 313.06,127.225 " fill="none" stroke-width="0.5" stroke="rgb(0,0,0)" />
	<polygon points="186.244,113.587 185.637,115.062 185.301,115.707 184.197,117.348 183.746,117.879 182.058,119.412 181.485,119.811 179.404,120.882 178.7,121.134 176.663,121.596 177.297,123.244 178.881,122.142 179.964,121.498 183.084,119.932 184.467,119.378 187.689,118.393 189.365,118.053 189.932,117.995 187.051,114.592 186.762,114.232 186.252,113.561 " fill="none" stroke-width="0.5" stroke="rgb(0,0,0)" />
	<polygon points="90.6967,118.32 89.4228,119.147 87.0847,120.394 84.6304,121.268 82.4848,121.691 82.5516,122.863 82.5563,123.133 83.7319,122.634 85.0408,122.224 86.7875,121.865 88.1906,121.722 89.9838,121.722 91.3889,121.865 93.1332,122.223 93.1919,122.241 92.8099,119.385 92.7864,119.194 92.5295,116.892 " fill="none" stroke-width="0.5" stroke="rgb(0,0,0)" />
	<polygon points="415.228,65.4873 416.826,66.7704 418.297,67.664 419.601,68.1545 420.417,68.2575 419.813,67.6333 416.622,65.7456 414.619,64.9158 " fill="none" stroke-width="0.5" stroke="rgb(0,0,0)" />
	<polygon points="102.631,65.0761 102.411,65.2586 100.629,66.6866 99.7804,67.2885 98.9612,67.7999 99.0492,68.2133 99.6789,67.8415 101.737,67.128 104.132,66.8987 104.098,66.4911 104.075,66.1207 103.984,63.9178 " fill="none" stroke-width="0.5" stroke="rgb(0,0,0)" />
	<polygon points="398.595,38.5477 399.234,40.0832 400.132,39.7048 403.104,38.6783 403.502,38.556 401.847,37.9286 397.97,36.8257 397.601,36.7334 " fill="none" stroke-width="0.5" stroke="rgb(0,0,0)" />
</svg>
