<?xml version="1.0" standalone="no" ?>
<!DOCTYPE svg PUBLIC "-//W3C//DTD SVG 1.1//EN" "http://www.w3.org/Graphics/SVG/1.1/DTD/svg11.dtd">
<svg width="500px" height="500px" xmlns="http://www.w3.org/2000/svg" version="1.1" >
	<polygon points="465.123,280.846 464.34,294.79 462.01,309.504 458.055,325.113 452.449,341.289 445.177,357.721 436.233,374.108 425.615,390.164 413.325,405.611 399.362,420.18 383.722,433.616 366.392,445.669 347.346,456.098 326.544,464.661 303.93,471.111 279.435,475.187 252.979,476.611 227.209,475.267 203.23,471.409 181.007,465.285 160.494,457.131 141.652,447.17 124.452,435.621 108.881,422.7 94.9354,408.63 82.6206,393.637 71.9453,377.96 62.9197,361.845 55.5522,345.545 49.8471,329.326 45.8017,313.46 43.402,298.231 42.5905,283.474 42.5905,35.1557 49.9944,35.0988 61.486,35.0107 72.9777,34.9225 84.4694,34.8343 95.9611,34.7461 107.453,34.658 118.944,34.5698 130.436,34.4816 153.419,34.3053 164.911,34.2171 176.403,34.1289 187.894,34.0407 187.894,34.0407 195.026,33.986 195.007,43.9315 194.981,56.8303 194.956,69.7291 194.956,69.7291 194.93,82.6279 194.879,108.425 194.879,108.425 194.854,121.324 194.803,147.122 194.803,147.122 194.778,160.021 194.752,172.919 194.752,172.919 194.701,198.717 194.676,211.616 194.676,211.616 194.65,224.515 194.651,224.667 194.738,235.961 194.739,236.079 194.904,246.896 194.909,247.109 195.205,257.415 195.218,257.742 195.703,267.504 195.733,267.966 196.461,277.15 196.523,277.776 197.55,286.349 197.671,287.175 199.052,295.103 199.276,296.173 201.066,303.423 201.466,304.777 203.72,311.316 204.402,312.979 207.175,318.773 208.279,320.712 211.628,325.728 213.283,327.803 217.262,332.007 219.49,333.955 224.155,337.315 226.781,338.844 232.188,341.325 234.885,342.276 241.088,343.846 243.555,344.264 250.61,344.889 251.947,329.779 252.991,344.913 260.251,344.412 262.731,344.04 269.078,342.562 271.841,341.642 277.337,339.224 280.067,337.68 284.773,334.358 287.103,332.344 291.081,328.155 292.801,325.992 296.113,320.973 297.24,318.957 299.95,313.144 300.629,311.432 302.797,304.862 303.183,303.485 304.871,296.196 305.08,295.125 306.352,287.152 306.46,286.339 307.376,277.719 307.428,277.117 308.051,267.887 308.074,267.457 308.465,257.654 308.474,257.365 308.696,247.025 308.699,246.855 308.814,236.015 308.815,235.946 308.885,224.643 308.885,224.514 308.859,211.615 308.833,198.717 308.807,185.818 308.782,172.919 308.782,172.919 308.756,160.02 308.704,134.223 308.704,134.222 308.678,121.324 308.601,82.6274 308.601,82.6273 308.575,69.7285 308.503,33.764 316.379,33.7134 328.132,33.6378 339.885,33.5623 351.638,33.4867 363.392,33.4112 375.145,33.3356 386.898,33.26 410.405,33.1089 422.158,33.0334 433.911,32.9578 445.665,32.8822 457.418,32.8067 465.123,32.7571 " fill="none" stroke-width="0.5" stroke="rgb(0,0,0)" />
</svg>
