<?xml version="1.0" standalone="no" ?>
<!DOCTYPE svg PUBLIC "-//W3C//DTD SVG 1.1//EN" "http://www.w3.org/Graphics/SVG/1.1/DTD/svg11.dtd">
<svg width="500px" height="500px" xmlns="http://www.w3.org/2000/svg" version="1.1" >
	<polygon points="469.023,280.955 468.223,295.206 465.835,310.289 461.795,326.232 456.081,342.719 448.678,359.447 439.577,376.122 428.774,392.458 416.265,408.179 402.047,423.015 386.112,436.704 368.448,448.99 349.03,459.622 327.826,468.351 304.787,474.922 279.861,479.069 252.983,480.517 226.796,479.151 202.399,475.225 179.765,468.988 158.858,460.677 139.648,450.522 122.113,438.749 106.244,425.581 92.0372,411.246 79.4957,395.977 68.6259,380.015 59.435,363.604 51.929,346.998 46.1107,330.457 41.9776,314.247 39.5188,298.642 38.6905,283.582 38.6905,31.2855 49.9644,31.199 61.4561,31.1108 72.9478,31.0226 84.4395,30.9344 95.9311,30.8463 107.423,30.7581 118.914,30.6699 130.406,30.5817 141.898,30.4936 153.39,30.4054 164.881,30.3172 176.373,30.229 187.865,30.1409 187.865,30.1409 198.934,30.0559 198.932,31.0404 198.932,31.0404 198.906,43.9392 198.881,56.838 198.856,69.7368 198.856,69.7368 198.83,82.6356 198.779,108.433 198.779,108.433 198.754,121.332 198.703,147.13 198.678,160.028 198.652,172.927 198.627,185.826 198.601,198.725 198.576,211.624 198.576,211.624 198.55,224.522 198.551,224.637 198.638,235.931 198.639,236.019 198.803,246.837 198.807,246.997 199.104,257.303 199.114,257.549 199.598,267.31 199.621,267.658 200.349,276.842 200.396,277.312 201.422,285.885 201.513,286.506 202.894,294.434 203.063,295.238 204.852,302.489 205.153,303.506 207.407,310.045 207.919,311.295 210.693,317.089 211.523,318.546 214.872,323.563 216.115,325.122 220.095,329.326 221.769,330.791 226.434,334.15 228.408,335.299 233.814,337.781 235.842,338.496 242.045,340.065 243.899,340.38 250.953,341.004 251.947,329.779 252.722,341.022 259.983,340.521 261.847,340.242 268.194,338.764 270.271,338.072 275.766,335.654 277.818,334.494 282.524,331.172 284.275,329.658 288.254,325.469 289.546,323.843 292.859,318.824 293.706,317.309 296.415,311.497 296.925,310.209 299.093,303.64 299.383,302.605 301.072,295.316 301.229,294.511 302.5,286.538 302.581,285.927 303.497,277.307 303.537,276.854 304.159,267.625 304.177,267.301 304.568,257.498 304.575,257.281 304.797,246.941 304.799,246.813 304.914,235.974 304.915,235.921 304.985,224.619 304.985,224.522 304.959,211.623 304.907,185.826 304.882,172.927 304.882,172.927 304.856,160.028 304.804,134.23 304.804,134.23 304.778,121.332 304.701,82.6352 304.701,82.6352 304.675,69.7364 304.597,31.04 304.597,31.04 304.595,29.8891 304.6,29.889 316.354,29.8135 328.107,29.7379 351.613,29.5868 363.367,29.5112 375.12,29.4357 386.873,29.3601 410.38,29.209 422.133,29.1334 433.886,29.0579 445.639,28.9823 457.393,28.9068 469.023,28.832 " fill="none" stroke-width="0.5" stroke="rgb(0,0,0)" />
	<polygon points="320.346,423.552 320.475,424.121 320.536,424.416 320.716,424.556 320.996,424.794 321.458,424.443 322.159,423.958 322.198,423.934 322.067,422.985 " fill="none" stroke-width="0.5" stroke="rgb(0,0,0)" />
</svg>
