<?xml version="1.0" standalone="no" ?>
<!DOCTYPE svg PUBLIC "-//W3C//DTD SVG 1.1//EN" "http://www.w3.org/Graphics/SVG/1.1/DTD/svg11.dtd">
<svg width="500px" height="500px" xmlns="http://www.w3.org/2000/svg" version="1.1" >
	<polygon points="474.573,84.3998 472.154,87.3456 470.986,88.4442 463.952,93.5285 462.832,94.1733 457.289,96.6405 457.882,96.8106 459.183,97.3489 460.055,97.8316 460.203,97.9385 461.562,96.5754 465.834,95.9282 468.319,96.4387 469.416,96.7713 471.512,97.6233 472.646,98.227 474.369,99.3861 474.573,99.5582 474.573,192.244 471.12,192.865 467.786,192.046 467.309,191.855 467.685,192.108 468.191,192.486 472.56,196.117 473.209,196.741 474.573,198.255 474.573,251.423 472.948,253.69 472.871,253.796 471.885,255.111 472.715,254.936 474.573,254.84 474.573,281.111 473.749,295.797 473.241,299.002 471.712,300.488 470.118,301.332 471.421,303.039 471.994,303.939 472.351,304.622 471.277,311.407 467.117,327.826 461.249,344.755 453.659,361.904 449.566,369.404 447.559,367.91 446.386,365.208 445.3,358.939 443.234,355.677 439.926,353.1 437.2,351.734 440.97,355.921 441.766,357.027 444.813,362.418 445.349,363.665 447.327,370.127 447.573,371.377 447.707,372.81 444.336,378.987 433.269,395.723 420.449,411.835 405.868,427.05 396.891,434.761 396.143,434.198 395.394,433.533 394.112,432.197 393.95,432.003 394.223,433.102 394.389,434.136 394.586,436.741 389.514,441.098 371.373,453.715 351.427,464.638 329.649,473.603 317.74,476.999 315.769,475.397 314.868,474.499 313.142,472.386 312.455,471.347 311.211,468.988 310.751,467.86 309.998,465.337 309.766,464.154 309.513,461.549 309.497,460.537 309.729,456.997 309.697,457.097 309.477,457.688 307.443,462.394 306.876,463.426 304.11,467.499 302.761,468.932 300,471.066 300.064,471.056 300.756,470.947 301.046,470.908 301.762,470.829 302.232,470.795 303.096,470.765 303.811,470.781 304.682,470.85 305.913,471.075 306.582,471.267 308.027,471.889 308.521,472.18 309.889,473.272 310.234,473.637 311.198,474.974 311.421,475.388 311.921,476.618 312.047,477.057 312.239,477.988 312.295,478.427 312.305,478.549 306.008,480.345 280.467,484.595 252.987,486.075 226.209,484.678 201.218,480.656 177.998,474.258 156.529,465.724 136.796,455.293 129.271,450.24 129.297,449.711 128.58,449.776 118.786,443.199 102.492,429.679 87.9129,414.969 75.0487,399.307 63.902,382.938 54.476,366.108 46.7729,349.066 40.7935,332.066 38.5065,323.096 39.1712,320.955 39.5271,320.06 43.6628,311.615 41.6266,312.166 38.1187,312.094 36.1497,311.475 35.8983,311.322 33.9926,299.228 33.1405,283.734 33.1405,229.597 33.1887,229.533 34.2063,228.724 33.212,228.471 33.1405,228.442 33.1405,154.434 33.7404,153.338 34.4117,152.35 37.951,148.082 38.8428,147.21 38.254,147.155 37.0836,146.931 34.5481,146.191 33.4209,145.739 33.1405,145.593 33.1405,109.087 34.4844,108.386 37.9167,107.701 40.8369,108.836 41.1487,107.77 41.4504,107.014 41.1264,107.106 37.1014,107.85 35.5937,107.943 34.9014,107.901 34.0599,107.793 33.4264,107.668 33.1405,107.586 33.1405,39.3828 37.0355,36.8693 37.1182,36.8169 40.8243,34.5068 39.3602,34.1444 39.327,34.1361 35.0276,33.0469 34.6844,32.9495 33.1405,32.4631 33.1405,25.7779 38.4302,25.7373 49.9219,25.6491 61.4135,25.561 72.9052,25.4728 84.3969,25.3846 95.8885,25.2964 107.38,25.2082 118.872,25.1201 130.364,25.0319 153.347,24.8555 155.445,24.8394 155.424,24.9326 155.056,25.7516 152.95,28.3047 151.981,28.9863 151.018,29.5425 149.648,30.179 149.509,30.2416 149.071,30.4324 149.602,30.8264 152.205,32.4521 154.323,33.7327 154.13,33.1842 154.408,28.3668 155.461,26.2096 156.623,24.8304 164.839,24.7674 176.33,24.6792 187.822,24.591 204.495,24.4631 204.482,31.0513 204.482,31.0513 204.456,43.9501 204.431,56.8489 204.406,69.7477 204.406,69.7477 204.38,82.6465 204.375,85.0444 204.317,85.0485 203.245,85.0317 199.264,84.6264 198.508,84.5023 195.327,83.7775 198.157,85.8189 198.334,85.9508 203.137,89.6796 203.302,89.8128 204.364,90.6967 204.329,108.444 204.329,108.444 204.304,121.343 204.253,147.14 204.202,172.938 204.185,181.792 202.27,183.46 201.28,184.166 198.811,185.585 197.706,186.077 198.268,186.267 201.031,187.479 202.053,188.047 204.169,189.497 204.151,198.736 204.126,211.634 204.105,221.981 203.524,222.078 204.104,222.517 204.1,224.533 204.101,224.594 204.188,235.888 204.188,235.935 204.353,246.752 204.355,246.837 204.652,257.143 204.657,257.273 205.142,267.035 205.153,267.219 205.196,267.75 204.619,268.829 204.495,269.456 204.621,270.103 205.174,271 205.477,271.307 205.881,276.403 205.906,276.652 206.933,285.225 206.981,285.554 208.361,293.483 208.451,293.908 210.241,301.159 210.4,301.698 212.654,308.237 212.925,308.899 215.699,314.693 216.138,315.465 219.487,320.481 220.146,321.307 224.126,325.511 225.013,326.287 229.678,329.647 230.723,330.255 236.129,332.736 237.203,333.115 243.406,334.685 244.388,334.851 250.494,335.392 251.274,338.176 251.45,339.033 251.725,341.083 254.799,335.316 259.601,334.984 260.588,334.836 266.935,333.359 268.035,332.992 273.531,330.574 274.618,329.959 279.324,326.638 280.251,325.836 284.229,321.647 284.914,320.786 288.227,315.767 288.675,314.964 291.385,309.152 291.655,308.47 293.823,301.901 293.977,301.353 295.665,294.063 295.748,293.637 297.02,285.664 297.063,285.34 297.979,276.721 297.999,276.481 298.622,267.251 298.631,267.08 298.633,267.024 298.896,266.939 300.208,266.666 300.741,266.614 299.936,266.127 299.1,265.522 298.707,265.184 299.023,257.277 299.026,257.162 299.248,246.822 299.25,246.754 299.365,235.915 299.365,235.887 299.435,224.584 299.435,224.533 299.409,211.634 299.383,198.735 299.376,195.339 299.603,195.215 300.407,194.87 299.675,194.139 299.373,193.773 299.357,185.837 299.339,176.717 299.676,176.309 300.513,175.473 301.548,174.617 302,174.312 299.985,174.203 299.334,173.926 299.332,172.938 299.306,160.039 299.254,134.241 299.254,134.241 299.228,121.343 299.202,108.402 300.52,106.551 301.378,105.579 303.863,103.292 304.97,102.477 308.081,100.681 309.345,100.127 310.716,99.6994 310.684,99.5742 310.597,99.18 310.466,98.4788 310.408,98.1107 310.206,96.5049 310.158,96.1395 309.346,96.8574 309.306,96.8926 306.904,98.9791 306.707,99.1428 304.43,100.963 303.927,101.326 301.941,102.613 300.442,103.322 299.193,103.721 299.151,82.6463 299.151,82.6463 299.125,69.7475 299.047,31.0511 299.047,31.0511 299.034,24.3747 304.565,24.3392 316.318,24.2636 328.071,24.188 339.824,24.1125 351.578,24.0369 363.331,23.9614 375.084,23.8858 383.927,23.8289 385.705,25.1341 386.699,26.0438 387.75,27.2392 387.481,26.6647 387.85,23.8037 410.344,23.6591 422.097,23.5835 433.851,23.508 445.506,23.4331 445.769,23.9023 445.954,23.4302 457.357,23.3569 469.11,23.2813 474.573,23.2462 " fill="none" stroke-width="0.5" stroke="rgb(0,0,0)" />
	<polygon points="189.003,439.661 190.989,444.319 191.292,445.21 192.044,448.129 192.602,448.294 194.094,448.623 195.711,448.883 197.28,449.045 198.595,449.097 200.354,449.001 202.037,448.704 203.556,448.207 204.839,447.527 205.883,446.668 206.749,445.546 207.47,443.962 208.052,441.28 202.786,441.674 201.83,441.672 195.612,441.183 194.555,441.007 189.358,439.68 188.936,439.53 " fill="none" stroke-width="0.5" stroke="rgb(0,0,0)" />
	<polygon points="161.107,430.988 160.55,432.072 157.551,436.73 156.665,437.816 152.47,441.916 151.277,442.83 146.288,445.772 148.42,445.636 152.384,444.787 155.501,443.515 157.857,441.927 159.597,440.054 160.855,437.819 161.667,435.082 161.983,431.529 161.98,431.322 161.963,430.848 161.934,430.344 161.896,429.818 161.849,429.274 161.836,429.144 " fill="none" stroke-width="0.5" stroke="rgb(0,0,0)" />
	<polygon points="326.871,415.401 325.627,415.968 316.122,419.101 314.801,419.382 312.673,419.6 313.173,420.278 313.986,421.765 314.48,423.063 314.733,423.9 315.064,425.353 315.114,425.594 315.368,426.959 315.522,427.612 315.792,427.804 315.824,427.827 316.732,428.48 317.124,428.787 317.991,429.523 318.689,430.218 319.423,431.073 320.264,432.337 320.568,432.942 320.603,432.9 321.324,432.073 321.486,431.895 322.205,431.132 322.431,430.905 323.145,430.221 323.461,429.938 324.17,429.347 324.618,429.006 325.318,428.521 325.961,428.13 326.651,427.767 327.568,427.373 328.246,427.144 329.189,426.931 328.037,424.743 327.688,423.501 327.454,421.809 327.454,415.053 " fill="none" stroke-width="0.5" stroke="rgb(0,0,0)" />
	<polygon points="243.796,411.762 243.017,416.738 242.484,418.46 240.278,423.091 239.465,424.369 238.608,425.414 239.755,424.315 242.68,420.347 244.812,416.02 246.171,411.241 246.159,411.24 245.221,411.105 243.861,410.731 " fill="none" stroke-width="0.5" stroke="rgb(0,0,0)" />
	<polygon points="377.693,417.615 377.692,417.762 377.675,418.485 377.657,418.833 377.651,418.904 379.511,418.402 381.081,418.586 382.398,418.887 384.031,419.452 385.201,419.997 386.812,420.963 387.833,421.727 389.34,423.115 389.906,423.753 389.735,422.427 389.696,421.238 389.725,420.764 389.853,419.84 389.96,419.34 390.066,418.998 388.983,418.883 387.855,418.656 384.294,417.592 383.412,417.253 380.073,415.673 379.356,415.274 377.693,414.201 " fill="none" stroke-width="0.5" stroke="rgb(0,0,0)" />
	<polygon points="164.863,413.63 164.868,414.541 164.547,419.225 164.423,420.11 163.954,422.296 164.641,421.545 168.022,420.64 170.618,421.268 171.87,421.877 171.683,420.692 171.631,419.168 171.663,418.8 171.903,417.55 171.999,417.231 172.584,415.885 172.741,415.615 173.677,414.386 173.894,414.164 175.034,413.246 175.308,413.074 175.558,412.95 173.323,412.026 172.812,411.786 170.175,410.405 169.687,410.12 167.259,408.553 166.769,408.201 164.612,406.493 164.286,406.204 " fill="none" stroke-width="0.5" stroke="rgb(0,0,0)" />
	<polygon points="258.131,398.905 258.187,399.728 258.174,400.744 258.079,401.756 257.849,402.944 257.573,403.875 257.109,405.016 256.669,405.849 255.982,406.886 255.746,407.175 257.413,407.824 257.938,408.056 260.798,409.484 261.204,409.706 263.987,411.362 264.326,411.579 266.943,413.375 267.253,413.602 269.617,415.448 269.933,415.711 271.955,417.516 272.323,417.872 272.68,418.247 272.688,418.246 272.962,418.192 274.247,417.97 274.507,417.931 275.841,417.759 276.088,417.732 277.471,417.608 277.703,417.592 279.136,417.518 279.354,417.51 280.836,417.486 281.086,417.486 283.217,417.536 283.496,417.549 285.46,417.683 279.578,415.758 278.338,415.197 269.732,410.103 268.676,409.317 261.575,402.761 260.753,401.836 258.008,398.048 " fill="none" stroke-width="0.5" stroke="rgb(0,0,0)" />
	<polygon points="348.879,394.996 348.302,395.959 345.3,400.081 347.713,399.661 348.435,399.579 352.943,399.327 353.517,399.321 357.31,399.458 357.808,399.496 361.278,399.9 361.863,399.997 364.955,400.658 365.671,400.857 367.482,401.477 367.705,398.549 363.05,399.591 360.286,399.584 359.136,399.32 357.012,398.392 355.935,397.657 354.753,396.609 353.775,395.49 353.129,394.607 352.273,393.19 351.891,392.452 351.182,390.822 351.057,390.484 " fill="none" stroke-width="0.5" stroke="rgb(0,0,0)" />
	<polygon points="218.093,387.098 216.883,387.327 207.067,388.198 205.828,388.185 199.574,387.495 200.118,388.23 200.589,388.969 202.427,392.354 202.813,393.215 203.955,396.38 204.26,397.597 204.293,397.826 207.069,393.723 208.509,392.215 212.464,389.265 214.994,388.143 220.679,387.024 222.364,386.925 223.41,387.005 224.133,387.103 225.382,387.348 225.611,387.404 225.525,386.827 225.442,385.808 225.443,384.936 " fill="none" stroke-width="0.5" stroke="rgb(0,0,0)" />
	<polygon points="308.609,393.095 308.142,393.232 304.93,394.042 304.356,394.158 300.649,394.73 300.015,394.795 295.773,395.012 295.016,395.005 291.503,394.759 291.378,394.741 291.603,394.848 297.518,396.448 304.329,397.038 307.653,396.9 310.65,396.505 312.249,396.126 310.894,394.241 310.639,393.409 310.58,392.432 " fill="none" stroke-width="0.5" stroke="rgb(0,0,0)" />
	<polygon points="246.498,367.437 245.866,368.488 241.8,373.954 240.905,374.923 240.694,375.108 241.9,375.723 242.785,376.315 243.811,377.174 244.554,377.946 245.027,378.538 245.202,378.53 246.105,378.555 247.351,378.681 248.639,378.949 248.959,379.052 247.775,374.682 247.582,373.605 246.945,366.495 " fill="none" stroke-width="0.5" stroke="rgb(0,0,0)" />
	<polygon points="145.664,371.152 146.708,371.965 152.209,377.272 152.871,378.053 152.552,377.307 151.238,375.275 149.46,373.327 147.141,371.473 144.212,369.748 141.588,368.622 " fill="none" stroke-width="0.5" stroke="rgb(0,0,0)" />
	<polygon points="83.676,366.002 83.4109,366.043 82.5693,366.154 81.8179,366.208 79.5044,366.232 78.2631,366.121 77.5061,365.976 78.2203,367.014 79.2511,369.622 80.37,377.01 81.195,376.019 81.8417,375.35 84.3502,373.116 85.161,372.504 87.6402,370.932 88.7514,370.374 88.9319,370.305 88.8237,370.244 87.8319,369.553 86.3463,368.288 85.5258,367.443 84.2909,365.905 84.2847,365.895 " fill="none" stroke-width="0.5" stroke="rgb(0,0,0)" />
	<polygon points="170.897,371.243 171.628,373.731 171.97,374.602 172.207,374.636 172.512,374.662 172.832,374.671 173.29,374.665 173.808,374.648 174.341,374.623 174.631,374.606 174.402,374.407 173.635,373.607 170.477,369.674 " fill="none" stroke-width="0.5" stroke="rgb(0,0,0)" />
	<polygon points="354.344,363.394 353.159,364.554 355.359,366.872 356.019,370.374 355.691,373.56 356.934,372.972 357.58,372.709 359.149,372.172 359.637,372.027 361.336,371.595 363.214,370.971 362.326,370.619 360.45,369.65 359.397,368.964 357.806,367.683 356.907,366.794 355.626,365.243 354.927,364.199 354.439,363.28 " fill="none" stroke-width="0.5" stroke="rgb(0,0,0)" />
	<polygon points="98.7939,372.876 99.049,373.324 99.4837,372.843 " fill="none" stroke-width="0.5" stroke="rgb(0,0,0)" />
	<polygon points="324.391,365.639 323.676,367.06 323.034,368.078 322.068,369.324 321.217,370.223 321.152,370.279 323.504,370.224 327.07,369.992 330.917,369.577 332.011,369.405 330.75,369.051 329.588,368.595 326.972,367.254 325.875,366.537 324.483,365.403 " fill="none" stroke-width="0.5" stroke="rgb(0,0,0)" />
	<polygon points="277.455,364.663 275.646,367.87 275.685,367.851 276.025,367.73 277.418,367.41 277.436,367.289 277.675,366.064 277.906,365.209 278.301,364.075 278.378,363.914 " fill="none" stroke-width="0.5" stroke="rgb(0,0,0)" />
	<polygon points="295.156,356.99 293.815,357.596 289.903,358.831 290.299,358.978 291.848,359.818 293.717,361.204 293.854,361.309 296.182,363.138 297.886,364.299 297.627,363.402 297.41,362.255 297.266,360.718 297.246,359.838 297.298,358.732 297.341,358.24 297.48,357.15 297.531,356.817 297.727,355.743 297.761,355.567 297.797,355.401 " fill="none" stroke-width="0.5" stroke="rgb(0,0,0)" />
	<polygon points="118.404,353.499 117.462,354.043 116.323,354.576 116.345,356.469 116.238,357.699 115.827,359.888 115.468,361.103 114.652,363.096 114.235,363.876 115.327,363.573 116.437,363.37 120.688,362.986 121.937,362.998 126.054,363.452 125.773,363.313 124.152,362.379 123.199,361.704 122.102,360.761 121.025,359.562 120.358,358.592 119.565,356.987 119.234,355.97 118.948,354.549 118.858,353.468 118.872,353.171 " fill="none" stroke-width="0.5" stroke="rgb(0,0,0)" />
	<polygon points="394.457,340.125 394.269,340.282 393.121,341.205 392.571,341.6 391.55,342.252 389.96,342.978 389.125,343.226 386.573,343.435 386.385,343.412 385.393,343.159 385.551,343.414 386.14,344.638 387.27,347.838 387.586,349.212 387.942,352.341 388.548,351.64 389.26,350.939 393.872,347.075 395.371,346.144 399.445,344.353 399.157,344.075 398.685,343.567 397.408,342.029 397.267,341.852 395.918,340.103 395.338,339.358 " fill="none" stroke-width="0.5" stroke="rgb(0,0,0)" />
	<polygon points="56.7708,335.888 57.5676,342.42 60.9594,347.875 62.9106,349.806 62.8897,347.769 63.0302,346.386 63.5216,344.11 63.9344,342.858 64.8629,340.801 65.4682,339.748 65.983,339.025 65.6873,338.975 62.817,338.359 61.9738,338.115 59.5051,337.209 58.4463,336.703 56.8219,335.729 " fill="none" stroke-width="0.5" stroke="rgb(0,0,0)" />
	<polygon points="165.474,295.717 164.192,296.395 163.316,296.775 162.046,297.215 160.822,297.504 159.639,297.661 158.3,297.693 157.944,297.664 156.889,297.484 156.483,297.378 155.434,297.003 154.986,296.796 154.604,296.577 157.564,301.123 157.914,301.735 161.972,309.837 162.499,311.347 164.038,318.653 164.148,320.494 163.896,323.335 163.709,324.391 162.959,327.206 162.594,328.216 161.357,330.897 160.794,331.873 159.08,334.31 158.287,335.231 156.106,337.316 155.065,338.12 152.428,339.744 151.173,340.336 150.251,340.651 151.782,341.29 152.614,341.713 155.074,343.204 155.821,343.735 158.171,345.681 158.775,346.253 161.034,348.699 161.486,349.248 161.839,349.73 161.333,345.283 161.296,344.371 161.354,342.588 161.383,342.161 161.562,340.397 161.631,339.906 161.937,338.229 162.08,337.619 162.52,336.096 162.813,335.29 163.392,333.987 164.018,332.892 164.742,331.878 166.074,330.513 166.95,329.856 169.322,328.758 170.356,328.524 171.003,328.485 167.886,323.767 167.273,322.58 164.974,316.646 164.603,315.185 163.788,308.851 163.745,307.72 163.914,304.562 163.985,303.899 164.477,300.852 164.616,300.209 165.411,297.285 165.612,296.673 166.14,295.306 " fill="none" stroke-width="0.5" stroke="rgb(0,0,0)" />
	<polygon points="317.158,341.774 316.119,342.275 315.161,342.644 314.203,342.924 314.787,343.183 315.761,343.723 317.294,344.761 317.405,344.065 318.054,341.272 318.071,341.21 " fill="none" stroke-width="0.5" stroke="rgb(0,0,0)" />
	<polygon points="416.435,331.826 415.448,332.014 413.661,332.208 413.442,332.227 412.117,332.324 412.213,332.866 412.469,334.287 412.485,334.384 412.709,335.753 412.743,335.988 412.902,337.257 412.941,337.699 413.001,338.828 413.007,339.34 412.997,339.674 412.968,340.129 412.933,340.464 412.835,341.101 412.768,341.423 412.601,342.01 412.685,342.008 418.032,342.464 419.085,342.646 422.847,343.631 420.052,340.457 418.654,337.733 417.413,332.36 417.359,331.571 " fill="none" stroke-width="0.5" stroke="rgb(0,0,0)" />
	<polygon points="126.177,334.013 126.66,336.288 126.796,337.644 126.776,339.882 126.646,341.094 126.59,341.36 128.513,340.426 129.301,340.107 131.48,339.395 132.15,339.221 131.325,338.744 130.292,337.996 128.386,336.295 127.57,335.411 126.073,333.44 125.916,333.188 " fill="none" stroke-width="0.5" stroke="rgb(0,0,0)" />
	<polygon points="385.951,308.942 384.908,310.417 383.904,312.169 383.015,314.085 382.372,315.849 382.156,316.962 381.953,319.185 381.778,322.145 381.59,325.329 381.577,325.505 381.315,328.509 381.26,328.955 380.857,331.476 380.578,332.57 379.965,334.305 378.959,335.654 379.565,336.088 380.251,336.683 380.308,335.204 380.586,333.469 380.842,332.439 381.575,330.291 381.717,329.916 382.753,327.415 382.776,327.361 383.931,324.649 385.018,321.886 385.904,319.161 386.48,316.572 386.696,313.971 386.672,312.651 386.563,310.909 386.347,309.168 386.232,308.627 " fill="none" stroke-width="0.5" stroke="rgb(0,0,0)" />
	<polygon points="121.555,324.292 120.379,324.844 120.189,324.91 120.817,325.434 122.361,326.988 123.101,327.887 123.924,329.102 123.323,327.059 123.1,325.916 122.88,323.715 122.879,323.495 " fill="none" stroke-width="0.5" stroke="rgb(0,0,0)" />
	<polygon points="321.902,325.449 320.856,326.161 321.347,326.881 322.051,328.25 322.255,328.808 322.542,327.556 322.717,325.55 322.699,325.078 322.631,324.503 " fill="none" stroke-width="0.5" stroke="rgb(0,0,0)" />
	<polygon points="75.6231,307.446 74.0771,311.739 73.1347,315.352 72.8203,318.263 72.8518,319.379 72.9831,320.623 73.2268,321.772 73.6191,322.912 74.2281,324.134 74.9873,325.267 75.1173,324.921 75.6423,323.849 76.7466,322.051 77.4757,321.087 78.8934,319.548 79.7942,318.743 81.4952,317.496 82.5209,316.885 84.4751,315.962 85.5699,315.564 86.4142,315.344 86.0791,315.279 84.3754,314.775 83.2688,314.329 81.6748,313.501 80.6554,312.839 79.2264,311.698 78.3335,310.825 77.1249,309.382 76.4117,308.328 75.7625,307.12 " fill="none" stroke-width="0.5" stroke="rgb(0,0,0)" />
	<polygon points="345.835,305.908 344.861,305.895 344.795,305.889 344.827,306.462 344.726,307.707 344.508,308.91 344.194,310.015 343.618,311.392 343.075,312.35 342.093,313.65 341.303,314.452 340.154,315.361 340.442,315.493 341.356,316.009 346.215,319.322 347.04,319.994 351.058,323.88 351.275,324.13 351.446,323.605 352.021,322.294 352.236,321.852 353.049,320.336 353.154,320.148 353.356,319.801 352.693,319.643 352.428,319.574 350.579,319.049 349.698,318.725 348.391,318.13 345.852,316.013 345.356,315.301 344.24,311.984 344.804,309.124 345.007,308.68 347.034,306.215 347.606,305.803 347.628,305.79 " fill="none" stroke-width="0.5" stroke="rgb(0,0,0)" />
	<polygon points="97.9324,313.836 96.6629,314.39 94.734,314.988 94.8626,315.006 96.0967,315.308 98.1389,316.034 98.8953,316.389 98.7436,316.043 98.4085,315.069 98.0746,313.754 " fill="none" stroke-width="0.5" stroke="rgb(0,0,0)" />
	<polygon points="428.113,312.796 428.106,312.998 428.06,313.917 428.777,313.619 430.934,312.964 432.144,312.723 432.223,312.716 431.824,312.704 431.57,312.691 430.724,312.632 430.583,312.621 429.68,312.537 429.622,312.531 428.688,312.436 428.121,312.379 " fill="none" stroke-width="0.5" stroke="rgb(0,0,0)" />
	<polygon points="403.313,305.956 404.634,307.942 406.255,309.896 408.079,311.71 409.993,313.288 410.247,313.458 408.555,310.713 406.173,307.555 403.653,305.124 402.591,304.509 " fill="none" stroke-width="0.5" stroke="rgb(0,0,0)" />
	<polygon points="436.745,312.051 436.507,312.145 435.682,312.405 435.395,312.474 435.379,312.477 437.205,312.543 437.216,311.811 " fill="none" stroke-width="0.5" stroke="rgb(0,0,0)" />
	<polygon points="130.822,300.359 130.953,301.193 131.479,307.164 131.474,308.311 131.397,309.108 133.885,308.827 134.065,308.844 135.658,309.212 135.808,309.268 137.618,310.319 137.739,310.42 138.061,310.79 135.922,306.351 131.351,298.691 129.907,296.322 " fill="none" stroke-width="0.5" stroke="rgb(0,0,0)" />
	<polygon points="312.727,303.425 311.886,304.102 307.827,306.829 308.331,306.872 310.97,307.214 311.543,307.315 313.946,307.857 314.316,307.962 313.663,306.517 313.173,304.841 312.938,303.223 " fill="none" stroke-width="0.5" stroke="rgb(0,0,0)" />
	<polygon points="109.027,296.61 108.894,297.543 108.315,300.175 108.728,300.33 109.011,300.488 109.735,301.21 109.737,301.164 109.425,296.62 109.128,295.065 " fill="none" stroke-width="0.5" stroke="rgb(0,0,0)" />
	<polygon points="434.579,292.607 434.303,293.028 433.352,294.359 433.27,294.472 432.204,295.895 431.931,296.271 432.631,296.667 434.545,297.7 434.69,297.781 436.395,298.761 436.982,299.144 437.248,299.339 435.673,294.129 434.94,292.004 " fill="none" stroke-width="0.5" stroke="rgb(0,0,0)" />
	<polygon points="458.786,287.99 457.821,288.437 456.723,289.346 455.428,290.91 454.005,293.11 453.865,293.359 454.67,293.277 456.297,293.325 459.486,293.838 461.267,294.409 461.27,294.316 461.275,294.058 461.277,293.743 461.277,293.53 461.206,292.074 461.005,290.704 460.679,289.444 460.28,288.462 459.926,287.894 459.87,287.838 " fill="none" stroke-width="0.5" stroke="rgb(0,0,0)" />
	<polygon points="87.3562,283.41 87.3031,283.514 84.9482,288.048 84.1748,289.541 86.1459,290.577 86.6674,290.991 87.2738,291.542 87.8384,292.126 88.2993,292.603 88.3475,292.645 88.74,292.591 88.767,292.558 89.1979,291.509 89.6635,289.246 89.9831,285.892 90.1376,281.589 90.1648,277.745 " fill="none" stroke-width="0.5" stroke="rgb(0,0,0)" />
	<polygon points="54.9844,276.616 55.2348,277.805 55.967,279.37 56.2526,279.822 56.7213,280.545 56.7625,280.609 57.2076,281.315 57.3357,281.527 57.7272,282.206 57.9348,282.598 58.2605,283.268 58.5118,283.862 58.7595,284.543 58.9876,285.325 59.1452,286.034 59.2772,286.934 59.3242,287.578 60.2232,285.923 60.9496,282.76 60.9474,282.745 60.9088,282.599 60.8612,282.479 60.7868,282.342 60.654,282.154 60.4255,281.896 59.866,281.378 59.8514,281.365 57.9293,279.574 57.5592,279.199 56.0451,277.529 55.8144,277.259 54.9879,276.236 " fill="none" stroke-width="0.5" stroke="rgb(0,0,0)" />
	<polygon points="417.255,284.262 417.103,284.291 414.585,284.745 412.168,285.211 410.166,285.699 408.614,286.249 408.048,286.512 410.207,286.374 413.403,285.785 416.364,284.93 419.079,283.916 419.207,283.861 " fill="none" stroke-width="0.5" stroke="rgb(0,0,0)" />
	<polygon points="156.73,225.82 155.713,227.59 155.035,228.982 155.007,229.065 156.646,231.288 157.023,233.704 156.962,235.131 156.944,235.41 156.785,237.232 156.772,237.363 156.548,239.434 156.541,239.495 156.283,241.671 156.282,241.685 156.026,243.804 155.809,245.684 155.669,247.108 155.63,247.845 155.656,248.665 157.339,249.705 158.707,252.17 159.173,253.795 159.291,254.28 159.656,256.091 159.709,256.392 160.001,258.321 160.024,258.489 160.268,260.467 160.275,260.524 160.496,262.458 160.711,264.213 160.883,265.34 162.108,265.772 164.278,268.562 164.819,269.938 165.382,271.362 165.96,272.736 166.556,274.009 167.159,275.119 167.741,276.003 168.25,276.612 169.045,277.314 169.286,277.522 169.727,277.942 169.997,278.226 170.35,278.631 170.613,278.96 170.926,279.388 171.169,279.75 171.465,280.24 171.675,280.627 171.96,281.226 172.126,281.627 172.386,282.395 172.495,282.8 172.678,283.81 172.717,284.209 172.71,284.392 174.684,282.292 175.407,281.866 175.132,281.68 174.499,281.187 170.384,277.543 169.397,276.432 166.487,272.246 165.526,270.072 164.422,265.247 164.508,262.127 165.649,258.154 166.842,255.894 169.851,252.259 170.728,251.39 174.983,247.939 175.332,247.676 177.394,246.229 175.965,247.128 175.633,247.323 172.565,248.998 172.394,249.088 169.498,250.556 166.058,251.201 162.811,249.895 160.775,247.048 160.56,243.681 160.8,242.549 161.009,241.468 161.192,240.39 161.348,239.313 161.474,238.239 161.567,237.166 161.624,236.094 161.642,235.115 161.545,233.132 161.245,231.242 160.7,229.339 159.856,227.386 158.635,225.344 157.707,224.162 " fill="none" stroke-width="0.5" stroke="rgb(0,0,0)" />
	<polygon points="427.453,278.512 426.987,279.383 425.064,281.305 425.669,281.058 426.706,280.735 427.946,280.465 429.798,280.344 429.986,280.36 430.393,280.431 428.687,276.831 428.059,275.728 " fill="none" stroke-width="0.5" stroke="rgb(0,0,0)" />
	<polygon points="339.859,273.58 338.969,274.538 338.66,275.759 338.673,275.774 338.93,275.953 339.531,276.214 340.413,276.448 340.881,276.514 340.829,275.967 340.817,275.828 340.777,275.283 340.764,275.02 340.748,274.531 340.772,273.759 340.797,273.496 340.888,273.004 " fill="none" stroke-width="0.5" stroke="rgb(0,0,0)" />
	<polygon points="129.133,235.99 128.765,238.211 128.524,240.354 128.394,242.348 128.364,243.75 129.738,253.596 133.391,263.29 138.791,273.089 139.506,274.172 139.576,274.021 139.534,273.784 139.132,272.881 138.156,271.255 136.809,269.187 136.72,269.046 135.311,266.75 135.054,266.29 133.824,263.846 133.478,263.014 132.609,260.407 132.331,259.164 132.001,256.376 132.579,252.924 133.614,251.831 133.586,251.57 133.212,250.023 132.561,247.913 131.747,245.469 131.732,245.424 130.896,242.849 130.83,242.633 130.101,240.075 129.995,239.645 129.48,237.187 129.369,236.439 129.277,235.358 " fill="none" stroke-width="0.5" stroke="rgb(0,0,0)" />
	<polygon points="420.924,265.832 420.28,267.307 420.185,267.514 419.998,267.904 420.082,267.922 420.362,267.991 421.987,268.429 422.852,268.732 424.001,269.232 424.072,269.288 422.758,267.395 421.075,265.444 " fill="none" stroke-width="0.5" stroke="rgb(0,0,0)" />
	<polygon points="362.036,260.25 362.148,260.246 362.674,260.235 362.622,259.323 362.618,259.223 362.611,259.067 " fill="none" stroke-width="0.5" stroke="rgb(0,0,0)" />
	<polygon points="403.581,254.977 404.281,255.705 405.243,256.883 405.47,257.178 406.332,258.372 406.843,257.978 408.109,256.959 408.23,256.864 408.706,256.499 407.034,255.858 403.435,254.847 " fill="none" stroke-width="0.5" stroke="rgb(0,0,0)" />
	<polygon points="447.133,253.398 447.135,253.404 448.488,256.769 448.521,256.851 448.781,257.526 450.153,255.095 450.209,254.997 450.691,254.178 447.32,252.307 446.952,252.087 446.48,251.78 " fill="none" stroke-width="0.5" stroke="rgb(0,0,0)" />
	<polygon points="382.677,243.575 382.201,244.737 381.582,245.899 380.874,246.953 380.05,247.946 379.148,248.832 378.143,249.637 377.098,250.314 376.177,250.788 376.645,251.277 377.764,252.647 378.022,252.987 378.644,253.865 379.122,253.363 379.362,253.124 380.549,252.005 381.242,251.439 382.369,250.647 384.227,249.756 385.266,249.456 387.535,249.233 387.836,249.259 388.694,249.43 385.703,247.322 384.043,245.589 382.701,243.498 " fill="none" stroke-width="0.5" stroke="rgb(0,0,0)" />
	<polygon points="392.645,251.801 392.814,252.011 393.603,253.299 393.72,253.226 395.07,252.598 395.302,252.522 395.349,252.512 391.982,251.189 " fill="none" stroke-width="0.5" stroke="rgb(0,0,0)" />
	<polygon points="359.115,247.039 358.123,247.708 356.526,248.576 358.184,248.714 361.452,249.969 363.22,252.362 363.578,251.493 363.732,251.204 364.27,250.502 363.834,250.269 362.838,249.606 361.848,248.802 360.991,247.954 360.163,246.961 359.821,246.457 " fill="none" stroke-width="0.5" stroke="rgb(0,0,0)" />
	<polygon points="313.306,224.5 312.186,224.978 310.328,225.566 309.087,225.824 307.961,225.941 308.597,227.907 309.816,229.279 312.178,230.683 315.703,232.215 315.933,232.32 319.733,234.157 320.856,234.855 324.12,237.401 325.639,239.118 327.924,242.933 328.37,244.172 329.298,243.592 330.363,243.06 331.531,242.61 332.492,242.326 333.084,242.202 332.909,241.942 331.795,239.894 331.318,238.767 330.614,236.507 330.362,235.278 330.267,234.341 330.147,234.378 328.921,234.628 327.515,234.771 326.251,234.77 324.856,234.628 323.623,234.375 322.32,233.967 321.194,233.488 320.012,232.843 319.022,232.173 317.99,231.319 317.153,230.481 316.299,229.447 315.63,228.457 314.985,227.271 314.508,226.145 314.099,224.835 313.957,224.142 " fill="none" stroke-width="0.5" stroke="rgb(0,0,0)" />
	<polygon points="190.344,231.061 188.997,234.455 188.338,235.69 186.302,238.65 185.589,239.511 183.037,242.083 182.412,242.634 181.958,242.984 184.74,240.962 188.233,237.825 190.136,235.138 190.791,232.361 190.73,231.818 190.588,230.992 190.482,230.522 " fill="none" stroke-width="0.5" stroke="rgb(0,0,0)" />
	<polygon points="464.56,216.893 464.523,217.327 464.186,220.108 464.151,220.356 463.675,223.297 463.655,223.416 463.109,226.417 463.106,226.432 462.569,229.346 462.12,232.004 461.828,234.241 461.738,235.831 461.811,236.776 461.867,237.026 462.805,235.682 464.194,233.141 465.33,230.343 466.071,227.485 466.324,224.768 465.77,219.796 464.578,216.536 " fill="none" stroke-width="0.5" stroke="rgb(0,0,0)" />
	<polygon points="104.261,236.332 104.536,235.993 104.302,235.902 " fill="none" stroke-width="0.5" stroke="rgb(0,0,0)" />
	<polygon points="379.489,228.003 378.325,228.963 379.13,229.603 379.669,230.123 379.676,230.034 379.75,229.415 380.097,227.395 " fill="none" stroke-width="0.5" stroke="rgb(0,0,0)" />
	<polygon points="47.3047,227.154 45.2961,227.892 46.0214,228.472 46.3043,228.765 46.8452,229.481 47.5713,227.041 " fill="none" stroke-width="0.5" stroke="rgb(0,0,0)" />
	<polygon points="132.21,227.402 131.231,229.307 132.288,228.207 132.477,228.155 132.499,227.874 132.526,227.612 132.817,225.224 " fill="none" stroke-width="0.5" stroke="rgb(0,0,0)" />
	<polygon points="133.5,218.314 130.013,219.417 132.14,221.557 132.865,224.884 132.877,224.804 133.337,222.226 133.429,221.797 134.087,219.184 134.245,218.655 134.427,218.134 " fill="none" stroke-width="0.5" stroke="rgb(0,0,0)" />
	<polygon points="84.7974,213.705 84.8192,213.718 85.3906,214.166 86.4231,215.191 86.8859,215.773 87.5457,216.791 87.902,217.479 88.2905,218.405 88.5424,219.173 88.7524,220.001 88.902,220.823 88.9925,221.579 89.0419,222.427 89.008,223.534 88.9188,224.278 89.4445,223.848 90.6303,223.085 91.3671,222.72 93.1026,222.159 93.8316,222.037 95.7375,222.011 96.3813,222.102 98.0589,222.584 98.6706,222.858 100.065,223.715 100.628,224.173 101.044,224.6 101.347,220.523 101.485,219.601 102.326,215.9 102.592,215.031 103.186,213.494 102.26,213.829 100.815,214.165 97.8176,214.495 96.4403,214.494 93.2511,214.138 91.8493,213.815 88.985,212.795 87.7062,212.168 86.614,211.468 " fill="none" stroke-width="0.5" stroke="rgb(0,0,0)" />
	<polygon points="446.372,208.801 446.258,208.847 442.669,210.258 442.327,210.381 438.017,211.791 437.533,211.929 432.412,213.159 431.846,213.268 425.824,214.138 425.224,214.195 422.256,214.335 425.775,216.046 427.033,216.857 430.726,219.921 431.699,220.932 433.999,223.938 435.204,221.134 435.803,220.051 438.326,216.397 438.92,215.663 441.904,212.494 442.458,211.974 445.589,209.371 446.137,208.963 446.4,208.789 " fill="none" stroke-width="0.5" stroke="rgb(0,0,0)" />
	<polygon points="64.0699,216.068 63.398,216.625 63.4179,216.634 65.0046,217.68 65.5215,218.148 66.5789,219.392 66.9786,220.012 67.5495,221.128 67.8424,221.879 68.1043,222.73 68.3416,222.146 68.7439,221.331 71.4085,216.797 71.7567,216.435 71.6671,216.428 70.6022,216.246 68.5305,215.703 67.4564,215.314 65.5859,214.436 65.4486,214.354 " fill="none" stroke-width="0.5" stroke="rgb(0,0,0)" />
	<polygon points="187.774,213.495 188.623,214.766 189.832,217.167 190.317,218.478 190.501,219.222 192.686,217.726 195.497,217.634 195.011,215.88 194.43,214.772 193.673,213.899 192.586,213.106 190.992,212.371 188.794,211.763 185.974,211.361 185.932,211.359 " fill="none" stroke-width="0.5" stroke="rgb(0,0,0)" />
	<polygon points="337.314,213.457 337.5,213.681 338.172,214.672 338.819,215.859 339.096,216.51 339.749,216.155 339.18,215.467 338.51,214.475 337.863,213.287 337.82,213.185 " fill="none" stroke-width="0.5" stroke="rgb(0,0,0)" />
	<polygon points="402.189,212.679 402.612,212.363 401.664,211.955 " fill="none" stroke-width="0.5" stroke="rgb(0,0,0)" />
	<polygon points="381.023,200.068 380.544,201.194 379.862,202.442 379.193,203.429 378.292,204.518 377.556,205.253 378.271,205.735 379.486,206.737 380.331,207.581 381.334,208.795 381.521,209.072 382.167,206.629 384.742,204.258 386.987,203.857 382.867,200.497 381.83,199.421 381.404,198.856 " fill="none" stroke-width="0.5" stroke="rgb(0,0,0)" />
	<polygon points="57.3895,203.425 55.6092,204.87 55.0905,205.249 53.4629,206.314 53.9739,206.211 56.2454,205.718 58.0215,205.314 57.6703,204.203 57.4918,203.333 " fill="none" stroke-width="0.5" stroke="rgb(0,0,0)" />
	<polygon points="456.7,185.242 457.681,185.82 456.428,184.853 " fill="none" stroke-width="0.5" stroke="rgb(0,0,0)" />
	<polygon points="180.644,185.782 180.874,185.738 180.576,185.593 " fill="none" stroke-width="0.5" stroke="rgb(0,0,0)" />
	<polygon points="366.34,168.709 365.356,169.519 364.361,170.189 363.357,170.733 363.847,171.456 364.886,173.354 365.366,174.48 366.024,176.573 366.279,177.81 366.509,180.049 366.509,181.327 366.447,181.925 367.647,181.801 368.925,181.8 370.398,181.951 371.096,182.094 370.867,181.626 370.517,180.745 367.75,171.897 367.565,171.139 367.007,168.043 " fill="none" stroke-width="0.5" stroke="rgb(0,0,0)" />
	<polygon points="146.206,174.496 145.378,174.715 142.053,175.355 142.346,175.559 143.093,176.17 146.487,179.416 146.986,179.952 147.749,180.876 147.984,179.382 148.206,178.448 149.164,175.452 149.878,173.949 150.463,173.05 " fill="none" stroke-width="0.5" stroke="rgb(0,0,0)" />
	<polygon points="108.797,161.128 107.942,162.164 107.104,163.002 106.069,163.858 105.079,164.529 103.893,165.176 102.766,165.654 101.458,166.063 100.225,166.316 98.8238,166.459 97.5594,166.459 96.1524,166.316 95.6603,166.215 95.8275,166.277 96.5198,166.582 99.8953,168.321 100.545,168.707 103.806,170.922 104.447,171.422 107.446,174.088 108.085,174.747 110.674,177.84 111.284,178.71 112.267,180.399 112.537,179.534 113.012,178.411 114.054,176.493 114.931,175.262 116.318,173.744 117.603,172.671 118.75,171.949 117.847,171.433 116.735,170.621 113.841,167.977 112.972,166.996 110.75,163.885 110.145,162.838 109.138,160.622 " fill="none" stroke-width="0.5" stroke="rgb(0,0,0)" />
	<polygon points="309.399,170.232 308.579,171.508 308.095,172.091 308.788,172.02 310.053,172.02 311.46,172.162 312.688,172.413 313.594,172.696 313.957,171.526 314.428,170.408 312.52,170.019 312.091,169.916 310.243,169.402 309.897,169.295 309.858,169.281 " fill="none" stroke-width="0.5" stroke="rgb(0,0,0)" />
	<polygon points="338.072,167.229 336.138,168.031 336.335,168.27 336.576,168.626 337.222,167.98 338.24,167.139 " fill="none" stroke-width="0.5" stroke="rgb(0,0,0)" />
	<polygon points="160.515,167.358 162.106,167.377 163.834,167.715 164.877,168.065 163.65,164.835 " fill="none" stroke-width="0.5" stroke="rgb(0,0,0)" />
	<polygon points="90.1731,165.023 92.2247,165.038 91.2951,164.532 90.5601,164.036 " fill="none" stroke-width="0.5" stroke="rgb(0,0,0)" />
	<polygon points="344.273,163.081 343.237,163.942 341.819,164.882 342.89,164.426 344.983,163.77 345.579,163.647 345.572,163.631 345.185,162.386 345.143,162.182 " fill="none" stroke-width="0.5" stroke="rgb(0,0,0)" />
	<polygon points="422.823,142.779 421.668,144.161 418.926,146.613 417.85,147.387 414.235,149.443 413.343,149.862 410.871,150.791 417.102,151.351 418.313,151.583 424.732,153.48 425.886,153.95 431.572,156.961 432.49,157.556 436.091,160.364 434.692,157.714 434.211,156.518 432.365,150.081 432.381,146.581 432.501,146.395 431.536,146.141 430.609,145.818 428.93,145.08 427.822,144.451 426.462,143.483 425.294,142.404 424.284,141.199 424.04,140.803 " fill="none" stroke-width="0.5" stroke="rgb(0,0,0)" />
	<polygon points="354.372,135.167 354.539,136.51 354.579,136.966 354.635,138.086 354.615,138.993 353.989,145.593 353.724,146.892 353.706,146.95 354.475,146.712 355.7,146.463 357.041,146.328 358.293,146.328 359.633,146.463 360.857,146.712 362.105,147.099 363.234,147.574 364.363,148.187 365.36,148.859 366.343,149.67 366.987,150.313 367.672,149.477 367.73,149.423 369.241,148.395 365.364,146.123 364.408,145.434 359.072,140.766 358.316,139.978 354.354,135.049 " fill="none" stroke-width="0.5" stroke="rgb(0,0,0)" />
	<polygon points="130.445,134.452 129.798,134.804 129.248,135.152 128.891,135.415 128.533,135.733 125.368,137.228 124.924,137.171 125.467,138.322 125.931,139.711 126.409,142.005 126.458,142.264 126.854,144.672 127.246,146.309 127.415,146.155 127.911,145.548 128.454,144.653 129.033,143.329 129.338,142.402 129.656,141.298 129.928,140.202 130.152,139.125 130.326,138.079 130.45,137.076 130.523,136.129 130.546,135.261 130.52,134.418 " fill="none" stroke-width="0.5" stroke="rgb(0,0,0)" />
	<polygon points="102.158,139.559 101.946,140.592 102.765,140.848 103.892,141.326 105.078,141.972 106.067,142.642 107.102,143.497 107.381,143.775 107.4,143.664 107.509,143.16 107.966,141.394 108.189,140.704 108.269,140.496 107.793,140.621 105.047,139.903 102.41,138.515 102.278,138.378 " fill="none" stroke-width="0.5" stroke="rgb(0,0,0)" />
	<polygon points="327.01,140.502 327.015,141.824 326.936,142.598 326.927,142.645 328.821,142.176 326.987,140.294 " fill="none" stroke-width="0.5" stroke="rgb(0,0,0)" />
	<polygon points="314.933,123.677 313.47,124.072 312.185,124.671 311.075,125.435 310.157,126.316 309.455,127.246 308.991,128.13 308.572,129.452 307.03,131.753 307.465,132.041 308.542,132.617 309.555,133.027 310.554,133.306 311.601,133.473 312.81,133.535 313.147,133.524 313.654,133.485 314.25,133.419 314.911,133.334 315.597,133.242 315.648,133.235 316.303,133.152 316.468,133.133 317.057,133.075 317.402,133.05 317.909,133.028 318.539,133.032 318.766,133.045 318.402,132.735 318.101,132.436 317.465,131.696 317.224,131.365 316.721,130.556 316.537,130.201 316.176,129.361 316.047,128.987 315.822,128.152 315.746,127.765 315.641,126.955 315.616,126.562 315.638,125.521 315.715,124.778 315.932,123.673 315.957,123.588 " fill="none" stroke-width="0.5" stroke="rgb(0,0,0)" />
	<polygon points="118.112,131.923 117.606,132.845 118.693,132.945 118.26,131.588 " fill="none" stroke-width="0.5" stroke="rgb(0,0,0)" />
	<polygon points="94.0551,112.035 93.9506,112.134 91.774,114.155 91.3622,114.506 89.0989,116.269 88.1993,116.853 85.8612,118.1 84.128,118.717 81.7266,119.19 79.8543,119.272 79.7175,119.258 79.7671,119.696 79.9558,123.011 79.9644,123.505 79.9326,124.932 79.9208,125.202 79.8297,126.591 79.8076,126.847 79.6634,128.194 79.6513,128.288 80.1695,127.769 81.2042,126.913 82.1946,126.241 83.3808,125.594 84.5087,125.115 85.8176,124.705 87.0511,124.452 88.4542,124.309 89.7206,124.309 91.1256,124.452 92.3575,124.704 93.6684,125.114 94.7953,125.592 95.9832,126.239 96.5227,126.605 96.2784,125.52 96.1807,124.975 95.387,119.041 95.3704,118.905 94.7208,113.086 94.4995,111.603 " fill="none" stroke-width="0.5" stroke="rgb(0,0,0)" />
	<polygon points="184.382,107.646 184.436,108.807 184.393,109.698 184.322,110.389 184.19,111.215 183.99,112.075 183.76,112.819 183.331,113.86 182.995,114.506 182.215,115.665 181.764,116.195 180.573,117.278 179.999,117.677 178.53,118.434 177.825,118.685 176.368,119.016 175.524,119.104 173.26,118.924 172.236,118.649 173.334,120.461 173.822,121.454 175.509,125.836 175.788,126.775 175.955,127.558 176.781,126.824 177.366,126.363 180.366,124.276 181.13,123.822 184.251,122.255 185.227,121.864 188.449,120.879 189.633,120.639 192.937,120.297 194.273,120.303 195.831,120.477 193.66,118.335 193.279,117.924 189.035,112.912 188.831,112.657 184.321,106.73 184.238,106.616 " fill="none" stroke-width="0.5" stroke="rgb(0,0,0)" />
	<polygon points="424.492,124.43 424.663,125.005 424.974,126.277 425.698,125.494 426.365,124.906 426.216,124.804 425.23,123.965 424.323,123.013 423.73,122.249 " fill="none" stroke-width="0.5" stroke="rgb(0,0,0)" />
	<polygon points="123.925,112.078 122.34,118.418 122.312,118.526 121.099,123.036 123.233,119.525 123.814,118.721 126.597,115.45 127.316,114.733 128.838,113.442 128.206,112.965 127.39,112.225 125.888,110.602 125.612,110.284 124.725,109.186 " fill="none" stroke-width="0.5" stroke="rgb(0,0,0)" />
	<polygon points="378.966,99.7499 377.938,100.375 370.99,103.727 369.916,104.128 367.999,104.65 368.668,104.514 372.364,103.385 376.496,101.619 376.901,101.413 377.256,101.247 377.842,100.994 378.207,100.85 378.789,100.641 379.162,100.52 379.739,100.353 380.118,100.256 380.687,100.13 381.07,100.057 381.629,99.9686 382.017,99.9197 382.563,99.8681 382.954,99.8435 383.486,99.8267 384.627,99.8952 386.592,100.195 388.694,100.916 390.112,101.707 391.634,102.9 392.679,104.018 393.328,104.844 394.174,106.126 394.22,106.197 394.547,106.708 395.587,106.462 397.001,105.999 398.635,105.384 400.349,104.72 400.509,104.661 402.159,104.073 402.607,103.932 404.126,103.516 405.049,103.337 406.395,103.179 409.203,103.493 411.245,104.214 413.389,105.502 415.533,107.468 416.355,108.388 418.485,111.305 418.89,111.936 420.891,115.508 420.981,115.688 420.756,114.612 420.753,114.598 420.479,113.277 420.23,112.318 420.039,111.809 420.011,111.761 419.591,111.336 417.926,108.257 418.178,104.766 419.452,103.054 416.328,103.023 416.206,103.02 412.873,102.922 412.754,102.917 409.385,102.754 409.268,102.747 405.87,102.518 405.754,102.509 402.339,102.215 402.223,102.204 398.797,101.844 398.681,101.831 395.254,101.406 395.136,101.391 391.718,100.901 391.633,100.888 391.158,100.813 390.635,100.708 390.249,100.613 389.46,100.362 389.156,100.243 388.066,99.686 387.835,99.5381 386.598,98.4961 386.433,98.3154 385.447,96.8773 385.339,96.6597 384.867,95.3356 " fill="none" stroke-width="0.5" stroke="rgb(0,0,0)" />
	<polygon points="348.8,107.791 349.028,108.488 349.145,108.954 349.631,108.464 349.808,108.308 350.222,107.97 350.41,107.83 350.629,107.675 350.822,107.543 351.878,107.016 348.315,106.748 " fill="none" stroke-width="0.5" stroke="rgb(0,0,0)" />
	<polygon points="145.251,101.857 144.674,105.081 144.564,105.577 144.395,106.216 145.301,106.081 149.431,105.779 150.59,105.802 153.2,106.097 150.003,103.365 146.129,100.25 145.61,99.9073 " fill="none" stroke-width="0.5" stroke="rgb(0,0,0)" />
	<polygon points="70.265,92.7346 65.237,95.3809 62.9929,96.619 64.6897,97.1155 68.0721,98.6753 69.5383,99.6193 70.1663,100.161 70.2706,99.252 70.282,99.1589 70.57,96.9436 70.5712,96.9346 70.8541,94.7827 71.09,92.7969 71.13,92.3494 " fill="none" stroke-width="0.5" stroke="rgb(0,0,0)" />
	<polygon points="327.094,99.1487 327.089,99.155 327.766,99.2937 327.214,98.9754 " fill="none" stroke-width="0.5" stroke="rgb(0,0,0)" />
	<polygon points="396.53,79.0963 396.004,80.3137 394.054,83.7629 395.075,82.9927 396.074,81.8549 396.695,80.5566 397.014,78.3153 396.989,77.6235 " fill="none" stroke-width="0.5" stroke="rgb(0,0,0)" />
	<polygon points="173.542,77.6473 173.662,77.5195 174.088,77.1519 173.214,76.8741 " fill="none" stroke-width="0.5" stroke="rgb(0,0,0)" />
	<polygon points="126.53,60.575 125.783,63.6763 125.051,67.1511 124.965,67.5055 124.119,70.6125 123.631,71.8578 123.383,72.3335 123.648,72.4279 126.069,73.9958 126.946,74.913 127.046,73.8146 127.122,73.2546 127.294,72.3163 127.534,71.4032 127.795,70.6452 128.483,69.2478 128.852,68.6864 130.477,67.0105 130.972,66.6618 131.43,66.4687 130.799,65.6682 130.631,65.4455 128.9,63.0352 127.256,60.8584 126.666,60.213 " fill="none" stroke-width="0.5" stroke="rgb(0,0,0)" />
	<polygon points="106.013,59.0766 104.548,60.0849 102.794,61.514 100.94,63.1011 100.784,63.23 99.003,64.6579 98.4036,65.083 96.7857,66.093 95.8429,66.5035 96.151,67.2854 96.3403,67.9446 96.5225,68.8006 96.6302,69.5672 96.6861,70.1918 96.7203,71.0618 96.7121,71.7083 96.6188,73.1584 98.3959,71.5584 100.531,70.298 102.589,69.5846 106.084,69.41 107.035,69.8548 106.954,69.4363 106.689,66.2745 106.673,66.0129 106.53,62.5575 106.249,59.6274 106.09,59.04 " fill="none" stroke-width="0.5" stroke="rgb(0,0,0)" />
	<polygon points="400.232,59.2075 400.229,60.3725 400.114,61.5547 401.063,61.1897 401.317,61.1179 402.44,60.9088 402.702,60.8844 405.564,61.2894 406.673,61.7247 408.39,62.7399 409.768,63.8877 410.125,64.2093 411.756,65.7939 413.522,67.4517 415.33,68.9044 417.155,70.0122 418.972,70.6958 421.156,70.9714 421.427,70.9587 422.069,70.8613 422.638,70.6945 423.019,70.506 423.213,70.3491 423.358,70.1475 423.563,69.5918 423.633,68.9263 423.158,67.3508 421.437,65.5735 417.787,63.4141 412.957,61.4129 407.788,59.6992 403.1,58.2589 402.807,58.1607 400.047,57.1605 " fill="none" stroke-width="0.5" stroke="rgb(0,0,0)" />
	<polygon points="145.726,70.4887 145.858,70.5963 145.798,70.4378 " fill="none" stroke-width="0.5" stroke="rgb(0,0,0)" />
	<polygon points="162.864,45.513 162.477,47.0808 162.344,47.4232 161.497,48.9348 161.29,49.2075 161.059,49.441 164.25,50.5256 164.421,50.5866 167.953,51.9032 167.958,51.9049 170.032,52.68 166.261,48.8777 162.865,45.503 " fill="none" stroke-width="0.5" stroke="rgb(0,0,0)" />
	<polygon points="144.768,51.8068 144.94,52.2058 145.703,51.1832 146.23,50.6278 146.329,50.5474 145.602,50.3538 144.197,50.0278 144.085,50.009 " fill="none" stroke-width="0.5" stroke="rgb(0,0,0)" />
	<polygon points="88.7047,48.2873 88.5452,48.3142 88.5725,48.3566 88.994,49.7826 90.1259,48.3619 90.4063,48.0034 " fill="none" stroke-width="0.5" stroke="rgb(0,0,0)" />
	<polygon points="444.998,42.1572 444.528,43.8877 444.223,45.5925 444.113,47.3529 444.149,47.9084 444.211,48.1951 444.232,48.2012 444.507,48.2247 444.769,47.4645 445.023,46.1721 445.184,44.5184 445.236,42.6156 445.214,41.5072 " fill="none" stroke-width="0.5" stroke="rgb(0,0,0)" />
	<polygon points="392.543,32.9147 396.315,39.7973 396.827,41.0272 397.684,43.9226 398.223,43.4856 400.217,42.4843 400.981,42.1624 403.953,41.1358 404.362,41.0101 408.023,40.0199 408.314,39.9486 411.201,39.3147 407.043,37.1179 402.664,35.4581 398.641,34.3136 395.261,33.4676 394.794,33.3313 392.499,32.563 392.12,32.3119 " fill="none" stroke-width="0.5" stroke="rgb(0,0,0)" />
	<polygon points="69.7669,39.9718 69.7575,39.9777 67.7357,41.2379 70.8271,41.5602 71.4808,41.6229 72.0782,38.5255 " fill="none" stroke-width="0.5" stroke="rgb(0,0,0)" />
	<polygon points="81.6657,28.2227 80.8616,30.3853 79.6629,32.2723 80.7704,31.8181 80.9715,31.7396 84.1221,30.5727 86.1456,29.7519 85.3175,29.3906 84.3879,28.8894 82.0319,26.5131 " fill="none" stroke-width="0.5" stroke="rgb(0,0,0)" />
</svg>
