<?xml version="1.0" standalone="no" ?>
<!DOCTYPE svg PUBLIC "-//W3C//DTD SVG 1.1//EN" "http://www.w3.org/Graphics/SVG/1.1/DTD/svg11.dtd">
<svg width="500px" height="500px" xmlns="http://www.w3.org/2000/svg" version="1.1" >
	<polygon points="480.823,79.2488 480.423,80.1967 479.169,82.27 473.854,88.7419 472.274,90.2271 467.127,93.948 468.762,94.2837 470.245,94.7333 472.34,95.5854 473.874,96.4016 475.597,97.5606 476.988,98.7318 478.357,100.163 479.435,101.557 480.468,103.226 480.823,103.944 480.823,190.534 478.944,192.709 477.365,193.783 474.426,194.867 474.843,195.268 478.845,199.71 479.78,200.963 480.823,202.672 480.823,245.966 479.339,248.493 478.92,249.137 476.297,252.795 476.349,252.8 478.308,253.244 479.567,253.693 480.823,254.336 480.823,281.286 480.089,294.374 479.997,294.516 479.463,295.255 476.886,298.443 476.203,299.191 473.341,301.972 473.944,302.921 475.86,306.588 476.357,307.741 477.611,311.369 477.405,312.666 473.11,329.62 467.07,347.047 459.27,364.67 455.222,372.087 454.973,372.235 450.897,372.429 449.834,371.929 450.468,378.735 450.398,380.858 450.382,380.954 449.695,382.213 438.331,399.399 425.161,415.952 410.17,431.593 401.247,439.258 399.201,438.616 397.709,437.911 396.825,437.377 396.728,439.344 395.944,443.814 393.345,446.047 374.668,459.037 354.126,470.285 331.702,479.516 322.914,482.023 322.262,481.837 320.691,481.215 318.027,479.838 316.581,478.891 314.382,477.105 314.274,476.998 314.421,477.708 314.477,478.147 314.542,478.958 314.555,479.373 314.266,481.84 313.868,483.313 313.109,484.819 307.382,486.452 281.151,490.817 266.162,491.624 264.464,490.237 263.638,489.439 262.945,489.792 262.471,490.016 258.306,491.821 257.813,492.017 257.627,492.084 252.993,492.333 225.548,490.902 199.887,486.773 179.784,481.233 178.804,480.537 174.874,477.776 171.946,476.129 170.207,475.628 167.296,475.34 163.234,475.115 153.907,471.407 133.585,460.665 130.124,458.341 129.333,457.574 127.175,454.11 127.033,452.069 125.921,452.059 119.775,451.392 115.039,448.212 98.2672,434.295 83.2685,419.161 70.1153,403.148 69.8717,401.199 69.8333,399.479 69.9624,397.863 68.6763,397.885 65.1762,395.913 58.5824,386.23 48.8916,368.927 40.9666,351.394 34.8057,333.879 33.9589,330.557 34.1018,329.864 37.0702,320.303 37.5513,319.092 39.9261,314.243 37.4584,314.193 35.4893,313.573 32.0509,311.488 30.2324,309.67 29.0668,308.121 27.7694,299.888 26.8905,283.906 26.8905,236.334 26.946,236.18 28.6077,232.362 29.5883,230.674 30.3279,229.685 30.1615,229.618 28.0964,228.428 26.8905,227.484 26.8905,163.676 27.002,163.206 27.2704,162.302 28.8425,157.919 29.384,156.715 31.8106,152.282 32.7182,150.946 34.719,148.533 33.9315,148.303 32.4075,147.692 30.1213,146.505 28.7241,145.594 26.8905,144.123 26.8905,110.866 27.2322,110.525 28.2191,109.681 29.7439,108.567 29.6318,108.512 29.147,108.212 27.6541,107.038 27.259,106.648 26.8905,106.183 26.8905,90.2962 28.5509,87.7865 26.8905,87.2314 26.8905,41.1923 27.0811,41.0307 30.9718,38.1815 31.3826,37.8989 35.2839,35.3814 34.4873,35.1796 34.0233,35.0478 30.2728,33.8662 28.9988,33.3475 26.8905,32.2814 26.8905,19.5757 38.3822,19.4875 49.8739,19.3993 61.3656,19.3111 72.8572,19.223 84.3489,19.1348 95.8406,19.0466 107.332,18.9584 116.568,18.8876 116.828,19.1771 117.029,19.4096 118.193,20.8039 118.563,21.1494 118.805,21.1843 119.057,21.1483 119.566,20.7007 120.817,19.3212 121.034,19.0899 121.267,18.8515 130.316,18.7821 141.807,18.6939 153.299,18.6057 157.125,18.5764 157.842,20.8657 159.049,19.9956 160.537,19.1374 161.871,18.54 164.791,18.5175 176.282,18.4294 187.774,18.3412 210.757,18.1648 210.732,31.0636 210.706,43.9624 210.681,56.8612 210.679,57.7994 209.364,58.2997 209.351,58.302 210.675,59.8197 210.656,69.76 210.63,82.6588 210.624,85.6786 210.139,85.938 209.269,86.3018 207.888,86.7443 206.885,86.973 205.6,87.1636 204.471,87.243 203.568,87.2289 204.486,87.9417 204.71,88.1219 209.005,91.6972 209.291,91.9461 210.609,93.1477 210.579,108.456 210.554,121.355 210.547,124.946 210.543,124.949 210.547,124.953 210.503,147.153 210.478,160.052 210.452,172.95 210.444,176.963 209.508,178.682 208.703,179.896 206.922,182.138 205.857,183.253 203.715,185.119 202.654,185.875 203.297,186.232 205.695,187.876 207.001,188.98 208.973,191.026 210.09,192.467 210.413,192.992 210.401,198.748 210.376,211.647 210.363,218.122 209.828,219.085 209.624,219.432 208.798,220.764 207.252,222.27 209.521,224.369 210.132,224.997 210.356,225.252 210.438,235.84 210.602,246.657 210.899,256.963 211.227,263.571 211.116,263.715 210.928,263.952 208.743,266.596 207.236,268.6 206.792,269.431 206.915,269.632 208.12,270.85 210.296,272.683 210.442,272.809 211.973,274.159 212.112,275.909 213.138,284.482 214.519,292.41 216.308,299.661 218.563,306.2 221.336,311.994 224.685,317.011 228.665,321.215 233.33,324.575 238.737,327.056 244.939,328.626 249.997,329.073 250.442,329.802 251.951,332.926 252.479,334.322 252.602,334.761 254.021,332.1 254.902,330.768 256.376,328.942 259.171,328.749 265.518,327.271 271.013,324.853 275.719,321.532 279.698,317.343 283.01,312.324 285.72,306.511 287.888,299.942 289.576,292.653 290.848,284.68 291.763,276.06 292.287,268.293 292.698,267.885 294.272,266.65 295.284,266.035 295.96,265.726 293.58,263.683 292.559,262.498 292.778,257.028 293,246.688 293.115,235.848 293.185,224.546 293.184,224.273 293.788,223.105 293.181,222.498 293.159,211.647 293.133,198.748 293.13,197.267 294.052,196.344 295.53,195.118 296.853,194.217 296.908,194.186 296.219,193.167 295.572,191.98 294.926,190.457 294.516,189.148 294.174,187.482 294.031,186.079 294.031,184.365 294.174,182.963 294.517,181.296 294.926,179.987 295.573,178.465 296.22,177.279 297.125,175.942 297.491,175.5 295.197,174.012 293.785,172.7 293.079,171.882 293.056,160.052 293.004,134.254 292.992,128.173 293.716,127.489 293.705,127.446 293.525,126.7 293.443,126.32 293.297,125.559 293.228,125.149 293.118,124.375 293.067,123.93 292.998,123.148 292.981,122.858 292.978,121.355 292.977,120.85 293.223,117.962 293.461,116.565 294.23,113.589 294.725,112.192 296.039,109.315 296.842,107.923 298.121,106.129 296.95,106.306 296.714,106.305 296.245,106.288 296.053,106.276 294.793,106.101 294.642,106.068 292.946,105.427 292.903,83.6588 293.102,83.2959 293.367,82.8102 292.901,82.6767 292.901,82.6588 292.875,69.76 292.817,41.1199 292.98,41.0314 293.43,40.7961 292.815,39.8951 292.797,31.0636 292.771,18.1648 304.525,18.0893 305.465,18.0832 305.872,18.2933 306.045,18.3845 307.821,19.3522 307.964,18.684 308.132,18.0661 316.278,18.0137 328.031,17.9382 339.784,17.8626 351.538,17.787 363.291,17.7115 375.044,17.6359 378.621,17.6129 379.321,17.934 380.797,18.8023 385.984,22.6097 387.249,20.1882 387.875,19.4602 390.401,17.5372 410.304,17.4092 422.057,17.3337 433.81,17.2581 442.477,17.2024 443.444,17.8897 445.462,19.7349 446.035,18.8579 447.409,17.1707 457.317,17.107 469.07,17.0314 480.823,16.9559 " fill="none" stroke-width="0.5" stroke="rgb(0,0,0)" />
	<polygon points="305.929,468.735 305.835,468.835 306.522,468.961 307.191,469.153 309.144,469.994 309.304,470.088 309.265,470.014 308.642,468.489 307.89,465.966 307.872,465.875 " fill="none" stroke-width="0.5" stroke="rgb(0,0,0)" />
	<polygon points="193.013,443.457 193.422,444.661 193.848,446.316 194.505,446.461 195.999,446.701 197.437,446.85 198.578,446.895 200.103,446.811 201.501,446.565 202.693,446.175 203.612,445.687 204.293,445.127 204.852,444.403 205.172,443.701 202.95,443.867 201.658,443.865 195.44,443.376 194.01,443.139 192.739,442.814 " fill="none" stroke-width="0.5" stroke="rgb(0,0,0)" />
	<polygon points="316.811,421.19 316.173,421.326 316.536,422.28 316.878,423.412 317.209,424.865 317.276,425.191 317.485,426.312 318.017,426.695 318.548,427.11 319.414,427.846 320.359,428.785 320.858,429.367 320.909,429.316 321.624,428.632 322.051,428.25 322.76,427.658 323.365,427.197 324.066,426.712 324.935,426.184 325.625,425.82 326.072,425.629 325.919,425.339 325.57,424.097 325.254,421.809 325.254,418.407 " fill="none" stroke-width="0.5" stroke="rgb(0,0,0)" />
	<polygon points="167.057,413.459 167.063,414.691 166.787,418.723 169.441,419.037 169.439,418.975 169.472,418.607 169.797,416.917 169.893,416.597 170.682,414.778 170.84,414.508 171.532,413.6 169.154,412.353 168.493,411.968 166.859,410.913 " fill="none" stroke-width="0.5" stroke="rgb(0,0,0)" />
	<polygon points="270.971,413.713 271.398,414.07 273.42,415.875 273.425,415.88 273.873,415.802 274.225,415.749 274.822,415.672 269.274,412.389 " fill="none" stroke-width="0.5" stroke="rgb(0,0,0)" />
	<polygon points="259.683,404.5 259.054,406.042 259.007,406.131 261.78,407.515 262.329,407.815 265.112,409.472 265.57,409.765 266.923,410.693 260.082,404.378 259.81,404.071 " fill="none" stroke-width="0.5" stroke="rgb(0,0,0)" />
	<polygon points="350.86,395.953 350.081,397.254 350.059,397.285 352.311,397.159 352.119,396.939 351.246,395.745 351.087,395.482 " fill="none" stroke-width="0.5" stroke="rgb(0,0,0)" />
	<polygon points="204.361,391.304 204.883,392.468 205.014,392.833 205.247,392.49 207.194,390.451 207.278,390.388 207.261,390.39 205.587,390.372 203.744,390.168 " fill="none" stroke-width="0.5" stroke="rgb(0,0,0)" />
	<polygon points="244.093,374.557 245.396,375.648 245.899,376.171 245.652,375.257 245.391,373.801 245.312,372.919 " fill="none" stroke-width="0.5" stroke="rgb(0,0,0)" />
	<polygon points="82.8572,368.335 81.8413,368.408 81.0798,368.416 81.4263,369.292 81.8909,372.36 82.8868,371.473 83.983,370.646 84.9802,370.014 84.9196,369.962 83.8103,368.82 83.3671,368.268 " fill="none" stroke-width="0.5" stroke="rgb(0,0,0)" />
	<polygon points="117.989,360.295 117.769,361.041 119.297,360.902 119.212,360.808 118.545,359.838 118.204,359.148 " fill="none" stroke-width="0.5" stroke="rgb(0,0,0)" />
	<polygon points="295.034,359.442 295.061,359.463 295.063,359.429 " fill="none" stroke-width="0.5" stroke="rgb(0,0,0)" />
	<polygon points="394.499,342.92 393.756,343.453 392.734,344.106 390.586,345.088 389.75,345.335 388.748,345.417 389.344,347.106 389.517,347.854 392.459,345.389 394.486,344.13 395.81,343.548 395.715,343.434 395.524,343.195 395.001,342.516 " fill="none" stroke-width="0.5" stroke="rgb(0,0,0)" />
	<polygon points="59.6926,341.671 61.255,344.184 61.3712,343.646 61.9293,341.953 62.5606,340.554 62.3555,340.51 61.2155,340.181 59.4308,339.525 " fill="none" stroke-width="0.5" stroke="rgb(0,0,0)" />
	<polygon points="159.807,336.822 157.626,338.906 156.218,339.993 155.129,340.664 156.215,341.322 157.225,342.041 159.12,343.61 159.156,342.516 159.194,341.939 159.373,340.175 159.467,339.512 159.773,337.834 159.967,337.01 160.128,336.448 " fill="none" stroke-width="0.5" stroke="rgb(0,0,0)" />
	<polygon points="414.702,334.308 414.88,335.398 414.926,335.716 415.085,336.985 415.138,337.582 415.198,338.711 415.206,339.404 415.197,339.737 415.178,340.013 417.53,340.213 416.51,338.228 415.583,334.212 " fill="none" stroke-width="0.5" stroke="rgb(0,0,0)" />
	<polygon points="165.835,324.958 165.085,327.772 164.717,328.791 164.753,328.754 165.629,328.096 167.529,327.217 166.05,324.979 165.887,324.663 " fill="none" stroke-width="0.5" stroke="rgb(0,0,0)" />
	<polygon points="76.1807,312.391 75.3045,315.75 75.0237,318.351 75.0485,319.232 75.1589,320.278 75.199,320.467 75.8577,319.596 77.2754,318.058 78.4933,316.969 80.1943,315.721 80.653,315.448 79.2828,314.558 77.8538,313.417 76.6466,312.238 76.3594,311.894 " fill="none" stroke-width="0.5" stroke="rgb(0,0,0)" />
	<polygon points="161.111,299.685 159.927,299.842 159.364,299.855 159.408,299.923 159.882,300.75 161.72,304.42 161.813,303.548 162.305,300.501 162.493,299.631 162.573,299.339 " fill="none" stroke-width="0.5" stroke="rgb(0,0,0)" />
	<polygon points="458.285,290.908 457.914,291.357 458.901,291.516 458.846,291.141 458.697,290.567 " fill="none" stroke-width="0.5" stroke="rgb(0,0,0)" />
	<polygon points="87.1171,288.645 87.492,288.842 87.5992,287.717 " fill="none" stroke-width="0.5" stroke="rgb(0,0,0)" />
	<polygon points="160.822,251.565 161.288,253.189 161.448,253.845 161.813,255.656 161.885,256.063 162.176,257.992 162.207,258.219 162.452,260.197 162.461,260.275 162.543,260.997 163.535,257.546 165.147,254.491 166.115,253.322 162.574,252.37 159.66,249.654 " fill="none" stroke-width="0.5" stroke="rgb(0,0,0)" />
	<polygon points="157.658,228.622 157.605,228.729 158.148,229.305 159.221,233.797 159.16,235.223 159.136,235.601 158.977,237.423 158.96,237.6 158.735,239.672 158.726,239.754 158.468,241.93 158.466,241.949 158.211,244.062 157.997,245.918 157.863,247.274 157.857,247.386 158.501,247.748 159.549,249.471 158.256,245.732 158.408,243.223 158.644,242.112 158.844,241.075 159.019,240.047 159.167,239.028 159.285,238.016 159.372,237.012 159.425,236.015 159.441,235.149 159.353,233.359 159.093,231.718 158.625,230.081 157.894,228.391 157.841,228.303 " fill="none" stroke-width="0.5" stroke="rgb(0,0,0)" />
	<polygon points="382.778,248.045 383.208,247.839 383.036,247.659 " fill="none" stroke-width="0.5" stroke="rgb(0,0,0)" />
	<polygon points="327.737,236.96 326.617,236.959 327.526,237.987 329.39,241.098 329.572,241.007 329.844,240.903 329.218,239.422 328.513,237.161 328.457,236.887 " fill="none" stroke-width="0.5" stroke="rgb(0,0,0)" />
	<polygon points="311.261,227.578 313.182,228.721 313.296,228.771 313.052,228.323 312.563,227.167 " fill="none" stroke-width="0.5" stroke="rgb(0,0,0)" />
	<polygon points="89.4994,215.78 89.8557,216.468 90.381,217.72 90.6329,218.488 90.9169,219.607 91.0664,220.429 91.0781,220.526 92.7384,219.989 93.4674,219.867 96.0442,219.833 96.6879,219.924 98.9561,220.576 99.131,220.654 99.1528,220.361 99.3398,219.113 99.9395,216.475 98.0582,216.682 96.1962,216.68 93.0069,216.324 91.1117,215.887 89.1068,215.174 " fill="none" stroke-width="0.5" stroke="rgb(0,0,0)" />
	<polygon points="432.926,215.298 432.161,215.445 429.279,215.862 432.131,218.228 433.446,219.595 433.508,219.677 433.993,218.801 436.516,215.147 437.23,214.264 " fill="none" stroke-width="0.5" stroke="rgb(0,0,0)" />
	<polygon points="68.1939,217.925 68.2118,217.894 68.1556,217.879 " fill="none" stroke-width="0.5" stroke="rgb(0,0,0)" />
	<polygon points="191.704,215.994 192.386,215.773 192.175,215.53 191.465,215.012 191.132,214.858 " fill="none" stroke-width="0.5" stroke="rgb(0,0,0)" />
	<polygon points="381.793,203.497 380.888,204.831 380.785,204.956 380.885,205.038 382.074,203.395 382.615,203.13 382.185,202.779 " fill="none" stroke-width="0.5" stroke="rgb(0,0,0)" />
	<polygon points="108.506,164.697 107.471,165.553 106.133,166.46 104.947,167.107 103.423,167.753 103.172,167.832 105.042,169.102 105.909,169.778 108.908,172.444 109.772,173.335 111.891,175.866 112.121,175.443 113.307,173.778 114.694,172.26 114.993,172.01 112.357,169.601 111.181,168.275 108.959,165.164 108.623,164.581 " fill="none" stroke-width="0.5" stroke="rgb(0,0,0)" />
	<polygon points="423.134,145.801 420.393,148.252 418.938,149.299 418.709,149.429 418.936,149.473 425.356,151.37 426.916,152.006 431.293,154.324 430.25,150.687 430.155,147.982 429.724,147.832 428.045,147.094 426.546,146.244 425.186,145.276 424.276,144.435 " fill="none" stroke-width="0.5" stroke="rgb(0,0,0)" />
	<polygon points="356.332,144.188 356.821,144.139 358.513,144.139 359.726,144.261 357.623,142.421 356.602,141.356 356.601,141.356 " fill="none" stroke-width="0.5" stroke="rgb(0,0,0)" />
	<polygon points="127.832,138.507 127.956,138.878 127.989,138.72 128.043,138.397 " fill="none" stroke-width="0.5" stroke="rgb(0,0,0)" />
	<polygon points="313.282,126.587 312.47,127.146 311.806,127.783 311.319,128.428 311.029,128.98 310.669,130.116 310.183,130.908 310.266,130.942 311.025,131.153 311.831,131.282 312.832,131.333 313.029,131.327 313.448,131.294 313.99,131.235 314.562,131.161 314.097,130.079 313.968,129.705 313.663,128.576 313.587,128.19 313.446,127.094 313.421,126.701 313.425,126.521 " fill="none" stroke-width="0.5" stroke="rgb(0,0,0)" />
	<polygon points="186.091,112.725 185.861,113.469 185.282,114.877 184.946,115.522 183.892,117.089 183.441,117.62 181.83,119.083 181.256,119.483 179.27,120.506 178.565,120.757 176.595,121.204 176.103,121.256 177.107,123.863 179.11,122.47 180.143,121.855 183.264,120.289 184.584,119.76 187.806,118.775 189.406,118.451 190.727,118.314 187.356,114.333 187.08,113.989 186.098,112.698 " fill="none" stroke-width="0.5" stroke="rgb(0,0,0)" />
	<polygon points="92.7141,116.241 90.4509,118.004 89.2346,118.794 86.8964,120.041 84.5531,120.876 82.1518,121.349 82.0649,121.352 82.1522,122.886 82.1638,123.554 82.1594,123.754 82.3265,123.663 83.8514,123.015 85.1603,122.606 86.828,122.263 88.2311,122.12 89.9433,122.12 91.3484,122.263 93.0139,122.604 93.6715,122.81 93.2064,119.332 93.184,119.149 92.8468,116.128 " fill="none" stroke-width="0.5" stroke="rgb(0,0,0)" />
	<polygon points="395.165,103.633 395.519,104.169 396.271,103.923 396.619,103.792 395.147,103.61 " fill="none" stroke-width="0.5" stroke="rgb(0,0,0)" />
	<polygon points="68.1959,96.3097 68.4208,96.4134 68.4521,96.1749 " fill="none" stroke-width="0.5" stroke="rgb(0,0,0)" />
	<polygon points="104.204,63.2028 102.371,64.7723 102.16,64.9465 100.379,66.3745 99.5686,66.9492 98.5125,67.6085 98.7011,68.4945 98.7503,68.845 99.8099,68.2194 101.868,67.5059 104.564,67.263 104.497,66.4578 104.475,66.1041 104.35,63.0842 " fill="none" stroke-width="0.5" stroke="rgb(0,0,0)" />
	<polygon points="413.275,64.203 414.965,65.7895 416.596,67.0987 418.122,68.0253 419.504,68.5455 421.23,68.7633 421.284,68.7552 421.206,68.4971 420.062,67.3164 416.801,65.3869 412.779,63.7205 " fill="none" stroke-width="0.5" stroke="rgb(0,0,0)" />
	<polygon points="127.291,67.1919 128.374,66.0742 127.719,65.1618 " fill="none" stroke-width="0.5" stroke="rgb(0,0,0)" />
	<polygon points="398.244,38.74 398.937,40.4028 399.004,40.6315 399.23,40.5182 400.263,40.0829 403.235,39.0564 403.788,38.8864 404.788,38.6158 401.972,37.5485 398.073,36.4393 396.81,36.1232 " fill="none" stroke-width="0.5" stroke="rgb(0,0,0)" />
</svg>
