<?xml version="1.0" standalone="no" ?>
<!DOCTYPE svg PUBLIC "-//W3C//DTD SVG 1.1//EN" "http://www.w3.org/Graphics/SVG/1.1/DTD/svg11.dtd">
<svg width="500px" height="500px" xmlns="http://www.w3.org/2000/svg" version="1.1" >
	<polygon points="467.773,280.92 466.979,295.073 464.609,310.037 460.596,325.874 454.917,342.261 447.555,358.894 438.505,375.476 427.762,391.723 415.323,407.356 401.187,422.106 385.346,435.714 367.789,447.925 348.491,458.493 327.415,467.168 304.512,473.7 279.724,477.825 252.981,479.265 226.929,477.906 202.665,474.002 180.163,467.801 159.382,459.54 140.29,449.448 122.863,437.746 107.089,424.657 92.9661,410.407 80.4972,395.227 69.6898,379.356 60.5519,363.04 53.0903,346.533 47.3083,330.094 43.2033,313.994 40.7634,298.51 39.9405,283.547 39.9405,32.5259 49.974,32.4489 61.4657,32.3607 72.9574,32.2726 84.4491,32.1844 95.9407,32.0962 95.9407,32.0962 107.432,32.008 118.924,31.9199 130.416,31.8317 141.907,31.7435 153.399,31.6553 164.891,31.5672 176.382,31.479 187.874,31.3908 197.681,31.3156 197.656,43.9367 197.606,69.7343 197.606,69.7343 197.58,82.6331 197.529,108.431 197.529,108.431 197.504,121.329 197.453,147.127 197.453,147.127 197.428,160.026 197.402,172.925 197.402,172.925 197.377,185.823 197.351,198.722 197.326,211.621 197.326,211.621 197.3,224.52 197.301,224.646 197.388,235.941 197.389,236.038 197.553,246.855 197.557,247.033 197.854,257.339 197.865,257.611 198.35,267.372 198.375,267.756 199.103,276.94 199.154,277.461 200.181,286.034 200.282,286.72 201.662,294.649 201.849,295.538 203.639,302.788 203.971,303.914 206.225,310.453 206.792,311.835 209.566,317.629 210.483,319.24 213.832,324.257 215.207,325.981 219.187,330.186 221.039,331.805 225.704,335.165 227.887,336.435 233.293,338.917 235.535,339.707 241.738,341.277 243.789,341.625 250.843,342.249 251.947,329.779 252.808,342.269 260.069,341.768 262.13,341.459 268.477,339.981 270.774,339.216 276.269,336.798 278.539,335.515 283.245,332.193 285.182,330.519 289.16,326.33 290.589,324.532 293.902,319.513 294.839,317.837 297.548,312.025 298.112,310.601 300.28,304.032 300.601,302.887 302.29,295.598 302.464,294.707 303.735,286.735 303.824,286.059 304.74,277.439 304.784,276.939 305.407,267.709 305.426,267.351 305.817,257.548 305.825,257.308 306.047,246.968 306.049,246.827 306.164,235.987 306.165,235.929 306.235,224.626 306.235,224.519 306.209,211.621 306.183,198.722 306.157,185.823 306.132,172.924 306.132,172.924 306.106,160.025 306.054,134.228 306.054,134.228 306.028,121.329 305.951,82.6327 305.951,82.6327 305.925,69.7339 305.847,31.1311 316.362,31.0635 328.115,30.9879 339.868,30.9123 351.621,30.8368 363.375,30.7612 375.128,30.6857 386.881,30.6101 410.388,30.459 422.141,30.3834 433.894,30.3078 445.647,30.2323 457.401,30.1567 467.773,30.09 " fill="none" stroke-width="0.5" stroke="rgb(0,0,0)" />
</svg>
