<?xml version="1.0" standalone="no" ?>
<!DOCTYPE svg PUBLIC "-//W3C//DTD SVG 1.1//EN" "http://www.w3.org/Graphics/SVG/1.1/DTD/svg11.dtd">
<svg width="500px" height="500px" xmlns="http://www.w3.org/2000/svg" version="1.1" >
	<polygon points="480.823,81.3513 479.904,82.8729 474.588,89.3448 472.831,90.997 469.389,93.4852 470.603,93.8533 472.698,94.7053 474.404,95.6133 476.127,96.7723 477.674,98.0752 479.043,99.5067 480.243,101.057 480.823,101.995 480.823,191.937 479.478,193.494 477.899,194.568 476.11,195.254 479.551,199.074 480.59,200.468 480.823,200.849 480.823,247.841 480.158,248.974 479.692,249.69 477.903,252.185 478.626,252.35 479.885,252.798 480.823,253.278 480.823,281.286 479.991,296.113 477.625,299.04 476.865,299.873 474.555,302.117 474.786,302.481 476.702,306.148 477.255,307.43 477.926,309.374 477.405,312.666 473.11,329.62 467.07,347.047 459.27,364.67 454.645,373.144 451.183,373.442 450.92,373.338 451.414,378.647 451.4,379.091 449.695,382.213 438.331,399.399 425.161,415.952 410.17,431.593 400.406,439.981 398.796,439.475 397.691,438.954 397.664,439.508 397.08,442.838 393.345,446.047 374.668,459.037 354.126,470.285 331.702,479.516 321.314,482.479 320.254,482.059 317.591,480.682 315.982,479.629 315.501,479.238 315.504,479.343 315.183,482.088 314.785,483.561 314.326,484.472 307.382,486.452 281.151,490.817 264.753,491.7 263.864,490.973 263.469,490.592 263.377,490.639 262.849,490.887 260.438,491.932 252.993,492.333 225.548,490.902 199.887,486.773 177.082,480.488 174.366,478.581 171.577,477.011 170.027,476.565 167.223,476.287 166.016,476.22 153.907,471.407 133.585,460.665 127.67,456.693 126.348,454.629 126.173,453.006 125.818,453.003 121.473,452.532 115.039,448.212 98.2672,434.295 83.2685,419.161 70.0408,403.057 68.9456,401.449 68.9291,401.317 68.8863,399.403 68.9325,398.824 66.2028,397.421 58.5824,386.23 48.8916,368.927 40.9666,351.394 34.8057,333.879 33.4777,328.67 36.1629,320.021 36.6981,318.674 38.4365,315.125 37.1732,315.099 35.2041,314.479 31.3792,312.16 29.5607,310.342 29.3786,310.1 27.7694,299.888 26.8905,283.906 26.8905,233.927 27.7366,231.983 28.8275,230.105 28.9164,229.986 27.5107,229.176 26.8905,228.691 26.8905,160.547 27.9482,157.598 28.5507,156.259 30.9773,151.826 31.9869,150.339 33.1055,148.99 31.9699,148.535 29.6836,147.348 28.1294,146.335 26.8905,145.341 26.8905,109.571 27.6588,108.913 28.101,108.59 26.9866,107.714 26.8905,107.619 26.8905,88.5744 27.0831,88.2834 26.8905,88.219 26.8905,39.9927 30.4105,37.415 30.8675,37.1007 33.0032,35.7225 29.9873,34.7723 28.5701,34.1952 26.8905,33.3459 26.8905,19.5757 38.3822,19.4875 49.8739,19.3993 61.3656,19.3111 72.8572,19.223 84.3489,19.1348 95.8406,19.0466 107.332,18.9584 117.823,18.8779 118.829,20.0838 118.899,20.0227 119.951,18.8616 130.316,18.7821 141.807,18.6939 153.299,18.6057 158.104,18.5689 158.352,19.3267 158.493,19.2252 159.652,18.557 164.791,18.5175 176.282,18.4294 187.774,18.3412 210.757,18.1648 210.732,31.0636 210.706,43.9624 210.681,56.8612 210.656,69.76 210.63,82.6588 210.622,86.7523 210.506,86.8145 209.636,87.1783 208.099,87.6705 207.096,87.8993 206.104,88.0464 209.613,90.967 209.931,91.2439 210.612,91.8647 210.579,108.456 210.554,121.355 210.503,147.153 210.478,160.052 210.452,172.95 210.44,178.956 210.342,179.136 209.447,180.487 207.666,182.729 206.481,183.97 204.365,185.813 206.232,187.093 207.684,188.321 209.657,190.366 210.416,191.346 210.401,198.748 210.376,211.647 210.359,220.049 209.606,221.265 208.624,222.245 210.166,223.672 210.352,223.863 210.35,224.546 210.438,235.84 210.602,246.657 210.899,256.963 211.298,264.995 209.489,267.184 208.039,269.113 207.933,269.31 208.765,270.151 210.908,271.956 211.07,272.096 211.865,272.797 212.112,275.909 213.138,284.482 214.519,292.41 216.308,299.661 218.563,306.2 221.336,311.994 224.685,317.011 228.665,321.215 233.33,324.575 238.737,327.056 244.939,328.626 251.168,329.177 251.297,329.388 252.767,332.432 253.182,331.653 254.162,330.172 255.083,329.031 259.171,328.749 265.518,327.271 271.013,324.853 275.719,321.532 279.698,317.343 283.01,312.324 285.72,306.511 287.888,299.942 289.576,292.653 290.848,284.68 291.763,276.06 292.379,266.936 293.778,265.839 294.279,265.535 292.961,264.404 292.504,263.873 292.778,257.028 293,246.688 293.115,235.848 293.185,224.546 293.159,211.647 293.133,198.748 293.128,195.931 293.445,195.613 294.923,194.387 295.593,193.93 295.385,193.622 294.737,192.435 294.019,190.741 293.609,189.431 293.229,187.578 293.109,186.395 293.107,185.849 293.104,184.095 293.229,182.867 293.61,181.012 294.02,179.703 294.739,178.01 295.386,176.824 296.126,175.73 294.551,174.708 293.138,173.396 293.082,173.332 293.082,172.95 293.056,160.052 293.004,134.254 292.978,121.355 292.965,114.687 293.31,113.351 293.86,111.798 295.174,108.92 296.069,107.372 296.166,107.235 295.994,107.224 294.592,107.029 294.441,106.997 292.948,106.433 292.901,82.6588 292.875,69.76 292.797,31.0636 292.771,18.1648 304.525,18.0893 316.278,18.0137 328.031,17.9382 339.784,17.8626 351.538,17.787 363.291,17.7115 375.044,17.6359 380.617,17.6001 381.359,18.0365 385.712,21.2322 386.528,19.5688 387.154,18.8408 388.854,17.5471 410.304,17.4092 422.057,17.3337 433.81,17.2581 444.088,17.192 445.282,18.2832 445.299,18.2582 446.177,17.1786 457.317,17.107 469.07,17.0314 480.823,16.9559 " fill="none" stroke-width="0.5" stroke="rgb(0,0,0)" />
	<polygon points="307.42,468.231 307.454,468.24 307.595,468.301 307.527,468.074 " fill="none" stroke-width="0.5" stroke="rgb(0,0,0)" />
	<polygon points="194.342,444.424 194.623,445.514 194.683,445.527 196.123,445.758 197.505,445.902 198.571,445.944 199.994,445.866 201.269,445.641 202.32,445.297 203.083,444.893 203.193,444.802 203.021,444.815 201.583,444.812 195.365,444.323 194.244,444.137 " fill="none" stroke-width="0.5" stroke="rgb(0,0,0)" />
	<polygon points="317.436,421.984 317.805,423.201 318.135,424.654 318.21,425.017 318.35,425.764 318.572,425.924 319.162,426.386 320.029,427.121 320.911,427.999 320.967,427.945 321.442,427.521 322.151,426.929 322.825,426.416 323.525,425.931 324.492,425.344 324.877,425.141 324.656,424.354 324.304,421.809 324.304,419.72 " fill="none" stroke-width="0.5" stroke="rgb(0,0,0)" />
	<polygon points="168.004,413.386 168.01,414.756 167.807,417.725 168.689,417.67 168.887,416.643 168.983,416.324 169.861,414.3 170.019,414.03 170.101,413.922 168.713,413.195 167.978,412.766 167.955,412.751 " fill="none" stroke-width="0.5" stroke="rgb(0,0,0)" />
	<polygon points="82.3912,369.319 82.5736,370.523 83.4744,369.844 83.4816,369.839 83.0695,369.415 82.9602,369.279 " fill="none" stroke-width="0.5" stroke="rgb(0,0,0)" />
	<polygon points="60.6102,341.348 60.9525,341.898 61.0635,341.562 61.2386,341.174 60.8881,341.072 60.562,340.953 " fill="none" stroke-width="0.5" stroke="rgb(0,0,0)" />
	<polygon points="158.283,339.593 156.909,340.654 157.83,341.309 158.267,341.67 158.428,340.079 158.53,339.356 " fill="none" stroke-width="0.5" stroke="rgb(0,0,0)" />
	<polygon points="76.2415,315.922 76.0145,318.024 76.5767,317.414 77.9315,316.203 78.9403,315.463 78.6901,315.3 77.2611,314.159 76.8149,313.723 " fill="none" stroke-width="0.5" stroke="rgb(0,0,0)" />
	<polygon points="161.235,300.627 160.905,300.671 161.215,301.291 161.326,300.606 " fill="none" stroke-width="0.5" stroke="rgb(0,0,0)" />
	<polygon points="162.379,253.657 162.744,255.468 162.824,255.921 162.939,256.682 164.415,253.885 164.439,253.856 162.537,253.422 162.268,253.201 " fill="none" stroke-width="0.5" stroke="rgb(0,0,0)" />
	<polygon points="91.2837,217.424 91.5356,218.192 91.8166,219.3 92.5811,219.053 93.3101,218.93 96.1766,218.892 96.8204,218.983 98.3361,219.419 98.4134,218.902 98.7175,217.565 98.1621,217.626 96.0907,217.625 92.9015,217.268 91.0382,216.839 " fill="none" stroke-width="0.5" stroke="rgb(0,0,0)" />
	<polygon points="433.148,216.222 432.297,216.385 431.531,216.496 432.737,217.496 433.32,218.103 434.912,215.798 " fill="none" stroke-width="0.5" stroke="rgb(0,0,0)" />
	<polygon points="108.077,166.286 106.587,167.294 105.401,167.941 105.168,168.04 105.576,168.317 106.54,169.068 109.539,171.734 110.501,172.725 111.796,174.273 112.606,173.137 113.613,172.035 111.716,170.302 110.408,168.827 108.401,166.017 " fill="none" stroke-width="0.5" stroke="rgb(0,0,0)" />
	<polygon points="423.768,146.509 421.026,148.961 420.889,149.059 425.625,150.459 427.36,151.166 429.765,152.44 429.337,150.949 429.227,148.651 427.663,147.964 425.995,147.018 424.636,146.05 424.362,145.798 " fill="none" stroke-width="0.5" stroke="rgb(0,0,0)" />
	<polygon points="312.519,128.416 312.124,128.938 311.91,129.347 311.613,130.285 311.93,130.336 312.842,130.382 312.978,130.378 313.189,130.362 313.07,130.016 312.731,128.759 312.655,128.373 312.645,128.294 " fill="none" stroke-width="0.5" stroke="rgb(0,0,0)" />
	<polygon points="177.403,121.988 177.558,122.392 178.495,121.74 " fill="none" stroke-width="0.5" stroke="rgb(0,0,0)" />
	<polygon points="83.0612,122.138 83.0715,122.319 83.5676,122.109 84.1768,121.918 " fill="none" stroke-width="0.5" stroke="rgb(0,0,0)" />
	<polygon points="91.0347,118.754 89.6816,119.632 87.3435,120.879 85.2671,121.619 86.7317,121.318 88.1348,121.175 90.0395,121.175 91.4446,121.318 92.5436,121.543 92.2648,119.458 92.2398,119.255 92.092,117.93 " fill="none" stroke-width="0.5" stroke="rgb(0,0,0)" />
	<polygon points="186.125,115.316 185.789,115.961 184.616,117.704 184.165,118.235 182.838,119.44 184.307,118.852 187.528,117.867 188.873,117.594 186.631,114.947 186.397,114.655 " fill="none" stroke-width="0.5" stroke="rgb(0,0,0)" />
	<polygon points="102.989,65.4939 102.755,65.6878 101.613,66.6025 103.542,66.404 103.526,66.1435 103.481,65.0721 " fill="none" stroke-width="0.5" stroke="rgb(0,0,0)" />
	<polygon points="399.077,38.2834 399.527,39.3642 399.953,39.185 401.866,38.5241 401.673,38.4512 398.707,37.6073 " fill="none" stroke-width="0.5" stroke="rgb(0,0,0)" />
</svg>
