<?xml version="1.0" standalone="no" ?>
<!DOCTYPE svg PUBLIC "-//W3C//DTD SVG 1.1//EN" "http://www.w3.org/Graphics/SVG/1.1/DTD/svg11.dtd">
<svg width="500px" height="500px" xmlns="http://www.w3.org/2000/svg" version="1.1" >
	<polygon points="475.173,82.7239 471.69,86.9649 470.634,87.9579 463.601,93.0423 462.588,93.6251 455.324,96.8583 455.548,96.8772 456.634,97.0766 457.716,97.3874 458.892,97.874 459.765,98.3567 460.216,98.6822 462.301,96.8789 465.713,96.516 468.199,97.0264 469.19,97.3271 471.286,98.1791 472.311,98.7249 474.034,99.8839 474.964,100.667 475.173,100.886 475.173,191.579 471.263,192.283 467.929,191.463 466.46,190.874 461.89,188.243 461.258,187.821 455.935,183.716 455.521,183.363 452.996,180.997 456.283,185.693 458.612,187.065 458.626,187.073 462.688,189.48 462.961,189.653 467.35,192.605 467.808,192.948 472.177,196.579 472.763,197.142 475.173,199.817 475.173,249.557 472.46,253.341 472.39,253.436 470.449,256.027 472.839,255.523 474.59,255.432 475.173,255.493 475.173,281.127 474.346,295.861 474.116,297.315 471.293,300.058 469.204,301.125 470.944,303.403 471.463,304.217 472.66,306.509 471.865,311.528 467.692,327.998 461.808,344.975 454.198,362.169 450.298,369.315 450.266,369.311 447.753,367.135 446.977,365.106 445.871,358.719 443.685,355.267 440.247,352.591 435.542,350.231 432.661,348.949 435.736,351.188 436.609,351.975 440.524,356.323 441.243,357.323 444.291,362.713 444.775,363.841 446.753,370.303 446.976,371.432 447.292,374.823 444.85,379.297 433.755,396.076 420.901,412.23 406.281,427.486 397.848,434.73 396.504,433.719 395.827,433.117 394.545,431.782 394.039,431.175 392.946,429.659 392.534,428.995 391.685,427.39 391.334,426.58 390.784,424.974 390.526,423.866 390.33,422.35 390.295,421.275 390.324,420.802 390.439,419.966 390.547,419.466 390.845,418.504 390.856,418.479 389.047,418.286 388.027,418.081 384.466,417.017 383.668,416.711 380.33,415.131 379.681,414.77 377.042,413.066 377.093,413.597 377.093,417.615 377.092,417.748 377.075,418.471 377.059,418.785 377.002,419.5 376.983,419.661 379.442,418.998 381.012,419.182 382.202,419.454 383.834,420.019 384.892,420.512 386.504,421.478 387.427,422.168 388.933,423.556 389.69,424.41 391.008,426.239 391.564,427.197 392.609,429.489 392.952,430.472 393.641,433.247 393.791,434.181 394.039,437.458 394.011,438.026 389.882,441.573 371.69,454.226 351.686,465.18 329.846,474.17 319.125,477.228 318.346,476.718 316.147,474.932 315.333,474.12 313.607,472.006 312.985,471.068 311.742,468.708 311.325,467.689 310.573,465.166 310.363,464.096 310.11,461.491 310.096,460.576 310.337,456.892 310.423,456.215 311.094,452.65 311.236,452.071 312.259,448.665 312.431,448.174 312.761,447.358 311.995,447.484 311.977,447.485 311.837,447.889 310.688,451.976 310.635,452.154 309.126,456.916 308.926,457.45 306.892,462.156 306.38,463.089 303.613,467.161 302.394,468.457 298.687,471.323 297.347,471.951 298.546,471.863 299.434,471.76 300.156,471.649 300.85,471.539 301.112,471.504 301.828,471.425 302.252,471.394 303.116,471.364 303.763,471.379 304.634,471.449 305.747,471.651 306.416,471.844 307.722,472.406 308.216,472.697 309.453,473.684 309.798,474.049 310.67,475.258 310.892,475.672 311.344,476.784 311.47,477.223 311.644,478.064 311.7,478.503 311.743,479.045 311.752,479.331 306.14,480.931 280.533,485.192 264.374,486.062 264.289,485.965 264.066,486.079 252.988,486.675 226.146,485.276 201.09,481.244 177.806,474.827 156.278,466.269 136.488,455.808 129.807,451.323 129.996,449.341 130.26,449.022 127.338,449.285 126.765,449.28 118.426,443.681 102.087,430.122 87.4671,415.371 74.5679,399.667 72.8309,397.116 73.0339,394.573 73.0452,394.504 71.4396,395.073 63.3913,383.254 53.9399,366.378 46.2155,349.289 40.2187,332.24 38.4498,325.303 39.7443,321.133 40.066,320.324 44.2626,311.754 44.5514,311.236 45.1495,310.283 43.5863,311.014 41.4699,311.586 38.2988,311.522 36.3298,310.902 35.108,310.161 33.3952,299.291 32.5405,283.751 32.5405,231.402 33.6692,229.892 35.5904,228.364 34.8817,228.282 33.4353,227.914 32.5405,227.555 32.5405,156.78 34.2667,153.626 34.8735,152.733 38.4129,148.465 39.2544,147.642 40.3796,146.751 38.3098,146.557 37.2518,146.355 34.7163,145.615 33.6973,145.206 32.5405,144.606 32.5405,110.077 34.7619,108.918 38.031,108.316 41.073,109.656 41.1746,109.818 41.7245,107.938 42.1237,106.939 42.604,106.006 42.0483,106.223 41.0175,106.516 36.9924,107.26 35.6295,107.344 34.9372,107.302 34.1764,107.205 33.5429,107.079 32.6568,106.827 32.5405,106.784 32.5405,86.8307 32.6079,86.7289 32.9446,86.2716 33.9235,85.0735 32.7538,85.354 32.5405,85.3625 32.5405,40.5032 32.6261,40.4405 32.9008,40.2516 37.3608,37.3735 37.4356,37.326 41.8389,34.5814 42.3272,34.2607 39.5043,33.562 39.4743,33.5545 35.1749,32.4653 34.8647,32.3772 32.5405,31.645 32.5405,25.1825 38.4256,25.1373 49.9173,25.0491 61.4089,24.961 72.9006,24.8728 80.8699,24.8116 81.1033,28.0136 80.2993,30.1762 79.0364,32.1642 77.1915,34.0445 77.4216,33.9073 78.1713,33.5326 80.9981,32.3732 81.1799,32.3023 84.3391,31.1322 87.2291,29.9599 87.7577,29.679 86.4618,29.2376 85.6022,28.8625 84.6726,28.3612 82.3583,26.027 82.0057,25.3594 81.9003,24.8037 84.3923,24.7846 95.8839,24.6964 107.376,24.6083 118.867,24.5201 130.359,24.4319 141.851,24.3437 153.342,24.2556 154.983,24.243 154.876,24.687 154.509,25.5059 152.605,27.8139 151.636,28.4955 150.766,28.9984 149.396,29.6348 149.27,29.6914 147.886,30.2937 147.88,30.2965 149.264,31.3226 151.891,32.9633 154.708,34.6666 154.938,34.8133 155.464,35.1674 154.696,32.9849 154.947,28.63 156,26.4727 157.772,24.3686 157.978,24.22 164.834,24.1674 176.326,24.0792 187.817,23.991 205.096,23.8584 205.084,30.1653 203.507,30.8887 203.712,30.8821 203.957,30.8795 205.082,30.892 205.082,31.0525 205.082,31.0525 205.056,43.9513 205.033,55.6109 203.939,55.4585 202.97,55.2351 202.747,55.1627 204.014,56.4566 204.235,56.6955 205.03,57.6066 205.006,69.7489 204.98,82.6477 204.977,84.4006 204.275,84.4499 203.306,84.4348 199.324,84.0295 198.641,83.9173 193.952,82.8487 193.608,82.7589 192.311,82.376 192.701,82.6308 192.921,82.7815 197.806,86.3055 197.966,86.4247 202.769,90.1535 202.919,90.274 204.962,91.9747 204.929,108.445 204.904,121.344 204.853,147.142 204.828,160.04 204.802,172.939 204.788,180.324 204.73,180.397 204.017,181.142 201.876,183.007 200.981,183.646 198.512,185.065 197.451,185.537 195.611,186.138 197.099,186.502 198.027,186.816 200.789,188.028 201.714,188.542 204.112,190.186 204.767,190.74 204.751,198.737 204.726,211.636 204.708,220.782 203.913,221.475 202.033,221.702 204.456,223.536 204.702,223.742 204.7,224.534 204.701,224.589 204.788,235.884 204.788,235.926 204.953,246.743 204.954,246.82 205.251,257.126 205.256,257.244 205.691,265.996 204.869,267.09 204.047,268.625 203.884,269.455 204.053,270.325 204.7,271.374 206.205,272.896 206.48,276.356 206.502,276.581 207.529,285.154 207.572,285.451 208.953,293.38 209.033,293.764 210.823,301.015 210.967,301.502 213.221,308.041 213.466,308.64 216.24,314.434 216.637,315.132 219.986,320.148 220.582,320.894 224.561,325.099 225.363,325.8 230.028,329.16 230.973,329.71 236.38,332.191 237.351,332.533 243.553,334.103 244.441,334.254 249.645,334.714 249.783,335.077 250.696,338.338 250.856,339.113 251.306,342.481 251.353,343.033 251.365,343.396 251.47,343.055 251.885,342.057 255.838,334.643 259.56,334.386 260.452,334.252 266.799,332.774 267.794,332.443 273.289,330.025 274.272,329.469 278.978,326.147 279.816,325.423 283.794,321.234 284.413,320.455 287.726,315.436 288.131,314.711 290.841,308.898 291.085,308.282 293.253,301.713 293.392,301.217 295.081,293.928 295.156,293.542 296.427,285.569 296.466,285.277 297.382,276.657 297.401,276.44 297.979,267.865 299.081,267.51 300.267,267.263 301.525,267.14 302.849,267.188 300.246,265.613 299.491,265.066 298.157,263.921 298.423,257.253 298.426,257.149 298.649,246.809 298.65,246.748 298.765,235.908 298.765,235.883 298.835,224.581 298.835,224.534 298.809,211.635 298.783,198.737 298.779,196.353 299.893,195.74 300.908,195.305 301.591,195.088 300.894,194.513 300.138,193.756 299.282,192.721 298.77,191.964 298.757,185.838 298.743,178.524 299.283,177.726 300.139,176.691 300.895,175.935 301.931,175.08 302.824,174.475 303.967,173.853 300.22,173.651 298.735,173.019 298.732,173.017 298.732,172.939 298.732,172.939 298.706,160.04 298.654,134.243 298.654,134.243 298.628,121.344 298.606,110.442 299.123,109.547 301.009,106.899 301.784,106.021 304.269,103.733 305.27,102.997 308.381,101.201 309.524,100.7 311.446,100.1 311.404,99.9667 311.266,99.4259 311.187,99.0696 311.056,98.3684 311.004,98.0356 310.801,96.4287 310.607,94.9417 308.948,96.4078 308.912,96.4396 306.51,98.5261 306.333,98.6741 304.056,100.494 303.601,100.822 301.614,102.11 300.259,102.751 298.729,103.239 298.592,103.26 298.551,82.6475 298.525,69.7487 298.447,31.0523 298.447,31.0523 298.433,23.7786 304.561,23.7392 310.015,23.7041 310.252,23.8294 310.253,23.7026 316.314,23.6636 328.067,23.588 339.821,23.5125 351.574,23.4369 363.327,23.3614 375.08,23.2858 382.111,23.2406 385.35,25.6178 386.248,26.4402 391.304,32.1862 392.017,33.2031 395.789,40.0857 396.252,41.1975 397.36,44.9404 398.492,44.0218 400.486,43.0205 401.177,42.7295 404.149,41.7029 404.518,41.5893 408.18,40.5991 408.443,40.5347 412.506,39.6426 412.706,39.6031 411.914,39.0125 407.291,36.57 402.853,34.888 398.796,33.7339 395.406,32.8855 394.984,32.7623 392.69,31.9941 390.247,30.3743 389.419,29.4357 388.05,26.4064 389.016,23.1962 410.34,23.0591 422.093,22.9836 433.847,22.908 444.399,22.8402 444.697,23.2168 445.903,25.3694 446.078,24.7484 446.491,23.6974 446.94,22.8238 457.353,22.7569 469.106,22.6813 475.173,22.6423 " fill="none" stroke-width="0.5" stroke="rgb(0,0,0)" />
	<polygon points="188.094,439.197 188.451,439.896 190.437,444.554 190.711,445.36 191.548,448.609 192.452,448.875 193.981,449.212 195.632,449.478 197.238,449.644 198.6,449.698 200.423,449.598 202.183,449.288 203.792,448.761 205.173,448.029 206.316,447.088 207.266,445.858 208.043,444.153 208.675,441.234 209.029,440.605 202.741,441.075 201.877,441.074 195.659,440.585 194.703,440.426 189.506,439.098 188.534,438.752 187.553,438.299 " fill="none" stroke-width="0.5" stroke="rgb(0,0,0)" />
	<polygon points="258.348,448.101 258.045,448.137 257.938,448.164 257.846,448.203 257.601,448.351 257.161,448.694 257.382,448.713 258.019,448.807 258.524,448.911 259.32,449.137 259.659,449.261 259.658,449.259 259.39,448.81 259.119,448.465 258.877,448.229 258.701,448.101 258.68,448.091 " fill="none" stroke-width="0.5" stroke="rgb(0,0,0)" />
	<polygon points="162.504,425.827 160.549,430.767 160.046,431.748 157.047,436.405 156.246,437.387 152.051,441.487 150.972,442.313 145.431,445.581 144.219,446.115 142.808,446.549 143.45,446.554 148.502,446.232 152.561,445.362 155.785,444.047 158.249,442.386 160.085,440.411 161.411,438.054 162.259,435.195 162.583,431.552 162.58,431.307 162.562,430.82 162.533,430.306 162.494,429.77 162.446,429.219 162.392,428.657 162.332,428.088 162.268,427.508 162.735,425.062 " fill="none" stroke-width="0.5" stroke="rgb(0,0,0)" />
	<polygon points="326.563,414.885 325.439,415.398 315.934,418.531 314.74,418.785 311.41,419.126 311.918,419.588 312.691,420.634 313.425,421.979 313.919,423.276 314.148,424.033 314.479,425.486 314.524,425.704 314.781,427.083 314.99,427.97 315.445,428.293 315.474,428.314 316.381,428.967 316.736,429.245 317.602,429.98 318.234,430.609 318.967,431.463 319.728,432.606 320.236,433.617 320.396,434.116 320.88,433.504 321.055,433.295 321.776,432.468 321.923,432.306 322.642,431.544 322.845,431.339 323.56,430.654 323.846,430.399 324.555,429.807 324.96,429.499 325.66,429.014 326.241,428.661 326.931,428.297 327.76,427.942 328.438,427.713 329.574,427.456 330.238,427.377 330.306,427.379 329.713,426.667 328.615,424.58 328.266,423.339 328.054,421.809 328.054,413.996 " fill="none" stroke-width="0.5" stroke="rgb(0,0,0)" />
	<polygon points="243.268,410.635 243.203,411.669 242.424,416.645 241.943,418.202 239.736,422.833 239.002,423.989 235.563,428.175 234.764,428.971 231.543,431.593 231.87,431.439 236.428,428.331 240.207,424.713 243.194,420.66 245.374,416.236 246.864,410.995 247.077,410.667 246.245,410.646 245.307,410.511 243.959,410.141 243.246,409.846 " fill="none" stroke-width="0.5" stroke="rgb(0,0,0)" />
	<polygon points="164.265,413.676 164.269,414.5 163.949,419.184 163.836,419.984 162.931,424.204 165.243,421.893 168.509,421.273 170.356,421.807 172.459,422.83 172.696,422.964 172.589,422.581 172.276,420.598 172.228,419.221 172.261,418.853 172.478,417.723 172.574,417.403 173.102,416.187 173.26,415.917 174.106,414.806 174.323,414.584 175.353,413.754 175.627,413.582 176.655,413.073 176.985,412.95 177.158,412.901 176.844,412.805 176.337,412.623 173.553,411.471 173.09,411.255 170.454,409.873 170.012,409.616 167.585,408.049 167.142,407.731 164.985,406.023 164.52,405.611 163.564,404.666 " fill="none" stroke-width="0.5" stroke="rgb(0,0,0)" />
	<polygon points="256.04,394.378 256.003,394.47 256.32,395.007 256.714,395.814 256.987,396.51 257.246,397.36 257.413,398.118 257.532,398.946 257.589,399.769 257.577,400.688 257.482,401.7 257.274,402.773 256.998,403.704 256.578,404.736 256.138,405.569 255.517,406.506 254.93,407.226 254.731,407.424 257.196,408.383 257.67,408.593 260.53,410.021 260.897,410.221 263.68,411.878 263.986,412.074 266.604,413.87 266.884,414.075 269.248,415.92 269.533,416.159 271.556,417.964 271.888,418.286 272.478,418.906 272.816,418.832 273.064,418.783 274.349,418.562 274.584,418.526 275.918,418.354 276.141,418.329 277.524,418.206 277.734,418.191 279.167,418.117 279.364,418.11 280.846,418.086 281.072,418.086 283.203,418.136 283.456,418.147 285.659,418.298 285.896,418.319 288.177,418.572 288.399,418.601 290.764,418.958 290.969,418.993 293.423,419.457 293.611,419.495 296.161,420.068 296.333,420.109 296.778,420.224 297.234,419.613 297.453,419.391 291.034,418.738 289.849,418.487 279.764,415.188 278.644,414.68 270.038,409.587 269.083,408.876 261.982,402.321 261.239,401.484 256.055,394.331 " fill="none" stroke-width="0.5" stroke="rgb(0,0,0)" />
	<polygon points="348.339,394.736 347.817,395.606 343.943,400.926 347.816,400.253 348.469,400.178 352.976,399.926 353.495,399.921 357.288,400.058 357.738,400.092 361.209,400.496 361.738,400.583 364.829,401.245 365.477,401.424 368.133,402.334 368.333,402.421 368.063,401.349 368.335,397.767 368.339,397.758 368.115,397.842 362.919,399.006 360.42,398.999 359.27,398.735 357.35,397.896 356.274,397.161 355.205,396.214 354.226,395.095 353.643,394.297 352.786,392.88 352.441,392.212 351.732,390.583 351.51,389.981 351.17,388.87 " fill="none" stroke-width="0.5" stroke="rgb(0,0,0)" />
	<polygon points="217.924,386.522 216.83,386.729 207.014,387.601 205.894,387.589 198.274,386.748 199.636,388.587 200.062,389.255 201.9,392.64 202.249,393.419 203.39,396.583 203.666,397.684 203.964,399.72 204.326,398.961 204.745,398.229 207.566,394.059 208.868,392.696 212.823,389.746 215.11,388.731 220.795,387.613 222.318,387.523 223.364,387.603 224.018,387.692 225.266,387.937 225.789,388.065 226.393,388.245 226.237,387.541 226.123,386.779 226.04,385.759 226.041,384.837 226.1,384.117 " fill="none" stroke-width="0.5" stroke="rgb(0,0,0)" />
	<polygon points="308.418,392.527 307.995,392.651 304.783,393.46 304.265,393.565 300.557,394.137 299.984,394.196 295.742,394.413 295.058,394.407 291.545,394.16 290.779,394.053 287.388,393.341 286.636,393.128 286.429,393.054 291.394,395.413 297.413,397.041 304.315,397.639 307.705,397.499 310.759,397.096 313.225,396.511 311.468,394.065 311.213,393.233 311.115,391.619 " fill="none" stroke-width="0.5" stroke="rgb(0,0,0)" />
	<polygon points="118.059,353.008 117.208,353.5 115.718,354.196 115.745,356.476 115.649,357.588 115.237,359.778 114.913,360.876 114.096,362.868 113.555,363.881 112.887,364.873 115.488,364.151 116.491,363.968 120.742,363.583 121.871,363.594 129.547,364.442 130.78,364.72 137.863,367.179 138.989,367.716 145.348,371.662 146.292,372.397 151.792,377.704 152.521,378.564 154.594,381.571 154.037,379.256 153.084,377.024 151.715,374.907 149.871,372.888 147.482,370.977 144.483,369.212 140.825,367.642 136.285,366.27 132.603,365.268 132.316,365.182 129.363,364.208 128.938,364.048 126.698,363.104 126.073,362.793 124.451,361.859 123.59,361.249 122.493,360.306 121.519,359.222 120.852,358.252 120.136,356.801 119.805,355.785 119.546,354.5 119.456,353.418 119.52,351.987 119.521,351.983 " fill="none" stroke-width="0.5" stroke="rgb(0,0,0)" />
	<polygon points="245.956,367.18 245.385,368.13 241.318,373.596 240.51,374.472 239.553,375.311 240.38,375.617 241.566,376.222 242.451,376.814 243.379,377.59 244.122,378.362 244.752,379.151 245.229,379.13 246.045,379.152 247.291,379.278 248.455,379.52 249.561,379.876 249.838,379.999 248.354,374.525 248.18,373.551 247.365,364.464 247.367,364.207 " fill="none" stroke-width="0.5" stroke="rgb(0,0,0)" />
	<polygon points="77.726,367.354 78.6578,369.711 79.912,377.993 79.8597,378.561 81.6562,376.403 82.2408,375.798 84.7493,373.564 85.4822,373.011 87.9615,371.439 88.9659,370.935 90.3404,370.408 89.1176,369.721 88.221,369.096 86.7354,367.831 85.9936,367.067 84.7588,365.529 84.5623,365.233 84.3919,365.267 83.5721,365.411 83.3324,365.448 82.4908,365.56 81.8115,365.608 79.4981,365.632 78.3758,365.532 76.1832,365.112 " fill="none" stroke-width="0.5" stroke="rgb(0,0,0)" />
	<polygon points="169.446,368.139 169.464,368.207 170.319,371.405 171.06,373.926 171.531,375.125 171.804,375.184 172.139,375.233 172.478,375.261 172.827,375.271 173.304,375.265 173.832,375.248 174.373,375.222 174.926,375.191 175.479,375.158 175.507,375.156 176.042,375.127 176.119,375.123 176.137,375.123 174.796,373.954 174.103,373.232 169.477,367.469 169.099,366.903 " fill="none" stroke-width="0.5" stroke="rgb(0,0,0)" />
	<polygon points="100.22,372.207 97.9231,372.316 97.6964,372.307 98.5137,374.957 99.0817,374.183 100.955,372.11 " fill="none" stroke-width="0.5" stroke="rgb(0,0,0)" />
	<polygon points="353.924,362.965 352.076,364.775 352.931,365.029 355.035,367.602 355.422,370.312 354.972,374.681 355.198,374.529 355.942,374.105 357.19,373.514 357.775,373.277 359.343,372.739 359.785,372.608 361.505,372.172 365.198,370.944 363.635,370.496 362.601,370.086 360.725,369.117 359.773,368.497 358.182,367.216 357.369,366.413 356.088,364.861 355.457,363.917 354.551,362.213 " fill="none" stroke-width="0.5" stroke="rgb(0,0,0)" />
	<polygon points="323.855,365.369 323.14,366.79 322.559,367.71 321.594,368.957 320.824,369.769 319.629,370.804 319.591,370.83 320.57,370.892 323.53,370.823 327.122,370.59 330.996,370.172 334.916,369.555 335.124,369.509 334.889,369.488 333.854,369.299 330.912,368.473 329.861,368.061 327.245,366.72 326.254,366.072 324.226,364.419 " fill="none" stroke-width="0.5" stroke="rgb(0,0,0)" />
	<polygon points="280.079,361.758 276.989,364.27 274.846,368.068 274.708,369.008 275.887,368.416 276.226,368.295 277.515,367.999 277.89,367.958 277.945,367.957 277.949,367.917 278.025,367.404 278.264,366.179 278.473,365.406 278.868,364.272 279.416,363.128 280.005,362.189 280.604,361.525 " fill="none" stroke-width="0.5" stroke="rgb(0,0,0)" />
	<polygon points="298.034,354.558 294.847,356.476 293.634,357.023 289.129,358.446 289.05,358.47 287.509,358.932 288.674,359.015 290.091,359.541 291.491,360.3 293.359,361.686 293.483,361.78 295.828,363.622 298.699,365.579 299.057,365.768 299.008,365.671 298.623,364.688 298.204,363.236 298.008,362.199 297.863,360.662 297.845,359.866 297.898,358.76 297.936,358.316 298.075,357.226 298.121,356.925 298.317,355.851 298.348,355.691 298.573,354.633 298.576,354.616 298.778,353.682 " fill="none" stroke-width="0.5" stroke="rgb(0,0,0)" />
	<polygon points="395.271,338.621 394.063,339.672 393.893,339.814 392.745,340.737 392.248,341.094 391.227,341.747 389.79,342.403 388.955,342.651 386.647,342.84 386.46,342.817 385.097,342.47 384.928,342.403 383.86,341.833 385.042,343.731 385.574,344.838 386.704,348.038 386.99,349.28 387.376,352.677 387.39,353.821 387.382,353.904 389.002,352.032 389.646,351.399 394.257,347.535 395.613,346.693 400.506,344.542 399.573,343.643 399.146,343.184 397.87,341.645 397.742,341.486 396.393,339.735 395.422,338.49 " fill="none" stroke-width="0.5" stroke="rgb(0,0,0)" />
	<polygon points="151.224,292.49 151.325,292.639 157.061,301.451 157.378,302.003 161.435,310.106 161.912,311.471 163.451,318.776 163.55,320.441 163.298,323.282 163.13,324.237 162.379,327.051 162.05,327.965 160.812,330.645 160.304,331.528 158.589,333.965 157.872,334.798 155.692,336.882 154.75,337.609 152.113,339.233 150.979,339.768 148.513,340.612 148.96,340.762 151.551,341.844 152.303,342.226 154.763,343.717 155.439,344.197 157.788,346.143 158.334,346.66 160.593,349.106 161.002,349.602 162.717,351.945 162.672,351.738 161.929,345.215 161.896,344.391 161.954,342.607 161.98,342.222 162.159,340.457 162.222,340.014 162.528,338.336 162.657,337.786 163.096,336.262 163.362,335.533 163.94,334.231 164.506,333.241 165.23,332.227 166.435,330.993 167.31,330.335 169.455,329.343 170.488,329.109 172.096,329.013 171.951,328.833 168.387,323.436 167.833,322.363 165.533,316.429 165.198,315.109 164.383,308.774 164.344,307.752 164.513,304.594 164.577,303.994 165.07,300.948 165.195,300.366 165.99,297.442 166.172,296.889 167.249,294.1 167.48,293.582 167.49,293.563 167.057,293.919 165.838,294.789 165.194,295.187 163.912,295.864 163.12,296.208 161.85,296.648 160.743,296.909 159.56,297.066 158.35,297.095 157.994,297.066 157.04,296.903 156.634,296.797 155.685,296.458 155.238,296.251 154.383,295.762 153.905,295.429 153.204,294.853 152.703,294.369 152.17,293.775 151.656,293.115 151.271,292.553 150.755,291.692 150.485,291.186 150.144,290.459 149.917,290.111 149.169,289.325 148.751,288.943 " fill="none" stroke-width="0.5" stroke="rgb(0,0,0)" />
	<polygon points="56.1593,335.829 56.9881,342.624 60.4872,348.252 63.6522,351.384 63.5149,350.225 63.4897,347.763 63.6167,346.512 64.1081,344.237 64.4813,343.105 65.4097,341.048 65.9569,340.096 67.0486,338.563 66.309,338.472 65.8132,338.388 62.9429,337.773 62.1806,337.552 59.7119,336.646 58.7547,336.188 56.6139,334.905 56.4875,334.81 " fill="none" stroke-width="0.5" stroke="rgb(0,0,0)" />
	<polygon points="318.778,339.936 317.895,340.617 316.898,341.233 315.858,341.735 314.992,342.068 313.84,342.406 313.121,342.566 312.226,342.706 314.544,343.732 315.424,344.22 317.79,345.822 317.865,344.979 317.989,344.201 318.639,341.407 318.77,340.934 319.249,339.467 " fill="none" stroke-width="0.5" stroke="rgb(0,0,0)" />
	<polygon points="417.54,330.899 416.276,331.247 415.384,331.417 413.597,331.611 413.399,331.629 411.44,331.772 411.41,331.775 411.623,332.971 411.878,334.393 411.893,334.481 412.117,335.85 412.148,336.062 412.306,337.332 412.342,337.731 412.402,338.86 412.407,339.323 412.398,339.656 412.371,340.068 412.337,340.403 412.247,340.979 412.18,341.301 411.956,342.089 411.848,342.384 411.733,342.621 412.634,342.606 417.981,343.062 418.933,343.226 424.227,344.613 425.18,344.956 425.389,345.053 425.158,344.918 423.775,343.777 420.503,340.06 419.238,337.598 417.998,332.225 417.891,330.665 " fill="none" stroke-width="0.5" stroke="rgb(0,0,0)" />
	<polygon points="123.175,322.616 121.245,323.778 120.182,324.277 118.909,324.719 119.579,325.179 120.392,325.856 121.935,327.411 122.604,328.224 123.85,330.063 124.364,331.004 125.256,333.083 125.59,334.137 126.073,336.413 126.196,337.638 126.176,339.876 126.058,340.972 125.722,342.593 126.012,342.389 126.794,341.928 128.775,340.966 129.488,340.677 131.667,339.965 132.35,339.788 133.833,339.501 131.625,338.224 130.692,337.549 128.786,335.847 128.048,335.049 126.551,333.077 126.004,332.2 124.925,330.056 124.552,329.111 123.899,326.89 123.697,325.856 123.477,323.655 123.469,322.627 123.489,322.381 " fill="none" stroke-width="0.5" stroke="rgb(0,0,0)" />
	<polygon points="386.502,307.424 385.48,308.567 384.401,310.094 383.37,311.893 382.46,313.856 381.792,315.688 381.562,316.877 381.354,319.14 381.179,322.11 380.991,325.294 380.98,325.453 380.718,328.457 380.668,328.86 380.264,331.381 380.013,332.37 379.4,334.105 378.133,335.802 379.216,336.576 380.021,337.275 381.279,338.595 381.057,337.931 381.01,337.744 380.864,336.851 380.848,336.658 380.9,335.299 381.178,333.564 381.41,332.633 382.143,330.485 382.271,330.145 383.308,327.645 383.328,327.596 384.486,324.877 385.583,322.088 386.483,319.319 387.074,316.662 387.297,313.99 387.272,312.627 387.161,310.853 386.94,309.069 386.605,307.505 386.56,307.377 " fill="none" stroke-width="0.5" stroke="rgb(0,0,0)" />
	<polygon points="321.565,324.953 320.264,325.838 319.95,325.988 320.244,326.328 320.851,327.219 321.487,328.457 321.816,329.352 322.125,330.664 322.189,331.227 322.629,329.864 323.136,327.65 323.318,325.565 323.298,325.031 323.221,324.383 323.091,323.755 322.921,323.192 " fill="none" stroke-width="0.5" stroke="rgb(0,0,0)" />
	<polygon points="365.344,330.128 365.09,330.28 365.58,330.348 365.505,330.034 " fill="none" stroke-width="0.5" stroke="rgb(0,0,0)" />
	<polygon points="75.0645,307.226 73.5034,311.561 72.5429,315.244 72.2194,318.24 72.2527,319.419 72.3896,320.717 72.6474,321.933 73.0646,323.144 73.7083,324.436 74.6722,325.875 75.1777,326.466 75.679,325.132 76.1535,324.163 77.2578,322.365 77.9169,321.494 79.3346,319.955 80.149,319.227 81.85,317.98 82.7772,317.427 84.7315,316.504 85.7212,316.145 87.8986,315.578 88.9507,315.408 91.3845,315.247 92.533,315.289 94.7801,315.6 95.8957,315.873 97.9379,316.599 98.933,317.066 100.243,317.845 99.9848,317.377 99.293,315.802 98.99,314.921 98.5929,313.358 98.5012,312.816 97.6329,313.316 96.4853,313.817 93.9708,314.597 92.8355,314.824 90.1479,315.081 89.0658,315.08 87.3078,314.91 86.2494,314.704 84.5457,314.2 83.5453,313.796 81.9513,312.969 81.0298,312.37 79.6008,311.229 78.7936,310.44 77.585,308.996 76.9403,308.044 76.0073,306.308 75.7369,305.653 " fill="none" stroke-width="0.5" stroke="rgb(0,0,0)" />
	<polygon points="348.96,305.087 348.554,305.128 345.796,305.309 344.915,305.298 344.323,305.244 344.162,305.212 344.229,306.413 344.128,307.659 343.931,308.746 343.617,309.851 343.096,311.096 342.553,312.054 341.665,313.229 340.876,314.031 339.779,314.898 338.887,315.439 340.192,316.038 341.018,316.505 345.877,319.817 346.623,320.425 350.64,324.311 351.277,325.043 351.54,325.404 351.653,324.895 351.996,323.846 352.57,322.535 352.765,322.135 353.578,320.619 353.673,320.449 354.281,319.403 352.832,319.06 352.592,318.997 350.743,318.472 349.947,318.179 348.64,317.584 346.344,315.67 345.848,314.958 344.835,311.792 345.349,309.374 345.553,308.93 347.385,306.702 347.957,306.29 349.011,305.69 349.895,305.307 350.454,305.098 351.591,304.742 351.723,304.705 " fill="none" stroke-width="0.5" stroke="rgb(0,0,0)" />
	<polygon points="128.731,293.935 128.852,294.384 130.237,300.491 130.355,301.246 130.881,307.216 130.877,308.254 130.707,310.013 131.028,309.846 131.506,309.687 133.827,309.424 134.007,309.441 135.448,309.774 135.598,309.83 137.234,310.78 137.355,310.881 138.535,312.236 138.63,312.388 139.191,313.579 139.261,313.789 139.47,314.612 139.517,314.885 139.584,315.411 139.611,315.753 139.627,316.083 139.631,316.288 139.652,316.508 139.68,316.516 139.956,316.544 140.199,316.522 140.315,316.489 139.393,312.171 136.451,306.067 131.865,298.381 128.277,292.497 " fill="none" stroke-width="0.5" stroke="rgb(0,0,0)" />
	<polygon points="401.811,304.289 402.793,306.257 404.152,308.301 405.812,310.301 407.676,312.155 409.635,313.77 411.735,315.177 412.046,315.368 411.185,313.836 409.051,310.374 406.624,307.156 404.017,304.641 401.449,303.154 " fill="none" stroke-width="0.5" stroke="rgb(0,0,0)" />
	<polygon points="437.685,310.877 437.496,310.997 436.525,311.493 436.287,311.586 435.541,311.822 435.254,311.891 434.709,311.994 434.373,312.041 433.983,312.081 433.598,312.108 433.319,312.12 432.885,312.128 432.611,312.127 431.842,312.104 431.612,312.093 430.766,312.034 430.639,312.023 429.736,311.94 429.683,311.934 428.749,311.839 427.832,311.747 427.532,311.721 427.513,312.785 427.507,312.968 427.417,314.77 427.404,314.9 427.913,314.625 428.951,314.193 431.108,313.538 432.202,313.321 434.506,313.096 435.258,313.073 437.3,313.147 437.741,313.18 437.836,313.191 437.804,312.533 437.815,311.81 437.904,310.695 " fill="none" stroke-width="0.5" stroke="rgb(0,0,0)" />
	<polygon points="312.311,302.992 311.552,303.604 306.962,306.687 305.932,307.234 305.679,307.337 307.767,307.425 308.254,307.467 310.893,307.809 311.411,307.9 313.814,308.442 314.4,308.608 315.574,309.01 315.083,308.202 314.21,306.27 313.767,304.755 313.451,302.58 313.442,301.908 " fill="none" stroke-width="0.5" stroke="rgb(0,0,0)" />
	<polygon points="439.814,303.044 439.873,303.326 439.997,303.045 439.763,302.931 439.653,302.754 " fill="none" stroke-width="0.5" stroke="rgb(0,0,0)" />
	<polygon points="108.717,291.993 108.705,292.364 108.428,296.57 108.308,297.414 107.565,300.789 108.436,300.855 108.719,301.012 110.274,302.562 110.285,302.483 110.338,301.156 110.022,296.543 109.181,292.142 108.717,290.489 " fill="none" stroke-width="0.5" stroke="rgb(0,0,0)" />
	<polygon points="434.737,291.176 434.064,292.299 433.815,292.679 432.864,294.011 432.789,294.113 431.722,295.539 431.05,296.461 432.34,297.192 434.26,298.228 434.391,298.301 436.096,299.282 436.627,299.628 437.812,300.498 439.302,302.191 438.204,300.43 436.244,293.944 435.048,290.477 " fill="none" stroke-width="0.5" stroke="rgb(0,0,0)" />
	<polygon points="458.614,287.408 457.498,287.925 456.297,288.92 454.944,290.554 453.491,292.8 452.773,294.073 454.731,293.874 456.202,293.917 459.391,294.431 461,294.946 461.921,295.402 461.835,294.913 461.823,294.911 461.828,294.874 461.825,294.853 461.847,294.75 461.853,294.684 461.862,294.541 461.87,294.332 461.875,294.065 461.877,293.745 461.877,293.516 461.804,292.015 461.594,290.585 461.25,289.255 460.816,288.188 460.398,287.517 460.147,287.267 460.111,287.248 459.948,287.222 " fill="none" stroke-width="0.5" stroke="rgb(0,0,0)" />
	<polygon points="338.556,294.298 338.637,294.117 338.777,293.834 338.209,293.822 " fill="none" stroke-width="0.5" stroke="rgb(0,0,0)" />
	<polygon points="89.8074,277.109 89.7323,277.266 86.8187,283.143 86.7706,283.238 84.4156,287.772 83.308,289.91 83.3881,289.907 83.9041,290.065 85.7725,291.046 86.2941,291.461 86.8422,291.959 87.407,292.543 87.886,293.039 88.1423,293.262 88.1647,293.276 88.997,293.161 89.0874,293.113 89.2876,292.87 89.7743,291.685 90.2578,289.335 90.582,285.932 90.7375,281.602 90.7744,276.4 90.7823,276.138 90.8526,274.826 " fill="none" stroke-width="0.5" stroke="rgb(0,0,0)" />
	<polygon points="54.3954,275.426 54.3838,276.676 54.6619,277.996 55.4397,279.659 55.7473,280.145 56.2178,280.871 56.255,280.929 56.7001,281.635 56.8159,281.827 57.2074,282.506 57.3951,282.86 57.7208,283.531 57.9479,284.067 58.1957,284.748 58.4018,285.455 58.5594,286.164 58.6788,286.978 58.7341,287.735 58.6809,289.021 58.461,290.424 60.7896,286.137 61.5597,282.784 61.5359,282.624 61.4797,282.411 61.4057,282.225 61.2972,282.025 61.125,281.781 60.855,281.476 60.2736,280.938 60.2604,280.926 58.3383,279.135 58.0037,278.796 56.4897,277.126 56.2811,276.882 55.0583,275.369 55.0286,275.332 54.5467,274.725 " fill="none" stroke-width="0.5" stroke="rgb(0,0,0)" />
	<polygon points="420.544,265.155 420.374,265.592 419.73,267.067 419.644,267.254 419.129,268.326 419.953,268.508 420.206,268.57 421.83,269.008 422.613,269.282 423.762,269.782 426.07,271.629 426.506,272.225 427.592,275.367 426.925,278.228 426.458,279.099 424.145,281.411 422.872,282.093 421.785,282.537 419.894,283.088 419.452,283.197 417.134,283.674 416.997,283.701 414.475,284.155 412.04,284.624 409.994,285.123 408.387,285.693 407.071,286.305 405.925,286.942 405.575,287.182 406.643,287.204 410.281,286.97 413.54,286.369 416.553,285.5 419.303,284.473 421.788,283.396 423.957,282.41 424.156,282.325 425.896,281.613 426.833,281.321 428.074,281.051 429.748,280.942 429.936,280.958 430.944,281.135 431.113,281.181 431.478,281.321 429.219,276.554 426.373,271.551 423.233,267.027 420.848,264.262 " fill="none" stroke-width="0.5" stroke="rgb(0,0,0)" />
	<polygon points="157.516,223.297 157.409,223.486 156.212,225.518 155.183,227.309 154.478,228.755 154.366,229.095 156.188,231.812 156.423,233.679 156.363,235.105 156.347,235.358 156.188,237.18 156.176,237.298 155.951,239.37 155.945,239.425 155.687,241.601 155.686,241.613 155.43,243.734 155.212,245.621 155.071,247.063 155.03,247.838 155.064,248.954 155.07,248.999 157.004,250.232 158.131,252.336 158.596,253.96 158.703,254.399 159.068,256.21 159.116,256.482 159.408,258.411 159.429,258.562 159.673,260.54 159.679,260.592 159.9,262.528 160.117,264.294 160.34,265.76 160.346,265.787 161.892,266.359 163.72,268.781 164.261,270.158 164.827,271.589 165.412,272.98 166.02,274.279 166.644,275.427 167.259,276.362 167.819,277.031 168.651,277.766 168.894,277.976 169.292,278.356 169.562,278.64 169.882,279.006 170.144,279.334 170.427,279.721 170.67,280.084 170.937,280.526 171.148,280.913 171.406,281.455 171.572,281.856 171.807,282.55 171.915,282.955 172.081,283.869 172.12,284.267 172.062,285.79 171.981,286.256 172.781,285.229 173.121,284.832 175.121,282.703 176.527,281.902 175.469,281.183 174.897,280.738 170.782,277.094 169.89,276.09 166.98,271.904 166.111,269.938 165.007,265.113 165.084,262.293 166.226,258.319 167.304,256.277 170.313,252.641 171.106,251.856 175.361,248.405 175.676,248.167 180.515,244.773 185.118,241.429 188.684,238.227 190.693,235.39 191.399,232.397 191.324,231.733 191.177,230.876 190.964,229.931 190.693,228.953 190.372,227.994 190.336,227.904 190.141,229.46 189.786,230.839 188.439,234.234 187.843,235.35 185.808,238.31 185.163,239.089 182.611,241.66 182.046,242.159 179.15,244.386 178.713,244.691 175.645,246.62 175.346,246.796 172.278,248.472 172.123,248.553 169.227,250.021 165.951,250.585 162.925,249.209 161.196,246.369 161.147,243.806 161.389,242.668 161.599,241.575 161.785,240.483 161.943,239.391 162.071,238.299 162.165,237.208 162.224,236.115 162.242,235.106 162.142,233.07 161.832,231.112 161.267,229.137 160.391,227.111 159.131,225.004 157.628,223.089 " fill="none" stroke-width="0.5" stroke="rgb(0,0,0)" />
	<polygon points="391.472,271.472 390.987,273.777 390.673,275.847 390.562,277.712 390.609,278.829 390.754,279.929 390.814,280.172 391.05,279.68 391.463,278.401 391.738,276.944 391.843,275.269 391.798,273.065 391.671,270.869 391.656,270.699 " fill="none" stroke-width="0.5" stroke="rgb(0,0,0)" />
	<polygon points="339.484,273.102 338.425,274.242 338.049,275.73 338.073,275.919 338.146,276.082 338.268,276.223 338.636,276.479 339.333,276.782 340.293,277.037 341.385,277.192 341.555,277.2 341.55,277.157 341.487,276.542 341.483,276.499 341.426,275.909 341.416,275.784 341.376,275.24 341.363,275.001 341.348,274.512 341.37,273.814 341.394,273.552 341.583,272.537 341.655,272.283 341.848,271.78 " fill="none" stroke-width="0.5" stroke="rgb(0,0,0)" />
	<polygon points="133.352,217.731 129.284,219.019 128.389,219.422 129.67,219.77 131.833,222.294 131.676,227.128 130.551,229.318 129.727,231.401 129.059,233.609 128.544,235.875 128.17,238.129 127.927,240.301 127.795,242.322 127.763,243.786 129.152,253.745 132.845,263.542 138.277,273.399 139.555,275.336 140.188,274.035 140.112,273.607 139.665,272.603 138.665,270.936 137.312,268.859 137.232,268.732 135.822,266.436 135.59,266.02 134.36,263.576 134.047,262.824 133.178,260.217 132.927,259.093 132.597,256.306 133.194,253.036 134.232,251.971 134.178,251.467 133.791,249.864 133.132,247.729 132.316,245.279 132.303,245.239 131.467,242.664 131.407,242.468 130.678,239.911 130.582,239.522 130.067,237.063 129.967,236.387 129.772,234.11 130.474,230.861 132.882,228.569 133.049,228.528 133.098,227.922 133.121,227.685 133.422,225.217 133.468,224.909 133.928,222.331 134.011,221.943 134.669,219.331 134.812,218.853 135.336,217.346 " fill="none" stroke-width="0.5" stroke="rgb(0,0,0)" />
	<polygon points="351.539,267.977 352.104,268.147 352.644,268.372 352.683,267.429 " fill="none" stroke-width="0.5" stroke="rgb(0,0,0)" />
	<polygon points="358.733,246.576 357.836,247.181 355.786,248.295 354.768,248.726 354.303,248.87 355.059,249.056 358.135,249.312 361.22,250.55 363.075,253.308 362.748,257.412 361.052,260.902 361.981,260.853 362.161,260.846 363.07,260.827 363.168,260.826 363.313,260.825 363.281,260.338 363.278,260.286 363.221,259.289 363.217,259.199 363.177,258.215 363.173,258.076 363.158,257.13 363.158,256.962 363.167,256.325 363.173,256.125 363.202,255.533 363.223,255.245 363.277,254.71 363.336,254.286 363.419,253.821 363.573,253.174 363.689,252.79 364.108,251.775 364.262,251.486 365.169,250.303 364.117,249.74 363.216,249.141 362.227,248.336 361.452,247.57 360.624,246.577 360.001,245.659 359.953,245.57 " fill="none" stroke-width="0.5" stroke="rgb(0,0,0)" />
	<polygon points="382.492,242.091 382.102,243.405 381.672,244.455 381.052,245.617 380.413,246.57 379.588,247.563 378.773,248.364 377.768,249.168 376.824,249.781 375.663,250.378 375.102,250.601 375.559,251.007 376.181,251.656 377.299,253.027 377.533,253.334 378.576,254.807 379.557,253.776 379.773,253.561 380.96,252.441 381.587,251.93 382.714,251.138 384.394,250.333 385.433,250.032 387.484,249.831 387.785,249.856 389.019,250.103 389.274,250.184 390.726,250.889 390.937,251.032 392.177,252.176 392.345,252.386 393.087,253.597 393.215,253.88 393.344,254.254 393.829,253.865 394.037,253.736 395.257,253.168 395.488,253.092 396.69,252.84 396.942,252.815 399.478,253.146 400.455,253.512 402.217,254.571 403.184,255.426 403.817,256.084 404.779,257.262 404.983,257.529 405.936,258.848 406.211,259.223 407.215,258.449 408.485,257.426 408.595,257.34 409.803,256.416 409.931,256.327 407.223,255.288 401.862,253.782 396.473,252.278 395.927,252.094 391.114,250.204 389.926,249.564 386.048,246.832 384.548,245.265 382.496,242.069 " fill="none" stroke-width="0.5" stroke="rgb(0,0,0)" />
	<polygon points="445.401,250.711 446.576,253.623 446.578,253.628 447.932,256.993 447.961,257.067 448.686,258.946 448.923,258.5 448.993,258.371 450.675,255.389 450.726,255.301 451.528,253.939 451.26,253.803 451.066,253.701 447.611,251.783 447.279,251.583 445.226,250.252 " fill="none" stroke-width="0.5" stroke="rgb(0,0,0)" />
	<polygon points="313.017,223.973 312.005,224.406 310.147,224.994 309.025,225.227 307.162,225.42 308.065,228.211 309.43,229.747 311.904,231.219 315.464,232.765 315.672,232.861 319.472,234.698 320.487,235.329 323.751,237.874 325.124,239.426 327.409,243.241 328.087,245.125 328.499,244.799 329.616,244.101 330.579,243.62 331.747,243.17 332.616,242.913 333.764,242.672 334.102,242.625 334.042,242.553 333.436,241.656 332.322,239.608 331.891,238.589 331.186,236.328 330.959,235.217 330.79,233.55 329.969,233.805 328.86,234.032 327.455,234.174 326.312,234.173 324.917,234.031 323.803,233.802 322.5,233.394 321.481,232.962 320.299,232.316 319.405,231.711 318.372,230.857 317.616,230.099 316.762,229.065 316.157,228.17 315.512,226.984 315.081,225.966 314.672,224.656 314.444,223.544 314.41,223.21 " fill="none" stroke-width="0.5" stroke="rgb(0,0,0)" />
	<polygon points="463.961,216.862 463.927,217.255 463.59,220.036 463.559,220.26 463.083,223.201 463.064,223.309 462.519,226.31 462.516,226.323 461.978,229.242 461.527,231.915 461.231,234.185 461.136,235.837 461.216,236.866 461.436,237.839 461.629,238.355 461.825,238.136 463.316,235.998 464.737,233.399 465.901,230.532 466.664,227.588 466.927,224.763 466.358,219.658 464.912,215.701 464.083,214.457 " fill="none" stroke-width="0.5" stroke="rgb(0,0,0)" />
	<polygon points="103.815,234.686 103.475,238.247 105.53,235.723 103.986,234.989 103.815,234.672 " fill="none" stroke-width="0.5" stroke="rgb(0,0,0)" />
	<polygon points="380.874,225.559 379.871,226.775 379.107,227.54 377.892,228.543 377.27,228.962 377.753,229.275 378.757,230.073 379.533,230.821 380.17,231.563 380.274,230.076 380.341,229.517 380.699,227.434 380.761,227.123 381.249,225.003 " fill="none" stroke-width="0.5" stroke="rgb(0,0,0)" />
	<polygon points="47.5975,226.379 47.0976,226.59 44.5701,227.52 43.9644,227.703 44.0861,227.757 44.4486,227.977 45.5895,228.888 45.8724,229.182 46.6862,230.258 46.8956,230.617 47.0393,230.932 48.5119,225.984 48.5358,225.927 " fill="none" stroke-width="0.5" stroke="rgb(0,0,0)" />
	<polygon points="86.3431,211.035 84.3554,213.341 83.7904,213.716 83.718,213.759 84.4488,214.19 85.0203,214.638 85.9536,215.565 86.4164,216.147 87.0129,217.067 87.3691,217.755 87.7204,218.592 87.9723,219.36 88.1621,220.109 88.3117,220.93 88.3935,221.614 88.4429,222.462 88.4123,223.463 88.1196,225.904 88.4038,225.578 89.0877,224.915 89.8243,224.313 90.8962,223.622 91.633,223.258 93.2019,222.751 93.9309,222.628 95.6538,222.606 96.2976,222.696 97.8142,223.132 98.4259,223.405 99.686,224.18 100.249,224.638 101.156,225.568 101.649,226.206 101.639,225.933 101.636,225.797 101.627,225.133 101.642,224.645 101.945,220.568 102.07,219.734 102.911,216.033 103.151,215.247 104.221,212.481 102.055,213.265 100.75,213.569 97.752,213.899 96.5069,213.898 93.3177,213.542 92.0504,213.249 89.1862,212.23 88.0302,211.663 86.4019,210.619 " fill="none" stroke-width="0.5" stroke="rgb(0,0,0)" />
	<polygon points="450.782,206.417 448.973,207.069 446.142,208.247 446.038,208.289 442.45,209.699 442.14,209.811 437.831,211.221 437.393,211.345 432.272,212.576 431.76,212.674 425.738,213.544 425.196,213.596 419.398,213.869 420.074,214.052 421.068,214.425 425.513,216.586 426.65,217.319 430.343,220.383 431.222,221.297 434.145,225.116 435.756,221.371 436.297,220.392 438.82,216.738 439.357,216.074 442.341,212.906 442.841,212.435 445.972,209.832 446.468,209.464 449.429,207.505 450.026,207.161 451.69,206.332 451.454,206.304 " fill="none" stroke-width="0.5" stroke="rgb(0,0,0)" />
	<polygon points="63.6872,215.606 62.2427,216.802 62.5233,216.883 63.1677,217.179 64.602,218.125 65.1189,218.592 66.0748,219.718 66.4745,220.337 66.9906,221.346 67.2835,222.097 67.5288,222.894 67.7253,223.755 67.8293,224.361 67.887,224.859 68.8975,222.372 69.2611,221.635 71.9257,217.101 73.0433,215.94 71.7168,215.83 70.7541,215.665 68.6824,215.123 67.7114,214.771 65.841,213.893 64.8995,213.334 64.7895,213.253 " fill="none" stroke-width="0.5" stroke="rgb(0,0,0)" />
	<polygon points="184.399,210.725 185.347,211.599 187.319,213.887 188.087,215.036 189.296,217.437 189.734,218.622 190.186,220.448 190.482,219.831 193.356,218.161 196.692,218.704 196.17,217.819 195.573,215.658 194.929,214.431 194.081,213.455 192.891,212.586 191.199,211.805 188.916,211.174 186.029,210.763 184.354,210.693 " fill="none" stroke-width="0.5" stroke="rgb(0,0,0)" />
	<polygon points="337.816,212.506 336.385,213.275 337.038,214.063 337.645,214.96 338.293,216.147 338.725,217.167 338.792,217.381 338.96,217.267 340.699,216.321 340.499,216.121 339.643,215.085 339.037,214.188 338.39,213 338.1,212.315 " fill="none" stroke-width="0.5" stroke="rgb(0,0,0)" />
	<polygon points="380.882,198.513 380.451,199.888 380.018,200.906 379.336,202.154 378.731,203.046 377.83,204.135 377.075,204.89 376.528,205.341 376.987,205.59 377.889,206.198 379.105,207.2 379.869,207.963 380.871,209.177 381.48,210.079 382.236,211.473 382.667,212.494 383.145,214.035 383.27,214.648 383.266,214.502 383.238,214.138 383.196,213.842 383.147,213.617 383.099,213.459 383.058,213.359 383.029,213.303 382.833,213.012 381.87,209.83 382.862,206.658 385.467,204.593 389.016,204.736 383.247,200.032 382.309,199.059 381.1,197.458 " fill="none" stroke-width="0.5" stroke="rgb(0,0,0)" />
	<polygon points="400.046,211.057 401.036,212.11 402.042,213.5 402.103,213.357 404.011,212.141 402.914,211.84 398.883,210.102 " fill="none" stroke-width="0.5" stroke="rgb(0,0,0)" />
	<polygon points="57.4104,202.602 57.0112,202.959 55.231,204.405 54.762,204.747 52.9752,205.916 52.4292,206.231 50.6505,207.129 50.0225,207.4 49.1721,207.707 49.9872,207.583 51.9699,207.226 54.0967,206.798 56.3755,206.304 58.7901,205.754 58.2424,204.022 58.0068,202.874 57.9296,202.092 " fill="none" stroke-width="0.5" stroke="rgb(0,0,0)" />
	<polygon points="114.49,200.05 114.57,200.006 114.546,199.998 114.512,199.947 " fill="none" stroke-width="0.5" stroke="rgb(0,0,0)" />
	<polygon points="124.194,196.85 123.631,196.934 123.5,196.971 123.92,196.917 124.175,196.889 124.88,196.831 124.789,196.822 " fill="none" stroke-width="0.5" stroke="rgb(0,0,0)" />
	<polygon points="355.354,196.264 355.402,196.29 355.398,196.245 " fill="none" stroke-width="0.5" stroke="rgb(0,0,0)" />
	<polygon points="60.3162,190.61 60.3627,190.651 60.4023,190.588 " fill="none" stroke-width="0.5" stroke="rgb(0,0,0)" />
	<polygon points="180.26,186.481 180.545,186.411 183.001,185.948 182.113,185.673 179.507,184.407 " fill="none" stroke-width="0.5" stroke="rgb(0,0,0)" />
	<polygon points="366.721,167.484 365.959,168.245 364.975,169.055 364.075,169.662 362.945,170.273 362.42,170.495 362.716,170.852 363.321,171.744 364.36,173.643 364.794,174.66 365.452,176.753 365.682,177.871 365.912,180.11 365.912,181.265 365.77,182.649 366.254,182.548 367.709,182.398 368.864,182.397 370.337,182.548 371.451,182.777 372.215,183.016 371.406,181.362 371.089,180.566 368.323,171.718 368.155,171.033 367.374,166.695 " fill="none" stroke-width="0.5" stroke="rgb(0,0,0)" />
	<polygon points="151.158,172.127 150.462,172.417 146.014,173.927 145.265,174.126 140.544,175.035 142.003,176.051 142.678,176.604 146.073,179.849 146.523,180.334 148.135,182.284 148.577,179.475 148.777,178.631 149.736,175.635 150.381,174.277 151.772,172.138 152.379,171.521 " fill="none" stroke-width="0.5" stroke="rgb(0,0,0)" />
	<polygon points="108.939,159.851 108.334,160.746 107.479,161.782 106.722,162.54 105.687,163.396 104.792,164.002 103.606,164.649 102.587,165.081 101.279,165.49 100.165,165.719 98.763,165.862 97.62,165.862 96.2129,165.719 95.1019,165.492 93.7892,165.083 92.7714,164.652 91.5817,164.005 90.686,163.401 90.2872,163.072 90.2431,163.201 89.3269,165.537 92.2763,165.603 95.6192,166.84 96.245,167.116 99.6205,168.854 100.208,169.204 103.469,171.419 104.049,171.87 107.047,174.536 107.625,175.132 110.214,178.225 110.766,179.011 112.433,181.88 113.11,179.713 113.539,178.698 114.581,176.78 115.374,175.666 116.761,174.149 117.923,173.178 119.673,172.077 119.954,171.947 118.145,170.912 117.139,170.178 114.246,167.534 113.46,166.647 111.238,163.536 110.692,162.59 109.216,159.342 " fill="none" stroke-width="0.5" stroke="rgb(0,0,0)" />
	<polygon points="309.518,168.573 309.358,168.938 308.859,169.971 308.117,171.125 307.528,171.834 305.306,173.31 306.335,172.988 307.449,172.76 308.849,172.617 309.992,172.617 311.399,172.759 312.51,172.986 313.823,173.395 314.035,173.485 314.144,172.949 314.53,171.704 314.959,170.686 315.353,169.96 315.279,169.951 314.844,169.88 312.64,169.431 312.252,169.338 310.404,168.824 310.091,168.727 309.533,168.536 " fill="none" stroke-width="0.5" stroke="rgb(0,0,0)" />
	<polygon points="343.842,162.663 342.905,163.442 338.799,166.165 337.842,166.674 335.158,167.788 335.873,168.653 336.481,169.552 336.51,169.606 336.851,169.195 337.604,168.442 339.264,167.071 340.155,166.468 342.054,165.431 343.07,164.999 345.162,164.342 346.279,164.112 346.418,164.098 346.145,163.453 345.758,162.208 345.532,161.098 345.515,160.935 " fill="none" stroke-width="0.5" stroke="rgb(0,0,0)" />
	<polygon points="163.635,164.078 160.047,166.965 159.602,167.288 158.129,168.253 159.952,167.941 161.991,167.966 163.719,168.304 165.112,168.772 166.005,169.208 165.967,169.134 165.694,168.527 163.912,163.837 " fill="none" stroke-width="0.5" stroke="rgb(0,0,0)" />
	<polygon points="422.312,142.464 421.268,143.714 418.526,146.165 417.554,146.865 413.938,148.922 413.132,149.3 408.771,150.939 408.106,151.143 407.443,151.303 409.089,151.268 409.715,151.289 417.048,151.949 418.143,152.158 424.562,154.055 425.605,154.48 431.291,157.492 432.121,158.029 437.253,162.031 437.82,162.538 438.032,162.755 435.223,157.433 434.788,156.353 432.942,149.916 433.006,146.592 433.416,146.015 431.688,145.561 430.851,145.269 429.172,144.531 428.169,143.962 426.81,142.995 425.754,142.019 424.744,140.813 424.035,139.665 " fill="none" stroke-width="0.5" stroke="rgb(0,0,0)" />
	<polygon points="353.39,133.129 353.453,133.426 353.727,134.92 353.776,135.241 353.943,136.584 353.98,136.997 354.036,138.117 354.018,138.936 353.392,145.537 353.152,146.711 352.762,147.943 353.405,147.672 354.653,147.285 355.76,147.06 357.101,146.925 358.233,146.925 359.572,147.06 360.68,147.285 361.927,147.672 362.948,148.102 364.077,148.714 364.978,149.322 365.962,150.133 366.725,150.896 367.032,151.267 367.093,151.143 367.144,151.06 368.083,149.915 368.14,149.86 369.591,148.874 369.653,148.845 370.676,148.541 365.667,145.605 364.803,144.983 359.467,140.314 358.784,139.602 354.536,134.319 354.002,133.526 353.095,131.897 " fill="none" stroke-width="0.5" stroke="rgb(0,0,0)" />
	<polygon points="130.883,133.596 130.178,133.915 129.494,134.286 128.909,134.657 128.513,134.949 128.135,135.284 125.109,136.659 123.605,136.4 124.159,136.956 124.924,138.578 125.344,139.834 125.822,142.127 125.866,142.362 126.266,144.791 126.716,146.669 126.991,147.261 127.367,147.01 127.851,146.569 128.403,145.895 128.988,144.93 129.594,143.544 129.911,142.579 130.236,141.454 130.513,140.336 130.742,139.236 130.92,138.165 131.047,137.136 131.122,136.16 131.147,135.259 131.107,133.96 131.06,133.534 " fill="none" stroke-width="0.5" stroke="rgb(0,0,0)" />
	<polygon points="101.704,138.093 101.561,139.498 101.333,140.61 101.212,140.998 101.278,141.012 102.586,141.421 103.604,141.852 104.79,142.499 105.685,143.104 106.72,143.959 107.477,144.716 107.767,145.067 107.991,143.766 108.09,143.31 108.547,141.545 108.748,140.921 109.254,139.616 107.642,140.015 105.327,139.373 102.69,137.984 101.704,136.965 " fill="none" stroke-width="0.5" stroke="rgb(0,0,0)" />
	<polygon points="314.828,123.084 313.263,123.506 311.886,124.148 310.695,124.969 309.707,125.917 308.946,126.923 308.435,127.898 308,129.271 306.177,131.907 307.157,132.557 308.287,133.161 309.361,133.596 310.426,133.893 311.539,134.071 312.804,134.135 313.18,134.124 313.71,134.082 314.322,134.015 314.99,133.929 315.677,133.836 315.723,133.83 316.378,133.747 316.528,133.73 317.117,133.672 317.429,133.649 317.935,133.627 318.505,133.631 319.069,133.663 319.788,133.751 320.297,133.846 321.124,134.067 321.571,134.224 322.499,134.646 322.877,134.862 323.85,135.562 324.155,135.835 325.045,136.849 325.27,137.178 325.918,138.435 326.057,138.816 326.366,140.134 326.413,140.568 326.418,141.763 326.339,142.537 326.187,143.372 326.629,143.337 329.449,142.639 330.355,142.236 329.27,141.936 327.309,139.801 326.826,138.881 326.352,138.135 325.774,137.374 325.091,136.617 324.3,135.88 323.396,135.176 322.374,134.519 321,133.804 320.583,133.589 319.858,133.143 319.496,132.88 318.825,132.31 318.524,132.011 317.95,131.341 317.708,131.011 317.254,130.279 317.07,129.924 316.743,129.165 316.614,128.791 316.411,128.036 316.335,127.65 316.24,126.917 316.215,126.525 316.234,125.583 316.312,124.84 316.508,123.841 316.732,123.072 316.787,122.925 316.7,122.921 " fill="none" stroke-width="0.5" stroke="rgb(0,0,0)" />
	<polygon points="58.5716,137.224 58.403,137.819 59.9439,137.521 60.2763,137.468 58.4573,136.88 " fill="none" stroke-width="0.5" stroke="rgb(0,0,0)" />
	<polygon points="75.9703,137.514 76.4824,137.577 76.4824,136.951 76.5079,136.7 " fill="none" stroke-width="0.5" stroke="rgb(0,0,0)" />
	<polygon points="123.345,111.926 121.758,118.272 121.733,118.37 120.006,124.786 119.896,125.148 117.979,130.744 117.586,131.634 116.658,133.323 119.398,133.575 118.763,130.531 119.172,128.885 121.015,124.454 121.404,123.69 123.746,119.837 124.271,119.11 127.054,115.839 127.704,115.191 129.797,113.416 128.568,112.486 127.83,111.818 126.328,110.195 126.079,109.907 124.586,108.059 124.458,107.902 " fill="none" stroke-width="0.5" stroke="rgb(0,0,0)" />
	<polygon points="93.6369,111.605 93.5424,111.695 91.3658,113.716 90.9934,114.032 88.7302,115.795 87.917,116.323 85.5788,117.57 84.012,118.128 81.6107,118.601 79.9181,118.676 79.0079,118.579 79.0974,119.105 79.1681,119.73 79.3568,123.045 79.3645,123.492 79.3328,124.919 79.3221,125.163 79.231,126.551 79.211,126.783 79.0668,128.13 79.0389,128.35 78.8477,129.651 78.8132,129.859 78.722,130.35 78.9409,130.026 79.7955,128.99 80.5521,128.231 81.5868,127.375 82.4822,126.768 83.6683,126.12 84.6879,125.687 85.9968,125.278 87.1119,125.049 88.515,124.906 89.6598,124.906 91.0649,125.049 92.1785,125.277 93.4894,125.687 94.5081,126.119 95.696,126.766 96.5912,127.372 97.4754,128.103 96.8637,125.388 96.7754,124.895 95.9817,118.961 95.9667,118.839 95.3159,113.008 94.9202,110.357 " fill="none" stroke-width="0.5" stroke="rgb(0,0,0)" />
	<polygon points="183.788,107.729 183.836,108.779 183.794,109.67 183.73,110.295 183.598,111.12 183.416,111.898 183.186,112.642 182.799,113.583 182.463,114.228 181.758,115.276 181.307,115.807 180.23,116.785 179.656,117.185 178.328,117.869 177.623,118.12 176.306,118.419 175.462,118.507 173.415,118.344 170.949,117.683 172.821,120.772 173.262,121.67 174.949,126.052 175.201,126.9 175.584,128.691 177.179,127.272 177.709,126.855 180.709,124.769 181.4,124.358 184.52,122.792 185.403,122.438 188.624,121.453 189.695,121.236 192.999,120.894 194.207,120.899 197.484,121.265 194.081,117.907 193.737,117.536 189.493,112.524 189.308,112.294 184.799,106.367 184.654,106.167 183.296,104.211 " fill="none" stroke-width="0.5" stroke="rgb(0,0,0)" />
	<polygon points="384.784,94.6481 378.607,99.2694 377.678,99.8341 370.73,103.186 369.759,103.549 362.26,105.591 361.271,105.767 353.44,106.457 352.521,106.463 347.226,106.065 347.183,106.058 347.329,106.221 347.671,106.775 348.229,107.978 348.458,108.675 348.656,109.466 348.795,110.263 348.807,110.36 348.839,110.31 349.37,109.598 349.529,109.416 350.029,108.913 350.206,108.756 350.581,108.452 350.769,108.311 350.966,108.171 351.16,108.039 352.515,107.363 353.696,106.961 354.943,106.688 356.784,106.5 357.08,106.477 359.476,106.359 362.266,106.173 365.377,105.794 368.815,105.096 372.57,103.95 376.75,102.163 377.172,101.948 377.493,101.798 378.08,101.545 378.409,101.415 378.992,101.206 379.329,101.097 379.906,100.93 380.248,100.842 380.817,100.715 381.164,100.649 381.723,100.561 382.073,100.517 382.62,100.465 382.973,100.443 383.505,100.426 384.536,100.488 386.501,100.788 388.402,101.44 389.819,102.231 391.196,103.309 392.24,104.428 392.827,105.174 393.673,106.456 393.715,106.52 394.242,107.345 394.601,107.311 395.749,107.04 397.201,106.565 398.849,105.944 400.566,105.28 400.71,105.226 402.361,104.638 402.765,104.511 404.284,104.095 405.119,103.933 406.465,103.775 409.004,104.059 411.045,104.78 412.984,105.944 415.127,107.91 415.871,108.742 418,111.659 418.367,112.229 420.367,115.801 420.597,116.258 422.353,120.19 422.528,120.63 423.925,124.628 424.08,125.148 424.686,127.625 425.304,126.8 426.094,125.945 427.103,125.056 427.37,124.868 426.556,124.309 425.664,123.551 424.757,122.599 424.053,121.692 423.262,120.426 422.808,119.53 422.303,118.268 422.093,117.635 421.721,116.249 421.648,115.945 421.343,114.489 421.34,114.476 421.063,113.141 420.803,112.137 420.582,111.548 420.489,111.392 420.017,110.914 418.48,107.967 418.866,104.666 420.815,102.414 419.909,102.451 419.621,102.455 416.334,102.423 416.224,102.42 412.891,102.322 412.783,102.318 409.414,102.154 409.308,102.148 405.911,101.919 405.806,101.911 402.39,101.617 402.285,101.607 398.86,101.247 398.754,101.235 395.328,100.811 395.221,100.797 391.803,100.307 391.726,100.295 391.251,100.221 390.778,100.125 390.393,100.03 389.679,99.8036 389.376,99.6843 388.39,99.1809 388.159,99.033 387.041,98.0911 386.876,97.9104 385.984,96.6103 385.876,96.3927 385.427,95.1336 385.368,94.8748 385.272,94.1989 " fill="none" stroke-width="0.5" stroke="rgb(0,0,0)" />
	<polygon points="348.304,120.575 348.21,121.066 347.834,122.638 349.398,123.848 348.589,121.487 348.333,120.38 " fill="none" stroke-width="0.5" stroke="rgb(0,0,0)" />
	<polygon points="144.66,101.75 144.084,104.975 143.984,105.423 143.563,107.019 144.505,106.805 145.345,106.679 149.475,106.377 150.523,106.398 155.084,106.914 154.864,106.73 154.826,106.698 150.386,102.903 146.483,99.7647 145.184,98.9076 " fill="none" stroke-width="0.5" stroke="rgb(0,0,0)" />
	<polygon points="326.601,98.8064 326.079,99.5604 327.699,99.8925 328.417,100.09 331.158,101.041 331.773,101.296 334.018,102.386 334.482,102.639 336.278,103.729 336.53,103.891 337.056,104.25 337.085,104.235 337.293,104.131 337.888,103.851 338.219,103.716 336.829,103.224 336.327,103.019 332.678,101.318 332.353,101.154 329.245,99.4531 329.133,99.3901 327.037,98.1803 " fill="none" stroke-width="0.5" stroke="rgb(0,0,0)" />
	<polygon points="432.004,101.928 431.464,101.976 429.047,102.076 429.847,102.122 430.765,102.15 431.686,102.161 432.376,102.163 434.714,101.977 436.992,101.493 438.477,101.036 " fill="none" stroke-width="0.5" stroke="rgb(0,0,0)" />
	<polygon points="70.003,92.1945 64.9524,94.8527 61.1362,96.9581 62.8457,97.1943 64.4384,97.6604 67.8209,99.2201 69.1463,100.074 70.633,101.357 70.8667,99.3204 70.877,99.2363 71.165,97.0209 71.1661,97.0128 71.4495,94.8572 71.6869,92.859 71.8185,91.386 " fill="none" stroke-width="0.5" stroke="rgb(0,0,0)" />
	<polygon points="395.957,78.9179 395.482,80.0185 392.394,85.4823 393.954,84.5903 395.486,83.4346 396.579,82.1885 397.276,80.7324 397.616,78.3468 397.581,77.4035 397.453,76.1346 397.263,74.8552 397.248,74.7735 " fill="none" stroke-width="0.5" stroke="rgb(0,0,0)" />
	<polygon points="172.559,76.865 173.387,78.8178 173.973,78.0651 174.099,77.9304 174.99,77.1617 175.139,77.0577 175.375,76.9314 173.335,76.283 172.253,75.9993 " fill="none" stroke-width="0.5" stroke="rgb(0,0,0)" />
	<polygon points="112.304,77.8787 112.378,78.2862 112.992,77.0578 112.407,76.8554 111.942,76.5789 " fill="none" stroke-width="0.5" stroke="rgb(0,0,0)" />
	<polygon points="125.955,60.3987 125.198,63.5442 124.464,67.0273 124.387,67.3477 123.54,70.4548 123.099,71.5805 122.532,72.6675 123.447,72.9932 125.635,74.4105 127.017,75.8551 127.48,76.4499 127.524,75.2713 127.543,74.9713 127.644,73.8689 127.713,73.3627 127.884,72.4244 128.101,71.5989 128.363,70.8409 128.984,69.5777 129.353,69.0162 130.822,67.5013 131.318,67.1525 132.38,66.7044 131.27,65.2967 131.119,65.0954 129.383,62.6794 127.718,60.4744 126.448,59.0858 " fill="none" stroke-width="0.5" stroke="rgb(0,0,0)" />
	<polygon points="105.712,58.5558 104.188,59.6044 102.409,61.0535 100.55,62.6453 100.409,62.7618 98.6278,64.1897 98.0859,64.574 96.468,65.584 95.053,66.2001 95.1787,66.4471 95.5743,67.451 95.7637,68.1103 95.9283,68.8841 96.036,69.6506 96.0866,70.2153 96.1207,71.0853 96.1134,71.6697 95.9861,73.6457 95.9339,74.1299 95.8199,74.8816 96.0425,74.5977 96.7081,73.8853 98.7973,72.0043 100.727,70.8649 102.785,70.1515 106.107,70.0348 107.88,70.8968 107.783,70.5797 107.552,69.3863 107.287,66.2245 107.272,65.9881 107.128,62.5164 106.841,59.5196 106.481,58.1873 " fill="none" stroke-width="0.5" stroke="rgb(0,0,0)" />
	<polygon points="145.702,69.7271 145.418,69.9754 144.738,70.4569 147.211,72.4758 146.036,69.373 " fill="none" stroke-width="0.5" stroke="rgb(0,0,0)" />
	<polygon points="399.635,59.2616 399.631,60.3148 399.407,62.6365 400.026,62.2545 400.263,62.1375 401.227,61.767 401.481,61.6952 402.495,61.5062 402.758,61.4818 405.344,61.8479 406.454,62.2833 408.006,63.201 409.384,64.3488 409.707,64.6395 411.341,66.2278 413.128,67.905 414.985,69.3968 416.891,70.554 418.827,71.2822 421.132,71.5732 421.486,71.5566 422.198,71.4484 422.857,71.2556 423.346,71.014 423.652,70.7649 423.893,70.432 424.152,69.7289 424.242,68.869 423.691,67.0381 421.812,65.0982 418.056,62.8761 413.166,60.8502 407.971,59.1276 403.277,57.6854 403.011,57.5965 399.649,56.3782 399.358,56.2098 " fill="none" stroke-width="0.5" stroke="rgb(0,0,0)" />
	<polygon points="84.5107,61.1208 83.1198,62.6433 83.4689,62.5179 84.4736,62.2581 85.0743,62.1605 85.0455,62.0821 84.751,60.8231 " fill="none" stroke-width="0.5" stroke="rgb(0,0,0)" />
	<polygon points="162.315,45.0275 162.268,45.4457 161.918,46.863 161.785,47.2054 161.019,48.5719 160.812,48.8446 159.934,49.734 160.308,49.8333 160.678,49.9451 164.057,51.0936 164.212,51.1489 167.743,52.4654 167.748,52.467 171.198,53.7563 172.067,54.0539 170.482,52.2818 166.685,48.4536 162.787,44.579 162.645,44.4331 162.155,43.9094 " fill="none" stroke-width="0.5" stroke="rgb(0,0,0)" />
	<polygon points="143.507,50.1769 144.211,52.0324 144.861,53.5374 144.946,53.3508 145.342,52.6637 146.138,51.5962 146.665,51.0408 147.612,50.2707 147.325,50.192 145.747,49.7715 144.314,49.4392 143.249,49.2601 " fill="none" stroke-width="0.5" stroke="rgb(0,0,0)" />
	<polygon points="90.4665,47.3851 88.6053,47.6955 87.5491,47.874 88.0677,48.681 88.4336,51.4853 88.7569,51.0486 88.879,50.8897 90.5969,48.7337 91.8057,47.1879 " fill="none" stroke-width="0.5" stroke="rgb(0,0,0)" />
	<polygon points="445.031,40.1537 444.423,41.9838 443.942,43.7561 443.627,45.5207 443.512,47.3536 443.553,47.9914 443.648,48.4316 443.736,48.6484 443.755,48.6762 443.797,48.6999 444.122,48.794 444.69,48.8424 444.868,48.8173 445.039,48.5221 445.349,47.6207 445.617,46.2592 445.783,44.5557 445.836,42.6178 445.804,41.0174 445.716,39.4801 445.628,38.4607 " fill="none" stroke-width="0.5" stroke="rgb(0,0,0)" />
	<polygon points="73.1866,37.1101 72.884,37.3134 69.4486,39.4632 69.4401,39.4685 66.1502,41.5191 65.9801,41.6401 66.2009,41.681 70.7674,42.1573 71.9977,42.2751 71.9689,42.0814 72.6784,38.4021 73.4368,37.1033 74.0346,36.5 " fill="none" stroke-width="0.5" stroke="rgb(0,0,0)" />
</svg>
