<?xml version="1.0" standalone="no" ?>
<!DOCTYPE svg PUBLIC "-//W3C//DTD SVG 1.1//EN" "http://www.w3.org/Graphics/SVG/1.1/DTD/svg11.dtd">
<svg width="500px" height="500px" xmlns="http://www.w3.org/2000/svg" version="1.1" >
	<polygon points="462.773,280.78 462.001,294.54 459.706,309.03 455.802,324.438 450.26,340.427 443.067,356.68 434.218,372.895 423.712,388.782 411.554,404.063 397.745,418.472 382.282,431.755 365.153,443.668 346.332,453.974 325.772,462.438 303.413,468.815 279.178,472.847 252.977,474.258 227.458,472.927 203.73,469.109 181.756,463.053 161.48,454.994 142.859,445.15 125.861,433.737 110.469,420.965 96.6817,407.053 84.5036,392.227 73.9455,376.722 65.0194,360.785 57.7354,344.67 52.0985,328.644 48.106,312.985 45.7419,297.983 44.9405,283.41 44.9405,37.4877 50.0124,37.4488 61.5041,37.3606 61.5041,37.3606 72.9957,37.2724 84.4874,37.1842 95.9791,37.0961 95.9791,37.0961 118.962,36.9197 130.454,36.8315 141.946,36.7434 153.437,36.6552 164.929,36.567 176.421,36.4788 187.912,36.3907 192.671,36.3541 192.657,43.9269 192.631,56.8256 192.606,69.7244 192.606,69.7244 192.58,82.6232 192.529,108.421 192.529,108.421 192.504,121.32 192.453,147.117 192.453,147.117 192.428,160.016 192.402,172.915 192.402,172.915 192.377,185.814 192.351,198.712 192.326,211.611 192.326,211.611 192.3,224.51 192.301,224.685 192.388,235.979 192.39,236.114 192.554,246.931 192.559,247.177 192.856,257.483 192.871,257.859 193.356,267.62 193.39,268.151 194.118,277.336 194.19,278.055 195.217,286.628 195.356,287.578 196.736,295.507 196.995,296.736 198.784,303.986 199.244,305.543 201.498,312.082 202.282,313.994 205.056,319.788 206.325,322.017 209.674,327.033 211.576,329.418 215.555,333.623 218.117,335.862 222.782,339.222 225.801,340.98 231.207,343.461 234.309,344.555 240.512,346.124 243.348,346.605 250.402,347.23 251.947,329.779 253.152,347.257 260.413,346.756 263.264,346.329 269.611,344.851 272.788,343.793 278.283,341.375 281.423,339.6 286.128,336.278 288.807,333.962 292.785,329.773 294.762,327.286 298.075,322.267 299.37,319.95 302.08,314.137 302.861,312.168 305.028,305.599 305.472,304.015 307.161,296.726 307.401,295.495 308.672,287.522 308.796,286.587 309.712,277.967 309.773,277.275 310.395,268.045 310.422,267.551 310.813,257.748 310.823,257.415 311.046,247.076 311.049,246.88 311.164,236.04 311.165,235.96 311.235,224.657 311.235,224.509 311.209,211.611 311.157,185.813 311.132,172.914 311.132,172.914 311.106,160.015 311.054,134.218 311.054,134.218 311.028,121.319 310.951,82.6227 310.951,82.6226 310.925,69.7239 310.857,36.0989 316.394,36.0634 316.394,36.0634 328.147,35.9878 339.9,35.9122 351.654,35.8367 351.654,35.8367 363.407,35.7611 375.16,35.6855 386.913,35.61 410.42,35.4589 422.173,35.3833 433.926,35.3077 457.433,35.1566 462.773,35.1223 " fill="none" stroke-width="0.5" stroke="rgb(0,0,0)" />
</svg>
