<?xml version="1.0" standalone="no" ?>
<!DOCTYPE svg PUBLIC "-//W3C//DTD SVG 1.1//EN" "http://www.w3.org/Graphics/SVG/1.1/DTD/svg11.dtd">
<svg width="500px" height="500px" xmlns="http://www.w3.org/2000/svg" version="1.1" >
	<polygon points="470.023,280.983 469.219,295.312 466.815,310.491 462.754,326.52 457.012,343.086 449.575,359.89 440.434,376.638 429.584,393.046 417.019,408.838 402.736,423.742 386.725,437.495 368.975,449.841 349.462,460.526 328.154,469.297 305.007,475.899 279.97,480.065 252.983,481.518 226.691,480.147 202.186,476.204 179.447,469.937 158.438,461.586 139.134,451.382 121.514,439.551 105.568,426.319 91.2941,411.917 78.6944,396.577 67.7747,380.541 58.5415,364.055 51,347.371 45.1527,330.747 40.9971,314.448 38.5231,298.748 37.6905,283.609 37.6905,30.2931 38.4651,30.2872 49.9568,30.199 61.4484,30.1108 61.4484,30.1108 72.9401,30.0226 84.4318,29.9345 95.9235,29.8463 95.9235,29.8463 107.415,29.7581 118.907,29.6699 130.398,29.5818 141.89,29.4936 164.874,29.3172 176.365,29.2291 187.857,29.1409 199.936,29.0482 199.932,31.0423 199.932,31.0424 199.906,43.9411 199.881,56.8399 199.856,69.7387 199.856,69.7387 199.83,82.6375 199.779,108.435 199.779,108.435 199.754,121.334 199.703,147.132 199.703,147.132 199.678,160.03 199.652,172.929 199.652,172.929 199.627,185.828 199.601,198.727 199.576,211.625 199.576,211.626 199.55,224.524 199.551,224.629 199.638,235.924 199.639,236.004 199.803,246.821 199.806,246.968 200.103,257.274 200.112,257.499 200.597,267.261 200.618,267.579 201.346,276.763 201.388,277.193 202.415,285.766 202.499,286.335 203.879,294.263 204.034,294.998 205.823,302.249 206.098,303.18 208.352,309.72 208.821,310.863 211.595,316.658 212.354,317.991 215.703,323.007 216.842,324.434 220.821,328.639 222.354,329.979 227.019,333.339 228.825,334.39 234.232,336.872 236.087,337.526 242.29,339.096 243.987,339.384 251.042,340.008 251.947,329.779 252.654,340.024 259.914,339.524 261.62,339.268 267.967,337.79 269.868,337.157 275.363,334.739 277.242,333.677 281.947,330.355 283.55,328.969 287.528,324.78 288.711,323.292 292.024,318.273 292.799,316.887 295.509,311.074 295.976,309.896 298.144,303.327 298.409,302.379 300.098,295.09 300.242,294.353 301.513,286.38 301.587,285.821 302.503,277.201 302.539,276.787 303.162,267.557 303.178,267.261 303.569,257.458 303.575,257.26 303.797,246.92 303.799,246.803 303.914,235.963 303.915,235.915 303.985,224.612 303.985,224.524 303.959,211.625 303.933,198.726 303.907,185.828 303.882,172.929 303.882,172.929 303.856,160.03 303.804,134.232 303.804,134.232 303.778,121.334 303.701,82.6372 303.701,82.6372 303.675,69.7384 303.597,31.042 303.597,31.042 303.593,28.8955 304.594,28.8891 316.347,28.8135 316.347,28.8135 328.1,28.7379 339.854,28.6624 351.607,28.5868 363.36,28.5113 375.114,28.4357 386.867,28.3601 410.373,28.209 422.126,28.1335 433.88,28.0579 445.633,27.9823 457.386,27.9068 469.139,27.8312 470.023,27.8255 " fill="none" stroke-width="0.5" stroke="rgb(0,0,0)" />
	<polygon points="319.169,422.887 319.17,422.891 319.5,424.343 319.587,424.76 319.626,424.972 320.068,425.318 320.935,426.054 320.971,426.09 321.253,425.854 322.028,425.265 322.728,424.78 323.269,424.451 322.904,421.809 322.904,421.656 " fill="none" stroke-width="0.5" stroke="rgb(0,0,0)" />
	<polygon points="107.699,168.224 109.23,169.586 108.075,167.969 " fill="none" stroke-width="0.5" stroke="rgb(0,0,0)" />
	<polygon points="423.715,148.434 426.022,149.116 427.899,149.882 427.88,149.589 427.099,149.246 425.184,148.158 424.537,147.698 " fill="none" stroke-width="0.5" stroke="rgb(0,0,0)" />
</svg>
