<?xml version="1.0" standalone="no" ?>
<!DOCTYPE svg PUBLIC "-//W3C//DTD SVG 1.1//EN" "http://www.w3.org/Graphics/SVG/1.1/DTD/svg11.dtd">
<svg width="500px" height="500px" xmlns="http://www.w3.org/2000/svg" version="1.1" >
	<polygon points="480.823,30.7025 480.543,31.3056 480.368,31.8247 480.319,32.0521 480.434,33.5608 480.811,35.3919 480.823,35.4348 480.823,77.7075 479.87,79.9632 478.706,81.8892 473.391,88.3611 471.923,89.7409 465.54,94.3545 466.155,94.3609 468.641,94.8714 470.019,95.2891 472.114,96.1412 473.539,96.8994 475.262,98.0585 476.554,99.1465 477.923,100.578 478.925,101.872 479.958,103.542 480.616,104.871 480.823,105.414 480.823,122.118 480.097,123.755 480.823,124.352 480.823,189.647 478.606,192.213 477.027,193.287 473.327,194.613 473.247,194.607 473.583,194.887 474.397,195.67 478.399,200.111 479.267,201.275 480.823,203.824 480.823,244.781 478.821,248.189 478.432,248.787 475.207,253.285 476.287,253.397 478.106,253.81 479.365,254.258 480.823,255.004 480.823,281.286 480.157,293.16 479.493,294.191 478.997,294.878 476.419,298.066 475.785,298.761 472.827,301.636 472.503,301.82 472.693,302.067 473.413,303.198 475.328,306.866 475.79,307.937 477.234,312.116 477.394,312.709 473.11,329.62 467.07,347.047 459.27,364.67 455.791,371.045 454.662,371.7 450.732,371.779 449.106,370.92 449.167,371.228 449.871,378.79 449.806,380.763 449.533,382.458 438.331,399.399 425.161,415.952 410.17,431.593 401.817,438.769 401.508,438.717 399.458,438.074 397.965,437.369 396.596,436.542 396.15,436.206 396.233,437.292 396.137,439.241 395.227,444.43 393.345,446.047 374.668,459.037 354.126,470.285 331.702,479.516 324.01,481.71 322.426,481.26 320.966,480.682 318.303,479.305 316.959,478.425 314.76,476.639 313.629,475.511 312.677,474.345 312.83,474.631 313.458,476.176 313.584,476.615 313.826,477.785 313.882,478.224 313.942,478.977 313.955,479.391 313.687,481.684 313.289,483.156 312.341,485.038 307.382,486.452 281.151,490.817 267.118,491.573 266.67,491.264 264.844,489.773 263.903,488.864 263.762,488.703 262.673,489.257 262.232,489.465 258.067,491.271 257.609,491.452 255.549,492.196 252.993,492.333 225.548,490.902 199.887,486.773 181.476,481.699 179.15,480.046 175.194,477.268 172.18,475.572 170.32,475.036 167.342,474.742 163.21,474.512 162.733,474.471 161.15,474.286 153.907,471.407 133.585,460.665 132.929,460.224 129.75,457.143 127.703,453.788 127.606,451.47 127.535,451.476 125.986,451.462 118.703,450.672 115.039,448.212 98.2672,434.295 83.2685,419.161 70.8284,404.016 70.4671,401.125 70.4314,399.526 70.6128,397.255 68.3918,397.192 64.9441,395.122 63.9196,394.068 58.5824,386.23 48.8916,368.927 40.9666,351.394 34.8057,333.879 34.3199,331.973 34.3654,331.543 34.6749,330.042 37.6432,320.481 38.0902,319.356 40.8669,313.686 37.6385,313.62 35.6694,313.001 32.4752,311.064 30.6566,309.245 29.3363,307.491 28.8204,306.557 27.7694,299.888 26.8905,283.906 26.8905,238.27 27.1593,237.35 27.4962,236.42 29.1578,232.602 30.0688,231.033 31.2762,229.419 30.3848,229.061 28.4663,227.956 26.8905,226.722 26.8905,166.277 27.5858,163.344 27.8351,162.504 29.4072,158.122 29.9104,157.003 32.3369,152.57 33.18,151.329 35.7638,148.213 34.0997,147.727 32.6839,147.159 30.3977,145.972 29.0997,145.127 27.114,143.533 26.8905,143.313 26.8905,111.714 27.6562,110.95 28.573,110.165 30.4924,108.763 30.9368,108.487 29.9474,108.002 29.4626,107.702 28.0757,106.611 27.6806,106.221 26.8905,105.224 26.8905,91.6633 27.3895,90.6295 29.478,87.4726 27.1419,86.6916 26.8905,86.5575 26.8905,41.977 27.4356,41.5148 31.3263,38.6656 31.7079,38.403 36.168,35.5249 36.2719,35.459 36.781,35.1417 34.6347,34.5979 34.2036,34.4755 30.4531,33.2939 29.2696,32.812 26.8905,31.609 26.8905,19.5757 38.3822,19.4875 49.8739,19.3993 61.3656,19.3111 72.8572,19.223 84.3489,19.1348 95.8406,19.0466 107.332,18.9584 115.767,18.8937 116.382,19.578 116.569,19.794 117.756,21.217 118.283,21.7093 118.3,21.7177 118.805,21.7905 119.269,21.724 119.365,21.6762 119.988,21.1289 121.261,19.7241 121.463,19.5093 122.113,18.845 130.316,18.7821 141.807,18.6939 153.299,18.6057 156.513,18.5811 157.505,21.8491 159.4,20.4823 160.782,19.6849 163.364,18.5285 164.791,18.5175 176.282,18.4294 187.774,18.3412 210.757,18.1648 210.736,28.8042 210.225,29.3658 210.735,29.5218 210.732,31.0636 210.706,43.9624 210.681,56.8612 210.68,57.1682 209.259,57.709 208.242,57.8901 208.197,57.8909 210.445,60.4682 210.673,60.7687 210.656,69.76 210.63,82.6588 210.626,85.0005 209.908,85.3845 209.038,85.7482 207.755,86.1593 206.752,86.388 205.558,86.5651 204.429,86.6445 203.083,86.6235 201.617,86.4743 204.118,88.4157 204.326,88.5831 208.621,92.1584 208.887,92.3896 210.608,93.958 210.579,108.456 210.554,121.355 210.548,124.227 209.604,124.848 209.833,125.052 210.545,125.856 210.503,147.153 210.478,160.052 210.452,172.95 210.447,175.671 210.369,175.846 208.981,178.395 208.234,179.523 206.452,181.765 205.462,182.801 203.321,184.666 202.077,185.553 201.448,185.915 201.673,186.014 202.958,186.727 205.356,188.371 206.569,189.397 208.541,191.442 209.579,192.781 210.41,194.134 210.401,198.748 210.376,211.647 210.366,216.833 210.257,217.056 210.065,217.422 209.303,218.794 209.114,219.116 208.288,220.448 206.375,222.277 206.377,222.278 209.113,224.81 209.681,225.393 210.363,226.169 210.438,235.84 210.602,246.657 210.899,256.963 211.181,262.646 210.64,263.35 210.465,263.57 208.272,266.224 206.729,268.276 206.142,269.373 206.126,269.457 206.136,269.511 206.441,270.005 207.713,271.292 209.909,273.141 210.045,273.258 212.041,275.02 212.112,275.909 213.138,284.482 214.519,292.41 216.308,299.661 218.563,306.2 221.336,311.994 224.685,317.011 228.665,321.215 233.33,324.575 238.737,327.056 244.939,328.626 249.257,329.008 249.902,330.063 251.411,333.187 251.901,334.484 252.428,336.363 254.55,332.382 255.369,331.145 257.192,328.886 259.171,328.749 265.518,327.271 271.013,324.853 275.719,321.532 279.698,317.343 283.01,312.324 285.72,306.511 287.888,299.942 289.576,292.653 290.848,284.68 291.763,276.06 292.226,269.21 292.257,269.171 293.121,268.31 294.584,267.163 295.595,266.548 297.059,265.878 293.971,263.228 292.594,261.63 292.778,257.028 293,246.688 293.115,235.848 293.179,225.592 294.526,222.984 294.44,222.913 293.4,221.873 293.179,221.605 293.159,211.647 293.133,198.748 293.132,198.166 293.398,197.845 294.435,196.806 295.913,195.579 297.142,194.742 297.8,194.381 297.586,194.122 296.746,192.88 296.098,191.693 295.498,190.278 295.089,188.969 294.771,187.421 294.628,186.018 294.628,184.425 294.771,183.024 295.089,181.475 295.499,180.167 296.099,178.752 296.747,177.566 297.588,176.324 298.443,175.289 298.446,175.287 297.873,175.043 295.605,173.572 294.193,172.261 293.078,170.967 293.056,160.052 293.004,134.254 292.993,128.977 294.389,127.684 294.375,127.634 294.288,127.305 294.109,126.56 294.032,126.207 293.886,125.446 293.822,125.064 293.712,124.291 293.665,123.877 293.596,123.095 293.569,122.645 293.546,121.859 293.57,120.956 293.821,118.013 294.042,116.715 294.811,113.739 295.27,112.442 296.584,109.564 297.331,108.271 299.217,105.623 299.5,105.303 299.398,105.335 296.954,105.706 296.718,105.705 296.282,105.689 296.091,105.677 294.92,105.515 294.769,105.482 292.945,104.792 292.905,84.9027 293.628,83.5839 294.293,82.3666 293.517,82.2328 292.899,82.0558 292.875,69.76 292.859,61.955 293.468,61.5372 293.406,61.5065 292.858,61.212 292.819,41.8068 293.031,41.6867 293.258,41.5631 294.302,41.0167 294.219,40.8885 292.813,38.8274 292.797,31.0636 292.771,18.1648 304.171,18.0916 305.598,18.8267 305.758,18.9114 308.269,20.279 308.378,19.6163 308.551,18.8094 308.754,18.0621 316.278,18.0137 328.031,17.9382 339.784,17.8626 351.538,17.787 363.291,17.7115 375.044,17.6359 377.202,17.622 379.07,18.4794 380.442,19.286 386.131,23.4625 386.132,23.4584 387.703,20.5795 388.33,19.8514 390.932,17.8701 391.655,17.5291 410.304,17.4092 422.057,17.3337 433.81,17.2581 441.453,17.209 441.473,17.2195 443.039,18.3326 445.064,20.1843 445.524,20.7643 445.606,20.6055 446.501,19.2367 447.943,17.4653 448.245,17.1653 457.317,17.107 469.07,17.0314 480.823,16.9559 " fill="none" stroke-width="0.5" stroke="rgb(0,0,0)" />
	<polygon points="305.433,468.398 304.639,469.242 304.81,469.256 306.356,469.537 307.025,469.73 308.84,470.511 309.333,470.802 311.052,472.173 311.185,472.314 311.039,472.093 309.796,469.734 309.217,468.318 308.465,465.795 308.182,464.351 " fill="none" stroke-width="0.5" stroke="rgb(0,0,0)" />
	<polygon points="192.461,443.692 192.841,444.811 193.359,446.823 194.393,447.05 195.92,447.296 197.394,447.449 198.583,447.495 200.171,447.408 201.647,447.148 202.928,446.729 203.947,446.189 204.727,445.547 205.37,444.714 205.943,443.456 206.034,443.035 202.905,443.269 201.705,443.267 195.487,442.778 194.158,442.558 191.711,441.932 " fill="none" stroke-width="0.5" stroke="rgb(0,0,0)" />
	<polygon points="158.896,437.596 157.783,438.96 154.454,442.214 154.744,442.096 156.81,440.703 158.296,439.104 159.373,437.191 159.557,436.57 " fill="none" stroke-width="0.5" stroke="rgb(0,0,0)" />
	<polygon points="316.623,420.62 315.319,420.898 315.481,421.196 315.975,422.493 316.293,423.545 316.624,424.998 316.687,425.301 316.934,426.629 316.941,426.66 317.667,427.182 318.159,427.568 319.026,428.303 319.904,429.176 320.637,430.031 320.806,430.284 321.041,430.034 321.324,429.749 322.039,429.065 322.436,428.71 323.144,428.118 323.707,427.69 324.407,427.205 325.215,426.715 325.905,426.351 326.892,425.927 326.497,425.176 326.148,423.934 325.854,421.809 325.854,417.578 " fill="none" stroke-width="0.5" stroke="rgb(0,0,0)" />
	<polygon points="166.459,413.506 166.464,414.65 166.144,419.334 166.141,419.35 166.615,419.141 170.058,419.645 170.037,419.027 170.069,418.66 170.371,417.089 170.467,416.77 171.201,415.08 171.358,414.81 172.447,413.381 172.069,413.204 169.433,411.822 168.819,411.464 166.392,409.897 166.165,409.735 " fill="none" stroke-width="0.5" stroke="rgb(0,0,0)" />
	<polygon points="259.383,403.398 259.107,404.329 258.524,405.762 258.179,406.415 258.653,406.625 261.512,408.052 262.022,408.331 264.805,409.987 265.231,410.26 267.848,412.056 268.237,412.341 270.602,414.186 270.998,414.517 273.021,416.323 273.227,416.523 273.975,416.394 274.302,416.344 275.636,416.172 275.945,416.138 276.677,416.073 268.917,411.48 267.59,410.493 260.489,403.937 259.495,402.818 " fill="none" stroke-width="0.5" stroke="rgb(0,0,0)" />
	<polygon points="350.32,395.692 349.596,396.901 348.829,397.954 352.853,397.729 353.575,397.722 353.618,397.724 353.549,397.663 352.57,396.544 351.76,395.435 351.028,394.224 " fill="none" stroke-width="0.5" stroke="rgb(0,0,0)" />
	<polygon points="309.119,394.612 308.533,394.784 306.259,395.357 307.515,395.305 309.595,395.031 309.365,394.71 309.314,394.546 " fill="none" stroke-width="0.5" stroke="rgb(0,0,0)" />
	<polygon points="203.833,391.591 204.318,392.672 204.85,394.147 205.743,392.827 207.553,390.932 209.334,389.603 207.208,389.792 205.653,389.775 202.669,389.446 " fill="none" stroke-width="0.5" stroke="rgb(0,0,0)" />
	<polygon points="243.242,374.696 243.675,374.985 244.963,376.064 245.706,376.836 245.798,376.95 246.266,376.963 246.749,377.012 246.231,375.1 245.989,373.748 245.769,371.299 " fill="none" stroke-width="0.5" stroke="rgb(0,0,0)" />
	<polygon points="83.6203,367.629 82.7787,367.741 81.835,367.808 80.2174,367.825 80.833,369.382 81.4634,373.545 83.2859,371.921 84.3043,371.153 85.9888,370.085 85.3087,369.505 84.2781,368.444 83.6234,367.629 " fill="none" stroke-width="0.5" stroke="rgb(0,0,0)" />
	<polygon points="357.611,370.538 357.56,371.025 358.63,370.658 358.94,370.566 358.393,370.21 357.586,369.56 " fill="none" stroke-width="0.5" stroke="rgb(0,0,0)" />
	<polygon points="324.62,368.548 325.915,368.464 325.035,367.889 " fill="none" stroke-width="0.5" stroke="rgb(0,0,0)" />
	<polygon points="117.811,357.994 117.399,360.184 116.948,361.71 116.945,361.718 120.536,361.393 119.707,360.468 119.039,359.498 118.044,357.483 117.895,357.025 " fill="none" stroke-width="0.5" stroke="rgb(0,0,0)" />
	<polygon points="294.297,359.121 293.804,359.277 294.67,359.919 294.842,360.05 295.669,360.7 295.648,359.762 295.7,358.656 295.715,358.481 " fill="none" stroke-width="0.5" stroke="rgb(0,0,0)" />
	<polygon points="394.123,342.452 393.433,342.948 392.411,343.601 390.415,344.512 389.58,344.76 387.928,344.896 388.778,347.305 389.155,348.94 392.844,345.848 394.728,344.679 396.78,343.777 396.177,343.051 395.999,342.829 395.102,341.665 " fill="none" stroke-width="0.5" stroke="rgb(0,0,0)" />
	<polygon points="59.1131,341.875 61.5284,345.76 61.9576,343.773 62.4762,342.199 63.4046,340.143 63.4155,340.124 62.4814,339.924 61.4224,339.617 58.9536,338.711 58.713,338.596 " fill="none" stroke-width="0.5" stroke="rgb(0,0,0)" />
	<polygon points="165.489,323.476 165.255,324.803 164.505,327.618 164.047,328.887 162.81,331.567 162.103,332.793 160.389,335.23 159.393,336.388 157.212,338.473 155.904,339.483 153.978,340.668 155.904,341.836 156.842,342.503 159.191,344.449 159.722,344.952 159.697,344.319 159.755,342.535 159.791,341.999 159.97,340.235 160.057,339.619 160.363,337.942 160.543,337.176 160.982,335.653 161.351,334.64 161.929,333.338 162.716,331.962 163.439,330.948 165.114,329.234 165.989,328.576 168.406,327.458 166.551,324.648 165.781,323.158 165.567,322.605 " fill="none" stroke-width="0.5" stroke="rgb(0,0,0)" />
	<polygon points="415.62,333.605 414.003,333.78 414.043,334.003 414.064,334.126 414.288,335.495 414.331,335.79 414.489,337.059 414.539,337.614 414.599,338.743 414.606,339.386 414.597,339.72 414.559,340.292 414.532,340.56 418.168,340.87 418.555,340.937 417.095,338.093 416.04,333.525 " fill="none" stroke-width="0.5" stroke="rgb(0,0,0)" />
	<polygon points="128.386,338.755 128.63,338.657 128.389,338.442 " fill="none" stroke-width="0.5" stroke="rgb(0,0,0)" />
	<polygon points="75.607,312.213 74.7128,315.642 74.4228,318.327 74.4494,319.272 74.5655,320.372 74.7716,321.344 74.9624,321.898 75.3832,321.213 76.299,320.003 77.7167,318.464 78.8481,317.453 80.5491,316.205 81.8373,315.438 81.8877,315.415 80.9375,314.921 79.6572,314.089 78.2281,312.948 77.1067,311.852 76.1489,310.708 " fill="none" stroke-width="0.5" stroke="rgb(0,0,0)" />
	<polygon points="384.495,314.697 383.919,316.278 383.742,317.188 383.548,319.305 383.413,321.595 383.511,321.345 384.359,318.739 384.894,316.331 385.095,313.919 385.086,313.423 " fill="none" stroke-width="0.5" stroke="rgb(0,0,0)" />
	<polygon points="350.716,321.323 350.826,321.096 350.972,320.824 350.142,320.588 349.842,320.477 " fill="none" stroke-width="0.5" stroke="rgb(0,0,0)" />
	<polygon points="343.233,314.772 342.891,315.119 343.888,315.799 343.417,314.528 " fill="none" stroke-width="0.5" stroke="rgb(0,0,0)" />
	<polygon points="133.072,307.024 133.071,307.343 134.037,307.234 134.217,307.251 134.625,307.346 134.512,307.11 132.832,304.295 " fill="none" stroke-width="0.5" stroke="rgb(0,0,0)" />
	<polygon points="162.569,298.727 161.032,299.09 159.849,299.247 158.276,299.285 158.905,300.25 159.345,301.018 162.197,306.713 162.316,304.477 162.406,303.644 162.898,300.597 163.072,299.789 163.443,298.424 " fill="none" stroke-width="0.5" stroke="rgb(0,0,0)" />
	<polygon points="434.309,295.754 434.529,295.873 434.44,295.579 " fill="none" stroke-width="0.5" stroke="rgb(0,0,0)" />
	<polygon points="458.681,289.802 457.859,290.482 456.783,291.782 459.612,292.238 459.612,292.229 459.435,291.022 459.156,289.948 459.031,289.64 " fill="none" stroke-width="0.5" stroke="rgb(0,0,0)" />
	<polygon points="86.3684,288.785 86.3143,288.89 87.1415,289.324 87.6631,289.739 87.8868,289.942 88.0789,289.008 88.3858,285.788 88.42,284.835 " fill="none" stroke-width="0.5" stroke="rgb(0,0,0)" />
	<polygon points="157.128,228.34 156.875,228.859 157.761,229.853 158.621,233.771 158.561,235.198 158.538,235.549 158.379,237.371 158.363,237.535 158.138,239.607 158.13,239.683 157.872,241.859 157.87,241.877 157.615,243.992 157.4,245.854 157.265,247.229 157.238,247.735 158.193,248.285 160.246,251.73 160.711,253.354 160.859,253.964 161.225,255.775 161.291,256.153 161.583,258.082 161.612,258.293 161.856,260.271 161.865,260.343 162.085,262.27 162.296,263.995 162.312,264.098 162.641,264.203 162.892,264.507 162.97,261.686 164.111,257.712 165.609,254.874 167.509,252.578 166.382,252.826 162.616,251.701 159.866,248.892 158.995,243.348 159.232,242.231 159.434,241.182 159.612,240.141 159.762,239.106 159.882,238.077 159.97,237.054 160.025,236.036 160.041,235.14 159.951,233.297 159.68,231.588 159.191,229.879 158.429,228.117 157.831,227.116 " fill="none" stroke-width="0.5" stroke="rgb(0,0,0)" />
	<polygon points="131.186,252.396 131.936,251.553 131.668,250.447 131.037,248.401 130.334,246.29 " fill="none" stroke-width="0.5" stroke="rgb(0,0,0)" />
	<polygon points="382.105,247.975 381.281,248.968 380.148,250.081 379.143,250.886 378.651,251.204 378.832,251.425 379.451,250.841 380.322,250.13 381.448,249.338 383.783,248.219 384.257,248.082 382.95,246.718 " fill="none" stroke-width="0.5" stroke="rgb(0,0,0)" />
	<polygon points="327.676,236.363 326.089,236.362 325.223,236.274 327.011,238.296 329.159,241.881 329.788,241.567 330.693,241.218 330.389,240.659 329.79,239.243 329.086,236.983 328.933,236.235 " fill="none" stroke-width="0.5" stroke="rgb(0,0,0)" />
	<polygon points="312.668,226.504 310.81,227.092 310.137,227.232 310.847,228.031 312.908,229.256 314.805,230.08 314.225,229.222 313.579,228.036 312.981,226.621 312.911,226.4 " fill="none" stroke-width="0.5" stroke="rgb(0,0,0)" />
	<polygon points="87.6751,214.195 88.1379,214.777 88.9666,216.056 89.3228,216.744 89.8109,217.907 90.0627,218.675 90.3266,219.715 90.4761,220.536 90.571,221.329 90.6579,221.286 92.8377,220.581 93.5667,220.459 95.9605,220.427 96.6043,220.518 98.7114,221.124 99.3231,221.397 99.662,221.605 99.7511,220.405 99.9249,219.246 100.711,215.786 97.9926,216.085 96.2627,216.084 93.0735,215.728 91.3128,215.322 88.4486,214.303 87.1341,213.658 " fill="none" stroke-width="0.5" stroke="rgb(0,0,0)" />
	<polygon points="438.515,213.312 437.907,213.484 432.786,214.715 432.075,214.851 427.81,215.468 428.055,215.625 431.748,218.689 432.969,219.96 433.609,220.795 433.735,220.502 434.487,219.142 437.009,215.488 437.755,214.566 439.124,213.113 " fill="none" stroke-width="0.5" stroke="rgb(0,0,0)" />
	<polygon points="66.0782,216.494 66.5951,216.961 67.9232,218.525 68.2446,219.023 69.1309,217.515 68.1253,217.251 66.7763,216.763 65.7689,216.29 " fill="none" stroke-width="0.5" stroke="rgb(0,0,0)" />
	<polygon points="190.052,214.047 191.261,216.447 191.339,216.659 193.347,216.151 193.1,215.68 192.583,215.085 191.771,214.492 190.44,213.878 189.826,213.708 " fill="none" stroke-width="0.5" stroke="rgb(0,0,0)" />
	<polygon points="381.948,201.961 381.266,203.209 380.426,204.449 379.939,205.037 380.504,205.502 380.931,205.929 382.8,203.584 383.677,203.221 381.995,201.851 " fill="none" stroke-width="0.5" stroke="rgb(0,0,0)" />
	<polygon points="367.871,177.646 368.101,179.885 368.101,180.209 368.673,180.209 367.87,177.642 " fill="none" stroke-width="0.5" stroke="rgb(0,0,0)" />
	<polygon points="146.721,176.011 145.681,176.286 145.555,176.31 146.822,177.522 147.377,175.788 " fill="none" stroke-width="0.5" stroke="rgb(0,0,0)" />
	<polygon points="108.124,164.235 107.089,165.091 105.845,165.933 104.659,166.58 103.244,167.181 101.935,167.59 101.791,167.62 104.705,169.599 105.51,170.226 108.509,172.892 109.312,173.72 111.901,176.813 111.99,176.94 112.648,175.729 113.75,174.183 115.137,172.665 115.93,172.003 115.655,171.802 112.762,169.158 111.67,167.926 109.448,164.815 108.751,163.608 " fill="none" stroke-width="0.5" stroke="rgb(0,0,0)" />
	<polygon points="365.58,171.288 366.289,172.585 366.223,172.374 365.99,171.422 365.924,171.056 " fill="none" stroke-width="0.5" stroke="rgb(0,0,0)" />
	<polygon points="424.186,143.618 422.734,145.353 419.993,147.805 418.641,148.777 416.962,149.732 417.245,149.758 418.766,150.048 425.186,151.945 426.635,152.536 432.259,155.515 430.827,150.522 430.75,147.556 429.966,147.283 428.286,146.545 426.894,145.755 425.534,144.787 424.216,143.569 " fill="none" stroke-width="0.5" stroke="rgb(0,0,0)" />
	<polygon points="355.666,144.858 356.881,144.736 358.453,144.736 359.793,144.871 361.331,145.184 361.89,145.357 358.018,141.97 357.069,140.981 356.143,139.829 " fill="none" stroke-width="0.5" stroke="rgb(0,0,0)" />
	<polygon points="127.102,138.203 127.498,139.385 127.936,141.488 128.11,140.884 128.368,139.847 128.579,138.831 128.743,137.85 128.806,137.333 " fill="none" stroke-width="0.5" stroke="rgb(0,0,0)" />
	<polygon points="314.02,125.581 312.983,126.065 312.09,126.68 311.356,127.383 310.811,128.105 310.473,128.748 310.098,129.935 309.305,131.2 310.072,131.51 310.897,131.741 311.768,131.88 312.826,131.933 313.061,131.926 313.504,131.892 314.061,131.831 314.702,131.748 315.383,131.656 315.447,131.648 315.516,131.639 315.301,131.293 315.117,130.938 314.664,129.883 314.535,129.51 314.252,128.46 314.176,128.074 314.045,127.056 314.02,126.664 314.042,125.575 " fill="none" stroke-width="0.5" stroke="rgb(0,0,0)" />
	<polygon points="185.77,111.467 185.518,112.548 185.288,113.291 184.75,114.6 184.414,115.245 183.435,116.701 182.984,117.231 181.487,118.591 180.913,118.99 179.068,119.941 178.363,120.192 176.533,120.608 175.689,120.695 175.206,120.657 175.315,120.88 176.821,124.792 179.452,122.963 180.413,122.392 183.533,120.825 184.76,120.334 187.981,119.349 189.468,119.048 191.919,118.794 187.814,113.946 187.558,113.626 185.795,111.31 " fill="none" stroke-width="0.5" stroke="rgb(0,0,0)" />
	<polygon points="92.8626,115.328 92.3454,115.768 90.0822,117.531 88.9522,118.265 86.6141,119.511 84.4371,120.287 82.0358,120.76 81.4317,120.786 81.5532,122.92 81.564,123.541 81.5365,124.778 82.614,124.189 84.0307,123.588 85.3396,123.178 86.8889,122.86 88.292,122.717 89.8826,122.717 91.2876,122.86 92.8349,123.177 94.1457,123.587 94.3949,123.693 93.8011,119.253 93.7803,119.083 93.3143,114.908 " fill="none" stroke-width="0.5" stroke="rgb(0,0,0)" />
	<polygon points="124.829,115.059 125.379,114.413 126.281,113.513 126.362,113.444 126.215,113.312 125.468,112.504 " fill="none" stroke-width="0.5" stroke="rgb(0,0,0)" />
	<polygon points="416.418,106.109 416.398,105.132 416.666,104.626 416.312,104.622 416.159,104.619 414.749,104.578 " fill="none" stroke-width="0.5" stroke="rgb(0,0,0)" />
	<polygon points="393.848,102.926 394.664,103.963 395.27,104.882 396.47,104.489 398.064,103.889 399.107,103.485 398.63,103.435 398.484,103.419 395.057,102.994 394.91,102.974 393.736,102.806 " fill="none" stroke-width="0.5" stroke="rgb(0,0,0)" />
	<polygon points="146.422,104.395 148.538,104.24 146.712,102.772 " fill="none" stroke-width="0.5" stroke="rgb(0,0,0)" />
	<polygon points="383.655,98.2406 384.495,98.2911 384.188,97.842 " fill="none" stroke-width="0.5" stroke="rgb(0,0,0)" />
	<polygon points="66.8402,96.3453 68.7421,97.2223 68.9066,97.3282 68.9834,96.7373 68.9848,96.726 69.1981,95.1042 " fill="none" stroke-width="0.5" stroke="rgb(0,0,0)" />
	<polygon points="127.344,64.0287 126.617,67.4811 126.509,67.9262 125.662,71.0333 125.399,71.7067 125.746,71.9316 126.021,70.8814 126.283,70.1234 127.146,68.3683 127.516,67.8068 129.148,66.1228 127.611,63.9842 127.417,63.7267 " fill="none" stroke-width="0.5" stroke="rgb(0,0,0)" />
	<polygon points="103.819,62.7422 101.981,64.3165 101.785,64.4784 100.004,65.9063 99.2509,66.4402 97.828,67.3285 97.8782,67.5029 98.1069,68.578 98.2146,69.3446 98.2571,69.8192 100.006,68.7863 102.065,68.0728 105.213,67.8184 105.095,66.4078 105.074,66.0793 104.933,62.667 104.859,61.8956 " fill="none" stroke-width="0.5" stroke="rgb(0,0,0)" />
	<polygon points="410.792,62.6581 411.241,63.062 412.861,64.6369 414.572,66.2429 416.251,67.5912 417.858,68.5672 419.359,69.132 421.219,69.3667 421.269,69.3643 421.722,69.2955 421.993,69.2162 422.008,69.0791 421.738,68.1845 420.437,66.841 417.07,64.8489 412.398,62.9133 410.238,62.1972 " fill="none" stroke-width="0.5" stroke="rgb(0,0,0)" />
	<polygon points="163.51,48.5841 163.792,48.6801 163.576,48.4654 " fill="none" stroke-width="0.5" stroke="rgb(0,0,0)" />
	<polygon points="397.718,39.0283 398.361,40.5731 398.633,41.4895 399.499,41.0544 400.459,40.65 403.431,39.6235 403.944,39.4656 406.668,38.729 406.383,38.5789 402.161,36.9784 398.228,35.8595 395.624,35.208 " fill="none" stroke-width="0.5" stroke="rgb(0,0,0)" />
	<polygon points="152.315,30.6342 152.359,30.6617 152.354,30.6112 " fill="none" stroke-width="0.5" stroke="rgb(0,0,0)" />
</svg>
