<?xml version="1.0" standalone="no" ?>
<!DOCTYPE svg PUBLIC "-//W3C//DTD SVG 1.1//EN" "http://www.w3.org/Graphics/SVG/1.1/DTD/svg11.dtd">
<svg width="500px" height="500px" xmlns="http://www.w3.org/2000/svg" version="1.1" >
	<polygon points="461.973,280.757 461.204,294.455 458.922,308.869 455.035,324.209 449.515,340.134 442.349,356.326 433.532,372.482 423.064,388.311 410.951,403.536 397.194,417.89 381.792,431.121 364.732,442.987 345.986,453.251 325.51,461.681 303.237,468.033 279.09,472.051 252.977,473.457 227.542,472.13 203.9,468.326 182.01,462.294 161.816,454.266 143.27,444.463 126.34,433.095 111.01,420.374 97.2762,406.517 85.1446,391.747 74.6264,376.301 65.7342,360.424 58.4786,344.372 52.865,328.412 48.8904,312.824 46.5385,297.898 45.7405,283.388 45.7405,38.2816 50.0185,38.2488 61.5102,38.1606 73.0019,38.0724 84.4936,37.9842 95.9852,37.896 107.477,37.8079 118.969,37.7197 130.46,37.6315 130.46,37.6315 153.444,37.4552 164.935,37.367 176.427,37.2788 187.919,37.1906 187.919,37.1906 191.87,37.1603 191.857,43.9253 191.831,56.8241 191.806,69.7229 191.806,69.7229 191.78,82.6216 191.729,108.419 191.729,108.419 191.704,121.318 191.653,147.116 191.653,147.116 191.628,160.014 191.602,172.913 191.602,172.913 191.577,185.812 191.551,198.711 191.526,211.61 191.526,211.61 191.5,224.508 191.501,224.691 191.588,235.986 191.59,236.127 191.754,246.944 191.76,247.2 192.057,257.506 192.072,257.898 192.557,267.66 192.593,268.215 193.321,277.399 193.396,278.15 194.422,286.723 194.568,287.715 195.948,295.644 196.218,296.928 198.008,304.178 198.488,305.804 200.742,312.343 201.56,314.339 204.334,320.134 205.659,322.461 209.008,327.477 210.995,329.968 214.974,334.173 217.649,336.511 222.314,339.871 225.467,341.707 230.874,344.188 234.113,345.33 240.315,346.9 243.277,347.402 250.332,348.027 251.947,329.779 253.207,348.055 260.468,347.555 263.446,347.108 269.793,345.63 273.11,344.525 278.605,342.107 281.884,340.253 286.59,336.931 289.387,334.513 293.365,330.324 295.43,327.727 298.742,322.708 300.095,320.288 302.805,314.475 303.62,312.419 305.788,305.849 306.251,304.196 307.94,296.907 308.191,295.621 309.462,287.648 309.592,286.672 310.508,278.052 310.571,277.329 311.193,268.099 311.221,267.583 311.613,257.78 311.623,257.433 311.846,247.093 311.849,246.888 311.964,236.049 311.965,235.965 312.035,224.662 312.035,224.508 312.009,211.609 311.983,198.71 311.957,185.811 311.932,172.913 311.932,172.913 311.906,160.014 311.854,134.216 311.854,134.216 311.828,121.317 311.751,82.621 311.751,82.621 311.725,69.7222 311.659,36.8938 316.399,36.8633 328.152,36.7878 339.905,36.7122 351.659,36.6367 363.412,36.5611 375.165,36.4855 386.919,36.41 410.425,36.2589 422.178,36.1833 433.932,36.1077 457.438,35.9566 461.973,35.9274 " fill="none" stroke-width="0.5" stroke="rgb(0,0,0)" />
</svg>
