<?xml version="1.0" standalone="no" ?>
<!DOCTYPE svg PUBLIC "-//W3C//DTD SVG 1.1//EN" "http://www.w3.org/Graphics/SVG/1.1/DTD/svg11.dtd">
<svg width="500px" height="500px" xmlns="http://www.w3.org/2000/svg" version="1.1" >
	<polygon points="463.223,280.792 462.449,294.588 460.147,309.121 456.234,324.567 450.679,340.592 443.471,356.88 434.604,373.127 424.077,389.046 411.893,404.359 398.054,418.799 382.558,432.111 365.39,444.051 346.526,454.381 325.92,462.863 303.512,469.254 279.227,473.295 252.978,474.709 227.41,473.375 203.634,469.549 181.612,463.481 161.292,455.403 142.628,445.537 125.591,434.097 110.165,421.297 96.3473,407.355 84.143,392.497 73.5625,376.96 64.6174,360.988 57.3173,344.837 51.6674,328.775 47.6648,313.076 45.2939,298.03 44.4905,283.422 44.4905,37.0411 50.0089,36.9988 61.5006,36.9106 72.9923,36.8224 84.484,36.7343 95.9756,36.6461 95.9756,36.6461 107.467,36.5579 118.959,36.4697 130.451,36.3816 153.434,36.2052 164.926,36.117 176.417,36.0289 187.909,35.9407 193.122,35.9007 193.107,43.9277 193.081,56.8265 193.056,69.7253 193.056,69.7253 193.03,82.6241 192.979,108.422 192.979,108.422 192.954,121.321 192.903,147.118 192.878,160.017 192.852,172.916 192.852,172.916 192.827,185.814 192.801,198.713 192.776,211.612 192.776,211.612 192.75,224.511 192.751,224.681 192.838,235.976 192.84,236.108 193.004,246.925 193.009,247.164 193.306,257.47 193.321,257.836 193.805,267.598 193.839,268.116 194.567,277.3 194.637,278.002 195.663,286.575 195.799,287.501 197.18,295.429 197.432,296.628 199.221,303.878 199.669,305.397 201.923,311.936 202.688,313.8 205.462,319.594 206.699,321.767 210.048,326.783 211.903,329.109 215.882,333.313 218.38,335.497 223.045,338.857 225.989,340.571 231.395,343.052 234.419,344.118 240.622,345.688 243.388,346.157 250.442,346.781 251.947,329.779 253.121,346.808 260.382,346.308 263.162,345.891 269.509,344.413 272.607,343.381 278.102,340.963 281.163,339.232 285.869,335.91 288.481,333.652 292.459,329.463 294.386,327.038 297.699,322.019 298.963,319.76 301.672,313.947 302.433,312.027 304.601,305.458 305.034,303.914 306.722,296.625 306.957,295.424 308.228,287.451 308.349,286.54 309.265,277.92 309.324,277.245 309.946,268.015 309.972,267.533 310.364,257.73 310.374,257.406 310.596,247.066 310.599,246.875 310.714,236.035 310.715,235.957 310.785,224.655 310.785,224.51 310.759,211.611 310.733,198.713 310.707,185.814 310.682,172.915 310.682,172.915 310.656,160.016 310.604,134.219 310.604,134.219 310.578,121.32 310.501,82.6236 310.501,82.6235 310.475,69.7248 310.406,35.6518 316.391,35.6134 328.144,35.5378 339.897,35.4622 351.651,35.3867 363.404,35.3111 375.157,35.2356 386.91,35.16 410.417,35.0089 422.17,34.9333 433.923,34.8578 445.677,34.7822 457.43,34.7066 463.223,34.6694 " fill="none" stroke-width="0.5" stroke="rgb(0,0,0)" />
</svg>
