<?xml version="1.0" standalone="no" ?>
<!DOCTYPE svg PUBLIC "-//W3C//DTD SVG 1.1//EN" "http://www.w3.org/Graphics/SVG/1.1/DTD/svg11.dtd">
<svg width="500px" height="500px" xmlns="http://www.w3.org/2000/svg" version="1.1" >
	<polygon points="463.823,280.809 463.046,294.652 460.736,309.242 456.809,324.74 451.238,340.812 444.01,357.145 435.118,373.437 424.563,389.399 412.345,404.754 398.467,419.235 382.925,432.586 365.707,444.562 346.785,454.923 326.117,463.431 303.644,469.841 279.293,473.892 252.978,475.309 227.347,473.973 203.506,470.136 181.421,464.05 161.04,455.949 142.319,446.053 125.231,434.579 109.759,421.74 95.9014,407.758 83.6622,392.857 73.0518,377.276 64.0813,361.258 56.7599,345.061 51.0926,328.949 47.0764,313.197 44.6964,298.093 43.8905,283.439 43.8905,36.4457 50.0043,36.3988 61.496,36.3106 72.9877,36.2225 84.4794,36.1343 95.971,36.0461 107.463,35.9579 118.954,35.8698 130.446,35.7816 153.429,35.6052 164.921,35.517 176.413,35.4289 187.904,35.3407 187.904,35.3407 193.724,35.296 193.706,43.9289 193.681,56.8277 193.656,69.7265 193.656,69.7265 193.63,82.6253 193.579,108.423 193.579,108.423 193.554,121.322 193.503,147.119 193.503,147.119 193.478,160.018 193.452,172.917 193.452,172.917 193.427,185.816 193.401,198.714 193.376,211.613 193.376,211.613 193.35,224.512 193.351,224.677 193.438,235.971 193.44,236.099 193.604,246.916 193.609,247.147 193.906,257.453 193.92,257.807 194.405,267.568 194.437,268.068 195.165,277.253 195.232,277.93 196.259,286.503 196.39,287.398 197.771,295.326 198.014,296.484 199.804,303.735 200.237,305.201 202.491,311.74 203.229,313.54 206.003,319.335 207.198,321.434 210.547,326.45 212.339,328.696 216.318,332.901 218.73,335.01 223.396,338.37 226.239,340.025 231.645,342.507 234.566,343.537 240.769,345.106 243.441,345.559 250.495,346.184 251.947,329.779 253.08,346.21 260.341,345.709 263.026,345.306 269.373,343.829 272.365,342.832 277.86,340.414 280.817,338.742 285.523,335.42 288.046,333.239 292.024,329.05 293.886,326.708 297.198,321.689 298.419,319.506 301.128,313.694 301.863,311.839 304.031,305.27 304.449,303.779 306.138,296.489 306.364,295.329 307.635,287.357 307.752,286.476 308.668,277.857 308.725,277.204 309.348,267.975 309.373,267.509 309.764,257.706 309.774,257.393 309.996,247.053 309.999,246.868 310.114,236.029 310.115,235.954 310.185,224.651 310.185,224.511 310.159,211.613 310.133,198.714 310.107,185.815 310.082,172.916 310.082,172.916 310.056,160.018 310.004,134.22 310.004,134.22 309.978,121.321 309.901,82.6248 309.901,82.6247 309.875,69.726 309.805,35.0557 316.387,35.0134 328.14,34.9378 339.894,34.8623 351.647,34.7867 363.4,34.7111 375.153,34.6356 386.907,34.56 410.413,34.4089 422.166,34.3333 433.92,34.2578 445.673,34.1822 457.426,34.1066 463.823,34.0655 " fill="none" stroke-width="0.5" stroke="rgb(0,0,0)" />
</svg>
