<?xml version="1.0" standalone="no" ?>
<!DOCTYPE svg PUBLIC "-//W3C//DTD SVG 1.1//EN" "http://www.w3.org/Graphics/SVG/1.1/DTD/svg11.dtd">
<svg width="500px" height="500px" xmlns="http://www.w3.org/2000/svg" version="1.1" >
	<polygon points="480.823,84.6678 476.018,90.519 473.915,92.4963 473.289,92.9485 473.395,92.9916 475.437,94.0782 477.16,95.2373 479.011,96.7966 480.38,98.2281 480.823,98.8007 480.823,194.671 480.518,195.024 479.2,195.921 480.823,197.722 480.823,281.286 479.971,296.463 479.456,299.718 479.064,300.203 478.154,301.2 476.861,302.456 478.342,305.292 478.511,305.684 477.405,312.666 473.11,329.62 467.07,347.047 459.27,364.67 453.573,375.108 452.951,375.199 453.035,376.095 449.695,382.213 438.331,399.399 425.161,415.952 410.17,431.593 393.345,446.047 374.668,459.037 354.126,470.285 331.702,479.516 318.558,483.265 316.983,482.451 316.969,482.571 316.633,483.814 307.382,486.452 281.151,490.817 252.993,492.333 225.548,490.902 199.887,486.773 176.007,480.192 153.907,471.407 133.585,460.665 115.039,448.212 98.2672,434.295 83.2685,419.161 70.0408,403.057 58.5824,386.23 48.8916,368.927 40.9666,351.394 34.8057,333.879 32.6042,325.244 34.3961,319.473 35.0367,317.861 35.6709,316.566 34.6488,316.244 30.0711,313.468 29.8791,313.276 27.7694,299.888 26.8905,283.906 26.8905,155.454 26.9279,155.37 29.3545,150.938 30.196,149.698 28.8314,148.99 26.9713,147.778 26.8905,147.713 26.8905,37.6997 28.819,36.2875 27.7353,35.8462 26.8905,35.419 26.8905,19.5757 38.3822,19.4875 49.8739,19.3993 61.3656,19.3111 72.8572,19.223 84.3489,19.1348 95.8406,19.0466 107.332,18.9584 118.824,18.8703 130.316,18.7821 141.807,18.6939 153.299,18.6057 164.791,18.5175 176.282,18.4294 187.774,18.3412 210.757,18.1648 210.732,31.0636 210.706,43.9624 210.681,56.8612 210.656,69.76 210.63,82.6588 210.618,88.7727 210.349,88.8851 210.1,88.9651 210.617,89.3957 210.579,108.456 210.554,121.355 210.503,147.153 210.478,160.052 210.452,172.95 210.434,182.219 209.114,183.88 207.696,185.364 207.372,185.646 209.016,187.037 210.421,188.494 210.401,198.748 210.376,211.647 210.35,224.546 210.438,235.84 210.602,246.657 210.899,256.963 211.384,266.725 211.461,267.702 210.942,268.33 210.373,269.087 211.657,270.168 212.112,275.909 213.138,284.482 214.519,292.41 216.308,299.661 218.563,306.2 221.336,311.994 224.685,317.011 228.665,321.215 233.33,324.575 238.737,327.056 244.939,328.626 251.957,329.247 259.171,328.749 265.518,327.271 271.013,324.853 275.719,321.532 279.698,317.343 283.01,312.324 285.72,306.511 287.888,299.942 289.576,292.653 290.848,284.68 291.763,276.06 292.386,266.831 292.778,257.028 293,246.688 293.115,235.848 293.185,224.546 293.159,211.647 293.133,198.748 293.123,193.477 293.175,193.433 293.122,193.338 293.107,185.849 293.09,177.182 293.115,177.124 293.588,176.256 293.292,176.064 293.087,175.874 293.082,172.95 293.056,160.052 293.004,134.254 292.978,121.355 292.954,109.329 293.319,108.529 292.952,108.39 292.901,82.6588 292.875,69.76 292.797,31.0636 292.771,18.1648 304.525,18.0893 316.278,18.0137 328.031,17.9382 339.784,17.8626 351.538,17.787 363.291,17.7115 375.044,17.6359 383.862,17.5792 385.078,18.4712 385.126,18.3626 385.752,17.6345 385.841,17.5665 386.797,17.5604 410.304,17.4092 422.057,17.3337 433.81,17.2581 445.564,17.1826 457.317,17.107 469.07,17.0314 480.823,16.9559 " fill="none" stroke-width="0.5" stroke="rgb(0,0,0)" />
	<polygon points="319.699,423.186 319.939,424.243 320.029,424.678 320.038,424.723 320.36,424.975 320.977,425.5 321.771,424.895 322.472,424.41 322.787,424.219 322.516,422.258 " fill="none" stroke-width="0.5" stroke="rgb(0,0,0)" />
</svg>
