<?xml version="1.0" standalone="no" ?>
<!DOCTYPE svg PUBLIC "-//W3C//DTD SVG 1.1//EN" "http://www.w3.org/Graphics/SVG/1.1/DTD/svg11.dtd">
<svg width="500px" height="500px" xmlns="http://www.w3.org/2000/svg" version="1.1" >
	<polygon points="466.873,280.895 466.083,294.977 463.726,309.856 459.733,325.615 454.079,341.931 446.748,358.495 437.733,375.012 427.033,391.194 414.645,406.763 400.567,421.452 384.795,435.001 367.314,447.159 348.102,457.679 327.119,466.317 304.314,472.821 279.626,476.929 252.981,478.364 227.024,477.01 202.857,473.121 180.45,466.946 159.76,458.722 140.752,448.674 123.402,437.025 107.698,423.993 93.6349,409.804 81.2184,394.687 70.4558,378.882 61.356,362.634 53.9264,346.197 48.1705,329.833 44.0858,313.813 41.6595,298.415 40.8405,283.522 40.8405,33.419 49.9809,33.3489 61.4726,33.2607 61.4726,33.2607 72.9643,33.1725 84.456,33.0844 95.9476,32.9962 95.9476,32.9962 107.439,32.908 118.931,32.8198 130.423,32.7317 153.406,32.5553 164.898,32.4671 187.881,32.2908 196.78,32.2225 196.757,43.9349 196.731,56.8337 196.706,69.7325 196.706,69.7325 196.68,82.6313 196.629,108.429 196.629,108.429 196.604,121.328 196.553,147.125 196.553,147.125 196.528,160.024 196.502,172.923 196.502,172.923 196.477,185.822 196.451,198.72 196.426,211.619 196.426,211.619 196.4,224.518 196.401,224.653 196.488,235.948 196.489,236.052 196.654,246.869 196.658,247.059 196.955,257.365 196.966,257.655 197.451,267.417 197.477,267.827 198.206,277.012 198.261,277.568 199.287,286.141 199.395,286.875 200.776,294.803 200.975,295.753 202.765,303.004 203.12,304.207 205.374,310.746 205.98,312.223 208.754,318.018 209.735,319.74 213.084,324.756 214.554,326.6 218.533,330.804 220.513,332.535 225.178,335.895 227.511,337.253 232.918,339.735 235.315,340.58 241.517,342.149 243.709,342.521 250.764,343.146 251.947,329.779 252.87,343.167 260.131,342.666 262.334,342.336 268.681,340.858 271.137,340.04 276.632,337.622 279.058,336.25 283.764,332.928 285.834,331.138 289.812,326.95 291.34,325.028 294.653,320.009 295.654,318.218 298.364,312.405 298.967,310.883 301.135,304.314 301.478,303.09 303.166,295.801 303.352,294.849 304.624,286.876 304.719,286.154 305.635,277.534 305.682,276.999 306.305,267.77 306.325,267.387 306.716,257.584 306.724,257.327 306.947,246.988 306.949,246.836 307.064,235.997 307.065,235.935 307.135,224.632 307.135,224.518 307.109,211.619 307.083,198.72 307.057,185.821 307.032,172.922 307.032,172.922 307.006,160.024 306.954,134.226 306.954,134.226 306.928,121.327 306.851,82.6309 306.851,82.6308 306.825,69.732 306.749,32.0253 316.367,31.9634 328.121,31.8879 339.874,31.8123 351.627,31.7368 363.38,31.6612 375.134,31.5856 386.887,31.5101 410.394,31.3589 422.147,31.2834 433.9,31.2078 445.653,31.1323 457.407,31.0567 466.873,30.9958 " fill="none" stroke-width="0.5" stroke="rgb(0,0,0)" />
</svg>
