<?xml version="1.0" standalone="no" ?>
<!DOCTYPE svg PUBLIC "-//W3C//DTD SVG 1.1//EN" "http://www.w3.org/Graphics/SVG/1.1/DTD/svg11.dtd">
<svg width="500px" height="500px" xmlns="http://www.w3.org/2000/svg" version="1.1" >
	<polygon points="480.823,82.786 480.483,83.3489 475.168,89.8208 473.27,91.6049 471.036,93.2198 472.981,94.0106 474.823,94.991 476.546,96.15 478.216,97.5569 479.585,98.9883 480.823,100.588 480.823,193.046 479.9,194.114 478.321,195.188 477.39,195.555 480.108,198.572 480.823,199.531 480.823,249.322 480.804,249.354 480.301,250.127 479.146,251.739 480.137,252.091 480.823,252.443 480.823,281.286 479.971,296.463 479.8,297.542 478.208,299.512 477.388,300.411 475.506,302.239 477.367,305.801 477.964,307.185 478.176,307.8 477.405,312.666 473.11,329.62 467.07,347.047 459.27,364.67 454.224,373.915 451.753,374.193 452.091,377.824 449.695,382.213 438.331,399.399 425.161,415.952 410.17,431.593 399.742,440.551 398.475,440.154 398.325,440.082 397.976,442.068 393.345,446.047 374.668,459.037 354.126,470.285 331.702,479.516 320.136,482.815 319.91,482.725 317.247,481.348 316.104,480.6 315.907,482.284 315.509,483.756 315.287,484.198 307.382,486.452 281.151,490.817 263.641,491.76 263.389,491.554 263.324,491.492 263.147,491.575 262.591,491.816 252.993,492.333 225.548,490.902 199.887,486.773 176.007,480.192 174.507,479.596 173.966,479.216 171.286,477.708 169.885,477.305 168.365,477.154 153.907,471.407 133.585,460.665 126.08,455.625 125.701,455.045 125.524,453.725 122.813,453.431 115.039,448.212 98.2672,434.295 83.2685,419.161 70.0408,403.057 68.16,400.295 68.1387,399.343 68.1442,399.275 67.2676,398.985 58.5824,386.23 48.8916,368.927 40.9666,351.394 34.8057,333.879 33.1236,327.281 35.4466,319.799 36.0246,318.345 37.2605,315.821 36.9481,315.814 34.979,315.195 30.8489,312.69 29.5882,311.43 27.7694,299.888 26.8905,283.906 26.8905,232.048 27.0489,231.684 27.8831,230.248 27.0483,229.767 26.8905,229.643 26.8905,158.326 27.2423,157.345 27.8928,155.899 30.3194,151.466 31.4095,149.86 31.8739,149.3 31.6244,149.2 29.3382,148.014 27.6599,146.92 26.8905,146.303 26.8905,108.587 26.8906,108.587 26.8905,108.587 26.8905,39.0631 29.9674,36.8099 30.4608,36.4705 31.255,35.958 29.7619,35.4876 28.2317,34.8645 26.8905,34.1864 26.8905,19.5757 38.3822,19.4875 49.8739,19.3993 61.3656,19.3111 72.8572,19.223 84.3489,19.1348 95.8406,19.0466 107.332,18.9584 118.794,18.8705 118.859,18.9493 118.932,18.8694 130.316,18.7821 141.807,18.6939 153.299,18.6057 164.791,18.5175 176.282,18.4294 187.774,18.3412 210.757,18.1648 210.732,31.0636 210.706,43.9624 210.681,56.8612 210.656,69.76 210.63,82.6588 210.62,87.5795 209.925,87.8702 208.266,88.4018 207.824,88.5025 210.093,90.3906 210.436,90.6896 210.614,90.8518 210.579,108.456 210.554,121.355 210.503,147.153 210.478,160.052 210.452,172.95 210.438,180.345 210.034,180.954 208.253,183.196 206.973,184.535 205.588,185.742 206.657,186.474 208.224,187.8 210.197,189.846 210.418,190.131 210.401,198.748 210.376,211.647 210.356,221.477 210.243,221.66 209.696,222.216 210.354,222.824 210.35,224.546 210.438,235.84 210.602,246.657 210.899,256.963 211.353,266.106 210.078,267.648 208.898,269.219 209.274,269.6 211.391,271.382 211.566,271.534 211.78,271.722 212.112,275.909 213.138,284.482 214.519,292.41 216.308,299.661 218.563,306.2 221.336,311.994 224.685,317.011 228.665,321.215 233.33,324.575 238.737,327.056 244.939,328.626 251.957,329.247 252.058,329.24 252.829,330.835 253.579,329.701 254.062,329.102 259.171,328.749 265.518,327.271 271.013,324.853 275.719,321.532 279.698,317.343 283.01,312.324 285.72,306.511 287.888,299.942 289.576,292.653 290.848,284.68 291.763,276.06 292.386,266.831 292.421,265.957 293.047,265.466 292.473,264.973 292.461,264.959 292.778,257.028 293,246.688 293.115,235.848 293.185,224.546 293.159,211.647 293.133,198.748 293.126,194.904 294.444,193.809 294.582,193.716 294.079,192.794 293.303,190.965 293.116,190.368 293.107,185.849 293.096,180.144 293.304,179.479 294.081,177.65 294.728,176.464 295.086,175.936 294.04,175.258 293.084,174.37 293.082,172.95 293.056,160.052 293.004,134.254 292.978,121.355 292.96,112.103 293.178,111.486 294.492,108.609 294.94,107.833 294.433,107.762 294.282,107.73 292.95,107.226 292.901,82.6588 292.875,69.76 292.797,31.0636 292.771,18.1648 304.525,18.0893 316.278,18.0137 328.031,17.9382 339.784,17.8626 351.538,17.787 363.291,17.7115 375.044,17.6359 382.02,17.5911 385.47,20.1239 385.96,19.0798 386.586,18.3517 387.632,17.555 410.304,17.4092 422.057,17.3337 433.81,17.2581 445.192,17.1849 445.2,17.1917 445.205,17.1849 445.564,17.1826 457.317,17.107 469.07,17.0314 480.823,16.9559 " fill="none" stroke-width="0.5" stroke="rgb(0,0,0)" />
	<polygon points="318.365,422.468 318.536,423.035 318.867,424.487 318.948,424.879 319.032,425.332 319.648,425.814 320.514,426.55 320.935,426.968 320.961,426.945 321.67,426.353 322.398,425.799 323.098,425.314 323.994,424.771 323.934,424.557 323.554,421.809 323.554,420.757 " fill="none" stroke-width="0.5" stroke="rgb(0,0,0)" />
	<polygon points="168.759,414.807 168.745,415 169.079,414.233 168.755,414.064 " fill="none" stroke-width="0.5" stroke="rgb(0,0,0)" />
	<polygon points="76.9835,316.049 77.4881,315.598 77.6823,315.455 77.2321,315.096 " fill="none" stroke-width="0.5" stroke="rgb(0,0,0)" />
	<polygon points="163.299,254.427 163.312,254.404 163.294,254.4 " fill="none" stroke-width="0.5" stroke="rgb(0,0,0)" />
	<polygon points="97.7415,218.475 97.7651,218.371 97.3799,218.371 " fill="none" stroke-width="0.5" stroke="rgb(0,0,0)" />
	<polygon points="92.2482,217.958 92.3472,218.348 92.457,218.313 93.1859,218.191 94.2723,218.176 92.8183,218.014 92.2213,217.876 " fill="none" stroke-width="0.5" stroke="rgb(0,0,0)" />
	<polygon points="106.947,167.952 106.582,168.151 107.039,168.507 110.037,171.174 111.076,172.244 111.752,173.052 112.052,172.631 112.553,172.083 111.21,170.856 109.798,169.263 108.238,167.078 " fill="none" stroke-width="0.5" stroke="rgb(0,0,0)" />
	<polygon points="424.268,147.068 422.412,148.727 425.838,149.74 427.711,150.504 428.606,150.978 428.502,149.152 427.361,148.651 425.561,147.629 424.456,146.843 " fill="none" stroke-width="0.5" stroke="rgb(0,0,0)" />
	<polygon points="90.0345,120.294 89.7816,120.429 90.1154,120.429 91.5205,120.572 91.6609,120.601 91.5214,119.558 91.4954,119.345 " fill="none" stroke-width="0.5" stroke="rgb(0,0,0)" />
	<polygon points="186.454,116.308 185.519,117.697 187.309,117.15 187.483,117.114 186.586,116.054 " fill="none" stroke-width="0.5" stroke="rgb(0,0,0)" />
</svg>
