<?xml version="1.0" standalone="no" ?>
<!DOCTYPE svg PUBLIC "-//W3C//DTD SVG 1.1//EN" "http://www.w3.org/Graphics/SVG/1.1/DTD/svg11.dtd">
<svg width="500px" height="500px" xmlns="http://www.w3.org/2000/svg" version="1.1" >
	<polygon points="465.173,280.847 464.39,294.796 462.059,309.514 458.103,325.127 452.495,341.307 445.222,357.743 436.276,374.134 425.656,390.194 413.363,405.643 399.397,420.216 383.753,433.655 366.418,445.711 347.368,456.143 326.561,464.708 303.94,471.16 279.44,475.236 252.979,476.661 227.204,475.317 203.219,471.457 180.991,465.332 160.473,457.176 141.626,447.213 124.422,435.661 108.847,422.737 94.8982,408.663 82.5805,393.667 71.9028,377.987 62.875,361.867 55.5057,345.564 49.7992,329.34 45.7527,313.47 43.3522,298.236 42.5405,283.476 42.5405,35.106 49.994,35.0489 61.4857,34.9607 72.9773,34.8725 95.9607,34.6961 107.452,34.608 118.944,34.5198 130.436,34.4316 141.927,34.3434 153.419,34.2553 164.911,34.1671 176.402,34.0789 187.894,33.9907 195.076,33.9356 195.057,43.9316 195.031,56.8304 195.006,69.7292 195.006,69.7292 194.98,82.628 194.929,108.426 194.929,108.426 194.904,121.324 194.853,147.122 194.853,147.122 194.828,160.021 194.802,172.92 194.802,172.92 194.777,185.818 194.751,198.717 194.726,211.616 194.726,211.616 194.7,224.515 194.701,224.666 194.788,235.961 194.789,236.078 194.954,246.895 194.958,247.108 195.255,257.414 195.268,257.74 195.753,267.501 195.783,267.962 196.511,277.146 196.573,277.77 197.599,286.343 197.72,287.166 199.101,295.095 199.325,296.161 201.114,303.411 201.513,304.761 203.767,311.3 204.447,312.958 207.221,318.752 208.321,320.684 211.67,325.7 213.319,327.768 217.299,331.973 219.519,333.915 224.184,337.274 226.802,338.798 232.209,341.28 234.898,342.228 241.1,343.797 243.56,344.215 250.614,344.839 251.947,329.779 252.987,344.863 260.248,344.362 262.72,343.992 269.067,342.514 271.821,341.596 277.317,339.178 280.039,337.639 284.744,334.317 287.067,332.309 291.045,328.121 292.759,325.964 296.072,320.945 297.195,318.936 299.904,313.123 300.581,311.416 302.749,304.847 303.134,303.474 304.823,296.184 305.031,295.117 306.302,287.144 306.41,286.334 307.326,277.714 307.378,277.114 308.001,267.884 308.024,267.455 308.415,257.652 308.424,257.364 308.646,247.024 308.649,246.854 308.764,236.015 308.765,235.945 308.835,224.642 308.835,224.514 308.809,211.615 308.783,198.717 308.757,185.818 308.732,172.919 308.732,172.919 308.706,160.02 308.654,134.223 308.654,134.223 308.628,121.324 308.551,82.6275 308.551,82.6274 308.525,69.7287 308.453,33.7144 316.378,33.6634 328.132,33.5878 339.885,33.5123 351.638,33.4367 363.391,33.3612 375.145,33.2856 386.898,33.21 410.404,33.0589 422.158,32.9834 433.911,32.9078 445.664,32.8322 457.417,32.7567 465.173,32.7068 " fill="none" stroke-width="0.5" stroke="rgb(0,0,0)" />
</svg>
