<?xml version="1.0" standalone="no" ?>
<!DOCTYPE svg PUBLIC "-//W3C//DTD SVG 1.1//EN" "http://www.w3.org/Graphics/SVG/1.1/DTD/svg11.dtd">
<svg width="500px" height="500px" xmlns="http://www.w3.org/2000/svg" version="1.1" >
	<polygon points="462.923,280.784 462.15,294.556 459.853,309.061 455.946,324.481 450.4,340.482 443.202,356.747 434.346,372.972 423.834,388.87 411.667,404.161 397.848,418.581 382.374,431.874 365.232,443.796 346.396,454.11 325.822,462.579 303.446,468.961 279.194,472.996 252.977,474.408 227.442,473.076 203.698,469.256 181.708,463.196 161.417,455.13 142.782,445.279 125.771,433.857 110.368,421.076 96.5702,407.154 84.3834,392.317 73.8178,376.802 64.8854,360.852 57.596,344.726 51.9548,328.688 47.9589,313.016 45.5926,297.998 44.7905,283.414 44.7905,37.3388 50.0112,37.2988 61.5029,37.2106 72.9946,37.1224 84.4863,37.0343 95.9779,36.9461 95.9779,36.9461 107.47,36.8579 118.961,36.7697 130.453,36.6816 130.453,36.6816 141.945,36.5934 153.436,36.5052 164.928,36.417 176.42,36.3288 187.911,36.2407 187.911,36.2407 192.822,36.203 192.807,43.9271 192.781,56.8259 192.756,69.7247 192.756,69.7247 192.73,82.6235 192.679,108.421 192.679,108.421 192.654,121.32 192.603,147.117 192.603,147.118 192.578,160.016 192.552,172.915 192.552,172.915 192.527,185.814 192.501,198.713 192.476,211.611 192.476,211.612 192.45,224.51 192.451,224.684 192.538,235.978 192.54,236.112 192.704,246.929 192.709,247.173 193.006,257.479 193.021,257.851 193.506,267.613 193.54,268.14 194.268,277.324 194.339,278.037 195.365,286.61 195.504,287.552 196.884,295.481 197.14,296.7 198.93,303.95 199.386,305.494 201.64,312.033 202.417,313.929 205.191,319.723 206.449,321.934 209.798,326.95 211.685,329.315 215.664,333.52 218.204,335.741 222.87,339.1 225.864,340.843 231.27,343.325 234.346,344.409 240.548,345.979 243.361,346.456 250.416,347.08 251.947,329.779 253.142,347.108 260.403,346.607 263.23,346.183 269.577,344.705 272.727,343.655 278.223,341.237 281.336,339.477 286.042,336.155 288.698,333.859 292.676,329.67 294.637,327.204 297.949,322.185 299.234,319.886 301.944,314.074 302.718,312.121 304.886,305.552 305.326,303.982 307.015,296.692 307.253,295.471 308.524,287.498 308.647,286.571 309.563,277.952 309.623,277.265 310.246,268.035 310.272,267.545 310.663,257.742 310.673,257.412 310.896,247.073 310.899,246.878 311.014,236.039 311.015,235.959 311.085,224.656 311.085,224.51 311.059,211.611 311.033,198.712 311.007,185.813 310.982,172.915 310.982,172.914 310.956,160.016 310.904,134.218 310.904,134.218 310.878,121.319 310.801,82.623 310.801,82.6229 310.775,69.7241 310.707,35.9499 316.393,35.9134 328.146,35.8378 339.899,35.7622 351.653,35.6867 363.406,35.6111 375.159,35.5356 386.912,35.46 410.419,35.3089 422.172,35.2333 433.925,35.1577 445.679,35.0822 457.432,35.0066 462.923,34.9713 " fill="none" stroke-width="0.5" stroke="rgb(0,0,0)" />
</svg>
