<?xml version="1.0" standalone="no" ?>
<!DOCTYPE svg PUBLIC "-//W3C//DTD SVG 1.1//EN" "http://www.w3.org/Graphics/SVG/1.1/DTD/svg11.dtd">
<svg width="500px" height="500px" xmlns="http://www.w3.org/2000/svg" version="1.1" >
	<polygon points="480.823,27.5888 480.266,28.1194 479.626,28.9197 479.112,29.759 478.729,30.5809 478.485,31.3062 478.374,31.8207 478.359,32.0002 478.499,33.8327 478.916,35.8551 479.602,38.2778 480.458,41.1244 480.507,41.2992 480.823,42.4816 480.823,72.6987 478.074,79.204 477.199,80.6516 471.884,87.1235 470.781,88.1605 463.747,93.2449 462.69,93.8535 456.197,96.7434 456.703,96.8363 457.785,97.1471 459.013,97.6552 459.886,98.1379 460.222,98.3805 461.993,96.7459 465.763,96.2711 468.249,96.7815 469.285,97.0955 471.38,97.9475 472.451,98.5174 474.174,99.6765 475.145,100.494 476.514,101.926 477.267,102.899 478.3,104.568 478.794,105.567 479.51,107.44 479.779,108.368 480.195,110.409 480.303,111.222 480.437,113.398 480.379,114.667 479.629,119.499 479.192,120.987 477.617,124.537 478.889,125.245 480.524,126.59 480.823,126.944 480.823,185.569 479.499,188.298 477.509,190.6 475.93,191.674 471.204,192.526 467.87,191.706 466.335,191.09 461.765,188.46 461.105,188.019 455.782,183.914 455.35,183.546 454.581,182.825 456.456,185.505 458.739,186.849 458.754,186.858 462.816,189.265 463.101,189.445 467.49,192.398 467.967,192.756 472.336,196.386 472.949,196.975 476.951,201.417 477.603,202.292 480.823,207.566 480.823,240.869 480.66,241.21 477.14,247.201 476.848,247.651 472.663,253.486 472.59,253.586 471.048,255.645 472.788,255.279 474.616,255.184 476.085,255.337 477.452,255.647 478.711,256.095 480.083,256.797 480.823,257.308 480.823,281.286 480.383,289.134 480.338,289.223 480.045,289.73 477.853,293.136 477.48,293.652 474.903,296.84 474.426,297.363 471.468,300.237 469.587,301.214 471.143,303.251 471.684,304.101 473.6,307.769 473.947,308.573 475.391,312.753 475.601,313.529 476.298,317.035 473.11,329.62 467.07,347.047 459.27,364.67 457.942,367.103 456.691,368.339 453.687,369.93 450.305,369.6 447.665,367.459 446.731,365.148 445.633,358.811 443.497,355.438 440.113,352.803 435.435,350.458 434.721,350.14 435.883,350.986 436.795,351.808 440.71,356.155 441.461,357.199 444.509,362.59 445.014,363.767 446.992,370.23 447.225,371.409 447.929,378.971 447.88,380.454 446.925,386.403 438.331,399.399 425.161,415.952 410.17,431.593 403.893,436.986 403.347,437.049 401.832,436.794 400.291,436.311 398.798,435.606 397.769,434.984 396.354,433.919 395.646,433.29 394.365,431.955 393.836,431.321 393.202,430.442 393.883,433.186 394.04,434.162 394.288,437.439 394.216,438.904 393.102,445.257 392.692,446.501 374.668,459.037 354.126,470.285 331.702,479.516 328.072,480.551 327.173,480.472 326.078,480.27 322.959,479.384 321.862,478.95 319.198,477.573 318.188,476.912 315.989,475.126 315.139,474.278 313.413,472.164 312.764,471.184 311.521,468.825 311.086,467.76 310.333,465.237 310.115,464.121 309.862,461.515 309.847,460.56 310.088,456.875 310.177,456.169 310.849,452.604 310.996,451.999 312.019,448.593 312.2,448.08 312.363,447.676 312.164,447.708 312.076,447.964 310.929,452.044 310.873,452.229 309.364,456.991 309.155,457.55 307.122,462.255 306.587,463.229 303.82,467.302 302.547,468.655 298.839,471.521 298.68,471.595 299.401,471.512 300.117,471.402 300.811,471.293 301.084,471.256 301.8,471.177 302.244,471.144 303.108,471.114 303.783,471.13 304.654,471.199 305.816,471.411 306.485,471.604 307.849,472.191 308.343,472.482 309.635,473.512 309.98,473.877 310.89,475.139 311.112,475.554 311.584,476.715 311.71,477.154 311.892,478.032 311.948,478.471 311.993,479.038 312.006,479.452 311.804,481.175 311.406,482.647 310.336,484.771 309.479,485.854 307.382,486.452 281.151,490.817 270.589,491.386 268.698,490.301 267.903,489.754 266.077,488.262 265.37,487.579 264.229,486.276 261.788,487.52 261.456,487.676 257.291,489.482 256.947,489.618 252.522,491.215 252.154,491.334 249.348,492.143 225.548,490.902 199.887,486.773 187.454,483.346 185.347,482.042 185.035,481.835 180.275,478.454 176.235,475.616 172.938,473.761 170.689,473.113 167.492,472.797 163.318,472.565 162.959,472.535 158.207,471.979 157.429,471.835 152.219,470.501 152.141,470.474 141.315,464.751 138.486,462.786 137.744,462.176 131.108,455.743 129.452,452.775 129.708,449.386 129.761,449.318 127.361,449.534 126.196,449.523 115.43,448.356 115.168,448.298 115.039,448.212 98.2672,434.295 83.2685,419.161 73.1461,406.838 72.402,400.883 72.3752,399.682 72.7599,394.865 70.9748,395.537 66.3424,393.763 64.5156,391.884 61.1931,389.574 60.5609,389.136 58.5824,386.23 48.8916,368.927 40.9666,351.394 35.7845,336.662 36.3046,331.748 36.5372,330.62 39.5055,321.059 39.8414,320.214 44.038,311.644 44.3396,311.103 44.49,310.863 43.6516,311.255 41.5352,311.828 38.2238,311.76 36.2547,311.141 33.854,309.685 32.0354,307.867 31.0431,306.548 29.4096,303.592 29.0059,302.69 27.7222,299.028 26.8905,283.906 26.8905,246.15 27.4667,243.323 27.5848,242.846 29.031,237.897 29.2842,237.198 30.9459,233.38 31.6306,232.201 33.469,229.742 34.9757,228.544 34.8527,228.53 33.3422,228.146 31.1104,227.251 29.6684,226.42 27.7515,224.919 26.8905,224.042 26.8905,197.681 27.7253,197.555 28.0208,197.735 27.8542,197.211 27.2815,194.659 27.1521,193.77 26.9535,190.864 26.9398,190.456 26.9401,190.129 26.9402,190.093 26.9426,189.767 26.9435,189.695 26.9499,189.368 26.953,189.26 26.9653,188.933 26.9725,188.79 26.9928,188.463 27.0065,188.285 27.0369,187.957 27.0601,187.747 27.1025,187.418 27.1385,187.177 27.1949,186.848 27.9267,185.376 27.3714,184.607 27.0331,184.048 26.8905,183.754 26.8905,175.514 26.9087,175.479 27.3426,174.284 27.8055,171.849 28.4369,168.252 28.5071,167.911 29.4832,163.794 29.6706,163.163 31.2427,158.78 31.6208,157.939 34.0474,153.506 34.6811,152.573 38.2205,148.305 39.0992,147.446 39.7358,146.942 38.2866,146.806 37.1817,146.595 34.6462,145.855 33.5822,145.428 31.2959,144.242 30.3204,143.606 28.3347,142.012 27.4936,141.186 26.8905,140.461 26.8905,114.561 27.4378,113.923 29.034,112.329 29.723,111.74 31.6425,110.338 32.3933,109.872 34.6463,108.697 37.9845,108.059 41.0538,109.341 41.4846,107.868 41.9014,106.824 42.0829,106.472 41.0629,106.762 37.0378,107.506 35.6146,107.593 34.9223,107.552 34.1279,107.45 33.4944,107.324 32.569,107.061 32.0047,106.85 30.9731,106.343 30.4882,106.043 29.4458,105.223 29.0507,104.833 28.1625,103.713 27.8676,103.23 27.2819,101.95 27.0973,101.373 26.8905,100.364 26.8905,98.4533 27.0429,97.0758 28.3263,93.1341 29.0158,91.7054 32.3994,86.591 32.751,86.1134 33.2608,85.4895 32.8121,85.5971 30.5251,85.6888 29.9263,85.5952 28.06,84.9713 27.5668,84.7081 26.8905,84.1999 26.8905,63.5814 27.0304,63.3695 27.6825,62.55 28.3859,61.8114 29.1132,61.1642 29.9279,60.5518 28.5286,60.2559 26.8905,59.3463 26.8905,44.6653 27.9468,43.6316 28.5877,43.088 32.4784,40.2388 32.7652,40.0415 37.2253,37.1634 37.3034,37.1139 41.7041,34.3708 41.7116,34.3659 39.4443,33.8047 39.4129,33.7968 35.1135,32.7076 34.7895,32.6157 31.039,31.434 30.1495,31.0719 27.4967,29.7304 26.8905,29.1833 26.8905,19.5757 38.3822,19.4875 49.8739,19.3993 61.3656,19.3111 72.8572,19.223 77.8032,19.185 80.0106,21.4382 80.9811,23.2085 81.3376,28.1007 80.5336,30.2633 79.2149,32.3393 78.4019,33.1678 80.9032,32.1419 81.0931,32.0678 84.2487,30.8991 87.1232,29.7331 87.1302,29.7294 86.3812,29.4742 85.4836,29.0825 84.554,28.5813 82.1372,26.1437 81.7846,25.4762 81.1301,22.1413 81.746,20.0393 82.0371,19.4688 82.3262,19.1503 84.3489,19.1348 95.8406,19.0466 107.332,18.9584 113.135,18.9139 113.316,19.0823 114.931,20.8808 115.071,21.0432 116.336,22.5594 117.15,23.3192 117.698,23.6012 118.804,23.7604 119.858,23.6096 120.463,23.3078 121.358,22.5205 122.706,21.0338 122.858,20.8723 124.554,19.1374 124.918,18.8235 130.316,18.7821 141.807,18.6939 153.299,18.6057 154.194,18.5989 154.52,18.9099 154.759,19.302 155.618,22.5902 155.105,24.7893 154.737,25.6083 152.749,28.0184 151.78,28.7 150.871,29.2251 149.501,29.8615 149.37,29.9207 148.376,30.353 149.405,31.1158 152.021,32.7503 154.837,34.4527 154.979,34.5434 154.46,33.0679 154.723,28.5203 155.775,26.3631 157.626,24.1658 160.54,22.0638 161.58,21.4645 165.989,19.4892 166.598,19.2557 168.999,18.4853 176.282,18.4294 187.774,18.3412 210.757,18.1648 210.742,25.9113 210.64,26.0986 208.742,28.1812 206.392,29.757 205.566,30.219 204.654,30.6372 205.559,30.6473 205.883,30.6598 207.268,30.7514 207.981,30.8423 209.152,31.0649 210.377,31.4394 210.731,31.5912 210.706,43.9624 210.684,55.1167 208.917,55.7892 207.9,55.9703 206.052,56.0052 203.904,55.7061 203.549,55.6241 204.193,56.2817 204.423,56.5312 208.975,61.7499 209.453,62.3777 210.667,64.2165 210.656,69.76 210.63,82.6588 210.63,82.7339 210.145,83.056 209.156,83.5854 208.286,83.9491 207.321,84.2581 206.318,84.4868 205.421,84.6199 204.292,84.6993 203.281,84.6835 199.299,84.2782 198.586,84.1611 193.896,83.0924 193.713,83.0445 197.953,86.1027 198.119,86.2272 202.922,89.956 203.079,90.0818 207.374,93.6571 207.573,93.8309 210.603,96.5915 210.579,108.456 210.554,121.355 210.553,121.684 209.559,122.544 208.395,123.309 206.399,124.144 205.715,124.292 207.326,125.413 208.373,126.344 210.539,128.791 210.503,147.153 210.478,160.052 210.469,164.3 210.193,164.501 210.466,165.879 210.46,169.087 210.254,170.297 210.014,171.233 209.052,174.018 208.657,174.914 207.269,177.462 206.707,178.31 204.926,180.552 204.182,181.33 202.04,183.196 201.105,183.862 198.637,185.281 197.529,185.775 196.522,186.104 197.159,186.259 198.127,186.587 200.89,187.799 201.855,188.336 204.254,189.98 205.165,190.75 207.138,192.796 207.918,193.802 209.403,196.219 209.963,197.411 210.401,198.701 210.401,198.748 210.376,211.647 210.376,211.778 210.066,212.69 209.925,213.061 209.333,214.481 209.189,214.799 208.505,216.2 208.361,216.475 207.599,217.847 207.456,218.089 206.631,219.421 204.084,221.672 202.67,221.87 204.607,223.337 205.052,223.71 207.789,226.241 208.216,226.679 210.386,229.151 210.438,235.84 210.602,246.657 210.899,256.963 211.032,259.639 209.094,262.162 208.962,262.327 206.74,265.016 205.08,267.225 204.285,268.71 204.139,269.455 204.29,270.232 204.897,271.218 206.389,272.726 208.653,274.633 208.755,274.721 211.224,276.899 211.77,277.449 212.38,278.148 213.138,284.482 214.519,292.41 215.822,297.688 215.045,299.586 214.737,300.228 214.586,300.497 216.184,300.333 216.618,300.56 218.563,306.2 221.336,311.994 224.685,317.011 228.665,321.215 233.33,324.575 238.737,327.056 244.939,328.626 246.678,328.78 247.539,329.918 248.146,330.911 249.655,334.035 250.023,335.01 250.937,338.27 251.103,339.08 251.529,342.264 251.665,341.939 256.271,333.3 256.886,332.37 259.956,328.567 265.518,327.271 271.013,324.853 275.719,321.532 279.698,317.343 283.01,312.324 283.572,311.12 286.62,310.159 285.262,309.017 284.986,308.085 285.72,306.511 287.888,299.942 287.933,299.749 288.345,299.311 289.142,298.306 289.786,297.282 290.305,296.167 290.713,294.863 290.992,293.266 291.102,291.217 291.075,290.249 290.995,289.183 290.872,288.048 290.719,286.821 290.718,286.812 290.626,286.067 290.848,284.68 291.763,276.06 291.973,272.961 292.112,272.684 292.812,271.577 293.633,270.552 294.497,269.691 295.597,268.829 296.608,268.214 297.861,267.641 299.004,267.272 300.242,267.014 301.501,266.891 301.9,266.906 300.117,265.827 299.328,265.256 295.241,261.748 294.088,260.41 292.729,258.247 292.778,257.028 293,246.688 293.115,235.848 293.15,230.228 293.21,230.09 294.578,227.143 294.688,226.92 296.321,223.758 297.31,222.736 297.162,222.636 295.684,221.411 294.903,220.63 293.679,219.151 293.173,218.406 293.159,211.647 293.139,201.361 293.677,200.568 294.901,199.087 295.68,198.307 297.158,197.08 298.082,196.451 299.772,195.521 300.832,195.067 301.078,194.989 300.735,194.706 299.945,193.916 299.089,192.88 298.458,191.946 297.81,190.759 297.359,189.696 296.95,188.387 296.711,187.223 296.568,185.82 296.568,184.623 296.711,183.222 296.95,182.057 297.36,180.749 297.811,179.686 298.458,178.5 299.09,177.567 299.946,176.532 300.736,175.742 301.771,174.887 302.704,174.256 303.098,174.041 300.122,173.881 298.637,173.249 296.932,172.144 295.52,170.832 294.666,169.841 293.364,167.939 293.071,167.43 293.056,160.052 293.004,134.254 293,132.423 293.228,132.027 294.323,130.319 296.626,128.346 296.529,128.053 296.457,127.821 296.249,127.096 296.184,126.849 296.005,126.104 295.947,125.839 295.801,125.077 295.753,124.791 295.643,124.017 295.607,123.706 295.539,122.924 295.518,122.586 295.495,121.8 295.513,121.122 295.764,118.178 295.93,117.203 296.699,114.227 297.044,113.252 298.358,110.374 298.919,109.402 300.805,106.754 301.615,105.837 304.1,103.549 305.145,102.78 308.256,100.984 309.449,100.461 311.137,99.9347 311.023,99.4877 310.941,99.1156 310.81,98.4144 310.755,98.0669 310.553,96.4604 310.42,95.4407 309.114,96.5951 309.076,96.6284 306.674,98.7149 306.489,98.8694 304.212,100.69 303.737,101.032 301.75,102.319 300.335,102.989 298.805,103.477 296.969,103.757 296.732,103.755 296.405,103.743 296.213,103.731 295.333,103.609 295.183,103.576 293.557,102.962 293.443,102.898 292.94,102.466 292.913,89.0365 293.666,87.5759 293.737,87.443 295.338,84.52 296.901,81.6611 297.33,80.8209 296.125,80.6915 295.752,80.6394 293.849,80.3111 292.895,80.0381 292.875,69.76 292.864,64.349 293.18,64.1079 293.418,63.9361 295.558,62.4686 297.36,61.1859 296.726,60.8853 294.694,59.9691 294.328,59.7886 292.853,58.9963 292.823,44.0448 293.991,43.3839 294.162,43.2909 296.066,42.2948 297.093,41.7319 295.842,39.8076 293.893,36.9514 293.872,36.9194 292.806,35.3352 292.797,31.0636 292.771,18.1648 299.683,18.1204 300.996,18.6707 301.419,18.8677 304.705,20.5602 304.825,20.6239 308.274,22.5024 310.004,23.4158 310.005,23.2216 310.009,23.0298 310.048,21.9725 310.085,21.4958 310.196,20.5609 310.285,20.0237 310.458,19.2169 310.628,18.5902 310.808,18.0489 316.278,18.0137 326.221,17.9498 327.231,18.9681 327.56,19.2572 329.058,18.8241 331.503,17.9611 331.631,17.915 339.784,17.8626 351.538,17.787 363.291,17.7115 372.591,17.6517 378.257,20.2517 379.288,20.858 385.498,25.4163 386.436,26.275 389.087,29.2886 387.812,26.5131 389.182,21.8509 389.808,21.1228 391.764,19.6337 393.525,18.8031 394.241,18.5208 396.96,17.6492 397.367,17.5346 397.545,17.4913 410.304,17.4092 422.057,17.3337 433.81,17.2581 437.273,17.2359 437.902,17.5073 440.546,18.9352 441.723,19.7718 443.749,21.6235 444.915,23.0946 445.826,24.7204 445.837,24.6806 446.269,23.5832 447.341,21.4965 448.013,20.4678 449.455,18.6964 450.337,17.8203 451.176,17.1465 457.317,17.107 469.07,17.0314 480.823,16.9559 " fill="none" stroke-width="0.5" stroke="rgb(0,0,0)" />
	<polygon points="188.308,439.068 188.681,439.798 190.667,444.456 190.953,445.297 191.755,448.409 192.514,448.633 194.028,448.967 195.665,449.23 197.255,449.395 198.598,449.447 200.394,449.349 202.122,449.045 203.694,448.53 205.034,447.82 206.136,446.913 207.051,445.728 207.805,444.073 208.431,441.181 208.593,440.889 202.76,441.325 201.858,441.323 195.639,440.834 194.641,440.668 189.445,439.34 188.429,438.979 188.188,438.868 " fill="none" stroke-width="0.5" stroke="rgb(0,0,0)" />
	<polygon points="258.366,448.35 258.091,448.383 258.018,448.402 257.96,448.426 257.8,448.523 258.069,448.562 258.574,448.666 259.07,448.807 258.933,448.633 258.716,448.421 258.608,448.343 " fill="none" stroke-width="0.5" stroke="rgb(0,0,0)" />
	<polygon points="160.781,430.859 160.256,431.883 157.257,436.54 156.42,437.565 152.226,441.665 151.099,442.528 145.558,445.796 144.569,446.232 148.468,445.983 152.487,445.123 155.667,443.826 158.086,442.194 159.881,440.262 161.18,437.956 162.012,435.148 162.333,431.542 162.33,431.313 162.312,430.832 162.283,430.322 162.245,429.79 162.197,429.242 162.143,428.682 162.084,428.115 162.037,427.687 " fill="none" stroke-width="0.5" stroke="rgb(0,0,0)" />
	<polygon points="326.691,415.1 325.517,415.635 316.013,418.768 314.765,419.034 311.986,419.318 312.12,419.439 312.892,420.485 313.659,421.89 314.153,423.187 314.392,423.978 314.722,425.43 314.77,425.658 315.026,427.031 315.212,427.821 315.59,428.089 315.62,428.111 316.527,428.764 316.898,429.054 317.764,429.79 318.424,430.446 319.157,431.3 319.952,432.494 320.459,433.505 320.489,433.596 320.684,433.349 320.866,433.13 321.588,432.303 321.741,432.135 322.46,431.372 322.673,431.158 323.387,430.474 323.686,430.207 324.394,429.615 324.817,429.293 325.517,428.808 326.124,428.44 326.815,428.076 327.68,427.705 328.358,427.476 329.544,427.208 329.812,427.176 329.521,426.827 328.374,424.648 328.025,423.406 327.804,421.809 327.804,414.436 " fill="none" stroke-width="0.5" stroke="rgb(0,0,0)" />
	<polygon points="243.518,410.628 243.45,411.708 242.671,416.684 242.168,418.31 239.962,422.94 239.195,424.147 235.756,428.334 235.27,428.818 236.27,428.136 240.019,424.547 242.98,420.53 245.14,416.146 246.624,410.927 246.638,410.904 246.209,410.894 245.271,410.758 243.864,410.372 243.507,410.225 " fill="none" stroke-width="0.5" stroke="rgb(0,0,0)" />
	<polygon points="377.343,413.597 377.343,417.615 377.342,417.753 377.325,418.476 377.308,418.805 377.265,419.344 379.471,418.75 381.041,418.933 382.284,419.218 383.916,419.782 385.021,420.298 386.633,421.264 387.596,421.984 389.103,423.372 389.893,424.264 390.625,425.279 390.548,425.055 390.278,423.898 390.082,422.382 390.045,421.26 390.075,420.786 390.195,419.914 390.303,419.413 390.525,418.695 389.02,418.535 387.955,418.321 384.395,417.256 383.561,416.937 380.223,415.357 379.546,414.98 377.339,413.555 " fill="none" stroke-width="0.5" stroke="rgb(0,0,0)" />
	<polygon points="164.514,413.657 164.518,414.517 164.198,419.201 164.081,420.036 163.347,423.454 164.993,421.745 168.31,421.003 170.465,421.583 172.32,422.485 172.029,420.637 171.979,419.199 172.012,418.831 172.239,417.651 172.335,417.331 172.886,416.061 173.043,415.791 173.927,414.631 174.144,414.409 175.22,413.542 175.494,413.37 176.412,412.916 176.241,412.854 173.457,411.702 172.974,411.476 170.338,410.095 169.876,409.826 167.449,408.259 166.986,407.927 164.829,406.219 164.344,405.788 163.866,405.316 " fill="none" stroke-width="0.5" stroke="rgb(0,0,0)" />
	<polygon points="296.216,419.824 296.396,419.867 296.678,419.94 296.939,419.59 293.713,419.262 " fill="none" stroke-width="0.5" stroke="rgb(0,0,0)" />
	<polygon points="257.22,396.418 257.49,397.306 257.657,398.064 257.782,398.929 257.838,399.752 257.826,400.712 257.73,401.723 257.513,402.844 257.238,403.775 256.799,404.852 256.359,405.686 255.711,406.664 255.17,407.327 257.286,408.15 257.782,408.37 260.642,409.797 261.025,410.006 263.808,411.663 264.127,411.868 266.745,413.664 267.038,413.878 269.402,415.723 269.7,415.972 271.722,417.777 272.069,418.113 272.562,418.631 272.763,418.587 273.021,418.537 274.306,418.315 274.552,418.278 275.886,418.106 276.119,418.08 277.502,417.957 277.721,417.942 279.154,417.867 279.36,417.86 280.842,417.836 281.078,417.836 283.209,417.886 283.473,417.898 285.675,418.048 285.924,418.07 288.205,418.323 288.436,418.353 288.808,418.409 279.687,415.426 278.516,414.895 269.91,409.802 268.913,409.06 261.812,402.504 261.036,401.631 257.174,396.3 " fill="none" stroke-width="0.5" stroke="rgb(0,0,0)" />
	<polygon points="348.564,394.844 348.02,395.753 344.508,400.574 347.773,400.006 348.455,399.928 352.962,399.676 353.504,399.671 357.298,399.808 357.767,399.844 361.238,400.248 361.79,400.339 364.882,401.001 365.558,401.188 367.973,402.015 367.82,401.411 368.071,398.108 362.974,399.25 360.364,399.243 359.214,398.979 357.21,398.103 356.133,397.368 355.017,396.379 354.038,395.26 353.429,394.426 352.572,393.009 352.212,392.312 351.503,390.683 351.271,390.055 351.118,389.553 " fill="none" stroke-width="0.5" stroke="rgb(0,0,0)" />
	<polygon points="217.995,386.762 216.852,386.978 207.036,387.85 205.867,387.837 198.816,387.059 199.837,388.438 200.282,389.136 202.119,392.521 202.484,393.334 203.626,396.498 203.914,397.648 204.092,398.871 204.101,398.853 204.538,398.089 207.359,393.919 208.719,392.495 212.674,389.546 215.062,388.486 220.747,387.367 222.338,387.274 223.383,387.354 224.066,387.447 225.314,387.691 225.861,387.826 226.057,387.884 225.993,387.595 225.874,386.799 225.791,385.779 225.791,384.817 225.821,384.46 " fill="none" stroke-width="0.5" stroke="rgb(0,0,0)" />
	<polygon points="308.497,392.763 308.056,392.893 304.844,393.702 304.303,393.812 300.595,394.384 299.997,394.446 295.755,394.663 295.041,394.656 291.527,394.41 290.727,394.298 288.761,393.885 291.481,395.178 297.456,396.794 304.321,397.389 307.684,397.249 310.713,396.85 312.818,396.351 311.229,394.139 310.974,393.307 310.892,391.957 " fill="none" stroke-width="0.5" stroke="rgb(0,0,0)" />
	<polygon points="139.121,367.504 145.479,371.449 146.465,372.217 151.966,377.524 152.727,378.422 154.036,380.321 153.798,379.334 152.862,377.142 151.517,375.06 149.7,373.071 147.34,371.184 144.37,369.435 140.739,367.878 138.459,367.188 " fill="none" stroke-width="0.5" stroke="rgb(0,0,0)" />
	<polygon points="246.182,367.287 245.585,368.279 241.519,373.745 240.675,374.66 240.033,375.222 240.467,375.382 241.706,376.014 242.59,376.606 243.559,377.417 244.302,378.188 244.866,378.896 245.217,378.88 246.07,378.904 247.316,379.029 248.531,379.282 249.466,379.583 248.113,374.59 247.931,373.574 247.179,365.186 " fill="none" stroke-width="0.5" stroke="rgb(0,0,0)" />
	<polygon points="77.932,367.213 78.905,369.674 80.1406,377.833 81.464,376.243 82.0745,375.612 84.583,373.377 85.3484,372.8 87.8276,371.228 88.8765,370.701 89.7535,370.365 88.9951,369.939 88.0589,369.287 86.5732,368.021 85.7987,367.224 84.5639,365.686 84.4478,365.511 84.4352,365.513 83.6154,365.658 83.3651,365.696 82.5235,365.807 81.8142,365.858 79.5007,365.882 78.3288,365.778 76.7344,365.472 " fill="none" stroke-width="0.5" stroke="rgb(0,0,0)" />
	<polygon points="170.56,371.338 171.297,373.845 171.715,374.909 171.848,374.938 172.168,374.984 172.492,375.011 172.829,375.021 173.298,375.015 173.822,374.998 174.359,374.972 174.911,374.941 175.465,374.908 175.494,374.906 175.508,374.906 174.632,374.143 173.908,373.388 169.71,368.159 " fill="none" stroke-width="0.5" stroke="rgb(0,0,0)" />
	<polygon points="354.099,363.144 352.575,364.637 352.942,364.738 355.176,367.299 355.671,370.338 355.273,374.199 355.835,373.879 357.083,373.288 357.694,373.04 359.262,372.503 359.723,372.366 361.435,371.931 364.352,370.962 363.566,370.736 362.486,370.308 360.611,369.339 359.616,368.692 358.025,367.41 357.177,366.572 355.896,365.02 355.236,364.034 354.504,362.658 " fill="none" stroke-width="0.5" stroke="rgb(0,0,0)" />
	<polygon points="100.232,372.457 98.212,372.553 98.9402,373.966 100.314,372.446 " fill="none" stroke-width="0.5" stroke="rgb(0,0,0)" />
	<polygon points="324.078,365.481 323.363,366.902 322.757,367.864 321.791,369.11 320.988,369.958 320.223,370.62 320.575,370.642 323.519,370.574 327.1,370.341 330.963,369.924 333.649,369.501 330.845,368.714 329.747,368.284 327.131,366.942 326.096,366.266 324.333,364.829 " fill="none" stroke-width="0.5" stroke="rgb(0,0,0)" />
	<polygon points="277.183,364.434 275.086,368.151 275.025,368.572 275.803,368.18 276.142,368.059 277.488,367.75 277.725,367.724 277.779,367.356 278.019,366.131 278.237,365.324 278.632,364.19 279.204,362.996 279.466,362.579 " fill="none" stroke-width="0.5" stroke="rgb(0,0,0)" />
	<polygon points="298.162,354.772 294.976,356.691 293.71,357.262 289.205,358.684 289.122,358.71 288.817,358.801 290.178,359.306 291.64,360.099 293.508,361.485 293.638,361.584 295.975,363.42 298.545,365.172 298.382,364.758 297.964,363.305 297.759,362.222 297.615,360.685 297.595,359.855 297.648,358.748 297.688,358.285 297.827,357.194 297.875,356.88 298.071,355.806 298.104,355.639 298.328,354.582 298.329,354.576 " fill="none" stroke-width="0.5" stroke="rgb(0,0,0)" />
	<polygon points="118.203,353.212 117.314,353.726 115.97,354.355 115.995,356.473 115.894,357.634 115.483,359.824 115.144,360.971 114.328,362.963 113.763,364.021 113.473,364.451 115.421,363.91 116.468,363.719 120.719,363.334 121.898,363.346 128.306,364.053 126.601,363.334 125.948,363.01 124.326,362.076 123.427,361.438 122.33,360.496 121.313,359.364 120.646,358.393 119.898,356.878 119.567,355.862 119.297,354.52 119.207,353.439 119.25,352.478 " fill="none" stroke-width="0.5" stroke="rgb(0,0,0)" />
	<polygon points="394.227,339.861 394.05,340.009 392.902,340.932 392.383,341.305 391.361,341.958 389.861,342.643 389.026,342.89 386.616,343.088 386.429,343.065 385.005,342.702 384.836,342.636 384.564,342.49 385.254,343.599 385.81,344.755 386.94,347.954 387.238,349.252 387.625,352.649 387.632,353.234 388.813,351.869 389.485,351.207 394.097,347.343 395.512,346.464 400.064,344.463 399.4,343.823 398.954,343.343 397.677,341.805 397.544,341.638 396.195,339.888 395.387,338.852 " fill="none" stroke-width="0.5" stroke="rgb(0,0,0)" />
	<polygon points="165.984,294.992 165.311,295.408 164.029,296.085 163.202,296.444 161.931,296.884 160.776,297.157 159.593,297.314 158.329,297.344 157.973,297.315 156.977,297.145 156.571,297.039 155.58,296.685 155.133,296.478 154.241,295.967 153.762,295.634 153.355,295.299 157.271,301.314 157.602,301.891 161.659,309.994 162.157,311.42 163.696,318.725 163.799,320.463 163.547,323.304 163.371,324.301 162.621,327.116 162.277,328.07 161.039,330.75 160.508,331.671 158.794,334.108 158.045,334.978 155.864,337.063 154.881,337.822 152.244,339.446 151.06,340.005 149.264,340.619 151.647,341.613 152.433,342.012 154.893,343.503 155.598,344.005 157.947,345.95 158.518,346.491 160.777,348.936 161.204,349.454 162.336,351.001 161.681,345.243 161.646,344.383 161.704,342.599 161.731,342.196 161.91,340.432 161.976,339.969 162.282,338.292 162.417,337.716 162.856,336.193 163.133,335.432 163.711,334.129 164.302,333.095 165.026,332.082 166.285,330.793 167.16,330.135 169.399,329.099 170.433,328.865 171.626,328.794 168.178,323.574 167.6,322.454 165.3,316.519 164.95,315.141 164.135,308.806 164.095,307.739 164.263,304.581 164.331,303.955 164.823,300.908 164.954,300.3 165.749,297.377 165.939,296.799 166.885,294.348 " fill="none" stroke-width="0.5" stroke="rgb(0,0,0)" />
	<polygon points="56.4141,335.854 57.2296,342.539 60.684,348.095 63.3215,350.705 63.2649,350.228 63.2397,347.766 63.3723,346.46 63.8637,344.184 64.2534,343.002 65.1819,340.945 65.7533,339.951 66.6015,338.76 66.2785,338.72 65.7607,338.633 62.8904,338.017 62.0945,337.787 59.6258,336.88 58.6262,336.402 56.6239,335.202 " fill="none" stroke-width="0.5" stroke="rgb(0,0,0)" />
	<polygon points="318.048,340.815 317.006,341.459 315.967,341.96 315.062,342.308 313.91,342.646 313.159,342.813 313.106,342.822 314.646,343.503 315.565,344.013 317.579,345.377 317.616,344.957 317.746,344.144 318.395,341.351 318.533,340.857 318.714,340.301 " fill="none" stroke-width="0.5" stroke="rgb(0,0,0)" />
	<polygon points="417.606,331.14 416.342,331.488 415.411,331.666 413.624,331.86 413.417,331.878 411.704,332.003 411.869,332.927 412.124,334.349 412.14,334.441 412.364,335.81 412.396,336.031 412.554,337.301 412.591,337.718 412.651,338.846 412.657,339.33 412.648,339.663 412.619,340.093 412.585,340.428 412.492,341.03 412.425,341.352 412.191,342.175 412.121,342.366 412.655,342.357 418.003,342.813 418.996,342.984 424.021,344.3 423.587,343.943 420.315,340.225 418.995,337.654 417.754,332.281 417.673,331.096 " fill="none" stroke-width="0.5" stroke="rgb(0,0,0)" />
	<polygon points="121.375,323.993 120.264,324.513 119.458,324.793 119.72,324.972 120.569,325.68 122.113,327.234 122.811,328.084 124.057,329.922 124.594,330.905 125.486,332.985 125.835,334.085 126.318,336.361 126.446,337.64 126.426,339.879 126.303,341.022 126.089,342.054 126.685,341.703 128.666,340.741 129.41,340.44 131.589,339.727 132.303,339.542 133.129,339.383 131.5,338.441 130.525,337.735 128.619,336.034 127.849,335.2 126.352,333.229 125.781,332.313 124.702,330.168 124.312,329.181 123.659,326.96 123.448,325.881 123.229,323.68 123.222,322.879 " fill="none" stroke-width="0.5" stroke="rgb(0,0,0)" />
	<polygon points="385.676,308.723 384.612,310.228 383.593,312.008 382.692,313.951 382.034,315.755 381.809,316.912 381.604,319.158 381.428,322.124 381.241,325.309 381.229,325.474 380.967,328.479 380.915,328.899 380.511,331.421 380.248,332.453 379.635,334.188 378.477,335.74 379.362,336.372 380.202,337.102 380.746,337.673 380.615,336.871 380.599,336.678 380.653,335.26 380.931,333.524 381.173,332.552 381.906,330.404 382.04,330.05 383.077,327.549 383.098,327.498 384.255,324.782 385.348,322.004 386.242,319.253 386.827,316.625 387.047,313.982 387.022,312.637 386.912,310.876 386.693,309.11 386.43,307.88 " fill="none" stroke-width="0.5" stroke="rgb(0,0,0)" />
	<polygon points="321.706,325.159 320.405,326.045 320.35,326.071 320.451,326.187 321.058,327.078 321.722,328.371 322.05,329.266 322.265,330.177 322.388,329.797 322.889,327.611 323.067,325.559 323.048,325.05 322.974,324.423 322.848,323.816 322.818,323.715 " fill="none" stroke-width="0.5" stroke="rgb(0,0,0)" />
	<polygon points="75.2973,307.318 73.7424,311.635 72.7895,315.289 72.4698,318.25 72.5023,319.402 72.6369,320.677 72.8888,321.866 73.2956,323.047 73.9249,324.31 74.8717,325.724 75.0926,325.982 75.445,325.044 75.9405,324.032 77.0448,322.234 77.7331,321.324 79.1508,319.785 80.0011,319.025 81.7022,317.778 82.6704,317.201 84.6246,316.278 85.6582,315.903 87.8356,315.336 88.3142,315.259 87.2837,315.159 86.1784,314.944 84.4747,314.439 83.4301,314.018 81.8361,313.19 80.8738,312.565 79.4448,311.424 78.6019,310.601 77.3933,309.157 76.72,308.162 75.787,306.426 75.7336,306.297 " fill="none" stroke-width="0.5" stroke="rgb(0,0,0)" />
	<polygon points="348.994,305.335 348.571,305.378 345.812,305.558 344.893,305.547 344.426,305.504 344.478,306.433 344.377,307.679 344.172,308.814 343.858,309.92 343.314,311.219 342.77,312.177 341.843,313.404 341.054,314.206 339.909,315.112 339.42,315.409 340.296,315.811 341.159,316.298 346.018,319.611 346.797,320.245 350.814,324.131 351.415,324.822 351.767,323.745 352.341,322.435 352.545,322.017 353.357,320.501 353.457,320.323 353.895,319.569 352.774,319.303 352.523,319.237 350.675,318.712 349.843,318.406 348.536,317.811 346.139,315.813 345.643,315.101 344.587,311.871 345.122,309.27 345.325,308.826 347.238,306.499 347.811,306.087 348.912,305.461 349.299,305.293 " fill="none" stroke-width="0.5" stroke="rgb(0,0,0)" />
	<polygon points="97.7577,313.533 96.5593,314.056 94.0448,314.835 92.8593,315.073 92.8237,315.076 94.8145,315.353 95.9794,315.638 98.0217,316.363 99.0608,316.851 99.6291,317.189 99.0641,315.903 98.7477,314.983 98.3506,313.419 98.3155,313.212 " fill="none" stroke-width="0.5" stroke="rgb(0,0,0)" />
	<polygon points="139.86,315.733 139.877,316.077 139.881,316.274 139.882,316.285 139.957,316.293 140.016,316.287 139.838,315.452 " fill="none" stroke-width="0.5" stroke="rgb(0,0,0)" />
	<polygon points="402.044,304.195 403.01,306.132 404.353,308.152 405.997,310.133 407.844,311.969 409.784,313.569 411.331,314.606 410.969,313.963 408.845,310.515 406.436,307.322 403.866,304.842 401.884,303.695 " fill="none" stroke-width="0.5" stroke="rgb(0,0,0)" />
	<polygon points="436.617,311.725 436.379,311.819 435.6,312.065 435.313,312.134 434.744,312.241 434.407,312.288 434,312.33 433.615,312.357 433.323,312.37 432.889,312.378 432.604,312.377 431.835,312.354 431.595,312.342 430.749,312.283 430.615,312.272 429.713,312.189 429.658,312.183 428.723,312.088 427.809,311.996 427.777,311.993 427.763,312.79 427.757,312.981 427.682,314.466 427.794,314.405 428.879,313.954 431.036,313.299 432.177,313.072 434.482,312.847 435.267,312.823 437.309,312.897 437.573,312.917 437.554,312.545 437.566,311.79 437.611,311.218 " fill="none" stroke-width="0.5" stroke="rgb(0,0,0)" />
	<polygon points="129.096,294.328 130.481,300.436 130.604,301.224 131.13,307.194 131.125,308.278 130.999,309.592 131.427,309.449 133.851,309.175 134.031,309.192 135.536,309.54 135.685,309.596 137.394,310.588 137.515,310.689 138.747,312.104 138.842,312.256 139.415,313.473 139.155,312.252 136.231,306.185 131.651,298.51 129.091,294.312 " fill="none" stroke-width="0.5" stroke="rgb(0,0,0)" />
	<polygon points="312.484,303.173 311.691,303.811 307.101,306.895 306.662,307.128 307.778,307.175 308.286,307.219 310.925,307.561 311.466,307.656 313.869,308.199 314.481,308.372 315.005,308.551 314.855,308.305 313.982,306.373 313.519,304.791 313.203,302.616 313.202,302.485 " fill="none" stroke-width="0.5" stroke="rgb(0,0,0)" />
	<polygon points="108.954,292.381 108.678,296.587 108.552,297.468 107.866,300.584 108.557,300.636 108.841,300.794 110.054,302.003 110.087,301.159 109.773,296.575 108.957,292.302 " fill="none" stroke-width="0.5" stroke="rgb(0,0,0)" />
	<polygon points="434.952,291.304 434.279,292.427 434.019,292.824 433.068,294.156 432.99,294.262 431.923,295.687 431.417,296.382 432.461,296.973 434.378,298.008 434.516,298.085 436.221,299.065 436.775,299.426 437.887,300.243 436.006,294.021 435.018,291.155 " fill="none" stroke-width="0.5" stroke="rgb(0,0,0)" />
	<polygon points="458.686,287.651 457.632,288.138 456.474,289.097 455.146,290.702 453.705,292.929 453.228,293.776 454.706,293.625 456.242,293.67 459.43,294.184 461.111,294.722 461.613,294.971 461.595,294.877 461.576,294.874 461.584,294.82 461.58,294.802 461.599,294.712 461.604,294.663 461.613,294.528 461.62,294.325 461.625,294.062 461.627,293.744 461.627,293.522 461.555,292.04 461.349,290.635 461.012,289.334 460.593,288.302 460.201,287.674 460.012,287.485 459.945,287.474 " fill="none" stroke-width="0.5" stroke="rgb(0,0,0)" />
	<polygon points="90.0347,277.213 89.9563,277.377 87.0427,283.254 86.9925,283.353 84.6375,287.887 83.6801,289.735 83.977,289.826 85.9281,290.851 86.4496,291.265 87.022,291.785 87.5868,292.37 88.0582,292.857 88.2377,293.013 88.9184,292.92 88.9258,292.916 89.0707,292.74 89.5341,291.612 90.0102,289.298 90.3325,285.915 90.4875,281.597 90.5244,276.398 90.5327,276.125 " fill="none" stroke-width="0.5" stroke="rgb(0,0,0)" />
	<polygon points="54.6452,275.454 54.6341,276.651 54.9006,277.917 55.6594,279.539 55.9579,280.01 56.4276,280.735 56.4664,280.796 56.9115,281.502 57.0325,281.702 57.424,282.381 57.6199,282.751 57.9457,283.421 58.1829,283.982 58.4306,284.663 58.6459,285.401 58.8035,286.11 58.9282,286.96 58.9834,287.716 58.9287,289.039 60.5536,286.048 61.3055,282.774 61.2907,282.674 61.2418,282.49 61.1788,282.331 61.0845,282.157 60.9288,281.937 60.6761,281.651 60.1037,281.121 60.09,281.109 58.1679,279.318 57.8185,278.964 56.3044,277.294 56.0866,277.039 54.8639,275.526 54.8329,275.487 54.6796,275.294 " fill="none" stroke-width="0.5" stroke="rgb(0,0,0)" />
	<polygon points="427.838,275.283 427.145,278.346 426.678,279.217 424.263,281.631 422.99,282.314 421.855,282.777 419.964,283.328 419.502,283.442 417.184,283.919 417.041,283.947 414.521,284.401 412.094,284.869 410.065,285.363 408.482,285.925 407.184,286.528 406.427,286.949 406.637,286.953 410.25,286.722 413.483,286.126 416.474,285.263 419.21,284.241 421.687,283.168 423.854,282.183 424.061,282.093 425.801,281.381 426.78,281.077 428.021,280.807 429.769,280.693 429.957,280.708 430.999,280.892 428.998,276.669 427.234,273.57 " fill="none" stroke-width="0.5" stroke="rgb(0,0,0)" />
	<polygon points="157.625,223.613 156.428,225.644 155.404,227.426 154.71,228.85 154.631,229.09 156.382,231.595 156.673,233.689 156.613,235.116 156.596,235.379 156.437,237.201 156.425,237.325 156.2,239.397 156.193,239.454 155.936,241.63 155.934,241.643 155.678,243.763 155.461,245.647 155.32,247.082 155.28,247.841 155.311,248.86 157.145,250.013 158.371,252.267 158.836,253.891 158.948,254.349 159.313,256.16 159.363,256.445 159.655,258.373 159.677,258.532 159.921,260.51 159.928,260.564 160.148,262.499 160.364,264.26 160.569,265.602 161.983,266.114 163.953,268.69 164.493,270.066 165.058,271.494 165.64,272.878 166.243,274.166 166.859,275.299 167.46,276.212 167.998,276.857 168.815,277.577 169.057,277.787 169.473,278.184 169.743,278.467 170.077,278.85 170.339,279.178 170.635,279.582 170.878,279.945 171.157,280.407 171.367,280.794 171.637,281.36 171.803,281.761 172.048,282.486 172.157,282.891 172.33,283.844 172.369,284.243 172.325,285.408 172.584,285.075 172.939,284.66 174.939,282.532 176.058,281.885 175.329,281.39 174.731,280.925 170.617,277.281 169.685,276.232 166.774,272.046 165.867,269.994 164.763,265.169 164.844,262.224 165.985,258.25 167.111,256.117 170.121,252.482 170.949,251.662 175.204,248.211 175.533,247.962 180.37,244.57 184.96,241.235 188.496,238.06 190.461,235.285 191.146,232.382 191.076,231.769 190.931,230.924 190.722,229.992 190.454,229.027 190.449,229.012 190.389,229.491 190.019,230.932 188.671,234.326 188.049,235.492 186.014,238.452 185.34,239.265 182.789,241.836 182.198,242.357 179.303,244.584 178.846,244.903 175.778,246.832 175.466,247.015 172.398,248.691 172.236,248.776 169.34,250.244 165.994,250.842 162.874,249.495 161.014,246.651 160.902,243.754 161.144,242.618 161.353,241.531 161.538,240.444 161.695,239.359 161.822,238.274 161.916,237.19 161.974,236.106 161.992,235.11 161.893,233.096 161.587,231.166 161.031,229.221 160.168,227.226 158.924,225.145 157.665,223.542 " fill="none" stroke-width="0.5" stroke="rgb(0,0,0)" />
	<polygon points="391.233,273.822 390.922,275.873 390.812,277.714 390.858,278.807 390.919,279.271 391.22,278.339 391.489,276.913 391.593,275.264 391.548,273.075 391.514,272.486 " fill="none" stroke-width="0.5" stroke="rgb(0,0,0)" />
	<polygon points="339.64,273.301 338.652,274.365 338.303,275.745 338.316,275.85 338.359,275.947 338.436,276.036 338.758,276.26 339.415,276.545 340.343,276.791 341.275,276.924 341.238,276.568 341.234,276.523 341.177,275.933 341.166,275.802 341.126,275.258 341.113,275.009 341.098,274.52 341.121,273.791 341.145,273.529 341.343,272.469 341.383,272.327 " fill="none" stroke-width="0.5" stroke="rgb(0,0,0)" />
	<polygon points="129.964,231.483 129.301,233.673 128.789,235.923 128.418,238.163 128.176,240.323 128.045,242.333 128.013,243.771 129.396,253.683 133.073,263.437 138.491,273.27 139.537,274.855 139.933,274.027 139.871,273.681 139.443,272.719 138.453,271.069 137.102,268.996 137.019,268.863 135.609,266.567 135.367,266.132 134.137,263.689 133.81,262.904 132.941,260.296 132.678,259.123 132.348,256.335 132.938,252.988 133.975,251.911 133.932,251.51 133.549,249.93 132.894,247.806 132.079,245.358 132.065,245.316 131.229,242.741 131.167,242.537 130.438,239.979 130.338,239.573 129.822,237.115 129.718,236.409 129.523,234.132 130.205,230.872 " fill="none" stroke-width="0.5" stroke="rgb(0,0,0)" />
	<polygon points="420.78,265.236 420.603,265.692 419.959,267.167 419.87,267.362 419.491,268.15 420.007,268.264 420.271,268.329 421.896,268.767 422.713,269.053 423.862,269.552 425.706,271.028 423.035,267.181 420.944,264.756 " fill="none" stroke-width="0.5" stroke="rgb(0,0,0)" />
	<polygon points="352.223,267.927 352.423,268.01 352.43,267.827 " fill="none" stroke-width="0.5" stroke="rgb(0,0,0)" />
	<polygon points="361.462,260.63 361.967,260.603 362.155,260.596 363.046,260.577 363.032,260.354 363.028,260.3 362.972,259.303 362.967,259.209 362.927,258.225 362.923,258.08 362.916,257.639 " fill="none" stroke-width="0.5" stroke="rgb(0,0,0)" />
	<polygon points="402.383,254.384 403.349,255.239 404.01,255.926 404.972,257.104 405.186,257.383 406.138,258.701 406.261,258.869 407.06,258.253 408.329,257.231 408.443,257.142 409.416,256.397 407.144,255.525 401.794,254.023 401.773,254.017 " fill="none" stroke-width="0.5" stroke="rgb(0,0,0)" />
	<polygon points="446.808,253.529 446.81,253.535 448.164,256.9 448.194,256.977 448.722,258.346 448.776,258.248 450.458,255.267 450.511,255.174 451.177,254.042 451.147,254.027 450.945,253.919 447.49,252.001 447.143,251.793 445.741,250.884 " fill="none" stroke-width="0.5" stroke="rgb(0,0,0)" />
	<polygon points="382.342,243.476 381.893,244.572 381.273,245.735 380.605,246.73 379.78,247.722 378.929,248.559 377.924,249.363 376.938,250.003 375.777,250.601 375.57,250.683 375.725,250.821 376.374,251.498 377.493,252.869 377.737,253.189 378.604,254.414 379.376,253.604 379.602,253.379 380.789,252.26 381.443,251.725 382.57,250.934 384.324,250.092 385.363,249.792 387.506,249.582 387.806,249.607 389.095,249.865 389.349,249.946 390.866,250.682 391.077,250.825 392.372,252.02 392.54,252.23 393.315,253.494 393.443,253.778 393.464,253.839 393.697,253.652 393.905,253.523 395.179,252.931 395.411,252.855 396.665,252.591 396.406,252.518 395.835,252.327 391.023,250.436 389.782,249.768 385.904,247.036 384.338,245.4 382.582,242.666 " fill="none" stroke-width="0.5" stroke="rgb(0,0,0)" />
	<polygon points="358.892,246.769 357.956,247.401 355.905,248.515 355.192,248.816 358.155,249.063 361.318,250.308 363.269,253.091 363.242,253.485 363.334,253.101 363.45,252.718 363.887,251.657 364.041,251.369 364.794,250.386 363.999,249.961 363.059,249.335 362.069,248.53 361.26,247.73 360.432,246.737 359.893,245.943 " fill="none" stroke-width="0.5" stroke="rgb(0,0,0)" />
	<polygon points="313.137,224.193 312.08,224.645 310.222,225.233 309.051,225.476 307.495,225.637 308.286,228.084 309.591,229.552 312.018,230.996 315.563,232.536 315.781,232.635 319.581,234.472 320.64,235.131 323.905,237.677 325.339,239.298 327.624,243.113 328.201,244.718 328.366,244.587 329.483,243.889 330.489,243.387 331.657,242.937 332.564,242.668 333.664,242.437 333.216,241.775 332.102,239.727 331.652,238.663 330.948,236.403 330.711,235.242 330.573,233.879 330.043,234.044 328.885,234.28 327.48,234.423 326.286,234.422 324.892,234.28 323.728,234.041 322.425,233.633 321.362,233.181 320.179,232.536 319.245,231.903 318.213,231.049 317.423,230.259 316.569,229.224 315.938,228.29 315.292,227.103 314.842,226.04 314.433,224.731 314.203,223.608 " fill="none" stroke-width="0.5" stroke="rgb(0,0,0)" />
	<polygon points="464.21,216.875 464.175,217.285 463.839,220.066 463.806,220.3 463.33,223.241 463.31,223.354 462.765,226.355 462.762,226.369 462.224,229.285 461.774,231.952 461.48,234.208 461.387,235.834 461.464,236.828 461.676,237.768 461.711,237.862 463.103,235.866 464.51,233.291 465.663,230.453 466.417,227.545 466.676,224.765 466.113,219.715 464.687,215.815 464.294,215.225 " fill="none" stroke-width="0.5" stroke="rgb(0,0,0)" />
	<polygon points="103.802,237.449 105.128,235.822 104.004,235.331 " fill="none" stroke-width="0.5" stroke="rgb(0,0,0)" />
	<polygon points="380.064,226.934 379.266,227.733 378.051,228.736 377.721,228.958 377.908,229.08 378.913,229.878 379.723,230.658 379.963,230.938 380.025,230.058 380.095,229.474 380.452,227.392 380.517,227.067 380.735,226.121 " fill="none" stroke-width="0.5" stroke="rgb(0,0,0)" />
	<polygon points="133.413,217.974 129.373,219.253 129.158,219.35 129.674,219.479 131.967,221.988 132.496,225.345 131.898,227.242 130.779,229.421 130.24,230.785 132.635,228.415 132.811,228.37 132.848,227.902 132.873,227.655 133.174,225.187 133.222,224.865 133.682,222.287 133.768,221.882 134.426,219.27 134.576,218.77 134.957,217.674 " fill="none" stroke-width="0.5" stroke="rgb(0,0,0)" />
	<polygon points="47.7059,226.604 47.1839,226.825 44.6564,227.755 44.5921,227.774 45.7694,228.715 46.0523,229.008 46.9022,230.132 46.9779,230.262 48.1266,226.402 " fill="none" stroke-width="0.5" stroke="rgb(0,0,0)" />
	<polygon points="84.4937,213.549 84.1909,213.75 84.6031,213.993 85.1746,214.441 86.1492,215.409 86.612,215.991 87.2349,216.952 87.5911,217.64 87.958,218.515 88.2098,219.283 88.4081,220.064 88.5576,220.885 88.6431,221.599 88.6925,222.447 88.6605,223.492 88.4585,225.178 88.9294,224.722 89.666,224.119 90.7854,223.398 91.5222,223.034 93.1606,222.504 93.8895,222.382 95.6887,222.358 96.3325,222.449 97.9162,222.904 98.5278,223.177 99.8438,223.986 100.407,224.444 101.354,225.415 101.381,225.451 101.377,225.136 101.393,224.626 101.696,220.549 101.826,219.678 102.668,215.978 102.918,215.157 103.79,212.903 102.14,213.5 100.777,213.817 97.7793,214.147 96.4791,214.146 93.2899,213.79 91.9666,213.485 89.1024,212.466 87.8952,211.873 86.5993,211.042 " fill="none" stroke-width="0.5" stroke="rgb(0,0,0)" />
	<polygon points="449.063,207.302 446.238,208.478 446.13,208.521 442.541,209.932 442.218,210.048 437.908,211.459 437.451,211.588 432.331,212.819 431.796,212.921 425.774,213.792 425.207,213.846 420.788,214.054 421.178,214.2 425.622,216.361 426.809,217.126 430.503,220.19 431.421,221.145 434.084,224.625 435.526,221.272 436.091,220.25 438.614,216.596 439.175,215.903 442.159,212.734 442.682,212.243 445.812,209.64 446.33,209.255 449.291,207.297 449.645,207.093 " fill="none" stroke-width="0.5" stroke="rgb(0,0,0)" />
	<polygon points="65.1357,214.302 63.8466,215.799 62.7458,216.71 63.2719,216.952 64.7697,217.939 65.2866,218.407 66.2848,219.582 66.6846,220.202 67.2234,221.255 67.5164,222.006 67.7725,222.839 67.969,223.7 68.0044,223.906 68.6659,222.277 69.0456,221.508 71.7102,216.974 72.5072,216.147 71.696,216.079 70.6908,215.907 68.6191,215.365 67.6052,214.998 65.7347,214.119 65.2553,213.834 " fill="none" stroke-width="0.5" stroke="rgb(0,0,0)" />
	<polygon points="185.536,211.436 187.509,213.724 188.31,214.923 189.519,217.324 189.977,218.562 190.266,219.731 193.078,217.973 196.264,218.428 195.93,217.886 195.339,215.751 194.721,214.573 193.911,213.64 192.764,212.803 191.113,212.041 188.865,211.419 186.006,211.012 185.032,210.971 " fill="none" stroke-width="0.5" stroke="rgb(0,0,0)" />
	<polygon points="337.935,212.726 336.772,213.351 337.23,213.904 337.864,214.84 338.512,216.027 338.926,217.001 340.289,216.26 339.45,215.244 338.817,214.308 338.171,213.12 337.989,212.69 " fill="none" stroke-width="0.5" stroke="rgb(0,0,0)" />
	<polygon points="401.238,211.963 402.083,213.13 403.399,212.23 402.815,212.07 400.331,210.998 " fill="none" stroke-width="0.5" stroke="rgb(0,0,0)" />
	<polygon points="381.121,198.588 380.689,199.963 380.237,201.026 379.555,202.274 378.924,203.206 378.022,204.295 377.234,205.082 376.973,205.298 377.106,205.371 378.048,206.005 379.264,207.007 380.061,207.804 381.064,209.018 381.633,209.861 382.572,206.643 385.165,204.447 388.347,204.514 383.089,200.226 382.109,199.21 381.232,198.048 " fill="none" stroke-width="0.5" stroke="rgb(0,0,0)" />
	<polygon points="57.5856,202.781 57.1688,203.153 55.3886,204.599 54.8989,204.956 53.112,206.125 52.5418,206.454 51.2642,207.099 51.9231,206.981 54.0456,206.554 56.3213,206.06 58.4699,205.571 58.004,204.098 57.758,202.899 57.7321,202.636 " fill="none" stroke-width="0.5" stroke="rgb(0,0,0)" />
	<polygon points="180.418,186.185 180.499,186.165 181.979,185.886 179.952,184.901 " fill="none" stroke-width="0.5" stroke="rgb(0,0,0)" />
	<polygon points="366.914,167.644 366.118,168.438 365.134,169.248 364.194,169.881 363.065,170.493 362.826,170.594 362.908,170.693 363.54,171.624 364.579,173.522 365.032,174.585 365.69,176.678 365.931,177.845 366.161,180.084 366.161,181.291 366.053,182.336 366.228,182.3 367.683,182.149 368.89,182.148 370.362,182.299 371.526,182.538 371.735,182.604 371.182,181.472 370.851,180.641 368.085,171.792 367.909,171.077 367.224,167.269 " fill="none" stroke-width="0.5" stroke="rgb(0,0,0)" />
	<polygon points="151.269,172.351 150.542,172.653 146.094,174.164 145.312,174.371 141.173,175.168 142.146,175.846 142.851,176.423 146.245,179.669 146.716,180.175 147.974,181.697 148.33,179.436 148.539,178.555 149.498,175.559 150.171,174.14 151.366,172.303 " fill="none" stroke-width="0.5" stroke="rgb(0,0,0)" />
	<polygon points="109.159,159.97 108.527,160.905 107.672,161.941 106.881,162.732 105.846,163.588 104.911,164.221 103.725,164.868 102.661,165.32 101.353,165.729 100.19,165.968 98.7883,166.11 97.5947,166.111 96.1877,165.968 95.0275,165.731 93.7148,165.321 92.652,164.872 91.4623,164.225 90.527,163.594 90.3991,163.488 89.6783,165.326 92.3631,165.368 95.706,166.606 96.3595,166.894 99.735,168.632 100.349,168.997 103.609,171.212 104.215,171.683 107.213,174.35 107.817,174.972 110.406,178.064 110.982,178.886 112.364,181.263 112.871,179.638 113.319,178.579 114.362,176.66 115.19,175.498 116.576,173.981 117.789,172.967 119.43,171.935 118.021,171.129 116.971,170.363 114.077,167.719 113.257,166.793 111.034,163.682 110.464,162.693 109.196,159.902 " fill="none" stroke-width="0.5" stroke="rgb(0,0,0)" />
	<polygon points="309.583,169.046 309.084,170.08 308.31,171.285 307.721,171.994 306.727,172.654 307.423,172.511 308.824,172.368 310.018,172.368 311.425,172.511 312.584,172.748 313.851,173.142 313.905,172.874 314.291,171.63 314.739,170.567 314.964,170.153 314.794,170.125 312.59,169.676 312.185,169.579 310.337,169.065 310.01,168.963 309.67,168.847 " fill="none" stroke-width="0.5" stroke="rgb(0,0,0)" />
	<polygon points="344.021,162.837 343.044,163.65 338.937,166.373 337.938,166.905 335.566,167.889 336.065,168.493 336.534,169.186 336.658,169.036 337.445,168.25 339.105,166.878 340.035,166.249 341.934,165.211 342.995,164.76 345.088,164.103 346.065,163.902 345.906,163.527 345.519,162.282 345.352,161.463 " fill="none" stroke-width="0.5" stroke="rgb(0,0,0)" />
	<polygon points="163.791,164.272 160.203,167.159 159.739,167.497 159.27,167.804 159.91,167.695 162.039,167.72 163.767,168.059 165.222,168.547 165.488,168.677 165.46,168.615 163.806,164.26 " fill="none" stroke-width="0.5" stroke="rgb(0,0,0)" />
	<polygon points="422.525,142.596 421.434,143.9 418.693,146.352 417.677,147.082 414.062,149.139 413.22,149.534 409.256,151.024 409.737,151.04 417.07,151.7 418.214,151.918 424.633,153.815 425.722,154.259 431.408,157.271 432.275,157.832 437.162,161.643 435.001,157.55 434.548,156.422 432.702,149.984 432.746,146.586 433.028,146.171 431.625,145.803 430.75,145.498 429.071,144.76 428.025,144.166 426.665,143.198 425.562,142.179 424.552,140.974 424.037,140.139 " fill="none" stroke-width="0.5" stroke="rgb(0,0,0)" />
	<polygon points="353.973,134.875 354.024,135.21 354.192,136.553 354.229,136.984 354.286,138.104 354.267,138.96 353.64,145.56 353.391,146.787 353.163,147.503 353.331,147.433 354.579,147.046 355.735,146.811 357.076,146.676 358.258,146.676 359.597,146.811 360.754,147.046 362.001,147.433 363.067,147.882 364.196,148.494 365.137,149.129 366.121,149.94 366.918,150.736 367.004,150.841 367.912,149.732 367.969,149.678 369.484,148.648 369.547,148.619 370.056,148.467 365.541,145.821 364.639,145.171 359.302,140.502 358.589,139.759 354.341,134.475 353.784,133.647 353.73,133.551 " fill="none" stroke-width="0.5" stroke="rgb(0,0,0)" />
	<polygon points="130.289,134.139 129.62,134.502 129.05,134.863 128.671,135.143 128.301,135.471 125.216,136.897 124.292,136.756 124.386,136.849 125.15,138.472 125.589,139.783 126.067,142.076 126.112,142.321 126.511,144.741 126.953,146.587 127.095,146.891 127.213,146.813 127.67,146.397 128.198,145.751 128.765,144.815 129.36,143.454 129.672,142.505 129.994,141.389 130.269,140.28 130.496,139.19 130.673,138.129 130.798,137.111 130.873,136.148 130.896,135.26 130.857,133.977 130.847,133.887 " fill="none" stroke-width="0.5" stroke="rgb(0,0,0)" />
	<polygon points="101.953,138.118 101.81,139.523 101.572,140.685 101.527,140.828 102.661,141.182 103.724,141.633 104.91,142.279 105.844,142.911 106.879,143.767 107.611,144.499 107.745,143.724 107.848,143.247 108.305,141.482 108.515,140.831 108.846,139.978 107.704,140.268 105.21,139.594 102.573,138.205 101.953,137.564 " fill="none" stroke-width="0.5" stroke="rgb(0,0,0)" />
	<polygon points="326.153,138.349 326.292,138.73 326.614,140.107 326.662,140.54 326.667,141.788 326.588,142.562 326.49,143.097 326.588,143.089 329.367,142.401 329.579,142.307 329.264,142.227 327.088,139.917 326.61,139.006 326.147,138.278 326.052,138.154 " fill="none" stroke-width="0.5" stroke="rgb(0,0,0)" />
	<polygon points="58.7069,137.506 59.2523,137.4 58.7718,137.245 " fill="none" stroke-width="0.5" stroke="rgb(0,0,0)" />
	<polygon points="314.872,123.331 313.349,123.742 312.011,124.366 310.854,125.163 309.894,126.083 309.158,127.058 308.667,127.995 308.238,129.347 306.534,131.844 307.285,132.342 308.393,132.934 309.442,133.359 310.48,133.649 311.565,133.822 312.806,133.885 313.166,133.874 313.687,133.833 314.292,133.767 314.957,133.681 315.644,133.589 315.692,133.582 316.346,133.499 316.503,133.482 317.092,133.423 317.418,133.4 317.924,133.377 318.519,133.381 319.083,133.414 319.834,133.505 320.03,133.542 319.711,133.345 319.349,133.083 318.649,132.487 318.348,132.188 317.748,131.489 317.506,131.159 317.032,130.394 316.848,130.039 316.507,129.247 316.378,128.873 316.165,128.084 316.09,127.698 315.991,126.933 315.966,126.54 315.986,125.557 316.063,124.814 316.268,123.771 316.436,123.195 " fill="none" stroke-width="0.5" stroke="rgb(0,0,0)" />
	<polygon points="123.586,111.989 122.001,118.333 121.974,118.435 120.248,124.851 120.132,125.229 118.216,130.825 117.805,131.754 117.053,133.124 119.135,133.315 118.493,130.811 118.941,128.789 120.784,124.358 121.19,123.56 123.532,119.707 124.08,118.948 126.864,115.677 127.542,115 129.398,113.427 128.417,112.685 127.647,111.987 126.145,110.365 125.885,110.064 124.57,108.436 " fill="none" stroke-width="0.5" stroke="rgb(0,0,0)" />
	<polygon points="93.8111,111.784 93.7125,111.878 91.5359,113.899 91.1471,114.23 88.8839,115.993 88.0346,116.544 85.6965,117.791 84.0603,118.374 81.659,118.847 79.8915,118.924 79.3097,118.862 79.3438,119.063 79.4176,119.716 79.6064,123.031 79.6144,123.497 79.5827,124.924 79.5715,125.179 79.4805,126.568 79.4596,126.81 79.3153,128.156 79.2862,128.386 79.1381,129.394 79.6026,128.83 80.3927,128.039 81.4274,127.182 82.3624,126.549 83.5485,125.901 84.6132,125.449 85.9221,125.039 87.0866,124.8 88.4897,124.657 89.6851,124.657 91.0902,124.8 92.2531,125.038 93.564,125.448 94.6277,125.899 95.8156,126.547 96.7505,127.179 97.0707,127.444 96.6198,125.443 96.5276,124.929 95.7339,118.994 95.7182,118.867 95.0679,113.041 94.7449,110.876 " fill="none" stroke-width="0.5" stroke="rgb(0,0,0)" />
	<polygon points="184.036,107.695 184.086,108.791 184.044,109.682 183.977,110.334 183.845,111.16 183.655,111.972 183.425,112.715 183.021,113.699 182.685,114.344 181.949,115.438 181.498,115.969 180.373,116.991 179.799,117.39 178.412,118.104 177.708,118.356 176.332,118.668 175.488,118.756 173.35,118.586 171.486,118.085 173.035,120.643 173.495,121.58 175.182,125.962 175.446,126.848 175.739,128.219 177.013,127.085 177.566,126.65 180.566,124.564 181.287,124.134 184.408,122.568 185.33,122.199 188.551,121.214 189.669,120.988 192.973,120.646 194.235,120.651 196.795,120.936 193.905,118.085 193.546,117.698 189.302,112.686 189.11,112.445 184.6,106.518 184.448,106.31 183.689,105.215 " fill="none" stroke-width="0.5" stroke="rgb(0,0,0)" />
	<polygon points="384.934,94.8483 378.757,99.4696 377.786,100.059 370.838,103.411 369.824,103.79 362.325,105.832 361.547,105.971 362.243,105.924 365.337,105.547 368.754,104.854 372.484,103.715 376.645,101.936 377.059,101.725 377.394,101.568 377.981,101.315 378.325,101.18 378.908,100.971 379.259,100.857 379.836,100.69 380.194,100.598 380.763,100.471 381.125,100.403 381.684,100.314 382.05,100.268 382.596,100.217 382.965,100.193 383.497,100.176 384.574,100.241 386.539,100.541 388.524,101.222 389.941,102.013 391.379,103.139 392.423,104.257 393.036,105.036 393.881,106.318 393.925,106.386 394.37,107.082 394.561,107.064 395.682,106.799 397.118,106.329 398.76,105.711 400.475,105.046 400.626,104.99 402.277,104.403 402.699,104.27 404.218,103.854 405.089,103.685 406.436,103.527 409.087,103.824 411.129,104.544 413.153,105.76 415.296,107.726 416.073,108.595 418.202,111.511 418.585,112.107 420.586,115.679 420.825,116.156 422.582,120.088 422.764,120.548 424.161,124.545 424.323,125.089 424.803,127.051 425.104,126.65 425.929,125.757 426.934,124.872 426.414,124.516 425.483,123.723 424.576,122.772 423.841,121.825 423.05,120.559 422.576,119.623 422.071,118.361 421.851,117.7 421.479,116.313 421.404,115.996 421.098,114.54 421.095,114.527 420.82,113.198 420.565,112.212 420.355,111.657 420.29,111.546 419.84,111.09 418.248,108.087 418.578,104.705 420.212,102.689 419.919,102.701 419.618,102.705 416.331,102.673 416.216,102.67 412.883,102.572 412.771,102.568 409.402,102.404 409.291,102.398 405.894,102.169 405.784,102.16 402.369,101.866 402.259,101.856 398.834,101.496 398.724,101.484 395.297,101.059 395.186,101.044 391.768,100.554 391.687,100.542 391.212,100.468 390.718,100.368 390.333,100.273 389.588,100.036 389.284,99.917 388.255,99.3914 388.024,99.2435 386.857,98.2598 386.691,98.0792 385.76,96.7216 385.652,96.504 385.184,95.1891 385.125,94.9304 385.092,94.7026 " fill="none" stroke-width="0.5" stroke="rgb(0,0,0)" />
	<polygon points="348.099,122.605 348.916,123.212 348.352,121.568 348.349,121.556 " fill="none" stroke-width="0.5" stroke="rgb(0,0,0)" />
	<polygon points="347.884,106.644 348.467,107.9 348.696,108.598 348.902,109.424 348.957,109.735 349.182,109.433 349.341,109.252 349.863,108.726 350.04,108.569 350.431,108.251 350.62,108.111 350.826,107.964 351.019,107.832 352.434,107.126 353.615,106.724 353.857,106.671 353.462,106.706 352.502,106.712 347.703,106.351 " fill="none" stroke-width="0.5" stroke="rgb(0,0,0)" />
	<polygon points="144.906,101.794 144.33,105.019 144.226,105.487 143.91,106.684 144.449,106.561 145.327,106.43 149.457,106.128 150.551,106.15 154.296,106.574 150.226,103.095 146.336,99.9669 145.361,99.3242 " fill="none" stroke-width="0.5" stroke="rgb(0,0,0)" />
	<polygon points="336.408,103.515 336.671,103.685 337.075,103.961 337.187,103.905 337.537,103.74 336.746,103.46 336.221,103.246 335.109,102.727 " fill="none" stroke-width="0.5" stroke="rgb(0,0,0)" />
	<polygon points="70.1122,92.4195 65.071,95.0728 61.9159,96.8134 62.8799,96.9466 64.5431,97.4333 67.9255,98.9931 69.3096,99.8843 70.4386,100.859 70.6183,99.2919 70.6291,99.204 70.9171,96.9887 70.9182,96.9802 71.2014,94.8262 71.4382,92.8331 71.5316,91.7874 " fill="none" stroke-width="0.5" stroke="rgb(0,0,0)" />
	<polygon points="326.806,98.9491 326.5,99.3915 327.749,99.6475 328.499,99.8536 331.115,100.761 329.125,99.6724 329.008,99.6066 327.111,98.5115 " fill="none" stroke-width="0.5" stroke="rgb(0,0,0)" />
	<polygon points="396.196,78.9922 395.699,80.1415 393.058,84.8145 393.816,84.3811 395.315,83.2505 396.369,82.0495 397.034,80.6592 397.365,78.3337 397.331,77.4206 397.205,76.1655 397.163,75.8849 " fill="none" stroke-width="0.5" stroke="rgb(0,0,0)" />
	<polygon points="172.792,76.7745 173.451,78.3297 173.791,77.8939 173.917,77.7592 174.788,77.0072 173.265,76.5232 172.646,76.3607 " fill="none" stroke-width="0.5" stroke="rgb(0,0,0)" />
	<polygon points="112.47,77.5435 112.645,77.1941 112.345,77.0925 " fill="none" stroke-width="0.5" stroke="rgb(0,0,0)" />
	<polygon points="126.195,60.4722 125.442,63.5993 124.709,67.0789 124.628,67.4134 123.781,70.5205 123.32,71.696 122.887,72.5283 123.531,72.7576 125.816,74.2377 127.198,75.6823 127.256,75.7569 127.274,75.262 127.294,74.9487 127.395,73.8463 127.467,73.3177 127.639,72.3793 127.865,71.5173 128.126,70.7594 128.775,69.4402 129.145,68.8788 130.678,67.2968 131.174,66.948 131.984,66.6062 131.074,65.4515 130.916,65.2412 129.182,62.8276 127.526,60.6344 126.539,59.5554 " fill="none" stroke-width="0.5" stroke="rgb(0,0,0)" />
	<polygon points="105.837,58.7728 104.338,59.8046 102.569,61.2454 100.712,62.8352 100.565,62.9569 98.7841,64.3848 98.2183,64.7861 96.6004,65.7961 95.395,66.3209 95.4015,66.3337 95.8146,67.382 96.0039,68.0413 96.1759,68.8493 96.2836,69.6159 96.3364,70.2055 96.3705,71.0755 96.3629,71.6858 96.2356,73.6618 96.1912,74.0737 96.5408,73.6995 98.63,71.8185 100.645,70.6287 102.703,69.9153 106.099,69.7741 107.503,70.4459 107.302,69.4071 107.038,66.2454 107.023,65.9984 106.879,62.5335 106.594,59.5645 106.318,58.5426 " fill="none" stroke-width="0.5" stroke="rgb(0,0,0)" />
	<polygon points="145.867,69.9155 145.582,70.1639 145.15,70.4701 146.647,71.6927 145.943,69.8343 " fill="none" stroke-width="0.5" stroke="rgb(0,0,0)" />
	<polygon points="399.884,59.2391 399.88,60.3389 399.704,62.1608 399.916,62.0304 400.153,61.9133 401.159,61.5265 401.413,61.4547 402.472,61.2573 402.735,61.2329 405.436,61.6152 406.545,62.0505 408.166,63.0088 409.544,64.1566 409.882,64.4603 411.514,66.047 413.292,67.7161 415.129,69.1916 417.001,70.3283 418.887,71.0379 421.142,71.3224 421.461,71.3074 422.144,71.2038 422.766,71.0219 423.21,70.8024 423.469,70.5916 423.67,70.3135 423.906,69.6718 423.988,68.8929 423.469,67.1684 421.656,65.2962 417.944,63.1003 413.079,61.0847 407.895,59.3657 403.203,57.9244 402.926,57.8316 399.649,56.644 " fill="none" stroke-width="0.5" stroke="rgb(0,0,0)" />
	<polygon points="83.9128,62.146 84.4335,62.0113 84.7617,61.958 84.6236,61.3679 " fill="none" stroke-width="0.5" stroke="rgb(0,0,0)" />
	<polygon points="162.564,45.0555 162.516,45.4737 162.151,46.9538 162.018,47.2961 161.218,48.7231 161.011,48.9958 160.411,49.6034 160.759,49.7085 164.137,50.8569 164.299,50.9146 167.831,52.2312 167.835,52.2328 171.241,53.5054 170.3,52.4532 166.509,48.6303 162.61,44.7563 162.505,44.6477 " fill="none" stroke-width="0.5" stroke="rgb(0,0,0)" />
	<polygon points="143.744,50.0985 144.443,51.9384 144.883,52.958 145.125,52.5389 145.957,51.4242 146.484,50.8687 147.079,50.385 145.687,50.0141 144.265,49.6844 143.597,49.572 " fill="none" stroke-width="0.5" stroke="rgb(0,0,0)" />
	<polygon points="90.5053,47.6321 88.6467,47.9421 87.9642,48.0574 88.2781,48.5459 88.8464,50.5294 90.4006,48.5788 91.2238,47.5263 " fill="none" stroke-width="0.5" stroke="rgb(0,0,0)" />
	<polygon points="445.268,40.2347 444.663,42.056 444.186,43.8109 443.875,45.5506 443.762,47.3533 443.802,47.9568 443.888,48.3577 443.938,48.4803 444.168,48.547 444.683,48.5909 444.713,48.5867 444.811,48.4178 445.107,47.5556 445.37,46.2229 445.533,44.5402 445.586,42.6169 445.554,41.027 445.475,39.6463 " fill="none" stroke-width="0.5" stroke="rgb(0,0,0)" />
	<polygon points="391.492,32.0211 392.236,33.0829 396.008,39.9655 396.492,41.1266 397.495,44.5163 398.38,43.7984 400.374,42.7971 401.095,42.4932 404.067,41.4666 404.453,41.3479 408.115,40.3578 408.39,40.2905 412.113,39.4729 411.78,39.2245 407.188,36.7983 402.775,35.1255 398.731,33.9754 395.346,33.128 394.905,32.9994 392.61,32.2312 390.369,30.7452 " fill="none" stroke-width="0.5" stroke="rgb(0,0,0)" />
	<polygon points="69.5813,39.6751 69.5723,39.6807 66.6853,41.4802 70.7923,41.9085 71.7444,41.9997 72.4625,38.2761 72.8343,37.6394 " fill="none" stroke-width="0.5" stroke="rgb(0,0,0)" />
</svg>
