<?xml version="1.0" standalone="no" ?>
<!DOCTYPE svg PUBLIC "-//W3C//DTD SVG 1.1//EN" "http://www.w3.org/Graphics/SVG/1.1/DTD/svg11.dtd">
<svg width="500px" height="500px" xmlns="http://www.w3.org/2000/svg" version="1.1" >
	<polygon points="467.673,280.917 466.879,295.062 464.511,310.017 460.5,325.845 454.824,342.224 447.466,358.849 438.419,375.425 427.681,391.664 415.248,407.29 401.118,422.034 385.285,435.635 367.736,447.84 348.447,458.402 327.382,467.074 304.49,473.603 279.713,477.725 252.981,479.165 226.939,477.807 202.687,473.904 180.195,467.706 159.424,459.449 140.341,449.362 122.923,437.666 107.157,424.584 93.0404,410.34 80.5774,395.167 69.7749,379.304 60.6412,362.995 53.1832,346.495 47.4041,330.065 43.3014,313.974 40.863,298.5 40.0405,283.544 40.0405,32.6251 49.9748,32.5489 61.4665,32.4607 72.9581,32.3726 84.4498,32.2844 95.9415,32.1962 95.9415,32.1962 107.433,32.108 118.925,32.0199 130.417,31.9317 141.908,31.8435 153.4,31.7553 164.892,31.6672 176.383,31.579 187.875,31.4908 197.581,31.4163 197.557,43.9365 197.506,69.7341 197.506,69.7341 197.48,82.6329 197.429,108.43 197.429,108.43 197.404,121.329 197.353,147.127 197.353,147.127 197.328,160.026 197.302,172.924 197.302,172.924 197.277,185.823 197.251,198.722 197.226,211.621 197.226,211.621 197.2,224.52 197.201,224.647 197.288,235.942 197.289,236.04 197.454,246.857 197.457,247.036 197.754,257.342 197.765,257.616 198.25,267.377 198.275,267.764 199.003,276.948 199.055,277.473 200.082,286.046 200.183,286.738 201.564,294.666 201.752,295.562 203.542,302.812 203.876,303.946 206.13,310.485 206.702,311.878 209.475,317.672 210.4,319.296 213.749,324.312 215.135,326.05 219.114,330.254 220.98,331.886 225.645,335.246 227.845,336.526 233.251,339.008 235.511,339.804 241.714,341.374 243.78,341.724 250.834,342.349 251.947,329.779 252.815,342.369 260.076,341.868 262.153,341.557 268.5,340.079 270.814,339.308 276.31,336.89 278.597,335.596 283.303,332.275 285.254,330.588 289.232,326.399 290.672,324.587 293.985,319.568 294.929,317.88 297.639,312.067 298.207,310.632 300.375,304.063 300.698,302.91 302.387,295.62 302.562,294.723 303.833,286.75 303.924,286.069 304.84,277.45 304.884,276.945 305.506,267.716 305.526,267.355 305.917,257.552 305.925,257.31 306.147,246.971 306.149,246.828 306.264,235.988 306.265,235.93 306.335,224.627 306.335,224.519 306.309,211.62 306.283,198.722 306.257,185.823 306.232,172.924 306.232,172.924 306.206,160.025 306.154,134.228 306.154,134.228 306.128,121.329 306.051,82.6325 306.051,82.6324 306.025,69.7337 305.948,31.2304 316.362,31.1635 328.116,31.0879 339.869,31.0123 351.622,30.9368 363.375,30.8612 375.129,30.7857 386.882,30.7101 410.388,30.559 422.142,30.4834 433.895,30.4078 457.401,30.2567 467.673,30.1907 " fill="none" stroke-width="0.5" stroke="rgb(0,0,0)" />
</svg>
