<?xml version="1.0" standalone="no" ?>
<!DOCTYPE svg PUBLIC "-//W3C//DTD SVG 1.1//EN" "http://www.w3.org/Graphics/SVG/1.1/DTD/svg11.dtd">
<svg width="500px" height="500px" xmlns="http://www.w3.org/2000/svg" version="1.1" >
	<polygon points="467.173,280.903 466.381,295.009 464.02,309.917 460.021,325.701 454.358,342.041 447.017,358.628 437.991,375.167 427.276,391.37 414.871,406.961 400.774,421.67 384.979,435.239 367.473,447.414 348.232,457.95 327.218,466.601 304.38,473.114 279.659,477.227 252.981,478.664 226.992,477.309 202.793,473.415 180.354,467.231 159.634,458.995 140.598,448.932 123.223,437.265 107.495,424.214 93.412,410.005 80.978,394.867 70.2005,379.04 61.088,362.77 53.6477,346.309 47.8831,329.92 43.7916,313.873 41.3608,298.447 40.5405,283.531 40.5405,33.1213 49.9786,33.0489 61.4703,32.9607 72.962,32.8726 84.4537,32.7844 95.9453,32.6962 107.437,32.608 118.929,32.5199 130.42,32.4317 130.42,32.4317 141.912,32.3435 153.404,32.2553 164.895,32.1671 176.387,32.079 187.879,31.9908 187.879,31.9908 197.08,31.9202 197.057,43.9355 197.031,56.8343 197.006,69.7331 197.006,69.7331 196.98,82.6319 196.929,108.429 196.929,108.43 196.904,121.328 196.853,147.126 196.853,147.126 196.828,160.025 196.802,172.923 196.802,172.923 196.777,185.822 196.751,198.721 196.726,211.62 196.726,211.62 196.7,224.519 196.701,224.651 196.788,235.946 196.789,236.048 196.954,246.865 196.958,247.05 197.255,257.356 197.266,257.64 197.751,267.402 197.777,267.804 198.505,276.988 198.559,277.532 199.585,286.105 199.691,286.823 201.071,294.752 201.267,295.681 203.056,302.932 203.404,304.109 205.658,310.648 206.251,312.094 209.024,317.888 209.984,319.574 213.333,324.59 214.772,326.393 218.751,330.598 220.688,332.292 225.353,335.651 227.636,336.981 233.043,339.462 235.388,340.289 241.591,341.859 243.736,342.223 250.79,342.847 251.947,329.779 252.85,342.868 260.11,342.367 262.266,342.044 268.613,340.566 271.016,339.765 276.511,337.347 278.885,336.005 283.591,332.683 285.617,330.932 289.595,326.743 291.09,324.862 294.402,319.843 295.382,318.091 298.092,312.278 298.682,310.789 300.85,304.22 301.186,303.023 302.874,295.733 303.056,294.802 304.327,286.829 304.421,286.122 305.337,277.503 305.383,276.979 306.005,267.749 306.025,267.375 306.417,257.572 306.424,257.321 306.647,246.981 306.649,246.833 306.764,235.993 306.765,235.933 306.835,224.63 306.835,224.518 306.809,211.619 306.757,185.822 306.732,172.923 306.732,172.923 306.706,160.024 306.654,134.227 306.654,134.227 306.628,121.328 306.551,82.6315 306.551,82.6314 306.525,69.7327 306.449,31.7272 316.366,31.6634 316.366,31.6634 339.872,31.5123 351.625,31.4368 351.625,31.4368 363.379,31.3612 375.132,31.2856 386.885,31.2101 386.885,31.2101 410.392,31.059 422.145,30.9834 422.145,30.9834 433.898,30.9078 445.651,30.8323 457.405,30.7567 467.173,30.6939 " fill="none" stroke-width="0.5" stroke="rgb(0,0,0)" />
</svg>
