<?xml version="1.0" standalone="no" ?>
<!DOCTYPE svg PUBLIC "-//W3C//DTD SVG 1.1//EN" "http://www.w3.org/Graphics/SVG/1.1/DTD/svg11.dtd">
<svg width="500px" height="500px" xmlns="http://www.w3.org/2000/svg" version="1.1" >
	<polygon points="471.373,92.1124 469.5,93.4668 470.622,93.807 471.373,94.1126 471.373,281.021 470.563,295.456 468.139,310.763 464.048,326.907 458.269,343.581 450.787,360.487 441.592,377.335 430.677,393.841 418.037,409.727 403.665,424.723 387.553,438.564 369.687,450.99 350.045,461.746 328.597,470.575 305.304,477.218 280.118,481.409 252.985,482.87 226.548,481.491 201.899,477.525 179.017,471.219 157.872,462.814 138.44,452.542 120.704,440.633 104.656,427.316 90.2909,412.822 77.6127,397.387 66.6257,381.253 57.3352,364.664 49.7458,347.874 43.8593,331.138 39.6734,314.721 37.1789,298.89 36.3405,283.646 36.3405,28.9534 38.4547,28.9372 49.9464,28.849 61.4381,28.7609 72.9298,28.6727 84.4214,28.5845 95.9131,28.4963 107.405,28.4082 118.896,28.32 130.388,28.2318 141.88,28.1436 153.371,28.0554 164.863,27.9673 176.355,27.8791 187.847,27.7909 201.289,27.6878 201.282,31.045 201.282,31.045 201.257,43.9438 201.231,56.8426 201.206,69.7414 201.206,69.7414 201.18,82.6402 201.129,108.438 201.129,108.438 201.104,121.337 201.053,147.134 201.053,147.134 201.028,160.033 201.002,172.932 200.977,185.831 200.926,211.628 200.926,211.628 200.9,224.527 200.901,224.619 200.988,235.913 200.989,235.984 201.153,246.801 201.156,246.929 201.453,257.235 201.461,257.432 201.945,267.194 201.963,267.472 202.691,276.656 202.729,277.033 203.755,285.606 203.829,286.103 205.209,294.031 205.344,294.675 207.134,301.925 207.374,302.741 209.628,309.28 210.039,310.28 212.813,316.075 213.477,317.242 216.826,322.258 217.822,323.506 221.802,327.711 223.142,328.884 227.808,332.243 229.388,333.163 234.795,335.645 236.418,336.217 242.621,337.787 244.106,338.039 251.161,338.663 251.884,330.489 252.014,330.758 252.561,338.678 259.821,338.177 261.314,337.953 267.661,336.475 269.324,335.921 274.82,333.503 276.463,332.574 281.169,329.252 282.571,328.039 286.55,323.851 287.584,322.549 290.897,317.53 291.576,316.316 294.285,310.504 294.694,309.473 296.862,302.904 297.094,302.075 298.783,294.785 298.908,294.141 300.18,286.168 300.245,285.678 301.161,277.059 301.192,276.696 301.815,267.467 301.829,267.208 302.22,257.405 302.225,257.231 302.448,246.891 302.449,246.788 302.565,235.949 302.565,235.907 302.635,224.604 302.635,224.527 302.609,211.628 302.583,198.729 302.557,185.83 302.532,172.931 302.532,172.931 302.506,160.033 302.454,134.235 302.454,134.235 302.428,121.336 302.351,82.6399 302.351,82.6399 302.325,69.7411 302.247,31.0447 302.247,31.0447 302.24,27.5542 304.585,27.5391 316.339,27.4635 328.092,27.388 339.845,27.3124 351.598,27.2368 351.598,27.2368 375.105,27.0857 386.858,27.0102 386.858,27.0102 410.365,26.859 422.118,26.7835 422.118,26.7835 433.871,26.7079 445.624,26.6324 457.378,26.5568 469.131,26.4812 471.373,26.4668 " fill="none" stroke-width="0.5" stroke="rgb(0,0,0)" />
	<polygon points="307.498,468.205 307.516,468.213 307.509,468.189 " fill="none" stroke-width="0.5" stroke="rgb(0,0,0)" />
	<polygon points="194.39,444.412 194.663,445.472 194.692,445.478 196.13,445.709 197.508,445.852 198.57,445.893 199.988,445.816 201.257,445.592 202.3,445.251 203.03,444.864 203.024,444.865 201.579,444.862 195.361,444.373 194.318,444.2 " fill="none" stroke-width="0.5" stroke="rgb(0,0,0)" />
	<polygon points="317.498,422.016 317.854,423.19 318.184,424.643 318.259,425.007 318.395,425.735 318.602,425.884 319.195,426.348 320.061,427.083 320.912,427.929 320.933,427.909 321.41,427.482 322.119,426.89 322.796,426.375 323.496,425.89 324.468,425.3 324.818,425.116 324.608,424.368 324.254,421.809 324.254,419.79 " fill="none" stroke-width="0.5" stroke="rgb(0,0,0)" />
	<polygon points="168.054,413.382 168.06,414.759 167.861,417.669 168.649,417.616 168.839,416.629 168.935,416.31 169.818,414.275 169.976,414.005 170.026,413.939 168.69,413.239 168.012,412.844 " fill="none" stroke-width="0.5" stroke="rgb(0,0,0)" />
	<polygon points="82.4487,369.365 82.6105,370.433 83.4061,369.833 83.0305,369.446 82.9376,369.33 " fill="none" stroke-width="0.5" stroke="rgb(0,0,0)" />
	<polygon points="60.6585,341.331 60.9387,341.781 61.0179,341.541 61.1694,341.206 60.8709,341.119 60.6215,341.028 " fill="none" stroke-width="0.5" stroke="rgb(0,0,0)" />
	<polygon points="158.317,339.629 156.993,340.652 157.862,341.271 158.226,341.572 158.378,340.074 158.461,339.492 " fill="none" stroke-width="0.5" stroke="rgb(0,0,0)" />
	<polygon points="76.2908,315.931 76.0805,317.879 76.54,317.38 77.902,316.162 78.8526,315.465 78.6589,315.339 77.2299,314.198 76.8416,313.819 " fill="none" stroke-width="0.5" stroke="rgb(0,0,0)" />
	<polygon points="161.242,300.677 160.981,300.711 161.191,301.131 161.265,300.671 " fill="none" stroke-width="0.5" stroke="rgb(0,0,0)" />
	<polygon points="162.428,253.647 162.793,255.458 162.873,255.914 162.966,256.526 164.358,253.89 162.536,253.477 162.349,253.325 " fill="none" stroke-width="0.5" stroke="rgb(0,0,0)" />
	<polygon points="91.3312,217.408 91.5831,218.176 91.852,219.236 92.5728,219.003 93.3018,218.881 96.1835,218.843 96.8273,218.933 98.2951,219.355 98.3647,218.891 98.6531,217.622 98.1676,217.676 96.0852,217.674 92.896,217.318 91.1217,216.909 " fill="none" stroke-width="0.5" stroke="rgb(0,0,0)" />
	<polygon points="433.16,216.27 432.304,216.435 431.65,216.529 432.769,217.458 433.314,218.024 434.796,215.877 " fill="none" stroke-width="0.5" stroke="rgb(0,0,0)" />
	<polygon points="108.109,166.324 106.611,167.338 105.425,167.985 105.272,168.05 105.604,168.275 106.574,169.03 109.572,171.697 110.539,172.693 111.794,174.192 112.569,173.103 113.542,172.039 111.682,170.339 110.368,168.856 108.392,166.09 " fill="none" stroke-width="0.5" stroke="rgb(0,0,0)" />
	<polygon points="423.801,146.546 421.06,148.998 421.001,149.04 425.639,150.411 427.384,151.122 429.684,152.341 429.289,150.963 429.178,148.685 427.643,148.01 425.966,147.058 424.607,146.091 424.367,145.869 " fill="none" stroke-width="0.5" stroke="rgb(0,0,0)" />
	<polygon points="312.556,128.449 312.167,128.965 311.956,129.366 311.678,130.245 311.935,130.286 312.842,130.332 312.975,130.328 313.121,130.317 313.023,130.032 312.682,128.769 312.609,128.398 " fill="none" stroke-width="0.5" stroke="rgb(0,0,0)" />
	<polygon points="177.47,122.024 177.582,122.315 178.257,121.845 " fill="none" stroke-width="0.5" stroke="rgb(0,0,0)" />
	<polygon points="83.1136,122.178 83.1174,122.246 83.4169,122.119 " fill="none" stroke-width="0.5" stroke="rgb(0,0,0)" />
	<polygon points="91.0654,118.793 89.7051,119.676 87.367,120.923 85.9514,121.427 86.7267,121.268 88.1297,121.125 90.0446,121.125 91.4496,121.268 92.4848,121.48 92.2152,119.465 92.1901,119.26 92.0522,118.024 " fill="none" stroke-width="0.5" stroke="rgb(0,0,0)" />
	<polygon points="186.169,115.339 185.833,115.984 184.654,117.737 184.203,118.267 183.076,119.291 184.292,118.804 187.514,117.819 188.78,117.562 186.593,114.98 186.411,114.752 " fill="none" stroke-width="0.5" stroke="rgb(0,0,0)" />
	<polygon points="103.021,65.5319 102.786,65.7268 101.775,66.5368 103.489,66.3593 103.476,66.1456 103.436,65.177 " fill="none" stroke-width="0.5" stroke="rgb(0,0,0)" />
	<polygon points="399.121,38.2594 399.554,39.2988 399.936,39.1377 401.719,38.5219 401.658,38.4987 398.808,37.6881 " fill="none" stroke-width="0.5" stroke="rgb(0,0,0)" />
</svg>
