<?xml version="1.0" standalone="no" ?>
<!DOCTYPE svg PUBLIC "-//W3C//DTD SVG 1.1//EN" "http://www.w3.org/Graphics/SVG/1.1/DTD/svg11.dtd">
<svg width="500px" height="500px" xmlns="http://www.w3.org/2000/svg" version="1.1" >
	<polygon points="473.773,86.6344 472.772,87.8534 471.454,89.0925 464.421,94.1769 463.157,94.9042 459.398,96.5776 459.57,96.6489 460.024,96.9001 460.576,96.2454 464.089,95.0174 465.995,95.1446 468.48,95.655 469.718,96.0302 471.813,96.8822 473.092,97.5632 473.773,98.0212 473.773,193.586 473.057,193.832 470.929,193.642 470.793,193.609 473.071,195.502 473.773,196.176 473.773,253.912 473.641,254.097 473.773,254.09 473.773,281.088 472.952,295.712 472.089,301.161 471.318,301.586 471.901,302.349 470.492,311.246 466.35,327.596 460.504,344.461 452.941,361.549 448.522,369.647 447.898,369.259 448.092,369.893 448.17,370.291 443.65,378.574 432.621,395.252 419.846,411.308 405.317,426.468 395.619,434.799 395.214,434.44 395.265,435.104 389.024,440.465 370.952,453.034 351.081,463.915 329.386,472.846 316.043,476.651 315.264,476.018 314.248,475.005 312.523,472.892 311.747,471.72 310.503,469.361 309.984,468.089 309.231,465.566 308.97,464.232 308.717,461.626 308.715,461.468 308.177,462.711 307.538,463.875 304.771,467.948 303.25,469.565 302.717,469.977 303.068,469.965 303.875,469.983 304.746,470.053 306.134,470.306 306.804,470.499 308.433,471.2 308.927,471.491 310.471,472.723 310.816,473.088 311.903,474.596 312.125,475.01 312.689,476.397 312.815,476.836 312.959,477.531 305.832,479.563 280.38,483.798 252.987,485.273 226.294,483.881 201.388,479.873 178.252,473.498 156.865,464.996 137.207,454.605 119.266,442.558 103.033,429.088 88.5074,414.432 75.6897,398.827 64.5829,382.517 55.1908,365.747 47.5162,348.768 41.56,331.834 38.6012,320.23 38.8086,319.708 42.1682,312.848 41.8354,312.938 37.8786,312.857 36.9017,312.55 34.7892,299.144 33.9405,283.712 33.9405,151.665 37.1784,147.76 36.8594,147.699 34.3239,146.959 33.9405,146.805 33.9405,37.9144 36.6017,36.1971 36.6951,36.138 38.7977,34.8273 34.8311,33.8224 34.444,33.7125 33.9405,33.5539 33.9405,26.5718 38.4363,26.5373 49.928,26.4491 61.4197,26.3609 72.9113,26.2728 84.403,26.1846 95.8947,26.0964 107.386,26.0082 118.878,25.92 130.37,25.8319 141.861,25.7437 153.353,25.6555 164.845,25.5673 176.336,25.4792 187.828,25.391 203.693,25.2693 203.682,31.0497 203.682,31.0497 203.656,43.9485 203.631,56.8473 203.606,69.7461 203.606,69.7461 203.58,82.6449 203.574,85.834 203.164,85.8276 199.183,85.4223 198.897,85.3754 203.568,89.0013 203.529,108.443 203.529,108.443 203.504,121.341 203.453,147.139 203.453,147.139 203.428,160.038 203.402,172.936 203.402,172.937 203.381,183.553 202.796,184.063 201.678,184.859 199.675,186.011 201.352,186.746 202.505,187.387 203.372,187.981 203.351,198.734 203.326,211.633 203.326,211.633 203.3,224.532 203.301,224.6 203.388,235.895 203.388,235.947 203.553,246.764 203.555,246.86 203.852,257.166 203.858,257.313 204.342,267.075 204.356,267.282 205.084,276.466 205.112,276.747 206.138,285.32 206.193,285.691 207.573,293.62 207.674,294.1 209.464,301.35 209.643,301.958 211.897,308.497 212.204,309.244 214.978,315.038 215.473,315.909 218.822,320.925 219.565,321.857 223.545,326.061 224.545,326.936 229.21,330.296 230.389,330.982 235.796,333.464 237.007,333.891 243.21,335.46 244.318,335.648 251.372,336.273 251.42,335.732 252.044,337.96 252.166,338.554 253.414,336.213 259.656,335.783 260.77,335.616 267.117,334.138 268.357,333.724 273.853,331.306 275.079,330.613 279.785,327.291 280.831,326.387 284.809,322.198 285.581,321.227 288.894,316.208 289.4,315.302 292.11,309.49 292.415,308.721 294.583,302.151 294.756,301.533 296.444,294.244 296.538,293.763 297.81,285.79 297.858,285.425 298.774,276.805 298.797,276.535 299.42,267.305 299.431,267.112 299.822,257.309 299.826,257.179 300.048,246.839 300.049,246.763 300.165,235.923 300.165,235.892 300.235,224.589 300.235,224.531 300.209,211.633 300.183,198.734 300.132,172.936 300.132,172.936 300.106,160.037 300.054,134.24 300.054,134.24 300.028,121.341 299.997,105.942 300.836,104.991 303.321,102.703 303.679,102.44 302.376,103.285 300.685,104.085 299.994,104.305 299.951,82.6447 299.951,82.6447 299.925,69.7459 299.847,31.0495 299.847,31.0495 299.835,25.1696 304.57,25.1391 316.323,25.0636 328.076,24.988 339.83,24.9125 351.583,24.8369 363.336,24.7613 375.089,24.6858 386.314,24.6136 386.879,25.1306 386.92,24.6097 410.349,24.4591 422.102,24.3835 433.856,24.308 445.609,24.2324 457.362,24.1569 469.115,24.0813 473.773,24.0513 " fill="none" stroke-width="0.5" stroke="rgb(0,0,0)" />
	<polygon points="191.725,444.006 192.066,445.01 192.705,447.49 192.801,447.519 194.243,447.836 195.815,448.089 197.337,448.247 198.589,448.296 200.263,448.204 201.842,447.926 203.242,447.468 204.393,446.858 205.305,446.107 206.059,445.13 206.707,443.709 207.043,442.158 202.845,442.471 201.768,442.469 195.549,441.98 194.357,441.783 190.34,440.756 " fill="none" stroke-width="0.5" stroke="rgb(0,0,0)" />
	<polygon points="158.224,437.163 157.224,438.388 153.03,442.488 151.683,443.519 150.085,444.461 152.147,444.019 155.122,442.806 157.333,441.315 158.946,439.579 160.114,437.505 160.877,434.931 161.072,432.74 " fill="none" stroke-width="0.5" stroke="rgb(0,0,0)" />
	<polygon points="325.877,416.728 316.372,419.86 314.882,420.178 314.068,420.261 314.733,421.48 315.228,422.778 315.513,423.723 315.844,425.175 315.9,425.447 316.151,426.794 316.232,427.135 316.256,427.152 316.292,427.178 317.199,427.831 317.642,428.177 318.508,428.913 319.297,429.697 320.03,430.552 320.705,431.566 320.722,431.547 320.904,431.346 321.623,430.583 321.877,430.327 322.592,429.643 322.949,429.324 323.657,428.733 324.162,428.348 324.863,427.863 325.588,427.423 326.278,427.059 327.312,426.615 327.99,426.386 328.015,426.381 327.267,424.959 326.918,423.718 326.654,421.809 326.654,416.373 " fill="none" stroke-width="0.5" stroke="rgb(0,0,0)" />
	<polygon points="378.493,417.615 378.491,417.78 378.488,417.908 379.604,417.608 381.174,417.791 382.659,418.131 384.292,418.695 385.612,419.311 387.224,420.277 388.375,421.139 388.912,421.633 388.897,421.188 388.927,420.715 389.067,419.696 388.898,419.678 387.626,419.423 384.065,418.358 383.069,417.976 379.731,416.396 378.922,415.946 378.493,415.669 " fill="none" stroke-width="0.5" stroke="rgb(0,0,0)" />
	<polygon points="165.661,413.568 165.666,414.596 165.345,419.28 165.205,420.278 165.124,420.654 167.334,419.86 170.883,420.532 170.834,419.098 170.866,418.73 171.137,417.32 171.233,417 171.892,415.483 172.05,415.212 173.106,413.826 173.323,413.605 173.908,413.133 173.018,412.765 172.44,412.495 169.804,411.113 169.253,410.792 166.826,409.225 166.272,408.828 165.228,408.001 " fill="none" stroke-width="0.5" stroke="rgb(0,0,0)" />
	<polygon points="258.971,400.82 258.875,401.831 258.616,403.171 258.34,404.102 257.816,405.389 257.376,406.222 256.992,406.802 257.703,407.078 258.296,407.341 261.155,408.768 261.613,409.018 264.396,410.675 264.778,410.919 267.396,412.715 267.745,412.971 270.109,414.817 270.466,415.114 272.488,416.919 272.902,417.321 272.959,417.381 274.111,417.182 274.404,417.138 275.738,416.965 276.016,416.935 277.4,416.812 277.662,416.793 279.094,416.719 279.341,416.711 279.888,416.701 279.329,416.518 277.931,415.885 269.324,410.792 268.133,409.905 261.032,403.349 260.105,402.306 258.972,400.742 " fill="none" stroke-width="0.5" stroke="rgb(0,0,0)" />
	<polygon points="244.586,411.886 243.948,415.963 244.062,415.731 245.151,411.903 245.107,411.896 244.594,411.756 " fill="none" stroke-width="0.5" stroke="rgb(0,0,0)" />
	<polygon points="365.264,399.915 365.931,400.1 366.804,400.399 366.868,399.556 " fill="none" stroke-width="0.5" stroke="rgb(0,0,0)" />
	<polygon points="349.599,395.344 348.949,396.43 347.111,398.954 347.576,398.873 348.391,398.78 352.898,398.528 353.546,398.522 355.908,398.607 355.485,398.318 354.151,397.136 353.172,396.017 352.444,395.021 351.588,393.604 351.158,392.771 351.008,392.426 " fill="none" stroke-width="0.5" stroke="rgb(0,0,0)" />
	<polygon points="308.864,393.853 308.337,394.008 305.125,394.817 304.478,394.948 300.771,395.521 300.056,395.594 298.093,395.695 304.347,396.237 307.584,396.103 310.505,395.717 310.946,395.613 310.129,394.476 309.874,393.644 309.866,393.516 " fill="none" stroke-width="0.5" stroke="rgb(0,0,0)" />
	<polygon points="201.293,388.587 203.13,391.972 203.566,392.944 204.632,395.898 206.406,393.275 208.031,391.573 211.986,388.624 212.152,388.55 207.137,388.995 205.741,388.98 201.226,388.482 " fill="none" stroke-width="0.5" stroke="rgb(0,0,0)" />
	<polygon points="223.803,386.252 224.287,386.318 224.687,386.397 224.655,386.002 " fill="none" stroke-width="0.5" stroke="rgb(0,0,0)" />
	<polygon points="242.441,374.432 242.018,374.891 242.345,375.058 243.23,375.65 244.387,376.619 245.13,377.391 245.407,377.738 246.186,377.759 247.431,377.885 247.837,377.969 247.003,374.891 246.785,373.676 246.379,369.139 " fill="none" stroke-width="0.5" stroke="rgb(0,0,0)" />
	<polygon points="83.8147,366.79 83.5156,366.836 82.674,366.947 81.8264,367.008 79.513,367.032 79.0494,366.991 80.0421,369.502 80.9012,375.175 81.3096,374.753 83.8181,372.518 84.7326,371.828 87.2119,370.257 87.3496,370.188 87.3132,370.162 85.8275,368.896 84.902,367.944 83.956,366.765 " fill="none" stroke-width="0.5" stroke="rgb(0,0,0)" />
	<polygon points="172.386,373.472 172.539,373.861 172.556,373.863 172.82,373.87 172.32,373.248 " fill="none" stroke-width="0.5" stroke="rgb(0,0,0)" />
	<polygon points="356.815,370.456 356.632,372.233 357.321,371.953 358.89,371.415 359.441,371.251 361.027,370.849 360.083,370.361 358.895,369.587 357.304,368.306 356.29,367.304 355.959,366.903 " fill="none" stroke-width="0.5" stroke="rgb(0,0,0)" />
	<polygon points="324.39,367.419 323.666,368.568 322.994,369.436 323.469,369.424 327.002,369.195 328.656,369.016 326.607,367.965 325.37,367.157 324.769,366.668 " fill="none" stroke-width="0.5" stroke="rgb(0,0,0)" />
	<polygon points="117.801,354.768 117.129,355.082 117.145,356.459 117.025,357.847 116.613,360.036 116.208,361.407 115.679,362.699 116.365,362.573 120.616,362.189 122.025,362.203 122.63,362.269 121.58,361.368 120.366,360.015 119.699,359.045 118.805,357.235 118.474,356.218 118.151,354.615 118.147,354.568 " fill="none" stroke-width="0.5" stroke="rgb(0,0,0)" />
	<polygon points="295.569,357.676 294.056,358.358 292.01,359.005 292.325,359.176 294.193,360.561 294.348,360.679 296.643,362.482 296.614,362.329 296.47,360.792 296.447,359.8 296.499,358.694 296.547,358.14 296.686,357.049 296.694,356.999 " fill="none" stroke-width="0.5" stroke="rgb(0,0,0)" />
	<polygon points="442.462,356.634 444.808,360.782 444.539,359.232 442.633,356.222 441.571,355.396 " fill="none" stroke-width="0.5" stroke="rgb(0,0,0)" />
	<polygon points="394.982,340.729 394.77,340.906 393.622,341.828 393.002,342.274 391.98,342.927 390.188,343.745 389.352,343.993 386.812,344.201 386.894,344.372 388.024,347.572 388.381,349.122 388.541,350.528 388.747,350.326 393.358,346.462 395.049,345.411 398.073,344.082 398.069,344.078 396.792,342.54 396.633,342.34 395.286,340.593 395.226,340.516 " fill="none" stroke-width="0.5" stroke="rgb(0,0,0)" />
	<polygon points="58.3404,342.148 61.5891,347.373 62.0907,347.869 62.0897,347.777 62.2482,346.217 62.7396,343.941 63.2053,342.529 64.1337,340.472 64.6515,339.571 62.6492,339.141 61.6981,338.866 59.2294,337.96 58.035,337.389 57.7382,337.211 " fill="none" stroke-width="0.5" stroke="rgb(0,0,0)" />
	<polygon points="164.821,318.488 164.945,320.565 164.693,323.406 164.482,324.597 163.732,327.412 163.321,328.552 162.083,331.232 161.449,332.333 159.734,334.77 158.84,335.81 156.659,337.894 155.484,338.801 152.847,340.425 152.326,340.671 153.029,341.029 155.489,342.52 156.332,343.119 158.681,345.065 159.363,345.71 160.747,347.209 160.538,345.373 160.496,344.345 160.555,342.562 160.587,342.08 160.766,340.316 160.844,339.763 161.15,338.085 161.312,337.398 161.751,335.874 162.082,334.965 162.66,333.663 163.367,332.427 164.09,331.413 165.594,329.873 166.47,329.216 169.145,327.978 169.635,327.867 167.218,324.207 166.527,322.869 164.811,318.44 " fill="none" stroke-width="0.5" stroke="rgb(0,0,0)" />
	<polygon points="316.467,342.996 316.242,343.082 316.735,343.416 316.878,342.797 " fill="none" stroke-width="0.5" stroke="rgb(0,0,0)" />
	<polygon points="415.534,332.809 413.747,333.003 413.5,333.025 413.06,333.057 413.256,334.145 413.275,334.255 413.499,335.624 413.537,335.889 413.695,337.158 413.74,337.657 413.8,338.785 413.807,339.363 413.797,339.697 413.763,340.21 413.729,340.545 413.618,341.264 413.614,341.285 418.1,341.667 419.288,341.872 420.515,342.193 419.452,340.985 417.874,337.913 416.647,332.597 " fill="none" stroke-width="0.5" stroke="rgb(0,0,0)" />
	<polygon points="127.596,337.651 127.576,339.889 127.564,339.997 128.163,339.706 129.053,339.347 130.257,338.953 129.76,338.593 127.853,336.892 127.48,336.487 " fill="none" stroke-width="0.5" stroke="rgb(0,0,0)" />
	<polygon points="385.583,310.848 384.615,312.537 383.755,314.391 383.145,316.063 382.949,317.075 382.75,319.245 382.576,322.192 382.389,325.377 382.374,325.574 382.299,326.44 383.19,324.346 384.265,321.615 385.131,318.95 385.687,316.451 385.896,313.945 385.872,312.683 385.766,310.983 385.725,310.647 " fill="none" stroke-width="0.5" stroke="rgb(0,0,0)" />
	<polygon points="121.968,324.977 121.643,325.13 122.282,325.773 122.189,324.844 " fill="none" stroke-width="0.5" stroke="rgb(0,0,0)" />
	<polygon points="74.842,311.976 73.9237,315.497 73.6216,318.295 73.6506,319.325 73.7743,320.497 73.9992,321.558 74.3585,322.602 74.8667,323.622 74.9606,323.43 76.0649,321.632 76.8873,320.545 78.305,319.006 79.3211,318.098 81.0222,316.85 82.1791,316.162 83.7933,315.399 82.9001,315.039 81.3061,314.211 80.1563,313.464 78.7273,312.323 77.7201,311.339 76.5115,309.895 75.9109,309.008 " fill="none" stroke-width="0.5" stroke="rgb(0,0,0)" />
	<polygon points="342.663,314.211 341.873,315.013 341.599,315.23 341.806,315.348 346.666,318.661 347.596,319.419 350.975,322.687 351.288,321.973 351.531,321.474 352.147,320.326 350.36,319.818 349.367,319.453 348.059,318.858 345.195,316.47 344.699,315.758 343.674,312.871 " fill="none" stroke-width="0.5" stroke="rgb(0,0,0)" />
	<polygon points="97.4181,314.928 97.5602,314.979 97.5345,314.878 " fill="none" stroke-width="0.5" stroke="rgb(0,0,0)" />
	<polygon points="164.566,297.102 163.578,297.531 162.307,297.971 160.927,298.297 159.744,298.454 158.234,298.491 157.878,298.461 156.688,298.258 156.646,298.247 158.234,300.687 158.63,301.377 162.687,309.479 163.28,311.178 162.994,308.953 162.946,307.677 163.115,304.519 163.195,303.771 163.687,300.724 163.844,299.999 164.639,297.075 164.644,297.061 " fill="none" stroke-width="0.5" stroke="rgb(0,0,0)" />
	<polygon points="131.75,301.123 132.275,307.094 132.271,308.222 133.961,308.03 134.141,308.048 135.939,308.463 136.077,308.514 135.217,306.731 131.707,300.849 " fill="none" stroke-width="0.5" stroke="rgb(0,0,0)" />
	<polygon points="312.333,304.766 310.064,306.29 311.073,306.42 311.719,306.535 312.922,306.806 312.381,304.956 312.352,304.75 " fill="none" stroke-width="0.5" stroke="rgb(0,0,0)" />
	<polygon points="345.607,306.732 345.632,306.703 345.61,306.702 " fill="none" stroke-width="0.5" stroke="rgb(0,0,0)" />
	<polygon points="434.003,294.824 433.91,294.952 433.112,296.018 434.925,296.996 435.089,297.088 435.867,297.535 434.912,294.375 434.721,293.82 " fill="none" stroke-width="0.5" stroke="rgb(0,0,0)" />
	<polygon points="459.014,288.766 458.251,289.119 457.291,289.914 456.075,291.383 455.35,292.503 456.425,292.535 459.613,293.049 460.466,293.322 460.409,292.151 460.22,290.863 459.917,289.696 459.564,288.826 459.486,288.7 " fill="none" stroke-width="0.5" stroke="rgb(0,0,0)" />
	<polygon points="88.073,283.765 88.0131,283.883 85.6583,288.417 85.2446,289.215 86.6437,289.95 87.1653,290.365 87.8492,290.986 88.3395,291.494 88.4294,291.275 88.8712,289.127 89.1844,285.84 89.3377,281.572 89.3402,281.209 " fill="none" stroke-width="0.5" stroke="rgb(0,0,0)" />
	<polygon points="57.8842,280.888 58.0288,281.128 58.4203,281.807 58.6544,282.248 58.9801,282.919 59.2636,283.588 59.5113,284.269 59.6629,284.789 60.1212,282.793 60.1063,282.766 60.0259,282.652 59.8529,282.456 59.3225,281.965 59.306,281.95 57.4824,280.251 " fill="none" stroke-width="0.5" stroke="rgb(0,0,0)" />
	<polygon points="172.7,280.921 172.866,281.322 173.159,282.188 173.268,282.593 173.273,282.625 174.022,281.828 173.968,281.786 172.487,280.474 " fill="none" stroke-width="0.5" stroke="rgb(0,0,0)" />
	<polygon points="428.159,278.89 427.728,279.694 427.776,279.683 429.112,279.596 428.342,277.972 " fill="none" stroke-width="0.5" stroke="rgb(0,0,0)" />
	<polygon points="339.695,274.932 339.585,275.365 339.794,275.456 339.992,275.508 339.979,275.342 339.964,275.045 339.952,274.655 " fill="none" stroke-width="0.5" stroke="rgb(0,0,0)" />
	<polygon points="421.126,267.368 421.846,267.562 421.312,266.943 " fill="none" stroke-width="0.5" stroke="rgb(0,0,0)" />
	<polygon points="157.422,226.222 156.42,227.965 155.922,228.988 157.22,230.576 157.822,233.738 157.762,235.164 157.741,235.479 157.582,237.301 157.568,237.449 157.343,239.521 157.335,239.589 157.078,241.765 157.076,241.781 156.82,243.898 156.605,245.769 156.467,247.169 156.431,247.854 156.442,248.205 157.773,248.997 159.476,251.95 159.942,253.575 160.075,254.122 160.44,255.933 160.5,256.273 160.792,258.201 160.818,258.391 161.062,260.369 161.07,260.434 161.29,262.364 161.504,264.104 161.599,264.727 162.381,264.988 164.003,267.003 163.642,265.425 163.739,261.906 164.88,257.933 166.225,255.384 169.235,251.748 169.682,251.306 166.214,252.016 162.696,250.802 160.286,247.966 159.777,243.514 160.016,242.39 160.222,241.325 160.402,240.265 160.555,239.209 160.678,238.158 160.768,237.11 160.824,236.065 160.842,235.128 160.748,233.215 160.462,231.415 159.946,229.609 159.143,227.751 157.975,225.798 157.802,225.578 " fill="none" stroke-width="0.5" stroke="rgb(0,0,0)" />
	<polygon points="405.863,256.377 406.119,256.709 406.495,257.231 407.103,256.741 406.782,256.618 405.845,256.355 " fill="none" stroke-width="0.5" stroke="rgb(0,0,0)" />
	<polygon points="448.909,255.671 449.456,254.702 449.52,254.591 449.585,254.48 448.098,253.654 " fill="none" stroke-width="0.5" stroke="rgb(0,0,0)" />
	<polygon points="129.322,240.425 129.194,242.383 129.165,243.704 130.518,253.397 131.34,255.58 131.76,252.79 132.787,251.668 132.44,250.235 131.799,248.157 130.988,245.722 130.971,245.671 130.135,243.096 130.061,242.852 129.335,240.305 " fill="none" stroke-width="0.5" stroke="rgb(0,0,0)" />
	<polygon points="382.288,246.276 381.49,247.464 380.665,248.457 379.648,249.457 378.643,250.261 377.47,251.022 378.384,252.142 378.675,252.524 378.739,252.615 378.813,252.542 380,251.423 380.782,250.785 381.909,249.993 384.005,248.988 385.044,248.687 386.104,248.583 385.242,247.976 383.37,246.022 382.853,245.216 " fill="none" stroke-width="0.5" stroke="rgb(0,0,0)" />
	<polygon points="363.055,250.79 363.097,250.735 362.907,250.609 " fill="none" stroke-width="0.5" stroke="rgb(0,0,0)" />
	<polygon points="359.624,247.656 358.891,248.15 360.739,248.825 360.376,248.466 359.669,247.618 " fill="none" stroke-width="0.5" stroke="rgb(0,0,0)" />
	<polygon points="324.612,236.77 326.325,238.707 328.61,242.522 328.774,242.976 328.874,242.914 330.075,242.314 331.244,241.864 331.857,241.682 331.092,240.277 330.554,239.005 329.85,236.745 329.567,235.358 329.562,235.31 329.001,235.424 327.596,235.567 326.17,235.566 324.775,235.424 323.384,235.138 322.081,234.73 321.894,234.651 " fill="none" stroke-width="0.5" stroke="rgb(0,0,0)" />
	<polygon points="464.98,220.205 464.941,220.484 464.465,223.425 464.442,223.56 463.896,226.56 463.893,226.577 463.357,229.485 462.912,232.122 462.625,234.315 462.624,234.346 463.47,232.798 464.569,230.091 465.281,227.346 465.52,224.775 464.996,220.076 " fill="none" stroke-width="0.5" stroke="rgb(0,0,0)" />
	<polygon points="312.427,225.741 310.569,226.329 309.169,226.62 309.026,226.635 309.306,227.501 310.332,228.655 312.543,229.97 316.022,231.481 316.282,231.6 318.19,232.523 317.48,231.936 316.536,230.991 315.682,229.956 314.928,228.839 314.282,227.653 313.744,226.383 313.412,225.32 " fill="none" stroke-width="0.5" stroke="rgb(0,0,0)" />
	<polygon points="85.8725,213.527 85.8844,213.537 87.0491,214.693 87.5119,215.275 88.2561,216.423 88.6124,217.112 89.0507,218.156 89.3026,218.924 89.5395,219.858 89.689,220.679 89.7911,221.532 89.8405,222.38 89.8322,222.653 90.2757,222.367 91.0125,222.003 92.9702,221.37 93.6991,221.248 95.849,221.219 96.4928,221.31 98.3851,221.854 98.9968,222.127 100.363,222.967 100.549,220.464 100.705,219.423 101.546,215.723 101.846,214.742 101.846,214.741 100.903,214.96 97.9051,215.29 96.3515,215.289 93.1623,214.933 91.581,214.568 88.7168,213.549 87.2743,212.841 86.6809,212.461 " fill="none" stroke-width="0.5" stroke="rgb(0,0,0)" />
	<polygon points="438.266,212.552 437.72,212.706 432.599,213.937 431.961,214.06 425.938,214.93 425.413,214.98 426.125,215.327 427.544,216.241 431.237,219.305 432.334,220.446 433.804,222.366 434.47,220.818 435.145,219.597 437.668,215.943 438.337,215.114 441.322,211.946 441.946,211.359 441.969,211.34 " fill="none" stroke-width="0.5" stroke="rgb(0,0,0)" />
	<polygon points="131.536,219.774 132.474,220.572 132.727,221.307 133.25,219.232 " fill="none" stroke-width="0.5" stroke="rgb(0,0,0)" />
	<polygon points="64.691,216.526 65.5414,217.087 66.0583,217.554 67.251,218.959 67.6508,219.578 68.207,220.666 70.3564,217.008 68.3279,216.477 67.1163,216.039 65.5478,215.302 " fill="none" stroke-width="0.5" stroke="rgb(0,0,0)" />
	<polygon points="188.38,212.973 189.337,214.406 190.546,216.807 190.949,217.895 191.778,217.218 194.441,216.817 194.263,216.176 193.765,215.226 193.128,214.492 192.178,213.799 190.716,213.124 188.63,212.547 187.926,212.447 " fill="none" stroke-width="0.5" stroke="rgb(0,0,0)" />
	<polygon points="381.246,201.578 380.564,202.825 379.81,203.939 378.908,205.028 378.801,205.135 379.995,206.119 380.948,207.072 381.116,207.274 381.253,206.627 383.77,203.886 385.22,203.448 382.362,201.117 381.724,200.455 " fill="none" stroke-width="0.5" stroke="rgb(0,0,0)" />
	<polygon points="365.865,170.136 364.742,170.892 364.512,171.017 364.549,171.072 365.588,172.97 366.129,174.24 366.787,176.333 367.075,177.728 367.305,179.967 367.305,181.032 367.565,181.005 369.006,181.004 369.793,181.085 369.753,180.984 366.987,172.135 366.777,171.281 366.48,169.63 " fill="none" stroke-width="0.5" stroke="rgb(0,0,0)" />
	<polygon points="146.464,175.253 145.529,175.5 143.882,175.818 147.04,178.837 147.242,179.055 147.444,178.205 148.402,175.209 148.75,174.477 " fill="none" stroke-width="0.5" stroke="rgb(0,0,0)" />
	<polygon points="108.559,162.673 107.614,163.619 106.579,164.475 105.462,165.231 104.276,165.878 103.005,166.417 101.697,166.826 100.306,167.112 99.4615,167.198 100.262,167.61 100.995,168.046 104.256,170.26 104.979,170.824 107.977,173.49 108.699,174.234 111.287,177.326 111.976,178.308 112.1,178.522 112.309,178.029 113.351,176.111 114.341,174.722 115.727,173.205 117.177,171.993 117.225,171.963 116.195,171.212 113.301,168.567 112.321,167.461 110.099,164.35 109.417,163.169 108.967,162.178 " fill="none" stroke-width="0.5" stroke="rgb(0,0,0)" />
	<polygon points="310.12,170.579 309.706,171.224 310.134,171.224 311.541,171.367 312.926,171.65 313.067,171.694 313.193,171.289 313.316,170.998 312.361,170.803 311.877,170.687 310.282,170.243 " fill="none" stroke-width="0.5" stroke="rgb(0,0,0)" />
	<polygon points="162.649,166.668 163.558,166.846 163.293,166.149 " fill="none" stroke-width="0.5" stroke="rgb(0,0,0)" />
	<polygon points="423.504,143.198 422.201,144.757 419.46,147.209 418.246,148.082 414.63,150.139 414.296,150.296 417.173,150.555 418.54,150.815 424.959,152.712 426.261,153.243 431.946,156.254 432.982,156.925 433.762,157.533 433.442,156.739 431.596,150.301 431.556,146.974 431.333,146.915 430.287,146.551 428.608,145.813 427.358,145.103 425.998,144.135 424.68,142.918 424.102,142.227 " fill="none" stroke-width="0.5" stroke="rgb(0,0,0)" />
	<polygon points="355.434,138.046 355.412,139.068 354.785,145.669 354.75,145.844 355.62,145.667 356.961,145.532 358.373,145.532 359.713,145.667 361.094,145.948 362.342,146.335 363.615,146.871 364.744,147.484 365.868,148.242 366.852,149.053 366.93,149.131 367.125,148.893 367.183,148.839 367.754,148.451 364.959,146.813 363.882,146.037 358.545,141.368 357.693,140.479 355.414,137.645 " fill="none" stroke-width="0.5" stroke="rgb(0,0,0)" />
	<polygon points="129.7,135.812 129.395,136.038 129.064,136.332 126.101,137.792 126.19,137.981 126.714,139.548 127.193,141.841 127.247,142.134 127.631,144.467 127.742,144.284 128.285,143.043 128.573,142.166 128.883,141.091 129.148,140.024 129.366,138.978 129.535,137.964 129.654,136.996 129.724,136.088 129.732,135.793 " fill="none" stroke-width="0.5" stroke="rgb(0,0,0)" />
	<polygon points="102.871,140.043 103.004,140.084 104.275,140.623 105.461,141.27 106.577,142.025 106.906,142.297 107.184,141.223 104.674,140.611 102.942,139.699 " fill="none" stroke-width="0.5" stroke="rgb(0,0,0)" />
	<polygon points="313.745,124.826 312.584,125.368 311.582,126.057 310.756,126.85 310.133,127.676 309.732,128.439 309.335,129.694 308.163,131.507 308.881,131.891 309.814,132.269 310.726,132.523 311.685,132.677 312.818,132.734 313.104,132.725 313.579,132.688 314.156,132.625 314.807,132.541 315.49,132.449 315.547,132.441 316.202,132.358 316.389,132.337 316.92,132.284 316.82,132.168 316.578,131.838 316.011,130.924 315.827,130.569 315.42,129.622 315.291,129.248 315.037,128.306 314.961,127.92 314.843,127.006 314.818,126.613 314.842,125.438 314.919,124.695 314.958,124.499 " fill="none" stroke-width="0.5" stroke="rgb(0,0,0)" />
	<polygon points="92.3183,114.742 91.8538,115.137 89.5906,116.9 88.5758,117.559 86.2376,118.806 84.2826,119.502 81.8812,119.975 80.5875,120.032 80.7545,122.966 80.7642,123.523 80.7324,124.95 80.7191,125.254 80.6482,126.334 80.694,126.296 81.8113,125.539 82.9974,124.892 84.2697,124.351 85.5786,123.942 86.97,123.656 88.3731,123.513 89.8016,123.513 91.2066,123.656 92.5962,123.941 93.9071,124.35 95.1782,124.889 95.3766,124.998 94.594,119.147 94.5753,118.994 93.9333,113.242 " fill="none" stroke-width="0.5" stroke="rgb(0,0,0)" />
	<polygon points="185.193,109.736 185.112,110.515 184.98,111.341 184.754,112.311 184.524,113.055 184.041,114.23 183.705,114.875 182.825,116.183 182.374,116.713 181.03,117.934 180.456,118.334 178.799,119.187 178.094,119.439 176.451,119.812 175.607,119.899 173.845,119.759 174.019,120.047 174.568,121.167 176.255,125.549 176.417,126.093 176.909,125.706 179.909,123.619 180.772,123.107 183.892,121.54 184.994,121.099 188.215,120.114 189.551,119.844 192.855,119.502 193.707,119.505 193.098,118.904 192.669,118.441 188.425,113.429 188.194,113.142 185.217,109.228 " fill="none" stroke-width="0.5" stroke="rgb(0,0,0)" />
	<polygon points="124.699,112.282 123.224,118.179 125.988,114.932 126.798,114.123 127.573,113.466 126.803,112.769 125.301,111.146 125.083,110.894 " fill="none" stroke-width="0.5" stroke="rgb(0,0,0)" />
	<polygon points="413.93,104.913 416.073,106.879 417.001,107.916 417.207,108.198 417.279,104.934 417.96,103.839 416.32,103.822 416.182,103.82 412.85,103.722 412.715,103.716 411.87,103.675 " fill="none" stroke-width="0.5" stroke="rgb(0,0,0)" />
	<polygon points="392.219,102.354 393.263,103.472 393.996,104.403 394.842,105.686 394.894,105.766 394.915,105.799 395.37,105.691 396.736,105.244 398.35,104.636 400.06,103.974 400.24,103.907 401.891,103.319 402.395,103.161 402.779,103.056 402.27,103.012 402.139,102.999 398.714,102.64 398.582,102.625 395.156,102.2 395.023,102.182 391.605,101.693 391.508,101.678 391.319,101.648 " fill="none" stroke-width="0.5" stroke="rgb(0,0,0)" />
	<polygon points="146.038,102 145.462,105.221 145.451,105.268 149.373,104.981 150.68,105.007 150.695,105.008 149.492,103.981 146.166,101.306 " fill="none" stroke-width="0.5" stroke="rgb(0,0,0)" />
	<polygon points="307.428,99.5831 307.207,99.7677 304.978,101.549 307.681,99.9885 309.107,99.3635 309.778,99.154 309.68,98.626 309.615,98.2108 309.555,97.736 " fill="none" stroke-width="0.5" stroke="rgb(0,0,0)" />
	<polygon points="380.948,99.2662 381.504,99.1784 381.941,99.1232 382.488,99.0716 382.928,99.0439 383.461,99.0271 384.747,99.1043 386.386,99.3546 386.008,99.0361 385.843,98.8555 384.731,97.2332 384.622,97.0156 384.482,96.6224 " fill="none" stroke-width="0.5" stroke="rgb(0,0,0)" />
	<polygon points="65.6166,96.0852 65.0471,96.3994 68.4071,97.9488 69.538,98.6769 69.7767,96.8405 69.778,96.8303 70.0603,94.6834 70.179,93.6839 " fill="none" stroke-width="0.5" stroke="rgb(0,0,0)" />
	<polygon points="126.564,63.8525 125.834,67.3161 125.737,67.7158 124.89,70.8229 124.427,72.0051 126.319,73.2305 126.336,73.1106 126.507,72.1723 126.778,71.1423 127.039,70.3843 127.814,68.8081 128.184,68.2466 130.016,66.3563 130.213,66.2175 130.171,66.1634 129.982,65.9122 128.256,63.5097 127.035,61.8937 " fill="none" stroke-width="0.5" stroke="rgb(0,0,0)" />
	<polygon points="105.029,60.7256 103.307,62.1281 101.46,63.7088 101.285,63.8542 99.5034,65.2821 98.8273,65.7616 97.2093,66.7716 96.8638,66.9221 96.9199,67.0645 97.1092,67.7238 97.3147,68.6893 97.4224,69.4559 97.4855,70.1605 97.5196,71.0304 97.5166,71.2736 97.8606,70.9639 100.269,69.5422 102.327,68.8287 106.04,68.581 106.081,68.5994 105.892,66.3412 105.874,66.0461 105.731,62.6123 105.518,60.3887 " fill="none" stroke-width="0.5" stroke="rgb(0,0,0)" />
	<polygon points="401.029,59.1354 401.025,60.3691 401.1,60.3481 402.366,60.1122 402.628,60.0878 405.856,60.5446 406.965,60.98 408.901,62.1251 410.28,63.2729 410.683,63.6357 412.308,65.2154 414.047,66.8473 415.79,68.2478 417.506,69.2897 419.165,69.9139 421.188,70.169 421.348,70.1615 421.895,70.0784 422.346,69.9464 422.585,69.8287 422.626,69.7947 422.646,69.768 422.777,69.4091 422.82,69.0027 422.448,67.7676 420.937,66.2073 417.429,64.1315 412.677,62.1631 407.545,60.4613 402.866,59.0236 402.534,58.9128 400.957,58.3412 " fill="none" stroke-width="0.5" stroke="rgb(0,0,0)" />
	<polygon points="163.223,47.3712 163.089,47.7136 162.349,49.0346 164.507,49.7681 164.701,49.837 166.898,50.6561 165.695,49.443 163.299,47.0619 " fill="none" stroke-width="0.5" stroke="rgb(0,0,0)" />
	<polygon points="397.017,39.4128 397.594,40.8002 398.137,42.6335 399.858,41.7693 400.72,41.4062 403.692,40.3797 404.153,40.2378 407.814,39.2477 408.143,39.1672 408.896,39.0018 406.713,37.8484 402.413,36.2182 398.434,35.0866 395.066,34.2436 394.54,34.0899 394,33.9093 " fill="none" stroke-width="0.5" stroke="rgb(0,0,0)" />
	<polygon points="70.1913,40.65 70.1807,40.6566 70.1368,40.6839 70.8784,40.7613 70.9971,40.1457 " fill="none" stroke-width="0.5" stroke="rgb(0,0,0)" />
	<polygon points="153.41,28.959 152.441,29.6406 151.356,30.268 150.703,30.571 152.624,31.7705 153.443,32.2662 153.652,28.6667 " fill="none" stroke-width="0.5" stroke="rgb(0,0,0)" />
	<polygon points="82.4155,28.5015 81.6178,30.6472 83.8328,29.8268 84.1798,29.686 84.0082,29.5935 82.5,28.0723 " fill="none" stroke-width="0.5" stroke="rgb(0,0,0)" />
</svg>
