<?xml version="1.0" standalone="no" ?>
<!DOCTYPE svg PUBLIC "-//W3C//DTD SVG 1.1//EN" "http://www.w3.org/Graphics/SVG/1.1/DTD/svg11.dtd">
<svg width="500px" height="500px" xmlns="http://www.w3.org/2000/svg" version="1.1" >
	<polygon points="472.223,90.4492 467.491,93.8697 468.792,94.1367 470.302,94.5944 472.223,95.3758 472.223,281.045 471.409,295.547 468.972,310.934 464.863,327.151 459.061,343.893 451.55,360.863 442.321,377.774 431.366,394.341 418.678,410.287 404.25,425.341 388.074,439.237 370.135,451.714 350.412,462.514 328.877,471.379 305.491,478.049 280.211,482.255 252.985,483.721 226.458,482.338 201.718,478.357 178.746,472.026 157.515,463.587 138.003,453.273 120.195,441.315 104.081,427.944 89.6593,413.392 76.9316,397.897 65.9022,381.7 56.5758,365.048 48.9561,348.19 43.045,331.385 39.0457,315.7 39.6909,314.382 38.7565,314.363 36.3325,298.98 35.4905,283.669 35.4905,28.1099 38.4482,28.0872 49.9399,27.9991 61.4316,27.9109 72.9232,27.8227 84.4149,27.7345 95.9066,27.6464 95.9066,27.6464 118.89,27.47 130.382,27.3818 141.873,27.2936 153.365,27.2055 176.348,27.0291 187.84,26.9409 202.14,26.8312 202.132,31.0467 202.132,31.0467 202.106,43.9455 202.081,56.8443 202.056,69.7431 202.056,69.7431 202.03,82.6419 201.979,108.439 201.979,108.439 201.954,121.338 201.903,147.136 201.903,147.136 201.878,160.035 201.852,172.933 201.827,185.832 201.801,198.731 201.776,211.63 201.776,211.63 201.75,224.529 201.751,224.612 201.838,235.907 201.839,235.971 202.003,246.788 202.006,246.905 202.303,257.211 202.31,257.39 202.794,267.152 202.811,267.405 203.539,276.589 203.573,276.932 204.599,285.505 204.666,285.957 206.046,293.886 206.169,294.471 207.959,301.722 208.178,302.464 210.432,309.003 210.806,309.913 213.579,315.708 214.184,316.77 217.533,321.786 218.439,322.922 222.419,327.127 223.639,328.194 228.304,331.554 229.743,332.391 235.149,334.872 236.627,335.393 242.83,336.963 244.181,337.192 251.236,337.817 251.738,332.14 252.086,332.861 252.176,333.098 252.502,337.83 259.763,337.329 261.121,337.125 267.468,335.647 268.982,335.143 274.477,332.725 275.973,331.879 280.679,328.557 281.955,327.454 285.933,323.265 286.875,322.08 290.188,317.061 290.805,315.957 293.515,310.145 293.887,309.207 296.055,302.637 296.266,301.883 297.954,294.593 298.069,294.007 299.34,286.034 299.399,285.589 300.315,276.969 300.344,276.639 300.967,267.409 300.979,267.174 301.371,257.371 301.376,257.212 301.598,246.873 301.599,246.779 301.715,235.94 301.715,235.902 301.785,224.599 301.785,224.528 301.759,211.63 301.733,198.731 301.707,185.832 301.682,172.933 301.682,172.933 301.656,160.034 301.604,134.237 301.604,134.237 301.578,121.338 301.501,82.6416 301.501,82.6416 301.475,69.7428 301.397,31.0464 301.397,31.0464 301.388,26.7096 304.58,26.6891 316.333,26.6136 328.086,26.538 339.84,26.4624 351.593,26.3869 363.346,26.3113 375.099,26.2357 386.853,26.1602 410.359,26.0091 422.112,25.9335 433.866,25.8579 445.619,25.7824 457.372,25.7068 469.125,25.6313 472.223,25.6113 " fill="none" stroke-width="0.5" stroke="rgb(0,0,0)" />
	<polygon points="306.111,468.734 306.563,468.816 307.232,469.009 309.005,469.772 308.499,468.532 307.812,466.23 " fill="none" stroke-width="0.5" stroke="rgb(0,0,0)" />
	<polygon points="193.151,443.398 193.567,444.624 193.971,446.189 194.533,446.313 196.019,446.552 197.448,446.7 198.577,446.744 200.085,446.662 201.464,446.419 202.634,446.036 203.529,445.562 204.185,445.022 204.723,444.325 204.93,443.87 202.961,444.017 201.646,444.015 195.428,443.526 193.973,443.284 192.996,443.035 " fill="none" stroke-width="0.5" stroke="rgb(0,0,0)" />
	<polygon points="316.858,421.332 316.375,421.435 316.676,422.227 317.025,423.379 317.355,424.831 317.424,425.163 317.622,426.226 318.105,426.573 318.645,426.996 319.511,427.731 320.473,428.688 320.868,429.148 321.52,428.523 321.955,428.135 322.664,427.543 323.28,427.074 323.98,426.589 324.865,426.052 325.555,425.688 325.867,425.554 325.775,425.379 325.426,424.138 325.104,421.809 325.104,418.614 " fill="none" stroke-width="0.5" stroke="rgb(0,0,0)" />
	<polygon points="167.206,413.448 167.212,414.701 166.944,418.63 169.296,418.892 169.322,418.594 169.653,416.873 169.749,416.554 170.553,414.703 170.71,414.432 171.306,413.65 169.085,412.486 168.412,412.094 167.032,411.203 " fill="none" stroke-width="0.5" stroke="rgb(0,0,0)" />
	<polygon points="271.498,413.958 273.471,415.719 273.848,415.655 274.206,415.601 274.371,415.579 271.173,413.687 " fill="none" stroke-width="0.5" stroke="rgb(0,0,0)" />
	<polygon points="259.826,404.542 259.207,406.063 261.847,407.381 262.406,407.686 265.189,409.343 265.354,409.448 259.981,404.488 259.877,404.372 " fill="none" stroke-width="0.5" stroke="rgb(0,0,0)" />
	<polygon points="350.995,396.018 350.336,397.119 351.997,397.026 351.118,395.822 351.102,395.797 " fill="none" stroke-width="0.5" stroke="rgb(0,0,0)" />
	<polygon points="204.492,391.233 205.024,392.418 205.055,392.505 205.122,392.406 206.909,390.535 205.571,390.521 204.013,390.349 " fill="none" stroke-width="0.5" stroke="rgb(0,0,0)" />
	<polygon points="244.297,374.534 245.504,375.544 245.601,375.646 245.507,375.296 245.242,373.815 245.198,373.324 " fill="none" stroke-width="0.5" stroke="rgb(0,0,0)" />
	<polygon points="82.8769,368.484 81.8429,368.558 81.2954,368.563 81.5746,369.27 81.9978,372.064 82.7871,371.361 83.9027,370.519 84.7382,369.99 83.6933,368.914 83.303,368.428 " fill="none" stroke-width="0.5" stroke="rgb(0,0,0)" />
	<polygon points="118.136,360.323 117.974,360.871 119.009,360.778 118.421,359.923 118.269,359.615 " fill="none" stroke-width="0.5" stroke="rgb(0,0,0)" />
	<polygon points="394.593,343.037 393.837,343.58 392.815,344.233 390.628,345.231 389.793,345.479 388.953,345.548 389.486,347.056 389.607,347.583 392.363,345.274 394.426,343.992 395.568,343.49 395.405,343.287 394.976,342.729 " fill="none" stroke-width="0.5" stroke="rgb(0,0,0)" />
	<polygon points="59.8375,341.62 61.1866,343.79 61.2245,343.614 61.7926,341.891 62.3474,340.662 62.324,340.657 61.1638,340.321 59.6094,339.751 " fill="none" stroke-width="0.5" stroke="rgb(0,0,0)" />
	<polygon points="157.73,339.015 156.297,340.121 155.417,340.663 156.292,341.194 157.32,341.925 158.98,343.3 159.006,342.511 159.045,341.924 159.224,340.16 159.32,339.485 159.626,337.807 159.808,337.028 " fill="none" stroke-width="0.5" stroke="rgb(0,0,0)" />
	<polygon points="414.876,334.44 415.028,335.374 415.075,335.697 415.233,336.966 415.287,337.574 415.348,338.703 415.356,339.408 415.346,339.741 415.338,339.876 417.278,340.041 416.364,338.262 415.467,334.376 " fill="none" stroke-width="0.5" stroke="rgb(0,0,0)" />
	<polygon points="165.23,327.811 165.033,328.356 165.539,327.976 167.309,327.157 165.952,325.102 " fill="none" stroke-width="0.5" stroke="rgb(0,0,0)" />
	<polygon points="76.3242,312.435 75.4525,315.777 75.1739,318.357 75.1983,319.222 75.2908,320.098 75.7474,319.495 77.1651,317.956 78.4046,316.848 80.1056,315.6 80.3705,315.443 79.1892,314.675 77.7602,313.534 76.5316,312.334 76.412,312.191 " fill="none" stroke-width="0.5" stroke="rgb(0,0,0)" />
	<polygon points="161.13,299.834 159.947,299.991 159.623,299.998 160.016,300.682 161.625,303.897 161.665,303.524 162.157,300.477 162.349,299.592 162.362,299.543 " fill="none" stroke-width="0.5" stroke="rgb(0,0,0)" />
	<polygon points="458.392,291.015 458.197,291.25 458.723,291.335 458.698,291.171 458.611,290.833 " fill="none" stroke-width="0.5" stroke="rgb(0,0,0)" />
	<polygon points="87.3178,288.584 87.3636,288.609 87.3767,288.471 " fill="none" stroke-width="0.5" stroke="rgb(0,0,0)" />
	<polygon points="160.967,251.523 161.432,253.148 161.595,253.816 161.96,255.626 162.033,256.041 162.325,257.97 162.356,258.201 162.601,260.179 162.607,260.232 163.39,257.505 165.031,254.396 165.857,253.399 162.566,252.537 160.351,250.516 " fill="none" stroke-width="0.5" stroke="rgb(0,0,0)" />
	<polygon points="158.013,247.286 158.012,247.297 158.577,247.614 158.992,248.292 158.144,245.954 " fill="none" stroke-width="0.5" stroke="rgb(0,0,0)" />
	<polygon points="327.752,237.109 326.946,237.109 327.655,237.91 329.447,240.903 329.518,240.867 329.646,240.818 329.074,239.466 328.37,237.206 328.338,237.049 " fill="none" stroke-width="0.5" stroke="rgb(0,0,0)" />
	<polygon points="159.126,237.436 159.109,237.616 158.884,239.688 158.875,239.771 158.785,240.529 158.871,240.024 159.018,239.008 159.136,238.001 159.222,237.002 159.275,236.009 159.282,235.656 " fill="none" stroke-width="0.5" stroke="rgb(0,0,0)" />
	<polygon points="159.087,232.639 158.946,231.751 158.483,230.132 158.469,230.098 " fill="none" stroke-width="0.5" stroke="rgb(0,0,0)" />
	<polygon points="157.791,228.692 157.79,228.694 157.921,228.831 157.831,228.622 " fill="none" stroke-width="0.5" stroke="rgb(0,0,0)" />
	<polygon points="311.625,227.621 312.919,228.39 312.479,227.351 " fill="none" stroke-width="0.5" stroke="rgb(0,0,0)" />
	<polygon points="89.6326,215.711 89.9889,216.399 90.5235,217.673 90.7754,218.441 91.0644,219.58 91.201,220.331 92.7136,219.841 93.4425,219.719 96.0651,219.684 96.7088,219.775 98.997,220.433 99.0032,220.349 99.1935,219.08 99.7466,216.647 98.0746,216.831 96.1795,216.829 92.9903,216.473 91.0614,216.029 89.4721,215.463 " fill="none" stroke-width="0.5" stroke="rgb(0,0,0)" />
	<polygon points="432.961,215.444 432.182,215.594 429.635,215.962 432.227,218.112 433.481,219.417 433.869,218.716 436.392,215.062 436.836,214.513 " fill="none" stroke-width="0.5" stroke="rgb(0,0,0)" />
	<polygon points="191.782,215.815 192.123,215.699 192.072,215.641 191.475,215.204 " fill="none" stroke-width="0.5" stroke="rgb(0,0,0)" />
	<polygon points="382.101,203.246 382.359,203.115 382.23,203.01 " fill="none" stroke-width="0.5" stroke="rgb(0,0,0)" />
	<polygon points="107.567,165.669 106.204,166.592 105.018,167.239 103.508,167.879 105.126,168.978 106.009,169.666 109.007,172.332 109.887,173.239 111.864,175.601 111.989,175.371 113.197,173.677 114.583,172.159 114.766,172.006 112.256,169.712 111.059,168.362 108.837,165.251 108.59,164.823 " fill="none" stroke-width="0.5" stroke="rgb(0,0,0)" />
	<polygon points="423.234,145.912 420.493,148.364 419.101,149.365 425.398,151.226 426.986,151.873 431.052,154.027 430.106,150.729 430.007,148.089 429.664,147.97 427.985,147.232 426.459,146.366 425.099,145.398 424.29,144.65 " fill="none" stroke-width="0.5" stroke="rgb(0,0,0)" />
	<polygon points="356.499,144.021 356.806,143.99 358.528,143.99 359.274,144.065 357.524,142.534 356.719,141.695 " fill="none" stroke-width="0.5" stroke="rgb(0,0,0)" />
	<polygon points="312.565,127.263 311.919,127.883 311.446,128.508 311.168,129.038 310.813,130.162 310.407,130.825 311.057,131.007 311.847,131.133 312.834,131.183 313.021,131.177 313.434,131.145 313.972,131.086 314.346,131.038 313.955,130.128 313.826,129.754 313.516,128.605 313.44,128.219 313.296,127.104 313.275,126.774 " fill="none" stroke-width="0.5" stroke="rgb(0,0,0)" />
	<polygon points="186.005,113.513 185.415,114.946 185.079,115.591 184.006,117.186 183.555,117.717 181.915,119.206 181.342,119.606 179.32,120.647 178.616,120.899 176.611,121.354 176.313,121.385 177.178,123.631 179.024,122.347 180.076,121.721 183.196,120.155 184.54,119.617 187.762,118.632 189.391,118.302 190.429,118.194 187.242,114.43 186.961,114.08 186.156,113.023 " fill="none" stroke-width="0.5" stroke="rgb(0,0,0)" />
	<polygon points="90.5431,118.123 89.3051,118.926 86.967,120.173 84.5821,121.023 82.2229,121.487 82.302,122.877 82.3129,123.506 83.8066,122.872 85.1155,122.462 86.8128,122.114 88.2159,121.971 89.9585,121.971 91.3636,122.114 93.0586,122.461 93.4917,122.597 93.0577,119.352 93.0349,119.166 92.7284,116.42 " fill="none" stroke-width="0.5" stroke="rgb(0,0,0)" />
	<polygon points="395.581,103.991 395.972,103.863 395.454,103.799 " fill="none" stroke-width="0.5" stroke="rgb(0,0,0)" />
	<polygon points="102.468,64.8862 102.254,65.0636 100.473,66.4915 99.6481,67.0765 98.6808,67.6803 98.8496,68.4736 98.868,68.6048 99.7608,68.0777 101.819,67.3642 104.402,67.1259 104.348,66.4703 104.325,66.1104 104.212,63.3931 " fill="none" stroke-width="0.5" stroke="rgb(0,0,0)" />
	<polygon points="415.064,65.6762 416.682,66.9756 418.187,67.8898 419.54,68.3989 421.078,68.5929 421.073,68.5753 419.969,67.4352 416.734,65.5214 413.449,64.1606 " fill="none" stroke-width="0.5" stroke="rgb(0,0,0)" />
	<polygon points="127.544,66.7193 128.181,66.062 127.795,65.5255 " fill="none" stroke-width="0.5" stroke="rgb(0,0,0)" />
	<polygon points="398.376,38.6679 399.081,40.3603 399.097,40.417 399.163,40.3841 400.214,39.9411 403.186,38.9146 403.748,38.7416 404.302,38.5919 401.925,37.691 398.034,36.5842 397.107,36.3521 " fill="none" stroke-width="0.5" stroke="rgb(0,0,0)" />
</svg>
