<?xml version="1.0" standalone="no" ?>
<!DOCTYPE svg PUBLIC "-//W3C//DTD SVG 1.1//EN" "http://www.w3.org/Graphics/SVG/1.1/DTD/svg11.dtd">
<svg width="500px" height="500px" xmlns="http://www.w3.org/2000/svg" version="1.1" >
	<polygon points="480.823,83.4556 480.754,83.571 475.438,90.043 473.475,91.8885 471.753,93.1335 473.113,93.6864 475.018,94.7006 476.741,95.8596 478.469,97.315 479.838,98.7464 480.823,100.019 480.823,193.563 480.097,194.404 478.518,195.478 477.983,195.69 480.368,198.338 480.823,198.948 480.823,249.966 480.586,250.331 479.702,251.565 480.254,251.762 480.823,252.053 480.823,281.286 479.971,296.463 479.691,298.235 478.48,299.732 477.632,300.662 475.937,302.308 477.677,305.639 478.292,307.066 477.405,312.666 473.11,329.62 467.07,347.047 459.27,364.67 454.021,374.287 452.135,374.52 452.391,377.274 449.695,382.213 438.331,399.399 425.161,415.952 410.17,431.593 399.432,440.817 398.597,440.555 398.395,441.709 393.345,446.047 374.668,459.037 354.126,470.285 331.702,479.516 319.611,482.965 317.086,481.659 316.383,481.199 316.245,482.375 315.847,483.847 315.735,484.07 307.382,486.452 281.151,490.817 252.993,492.333 225.548,490.902 199.887,486.773 176.007,480.192 172.531,478.81 171.149,478.033 169.819,477.65 169.543,477.622 153.907,471.407 133.585,460.665 125.389,455.162 125.226,454.045 123.438,453.851 115.039,448.212 98.2672,434.295 83.2685,419.161 70.0408,403.057 67.7999,399.766 67.7944,399.519 67.589,399.457 58.5824,386.23 48.8916,368.927 40.9666,351.394 34.8057,333.879 32.9583,326.633 35.1124,319.695 35.7102,318.191 36.7281,316.112 34.8739,315.529 30.6014,312.938 29.6807,312.017 27.7694,299.888 26.8905,283.906 26.8905,231.264 27.4079,230.374 26.8905,230.076 26.8905,157.289 26.9128,157.227 27.5858,155.731 30.0124,151.298 31.1401,149.637 31.3103,149.432 29.1769,148.325 27.4408,147.193 26.8905,146.751 26.8905,38.6293 29.7606,36.5276 30.2711,36.1764 30.4391,36.0679 29.6567,35.8214 28.0738,35.1769 26.8905,34.5786 26.8905,19.5757 38.3822,19.4875 49.8739,19.3993 61.3656,19.3111 72.8572,19.223 84.3489,19.1348 95.8406,19.0466 107.332,18.9584 118.824,18.8703 130.316,18.7821 141.807,18.6939 153.299,18.6057 164.791,18.5175 176.282,18.4294 187.774,18.3412 210.757,18.1648 210.732,31.0636 210.706,43.9624 210.681,56.8612 210.656,69.76 210.63,82.6588 210.62,87.9591 210.06,88.1932 208.572,88.6698 210.317,90.1216 210.615,90.3814 210.579,108.456 210.554,121.355 210.503,147.153 210.478,160.052 210.452,172.95 210.436,180.979 210.308,181.172 208.527,183.414 207.203,184.799 206.159,185.709 206.854,186.185 208.476,187.557 210.419,189.572 210.401,198.748 210.376,211.647 210.355,222.034 210.194,222.199 210.355,222.348 210.35,224.546 210.438,235.84 210.602,246.657 210.899,256.963 211.379,266.624 210.353,267.865 209.359,269.188 209.512,269.342 211.616,271.115 211.74,271.222 212.112,275.909 213.138,284.482 214.519,292.41 216.308,299.661 218.563,306.2 221.336,311.994 224.685,317.011 228.665,321.215 233.33,324.575 238.737,327.056 244.939,328.626 251.957,329.247 252.435,329.214 252.877,330.13 253.307,329.481 253.586,329.134 259.171,328.749 265.518,327.271 271.013,324.853 275.719,321.532 279.698,317.343 283.01,312.324 285.72,306.511 287.888,299.942 289.576,292.653 290.848,284.68 291.763,276.06 292.386,266.831 292.439,265.501 292.497,265.455 292.443,265.409 292.778,257.028 293,246.688 293.115,235.848 293.185,224.546 293.159,211.647 293.133,198.748 293.125,194.45 294.129,193.616 293.772,192.962 293.119,191.422 293.107,185.849 293.094,179.083 293.773,177.483 294.42,176.297 294.6,176.032 293.802,175.514 293.085,174.849 293.082,172.95 293.056,160.052 293.004,134.254 292.978,121.355 292.958,111.127 294.174,108.463 294.38,108.107 294.358,108.104 294.208,108.072 292.951,107.597 292.901,82.6588 292.875,69.76 292.797,31.0636 292.771,18.1648 304.525,18.0893 316.278,18.0137 328.031,17.9382 339.784,17.8626 351.538,17.787 363.291,17.7115 375.044,17.6359 382.606,17.5873 385.35,19.6012 385.694,18.8516 386.32,18.1235 387.062,17.5587 410.304,17.4092 422.057,17.3337 433.81,17.2581 445.564,17.1826 457.317,17.107 469.07,17.0314 480.823,16.9559 " fill="none" stroke-width="0.5" stroke="rgb(0,0,0)" />
	<polygon points="318.798,422.694 318.877,422.957 319.208,424.41 319.292,424.815 319.352,425.139 319.874,425.547 320.741,426.283 320.954,426.495 321.446,426.084 322.198,425.511 322.899,425.027 323.591,424.607 323.204,421.809 323.204,421.241 " fill="none" stroke-width="0.5" stroke="rgb(0,0,0)" />
	<polygon points="107.208,168.196 107.271,168.246 110.27,170.912 111.344,172.019 111.732,172.482 111.794,172.395 112.059,172.105 110.974,171.114 109.513,169.466 108.15,167.558 " fill="none" stroke-width="0.5" stroke="rgb(0,0,0)" />
	<polygon points="424.501,147.329 423.113,148.57 425.937,149.404 427.875,150.194 428.227,150.381 428.167,149.387 427.22,148.971 425.358,147.914 424.514,147.313 " fill="none" stroke-width="0.5" stroke="rgb(0,0,0)" />
	<polygon points="90.8879,120.156 91.2532,120.193 91.2195,119.94 " fill="none" stroke-width="0.5" stroke="rgb(0,0,0)" />
	<polygon points="186.357,117.075 186.861,116.921 186.638,116.657 " fill="none" stroke-width="0.5" stroke="rgb(0,0,0)" />
</svg>
