<?xml version="1.0" standalone="no" ?>
<!DOCTYPE svg PUBLIC "-//W3C//DTD SVG 1.1//EN" "http://www.w3.org/Graphics/SVG/1.1/DTD/svg11.dtd">
<svg width="500px" height="500px" xmlns="http://www.w3.org/2000/svg" version="1.1" >
	<polygon points="467.973,280.926 467.178,295.094 464.805,310.078 460.788,325.931 455.103,342.334 447.735,358.982 438.677,375.58 427.924,391.841 415.474,407.488 401.324,422.252 385.469,435.872 367.894,448.095 348.577,458.673 327.481,467.358 304.556,473.896 279.746,478.024 252.982,479.465 226.908,478.105 202.623,474.198 180.1,467.991 159.299,459.722 140.187,449.62 122.743,437.907 106.954,424.805 92.8175,410.541 80.337,395.347 69.5196,379.462 60.3732,363.13 52.9045,346.607 47.1167,330.152 43.0072,314.035 40.5643,298.531 39.7405,283.553 39.7405,32.3274 49.9725,32.2489 61.4642,32.1608 61.4642,32.1608 72.9558,32.0726 84.4475,31.9844 95.9392,31.8962 95.9392,31.8962 107.431,31.8081 118.923,31.7199 130.414,31.6317 141.906,31.5435 153.398,31.4554 164.889,31.3672 176.381,31.279 187.873,31.1908 197.882,31.114 197.857,43.9371 197.831,56.8359 197.806,69.7347 197.806,69.7347 197.78,82.6335 197.729,108.431 197.729,108.431 197.704,121.33 197.653,147.127 197.653,147.127 197.628,160.026 197.602,172.925 197.602,172.925 197.577,185.824 197.551,198.723 197.526,211.621 197.526,211.621 197.5,224.52 197.501,224.645 197.588,235.939 197.589,236.035 197.753,246.852 197.757,247.027 198.054,257.333 198.065,257.601 198.55,267.362 198.574,267.741 199.302,276.925 199.353,277.437 200.38,286.01 200.479,286.686 201.859,294.615 202.043,295.49 203.833,302.74 204.16,303.849 206.414,310.388 206.972,311.749 209.746,317.543 210.649,319.129 213.998,324.146 215.353,325.844 219.332,330.048 221.156,331.643 225.821,335.002 227.97,336.254 233.376,338.735 235.584,339.514 241.787,341.083 243.806,341.426 250.861,342.05 251.947,329.779 252.795,342.07 260.055,341.569 262.085,341.264 268.432,339.787 270.694,339.033 276.189,336.615 278.424,335.351 283.13,332.03 285.036,330.381 289.015,326.192 290.422,324.422 293.735,319.403 294.657,317.753 297.367,311.94 297.922,310.538 300.09,303.969 300.406,302.842 302.095,295.553 302.266,294.676 303.537,286.703 303.626,286.038 304.542,277.418 304.584,276.925 305.207,267.695 305.226,267.343 305.617,257.54 305.625,257.304 305.847,246.964 305.849,246.824 305.964,235.985 305.965,235.928 306.035,224.625 306.035,224.52 306.009,211.621 305.983,198.722 305.957,185.823 305.932,172.925 305.932,172.925 305.906,160.026 305.854,134.228 305.854,134.228 305.828,121.329 305.751,82.6331 305.751,82.633 305.725,69.7343 305.647,31.0379 305.647,31.0379 305.647,30.9323 316.36,30.8635 328.114,30.7879 339.867,30.7123 351.62,30.6368 363.373,30.5612 375.127,30.4857 386.88,30.4101 410.386,30.259 422.14,30.1834 433.893,30.1079 445.646,30.0323 457.399,29.9567 467.973,29.8888 " fill="none" stroke-width="0.5" stroke="rgb(0,0,0)" />
</svg>
