<?xml version="1.0" standalone="no" ?>
<!DOCTYPE svg PUBLIC "-//W3C//DTD SVG 1.1//EN" "http://www.w3.org/Graphics/SVG/1.1/DTD/svg11.dtd">
<svg width="500px" height="500px" xmlns="http://www.w3.org/2000/svg" version="1.1" >
	<polygon points="466.173,280.875 465.386,294.902 463.04,309.715 459.062,325.414 453.427,341.674 446.119,358.185 437.133,374.65 426.466,390.782 414.117,406.302 400.085,420.943 384.366,434.447 366.945,446.563 347.8,457.047 326.889,465.655 304.16,472.137 279.549,476.232 252.98,477.663 227.098,476.313 203.006,472.436 180.673,466.282 160.054,458.085 141.112,448.073 123.822,436.463 108.171,423.476 94.1551,409.334 81.7793,394.267 71.0516,378.513 61.9815,362.318 54.5767,345.936 48.8412,329.63 44.7722,313.671 42.3565,298.341 41.5405,283.503 41.5405,34.1137 49.9863,34.0489 61.478,33.9607 72.9697,33.8725 84.4613,33.7843 95.953,33.6962 95.953,33.6962 107.445,33.608 118.936,33.5198 130.428,33.4316 141.92,33.3435 153.411,33.2553 164.903,33.1671 176.395,33.0789 187.886,32.9908 196.078,32.9279 196.057,43.9336 196.031,56.8323 196.006,69.7311 196.006,69.7311 195.98,82.6299 195.929,108.428 195.929,108.428 195.904,121.326 195.853,147.124 195.853,147.124 195.828,160.023 195.802,172.921 195.802,172.922 195.777,185.82 195.751,198.719 195.726,211.618 195.726,211.618 195.7,224.517 195.701,224.659 195.788,235.953 195.789,236.063 195.954,246.88 195.958,247.079 196.255,257.385 196.267,257.69 196.752,267.452 196.78,267.883 197.508,277.067 197.566,277.651 198.592,286.224 198.706,286.995 200.086,294.923 200.296,295.921 202.085,303.172 202.458,304.435 204.712,310.974 205.349,312.526 208.122,318.32 209.152,320.129 212.501,325.145 214.045,327.081 218.025,331.285 220.104,333.103 224.769,336.463 227.219,337.889 232.626,340.371 235.143,341.259 241.346,342.828 243.648,343.219 250.702,343.843 251.947,329.779 252.918,343.865 260.179,343.365 262.493,343.018 268.84,341.54 271.418,340.681 276.914,338.263 279.462,336.822 284.168,333.5 286.342,331.62 290.32,327.432 291.924,325.413 295.237,320.394 296.289,318.513 298.998,312.701 299.632,311.103 301.8,304.533 302.16,303.248 303.848,295.959 304.044,294.959 305.315,286.987 305.415,286.228 306.331,277.608 306.38,277.046 307.003,267.817 307.025,267.415 307.416,257.612 307.424,257.342 307.646,247.003 307.649,246.844 307.764,236.004 307.765,235.939 307.835,224.636 307.835,224.516 307.809,211.617 307.783,198.719 307.757,185.82 307.732,172.921 307.732,172.921 307.706,160.022 307.654,134.225 307.654,134.225 307.628,121.326 307.551,82.6295 307.551,82.6294 307.525,69.7306 307.451,32.7208 316.372,32.6634 328.125,32.5879 339.878,32.5123 351.632,32.4367 363.385,32.3612 375.138,32.2856 386.892,32.2101 410.398,32.0589 422.151,31.9834 433.905,31.9078 445.658,31.8323 457.411,31.7567 466.173,31.7004 " fill="none" stroke-width="0.5" stroke="rgb(0,0,0)" />
</svg>
