<?xml version="1.0" standalone="no" ?>
<!DOCTYPE svg PUBLIC "-//W3C//DTD SVG 1.1//EN" "http://www.w3.org/Graphics/SVG/1.1/DTD/svg11.dtd">
<svg width="500px" height="500px" xmlns="http://www.w3.org/2000/svg" version="1.1" >
	<polygon points="472.323,90.2492 472.304,90.2677 467.249,93.9219 468.772,94.2347 470.264,94.687 472.323,95.5244 472.323,281.048 471.509,295.557 469.07,310.954 464.959,327.18 459.154,343.93 451.64,360.908 442.407,377.825 431.447,394.399 418.753,410.353 404.319,425.414 388.135,439.317 370.187,451.799 350.455,462.604 328.91,471.474 305.513,478.146 280.222,482.355 252.985,483.821 226.447,482.437 201.697,478.454 178.714,472.121 157.473,463.678 137.952,453.359 120.135,441.395 104.013,428.018 89.585,413.459 76.8515,397.957 65.8171,381.753 56.4864,365.093 48.8632,348.228 42.9492,331.414 39.016,315.988 39.8477,314.289 38.6398,314.265 36.2329,298.991 35.3905,283.672 35.3905,28.0107 38.4474,27.9872 49.9391,27.8991 61.4308,27.8109 72.9225,27.7227 84.4141,27.6345 95.9058,27.5464 95.9058,27.5464 107.397,27.4582 118.889,27.37 130.381,27.2818 141.873,27.1937 153.364,27.1055 164.856,27.0173 176.348,26.9291 187.839,26.8409 202.24,26.7304 202.232,31.0469 202.232,31.0469 202.206,43.9457 202.181,56.8445 202.156,69.7433 202.156,69.7433 202.13,82.6421 202.079,108.44 202.079,108.44 202.054,121.338 202.003,147.136 201.978,160.035 201.952,172.934 201.952,172.934 201.927,185.832 201.901,198.731 201.876,211.63 201.876,211.63 201.85,224.529 201.851,224.611 201.938,235.906 201.939,235.969 202.103,246.786 202.106,246.902 202.403,257.208 202.409,257.385 202.894,267.147 202.91,267.397 203.638,276.581 203.672,276.92 204.699,285.493 204.764,285.94 206.145,293.868 206.267,294.447 208.056,301.698 208.272,302.431 210.527,308.97 210.896,309.87 213.67,315.665 214.267,316.714 217.616,321.73 218.512,322.853 222.491,327.058 223.698,328.113 228.363,331.472 229.785,332.3 235.191,334.781 236.651,335.296 242.854,336.866 244.19,337.093 251.244,337.717 251.721,332.335 251.996,332.904 252.2,333.443 252.495,337.73 259.756,337.229 261.099,337.028 267.446,335.55 268.941,335.052 274.437,332.633 275.915,331.798 280.621,328.476 281.882,327.385 285.861,323.197 286.792,322.025 290.104,317.006 290.715,315.915 293.424,310.103 293.792,309.175 295.96,302.606 296.168,301.86 297.857,294.571 297.97,293.991 299.242,286.018 299.3,285.578 300.216,276.958 300.244,276.632 300.867,267.403 300.879,267.17 301.271,257.367 301.276,257.21 301.498,246.871 301.499,246.778 301.615,235.939 301.615,235.901 301.685,224.598 301.685,224.529 301.659,211.63 301.607,185.832 301.582,172.933 301.582,172.933 301.556,160.035 301.504,134.237 301.504,134.237 301.478,121.338 301.401,82.6418 301.401,82.6418 301.375,69.743 301.297,31.0466 301.297,31.0466 301.288,26.6103 304.579,26.5891 316.332,26.5136 316.332,26.5136 328.086,26.438 339.839,26.3624 351.592,26.2869 351.592,26.2869 363.345,26.2113 375.099,26.1357 386.852,26.0602 410.358,25.9091 422.112,25.8335 433.865,25.7579 445.618,25.6824 457.371,25.6068 469.125,25.5313 472.323,25.5107 " fill="none" stroke-width="0.5" stroke="rgb(0,0,0)" />
	<polygon points="305.971,468.763 305.933,468.803 306.536,468.913 307.205,469.105 309.17,469.951 309.19,469.963 308.594,468.504 307.847,466 " fill="none" stroke-width="0.5" stroke="rgb(0,0,0)" />
	<polygon points="193.059,443.437 193.47,444.649 193.889,446.274 194.515,446.412 196.005,446.651 197.441,446.8 198.578,446.845 200.097,446.761 201.489,446.516 202.673,446.128 203.584,445.645 204.257,445.092 204.809,444.377 205.091,443.758 202.954,443.917 201.654,443.915 195.436,443.426 193.998,443.187 192.825,442.888 " fill="none" stroke-width="0.5" stroke="rgb(0,0,0)" />
	<polygon points="316.826,421.237 316.24,421.362 316.583,422.262 316.927,423.401 317.258,424.853 317.326,425.182 317.531,426.283 318.046,426.654 318.58,427.072 319.447,427.807 320.397,428.753 320.861,429.294 320.875,429.28 321.59,428.595 322.019,428.211 322.728,427.62 323.337,427.156 324.037,426.671 324.912,426.14 325.602,425.776 326.004,425.604 325.871,425.352 325.522,424.111 325.204,421.809 325.204,418.476 " fill="none" stroke-width="0.5" stroke="rgb(0,0,0)" />
	<polygon points="167.107,413.455 167.112,414.695 166.839,418.692 169.39,418.988 169.389,418.97 169.422,418.602 169.749,416.902 169.845,416.583 170.639,414.753 170.797,414.483 171.457,413.617 169.131,412.398 168.466,412.01 166.916,411.009 " fill="none" stroke-width="0.5" stroke="rgb(0,0,0)" />
	<polygon points="271.002,413.674 271.431,414.033 273.441,415.826 273.865,415.753 274.218,415.7 274.672,415.641 269.918,412.828 " fill="none" stroke-width="0.5" stroke="rgb(0,0,0)" />
	<polygon points="259.731,404.514 259.099,406.066 259.075,406.109 261.803,407.471 262.355,407.772 265.138,409.429 265.599,409.724 266.38,410.26 260.048,404.415 259.832,404.171 " fill="none" stroke-width="0.5" stroke="rgb(0,0,0)" />
	<polygon points="350.905,395.974 350.154,397.229 352.206,397.114 352.081,396.972 351.203,395.771 351.092,395.587 " fill="none" stroke-width="0.5" stroke="rgb(0,0,0)" />
	<polygon points="204.404,391.281 204.93,392.452 205.028,392.724 205.205,392.462 207.138,390.438 205.582,390.422 203.833,390.229 " fill="none" stroke-width="0.5" stroke="rgb(0,0,0)" />
	<polygon points="244.161,374.55 245.432,375.613 245.8,375.996 245.603,375.27 245.341,373.806 245.274,373.054 " fill="none" stroke-width="0.5" stroke="rgb(0,0,0)" />
	<polygon points="82.8638,368.385 81.8419,368.458 81.1516,368.465 81.4757,369.285 81.9265,372.262 82.8536,371.436 83.9563,370.604 84.8962,370.008 84.8872,370 83.7713,368.851 83.3457,368.321 " fill="none" stroke-width="0.5" stroke="rgb(0,0,0)" />
	<polygon points="118.038,360.304 117.837,360.984 119.193,360.862 119.171,360.837 118.504,359.866 118.226,359.304 " fill="none" stroke-width="0.5" stroke="rgb(0,0,0)" />
	<polygon points="394.53,342.959 393.783,343.496 392.761,344.148 390.6,345.136 389.765,345.383 388.817,345.461 389.391,347.089 389.547,347.764 392.427,345.35 394.466,344.084 395.729,343.529 395.677,343.466 395.484,343.225 394.992,342.587 " fill="none" stroke-width="0.5" stroke="rgb(0,0,0)" />
	<polygon points="59.7409,341.654 61.2322,344.053 61.3223,343.635 61.8837,341.932 62.4895,340.59 62.345,340.559 61.1983,340.227 59.4904,339.6 " fill="none" stroke-width="0.5" stroke="rgb(0,0,0)" />
	<polygon points="159.842,336.858 157.661,338.943 156.245,340.036 155.225,340.664 156.241,341.28 157.256,342.002 159.073,343.507 159.106,342.514 159.144,341.934 159.323,340.17 159.418,339.503 159.724,337.825 159.918,336.996 160.017,336.654 " fill="none" stroke-width="0.5" stroke="rgb(0,0,0)" />
	<polygon points="414.76,334.352 414.93,335.39 414.976,335.709 415.134,336.979 415.188,337.58 415.248,338.708 415.256,339.405 415.246,339.738 415.232,339.967 417.446,340.156 416.461,338.239 415.544,334.267 " fill="none" stroke-width="0.5" stroke="rgb(0,0,0)" />
	<polygon points="165.884,324.97 165.133,327.785 164.826,328.637 165.599,328.056 167.455,327.197 166.008,325.007 165.911,324.817 " fill="none" stroke-width="0.5" stroke="rgb(0,0,0)" />
	<polygon points="76.2285,312.405 75.3538,315.759 75.0738,318.353 75.0985,319.229 75.2084,320.27 75.2252,320.35 75.8209,319.562 77.2386,318.024 78.4637,316.928 80.1648,315.681 80.5588,315.447 79.2516,314.597 77.8226,313.456 76.6083,312.27 76.377,311.993 " fill="none" stroke-width="0.5" stroke="rgb(0,0,0)" />
	<polygon points="161.117,299.735 159.934,299.891 159.454,299.903 159.926,300.727 161.688,304.246 161.764,303.54 162.256,300.493 162.445,299.618 162.502,299.407 " fill="none" stroke-width="0.5" stroke="rgb(0,0,0)" />
	<polygon points="458.321,290.944 458.008,291.321 458.841,291.455 458.797,291.151 458.668,290.656 " fill="none" stroke-width="0.5" stroke="rgb(0,0,0)" />
	<polygon points="87.184,288.625 87.4492,288.764 87.525,287.968 " fill="none" stroke-width="0.5" stroke="rgb(0,0,0)" />
	<polygon points="160.87,251.551 161.336,253.175 161.497,253.835 161.862,255.646 161.934,256.056 162.226,257.985 162.257,258.213 162.501,260.191 162.511,260.269 162.565,260.742 163.487,257.533 165.108,254.459 166.029,253.347 162.572,252.426 159.894,249.948 " fill="none" stroke-width="0.5" stroke="rgb(0,0,0)" />
	<polygon points="158.26,244.068 158.046,245.923 157.913,247.278 157.909,247.356 158.527,247.704 159.374,249.094 158.211,245.785 158.355,243.286 " fill="none" stroke-width="0.5" stroke="rgb(0,0,0)" />
	<polygon points="382.92,247.922 383.125,247.823 383.044,247.738 " fill="none" stroke-width="0.5" stroke="rgb(0,0,0)" />
	<polygon points="157.702,228.645 157.667,228.718 158.179,229.26 159.271,233.799 159.21,235.226 159.186,235.605 159.027,237.427 159.009,237.605 158.785,239.677 158.775,239.76 158.518,241.936 158.515,241.955 158.37,243.162 158.595,242.102 158.795,241.066 158.97,240.04 159.117,239.021 159.235,238.011 159.322,237.009 159.375,236.013 159.391,235.15 159.303,233.364 159.044,231.729 158.577,230.098 157.849,228.414 157.842,228.402 " fill="none" stroke-width="0.5" stroke="rgb(0,0,0)" />
	<polygon points="327.742,237.009 326.726,237.009 327.569,237.962 329.409,241.033 329.554,240.961 329.778,240.874 329.17,239.437 328.465,237.176 328.417,236.941 " fill="none" stroke-width="0.5" stroke="rgb(0,0,0)" />
	<polygon points="311.382,227.592 313.18,228.662 313.009,228.347 312.535,227.228 " fill="none" stroke-width="0.5" stroke="rgb(0,0,0)" />
	<polygon points="89.5438,215.757 89.9001,216.445 90.4285,217.704 90.6804,218.472 90.966,219.598 91.1156,220.42 91.1205,220.461 92.7301,219.94 93.4591,219.818 96.0511,219.783 96.6949,219.874 98.9765,220.53 99.0864,220.579 99.1029,220.357 99.291,219.102 99.8752,216.532 98.0637,216.732 96.1906,216.73 93.0014,216.374 91.0949,215.934 89.2286,215.27 " fill="none" stroke-width="0.5" stroke="rgb(0,0,0)" />
	<polygon points="432.938,215.347 432.168,215.495 429.398,215.895 432.163,218.189 433.485,219.565 433.502,219.586 433.952,218.773 436.475,215.119 437.098,214.347 " fill="none" stroke-width="0.5" stroke="rgb(0,0,0)" />
	<polygon points="191.73,215.935 192.298,215.748 192.141,215.567 191.44,215.055 191.241,214.964 " fill="none" stroke-width="0.5" stroke="rgb(0,0,0)" />
	<polygon points="381.837,203.521 380.927,204.863 380.855,204.949 380.875,204.965 382.014,203.38 382.529,203.124 382.2,202.856 " fill="none" stroke-width="0.5" stroke="rgb(0,0,0)" />
	<polygon points="108.538,164.736 107.503,165.592 106.156,166.504 104.97,167.151 103.438,167.801 103.286,167.849 105.07,169.061 105.942,169.74 108.941,172.407 109.811,173.303 111.882,175.778 112.077,175.419 113.27,173.744 114.657,172.227 114.918,172.009 112.323,169.638 111.141,168.304 108.919,165.193 108.612,164.662 " fill="none" stroke-width="0.5" stroke="rgb(0,0,0)" />
	<polygon points="423.168,145.838 420.426,148.29 418.963,149.342 418.851,149.406 418.951,149.425 425.37,151.322 426.939,151.962 431.213,154.225 430.202,150.701 430.105,148.018 429.704,147.878 428.025,147.14 426.517,146.284 425.157,145.317 424.281,144.507 " fill="none" stroke-width="0.5" stroke="rgb(0,0,0)" />
	<polygon points="356.388,144.132 356.816,144.089 358.518,144.09 359.576,144.196 357.59,142.459 356.64,141.469 " fill="none" stroke-width="0.5" stroke="rgb(0,0,0)" />
	<polygon points="127.893,138.532 127.944,138.686 127.977,138.488 " fill="none" stroke-width="0.5" stroke="rgb(0,0,0)" />
	<polygon points="313.307,126.631 312.501,127.185 311.844,127.816 311.362,128.454 311.076,128.999 310.717,130.132 310.256,130.884 310.282,130.894 311.036,131.105 311.836,131.232 312.833,131.283 313.026,131.277 313.444,131.245 313.984,131.185 314.49,131.12 314.05,130.095 313.921,129.722 313.614,128.586 313.538,128.199 313.396,127.098 313.371,126.705 313.373,126.6 " fill="none" stroke-width="0.5" stroke="rgb(0,0,0)" />
	<polygon points="185.909,113.483 185.327,114.9 184.991,115.545 183.93,117.122 183.479,117.652 181.858,119.124 181.285,119.524 179.287,120.553 178.582,120.804 176.6,121.254 176.173,121.299 177.13,123.786 179.081,122.429 180.121,121.811 183.241,120.244 184.57,119.712 187.791,118.728 189.401,118.401 190.628,118.274 187.318,114.366 187.04,114.02 186.118,112.808 " fill="none" stroke-width="0.5" stroke="rgb(0,0,0)" />
	<polygon points="92.7448,116.281 90.4816,118.044 89.2581,118.838 86.92,120.085 84.5628,120.925 82.1614,121.398 82.1177,121.4 82.2022,122.883 82.2138,123.555 82.2113,123.669 82.3025,123.619 83.8365,122.968 85.1454,122.558 86.823,122.213 88.2261,122.07 89.9484,122.07 91.3534,122.213 93.0288,122.557 93.6116,122.739 93.1568,119.339 93.1343,119.155 92.8075,116.227 " fill="none" stroke-width="0.5" stroke="rgb(0,0,0)" />
	<polygon points="395.54,104.11 396.254,103.876 396.412,103.817 395.252,103.673 " fill="none" stroke-width="0.5" stroke="rgb(0,0,0)" />
	<polygon points="68.3089,96.3068 68.3801,96.3396 68.39,96.2641 " fill="none" stroke-width="0.5" stroke="rgb(0,0,0)" />
	<polygon points="104.236,63.2412 102.403,64.8102 102.192,64.9855 100.41,66.4135 99.5951,66.9916 98.5686,67.6324 98.7506,68.4876 98.7896,68.765 99.7936,68.1722 101.852,67.4587 104.51,67.2172 104.447,66.462 104.425,66.1062 104.304,63.186 " fill="none" stroke-width="0.5" stroke="rgb(0,0,0)" />
	<polygon points="413.31,64.1669 414.998,65.7518 416.624,67.0577 418.143,67.9801 419.516,68.4966 421.218,68.7114 421.162,68.5232 420.031,67.356 416.779,65.4318 413.001,63.8666 " fill="none" stroke-width="0.5" stroke="rgb(0,0,0)" />
	<polygon points="127.375,67.0343 128.31,66.0701 127.744,65.283 " fill="none" stroke-width="0.5" stroke="rgb(0,0,0)" />
	<polygon points="398.288,38.7159 398.985,40.3887 399.035,40.56 399.208,40.4735 400.246,40.0357 403.218,39.0091 403.775,38.8381 404.626,38.6078 401.957,37.596 398.06,36.4876 396.909,36.1995 " fill="none" stroke-width="0.5" stroke="rgb(0,0,0)" />
</svg>
