<?xml version="1.0" standalone="no" ?>
<!DOCTYPE svg PUBLIC "-//W3C//DTD SVG 1.1//EN" "http://www.w3.org/Graphics/SVG/1.1/DTD/svg11.dtd">
<svg width="500px" height="500px" xmlns="http://www.w3.org/2000/svg" version="1.1" >
	<polygon points="476.473,78.8864 476.001,79.6679 470.686,86.1398 469.872,86.9044 462.839,91.9887 462.059,92.4375 453.543,96.2282 452.89,96.4586 443.125,99.0499 442.603,99.1546 431.826,100.64 431.41,100.678 419.856,101.152 419.634,101.155 416.347,101.123 416.262,101.121 412.929,101.023 412.846,101.019 409.477,100.856 409.395,100.851 405.998,100.622 405.917,100.616 402.502,100.322 402.421,100.314 398.995,99.9546 398.914,99.9453 395.488,99.5207 395.406,99.5098 391.987,99.0201 391.928,99.0111 391.453,98.9364 391.089,98.863 390.704,98.7681 390.154,98.5935 389.851,98.4742 389.092,98.0866 388.861,97.9388 388,97.2135 387.835,97.0329 387.149,96.0319 387.041,95.8143 386.695,94.8449 386.636,94.5862 386.535,93.8751 386.517,93.571 387.207,90.9528 387.741,90.128 389.133,88.7744 390.54,87.9188 390.823,87.761 392.721,86.7928 394.671,85.6779 396.375,84.3922 397.675,82.9112 398.535,81.1134 398.919,78.415 398.879,77.3143 398.744,75.9736 398.545,74.6419 398.308,73.349 398.058,72.1159 398.058,72.1142 397.833,71.0022 397.81,70.8785 397.651,69.9551 397.604,69.5873 397.543,68.881 397.547,68.3615 397.44,69.4755 397.263,70.3499 394.716,78.5315 394.35,79.3789 390.373,86.415 389.841,87.1607 384.654,93.01 384.005,93.6072 377.828,98.2285 377.113,98.6633 370.165,102.015 369.417,102.295 361.918,104.336 361.157,104.472 353.326,105.162 352.619,105.166 347.324,104.768 346.71,104.678 341.968,103.629 341.457,103.482 337.263,101.999 336.876,101.841 333.227,100.14 332.977,100.013 329.869,98.3127 329.783,98.2642 327.303,96.8326 326.645,96.4937 326.488,96.6949 325.533,98.0649 324.516,99.5347 324.39,99.7074 323.821,100.448 324.155,100.493 327.438,101.166 327.991,101.318 330.731,102.269 331.206,102.466 333.451,103.556 333.807,103.75 335.604,104.84 335.798,104.965 336.966,105.762 337.093,105.698 337.687,105.387 337.848,105.307 338.442,105.027 338.869,104.853 339.439,104.654 340.269,104.455 340.811,104.379 342.294,104.429 342.928,104.561 344.69,105.368 345.167,105.734 346.223,106.903 346.564,107.457 346.994,108.383 347.223,109.081 347.375,109.69 347.514,110.486 347.563,110.869 347.635,111.719 347.648,111.949 347.674,112.807 347.676,112.921 347.68,113.742 347.674,113.994 347.523,116.826 347.483,117.228 347.018,120.386 346.945,120.763 346.338,123.304 347.397,123.547 348.731,124.879 349.479,126.051 349.736,126.512 350.397,127.893 350.545,128.241 351.115,129.758 351.209,130.037 351.685,131.618 351.75,131.858 352.126,133.432 352.174,133.66 352.448,135.155 352.486,135.401 352.653,136.745 352.681,137.062 352.738,138.182 352.724,138.813 352.097,145.414 351.913,146.318 350.452,150.926 351.18,150.325 351.874,149.857 353.003,149.245 353.789,148.913 355.038,148.527 355.89,148.353 357.231,148.219 358.103,148.219 359.442,148.354 360.295,148.527 361.542,148.914 362.328,149.245 363.457,149.857 364.151,150.325 365.135,151.136 365.722,151.723 366.534,152.707 367.002,153.401 367.463,154.25 367.473,154.109 367.494,153.915 367.567,153.467 367.6,153.314 367.776,152.716 367.819,152.601 368.198,151.828 368.249,151.745 368.972,150.863 369.029,150.809 370.146,150.05 370.209,150.02 371.476,149.644 371.541,149.635 373.802,149.928 374.272,150.124 374.965,150.488 375.719,150.976 376.715,151.588 378.002,152.244 379.729,152.914 382.003,153.52 384.922,153.966 388.61,154.143 390.613,154.083 392.716,153.918 394.941,153.675 397.318,153.388 397.344,153.384 399.877,153.095 399.968,153.085 402.677,152.832 402.816,152.821 405.747,152.643 405.919,152.635 409.116,152.568 409.599,152.584 416.931,153.244 417.774,153.405 424.194,155.302 424.997,155.629 430.683,158.64 431.322,159.054 436.454,163.056 436.89,163.447 441.648,168.317 441.912,168.613 446.474,174.227 446.613,174.407 451.16,180.642 451.21,180.711 455.38,186.67 457.953,188.185 457.964,188.191 462.025,190.598 462.236,190.731 466.625,193.684 466.977,193.948 471.346,197.579 471.797,198.012 475.799,202.454 476.28,203.099 476.473,203.416 476.473,245.276 475.804,246.416 475.588,246.748 471.404,252.583 471.35,252.656 466.986,258.482 466.301,259.485 468.809,257.955 470.176,257.413 473.107,256.795 474.455,256.725 475.924,256.878 476.473,257.003 476.473,281.164 475.794,293.273 473.698,295.866 473.346,296.251 470.388,299.125 467.746,300.338 466.386,299.989 466.973,300.497 467.586,301.147 469.911,304.192 470.31,304.819 472.226,308.486 472.482,309.08 473.227,311.237 473.14,311.79 468.939,328.371 463.019,345.452 455.365,362.745 452.327,368.311 450.148,367.772 448.258,364.884 447.108,358.242 444.663,354.381 440.945,351.486 436.098,349.056 430.877,346.732 430.445,346.511 425.816,343.797 424.751,342.918 421.478,339.201 420.505,337.306 419.264,331.932 419.17,330.562 419.385,328.185 417.194,329.646 415.931,329.994 415.244,330.125 413.457,330.319 413.304,330.332 411.325,330.476 409.909,330.625 410.094,331.802 410.343,333.2 410.599,334.623 410.61,334.691 410.834,336.06 410.858,336.223 411.016,337.493 411.043,337.8 411.104,338.929 411.108,339.285 411.098,339.619 411.077,339.936 411.043,340.271 410.975,340.714 410.908,341.036 410.735,341.643 410.627,341.938 410.243,342.731 410.086,342.985 409.347,343.885 409.132,344.084 408.896,344.243 411.639,343.916 412.523,343.902 417.871,344.357 418.603,344.484 423.898,345.87 424.632,346.135 429.669,348.48 430.393,348.907 434.971,352.239 435.643,352.845 439.558,357.192 440.112,357.962 443.159,363.353 443.532,364.221 445.51,370.683 445.682,371.553 446.386,379.115 446.383,379.202 445.965,379.968 434.808,396.841 421.882,413.086 407.176,428.431 400.102,434.507 399.46,434.204 398.701,433.746 397.286,432.68 396.765,432.217 395.483,430.882 395.093,430.414 394,428.899 393.683,428.388 392.834,426.782 392.564,426.158 392.014,424.553 391.815,423.7 391.62,422.184 391.592,421.356 391.622,420.883 391.71,420.239 391.818,419.739 392.048,418.999 392.262,418.477 392.642,417.755 392.886,417.381 392.848,417.384 389.184,416.994 388.399,416.836 384.839,415.771 384.224,415.536 380.886,413.956 380.387,413.678 377.389,411.742 376.95,411.418 374.838,409.643 375.364,410.967 375.714,412.769 375.793,413.597 375.793,417.615 375.792,417.717 375.775,418.44 375.763,418.682 375.706,419.397 375.671,419.703 375.565,420.401 375.492,420.775 375.329,421.448 375.207,421.855 376.176,421.129 379.291,420.289 380.861,420.473 381.777,420.682 383.41,421.247 384.224,421.627 385.836,422.593 386.546,423.125 388.053,424.512 388.635,425.169 389.953,426.999 390.381,427.737 391.426,430.028 391.69,430.785 392.379,433.56 392.495,434.279 392.743,437.556 392.69,438.636 392.227,441.272 390.679,442.603 372.375,455.333 352.247,466.354 330.273,475.4 322.607,477.586 322.574,477.573 319.91,476.196 319.165,475.709 316.967,473.923 316.34,473.297 314.614,471.184 314.135,470.461 312.892,468.102 312.571,467.317 311.818,464.794 311.657,463.971 311.404,461.366 311.393,460.661 311.635,456.977 311.701,456.456 312.372,452.891 312.481,452.445 313.504,449.039 313.637,448.661 314.933,445.453 315.057,445.179 314.716,445.359 313.956,445.679 313.306,445.894 312.554,446.078 311.885,446.188 311.189,446.248 311.027,446.252 310.596,447.501 309.436,451.624 309.396,451.761 307.886,456.523 307.733,456.935 305.699,461.64 305.304,462.358 302.538,466.431 301.599,467.429 297.892,470.294 296.178,471.098 291.32,472.181 289.937,472.263 285.927,471.858 285.114,471.697 281.24,470.535 280.544,470.259 276.862,468.417 276.287,468.071 272.852,465.628 272.382,465.241 269.25,462.274 268.866,461.86 266.091,458.447 265.777,458.008 264.252,455.567 266.84,460.387 270.03,464.363 273.603,467.463 277.449,469.807 281.444,471.489 285.44,472.586 289.27,473.179 292.829,473.359 295.389,473.331 297.318,473.257 298.668,473.157 299.607,473.048 300.356,472.934 301.053,472.823 301.255,472.796 301.971,472.717 302.298,472.694 303.162,472.663 303.66,472.675 304.531,472.744 305.387,472.9 306.056,473.093 307.062,473.526 307.556,473.817 308.508,474.577 308.853,474.942 309.524,475.872 309.746,476.286 310.094,477.143 310.22,477.582 310.354,478.229 310.41,478.668 310.444,479.086 310.457,479.5 310.308,480.771 310.213,481.121 306.425,482.202 280.675,486.486 267.239,487.21 267.058,487.062 266.536,486.558 265.059,484.871 264.654,484.32 261.084,486.139 260.84,486.254 257.414,487.739 252.989,487.977 226.008,486.57 200.813,482.516 180.969,477.047 177.063,474.303 173.54,472.322 170.983,471.585 167.611,471.251 164.915,471.102 155.732,467.452 135.82,456.926 132.08,454.414 130.895,452.026 131.533,449.19 133.801,447.399 127.222,447.99 126.363,447.983 121.757,447.483 117.647,444.723 101.208,431.082 86.501,416.243 73.9785,400.998 73.9401,400.691 73.9203,399.805 74.3298,394.677 74.441,393.988 75.5697,389.382 75.7823,388.737 77.4805,384.682 77.7781,384.099 79.896,380.623 80.2673,380.104 82.6554,377.235 83.1055,376.769 85.614,374.535 86.1783,374.109 88.6575,372.537 89.4309,372.149 91.7312,371.268 94.6372,371.195 96.9402,372.969 97.592,375.954 96.9211,380.584 97.0617,380.157 97.4408,379.318 99.5207,375.771 100.046,375.054 102.773,372.037 103.401,371.466 106.668,369.03 107.363,368.607 111.065,366.804 111.806,366.523 115.836,365.404 116.608,365.262 120.859,364.878 121.728,364.886 129.404,365.734 130.353,365.948 137.437,368.407 138.304,368.821 144.662,372.767 145.389,373.332 150.889,378.64 151.451,379.302 155.96,385.846 156.357,386.555 157.309,388.707 157.104,387.836 157.073,387.691 156.483,384.727 156.463,384.621 155.944,381.627 155.275,378.845 154.236,376.412 152.748,374.11 150.763,371.936 148.222,369.904 145.072,368.049 141.27,366.419 136.644,365.02 132.944,364.014 132.723,363.947 129.771,362.973 129.443,362.851 127.203,361.906 126.722,361.667 125.1,360.733 124.437,360.263 123.34,359.32 122.591,358.485 121.923,357.515 121.372,356.398 121.041,355.382 120.841,354.393 120.752,353.311 120.801,352.209 121.106,350.45 121.563,349.13 122.419,347.54 123.082,346.621 124.402,345.219 125.066,344.644 126.76,343.452 127.362,343.097 129.343,342.135 129.892,341.913 132.071,341.201 132.597,341.064 134.885,340.622 135.425,340.552 137.735,340.4 138.192,340.394 141.298,340.517 141.714,340.553 144.629,340.95 145.141,341.051 147.884,341.768 148.459,341.962 151.05,343.043 151.63,343.338 154.09,344.829 154.609,345.199 156.959,347.144 157.379,347.543 159.638,349.988 159.953,350.37 162.142,353.36 162.427,353.802 164.199,356.965 164.423,357.426 165.861,360.893 165.976,361.204 167.152,364.791 167.207,364.971 168.194,368.49 168.208,368.543 169.067,371.756 169.829,374.348 170.435,375.891 170.648,376.197 170.85,376.28 171.182,376.38 171.573,376.464 171.991,376.525 172.405,376.56 172.817,376.571 173.333,376.565 173.884,376.547 174.44,376.52 175.001,376.488 175.556,376.455 175.578,376.454 176.112,376.425 176.172,376.422 176.677,376.402 176.782,376.399 177.257,376.391 177.92,376.431 179.934,376.707 175.651,372.974 175.116,372.418 170.491,366.656 170.068,366.023 166.622,359.732 166.305,359.001 164.153,352.457 163.963,351.59 163.221,345.068 163.195,344.433 163.253,342.65 163.273,342.353 163.452,340.589 163.501,340.247 163.807,338.57 163.906,338.146 164.345,336.622 164.55,336.061 165.128,334.759 165.564,333.996 166.288,332.983 167.215,332.032 168.091,331.375 169.742,330.611 170.775,330.377 172.184,330.292 173.092,330.386 174.049,330.596 174.827,330.862 175.67,331.254 176.354,331.667 176.489,331.764 173.553,328.758 173.036,328.117 169.471,322.719 169.045,321.894 166.745,315.959 166.487,314.943 165.672,308.608 165.643,307.821 165.811,304.663 165.861,304.202 166.353,301.155 166.45,300.707 167.245,297.783 167.384,297.357 168.462,294.569 168.639,294.17 169.978,291.528 170.189,291.159 171.768,288.676 172.006,288.339 173.807,286.028 174.068,285.722 176.068,283.593 178.652,282.262 179.887,282.611 176.2,280.108 175.759,279.765 171.644,276.12 170.957,275.347 168.047,271.162 167.378,269.649 166.274,264.823 166.334,262.652 167.475,258.678 168.305,257.106 171.315,253.47 171.925,252.866 176.18,249.414 176.423,249.231 181.27,245.832 185.936,242.442 189.661,239.097 191.9,235.934 192.708,232.51 192.701,232.336 192.611,231.55 192.452,230.623 192.226,229.615 191.937,228.573 191.593,227.545 191.205,226.577 190.712,225.551 190.399,222.661 191.976,220.22 194.739,219.316 196.906,219.957 200.253,222.01 200.604,222.25 203.671,224.572 204,224.847 206.017,226.713 206.088,235.874 206.088,235.906 206.253,246.723 206.254,246.782 206.551,257.089 206.554,257.179 206.818,262.489 205.522,264.056 203.769,266.388 202.809,268.183 202.559,269.454 202.823,270.806 203.671,272.182 205.336,273.866 207.654,275.818 207.73,275.883 207.747,275.899 207.775,276.253 207.793,276.426 208.819,284.999 208.853,285.228 210.233,293.157 210.296,293.453 212.085,300.703 212.196,301.078 212.307,301.401 211.34,303.135 211.241,303.304 208.915,307.065 206.667,310.818 204.826,314.452 203.625,317.9 203.195,321.249 203.407,323.644 204.04,325.935 205.053,328.016 206.423,329.865 208.136,331.456 210.182,332.755 212.56,333.721 214.089,334.049 212.012,332.645 211.477,332.219 208.874,329.787 208.112,328.843 206.271,325.769 205.719,324.292 205.021,320.347 204.966,319.267 205.056,318.056 205.124,317.547 205.394,316.162 205.488,315.773 205.938,314.233 206.042,313.921 206.672,312.245 206.781,311.982 207.592,310.192 207.705,309.961 208.696,308.076 208.813,307.868 209.986,305.908 210.108,305.715 211.462,303.7 212.766,302.733 214.45,307.618 214.639,308.078 217.413,313.873 217.719,314.41 221.068,319.426 221.526,320.001 225.506,324.205 226.123,324.745 230.788,328.105 231.516,328.528 236.922,331.01 237.669,331.273 243.872,332.843 244.556,332.959 247.541,333.223 248.259,334.709 248.531,335.428 249.444,338.688 249.567,339.285 250.018,342.653 250.053,343.078 250.174,346.526 250.16,347.057 249.632,353.09 249.501,353.833 247.867,359.951 247.595,360.693 244.781,366.622 244.342,367.354 240.275,372.82 239.653,373.495 236.702,376.082 236.716,376.082 237.889,376.216 238.902,376.457 239.93,376.836 240.843,377.302 241.728,377.894 242.442,378.492 243.185,379.264 243.687,379.892 244.101,380.522 244.284,380.495 244.72,380.454 245.286,380.428 245.915,380.446 247.161,380.571 248.057,380.758 249.163,381.114 250.014,381.492 250.973,382.048 251.708,382.584 251.943,382.796 249.609,374.185 249.475,373.435 248.66,364.348 248.665,363.523 249.661,353.658 249.831,352.817 252.713,343.437 253.033,342.668 257.639,334.029 258.092,333.343 258.228,333.175 259.47,333.089 260.158,332.986 266.505,331.508 267.27,331.253 272.765,328.835 273.522,328.407 278.228,325.085 278.873,324.527 282.852,320.339 283.328,319.739 286.641,314.72 286.953,314.162 288.31,311.252 292.604,309.898 293.473,309.719 304.277,308.624 304.9,308.605 307.713,308.724 308.087,308.756 310.726,309.098 311.125,309.168 313.528,309.711 313.979,309.838 316.084,310.558 316.627,310.786 318.372,311.663 319.059,312.092 320.382,313.101 321.226,313.952 321.979,314.958 322.378,313.943 322.737,313.739 320.975,312.688 320.386,312.267 318.734,310.865 318.132,310.24 316.814,308.565 316.268,307.666 315.394,305.734 315.053,304.568 314.737,302.393 314.722,301.257 314.939,299.426 315.111,298.626 315.178,298.415 314.928,298.682 311.412,302.054 310.827,302.525 306.237,305.608 305.444,306.029 299.478,308.446 298.612,308.696 290.966,310.067 289.012,309.745 289.662,308.349 289.851,307.875 292.019,301.305 292.126,300.924 293.814,293.634 293.872,293.338 295.143,285.365 295.173,285.139 296.089,276.52 296.104,276.353 296.527,270.078 297.414,269.539 298.337,269.116 299.48,268.747 300.393,268.557 301.652,268.434 302.81,268.476 305.086,268.866 306.328,269.279 308.345,270.307 309.094,270.792 310.903,272.247 311.267,272.575 312.919,274.242 313.018,274.346 314.49,275.933 315.641,277.055 316.017,277.314 316.079,277.238 316.159,277.088 316.209,276.924 315.556,274.342 313.722,272.229 310.275,269.912 305.757,267.424 305.604,267.335 300.919,264.501 300.338,264.08 296.965,261.185 297.124,257.201 297.127,257.121 297.349,246.781 297.35,246.734 297.465,235.895 297.465,235.875 297.534,224.788 297.698,224.47 299.819,222.481 299.875,222.477 298.833,221.905 298.151,221.442 297.528,220.926 297.509,211.638 297.483,198.824 298.148,198.273 298.829,197.809 300.519,196.879 301.301,196.544 303.16,195.955 304.026,195.774 305.072,195.666 304.632,195.479 303.446,194.832 302.758,194.366 301.722,193.511 301.14,192.928 300.284,191.893 299.818,191.204 299.171,190.017 298.839,189.233 298.429,187.924 298.253,187.066 298.11,185.663 298.11,184.781 298.253,183.379 298.429,182.521 298.839,181.212 299.172,180.429 299.819,179.243 300.285,178.554 301.141,177.519 301.723,176.937 302.758,176.082 303.446,175.617 304.632,174.97 305.416,174.638 306.723,174.229 307.581,174.053 308.981,173.91 309.861,173.91 311.268,174.053 312.123,174.227 313.436,174.636 314.219,174.967 315.085,175.438 315.212,174.187 315.385,173.334 315.772,172.089 316.102,171.306 316.713,170.179 317.179,169.488 317.636,168.932 315.438,168.661 315.103,168.606 312.899,168.158 312.6,168.086 310.752,167.571 310.511,167.497 309.007,166.983 308.86,166.929 308.787,166.901 308.763,166.957 308.311,168.092 308.187,168.372 307.688,169.406 307.117,170.294 306.528,171.004 304.446,172.387 303.697,172.614 300.729,172.455 299.244,171.823 297.987,171.008 297.427,170.487 297.406,160.043 297.354,134.245 297.345,129.823 297.925,129.374 298.733,129.391 298.543,129.099 298.29,128.427 298.232,128.265 298,127.565 297.947,127.393 297.739,126.668 297.691,126.486 297.512,125.741 297.469,125.546 297.335,124.849 297.328,121.346 297.322,118.228 297.431,117.59 298.199,114.614 298.454,113.896 299.768,111.018 300.182,110.302 302.068,107.654 302.665,106.977 305.15,104.689 305.921,104.123 309.031,102.327 309.911,101.941 313.162,100.927 312.956,100.5 312.806,100.099 312.663,99.6454 312.525,99.1046 312.465,98.8303 312.333,98.1291 312.293,97.8729 312.09,96.2635 311.869,94.5595 311.612,92.919 311.513,92.4487 310.412,93.3792 308.088,95.4337 308.06,95.4582 305.658,97.5447 305.521,97.6587 303.244,99.4788 302.894,99.7313 300.907,101.019 299.864,101.512 298.334,102.001 297.29,102.159 297.254,84.2473 298.271,82.3853 299.571,79.8397 299.699,79.5353 298.441,79.3813 297.244,79.2527 297.225,69.7513 297.212,63.1939 298.444,62.3168 299.88,61.0939 300.056,60.8723 299.205,60.3463 297.377,59.4786 297.204,59.4004 297.172,43.4561 298.57,42.6896 299.211,42.2714 298.754,41.4435 297.163,38.9955 297.147,31.0549 297.147,31.0549 297.13,22.4869 304.553,22.4392 304.913,22.4369 307.542,23.8684 310.748,25.5615 311.48,25.8929 311.525,25.1352 311.551,24.0836 311.555,23.2287 311.558,23.0873 311.584,22.394 316.306,22.3636 328.059,22.2881 339.812,22.2125 351.566,22.137 363.319,22.0614 375.072,21.9858 378.13,21.9662 378.371,22.1075 384.58,26.6658 385.272,27.2989 390.328,33.045 390.877,33.8278 394.649,40.7104 395.005,41.5665 396.805,47.6452 396.897,47.2742 397.625,46.3598 399.075,45.1836 401.07,44.1823 401.601,43.9583 404.573,42.9317 404.858,42.8442 408.519,41.854 408.722,41.8044 412.785,40.9123 412.966,40.8765 415.898,40.3623 412.61,37.9101 407.827,35.383 403.262,33.6528 399.132,32.4778 395.722,31.6244 395.397,31.5295 393.102,30.7613 391.221,29.5142 390.393,28.5757 389.309,25.8786 390.357,22.8615 390.983,22.1335 391.314,21.8814 410.332,21.7591 422.085,21.6836 433.838,21.608 441.381,21.5595 442.703,22.7676 443.563,23.8522 444.859,26.1664 445.358,27.5959 445.815,30.4116 445.853,31.5057 445.695,33.2245 445.597,33.8276 445.181,35.5869 445.088,35.9205 444.5,37.7447 444.463,37.8555 443.801,39.7327 443.178,41.6082 442.672,43.4709 442.334,45.3653 442.209,47.3552 442.262,48.1712 442.401,48.8162 442.583,49.2627 442.769,49.5397 442.972,49.7283 443.293,49.9073 443.883,50.0783 444.725,50.1502 445.387,50.0571 445.611,49.9462 445.86,49.6989 446.228,49.0644 446.608,47.9591 446.905,46.4481 447.081,44.6368 447.137,42.6226 447.103,40.9671 447.013,39.3868 446.883,37.8891 446.73,36.4683 446.573,35.1253 446.571,35.1051 446.431,33.866 446.421,33.7639 446.323,32.6515 446.309,32.433 446.271,31.4494 446.285,30.9052 446.515,28.2736 446.661,27.474 447.329,25.1006 447.647,24.2915 448.719,22.2048 449.174,21.5094 457.345,21.4569 469.098,21.3813 476.473,21.3339 " fill="none" stroke-width="0.5" stroke="rgb(0,0,0)" />
	<polygon points="258.251,446.803 257.807,446.856 257.524,446.928 257.255,447.041 256.863,447.278 256.276,447.735 255.478,448.482 254.404,449.618 254.3,449.724 253.308,450.704 254.606,450.221 256.197,449.948 256.523,449.953 256.838,449.97 257.266,450.008 257.757,450.08 258.261,450.184 258.875,450.358 259.429,450.561 260.111,450.879 260.69,451.212 261.36,451.688 261.937,452.186 262.509,452.784 262.993,453.397 261.267,449.686 261.228,449.601 260.816,448.663 260.464,448.073 260.088,447.594 259.717,447.233 259.383,446.99 259.123,446.857 258.969,446.81 258.758,446.788 " fill="none" stroke-width="0.5" stroke="rgb(0,0,0)" />
	<polygon points="184.227,435.364 184.54,435.815 186.98,439.867 187.255,440.406 189.241,445.064 189.452,445.684 190.462,449.605 190.801,449.744 192.128,450.135 193.738,450.49 195.462,450.767 197.145,450.942 198.61,450.999 200.572,450.891 202.499,450.552 204.302,449.962 205.898,449.116 207.256,447.998 208.387,446.533 209.284,444.564 209.946,441.51 211.475,439.038 212.359,438.65 209.951,439.187 209.328,439.28 202.644,439.779 201.979,439.778 195.761,439.289 195.025,439.167 189.828,437.839 189.079,437.572 184.845,435.614 184.142,435.205 184.051,435.14 " fill="none" stroke-width="0.5" stroke="rgb(0,0,0)" />
	<polygon points="226.686,382.486 225.825,382.843 217.557,385.275 216.715,385.434 206.899,386.306 206.037,386.297 197.839,385.392 196.922,385.189 194.542,384.383 195.683,385.518 196.111,386.013 198.592,389.361 198.92,389.875 200.757,393.26 201.026,393.86 202.168,397.024 202.38,397.872 202.772,400.558 202.789,401.684 202.56,403.679 202.284,404.78 201.625,406.447 201.029,407.498 199.985,408.857 199.196,409.649 197.812,410.718 197.021,411.204 195.343,412.002 194.661,412.259 192.733,412.806 192.18,412.924 190.046,413.238 189.603,413.28 187.309,413.381 186.821,413.375 183.963,413.179 183.436,413.11 180.542,412.551 180.094,412.44 177.225,411.562 176.834,411.422 174.05,410.27 173.694,410.103 171.057,408.722 170.717,408.523 168.29,406.956 167.949,406.712 165.792,405.004 165.434,404.686 163.609,402.881 163.27,402.505 162.097,401.037 161.742,400.521 161.093,399.413 162.117,403.571 162.23,404.274 162.969,413.777 162.972,414.411 162.652,419.095 162.565,419.711 161.503,424.661 161.295,425.349 159.34,430.289 158.953,431.044 155.954,435.701 155.337,436.457 151.142,440.557 150.311,441.193 144.77,444.461 143.837,444.873 136.798,447.035 135.911,447.209 134.281,447.355 136.026,447.233 136.894,447.398 137.754,447.525 138.688,447.631 139.671,447.716 140.677,447.78 141.683,447.823 142.667,447.848 143.486,447.854 148.681,447.523 152.946,446.609 156.401,445.2 159.1,443.38 161.142,441.183 162.616,438.564 163.543,435.439 163.884,431.601 163.879,431.275 163.861,430.759 163.83,430.222 163.79,429.667 163.741,429.101 163.685,428.526 163.625,427.949 163.56,427.365 164.225,424.535 166.524,422.756 169.787,422.976 171.89,423.999 172.349,424.258 174.867,425.887 175.242,426.158 175.415,426.299 175.121,425.74 174.143,423.345 173.873,422.378 173.56,420.395 173.523,419.335 173.556,418.967 173.723,418.097 173.819,417.778 174.226,416.841 174.383,416.571 175.035,415.715 175.252,415.494 176.045,414.855 176.319,414.682 177.11,414.291 177.44,414.167 178.139,413.971 178.522,413.897 179.1,413.825 179.535,413.8 179.974,413.797 180.998,413.842 181.362,413.874 182.286,413.993 182.499,414.026 183.436,414.194 183.445,414.195 184.438,414.376 185.571,414.544 187.025,414.692 188.954,414.801 191.123,414.837 195.858,413.967 198.713,411.982 201.057,408.716 203.226,404.282 205.499,399.521 205.822,398.958 208.643,394.788 209.645,393.738 213.6,390.788 215.361,390.007 221.046,388.888 222.219,388.819 223.264,388.899 223.768,388.968 225.016,389.212 225.419,389.311 226.794,389.72 227.176,389.853 228.407,390.348 228.197,389.776 228.136,389.598 227.827,388.629 227.725,388.248 227.507,387.261 227.418,386.674 227.336,385.654 227.336,384.944 227.424,383.877 227.556,383.117 227.81,382.16 227.946,381.797 " fill="none" stroke-width="0.5" stroke="rgb(0,0,0)" />
	<polygon points="241.708,407.582 241.831,408.466 241.857,408.698 241.931,409.571 241.944,409.812 241.969,410.672 241.918,411.468 241.14,416.444 240.769,417.643 238.563,422.273 237.997,423.163 234.558,427.35 233.943,427.963 229.466,431.608 228.859,432.022 223.538,435.028 222.943,435.307 216.973,437.575 216.729,437.649 220.778,437.036 227.018,435.165 232.517,432.571 237.249,429.345 241.187,425.574 244.309,421.339 246.592,416.705 248.115,411.351 249.797,408.983 249.307,409.129 248.479,409.289 247.464,409.385 246.431,409.36 245.493,409.224 244.456,408.939 243.589,408.582 242.969,408.265 242.147,407.759 241.881,407.581 241.685,407.439 " fill="none" stroke-width="0.5" stroke="rgb(0,0,0)" />
	<polygon points="325.898,413.769 325.032,414.163 315.527,417.296 314.608,417.492 307.596,418.208 308.444,418.513 309.609,419.212 310.872,420.36 311.645,421.406 312.21,422.441 312.704,423.739 312.881,424.322 313.211,425.774 313.246,425.942 313.509,427.352 313.76,428.418 313.904,428.783 313.982,428.848 314.692,429.353 314.714,429.369 315.621,430.022 315.895,430.236 316.761,430.971 317.247,431.455 317.981,432.31 318.566,433.19 319.074,434.201 319.484,435.476 319.674,436.679 319.686,437.205 320.129,436.564 320.297,436.337 321.9,434.311 322.034,434.149 322.756,433.322 322.868,433.198 323.588,432.436 323.744,432.278 324.459,431.593 324.679,431.397 325.388,430.805 325.7,430.568 326.4,430.083 326.847,429.811 327.538,429.447 328.176,429.173 328.854,428.945 329.728,428.747 330.392,428.667 331.734,428.716 332.395,428.843 333.02,429.014 333.971,429.35 334.046,429.377 335.249,429.828 336.68,430.31 337.261,430.469 336.852,430.303 334.756,429.297 334.122,428.923 332.538,427.8 331.713,427.036 330.712,425.835 329.866,424.228 329.517,422.987 329.354,421.809 329.354,413.773 329.539,412.521 329.857,411.463 329.896,411.385 " fill="none" stroke-width="0.5" stroke="rgb(0,0,0)" />
	<polygon points="255.423,390.827 255.375,391.539 255.301,392.1 255.163,392.789 255.025,393.308 254.806,393.968 254.617,394.442 254.535,394.617 254.825,395.032 255.201,395.668 255.504,396.289 255.777,396.985 255.977,397.64 256.144,398.398 256.235,399.035 256.292,399.858 256.283,400.566 256.187,401.577 256.027,402.404 255.751,403.335 255.428,404.129 254.988,404.963 254.51,405.684 253.923,406.403 253.31,407.018 252.591,407.606 251.869,408.086 251.035,408.527 250.239,408.852 249.808,408.98 253.876,408.487 256.724,409.595 257.09,409.757 259.949,411.184 260.232,411.338 263.015,412.995 263.251,413.146 265.868,414.942 266.084,415.1 268.448,416.945 268.668,417.129 270.69,418.934 270.946,419.182 272.04,420.332 273.094,420.102 273.285,420.064 274.57,419.843 274.751,419.816 276.085,419.643 276.256,419.624 277.64,419.501 277.801,419.489 279.234,419.415 279.386,419.41 280.868,419.385 281.042,419.386 283.173,419.436 283.367,419.444 285.57,419.595 285.753,419.611 288.034,419.864 288.205,419.886 290.569,420.243 290.727,420.27 293.182,420.734 293.327,420.764 295.877,421.336 296.009,421.368 297.382,421.722 297.769,421.069 298.276,420.391 299.106,419.549 299.797,419.016 300.845,418.43 291.166,417.445 290.253,417.252 280.169,413.952 279.306,413.561 270.7,408.468 269.964,407.921 262.863,401.365 262.292,400.722 256.722,393.036 256.312,392.342 255.419,390.453 " fill="none" stroke-width="0.5" stroke="rgb(0,0,0)" />
	<polygon points="351.041,385.998 350.775,386.696 347.168,394.17 346.767,394.84 341.711,401.782 341.151,402.412 340.076,403.408 340.229,403.351 343.59,402.339 344.099,402.218 348.039,401.533 348.541,401.476 353.049,401.224 353.448,401.22 357.242,401.357 357.588,401.383 361.059,401.787 361.466,401.855 364.557,402.516 365.056,402.654 367.712,403.564 368.341,403.836 370.505,404.983 371.15,405.421 370.284,404.016 369.77,402.8 369.323,401.031 369.533,398.273 370.75,395.388 370.978,395.042 368.972,396.143 367.831,396.574 362.635,397.737 360.711,397.732 359.561,397.468 358.083,396.822 357.006,396.087 356.183,395.358 355.204,394.239 354.755,393.625 353.899,392.207 353.633,391.693 352.924,390.064 352.753,389.601 352.216,387.846 352.102,387.383 351.762,385.588 351.696,385.073 351.62,383.967 " fill="none" stroke-width="0.5" stroke="rgb(0,0,0)" />
	<polygon points="117.929,385.264 117.012,386.191 116.369,387.212 115.973,388.349 115.829,389.666 116.12,392.499 116.926,394.977 118.171,397.12 119.803,398.94 121.77,400.416 124.002,401.514 126.416,402.193 127.989,402.339 127.764,402.272 125.567,401.443 124.971,401.165 123.06,400.091 122.461,399.685 120.885,398.415 120.283,397.824 119.095,396.407 118.53,395.543 117.78,394.029 117.387,392.816 117.126,391.255 117.083,390.159 117.186,388.969 117.333,388.165 117.633,387.103 117.958,386.282 118.438,385.356 118.947,384.588 118.95,384.584 " fill="none" stroke-width="0.5" stroke="rgb(0,0,0)" />
	<polygon points="277.317,386.958 280.943,390.764 285.507,394.055 290.941,396.637 297.185,398.326 304.286,398.942 307.817,398.795 310.994,398.376 313.661,397.744 315.754,396.972 315.94,396.869 315.007,396.426 314.334,395.944 312.711,393.684 312.456,392.852 312.332,390.813 312.422,390.308 312.615,389.637 310.975,390.288 310.759,390.367 308.003,391.294 307.678,391.39 304.465,392.199 304.066,392.28 300.359,392.852 299.918,392.898 295.676,393.115 295.149,393.11 291.636,392.863 291.046,392.781 287.655,392.069 287.077,391.905 283.915,390.768 283.325,390.504 280.5,388.982 279.88,388.576 277.498,386.71 276.858,386.093 276.481,385.646 " fill="none" stroke-width="0.5" stroke="rgb(0,0,0)" />
	<polygon points="353.574,361.365 353.014,362.036 350.82,364.185 350.077,364.77 348.255,365.905 350.123,365.395 352.784,366.566 354.129,370.179 353.363,377.613 353.309,377.895 353.613,377.503 354.306,376.801 354.969,376.251 355.925,375.606 356.498,375.28 357.746,374.69 358.196,374.507 359.765,373.969 360.105,373.868 361.87,373.42 370.945,370.404 371.477,370.084 370.136,370.219 369.308,370.224 366.938,370.01 366.129,369.859 363.994,369.247 363.197,368.93 361.322,367.962 360.589,367.485 358.998,366.203 358.372,365.585 357.091,364.033 356.605,363.307 355.659,361.528 355.331,360.729 354.924,359.367 " fill="none" stroke-width="0.5" stroke="rgb(0,0,0)" />
	<polygon points="299.161,351.327 297.363,353.444 294.177,355.363 293.243,355.784 288.738,357.206 288.677,357.225 283.777,358.693 279.394,360.64 275.978,363.416 273.595,367.64 272.679,373.894 272.787,373.502 272.939,373.082 273.28,372.355 273.485,372.007 274.039,371.26 274.293,370.985 275.075,370.317 275.374,370.118 276.324,369.64 276.664,369.519 277.656,369.291 278.031,369.25 278.823,369.236 279.119,369.258 279.242,368.048 279.3,367.653 279.54,366.429 279.701,365.834 280.095,364.699 280.518,363.819 281.107,362.879 282.119,361.758 282.941,361.117 284.694,360.297 285.788,360.06 288.222,360.234 289.638,360.76 290.716,361.344 292.585,362.73 292.68,362.803 295.059,364.671 298.028,366.695 301.813,368.686 303.017,369.122 302.768,368.904 302.187,368.287 301.281,367.114 300.841,366.416 300.169,365.085 299.872,364.328 299.453,362.876 299.302,362.077 299.158,360.54 299.144,359.928 299.196,358.822 299.226,358.48 299.364,357.389 299.4,357.158 299.596,356.084 299.62,355.961 299.844,354.903 299.847,354.889 300.061,353.898 300.226,353.035 300.324,352.321 300.356,351.713 300.345,351.45 300.312,351.192 300.26,350.963 300.185,350.743 300.076,350.51 299.917,350.245 299.704,349.963 " fill="none" stroke-width="0.5" stroke="rgb(0,0,0)" />
	<polygon points="323.436,362.462 322.992,364.021 322.694,364.784 321.979,366.206 321.532,366.914 320.566,368.161 319.973,368.786 318.778,369.82 318.054,370.328 316.649,371.113 315.825,371.467 314.696,371.82 320.544,372.193 323.588,372.122 327.234,371.885 331.167,371.462 335.158,370.832 338.975,369.988 342.369,368.935 345.063,367.729 346.151,366.973 343.487,367.887 342.536,368.097 339.063,368.467 338.224,368.475 335.002,368.193 334.206,368.048 331.264,367.222 330.455,366.904 327.839,365.563 327.076,365.064 324.831,363.236 324.18,362.577 323.559,361.8 " fill="none" stroke-width="0.5" stroke="rgb(0,0,0)" />
	<polygon points="386.578,305.673 385.598,306.485 384.462,307.756 383.304,309.394 382.215,311.296 381.258,313.358 380.535,315.34 380.273,316.694 380.058,319.042 379.881,322.033 379.693,325.218 379.684,325.34 379.422,328.344 379.384,328.654 378.98,331.176 378.787,331.937 378.174,333.672 376.628,335.744 376.225,336.036 378.46,337.633 379.08,338.171 381.566,340.781 382.109,341.481 383.939,344.419 384.348,345.271 385.478,348.47 385.698,349.427 386.084,352.824 386.095,353.704 385.87,356.204 385.728,356.982 385.387,358.208 385.953,357.543 385.977,357.515 389.985,352.883 390.481,352.395 395.092,348.531 396.136,347.883 402.159,345.236 403.395,344.899 403.426,344.895 402.834,344.628 401.604,343.795 400.475,342.707 400.147,342.353 398.87,340.815 398.771,340.692 397.42,338.939 396.118,337.269 395.576,336.64 395.562,336.651 394.42,337.638 393.209,338.692 393.079,338.801 391.931,339.724 391.548,339.999 390.526,340.651 389.42,341.157 388.585,341.404 386.809,341.55 386.621,341.527 385.572,341.259 385.403,341.193 384.514,340.719 384.365,340.616 383.681,340.028 383.555,339.895 383.059,339.261 382.958,339.103 382.615,338.457 382.54,338.281 382.319,337.619 382.272,337.431 382.16,336.744 382.144,336.551 382.184,335.505 382.462,333.769 382.64,333.053 383.373,330.904 383.472,330.643 384.508,328.143 384.524,328.105 385.689,325.369 386.807,322.528 387.739,319.662 388.363,316.858 388.598,314.032 388.571,312.574 388.456,310.732 388.223,308.852 387.859,307.15 387.405,305.874 387.111,305.394 " fill="none" stroke-width="0.5" stroke="rgb(0,0,0)" />
	<polygon points="322.487,321.731 320.833,323.878 319.533,324.764 318.345,325.331 317.677,325.533 318.519,326.307 319.17,327.06 319.777,327.951 320.267,328.904 320.595,329.799 320.833,330.809 320.932,331.683 320.929,332.683 320.772,334.005 320.484,335.124 320.042,336.216 319.442,337.257 318.758,338.135 317.984,338.906 317.101,339.588 316.333,340.063 315.294,340.564 314.627,340.82 313.474,341.158 312.921,341.282 311.698,341.472 311.237,341.519 309.988,341.579 309.675,341.582 308.744,341.56 308.581,341.553 307.619,341.494 307.52,341.487 306.527,341.403 306.486,341.399 305.471,341.304 304.46,341.211 303.474,341.133 302.512,341.081 301.591,341.062 300.419,341.099 299.336,341.211 298.908,341.295 299.347,341.926 299.83,342.836 299.978,343.218 301.287,342.307 302.785,342.166 306.421,342.456 307.131,342.573 310.418,343.396 311.123,343.638 314.018,344.921 314.695,345.296 317.158,346.963 317.788,347.483 318.912,348.602 318.914,347.861 319.16,345.094 319.256,344.495 319.905,341.702 320.006,341.338 320.924,338.523 320.983,338.356 322.034,335.529 323.053,332.78 323.884,330.209 324.423,327.852 324.62,325.597 324.595,324.93 324.505,324.175 324.352,323.435 324.13,322.698 323.828,321.951 323.433,321.184 322.95,320.42 " fill="none" stroke-width="0.5" stroke="rgb(0,0,0)" />
	<polygon points="179.23,334.422 179.823,335.106 180.372,335.689 183.039,338.088 185.704,339.976 188.461,341.456 191.389,342.592 194.566,343.428 198.058,343.994 201.915,344.313 206.104,344.411 209.761,344.228 213,343.723 215.804,342.958 218.088,342.013 219.762,341.004 220.752,340.109 221.08,339.598 220.912,338.967 220.063,337.984 218.419,336.806 219.065,338.645 218.085,341.382 215.64,342.882 214.477,343.135 214.424,343.146 213.288,343.379 213.213,343.394 212.097,343.602 211.999,343.619 210.897,343.798 210.776,343.816 209.682,343.963 209.54,343.979 208.448,344.089 208.285,344.102 207.189,344.171 207.01,344.179 205.903,344.202 205.38,344.182 198.771,343.525 197.983,343.373 191.545,341.494 190.85,341.224 184.802,338.26 184.176,337.886 179.017,334.175 " fill="none" stroke-width="0.5" stroke="rgb(0,0,0)" />
	<polygon points="357.677,340.855 357.68,340.817 357.671,340.569 357.63,340.213 357.56,339.837 357.454,339.44 357.312,339.024 357.128,338.59 356.9,338.14 " fill="none" stroke-width="0.5" stroke="rgb(0,0,0)" />
	<polygon points="367.733,280.474 367.961,280.681 371.121,283.754 371.473,284.14 373.659,286.849 374.318,287.977 375.135,290.037 374.856,293.819 373.99,295.316 372.522,296.832 370.189,298.283 369.504,298.629 366.103,299.985 365.737,300.113 361.667,301.329 361.424,301.394 357.084,302.421 356.886,302.463 352.674,303.256 352.467,303.289 348.782,303.799 348.47,303.831 345.711,304.012 345.033,304.003 344.44,303.949 343.538,303.769 343.064,303.621 342.519,303.377 342.536,303.428 342.867,305.124 342.933,306.308 342.832,307.553 342.681,308.39 342.367,309.496 341.966,310.454 341.422,311.412 340.739,312.317 339.949,313.119 339.105,313.787 338.053,314.425 337.234,314.811 335.904,315.277 335.593,315.358 339.65,317.219 340.286,317.579 345.145,320.891 345.719,321.359 349.736,325.245 350.227,325.809 353.383,330.137 353.774,330.784 356.051,335.424 356.207,335.827 355.982,334.695 357.339,332.124 358.007,331.915 357.384,331.966 357.253,331.958 356.696,331.886 356.569,331.862 355.978,331.703 355.859,331.662 355.217,331.381 355.11,331.324 354.418,330.86 354.328,330.787 353.641,330.081 353.571,329.991 353.004,329.021 352.96,328.915 352.654,327.783 352.638,327.661 352.704,326.162 352.922,325.176 353.186,324.368 353.761,323.057 353.911,322.749 354.723,321.234 354.797,321.103 355.728,319.5 355.748,319.467 356.289,318.556 355.228,318.292 353.132,317.795 352.947,317.747 351.099,317.221 350.486,316.996 349.178,316.401 347.411,314.927 346.915,314.215 346.146,311.412 346.531,309.916 346.734,309.472 348.145,307.757 348.717,307.344 349.529,306.883 350.412,306.499 350.843,306.339 351.98,305.982 352.231,305.912 353.565,305.579 353.721,305.544 355.194,305.234 355.292,305.214 356.848,304.924 356.906,304.914 358.361,304.663 361.53,303.925 364.822,302.813 368.096,301.343 371.108,299.578 373.626,297.612 375.447,295.582 376.48,293.65 376.827,291.694 376.539,289.343 375.72,287.244 374.406,285.313 372.605,283.471 370.39,281.713 367.889,280.033 365.338,278.454 " fill="none" stroke-width="0.5" stroke="rgb(0,0,0)" />
	<polygon points="366.055,328.204 364.681,329.01 363.255,329.865 363.16,329.92 361.825,330.675 361.519,330.832 361.071,331.041 365.558,331.657 366.192,331.793 367.433,332.157 367.076,330.982 367.008,330.731 366.582,328.948 366.346,328.05 " fill="none" stroke-width="0.5" stroke="rgb(0,0,0)" />
	<polygon points="419.642,321.757 420.197,322.466 420.413,322.901 420.545,323.982 420.555,323.956 421.63,321.867 421.937,321.395 " fill="none" stroke-width="0.5" stroke="rgb(0,0,0)" />
	<polygon points="399.973,302.808 400.603,304.78 401.666,306.91 403.108,309.078 404.851,311.179 406.802,313.119 408.857,314.813 411.033,316.272 412.053,316.896 413.214,317.539 414.481,318.207 415.561,318.776 414.194,316.533 414.117,316.401 412.305,313.176 410.126,309.64 407.6,306.291 404.806,303.595 401.873,301.898 399.824,301.511 " fill="none" stroke-width="0.5" stroke="rgb(0,0,0)" />
	<polygon points="419.951,262.659 419.769,263.399 419.313,264.735 419.183,265.072 418.538,266.547 418.473,266.691 417.734,268.227 417.726,268.244 417.242,269.239 417.82,269.369 419.673,269.778 419.868,269.825 421.492,270.263 422.095,270.474 423.244,270.974 425.021,272.396 425.457,272.992 426.289,275.778 425.779,277.614 425.312,278.485 423.532,280.265 422.258,280.947 421.421,281.289 419.53,281.84 419.19,281.924 416.872,282.401 416.766,282.421 414.236,282.877 411.763,283.354 409.621,283.876 407.895,284.489 406.48,285.146 405.241,285.835 404.266,286.501 403.564,287.111 403.121,287.627 402.885,288.027 402.835,288.172 402.964,288.212 403.918,288.373 405.213,288.474 406.671,288.504 410.441,288.263 413.839,287.636 416.961,286.735 419.789,285.679 422.316,284.585 424.495,283.594 424.648,283.528 426.388,282.816 427.11,282.592 428.351,282.322 429.64,282.237 429.827,282.253 430.603,282.39 430.772,282.436 431.579,282.743 431.727,282.818 432.5,283.312 432.626,283.413 433.291,284.076 433.393,284.202 433.892,284.975 433.967,285.124 434.279,285.935 434.325,286.104 434.464,286.887 434.48,287.076 434.304,288.72 434.049,289.55 433.622,290.508 432.949,291.631 432.757,291.923 431.806,293.255 431.749,293.333 430.676,294.766 429.667,296.152 429.213,296.846 429.907,297.308 431.711,298.33 433.642,299.372 433.743,299.428 435.449,300.409 435.857,300.675 437.042,301.546 438.269,302.94 438.677,303.675 438.772,307.714 438.683,307.894 437.967,308.931 437.828,309.08 436.986,309.781 436.797,309.902 436.049,310.283 435.811,310.376 435.237,310.558 434.95,310.627 434.53,310.706 434.194,310.753 433.894,310.784 433.509,310.811 433.294,310.82 432.86,310.828 432.649,310.827 431.88,310.805 431.703,310.796 430.857,310.737 430.759,310.729 429.856,310.645 429.815,310.641 428.88,310.546 427.954,310.453 427.081,310.376 426.289,310.325 426.265,310.325 426.246,310.925 426.213,312.762 426.209,312.903 426.118,314.705 426.077,315.123 425.85,316.659 425.615,317.508 425.848,317.314 426.569,316.827 428.53,315.77 429.329,315.437 431.486,314.782 432.328,314.615 434.632,314.39 435.212,314.372 437.253,314.446 437.593,314.471 439.256,314.663 439.217,314.399 439.176,313.98 439.103,312.47 439.111,311.913 439.306,309.455 439.42,308.753 440.001,306.41 440.245,305.696 441.202,303.535 441.602,302.821 441.826,302.497 439.449,300.054 437.481,293.544 435.345,287.35 432.987,281.468 430.373,275.953 427.475,270.858 424.262,266.23 420.707,262.108 420.119,261.572 " fill="none" stroke-width="0.5" stroke="rgb(0,0,0)" />
	<polygon points="458.243,286.148 456.799,286.816 455.373,287.997 453.893,289.784 452.378,292.127 450.817,294.894 450.228,295.971 451.233,295.639 452.155,295.443 454.863,295.167 455.995,295.2 459.184,295.714 460.423,296.111 463.385,297.579 463.45,297.622 463.198,297.282 463.098,295.118 463.128,294.973 463.137,294.914 463.149,294.789 463.161,294.606 463.169,294.367 463.175,294.081 463.177,293.749 463.177,293.484 463.099,291.889 462.87,290.327 462.486,288.846 461.979,287.595 461.422,286.703 460.929,286.211 460.531,285.998 459.961,285.907 " fill="none" stroke-width="0.5" stroke="rgb(0,0,0)" />
	<polygon points="335.832,292.506 335.928,292.711 336.929,294.274 338.259,296.096 339.052,297.173 339.082,296.792 339.209,296.227 339.486,295.399 339.823,294.651 339.96,294.373 340.436,293.49 340.473,293.423 340.887,292.686 340.689,292.659 338.906,292.536 336.67,292.491 " fill="none" stroke-width="0.5" stroke="rgb(0,0,0)" />
	<polygon points="392.012,263.179 391.969,263.425 391.437,265.983 391.411,266.102 390.801,268.675 390.8,268.678 390.203,271.187 389.707,273.546 389.379,275.71 389.26,277.7 389.312,278.941 389.475,280.169 389.736,281.237 390.054,282.039 390.343,282.503 390.497,282.652 390.527,282.667 390.56,282.672 390.67,282.61 391.117,282.176 391.694,281.342 392.26,280.163 392.725,278.723 393.03,277.106 393.144,275.297 393.097,273.014 392.967,270.774 392.782,268.673 392.565,266.715 392.344,264.906 392.343,264.898 392.147,263.272 392.137,263.179 392.087,262.675 " fill="none" stroke-width="0.5" stroke="rgb(0,0,0)" />
	<polygon points="354.623,265.058 350.521,267.023 350.153,267.179 345.68,268.837 341.591,270.434 338.67,272.067 337.247,273.601 336.727,275.651 336.809,276.275 337.037,276.786 337.391,277.196 337.999,277.62 338.905,278.014 340.034,278.313 341.264,278.488 342.498,278.544 342.972,278.533 342.954,278.215 342.904,277.636 342.844,277.025 342.78,276.409 342.777,276.376 342.72,275.786 342.712,275.689 342.672,275.145 342.663,274.961 342.648,274.472 342.664,273.935 342.689,273.672 342.834,272.891 342.906,272.637 343.191,271.896 343.308,271.658 343.737,270.963 343.897,270.751 344.476,270.123 344.677,269.944 345.402,269.422 345.642,269.283 346.482,268.912 346.759,268.823 347.651,268.638 347.962,268.606 349.648,268.767 351.73,269.392 352.562,269.738 354.632,270.866 354.005,269.681 353.841,269.141 353.959,266.273 354.143,265.81 354.855,264.91 " fill="none" stroke-width="0.5" stroke="rgb(0,0,0)" />
	<polygon points="360.279,243.514 359.694,244.098 357.906,245.573 357.216,246.039 355.165,247.153 354.381,247.484 352.118,248.189 351.263,248.364 349.407,248.552 349.903,248.791 352.313,249.72 354.848,250.343 358.027,250.607 360.677,251.802 361.983,254.4 361.579,256.844 359.835,260.432 358.679,261.895 357.474,262.882 358.027,262.695 358.624,262.539 359.521,262.372 359.87,262.321 360.849,262.22 361.067,262.203 362.049,262.151 362.188,262.146 363.097,262.127 363.173,262.126 363.913,262.123 364.703,262.113 364.644,261.247 364.643,261.234 364.578,260.252 364.576,260.212 364.519,259.216 364.516,259.146 364.476,258.162 364.473,258.055 364.458,257.109 364.458,256.98 364.466,256.342 364.471,256.189 364.5,255.596 364.517,255.375 364.571,254.84 364.616,254.513 364.698,254.048 364.818,253.55 364.934,253.167 365.256,252.385 365.409,252.096 366.283,250.957 366.479,250.774 368.021,249.924 367.836,249.886 366.623,249.514 365.848,249.191 364.73,248.594 364.037,248.132 363.047,247.328 362.45,246.738 361.623,245.745 361.143,245.038 360.511,243.876 360.332,243.45 " fill="none" stroke-width="0.5" stroke="rgb(0,0,0)" />
	<polygon points="443.302,248.86 444.191,251.186 445.371,254.109 445.372,254.113 446.726,257.478 446.748,257.535 448.136,261.131 448.177,261.242 448.484,262.107 448.544,261.988 450.071,259.109 450.126,259.01 451.808,256.028 451.847,255.96 453.351,253.404 451.846,252.643 451.697,252.564 448.242,250.646 447.986,250.493 444.509,248.238 444.138,247.968 442.464,246.612 " fill="none" stroke-width="0.5" stroke="rgb(0,0,0)" />
	<polygon points="379.97,194.904 379.97,195.792 379.819,197.264 379.642,198.124 379.21,199.499 378.877,200.283 378.195,201.53 377.729,202.217 376.828,203.307 376.247,203.887 375.157,204.788 374.47,205.252 373.906,205.56 374.187,205.647 374.972,205.977 376.368,206.734 377.062,207.201 378.278,208.203 378.866,208.791 379.869,210.005 380.337,210.699 381.094,212.093 381.425,212.879 381.903,214.42 382.077,215.273 382.243,216.928 382.244,217.798 382.077,219.458 381.904,220.31 381.426,221.854 381.096,222.64 380.339,224.037 379.871,224.732 378.868,225.948 378.28,226.537 377.064,227.54 376.369,228.009 374.974,228.765 374.459,228.982 375.09,229.238 376.251,229.843 376.944,230.294 377.949,231.091 378.546,231.667 379.37,232.628 379.855,233.32 380.474,234.417 380.825,235.215 381.214,236.417 381.402,237.3 381.537,238.58 381.542,239.443 381.407,240.889 381.246,241.721 380.856,243.035 380.525,243.843 379.905,245.006 379.413,245.739 378.588,246.732 377.96,247.349 376.955,248.153 376.228,248.625 375.068,249.223 374.281,249.535 372.989,249.908 372.182,250.06 371.949,250.081 372.181,250.164 373.605,251.009 374.695,251.979 375.173,252.478 376.292,253.849 376.472,254.085 377.585,255.656 377.628,255.718 378.409,256.862 379.281,255.951 380.498,254.673 380.665,254.507 381.852,253.387 382.335,252.993 383.461,252.202 384.755,251.581 385.794,251.281 387.373,251.126 387.674,251.152 388.624,251.341 388.879,251.423 389.997,251.965 390.208,252.108 391.162,252.989 391.331,253.2 391.902,254.131 392.03,254.415 392.289,255.166 392.379,255.529 392.475,256.064 392.527,256.513 392.554,256.879 392.566,257.24 392.766,256.825 392.913,256.584 393.514,255.811 393.694,255.627 394.514,254.97 394.722,254.841 395.661,254.404 395.893,254.328 396.818,254.133 397.07,254.108 399.022,254.364 399.999,254.729 401.356,255.545 402.322,256.4 402.81,256.906 403.772,258.085 403.929,258.29 404.884,259.613 405.751,260.795 405.924,260.997 406.796,260.413 408.019,259.47 409.301,258.439 409.385,258.373 410.593,257.448 410.936,257.211 411.985,256.557 412.891,256.15 412.55,255.939 407.632,254.052 402.212,252.53 396.823,251.025 396.402,250.884 391.589,248.994 390.674,248.501 386.797,245.769 385.642,244.563 383.055,240.533 382.422,238.882 381.481,233.098 381.435,232.095 381.571,230.167 381.623,229.736 381.98,227.654 382.028,227.414 382.533,225.218 382.557,225.118 383.134,222.855 383.696,220.622 384.16,218.516 384.464,216.602 384.575,214.841 384.565,214.436 384.53,213.996 384.476,213.613 384.406,213.29 384.325,213.024 384.238,212.809 384.146,212.634 383.911,212.286 383.187,209.471 384.397,206.828 387.002,205.537 389.422,205.945 394.729,208.525 395.588,209.077 399.221,212.062 399.983,212.872 402.247,216.001 403.613,213.684 407.054,212.715 413.787,213.727 414.276,213.83 419.734,215.307 420.5,215.594 424.944,217.755 425.82,218.319 429.513,221.383 430.19,222.087 433.394,226.273 433.769,226.855 434.674,228.534 434.898,227.022 435.205,225.944 436.95,221.884 437.367,221.131 439.89,217.477 440.303,216.965 443.288,213.797 443.673,213.435 446.803,210.831 447.185,210.548 450.146,208.59 450.606,208.324 453.081,207.091 453.942,206.77 455.616,206.342 456.242,206.3 455.258,205.856 452.814,205.155 451.422,204.992 450.452,205.155 448.502,205.857 445.642,207.047 445.563,207.079 441.974,208.489 441.736,208.575 437.426,209.986 437.089,210.081 431.968,211.312 431.574,211.387 425.552,212.258 425.134,212.298 418.121,212.628 417.365,212.597 404.6,210.967 403.428,210.646 393.142,206.209 392.116,205.587 384.068,199.025 383.346,198.275 379.839,193.633 " fill="none" stroke-width="0.5" stroke="rgb(0,0,0)" />
	<polygon points="314.763,221.445 314.084,221.906 312.392,222.834 311.613,223.167 309.754,223.755 308.891,223.934 306.909,224.14 306.013,224.14 304.506,223.984 305.702,225.128 306.912,228.871 308.592,230.761 311.31,232.378 314.946,233.957 315.106,234.031 318.906,235.868 319.687,236.354 322.952,238.899 324.009,240.094 326.294,243.909 326.862,245.489 327.211,247.773 327.438,247.486 328.431,246.501 329.188,245.901 330.305,245.203 331.046,244.833 332.214,244.383 332.883,244.185 334.031,243.944 334.631,243.861 335.688,243.789 336.503,243.81 336.861,243.853 336.519,243.511 335.045,241.725 334.578,241.034 333.464,238.986 333.132,238.202 332.428,235.941 332.253,235.086 332.007,232.662 332.007,231.785 332.022,231.638 331.677,231.825 330.894,232.156 329.583,232.564 328.729,232.738 327.324,232.88 326.444,232.88 325.049,232.738 324.191,232.561 322.888,232.153 322.104,231.821 320.922,231.175 320.233,230.709 319.201,229.855 318.618,229.272 317.765,228.238 317.299,227.549 316.653,226.362 316.322,225.579 315.913,224.269 315.738,223.413 315.595,222.008 315.595,221.129 315.636,220.724 " fill="none" stroke-width="0.5" stroke="rgb(0,0,0)" />
	<polygon points="407.382,228.611 409.223,232.272 411.966,235.974 414.474,238.375 418.085,241.285 418.092,241.291 422.474,244.837 422.66,244.997 423.338,245.612 422.741,244.832 416.194,237.168 410.198,230.304 410.065,230.144 406.097,225.135 " fill="none" stroke-width="0.5" stroke="rgb(0,0,0)" />
	<polygon points="462.389,210.576 462.544,211.182 462.651,211.782 462.705,212.189 462.763,212.892 462.777,213.157 462.795,213.96 462.79,214.276 462.662,216.796 462.637,217.099 462.3,219.88 462.276,220.052 461.8,222.993 461.785,223.077 461.24,226.077 461.238,226.088 460.698,229.016 460.241,231.723 459.935,234.063 459.833,235.85 459.927,237.06 460.187,238.212 460.588,239.284 461.076,240.191 461.367,240.58 461.422,240.536 462.846,238.944 464.423,236.684 465.913,233.957 467.138,230.941 467.949,227.813 468.234,224.751 467.633,219.358 466.079,215.109 463.837,211.745 462.278,210.24 " fill="none" stroke-width="0.5" stroke="rgb(0,0,0)" />
	<polygon points="364.555,229.36 364.613,229.939 364.71,229.875 365.811,229.278 365.222,229.095 364.436,228.762 364.432,228.76 " fill="none" stroke-width="0.5" stroke="rgb(0,0,0)" />
	<polygon points="337.901,210.892 337.201,211.361 335.386,212.336 334.6,212.664 334.057,212.83 334.595,213.274 335.179,213.857 336.036,214.892 336.504,215.582 337.151,216.77 337.485,217.555 337.894,218.865 338.041,219.578 338.89,218.876 339.582,218.409 341.631,217.294 342.415,216.963 343.131,216.74 343.122,216.734 342.085,215.878 341.501,215.294 340.645,214.257 340.179,213.567 339.532,212.379 339.2,211.594 338.791,210.284 338.77,210.178 " fill="none" stroke-width="0.5" stroke="rgb(0,0,0)" />
	<polygon points="356.473,216.733 355.784,217.199 355.388,217.415 357.216,218.408 357.243,218.427 357.18,217.799 357.18,216.928 357.266,216.077 " fill="none" stroke-width="0.5" stroke="rgb(0,0,0)" />
	<polygon points="320.557,212.205 320.92,211.959 321.577,211.6 321.128,211.357 320.677,211.053 " fill="none" stroke-width="0.5" stroke="rgb(0,0,0)" />
	<polygon points="360.801,204.884 360.976,205.741 361.119,207.143 361.119,208.023 361.096,208.25 361.14,208.206 362.353,207.204 363.046,206.737 364.025,206.204 363.377,205.927 362.138,205.246 361.454,204.781 360.528,204.013 " fill="none" stroke-width="0.5" stroke="rgb(0,0,0)" />
	<polygon points="355.51,194.791 354.729,195.123 352.635,195.781 351.776,195.957 349.536,196.187 348.649,196.187 346.411,195.957 345.551,195.78 343.769,195.22 343.772,195.23 343.943,196.08 344.115,197.812 345.003,197.33 345.787,196.998 347.1,196.589 347.955,196.414 349.363,196.271 350.242,196.272 351.646,196.414 352.502,196.59 353.812,196.999 354.596,197.331 355.783,197.978 356.471,198.443 357.301,199.128 356.986,198.124 356.809,197.265 356.658,195.792 356.658,194.904 356.739,194.121 " fill="none" stroke-width="0.5" stroke="rgb(0,0,0)" />
	<polygon points="314.222,195.482 313.438,195.813 312.124,196.222 311.269,196.397 311.18,196.406 311.616,196.544 312.396,196.879 314.087,197.808 314.229,197.905 314.41,196.081 314.569,195.293 " fill="none" stroke-width="0.5" stroke="rgb(0,0,0)" />
	<polygon points="320.755,185.662 320.692,186.289 321.127,185.996 321.326,185.889 320.755,185.577 " fill="none" stroke-width="0.5" stroke="rgb(0,0,0)" />
	<polygon points="367.946,163.068 367.613,163.855 367,164.981 366.531,165.674 365.72,166.656 365.132,167.242 364.148,168.052 363.456,168.518 362.326,169.13 361.542,169.461 360.294,169.847 360.187,169.869 360.341,170.023 361.715,171.682 362.18,172.368 363.22,174.267 363.554,175.05 364.212,177.143 364.389,178.004 364.619,180.243 364.619,181.132 364.389,183.366 364.211,184.229 364.137,184.461 364.161,184.451 365.524,184.021 366.387,183.841 367.843,183.691 368.732,183.69 370.205,183.841 371.062,184.017 372.438,184.448 373.22,184.78 374.468,185.46 375.049,185.853 372.574,180.791 372.33,180.178 369.564,171.33 369.435,170.802 368.007,162.871 " fill="none" stroke-width="0.5" stroke="rgb(0,0,0)" />
	<polygon points="333.479,184.018 333.191,184.257 334.079,184.529 333.984,184.228 333.862,183.635 " fill="none" stroke-width="0.5" stroke="rgb(0,0,0)" />
	<polygon points="346.41,158.143 342.908,161.759 342.187,162.358 338.08,165.081 337.344,165.474 332.809,167.355 332.799,167.359 333.472,167.913 334.059,168.499 334.871,169.481 335.339,170.174 335.952,171.3 336.254,172.015 336.479,171.683 337.852,170.024 338.432,169.445 340.092,168.073 340.778,167.609 342.677,166.572 343.459,166.239 345.552,165.582 346.411,165.405 348.476,165.194 348.331,164.979 347.719,163.853 347.386,163.067 347,161.822 346.825,160.968 346.69,159.632 346.69,158.76 346.804,157.628 " fill="none" stroke-width="0.5" stroke="rgb(0,0,0)" />
	<polygon points="314.6,121.799 312.816,122.281 311.239,123.016 309.871,123.958 308.732,125.05 307.845,126.225 307.23,127.396 306.761,128.879 305.008,131.197 303.606,131.544 303.784,131.705 305.177,132.804 306.489,133.674 307.735,134.34 308.941,134.829 310.148,135.165 311.403,135.366 312.79,135.436 313.25,135.422 313.831,135.377 314.476,135.306 315.16,135.218 315.851,135.125 315.887,135.12 316.541,135.037 316.657,135.024 317.245,134.965 317.486,134.948 317.992,134.926 318.431,134.929 318.995,134.961 319.549,135.028 320.057,135.124 320.694,135.294 321.141,135.45 321.855,135.776 322.234,135.992 322.983,136.531 323.287,136.804 323.973,137.584 324.198,137.913 324.697,138.88 324.836,139.262 325.074,140.277 325.121,140.71 325.125,141.63 325.046,142.405 324.924,143.073 324.697,143.932 324.54,144.41 324.379,144.821 326.838,144.624 329.872,143.873 332.721,142.608 335.264,140.825 336.429,139.566 334.86,140.7 332.07,141.518 329.389,140.396 328.46,139.197 327.952,138.229 327.42,137.392 326.776,136.544 326.018,135.705 325.144,134.89 324.149,134.115 323.027,133.393 321.598,132.65 321.179,132.434 320.621,132.09 320.258,131.828 319.742,131.389 319.441,131.089 318.999,130.574 318.757,130.244 318.408,129.68 318.223,129.325 317.972,128.741 317.843,128.367 317.686,127.785 317.611,127.399 317.538,126.835 317.513,126.442 317.527,125.717 317.605,124.974 317.756,124.206 317.98,123.436 318.203,122.839 318.558,122.066 318.655,121.886 318.106,121.77 317.221,121.647 316.679,121.617 " fill="none" stroke-width="0.5" stroke="rgb(0,0,0)" />
	<polygon points="398.34,59.3789 398.337,60.1897 397.626,67.5456 397.767,66.8707 397.856,66.5938 398.227,65.7537 398.365,65.5136 398.887,64.7891 399.067,64.5878 399.694,64.0094 399.906,63.8492 400.602,63.4202 400.839,63.3032 401.581,63.018 401.834,62.9462 402.616,62.8006 402.878,62.7762 404.87,63.0581 405.979,63.4935 407.174,64.2 408.552,65.3478 408.801,65.5716 410.443,67.1679 412.275,68.8872 414.238,70.4637 416.32,71.7281 418.512,72.5528 421.081,72.877 421.614,72.852 422.48,72.7206 423.332,72.4713 424.052,72.1148 424.605,71.6657 425.051,71.0486 425.427,70.0258 425.562,68.7448 424.844,66.3607 422.624,64.0683 418.639,61.7103 413.62,59.6312 408.366,57.8891 403.659,56.4427 403.454,56.3743 400.092,55.1559 398.762,54.385 397.815,53.5831 " fill="none" stroke-width="0.5" stroke="rgb(0,0,0)" />
	<polygon points="206.388,27.8932 205.528,28.4695 204.92,28.8102 201.51,30.3741 201.273,30.4746 197.221,32.0504 197.177,32.0672 192.952,33.6575 192.451,33.8622 193.906,33.4178 194.256,33.3267 196.291,32.8862 196.567,32.8358 198.768,32.5059 199.016,32.4759 201.279,32.2689 201.534,32.2531 203.754,32.1814 203.943,32.1794 205.542,32.1972 205.781,32.2064 206.38,32.246 206.356,43.9539 206.336,54.4687 206.266,54.47 204.118,54.1709 203.372,53.9989 200.867,53.1835 200.416,53.0086 197.751,51.7999 197.506,51.6755 197.823,51.9915 197.858,52.0271 203.085,57.3661 203.255,57.55 206.323,61.067 206.306,69.7514 206.306,69.7515 206.28,82.6502 206.28,82.9059 205.974,82.9756 205.312,83.0737 204.184,83.1532 203.438,83.1415 199.456,82.7362 198.93,82.6498 194.241,81.5812 193.976,81.5121 188.856,80.0013 188.73,79.962 183.456,78.2301 183.427,78.2204 178.309,76.5 173.697,75.0339 170.211,74.1201 171.346,77.3356 173.347,82.0534 173.532,82.4671 173.516,82.3017 173.531,82.1064 173.642,81.4237 173.689,81.2341 173.908,80.5749 173.983,80.3974 174.324,79.75 174.426,79.5908 174.92,78.9553 175.047,78.8205 175.732,78.2287 175.882,78.1247 176.774,77.6469 176.945,77.58 177.996,77.3119 178.185,77.2882 179.956,77.4319 182.532,78.1912 183.371,78.5372 187.143,80.5765 187.45,80.759 191.991,83.7198 192.161,83.8359 197.046,87.3598 197.168,87.4516 201.972,91.1804 202.087,91.2731 206.256,94.7436 206.229,108.448 206.229,108.448 206.204,121.347 206.201,122.575 206.072,122.629 204.805,122.902 201.771,122.449 199.446,121.153 198.509,120.45 194.994,116.982 194.729,116.696 190.485,111.684 190.343,111.507 185.833,105.579 185.722,105.426 181.409,99.2116 181.289,99.0293 179.282,95.8037 180.22,98.1829 180.331,98.5004 181.795,103.263 181.945,103.939 182.501,107.909 182.538,108.717 182.496,109.609 182.446,110.089 182.314,110.915 182.174,111.514 181.944,112.258 181.646,112.982 181.31,113.628 180.767,114.434 180.316,114.965 179.487,115.718 178.913,116.118 177.891,116.644 177.186,116.896 176.172,117.126 175.328,117.214 173.752,117.089 170.393,116.188 169.305,115.73 165.919,113.726 168.836,116.875 169.365,117.576 171.709,121.446 172.049,122.137 173.736,126.519 173.93,127.172 174.788,131.185 174.87,131.096 175.182,130.789 178.043,128.244 178.451,127.923 181.451,125.836 181.983,125.52 185.103,123.953 185.783,123.681 189.005,122.696 189.828,122.529 193.133,122.187 194.063,122.191 198.095,122.641 199.126,122.886 202.58,124.167 203.552,124.675 206.194,126.513 206.153,147.144 206.102,172.942 206.102,172.942 206.095,176.376 205.907,176.721 205.493,177.346 203.712,179.588 203.163,180.162 201.022,182.027 200.333,182.519 197.864,183.938 197.047,184.301 194.285,185.204 193.386,185.396 190.362,185.712 189.268,185.688 183.941,184.894 182.681,184.504 178.19,182.322 177.219,181.676 176.257,180.83 176.395,181.056 177.863,183.814 178.111,184.373 179.149,187.233 179.156,188.156 180.329,187.801 180.786,187.688 184.637,186.963 185.164,186.897 189.108,186.643 189.723,186.648 193.029,186.904 193.726,187.016 196.79,187.765 197.505,188.007 200.267,189.219 200.979,189.614 203.378,191.258 204.049,191.826 206.022,193.872 206.061,193.922 206.051,198.739 206.026,211.638 206.026,211.638 206.014,217.473 205.313,218.604 203.044,220.422 200.138,220.404 197.423,217.473 196.788,215.177 196.01,213.693 194.967,212.491 193.553,211.46 191.647,210.581 189.183,209.899 186.148,209.466 182.533,209.316 180.291,209.367 180.246,209.37 180.734,209.66 183.632,211.775 184.362,212.448 186.335,214.736 186.926,215.62 188.135,218.021 188.472,218.934 189.079,221.389 189.196,222.138 189.362,224.587 189.338,225.425 188.851,229.298 188.578,230.36 187.231,233.754 186.772,234.614 184.737,237.574 184.24,238.173 181.689,240.744 181.253,241.128 178.358,243.356 178.021,243.591 174.953,245.52 174.723,245.655 171.655,247.331 171.536,247.394 168.639,248.861 165.756,249.233 163.283,247.706 162.418,244.076 162.663,242.926 162.878,241.807 163.069,240.685 163.232,239.56 163.364,238.431 163.462,237.299 163.523,236.162 163.543,235.086 163.437,232.936 163.103,230.83 162.493,228.698 161.551,226.517 160.204,224.266 158.371,221.931 157.336,220.891 156.372,222.68 156.29,222.826 155.088,224.864 154.033,226.7 153.271,228.264 152.846,229.549 152.809,229.859 153.792,230.303 155.124,233.624 155.064,235.05 155.051,235.245 154.892,237.067 154.884,237.158 154.659,239.23 154.654,239.272 154.396,241.448 154.395,241.458 154.139,243.581 153.92,245.483 153.774,246.965 153.728,247.824 153.767,249.05 153.842,249.694 153.856,249.698 156.239,251.363 156.881,252.694 157.346,254.318 157.428,254.656 157.794,256.467 157.831,256.676 158.122,258.605 158.138,258.722 158.383,260.7 158.388,260.74 158.609,262.681 158.829,264.471 159.061,265.995 159.216,266.72 161.384,267.626 162.51,269.257 163.051,270.635 163.623,272.08 164.223,273.508 164.859,274.866 165.528,276.096 166.214,277.138 166.884,277.941 167.795,278.745 168.043,278.959 168.35,279.252 168.62,279.536 168.866,279.817 169.129,280.146 169.347,280.444 169.589,280.807 169.795,281.147 170.006,281.534 170.204,281.951 170.37,282.352 170.551,282.887 170.66,283.292 170.787,283.995 170.826,284.394 170.782,285.566 170.574,286.755 170.199,287.912 169.626,289.089 169.16,289.84 168.296,290.96 167.836,291.468 166.757,292.485 166.301,292.861 165.083,293.731 164.587,294.037 163.305,294.715 162.695,294.98 161.425,295.419 160.573,295.621 159.39,295.777 158.458,295.8 158.102,295.77 157.368,295.645 156.961,295.539 156.231,295.278 155.784,295.071 155.126,294.694 154.647,294.361 154.107,293.918 153.607,293.434 153.196,292.977 152.683,292.317 152.386,291.884 151.87,291.023 151.662,290.634 151.282,289.823 150.94,289.301 150.08,288.396 148.655,287.092 146.966,285.606 146.917,285.562 145.222,284.024 145.053,283.862 143.564,282.358 143.227,281.974 142.122,280.558 141.55,279.586 141.008,278.315 140.828,275.413 141.469,274.224 141.46,274.22 141.503,274.131 141.514,274.071 141.365,273.224 140.82,272.002 139.767,270.247 138.401,268.15 138.339,268.052 136.93,265.756 136.751,265.436 135.521,262.992 135.281,262.413 134.411,259.806 134.218,258.94 133.888,256.153 134.53,253.318 135.555,252.352 135.578,252.325 135.462,251.244 135.045,249.519 134.37,247.332 133.549,244.869 133.539,244.837 132.703,242.263 132.658,242.112 131.929,239.555 131.855,239.255 131.339,236.797 131.262,236.276 131.067,233.999 131.8,231.186 134.248,229.857 134.393,228.024 134.412,227.842 134.712,225.375 134.748,225.137 135.207,222.559 135.272,222.261 135.929,219.648 136.039,219.28 136.934,216.709 137.117,216.265 137.404,215.664 137.048,215.689 133.03,216.469 128.819,217.802 124.631,219.691 120.666,222.128 117.107,225.098 114.109,228.586 113.961,228.844 115.746,227.162 116.165,226.814 124.086,221.032 126.871,220.201 129.558,221.31 130.947,223.864 130.52,226.534 129.365,228.781 128.499,230.973 127.802,233.276 127.267,235.624 126.882,237.95 126.631,240.186 126.496,242.265 126.461,243.862 127.885,254.068 131.662,264.088 137.164,274.072 143.614,283.846 150.158,293.234 150.235,293.348 155.972,302.16 156.216,302.585 160.273,310.688 160.64,311.739 162.179,319.044 162.255,320.326 162.003,323.167 161.873,323.902 161.123,326.717 160.869,327.42 159.632,330.1 159.24,330.78 157.526,333.217 156.974,333.858 154.793,335.943 154.068,336.502 151.432,338.126 150.558,338.538 147.476,339.592 146.53,339.802 143.012,340.177 142.113,340.18 139.026,339.868 138.128,339.68 135.426,338.808 134.584,338.434 132.276,337.099 131.557,336.579 129.651,334.877 129.083,334.262 127.587,332.291 127.165,331.616 126.086,329.472 125.799,328.744 125.146,326.523 124.991,325.727 124.771,323.526 124.765,322.734 124.902,321.082 125.01,320.414 125.376,318.908 124.862,319.471 123.183,320.996 122.503,321.502 120.574,322.665 119.755,323.049 117.621,323.79 116.684,324.003 115.266,324.164 116.321,324.619 117.057,325.025 118.843,326.251 119.469,326.773 121.013,328.327 121.528,328.953 122.773,330.792 123.17,331.516 124.061,333.596 124.319,334.407 124.802,336.683 124.896,337.626 124.876,339.864 124.785,340.708 124.348,342.814 124.095,343.625 123.274,345.567 122.876,346.301 121.703,348.046 121.189,348.673 119.695,350.187 119.096,350.693 117.313,351.943 116.658,352.322 114.617,353.276 114.35,353.374 114.386,353.664 114.417,354.138 114.446,356.492 114.371,357.348 113.959,359.538 113.71,360.383 112.893,362.375 112.477,363.155 111.291,364.917 110.736,365.586 109.216,367.084 108.559,367.616 106.741,368.816 106.022,369.2 103.939,370.07 103.194,370.306 100.883,370.813 100.158,370.909 97.8613,371.018 97.0912,370.986 94.9685,370.709 94.1715,370.527 92.2419,369.892 91.4716,369.553 89.7543,368.588 89.0641,368.107 87.5784,366.841 87.0073,366.253 85.7725,364.715 85.3393,364.063 85.1782,363.766 85.1492,363.773 84.3574,363.949 84.1666,363.987 83.3468,364.131 83.1622,364.16 82.3207,364.271 81.7977,364.308 79.4842,364.332 78.6202,364.255 76.4219,363.834 75.6107,363.596 73.5758,362.774 72.8435,362.394 72.647,362.267 76.6551,368.091 77.3725,369.906 78.6267,378.188 78.4352,380.266 74.6827,391.077 72.8668,393.347 70.0266,393.966 68.6429,393.276 62.2848,383.939 52.7783,366.965 45.0078,349.774 38.9732,332.617 38.327,330.083 40.9858,321.519 41.2335,320.896 45.4301,312.326 45.6525,311.927 50.4632,304.263 50.5886,304.074 55.3857,297.249 59.4407,291.344 62.0168,286.602 62.8763,282.86 62.8723,282.773 62.8112,282.361 62.7167,282.004 62.5854,281.673 62.403,281.337 62.1457,280.973 61.7855,280.566 61.1567,279.984 61.1465,279.975 59.2245,278.184 58.9669,277.923 57.4528,276.253 57.2923,276.065 56.0695,274.552 56.0466,274.523 55.0882,273.316 54.4407,272.604 54.1833,272.402 53.8588,272.848 53.3909,273.918 53.0967,275.281 53.0826,276.805 53.4208,278.411 54.2971,280.285 54.6527,280.846 55.1268,281.578 55.1554,281.623 55.6005,282.329 55.6897,282.476 56.0812,283.155 56.2257,283.428 56.5514,284.099 56.7263,284.512 56.974,285.193 57.1328,285.737 57.2903,286.446 57.3823,287.073 57.4375,287.829 57.3966,288.82 57.0554,290.996 56.8628,291.762 55.9172,294.458 55.7293,294.91 54.2963,297.877 54.1032,298.233 52.2997,301.22 52.0627,301.573 50.0056,304.331 49.6527,304.747 47.4589,307.026 46.8206,307.572 44.607,309.123 43.2469,309.759 41.1305,310.332 38.6891,310.282 36.72,309.662 34.9499,308.589 33.2813,306.92 32.1008,299.429 31.2405,283.786 31.2405,236.587 32.3671,233.998 32.8719,233.129 34.7104,230.67 36.441,229.294 38.4177,228.424 40.5533,228.072 41.0936,228.119 41.9879,228.294 42.4362,228.432 43.4127,228.869 43.7753,229.089 44.6536,229.791 44.9365,230.084 45.5631,230.913 45.7724,231.272 46.1321,232.06 46.274,232.477 46.4426,233.138 46.5233,233.605 46.5814,234.128 46.607,234.636 46.6103,234.989 46.5805,235.949 46.5731,236.102 46.4945,237.285 46.4907,237.337 46.3799,238.749 46.2545,240.382 46.1803,241.497 46.5616,239.335 46.5817,239.229 47.931,232.555 48.0254,232.176 49.7579,226.354 50.1398,225.455 51.6286,222.82 50.0235,223.754 49.7227,223.913 47.0337,225.207 46.6488,225.37 44.1213,226.3 43.6255,226.45 41.2658,227.01 40.6324,227.112 38.4465,227.3 37.569,227.287 35.0326,226.99 33.919,226.707 31.6871,225.813 31.2405,225.555 31.2405,202.01 32.2793,203.477 33.9329,205.411 35.4914,206.868 36.9695,207.92 38.412,208.653 39.8967,209.142 41.5126,209.429 43.3696,209.527 44.8847,209.486 46.5459,209.36 48.3141,209.152 50.2,208.866 52.2133,208.503 54.3629,208.071 56.6576,207.573 59.1184,207.013 60.9087,207.223 60.4925,206.497 60.1192,205.646 59.4819,203.63 59.3005,202.746 59.0785,200.499 59.0879,199.557 59.1651,198.908 58.5172,199.668 58.2576,199.946 56.499,201.675 56.1917,201.95 54.4115,203.396 54.0504,203.659 52.2635,204.828 51.8432,205.071 50.0645,205.969 49.581,206.177 47.8256,206.811 47.2779,206.969 45.5606,207.345 44.9538,207.433 43.2896,207.557 42.5293,207.547 40.4382,207.336 39.5276,207.144 37.6031,206.516 36.715,206.112 34.9917,205.079 34.2153,204.486 32.7278,203.058 32.1287,202.344 31.2405,201.021 31.2405,163.377 32.7017,159.303 32.9805,158.684 35.407,154.251 35.8742,153.563 39.4136,149.294 40.0615,148.661 44.2394,145.352 44.1746,145.361 41.8806,145.526 41.1641,145.518 38.4308,145.263 37.6162,145.107 35.0807,144.367 34.2962,144.052 32.0099,142.866 31.2907,142.397 31.2405,142.357 31.2405,112.551 32.5566,111.59 33.1102,111.246 35.3631,110.071 38.2415,109.665 40.733,111.162 41.6795,114.555 41.6332,114.873 41.606,115.113 41.5858,115.355 41.5714,115.61 41.562,115.886 41.5567,116.191 41.5546,116.529 41.5544,116.746 41.7776,119.873 42.3928,122.558 43.3822,124.96 44.7352,127.1 46.4622,128.997 48.5897,130.655 51.1477,132.057 51.9198,132.343 48.5964,129.737 47.8735,129.019 45.2143,125.67 44.6191,124.67 42.8899,120.612 42.5773,119.462 41.9604,114.664 41.9442,113.699 42.1682,111.332 42.3237,110.521 42.9723,108.303 43.2796,107.534 44.3176,105.517 44.7702,104.813 45.9681,103.295 41.5751,105.012 40.7814,105.238 36.7563,105.981 35.707,106.046 35.0147,106.005 34.429,105.929 33.7955,105.804 33.1132,105.61 32.5489,105.398 31.7883,105.025 31.3034,104.725 31.2405,104.676 31.2405,91.1518 33.6921,87.4462 33.9514,87.0941 38.255,81.8266 38.2227,81.8457 35.5503,83.2191 34.5762,83.5802 32.4507,84.0898 31.2405,84.1383 31.2405,61.5297 31.6113,61.2949 32.8215,60.6575 33.2783,60.4496 34.6695,59.9112 35.0326,59.7887 35.1367,59.7586 33.3521,59.645 32.7285,59.5597 31.2405,59.2451 31.2405,43.0665 33.3942,41.4894 33.6057,41.3439 38.0657,38.4658 38.1233,38.4293 42.5396,35.6765 45.4531,33.7632 44.0226,33.3411 39.8167,32.3001 39.7936,32.2943 35.4942,31.2051 35.2553,31.1373 31.5048,29.9557 31.2405,29.8481 31.2405,23.8924 38.4156,23.8374 49.9073,23.7492 61.3989,23.661 72.8906,23.5728 79.3859,23.523 79.6219,23.9536 79.8848,27.5606 79.0807,29.7231 78.1085,31.2537 75.9887,33.4142 75.4242,33.8987 72.4274,36.0549 72.1944,36.2113 68.759,38.3612 68.7524,38.3653 65.4291,40.4368 62.8364,42.2801 62.7528,42.3637 66.0146,42.9687 70.638,43.4508 73.7957,43.7532 73.7323,43.6268 73.318,42.3162 73.2548,41.8904 73.8011,39.0577 74.5595,37.7589 76.088,36.2162 78.0874,35.0239 78.6646,34.7354 81.4914,33.5759 81.6314,33.5213 84.8093,32.3443 87.7799,31.1394 89.9562,29.9827 90.5828,29.43 90.4071,29.3012 89.5133,28.8983 88.2106,28.4599 88.1953,28.4547 86.8811,28.007 86.2192,27.7182 85.2896,27.217 83.5078,25.4198 83.1552,24.7522 83.1462,23.4941 84.3823,23.4847 95.874,23.3965 107.366,23.3083 114.894,23.2505 115.208,23.6265 116.25,24.5989 117.22,25.0983 118.804,25.3263 120.326,25.1085 121.335,24.6047 122.448,23.6267 122.844,23.1895 130.349,23.132 153.332,22.9556 153.615,22.9534 153.69,24.1547 153.323,24.9737 151.857,26.7506 150.888,27.4322 150.218,27.8194 148.848,28.4558 148.751,28.4994 147.324,29.1204 146.227,29.6953 145.745,30.0654 146.514,30.9018 148.531,32.3977 151.21,34.0709 154.035,35.7791 154.212,35.892 156.701,37.5656 157.227,37.9824 158.988,39.6111 160.044,41.1198 160.712,42.7097 161.023,44.8817 160.976,45.2999 160.707,46.3911 160.573,46.7335 159.984,47.7856 159.777,48.0583 158.986,48.8586 158.718,49.0678 157.922,49.5602 157.605,49.7122 156.918,49.9719 156.564,50.0728 156.206,50.1501 156.312,50.1627 156.912,50.2775 159.975,51.0899 160.26,51.176 163.638,52.3245 163.758,52.367 167.289,53.6835 167.293,53.6847 170.76,54.9803 173.917,56.0619 175.704,56.5425 174.585,54.9191 171.429,51.3902 167.605,47.5348 163.703,43.6569 163.594,43.5446 160.18,39.8987 159.877,39.5371 157.462,36.3206 156.838,35.1539 155.922,32.553 156.116,29.2002 157.168,27.0429 158.533,25.4229 161.447,23.3208 162.199,22.8876 164.824,22.8674 176.316,22.7792 187.807,22.6911 206.399,22.5484 " fill="none" stroke-width="0.5" stroke="rgb(0,0,0)" />
	<polygon points="54.8342,335.703 55.7324,343.067 59.464,349.068 65.2831,354.827 66.5784,356.062 65.7,354.128 65.4211,353.302 64.9249,351.14 64.8149,350.212 64.7896,347.75 64.8874,346.787 65.3788,344.511 65.6661,343.64 66.5945,341.583 67.0158,340.85 68.3018,339.044 68.81,338.451 69.705,337.58 66.4676,337.182 66.0859,337.117 63.2156,336.502 62.6287,336.332 60.16,335.425 59.4231,335.073 57.2822,333.79 56.5641,333.251 55.8396,332.581 " fill="none" stroke-width="0.5" stroke="rgb(0,0,0)" />
	<polygon points="75.9013,301.96 73.8543,306.75 72.2603,311.176 71.2608,315.009 70.9174,318.188 70.9546,319.505 71.1039,320.92 71.3923,322.28 71.8631,323.648 72.5819,325.09 73.6345,326.662 75.1135,328.392 75.8071,329.053 75.9217,328.396 76.135,327.614 76.8959,325.59 77.2612,324.843 78.3656,323.045 78.873,322.374 80.2907,320.836 80.9177,320.275 82.6187,319.028 83.3326,318.603 85.2868,317.679 86.0488,317.403 88.2262,316.836 89.0363,316.705 91.47,316.544 92.3543,316.576 94.6014,316.888 95.4603,317.098 97.5025,317.824 98.2687,318.184 100.088,319.265 100.727,319.729 102.305,321.108 102.815,321.635 104.134,323.253 104.496,323.778 104.642,323.729 105.436,323.495 105.716,323.423 106.538,323.238 106.82,323.185 107.665,323.054 107.739,323.048 106.97,322.689 105.247,321.63 104.485,321.036 103.13,319.713 102.566,319.038 101.554,317.542 101.175,316.855 100.483,315.279 100.25,314.601 99.8529,313.038 99.7354,312.344 99.6085,310.884 99.6039,310.626 99.2683,310.874 96.984,312.19 96.1005,312.576 93.586,313.355 92.7119,313.53 90.0243,313.787 89.1912,313.786 87.4331,313.616 86.6183,313.457 84.9146,312.953 84.1444,312.643 82.5504,311.815 81.8409,311.354 80.4119,310.213 79.7904,309.606 78.5818,308.162 78.0854,307.429 77.1524,305.692 76.8157,304.876 76.2137,302.858 76.0514,302.022 76.0216,301.706 " fill="none" stroke-width="0.5" stroke="rgb(0,0,0)" />
	<polygon points="123.237,281.667 125.48,287.957 125.532,288.111 127.491,294.326 127.584,294.671 128.969,300.779 129.06,301.36 129.586,307.33 129.583,308.129 129.353,310.511 129.199,311.313 128.696,313.034 129.034,312.676 129.595,312.178 130.21,311.719 131.438,311.079 131.916,310.92 133.703,310.718 133.883,310.735 134.993,310.991 135.142,311.047 136.402,311.779 136.523,311.88 137.432,312.923 137.526,313.075 137.958,313.992 138.028,314.202 138.189,314.836 138.237,315.109 138.288,315.513 138.315,315.856 138.327,316.109 138.333,316.364 138.37,316.754 138.431,316.969 138.544,317.202 138.695,317.405 138.87,317.565 139.089,317.692 139.413,317.796 139.95,317.85 140.441,317.805 140.811,317.698 141.075,317.561 141.271,317.401 141.426,317.211 141.551,316.971 141.64,316.663 141.653,316.529 140.632,311.747 137.597,305.45 132.978,297.71 127.568,288.836 127.472,288.67 122.558,279.749 " fill="none" stroke-width="0.5" stroke="rgb(0,0,0)" />
	<polygon points="107.417,291.993 107.408,292.279 107.131,296.485 107.039,297.135 106.246,300.735 106.014,301.47 105.859,301.843 107.803,301.99 108.086,302.148 109.763,303.819 109.997,304.235 110.208,304.666 110.383,305.078 110.771,305.041 110.946,304.982 110.953,304.977 111.02,304.897 111.201,304.533 111.417,303.768 111.582,302.599 111.639,301.137 111.313,296.376 110.447,291.844 109.18,287.325 107.67,282.706 107.667,282.699 107.417,281.929 " fill="none" stroke-width="0.5" stroke="rgb(0,0,0)" />
	<polygon points="91.5747,270.122 91.5232,270.239 88.6254,276.568 88.5676,276.689 85.654,282.566 85.617,282.639 83.2616,287.173 81.1723,291.206 83.0091,291.151 83.525,291.308 84.9636,292.064 85.4851,292.479 85.9071,292.862 86.4722,293.447 86.9905,293.983 87.3657,294.309 87.6245,294.471 87.8443,294.552 88.163,294.588 89.4056,294.417 89.9277,294.137 90.4155,293.545 91.0231,292.066 91.5452,289.528 91.8798,286.017 92.0373,281.63 92.0744,276.409 92.0805,276.207 92.4332,269.62 92.4866,269.134 92.8106,267.199 " fill="none" stroke-width="0.5" stroke="rgb(0,0,0)" />
	<polygon points="84.8009,211.117 83.6359,212.258 83.0709,212.633 82.684,212.862 82.0373,213.202 81.6669,213.374 80.9385,213.673 80.589,213.799 80.1332,213.942 80.8329,214.032 81.9734,214.34 82.6557,214.628 83.6463,215.213 84.2178,215.661 84.9364,216.375 85.3992,216.956 85.8584,217.665 86.2147,218.353 86.4851,218.997 86.737,219.765 86.8832,220.342 87.0327,221.163 87.0957,221.689 87.1451,222.537 87.1215,223.308 86.6639,227.126 86.5689,227.647 85.3625,232.552 85.3,232.779 83.5943,238.385 83.5632,238.483 82.5094,241.673 83.8708,238.172 85.1414,234.351 85.1694,234.27 85.7828,232.54 85.8903,232.267 86.5446,230.754 86.6969,230.438 87.3839,229.147 87.6067,228.775 88.3184,227.709 88.6558,227.268 89.384,226.432 89.9105,225.922 90.6471,225.319 91.4724,224.788 92.2093,224.423 93.4172,224.033 94.1461,223.91 95.4726,223.893 96.1164,223.984 97.284,224.319 97.8957,224.592 98.8659,225.189 99.429,225.647 100.127,226.363 100.625,227.007 101.074,227.723 101.49,228.556 101.753,229.21 102.071,230.233 102.207,230.807 102.41,232.024 102.464,232.519 102.535,233.93 102.521,234.563 102.13,238.659 102.051,239.167 100.955,244.224 100.881,244.514 103.239,240.658 103.577,240.181 107.856,234.926 106.464,234.964 104.157,233.195 103.509,231.509 103.385,230.731 103.374,230.655 103.267,229.894 103.256,229.813 103.165,229.069 103.156,228.984 103.081,228.256 103.073,228.166 103.015,227.454 103.009,227.36 102.968,226.665 102.963,226.565 102.938,225.886 102.936,225.781 102.927,225.117 102.939,224.741 103.242,220.664 103.338,220.022 104.179,216.322 104.364,215.716 105.643,212.409 105.902,211.859 107.488,209.017 107.3,209.177 105.135,210.631 104.191,211.109 101.613,212.043 100.608,212.277 97.6097,212.606 96.6512,212.606 93.4619,212.25 92.4863,212.025 89.6221,211.005 88.732,210.569 86.2237,208.96 85.5401,208.409 " fill="none" stroke-width="0.5" stroke="rgb(0,0,0)" />
	<polygon points="64.2987,212.329 62.858,214.605 59.5849,217.315 59.4278,217.44 58.9999,217.762 59.953,217.602 60.7351,217.706 61.9811,218.065 62.6254,218.36 63.7297,219.089 64.2465,219.556 64.9825,220.423 65.3823,221.042 65.7796,221.819 66.0725,222.569 66.2613,223.184 66.4578,224.044 66.5379,224.511 66.6482,225.462 66.6747,225.816 66.7092,226.837 66.7055,227.216 66.5327,230.457 66.5023,230.788 66.2099,233.03 67.4111,229.505 67.4985,229.271 70.1019,222.861 70.3819,222.294 73.0465,217.76 74.4518,216.3 77.1387,214.58 77.2012,214.566 76.9967,214.591 75.9398,214.685 75.6774,214.701 74.5382,214.733 74.0545,214.72 71.8244,214.535 71.0833,214.408 69.0116,213.865 68.264,213.595 66.3936,212.716 65.6687,212.286 64.1959,211.204 " fill="none" stroke-width="0.5" stroke="rgb(0,0,0)" />
	<polygon points="113.781,197.137 113.208,199.83 113.015,200.482 112.053,202.992 111.712,203.688 111.396,204.211 112.061,203.533 112.503,203.14 114.532,201.571 115.079,201.21 117.044,200.117 117.49,199.901 118.496,199.483 118.82,199.363 119.039,199.292 116.996,199.632 114.468,198.197 113.819,196.864 " fill="none" stroke-width="0.5" stroke="rgb(0,0,0)" />
	<polygon points="124.067,195.554 123.359,195.661 122.82,195.811 122.455,195.972 122.243,196.113 122.127,196.228 122.039,196.359 121.79,196.977 120.02,198.978 120.169,198.935 121.268,198.662 121.531,198.605 122.673,198.395 122.903,198.359 124.086,198.206 124.283,198.185 125.506,198.083 125.671,198.073 126.931,198.016 127.068,198.012 128.363,197.994 128.534,197.995 130.676,198.051 130.867,198.06 133.099,198.215 133.249,198.229 133.642,198.27 131.931,197.34 129.419,196.327 127.061,195.724 124.818,195.52 " fill="none" stroke-width="0.5" stroke="rgb(0,0,0)" />
	<polygon points="39.1918,187.921 40.7719,188.901 42.52,189.683 44.4175,190.276 46.4328,190.686 48.5256,190.922 50.6988,190.998 51.3492,190.992 52.0657,190.97 52.7865,190.933 53.5029,190.882 54.2065,190.817 54.8886,190.739 55.5398,190.648 56.2151,190.535 59.0773,191.043 60.6526,192.861 60.6969,192.741 61.0968,191.927 62.5887,189.552 63.0524,188.941 63.6111,188.326 63.5596,188.343 61.6952,188.921 61.4524,188.989 59.6783,189.428 59.4089,189.486 57.7192,189.792 57.4246,189.836 55.8132,190.015 55.4969,190.039 53.958,190.097 53.5676,190.094 51.1075,189.967 50.6989,189.926 48.4167,189.59 48.1002,189.532 45.9775,189.057 45.7747,189.006 43.7933,188.461 43.7228,188.441 41.9073,187.909 40.3347,187.483 39.0626,187.227 38.3014,187.166 " fill="none" stroke-width="0.5" stroke="rgb(0,0,0)" />
	<polygon points="109.184,155.947 108.775,157.257 108.444,158.041 107.797,159.229 107.331,159.918 106.476,160.955 105.893,161.538 104.858,162.394 104.169,162.861 102.983,163.508 102.199,163.84 100.891,164.25 100.033,164.426 98.6312,164.568 97.7512,164.568 96.3442,164.426 95.4888,164.251 94.176,163.842 93.3925,163.51 92.2027,162.863 91.5131,162.398 90.4752,161.542 89.8912,160.959 89.6504,160.668 89.1601,162.353 89.0329,162.726 87.7815,165.917 87.6238,166.271 86.2293,169.064 86.8881,168.222 89.3408,166.662 91.825,166.822 95.1679,168.059 95.6498,168.271 99.0253,170.01 99.4777,170.279 102.738,172.494 103.185,172.842 106.183,175.508 106.628,175.967 109.217,179.059 109.642,179.665 111.674,183.159 112.028,183.935 112.996,186.759 113.022,186.185 113.069,185.708 113.486,183.032 113.631,182.405 114.35,180.1 114.681,179.319 115.723,177.4 116.334,176.543 117.721,175.026 118.615,174.279 120.366,173.177 121.378,172.709 123.125,172.159 122.372,171.832 118.791,169.784 118.016,169.219 115.123,166.574 114.518,165.892 112.296,162.781 111.875,162.052 110.308,158.603 110.052,157.874 109.353,155.121 " fill="none" stroke-width="0.5" stroke="rgb(0,0,0)" />
	<polygon points="163.057,162.859 162.82,163.065 159.232,165.952 158.889,166.201 155.103,168.682 154.653,168.94 150.58,170.963 150.044,171.186 145.596,172.697 145.019,172.849 140.107,173.795 139.545,173.865 136.574,174.043 136.868,174.169 137.645,174.599 141.26,177.118 141.78,177.543 145.174,180.789 145.521,181.162 148.67,184.973 148.908,185.29 149.095,185.563 149.213,183.901 149.255,183.533 149.861,179.677 150.015,179.028 150.974,176.032 151.471,174.985 152.861,172.847 154.077,171.611 155.98,170.33 157.677,169.65 160.171,169.223 161.741,169.241 163.469,169.58 164.542,169.94 166.502,170.897 167.125,171.268 169.207,172.758 169.412,172.925 167.12,168.533 166.909,168.065 165.106,163.318 164.982,162.943 164.567,161.453 " fill="none" stroke-width="0.5" stroke="rgb(0,0,0)" />
	<polygon points="79.8767,178.2 79.439,178.663 76.5444,181.308 77.329,181.319 79.2527,182.924 79.7383,181.198 79.859,180.832 80.8753,178.155 81.0121,177.834 82.1798,175.373 " fill="none" stroke-width="0.5" stroke="rgb(0,0,0)" />
	<polygon points="201.111,161.01 201.209,162.231 201.375,163.278 201.461,163.596 201.541,163.545 201.717,163.409 202.002,163.147 203.015,162.718 202.947,162.681 202.418,162.175 201.477,160.856 201.116,160.076 201.086,159.989 " fill="none" stroke-width="0.5" stroke="rgb(0,0,0)" />
	<polygon points="84.1997,147.985 84.5653,148.57 85.0062,149.087 85.4739,149.499 86.093,149.948 86.812,150.447 87.0995,150.664 87.144,150.701 87.176,150.545 87.5854,149.237 87.7892,148.757 87.2437,148.701 86.3852,148.525 85.0763,148.115 84.2913,147.782 84.0529,147.652 " fill="none" stroke-width="0.5" stroke="rgb(0,0,0)" />
	<polygon points="123.56,106.273 122.087,111.595 120.497,117.957 120.477,118.032 118.751,124.448 118.666,124.727 116.749,130.323 116.447,131.008 114.272,134.966 112.699,136.601 110.2,138.103 107.351,138.681 105.933,138.222 103.296,136.834 101.411,134.887 99.6302,131.226 99.2985,130.279 98.1319,125.103 98.0639,124.723 97.2702,118.789 97.2587,118.695 96.6052,112.84 95.8926,108.066 95.8012,107.768 94.745,108.714 92.7306,110.673 92.6578,110.742 90.4812,112.763 90.1946,113.007 87.9314,114.77 87.3052,115.176 84.9671,116.423 83.7608,116.853 81.3594,117.326 80.0563,117.383 78.8596,117.255 77.7854,116.999 77.396,116.852 77.8157,119.323 77.8701,119.804 78.0589,123.119 78.0648,123.463 78.0331,124.89 78.0249,125.078 77.9338,126.466 77.9184,126.645 77.7742,127.991 77.7527,128.161 77.5615,129.462 77.5349,129.622 77.303,130.874 77.2721,131.025 77.0056,132.224 76.9711,132.367 76.6762,133.51 76.6387,133.646 76.3216,134.728 74.6189,137.084 71.8938,137.847 67.3185,137.58 66.8,137.518 62.2433,136.696 61.678,136.555 57.3223,135.148 56.6851,134.884 55.868,134.468 56.6642,135.131 57.2268,137.983 56.1921,139.681 57.3674,139.357 57.6959,139.28 60.1912,138.797 60.4885,138.75 62.8911,138.455 63.1442,138.431 65.4515,138.284 65.6496,138.276 67.8586,138.236 67.9622,138.235 68.4857,138.238 68.5346,138.239 69.0541,138.248 69.103,138.249 69.6143,138.263 69.6646,138.265 70.1638,138.285 70.2169,138.287 70.6998,138.312 70.757,138.315 71.2196,138.346 71.2833,138.35 71.7215,138.385 71.7945,138.392 72.2042,138.432 72.2363,138.435 73.3706,138.553 74.432,138.656 74.4544,138.658 75.4464,138.76 75.5384,138.77 76.4328,138.881 76.6228,138.909 77.407,139.041 77.7451,139.112 77.8965,139.15 77.7757,137.961 77.7757,137.082 77.9183,135.679 78.0932,134.823 78.5018,133.513 78.833,132.73 79.4788,131.542 79.944,130.853 80.7986,129.816 81.3811,129.233 82.4158,128.376 83.1051,127.909 84.2913,127.261 85.0763,126.928 86.3852,126.518 87.2437,126.342 88.6468,126.199 89.5282,126.199 90.9333,126.342 91.7907,126.518 93.1015,126.928 93.8858,127.26 95.0737,127.908 95.763,128.374 96.7993,129.231 97.3822,129.814 98.2382,130.85 98.704,131.54 99.351,132.727 99.683,133.511 100.092,134.821 100.268,135.678 100.41,137.081 100.411,137.961 100.268,139.367 100.092,140.223 99.6832,141.534 99.4773,142.02 100.033,142.077 100.89,142.252 102.198,142.661 102.982,142.994 104.168,143.64 104.857,144.106 105.892,144.962 106.475,145.544 107.33,146.579 107.796,147.268 108.442,148.454 108.695,149.05 108.74,147.924 108.76,147.643 108.929,146.034 108.968,145.747 109.272,143.988 109.348,143.636 109.806,141.871 109.96,141.391 110.59,139.765 110.936,139.066 111.757,137.725 112.586,136.737 113.616,135.826 115.376,134.882 116.634,134.546 119.626,134.821 120.919,135.437 122.983,137.51 123.748,139.132 124.071,140.099 124.549,142.392 124.583,142.573 124.991,145.048 125.482,147.099 126.006,148.224 126.278,148.476 127.036,148.651 127.171,148.613 127.616,148.407 128.17,148.037 128.797,147.466 129.467,146.648 130.144,145.53 130.81,144.008 131.154,142.962 131.491,141.791 131.781,140.625 132.02,139.475 132.207,138.351 132.341,137.265 132.421,136.228 132.447,135.257 132.404,133.869 132.284,132.777 132.118,132.042 132.08,131.947 131.802,131.972 131.162,132.121 130.4,132.388 129.6,132.749 128.835,133.164 128.174,133.583 127.695,133.937 127.273,134.311 124.578,135.401 121.799,134.55 120.175,132.139 120.372,129.384 122.215,124.953 122.514,124.365 124.856,120.512 125.261,119.953 128.044,116.682 128.544,116.183 131.712,113.497 132.109,113.212 130.87,112.597 129.352,111.449 128.784,110.935 127.282,109.312 127.091,109.09 125.596,107.239 124.192,105.52 123.955,105.273 " fill="none" stroke-width="0.5" stroke="rgb(0,0,0)" />
	<polygon points="143.939,98.4879 143.381,101.517 142.804,104.746 142.727,105.091 141.981,107.917 141.631,108.792 144.793,108.073 145.44,107.976 149.57,107.674 150.377,107.69 155.253,108.242 156.27,108.483 160.528,110.055 161.465,110.537 162.105,110.971 160.453,109.717 160.287,109.584 155.7,105.735 155.671,105.709 151.216,101.902 147.25,98.7131 144.405,96.8371 " fill="none" stroke-width="0.5" stroke="rgb(0,0,0)" />
	<polygon points="69.4352,91.0242 64.3356,93.7083 58.6165,96.8634 58.5827,96.8819 56.5082,98.0025 57.5545,97.8981 58.5819,97.9175 62.6678,98.482 63.894,98.8409 67.2765,100.401 68.297,101.058 71.0249,103.412 71.7023,104.152 71.7034,104.118 71.7163,103.901 71.894,101.789 71.907,101.658 72.1582,99.4687 72.1662,99.4039 72.4542,97.1885 72.455,97.1823 72.7394,95.0186 72.98,92.9936 73.142,91.181 73.2012,89.5924 73.198,89.3487 " fill="none" stroke-width="0.5" stroke="rgb(0,0,0)" />
	<polygon points="106.332,56.8168 105.058,57.4274 103.408,58.5633 101.576,60.0556 99.7043,61.6577 99.596,61.7475 97.8147,63.1754 97.3975,63.4713 95.7796,64.4813 94.6079,64.9914 93.1863,65.3745 92.9642,65.398 93.1461,65.607 93.7412,66.4889 94.0203,67.037 94.3248,67.8099 94.5142,68.4692 94.6409,69.0649 94.7486,69.8315 94.7876,70.2663 94.8217,71.1362 94.8161,71.5862 94.6888,73.5622 94.6486,73.9349 94.3132,76.1467 94.2779,76.3474 93.8036,78.719 93.7853,78.8063 93.4513,80.3149 94.7916,78.3187 94.9801,78.0592 97.0655,75.3999 97.5779,74.8514 99.6671,72.9705 101.153,72.0932 103.211,71.3798 107.239,72.0049 108.676,73.0786 110.264,75.3968 111.052,78.2273 111.194,79.0063 111.552,83.0081 111.567,83.2561 111.618,84.8494 111.844,83.922 111.91,83.6835 113.019,80.0466 113.289,79.3708 114.576,76.7983 115.462,75.8199 113.071,75.7383 111.646,74.89 109.714,72.4332 109.025,70.1968 108.847,69.278 108.583,66.1162 108.571,65.9342 108.426,62.4273 108.125,59.2862 107.583,57.2836 107.264,56.8572 106.83,56.7262 " fill="none" stroke-width="0.5" stroke="rgb(0,0,0)" />
	<polygon points="125.557,57.7612 124.71,60.0167 123.93,63.258 123.192,66.7592 123.132,67.0058 122.285,70.1129 121.946,70.9796 120.801,73.1773 120.154,73.8161 121.472,73.67 123.011,74.2179 124.696,75.3091 126.078,76.7537 126.62,77.4508 127.9,79.4931 128.063,79.7756 128.762,81.103 128.762,78.1149 128.762,78.0786 128.774,76.6965 128.777,76.5703 128.823,75.3199 128.838,75.0889 128.938,73.9865 128.991,73.5967 129.163,72.6584 129.33,72.0229 129.591,71.2649 130.07,70.2923 130.439,69.7308 131.57,68.5645 132.066,68.2157 133.768,67.4977 134.408,67.3778 134.72,67.3967 134.443,67.138 133.99,66.647 132.291,64.4918 132.174,64.3369 130.43,61.9083 128.719,59.6422 127.181,57.9602 126.111,57.1803 126.019,57.1563 " fill="none" stroke-width="0.5" stroke="rgb(0,0,0)" />
	<polygon points="146.296,66.7467 146.118,67.1041 145.671,67.817 145.436,68.1229 144.848,68.7471 144.563,68.9955 143.85,69.501 143.524,69.6858 142.708,70.0433 142.349,70.1586 142.161,70.198 142.992,70.7411 143.363,71.0123 146.789,73.8092 146.942,73.9397 150.519,77.1459 150.564,77.1866 150.717,77.3279 150.369,76.5514 150.343,76.4909 148.514,72.233 148.443,72.0574 146.848,67.8465 146.733,67.5017 146.423,66.4177 " fill="none" stroke-width="0.5" stroke="rgb(0,0,0)" />
	<polygon points="93.6467,45.6659 92.0389,45.8396 90.2649,46.1008 88.3901,46.4135 86.4988,46.733 86.4326,46.7437 85.0114,46.9614 85.8475,47.6308 86.9741,49.3839 87.455,53.0698 86.6368,55.609 86.0421,56.7948 83.8849,59.8301 83.5509,60.244 80.501,63.5825 80.3444,63.7453 77.7932,66.262 80.8052,64.8738 81.155,64.7307 83.9085,63.7413 84.682,63.5413 86.9924,63.166 87.0616,63.1635 86.9059,62.9431 86.3762,61.9343 86.2658,61.6337 86.0239,60.5999 85.9848,60.2378 86.1106,58.6351 86.5164,57.1351 86.9667,56.0644 88.0365,54.2469 88.2892,53.865 89.8017,51.8222 89.8957,51.6998 91.6173,49.5392 93.2665,47.4304 94.5255,45.6274 " fill="none" stroke-width="0.5" stroke="rgb(0,0,0)" />
	<polygon points="52.2378,60.9245 52.5879,61.3293 53.5096,63.0869 53.6345,63.5703 53.5928,64.5705 54.4731,63.5611 56.6856,60.6199 56.5472,60.5891 51.4948,60.244 51.4351,60.2428 " fill="none" stroke-width="0.5" stroke="rgb(0,0,0)" />
	<polygon points="141.797,47.8996 141.699,47.9206 141.823,48.989 142.271,50.5841 143.006,52.5211 143.922,54.6408 144.875,56.7922 144.92,56.8978 145.102,57.3399 145.123,57.1517 145.281,56.238 145.447,55.5842 145.72,54.7777 146.072,54 146.468,53.3129 147.081,52.491 147.608,51.9356 148.476,51.2297 149.142,50.8179 150.124,50.3687 150.937,50.1127 151.704,49.959 151.139,49.8473 150.911,49.7958 149.367,49.4036 149.287,49.3824 147.665,48.9371 146.062,48.5099 144.569,48.1638 143.264,47.9443 142.205,47.873 " fill="none" stroke-width="0.5" stroke="rgb(0,0,0)" />
	<polygon points="189.073,35.2411 186.087,36.7419 185.101,37.4842 185.475,38.4858 186.74,40.1537 186.788,38.4815 187.115,37.7217 188.464,35.9887 189.374,35.2903 190.238,34.7743 190.453,34.6776 " fill="none" stroke-width="0.5" stroke="rgb(0,0,0)" />
	<polygon points="465.451,97.7894 467.937,98.2999 468.701,98.5313 470.796,99.3834 471.585,99.8036 473.309,100.963 474.024,101.566 475.393,102.997 475.949,103.714 476.473,104.562 476.473,123.293 475.644,125.164 475.407,125.575 476.473,125.679 476.473,189.43 475.059,190.393 471.574,191.02 468.24,190.201 467.108,189.747 462.538,187.117 462.052,186.791 456.729,182.686 456.41,182.415 450.817,177.171 450.542,176.89 445.162,170.844 444.88,170.492 440.195,163.979 439.879,163.47 436.372,156.827 436.038,155.995 434.192,149.557 434.37,146.656 435.799,145.1 434.502,144.923 433.986,144.82 432.019,144.304 431.374,144.079 429.695,143.341 428.923,142.903 427.563,141.935 426.75,141.184 425.74,139.979 425.083,138.914 424.455,137.462 424.131,136.281 423.977,135.068 423.512,137.497 422.944,138.959 421.205,141.783 420.401,142.745 417.66,145.197 416.911,145.735 413.295,147.792 412.675,148.083 408.313,149.722 407.801,149.879 402.823,151.078 402.384,151.16 396.917,151.896 396.523,151.931 390.694,152.181 390.038,152.16 381.771,151.263 380.851,151.061 373.504,148.586 372.694,148.216 366.324,144.484 365.659,144.004 360.323,139.336 359.797,138.787 355.549,133.504 355.138,132.894 352.035,127.317 351.721,126.613 349.818,121.065 349.616,120.191 348.969,114.993 348.947,114.15 348.972,113.789 349.067,113.142 349.135,112.838 349.356,112.139 349.46,111.884 349.804,111.217 349.939,111.003 350.348,110.455 350.507,110.273 350.892,109.886 351.069,109.729 351.357,109.494 351.545,109.354 351.697,109.246 351.891,109.114 352.934,108.594 354.115,108.191 355.076,107.981 356.916,107.793 357.144,107.776 359.551,107.657 362.388,107.468 365.585,107.079 369.135,106.358 373.017,105.173 377.301,103.341 377.761,103.107 378.008,102.992 378.595,102.739 378.848,102.639 379.431,102.43 379.69,102.346 380.267,102.179 380.531,102.111 381.1,101.984 381.367,101.934 381.926,101.845 382.195,101.811 382.742,101.76 383.014,101.743 383.546,101.726 384.34,101.773 386.305,102.074 387.768,102.575 389.186,103.366 390.246,104.196 391.29,105.315 391.742,105.889 392.587,107.172 392.62,107.221 393.27,108.237 393.59,108.607 393.991,108.674 394.812,108.597 396.102,108.293 397.632,107.792 399.313,107.159 401.035,106.492 401.146,106.451 402.797,105.863 403.108,105.765 404.628,105.349 405.27,105.224 406.616,105.066 408.571,105.285 410.613,106.006 412.105,106.902 414.248,108.868 414.821,109.509 416.95,112.425 417.233,112.865 419.233,116.436 419.41,116.788 421.166,120.72 421.301,121.059 422.698,125.057 422.817,125.457 423.74,129.225 423.842,129.816 424.088,132.207 424.133,131.972 424.41,130.998 424.683,130.283 425.177,129.268 425.606,128.565 426.345,127.579 426.953,126.92 427.962,126.032 428.735,125.488 430.039,124.77 429.008,124.321 428.285,123.919 427.291,123.238 426.605,122.653 425.697,121.702 425.156,121.004 424.365,119.738 424.015,119.047 423.511,117.786 423.349,117.299 422.977,115.912 422.921,115.678 422.615,114.222 422.613,114.212 422.33,112.846 422.044,111.744 421.758,110.984 421.527,110.592 420.942,110.001 419.707,107.369 420.406,104.547 422.725,102.796 425.116,102.729 426.107,102.983 426.99,103.152 427.906,103.278 428.842,103.366 429.79,103.421 430.737,103.45 431.677,103.461 432.426,103.463 434.902,103.266 437.319,102.752 439.849,101.974 442.459,101.025 445.073,100.04 445.193,99.9971 447.716,99.1297 448.05,99.0299 450.441,98.4164 451.074,98.3032 453.318,98.0705 454.131,98.0626 455.439,98.1726 456.275,98.3261 457.358,98.6369 458.263,99.0115 459.136,99.4943 459.98,100.103 460.658,100.729 460.678,100.752 461.328,99.1578 463.875,97.7574 " fill="none" stroke-width="0.5" stroke="rgb(0,0,0)" />
</svg>
