<?xml version="1.0" standalone="no" ?>
<!DOCTYPE svg PUBLIC "-//W3C//DTD SVG 1.1//EN" "http://www.w3.org/Graphics/SVG/1.1/DTD/svg11.dtd">
<svg width="500px" height="500px" xmlns="http://www.w3.org/2000/svg" version="1.1" >
	<polygon points="480.823,30.1237 480.568,30.5406 480.264,31.1941 480.078,31.7449 480.017,32.0315 480.136,33.6026 480.52,35.4631 480.823,36.535 480.823,76.937 479.594,79.8464 478.474,81.6988 473.159,88.1707 471.747,89.4977 464.714,94.5821 464.663,94.6111 466.095,94.6548 468.581,95.1653 469.906,95.567 472.001,96.4191 473.371,97.1483 475.095,98.3074 476.337,99.3538 477.706,100.785 478.67,102.03 479.703,103.7 480.336,104.978 480.823,106.255 480.823,121.237 480.7,121.656 479.733,123.837 480.823,124.734 480.823,189.204 478.437,191.965 476.858,193.039 473.224,194.321 472.348,194.251 473.391,195.117 474.175,195.87 478.177,200.312 479.011,201.432 480.823,204.4 480.823,244.189 478.563,248.037 478.189,248.612 474.648,253.55 474.787,253.542 476.256,253.696 478.006,254.092 479.265,254.541 480.823,255.338 480.823,281.286 480.191,292.553 479.24,294.029 478.764,294.689 476.186,297.877 475.576,298.546 472.618,301.42 472.06,301.734 472.454,302.25 473.147,303.337 475.062,307.005 475.506,308.035 476.95,312.214 477.219,313.207 477.241,313.315 473.11,329.62 467.07,347.047 459.27,364.67 456.069,370.536 454.508,371.431 450.655,371.451 448.689,370.348 448.868,371.256 449.572,378.818 449.509,380.716 449.132,383.065 438.331,399.399 425.161,415.952 410.17,431.593 402.113,438.515 401.558,438.421 399.586,437.803 398.093,437.097 396.776,436.302 395.801,435.568 395.934,437.315 395.842,439.189 394.869,444.738 393.345,446.047 374.668,459.037 354.126,470.285 331.702,479.516 324.557,481.554 322.508,480.972 321.104,480.416 318.441,479.039 317.148,478.193 314.949,476.406 313.861,475.321 312.135,473.208 311.305,471.954 310.061,469.594 309.505,468.232 308.752,465.709 308.472,464.28 308.384,463.369 307.951,464.156 305.185,468.229 303.997,469.492 304.786,469.555 306.273,469.825 306.942,470.018 308.687,470.77 309.181,471.061 310.834,472.379 311.179,472.744 312.344,474.359 312.566,474.773 313.17,476.259 313.296,476.698 313.528,477.823 313.584,478.262 313.642,478.986 313.655,479.401 313.397,481.605 312.999,483.078 311.956,485.148 307.382,486.452 281.151,490.817 267.607,491.546 266.86,491.032 265.034,489.54 264.129,488.666 263.834,488.329 262.537,488.99 262.113,489.19 257.948,490.995 257.507,491.17 254.511,492.252 252.993,492.333 225.548,490.902 199.887,486.773 182.323,481.932 179.323,479.801 175.354,477.014 172.296,475.293 170.377,474.741 167.365,474.442 163.227,474.213 162.768,474.173 160.074,473.858 153.907,471.407 134.089,460.932 129.959,456.928 127.968,453.628 127.902,451.142 127.508,451.178 126.018,451.164 118.167,450.312 115.039,448.212 98.2672,434.295 83.2685,419.161 71.185,404.45 70.7648,401.087 70.7305,399.55 70.9357,396.981 68.2583,396.837 65.1593,394.913 63.4432,393.148 63.1575,392.949 58.5824,386.23 48.8916,368.927 40.9666,351.394 34.8057,333.879 34.5331,332.81 34.6638,331.575 34.9614,330.131 37.9297,320.57 38.3596,319.488 41.3373,313.408 37.7285,313.334 35.7594,312.715 32.6873,310.852 30.8688,309.033 29.5989,307.346 28.6837,305.69 27.7694,299.888 26.8905,283.906 26.8905,239.339 27.4472,237.434 27.7713,236.539 29.4329,232.721 30.3091,231.213 31.7503,229.286 30.4964,228.783 28.6512,227.72 26.8905,226.341 26.8905,167.584 26.9016,167.531 27.8777,163.413 28.1175,162.606 29.6896,158.223 30.1735,157.147 32.6,152.714 33.4109,151.52 36.2862,148.053 34.1838,147.439 32.8221,146.893 30.5358,145.706 29.2875,144.893 27.3018,143.299 26.8905,142.895 26.8905,112.138 27.8681,111.162 28.7499,110.407 30.6694,109.006 31.5675,108.448 31.4253,108.395 30.1052,107.747 29.6204,107.447 28.2864,106.398 27.8914,106.007 26.8905,104.745 26.8905,92.3473 27.6397,90.795 29.9703,87.2721 29.6714,87.2254 27.2832,86.427 26.8905,86.2175 26.8905,42.3694 27.6128,41.7568 31.5035,38.9076 31.8706,38.6551 36.3306,35.777 36.4306,35.7136 37.5373,35.0238 34.7083,34.3071 34.2937,34.1894 30.5432,33.0078 29.405,32.5443 26.8905,31.2729 26.8905,19.5757 38.3822,19.4875 49.8739,19.3993 61.3656,19.3111 72.8572,19.223 80.0105,19.1681 80.2458,19.4082 80.2763,19.2894 80.3395,19.1655 84.3489,19.1348 95.8406,19.0466 107.332,18.9584 115.367,18.8968 116.159,19.7784 116.338,19.9862 117.537,21.4235 118.109,21.957 118.207,22.0075 118.805,22.0935 119.36,22.0141 119.534,21.9272 120.199,21.343 121.483,19.9256 121.678,19.719 122.535,18.8418 130.316,18.7821 141.807,18.6939 153.299,18.6057 156.21,18.5834 157.268,22.1361 157.21,22.4319 159.575,20.7256 160.905,19.9587 164.11,18.5228 164.791,18.5175 176.282,18.4294 187.774,18.3412 210.757,18.1648 210.737,28.3708 209.694,29.5154 210.734,29.8334 210.732,31.0636 210.706,43.9624 210.681,56.8526 209.207,57.4137 208.19,57.5947 207.551,57.6068 210.219,60.6654 210.672,61.2618 210.656,69.76 210.63,82.6588 210.626,84.6615 209.792,85.1077 208.922,85.4715 207.688,85.8668 206.685,86.0956 205.537,86.2658 204.408,86.3453 203.114,86.3251 200.607,86.0699 203.934,88.6527 204.134,88.8137 208.429,92.3889 208.685,92.6113 210.607,94.3632 210.579,108.456 210.554,121.355 210.549,123.85 210.465,123.924 209.3,124.688 209.08,124.78 209.608,125.25 210.544,126.307 210.503,147.153 210.478,160.052 210.452,172.95 210.448,174.927 210.106,175.703 208.718,178.251 207.999,179.337 206.217,181.578 205.265,182.575 203.124,184.44 201.928,185.293 200.783,185.951 201.553,186.288 202.788,186.975 205.187,188.619 206.353,189.605 208.326,191.651 209.323,192.938 210.409,194.705 210.401,198.748 210.376,211.647 210.367,216.146 209.987,216.924 209.803,217.277 209.041,218.648 208.859,218.958 208.033,220.29 205.922,222.288 206.173,222.498 208.909,225.03 209.456,225.591 210.366,226.628 210.438,235.84 210.602,246.657 210.899,256.963 211.158,262.183 210.402,263.167 210.234,263.378 208.036,266.038 206.475,268.115 205.857,269.271 205.82,269.457 205.852,269.622 206.203,270.192 207.509,271.512 209.716,273.371 209.846,273.483 212.075,275.45 212.112,275.909 213.138,284.482 214.519,292.41 216.308,299.661 218.563,306.2 221.336,311.994 224.685,317.011 228.665,321.215 233.33,324.575 238.737,327.056 244.939,328.626 248.887,328.975 249.631,330.193 251.141,333.317 251.612,334.565 252.34,337.164 254.815,332.524 255.602,331.334 257.601,328.858 259.171,328.749 265.518,327.271 271.013,324.853 275.719,321.532 279.698,317.343 283.01,312.324 285.72,306.511 287.888,299.942 289.576,292.653 290.848,284.68 291.763,276.06 292.191,269.731 292.469,269.383 293.333,268.522 294.74,267.419 295.751,266.804 297.354,266.071 297.637,265.979 294.166,263 292.691,261.287 292.612,261.163 292.778,257.028 293,246.688 293.115,235.848 293.174,226.259 293.222,226.162 294.855,223.001 294.924,222.924 294.632,222.682 293.632,221.682 293.178,221.134 293.159,211.647 293.133,198.748 293.133,198.636 293.629,198.036 294.627,197.037 296.105,195.81 297.287,195.005 298.262,194.469 297.817,193.931 297.009,192.736 296.362,191.549 295.784,190.189 295.375,188.879 295.07,187.391 294.927,185.987 294.927,184.456 295.07,183.054 295.376,181.564 295.785,180.256 296.363,178.896 297.01,177.71 297.819,176.515 298.675,175.48 298.971,175.184 297.991,174.767 295.81,173.353 294.397,172.041 293.304,170.773 293.077,170.44 293.056,160.052 293.004,134.254 292.994,129.373 294.729,127.781 294.663,127.551 294.58,127.235 294.4,126.49 294.327,126.15 294.18,125.389 294.119,125.022 294.009,124.249 293.964,123.851 293.895,123.069 293.869,122.636 293.845,121.85 293.869,120.982 294.119,118.039 294.332,116.79 295.101,113.814 295.543,112.566 296.857,109.689 297.576,108.445 299.462,105.797 300.44,104.688 299.307,105.049 296.957,105.406 296.72,105.405 296.301,105.39 296.11,105.378 294.984,105.221 294.833,105.189 292.944,104.475 292.906,85.5247 293.891,83.7279 294.757,82.1422 293.568,81.9371 292.899,81.7454 292.875,69.76 292.86,62.3182 294.062,61.4938 294.016,61.4732 293.548,61.2422 292.857,60.8712 292.819,42.1511 293.179,41.9478 293.397,41.8289 294.734,41.1297 294.469,40.7222 292.812,38.2936 292.797,31.0636 292.771,18.1648 303.524,18.0957 305.46,19.0934 305.614,19.1748 308.512,20.7531 308.558,20.3663 308.672,19.679 308.844,18.8721 309.062,18.0701 309.066,18.0601 316.278,18.0137 328.031,17.9382 339.784,17.8626 351.538,17.787 363.291,17.7115 375.044,17.6359 376.493,17.6266 378.945,18.752 380.264,19.5278 386.43,24.0539 386.464,23.3996 387.931,20.7751 388.557,20.047 391.06,18.1414 392.368,17.5245 410.304,17.4092 422.057,17.3337 433.81,17.2581 440.829,17.213 441.33,17.4835 442.836,18.554 444.862,20.4057 445.58,21.3117 445.873,20.7425 446.733,19.4261 448.175,17.6547 448.671,17.1626 457.317,17.107 469.07,17.0314 480.823,16.9559 " fill="none" stroke-width="0.5" stroke="rgb(0,0,0)" />
	<polygon points="192.185,443.809 192.55,444.886 193.115,447.076 194.337,447.345 195.881,447.593 197.373,447.748 198.585,447.796 200.206,447.707 201.72,447.44 203.046,447.006 204.114,446.44 204.943,445.757 205.628,444.87 206.229,443.551 206.412,442.706 202.883,442.97 201.728,442.968 195.51,442.479 194.233,442.267 191.197,441.491 " fill="none" stroke-width="0.5" stroke="rgb(0,0,0)" />
	<polygon points="158.644,437.434 157.574,438.745 153.379,442.845 153.011,443.127 154.886,442.362 157.006,440.932 158.54,439.282 159.651,437.309 160.384,434.837 160.394,434.715 " fill="none" stroke-width="0.5" stroke="rgb(0,0,0)" />
	<polygon points="326.034,417.203 316.529,420.335 314.933,420.676 314.862,420.683 315.201,421.303 315.695,422.6 316.001,423.612 316.331,425.064 316.392,425.356 316.64,426.691 316.675,426.838 317.491,427.425 317.965,427.796 318.832,428.532 319.676,429.371 320.409,430.226 320.767,430.763 321.26,430.24 321.532,429.966 322.247,429.282 322.628,428.941 323.337,428.349 323.878,427.937 324.578,427.452 325.355,426.981 326.045,426.617 327.152,426.141 327.309,426.089 326.786,425.095 326.437,423.853 326.154,421.809 326.154,417.148 " fill="none" stroke-width="0.5" stroke="rgb(0,0,0)" />
	<polygon points="388.444,420.569 388.507,420.108 387.578,419.921 " fill="none" stroke-width="0.5" stroke="rgb(0,0,0)" />
	<polygon points="166.16,413.529 166.165,414.63 165.844,419.314 165.767,419.866 166.888,419.404 170.367,419.966 170.336,419.054 170.368,418.686 170.658,417.176 170.754,416.856 171.46,415.231 171.618,414.961 172.749,413.476 172.945,413.276 172.826,413.227 172.208,412.938 169.572,411.556 168.981,411.212 166.554,409.645 165.962,409.22 165.815,409.104 " fill="none" stroke-width="0.5" stroke="rgb(0,0,0)" />
	<polygon points="378.993,417.291 379.663,417.111 380.207,417.175 379.517,416.848 378.993,416.557 " fill="none" stroke-width="0.5" stroke="rgb(0,0,0)" />
	<polygon points="259.095,403.313 258.82,404.244 258.258,405.622 257.819,406.456 257.75,406.56 257.884,406.612 258.519,406.893 261.378,408.321 261.869,408.589 264.652,410.245 265.061,410.507 267.679,412.303 268.053,412.577 270.417,414.423 270.798,414.741 272.821,416.546 273.128,416.844 274.026,416.689 274.34,416.642 275.674,416.469 275.972,416.437 277.355,416.314 277.636,416.294 277.639,416.294 269.07,411.222 267.794,410.272 260.693,403.717 259.7,402.599 259.332,402.091 " fill="none" stroke-width="0.5" stroke="rgb(0,0,0)" />
	<polygon points="350.05,395.561 349.353,396.724 348.207,398.299 348.363,398.281 352.87,398.029 353.564,398.022 354.439,398.053 353.775,397.465 352.796,396.346 352.016,395.279 351.16,393.862 351.01,393.572 " fill="none" stroke-width="0.5" stroke="rgb(0,0,0)" />
	<polygon points="309.024,394.327 308.46,394.493 305.247,395.302 304.555,395.443 303.268,395.641 304.358,395.736 307.541,395.604 310.113,395.265 309.651,394.622 309.511,394.163 " fill="none" stroke-width="0.5" stroke="rgb(0,0,0)" />
	<polygon points="203.57,391.734 204.036,392.774 204.768,394.804 205.992,392.995 207.732,391.172 210.362,389.211 207.182,389.493 205.686,389.477 202.132,389.085 " fill="none" stroke-width="0.5" stroke="rgb(0,0,0)" />
	<polygon points="242.843,374.73 242.809,374.767 243.508,375.235 244.747,376.272 245.49,377.044 245.651,377.246 246.236,377.262 247.152,377.354 246.52,375.022 246.287,373.721 245.998,370.489 " fill="none" stroke-width="0.5" stroke="rgb(0,0,0)" />
	<polygon points="83.581,367.332 82.7395,367.443 81.8318,367.508 79.7863,367.529 80.5364,369.427 81.2497,374.137 83.4855,372.145 84.4649,371.406 86.4931,370.12 85.5032,369.277 84.5121,368.257 83.749,367.306 " fill="none" stroke-width="0.5" stroke="rgb(0,0,0)" />
	<polygon points="357.312,370.507 357.214,371.461 358.728,370.942 359.318,370.766 359.66,370.679 358.581,369.977 356.99,368.695 356.763,368.47 " fill="none" stroke-width="0.5" stroke="rgb(0,0,0)" />
	<polygon points="324.837,367.644 324.061,368.874 324.052,368.885 326.939,368.698 326.378,368.41 325.054,367.545 324.936,367.448 " fill="none" stroke-width="0.5" stroke="rgb(0,0,0)" />
	<polygon points="117.633,355.399 117.645,356.453 117.516,357.939 117.104,360.129 116.671,361.596 116.48,362.061 120.571,361.691 121.21,361.697 119.954,360.298 119.287,359.328 118.329,357.39 117.998,356.373 117.787,355.327 " fill="none" stroke-width="0.5" stroke="rgb(0,0,0)" />
	<polygon points="295.827,358.104 294.207,358.835 293.154,359.168 294.491,360.16 294.657,360.286 296.02,361.357 295.972,360.839 295.947,359.776 296,358.67 296.051,358.077 296.066,357.96 " fill="none" stroke-width="0.5" stroke="rgb(0,0,0)" />
	<polygon points="395.083,341.295 393.935,342.218 393.271,342.695 392.25,343.348 390.33,344.225 389.495,344.472 387.517,344.635 388.496,347.405 388.878,349.066 388.93,349.52 393.037,346.078 394.848,344.954 397.265,343.891 396.408,342.859 396.237,342.646 395.152,341.238 " fill="none" stroke-width="0.5" stroke="rgb(0,0,0)" />
	<polygon points="58.8233,341.978 61.7081,346.617 61.7595,346.111 62.2509,343.836 62.7496,342.323 63.678,340.267 63.879,339.917 62.5443,339.63 61.5258,339.336 59.057,338.429 58.3492,338.091 " fill="none" stroke-width="0.5" stroke="rgb(0,0,0)" />
	<polygon points="165.191,323.45 164.966,324.726 164.215,327.541 163.775,328.761 162.537,331.441 161.858,332.621 160.143,335.058 159.185,336.171 157.004,338.256 155.746,339.227 153.403,340.671 155.748,342.092 156.65,342.734 159,344.68 159.73,345.371 160.077,345.747 160.041,345.43 159.997,344.329 160.055,342.545 160.09,342.03 160.269,340.266 160.353,339.673 160.659,337.995 160.831,337.259 161.27,335.736 161.625,334.762 162.204,333.46 162.96,332.136 163.684,331.123 165.294,329.474 166.169,328.816 168.845,327.578 166.801,324.483 166.061,323.05 165.382,321.297 " fill="none" stroke-width="0.5" stroke="rgb(0,0,0)" />
	<polygon points="415.588,333.306 413.801,333.5 413.651,333.514 413.748,334.057 413.768,334.174 413.992,335.543 414.033,335.827 414.192,337.096 414.239,337.63 414.299,338.759 414.307,339.378 414.297,339.711 414.261,340.261 414.227,340.596 414.19,340.832 418.143,341.169 419.091,341.332 419.077,341.316 417.387,338.025 416.267,333.177 " fill="none" stroke-width="0.5" stroke="rgb(0,0,0)" />
	<polygon points="128.082,339.201 128.897,338.872 129.207,338.77 128.095,337.778 " fill="none" stroke-width="0.5" stroke="rgb(0,0,0)" />
	<polygon points="385.06,312.767 384.218,314.582 383.629,316.198 383.445,317.145 383.249,319.282 383.075,322.222 383.003,323.457 383.794,321.446 384.648,318.818 385.192,316.376 385.395,313.929 385.373,312.703 385.346,312.268 " fill="none" stroke-width="0.5" stroke="rgb(0,0,0)" />
	<polygon points="75.3202,312.124 74.4169,315.588 74.1223,318.315 74.1499,319.292 74.2688,320.419 74.4819,321.425 74.8206,322.408 74.9016,322.571 75.6389,321.37 76.5196,320.206 77.9373,318.667 79.0255,317.695 80.7265,316.447 81.9655,315.71 82.5631,315.427 81.0757,314.655 79.8443,313.855 78.4153,312.714 77.3367,311.66 76.1281,310.216 76.0492,310.1 " fill="none" stroke-width="0.5" stroke="rgb(0,0,0)" />
	<polygon points="350.806,321.828 350.83,321.772 351.091,321.237 351.412,320.637 350.224,320.299 349.16,319.908 348.521,319.617 " fill="none" stroke-width="0.5" stroke="rgb(0,0,0)" />
	<polygon points="343.019,314.562 342.426,315.165 344.898,316.85 344.785,316.756 344.289,316.044 343.51,313.912 " fill="none" stroke-width="0.5" stroke="rgb(0,0,0)" />
	<polygon points="163.741,298.004 162.471,298.443 160.993,298.793 159.809,298.95 158.192,298.989 157.836,298.959 157.69,298.934 158.653,300.414 159.077,301.153 162.457,307.902 162.447,307.651 162.616,304.493 162.702,303.691 163.194,300.645 163.362,299.867 163.886,297.941 " fill="none" stroke-width="0.5" stroke="rgb(0,0,0)" />
	<polygon points="132.774,307.05 132.771,307.673 134.009,307.533 134.189,307.55 135.166,307.775 134.776,306.968 132.419,303.017 " fill="none" stroke-width="0.5" stroke="rgb(0,0,0)" />
	<polygon points="311.428,305.976 311.829,306.047 312.21,306.133 312.043,305.563 " fill="none" stroke-width="0.5" stroke="rgb(0,0,0)" />
	<polygon points="434.41,295.115 434.31,295.251 433.86,295.853 435.026,296.483 434.553,294.915 " fill="none" stroke-width="0.5" stroke="rgb(0,0,0)" />
	<polygon points="459.157,289.251 458.52,289.546 457.646,290.269 456.478,291.68 456.249,292.034 456.504,292.041 459.693,292.555 459.931,292.631 459.91,292.2 459.729,290.962 459.442,289.853 459.195,289.246 " fill="none" stroke-width="0.5" stroke="rgb(0,0,0)" />
	<polygon points="88.521,283.987 88.4568,284.114 86.1021,288.647 85.9131,289.012 86.9549,289.559 87.4764,289.974 88.0748,290.517 88.3761,289.052 88.6853,285.807 88.7686,283.488 " fill="none" stroke-width="0.5" stroke="rgb(0,0,0)" />
	<polygon points="59.5593,283.006 59.5825,282.905 59.495,282.806 59.4616,282.776 " fill="none" stroke-width="0.5" stroke="rgb(0,0,0)" />
	<polygon points="156.862,228.2 156.515,228.913 157.562,230.126 158.321,233.759 158.261,235.185 158.239,235.523 158.08,237.345 158.065,237.503 157.84,239.575 157.832,239.648 157.574,241.824 157.572,241.841 157.317,243.956 157.102,245.822 156.966,247.206 156.931,247.859 156.933,247.909 158.037,248.552 159.957,251.812 160.422,253.437 160.565,254.023 160.931,255.834 160.995,256.198 161.286,258.127 161.314,258.329 161.559,260.307 161.567,260.377 161.787,262.305 161.999,264.036 162.045,264.335 162.545,264.497 163.163,265.251 163.258,261.768 164.4,257.795 165.84,255.065 168.296,252.099 166.317,252.523 162.642,251.365 160.017,248.544 159.288,243.41 159.526,242.29 159.73,241.236 159.908,240.187 160.059,239.145 160.18,238.107 160.27,237.075 160.325,236.047 160.341,235.135 160.25,233.266 159.973,231.523 159.474,229.778 158.697,227.98 157.826,226.523 " fill="none" stroke-width="0.5" stroke="rgb(0,0,0)" />
	<polygon points="129.666,243.674 131.005,253.273 131.125,253.591 131.249,252.713 132.254,251.594 131.958,250.368 131.323,248.31 130.513,245.88 130.495,245.825 129.674,243.295 " fill="none" stroke-width="0.5" stroke="rgb(0,0,0)" />
	<polygon points="382.729,246.511 381.874,247.784 381.05,248.777 379.96,249.847 378.955,250.651 378.208,251.136 378.771,251.825 378.802,251.865 379.657,251.059 380.495,250.376 381.621,249.584 383.866,248.507 384.81,248.235 382.949,246.292 382.893,246.204 " fill="none" stroke-width="0.5" stroke="rgb(0,0,0)" />
	<polygon points="324.92,236.376 326.754,238.45 329.039,242.265 329.042,242.273 329.896,241.847 331.064,241.397 331.123,241.38 330.653,240.516 330.077,239.154 329.372,236.893 329.169,235.898 329.052,235.922 327.646,236.064 326.119,236.064 324.724,235.921 324.198,235.813 " fill="none" stroke-width="0.5" stroke="rgb(0,0,0)" />
	<polygon points="464.388,226.65 464.385,226.668 463.849,229.572 463.572,231.218 464.093,229.933 464.787,227.26 465.017,224.78 464.907,223.793 " fill="none" stroke-width="0.5" stroke="rgb(0,0,0)" />
	<polygon points="312.578,226.218 310.72,226.806 309.677,227.022 309.75,227.247 310.654,228.265 312.771,229.524 315.742,230.815 315.297,230.274 314.489,229.079 313.843,227.892 313.267,226.532 313.099,225.995 " fill="none" stroke-width="0.5" stroke="rgb(0,0,0)" />
	<polygon points="86.4904,213.439 87.4403,214.382 87.9031,214.964 88.7002,216.194 89.0564,216.882 89.5258,218 89.7777,218.768 90.0314,219.768 90.181,220.59 90.2903,221.503 90.3072,221.794 90.7909,221.555 92.8874,220.877 93.6164,220.755 95.9187,220.724 96.5625,220.815 98.5891,221.397 99.2007,221.671 99.9249,222.116 100.05,220.427 100.217,219.313 101.059,215.612 101.117,215.42 100.958,215.457 97.9598,215.787 96.296,215.786 93.1068,215.43 91.4134,215.039 88.5492,214.02 87.0044,213.262 86.742,213.094 " fill="none" stroke-width="0.5" stroke="rgb(0,0,0)" />
	<polygon points="438.422,213.027 437.837,213.193 432.716,214.423 432.032,214.554 426.977,215.285 427.863,215.856 431.556,218.92 432.731,220.142 433.682,221.384 434.01,220.62 434.733,219.312 437.256,215.658 437.974,214.771 440.149,212.461 " fill="none" stroke-width="0.5" stroke="rgb(0,0,0)" />
	<polygon points="65.3519,216.37 65.8769,216.716 66.3938,217.184 67.6711,218.687 68.0709,219.307 68.2359,219.629 69.5905,217.325 68.2013,216.961 66.9038,216.491 65.6535,215.904 " fill="none" stroke-width="0.5" stroke="rgb(0,0,0)" />
	<polygon points="189.784,214.181 190.993,216.582 191.144,216.992 191.206,216.937 193.8,216.376 193.796,216.361 193.349,215.51 192.787,214.863 191.924,214.232 190.543,213.595 189.132,213.205 " fill="none" stroke-width="0.5" stroke="rgb(0,0,0)" />
	<polygon points="381.685,201.818 381.003,203.065 380.195,204.258 379.517,205.077 380.313,205.733 380.932,206.352 383.163,203.69 384.236,203.29 382.046,201.505 381.888,201.341 " fill="none" stroke-width="0.5" stroke="rgb(0,0,0)" />
	<polygon points="365.186,171.194 366.027,172.73 366.606,174.09 367.264,176.183 367.573,177.677 367.802,179.916 367.802,180.508 369.057,180.507 369.081,180.509 366.51,172.285 366.285,171.369 366.138,170.552 " fill="none" stroke-width="0.5" stroke="rgb(0,0,0)" />
	<polygon points="146.625,175.727 145.624,175.991 144.928,176.126 146.963,178.072 146.968,178.052 147.844,175.312 " fill="none" stroke-width="0.5" stroke="rgb(0,0,0)" />
	<polygon points="107.933,164.004 106.898,164.86 105.702,165.67 104.516,166.317 103.154,166.894 101.846,167.304 101.011,167.475 101.276,167.632 104.536,169.847 105.311,170.45 108.31,173.117 109.082,173.913 111.671,177.005 112.023,177.508 112.912,175.872 113.972,174.385 115.358,172.868 116.413,171.986 115.858,171.581 112.964,168.936 111.914,167.752 109.692,164.641 108.962,163.376 108.836,163.1 " fill="none" stroke-width="0.5" stroke="rgb(0,0,0)" />
	<polygon points="423.93,143.461 422.534,145.13 419.793,147.582 418.493,148.517 415.982,149.945 417.218,150.057 418.681,150.336 425.101,152.233 426.495,152.801 432.18,155.813 432.765,156.191 431.116,150.439 431.05,147.344 430.086,147.008 428.407,146.27 427.068,145.51 425.708,144.543 424.297,143.239 424.164,143.08 " fill="none" stroke-width="0.5" stroke="rgb(0,0,0)" />
	<polygon points="355.91,139.115 355.33,145.218 355.57,145.17 356.911,145.035 358.423,145.035 359.763,145.17 361.242,145.47 362.49,145.857 363.314,146.204 358.216,141.744 357.303,140.793 355.911,139.061 " fill="none" stroke-width="0.5" stroke="rgb(0,0,0)" />
	<polygon points="126.736,138.047 127.204,139.446 127.682,141.739 127.74,142.053 127.855,142.75 128.095,142.019 128.4,140.962 128.66,139.913 128.874,138.886 129.04,137.893 129.156,136.946 129.166,136.821 " fill="none" stroke-width="0.5" stroke="rgb(0,0,0)" />
	<polygon points="313.917,125.298 312.833,125.803 311.899,126.446 311.131,127.183 310.556,127.944 310.195,128.632 309.811,129.845 308.876,131.322 309.094,131.438 309.975,131.795 310.833,132.034 311.737,132.179 312.823,132.234 313.077,132.226 313.533,132.19 314.096,132.128 314.741,132.045 315.423,131.953 315.485,131.945 316.016,131.878 315.568,131.155 315.383,130.8 314.948,129.785 314.818,129.412 314.546,128.402 314.471,128.016 314.344,127.037 314.319,126.645 314.345,125.386 314.366,125.177 " fill="none" stroke-width="0.5" stroke="rgb(0,0,0)" />
	<polygon points="92.6585,115.108 92.161,115.531 89.8978,117.294 88.811,118 86.4729,119.247 84.3792,119.993 81.9779,120.466 81.1152,120.503 81.2537,122.937 81.264,123.534 81.2323,124.961 81.218,125.287 81.2144,125.343 81.5717,125.1 82.7578,124.453 84.1203,123.874 85.4292,123.464 86.9193,123.159 88.3224,123.016 89.8522,123.015 91.2573,123.158 92.7454,123.463 94.0562,123.873 94.7618,124.172 94.0984,119.213 94.0784,119.05 93.5464,114.284 " fill="none" stroke-width="0.5" stroke="rgb(0,0,0)" />
	<polygon points="185.606,110.594 185.474,111.42 185.232,112.459 185.002,113.203 184.484,114.461 184.148,115.106 183.206,116.506 182.755,117.037 181.315,118.345 180.742,118.744 178.967,119.658 178.263,119.91 176.502,120.309 175.658,120.397 174.708,120.321 175.035,120.987 176.679,125.257 179.624,123.209 180.547,122.66 183.667,121.093 184.847,120.621 188.069,119.636 189.499,119.346 192.535,119.032 192.287,118.764 188.043,113.752 187.796,113.445 185.609,110.569 " fill="none" stroke-width="0.5" stroke="rgb(0,0,0)" />
	<polygon points="125.182,112.41 124.227,116.229 125.607,114.608 126.475,113.742 126.816,113.453 126.436,113.108 125.322,111.905 " fill="none" stroke-width="0.5" stroke="rgb(0,0,0)" />
	<polygon points="414.268,104.544 416.411,106.51 416.736,106.873 416.726,105.055 417.132,104.331 416.315,104.322 416.168,104.32 413.777,104.249 " fill="none" stroke-width="0.5" stroke="rgb(0,0,0)" />
	<polygon points="393.629,103.131 394.414,104.128 395.141,105.232 395.235,105.21 396.57,104.773 398.171,104.169 399.88,103.508 400.073,103.436 400.4,103.32 398.661,103.137 398.521,103.121 395.094,102.696 394.952,102.677 392.936,102.389 " fill="none" stroke-width="0.5" stroke="rgb(0,0,0)" />
	<polygon points="146.059,104.722 149.312,104.484 149.173,104.366 146.506,102.221 " fill="none" stroke-width="0.5" stroke="rgb(0,0,0)" />
	<polygon points="309.013,98.869 309.205,98.809 309.188,98.7181 309.188,98.7169 " fill="none" stroke-width="0.5" stroke="rgb(0,0,0)" />
	<polygon points="382.733,98.5554 382.913,98.5441 383.445,98.5273 384.823,98.6101 385.104,98.653 384.283,97.4557 384.261,97.4122 " fill="none" stroke-width="0.5" stroke="rgb(0,0,0)" />
	<polygon points="66.1623,96.363 68.6165,97.4948 69.1433,97.8339 69.2809,96.776 69.2823,96.7651 69.5641,94.6213 69.5703,94.5693 " fill="none" stroke-width="0.5" stroke="rgb(0,0,0)" />
	<polygon points="127.052,63.9626 126.323,67.4192 126.22,67.8473 125.373,70.9544 125.034,71.8186 125.955,72.4147 126.015,72.0823 126.305,70.9792 126.566,70.2212 127.397,68.5332 127.766,67.9717 129.535,66.1472 127.853,63.8063 127.274,63.0394 " fill="none" stroke-width="0.5" stroke="rgb(0,0,0)" />
	<polygon points="103.627,62.5119 101.785,64.0886 101.597,64.2443 99.8161,65.6722 99.092,66.1858 97.4772,67.1938 97.5898,67.5857 97.8098,68.6197 97.9175,69.3863 97.9851,70.1409 97.9921,70.3171 100.105,69.0698 102.163,68.3563 105.537,68.1005 105.394,66.3828 105.374,66.0668 105.232,62.6465 105.104,61.309 " fill="none" stroke-width="0.5" stroke="rgb(0,0,0)" />
	<polygon points="409.221,61.7408 410.6,62.8886 411.032,63.2772 412.654,64.8538 414.375,66.4695 416.078,67.8374 417.726,68.8381 419.286,69.4252 421.207,69.6676 421.298,69.6633 421.787,69.5891 422.164,69.4789 422.231,69.4455 422.287,69.2949 422.313,69.0505 422.005,68.0282 420.625,66.6034 417.205,64.5799 412.503,62.632 408.464,61.2927 " fill="none" stroke-width="0.5" stroke="rgb(0,0,0)" />
	<polygon points="401.527,59.0903 401.525,59.7624 402.319,59.6144 402.582,59.59 403.369,59.7014 402.719,59.5016 402.364,59.3829 401.526,59.0792 " fill="none" stroke-width="0.5" stroke="rgb(0,0,0)" />
	<polygon points="163.075,48.753 164.668,49.2948 164.875,49.3685 164.932,49.3896 163.51,47.9763 " fill="none" stroke-width="0.5" stroke="rgb(0,0,0)" />
	<polygon points="397.455,39.1725 398.074,40.6583 398.447,41.9185 399.634,41.3225 400.557,40.9336 403.529,39.9071 404.023,39.7551 407.482,38.8197 406.507,38.305 402.256,36.6933 398.305,35.5697 395.031,34.7503 " fill="none" stroke-width="0.5" stroke="rgb(0,0,0)" />
	<polygon points="151.733,30.6249 152.711,31.2358 152.621,30.1122 " fill="none" stroke-width="0.5" stroke="rgb(0,0,0)" />
	<polygon points="82.4663,29.7997 83.2509,29.5091 82.7588,29.0129 " fill="none" stroke-width="0.5" stroke="rgb(0,0,0)" />
</svg>
