<?xml version="1.0" standalone="no" ?>
<!DOCTYPE svg PUBLIC "-//W3C//DTD SVG 1.1//EN" "http://www.w3.org/Graphics/SVG/1.1/DTD/svg11.dtd">
<svg width="500px" height="500px" xmlns="http://www.w3.org/2000/svg" version="1.1" >
	<polygon points="480.823,82.6905 480.444,83.3172 475.129,89.7891 473.241,91.5643 470.934,93.2322 472.962,94.0569 474.795,95.0325 476.518,96.1915 478.18,97.5914 479.549,99.0229 480.823,100.669 480.823,192.972 479.872,194.073 478.293,195.147 477.305,195.535 480.071,198.605 480.823,199.614 480.823,249.223 480.761,249.329 480.261,250.098 479.067,251.763 480.12,252.138 480.823,252.498 480.823,281.286 479.971,296.463 479.816,297.443 478.169,299.48 477.353,300.375 475.445,302.229 477.322,305.824 477.916,307.202 478.159,307.905 477.405,312.666 473.11,329.62 467.07,347.047 459.27,364.67 454.253,373.862 451.698,374.145 452.048,377.903 449.695,382.213 438.331,399.399 425.161,415.952 410.17,431.593 399.787,440.513 398.497,440.108 398.287,440.009 397.917,442.12 393.345,446.047 374.668,459.037 354.126,470.285 331.702,479.516 320.215,482.792 319.933,482.681 317.27,481.304 316.064,480.515 315.859,482.271 315.461,483.743 315.223,484.216 307.382,486.452 281.151,490.817 263.715,491.756 263.421,491.516 263.334,491.432 263.127,491.529 262.447,491.824 252.993,492.333 225.548,490.902 199.887,486.773 176.007,480.192 174.707,479.675 173.993,479.174 171.305,477.661 169.895,477.255 168.196,477.087 153.907,471.407 133.585,460.665 126.188,455.698 125.744,455.018 125.566,453.68 122.723,453.372 115.039,448.212 98.2672,434.295 83.2685,419.161 70.0408,403.057 68.2114,400.371 68.1886,399.347 68.1969,399.243 67.2204,398.915 58.5824,386.23 48.8916,368.927 40.9666,351.394 34.8057,333.879 33.1472,327.374 35.4944,319.814 36.0695,318.367 37.3389,315.774 36.9631,315.767 34.994,315.147 30.8843,312.655 29.5749,311.346 27.7694,299.888 26.8905,283.906 26.8905,232.173 27.0948,231.704 27.951,230.23 27.0791,229.727 26.8905,229.58 26.8905,158.474 27.2894,157.362 27.9367,155.923 30.3632,151.49 31.448,149.892 31.956,149.28 31.6474,149.156 29.3612,147.969 27.6912,146.881 26.8905,146.238 26.8905,108.652 26.969,108.585 26.8905,108.523 26.8905,39.1251 29.9969,36.8503 30.4879,36.5125 31.3715,35.9423 29.7769,35.4399 28.2543,34.8199 26.8905,34.1303 26.8905,19.5757 38.3822,19.4875 49.8739,19.3993 61.3656,19.3111 72.8572,19.223 84.3489,19.1348 95.8406,19.0466 107.332,18.9584 118.729,18.871 118.858,19.0254 119,18.8689 130.316,18.7821 141.807,18.6939 153.299,18.6057 164.791,18.5175 176.282,18.4294 187.774,18.3412 210.757,18.1648 210.732,31.0636 210.706,43.9624 210.681,56.8612 210.656,69.76 210.63,82.6588 210.621,87.5252 209.906,87.8241 208.255,88.353 207.715,88.4762 210.061,90.429 210.402,90.7265 210.614,90.9193 210.579,108.456 210.554,121.355 210.503,147.153 210.478,160.052 210.452,172.95 210.438,180.255 209.995,180.923 208.214,183.165 206.94,184.497 205.507,185.746 206.628,186.515 208.188,187.835 210.161,189.88 210.418,190.212 210.401,198.748 210.376,211.647 210.357,221.382 210.201,221.633 209.625,222.218 210.354,222.892 210.35,224.546 210.438,235.84 210.602,246.657 210.899,256.963 211.349,266.032 210.039,267.617 208.832,269.223 209.24,269.637 211.358,271.421 211.533,271.571 211.786,271.794 212.112,275.909 213.138,284.482 214.519,292.41 216.308,299.661 218.563,306.2 221.336,311.994 224.685,317.011 228.665,321.215 233.33,324.575 238.737,327.056 244.939,328.626 251.957,329.247 252.005,329.243 252.822,330.935 253.618,329.732 254.13,329.097 259.171,328.749 265.518,327.271 271.013,324.853 275.719,321.532 279.698,317.343 283.01,312.324 285.72,306.511 287.888,299.942 289.576,292.653 290.848,284.68 291.763,276.06 292.386,266.831 292.418,266.022 293.126,265.467 292.505,264.935 292.464,264.887 292.778,257.028 293,246.688 293.115,235.848 293.185,224.546 293.159,211.647 293.133,198.748 293.126,194.969 294.476,193.848 294.647,193.732 294.123,192.77 293.351,190.95 293.116,190.2 293.107,185.849 293.096,180.31 293.352,179.494 294.124,177.674 294.772,176.488 295.155,175.922 294.074,175.221 293.084,174.302 293.082,172.95 293.056,160.052 293.004,134.254 292.978,121.355 292.96,112.251 293.224,111.507 294.538,108.63 295.02,107.794 294.443,107.714 294.293,107.681 292.95,107.173 292.901,82.6588 292.875,69.76 292.797,31.0636 292.771,18.1648 304.525,18.0893 316.278,18.0137 328.031,17.9382 339.784,17.8626 351.538,17.787 363.291,17.7115 375.044,17.6359 381.936,17.5916 385.487,20.1982 385.998,19.1124 386.624,18.3843 387.714,17.5545 410.304,17.4092 422.057,17.3337 433.81,17.2581 445.119,17.1854 445.205,17.2643 445.27,17.1844 445.564,17.1826 457.317,17.107 469.07,17.0314 480.823,16.9559 " fill="none" stroke-width="0.5" stroke="rgb(0,0,0)" />
	<polygon points="197.555,445.203 197.701,445.209 197.324,445.179 " fill="none" stroke-width="0.5" stroke="rgb(0,0,0)" />
	<polygon points="318.303,422.436 318.487,423.046 318.818,424.498 318.898,424.888 318.986,425.36 319.615,425.852 320.482,426.588 320.934,427.037 320.994,426.983 321.702,426.392 322.426,425.84 323.126,425.355 324.052,424.794 323.982,424.544 323.604,421.809 323.604,420.688 " fill="none" stroke-width="0.5" stroke="rgb(0,0,0)" />
	<polygon points="168.709,414.804 168.676,415.285 169.143,414.21 168.705,413.981 " fill="none" stroke-width="0.5" stroke="rgb(0,0,0)" />
	<polygon points="76.9319,316.049 76.9184,316.174 77.5176,315.638 77.7645,315.457 77.2031,315.009 " fill="none" stroke-width="0.5" stroke="rgb(0,0,0)" />
	<polygon points="163.278,254.573 163.387,254.365 163.229,254.333 " fill="none" stroke-width="0.5" stroke="rgb(0,0,0)" />
	<polygon points="97.7786,218.537 97.8276,218.322 97.0269,218.321 " fill="none" stroke-width="0.5" stroke="rgb(0,0,0)" />
	<polygon points="92.2007,217.974 92.3118,218.412 92.4652,218.362 93.1942,218.24 95.0708,218.215 92.8238,217.964 92.1463,217.808 " fill="none" stroke-width="0.5" stroke="rgb(0,0,0)" />
	<polygon points="433.154,216.933 433.184,216.958 433.229,217.004 433.297,216.905 " fill="none" stroke-width="0.5" stroke="rgb(0,0,0)" />
	<polygon points="106.923,167.908 106.491,168.144 107.006,168.545 110.004,171.211 111.037,172.276 111.755,173.133 112.089,172.665 112.624,172.08 111.244,170.819 109.839,169.234 108.25,167.01 " fill="none" stroke-width="0.5" stroke="rgb(0,0,0)" />
	<polygon points="424.234,147.03 422.312,148.75 425.823,149.788 427.688,150.548 428.66,151.063 428.55,149.119 427.381,148.605 425.59,147.588 424.448,146.775 " fill="none" stroke-width="0.5" stroke="rgb(0,0,0)" />
	<polygon points="91.4648,119.306 90.011,120.25 89.582,120.479 90.1104,120.479 91.5154,120.622 91.7197,120.663 91.571,119.551 91.5442,119.332 91.5351,119.251 " fill="none" stroke-width="0.5" stroke="rgb(0,0,0)" />
	<polygon points="186.41,116.285 185.4,117.786 187.324,117.197 187.576,117.146 186.576,115.965 " fill="none" stroke-width="0.5" stroke="rgb(0,0,0)" />
</svg>
