<?xml version="1.0" standalone="no" ?>
<!DOCTYPE svg PUBLIC "-//W3C//DTD SVG 1.1//EN" "http://www.w3.org/Graphics/SVG/1.1/DTD/svg11.dtd">
<svg width="500px" height="500px" xmlns="http://www.w3.org/2000/svg" version="1.1" >
	<polygon points="480.823,84.3527 475.863,90.392 473.798,92.3343 472.88,92.9978 473.32,93.1769 475.325,94.2442 477.048,95.4032 478.867,96.9348 480.236,98.3663 480.823,99.1257 480.823,194.375 480.406,194.858 478.898,195.884 480.777,197.969 480.823,198.032 480.823,250.944 480.563,251.307 480.823,251.44 480.823,281.286 479.971,296.463 479.518,299.323 478.908,300.078 478.015,301.056 476.615,302.417 478.164,305.384 478.453,306.052 477.405,312.666 473.11,329.62 467.07,347.047 459.27,364.67 453.694,374.886 452.734,375.021 452.863,376.409 449.695,382.213 438.331,399.399 425.161,415.952 410.17,431.593 393.345,446.047 374.668,459.037 354.126,470.285 331.702,479.516 318.839,483.185 316.833,482.148 316.82,482.139 316.776,482.518 316.409,483.878 307.382,486.452 281.151,490.817 252.993,492.333 225.548,490.902 199.887,486.773 176.007,480.192 153.907,471.407 133.585,460.665 124.803,454.768 124.768,454.549 124.42,454.511 115.039,448.212 98.2672,434.295 83.2685,419.161 70.0408,403.057 58.5824,386.23 48.8916,368.927 40.9666,351.394 34.8057,333.879 32.6986,325.615 34.5871,319.532 35.2163,317.949 35.9529,316.445 34.7089,316.053 30.2125,313.327 29.8262,312.94 27.7694,299.888 26.8905,283.906 26.8905,155.94 27.1034,155.466 29.5299,151.034 30.4871,149.624 28.9236,148.813 27.0965,147.622 26.8905,147.457 26.8905,37.9476 29.2255,36.2377 27.8256,35.6677 26.8905,35.1949 26.8905,19.5757 38.3822,19.4875 49.8739,19.3993 61.3656,19.3111 72.8572,19.223 84.3489,19.1348 95.8406,19.0466 107.332,18.9584 118.824,18.8703 130.316,18.7821 141.807,18.6939 153.299,18.6057 164.791,18.5175 176.282,18.4294 187.774,18.3412 210.757,18.1648 210.732,31.0636 210.706,43.9624 210.681,56.8612 210.656,69.76 210.63,82.6588 210.619,88.5558 210.272,88.7006 209.692,88.8864 210.616,89.6555 210.579,108.456 210.554,121.355 210.503,147.153 210.478,160.052 210.452,172.95 210.434,181.897 208.958,183.756 207.564,185.214 207.056,185.657 207.165,185.732 208.872,187.175 210.421,188.781 210.401,198.748 210.376,211.647 210.35,224.546 210.438,235.84 210.602,246.657 210.899,256.963 211.384,266.725 211.439,267.415 210.785,268.206 210.099,269.118 211.679,270.448 212.112,275.909 213.138,284.482 214.519,292.41 216.308,299.661 218.563,306.2 221.336,311.994 224.685,317.011 228.665,321.215 233.33,324.575 238.737,327.056 244.939,328.626 251.957,329.247 259.171,328.749 265.518,327.271 271.013,324.853 275.719,321.532 279.698,317.343 283.01,312.324 285.72,306.511 287.888,299.942 289.576,292.653 290.848,284.68 291.763,276.06 292.386,266.831 292.778,257.028 293,246.688 293.115,235.848 293.185,224.546 293.159,211.647 293.133,198.748 293.123,193.736 293.429,193.482 293.289,193.225 293.121,192.83 293.107,185.849 293.091,177.689 293.29,177.219 293.851,176.192 293.428,175.917 293.087,175.601 293.082,172.95 293.056,160.052 293.004,134.254 292.978,121.355 292.955,109.809 293.589,108.42 292.952,108.179 292.901,82.6588 292.875,69.76 292.797,31.0636 292.771,18.1648 304.525,18.0893 316.278,18.0137 328.031,17.9382 339.784,17.8626 351.538,17.787 363.291,17.7115 375.044,17.6359 383.527,17.5814 385.152,18.7738 385.277,18.493 385.903,17.7649 386.167,17.5644 386.797,17.5604 410.304,17.4092 422.057,17.3337 433.81,17.2581 445.564,17.1826 457.317,17.107 469.07,17.0314 480.823,16.9559 " fill="none" stroke-width="0.5" stroke="rgb(0,0,0)" />
	<polygon points="319.463,423.053 319.744,424.288 319.832,424.714 319.855,424.834 320.23,425.128 320.976,425.761 321.093,425.662 321.885,425.059 322.586,424.574 323.001,424.322 322.68,421.993 " fill="none" stroke-width="0.5" stroke="rgb(0,0,0)" />
	<polygon points="424.216,148.322 425.785,148.786 425.039,148.362 424.555,148.018 " fill="none" stroke-width="0.5" stroke="rgb(0,0,0)" />
</svg>
