<?xml version="1.0" standalone="no" ?>
<!DOCTYPE svg PUBLIC "-//W3C//DTD SVG 1.1//EN" "http://www.w3.org/Graphics/SVG/1.1/DTD/svg11.dtd">
<svg width="500px" height="500px" xmlns="http://www.w3.org/2000/svg" version="1.1" >
	<polygon points="480.823,79.634 480.561,80.2551 479.285,82.3652 473.97,88.8371 472.362,90.3487 467.491,93.8697 468.792,94.1367 470.302,94.5944 472.397,95.4464 473.957,96.2771 475.681,97.4361 477.096,98.6281 478.465,100.06 479.562,101.478 480.596,103.147 480.823,103.607 480.823,190.755 479.028,192.833 477.449,193.907 474.704,194.926 474.955,195.168 478.957,199.609 479.908,200.885 480.823,202.385 480.823,246.262 479.468,248.569 479.042,249.224 476.554,252.694 478.358,253.103 479.617,253.552 480.823,254.169 480.823,281.286 480.072,294.668 479.58,295.349 477.003,298.537 476.308,299.299 473.533,301.995 474.077,302.851 475.993,306.519 476.499,307.692 477.66,311.054 477.405,312.666 473.11,329.62 467.07,347.047 459.27,364.67 455.077,372.353 455.052,372.368 450.941,372.59 450.007,372.163 450.618,378.721 450.554,380.64 449.695,382.213 438.331,399.399 425.161,415.952 410.17,431.593 401.114,439.372 399.137,438.752 397.644,438.047 396.961,437.634 396.876,439.37 396.124,443.66 393.345,446.047 374.668,459.037 354.126,470.285 331.702,479.516 322.64,482.101 322.221,481.982 320.622,481.348 317.959,479.972 316.486,479.008 314.511,477.403 314.57,477.689 314.626,478.128 314.692,478.953 314.704,479.368 314.411,481.879 314.013,483.352 313.301,484.764 307.382,486.452 281.151,490.817 265.94,491.636 264.37,490.354 263.611,489.621 263.014,489.926 262.53,490.153 258.365,491.959 258.117,492.057 252.993,492.333 225.548,490.902 199.887,486.773 179.361,481.116 178.717,480.659 174.794,477.903 171.888,476.269 170.178,475.776 167.284,475.49 163.673,475.289 153.907,471.407 133.585,460.665 129.423,457.87 129.228,457.682 127.044,454.192 126.894,452.217 125.905,452.208 120.043,451.572 115.039,448.212 98.2672,434.295 83.2685,419.161 70.0408,403.057 69.933,402.899 69.7229,401.218 69.6838,399.467 69.7989,398.026 68.7507,398.055 65.3498,396.168 58.5824,386.23 48.8916,368.927 40.9666,351.394 34.8057,333.879 33.8746,330.227 33.9586,329.819 36.9269,320.259 37.4166,319.026 39.6909,314.382 37.4134,314.336 35.4443,313.716 31.9449,311.594 30.1263,309.776 29.116,308.433 27.7694,299.888 26.8905,283.906 26.8905,235.932 28.4701,232.302 29.4682,230.584 30.0922,229.75 28.0039,228.546 26.8905,227.674 26.8905,163.055 27.1292,162.251 28.7013,157.868 29.2525,156.643 31.679,152.21 32.6027,150.85 34.4578,148.613 33.8894,148.447 32.3384,147.825 30.0522,146.638 28.6302,145.711 26.8905,144.315 26.8905,110.654 27.1262,110.419 28.1306,109.559 29.4649,108.585 29.0681,108.34 27.5487,107.145 27.1536,106.755 26.8905,106.423 26.8905,90.0243 28.3191,87.8649 26.8905,87.3873 26.8905,40.9961 26.9925,40.9097 30.8831,38.0605 31.3013,37.7728 34.9131,35.4422 34.4505,35.325 33.9782,35.1909 30.2277,34.0093 28.9311,33.4813 26.8905,32.4495 26.8905,19.5757 38.3822,19.4875 49.8739,19.3993 61.3656,19.3111 72.8572,19.223 84.3489,19.1348 95.8406,19.0466 107.332,18.9584 116.768,18.886 116.94,19.0769 117.145,19.3135 118.302,20.7006 118.631,21.0076 118.805,21.0328 118.991,21.0062 119.461,20.5937 120.706,19.2204 120.927,18.985 121.056,18.8531 130.316,18.7821 141.807,18.6939 153.299,18.6057 157.279,18.5752 157.925,20.6213 158.961,19.874 160.476,19.0005 161.497,18.5428 164.791,18.5175 176.282,18.4294 187.774,18.3412 210.757,18.1648 210.732,31.0636 210.706,43.9624 210.681,56.8612 210.679,57.9572 209.606,58.3655 210.676,59.592 210.656,69.76 210.63,82.6588 210.624,85.8482 210.197,86.0764 209.327,86.4402 207.922,86.8905 206.919,87.1193 205.61,87.3133 204.482,87.3927 204.014,87.3854 204.578,87.8233 204.806,88.0067 209.101,91.5819 209.392,91.8352 210.61,92.9451 210.579,108.456 210.554,121.355 210.503,147.153 210.478,160.052 210.452,172.95 210.444,177.278 209.64,178.754 208.821,179.99 207.04,182.232 205.955,183.366 203.814,185.232 202.933,185.859 203.382,186.109 205.78,187.752 207.108,188.876 209.081,190.922 210.218,192.389 210.413,192.706 210.401,198.748 210.376,211.647 210.362,218.432 209.959,219.158 209.751,219.511 208.926,220.843 207.47,222.267 209.622,224.259 210.245,224.898 210.354,225.022 210.438,235.84 210.602,246.657 210.899,256.963 211.239,263.802 211.235,263.807 211.044,264.047 208.861,266.688 207.363,268.681 206.964,269.426 207.034,269.539 208.222,270.74 210.392,272.568 210.541,272.696 211.956,273.944 212.112,275.909 213.138,284.482 214.519,292.41 216.308,299.661 218.563,306.2 221.336,311.994 224.685,317.011 228.665,321.215 233.33,324.575 238.737,327.056 244.939,328.626 250.182,329.09 250.577,329.736 252.086,332.861 252.623,334.281 252.645,334.361 253.888,332.03 254.785,330.674 256.172,328.956 259.171,328.749 265.518,327.271 271.013,324.853 275.719,321.532 279.698,317.343 283.01,312.324 285.72,306.511 287.888,299.942 289.576,292.653 290.848,284.68 291.763,276.06 292.303,268.066 292.592,267.779 294.194,266.522 295.206,265.907 295.685,265.688 293.482,263.797 292.551,262.715 292.778,257.028 293,246.688 293.115,235.848 293.185,224.546 293.184,223.948 293.605,223.133 293.181,222.71 293.159,211.647 293.133,198.748 293.13,197.056 293.956,196.229 295.434,195.002 296.698,194.142 296.087,193.239 295.44,192.052 294.782,190.502 294.373,189.192 294.025,187.497 293.882,186.094 293.882,184.349 294.025,182.948 294.374,181.251 294.783,179.942 295.441,178.393 296.088,177.207 297.01,175.846 297.269,175.532 295.095,174.122 293.683,172.81 293.08,172.111 293.056,160.052 293.004,134.254 292.991,127.969 293.549,127.44 293.379,126.736 293.296,126.349 293.149,125.588 293.079,125.17 292.984,124.5 292.978,121.355 292.974,119.12 293.073,117.95 293.316,116.527 294.084,113.551 294.588,112.13 295.902,109.253 296.72,107.836 297.794,106.328 296.949,106.456 296.713,106.455 296.235,106.438 296.044,106.426 294.761,106.248 294.611,106.215 292.947,105.586 292.902,83.3478 292.97,83.2238 293.146,82.902 292.901,82.8319 292.901,82.6588 292.875,69.76 292.817,40.9494 292.91,40.8985 293.211,40.7414 292.815,40.162 292.797,31.0636 292.771,18.1648 304.525,18.0893 305.788,18.0812 305.941,18.16 306.116,18.2527 307.717,19.1243 307.817,18.6527 307.977,18.0671 316.278,18.0137 328.031,17.9382 339.784,17.8626 351.538,17.787 363.291,17.7115 375.044,17.6359 378.976,17.6106 379.383,17.7977 380.886,18.6814 385.944,22.3944 387.135,20.0904 387.761,19.3624 390.156,17.5388 410.304,17.4092 422.057,17.3337 433.81,17.2581 442.731,17.2008 443.545,17.779 445.434,19.5057 445.919,18.7632 447.214,17.1719 457.317,17.107 469.07,17.0314 480.823,16.9559 " fill="none" stroke-width="0.5" stroke="rgb(0,0,0)" />
	<polygon points="306.111,468.734 306.563,468.816 307.232,469.009 309.005,469.772 308.499,468.532 307.812,466.23 " fill="none" stroke-width="0.5" stroke="rgb(0,0,0)" />
	<polygon points="193.151,443.398 193.567,444.624 193.971,446.189 194.533,446.313 196.019,446.552 197.448,446.7 198.577,446.744 200.085,446.662 201.464,446.419 202.634,446.036 203.529,445.562 204.185,445.022 204.723,444.325 204.93,443.87 202.961,444.017 201.646,444.015 195.428,443.526 193.973,443.284 192.996,443.035 " fill="none" stroke-width="0.5" stroke="rgb(0,0,0)" />
	<polygon points="316.858,421.332 316.375,421.435 316.676,422.227 317.025,423.379 317.355,424.831 317.424,425.163 317.622,426.226 318.105,426.573 318.645,426.996 319.511,427.731 320.473,428.688 320.868,429.148 321.52,428.523 321.955,428.135 322.664,427.543 323.28,427.074 323.98,426.589 324.865,426.052 325.555,425.688 325.867,425.554 325.775,425.379 325.426,424.138 325.104,421.809 325.104,418.614 " fill="none" stroke-width="0.5" stroke="rgb(0,0,0)" />
	<polygon points="167.206,413.448 167.212,414.701 166.944,418.63 169.296,418.892 169.322,418.594 169.653,416.873 169.749,416.554 170.553,414.703 170.71,414.432 171.306,413.65 169.085,412.486 168.412,412.094 167.032,411.203 " fill="none" stroke-width="0.5" stroke="rgb(0,0,0)" />
	<polygon points="271.498,413.958 273.471,415.719 273.848,415.655 274.206,415.601 274.371,415.579 271.173,413.687 " fill="none" stroke-width="0.5" stroke="rgb(0,0,0)" />
	<polygon points="259.826,404.542 259.207,406.063 261.847,407.381 262.406,407.686 265.189,409.343 265.354,409.448 259.981,404.488 259.877,404.372 " fill="none" stroke-width="0.5" stroke="rgb(0,0,0)" />
	<polygon points="350.995,396.018 350.336,397.119 351.997,397.026 351.118,395.822 351.102,395.797 " fill="none" stroke-width="0.5" stroke="rgb(0,0,0)" />
	<polygon points="204.492,391.233 205.024,392.418 205.055,392.505 205.122,392.406 206.909,390.535 205.571,390.521 204.013,390.349 " fill="none" stroke-width="0.5" stroke="rgb(0,0,0)" />
	<polygon points="244.297,374.534 245.504,375.544 245.601,375.646 245.507,375.296 245.242,373.815 245.198,373.324 " fill="none" stroke-width="0.5" stroke="rgb(0,0,0)" />
	<polygon points="82.8769,368.484 81.8429,368.558 81.2954,368.563 81.5746,369.27 81.9978,372.064 82.7871,371.361 83.9027,370.519 84.7382,369.99 83.6933,368.914 83.303,368.428 " fill="none" stroke-width="0.5" stroke="rgb(0,0,0)" />
	<polygon points="118.136,360.323 117.974,360.871 119.009,360.778 118.421,359.923 118.269,359.615 " fill="none" stroke-width="0.5" stroke="rgb(0,0,0)" />
	<polygon points="394.593,343.037 393.837,343.58 392.815,344.233 390.628,345.231 389.793,345.479 388.953,345.548 389.486,347.056 389.607,347.583 392.363,345.274 394.426,343.992 395.568,343.49 395.405,343.287 394.976,342.729 " fill="none" stroke-width="0.5" stroke="rgb(0,0,0)" />
	<polygon points="59.8375,341.62 61.1866,343.79 61.2245,343.614 61.7926,341.891 62.3474,340.662 62.324,340.657 61.1638,340.321 59.6094,339.751 " fill="none" stroke-width="0.5" stroke="rgb(0,0,0)" />
	<polygon points="157.73,339.015 156.297,340.121 155.417,340.663 156.292,341.194 157.32,341.925 158.98,343.3 159.006,342.511 159.045,341.924 159.224,340.16 159.32,339.485 159.626,337.807 159.808,337.028 " fill="none" stroke-width="0.5" stroke="rgb(0,0,0)" />
	<polygon points="414.876,334.44 415.028,335.374 415.075,335.697 415.233,336.966 415.287,337.574 415.348,338.703 415.356,339.408 415.346,339.741 415.338,339.876 417.278,340.041 416.364,338.262 415.467,334.376 " fill="none" stroke-width="0.5" stroke="rgb(0,0,0)" />
	<polygon points="165.23,327.811 165.033,328.356 165.539,327.976 167.309,327.157 165.952,325.102 " fill="none" stroke-width="0.5" stroke="rgb(0,0,0)" />
	<polygon points="76.3242,312.435 75.4525,315.777 75.1739,318.357 75.1983,319.222 75.2908,320.098 75.7474,319.495 77.1651,317.956 78.4046,316.848 80.1056,315.6 80.3705,315.443 79.1892,314.675 77.7602,313.534 76.5316,312.334 76.412,312.191 " fill="none" stroke-width="0.5" stroke="rgb(0,0,0)" />
	<polygon points="161.13,299.834 159.947,299.991 159.623,299.998 160.016,300.682 161.625,303.897 161.665,303.524 162.157,300.477 162.349,299.592 162.362,299.543 " fill="none" stroke-width="0.5" stroke="rgb(0,0,0)" />
	<polygon points="458.392,291.015 458.197,291.25 458.723,291.335 458.698,291.171 458.611,290.833 " fill="none" stroke-width="0.5" stroke="rgb(0,0,0)" />
	<polygon points="87.3178,288.584 87.3636,288.609 87.3767,288.471 " fill="none" stroke-width="0.5" stroke="rgb(0,0,0)" />
	<polygon points="160.967,251.523 161.432,253.148 161.595,253.816 161.96,255.626 162.033,256.041 162.325,257.97 162.356,258.201 162.601,260.179 162.607,260.232 163.39,257.505 165.031,254.396 165.857,253.399 162.566,252.537 160.351,250.516 " fill="none" stroke-width="0.5" stroke="rgb(0,0,0)" />
	<polygon points="158.013,247.286 158.012,247.297 158.577,247.614 158.992,248.292 158.144,245.954 " fill="none" stroke-width="0.5" stroke="rgb(0,0,0)" />
	<polygon points="327.752,237.109 326.946,237.109 327.655,237.91 329.447,240.903 329.518,240.867 329.646,240.818 329.074,239.466 328.37,237.206 328.338,237.049 " fill="none" stroke-width="0.5" stroke="rgb(0,0,0)" />
	<polygon points="159.126,237.436 159.109,237.616 158.884,239.688 158.875,239.771 158.785,240.529 158.871,240.024 159.018,239.008 159.136,238.001 159.222,237.002 159.275,236.009 159.282,235.656 " fill="none" stroke-width="0.5" stroke="rgb(0,0,0)" />
	<polygon points="159.087,232.639 158.946,231.751 158.483,230.132 158.469,230.098 " fill="none" stroke-width="0.5" stroke="rgb(0,0,0)" />
	<polygon points="157.791,228.692 157.79,228.694 157.921,228.831 157.831,228.622 " fill="none" stroke-width="0.5" stroke="rgb(0,0,0)" />
	<polygon points="311.625,227.621 312.919,228.39 312.479,227.351 " fill="none" stroke-width="0.5" stroke="rgb(0,0,0)" />
	<polygon points="89.6326,215.711 89.9889,216.399 90.5235,217.673 90.7754,218.441 91.0644,219.58 91.201,220.331 92.7136,219.841 93.4425,219.719 96.0651,219.684 96.7088,219.775 98.997,220.433 99.0032,220.349 99.1935,219.08 99.7466,216.647 98.0746,216.831 96.1795,216.829 92.9903,216.473 91.0614,216.029 89.4721,215.463 " fill="none" stroke-width="0.5" stroke="rgb(0,0,0)" />
	<polygon points="432.961,215.444 432.182,215.594 429.635,215.962 432.227,218.112 433.481,219.417 433.869,218.716 436.392,215.062 436.836,214.513 " fill="none" stroke-width="0.5" stroke="rgb(0,0,0)" />
	<polygon points="191.782,215.815 192.123,215.699 192.072,215.641 191.475,215.204 " fill="none" stroke-width="0.5" stroke="rgb(0,0,0)" />
	<polygon points="382.101,203.246 382.359,203.115 382.23,203.01 " fill="none" stroke-width="0.5" stroke="rgb(0,0,0)" />
	<polygon points="107.567,165.669 106.204,166.592 105.018,167.239 103.508,167.879 105.126,168.978 106.009,169.666 109.007,172.332 109.887,173.239 111.864,175.601 111.989,175.371 113.197,173.677 114.583,172.159 114.766,172.006 112.256,169.712 111.059,168.362 108.837,165.251 108.59,164.823 " fill="none" stroke-width="0.5" stroke="rgb(0,0,0)" />
	<polygon points="423.234,145.912 420.493,148.364 419.101,149.365 425.398,151.226 426.986,151.873 431.052,154.027 430.106,150.729 430.007,148.089 429.664,147.97 427.985,147.232 426.459,146.366 425.099,145.398 424.29,144.65 " fill="none" stroke-width="0.5" stroke="rgb(0,0,0)" />
	<polygon points="356.499,144.021 356.806,143.99 358.528,143.99 359.274,144.065 357.524,142.534 356.719,141.695 " fill="none" stroke-width="0.5" stroke="rgb(0,0,0)" />
	<polygon points="312.565,127.263 311.919,127.883 311.446,128.508 311.168,129.038 310.813,130.162 310.407,130.825 311.057,131.007 311.847,131.133 312.834,131.183 313.021,131.177 313.434,131.145 313.972,131.086 314.346,131.038 313.955,130.128 313.826,129.754 313.516,128.605 313.44,128.219 313.296,127.104 313.275,126.774 " fill="none" stroke-width="0.5" stroke="rgb(0,0,0)" />
	<polygon points="186.005,113.513 185.415,114.946 185.079,115.591 184.006,117.186 183.555,117.717 181.915,119.206 181.342,119.606 179.32,120.647 178.616,120.899 176.611,121.354 176.313,121.385 177.178,123.631 179.024,122.347 180.076,121.721 183.196,120.155 184.54,119.617 187.762,118.632 189.391,118.302 190.429,118.194 187.242,114.43 186.961,114.08 186.156,113.023 " fill="none" stroke-width="0.5" stroke="rgb(0,0,0)" />
	<polygon points="90.5431,118.123 89.3051,118.926 86.967,120.173 84.5821,121.023 82.2229,121.487 82.302,122.877 82.3129,123.506 83.8066,122.872 85.1155,122.462 86.8128,122.114 88.2159,121.971 89.9585,121.971 91.3636,122.114 93.0586,122.461 93.4917,122.597 93.0577,119.352 93.0349,119.166 92.7284,116.42 " fill="none" stroke-width="0.5" stroke="rgb(0,0,0)" />
	<polygon points="395.581,103.991 395.972,103.863 395.454,103.799 " fill="none" stroke-width="0.5" stroke="rgb(0,0,0)" />
	<polygon points="102.468,64.8862 102.254,65.0636 100.473,66.4915 99.6481,67.0765 98.6808,67.6803 98.8496,68.4736 98.868,68.6048 99.7608,68.0777 101.819,67.3642 104.402,67.1259 104.348,66.4703 104.325,66.1104 104.212,63.3931 " fill="none" stroke-width="0.5" stroke="rgb(0,0,0)" />
	<polygon points="415.064,65.6762 416.682,66.9756 418.187,67.8898 419.54,68.3989 421.078,68.5929 421.073,68.5753 419.969,67.4352 416.734,65.5214 413.449,64.1606 " fill="none" stroke-width="0.5" stroke="rgb(0,0,0)" />
	<polygon points="127.544,66.7193 128.181,66.062 127.795,65.5255 " fill="none" stroke-width="0.5" stroke="rgb(0,0,0)" />
	<polygon points="398.376,38.6679 399.081,40.3603 399.097,40.417 399.163,40.3841 400.214,39.9411 403.186,38.9146 403.748,38.7416 404.302,38.5919 401.925,37.691 398.034,36.5842 397.107,36.3521 " fill="none" stroke-width="0.5" stroke="rgb(0,0,0)" />
</svg>
