<?xml version="1.0" standalone="no" ?>
<!DOCTYPE svg PUBLIC "-//W3C//DTD SVG 1.1//EN" "http://www.w3.org/Graphics/SVG/1.1/DTD/svg11.dtd">
<svg width="500px" height="500px" xmlns="http://www.w3.org/2000/svg" version="1.1" >
	<polygon points="464.723,280.834 463.942,294.748 461.618,309.423 457.672,324.998 452.076,341.142 444.818,357.544 435.89,373.902 425.291,389.929 413.024,405.347 399.087,419.889 383.477,433.299 366.181,445.328 347.174,455.736 326.413,464.283 303.842,470.72 279.391,474.788 252.979,476.211 227.251,474.869 203.315,471.017 181.135,464.905 160.662,456.767 141.857,446.827 124.691,435.3 109.151,422.405 95.2326,408.361 82.9411,393.397 72.2858,377.75 63.2771,361.664 55.9238,345.396 50.2303,329.21 46.194,313.379 43.8003,298.188 42.9905,283.463 42.9905,35.5526 49.9974,35.4988 61.4891,35.4107 61.4891,35.4107 72.9808,35.3225 95.9641,35.1461 95.9641,35.1461 107.456,35.058 118.947,34.9698 130.439,34.8816 141.931,34.7934 153.423,34.7052 164.914,34.6171 176.406,34.5289 187.898,34.4407 194.625,34.3891 194.607,43.9307 194.581,56.8295 194.556,69.7283 194.556,69.7283 194.53,82.6271 194.479,108.425 194.479,108.425 194.454,121.323 194.403,147.121 194.403,147.121 194.378,160.02 194.352,172.919 194.352,172.919 194.327,185.817 194.301,198.716 194.276,211.615 194.276,211.615 194.25,224.514 194.251,224.67 194.338,235.964 194.339,236.085 194.504,246.902 194.509,247.121 194.806,257.427 194.819,257.762 195.304,267.524 195.334,267.997 196.062,277.181 196.126,277.823 197.153,286.396 197.277,287.244 198.658,295.172 198.888,296.269 200.678,303.519 201.087,304.908 203.341,311.447 204.041,313.152 206.815,318.946 207.946,320.934 211.295,325.95 212.992,328.078 216.972,332.282 219.256,334.28 223.922,337.64 226.614,339.207 232.021,341.689 234.787,342.664 240.99,344.234 243.52,344.663 250.574,345.287 251.947,329.779 253.018,345.312 260.279,344.811 262.822,344.43 269.169,342.952 272.002,342.008 277.498,339.59 280.298,338.006 285.004,334.685 287.393,332.619 291.371,328.43 293.134,326.212 296.447,321.193 297.603,319.126 300.312,313.313 301.009,311.557 303.177,304.988 303.572,303.575 305.261,296.286 305.475,295.188 306.747,287.215 306.857,286.381 307.773,277.761 307.827,277.144 308.45,267.914 308.473,267.473 308.865,257.67 308.874,257.374 309.096,247.034 309.099,246.859 309.214,236.019 309.215,235.948 309.285,224.645 309.285,224.513 309.259,211.615 309.233,198.716 309.182,172.918 309.182,172.918 309.156,160.019 309.104,134.222 309.104,134.222 309.078,121.323 309.001,82.6266 309.001,82.6265 308.975,69.7277 308.903,34.1615 316.381,34.1134 328.135,34.0378 339.888,33.9623 351.641,33.8867 363.394,33.8111 375.148,33.7356 386.901,33.66 410.407,33.5089 422.161,33.4333 433.914,33.3578 445.667,33.2822 457.42,33.2067 464.723,33.1597 " fill="none" stroke-width="0.5" stroke="rgb(0,0,0)" />
</svg>
