<?xml version="1.0" standalone="no" ?>
<!DOCTYPE svg PUBLIC "-//W3C//DTD SVG 1.1//EN" "http://www.w3.org/Graphics/SVG/1.1/DTD/svg11.dtd">
<svg width="500px" height="500px" xmlns="http://www.w3.org/2000/svg" version="1.1" >
	<polygon points="480.823,26.8658 480.678,26.9679 479.859,27.7467 479.175,28.6031 478.626,29.4985 478.218,30.3765 477.954,31.16 477.829,31.74 477.808,31.9986 477.953,33.9093 478.381,35.9858 479.074,38.432 479.931,41.2827 479.976,41.4412 480.823,44.6119 480.823,71.286 477.567,78.9899 476.774,80.3025 471.459,86.7744 470.458,87.7148 463.425,92.7991 462.466,93.3511 454.117,97.0671 454.215,97.0661 455.523,97.1761 456.551,97.3649 457.634,97.6757 458.747,98.1365 459.62,98.6192 460.184,99.0266 462.669,97.0521 465.653,96.8098 468.138,97.3203 469.077,97.605 471.173,98.457 472.144,98.9738 473.867,100.133 474.747,100.874 476.116,102.306 476.799,103.188 477.832,104.857 478.28,105.764 478.996,107.636 479.24,108.477 479.656,110.519 479.754,111.256 479.888,113.432 479.835,114.583 479.085,119.415 478.689,120.764 476.898,124.802 476.969,124.806 478.621,125.726 480.104,126.945 480.823,127.795 480.823,183.856 480.689,184.36 480.332,185.323 479.004,188.058 477.2,190.146 475.621,191.22 471.335,191.991 468.001,191.172 466.609,190.614 462.039,187.983 461.441,187.583 456.118,183.478 455.726,183.145 450.974,178.69 451.968,180.053 452.029,180.138 456.074,185.918 458.46,187.323 458.473,187.331 462.535,189.738 462.794,189.902 467.183,192.854 467.616,193.179 471.985,196.809 472.54,197.343 476.542,201.785 477.134,202.578 480.422,207.964 480.823,208.817 480.823,239.466 480.572,240.126 480.185,240.931 476.666,246.923 476.401,247.33 472.216,253.166 472.15,253.256 469.684,256.548 469.97,256.435 472.901,255.817 474.559,255.731 476.028,255.884 477.268,256.165 478.527,256.613 479.771,257.25 480.823,257.976 480.823,281.286 480.459,287.777 479.848,288.972 479.583,289.432 477.391,292.838 477.053,293.306 474.475,296.494 474.043,296.968 471.084,299.842 468.743,301.015 470.706,303.585 471.197,304.356 473.112,308.023 473.427,308.753 474.871,312.933 475.061,313.636 475.973,318.218 475.982,318.284 473.11,329.62 467.07,347.047 459.27,364.67 458.858,365.425 456.304,367.948 453.425,369.418 450.225,368.962 447.872,366.746 447.273,365.054 446.156,358.609 443.911,355.063 440.408,352.336 435.67,349.96 430.47,347.646 429.94,347.373 425.31,344.659 424,343.579 420.728,339.862 419.531,337.531 418.29,332.157 418.175,330.472 418.207,330.112 417.46,330.61 416.196,330.958 415.351,331.119 413.564,331.313 413.377,331.33 411.413,331.473 411.061,331.51 411.081,331.637 411.327,333.024 411.583,334.446 411.597,334.529 411.821,335.898 411.85,336.099 412.008,337.369 412.042,337.747 412.102,338.876 412.107,339.314 412.098,339.648 412.072,340.037 412.038,340.372 411.954,340.918 411.887,341.24 411.674,341.986 411.566,342.282 411.238,342.957 411.521,342.923 412.608,342.905 417.956,343.361 418.857,343.516 424.151,344.903 425.054,345.228 430.091,347.573 430.982,348.098 435.559,351.43 436.387,352.176 440.301,356.523 440.982,357.47 444.03,362.861 444.488,363.928 446.466,370.391 446.677,371.46 447.382,379.022 447.337,380.367 446.189,387.515 438.331,399.399 425.161,415.952 410.17,431.593 404.609,436.371 403.439,436.507 401.923,436.252 400.526,435.814 399.033,435.108 398.1,434.545 396.685,433.479 396.043,432.91 394.761,431.574 394.282,430.999 393.189,429.484 392.799,428.855 391.95,427.25 391.618,426.482 391.068,424.877 390.823,423.828 390.628,422.312 390.594,421.294 390.624,420.82 390.733,420.029 390.84,419.529 391.123,418.618 391.285,418.223 389.079,417.988 388.113,417.794 384.552,416.729 383.797,416.439 380.458,414.86 379.844,414.518 376.846,412.582 376.671,412.453 376.695,412.578 376.793,413.597 376.793,417.615 376.792,417.74 376.775,418.464 376.759,418.762 376.703,419.477 376.659,419.852 376.63,420.044 379.407,419.296 380.977,419.48 382.104,419.737 383.736,420.302 384.738,420.769 386.35,421.735 387.224,422.389 388.73,423.777 389.447,424.585 390.765,426.415 391.291,427.322 392.336,429.613 392.661,430.544 393.349,433.319 393.492,434.204 393.74,437.481 393.675,438.809 392.561,445.162 392.076,446.632 391.847,447.088 374.668,459.037 354.126,470.285 331.702,479.516 329.552,480.129 327.221,479.924 326.228,479.741 323.109,478.855 322.114,478.461 319.451,477.085 318.535,476.485 316.336,474.699 315.565,473.93 313.839,471.816 313.251,470.928 312.007,468.569 311.613,467.603 310.86,465.08 310.662,464.067 310.409,461.462 310.395,460.596 310.637,456.911 310.718,456.27 311.389,452.706 311.523,452.157 312.546,448.751 312.71,448.286 313.255,446.936 312.793,447.05 311.97,447.185 311.757,447.203 311.551,447.799 310.399,451.895 310.349,452.063 308.84,456.825 308.65,457.331 306.617,462.037 306.132,462.92 303.365,466.993 302.211,468.22 298.503,471.085 296.396,472.074 295.237,472.332 295.364,472.331 297.262,472.258 298.574,472.161 299.474,472.057 300.202,471.946 300.897,471.836 301.145,471.802 301.861,471.723 302.263,471.694 303.127,471.664 303.739,471.678 304.61,471.748 305.664,471.939 306.333,472.132 307.57,472.665 308.064,472.956 309.235,473.89 309.58,474.255 310.405,475.399 310.627,475.814 311.055,476.867 311.182,477.306 311.346,478.102 311.402,478.541 311.443,479.055 311.456,479.469 311.273,481.032 310.875,482.504 309.905,484.429 308.727,485.918 308.506,486.132 307.382,486.452 281.151,490.817 271.687,491.327 271.142,491.069 268.972,489.824 268.251,489.328 266.425,487.836 265.784,487.217 264.361,485.592 261.538,487.03 261.238,487.171 257.073,488.977 256.761,489.101 252.335,490.698 252.001,490.806 247.666,492.056 225.548,490.902 199.887,486.773 189.338,483.866 185.636,481.575 185.354,481.387 180.592,478.005 176.529,475.15 173.152,473.25 170.793,472.571 167.534,472.248 163.348,472.016 163.023,471.988 158.271,471.433 157.566,471.302 152.355,469.968 151.473,469.658 145.796,467.086 144.952,466.607 138.799,462.334 138.127,461.781 131.49,455.348 129.958,452.502 130.344,449.292 130.912,448.663 127.311,448.986 126.255,448.977 115.49,447.809 114.359,447.561 114.182,447.501 98.2672,434.295 83.2685,419.161 73.8054,407.64 73.7953,407.597 72.9478,400.815 72.9235,399.725 73.333,394.597 73.4153,394.087 70.6218,395.001 66.7368,393.38 64.873,391.462 61.5067,389.122 59.6981,387.869 58.5824,386.23 48.8916,368.927 40.9666,351.394 36.2097,337.87 36.8516,331.806 37.0624,330.783 40.0308,321.222 40.3354,320.456 44.532,311.886 44.8055,311.395 46.1391,309.271 45.1808,309.942 43.508,310.724 41.3916,311.297 38.3889,311.236 36.4198,310.616 34.2429,309.296 32.4243,307.478 31.5245,306.282 29.891,303.326 29.525,302.508 28.1111,298.475 27.9456,297.903 27.5704,296.269 26.8905,283.906 26.8905,248.905 28.0056,243.432 28.1127,243 29.5589,238.052 29.7885,237.417 31.4502,233.599 32.071,232.53 33.9095,230.072 36.038,228.379 36.5126,228.17 34.9165,227.984 33.5469,227.636 31.315,226.741 30.0075,225.987 28.0906,224.486 27.114,223.491 26.8905,223.194 26.8905,198.28 28.113,198.187 29.0125,198.792 28.6731,197.978 28.3908,197.091 27.8182,194.539 27.7008,193.732 27.5022,190.826 27.4898,190.456 27.4901,190.13 27.4902,190.097 27.4926,189.771 27.4934,189.705 27.4998,189.379 27.5026,189.281 27.5149,188.954 27.5214,188.824 27.5417,188.497 27.5542,188.336 27.5845,188.007 27.6056,187.817 27.648,187.488 27.6806,187.27 27.737,186.94 28.5834,185.299 28.3534,185.031 27.842,184.323 27.5037,183.764 27.0693,182.866 26.8905,182.387 26.8905,176.958 26.8945,176.946 27.0143,176.605 27.1047,176.373 27.2514,176.032 27.3558,175.811 27.4145,175.697 27.8747,174.43 28.3466,171.948 28.9786,168.347 29.0423,168.038 30.0184,163.921 30.1883,163.348 31.7604,158.966 32.1033,158.203 34.5298,153.77 35.1045,152.924 38.6438,148.656 39.4407,147.877 41.1605,146.515 41.0711,146.514 38.3377,146.259 37.3359,146.067 34.8004,145.327 33.8355,144.94 31.5493,143.753 30.6647,143.177 28.679,141.583 27.9163,140.834 26.8905,139.602 26.8905,115.483 27.291,114.936 27.8264,114.312 29.4226,112.719 30.0474,112.184 31.9669,110.782 32.6477,110.359 34.9006,109.184 38.0845,108.625 41.0094,110.002 41.3087,110.528 41.3639,110.24 42.0125,108.022 42.3905,107.076 43.2339,105.437 41.9391,105.943 40.963,106.221 36.9379,106.965 35.6474,107.044 34.9551,107.003 34.2347,106.91 33.6012,106.785 32.7621,106.546 32.1978,106.335 31.2623,105.875 30.7775,105.576 29.8323,104.832 29.4372,104.442 28.6318,103.426 28.3368,102.943 27.8057,101.783 27.6212,101.206 27.3907,100.081 27.3269,99.4072 27.5659,97.2461 28.8493,93.3044 29.4745,92.0089 32.8581,86.8944 33.1769,86.4614 34.7187,84.5743 32.6839,85.0622 30.6101,85.1454 30.0112,85.0518 28.3189,84.486 27.8257,84.2228 26.8905,83.5201 26.8905,64.5801 27.4894,63.6725 28.0808,62.9293 28.7842,62.1907 29.4437,61.6038 30.4237,60.8672 31.1453,60.4101 31.3662,60.2938 28.6424,59.7178 26.8905,58.745 26.8905,45.4349 28.3315,44.0246 28.9127,43.5318 32.8033,40.6826 33.0634,40.5036 37.5235,37.6256 37.5943,37.5806 42.0006,34.8341 43.0659,34.1345 39.5764,33.2708 39.548,33.2637 35.2486,32.1745 34.9548,32.0911 31.2043,30.9095 30.3977,30.581 27.7449,29.2396 26.8905,28.4684 26.8905,19.5757 38.3822,19.4875 49.8739,19.3993 61.3656,19.3111 72.8572,19.223 76.7334,19.1932 77.5045,19.6368 79.5284,21.7026 80.4988,23.4729 80.8221,27.909 80.0181,30.0716 78.8223,31.9541 76.7025,34.1145 76.0083,34.7104 73.0114,36.8666 72.7249,37.059 69.2895,39.2089 69.2814,39.2139 65.9838,41.2693 65.2291,41.8059 66.1579,41.9782 70.7375,42.4558 72.3762,42.6127 72.3289,42.4631 72.2656,42.0373 72.9375,38.5534 73.6959,37.2546 75.5758,35.3573 77.5752,34.165 78.2852,33.8102 81.112,32.6507 81.2841,32.5836 84.4476,31.4119 87.3562,30.2321 88.5136,29.617 87.8917,29.4077 87.8728,29.4013 86.5586,28.9536 85.7446,28.5984 84.815,28.0972 82.6236,25.8869 82.271,25.2193 81.6953,22.0383 82.2359,20.2892 82.527,19.7187 83.048,19.1448 84.3489,19.1348 95.8406,19.0466 107.332,18.9584 112.337,18.92 112.907,19.4498 114.522,21.2483 114.649,21.3955 115.936,22.9381 116.831,23.7733 117.528,24.1324 118.804,24.3161 120.024,24.1415 120.772,23.768 121.745,22.913 123.114,21.4031 123.251,21.2567 124.947,19.5219 125.636,18.9274 125.789,18.8168 130.316,18.7821 141.807,18.6939 153.299,18.6057 153.431,18.6047 154.05,19.1962 154.289,19.5883 155.06,22.7278 154.603,24.5641 154.235,25.3831 152.432,27.5686 151.463,28.2502 150.639,28.7263 149.269,29.3627 149.15,29.4163 147.756,30.023 147.318,30.2527 149.095,31.5707 151.733,33.2189 154.553,34.9234 154.77,35.0623 156.172,36.005 155.894,35.4861 154.979,32.8852 155.217,28.7616 156.27,26.6043 157.948,24.6119 160.862,22.5098 161.805,21.9664 166.214,19.9911 166.766,19.7794 170.843,18.4711 176.282,18.4294 187.774,18.3412 210.562,18.1663 210.757,18.5346 210.744,24.7556 210.157,25.8359 208.436,27.7244 206.085,29.3001 205.337,29.7191 202.029,31.2366 203.721,31.1819 203.954,31.1795 205.553,31.1973 205.847,31.2086 207.232,31.3002 207.878,31.3826 209.049,31.6053 210.16,31.9448 210.73,32.1892 210.706,43.9624 210.686,54.5377 210.684,54.5388 208.821,55.2477 207.804,55.4288 206.128,55.4605 203.98,55.1613 203.063,54.9499 201.678,54.4991 203.8,56.6665 204.009,56.8927 208.561,62.1115 208.994,62.6807 210.665,65.2119 210.656,69.76 210.631,82.0627 210.57,82.1133 209.841,82.5979 208.944,83.0779 208.073,83.4417 207.199,83.7219 206.196,83.9506 205.382,84.0713 204.254,84.1507 203.336,84.1364 199.355,83.731 198.708,83.6248 194.019,82.5562 193.693,82.4712 190.431,81.5085 192.538,82.8821 192.746,83.0248 197.631,86.5488 197.782,86.6617 202.585,90.3905 202.727,90.5046 207.022,94.0798 207.203,94.2374 210.564,97.3008 210.601,97.3375 210.579,108.456 210.555,120.901 210.324,121.161 209.257,122.084 208.093,122.849 206.283,123.607 205.015,123.88 203.835,123.703 204.124,123.854 207.012,125.865 207.961,126.709 210.297,129.346 210.537,129.683 210.503,147.153 210.478,160.052 210.47,163.641 209.745,164.169 210.214,167.254 209.711,170.205 209.494,171.053 208.532,173.838 208.174,174.651 206.786,177.199 206.276,177.968 204.495,180.21 203.82,180.916 201.679,182.781 200.831,183.386 198.363,184.805 197.358,185.252 194.595,186.155 194.499,186.175 197.028,186.794 197.906,187.091 200.669,188.303 201.544,188.789 203.943,190.433 204.769,191.132 206.742,193.178 207.449,194.09 208.935,196.507 209.442,197.588 210.379,200.346 210.398,200.432 210.379,209.785 210.148,210.688 210.03,211.085 209.545,212.513 209.417,212.85 208.825,214.269 208.695,214.558 208.01,215.958 207.88,216.208 207.118,217.58 206.989,217.799 206.163,219.131 203.71,221.236 201.234,221.472 204.275,223.775 204.679,224.113 207.415,226.645 207.803,227.042 210.157,229.723 210.393,230.025 210.438,235.84 210.602,246.657 210.899,256.963 210.99,258.787 210.967,258.821 208.658,261.827 208.538,261.977 206.308,264.676 204.615,266.928 203.762,268.523 203.578,269.455 203.769,270.436 204.462,271.56 206.015,273.13 208.299,275.054 208.391,275.133 210.861,277.312 211.356,277.81 212.496,279.119 213.138,284.482 214.519,292.41 215.598,296.782 214.536,299.378 214.256,299.96 213.619,301.103 216.389,300.942 216.848,301.227 218.563,306.2 221.336,311.994 224.685,317.011 228.665,321.215 233.33,324.575 238.737,327.056 244.939,328.626 245.939,328.714 247.1,330.25 247.65,331.15 249.16,334.274 249.494,335.158 250.407,338.419 250.558,339.152 251.009,342.521 251.053,343.043 251.128,345.19 251.757,343.143 252.15,342.198 256.756,333.559 257.314,332.715 260.826,328.364 265.518,327.271 271.013,324.853 275.719,321.532 279.698,317.343 283.01,312.324 283.257,311.796 287.683,310.401 285.557,308.447 285.322,307.365 285.72,306.511 287.567,300.915 287.762,300.731 288.761,299.672 289.592,298.624 290.27,297.546 290.819,296.366 291.248,294.993 291.539,293.328 291.652,291.224 291.625,290.221 291.543,289.133 291.418,287.985 291.265,286.753 291.264,286.745 291.105,285.455 291.094,285.357 290.956,284.031 290.94,283.854 290.938,283.826 291.763,276.06 291.866,274.536 292.104,273.918 292.576,272.978 293.277,271.871 294.022,270.942 294.886,270.081 295.882,269.299 296.894,268.684 298.03,268.164 299.173,267.795 300.296,267.562 301.554,267.439 302.979,267.49 304.304,267.718 300.401,265.357 299.686,264.839 295.599,261.331 294.553,260.117 292.768,257.275 292.778,257.028 293,246.688 293.115,235.848 293.141,231.7 293.606,230.558 293.708,230.322 295.077,227.375 295.176,227.172 296.81,224.011 298.163,222.653 297.513,222.212 296.035,220.988 295.326,220.279 294.103,218.8 293.533,217.962 293.171,217.301 293.159,211.647 293.141,202.47 293.533,201.755 294.101,200.918 295.325,199.438 296.031,198.73 297.51,197.503 298.347,196.933 300.037,196.003 300.999,195.591 302.219,195.204 302.121,195.137 301.085,194.282 300.369,193.565 299.513,192.53 298.94,191.683 298.293,190.496 297.884,189.532 297.475,188.222 297.258,187.168 297.115,185.764 297.115,184.679 297.258,183.278 297.475,182.222 297.885,180.914 298.294,179.95 298.941,178.764 299.514,177.917 300.37,176.882 301.086,176.166 302.122,175.311 302.968,174.739 304.154,174.092 305.117,173.684 306.425,173.275 307.479,173.058 308.879,172.915 309.962,172.915 311.369,173.058 312.421,173.273 313.733,173.682 314.254,173.902 314.43,173.037 314.817,171.793 315.223,170.829 315.826,169.716 315.316,169.653 314.904,169.586 312.7,169.137 312.332,169.049 310.484,168.535 310.188,168.443 309.36,168.16 309.239,168.462 309.088,168.807 308.589,169.841 307.887,170.933 307.297,171.643 304.736,173.344 303.987,173.571 300.338,173.375 298.852,172.743 297.307,171.741 295.894,170.429 295.12,169.53 293.818,167.629 293.409,166.92 293.068,166.209 293.056,160.052 293.004,134.254 293.003,133.614 293.43,132.778 293.691,132.324 294.786,130.616 297.272,128.549 297.273,128.549 297.051,127.88 296.986,127.669 296.778,126.944 296.719,126.72 296.539,125.975 296.487,125.735 296.341,124.973 296.297,124.713 296.188,123.94 296.155,123.658 296.086,122.876 296.068,122.569 296.044,121.784 296.061,121.168 296.312,118.225 296.462,117.34 297.231,114.364 297.545,113.48 298.859,110.603 299.367,109.721 301.253,107.074 301.988,106.241 304.472,103.954 305.42,103.257 308.531,101.461 309.613,100.986 311.821,100.297 311.694,99.8925 311.556,99.3517 311.482,99.0144 311.35,98.3131 311.301,97.998 311.098,96.3906 310.879,94.7013 310.824,94.3501 308.75,96.183 308.715,96.2132 306.314,98.2997 306.145,98.4398 303.868,100.26 303.438,100.571 301.451,101.858 300.168,102.465 298.638,102.953 296.973,103.207 296.736,103.205 296.439,103.194 296.248,103.182 295.45,103.071 295.299,103.039 293.826,102.482 293.712,102.418 292.939,101.754 292.916,90.2325 294.155,87.8278 294.219,87.7073 295.821,84.784 297.387,81.9181 298.183,80.3593 296.184,80.1447 295.846,80.0975 293.942,79.7691 292.894,79.469 292.875,69.76 292.865,65.0393 293.514,64.5455 293.729,64.3897 295.873,62.9194 297.828,61.5273 298.377,61.0601 296.957,60.3862 294.921,59.4677 294.589,59.304 292.852,58.3713 292.824,44.6761 294.262,43.8625 294.417,43.7783 296.326,42.7796 297.877,41.9292 296.3,39.5028 294.348,36.6414 294.328,36.6124 292.804,34.3469 292.797,31.0636 292.771,18.1648 298.28,18.1294 300.784,19.178 301.167,19.3566 304.453,21.0491 304.562,21.1069 308.014,22.9871 310.545,24.3232 310.551,24.0691 310.555,23.2241 310.559,23.0502 310.598,21.993 310.631,21.5607 310.742,20.6258 310.823,20.1387 310.996,19.3318 311.15,18.7635 311.374,18.0904 311.392,18.0451 316.278,18.0137 325.46,17.9547 325.763,18.2699 326.854,19.3691 327.411,19.858 327.505,19.8458 329.226,19.3481 331.687,18.4793 333.296,17.9043 339.784,17.8626 351.538,17.787 363.291,17.7115 371.29,17.6601 378.028,20.7516 378.962,21.3013 385.172,25.8596 386.023,26.6383 391.079,32.3844 391.754,33.3472 395.526,40.2298 395.964,41.2827 397.197,45.4493 398.627,44.2899 400.621,43.2886 401.275,43.0131 404.247,41.9865 404.597,41.8789 408.258,40.8887 408.507,40.8277 412.57,39.9356 412.794,39.8915 413.442,39.7778 412.074,38.7581 407.414,36.2961 402.948,34.6029 398.873,33.444 395.479,32.5945 395.08,32.4778 392.785,31.7096 390.471,30.1758 389.643,29.2373 388.337,26.2803 389.599,22.2095 390.225,21.4815 391.999,20.1311 393.76,19.3005 394.409,19.0446 397.128,18.1729 397.497,18.069 399.937,17.4759 410.304,17.4092 422.057,17.3337 433.81,17.2581 435.652,17.2463 436.779,17.6195 437.641,17.9912 440.285,19.4192 441.352,20.1778 443.378,22.0295 444.435,23.3634 445.732,25.6777 445.951,26.306 446.367,24.8296 446.758,23.8345 447.83,21.7478 448.439,20.815 449.881,19.0436 450.681,18.2491 452.062,17.1408 457.317,17.107 469.07,17.0314 480.823,16.9559 " fill="none" stroke-width="0.5" stroke="rgb(0,0,0)" />
	<polygon points="187.837,439.351 188.175,440.014 190.161,444.672 190.42,445.435 191.3,448.848 192.377,449.166 193.925,449.507 195.593,449.775 197.216,449.944 198.602,449.998 200.457,449.896 202.256,449.58 203.91,449.038 205.341,448.28 206.533,447.298 207.525,446.014 208.33,444.248 208.969,441.298 209.568,440.252 209.403,440.277 202.719,440.776 201.901,440.775 195.683,440.286 194.777,440.135 189.581,438.808 188.66,438.48 186.792,437.616 " fill="none" stroke-width="0.5" stroke="rgb(0,0,0)" />
	<polygon points="258.325,447.801 257.99,447.841 257.843,447.879 257.71,447.935 257.431,448.103 256.927,448.496 256.439,448.952 256.54,448.953 256.927,448.974 257.355,449.012 257.958,449.101 258.463,449.205 259.217,449.419 259.772,449.621 260.241,449.84 259.926,449.122 259.638,448.64 259.343,448.264 259.071,447.999 258.858,447.845 258.757,447.793 258.721,447.789 " fill="none" stroke-width="0.5" stroke="rgb(0,0,0)" />
	<polygon points="163.227,404.197 163.966,413.7 163.97,414.48 163.649,419.164 163.543,419.921 162.481,424.87 162.225,425.716 160.27,430.657 159.793,431.585 156.794,436.243 156.036,437.172 151.841,441.272 150.82,442.054 145.278,445.322 144.131,445.828 140.993,446.792 141.717,446.824 142.684,446.848 143.459,446.854 148.543,446.53 152.65,445.65 155.927,444.313 158.446,442.615 160.329,440.589 161.689,438.172 162.555,435.251 162.883,431.563 162.88,431.3 162.862,430.806 162.832,430.286 162.793,429.746 162.745,429.192 162.69,428.627 162.631,428.056 162.566,427.475 163.199,424.305 165.542,422.078 170.225,422.077 172.327,423.1 172.892,423.418 173.185,423.608 172.885,422.534 172.572,420.551 172.527,419.247 172.56,418.879 172.765,417.809 172.861,417.49 173.361,416.338 173.519,416.068 174.32,415.016 174.537,414.794 175.512,414.008 175.787,413.836 176.76,413.354 177.09,413.231 177.949,412.989 178.269,412.927 176.932,412.518 176.451,412.346 173.667,411.194 173.229,410.989 170.593,409.608 170.175,409.364 167.748,407.797 167.328,407.496 165.171,405.788 164.73,405.397 163.172,403.856 " fill="none" stroke-width="0.5" stroke="rgb(0,0,0)" />
	<polygon points="326.41,414.628 325.345,415.113 315.84,418.246 314.709,418.487 310.718,418.895 311.677,419.766 312.449,420.812 313.145,422.085 313.639,423.383 313.856,424.1 314.186,425.552 314.229,425.759 314.487,427.145 314.717,428.118 314.731,428.154 315.271,428.538 315.298,428.557 316.206,429.211 316.542,429.474 317.408,430.209 318.006,430.804 318.74,431.659 319.46,432.741 319.968,433.752 320.285,434.74 321.116,433.69 321.281,433.492 322.002,432.665 322.141,432.512 322.86,431.749 323.053,431.555 323.768,430.871 324.038,430.629 324.747,430.037 325.13,429.745 325.831,429.26 326.381,428.927 327.071,428.563 327.856,428.226 328.534,427.997 329.609,427.754 330.273,427.675 330.97,427.7 330.945,427.677 329.943,426.475 328.904,424.499 328.554,423.257 328.354,421.809 328.354,413.773 328.404,413.439 " fill="none" stroke-width="0.5" stroke="rgb(0,0,0)" />
	<polygon points="242.927,409.487 242.944,409.784 242.968,410.643 242.906,411.623 242.128,416.599 241.672,418.073 239.466,422.703 238.77,423.798 235.331,427.985 234.575,428.738 230.097,432.383 229.351,432.893 228.639,433.295 232.019,431.7 236.617,428.565 240.433,424.912 243.452,420.817 245.655,416.344 247.153,411.077 247.617,410.375 247.558,410.381 246.288,410.349 245.35,410.214 244.074,409.864 243.207,409.506 242.916,409.357 " fill="none" stroke-width="0.5" stroke="rgb(0,0,0)" />
	<polygon points="255.755,394.284 255.669,394.499 255.687,394.524 256.062,395.159 256.435,395.924 256.708,396.619 256.953,397.424 257.12,398.182 257.233,398.966 257.29,399.79 257.278,400.66 257.183,401.671 256.986,402.688 256.71,403.619 256.313,404.596 255.873,405.429 255.285,406.316 254.698,407.036 254.187,407.547 254.239,407.555 257.087,408.663 257.536,408.862 260.396,410.289 260.744,410.479 263.526,412.135 263.816,412.321 266.434,414.117 266.699,414.311 269.063,416.157 269.334,416.383 271.356,418.188 271.671,418.492 272.377,419.235 272.88,419.125 273.115,419.079 274.4,418.857 274.622,418.824 275.957,418.651 276.168,418.628 277.551,418.505 277.75,418.491 279.182,418.417 279.369,418.41 280.851,418.386 281.065,418.386 283.196,418.436 283.435,418.447 285.638,418.597 285.863,418.617 288.144,418.87 288.354,418.897 290.719,419.254 290.913,419.287 293.367,419.751 293.546,419.788 296.096,420.36 296.258,420.4 296.911,420.568 296.968,420.47 297.474,419.793 298.102,419.156 291.064,418.44 289.942,418.202 279.858,414.903 278.796,414.422 270.19,409.329 269.286,408.656 262.185,402.1 261.482,401.308 255.955,393.681 " fill="none" stroke-width="0.5" stroke="rgb(0,0,0)" />
	<polygon points="195.457,413.024 195.465,413.023 195.469,413.019 " fill="none" stroke-width="0.5" stroke="rgb(0,0,0)" />
	<polygon points="348.068,394.605 347.575,395.429 343.223,401.405 343.302,401.381 343.928,401.233 347.867,400.548 348.485,400.477 352.993,400.225 353.484,400.22 357.278,400.357 357.704,400.39 361.174,400.794 361.675,400.877 364.767,401.538 365.38,401.708 368.036,402.618 368.773,402.937 368.353,401.276 368.611,397.884 368.886,397.234 368.05,397.549 362.854,398.713 360.488,398.707 359.337,398.443 357.52,397.648 356.443,396.914 355.431,396.017 354.452,394.898 353.899,394.142 353.043,392.724 352.716,392.092 352.007,390.463 351.797,389.894 351.26,388.138 351.236,388.042 " fill="none" stroke-width="0.5" stroke="rgb(0,0,0)" />
	<polygon points="226.107,383.803 217.839,386.234 216.803,386.43 206.987,387.302 205.927,387.291 197.73,386.386 197.613,386.36 199.395,388.765 199.798,389.398 201.636,392.783 201.967,393.52 203.108,396.685 203.369,397.727 203.762,400.413 203.768,400.826 204.597,399.09 204.994,398.397 207.814,394.227 209.047,392.936 213.002,389.986 215.168,389.026 220.853,387.907 222.295,387.822 223.341,387.902 223.96,387.986 225.209,388.231 225.704,388.353 226.807,388.681 226.748,388.464 226.53,387.476 226.422,386.755 226.339,385.735 226.34,384.862 226.428,383.795 226.451,383.66 " fill="none" stroke-width="0.5" stroke="rgb(0,0,0)" />
	<polygon points="311.344,391.217 311.078,391.315 308.322,392.242 307.922,392.36 304.71,393.169 304.219,393.268 300.512,393.841 299.969,393.896 295.727,394.113 295.079,394.107 291.566,393.861 290.84,393.76 287.45,393.048 286.738,392.846 284.347,391.986 286.018,393.191 291.289,395.696 297.36,397.337 304.309,397.94 307.731,397.798 310.813,397.392 313.372,396.785 313.688,396.668 311.755,393.977 311.5,393.145 311.382,391.202 " fill="none" stroke-width="0.5" stroke="rgb(0,0,0)" />
	<polygon points="119.67,351.512 117.887,352.762 117.081,353.228 115.409,354.01 115.417,354.126 115.445,356.48 115.354,357.533 114.942,359.722 114.635,360.762 113.819,362.754 113.306,363.714 112.185,365.38 115.568,364.44 116.518,364.266 120.769,363.882 121.838,363.892 129.514,364.74 130.681,365.004 137.765,367.463 138.831,367.971 145.189,371.917 146.083,372.613 151.584,377.92 152.274,378.734 155.152,382.91 154.964,381.829 154.322,379.161 153.35,376.883 151.954,374.723 150.077,372.668 147.653,370.73 144.619,368.943 140.928,367.36 136.368,365.981 132.682,364.979 132.41,364.897 129.457,363.923 129.054,363.772 126.814,362.827 126.222,362.533 124.601,361.599 123.785,361.021 122.688,360.078 121.767,359.052 121.099,358.082 120.421,356.708 120.09,355.692 119.845,354.475 119.755,353.393 119.816,352.038 119.948,351.277 " fill="none" stroke-width="0.5" stroke="rgb(0,0,0)" />
	<polygon points="245.685,367.051 245.144,367.951 241.077,373.417 240.312,374.246 238.944,375.446 239.248,375.519 240.276,375.898 241.4,376.471 242.284,377.063 243.162,377.798 243.905,378.57 244.523,379.343 244.601,379.462 244.675,379.455 245.242,379.429 246.015,379.451 247.261,379.576 248.363,379.806 249.469,380.162 250.292,380.527 248.644,374.446 248.479,373.524 247.664,364.438 247.67,363.422 247.741,362.718 " fill="none" stroke-width="0.5" stroke="rgb(0,0,0)" />
	<polygon points="77.4789,367.525 78.3612,369.756 79.6154,378.038 79.4818,379.488 79.4987,379.464 81.8868,376.595 82.4403,376.022 84.9488,373.788 85.6429,373.264 88.1221,371.693 89.0732,371.215 91.0539,370.456 90.9818,370.425 89.2645,369.46 88.4156,368.868 86.9299,367.602 86.2276,366.879 84.9927,365.341 84.698,364.898 84.5746,364.925 84.3399,364.972 83.5201,365.116 83.2931,365.151 82.4515,365.262 81.8083,365.308 79.4949,365.332 78.4322,365.237 76.2339,364.817 75.4583,364.588 " fill="none" stroke-width="0.5" stroke="rgb(0,0,0)" />
	<polygon points="101.098,371.789 100.205,371.908 97.9089,372.017 97.3911,371.995 98.4454,375.628 98.658,375.265 99.3042,374.384 101.786,371.638 " fill="none" stroke-width="0.5" stroke="rgb(0,0,0)" />
	<polygon points="168.169,364.701 169.157,368.22 169.175,368.285 170.03,371.486 170.776,374.023 171.306,375.372 171.433,375.411 171.75,375.479 172.105,375.531 172.461,375.561 172.825,375.571 173.31,375.565 173.844,375.548 174.388,375.522 174.943,375.49 175.497,375.457 175.524,375.456 176.058,375.427 176.131,375.423 176.637,375.403 176.766,375.399 176.908,375.397 174.994,373.728 174.337,373.044 169.711,367.282 169.191,366.503 168.127,364.56 " fill="none" stroke-width="0.5" stroke="rgb(0,0,0)" />
	<polygon points="354.403,361.924 353.714,362.751 351.52,364.9 351.494,364.92 352.912,365.38 354.852,367.965 355.124,370.281 354.608,375.289 355.366,374.777 356.07,374.376 357.318,373.786 357.872,373.561 359.441,373.023 359.859,372.899 361.589,372.46 366.281,370.9 365.853,370.82 363.718,370.208 362.739,369.819 360.863,368.851 359.961,368.263 358.37,366.982 357.601,366.222 356.32,364.67 355.722,363.776 354.776,361.997 354.616,361.609 " fill="none" stroke-width="0.5" stroke="rgb(0,0,0)" />
	<polygon points="323.953,364.295 323.587,365.234 322.872,366.655 322.322,367.527 321.357,368.773 320.628,369.542 319.432,370.577 318.721,371.075 320.564,371.193 323.544,371.123 327.148,370.889 331.035,370.47 334.972,369.849 337.095,369.38 334.915,369.189 333.935,369.01 330.993,368.185 329.998,367.794 327.382,366.453 326.444,365.84 324.2,364.011 324.071,363.881 " fill="none" stroke-width="0.5" stroke="rgb(0,0,0)" />
	<polygon points="279.921,361.5 276.755,364.073 274.557,367.97 274.309,369.666 274.52,369.485 274.819,369.286 275.988,368.698 276.327,368.577 277.547,368.297 277.923,368.256 278.216,368.251 278.247,367.947 278.319,367.461 278.559,366.237 278.756,365.505 279.151,364.371 279.671,363.288 280.259,362.348 281.504,360.969 282.018,360.569 " fill="none" stroke-width="0.5" stroke="rgb(0,0,0)" />
	<polygon points="297.879,354.301 294.692,356.219 293.544,356.737 289.039,358.16 288.964,358.183 285.887,359.105 288.57,359.296 289.986,359.822 291.312,360.541 293.18,361.927 293.298,362.016 295.65,363.864 298.544,365.837 299.748,366.47 299.276,365.536 298.911,364.605 298.492,363.153 298.306,362.171 298.162,360.634 298.145,359.881 298.197,358.774 298.234,358.354 298.372,357.264 298.416,356.978 298.612,355.904 298.642,355.753 298.866,354.696 298.87,354.679 299.081,353.699 299.239,352.874 299.267,352.667 " fill="none" stroke-width="0.5" stroke="rgb(0,0,0)" />
	<polygon points="386.294,307.208 385.245,308.38 384.148,309.932 383.104,311.756 382.183,313.741 381.502,315.608 381.264,316.835 381.055,319.117 380.879,322.092 380.692,325.277 380.681,325.427 380.419,328.431 380.372,328.812 379.968,331.334 379.73,332.27 379.117,334.005 377.721,335.875 379.042,336.82 379.804,337.481 382.29,340.091 382.958,340.953 384.788,343.89 385.291,344.938 386.421,348.138 386.692,349.314 387.078,352.711 387.091,353.794 387,354.804 389.229,352.229 389.838,351.629 394.45,347.765 395.733,346.968 401.069,344.623 400.91,344.515 399.781,343.427 399.377,342.992 398.1,341.454 397.979,341.303 396.63,339.551 395.464,338.057 395.075,338.394 393.866,339.446 393.705,339.58 392.557,340.503 392.086,340.841 391.065,341.494 389.704,342.115 388.869,342.363 386.684,342.542 386.497,342.519 385.206,342.19 385.037,342.124 383.944,341.54 383.795,341.437 382.954,340.715 382.828,340.581 382.218,339.802 382.117,339.645 381.695,338.849 381.62,338.673 381.348,337.859 381.302,337.672 381.163,336.826 381.147,336.633 381.196,335.347 381.474,333.611 381.694,332.73 382.427,330.581 382.548,330.26 383.585,327.76 383.604,327.713 384.764,324.99 385.865,322.19 386.773,319.398 387.372,316.708 387.597,314 387.572,312.614 387.46,310.825 387.236,309.019 386.895,307.423 386.699,306.872 " fill="none" stroke-width="0.5" stroke="rgb(0,0,0)" />
	<polygon points="150.978,292.662 151.073,292.803 156.81,301.614 157.11,302.138 161.167,310.24 161.619,311.533 163.158,318.838 163.252,320.414 162.999,323.255 162.84,324.159 162.09,326.974 161.777,327.839 160.54,330.519 160.058,331.355 158.344,333.792 157.665,334.581 155.484,336.666 154.593,337.354 151.956,338.978 150.882,339.484 147.799,340.538 147.439,340.618 148.136,340.8 148.844,341.039 151.435,342.121 152.148,342.483 154.608,343.974 155.247,344.428 157.597,346.374 158.114,346.864 160.373,349.309 160.76,349.779 162.949,352.769 163.299,353.313 163.5,353.672 163.203,352.769 162.97,351.704 162.227,345.181 162.196,344.401 162.254,342.617 162.278,342.252 162.457,340.488 162.517,340.068 162.823,338.39 162.945,337.869 163.384,336.345 163.636,335.655 164.214,334.353 164.75,333.415 165.474,332.401 166.615,331.233 167.49,330.575 169.521,329.636 170.554,329.401 172.287,329.298 172.748,329.345 172.202,328.668 168.637,323.271 168.112,322.255 165.813,316.321 165.495,315.07 164.68,308.736 164.644,307.768 164.813,304.61 164.874,304.042 165.366,300.995 165.485,300.445 166.28,297.521 166.452,296.997 167.529,294.208 167.747,293.717 168.516,292.201 167.444,293.213 166.882,293.675 165.664,294.545 165.054,294.922 163.772,295.599 163.022,295.925 161.752,296.364 160.704,296.612 159.521,296.769 158.375,296.796 158.019,296.767 157.116,296.613 156.709,296.507 155.811,296.186 155.364,295.979 154.555,295.515 154.076,295.182 153.412,294.637 152.912,294.153 152.407,293.591 151.893,292.931 151.529,292.398 151.012,291.537 150.757,291.059 150.406,290.312 150.153,289.924 149.379,289.111 147.987,287.836 147.023,286.988 " fill="none" stroke-width="0.5" stroke="rgb(0,0,0)" />
	<polygon points="55.8535,335.8 56.6983,342.726 60.2511,348.44 64.169,352.317 63.9502,351.364 63.8149,350.222 63.7896,347.76 63.9099,346.576 64.4013,344.3 64.7547,343.228 65.6831,341.172 66.2013,340.27 67.4872,338.464 67.6032,338.329 66.3456,338.174 65.8761,338.095 63.0058,337.479 62.2841,337.271 59.8153,336.364 58.909,335.931 56.7681,334.648 56.3304,334.319 " fill="none" stroke-width="0.5" stroke="rgb(0,0,0)" />
	<polygon points="319.547,338.75 318.595,339.698 317.712,340.38 316.767,340.963 315.728,341.465 314.908,341.78 313.755,342.118 313.075,342.27 311.852,342.46 311.285,342.518 310.971,342.533 311.527,342.724 314.423,344.006 315.256,344.468 317.719,346.135 318.04,346.4 318.164,345.005 318.282,344.269 318.931,341.475 319.056,341.027 319.973,338.213 319.98,338.194 " fill="none" stroke-width="0.5" stroke="rgb(0,0,0)" />
	<polygon points="123.02,322.359 121.091,323.521 120.083,323.994 118.249,324.63 119.409,325.426 120.179,326.068 121.722,327.622 122.356,328.392 123.601,330.231 124.089,331.122 124.98,333.201 125.297,334.199 125.78,336.475 125.896,337.635 125.876,339.874 125.764,340.911 125.327,343.017 125.24,343.299 126.185,342.634 126.925,342.198 128.906,341.235 129.581,340.963 131.76,340.25 132.407,340.082 134.696,339.64 134.815,339.625 134.083,339.299 131.775,337.965 130.892,337.325 128.985,335.624 128.287,334.867 126.79,332.896 126.272,332.065 125.193,329.921 124.84,329.026 124.186,326.805 123.995,325.826 123.776,323.625 123.768,322.651 123.843,321.745 " fill="none" stroke-width="0.5" stroke="rgb(0,0,0)" />
	<polygon points="219.704,339.709 219.982,339.456 219.995,339.436 219.793,339.202 " fill="none" stroke-width="0.5" stroke="rgb(0,0,0)" />
	<polygon points="321.396,324.705 320.095,325.59 319.471,325.889 319.996,326.497 320.603,327.388 321.206,328.56 321.534,329.455 321.827,330.697 321.925,331.571 321.922,332.801 321.895,333.027 322.108,332.452 322.919,329.944 323.433,327.697 323.618,325.572 323.597,325.008 323.517,324.335 323.382,323.681 323.186,323.03 323.013,322.604 " fill="none" stroke-width="0.5" stroke="rgb(0,0,0)" />
	<polygon points="355.838,332.72 355.846,332.701 355.826,332.695 " fill="none" stroke-width="0.5" stroke="rgb(0,0,0)" />
	<polygon points="365.191,329.87 364.204,330.462 365.694,330.666 365.979,330.727 365.702,329.57 " fill="none" stroke-width="0.5" stroke="rgb(0,0,0)" />
	<polygon points="204.396,323.465 204.98,325.58 205.912,327.495 207.096,329.093 205.413,326.282 204.735,324.466 204.233,321.629 " fill="none" stroke-width="0.5" stroke="rgb(0,0,0)" />
	<polygon points="74.7853,307.116 73.2165,311.472 72.247,315.19 71.919,318.228 71.9531,319.439 72.0929,320.764 72.3578,322.013 72.7873,323.261 73.4483,324.587 74.4327,326.056 75.2797,327.047 75.9598,325.238 76.4091,324.32 77.5135,322.522 78.1376,321.697 79.5553,320.158 80.3264,319.469 82.0274,318.221 82.9053,317.699 84.8596,316.775 85.7968,316.435 87.9742,315.868 88.9705,315.707 91.4042,315.547 92.4918,315.586 94.7388,315.898 95.7952,316.156 97.8375,316.882 98.7797,317.324 100.599,318.406 101.251,318.878 100.726,318.102 100.259,317.257 99.5677,315.681 99.2808,314.847 98.8837,313.284 98.7392,312.43 98.7311,312.338 97.4832,313.057 96.3965,313.531 93.882,314.31 92.807,314.526 90.1194,314.782 89.0947,314.782 87.3367,314.611 86.3345,314.416 84.6308,313.912 83.6835,313.53 82.0895,312.702 81.217,312.135 79.7879,310.994 79.0237,310.248 77.815,308.804 77.2045,307.902 76.2715,306.166 75.8574,305.162 75.7599,304.835 " fill="none" stroke-width="0.5" stroke="rgb(0,0,0)" />
	<polygon points="366.474,300.914 366.023,301.071 361.953,302.287 361.654,302.367 357.314,303.394 357.071,303.446 352.859,304.238 352.604,304.28 348.919,304.79 348.535,304.829 345.776,305.01 344.943,304.999 344.35,304.945 343.831,304.842 343.848,304.933 343.93,306.389 343.829,307.634 343.643,308.664 343.329,309.769 342.835,310.948 342.292,311.906 341.451,313.018 340.662,313.82 339.623,314.642 338.572,315.28 338.201,315.455 340.067,316.311 340.849,316.753 345.708,320.065 346.415,320.641 350.432,324.527 351.035,325.22 351.718,326.157 351.728,325.946 351.946,324.96 352.27,323.966 352.845,322.656 353.029,322.277 353.842,320.761 353.932,320.6 354.743,319.205 352.901,318.768 352.674,318.708 350.825,318.183 350.071,317.906 348.764,317.311 346.59,315.499 346.094,314.787 345.135,311.7 345.622,309.499 345.825,309.055 347.56,306.946 348.132,306.533 349.131,305.965 350.014,305.582 350.544,305.385 351.681,305.028 351.989,304.941 353.323,304.609 353.515,304.565 354.988,304.255 355.109,304.231 356.664,303.941 356.736,303.928 358.162,303.682 361.255,302.962 364.456,301.881 367.637,300.453 367.651,300.445 " fill="none" stroke-width="0.5" stroke="rgb(0,0,0)" />
	<polygon points="104.9,322.61 104.921,322.604 104.869,322.572 " fill="none" stroke-width="0.5" stroke="rgb(0,0,0)" />
	<polygon points="128.444,294.025 128.559,294.45 129.945,300.558 130.057,301.272 130.582,307.243 130.578,308.225 130.356,310.53 131.122,310.13 131.601,309.971 133.799,309.723 133.979,309.74 135.343,310.055 135.493,310.111 137.042,311.011 137.163,311.112 138.28,312.394 138.375,312.546 138.906,313.675 138.977,313.884 139.174,314.664 139.222,314.937 139.285,315.434 139.312,315.777 139.327,316.089 139.332,316.306 139.357,316.568 139.369,316.611 139.403,316.681 139.44,316.731 139.465,316.754 139.499,316.773 139.618,316.812 139.955,316.845 140.255,316.818 140.437,316.765 140.522,316.721 140.56,316.691 140.586,316.658 140.618,316.597 140.633,316.544 139.679,312.073 136.716,305.924 132.122,298.226 127.25,290.236 " fill="none" stroke-width="0.5" stroke="rgb(0,0,0)" />
	<polygon points="401.533,304.403 402.533,306.408 403.911,308.48 405.59,310.504 407.474,312.377 409.455,314.01 411.573,315.43 412.556,316.032 412.856,316.198 411.444,313.683 409.299,310.205 406.849,306.956 404.199,304.4 401.52,302.849 401.005,302.751 " fill="none" stroke-width="0.5" stroke="rgb(0,0,0)" />
	<polygon points="437.524,310.624 437.335,310.745 436.415,311.213 436.177,311.307 435.471,311.53 435.184,311.599 434.668,311.697 434.332,311.743 433.962,311.782 433.577,311.808 433.313,311.82 432.879,311.828 432.62,311.827 431.851,311.804 431.633,311.794 430.787,311.734 430.666,311.725 429.763,311.641 429.714,311.636 428.779,311.54 427.861,311.448 427.238,311.393 427.213,312.78 427.207,312.953 427.117,314.755 427.066,315.27 427.042,315.436 428.055,314.89 429.039,314.48 431.196,313.825 432.231,313.619 434.535,313.394 435.248,313.373 437.289,313.446 437.707,313.478 438.153,313.529 438.104,312.518 438.114,311.834 438.259,310.012 " fill="none" stroke-width="0.5" stroke="rgb(0,0,0)" />
	<polygon points="312.104,302.776 311.385,303.355 306.795,306.438 305.819,306.956 304.154,307.631 304.176,307.629 304.942,307.606 307.755,307.725 308.216,307.764 310.855,308.106 311.345,308.193 313.748,308.735 314.303,308.892 316.35,309.592 316.028,309.184 315.356,308.078 314.483,306.146 314.064,304.712 313.748,302.537 313.73,301.216 " fill="none" stroke-width="0.5" stroke="rgb(0,0,0)" />
	<polygon points="435.004,289.844 434.48,291.022 433.807,292.145 433.571,292.505 432.62,293.836 432.549,293.933 431.48,295.361 430.609,296.557 432.195,297.455 434.117,298.492 434.242,298.561 435.947,299.542 436.449,299.869 437.634,300.74 439.144,302.455 439.551,303.19 439.774,304.29 440.288,303.13 440.43,302.876 439.776,302.525 438.492,300.344 436.53,293.852 435.072,289.624 " fill="none" stroke-width="0.5" stroke="rgb(0,0,0)" />
	<polygon points="108.417,291.993 108.406,292.344 108.129,296.551 108.015,297.349 107.223,300.95 107.196,301.034 108.29,301.117 108.573,301.274 110.49,303.184 110.584,302.509 110.638,301.151 110.32,296.504 109.473,292.074 108.417,288.309 " fill="none" stroke-width="0.5" stroke="rgb(0,0,0)" />
	<polygon points="458.529,287.118 457.337,287.669 456.083,288.707 454.701,290.376 453.235,292.644 452.227,294.43 454.761,294.172 456.154,294.213 459.343,294.727 460.867,295.215 462.266,295.908 462.125,294.955 462.12,294.955 462.122,294.938 462.119,294.915 462.143,294.798 462.144,294.791 462.152,294.708 462.162,294.556 462.17,294.34 462.175,294.069 462.177,293.746 462.177,293.508 462.103,291.986 461.889,290.525 461.535,289.161 461.085,288.051 460.635,287.329 460.328,287.023 460.208,286.959 459.951,286.918 " fill="none" stroke-width="0.5" stroke="rgb(0,0,0)" />
	<polygon points="337.755,293.709 338.618,294.891 338.911,294.24 339.08,293.898 339.261,293.563 338.862,293.535 337.628,293.511 " fill="none" stroke-width="0.5" stroke="rgb(0,0,0)" />
	<polygon points="89.5346,276.984 89.4635,277.133 86.5499,283.01 86.5044,283.1 84.1493,287.634 82.8151,290.209 83.3006,290.194 83.8166,290.352 85.5858,291.281 86.1074,291.696 86.6264,292.167 87.1913,292.752 87.6793,293.257 87.9631,293.503 88.0665,293.568 88.0758,293.572 88.1516,293.58 89.0913,293.451 89.2813,293.349 89.5479,293.026 90.0625,291.773 90.5549,289.379 90.8815,285.951 91.0374,281.608 91.0744,276.402 91.0819,276.154 91.2365,273.267 " fill="none" stroke-width="0.5" stroke="rgb(0,0,0)" />
	<polygon points="54.3473,274.227 54.0957,275.392 54.0835,276.706 54.3755,278.092 55.176,279.804 55.4947,280.307 55.966,281.034 56.0012,281.089 56.4463,281.795 56.556,281.977 56.9475,282.656 57.1252,282.991 57.4509,283.662 57.666,284.17 57.9138,284.851 58.109,285.52 58.2666,286.229 58.3796,287 58.4349,287.757 58.3845,288.975 58.0433,291.151 57.8603,291.878 58.5868,290.82 61.0728,286.245 61.8648,282.796 61.8302,282.563 61.7652,282.318 61.6779,282.097 61.5524,281.866 61.3606,281.595 61.0697,281.266 60.4774,280.718 60.4649,280.706 58.5428,278.916 58.226,278.594 56.7119,276.924 56.5144,276.693 55.2917,275.18 55.2635,275.145 54.4137,274.075 " fill="none" stroke-width="0.5" stroke="rgb(0,0,0)" />
	<polygon points="157.252,223.154 157.151,223.334 155.952,225.367 154.917,227.169 154.2,228.642 153.998,229.251 154.216,229.341 156.123,233.666 156.063,235.093 156.048,235.332 155.889,237.154 155.878,237.266 155.653,239.337 155.647,239.389 155.389,241.566 155.388,241.577 155.132,243.699 154.914,245.589 154.771,247.041 154.729,247.835 154.765,248.976 154.787,249.166 156.833,250.495 157.842,252.418 158.308,254.043 158.409,254.458 158.774,256.269 158.819,256.527 159.111,258.455 159.131,258.599 159.375,260.577 159.381,260.626 159.602,262.563 159.819,264.335 160.045,265.814 160.087,266.01 161.78,266.652 163.441,268.891 163.982,270.268 164.549,271.702 165.138,273.102 165.752,274.415 166.387,275.582 167.018,276.541 167.603,277.241 168.453,277.991 168.697,278.203 169.075,278.563 169.345,278.846 169.647,279.193 169.91,279.521 170.178,279.888 170.421,280.251 170.674,280.67 170.884,281.057 171.129,281.57 171.294,281.971 171.517,282.628 171.626,283.033 171.783,283.898 171.822,284.297 171.767,285.738 171.559,286.928 171.36,287.541 173.018,285.413 173.34,285.037 175.339,282.909 177.098,281.926 175.638,280.935 175.096,280.514 170.981,276.869 170.136,275.918 167.226,271.733 166.403,269.872 165.299,265.046 165.373,262.376 166.514,258.402 167.535,256.468 170.544,252.832 171.295,252.089 175.55,248.638 175.848,248.413 180.689,245.018 185.307,241.663 188.909,238.428 190.971,235.515 191.703,232.415 191.703,232.414 191.621,231.691 191.471,230.817 191.255,229.858 190.98,228.866 190.654,227.89 190.289,226.98 190.179,226.751 189.843,229.423 189.507,230.729 188.16,234.123 187.596,235.18 185.561,238.14 184.95,238.877 182.398,241.449 181.863,241.921 178.967,244.149 178.553,244.437 175.485,246.366 175.202,246.533 172.134,248.209 171.988,248.286 169.091,249.753 165.901,250.275 162.993,248.864 161.428,246.035 161.44,243.868 161.683,242.727 161.894,241.629 162.081,240.53 162.241,239.43 162.369,238.33 162.465,237.229 162.524,236.126 162.542,235.102 162.441,233.04 162.125,231.047 161.55,229.035 160.659,226.974 159.378,224.833 157.621,222.595 157.577,222.551 " fill="none" stroke-width="0.5" stroke="rgb(0,0,0)" />
	<polygon points="420.716,263.722 420.26,265.058 420.099,265.472 419.455,266.947 419.374,267.124 418.694,268.538 419.889,268.801 420.128,268.86 421.752,269.298 422.494,269.557 423.643,270.057 425.828,271.806 426.264,272.402 427.294,275.467 426.66,278.087 426.193,278.958 424.004,281.147 422.73,281.829 421.701,282.249 419.81,282.8 419.391,282.904 417.073,283.381 416.944,283.406 414.42,283.86 411.976,284.331 409.908,284.835 408.273,285.415 406.935,286.037 405.768,286.686 404.878,287.294 404.719,287.432 405.263,287.475 406.649,287.504 410.318,287.269 413.609,286.662 416.647,285.785 419.415,284.751 421.91,283.67 424.081,282.684 424.269,282.603 426.01,281.891 426.897,281.615 428.138,281.344 429.723,281.241 429.911,281.256 430.865,281.425 431.034,281.471 432.026,281.849 432.071,281.872 432.07,281.869 429.486,276.415 426.628,271.391 423.471,266.843 420.729,263.665 " fill="none" stroke-width="0.5" stroke="rgb(0,0,0)" />
	<polygon points="391.774,268.906 391.773,268.91 391.179,271.406 390.692,273.724 390.374,275.815 390.262,277.709 390.309,278.855 390.459,279.985 390.691,280.932 390.716,280.997 390.827,280.838 391.329,279.792 391.754,278.475 392.036,276.981 392.144,275.276 392.098,273.053 391.97,270.847 391.792,268.831 " fill="none" stroke-width="0.5" stroke="rgb(0,0,0)" />
	<polygon points="342.019,271.341 339.296,272.863 338.153,274.094 337.744,275.711 337.781,276.001 337.89,276.245 338.065,276.448 338.489,276.742 339.234,277.066 340.234,277.331 341.357,277.491 341.888,277.515 341.849,277.126 341.785,276.512 341.781,276.471 341.725,275.881 341.715,275.762 341.675,275.218 341.663,274.992 341.648,274.503 341.668,273.842 341.693,273.58 341.872,272.619 341.944,272.365 342.294,271.453 342.411,271.216 342.434,271.179 " fill="none" stroke-width="0.5" stroke="rgb(0,0,0)" />
	<polygon points="133.277,217.44 129.177,218.738 127.523,219.484 129.659,220.121 131.658,222.662 131.409,226.991 130.277,229.194 129.444,231.302 128.769,233.532 128.249,235.817 127.873,238.087 127.628,240.275 127.495,242.309 127.463,243.803 128.86,253.82 132.572,263.668 138.02,273.555 139.861,276.345 139.779,275.489 140.486,274.066 140.493,274.038 140.401,273.519 139.931,272.464 138.919,270.777 137.563,268.695 137.487,268.575 136.078,266.279 135.858,265.885 134.628,263.442 134.332,262.729 133.462,260.122 133.224,259.058 132.895,256.27 133.502,253.095 134.542,252.046 134.475,251.416 134.08,249.784 133.418,247.638 132.601,245.185 132.588,245.146 131.752,242.571 131.696,242.386 130.967,239.829 130.876,239.46 130.36,237.002 130.266,236.362 130.071,234.085 130.78,230.931 133.176,228.761 133.335,228.725 133.397,227.945 133.419,227.721 133.72,225.254 133.763,224.962 134.223,222.384 134.302,222.016 134.96,219.404 135.095,218.951 135.791,216.952 " fill="none" stroke-width="0.5" stroke="rgb(0,0,0)" />
	<polygon points="350.954,267.925 350.691,268.036 352.018,268.434 352.91,268.806 352.986,266.951 " fill="none" stroke-width="0.5" stroke="rgb(0,0,0)" />
	<polygon points="358.542,246.344 357.693,246.917 355.643,248.032 354.679,248.439 353.185,248.904 355.01,249.353 358.11,249.611 361.1,250.839 362.837,253.566 362.478,257.281 360.735,260.869 360.427,261.258 360.745,261.225 361.014,261.204 361.996,261.152 362.167,261.146 363.076,261.127 363.169,261.126 363.633,261.124 363.58,260.318 363.577,260.269 363.521,259.272 363.517,259.187 363.477,258.202 363.473,258.071 363.458,257.125 363.458,256.966 363.467,256.329 363.473,256.14 363.502,255.547 363.522,255.275 363.576,254.74 363.631,254.339 363.714,253.873 363.861,253.26 363.976,252.877 364.373,251.915 364.526,251.627 365.601,250.225 365.644,250.185 365.376,250.073 364.259,249.476 363.406,248.908 362.416,248.104 361.682,247.378 360.855,246.385 360.265,245.516 360.042,245.107 " fill="none" stroke-width="0.5" stroke="rgb(0,0,0)" />
	<polygon points="445.122,250.821 446.298,253.735 446.3,253.74 447.654,257.105 447.681,257.175 448.643,259.668 449.188,258.64 449.255,258.518 450.937,255.537 450.985,255.453 451.948,253.815 451.395,253.536 451.212,253.438 447.757,251.52 447.442,251.332 444.617,249.5 " fill="none" stroke-width="0.5" stroke="rgb(0,0,0)" />
	<polygon points="382.205,242.006 381.815,243.319 381.407,244.314 380.788,245.476 380.182,246.378 379.357,247.371 378.585,248.129 377.58,248.934 376.686,249.514 375.526,250.112 374.558,250.496 374.539,250.502 375.359,251.232 375.948,251.846 377.067,253.217 377.288,253.507 378.401,255.078 378.454,255.155 378.539,255.28 378.558,255.261 379.774,253.983 379.979,253.779 381.166,252.66 381.76,252.175 382.886,251.384 384.477,250.621 385.516,250.32 387.459,250.13 387.759,250.155 388.928,250.389 389.182,250.47 390.558,251.137 390.768,251.28 391.943,252.364 392.111,252.574 392.813,253.72 392.942,254.004 393.2,254.751 393.987,254.12 394.195,253.991 395.35,253.453 395.582,253.377 396.72,253.138 396.971,253.113 399.373,253.427 400.35,253.793 402.019,254.796 402.985,255.651 403.584,256.274 404.546,257.452 404.74,257.704 405.693,259.025 406.147,259.644 406.212,259.601 407.4,258.685 408.673,257.66 408.777,257.578 409.985,256.654 410.407,256.362 410.58,256.254 407.317,255.003 401.943,253.493 396.554,251.989 396.036,251.815 391.224,249.924 390.099,249.318 386.221,246.586 384.801,245.103 382.345,241.278 " fill="none" stroke-width="0.5" stroke="rgb(0,0,0)" />
	<polygon points="314.564,222.783 312.873,223.71 311.914,224.12 310.056,224.708 308.994,224.929 307.013,225.134 306.755,225.134 307.798,228.364 309.236,229.981 311.767,231.486 315.344,233.04 315.542,233.131 319.341,234.968 320.302,235.565 323.567,238.111 324.867,239.58 327.152,243.395 327.851,245.338 327.899,245.654 328.658,245.053 329.775,244.356 330.687,243.9 331.855,243.45 332.677,243.207 333.826,242.965 334.564,242.863 334.681,242.855 334.274,242.362 333.699,241.512 332.585,239.464 332.177,238.499 331.473,236.239 331.258,235.187 331.052,233.154 329.88,233.519 328.83,233.733 327.425,233.875 326.342,233.875 324.948,233.733 323.892,233.516 322.589,233.108 321.625,232.698 320.443,232.053 319.596,231.48 318.563,230.626 317.847,229.908 316.994,228.874 316.421,228.027 315.775,226.84 315.367,225.877 314.958,224.567 314.743,223.514 314.662,222.717 " fill="none" stroke-width="0.5" stroke="rgb(0,0,0)" />
	<polygon points="103.534,233.88 103.516,234.658 103.125,238.754 103.049,239.246 105.99,235.634 103.996,234.583 103.522,233.644 " fill="none" stroke-width="0.5" stroke="rgb(0,0,0)" />
	<polygon points="463.794,213.938 463.789,214.326 463.661,216.847 463.629,217.219 463.293,220 463.263,220.212 462.787,223.153 462.769,223.255 462.223,226.256 462.221,226.269 461.683,229.19 461.23,231.871 460.932,234.157 460.836,235.84 460.919,236.911 461.148,237.925 461.501,238.87 461.527,238.919 462.061,238.322 463.572,236.156 465.008,233.527 466.186,230.626 466.961,227.64 467.229,224.76 466.652,219.589 465.181,215.564 463.784,213.469 " fill="none" stroke-width="0.5" stroke="rgb(0,0,0)" />
	<polygon points="410.077,231.746 412.719,235.31 415.135,237.623 415.559,237.965 415.437,237.822 410.006,231.603 " fill="none" stroke-width="0.5" stroke="rgb(0,0,0)" />
	<polygon points="381.975,223.117 381.218,224.514 380.642,225.368 379.64,226.584 378.916,227.308 377.701,228.311 376.846,228.888 376.716,228.958 377.566,229.51 378.571,230.308 379.306,231.016 380.13,231.977 380.457,232.445 380.438,232.024 380.573,230.097 380.637,229.567 380.994,227.485 381.053,227.19 381.558,224.994 381.588,224.87 382.129,222.75 " fill="none" stroke-width="0.5" stroke="rgb(0,0,0)" />
	<polygon points="47.4674,226.109 46.994,226.309 44.4665,227.239 43.8568,227.422 43.0425,227.616 43.9307,228.014 44.2932,228.233 45.3735,229.096 45.6564,229.39 46.427,230.409 46.6364,230.768 47.0787,231.738 47.0968,231.791 48.7994,226.069 49.1207,225.313 " fill="none" stroke-width="0.5" stroke="rgb(0,0,0)" />
	<polygon points="85.9932,211.068 84.1893,213.091 83.6243,213.466 83.1485,213.748 83.1303,213.758 84.2636,214.426 84.8351,214.874 85.7189,215.752 86.1817,216.333 86.7465,217.205 87.1027,217.893 87.4353,218.686 87.6872,219.454 87.867,220.163 88.0165,220.984 88.094,221.631 88.1434,222.479 88.1144,223.427 87.7013,226.873 87.9018,226.611 88.63,225.775 89.2776,225.147 90.0142,224.545 91.0292,223.891 91.766,223.527 93.2516,223.047 93.9806,222.924 95.612,222.903 96.2558,222.993 97.6919,223.406 98.3035,223.679 99.4968,224.413 100.06,224.871 100.918,225.751 101.416,226.396 101.969,227.276 102.007,227.351 101.969,226.724 101.963,226.602 101.939,225.922 101.936,225.794 101.927,225.13 101.942,224.667 102.244,220.59 102.363,219.8 103.204,216.1 103.431,215.356 104.71,212.048 104.766,211.931 104.532,212.049 101.953,212.983 100.717,213.271 97.7191,213.6 96.5402,213.6 93.351,213.243 92.151,212.967 89.2868,211.948 88.1921,211.41 86.154,210.103 " fill="none" stroke-width="0.5" stroke="rgb(0,0,0)" />
	<polygon points="63.4958,215.375 61.6172,216.931 62.3982,217.156 63.0425,217.452 64.4007,218.347 64.9175,218.815 65.8227,219.88 66.2225,220.5 66.7111,221.455 67.0041,222.206 67.2363,222.961 67.4328,223.822 67.5313,224.396 67.6416,225.347 67.6742,225.783 67.6866,226.15 69.1754,222.484 69.5198,221.787 72.1844,217.253 73.6866,215.693 71.7416,215.531 70.8301,215.375 68.7584,214.833 67.839,214.5 65.9685,213.621 65.077,213.092 64.7541,212.855 " fill="none" stroke-width="0.5" stroke="rgb(0,0,0)" />
	<polygon points="450.706,206.126 448.864,206.789 446.026,207.97 445.929,208.009 442.34,209.42 442.047,209.525 437.737,210.936 437.323,211.053 432.202,212.284 431.717,212.377 425.695,213.247 425.181,213.296 418.168,213.627 417.239,213.589 417.195,213.584 419.995,214.342 420.937,214.694 425.382,216.855 426.458,217.549 430.152,220.613 430.984,221.479 434.188,225.665 434.233,225.735 434.286,225.549 436.031,221.489 436.544,220.562 439.067,216.908 439.575,216.28 442.56,213.111 443.033,212.666 446.164,210.063 446.634,209.714 449.595,207.756 450.16,207.429 452.635,206.196 452.714,206.167 452.616,206.138 451.447,206.002 " fill="none" stroke-width="0.5" stroke="rgb(0,0,0)" />
	<polygon points="184.222,210.968 185.12,211.795 187.092,214.083 187.819,215.171 189.028,217.572 189.443,218.694 190.05,221.149 190.083,221.359 190.825,219.906 193.685,218.4 197.195,219.061 196.46,217.739 195.853,215.547 195.178,214.261 194.286,213.232 193.044,212.326 191.302,211.523 188.978,210.88 186.057,210.463 183.378,210.352 " fill="none" stroke-width="0.5" stroke="rgb(0,0,0)" />
	<polygon points="380.814,197.366 380.596,198.423 380.165,199.799 379.755,200.762 379.073,202.01 378.5,202.855 377.598,203.944 376.884,204.658 375.994,205.393 376.844,205.854 377.698,206.43 378.914,207.431 379.637,208.154 380.64,209.368 381.216,210.222 381.973,211.616 382.38,212.583 382.858,214.124 383.072,215.173 383.238,216.828 383.239,217.898 383.227,218.011 383.469,216.491 383.574,214.822 383.566,214.487 383.536,214.105 383.491,213.789 383.437,213.541 383.382,213.358 383.33,213.232 383.286,213.149 383.082,212.844 382.171,209.743 383.213,206.683 385.827,204.781 389.859,205.045 389.885,205.058 383.436,199.8 382.548,198.878 380.885,196.676 " fill="none" stroke-width="0.5" stroke="rgb(0,0,0)" />
	<polygon points="337.674,212.242 335.916,213.186 335.95,213.219 336.806,214.255 337.382,215.103 338.029,216.291 338.439,217.256 338.626,217.853 339.104,217.531 341.153,216.416 341.197,216.397 340.73,215.93 339.874,214.894 339.3,214.045 338.654,212.857 338.245,211.892 338.237,211.865 " fill="none" stroke-width="0.5" stroke="rgb(0,0,0)" />
	<polygon points="399.856,211.289 400.793,212.286 402.124,214.125 402.449,213.418 404.874,212.01 404.474,211.959 403.032,211.565 397.052,208.985 " fill="none" stroke-width="0.5" stroke="rgb(0,0,0)" />
	<polygon points="57.2,202.388 56.8221,202.726 55.0419,204.172 54.5978,204.496 52.8109,205.665 52.2939,205.963 50.5153,206.861 49.9206,207.118 48.1652,207.752 47.4916,207.946 45.7743,208.322 45.028,208.43 43.9522,208.511 44.8335,208.487 46.4498,208.364 48.1806,208.161 50.0363,207.879 52.0261,207.521 54.1582,207.092 56.4406,206.597 58.8965,206.038 59.2172,206.065 59.1658,205.947 58.5284,203.932 58.3053,202.845 58.1665,201.438 " fill="none" stroke-width="0.5" stroke="rgb(0,0,0)" />
	<polygon points="114.186,200.038 113.978,200.742 114.592,200.337 115.364,199.907 114.5,199.594 114.337,199.33 " fill="none" stroke-width="0.5" stroke="rgb(0,0,0)" />
	<polygon points="124.165,196.551 123.568,196.64 123.158,196.755 122.938,196.852 122.912,196.87 122.717,197.351 122.694,197.38 122.775,197.367 123.958,197.214 124.2,197.188 125.423,197.087 125.626,197.074 126.886,197.017 127.054,197.012 128.012,196.999 126.891,196.713 124.796,196.522 " fill="none" stroke-width="0.5" stroke="rgb(0,0,0)" />
	<polygon points="355.028,196.077 354.545,196.229 355.074,196.453 355.759,196.826 355.663,195.894 355.663,195.808 " fill="none" stroke-width="0.5" stroke="rgb(0,0,0)" />
	<polygon points="59.9187,190.399 59.7147,190.443 60.4266,191.113 61.0518,190.118 " fill="none" stroke-width="0.5" stroke="rgb(0,0,0)" />
	<polygon points="179.051,184.032 180.069,186.836 180.601,186.706 184.449,185.981 183.794,185.883 182.244,185.404 178.949,183.802 " fill="none" stroke-width="0.5" stroke="rgb(0,0,0)" />
	<polygon points="367.302,166.311 366.49,167.293 365.768,168.014 364.784,168.824 363.932,169.398 362.803,170.01 361.932,170.376 362.485,171.044 363.058,171.888 364.097,173.787 364.508,174.75 365.166,176.843 365.384,177.901 365.614,180.141 365.614,181.235 365.429,183.024 366.285,182.847 367.74,182.696 368.834,182.696 370.306,182.846 371.361,183.063 372.737,183.494 372.794,183.518 371.676,181.23 371.376,180.476 368.609,171.628 368.45,170.979 367.546,165.951 " fill="none" stroke-width="0.5" stroke="rgb(0,0,0)" />
	<polygon points="151.025,171.859 150.365,172.133 145.917,173.643 145.208,173.831 140.296,174.777 139.748,174.846 141.832,176.297 142.471,176.821 145.865,180.066 146.292,180.525 148.328,182.989 148.873,179.522 149.063,178.723 150.022,175.727 150.632,174.44 152.023,172.302 153.519,170.782 154.434,170.165 " fill="none" stroke-width="0.5" stroke="rgb(0,0,0)" />
	<polygon points="108.675,159.707 108.103,160.555 107.247,161.591 106.531,162.309 105.496,163.165 104.648,163.738 103.462,164.385 102.497,164.795 101.189,165.204 100.134,165.42 98.7326,165.563 97.6503,165.563 96.2432,165.421 95.1912,165.206 93.8784,164.796 92.9147,164.389 91.725,163.742 90.8769,163.169 90.1407,162.562 90.1203,162.633 89.9638,163.092 88.9077,165.784 92.1722,165.884 95.515,167.121 96.1077,167.382 99.4832,169.121 100.04,169.452 103.3,171.667 103.849,172.094 106.848,174.761 107.395,175.325 109.984,178.417 110.506,179.162 112.538,182.657 112.545,182.672 112.677,182.107 113.396,179.802 113.802,178.841 114.845,176.923 115.596,175.869 116.982,174.352 118.082,173.432 119.833,172.33 120.605,171.973 118.294,170.652 117.342,169.957 114.448,167.313 113.704,166.473 111.482,163.362 110.965,162.466 109.398,159.017 109.262,158.63 " fill="none" stroke-width="0.5" stroke="rgb(0,0,0)" />
	<polygon points="78.3869,180.979 78.7014,181.191 78.7757,180.927 78.9189,180.493 " fill="none" stroke-width="0.5" stroke="rgb(0,0,0)" />
	<polygon points="343.626,162.455 342.74,163.192 338.633,165.915 337.727,166.397 334.644,167.677 334.83,167.862 335.642,168.844 336.217,169.696 336.459,170.139 337.082,169.387 337.795,168.674 339.455,167.302 340.298,166.731 342.198,165.694 343.16,165.285 345.252,164.628 346.309,164.41 346.853,164.355 346.84,164.331 346.432,163.364 346.045,162.119 345.83,161.068 345.749,160.263 " fill="none" stroke-width="0.5" stroke="rgb(0,0,0)" />
	<polygon points="163.739,163.591 163.446,163.844 159.859,166.731 159.437,167.037 156.085,169.234 157.508,168.664 160.003,168.237 161.933,168.26 163.661,168.598 164.98,169.041 166.694,169.878 166.233,168.996 165.975,168.42 164.171,163.673 164.049,163.302 " fill="none" stroke-width="0.5" stroke="rgb(0,0,0)" />
	<polygon points="423.796,139.483 422.057,142.307 421.068,143.49 418.326,145.942 417.405,146.604 413.79,148.661 413.026,149.019 408.665,150.658 408.035,150.852 404.423,151.721 405.686,151.644 405.898,151.636 409.095,151.568 409.688,151.588 417.021,152.248 418.058,152.446 424.477,154.343 425.465,154.746 431.151,157.757 431.937,158.266 437.069,162.268 437.605,162.748 439.395,164.58 439.383,164.563 438.995,163.937 435.488,157.293 435.076,156.27 433.23,149.833 433.32,146.601 433.902,145.822 433.732,145.788 431.765,145.271 430.971,144.994 429.292,144.256 428.343,143.718 426.983,142.75 425.984,141.826 424.974,140.621 424.166,139.311 424.006,138.942 " fill="none" stroke-width="0.5" stroke="rgb(0,0,0)" />
	<polygon points="378.411,151.33 380.039,151.962 382.208,152.54 385.022,152.97 388.619,153.142 389.56,153.114 381.663,152.258 380.531,152.009 378.202,151.224 " fill="none" stroke-width="0.5" stroke="rgb(0,0,0)" />
	<polygon points="352.051,129.406 352.167,129.749 352.642,131.33 352.722,131.625 353.099,133.199 353.158,133.48 353.432,134.974 353.479,135.278 353.646,136.621 353.68,137.012 353.737,138.132 353.719,138.908 353.093,145.508 352.866,146.62 352.268,148.506 352.527,148.365 353.493,147.958 354.742,147.571 355.79,147.358 357.131,147.224 358.203,147.224 359.542,147.359 360.591,147.572 361.839,147.959 362.805,148.366 363.934,148.978 364.787,149.553 365.771,150.365 366.493,151.087 367.095,151.816 367.348,151.301 367.399,151.218 368.288,150.134 368.346,150.079 369.719,149.145 369.782,149.116 371.341,148.653 371.406,148.644 371.457,148.651 365.819,145.346 365.001,144.757 359.664,140.088 359.018,139.414 354.77,134.131 354.264,133.38 352.048,129.398 " fill="none" stroke-width="0.5" stroke="rgb(0,0,0)" />
	<polygon points="130.772,133.318 130.044,133.646 129.342,134.027 128.739,134.409 128.324,134.715 127.936,135.059 124.982,136.372 122.735,135.926 123.888,137.084 124.652,138.706 125.05,139.895 125.528,142.188 125.57,142.41 125.972,144.85 126.431,146.769 126.805,147.572 126.962,147.608 127.125,147.532 127.552,147.247 128.07,146.776 128.648,146.069 129.254,145.068 129.875,143.651 130.198,142.667 130.525,141.532 130.806,140.403 131.037,139.291 131.217,138.208 131.346,137.165 131.422,136.176 131.447,135.259 131.406,133.939 131.317,133.126 " fill="none" stroke-width="0.5" stroke="rgb(0,0,0)" />
	<polygon points="101.405,136.98 101.405,138.063 101.263,139.468 101.047,140.521 100.828,141.224 101.189,141.298 102.497,141.707 103.461,142.116 104.647,142.762 105.494,143.335 106.529,144.191 107.245,144.907 107.957,145.768 107.983,145.577 108.287,143.817 108.38,143.385 108.838,141.62 109.028,141.03 109.658,139.404 109.766,139.186 107.57,139.709 105.467,139.107 102.83,137.718 101.322,136.161 " fill="none" stroke-width="0.5" stroke="rgb(0,0,0)" />
	<polygon points="314.776,122.788 313.16,123.223 311.737,123.887 310.505,124.735 309.482,125.717 308.692,126.762 308.157,127.782 307.714,129.181 305.853,131.824 305.644,131.898 305.764,131.993 307.003,132.815 308.159,133.433 309.264,133.881 310.362,134.187 311.507,134.37 312.801,134.435 313.196,134.423 313.738,134.381 314.357,134.313 315.029,134.226 315.717,134.134 315.761,134.128 316.416,134.045 316.557,134.029 317.146,133.97 317.442,133.949 317.949,133.927 318.488,133.93 319.052,133.963 319.733,134.046 320.241,134.141 321.025,134.35 321.471,134.507 322.35,134.907 322.729,135.123 323.65,135.786 323.954,136.059 324.798,137.019 325.023,137.347 325.636,138.537 325.775,138.919 326.068,140.167 326.115,140.6 326.12,141.732 326.04,142.506 325.891,143.329 325.791,143.705 326.677,143.634 329.546,142.924 331.229,142.176 329.283,141.585 327.575,139.662 327.086,138.731 326.598,137.964 326.005,137.183 325.305,136.407 324.495,135.652 323.57,134.931 322.525,134.259 321.138,133.538 320.721,133.323 320.034,132.9 319.672,132.637 319.037,132.097 318.736,131.798 318.192,131.164 317.95,130.834 317.52,130.141 317.336,129.786 317.027,129.067 316.898,128.693 316.705,127.978 316.629,127.592 316.54,126.898 316.515,126.506 316.533,125.614 316.61,124.871 316.796,123.925 317.02,123.156 317.207,122.655 317.125,122.643 316.696,122.62 " fill="none" stroke-width="0.5" stroke="rgb(0,0,0)" />
	<polygon points="58.2727,137.409 58.0124,138.2 60.001,137.815 60.3666,137.757 61.7129,137.592 61.3706,137.506 57.967,136.407 " fill="none" stroke-width="0.5" stroke="rgb(0,0,0)" />
	<polygon points="75.4772,137.691 75.3183,137.742 75.5482,137.765 75.6613,137.778 76.5556,137.889 76.7809,137.922 76.7809,136.981 76.9234,135.578 76.9342,135.525 " fill="none" stroke-width="0.5" stroke="rgb(0,0,0)" />
	<polygon points="123.055,111.849 121.467,118.2 121.443,118.292 119.717,124.708 119.612,125.051 117.695,130.647 117.323,131.49 116.14,133.643 116.376,133.58 120.056,133.918 120.086,133.933 119.581,133.403 119.449,129 121.292,124.569 121.66,123.845 124.002,119.993 124.499,119.304 127.283,116.033 127.897,115.42 130.279,113.401 130.267,113.395 128.749,112.247 128.05,111.614 126.548,109.991 126.313,109.719 124.819,107.87 124.324,107.263 " fill="none" stroke-width="0.5" stroke="rgb(0,0,0)" />
	<polygon points="93.4277,111.39 93.3382,111.475 91.1616,113.496 90.8091,113.796 88.5459,115.559 87.7758,116.059 85.4377,117.306 83.954,117.834 81.5527,118.307 79.95,118.378 78.7532,118.25 78.6433,118.223 78.8016,119.155 78.8685,119.747 79.0573,123.062 79.0646,123.485 79.0329,124.912 79.0227,125.143 78.9316,126.532 78.9127,126.751 78.7685,128.098 78.7421,128.306 78.5509,129.607 78.5182,129.804 78.2862,131.056 78.2483,131.242 78.0716,132.037 78.6003,131.064 79.1724,130.217 80.027,129.18 80.7434,128.462 81.7781,127.606 82.6259,127.031 83.812,126.384 84.7775,125.974 86.0864,125.564 87.1423,125.347 88.5454,125.204 89.6295,125.204 91.0345,125.347 92.089,125.563 93.3999,125.973 94.3645,126.382 95.5524,127.03 96.4001,127.603 97.4364,128.46 97.9877,129.011 97.1564,125.322 97.0727,124.856 96.279,118.921 96.2648,118.806 95.6134,112.97 95.1305,109.734 " fill="none" stroke-width="0.5" stroke="rgb(0,0,0)" />
	<polygon points="182.751,102.969 182.936,103.8 183.491,107.771 183.537,108.765 183.494,109.656 183.433,110.247 183.301,111.073 183.13,111.809 182.9,112.553 182.533,113.444 182.197,114.09 181.529,115.082 181.079,115.613 180.058,116.539 179.485,116.939 178.227,117.586 177.523,117.838 176.275,118.121 175.431,118.209 173.493,118.054 170.306,117.199 172.565,120.928 172.982,121.778 174.669,126.159 174.908,126.963 175.399,129.258 177.379,127.496 177.88,127.102 180.88,125.015 181.534,124.626 184.654,123.06 185.491,122.725 188.712,121.74 189.726,121.535 193.03,121.193 194.174,121.197 198.206,121.647 198.568,121.733 197.807,121.162 194.292,117.694 193.966,117.342 189.722,112.33 189.547,112.112 185.038,106.185 184.9,105.996 182.713,102.844 " fill="none" stroke-width="0.5" stroke="rgb(0,0,0)" />
	<polygon points="385.402,93.6735 384.604,94.4079 378.427,99.0292 377.547,99.5639 370.599,102.916 369.68,103.26 362.181,105.301 361.245,105.468 353.414,106.158 352.544,106.164 347.249,105.766 346.494,105.654 346.402,105.634 347.074,106.378 347.415,106.932 347.944,108.071 348.173,108.769 348.36,109.518 348.499,110.314 348.56,110.785 348.608,111.362 348.958,110.684 349.093,110.47 349.596,109.796 349.755,109.614 350.228,109.138 350.405,108.981 350.76,108.692 350.948,108.552 351.135,108.419 351.329,108.287 352.612,107.647 353.792,107.245 354.974,106.986 356.814,106.798 357.095,106.777 359.494,106.659 362.295,106.472 365.425,106.091 368.889,105.388 372.673,104.232 376.877,102.435 377.308,102.216 377.612,102.073 378.199,101.82 378.511,101.697 379.093,101.488 379.412,101.385 379.989,101.218 380.314,101.135 380.883,101.008 381.211,100.946 381.77,100.858 382.101,100.816 382.648,100.764 382.982,100.743 383.514,100.726 384.491,100.785 386.456,101.085 388.256,101.702 389.673,102.493 390.977,103.514 392.021,104.633 392.577,105.339 393.422,106.621 393.462,106.682 394.073,107.637 394.093,107.66 394.65,107.608 395.831,107.329 397.3,106.848 398.956,106.224 400.674,105.559 400.811,105.509 402.461,104.921 402.844,104.8 404.364,104.384 405.153,104.231 406.5,104.073 408.904,104.342 410.946,105.063 412.781,106.165 414.924,108.132 415.628,108.919 417.758,111.835 418.105,112.376 420.106,115.948 420.323,116.38 422.079,120.312 422.245,120.729 423.642,124.727 423.788,125.219 424.56,128.369 424.806,127.966 425.544,126.98 426.292,126.17 427.301,125.282 427.913,124.851 427.719,124.744 426.726,124.062 425.881,123.344 424.974,122.392 424.308,121.534 423.517,120.267 423.086,119.419 422.582,118.157 422.383,117.558 422.011,116.171 421.942,115.883 421.636,114.427 421.634,114.415 421.356,113.073 421.09,112.046 420.853,111.418 420.729,111.207 420.231,110.704 418.76,107.825 419.215,104.625 421.431,102.271 423.491,102.004 419.897,102.151 419.624,102.155 416.337,102.123 416.232,102.12 412.9,102.022 412.798,102.018 409.428,101.855 409.328,101.849 405.931,101.62 405.832,101.612 402.416,101.318 402.317,101.309 398.891,100.949 398.791,100.938 395.365,100.513 395.264,100.5 391.846,100.01 391.772,99.9989 391.298,99.9242 390.85,99.834 390.465,99.7391 389.789,99.5243 389.485,99.405 388.552,98.9284 388.321,98.7805 387.262,97.8886 387.097,97.7079 386.253,96.4769 386.145,96.2592 385.72,95.067 385.661,94.8082 385.537,93.9337 385.519,93.6296 385.551,93.5056 " fill="none" stroke-width="0.5" stroke="rgb(0,0,0)" />
	<polygon points="348.007,120.531 347.918,120.996 347.518,122.668 349.574,124.341 350.245,125.393 348.872,121.39 348.624,120.314 348.356,118.162 " fill="none" stroke-width="0.5" stroke="rgb(0,0,0)" />
	<polygon points="144.914,98.7148 144.365,101.696 143.788,104.922 143.694,105.347 143.146,107.422 144.571,107.097 145.367,106.979 149.497,106.676 150.489,106.696 155.365,107.248 156.178,107.441 155.057,106.5 155.021,106.47 150.577,102.672 146.66,99.522 144.996,98.4246 " fill="none" stroke-width="0.5" stroke="rgb(0,0,0)" />
	<polygon points="326.354,98.6353 325.574,99.7632 327.639,100.186 328.319,100.373 331.059,101.324 331.642,101.566 333.887,102.656 334.326,102.895 336.122,103.986 336.361,104.139 337.035,104.599 337.224,104.501 337.421,104.403 338.016,104.122 338.54,103.908 339.106,103.711 336.93,102.942 336.454,102.747 332.805,101.047 332.497,100.89 329.389,99.1899 329.283,99.1302 326.948,97.7827 " fill="none" stroke-width="0.5" stroke="rgb(0,0,0)" />
	<polygon points="431.963,101.631 431.451,101.677 425.923,101.904 426.325,102.007 427.152,102.165 428.02,102.285 428.918,102.369 429.834,102.422 430.759,102.45 431.684,102.461 432.388,102.463 434.758,102.275 437.068,101.783 439.531,101.025 441.472,100.32 " fill="none" stroke-width="0.5" stroke="rgb(0,0,0)" />
	<polygon points="69.872,91.9244 64.81,94.5886 60.2005,97.1316 62.8047,97.4915 64.3128,97.9328 67.6952,99.4926 68.9503,100.301 70.8758,101.962 70.8975,101.705 70.9135,101.544 71.1648,99.3546 71.1745,99.2749 71.4625,97.0596 71.4635,97.0519 71.7472,94.8945 71.9853,92.8901 72.1437,91.1178 72.1514,90.9094 " fill="none" stroke-width="0.5" stroke="rgb(0,0,0)" />
	<polygon points="395.671,78.8288 395.22,79.8709 391.628,86.2278 392.245,85.9128 394.12,84.8413 395.691,83.6556 396.832,82.3553 397.566,80.8204 397.917,78.3625 397.88,77.3829 397.751,76.0974 397.559,74.806 397.326,73.5385 397.323,73.5228 " fill="none" stroke-width="0.5" stroke="rgb(0,0,0)" />
	<polygon points="172.279,76.9736 173.341,79.4778 173.481,79.2114 173.583,79.0521 174.191,78.2705 174.318,78.1358 175.161,77.408 175.31,77.304 176.14,76.8599 173.419,75.9947 171.782,75.5657 " fill="none" stroke-width="0.5" stroke="rgb(0,0,0)" />
	<polygon points="112.015,77.9592 112.19,78.9172 112.228,79.3425 112.395,78.9235 113.408,76.8984 112.56,76.5976 111.452,75.9383 " fill="none" stroke-width="0.5" stroke="rgb(0,0,0)" />
	<polygon points="125.668,60.3105 124.905,63.4782 124.17,66.9654 124.097,67.2688 123.25,70.3759 122.833,71.4418 122.107,72.8346 123.346,73.2758 125.418,74.6179 126.8,76.0625 127.468,76.9198 127.768,77.3986 127.774,76.6881 127.777,76.5329 127.824,75.2825 127.842,74.9985 127.942,73.896 128.008,73.4167 128.18,72.4784 128.385,71.6967 128.646,70.9387 129.234,69.7426 129.604,69.1811 130.995,67.7466 131.49,67.3978 132.855,66.8222 131.506,65.111 131.362,64.9203 129.624,62.5014 127.949,60.2823 126.51,58.709 126.321,58.571 " fill="none" stroke-width="0.5" stroke="rgb(0,0,0)" />
	<polygon points="106.643,57.7766 105.561,58.2954 104.008,59.3642 102.217,60.8232 100.355,62.4174 100.221,62.5277 98.4401,63.9556 97.927,64.3195 96.3091,65.3295 94.8681,65.957 94.6239,66.0228 94.6323,66.0352 94.9114,66.5832 95.2859,67.5339 95.4753,68.1931 95.6312,68.9258 95.7389,69.6924 95.7868,70.2271 95.8209,71.0971 95.814,71.6505 95.6868,73.6264 95.6373,74.0849 95.3523,75.964 96.2786,74.7828 96.9088,74.1082 98.998,72.2273 100.825,71.1484 102.883,70.4349 106.115,70.3483 107.838,71.2038 108.424,71.6416 108.069,70.4913 107.851,69.3613 107.586,66.1996 107.572,65.9756 107.428,62.4958 107.137,59.4657 106.679,57.7702 " fill="none" stroke-width="0.5" stroke="rgb(0,0,0)" />
	<polygon points="145.505,69.5009 145.22,69.7493 144.343,70.371 144.234,70.4327 147.421,73.0345 147.609,73.195 147.983,73.5299 147.595,72.6277 147.508,72.4117 146.147,68.8194 " fill="none" stroke-width="0.5" stroke="rgb(0,0,0)" />
	<polygon points="399.336,59.2887 399.333,60.2859 399.046,63.2534 399.091,63.2113 399.304,63.0511 400.159,62.5236 400.396,62.4065 401.308,62.0557 401.562,61.9839 402.523,61.8049 402.786,61.7805 405.235,62.1272 406.344,62.5625 407.814,63.4315 409.192,64.5793 409.498,64.8546 411.134,66.4447 412.931,68.1317 414.813,69.643 416.759,70.825 418.754,71.5754 421.121,71.8741 421.516,71.8555 422.263,71.742 422.967,71.5362 423.509,71.268 423.872,70.9727 424.16,70.5743 424.446,69.7974 424.547,68.8403 423.957,66.8818 421.999,64.8605 418.191,62.607 413.271,60.5689 408.062,58.8418 403.365,57.3986 403.113,57.3145 399.751,56.0961 399.008,55.6653 " fill="none" stroke-width="0.5" stroke="rgb(0,0,0)" />
	<polygon points="84.7001,60.4094 84.2892,60.9185 82.0814,63.3352 83.5703,62.8002 84.5217,62.5542 85.4986,62.3955 85.4376,62.2793 85.3271,61.9786 85.0296,60.7072 84.9906,60.3452 85.021,59.9579 " fill="none" stroke-width="0.5" stroke="rgb(0,0,0)" />
	<polygon points="54.1857,62.2796 54.7935,61.4716 53.7236,61.3985 " fill="none" stroke-width="0.5" stroke="rgb(0,0,0)" />
	<polygon points="162.017,44.9938 161.97,45.412 161.639,46.7541 161.505,47.0965 160.78,48.3904 160.573,48.6631 159.601,49.6474 159.333,49.8567 159.301,49.8764 160.231,50.1233 160.582,50.2292 163.96,51.3777 164.107,51.43 167.639,52.7465 167.643,52.748 171.097,54.0387 173.056,54.7098 170.7,52.076 166.898,48.2416 162.998,44.3662 162.864,44.2281 161.734,43.021 " fill="none" stroke-width="0.5" stroke="rgb(0,0,0)" />
	<polygon points="143.221,50.2708 143.933,52.1451 144.838,54.24 144.854,54.2773 145.205,53.5006 145.601,52.8136 146.356,51.8027 146.883,51.2473 147.951,50.3791 148.316,50.1529 147.404,49.9024 145.82,49.4804 144.373,49.1448 143.147,48.9387 142.842,48.9181 " fill="none" stroke-width="0.5" stroke="rgb(0,0,0)" />
	<polygon points="92.1655,46.8317 90.42,47.0887 88.5557,47.3997 87.0511,47.6539 87.8154,48.8432 88.257,52.2281 88.9981,51.2271 89.1136,51.0767 90.8323,48.9196 92.4621,46.8357 92.4893,46.7968 " fill="none" stroke-width="0.5" stroke="rgb(0,0,0)" />
	<polygon points="445.452,38.0514 445.406,38.1877 444.748,40.0566 444.136,41.8971 443.649,43.6903 443.328,45.4848 443.211,47.354 443.255,48.0329 443.36,48.5204 443.47,48.7902 443.534,48.8854 443.564,48.9134 443.681,48.9785 444.067,49.0904 444.698,49.1442 445.049,49.0948 445.061,49.0826 445.314,48.6472 445.64,47.6988 445.914,46.3028 446.083,44.5744 446.137,42.6189 446.104,41.0058 446.015,39.4586 445.888,37.9858 445.784,37.0207 " fill="none" stroke-width="0.5" stroke="rgb(0,0,0)" />
</svg>
