<?xml version="1.0" standalone="no" ?>
<!DOCTYPE svg PUBLIC "-//W3C//DTD SVG 1.1//EN" "http://www.w3.org/Graphics/SVG/1.1/DTD/svg11.dtd">
<svg width="500px" height="500px" xmlns="http://www.w3.org/2000/svg" version="1.1" >
	<polygon points="473.073,88.5232 471.864,89.6598 465.246,94.4438 466.135,94.4589 468.621,94.9694 469.981,95.3818 472.077,96.2338 473.073,96.7643 473.073,194.499 472.949,194.49 473.073,194.593 473.073,281.069 472.255,295.637 469.806,311.105 465.678,327.395 459.852,344.205 452.313,361.24 443.05,378.212 432.054,394.841 419.318,410.847 404.835,425.959 388.595,439.91 370.583,452.438 350.779,463.282 329.156,472.183 314.596,476.336 313.706,475.448 311.98,473.334 311.128,472.047 309.884,469.688 309.313,468.289 308.56,465.766 308.273,464.299 308.247,464.031 308.117,464.269 305.35,468.341 304.425,469.325 304.802,469.355 306.328,469.633 306.997,469.826 308.789,470.597 309.283,470.888 310.98,472.242 311.325,472.607 312.52,474.265 312.742,474.679 313.362,476.204 313.488,476.643 313.49,476.651 305.678,478.879 280.304,483.101 252.986,484.572 226.368,483.184 201.537,479.188 178.475,472.833 157.159,464.36 137.567,454.003 119.685,441.997 103.506,428.571 89.0276,413.962 76.2505,398.407 65.1787,382.148 55.8163,365.431 48.1665,348.507 42.2306,331.631 38.7929,318.148 41.0237,313.593 37.7643,313.527 35.4862,299.07 34.6405,283.693 34.6405,149.724 35.9379,148.159 34.6405,147.781 34.6405,36.6296 36.2222,35.609 36.3248,35.5439 37.0331,35.1024 34.6592,34.501 34.6405,34.4957 34.6405,27.2664 38.4417,27.2373 49.9334,27.1491 61.425,27.0609 61.425,27.0609 72.9167,26.9727 84.4084,26.8846 95.9001,26.7964 95.9001,26.7964 107.392,26.7082 118.883,26.62 130.375,26.5318 153.358,26.3555 164.85,26.2673 176.342,26.1791 187.833,26.091 202.992,25.9747 202.982,31.0484 202.982,31.0484 202.956,43.9472 202.931,56.846 202.906,69.7448 202.88,82.6435 202.873,86.5016 201.28,86.3395 202.87,87.5739 202.829,108.441 202.804,121.34 202.753,147.138 202.728,160.036 202.702,172.935 202.678,185.002 202.027,185.466 201.226,185.927 201.633,186.105 202.675,186.684 202.651,198.733 202.626,211.632 202.6,224.53 202.601,224.605 202.688,235.9 202.688,235.958 202.853,246.775 202.855,246.88 203.152,257.186 203.159,257.348 203.643,267.109 203.658,267.337 204.386,276.522 204.417,276.831 205.443,285.403 205.503,285.811 206.884,293.74 206.995,294.268 208.784,301.518 208.982,302.186 211.236,308.726 211.572,309.546 214.346,315.341 214.891,316.298 218.24,321.314 219.057,322.338 223.036,326.542 224.136,327.504 228.801,330.864 230.097,331.618 235.504,334.1 236.835,334.569 243.038,336.139 244.256,336.345 251.311,336.97 251.581,333.918 251.805,334.511 252.399,336.63 252.417,336.596 252.444,336.982 259.704,336.481 260.929,336.297 267.275,334.82 268.639,334.365 274.135,331.947 275.483,331.185 280.189,327.863 281.339,326.869 285.317,322.68 286.166,321.612 289.478,316.593 290.035,315.598 292.744,309.786 293.079,308.94 295.247,302.371 295.438,301.691 297.126,294.402 297.23,293.873 298.501,285.9 298.554,285.499 299.47,276.879 299.496,276.582 300.119,267.352 300.13,267.14 300.521,257.337 300.526,257.194 300.748,246.854 300.749,246.77 300.865,235.931 300.865,235.896 300.935,224.594 300.935,224.53 300.909,211.631 300.883,198.732 300.857,185.834 300.832,172.935 300.832,172.935 300.806,160.036 300.754,134.238 300.754,134.238 300.728,121.34 300.651,82.6433 300.651,82.6433 300.625,69.7445 300.547,31.0481 300.547,31.0481 300.537,25.8651 304.574,25.8391 316.328,25.7636 328.081,25.688 339.834,25.6124 351.587,25.5369 363.341,25.4613 375.094,25.3858 386.847,25.3102 410.354,25.1591 422.107,25.0835 433.86,25.008 445.613,24.9324 457.367,24.8568 469.12,24.7813 473.073,24.7559 " fill="none" stroke-width="0.5" stroke="rgb(0,0,0)" />
	<polygon points="192.369,443.731 192.744,444.836 193.278,446.907 194.374,447.149 195.907,447.395 197.387,447.548 198.583,447.595 200.183,447.508 201.671,447.246 202.967,446.821 204.002,446.273 204.799,445.617 205.456,444.766 206.039,443.487 206.16,442.926 202.898,443.169 201.713,443.167 195.494,442.678 194.183,442.461 191.539,441.785 " fill="none" stroke-width="0.5" stroke="rgb(0,0,0)" />
	<polygon points="158.812,437.542 157.713,438.888 154.019,442.5 154.791,442.185 156.875,440.779 158.377,439.163 159.465,437.23 159.851,435.928 " fill="none" stroke-width="0.5" stroke="rgb(0,0,0)" />
	<polygon points="316.592,420.525 315.168,420.829 315.388,421.231 315.882,422.529 316.196,423.567 316.526,425.02 316.588,425.319 316.836,426.649 316.853,426.719 317.608,427.263 318.095,427.644 318.961,428.379 319.828,429.241 320.561,430.096 320.793,430.444 321.114,430.103 321.393,429.822 322.108,429.137 322.5,428.787 323.208,428.195 323.764,427.772 324.464,427.287 325.261,426.804 325.952,426.44 327.029,425.977 326.593,425.149 326.244,423.907 325.954,421.809 325.954,417.439 " fill="none" stroke-width="0.5" stroke="rgb(0,0,0)" />
	<polygon points="166.359,413.514 166.364,414.643 166.044,419.327 166.016,419.526 166.706,419.228 170.161,419.751 170.136,419.036 170.169,418.668 170.467,417.118 170.563,416.799 171.287,415.131 171.445,414.86 172.601,413.342 172.115,413.115 169.479,411.733 168.873,411.38 166.446,409.813 166.049,409.528 " fill="none" stroke-width="0.5" stroke="rgb(0,0,0)" />
	<polygon points="379.193,417.045 379.373,416.997 379.193,416.897 " fill="none" stroke-width="0.5" stroke="rgb(0,0,0)" />
	<polygon points="259.287,403.37 259.011,404.301 258.435,405.716 258.041,406.463 258.608,406.714 261.468,408.142 261.971,408.417 264.754,410.073 265.174,410.342 267.792,412.138 268.176,412.42 270.54,414.265 270.932,414.592 272.954,416.397 273.194,416.63 273.992,416.492 274.315,416.444 275.649,416.271 275.954,416.238 276.995,416.145 268.968,411.394 267.658,410.419 260.557,403.864 259.538,402.717 259.44,402.581 " fill="none" stroke-width="0.5" stroke="rgb(0,0,0)" />
	<polygon points="350.23,395.648 349.515,396.842 348.624,398.066 352.859,397.829 353.571,397.822 353.892,397.834 353.625,397.597 352.646,396.478 351.845,395.383 351.018,394.014 " fill="none" stroke-width="0.5" stroke="rgb(0,0,0)" />
	<polygon points="309.087,394.517 308.508,394.687 305.296,395.496 305.292,395.497 307.524,395.404 309.767,395.109 309.46,394.681 309.38,394.418 " fill="none" stroke-width="0.5" stroke="rgb(0,0,0)" />
	<polygon points="203.745,391.638 204.224,392.706 204.823,394.366 205.826,392.883 207.613,391.012 209.677,389.473 207.199,389.692 205.664,389.676 202.49,389.326 " fill="none" stroke-width="0.5" stroke="rgb(0,0,0)" />
	<polygon points="243.099,374.721 243.619,375.069 244.891,376.134 245.634,376.905 245.749,377.049 246.256,377.063 246.883,377.126 246.327,375.074 246.088,373.739 245.845,371.029 " fill="none" stroke-width="0.5" stroke="rgb(0,0,0)" />
	<polygon points="83.6072,367.53 82.7656,367.641 81.8339,367.708 80.0737,367.726 80.7342,369.397 81.3922,373.742 83.3525,371.996 84.3578,371.237 86.1569,370.097 85.3735,369.429 84.3561,368.382 83.6653,367.521 " fill="none" stroke-width="0.5" stroke="rgb(0,0,0)" />
	<polygon points="357.511,370.527 357.445,371.17 358.663,370.753 359.175,370.601 358.456,370.132 357.092,369.034 " fill="none" stroke-width="0.5" stroke="rgb(0,0,0)" />
	<polygon points="324.431,368.66 326.22,368.544 325.005,367.751 " fill="none" stroke-width="0.5" stroke="rgb(0,0,0)" />
	<polygon points="117.712,357.976 117.301,360.166 116.856,361.672 116.79,361.832 120.553,361.492 120.76,361.494 119.789,360.412 119.122,359.441 118.139,357.452 117.839,356.529 " fill="none" stroke-width="0.5" stroke="rgb(0,0,0)" />
	<polygon points="294.267,359.026 293.587,359.24 294.61,359.999 294.78,360.129 295.778,360.913 295.773,360.858 295.748,359.767 295.8,358.661 295.83,358.321 " fill="none" stroke-width="0.5" stroke="rgb(0,0,0)" />
	<polygon points="394.06,342.374 393.379,342.864 392.357,343.516 390.387,344.417 389.551,344.664 387.791,344.809 388.684,347.339 389.077,349.043 389.086,349.128 392.909,345.925 394.768,344.771 396.941,343.815 396.254,342.987 396.078,342.768 395.119,341.523 " fill="none" stroke-width="0.5" stroke="rgb(0,0,0)" />
	<polygon points="59.0165,341.909 61.574,346.023 62.0554,343.794 62.5673,342.241 63.4957,340.184 63.57,340.055 62.5023,339.826 61.4568,339.523 58.9881,338.617 58.5918,338.427 " fill="none" stroke-width="0.5" stroke="rgb(0,0,0)" />
	<polygon points="165.39,323.467 165.159,324.777 164.409,327.592 163.956,328.845 162.719,331.525 162.021,332.736 160.307,335.173 159.324,336.316 157.143,338.4 155.851,339.397 153.786,340.669 155.852,341.921 156.778,342.58 159.127,344.526 159.832,345.193 159.797,344.322 159.855,342.539 159.891,342.01 160.07,340.245 160.156,339.637 160.462,337.96 160.639,337.204 161.078,335.68 161.442,334.681 162.021,333.378 162.797,332.02 163.521,331.006 165.174,329.314 166.049,328.656 168.553,327.498 166.634,324.593 165.875,323.122 165.505,322.169 " fill="none" stroke-width="0.5" stroke="rgb(0,0,0)" />
	<polygon points="415.61,333.505 413.886,333.692 413.945,334.021 413.966,334.142 414.19,335.511 414.232,335.802 414.39,337.072 414.439,337.619 414.499,338.748 414.506,339.383 414.497,339.717 414.46,340.281 414.426,340.616 414.42,340.651 418.16,340.97 418.732,341.068 417.192,338.07 416.116,333.409 " fill="none" stroke-width="0.5" stroke="rgb(0,0,0)" />
	<polygon points="128.285,338.904 128.816,338.689 128.291,338.221 " fill="none" stroke-width="0.5" stroke="rgb(0,0,0)" />
	<polygon points="384.403,314.658 383.822,316.251 383.643,317.174 383.449,319.297 383.276,322.216 383.605,321.379 384.455,318.765 384.993,316.346 385.195,313.922 385.178,312.987 " fill="none" stroke-width="0.5" stroke="rgb(0,0,0)" />
	<polygon points="75.5114,312.183 74.6141,315.624 74.3226,318.323 74.3496,319.279 74.4666,320.388 74.675,321.371 74.9368,322.131 75.4684,321.266 76.3725,320.071 77.7902,318.532 78.9072,317.533 80.6082,316.286 81.8801,315.529 82.1129,315.419 80.9835,314.832 79.7196,314.011 78.2905,312.87 77.1834,311.788 76.1138,310.51 " fill="none" stroke-width="0.5" stroke="rgb(0,0,0)" />
	<polygon points="350.745,321.491 350.914,321.143 351.119,320.762 350.169,320.492 349.433,320.221 " fill="none" stroke-width="0.5" stroke="rgb(0,0,0)" />
	<polygon points="343.162,314.702 342.736,315.134 344.087,316.055 343.448,314.323 " fill="none" stroke-width="0.5" stroke="rgb(0,0,0)" />
	<polygon points="132.973,307.032 132.971,307.453 134.028,307.334 134.208,307.351 134.805,307.489 134.6,307.063 132.694,303.869 " fill="none" stroke-width="0.5" stroke="rgb(0,0,0)" />
	<polygon points="162.536,298.632 161.019,298.991 159.836,299.148 158.176,299.188 158.089,299.181 158.821,300.305 159.256,301.063 162.277,307.096 162.416,304.482 162.504,303.66 162.996,300.613 163.169,299.815 163.589,298.268 " fill="none" stroke-width="0.5" stroke="rgb(0,0,0)" />
	<polygon points="434.47,295.371 434.159,295.787 434.695,296.077 434.478,295.36 " fill="none" stroke-width="0.5" stroke="rgb(0,0,0)" />
	<polygon points="458.627,289.716 457.788,290.411 456.64,291.798 456.603,291.855 459.718,292.356 459.711,292.219 459.533,291.002 459.251,289.916 459.084,289.505 " fill="none" stroke-width="0.5" stroke="rgb(0,0,0)" />
	<polygon points="86.2797,288.739 86.1806,288.93 87.0793,289.402 87.6009,289.817 87.9495,290.134 88.178,289.023 88.4856,285.794 88.5358,284.395 " fill="none" stroke-width="0.5" stroke="rgb(0,0,0)" />
	<polygon points="157.039,228.293 156.754,228.878 157.695,229.944 158.521,233.767 158.461,235.194 158.439,235.54 158.28,237.362 158.264,237.524 158.039,239.596 158.03,239.672 157.773,241.848 157.771,241.865 157.516,243.98 157.301,245.844 157.165,247.222 157.135,247.793 158.141,248.374 160.149,251.757 160.615,253.382 160.761,253.984 161.127,255.794 161.193,256.168 161.484,258.097 161.513,258.305 161.757,260.283 161.766,260.354 161.986,262.281 162.197,264.008 162.223,264.178 162.609,264.301 162.982,264.754 163.066,261.713 164.207,257.74 165.686,254.938 167.772,252.417 166.36,252.725 162.624,251.589 159.916,248.776 159.093,243.369 159.33,242.251 159.533,241.2 159.71,240.156 159.861,239.119 159.981,238.087 160.07,237.061 160.125,236.04 160.141,235.138 160.051,233.287 159.778,231.567 159.285,229.845 158.518,228.071 157.829,226.919 " fill="none" stroke-width="0.5" stroke="rgb(0,0,0)" />
	<polygon points="131.114,252.606 132.042,251.566 131.765,250.421 131.132,248.371 130.324,245.943 130.305,245.887 130.08,245.192 " fill="none" stroke-width="0.5" stroke="rgb(0,0,0)" />
	<polygon points="382.906,246.605 382.028,247.911 381.204,248.904 380.085,250.003 379.08,250.808 378.504,251.182 378.822,251.571 379.52,250.914 380.38,250.212 381.506,249.42 383.811,248.315 384.441,248.133 382.931,246.557 " fill="none" stroke-width="0.5" stroke="rgb(0,0,0)" />
	<polygon points="327.666,236.263 326.099,236.263 324.949,236.145 325.042,236.218 326.926,238.347 329.121,242.012 329.824,241.661 330.836,241.271 330.477,240.611 329.886,239.213 329.181,236.953 329.013,236.127 " fill="none" stroke-width="0.5" stroke="rgb(0,0,0)" />
	<polygon points="312.638,226.409 310.78,226.996 309.948,227.169 310.783,228.109 312.862,229.346 315.079,230.309 314.313,229.174 313.667,227.988 313.076,226.592 312.974,226.265 " fill="none" stroke-width="0.5" stroke="rgb(0,0,0)" />
	<polygon points="464.585,226.686 464.581,226.704 464.231,228.606 464.589,227.225 464.696,226.073 " fill="none" stroke-width="0.5" stroke="rgb(0,0,0)" />
	<polygon points="86.7335,213.4 87.5968,214.257 88.0596,214.839 88.8778,216.102 89.234,216.79 89.7159,217.938 89.9677,218.706 90.2282,219.733 90.3777,220.554 90.4887,221.481 90.7023,221.376 92.8543,220.68 93.5832,220.557 95.9466,220.526 96.5904,220.617 98.6706,221.215 99.2823,221.488 99.7497,221.775 99.8509,220.412 100.022,219.268 100.84,215.672 97.9817,215.986 96.2738,215.985 93.0846,215.629 91.3463,215.228 88.4821,214.209 86.8964,213.431 86.7698,213.349 " fill="none" stroke-width="0.5" stroke="rgb(0,0,0)" />
	<polygon points="438.484,213.217 437.884,213.387 432.763,214.618 432.061,214.752 427.532,215.407 427.991,215.702 431.684,218.766 432.89,220.021 433.633,220.991 433.826,220.541 434.569,219.199 437.092,215.545 437.828,214.634 439.466,212.896 " fill="none" stroke-width="0.5" stroke="rgb(0,0,0)" />
	<polygon points="65.6064,216.301 66.0111,216.568 66.528,217.035 67.8392,218.579 68.2389,219.198 68.2475,219.215 69.2841,217.451 68.1506,217.155 66.8188,216.672 65.7025,216.148 " fill="none" stroke-width="0.5" stroke="rgb(0,0,0)" />
	<polygon points="189.963,214.092 191.171,216.492 191.271,216.76 193.498,216.224 193.183,215.623 192.651,215.011 191.822,214.405 190.474,213.784 189.594,213.541 " fill="none" stroke-width="0.5" stroke="rgb(0,0,0)" />
	<polygon points="381.861,201.914 381.179,203.161 380.349,204.385 379.798,205.05 380.44,205.579 380.933,206.072 382.921,203.618 383.861,203.242 381.956,201.689 " fill="none" stroke-width="0.5" stroke="rgb(0,0,0)" />
	<polygon points="365.448,171.257 366.202,172.634 366.797,174.03 367.455,176.123 367.772,177.656 368.001,179.896 368.001,180.309 368.808,180.308 366.319,172.344 366.088,171.405 365.995,170.888 " fill="none" stroke-width="0.5" stroke="rgb(0,0,0)" />
	<polygon points="146.689,175.916 145.662,176.188 145.346,176.249 146.869,177.705 147.533,175.629 " fill="none" stroke-width="0.5" stroke="rgb(0,0,0)" />
	<polygon points="108.06,164.158 107.025,165.014 105.797,165.845 104.611,166.492 103.214,167.085 101.906,167.495 101.54,167.57 104.649,169.681 105.444,170.301 108.443,172.967 109.235,173.784 111.824,176.877 112.001,177.129 112.736,175.777 113.824,174.25 115.21,172.733 116.091,171.997 115.723,171.728 112.829,169.084 111.751,167.868 109.529,164.757 108.78,163.458 108.773,163.444 " fill="none" stroke-width="0.5" stroke="rgb(0,0,0)" />
	<polygon points="424.1,143.565 422.668,145.279 419.926,147.731 418.592,148.69 416.635,149.803 417.236,149.857 418.738,150.144 425.157,152.041 426.588,152.625 432.274,155.636 432.426,155.734 430.923,150.494 430.849,147.486 430.006,147.191 428.327,146.453 426.952,145.673 425.592,144.706 424.194,143.414 " fill="none" stroke-width="0.5" stroke="rgb(0,0,0)" />
	<polygon points="355.555,144.97 356.891,144.836 358.443,144.836 359.783,144.971 361.302,145.279 362.311,145.592 358.084,141.895 357.147,140.918 356.067,139.574 " fill="none" stroke-width="0.5" stroke="rgb(0,0,0)" />
	<polygon points="126.98,138.151 127.4,139.405 127.878,141.699 127.918,141.913 128.207,140.91 128.465,139.869 128.677,138.849 128.842,137.864 128.928,137.16 " fill="none" stroke-width="0.5" stroke="rgb(0,0,0)" />
	<polygon points="313.986,125.486 312.933,125.977 312.026,126.602 311.281,127.316 310.726,128.052 310.381,128.709 310.002,129.905 309.159,131.246 309.178,131.257 310.04,131.605 310.875,131.838 311.758,131.979 312.825,132.033 313.067,132.026 313.514,131.991 314.073,131.93 314.715,131.847 315.396,131.755 315.459,131.747 315.683,131.719 315.39,131.247 315.206,130.892 314.759,129.851 314.629,129.477 314.35,128.441 314.274,128.055 314.144,127.05 314.12,126.657 314.144,125.444 " fill="none" stroke-width="0.5" stroke="rgb(0,0,0)" />
	<polygon points="92.7946,115.255 92.2839,115.689 90.0207,117.452 88.9052,118.176 86.567,119.423 84.4178,120.189 82.0165,120.662 81.3262,120.692 81.4534,122.926 81.464,123.539 81.4325,124.954 81.4758,124.925 82.6619,124.277 84.0605,123.683 85.3694,123.274 86.899,122.96 88.3021,122.817 89.8724,122.816 91.2775,122.959 92.8051,123.273 94.1159,123.682 94.5172,123.853 93.9002,119.239 93.8797,119.072 93.3917,114.7 " fill="none" stroke-width="0.5" stroke="rgb(0,0,0)" />
	<polygon points="185.671,111.452 185.423,112.518 185.193,113.262 184.662,114.553 184.325,115.199 183.358,116.636 182.908,117.167 181.43,118.509 180.856,118.908 179.034,119.846 178.33,120.098 176.523,120.508 175.679,120.596 175.04,120.545 175.222,120.916 176.774,124.947 179.51,123.045 180.457,122.481 183.578,120.915 184.789,120.43 188.011,119.445 189.479,119.147 192.118,118.874 187.89,113.881 187.637,113.566 185.733,111.063 " fill="none" stroke-width="0.5" stroke="rgb(0,0,0)" />
	<polygon points="125.376,112.46 124.628,115.449 125.455,114.478 126.346,113.589 126.513,113.447 126.289,113.244 125.419,112.304 " fill="none" stroke-width="0.5" stroke="rgb(0,0,0)" />
	<polygon points="416.526,106.344 416.507,105.106 416.819,104.527 416.313,104.522 416.162,104.519 414.483,104.47 " fill="none" stroke-width="0.5" stroke="rgb(0,0,0)" />
	<polygon points="393.775,102.995 394.581,104.018 395.229,105.001 396.503,104.584 398.1,103.982 399.529,103.429 398.641,103.336 398.496,103.32 395.07,102.895 394.924,102.875 393.469,102.667 " fill="none" stroke-width="0.5" stroke="rgb(0,0,0)" />
	<polygon points="146.301,104.504 148.798,104.321 146.644,102.588 " fill="none" stroke-width="0.5" stroke="rgb(0,0,0)" />
	<polygon points="383.369,98.3296 383.439,98.3274 384.692,98.4027 384.21,97.7001 " fill="none" stroke-width="0.5" stroke="rgb(0,0,0)" />
	<polygon points="66.6142,96.3512 68.7003,97.3131 68.9855,97.4968 69.0825,96.7502 69.084,96.7391 69.3224,94.9258 " fill="none" stroke-width="0.5" stroke="rgb(0,0,0)" />
	<polygon points="127.247,64.0066 126.519,67.4605 126.413,67.8999 125.566,71.007 125.277,71.744 125.811,72.0897 125.819,72.0463 126.116,70.914 126.377,70.156 127.23,68.4233 127.599,67.8618 129.277,66.131 127.692,63.9249 127.369,63.4976 " fill="none" stroke-width="0.5" stroke="rgb(0,0,0)" />
	<polygon points="103.755,62.6655 101.915,64.2405 101.723,64.4003 99.9412,65.8283 99.1979,66.3554 97.7111,67.2836 97.782,67.5305 98.0079,68.5919 98.1156,69.3585 98.1716,69.9835 100.039,68.8808 102.097,68.1673 105.321,67.9121 105.195,66.3995 105.174,66.0751 105.033,62.6602 104.941,61.7 " fill="none" stroke-width="0.5" stroke="rgb(0,0,0)" />
	<polygon points="410.728,62.7349 411.171,63.1338 412.792,64.7092 414.506,66.3184 416.193,67.6732 417.814,68.6575 419.335,69.2297 421.215,69.467 421.279,69.464 421.744,69.3934 422.073,69.2971 422.09,69.2493 422.109,69.0696 421.827,68.1324 420.5,66.7618 417.115,64.7592 412.433,62.8195 409.768,61.936 " fill="none" stroke-width="0.5" stroke="rgb(0,0,0)" />
	<polygon points="401.725,59.5226 402.014,59.4687 401.725,59.3641 " fill="none" stroke-width="0.5" stroke="rgb(0,0,0)" />
	<polygon points="163.365,48.6404 164.169,48.914 163.554,48.3023 " fill="none" stroke-width="0.5" stroke="rgb(0,0,0)" />
	<polygon points="397.63,39.0764 398.266,40.6015 398.571,41.6325 399.544,41.1438 400.491,40.7446 403.463,39.718 403.97,39.5621 406.939,38.7593 406.425,38.4876 402.193,36.8834 398.254,35.7629 395.427,35.0554 " fill="none" stroke-width="0.5" stroke="rgb(0,0,0)" />
	<polygon points="152.121,30.6311 152.477,30.8535 152.443,30.4452 " fill="none" stroke-width="0.5" stroke="rgb(0,0,0)" />
	<polygon points="82.8057,29.4607 82.8991,29.4261 82.8405,29.367 " fill="none" stroke-width="0.5" stroke="rgb(0,0,0)" />
</svg>
