<?xml version="1.0" standalone="no" ?>
<!DOCTYPE svg PUBLIC "-//W3C//DTD SVG 1.1//EN" "http://www.w3.org/Graphics/SVG/1.1/DTD/svg11.dtd">
<svg width="500px" height="500px" xmlns="http://www.w3.org/2000/svg" version="1.1" >
	<polygon points="480.823,81.447 479.942,82.9046 474.627,89.3766 472.86,91.0376 469.5,93.4668 470.622,93.807 472.717,94.659 474.432,95.5718 476.155,96.7309 477.71,98.0407 479.079,99.4721 480.285,101.03 480.823,101.9 480.823,192.011 479.506,193.536 477.927,194.61 476.195,195.275 479.588,199.04 480.633,200.442 480.823,200.753 480.823,247.94 480.201,248.999 479.733,249.72 477.987,252.154 478.643,252.302 479.902,252.751 480.823,253.222 480.823,281.286 479.986,296.199 477.664,299.072 476.9,299.909 474.619,302.125 474.831,302.458 476.746,306.125 477.302,307.414 477.943,309.269 477.405,312.666 473.11,329.62 467.07,347.047 459.27,364.67 454.617,373.195 451.199,373.495 450.977,373.408 451.464,378.642 451.452,378.994 449.695,382.213 438.331,399.399 425.161,415.952 410.17,431.593 400.362,440.019 398.774,439.521 397.737,439.031 397.713,439.517 397.14,442.787 393.345,446.047 374.668,459.037 354.126,470.285 331.702,479.516 321.236,482.501 320.231,482.104 317.568,480.727 315.95,479.667 315.554,479.345 315.231,482.101 314.834,483.574 314.39,484.454 307.382,486.452 281.151,490.817 264.679,491.704 263.832,491.012 263.46,490.652 263.399,490.683 262.868,490.933 260.581,491.925 252.993,492.333 225.548,490.902 199.887,486.773 176.939,480.449 174.34,478.623 171.558,477.058 170.018,476.614 167.219,476.337 166.162,476.279 153.907,471.407 133.585,460.665 127.566,456.624 126.305,454.657 126.129,453.056 125.813,453.053 121.562,452.592 115.039,448.212 98.2672,434.295 83.2685,419.161 70.0408,403.057 68.8839,401.358 68.8794,401.323 68.8365,399.399 68.8812,398.84 66.2526,397.494 58.5824,386.23 48.8916,368.927 40.9666,351.394 34.8057,333.879 33.4541,328.578 36.1151,320.007 36.6532,318.652 38.3581,315.171 37.1582,315.147 35.1891,314.527 31.3439,312.195 29.5253,310.377 29.395,310.204 27.7694,299.888 26.8905,283.906 26.8905,233.802 27.6908,231.963 28.7874,230.075 28.843,230.001 27.4799,229.216 26.8905,228.754 26.8905,160.399 27.9012,157.581 28.5069,156.235 30.9334,151.802 31.9484,150.307 33.0234,149.011 31.9469,148.579 29.6606,147.393 28.0981,146.374 26.8905,145.405 26.8905,109.505 27.6293,108.873 28.0186,108.589 26.9514,107.749 26.8905,107.689 26.8905,88.4838 27.0058,88.3096 26.8905,88.271 26.8905,39.9308 30.3809,37.3747 30.8404,37.0586 32.8867,35.7382 29.9723,34.82 28.5476,34.2399 26.8905,33.402 26.8905,19.5757 38.3822,19.4875 49.8739,19.3993 61.3656,19.3111 72.8572,19.223 84.3489,19.1348 95.8406,19.0466 107.332,18.9584 117.888,18.8774 118.835,20.0124 118.863,19.9871 119.883,18.8621 130.316,18.7821 141.807,18.6939 153.299,18.6057 158.156,18.5685 158.378,19.2463 158.464,19.1846 159.551,18.5578 164.791,18.5175 176.282,18.4294 187.774,18.3412 210.757,18.1648 210.732,31.0636 210.706,43.9624 210.681,56.8612 210.656,69.76 210.63,82.6588 210.622,86.8088 210.525,86.8606 209.655,87.2244 208.111,87.7193 207.107,87.948 206.222,88.0793 209.645,90.9286 209.964,91.207 210.612,91.7972 210.579,108.456 210.554,121.355 210.503,147.153 210.478,160.052 210.452,172.95 210.44,179.061 210.386,179.16 209.486,180.518 207.705,182.76 206.513,184.007 204.446,185.808 206.261,187.051 207.72,188.286 209.693,190.332 210.416,191.265 210.401,198.748 210.376,211.647 210.359,220.144 209.648,221.291 208.696,222.244 210.2,223.635 210.352,223.791 210.35,224.546 210.438,235.84 210.602,246.657 210.899,256.963 211.302,265.069 209.528,267.215 208.082,269.14 207.995,269.302 208.799,270.115 210.94,271.918 211.103,272.059 211.86,272.726 212.112,275.909 213.138,284.482 214.519,292.41 216.308,299.661 218.563,306.2 221.336,311.994 224.685,317.011 228.665,321.215 233.33,324.575 238.737,327.056 244.939,328.626 251.23,329.182 251.342,329.367 252.769,332.321 253.138,331.63 254.124,330.14 255.015,329.036 259.171,328.749 265.518,327.271 271.013,324.853 275.719,321.532 279.698,317.343 283.01,312.324 285.72,306.511 287.888,299.942 289.576,292.653 290.848,284.68 291.763,276.06 292.384,266.869 293.752,265.796 294.194,265.528 292.929,264.442 292.501,263.946 292.778,257.028 293,246.688 293.115,235.848 293.185,224.546 293.159,211.647 293.133,198.748 293.128,195.861 293.413,195.575 294.891,194.348 295.524,193.917 295.341,193.646 294.694,192.459 293.971,190.756 293.562,189.446 293.179,187.583 293.11,186.898 293.107,185.849 293.103,183.611 293.179,182.861 293.562,180.997 293.972,179.689 294.695,177.986 295.342,176.8 296.057,175.744 294.517,174.745 293.104,173.433 293.083,173.408 293.082,172.95 293.056,160.052 293.004,134.254 292.978,121.355 292.964,114.489 293.261,113.339 293.815,111.777 295.129,108.9 296.028,107.343 296.073,107.279 295.99,107.274 294.581,107.078 294.43,107.046 292.948,106.486 292.901,82.6588 292.875,69.76 292.797,31.0636 292.771,18.1648 304.525,18.0893 316.278,18.0137 328.031,17.9382 339.784,17.8626 351.538,17.787 363.291,17.7115 375.044,17.6359 380.714,17.5995 381.389,17.9962 385.697,21.1588 386.49,19.5362 387.116,18.8082 388.772,17.5477 410.304,17.4092 422.057,17.3337 433.81,17.2581 444.162,17.1916 445.275,18.2085 446.113,17.179 457.317,17.107 469.07,17.0314 480.823,16.9559 " fill="none" stroke-width="0.5" stroke="rgb(0,0,0)" />
	<polygon points="307.498,468.205 307.516,468.213 307.509,468.189 " fill="none" stroke-width="0.5" stroke="rgb(0,0,0)" />
	<polygon points="194.39,444.412 194.663,445.472 194.692,445.478 196.13,445.709 197.508,445.852 198.57,445.893 199.988,445.816 201.257,445.592 202.3,445.251 203.03,444.864 203.024,444.865 201.579,444.862 195.361,444.373 194.318,444.2 " fill="none" stroke-width="0.5" stroke="rgb(0,0,0)" />
	<polygon points="317.498,422.016 317.854,423.19 318.184,424.643 318.259,425.007 318.395,425.735 318.602,425.884 319.195,426.348 320.061,427.083 320.912,427.929 320.933,427.909 321.41,427.482 322.119,426.89 322.796,426.375 323.496,425.89 324.468,425.3 324.818,425.116 324.608,424.368 324.254,421.809 324.254,419.79 " fill="none" stroke-width="0.5" stroke="rgb(0,0,0)" />
	<polygon points="168.054,413.382 168.06,414.759 167.861,417.669 168.649,417.616 168.839,416.629 168.935,416.31 169.818,414.275 169.976,414.005 170.026,413.939 168.69,413.239 168.012,412.844 " fill="none" stroke-width="0.5" stroke="rgb(0,0,0)" />
	<polygon points="82.4487,369.365 82.6105,370.433 83.4061,369.833 83.0305,369.446 82.9376,369.33 " fill="none" stroke-width="0.5" stroke="rgb(0,0,0)" />
	<polygon points="60.6585,341.331 60.9387,341.781 61.0179,341.541 61.1694,341.206 60.8709,341.119 60.6215,341.028 " fill="none" stroke-width="0.5" stroke="rgb(0,0,0)" />
	<polygon points="158.317,339.629 156.993,340.652 157.862,341.271 158.226,341.572 158.378,340.074 158.461,339.492 " fill="none" stroke-width="0.5" stroke="rgb(0,0,0)" />
	<polygon points="76.2908,315.931 76.0805,317.879 76.54,317.38 77.902,316.162 78.8526,315.465 78.6589,315.339 77.2299,314.198 76.8416,313.819 " fill="none" stroke-width="0.5" stroke="rgb(0,0,0)" />
	<polygon points="161.242,300.677 160.981,300.711 161.191,301.131 161.265,300.671 " fill="none" stroke-width="0.5" stroke="rgb(0,0,0)" />
	<polygon points="162.428,253.647 162.793,255.458 162.873,255.914 162.966,256.526 164.358,253.89 162.536,253.477 162.349,253.325 " fill="none" stroke-width="0.5" stroke="rgb(0,0,0)" />
	<polygon points="91.3312,217.408 91.5831,218.176 91.852,219.236 92.5728,219.003 93.3018,218.881 96.1835,218.843 96.8273,218.933 98.2951,219.355 98.3647,218.891 98.6531,217.622 98.1676,217.676 96.0852,217.674 92.896,217.318 91.1217,216.909 " fill="none" stroke-width="0.5" stroke="rgb(0,0,0)" />
	<polygon points="433.16,216.27 432.304,216.435 431.65,216.529 432.769,217.458 433.314,218.024 434.796,215.877 " fill="none" stroke-width="0.5" stroke="rgb(0,0,0)" />
	<polygon points="108.109,166.324 106.611,167.338 105.425,167.985 105.272,168.05 105.604,168.275 106.574,169.03 109.572,171.697 110.539,172.693 111.794,174.192 112.569,173.103 113.542,172.039 111.682,170.339 110.368,168.856 108.392,166.09 " fill="none" stroke-width="0.5" stroke="rgb(0,0,0)" />
	<polygon points="423.801,146.546 421.06,148.998 421.001,149.04 425.639,150.411 427.384,151.122 429.684,152.341 429.289,150.963 429.178,148.685 427.643,148.01 425.966,147.058 424.607,146.091 424.367,145.869 " fill="none" stroke-width="0.5" stroke="rgb(0,0,0)" />
	<polygon points="312.556,128.449 312.167,128.965 311.956,129.366 311.678,130.245 311.935,130.286 312.842,130.332 312.975,130.328 313.121,130.317 313.023,130.032 312.682,128.769 312.609,128.398 " fill="none" stroke-width="0.5" stroke="rgb(0,0,0)" />
	<polygon points="177.47,122.024 177.582,122.315 178.257,121.845 " fill="none" stroke-width="0.5" stroke="rgb(0,0,0)" />
	<polygon points="83.1136,122.178 83.1174,122.246 83.4169,122.119 " fill="none" stroke-width="0.5" stroke="rgb(0,0,0)" />
	<polygon points="91.0654,118.793 89.7051,119.676 87.367,120.923 85.9514,121.427 86.7267,121.268 88.1297,121.125 90.0446,121.125 91.4496,121.268 92.4848,121.48 92.2152,119.465 92.1901,119.26 92.0522,118.024 " fill="none" stroke-width="0.5" stroke="rgb(0,0,0)" />
	<polygon points="186.169,115.339 185.833,115.984 184.654,117.737 184.203,118.267 183.076,119.291 184.292,118.804 187.514,117.819 188.78,117.562 186.593,114.98 186.411,114.752 " fill="none" stroke-width="0.5" stroke="rgb(0,0,0)" />
	<polygon points="103.021,65.5319 102.786,65.7268 101.775,66.5368 103.489,66.3593 103.476,66.1456 103.436,65.177 " fill="none" stroke-width="0.5" stroke="rgb(0,0,0)" />
	<polygon points="399.121,38.2594 399.554,39.2988 399.936,39.1377 401.719,38.5219 401.658,38.4987 398.808,37.6881 " fill="none" stroke-width="0.5" stroke="rgb(0,0,0)" />
</svg>
