<?xml version="1.0" standalone="no" ?>
<!DOCTYPE svg PUBLIC "-//W3C//DTD SVG 1.1//EN" "http://www.w3.org/Graphics/SVG/1.1/DTD/svg11.dtd">
<svg width="500px" height="500px" xmlns="http://www.w3.org/2000/svg" version="1.1" >
	<polygon points="480.823,17.258 480.823,26.4991 480.487,26.7352 479.638,27.5435 478.929,28.4304 478.361,29.3564 477.939,30.265 477.664,31.0802 477.531,31.696 477.507,31.9977 477.655,33.9512 478.089,36.0571 478.786,38.516 479.644,41.3691 479.686,41.5186 480.555,44.77 480.626,45.0746 480.823,46.0499 480.823,70.2804 480.652,70.9195 477.291,78.8731 476.542,80.1121 471.227,86.5841 470.283,87.4717 463.249,92.556 462.344,93.077 453.827,96.8678 453.069,97.1352 451.477,97.5576 453.246,97.3742 454.19,97.3651 455.498,97.4751 456.468,97.6533 457.551,97.9641 458.602,98.399 459.475,98.8817 460.352,99.5146 460.492,99.0808 463.035,97.2415 465.592,97.1037 468.078,97.6142 468.964,97.8829 471.06,98.7349 471.976,99.2227 473.699,100.382 474.53,101.082 475.899,102.513 476.544,103.346 477.577,105.015 478,105.871 478.716,107.743 478.946,108.537 479.362,110.579 479.454,111.275 479.589,113.45 479.539,114.537 478.789,119.369 478.415,120.642 476.464,125.042 476.823,125.068 478.475,125.988 479.875,127.139 480.823,128.26 480.823,182.688 480.399,184.283 480.062,185.192 478.734,187.927 477.031,189.897 475.452,190.972 471.407,191.7 468.073,190.881 466.759,190.354 462.189,187.723 461.624,187.345 456.301,183.241 455.931,182.926 450.338,177.682 450.019,177.355 447.859,174.927 451.726,180.23 451.783,180.31 455.866,186.144 458.308,187.582 458.32,187.589 462.382,189.996 462.626,190.151 467.015,193.103 467.424,193.409 471.793,197.04 472.317,197.544 476.319,201.986 476.878,202.734 480.166,208.12 480.63,209.106 480.823,209.667 480.823,238.624 480.292,240.019 479.927,240.779 476.407,246.771 476.157,247.156 471.972,252.991 471.91,253.076 468.812,257.212 470.032,256.728 472.963,256.11 474.528,256.029 475.997,256.182 477.167,256.447 478.426,256.896 479.6,257.497 480.654,258.224 480.823,258.376 480.823,281.286 480.5,287.037 479.581,288.836 479.331,289.27 477.138,292.676 476.819,293.117 474.242,296.306 473.834,296.753 470.875,299.627 468.277,300.899 470.468,303.767 470.931,304.495 472.846,308.162 473.143,308.851 474.587,313.031 474.767,313.695 475.679,318.276 475.765,318.933 475.776,319.097 473.11,329.62 467.07,347.047 459.328,364.539 456.093,367.734 453.286,369.137 450.192,368.61 447.569,365.003 446.442,358.499 444.136,354.858 440.569,352.081 435.798,349.689 430.592,347.372 430.091,347.115 425.462,344.4 424.225,343.381 420.953,339.664 419.823,337.463 418.582,332.09 418.473,330.499 418.561,329.534 417.38,330.321 416.117,330.669 415.319,330.821 413.532,331.014 413.355,331.031 411.387,331.174 410.715,331.244 410.785,331.686 411.032,333.077 411.288,334.499 411.301,334.578 411.525,335.947 411.552,336.137 411.711,337.406 411.742,337.763 411.803,338.892 411.808,339.305 411.798,339.639 411.774,340.007 411.74,340.342 411.66,340.857 411.593,341.179 411.392,341.883 411.284,342.179 410.838,343.098 410.699,343.323 411.557,343.221 412.583,343.204 417.93,343.66 418.781,343.806 424.075,345.193 424.927,345.5 429.964,347.845 430.805,348.341 435.383,351.673 436.164,352.377 440.078,356.724 440.721,357.618 443.769,363.009 444.202,364.016 446.179,370.479 446.379,371.488 447.083,379.05 447.041,380.319 445.788,388.122 438.331,399.399 425.161,415.952 410.17,431.593 404.999,436.035 403.489,436.211 401.973,435.956 400.654,435.542 399.161,434.837 398.28,434.305 396.865,433.24 396.259,432.702 394.978,431.366 394.526,430.824 393.433,429.308 393.064,428.715 392.215,427.109 391.902,426.385 391.352,424.779 391.121,423.789 390.925,422.274 390.894,421.313 390.923,420.839 391.026,420.092 391.134,419.592 391.4,418.732 391.615,418.211 391.742,417.97 389.11,417.69 388.199,417.506 384.638,416.442 383.925,416.168 380.586,414.589 380.007,414.266 377.009,412.33 376.5,411.954 376.224,411.722 376.401,412.635 376.493,413.597 376.493,417.615 376.492,417.733 376.475,418.457 376.46,418.738 376.404,419.453 376.363,419.807 376.269,420.431 379.372,419.594 380.942,419.778 382.006,420.021 383.638,420.586 384.584,421.027 386.195,421.993 387.02,422.61 388.527,423.997 389.204,424.76 390.521,426.59 391.018,427.446 392.063,429.738 392.37,430.617 393.058,433.391 393.193,434.226 393.441,437.504 393.379,438.757 392.265,445.111 391.807,446.497 391.333,447.446 374.668,459.037 354.126,470.285 331.702,479.516 330.359,479.899 327.248,479.626 326.31,479.453 323.191,478.567 322.252,478.195 319.589,476.818 318.724,476.252 316.525,474.466 315.797,473.74 314.072,471.627 313.516,470.788 312.272,468.429 311.9,467.517 311.148,464.994 310.961,464.038 310.708,461.433 310.695,460.615 310.936,456.931 311.013,456.326 311.684,452.761 311.81,452.243 312.833,448.838 312.988,448.398 313.764,446.477 313.473,446.574 312.721,446.758 311.945,446.886 311.537,446.921 311.265,447.71 310.11,451.814 310.063,451.972 308.554,456.735 308.375,457.212 306.341,461.918 305.883,462.752 303.117,466.824 302.027,467.983 298.32,470.848 296.33,471.781 292.478,472.64 292.843,472.658 295.372,472.631 297.279,472.558 298.602,472.46 299.514,472.354 300.248,472.242 300.943,472.132 301.178,472.101 301.894,472.021 302.273,471.994 303.137,471.964 303.716,471.977 304.586,472.047 305.581,472.228 306.25,472.42 307.417,472.923 307.911,473.214 309.017,474.096 309.362,474.461 310.141,475.541 310.363,475.956 310.767,476.949 310.893,477.388 311.048,478.14 311.105,478.579 311.143,479.064 311.156,479.479 310.984,480.953 310.586,482.426 309.67,484.243 308.491,485.732 307.901,486.304 307.382,486.452 281.151,490.817 272.38,491.289 272.017,491.152 271.292,490.809 269.121,489.564 268.441,489.095 266.615,487.604 266.01,487.019 264.532,485.332 264.444,485.213 261.402,486.763 261.118,486.896 256.953,488.702 256.659,488.819 252.234,490.415 251.918,490.518 247.288,491.852 246.942,491.939 246.645,492.002 225.548,490.902 199.887,486.773 190.365,484.149 185.794,481.32 185.527,481.142 180.765,477.76 176.689,474.896 173.268,472.972 170.85,472.275 167.557,471.949 163.365,471.717 163.058,471.69 158.306,471.135 157.64,471.011 152.429,469.677 151.597,469.385 145.919,466.812 145.123,466.361 138.97,462.088 138.336,461.566 131.699,455.133 130.236,452.356 130.696,449.251 131.639,448.296 127.284,448.688 126.287,448.678 115.522,447.511 114.455,447.276 113.541,446.968 98.2672,434.295 83.2685,419.161 74.2323,408.16 74.093,407.56 73.2455,400.777 73.2225,399.749 73.632,394.621 73.7611,393.821 73.9175,393.183 73.4445,393.805 70.4361,394.699 66.952,393.171 65.068,391.232 61.6778,388.876 59.2274,387.178 58.5824,386.23 48.8916,368.927 40.9666,351.394 36.4416,338.53 37.1499,331.838 37.3489,330.872 40.3173,321.311 40.6048,320.588 44.8014,312.018 45.0596,311.555 47.1816,308.174 45.0086,309.696 43.4297,310.435 41.3133,311.007 38.4789,310.95 36.5099,310.33 34.455,309.084 32.6364,307.266 31.7871,306.137 30.1536,303.181 29.8081,302.409 28.3942,298.376 28.238,297.836 27.4735,294.507 26.8905,283.906 26.8905,250.84 27.0532,249.661 27.1075,249.342 28.2996,243.492 28.4007,243.084 29.8469,238.136 30.0636,237.537 31.7252,233.719 32.3113,232.71 34.1498,230.251 36.1589,228.654 37.6774,227.985 37.4877,227.982 34.9514,227.686 33.6585,227.357 31.4267,226.462 30.1925,225.751 28.2755,224.25 27.3537,223.31 26.8905,222.695 26.8905,198.593 28.3099,198.549 29.6282,199.489 28.95,197.863 28.6836,197.025 28.1109,194.473 28.0001,193.712 27.8015,190.806 27.7898,190.456 27.7901,190.13 27.7902,190.099 27.7926,189.773 27.7934,189.711 27.7997,189.385 27.8024,189.292 27.8147,188.965 27.8208,188.843 27.8412,188.515 27.8529,188.363 27.8833,188.035 27.9032,187.855 27.9455,187.526 27.9763,187.321 28.0327,186.991 28.9451,185.261 28.5814,184.836 28.0987,184.168 27.7604,183.608 27.3504,182.761 27.1307,182.173 26.8905,181.209 26.8905,178.16 26.9549,177.85 27.015,177.601 27.105,177.277 27.1807,177.035 27.2938,176.713 27.3843,176.482 27.5227,176.16 27.6271,175.939 27.6904,175.816 28.1649,174.51 28.6417,172.002 29.2741,168.399 29.3342,168.107 30.3103,163.99 30.4707,163.45 32.0428,159.067 32.3665,158.347 34.793,153.915 35.3354,153.116 38.8748,148.848 39.6269,148.112 42.0189,146.218 41.9308,146.224 41.099,146.215 38.3657,145.96 37.42,145.779 34.8845,145.039 33.9737,144.674 31.6875,143.487 30.8525,142.943 28.8668,141.349 28.1469,140.642 26.8905,139.133 26.8905,115.99 27.533,115.113 28.0383,114.525 29.6345,112.931 30.2243,112.426 32.1438,111.025 32.7865,110.625 35.0394,109.45 38.1353,108.935 40.9376,110.348 41.4208,111.8 41.4713,111.266 41.6519,110.324 42.3004,108.107 42.6572,107.213 43.6952,105.196 43.92,104.847 41.8299,105.664 40.9085,105.926 36.8835,106.67 35.6653,106.745 34.9729,106.703 34.293,106.616 33.6595,106.491 32.8675,106.265 32.3031,106.054 31.4201,105.62 30.9353,105.32 30.0431,104.619 29.648,104.229 28.8877,103.269 28.5928,102.787 28.0915,101.691 27.9069,101.114 27.6893,100.052 27.6255,99.3789 27.8511,97.339 29.1346,93.3973 29.7247,92.1744 33.1083,87.06 33.4093,86.6512 35.6328,83.9297 34.7394,84.2609 32.6139,84.7705 30.6564,84.849 30.0576,84.7554 28.4601,84.2214 27.9669,83.9582 26.8905,83.1493 26.8905,65.1675 27.0837,64.832 27.7398,63.8377 28.298,63.1362 29.0014,62.3976 29.624,61.8436 30.6039,61.107 31.2851,60.6755 32.241,60.1721 28.7044,59.4243 26.8905,58.4171 26.8905,45.8547 28.5413,44.239 29.0899,43.7738 32.9806,40.9246 33.2261,40.7557 37.6862,37.8776 37.753,37.8352 42.1623,35.0868 43.8046,34.0083 39.6485,32.9796 39.6217,32.9729 35.3223,31.8837 35.045,31.8049 31.2944,30.6233 30.5331,30.3133 27.8803,28.9719 26.8905,28.0785 26.8905,19.5757 38.3822,19.4875 49.8739,19.3993 61.3656,19.3111 72.8572,19.223 76.1396,19.1978 77.3549,19.8968 79.2653,21.8468 80.2357,23.6171 80.5409,27.8045 79.7369,29.9671 78.6081,31.744 76.4884,33.9044 75.8331,34.4669 72.8362,36.6231 72.5658,36.8047 69.1304,38.9546 69.1227,38.9593 65.8174,41.0196 64.4781,41.9717 66.1149,42.2753 70.7077,42.7543 72.7948,42.9542 72.6256,42.419 72.5624,41.9933 73.1966,38.7047 73.955,37.4059 75.7294,35.615 77.7289,34.4227 78.399,34.0877 81.2258,32.9283 81.3883,32.8649 84.5562,31.6917 87.4833,30.5043 89.2682,29.5557 89.2572,29.5507 87.9874,29.1234 87.9696,29.1173 86.6553,28.6696 85.887,28.3344 84.9574,27.8331 82.8888,25.7468 82.5362,25.0792 82.0053,21.9859 82.5032,20.4256 82.7942,19.8551 83.4418,19.1417 84.3489,19.1348 95.8406,19.0466 107.332,18.9584 111.879,18.9235 112.02,19.0328 112.683,19.6502 114.298,21.4487 114.419,21.5877 115.718,23.1446 116.656,24.021 117.436,24.4222 118.804,24.6191 120.115,24.4316 120.941,24.019 121.956,23.1271 123.336,21.6046 123.466,21.4664 125.161,19.7315 125.812,19.1704 126.306,18.8128 130.316,18.7821 141.807,18.6939 153.015,18.6079 153.794,19.3524 154.033,19.7445 154.754,22.7992 154.329,24.4413 153.962,25.2603 152.26,27.3232 151.291,28.0048 150.513,28.4542 149.143,29.0907 149.03,29.1413 147.627,29.7522 146.804,30.1829 146.985,30.3792 148.926,31.8188 151.576,33.4745 154.397,35.1801 154.603,35.3112 157.079,36.9765 156.902,36.7409 156.177,35.3864 155.262,32.7856 155.486,28.8931 156.539,26.7359 158.123,24.8552 161.038,22.7531 161.927,22.2402 166.336,20.2649 166.858,20.065 171.849,18.4634 176.282,18.4294 187.774,18.3412 210.233,18.1689 210.755,19.154 210.746,24.1252 209.893,25.6926 208.269,27.4752 205.918,29.0509 205.212,29.4464 201.802,31.0104 201.527,31.127 200.127,31.6714 201.215,31.5719 201.512,31.5535 203.731,31.4818 203.95,31.4794 205.55,31.4972 205.827,31.5079 207.212,31.5995 207.822,31.6773 208.993,31.9 210.042,32.2205 210.729,32.5154 210.706,43.9624 210.686,54.1852 210.527,54.2832 208.768,54.9524 207.751,55.1334 206.17,55.1633 204.022,54.8642 203.156,54.6646 200.65,53.8492 200.604,53.8313 203.585,56.8763 203.783,57.0899 208.335,62.3087 208.743,62.846 210.663,65.7549 210.656,69.76 210.632,81.6751 210.404,81.8635 209.675,82.3481 208.828,82.8011 207.958,83.1649 207.132,83.4294 206.129,83.6581 205.361,83.772 204.233,83.8514 203.367,83.8379 199.385,83.4326 198.775,83.3323 194.085,82.2637 193.778,82.1835 188.658,80.6727 188.546,80.6376 192.374,83.1334 192.57,83.2682 197.455,86.7921 197.598,86.8987 202.401,90.6274 202.535,90.7351 206.83,94.3104 207.001,94.4591 210.362,97.5226 210.6,97.7603 210.579,108.456 210.556,120.448 210.1,120.962 209.092,121.834 207.928,122.598 206.22,123.313 204.952,123.586 201.731,123.105 202.824,123.511 203.952,124.101 206.841,126.111 207.737,126.908 210.072,129.545 210.536,130.195 210.503,147.153 210.478,160.052 210.471,163.282 209.359,164.091 209.559,164.313 209.918,167.203 209.416,170.155 209.211,170.955 208.249,173.74 207.91,174.507 206.522,177.055 206.041,177.781 204.26,180.023 203.623,180.69 201.482,182.555 200.682,183.125 198.213,184.545 197.265,184.967 194.502,185.869 193.459,186.092 192.671,186.174 193.083,186.206 193.892,186.336 196.957,187.085 197.786,187.366 200.548,188.578 201.375,189.037 203.773,190.681 204.553,191.341 206.526,193.386 207.193,194.247 208.679,196.664 209.158,197.685 210.095,200.443 210.335,201.533 210.395,202.096 210.382,208.33 210.315,208.746 210.222,209.189 209.858,210.614 209.746,210.988 209.261,212.416 209.14,212.734 208.548,214.153 208.425,214.426 207.741,215.826 207.618,216.062 206.856,217.434 206.734,217.641 205.908,218.973 203.508,220.995 200.377,221.208 197.724,219.531 196.749,217.659 196.134,215.436 195.428,214.09 194.49,213.01 193.197,212.066 191.406,211.24 189.039,210.586 186.084,210.164 182.526,210.016 182.413,210.019 184.045,211.21 184.892,211.991 186.865,214.279 187.551,215.306 188.76,217.707 189.152,218.766 189.758,221.221 189.894,222.09 189.909,222.3 191.169,219.989 194.01,218.654 197.272,219.361 200.619,221.414 201.027,221.692 204.094,224.014 204.475,224.334 207.212,226.865 207.577,227.24 209.931,229.921 210.287,230.377 210.397,230.535 210.438,235.84 210.602,246.657 210.899,256.963 210.965,258.293 210.729,258.638 208.42,261.645 208.307,261.786 206.072,264.49 204.361,266.766 203.476,268.421 203.272,269.455 203.485,270.547 204.225,271.747 205.811,273.351 208.105,275.283 208.193,275.358 210.662,277.537 211.129,278.007 212.56,279.649 213.138,284.482 214.519,292.41 215.476,296.287 214.259,299.265 213.994,299.814 212.942,301.701 213.355,301.378 216.492,301.281 216.983,301.617 218.563,306.2 221.336,311.994 224.685,317.011 228.665,321.215 233.33,324.575 238.737,327.056 244.939,328.626 245.536,328.678 246.861,330.431 247.38,331.28 248.889,334.405 249.205,335.239 250.118,338.5 250.261,339.192 250.712,342.561 250.753,343.054 250.874,346.501 250.858,347.09 252.044,343.232 252.415,342.339 257.021,333.7 257.547,332.904 261.301,328.253 265.518,327.271 271.013,324.853 275.719,321.532 279.698,317.343 283.01,312.324 283.085,312.164 288.637,310.414 287.981,310.323 285.729,308.137 285.524,306.932 285.72,306.511 287.37,301.512 287.974,300.943 288.988,299.868 289.837,298.798 290.534,297.689 291.1,296.475 291.54,295.064 291.838,293.362 291.952,291.228 291.924,290.206 291.841,289.105 291.716,287.95 291.563,286.716 291.562,286.708 291.403,285.419 291.392,285.326 291.254,284 291.239,283.832 291.142,282.45 291.131,282.221 291.126,282.056 291.763,276.06 291.793,275.621 291.864,275.378 292.384,274.026 292.83,273.139 293.53,272.032 294.233,271.154 295.097,270.293 296.038,269.556 297.05,268.941 298.122,268.45 299.265,268.081 300.325,267.86 301.583,267.737 302.928,267.786 305.204,268.176 306.384,268.568 305.42,268.037 305.242,267.934 300.557,265.1 299.882,264.611 295.794,261.103 294.807,259.957 292.784,256.737 293,246.688 293.115,235.848 293.136,232.508 293.883,230.671 293.981,230.448 295.349,227.501 295.443,227.31 297.076,224.148 298.646,222.601 298.496,222.519 297.705,221.981 296.226,220.757 295.557,220.088 294.334,218.609 293.796,217.818 293.169,216.674 293.159,211.647 293.142,203.092 293.796,201.899 294.332,201.109 295.556,199.629 296.223,198.961 297.701,197.734 298.492,197.196 300.182,196.266 301.089,195.877 302.899,195.303 302.312,194.906 301.276,194.05 300.6,193.374 299.745,192.339 299.204,191.539 298.557,190.352 298.171,189.442 297.761,188.133 297.557,187.137 297.414,185.734 297.414,184.71 297.557,183.308 297.761,182.311 298.171,181.003 298.557,180.093 299.205,178.907 299.746,178.108 300.601,177.073 301.277,176.398 302.313,175.543 303.111,175.002 304.297,174.356 305.207,173.97 306.514,173.561 307.51,173.357 308.91,173.214 309.932,173.214 311.339,173.356 312.331,173.559 313.644,173.968 314.494,174.327 314.515,174.117 314.717,173.126 315.103,171.882 315.487,170.972 316.097,169.845 316.345,169.478 315.353,169.356 314.964,169.292 312.759,168.844 312.413,168.76 310.565,168.246 310.285,168.159 309.187,167.784 308.961,168.351 308.817,168.677 308.319,169.71 307.656,170.742 307.067,171.451 304.649,173.057 303.9,173.284 300.455,173.099 298.97,172.467 297.511,171.521 296.098,170.209 295.367,169.361 294.066,167.459 293.68,166.791 293.067,165.512 293.056,160.052 293.004,134.271 293.697,132.915 293.943,132.486 295.039,130.778 297.47,128.793 297.676,128.782 297.635,128.674 297.568,128.486 297.336,127.785 297.274,127.586 297.066,126.861 297.01,126.65 296.831,125.905 296.782,125.678 296.635,124.917 296.594,124.671 296.485,123.898 296.454,123.632 296.385,122.85 296.368,122.56 296.344,121.775 296.36,121.194 296.61,118.25 296.753,117.415 297.522,114.439 297.817,113.605 299.131,110.727 299.612,109.896 301.498,107.248 302.191,106.462 304.676,104.174 305.57,103.517 308.681,101.72 309.702,101.273 312.205,100.492 312.15,100.345 311.985,99.8184 311.847,99.2776 311.777,98.9592 311.645,98.2579 311.599,97.9605 311.396,96.3525 311.176,94.6588 311.036,93.7683 310.87,93.9089 308.551,95.9582 308.519,95.9867 306.117,98.0732 305.958,98.2054 303.681,100.026 303.274,100.319 301.288,101.606 300.077,102.179 298.547,102.668 296.975,102.907 296.738,102.905 296.458,102.895 296.267,102.883 295.513,102.778 295.363,102.746 293.972,102.22 293.858,102.156 292.938,101.366 292.917,90.9037 293.023,90.68 294.422,87.9652 294.482,87.8515 296.084,84.928 297.652,82.0582 298.646,80.1116 298.361,80.0767 296.216,79.8464 295.897,79.8018 293.993,79.4735 292.945,79.1732 292.894,79.1524 292.875,69.76 292.866,65.4158 293.695,64.7842 293.899,64.6371 296.045,63.1654 298.013,61.7641 298.919,60.9924 298.87,60.962 297.083,60.1139 295.044,59.1942 294.731,59.0397 292.912,58.0632 292.851,58.0215 292.825,45.0204 294.41,44.1236 294.556,44.0441 296.467,43.0441 298.21,42.0887 298.284,42.0405 298.153,41.8039 296.55,39.3365 294.595,36.4723 294.577,36.445 292.803,33.8079 292.797,31.0636 292.771,18.1648 297.323,18.1356 297.911,18.2999 300.668,19.4547 301.03,19.6233 304.315,21.3158 304.418,21.3703 307.872,23.2515 310.833,24.8145 310.851,24.0734 310.855,23.2255 310.858,23.0613 310.898,22.0041 310.929,21.5961 311.04,20.6611 311.117,20.2014 311.289,19.3945 311.435,18.8581 311.658,18.185 311.717,18.043 316.278,18.0137 325.047,17.9573 325.549,18.4795 326.648,19.5877 327.316,20.1731 327.566,20.1403 329.318,19.6338 331.787,18.762 334.203,17.8985 339.784,17.8626 351.538,17.787 363.291,17.7115 370.554,17.6648 370.669,17.7049 377.903,21.0242 378.785,21.5432 384.995,26.1015 385.798,26.8365 390.854,32.5826 391.491,33.4914 395.263,40.374 395.677,41.3678 397.039,45.9721 397.078,45.9235 398.761,44.558 400.756,43.5567 401.373,43.2966 404.345,42.2701 404.675,42.1685 408.337,41.1783 408.572,41.1207 412.635,40.2286 412.845,40.187 414.179,39.9532 412.235,38.5037 407.538,36.0222 403.042,34.3179 398.951,33.1542 395.552,32.3035 395.175,32.1933 392.88,31.4251 390.696,29.9773 389.868,29.0388 388.626,26.1566 389.826,22.4051 390.453,21.6771 392.127,20.4025 393.888,19.5718 394.501,19.3302 397.219,18.4586 397.568,18.3605 401.069,17.5094 401.264,17.4674 410.304,17.4092 422.057,17.3337 433.81,17.2581 434.715,17.2523 436.685,17.9043 437.498,18.2552 440.142,19.6831 441.15,20.3992 443.175,22.2509 444.174,23.51 445.47,25.8243 445.985,27.299 445.987,27.2844 446.655,24.9109 447.025,23.9716 448.097,21.8849 448.672,21.0044 450.114,19.233 450.869,18.4831 452.545,17.1377 457.317,17.107 469.07,17.0314 480.019,16.961 " fill="none" stroke-width="0.5" stroke="rgb(0,0,0)" />
	<polygon points="258.303,447.502 257.935,447.546 257.747,447.593 257.573,447.666 257.26,447.855 256.731,448.268 255.972,448.978 255.621,449.349 256.209,449.248 256.535,449.253 256.9,449.273 257.328,449.311 257.898,449.395 258.403,449.499 259.114,449.701 259.669,449.903 260.461,450.272 260.88,450.514 260.632,449.981 260.587,449.882 260.193,448.984 259.886,448.47 259.567,448.063 259.265,447.769 259.016,447.588 258.859,447.508 258.828,447.499 258.732,447.489 " fill="none" stroke-width="0.5" stroke="rgb(0,0,0)" />
	<polygon points="187.58,439.506 187.899,440.131 189.885,444.79 190.13,445.51 191.052,449.088 192.302,449.457 193.869,449.802 195.553,450.073 197.195,450.243 198.605,450.298 200.492,450.195 202.329,449.871 204.027,449.315 205.508,448.531 206.75,447.508 207.783,446.17 208.616,444.343 209.262,441.361 210.139,439.863 210.103,439.871 209.38,439.978 202.696,440.477 201.924,440.475 195.706,439.986 194.852,439.845 189.655,438.517 188.786,438.208 186.031,436.934 " fill="none" stroke-width="0.5" stroke="rgb(0,0,0)" />
	<polygon points="162.796,403.403 162.928,404.22 163.667,413.723 163.67,414.459 163.35,419.143 163.25,419.858 162.188,424.808 161.946,425.606 159.991,430.547 159.541,431.423 156.542,436.08 155.826,436.958 151.632,441.057 150.667,441.796 145.126,445.064 144.043,445.542 139.343,446.985 139.723,447.018 140.714,447.081 141.707,447.123 142.679,447.148 143.467,447.154 148.585,446.828 152.739,445.938 156.069,444.579 158.642,442.845 160.573,440.767 161.967,438.29 162.852,435.308 163.183,431.574 163.18,431.292 163.161,430.792 163.132,430.267 163.092,429.723 163.044,429.164 162.989,428.597 162.929,428.024 162.865,427.442 163.507,424.37 165.84,422.27 170.094,422.347 172.196,423.37 172.729,423.67 173.804,424.365 173.495,423.61 173.181,422.487 172.868,420.505 172.826,419.273 172.858,418.905 173.053,417.895 173.149,417.576 173.621,416.489 173.778,416.219 174.535,415.226 174.752,415.004 175.672,414.262 175.947,414.09 176.865,413.635 177.195,413.512 178.006,413.284 178.389,413.209 179.06,413.126 179.496,413.101 179.856,413.099 177.02,412.232 176.566,412.069 173.782,410.917 173.369,410.724 170.732,409.342 170.338,409.112 167.91,407.544 167.514,407.261 165.357,405.552 164.941,405.184 163.116,403.379 162.723,402.942 162.665,402.869 " fill="none" stroke-width="0.5" stroke="rgb(0,0,0)" />
	<polygon points="326.256,414.37 325.251,414.828 315.746,417.961 314.679,418.188 310.027,418.664 311.436,419.944 312.208,420.99 312.864,422.192 313.358,423.49 313.563,424.166 313.894,425.619 313.934,425.814 314.194,427.207 314.43,428.208 314.485,428.347 315.097,428.782 315.123,428.801 316.03,429.454 316.348,429.702 317.214,430.438 317.779,430.999 318.512,431.854 319.192,432.876 319.7,433.886 320.174,435.364 321.351,433.876 321.507,433.689 322.228,432.862 322.359,432.718 323.078,431.955 323.26,431.772 323.975,431.088 324.23,430.859 324.939,430.268 325.301,429.992 326.001,429.507 326.521,429.192 327.211,428.828 327.952,428.51 328.63,428.281 329.645,428.052 330.309,427.972 331.759,428.025 331.175,427.484 330.174,426.283 329.192,424.418 328.843,423.176 328.654,421.809 328.654,413.773 328.789,412.86 " fill="none" stroke-width="0.5" stroke="rgb(0,0,0)" />
	<polygon points="242.628,409.512 242.644,409.792 242.669,410.652 242.61,411.576 241.831,416.553 241.401,417.944 239.195,422.574 238.538,423.608 235.099,427.795 234.385,428.505 229.908,432.151 229.203,432.632 224.873,435.078 226.766,434.51 232.169,431.961 236.807,428.799 240.66,425.111 243.709,420.973 245.936,416.453 247.441,411.159 248.211,410.018 247.53,410.082 246.331,410.053 245.393,409.917 244.188,409.586 243.322,409.229 242.601,408.861 242.572,408.843 " fill="none" stroke-width="0.5" stroke="rgb(0,0,0)" />
	<polygon points="255.69,393.529 255.47,394.189 255.331,394.538 255.428,394.676 255.804,395.312 256.156,396.033 256.429,396.729 256.66,397.489 256.827,398.247 256.934,398.987 256.99,399.81 256.98,400.632 256.884,401.643 256.698,402.603 256.423,403.534 256.047,404.456 255.607,405.289 255.053,406.127 254.465,406.846 253.753,407.559 253.541,407.733 254.13,407.834 256.978,408.942 257.402,409.13 260.262,410.557 260.59,410.737 263.373,412.393 263.647,412.568 266.264,414.365 266.515,414.548 268.879,416.393 269.134,416.606 271.156,418.412 271.453,418.699 272.276,419.564 272.944,419.418 273.166,419.375 274.451,419.153 274.661,419.121 275.995,418.949 276.194,418.927 277.577,418.804 277.765,418.79 279.198,418.716 279.374,418.71 280.856,418.685 281.058,418.686 283.189,418.736 283.415,418.746 285.618,418.896 285.83,418.915 288.111,419.168 288.309,419.194 290.674,419.551 290.857,419.582 293.312,420.046 293.48,420.081 296.03,420.653 296.184,420.69 297.052,420.914 297.209,420.65 297.715,419.972 298.679,418.994 298.772,418.922 291.095,418.141 290.035,417.917 279.951,414.618 278.949,414.164 270.343,409.071 269.49,408.435 262.389,401.88 261.725,401.132 256.155,393.446 255.849,392.928 " fill="none" stroke-width="0.5" stroke="rgb(0,0,0)" />
	<polygon points="198.24,411.272 197.322,411.836 195.644,412.634 194.852,412.932 192.924,413.479 192.282,413.617 190.148,413.931 189.634,413.98 188.053,414.049 188.98,414.101 191.065,414.136 195.583,413.306 198.215,411.476 198.511,411.062 " fill="none" stroke-width="0.5" stroke="rgb(0,0,0)" />
	<polygon points="347.798,394.475 347.332,395.252 342.455,401.95 343.388,401.669 343.979,401.529 347.919,400.844 348.502,400.777 353.01,400.525 353.474,400.52 357.267,400.657 357.669,400.688 361.14,401.092 361.612,401.17 364.704,401.832 365.283,401.992 367.939,402.901 368.668,403.217 369.348,403.577 369.092,402.972 368.644,401.202 368.888,398.001 369.444,396.682 369.309,396.756 367.984,397.257 362.788,398.42 360.555,398.414 359.404,398.15 357.689,397.4 356.612,396.666 355.657,395.819 354.678,394.7 354.156,393.987 353.3,392.569 352.991,391.973 352.282,390.343 352.084,389.806 351.547,388.051 351.414,387.514 351.342,387.133 " fill="none" stroke-width="0.5" stroke="rgb(0,0,0)" />
	<polygon points="226.023,383.515 217.755,385.946 216.777,386.132 206.961,387.003 205.96,386.992 197.763,386.088 196.896,385.896 199.154,388.944 199.535,389.541 201.372,392.926 201.685,393.622 202.826,396.787 203.073,397.77 203.465,400.457 203.485,401.764 203.431,402.228 204.868,399.219 205.242,398.565 208.063,394.395 209.227,393.176 213.182,390.227 215.226,389.32 220.911,388.201 222.272,388.121 223.318,388.201 223.903,388.281 225.151,388.525 225.618,388.641 226.994,389.049 227.256,389.141 227.16,388.841 227.041,388.399 226.823,387.412 226.721,386.73 226.638,385.711 226.639,384.887 226.727,383.82 226.838,383.177 " fill="none" stroke-width="0.5" stroke="rgb(0,0,0)" />
	<polygon points="285.865,393.45 291.185,395.978 297.308,397.634 304.302,398.24 307.757,398.097 310.867,397.687 313.458,397.073 314.283,396.768 313.926,396.513 312.041,393.889 311.786,393.057 311.648,390.774 311.233,390.938 310.982,391.03 308.226,391.958 307.849,392.069 304.636,392.878 304.173,392.972 300.466,393.544 299.953,393.597 295.712,393.814 295.1,393.808 291.587,393.562 290.902,393.466 287.511,392.754 286.84,392.564 283.678,391.426 282.993,391.12 281.573,390.355 " fill="none" stroke-width="0.5" stroke="rgb(0,0,0)" />
	<polygon points="120.193,350.679 119.498,351.266 117.715,352.516 116.954,352.956 115.097,353.825 115.117,354.129 115.145,356.483 115.059,357.477 114.647,359.667 114.357,360.648 113.541,362.641 113.058,363.546 111.872,365.308 111.333,365.957 111.618,365.849 115.648,364.729 116.545,364.565 120.796,364.181 121.805,364.191 129.481,365.038 130.583,365.287 137.666,367.746 138.673,368.226 145.031,372.172 145.875,372.829 151.376,378.136 152.027,378.905 155.681,384.206 155.258,381.769 154.608,379.066 153.615,376.742 152.192,374.539 150.283,372.448 147.824,370.482 144.755,368.675 141.03,367.078 136.451,365.693 132.761,364.689 132.504,364.612 129.551,363.638 129.171,363.496 126.931,362.551 126.372,362.273 124.751,361.339 123.981,360.794 122.884,359.851 122.014,358.882 121.347,357.912 120.706,356.615 120.375,355.599 120.144,354.45 120.054,353.369 120.112,352.089 120.391,350.478 " fill="none" stroke-width="0.5" stroke="rgb(0,0,0)" />
	<polygon points="245.414,366.922 244.903,367.772 240.837,373.238 240.114,374.021 238.311,375.602 239.145,375.8 240.173,376.18 241.233,376.72 242.117,377.312 242.946,378.006 243.689,378.778 244.272,379.508 244.449,379.777 244.689,379.754 245.255,379.729 245.985,379.749 247.231,379.875 248.271,380.092 249.378,380.447 250.365,380.886 250.762,381.116 248.933,374.368 248.777,373.498 247.963,364.411 247.968,363.452 248.214,361.022 " fill="none" stroke-width="0.5" stroke="rgb(0,0,0)" />
	<polygon points="77.2317,367.695 78.0646,369.801 79.3188,378.083 79.0965,380.495 79.02,380.716 79.2983,380.259 79.7293,379.656 82.1174,376.787 82.6399,376.246 85.1484,374.012 85.8035,373.518 88.2827,371.946 89.1805,371.495 91.4808,370.614 92.1023,370.583 92.023,370.557 91.1288,370.163 89.4115,369.198 88.6101,368.64 87.1245,367.374 86.4615,366.691 85.2267,365.154 84.8326,364.56 84.5094,364.632 84.2879,364.676 83.4681,364.821 83.2538,364.854 82.4123,364.965 81.8051,365.008 79.4917,365.032 78.4886,364.943 76.2903,364.522 75.3486,364.245 74.6689,363.97 " fill="none" stroke-width="0.5" stroke="rgb(0,0,0)" />
	<polygon points="101.033,371.496 100.191,371.608 97.8946,371.717 97.0005,371.68 96.3417,371.594 97.2369,372.184 98.2848,376.054 98.2,376.639 98.9168,375.417 99.5268,374.585 102.254,371.568 102.745,371.121 " fill="none" stroke-width="0.5" stroke="rgb(0,0,0)" />
	<polygon points="354.154,361.756 353.504,362.536 351.31,364.685 350.881,365.023 352.884,365.733 354.652,368.326 354.825,370.251 354.238,375.953 354.577,375.671 355.533,375.026 356.199,374.647 357.447,374.057 357.969,373.845 359.538,373.307 359.933,373.19 361.674,372.748 367.613,370.774 366.875,370.707 365.936,370.532 363.801,369.919 362.876,369.552 361.001,368.584 360.15,368.03 358.559,366.748 357.832,366.031 356.551,364.479 355.987,363.635 355.041,361.857 354.68,360.978 " fill="none" stroke-width="0.5" stroke="rgb(0,0,0)" />
	<polygon points="167.817,364.573 167.881,364.782 168.868,368.301 168.885,368.362 169.741,371.567 170.492,374.12 171.056,375.559 171.102,375.624 171.358,375.701 171.697,375.775 172.071,375.829 172.445,375.86 172.822,375.871 173.317,375.865 173.856,375.847 174.404,375.821 174.96,375.79 175.515,375.757 175.54,375.755 176.074,375.726 176.144,375.723 176.649,375.702 176.771,375.699 177.245,375.691 177.736,375.721 175.191,373.502 174.571,372.856 169.945,367.094 169.454,366.359 166.835,361.579 " fill="none" stroke-width="0.5" stroke="rgb(0,0,0)" />
	<polygon points="323.665,364.213 323.319,365.099 322.604,366.52 322.085,367.343 321.119,368.589 320.431,369.316 319.236,370.35 318.395,370.939 317.727,371.312 320.558,371.493 323.557,371.423 327.174,371.188 331.074,370.767 335.028,370.144 338.796,369.311 339.343,369.141 339.137,369.163 338.163,369.172 334.942,368.89 334.016,368.722 331.075,367.896 330.135,367.527 327.519,366.186 326.633,365.607 324.389,363.778 323.923,363.307 " fill="none" stroke-width="0.5" stroke="rgb(0,0,0)" />
	<polygon points="297.724,354.044 294.538,355.962 293.454,356.451 288.949,357.874 288.878,357.896 284.021,359.351 279.763,361.242 276.522,363.876 274.268,367.871 273.897,370.409 274.686,369.735 274.985,369.536 276.089,368.981 276.428,368.86 277.58,368.595 277.955,368.554 278.488,368.545 278.545,367.978 278.613,367.519 278.853,366.294 279.04,365.604 279.434,364.469 279.925,363.447 280.514,362.507 281.689,361.206 282.511,360.565 284.546,359.613 285.64,359.376 288.466,359.578 289.882,360.103 291.133,360.782 293.002,362.168 293.112,362.252 295.473,364.106 298.389,366.094 300.522,367.216 300.216,366.732 299.544,365.401 299.199,364.522 298.78,363.07 298.605,362.143 298.461,360.606 298.444,359.895 298.497,358.788 298.532,358.392 298.67,357.301 298.712,357.032 298.907,355.958 298.935,355.816 299.16,354.758 299.163,354.742 299.375,353.759 299.535,352.922 299.626,352.254 299.652,351.774 " fill="none" stroke-width="0.5" stroke="rgb(0,0,0)" />
	<polygon points="156.988,223.012 156.893,223.182 155.693,225.216 154.652,227.028 153.921,228.528 153.622,229.431 154.093,229.63 155.824,233.653 155.763,235.08 155.749,235.306 155.59,237.128 155.579,237.233 155.355,239.305 155.349,239.354 155.092,241.53 155.09,241.542 154.834,243.664 154.616,245.557 154.472,247.018 154.429,247.832 154.465,248.998 154.504,249.33 156.658,250.757 157.554,252.501 158.019,254.125 158.115,254.518 158.48,256.328 158.523,256.572 158.814,258.5 158.833,258.636 159.077,260.614 159.083,260.66 159.304,262.599 159.522,264.376 159.749,265.868 159.827,266.229 161.665,266.944 163.162,269.001 163.703,270.378 164.271,271.815 164.863,273.223 165.484,274.55 166.129,275.736 166.777,276.72 167.387,277.451 168.256,278.217 168.501,278.43 168.858,278.769 169.127,279.053 169.413,279.38 169.675,279.709 169.929,280.055 170.171,280.417 170.41,280.813 170.621,281.2 170.851,281.684 171.017,282.085 171.227,282.706 171.336,283.111 171.484,283.927 171.523,284.326 171.471,285.687 171.263,286.876 170.829,288.218 170.255,289.396 169.714,290.268 168.85,291.388 168.317,291.977 167.238,292.995 166.708,293.431 165.49,294.301 164.914,294.656 163.632,295.334 162.924,295.641 161.654,296.081 160.665,296.315 159.481,296.471 158.4,296.497 158.044,296.468 157.191,296.323 156.785,296.217 155.937,295.913 155.49,295.707 154.726,295.269 154.247,294.936 153.621,294.421 153.12,293.937 152.643,293.406 152.13,292.746 151.786,292.244 151.269,291.383 151.029,290.931 150.669,290.165 150.389,289.737 149.589,288.896 148.187,287.613 146.504,286.131 146.446,286.08 145.298,285.038 150.732,292.833 150.822,292.966 156.558,301.778 156.841,302.272 160.899,310.375 161.325,311.595 162.864,318.9 162.953,320.388 162.7,323.229 162.55,324.082 161.8,326.897 161.505,327.713 160.268,330.394 159.813,331.182 158.099,333.619 157.458,334.364 155.277,336.449 154.435,337.098 151.799,338.722 150.785,339.201 147.702,340.255 146.604,340.498 146.027,340.559 148.061,341.091 148.729,341.316 151.32,342.397 151.992,342.739 154.452,344.23 155.056,344.659 157.405,346.605 157.894,347.068 160.153,349.513 160.518,349.957 162.707,352.947 163.037,353.46 164.751,356.518 163.488,352.676 163.268,351.67 162.525,345.147 162.495,344.41 162.554,342.627 162.577,342.282 162.756,340.518 162.812,340.122 163.118,338.444 163.234,337.952 163.673,336.428 163.91,335.777 164.488,334.474 164.994,333.589 165.718,332.576 166.795,331.473 167.671,330.815 169.587,329.928 170.621,329.694 172.256,329.596 173.164,329.69 173.573,329.78 173.053,329.247 172.452,328.502 168.887,323.105 168.392,322.147 166.093,316.212 165.793,315.032 164.978,308.698 164.944,307.784 165.112,304.626 165.17,304.09 165.662,301.043 165.774,300.523 166.569,297.6 166.732,297.105 167.809,294.316 168.015,293.853 169.354,291.211 169.598,290.783 171.178,288.301 171.454,287.909 173.254,285.598 173.558,285.242 175.558,283.114 177.675,281.956 175.806,280.687 175.295,280.289 171.18,276.644 170.382,275.747 167.472,271.561 166.696,269.805 165.592,264.979 165.661,262.459 166.802,258.485 167.766,256.659 170.775,253.024 171.484,252.322 175.739,248.871 176.021,248.658 180.863,245.262 185.495,241.896 189.135,238.629 191.25,235.641 192.005,232.444 192.003,232.391 191.918,231.649 191.765,230.759 191.547,229.785 191.267,228.778 190.936,227.787 190.564,226.859 190.081,225.855 190.033,225.495 190.033,225.512 189.545,229.385 189.229,230.618 187.881,234.012 187.349,235.01 185.313,237.97 184.737,238.666 182.186,241.237 181.68,241.683 178.784,243.911 178.394,244.183 175.326,246.112 175.058,246.269 171.99,247.945 171.852,248.018 168.956,249.486 165.854,249.964 163.068,248.518 161.675,245.706 161.733,243.93 161.977,242.787 162.19,241.682 162.378,240.576 162.538,239.469 162.668,238.36 162.764,237.25 162.823,236.137 162.843,235.097 162.74,233.009 162.419,230.982 161.833,228.934 160.926,226.837 159.626,224.663 157.846,222.395 157.505,222.053 " fill="none" stroke-width="0.5" stroke="rgb(0,0,0)" />
	<polygon points="386.085,306.991 385.01,308.193 383.895,309.771 382.837,311.618 381.905,313.626 381.212,315.527 380.967,316.792 380.756,319.095 380.58,322.074 380.392,325.259 380.382,325.4 380.12,328.405 380.075,328.765 379.672,331.287 379.447,332.17 378.834,333.905 377.308,335.949 378.867,337.064 379.587,337.688 382.073,340.298 382.703,341.111 384.533,344.049 385.009,345.038 386.138,348.237 386.394,349.348 386.78,352.745 386.792,353.767 386.618,355.704 389.456,352.425 390.031,351.859 394.643,347.995 395.854,347.242 401.682,344.681 401.118,344.299 399.989,343.211 399.608,342.8 398.331,341.262 398.217,341.119 396.867,339.368 395.577,337.713 395.503,337.627 394.878,338.167 393.669,339.22 393.517,339.347 392.369,340.27 391.925,340.589 390.903,341.241 389.619,341.828 388.784,342.075 386.722,342.245 386.534,342.221 385.316,341.911 385.147,341.845 384.115,341.294 383.966,341.191 383.173,340.509 383.047,340.375 382.471,339.64 382.369,339.482 381.971,338.732 381.896,338.556 381.639,337.787 381.593,337.6 381.462,336.802 381.446,336.608 381.493,335.394 381.771,333.659 381.978,332.827 382.711,330.678 382.825,330.375 383.862,327.875 383.88,327.831 385.041,325.104 386.148,322.291 387.063,319.477 387.669,316.753 387.897,314.01 387.871,312.602 387.759,310.797 387.532,308.969 387.184,307.341 386.837,306.368 " fill="none" stroke-width="0.5" stroke="rgb(0,0,0)" />
	<polygon points="55.5477,335.771 56.4086,342.829 60.0149,348.629 64.6925,353.257 64.2426,351.297 64.1149,350.219 64.0896,347.757 64.2032,346.639 64.6945,344.364 65.0281,343.352 65.9566,341.295 66.4456,340.444 67.7316,338.638 68.1937,338.099 66.3822,337.876 65.9391,337.802 63.0687,337.186 62.3875,336.989 59.9188,336.082 59.0632,335.673 56.9224,334.39 56.1732,333.829 " fill="none" stroke-width="0.5" stroke="rgb(0,0,0)" />
	<polygon points="321.227,324.457 319.927,325.342 318.99,325.79 318.993,325.792 319.748,326.666 320.356,327.557 320.924,328.663 321.252,329.559 321.529,330.731 321.627,331.605 321.624,332.765 321.467,334.087 321.133,335.387 320.691,336.479 319.995,337.687 319.311,338.566 318.412,339.461 317.528,340.142 316.637,340.693 315.598,341.194 314.823,341.492 313.671,341.83 313.029,341.973 311.806,342.164 311.27,342.218 310.021,342.278 309.658,342.282 308.766,342.261 310.588,342.717 311.406,342.998 314.301,344.281 315.088,344.717 317.55,346.384 318.282,346.986 318.288,346.993 318.463,345.032 318.574,344.337 319.223,341.543 319.341,341.12 320.259,338.306 320.327,338.112 321.378,335.285 322.392,332.55 323.208,330.023 323.73,327.743 323.919,325.579 323.896,324.984 323.814,324.287 323.673,323.607 323.469,322.931 323.191,322.243 323.087,322.042 " fill="none" stroke-width="0.5" stroke="rgb(0,0,0)" />
	<polygon points="123.654,321.514 122.865,322.102 120.936,323.265 119.985,323.71 117.85,324.451 117.555,324.518 119.239,325.673 119.966,326.279 121.509,327.833 122.108,328.56 123.353,330.399 123.813,331.24 124.705,333.32 125.004,334.262 125.487,336.537 125.596,337.633 125.576,339.871 125.471,340.85 125.034,342.956 124.74,343.898 124.668,344.068 126.358,342.879 127.056,342.468 129.037,341.505 129.674,341.248 131.853,340.535 132.464,340.377 134.753,339.935 135.38,339.854 136.217,339.799 135.211,339.474 134.234,339.04 131.926,337.705 131.091,337.101 129.185,335.4 128.526,334.686 127.029,332.715 126.54,331.931 125.461,329.786 125.127,328.941 124.474,326.72 124.294,325.797 124.075,323.596 124.067,322.676 124.204,321.024 124.206,321.013 " fill="none" stroke-width="0.5" stroke="rgb(0,0,0)" />
	<polygon points="300.466,341.797 300.086,341.837 300.203,342.057 300.398,341.882 300.993,341.781 " fill="none" stroke-width="0.5" stroke="rgb(0,0,0)" />
	<polygon points="219.211,340.519 219.343,340.44 220.213,339.652 220.324,339.479 220.277,339.303 219.647,338.573 " fill="none" stroke-width="0.5" stroke="rgb(0,0,0)" />
	<polygon points="355.865,333.455 356.279,332.507 355.749,332.365 355.63,332.324 355.221,332.145 " fill="none" stroke-width="0.5" stroke="rgb(0,0,0)" />
	<polygon points="204.31,318.061 203.899,321.263 204.099,323.519 204.698,325.687 205.654,327.652 206.947,329.397 208.565,330.899 210.044,331.838 208.396,330.299 207.511,329.203 205.67,326.128 205.03,324.414 204.332,320.469 204.268,319.215 204.358,318.004 204.376,317.872 " fill="none" stroke-width="0.5" stroke="rgb(0,0,0)" />
	<polygon points="365.038,329.612 363.615,330.465 363.504,330.53 363.307,330.641 365.653,330.963 366.389,331.121 366.327,330.893 365.903,329.118 365.9,329.107 " fill="none" stroke-width="0.5" stroke="rgb(0,0,0)" />
	<polygon points="74.506,307.006 72.9296,311.384 71.9512,315.135 71.6185,318.216 71.6536,319.458 71.7962,320.811 72.0681,322.093 72.51,323.377 73.1884,324.738 74.1933,326.238 75.4022,327.652 75.4798,327.368 76.2406,325.343 76.6648,324.477 77.7691,322.679 78.3582,321.9 79.7759,320.361 80.5038,319.711 82.2048,318.463 83.0335,317.97 84.9878,317.047 85.8724,316.726 88.0498,316.158 88.9902,316.006 91.424,315.846 92.4505,315.883 94.6976,316.195 95.6948,316.438 97.737,317.164 98.6264,317.582 100.446,318.663 101.188,319.202 102.766,320.581 103.357,321.193 104.676,322.811 104.779,322.959 105.238,322.824 105.563,322.739 105.674,322.715 104.88,322.227 103.996,321.537 102.641,320.214 101.986,319.43 100.975,317.934 100.534,317.136 99.8424,315.561 99.5715,314.773 99.1745,313.21 99.038,312.404 98.9892,311.843 97.3334,312.797 96.3077,313.244 93.7932,314.023 92.7785,314.227 90.0908,314.484 89.1237,314.483 87.3656,314.313 86.4196,314.129 84.7159,313.624 83.8218,313.264 82.2278,312.436 81.4041,311.901 79.9751,310.76 79.2537,310.055 78.045,308.611 77.4688,307.76 76.5358,306.024 76.1449,305.076 75.8102,303.954 " fill="none" stroke-width="0.5" stroke="rgb(0,0,0)" />
	<polygon points="370.559,298.877 369.763,299.279 366.363,300.635 365.937,300.784 361.867,301.999 361.585,302.075 357.245,303.102 357.016,303.151 352.804,303.943 352.563,303.983 348.878,304.493 348.515,304.53 345.756,304.71 344.97,304.7 344.377,304.646 343.451,304.462 343.554,304.99 343.631,306.365 343.53,307.61 343.354,308.582 343.04,309.687 342.574,310.8 342.031,311.758 341.238,312.808 340.448,313.61 339.468,314.385 338.416,315.023 337.492,315.459 339.942,316.583 340.68,317 345.539,320.313 346.206,320.856 350.223,324.742 350.792,325.396 351.976,327.02 352.021,326.011 352.239,325.025 352.545,324.087 353.12,322.776 353.294,322.419 354.106,320.903 354.192,320.751 355.123,319.149 355.146,319.11 355.206,319.008 355.063,318.972 352.97,318.476 352.756,318.42 350.907,317.894 350.196,317.633 348.888,317.038 346.837,315.327 346.341,314.615 345.436,311.61 345.895,309.624 346.098,309.181 347.736,307.189 348.308,306.776 349.25,306.241 350.134,305.857 350.633,305.671 351.771,305.314 352.062,305.232 353.396,304.9 353.577,304.859 355.05,304.549 355.164,304.526 356.719,304.236 356.787,304.224 358.222,303.977 361.338,303.251 364.566,302.16 367.775,300.72 370.714,298.998 372.08,297.931 " fill="none" stroke-width="0.5" stroke="rgb(0,0,0)" />
	<polygon points="126.14,287.721 126.2,287.9 128.158,294.116 128.267,294.516 129.652,300.624 129.758,301.298 130.283,307.269 130.279,308.196 130.05,310.578 129.954,311.073 131.217,310.415 131.695,310.256 133.77,310.021 133.95,310.039 135.238,310.336 135.387,310.392 136.85,311.241 136.971,311.342 138.026,312.553 138.12,312.705 138.622,313.77 138.692,313.979 138.879,314.715 138.926,314.988 138.986,315.458 139.013,315.8 139.027,316.095 139.032,316.323 139.061,316.624 139.088,316.719 139.145,316.837 139.216,316.933 139.286,316.997 139.376,317.049 139.557,317.107 139.953,317.147 140.311,317.114 140.549,317.045 140.688,316.973 140.773,316.904 140.838,316.824 140.898,316.709 140.943,316.556 139.965,311.975 136.98,305.782 132.379,298.071 126.97,289.2 126.858,289.008 126.121,287.669 " fill="none" stroke-width="0.5" stroke="rgb(0,0,0)" />
	<polygon points="400.661,302.66 401.254,304.516 402.272,306.558 403.67,308.66 405.368,310.707 407.272,312.6 409.276,314.251 411.411,315.683 412.405,316.291 413.547,316.923 413.643,316.974 413.596,316.897 413.507,316.744 411.702,313.531 409.547,310.035 407.074,306.757 404.381,304.158 401.626,302.563 400.628,302.375 " fill="none" stroke-width="0.5" stroke="rgb(0,0,0)" />
	<polygon points="438.479,309.408 438.34,309.557 437.362,310.371 437.174,310.492 436.306,310.934 436.068,311.028 435.401,311.238 435.114,311.307 434.627,311.4 434.29,311.446 433.942,311.482 433.557,311.509 433.307,311.52 432.873,311.528 432.629,311.527 431.859,311.505 431.654,311.494 430.808,311.435 430.694,311.426 429.791,311.342 429.744,311.338 428.809,311.242 427.889,311.15 427.028,311.074 426.944,311.068 426.913,312.775 426.908,312.938 426.817,314.74 426.769,315.226 426.657,315.984 428.197,315.154 429.126,314.767 431.283,314.112 432.26,313.918 434.564,313.693 435.237,313.672 437.278,313.746 437.673,313.776 438.47,313.868 438.403,312.504 438.413,311.858 438.609,309.399 438.647,309.165 " fill="none" stroke-width="0.5" stroke="rgb(0,0,0)" />
	<polygon points="311.896,302.559 311.217,303.106 306.627,306.189 305.707,306.678 302.095,308.141 304.207,307.927 304.929,307.906 307.742,308.025 308.177,308.062 310.816,308.404 311.279,308.486 313.682,309.028 314.205,309.176 316.31,309.896 316.941,310.161 317.335,310.358 316.264,308.998 315.63,307.954 314.756,306.023 314.361,304.669 314.045,302.494 314.027,301.174 314.115,300.431 " fill="none" stroke-width="0.5" stroke="rgb(0,0,0)" />
	<polygon points="434.973,288.925 434.718,289.756 434.222,290.868 433.55,291.99 433.327,292.33 432.376,293.662 432.309,293.753 431.239,295.182 430.243,296.55 430.179,296.648 430.274,296.712 432.05,297.717 433.975,298.756 434.092,298.822 435.797,299.802 436.272,300.111 437.456,300.982 438.881,302.601 439.289,303.336 439.664,305.28 440.562,303.251 440.85,302.737 439.806,302.114 438.779,300.257 436.815,293.759 435.014,288.538 " fill="none" stroke-width="0.5" stroke="rgb(0,0,0)" />
	<polygon points="108.117,291.993 108.106,292.325 107.829,296.531 107.722,297.285 106.93,300.885 106.806,301.278 108.144,301.379 108.427,301.537 110.373,303.476 110.607,303.892 110.637,303.954 110.731,303.624 110.883,302.536 110.938,301.147 110.618,296.465 109.765,292.005 108.51,287.528 108.117,286.327 " fill="none" stroke-width="0.5" stroke="rgb(0,0,0)" />
	<polygon points="458.443,286.827 457.175,287.413 455.87,288.494 454.459,290.199 452.978,292.489 451.652,294.839 452.084,294.746 454.792,294.471 456.107,294.509 459.295,295.023 460.734,295.484 462.585,296.401 462.412,294.976 462.438,294.851 462.442,294.828 462.451,294.732 462.462,294.571 462.47,294.348 462.475,294.072 462.477,293.747 462.477,293.501 462.402,291.957 462.183,290.466 461.82,289.066 461.353,287.914 460.871,287.141 460.508,286.78 460.305,286.671 459.954,286.615 " fill="none" stroke-width="0.5" stroke="rgb(0,0,0)" />
	<polygon points="337.507,293.878 338.709,295.525 338.848,295.111 339.184,294.364 339.344,294.041 339.746,293.296 338.875,293.235 337.072,293.2 " fill="none" stroke-width="0.5" stroke="rgb(0,0,0)" />
	<polygon points="374.204,286.409 374.969,287.719 375.785,289.779 375.471,294.053 375.81,293.418 376.119,291.675 375.855,289.515 375.096,287.573 373.862,285.758 372.809,284.681 " fill="none" stroke-width="0.5" stroke="rgb(0,0,0)" />
	<polygon points="89.2618,276.859 89.1947,277 86.2811,282.877 86.2382,282.961 83.883,287.496 82.3223,290.508 83.2132,290.481 83.7291,290.639 85.3991,291.516 85.9207,291.931 86.4106,292.375 86.9756,292.96 87.4727,293.474 87.7839,293.745 87.9339,293.839 88.0063,293.866 88.155,293.883 89.1856,293.741 89.4753,293.586 89.8082,293.182 90.3507,291.861 90.852,289.424 91.181,285.971 91.3374,281.615 91.3744,276.404 91.3815,276.17 91.6204,271.708 " fill="none" stroke-width="0.5" stroke="rgb(0,0,0)" />
	<polygon points="54.0604,274.134 53.796,275.359 53.7832,276.736 54.0891,278.188 54.9123,279.948 55.2421,280.469 55.7142,281.197 55.7475,281.249 56.1926,281.955 56.2961,282.127 56.6876,282.806 56.8553,283.122 57.1811,283.793 57.3841,284.272 57.6319,284.953 57.8161,285.585 57.9737,286.295 58.0804,287.022 58.1357,287.778 58.0881,288.928 57.747,291.104 57.5233,291.993 56.8742,293.844 58.843,290.977 61.356,286.352 62.1698,282.808 62.1245,282.503 62.0506,282.224 61.9502,281.97 61.8076,281.708 61.5961,281.408 61.2845,281.056 60.6812,280.498 60.6694,280.487 58.7473,278.696 58.4482,278.393 56.9342,276.723 56.7478,276.505 55.525,274.992 55.4985,274.959 54.5545,273.77 54.3284,273.521 " fill="none" stroke-width="0.5" stroke="rgb(0,0,0)" />
	<polygon points="420.432,263.625 419.976,264.961 419.824,265.352 419.18,266.827 419.103,266.994 418.365,268.531 418.355,268.55 418.259,268.749 419.824,269.094 420.05,269.15 421.674,269.587 422.374,269.832 423.523,270.332 425.586,271.983 426.022,272.579 426.995,275.563 426.396,277.945 425.929,278.816 423.862,280.882 422.588,281.564 421.617,281.961 419.726,282.512 419.331,282.61 417.013,283.087 416.891,283.11 414.365,283.566 411.912,284.038 409.822,284.547 408.16,285.137 406.798,285.77 405.61,286.431 404.695,287.056 404.062,287.606 404.001,287.677 404.004,287.677 405.248,287.775 406.656,287.804 410.355,287.567 413.678,286.954 416.741,286.07 419.527,285.029 422.032,283.945 424.206,282.957 424.383,282.88 426.123,282.168 426.961,281.908 428.202,281.638 429.698,281.54 429.886,281.555 430.787,281.714 430.956,281.76 431.892,282.117 432.04,282.192 432.69,282.607 432.345,281.748 429.752,276.277 426.882,271.231 423.708,266.659 420.578,263.03 " fill="none" stroke-width="0.5" stroke="rgb(0,0,0)" />
	<polygon points="391.482,268.836 391.481,268.841 390.886,271.341 390.396,273.67 390.075,275.784 389.961,277.706 390.01,278.881 390.164,280.04 390.404,281.024 390.644,281.629 391.087,280.989 391.608,279.903 392.045,278.55 392.334,277.019 392.444,275.282 392.398,273.041 392.269,270.825 392.085,268.742 391.9,267.072 " fill="none" stroke-width="0.5" stroke="rgb(0,0,0)" />
	<polygon points="341.891,271.069 339.108,272.624 337.881,273.946 337.439,275.693 337.49,276.083 337.634,276.407 337.863,276.672 338.342,277.006 339.135,277.351 340.174,277.626 341.329,277.79 342.218,277.83 342.207,277.7 342.147,277.096 342.084,276.481 342.08,276.442 342.023,275.852 342.014,275.74 341.974,275.196 341.963,274.983 341.948,274.494 341.967,273.87 341.992,273.608 342.161,272.7 342.232,272.446 342.563,271.586 342.68,271.349 343.158,270.574 " fill="none" stroke-width="0.5" stroke="rgb(0,0,0)" />
	<polygon points="133.203,217.149 129.069,218.457 126.721,219.516 129.639,220.475 131.467,223.027 131.142,226.853 130.003,229.07 129.16,231.204 128.479,233.456 127.954,235.759 127.576,238.046 127.329,240.248 127.195,242.296 127.162,243.821 128.567,253.894 132.299,263.794 137.763,273.71 140.27,277.509 140.093,275.462 140.79,274.088 140.793,274.079 140.781,274.075 140.797,274.032 140.69,273.43 140.198,272.326 139.174,270.618 137.815,268.532 137.743,268.418 136.333,266.122 136.126,265.75 134.896,263.307 134.617,262.635 133.747,260.027 133.522,259.023 133.192,256.235 133.81,253.158 134.853,252.126 134.771,251.364 134.369,249.705 133.703,247.546 132.885,245.09 132.873,245.053 132.038,242.479 131.984,242.304 131.255,239.746 131.17,239.399 130.654,236.94 130.565,236.336 130.369,234.059 131.086,231.003 133.469,228.961 133.619,228.929 133.696,227.969 133.717,227.757 134.017,225.29 134.059,225.014 134.518,222.436 134.593,222.09 135.25,219.477 135.378,219.05 136.246,216.558 " fill="none" stroke-width="0.5" stroke="rgb(0,0,0)" />
	<polygon points="311.341,271.701 311.764,272.082 313.416,273.75 313.531,273.87 314.991,275.444 315.152,275.6 314.918,274.675 313.254,272.758 309.91,270.51 309.751,270.423 " fill="none" stroke-width="0.5" stroke="rgb(0,0,0)" />
	<polygon points="350.824,267.654 350.396,267.836 349.724,268.085 349.849,268.097 351.932,268.721 352.897,269.124 353.174,269.275 353.289,266.473 " fill="none" stroke-width="0.5" stroke="rgb(0,0,0)" />
	<polygon points="358.351,246.113 357.55,246.654 355.499,247.768 354.59,248.153 352.327,248.858 352.128,248.898 352.523,249.051 354.962,249.65 358.085,249.91 360.977,251.129 362.591,253.821 362.209,257.15 360.465,260.738 359.76,261.631 359.798,261.625 360.776,261.524 361.03,261.504 362.012,261.452 362.173,261.446 363.082,261.427 363.17,261.426 363.907,261.423 363.954,261.422 363.945,261.295 363.944,261.28 363.88,260.298 363.877,260.252 363.82,259.255 363.817,259.175 363.777,258.19 363.773,258.066 363.758,257.12 363.758,256.971 363.767,256.333 363.772,256.154 363.801,255.562 363.82,255.305 363.874,254.77 363.927,254.391 364.009,253.926 364.148,253.347 364.264,252.964 364.638,252.056 364.791,251.767 365.806,250.445 366.001,250.263 366.262,250.119 365.518,249.809 364.4,249.211 363.595,248.676 362.606,247.871 361.913,247.186 361.085,246.193 360.528,245.373 360.132,244.644 " fill="none" stroke-width="0.5" stroke="rgb(0,0,0)" />
	<polygon points="444.843,250.93 446.02,253.847 446.022,253.852 447.375,257.217 447.401,257.283 448.6,260.389 449.453,258.781 449.516,258.666 451.198,255.684 451.244,255.605 452.369,253.692 451.531,253.268 451.358,253.176 447.902,251.258 447.605,251.08 444.129,248.825 444.003,248.734 " fill="none" stroke-width="0.5" stroke="rgb(0,0,0)" />
	<polygon points="382.104,240.954 381.917,241.92 381.527,243.234 381.142,244.172 380.523,245.335 379.951,246.186 379.127,247.179 378.398,247.895 377.393,248.7 376.549,249.247 375.388,249.845 374.475,250.208 373.887,250.377 374.07,250.486 375.16,251.456 375.716,252.036 376.834,253.406 377.043,253.68 378.156,255.252 378.206,255.324 378.5,255.755 378.775,255.468 379.991,254.19 380.185,253.997 381.372,252.878 381.932,252.421 383.059,251.629 384.56,250.909 385.599,250.609 387.433,250.428 387.734,250.454 388.836,250.674 389.091,250.756 390.389,251.386 390.6,251.529 391.709,252.551 391.877,252.762 392.54,253.843 392.668,254.127 392.969,254.999 393.041,255.293 393.193,255.138 394.145,254.375 394.353,254.246 395.443,253.738 395.675,253.663 396.749,253.437 397.001,253.412 399.268,253.708 400.245,254.074 401.82,255.021 402.786,255.875 403.352,256.464 404.314,257.642 404.497,257.88 405.451,259.201 406.075,260.053 406.387,259.844 407.586,258.92 408.862,257.893 408.959,257.817 410.168,256.892 410.566,256.617 411.25,256.19 407.412,254.717 402.023,253.204 396.634,251.7 396.146,251.536 391.333,249.645 390.271,249.073 386.394,246.341 385.053,244.941 382.466,240.911 382.178,240.159 " fill="none" stroke-width="0.5" stroke="rgb(0,0,0)" />
	<polygon points="314.42,222.52 312.729,223.447 311.824,223.834 309.966,224.422 308.963,224.63 306.982,224.836 306.322,224.836 306.368,224.913 307.532,228.516 309.043,230.215 311.63,231.754 315.225,233.315 315.411,233.401 319.211,235.238 320.118,235.802 323.382,238.347 324.609,239.735 326.894,243.549 327.554,245.383 327.687,246.253 327.938,246.004 328.817,245.308 329.934,244.61 330.794,244.18 331.963,243.73 332.739,243.5 333.887,243.259 334.584,243.162 335.284,243.115 334.505,242.171 333.963,241.369 332.849,239.321 332.464,238.41 331.759,236.15 331.556,235.157 331.311,232.736 331.102,232.824 329.791,233.232 328.8,233.435 327.394,233.577 326.373,233.576 324.978,233.434 323.982,233.229 322.679,232.821 321.769,232.435 320.587,231.79 319.787,231.248 318.755,230.394 318.079,229.717 317.225,228.683 316.684,227.883 316.039,226.697 315.653,225.787 315.245,224.477 315.041,223.483 314.909,222.188 " fill="none" stroke-width="0.5" stroke="rgb(0,0,0)" />
	<polygon points="103.163,232.484 103.234,233.895 103.218,234.629 102.827,238.726 102.735,239.315 102.458,240.594 102.642,240.293 103.034,239.739 106.421,235.579 104.022,234.171 103.144,232.31 " fill="none" stroke-width="0.5" stroke="rgb(0,0,0)" />
	<polygon points="409.821,231.904 412.493,235.51 414.936,237.848 417.883,240.223 415.664,237.626 409.671,230.764 409.516,230.578 408.526,229.329 " fill="none" stroke-width="0.5" stroke="rgb(0,0,0)" />
	<polygon points="463.461,212.834 463.477,213.142 463.495,213.945 463.489,214.311 463.362,216.832 463.331,217.183 462.995,219.964 462.967,220.164 462.491,223.105 462.474,223.202 461.928,226.203 461.926,226.215 461.387,229.138 460.933,231.826 460.633,234.129 460.535,235.843 460.621,236.955 460.86,238.011 461.227,238.994 461.466,239.438 462.297,238.509 463.827,236.314 465.28,233.656 466.472,230.721 467.257,227.692 467.53,224.757 466.946,219.519 465.451,215.428 463.424,212.387 " fill="none" stroke-width="0.5" stroke="rgb(0,0,0)" />
	<polygon points="380.515,197.336 380.31,198.334 379.878,199.709 379.491,200.619 378.809,201.866 378.269,202.664 377.367,203.753 376.693,204.427 375.602,205.327 375.442,205.436 376.702,206.118 377.508,206.661 378.723,207.663 379.406,208.345 380.408,209.559 380.952,210.365 381.709,211.759 382.094,212.672 382.572,214.213 382.773,215.203 382.94,216.858 382.94,217.868 382.773,219.528 382.573,220.517 382.095,222.061 381.711,222.974 380.954,224.371 380.411,225.177 379.408,226.394 378.725,227.077 377.51,228.08 376.703,228.624 376.077,228.963 376.575,229.223 377.379,229.745 378.384,230.543 379.078,231.211 379.902,232.173 380.465,232.976 380.868,233.691 380.79,233.211 380.737,232.046 380.873,230.118 380.933,229.618 381.29,227.535 381.346,227.258 381.851,225.061 381.879,224.945 382.456,222.683 383.015,220.461 383.471,218.386 383.768,216.524 383.874,214.828 383.866,214.472 383.834,214.072 383.787,213.736 383.728,213.466 383.665,213.258 383.603,213.105 383.544,212.994 383.33,212.677 382.473,209.658 383.565,206.715 386.185,204.986 389.728,205.315 392.767,206.793 391.673,206.129 383.626,199.567 382.788,198.697 380.664,195.886 " fill="none" stroke-width="0.5" stroke="rgb(0,0,0)" />
	<polygon points="47.3373,225.838 46.8904,226.027 44.363,226.957 43.7874,227.131 41.9266,227.573 42.1933,227.625 42.6417,227.763 43.7753,228.271 44.1378,228.49 45.1575,229.305 45.4404,229.598 46.1678,230.56 46.3772,230.919 46.7947,231.835 46.9367,232.251 47.1272,232.998 47.2449,232.416 47.3545,231.977 49.0869,226.155 49.5303,225.111 49.7851,224.66 " fill="none" stroke-width="0.5" stroke="rgb(0,0,0)" />
	<polygon points="85.6398,211.093 84.0233,212.841 83.4583,213.216 83.0091,213.482 82.4439,213.779 82.9284,213.984 84.0784,214.662 84.6499,215.11 85.4841,215.939 85.9469,216.52 86.4801,217.343 86.8363,218.031 87.1503,218.779 87.4021,219.547 87.5719,220.216 87.7214,221.038 87.7945,221.649 87.8439,222.497 87.8166,223.391 87.3589,227.209 87.2487,227.814 87.1567,228.188 87.7363,227.32 88.128,226.808 88.8562,225.972 89.4674,225.38 90.204,224.777 91.1622,224.16 91.899,223.796 93.3013,223.342 94.0302,223.22 95.5702,223.2 96.214,223.29 97.5695,223.68 98.1812,223.953 99.3075,224.646 99.8706,225.104 100.681,225.935 101.179,226.579 101.7,227.41 102.116,228.243 102.422,229.002 102.472,229.163 102.47,229.154 102.459,229.055 102.385,228.327 102.376,228.223 102.318,227.511 102.31,227.402 102.269,226.706 102.263,226.591 102.239,225.911 102.236,225.79 102.227,225.126 102.241,224.689 102.543,220.612 102.655,219.867 103.496,216.166 103.711,215.464 104.99,212.157 105.29,211.517 105.436,211.257 104.43,211.767 101.851,212.701 100.684,212.972 97.6863,213.302 96.5735,213.301 93.3843,212.945 92.2516,212.684 89.3874,211.665 88.3541,211.158 85.93,209.603 " fill="none" stroke-width="0.5" stroke="rgb(0,0,0)" />
	<polygon points="63.3045,215.144 60.9918,217.059 62.2731,217.429 62.9174,217.724 64.1994,218.57 64.7162,219.037 65.5706,220.043 65.9704,220.662 66.4316,221.564 66.7246,222.315 66.9438,223.028 67.1403,223.889 67.2333,224.43 67.3436,225.381 67.3743,225.793 67.4088,226.813 67.4045,227.253 67.3807,227.7 69.4534,222.597 69.7784,221.939 72.443,217.405 74.0744,215.71 74.5104,215.431 73.9965,215.417 71.7665,215.232 70.906,215.085 68.8343,214.543 67.9665,214.228 66.096,213.35 65.2545,212.85 64.733,212.467 " fill="none" stroke-width="0.5" stroke="rgb(0,0,0)" />
	<polygon points="450.63,205.835 448.756,206.509 445.911,207.693 445.819,207.73 442.23,209.141 441.954,209.24 437.644,210.651 437.253,210.762 432.132,211.992 431.674,212.08 425.652,212.95 425.167,212.997 418.154,213.327 417.277,213.292 404.512,211.661 403.151,211.289 393.08,206.945 395.035,207.896 396.033,208.536 399.665,211.521 400.55,212.462 402.187,214.723 402.797,213.486 407.158,212.023 413.891,213.035 414.459,213.154 419.917,214.631 420.806,214.964 425.251,217.125 426.267,217.78 429.96,220.844 430.746,221.662 433.95,225.848 434.339,226.451 434.562,225.667 436.307,221.608 436.791,220.733 439.314,217.079 439.793,216.485 442.778,213.317 443.225,212.897 446.356,210.293 446.799,209.964 449.76,208.006 450.294,207.698 452.769,206.464 453.671,206.129 452.676,205.843 451.439,205.699 " fill="none" stroke-width="0.5" stroke="rgb(0,0,0)" />
	<polygon points="338.345,211.433 337.532,211.977 335.718,212.953 335.394,213.087 335.718,213.411 336.575,214.446 337.118,215.247 337.766,216.434 338.153,217.346 338.459,218.326 339.247,217.794 341.296,216.68 341.733,216.495 341.64,216.418 340.961,215.739 340.105,214.703 339.564,213.901 338.917,212.714 338.532,211.803 338.402,211.386 " fill="none" stroke-width="0.5" stroke="rgb(0,0,0)" />
	<polygon points="56.9897,202.174 56.633,202.493 54.8528,203.939 54.4336,204.245 52.6467,205.414 52.1587,205.695 50.3801,206.594 49.8187,206.836 48.0633,207.469 47.4275,207.653 45.7102,208.029 45.0058,208.131 43.3415,208.255 42.4589,208.243 40.3678,208.032 39.3107,207.809 37.3862,207.182 36.7024,206.87 37.3331,207.319 38.6818,208.005 40.0682,208.462 41.5924,208.732 43.3786,208.826 44.8489,208.787 46.4787,208.663 48.2207,208.459 50.0854,208.175 52.0822,207.816 54.2196,207.386 56.5057,206.889 58.9631,206.33 59.6889,206.398 59.4518,205.857 58.8145,203.841 58.6039,202.815 58.4034,200.785 " fill="none" stroke-width="0.5" stroke="rgb(0,0,0)" />
	<polygon points="361.784,206.766 361.907,206.665 362.517,206.253 361.801,205.86 361.684,205.781 " fill="none" stroke-width="0.5" stroke="rgb(0,0,0)" />
	<polygon points="113.893,199.976 113.668,200.733 113.33,201.616 114.104,201.017 114.738,200.599 116.082,199.851 114.47,199.183 114.17,198.67 " fill="none" stroke-width="0.5" stroke="rgb(0,0,0)" />
	<polygon points="124.135,196.252 123.505,196.347 123.057,196.471 122.793,196.588 122.687,196.659 122.669,196.676 122.662,196.688 122.439,197.239 121.954,197.815 122.546,197.706 122.813,197.665 123.997,197.512 124.225,197.487 125.448,197.386 125.64,197.373 126.9,197.317 127.058,197.312 128.354,197.295 128.552,197.296 130.046,197.334 129.201,196.993 126.942,196.416 124.803,196.221 " fill="none" stroke-width="0.5" stroke="rgb(0,0,0)" />
	<polygon points="355.846,195.406 354.938,195.791 353.619,196.205 354.021,196.331 354.93,196.716 356.117,197.363 356.118,197.363 356.113,197.336 355.962,195.864 355.962,195.342 " fill="none" stroke-width="0.5" stroke="rgb(0,0,0)" />
	<polygon points="313.646,196.481 313.314,196.585 313.639,196.763 313.668,196.472 " fill="none" stroke-width="0.5" stroke="rgb(0,0,0)" />
	<polygon points="344.708,196.698 345.317,196.44 344.662,196.235 " fill="none" stroke-width="0.5" stroke="rgb(0,0,0)" />
	<polygon points="61.6207,189.668 59.8465,190.108 59.5339,190.175 58.9577,190.279 59.2029,190.317 60.4853,191.592 60.504,191.554 61.7031,189.646 " fill="none" stroke-width="0.5" stroke="rgb(0,0,0)" />
	<polygon points="42.7683,189.027 44.5922,189.597 46.5419,189.994 47.3837,190.089 45.8246,189.74 45.5892,189.681 43.6078,189.136 43.526,189.113 41.8867,188.633 " fill="none" stroke-width="0.5" stroke="rgb(0,0,0)" />
	<polygon points="178.48,183.485 178.769,184.134 179.807,186.994 179.815,187.225 180.125,187.131 180.656,187.001 184.508,186.275 185.119,186.198 187.092,186.071 183.838,185.587 182.375,185.134 178.305,183.156 " fill="none" stroke-width="0.5" stroke="rgb(0,0,0)" />
	<polygon points="367.615,165.316 367.071,166.12 366.259,167.102 365.577,167.782 364.593,168.592 363.789,169.134 362.66,169.746 361.749,170.129 361.422,170.231 362.254,171.235 362.795,172.032 363.834,173.931 364.221,174.84 364.879,176.933 365.086,177.932 365.315,180.171 365.315,181.204 365.087,183.425 365.313,183.353 366.315,183.145 367.771,182.995 368.803,182.994 370.276,183.145 371.272,183.349 372.647,183.78 373.416,184.106 371.945,181.099 371.662,180.387 368.896,171.539 368.746,170.926 367.706,165.149 " fill="none" stroke-width="0.5" stroke="rgb(0,0,0)" />
	<polygon points="163.535,163.371 163.258,163.61 159.671,166.497 159.273,166.786 155.486,169.268 154.964,169.567 150.891,171.59 150.269,171.849 145.821,173.359 145.151,173.537 140.24,174.482 139.587,174.564 138.879,174.606 141.66,176.544 142.264,177.037 145.658,180.283 146.061,180.716 148.531,183.706 148.563,183.424 149.17,179.568 149.349,178.814 150.307,175.818 150.884,174.604 152.275,172.466 153.686,171.031 155.589,169.749 157.559,168.96 160.053,168.533 161.875,168.554 163.603,168.893 164.849,169.311 166.809,170.268 167.428,170.637 166.499,168.857 166.255,168.313 164.452,163.567 164.308,163.131 164.202,162.75 " fill="none" stroke-width="0.5" stroke="rgb(0,0,0)" />
	<polygon points="109.058,158.376 108.412,159.564 107.871,160.364 107.016,161.4 106.34,162.077 105.305,162.933 104.504,163.475 103.318,164.122 102.408,164.508 101.1,164.918 100.104,165.122 98.7022,165.265 97.6805,165.265 96.2735,165.122 95.2805,164.919 93.9677,164.51 93.0581,164.125 91.8683,163.478 91.0678,162.938 90.0299,162.082 89.982,162.034 89.8322,162.549 89.6845,162.982 88.4332,166.172 88.2995,166.473 88.9423,166.041 92.068,166.165 95.4109,167.403 95.9703,167.649 99.3458,169.388 99.871,169.7 103.132,171.915 103.65,172.318 106.648,174.985 107.165,175.517 109.754,178.61 110.247,179.313 112.279,182.807 112.677,183.678 112.794,182.924 112.963,182.196 113.682,179.892 114.066,178.984 115.108,177.066 115.817,176.071 117.204,174.554 118.242,173.686 119.993,172.584 121.168,172.041 121.271,172.009 118.443,170.391 117.544,169.735 114.651,167.091 113.948,166.299 111.726,163.188 111.238,162.341 109.671,158.893 109.373,158.046 109.308,157.787 " fill="none" stroke-width="0.5" stroke="rgb(0,0,0)" />
	<polygon points="77.9197,180.999 78.8747,181.683 79.0645,181.008 79.2046,180.583 79.6453,179.422 " fill="none" stroke-width="0.5" stroke="rgb(0,0,0)" />
	<polygon points="343.411,162.246 342.574,162.941 338.467,165.665 337.612,166.12 334.116,167.571 334.599,168.053 335.41,169.035 335.954,169.839 336.407,170.672 337.313,169.578 337.986,168.905 339.646,167.534 340.442,166.995 342.342,165.957 343.25,165.571 345.342,164.914 346.34,164.709 347.332,164.607 347.104,164.187 346.718,163.275 346.331,162.03 346.129,161.038 345.994,159.702 345.994,159.579 " fill="none" stroke-width="0.5" stroke="rgb(0,0,0)" />
	<polygon points="423.54,139.326 421.801,142.15 420.868,143.266 418.126,145.718 417.257,146.344 413.641,148.4 412.921,148.738 408.56,150.377 407.965,150.56 402.986,151.759 402.478,151.854 397.01,152.59 396.553,152.63 390.724,152.881 389.963,152.856 381.695,151.959 380.627,151.724 375.488,149.993 376.093,150.384 377.057,150.977 378.288,151.605 379.946,152.248 382.147,152.834 384.992,153.269 388.616,153.442 390.575,153.384 392.65,153.221 394.861,152.979 397.234,152.693 397.265,152.689 399.798,152.399 399.902,152.388 402.612,152.135 402.773,152.123 405.704,151.944 405.904,151.936 409.102,151.868 409.661,151.887 416.994,152.547 417.973,152.733 424.392,154.63 425.325,155.011 431.01,158.022 431.752,158.502 436.884,162.504 437.391,162.958 441.968,167.643 439.627,164.388 439.26,163.797 435.753,157.153 435.365,156.188 433.519,149.75 433.634,146.614 434.421,145.618 434.408,145.617 433.808,145.497 431.841,144.981 431.092,144.72 429.413,143.982 428.517,143.473 427.157,142.506 426.214,141.634 425.204,140.428 424.441,139.192 423.994,138.159 " fill="none" stroke-width="0.5" stroke="rgb(0,0,0)" />
	<polygon points="348.222,116.863 348.175,117.329 347.711,120.488 347.626,120.926 347.206,122.683 349.321,124.502 350.069,125.675 350.367,126.21 351.028,127.591 351.2,127.995 351.771,129.512 351.88,129.835 352.355,131.416 352.43,131.695 352.807,133.269 352.863,133.534 353.137,135.028 353.181,135.315 353.348,136.658 353.38,137.027 353.437,138.147 353.421,138.879 352.794,145.48 352.58,146.53 351.758,149.124 352.67,148.629 353.582,148.245 354.831,147.858 355.82,147.657 357.161,147.522 358.173,147.522 359.512,147.657 360.502,147.858 361.75,148.245 362.661,148.629 363.791,149.242 364.596,149.785 365.58,150.596 366.262,151.278 367.074,152.261 367.154,152.38 367.163,152.356 367.603,151.459 367.654,151.376 368.493,150.352 368.551,150.298 369.847,149.417 369.91,149.387 371.381,148.95 371.447,148.941 373.067,149.152 372.34,148.82 365.97,145.087 365.198,144.531 359.862,139.862 359.251,139.226 355.004,133.943 354.526,133.234 351.423,127.658 351.059,126.84 349.156,121.292 348.922,120.277 348.304,115.316 " fill="none" stroke-width="0.5" stroke="rgb(0,0,0)" />
	<polygon points="86.4978,149.377 86.7528,149.554 86.824,149.326 86.2713,149.213 " fill="none" stroke-width="0.5" stroke="rgb(0,0,0)" />
	<polygon points="131.358,132.794 130.66,133.039 129.911,133.377 129.19,133.768 128.57,134.161 128.135,134.482 127.737,134.835 124.858,136.083 121.803,135.391 123.617,137.212 124.381,138.834 124.757,139.956 125.235,142.25 125.274,142.459 125.677,144.909 126.146,146.868 126.582,147.804 126.617,147.836 126.994,147.923 127.272,147.794 127.738,147.484 128.288,146.983 128.894,146.243 129.521,145.207 130.155,143.758 130.485,142.755 130.815,141.609 131.098,140.469 131.332,139.346 131.514,138.251 131.644,137.195 131.722,136.192 131.747,135.258 131.706,133.918 131.593,132.893 131.56,132.747 " fill="none" stroke-width="0.5" stroke="rgb(0,0,0)" />
	<polygon points="100.964,135.607 101.107,137.011 101.107,138.032 100.964,139.437 100.761,140.432 100.443,141.45 101.099,141.584 102.407,141.993 103.317,142.379 104.503,143.026 105.303,143.567 106.338,144.422 107.014,145.098 107.869,146.133 108.168,146.575 108.232,145.961 108.279,145.628 108.582,143.868 108.67,143.461 109.128,141.695 109.308,141.138 109.938,139.512 110.31,138.76 107.501,139.403 105.606,138.842 102.97,137.453 100.906,135.322 " fill="none" stroke-width="0.5" stroke="rgb(0,0,0)" />
	<polygon points="314.723,122.491 313.057,122.941 311.587,123.626 310.315,124.502 309.257,125.517 308.438,126.601 307.879,127.667 307.428,129.09 305.598,131.639 305.056,131.817 305.588,132.236 306.848,133.073 308.032,133.705 309.167,134.165 310.298,134.48 311.476,134.669 312.798,134.735 313.212,134.723 313.766,134.68 314.393,134.611 315.068,134.524 315.757,134.431 315.799,134.425 316.453,134.343 316.587,134.327 317.176,134.269 317.455,134.249 317.962,134.227 318.471,134.23 319.035,134.262 319.678,134.34 320.186,134.436 320.926,134.633 321.372,134.79 322.202,135.168 322.58,135.383 323.449,136.009 323.754,136.282 324.55,137.189 324.775,137.517 325.354,138.64 325.493,139.022 325.769,140.2 325.817,140.633 325.821,141.701 325.742,142.476 325.601,143.252 325.393,144.038 326.725,143.931 329.644,143.209 332.04,142.144 329.304,141.231 327.841,139.522 327.346,138.58 326.845,137.792 326.236,136.991 325.519,136.196 324.69,135.423 323.744,134.686 322.675,133.999 321.276,133.271 320.858,133.056 320.21,132.657 319.848,132.394 319.249,131.885 318.948,131.585 318.434,130.987 318.192,130.657 317.786,130.003 317.602,129.648 317.311,128.969 317.181,128.595 317,127.92 316.924,127.534 316.839,126.879 316.814,126.487 316.831,125.645 316.908,124.902 317.084,124.009 317.308,123.24 317.567,122.547 317.63,122.411 317.154,122.345 316.691,122.319 " fill="none" stroke-width="0.5" stroke="rgb(0,0,0)" />
	<polygon points="57.9674,137.589 57.4008,138.631 57.5628,138.593 60.058,138.11 60.4032,138.055 62.8058,137.76 63.0997,137.733 63.7988,137.688 62.1191,137.385 61.4628,137.221 57.5146,135.945 " fill="none" stroke-width="0.5" stroke="rgb(0,0,0)" />
	<polygon points="95.2227,109.226 93.2186,111.175 93.1341,111.255 90.9575,113.276 90.6247,113.559 88.3615,115.322 87.6346,115.794 85.2965,117.041 83.8961,117.54 81.4947,118.013 79.9819,118.079 78.7851,117.951 78.272,117.829 78.5058,119.205 78.569,119.764 78.7577,123.079 78.7647,123.479 78.7329,124.905 78.7234,125.124 78.6323,126.512 78.6144,126.719 78.4702,128.066 78.4452,128.262 78.2541,129.563 78.2232,129.749 77.9913,131.001 77.9554,131.177 77.6889,132.376 77.6489,132.542 77.354,133.685 77.3105,133.843 76.9933,134.924 75.2184,137.513 73.9395,137.905 74.4997,137.959 74.5256,137.962 75.5176,138.064 75.6245,138.076 76.5188,138.186 76.7394,138.219 77.1046,138.28 77.0793,138.032 77.0793,137.011 77.2219,135.608 77.425,134.615 77.8335,133.305 78.218,132.396 78.8639,131.208 79.4039,130.408 80.2585,129.371 80.9347,128.694 81.9694,127.837 82.7697,127.295 83.9558,126.647 84.8671,126.26 86.1761,125.85 87.1727,125.646 88.5758,125.503 89.5991,125.503 91.0042,125.646 91.9995,125.85 93.3104,126.259 94.2209,126.645 95.4088,127.293 96.209,127.835 97.2453,128.691 97.922,129.368 98.5458,130.124 97.4491,125.257 97.3701,124.816 96.5764,118.882 96.563,118.772 95.9109,112.931 95.3421,109.119 " fill="none" stroke-width="0.5" stroke="rgb(0,0,0)" />
	<polygon points="122.764,111.773 121.176,118.127 121.153,118.214 119.427,124.63 119.328,124.954 117.412,130.55 117.06,131.345 115.539,134.114 116.453,133.87 119.927,134.189 121.219,134.805 121.764,135.351 119.737,133.022 119.726,129.115 121.569,124.685 121.916,124.001 124.258,120.148 124.728,119.499 127.511,116.228 128.092,115.649 130.817,113.338 130.448,113.155 128.93,112.008 128.27,111.41 126.768,109.787 126.546,109.53 125.052,107.681 124.189,106.624 " fill="none" stroke-width="0.5" stroke="rgb(0,0,0)" />
	<polygon points="182.464,103.057 182.639,103.842 183.194,107.813 183.237,108.75 183.195,109.642 183.137,110.2 183.005,111.026 182.843,111.721 182.613,112.464 182.267,113.306 181.931,113.951 181.301,114.888 180.85,115.418 179.887,116.293 179.313,116.692 178.126,117.304 177.422,117.555 176.244,117.823 175.4,117.91 173.571,117.765 170.212,116.864 169.462,116.548 169.964,117.214 172.308,121.083 172.702,121.886 174.389,126.267 174.614,127.026 175.213,129.824 177.578,127.721 178.051,127.348 181.051,125.261 181.669,124.894 184.789,123.328 185.578,123.012 188.8,122.027 189.756,121.833 193.061,121.491 194.14,121.495 198.173,121.945 199.369,122.229 201.072,122.861 199.105,121.765 198.018,120.949 194.502,117.48 194.195,117.149 189.951,112.136 189.786,111.931 185.276,106.003 185.147,105.825 181.859,101.088 " fill="none" stroke-width="0.5" stroke="rgb(0,0,0)" />
	<polygon points="385.178,93.4744 384.425,94.1676 378.248,98.789 377.417,99.2937 370.469,102.646 369.601,102.97 362.102,105.012 361.218,105.169 353.388,105.859 352.566,105.864 347.271,105.466 346.559,105.361 345.537,105.135 345.593,105.178 346.819,106.536 347.16,107.09 347.659,108.165 347.888,108.862 348.065,109.569 348.204,110.366 348.261,110.81 348.332,111.66 348.348,111.928 348.374,112.786 348.376,112.918 348.377,113.04 348.384,112.989 348.452,112.685 348.708,111.873 348.813,111.618 349.212,110.844 349.347,110.63 349.821,109.993 349.98,109.812 350.427,109.362 350.604,109.205 350.939,108.933 351.127,108.793 351.304,108.667 351.497,108.535 352.708,107.931 353.889,107.529 355.004,107.285 356.845,107.097 357.11,107.077 359.511,106.958 362.323,106.771 365.473,106.387 368.963,105.679 372.776,104.514 377.004,102.707 377.444,102.483 377.731,102.349 378.317,102.096 378.612,101.98 379.195,101.771 379.496,101.673 380.073,101.506 380.379,101.428 380.948,101.301 381.258,101.242 381.816,101.154 382.13,101.114 382.676,101.063 382.992,101.043 383.524,101.026 384.445,101.081 386.411,101.382 388.109,101.964 389.527,102.755 390.757,103.719 391.802,104.837 392.326,105.504 393.172,106.786 393.209,106.844 393.832,107.817 393.954,107.958 394.017,107.969 394.699,107.905 395.912,107.618 397.4,107.131 399.063,106.505 400.782,105.839 400.911,105.791 402.562,105.203 402.923,105.09 404.443,104.674 405.188,104.529 406.535,104.371 408.804,104.625 410.846,105.346 412.578,106.386 414.721,108.353 415.386,109.096 417.516,112.012 417.843,112.523 419.844,116.094 420.049,116.502 421.805,120.435 421.962,120.828 423.359,124.826 423.497,125.291 424.42,129.059 424.441,129.181 424.548,128.961 425.046,128.146 425.784,127.159 426.49,126.395 427.499,125.507 428.397,124.876 428.485,124.827 427.889,124.497 426.895,123.815 426.099,123.137 425.191,122.185 424.562,121.375 423.771,120.108 423.365,119.307 422.861,118.046 422.672,117.48 422.3,116.093 422.236,115.822 421.93,114.365 421.928,114.354 421.648,113.005 421.376,111.955 421.125,111.288 420.968,111.023 420.444,110.493 419.041,107.685 419.568,104.591 421.82,102.406 425.289,102.051 426.26,102.3 427.104,102.461 427.986,102.583 428.895,102.668 429.821,102.722 430.752,102.75 431.682,102.761 432.399,102.763 434.801,102.572 437.143,102.074 439.626,101.31 442.216,100.369 444.826,99.3853 444.965,99.3351 445.596,99.1183 443.304,99.7265 442.699,99.8481 431.922,101.334 431.439,101.377 419.884,101.851 419.627,101.855 416.34,101.823 416.241,101.821 412.908,101.722 412.812,101.719 409.443,101.555 409.348,101.55 405.951,101.321 405.857,101.313 402.441,101.019 402.348,101.01 398.922,100.651 398.828,100.64 395.402,100.215 395.307,100.203 391.888,99.713 391.819,99.7026 391.344,99.6279 390.922,99.5427 390.536,99.4478 389.899,99.2451 389.595,99.1258 388.714,98.6759 388.483,98.528 387.484,97.6861 387.318,97.5054 386.522,96.3434 386.414,96.1258 386.012,95.0004 385.953,94.7416 385.836,93.9161 385.818,93.612 386.141,92.3887 " fill="none" stroke-width="0.5" stroke="rgb(0,0,0)" />
	<polygon points="144.622,98.6467 144.07,101.642 143.493,104.869 143.404,105.27 142.729,107.824 144.638,107.39 145.389,107.278 149.519,106.976 150.455,106.994 155.332,107.546 156.512,107.827 157.568,108.216 155.25,106.271 155.216,106.242 150.769,102.441 146.837,99.2793 144.819,97.9483 " fill="none" stroke-width="0.5" stroke="rgb(0,0,0)" />
	<polygon points="326.108,98.4642 325.091,99.9331 325.068,99.9657 327.579,100.48 328.22,100.657 330.961,101.608 331.511,101.836 333.756,102.926 334.17,103.152 335.967,104.242 336.192,104.387 337.015,104.948 337.363,104.766 337.549,104.674 338.143,104.394 338.639,104.192 339.209,103.993 340.157,103.765 337.03,102.659 336.58,102.475 332.932,100.775 332.641,100.627 329.533,98.9268 329.433,98.8704 326.967,97.4472 326.856,97.39 " fill="none" stroke-width="0.5" stroke="rgb(0,0,0)" />
	<polygon points="69.7409,91.6544 64.6677,94.3245 59.2649,97.3052 62.7636,97.7886 64.1871,98.2052 67.5696,99.765 68.7543,100.528 71.1254,102.574 71.1964,101.73 71.2116,101.578 71.4628,99.3888 71.472,99.3136 71.76,97.0983 71.761,97.091 72.0449,94.9317 72.2837,92.9211 72.4432,91.1368 72.4691,90.4395 " fill="none" stroke-width="0.5" stroke="rgb(0,0,0)" />
	<polygon points="395.384,78.7396 394.959,79.7233 390.983,86.7594 390.832,86.9708 392.388,86.1768 394.285,85.0922 395.896,83.8766 397.085,82.5221 397.857,80.9083 398.217,78.3782 398.18,77.3623 398.049,76.0603 397.855,74.7568 397.62,73.4816 397.384,72.3156 " fill="none" stroke-width="0.5" stroke="rgb(0,0,0)" />
	<polygon points="110.938,75.2091 111.726,78.0396 111.891,78.9439 112.057,80.8021 112.35,79.8423 112.663,79.0577 113.82,76.7439 112.713,76.3398 111.288,75.4915 110.076,73.9495 " fill="none" stroke-width="0.5" stroke="rgb(0,0,0)" />
	<polygon points="171.999,77.0822 173.314,80.1822 173.338,80.1245 173.734,79.373 173.836,79.2137 174.41,78.476 174.537,78.3412 175.332,77.6542 175.482,77.5502 176.518,76.9955 176.689,76.9285 177.054,76.8355 173.502,75.7065 171.311,75.132 " fill="none" stroke-width="0.5" stroke="rgb(0,0,0)" />
	<polygon points="126.176,58.1039 125.381,60.2224 124.613,63.4121 123.877,66.9036 123.808,67.1899 122.961,70.297 122.567,71.3031 121.675,73.014 121.706,73.0105 123.246,73.5584 125.202,74.8253 126.584,76.2698 127.214,77.0791 128.062,78.4331 128.062,78.1149 128.062,78.0728 128.074,76.6906 128.077,76.5441 128.124,75.2937 128.141,75.0256 128.241,73.9231 128.303,73.4707 128.475,72.5324 128.668,71.7946 128.93,71.0366 129.485,69.9075 129.855,69.346 131.167,67.992 131.663,67.6432 133.33,66.9401 131.741,64.9252 131.606,64.7453 129.866,62.3235 128.18,60.0903 126.711,58.4844 126.181,58.0975 " fill="none" stroke-width="0.5" stroke="rgb(0,0,0)" />
	<polygon points="106.55,57.4887 105.41,58.035 103.828,59.1239 102.024,60.5929 100.16,62.1895 100.034,62.2936 98.2525,63.7216 97.7682,64.0651 96.1503,65.0751 94.79,65.6673 94.1426,65.8418 94.365,66.1713 94.6441,66.7194 94.9976,67.6167 95.187,68.2759 95.3341,68.9676 95.4418,69.7341 95.4871,70.2388 95.5212,71.1088 95.5146,71.6312 95.3874,73.6071 95.3407,74.0399 95.0052,76.2517 94.9643,76.4846 94.8408,77.1025 96.5147,74.9679 97.1096,74.3312 99.1988,72.4502 100.924,71.4318 102.982,70.7184 106.12,70.6627 107.658,71.4441 108.981,72.4327 108.356,70.403 108.149,69.3363 107.885,66.1746 107.872,65.9632 107.727,62.4753 107.434,59.4119 106.942,57.5959 106.841,57.4607 106.789,57.4451 " fill="none" stroke-width="0.5" stroke="rgb(0,0,0)" />
	<polygon points="146.226,68.2442 145.99,68.5501 145.308,69.2748 145.023,69.5232 144.195,70.11 143.869,70.2948 143.679,70.3779 143.805,70.47 147.232,73.2669 147.409,73.4184 148.795,74.6608 147.871,72.5093 147.788,72.3054 146.241,68.2206 " fill="none" stroke-width="0.5" stroke="rgb(0,0,0)" />
	<polygon points="399.037,59.3157 399.034,60.2571 398.672,64.0044 399.272,63.4507 399.484,63.2905 400.292,62.7926 400.529,62.6755 401.39,62.3444 401.644,62.2726 402.551,62.1036 402.813,62.0792 405.125,62.4064 406.235,62.8418 407.622,63.662 409,64.8098 409.289,65.0697 410.927,66.6617 412.734,68.3583 414.64,69.8892 416.628,71.0959 418.681,71.8687 421.109,72.175 421.545,72.1544 422.328,72.0356 423.076,71.8167 423.672,71.5221 424.092,71.1806 424.428,70.7166 424.74,69.8659 424.852,68.8117 424.223,66.7254 422.187,64.6228 418.325,62.338 413.376,60.2876 408.153,58.556 403.453,57.1118 403.216,57.0324 399.853,55.814 398.657,55.1209 " fill="none" stroke-width="0.5" stroke="rgb(0,0,0)" />
	<polygon points="84.4555,60.2356 84.0677,60.7162 81.043,64.0272 83.6718,63.0825 84.5698,62.8503 85.9552,62.6253 85.7192,62.1758 85.6087,61.8752 85.3279,60.675 85.2888,60.313 85.3991,58.9079 " fill="none" stroke-width="0.5" stroke="rgb(0,0,0)" />
	<polygon points="54.1456,62.832 55.3657,61.21 53.218,61.0633 " fill="none" stroke-width="0.5" stroke="rgb(0,0,0)" />
	<polygon points="161.357,42.4387 161.719,44.9602 161.672,45.3784 161.359,46.6452 161.226,46.9876 160.542,48.209 160.334,48.4817 159.417,49.4108 159.148,49.62 158.553,49.9884 160.154,50.4132 160.485,50.5132 163.864,51.6617 164.002,51.7111 167.534,53.0276 167.538,53.029 170.996,54.3212 174.042,55.3646 174.033,55.3528 170.919,51.8703 167.11,48.0296 163.209,44.1534 163.083,44.023 161.16,41.969 " fill="none" stroke-width="0.5" stroke="rgb(0,0,0)" />
	<polygon points="142.512,48.8533 142.936,50.3648 143.655,52.2579 144.563,54.3603 144.88,55.0761 145.057,54.5533 145.465,53.6504 145.861,52.9634 146.573,52.0092 147.1,51.4538 148.108,50.6343 148.774,50.2225 149.123,50.063 149.102,50.0575 147.482,49.6128 145.892,49.1892 144.432,48.8505 143.183,48.6404 142.482,48.5932 " fill="none" stroke-width="0.5" stroke="rgb(0,0,0)" />
	<polygon points="92.1275,46.5341 90.3734,46.7923 88.506,47.1038 86.6154,47.4233 86.5527,47.4334 87.563,49.0054 88.0803,52.9708 89.2392,51.4056 89.3482,51.2636 91.0678,49.1055 92.7034,47.0141 93.1129,46.4276 " fill="none" stroke-width="0.5" stroke="rgb(0,0,0)" />
	<polygon points="445.862,35.7479 445.754,36.1353 445.166,37.9594 445.123,38.0881 444.464,39.9594 443.848,41.8104 443.356,43.6245 443.03,45.449 442.911,47.3544 442.957,48.0744 443.072,48.6091 443.204,48.932 443.304,49.0817 443.387,49.1579 443.565,49.2571 444.012,49.3867 444.706,49.446 445.178,49.3797 445.198,49.3695 445.301,49.2675 445.588,48.7724 445.93,47.7769 446.212,46.3464 446.382,44.5931 446.437,42.62 446.404,40.9942 446.315,39.437 446.186,37.9568 446.035,36.5464 445.915,35.5243 " fill="none" stroke-width="0.5" stroke="rgb(0,0,0)" />
	<polygon points="186.458,37.3391 185.94,37.7291 186.095,38.1448 186.145,38.2115 186.145,38.205 186.472,37.4452 186.617,37.2588 " fill="none" stroke-width="0.5" stroke="rgb(0,0,0)" />
</svg>
