<?xml version="1.0" standalone="no" ?>
<!DOCTYPE svg PUBLIC "-//W3C//DTD SVG 1.1//EN" "http://www.w3.org/Graphics/SVG/1.1/DTD/svg11.dtd">
<svg width="500px" height="500px" xmlns="http://www.w3.org/2000/svg" version="1.1" >
	<polygon points="460.923,280.728 460.159,294.343 457.892,308.658 454.028,323.907 448.538,339.749 441.407,355.861 432.631,371.94 422.214,387.693 410.159,402.844 396.471,417.127 381.148,430.29 364.178,442.093 345.533,452.302 325.165,460.687 303.006,467.007 278.976,471.005 252.976,472.405 227.653,471.085 204.124,467.298 182.345,461.297 162.257,453.312 143.81,443.56 126.97,432.253 111.72,419.599 98.0565,405.812 85.9859,391.117 75.5201,375.748 66.6724,359.95 59.4541,343.981 53.8709,328.108 49.92,312.612 47.584,297.787 46.7905,283.359 46.7905,39.3236 50.0266,39.2987 61.5183,39.2105 61.5183,39.2105 73.0099,39.1224 84.5016,39.0342 95.9933,38.946 95.9933,38.946 118.977,38.7697 130.468,38.6815 141.96,38.5933 153.452,38.5051 164.943,38.417 176.435,38.3288 187.927,38.2406 190.818,38.2184 190.807,43.9232 190.781,56.822 190.756,69.7208 190.756,69.7208 190.73,82.6196 190.679,108.417 190.679,108.417 190.654,121.316 190.603,147.114 190.603,147.114 190.578,160.012 190.552,172.911 190.552,172.911 190.527,185.81 190.501,198.709 190.476,211.608 190.476,211.608 190.45,224.506 190.451,224.699 190.538,235.994 190.54,236.143 190.704,246.96 190.71,247.23 191.007,257.536 191.023,257.95 191.508,267.712 191.546,268.298 192.274,277.482 192.353,278.275 193.38,286.848 193.533,287.895 194.914,295.824 195.199,297.179 196.988,304.43 197.495,306.146 199.749,312.685 200.613,314.793 203.387,320.587 204.786,323.044 208.135,328.06 210.232,330.69 214.212,334.894 217.036,337.364 221.701,340.723 225.029,342.661 230.436,345.142 233.855,346.348 240.058,347.918 243.185,348.448 250.239,349.073 251.947,329.779 253.28,349.103 260.54,348.602 263.684,348.131 270.031,346.653 273.533,345.486 279.028,343.068 282.49,341.111 287.195,337.789 290.148,335.236 294.127,331.047 296.306,328.305 299.619,323.286 301.047,320.731 303.757,314.919 304.617,312.748 306.785,306.178 307.274,304.433 308.963,297.144 309.228,295.786 310.499,287.813 310.636,286.783 311.552,278.163 311.618,277.4 312.241,268.17 312.27,267.625 312.662,257.822 312.673,257.455 312.895,247.116 312.899,246.899 313.014,236.06 313.015,235.972 313.085,224.669 313.085,224.506 313.059,211.607 313.033,198.708 313.007,185.809 312.982,172.911 312.982,172.91 312.956,160.012 312.904,134.214 312.904,134.214 312.878,121.315 312.801,82.6189 312.801,82.6189 312.775,69.7201 312.711,37.9371 316.406,37.9133 328.159,37.8378 339.912,37.7622 351.665,37.6866 351.665,37.6866 363.419,37.6111 375.172,37.5355 386.925,37.46 410.432,37.3088 422.185,37.2333 433.938,37.1577 445.692,37.0821 457.445,37.0066 460.923,36.9842 " fill="none" stroke-width="0.5" stroke="rgb(0,0,0)" />
</svg>
