<?xml version="1.0" standalone="no" ?>
<!DOCTYPE svg PUBLIC "-//W3C//DTD SVG 1.1//EN" "http://www.w3.org/Graphics/SVG/1.1/DTD/svg11.dtd">
<svg width="500px" height="500px" xmlns="http://www.w3.org/2000/svg" version="1.1" >
	<polygon points="467.423,280.91 466.63,295.035 464.266,309.967 460.261,325.773 454.591,342.133 447.241,358.739 438.205,375.296 427.478,391.517 415.059,407.125 400.946,421.852 385.132,435.437 367.604,447.627 348.34,458.176 327.3,466.837 304.435,473.358 279.686,477.476 252.981,478.915 226.966,477.558 202.74,473.659 180.275,467.469 159.529,459.222 140.47,449.147 123.073,437.466 107.326,424.399 93.2262,410.172 80.7777,395.017 69.9877,379.172 60.8646,362.882 53.4154,346.402 47.6436,329.993 43.5465,313.924 41.1119,298.473 40.2905,283.538 40.2905,32.8732 49.9767,32.7989 61.4684,32.7107 61.4684,32.7107 72.9601,32.6226 84.4517,32.5344 95.9434,32.4462 95.9434,32.4462 107.435,32.358 118.927,32.2699 130.418,32.1817 153.402,32.0053 164.893,31.9172 176.385,31.829 187.877,31.7408 197.331,31.6683 197.307,43.936 197.281,56.8348 197.256,69.7336 197.256,69.7336 197.23,82.6324 197.179,108.43 197.179,108.43 197.154,121.329 197.103,147.126 197.103,147.126 197.078,160.025 197.052,172.924 197.052,172.924 197.027,185.823 197.001,198.722 196.976,211.62 196.95,224.519 196.951,224.649 197.038,235.944 197.039,236.044 197.204,246.861 197.208,247.043 197.505,257.349 197.515,257.628 198,267.39 198.026,267.784 198.754,276.968 198.807,277.502 199.834,286.075 199.937,286.781 201.317,294.709 201.509,295.622 203.299,302.872 203.64,304.028 205.894,310.567 206.476,311.986 209.25,317.78 210.192,319.435 213.541,324.451 214.953,326.222 218.933,330.426 220.834,332.089 225.499,335.449 227.741,336.753 233.147,339.235 235.449,340.047 241.652,341.616 243.758,341.973 250.812,342.598 251.947,329.779 252.832,342.618 260.093,342.117 262.21,341.8 268.557,340.322 270.915,339.537 276.41,337.118 278.741,335.801 283.447,332.479 285.435,330.76 289.414,326.571 290.881,324.725 294.194,319.706 295.156,317.985 297.865,312.173 298.445,310.711 300.613,304.141 300.942,302.966 302.631,295.677 302.809,294.763 304.08,286.79 304.173,286.096 305.088,277.476 305.133,276.962 305.756,267.732 305.775,267.365 306.167,257.562 306.175,257.315 306.397,246.976 306.399,246.83 306.514,235.991 306.515,235.931 306.585,224.629 306.585,224.519 306.559,211.62 306.533,198.721 306.507,185.822 306.482,172.924 306.482,172.924 306.456,160.025 306.404,134.227 306.404,134.227 306.378,121.328 306.301,82.632 306.301,82.632 306.275,69.7332 306.198,31.4788 316.364,31.4135 328.117,31.3379 339.87,31.2623 351.624,31.1868 363.377,31.1112 375.13,31.0356 386.883,30.9601 410.39,30.809 422.143,30.7334 433.896,30.6578 445.65,30.5823 457.403,30.5067 467.423,30.4423 " fill="none" stroke-width="0.5" stroke="rgb(0,0,0)" />
</svg>
