<?xml version="1.0" standalone="no" ?>
<!DOCTYPE svg PUBLIC "-//W3C//DTD SVG 1.1//EN" "http://www.w3.org/Graphics/SVG/1.1/DTD/svg11.dtd">
<svg width="500px" height="500px" xmlns="http://www.w3.org/2000/svg" version="1.1" >
	<polygon points="480.823,84.1163 475.747,90.2968 473.71,92.2127 472.572,93.0348 473.263,93.3158 475.241,94.3687 476.964,95.5277 478.758,97.0385 480.127,98.47 480.823,99.3695 480.823,194.154 480.322,194.734 478.743,195.809 478.658,195.842 480.665,198.07 480.823,198.282 480.823,250.687 480.336,251.366 480.389,251.385 480.823,251.607 480.823,281.286 479.971,296.463 479.565,299.026 478.791,299.983 477.91,300.949 476.43,302.387 478.032,305.454 478.409,306.329 477.405,312.666 473.11,329.62 467.07,347.047 459.27,364.67 453.785,374.721 452.57,374.886 452.734,376.645 449.695,382.213 438.331,399.399 425.161,415.952 410.17,431.593 399.078,441.121 398.913,441.07 398.873,441.298 393.345,446.047 374.668,459.037 354.126,470.285 331.702,479.516 319.049,483.125 316.902,482.015 316.701,481.883 316.631,482.479 316.24,483.926 307.382,486.452 281.151,490.817 252.993,492.333 225.548,490.902 199.887,486.773 176.007,480.192 153.907,471.407 133.585,460.665 124.965,454.877 124.892,454.411 124.152,454.331 115.039,448.212 98.2672,434.295 83.2685,419.161 70.0408,403.057 58.5824,386.23 48.8916,368.927 40.9666,351.394 34.8057,333.879 32.7695,325.892 34.7304,319.577 35.351,318.015 36.1643,316.354 34.7539,315.91 30.3186,313.221 29.7865,312.689 27.7694,299.888 26.8905,283.906 26.8905,156.304 27.235,155.538 29.6615,151.106 30.7054,149.568 28.9927,148.68 27.1904,147.505 26.8905,147.264 26.8905,38.1335 29.5242,36.2048 29.5305,36.2005 27.8933,35.5338 26.8905,35.0268 26.8905,19.5757 38.3822,19.4875 49.8739,19.3993 61.3656,19.3111 72.8572,19.223 84.3489,19.1348 95.8406,19.0466 107.332,18.9584 118.824,18.8703 130.316,18.7821 141.807,18.6939 153.299,18.6057 164.791,18.5175 176.282,18.4294 187.774,18.3412 210.757,18.1648 210.732,31.0636 210.706,43.9624 210.681,56.8612 210.656,69.76 210.63,82.6588 210.619,88.3931 210.214,88.5622 209.387,88.8273 210.573,89.8142 210.616,89.852 210.579,108.456 210.554,121.355 210.503,147.153 210.478,160.052 210.452,172.95 210.435,181.655 208.84,183.662 207.466,185.101 206.811,185.671 207.081,185.855 208.764,187.279 210.42,188.997 210.401,198.748 210.376,211.647 210.35,224.546 210.438,235.84 210.602,246.657 210.899,256.963 211.384,266.725 211.422,267.2 210.667,268.113 209.894,269.141 211.696,270.659 212.112,275.909 213.138,284.482 214.519,292.41 216.308,299.661 218.563,306.2 221.336,311.994 224.685,317.011 228.665,321.215 233.33,324.575 238.737,327.056 244.939,328.626 251.957,329.247 252.864,329.184 252.932,329.325 252.995,329.229 253.042,329.172 259.171,328.749 265.518,327.271 271.013,324.853 275.719,321.532 279.698,317.343 283.01,312.324 285.72,306.511 287.888,299.942 289.576,292.653 290.848,284.68 291.763,276.06 292.386,266.831 292.778,257.028 293,246.688 293.115,235.848 293.185,224.546 293.159,211.647 293.133,198.748 293.124,193.931 293.62,193.519 293.421,193.153 293.121,192.446 293.107,185.849 293.092,178.069 293.422,177.291 294.048,176.144 293.53,175.807 293.087,175.396 293.082,172.95 293.056,160.052 293.004,134.254 292.978,121.355 292.956,110.168 293.792,108.337 292.951,108.02 292.901,82.6588 292.875,69.76 292.797,31.0636 292.771,18.1648 304.525,18.0893 316.278,18.0137 328.031,17.9382 339.784,17.8626 351.538,17.787 363.291,17.7115 375.044,17.6359 383.276,17.583 385.207,19.0002 385.391,18.5908 386.017,17.8627 386.411,17.5628 386.797,17.5604 410.304,17.4092 422.057,17.3337 433.81,17.2581 445.564,17.1826 457.317,17.107 469.07,17.0314 480.823,16.9559 " fill="none" stroke-width="0.5" stroke="rgb(0,0,0)" />
	<polygon points="319.287,422.954 319.598,424.321 319.685,424.742 319.718,424.917 320.133,425.242 320.975,425.957 321.189,425.777 321.971,425.183 322.671,424.698 323.162,424.4 322.804,421.809 322.804,421.794 " fill="none" stroke-width="0.5" stroke="rgb(0,0,0)" />
	<polygon points="107.861,168.235 108.632,168.92 108.05,168.107 " fill="none" stroke-width="0.5" stroke="rgb(0,0,0)" />
	<polygon points="423.915,148.389 426.05,149.02 427.79,149.73 427.785,149.656 427.059,149.337 425.126,148.24 424.544,147.826 " fill="none" stroke-width="0.5" stroke="rgb(0,0,0)" />
</svg>
