<?xml version="1.0" standalone="no" ?>
<!DOCTYPE svg PUBLIC "-//W3C//DTD SVG 1.1//EN" "http://www.w3.org/Graphics/SVG/1.1/DTD/svg11.dtd">
<svg width="500px" height="500px" xmlns="http://www.w3.org/2000/svg" version="1.1" >
	<polygon points="480.823,84.1951 475.786,90.3286 473.739,92.2532 472.675,93.0225 473.282,93.2695 475.269,94.3272 476.992,95.4862 478.794,97.0039 480.163,98.4354 480.823,99.2882 480.823,194.228 480.35,194.776 478.771,195.85 478.743,195.861 480.703,198.036 480.823,198.198 480.823,250.772 480.415,251.342 480.823,251.552 480.823,281.286 479.971,296.463 479.55,299.125 478.83,300.015 477.945,300.984 476.491,302.397 478.076,305.431 478.423,306.237 477.405,312.666 473.11,329.62 467.07,347.047 459.27,364.67 453.755,374.776 452.625,374.931 452.777,376.566 449.695,382.213 438.331,399.399 425.161,415.952 410.17,431.593 399.034,441.159 398.952,441.134 398.933,441.247 393.345,446.047 374.668,459.037 354.126,470.285 331.702,479.516 318.979,483.145 316.879,482.059 316.741,481.968 316.68,482.492 316.296,483.91 307.382,486.452 281.151,490.817 252.993,492.333 225.548,490.902 199.887,486.773 176.007,480.192 153.907,471.407 133.585,460.665 124.912,454.841 124.85,454.457 124.242,454.391 115.039,448.212 98.2672,434.295 83.2685,419.161 70.0408,403.057 58.5824,386.23 48.8916,368.927 40.9666,351.394 34.8057,333.879 32.7458,325.8 34.6826,319.562 35.3061,317.993 36.0938,316.384 34.7389,315.958 30.2832,313.256 29.7998,312.773 27.7694,299.888 26.8905,283.906 26.8905,156.183 27.1911,155.514 29.6176,151.082 30.6326,149.587 28.9696,148.724 27.1591,147.544 26.8905,147.328 26.8905,38.0716 29.4287,36.2128 27.8707,35.5785 26.8905,35.0828 26.8905,19.5757 38.3822,19.4875 49.8739,19.3993 61.3656,19.3111 72.8572,19.223 84.3489,19.1348 95.8406,19.0466 107.332,18.9584 118.824,18.8703 130.316,18.7821 141.807,18.6939 153.299,18.6057 164.791,18.5175 176.282,18.4294 187.774,18.3412 210.757,18.1648 210.732,31.0636 210.706,43.9624 210.681,56.8612 210.656,69.76 210.63,82.6588 210.619,88.4473 210.234,88.6083 209.489,88.847 210.605,89.7757 210.616,89.7858 210.579,108.456 210.554,121.355 210.503,147.153 210.478,160.052 210.452,172.95 210.435,181.736 208.879,183.694 207.499,185.138 206.893,185.666 207.109,185.814 208.8,187.245 210.421,188.925 210.401,198.748 210.376,211.647 210.35,224.546 210.438,235.84 210.602,246.657 210.899,256.963 211.384,266.725 211.427,267.272 210.707,268.144 209.963,269.134 211.69,270.589 212.112,275.909 213.138,284.482 214.519,292.41 216.308,299.661 218.563,306.2 221.336,311.994 224.685,317.011 228.665,321.215 233.33,324.575 238.737,327.056 244.939,328.626 251.957,329.247 252.918,329.181 252.939,329.224 252.956,329.198 252.974,329.177 259.171,328.749 265.518,327.271 271.013,324.853 275.719,321.532 279.698,317.343 283.01,312.324 285.72,306.511 287.888,299.942 289.576,292.653 290.848,284.68 291.763,276.06 292.386,266.831 292.778,257.028 293,246.688 293.115,235.848 293.185,224.546 293.159,211.647 293.133,198.748 293.124,193.866 293.556,193.507 293.377,193.177 293.121,192.574 293.107,185.849 293.092,177.942 293.378,177.267 293.983,176.16 293.496,175.844 293.087,175.464 293.082,172.95 293.056,160.052 293.004,134.254 292.978,121.355 292.955,110.048 293.724,108.365 292.952,108.073 292.901,82.6588 292.875,69.76 292.797,31.0636 292.771,18.1648 304.525,18.0893 316.278,18.0137 328.031,17.9382 339.784,17.8626 351.538,17.787 363.291,17.7115 375.044,17.6359 383.36,17.5825 385.189,18.9248 385.353,18.5582 385.979,17.8301 386.33,17.5634 386.797,17.5604 410.304,17.4092 422.057,17.3337 433.81,17.2581 445.564,17.1826 457.317,17.107 469.07,17.0314 480.823,16.9559 " fill="none" stroke-width="0.5" stroke="rgb(0,0,0)" />
	<polygon points="319.346,422.987 319.647,424.31 319.734,424.733 319.763,424.889 320.165,425.204 320.975,425.891 321.157,425.739 321.942,425.142 322.643,424.657 323.108,424.374 322.762,421.861 " fill="none" stroke-width="0.5" stroke="rgb(0,0,0)" />
	<polygon points="107.942,168.24 108.332,168.587 108.038,168.175 " fill="none" stroke-width="0.5" stroke="rgb(0,0,0)" />
	<polygon points="424.015,148.367 426.064,148.972 426.957,149.336 425.097,148.281 424.548,147.89 " fill="none" stroke-width="0.5" stroke="rgb(0,0,0)" />
</svg>
