<?xml version="1.0" standalone="no" ?>
<!DOCTYPE svg PUBLIC "-//W3C//DTD SVG 1.1//EN" "http://www.w3.org/Graphics/SVG/1.1/DTD/svg11.dtd">
<svg width="500px" height="500px" xmlns="http://www.w3.org/2000/svg" version="1.1" >
	<polygon points="472.173,90.547 467.613,93.8435 468.802,94.0877 470.32,94.5481 472.173,95.3015 472.173,281.043 471.359,295.541 468.923,310.924 464.815,327.137 459.014,343.875 451.505,360.841 442.278,377.748 431.325,394.311 418.64,410.254 404.216,425.305 388.043,439.198 370.108,451.672 350.391,462.469 328.86,471.332 305.48,478 280.205,482.205 252.985,483.671 226.463,482.288 201.729,478.308 178.762,471.979 157.536,463.541 138.029,453.23 120.225,441.275 104.115,427.907 89.6964,413.359 76.9717,397.867 65.9448,381.674 56.6204,365.025 49.0026,348.172 43.0929,331.37 39.0606,315.556 39.6125,314.429 38.8149,314.412 36.3823,298.975 35.5405,283.668 35.5405,28.1595 38.4486,28.1372 49.9403,28.0491 61.4319,27.9609 72.9236,27.8727 84.4153,27.7845 95.907,27.6964 107.399,27.6082 118.89,27.52 130.382,27.4318 153.365,27.2555 164.857,27.1673 176.349,27.0791 187.84,26.9909 187.84,26.9909 202.09,26.8816 202.082,31.0466 202.082,31.0466 202.056,43.9454 202.031,56.8442 202.006,69.743 202.006,69.743 201.98,82.6418 201.929,108.439 201.929,108.439 201.904,121.338 201.853,147.136 201.853,147.136 201.828,160.035 201.802,172.933 201.802,172.933 201.777,185.832 201.751,198.731 201.726,211.63 201.726,211.63 201.7,224.529 201.701,224.612 201.788,235.907 201.789,235.972 201.953,246.789 201.956,246.906 202.253,257.212 202.26,257.392 202.744,267.154 202.761,267.409 203.489,276.593 203.523,276.938 204.55,285.51 204.617,285.966 205.997,293.894 206.121,294.483 207.91,301.734 208.131,302.48 210.385,309.019 210.76,309.935 213.534,315.729 214.142,316.797 217.491,321.814 218.403,322.956 222.383,327.161 223.61,328.234 228.275,331.594 229.722,332.436 235.128,334.918 236.615,335.442 242.817,337.011 244.177,337.242 251.231,337.866 251.747,332.043 252.131,332.839 252.164,332.926 252.506,337.879 259.766,337.379 261.133,337.174 267.48,335.696 269.002,335.189 274.497,332.771 276.002,331.92 280.708,328.598 281.991,327.488 285.97,323.3 286.917,322.108 290.23,317.089 290.85,315.978 293.56,310.166 293.934,309.222 296.102,302.653 296.315,301.894 298.003,294.605 298.118,294.015 299.39,286.042 299.449,285.594 300.365,276.974 300.394,276.642 301.017,267.413 301.029,267.176 301.421,257.373 301.426,257.213 301.648,246.874 301.649,246.78 301.765,235.94 301.765,235.902 301.835,224.599 301.835,224.528 301.809,211.629 301.783,198.731 301.757,185.832 301.732,172.933 301.732,172.933 301.706,160.034 301.654,134.237 301.654,134.237 301.628,121.338 301.551,82.6415 301.551,82.6415 301.525,69.7427 301.447,31.0463 301.447,31.0463 301.439,26.7593 304.58,26.7391 316.333,26.6635 328.087,26.588 339.84,26.5124 351.593,26.4369 363.346,26.3613 375.1,26.2857 386.853,26.2102 410.359,26.0591 422.113,25.9835 433.866,25.9079 445.619,25.8324 457.372,25.7568 469.126,25.6813 472.173,25.6617 " fill="none" stroke-width="0.5" stroke="rgb(0,0,0)" />
	<polygon points="306.196,468.699 306.577,468.768 307.246,468.961 308.913,469.678 308.451,468.546 307.794,466.346 " fill="none" stroke-width="0.5" stroke="rgb(0,0,0)" />
	<polygon points="193.197,443.378 193.616,444.611 194.011,446.147 194.543,446.264 196.025,446.502 197.451,446.65 198.576,446.694 200.08,446.612 201.452,446.37 202.614,445.99 203.501,445.52 204.149,444.987 204.68,444.299 204.85,443.926 202.965,444.067 201.642,444.064 195.424,443.575 193.96,443.333 193.082,443.108 " fill="none" stroke-width="0.5" stroke="rgb(0,0,0)" />
	<polygon points="316.873,421.38 316.442,421.472 316.723,422.209 317.073,423.368 317.404,424.82 317.473,425.154 317.667,426.197 318.134,426.533 318.677,426.958 319.544,427.693 320.511,428.655 320.871,429.075 321.486,428.487 321.923,428.096 322.632,427.504 323.252,427.032 323.952,426.547 324.842,426.008 325.532,425.644 325.799,425.529 325.727,425.393 325.378,424.151 325.054,421.809 325.054,418.684 " fill="none" stroke-width="0.5" stroke="rgb(0,0,0)" />
	<polygon points="167.256,413.444 167.262,414.705 166.996,418.598 169.25,418.845 169.272,418.589 169.605,416.859 169.701,416.54 170.509,414.678 170.667,414.407 171.231,413.667 169.061,412.531 168.385,412.136 167.089,411.3 " fill="none" stroke-width="0.5" stroke="rgb(0,0,0)" />
	<polygon points="273.487,415.666 273.839,415.605 274.199,415.551 274.22,415.548 271.651,414.028 " fill="none" stroke-width="0.5" stroke="rgb(0,0,0)" />
	<polygon points="259.874,404.556 259.271,406.039 261.87,407.336 262.432,407.643 264.946,409.14 259.947,404.525 259.899,404.472 " fill="none" stroke-width="0.5" stroke="rgb(0,0,0)" />
	<polygon points="351.04,396.04 350.427,397.064 351.903,396.981 351.11,395.896 " fill="none" stroke-width="0.5" stroke="rgb(0,0,0)" />
	<polygon points="204.536,391.209 205.069,392.396 205.081,392.378 206.795,390.584 205.565,390.571 204.102,390.409 " fill="none" stroke-width="0.5" stroke="rgb(0,0,0)" />
	<polygon points="244.365,374.526 245.505,375.48 245.458,375.31 245.192,373.819 245.159,373.459 " fill="none" stroke-width="0.5" stroke="rgb(0,0,0)" />
	<polygon points="82.8834,368.534 81.8435,368.608 81.3672,368.613 81.624,369.262 82.0334,371.965 82.7538,371.324 83.8759,370.477 84.6596,369.98 83.6543,368.945 83.2816,368.481 " fill="none" stroke-width="0.5" stroke="rgb(0,0,0)" />
	<polygon points="118.185,360.332 118.043,360.815 118.92,360.736 118.38,359.951 118.291,359.771 " fill="none" stroke-width="0.5" stroke="rgb(0,0,0)" />
	<polygon points="394.624,343.075 393.863,343.622 392.842,344.275 390.642,345.279 389.807,345.527 389.022,345.591 389.533,347.039 389.637,347.492 392.331,345.235 394.406,343.947 395.489,343.471 395.366,343.317 394.967,342.8 " fill="none" stroke-width="0.5" stroke="rgb(0,0,0)" />
	<polygon points="59.8858,341.603 61.1638,343.659 61.1757,343.604 61.747,341.87 62.2775,340.695 61.1466,340.368 59.669,339.826 " fill="none" stroke-width="0.5" stroke="rgb(0,0,0)" />
	<polygon points="157.765,339.051 156.323,340.164 155.512,340.663 156.318,341.151 157.352,341.887 158.933,343.196 158.956,342.509 158.995,341.919 159.174,340.154 159.27,339.476 159.576,337.798 159.721,337.18 " fill="none" stroke-width="0.5" stroke="rgb(0,0,0)" />
	<polygon points="414.934,334.484 415.078,335.366 415.125,335.691 415.283,336.96 415.337,337.572 415.397,338.7 415.406,339.409 415.396,339.743 415.391,339.83 417.194,339.984 416.315,338.273 415.428,334.43 " fill="none" stroke-width="0.5" stroke="rgb(0,0,0)" />
	<polygon points="165.278,327.824 165.137,328.216 165.509,327.936 167.236,327.137 165.972,325.223 " fill="none" stroke-width="0.5" stroke="rgb(0,0,0)" />
	<polygon points="76.372,312.45 75.5018,315.786 75.224,318.359 75.2482,319.219 75.3272,319.967 75.7106,319.461 77.1283,317.922 78.375,316.807 80.0761,315.56 80.2763,315.441 79.158,314.714 77.729,313.573 76.4933,312.366 76.4296,312.29 " fill="none" stroke-width="0.5" stroke="rgb(0,0,0)" />
	<polygon points="161.137,299.884 159.954,300.04 159.708,300.046 160.06,300.66 161.594,303.722 161.616,303.516 162.108,300.469 162.294,299.61 " fill="none" stroke-width="0.5" stroke="rgb(0,0,0)" />
	<polygon points="458.427,291.05 458.291,291.215 458.663,291.275 458.649,291.18 458.582,290.922 " fill="none" stroke-width="0.5" stroke="rgb(0,0,0)" />
	<polygon points="161.015,251.509 161.48,253.134 161.644,253.806 162.009,255.616 162.082,256.034 162.374,257.962 162.406,258.195 162.627,259.982 163.342,257.491 164.993,254.364 165.77,253.425 162.564,252.593 160.575,250.791 " fill="none" stroke-width="0.5" stroke="rgb(0,0,0)" />
	<polygon points="158.065,247.268 158.603,247.569 158.784,247.865 158.17,246.199 " fill="none" stroke-width="0.5" stroke="rgb(0,0,0)" />
	<polygon points="327.757,237.159 327.055,237.158 327.698,237.885 329.466,240.838 329.5,240.821 329.58,240.79 329.027,239.481 328.322,237.221 328.298,237.104 " fill="none" stroke-width="0.5" stroke="rgb(0,0,0)" />
	<polygon points="311.747,227.635 312.814,228.269 312.451,227.412 " fill="none" stroke-width="0.5" stroke="rgb(0,0,0)" />
	<polygon points="89.677,215.688 90.0333,216.376 90.5711,217.658 90.8229,218.426 91.1136,219.571 91.2401,220.266 92.7053,219.792 93.4342,219.67 96.072,219.635 96.7158,219.726 98.9517,220.368 98.9533,220.346 99.1448,219.069 99.6822,216.704 98.0801,216.881 96.174,216.879 92.9847,216.523 91.0446,216.076 89.5939,215.56 " fill="none" stroke-width="0.5" stroke="rgb(0,0,0)" />
	<polygon points="432.973,215.493 432.189,215.643 429.753,215.995 432.259,218.074 433.471,219.334 433.828,218.687 436.351,215.033 436.705,214.596 " fill="none" stroke-width="0.5" stroke="rgb(0,0,0)" />
	<polygon points="191.807,215.754 192.035,215.675 191.612,215.367 " fill="none" stroke-width="0.5" stroke="rgb(0,0,0)" />
	<polygon points="382.215,203.141 382.275,203.11 382.245,203.086 " fill="none" stroke-width="0.5" stroke="rgb(0,0,0)" />
	<polygon points="107.599,165.708 106.228,166.635 105.042,167.282 103.612,167.889 105.155,168.937 106.042,169.628 109.041,172.295 109.926,173.207 111.856,175.512 111.945,175.347 113.16,173.643 114.546,172.126 114.691,172.005 112.222,169.748 111.019,168.391 108.797,165.28 108.577,164.899 " fill="none" stroke-width="0.5" stroke="rgb(0,0,0)" />
	<polygon points="423.268,145.95 420.526,148.402 419.213,149.346 425.412,151.178 427.009,151.829 430.972,153.928 430.058,150.742 429.958,148.125 429.644,148.015 427.965,147.277 426.43,146.407 425.07,145.439 424.294,144.722 " fill="none" stroke-width="0.5" stroke="rgb(0,0,0)" />
	<polygon points="356.554,143.965 356.801,143.94 358.533,143.94 359.123,144 357.491,142.572 356.759,141.808 " fill="none" stroke-width="0.5" stroke="rgb(0,0,0)" />
	<polygon points="312.597,127.302 311.956,127.916 311.489,128.535 311.215,129.057 310.86,130.177 310.483,130.795 311.068,130.958 311.852,131.083 312.834,131.133 313.018,131.127 313.43,131.095 313.966,131.036 314.274,130.996 313.908,130.144 313.779,129.771 313.467,128.615 313.391,128.228 313.246,127.107 313.231,126.865 " fill="none" stroke-width="0.5" stroke="rgb(0,0,0)" />
	<polygon points="186.052,113.528 185.46,114.969 185.124,115.615 184.044,117.219 183.593,117.749 181.944,119.247 181.37,119.647 179.337,120.694 178.633,120.946 176.616,121.403 176.383,121.428 177.202,123.554 178.996,122.306 180.054,121.677 183.174,120.11 184.526,119.569 187.747,118.584 189.386,118.252 190.329,118.154 187.204,114.463 186.921,114.111 186.175,113.131 " fill="none" stroke-width="0.5" stroke="rgb(0,0,0)" />
	<polygon points="90.5738,118.162 89.3287,118.97 86.9906,120.217 84.5918,121.072 82.2753,121.528 82.3519,122.875 82.3616,123.432 83.7917,122.824 85.1006,122.415 86.8078,122.064 88.2109,121.921 89.9636,121.921 91.3686,122.064 93.0736,122.414 93.4317,122.526 93.0082,119.359 92.9852,119.172 92.6886,116.515 " fill="none" stroke-width="0.5" stroke="rgb(0,0,0)" />
	<polygon points="395.602,103.932 395.744,103.885 395.556,103.862 " fill="none" stroke-width="0.5" stroke="rgb(0,0,0)" />
	<polygon points="415.097,65.6384 416.711,66.9346 418.209,67.8447 419.552,68.35 420.957,68.5272 419.937,67.4748 416.712,65.5663 413.683,64.3116 " fill="none" stroke-width="0.5" stroke="rgb(0,0,0)" />
	<polygon points="102.501,64.9242 102.285,65.1026 100.504,66.5305 99.6745,67.1189 98.7369,67.7042 98.8991,68.4667 98.9073,68.5247 99.7444,68.0304 101.802,67.317 104.348,67.0803 104.298,66.4745 104.275,66.1124 104.167,63.4981 " fill="none" stroke-width="0.5" stroke="rgb(0,0,0)" />
	<polygon points="127.628,66.5617 128.116,66.058 127.821,65.6467 " fill="none" stroke-width="0.5" stroke="rgb(0,0,0)" />
	<polygon points="398.42,38.6438 399.128,40.3455 399.14,40.3394 400.197,39.8939 403.169,38.8673 403.735,38.6933 404.14,38.5839 401.909,37.7385 398.021,36.6325 397.206,36.4283 " fill="none" stroke-width="0.5" stroke="rgb(0,0,0)" />
</svg>
