<?xml version="1.0" standalone="no" ?>
<!DOCTYPE svg PUBLIC "-//W3C//DTD SVG 1.1//EN" "http://www.w3.org/Graphics/SVG/1.1/DTD/svg11.dtd">
<svg width="500px" height="500px" xmlns="http://www.w3.org/2000/svg" version="1.1" >
	<polygon points="480.823,83.36 480.715,83.5393 475.4,90.0112 473.446,91.848 471.651,93.1458 473.094,93.7327 474.99,94.742 476.713,95.9011 478.433,97.3495 479.802,98.781 480.823,100.101 480.823,193.489 480.068,194.362 478.489,195.436 477.899,195.671 480.331,198.371 480.823,199.031 480.823,249.875 480.545,250.302 479.622,251.59 480.238,251.809 480.823,252.108 480.823,281.286 479.971,296.463 479.706,298.136 478.441,299.7 477.597,300.626 475.876,302.298 477.633,305.662 478.247,307.087 478.276,307.17 477.405,312.666 473.11,329.62 467.07,347.047 459.27,364.67 454.051,374.233 452.08,374.474 452.348,377.352 449.695,382.213 438.331,399.399 425.161,415.952 410.17,431.593 399.477,440.779 398.558,440.491 398.335,441.76 393.345,446.047 374.668,459.037 354.126,470.285 331.702,479.516 319.681,482.945 317.109,481.615 316.343,481.113 316.197,482.362 315.799,483.834 315.671,484.088 307.382,486.452 281.151,490.817 252.993,492.333 225.548,490.902 199.887,486.773 176.007,480.192 172.879,478.949 171.169,477.987 169.828,477.6 169.374,477.556 153.907,471.407 133.585,460.665 125.441,455.197 125.268,454 123.349,453.791 115.039,448.212 98.2672,434.295 83.2685,419.161 70.0408,403.057 67.8513,399.842 67.8433,399.482 67.544,399.391 58.5824,386.23 48.8916,368.927 40.9666,351.394 34.8057,333.879 32.9819,326.726 35.1601,319.71 35.7551,318.213 36.7986,316.082 34.889,315.481 30.6368,312.902 29.6675,311.933 27.7694,299.888 26.8905,283.906 26.8905,231.363 27.4758,230.356 26.8905,230.019 26.8905,157.437 26.9599,157.244 27.6297,155.755 30.0562,151.322 31.1786,149.669 31.3884,149.416 29.2,148.28 27.4721,147.154 26.8905,146.687 26.8905,38.6913 29.7901,36.5679 30.2982,36.2184 30.5557,36.0522 29.6718,35.7738 28.0963,35.1323 26.8905,34.5225 26.8905,19.5757 38.3822,19.4875 49.8739,19.3993 61.3656,19.3111 72.8572,19.223 84.3489,19.1348 95.8406,19.0466 107.332,18.9584 118.824,18.8703 130.316,18.7821 141.807,18.6939 153.299,18.6057 164.791,18.5175 176.282,18.4294 187.774,18.3412 210.757,18.1648 210.732,31.0636 210.706,43.9624 210.681,56.8612 210.656,69.76 210.63,82.6588 210.62,87.9049 210.041,88.147 208.471,88.6501 210.285,90.16 210.615,90.4476 210.579,108.456 210.554,121.355 210.503,147.153 210.478,160.052 210.452,172.95 210.436,180.888 210.269,181.141 208.488,183.382 207.17,184.761 206.077,185.713 206.826,186.226 208.44,187.592 210.413,189.637 210.419,189.646 210.401,198.748 210.376,211.647 210.355,221.964 210.123,222.202 210.355,222.416 210.35,224.546 210.438,235.84 210.602,246.657 210.899,256.963 211.375,266.55 210.314,267.834 209.293,269.192 209.478,269.379 211.584,271.153 211.746,271.292 212.112,275.909 213.138,284.482 214.519,292.41 216.308,299.661 218.563,306.2 221.336,311.994 224.685,317.011 228.665,321.215 233.33,324.575 238.737,327.056 244.939,328.626 251.957,329.247 252.381,329.218 252.87,330.231 253.345,329.512 253.654,329.13 259.171,328.749 265.518,327.271 271.013,324.853 275.719,321.532 279.698,317.343 283.01,312.324 285.72,306.511 287.888,299.942 289.576,292.653 290.848,284.68 291.763,276.06 292.386,266.831 292.437,265.566 292.576,265.457 292.445,265.345 292.778,257.028 293,246.688 293.115,235.848 293.185,224.546 293.159,211.647 293.133,198.748 293.125,194.514 294.192,193.629 293.816,192.938 293.118,191.294 293.107,185.849 293.094,179.21 293.817,177.507 294.464,176.321 294.669,176.018 293.836,175.478 293.085,174.78 293.082,172.95 293.056,160.052 293.004,134.254 292.978,121.355 292.958,111.247 294.219,108.484 294.46,108.068 294.369,108.056 294.218,108.023 292.95,107.544 292.901,82.6588 292.875,69.76 292.797,31.0636 292.771,18.1648 304.525,18.0893 316.278,18.0137 328.031,17.9382 339.784,17.8626 351.538,17.787 363.291,17.7115 375.044,17.6359 382.522,17.5878 385.367,19.6761 385.732,18.8842 386.358,18.1561 387.144,17.5581 410.304,17.4092 422.057,17.3337 433.81,17.2581 445.564,17.1826 457.317,17.107 469.07,17.0314 480.823,16.9559 " fill="none" stroke-width="0.5" stroke="rgb(0,0,0)" />
	<polygon points="318.736,422.661 318.829,422.968 319.159,424.421 319.242,424.824 319.306,425.166 319.842,425.585 320.708,426.321 320.951,426.562 321.478,426.123 322.227,425.553 322.927,425.068 323.644,424.633 323.254,421.809 323.254,421.172 " fill="none" stroke-width="0.5" stroke="rgb(0,0,0)" />
	<polygon points="107.123,168.193 107.238,168.283 110.237,170.95 111.306,172.051 111.735,172.564 111.831,172.429 112.129,172.102 111.008,171.077 109.554,169.437 108.163,167.49 " fill="none" stroke-width="0.5" stroke="rgb(0,0,0)" />
	<polygon points="424.468,147.291 423.013,148.592 425.923,149.452 427.852,150.239 428.282,150.466 428.215,149.353 427.24,148.925 425.387,147.873 424.505,147.246 " fill="none" stroke-width="0.5" stroke="rgb(0,0,0)" />
	<polygon points="90.7419,120.191 91.3112,120.249 91.2586,119.856 " fill="none" stroke-width="0.5" stroke="rgb(0,0,0)" />
	<polygon points="186.237,117.163 186.948,116.946 186.633,116.575 " fill="none" stroke-width="0.5" stroke="rgb(0,0,0)" />
</svg>
