<?xml version="1.0" standalone="no" ?>
<!DOCTYPE svg PUBLIC "-//W3C//DTD SVG 1.1//EN" "http://www.w3.org/Graphics/SVG/1.1/DTD/svg11.dtd">
<svg width="500px" height="500px" xmlns="http://www.w3.org/2000/svg" version="1.1" >
	<polygon points="462.273,280.766 461.503,294.487 459.216,308.93 455.323,324.295 449.795,340.244 442.618,356.459 433.789,372.637 423.307,388.488 411.177,403.733 397.4,418.108 381.975,431.359 364.89,443.242 346.116,453.522 325.608,461.964 303.303,468.326 279.123,472.349 252.977,473.757 227.51,472.429 203.836,468.62 181.915,462.579 161.69,454.539 143.116,444.721 126.16,433.336 110.807,420.596 97.0533,406.718 84.9042,391.927 74.3711,376.459 65.4662,360.559 58.1999,344.484 52.5776,328.499 48.5963,312.884 46.2398,297.93 45.4405,283.396 45.4405,37.9839 50.0162,37.9488 61.5079,37.8606 72.9996,37.7724 84.4912,37.6842 95.9829,37.5961 95.9829,37.5961 107.475,37.5079 130.458,37.3315 141.95,37.2434 153.441,37.1552 164.933,37.067 187.916,36.8907 192.17,36.858 192.157,43.9258 192.131,56.8246 192.106,69.7234 192.106,69.7235 192.08,82.6223 192.029,108.42 192.029,108.42 192.004,121.319 191.953,147.116 191.953,147.116 191.928,160.015 191.902,172.914 191.902,172.914 191.877,185.813 191.851,198.711 191.826,211.61 191.826,211.61 191.8,224.509 191.801,224.689 191.888,235.983 191.89,236.122 192.054,246.939 192.06,247.191 192.357,257.498 192.372,257.883 192.857,267.645 192.892,268.191 193.62,277.375 193.693,278.115 194.72,286.688 194.863,287.664 196.244,295.592 196.509,296.856 198.299,304.106 198.771,305.706 201.025,312.245 201.831,314.21 204.605,320.004 205.909,322.294 209.258,327.311 211.213,329.762 215.192,333.966 217.825,336.268 222.49,339.628 225.592,341.434 230.999,343.915 234.186,345.039 240.389,346.609 243.304,347.103 250.358,347.728 251.947,329.779 253.187,347.756 260.447,347.255 263.378,346.816 269.725,345.338 272.989,344.25 278.485,341.832 281.711,340.008 286.417,336.686 289.169,334.306 293.148,330.118 295.179,327.562 298.492,322.543 299.824,320.161 302.533,314.349 303.335,312.325 305.503,305.755 305.959,304.128 307.648,296.839 307.895,295.573 309.166,287.601 309.294,286.64 310.21,278.02 310.271,277.309 310.894,268.079 310.921,267.571 311.313,257.768 311.323,257.426 311.546,247.087 311.549,246.885 311.664,236.045 311.665,235.963 311.735,224.66 311.735,224.508 311.709,211.61 311.683,198.711 311.657,185.812 311.632,172.913 311.632,172.913 311.606,160.014 311.554,134.217 311.554,134.217 311.528,121.318 311.451,82.6217 311.451,82.6216 311.425,69.7229 311.358,36.5957 316.397,36.5633 328.15,36.4878 339.904,36.4122 351.657,36.3367 363.41,36.2611 375.163,36.1855 386.917,36.11 410.423,35.9589 422.176,35.8833 433.93,35.8077 445.683,35.7322 457.436,35.6566 462.273,35.6255 " fill="none" stroke-width="0.5" stroke="rgb(0,0,0)" />
</svg>
