<?xml version="1.0" standalone="no" ?>
<!DOCTYPE svg PUBLIC "-//W3C//DTD SVG 1.1//EN" "http://www.w3.org/Graphics/SVG/1.1/DTD/svg11.dtd">
<svg width="500px" height="500px" xmlns="http://www.w3.org/2000/svg" version="1.1" >
	<polygon points="476.623,78.2693 476.508,78.5422 475.885,79.5727 470.57,86.0446 469.785,86.7828 462.751,91.8671 461.998,92.3004 453.482,96.0912 452.851,96.3136 443.086,98.9049 442.583,99.0061 431.806,100.492 431.404,100.528 419.849,101.002 419.635,101.005 416.348,100.973 416.266,100.971 412.934,100.873 412.853,100.87 409.484,100.706 409.405,100.701 406.008,100.473 405.93,100.467 402.514,100.172 402.437,100.165 399.011,99.8054 398.933,99.7964 395.506,99.3718 395.427,99.3613 392.009,98.8716 391.951,98.8629 391.476,98.7882 391.125,98.7174 390.74,98.6225 390.209,98.4539 389.905,98.3346 389.173,97.9604 388.942,97.8125 388.111,97.1123 387.946,96.9316 387.283,95.9652 387.175,95.7476 386.841,94.8116 386.782,94.5528 386.685,93.8663 386.667,93.5622 387.333,91.0343 387.867,90.2095 389.211,88.9026 390.618,88.047 390.891,87.8946 392.792,86.9248 394.754,85.8034 396.478,84.5027 397.801,82.9946 398.68,81.1574 399.07,78.4228 399.028,77.304 398.893,75.955 398.693,74.6173 398.455,73.3205 398.205,72.0861 398.205,72.0845 397.98,70.9725 397.958,70.8531 397.799,69.9297 397.753,69.5745 397.693,68.8682 397.699,68.0895 397.73,67.778 397.91,66.9165 397.998,66.6396 398.357,65.8285 398.495,65.5884 399,64.8888 399.179,64.6876 399.784,64.1291 399.997,63.9689 400.668,63.5547 400.905,63.4377 401.621,63.1623 401.875,63.0905 402.629,62.95 402.892,62.9256 404.815,63.1977 405.924,63.6331 407.078,64.3153 408.456,65.4631 408.697,65.6792 410.339,67.2763 412.176,69.0005 414.152,70.5869 416.254,71.8636 418.476,72.6994 421.075,73.0275 421.629,73.0014 422.512,72.8674 423.387,72.6116 424.134,72.2418 424.715,71.7696 425.185,71.1197 425.575,70.0601 425.715,68.7305 424.978,66.2825 422.718,63.9494 418.706,61.5758 413.673,59.4905 408.412,57.7462 403.703,56.2993 403.505,56.2333 400.143,55.0149 398.859,54.2706 397.633,53.232 398.19,59.3924 398.188,60.1753 397.29,69.4611 397.12,70.3053 394.573,78.4869 394.219,79.3051 390.243,86.3412 389.729,87.0611 384.542,92.9105 383.916,93.487 377.738,98.1084 377.047,98.5282 370.1,101.88 369.378,102.15 361.879,104.191 361.144,104.323 353.313,105.012 352.63,105.017 347.335,104.619 346.742,104.531 342,103.482 341.507,103.341 337.313,101.857 336.939,101.705 333.291,100.004 333.049,99.8817 329.941,98.1811 329.858,98.1342 327.375,96.7009 326.604,96.3035 326.367,96.6058 325.41,97.9794 324.392,99.4493 324.271,99.6161 323.544,100.563 323.558,100.564 324.125,100.64 327.408,101.313 327.942,101.46 330.682,102.411 331.14,102.6 333.385,103.691 333.729,103.878 335.526,104.969 335.713,105.089 336.955,105.936 337.162,105.831 337.757,105.52 337.912,105.443 338.506,105.163 338.918,104.994 339.488,104.796 340.29,104.603 340.832,104.528 342.264,104.576 342.898,104.708 344.599,105.487 345.076,105.853 346.095,106.982 346.436,107.536 346.852,108.43 347.081,109.127 347.227,109.715 347.366,110.512 347.414,110.882 347.485,111.731 347.498,111.954 347.524,112.812 347.526,112.921 347.53,113.743 347.524,113.986 347.373,116.818 347.334,117.206 346.87,120.364 346.799,120.729 346.156,123.421 347.444,123.758 348.605,124.959 349.353,126.132 349.6,126.577 350.261,127.958 350.405,128.294 350.975,129.811 351.066,130.08 351.541,131.661 351.604,131.893 351.98,133.467 352.027,133.687 352.301,135.182 352.337,135.42 352.505,136.763 352.531,137.07 352.588,138.19 352.575,138.799 351.948,145.4 351.77,146.273 350.144,151.4 350.292,151.252 351.275,150.441 351.946,149.989 353.075,149.376 353.834,149.057 355.082,148.67 355.905,148.503 357.246,148.368 358.087,148.368 359.427,148.503 360.25,148.67 361.498,149.057 362.256,149.376 363.386,149.989 364.055,150.44 365.039,151.252 365.607,151.819 366.418,152.802 366.87,153.472 367.484,154.601 367.595,154.866 367.592,154.688 367.6,154.45 367.622,154.125 367.643,153.932 367.714,153.499 367.747,153.346 367.916,152.769 367.959,152.653 368.325,151.907 368.376,151.824 369.074,150.973 369.132,150.918 370.21,150.185 370.273,150.156 371.497,149.792 371.562,149.783 373.744,150.067 374.214,150.262 374.884,150.614 375.639,151.103 376.641,151.719 377.941,152.382 379.682,153.057 381.973,153.667 384.907,154.116 388.609,154.293 390.621,154.233 392.73,154.067 394.958,153.824 397.336,153.537 397.361,153.534 399.894,153.244 399.981,153.234 402.691,152.982 402.825,152.971 405.756,152.792 405.922,152.785 409.12,152.718 409.585,152.733 416.918,153.393 417.732,153.549 424.151,155.446 424.927,155.762 430.612,158.773 431.23,159.173 436.361,163.175 436.783,163.552 441.54,168.421 441.795,168.707 446.358,174.322 446.492,174.496 451.039,180.731 451.087,180.797 455.276,186.783 457.877,188.314 457.887,188.32 461.949,190.728 462.152,190.856 466.541,193.808 466.881,194.063 471.25,197.694 471.686,198.113 475.688,202.555 476.152,203.177 476.623,203.949 476.623,244.725 475.674,246.34 475.466,246.66 471.282,252.496 471.23,252.566 466.864,258.394 465.697,260.103 466.204,259.72 468.887,258.084 470.207,257.56 473.138,256.942 474.44,256.874 475.908,257.027 476.623,257.19 476.623,281.168 475.969,292.817 473.581,295.771 473.241,296.143 470.283,299.018 467.681,300.193 465.787,299.67 466.875,300.61 467.466,301.238 469.792,304.283 470.177,304.888 472.093,308.556 472.34,309.129 473.28,311.848 469.082,328.414 463.158,345.507 455.5,362.811 452.543,368.229 450.146,367.589 448.406,364.858 447.25,358.187 444.775,354.278 441.025,351.359 436.162,348.92 430.938,346.595 430.521,346.381 425.892,343.667 424.863,342.819 421.591,339.102 420.651,337.272 419.41,331.899 419.32,330.575 419.558,327.943 419.6,327.716 419.348,328.039 417.155,329.501 415.891,329.85 415.228,329.976 413.441,330.169 413.293,330.183 411.312,330.327 409.738,330.492 409.742,330.53 409.946,331.827 410.195,333.227 410.451,334.65 410.462,334.715 410.686,336.084 410.709,336.242 410.867,337.511 410.894,337.808 410.954,338.937 410.958,339.281 410.948,339.615 410.928,339.921 410.894,340.255 410.828,340.684 410.761,341.006 410.594,341.592 410.486,341.887 410.115,342.652 409.958,342.906 409.244,343.775 409.03,343.975 408.301,344.465 411.657,344.065 412.511,344.051 417.858,344.507 418.565,344.629 423.86,346.015 424.568,346.271 429.606,348.616 430.305,349.028 434.882,352.36 435.532,352.945 439.446,357.293 439.981,358.036 443.029,363.427 443.389,364.265 445.367,370.727 445.532,371.567 446.237,379.129 446.214,379.826 446.094,380.045 434.929,396.929 421.995,413.185 407.279,428.54 400.375,434.471 399.524,434.068 398.792,433.626 397.377,432.561 396.873,432.113 395.591,430.778 395.215,430.327 394.122,428.811 393.816,428.318 392.967,426.712 392.706,426.11 392.156,424.504 391.964,423.68 391.768,422.165 391.742,421.366 391.771,420.892 391.857,420.271 391.965,419.77 392.186,419.056 392.401,418.534 392.768,417.837 393.117,417.301 393.186,417.214 392.864,417.235 389.2,416.844 388.442,416.692 384.882,415.628 384.288,415.4 380.95,413.82 380.468,413.552 377.47,411.616 377.047,411.303 374.509,409.171 374.235,408.907 374.64,409.545 375.217,410.995 375.566,412.797 375.643,413.597 375.643,417.615 375.642,417.713 375.625,418.437 375.613,418.671 375.556,419.386 375.522,419.68 375.417,420.378 375.346,420.739 375.183,421.412 375.054,421.842 374.9,422.273 376.266,421.249 379.273,420.438 380.843,420.622 381.728,420.824 383.36,421.389 384.147,421.756 385.759,422.722 386.445,423.235 387.951,424.622 388.514,425.257 389.831,427.087 390.245,427.799 391.29,430.091 391.545,430.821 392.233,433.596 392.345,434.29 392.593,437.568 392.542,438.61 392.007,441.659 390.77,442.721 372.454,455.461 352.312,466.49 330.322,475.542 323.072,477.61 322.642,477.44 319.979,476.063 319.26,475.592 317.061,473.806 316.456,473.203 314.73,471.089 314.268,470.391 313.024,468.032 312.715,467.274 311.962,464.751 311.807,463.956 311.554,461.351 311.543,460.671 311.784,456.986 311.848,456.483 312.519,452.919 312.624,452.488 313.647,449.082 313.776,448.717 315.072,445.509 315.212,445.199 315.405,444.814 315.301,444.881 314.658,445.22 313.897,445.541 313.27,445.748 312.519,445.933 311.873,446.039 311.176,446.098 310.919,446.105 310.453,447.456 309.292,451.584 309.253,451.715 307.743,456.478 307.595,456.875 305.561,461.58 305.18,462.274 302.414,466.347 301.508,467.31 297.8,470.175 296.146,470.951 291.288,472.034 289.952,472.114 285.942,471.709 285.157,471.553 281.283,470.391 280.611,470.124 276.929,468.283 276.374,467.949 272.939,465.506 272.485,465.132 269.353,462.165 268.982,461.766 266.207,458.353 265.904,457.928 263.542,454.148 263.296,453.694 261.403,449.623 261.365,449.54 260.95,448.594 260.588,447.987 260.2,447.493 259.814,447.117 259.462,446.862 259.18,446.718 258.999,446.662 258.764,446.637 258.239,446.653 257.779,446.708 257.476,446.785 257.187,446.907 256.778,447.154 256.179,447.621 255.372,448.375 254.295,449.515 254.194,449.617 252.705,451.089 254.659,450.361 256.195,450.098 256.521,450.103 256.824,450.119 257.253,450.158 257.726,450.227 258.231,450.331 258.823,450.499 259.378,450.702 260.036,451.009 260.615,451.342 261.262,451.802 261.839,452.3 262.391,452.877 262.94,453.572 263.347,454.194 263.839,455.115 266.715,460.47 269.922,464.467 273.514,467.584 277.38,469.941 281.395,471.631 285.409,472.733 289.255,473.328 292.826,473.509 295.393,473.481 297.326,473.406 298.682,473.306 299.627,473.197 300.379,473.082 301.076,472.972 301.271,472.945 301.987,472.866 302.303,472.843 303.167,472.813 303.648,472.824 304.519,472.894 305.346,473.045 306.015,473.237 306.986,473.655 307.479,473.946 308.399,474.68 308.744,475.045 309.392,475.943 309.614,476.357 309.95,477.184 310.076,477.623 310.205,478.248 310.262,478.687 310.294,479.09 310.307,479.505 310.163,480.732 309.999,481.338 306.458,482.348 280.692,486.636 267.634,487.339 267.153,486.946 266.649,486.459 265.172,484.772 264.751,484.201 264.705,484.126 261.016,486.005 260.78,486.116 256.615,487.922 256.585,487.934 252.989,488.127 225.992,486.719 200.781,482.662 181.754,477.419 181.256,477.065 177.143,474.176 173.599,472.182 171.011,471.437 167.623,471.102 164.004,470.901 155.669,467.588 135.743,457.055 133.011,455.221 132.291,454.522 131.038,451.957 131.715,449.183 134.009,447.483 135.998,447.38 136.869,447.546 137.734,447.674 138.674,447.78 139.66,447.866 140.669,447.929 141.678,447.973 142.665,447.998 143.491,448.004 148.701,447.672 152.99,446.753 156.472,445.333 159.198,443.495 161.264,441.272 162.755,438.623 163.691,435.468 164.034,431.606 164.029,431.271 164.01,430.753 163.98,430.212 163.939,429.655 163.89,429.087 163.835,428.511 163.774,427.933 163.71,427.349 164.379,424.574 166.669,422.868 169.722,423.111 171.824,424.134 172.267,424.384 174.786,426.013 175.148,426.275 176.017,426.979 175.636,426.397 175.26,425.683 174.282,423.288 174.021,422.354 173.708,420.372 173.673,419.348 173.705,418.98 173.867,418.14 173.963,417.821 174.355,416.917 174.513,416.646 175.142,415.82 175.359,415.599 176.124,414.982 176.399,414.809 177.163,414.431 177.493,414.308 178.167,414.118 178.551,414.044 179.109,413.974 179.544,413.95 179.968,413.947 180.991,413.992 181.343,414.023 182.267,414.142 182.473,414.173 183.41,414.342 183.418,414.343 184.414,414.524 185.552,414.693 187.013,414.842 188.949,414.951 191.136,414.988 195.917,414.109 198.82,412.09 201.186,408.793 203.362,404.347 205.635,399.585 205.946,399.042 208.767,394.872 209.735,393.858 213.69,390.908 215.39,390.154 221.075,389.035 222.207,388.969 223.253,389.049 223.739,389.115 224.987,389.36 225.376,389.455 226.751,389.864 227.12,389.993 228.546,390.566 228.667,390.621 228.338,389.725 228.279,389.553 227.97,388.584 227.871,388.216 227.653,387.228 227.568,386.662 227.485,385.642 227.486,384.956 227.574,383.89 227.701,383.155 227.955,382.199 228.225,381.473 226.614,382.354 225.783,382.699 217.515,385.131 216.701,385.285 206.885,386.156 206.053,386.147 197.856,385.243 196.97,385.046 193.978,384.034 195.577,385.624 195.991,386.102 198.471,389.45 198.788,389.947 200.625,393.332 200.885,393.911 202.026,397.075 202.232,397.893 202.624,400.579 202.64,401.667 202.411,403.662 202.144,404.725 201.485,406.392 200.91,407.407 199.867,408.765 199.104,409.53 197.721,410.599 196.957,411.068 195.279,411.867 194.62,412.115 192.692,412.661 192.158,412.776 190.025,413.09 189.597,413.131 187.303,413.231 186.831,413.225 183.973,413.029 183.465,412.963 180.57,412.404 180.138,412.296 177.268,411.419 176.891,411.283 174.107,410.132 173.763,409.971 171.127,408.589 170.799,408.397 168.371,406.83 168.042,406.594 165.885,404.886 165.539,404.58 163.714,402.775 163.387,402.411 162.214,400.944 161.871,400.445 160.831,398.671 160.685,398.388 161.971,403.607 162.08,404.286 162.82,413.789 162.822,414.401 162.502,419.085 162.418,419.68 161.357,424.629 161.155,425.293 159.201,430.234 158.826,430.963 155.827,435.62 155.232,436.35 151.037,440.45 150.235,441.064 144.694,444.332 143.793,444.729 136.754,446.891 135.897,447.059 127.208,447.841 126.379,447.833 121.168,447.268 117.557,444.843 101.106,431.193 86.3895,416.344 74.1916,401.494 74.0889,400.672 74.0698,399.817 74.4793,394.689 74.5867,394.023 75.7154,389.418 75.9207,388.795 77.6189,384.74 77.9062,384.177 80.0241,380.701 80.3826,380.2 82.7707,377.331 83.2052,376.881 85.7138,374.647 86.2586,374.236 88.7379,372.664 89.4845,372.289 91.7848,371.408 94.6391,371.354 96.8687,373.137 97.4435,375.932 96.5265,382.262 97.2042,380.204 97.5702,379.394 99.6501,375.847 100.157,375.155 102.885,372.138 103.49,371.587 106.758,369.151 107.429,368.742 111.131,366.939 111.846,366.668 115.876,365.548 116.622,365.412 120.872,365.027 121.712,365.035 129.387,365.883 130.304,366.09 137.388,368.549 138.225,368.948 144.583,372.894 145.285,373.44 150.785,378.748 151.327,379.387 155.837,385.931 156.22,386.615 157.823,390.241 157.25,387.802 157.22,387.661 156.63,384.698 156.611,384.595 156.091,381.596 155.418,378.798 154.369,376.341 152.867,374.018 150.866,371.826 148.307,369.78 145.139,367.915 141.322,366.278 136.686,364.876 132.984,363.869 132.77,363.805 129.818,362.831 129.501,362.712 127.261,361.768 126.797,361.537 125.175,360.603 124.535,360.149 123.438,359.206 122.714,358.4 122.047,357.43 121.515,356.352 121.183,355.335 120.991,354.38 120.902,353.299 120.949,352.235 121.254,350.475 121.695,349.202 122.551,347.611 123.191,346.723 124.511,345.322 125.152,344.767 126.847,343.575 127.428,343.232 129.408,342.27 129.938,342.056 132.117,341.343 132.625,341.212 134.914,340.769 135.435,340.702 137.745,340.55 138.186,340.544 141.292,340.667 141.694,340.702 144.608,341.099 145.103,341.197 147.846,341.913 148.401,342.101 150.992,343.182 151.552,343.466 154.012,344.957 154.514,345.314 156.863,347.26 157.269,347.644 159.528,350.09 159.832,350.459 162.021,353.449 162.296,353.876 164.069,357.038 164.285,357.483 165.722,360.951 165.834,361.251 167.009,364.838 167.062,365.011 168.05,368.531 168.064,368.581 168.923,371.797 169.687,374.396 170.302,375.963 170.551,376.319 170.8,376.421 171.145,376.525 171.546,376.612 171.974,376.674 172.397,376.709 172.816,376.721 173.336,376.715 173.89,376.697 174.448,376.67 175.01,376.638 175.565,376.605 175.586,376.604 176.12,376.575 176.178,376.572 176.683,376.552 176.785,376.549 177.259,376.541 177.899,376.579 180.411,376.924 175.749,372.861 175.233,372.324 170.608,366.562 170.2,365.95 166.754,359.66 166.447,358.954 164.296,352.41 164.112,351.573 163.37,345.051 163.345,344.438 163.403,342.655 163.422,342.368 163.602,340.604 163.648,340.274 163.954,338.597 164.05,338.187 164.489,336.664 164.687,336.122 165.265,334.82 165.686,334.083 166.41,333.07 167.305,332.152 168.181,331.495 169.775,330.757 170.809,330.523 172.169,330.442 173.077,330.536 174.001,330.738 174.779,331.004 175.593,331.383 176.277,331.795 176.841,332.203 177.465,332.738 177.781,333.04 178.38,333.673 178.51,333.817 179.117,334.52 179.711,335.207 180.267,335.796 182.945,338.206 185.625,340.104 188.398,341.593 191.343,342.735 194.535,343.575 198.04,344.143 201.907,344.463 206.106,344.562 209.776,344.378 213.031,343.87 215.852,343.1 218.156,342.148 219.852,341.125 220.867,340.207 221.235,339.634 221.239,339.614 221.048,338.895 220.165,337.873 218.146,336.425 218.913,338.747 217.87,341.404 215.608,342.736 214.445,342.989 214.394,342.999 213.258,343.232 213.185,343.246 212.069,343.454 211.974,343.471 210.873,343.65 210.756,343.667 209.663,343.814 209.525,343.83 208.433,343.94 208.276,343.953 207.18,344.021 207.007,344.029 205.9,344.053 205.394,344.033 198.786,343.376 198.025,343.229 191.587,341.35 190.916,341.089 184.868,338.126 184.264,337.764 178.825,333.852 178.272,333.376 173.661,328.653 173.161,328.034 169.596,322.637 169.185,321.839 166.885,315.905 166.636,314.924 165.821,308.589 165.792,307.829 165.961,304.671 166.009,304.226 166.501,301.179 166.594,300.747 167.389,297.823 167.524,297.411 168.602,294.623 168.773,294.237 170.112,291.596 170.315,291.24 171.895,288.757 172.125,288.431 173.925,286.12 174.178,285.824 176.178,283.696 178.723,282.404 180.685,282.972 176.284,279.984 175.858,279.653 171.744,276.008 171.08,275.262 168.17,271.076 167.524,269.615 166.42,264.79 166.478,262.693 167.619,258.72 168.421,257.201 171.43,253.566 172.02,252.982 176.274,249.531 176.509,249.354 181.357,245.954 186.031,242.558 189.774,239.197 192.039,235.997 192.859,232.524 192.85,232.324 192.76,231.528 192.599,230.594 192.371,229.578 192.08,228.529 191.734,227.494 191.342,226.516 190.847,225.486 190.557,222.646 192.15,220.277 194.889,219.473 196.828,220.085 200.175,222.138 200.514,222.37 203.581,224.692 203.898,224.957 206.17,227.059 206.238,235.873 206.238,235.904 206.402,246.721 206.404,246.778 206.701,257.084 206.704,257.172 206.949,262.095 205.405,263.964 203.643,266.307 202.666,268.132 202.406,269.454 202.681,270.861 203.552,272.275 205.234,273.976 207.558,275.933 207.63,275.996 207.927,276.257 207.942,276.409 208.968,284.981 209.001,285.202 210.381,293.131 210.441,293.417 212.231,300.667 212.338,301.03 212.34,301.035 211.209,303.062 211.113,303.225 208.787,306.987 206.536,310.745 204.687,314.394 203.478,317.865 203.044,321.246 203.259,323.671 203.899,325.988 204.925,328.094 206.311,329.966 208.044,331.575 210.113,332.889 212.516,333.865 214.814,334.357 212.096,332.521 211.58,332.109 208.977,329.678 208.241,328.766 206.399,325.691 205.867,324.266 205.169,320.321 205.116,319.278 205.206,318.067 205.272,317.576 205.541,316.19 205.632,315.815 206.082,314.275 206.183,313.974 206.813,312.298 206.918,312.044 207.728,310.254 207.837,310.031 208.829,308.146 208.942,307.945 210.114,305.985 210.233,305.798 211.587,303.784 212.944,302.789 214.592,307.569 214.774,308.014 217.548,313.808 217.843,314.326 221.192,319.343 221.635,319.898 225.615,324.102 226.21,324.623 230.876,327.983 231.578,328.392 236.985,330.873 237.706,331.128 243.909,332.697 244.569,332.809 247.291,333.05 248.124,334.775 248.386,335.468 249.3,338.729 249.418,339.305 249.869,342.673 249.904,343.083 250.024,346.531 250.011,347.044 249.483,353.077 249.356,353.794 247.722,359.912 247.459,360.629 244.646,366.558 244.221,367.265 240.155,372.731 239.554,373.382 236.309,376.227 236.699,376.231 237.872,376.365 238.85,376.598 239.878,376.977 240.76,377.427 241.645,378.019 242.334,378.596 243.077,379.368 243.562,379.975 244.028,380.684 244.306,380.643 244.726,380.603 245.293,380.578 245.9,380.595 247.146,380.72 248.011,380.901 249.117,381.257 249.939,381.621 250.897,382.177 251.607,382.695 252.244,383.27 252.18,383.097 249.753,374.145 249.624,373.422 248.809,364.335 248.814,363.538 249.81,353.673 249.974,352.861 252.856,343.481 253.165,342.739 257.771,334.1 258.209,333.438 258.561,333.001 259.46,332.939 260.124,332.84 266.47,331.362 267.21,331.116 272.705,328.698 273.436,328.285 278.141,324.963 278.765,324.424 282.743,320.235 283.203,319.657 286.516,314.638 286.817,314.098 288.03,311.497 292.649,310.041 293.488,309.868 304.292,308.773 304.893,308.755 307.706,308.874 308.068,308.905 310.707,309.247 311.092,309.315 313.495,309.857 313.93,309.98 316.035,310.7 316.56,310.921 318.305,311.797 318.968,312.211 320.291,313.221 321.105,314.042 321.945,315.163 322.008,315.297 322.559,313.964 323.018,313.722 322.925,313.676 321.052,312.559 320.483,312.153 318.831,310.75 318.25,310.147 316.932,308.473 316.404,307.604 315.531,305.672 315.202,304.546 314.886,302.372 314.871,301.274 315.088,299.444 315.254,298.672 315.545,297.753 315.138,298.238 314.825,298.573 311.308,301.945 310.743,302.4 306.153,305.484 305.388,305.89 299.421,308.307 298.586,308.548 290.939,309.92 288.925,309.575 289.527,308.286 289.708,307.828 291.876,301.258 291.979,300.89 293.668,293.601 293.724,293.314 294.995,285.341 295.024,285.124 295.94,276.504 295.954,276.343 296.356,270.379 296.48,270.282 297.492,269.667 298.383,269.259 299.526,268.89 300.408,268.706 301.666,268.583 302.785,268.624 305.061,269.014 306.26,269.412 308.276,270.441 309,270.909 310.809,272.364 311.16,272.681 312.812,274.348 312.908,274.448 314.383,276.038 315.546,277.171 316.035,277.509 316.093,277.46 316.205,277.321 316.298,277.145 316.364,276.928 315.693,274.271 313.822,272.115 310.353,269.784 305.83,267.292 305.682,267.207 300.997,264.373 300.435,263.966 296.828,260.87 296.974,257.195 296.977,257.118 297.199,246.778 297.2,246.733 297.315,235.893 297.315,235.874 297.38,225.412 297.831,224.538 299.926,222.599 300.365,222.575 298.905,221.774 298.247,221.326 297.377,220.606 297.359,211.638 297.334,199.143 298.244,198.388 298.901,197.94 300.591,197.011 301.346,196.687 303.205,196.098 304.041,195.924 305.72,195.749 305.46,195.668 304.704,195.347 303.518,194.7 302.853,194.251 301.818,193.395 301.256,192.833 300.4,191.797 299.95,191.133 299.303,189.946 298.982,189.189 298.572,187.879 298.402,187.051 298.259,185.648 298.259,184.796 298.402,183.394 298.573,182.565 298.982,181.257 299.303,180.501 299.951,179.314 300.401,178.65 301.256,177.615 301.819,177.053 302.854,176.198 303.518,175.749 304.704,175.102 305.46,174.781 306.768,174.372 307.596,174.202 308.996,174.059 309.846,174.059 311.253,174.202 312.079,174.371 313.391,174.78 314.147,175.099 315.226,175.686 315.226,175.538 315.361,174.202 315.529,173.378 315.915,172.134 316.234,171.377 316.845,170.251 317.294,169.583 317.925,168.817 315.457,168.512 315.133,168.459 312.929,168.011 312.641,167.941 310.793,167.427 310.56,167.355 309.055,166.841 308.913,166.789 308.707,166.71 308.624,166.899 308.171,168.036 308.052,168.307 307.553,169.341 307.002,170.198 306.413,170.908 304.402,172.243 303.653,172.471 300.788,172.317 299.303,171.685 298.089,170.898 297.276,170.143 297.256,160.043 297.204,134.246 297.204,134.246 297.196,130.132 298.02,129.5 298.991,129.539 298.684,129.046 298.43,128.374 298.375,128.218 298.142,127.517 298.091,127.352 297.883,126.627 297.837,126.451 297.657,125.706 297.616,125.517 297.47,124.756 297.436,124.552 297.326,123.778 297.301,123.557 297.232,122.775 297.218,122.534 297.194,121.749 297.207,121.266 297.457,118.322 297.576,117.628 298.345,114.652 298.591,113.958 299.905,111.081 300.304,110.389 302.19,107.741 302.766,107.087 305.251,104.8 305.996,104.253 309.106,102.457 309.955,102.084 313.372,101.018 313.097,100.447 312.946,100.046 312.809,99.6084 312.671,99.0676 312.612,98.8027 312.481,98.1015 312.442,97.8541 312.239,96.2445 312.017,94.5382 311.759,92.892 311.609,92.1718 310.314,93.2657 307.988,95.3213 307.961,95.345 305.559,97.4315 305.427,97.5415 303.15,99.3617 302.812,99.6055 300.826,100.893 299.818,101.37 298.288,101.858 297.139,102.032 297.105,84.8324 298.404,82.4553 299.707,79.9031 299.915,79.4105 298.458,79.2323 297.093,79.0857 297.075,69.7516 297.062,63.4844 298.536,62.4352 299.988,61.1986 300.278,60.8334 299.277,60.2144 297.44,59.3424 297.053,59.168 297.023,43.7091 298.647,42.8183 299.409,42.3209 298.882,41.3663 297.257,38.8653 297.012,38.5059 296.997,31.0552 296.997,31.0552 296.98,22.3379 304.331,22.2906 307.471,24.0006 310.682,25.6962 311.617,26.1195 311.675,25.1415 311.701,24.0858 311.705,23.2294 311.708,23.0929 311.739,22.243 316.305,22.2136 328.058,22.1381 339.811,22.0625 351.565,21.987 375.071,21.8358 377.587,21.8197 378.282,22.2284 384.492,26.7867 385.16,27.398 390.215,33.1441 390.745,33.8999 394.517,40.7825 394.861,41.6091 396.807,48.1813 397.014,47.3677 397.743,46.4533 399.143,45.3177 401.137,44.3164 401.65,44.1 404.622,43.0735 404.897,42.989 408.558,41.9988 408.754,41.9509 412.817,41.0588 412.992,41.0242 416.267,40.45 412.691,37.7829 407.889,35.246 403.309,33.5102 399.171,32.3329 395.758,31.4789 395.445,31.3873 393.15,30.6191 391.334,29.415 390.506,28.4764 389.457,25.8212 390.471,22.9593 391.097,22.2313 391.757,21.7286 410.331,21.6092 422.084,21.5336 433.837,21.458 440.998,21.412 442.602,22.8783 443.432,23.9255 444.729,26.2397 445.21,27.6199 445.667,30.4356 445.704,31.492 445.546,33.2108 445.451,33.7931 445.035,35.5524 444.945,35.8745 444.357,37.6987 444.321,37.8057 443.659,39.6841 443.034,41.5648 442.526,43.438 442.185,45.3473 442.059,47.3554 442.113,48.192 442.257,48.8606 442.45,49.3336 442.654,49.6379 442.883,49.8506 443.235,50.0466 443.856,50.2265 444.73,50.3011 445.432,50.2022 445.699,50.0698 445.98,49.7913 446.365,49.127 446.753,47.9982 447.053,46.4699 447.231,44.6461 447.287,42.6231 447.253,40.9613 447.163,39.3761 447.032,37.8746 446.879,36.4516 446.722,35.1078 446.72,35.0883 446.581,33.8492 446.571,33.7507 446.472,32.6383 446.459,32.4273 446.421,31.4437 446.434,30.9183 446.664,28.2867 446.806,27.5147 447.474,25.1412 447.781,24.36 448.853,22.2733 449.331,21.541 449.481,21.3575 457.344,21.3069 469.097,21.2313 476.623,21.183 " fill="none" stroke-width="0.5" stroke="rgb(0,0,0)" />
	<polygon points="255.266,390.168 255.273,390.817 255.225,391.529 255.153,392.07 255.016,392.759 254.883,393.261 254.664,393.921 254.481,394.379 254.363,394.631 254.696,395.108 255.072,395.744 255.364,396.344 255.638,397.04 255.83,397.672 255.997,398.43 256.086,399.045 256.142,399.868 256.134,400.552 256.038,401.563 255.883,402.361 255.608,403.292 255.295,404.059 254.856,404.893 254.394,405.589 253.807,406.309 253.215,406.901 252.496,407.49 251.799,407.953 250.965,408.394 250.197,408.708 249.264,408.985 248.464,409.14 247.45,409.236 246.453,409.211 245.515,409.076 244.513,408.801 243.646,408.443 243.047,408.137 242.226,407.631 241.969,407.46 241.469,407.098 241.524,407.387 241.56,407.603 241.683,408.486 241.708,408.711 241.781,409.583 241.794,409.817 241.819,410.676 241.77,411.445 240.992,416.421 240.634,417.578 238.427,422.209 237.881,423.068 234.442,427.255 233.848,427.846 229.371,431.492 228.785,431.891 223.464,434.897 222.89,435.167 216.92,437.435 216.343,437.608 209.918,439.041 209.317,439.13 202.633,439.629 201.991,439.628 195.773,439.139 195.062,439.021 189.865,437.693 189.142,437.436 184.908,435.478 184.229,435.083 183.279,434.404 184.11,435.456 184.411,435.892 186.852,439.945 187.117,440.465 189.103,445.123 189.306,445.722 190.336,449.716 190.751,449.886 192.091,450.28 193.71,450.637 195.442,450.916 197.134,451.091 198.611,451.149 200.589,451.041 202.536,450.698 204.361,450.1 205.982,449.241 207.364,448.103 208.516,446.611 209.427,444.612 210.093,441.541 211.609,439.123 213.569,438.278 220.811,437.183 227.071,435.306 232.592,432.701 237.344,429.462 241.3,425.674 244.438,421.417 246.733,416.759 248.259,411.392 249.927,409.075 253.822,408.626 256.67,409.734 257.023,409.891 259.882,411.318 260.155,411.467 262.938,413.124 263.166,413.269 265.783,415.065 265.991,415.218 268.356,417.063 268.568,417.241 270.59,419.046 270.837,419.285 271.99,420.497 273.126,420.248 273.31,420.212 274.595,419.991 274.77,419.964 276.104,419.792 276.27,419.774 277.653,419.65 277.809,419.639 279.242,419.565 279.388,419.56 280.87,419.535 281.038,419.536 283.169,419.585 283.357,419.594 285.56,419.744 285.737,419.76 288.018,420.013 288.182,420.034 290.547,420.392 290.7,420.417 293.154,420.881 293.294,420.91 295.844,421.482 295.972,421.513 297.453,421.895 297.89,421.159 298.396,420.481 299.197,419.667 299.888,419.135 300.955,418.538 301.469,418.342 291.181,417.296 290.3,417.109 280.215,413.81 279.382,413.432 270.776,408.339 270.066,407.811 262.965,401.255 262.413,400.634 256.844,392.948 256.448,392.278 255.224,389.69 " fill="none" stroke-width="0.5" stroke="rgb(0,0,0)" />
	<polygon points="325.821,413.64 324.985,414.021 315.48,417.154 314.593,417.343 306.931,418.125 308.367,418.642 309.532,419.341 310.752,420.449 311.524,421.495 312.07,422.495 312.564,423.792 312.734,424.355 313.065,425.807 313.098,425.97 313.362,427.383 313.617,428.463 313.778,428.873 313.89,428.967 314.605,429.475 314.626,429.491 315.534,430.144 315.797,430.35 316.664,431.086 317.134,431.553 317.867,432.407 318.432,433.257 318.94,434.268 319.336,435.499 319.525,436.703 319.549,437.668 320.252,436.649 320.414,436.43 322.018,434.404 322.147,434.248 322.869,433.421 322.978,433.301 323.697,432.538 323.848,432.386 324.563,431.702 324.775,431.512 325.484,430.92 325.785,430.691 326.485,430.206 326.917,429.944 327.607,429.58 328.224,429.315 328.902,429.087 329.746,428.896 330.41,428.816 331.706,428.863 332.366,428.991 332.97,429.155 333.921,429.492 333.993,429.518 335.199,429.969 336.636,430.453 338.371,430.927 340.243,431.299 339.94,431.214 337.401,430.364 336.917,430.168 334.821,429.162 334.209,428.801 332.625,427.678 331.828,426.94 330.827,425.739 330.011,424.188 329.661,422.946 329.504,421.809 329.504,413.773 329.682,412.564 330,411.506 330.259,410.994 " fill="none" stroke-width="0.5" stroke="rgb(0,0,0)" />
	<polygon points="350.897,385.957 350.64,386.631 347.033,394.105 346.645,394.752 341.59,401.693 341.049,402.302 339.366,403.861 339.776,403.679 340.272,403.495 343.633,402.482 344.125,402.366 348.064,401.681 348.55,401.625 353.057,401.374 353.443,401.37 357.236,401.507 357.571,401.532 361.041,401.936 361.434,402.001 364.526,402.663 365.007,402.796 367.663,403.706 368.27,403.968 370.434,405.116 371.189,405.628 371.787,406.137 371.675,405.987 370.412,403.938 369.916,402.764 369.468,400.994 369.671,398.331 370.888,395.446 371.432,394.622 368.9,396.011 367.798,396.427 362.602,397.591 360.745,397.586 359.595,397.322 358.168,396.698 357.091,395.964 356.296,395.259 355.317,394.14 354.884,393.547 354.027,392.13 353.771,391.634 353.062,390.004 352.897,389.557 352.36,387.802 352.249,387.355 351.909,385.56 351.845,385.063 351.726,383.314 351.729,383.039 " fill="none" stroke-width="0.5" stroke="rgb(0,0,0)" />
	<polygon points="119.081,384.316 117.833,385.148 116.894,386.098 116.233,387.147 115.826,388.316 115.678,389.665 115.972,392.53 116.788,395.038 118.049,397.209 119.702,399.051 121.691,400.545 123.948,401.654 126.388,402.342 129.011,402.584 129.544,402.555 128.399,402.304 127.817,402.132 125.62,401.303 125.045,401.035 123.133,399.96 122.555,399.568 120.98,398.298 120.398,397.727 119.21,396.311 118.665,395.477 117.914,393.963 117.535,392.791 117.274,391.23 117.232,390.172 117.336,388.982 117.478,388.206 117.778,387.143 118.091,386.351 118.571,385.426 119.062,384.683 119.519,384.131 " fill="none" stroke-width="0.5" stroke="rgb(0,0,0)" />
	<polygon points="277.198,387.05 280.844,390.878 285.431,394.184 290.889,396.779 297.159,398.474 304.283,399.092 307.83,398.945 311.021,398.524 313.704,397.888 315.817,397.108 316.265,396.861 315.094,396.305 314.422,395.822 312.854,393.64 312.599,392.808 312.48,390.839 312.57,390.334 312.811,389.498 312.859,389.379 310.92,390.148 310.711,390.225 307.955,391.152 307.641,391.244 304.429,392.054 304.044,392.132 300.336,392.704 299.91,392.748 295.668,392.965 295.16,392.96 291.646,392.714 291.077,392.634 287.686,391.922 287.127,391.764 283.966,390.626 283.396,390.372 280.571,388.85 279.973,388.458 277.59,386.592 276.972,385.996 275.151,383.84 " fill="none" stroke-width="0.5" stroke="rgb(0,0,0)" />
	<polygon points="353.45,361.281 352.909,361.929 350.715,364.078 349.998,364.642 347.361,366.286 346.502,366.694 343.438,367.745 342.521,367.948 339.047,368.318 338.237,368.325 335.016,368.044 334.246,367.903 331.304,367.077 330.523,366.771 327.907,365.429 327.17,364.948 324.926,363.119 324.297,362.484 323.455,361.43 323.435,361.655 323.292,362.421 322.847,363.98 322.56,364.717 321.845,366.138 321.413,366.822 320.447,368.069 319.875,368.673 318.68,369.707 317.98,370.197 316.576,370.982 315.781,371.324 314.187,371.822 313.754,371.911 320.541,372.343 323.594,372.272 327.247,372.035 331.186,371.61 335.186,370.98 339.014,370.133 342.422,369.076 345.137,367.86 347.405,366.284 350.163,365.549 352.755,366.746 353.98,370.164 353.214,377.598 353.075,378.319 353.003,378.571 353.112,378.39 353.72,377.609 354.413,376.906 355.053,376.376 356.009,375.731 356.562,375.415 357.81,374.825 358.245,374.649 359.813,374.111 360.142,374.014 361.913,373.564 371.008,370.541 372.127,369.867 370.121,370.07 369.321,370.074 366.951,369.861 366.17,369.715 364.035,369.102 363.266,368.797 361.391,367.829 360.683,367.368 359.092,366.086 358.488,365.489 357.207,363.938 356.737,363.236 355.791,361.457 355.475,360.686 354.977,359.02 " fill="none" stroke-width="0.5" stroke="rgb(0,0,0)" />
	<polygon points="299.022,351.272 297.286,353.316 294.099,355.234 293.198,355.641 288.693,357.063 288.634,357.081 283.725,358.552 279.315,360.511 275.861,363.318 273.45,367.591 272.438,374.507 272.572,375.565 272.591,375.224 272.66,374.674 272.754,374.185 272.928,373.553 273.08,373.133 273.409,372.431 273.614,372.083 274.149,371.362 274.403,371.087 275.158,370.442 275.457,370.243 276.375,369.781 276.714,369.66 277.672,369.44 278.047,369.399 278.812,369.386 279.221,369.416 279.258,369.421 279.268,369.274 279.391,368.064 279.448,367.682 279.687,366.457 279.842,365.883 280.237,364.749 280.645,363.898 281.234,362.959 282.211,361.876 283.033,361.236 284.726,360.444 285.82,360.207 288.17,360.374 289.586,360.9 290.627,361.464 292.495,362.85 292.587,362.921 294.97,364.793 297.95,366.824 301.753,368.824 303.718,369.534 302.867,368.791 302.306,368.195 301.4,367.022 300.975,366.349 300.303,365.017 300.016,364.287 299.597,362.834 299.451,362.063 299.307,360.526 299.294,359.935 299.346,358.829 299.375,358.499 299.513,357.408 299.548,357.185 299.743,356.111 299.767,355.992 299.991,354.934 299.994,354.921 300.208,353.928 300.374,353.06 300.473,352.335 300.506,351.714 300.495,351.437 300.46,351.166 300.405,350.922 300.324,350.687 300.209,350.439 300.041,350.161 299.8,349.841 299.655,349.682 " fill="none" stroke-width="0.5" stroke="rgb(0,0,0)" />
	<polygon points="387.151,305.203 386.494,305.548 385.494,306.377 384.344,307.663 383.178,309.313 382.081,311.227 381.119,313.301 380.39,315.299 380.124,316.672 379.908,319.031 379.731,322.024 379.544,325.209 379.535,325.327 379.273,328.331 379.236,328.631 378.832,331.152 378.645,331.887 378.032,333.622 376.539,335.622 375.969,336.037 378.373,337.755 378.971,338.275 381.457,340.884 381.982,341.561 383.811,344.498 384.207,345.321 385.337,348.52 385.549,349.444 385.935,352.841 385.945,353.691 385.721,356.191 385.584,356.942 385.06,358.824 386.068,357.64 386.09,357.613 390.099,352.981 390.577,352.51 395.189,348.646 396.196,348.02 402.22,345.373 403.413,345.047 404.171,344.957 403.811,344.904 402.896,344.491 401.708,343.687 400.579,342.599 400.262,342.257 398.985,340.719 398.89,340.6 397.539,338.847 396.234,337.174 395.596,336.433 395.467,336.535 394.321,337.525 393.111,338.579 392.985,338.684 391.837,339.607 391.467,339.872 390.446,340.525 389.378,341.013 388.542,341.26 386.827,341.401 386.64,341.378 385.626,341.12 385.458,341.053 384.599,340.595 384.451,340.492 383.79,339.925 383.664,339.792 383.186,339.18 383.084,339.022 382.753,338.398 382.678,338.222 382.464,337.583 382.418,337.395 382.309,336.732 382.293,336.538 382.332,335.529 382.61,333.793 382.782,333.101 383.515,330.953 383.61,330.701 384.647,328.2 384.662,328.164 385.828,325.426 386.948,322.578 387.884,319.702 388.511,316.881 388.748,314.037 388.721,312.568 388.605,310.719 388.371,308.827 388.003,307.109 387.541,305.809 387.168,305.2 " fill="none" stroke-width="0.5" stroke="rgb(0,0,0)" />
	<polygon points="322.837,320.289 322.345,321.681 320.749,323.754 319.448,324.64 318.301,325.188 317.367,325.471 317.483,325.558 318.418,326.418 319.046,327.145 319.653,328.035 320.126,328.955 320.454,329.851 320.684,330.826 320.783,331.7 320.78,332.665 320.623,333.987 320.345,335.068 319.903,336.16 319.324,337.165 318.64,338.043 317.892,338.788 317.009,339.469 316.268,339.927 315.228,340.429 314.584,340.677 313.432,341.014 312.898,341.133 311.675,341.324 311.23,341.369 309.98,341.429 309.678,341.433 308.747,341.41 308.591,341.403 307.628,341.344 307.532,341.337 306.54,341.253 306.5,341.25 305.485,341.154 304.473,341.061 303.483,340.984 302.517,340.931 301.591,340.912 300.409,340.949 299.314,341.063 298.654,341.192 299.224,342.012 299.69,342.89 299.957,343.58 302.773,342.315 306.409,342.606 307.095,342.718 310.382,343.542 311.062,343.776 313.957,345.058 314.611,345.42 317.074,347.088 317.682,347.589 319.095,348.995 319.061,348.599 319.063,347.874 319.309,345.107 319.402,344.529 320.051,341.736 320.149,341.384 321.067,338.57 321.123,338.408 322.175,335.581 323.195,332.829 324.029,330.249 324.572,327.876 324.77,325.6 324.744,324.918 324.653,324.151 324.498,323.398 324.271,322.648 323.964,321.889 323.563,321.109 323.052,320.302 322.85,320.034 " fill="none" stroke-width="0.5" stroke="rgb(0,0,0)" />
	<polygon points="363.717,277.291 363.9,277.437 367.636,280.589 367.856,280.788 371.016,283.861 371.356,284.234 373.542,286.943 374.178,288.033 374.995,290.093 374.726,293.744 373.86,295.241 372.443,296.705 370.11,298.155 369.448,298.489 366.048,299.846 365.694,299.969 361.624,301.185 361.39,301.248 357.049,302.275 356.858,302.316 352.647,303.108 352.446,303.141 348.761,303.651 348.46,303.682 345.701,303.862 345.047,303.854 344.454,303.8 343.582,303.626 343.108,303.478 342.271,303.102 342.389,303.457 342.72,305.153 342.783,306.296 342.682,307.541 342.536,308.349 342.222,309.455 341.835,310.38 341.292,311.338 340.632,312.212 339.842,313.014 339.027,313.659 337.975,314.296 337.185,314.669 335.854,315.135 335.193,315.308 335.143,315.317 339.587,317.356 340.201,317.703 345.06,321.015 345.615,321.467 349.632,325.353 350.105,325.897 353.262,330.226 353.639,330.85 355.917,335.49 356.184,336.184 357.564,341.005 357.707,341.762 357.734,342.045 357.83,340.82 357.82,340.558 357.779,340.191 357.706,339.804 357.598,339.397 357.452,338.971 357.264,338.527 357.03,338.065 356.676,337.47 356.138,334.666 357.517,332.166 360.858,331.163 365.537,331.806 366.149,331.937 367.657,332.38 367.22,330.938 367.154,330.696 366.727,328.912 366.444,327.828 365.982,328.073 364.605,328.881 363.178,329.736 363.086,329.79 361.752,330.544 361.456,330.696 360.309,331.23 359.478,331.515 358.596,331.718 357.393,331.816 357.262,331.808 356.724,331.739 356.597,331.714 356.027,331.561 355.908,331.52 355.288,331.249 355.182,331.191 354.513,330.744 354.423,330.67 353.76,329.989 353.69,329.899 353.143,328.962 353.098,328.856 352.802,327.764 352.787,327.642 352.851,326.195 353.069,325.208 353.323,324.428 353.898,323.118 354.043,322.82 354.856,321.305 354.926,321.178 355.858,319.576 355.877,319.543 356.52,318.459 355.263,318.146 353.167,317.649 352.988,317.602 351.14,317.077 350.548,316.859 349.24,316.264 347.534,314.842 347.038,314.13 346.667,309.979 346.871,309.535 348.233,307.878 348.805,307.466 349.588,307.02 350.472,306.637 350.888,306.482 352.025,306.125 352.267,306.057 353.601,305.725 353.752,305.69 355.225,305.38 355.32,305.362 356.875,305.072 356.932,305.061 358.391,304.81 361.571,304.069 364.876,302.952 368.165,301.476 371.193,299.703 373.729,297.722 375.571,295.669 376.624,293.699 376.978,291.698 376.685,289.306 375.853,287.174 374.523,285.217 372.706,283.359 370.479,281.592 367.97,279.907 365.332,278.274 365.315,278.263 363.498,277.126 " fill="none" stroke-width="0.5" stroke="rgb(0,0,0)" />
	<polygon points="419.547,321.611 419.215,321.45 420.062,322.533 420.279,322.968 420.466,324.586 420.688,324.024 421.764,321.936 422.219,321.233 422.244,321.202 " fill="none" stroke-width="0.5" stroke="rgb(0,0,0)" />
	<polygon points="399.826,302.84 400.464,304.837 401.535,306.985 402.987,309.168 404.74,311.281 406.701,313.231 408.768,314.934 410.952,316.398 411.977,317.026 413.143,317.671 414.411,318.34 415.659,318.998 415.74,319.042 416.154,319.272 415.745,318.79 414.323,316.455 414.248,316.328 412.435,313.1 410.25,309.555 407.713,306.192 404.897,303.475 401.926,301.755 399.652,301.326 " fill="none" stroke-width="0.5" stroke="rgb(0,0,0)" />
	<polygon points="419.976,261.517 419.803,262.636 419.627,263.351 419.171,264.687 419.045,265.012 418.401,266.487 418.337,266.626 417.599,268.162 417.591,268.179 417.025,269.344 417.787,269.515 419.641,269.924 419.829,269.97 421.453,270.408 422.035,270.612 423.184,271.111 424.9,272.485 425.336,273.081 426.137,275.821 425.647,277.543 425.18,278.414 423.461,280.133 422.187,280.815 421.379,281.145 419.488,281.696 419.16,281.777 416.841,282.254 416.74,282.274 414.209,282.73 411.731,283.207 409.579,283.732 407.838,284.35 406.412,285.012 405.162,285.707 404.175,286.382 403.458,287.005 402.998,287.539 402.748,287.964 402.644,288.27 402.929,288.358 403.9,288.522 405.206,288.624 406.674,288.655 410.46,288.412 413.874,287.782 417.008,286.878 419.845,285.818 422.377,284.722 424.557,283.73 424.705,283.667 426.445,282.955 427.142,282.738 428.383,282.468 429.627,282.387 429.815,282.402 430.564,282.534 430.733,282.58 431.512,282.877 431.66,282.952 432.406,283.429 432.532,283.53 433.175,284.17 433.276,284.296 433.758,285.043 433.833,285.191 434.134,285.974 434.181,286.144 434.315,286.9 434.331,287.089 434.16,288.675 433.905,289.506 433.493,290.431 432.821,291.553 432.635,291.836 431.684,293.168 431.629,293.244 430.555,294.677 429.543,296.067 429.006,296.889 429.829,297.436 431.639,298.461 433.571,299.504 433.669,299.559 435.374,300.539 435.768,300.796 436.953,301.666 438.138,303.013 438.546,303.748 438.638,307.647 438.549,307.827 437.857,308.828 437.718,308.977 436.905,309.655 436.716,309.775 435.994,310.143 435.756,310.237 435.202,310.412 434.915,310.481 434.51,310.558 434.173,310.604 433.884,310.634 433.498,310.661 433.291,310.67 432.857,310.678 432.654,310.677 431.884,310.655 431.714,310.646 430.867,310.587 430.772,310.58 429.87,310.496 429.831,310.492 428.895,310.396 427.968,310.303 427.093,310.226 426.296,310.175 426.12,310.171 426.096,310.922 426.064,312.76 426.059,312.896 425.969,314.698 425.929,315.102 425.702,316.637 425.427,317.631 425.281,317.981 425.944,317.43 426.64,316.959 428.601,315.902 429.373,315.58 431.53,314.925 432.343,314.764 434.647,314.539 435.206,314.522 437.247,314.596 437.575,314.62 439.432,314.834 439.365,314.377 439.326,313.973 439.252,312.462 439.261,311.925 439.456,309.466 439.566,308.789 440.146,306.447 440.383,305.756 441.339,303.595 441.726,302.906 441.985,302.531 439.592,300.011 437.624,293.498 435.486,287.298 433.124,281.408 430.507,275.884 427.602,270.778 424.381,266.138 420.814,262.003 419.983,261.246 " fill="none" stroke-width="0.5" stroke="rgb(0,0,0)" />
	<polygon points="458.2,286.002 456.718,286.688 455.267,287.89 453.772,289.695 452.25,292.049 450.686,294.821 449.914,296.232 451.28,295.782 452.17,295.592 454.878,295.317 455.971,295.348 459.16,295.862 460.357,296.245 463.319,297.713 464.088,298.224 463.299,297.09 463.244,295.149 463.276,295 463.286,294.932 463.299,294.802 463.311,294.613 463.319,294.372 463.325,294.082 463.327,293.75 463.327,293.481 463.249,291.875 463.017,290.297 462.629,288.799 462.113,287.527 461.54,286.609 461.019,286.089 460.579,285.854 459.962,285.755 " fill="none" stroke-width="0.5" stroke="rgb(0,0,0)" />
	<polygon points="335.654,292.359 335.601,292.362 335.796,292.783 336.805,294.358 338.138,296.185 339.168,297.584 339.228,296.825 339.355,296.26 339.623,295.46 339.959,294.713 340.092,294.444 340.568,293.561 340.604,293.497 341.126,292.567 340.704,292.51 338.913,292.386 336.67,292.341 " fill="none" stroke-width="0.5" stroke="rgb(0,0,0)" />
	<polygon points="185.318,286.007 186.902,287.073 188.38,287.948 189.709,288.615 189.772,288.639 189.693,288.573 185.861,286.138 183.928,284.967 " fill="none" stroke-width="0.5" stroke="rgb(0,0,0)" />
	<polygon points="391.864,263.157 391.822,263.394 391.291,265.953 391.265,266.067 390.655,268.64 390.654,268.644 390.057,271.155 389.56,273.519 389.229,275.695 389.11,277.699 389.163,278.954 389.327,280.197 389.592,281.282 389.919,282.107 390.226,282.597 390.409,282.775 390.48,282.812 390.589,282.828 390.76,282.731 391.232,282.273 391.824,281.418 392.4,280.219 392.871,278.76 393.179,277.125 393.294,275.3 393.247,273.008 393.117,270.763 392.931,268.658 392.714,266.698 392.493,264.888 392.492,264.88 392.296,263.254 392.286,263.164 392.148,261.76 392.132,261.536 392.126,261.396 " fill="none" stroke-width="0.5" stroke="rgb(0,0,0)" />
	<polygon points="355.404,264.384 354.558,264.922 350.457,266.888 350.101,267.039 345.626,268.697 341.527,270.299 338.576,271.948 337.111,273.527 336.575,275.642 336.663,276.316 336.909,276.868 337.289,277.309 337.926,277.752 338.856,278.156 340.004,278.46 341.25,278.638 342.496,278.694 343.131,278.679 343.103,278.204 343.054,277.622 342.993,277.01 342.929,276.393 342.926,276.361 342.87,275.771 342.862,275.678 342.822,275.134 342.813,274.957 342.797,274.467 342.814,273.949 342.838,273.686 342.978,272.932 343.05,272.678 343.326,271.962 343.443,271.725 343.857,271.054 344.017,270.841 344.576,270.235 344.777,270.056 345.476,269.552 345.717,269.414 346.528,269.055 346.805,268.966 347.666,268.787 347.977,268.755 349.605,268.911 351.687,269.535 352.49,269.87 355.082,271.282 354.897,271.052 354.148,269.638 353.984,269.097 354.098,266.328 354.282,265.865 355.547,264.267 " fill="none" stroke-width="0.5" stroke="rgb(0,0,0)" />
	<polygon points="360.163,243.419 359.599,243.982 357.81,245.457 357.144,245.907 355.093,247.021 354.337,247.341 352.074,248.046 351.248,248.215 348.863,248.456 349.844,248.929 352.268,249.863 354.824,250.492 358.015,250.757 360.61,251.946 361.845,254.52 361.444,256.779 359.7,260.366 358.584,261.779 356.425,263.548 357.338,263.087 358.075,262.837 358.652,262.687 359.548,262.519 359.886,262.471 360.864,262.369 361.075,262.353 362.057,262.301 362.191,262.296 363.1,262.276 363.174,262.276 363.914,262.273 364.79,262.262 364.863,262.259 364.857,262.169 364.793,261.236 364.793,261.224 364.728,260.242 364.725,260.204 364.669,259.207 364.666,259.14 364.626,258.156 364.623,258.053 364.608,257.106 364.608,256.982 364.616,256.344 364.621,256.196 364.65,255.604 364.666,255.39 364.72,254.855 364.764,254.54 364.846,254.075 364.961,253.593 365.077,253.21 365.388,252.455 365.542,252.166 366.386,251.066 366.581,250.884 368.379,249.893 368.485,249.865 367.88,249.743 366.667,249.371 365.919,249.059 364.801,248.462 364.131,248.016 363.142,247.211 362.566,246.642 361.738,245.649 361.275,244.967 360.643,243.804 360.374,243.164 " fill="none" stroke-width="0.5" stroke="rgb(0,0,0)" />
	<polygon points="443.162,248.913 444.052,251.241 445.231,254.165 445.233,254.169 446.587,257.534 446.608,257.589 447.996,261.185 448.036,261.292 448.462,262.493 448.613,262.183 448.677,262.059 450.204,259.179 450.256,259.083 451.938,256.102 451.976,256.036 453.561,253.342 451.914,252.509 451.77,252.433 448.315,250.515 448.068,250.367 444.591,248.112 444.232,247.852 442.131,246.149 " fill="none" stroke-width="0.5" stroke="rgb(0,0,0)" />
	<polygon points="379.67,193.453 379.82,194.92 379.821,195.777 379.67,197.249 379.499,198.079 379.067,199.454 378.745,200.211 378.064,201.458 377.614,202.122 376.712,203.211 376.151,203.772 375.061,204.672 374.398,205.121 373.523,205.598 374.142,205.79 374.901,206.109 376.297,206.865 376.967,207.317 378.183,208.319 378.751,208.886 379.753,210.1 380.205,210.771 380.962,212.165 381.282,212.924 381.76,214.465 381.928,215.288 382.094,216.943 382.094,217.783 381.928,219.443 381.761,220.265 381.283,221.81 380.964,222.569 380.207,223.966 379.755,224.637 378.753,225.853 378.184,226.421 376.969,227.424 376.298,227.877 374.902,228.634 374.143,228.953 374.018,228.992 374.276,229.069 375.021,229.371 376.181,229.976 376.851,230.411 377.855,231.209 378.432,231.765 379.256,232.726 379.725,233.394 380.344,234.49 380.682,235.261 381.072,236.464 381.253,237.316 381.388,238.596 381.393,239.429 381.257,240.875 381.102,241.678 380.712,242.992 380.392,243.773 379.773,244.935 379.297,245.643 378.473,246.636 377.867,247.232 376.862,248.036 376.16,248.492 374.999,249.089 374.239,249.391 372.948,249.763 372.168,249.91 371.26,249.993 372.131,250.305 373.505,251.121 374.595,252.091 375.057,252.573 376.176,253.944 376.349,254.172 377.462,255.743 377.504,255.803 378.389,257.1 379.39,256.055 380.607,254.776 380.768,254.616 381.955,253.496 382.421,253.116 383.547,252.324 384.797,251.726 385.835,251.425 387.36,251.275 387.661,251.301 388.578,251.484 388.833,251.566 389.913,252.09 390.123,252.232 391.045,253.083 391.214,253.293 391.765,254.193 391.893,254.477 392.144,255.202 392.233,255.565 392.326,256.081 392.378,256.53 392.405,256.884 392.422,257.425 392.417,257.795 392.404,258.024 392.427,257.942 392.537,257.642 392.894,256.903 393.041,256.662 393.621,255.916 393.801,255.732 394.593,255.097 394.801,254.968 395.707,254.546 395.939,254.47 396.833,254.283 397.084,254.258 398.97,254.504 399.947,254.87 401.257,255.657 402.223,256.512 402.693,257.001 403.656,258.179 403.808,258.378 404.763,259.701 405.633,260.888 405.897,261.196 406.884,260.535 408.112,259.588 409.395,258.556 409.476,258.492 410.684,257.567 411.015,257.338 412.065,256.684 413.096,256.221 413.228,256.182 412.617,255.804 407.68,253.91 402.253,252.386 396.863,250.881 396.457,250.745 391.644,248.854 390.761,248.378 386.884,245.646 385.768,244.482 383.182,240.452 382.57,238.858 381.629,233.074 381.585,232.105 381.721,230.177 381.771,229.762 382.128,227.679 382.174,227.448 382.679,225.251 382.703,225.155 383.28,222.891 383.842,220.656 384.307,218.544 384.613,216.618 384.725,214.844 384.715,214.428 384.68,213.979 384.624,213.587 384.551,213.252 384.467,212.974 384.374,212.745 384.275,212.557 384.036,212.202 383.341,209.433 384.577,206.86 387.172,205.671 389.356,206.079 394.663,208.66 395.493,209.193 399.125,212.178 399.861,212.96 402.276,216.296 402.325,216.382 402.295,216.167 403.788,213.734 407.032,212.864 413.764,213.876 414.237,213.975 419.695,215.452 420.434,215.729 424.879,217.89 425.724,218.434 429.417,221.499 430.071,222.178 433.275,226.364 433.637,226.926 434.756,229.002 435.047,227.044 435.343,226.003 437.088,221.943 437.49,221.216 440.013,217.562 440.412,217.068 443.397,213.9 443.769,213.55 446.899,210.947 447.268,210.673 450.229,208.715 450.673,208.459 453.148,207.225 453.979,206.916 455.653,206.487 456.844,206.408 455.31,205.715 452.843,205.007 451.418,204.84 450.414,205.009 448.448,205.717 445.585,206.908 445.508,206.939 441.919,208.35 441.689,208.433 437.379,209.843 437.054,209.935 431.933,211.166 431.553,211.239 425.531,212.109 425.127,212.148 418.114,212.478 417.384,212.449 404.619,210.818 403.488,210.509 393.201,206.072 392.21,205.47 384.163,198.908 383.466,198.185 379.586,193.05 " fill="none" stroke-width="0.5" stroke="rgb(0,0,0)" />
	<polygon points="314.668,221.329 314.011,221.775 312.32,222.702 311.567,223.024 309.709,223.612 308.876,223.785 306.894,223.99 306.029,223.991 304.154,223.797 305.559,225.175 306.779,228.947 308.495,230.878 311.241,232.512 314.886,234.095 315.041,234.166 318.841,236.003 319.595,236.472 322.86,239.017 323.88,240.171 326.165,243.986 326.714,245.511 327.114,248.136 327.543,247.592 328.536,246.608 329.267,246.029 330.384,245.331 331.1,244.973 332.268,244.523 332.914,244.332 334.062,244.091 334.642,244.01 335.698,243.939 336.485,243.959 337.291,244.056 337.2,243.981 336.635,243.416 335.16,241.63 334.71,240.963 333.596,238.915 333.275,238.157 332.571,235.897 332.402,235.071 332.156,232.647 332.156,231.8 332.2,231.371 331.606,231.694 330.85,232.013 329.538,232.421 328.714,232.589 327.309,232.731 326.459,232.731 325.065,232.589 324.236,232.418 322.933,232.01 322.176,231.689 320.994,231.044 320.329,230.593 319.296,229.739 318.734,229.176 317.88,228.142 317.431,227.477 316.785,226.291 316.465,225.534 316.056,224.224 315.887,223.397 315.744,221.993 315.744,221.144 315.822,220.375 " fill="none" stroke-width="0.5" stroke="rgb(0,0,0)" />
	<polygon points="405.833,224.855 407.244,228.671 409.094,232.351 411.853,236.074 414.375,238.487 417.991,241.402 417.998,241.407 422.379,244.954 422.559,245.108 424.464,246.836 422.858,244.738 416.307,237.07 410.311,230.205 410.183,230.051 405.65,224.33 " fill="none" stroke-width="0.5" stroke="rgb(0,0,0)" />
	<polygon points="462.082,210.127 462.247,210.623 462.396,211.208 462.504,211.809 462.555,212.202 462.614,212.905 462.627,213.16 462.645,213.963 462.64,214.268 462.513,216.789 462.488,217.081 462.151,219.862 462.127,220.028 461.651,222.969 461.638,223.05 461.092,226.051 461.09,226.06 460.55,228.99 460.093,231.701 459.786,234.049 459.683,235.852 459.778,237.083 460.043,238.255 460.451,239.346 460.949,240.272 461.339,240.794 461.526,240.646 462.964,239.037 464.551,236.763 466.049,234.021 467.28,230.989 468.097,227.839 468.385,224.749 467.78,219.324 466.214,215.041 463.952,211.648 461.85,209.619 " fill="none" stroke-width="0.5" stroke="rgb(0,0,0)" />
	<polygon points="364.236,228.547 364.405,229.375 364.489,230.201 364.781,230.007 365.899,229.402 366.243,229.255 365.266,228.952 364.507,228.631 364.212,228.47 " fill="none" stroke-width="0.5" stroke="rgb(0,0,0)" />
	<polygon points="337.806,210.776 337.13,211.229 335.315,212.204 334.556,212.521 333.746,212.769 334.5,213.39 335.064,213.953 335.921,214.988 336.372,215.654 337.02,216.841 337.341,217.599 337.751,218.91 337.921,219.738 337.934,219.86 338.986,218.992 339.653,218.541 341.702,217.426 342.46,217.106 343.472,216.79 343.217,216.618 342.181,215.762 341.617,215.198 340.761,214.162 340.31,213.495 339.664,212.307 339.343,211.55 338.935,210.239 338.866,209.905 " fill="none" stroke-width="0.5" stroke="rgb(0,0,0)" />
	<polygon points="357.413,215.761 356.377,216.617 355.712,217.067 355.072,217.416 355.093,217.426 357.144,218.54 357.424,218.729 357.329,217.784 357.329,216.943 357.453,215.722 " fill="none" stroke-width="0.5" stroke="rgb(0,0,0)" />
	<polygon points="320.399,212.275 320.346,212.528 320.992,212.09 321.891,211.599 321.199,211.225 320.553,210.79 " fill="none" stroke-width="0.5" stroke="rgb(0,0,0)" />
	<polygon points="360.248,203.62 360.657,204.928 360.827,205.756 360.97,207.158 360.97,208.008 360.905,208.654 361.236,208.322 362.449,207.32 363.117,206.868 364.389,206.177 364.205,206.119 363.449,205.796 362.21,205.115 361.549,204.666 360.465,203.765 360.195,203.495 " fill="none" stroke-width="0.5" stroke="rgb(0,0,0)" />
	<polygon points="355.438,194.66 354.684,194.98 352.59,195.637 351.76,195.808 349.52,196.038 348.664,196.038 346.426,195.808 345.596,195.637 343.542,194.992 343.629,195.275 343.794,196.094 343.989,198.052 345.074,197.461 345.831,197.141 347.144,196.732 347.97,196.563 349.378,196.421 350.227,196.421 351.63,196.564 352.458,196.733 353.767,197.142 354.524,197.463 355.711,198.109 356.376,198.559 357.412,199.414 357.641,199.643 357.56,199.454 357.129,198.079 356.958,197.249 356.807,195.777 356.807,194.92 356.917,193.853 " fill="none" stroke-width="0.5" stroke="rgb(0,0,0)" />
	<polygon points="314.15,195.35 313.393,195.67 312.08,196.079 311.254,196.248 310.444,196.33 311.571,196.687 312.324,197.01 314.015,197.94 314.354,198.17 314.559,196.096 314.724,195.279 314.812,194.99 " fill="none" stroke-width="0.5" stroke="rgb(0,0,0)" />
	<polygon points="320.606,185.647 320.51,186.594 320.523,186.583 321.198,186.128 321.666,185.876 321.431,185.776 320.606,185.325 " fill="none" stroke-width="0.5" stroke="rgb(0,0,0)" />
	<polygon points="367.802,163.024 367.481,163.783 366.868,164.91 366.416,165.579 365.604,166.56 365.037,167.126 364.053,167.936 363.384,168.387 362.255,168.998 361.497,169.317 360.25,169.704 359.884,169.778 360.226,170.119 361.599,171.777 362.049,172.44 363.088,174.339 363.411,175.095 364.069,177.188 364.24,178.019 364.47,180.258 364.47,181.117 364.24,183.351 364.067,184.184 363.896,184.727 364.206,184.594 365.569,184.164 366.403,183.991 367.858,183.84 368.717,183.84 370.189,183.99 371.018,184.16 372.393,184.591 373.148,184.911 374.397,185.592 375.059,186.04 375.476,186.383 372.709,180.725 372.473,180.133 369.707,171.285 369.582,170.776 368.098,162.529 368.058,162.202 " fill="none" stroke-width="0.5" stroke="rgb(0,0,0)" />
	<polygon points="333.95,183.335 333.384,183.902 332.88,184.318 334.308,184.756 334.127,184.183 333.955,183.351 333.953,183.331 " fill="none" stroke-width="0.5" stroke="rgb(0,0,0)" />
	<polygon points="346.892,157.269 346.302,158.039 342.8,161.655 342.104,162.233 337.998,164.956 337.286,165.335 332.752,167.217 332.492,167.3 333.377,168.029 333.944,168.595 334.755,169.577 335.207,170.245 335.82,171.372 336.141,172.131 336.209,172.348 336.595,171.778 337.968,170.12 338.528,169.56 340.188,168.189 340.85,167.741 342.749,166.703 343.504,166.382 345.597,165.725 346.426,165.555 348.664,165.325 348.745,165.325 348.463,164.908 347.85,163.781 347.53,163.022 347.143,161.778 346.975,160.953 346.84,159.617 346.84,158.775 346.974,157.434 347.068,156.973 " fill="none" stroke-width="0.5" stroke="rgb(0,0,0)" />
	<polygon points="314.574,121.651 312.764,122.139 311.164,122.885 309.776,123.841 308.619,124.95 307.718,126.145 307.091,127.338 306.618,128.833 304.882,131.1 303.292,131.462 303.687,131.819 305.089,132.925 306.412,133.803 307.671,134.476 308.893,134.971 310.116,135.312 311.387,135.515 312.789,135.586 313.258,135.572 313.846,135.526 314.494,135.455 315.179,135.367 315.871,135.273 315.905,135.269 316.56,135.186 316.671,135.173 317.26,135.115 317.492,135.098 317.999,135.076 318.422,135.079 318.987,135.111 319.521,135.176 320.029,135.271 320.645,135.436 321.091,135.592 321.781,135.906 322.16,136.122 322.882,136.642 323.187,136.915 323.849,137.669 324.074,137.997 324.556,138.932 324.695,139.314 324.924,140.293 324.972,140.727 324.976,141.615 324.896,142.389 324.779,143.035 324.552,143.893 324.401,144.355 324.152,144.99 326.862,144.773 329.921,144.016 332.795,142.739 335.363,140.939 337.541,138.586 337.559,138.555 337.504,138.605 334.772,140.579 332.028,141.365 328.593,139.127 328.082,138.154 327.543,137.306 326.892,136.448 326.125,135.6 325.242,134.776 324.236,133.992 323.102,133.263 321.667,132.517 321.248,132.3 320.709,131.969 320.346,131.706 319.848,131.282 319.547,130.983 319.12,130.485 318.878,130.155 318.541,129.611 318.356,129.256 318.114,128.692 317.985,128.318 317.834,127.757 317.758,127.37 317.687,126.826 317.662,126.433 317.677,125.733 317.754,124.99 317.9,124.248 318.124,123.478 318.339,122.902 318.695,122.128 318.882,121.781 318.132,121.622 317.236,121.498 316.677,121.467 " fill="none" stroke-width="0.5" stroke="rgb(0,0,0)" />
	<polygon points="206.539,27.6117 205.445,28.3449 204.857,28.6738 201.448,30.2378 201.219,30.3348 197.166,31.9106 197.124,31.9268 192.898,33.5178 189.011,35.1045 186.007,36.614 184.922,37.4317 185.342,38.5589 186.867,40.5699 186.926,38.5408 187.253,37.781 188.555,36.1077 189.466,35.4093 190.3,34.9111 191.69,34.2863 192.185,34.1001 193.95,33.5613 194.288,33.4733 196.323,33.0328 196.589,32.9841 198.79,32.6542 199.03,32.6253 201.292,32.4183 201.539,32.403 203.759,32.3313 203.941,32.3294 205.54,32.3472 205.771,32.3561 206.529,32.4062 206.506,43.9542 206.486,54.3177 206.287,54.3215 204.139,54.0223 203.419,53.8563 200.913,53.0409 200.478,52.872 197.813,51.6632 197.487,51.4977 196.635,51.0176 197.717,52.0977 197.751,52.1321 202.978,57.471 203.142,57.6486 206.472,61.4663 206.456,69.7517 206.456,69.7518 206.43,82.6505 206.43,82.7177 205.94,82.8294 205.302,82.9241 204.173,83.0035 203.453,82.9923 199.471,82.587 198.963,82.5036 194.274,81.4349 194.019,81.3682 188.899,79.8574 188.777,79.8195 183.502,78.0876 183.474,78.0783 178.355,76.3574 173.739,74.8898 170.026,73.9165 169.978,73.9103 171.206,77.3899 173.209,82.1133 173.769,83.3659 173.665,82.3139 173.681,82.1186 173.788,81.4594 173.835,81.2699 174.046,80.6334 174.121,80.4558 174.45,79.8308 174.552,79.6716 175.03,79.058 175.156,78.9232 175.818,78.3519 175.967,78.2479 176.829,77.7865 177,77.7196 178.014,77.4607 178.204,77.437 179.914,77.5757 182.49,78.3351 183.3,78.6692 187.072,80.7084 187.368,80.8847 191.91,83.8455 192.073,83.9575 196.958,87.4815 197.076,87.5701 201.88,91.2989 201.991,91.3884 206.286,94.9637 206.406,95.0677 206.379,108.448 206.379,108.448 206.354,121.347 206.352,122.352 206.041,122.482 204.773,122.755 201.844,122.318 199.519,121.022 198.615,120.344 195.099,116.875 194.844,116.599 190.6,111.587 190.462,111.416 185.953,105.489 185.845,105.34 181.532,99.1261 181.416,98.9501 178.536,94.3208 180.081,98.2379 180.188,98.5445 181.652,103.307 181.797,103.959 182.352,107.93 182.388,108.71 182.346,109.601 182.298,110.066 182.166,110.891 182.031,111.469 181.801,112.213 181.513,112.913 181.177,113.558 180.653,114.337 180.202,114.868 179.401,115.595 178.828,115.995 177.84,116.503 177.136,116.755 176.157,116.977 175.313,117.065 173.791,116.944 170.432,116.043 169.381,115.601 165.368,113.225 164.967,112.956 160.544,109.597 160.383,109.469 155.797,105.62 155.768,105.595 151.312,101.786 147.339,98.5918 144.378,96.6393 144.311,96.6178 143.793,98.4539 143.234,101.491 142.656,104.72 142.582,105.053 141.836,107.879 141.456,108.828 141.358,109.008 144.826,108.219 145.451,108.125 149.581,107.823 150.36,107.839 155.236,108.391 156.218,108.624 160.476,110.196 161.381,110.661 165.011,113.125 165.733,113.746 168.726,116.977 169.237,117.654 171.581,121.524 171.909,122.191 173.596,126.573 173.783,127.203 174.702,131.5 174.981,131.197 175.282,130.901 178.143,128.356 178.536,128.046 181.536,125.959 182.05,125.654 185.17,124.087 185.827,123.824 189.048,122.84 189.844,122.678 193.148,122.337 194.046,122.34 198.079,122.79 199.074,123.026 202.528,124.308 203.467,124.798 206.343,126.8 206.303,147.145 206.278,160.043 206.252,172.942 206.247,175.784 205.776,176.649 205.376,177.253 203.594,179.495 203.065,180.049 200.923,181.914 200.258,182.389 197.789,183.808 197.001,184.159 194.238,185.061 193.371,185.246 190.347,185.563 189.29,185.54 183.963,184.746 182.747,184.369 178.255,182.187 177.318,181.563 175.476,179.943 176.003,180.702 176.262,181.126 177.73,183.884 177.97,184.424 179.008,187.284 179.01,188.357 180.372,187.944 180.814,187.836 184.665,187.11 185.174,187.046 189.118,186.793 189.712,186.797 193.017,187.054 193.69,187.161 196.755,187.911 197.444,188.144 200.207,189.356 200.894,189.738 203.293,191.382 203.941,191.931 205.914,193.976 206.21,194.358 206.201,198.74 206.176,211.639 206.165,216.926 206.113,217.021 206.011,217.193 205.186,218.525 202.947,220.296 200.093,220.227 197.568,217.433 196.929,215.122 196.134,213.608 195.069,212.38 193.629,211.33 191.699,210.439 189.213,209.752 186.162,209.317 182.534,209.166 180.284,209.217 179.709,209.255 179.964,209.376 180.646,209.781 183.544,211.896 184.249,212.546 186.221,214.834 186.792,215.688 188.001,218.089 188.327,218.97 188.933,221.425 189.046,222.148 189.213,224.597 189.189,225.406 188.702,229.279 188.439,230.304 187.091,233.699 186.648,234.529 184.613,237.489 184.134,238.067 181.582,240.639 181.162,241.009 178.266,243.237 177.941,243.464 174.873,245.393 174.651,245.523 171.583,247.199 171.468,247.26 168.571,248.727 165.738,249.076 163.336,247.532 162.565,244.107 162.81,242.956 163.026,241.834 163.218,240.709 163.381,239.579 163.514,238.446 163.612,237.309 163.673,236.167 163.693,235.084 163.587,232.921 163.25,230.798 162.635,228.648 161.684,226.449 160.328,224.181 158.484,221.831 157.3,220.641 156.24,222.609 156.16,222.75 154.958,224.789 153.901,226.63 153.132,228.207 152.698,229.516 152.647,229.952 153.725,230.447 154.974,233.617 154.914,235.044 154.902,235.232 154.743,237.054 154.734,237.142 154.51,239.213 154.505,239.254 154.247,241.43 154.246,241.44 153.99,243.564 153.771,245.467 153.624,246.954 153.578,247.823 153.617,249.061 153.705,249.812 153.816,249.843 156.737,252.735 157.202,254.359 157.281,254.686 157.647,256.496 157.682,256.699 157.974,258.627 157.99,258.74 158.234,260.718 158.238,260.757 158.46,262.699 158.68,264.492 158.913,266.022 159.084,266.821 161.321,267.772 162.37,269.312 162.912,270.69 163.484,272.137 164.086,273.568 164.725,274.934 165.399,276.173 166.093,277.228 166.777,278.046 167.697,278.858 167.945,279.073 168.242,279.355 168.512,279.639 168.749,279.911 169.011,280.239 169.222,280.527 169.465,280.89 169.663,281.219 169.874,281.606 170.066,282.009 170.231,282.41 170.406,282.926 170.515,283.331 170.638,284.01 170.677,284.408 170.634,285.54 170.426,286.73 170.064,287.846 169.491,289.023 169.041,289.749 168.177,290.869 167.733,291.359 166.655,292.376 166.214,292.739 164.996,293.609 164.517,293.905 163.235,294.582 162.646,294.838 161.376,295.277 160.553,295.472 159.37,295.629 158.47,295.65 158.114,295.621 157.405,295.5 156.999,295.394 156.294,295.142 155.847,294.935 155.211,294.571 154.733,294.238 154.211,293.81 153.711,293.326 153.314,292.884 152.801,292.225 152.515,291.807 151.998,290.946 151.798,290.57 151.413,289.75 151.058,289.207 150.185,288.289 148.755,286.98 147.065,285.493 147.017,285.451 145.323,283.913 145.16,283.757 143.671,282.252 143.345,281.881 142.24,280.465 141.688,279.527 141.146,278.256 140.987,275.406 141.599,274.287 141.595,274.285 141.645,274.182 141.649,274.167 141.664,274.084 141.666,274.068 141.509,273.179 140.953,271.932 139.894,270.168 138.527,268.068 138.467,267.973 137.058,265.678 136.885,265.368 135.655,262.925 135.423,262.366 134.553,259.758 134.367,258.923 134.037,256.135 134.685,253.355 135.715,252.395 135.734,252.373 135.61,251.218 135.189,249.479 134.513,247.287 133.692,244.821 133.682,244.791 132.846,242.216 132.802,242.071 132.073,239.513 132.002,239.224 131.486,236.766 131.412,236.263 131.216,233.986 131.953,231.228 134.393,229.923 134.543,228.036 134.561,227.86 134.861,225.393 134.896,225.164 135.355,222.585 135.417,222.297 136.075,219.685 136.181,219.329 137.076,216.758 137.252,216.329 137.65,215.497 137.028,215.54 132.993,216.324 128.765,217.662 124.56,219.558 120.578,222.006 117.001,224.99 113.986,228.499 113.325,229.649 115.849,227.271 116.253,226.935 124.174,221.153 126.915,220.354 129.533,221.491 130.82,224.04 130.386,226.465 129.228,228.719 128.357,230.924 127.657,233.238 127.12,235.595 126.734,237.929 126.482,240.173 126.346,242.259 126.311,243.871 127.739,254.106 131.525,264.151 137.035,274.15 143.49,283.931 150.035,293.319 150.109,293.43 155.846,302.242 156.081,302.653 160.139,310.755 160.493,311.77 162.032,319.075 162.106,320.313 161.854,323.153 161.729,323.863 160.978,326.678 160.733,327.357 159.496,330.037 159.118,330.693 157.403,333.13 156.87,333.75 154.69,335.834 153.99,336.375 151.353,337.998 150.51,338.396 147.427,339.45 146.514,339.653 142.997,340.028 142.128,340.031 139.041,339.719 138.174,339.537 135.472,338.665 134.659,338.304 132.351,336.969 131.657,336.467 129.751,334.766 129.203,334.172 127.706,332.201 127.299,331.549 126.22,329.404 125.943,328.702 125.29,326.48 125.14,325.712 124.92,323.511 124.914,322.747 125.051,321.094 125.156,320.449 125.527,318.925 125.704,318.369 125.816,318.085 125.286,318.786 124.761,319.36 123.082,320.885 122.426,321.374 120.497,322.537 119.706,322.907 117.572,323.648 116.667,323.854 114.69,324.078 116.261,324.757 116.972,325.149 118.758,326.374 119.363,326.878 120.906,328.432 121.404,329.037 122.649,330.876 123.032,331.575 123.924,333.655 124.172,334.438 124.655,336.714 124.746,337.625 124.726,339.863 124.638,340.677 124.201,342.784 123.957,343.567 123.136,345.509 122.752,346.218 121.578,347.962 121.082,348.568 119.588,350.082 119.01,350.57 117.227,351.82 116.594,352.186 114.554,353.14 114.187,353.275 114.237,353.682 114.267,354.14 114.296,356.494 114.224,357.32 113.812,359.51 113.571,360.326 112.755,362.319 112.352,363.071 111.167,364.833 110.631,365.479 109.111,366.977 108.477,367.491 106.658,368.691 105.964,369.061 103.882,369.932 103.162,370.159 100.851,370.666 100.151,370.759 97.8542,370.868 97.1106,370.837 94.9879,370.56 94.2185,370.385 92.2888,369.75 91.5451,369.422 89.8278,368.457 89.1614,367.993 87.6757,366.727 87.1243,366.159 85.8895,364.621 85.4712,363.992 85.2548,363.592 85.1166,363.626 84.3249,363.802 84.1406,363.839 83.3208,363.983 83.1426,364.011 82.301,364.122 81.7961,364.158 79.4826,364.182 78.6484,364.108 76.4501,363.687 75.6669,363.456 73.6319,362.635 72.9249,362.268 72.0977,361.733 76.5315,368.176 77.2242,369.928 78.4784,378.21 78.2935,380.216 74.541,391.028 72.7441,393.246 69.9441,393.803 68.2152,392.914 62.1572,384.018 52.6443,367.032 44.8685,349.83 38.8295,332.661 38.3128,330.634 41.129,321.563 41.3682,320.961 45.5648,312.392 45.7795,312.007 50.5902,304.342 50.7113,304.16 55.5089,297.334 59.5688,291.422 62.1584,286.655 63.0271,282.873 63.0218,282.759 62.9584,282.331 62.8594,281.957 62.7215,281.609 62.5306,281.258 62.2635,280.88 61.8929,280.461 61.2586,279.874 61.2488,279.865 59.3268,278.074 59.078,277.822 57.564,276.152 57.4089,275.971 56.1861,274.457 56.1641,274.43 55.2025,273.219 54.5433,272.494 54.2092,272.232 54.1424,272.203 53.7279,272.773 53.2475,273.872 52.9469,275.265 52.9324,276.82 53.2776,278.459 54.1653,280.357 54.5263,280.927 55.0009,281.66 55.0285,281.703 55.4736,282.409 55.5598,282.551 55.9513,283.23 56.0907,283.493 56.4165,284.164 56.5853,284.563 56.8331,285.244 56.9863,285.769 57.1439,286.479 57.2327,287.084 57.2879,287.84 57.2484,288.797 56.9072,290.973 56.7212,291.712 55.7757,294.408 55.5942,294.845 54.1612,297.812 53.9748,298.156 52.1713,301.143 51.9425,301.483 49.8853,304.241 49.5447,304.643 47.3508,306.922 46.7346,307.449 44.521,309 43.2078,309.614 41.0913,310.187 38.7341,310.139 36.765,309.519 35.056,308.483 33.2375,306.664 33.0498,306.415 31.9514,299.444 31.0905,283.79 31.0905,237.307 32.5046,234.058 32.992,233.219 34.8305,230.76 36.5015,229.432 38.4781,228.561 40.5401,228.221 41.0804,228.269 41.9438,228.438 42.3922,228.575 43.335,228.998 43.6976,229.217 44.5456,229.895 44.8285,230.188 45.4335,230.988 45.6429,231.347 45.9901,232.109 46.132,232.525 46.2948,233.164 46.3755,233.63 46.4316,234.135 46.4571,234.643 46.4604,234.984 46.4306,235.944 46.4234,236.093 46.3448,237.275 46.3412,237.325 46.2304,238.737 46.1049,240.372 45.9812,242.231 45.8908,244.003 46.7093,239.361 46.7288,239.259 48.0781,232.585 48.1692,232.219 49.9016,226.397 50.2704,225.529 52.0313,222.412 49.9481,223.624 49.6577,223.778 46.9687,225.072 46.597,225.23 44.0695,226.159 43.5909,226.304 41.2311,226.864 40.6196,226.963 38.4337,227.151 37.5864,227.138 35.05,226.841 33.9748,226.568 31.743,225.673 31.0905,225.297 31.0905,202.058 32.1609,203.569 33.8243,205.515 35.3962,206.984 36.8916,208.048 38.3542,208.792 39.86,209.288 41.4955,209.578 43.3676,209.677 44.8924,209.636 46.5604,209.509 48.3342,209.301 50.2246,209.014 52.2414,208.651 54.3936,208.218 56.6901,207.719 59.1517,207.159 61.1893,207.411 60.6227,206.422 60.2622,205.601 59.6249,203.585 59.4498,202.732 59.2278,200.484 59.2369,199.575 59.3725,198.434 58.4031,199.57 58.1524,199.839 56.3938,201.568 56.0972,201.833 54.3169,203.279 53.9683,203.534 52.1814,204.702 51.7756,204.937 49.9969,205.835 49.5301,206.036 47.7746,206.67 47.2459,206.822 45.5286,207.198 44.9427,207.284 43.2785,207.408 42.5444,207.398 40.4533,207.186 39.5741,207.001 37.6496,206.374 36.7921,205.983 35.0688,204.95 34.3192,204.378 32.8317,202.949 32.2533,202.261 31.0905,200.529 31.0905,164.384 31.1374,164.186 31.2708,163.737 32.8429,159.354 33.1121,158.756 35.5386,154.323 35.9897,153.658 39.5291,149.39 40.1546,148.778 44.7694,145.124 44.7009,145.138 44.1638,145.212 41.8698,145.376 41.1781,145.369 38.4447,145.114 37.6582,144.963 35.1227,144.223 34.3653,143.919 32.079,142.733 31.3846,142.28 31.0905,142.044 31.0905,112.846 32.6451,111.711 33.1796,111.379 35.4325,110.204 38.2617,109.822 40.6813,111.337 41.531,114.534 41.4844,114.854 41.4567,115.098 41.4362,115.345 41.4216,115.604 41.412,115.883 41.4067,116.189 41.4046,116.528 41.4044,116.752 41.6289,119.896 42.2493,122.604 43.2485,125.029 44.6154,127.191 46.3599,129.107 48.507,130.781 51.0853,132.194 53.4502,133.068 52.7808,132.727 52.0959,132.29 48.6889,129.619 47.9909,128.926 45.3317,125.577 44.7571,124.611 43.0279,120.553 42.726,119.443 42.1091,114.645 42.0935,113.713 42.3175,111.346 42.4677,110.563 43.1162,108.345 43.413,107.602 44.4509,105.585 44.888,104.906 46.2802,103.141 46.4799,102.934 41.5205,104.872 40.7541,105.091 36.7291,105.834 35.716,105.896 35.0236,105.855 34.4581,105.782 33.8246,105.657 33.1659,105.469 32.6016,105.258 31.8672,104.897 31.3823,104.597 31.0905,104.368 31.0905,91.6504 33.8172,87.529 34.0675,87.189 38.8512,81.3339 38.9651,81.2003 38.5871,81.4559 38.1542,81.7123 35.4817,83.0856 34.5412,83.4343 32.4157,83.9439 31.0905,83.9971 31.0905,61.8046 31.1147,61.7864 31.6812,61.4276 32.8914,60.7902 33.3325,60.5895 34.7237,60.051 35.0742,59.9328 36.006,59.6637 33.3616,59.4953 32.7595,59.413 31.0905,59.06 31.0905,43.3623 33.4828,41.6104 33.687,41.4699 38.147,38.5918 38.2026,38.5566 42.6205,35.8028 45.8059,33.7109 44.0619,33.1963 39.8527,32.1545 39.8304,32.1489 35.531,31.0597 35.3004,30.9942 31.5498,29.8126 31.0905,29.6256 31.0905,23.7436 38.4144,23.6874 49.9061,23.5992 61.3978,23.511 72.8895,23.4228 79.1336,23.3749 79.4904,24.0257 79.7442,27.5083 78.9401,29.6709 78.0014,31.1487 75.8817,33.3091 75.3366,33.7769 72.3398,35.9331 72.1149,36.0842 68.6795,38.234 68.6731,38.238 65.3459,40.3119 62.7393,42.1651 62.445,42.4591 65.9931,43.1172 70.6231,43.6001 74.0528,43.9285 74.048,43.9219 73.8664,43.5596 73.4664,42.2941 73.4031,41.8683 73.9306,39.1333 74.689,37.8345 76.1648,36.345 78.1642,35.1527 78.7216,34.8742 81.5484,33.7147 81.6835,33.662 84.8636,32.4842 87.8435,31.2755 90.0422,30.1069 90.8217,29.4193 90.4831,29.1709 89.5682,28.7585 88.2585,28.3178 88.2437,28.3128 86.9294,27.865 86.2904,27.5862 85.3608,27.085 83.6404,25.3498 83.2878,24.6822 83.2783,23.3431 84.3811,23.3347 95.8728,23.2465 107.364,23.1583 114.576,23.103 115.099,23.7298 116.162,24.7227 117.173,25.2432 118.804,25.4779 120.371,25.2535 121.419,24.7302 122.553,23.7337 123.185,23.0369 130.348,22.982 141.84,22.8938 153.331,22.8056 153.472,22.8045 153.554,24.0933 153.186,24.9123 151.771,26.628 150.802,27.3096 150.155,27.6833 148.785,28.3198 148.691,28.3619 147.259,28.985 146.145,29.5685 145.57,30.0113 145.536,30.0591 146.413,31.0138 148.447,32.5217 151.131,34.1987 153.958,35.9075 154.129,36.0165 156.617,37.6901 157.126,38.0925 158.886,39.7212 159.906,41.1778 160.573,42.7678 160.874,44.8648 160.827,45.2831 160.567,46.3367 160.434,46.679 159.865,47.6948 159.658,47.9676 158.894,48.7402 158.626,48.9495 157.857,49.4249 157.54,49.5769 156.877,49.8277 156.523,49.9286 155.987,50.044 155.609,50.1 155.18,50.1411 154.949,50.1513 156.294,50.3116 156.874,50.4225 159.936,51.2348 160.212,51.318 163.59,52.4665 163.705,52.5075 167.237,53.8241 167.24,53.8252 170.709,55.1215 173.873,56.2054 176.059,56.7934 174.703,54.8261 171.538,51.2873 167.711,47.4288 163.809,43.5505 163.703,43.4421 160.29,39.7961 159.997,39.447 157.582,36.2305 156.979,35.1041 156.063,32.5032 156.25,29.266 157.303,27.1087 158.621,25.5446 161.535,23.4425 162.275,23.0159 162.908,22.7321 164.823,22.7174 176.315,22.6292 187.806,22.5411 206.549,22.3973 " fill="none" stroke-width="0.5" stroke="rgb(0,0,0)" />
	<polygon points="54.6814,335.688 55.5876,343.118 59.3459,349.162 65.1786,354.934 67.2678,356.927 67.1431,356.753 66.7368,356.048 65.8366,354.066 65.5672,353.269 65.0711,351.107 64.9649,350.21 64.9396,347.748 65.034,346.818 65.5254,344.543 65.8028,343.701 66.7313,341.645 67.138,340.937 68.4239,339.131 68.9147,338.559 70.0384,337.464 70.0293,337.464 69.8316,337.444 66.486,337.033 66.1174,336.971 63.247,336.355 62.6804,336.191 60.2117,335.285 59.5002,334.944 57.3594,333.661 56.666,333.141 55.7689,332.311 " fill="none" stroke-width="0.5" stroke="rgb(0,0,0)" />
	<polygon points="75.7645,301.899 73.7146,306.695 72.1169,311.132 71.1128,314.982 70.7672,318.182 70.8048,319.515 70.9555,320.944 71.2474,322.321 71.7244,323.706 72.4519,325.166 73.5148,326.752 75.0044,328.495 75.9066,329.355 76.0695,328.422 76.2754,327.667 77.0363,325.642 77.389,324.922 78.4934,323.124 78.9833,322.476 80.401,320.937 81.0064,320.396 82.7074,319.149 83.3966,318.738 85.3509,317.815 86.0866,317.548 88.264,316.981 89.0462,316.855 91.4799,316.694 92.3337,316.725 94.5808,317.037 95.4101,317.239 97.4523,317.965 98.192,318.313 100.011,319.394 100.629,319.842 102.207,321.221 102.699,321.73 104.017,323.348 104.397,323.897 104.431,323.957 104.685,323.873 105.478,323.639 105.749,323.569 106.571,323.385 106.843,323.333 107.688,323.202 108.282,323.152 108.469,323.15 107.924,322.969 107.049,322.562 105.325,321.503 104.59,320.929 103.235,319.606 102.69,318.954 101.679,317.458 101.312,316.794 100.621,315.219 100.395,314.564 99.9983,313.001 99.8848,312.331 99.7579,310.871 99.7484,310.334 99.1935,310.744 96.9092,312.06 96.0561,312.432 93.5416,313.212 92.6977,313.381 90.01,313.637 89.2057,313.637 87.4476,313.467 86.6608,313.314 84.9571,312.809 84.2135,312.509 82.6195,311.682 81.9345,311.237 80.5055,310.096 79.9054,309.509 78.6968,308.066 78.2175,307.358 77.2845,305.621 76.9594,304.834 76.3574,302.815 76.2008,302.008 76.1197,301.148 " fill="none" stroke-width="0.5" stroke="rgb(0,0,0)" />
	<polygon points="123.096,281.718 125.339,288.007 125.389,288.156 127.348,294.371 127.438,294.704 128.823,300.812 128.911,301.373 129.436,307.344 129.433,308.115 129.204,310.497 129.055,311.271 128.395,313.528 128.357,313.625 128.454,313.508 129.143,312.78 129.685,312.298 130.3,311.84 131.485,311.222 131.964,311.063 133.689,310.867 133.869,310.885 134.94,311.132 135.09,311.188 136.306,311.894 136.427,311.995 137.304,313.002 137.399,313.154 137.816,314.04 137.886,314.249 138.041,314.862 138.089,315.134 138.138,315.525 138.165,315.867 138.178,316.112 138.183,316.373 138.222,316.782 138.29,317.023 138.415,317.28 138.583,317.506 138.781,317.686 139.028,317.83 139.383,317.944 139.95,318 140.468,317.953 140.867,317.838 141.158,317.687 141.378,317.508 141.552,317.293 141.69,317.028 141.788,316.691 141.804,316.521 140.775,311.698 137.729,305.379 133.106,297.632 127.696,288.758 127.603,288.598 122.182,278.756 122.015,278.417 121.563,277.387 " fill="none" stroke-width="0.5" stroke="rgb(0,0,0)" />
	<polygon points="107.267,291.993 107.258,292.269 106.981,296.475 106.892,297.102 106.1,300.703 105.876,301.413 105.647,301.964 107.73,302.121 108.013,302.279 109.632,303.892 109.866,304.308 110.07,304.725 110.274,305.205 110.29,305.238 110.802,305.189 111.014,305.117 111.055,305.089 111.146,304.98 111.342,304.587 111.565,303.799 111.731,302.612 111.79,301.135 111.462,296.356 110.594,291.81 109.323,287.281 107.812,282.659 107.81,282.653 107.267,280.983 " fill="none" stroke-width="0.5" stroke="rgb(0,0,0)" />
	<polygon points="91.4365,270.064 91.3868,270.177 88.489,276.505 88.4332,276.622 85.5196,282.499 85.4839,282.569 83.1284,287.104 80.9259,291.355 82.9653,291.294 83.4813,291.452 84.8702,292.181 85.3918,292.596 85.7992,292.966 86.3644,293.551 86.8872,294.092 87.2761,294.43 87.5582,294.607 87.8095,294.699 88.1648,294.739 89.4528,294.562 90.0247,294.255 90.5457,293.623 91.1672,292.111 91.6938,289.55 92.0296,286.027 92.1873,281.633 92.2244,276.41 92.2303,276.215 92.583,269.628 92.6346,269.159 93.169,265.966 " fill="none" stroke-width="0.5" stroke="rgb(0,0,0)" />
	<polygon points="107.95,208.427 107.217,209.053 105.051,210.506 104.14,210.968 101.562,211.902 100.591,212.127 97.5933,212.457 96.6678,212.457 93.4786,212.1 92.5366,211.883 89.6723,210.864 88.813,210.442 86.3047,208.834 85.6002,208.266 85.1996,207.865 85.4204,208.375 84.6183,211.114 83.5529,212.133 82.9879,212.508 82.6143,212.73 81.9676,213.069 81.61,213.235 80.8816,213.534 80.5441,213.656 79.7337,213.91 79.4177,213.995 78.5253,214.2 78.2312,214.257 77.2566,214.409 76.9833,214.442 75.9265,214.536 75.6732,214.551 74.5339,214.583 74.0669,214.57 71.8369,214.385 71.1213,214.263 69.0496,213.72 68.3278,213.459 66.4573,212.58 65.7574,212.165 64.131,210.971 64.0172,210.868 64.1127,212.44 62.7623,214.489 59.4892,217.2 59.3375,217.32 58.4313,218.003 59.9334,217.751 60.7154,217.854 61.9185,218.201 62.5628,218.497 63.629,219.2 64.1459,219.668 64.8565,220.504 65.2562,221.123 65.6399,221.874 65.9328,222.624 66.1151,223.217 66.3116,224.078 66.3889,224.528 66.4992,225.479 66.5248,225.822 66.5593,226.842 66.5558,227.208 66.3829,230.449 66.3536,230.769 65.8978,234.263 65.8687,234.452 65.8523,234.545 67.5531,229.553 67.6374,229.327 70.2409,222.917 70.5112,222.37 73.1758,217.836 74.5327,216.426 77.2196,214.707 80.0186,214.078 80.8138,214.18 81.915,214.478 82.5972,214.767 83.5537,215.331 84.1252,215.779 84.819,216.468 85.2818,217.05 85.7252,217.734 86.0815,218.422 86.3426,219.044 86.5944,219.812 86.7356,220.369 86.8851,221.19 86.946,221.698 86.9954,222.546 86.9726,223.29 86.515,227.108 86.4233,227.611 85.2169,232.516 85.1565,232.736 83.4508,238.341 83.4208,238.436 81.4655,244.354 81.4605,244.369 81.2317,245.053 82.3403,242.521 84.0119,238.223 85.2838,234.398 85.3108,234.32 85.9242,232.59 86.0279,232.326 86.6822,230.814 86.8293,230.509 87.5163,229.218 87.7314,228.858 88.4431,227.792 88.7689,227.366 89.4971,226.531 90.0055,226.038 90.7421,225.436 91.5389,224.922 92.2757,224.558 93.442,224.181 94.171,224.058 95.4517,224.041 96.0955,224.132 97.2229,224.456 97.8345,224.729 98.7713,225.305 99.3344,225.763 100.008,226.454 100.506,227.099 100.94,227.79 101.356,228.623 101.61,229.254 101.928,230.278 102.059,230.832 102.262,232.048 102.314,232.527 102.385,233.938 102.371,234.549 101.981,238.645 101.904,239.135 100.809,244.192 100.736,244.478 100.423,245.552 103.367,240.737 103.693,240.275 108.174,234.772 106.413,234.788 104.201,232.983 103.657,231.486 103.534,230.708 103.522,230.634 103.415,229.873 103.405,229.795 103.314,229.051 103.305,228.969 103.231,228.241 103.223,228.154 103.165,227.442 103.159,227.351 103.117,226.656 103.113,226.56 103.088,225.88 103.086,225.779 103.077,225.115 103.088,224.752 103.391,220.675 103.484,220.055 104.325,216.355 104.504,215.77 105.783,212.463 106.033,211.932 107.65,209.034 107.958,208.56 108.508,207.827 " fill="none" stroke-width="0.5" stroke="rgb(0,0,0)" />
	<polygon points="124.052,195.405 123.327,195.514 122.769,195.669 122.383,195.84 122.148,195.996 122.01,196.132 121.906,196.289 121.651,196.921 119.746,199.048 116.922,199.465 114.483,197.981 113.727,196.355 113.716,196.517 113.634,197.106 113.061,199.799 112.875,200.429 111.913,202.938 111.584,203.61 110.6,205.235 112.168,203.638 112.595,203.259 114.624,201.689 115.152,201.342 117.117,200.248 117.547,200.04 118.554,199.621 118.866,199.506 119.92,199.163 120.205,199.081 121.304,198.807 121.558,198.753 122.7,198.542 122.922,198.507 124.105,198.355 124.296,198.334 125.518,198.233 125.678,198.222 126.938,198.166 127.07,198.162 128.365,198.144 128.53,198.145 130.673,198.201 130.857,198.209 133.088,198.365 133.233,198.378 134.375,198.497 131.995,197.204 129.466,196.184 127.087,195.576 124.822,195.369 " fill="none" stroke-width="0.5" stroke="rgb(0,0,0)" />
	<polygon points="37.9342,187.027 37.9107,187.031 39.1033,188.043 40.7015,189.033 42.4668,189.824 44.3801,190.422 46.4094,190.834 48.5146,191.071 50.6969,191.148 51.3522,191.141 52.0718,191.119 52.7956,191.083 53.5151,191.031 54.222,190.966 54.9075,190.887 55.5625,190.796 56.2398,190.683 59.0476,191.199 60.6972,193.175 60.8377,192.793 61.2238,192.006 62.7157,189.632 63.1634,189.042 64.1275,187.98 63.7242,188.129 63.5152,188.2 61.6508,188.778 61.4164,188.843 59.6423,189.283 59.3822,189.338 57.6924,189.645 57.408,189.686 55.7966,189.866 55.4912,189.889 53.9523,189.947 53.5754,189.945 51.1153,189.817 50.7208,189.778 48.4385,189.442 48.1329,189.385 46.0103,188.91 45.8145,188.861 43.8331,188.317 43.765,188.297 41.948,187.765 40.3692,187.337 39.0834,187.078 38.0934,186.999 " fill="none" stroke-width="0.5" stroke="rgb(0,0,0)" />
	<polygon points="109.21,155.075 109.041,155.902 108.632,157.213 108.312,157.969 107.665,159.157 107.216,159.823 106.361,160.859 105.798,161.422 104.763,162.278 104.097,162.729 102.911,163.376 102.154,163.697 100.846,164.106 100.018,164.276 98.616,164.419 97.7664,164.419 96.3593,164.276 95.5334,164.108 94.2207,163.698 93.4641,163.378 92.2744,162.732 91.6086,162.282 90.5707,161.426 90.0068,160.863 89.5855,160.354 89.016,162.311 88.8932,162.672 87.6419,165.862 87.4896,166.204 85.6811,169.827 85.4737,170.195 84.5804,171.608 85.3841,170.408 85.5654,170.157 87.0063,168.314 89.4243,166.797 91.773,166.962 95.1158,168.2 95.5811,168.405 98.9566,170.143 99.3934,170.403 102.654,172.618 103.085,172.954 106.083,175.62 106.513,176.063 109.102,179.156 109.512,179.74 111.544,183.235 111.886,183.984 113.111,187.557 113.172,186.191 113.217,185.731 113.634,183.055 113.775,182.449 114.494,180.145 114.813,179.39 115.855,177.472 116.445,176.645 117.831,175.127 118.695,174.406 120.446,173.304 121.423,172.852 123.559,172.18 123.615,172.169 123.292,172.069 122.446,171.702 118.865,169.653 118.118,169.108 115.224,166.464 114.64,165.805 112.418,162.693 112.012,161.99 110.445,158.541 110.197,157.837 109.292,154.271 " fill="none" stroke-width="0.5" stroke="rgb(0,0,0)" />
	<polygon points="162.955,162.749 162.726,162.948 159.138,165.835 158.807,166.076 155.02,168.557 154.586,168.806 150.513,170.829 149.996,171.044 145.547,172.555 144.991,172.702 140.079,173.647 139.536,173.716 135.931,173.931 136.809,174.307 137.559,174.722 141.174,177.241 141.676,177.652 145.07,180.897 145.406,181.258 148.554,185.068 148.784,185.374 149.214,186.003 149.362,183.912 149.403,183.556 150.009,179.701 150.158,179.073 151.117,176.077 151.596,175.067 152.987,172.929 154.161,171.736 156.064,170.454 157.702,169.797 160.197,169.371 161.712,169.389 163.44,169.727 164.476,170.075 166.436,171.032 167.037,171.39 169.12,172.88 169.527,173.212 170.107,173.748 169.981,173.578 169.63,173.018 167.253,168.463 167.05,168.012 165.246,163.265 165.127,162.902 164.645,161.175 " fill="none" stroke-width="0.5" stroke="rgb(0,0,0)" />
	<polygon points="83.0755,173.989 82.781,174.398 79.7604,178.105 79.3379,178.552 76.1619,181.454 77.3248,181.478 79.3276,183.212 79.8827,181.238 79.9993,180.885 81.0155,178.208 81.1476,177.898 82.3439,175.377 82.4888,175.099 83.5393,173.255 " fill="none" stroke-width="0.5" stroke="rgb(0,0,0)" />
	<polygon points="200.93,159.744 200.961,161.018 201.06,162.249 201.228,163.309 201.368,163.828 201.43,163.795 201.628,163.667 201.813,163.524 202.104,163.258 203.352,162.738 203.051,162.572 202.522,162.066 201.613,160.794 201.252,160.013 200.972,159.195 200.953,159.112 " fill="none" stroke-width="0.5" stroke="rgb(0,0,0)" />
	<polygon points="83.8137,147.481 84.0668,148.055 84.444,148.659 84.899,149.192 85.3801,149.617 86.0062,150.07 86.7265,150.57 87.004,150.78 87.2402,150.975 87.3192,150.59 87.7285,149.282 88.006,148.628 87.2589,148.552 86.43,148.382 85.1211,147.972 84.3631,147.65 83.766,147.324 " fill="none" stroke-width="0.5" stroke="rgb(0,0,0)" />
	<polygon points="123.418,106.225 121.942,111.556 120.351,117.921 120.333,117.994 118.606,124.409 118.524,124.678 116.608,130.275 116.315,130.936 114.141,134.894 112.622,136.473 110.122,137.974 106.003,138.09 103.366,136.701 101.546,134.822 99.7651,131.16 99.4448,130.246 98.2783,125.07 98.2126,124.703 97.4189,118.769 97.4077,118.678 96.754,112.821 96.0393,108.033 95.8758,107.5 94.6426,108.604 92.626,110.565 92.5558,110.632 90.3792,112.653 90.1024,112.888 87.8392,114.651 87.2346,115.044 84.8965,116.291 83.7318,116.706 81.3305,117.179 80.0723,117.234 78.8755,117.106 77.8384,116.859 77.2044,116.62 77.6678,119.348 77.7204,119.813 77.9091,123.128 77.9149,123.46 77.8831,124.886 77.8752,125.068 77.7841,126.456 77.7692,126.629 77.625,127.975 77.6043,128.139 77.4131,129.44 77.3874,129.594 77.1555,130.846 77.1257,130.993 76.8591,132.191 76.8259,132.33 76.531,133.472 76.4948,133.603 76.1777,134.685 74.4914,136.989 71.9026,137.697 67.3272,137.43 66.8266,137.37 62.2699,136.549 61.7241,136.412 57.3684,135.005 56.7532,134.751 54.7675,133.739 56.561,135.252 57.0623,138.063 55.9009,139.917 57.4073,139.502 57.7245,139.428 60.2197,138.944 60.5068,138.899 62.9094,138.604 63.1538,138.581 65.461,138.434 65.6523,138.426 67.8613,138.386 67.9613,138.385 68.4849,138.388 68.5321,138.389 69.0516,138.397 69.0987,138.399 69.6101,138.413 69.6587,138.415 70.1578,138.434 70.2091,138.437 70.692,138.462 70.7473,138.465 71.2098,138.495 71.2713,138.5 71.7095,138.535 71.78,138.541 72.1897,138.581 72.2207,138.584 73.3556,138.702 74.4175,138.806 74.4392,138.808 75.4312,138.909 75.52,138.919 76.4143,139.03 76.5978,139.057 77.382,139.189 77.7084,139.258 78.0674,139.348 77.925,137.946 77.925,137.097 78.0675,135.694 78.2365,134.868 78.645,133.558 78.9648,132.802 79.6106,131.614 80.0597,130.948 80.9143,129.912 81.4768,129.348 82.5114,128.492 83.177,128.041 84.3631,127.393 85.1211,127.071 86.43,126.661 87.2589,126.491 88.662,126.348 89.513,126.348 90.9181,126.491 91.7459,126.661 93.0568,127.071 93.814,127.392 95.0019,128.039 95.6674,128.49 96.7037,129.346 97.2666,129.909 98.1225,130.946 98.5723,131.611 99.2192,132.799 99.5398,133.556 99.949,134.866 100.118,135.693 100.261,137.097 100.261,137.946 100.119,139.351 99.9492,140.178 99.54,141.489 99.2607,142.149 100.018,142.226 100.845,142.396 102.154,142.805 102.91,143.126 104.096,143.772 104.761,144.222 105.796,145.077 106.359,145.64 107.214,146.675 107.664,147.34 108.311,148.526 108.631,149.283 108.873,150.054 108.848,149.752 108.837,149.243 108.889,147.93 108.909,147.658 109.078,146.05 109.116,145.773 109.42,144.013 109.493,143.674 109.951,141.909 110.1,141.445 110.73,139.819 111.064,139.144 111.885,137.803 112.685,136.849 113.716,135.938 115.414,135.027 116.673,134.691 119.562,134.957 120.854,135.572 122.848,137.574 123.612,139.196 123.924,140.129 124.402,142.423 124.435,142.597 124.844,145.078 125.34,147.149 125.882,148.314 126.205,148.614 127.039,148.806 127.223,148.754 127.689,148.538 128.262,148.156 128.906,147.57 129.59,146.734 130.277,145.599 130.95,144.062 131.297,143.006 131.636,141.829 131.927,140.658 132.168,139.503 132.356,138.373 132.49,137.28 132.571,136.236 132.597,135.257 132.554,133.858 132.432,132.752 132.261,131.997 132.178,131.788 131.778,131.823 131.12,131.977 130.344,132.249 129.533,132.615 128.759,133.035 128.089,133.459 127.6,133.82 127.174,134.198 124.521,135.253 121.806,134.368 120.285,131.952 120.51,129.442 122.354,125.011 122.643,124.443 124.985,120.59 125.375,120.05 128.158,116.779 128.641,116.297 131.809,113.612 132.364,113.214 132.411,113.186 132.358,113.171 130.96,112.477 129.443,111.33 128.894,110.833 127.392,109.21 127.207,108.996 125.712,107.145 124.304,105.421 123.901,105 " fill="none" stroke-width="0.5" stroke="rgb(0,0,0)" />
	<polygon points="73.282,89.1471 69.3697,90.8892 64.2644,93.5762 58.544,96.7321 58.5114,96.7499 55.7788,98.2261 57.5694,98.0473 58.5614,98.0661 62.6473,98.6306 63.8312,98.9771 67.2137,100.537 68.199,101.171 70.9269,103.526 71.5914,104.251 71.8374,104.593 71.8534,104.123 71.8657,103.914 72.0434,101.802 72.056,101.675 72.3073,99.4858 72.3149,99.4232 72.6029,97.2079 72.6037,97.2018 72.8883,95.0372 73.1292,93.0091 73.2918,91.1905 73.3512,89.5942 73.3452,89.1323 " fill="none" stroke-width="0.5" stroke="rgb(0,0,0)" />
	<polygon points="106.285,56.6728 104.983,57.2972 103.318,58.4432 101.48,59.9404 99.6068,61.5438 99.5022,61.6304 97.7209,63.0583 97.3181,63.344 95.7001,64.354 94.5689,64.8466 93.1472,65.2297 92.6634,65.2808 93.033,65.7055 93.6075,66.557 93.8866,67.1051 94.1806,67.8513 94.37,68.5106 94.4924,69.0858 94.6001,69.8524 94.6377,70.2721 94.6718,71.1421 94.6664,71.5766 94.5391,73.5525 94.5003,73.9124 94.1649,76.1242 94.1308,76.3179 93.6566,78.6896 93.6388,78.7739 93.1332,81.0578 94.9161,78.4023 95.0981,78.1518 97.1835,75.4925 97.6783,74.9629 99.7675,73.0819 101.202,72.235 103.26,71.5215 107.149,72.1251 108.587,73.1987 110.119,75.437 110.907,78.2676 111.044,79.0197 111.402,83.0214 111.417,83.2609 111.503,85.9521 111.99,83.9576 112.053,83.7273 113.163,80.0904 113.424,79.4379 114.71,76.8654 115.766,75.6988 113.148,75.6094 111.723,74.7611 109.857,72.389 109.168,70.1526 108.997,69.2655 108.732,66.1038 108.721,65.928 108.576,62.4171 108.273,59.2592 107.72,57.2167 107.354,56.7278 106.839,56.5721 " fill="none" stroke-width="0.5" stroke="rgb(0,0,0)" />
	<polygon points="125.424,57.6877 124.566,59.9726 123.784,63.225 123.045,66.7282 122.988,66.9664 122.141,70.0734 121.813,70.9103 120.667,73.108 119.771,73.9943 121.421,73.8113 122.961,74.3592 124.587,75.4128 125.969,76.8574 126.493,77.5304 127.773,79.5728 127.93,79.8455 128.912,81.7096 128.912,78.1149 128.912,78.0799 128.924,76.6977 128.926,76.5759 128.973,75.3255 128.987,75.1025 129.088,74 129.139,73.6237 129.311,72.6854 129.472,72.0718 129.733,71.3138 130.195,70.3748 130.565,69.8133 131.656,68.6871 132.152,68.3384 133.796,67.6451 134.436,67.5252 135.123,67.5668 134.545,67.0282 134.108,66.5541 132.409,64.399 132.296,64.2493 130.55,61.8193 128.834,59.5462 127.281,57.8478 126.176,57.0423 125.96,56.9861 " fill="none" stroke-width="0.5" stroke="rgb(0,0,0)" />
	<polygon points="146.162,66.6798 145.984,67.0372 145.553,67.7255 145.317,68.0314 144.75,68.6341 144.465,68.8824 143.776,69.3705 143.45,69.5553 142.662,69.9005 142.303,70.0157 141.777,70.1261 142.91,70.8667 143.268,71.1285 146.694,73.9254 146.841,74.0514 150.419,77.2576 150.462,77.2969 151.152,77.933 150.506,76.4902 150.481,76.4317 148.652,72.1738 148.583,72.0043 146.988,67.7933 146.877,67.4604 146.444,65.9471 " fill="none" stroke-width="0.5" stroke="rgb(0,0,0)" />
	<polygon points="93.6354,45.5162 92.02,45.6908 90.2416,45.9526 88.3653,46.2656 86.4738,46.5851 86.4099,46.5954 84.6613,46.8632 85.7213,47.7119 86.8479,49.4649 87.3122,53.0238 86.494,55.563 85.9199,56.708 83.7627,59.7432 83.4401,60.1429 80.3903,63.4814 80.239,63.6385 77.0107,66.8234 77.688,66.4791 77.8329,66.4089 80.868,65.0101 81.2057,64.8719 83.9592,63.8824 84.7061,63.6893 87.0164,63.314 87.3839,63.3009 87.2002,63.0998 87.0285,62.8565 86.517,61.8826 86.4065,61.5819 86.173,60.5838 86.1339,60.2218 86.2554,58.6743 86.6612,57.1742 87.0959,56.1405 88.1658,54.323 88.4098,53.9543 89.9223,51.9114 90.013,51.7933 91.735,49.6321 93.3871,47.5196 94.6864,45.659 94.7886,45.4658 " fill="none" stroke-width="0.5" stroke="rgb(0,0,0)" />
	<polygon points="51.1449,60.1908 52.1243,61.0226 52.4745,61.4274 53.3644,63.1244 53.4893,63.6078 53.4319,64.9832 54.5897,63.6556 56.9455,60.524 56.5687,60.4402 51.5014,60.0941 50.97,60.0834 " fill="none" stroke-width="0.5" stroke="rgb(0,0,0)" />
	<polygon points="141.776,47.7506 141.542,47.8008 141.539,47.8384 141.675,49.0181 142.128,50.6311 142.867,52.5774 143.784,54.701 144.738,56.853 144.782,56.9549 145.2,57.9717 145.215,57.681 145.271,57.1773 145.429,56.2635 145.589,55.6322 145.862,54.8258 146.202,54.0749 146.598,53.3878 147.19,52.5943 147.717,52.0388 148.555,51.3573 149.221,50.9455 150.169,50.5118 150.982,50.2558 151.863,50.0793 152.732,50.0003 152.571,49.9775 151.168,49.7001 150.948,49.6504 149.404,49.2582 149.327,49.2378 147.704,48.7923 146.098,48.3643 144.599,48.0166 143.282,47.7952 142.205,47.7227 " fill="none" stroke-width="0.5" stroke="rgb(0,0,0)" />
	<polygon points="467.907,98.4468 468.644,98.6703 470.74,99.5223 471.502,99.928 473.225,101.087 473.916,101.669 475.285,103.101 475.821,103.793 476.623,105.09 476.623,122.585 475.506,125.103 475.172,125.683 476.41,125.811 476.623,125.93 476.623,189.113 476.553,189.195 474.974,190.269 471.61,190.875 468.276,190.055 467.183,189.617 462.613,186.987 462.143,186.672 456.82,182.567 456.512,182.306 450.919,177.062 450.654,176.79 445.274,170.744 445.002,170.404 440.317,163.892 440.012,163.4 436.505,156.757 436.182,155.953 434.336,149.516 434.529,146.668 436.123,144.993 434.523,144.774 434.024,144.675 432.057,144.159 431.434,143.941 429.755,143.203 429.01,142.781 427.65,141.813 426.865,141.088 425.855,139.882 425.221,138.854 424.592,137.402 424.28,136.262 424.063,134.555 424.051,133.609 424.137,132.744 424.277,132.013 424.554,131.039 424.818,130.349 425.312,129.333 425.726,128.655 426.465,127.669 427.052,127.033 428.061,126.145 428.808,125.62 430.114,124.899 430.455,124.757 430.117,124.64 429.068,124.183 428.37,123.796 427.376,123.114 426.714,122.55 425.806,121.598 425.283,120.924 424.492,119.658 424.154,118.992 423.65,117.73 423.493,117.26 423.121,115.873 423.068,115.647 422.762,114.191 422.76,114.181 422.476,112.812 422.188,111.698 421.894,110.919 421.646,110.5 421.049,109.895 419.852,107.304 420.588,104.545 422.918,102.895 425.079,102.875 426.074,103.13 426.966,103.3 427.888,103.427 428.831,103.516 429.783,103.571 430.734,103.6 431.676,103.611 432.432,103.613 434.923,103.415 437.357,102.898 439.897,102.116 442.511,101.166 445.126,100.181 445.242,100.139 447.765,99.2716 448.087,99.1752 450.479,98.5617 451.089,98.4524 453.333,98.2197 454.118,98.2121 455.427,98.3221 456.234,98.4703 457.316,98.7811 458.19,99.1428 459.063,99.6255 459.878,100.213 460.556,100.839 460.717,101.027 461.509,99.182 465.421,97.9363 " fill="none" stroke-width="0.5" stroke="rgb(0,0,0)" />
	<polygon points="384.317,101.922 386.282,102.222 387.695,102.706 389.113,103.497 390.136,104.299 391.18,105.417 391.617,105.972 392.462,107.254 392.493,107.302 393.149,108.327 393.493,108.723 393.536,108.75 393.985,108.825 394.837,108.746 396.142,108.437 397.682,107.933 399.367,107.299 401.089,106.632 401.197,106.592 402.847,106.004 403.148,105.91 404.667,105.494 405.287,105.373 406.634,105.215 408.521,105.427 410.563,106.147 412.004,107.013 414.147,108.979 414.7,109.597 416.829,112.514 417.102,112.938 419.102,116.51 419.273,116.849 421.029,120.781 421.159,121.109 422.557,125.106 422.671,125.493 423.594,129.261 423.693,129.831 424.026,133.075 423.973,134.294 423.365,137.468 422.816,138.88 421.077,141.704 420.301,142.633 417.56,145.085 416.837,145.605 413.221,147.662 412.622,147.943 408.261,149.582 407.766,149.734 402.787,150.932 402.364,151.012 396.897,151.748 396.517,151.781 390.688,152.032 390.055,152.011 381.787,151.114 380.899,150.919 373.552,148.443 372.77,148.087 366.4,144.354 365.758,143.892 360.422,139.223 359.914,138.693 355.666,133.41 355.269,132.821 352.166,127.244 351.863,126.565 349.96,121.017 349.765,120.173 349.118,114.974 349.097,114.16 349.122,113.799 349.214,113.175 349.282,112.871 349.494,112.196 349.599,111.941 349.931,111.297 350.066,111.083 350.461,110.553 350.62,110.372 350.991,109.998 351.168,109.841 351.447,109.614 351.635,109.474 351.782,109.37 351.975,109.238 352.983,108.736 354.163,108.333 355.091,108.13 356.931,107.942 357.152,107.926 359.56,107.807 362.402,107.618 365.609,107.227 369.172,106.504 373.068,105.314 377.364,103.477 377.829,103.241 378.067,103.129 378.654,102.876 378.899,102.78 379.482,102.571 379.732,102.49 380.309,102.323 380.564,102.257 381.133,102.131 381.39,102.082 381.949,101.993 382.209,101.961 382.756,101.909 383.018,101.892 383.551,101.876 " fill="none" stroke-width="0.5" stroke="rgb(0,0,0)" />
</svg>
