<?xml version="1.0" standalone="no" ?>
<!DOCTYPE svg PUBLIC "-//W3C//DTD SVG 1.1//EN" "http://www.w3.org/Graphics/SVG/1.1/DTD/svg11.dtd">
<svg width="500px" height="500px" xmlns="http://www.w3.org/2000/svg" version="1.1" >
	<polygon points="480.823,83.7224 475.554,90.1382 473.563,92.0101 472.06,93.0965 473.169,93.5474 475.102,94.5761 476.825,95.7351 478.578,97.2113 479.947,98.6428 480.823,99.7757 480.823,193.784 480.181,194.528 478.602,195.602 478.237,195.748 480.48,198.237 480.823,198.698 480.823,250.241 480.708,250.419 479.939,251.49 480.305,251.62 480.823,251.886 480.823,281.286 479.971,296.463 479.644,298.531 478.597,299.826 477.736,300.769 476.122,302.338 477.81,305.569 478.336,306.789 477.405,312.666 473.11,329.62 467.07,347.047 459.27,364.67 453.933,374.448 452.298,374.659 452.52,377.038 449.695,382.213 438.331,399.399 425.161,415.952 410.17,431.593 399.3,440.931 398.715,440.748 398.574,441.555 393.345,446.047 374.668,459.037 354.126,470.285 331.702,479.516 319.4,483.025 317.017,481.793 316.502,481.455 316.39,482.414 315.992,483.887 315.927,484.015 307.382,486.452 281.151,490.817 252.993,492.333 225.548,490.902 199.887,486.773 176.007,480.192 171.489,478.396 171.091,478.172 170.492,478 153.907,471.407 133.585,460.665 125.232,455.056 125.1,454.183 123.706,454.031 115.039,448.212 98.2672,434.295 83.2685,419.161 70.0408,403.057 58.5824,386.23 48.8916,368.927 40.9666,351.394 34.8057,333.879 32.8875,326.355 34.9691,319.651 35.5755,318.125 36.5167,316.203 34.8289,315.672 30.4954,313.044 29.7204,312.269 27.7694,299.888 26.8905,283.906 26.8905,230.968 27.2042,230.428 26.8905,230.247 26.8905,156.912 27.4542,155.658 29.8808,151.226 31.0247,149.541 31.0761,149.479 29.1078,148.458 27.3469,147.31 26.8905,146.944 26.8905,38.4434 29.672,36.4065 30.0937,36.1164 29.6117,35.9645 28.0061,35.3107 26.8905,34.7467 26.8905,19.5757 38.3822,19.4875 49.8739,19.3993 61.3656,19.3111 72.8572,19.223 84.3489,19.1348 95.8406,19.0466 107.332,18.9584 118.824,18.8703 130.316,18.7821 141.807,18.6939 153.299,18.6057 164.791,18.5175 176.282,18.4294 187.774,18.3412 210.757,18.1648 210.732,31.0636 210.706,43.9624 210.681,56.8612 210.656,69.76 210.63,82.6588 210.619,88.1219 210.118,88.3315 208.878,88.7289 210.413,90.0063 210.615,90.1829 210.579,108.456 210.554,121.355 210.503,147.153 210.478,160.052 210.452,172.95 210.436,181.25 210.426,181.265 208.645,183.507 207.302,184.912 206.404,185.694 206.939,186.061 208.584,187.453 210.42,189.356 210.401,198.748 210.376,211.647 210.35,224.546 210.438,235.84 210.602,246.657 210.899,256.963 211.384,266.725 211.393,266.842 210.471,267.958 209.557,269.174 209.614,269.232 211.713,271 211.723,271.009 212.112,275.909 213.138,284.482 214.519,292.41 216.308,299.661 218.563,306.2 221.336,311.994 224.685,317.011 228.665,321.215 233.33,324.575 238.737,327.056 244.939,328.626 251.957,329.247 252.596,329.203 252.898,329.828 253.19,329.386 253.382,329.149 259.171,328.749 265.518,327.271 271.013,324.853 275.719,321.532 279.698,317.343 283.01,312.324 285.72,306.511 287.888,299.942 289.576,292.653 290.848,284.68 291.763,276.06 292.386,266.831 292.778,257.028 293,246.688 293.115,235.848 293.185,224.546 293.159,211.647 293.133,198.748 293.124,194.255 293.938,193.58 293.64,193.033 293.119,191.806 293.107,185.849 293.093,178.703 293.642,177.411 294.289,176.225 294.392,176.073 293.7,175.624 293.086,175.054 293.082,172.95 293.056,160.052 293.004,134.254 292.978,121.355 292.957,110.767 294.037,108.401 294.149,108.208 292.951,107.755 292.901,82.6588 292.875,69.76 292.797,31.0636 292.771,18.1648 304.525,18.0893 316.278,18.0137 328.031,17.9382 339.784,17.8626 351.538,17.787 363.291,17.7115 375.044,17.6359 382.857,17.5857 385.297,19.3763 385.581,18.7538 386.207,18.0257 386.818,17.5602 410.304,17.4092 422.057,17.3337 433.81,17.2581 445.564,17.1826 457.317,17.107 469.07,17.0314 480.823,16.9559 " fill="none" stroke-width="0.5" stroke="rgb(0,0,0)" />
	<polygon points="318.983,422.79 319.024,422.924 319.354,424.376 319.439,424.788 319.489,425.056 319.971,425.433 320.838,426.168 320.963,426.292 321.35,425.969 322.113,425.388 322.813,424.903 323.43,424.529 323.054,421.809 323.054,421.449 " fill="none" stroke-width="0.5" stroke="rgb(0,0,0)" />
	<polygon points="107.456,168.209 110.37,170.8 111.459,171.923 111.728,172.244 111.847,172.115 110.873,171.225 109.391,169.553 108.113,167.764 " fill="none" stroke-width="0.5" stroke="rgb(0,0,0)" />
	<polygon points="423.414,148.502 425.979,149.26 427.945,150.062 428.063,150.124 428.023,149.488 427.16,149.108 425.271,148.036 424.527,147.507 " fill="none" stroke-width="0.5" stroke="rgb(0,0,0)" />
</svg>
