<?xml version="1.0" standalone="no" ?>
<!DOCTYPE svg PUBLIC "-//W3C//DTD SVG 1.1//EN" "http://www.w3.org/Graphics/SVG/1.1/DTD/svg11.dtd">
<svg width="500px" height="500px" xmlns="http://www.w3.org/2000/svg" version="1.1" >
	<polygon points="462.423,280.77 461.652,294.503 459.363,308.96 455.466,324.338 449.934,340.299 442.753,356.525 433.918,372.714 423.429,388.576 411.29,403.832 397.504,418.217 382.067,431.478 364.969,443.37 346.181,453.658 325.657,462.106 303.336,468.473 279.14,472.499 252.977,473.908 227.495,472.579 203.804,468.766 181.867,462.721 161.627,454.676 143.039,444.85 126.07,433.456 110.706,420.707 96.9418,406.819 84.784,392.017 74.2434,376.538 65.3322,360.627 58.0605,344.539 52.4338,328.543 48.4492,312.915 46.0904,297.946 45.2905,283.4 45.2905,37.835 50.0151,37.7988 61.5067,37.7106 61.5068,37.7106 72.9984,37.6224 84.4901,37.5342 95.9818,37.4461 107.473,37.3579 118.965,37.2697 130.457,37.1815 141.948,37.0934 153.44,37.0052 164.932,36.917 176.424,36.8288 187.915,36.7407 192.321,36.7069 192.307,43.9262 192.281,56.8249 192.256,69.7237 192.256,69.7238 192.23,82.6225 192.179,108.42 192.179,108.42 192.154,121.319 192.103,147.117 192.103,147.117 192.078,160.015 192.052,172.914 192.052,172.914 192.027,185.813 192.001,198.712 191.976,211.611 191.976,211.611 191.95,224.509 191.951,224.688 192.038,235.982 192.04,236.12 192.204,246.937 192.21,247.187 192.507,257.493 192.522,257.876 193.006,267.638 193.041,268.179 193.769,277.363 193.842,278.097 194.869,286.67 195.011,287.638 196.392,295.567 196.655,296.82 198.445,304.07 198.913,305.657 201.167,312.196 201.966,314.145 204.74,319.939 206.034,322.211 209.383,327.227 211.322,329.659 215.301,333.863 217.912,336.146 222.577,339.506 225.655,341.298 231.061,343.779 234.223,344.894 240.426,346.463 243.317,346.954 250.372,347.578 251.947,329.779 253.176,347.606 260.437,347.106 263.344,346.67 269.691,345.192 272.929,344.113 278.424,341.695 281.625,339.885 286.33,336.564 289.061,334.203 293.039,330.014 295.054,327.479 298.367,322.46 299.688,320.098 302.397,314.285 303.193,312.278 305.361,305.708 305.813,304.094 307.502,296.805 307.747,295.55 309.018,287.577 309.145,286.624 310.06,278.004 310.122,277.299 310.744,268.069 310.772,267.565 311.163,257.762 311.173,257.423 311.396,247.083 311.399,246.883 311.514,236.044 311.515,235.962 311.585,224.66 311.585,224.509 311.559,211.61 311.533,198.711 311.507,185.812 311.482,172.914 311.482,172.913 311.456,160.015 311.404,134.217 311.404,134.217 311.378,121.318 311.301,82.622 311.301,82.6219 311.275,69.7232 311.208,36.4467 316.396,36.4133 316.396,36.4133 339.903,36.2622 351.656,36.1867 363.409,36.1111 375.162,36.0355 386.916,35.96 410.422,35.8089 422.175,35.7333 433.929,35.6577 445.682,35.5822 457.435,35.5066 462.423,35.4745 " fill="none" stroke-width="0.5" stroke="rgb(0,0,0)" />
</svg>
