<?xml version="1.0" standalone="no" ?>
<!DOCTYPE svg PUBLIC "-//W3C//DTD SVG 1.1//EN" "http://www.w3.org/Graphics/SVG/1.1/DTD/svg11.dtd">
<svg width="500px" height="500px" xmlns="http://www.w3.org/2000/svg" version="1.1" >
	<polygon points="466.523,280.885 465.734,294.94 463.383,309.786 459.398,325.515 453.753,341.803 446.433,358.34 437.433,374.831 426.749,390.988 414.381,406.533 400.326,421.198 384.58,434.724 367.13,446.861 347.951,457.363 327.004,465.986 304.237,472.479 279.588,476.58 252.98,478.013 227.061,476.661 202.932,472.779 180.561,466.614 159.907,458.404 140.932,448.374 123.612,436.744 107.934,423.734 93.895,409.569 81.4988,394.477 70.7537,378.698 61.6688,362.476 54.2515,346.067 48.5058,329.732 44.429,313.742 42.008,298.378 41.1905,283.513 41.1905,33.7664 49.9836,33.6989 61.4753,33.6107 72.967,33.5225 84.4586,33.4344 95.9503,33.3462 107.442,33.258 118.934,33.1698 130.425,33.0817 141.917,32.9935 153.409,32.9053 164.9,32.8171 176.392,32.729 187.884,32.6408 196.429,32.5752 196.407,43.9342 196.381,56.833 196.356,69.7318 196.356,69.7318 196.33,82.6306 196.279,108.428 196.279,108.428 196.254,121.327 196.203,147.125 196.178,160.023 196.152,172.922 196.127,185.821 196.101,198.72 196.076,211.619 196.076,211.619 196.05,224.517 196.051,224.656 196.138,235.951 196.139,236.057 196.304,246.875 196.308,247.069 196.605,257.375 196.617,257.673 197.101,267.434 197.129,267.855 197.857,277.039 197.913,277.609 198.94,286.182 199.05,286.935 200.431,294.863 200.636,295.837 202.425,303.088 202.789,304.321 205.043,310.86 205.664,312.375 208.438,318.169 209.443,319.935 212.792,324.951 214.3,326.84 218.279,331.045 220.308,332.819 224.973,336.179 227.365,337.571 232.772,340.053 235.229,340.919 241.431,342.489 243.679,342.87 250.733,343.494 251.947,329.779 252.894,343.516 260.155,343.015 262.414,342.677 268.761,341.199 271.278,340.36 276.773,337.942 279.26,336.536 283.966,333.214 286.088,331.379 290.066,327.191 291.632,325.22 294.945,320.201 295.971,318.365 298.681,312.553 299.299,310.993 301.467,304.424 301.819,303.169 303.507,295.88 303.698,294.904 304.969,286.931 305.067,286.191 305.983,277.571 306.031,277.023 306.654,267.793 306.675,267.401 307.066,257.598 307.074,257.335 307.297,246.995 307.299,246.84 307.414,236 307.415,235.937 307.485,224.634 307.485,224.517 307.459,211.618 307.407,185.821 307.382,172.922 307.382,172.922 307.356,160.023 307.304,134.225 307.304,134.225 307.278,121.326 307.201,82.6302 307.201,82.6301 307.175,69.7313 307.1,32.373 316.37,32.3134 328.123,32.2379 339.876,32.1623 351.63,32.0867 363.383,32.0112 375.136,31.9356 386.889,31.8601 410.396,31.7089 422.149,31.6334 433.902,31.5578 445.655,31.4823 457.409,31.4067 466.523,31.3481 " fill="none" stroke-width="0.5" stroke="rgb(0,0,0)" />
</svg>
