<?xml version="1.0" standalone="no" ?>
<!DOCTYPE svg PUBLIC "-//W3C//DTD SVG 1.1//EN" "http://www.w3.org/Graphics/SVG/1.1/DTD/svg11.dtd">
<svg width="500px" height="500px" xmlns="http://www.w3.org/2000/svg" version="1.1" >
	<polygon points="462.473,280.771 461.702,294.508 459.412,308.97 455.514,324.352 449.981,340.317 442.798,356.548 433.96,372.74 423.469,388.605 411.328,403.865 397.538,418.254 382.098,431.517 364.995,443.412 346.202,453.703 325.674,462.154 303.347,468.521 279.145,472.548 252.977,473.958 227.489,472.628 203.794,468.815 181.851,462.769 161.606,454.721 143.013,444.893 126.04,433.496 110.672,420.743 96.9046,406.852 84.7439,392.047 74.2008,376.564 65.2875,360.649 58.0141,344.558 52.3859,328.557 48.4002,312.925 46.0406,297.951 45.2405,283.402 45.2405,37.7854 50.0147,37.7488 61.5064,37.6606 72.998,37.5724 84.4897,37.4842 95.9814,37.3961 95.9814,37.3961 107.473,37.3079 118.965,37.2197 130.456,37.1315 141.948,37.0434 153.44,36.9552 164.931,36.867 176.423,36.7788 187.915,36.6907 192.371,36.6565 192.357,43.9262 192.331,56.825 192.306,69.7238 192.306,69.7239 192.28,82.6226 192.229,108.42 192.229,108.42 192.204,121.319 192.153,147.117 192.153,147.117 192.128,160.015 192.102,172.914 192.102,172.914 192.077,185.813 192.051,198.712 192.026,211.611 192.026,211.611 192,224.509 192.001,224.687 192.088,235.982 192.09,236.119 192.254,246.936 192.26,247.186 192.557,257.492 192.572,257.874 193.056,267.635 193.091,268.175 193.819,277.359 193.892,278.091 194.919,286.664 195.06,287.63 196.441,295.558 196.704,296.808 198.493,304.058 198.96,305.641 201.214,312.18 202.011,314.123 204.785,319.918 206.075,322.183 209.424,327.2 211.358,329.624 215.338,333.829 217.941,336.106 222.607,339.465 225.676,341.252 231.082,343.734 234.235,344.845 240.438,346.415 243.321,346.904 250.376,347.529 251.947,329.779 253.173,347.557 260.434,347.056 263.332,346.621 269.679,345.143 272.909,344.067 278.404,341.649 281.596,339.845 286.301,336.523 289.024,334.169 293.003,329.98 295.012,327.451 298.325,322.433 299.642,320.077 302.352,314.264 303.145,312.262 305.313,305.693 305.764,304.083 307.453,296.794 307.697,295.542 308.969,287.569 309.095,286.619 310.011,277.999 310.072,277.295 310.695,268.066 310.722,267.563 311.113,257.76 311.123,257.422 311.346,247.082 311.349,246.883 311.464,236.043 311.465,235.962 311.535,224.659 311.535,224.509 311.509,211.61 311.483,198.711 311.457,185.812 311.432,172.914 311.432,172.914 311.406,160.015 311.354,134.217 311.354,134.217 311.328,121.318 311.251,82.6221 311.251,82.622 311.225,69.7233 311.158,36.397 316.396,36.3633 328.149,36.2878 339.902,36.2122 351.656,36.1367 363.409,36.0611 375.162,35.9855 386.915,35.91 410.422,35.7589 422.175,35.6833 433.928,35.6077 457.435,35.4566 462.473,35.4242 " fill="none" stroke-width="0.5" stroke="rgb(0,0,0)" />
</svg>
