<?xml version="1.0" standalone="no" ?>
<!DOCTYPE svg PUBLIC "-//W3C//DTD SVG 1.1//EN" "http://www.w3.org/Graphics/SVG/1.1/DTD/svg11.dtd">
<svg width="500px" height="500px" xmlns="http://www.w3.org/2000/svg" version="1.1" >
	<polygon points="480.823,82.8817 480.522,83.3806 475.207,89.8526 473.3,91.6454 471.139,93.2075 473,93.9643 474.85,94.9495 476.574,96.1085 478.252,97.5223 479.621,98.9538 480.823,100.507 480.823,193.119 479.928,194.156 478.349,195.23 477.475,195.574 480.145,198.538 480.823,199.448 480.823,249.417 480.342,250.157 479.225,251.714 480.154,252.044 480.823,252.387 480.823,281.286 479.971,296.463 479.785,297.641 478.247,299.543 477.423,300.447 475.568,302.249 477.411,305.778 478.011,307.169 478.193,307.695 477.405,312.666 473.11,329.62 467.07,347.047 459.27,364.67 454.196,373.967 451.807,374.24 452.134,377.745 449.695,382.213 438.331,399.399 425.161,415.952 410.17,431.593 399.698,440.589 398.454,440.199 398.363,440.156 398.036,442.017 393.345,446.047 374.668,459.037 354.126,470.285 331.702,479.516 320.057,482.837 319.887,482.77 317.224,481.393 316.144,480.686 315.955,482.297 315.558,483.769 315.351,484.18 307.382,486.452 281.151,490.817 263.567,491.764 263.358,491.593 263.315,491.552 263.167,491.621 262.734,491.809 252.993,492.333 225.548,490.902 199.887,486.773 176.007,480.192 174.306,479.516 173.939,479.258 171.266,477.754 169.876,477.354 168.533,477.221 153.907,471.407 133.585,460.665 125.971,455.553 125.658,455.073 125.481,453.771 122.902,453.491 115.039,448.212 98.2672,434.295 83.2685,419.161 70.0408,403.057 68.1085,400.22 68.0889,399.339 68.0914,399.308 67.3145,399.054 58.5824,386.23 48.8916,368.927 40.9666,351.394 34.8057,333.879 33.1,327.189 35.3989,319.784 35.9797,318.323 37.1821,315.867 36.9331,315.862 34.964,315.242 30.8135,312.726 29.6014,311.514 27.7694,299.888 26.8905,283.906 26.8905,231.922 27.0031,231.664 27.8152,230.266 27.0175,229.806 26.8905,229.707 26.8905,158.178 27.1952,157.328 27.849,155.875 30.2755,151.442 31.3711,149.829 31.7918,149.321 31.6014,149.245 29.3151,148.058 27.6286,146.959 26.8905,146.367 26.8905,39.0012 29.9378,36.7696 30.4337,36.4285 31.1384,35.9737 29.7469,35.5353 28.2091,34.9092 26.8905,34.2424 26.8905,19.5757 38.3822,19.4875 49.8739,19.3993 61.3656,19.3111 72.8572,19.223 84.3489,19.1348 95.8406,19.0466 107.332,18.9584 118.824,18.8703 118.858,18.87 118.861,18.8731 118.864,18.8699 130.316,18.7821 141.807,18.6939 153.299,18.6057 164.791,18.5175 176.282,18.4294 187.774,18.3412 210.757,18.1648 210.732,31.0636 210.706,43.9624 210.681,56.8612 210.656,69.76 210.63,82.6588 210.62,87.6337 209.944,87.9164 208.277,88.4505 207.934,88.5288 210.125,90.3522 210.47,90.6526 210.614,90.7843 210.579,108.456 210.554,121.355 210.503,147.153 210.478,160.052 210.452,172.95 210.437,180.436 210.074,180.985 208.292,183.227 207.006,184.573 205.67,185.737 206.685,186.433 208.26,187.765 210.233,189.811 210.418,190.05 210.401,198.748 210.376,211.647 210.356,221.572 210.286,221.686 209.767,222.214 210.354,222.756 210.35,224.546 210.438,235.84 210.602,246.657 210.899,256.963 211.357,266.18 210.118,267.679 208.964,269.214 209.308,269.563 211.423,271.344 211.599,271.496 211.774,271.65 212.112,275.909 213.138,284.482 214.519,292.41 216.308,299.661 218.563,306.2 221.336,311.994 224.685,317.011 228.665,321.215 233.33,324.575 238.737,327.056 244.939,328.626 251.957,329.247 252.112,329.236 252.836,330.734 253.54,329.669 253.994,329.106 259.171,328.749 265.518,327.271 271.013,324.853 275.719,321.532 279.698,317.343 283.01,312.324 285.72,306.511 287.888,299.942 289.576,292.653 290.848,284.68 291.763,276.06 292.386,266.831 292.424,265.891 292.968,265.464 292.458,265.026 292.778,257.028 293,246.688 293.115,235.848 293.185,224.546 293.159,211.647 293.133,198.748 293.125,194.839 294.412,193.771 294.516,193.7 294.035,192.818 293.255,190.98 293.117,190.537 293.107,185.849 293.096,179.977 293.256,179.464 294.037,177.626 294.684,176.44 295.016,175.949 294.006,175.294 293.085,174.438 293.082,172.95 293.056,160.052 293.004,134.254 292.978,121.355 292.959,111.955 293.133,111.465 294.447,108.588 294.86,107.872 294.422,107.811 294.271,107.779 292.95,107.279 292.901,82.6588 292.875,69.76 292.797,31.0636 292.771,18.1648 304.525,18.0893 316.278,18.0137 328.031,17.9382 339.784,17.8626 351.538,17.787 363.291,17.7115 375.044,17.6359 382.103,17.5905 385.453,20.0494 385.922,19.0472 386.548,18.3191 387.551,17.5555 410.304,17.4092 422.057,17.3337 433.81,17.2581 445.564,17.1826 457.317,17.107 469.07,17.0314 480.823,16.9559 " fill="none" stroke-width="0.5" stroke="rgb(0,0,0)" />
	<polygon points="318.426,422.5 318.585,423.024 318.915,424.476 318.997,424.87 319.078,425.305 319.68,425.776 320.547,426.511 320.937,426.9 321.638,426.315 322.369,425.758 323.07,425.273 323.935,424.748 323.886,424.571 323.504,421.809 323.504,420.826 " fill="none" stroke-width="0.5" stroke="rgb(0,0,0)" />
	<polygon points="168.808,414.731 169.014,414.256 168.805,414.146 " fill="none" stroke-width="0.5" stroke="rgb(0,0,0)" />
	<polygon points="77.0736,315.902 77.4585,315.557 77.6,315.454 77.261,315.183 " fill="none" stroke-width="0.5" stroke="rgb(0,0,0)" />
	<polygon points="92.3826,218.285 92.4487,218.264 93.1776,218.141 93.4739,218.137 92.8127,218.063 92.2962,217.944 " fill="none" stroke-width="0.5" stroke="rgb(0,0,0)" />
	<polygon points="106.971,167.996 106.673,168.159 107.072,168.47 110.071,171.136 111.114,172.212 111.749,172.971 112.015,172.597 112.482,172.086 111.176,170.893 109.757,169.292 108.225,167.147 " fill="none" stroke-width="0.5" stroke="rgb(0,0,0)" />
	<polygon points="424.301,147.105 422.512,148.705 425.852,149.692 427.735,150.46 428.552,150.892 428.454,149.186 427.341,148.696 425.532,147.67 424.464,146.91 " fill="none" stroke-width="0.5" stroke="rgb(0,0,0)" />
	<polygon points="90.0581,120.338 89.9811,120.379 90.1205,120.379 91.5256,120.522 91.602,120.538 91.4718,119.564 91.4555,119.431 " fill="none" stroke-width="0.5" stroke="rgb(0,0,0)" />
	<polygon points="186.498,116.331 185.639,117.608 187.294,117.102 187.391,117.082 186.596,116.143 " fill="none" stroke-width="0.5" stroke="rgb(0,0,0)" />
</svg>
