<?xml version="1.0" standalone="no" ?>
<!DOCTYPE svg PUBLIC "-//W3C//DTD SVG 1.1//EN" "http://www.w3.org/Graphics/SVG/1.1/DTD/svg11.dtd">
<svg width="500px" height="500px" xmlns="http://www.w3.org/2000/svg" version="1.1" >
	<polygon points="480.823,85.1405 476.25,90.7094 474.091,92.7395 473.864,92.9032 475.604,93.8293 477.327,94.9884 479.228,96.5892 480.597,98.0207 480.823,98.3132 480.823,195.114 480.687,195.272 479.653,195.975 480.823,197.274 480.823,281.286 479.971,296.463 479.362,300.312 479.297,300.392 478.363,301.415 477.23,302.516 478.598,305.134 477.405,312.666 473.11,329.62 467.07,347.047 459.27,364.67 453.389,375.445 453.277,375.463 453.292,375.623 449.695,382.213 438.331,399.399 425.161,415.952 410.17,431.593 393.345,446.047 374.668,459.037 354.126,470.285 331.702,479.516 318.137,483.385 317.192,482.896 316.97,483.718 307.382,486.452 281.151,490.817 252.993,492.333 225.548,490.902 199.887,486.773 176.007,480.192 153.907,471.407 133.585,460.665 115.039,448.212 98.2672,434.295 83.2685,419.161 70.0408,403.057 58.5824,386.23 48.8916,368.927 40.9666,351.394 34.8057,333.879 32.4626,324.689 34.1096,319.384 34.7672,317.729 35.248,316.747 34.5588,316.53 29.9517,313.736 27.7694,299.888 26.8905,283.906 26.8905,154.814 29.0913,150.793 29.7594,149.81 28.6933,149.256 26.8905,148.082 26.8905,37.3279 28.2094,36.3621 27.6,36.1139 26.8905,35.7552 26.8905,19.5757 38.3822,19.4875 49.8739,19.3993 61.3656,19.3111 72.8572,19.223 84.3489,19.1348 95.8406,19.0466 107.332,18.9584 118.824,18.8703 130.316,18.7821 141.807,18.6939 153.299,18.6057 164.791,18.5175 176.282,18.4294 187.774,18.3412 210.757,18.1648 210.732,31.0636 210.706,43.9624 210.681,56.8612 210.656,69.76 210.63,82.6588 210.579,108.456 210.554,121.355 210.503,147.153 210.478,160.052 210.452,172.95 210.433,182.703 209.349,184.067 207.893,185.591 207.832,185.644 209.232,186.828 210.422,188.063 210.401,198.748 210.376,211.647 210.35,224.546 210.438,235.84 210.602,246.657 210.899,256.963 211.384,266.725 211.495,268.131 211.178,268.515 210.783,269.04 211.623,269.748 212.112,275.909 213.138,284.482 214.519,292.41 216.308,299.661 218.563,306.2 221.336,311.994 224.685,317.011 228.665,321.215 233.33,324.575 238.737,327.056 244.939,328.626 251.957,329.247 259.171,328.749 265.518,327.271 271.013,324.853 275.719,321.532 279.698,317.343 283.01,312.324 285.72,306.511 287.888,299.942 289.576,292.653 290.848,284.68 291.763,276.06 292.386,266.831 292.778,257.028 293,246.688 293.115,235.848 293.185,224.546 293.159,211.647 293.133,198.748 293.107,185.849 293.089,176.545 293.194,176.353 293.088,176.284 293.082,172.95 293.056,160.052 293.004,134.254 292.978,121.355 292.901,82.6588 292.875,69.76 292.797,31.0636 292.771,18.1648 304.525,18.0893 316.278,18.0137 328.031,17.9382 339.784,17.8626 351.538,17.787 363.291,17.7115 375.044,17.6359 384.365,17.576 385.003,18.0446 385.412,17.5693 386.797,17.5604 410.304,17.4092 422.057,17.3337 433.81,17.2581 445.564,17.1826 457.317,17.107 469.07,17.0314 480.823,16.9559 " fill="none" stroke-width="0.5" stroke="rgb(0,0,0)" />
	<polygon points="320.052,423.386 320.232,424.177 320.31,424.556 320.554,424.747 320.988,425.115 321.601,424.648 322.301,424.163 322.466,424.063 322.271,422.654 " fill="none" stroke-width="0.5" stroke="rgb(0,0,0)" />
</svg>
