<?xml version="1.0" standalone="no" ?>
<!DOCTYPE svg PUBLIC "-//W3C//DTD SVG 1.1//EN" "http://www.w3.org/Graphics/SVG/1.1/DTD/svg11.dtd">
<svg width="500px" height="500px" xmlns="http://www.w3.org/2000/svg" version="1.1" >
	<polygon points="468.323,280.935 467.526,295.131 465.148,310.148 461.124,326.031 455.429,342.463 448.049,359.137 438.977,375.76 428.207,392.046 415.738,407.718 401.565,422.506 385.683,436.149 368.079,448.394 348.728,458.99 327.596,467.689 304.633,474.238 279.784,478.372 252.982,479.816 226.87,478.454 202.548,474.54 179.988,468.323 159.152,460.041 140.007,449.921 122.533,438.187 106.717,425.064 92.5574,410.776 80.0565,395.557 69.2217,379.646 60.0604,363.288 52.5793,346.737 46.7813,330.254 42.664,314.105 40.2158,298.568 39.3905,283.562 39.3905,31.9801 49.9698,31.8989 61.4615,31.8108 72.9532,31.7226 84.4448,31.6344 95.9365,31.5462 95.9365,31.5462 107.428,31.4581 118.92,31.3699 130.412,31.2817 153.395,31.1054 164.887,31.0172 176.378,30.929 187.87,30.8408 198.232,30.7613 198.232,31.039 198.232,31.039 198.206,43.9378 198.181,56.8366 198.156,69.7354 198.156,69.7354 198.13,82.6342 198.079,108.432 198.079,108.432 198.054,121.331 198.003,147.128 198.003,147.128 197.978,160.027 197.952,172.926 197.952,172.926 197.927,185.825 197.901,198.723 197.876,211.622 197.85,224.521 197.851,224.642 197.938,235.937 197.939,236.03 198.103,246.847 198.107,247.017 198.404,257.323 198.414,257.583 198.899,267.345 198.923,267.713 199.651,276.897 199.701,277.395 200.727,285.968 200.824,286.626 202.204,294.555 202.383,295.406 204.173,302.656 204.491,303.734 206.745,310.274 207.288,311.597 210.062,317.392 210.94,318.935 214.289,323.951 215.607,325.603 219.586,329.808 221.36,331.359 226.025,334.718 228.116,335.935 233.522,338.417 235.67,339.174 241.873,340.744 243.837,341.077 250.892,341.701 251.947,329.779 252.771,341.72 260.031,341.22 262.006,340.924 268.353,339.446 270.553,338.713 276.048,336.295 278.222,335.065 282.928,331.744 284.783,330.14 288.761,325.951 290.13,324.229 293.443,319.21 294.34,317.605 297.049,311.793 297.59,310.429 299.758,303.859 300.065,302.763 301.754,295.474 301.92,294.621 303.192,286.648 303.278,286.001 304.193,277.381 304.235,276.902 304.858,267.672 304.876,267.329 305.268,257.526 305.275,257.296 305.497,246.957 305.499,246.821 305.614,235.981 305.615,235.926 305.685,224.623 305.685,224.521 305.659,211.622 305.633,198.723 305.607,185.824 305.582,172.925 305.582,172.925 305.556,160.027 305.504,134.229 305.504,134.229 305.478,121.33 305.401,82.6338 305.401,82.6338 305.375,69.735 305.297,31.0386 305.297,31.0386 305.296,30.5846 316.358,30.5135 316.358,30.5135 328.111,30.4379 339.865,30.3623 351.618,30.2868 351.618,30.2868 363.371,30.2112 375.124,30.1357 386.878,30.0601 410.384,29.909 422.137,29.8334 422.137,29.8334 433.891,29.7579 445.644,29.6823 457.397,29.6067 468.323,29.5365 " fill="none" stroke-width="0.5" stroke="rgb(0,0,0)" />
</svg>
