<?xml version="1.0" standalone="no" ?>
<!DOCTYPE svg PUBLIC "-//W3C//DTD SVG 1.1//EN" "http://www.w3.org/Graphics/SVG/1.1/DTD/svg11.dtd">
<svg width="500px" height="500px" xmlns="http://www.w3.org/2000/svg" version="1.1" >
	<polygon points="463.123,280.789 462.349,294.577 460.049,309.101 456.138,324.539 450.586,340.556 443.381,356.835 434.518,373.076 423.996,388.988 411.818,404.293 397.986,418.726 382.496,432.032 365.338,443.966 346.483,454.29 325.887,462.769 303.49,469.157 279.216,473.195 252.978,474.609 227.421,473.276 203.655,469.451 181.644,463.386 161.333,455.312 142.679,445.451 125.651,434.017 110.233,421.223 96.4216,407.288 84.2231,392.437 73.6476,376.907 64.7067,360.943 57.4102,344.8 51.7632,328.746 47.7628,313.056 45.3934,298.019 44.5905,283.419 44.5905,37.1404 50.0097,37.0988 61.5014,37.0106 72.9931,36.9224 84.4847,36.8343 95.9764,36.7461 95.9764,36.7461 107.468,36.6579 118.96,36.5697 130.451,36.4816 130.451,36.4816 141.943,36.3934 153.435,36.3052 164.926,36.217 164.926,36.217 176.418,36.1289 187.91,36.0407 187.91,36.0407 193.022,36.0014 193.007,43.9275 192.981,56.8263 192.956,69.7251 192.956,69.7251 192.93,82.6239 192.879,108.422 192.879,108.422 192.854,121.32 192.803,147.118 192.803,147.118 192.778,160.017 192.752,172.915 192.727,185.814 192.676,211.612 192.676,211.612 192.65,224.511 192.651,224.682 192.738,235.977 192.74,236.109 192.904,246.926 192.909,247.167 193.206,257.473 193.221,257.841 193.706,267.603 193.739,268.124 194.467,277.308 194.537,278.014 195.564,286.587 195.701,287.518 197.081,295.447 197.335,296.652 199.124,303.902 199.575,305.429 201.829,311.968 202.598,313.843 205.371,319.637 206.616,321.822 209.965,326.839 211.83,329.177 215.81,333.382 218.321,335.578 222.986,338.938 225.947,340.661 231.353,343.143 234.395,344.215 240.597,345.785 243.379,346.257 250.433,346.881 251.947,329.779 253.128,346.908 260.389,346.407 263.185,345.988 269.532,344.51 272.647,343.472 278.142,341.054 281.221,339.314 285.927,335.992 288.553,333.721 292.531,329.532 294.47,327.093 297.783,322.074 299.053,319.802 301.763,313.989 302.528,312.058 304.696,305.489 305.131,303.936 306.82,296.647 307.056,295.44 308.327,287.467 308.448,286.55 309.364,277.931 309.423,277.252 310.046,268.022 310.072,267.537 310.464,257.734 310.474,257.408 310.696,247.068 310.699,246.876 310.814,236.036 310.815,235.958 310.885,224.655 310.885,224.51 310.859,211.611 310.833,198.713 310.807,185.814 310.782,172.915 310.782,172.915 310.756,160.016 310.704,134.219 310.704,134.218 310.678,121.32 310.601,82.6234 310.601,82.6233 310.575,69.7245 310.507,35.7512 316.392,35.7134 328.145,35.6378 339.898,35.5622 351.651,35.4867 363.405,35.4111 375.158,35.3356 386.911,35.26 410.418,35.1089 422.171,35.0333 433.924,34.9578 457.431,34.8066 463.123,34.77 " fill="none" stroke-width="0.5" stroke="rgb(0,0,0)" />
</svg>
