<?xml version="1.0" standalone="no" ?>
<!DOCTYPE svg PUBLIC "-//W3C//DTD SVG 1.1//EN" "http://www.w3.org/Graphics/SVG/1.1/DTD/svg11.dtd">
<svg width="500px" height="500px" xmlns="http://www.w3.org/2000/svg" version="1.1" >
	<polygon points="480.823,32.0853 480.823,32.0865 480.823,32.0899 480.823,78.9919 480.331,80.1578 479.092,82.2065 473.777,88.6784 472.216,90.1461 466.884,94.0002 468.742,94.3816 470.207,94.826 472.303,95.678 473.818,96.4845 475.541,97.6436 476.915,98.8009 478.284,100.232 479.35,101.609 480.383,103.279 480.823,104.168 480.823,123.352 480.705,123.618 480.823,123.715 480.823,190.386 478.887,192.626 477.308,193.7 474.24,194.827 474.769,195.335 478.771,199.777 479.694,201.015 480.823,202.864 480.823,245.768 479.252,248.442 478.839,249.079 476.115,252.877 476.339,252.9 478.274,253.339 479.533,253.787 480.823,254.447 480.823,281.286 480.1,294.172 479.913,294.462 479.386,295.192 476.808,298.38 476.133,299.12 473.213,301.957 473.856,302.967 475.771,306.634 476.262,307.773 477.577,311.579 477.405,312.666 473.11,329.62 467.07,347.047 459.27,364.67 455.318,371.911 454.921,372.146 450.869,372.321 449.719,371.77 450.369,378.744 450.299,380.842 450.239,381.217 449.695,382.213 438.331,399.399 425.161,415.952 410.17,431.593 401.336,439.182 399.244,438.526 397.751,437.821 396.727,437.202 396.731,437.254 396.63,439.327 395.825,443.916 393.345,446.047 374.668,459.037 354.126,470.285 331.702,479.516 323.096,481.97 322.289,481.741 320.737,481.126 318.073,479.75 316.644,478.814 314.445,477.027 314.11,476.693 314.322,477.721 314.378,478.16 314.442,478.961 314.455,479.376 314.17,481.814 313.772,483.287 312.981,484.855 307.382,486.452 281.151,490.817 266.311,491.616 264.528,490.16 263.656,489.318 262.9,489.703 262.431,489.924 258.266,491.729 257.779,491.923 257.281,492.102 252.993,492.333 225.548,490.902 199.887,486.773 180.066,481.311 178.861,480.455 174.927,477.691 171.985,476.036 170.226,475.53 167.303,475.24 163.182,475.012 162.918,474.989 153.907,471.407 133.585,460.665 130.592,458.655 129.402,457.502 127.263,454.056 127.127,451.97 125.932,451.959 119.597,451.272 115.039,448.212 98.2672,434.295 83.2685,419.161 70.2341,403.293 69.971,401.187 69.933,399.487 70.0712,397.756 68.6274,397.771 65.0576,395.739 58.5824,386.23 48.8916,368.927 40.9666,351.394 34.8057,333.879 34.0151,330.778 34.1973,329.893 37.1657,320.333 37.6411,319.136 40.0829,314.15 37.4884,314.097 35.5193,313.478 32.1216,311.417 30.3031,309.599 29.0339,307.913 27.7694,299.888 26.8905,283.906 26.8905,236.627 27.0377,236.22 28.6994,232.402 29.6684,230.734 30.486,229.641 30.1987,229.525 28.158,228.349 26.8905,227.357 26.8905,164.109 27.0993,163.229 27.3645,162.335 28.9366,157.953 29.4718,156.763 31.8983,152.33 32.7951,151.009 34.8931,148.479 33.9595,148.207 32.4536,147.603 30.1673,146.416 28.7867,145.516 26.8905,143.994 26.8905,111.007 27.3029,110.596 28.2781,109.761 29.9361,108.55 29.6844,108.427 29.1996,108.127 27.7243,106.967 27.3293,106.577 26.8905,106.023 26.8905,90.5234 26.9725,90.3536 28.7054,87.7342 26.9065,87.1328 26.8905,87.1242 26.8905,41.3231 27.1402,41.1114 31.0309,38.2622 31.4368,37.9829 35.5311,35.3408 34.5119,35.0826 34.0533,34.9524 30.3028,33.7708 29.044,33.2582 26.8905,32.1693 26.8905,19.5757 38.3822,19.4875 49.8739,19.3993 61.3656,19.3111 72.8572,19.223 84.3489,19.1348 95.8406,19.0466 107.332,18.9584 116.435,18.8886 116.754,19.2439 116.953,19.4737 118.12,20.8727 118.517,21.2439 118.805,21.2853 119.101,21.2431 119.636,20.7721 120.891,19.3883 121.106,19.1598 121.408,18.8504 130.316,18.7821 141.807,18.6939 153.299,18.6057 157.023,18.5772 157.787,21.0289 159.107,20.0767 160.578,19.2286 162.119,18.538 164.791,18.5175 176.282,18.4294 187.774,18.3412 210.757,18.1648 210.732,31.0636 210.706,43.9624 210.681,56.8612 210.679,57.6942 209.347,58.2013 209.16,58.2345 210.675,59.9715 210.656,69.76 210.63,82.6588 210.624,85.5656 210.101,85.8458 209.231,86.2095 207.866,86.6468 206.863,86.8755 205.593,87.0639 204.464,87.1433 203.27,87.1246 204.424,88.0207 204.646,88.1988 208.941,91.7741 209.224,92.02 210.609,93.2828 210.579,108.456 210.554,121.355 210.547,124.826 210.392,124.928 210.546,125.103 210.503,147.153 210.478,160.052 210.452,172.95 210.445,176.753 209.42,178.634 208.625,179.834 206.844,182.076 205.791,183.178 203.649,185.043 202.468,185.885 203.24,186.315 205.639,187.959 206.929,189.05 208.901,191.095 210.005,192.519 210.412,193.182 210.401,198.748 210.376,211.647 210.363,217.915 209.74,219.037 209.539,219.38 208.713,220.712 207.106,222.272 209.453,224.443 210.057,225.063 210.357,225.405 210.438,235.84 210.602,246.657 210.899,256.963 211.22,263.417 211.037,263.655 210.851,263.888 208.664,266.534 207.151,268.546 206.676,269.435 206.836,269.694 208.052,270.924 210.231,272.759 210.376,272.883 211.985,274.303 212.112,275.909 213.138,284.482 214.519,292.41 216.308,299.661 218.563,306.2 221.336,311.994 224.685,317.011 228.665,321.215 233.33,324.575 238.737,327.056 244.939,328.626 249.873,329.062 250.352,329.845 251.861,332.97 252.383,334.349 252.573,335.028 254.109,332.147 254.979,330.831 256.512,328.933 259.171,328.749 265.518,327.271 271.013,324.853 275.719,321.532 279.698,317.343 283.01,312.324 285.72,306.511 287.888,299.942 289.576,292.653 290.848,284.68 291.763,276.06 292.277,268.445 292.768,267.956 294.324,266.736 295.336,266.121 296.143,265.751 293.645,263.607 292.565,262.353 292.778,257.028 293,246.688 293.115,235.848 293.185,224.546 293.185,224.491 293.91,223.087 293.181,222.357 293.159,211.647 293.133,198.748 293.131,197.408 294.116,196.421 295.594,195.195 296.901,194.304 297.052,194.221 296.307,193.119 295.659,191.932 295.021,190.427 294.611,189.118 294.274,187.472 294.131,186.068 294.131,184.375 294.274,182.973 294.612,181.325 295.022,180.017 295.661,178.513 296.308,177.327 297.202,176.006 297.638,175.478 295.265,173.939 293.853,172.627 293.079,171.729 293.056,160.052 293.004,134.254 292.992,128.308 293.828,127.521 293.802,127.422 293.623,126.677 293.541,126.302 293.395,125.54 293.327,125.135 293.217,124.361 293.167,123.921 293.098,123.139 293.07,122.66 293.046,121.875 293.072,120.914 293.322,117.971 293.558,116.59 294.327,113.614 294.816,112.234 296.13,109.357 296.924,107.981 298.338,105.996 296.951,106.206 296.714,106.205 296.251,106.188 296.059,106.176 294.814,106.003 294.663,105.971 292.946,105.322 292.903,83.8661 293.189,83.3439 293.519,82.7405 293.432,82.7255 292.9,82.5732 292.875,69.76 292.818,41.2337 293.026,41.12 293.576,40.8326 292.815,39.7171 292.797,31.0636 292.771,18.1648 304.525,18.0893 305.249,18.0846 305.827,18.3822 305.997,18.4723 307.891,19.5041 308.062,18.7049 308.236,18.0654 316.278,18.0137 328.031,17.9382 339.784,17.8626 351.538,17.787 363.291,17.7115 375.044,17.6359 378.384,17.6144 379.279,18.0249 380.738,18.8829 386.009,22.7528 387.324,20.2534 387.951,19.5254 390.564,17.5361 410.304,17.4092 422.057,17.3337 433.81,17.2581 442.307,17.2035 443.376,17.9636 445.402,19.8153 445.471,19.9028 446.113,18.9211 447.538,17.1699 457.317,17.107 469.07,17.0314 480.823,16.9559 " fill="none" stroke-width="0.5" stroke="rgb(0,0,0)" />
	<polygon points="305.847,468.678 305.638,468.901 306.494,469.057 307.163,469.249 309.094,470.08 309.557,470.353 309.353,469.968 308.738,468.461 307.985,465.938 307.923,465.621 " fill="none" stroke-width="0.5" stroke="rgb(0,0,0)" />
	<polygon points="192.921,443.496 193.325,444.686 193.767,446.4 194.486,446.559 195.986,446.8 197.43,446.95 198.579,446.995 200.114,446.911 201.525,446.662 202.732,446.267 203.668,445.771 204.365,445.197 204.938,444.455 205.333,443.589 202.942,443.768 201.666,443.765 195.447,443.276 194.035,443.042 192.567,442.667 " fill="none" stroke-width="0.5" stroke="rgb(0,0,0)" />
	<polygon points="316.779,421.095 316.038,421.253 316.442,422.315 316.781,423.434 317.111,424.887 317.178,425.209 317.394,426.37 317.959,426.776 318.483,427.186 319.349,427.922 320.283,428.851 320.853,429.515 320.978,429.388 321.693,428.704 322.115,428.327 322.824,427.735 323.422,427.279 324.123,426.794 324.982,426.273 325.672,425.909 326.209,425.678 326.016,425.311 325.666,424.07 325.354,421.809 325.354,418.269 " fill="none" stroke-width="0.5" stroke="rgb(0,0,0)" />
	<polygon points="166.957,413.467 166.963,414.684 166.682,418.784 169.544,419.135 169.539,418.983 169.571,418.616 169.892,416.945 169.988,416.626 170.769,414.829 170.926,414.558 171.682,413.566 169.201,412.265 168.548,411.884 166.743,410.719 " fill="none" stroke-width="0.5" stroke="rgb(0,0,0)" />
	<polygon points="259.587,404.471 258.966,405.996 258.871,406.175 258.876,406.178 261.736,407.605 262.278,407.901 265.061,409.558 265.514,409.847 268.131,411.643 268.545,411.947 270.909,413.792 271.331,414.144 273.354,415.95 273.392,415.987 273.89,415.901 274.238,415.849 275.123,415.734 268.662,411.911 267.251,410.86 260.15,404.304 259.765,403.871 " fill="none" stroke-width="0.5" stroke="rgb(0,0,0)" />
	<polygon points="350.77,395.909 350,397.195 349.854,397.396 352.521,397.247 352.194,396.873 351.332,395.693 351.077,395.272 " fill="none" stroke-width="0.5" stroke="rgb(0,0,0)" />
	<polygon points="204.273,391.352 204.789,392.502 204.987,393.052 205.329,392.546 207.254,390.531 207.621,390.257 207.252,390.29 205.598,390.272 203.565,390.048 " fill="none" stroke-width="0.5" stroke="rgb(0,0,0)" />
	<polygon points="243.957,374.573 245.323,375.718 246.037,376.458 246.081,376.459 245.748,375.231 245.491,373.792 245.388,372.649 " fill="none" stroke-width="0.5" stroke="rgb(0,0,0)" />
	<polygon points="82.8442,368.236 81.8403,368.308 80.9361,368.317 81.3274,369.307 81.8196,372.558 82.9534,371.548 84.0366,370.73 85.1483,370.026 84.9844,369.886 83.8883,368.758 83.4098,368.162 " fill="none" stroke-width="0.5" stroke="rgb(0,0,0)" />
	<polygon points="117.891,360.276 117.631,361.153 119.503,360.984 119.295,360.752 118.627,359.781 118.161,358.837 " fill="none" stroke-width="0.5" stroke="rgb(0,0,0)" />
	<polygon points="294.839,359.422 294.968,359.517 295.151,359.657 295.152,359.658 295.17,359.272 " fill="none" stroke-width="0.5" stroke="rgb(0,0,0)" />
	<polygon points="394.436,342.842 393.702,343.369 392.681,344.022 390.557,344.992 389.722,345.239 388.611,345.33 389.25,347.139 389.456,348.035 392.523,345.465 394.526,344.221 395.971,343.586 395.792,343.37 395.603,343.134 395.018,342.374 " fill="none" stroke-width="0.5" stroke="rgb(0,0,0)" />
	<polygon points="59.596,341.705 61.3006,344.447 61.4689,343.667 62.0204,341.994 62.7027,340.483 62.3765,340.413 61.25,340.087 59.3118,339.375 " fill="none" stroke-width="0.5" stroke="rgb(0,0,0)" />
	<polygon points="159.738,336.749 157.557,338.834 156.166,339.908 154.937,340.665 156.163,341.408 157.161,342.118 159.213,343.817 159.255,342.519 159.294,341.949 159.473,340.185 159.566,339.53 159.872,337.852 160.063,337.038 160.351,336.037 " fill="none" stroke-width="0.5" stroke="rgb(0,0,0)" />
	<polygon points="414.586,334.22 414.782,335.414 414.827,335.728 414.985,336.997 415.038,337.588 415.098,338.716 415.106,339.401 415.097,339.734 415.072,340.104 417.698,340.328 416.608,338.205 415.66,334.103 " fill="none" stroke-width="0.5" stroke="rgb(0,0,0)" />
	<polygon points="165.739,324.932 164.988,327.747 164.501,329.097 164.451,329.205 164.813,328.834 165.689,328.176 167.675,327.257 166.134,324.924 165.84,324.356 " fill="none" stroke-width="0.5" stroke="rgb(0,0,0)" />
	<polygon points="76.0851,312.361 75.2059,315.732 74.9235,318.347 74.9487,319.239 75.06,320.294 75.1464,320.701 75.9312,319.664 77.3489,318.125 78.5524,317.049 80.2535,315.802 80.8571,315.443 80.707,315.365 79.3452,314.48 77.9162,313.339 76.7233,312.173 76.3243,311.697 " fill="none" stroke-width="0.5" stroke="rgb(0,0,0)" />
	<polygon points="133.554,306.796 133.731,306.776 133.522,306.427 " fill="none" stroke-width="0.5" stroke="rgb(0,0,0)" />
	<polygon points="161.097,299.586 159.914,299.743 159.182,299.76 159.324,299.978 159.792,300.794 161.798,304.8 161.817,304.45 161.912,303.564 162.404,300.517 162.59,299.658 162.713,299.204 " fill="none" stroke-width="0.5" stroke="rgb(0,0,0)" />
	<polygon points="458.214,290.837 457.726,291.428 459.019,291.636 458.944,291.121 458.754,290.39 " fill="none" stroke-width="0.5" stroke="rgb(0,0,0)" />
	<polygon points="86.9832,288.686 87.4527,288.933 87.5655,289.022 87.5838,288.934 87.7476,287.215 " fill="none" stroke-width="0.5" stroke="rgb(0,0,0)" />
	<polygon points="157.57,228.575 157.483,228.753 158.084,229.397 159.121,233.793 159.06,235.219 159.036,235.592 158.877,237.414 158.86,237.589 158.635,239.661 158.626,239.742 158.369,241.918 158.366,241.937 158.111,244.05 157.897,245.907 157.764,247.267 157.754,247.444 158.45,247.838 160.726,251.592 161.192,253.217 161.35,253.865 161.715,255.676 161.786,256.078 162.077,258.007 162.108,258.231 162.353,260.209 162.362,260.286 162.501,261.506 163.631,257.574 165.224,254.555 166.286,253.272 162.58,252.259 159.634,249.472 158.348,245.625 158.506,243.244 158.742,242.131 158.942,241.093 159.118,240.063 159.266,239.041 159.384,238.026 159.471,237.019 159.525,236.018 159.541,235.148 159.453,233.349 159.191,231.697 158.719,230.047 157.983,228.345 157.839,228.105 " fill="none" stroke-width="0.5" stroke="rgb(0,0,0)" />
	<polygon points="382.492,248.291 383.373,247.869 383.022,247.503 " fill="none" stroke-width="0.5" stroke="rgb(0,0,0)" />
	<polygon points="327.727,236.86 326.397,236.86 327.44,238.039 329.351,241.229 329.608,241.101 329.982,240.957 329.95,240.898 329.313,239.392 328.609,237.131 328.536,236.778 " fill="none" stroke-width="0.5" stroke="rgb(0,0,0)" />
	<polygon points="311.074,227.533 311.17,227.64 313.136,228.81 313.523,228.978 313.14,228.275 312.619,227.044 " fill="none" stroke-width="0.5" stroke="rgb(0,0,0)" />
	<polygon points="89.4106,215.826 89.7668,216.514 90.286,217.751 90.5378,218.519 90.8185,219.625 90.968,220.446 90.9933,220.658 92.755,220.088 93.4839,219.966 96.0302,219.932 96.674,220.023 98.9153,220.667 99.2202,220.803 99.2525,220.368 99.4373,219.135 100.068,216.36 98.0473,216.582 96.2072,216.581 93.018,216.225 91.1452,215.793 88.8633,214.981 " fill="none" stroke-width="0.5" stroke="rgb(0,0,0)" />
	<polygon points="432.903,215.201 432.146,215.346 429.042,215.795 432.067,218.305 433.366,219.656 433.522,219.859 434.075,218.858 436.598,215.204 437.391,214.223 437.513,214.093 " fill="none" stroke-width="0.5" stroke="rgb(0,0,0)" />
	<polygon points="68.2093,218.096 68.365,217.831 67.9987,217.735 67.8602,217.685 " fill="none" stroke-width="0.5" stroke="rgb(0,0,0)" />
	<polygon points="191.651,216.11 192.564,215.825 192.243,215.455 191.516,214.925 190.914,214.648 " fill="none" stroke-width="0.5" stroke="rgb(0,0,0)" />
	<polygon points="381.705,203.449 380.811,204.768 380.644,204.969 380.822,205.116 380.896,205.191 382.195,203.424 382.787,203.141 382.155,202.626 " fill="none" stroke-width="0.5" stroke="rgb(0,0,0)" />
	<polygon points="146.552,176.572 146.59,176.608 146.606,176.557 " fill="none" stroke-width="0.5" stroke="rgb(0,0,0)" />
	<polygon points="108.443,164.62 107.408,165.476 106.085,166.372 104.899,167.019 103.393,167.658 102.944,167.798 104.986,169.185 105.843,169.852 108.841,172.519 109.696,173.399 111.909,176.043 112.209,175.49 113.381,173.845 114.768,172.328 115.145,172.013 112.424,169.527 111.263,168.217 109.041,165.106 108.644,164.419 " fill="none" stroke-width="0.5" stroke="rgb(0,0,0)" />
	<polygon points="423.068,145.726 420.326,148.178 418.889,149.212 418.424,149.476 418.908,149.569 425.327,151.466 426.869,152.094 431.454,154.523 430.347,150.66 430.253,147.911 429.764,147.741 428.085,147.003 426.604,146.162 425.244,145.195 424.267,144.292 " fill="none" stroke-width="0.5" stroke="rgb(0,0,0)" />
	<polygon points="356.221,144.3 356.831,144.239 358.503,144.239 359.843,144.374 360.056,144.417 357.689,142.346 356.68,141.294 356.525,141.101 " fill="none" stroke-width="0.5" stroke="rgb(0,0,0)" />
	<polygon points="127.711,138.457 127.979,139.259 128.088,138.739 128.175,138.216 " fill="none" stroke-width="0.5" stroke="rgb(0,0,0)" />
	<polygon points="313.232,126.5 312.406,127.068 311.731,127.716 311.234,128.374 310.937,128.941 310.574,130.086 310.038,130.957 310.233,131.036 311.004,131.251 311.821,131.382 312.831,131.433 313.034,131.427 313.458,131.394 314.001,131.334 314.636,131.252 314.712,131.242 314.673,131.168 314.191,130.046 314.062,129.673 313.762,128.557 313.686,128.17 313.546,127.088 313.521,126.695 313.527,126.362 " fill="none" stroke-width="0.5" stroke="rgb(0,0,0)" />
	<polygon points="185.996,112.695 185.766,113.439 185.194,114.831 184.858,115.476 183.816,117.024 183.365,117.555 181.773,119.001 181.199,119.401 179.236,120.411 178.532,120.663 176.585,121.105 175.962,121.17 177.059,124.018 179.167,122.552 180.188,121.945 183.308,120.379 184.614,119.856 187.835,118.871 189.417,118.551 190.926,118.394 187.433,114.269 187.16,113.929 186.049,112.469 " fill="none" stroke-width="0.5" stroke="rgb(0,0,0)" />
	<polygon points="92.6526,116.162 90.3894,117.925 89.1875,118.706 86.8494,119.953 84.5338,120.777 82.1324,121.25 81.9594,121.258 82.0524,122.892 82.0638,123.552 82.0556,123.925 82.3744,123.751 83.8813,123.111 85.1902,122.701 86.8382,122.363 88.2413,122.22 89.9332,122.22 91.3382,122.363 92.9841,122.7 93.7915,122.952 93.3055,119.319 93.2834,119.138 92.9253,115.93 " fill="none" stroke-width="0.5" stroke="rgb(0,0,0)" />
	<polygon points="395.082,103.688 395.478,104.288 396.304,104.018 397.034,103.743 394.996,103.49 394.918,103.48 " fill="none" stroke-width="0.5" stroke="rgb(0,0,0)" />
	<polygon points="147.028,103.849 147.235,103.834 147.056,103.69 " fill="none" stroke-width="0.5" stroke="rgb(0,0,0)" />
	<polygon points="67.97,96.3156 68.5022,96.5611 68.5765,95.9964 " fill="none" stroke-width="0.5" stroke="rgb(0,0,0)" />
	<polygon points="104.14,63.126 102.306,64.6963 102.098,64.8685 100.316,66.2964 99.5157,66.8644 98.4004,67.5606 98.602,68.5084 98.6718,69.0052 99.8427,68.3139 101.901,67.6004 104.672,67.3548 104.597,66.4495 104.575,66.1 104.441,62.8806 " fill="none" stroke-width="0.5" stroke="rgb(0,0,0)" />
	<polygon points="413.206,64.2753 414.9,65.8651 416.538,67.1808 418.078,68.1156 419.48,68.6432 421.231,68.8643 421.413,68.8368 421.295,68.445 420.125,67.2372 416.846,65.2972 412.335,63.4283 " fill="none" stroke-width="0.5" stroke="rgb(0,0,0)" />
	<polygon points="127.122,67.507 128.503,66.0823 127.668,64.9193 " fill="none" stroke-width="0.5" stroke="rgb(0,0,0)" />
	<polygon points="398.157,38.788 398.841,40.4312 398.942,40.7745 399.275,40.6075 400.295,40.1774 403.267,39.1509 403.814,38.9829 405.112,38.6317 402.004,37.4535 398.099,36.3426 396.613,35.9707 " fill="none" stroke-width="0.5" stroke="rgb(0,0,0)" />
</svg>
