<?xml version="1.0" standalone="no" ?>
<!DOCTYPE svg PUBLIC "-//W3C//DTD SVG 1.1//EN" "http://www.w3.org/Graphics/SVG/1.1/DTD/svg11.dtd">
<svg width="500px" height="500px" xmlns="http://www.w3.org/2000/svg" version="1.1" >
	<polygon points="475.523,81.7462 471.42,86.7427 470.429,87.6743 463.395,92.7586 462.446,93.3054 453.929,97.0962 453.863,97.1193 454.211,97.1159 455.519,97.2259 456.537,97.413 457.62,97.7238 458.723,98.1802 459.596,98.6629 460.189,99.0913 460.197,99.0656 462.73,97.0825 465.642,96.8588 468.128,97.3693 469.059,97.6513 471.154,98.5033 472.116,99.0153 473.839,100.174 474.711,100.909 475.523,101.758 475.523,191.191 471.347,191.943 468.013,191.124 466.634,190.57 462.064,187.94 461.471,187.543 456.148,183.439 455.76,183.108 450.62,178.29 451.928,180.083 451.988,180.167 456.04,185.956 458.435,187.366 458.448,187.374 462.51,189.781 462.766,189.943 467.155,192.896 467.584,193.217 471.953,196.848 472.503,197.376 475.523,200.729 475.523,248.468 472.176,253.137 472.11,253.226 469.539,256.659 469.98,256.483 472.911,255.866 474.554,255.78 475.523,255.881 475.523,281.137 474.695,295.898 474.646,296.203 474.436,296.463 474.008,296.932 471.05,299.807 468.665,300.996 470.666,303.615 471.152,304.379 472.84,307.61 472.208,311.599 468.028,328.098 462.134,345.103 454.512,362.324 450.869,368.999 450.219,368.904 447.893,366.681 447.322,365.046 446.204,358.59 443.948,355.029 440.435,352.293 435.691,349.915 430.49,347.6 429.965,347.33 425.335,344.616 424.038,343.546 420.765,339.829 419.579,337.519 418.339,332.146 418.224,330.476 418.266,330.016 417.447,330.562 416.183,330.91 415.346,331.07 413.559,331.263 413.373,331.28 411.409,331.423 411.003,331.465 411.031,331.645 411.278,333.033 411.534,334.455 411.548,334.538 411.772,335.906 411.8,336.106 411.959,337.375 411.992,337.75 412.052,338.878 412.057,339.313 412.048,339.646 412.023,340.032 411.988,340.367 411.905,340.908 411.838,341.23 411.627,341.969 411.519,342.264 411.154,343.017 411.527,342.973 412.604,342.955 417.952,343.411 418.844,343.565 424.138,344.951 425.032,345.273 430.07,347.619 430.952,348.139 435.53,351.471 436.349,352.209 440.264,356.557 440.939,357.495 443.986,362.886 444.441,363.943 446.418,370.405 446.628,371.465 447.05,375.997 445.151,379.477 434.038,396.282 421.165,412.461 406.522,427.74 398.434,434.688 398.13,434.505 396.715,433.439 396.079,432.875 394.797,431.539 394.323,430.97 393.23,429.454 392.843,428.832 391.994,427.226 391.665,426.466 391.115,424.86 390.873,423.821 390.677,422.306 390.644,421.297 390.674,420.824 390.782,420.04 390.889,419.539 391.169,418.637 391.357,418.18 389.084,417.938 388.127,417.746 384.567,416.681 383.818,416.394 380.48,414.815 379.871,414.476 376.874,412.54 376.598,412.336 376.646,412.588 376.743,413.597 376.743,417.615 376.742,417.739 376.725,418.462 376.71,418.758 376.653,419.473 376.61,419.844 376.57,420.109 379.401,419.346 380.971,419.529 382.087,419.785 383.72,420.349 384.712,420.812 386.324,421.778 387.19,422.426 388.696,423.813 389.406,424.614 390.724,426.444 391.246,427.342 392.291,429.634 392.612,430.557 393.301,433.331 393.442,434.207 393.69,437.485 393.625,438.8 393.622,438.822 390.096,441.85 371.874,454.524 351.837,465.496 329.961,474.501 320.038,477.332 319.474,477.04 318.567,476.446 316.368,474.66 315.604,473.898 313.878,471.785 313.295,470.904 312.051,468.545 311.661,467.589 310.908,465.066 310.712,464.063 310.459,461.457 310.445,460.599 310.687,456.914 310.767,456.28 311.438,452.715 311.571,452.171 312.594,448.766 312.756,448.305 313.338,446.864 312.781,447.001 311.966,447.135 311.72,447.156 311.503,447.785 310.351,451.881 310.301,452.048 308.792,456.81 308.605,457.312 306.571,462.017 306.09,462.892 303.324,466.965 302.18,468.18 298.473,471.046 296.385,472.025 294.759,472.388 295.366,472.381 297.265,472.308 298.579,472.211 299.481,472.107 300.21,471.995 300.904,471.885 301.15,471.852 301.866,471.773 302.265,471.744 303.129,471.714 303.735,471.728 304.606,471.797 305.65,471.987 306.319,472.18 307.544,472.708 308.038,472.999 309.199,473.925 309.544,474.289 310.361,475.423 310.583,475.837 311.007,476.88 311.133,477.319 311.296,478.109 311.353,478.548 311.393,479.056 311.406,479.471 311.367,479.804 306.216,481.273 280.571,485.54 265.112,486.373 264.373,485.53 262.434,486.517 252.988,487.026 226.109,485.624 201.015,481.586 177.695,475.16 174.125,473.741 173.171,473.204 171.733,472.79 156.131,466.588 136.308,456.109 130.073,451.923 130.402,449.285 131.027,448.602 127.307,448.937 126.26,448.927 125.487,448.843 118.216,443.961 101.85,430.381 87.207,415.606 74.2875,399.877 73.1007,398.134 73.3828,394.601 73.4764,394.021 70.8712,394.86 63.0934,383.439 53.6272,366.536 45.8904,349.42 39.8834,332.342 38.4167,326.59 40.0785,321.237 40.3803,320.478 44.5769,311.908 44.8478,311.422 46.3128,309.088 45.1521,309.901 43.495,310.676 41.3785,311.249 38.4039,311.188 36.4348,310.568 34.647,309.484 33.0467,299.328 32.1905,283.76 32.1905,232.454 33.9496,230.102 36.0582,228.425 36.701,228.142 34.9223,227.934 33.5655,227.589 32.1905,227.038 32.1905,158.148 34.5737,153.794 35.1429,152.956 38.6823,148.688 39.4717,147.916 41.3021,146.467 41.0758,146.464 38.3424,146.209 37.3499,146.019 34.8144,145.279 33.8585,144.896 32.1905,144.03 32.1905,110.702 32.6708,110.404 34.9238,109.229 38.0932,108.676 40.998,110.059 41.334,110.66 41.4119,110.254 42.0605,108.036 42.4349,107.099 43.3388,105.342 41.9209,105.897 40.9539,106.172 36.9289,106.916 35.6504,106.994 34.958,106.953 34.2444,106.861 33.6109,106.736 32.7797,106.499 32.2153,106.288 32.1905,106.276 32.1905,87.9941 32.8998,86.922 33.2157,86.4931 34.8595,84.4811 34.7977,84.504 32.6722,85.0136 32.1905,85.0329 32.1905,41.1933 32.8329,40.7229 33.0906,40.5457 37.5506,37.6676 37.6208,37.6231 42.0275,34.8762 43.189,34.1135 39.5884,33.2223 39.5603,33.2152 35.2609,32.126 34.9698,32.0434 32.1905,31.1678 32.1905,24.8351 38.4229,24.7873 49.9146,24.6992 61.4062,24.611 72.8979,24.5228 80.5255,24.4643 80.7752,27.8916 79.9712,30.0542 78.7866,31.9191 76.6669,34.0795 75.9791,34.6698 72.9822,36.826 72.6984,37.0167 69.263,39.1665 69.255,39.1715 65.9561,41.2277 65.1039,41.8336 66.1507,42.0277 70.7326,42.5055 72.4459,42.6696 72.3783,42.4558 72.3151,42.03 72.9807,38.5786 73.7391,37.2798 75.6014,35.4003 77.6008,34.2079 78.3041,33.8564 81.1309,32.697 81.3014,32.6305 84.4657,31.4585 87.3774,30.2775 88.6396,29.6066 87.9076,29.3603 87.889,29.354 86.5747,28.9063 85.7684,28.5544 84.8387,28.0532 82.6678,25.8635 82.3152,25.1959 82.1816,24.4516 84.3896,24.4346 95.8813,24.3465 107.373,24.2583 117.512,24.1805 117.513,24.1807 118.804,24.3666 120.039,24.1898 120.098,24.1606 130.356,24.0819 141.848,23.9937 153.34,23.9056 154.72,23.895 154.557,24.5437 154.19,25.3626 152.404,27.5277 151.435,28.2093 150.618,28.6809 149.248,29.3174 149.13,29.3705 147.735,29.9778 147.224,30.2454 149.067,31.612 151.707,33.2615 154.527,34.9661 154.742,35.1037 156.31,36.1581 155.942,35.4694 155.026,32.8686 155.262,28.7835 156.315,26.6263 157.977,24.6525 159.074,23.8616 164.831,23.8174 176.323,23.7292 187.815,23.641 187.815,23.641 205.447,23.5057 205.435,29.6072 205.316,29.6736 201.907,31.2376 201.771,31.295 203.723,31.2319 203.953,31.2295 205.432,31.2459 205.406,43.952 205.384,55.3064 203.987,55.1118 203.078,54.9023 201.499,54.3885 203.764,56.7015 203.971,56.9256 205.378,58.5382 205.356,69.7496 205.356,69.7496 205.33,82.6484 205.327,84.025 204.25,84.1008 203.341,84.0866 199.36,83.6813 198.719,83.5761 194.03,82.5074 193.707,82.4232 190.117,81.3639 192.51,82.924 192.716,83.0654 197.602,86.5893 197.751,86.7012 202.554,90.43 202.695,90.543 205.31,92.7202 205.279,108.446 205.254,121.345 205.249,123.778 205.005,123.831 203.558,123.615 204.095,123.895 205.247,124.697 205.203,147.142 205.203,147.142 205.178,160.041 205.152,172.94 205.14,179.318 204.456,180.179 203.787,180.878 201.646,182.744 200.806,183.342 198.338,184.761 197.342,185.204 194.58,186.107 194.275,186.172 197.016,186.842 197.886,187.137 200.649,188.349 201.516,188.831 203.915,190.474 204.733,191.167 205.115,191.563 205.076,211.636 205.076,211.636 205.059,220.013 203.676,221.196 201.088,221.432 201.178,221.493 204.245,223.815 204.645,224.15 205.05,224.525 205.05,224.535 205.051,224.587 205.138,235.881 205.138,235.921 205.303,246.738 205.304,246.81 205.601,257.116 205.605,257.226 205.992,265.012 204.573,266.901 203.714,268.506 203.527,269.455 203.722,270.454 204.423,271.591 205.981,273.167 206.621,273.706 206.828,276.328 206.849,276.539 207.876,285.112 207.917,285.391 209.297,293.32 209.373,293.681 211.163,300.931 211.298,301.388 213.552,307.927 213.782,308.488 216.556,314.283 216.929,314.937 220.278,319.953 220.836,320.654 224.816,324.858 225.568,325.516 230.233,328.876 231.119,329.392 236.526,331.873 237.436,332.194 243.639,333.764 244.472,333.905 249.122,334.317 249.446,335.172 250.359,338.432 250.509,339.159 250.959,342.527 251.003,343.045 251.089,345.489 251.805,343.158 252.194,342.221 256.444,334.25 259.536,334.037 260.373,333.911 266.72,332.433 267.653,332.123 273.148,329.704 274.07,329.183 278.776,325.861 279.562,325.181 283.54,320.993 284.121,320.263 287.434,315.244 287.814,314.563 290.524,308.751 290.753,308.172 292.921,301.603 293.051,301.138 294.74,293.849 294.81,293.487 296.081,285.514 296.118,285.24 297.034,276.62 297.051,276.417 297.591,268.42 298.045,268.212 299.188,267.843 300.301,267.612 301.559,267.489 302.97,267.54 304.556,267.811 300.427,265.314 299.719,264.801 297.836,263.185 298.073,257.239 298.076,257.141 298.299,246.802 298.3,246.744 298.415,235.905 298.415,235.881 298.485,224.578 298.485,224.535 298.459,211.636 298.433,198.737 298.43,196.945 300.061,196.047 301.014,195.639 302.332,195.22 302.153,195.099 301.117,194.243 300.408,193.533 299.552,192.498 298.984,191.659 298.417,190.619 298.407,185.839 298.395,179.868 298.985,178.788 299.553,177.949 300.409,176.914 301.118,176.205 302.153,175.35 302.992,174.783 304.178,174.136 305.132,173.731 306.44,173.322 307.484,173.108 308.884,172.965 309.957,172.965 311.364,173.108 312.406,173.32 313.719,173.73 314.291,173.971 314.478,173.052 314.864,171.808 315.267,170.853 315.878,169.726 315.911,169.676 315.322,169.604 314.914,169.537 312.71,169.089 312.346,169.001 310.498,168.487 310.204,168.396 309.331,168.097 309.193,168.443 309.043,168.785 308.544,169.819 307.848,170.901 307.259,171.611 304.722,173.296 303.973,173.523 300.357,173.329 298.872,172.697 298.38,172.378 298.356,160.041 298.304,134.243 298.304,134.243 298.278,121.345 298.259,112.035 298.904,110.624 299.408,109.75 301.294,107.103 302.021,106.278 304.506,103.991 305.445,103.3 308.556,101.504 309.628,101.034 311.884,100.33 311.743,99.8802 311.605,99.3394 311.531,99.0052 311.4,98.3039 311.351,97.9918 311.148,96.3842 310.928,94.6942 310.859,94.2522 308.717,96.1456 308.683,96.1754 306.281,98.2619 306.114,98.4007 303.837,100.221 303.41,100.529 301.424,101.816 300.153,102.417 298.623,102.906 298.241,102.964 298.201,82.6482 298.201,82.6482 298.196,80.4428 298.26,80.3173 298.196,80.3104 298.175,69.7494 298.158,61.3124 298.468,61.048 298.157,60.9002 298.097,31.053 298.097,31.053 298.082,23.4308 304.559,23.3892 308.619,23.3631 310.593,24.4051 310.601,24.0698 310.604,23.3503 316.312,23.3136 328.065,23.2381 339.818,23.1625 351.572,23.0869 363.325,23.0114 375.078,22.9358 381.052,22.8974 385.143,25.8999 385.985,26.6714 391.041,32.4174 391.71,33.3713 395.482,40.2539 395.916,41.2969 397.17,45.5341 398.649,44.3346 400.643,43.3333 401.291,43.0603 404.263,42.0338 404.61,41.9271 408.271,40.937 408.518,40.8765 412.581,39.9844 412.802,39.9408 413.565,39.8071 412.101,38.7157 407.435,36.2504 402.963,34.5554 398.886,33.3957 395.491,32.546 395.095,32.4304 392.801,31.6622 390.509,30.1427 389.681,29.2042 388.385,26.2595 389.45,22.8434 410.338,22.7091 422.091,22.6336 433.844,22.558 443.684,22.4948 444.392,23.3878 445.688,25.7021 445.957,26.4711 446.415,24.8432 446.802,23.8574 447.515,22.4701 457.351,22.4069 469.104,22.3313 475.523,22.2901 " fill="none" stroke-width="0.5" stroke="rgb(0,0,0)" />
	<polygon points="187.794,439.377 188.129,440.033 190.115,444.692 190.372,445.447 191.258,448.888 192.365,449.215 193.916,449.556 195.586,449.825 197.213,449.993 198.603,450.048 200.463,449.946 202.268,449.628 203.929,449.084 205.368,448.322 206.569,447.333 207.568,446.04 208.377,444.263 209.017,441.308 209.662,440.188 209.399,440.227 202.715,440.726 201.905,440.725 195.686,440.236 194.79,440.087 189.593,438.759 188.681,438.435 186.665,437.502 " fill="none" stroke-width="0.5" stroke="rgb(0,0,0)" />
	<polygon points="258.322,447.751 257.981,447.792 257.827,447.831 257.687,447.89 257.402,448.062 256.894,448.458 256.315,449 256.539,449.003 256.922,449.024 257.351,449.062 257.948,449.15 258.453,449.254 259.2,449.466 259.755,449.668 260.34,449.941 259.97,449.099 259.68,448.612 259.38,448.23 259.103,447.961 258.884,447.802 258.771,447.744 258.723,447.739 " fill="none" stroke-width="0.5" stroke="rgb(0,0,0)" />
	<polygon points="163.177,404.2 163.916,413.704 163.92,414.476 163.6,419.16 163.494,419.911 162.432,424.86 162.178,425.698 160.223,430.639 159.751,431.558 156.752,436.216 156.001,437.136 151.806,441.236 150.794,442.011 145.253,445.279 144.116,445.781 140.702,446.829 140.727,446.831 141.715,446.874 142.683,446.898 143.46,446.904 148.55,446.579 152.665,445.698 155.951,444.358 158.478,442.653 160.369,440.618 161.736,438.192 162.605,435.261 162.933,431.565 162.93,431.298 162.912,430.804 162.882,430.283 162.843,429.742 162.795,429.187 162.74,428.622 162.68,428.05 162.616,427.469 163.25,424.315 165.592,422.109 170.203,422.122 172.306,423.145 172.865,423.46 173.271,423.723 173.263,423.704 172.934,422.526 172.621,420.544 172.577,419.251 172.609,418.884 172.813,417.823 172.909,417.504 173.405,416.363 173.562,416.093 174.356,415.051 174.573,414.829 175.539,414.05 175.814,413.878 176.778,413.401 177.108,413.278 177.959,413.038 178.342,412.964 178.497,412.945 176.947,412.471 176.47,412.3 173.687,411.148 173.253,410.945 170.616,409.563 170.202,409.322 167.775,407.755 167.359,407.457 165.202,405.748 164.766,405.362 163.099,403.713 " fill="none" stroke-width="0.5" stroke="rgb(0,0,0)" />
	<polygon points="326.384,414.585 325.33,415.066 315.825,418.198 314.704,418.437 310.603,418.856 311.637,419.795 312.409,420.842 313.098,422.103 313.592,423.401 313.807,424.111 314.137,425.563 314.18,425.768 314.438,427.155 314.669,428.133 314.69,428.186 315.242,428.579 315.269,428.598 316.177,429.251 316.509,429.512 317.376,430.247 317.968,430.837 318.702,431.691 319.415,432.764 319.923,433.774 320.267,434.844 321.155,433.721 321.318,433.525 322.04,432.698 322.177,432.547 322.897,431.784 323.087,431.591 323.802,430.907 324.07,430.668 324.779,430.076 325.159,429.787 325.859,429.302 326.404,428.971 327.094,428.607 327.872,428.273 328.55,428.044 329.615,427.804 330.279,427.724 331.101,427.754 330.983,427.645 329.982,426.443 328.952,424.485 328.603,423.244 328.404,421.809 328.404,413.773 328.468,413.343 " fill="none" stroke-width="0.5" stroke="rgb(0,0,0)" />
	<polygon points="242.877,409.491 242.894,409.785 242.919,410.645 242.857,411.615 242.078,416.591 241.627,418.051 239.42,422.682 238.731,423.766 235.292,427.953 234.543,428.699 230.066,432.345 229.326,432.849 227.429,433.921 232.044,431.743 236.649,428.604 240.471,424.945 243.495,420.843 245.702,416.362 247.201,411.091 247.715,410.316 247.553,410.331 246.295,410.3 245.357,410.164 244.093,409.818 243.227,409.46 242.859,409.272 " fill="none" stroke-width="0.5" stroke="rgb(0,0,0)" />
	<polygon points="255.927,393.608 255.708,394.268 255.613,394.505 255.643,394.549 256.019,395.185 256.388,395.942 256.662,396.638 256.904,397.435 257.071,398.193 257.183,398.97 257.24,399.793 257.229,400.655 257.133,401.667 256.938,402.674 256.662,403.605 256.268,404.572 255.829,405.406 255.246,406.285 254.659,407.004 254.084,407.58 254.22,407.601 257.069,408.709 257.514,408.906 260.374,410.334 260.718,410.522 263.501,412.178 263.788,412.362 266.406,414.158 266.668,414.351 269.033,416.196 269.3,416.42 271.323,418.225 271.634,418.527 272.36,419.29 272.891,419.174 273.123,419.128 274.408,418.907 274.629,418.873 275.963,418.701 276.172,418.678 277.555,418.555 277.752,418.541 279.185,418.467 279.37,418.46 280.852,418.436 281.064,418.436 283.195,418.486 283.432,418.497 285.635,418.647 285.858,418.667 288.139,418.919 288.347,418.947 290.711,419.304 290.904,419.337 293.358,419.8 293.535,419.837 296.085,420.409 296.246,420.448 296.934,420.625 297.008,420.5 297.514,419.823 298.21,419.116 291.069,418.39 289.958,418.154 279.873,414.855 278.822,414.379 270.216,409.286 269.32,408.619 262.219,402.063 261.522,401.279 255.953,393.593 255.938,393.567 " fill="none" stroke-width="0.5" stroke="rgb(0,0,0)" />
	<polygon points="195.751,412.86 194.92,413.173 194.915,413.174 195.484,413.07 195.862,412.808 " fill="none" stroke-width="0.5" stroke="rgb(0,0,0)" />
	<polygon points="348.023,394.583 347.535,395.4 343.095,401.496 343.316,401.429 343.936,401.282 347.876,400.597 348.488,400.527 352.996,400.275 353.483,400.27 357.276,400.407 357.698,400.44 361.169,400.844 361.665,400.926 364.756,401.587 365.364,401.756 368.02,402.665 368.785,402.997 368.848,403.03 368.402,401.264 368.657,397.904 368.977,397.146 368.039,397.501 362.843,398.664 360.499,398.658 359.349,398.394 357.548,397.607 356.471,396.872 355.468,395.984 354.49,394.865 353.942,394.116 353.086,392.699 352.762,392.073 352.053,390.443 351.845,389.879 351.308,388.124 351.251,387.896 " fill="none" stroke-width="0.5" stroke="rgb(0,0,0)" />
	<polygon points="226.093,383.755 217.825,386.186 216.799,386.381 206.983,387.252 205.933,387.241 197.735,386.336 197.494,386.283 199.355,388.795 199.755,389.422 201.592,392.807 201.92,393.537 203.061,396.702 203.32,397.734 203.712,400.42 203.722,401.04 204.642,399.111 205.035,398.425 207.856,394.255 209.077,392.976 213.032,390.026 215.177,389.075 220.863,387.956 222.292,387.872 223.337,387.952 223.951,388.035 225.199,388.28 225.69,388.401 226.878,388.754 226.797,388.453 226.579,387.466 226.472,386.751 226.389,385.731 226.389,384.866 226.478,383.799 226.516,383.579 " fill="none" stroke-width="0.5" stroke="rgb(0,0,0)" />
	<polygon points="311.325,391.171 311.062,391.267 308.306,392.195 307.91,392.311 304.697,393.12 304.211,393.219 300.504,393.791 299.966,393.846 295.724,394.064 295.083,394.057 291.569,393.811 290.85,393.711 287.46,392.999 286.755,392.799 284.03,391.818 285.993,393.234 291.272,395.743 297.351,397.387 304.307,397.99 307.735,397.848 310.822,397.441 313.386,396.833 313.764,396.693 311.802,393.963 311.547,393.131 311.426,391.131 " fill="none" stroke-width="0.5" stroke="rgb(0,0,0)" />
	<polygon points="119.642,351.471 117.858,352.721 117.06,353.183 115.357,353.979 115.367,354.126 115.395,356.48 115.305,357.523 114.893,359.713 114.589,360.743 113.772,362.736 113.265,363.686 112.079,365.447 112.064,365.465 115.581,364.488 116.522,364.316 120.773,363.932 121.833,363.942 129.508,364.79 130.665,365.051 137.748,367.51 138.805,368.013 145.163,371.959 146.049,372.649 151.549,377.956 152.233,378.763 155.24,383.126 155.013,381.819 154.37,379.145 153.394,376.859 151.993,374.692 150.111,372.631 147.681,370.688 144.642,368.899 140.945,367.313 136.382,365.933 132.695,364.931 132.425,364.85 129.473,363.876 129.074,363.726 126.834,362.781 126.247,362.49 124.626,361.556 123.818,360.983 122.721,360.04 121.808,359.024 121.141,358.053 120.469,356.693 120.137,355.676 119.895,354.471 119.805,353.389 119.865,352.047 120.021,351.15 " fill="none" stroke-width="0.5" stroke="rgb(0,0,0)" />
	<polygon points="245.64,367.03 245.104,367.921 241.037,373.387 240.279,374.209 238.838,375.472 239.231,375.566 240.259,375.945 241.372,376.513 242.256,377.105 243.126,377.833 243.869,378.605 244.481,379.371 244.576,379.514 244.678,379.504 245.244,379.479 246.01,379.501 247.256,379.626 248.348,379.854 249.454,380.209 250.367,380.615 248.692,374.433 248.528,373.52 247.714,364.433 247.719,363.427 247.82,362.435 " fill="none" stroke-width="0.5" stroke="rgb(0,0,0)" />
	<polygon points="77.4377,367.553 78.3118,369.764 79.566,378.046 79.4168,379.664 79.5371,379.496 81.9252,376.627 82.4736,376.06 84.9821,373.825 85.6696,373.306 88.1489,371.735 89.0911,371.262 91.1849,370.46 91.0063,370.381 89.289,369.416 88.448,368.83 86.9623,367.564 86.2665,366.848 85.0317,365.31 84.7204,364.841 84.5637,364.876 84.3312,364.923 83.5114,365.067 83.2866,365.101 82.445,365.213 81.8078,365.258 79.4943,365.282 78.4416,365.188 76.2433,364.768 75.3374,364.501 " fill="none" stroke-width="0.5" stroke="rgb(0,0,0)" />
	<polygon points="101.087,371.74 100.203,371.858 97.9065,371.967 97.3417,371.944 98.4336,375.747 98.7012,375.29 99.3413,374.417 101.927,371.556 " fill="none" stroke-width="0.5" stroke="rgb(0,0,0)" />
	<polygon points="168.055,364.495 168.121,364.714 169.109,368.234 169.126,368.297 169.982,371.5 170.729,374.039 171.268,375.413 171.42,375.459 171.742,375.528 172.099,375.58 172.459,375.611 172.824,375.621 173.311,375.615 173.846,375.598 174.391,375.572 174.946,375.54 175.5,375.507 175.526,375.506 176.061,375.477 176.133,375.473 176.639,375.453 176.767,375.449 177.039,375.444 175.026,373.69 174.376,373.013 169.75,367.25 169.235,366.479 167.915,364.07 " fill="none" stroke-width="0.5" stroke="rgb(0,0,0)" />
	<polygon points="354.361,361.896 353.679,362.715 351.485,364.864 351.39,364.939 352.908,365.438 354.819,368.026 355.074,370.276 354.547,375.39 355.394,374.819 356.092,374.421 357.34,373.831 357.888,373.608 359.457,373.071 359.871,372.947 361.603,372.508 366.48,370.887 365.867,370.772 363.732,370.16 362.762,369.775 360.886,368.806 359.993,368.224 358.402,366.943 357.639,366.19 356.358,364.638 355.766,363.753 354.82,361.974 354.627,361.503 " fill="none" stroke-width="0.5" stroke="rgb(0,0,0)" />
	<polygon points="323.905,364.281 323.542,365.212 322.827,366.633 322.283,367.496 321.317,368.742 320.595,369.505 319.4,370.539 318.576,371.116 320.563,371.243 323.546,371.173 327.152,370.939 331.042,370.52 334.981,369.899 337.423,369.358 334.92,369.139 333.949,368.962 331.007,368.136 330.021,367.75 327.405,366.408 326.475,365.801 324.231,363.972 324.047,363.786 " fill="none" stroke-width="0.5" stroke="rgb(0,0,0)" />
	<polygon points="279.895,361.457 276.717,364.04 274.509,367.953 274.24,369.789 274.548,369.527 274.846,369.328 276.005,368.745 276.344,368.624 277.553,368.347 277.928,368.306 278.261,368.3 278.297,367.953 278.368,367.471 278.608,366.246 278.803,365.521 279.198,364.387 279.713,363.314 280.302,362.375 281.535,361.008 282.357,360.368 282.543,360.281 " fill="none" stroke-width="0.5" stroke="rgb(0,0,0)" />
	<polygon points="297.853,354.258 294.667,356.176 293.529,356.69 289.024,358.112 288.95,358.135 285.616,359.134 288.553,359.343 289.969,359.869 291.282,360.581 293.151,361.967 293.267,362.056 295.621,363.905 298.518,365.88 299.863,366.587 299.321,365.513 298.959,364.591 298.54,363.139 298.356,362.166 298.212,360.629 298.195,359.883 298.247,358.777 298.284,358.36 298.422,357.27 298.466,356.987 298.661,355.913 298.691,355.764 298.915,354.706 298.919,354.689 299.13,353.709 299.288,352.882 299.339,352.508 " fill="none" stroke-width="0.5" stroke="rgb(0,0,0)" />
	<polygon points="386.259,307.172 385.206,308.349 384.106,309.905 383.059,311.733 382.137,313.722 381.454,315.594 381.215,316.828 381.005,319.113 380.829,322.089 380.642,325.274 380.631,325.422 380.369,328.427 380.322,328.804 379.918,331.326 379.683,332.253 379.07,333.989 377.652,335.888 379.013,336.861 379.768,337.516 382.254,340.125 382.915,340.979 384.745,343.916 385.244,344.954 386.374,348.154 386.642,349.32 387.028,352.717 387.041,353.789 386.936,354.954 389.267,352.261 389.871,351.667 394.482,347.803 395.754,347.013 401.171,344.632 400.945,344.479 399.816,343.391 399.416,342.96 398.139,341.422 398.019,341.272 396.669,339.521 395.471,337.985 395.042,338.356 393.833,339.408 393.674,339.542 392.526,340.464 392.059,340.799 391.038,341.452 389.69,342.068 388.855,342.315 386.691,342.493 386.503,342.469 385.225,342.144 385.056,342.077 383.972,341.499 383.824,341.396 382.991,340.68 382.865,340.547 382.26,339.775 382.159,339.617 381.741,338.83 381.666,338.654 381.397,337.847 381.35,337.66 381.213,336.822 381.197,336.629 381.246,335.355 381.524,333.619 381.741,332.746 382.474,330.598 382.594,330.279 383.631,327.779 383.65,327.733 384.81,325.009 385.913,322.207 386.821,319.411 387.421,316.715 387.647,314.002 387.622,312.612 387.51,310.821 387.285,309.01 386.943,307.409 386.722,306.788 " fill="none" stroke-width="0.5" stroke="rgb(0,0,0)" />
	<polygon points="150.937,292.69 151.031,292.83 156.768,301.642 157.065,302.16 161.123,310.263 161.57,311.543 163.109,318.848 163.202,320.41 162.949,323.251 162.791,324.146 162.041,326.961 161.732,327.818 160.494,330.498 160.017,331.326 158.303,333.763 157.631,334.545 155.45,336.629 154.567,337.311 151.93,338.935 150.865,339.437 147.783,340.491 147.227,340.614 148.124,340.849 148.825,341.085 151.416,342.167 152.122,342.525 154.582,344.016 155.215,344.467 157.565,346.412 158.077,346.898 160.336,349.343 160.72,349.809 162.909,352.799 163.255,353.338 163.708,354.146 163.251,352.754 163.019,351.698 162.277,345.175 162.246,344.402 162.304,342.619 162.328,342.257 162.507,340.493 162.566,340.077 162.872,338.399 162.993,337.882 163.432,336.359 163.681,335.675 164.26,334.373 164.791,333.444 165.515,332.43 166.645,331.273 167.521,330.615 169.532,329.684 170.566,329.45 172.282,329.347 172.862,329.407 172.243,328.64 168.679,323.243 168.159,322.237 165.86,316.303 165.545,315.064 164.73,308.73 164.694,307.771 164.863,304.613 164.923,304.05 165.415,301.003 165.533,300.458 166.328,297.534 166.498,297.015 167.576,294.226 167.792,293.74 168.728,291.894 168.488,292.159 167.409,293.177 166.853,293.634 165.635,294.504 165.031,294.877 163.749,295.555 163.006,295.877 161.735,296.317 160.697,296.563 159.514,296.719 158.379,296.747 158.023,296.717 157.129,296.565 156.722,296.459 155.832,296.14 155.385,295.934 154.583,295.474 154.105,295.141 153.447,294.601 152.946,294.117 152.446,293.56 151.933,292.9 151.571,292.373 151.055,291.512 150.802,291.037 150.45,290.288 150.192,289.893 149.414,289.075 148.02,287.799 146.745,286.677 " fill="none" stroke-width="0.5" stroke="rgb(0,0,0)" />
	<polygon points="55.8025,335.795 56.65,342.743 60.2117,348.472 64.2562,352.474 63.9989,351.353 63.8649,350.222 63.8396,347.759 63.9588,346.586 64.4502,344.311 64.8003,343.249 65.7287,341.192 66.242,340.299 67.5279,338.493 67.7016,338.291 66.3517,338.125 65.8866,338.046 63.0163,337.43 62.3013,337.224 59.8326,336.317 58.9347,335.888 56.7938,334.605 56.3042,334.238 " fill="none" stroke-width="0.5" stroke="rgb(0,0,0)" />
	<polygon points="319.508,338.719 318.564,339.659 317.681,340.34 316.746,340.918 315.706,341.42 314.894,341.732 313.741,342.07 313.067,342.22 311.845,342.411 311.282,342.468 310.709,342.495 311.507,342.77 314.403,344.052 315.228,344.51 317.691,346.177 318.081,346.499 318.214,345.01 318.33,344.28 318.98,341.487 319.103,341.043 320.021,338.229 320.092,338.024 320.132,337.918 " fill="none" stroke-width="0.5" stroke="rgb(0,0,0)" />
	<polygon points="123.822,321.699 122.994,322.316 121.065,323.479 120.067,323.946 118.139,324.616 119.381,325.467 120.143,326.103 121.687,327.657 122.315,328.42 123.56,330.259 124.043,331.142 124.935,333.221 125.248,334.21 125.731,336.485 125.846,337.635 125.826,339.873 125.715,340.901 125.278,343.007 125.148,343.424 126.214,342.675 126.947,342.243 128.928,341.28 129.597,341.01 131.775,340.298 132.417,340.132 134.705,339.689 134.998,339.651 134.108,339.256 131.801,337.921 130.925,337.288 129.019,335.586 128.327,334.837 126.83,332.866 126.317,332.043 125.238,329.899 124.888,329.012 124.234,326.791 124.045,325.821 123.826,323.62 123.818,322.656 123.903,321.625 " fill="none" stroke-width="0.5" stroke="rgb(0,0,0)" />
	<polygon points="219.626,339.846 220.021,339.489 220.054,339.437 220.05,339.423 219.765,339.093 " fill="none" stroke-width="0.5" stroke="rgb(0,0,0)" />
	<polygon points="321.368,324.663 320.067,325.549 319.391,325.872 319.955,326.525 320.562,327.416 321.159,328.577 321.487,329.473 321.777,330.703 321.876,331.577 321.872,332.795 321.796,333.438 322.155,332.469 322.967,329.957 323.483,327.704 323.668,325.573 323.647,325.004 323.567,324.327 323.431,323.668 323.233,323.014 323.028,322.508 " fill="none" stroke-width="0.5" stroke="rgb(0,0,0)" />
	<polygon points="355.844,332.846 355.917,332.668 355.732,332.619 " fill="none" stroke-width="0.5" stroke="rgb(0,0,0)" />
	<polygon points="365.166,329.827 364.057,330.492 365.687,330.716 366.046,330.793 365.735,329.493 " fill="none" stroke-width="0.5" stroke="rgb(0,0,0)" />
	<polygon points="204.15,321.267 204.346,323.474 204.933,325.598 205.869,327.521 207.134,329.229 207.454,329.526 207.297,329.331 205.456,326.257 204.784,324.458 204.179,321.041 " fill="none" stroke-width="0.5" stroke="rgb(0,0,0)" />
	<polygon points="74.7387,307.098 73.1687,311.458 72.1977,315.181 71.8689,318.226 71.9032,319.442 72.0435,320.771 72.3095,322.026 72.7411,323.28 73.405,324.612 74.3928,326.087 75.2967,327.144 76.0066,325.255 76.4517,324.346 77.5561,322.548 78.1743,321.731 79.592,320.192 80.3559,319.509 82.057,318.262 82.9267,317.744 84.881,316.821 85.8094,316.484 87.9868,315.917 88.9738,315.757 91.4075,315.596 92.4849,315.635 94.732,315.947 95.7785,316.203 97.8207,316.929 98.7541,317.367 100.573,318.449 101.352,319.013 101.475,319.12 100.768,318.074 100.305,317.237 99.6135,315.661 99.3292,314.835 98.9322,313.272 98.789,312.426 98.7741,312.255 97.4582,313.013 96.3817,313.483 93.8672,314.262 92.8022,314.476 90.1146,314.732 89.0996,314.732 87.3415,314.561 86.3487,314.368 84.645,313.864 83.7066,313.486 82.1126,312.658 81.2482,312.096 79.8191,310.955 79.062,310.216 77.8533,308.772 77.2486,307.878 76.3156,306.142 75.9053,305.148 75.7683,304.689 " fill="none" stroke-width="0.5" stroke="rgb(0,0,0)" />
	<polygon points="366.455,300.868 366.008,301.023 361.939,302.239 361.643,302.318 357.303,303.346 357.062,303.397 352.85,304.189 352.597,304.23 348.912,304.74 348.532,304.779 345.773,304.96 344.947,304.949 344.354,304.895 343.767,304.778 343.799,304.942 343.88,306.385 343.779,307.63 343.595,308.65 343.28,309.756 342.792,310.923 342.248,311.881 341.416,312.983 340.626,313.785 339.598,314.599 338.546,315.237 338.083,315.455 340.046,316.356 340.821,316.794 345.68,320.107 346.38,320.676 350.397,324.563 350.994,325.249 351.761,326.301 351.777,325.957 351.995,324.971 352.316,323.986 352.891,322.676 353.073,322.301 353.886,320.785 353.975,320.625 354.82,319.172 352.913,318.719 352.687,318.66 350.839,318.135 350.092,317.86 348.785,317.265 346.631,315.47 346.135,314.758 345.185,311.685 345.667,309.52 345.871,309.076 347.589,306.986 348.162,306.574 349.151,306.011 350.034,305.628 350.558,305.432 351.696,305.076 352.001,304.99 353.336,304.658 353.525,304.614 354.999,304.304 355.118,304.28 356.673,303.99 356.745,303.977 358.172,303.732 361.269,303.01 364.474,301.927 367.66,300.497 368.249,300.152 " fill="none" stroke-width="0.5" stroke="rgb(0,0,0)" />
	<polygon points="104.87,322.653 104.881,322.668 105.043,322.62 104.749,322.44 104.604,322.327 " fill="none" stroke-width="0.5" stroke="rgb(0,0,0)" />
	<polygon points="128.397,294.04 128.51,294.461 129.896,300.569 130.007,301.276 130.532,307.247 130.528,308.22 130.298,310.602 130.296,310.617 131.138,310.178 131.617,310.019 133.794,309.772 133.974,309.79 135.325,310.102 135.475,310.158 137.01,311.049 137.131,311.15 138.238,312.421 138.333,312.573 138.859,313.691 138.929,313.9 139.125,314.672 139.172,314.945 139.235,315.438 139.262,315.781 139.277,316.09 139.282,316.309 139.308,316.578 139.322,316.629 139.36,316.707 139.403,316.765 139.435,316.794 139.478,316.819 139.608,316.861 139.955,316.895 140.264,316.867 140.456,316.812 140.55,316.763 140.595,316.726 140.628,316.686 140.665,316.615 140.685,316.546 139.726,312.057 136.76,305.901 132.165,298.2 127.079,289.86 " fill="none" stroke-width="0.5" stroke="rgb(0,0,0)" />
	<polygon points="401.486,304.421 402.489,306.433 403.871,308.51 405.553,310.538 407.441,312.414 409.425,314.051 411.546,315.472 412.531,316.075 412.986,316.327 411.487,313.658 409.341,310.176 406.887,306.923 404.229,304.359 401.537,302.801 400.932,302.687 " fill="none" stroke-width="0.5" stroke="rgb(0,0,0)" />
	<polygon points="437.497,310.582 437.308,310.702 436.397,311.167 436.159,311.26 435.459,311.481 435.172,311.55 434.661,311.647 434.325,311.694 433.959,311.732 433.574,311.758 433.312,311.77 432.878,311.778 432.621,311.777 431.852,311.754 431.637,311.744 430.79,311.685 430.671,311.675 429.768,311.591 429.719,311.586 428.784,311.491 427.865,311.399 427.189,311.339 427.163,312.779 427.158,312.951 427.067,314.753 427.017,315.262 426.978,315.527 428.079,314.934 429.053,314.528 431.21,313.873 432.236,313.669 434.54,313.444 435.246,313.423 437.287,313.496 437.701,313.528 438.206,313.586 438.154,312.516 438.164,311.838 438.318,309.898 " fill="none" stroke-width="0.5" stroke="rgb(0,0,0)" />
	<polygon points="312.069,302.739 311.357,303.313 306.767,306.397 305.801,306.91 303.811,307.716 304.181,307.678 304.94,307.656 307.753,307.775 308.209,307.814 310.848,308.156 311.334,308.242 313.737,308.784 314.286,308.939 316.391,309.659 316.503,309.706 316.067,309.153 315.402,308.057 314.529,306.125 314.113,304.705 313.797,302.53 313.779,301.145 313.785,301.094 " fill="none" stroke-width="0.5" stroke="rgb(0,0,0)" />
	<polygon points="434.957,289.829 434.437,290.996 433.764,292.119 433.53,292.476 432.579,293.807 432.509,293.903 431.44,295.331 430.536,296.572 432.171,297.498 434.093,298.536 434.217,298.605 435.922,299.585 436.42,299.91 437.604,300.78 439.1,302.479 439.508,303.214 439.756,304.454 440.333,303.15 440.501,302.851 439.78,302.457 438.539,300.329 436.577,293.836 435.069,289.463 " fill="none" stroke-width="0.5" stroke="rgb(0,0,0)" />
	<polygon points="108.367,291.993 108.356,292.341 108.079,296.547 107.966,297.339 107.174,300.939 107.131,301.075 108.265,301.16 108.549,301.318 110.526,303.288 110.634,302.514 110.688,301.151 110.369,296.498 109.522,292.062 108.367,287.945 " fill="none" stroke-width="0.5" stroke="rgb(0,0,0)" />
	<polygon points="458.514,287.069 457.31,287.626 456.048,288.671 454.661,290.347 453.192,292.618 452.136,294.49 454.767,294.222 456.146,294.262 459.335,294.776 460.845,295.26 462.321,295.991 462.173,294.962 462.169,294.962 462.171,294.949 462.168,294.925 462.192,294.807 462.194,294.797 462.202,294.712 462.212,294.558 462.22,294.342 462.225,294.069 462.227,293.746 462.227,293.507 462.153,291.981 461.938,290.515 461.583,289.145 461.129,288.028 460.674,287.298 460.358,286.983 460.224,286.911 459.951,286.868 " fill="none" stroke-width="0.5" stroke="rgb(0,0,0)" />
	<polygon points="337.713,293.737 338.628,294.99 338.956,294.261 339.124,293.922 339.342,293.518 338.864,293.485 337.535,293.459 " fill="none" stroke-width="0.5" stroke="rgb(0,0,0)" />
	<polygon points="89.4891,276.963 89.4187,277.111 86.5051,282.988 86.46,283.077 84.1049,287.611 82.733,290.259 83.2861,290.242 83.802,290.399 85.5547,291.32 86.0763,291.735 86.5904,292.202 87.1553,292.787 87.6449,293.293 87.9332,293.544 88.0444,293.613 88.0642,293.621 88.1522,293.631 89.107,293.499 89.3137,293.389 89.5913,293.052 90.1105,291.788 90.6044,289.387 90.9314,285.955 91.0874,281.609 91.1244,276.402 91.1318,276.156 91.3005,273.007 " fill="none" stroke-width="0.5" stroke="rgb(0,0,0)" />
	<polygon points="54.2995,274.212 54.0458,275.387 54.0335,276.711 54.3278,278.108 55.1321,279.828 55.4526,280.334 55.924,281.061 55.9589,281.116 56.404,281.822 56.5127,282.002 56.9042,282.681 57.0802,283.013 57.406,283.684 57.619,284.187 57.8668,284.868 58.0602,285.531 58.2178,286.24 58.3298,287.004 58.385,287.76 58.3351,288.967 57.9939,291.143 57.7593,292.076 57.7322,292.153 58.6295,290.847 61.12,286.262 61.9156,282.798 61.8793,282.553 61.8127,282.302 61.7233,282.076 61.5949,281.84 61.3998,281.564 61.1055,281.231 60.5113,280.681 60.4989,280.67 58.5769,278.879 58.263,278.561 56.749,276.891 56.5533,276.662 55.3305,275.149 55.3027,275.114 54.4012,273.979 " fill="none" stroke-width="0.5" stroke="rgb(0,0,0)" />
	<polygon points="157.208,223.131 157.108,223.309 155.909,225.342 154.873,227.145 154.153,228.623 153.935,229.281 154.196,229.389 156.073,233.664 156.013,235.09 155.998,235.327 155.839,237.149 155.828,237.26 155.603,239.332 155.597,239.383 155.34,241.56 155.338,241.571 155.082,243.693 154.864,245.583 154.721,247.037 154.679,247.835 154.715,248.98 154.74,249.194 156.804,250.539 157.794,252.432 158.259,254.057 158.36,254.468 158.725,256.279 158.77,256.534 159.062,258.463 159.081,258.605 159.326,260.583 159.331,260.632 159.553,262.569 159.77,264.342 159.995,265.823 160.043,266.047 161.761,266.7 163.394,268.909 163.935,270.286 164.503,271.721 165.092,273.122 165.708,274.437 166.344,275.607 166.978,276.571 167.567,277.276 168.42,278.029 168.665,278.241 169.039,278.597 169.309,278.881 169.608,279.224 169.871,279.553 170.136,279.916 170.379,280.278 170.63,280.693 170.84,281.081 171.082,281.589 171.248,281.99 171.469,282.641 171.577,283.046 171.733,283.903 171.772,284.301 171.718,285.73 171.51,286.919 171.223,287.803 171.257,287.755 173.057,285.444 173.376,285.071 175.376,282.943 177.193,281.931 175.666,280.894 175.129,280.476 171.014,276.832 170.177,275.89 167.267,271.704 166.452,269.86 165.348,265.035 165.421,262.39 166.562,258.416 167.573,256.5 170.583,252.864 171.327,252.128 175.582,248.677 175.877,248.453 180.718,245.058 185.338,241.702 188.947,238.461 191.018,235.536 191.754,232.42 191.753,232.41 191.67,231.684 191.52,230.808 191.304,229.846 191.028,228.851 190.701,227.873 190.335,226.959 190.151,226.576 189.793,229.417 189.461,230.71 188.114,234.104 187.555,235.152 185.519,238.112 184.914,238.842 182.363,241.414 181.833,241.881 178.937,244.109 178.527,244.395 175.459,246.324 175.178,246.489 172.11,248.165 171.965,248.241 169.069,249.709 165.893,250.223 163.005,248.806 161.468,245.98 161.489,243.878 161.732,242.737 161.944,241.638 162.131,240.537 162.29,239.437 162.419,238.335 162.514,237.232 162.574,236.128 162.592,235.101 162.491,233.034 162.174,231.036 161.597,229.019 160.703,226.951 159.42,224.805 157.658,222.561 157.565,222.468 " fill="none" stroke-width="0.5" stroke="rgb(0,0,0)" />
	<polygon points="420.668,263.706 420.212,265.042 420.053,265.452 419.409,266.927 419.329,267.102 418.622,268.573 419.878,268.85 420.115,268.908 421.739,269.346 422.474,269.603 423.623,270.103 425.788,271.836 426.224,272.432 427.244,275.483 426.616,278.063 426.149,278.934 423.98,281.102 422.706,281.785 421.687,282.201 419.796,282.752 419.381,282.855 417.063,283.332 416.935,283.356 414.411,283.811 411.966,284.282 409.894,284.787 408.255,285.369 406.912,285.993 405.741,286.644 404.848,287.254 404.596,287.473 405.26,287.525 406.65,287.554 410.324,287.318 413.621,286.711 416.663,285.833 419.434,284.797 421.93,283.716 424.102,282.729 424.288,282.649 426.028,281.937 426.908,281.663 428.149,281.393 429.719,281.291 429.907,281.306 430.852,281.473 431.021,281.519 432.004,281.894 432.152,281.968 432.168,281.978 432.116,281.849 429.53,276.392 426.67,271.365 423.51,266.813 420.704,263.56 " fill="none" stroke-width="0.5" stroke="rgb(0,0,0)" />
	<polygon points="391.725,268.894 391.724,268.898 391.13,271.395 390.643,273.715 390.324,275.81 390.212,277.708 390.26,278.859 390.41,279.994 390.643,280.948 390.704,281.103 390.87,280.863 391.376,279.81 391.803,278.488 392.086,276.988 392.194,275.277 392.148,273.051 392.02,270.844 391.836,268.767 391.811,268.535 " fill="none" stroke-width="0.5" stroke="rgb(0,0,0)" />
	<polygon points="341.998,271.296 339.265,272.823 338.108,274.07 337.693,275.708 337.733,276.015 337.848,276.272 338.032,276.485 338.465,276.786 339.218,277.114 340.224,277.38 341.352,277.541 341.943,277.568 341.899,277.121 341.835,276.506 341.831,276.466 341.775,275.876 341.765,275.759 341.725,275.214 341.713,274.991 341.698,274.501 341.718,273.847 341.743,273.584 341.92,272.632 341.992,272.378 342.339,271.475 342.456,271.238 342.555,271.078 " fill="none" stroke-width="0.5" stroke="rgb(0,0,0)" />
	<polygon points="133.265,217.392 129.159,218.691 127.385,219.491 129.656,220.18 131.627,222.723 131.365,226.968 130.231,229.173 129.397,231.286 128.721,233.52 128.2,235.807 127.824,238.08 127.578,240.27 127.445,242.307 127.413,243.806 128.811,253.832 132.526,263.689 137.978,273.581 139.931,276.541 139.831,275.484 140.537,274.068 140.544,274.04 140.45,273.504 139.976,272.441 138.962,270.751 137.605,268.668 137.53,268.549 136.12,266.253 135.903,265.863 134.673,263.419 134.38,262.714 133.51,260.106 133.274,259.052 132.944,256.264 133.554,253.106 134.594,252.059 134.524,251.407 134.128,249.771 133.465,247.623 132.648,245.169 132.635,245.13 131.8,242.556 131.744,242.372 131.015,239.815 130.925,239.45 130.409,236.992 130.316,236.357 130.12,234.08 130.831,230.943 133.225,228.794 133.382,228.759 133.446,227.949 133.469,227.727 133.769,225.26 133.813,224.97 134.272,222.392 134.35,222.029 135.008,219.416 135.142,218.968 135.867,216.886 " fill="none" stroke-width="0.5" stroke="rgb(0,0,0)" />
	<polygon points="313.594,273.574 313.715,273.7 314.12,274.137 313.087,272.947 312.743,272.715 " fill="none" stroke-width="0.5" stroke="rgb(0,0,0)" />
	<polygon points="350.932,267.88 350.544,268.044 352.003,268.482 352.954,268.878 353.037,266.871 " fill="none" stroke-width="0.5" stroke="rgb(0,0,0)" />
	<polygon points="358.51,246.306 357.669,246.873 355.619,247.988 354.664,248.391 352.999,248.91 355.002,249.403 358.106,249.661 361.08,250.888 362.796,253.609 362.433,257.259 360.69,260.847 360.316,261.32 360.751,261.275 361.016,261.254 361.999,261.202 362.168,261.196 363.077,261.177 363.17,261.176 363.687,261.174 363.63,260.315 363.627,260.266 363.571,259.27 363.567,259.185 363.527,258.2 363.523,258.07 363.508,257.124 363.508,256.967 363.517,256.329 363.522,256.142 363.551,255.55 363.572,255.28 363.625,254.745 363.681,254.347 363.763,253.882 363.908,253.275 364.024,252.892 364.417,251.939 364.571,251.65 365.635,250.262 365.735,250.169 365.4,250.029 364.282,249.432 363.437,248.869 362.448,248.065 361.72,247.346 360.893,246.353 360.309,245.492 360.057,245.03 " fill="none" stroke-width="0.5" stroke="rgb(0,0,0)" />
	<polygon points="445.076,250.839 446.252,253.754 446.254,253.759 447.607,257.124 447.635,257.193 448.636,259.788 449.232,258.664 449.298,258.543 450.98,255.561 451.028,255.478 452.019,253.795 451.418,253.491 451.236,253.395 447.781,251.477 447.469,251.29 444.516,249.374 " fill="none" stroke-width="0.5" stroke="rgb(0,0,0)" />
	<polygon points="382.157,241.991 381.767,243.305 381.363,244.29 380.743,245.453 380.143,246.346 379.319,247.339 378.554,248.09 377.549,248.895 376.663,249.47 375.503,250.067 374.544,250.448 374.438,250.479 375.326,251.269 375.909,251.877 377.028,253.248 377.247,253.536 378.36,255.107 378.413,255.183 378.533,255.359 378.594,255.295 379.81,254.018 380.013,253.816 381.2,252.696 381.789,252.216 382.915,251.424 384.491,250.669 385.53,250.369 387.454,250.179 387.755,250.205 388.912,250.436 389.167,250.517 390.529,251.179 390.74,251.322 391.904,252.395 392.072,252.605 392.768,253.741 392.896,254.024 393.176,254.834 394.013,254.162 394.221,254.033 395.365,253.501 395.597,253.425 396.725,253.188 396.976,253.163 399.355,253.474 400.332,253.84 401.986,254.833 402.952,255.688 403.545,256.306 404.508,257.484 404.7,257.734 405.653,259.054 406.135,259.712 406.241,259.641 407.431,258.724 408.705,257.699 408.807,257.618 410.016,256.694 410.433,256.405 410.692,256.244 407.333,254.955 401.956,253.445 396.567,251.94 396.055,251.769 391.242,249.878 390.127,249.277 386.25,246.545 384.843,245.076 382.32,241.146 " fill="none" stroke-width="0.5" stroke="rgb(0,0,0)" />
	<polygon points="314.54,222.739 312.849,223.667 311.899,224.073 310.041,224.661 308.989,224.879 307.007,225.085 306.686,225.085 307.754,228.389 309.204,230.02 311.744,231.531 315.324,233.086 315.52,233.176 319.319,235.013 320.271,235.605 323.536,238.15 324.824,239.606 327.109,243.421 327.802,245.346 327.863,245.747 328.684,245.096 329.801,244.398 330.705,243.947 331.873,243.497 332.688,243.256 333.836,243.014 334.567,242.913 334.781,242.898 334.312,242.33 333.743,241.488 332.629,239.44 332.225,238.485 331.521,236.224 331.308,235.182 331.095,233.088 329.865,233.471 328.825,233.683 327.419,233.826 326.347,233.825 324.953,233.683 323.907,233.468 322.604,233.06 321.649,232.655 320.467,232.009 319.628,231.441 318.595,230.587 317.886,229.877 317.032,228.842 316.465,228.003 315.819,226.817 315.415,225.862 315.006,224.552 314.792,223.509 314.703,222.629 " fill="none" stroke-width="0.5" stroke="rgb(0,0,0)" />
	<polygon points="103.484,233.882 103.466,234.653 103.076,238.749 102.979,239.368 102.967,239.426 106.064,235.622 103.999,234.514 103.461,233.438 " fill="none" stroke-width="0.5" stroke="rgb(0,0,0)" />
	<polygon points="463.744,213.939 463.739,214.324 463.611,216.845 463.58,217.213 463.243,219.994 463.213,220.204 462.737,223.145 462.72,223.246 462.174,226.247 462.172,226.26 461.634,229.181 461.181,231.863 460.882,234.152 460.786,235.84 460.869,236.918 461.1,237.94 461.456,238.891 461.517,239.005 462.1,238.353 463.614,236.183 465.053,233.549 466.234,230.642 467.01,227.649 467.279,224.759 466.701,219.577 465.226,215.542 463.73,213.298 " fill="none" stroke-width="0.5" stroke="rgb(0,0,0)" />
	<polygon points="410.035,231.772 412.681,235.344 415.101,237.66 415.946,238.341 415.475,237.789 409.784,231.273 " fill="none" stroke-width="0.5" stroke="rgb(0,0,0)" />
	<polygon points="382.334,222.135 381.931,223.093 381.174,224.49 380.604,225.336 379.601,226.553 378.885,227.27 377.669,228.273 376.822,228.844 376.61,228.959 376.69,229.001 377.535,229.55 378.54,230.347 379.268,231.049 380.092,232.01 380.514,232.613 380.488,232.028 380.623,230.1 380.686,229.576 381.044,227.493 381.102,227.202 381.607,225.005 381.637,224.883 382.214,222.621 382.344,222.102 " fill="none" stroke-width="0.5" stroke="rgb(0,0,0)" />
	<polygon points="47.4457,226.063 46.9768,226.262 44.4493,227.192 43.8452,227.374 42.8883,227.601 43.9048,228.057 44.2673,228.276 45.3375,229.131 45.6204,229.425 46.3838,230.434 46.5932,230.793 47.0314,231.754 47.1014,231.96 47.1149,231.905 48.8473,226.083 49.2182,225.21 " fill="none" stroke-width="0.5" stroke="rgb(0,0,0)" />
	<polygon points="85.9345,211.073 84.1617,213.049 83.5967,213.425 83.1253,213.704 83.0279,213.755 84.2327,214.465 84.8042,214.913 85.6798,215.783 86.1426,216.365 86.7021,217.228 87.0583,217.916 87.3878,218.701 87.6397,219.469 87.8178,220.171 87.9673,220.993 88.0441,221.634 88.0935,222.482 88.0648,223.421 87.63,227.049 87.9394,226.644 88.6677,225.808 89.3092,225.186 90.0458,224.584 91.0514,223.936 91.7882,223.572 93.2599,223.096 93.9888,222.974 95.6051,222.952 96.2488,223.043 97.6715,223.452 98.2831,223.725 99.4652,224.452 100.028,224.91 100.879,225.782 101.377,226.426 101.924,227.298 102.074,227.598 102.069,227.531 102.061,227.416 102.019,226.721 102.013,226.6 101.989,225.92 101.986,225.793 101.977,225.129 101.991,224.671 102.294,220.594 102.411,219.811 103.253,216.111 103.478,215.374 104.757,212.066 104.872,211.821 104.515,212.002 101.936,212.936 100.711,213.221 97.7137,213.551 96.5457,213.55 93.3565,213.194 92.1678,212.92 89.3036,211.9 88.2191,211.368 86.115,210.019 " fill="none" stroke-width="0.5" stroke="rgb(0,0,0)" />
	<polygon points="63.4639,215.336 61.513,216.952 62.3773,217.201 63.0217,217.497 64.3671,218.384 64.884,218.852 65.7807,219.908 66.1805,220.527 66.6645,221.474 66.9575,222.224 67.1875,222.972 67.384,223.833 67.4816,224.402 67.5919,225.353 67.6242,225.784 67.6445,226.386 69.2217,222.503 69.5629,221.812 72.2275,217.278 73.7938,215.651 71.7457,215.481 70.8427,215.327 68.771,214.784 67.8602,214.455 65.9897,213.576 65.1066,213.051 64.7495,212.789 " fill="none" stroke-width="0.5" stroke="rgb(0,0,0)" />
	<polygon points="450.693,206.077 448.846,206.743 446.007,207.924 445.91,207.963 442.322,209.374 442.031,209.478 437.722,210.889 437.311,211.005 432.19,212.235 431.71,212.328 425.688,213.198 425.179,213.247 418.166,213.577 417.245,213.54 416.48,213.442 419.982,214.39 420.915,214.739 425.36,216.9 426.426,217.588 430.12,220.652 430.944,221.51 434.148,225.696 434.251,225.854 434.332,225.569 436.077,221.509 436.585,220.591 439.108,216.937 439.611,216.314 442.596,213.145 443.065,212.704 446.196,210.101 446.661,209.756 449.622,207.797 450.182,207.474 452.658,206.241 452.874,206.16 452.626,206.089 451.445,205.951 " fill="none" stroke-width="0.5" stroke="rgb(0,0,0)" />
	<polygon points="184.192,211.008 185.082,211.828 187.054,214.116 187.774,215.193 188.983,217.594 189.394,218.706 190.001,221.161 190.057,221.518 190.882,219.919 193.74,218.441 197.277,219.123 196.508,217.726 195.9,215.529 195.22,214.232 194.32,213.195 193.069,212.283 191.32,211.476 188.988,210.831 186.061,210.414 183.216,210.295 " fill="none" stroke-width="0.5" stroke="rgb(0,0,0)" />
	<polygon points="380.764,197.361 380.548,198.408 380.117,199.784 379.711,200.738 379.029,201.986 378.461,202.823 377.56,203.912 376.852,204.62 375.905,205.402 376.821,205.898 377.667,206.468 378.882,207.47 379.599,208.186 380.601,209.4 381.172,210.246 381.929,211.64 382.333,212.598 382.811,214.139 383.022,215.178 383.189,216.833 383.189,217.893 383.076,219.021 383.226,218.339 383.519,216.497 383.624,214.823 383.616,214.484 383.586,214.1 383.54,213.781 383.486,213.529 383.429,213.342 383.376,213.211 383.329,213.123 383.123,212.817 382.221,209.728 383.271,206.688 385.887,204.814 389.837,205.09 390.25,205.291 383.468,199.761 382.588,198.848 380.848,196.544 " fill="none" stroke-width="0.5" stroke="rgb(0,0,0)" />
	<polygon points="337.65,212.198 335.836,213.173 335.833,213.174 335.911,213.251 336.768,214.287 337.338,215.127 337.985,216.314 338.391,217.271 338.598,217.932 339.128,217.574 341.177,216.46 341.284,216.414 340.768,215.898 339.913,214.862 339.344,214.021 338.698,212.833 338.293,211.877 338.265,211.786 " fill="none" stroke-width="0.5" stroke="rgb(0,0,0)" />
	<polygon points="399.824,211.328 400.752,212.315 402.136,214.227 402.507,213.429 405.043,211.981 404.48,211.909 403.052,211.519 396.747,208.799 " fill="none" stroke-width="0.5" stroke="rgb(0,0,0)" />
	<polygon points="57.165,202.353 56.7906,202.687 55.0104,204.133 54.5705,204.454 52.7836,205.623 52.2714,205.919 50.4927,206.817 49.9036,207.071 48.1482,207.705 47.481,207.897 45.7637,208.273 45.0243,208.381 43.3601,208.504 42.4338,208.492 40.66,208.313 41.6208,208.483 43.3818,208.576 44.8361,208.537 46.4546,208.414 48.1873,208.211 50.0445,207.928 52.0354,207.57 54.1684,207.141 56.4515,206.645 58.9076,206.087 59.2956,206.12 59.2134,205.932 58.5761,203.917 58.3551,202.84 58.206,201.329 " fill="none" stroke-width="0.5" stroke="rgb(0,0,0)" />
	<polygon points="361.989,206.309 362.039,206.276 361.983,206.245 " fill="none" stroke-width="0.5" stroke="rgb(0,0,0)" />
	<polygon points="114.137,200.028 113.902,200.822 113.883,200.872 113.951,200.819 114.617,200.38 115.489,199.895 114.494,199.526 114.308,199.223 " fill="none" stroke-width="0.5" stroke="rgb(0,0,0)" />
	<polygon points="124.16,196.501 123.557,196.591 123.141,196.707 122.914,196.808 122.871,196.836 122.671,197.333 122.575,197.449 122.781,197.417 123.964,197.264 124.204,197.238 125.427,197.136 125.629,197.124 126.889,197.067 127.055,197.062 128.35,197.045 128.392,197.045 126.899,196.663 124.797,196.472 " fill="none" stroke-width="0.5" stroke="rgb(0,0,0)" />
	<polygon points="355.013,196.03 354.401,196.222 355.05,196.497 355.818,196.915 355.713,195.889 355.713,195.732 " fill="none" stroke-width="0.5" stroke="rgb(0,0,0)" />
	<polygon points="59.9066,190.35 59.6167,190.413 60.4365,191.192 61.16,190.04 " fill="none" stroke-width="0.5" stroke="rgb(0,0,0)" />
	<polygon points="179.004,184.049 180.038,186.896 180.053,186.891 180.61,186.755 184.462,186.029 184.815,185.985 183.801,185.834 182.266,185.359 178.848,183.698 " fill="none" stroke-width="0.5" stroke="rgb(0,0,0)" />
	<polygon points="367.263,166.28 366.452,167.261 365.736,167.975 364.752,168.785 363.908,169.354 362.779,169.966 361.851,170.356 362.446,171.076 363.014,171.912 364.053,173.811 364.46,174.765 365.118,176.858 365.334,177.907 365.564,180.146 365.564,181.23 365.373,183.087 366.29,182.896 367.745,182.746 368.829,182.745 370.301,182.896 371.346,183.111 372.722,183.541 372.898,183.616 371.721,181.208 371.423,180.462 368.657,171.613 368.5,170.971 367.573,165.822 " fill="none" stroke-width="0.5" stroke="rgb(0,0,0)" />
	<polygon points="155.076,169.791 151.002,171.814 150.349,172.085 145.901,173.596 145.198,173.782 140.287,174.728 139.612,174.812 141.803,176.338 142.437,176.857 145.831,180.102 146.254,180.557 148.36,183.106 148.923,179.53 149.11,178.738 150.069,175.742 150.674,174.467 152.065,172.329 153.547,170.823 155.1,169.777 " fill="none" stroke-width="0.5" stroke="rgb(0,0,0)" />
	<polygon points="108.632,159.683 108.064,160.523 107.209,161.559 106.499,162.27 105.464,163.126 104.624,163.695 103.438,164.342 102.482,164.747 101.174,165.156 100.129,165.371 98.7275,165.513 97.6553,165.514 96.2483,165.371 95.2061,165.158 93.8933,164.749 92.9386,164.345 91.7489,163.698 90.9087,163.131 90.114,162.475 90.0723,162.619 89.9173,163.073 88.8381,165.825 92.1548,165.931 95.4977,167.168 96.0848,167.427 99.4603,169.166 100.011,169.493 103.272,171.708 103.816,172.132 106.814,174.798 107.357,175.357 109.946,178.45 110.463,179.187 112.495,182.682 112.561,182.826 112.724,182.122 113.444,179.817 113.846,178.865 114.889,176.947 115.633,175.903 117.019,174.385 118.109,173.475 119.86,172.373 120.714,171.978 118.319,170.608 117.375,169.92 114.482,167.276 113.745,166.444 111.523,163.333 111.01,162.445 109.443,158.996 109.271,158.507 " fill="none" stroke-width="0.5" stroke="rgb(0,0,0)" />
	<polygon points="78.3077,180.983 78.7306,181.272 78.8238,180.941 78.9709,180.495 79.039,180.315 " fill="none" stroke-width="0.5" stroke="rgb(0,0,0)" />
	<polygon points="343.59,162.42 342.712,163.15 338.605,165.873 337.708,166.351 334.556,167.659 334.792,167.894 335.603,168.876 336.174,169.72 336.45,170.228 337.12,169.418 337.827,168.712 339.487,167.341 340.322,166.775 342.222,165.738 343.175,165.333 345.267,164.676 346.314,164.46 346.933,164.397 346.884,164.307 346.479,163.349 346.092,162.104 345.88,161.063 345.788,160.151 " fill="none" stroke-width="0.5" stroke="rgb(0,0,0)" />
	<polygon points="163.705,163.554 163.415,163.805 159.827,166.692 159.41,166.996 155.643,169.464 157.517,168.713 160.011,168.286 161.923,168.309 163.651,168.647 164.958,169.086 166.808,169.989 166.277,168.972 166.021,168.402 164.218,163.656 164.072,163.212 " fill="none" stroke-width="0.5" stroke="rgb(0,0,0)" />
	<polygon points="423.753,139.457 422.014,142.281 421.034,143.453 418.293,145.905 417.38,146.561 413.765,148.618 413.009,148.972 408.648,150.611 408.024,150.803 403.858,151.806 405.689,151.694 405.899,151.686 409.096,151.618 409.684,151.638 417.016,152.298 418.044,152.494 424.463,154.391 425.442,154.79 431.127,157.801 431.906,158.305 437.038,162.307 437.57,162.783 439.824,165.09 439.424,164.534 439.039,163.913 435.532,157.27 435.124,156.257 433.279,149.819 433.372,146.603 433.987,145.787 433.745,145.739 431.777,145.222 430.992,144.948 429.312,144.211 428.372,143.677 427.012,142.709 426.022,141.794 425.012,140.589 424.212,139.291 424.004,138.811 " fill="none" stroke-width="0.5" stroke="rgb(0,0,0)" />
	<polygon points="378.391,151.376 380.024,152.009 382.198,152.589 385.017,153.02 388.619,153.192 390.562,153.134 390.646,153.128 389.936,153.105 381.668,152.208 380.547,151.961 377.572,150.959 " fill="none" stroke-width="0.5" stroke="rgb(0,0,0)" />
	<polygon points="352.005,129.424 352.119,129.763 352.595,131.344 352.673,131.637 353.05,133.211 353.109,133.489 353.383,134.983 353.429,135.284 353.596,136.627 353.63,137.014 353.687,138.134 353.67,138.903 353.043,145.504 352.819,146.605 352.183,148.609 352.551,148.409 353.508,148.006 354.757,147.619 355.795,147.408 357.136,147.273 358.198,147.273 359.537,147.408 360.576,147.619 361.824,148.006 362.781,148.41 363.91,149.022 364.755,149.592 365.739,150.403 366.455,151.118 367.106,151.907 367.39,151.327 367.441,151.245 368.322,150.17 368.38,150.116 369.74,149.191 369.803,149.161 371.347,148.703 371.413,148.694 371.691,148.73 365.844,145.303 365.034,144.719 359.697,140.051 359.057,139.383 354.809,134.099 354.308,133.356 351.764,128.785 " fill="none" stroke-width="0.5" stroke="rgb(0,0,0)" />
	<polygon points="130.753,133.271 130.022,133.601 129.316,133.984 128.711,134.368 128.293,134.676 127.903,135.022 124.961,136.324 122.585,135.842 123.843,137.105 124.607,138.727 125.001,139.905 125.479,142.199 125.52,142.418 125.923,144.86 126.384,146.785 126.77,147.615 126.967,147.66 127.15,147.576 127.583,147.287 128.106,146.811 128.689,146.098 129.299,145.092 129.922,143.669 130.246,142.682 130.574,141.544 130.855,140.414 131.086,139.3 131.267,138.215 131.396,137.17 131.472,136.179 131.497,135.259 131.456,133.935 131.359,133.058 " fill="none" stroke-width="0.5" stroke="rgb(0,0,0)" />
	<polygon points="101.356,136.985 101.356,138.057 101.213,139.463 100.999,140.506 100.763,141.262 101.174,141.346 102.482,141.755 103.437,142.16 104.623,142.806 105.462,143.374 106.497,144.229 107.207,144.939 107.99,145.887 108.032,145.586 108.336,143.826 108.428,143.398 108.886,141.633 109.075,141.048 109.705,139.422 109.857,139.114 107.558,139.658 105.49,139.063 102.853,137.674 101.258,136.027 " fill="none" stroke-width="0.5" stroke="rgb(0,0,0)" />
	<polygon points="314.767,122.738 313.143,123.176 311.712,123.843 310.473,124.696 309.444,125.683 308.65,126.735 308.111,127.763 307.666,129.165 305.81,131.793 305.547,131.886 305.735,132.034 306.977,132.858 308.138,133.479 309.248,133.928 310.351,134.236 311.502,134.42 312.8,134.485 313.199,134.473 313.743,134.431 314.363,134.363 315.035,134.276 315.724,134.183 315.767,134.177 316.422,134.095 316.562,134.079 317.151,134.02 317.444,133.999 317.951,133.977 318.485,133.98 319.049,134.013 319.724,134.095 320.232,134.19 321.009,134.397 321.455,134.554 322.326,134.951 322.704,135.166 323.616,135.823 323.921,136.096 324.757,137.047 324.982,137.375 325.589,138.555 325.728,138.936 326.018,140.173 326.066,140.606 326.07,141.727 325.991,142.501 325.842,143.316 325.725,143.76 326.685,143.683 329.562,142.971 331.369,142.169 329.286,141.526 327.619,139.638 327.129,138.706 326.639,137.935 326.044,137.151 325.341,136.372 324.527,135.614 323.599,134.891 322.55,134.216 321.161,133.493 320.744,133.278 320.063,132.859 319.701,132.597 319.072,132.062 318.771,131.763 318.232,131.135 317.99,130.804 317.564,130.118 317.38,129.763 317.074,129.051 316.945,128.677 316.754,127.969 316.678,127.582 316.589,126.895 316.565,126.502 316.582,125.619 316.66,124.876 316.844,123.939 317.068,123.17 317.276,122.614 317.13,122.594 316.695,122.57 " fill="none" stroke-width="0.5" stroke="rgb(0,0,0)" />
	<polygon points="58.2223,137.439 57.9442,138.265 60.0105,137.864 60.3727,137.807 61.9856,137.609 61.386,137.459 57.8889,136.329 " fill="none" stroke-width="0.5" stroke="rgb(0,0,0)" />
	<polygon points="75.434,137.662 75.0939,137.769 75.5431,137.815 75.6552,137.827 76.5495,137.938 76.781,137.972 76.8306,137.98 76.8306,136.986 76.9732,135.583 77.0325,135.292 " fill="none" stroke-width="0.5" stroke="rgb(0,0,0)" />
	<polygon points="123.006,111.837 121.419,118.188 121.395,118.279 119.668,124.695 119.565,125.035 117.648,130.631 117.279,131.465 116.04,133.721 116.389,133.628 120.035,133.964 120.32,134.099 119.606,133.339 119.495,129.019 121.338,124.589 121.703,123.871 124.045,120.019 124.537,119.337 127.321,116.066 127.93,115.458 130.369,113.39 130.297,113.355 128.779,112.207 128.087,111.58 126.585,109.957 126.352,109.687 124.858,107.838 124.301,107.157 " fill="none" stroke-width="0.5" stroke="rgb(0,0,0)" />
	<polygon points="93.3929,111.354 93.3042,111.438 91.1276,113.459 90.7784,113.756 88.5152,115.519 87.7523,116.014 85.4141,117.261 83.9444,117.785 81.543,118.258 79.9553,118.328 78.7586,118.2 78.5814,118.158 78.7523,119.164 78.8186,119.75 79.0073,123.065 79.0146,123.484 78.9829,124.911 78.9728,125.14 78.8817,126.528 78.863,126.746 78.7188,128.093 78.6926,128.299 78.5014,129.6 78.469,129.795 78.2371,131.047 78.1995,131.231 77.9329,132.43 77.9325,132.432 77.9984,132.276 78.6442,131.088 79.211,130.249 80.0656,129.212 80.7753,128.501 81.81,127.644 82.6499,127.075 83.836,126.428 84.7925,126.021 86.1014,125.612 87.1474,125.397 88.5505,125.254 89.6244,125.254 91.0295,125.397 92.0741,125.611 93.385,126.021 94.3405,126.426 95.5285,127.074 96.3682,127.642 97.4045,128.498 98.0743,129.168 97.2052,125.312 97.1223,124.849 96.3286,118.915 96.3145,118.8 95.663,112.963 95.1656,109.63 " fill="none" stroke-width="0.5" stroke="rgb(0,0,0)" />
	<polygon points="182.703,102.984 182.886,103.807 183.441,107.778 183.487,108.762 183.445,109.653 183.384,110.239 183.252,111.065 183.082,111.794 182.852,112.538 182.489,113.421 182.153,114.067 181.491,115.05 181.04,115.58 180.03,116.498 179.456,116.898 178.21,117.539 177.506,117.791 176.27,118.071 175.426,118.159 173.506,118.006 170.198,117.119 172.522,120.954 172.935,121.796 174.622,126.177 174.859,126.973 175.368,129.352 177.412,127.534 177.908,127.143 180.908,125.056 181.557,124.671 184.677,123.104 185.505,122.773 188.727,121.788 189.731,121.584 193.035,121.242 194.168,121.247 198.201,121.697 198.788,121.836 197.842,121.127 194.327,117.658 194.004,117.31 189.76,112.298 189.587,112.082 185.077,106.155 184.941,105.967 182.571,102.552 " fill="none" stroke-width="0.5" stroke="rgb(0,0,0)" />
	<polygon points="385.365,93.6403 384.574,94.3678 378.397,98.9892 377.525,99.5189 370.578,102.871 369.667,103.211 362.168,105.253 361.24,105.419 353.41,106.108 352.547,106.114 347.253,105.716 346.505,105.605 346.261,105.552 347.032,106.405 347.373,106.959 347.897,108.087 348.126,108.785 348.311,109.527 348.45,110.323 348.51,110.79 348.573,111.543 348.582,111.523 349,110.711 349.135,110.496 349.633,109.829 349.792,109.647 350.261,109.175 350.438,109.018 350.79,108.732 350.978,108.592 351.163,108.46 351.357,108.329 352.628,107.694 353.809,107.292 354.979,107.036 356.819,106.848 357.098,106.827 359.496,106.709 362.299,106.522 365.433,106.14 368.901,105.436 372.69,104.279 376.899,102.48 377.331,102.26 377.632,102.119 378.218,101.866 378.527,101.744 379.11,101.535 379.426,101.433 380.003,101.266 380.325,101.184 380.893,101.057 381.219,100.995 381.777,100.907 382.106,100.865 382.653,100.814 382.984,100.793 383.516,100.776 384.483,100.834 386.448,101.134 388.231,101.746 389.649,102.537 390.94,103.548 391.984,104.667 392.535,105.366 393.38,106.649 393.42,106.709 394.033,107.667 394.072,107.712 394.658,107.657 395.844,107.377 397.317,106.896 398.974,106.271 400.692,105.606 400.827,105.556 402.478,104.968 402.857,104.849 404.377,104.433 405.159,104.281 406.506,104.123 408.887,104.389 410.929,105.11 412.747,106.202 414.89,108.168 415.588,108.948 417.718,111.865 418.061,112.4 420.062,115.972 420.277,116.401 422.034,120.333 422.198,120.746 423.595,124.743 423.74,125.231 424.54,128.497 424.846,127.996 425.584,127.009 426.325,126.207 427.334,125.319 428.007,124.846 427.748,124.703 426.754,124.021 425.918,123.309 425.01,122.357 424.35,121.507 423.559,120.241 423.133,119.4 422.628,118.138 422.431,117.545 422.059,116.158 421.991,115.873 421.685,114.417 421.683,114.405 421.404,113.061 421.137,112.031 420.899,111.396 420.769,111.177 420.266,110.668 418.806,107.802 419.273,104.619 421.495,102.292 424.543,101.91 419.895,102.101 419.624,102.105 416.337,102.073 416.234,102.071 412.901,101.972 412.8,101.968 409.431,101.805 409.331,101.799 405.934,101.57 405.836,101.562 402.42,101.268 402.322,101.259 398.896,100.899 398.797,100.888 395.371,100.463 395.271,100.45 391.853,99.9604 391.78,99.9496 391.305,99.8748 390.862,99.7855 390.476,99.6905 389.807,99.4778 389.503,99.3585 388.579,98.8863 388.348,98.7384 387.299,97.8548 387.134,97.6742 386.298,96.4546 386.19,96.237 385.769,95.0559 385.71,94.7971 385.586,93.9308 385.569,93.6267 385.65,93.3195 " fill="none" stroke-width="0.5" stroke="rgb(0,0,0)" />
	<polygon points="347.958,120.524 347.869,120.984 347.466,122.671 349.532,124.368 350.28,125.54 350.46,125.863 348.92,121.374 348.673,120.308 348.36,117.79 " fill="none" stroke-width="0.5" stroke="rgb(0,0,0)" />
	<polygon points="144.865,98.7034 144.316,101.687 143.739,104.913 143.646,105.334 143.077,107.489 144.582,107.146 145.371,107.028 149.5,106.726 150.483,106.746 155.36,107.298 156.371,107.538 155.089,106.462 155.053,106.432 150.609,102.633 146.69,99.4815 144.966,98.3452 " fill="none" stroke-width="0.5" stroke="rgb(0,0,0)" />
	<polygon points="326.313,98.6068 325.49,99.797 327.629,100.235 328.302,100.42 331.043,101.372 331.621,101.611 333.866,102.701 334.3,102.938 336.096,104.028 336.333,104.181 337.032,104.657 337.247,104.545 337.442,104.448 338.037,104.168 338.557,103.955 339.127,103.757 339.28,103.72 336.946,102.894 336.475,102.702 332.826,101.001 332.521,100.847 329.413,99.1461 329.308,99.0869 326.934,97.7164 " fill="none" stroke-width="0.5" stroke="rgb(0,0,0)" />
	<polygon points="431.956,101.582 431.449,101.627 425.581,101.868 426.314,102.056 427.144,102.215 428.015,102.334 428.914,102.419 429.832,102.472 430.758,102.5 431.683,102.511 432.39,102.513 434.765,102.324 437.08,101.832 439.547,101.073 441.932,100.206 " fill="none" stroke-width="0.5" stroke="rgb(0,0,0)" />
	<polygon points="69.8501,91.8794 64.7863,94.5446 60.0446,97.1606 62.7978,97.541 64.2918,97.9782 67.6743,99.538 68.9176,100.338 70.9174,102.064 70.9473,101.709 70.9632,101.549 71.2144,99.3603 71.2241,99.2814 71.5121,97.0661 71.5131,97.0584 71.7968,94.9007 72.035,92.8952 72.1936,91.121 72.2044,90.8311 " fill="none" stroke-width="0.5" stroke="rgb(0,0,0)" />
	<polygon points="395.623,78.8139 395.177,79.8463 391.502,86.3479 392.269,85.9568 394.147,84.8831 395.725,83.6924 396.874,82.3831 397.615,80.835 397.967,78.3651 397.93,77.3795 397.801,76.0912 397.608,74.7978 397.375,73.529 397.333,73.3216 " fill="none" stroke-width="0.5" stroke="rgb(0,0,0)" />
	<polygon points="172.232,76.9917 173.336,79.5942 173.523,79.2383 173.625,79.079 174.228,78.3048 174.355,78.17 175.19,77.449 175.339,77.345 176.268,76.848 173.433,75.9467 171.703,75.4934 " fill="none" stroke-width="0.5" stroke="rgb(0,0,0)" />
	<polygon points="111.967,77.9726 112.14,78.9216 112.196,79.5549 112.44,78.9459 113.477,76.8723 112.586,76.5546 111.371,75.8315 " fill="none" stroke-width="0.5" stroke="rgb(0,0,0)" />
	<polygon points="125.62,60.2958 124.857,63.4672 124.121,66.9551 124.049,67.2556 123.202,70.3627 122.788,71.4187 122.036,72.8624 123.33,73.3229 125.382,74.6525 126.764,76.097 127.425,76.9463 127.816,77.5702 127.824,76.6885 127.827,76.5348 127.874,75.2844 127.892,75.003 127.992,73.9005 128.057,73.4257 128.229,72.4874 128.432,71.713 128.693,70.955 129.276,69.7701 129.646,69.2086 131.023,67.7875 131.519,67.4387 132.934,66.8419 131.545,65.08 131.403,64.8912 129.665,62.4718 127.987,60.2503 126.544,58.6716 126.297,58.4919 " fill="none" stroke-width="0.5" stroke="rgb(0,0,0)" />
	<polygon points="106.628,57.7286 105.536,58.252 103.978,59.3241 102.185,60.7848 100.322,62.3794 100.19,62.4887 98.4089,63.9166 97.9006,64.2771 96.2826,65.2871 94.8551,65.9087 94.5437,65.9926 94.5877,66.0579 94.8668,66.6059 95.2379,67.5477 95.4273,68.2069 95.5817,68.9328 95.6894,69.6993 95.7369,70.229 95.771,71.099 95.7641,71.6472 95.6369,73.6232 95.5879,74.0774 95.2744,76.1444 96.3179,74.8137 96.9423,74.1454 99.0315,72.2644 100.842,71.1956 102.9,70.4822 106.116,70.4007 107.808,71.2438 108.517,71.7734 108.117,70.4766 107.9,69.3571 107.636,66.1954 107.622,65.9736 107.478,62.4924 107.187,59.4568 106.715,57.7128 " fill="none" stroke-width="0.5" stroke="rgb(0,0,0)" />
	<polygon points="145.472,69.4632 145.188,69.7116 144.318,70.3275 144.146,70.4252 147.39,73.0732 147.576,73.2323 148.118,73.7184 147.641,72.6079 147.555,72.394 146.165,68.7271 " fill="none" stroke-width="0.5" stroke="rgb(0,0,0)" />
	<polygon points="399.286,59.2932 399.283,60.2811 398.983,63.3785 399.122,63.2512 399.334,63.091 400.181,62.5684 400.418,62.4513 401.322,62.1038 401.576,62.032 402.528,61.8547 402.79,61.8303 405.217,62.1737 406.326,62.6091 407.782,63.4699 409.16,64.6177 409.463,64.8905 411.099,66.4809 412.898,68.1694 414.784,69.684 416.737,70.8701 418.742,71.6243 421.119,71.9242 421.521,71.9053 422.274,71.791 422.985,71.5829 423.536,71.3104 423.909,71.0074 424.205,70.598 424.495,69.8088 424.598,68.8356 424.001,66.8557 422.031,64.8209 418.213,62.5622 413.289,60.522 408.077,58.7941 403.38,57.3508 403.13,57.2675 399.768,56.0491 398.949,55.5746 " fill="none" stroke-width="0.5" stroke="rgb(0,0,0)" />
	<polygon points="84.6593,60.3804 84.2523,60.8848 81.9083,63.4505 83.5872,62.8472 84.5297,62.6036 85.5747,62.4338 85.4845,62.262 85.3741,61.9614 85.0794,60.7019 85.0403,60.3398 85.084,59.7829 " fill="none" stroke-width="0.5" stroke="rgb(0,0,0)" />
	<polygon points="54.179,62.3717 54.8889,61.428 53.6394,61.3427 " fill="none" stroke-width="0.5" stroke="rgb(0,0,0)" />
	<polygon points="161.967,44.9882 161.92,45.4064 161.592,46.736 161.459,47.0783 160.741,48.3602 160.534,48.6329 159.57,49.608 159.302,49.8172 159.176,49.8951 160.218,50.1716 160.566,50.2765 163.944,51.425 164.089,51.4768 167.621,52.7934 167.625,52.7948 171.08,54.0858 173.221,54.8192 170.737,52.0417 166.933,48.2062 163.033,44.3307 162.9,44.1939 161.664,42.873 " fill="none" stroke-width="0.5" stroke="rgb(0,0,0)" />
	<polygon points="143.174,50.2865 143.887,52.1639 144.792,54.2601 144.854,54.3994 145.249,53.5255 145.645,52.8385 146.392,51.8371 146.919,51.2817 147.977,50.4216 148.44,50.1351 147.417,49.8542 145.832,49.4318 144.383,49.0958 143.153,48.889 142.774,48.8635 " fill="none" stroke-width="0.5" stroke="rgb(0,0,0)" />
	<polygon points="92.1592,46.7821 90.4122,47.0393 88.5474,47.3504 86.968,47.6172 87.7733,48.8702 88.2275,52.3519 89.0382,51.2569 89.1527,51.1078 90.8716,48.9506 92.5023,46.8654 92.5932,46.7352 " fill="none" stroke-width="0.5" stroke="rgb(0,0,0)" />
	<polygon points="445.404,38.0361 445.359,38.1711 444.7,40.0404 444.088,41.8827 443.6,43.6793 443.279,45.4789 443.161,47.354 443.206,48.0398 443.312,48.5351 443.426,48.8138 443.496,48.9181 443.535,48.9542 443.662,49.025 444.057,49.1398 444.699,49.1945 445.072,49.142 445.101,49.1134 445.359,48.6681 445.688,47.7118 445.964,46.3101 446.133,44.5776 446.187,42.6191 446.154,41.0038 446.065,39.455 445.937,37.9809 445.808,36.7815 " fill="none" stroke-width="0.5" stroke="rgb(0,0,0)" />
</svg>
