<?xml version="1.0" standalone="no" ?>
<!DOCTYPE svg PUBLIC "-//W3C//DTD SVG 1.1//EN" "http://www.w3.org/Graphics/SVG/1.1/DTD/svg11.dtd">
<svg width="500px" height="500px" xmlns="http://www.w3.org/2000/svg" version="1.1" >
	<polygon points="462.873,280.782 462.1,294.551 459.804,309.05 455.898,324.467 450.354,340.464 443.157,356.725 434.303,372.947 423.793,388.841 411.629,404.129 397.813,418.544 382.343,431.834 365.206,443.753 346.375,454.065 325.805,462.532 303.435,468.912 279.189,472.947 252.977,474.358 227.447,473.027 203.709,469.207 181.724,463.148 161.438,455.085 142.808,445.236 125.801,433.817 110.402,421.039 96.6074,407.12 84.4234,392.287 73.8604,376.775 64.9301,360.83 57.6425,344.707 52.0027,328.673 48.0079,313.005 45.6424,297.993 44.8405,283.413 44.8405,37.3885 50.0116,37.3488 61.5033,37.2606 61.5033,37.2606 72.995,37.1724 84.4866,37.0843 95.9783,36.9961 95.9783,36.9961 107.47,36.9079 118.962,36.8197 130.453,36.7316 141.945,36.6434 187.912,36.2907 187.912,36.2907 192.772,36.2534 192.757,43.9271 192.731,56.8258 192.706,69.7246 192.706,69.7246 192.68,82.6234 192.629,108.421 192.629,108.421 192.604,121.32 192.553,147.117 192.553,147.117 192.528,160.016 192.502,172.915 192.502,172.915 192.477,185.814 192.451,198.713 192.426,211.611 192.426,211.611 192.4,224.51 192.401,224.684 192.488,235.979 192.49,236.113 192.654,246.93 192.659,247.174 192.956,257.48 192.971,257.854 193.456,267.616 193.49,268.144 194.218,277.328 194.289,278.043 195.316,286.616 195.454,287.561 196.835,295.489 197.092,296.712 198.881,303.962 199.338,305.511 201.592,312.05 202.372,313.951 205.146,319.745 206.408,321.961 209.757,326.977 211.649,329.349 215.628,333.554 218.175,335.781 222.84,339.141 225.843,340.889 231.249,343.37 234.333,344.458 240.536,346.027 243.357,346.506 250.411,347.13 251.947,329.779 253.146,347.157 260.406,346.657 263.242,346.232 269.589,344.754 272.748,343.701 278.243,341.283 281.365,339.518 286.071,336.196 288.734,333.893 292.713,329.704 294.678,327.231 297.991,322.212 299.28,319.908 301.989,314.095 302.766,312.137 304.934,305.567 305.375,303.993 307.063,296.703 307.302,295.479 308.574,287.506 308.697,286.577 309.613,277.957 309.673,277.268 310.295,268.039 310.322,267.547 310.713,257.744 310.723,257.413 310.946,247.074 310.949,246.879 311.064,236.039 311.065,235.96 311.135,224.657 311.135,224.51 311.109,211.611 311.083,198.712 311.057,185.813 311.032,172.914 311.032,172.914 311.006,160.016 310.954,134.218 310.954,134.218 310.928,121.319 310.851,82.6229 310.851,82.6228 310.825,69.724 310.757,35.9996 316.393,35.9634 328.146,35.8878 339.9,35.8122 351.653,35.7367 363.406,35.6611 375.159,35.5855 386.913,35.51 410.419,35.3589 422.172,35.2833 433.926,35.2077 445.679,35.1322 457.432,35.0566 462.873,35.0216 " fill="none" stroke-width="0.5" stroke="rgb(0,0,0)" />
</svg>
