<?xml version="1.0" standalone="no" ?>
<!DOCTYPE svg PUBLIC "-//W3C//DTD SVG 1.1//EN" "http://www.w3.org/Graphics/SVG/1.1/DTD/svg11.dtd">
<svg width="500px" height="500px" xmlns="http://www.w3.org/2000/svg" version="1.1" >
	<polygon points="464.473,280.827 463.693,294.721 461.373,309.373 457.432,324.926 451.844,341.051 444.593,357.433 435.675,373.773 425.089,389.782 412.835,405.182 398.915,419.708 383.324,433.101 366.049,445.115 347.066,455.51 326.331,464.046 303.787,470.476 279.364,474.539 252.979,475.96 227.278,474.62 203.368,470.772 181.214,464.668 160.767,456.54 141.985,446.612 124.841,435.1 109.32,422.22 95.4184,408.194 83.1414,393.247 72.4986,377.618 63.5005,361.552 56.156,345.303 50.4698,329.137 46.4391,313.328 44.0492,298.162 43.2405,283.457 43.2405,35.8007 49.9993,35.7488 61.491,35.6607 72.9827,35.5725 84.4744,35.4843 95.966,35.3961 107.458,35.3079 118.949,35.2198 130.441,35.1316 141.933,35.0434 153.424,34.9552 164.916,34.8671 176.408,34.7789 187.899,34.6907 194.375,34.641 194.356,43.9302 194.306,69.7278 194.306,69.7278 194.28,82.6266 194.229,108.424 194.229,108.424 194.204,121.323 194.153,147.121 194.153,147.121 194.128,160.019 194.102,172.918 194.102,172.918 194.077,185.817 194.051,198.716 194.026,211.615 194.026,211.615 194,224.513 194.001,224.672 194.088,235.966 194.089,236.089 194.254,246.906 194.259,247.128 194.556,257.434 194.569,257.774 195.054,267.536 195.085,268.017 195.813,277.201 195.878,277.853 196.904,286.426 197.031,287.287 198.411,295.215 198.645,296.328 200.435,303.579 200.851,304.989 203.105,311.528 203.815,313.26 206.589,319.054 207.739,321.073 211.088,326.089 212.811,328.249 216.79,332.454 219.11,334.483 223.775,337.842 226.51,339.435 231.917,341.916 234.726,342.907 240.929,344.476 243.498,344.912 250.552,345.536 251.947,329.779 253.035,345.561 260.296,345.06 262.879,344.673 269.226,343.196 272.103,342.237 277.599,339.819 280.442,338.211 285.148,334.889 287.574,332.791 291.553,328.603 293.343,326.35 296.656,321.331 297.83,319.232 300.539,313.419 301.246,311.635 303.414,305.066 303.816,303.632 305.505,296.342 305.722,295.227 306.994,287.254 307.106,286.407 308.022,277.788 308.076,277.161 308.699,267.931 308.723,267.483 309.115,257.68 309.124,257.379 309.346,247.039 309.349,246.862 309.464,236.022 309.465,235.95 309.535,224.647 309.535,224.513 309.509,211.614 309.457,185.816 309.432,172.918 309.432,172.918 309.406,160.019 309.354,134.221 309.354,134.221 309.328,121.322 309.251,82.6261 309.251,82.626 309.225,69.7272 309.154,34.4099 316.383,34.3634 328.136,34.2878 339.889,34.2123 351.643,34.1367 363.396,34.0611 375.149,33.9856 386.902,33.91 410.409,33.7589 422.162,33.6833 433.915,33.6078 445.669,33.5322 457.422,33.4567 464.473,33.4113 " fill="none" stroke-width="0.5" stroke="rgb(0,0,0)" />
</svg>
