<?xml version="1.0" standalone="no" ?>
<!DOCTYPE svg PUBLIC "-//W3C//DTD SVG 1.1//EN" "http://www.w3.org/Graphics/SVG/1.1/DTD/svg11.dtd">
<svg width="500px" height="500px" xmlns="http://www.w3.org/2000/svg" version="1.1" >
	<polygon points="463.373,280.796 462.598,294.604 460.294,309.151 456.377,324.61 450.819,340.647 443.606,356.946 434.732,373.205 424.198,389.135 412.006,404.458 398.158,418.908 382.65,432.23 365.47,444.179 346.591,454.516 325.969,463.005 303.545,469.401 279.243,473.444 252.978,474.859 227.394,473.525 203.602,469.696 181.565,463.623 161.229,455.539 142.551,445.666 125.501,434.218 110.064,421.408 96.2358,407.456 84.0228,392.587 73.4348,377.039 64.4833,361.055 57.178,344.893 51.5237,328.818 47.5177,313.106 45.1445,298.046 44.3405,283.426 44.3405,36.8923 50.0078,36.8488 61.4995,36.7606 72.9911,36.6724 84.4828,36.5843 95.9745,36.4961 107.466,36.4079 118.958,36.3197 130.45,36.2316 141.941,36.1434 153.433,36.0552 164.925,35.967 187.908,35.7907 193.273,35.7495 193.257,43.928 193.231,56.8268 193.206,69.7256 193.206,69.7256 193.18,82.6244 193.129,108.422 193.129,108.422 193.104,121.321 193.053,147.118 193.053,147.118 193.028,160.017 193.002,172.916 193.002,172.916 192.977,185.815 192.951,198.714 192.926,211.612 192.9,224.511 192.901,224.68 192.988,235.975 192.99,236.105 193.154,246.922 193.159,247.16 193.456,257.466 193.47,257.829 193.955,267.591 193.988,268.104 194.716,277.288 194.786,277.984 195.812,286.557 195.947,287.475 197.327,295.404 197.577,296.592 199.367,303.842 199.811,305.348 202.065,311.887 202.823,313.735 205.597,319.529 206.824,321.684 210.173,326.7 212.012,329.006 215.991,333.21 218.467,335.375 223.133,338.735 226.051,340.434 231.458,342.916 234.456,343.973 240.659,345.542 243.401,346.008 250.455,346.632 251.947,329.779 253.111,346.659 260.372,346.158 263.128,345.745 269.475,344.267 272.546,343.244 278.042,340.825 281.077,339.109 285.782,335.788 288.372,333.549 292.35,329.36 294.261,326.956 297.574,321.937 298.827,319.696 301.536,313.884 302.291,311.98 304.459,305.411 304.888,303.88 306.576,296.591 306.809,295.4 308.08,287.427 308.2,286.524 309.116,277.904 309.174,277.235 309.797,268.005 309.822,267.527 310.214,257.724 310.224,257.403 310.446,247.063 310.449,246.873 310.564,236.034 310.565,235.956 310.635,224.654 310.635,224.511 310.609,211.612 310.583,198.713 310.557,185.814 310.532,172.915 310.532,172.915 310.506,160.017 310.454,134.219 310.454,134.219 310.428,121.32 310.351,82.6239 310.351,82.6238 310.325,69.725 310.256,35.5028 316.39,35.4634 316.39,35.4634 328.143,35.3878 339.896,35.3122 351.65,35.2367 363.403,35.1611 375.156,35.0856 386.909,35.01 410.416,34.8589 422.169,34.7833 433.923,34.7078 445.676,34.6322 457.429,34.5566 463.373,34.5184 " fill="none" stroke-width="0.5" stroke="rgb(0,0,0)" />
</svg>
