<?xml version="1.0" standalone="no" ?>
<!DOCTYPE svg PUBLIC "-//W3C//DTD SVG 1.1//EN" "http://www.w3.org/Graphics/SVG/1.1/DTD/svg11.dtd">
<svg width="500px" height="500px" xmlns="http://www.w3.org/2000/svg" version="1.1" >
	<polygon points="480.823,17.5275 480.823,26.1936 480.328,26.5413 479.453,27.3741 478.724,28.2864 478.141,29.238 477.706,30.1721 477.423,31.0138 477.284,31.6593 477.256,31.997 477.407,33.986 477.846,36.1165 478.546,38.5861 479.404,41.441 479.445,41.5832 480.314,44.8345 480.381,45.1241 480.823,47.3134 480.823,69.0657 480.765,69.5398 480.422,70.8222 477.061,78.7758 476.349,79.9535 471.034,86.4254 470.136,87.2691 463.103,92.3534 462.242,92.8486 453.726,96.6394 453.005,96.8935 443.24,99.4848 442.665,99.6004 431.887,101.086 431.429,101.127 419.874,101.602 419.629,101.605 416.342,101.573 416.249,101.571 412.916,101.473 412.824,101.469 409.455,101.305 409.365,101.3 405.968,101.071 405.879,101.064 402.463,100.77 402.374,100.762 398.948,100.402 398.859,100.392 395.432,99.9673 395.342,99.9552 391.924,99.4655 391.858,99.4556 391.383,99.3809 390.981,99.3 390.596,99.205 389.99,99.0124 389.686,98.8931 388.849,98.4654 388.618,98.3175 387.668,97.5173 387.503,97.3366 386.746,96.2322 386.638,96.0145 386.256,94.9448 386.197,94.6861 386.086,93.9015 386.068,93.5974 386.632,91.458 384.991,93.3086 384.275,93.9675 378.098,98.5888 377.308,99.0686 370.36,102.421 369.535,102.729 362.036,104.77 361.197,104.92 353.366,105.61 352.585,105.615 347.29,105.217 346.613,105.117 343.873,104.511 344.964,105.011 345.441,105.376 346.606,106.667 346.947,107.221 347.422,108.243 347.651,108.94 347.819,109.612 347.957,110.409 348.012,110.831 348.083,111.681 348.098,111.936 348.124,112.794 348.126,112.919 348.13,113.74 348.123,114.018 347.972,116.85 347.928,117.293 347.463,120.451 347.383,120.868 346.901,122.886 347.225,122.932 349.11,124.637 349.858,125.809 350.141,126.318 350.803,127.699 350.966,128.083 351.537,129.6 351.64,129.907 352.116,131.488 352.187,131.753 352.564,133.327 352.617,133.579 352.891,135.074 352.933,135.346 353.1,136.689 353.131,137.04 353.187,138.16 353.172,138.856 352.545,145.456 352.342,146.454 351.315,149.694 351.66,149.461 352.789,148.849 353.656,148.484 354.905,148.097 355.845,147.906 357.186,147.771 358.148,147.771 359.487,147.906 360.428,148.097 361.676,148.484 362.542,148.849 363.672,149.461 364.437,149.978 365.421,150.789 366.069,151.437 366.881,152.42 367.239,152.951 367.354,152.559 367.397,152.443 367.815,151.591 367.866,151.508 368.664,150.535 368.722,150.481 369.954,149.643 370.016,149.613 371.415,149.198 371.48,149.189 373.975,149.513 374.445,149.708 375.21,150.111 375.959,150.596 376.935,151.195 378.186,151.833 379.869,152.486 382.096,153.079 384.967,153.518 388.614,153.693 390.589,153.634 392.674,153.47 394.889,153.228 397.264,152.941 397.293,152.937 399.826,152.647 399.926,152.637 402.635,152.384 402.789,152.372 405.719,152.193 405.91,152.186 409.107,152.118 409.639,152.136 416.972,152.796 417.902,152.973 424.321,154.87 425.207,155.232 430.893,158.243 431.599,158.7 436.73,162.702 437.212,163.132 441.969,168.002 442.261,168.329 446.823,173.943 446.977,174.142 451.524,180.377 451.579,180.453 455.692,186.332 458.181,187.797 458.193,187.804 462.255,190.211 462.487,190.358 466.876,193.311 467.264,193.602 471.633,197.232 472.132,197.711 476.134,202.153 476.664,202.865 479.952,208.251 480.394,209.188 480.823,210.434 480.823,237.921 480.058,239.93 479.711,240.653 476.191,246.644 475.954,247.01 471.769,252.845 471.71,252.926 467.941,257.957 468.575,257.571 470.084,256.973 473.015,256.355 474.502,256.278 475.971,256.431 477.083,256.683 478.342,257.131 479.458,257.702 480.512,258.43 480.823,258.709 480.823,281.286 480.535,286.42 479.358,288.722 479.121,289.135 476.928,292.541 476.625,292.96 474.047,296.149 473.66,296.574 470.701,299.448 467.944,300.769 467.821,300.744 467.943,300.874 470.269,303.919 470.709,304.61 472.625,308.278 472.907,308.933 474.351,313.112 474.522,313.743 475.433,318.325 475.516,318.95 475.576,319.884 473.11,329.62 467.07,347.047 459.604,363.915 455.918,367.556 453.171,368.9 450.17,368.313 447.815,364.961 446.68,358.407 444.324,354.688 440.703,351.868 435.905,349.463 430.694,347.143 430.218,346.899 425.588,344.185 424.413,343.216 421.141,339.499 420.067,337.407 418.826,332.034 418.722,330.521 418.855,329.052 417.314,330.08 416.05,330.428 415.292,330.572 413.505,330.766 413.337,330.781 411.365,330.925 410.427,331.023 410.538,331.728 410.786,333.121 411.042,334.543 411.054,334.618 411.278,335.987 411.304,336.168 411.463,337.437 411.493,337.776 411.553,338.905 411.558,339.298 411.548,339.632 411.525,339.982 411.491,340.316 411.415,340.806 411.348,341.128 411.157,341.798 411.049,342.093 410.625,342.967 410.468,343.221 410.121,343.644 411.586,343.47 412.562,343.453 417.909,343.909 418.717,344.048 424.012,345.435 424.821,345.727 429.859,348.072 430.658,348.543 435.236,351.875 435.978,352.544 439.892,356.891 440.503,357.741 443.551,363.132 443.963,364.089 445.94,370.552 446.13,371.511 446.834,379.073 446.794,380.28 445.454,388.628 438.331,399.399 425.161,415.952 410.17,431.593 405.325,435.755 403.53,435.965 402.014,435.71 400.761,435.316 399.268,434.611 398.431,434.105 397.016,433.04 396.44,432.529 395.158,431.193 394.728,430.677 393.635,429.162 393.285,428.598 392.436,426.992 392.138,426.304 391.588,424.698 391.369,423.757 391.173,422.242 391.143,421.328 391.173,420.855 391.271,420.145 391.378,419.644 391.632,418.827 391.846,418.306 392.133,417.76 389.137,417.441 388.27,417.267 384.71,416.202 384.032,415.942 380.693,414.363 380.142,414.056 377.145,412.12 376.661,411.763 375.844,411.076 376.155,412.683 376.243,413.597 376.243,417.615 376.242,417.728 376.225,418.451 376.211,418.718 376.154,419.433 376.116,419.77 376.01,420.468 375.954,420.756 379.343,419.842 380.913,420.026 381.924,420.257 383.557,420.822 384.455,421.241 386.067,422.207 386.851,422.794 388.358,424.181 389.001,424.907 390.318,426.736 390.791,427.55 391.836,429.842 392.127,430.677 392.816,433.451 392.943,434.245 393.191,437.522 393.133,438.714 392.019,445.067 391.584,446.386 390.904,447.744 374.668,459.037 354.126,470.285 331.702,479.516 331.087,479.692 330.835,479.69 327.269,479.377 326.378,479.212 323.26,478.326 322.367,477.973 319.704,476.596 318.882,476.058 316.683,474.272 315.991,473.582 314.265,471.469 313.737,470.671 312.494,468.312 312.14,467.446 311.387,464.923 311.209,464.014 310.957,461.409 310.944,460.632 311.186,456.947 311.258,456.372 311.93,452.808 312.05,452.315 313.073,448.909 313.219,448.492 314.201,446.064 314.13,446.093 313.413,446.331 312.662,446.515 311.923,446.637 311.353,446.685 311.026,447.635 309.87,451.746 309.825,451.897 308.315,456.659 308.146,457.113 306.112,461.818 305.677,462.611 302.91,466.684 301.875,467.785 298.167,470.65 296.276,471.537 291.418,472.62 289.892,472.711 287.872,472.507 289.316,472.73 292.838,472.908 295.378,472.881 297.293,472.807 298.626,472.709 299.547,472.602 300.287,472.489 300.982,472.379 301.205,472.349 301.921,472.27 302.282,472.244 303.146,472.214 303.696,472.226 304.566,472.296 305.512,472.468 306.181,472.661 307.29,473.138 307.784,473.43 308.835,474.268 309.18,474.633 309.921,475.66 310.143,476.074 310.527,477.018 310.653,477.457 310.801,478.172 310.857,478.611 310.893,479.072 310.906,479.486 310.742,480.888 310.345,482.361 309.474,484.088 308.295,485.577 307.397,486.448 307.382,486.452 281.151,490.817 272.997,491.256 272.105,490.918 271.416,490.592 269.246,489.347 268.599,488.902 266.773,487.41 266.198,486.855 264.72,485.167 264.519,484.894 261.289,486.54 261.019,486.667 256.854,488.472 256.574,488.583 252.149,490.18 251.849,490.277 247.219,491.612 246.89,491.694 245.682,491.952 225.548,490.902 199.887,486.773 191.221,484.385 185.926,481.107 185.672,480.939 180.91,477.555 176.822,474.684 173.365,472.739 170.898,472.029 167.577,471.7 163.379,471.467 163.087,471.442 158.335,470.886 157.702,470.769 152.491,469.435 151.7,469.157 146.023,466.585 145.266,466.155 139.113,461.883 138.51,461.386 131.873,454.953 130.47,452.236 130.992,449.223 132.32,447.984 127.262,448.439 126.314,448.43 115.549,447.262 114.535,447.039 113.006,446.525 98.2672,434.295 83.2685,419.161 74.6067,408.616 74.5657,408.497 74.341,407.529 73.4936,400.746 73.4717,399.769 73.8812,394.641 74.004,393.881 74.4446,392.082 73.2373,393.644 70.2857,394.442 67.1312,392.996 65.2305,391.041 61.8203,388.67 58.8353,386.602 58.5824,386.23 48.8916,368.927 40.9666,351.394 36.6348,339.079 37.3985,331.864 37.5877,330.946 40.556,321.385 40.8293,320.698 45.0259,312.128 45.2713,311.688 48.4108,306.686 47.7831,307.338 47.0788,307.941 44.8652,309.491 43.3644,310.194 41.248,310.766 38.554,310.711 36.5849,310.091 34.6317,308.907 32.8132,307.089 32.0059,306.016 30.3724,303.06 30.044,302.326 28.6301,298.293 28.4817,297.78 27.3928,293.039 26.8905,283.906 26.8905,252.67 27.3008,249.695 27.3525,249.392 28.5446,243.542 28.6406,243.154 30.0868,238.206 30.2928,237.637 31.9545,233.819 32.5115,232.86 34.35,230.401 36.2597,228.882 38.2363,228.012 40.5929,227.623 41.1331,227.671 42.1199,227.864 42.5683,228.002 43.6458,228.484 44.0083,228.704 44.9776,229.478 45.2604,229.772 45.9519,230.686 46.1612,231.045 46.5581,231.915 46.7,232.332 46.886,233.061 46.9667,233.528 47.0309,234.105 47.0563,234.611 47.49,232.466 47.5941,232.048 49.3266,226.226 49.748,225.234 50.4207,224.043 50.2498,224.143 49.9179,224.319 47.2289,225.613 46.8041,225.793 44.2767,226.722 43.7296,226.887 41.3698,227.448 40.6709,227.561 38.485,227.749 37.5167,227.734 34.9804,227.437 33.7516,227.125 31.5197,226.23 30.3466,225.554 28.4296,224.053 27.5534,223.16 26.8905,222.279 26.8905,198.845 28.4644,198.861 30.2099,200.172 30.093,199.954 29.1808,197.767 28.9275,196.97 28.3548,194.418 28.2495,193.695 28.0509,190.789 28.0398,190.457 28.0401,190.13 28.0402,190.101 28.0425,189.775 28.0433,189.716 28.0497,189.39 28.0522,189.302 28.0645,188.975 28.0703,188.858 28.0907,188.531 28.1018,188.386 28.1322,188.058 28.1511,187.887 28.1935,187.558 28.2228,187.363 28.2791,187.033 29.251,185.226 29.2057,185.181 28.7714,184.673 28.3126,184.038 27.9743,183.479 27.5846,182.674 27.3649,182.086 27.1026,181.033 27.0244,180.438 26.9862,179.644 26.9954,179.383 27.0181,179.054 27.045,178.796 27.0892,178.476 27.1331,178.221 27.1979,177.908 27.258,177.66 27.3436,177.351 27.4192,177.11 27.5268,176.804 27.6172,176.572 27.7488,176.267 27.8532,176.045 27.9203,175.916 28.4067,174.577 28.8876,172.047 29.5203,168.442 29.5775,168.165 30.5536,164.048 30.706,163.534 32.2781,159.152 32.5857,158.467 35.0123,154.035 35.5278,153.275 39.0672,149.007 39.7821,148.308 42.8098,145.91 41.9128,145.975 41.1223,145.966 38.3889,145.711 37.49,145.539 34.9546,144.799 34.0889,144.452 31.8026,143.265 31.009,142.748 29.0233,141.154 28.339,140.482 26.8905,138.742 26.8905,116.413 27.7346,115.261 28.215,114.702 29.8112,113.108 30.3718,112.628 32.2912,111.226 32.9021,110.847 35.155,109.672 38.1753,109.195 40.8709,110.638 41.5713,112.863 41.7202,111.29 41.8918,110.394 42.5404,108.177 42.8795,107.328 43.9174,105.311 44.4169,104.534 44.5882,104.317 41.7389,105.431 40.8631,105.681 36.8381,106.424 35.6802,106.495 34.9879,106.454 34.3416,106.371 33.7081,106.245 32.9552,106.031 32.3909,105.82 31.5516,105.408 31.0668,105.108 30.2187,104.441 29.8236,104.051 29.101,103.139 28.8061,102.656 28.3296,101.615 28.145,101.038 27.9382,100.029 27.8744,99.3553 28.0888,97.4164 29.3723,93.4747 29.9332,92.3123 33.3168,87.1979 33.6029,86.8094 36.5372,83.2178 35.756,83.6193 34.6811,84.0178 32.5556,84.5274 30.695,84.6021 30.0962,84.5084 28.5778,84.0008 28.0846,83.7376 26.9053,82.8513 26.8905,82.8362 26.8905,65.6978 27.0014,65.475 27.2924,64.9697 27.9485,63.9754 28.4791,63.3086 29.1825,62.57 29.7742,62.0435 30.7541,61.3068 31.4016,60.8967 32.6118,60.2593 33.0555,60.0575 32.6354,60 28.7562,59.1797 26.8905,58.1438 26.8905,46.2045 28.7162,44.4177 29.2376,43.9755 33.1283,41.1263 33.3617,40.9658 37.8217,38.0877 37.8853,38.0474 42.2971,35.2974 44.3945,33.92 43.9048,33.7756 39.7085,32.7369 39.6831,32.7305 35.3837,31.6413 35.1201,31.5665 31.3695,30.3849 30.6459,30.0902 27.9931,28.7488 26.8905,27.7535 26.8905,19.5757 38.3822,19.4875 49.8739,19.3993 61.3656,19.3111 72.8572,19.223 75.6448,19.2016 77.2303,20.1135 79.0461,21.967 80.0165,23.7373 80.3066,27.7174 79.5025,29.8799 78.4297,31.5689 76.31,33.7293 75.687,34.264 72.6902,36.4202 72.4331,36.5928 68.9977,38.7426 68.9905,38.7472 65.6787,40.8114 63.8523,42.1099 66.0791,42.523 70.6828,43.0031 73.1436,43.2387 72.8729,42.3823 72.8097,41.9565 73.4125,38.8308 74.1709,37.5319 75.8575,35.8297 77.8569,34.6374 78.4939,34.319 81.3207,33.1596 81.4751,33.0993 84.6466,31.9248 87.5892,30.7311 89.6983,29.6102 89.7995,29.5209 89.3487,29.3177 88.0671,28.8864 88.0502,28.8807 86.7359,28.433 86.0057,28.1143 85.076,27.6131 83.1099,25.63 82.7573,24.9624 82.7259,20.5392 83.0169,19.9687 83.7699,19.1392 84.3489,19.1348 95.8406,19.0466 107.332,18.9584 111.475,18.9266 111.867,19.2304 112.497,19.8172 114.112,21.6158 114.227,21.7478 115.536,23.3167 116.511,24.2274 117.358,24.6637 118.804,24.8717 120.19,24.6733 121.082,24.2282 122.131,23.3055 123.521,21.7725 123.645,21.6411 125.34,19.9063 125.959,19.3729 126.737,18.8095 130.316,18.7821 141.807,18.6939 152.668,18.6106 153.581,19.4826 153.82,19.8747 154.101,24.3389 153.733,25.1579 152.116,27.1187 151.147,27.8003 150.408,28.2275 149.038,28.8639 148.931,28.912 147.519,29.5265 146.47,30.0758 146.409,30.1225 146.817,30.5658 148.785,32.0255 151.445,33.6875 154.268,35.394 154.463,35.5186 156.952,37.1922 157.533,37.6521 158.731,38.7606 157.102,36.5908 156.413,35.3034 155.497,32.7025 155.711,29.0028 156.764,26.8456 158.27,25.058 161.184,22.9559 162.029,22.4683 166.438,20.4931 166.934,20.3031 172.471,18.5263 172.72,18.4567 176.282,18.4294 187.774,18.3412 209.96,18.171 210.754,19.6701 210.749,22.412 210.55,23.9621 209.674,25.5732 208.13,27.2675 205.779,28.8433 205.108,29.2192 201.698,30.7832 201.436,30.894 198.269,32.1257 198.701,32.0609 198.975,32.0278 201.238,31.8208 201.52,31.8034 203.739,31.7316 203.948,31.7294 205.547,31.7472 205.81,31.7574 207.196,31.849 207.775,31.9229 208.947,32.1456 209.943,32.4502 210.729,32.7872 210.706,43.9624 210.687,53.8914 210.396,54.0702 208.724,54.7062 207.708,54.8873 206.204,54.9157 204.056,54.6166 203.233,54.4269 200.727,53.6114 200.23,53.4184 199.546,53.1082 203.407,57.0513 203.594,57.2542 208.146,62.473 208.535,62.9837 210.663,66.2073 210.656,69.76 210.633,81.3521 210.266,81.6553 209.536,82.1398 208.731,82.5705 207.861,82.9343 207.077,83.1856 206.074,83.4144 205.344,83.5226 204.215,83.602 203.392,83.5892 199.411,83.1839 198.83,83.0886 194.141,82.0199 193.849,81.9437 188.729,80.4329 188.59,80.3895 186.435,79.6821 187.357,80.1806 187.696,80.3821 192.237,83.3428 192.424,83.4709 197.309,86.9948 197.444,87.0961 202.247,90.8249 202.375,90.9273 206.67,94.5025 206.832,94.6439 210.194,97.7074 210.506,98.019 210.6,98.1217 210.579,108.456 210.556,120.07 209.913,120.796 208.955,121.625 207.791,122.389 206.167,123.069 204.899,123.342 201.552,122.842 199.227,121.546 198.193,120.771 194.678,117.302 194.386,116.987 190.142,111.975 189.985,111.779 185.475,105.852 185.352,105.682 181.148,99.6247 182.225,103.131 182.391,103.876 182.946,107.847 182.987,108.739 182.945,109.63 182.89,110.16 182.758,110.986 182.604,111.647 182.374,112.39 182.045,113.19 181.709,113.836 181.11,114.726 180.659,115.256 179.744,116.088 179.17,116.487 178.042,117.068 177.338,117.32 176.218,117.574 175.374,117.661 173.635,117.523 170.277,116.622 169.076,116.117 168.349,115.687 169.166,116.569 169.75,117.343 172.094,121.213 172.469,121.975 174.156,126.357 174.37,127.078 175.058,130.296 177.744,127.907 178.194,127.553 181.194,125.467 181.781,125.118 184.901,123.551 185.651,123.251 188.873,122.266 189.782,122.082 193.086,121.74 194.113,121.744 198.145,122.194 199.282,122.464 202.737,123.745 203.809,124.306 206.698,126.316 207.549,127.074 209.885,129.711 210.466,130.523 210.536,130.647 210.503,147.153 210.478,160.052 210.472,162.982 209.253,163.869 208.902,164.006 209.42,164.632 209.672,167.161 209.169,170.113 208.974,170.874 208.012,173.659 207.691,174.388 206.303,176.936 205.846,177.626 204.064,179.868 203.459,180.501 201.318,182.367 200.557,182.909 198.088,184.328 197.187,184.729 194.424,185.632 193.433,185.843 190.409,186.16 189.202,186.133 183.875,185.339 182.485,184.909 177.993,182.726 177.684,182.521 178.26,183.602 178.534,184.22 179.572,187.079 179.584,187.556 180.198,187.37 180.703,187.246 184.554,186.521 185.135,186.448 189.079,186.194 189.758,186.199 193.064,186.455 193.832,186.578 196.897,187.328 197.685,187.595 200.448,188.807 201.233,189.243 203.632,190.887 204.373,191.514 206.346,193.56 206.98,194.378 208.466,196.795 208.922,197.765 209.858,200.523 210.086,201.559 210.39,204.42 210.387,206.187 210.351,206.799 210.297,207.293 210.068,208.706 209.98,209.127 209.616,210.552 209.51,210.908 209.024,212.335 208.91,212.638 208.318,214.057 208.2,214.316 207.516,215.717 207.399,215.941 206.637,217.312 206.521,217.51 205.696,218.841 203.341,220.792 200.286,220.925 197.771,219.186 196.99,217.593 196.368,215.344 195.635,213.949 194.66,212.825 193.324,211.85 191.492,211.005 189.09,210.34 186.107,209.915 182.528,209.766 181.67,209.786 183.898,211.412 184.703,212.154 186.676,214.442 187.328,215.418 188.537,217.819 188.909,218.826 189.516,221.281 189.645,222.107 189.811,224.557 189.785,225.481 189.297,229.354 188.996,230.526 187.649,233.92 187.143,234.869 185.107,237.829 184.559,238.49 182.008,241.061 181.528,241.485 178.632,243.713 178.26,243.972 175.193,245.901 174.938,246.05 171.87,247.726 171.739,247.795 168.843,249.263 165.817,249.704 163.139,248.229 161.978,243.982 162.222,242.837 162.436,241.727 162.625,240.615 162.786,239.501 162.917,238.385 163.013,237.267 163.073,236.146 163.093,235.093 162.989,232.983 162.663,230.928 162.069,228.85 161.149,226.723 159.833,224.521 158.034,222.229 157.445,221.638 156.768,222.893 156.677,223.055 155.477,225.091 154.431,226.911 153.689,228.434 153.31,229.578 153.988,229.871 155.574,233.643 155.514,235.069 155.5,235.284 155.341,237.106 155.331,237.206 155.106,239.278 155.101,239.325 154.843,241.501 154.842,241.512 154.586,243.634 154.367,245.53 154.223,246.999 154.179,247.829 154.216,249.017 154.268,249.462 156.511,250.974 157.313,252.57 157.779,254.194 157.87,254.567 158.235,256.378 158.276,256.609 158.567,258.538 158.585,258.667 158.829,260.645 158.835,260.689 159.056,262.628 159.274,264.41 159.503,265.914 159.609,266.407 161.567,267.188 162.929,269.092 163.47,270.47 164.04,271.91 164.635,273.325 165.261,274.663 165.915,275.865 166.576,276.87 167.208,277.626 168.091,278.406 168.338,278.619 168.676,278.942 168.946,279.225 169.218,279.536 169.48,279.865 169.721,280.194 169.963,280.556 170.191,280.932 170.401,281.319 170.62,281.78 170.786,282.181 170.986,282.77 171.094,283.176 171.235,283.951 171.274,284.35 171.225,285.644 171.017,286.833 170.604,288.109 170.03,289.286 169.516,290.115 168.652,291.235 168.145,291.795 167.066,292.813 166.562,293.227 165.344,294.097 164.797,294.435 163.515,295.113 162.842,295.405 161.572,295.844 160.632,296.067 159.449,296.223 158.421,296.248 158.064,296.219 157.254,296.081 156.848,295.975 156.042,295.686 155.595,295.48 154.869,295.064 154.39,294.731 153.794,294.241 153.294,293.757 152.841,293.253 152.327,292.593 152,292.115 151.484,291.254 151.255,290.825 150.888,290.043 150.586,289.581 149.764,288.718 148.354,287.427 146.669,285.944 146.614,285.895 144.92,284.357 144.734,284.179 143.649,283.083 143.986,283.594 150.527,292.976 150.612,293.103 156.349,301.914 156.618,302.384 160.675,310.487 161.08,311.646 162.619,318.952 162.704,320.366 162.451,323.206 162.308,324.018 161.558,326.832 161.278,327.608 160.041,330.289 159.608,331.039 157.894,333.475 157.285,334.183 155.104,336.268 154.304,336.886 151.668,338.509 150.704,338.964 147.621,340.018 146.578,340.249 144.47,340.474 144.689,340.504 145.255,340.616 147.997,341.333 148.632,341.547 151.223,342.628 151.863,342.953 154.323,344.444 154.896,344.852 157.246,346.798 157.71,347.237 159.969,349.683 160.316,350.104 162.505,353.094 162.819,353.582 164.592,356.745 164.839,357.254 166.277,360.721 166.404,361.064 167.579,364.651 167.64,364.849 168.627,368.369 168.643,368.427 169.5,371.635 170.255,374.202 170.835,375.677 170.942,375.831 171.001,375.855 171.295,375.944 171.653,376.021 172.042,376.077 172.431,376.11 172.82,376.121 173.323,376.115 173.866,376.097 174.417,376.071 174.975,376.039 175.53,376.006 175.554,376.005 176.088,375.976 176.154,375.973 176.659,375.952 176.775,375.949 177.249,375.941 177.981,375.985 178.502,376.056 175.355,373.313 174.766,372.7 170.14,366.937 169.673,366.239 166.227,359.948 165.877,359.142 163.726,352.598 163.516,351.641 162.774,345.119 162.745,344.419 162.804,342.635 162.826,342.307 163.005,340.543 163.058,340.167 163.364,338.489 163.474,338.021 163.913,336.497 164.138,335.878 164.717,334.576 165.198,333.735 165.921,332.721 166.945,331.673 167.821,331.015 169.643,330.172 170.676,329.938 172.231,329.845 173.139,329.939 174.194,330.17 174.358,330.226 173.231,329.072 172.661,328.365 169.096,322.967 168.625,322.056 166.326,316.122 166.041,315 165.226,308.666 165.193,307.797 165.362,304.639 165.416,304.13 165.909,301.083 166.015,300.589 166.81,297.665 166.965,297.195 168.042,294.406 168.238,293.966 169.577,291.324 169.809,290.917 171.389,288.435 171.651,288.063 173.451,285.751 173.74,285.414 175.74,283.285 178.164,281.985 175.947,280.48 175.46,280.102 171.346,276.457 170.588,275.604 167.677,271.419 166.939,269.749 165.836,264.923 165.901,262.528 167.043,258.554 167.959,256.819 170.968,253.183 171.642,252.516 175.896,249.065 176.164,248.863 181.009,245.465 185.653,242.091 189.323,238.796 191.482,235.746 192.256,232.467 192.252,232.371 192.166,231.613 192.011,230.71 191.789,229.724 191.506,228.705 191.17,227.701 190.793,226.758 190.306,225.746 189.927,222.712 191.457,220.065 194.275,218.878 197.142,219.574 200.488,221.627 200.876,221.891 203.943,224.214 204.305,224.517 207.042,227.049 207.389,227.405 209.743,230.086 210.082,230.519 210.4,230.978 210.438,235.84 210.602,246.657 210.899,256.963 210.944,257.86 210.826,258.053 210.53,258.486 208.221,261.492 208.114,261.627 205.876,264.335 204.15,266.631 203.238,268.336 203.018,269.454 203.249,270.639 204.027,271.902 205.642,273.535 207.944,275.474 208.027,275.546 210.497,277.724 210.941,278.171 212.613,280.09 213.138,284.482 214.519,292.41 215.374,295.876 214.027,299.17 213.776,299.692 212.123,302.655 213.514,301.587 216.572,301.567 217.102,301.964 218.563,306.2 221.336,311.994 224.685,317.011 228.665,321.215 233.33,324.575 238.737,327.056 244.939,328.626 245.2,328.649 246.662,330.582 247.155,331.389 248.664,334.514 248.964,335.306 249.878,338.567 250.013,339.225 250.464,342.594 250.503,343.062 250.624,346.51 250.609,347.096 250.406,349.415 252.283,343.305 252.635,342.457 257.241,333.817 257.742,333.061 261.697,328.161 265.518,327.271 271.013,324.853 275.719,321.532 279.698,317.343 282.905,312.483 289.765,310.321 288.02,310.063 285.879,307.88 285.707,306.539 285.72,306.511 287.205,302.011 288.151,301.12 289.178,300.032 290.041,298.943 290.754,297.809 291.333,296.565 291.784,295.123 292.086,293.391 292.203,291.231 292.174,290.193 292.09,289.082 291.965,287.921 291.811,286.685 291.81,286.678 291.651,285.388 291.641,285.3 291.503,283.974 291.489,283.815 291.391,282.432 291.38,282.215 291.343,280.756 291.351,280.343 291.406,279.421 291.603,277.569 291.873,276.237 292.097,275.468 292.617,274.115 293.041,273.272 293.741,272.165 294.41,271.331 295.274,270.47 296.168,269.769 297.18,269.154 298.199,268.688 299.342,268.319 300.349,268.109 301.608,267.986 302.886,268.032 305.162,268.423 306.532,268.878 308.549,269.906 309.376,270.442 311.185,271.896 311.587,272.258 313.239,273.926 313.348,274.04 314.812,275.618 315.611,276.397 315.146,274.556 313.421,272.569 310.04,270.296 305.54,267.818 305.371,267.72 300.686,264.886 300.044,264.421 295.957,260.913 295.019,259.824 292.794,256.282 293,246.688 293.115,235.848 293.132,233.182 294.115,230.766 294.207,230.554 295.576,227.606 295.665,227.425 297.298,224.263 299.068,222.548 298.616,222.3 297.864,221.789 296.386,220.564 295.75,219.928 294.526,218.45 294.016,217.697 293.168,216.153 293.159,211.647 293.143,203.61 294.015,202.019 294.525,201.269 295.748,199.788 296.383,199.153 297.861,197.926 298.612,197.415 300.302,196.485 301.165,196.115 303.024,195.526 303.57,195.412 303.23,195.227 302.471,194.713 301.436,193.858 300.793,193.215 299.937,192.179 299.423,191.42 298.776,190.233 298.409,189.368 298,188.058 297.805,187.112 297.662,185.709 297.663,184.735 297.805,183.333 298,182.386 298.41,181.078 298.777,180.213 299.424,179.027 299.938,178.268 300.794,177.233 301.436,176.59 302.472,175.735 303.231,175.222 304.417,174.575 305.281,174.208 306.589,173.799 307.535,173.605 308.935,173.462 309.907,173.462 311.314,173.605 312.257,173.798 313.57,174.207 314.434,174.572 314.706,174.72 314.764,174.142 314.956,173.201 315.342,171.956 315.706,171.091 316.317,169.965 316.779,169.28 315.383,169.108 315.014,169.047 312.809,168.599 312.48,168.519 310.632,168.005 310.366,167.923 309.043,167.47 308.729,168.258 308.592,168.568 308.094,169.602 307.463,170.582 306.874,171.291 304.576,172.818 303.827,173.045 300.553,172.869 299.068,172.237 297.681,171.337 296.268,170.026 295.573,169.219 294.272,167.318 293.905,166.683 293.066,164.931 293.056,160.052 293.005,134.818 293.92,133.028 294.154,132.621 295.249,130.913 297.634,128.999 298.02,128.988 297.869,128.586 297.805,128.407 297.573,127.706 297.514,127.517 297.306,126.792 297.253,126.592 297.074,125.847 297.027,125.631 296.881,124.869 296.842,124.636 296.732,123.863 296.703,123.61 296.634,122.828 296.618,122.553 296.594,121.767 296.609,121.215 296.86,118.272 296.995,117.478 297.764,114.502 298.045,113.709 299.359,110.831 299.815,110.041 301.701,107.393 302.36,106.646 304.845,104.358 305.695,103.733 308.806,101.937 309.777,101.511 312.533,100.652 312.384,100.257 312.227,99.7566 312.089,99.2158 312.022,98.9132 311.891,98.2119 311.847,97.9292 311.644,96.3207 311.423,94.6233 311.215,93.2904 310.707,93.7197 308.386,95.7709 308.355,95.7979 305.953,97.8845 305.802,98.0102 303.525,99.8303 303.138,100.109 301.152,101.396 300.001,101.941 298.471,102.429 296.977,102.657 296.74,102.655 296.474,102.646 296.282,102.633 295.566,102.534 295.416,102.501 294.094,102.002 293.98,101.938 292.937,101.043 292.918,91.5243 293.102,91.0964 293.245,90.7945 294.644,88.0798 294.701,87.9716 296.303,85.048 297.873,82.175 299.031,79.9069 298.39,79.8284 296.243,79.5978 295.939,79.5555 294.035,79.2271 293.039,78.9417 292.893,78.8822 292.875,69.76 292.867,65.7296 293.847,64.9831 294.04,64.8433 296.188,63.3703 298.167,61.9615 299.343,60.9604 298.99,60.7421 297.188,59.887 295.147,58.9663 294.849,58.8194 293.03,57.8429 292.851,57.7199 292.826,45.3074 292.827,45.3064 294.533,44.3412 294.672,44.2656 296.586,43.2645 298.338,42.3033 298.615,42.123 298.367,41.6752 296.758,39.1979 294.802,36.3314 294.784,36.3054 292.802,33.3588 292.797,31.0636 292.771,18.1648 296.215,18.1427 296.669,18.2106 297.814,18.5305 300.571,19.6853 300.915,19.8455 304.201,21.5381 304.299,21.5899 307.754,23.4719 310.946,25.1572 311.07,25.213 311.075,25.1164 311.101,24.0771 311.105,23.2267 311.108,23.0706 311.147,22.0134 311.178,21.6255 311.289,20.6906 311.361,20.2536 311.534,19.4467 311.672,18.9369 311.896,18.2638 311.987,18.0413 316.278,18.0137 324.702,17.9596 325.37,18.6541 326.477,19.77 327.236,20.4357 327.617,20.3857 329.394,19.872 331.871,18.9976 334.825,17.9418 334.967,17.8936 339.784,17.8626 351.538,17.787 363.291,17.7115 369.816,17.6695 370.565,17.9321 377.798,21.2515 378.637,21.7447 384.847,26.303 385.61,27.0017 390.666,32.7477 391.271,33.6116 395.043,40.4942 395.437,41.4388 396.936,46.5031 397.273,46.0794 398.873,44.7814 400.868,43.7802 401.454,43.5329 404.426,42.5064 404.74,42.4098 408.402,41.4196 408.625,41.3649 412.688,40.4728 412.889,40.4332 414.793,40.0993 412.369,38.2917 407.641,35.7939 403.121,34.0803 399.016,32.9126 395.613,32.0609 395.254,31.9563 392.96,31.1881 390.884,29.8119 390.056,28.8734 388.869,26.0555 390.016,22.5681 390.642,21.8401 392.234,20.6286 393.994,19.798 394.577,19.5683 397.296,18.6967 397.627,18.6034 401.128,17.7523 401.378,17.6985 402.66,17.4584 410.304,17.4092 422.057,17.3337 433.81,17.2581 433.935,17.2573 436.607,18.1416 437.379,18.4752 440.023,19.9031 440.981,20.5837 443.007,22.4354 443.956,23.6322 445.252,25.9465 445.802,27.5239 446.015,28.8313 446.067,28.2344 446.228,27.3521 446.896,24.9786 447.247,24.0858 448.319,21.9991 448.866,21.1622 450.308,19.3908 451.026,18.678 452.804,17.2506 452.983,17.1349 457.317,17.107 469.07,17.0314 479.339,16.9654 " fill="none" stroke-width="0.5" stroke="rgb(0,0,0)" />
	<polygon points="277.654,469.406 278.784,469.881 276.835,468.907 " fill="none" stroke-width="0.5" stroke="rgb(0,0,0)" />
	<polygon points="273.869,467.098 275.783,468.265 272.626,466.019 " fill="none" stroke-width="0.5" stroke="rgb(0,0,0)" />
	<polygon points="270.356,464.05 271.71,465.225 269.996,463.601 " fill="none" stroke-width="0.5" stroke="rgb(0,0,0)" />
	<polygon points="258.284,447.252 257.889,447.299 257.668,447.356 257.46,447.443 257.118,447.649 256.569,448.078 255.795,448.801 254.93,449.717 256.205,449.498 256.531,449.503 256.878,449.522 257.306,449.56 257.847,449.64 258.352,449.744 259.029,449.936 259.584,450.138 260.336,450.489 260.915,450.823 261.489,451.23 260.859,449.876 260.816,449.781 260.415,448.869 260.092,448.328 259.753,447.895 259.426,447.578 259.147,447.375 258.953,447.276 258.878,447.253 258.741,447.238 " fill="none" stroke-width="0.5" stroke="rgb(0,0,0)" />
	<polygon points="187.366,439.635 187.669,440.229 189.655,444.888 189.887,445.572 190.842,449.274 190.95,449.319 192.24,449.699 193.822,450.048 195.521,450.321 197.177,450.492 198.606,450.548 200.52,450.444 202.39,450.114 204.125,449.546 205.647,448.74 206.931,447.683 207.999,446.3 208.855,444.422 209.506,441.414 210.652,439.492 210.049,439.626 209.362,439.728 202.678,440.228 201.944,440.226 195.726,439.737 194.914,439.603 189.717,438.275 188.89,437.981 185.396,436.365 " fill="none" stroke-width="0.5" stroke="rgb(0,0,0)" />
	<polygon points="162.554,403.463 162.679,404.239 163.418,413.742 163.421,414.442 163.101,419.126 163.005,419.806 161.943,424.755 161.713,425.514 159.759,430.455 159.331,431.287 156.332,435.945 155.651,436.779 151.457,440.879 150.54,441.581 144.999,444.849 143.97,445.303 138.086,447.11 138.733,447.183 139.705,447.267 140.701,447.33 141.698,447.373 142.675,447.398 143.474,447.404 148.619,447.076 152.813,446.178 156.188,444.801 158.805,443.036 160.776,440.915 162.199,438.388 163.098,435.355 163.434,431.584 163.43,431.286 163.411,430.78 163.381,430.251 163.341,429.703 163.293,429.142 163.238,428.572 163.177,427.997 163.113,427.415 163.763,424.427 166.086,422.438 169.984,422.572 172.087,423.595 172.593,423.88 174.336,425.007 173.726,423.515 173.428,422.448 173.115,420.466 173.075,419.295 173.107,418.927 173.292,417.967 173.388,417.648 173.837,416.615 173.994,416.344 174.713,415.401 174.93,415.179 175.805,414.474 176.08,414.301 176.953,413.869 177.283,413.746 178.053,413.529 178.437,413.455 179.075,413.375 179.51,413.351 179.994,413.348 181.018,413.393 181.419,413.427 182.344,413.547 182.579,413.583 183.516,413.751 183.525,413.753 184.511,413.932 185.627,414.097 187.06,414.244 188.971,414.351 191.086,414.387 195.681,413.542 198.393,411.656 199.852,409.622 199.471,410.005 198.087,411.074 197.214,411.61 195.536,412.409 194.784,412.692 192.855,413.239 192.245,413.369 190.112,413.683 189.623,413.73 187.329,413.831 186.79,413.824 183.932,413.628 183.351,413.552 180.456,412.993 179.963,412.87 177.093,411.993 176.661,411.838 173.878,410.686 173.485,410.502 170.849,409.121 170.473,408.902 168.046,407.334 167.669,407.065 165.512,405.356 165.117,405.006 163.292,403.201 162.918,402.786 162.15,401.824 " fill="none" stroke-width="0.5" stroke="rgb(0,0,0)" />
	<polygon points="242.277,408.404 242.306,408.66 242.379,409.533 242.394,409.8 242.419,410.659 242.363,411.538 241.584,416.514 241.175,417.836 238.969,422.467 238.345,423.449 234.906,427.636 234.227,428.311 229.75,431.957 229.08,432.414 223.759,435.42 223.103,435.727 221.333,436.4 226.856,434.744 232.293,432.179 236.965,428.994 240.848,425.276 243.923,421.104 246.171,416.543 247.682,411.228 248.732,409.696 248.521,409.737 247.506,409.833 246.367,409.805 245.429,409.669 244.284,409.355 243.417,408.998 242.733,408.648 242.271,408.364 " fill="none" stroke-width="0.5" stroke="rgb(0,0,0)" />
	<polygon points="326.128,414.155 325.173,414.591 315.668,417.723 314.654,417.94 309.278,418.489 309.841,418.826 311.235,420.092 312.007,421.139 312.631,422.281 313.125,423.579 313.319,424.222 313.65,425.674 313.688,425.86 313.949,427.259 314.191,428.283 314.279,428.508 314.952,428.986 314.977,429.004 315.884,429.657 316.186,429.893 317.052,430.628 317.589,431.162 318.322,432.017 318.969,432.988 319.476,433.999 319.928,435.406 320.017,435.966 321.547,434.032 321.695,433.853 322.417,433.026 322.541,432.89 323.26,432.127 323.433,431.953 324.148,431.268 324.391,431.051 325.099,430.46 325.443,430.198 326.144,429.713 326.637,429.413 327.328,429.049 328.032,428.747 328.71,428.518 329.675,428.3 330.339,428.221 331.82,428.274 332.48,428.402 332.689,428.458 332.278,428.167 331.367,427.324 330.366,426.123 329.433,424.35 329.084,423.109 328.904,421.809 328.904,413.773 329.108,412.391 329.112,412.376 " fill="none" stroke-width="0.5" stroke="rgb(0,0,0)" />
	<polygon points="255.604,392.877 255.452,393.45 255.233,394.11 255.05,394.57 255.213,394.803 255.588,395.439 255.923,396.125 256.196,396.82 256.416,397.543 256.583,398.301 256.684,399.004 256.741,399.827 256.731,400.608 256.635,401.62 256.459,402.532 256.183,403.463 255.826,404.339 255.386,405.173 254.859,405.969 254.271,406.688 253.595,407.366 252.982,407.867 254.039,408.067 256.887,409.175 257.291,409.354 260.15,410.781 260.462,410.951 263.245,412.608 263.505,412.775 266.123,414.571 266.361,414.745 268.725,416.59 268.967,416.793 270.99,418.598 271.272,418.871 272.192,419.838 272.998,419.662 273.208,419.621 274.493,419.399 274.693,419.369 276.027,419.197 276.216,419.176 277.6,419.053 277.778,419.04 279.211,418.966 279.378,418.96 280.86,418.935 281.052,418.936 283.183,418.986 283.398,418.995 285.601,419.146 285.803,419.164 288.084,419.416 288.272,419.441 290.637,419.798 290.811,419.828 293.265,420.292 293.425,420.325 295.975,420.897 296.121,420.932 297.17,421.202 297.409,420.8 297.915,420.122 298.831,419.192 299.422,418.737 291.12,417.893 290.113,417.679 280.029,414.38 279.077,413.949 270.47,408.855 269.659,408.252 262.558,401.696 261.927,400.986 256.358,393.3 255.905,392.535 255.742,392.189 " fill="none" stroke-width="0.5" stroke="rgb(0,0,0)" />
	<polygon points="351.181,386.892 347.573,394.366 347.13,395.105 342.075,402.047 341.737,402.427 343.46,401.908 344.022,401.775 347.962,401.09 348.516,401.026 353.024,400.775 353.465,400.77 357.258,400.907 357.64,400.936 361.111,401.34 361.56,401.414 364.652,402.076 365.202,402.229 367.858,403.138 368.551,403.438 369.847,404.125 369.334,402.911 368.887,401.141 369.118,398.098 369.954,396.117 369.189,396.537 367.929,397.013 362.734,398.176 360.611,398.171 359.46,397.907 357.829,397.194 356.753,396.459 355.845,395.654 354.866,394.535 354.37,393.857 353.514,392.44 353.221,391.873 352.512,390.244 352.323,389.733 351.786,387.977 351.66,387.467 351.428,386.243 " fill="none" stroke-width="0.5" stroke="rgb(0,0,0)" />
	<polygon points="226.902,382.881 225.952,383.275 217.684,385.706 216.754,385.883 206.938,386.754 205.988,386.744 197.79,385.839 196.778,385.615 196.188,385.415 196.473,385.745 198.953,389.093 199.315,389.66 201.153,393.046 201.449,393.707 202.591,396.872 202.825,397.807 203.218,400.493 203.236,401.735 203.012,403.687 205.093,399.327 205.449,398.706 208.27,394.535 209.376,393.377 213.331,390.427 215.274,389.565 220.959,388.447 222.253,388.37 223.299,388.451 223.854,388.526 225.103,388.771 225.547,388.88 226.922,389.289 227.344,389.436 227.651,389.559 227.399,388.766 227.286,388.345 227.067,387.358 226.97,386.71 226.887,385.69 226.888,384.907 226.976,383.84 227.121,383.001 227.196,382.72 " fill="none" stroke-width="0.5" stroke="rgb(0,0,0)" />
	<polygon points="117.367,386.473 116.778,387.409 116.415,388.449 116.282,389.667 116.563,392.405 117.339,394.792 118.537,396.854 120.109,398.606 122.006,400.031 122.61,400.328 122.178,400.035 120.603,398.765 119.938,398.113 118.75,396.696 118.127,395.743 117.377,394.229 116.944,392.89 116.682,391.329 116.634,390.12 116.738,388.93 116.9,388.043 117.2,386.98 117.424,386.415 " fill="none" stroke-width="0.5" stroke="rgb(0,0,0)" />
	<polygon points="281.24,390.423 285.737,393.666 291.098,396.214 297.264,397.881 304.296,398.491 307.778,398.346 310.913,397.933 313.531,397.312 314.831,396.833 314.745,396.792 314.072,396.31 312.281,393.816 312.025,392.984 311.889,390.734 311.951,390.384 311.141,390.706 310.903,390.793 308.146,391.721 307.788,391.826 304.575,392.635 304.135,392.725 300.428,393.297 299.941,393.347 295.699,393.564 295.118,393.559 291.604,393.312 290.953,393.222 287.563,392.509 286.924,392.328 283.763,391.191 283.111,390.9 280.286,389.378 280.174,389.304 " fill="none" stroke-width="0.5" stroke="rgb(0,0,0)" />
	<polygon points="120.015,350.503 119.354,351.061 117.571,352.312 116.848,352.73 114.836,353.67 114.867,354.132 114.896,356.486 114.813,357.431 114.402,359.621 114.126,360.554 113.31,362.546 112.85,363.406 111.664,365.168 111.052,365.907 110.243,366.704 110.868,366.399 111.685,366.09 115.715,364.97 116.568,364.814 120.818,364.43 121.778,364.439 129.453,365.287 130.501,365.523 137.584,367.982 138.541,368.438 144.899,372.384 145.701,373.008 151.202,378.316 151.821,379.046 156.141,385.315 156.041,384.815 156.02,384.698 155.503,381.718 154.846,378.987 153.837,376.624 152.391,374.386 150.454,372.265 147.966,370.276 144.868,368.452 141.116,366.842 136.52,365.453 132.826,364.448 132.582,364.375 129.63,363.401 129.268,363.265 127.028,362.32 126.497,362.057 124.876,361.122 124.144,360.604 123.047,359.661 122.22,358.74 121.553,357.77 120.944,356.538 120.613,355.521 120.393,354.43 120.304,353.348 120.358,352.132 120.663,350.373 120.943,349.563 " fill="none" stroke-width="0.5" stroke="rgb(0,0,0)" />
	<polygon points="77.0258,367.836 77.8174,369.839 79.0716,378.121 78.8603,380.413 78.0176,382.841 79.5118,380.389 79.9214,379.816 82.3095,376.947 82.8062,376.433 85.3147,374.199 85.9373,373.729 88.4166,372.157 89.27,371.729 91.5702,370.848 93.4654,370.769 92.1012,370.32 91.2512,369.945 89.5339,368.98 88.7723,368.449 87.2866,367.184 86.6564,366.535 85.4216,364.997 84.9448,364.279 84.4552,364.388 84.2446,364.43 83.4248,364.574 83.2211,364.606 82.3796,364.717 81.8025,364.758 79.489,364.782 78.5356,364.697 76.3373,364.276 75.4422,364.013 73.9917,363.427 " fill="none" stroke-width="0.5" stroke="rgb(0,0,0)" />
	<polygon points="248.302,360.067 248.001,360.886 245.188,366.815 244.703,367.623 240.636,373.089 239.949,373.833 237.764,375.749 237.94,375.769 239.058,376.035 240.086,376.414 241.094,376.928 241.978,377.52 242.766,378.18 243.509,378.951 244.063,379.645 244.323,380.04 244.7,380.004 245.266,379.979 245.96,379.998 247.206,380.123 248.195,380.33 249.301,380.685 250.24,381.102 251.162,381.637 249.174,374.302 249.026,373.475 248.212,364.388 248.217,363.477 248.719,358.506 " fill="none" stroke-width="0.5" stroke="rgb(0,0,0)" />
	<polygon points="103.29,370.745 100.98,371.252 100.179,371.358 97.8827,371.467 97.0329,371.432 95.3309,371.21 97.1374,372.464 98.0373,376.018 97.7693,377.868 99.1325,375.543 99.7123,374.752 102.439,371.735 103.132,371.105 103.854,370.567 " fill="none" stroke-width="0.5" stroke="rgb(0,0,0)" />
	<polygon points="353.947,361.616 353.329,362.358 351.135,364.507 350.395,365.089 352.855,366.029 354.472,368.624 354.577,370.225 353.925,376.547 353.986,376.485 354.717,375.878 355.673,375.233 356.306,374.873 357.554,374.283 358.05,374.081 359.619,373.544 359.994,373.432 361.744,372.988 368.83,370.633 366.897,370.458 366.005,370.292 363.87,369.679 362.991,369.33 361.115,368.362 360.306,367.835 358.715,366.554 358.025,365.871 356.744,364.32 356.208,363.518 355.262,361.739 354.9,360.858 354.765,360.406 " fill="none" stroke-width="0.5" stroke="rgb(0,0,0)" />
	<polygon points="323.424,364.144 323.096,364.987 322.381,366.408 321.887,367.19 320.922,368.436 320.268,369.126 319.072,370.161 318.273,370.721 316.868,371.506 316.864,371.508 320.553,371.743 323.568,371.673 327.195,371.437 331.107,371.015 335.074,370.39 338.86,369.553 341.861,368.622 339.11,368.914 338.184,368.923 334.963,368.641 334.084,368.481 331.142,367.655 330.249,367.305 327.633,365.963 326.791,365.413 324.547,363.584 323.828,362.858 323.801,362.824 " fill="none" stroke-width="0.5" stroke="rgb(0,0,0)" />
	<polygon points="299.579,351.494 297.595,353.83 294.409,355.748 293.379,356.213 288.873,357.635 288.806,357.656 283.934,359.116 279.631,361.027 276.328,363.712 274.028,367.788 273.529,371.197 273.708,370.955 273.962,370.68 274.825,369.943 275.124,369.744 276.173,369.216 276.512,369.095 277.607,368.844 277.982,368.803 278.714,368.79 278.794,368.003 278.859,367.567 279.098,366.342 279.276,365.686 279.67,364.551 280.137,363.58 280.725,362.64 281.842,361.403 282.664,360.762 284.599,359.857 285.693,359.621 288.379,359.812 289.795,360.338 290.984,360.983 292.853,362.369 292.958,362.449 295.325,364.308 298.26,366.309 301.343,367.931 300.925,367.389 300.44,366.619 299.767,365.288 299.439,364.453 299.021,363 298.854,362.119 298.71,360.582 298.694,359.907 298.747,358.8 298.78,358.423 298.918,357.333 298.957,357.077 299.153,356.003 299.18,355.867 299.404,354.81 299.407,354.795 299.62,353.809 299.781,352.963 299.876,352.278 299.906,351.71 299.897,351.487 299.869,351.271 299.827,351.087 299.787,350.971 " fill="none" stroke-width="0.5" stroke="rgb(0,0,0)" />
	<polygon points="386.829,306.05 385.911,306.81 384.814,308.037 383.684,309.636 382.615,311.503 381.674,313.531 380.97,315.46 380.719,316.757 380.506,319.076 380.33,322.06 380.143,325.244 380.133,325.379 379.871,328.384 379.829,328.725 379.425,331.247 379.211,332.087 378.598,333.822 376.964,336.011 378.722,337.267 379.406,337.861 381.892,340.47 382.491,341.243 384.321,344.181 384.773,345.121 385.902,348.321 386.145,349.376 386.532,352.773 386.543,353.745 386.319,356.244 386.275,356.483 389.645,352.589 390.192,352.05 394.803,348.186 395.955,347.471 401.978,344.824 402.231,344.755 401.292,344.119 400.163,343.031 399.8,342.641 398.524,341.102 398.415,340.967 397.064,339.214 395.77,337.555 395.529,337.275 394.714,337.978 393.505,339.031 393.361,339.152 392.212,340.075 391.79,340.378 390.769,341.031 389.548,341.588 388.713,341.836 386.753,341.997 386.565,341.973 385.407,341.678 385.238,341.612 384.257,341.088 384.109,340.985 383.354,340.337 383.228,340.204 382.681,339.505 382.58,339.347 382.201,338.633 382.126,338.458 381.882,337.727 381.835,337.54 381.711,336.781 381.695,336.588 381.739,335.434 382.018,333.698 382.214,332.908 382.947,330.759 383.056,330.471 384.093,327.971 384.11,327.929 385.273,325.199 386.383,322.376 387.304,319.543 387.917,316.79 388.147,314.018 388.121,312.592 388.008,310.774 387.779,308.927 387.425,307.273 386.997,306.069 386.947,305.988 " fill="none" stroke-width="0.5" stroke="rgb(0,0,0)" />
	<polygon points="55.2929,335.747 56.1671,342.914 59.8182,348.786 65.2328,354.144 64.9825,353.403 64.4863,351.241 64.3649,350.217 64.3396,347.754 64.4475,346.692 64.9389,344.416 65.256,343.455 66.1844,341.398 66.6493,340.589 67.9352,338.783 68.496,338.129 68.719,337.912 66.4127,337.628 65.9915,337.557 63.1212,336.942 62.4736,336.754 60.0049,335.848 59.1917,335.459 57.0509,334.176 56.2585,333.582 56.0517,333.39 " fill="none" stroke-width="0.5" stroke="rgb(0,0,0)" />
	<polygon points="322.911,321.881 321.086,324.25 319.786,325.136 318.551,325.726 318.824,325.976 319.542,326.807 320.149,327.698 320.689,328.749 321.018,329.645 321.28,330.759 321.379,331.633 321.376,332.736 321.219,334.058 320.902,335.293 320.46,336.385 319.797,337.533 319.113,338.412 318.259,339.263 317.376,339.944 316.528,340.468 315.489,340.969 314.753,341.252 313.601,341.59 312.99,341.726 311.768,341.917 311.258,341.968 310.009,342.028 309.664,342.032 308.733,342.01 308.554,342.002 307.591,341.943 307.482,341.935 306.49,341.851 306.444,341.847 305.429,341.752 304.422,341.659 303.444,341.582 302.495,341.531 301.594,341.512 300.449,341.548 299.687,341.627 299.716,341.67 300.151,342.488 300.717,342.021 302.82,341.717 306.457,342.008 307.241,342.136 310.528,342.96 311.305,343.227 314.2,344.509 314.948,344.924 317.41,346.591 318.105,347.164 318.49,347.546 318.712,345.054 318.817,344.393 319.467,341.6 319.579,341.198 320.496,338.384 320.561,338.199 321.612,335.372 322.628,332.632 323.45,330.09 323.978,327.782 324.169,325.586 324.146,324.965 324.061,324.247 323.916,323.545 323.705,322.847 323.418,322.139 323.063,321.449 " fill="none" stroke-width="0.5" stroke="rgb(0,0,0)" />
	<polygon points="123.486,321.329 122.736,321.888 120.807,323.05 119.903,323.474 117.768,324.215 116.881,324.417 117.311,324.654 119.098,325.879 119.789,326.455 121.332,328.01 121.901,328.7 123.146,330.539 123.583,331.339 124.475,333.418 124.759,334.314 125.242,336.589 125.346,337.63 125.326,339.868 125.226,340.799 124.789,342.906 124.51,343.801 124.012,344.977 124.074,344.911 124.807,344.276 126.501,343.084 127.166,342.692 129.146,341.73 129.752,341.485 131.931,340.773 132.512,340.622 134.8,340.18 135.396,340.103 137.538,339.962 135.288,339.236 134.359,338.823 132.051,337.488 131.258,336.914 129.352,335.213 128.725,334.535 127.228,332.563 126.763,331.818 125.684,329.674 125.367,328.871 124.714,326.65 124.543,325.772 124.323,323.571 124.316,322.697 124.453,321.044 124.566,320.347 " fill="none" stroke-width="0.5" stroke="rgb(0,0,0)" />
	<polygon points="185.941,339.593 188.65,341.047 191.528,342.163 194.659,342.987 195.553,343.132 191.419,341.926 190.652,341.628 184.691,338.707 " fill="none" stroke-width="0.5" stroke="rgb(0,0,0)" />
	<polygon points="219.505,338.33 218.771,341.076 219.492,340.642 220.405,339.815 220.594,339.522 220.504,339.183 219.757,338.319 219.395,338.059 " fill="none" stroke-width="0.5" stroke="rgb(0,0,0)" />
	<polygon points="355.869,334.031 356.66,332.334 356.61,332.328 356.483,332.303 355.831,332.129 355.712,332.087 355.004,331.777 354.897,331.72 354.655,331.557 " fill="none" stroke-width="0.5" stroke="rgb(0,0,0)" />
	<polygon points="205.241,314.629 204.066,318.003 203.647,321.258 203.852,323.563 204.463,325.775 205.44,327.782 206.76,329.564 208.412,331.098 210.389,332.353 211.483,332.798 211.17,332.548 208.567,330.116 207.726,329.074 205.885,326 205.276,324.371 204.578,320.426 204.518,319.234 204.608,318.023 204.683,317.461 204.952,316.076 205.056,315.647 205.506,314.107 205.508,314.101 " fill="none" stroke-width="0.5" stroke="rgb(0,0,0)" />
	<polygon points="364.911,329.397 363.486,330.251 363.381,330.312 362.539,330.788 365.619,331.211 366.318,331.361 366.76,331.491 366.645,331.112 366.57,330.835 366.145,329.057 366.058,328.724 " fill="none" stroke-width="0.5" stroke="rgb(0,0,0)" />
	<polygon points="74.2732,306.915 72.6906,311.31 71.7046,315.09 71.3681,318.206 71.4039,319.475 71.549,320.85 71.8267,322.16 72.279,323.474 72.9718,324.864 73.9937,326.389 75.4406,328.082 75.5219,328.159 75.7138,327.456 76.4747,325.431 76.8778,324.608 77.9821,322.81 78.542,322.07 79.9598,320.531 80.6516,319.912 82.3526,318.665 83.1403,318.196 85.0946,317.273 85.9354,316.967 88.1128,316.4 89.0067,316.256 91.4404,316.095 92.4162,316.13 94.6632,316.442 95.611,316.674 97.6533,317.4 98.4986,317.797 100.318,318.878 101.023,319.39 102.601,320.769 103.164,321.351 104.483,322.969 104.677,323.25 105.309,323.063 105.618,322.983 106.33,322.824 105.011,322.014 104.171,321.358 102.816,320.035 102.193,319.29 101.182,317.794 100.763,317.036 100.071,315.46 99.8138,314.712 99.4168,313.149 99.2871,312.383 99.2043,311.43 97.2086,312.58 96.2337,313.005 93.7192,313.785 92.7547,313.978 90.0671,314.235 89.1478,314.234 87.3897,314.064 86.4906,313.889 84.7869,313.385 83.937,313.042 82.343,312.214 81.5601,311.705 80.1311,310.565 79.4454,309.895 78.2367,308.451 77.689,307.642 76.756,305.905 76.3844,305.005 75.8522,303.22 " fill="none" stroke-width="0.5" stroke="rgb(0,0,0)" />
	<polygon points="371.434,283.431 371.823,283.857 374.009,286.566 374.736,287.812 375.553,289.872 375.246,294.045 374.38,295.542 372.759,297.214 370.427,298.665 369.671,299.047 366.27,300.403 365.865,300.544 361.796,301.76 361.528,301.831 357.188,302.859 356.969,302.905 352.758,303.698 352.528,303.735 348.844,304.245 348.499,304.28 345.74,304.461 344.992,304.451 344.4,304.397 343.404,304.199 343.128,304.113 343.309,305.038 343.382,306.344 343.28,307.59 343.114,308.513 342.799,309.619 342.357,310.676 341.813,311.634 341.059,312.633 340.27,313.435 339.338,314.172 338.286,314.809 337.383,315.236 336.829,315.43 339.837,316.811 340.539,317.207 345.398,320.52 346.032,321.036 350.049,324.922 350.59,325.544 352.195,327.744 352.192,327.719 352.265,326.065 352.483,325.079 352.774,324.187 353.349,322.877 353.514,322.537 354.327,321.021 354.408,320.876 355.339,319.274 355.361,319.237 355.593,318.847 355.122,318.729 353.028,318.233 352.824,318.179 350.976,317.654 350.299,317.405 348.992,316.81 347.042,315.185 346.546,314.472 345.689,311.537 346.122,309.729 346.325,309.285 347.882,307.392 348.454,306.979 349.35,306.47 350.233,306.086 350.708,305.909 351.846,305.553 352.122,305.475 353.456,305.143 353.628,305.103 355.102,304.793 355.21,304.772 356.765,304.482 356.83,304.47 358.272,304.222 361.406,303.491 364.657,302.393 367.889,300.942 370.855,299.205 373.317,297.282 375.076,295.322 376.049,293.501 376.372,291.682 376.099,289.454 375.319,287.455 374.056,285.599 372.303,283.806 370.124,282.077 369.858,281.898 " fill="none" stroke-width="0.5" stroke="rgb(0,0,0)" />
	<polygon points="420.465,322.094 420.6,322.266 420.756,322.581 421.061,321.989 " fill="none" stroke-width="0.5" stroke="rgb(0,0,0)" />
	<polygon points="400.415,302.713 401.021,304.61 402.056,306.684 403.469,308.809 405.184,310.875 407.104,312.785 409.127,314.452 411.276,315.893 412.279,316.507 413.428,317.143 414.328,317.618 413.81,316.767 413.725,316.622 411.918,313.404 409.754,309.894 407.262,306.591 404.533,303.957 401.714,302.326 400.341,302.066 " fill="none" stroke-width="0.5" stroke="rgb(0,0,0)" />
	<polygon points="125.904,287.805 125.961,287.975 127.92,294.191 128.023,294.572 129.408,300.679 129.509,301.32 130.034,307.291 130.03,308.172 129.801,310.555 129.63,311.439 129.574,311.632 129.941,311.359 131.296,310.652 131.774,310.493 133.746,310.27 133.926,310.287 135.15,310.57 135.3,310.626 136.69,311.433 136.811,311.534 137.814,312.685 137.908,312.837 138.385,313.849 138.455,314.059 138.632,314.758 138.68,315.031 138.736,315.478 138.763,315.82 138.777,316.1 138.782,316.338 138.814,316.67 138.853,316.808 138.931,316.967 139.03,317.102 139.138,317.2 139.273,317.279 139.506,317.353 139.952,317.398 140.357,317.361 140.643,317.279 140.826,317.183 140.951,317.081 141.048,316.962 141.131,316.803 141.196,316.579 141.198,316.556 140.203,311.894 137.201,305.664 132.593,297.942 127.184,289.07 127.077,288.887 124.843,284.83 " fill="none" stroke-width="0.5" stroke="rgb(0,0,0)" />
	<polygon points="439.087,308.093 438.296,309.237 438.157,309.386 437.228,310.161 437.039,310.281 436.214,310.702 435.976,310.795 435.342,310.995 435.055,311.064 434.592,311.152 434.256,311.199 433.925,311.233 433.54,311.26 433.302,311.27 432.868,311.278 432.636,311.277 431.867,311.255 431.672,311.245 430.825,311.186 430.717,311.177 429.814,311.093 429.77,311.089 428.834,310.993 427.912,310.901 427.047,310.825 426.7,310.802 426.696,310.936 426.663,312.77 426.658,312.926 426.568,314.728 426.522,315.189 426.337,316.443 426.355,316.43 428.316,315.374 429.198,315.006 431.355,314.351 432.284,314.167 434.588,313.942 435.228,313.922 437.269,313.996 437.644,314.024 438.741,314.15 438.727,314.002 438.653,312.492 438.662,311.878 438.858,309.419 438.984,308.645 439.154,307.957 " fill="none" stroke-width="0.5" stroke="rgb(0,0,0)" />
	<polygon points="321.586,313.682 321.809,313.98 321.838,313.894 321.969,313.805 321.329,313.423 " fill="none" stroke-width="0.5" stroke="rgb(0,0,0)" />
	<polygon points="311.723,302.379 311.078,302.898 306.488,305.982 305.613,306.446 300.379,308.567 304.232,308.176 304.919,308.156 307.732,308.274 308.145,308.31 310.784,308.652 311.224,308.729 313.627,309.272 314.125,309.412 316.23,310.133 316.829,310.384 318.419,311.182 317.779,310.518 316.46,308.844 315.858,307.851 314.984,305.92 314.608,304.633 314.292,302.458 314.275,301.204 314.445,299.768 " fill="none" stroke-width="0.5" stroke="rgb(0,0,0)" />
	<polygon points="434.734,288.852 434.479,289.682 434.008,290.739 433.335,291.862 433.124,292.185 432.172,293.516 432.109,293.603 431.038,295.034 430.037,296.408 429.834,296.719 430.143,296.925 431.929,297.936 433.856,298.976 433.968,299.038 435.673,300.018 436.124,300.312 437.308,301.183 438.663,302.722 439.07,303.457 439.175,307.873 439.564,306.302 439.834,305.514 440.791,303.353 441.187,302.646 439.844,301.768 439.018,300.185 437.053,293.683 434.923,287.507 434.888,287.418 " fill="none" stroke-width="0.5" stroke="rgb(0,0,0)" />
	<polygon points="107.867,291.993 107.857,292.308 107.58,296.515 107.478,297.231 106.686,300.832 106.481,301.481 108.022,301.597 108.305,301.755 110.156,303.599 110.389,304.014 110.623,304.49 110.667,304.596 110.779,304.37 110.976,303.675 111.133,302.559 111.189,301.143 110.866,296.433 110.009,291.947 108.749,287.455 107.867,284.758 " fill="none" stroke-width="0.5" stroke="rgb(0,0,0)" />
	<polygon points="458.372,286.584 457.041,287.2 455.693,288.316 454.257,290.051 452.764,292.36 451.21,295.112 451.164,295.197 452.109,294.995 454.817,294.72 456.067,294.756 459.255,295.27 460.623,295.708 462.827,296.8 462.657,295.027 462.685,294.895 462.69,294.859 462.7,294.753 462.711,294.583 462.72,294.355 462.725,294.075 462.727,293.748 462.727,293.495 462.651,291.933 462.428,290.416 462.058,288.987 461.576,287.8 461.068,286.985 460.658,286.577 460.385,286.431 459.956,286.362 " fill="none" stroke-width="0.5" stroke="rgb(0,0,0)" />
	<polygon points="336.61,292.943 337.301,294.019 338.622,295.83 338.792,296.061 339.076,295.214 339.412,294.466 339.564,294.159 340.04,293.277 340.081,293.203 340.153,293.073 338.886,292.986 336.669,292.942 " fill="none" stroke-width="0.5" stroke="rgb(0,0,0)" />
	<polygon points="54.2515,273.073 53.8213,274.057 53.5463,275.331 53.533,276.761 53.8504,278.268 54.6926,280.068 55.0316,280.604 55.5044,281.333 55.536,281.383 55.9811,282.089 56.0795,282.252 56.4711,282.931 56.6305,283.231 56.9562,283.902 57.1492,284.358 57.3969,285.039 57.5721,285.639 57.7296,286.349 57.8311,287.04 57.8863,287.797 57.8411,288.89 57.5,291.066 57.2874,291.911 56.3419,294.607 56.1345,295.106 55.7157,295.973 59.0565,291.108 61.592,286.441 62.4239,282.819 62.4238,282.817 62.3698,282.452 62.2885,282.145 62.177,281.864 62.0202,281.575 61.7924,281.253 61.4634,280.881 60.851,280.314 60.8398,280.304 58.9178,278.513 58.6335,278.225 57.1194,276.555 56.9422,276.348 55.7195,274.835 55.6942,274.803 54.7451,273.608 54.2548,273.068 " fill="none" stroke-width="0.5" stroke="rgb(0,0,0)" />
	<polygon points="91.9323,270.426 89.0345,276.755 88.9707,276.889 86.0571,282.766 86.0163,282.846 83.661,287.381 81.9116,290.757 83.1403,290.72 83.6562,290.878 85.2436,291.712 85.7651,292.126 86.2308,292.549 86.7958,293.134 87.3005,293.656 87.6345,293.946 87.8234,294.065 87.9484,294.111 88.1579,294.135 89.2642,293.983 89.6368,293.783 90.0251,293.312 90.5908,291.935 91.0996,289.461 91.4306,285.987 91.5874,281.62 91.6244,276.406 91.6311,276.183 91.9403,270.408 " fill="none" stroke-width="0.5" stroke="rgb(0,0,0)" />
	<polygon points="420.396,262.727 420.195,263.544 419.739,264.88 419.595,265.252 418.951,266.727 418.878,266.886 418.14,268.422 418.131,268.441 417.895,268.924 417.917,268.929 419.77,269.338 419.985,269.391 421.609,269.829 422.274,270.062 423.423,270.561 425.384,272.131 425.82,272.727 426.744,275.642 426.176,277.827 425.709,278.698 423.744,280.662 422.47,281.344 421.547,281.721 419.656,282.272 419.281,282.365 416.962,282.842 416.846,282.864 414.319,283.32 411.859,283.794 409.75,284.308 408.065,284.906 406.685,285.547 405.478,286.218 404.542,286.858 403.884,287.429 403.522,287.85 403.973,287.926 405.235,288.025 406.661,288.054 410.386,287.815 413.736,287.198 416.82,286.308 419.621,285.261 422.133,284.173 424.309,283.184 424.477,283.112 426.218,282.4 427.014,282.152 428.255,281.882 429.677,281.789 429.865,281.805 430.721,281.955 430.89,282.001 431.78,282.341 431.928,282.415 432.781,282.961 432.907,283.062 433.297,283.45 432.574,281.648 429.974,276.161 427.093,271.098 423.906,266.506 420.434,262.481 " fill="none" stroke-width="0.5" stroke="rgb(0,0,0)" />
	<polygon points="391.878,266.075 391.849,266.206 391.239,268.779 391.238,268.783 390.642,271.286 390.15,273.626 389.827,275.757 389.711,277.704 389.761,278.902 389.918,280.086 390.165,281.1 390.457,281.836 390.595,282.056 390.772,281.883 391.304,281.115 391.841,279.996 392.288,278.611 392.583,277.05 392.694,275.287 392.647,273.032 392.518,270.807 392.334,268.717 392.118,266.767 391.976,265.603 " fill="none" stroke-width="0.5" stroke="rgb(0,0,0)" />
	<polygon points="133.142,216.906 128.98,218.223 124.842,220.09 123.984,220.617 126.736,219.746 129.617,220.772 131.294,223.329 130.92,226.739 129.775,228.967 128.924,231.121 128.237,233.391 127.709,235.711 127.328,238.012 127.08,240.226 126.946,242.285 126.912,243.835 128.324,253.956 132.071,263.899 137.549,273.839 140.591,278.448 140.355,275.443 141.018,274.162 141.015,274.161 141.054,274.055 140.931,273.356 140.42,272.21 139.386,270.486 138.024,268.395 137.956,268.287 136.546,265.992 136.349,265.638 135.12,263.194 134.854,262.555 133.984,259.948 133.771,258.993 133.441,256.206 134.067,253.213 135.111,252.195 135.018,251.321 134.611,249.638 133.941,247.47 133.122,245.011 133.111,244.976 132.275,242.402 132.225,242.235 131.496,239.678 131.414,239.347 130.899,236.889 130.814,236.315 130.619,234.037 131.341,231.066 133.711,229.134 133.856,229.106 133.945,227.989 133.965,227.788 134.266,225.32 134.305,225.058 134.764,222.48 134.835,222.151 135.493,219.538 135.614,219.132 136.509,216.561 136.647,216.225 " fill="none" stroke-width="0.5" stroke="rgb(0,0,0)" />
	<polygon points="341.784,270.842 338.952,272.426 337.655,273.823 337.185,275.678 337.246,276.152 337.421,276.543 337.694,276.859 338.22,277.225 339.053,277.587 340.124,277.871 341.306,278.04 342.492,278.093 342.456,277.677 342.396,277.071 342.332,276.455 342.329,276.418 342.272,275.829 342.263,275.722 342.223,275.177 342.213,274.975 342.198,274.486 342.216,273.893 342.24,273.631 342.401,272.768 342.473,272.514 342.788,271.696 342.905,271.459 343.378,270.692 343.538,270.48 344.003,269.975 " fill="none" stroke-width="0.5" stroke="rgb(0,0,0)" />
	<polygon points="350.716,267.429 350.309,267.601 348.624,268.226 349.777,268.336 351.86,268.961 352.777,269.343 353.562,269.771 353.41,269.272 353.541,266.107 353.556,266.068 " fill="none" stroke-width="0.5" stroke="rgb(0,0,0)" />
	<polygon points="359.981,244.445 358.192,245.92 357.431,246.434 355.38,247.549 354.515,247.914 352.252,248.619 351.309,248.812 351.229,248.82 352.448,249.29 354.921,249.898 358.064,250.159 360.872,251.37 362.379,254.03 361.984,257.041 360.24,260.628 359.173,261.979 359.438,261.93 359.824,261.874 360.802,261.772 361.043,261.754 362.026,261.701 362.178,261.696 363.088,261.677 363.171,261.676 363.909,261.673 364.222,261.669 364.195,261.277 364.194,261.264 364.129,260.282 364.126,260.238 364.07,259.241 364.066,259.165 364.026,258.18 364.023,258.062 364.008,257.116 364.008,256.974 364.017,256.336 364.022,256.167 364.051,255.574 364.069,255.33 364.123,254.795 364.173,254.435 364.255,253.97 364.387,253.42 364.503,253.037 364.859,252.174 365.012,251.885 365.976,250.628 366.172,250.445 366.87,250.061 366.491,249.944 365.636,249.588 364.518,248.991 363.753,248.482 362.763,247.677 362.105,247.026 361.277,246.033 360.748,245.253 360.193,244.233 " fill="none" stroke-width="0.5" stroke="rgb(0,0,0)" />
	<polygon points="443.723,248.701 444.61,251.022 445.788,253.941 445.79,253.945 447.143,257.31 447.168,257.373 448.556,260.969 448.564,260.991 449.674,258.898 449.734,258.789 451.416,255.807 451.459,255.732 452.72,253.589 451.643,253.045 451.479,252.958 448.023,251.04 447.741,250.87 444.265,248.615 443.855,248.318 443.461,247.999 " fill="none" stroke-width="0.5" stroke="rgb(0,0,0)" />
	<polygon points="381.99,239.485 381.855,240.931 381.677,241.849 381.287,243.163 380.922,244.055 380.302,245.218 379.759,246.027 378.934,247.02 378.242,247.7 377.237,248.505 376.434,249.025 375.274,249.623 374.405,249.968 373.268,250.296 373.904,250.673 374.994,251.643 375.522,252.194 376.641,253.564 376.839,253.825 377.952,255.396 378,255.465 378.468,256.15 378.956,255.64 380.172,254.362 380.356,254.179 381.543,253.06 382.076,252.625 383.202,251.834 384.63,251.149 385.669,250.849 387.412,250.678 387.712,250.703 388.76,250.913 389.015,250.994 390.249,251.593 390.46,251.736 391.514,252.708 391.682,252.918 392.312,253.946 392.44,254.23 392.726,255.059 392.816,255.422 392.897,255.876 393.192,255.497 393.372,255.313 394.277,254.587 394.484,254.458 395.521,253.976 395.753,253.9 396.774,253.685 397.025,253.661 399.18,253.942 400.157,254.308 401.654,255.208 402.621,256.063 403.158,256.622 404.12,257.8 404.294,258.026 405.248,259.348 406.015,260.394 406.533,260.048 407.741,259.117 409.018,258.088 409.111,258.015 410.32,257.091 410.698,256.829 411.747,256.175 411.822,256.142 407.491,254.48 402.091,252.964 396.702,251.459 396.237,251.303 391.425,249.413 390.415,248.869 386.538,246.137 385.263,244.806 382.677,240.776 381.987,238.977 " fill="none" stroke-width="0.5" stroke="rgb(0,0,0)" />
	<polygon points="315.05,221.792 314.3,222.301 312.609,223.228 311.748,223.596 309.89,224.184 308.937,224.382 306.956,224.587 305.967,224.587 305.897,224.58 306.13,224.99 307.311,228.643 308.882,230.41 311.515,231.977 315.125,233.545 315.302,233.626 319.102,235.463 319.964,235.999 323.229,238.544 324.395,239.863 326.68,243.678 327.307,245.421 327.514,246.776 328.114,246.182 328.949,245.52 330.066,244.822 330.884,244.413 332.053,243.963 332.791,243.745 333.939,243.503 334.601,243.412 335.657,243.34 335.797,243.344 334.698,242.012 334.182,241.249 333.068,239.202 332.702,238.336 331.998,236.075 331.805,235.131 331.559,232.708 331.559,232.361 331.028,232.586 329.717,232.994 328.774,233.186 327.369,233.328 326.398,233.328 325.004,233.185 324.057,232.991 322.754,232.583 321.889,232.216 320.706,231.57 319.947,231.056 318.914,230.202 318.271,229.558 317.418,228.524 316.904,227.764 316.258,226.577 315.892,225.713 315.483,224.403 315.29,223.458 315.147,222.054 315.147,221.711 " fill="none" stroke-width="0.5" stroke="rgb(0,0,0)" />
	<polygon points="407.796,228.432 409.607,232.035 412.305,235.675 414.771,238.036 418.368,240.935 418.375,240.941 419.833,242.121 415.853,237.462 409.859,230.6 409.712,230.423 407.499,227.629 " fill="none" stroke-width="0.5" stroke="rgb(0,0,0)" />
	<polygon points="85.3426,211.107 83.885,212.633 83.3199,213.008 82.893,213.261 82.2463,213.6 81.8376,213.791 81.763,213.821 82.1487,213.925 82.831,214.214 83.9241,214.858 84.4956,215.307 85.2885,216.094 85.7513,216.676 86.258,217.458 86.6143,218.146 86.9127,218.857 87.1646,219.625 87.3259,220.261 87.4754,221.082 87.545,221.663 87.5943,222.511 87.5683,223.361 87.1107,227.179 87.0059,227.754 86.4823,229.884 86.9867,228.936 87.2325,228.525 87.9442,227.459 88.3165,226.972 89.0447,226.136 89.6257,225.573 90.3623,224.971 91.273,224.384 92.0098,224.02 93.3427,223.589 94.0716,223.467 95.5354,223.447 96.1791,223.538 97.4676,223.908 98.0792,224.182 99.1498,224.84 99.7129,225.298 100.483,226.087 100.981,226.732 101.477,227.522 101.893,228.354 102.183,229.076 102.501,230.1 102.651,230.733 102.854,231.95 102.913,232.497 102.984,233.907 102.969,234.606 102.578,238.702 102.491,239.262 101.901,241.984 102.855,240.424 103.228,239.897 106.838,235.463 106.629,235.479 104.058,233.825 103.065,231.58 102.941,230.802 102.928,230.718 102.821,229.957 102.809,229.868 102.719,229.123 102.708,229.03 102.634,228.302 102.625,228.203 102.567,227.491 102.56,227.387 102.518,226.691 102.513,226.582 102.488,225.902 102.486,225.787 102.477,225.123 102.49,224.708 102.793,220.631 102.899,219.922 103.74,216.222 103.944,215.554 105.223,212.247 105.509,211.639 106.149,210.492 105.386,211.004 104.345,211.532 101.766,212.466 100.657,212.724 97.659,213.054 96.6012,213.053 93.412,212.697 92.3354,212.449 89.4712,211.429 88.4891,210.948 85.9808,209.339 85.77,209.169 " fill="none" stroke-width="0.5" stroke="rgb(0,0,0)" />
	<polygon points="463.094,211.703 463.153,212.152 463.212,212.855 463.227,213.147 463.245,213.95 463.24,214.299 463.112,216.819 463.083,217.153 462.747,219.934 462.72,220.124 462.244,223.065 462.228,223.157 461.682,226.158 461.68,226.169 461.141,229.094 460.686,231.789 460.384,234.105 460.284,235.846 460.373,236.993 460.62,238.083 460.999,239.098 461.414,239.87 462.493,238.664 464.04,236.446 465.506,233.763 466.709,230.8 467.504,227.735 467.782,224.755 467.191,219.462 465.675,215.314 463.489,212.035 463.084,211.643 " fill="none" stroke-width="0.5" stroke="rgb(0,0,0)" />
	<polygon points="380.417,195.838 380.267,197.31 380.071,198.259 379.64,199.634 379.272,200.499 378.59,201.746 378.076,202.504 377.175,203.594 376.533,204.234 375.443,205.135 374.938,205.477 375.187,205.582 376.582,206.338 377.349,206.854 378.564,207.856 379.213,208.504 380.216,209.718 380.733,210.485 381.489,211.879 381.855,212.746 382.333,214.287 382.525,215.228 382.691,216.883 382.691,217.843 382.525,219.503 382.334,220.443 381.856,221.987 381.491,222.855 380.735,224.252 380.218,225.018 379.216,226.235 378.566,226.884 377.351,227.887 376.584,228.404 375.545,228.967 376.459,229.444 377.224,229.941 378.229,230.739 378.888,231.374 379.712,232.335 380.247,233.099 380.866,234.195 381.253,235.076 381.442,235.661 381.037,233.171 380.987,232.063 381.122,230.135 381.179,229.66 381.537,227.578 381.589,227.314 382.094,225.117 382.121,225.006 382.698,222.744 383.258,220.519 383.717,218.432 384.016,216.552 384.124,214.833 384.115,214.459 384.083,214.045 384.033,213.692 383.97,213.403 383.901,213.174 383.83,212.999 383.759,212.866 383.538,212.537 382.727,209.589 383.861,206.749 386.48,205.171 389.619,205.54 394.926,208.121 395.874,208.729 399.506,211.714 400.347,212.608 402.223,215.2 403.087,213.55 407.121,212.27 413.854,213.282 414.394,213.396 419.852,214.873 420.697,215.189 425.141,217.35 426.107,217.973 429.8,221.037 430.547,221.814 433.751,226 434.166,226.641 434.428,227.128 434.453,226.956 434.791,225.766 436.537,221.706 436.996,220.875 439.519,217.221 439.975,216.657 442.96,213.488 443.385,213.089 446.516,210.486 446.937,210.173 449.898,208.214 450.405,207.922 452.881,206.688 453.83,206.335 454.604,206.136 452.725,205.597 451.433,205.446 450.566,205.592 448.665,206.276 445.815,207.462 445.727,207.498 442.139,208.908 441.876,209.003 437.566,210.413 437.194,210.519 432.074,211.749 431.639,211.833 425.617,212.703 425.156,212.747 418.142,213.077 417.308,213.044 404.543,211.413 403.25,211.06 392.964,206.623 391.831,205.935 383.784,199.373 382.987,198.547 380.417,195.145 " fill="none" stroke-width="0.5" stroke="rgb(0,0,0)" />
	<polygon points="63.145,214.951 60.418,217.21 60.7939,217.259 62.1688,217.656 62.8131,217.951 64.0316,218.755 64.5485,219.223 65.3606,220.179 65.7604,220.798 66.1988,221.655 66.4917,222.406 66.7001,223.083 66.8966,223.944 66.9849,224.459 67.0952,225.41 67.1245,225.801 67.159,226.822 67.1549,227.24 67.0513,229.182 67.0815,229.101 69.685,222.691 69.994,222.066 72.6586,217.532 74.2092,215.921 75.4002,215.159 74.5509,215.183 74.0172,215.168 71.7872,214.983 70.9693,214.843 68.8976,214.301 68.0727,214.002 66.2023,213.124 65.4024,212.648 64.7279,212.153 " fill="none" stroke-width="0.5" stroke="rgb(0,0,0)" />
	<polygon points="120.929,222.494 118.202,224.77 123.398,220.977 " fill="none" stroke-width="0.5" stroke="rgb(0,0,0)" />
	<polygon points="338.187,211.239 337.414,211.757 335.599,212.732 334.956,213.001 335.526,213.57 336.383,214.605 336.899,215.367 337.546,216.554 337.914,217.42 338.324,218.731 338.329,218.756 338.604,218.529 339.367,218.014 341.415,216.899 342.209,216.564 341.799,216.225 341.154,215.58 340.298,214.544 339.783,213.782 339.137,212.594 338.771,211.728 338.53,210.957 " fill="none" stroke-width="0.5" stroke="rgb(0,0,0)" />
	<polygon points="356.294,217.395 356.732,217.633 356.732,217.098 " fill="none" stroke-width="0.5" stroke="rgb(0,0,0)" />
	<polygon points="58.573,200.267 56.8145,201.996 56.4754,202.299 54.6952,203.745 54.2968,204.036 52.5099,205.205 52.046,205.472 50.2674,206.37 49.7338,206.6 47.9784,207.234 47.3741,207.409 45.6568,207.784 44.9872,207.882 43.323,208.006 42.484,207.995 40.3929,207.783 39.3882,207.571 37.4637,206.944 36.4836,206.498 34.7603,205.465 34.2132,205.047 34.2585,205.1 35.7767,206.518 37.2032,207.534 38.5854,208.237 40.0069,208.705 41.5639,208.981 43.3754,209.076 44.8617,209.036 46.5027,208.912 48.254,208.706 50.1264,208.422 52.129,208.061 54.2708,207.63 56.5599,207.133 59.0185,206.574 60.0849,206.682 59.6902,205.782 59.0528,203.766 58.8527,202.791 58.6307,200.543 58.6341,200.202 " fill="none" stroke-width="0.5" stroke="rgb(0,0,0)" />
	<polygon points="361.424,205.696 361.567,207.097 361.567,207.27 362.067,206.857 362.831,206.341 363.014,206.241 361.921,205.641 361.33,205.239 " fill="none" stroke-width="0.5" stroke="rgb(0,0,0)" />
	<polygon points="113.648,199.924 113.435,200.643 112.777,202.359 114.257,201.215 114.86,200.817 116.621,199.837 114.457,198.836 114.04,198.079 " fill="none" stroke-width="0.5" stroke="rgb(0,0,0)" />
	<polygon points="124.111,196.003 123.453,196.102 122.972,196.235 122.673,196.368 122.528,196.464 122.476,196.516 122.439,196.57 122.207,197.146 121.312,198.192 121.449,198.162 122.591,197.952 122.845,197.912 124.029,197.76 124.246,197.736 125.468,197.635 125.651,197.623 126.911,197.566 127.062,197.562 128.357,197.544 128.545,197.546 130.688,197.601 130.899,197.611 131.505,197.653 129.279,196.755 126.984,196.169 124.808,195.971 " fill="none" stroke-width="0.5" stroke="rgb(0,0,0)" />
	<polygon points="355.726,195.186 354.863,195.553 352.782,196.206 353.946,196.569 354.811,196.936 355.998,197.582 356.485,197.912 356.361,197.31 356.21,195.838 356.211,194.922 " fill="none" stroke-width="0.5" stroke="rgb(0,0,0)" />
	<polygon points="313.572,196.243 312.679,196.521 313.851,197.165 313.958,196.079 " fill="none" stroke-width="0.5" stroke="rgb(0,0,0)" />
	<polygon points="344.391,196.035 344.496,197.093 344.788,196.934 345.653,196.568 346.252,196.382 345.416,196.21 344.359,195.878 " fill="none" stroke-width="0.5" stroke="rgb(0,0,0)" />
	<polygon points="61.8285,189.351 61.5606,189.426 59.7865,189.865 59.4892,189.929 57.7995,190.235 57.4744,190.283 57.3914,190.292 59.1604,190.576 60.5489,192.027 60.7157,191.687 62.2077,189.312 62.2859,189.209 " fill="none" stroke-width="0.5" stroke="rgb(0,0,0)" />
	<polygon points="40.9833,188.502 42.6796,189.261 44.5298,189.84 46.5029,190.241 48.5588,190.473 50.7044,190.548 51.3399,190.542 52.0474,190.52 52.5695,190.493 51.0843,190.416 50.6334,190.372 48.3511,190.036 48.0019,189.971 45.8792,189.496 45.6554,189.44 43.674,188.895 43.5963,188.873 41.7851,188.342 40.2313,187.921 39.9569,187.866 " fill="none" stroke-width="0.5" stroke="rgb(0,0,0)" />
	<polygon points="109.205,157.391 108.839,158.256 108.192,159.444 107.678,160.205 106.823,161.241 106.18,161.885 105.145,162.741 104.385,163.256 103.199,163.903 102.333,164.27 101.025,164.679 100.078,164.873 98.6768,165.016 97.7058,165.016 96.2987,164.873 95.3549,164.68 94.0421,164.271 93.1775,163.906 91.9878,163.259 91.2268,162.745 90.1889,161.889 89.8595,161.56 89.5922,162.479 89.4518,162.891 88.2004,166.081 88.0264,166.473 87.6634,167.2 89.0862,166.261 91.9813,166.4 95.3241,167.637 95.8558,167.871 99.2313,169.61 99.7305,169.907 102.991,172.122 103.484,172.505 106.482,175.172 106.973,175.678 109.562,178.77 110.031,179.439 112.063,182.933 112.454,183.789 112.769,184.709 113.041,182.963 113.202,182.271 113.921,179.966 114.286,179.104 115.328,177.186 116.002,176.24 117.388,174.723 118.375,173.898 120.126,172.796 121.243,172.28 121.891,172.076 118.567,170.174 117.713,169.551 114.819,166.907 114.152,166.153 111.929,163.042 111.465,162.238 109.898,158.789 109.616,157.985 109.349,156.931 " fill="none" stroke-width="0.5" stroke="rgb(0,0,0)" />
	<polygon points="367.395,165.196 366.878,165.961 366.066,166.943 365.418,167.589 364.434,168.399 363.67,168.914 362.541,169.526 361.675,169.89 360.991,170.102 362.061,171.395 362.575,172.152 363.615,174.051 363.983,174.915 364.641,177.008 364.837,177.958 365.067,180.197 365.067,181.178 364.837,183.412 364.758,183.791 365.388,183.592 366.341,183.394 367.796,183.243 368.778,183.243 370.25,183.393 371.197,183.588 372.573,184.019 373.435,184.385 373.974,184.678 372.17,180.989 371.901,180.312 369.134,171.464 368.992,170.882 367.826,164.405 " fill="none" stroke-width="0.5" stroke="rgb(0,0,0)" />
	<polygon points="163.364,163.188 163.102,163.415 159.514,166.302 159.136,166.577 155.349,169.059 154.853,169.343 150.78,171.366 150.189,171.612 145.74,173.123 145.104,173.291 140.192,174.237 139.572,174.315 138.146,174.4 141.517,176.749 142.091,177.218 145.485,180.464 145.868,180.875 148.73,184.339 148.764,183.869 148.81,183.463 149.417,179.607 149.587,178.89 150.545,175.894 151.093,174.74 152.484,172.602 153.826,171.238 155.729,169.956 157.601,169.206 160.095,168.779 161.827,168.8 163.555,169.138 164.739,169.535 166.7,170.493 167.386,170.902 168.124,171.43 166.721,168.741 166.489,168.225 164.685,163.478 164.549,163.064 164.332,162.287 " fill="none" stroke-width="0.5" stroke="rgb(0,0,0)" />
	<polygon points="80.2255,178.484 79.7426,178.995 77.5456,181.003 79.0144,182.11 79.3051,181.076 79.4383,180.672 80.3071,178.384 " fill="none" stroke-width="0.5" stroke="rgb(0,0,0)" />
	<polygon points="343.231,162.072 342.436,162.733 338.329,165.456 337.516,165.889 333.664,167.488 333.759,167.566 334.406,168.213 335.218,169.194 335.734,169.959 336.347,171.085 336.362,171.119 337.505,169.737 338.146,169.098 339.805,167.726 340.562,167.214 342.462,166.177 343.325,165.81 345.417,165.153 346.365,164.958 347.731,164.818 347.323,164.068 346.957,163.2 346.57,161.956 346.378,161.013 346.243,159.677 346.243,158.962 " fill="none" stroke-width="0.5" stroke="rgb(0,0,0)" />
	<polygon points="201.656,162.178 201.753,162.791 202.203,162.592 202.107,162.5 201.628,161.829 " fill="none" stroke-width="0.5" stroke="rgb(0,0,0)" />
	<polygon points="85.3278,148.77 85.7554,149.148 86.3532,149.581 86.8898,149.953 87.1448,149.138 86.2508,148.954 85.2055,148.627 " fill="none" stroke-width="0.5" stroke="rgb(0,0,0)" />
	<polygon points="123.988,106.416 122.523,111.709 120.933,118.066 120.912,118.149 119.186,124.565 119.092,124.873 117.175,130.469 116.841,131.225 114.992,134.591 115.26,134.447 116.518,134.111 119.82,134.415 121.112,135.03 123.39,137.318 124.155,138.94 124.512,140.007 124.99,142.301 125.027,142.5 125.432,144.959 125.909,146.951 126.376,147.954 126.496,148.065 127.022,148.186 127.395,148.013 127.892,147.682 128.47,147.156 129.098,146.387 129.744,145.322 130.389,143.847 130.724,142.829 131.057,141.674 131.342,140.525 131.578,139.392 131.762,138.287 131.893,137.22 131.971,136.205 131.997,135.258 131.955,133.9 131.84,132.851 131.748,132.446 131.288,132.554 130.567,132.806 129.8,133.153 129.063,133.553 128.428,133.955 127.978,134.287 127.572,134.647 124.756,135.841 121.792,135.092 119.881,132.705 119.956,129.211 121.8,124.781 122.13,124.131 124.472,120.278 124.918,119.661 127.701,116.39 128.253,115.839 131.264,113.286 130.599,112.956 129.081,111.808 128.454,111.24 126.952,109.618 126.74,109.373 125.246,107.523 124.103,106.123 " fill="none" stroke-width="0.5" stroke="rgb(0,0,0)" />
	<polygon points="95.0521,109.043 93.0443,110.996 92.964,111.072 90.7874,113.093 90.4711,113.362 88.2079,115.125 87.517,115.573 85.1789,116.82 83.8477,117.294 81.4464,117.767 80.0085,117.831 78.8117,117.703 77.9626,117.5 78.2594,119.247 78.3194,119.778 78.5081,123.093 78.5147,123.473 78.483,124.9 78.4739,125.107 78.3828,126.496 78.3658,126.693 78.2216,128.039 78.1979,128.226 78.0067,129.527 77.9774,129.704 77.7454,130.956 77.7114,131.123 77.4448,132.322 77.4068,132.48 77.1119,133.622 77.0705,133.772 76.7534,134.854 75.0035,137.362 72.7425,138.035 73.4157,138.105 74.4755,138.208 74.5002,138.211 75.4922,138.312 75.5937,138.324 76.4881,138.434 76.6977,138.465 77.3864,138.581 77.3281,138.007 77.3281,137.037 77.4706,135.633 77.6637,134.689 78.0722,133.379 78.4376,132.515 79.0835,131.327 79.5968,130.567 80.4514,129.53 81.0941,128.886 82.1288,128.03 82.8895,127.514 84.0756,126.866 84.9418,126.499 86.2507,126.089 87.1981,125.894 88.6012,125.751 89.5738,125.751 90.9788,125.894 91.9249,126.088 93.2358,126.498 94.1012,126.865 95.2891,127.513 96.0497,128.027 97.086,128.884 97.7292,129.527 98.5852,130.564 99.0992,131.324 99.7462,132.512 100.113,133.377 100.522,134.687 100.715,135.632 100.858,137.036 100.858,138.007 100.715,139.412 100.522,140.357 100.122,141.638 101.024,141.823 102.333,142.232 103.198,142.599 104.384,143.245 105.144,143.759 106.179,144.615 106.821,145.258 107.677,146.293 108.191,147.053 108.341,147.327 108.481,145.987 108.525,145.671 108.829,143.911 108.912,143.523 109.37,141.758 109.541,141.228 110.171,139.602 110.553,138.831 110.955,138.174 110.431,138.488 107.445,139.146 105.723,138.621 103.086,137.232 101.006,135.084 99.2256,131.423 98.8595,130.378 97.6929,125.202 97.6179,124.783 96.8242,118.848 96.8114,118.745 96.1589,112.898 95.5208,108.623 " fill="none" stroke-width="0.5" stroke="rgb(0,0,0)" />
	<polygon points="314.679,122.244 312.971,122.705 311.463,123.408 310.157,124.308 309.069,125.35 308.226,126.467 307.647,127.57 307.19,129.014 305.386,131.484 304.549,131.735 305.441,132.439 306.72,133.287 307.926,133.932 309.087,134.402 310.244,134.725 311.45,134.918 312.795,134.986 313.225,134.973 313.789,134.929 314.422,134.859 315.101,134.772 315.791,134.679 315.83,134.673 316.485,134.591 316.612,134.576 317.201,134.518 317.466,134.499 317.973,134.476 318.457,134.48 319.021,134.512 319.632,134.586 320.14,134.681 320.843,134.869 321.29,135.026 322.078,135.385 322.457,135.601 323.283,136.195 323.587,136.468 324.344,137.33 324.569,137.658 325.119,138.726 325.259,139.108 325.521,140.228 325.569,140.661 325.573,141.676 325.493,142.45 325.359,143.188 325.132,144.047 325.044,144.316 326.766,144.179 329.725,143.446 332.498,142.215 333.351,141.617 332.204,141.974 329.328,140.935 328.062,139.406 327.562,138.455 327.05,137.649 326.429,136.832 325.697,136.021 324.852,135.233 323.888,134.482 322.801,133.783 321.391,133.049 320.973,132.834 320.357,132.455 319.994,132.192 319.425,131.708 319.124,131.408 318.636,130.84 318.394,130.509 318.008,129.887 317.824,129.532 317.547,128.887 317.418,128.514 317.245,127.872 317.169,127.486 317.088,126.864 317.064,126.471 317.08,125.671 317.157,124.928 317.324,124.08 317.548,123.31 317.794,122.651 317.997,122.209 317.178,122.095 316.687,122.068 " fill="none" stroke-width="0.5" stroke="rgb(0,0,0)" />
	<polygon points="57.7077,137.734 56.9965,138.993 57.2478,138.923 57.6104,138.839 60.1056,138.355 60.4337,138.303 62.8363,138.008 63.1156,137.982 65.4228,137.835 65.6415,137.826 65.9423,137.821 62.1635,137.139 61.5397,136.983 57.184,135.576 57.1681,135.569 " fill="none" stroke-width="0.5" stroke="rgb(0,0,0)" />
	<polygon points="42.8231,122.421 43.7834,124.752 45.0945,126.826 46.7691,128.665 47.4225,129.175 44.8619,125.95 44.2051,124.847 42.4759,120.789 42.3044,120.157 " fill="none" stroke-width="0.5" stroke="rgb(0,0,0)" />
	<polygon points="144.378,98.59 143.824,101.598 143.247,104.825 143.163,105.206 142.416,108.032 142.363,108.164 144.693,107.634 145.407,107.527 149.537,107.225 150.427,107.243 155.304,107.795 156.426,108.061 158.829,108.948 155.411,106.079 155.378,106.051 150.928,102.248 146.985,99.0771 144.671,97.5514 " fill="none" stroke-width="0.5" stroke="rgb(0,0,0)" />
	<polygon points="325.903,98.3216 324.886,99.7908 324.747,99.9814 324.632,100.132 327.528,100.725 328.139,100.893 330.879,101.844 331.402,102.061 333.647,103.151 334.041,103.365 335.837,104.456 336.051,104.594 336.998,105.239 337.479,104.988 337.656,104.9 338.25,104.62 338.721,104.428 339.291,104.229 340.207,104.009 340.749,103.934 341.487,103.958 341.307,103.907 337.113,102.423 336.686,102.249 333.037,100.548 332.761,100.408 329.653,98.7075 329.558,98.6539 327.087,97.2277 326.776,97.0676 " fill="none" stroke-width="0.5" stroke="rgb(0,0,0)" />
	<polygon points="69.6318,91.4293 64.5491,94.1044 58.8339,97.2575 58.7965,97.2778 58.4446,97.468 58.6435,97.4717 62.7294,98.0363 64.0824,98.4322 67.4649,99.992 68.591,100.717 71.3189,103.071 71.3332,103.087 71.4455,101.751 71.4599,101.606 71.7112,99.4174 71.7199,99.3458 72.0079,97.1305 72.0088,97.1236 72.2929,94.9628 72.5324,92.947 72.6928,91.1526 72.7339,90.048 " fill="none" stroke-width="0.5" stroke="rgb(0,0,0)" />
	<polygon points="395.146,78.6653 394.742,79.6003 390.765,86.6364 390.178,87.4592 389.882,87.7924 390.307,87.5343 390.619,87.3602 392.507,86.3968 394.423,85.3014 396.067,84.0607 397.296,82.661 398.099,80.9815 398.468,78.3913 398.429,77.3452 398.297,76.0293 398.101,74.7157 397.866,73.4343 397.617,72.2052 397.617,72.2034 397.436,71.3089 " fill="none" stroke-width="0.5" stroke="rgb(0,0,0)" />
	<polygon points="106.472,57.2487 105.285,57.818 103.678,58.9237 101.864,60.401 99.997,61.9996 99.8775,62.0986 98.0961,63.5265 97.6358,63.853 96.0179,64.863 94.725,65.4259 93.7415,65.6909 94.1422,66.2847 94.4213,66.8328 94.7573,67.6857 94.9467,68.345 95.0866,69.0023 95.1943,69.7689 95.2373,70.2486 95.2714,71.1186 95.2651,71.6151 95.1379,73.5911 95.0935,74.0024 94.7581,76.2142 94.7192,76.4356 94.3821,78.1213 94.418,78.0679 94.626,77.7815 96.7114,75.1222 97.2768,74.517 99.366,72.636 101.005,71.6681 103.064,70.9546 106.121,70.9254 107.509,71.6444 108.946,72.7181 110.697,75.2761 111.485,78.1067 111.642,78.9662 111.922,82.1004 112.589,79.9152 112.887,79.1695 114.162,76.6195 112.841,76.1249 111.416,75.2767 109.284,72.5657 108.595,70.3293 108.399,69.3155 108.134,66.1537 108.122,65.9528 107.977,62.4582 107.68,59.367 107.171,57.4844 106.992,57.2451 106.804,57.1883 " fill="none" stroke-width="0.5" stroke="rgb(0,0,0)" />
	<polygon points="171.766,77.1727 173.336,80.8742 173.493,80.3995 173.568,80.2219 173.945,79.5077 174.046,79.3484 174.592,78.6471 174.719,78.5124 175.475,77.8594 175.625,77.7554 176.61,77.2282 176.78,77.1612 177.94,76.8654 177.964,76.8624 173.572,75.4663 170.918,74.7706 " fill="none" stroke-width="0.5" stroke="rgb(0,0,0)" />
	<polygon points="125.955,57.9815 125.141,60.1489 124.369,63.3571 123.632,66.852 123.566,67.1242 122.72,70.2312 122.345,71.1876 121.251,73.2873 121.623,73.246 123.162,73.794 125.021,74.9981 126.403,76.4427 127.002,77.2118 128.281,79.2542 128.312,79.3071 128.312,78.1149 128.312,78.0749 128.324,76.6927 128.327,76.5535 128.374,75.3031 128.39,75.0482 128.49,73.9458 128.549,73.5157 128.721,72.5774 128.905,71.8761 129.166,71.1181 129.694,70.0449 130.063,69.4835 131.311,68.1964 131.807,67.8477 133.685,67.0553 133.746,67.044 133.637,66.9256 131.938,64.7704 131.809,64.5994 130.067,62.1752 128.372,59.9303 126.879,58.2971 126.131,57.7515 " fill="none" stroke-width="0.5" stroke="rgb(0,0,0)" />
	<polygon points="146.028,68.0917 145.792,68.3975 145.144,69.0863 144.859,69.3347 144.072,69.8925 143.746,70.0773 143.179,70.3257 143.238,70.3644 143.647,70.6637 147.074,73.4606 147.242,73.6046 149.472,75.6031 148.1,72.4106 148.022,72.2169 146.427,68.0059 146.307,67.6457 " fill="none" stroke-width="0.5" stroke="rgb(0,0,0)" />
	<polygon points="398.788,59.3383 398.785,60.233 398.346,64.7744 398.551,64.4898 398.731,64.2885 399.423,63.6503 399.635,63.49 400.402,63.0167 400.64,62.8997 401.458,62.5849 401.712,62.5131 402.574,62.3526 402.836,62.3282 405.034,62.6392 406.144,63.0745 407.462,63.8542 408.84,65.002 409.115,65.249 410.754,66.8424 412.57,68.5472 414.497,70.0944 416.518,71.3217 418.621,72.113 421.099,72.4257 421.57,72.4036 422.382,72.2803 423.168,72.0505 423.808,71.7337 424.276,71.3538 424.65,70.8351 424.986,69.923 425.105,68.7878 424.445,66.5952 422.343,64.4248 418.437,62.1138 413.463,60.0532 408.229,58.3178 403.526,56.8729 403.301,56.7974 399.938,55.579 398.471,54.7284 398.362,54.6366 " fill="none" stroke-width="0.5" stroke="rgb(0,0,0)" />
	<polygon points="84.2517,60.0908 83.8831,60.5475 80.8333,63.886 80.6604,64.0657 79.9385,64.7778 80.6169,64.4652 81.0028,64.3072 83.7563,63.3178 84.6099,63.0971 86.3357,62.8167 85.9538,62.0895 85.8434,61.7889 85.5765,60.6482 85.5374,60.2861 85.6762,58.5176 85.8645,57.8215 " fill="none" stroke-width="0.5" stroke="rgb(0,0,0)" />
	<polygon points="52.9283,61.0349 53.9453,62.9743 54.0464,63.3657 54.1232,63.2776 55.8426,60.992 52.7059,60.7777 " fill="none" stroke-width="0.5" stroke="rgb(0,0,0)" />
	<polygon points="142.199,48.3243 142.266,48.9017 142.699,50.4431 143.424,52.3519 144.334,54.4605 144.929,55.8028 145.021,55.4399 145.294,54.6334 145.682,53.7752 146.078,53.0882 146.755,52.1813 147.282,51.6258 148.24,50.8469 148.906,50.4351 149.867,49.995 149.256,49.8397 149.168,49.8164 147.547,49.3715 145.953,48.9466 144.481,48.6053 143.212,48.3918 142.204,48.324 " fill="none" stroke-width="0.5" stroke="rgb(0,0,0)" />
	<polygon points="160.459,40.9455 161.126,42.5355 161.47,44.9321 161.423,45.3503 161.126,46.5545 160.993,46.8968 160.343,48.0578 160.135,48.3305 159.263,49.2136 158.994,49.4228 158.116,49.9661 157.894,50.0725 160.09,50.6549 160.405,50.7499 163.783,51.8984 163.915,51.9453 167.447,53.2619 167.45,53.2632 170.911,54.5566 174.049,55.6313 174.639,55.7899 174.23,55.1979 171.101,51.6988 167.287,47.8529 163.386,43.976 163.265,43.8521 160.207,40.5854 " fill="none" stroke-width="0.5" stroke="rgb(0,0,0)" />
	<polygon points="92.0959,46.2861 90.3347,46.5453 88.4646,46.8573 86.5738,47.1768 86.5007,47.1885 86.0615,47.2558 86.2261,47.3875 87.3527,49.1406 87.8833,53.2078 87.5898,54.1187 87.6487,54.0186 87.9276,53.5973 89.4401,51.5544 89.5438,51.4194 91.2641,49.2604 92.9045,47.1628 93.6327,46.12 " fill="none" stroke-width="0.5" stroke="rgb(0,0,0)" />
	<polygon points="445.619,35.6904 445.516,36.0586 444.928,37.8827 444.887,38.005 444.227,39.8784 443.609,41.7382 443.112,43.5696 442.781,45.4191 442.66,47.3546 442.709,48.109 442.833,48.6831 442.982,49.0501 443.113,49.2453 443.239,49.3616 443.468,49.4893 443.966,49.6337 444.713,49.6975 445.252,49.6216 445.345,49.5754 445.501,49.4215 445.816,48.8767 446.172,47.842 446.459,46.3827 446.632,44.6087 446.687,42.6209 446.653,40.9845 446.564,39.4191 446.435,37.9326 446.283,36.5185 446.126,35.1776 446.124,35.1554 446.002,34.0709 " fill="none" stroke-width="0.5" stroke="rgb(0,0,0)" />
	<polygon points="186.325,37.1258 185.64,37.6416 185.873,38.2666 186.358,38.9051 186.375,38.3037 186.702,37.544 187.478,36.5463 " fill="none" stroke-width="0.5" stroke="rgb(0,0,0)" />
	<polygon points="468.028,97.8591 468.87,98.1145 470.966,98.9665 471.837,99.4302 473.56,100.589 474.35,101.255 475.719,102.686 476.331,103.478 477.364,105.147 477.767,105.96 478.482,107.832 478.702,108.587 479.117,110.628 479.205,111.29 479.339,113.466 479.292,114.498 478.542,119.331 478.187,120.541 476.103,125.238 476.702,125.287 478.354,126.206 479.684,127.3 480.823,128.647 480.823,181.714 480.158,184.219 479.837,185.082 478.509,187.818 476.891,189.691 475.312,190.765 471.466,191.457 468.132,190.638 466.883,190.137 462.314,187.507 461.777,187.148 456.454,183.043 456.102,182.743 450.509,177.5 450.206,177.189 444.825,171.143 444.515,170.755 439.829,164.242 439.481,163.68 435.974,157.037 435.605,156.119 433.759,149.681 433.896,146.627 434.89,145.43 434.441,145.369 433.872,145.256 431.904,144.739 431.193,144.491 429.514,143.753 428.662,143.27 427.302,142.302 426.405,141.473 425.395,140.267 424.67,139.093 424.042,137.641 423.983,137.428 423.954,137.581 423.327,139.195 421.588,142.019 420.701,143.08 417.96,145.532 417.133,146.126 413.518,148.183 412.833,148.504 408.472,150.143 407.907,150.317 402.928,151.516 402.444,151.606 396.977,152.342 396.542,152.381 390.713,152.631 389.99,152.607 381.722,151.711 380.707,151.488 373.36,149.012 372.466,148.605 366.097,144.872 365.363,144.343 360.026,139.674 359.446,139.069 355.198,133.786 354.745,133.113 351.642,127.536 351.296,126.759 349.393,121.211 349.17,120.247 348.523,115.048 348.498,114.118 348.524,113.757 348.628,113.044 348.696,112.74 348.939,111.968 349.044,111.713 349.423,110.977 349.558,110.763 350.009,110.158 350.168,109.977 350.593,109.549 350.77,109.392 351.088,109.133 351.277,108.993 351.444,108.874 351.638,108.742 352.789,108.168 353.97,107.765 355.03,107.534 356.87,107.345 357.122,107.326 359.525,107.208 362.346,107.02 365.513,106.634 369.025,105.921 372.862,104.749 377.11,102.933 377.557,102.706 377.83,102.578 378.416,102.326 378.696,102.215 379.279,102.006 379.565,101.913 380.142,101.746 380.433,101.672 381.002,101.545 381.297,101.489 381.855,101.401 382.153,101.363 382.7,101.312 383,101.293 383.532,101.276 384.408,101.329 386.373,101.629 387.988,102.182 389.405,102.973 390.574,103.889 391.619,105.008 392.118,105.642 392.963,106.924 392.999,106.979 393.631,107.967 393.824,108.19 394.007,108.22 394.739,108.152 395.98,107.859 397.483,107.367 399.153,106.738 400.873,106.072 400.995,106.027 402.646,105.439 402.989,105.331 404.509,104.915 405.217,104.777 406.564,104.62 408.721,104.861 410.762,105.582 412.409,106.571 414.552,108.537 415.184,109.243 417.314,112.16 417.625,112.645 419.626,116.216 419.821,116.604 421.577,120.537 421.726,120.911 423.123,124.908 423.254,125.35 424.177,129.118 424.29,129.77 424.314,130.012 424.773,129.07 425.246,128.296 425.984,127.309 426.656,126.583 427.665,125.695 428.518,125.094 429.021,124.817 428.829,124.733 428.03,124.291 427.037,123.609 426.279,122.964 425.372,122.012 424.774,121.242 423.983,119.976 423.597,119.214 423.093,117.953 422.914,117.415 422.542,116.028 422.48,115.77 422.175,114.314 422.172,114.303 421.891,112.948 421.615,111.88 421.351,111.179 421.168,110.869 420.622,110.317 419.278,107.571 419.864,104.57 422.144,102.532 425.227,102.293 426.205,102.544 427.063,102.708 427.957,102.831 428.876,102.917 429.81,102.971 430.747,103 431.68,103.011 432.409,103.013 434.837,102.82 437.206,102.316 439.706,101.547 442.303,100.603 444.914,99.6192 445.047,99.5715 447.57,98.7042 447.938,98.594 450.33,97.9805 451.027,97.8556 453.271,97.6229 454.169,97.6142 455.477,97.7242 456.399,97.8936 457.482,98.2044 458.481,98.6178 459.354,99.1005 460.285,99.7724 460.488,99.9599 460.789,99.1021 463.338,97.4131 465.542,97.3486 " fill="none" stroke-width="0.5" stroke="rgb(0,0,0)" />
</svg>
