<?xml version="1.0" standalone="no" ?>
<!DOCTYPE svg PUBLIC "-//W3C//DTD SVG 1.1//EN" "http://www.w3.org/Graphics/SVG/1.1/DTD/svg11.dtd">
<svg width="500px" height="500px" xmlns="http://www.w3.org/2000/svg" version="1.1" >
	<polygon points="470.423,280.994 469.617,295.355 467.207,310.571 463.137,326.634 457.384,343.233 449.934,360.067 440.777,376.844 429.908,393.282 417.321,409.101 403.011,424.033 386.971,437.812 369.186,450.182 349.635,460.887 328.285,469.676 305.095,476.29 280.014,480.463 252.984,481.919 226.648,480.545 202.101,476.595 179.319,470.317 158.271,461.95 138.928,451.726 121.274,439.871 105.298,426.614 90.9969,412.185 78.3739,396.817 67.4343,380.752 58.1841,364.236 50.6284,347.52 44.7694,330.863 40.6049,314.529 38.1248,298.79 37.2905,283.62 37.2905,29.8962 38.462,29.8872 49.9537,29.799 61.4454,29.7108 72.937,29.6227 84.4287,29.5345 95.9204,29.4463 107.412,29.3581 118.904,29.2699 130.395,29.1818 153.379,29.0054 164.87,28.9172 187.854,28.7409 200.337,28.6451 200.332,31.0431 200.332,31.0431 200.307,43.9419 200.281,56.8407 200.256,69.7395 200.256,69.7395 200.23,82.6383 200.179,108.436 200.179,108.436 200.154,121.335 200.103,147.132 200.103,147.132 200.078,160.031 200.052,172.93 200.052,172.93 200.027,185.829 200.001,198.727 199.976,211.626 199.976,211.626 199.95,224.525 199.951,224.626 200.038,235.92 200.039,235.998 200.203,246.815 200.206,246.957 200.503,257.263 200.512,257.479 200.997,267.241 201.016,267.547 201.744,276.731 201.786,277.146 202.812,285.719 202.893,286.266 204.273,294.194 204.422,294.903 206.211,302.153 206.476,303.05 208.73,309.589 209.182,310.691 211.956,316.485 212.687,317.769 216.036,322.785 217.132,324.159 221.112,328.364 222.587,329.655 227.253,333.014 228.992,334.027 234.398,336.508 236.185,337.138 242.388,338.708 244.022,338.985 251.077,339.61 251.947,329.779 252.626,339.625 259.887,339.125 261.529,338.878 267.876,337.401 269.707,336.791 275.202,334.372 277.011,333.35 281.717,330.028 283.26,328.694 287.238,324.505 288.377,323.072 291.69,318.053 292.437,316.718 295.146,310.905 295.596,309.771 297.764,303.201 298.019,302.289 299.708,295 299.847,294.29 301.118,286.317 301.189,285.779 302.105,277.159 302.14,276.76 302.763,267.531 302.778,267.245 303.169,257.443 303.175,257.251 303.397,246.911 303.399,246.798 303.514,235.959 303.515,235.913 303.585,224.61 303.585,224.525 303.559,211.626 303.507,185.828 303.482,172.93 303.482,172.93 303.456,160.031 303.404,134.233 303.404,134.233 303.378,121.334 303.301,82.638 303.301,82.638 303.275,69.7392 303.197,31.0428 303.197,31.0428 303.192,28.4981 304.591,28.4891 316.345,28.4135 316.345,28.4135 328.098,28.3379 339.851,28.2624 351.604,28.1868 351.604,28.1868 363.358,28.1113 375.111,28.0357 386.864,27.9601 386.864,27.9601 410.371,27.809 422.124,27.7335 433.877,27.6579 445.63,27.5823 457.384,27.5068 469.137,27.4312 470.423,27.4229 " fill="none" stroke-width="0.5" stroke="rgb(0,0,0)" />
	<polygon points="318.674,422.629 318.78,422.979 319.11,424.432 319.193,424.833 319.261,425.194 319.81,425.623 320.676,426.359 320.949,426.63 321.51,426.161 322.255,425.594 322.956,425.109 323.702,424.656 323.693,424.625 323.304,421.809 323.304,421.103 " fill="none" stroke-width="0.5" stroke="rgb(0,0,0)" />
	<polygon points="107.066,168.172 107.036,168.189 107.205,168.321 110.203,170.987 111.267,172.083 111.738,172.645 111.868,172.462 112.2,172.099 111.041,171.04 109.595,169.408 108.175,167.421 " fill="none" stroke-width="0.5" stroke="rgb(0,0,0)" />
	<polygon points="424.434,147.254 422.913,148.615 425.908,149.5 427.828,150.283 428.336,150.552 428.263,149.32 427.26,148.88 425.416,147.833 424.497,147.179 " fill="none" stroke-width="0.5" stroke="rgb(0,0,0)" />
	<polygon points="90.5959,120.226 91.3691,120.305 91.2977,119.771 " fill="none" stroke-width="0.5" stroke="rgb(0,0,0)" />
	<polygon points="186.118,117.252 187.035,116.972 186.629,116.492 " fill="none" stroke-width="0.5" stroke="rgb(0,0,0)" />
</svg>
