<?xml version="1.0" standalone="no" ?>
<!DOCTYPE svg PUBLIC "-//W3C//DTD SVG 1.1//EN" "http://www.w3.org/Graphics/SVG/1.1/DTD/svg11.dtd">
<svg width="500px" height="500px" xmlns="http://www.w3.org/2000/svg" version="1.1" >
	<polygon points="472.073,90.7427 467.856,93.7913 468.822,93.9898 470.358,94.4554 472.073,95.1529 472.073,281.041 471.26,295.531 468.825,310.904 464.72,327.108 458.921,343.838 451.415,360.797 442.192,377.696 431.244,394.252 418.565,410.188 404.147,425.232 387.982,439.119 370.056,451.587 350.347,462.378 328.827,471.237 305.458,477.902 280.194,482.106 252.985,483.571 226.474,482.188 201.75,478.21 178.794,471.884 157.578,463.45 138.081,453.144 120.285,441.195 104.182,427.833 89.7707,413.292 77.0518,397.807 66.0299,381.621 56.7098,364.98 49.0955,348.134 43.1887,331.341 39.0904,315.268 39.4557,314.521 38.9316,314.511 36.4819,298.964 35.6405,283.665 35.6405,28.2588 38.4494,28.2372 49.941,28.1491 61.4327,28.0609 72.9244,27.9727 84.4161,27.8845 95.9077,27.7963 107.399,27.7082 118.891,27.62 130.383,27.5318 141.874,27.4436 153.366,27.3555 164.858,27.2673 176.349,27.1791 187.841,27.0909 201.99,26.9824 201.982,31.0464 201.982,31.0464 201.956,43.9452 201.931,56.844 201.906,69.7428 201.906,69.7428 201.88,82.6416 201.829,108.439 201.829,108.439 201.804,121.338 201.753,147.136 201.753,147.136 201.728,160.034 201.702,172.933 201.702,172.933 201.677,185.832 201.651,198.731 201.626,211.63 201.626,211.63 201.6,224.528 201.601,224.613 201.688,235.908 201.689,235.973 201.853,246.79 201.856,246.909 202.153,257.215 202.16,257.397 202.645,267.159 202.661,267.417 203.389,276.601 203.424,276.949 204.451,285.522 204.518,285.983 205.899,293.911 206.024,294.507 207.813,301.758 208.036,302.512 210.29,309.051 210.67,309.978 213.444,315.772 214.059,316.853 217.408,321.869 218.33,323.025 222.31,327.23 223.552,328.316 228.217,331.675 229.68,332.527 235.087,335.009 236.59,335.539 242.793,337.108 244.168,337.342 251.222,337.966 251.764,331.849 252.144,332.636 252.513,337.979 259.773,337.478 261.155,337.271 267.502,335.794 269.042,335.28 274.538,332.862 276.059,332.002 280.765,328.68 282.064,327.557 286.042,323.369 287,322.163 290.313,317.144 290.941,316.021 293.65,310.208 294.029,309.254 296.197,302.684 296.412,301.917 298.101,294.627 298.217,294.03 299.488,286.058 299.549,285.604 300.465,276.985 300.494,276.649 301.116,267.419 301.129,267.18 301.521,257.377 301.526,257.216 301.748,246.876 301.749,246.781 301.865,235.941 301.865,235.903 301.935,224.6 301.935,224.528 301.909,211.629 301.883,198.73 301.857,185.832 301.832,172.933 301.832,172.933 301.806,160.034 301.754,134.236 301.754,134.236 301.728,121.338 301.651,82.6413 301.651,82.6413 301.625,69.7425 301.547,31.0461 301.547,31.0461 301.539,26.8587 304.581,26.8391 316.334,26.7635 328.087,26.688 339.841,26.6124 351.594,26.5369 363.347,26.4613 375.1,26.3857 386.854,26.3102 410.36,26.1591 422.113,26.0835 433.867,26.0079 445.62,25.9324 457.373,25.8568 469.126,25.7813 472.073,25.7623 " fill="none" stroke-width="0.5" stroke="rgb(0,0,0)" />
	<polygon points="306.364,468.628 306.605,468.672 307.274,468.865 308.729,469.491 308.355,468.575 307.758,466.576 " fill="none" stroke-width="0.5" stroke="rgb(0,0,0)" />
	<polygon points="193.289,443.339 193.712,444.586 194.093,446.063 194.561,446.166 196.038,446.403 197.458,446.551 198.576,446.594 200.068,446.512 201.428,446.273 202.575,445.898 203.445,445.436 204.076,444.917 204.594,444.247 204.689,444.038 202.972,444.167 201.634,444.164 195.416,443.675 193.936,443.43 193.253,443.255 " fill="none" stroke-width="0.5" stroke="rgb(0,0,0)" />
	<polygon points="316.905,421.475 316.577,421.545 316.816,422.173 317.171,423.346 317.501,424.798 317.571,425.136 317.758,426.139 318.192,426.452 318.742,426.881 319.608,427.617 320.587,428.59 320.878,428.93 321.417,428.415 321.859,428.019 322.567,427.428 323.195,426.95 323.895,426.465 324.795,425.919 325.485,425.555 325.662,425.479 325.631,425.42 325.281,424.178 324.954,421.809 324.954,418.822 " fill="none" stroke-width="0.5" stroke="rgb(0,0,0)" />
	<polygon points="167.356,413.436 167.362,414.712 167.1,418.534 169.158,418.751 169.173,418.58 169.509,416.83 169.605,416.511 170.423,414.627 170.58,414.357 171.08,413.701 169.015,412.619 168.331,412.22 167.205,411.493 " fill="none" stroke-width="0.5" stroke="rgb(0,0,0)" />
	<polygon points="273.517,415.559 273.822,415.507 273.927,415.491 272.484,414.637 " fill="none" stroke-width="0.5" stroke="rgb(0,0,0)" />
	<polygon points="259.398,405.991 261.914,407.247 262.483,407.557 264.176,408.565 259.941,404.656 " fill="none" stroke-width="0.5" stroke="rgb(0,0,0)" />
	<polygon points="350.609,396.953 351.714,396.892 351.127,396.089 " fill="none" stroke-width="0.5" stroke="rgb(0,0,0)" />
	<polygon points="204.624,391.161 205.098,392.218 206.566,390.681 205.554,390.67 204.281,390.53 " fill="none" stroke-width="0.5" stroke="rgb(0,0,0)" />
	<polygon points="244.502,374.511 245.34,375.213 245.092,373.828 245.083,373.729 " fill="none" stroke-width="0.5" stroke="rgb(0,0,0)" />
	<polygon points="82.8965,368.633 81.8445,368.708 81.511,368.711 81.7229,369.247 82.1046,371.768 82.6873,371.249 83.8224,370.393 84.5025,369.961 83.5763,369.008 83.2389,368.588 " fill="none" stroke-width="0.5" stroke="rgb(0,0,0)" />
	<polygon points="118.284,360.35 118.18,360.702 118.74,360.651 118.337,360.065 " fill="none" stroke-width="0.5" stroke="rgb(0,0,0)" />
	<polygon points="394.687,343.153 393.917,343.706 392.896,344.359 390.671,345.375 389.836,345.623 389.159,345.678 389.627,347.006 389.697,347.311 392.266,345.159 394.365,343.855 395.329,343.431 395.286,343.378 394.95,342.942 " fill="none" stroke-width="0.5" stroke="rgb(0,0,0)" />
	<polygon points="59.9824,341.569 61.1321,343.418 61.6559,341.829 62.1389,340.759 61.1121,340.462 59.788,339.976 " fill="none" stroke-width="0.5" stroke="rgb(0,0,0)" />
	<polygon points="157.834,339.123 156.376,340.249 155.704,340.662 156.37,341.066 157.416,341.81 158.84,342.989 158.856,342.506 158.896,341.909 159.075,340.144 159.172,339.458 159.478,337.78 159.547,337.485 " fill="none" stroke-width="0.5" stroke="rgb(0,0,0)" />
	<polygon points="415.049,334.572 415.177,335.35 415.224,335.678 415.382,336.948 415.437,337.566 415.497,338.695 415.506,339.412 415.497,339.739 417.026,339.869 416.218,338.295 415.35,334.539 " fill="none" stroke-width="0.5" stroke="rgb(0,0,0)" />
	<polygon points="165.375,327.85 165.344,327.935 165.449,327.857 167.09,327.097 166.011,325.464 " fill="none" stroke-width="0.5" stroke="rgb(0,0,0)" />
	<polygon points="75.6004,315.805 75.3241,318.363 75.3481,319.212 75.4002,319.706 75.637,319.393 77.0548,317.854 78.3159,316.727 80.0169,315.48 80.088,315.437 79.0956,314.792 77.6666,313.651 76.4675,312.48 " fill="none" stroke-width="0.5" stroke="rgb(0,0,0)" />
	<polygon points="161.15,299.983 159.967,300.139 159.878,300.141 160.15,300.615 161.536,303.383 162.009,300.453 162.163,299.743 " fill="none" stroke-width="0.5" stroke="rgb(0,0,0)" />
	<polygon points="458.498,291.121 458.48,291.144 458.539,291.154 458.525,291.099 " fill="none" stroke-width="0.5" stroke="rgb(0,0,0)" />
	<polygon points="161.111,251.482 161.576,253.106 161.742,253.786 162.107,255.597 162.181,256.019 162.473,257.947 162.505,258.182 162.666,259.484 163.246,257.464 164.916,254.3 165.596,253.478 162.559,252.704 161.013,251.322 " fill="none" stroke-width="0.5" stroke="rgb(0,0,0)" />
	<polygon points="158.171,247.211 158.497,247.392 158.224,246.673 " fill="none" stroke-width="0.5" stroke="rgb(0,0,0)" />
	<polygon points="327.767,237.258 327.275,237.258 327.784,237.833 329.274,240.322 328.931,239.511 328.227,237.25 328.219,237.212 " fill="none" stroke-width="0.5" stroke="rgb(0,0,0)" />
	<polygon points="311.989,227.663 312.603,228.028 312.395,227.534 " fill="none" stroke-width="0.5" stroke="rgb(0,0,0)" />
	<polygon points="90.1221,216.33 90.6661,217.626 90.9179,218.394 91.212,219.553 91.3182,220.137 92.6887,219.694 93.4177,219.571 96.086,219.536 96.7297,219.626 98.8682,220.241 99.0473,219.047 99.5536,216.819 98.091,216.98 96.1629,216.979 92.9736,216.622 91.0111,216.17 89.8197,215.746 " fill="none" stroke-width="0.5" stroke="rgb(0,0,0)" />
	<polygon points="432.996,215.59 432.204,215.742 429.99,216.062 432.322,217.997 433.449,219.168 433.746,218.631 436.269,214.977 436.442,214.762 " fill="none" stroke-width="0.5" stroke="rgb(0,0,0)" />
	<polygon points="107.663,165.785 106.276,166.723 105.09,167.37 103.82,167.909 105.211,168.854 106.109,169.554 109.107,172.22 110.002,173.142 111.838,175.335 111.857,175.299 113.086,173.575 114.472,172.058 114.54,172.002 112.155,169.822 110.937,168.449 108.715,165.338 108.55,165.051 " fill="none" stroke-width="0.5" stroke="rgb(0,0,0)" />
	<polygon points="423.334,146.024 420.593,148.476 419.437,149.308 425.441,151.082 427.056,151.741 430.811,153.729 429.962,150.77 429.86,148.196 429.603,148.107 427.924,147.369 426.372,146.488 425.012,145.52 424.303,144.865 " fill="none" stroke-width="0.5" stroke="rgb(0,0,0)" />
	<polygon points="356.665,143.853 356.791,143.841 358.543,143.841 358.822,143.869 357.426,142.647 356.838,142.034 " fill="none" stroke-width="0.5" stroke="rgb(0,0,0)" />
	<polygon points="312.66,127.38 312.031,127.983 311.573,128.589 311.307,129.096 310.956,130.207 310.635,130.733 311.089,130.86 311.862,130.983 312.835,131.033 313.013,131.027 313.42,130.996 313.954,130.937 314.13,130.914 313.813,130.177 313.684,129.803 313.369,128.634 313.293,128.248 313.146,127.113 313.142,127.047 " fill="none" stroke-width="0.5" stroke="rgb(0,0,0)" />
	<polygon points="186.148,113.557 185.549,115.015 185.212,115.661 184.12,117.283 183.67,117.814 182.001,119.329 181.427,119.729 179.371,120.788 178.666,121.04 176.626,121.503 176.523,121.514 177.249,123.399 178.939,122.224 180.009,121.587 183.129,120.021 184.497,119.473 187.718,118.488 189.376,118.153 190.131,118.075 187.127,114.527 186.841,114.171 186.213,113.346 " fill="none" stroke-width="0.5" stroke="rgb(0,0,0)" />
	<polygon points="90.6352,118.241 89.3757,119.059 87.0376,120.306 84.6111,121.17 82.3801,121.609 82.4518,122.869 82.4589,123.282 83.7618,122.729 85.0707,122.319 86.7976,121.965 88.2007,121.822 89.9737,121.822 91.3788,121.965 93.1034,122.318 93.3118,122.383 92.909,119.372 92.8858,119.183 92.6091,116.703 " fill="none" stroke-width="0.5" stroke="rgb(0,0,0)" />
	<polygon points="415.162,65.5629 416.768,66.8525 418.253,67.7544 419.577,68.2523 420.687,68.3924 419.875,67.554 416.667,65.6559 414.151,64.6137 " fill="none" stroke-width="0.5" stroke="rgb(0,0,0)" />
	<polygon points="102.566,65.0002 102.348,65.1806 100.567,66.6085 99.7275,67.2037 98.8491,67.7521 98.9801,68.3679 99.7117,67.936 101.77,67.2225 104.24,66.9893 104.198,66.4828 104.175,66.1166 104.075,63.7079 " fill="none" stroke-width="0.5" stroke="rgb(0,0,0)" />
	<polygon points="127.797,66.2466 127.987,66.0499 127.872,65.8892 " fill="none" stroke-width="0.5" stroke="rgb(0,0,0)" />
	<polygon points="398.507,38.5958 399.181,40.214 400.165,39.7994 403.137,38.7728 403.709,38.5968 403.816,38.568 401.878,37.8336 397.995,36.7291 397.403,36.5809 " fill="none" stroke-width="0.5" stroke="rgb(0,0,0)" />
</svg>
