<?xml version="1.0" standalone="no" ?>
<!DOCTYPE svg PUBLIC "-//W3C//DTD SVG 1.1//EN" "http://www.w3.org/Graphics/SVG/1.1/DTD/svg11.dtd">
<svg width="500px" height="500px" xmlns="http://www.w3.org/2000/svg" version="1.1" >
	<polygon points="471.223,92.4059 469.832,93.4115 470.678,93.668 471.223,93.8897 471.223,281.017 470.414,295.44 467.992,310.732 463.904,326.864 458.13,343.526 450.652,360.421 441.463,377.257 430.556,393.752 417.924,409.628 403.562,424.614 387.461,438.446 369.608,450.863 349.98,461.61 328.548,470.433 305.271,477.072 280.101,481.26 252.984,482.72 226.564,481.342 201.931,477.378 179.064,471.077 157.935,462.678 138.517,452.413 120.794,440.513 104.757,427.205 90.4024,412.721 77.7329,397.297 66.7533,381.173 57.4693,364.596 49.8852,347.818 44.003,331.095 39.8204,314.69 37.3282,298.874 36.4905,283.642 36.4905,29.1023 38.4559,29.0872 49.9476,28.999 61.4392,28.9109 61.4392,28.9109 72.9309,28.8227 84.4226,28.7345 95.9143,28.6463 95.9143,28.6463 107.406,28.5581 118.898,28.47 130.389,28.3818 141.881,28.2936 153.373,28.2054 164.864,28.1173 176.356,28.0291 187.848,27.9409 201.138,27.8389 201.132,31.0447 201.132,31.0447 201.106,43.9435 201.081,56.8423 201.056,69.7411 201.056,69.7411 201.03,82.6399 200.979,108.437 200.979,108.437 200.954,121.336 200.903,147.134 200.903,147.134 200.878,160.033 200.852,172.931 200.852,172.931 200.827,185.83 200.801,198.729 200.776,211.628 200.776,211.628 200.75,224.527 200.751,224.62 200.838,235.914 200.839,235.986 201.003,246.803 201.006,246.934 201.303,257.24 201.311,257.439 201.796,267.201 201.814,267.484 202.542,276.668 202.58,277.051 203.607,285.623 203.681,286.129 205.061,294.057 205.199,294.711 206.988,301.961 207.233,302.789 209.487,309.328 209.904,310.345 212.677,316.14 213.352,317.325 216.701,322.341 217.713,323.609 221.693,327.814 223.055,329.005 227.72,332.365 229.326,333.3 234.732,335.781 236.382,336.363 242.584,337.932 244.093,338.188 251.147,338.813 251.91,330.197 251.987,330.356 252.571,338.827 259.832,338.326 261.348,338.099 267.695,336.621 269.385,336.058 274.88,333.64 276.55,332.696 281.255,329.374 282.68,328.143 286.658,323.954 287.71,322.631 291.022,317.612 291.712,316.38 294.421,310.567 294.836,309.52 297.004,302.951 297.24,302.109 298.929,294.819 299.057,294.164 300.328,286.191 300.394,285.694 301.31,277.075 301.342,276.706 301.964,267.477 301.979,267.214 302.37,257.411 302.375,257.234 302.598,246.894 302.599,246.79 302.714,235.95 302.715,235.908 302.785,224.605 302.785,224.526 302.759,211.628 302.707,185.83 302.682,172.931 302.682,172.931 302.656,160.032 302.604,134.235 302.604,134.235 302.578,121.336 302.501,82.6396 302.501,82.6396 302.475,69.7408 302.397,31.0444 302.397,31.0444 302.39,27.7032 304.586,27.6891 316.34,27.6135 328.093,27.538 339.846,27.4624 351.599,27.3868 363.353,27.3113 375.106,27.2357 386.859,27.1602 410.366,27.009 422.119,26.9335 433.872,26.8579 445.625,26.7824 457.379,26.7068 469.132,26.6312 471.223,26.6178 " fill="none" stroke-width="0.5" stroke="rgb(0,0,0)" />
	<polygon points="194.785,445.341 196.15,445.56 197.519,445.702 198.569,445.743 199.971,445.667 201.221,445.446 202.241,445.112 202.428,445.013 201.568,445.011 195.349,444.523 194.539,444.388 " fill="none" stroke-width="0.5" stroke="rgb(0,0,0)" />
	<polygon points="317.684,422.113 318,423.157 318.33,424.609 318.407,424.98 318.531,425.648 318.689,425.762 319.292,426.233 320.158,426.969 320.916,427.723 321.314,427.367 322.023,426.775 322.711,426.251 323.411,425.766 324.398,425.167 324.641,425.039 324.463,424.408 324.104,421.809 324.104,419.997 " fill="none" stroke-width="0.5" stroke="rgb(0,0,0)" />
	<polygon points="168.203,413.37 168.21,414.77 168.023,417.497 168.528,417.457 168.695,416.586 168.791,416.266 169.688,414.2 169.808,413.994 168.62,413.372 168.184,413.117 " fill="none" stroke-width="0.5" stroke="rgb(0,0,0)" />
	<polygon points="82.6213,369.503 82.7212,370.162 83.1809,369.815 82.9135,369.54 82.8696,369.485 " fill="none" stroke-width="0.5" stroke="rgb(0,0,0)" />
	<polygon points="60.8034,341.28 60.9007,341.436 60.9616,341.301 60.8192,341.26 60.8001,341.253 " fill="none" stroke-width="0.5" stroke="rgb(0,0,0)" />
	<polygon points="157.243,340.647 157.958,341.155 158.105,341.277 158.229,340.059 158.257,339.865 " fill="none" stroke-width="0.5" stroke="rgb(0,0,0)" />
	<polygon points="76.4388,315.958 76.2785,317.442 76.4296,317.278 77.8133,316.041 78.5894,315.472 78.5653,315.457 77.1363,314.316 76.9218,314.106 " fill="none" stroke-width="0.5" stroke="rgb(0,0,0)" />
	<polygon points="162.94,255.429 163.022,255.892 163.047,256.058 164.135,253.996 162.582,253.653 " fill="none" stroke-width="0.5" stroke="rgb(0,0,0)" />
	<polygon points="91.4738,217.362 91.7256,218.13 91.9581,219.046 92.548,218.855 93.277,218.733 96.2045,218.694 96.8482,218.785 98.1723,219.165 98.2184,218.858 98.4602,217.795 98.184,217.825 96.0685,217.823 92.8793,217.467 91.3723,217.12 " fill="none" stroke-width="0.5" stroke="rgb(0,0,0)" />
	<polygon points="433.195,216.416 432.325,216.583 432.006,216.63 432.865,217.343 433.294,217.789 434.45,216.115 " fill="none" stroke-width="0.5" stroke="rgb(0,0,0)" />
	<polygon points="108.204,166.44 106.683,167.469 105.575,168.074 105.688,168.151 106.673,168.918 109.672,171.585 110.654,172.597 111.785,173.948 112.458,173.002 113.33,172.048 111.581,170.45 110.246,168.943 108.363,166.308 " fill="none" stroke-width="0.5" stroke="rgb(0,0,0)" />
	<polygon points="423.901,146.658 421.31,148.975 425.682,150.267 427.454,150.99 429.443,152.043 429.145,151.004 429.033,148.785 427.582,148.147 425.88,147.181 424.52,146.213 424.38,146.084 " fill="none" stroke-width="0.5" stroke="rgb(0,0,0)" />
	<polygon points="312.294,129.045 312.095,129.424 311.873,130.124 311.951,130.137 312.844,130.182 312.915,130.18 312.881,130.081 312.535,128.798 312.524,128.741 " fill="none" stroke-width="0.5" stroke="rgb(0,0,0)" />
	<polygon points="91.1576,118.911 89.7757,119.809 87.4618,121.043 88.1145,120.976 90.0597,120.976 91.4648,121.119 92.3083,121.292 92.0665,119.485 92.0411,119.277 91.9329,118.308 " fill="none" stroke-width="0.5" stroke="rgb(0,0,0)" />
	<polygon points="186.302,115.408 185.966,116.054 184.768,117.834 184.317,118.364 183.789,118.844 184.248,118.66 187.47,117.676 188.502,117.466 186.479,115.077 186.452,115.044 " fill="none" stroke-width="0.5" stroke="rgb(0,0,0)" />
	<polygon points="103.119,65.6458 102.88,65.8438 102.263,66.338 103.33,66.2256 103.326,66.1518 103.299,65.4919 " fill="none" stroke-width="0.5" stroke="rgb(0,0,0)" />
	<polygon points="399.253,38.1873 399.634,39.1027 399.887,38.9959 401.229,38.5326 399.112,37.9305 " fill="none" stroke-width="0.5" stroke="rgb(0,0,0)" />
</svg>
