<?xml version="1.0" standalone="no" ?>
<!DOCTYPE svg PUBLIC "-//W3C//DTD SVG 1.1//EN" "http://www.w3.org/Graphics/SVG/1.1/DTD/svg11.dtd">
<svg width="500px" height="500px" xmlns="http://www.w3.org/2000/svg" version="1.1" >
	<polygon points="480.823,83.88 475.632,90.2016 473.622,92.0911 472.265,93.0718 473.207,93.4548 475.157,94.4931 476.881,95.6522 478.65,97.1422 480.019,98.5736 480.823,99.6132 480.823,193.932 480.237,194.61 478.658,195.685 478.406,195.786 480.554,198.17 480.823,198.531 480.823,250.424 480.789,250.477 480.098,251.441 480.338,251.526 480.823,251.774 480.823,281.286 479.971,296.463 479.612,298.729 478.675,299.889 477.806,300.841 476.245,302.357 477.899,305.523 478.365,306.605 477.405,312.666 473.11,329.62 467.07,347.047 459.27,364.67 453.874,374.557 452.407,374.75 452.606,376.881 449.695,382.213 438.331,399.399 425.161,415.952 410.17,431.593 399.211,441.007 398.794,440.877 398.694,441.452 393.345,446.047 374.668,459.037 354.126,470.285 331.702,479.516 319.26,483.065 316.971,481.881 316.582,481.626 316.486,482.44 316.089,483.913 316.055,483.979 307.382,486.452 281.151,490.817 252.993,492.333 225.548,490.902 199.887,486.773 176.007,480.192 153.907,471.407 133.585,460.665 125.126,454.985 125.016,454.274 123.885,454.151 115.039,448.212 98.2672,434.295 83.2685,419.161 70.0408,403.057 58.5824,386.23 48.8916,368.927 40.9666,351.394 34.8057,333.879 32.8403,326.17 34.8736,319.621 35.4857,318.081 36.3757,316.263 34.7989,315.767 30.4247,313.115 29.7469,312.437 27.7694,299.888 26.8905,283.906 26.8905,230.77 27.0684,230.464 26.8905,230.361 26.8905,156.669 27.3665,155.61 29.7931,151.178 30.9237,149.513 29.0618,148.546 27.2843,147.388 26.8905,147.072 26.8905,38.3195 29.6129,36.3259 29.8682,36.1502 29.5816,36.0599 27.961,35.4 26.8905,34.8587 26.8905,19.5757 38.3822,19.4875 49.8739,19.3993 61.3656,19.3111 72.8572,19.223 84.3489,19.1348 95.8406,19.0466 107.332,18.9584 118.824,18.8703 130.316,18.7821 141.807,18.6939 153.299,18.6057 164.791,18.5175 176.282,18.4294 187.774,18.3412 210.757,18.1648 210.732,31.0636 210.706,43.9624 210.681,56.8612 210.656,69.76 210.63,82.6588 210.619,88.2303 210.156,88.4238 209.082,88.7682 210.477,89.9295 210.616,90.0505 210.579,108.456 210.554,121.355 210.503,147.153 210.478,160.052 210.452,172.95 210.435,181.414 208.723,183.569 207.367,184.987 206.567,185.685 206.996,185.979 208.656,187.384 210.42,189.213 210.401,198.748 210.376,211.647 210.35,224.546 210.438,235.84 210.602,246.657 210.899,256.963 211.384,266.725 211.404,266.986 210.55,268.02 209.689,269.165 211.712,270.869 212.112,275.909 213.138,284.482 214.519,292.41 216.308,299.661 218.563,306.2 221.336,311.994 224.685,317.011 228.665,321.215 233.33,324.575 238.737,327.056 244.939,328.626 251.957,329.247 252.703,329.195 252.912,329.627 253.112,329.324 253.246,329.158 259.171,328.749 265.518,327.271 271.013,324.853 275.719,321.532 279.698,317.343 283.01,312.324 285.72,306.511 287.888,299.942 289.576,292.653 290.848,284.68 291.763,276.06 292.386,266.831 292.778,257.028 293,246.688 293.115,235.848 293.185,224.546 293.159,211.647 293.133,198.748 293.124,194.125 293.811,193.555 293.552,193.081 293.12,192.062 293.107,185.849 293.093,178.449 293.554,177.363 294.201,176.177 294.253,176.1 293.632,175.697 293.086,175.19 293.082,172.95 293.056,160.052 293.004,134.254 292.978,121.355 292.956,110.528 293.946,108.36 294.004,108.259 292.951,107.861 292.901,82.6588 292.875,69.76 292.797,31.0636 292.771,18.1648 304.525,18.0893 316.278,18.0137 328.031,17.9382 339.784,17.8626 351.538,17.787 363.291,17.7115 375.044,17.6359 383.025,17.5846 385.261,19.226 385.505,18.6886 386.131,17.9605 386.655,17.5613 386.797,17.5604 410.304,17.4092 422.057,17.3337 433.81,17.2581 445.564,17.1826 457.317,17.107 469.07,17.0314 480.823,16.9559 " fill="none" stroke-width="0.5" stroke="rgb(0,0,0)" />
	<polygon points="319.107,422.855 319.121,422.902 319.452,424.354 319.537,424.769 319.58,425 320.036,425.357 320.903,426.092 320.968,426.158 321.286,425.893 322.056,425.306 322.756,424.821 323.323,424.477 322.954,421.809 322.954,421.587 " fill="none" stroke-width="0.5" stroke="rgb(0,0,0)" />
	<polygon points="107.618,168.219 109.78,170.142 109.31,169.612 108.088,167.901 " fill="none" stroke-width="0.5" stroke="rgb(0,0,0)" />
	<polygon points="423.614,148.457 426.008,149.164 427.953,149.958 427.928,149.555 427.12,149.2 425.213,148.118 424.534,147.635 " fill="none" stroke-width="0.5" stroke="rgb(0,0,0)" />
</svg>
