<?xml version="1.0" standalone="no" ?>
<!DOCTYPE svg PUBLIC "-//W3C//DTD SVG 1.1//EN" "http://www.w3.org/Graphics/SVG/1.1/DTD/svg11.dtd">
<svg width="500px" height="500px" xmlns="http://www.w3.org/2000/svg" version="1.1" >
	<polygon points="472.273,90.3513 467.37,93.8957 468.782,94.1857 470.283,94.6407 472.273,95.4501 472.273,281.046 471.459,295.552 469.021,310.944 464.911,327.165 459.107,343.911 451.595,360.886 442.364,377.799 431.406,394.37 418.715,410.32 404.285,425.378 388.104,439.277 370.161,451.757 350.434,462.559 328.893,471.426 305.502,478.098 280.216,482.305 252.985,483.771 226.453,482.388 201.707,478.406 178.73,472.074 157.494,463.632 137.978,453.316 120.165,441.355 104.047,427.981 89.6221,413.426 76.8916,397.927 65.8596,381.727 56.5311,365.07 48.9097,348.209 42.9971,331.399 39.0309,315.844 39.7693,314.336 38.6982,314.314 36.2827,298.985 35.4405,283.671 35.4405,28.0603 38.4478,28.0372 49.9395,27.9491 61.4312,27.8609 72.9229,27.7727 84.4145,27.6845 95.9062,27.5964 107.398,27.5082 118.89,27.42 130.381,27.3318 141.873,27.2436 153.365,27.1555 164.856,27.0673 176.348,26.9791 187.84,26.8909 202.19,26.7808 202.182,31.0468 202.182,31.0468 202.156,43.9456 202.131,56.8444 202.106,69.7432 202.08,82.642 202.029,108.44 202.004,121.338 201.953,147.136 201.953,147.136 201.928,160.035 201.902,172.934 201.877,185.832 201.826,211.63 201.826,211.63 201.8,224.529 201.801,224.612 201.888,235.906 201.889,235.97 202.053,246.787 202.056,246.903 202.353,257.21 202.36,257.387 202.844,267.149 202.861,267.401 203.589,276.585 203.623,276.926 204.649,285.499 204.715,285.949 206.096,293.877 206.218,294.459 208.008,301.71 208.225,302.447 210.479,308.986 210.851,309.892 213.625,315.686 214.226,316.742 217.575,321.758 218.476,322.888 222.455,327.092 223.668,328.153 228.334,331.513 229.764,332.345 235.17,334.827 236.639,335.345 242.842,336.914 244.185,337.142 251.24,337.767 251.729,332.237 252.041,332.883 252.188,333.271 252.499,337.78 259.759,337.279 261.11,337.077 267.457,335.599 268.962,335.097 274.457,332.679 275.944,331.838 280.65,328.517 281.919,327.42 285.897,323.231 286.833,322.053 290.146,317.034 290.76,315.936 293.469,310.124 293.839,309.191 296.007,302.622 296.217,301.872 297.906,294.582 298.02,293.999 299.291,286.026 299.35,285.583 300.266,276.964 300.294,276.636 300.917,267.406 300.929,267.172 301.321,257.369 301.326,257.211 301.548,246.872 301.549,246.779 301.665,235.939 301.665,235.901 301.735,224.599 301.735,224.528 301.709,211.63 301.683,198.731 301.657,185.832 301.632,172.933 301.606,160.034 301.554,134.237 301.554,134.237 301.528,121.338 301.451,82.6417 301.451,82.6417 301.425,69.7429 301.347,31.0465 301.347,31.0465 301.338,26.6599 304.58,26.6391 316.333,26.5636 328.086,26.488 339.839,26.4124 351.593,26.3369 363.346,26.2613 375.099,26.1857 386.852,26.1102 410.359,25.9591 422.112,25.8835 433.865,25.8079 445.619,25.7324 457.372,25.6568 469.125,25.5813 472.273,25.561 " fill="none" stroke-width="0.5" stroke="rgb(0,0,0)" />
	<polygon points="306.027,468.769 306.55,468.864 307.219,469.057 309.097,469.866 308.547,468.518 307.83,466.115 " fill="none" stroke-width="0.5" stroke="rgb(0,0,0)" />
	<polygon points="193.105,443.417 193.519,444.636 193.93,446.231 194.524,446.362 196.012,446.601 197.444,446.75 198.577,446.794 200.091,446.712 201.476,446.468 202.653,446.082 203.556,445.604 204.221,445.057 204.766,444.351 205.011,443.814 202.957,443.967 201.65,443.965 195.432,443.476 193.985,443.236 192.91,442.961 " fill="none" stroke-width="0.5" stroke="rgb(0,0,0)" />
	<polygon points="316.842,421.285 316.307,421.399 316.629,422.244 316.976,423.39 317.306,424.842 317.375,425.172 317.576,426.254 318.076,426.614 318.612,427.034 319.479,427.769 320.435,428.72 320.864,429.221 321.555,428.559 321.987,428.173 322.696,427.581 323.309,427.115 324.009,426.63 324.888,426.096 325.578,425.732 325.935,425.579 325.823,425.366 325.474,424.124 325.154,421.809 325.154,418.545 " fill="none" stroke-width="0.5" stroke="rgb(0,0,0)" />
	<polygon points="167.156,413.452 167.162,414.698 166.891,418.661 169.342,418.94 169.372,418.598 169.701,416.888 169.797,416.569 170.596,414.728 170.753,414.458 171.381,413.633 169.108,412.442 168.439,412.052 166.974,411.106 " fill="none" stroke-width="0.5" stroke="rgb(0,0,0)" />
	<polygon points="271.032,413.635 271.464,413.995 273.456,415.773 273.856,415.704 274.212,415.65 274.521,415.61 270.561,413.267 " fill="none" stroke-width="0.5" stroke="rgb(0,0,0)" />
	<polygon points="259.778,404.528 259.143,406.087 261.825,407.426 262.38,407.729 265.163,409.386 265.627,409.682 265.837,409.827 260.014,404.451 259.855,404.271 " fill="none" stroke-width="0.5" stroke="rgb(0,0,0)" />
	<polygon points="350.95,395.996 350.245,397.174 352.101,397.07 352.043,397.005 351.161,395.797 351.097,395.692 " fill="none" stroke-width="0.5" stroke="rgb(0,0,0)" />
	<polygon points="204.448,391.257 204.977,392.435 205.042,392.615 205.164,392.434 207.024,390.487 205.576,390.471 203.923,390.289 " fill="none" stroke-width="0.5" stroke="rgb(0,0,0)" />
	<polygon points="244.229,374.542 245.468,375.579 245.701,375.821 245.555,375.283 245.291,373.81 245.236,373.189 " fill="none" stroke-width="0.5" stroke="rgb(0,0,0)" />
	<polygon points="82.8703,368.435 81.8424,368.508 81.2235,368.514 81.5251,369.277 81.9621,372.163 82.8203,371.398 83.9295,370.562 84.8167,369.999 83.7323,368.883 83.3244,368.375 " fill="none" stroke-width="0.5" stroke="rgb(0,0,0)" />
	<polygon points="118.087,360.313 117.906,360.928 119.099,360.82 118.463,359.895 118.248,359.459 " fill="none" stroke-width="0.5" stroke="rgb(0,0,0)" />
	<polygon points="394.562,342.998 393.81,343.538 392.788,344.19 390.614,345.184 389.779,345.431 388.885,345.504 389.438,347.072 389.577,347.673 392.395,345.312 394.446,344.038 395.648,343.51 395.638,343.498 395.445,343.256 394.984,342.658 " fill="none" stroke-width="0.5" stroke="rgb(0,0,0)" />
	<polygon points="59.7892,341.637 61.2094,343.921 61.2734,343.625 61.8382,341.911 62.4185,340.626 62.3345,340.608 61.1811,340.274 59.5499,339.675 " fill="none" stroke-width="0.5" stroke="rgb(0,0,0)" />
	<polygon points="159.876,336.894 157.695,338.979 156.271,340.079 155.321,340.664 156.266,341.237 157.288,341.964 159.026,343.403 159.056,342.513 159.095,341.929 159.274,340.165 159.369,339.494 159.675,337.816 159.87,336.982 159.906,336.86 " fill="none" stroke-width="0.5" stroke="rgb(0,0,0)" />
	<polygon points="414.818,334.396 414.979,335.382 415.025,335.703 415.184,336.973 415.238,337.577 415.298,338.706 415.306,339.406 415.297,339.74 415.285,339.922 417.362,340.099 416.413,338.25 415.505,334.321 " fill="none" stroke-width="0.5" stroke="rgb(0,0,0)" />
	<polygon points="165.932,324.983 165.182,327.798 164.93,328.497 165.569,328.016 167.382,327.177 165.967,325.034 165.934,324.971 " fill="none" stroke-width="0.5" stroke="rgb(0,0,0)" />
	<polygon points="76.2764,312.42 75.4032,315.768 75.1238,318.355 75.1484,319.225 75.2543,320.229 75.7841,319.529 77.2019,317.99 78.4342,316.888 80.1352,315.641 80.4646,315.445 79.2204,314.636 77.7914,313.495 76.57,312.302 76.3945,312.092 " fill="none" stroke-width="0.5" stroke="rgb(0,0,0)" />
	<polygon points="161.124,299.784 159.941,299.941 159.539,299.951 159.971,300.705 161.657,304.071 161.714,303.532 162.207,300.485 162.397,299.605 162.432,299.475 " fill="none" stroke-width="0.5" stroke="rgb(0,0,0)" />
	<polygon points="458.356,290.979 458.103,291.286 458.782,291.395 458.747,291.161 458.64,290.745 " fill="none" stroke-width="0.5" stroke="rgb(0,0,0)" />
	<polygon points="87.2509,288.605 87.4064,288.687 87.4509,288.22 " fill="none" stroke-width="0.5" stroke="rgb(0,0,0)" />
	<polygon points="160.918,251.537 161.384,253.162 161.546,253.825 161.911,255.636 161.984,256.049 162.275,257.977 162.307,258.207 162.551,260.185 162.56,260.263 162.586,260.487 163.439,257.519 165.07,254.427 165.943,253.373 162.569,252.482 160.124,250.236 " fill="none" stroke-width="0.5" stroke="rgb(0,0,0)" />
	<polygon points="158.096,245.929 157.963,247.282 157.961,247.327 158.552,247.659 159.188,248.701 158.166,245.838 158.22,244.857 " fill="none" stroke-width="0.5" stroke="rgb(0,0,0)" />
	<polygon points="159.26,235.228 159.236,235.61 159.077,237.432 159.059,237.611 158.834,239.682 158.825,239.766 158.567,241.942 158.565,241.961 158.554,242.051 158.746,241.057 158.92,240.032 159.067,239.015 159.185,238.006 159.272,237.005 159.325,236.011 159.341,235.151 159.299,234.302 " fill="none" stroke-width="0.5" stroke="rgb(0,0,0)" />
	<polygon points="327.747,237.059 326.836,237.059 327.612,237.936 329.428,240.968 329.536,240.914 329.712,240.846 329.122,239.451 328.418,237.191 328.378,236.995 " fill="none" stroke-width="0.5" stroke="rgb(0,0,0)" />
	<polygon points="159.263,233.564 159.254,233.37 158.995,231.74 158.53,230.115 158.3,229.581 " fill="none" stroke-width="0.5" stroke="rgb(0,0,0)" />
	<polygon points="157.746,228.668 157.728,228.706 158.082,229.078 157.837,228.511 " fill="none" stroke-width="0.5" stroke="rgb(0,0,0)" />
	<polygon points="311.504,227.607 313.049,228.526 312.965,228.37 312.507,227.289 " fill="none" stroke-width="0.5" stroke="rgb(0,0,0)" />
	<polygon points="89.5882,215.734 89.9445,216.422 90.476,217.689 90.7279,218.457 91.0152,219.589 91.162,220.395 92.7218,219.891 93.4508,219.768 96.0581,219.734 96.7019,219.825 98.9969,220.484 99.0418,220.504 99.0531,220.353 99.2423,219.091 99.8109,216.59 98.0692,216.781 96.1851,216.78 92.9958,216.424 91.0781,215.982 89.3503,215.367 " fill="none" stroke-width="0.5" stroke="rgb(0,0,0)" />
	<polygon points="432.95,215.395 432.175,215.544 429.516,215.928 432.195,218.151 433.492,219.5 433.91,218.744 436.433,215.09 436.967,214.43 " fill="none" stroke-width="0.5" stroke="rgb(0,0,0)" />
	<polygon points="191.756,215.875 192.21,215.723 192.106,215.604 191.414,215.099 191.35,215.069 " fill="none" stroke-width="0.5" stroke="rgb(0,0,0)" />
	<polygon points="381.988,203.349 382.444,203.119 382.215,202.933 " fill="none" stroke-width="0.5" stroke="rgb(0,0,0)" />
	<polygon points="108.57,164.775 107.535,165.631 106.18,166.548 104.994,167.195 103.453,167.849 103.399,167.866 105.098,169.02 105.976,169.703 108.974,172.369 109.849,173.271 111.873,175.689 112.033,175.395 113.234,173.71 114.62,172.193 114.842,172.007 112.29,169.675 111.1,168.333 108.878,165.222 108.602,164.743 " fill="none" stroke-width="0.5" stroke="rgb(0,0,0)" />
	<polygon points="423.201,145.875 420.46,148.327 418.99,149.384 425.384,151.274 426.963,151.918 431.132,154.126 430.154,150.715 430.056,148.054 429.684,147.924 428.005,147.186 426.488,146.325 425.128,145.358 424.285,144.578 " fill="none" stroke-width="0.5" stroke="rgb(0,0,0)" />
	<polygon points="356.443,144.077 356.811,144.04 358.523,144.04 359.425,144.131 357.557,142.497 356.68,141.582 " fill="none" stroke-width="0.5" stroke="rgb(0,0,0)" />
	<polygon points="312.533,127.224 311.881,127.849 311.404,128.481 311.122,129.018 310.765,130.147 310.331,130.856 311.047,131.056 311.841,131.183 312.833,131.233 313.023,131.227 313.439,131.195 313.978,131.135 314.418,131.079 314.002,130.112 313.873,129.738 313.565,128.595 313.489,128.209 313.346,127.101 313.321,126.708 313.322,126.681 " fill="none" stroke-width="0.5" stroke="rgb(0,0,0)" />
	<polygon points="185.957,113.498 185.371,114.923 185.035,115.568 183.968,117.154 183.517,117.685 181.887,119.165 181.313,119.565 179.304,120.6 178.599,120.851 176.605,121.304 176.243,121.342 177.154,123.708 179.053,122.388 180.099,121.766 183.219,120.2 184.555,119.665 187.777,118.68 189.396,118.352 190.528,118.234 187.28,114.398 187.001,114.05 186.137,112.915 " fill="none" stroke-width="0.5" stroke="rgb(0,0,0)" />
	<polygon points="90.5123,118.083 89.2816,118.882 86.9435,120.129 84.5724,120.974 82.1711,121.447 82.1705,121.447 82.2521,122.88 82.2638,123.556 82.2632,123.583 82.2786,123.575 83.8215,122.92 85.1305,122.51 86.8179,122.164 88.221,122.021 89.9534,122.021 91.3585,122.164 93.0437,122.509 93.5516,122.668 93.1073,119.346 93.0846,119.161 92.7682,116.326 " fill="none" stroke-width="0.5" stroke="rgb(0,0,0)" />
	<polygon points="395.56,104.051 396.201,103.841 395.353,103.736 " fill="none" stroke-width="0.5" stroke="rgb(0,0,0)" />
	<polygon points="102.436,64.8482 102.223,65.0246 100.442,66.4525 99.6216,67.034 98.6247,67.6563 98.8001,68.4806 98.8288,68.6849 99.7772,68.1249 101.835,67.4115 104.456,67.1715 104.397,66.4661 104.375,66.1083 104.258,63.2882 " fill="none" stroke-width="0.5" stroke="rgb(0,0,0)" />
	<polygon points="413.344,64.1307 415.031,65.714 416.653,67.0167 418.165,67.935 419.528,68.4478 421.148,68.6522 421.117,68.5492 420,67.3956 416.756,65.4766 413.223,64.0127 " fill="none" stroke-width="0.5" stroke="rgb(0,0,0)" />
	<polygon points="127.459,66.8768 128.245,66.0661 127.77,65.4043 " fill="none" stroke-width="0.5" stroke="rgb(0,0,0)" />
	<polygon points="398.332,38.6919 399.033,40.3745 399.066,40.4885 399.185,40.4288 400.23,39.9884 403.202,38.9618 403.761,38.7898 404.464,38.5999 401.941,37.6435 398.047,36.5359 397.008,36.2758 " fill="none" stroke-width="0.5" stroke="rgb(0,0,0)" />
</svg>
