<?xml version="1.0" standalone="no" ?>
<!DOCTYPE svg PUBLIC "-//W3C//DTD SVG 1.1//EN" "http://www.w3.org/Graphics/SVG/1.1/DTD/svg11.dtd">
<svg width="500px" height="500px" xmlns="http://www.w3.org/2000/svg" version="1.1" >
	<polygon points="467.923,280.924 467.128,295.089 464.756,310.068 460.74,325.917 455.056,342.316 447.69,358.96 438.634,375.554 427.883,391.811 415.436,407.455 401.29,422.216 385.438,435.833 367.868,448.053 348.555,458.628 327.464,467.31 304.545,473.847 279.741,477.974 252.982,479.415 226.913,478.056 202.633,474.149 180.115,467.943 159.32,459.677 140.213,449.577 122.773,437.867 106.988,424.768 92.8547,410.508 80.3771,395.317 69.5621,379.435 60.4178,363.108 52.9509,346.588 47.1646,330.138 43.0562,314.025 40.614,298.526 39.7905,283.551 39.7905,32.3771 49.9729,32.2989 61.4646,32.2108 72.9562,32.1226 84.4479,32.0344 95.9396,31.9462 107.431,31.858 118.923,31.7699 130.415,31.6817 130.415,31.6817 141.906,31.5935 153.398,31.5053 153.398,31.5053 164.89,31.4172 176.381,31.329 187.873,31.2408 187.873,31.2408 197.832,31.1644 197.807,43.937 197.781,56.8358 197.756,69.7346 197.756,69.7346 197.73,82.6334 197.679,108.431 197.679,108.431 197.654,121.33 197.603,147.127 197.603,147.127 197.578,160.026 197.552,172.925 197.552,172.925 197.527,185.824 197.501,198.723 197.476,211.621 197.476,211.621 197.45,224.52 197.451,224.645 197.538,235.94 197.539,236.036 197.703,246.853 197.707,247.029 198.004,257.335 198.015,257.603 198.5,267.365 198.524,267.744 199.252,276.929 199.303,277.443 200.33,286.016 200.43,286.695 201.81,294.623 201.995,295.502 203.784,302.752 204.113,303.865 206.367,310.404 206.927,311.77 209.701,317.564 210.608,319.157 213.957,324.173 215.316,325.878 219.296,330.083 221.126,331.683 225.792,335.043 227.949,336.299 233.356,338.78 235.572,339.562 241.775,341.132 243.802,341.475 250.857,342.1 251.947,329.779 252.798,342.119 260.059,341.619 262.096,341.313 268.443,339.835 270.714,339.079 276.209,336.661 278.453,335.392 283.159,332.07 285.073,330.415 289.051,326.227 290.464,324.449 293.777,319.43 294.703,317.774 297.412,311.962 297.97,310.554 300.138,303.985 300.455,302.853 302.144,295.564 302.315,294.684 303.587,286.711 303.675,286.043 304.591,277.423 304.634,276.928 305.257,267.699 305.276,267.345 305.667,257.542 305.675,257.305 305.897,246.965 305.899,246.825 306.014,235.985 306.015,235.928 306.085,224.625 306.085,224.52 306.059,211.621 306.033,198.722 306.007,185.823 305.982,172.925 305.982,172.925 305.956,160.026 305.904,134.228 305.904,134.228 305.878,121.329 305.801,82.633 305.801,82.6329 305.775,69.7342 305.697,31.0378 305.697,31.0378 305.697,30.982 316.361,30.9135 316.361,30.9135 328.114,30.8379 339.867,30.7623 351.621,30.6868 363.374,30.6112 375.127,30.5357 386.88,30.4601 410.387,30.309 422.14,30.2334 433.893,30.1579 445.647,30.0823 457.4,30.0067 467.923,29.9391 " fill="none" stroke-width="0.5" stroke="rgb(0,0,0)" />
</svg>
