<?xml version="1.0" standalone="no" ?>
<!DOCTYPE svg PUBLIC "-//W3C//DTD SVG 1.1//EN" "http://www.w3.org/Graphics/SVG/1.1/DTD/svg11.dtd">
<svg width="500px" height="500px" xmlns="http://www.w3.org/2000/svg" version="1.1" >
	<polygon points="462.323,280.767 461.553,294.492 459.265,308.94 455.371,324.309 449.841,340.262 442.663,356.481 433.832,372.663 423.348,388.517 411.215,403.766 397.435,418.145 382.006,431.398 364.916,443.285 346.137,453.568 325.625,462.012 303.314,468.375 279.129,472.399 252.977,473.807 227.505,472.479 203.826,468.668 181.899,462.626 161.669,454.585 143.09,444.764 126.13,433.376 110.774,420.633 97.0161,406.751 84.8641,391.957 74.3285,376.485 65.4215,360.582 58.1534,344.502 52.5297,328.514 48.5472,312.894 46.19,297.935 45.3905,283.397 45.3905,37.9343 50.0158,37.8988 61.5075,37.8106 61.5075,37.8106 72.9992,37.7224 84.4909,37.6342 95.9825,37.5461 95.9826,37.5461 107.474,37.4579 118.966,37.3697 130.458,37.2815 141.949,37.1934 153.441,37.1052 164.933,37.017 176.424,36.9288 187.916,36.8407 187.916,36.8407 192.221,36.8076 192.207,43.926 192.181,56.8247 192.156,69.7235 192.156,69.7236 192.13,82.6223 192.079,108.42 192.079,108.42 192.054,121.319 192.003,147.116 192.003,147.116 191.978,160.015 191.952,172.914 191.952,172.914 191.927,185.813 191.901,198.712 191.876,211.61 191.876,211.61 191.85,224.509 191.851,224.688 191.938,235.983 191.94,236.121 192.104,246.938 192.11,247.19 192.407,257.496 192.422,257.881 192.907,267.643 192.942,268.187 193.67,277.371 193.743,278.109 194.77,286.682 194.913,287.655 196.293,295.584 196.558,296.844 198.347,304.094 198.818,305.69 201.072,312.229 201.876,314.188 204.65,319.983 205.95,322.267 209.299,327.283 211.249,329.727 215.229,333.932 217.854,336.227 222.519,339.587 225.613,341.389 231.02,343.87 234.198,344.991 240.401,346.56 243.308,347.054 250.363,347.678 251.947,329.779 253.183,347.706 260.444,347.205 263.366,346.767 269.713,345.289 272.969,344.205 278.464,341.786 281.682,339.967 286.388,336.645 289.133,334.272 293.112,330.083 295.137,327.534 298.45,322.515 299.778,320.14 302.488,314.327 303.288,312.309 305.456,305.74 305.91,304.117 307.599,296.828 307.846,295.566 309.117,287.593 309.244,286.635 310.16,278.015 310.222,277.305 310.844,268.076 310.871,267.569 311.263,257.766 311.273,257.425 311.496,247.085 311.499,246.884 311.614,236.045 311.615,235.963 311.685,224.66 311.685,224.508 311.659,211.61 311.633,198.711 311.607,185.812 311.582,172.913 311.582,172.913 311.556,160.015 311.504,134.217 311.504,134.217 311.478,121.318 311.401,82.6217 311.401,82.6217 311.375,69.723 311.308,36.5461 316.397,36.5133 339.903,36.3622 351.656,36.2867 363.41,36.2111 375.163,36.1355 386.916,36.06 410.423,35.9089 422.176,35.8333 433.929,35.7577 445.682,35.6822 457.436,35.6066 462.323,35.5752 " fill="none" stroke-width="0.5" stroke="rgb(0,0,0)" />
</svg>
