<?xml version="1.0" standalone="no" ?>
<!DOCTYPE svg PUBLIC "-//W3C//DTD SVG 1.1//EN" "http://www.w3.org/Graphics/SVG/1.1/DTD/svg11.dtd">
<svg width="500px" height="500px" xmlns="http://www.w3.org/2000/svg" version="1.1" >
	<polygon points="466.973,280.897 466.182,294.987 463.824,309.876 459.829,325.644 454.172,341.968 446.837,358.539 437.819,375.063 427.114,391.252 414.72,406.829 400.636,421.525 384.856,435.08 367.367,447.244 348.145,457.77 327.152,466.412 304.336,472.919 279.637,477.028 252.981,478.464 227.013,477.11 202.836,473.219 180.418,467.041 159.718,458.813 140.701,448.76 123.342,437.105 107.63,424.067 93.5606,409.871 81.1383,394.747 70.3707,378.935 61.2667,362.679 53.8335,346.234 48.0747,329.862 43.9877,313.833 41.56,298.426 40.7405,283.525 40.7405,33.3198 49.9802,33.2489 61.4718,33.1607 72.9635,33.0725 84.4552,32.9844 95.9469,32.8962 107.439,32.808 118.93,32.7198 130.422,32.6317 141.914,32.5435 153.405,32.4553 164.897,32.3671 176.389,32.279 187.88,32.1908 187.88,32.1908 196.88,32.1217 196.857,43.9351 196.831,56.8339 196.806,69.7327 196.806,69.7327 196.78,82.6315 196.729,108.429 196.729,108.429 196.704,121.328 196.653,147.125 196.653,147.126 196.628,160.024 196.602,172.923 196.602,172.923 196.577,185.822 196.551,198.721 196.526,211.619 196.526,211.619 196.5,224.518 196.501,224.653 196.588,235.947 196.589,236.051 196.754,246.868 196.758,247.056 197.055,257.362 197.066,257.65 197.551,267.412 197.577,267.82 198.305,277.004 198.36,277.556 199.387,286.129 199.494,286.858 200.874,294.786 201.072,295.729 202.862,302.98 203.215,304.174 205.469,310.714 206.07,312.18 208.844,317.975 209.818,319.685 213.167,324.701 214.626,326.531 218.606,330.736 220.571,332.454 225.236,335.814 227.553,337.162 232.959,339.644 235.339,340.483 241.542,342.052 243.718,342.422 250.773,343.046 251.947,329.779 252.863,343.067 260.124,342.566 262.312,342.238 268.659,340.761 271.096,339.948 276.592,337.53 279.001,336.168 283.706,332.846 285.762,331.07 289.74,326.881 291.257,324.973 294.569,319.954 295.564,318.175 298.273,312.363 298.872,310.852 301.04,304.283 301.38,303.068 303.069,295.778 303.254,294.833 304.525,286.861 304.62,286.143 305.536,277.524 305.582,276.992 306.205,267.763 306.225,267.383 306.617,257.58 306.624,257.325 306.847,246.986 306.849,246.835 306.964,235.995 306.965,235.934 307.035,224.631 307.035,224.518 307.009,211.619 306.957,185.821 306.932,172.923 306.932,172.923 306.906,160.024 306.854,134.226 306.854,134.226 306.828,121.327 306.751,82.6311 306.751,82.631 306.725,69.7323 306.649,31.9259 316.367,31.8634 316.367,31.8634 328.12,31.7879 339.873,31.7123 351.627,31.6368 363.38,31.5612 375.133,31.4856 386.886,31.4101 410.393,31.259 422.146,31.1834 433.899,31.1078 445.653,31.0323 457.406,30.9567 466.973,30.8952 " fill="none" stroke-width="0.5" stroke="rgb(0,0,0)" />
</svg>
