<?xml version="1.0" standalone="no" ?>
<!DOCTYPE svg PUBLIC "-//W3C//DTD SVG 1.1//EN" "http://www.w3.org/Graphics/SVG/1.1/DTD/svg11.dtd">
<svg width="500px" height="500px" xmlns="http://www.w3.org/2000/svg" version="1.1" >
	<polygon points="471.773,91.3297 468.585,93.6347 468.883,93.6959 470.471,94.1775 471.773,94.707 471.773,281.032 470.961,295.499 468.531,310.843 464.432,327.022 458.642,343.728 451.146,360.664 441.935,377.541 431.001,394.076 418.338,409.991 403.94,425.014 387.798,438.881 369.897,451.331 350.218,462.107 328.729,470.953 305.392,477.609 280.161,481.807 252.985,483.271 226.506,481.89 201.814,477.916 178.889,471.599 157.704,463.178 138.235,452.886 120.465,440.954 104.385,427.611 89.9937,413.09 77.2922,397.627 66.2852,381.463 56.9778,364.845 49.3742,348.023 43.4761,331.254 39.2811,314.801 36.7806,298.932 35.9405,283.657 35.9405,28.5565 38.4517,28.5372 49.9433,28.449 61.435,28.3609 61.435,28.3609 72.9267,28.2727 84.4184,28.1845 95.91,28.0963 95.91,28.0963 107.402,28.0082 118.893,27.92 130.385,27.8318 153.368,27.6555 164.86,27.5673 176.352,27.4791 187.843,27.3909 201.689,27.2847 201.682,31.0458 201.682,31.0458 201.656,43.9446 201.631,56.8434 201.606,69.7422 201.606,69.7422 201.58,82.641 201.529,108.439 201.529,108.439 201.504,121.337 201.453,147.135 201.453,147.135 201.428,160.034 201.402,172.933 201.402,172.933 201.377,185.831 201.351,198.73 201.326,211.629 201.326,211.629 201.3,224.528 201.301,224.615 201.388,235.91 201.389,235.978 201.553,246.795 201.556,246.918 201.853,257.224 201.86,257.412 202.345,267.174 202.362,267.44 203.09,276.624 203.126,276.985 204.153,285.558 204.223,286.034 205.603,293.963 205.733,294.579 207.522,301.83 207.753,302.61 210.007,309.149 210.4,310.108 213.174,315.902 213.81,317.019 217.159,322.036 218.113,323.231 222.092,327.436 223.376,328.559 228.041,331.919 229.555,332.8 234.962,335.281 236.517,335.83 242.719,337.399 244.141,337.64 251.196,338.265 251.815,331.266 252.088,331.831 252.533,338.279 259.794,337.778 261.223,337.563 267.57,336.086 269.163,335.555 274.658,333.137 276.232,332.247 280.938,328.925 282.281,327.764 286.26,323.575 287.251,322.328 290.563,317.309 291.213,316.147 293.922,310.335 294.314,309.348 296.482,302.778 296.704,301.984 298.393,294.695 298.513,294.078 299.785,286.105 299.847,285.636 300.763,277.016 300.793,276.669 301.416,267.44 301.429,267.192 301.82,257.389 301.826,257.222 302.048,246.882 302.049,246.784 302.165,235.945 302.165,235.904 302.235,224.602 302.235,224.527 302.183,198.73 302.157,185.831 302.132,172.932 302.132,172.932 302.106,160.033 302.054,134.236 302.054,134.236 302.028,121.337 301.951,82.6407 301.951,82.6407 301.925,69.7419 301.847,31.0455 301.847,31.0455 301.839,27.1567 304.583,27.1391 316.336,27.0635 328.089,26.988 339.842,26.9124 351.596,26.8369 363.349,26.7613 375.102,26.6857 386.855,26.6102 410.362,26.4591 422.115,26.3835 445.622,26.2324 457.375,26.1568 469.128,26.0812 471.773,26.0642 " fill="none" stroke-width="0.5" stroke="rgb(0,0,0)" />
	<polygon points="306.859,468.433 307.357,468.577 308.177,468.93 308.067,468.661 307.652,467.267 " fill="none" stroke-width="0.5" stroke="rgb(0,0,0)" />
	<polygon points="194.003,444.511 194.337,445.809 194.617,445.871 196.078,446.106 197.48,446.251 198.573,446.294 200.034,446.214 201.355,445.981 202.457,445.62 203.278,445.186 203.86,444.706 204.11,444.383 202.995,444.466 201.611,444.463 195.393,443.974 193.861,443.72 193.722,443.685 " fill="none" stroke-width="0.5" stroke="rgb(0,0,0)" />
	<polygon points="316.999,421.76 316.981,421.763 317.097,422.066 317.464,423.279 317.794,424.731 317.866,425.081 318.031,425.966 318.368,426.208 318.936,426.653 319.802,427.388 320.814,428.395 320.9,428.494 321.209,428.198 321.667,427.789 322.375,427.197 323.024,426.704 323.724,426.219 324.655,425.654 325.291,425.319 324.993,424.259 324.654,421.809 324.654,419.237 " fill="none" stroke-width="0.5" stroke="rgb(0,0,0)" />
	<polygon points="167.655,413.413 167.661,414.732 167.431,418.098 168.971,418.049 169.222,416.744 169.318,416.425 170.164,414.476 170.321,414.206 170.628,413.803 168.876,412.885 168.168,412.472 167.551,412.074 " fill="none" stroke-width="0.5" stroke="rgb(0,0,0)" />
	<polygon points="259.779,405.846 261.975,406.942 260.055,405.169 " fill="none" stroke-width="0.5" stroke="rgb(0,0,0)" />
	<polygon points="204.888,391.018 205.19,391.693 205.878,390.972 205.521,390.968 204.819,390.891 " fill="none" stroke-width="0.5" stroke="rgb(0,0,0)" />
	<polygon points="82.9358,368.93 81.9399,369.001 82.0195,369.202 82.3184,371.176 82.4878,371.025 83.6618,370.139 84.0313,369.905 83.3424,369.196 83.1107,368.907 " fill="none" stroke-width="0.5" stroke="rgb(0,0,0)" />
	<polygon points="390.756,345.663 389.921,345.91 389.569,345.939 389.865,346.779 391.726,345.22 " fill="none" stroke-width="0.5" stroke="rgb(0,0,0)" />
	<polygon points="60.2721,341.467 61.0492,342.717 61.3825,341.706 61.7234,340.951 61.0087,340.744 60.1453,340.427 " fill="none" stroke-width="0.5" stroke="rgb(0,0,0)" />
	<polygon points="158.041,339.34 156.533,340.504 156.28,340.66 156.526,340.809 157.607,341.579 158.564,342.371 158.597,341.878 158.776,340.114 158.877,339.404 159.068,338.359 " fill="none" stroke-width="0.5" stroke="rgb(0,0,0)" />
	<polygon points="415.737,337.55 415.797,338.679 415.806,339.421 415.805,339.464 416.522,339.525 415.926,338.363 415.736,337.543 " fill="none" stroke-width="0.5" stroke="rgb(0,0,0)" />
	<polygon points="165.815,327.364 166.651,326.977 166.129,326.186 " fill="none" stroke-width="0.5" stroke="rgb(0,0,0)" />
	<polygon points="75.8963,315.859 75.6246,318.375 75.6407,318.946 76.8341,317.651 78.1385,316.485 79.5545,315.447 78.9084,315.027 77.4794,313.886 76.6278,313.054 " fill="none" stroke-width="0.5" stroke="rgb(0,0,0)" />
	<polygon points="161.189,300.28 160.365,300.389 160.418,300.481 161.388,302.418 161.713,300.405 161.77,300.143 " fill="none" stroke-width="0.5" stroke="rgb(0,0,0)" />
	<polygon points="161.864,253.024 162.036,253.727 162.401,255.537 162.478,255.974 162.77,257.902 162.782,257.993 162.958,257.381 164.685,254.109 165.067,253.647 162.547,253.036 161.647,252.263 " fill="none" stroke-width="0.5" stroke="rgb(0,0,0)" />
	<polygon points="327.921,237.544 328.041,237.679 328.052,237.698 328.001,237.536 " fill="none" stroke-width="0.5" stroke="rgb(0,0,0)" />
	<polygon points="90.9511,217.533 91.203,218.301 91.5071,219.5 91.5525,219.749 92.6391,219.398 93.368,219.275 96.1278,219.239 96.7716,219.329 98.6226,219.862 98.7547,218.98 99.1677,217.163 98.1239,217.278 96.1296,217.277 92.9403,216.921 90.9105,216.453 90.4254,216.28 " fill="none" stroke-width="0.5" stroke="rgb(0,0,0)" />
	<polygon points="433.067,215.882 432.247,216.039 430.702,216.262 432.514,217.766 433.383,218.67 433.499,218.46 435.72,215.244 " fill="none" stroke-width="0.5" stroke="rgb(0,0,0)" />
	<polygon points="107.854,166.016 106.42,166.987 105.234,167.634 104.442,167.969 105.379,168.606 106.308,169.329 109.306,171.996 110.232,172.95 111.817,174.843 112.864,173.373 114.107,172.013 111.952,170.044 110.693,168.624 108.471,165.512 108.468,165.508 " fill="none" stroke-width="0.5" stroke="rgb(0,0,0)" />
	<polygon points="423.534,146.248 420.793,148.7 420.107,149.193 425.526,150.794 427.197,151.476 430.328,153.134 429.674,150.853 429.567,148.411 429.483,148.382 427.804,147.644 426.198,146.733 424.838,145.765 424.331,145.296 " fill="none" stroke-width="0.5" stroke="rgb(0,0,0)" />
	<polygon points="356.996,143.542 357.993,143.542 357.228,142.873 357.075,142.713 " fill="none" stroke-width="0.5" stroke="rgb(0,0,0)" />
	<polygon points="312.85,127.613 312.256,128.182 311.828,128.75 311.585,129.212 311.242,130.298 311.09,130.549 311.154,130.566 311.894,130.685 312.838,130.732 312.997,130.728 313.392,130.697 313.697,130.663 313.53,130.275 313.401,129.901 313.075,128.692 312.999,128.305 312.904,127.576 " fill="none" stroke-width="0.5" stroke="rgb(0,0,0)" />
	<polygon points="185.815,115.154 185.478,115.799 184.349,117.478 183.898,118.008 182.173,119.576 181.599,119.975 179.472,121.071 178.767,121.322 176.932,121.739 177.392,122.934 178.767,121.977 179.874,121.319 182.994,119.753 184.409,119.186 187.631,118.202 189.345,117.854 189.535,117.835 186.898,114.721 186.603,114.353 186.305,113.961 " fill="none" stroke-width="0.5" stroke="rgb(0,0,0)" />
	<polygon points="90.8196,118.478 89.5169,119.323 87.1788,120.57 84.6691,121.464 82.6944,121.853 82.7503,122.834 83.6722,122.443 84.9811,122.033 86.7672,121.666 88.1703,121.523 90.0041,121.523 91.4091,121.666 92.9556,121.983 92.6117,119.412 92.5877,119.216 92.3704,117.27 " fill="none" stroke-width="0.5" stroke="rgb(0,0,0)" />
	<polygon points="416.941,66.6063 418.385,67.4834 419.649,67.9591 419.877,67.9879 419.688,67.7917 416.532,65.925 415.623,65.5484 " fill="none" stroke-width="0.5" stroke="rgb(0,0,0)" />
	<polygon points="102.761,65.228 102.536,65.4147 100.754,66.8426 99.8864,67.4582 99.1856,67.8957 99.1874,67.9041 99.6134,67.6525 101.671,66.939 103.917,66.718 103.899,66.5078 103.875,66.129 103.801,64.3375 " fill="none" stroke-width="0.5" stroke="rgb(0,0,0)" />
	<polygon points="398.77,38.4516 399.341,39.8217 400.067,39.5158 402.894,38.5394 401.784,38.1186 397.998,37.0417 " fill="none" stroke-width="0.5" stroke="rgb(0,0,0)" />
</svg>
