<?xml version="1.0" standalone="no" ?>
<!DOCTYPE svg PUBLIC "-//W3C//DTD SVG 1.1//EN" "http://www.w3.org/Graphics/SVG/1.1/DTD/svg11.dtd">
<svg width="500px" height="500px" xmlns="http://www.w3.org/2000/svg" version="1.1" >
	<polygon points="470.123,280.986 469.318,295.323 466.913,310.511 462.85,326.548 457.105,343.123 449.665,359.934 440.52,376.689 429.665,393.105 417.095,408.904 402.804,423.815 386.787,437.575 369.028,449.926 349.505,460.616 328.187,469.392 305.029,475.997 279.981,480.164 252.983,481.618 226.68,480.246 202.165,476.302 179.415,470.032 158.396,461.677 139.082,451.468 121.454,439.631 105.501,426.393 91.2198,411.984 78.6143,396.637 67.6896,380.594 58.4521,364.1 50.9071,347.408 45.0569,330.776 40.899,314.469 38.4235,298.758 37.5905,283.612 37.5905,30.1939 38.4643,30.1872 49.956,30.099 61.4477,30.0108 72.9393,29.9226 84.431,29.8345 95.9227,29.7463 107.414,29.6581 118.906,29.5699 130.398,29.4818 153.381,29.3054 164.873,29.2172 187.856,29.0409 200.036,28.9474 200.032,31.0425 200.032,31.0425 200.006,43.9413 199.981,56.8401 199.956,69.7389 199.956,69.7389 199.93,82.6377 199.879,108.435 199.879,108.435 199.854,121.334 199.803,147.132 199.803,147.132 199.778,160.031 199.752,172.929 199.752,172.929 199.727,185.828 199.701,198.727 199.676,211.626 199.676,211.626 199.65,224.524 199.651,224.628 199.738,235.923 199.739,236.003 199.903,246.82 199.906,246.965 200.203,257.271 200.212,257.494 200.697,267.256 200.717,267.571 201.445,276.755 201.488,277.181 202.514,285.754 202.597,286.317 203.977,294.246 204.131,294.975 205.92,302.225 206.193,303.148 208.447,309.687 208.911,310.82 211.685,316.615 212.437,317.936 215.786,322.952 216.914,324.366 220.894,328.57 222.412,329.898 227.077,333.258 228.867,334.3 234.273,336.781 236.112,337.429 242.315,338.999 243.996,339.284 251.05,339.908 251.947,329.779 252.647,339.925 259.907,339.424 261.597,339.17 267.944,337.693 269.828,337.065 275.323,334.647 277.184,333.595 281.89,330.273 283.478,328.9 287.456,324.712 288.628,323.237 291.94,318.218 292.709,316.845 295.418,311.032 295.881,309.865 298.049,303.295 298.312,302.357 300,295.067 300.143,294.337 301.414,286.365 301.488,285.81 302.404,277.191 302.439,276.78 303.062,267.551 303.078,267.257 303.469,257.454 303.475,257.257 303.697,246.918 303.699,246.802 303.814,235.962 303.815,235.915 303.885,224.612 303.885,224.524 303.859,211.625 303.807,185.828 303.782,172.929 303.782,172.929 303.756,160.03 303.704,134.233 303.704,134.233 303.678,121.334 303.601,82.6374 303.601,82.6374 303.575,69.7386 303.497,31.0422 303.497,31.0422 303.493,28.7961 304.593,28.7891 316.347,28.7135 328.1,28.6379 339.853,28.5624 351.606,28.4868 363.36,28.4113 375.113,28.3357 386.866,28.2601 410.373,28.109 422.126,28.0335 433.879,27.9579 445.632,27.8823 457.386,27.8068 469.139,27.7312 470.123,27.7249 " fill="none" stroke-width="0.5" stroke="rgb(0,0,0)" />
	<polygon points="319.045,422.823 319.072,422.913 319.403,424.365 319.488,424.778 319.535,425.028 320.004,425.395 320.87,426.13 320.965,426.225 321.318,425.931 322.085,425.347 322.785,424.862 323.376,424.503 323.004,421.809 323.004,421.518 " fill="none" stroke-width="0.5" stroke="rgb(0,0,0)" />
	<polygon points="111.498,171.891 111.73,172.168 111.776,172.118 111.264,171.65 " fill="none" stroke-width="0.5" stroke="rgb(0,0,0)" />
	<polygon points="107.537,168.214 110.374,170.737 109.351,169.583 108.1,167.832 " fill="none" stroke-width="0.5" stroke="rgb(0,0,0)" />
	<polygon points="423.514,148.479 425.993,149.212 427.969,150.018 428.008,150.038 427.976,149.522 427.14,149.154 425.242,148.077 424.53,147.571 " fill="none" stroke-width="0.5" stroke="rgb(0,0,0)" />
</svg>
