<?xml version="1.0" standalone="no" ?>
<!DOCTYPE svg PUBLIC "-//W3C//DTD SVG 1.1//EN" "http://www.w3.org/Graphics/SVG/1.1/DTD/svg11.dtd">
<svg width="500px" height="500px" xmlns="http://www.w3.org/2000/svg" version="1.1" >
	<polygon points="468.373,280.937 467.576,295.137 465.197,310.158 461.172,326.046 455.475,342.481 448.094,359.159 439.02,375.786 428.248,392.076 415.775,407.751 401.6,422.543 385.714,436.189 368.105,448.436 348.75,459.035 327.612,467.736 304.644,474.287 279.79,478.422 252.982,479.866 226.865,478.504 202.538,474.589 179.972,468.371 159.131,460.086 139.982,449.964 122.503,438.227 106.684,425.101 92.5203,410.81 80.0165,395.587 69.1791,379.672 60.0158,363.311 52.5329,346.756 46.7334,330.268 42.615,314.115 40.166,298.574 39.3405,283.564 39.3405,31.9305 49.9694,31.8489 61.4611,31.7608 72.9528,31.6726 84.4445,31.5844 95.9361,31.4962 107.428,31.4081 118.919,31.3199 130.411,31.2317 141.903,31.1435 153.394,31.0554 164.886,30.9672 176.378,30.879 187.87,30.7908 198.283,30.7109 198.282,31.0391 198.282,31.0391 198.256,43.9379 198.231,56.8367 198.206,69.7355 198.206,69.7355 198.18,82.6343 198.129,108.432 198.129,108.432 198.104,121.331 198.053,147.128 198.053,147.128 198.028,160.027 198.002,172.926 198.002,172.926 197.977,185.825 197.951,198.723 197.926,211.622 197.926,211.622 197.9,224.521 197.901,224.642 197.988,235.936 197.989,236.029 198.153,246.846 198.157,247.016 198.454,257.322 198.464,257.581 198.949,267.343 198.973,267.709 199.701,276.893 199.75,277.389 200.777,285.962 200.873,286.618 202.253,294.546 202.432,295.394 204.221,302.644 204.538,303.718 206.792,310.257 207.333,311.576 210.107,317.37 210.982,318.907 214.331,323.924 215.643,325.569 219.623,329.773 221.389,331.318 226.055,334.678 228.137,335.89 233.543,338.371 235.683,339.126 241.885,340.695 243.842,341.027 250.896,341.652 251.947,329.779 252.767,341.671 260.028,341.17 261.994,340.875 268.341,339.397 270.532,338.667 276.028,336.249 278.193,335.025 282.899,331.703 284.746,330.105 288.725,325.917 290.088,324.201 293.401,319.182 294.295,317.584 297.004,311.771 297.543,310.413 299.711,303.844 300.017,302.752 301.705,295.462 301.871,294.613 303.142,286.64 303.228,285.995 304.144,277.376 304.185,276.898 304.808,267.669 304.826,267.327 305.218,257.524 305.225,257.295 305.447,246.955 305.449,246.82 305.564,235.981 305.565,235.925 305.635,224.623 305.635,224.521 305.609,211.622 305.557,185.824 305.532,172.925 305.532,172.925 305.506,160.027 305.454,134.229 305.454,134.229 305.428,121.33 305.351,82.6339 305.351,82.6339 305.325,69.7351 305.247,31.0387 305.247,31.0387 305.246,30.5349 316.358,30.4635 328.111,30.3879 339.864,30.3123 351.618,30.2368 363.371,30.1612 375.124,30.0857 386.877,30.0101 410.384,29.859 422.137,29.7834 433.89,29.7079 445.644,29.6323 457.397,29.5567 468.373,29.4862 " fill="none" stroke-width="0.5" stroke="rgb(0,0,0)" />
</svg>
