<?xml version="1.0" standalone="no" ?>
<!DOCTYPE svg PUBLIC "-//W3C//DTD SVG 1.1//EN" "http://www.w3.org/Graphics/SVG/1.1/DTD/svg11.dtd">
<svg width="500px" height="500px" xmlns="http://www.w3.org/2000/svg" version="1.1" >
	<polygon points="465.623,280.86 464.838,294.844 462.501,309.604 458.535,325.256 452.914,341.473 445.626,357.942 436.661,374.366 426.02,390.458 413.702,405.94 399.707,420.544 384.029,434.011 366.656,446.095 347.562,456.55 326.709,465.134 304.039,471.599 279.489,475.684 252.98,477.112 227.156,475.765 203.123,471.898 180.848,465.759 160.285,457.585 141.395,447.6 124.152,436.022 108.543,423.07 94.5638,408.965 82.22,393.937 71.5197,378.224 62.4729,362.07 55.0877,345.732 49.3681,329.471 45.3115,313.56 42.9042,298.283 42.0905,283.488 42.0905,34.6595 49.9905,34.5989 61.4822,34.5107 72.9739,34.4225 84.4655,34.3343 95.9572,34.2462 95.9572,34.2462 107.449,34.158 118.941,34.0698 130.432,33.9816 141.924,33.8935 153.416,33.8053 164.907,33.7171 176.399,33.6289 187.891,33.5408 195.527,33.4822 195.507,43.9325 195.481,56.8313 195.456,69.73 195.456,69.7301 195.43,82.6288 195.379,108.426 195.379,108.426 195.354,121.325 195.303,147.123 195.303,147.123 195.278,160.022 195.252,172.92 195.227,185.819 195.201,198.718 195.176,211.617 195.176,211.617 195.15,224.516 195.151,224.663 195.238,235.957 195.239,236.071 195.404,246.888 195.408,247.095 195.705,257.401 195.718,257.717 196.203,267.479 196.231,267.926 196.959,277.11 197.02,277.716 198.046,286.289 198.164,287.089 199.544,295.018 199.762,296.053 201.551,303.303 201.938,304.614 204.192,311.153 204.853,312.763 207.626,318.558 208.695,320.434 212.044,325.451 213.646,327.459 217.625,331.664 219.782,333.55 224.447,336.909 226.99,338.389 232.396,340.871 235.008,341.792 241.211,343.361 243.599,343.766 250.654,344.391 251.947,329.779 252.956,344.414 260.217,343.913 262.618,343.553 268.965,342.075 271.64,341.184 277.135,338.766 279.779,337.271 284.485,333.949 286.74,331.999 290.719,327.811 292.383,325.716 295.696,320.697 296.787,318.746 299.497,312.933 300.154,311.275 302.322,304.706 302.696,303.372 304.384,296.083 304.587,295.046 305.858,287.073 305.962,286.286 306.878,277.666 306.929,277.083 307.552,267.854 307.574,267.437 307.966,257.634 307.974,257.354 308.196,247.015 308.199,246.849 308.314,236.01 308.315,235.943 308.385,224.64 308.385,224.515 308.359,211.616 308.333,198.718 308.307,185.819 308.282,172.92 308.282,172.92 308.256,160.021 308.204,134.224 308.204,134.223 308.178,121.325 308.101,82.6284 308.101,82.6283 308.075,69.7295 308.002,33.2672 316.376,33.2134 316.376,33.2134 328.129,33.1379 339.882,33.0623 351.635,32.9867 363.389,32.9112 375.142,32.8356 386.895,32.76 410.402,32.6089 422.155,32.5334 433.908,32.4578 445.661,32.3822 457.415,32.3067 465.623,32.2539 " fill="none" stroke-width="0.5" stroke="rgb(0,0,0)" />
</svg>
