<?xml version="1.0" standalone="no" ?>
<!DOCTYPE svg PUBLIC "-//W3C//DTD SVG 1.1//EN" "http://www.w3.org/Graphics/SVG/1.1/DTD/svg11.dtd">
<svg width="500px" height="500px" xmlns="http://www.w3.org/2000/svg" version="1.1" >
	<polygon points="468.923,280.952 468.124,295.195 465.736,310.269 461.699,326.204 455.988,342.683 448.588,359.403 439.491,376.07 428.693,392.399 416.19,408.113 401.978,422.942 386.051,436.624 368.395,448.904 348.987,459.532 327.793,468.257 304.765,474.824 279.85,478.97 252.982,480.417 226.807,479.051 202.421,475.127 179.797,468.893 158.9,460.586 139.699,450.436 122.173,438.668 106.312,425.507 92.1115,411.179 79.5758,395.917 68.711,379.962 59.5243,363.559 52.0219,346.961 46.2065,330.428 42.0757,314.226 39.6183,298.632 38.7905,283.579 38.7905,31.3847 49.9652,31.299 61.4569,31.2108 72.9486,31.1226 84.4402,31.0344 95.9319,30.9463 107.424,30.8581 118.915,30.7699 130.407,30.6817 153.39,30.5054 164.882,30.4172 187.865,30.2408 198.834,30.1567 198.832,31.0402 198.832,31.0402 198.807,43.939 198.781,56.8378 198.756,69.7366 198.756,69.7366 198.73,82.6354 198.679,108.433 198.679,108.433 198.654,121.332 198.603,147.129 198.603,147.129 198.578,160.028 198.552,172.927 198.552,172.927 198.527,185.826 198.501,198.725 198.476,211.623 198.476,211.623 198.45,224.522 198.451,224.637 198.538,235.932 198.539,236.021 198.703,246.838 198.707,247 199.004,257.306 199.014,257.554 199.498,267.315 199.521,267.665 200.249,276.85 200.296,277.324 201.323,285.897 201.415,286.523 202.795,294.452 202.966,295.262 204.755,302.513 205.058,303.539 207.312,310.078 207.829,311.338 210.603,317.133 211.439,318.602 214.788,323.618 216.043,325.19 220.022,329.395 221.711,330.872 226.376,334.231 228.366,335.39 233.773,337.871 235.817,338.593 242.02,340.162 243.89,340.479 250.945,341.104 251.947,329.779 252.729,341.122 259.99,340.621 261.87,340.339 268.217,338.861 270.311,338.164 275.806,335.745 277.876,334.575 282.582,331.253 284.348,329.727 288.326,325.538 289.629,323.898 292.942,318.879 293.796,317.352 296.506,311.539 297.02,310.241 299.188,303.671 299.481,302.628 301.169,295.338 301.328,294.526 302.599,286.553 302.681,285.937 303.597,277.318 303.637,276.861 304.259,267.632 304.277,267.305 304.668,257.502 304.675,257.283 304.897,246.944 304.899,246.814 305.014,235.975 305.015,235.922 305.085,224.619 305.085,224.522 305.059,211.623 305.033,198.724 305.007,185.825 304.982,172.927 304.982,172.927 304.956,160.028 304.904,134.23 304.904,134.23 304.878,121.331 304.801,82.635 304.801,82.635 304.775,69.7362 304.697,31.0398 304.697,31.0398 304.695,29.9884 316.354,29.9135 328.108,29.8379 339.861,29.7624 351.614,29.6868 363.367,29.6112 375.121,29.5357 386.874,29.4601 410.38,29.309 422.134,29.2334 433.887,29.1579 445.64,29.0823 457.393,29.0068 468.923,28.9326 " fill="none" stroke-width="0.5" stroke="rgb(0,0,0)" />
	<polygon points="320.464,423.619 320.573,424.099 320.627,424.36 320.78,424.48 321,424.666 321.401,424.361 322.091,423.883 321.985,423.117 " fill="none" stroke-width="0.5" stroke="rgb(0,0,0)" />
</svg>
