<?xml version="1.0" standalone="no" ?>
<!DOCTYPE svg PUBLIC "-//W3C//DTD SVG 1.1//EN" "http://www.w3.org/Graphics/SVG/1.1/DTD/svg11.dtd">
<svg width="500px" height="500px" xmlns="http://www.w3.org/2000/svg" version="1.1" >
	<polygon points="480.823,84.8254 476.095,90.5824 473.973,92.5774 473.488,92.9283 475.492,93.9953 477.215,95.1543 479.083,96.7275 480.452,98.159 480.823,98.6382 480.823,194.819 480.575,195.107 479.351,195.939 480.823,197.573 480.823,281.286 479.971,296.463 479.424,299.916 479.141,300.266 478.224,301.271 476.984,302.476 478.43,305.245 478.54,305.5 477.405,312.666 473.11,329.62 467.07,347.047 459.27,364.67 453.512,375.22 453.06,375.288 453.12,375.938 449.695,382.213 438.331,399.399 425.161,415.952 410.17,431.593 393.345,446.047 374.668,459.037 354.126,470.285 331.702,479.516 318.418,483.305 317.064,482.605 316.745,483.782 307.382,486.452 281.151,490.817 252.993,492.333 225.548,490.902 199.887,486.773 176.007,480.192 153.907,471.407 133.585,460.665 115.039,448.212 98.2672,434.295 83.2685,419.161 70.0408,403.057 58.5824,386.23 48.8916,368.927 40.9666,351.394 34.8057,333.879 32.557,325.059 34.3006,319.443 34.9469,317.817 35.53,316.626 34.6188,316.339 30.0004,313.539 29.9056,313.444 27.7694,299.888 26.8905,283.906 26.8905,155.23 29.2668,150.889 30.0504,149.736 28.7854,149.079 26.9087,147.856 26.8905,147.841 26.8905,37.5758 28.6158,36.3123 27.6902,35.9354 26.8905,35.5311 26.8905,19.5757 38.3822,19.4875 49.8739,19.3993 61.3656,19.3111 72.8572,19.223 84.3489,19.1348 95.8406,19.0466 107.332,18.9584 118.824,18.8703 130.316,18.7821 141.807,18.6939 153.299,18.6057 164.791,18.5175 176.282,18.4294 187.774,18.3412 210.757,18.1648 210.732,31.0636 210.706,43.9624 210.681,56.8612 210.656,69.76 210.63,82.6588 210.618,88.8812 210.388,88.9774 210.303,89.0045 210.617,89.2658 210.579,108.456 210.554,121.355 210.503,147.153 210.478,160.052 210.452,172.95 210.434,182.381 209.193,183.942 207.761,185.44 207.526,185.645 209.088,186.967 210.422,188.35 210.401,198.748 210.376,211.647 210.35,224.546 210.438,235.84 210.602,246.657 210.899,256.963 211.384,266.725 211.473,267.845 211.021,268.392 210.51,269.071 211.646,270.028 212.112,275.909 213.138,284.482 214.519,292.41 216.308,299.661 218.563,306.2 221.336,311.994 224.685,317.011 228.665,321.215 233.33,324.575 238.737,327.056 244.939,328.626 251.957,329.247 259.171,328.749 265.518,327.271 271.013,324.853 275.719,321.532 279.698,317.343 283.01,312.324 285.72,306.511 287.888,299.942 289.576,292.653 290.848,284.68 291.763,276.06 292.386,266.831 292.778,257.028 293,246.688 293.115,235.848 293.185,224.546 293.159,211.647 293.133,198.748 293.107,185.849 293.09,176.961 293.457,176.288 293.224,176.137 293.088,176.011 293.082,172.95 293.056,160.052 293.004,134.254 292.978,121.355 292.954,109.089 293.185,108.584 292.952,108.496 292.901,82.6588 292.875,69.76 292.797,31.0636 292.771,18.1648 304.525,18.0893 316.278,18.0137 328.031,17.9382 339.784,17.8626 351.538,17.787 363.291,17.7115 375.044,17.6359 384.03,17.5782 385.04,18.3196 385.05,18.2974 385.676,17.5693 385.678,17.5676 386.797,17.5604 410.304,17.4092 422.057,17.3337 433.81,17.2581 445.564,17.1826 457.317,17.107 469.07,17.0314 480.823,16.9559 " fill="none" stroke-width="0.5" stroke="rgb(0,0,0)" />
	<polygon points="319.816,423.253 320.037,424.221 320.127,424.659 320.129,424.668 320.424,424.899 320.981,425.371 321.714,424.813 322.415,424.328 322.68,424.167 322.435,422.39 " fill="none" stroke-width="0.5" stroke="rgb(0,0,0)" />
</svg>
