<?xml version="1.0" standalone="no" ?>
<!DOCTYPE svg PUBLIC "-//W3C//DTD SVG 1.1//EN" "http://www.w3.org/Graphics/SVG/1.1/DTD/svg11.dtd">
<svg width="500px" height="500px" xmlns="http://www.w3.org/2000/svg" version="1.1" >
	<polygon points="468.773,280.948 467.974,295.179 465.589,310.239 461.555,326.161 455.848,342.628 448.453,359.336 439.363,375.993 428.572,392.311 416.077,408.015 401.875,422.833 385.959,436.506 368.316,448.777 348.922,459.396 327.743,468.115 304.732,474.678 279.834,478.82 252.982,480.266 226.823,478.902 202.452,474.98 179.845,468.75 158.963,460.45 139.776,450.307 122.263,438.548 106.413,425.396 92.223,411.078 79.696,395.827 68.8386,379.883 59.6584,363.491 52.1613,346.905 46.3502,330.384 42.2228,314.196 39.7677,298.616 38.9405,283.575 38.9405,31.5336 49.9664,31.449 61.458,31.3608 61.458,31.3608 84.4414,31.1844 95.9331,31.0963 107.425,31.0081 118.916,30.9199 130.408,30.8317 130.408,30.8317 141.9,30.7435 153.391,30.6554 164.883,30.5672 176.375,30.479 187.866,30.3908 187.866,30.3908 198.683,30.3078 198.682,31.0399 198.682,31.0399 198.656,43.9387 198.606,69.7363 198.606,69.7363 198.58,82.635 198.529,108.433 198.529,108.433 198.504,121.331 198.453,147.129 198.453,147.129 198.428,160.028 198.402,172.927 198.402,172.927 198.377,185.825 198.351,198.724 198.326,211.623 198.326,211.623 198.3,224.522 198.301,224.639 198.388,235.933 198.389,236.023 198.553,246.84 198.557,247.004 198.854,257.31 198.864,257.561 199.349,267.323 199.372,267.677 200.1,276.861 200.147,277.342 201.174,285.915 201.267,286.549 202.647,294.477 202.82,295.298 204.61,302.548 204.916,303.588 207.17,310.127 207.694,311.403 210.468,317.197 211.315,318.685 214.664,323.701 215.934,325.294 219.913,329.498 221.623,330.993 226.288,334.353 228.304,335.526 233.71,338.008 235.781,338.738 241.983,340.307 243.877,340.629 250.931,341.253 251.947,329.779 252.74,341.271 260,340.771 261.904,340.485 268.251,339.008 270.371,338.301 275.867,335.883 277.963,334.698 282.668,331.376 284.456,329.83 288.435,325.641 289.754,323.981 293.067,318.962 293.932,317.415 296.642,311.602 297.163,310.288 299.331,303.718 299.627,302.661 301.315,295.372 301.476,294.55 302.747,286.577 302.83,285.953 303.746,277.333 303.786,276.871 304.409,267.642 304.427,267.311 304.818,257.508 304.825,257.286 305.047,246.947 305.049,246.816 305.164,235.976 305.165,235.923 305.235,224.62 305.235,224.521 305.209,211.623 305.183,198.724 305.157,185.825 305.132,172.926 305.132,172.926 305.106,160.027 305.054,134.23 305.054,134.23 305.028,121.331 304.951,82.6347 304.951,82.6347 304.925,69.7359 304.847,31.0395 304.847,31.0395 304.845,30.1375 316.355,30.0635 328.109,29.9879 339.862,29.9124 351.615,29.8368 363.368,29.7612 375.122,29.6857 386.875,29.6101 410.381,29.459 422.135,29.3834 433.888,29.3079 445.641,29.2323 457.394,29.1567 468.773,29.0836 " fill="none" stroke-width="0.5" stroke="rgb(0,0,0)" />
	<polygon points="320.64,423.718 320.719,424.066 320.763,424.276 320.877,424.366 321.005,424.474 321.316,424.237 321.931,423.811 321.862,423.315 " fill="none" stroke-width="0.5" stroke="rgb(0,0,0)" />
</svg>
