<?xml version="1.0" standalone="no" ?>
<!DOCTYPE svg PUBLIC "-//W3C//DTD SVG 1.1//EN" "http://www.w3.org/Graphics/SVG/1.1/DTD/svg11.dtd">
<svg width="500px" height="500px" xmlns="http://www.w3.org/2000/svg" version="1.1" >
	<polygon points="460.973,280.729 460.209,294.348 457.941,308.668 454.076,323.922 448.584,339.767 441.451,355.884 432.674,371.966 422.254,387.723 410.197,402.877 396.505,417.163 381.179,430.33 364.204,442.135 345.554,452.348 325.181,460.734 303.017,467.056 278.981,471.055 252.976,472.455 227.648,471.135 204.113,467.347 182.329,461.344 162.236,453.357 143.784,443.603 126.94,432.293 111.686,419.636 98.0193,405.846 85.9458,391.147 75.4776,375.774 66.6278,359.973 59.4076,343.999 53.823,328.122 49.871,312.622 47.5342,297.793 46.7405,283.36 46.7405,39.2739 50.0262,39.2487 61.5179,39.1606 73.0096,39.0724 84.5012,38.9842 95.9929,38.896 95.9929,38.896 107.485,38.8078 118.976,38.7197 130.468,38.6315 141.96,38.5433 153.451,38.4551 164.943,38.367 176.435,38.2788 187.926,38.1906 190.868,38.168 190.857,43.9233 190.831,56.8221 190.806,69.7209 190.806,69.7209 190.78,82.6197 190.729,108.417 190.729,108.417 190.704,121.316 190.653,147.114 190.653,147.114 190.628,160.012 190.602,172.911 190.602,172.911 190.577,185.81 190.551,198.709 190.526,211.608 190.526,211.608 190.5,224.506 190.501,224.699 190.588,235.993 190.59,236.142 190.754,246.959 190.76,247.229 191.057,257.535 191.073,257.948 191.558,267.71 191.596,268.294 192.324,277.478 192.403,278.269 193.429,286.842 193.583,287.887 194.963,295.815 195.247,297.167 197.037,304.418 197.542,306.13 199.796,312.669 200.658,314.771 203.432,320.565 204.828,323.016 208.177,328.032 210.269,330.655 214.248,334.86 217.065,337.323 221.73,340.683 225.05,342.616 230.457,345.097 233.867,346.3 240.07,347.869 243.189,348.398 250.244,349.023 251.947,329.779 253.276,349.053 260.537,348.552 263.672,348.082 270.019,346.604 273.513,345.44 279.008,343.022 282.461,341.07 287.167,337.748 290.112,335.202 294.09,331.013 296.264,328.278 299.577,323.259 301.002,320.71 303.711,314.898 304.57,312.732 306.738,306.163 307.226,304.422 308.914,297.132 309.179,295.778 310.45,287.805 310.586,286.777 311.502,278.158 311.568,277.396 312.191,268.167 312.22,267.623 312.612,257.82 312.623,257.454 312.845,247.114 312.849,246.899 312.964,236.059 312.965,235.971 313.035,224.669 313.035,224.506 313.009,211.607 312.983,198.708 312.957,185.809 312.932,172.911 312.932,172.911 312.906,160.012 312.854,134.214 312.854,134.214 312.828,121.315 312.751,82.619 312.751,82.619 312.725,69.7202 312.661,37.8874 316.405,37.8633 328.159,37.7878 339.912,37.7122 351.665,37.6366 363.418,37.5611 375.172,37.4855 386.925,37.41 410.431,37.2588 422.185,37.1833 433.938,37.1077 445.691,37.0321 457.444,36.9566 460.973,36.9339 " fill="none" stroke-width="0.5" stroke="rgb(0,0,0)" />
</svg>
