<?xml version="1.0" standalone="no" ?>
<!DOCTYPE svg PUBLIC "-//W3C//DTD SVG 1.1//EN" "http://www.w3.org/Graphics/SVG/1.1/DTD/svg11.dtd">
<svg width="500px" height="500px" xmlns="http://www.w3.org/2000/svg" version="1.1" >
	<polygon points="480.823,31.8827 480.803,31.9443 480.773,32.083 480.823,32.7485 480.823,78.8634 480.284,80.1384 479.053,82.1748 473.738,88.6467 472.187,90.1056 466.763,94.0263 468.732,94.4306 470.189,94.8723 472.284,95.7243 473.79,96.526 475.513,97.6851 476.879,98.8355 478.248,100.267 479.307,101.636 480.341,103.305 480.823,104.281 480.823,123.228 480.644,123.632 480.823,123.779 480.823,190.312 478.859,192.585 477.28,193.659 474.147,194.807 474.732,195.368 478.734,199.81 479.652,201.041 480.823,202.96 480.823,245.669 479.209,248.417 478.798,249.049 476.024,252.917 476.334,252.95 478.257,253.386 479.516,253.834 480.823,254.503 480.823,281.286 480.106,294.071 479.871,294.435 479.347,295.16 476.769,298.349 476.098,299.084 473.149,301.95 473.811,302.99 475.727,306.657 476.215,307.79 477.561,311.684 477.405,312.666 473.11,329.62 467.07,347.047 459.27,364.67 455.366,371.824 454.895,372.102 450.855,372.267 449.661,371.689 450.319,378.749 450.25,380.835 450.167,381.349 449.695,382.213 438.331,399.399 425.161,415.952 410.17,431.593 401.38,439.144 399.266,438.481 397.773,437.776 396.67,437.11 396.681,437.258 396.58,439.318 395.765,443.968 393.345,446.047 374.668,459.037 354.126,470.285 331.702,479.516 323.188,481.944 322.303,481.693 320.76,481.082 318.096,479.705 316.675,478.775 314.476,476.989 314.027,476.541 314.272,477.727 314.328,478.166 314.392,478.963 314.405,479.377 314.121,481.801 313.723,483.274 312.917,484.874 307.382,486.452 281.151,490.817 266.385,491.612 264.559,490.121 263.665,489.257 262.877,489.658 262.411,489.878 258.246,491.684 257.762,491.876 257.108,492.112 252.993,492.333 225.548,490.902 199.887,486.773 180.207,481.349 178.89,480.414 174.954,477.649 172.005,475.99 170.235,475.48 167.307,475.19 163.185,474.962 162.757,474.925 153.907,471.407 133.585,460.665 130.825,458.812 129.437,457.466 127.307,454.029 127.174,451.921 125.937,451.91 119.507,451.212 115.039,448.212 98.2672,434.295 83.2685,419.161 70.2935,403.365 70.0206,401.18 69.9829,399.491 70.1255,397.704 68.6032,397.714 64.9973,395.651 58.5824,386.23 48.8916,368.927 40.9666,351.394 34.8057,333.879 34.0432,330.888 34.2451,329.908 37.2134,320.348 37.686,319.158 40.1613,314.104 37.5034,314.05 35.5343,313.43 32.157,311.382 30.3385,309.564 29.0175,307.808 27.7694,299.888 26.8905,283.906 26.8905,236.773 27.0836,236.24 28.7452,232.422 29.7084,230.764 30.565,229.618 30.2173,229.479 28.1888,228.31 26.8905,227.293 26.8905,164.326 27.1479,163.24 27.4115,162.352 28.9836,157.97 29.5156,156.787 31.9421,152.354 32.8336,151.041 34.9802,148.453 33.9735,148.159 32.4766,147.558 30.1904,146.372 28.818,145.477 26.8905,143.93 26.8905,111.078 27.3382,110.631 28.3076,109.802 30.0322,108.542 29.7107,108.384 29.2259,108.085 27.7595,106.931 27.3644,106.541 26.8905,105.943 26.8905,90.6374 27.0142,90.3812 28.7827,87.708 26.9301,87.0887 26.8905,87.0676 26.8905,41.3885 27.1697,41.1517 31.0604,38.3025 31.4639,38.0249 35.6548,35.3206 34.5241,35.0341 34.0684,34.9047 30.3178,33.7231 29.0665,33.2136 26.8905,32.1133 26.8905,19.5757 38.3822,19.4875 49.8739,19.3993 61.3656,19.3111 72.8572,19.223 84.3489,19.1348 95.8406,19.0466 107.332,18.9584 116.368,18.8891 116.717,19.2773 116.914,19.5057 118.083,20.9072 118.495,21.2912 118.805,21.3359 119.122,21.2905 119.672,20.8078 120.928,19.4219 121.142,19.1947 121.479,18.8499 130.316,18.7821 141.807,18.6939 153.299,18.6057 156.971,18.5775 157.759,21.1106 159.136,20.1173 160.598,19.2742 162.244,18.5371 164.791,18.5175 176.282,18.4294 187.774,18.3412 210.757,18.1648 210.732,31.0636 210.706,43.9624 210.681,56.8612 210.679,57.6416 209.338,58.152 209.064,58.2008 210.675,60.0474 210.656,69.76 210.63,82.6588 210.625,85.5091 210.081,85.7996 209.211,86.1634 207.855,86.5981 206.852,86.8268 205.589,87.014 204.461,87.0934 203.121,87.0725 204.394,88.0602 204.614,88.2372 208.909,91.8125 209.19,92.057 210.609,93.3503 210.579,108.456 210.554,121.355 210.547,124.766 210.316,124.918 210.546,125.179 210.503,147.153 210.478,160.052 210.452,172.95 210.445,176.648 209.376,178.61 208.586,179.803 206.805,182.045 205.758,183.14 203.617,185.006 202.375,185.891 203.212,186.356 205.611,188 206.893,189.084 208.865,191.13 209.962,192.546 210.412,193.277 210.401,198.748 210.376,211.647 210.364,217.812 209.697,219.012 209.496,219.353 208.671,220.685 207.033,222.273 209.419,224.479 210.019,225.096 210.358,225.481 210.438,235.84 210.602,246.657 210.899,256.963 211.216,263.34 210.997,263.624 210.812,263.856 208.625,266.503 207.109,268.519 206.619,269.436 206.797,269.725 208.018,270.961 210.199,272.797 210.342,272.921 211.99,274.374 212.112,275.909 213.138,284.482 214.519,292.41 216.308,299.661 218.563,306.2 221.336,311.994 224.685,317.011 228.665,321.215 233.33,324.575 238.737,327.056 244.939,328.626 249.812,329.057 250.307,329.867 251.816,332.991 252.334,334.362 252.558,335.162 254.153,332.171 255.018,330.862 256.58,328.928 259.171,328.749 265.518,327.271 271.013,324.853 275.719,321.532 279.698,317.343 283.01,312.324 285.72,306.511 287.888,299.942 289.576,292.653 290.848,284.68 291.763,276.06 292.272,268.521 292.803,267.991 294.35,266.779 295.362,266.164 296.235,265.764 293.678,263.569 292.568,262.281 292.778,257.028 293,246.688 293.115,235.848 293.185,224.6 293.971,223.078 293.18,222.287 293.159,211.647 293.133,198.748 293.131,197.478 294.148,196.46 295.626,195.233 296.925,194.348 297.124,194.239 296.35,193.095 295.703,191.908 295.069,190.412 294.659,189.103 294.323,187.467 294.18,186.063 294.181,184.38 294.324,182.978 294.66,181.34 295.07,180.032 295.704,178.537 296.352,177.351 297.241,176.037 297.714,175.465 297.697,175.457 295.299,173.902 293.887,172.59 293.079,171.653 293.056,160.052 293.004,134.254 292.992,128.375 293.884,127.537 293.85,127.41 293.671,126.665 293.59,126.292 293.444,125.531 293.376,125.128 293.267,124.354 293.217,123.916 293.148,123.135 293.12,122.659 293.096,121.873 293.122,120.918 293.372,117.975 293.606,116.602 294.375,113.626 294.861,112.255 296.175,109.377 296.965,108.01 298.447,105.929 296.951,106.156 296.715,106.155 296.254,106.139 296.063,106.127 294.825,105.954 294.674,105.922 292.946,105.269 292.903,83.9698 293.233,83.3679 293.596,82.7031 293.441,82.6762 292.9,82.5215 292.875,69.76 292.818,41.2905 293.049,41.1644 293.649,40.8509 292.814,39.6282 292.797,31.0636 292.771,18.1648 304.525,18.0893 305.141,18.0853 305.804,18.4266 305.973,18.5162 307.929,19.5814 307.938,19.5222 308.111,18.7153 308.288,18.0651 316.278,18.0137 328.031,17.9382 339.784,17.8626 351.538,17.787 363.291,17.7115 375.044,17.6359 378.266,17.6152 379.258,18.0704 380.708,18.9232 386.022,22.8241 387.362,20.286 387.988,19.558 390.645,17.5356 410.304,17.4092 422.057,17.3337 433.81,17.2581 442.222,17.204 443.342,18.0005 445.368,19.8522 445.475,19.9874 446.152,18.9526 447.594,17.1812 447.605,17.1694 457.317,17.107 469.07,17.0314 480.823,16.9559 " fill="none" stroke-width="0.5" stroke="rgb(0,0,0)" />
	<polygon points="305.805,468.65 305.539,468.933 306.48,469.105 307.149,469.297 309.068,470.123 309.562,470.415 309.706,470.53 309.397,469.944 308.786,468.446 308.033,465.923 307.949,465.494 " fill="none" stroke-width="0.5" stroke="rgb(0,0,0)" />
	<polygon points="192.875,443.515 193.277,444.699 193.726,446.443 194.477,446.608 195.979,446.849 197.426,447 198.579,447.045 200.12,446.96 201.537,446.711 202.751,446.313 203.696,445.813 204.402,445.232 204.982,444.481 205.413,443.533 202.939,443.718 201.67,443.715 195.451,443.226 194.047,442.994 192.482,442.594 " fill="none" stroke-width="0.5" stroke="rgb(0,0,0)" />
	<polygon points="316.764,421.048 315.971,421.217 316.396,422.333 316.732,423.445 317.063,424.898 317.129,425.218 317.349,426.399 317.93,426.817 318.451,427.224 319.317,427.96 320.245,428.883 320.85,429.588 321.013,429.424 321.728,428.74 322.147,428.365 322.856,427.773 323.451,427.32 324.151,426.835 325.005,426.317 325.695,425.953 326.277,425.703 326.064,425.298 325.715,424.056 325.404,421.809 325.404,418.2 " fill="none" stroke-width="0.5" stroke="rgb(0,0,0)" />
	<polygon points="166.907,413.471 166.913,414.681 166.63,418.814 169.595,419.185 169.589,418.988 169.621,418.62 169.94,416.96 170.036,416.641 170.812,414.854 170.969,414.583 171.758,413.549 169.224,412.221 168.575,411.842 166.686,410.622 " fill="none" stroke-width="0.5" stroke="rgb(0,0,0)" />
	<polygon points="259.539,404.457 258.922,405.972 258.802,406.199 258.854,406.222 261.713,407.65 262.253,407.944 265.035,409.601 265.485,409.889 268.103,411.685 268.514,411.986 270.879,413.832 271.298,414.182 273.32,415.987 273.376,416.04 273.899,415.95 274.244,415.898 275.273,415.765 268.688,411.867 267.285,410.823 260.184,404.268 259.742,403.77 " fill="none" stroke-width="0.5" stroke="rgb(0,0,0)" />
	<polygon points="350.725,395.888 349.96,397.166 349.751,397.452 352.626,397.291 352.232,396.84 351.374,395.667 351.073,395.168 " fill="none" stroke-width="0.5" stroke="rgb(0,0,0)" />
	<polygon points="204.229,391.376 204.742,392.519 204.973,393.162 205.371,392.574 207.284,390.571 207.792,390.192 207.248,390.24 205.604,390.223 203.475,389.988 " fill="none" stroke-width="0.5" stroke="rgb(0,0,0)" />
	<polygon points="243.885,374.585 243.925,374.611 245.287,375.752 246.015,376.507 246.147,376.511 245.796,375.218 245.54,373.788 245.426,372.514 " fill="none" stroke-width="0.5" stroke="rgb(0,0,0)" />
	<polygon points="82.8376,368.187 81.8397,368.258 80.8642,368.268 81.278,369.315 81.784,372.656 82.9866,371.585 84.0633,370.773 85.2324,370.032 85.0169,369.848 83.9272,368.726 83.4312,368.108 " fill="none" stroke-width="0.5" stroke="rgb(0,0,0)" />
	<polygon points="117.841,360.267 117.563,361.21 119.607,361.025 119.336,360.723 118.669,359.753 118.139,358.682 " fill="none" stroke-width="0.5" stroke="rgb(0,0,0)" />
	<polygon points="294.741,359.411 294.938,359.558 295.12,359.696 295.199,359.758 295.198,359.741 295.224,359.193 " fill="none" stroke-width="0.5" stroke="rgb(0,0,0)" />
	<polygon points="394.405,342.803 393.675,343.327 392.654,343.98 390.543,344.944 389.708,345.191 388.543,345.287 389.203,347.155 389.426,348.126 392.555,345.504 394.546,344.267 396.052,343.605 395.831,343.338 395.643,343.103 395.026,342.303 " fill="none" stroke-width="0.5" stroke="rgb(0,0,0)" />
	<polygon points="59.5477,341.722 61.3233,344.578 61.5178,343.678 62.066,342.014 62.7738,340.447 62.387,340.364 61.2672,340.04 59.2522,339.3 " fill="none" stroke-width="0.5" stroke="rgb(0,0,0)" />
	<polygon points="159.704,336.713 157.523,338.798 156.14,339.866 154.841,340.665 156.137,341.451 157.129,342.156 159.26,343.921 159.305,342.521 159.343,341.954 159.522,340.19 159.615,339.539 159.921,337.861 160.111,337.052 160.462,335.831 " fill="none" stroke-width="0.5" stroke="rgb(0,0,0)" />
	<polygon points="415.669,334.052 414.529,334.176 414.732,335.422 414.777,335.734 414.936,337.004 414.988,337.59 415.048,338.719 415.056,339.399 415.047,339.733 415.019,340.15 417.781,340.385 416.656,338.194 415.699,334.046 " fill="none" stroke-width="0.5" stroke="rgb(0,0,0)" />
	<polygon points="165.69,324.919 164.94,327.734 164.456,329.076 164.284,329.446 164.844,328.874 165.719,328.216 167.748,327.277 166.175,324.896 165.817,324.202 " fill="none" stroke-width="0.5" stroke="rgb(0,0,0)" />
	<polygon points="76.0373,312.346 75.1566,315.723 74.8735,318.345 74.8988,319.242 75.0106,320.302 75.1202,320.819 75.968,319.698 77.3857,318.159 78.582,317.09 80.283,315.842 80.9596,315.44 80.7301,315.32 79.3764,314.441 77.9474,313.3 76.7617,312.141 76.3068,311.598 " fill="none" stroke-width="0.5" stroke="rgb(0,0,0)" />
	<polygon points="384.354,316.399 384.188,317.251 384.16,317.558 384.448,316.263 384.462,316.102 " fill="none" stroke-width="0.5" stroke="rgb(0,0,0)" />
	<polygon points="133.509,306.851 133.813,306.816 133.453,306.213 " fill="none" stroke-width="0.5" stroke="rgb(0,0,0)" />
	<polygon points="162.716,299.152 161.091,299.537 159.908,299.693 159.092,299.713 159.282,300.005 159.747,300.817 161.838,304.992 161.867,304.453 161.961,303.572 162.453,300.525 162.638,299.671 162.786,299.128 " fill="none" stroke-width="0.5" stroke="rgb(0,0,0)" />
	<polygon points="458.179,290.802 457.631,291.463 459.079,291.696 458.993,291.111 458.783,290.301 " fill="none" stroke-width="0.5" stroke="rgb(0,0,0)" />
	<polygon points="86.9163,288.706 87.4216,288.972 87.5981,289.112 87.6333,288.941 87.8217,286.963 " fill="none" stroke-width="0.5" stroke="rgb(0,0,0)" />
	<polygon points="157.525,228.551 157.422,228.764 158.052,229.443 159.071,233.79 159.01,235.217 158.986,235.588 158.828,237.41 158.811,237.584 158.586,239.656 158.577,239.736 158.319,241.912 158.317,241.931 158.062,244.044 157.848,245.902 157.714,247.263 157.703,247.474 158.425,247.883 160.678,251.606 161.143,253.23 161.301,253.875 161.666,255.686 161.736,256.086 162.028,258.014 162.059,258.238 162.303,260.215 162.312,260.292 162.522,262.129 162.537,261.561 163.679,257.588 165.262,254.587 166.371,253.248 162.583,252.203 159.656,249.414 158.394,245.572 158.555,243.254 158.791,242.141 158.992,241.102 159.167,240.071 159.315,239.047 159.434,238.031 159.521,237.023 159.575,236.02 159.591,235.147 159.503,233.344 159.24,231.686 158.766,230.031 158.028,228.322 157.839,228.006 " fill="none" stroke-width="0.5" stroke="rgb(0,0,0)" />
	<polygon points="382.451,248.263 382.31,248.433 383.455,247.884 383.015,247.424 " fill="none" stroke-width="0.5" stroke="rgb(0,0,0)" />
	<polygon points="327.722,236.81 326.288,236.81 327.397,238.065 329.332,241.294 329.626,241.147 330.053,240.983 329.994,240.874 329.361,239.377 328.656,237.116 328.576,236.724 " fill="none" stroke-width="0.5" stroke="rgb(0,0,0)" />
	<polygon points="310.985,227.508 311.137,227.679 313.114,228.855 313.637,229.082 313.184,228.251 312.647,226.983 " fill="none" stroke-width="0.5" stroke="rgb(0,0,0)" />
	<polygon points="89.3662,215.849 89.7225,216.537 90.2385,217.767 90.4903,218.535 90.7693,219.634 90.9188,220.455 90.9509,220.723 92.7632,220.137 93.4922,220.015 96.0232,219.981 96.667,220.072 98.8949,220.713 99.2648,220.878 99.3024,220.372 99.4861,219.146 100.132,216.303 98.0418,216.533 96.2128,216.531 93.0236,216.175 91.1619,215.746 88.7415,214.885 " fill="none" stroke-width="0.5" stroke="rgb(0,0,0)" />
	<polygon points="432.891,215.152 432.139,215.297 428.923,215.761 432.035,218.343 433.327,219.686 433.528,219.95 434.116,218.886 436.639,215.232 437.428,214.257 437.665,214.005 " fill="none" stroke-width="0.5" stroke="rgb(0,0,0)" />
	<polygon points="68.217,218.181 68.4416,217.799 68.0114,217.687 67.7012,217.574 " fill="none" stroke-width="0.5" stroke="rgb(0,0,0)" />
	<polygon points="191.623,216.167 192.653,215.852 192.277,215.418 191.542,214.882 190.805,214.542 " fill="none" stroke-width="0.5" stroke="rgb(0,0,0)" />
	<polygon points="381.661,203.425 380.773,204.736 380.574,204.976 380.79,205.155 380.902,205.266 382.256,203.439 382.874,203.148 382.14,202.549 " fill="none" stroke-width="0.5" stroke="rgb(0,0,0)" />
	<polygon points="146.453,176.546 146.613,176.699 146.681,176.486 " fill="none" stroke-width="0.5" stroke="rgb(0,0,0)" />
	<polygon points="108.411,164.582 107.376,165.438 106.061,166.328 104.875,166.975 103.378,167.61 102.831,167.781 104.958,169.227 105.81,169.89 108.808,172.556 109.657,173.431 111.917,176.132 112.253,175.514 113.418,173.879 114.804,172.362 115.22,172.014 112.458,169.49 111.304,168.188 109.081,165.076 108.655,164.337 " fill="none" stroke-width="0.5" stroke="rgb(0,0,0)" />
	<polygon points="423.034,145.689 420.293,148.141 418.864,149.168 418.282,149.5 418.894,149.617 425.313,151.514 426.846,152.139 431.535,154.622 430.395,150.646 430.303,147.876 429.784,147.695 428.105,146.957 426.633,146.121 425.273,145.154 424.263,144.22 " fill="none" stroke-width="0.5" stroke="rgb(0,0,0)" />
	<polygon points="356.165,144.356 356.836,144.288 358.498,144.288 359.838,144.423 360.231,144.503 357.722,142.308 356.719,141.262 356.487,140.974 " fill="none" stroke-width="0.5" stroke="rgb(0,0,0)" />
	<polygon points="127.65,138.432 127.938,139.293 127.981,139.498 128.137,138.748 128.24,138.125 " fill="none" stroke-width="0.5" stroke="rgb(0,0,0)" />
	<polygon points="313.207,126.456 312.375,127.03 311.694,127.683 311.192,128.347 310.89,128.922 310.526,130.071 309.965,130.982 310.217,131.084 310.993,131.3 311.815,131.432 312.831,131.483 313.037,131.477 313.462,131.444 314.007,131.384 314.643,131.302 314.789,131.282 314.718,131.145 314.239,130.03 314.11,129.656 313.811,128.547 313.735,128.161 313.595,127.085 313.571,126.692 313.579,126.283 " fill="none" stroke-width="0.5" stroke="rgb(0,0,0)" />
	<polygon points="185.948,112.681 185.718,113.424 185.149,114.807 184.813,115.453 183.778,116.992 183.327,117.523 181.744,118.96 181.17,119.36 179.219,120.364 178.515,120.616 176.58,121.055 175.892,121.127 177.035,124.096 179.196,122.593 180.211,121.99 183.331,120.423 184.628,119.904 187.85,118.919 189.422,118.6 191.025,118.434 187.471,114.236 187.199,113.899 186.024,112.354 " fill="none" stroke-width="0.5" stroke="rgb(0,0,0)" />
	<polygon points="92.6219,116.123 90.3587,117.886 89.164,118.662 86.8259,119.909 84.5241,120.728 82.1228,121.201 81.9066,121.211 82.0025,122.895 82.0139,123.551 82.0036,124.01 82.3984,123.794 83.8962,123.158 85.2051,122.749 86.8432,122.412 88.2463,122.269 89.9281,122.269 91.3332,122.412 92.9691,122.748 93.8514,123.023 93.3551,119.312 93.333,119.133 92.9645,115.831 " fill="none" stroke-width="0.5" stroke="rgb(0,0,0)" />
	<polygon points="125.691,113.468 125.72,113.439 125.703,113.42 " fill="none" stroke-width="0.5" stroke="rgb(0,0,0)" />
	<polygon points="415.985,105.101 416.002,105.065 415.943,105.063 " fill="none" stroke-width="0.5" stroke="rgb(0,0,0)" />
	<polygon points="395.04,103.715 395.457,104.348 396.321,104.065 397.241,103.718 395.002,103.441 394.846,103.42 394.802,103.414 " fill="none" stroke-width="0.5" stroke="rgb(0,0,0)" />
	<polygon points="146.967,103.904 147.365,103.874 147.022,103.598 " fill="none" stroke-width="0.5" stroke="rgb(0,0,0)" />
	<polygon points="67.857,96.3186 68.5429,96.6349 68.6386,95.9072 " fill="none" stroke-width="0.5" stroke="rgb(0,0,0)" />
	<polygon points="104.108,63.0877 102.273,64.6583 102.067,64.8295 100.285,66.2574 99.4892,66.822 98.3443,67.5367 98.5525,68.5154 98.6326,69.0853 99.8591,68.3611 101.917,67.6477 104.726,67.4008 104.646,66.4453 104.625,66.0979 104.487,62.7788 " fill="none" stroke-width="0.5" stroke="rgb(0,0,0)" />
	<polygon points="413.172,64.3115 414.867,65.9029 416.509,67.2218 418.056,68.1608 419.468,68.6921 421.232,68.9147 421.477,68.8775 421.339,68.419 420.156,67.1975 416.869,65.2524 412.241,63.3353 412.129,63.2983 " fill="none" stroke-width="0.5" stroke="rgb(0,0,0)" />
	<polygon points="127.057,67.5739 127.014,67.7497 127.14,67.5594 128.568,66.0863 127.642,64.798 " fill="none" stroke-width="0.5" stroke="rgb(0,0,0)" />
	<polygon points="398.113,38.812 398.793,40.4454 398.911,40.846 399.297,40.6522 400.312,40.2247 403.284,39.1982 403.827,39.0312 405.274,38.6397 402.02,37.406 398.112,36.2943 396.514,35.8944 " fill="none" stroke-width="0.5" stroke="rgb(0,0,0)" />
</svg>
